<svg width="36" height="36" viewBox="0 0 36 36" fill="none" xmlns="http://www.w3.org/2000/svg">
<path d="M29.4727 9.70898C30.1541 9.56283 30.8252 9.99627 30.9717 10.6768C31.118 11.3572 30.6843 12.0275 30.003 12.1738C27.9529 12.6141 26.049 12.9551 24.2227 13.1953C24.1152 13.2095 24.0075 13.2239 23.9004 13.2373C22.9127 13.3965 22.6166 13.7797 22.4883 14.0293C22.308 14.3807 22.2911 14.8026 22.2911 15.2637V31.7393C22.2911 32.4353 21.7263 32.9998 21.0294 33C20.3323 33 19.7667 32.4354 19.7667 31.7393V26.5215C19.7667 24.9296 19.4765 24.0929 19.1758 23.6797C18.9326 23.3456 18.5969 23.168 18.0001 23.168C17.4032 23.168 17.0675 23.3456 16.8243 23.6797C16.5236 24.0929 16.2335 24.9295 16.2335 26.5215V31.7393C16.2335 32.4354 15.6678 33 14.9708 33C14.2738 32.9998 13.709 32.4353 13.709 31.7393V15.2637C13.709 14.8026 13.6921 14.3807 13.5118 14.0293C13.3835 13.7797 13.0874 13.3965 12.0997 13.2373C11.9926 13.2239 11.885 13.2095 11.7774 13.1953C9.95111 12.9551 8.04726 12.6142 5.99712 12.1738C5.3158 12.0275 4.8821 11.3572 5.02837 10.6768C5.1749 9.99631 5.84608 9.5629 6.5274 9.70898C8.51956 10.1369 10.3495 10.464 12.0889 10.6934C12.2128 10.7062 12.334 10.722 12.4522 10.7402C16.2804 11.2182 19.7197 11.2182 23.5479 10.7402C23.6661 10.722 23.7873 10.7062 23.9112 10.6934C25.6507 10.464 27.4805 10.1369 29.4727 9.70898Z" fill="white"/>
<path d="M18.0001 3C19.882 3.00011 21.4073 4.52379 21.4073 6.40332C21.4073 8.28286 19.882 9.80653 18.0001 9.80664C16.118 9.80664 14.5919 8.28293 14.5919 6.40332C14.5919 4.52372 16.118 3 18.0001 3Z" fill="white"/>
</svg>
