<svg width="36" height="36" viewBox="0 0 36 36" fill="none" xmlns="http://www.w3.org/2000/svg">
<path fill-rule="evenodd" clip-rule="evenodd" d="M24.9175 5.75122H23.9395C22.6191 5.75122 21.5487 6.83447 21.5487 8.17073C21.5487 9.50699 22.6191 10.5902 23.9395 10.5902H26.1809V13.4256C26.1809 14.6992 27.2011 15.7317 28.4596 15.7317C29.7181 15.7317 30.7383 14.6992 30.7383 13.4256V13.2068C31.3185 14.8202 31.6349 16.5617 31.6349 18.378C31.6349 26.7297 24.9449 33.5 16.6924 33.5C8.43996 33.5 1.75 26.7297 1.75 18.378C1.75 10.0264 8.43996 3.2561 16.6924 3.2561C19.7314 3.2561 22.5584 4.17418 24.9175 5.75122ZM13.704 14.9756C13.704 16.0196 12.8677 16.8659 11.8362 16.8659C10.8046 16.8659 9.96834 16.0196 9.96834 14.9756C9.96834 13.9317 10.8046 13.0854 11.8362 13.0854C12.8677 13.0854 13.704 13.9317 13.704 14.9756ZM23.4165 14.9756C23.4165 16.0196 22.5803 16.8659 21.5487 16.8659C20.5172 16.8659 19.6809 16.0196 19.6809 14.9756C19.6809 13.9317 20.5172 13.0854 21.5487 13.0854C22.5803 13.0854 23.4165 13.9317 23.4165 14.9756ZM11.1928 21.5915C10.8833 21.049 10.1979 20.8631 9.66191 21.1763C9.12589 21.4895 8.94224 22.1832 9.25171 22.7256C10.0058 24.0474 11.0904 25.1451 12.3966 25.9082C13.7027 26.6714 15.1843 27.0732 16.6925 27.0732C18.2007 27.0732 19.6823 26.6714 20.9885 25.9082C22.2946 25.1451 23.3792 24.0474 24.1333 22.7256C24.4428 22.1832 24.2591 21.4895 23.7231 21.1763C23.1871 20.8631 22.5017 21.049 22.1922 21.5915C21.6349 22.5685 20.8332 23.3798 19.8678 23.9438C18.9024 24.5079 17.8073 24.8049 16.6925 24.8049C15.5778 24.8049 14.4827 24.5079 13.5172 23.9438C12.5518 23.3798 11.7502 22.5685 11.1928 21.5915Z" fill="white"/>
<path fill-rule="evenodd" clip-rule="evenodd" d="M28.6465 2.5C29.2654 2.5 29.7672 3.00778 29.7672 3.63415V7.0366H33.1293C33.7482 7.0366 34.25 7.54438 34.25 8.17075C34.25 8.79712 33.7482 9.3049 33.1293 9.3049H29.7672V12.7073C29.7672 13.3337 29.2654 13.8415 28.6465 13.8415C28.0275 13.8415 27.5258 13.3337 27.5258 12.7073V9.3049H24.1637C23.5447 9.3049 23.043 8.79712 23.043 8.17075C23.043 7.54438 23.5447 7.0366 24.1637 7.0366H27.5258V3.63415C27.5258 3.00778 28.0275 2.5 28.6465 2.5Z" fill="white"/>
</svg>
