<svg width="36" height="36" viewBox="0 0 36 36" fill="none" xmlns="http://www.w3.org/2000/svg">
<path d="M18 21.4688C18.5521 21.4689 19 21.9166 19 22.4688V28.7148L21.3613 26.2734C21.7453 25.8766 22.3784 25.8662 22.7754 26.25C23.1722 26.6339 23.1826 27.2671 22.7988 27.6641L18.7188 31.8828C18.5304 32.0774 18.2709 32.1875 18 32.1875C17.729 32.1874 17.4696 32.0767 17.2812 31.8818L13.2061 27.6641L13.1387 27.5869C12.8247 27.1887 12.8579 26.6099 13.2305 26.25C13.6029 25.8904 14.1822 25.877 14.5693 26.2041L14.6436 26.2744L17 28.7119V22.4688C17 21.9166 17.4479 21.4689 18 21.4688Z" fill="white"/>
<path d="M27 16.9688C27.5523 16.9688 28 17.4165 28 17.9688C28 18.521 27.5523 18.9688 27 18.9688H9C8.44772 18.9688 8 18.521 8 17.9688C8 17.4165 8.44772 16.9688 9 16.9688H27Z" fill="white"/>
<path d="M18 3.75C18.2708 3.75002 18.5304 3.86008 18.7188 4.05469L22.7988 8.27344C23.1825 8.67038 23.1722 9.30359 22.7754 9.6875C22.3785 10.0713 21.7453 10.0609 21.3613 9.66406L19 7.22266V13.4688C19 14.0209 18.5521 14.4686 18 14.4688C17.4479 14.4686 17 14.0209 17 13.4688V7.22559L14.6436 9.66309L14.5693 9.7334C14.1822 10.0605 13.6029 10.0471 13.2305 9.6875C12.8333 9.30378 12.8223 8.67162 13.2061 8.27441L17.2812 4.05566C17.4696 3.86081 17.729 3.75009 18 3.75Z" fill="white"/>
</svg>
