<svg width="36" height="36" viewBox="0 0 36 36" fill="none" xmlns="http://www.w3.org/2000/svg">
<path d="M12.6821 12.7152C13.1799 11.2033 15.3186 11.2034 15.8165 12.7152L17.0206 16.377C17.3554 17.3946 18.1553 18.192 19.1728 18.527L22.8346 19.7333C24.347 20.2309 24.3472 22.3702 22.8346 22.8677L19.1728 24.0718C18.1551 24.4067 17.3555 25.2062 17.0206 26.224L15.8165 29.8846C15.3188 31.3967 13.1798 31.3968 12.6821 29.8846L11.478 26.224C11.143 25.2062 10.3437 24.4066 9.32579 24.0718L5.66515 22.8677C4.15339 22.3698 4.15318 20.231 5.66515 19.7333L9.32579 18.527C10.3438 18.1922 11.143 17.3949 11.478 16.377L12.6821 12.7152Z" fill="white"/>
<path d="M25.9635 6.48047C26.0508 6.19915 26.4496 6.19928 26.537 6.48047L27.1973 8.62061C27.4896 9.56841 28.2315 10.3111 29.1792 10.6036L31.3204 11.2628C31.6023 11.3499 31.6023 11.7503 31.3204 11.8374L29.1792 12.4966C28.2315 12.789 27.4898 13.5321 27.1973 14.4796L26.537 16.6198C26.45 16.9019 26.0505 16.9019 25.9635 16.6198L25.3032 14.4796C25.0107 13.5322 24.2677 12.789 23.3202 12.4966L21.18 11.8374C20.8985 11.7501 20.8982 11.3498 21.18 11.2628L23.3202 10.6036C24.268 10.3112 25.0109 9.56852 25.3032 8.62061L25.9635 6.48047Z" fill="white"/>
</svg>
