<svg width="36" height="36" viewBox="0 0 36 36" fill="none" xmlns="http://www.w3.org/2000/svg">
<path fill-rule="evenodd" clip-rule="evenodd" d="M12.6821 12.7156C13.1796 11.203 15.3201 11.2029 15.8176 12.7156L17.0217 16.3774C17.3566 17.3951 18.1551 18.1935 19.1728 18.5285L22.8357 19.7337C24.3478 20.2314 24.3479 22.3705 22.8357 22.8681L19.1728 24.0722C18.155 24.4072 17.3565 25.2065 17.0217 26.2244L15.8176 29.8851C15.3201 31.3977 13.1796 31.3977 12.6821 29.8851L11.478 26.2244C11.1432 25.2063 10.345 24.4071 9.32689 24.0722L5.66625 22.8681C4.15358 22.3706 4.15356 20.2312 5.66625 19.7337L9.32689 18.5285C10.3449 18.1937 11.143 17.3953 11.478 16.3774L12.6821 12.7156ZM13.616 17.0794C13.0579 18.7762 11.7268 20.1083 10.03 20.6664L8.10082 21.3014L10.03 21.9353C11.7269 22.4935 13.0579 23.8244 13.616 25.5213L14.2499 27.4494L14.8838 25.5213C15.4418 23.8247 16.7733 22.4937 18.4697 21.9353L20.3989 21.3014L18.4697 20.6664C16.7731 20.1082 15.4418 18.7761 14.8838 17.0794L14.2499 15.1513L13.616 17.0794Z" fill="white"/>
<path d="M25.9646 6.48088C26.0517 6.1991 26.4499 6.19907 26.537 6.48088L27.1973 8.62102C27.4896 9.56893 28.2313 10.3127 29.1792 10.6051L31.3215 11.2643C31.6029 11.3517 31.603 11.7506 31.3215 11.8378L29.1792 12.497C28.2314 12.7895 27.4896 13.5332 27.1973 14.4811L26.537 16.6213C26.4497 16.9027 26.0519 16.9027 25.9646 16.6213L25.3032 14.4811C25.0108 13.533 24.2683 12.7894 23.3202 12.497L21.18 11.8378C20.8982 11.7507 20.8982 11.3515 21.18 11.2643L23.3202 10.6051C24.2683 10.3128 25.0108 9.56911 25.3032 8.62102L25.9646 6.48088Z" fill="white"/>
</svg>
