<svg width="36" height="36" viewBox="0 0 36 36" fill="none" xmlns="http://www.w3.org/2000/svg">
<path fill-rule="evenodd" clip-rule="evenodd" d="M13.5 19C14.8807 19 16 20.1193 16 21.5V30.5C16 31.8807 14.8807 33 13.5 33H10.5C9.11929 33 8 31.8807 8 30.5V21.5C8 20.1193 9.11929 19 10.5 19H13.5ZM10.5 21C10.2239 21 10 21.2239 10 21.5V30.5C10 30.7761 10.2239 31 10.5 31H13.5C13.7761 31 14 30.7761 14 30.5V21.5C14 21.2239 13.7761 21 13.5 21H10.5Z" fill="white"/>
<path d="M24.75 19C26.9591 19 28.75 20.7909 28.75 23C28.75 23.5523 28.3023 24 27.75 24C27.1977 24 26.75 23.5523 26.75 23C26.75 21.8954 25.8546 21 24.75 21H24C22.4812 21 21.25 22.2312 21.25 23.75V28.25C21.25 29.7688 22.4812 31 24 31H24.75C25.8546 31 26.75 30.1046 26.75 29C26.75 28.4477 27.1977 28 27.75 28C28.3023 28 28.75 28.4477 28.75 29C28.75 31.2091 26.9591 33 24.75 33H24C21.3766 33 19.25 30.8734 19.25 28.25V23.75C19.25 21.1266 21.3766 19 24 19H24.75Z" fill="white"/>
<path d="M15.75 3C16.3023 3 16.75 3.44772 16.75 4C16.75 4.55228 16.3023 5 15.75 5H13V16C13 16.5523 12.5523 17 12 17C11.4477 17 11 16.5523 11 16V5H8.25C7.69772 5 7.25 4.55228 7.25 4C7.25 3.44772 7.69772 3 8.25 3H15.75Z" fill="white"/>
<path d="M26.7959 3.70215C26.9606 3.17513 27.5208 2.88136 28.0479 3.0459C28.5748 3.21067 28.8686 3.77086 28.7041 4.29785L24.9541 16.2979C24.8237 16.7153 24.4373 16.9999 24 17C23.5626 17 23.1764 16.7153 23.0459 16.2979L19.2959 4.29785C19.1314 3.77079 19.4251 3.2106 19.9521 3.0459C20.4792 2.88148 21.0394 3.17516 21.2041 3.70215L24 12.6484L26.7959 3.70215Z" fill="white"/>
</svg>
