<svg width="36" height="36" viewBox="0 0 36 36" fill="none" xmlns="http://www.w3.org/2000/svg">
<path fill-rule="evenodd" clip-rule="evenodd" d="M26.2647 3.04375C26.6548 2.65275 27.2879 2.65198 27.6789 3.04203L32.9568 8.30711C33.3478 8.69716 33.3486 9.33032 32.9586 9.72132C32.5685 10.1123 31.9353 10.1131 31.5443 9.72304L26.2665 4.45797C25.8755 4.06792 25.8747 3.43475 26.2647 3.04375ZM9.73585 3.04375C10.1259 3.43475 10.1251 4.06792 9.73413 4.45797L4.45625 9.72304C4.06525 10.1131 3.43208 10.1123 3.04203 9.72132C2.65198 9.33032 2.65275 8.69716 3.04375 8.30711L8.32164 3.04203C8.71264 2.65199 9.3458 2.65275 9.73585 3.04375ZM18.0032 6.67975C11.7514 6.67975 6.6875 11.7349 6.6875 17.9655C6.6875 21.0815 7.95234 23.9013 10.0009 25.945C12.0496 27.9886 14.8774 29.2513 18.0032 29.2513C20.7803 29.2513 23.3211 28.2549 25.2901 26.6002C27.7557 24.5281 29.3189 21.4291 29.3189 17.9655C29.3189 11.7349 24.255 6.67975 18.0032 6.67975ZM4.6875 17.9655C4.6875 10.6257 10.6514 4.67975 18.0032 4.67975C25.355 4.67975 31.3189 10.6257 31.3189 17.9655C31.3189 21.654 29.8115 24.9916 27.3812 27.3974L29.5323 29.5434C29.9233 29.9334 29.9241 30.5666 29.534 30.9576C29.144 31.3486 28.5108 31.3494 28.1198 30.9593L25.8532 28.6982C23.652 30.3034 20.9374 31.2513 18.0032 31.2513C14.6868 31.2513 11.6519 30.0405 9.32107 28.0391L6.39375 30.9593C6.00275 31.3494 5.36958 31.3486 4.97953 30.9576C4.58949 30.5666 4.59025 29.9334 4.98125 29.5434L7.90539 26.6263C5.90077 24.3015 4.6875 21.2743 4.6875 17.9655ZM19.0027 11.6359C19.0027 11.0836 18.5549 10.6359 18.0027 10.6359C17.4504 10.6359 17.0027 11.0836 17.0027 11.6359V16.965H11.6582C11.1059 16.965 10.6582 17.4127 10.6582 17.965C10.6582 18.5173 11.1059 18.965 11.6582 18.965H17.0027V24.294C17.0027 24.8463 17.4504 25.294 18.0027 25.294C18.5549 25.294 19.0027 24.8463 19.0027 24.294V18.965H24.3471C24.8994 18.965 25.3471 18.5173 25.3471 17.965C25.3471 17.4127 24.8994 16.965 24.3471 16.965H19.0027V11.6359Z" fill="white"/>
</svg>
