<svg width="36" height="36" viewBox="0 0 36 36" fill="none" xmlns="http://www.w3.org/2000/svg">
<path fill-rule="evenodd" clip-rule="evenodd" d="M26.2632 3.04527C26.6524 2.65344 27.2856 2.65131 27.6774 3.04053L32.9553 8.28313C33.3472 8.67234 33.3493 9.3055 32.9601 9.69734C32.5709 10.0892 31.9377 10.0913 31.5459 9.70208L26.268 4.45947C25.8761 4.07026 25.874 3.4371 26.2632 3.04527ZM9.73736 3.04527C10.1266 3.4371 10.1244 4.07026 9.73262 4.45947L4.45473 9.70208C4.0629 10.0913 3.42974 10.0892 3.04053 9.69734C2.65131 9.3055 2.65344 8.67234 3.04527 8.28313L8.32315 3.04053C8.71499 2.65131 9.34815 2.65344 9.73736 3.04527ZM9.2389 28.0215L6.39223 30.8492C6.0004 31.2384 5.36724 31.2363 4.97803 30.8444C4.58881 30.4526 4.59094 29.8194 4.98277 29.4302L7.81971 26.6123C5.79221 24.2751 4.56641 21.2322 4.56641 17.905C4.56641 10.5345 10.5816 4.55949 18.0017 4.55949C25.4218 4.55949 31.437 10.5345 31.437 17.905C31.437 21.6089 29.918 24.9603 27.465 27.3782L29.5308 29.4302C29.9226 29.8194 29.9248 30.4526 29.5356 30.8444C29.1463 31.2363 28.5132 31.2384 28.1214 30.8492L25.9345 28.677C23.7114 30.295 20.9689 31.2505 18.0017 31.2505C14.6535 31.2505 11.5914 30.0339 9.2389 28.0215ZM18.0027 10.4776C18.624 10.4776 19.1277 10.9812 19.1277 11.6026V16.7796H24.3471C24.9684 16.7796 25.4721 17.2833 25.4721 17.9046C25.4721 18.5259 24.9684 19.0296 24.3471 19.0296H19.1277V24.2066C19.1277 24.828 18.624 25.3316 18.0027 25.3316C17.3813 25.3316 16.8777 24.828 16.8777 24.2066V19.0296H11.6582C11.0369 19.0296 10.5332 18.5259 10.5332 17.9046C10.5332 17.2833 11.0369 16.7796 11.6582 16.7796H16.8777V11.6026C16.8777 10.9812 17.3813 10.4776 18.0027 10.4776Z" fill="white"/>
</svg>
