<svg width="36" height="36" viewBox="0 0 36 36" fill="none" xmlns="http://www.w3.org/2000/svg">
<path fill-rule="evenodd" clip-rule="evenodd" d="M26.2648 3.04373C26.6548 2.65274 27.288 2.652 27.679 3.04206L32.9569 8.30753C33.3478 8.6976 33.3486 9.33076 32.9585 9.72175C32.5685 10.1127 31.9353 10.1135 31.5443 9.72341L26.2664 4.45794C25.8754 4.06787 25.8747 3.43471 26.2648 3.04373ZM9.73583 3.04373C10.1259 3.43471 10.1251 4.06787 9.73416 4.45794L4.45627 9.72341C4.06529 10.1135 3.43213 10.1127 3.04206 9.72175C2.652 9.33076 2.65274 8.6976 3.04373 8.30753L8.32161 3.04206C8.7126 2.652 9.34576 2.65274 9.73583 3.04373ZM18.0032 6.68066C11.7515 6.68066 6.6875 11.7361 6.6875 17.9674C6.6875 21.0836 7.95236 23.9037 10.001 25.9475C12.0496 27.9913 14.8774 29.2541 18.0032 29.2541C20.7803 29.2541 23.3211 28.2576 25.2901 26.6028C27.7557 24.5305 29.3189 21.4312 29.3189 17.9674C29.3189 11.7361 24.2549 6.68066 18.0032 6.68066ZM4.6875 17.9674C4.6875 10.6271 10.6514 4.68066 18.0032 4.68066C25.355 4.68066 31.3189 10.6271 31.3189 17.9674C31.3189 21.6561 29.8115 24.9939 27.3811 27.4L29.5324 29.5462C29.9233 29.9362 29.9241 30.5694 29.534 30.9604C29.144 31.3514 28.5108 31.3521 28.1198 30.9621L25.8532 28.7008C23.652 30.3061 20.9374 31.2541 18.0032 31.2541C14.6867 31.2541 11.6519 30.0432 9.32107 28.0416L6.39377 30.9621C6.00279 31.3521 5.36963 31.3514 4.97956 30.9604C4.5895 30.5694 4.59024 29.9362 4.98123 29.5462L7.90544 26.6288C5.90078 24.3038 4.6875 21.2763 4.6875 17.9674ZM17.8828 11.6357C17.8828 11.0835 17.4351 10.6357 16.8828 10.6357C16.3305 10.6357 15.8828 11.0835 15.8828 11.6357V18.7072C15.8828 19.4666 16.4984 20.0822 17.2578 20.0822H22.1077C22.6599 20.0822 23.1077 19.6345 23.1077 19.0822C23.1077 18.53 22.6599 18.0822 22.1077 18.0822H17.8828V11.6357Z" fill="white"/>
</svg>
