<svg width="36" height="36" viewBox="0 0 36 36" fill="none" xmlns="http://www.w3.org/2000/svg">
<path d="M26.8027 25.3693C26.8027 26.1902 26.1118 26.8564 25.2607 26.8566H23.4971V31.0656C23.4969 32.1342 22.6118 33.0001 21.5195 33.0001C20.4245 33.0001 19.5412 32.1342 19.541 31.0656V26.8566H16.4609V31.0656C16.4607 32.1342 15.5737 33.0001 14.4814 33.0001C13.3895 33 12.5031 32.1341 12.5029 31.0656V26.8566H10.7412C9.88978 26.8566 9.19727 26.1903 9.19727 25.3693V13.5538H26.8027V25.3693ZM30.2539 13.4376C31.3577 13.4376 32.2501 14.314 32.25 15.3937V23.0333C32.2499 24.1129 31.3577 24.9884 30.2539 24.9884C29.1516 24.9883 28.255 24.1128 28.2549 23.0333V15.3937C28.2549 14.314 29.1516 13.4376 30.2539 13.4376ZM5.74707 13.4405C6.85078 13.4405 7.74504 14.3151 7.74512 15.3946V23.0314C7.74512 24.1097 6.85082 24.9864 5.74707 24.9864C4.64368 24.9862 3.75 24.1095 3.75 23.0314V15.3946C3.75007 14.3152 4.64373 13.4407 5.74707 13.4405ZM23.0898 3.30672C23.3139 2.98684 23.7669 2.90388 24.0986 3.12117C24.4307 3.33854 24.5157 3.77454 24.29 4.09383L22.6172 6.46199C24.9593 7.66513 26.5856 9.74437 26.8027 12.1612H9.19727C9.41454 9.74514 11.0418 7.6659 13.3838 6.46199L11.71 4.09383C11.4843 3.77454 11.5693 3.33855 11.9014 3.12117C12.233 2.90387 12.6843 2.98689 12.9111 3.30574L14.7354 5.88777C15.7468 5.55082 16.8452 5.3575 18 5.3575C19.1562 5.3575 20.2542 5.55136 21.2656 5.88875L23.0898 3.30672ZM14.2871 7.93954C13.7482 7.93971 13.3125 8.35998 13.3125 8.87801C13.3126 9.3957 13.7497 9.81534 14.2871 9.81552C14.8246 9.81552 15.2606 9.3958 15.2607 8.87801C15.2607 8.35987 14.8248 7.93954 14.2871 7.93954ZM21.8359 7.93954C21.2969 7.93958 20.8623 8.3599 20.8623 8.87801C20.8624 9.39578 21.297 9.81547 21.8359 9.81552C22.3735 9.81552 22.8104 9.3958 22.8105 8.87801C22.8105 8.35987 22.3735 7.93954 21.8359 7.93954Z" fill="white"/>
</svg>
