<svg width="36" height="36" viewBox="0 0 36 36" fill="none" xmlns="http://www.w3.org/2000/svg">
<path fill-rule="evenodd" clip-rule="evenodd" d="M6.97244 3.47666C7.96915 3.04802 9.05532 2.86877 10.1369 2.95444C11.2185 3.0401 12.2629 3.38809 13.1797 3.96828C13.6369 4.25762 14.0555 4.60035 14.4273 4.98795C15.5338 4.63725 16.7121 4.44807 17.9346 4.44807C19.1571 4.44807 20.3353 4.63725 21.4417 4.98793C21.8722 4.53922 22.3647 4.15126 22.9062 3.83675C23.8363 3.29652 24.8831 2.98902 25.9576 2.94042C27.032 2.89181 28.1023 3.10354 29.0774 3.55759C30.0524 4.01163 30.9033 4.69455 31.5576 5.5482C32.2119 6.40185 32.6503 7.40096 32.8354 8.46049C33.0205 9.52001 32.9468 10.6086 32.6207 11.6335C32.2946 12.6584 31.7256 13.5894 30.9623 14.3471C30.6077 14.6991 30.2161 15.0088 29.7954 15.2715C31.7052 16.7695 32.9347 19.1002 32.9347 21.7187C32.9347 26.2415 29.2682 29.9079 24.7454 29.9079C24.5966 29.9079 24.4486 29.9039 24.3016 29.8961C22.8016 31.748 20.5068 32.9344 17.9349 32.9344C15.3629 32.9344 13.0682 31.7479 11.5681 29.896C11.4208 29.9039 11.2725 29.9079 11.1234 29.9079C6.60055 29.9079 2.93408 26.2415 2.93408 21.7187C2.93408 19.1001 4.16362 16.7694 6.07351 15.2714C5.62835 14.9934 5.21589 14.6628 4.84554 14.2855C4.08553 13.5112 3.52571 12.5633 3.21454 11.5239C2.90336 10.4845 2.85021 9.38497 3.05969 8.32042C3.26917 7.25586 3.73496 6.25841 4.41673 5.41441C5.09851 4.5704 5.97573 3.90529 6.97244 3.47666ZM12.1102 5.6583C12.2079 5.72013 12.3031 5.78545 12.3956 5.85409C9.57742 7.3894 7.46688 10.06 6.67807 13.2517C6.53634 13.1376 6.40101 13.0151 6.27288 12.8845C5.74057 12.3422 5.34846 11.6783 5.13051 10.9503C4.91256 10.2223 4.87534 9.45218 5.02206 8.70656C5.16878 7.96094 5.49502 7.26232 5.97254 6.67117C6.45006 6.08003 7.06447 5.61418 7.76258 5.31396C8.46068 5.01374 9.22144 4.88819 9.979 4.94819C10.7365 5.00819 11.4681 5.25193 12.1102 5.6583ZM29.191 13.2517C29.317 13.1503 29.4379 13.0422 29.5533 12.9277C30.0879 12.397 30.4864 11.7449 30.7149 11.0271C30.9433 10.3092 30.9949 9.54676 30.8652 8.80467C30.7356 8.06257 30.4286 7.36279 29.9703 6.76489C29.512 6.16698 28.916 5.68866 28.2331 5.37064C27.5502 5.05263 26.8005 4.90433 26.0479 4.93837C25.2954 4.97242 24.5622 5.18779 23.9107 5.56617C23.7593 5.65412 23.6134 5.75028 23.4735 5.85407C26.2917 7.38937 28.4022 10.0599 29.191 13.2517ZM8.34813 15.6399C8.55885 10.5282 12.7705 6.44807 17.9346 6.44807C23.0987 6.44807 27.3104 10.5283 27.521 15.6401L27.5429 16.1705L27.9944 16.4496C29.7611 17.5416 30.9347 19.4935 30.9347 21.7187C30.9347 25.1369 28.1637 27.9079 24.7454 27.9079C24.4797 27.9079 24.2183 27.8912 23.9622 27.8589L23.3624 27.7833L23.0167 28.2793C21.8967 29.8863 20.0381 30.9344 17.9349 30.9344C15.8316 30.9344 13.973 29.8862 12.853 28.2792L12.5073 27.7831L11.9074 27.8588C11.651 27.8912 11.3894 27.9079 11.1234 27.9079C7.70511 27.9079 4.93408 25.1369 4.93408 21.7187C4.93408 19.4934 6.1078 17.5414 7.87471 16.4494L8.32627 16.1703L8.34813 15.6399ZM11.7855 21.151C12.5694 21.151 13.2049 20.0922 13.2049 18.7861C13.2049 17.48 12.5694 16.4212 11.7855 16.4212C11.0017 16.4212 10.3662 17.48 10.3662 18.7861C10.3662 20.0922 11.0017 21.151 11.7855 21.151ZM23.893 21.151C24.6768 21.151 25.3123 20.0922 25.3123 18.7861C25.3123 17.48 24.6768 16.4212 23.893 16.4212C23.1091 16.4212 22.4736 17.48 22.4736 18.7861C22.4736 20.0922 23.1091 21.151 23.893 21.151ZM15.6641 20.2129C15.4652 20.2129 15.2744 20.2919 15.1337 20.4326C14.9931 20.5732 14.9141 20.764 14.9141 20.9629C14.9141 21.3945 14.9868 21.8239 15.1301 22.2274C15.2734 22.631 15.4857 23.0044 15.7596 23.3239C16.0336 23.6436 16.3653 23.9045 16.7392 24.0852C16.8831 24.1548 17.0317 24.2116 17.1836 24.2553V25.5043L17.1839 25.5389C17.1799 25.6274 17.1605 25.7146 17.1265 25.7967C17.0881 25.8893 17.0318 25.9736 16.9609 26.0445C16.8899 26.1154 16.8057 26.1717 16.713 26.2101C16.6204 26.2485 16.521 26.2683 16.4207 26.2683C16.3204 26.2683 16.221 26.2485 16.1283 26.2101C16.0357 26.1717 15.9514 26.1154 15.8805 26.0445C15.8096 25.9736 15.7533 25.8893 15.7149 25.7967C15.6765 25.704 15.6567 25.6046 15.6567 25.5043C15.6567 25.0901 15.321 24.7543 14.9067 24.7543C14.4925 24.7543 14.1567 25.0901 14.1567 25.5043C14.1567 25.8016 14.2153 26.096 14.3291 26.3707C14.4428 26.6454 14.6096 26.8949 14.8198 27.1052C15.0301 27.3154 15.2796 27.4822 15.5543 27.5959C15.829 27.7097 16.1234 27.7683 16.4207 27.7683C16.718 27.7683 17.0124 27.7097 17.2871 27.5959C17.5246 27.4975 17.7433 27.3595 17.9341 27.1881C18.1249 27.3595 18.3436 27.4975 18.5812 27.5959C18.8558 27.7097 19.1502 27.7683 19.4475 27.7683C19.7449 27.7683 20.0392 27.7097 20.3139 27.5959C20.5886 27.4822 20.8382 27.3154 21.0484 27.1052C21.2586 26.8949 21.4254 26.6454 21.5392 26.3707C21.6529 26.096 21.7115 25.8016 21.7115 25.5043C21.7115 25.0901 21.3757 24.7543 20.9615 24.7543C20.5473 24.7543 20.2115 25.0901 20.2115 25.5043C20.2115 25.6046 20.1917 25.704 20.1533 25.7967C20.115 25.8893 20.0587 25.9736 19.9877 26.0445C19.9168 26.1154 19.8326 26.1717 19.7399 26.2101C19.6472 26.2485 19.5479 26.2683 19.4475 26.2683C19.3472 26.2683 19.2479 26.2485 19.1552 26.2101C19.0625 26.1717 18.9783 26.1154 18.9074 26.0445C18.8364 25.9736 18.7801 25.8893 18.7417 25.7967C18.7078 25.7146 18.6884 25.6274 18.6844 25.5389L18.6846 25.5043C18.6846 25.4909 18.6843 25.4776 18.6836 25.4644V24.2558C18.8361 24.212 18.9852 24.155 19.1295 24.0852C19.5034 23.9045 19.8351 23.6436 20.1091 23.3239C20.383 23.0044 20.5953 22.631 20.7386 22.2274C20.8819 21.8239 20.9547 21.3945 20.9547 20.9629C20.9547 20.5487 20.6189 20.2129 20.2047 20.2129H15.6641ZM16.5437 21.7256L16.5392 21.7129H19.3295L19.3251 21.7256C19.2402 21.9647 19.118 22.1753 18.9703 22.3477C18.8227 22.5199 18.6538 22.6492 18.4768 22.7347C18.3004 22.8199 18.1165 22.8616 17.9344 22.8616C17.7522 22.8616 17.5683 22.8199 17.3919 22.7347C17.2149 22.6492 17.046 22.5199 16.8985 22.3477C16.7507 22.1753 16.6286 21.9647 16.5437 21.7256Z" fill="white"/>
</svg>
