<svg width="36" height="36" viewBox="0 0 36 36" fill="none" xmlns="http://www.w3.org/2000/svg">
<path fill-rule="evenodd" clip-rule="evenodd" d="M10.5 12.75C10.5 14.8211 8.82107 16.5 6.75 16.5C4.67893 16.5 3 14.8211 3 12.75C3 10.6789 4.67893 9 6.75 9C8.82107 9 10.5 10.6789 10.5 12.75ZM16.125 23.25C16.125 25.3211 14.4461 27 12.375 27C10.3039 27 8.625 25.3211 8.625 23.25C8.625 21.1789 10.3039 19.5 12.375 19.5C14.4461 19.5 16.125 21.1789 16.125 23.25ZM23.625 27C25.6961 27 27.375 25.3211 27.375 23.25C27.375 21.1789 25.6961 19.5 23.625 19.5C21.5539 19.5 19.875 21.1789 19.875 23.25C19.875 25.3211 21.5539 27 23.625 27ZM33 12.75C33 14.8211 31.3211 16.5 29.25 16.5C27.1789 16.5 25.5 14.8211 25.5 12.75C25.5 10.6789 27.1789 9 29.25 9C31.3211 9 33 10.6789 33 12.75ZM18 16.5C20.0711 16.5 21.75 14.8211 21.75 12.75C21.75 10.6789 20.0711 9 18 9C15.9289 9 14.25 10.6789 14.25 12.75C14.25 14.8211 15.9289 16.5 18 16.5Z" fill="white"/>
</svg>
