<svg width="36" height="36" viewBox="0 0 36 36" fill="none" xmlns="http://www.w3.org/2000/svg">
<path fill-rule="evenodd" clip-rule="evenodd" d="M6.64854 11C5.74431 11 5 11.7397 5 12.6661C5 13.5926 5.74431 14.3323 6.64854 14.3323C7.55277 14.3323 8.29709 13.5926 8.29709 12.6661C8.29709 11.7397 7.55277 11 6.64854 11ZM3 12.6661C3 10.6476 4.62727 9 6.64854 9C8.66981 9 10.2971 10.6476 10.2971 12.6661C10.2971 14.6846 8.66981 16.3323 6.64854 16.3323C4.62727 16.3323 3 14.6846 3 12.6661ZM17.9982 11C17.0939 11 16.3496 11.7397 16.3496 12.6661C16.3496 13.5926 17.0939 14.3323 17.9982 14.3323C18.9024 14.3323 19.6467 13.5926 19.6467 12.6661C19.6467 11.7397 18.9024 11 17.9982 11ZM14.3496 12.6661C14.3496 10.6476 15.9769 9 17.9982 9C20.0194 9 21.6467 10.6476 21.6467 12.6661C21.6467 14.6846 20.0194 16.3323 17.9982 16.3323C15.9769 16.3323 14.3496 14.6846 14.3496 12.6661ZM27.7031 12.6661C27.7031 11.7397 28.4474 11 29.3517 11C30.2559 11 31.0002 11.7397 31.0002 12.6661C31.0002 13.5926 30.2559 14.3323 29.3517 14.3323C28.4474 14.3323 27.7031 13.5926 27.7031 12.6661ZM29.3517 9C27.3304 9 25.7031 10.6476 25.7031 12.6661C25.7031 14.6846 27.3304 16.3323 29.3517 16.3323C31.3729 16.3323 33.0002 14.6846 33.0002 12.6661C33.0002 10.6476 31.3729 9 29.3517 9ZM12.3243 21.6641C11.4201 21.6641 10.6758 22.4039 10.6758 23.3303C10.6758 24.2567 11.4201 24.9964 12.3243 24.9964C13.2286 24.9964 13.9729 24.2567 13.9729 23.3303C13.9729 22.4039 13.2286 21.6641 12.3243 21.6641ZM8.67578 23.3303C8.67578 21.3118 10.3031 19.6641 12.3243 19.6641C14.3456 19.6641 15.9729 21.3118 15.9729 23.3303C15.9729 25.3488 14.3456 26.9964 12.3243 26.9964C10.3031 26.9964 8.67578 25.3488 8.67578 23.3303ZM22.0273 23.3303C22.0273 22.4039 22.7717 21.6641 23.6759 21.6641C24.5801 21.6641 25.3244 22.4039 25.3244 23.3303C25.3244 24.2567 24.5801 24.9964 23.6759 24.9964C22.7717 24.9964 22.0273 24.2567 22.0273 23.3303ZM23.6759 19.6641C21.6546 19.6641 20.0273 21.3118 20.0273 23.3303C20.0273 25.3488 21.6546 26.9964 23.6759 26.9964C25.6972 26.9964 27.3244 25.3488 27.3244 23.3303C27.3244 21.3118 25.6972 19.6641 23.6759 19.6641Z" fill="white"/>
</svg>
