<svg width="36" height="36" viewBox="0 0 36 36" fill="none" xmlns="http://www.w3.org/2000/svg">
<path fill-rule="evenodd" clip-rule="evenodd" d="M26.2031 16.5938C29.9569 16.5938 33 13.5507 33 9.79688C33 6.04306 29.9569 3 26.2031 3C22.4493 3 19.4062 6.04306 19.4062 9.79688C19.4062 13.5507 22.4493 16.5938 26.2031 16.5938ZM5.125 9.75018C5.125 7.19587 7.19568 5.12518 9.75 5.12518C12.3043 5.12518 14.375 7.19587 14.375 9.75018C14.375 12.3045 12.3043 14.3752 9.75 14.3752C7.19568 14.3752 5.125 12.3045 5.125 9.75018ZM9.75 3.12518C6.09111 3.12518 3.125 6.0913 3.125 9.75018C3.125 13.4091 6.09111 16.3752 9.75 16.3752C13.4089 16.3752 16.375 13.4091 16.375 9.75018C16.375 6.0913 13.4089 3.12518 9.75 3.12518ZM33 26.2031C33 29.9569 29.9569 33 26.2031 33C22.4493 33 19.4062 29.9569 19.4062 26.2031C19.4062 22.4493 22.4493 19.4062 26.2031 19.4062C29.9569 19.4062 33 22.4493 33 26.2031ZM9.79688 33C13.5507 33 16.5938 29.9569 16.5938 26.2031C16.5938 22.4493 13.5507 19.4062 9.79688 19.4062C6.04306 19.4062 3 22.4493 3 26.2031C3 29.9569 6.04306 33 9.79688 33Z" fill="white"/>
</svg>
