<svg width="36" height="36" viewBox="0 0 36 36" fill="none" xmlns="http://www.w3.org/2000/svg">
<path fill-rule="evenodd" clip-rule="evenodd" d="M28.9202 15.5265C28.7633 15.8956 28.4011 16.1351 28 16.1351H23.4828V29.6638C23.4828 31.0921 22.3249 32.25 20.8966 32.25H15.1035C13.6752 32.25 12.5173 31.0921 12.5173 29.6638V16.1351H8.00003C7.599 16.1351 7.23676 15.8956 7.0798 15.5265C6.92284 15.1575 7.00153 14.7304 7.27969 14.4415L17.2797 4.05638C17.4682 3.86061 17.7283 3.75 18 3.75C18.2718 3.75 18.5319 3.86061 18.7204 4.05638L28.7204 14.4415C28.9985 14.7304 29.0772 15.1575 28.9202 15.5265ZM18 6.1917L10.3512 14.1351H13.5173C14.0696 14.1351 14.5173 14.5829 14.5173 15.1351V29.6638C14.5173 29.9875 14.7797 30.25 15.1035 30.25H20.8966C21.2203 30.25 21.4828 29.9875 21.4828 29.6638V15.1351C21.4828 14.5829 21.9305 14.1351 22.4828 14.1351H25.6489L18 6.1917Z" fill="white"/>
</svg>
