<svg width="36" height="36" viewBox="0 0 36 36" fill="none" xmlns="http://www.w3.org/2000/svg">
<path fill-rule="evenodd" clip-rule="evenodd" d="M17.2933 3.29289C17.6838 2.90237 18.317 2.90237 18.7075 3.29289L22.4912 7.07653C22.8817 7.46705 22.8817 8.10021 22.4912 8.49074C22.1006 8.88126 21.4675 8.88126 21.077 8.49074L18.0004 5.41421L14.9239 8.49074C14.5334 8.88126 13.9002 8.88126 13.5097 8.49074C13.1192 8.10021 13.1192 7.46705 13.5097 7.07653L17.2933 3.29289ZM21.0265 17.9996C21.0265 19.6713 19.6713 21.0265 17.9996 21.0265C16.3278 21.0265 14.9727 19.6713 14.9727 17.9996C14.9727 16.3278 16.3278 14.9727 17.9996 14.9727C19.6713 14.9727 21.0265 16.3278 21.0265 17.9996ZM28.922 13.5086C28.5314 13.1181 27.8983 13.1181 27.5077 13.5086C27.1172 13.8991 27.1172 14.5323 27.5077 14.9228L30.5843 17.9993L27.5077 21.0758C27.1172 21.4664 27.1172 22.0995 27.5077 22.4901C27.8983 22.8806 28.5314 22.8806 28.922 22.4901L32.7056 18.7064C32.8931 18.5189 32.9985 18.2645 32.9985 17.9993C32.9985 17.7341 32.8931 17.4797 32.7056 17.2922L28.922 13.5086ZM13.5097 27.5086C13.9002 27.1181 14.5334 27.1181 14.9239 27.5086L18.0004 30.5851L21.077 27.5086C21.4675 27.1181 22.1006 27.1181 22.4912 27.5086C22.8817 27.8991 22.8817 28.5323 22.4912 28.9228L18.7075 32.7065C18.317 33.097 17.6838 33.097 17.2933 32.7065L13.5097 28.9228C13.1192 28.5323 13.1192 27.8991 13.5097 27.5086ZM8.49074 14.9228C8.88126 14.5323 8.88126 13.8991 8.49074 13.5086C8.10021 13.1181 7.46705 13.1181 7.07653 13.5086L3.29289 17.2922C3.10536 17.4797 3 17.7341 3 17.9993C3 18.2645 3.10536 18.5189 3.29289 18.7064L7.07653 22.4901C7.46705 22.8806 8.10021 22.8806 8.49074 22.4901C8.88126 22.0995 8.88126 21.4664 8.49074 21.0758L5.41421 17.9993L8.49074 14.9228Z" fill="white"/>
</svg>
