<svg width="36" height="36" viewBox="0 0 36 36" fill="none" xmlns="http://www.w3.org/2000/svg">
<path fill-rule="evenodd" clip-rule="evenodd" d="M17.631 4C18.1832 4 18.631 4.44772 18.631 5V23.077L25.0411 16.6336C25.4306 16.242 26.0637 16.2404 26.4553 16.6299C26.8468 17.0194 26.8484 17.6526 26.4589 18.0441L18.3399 26.2054C18.1464 26.3999 17.8815 26.5064 17.6072 26.4998C17.3329 26.4933 17.0733 26.3744 16.8893 26.1709L9.50833 18.0096C9.13788 17.6 9.16962 16.9676 9.57924 16.5972C9.98886 16.2267 10.6212 16.2585 10.9917 16.6681L16.631 22.9036V5C16.631 4.44772 17.0787 4 17.631 4ZM5.5 31C5.5 30.4477 5.94772 30 6.5 30H29.5C30.0523 30 30.5 30.4477 30.5 31C30.5 31.5523 30.0523 32 29.5 32H6.5C5.94772 32 5.5 31.5523 5.5 31Z" fill="white"/>
</svg>
