<svg width="36" height="36" viewBox="0 0 36 36" fill="none" xmlns="http://www.w3.org/2000/svg">
<path d="M14.5449 7.53372C14.8328 7.253 15.2613 7.17247 15.6318 7.32865C16.0022 7.48488 16.243 7.84756 16.2432 8.24954V13.1695H29.25C30.6307 13.1695 31.75 14.2888 31.75 15.6695V20.3306C31.7498 21.7111 30.6306 22.8306 29.25 22.8306H16.2432V27.7495C16.2432 28.1517 16.0024 28.5152 15.6318 28.6714C15.2612 28.8276 14.8328 28.7463 14.5449 28.4654L4.55176 18.7154C4.35892 18.5272 4.25 18.269 4.25 17.9995C4.25009 17.7302 4.35895 17.4718 4.55176 17.2837L14.5449 7.53372Z" fill="white"/>
</svg>
