<svg width="36" height="36" viewBox="0 0 36 36" fill="none" xmlns="http://www.w3.org/2000/svg">
<path fill-rule="evenodd" clip-rule="evenodd" d="M18.7071 6.79289C18.3166 6.40237 17.6834 6.40237 17.2929 6.79289L11.2929 12.7929C10.9024 13.1834 10.9024 13.8166 11.2929 14.2071C11.6834 14.5976 12.3166 14.5976 12.7071 14.2071L18 8.91421L23.2929 14.2071C23.6834 14.5976 24.3166 14.5976 24.7071 14.2071C25.0976 13.8166 25.0976 13.1834 24.7071 12.7929L18.7071 6.79289ZM12.7071 21.7929C12.3166 21.4024 11.6834 21.4024 11.2929 21.7929C10.9024 22.1834 10.9024 22.8166 11.2929 23.2071L17.2929 29.2071C17.6834 29.5976 18.3166 29.5976 18.7071 29.2071L24.7071 23.2071C25.0976 22.8166 25.0976 22.1834 24.7071 21.7929C24.3166 21.4024 23.6834 21.4024 23.2929 21.7929L18 27.0858L12.7071 21.7929Z" fill="white"/>
</svg>
