<svg width="36" height="36" viewBox="0 0 36 36" fill="none" xmlns="http://www.w3.org/2000/svg">
<path fill-rule="evenodd" clip-rule="evenodd" d="M15.5265 7.0798C15.8956 7.23676 16.1351 7.599 16.1351 8.00003V12.5173H29.6638C31.0921 12.5173 32.25 13.6752 32.25 15.1035V20.8966C32.25 22.3249 31.0921 23.4828 29.6638 23.4828H16.1351V28C16.1351 28.4011 15.8956 28.7633 15.5265 28.9202C15.1575 29.0772 14.7304 28.9985 14.4415 28.7204L4.05638 18.7204C3.86061 18.5319 3.75 18.2718 3.75 18C3.75 17.7283 3.86061 17.4682 4.05638 17.2797L14.4415 7.27969C14.7304 7.00153 15.1575 6.92284 15.5265 7.0798ZM6.1917 18L14.1351 25.6489V22.4828C14.1351 21.9305 14.5829 21.4828 15.1351 21.4828H29.6638C29.9875 21.4828 30.25 21.2203 30.25 20.8966V15.1035C30.25 14.7797 29.9875 14.5173 29.6638 14.5173H15.1351C14.5829 14.5173 14.1351 14.0696 14.1351 13.5173V10.3512L6.1917 18Z" fill="white"/>
</svg>
