<svg width="36" height="36" viewBox="0 0 36 36" fill="none" xmlns="http://www.w3.org/2000/svg">
<path d="M11.918 7.29289C12.3085 6.90237 12.9415 6.90237 13.332 7.29289C13.7225 7.68342 13.7225 8.31645 13.332 8.70695L9.41406 12.6249H22.1875C26.3642 12.6249 29.75 16.0108 29.75 20.1874C29.7499 24.364 26.3641 27.7499 22.1875 27.7499H18.5C17.9478 27.7499 17.5001 27.3022 17.5 26.7499C17.5 26.1976 17.9477 25.7499 18.5 25.7499H22.1875C25.2595 25.7499 27.7499 23.2595 27.75 20.1874C27.75 17.1153 25.2596 14.6249 22.1875 14.6249H9.41406L13.332 18.5429L13.4004 18.6191C13.7207 19.0118 13.6981 19.5909 13.332 19.957C12.9659 20.323 12.3869 20.3456 11.9941 20.0253L11.918 19.957L6.29297 14.332C6.10546 14.1444 6.00003 13.8901 6 13.6249C6 13.3597 6.10547 13.1054 6.29297 12.9179L11.918 7.29289Z" fill="white"/>
</svg>
