<svg width="36" height="36" viewBox="0 0 36 36" fill="none" xmlns="http://www.w3.org/2000/svg">
<path d="M22.418 7.29289C22.8085 6.90237 23.4415 6.90237 23.832 7.29289L29.457 12.9179C29.6445 13.1054 29.75 13.3597 29.75 13.6249C29.75 13.8901 29.6445 14.1445 29.457 14.332L23.832 19.957L23.7559 20.0253C23.3631 20.3456 22.7841 20.323 22.418 19.957C22.0519 19.5909 22.0293 19.0118 22.3496 18.6191L22.418 18.5429L26.3359 14.6249H13.5625C10.4904 14.6249 8 17.1153 8 20.1874C8.00009 23.2594 10.4905 25.7499 13.5625 25.7499H17.25C17.8023 25.7499 18.25 26.1976 18.25 26.7499C18.2499 27.3021 17.8022 27.7499 17.25 27.7499H13.5625C9.38591 27.7499 6.00009 24.364 6 20.1874C6 16.0108 9.38585 12.6249 13.5625 12.6249H26.3359L22.418 8.70695C22.0275 8.31646 22.0275 7.68342 22.418 7.29289Z" fill="white"/>
</svg>
