<svg width="36" height="36" viewBox="0 0 36 36" fill="none" xmlns="http://www.w3.org/2000/svg">
<path fill-rule="evenodd" clip-rule="evenodd" d="M18.3928 4.00028C18.6671 4.00681 18.9267 4.12575 19.1107 4.32924L26.4917 12.4905C26.8621 12.9001 26.8304 13.5325 26.4208 13.903C26.0111 14.2734 25.3788 14.2417 25.0083 13.8321L19.369 7.59657V25.5001C19.369 26.0524 18.9213 26.5001 18.369 26.5001C17.8168 26.5001 17.369 26.0524 17.369 25.5001V7.4231L10.9589 13.8666C10.5694 14.2581 9.93627 14.2597 9.54473 13.8702C9.15319 13.4807 9.15155 12.8476 9.54106 12.456L17.6601 4.29473C17.8536 4.10022 18.1185 3.99376 18.3928 4.00028ZM5.5 31C5.5 30.4477 5.94772 30 6.5 30H29.5C30.0523 30 30.5 30.4477 30.5 31C30.5 31.5523 30.0523 32 29.5 32H6.5C5.94772 32 5.5 31.5523 5.5 31Z" fill="white"/>
</svg>
