<svg width="36" height="36" viewBox="0 0 36 36" fill="none" xmlns="http://www.w3.org/2000/svg">
<path d="M20.3682 7.32865C20.7387 7.17247 21.1672 7.253 21.4551 7.53372L31.4482 17.2837C31.6411 17.4718 31.7499 17.7302 31.75 17.9995C31.75 18.269 31.6411 18.5272 31.4482 18.7154L21.4551 28.4654C21.1672 28.7463 20.7388 28.8276 20.3682 28.6714C19.9976 28.5152 19.7568 28.1517 19.7568 27.7495V22.8306H6.75C5.36941 22.8306 4.2502 21.7111 4.25 20.3306V15.6695C4.25002 14.2888 5.3693 13.1695 6.75 13.1695H19.7568V8.24954C19.757 7.84756 19.9978 7.48488 20.3682 7.32865Z" fill="white"/>
</svg>
