<svg width="36" height="36" viewBox="0 0 36 36" fill="none" xmlns="http://www.w3.org/2000/svg">
<path d="M15.2432 8.25003L5.25 18L15.2432 27.75V21.8304H29.25C30.0784 21.8304 30.75 21.1588 30.75 20.3304V15.6697C30.75 14.8412 30.0784 14.1697 29.25 14.1697H15.2432V8.25003Z" fill="white"/>
<path fill-rule="evenodd" clip-rule="evenodd" d="M15.6316 7.32852C16.0023 7.48473 16.2432 7.84781 16.2432 8.25003V13.1697H29.25C30.6307 13.1697 31.75 14.289 31.75 15.6697V20.3304C31.75 21.7111 30.6307 22.8304 29.25 22.8304H16.2432V27.75C16.2432 28.1522 16.0023 28.5153 15.6316 28.6715C15.261 28.8277 14.8328 28.7467 14.5449 28.4658L4.55166 18.7158C4.35877 18.5276 4.25 18.2695 4.25 18C4.25 17.7305 4.35877 17.4725 4.55166 17.2843L14.5449 7.53426C14.8328 7.25337 15.261 7.17231 15.6316 7.32852ZM6.68196 18L14.2432 25.3773V21.8304C14.2432 21.2781 14.691 20.8304 15.2432 20.8304H29.25C29.5261 20.8304 29.75 20.6065 29.75 20.3304V15.6697C29.75 15.3935 29.5261 15.1697 29.25 15.1697H15.2432C14.691 15.1697 14.2432 14.722 14.2432 14.1697V10.6228L6.68196 18Z" fill="white"/>
</svg>
