<svg width="36" height="36" viewBox="0 0 36 36" fill="none" xmlns="http://www.w3.org/2000/svg">
<path d="M27.75 15.2432L18 5.25L8.25003 15.2432H14.1697V29.25C14.1697 30.0784 14.8412 30.75 15.6697 30.75H20.3304C21.1588 30.75 21.8304 30.0784 21.8304 29.25V15.2432H27.75Z" fill="white"/>
<path fill-rule="evenodd" clip-rule="evenodd" d="M28.6715 15.6316C28.5153 16.0023 28.1522 16.2432 27.75 16.2432H22.8304V29.25C22.8304 30.6307 21.7111 31.75 20.3304 31.75H15.6697C14.289 31.75 13.1697 30.6307 13.1697 29.25V16.2432H8.25003C7.84781 16.2432 7.48473 16.0023 7.32852 15.6316C7.17231 15.261 7.25337 14.8328 7.53426 14.5449L17.2843 4.55166C17.4725 4.35877 17.7305 4.25 18 4.25C18.2695 4.25 18.5276 4.35877 18.7158 4.55166L28.4658 14.5449C28.7467 14.8328 28.8277 15.261 28.6715 15.6316ZM18 6.68196L10.6228 14.2432H14.1697C14.722 14.2432 15.1697 14.691 15.1697 15.2432V29.25C15.1697 29.5261 15.3935 29.75 15.6697 29.75H20.3304C20.6065 29.75 20.8304 29.5261 20.8304 29.25V15.2432C20.8304 14.691 21.2781 14.2432 21.8304 14.2432H25.3773L18 6.68196Z" fill="white"/>
</svg>
