<svg width="36" height="36" viewBox="0 0 36 36" fill="none" xmlns="http://www.w3.org/2000/svg">
<path fill-rule="evenodd" clip-rule="evenodd" d="M20.4735 28.9202C20.1044 28.7633 19.8649 28.4011 19.8649 28V23.4828H6.33621C4.90788 23.4828 3.75 22.3249 3.75 20.8966V15.1035C3.75 13.6752 4.90788 12.5173 6.33621 12.5173H19.8649V8.00003C19.8649 7.599 20.1044 7.23676 20.4735 7.0798C20.8425 6.92284 21.2696 7.00153 21.5585 7.27969L31.9436 17.2797C32.1394 17.4682 32.25 17.7283 32.25 18C32.25 18.2718 32.1394 18.5319 31.9436 18.7204L21.5585 28.7204C21.2696 28.9985 20.8425 29.0772 20.4735 28.9202ZM29.8083 18L21.8649 10.3512V13.5173C21.8649 14.0696 21.4171 14.5173 20.8649 14.5173H6.33621C6.01245 14.5173 5.75 14.7797 5.75 15.1035V20.8966C5.75 21.2203 6.01245 21.4828 6.33621 21.4828H20.8649C21.4171 21.4828 21.8649 21.9305 21.8649 22.4828V25.6489L29.8083 18Z" fill="white"/>
</svg>
