<svg width="36" height="36" viewBox="0 0 36 36" fill="none" xmlns="http://www.w3.org/2000/svg">
<path fill-rule="evenodd" clip-rule="evenodd" d="M20.8312 6.40754C19.5889 4.19748 16.4071 4.19749 15.1649 6.40755L3.92063 26.4121C2.7029 28.5786 4.26853 31.2546 6.75376 31.2546H29.2423C31.7275 31.2546 33.2932 28.5786 32.0754 26.4121L20.8312 6.40754ZM16.9084 7.38752C17.3862 6.53749 18.6099 6.53749 19.0877 7.38752L30.332 27.3921C30.8003 28.2254 30.1982 29.2546 29.2423 29.2546H6.75376C5.79789 29.2546 5.19573 28.2254 5.66409 27.3921L16.9084 7.38752ZM17.9978 12.6981C18.633 12.6981 19.1478 13.2129 19.1478 13.8481V19.814C19.1478 20.4491 18.633 20.964 17.9978 20.964C17.3627 20.964 16.8478 20.4491 16.8478 19.814V13.8481C16.8478 13.2129 17.3627 12.6981 17.9978 12.6981ZM19.5061 25.7801C19.5061 26.6038 18.8305 27.2715 17.9971 27.2715C17.1637 27.2715 16.4881 26.6038 16.4881 25.7801C16.4881 24.9564 17.1637 24.2886 17.9971 24.2886C18.8305 24.2886 19.5061 24.9564 19.5061 25.7801Z" fill="white"/>
</svg>
