<svg width="36" height="36" viewBox="0 0 36 36" fill="none" xmlns="http://www.w3.org/2000/svg">
<path fill-rule="evenodd" clip-rule="evenodd" d="M5 17.9994C5 10.82 10.82 5 17.9994 5C25.1788 5 30.9989 10.82 30.9989 17.9994C30.9989 25.1788 25.1788 30.9989 17.9994 30.9989C10.82 30.9989 5 25.1788 5 17.9994ZM17.9994 3C9.71548 3 3 9.71548 3 17.9994C3 26.2834 9.71548 32.9989 17.9994 32.9989C26.2834 32.9989 32.9989 26.2834 32.9989 17.9994C32.9989 9.71548 26.2834 3 17.9994 3ZM17.9961 10.4451C18.8245 10.4451 19.4961 11.1167 19.4961 11.9451V17.999C19.4961 18.8274 18.8245 19.499 17.9961 19.499C17.1677 19.499 16.4961 18.8274 16.4961 17.999V11.9451C16.4961 11.1167 17.1677 10.4451 17.9961 10.4451ZM19.5113 24.0529C19.5113 24.8888 18.8337 25.5664 17.9978 25.5664C17.162 25.5664 16.4844 24.8888 16.4844 24.0529C16.4844 23.2171 17.162 22.5395 17.9978 22.5395C18.8337 22.5395 19.5113 23.2171 19.5113 24.0529Z" fill="white"/>
</svg>
