<svg width="36" height="36" viewBox="0 0 36 36" fill="none" xmlns="http://www.w3.org/2000/svg">
<path fill-rule="evenodd" clip-rule="evenodd" d="M26.4999 17.998C31.1943 17.998 34.9999 21.8036 34.9999 26.498C34.9999 31.1925 31.1943 34.998 26.4999 34.998C21.8055 34.998 17.9999 31.1924 17.9999 26.498C17.9999 21.8037 21.8055 17.9981 26.4999 17.998ZM27.1913 22.1865C26.9538 21.3615 26.1031 20.9963 25.4423 21.4355C25.2779 21.5449 25.0533 21.8323 24.6044 22.4062L23.784 23.4541C23.4442 23.8885 22.9566 24.1376 22.4442 24.1377C21.7849 24.1378 21.2499 24.7436 21.2499 25.4902V27.5059C21.2499 28.2525 21.7849 28.8583 22.4442 28.8584C22.9566 28.8585 23.4442 29.1076 23.784 29.542L24.6044 30.5898C25.0533 31.1638 25.2779 31.4512 25.4423 31.5605C26.1031 31.9998 26.9538 31.6346 27.1913 30.8096C27.2503 30.6043 27.2499 30.2207 27.2499 29.4541V23.542C27.2499 22.7754 27.2503 22.3918 27.1913 22.1865ZM30.7762 22.8623C30.4254 22.5719 29.9047 22.6209 29.6141 22.9717C29.3237 23.3225 29.3728 23.8432 29.7235 24.1338C30.1171 24.4599 30.4195 24.8385 30.6219 25.2432C30.824 25.6472 30.9247 26.0733 30.9247 26.498L30.9198 26.6572C30.8978 27.0289 30.7987 27.3993 30.6219 27.7529C30.4195 28.1576 30.1171 28.5362 29.7235 28.8623C29.3728 29.1529 29.3237 29.6736 29.6141 30.0244C29.9047 30.3752 30.4254 30.4242 30.7762 30.1338C31.3335 29.6721 31.7852 29.1148 32.0975 28.4902C32.4102 27.8649 32.5751 27.1875 32.5751 26.498C32.5751 25.8086 32.4102 25.1312 32.0975 24.5059C31.7852 23.8813 31.3335 23.324 30.7762 22.8623Z" fill="white"/>
<path fill-rule="evenodd" clip-rule="evenodd" d="M23.5526 2.9375H23.5546L23.8612 2.94336L23.8631 2.94434C25.4677 3.00967 26.6183 3.58473 27.4344 4.50391C28.2475 5.41985 28.7215 6.6696 28.995 8.07227C29.5283 10.8082 29.3055 14.1777 29.2948 16.8965C28.7364 16.7343 28.1583 16.6175 27.5643 16.5547C27.5883 13.7287 27.7732 10.7088 27.2655 8.23926C27.0012 6.95423 26.5804 6.02859 26.0174 5.44043C25.7638 5.17547 25.4551 4.95337 25.0565 4.7959C25.8207 6.17263 26.1189 8.17496 26.2264 10.3145C26.3298 12.3714 26.2603 14.5779 26.246 16.5039C25.76 16.516 25.2827 16.5625 24.8163 16.6416C24.8318 13.8421 24.9739 10.6894 24.5907 8.12695C24.3893 6.78041 24.0605 5.76073 23.6053 5.10645C23.4334 4.85949 23.2503 4.67341 23.0477 4.53906L22.3436 4.5332C22.885 5.87453 23.0983 7.93497 23.1747 10.1631C23.2535 12.4629 23.1889 14.9622 23.1883 17.0605C22.6934 17.2342 22.2155 17.4446 21.7596 17.6904C21.7599 17.4937 21.7616 17.2935 21.7616 17.0898C21.7616 14.2203 21.8752 10.8057 21.619 8.06445C21.4903 6.68757 21.276 5.60605 20.9696 4.90137C20.8951 4.73013 20.82 4.60115 20.7548 4.50391H19.7889C20.0091 5.82848 20.0975 7.89347 20.1288 10.1406C20.1611 12.4567 20.1356 14.9757 20.1356 17.0898L20.1327 18.7861C19.6078 19.22 19.1287 19.7074 18.702 20.2383C18.7047 19.2942 18.7079 18.2487 18.7079 17.0898C18.7079 14.2581 18.7543 10.785 18.6503 8.00195C18.598 6.60541 18.509 5.43813 18.37 4.63867C18.3618 4.59166 18.3515 4.54695 18.3426 4.50391H17.6561C17.6476 4.54686 17.6379 4.59173 17.6298 4.63867C17.4907 5.43796 17.4017 6.60467 17.3495 8.00098C17.2455 10.7841 17.2919 14.2579 17.2919 17.0898C17.2919 19.2952 17.2985 21.0901 17.3075 22.5566C16.7882 23.7661 16.4999 25.0984 16.4999 26.498C16.4999 29.0277 17.4413 31.3365 18.9901 33.0977H10.2674C9.97615 33.0975 9.72646 32.9121 9.66002 32.6543L9.65709 32.6436L9.65807 32.6426L9.64538 32.5508L9.6444 32.5449L9.64342 32.5332L9.64245 32.5254C9.63735 32.0629 9.59441 31.7801 9.47838 31.5342C9.36114 31.2859 9.16547 31.0648 8.83483 30.7305L7.99791 29.8867L7.9901 29.8789L7.98327 29.8691C7.86364 29.673 7.72365 29.4739 7.58581 29.1484C7.44778 28.8225 7.31223 28.3703 7.1903 27.6553C6.94668 26.2264 6.75537 23.7345 6.71373 19.0742L6.70592 17.0898C6.70594 14.3388 6.45878 10.8734 7.00475 8.07227C7.27818 6.66967 7.75236 5.41985 8.5653 4.50391C9.38143 3.58469 10.5321 3.00975 12.1366 2.94434L12.1385 2.94336L12.4452 2.9375H12.4471L17.9989 2.89844H18.0008L23.5526 2.9375ZM10.9413 4.7959C10.5436 4.95342 10.2356 5.17582 9.98229 5.44043C9.41943 6.02861 8.99846 6.95433 8.73424 8.23926C8.19439 10.8654 8.43934 14.114 8.43932 17.0898C8.43929 22.6912 8.6262 25.5704 8.86022 27.1328C8.97589 27.9049 9.0954 28.3027 9.18346 28.5225C9.2496 28.6874 9.29755 28.7643 9.39538 28.9209C9.68096 29.2126 9.89006 29.4179 10.1141 29.6445C10.2495 29.7814 10.3895 29.9298 10.5243 30.0859H10.8485L10.6962 29.875L10.6893 29.8662L10.6854 29.8574C10.5981 29.6605 10.497 29.4627 10.3973 29.1387C10.2976 28.8145 10.1986 28.3642 10.1102 27.6504C9.93361 26.2237 9.79474 23.7334 9.76452 19.0732L9.75866 17.0898C9.75866 15.0341 9.6595 12.5833 9.77331 10.3145C9.88062 8.17523 10.1774 6.17257 10.9413 4.7959ZM12.9501 4.53906C12.748 4.6733 12.566 4.85996 12.3944 5.10645L12.3934 5.10547C11.9382 5.75957 11.6104 6.77928 11.409 8.12598C11.0053 10.8263 11.1854 14.1824 11.1854 17.0898C11.1854 22.6948 11.3202 25.6101 11.495 27.2168C11.5819 28.0153 11.6762 28.4569 11.7548 28.7266C11.8186 28.9458 11.8721 29.0578 11.9549 29.2402C12.1694 29.5419 12.3281 29.755 12.4911 29.9814C12.5148 30.0144 12.5399 30.0517 12.5633 30.0859H13.4979L13.3944 29.8574L13.3915 29.8506L13.3895 29.8438C13.1477 28.9714 12.8114 28.3079 12.8114 17.0898C12.8114 14.9858 12.7454 12.4744 12.8241 10.1641C12.9 7.93606 13.1121 5.87472 13.6532 4.5332L12.9501 4.53906ZM15.245 4.50391C15.1797 4.60097 15.1045 4.72955 15.0301 4.90039C14.7238 5.60491 14.5094 6.68658 14.3807 8.06348C14.1246 10.8049 14.2382 14.22 14.2381 17.0898C14.2381 27.8597 14.5532 28.7675 14.745 29.4229C14.852 29.6637 14.9528 29.8818 15.0448 30.0859H16.1415L16.0956 29.834L16.0946 29.8281C15.9988 28.9648 15.8641 28.3073 15.8641 17.0898C15.8641 14.9757 15.8387 12.4567 15.871 10.1406C15.9023 7.8935 15.9906 5.82848 16.2108 4.50391H15.245Z" fill="white"/>
</svg>
