<svg width="36" height="36" viewBox="0 0 36 36" fill="none" xmlns="http://www.w3.org/2000/svg">
<path fill-rule="evenodd" clip-rule="evenodd" d="M26.4999 17.998C31.1943 17.998 34.9999 21.8036 34.9999 26.498C34.9999 31.1925 31.1943 34.998 26.4999 34.998C21.8055 34.998 17.9999 31.1924 17.9999 26.498C17.9999 21.8037 21.8055 17.9981 26.4999 17.998ZM24.286 21.2959C23.7526 21.1532 23.2043 21.4696 23.0614 22.0029C22.9187 22.5362 23.2353 23.0845 23.7684 23.2275C25.1986 23.6109 26.4627 24.4552 27.3641 25.6299C28.2657 26.8048 28.7538 28.2447 28.7538 29.7256C28.7539 30.2775 29.2019 30.7252 29.7538 30.7256C30.306 30.7256 30.7536 30.2777 30.7538 29.7256C30.7538 27.8044 30.1206 25.9363 28.951 24.4121C27.7816 22.8882 26.1415 21.7932 24.286 21.2959ZM23.3993 25.3877C22.8659 25.245 22.3176 25.5614 22.1747 26.0947C22.0319 26.628 22.3485 27.1763 22.8817 27.3193C23.3263 27.4385 23.7197 27.7013 23.9999 28.0664C24.2799 28.4315 24.4315 28.8788 24.4315 29.3389C24.4315 29.8911 24.8794 30.3387 25.4315 30.3389C25.9838 30.3389 26.4315 29.8912 26.4315 29.3389C26.4315 28.4385 26.1349 27.563 25.5868 26.8486C25.0386 26.1342 24.2691 25.6208 23.3993 25.3877Z" fill="white"/>
<path fill-rule="evenodd" clip-rule="evenodd" d="M23.5526 2.9375H23.5546L23.8612 2.94336L23.8632 2.94434C25.4676 3.00967 26.6183 3.58484 27.4344 4.50391C28.2475 5.41984 28.7215 6.66963 28.995 8.07227C29.5283 10.8082 29.3055 14.1777 29.2948 16.8965C28.7364 16.7343 28.1584 16.6175 27.5643 16.5547C27.5883 13.7287 27.7732 10.7088 27.2655 8.23926C27.0012 6.95427 26.5804 6.02858 26.0175 5.44043C25.7638 5.17556 25.455 4.95334 25.0565 4.7959C25.8207 6.17263 26.1189 8.17497 26.2264 10.3145C26.3298 12.3714 26.2603 14.5779 26.246 16.5039C25.76 16.516 25.2827 16.5625 24.8163 16.6416C24.8318 13.8421 24.9739 10.6894 24.5907 8.12695C24.3893 6.78044 24.0605 5.76072 23.6053 5.10645C23.4334 4.85958 23.2503 4.67338 23.0477 4.53906L22.3436 4.5332C22.885 5.87453 23.0983 7.93498 23.1747 10.1631C23.2535 12.4629 23.1889 14.9622 23.1884 17.0605C22.6937 17.2341 22.2163 17.4447 21.7606 17.6904C21.7608 17.4937 21.7616 17.2935 21.7616 17.0898C21.7616 14.2203 21.8752 10.8057 21.619 8.06445C21.4903 6.68759 21.276 5.60604 20.9696 4.90137C20.8951 4.7302 20.82 4.60112 20.7548 4.50391H19.7889C20.0091 5.82848 20.0975 7.89347 20.1288 10.1406C20.1611 12.4567 20.1356 14.9757 20.1356 17.0898L20.1327 18.7861C19.6078 19.22 19.1287 19.7074 18.702 20.2383C18.7047 19.2942 18.7079 18.2487 18.7079 17.0898C18.7079 14.2581 18.7543 10.785 18.6503 8.00195C18.598 6.60541 18.5091 5.43812 18.37 4.63867C18.3618 4.59168 18.3515 4.54693 18.3426 4.50391H17.6561C17.6476 4.54684 17.6379 4.59175 17.6298 4.63867C17.4907 5.43796 17.4017 6.60471 17.3495 8.00098C17.2455 10.7841 17.2919 14.2579 17.2919 17.0898C17.2919 19.2952 17.2985 21.0901 17.3075 22.5566C16.7882 23.7661 16.4999 25.0984 16.4999 26.498C16.4999 29.0277 17.4413 31.3365 18.9901 33.0977H10.2675C9.97632 33.0973 9.72644 32.912 9.66003 32.6543L9.6571 32.6436L9.65808 32.6426L9.64538 32.5508L9.64441 32.5449L9.64343 32.5332L9.64245 32.5254C9.63735 32.0629 9.59442 31.7801 9.47839 31.5342C9.36114 31.2859 9.16541 31.0648 8.83484 30.7305L7.99792 29.8867L7.99011 29.8789L7.98327 29.8691C7.86367 29.673 7.72362 29.4738 7.58581 29.1484C7.44781 28.8225 7.31222 28.3702 7.19031 27.6553C6.94669 26.2264 6.75538 23.7344 6.71374 19.0742L6.70593 17.0898C6.70595 14.3388 6.45881 10.8734 7.00476 8.07227C7.27817 6.66976 7.75247 5.41983 8.56531 4.50391C9.38137 3.58476 10.5323 3.00983 12.1366 2.94434L12.1385 2.94336L12.4452 2.9375H12.4471L17.9989 2.89844H18.0009L23.5526 2.9375ZM10.9413 4.7959C10.5438 4.95341 10.2355 5.17589 9.9823 5.44043C9.41952 6.02862 8.99844 6.95447 8.73425 8.23926C8.19442 10.8654 8.43935 14.1141 8.43933 17.0898C8.4393 22.6911 8.62621 25.5704 8.86023 27.1328C8.97588 27.9048 9.09541 28.3026 9.18347 28.5225C9.24959 28.6874 9.29762 28.7644 9.39538 28.9209C9.68089 29.2126 9.89014 29.418 10.1141 29.6445C10.2494 29.7814 10.3895 29.9299 10.5243 30.0859H10.8485L10.6962 29.875L10.6893 29.8662L10.6854 29.8574C10.5981 29.6605 10.497 29.4627 10.3973 29.1387C10.2976 28.8145 10.1986 28.3641 10.1102 27.6504C9.93362 26.2237 9.79475 23.7333 9.76452 19.0732L9.75867 17.0898C9.75867 15.0341 9.65951 12.5833 9.77331 10.3145C9.88062 8.17531 10.1775 6.17257 10.9413 4.7959ZM12.9501 4.53906C12.7481 4.67329 12.5659 4.86007 12.3944 5.10645L12.3934 5.10547C11.9383 5.75958 11.6104 6.7794 11.4091 8.12598C11.0054 10.8263 11.1854 14.1825 11.1854 17.0898C11.1854 22.6948 11.3202 25.6101 11.495 27.2168C11.5819 28.0152 11.6763 28.4569 11.7548 28.7266C11.8186 28.9457 11.8721 29.0579 11.955 29.2402C12.1694 29.5418 12.3282 29.755 12.4911 29.9814C12.5148 30.0144 12.5399 30.0517 12.5634 30.0859H13.4979L13.3944 29.8574L13.3915 29.8506L13.3895 29.8438C13.1477 28.9715 12.8114 28.3075 12.8114 17.0898C12.8114 14.9858 12.7454 12.4744 12.8241 10.1641C12.9 7.93613 13.1121 5.87472 13.6532 4.5332L12.9501 4.53906ZM15.245 4.50391C15.1798 4.60095 15.1044 4.72965 15.0301 4.90039C14.7238 5.60491 14.5094 6.68667 14.3807 8.06348C14.1246 10.8048 14.2382 14.22 14.2382 17.0898C14.2381 27.8592 14.5532 28.7675 14.745 29.4229C14.852 29.6637 14.9529 29.8818 15.0448 30.0859H16.1415L16.0956 29.834L16.0946 29.8281C15.9989 28.9648 15.8641 28.3072 15.8641 17.0898C15.8641 14.9757 15.8387 12.4567 15.871 10.1406C15.9023 7.89354 15.9907 5.82848 16.2108 4.50391H15.245Z" fill="white"/>
</svg>
