<svg width="36" height="36" viewBox="0 0 36 36" fill="none" xmlns="http://www.w3.org/2000/svg">
<path fill-rule="evenodd" clip-rule="evenodd" d="M14.35 6.90998C14.3512 7.04444 14.3514 7.20184 14.3514 7.38814V11.0899C14.3514 11.741 14.8714 12.273 15.5223 12.2877C23.3486 12.4649 29.743 18.2979 30.8352 25.8279C29.6985 24.4132 28.4682 23.1 26.8684 22.041C24.4706 20.4538 21.3344 19.4878 16.5849 19.3475L16.5561 19.3466C16.3763 19.3413 16.184 19.3356 16.0168 19.345C15.8253 19.3558 15.5867 19.3889 15.3393 19.5086C15.0029 19.6713 14.7217 19.9443 14.5492 20.2757C14.421 20.5218 14.3817 20.7623 14.3655 20.9531C14.3513 21.1214 14.3513 21.3165 14.3513 21.5008L14.3514 24.2252C14.3514 24.4115 14.3512 24.5689 14.35 24.7033C14.2538 24.6093 14.1422 24.4983 14.0102 24.3669L5.41694 15.8067L14.0102 7.24645C14.1422 7.11497 14.2538 7.00399 14.35 6.90998ZM15.9327 5.16893C15.5695 4.74312 15.0244 4.51675 14.4664 4.55991C13.9924 4.59657 13.6332 4.87057 13.4211 5.04749C13.1915 5.23887 12.924 5.50542 12.6288 5.79953L3.29426 15.0982C3.10589 15.2858 3 15.5408 3 15.8067C3 16.0725 3.10589 16.3275 3.29426 16.5151L12.6288 25.8138C12.924 26.1079 13.1915 26.3744 13.4211 26.5658C13.6332 26.7427 13.9924 27.0167 14.4664 27.0534C15.0244 27.0966 15.5695 26.8702 15.9327 26.4444C16.2413 26.0827 16.3006 25.6349 16.325 25.3597C16.3514 25.062 16.3514 24.6843 16.3514 24.2676L16.3514 21.5297C16.3514 21.4573 16.3514 21.396 16.3517 21.3418C16.4022 21.343 16.4591 21.3446 16.5259 21.3466C21.0243 21.4795 23.7649 22.3852 25.7644 23.7087C27.7686 25.0353 29.1191 26.8319 30.7759 29.036L30.8392 29.1202C31.5322 30.042 33 29.5525 33 28.3986V28.1198C33 18.6892 25.6725 10.9383 16.3514 10.3229L16.3514 7.34565C16.3514 6.92895 16.3514 6.5513 16.325 6.25362C16.3006 5.97845 16.2413 5.53063 15.9327 5.16893Z" fill="white"/>
</svg>
