<svg width="36" height="36" viewBox="0 0 36 36" fill="none" xmlns="http://www.w3.org/2000/svg">
<path d="M11.7162 18C11.7162 13.6715 12.5246 9.80741 13.7835 7.06759C15.087 4.23046 16.6601 3 18 3C26.2843 3 33 9.71573 33 18C33 19.3399 31.7695 20.913 28.9324 22.2165C26.1926 23.4754 22.3285 24.2838 18 24.2838C15.9466 24.2838 13.9977 24.1019 12.2238 23.7762C11.8981 22.0023 11.7162 20.0534 11.7162 18Z" fill="white"/>
<path d="M32.1597 22.9625C31.4676 23.45 30.6929 23.8838 29.8718 24.2611C26.7755 25.6837 22.5771 26.5338 18 26.5338C16.1828 26.5338 14.4253 26.3998 12.7728 26.1492C13.0616 27.168 13.4019 28.1018 13.7835 28.9324C15.087 31.7695 16.6601 33 18 33C24.5451 33 30.1111 28.8081 32.1597 22.9625Z" fill="white"/>
<path d="M13.0375 32.1597C12.55 31.4676 12.1162 30.6929 11.7389 29.8718C11.1701 28.6337 10.6928 27.2195 10.3248 25.6752C8.78055 25.3072 7.36627 24.8299 6.12822 24.2611C5.30709 23.8838 4.53243 23.45 3.84034 22.9625C5.34456 27.2548 8.74523 30.6554 13.0375 32.1597Z" fill="white"/>
<path d="M3 18C3 19.3399 4.23046 20.913 7.06759 22.2165C7.89815 22.5981 8.83203 22.9384 9.85083 23.2272C9.60021 21.5747 9.46622 19.8172 9.46622 18C9.46622 13.4229 10.3163 9.2245 11.7389 6.12822C12.1162 5.30709 12.55 4.53243 13.0375 3.84035C7.19194 5.88891 3 11.4549 3 18Z" fill="white"/>
</svg>
