<svg width="36" height="36" viewBox="0 0 36 36" fill="none" xmlns="http://www.w3.org/2000/svg">
<path fill-rule="evenodd" clip-rule="evenodd" d="M3.00045 13C3.00463 10.9376 3.04767 9.82609 3.49047 8.95704C3.9219 8.11031 4.61031 7.4219 5.45704 6.99047C6.41965 6.5 7.67976 6.5 10.2 6.5H25.8C28.3202 6.5 29.5804 6.5 30.543 6.99047C31.3897 7.4219 32.0781 8.11031 32.5095 8.95704C32.9523 9.82609 32.9954 10.9376 32.9995 13H3.00045ZM3 16H33V18.9004C31.252 17.4039 28.9815 16.5 26.5 16.5C20.9772 16.5 16.5 20.9772 16.5 26.5C16.5 27.5452 16.6604 28.553 16.9578 29.5H10.2C7.67976 29.5 6.41965 29.5 5.45704 29.0095C4.61031 28.5781 3.9219 27.8897 3.49047 27.043C3 26.0804 3 24.8202 3 22.3V16Z" fill="white"/>
<path fill-rule="evenodd" clip-rule="evenodd" d="M26.5 35C31.1944 35 35 31.1944 35 26.5C35 21.8056 31.1944 18 26.5 18C21.8056 18 18 21.8056 18 26.5C18 31.1944 21.8056 35 26.5 35ZM31.6 23.45C31.8485 23.1186 31.7814 22.6485 31.45 22.4C31.1186 22.1515 30.6485 22.2186 30.4 22.55L24.9552 29.8098L22.0644 26.5061C21.7917 26.1944 21.3179 26.1628 21.0061 26.4356C20.6944 26.7083 20.6628 27.1821 20.9356 27.4939L24.4356 31.4939C24.5845 31.6641 24.8023 31.758 25.0282 31.7495C25.2542 31.741 25.4643 31.6309 25.6 31.45L31.6 23.45Z" fill="white"/>
</svg>
