<svg width="36" height="36" viewBox="0 0 36 36" fill="none" xmlns="http://www.w3.org/2000/svg">
<path fill-rule="evenodd" clip-rule="evenodd" d="M33.0001 15.1118C33.0001 14.5154 33.0002 14.0083 32.9661 13.592C32.9304 13.155 32.8523 12.7309 32.6459 12.3258C32.3343 11.7143 31.8371 11.2171 31.2256 10.9055C30.8205 10.6991 30.3964 10.621 29.9594 10.5852C29.5479 10.5516 29.0476 10.5513 28.46 10.5513C28.46 9.95885 28.4598 9.45483 28.426 9.04077C28.3903 8.60374 28.3122 8.17965 28.1058 7.77453C27.7942 7.16301 27.297 6.66582 26.6855 6.35423C26.2803 6.14781 25.8562 6.06968 25.4192 6.03398C25.003 5.99997 24.4959 5.99998 23.8994 6H7.56204C6.96559 5.99998 6.45846 5.99997 6.04224 6.03398C5.6052 6.06968 5.18111 6.14781 4.776 6.35423C4.16447 6.66582 3.66728 7.16301 3.35569 7.77453C3.14928 8.17965 3.07115 8.60374 3.03544 9.04077C3.00144 9.45699 3.00145 9.96411 3.00147 10.5606V20.8863C3.00145 21.4828 3.00144 21.9899 3.03544 22.4061C3.07115 22.8431 3.14928 23.2672 3.35569 23.6724C3.66728 24.2839 4.16447 24.7811 4.776 25.0927C5.18111 25.2991 5.60521 25.3772 6.04224 25.4129C6.4537 25.4465 6.954 25.4469 7.54161 25.4469C7.54159 26.0393 7.54175 26.5433 7.57558 26.9574C7.61129 27.3944 7.68942 27.8185 7.89583 28.2236C8.20742 28.8351 8.70461 29.3323 9.31614 29.6439C9.72126 29.8503 10.1453 29.9285 10.5824 29.9642C10.9986 29.9982 11.5056 29.9982 12.102 29.9982H28.4396C29.036 29.9982 29.5432 29.9982 29.9594 29.9642C30.3964 29.9285 30.8205 29.8503 31.2256 29.6439C31.8371 29.3323 32.3343 28.8351 32.6459 28.2236C32.8523 27.8185 32.9304 27.3944 32.9661 26.9574C33.0002 26.5412 33.0001 26.034 33.0001 25.4376V15.1118ZM9.54161 25.4469C9.54166 26.0662 9.54306 26.4777 9.56894 26.7945C9.59454 27.1079 9.63903 27.2395 9.67785 27.3156C9.79769 27.5508 9.98891 27.7421 10.2241 27.8619C10.3003 27.9007 10.4319 27.9452 10.7452 27.9708C11.0703 27.9974 11.495 27.9982 12.1416 27.9982H28.4001C29.0467 27.9982 29.4715 27.9974 29.7965 27.9708C30.1098 27.9452 30.2414 27.9007 30.3176 27.8619C30.5528 27.7421 30.744 27.5508 30.8639 27.3156C30.9027 27.2395 30.9472 27.1079 30.9728 26.7945C30.9993 26.4695 31.0001 26.0447 31.0001 25.3982V15.1513C31.0001 14.5047 30.9993 14.0799 30.9728 13.7549C30.9472 13.4416 30.9027 13.31 30.8639 13.2338C30.744 12.9986 30.5528 12.8074 30.3176 12.6875C30.2414 12.6487 30.1098 12.6042 29.7965 12.5786C29.4816 12.5529 29.0731 12.5513 28.46 12.5513L28.46 20.8863C28.46 21.4828 28.46 21.9899 28.426 22.4061C28.3903 22.8431 28.3122 23.2672 28.1058 23.6724C27.7942 24.2839 27.297 24.7811 26.6855 25.0927C26.2803 25.2991 25.8562 25.3772 25.4192 25.4129C25.003 25.4469 24.4959 25.4469 23.8994 25.4469H9.54161ZM26.4327 9.20364C26.407 8.89029 26.3626 8.7587 26.3237 8.68251C26.2039 8.44731 26.0127 8.25609 25.7775 8.13624C25.7013 8.09743 25.5697 8.05294 25.2563 8.02733C24.9313 8.00078 24.5065 8 23.86 8H7.60147C6.95491 8 6.53013 8.00078 6.2051 8.02733C5.89175 8.05294 5.76016 8.09743 5.68398 8.13624C5.44878 8.25609 5.25755 8.44731 5.13771 8.68251C5.09889 8.7587 5.0544 8.89029 5.0288 9.20364C5.00224 9.52866 5.00147 9.95344 5.00147 10.6V20.8469C5.00147 21.4934 5.00224 21.9182 5.0288 22.2432C5.0544 22.5566 5.09889 22.6882 5.13771 22.7644C5.25755 22.9996 5.44878 23.1908 5.68398 23.3106C5.76016 23.3495 5.89175 23.3939 6.2051 23.4195C6.53013 23.4461 6.95491 23.4469 7.60147 23.4469H23.86C24.5065 23.4469 24.9313 23.4461 25.2563 23.4195C25.5697 23.3939 25.7013 23.3495 25.7775 23.3106C26.0127 23.1908 26.2039 22.9996 26.3237 22.7644C26.3626 22.6882 26.407 22.5566 26.4327 22.2432C26.4592 21.9182 26.46 21.4934 26.46 20.8469V10.6C26.46 9.95344 26.4592 9.52866 26.4327 9.20364ZM24.298 11.5513C24.298 12.1036 23.8503 12.5513 23.298 12.5513H8.16346C7.61117 12.5513 7.16346 12.1036 7.16346 11.5513C7.16346 10.999 7.61117 10.5513 8.16346 10.5513H23.298C23.8503 10.5513 24.298 10.999 24.298 11.5513Z" fill="white"/>
</svg>
