<svg width="36" height="36" viewBox="0 0 36 36" fill="none" xmlns="http://www.w3.org/2000/svg">
<path fill-rule="evenodd" clip-rule="evenodd" d="M3.49047 8.95704C3.04767 9.82609 3.00463 10.9376 3.00045 13H32.9995C32.9954 10.9376 32.9523 9.82609 32.5095 8.95704C32.0781 8.11031 31.3897 7.4219 30.543 6.99047C29.5804 6.5 28.3202 6.5 25.8 6.5H10.2C7.67976 6.5 6.41965 6.5 5.45704 6.99047C4.61031 7.4219 3.9219 8.11031 3.49047 8.95704ZM33 16H3V22.3C3 24.8202 3 26.0804 3.49047 27.043C3.9219 27.8897 4.61031 28.5781 5.45704 29.0095C6.41965 29.5 7.67976 29.5 10.2 29.5H25.8C28.3202 29.5 29.5804 29.5 30.543 29.0095C31.3897 28.5781 32.0781 27.8897 32.5095 27.043C33 26.0804 33 24.8202 33 22.3V16Z" fill="white"/>
</svg>
