<svg width="36" height="36" viewBox="0 0 36 36" fill="none" xmlns="http://www.w3.org/2000/svg">
<path fill-rule="evenodd" clip-rule="evenodd" d="M33 24.5999V13.4996C33 12.1013 32.0433 10.9264 30.7488 10.5938C30.75 10.8276 30.75 11.0694 30.75 11.3184V20.181C30.7501 21.0564 30.7501 21.8443 30.6966 22.4997C30.6392 23.2017 30.5094 23.9475 30.1369 24.6785C29.5976 25.7369 28.7371 26.5975 27.6787 27.1368C26.9477 27.5092 26.2018 27.639 25.4999 27.6964C24.8444 27.75 24.0566 27.7499 23.1812 27.7499H8.31888C8.06999 27.7499 7.8279 27.7499 7.5942 27.7487C7.92682 29.0432 9.10171 29.9999 10.5 29.9999H27.6C29.4902 29.9999 30.4352 29.9999 31.1572 29.6321C31.7923 29.3085 32.3086 28.7922 32.6321 28.1571C33 27.4352 33 26.4901 33 24.5999ZM28.4993 20.7657C28.4943 22.2231 28.4541 23.0257 28.1321 23.6575C27.8086 24.2926 27.2923 24.8089 26.6572 25.1324C25.9352 25.5003 24.9902 25.5003 23.1 25.5003H8.40004C6.50985 25.5003 5.56475 25.5003 4.8428 25.1324C4.20774 24.8089 3.69143 24.2926 3.36786 23.6575C3 22.9355 3 21.9904 3 20.1003V11.4C3 9.50985 3 8.56475 3.36786 7.8428C3.69143 7.20774 4.20774 6.69143 4.8428 6.36786C5.56475 6 6.50985 6 8.40004 6H23.1C24.9902 6 25.9352 6 26.6572 6.36786C27.2923 6.69143 27.8086 7.20774 28.1321 7.8428C28.4661 8.49824 28.4969 9.3376 28.4997 10.9011C28.4998 10.9748 28.4999 11.05 28.5 11.1269C28.5 11.2156 28.5 11.3064 28.5 11.3996C28.5 11.3994 28.5 11.3997 28.5 11.3996V20.0998C28.5 20.0996 28.5 20.1 28.5 20.0998C28.5 20.3359 28.5 20.5577 28.4993 20.7657ZM24.375 11.6251C24.375 12.2464 23.8713 12.7501 23.25 12.7501H8.25C7.62867 12.7501 7.12499 12.2464 7.12499 11.6251C7.12499 11.0038 7.62867 10.5001 8.25 10.5001H23.25C23.8713 10.5001 24.375 11.0038 24.375 11.6251Z" fill="white"/>
</svg>
