<svg width="36" height="36" viewBox="0 0 36 36" fill="none" xmlns="http://www.w3.org/2000/svg">
<path fill-rule="evenodd" clip-rule="evenodd" d="M33 15C33 14.1716 32.3284 13.5 31.5 13.5H29.8377C29.7603 13.0674 29.6459 12.7026 29.4768 12.3708C29.0166 11.4677 28.2823 10.7334 27.3792 10.2732C26.3524 9.75 25.0083 9.75 22.32 9.75H10.68C7.99175 9.75 6.64762 9.75 5.62085 10.2732C4.71767 10.7334 3.98336 11.4677 3.52317 12.3708C3 13.3976 3 14.7417 3 17.43V18.57C3 21.2583 3 22.6024 3.52317 23.6292C3.98336 24.5323 4.71767 25.2666 5.62085 25.7268C6.64762 26.25 7.99175 26.25 10.68 26.25H22.32C25.0083 26.25 26.3524 26.25 27.3792 25.7268C28.2823 25.2666 29.0166 24.5323 29.4768 23.6292C29.6459 23.2974 29.7603 22.9326 29.8377 22.5H31.5C32.3284 22.5 33 21.8284 33 21V15Z" fill="white"/>
</svg>
