<svg width="36" height="36" viewBox="0 0 36 36" fill="none" xmlns="http://www.w3.org/2000/svg">
<path fill-rule="evenodd" clip-rule="evenodd" d="M31.5 13.5C32.3284 13.5 33 14.1716 33 15V21C33 21.8284 32.3284 22.5 31.5 22.5H29.8377C29.7603 22.9326 29.6459 23.2974 29.4768 23.6292C29.0166 24.5323 28.2823 25.2666 27.3792 25.7268C26.3524 26.25 25.0083 26.25 22.32 26.25H10.68C7.99175 26.25 6.64762 26.25 5.62085 25.7268C4.71767 25.2666 3.98336 24.5323 3.52317 23.6292C3 22.6024 3 21.2583 3 18.57V17.43C3 14.7417 3 13.3976 3.52317 12.3708C3.98336 11.4677 4.71767 10.7334 5.62085 10.2732C6.64762 9.75 7.99175 9.75 10.68 9.75H22.32C25.0083 9.75 26.3524 9.75 27.3792 10.2732C28.2823 10.7334 29.0166 11.4677 29.4768 12.3708C29.6459 12.7026 29.7603 13.0674 29.8377 13.5H31.5ZM6.75 12C5.92157 12 5.25 12.6716 5.25 13.5V22.5C5.25 23.3284 5.92157 24 6.75 24H7.5C7.91421 24 8.25 23.6642 8.25 23.25V12.75C8.25 12.3358 7.91421 12 7.5 12H6.75Z" fill="white"/>
</svg>
