<svg width="36" height="36" viewBox="0 0 36 36" fill="none" xmlns="http://www.w3.org/2000/svg">
<path fill-rule="evenodd" clip-rule="evenodd" d="M13.5 4.5C13.5 3.67157 14.1716 3 15 3H21C21.8284 3 22.5 3.67157 22.5 4.5V6.16228C22.9326 6.23973 23.2974 6.35415 23.6292 6.52317C24.5323 6.98336 25.2666 7.71767 25.7268 8.62085C26.25 9.64762 26.25 10.9917 26.25 13.68V25.32C26.25 28.0083 26.25 29.3524 25.7268 30.3792C25.2666 31.2823 24.5323 32.0166 23.6292 32.4768C22.6024 33 21.2583 33 18.57 33H17.43C14.7417 33 13.3976 33 12.3708 32.4768C11.4677 32.0166 10.7334 31.2823 10.2732 30.3792C9.75 29.3524 9.75 28.0083 9.75 25.32V13.68C9.75 10.9917 9.75 9.64762 10.2732 8.62085C10.7334 7.71767 11.4677 6.98336 12.3708 6.52317C12.7026 6.35415 13.0674 6.23973 13.5 6.16228V4.5ZM13.207 19.9488C12.9641 20.2842 13.2072 20.9998 13.6251 20.9998H17.6872L16.1545 25.1772C16.0865 25.6997 16.7717 25.9649 17.0822 25.5362L22.9035 19.0513C23.1464 18.7159 22.9179 17.9998 22.5001 17.9998H18.3897L19.8751 13.823C19.9432 13.3005 19.258 13.0352 18.9475 13.4639L13.207 19.9488Z" fill="white"/>
</svg>
