<svg width="36" height="36" viewBox="0 0 36 36" fill="none" xmlns="http://www.w3.org/2000/svg">
<path fill-rule="evenodd" clip-rule="evenodd" d="M13.5 4.5C13.5 3.67157 14.1716 3 15 3H21C21.8284 3 22.5 3.67157 22.5 4.5V6.16228C22.9326 6.23973 23.2974 6.35415 23.6292 6.52317C24.5323 6.98336 25.2666 7.71767 25.7268 8.62085C26.25 9.64762 26.25 10.9917 26.25 13.68V25.32C26.25 28.0083 26.25 29.3524 25.7268 30.3792C25.2666 31.2823 24.5323 32.0166 23.6292 32.4768C22.6024 33 21.2583 33 18.57 33H17.43C14.7417 33 13.3976 33 12.3708 32.4768C11.4677 32.0166 10.7334 31.2823 10.2732 30.3792C9.75 29.3524 9.75 28.0083 9.75 25.32V13.68C9.75 10.9917 9.75 9.64762 10.2732 8.62085C10.7334 7.71767 11.4677 6.98336 12.3708 6.52317C12.7026 6.35415 13.0674 6.23973 13.5 6.16228V4.5ZM12 29.25C12 30.0784 12.6716 30.75 13.5 30.75H22.5C23.3284 30.75 24 30.0784 24 29.25V28.5C24 28.0858 23.6642 27.75 23.25 27.75H12.75C12.3358 27.75 12 28.0858 12 28.5V29.25ZM12.75 26.8496C12.3358 26.8496 12 26.5138 12 26.0996V24.5996C12 24.1854 12.3358 23.8496 12.75 23.8496H23.25C23.6642 23.8496 24 24.1854 24 24.5996V26.0996C24 26.5138 23.6642 26.8496 23.25 26.8496H12.75ZM12 22.1997C12 22.6139 12.3358 22.9497 12.75 22.9497H23.25C23.6642 22.9497 24 22.6139 24 22.1997V20.6997C24 20.2855 23.6642 19.9497 23.25 19.9497H12.75C12.3358 19.9497 12 20.2855 12 20.6997V22.1997Z" fill="white"/>
</svg>
