<svg width="36" height="36" viewBox="0 0 36 36" fill="none" xmlns="http://www.w3.org/2000/svg">
<path fill-rule="evenodd" clip-rule="evenodd" d="M31.5 13.5C32.3284 13.5 33 14.1716 33 15V21C33 21.8284 32.3284 22.5 31.5 22.5H29.9323C29.8662 23.2866 29.7354 23.8716 29.4768 24.3792C29.0166 25.2823 28.2823 26.0166 27.3792 26.4768C26.3524 27 25.0083 27 22.32 27H10.68C7.99175 27 6.64762 27 5.62085 26.4768C4.71767 26.0166 3.98336 25.2823 3.52317 24.3792C3 23.3524 3 22.0083 3 19.32V16.68C3 13.9917 3 12.6476 3.52317 11.6208C3.98336 10.7177 4.71767 9.98336 5.62085 9.52317C6.64762 9 7.99175 9 10.68 9H22.32C25.0083 9 26.3524 9 27.3792 9.52317C28.2823 9.98336 29.0166 10.7177 29.4768 11.6208C29.7354 12.1284 29.8662 12.7134 29.9323 13.5H31.5ZM27.75 14.25C27.75 12.5931 26.4069 11.25 24.75 11.25H8.25C6.59315 11.25 5.25 12.5931 5.25 14.25V21.75C5.25 23.4069 6.59315 24.75 8.25 24.75H24.75C26.4069 24.75 27.75 23.4069 27.75 21.75V14.25ZM6.75 13.5C6.75 13.0858 7.08579 12.75 7.5 12.75H8.25C8.66421 12.75 9 13.0858 9 13.5V22.5C9 22.9142 8.66421 23.25 8.25 23.25H7.5C7.08579 23.25 6.75 22.9142 6.75 22.5V13.5ZM14.3994 12.75C13.9852 12.75 13.6494 13.0858 13.6494 13.5V22.5C13.6494 22.9142 13.9852 23.25 14.3994 23.25H15.1494C15.5636 23.25 15.8994 22.9142 15.8994 22.5V13.5C15.8994 13.0858 15.5636 12.75 15.1494 12.75H14.3994ZM10.1997 13.5C10.1997 13.0858 10.5355 12.75 10.9497 12.75H11.6997C12.1139 12.75 12.4497 13.0858 12.4497 13.5V22.5C12.4497 22.9142 12.1139 23.25 11.6997 23.25H10.9497C10.5355 23.25 10.1997 22.9142 10.1997 22.5V13.5ZM17.8491 12.75C17.4349 12.75 17.0991 13.0858 17.0991 13.5V22.5C17.0991 22.9142 17.4349 23.25 17.8491 23.25H18.5991C19.0133 23.25 19.3491 22.9142 19.3491 22.5V13.5C19.3491 13.0858 19.0133 12.75 18.5991 12.75H17.8491ZM20.5488 13.5C20.5488 13.0858 20.8846 12.75 21.2988 12.75H22.0488C22.463 12.75 22.7988 13.0858 22.7988 13.5V22.5C22.7988 22.9142 22.463 23.25 22.0488 23.25H21.2988C20.8846 23.25 20.5488 22.9142 20.5488 22.5V13.5ZM24.7485 12.75C24.3343 12.75 23.9985 13.0858 23.9985 13.5V22.5C23.9985 22.9142 24.3343 23.25 24.7485 23.25H25.4985C25.9127 23.25 26.2485 22.9142 26.2485 22.5V13.5C26.2485 13.0858 25.9127 12.75 25.4985 12.75H24.7485Z" fill="white"/>
</svg>
