<svg width="36" height="36" viewBox="0 0 36 36" fill="none" xmlns="http://www.w3.org/2000/svg">
<path fill-rule="evenodd" clip-rule="evenodd" d="M31.5 13.5C32.3284 13.5 33 14.1716 33 15V21C33 21.8284 32.3284 22.5 31.5 22.5H29.9323C29.8662 23.2866 29.7354 23.8716 29.4768 24.3792C29.0166 25.2823 28.2823 26.0166 27.3792 26.4768C26.3524 27 25.0083 27 22.32 27H10.68C7.99175 27 6.64762 27 5.62085 26.4768C4.71767 26.0166 3.98336 25.2823 3.52317 24.3792C3 23.3524 3 22.0083 3 19.32V16.68C3 13.9917 3 12.6476 3.52317 11.6208C3.98336 10.7177 4.71767 9.98336 5.62085 9.52317C6.64762 9 7.99175 9 10.68 9H22.32C25.0083 9 26.3524 9 27.3792 9.52317C28.2823 9.98336 29.0166 10.7177 29.4768 11.6208C29.7354 12.1284 29.8662 12.7134 29.9323 13.5H31.5ZM27.75 14.25C27.75 12.5931 26.4069 11.25 24.75 11.25H8.25C6.59315 11.25 5.25 12.5931 5.25 14.25V21.75C5.25 23.4069 6.59315 24.75 8.25 24.75H24.75C26.4069 24.75 27.75 23.4069 27.75 21.75V14.25Z" fill="white"/>
</svg>
