<svg width="36" height="36" viewBox="0 0 36 36" fill="none" xmlns="http://www.w3.org/2000/svg">
<path fill-rule="evenodd" clip-rule="evenodd" d="M33 15C33 14.1716 32.3284 13.5 31.5 13.5H29.8377C29.7603 13.0674 29.6459 12.7026 29.4768 12.3708C29.0166 11.4677 28.2823 10.7334 27.3792 10.2732C26.3524 9.75 25.0083 9.75 22.32 9.75H10.68C7.99175 9.75 6.64762 9.75 5.62085 10.2732C4.71767 10.7334 3.98336 11.4677 3.52317 12.3708C3 13.3976 3 14.7417 3 17.43V18.57C3 21.2583 3 22.6024 3.52317 23.6292C3.98336 24.5323 4.71767 25.2666 5.62085 25.7268C6.64762 26.25 7.99175 26.25 10.68 26.25H22.32C25.0083 26.25 26.3524 26.25 27.3792 25.7268C28.2823 25.2666 29.0166 24.5323 29.4768 23.6292C29.6459 23.2974 29.7603 22.9326 29.8377 22.5H31.5C32.3284 22.5 33 21.8284 33 21V15ZM5.25 13.5C5.25 12.6716 5.92157 12 6.75 12H7.5C7.91421 12 8.25 12.3358 8.25 12.75V23.25C8.25 23.6642 7.91421 24 7.5 24H6.75C5.92157 24 5.25 23.3284 5.25 22.5V13.5ZM9.90039 12C9.48618 12 9.15039 12.3358 9.15039 12.75V23.25C9.15039 23.6642 9.48618 24 9.90039 24H11.4004C11.8146 24 12.1504 23.6642 12.1504 23.25V12.75C12.1504 12.3358 11.8146 12 11.4004 12H9.90039ZM13.0503 12.75C13.0503 12.3358 13.3861 12 13.8003 12H15.3003C15.7145 12 16.0503 12.3358 16.0503 12.75V23.25C16.0503 23.6642 15.7145 24 15.3003 24H13.8003C13.3861 24 13.0503 23.6642 13.0503 23.25V12.75ZM17.6997 12C17.2855 12 16.9497 12.3358 16.9497 12.75V23.25C16.9497 23.6642 17.2855 24 17.6997 24H19.1997C19.6139 24 19.9497 23.6642 19.9497 23.25V12.75C19.9497 12.3358 19.6139 12 19.1997 12H17.6997ZM20.8496 12.75C20.8496 12.3358 21.1854 12 21.5996 12H23.0996C23.5138 12 23.8496 12.3358 23.8496 12.75V23.25C23.8496 23.6642 23.5138 24 23.0996 24H21.5996C21.1854 24 20.8496 23.6642 20.8496 23.25V12.75ZM25.5 12C25.0858 12 24.75 12.3358 24.75 12.75V23.25C24.75 23.6642 25.0858 24 25.5 24H26.25C27.0784 24 27.75 23.3284 27.75 22.5V13.5C27.75 12.6716 27.0784 12 26.25 12H25.5Z" fill="white"/>
</svg>
