<svg width="36" height="36" viewBox="0 0 36 36" fill="none" xmlns="http://www.w3.org/2000/svg">
<path fill-rule="evenodd" clip-rule="evenodd" d="M31.5 13.5C32.3284 13.5 33 14.1716 33 15V21C33 21.8284 32.3284 22.5 31.5 22.5H29.8377C29.7603 22.9326 29.6459 23.2974 29.4768 23.6292C29.0166 24.5323 28.2823 25.2666 27.3792 25.7268C26.3524 26.25 25.0083 26.25 22.32 26.25H10.68C7.99175 26.25 6.64762 26.25 5.62085 25.7268C4.71767 25.2666 3.98336 24.5323 3.52317 23.6292C3 22.6024 3 21.2583 3 18.57V17.43C3 14.7417 3 13.3976 3.52317 12.3708C3.98336 11.4677 4.71767 10.7334 5.62085 10.2732C6.64762 9.75 7.99175 9.75 10.68 9.75H22.32C25.0083 9.75 26.3524 9.75 27.3792 10.2732C28.2823 10.7334 29.0166 11.4677 29.4768 12.3708C29.6459 12.7026 29.7603 13.0674 29.8377 13.5H31.5ZM11.6501 18.5053C11.4072 18.8407 11.6503 19.5563 12.0682 19.5563H16.1303L14.5976 23.7337C14.5296 24.2562 15.2148 24.5214 15.5253 24.0927L21.3466 17.6078C21.5895 17.2724 21.361 16.5563 20.9432 16.5563H16.8329L18.3182 12.3795C18.3863 11.857 17.7011 11.5917 17.3906 12.0204L11.6501 18.5053Z" fill="white"/>
</svg>
