<svg width="36" height="36" viewBox="0 0 36 36" fill="none" xmlns="http://www.w3.org/2000/svg">
<path fill-rule="evenodd" clip-rule="evenodd" d="M22.2877 2.38198C22.8212 2.52492 23.1378 3.07326 22.9948 3.60673L22.7162 4.64672C26.16 5.81768 29.0792 8.19189 30.9155 11.3458C32.461 14.0002 33.1418 17.0394 32.9011 20.051L32.8984 20.0848C32.8707 20.4318 32.846 20.741 32.812 20.9743C32.7944 21.0951 32.7685 21.2391 32.7233 21.379C32.6843 21.4996 32.5915 21.7474 32.3615 21.9501C31.9966 22.2716 31.5069 22.3759 31.0426 22.231C30.7283 22.1328 30.5354 21.9189 30.4612 21.8328C30.365 21.7212 30.281 21.5954 30.2115 21.4838C30.0753 21.2653 29.9101 20.9624 29.7182 20.6108L29.7028 20.5824C29.1666 19.5996 28.4192 18.7642 27.4186 18.496C26.303 18.1971 25.4616 18.4084 24.8282 18.7611L24.818 18.7667C24.3251 19.0412 23.9434 19.2537 23.6743 19.3977C23.5402 19.4695 23.4199 19.5319 23.3214 19.5785C23.2731 19.6013 23.2153 19.6274 23.1555 19.65L23.1518 19.6514C23.118 19.6643 22.9731 19.7198 22.7954 19.728L22.7647 19.7297L22.7618 19.7298C22.7524 19.7304 22.7318 19.7317 22.7124 19.7325L22.7105 19.7325C22.6697 19.7342 22.5337 19.7397 22.3724 19.6965C22.211 19.6532 22.096 19.5805 22.0614 19.5586L22.0598 19.5576C22.0535 19.5536 22.047 19.5494 22.041 19.5455C22.0315 19.5393 22.0232 19.5338 22.0184 19.5306L22.016 19.5291L21.9903 19.5123C21.8405 19.4163 21.7427 19.2958 21.7199 19.2677L21.7173 19.2646C21.6769 19.2152 21.6399 19.1637 21.6094 19.1198C21.5474 19.0302 21.4745 18.916 21.3942 18.7867C21.2332 18.5275 21.0089 18.1526 20.7192 17.6685L20.7133 17.6585C20.341 17.0364 19.718 16.4327 18.6024 16.1338C17.4868 15.8348 16.6454 16.0461 16.012 16.3988L16.002 16.4043C15.509 16.6788 15.1272 16.8914 14.8581 17.0354C14.724 17.1072 14.6037 17.1696 14.5052 17.2162C14.4569 17.239 14.3991 17.2651 14.3393 17.2877L14.3356 17.2891C14.3018 17.302 14.1569 17.3575 13.9792 17.3657L13.9485 17.3674L13.9456 17.3675C13.9362 17.3681 13.9156 17.3694 13.8962 17.3702L13.8943 17.3702C13.8535 17.3719 13.7175 17.3774 13.5562 17.3342C13.3948 17.2909 13.2798 17.2182 13.2452 17.1963L13.2436 17.1953C13.2272 17.1849 13.2101 17.1736 13.2022 17.1683L13.1998 17.1668L13.1741 17.15C13.0242 17.054 12.9265 16.9335 12.9036 16.9054L12.9011 16.9023C12.8607 16.8529 12.8237 16.8014 12.7932 16.7575C12.7312 16.6679 12.6583 16.5537 12.578 16.4244C12.4171 16.1653 12.1929 15.7907 11.9034 15.3069L11.8971 15.2962C11.5248 14.6741 10.9018 14.0704 9.78619 13.7715C8.78557 13.5033 7.72063 13.8532 6.76488 14.4362L6.73729 14.453C6.39531 14.6617 6.10075 14.8414 5.87363 14.9625C5.75754 15.0244 5.62196 15.0914 5.48286 15.1399C5.37559 15.1773 5.10149 15.2661 4.7802 15.194C4.30566 15.0874 3.93373 14.7522 3.77849 14.2913C3.68063 14.0007 3.72418 13.7398 3.75073 13.6158C3.78149 13.4721 3.83108 13.3344 3.87622 13.221C3.96339 13.002 4.09662 12.7218 4.2461 12.4075L4.26071 12.3768C5.55809 9.6484 7.66724 7.35677 10.333 5.83069C13.5005 4.01733 17.216 3.42083 20.7843 4.12901L21.063 3.08909C21.2059 2.55562 21.7542 2.23904 22.2877 2.38198ZM18.8483 19.0736C18.9912 18.5402 18.6747 17.9918 18.1412 17.8489C17.6077 17.7059 17.0594 18.0225 16.9164 18.556L13.5751 31.0262L5.36098 31.0112C4.8087 31.0102 4.3618 31.4571 4.36281 32.0094C4.36383 32.5617 4.81236 33.0102 5.36465 33.0112L27.4108 33.0514C27.9631 33.0524 28.4099 32.6055 28.4089 32.0532C28.4079 31.5009 27.9594 31.0524 27.4071 31.0514L15.6446 31.0299L18.8483 19.0736ZM11.3266 7.5664C14.3235 5.85069 17.8898 5.38991 21.2406 6.28776C24.5914 7.18561 27.4495 9.36779 29.1871 12.3521C30.3401 14.3325 30.9371 16.5584 30.9482 18.802C30.2822 17.8579 29.3114 16.9327 27.9362 16.5642C26.2776 16.1198 24.9042 16.4296 23.8553 17.0136C23.4851 17.2197 23.1891 17.3845 22.9579 17.5111C22.821 17.2859 22.647 16.9951 22.4295 16.6316C21.8132 15.6014 20.7787 14.6463 19.12 14.2019C17.4614 13.7575 16.088 14.0673 15.039 14.6514C14.6689 14.8574 14.3729 15.0222 14.1417 15.1488C14.0048 14.9236 13.8308 14.6329 13.6133 14.2693C12.997 13.2391 11.9625 12.284 10.3038 11.8396C8.92866 11.4711 7.62533 11.787 6.57644 12.2716C7.7079 10.3341 9.33785 8.70493 11.3266 7.5664Z" fill="white"/>
</svg>
