<svg width="36" height="36" viewBox="0 0 36 36" fill="none" xmlns="http://www.w3.org/2000/svg">
<path fill-rule="evenodd" clip-rule="evenodd" d="M7.32033 11.9316C9.51551 8.09779 13.6043 5.52411 18.2842 5.52411C19.7252 5.52411 21.1077 5.76771 22.3955 6.21562C22.9795 6.41877 23.6153 6.10312 23.8155 5.5106C24.0158 4.91808 23.7046 4.27307 23.1206 4.06992C21.6026 3.5419 19.9752 3.25579 18.2842 3.25579C12.7753 3.25579 7.9659 6.2883 5.38702 10.7922C5.15934 11.1899 4.94897 11.5991 4.75699 12.0187C4.49708 12.5869 4.74038 13.2613 5.30042 13.525C5.86045 13.7886 6.52515 13.5418 6.78506 12.9736C6.94811 12.6172 7.12683 12.2695 7.32033 11.9316ZM32.9982 15.9482C32.8997 15.3298 32.3258 14.9095 31.7163 15.0095C31.1068 15.1094 30.6925 15.6917 30.791 16.3101C30.8982 16.9826 30.954 17.6732 30.954 18.3779C30.954 25.4769 25.2815 31.2317 18.2842 31.2317C13.6043 31.2317 9.51551 28.658 7.32033 24.8242C7.11582 24.467 6.92782 24.099 6.75737 23.7212C6.5004 23.1517 5.83699 22.9013 5.2756 23.162C4.71421 23.4227 4.46742 24.0957 4.72438 24.6653C4.92508 25.1101 5.14638 25.5433 5.38702 25.9636C7.9659 30.4675 12.7753 33.5 18.2842 33.5C26.5163 33.5 33.1898 26.7296 33.1898 18.3779C33.1898 17.5515 33.1244 16.7399 32.9982 15.9482ZM13.4399 16.8657C14.4689 16.8657 15.3031 16.0194 15.3031 14.9754C15.3031 13.9315 14.4689 13.0852 13.4399 13.0852C12.4109 13.0852 11.5767 13.9315 11.5767 14.9754C11.5767 16.0194 12.4109 16.8657 13.4399 16.8657ZM24.9917 14.9754C24.9917 16.0194 24.1575 16.8657 23.1285 16.8657C22.0995 16.8657 21.2653 16.0194 21.2653 14.9754C21.2653 13.9315 22.0995 13.0852 23.1285 13.0852C24.1575 13.0852 24.9917 13.9315 24.9917 14.9754ZM12.798 21.5913C12.4893 21.0489 11.8056 20.863 11.2709 21.1762C10.7362 21.4894 10.553 22.183 10.8617 22.7255C11.6139 24.0473 12.6959 25.145 13.9988 25.9082C15.3017 26.6713 16.7797 27.0731 18.2841 27.0731C19.7886 27.0731 21.2666 26.6713 22.5695 25.9082C23.8724 25.145 24.9544 24.0473 25.7066 22.7255C26.0153 22.183 25.8321 21.4894 25.2974 21.1762C24.7627 20.863 24.079 21.0489 23.7703 21.5913C23.2143 22.5684 22.4146 23.3797 21.4516 23.9438C20.4886 24.5078 19.3961 24.8048 18.2841 24.8048C17.1721 24.8048 16.0797 24.5078 15.1167 23.9438C14.1537 23.3797 13.354 22.5684 12.798 21.5913Z" fill="white"/>
<path d="M30.0039 2.75994C30.1163 2.41335 30.5995 2.41335 30.7119 2.75994L31.1279 4.04337C31.5716 5.41201 32.6297 6.48547 33.9787 6.93559L35.2438 7.35768C35.5854 7.47167 35.5854 7.96196 35.2438 8.07594L33.9787 8.49804C32.6297 8.94816 31.5716 10.0216 31.1279 11.3903L30.7119 12.6737C30.5995 13.0203 30.1163 13.0203 30.0039 12.6737L29.5878 11.3903C29.1442 10.0216 28.0861 8.94816 26.737 8.49804L25.472 8.07594C25.1304 7.96196 25.1304 7.47167 25.472 7.35768L26.737 6.93559C28.0861 6.48547 29.1442 5.41201 29.5878 4.04337L30.0039 2.75994Z" fill="white"/>
<path d="M3.97332 14.6272C4.05978 14.3428 4.45661 14.3428 4.54307 14.6272L4.8478 15.6297C5.13834 16.5855 5.87588 17.3337 6.818 17.6285L7.80613 17.9377C8.08647 18.0254 8.08647 18.428 7.80613 18.5157L6.818 18.8248C5.87588 19.1196 5.13834 19.8679 4.8478 20.8237L4.54307 21.8261C4.45661 22.1106 4.05978 22.1106 3.97332 21.8261L3.66859 20.8237C3.37805 19.8679 2.64051 19.1196 1.69839 18.8248L0.710259 18.5157C0.429913 18.428 0.429914 18.0254 0.71026 17.9377L1.69839 17.6285C2.64051 17.3337 3.37805 16.5855 3.66859 15.6297L3.97332 14.6272Z" fill="white"/>
</svg>
