<svg width="36" height="36" viewBox="0 0 36 36" fill="none" xmlns="http://www.w3.org/2000/svg">
<path d="M22.244 29.9795C21.6263 31.739 19.9592 33 17.9999 33C16.0406 33 14.3735 31.739 13.7558 29.9795H22.244Z" fill="white"/>
<path fill-rule="evenodd" clip-rule="evenodd" d="M17.9999 3C18.3936 3.00004 18.7836 3.07786 19.1474 3.22949C19.5113 3.38127 19.8424 3.60432 20.121 3.88477C20.3995 4.16517 20.6206 4.49792 20.7714 4.86426C20.9151 5.21364 20.9921 5.58706 20.9989 5.96484C22.3847 6.36515 23.5089 7.06293 24.4042 8.01074C24.6702 8.29237 24.912 8.59259 25.1327 8.9082L29.7489 4.29297C30.1395 3.90261 30.7725 3.9025 31.163 4.29297C31.5533 4.68345 31.5533 5.31655 31.163 5.70703L5.70693 31.1631C5.31646 31.5535 4.6834 31.5534 4.29287 31.1631C3.90236 30.7726 3.90239 30.1396 4.29287 29.749L6.2294 27.8125C5.94208 27.6369 5.75005 27.3213 5.7499 26.96C5.7499 26.4077 6.19762 25.96 6.7499 25.96H8.08193L8.12295 25.918C8.27505 24.4991 8.32731 22.9156 8.38174 21.2402C8.3891 21.0137 8.39647 20.7854 8.4042 20.5557C8.48017 18.2965 8.58678 15.9103 9.00186 13.7471C9.41601 11.5888 10.1581 9.53169 11.5946 8.01074C12.4899 7.06295 13.6141 6.36515 14.9999 5.96484C15.0068 5.58709 15.0837 5.21362 15.2274 4.86426C15.3782 4.49797 15.5994 4.16515 15.8778 3.88477C16.1564 3.60432 16.4875 3.38127 16.8515 3.22949C17.2154 3.07774 17.606 3 17.9999 3ZM17.9999 7.57324C15.5984 7.57324 14.0751 8.29715 13.0487 9.38379C11.9893 10.5054 11.3484 12.1297 10.9657 14.124C10.5841 16.1132 10.4796 18.3515 10.4032 20.6221C10.3955 20.8524 10.3882 21.0843 10.3808 21.3154C10.3544 22.1323 10.3267 22.9514 10.287 23.7539L23.6894 10.3516C23.4688 9.99716 23.2237 9.67346 22.9501 9.38379C21.9238 8.29727 20.4011 7.57331 17.9999 7.57324Z" fill="white"/>
<path d="M26.7987 12.8301C26.8723 13.1327 26.9379 13.4391 26.997 13.7471C27.4121 15.9103 27.5187 18.2965 27.5946 20.5557C27.6024 20.7854 27.6097 21.0137 27.6171 21.2402C27.672 22.932 27.7242 24.5305 27.8798 25.96H29.2499C29.802 25.9601 30.2499 26.4078 30.2499 26.96C30.2497 27.5119 29.8019 27.9598 29.2499 27.96H11.6698L13.6698 25.96H25.869C25.7212 24.4956 25.6692 22.9012 25.6181 21.3154C25.6106 21.0842 25.6034 20.8526 25.5956 20.6221C25.5243 18.5022 25.4284 16.4105 25.1054 14.5234L26.7987 12.8301Z" fill="white"/>
</svg>
