<svg width="36" height="36" viewBox="0 0 36 36" fill="none" xmlns="http://www.w3.org/2000/svg">
<path d="M22.244 29.9795C21.6263 31.739 19.9592 33 17.9999 33C16.0407 32.9999 14.3735 31.739 13.7558 29.9795H22.244Z" fill="white"/>
<path d="M17.9999 3C18.3938 3.00001 18.7844 3.07773 19.1483 3.22949C19.5122 3.38127 19.8425 3.60439 20.121 3.88477C20.3995 4.16517 20.6206 4.4979 20.7714 4.86426C20.9151 5.21364 20.9921 5.58707 20.9989 5.96484C22.3847 6.36515 23.5089 7.06294 24.4042 8.01074C24.6702 8.29241 24.913 8.59254 25.1337 8.9082L29.7489 4.29297C30.1395 3.90261 30.7725 3.9025 31.163 4.29297C31.5533 4.68345 31.5533 5.31655 31.163 5.70703L5.70693 31.1631C5.31646 31.5535 4.6834 31.5534 4.29287 31.1631C3.90236 30.7726 3.90239 30.1396 4.29287 29.749L6.22842 27.8135C5.94148 27.6378 5.75005 27.321 5.7499 26.96C5.7499 26.4077 6.19762 25.96 6.7499 25.96H8.08193L8.12393 25.917C8.27594 24.4984 8.32733 22.9152 8.38174 21.2402C8.3891 21.0137 8.39647 20.7854 8.4042 20.5557C8.48017 18.2965 8.58679 15.9103 9.00186 13.7471C9.416 11.5889 10.1582 9.53168 11.5946 8.01074C12.4898 7.063 13.6142 6.36516 14.9999 5.96484C15.0068 5.58706 15.0847 5.21364 15.2284 4.86426C15.3792 4.49791 15.6003 4.16516 15.8788 3.88477C16.1573 3.60438 16.4876 3.38126 16.8515 3.22949C17.2154 3.07772 17.6059 3 17.9999 3Z" fill="white"/>
<path d="M26.7987 12.8301C26.8723 13.1327 26.9388 13.4391 26.9979 13.7471C27.413 15.9103 27.5187 18.2965 27.5946 20.5557C27.6024 20.7854 27.6097 21.0137 27.6171 21.2402C27.672 22.932 27.7242 24.5305 27.8798 25.96H29.2499C29.8021 25.96 30.2499 26.4077 30.2499 26.96C30.2497 27.512 29.802 27.9599 29.2499 27.96H11.6698L26.7987 12.8301Z" fill="white"/>
</svg>
