<svg width="36" height="36" viewBox="0 0 36 36" fill="none" xmlns="http://www.w3.org/2000/svg">
<path fill-rule="evenodd" clip-rule="evenodd" d="M15.0005 5.96506C13.6147 6.36537 12.4906 7.06268 11.5953 8.01049C10.1586 9.53147 9.41647 11.5884 9.00229 13.7467C8.58717 15.9101 8.48084 18.2961 8.40486 20.5553C8.39713 20.7852 8.38971 21.0136 8.38234 21.2404C8.32739 22.9321 8.27547 24.5301 8.1199 25.9595H6.75C6.19771 25.9595 5.75 26.4072 5.75 26.9595C5.75 27.5118 6.19771 27.9595 6.75 27.9595H8.84158L26.1076 10.6936C25.6878 9.69848 25.1363 8.785 24.4047 8.01049C23.5094 7.06268 22.3853 6.36537 20.9995 5.96506C20.9927 5.58721 20.9154 5.21383 20.7716 4.86438C20.6209 4.49796 20.3999 4.16502 20.1213 3.88458C19.8427 3.60413 19.512 3.38167 19.148 3.22989C18.7841 3.07812 18.394 3 18 3C17.606 3 17.2159 3.07812 16.8519 3.22989C16.488 3.38167 16.1573 3.60413 15.8787 3.88458C15.6001 4.16502 15.3791 4.49796 15.2284 4.86438C15.0846 5.21383 15.0073 5.58721 15.0005 5.96506ZM26.7993 12.8302L11.67 27.9595H29.25C29.8023 27.9595 30.25 27.5118 30.25 26.9595C30.25 26.4072 29.8023 25.9595 29.25 25.9595H27.8801C27.7245 24.5301 27.6726 22.9321 27.6177 21.2403C27.6103 21.0136 27.6029 20.7852 27.5951 20.5553C27.5192 18.2961 27.4128 15.9101 26.9977 13.7467C26.9386 13.4388 26.8728 13.1328 26.7993 12.8302ZM13.7563 29.9797C14.3741 31.7392 16.041 32.9998 18.0003 32.9998C19.9596 32.9998 21.6265 31.7392 22.2442 29.9797H13.7563Z" fill="white"/>
<path fill-rule="evenodd" clip-rule="evenodd" d="M31.163 4.29289C31.5535 4.68342 31.5535 5.31658 31.163 5.70711L5.70711 31.163C5.31658 31.5535 4.68342 31.5535 4.29289 31.163C3.90237 30.7724 3.90237 30.1393 4.29289 29.7487L29.7487 4.29289C30.1393 3.90237 30.7724 3.90237 31.163 4.29289Z" fill="white"/>
</svg>
