<svg width="36" height="36" viewBox="0 0 36 36" fill="none" xmlns="http://www.w3.org/2000/svg">
<path d="M22.2441 29.9795C21.6264 31.7389 19.9601 32.9998 18.001 33C16.0416 33 14.3746 31.739 13.7568 29.9795H22.2441Z" fill="white"/>
<path d="M18 3C18.394 3 18.7845 3.07772 19.1484 3.22949C19.5123 3.38126 19.8426 3.60438 20.1211 3.88477C20.3996 4.16517 20.6207 4.4979 20.7715 4.86426C20.9152 5.21364 20.9922 5.58706 20.999 5.96484C22.3848 6.36514 23.509 7.06297 24.4043 8.01074C25.8409 9.53171 26.5839 11.5887 26.998 13.7471C27.4131 15.9102 27.5188 18.2966 27.5947 20.5557C27.6025 20.7854 27.6098 21.0137 27.6172 21.2402C27.6721 22.9318 27.7243 24.5297 27.8799 25.959H29.25C29.8021 25.959 30.2498 26.4069 30.25 26.959C30.25 27.5113 29.8023 27.959 29.25 27.959H6.75C6.19772 27.959 5.75 27.5113 5.75 26.959C5.75022 26.4069 6.19785 25.959 6.75 25.959H8.12012C8.27565 24.5297 8.32786 22.9318 8.38281 21.2402C8.39017 21.0137 8.39755 20.7854 8.40527 20.5557C8.48124 18.2966 8.5869 15.9102 9.00195 13.7471C9.41613 11.5887 10.1591 9.53171 11.5957 8.01074C12.491 7.06297 13.6152 6.36514 15.001 5.96484C15.0078 5.58706 15.0848 5.21364 15.2285 4.86426C15.3793 4.4979 15.6004 4.16517 15.8789 3.88477C16.1574 3.60438 16.4877 3.38126 16.8516 3.22949C17.2155 3.07772 17.606 3 18 3Z" fill="white"/>
</svg>
