<svg width="36" height="36" viewBox="0 0 36 36" fill="none" xmlns="http://www.w3.org/2000/svg">
<path fill-rule="evenodd" clip-rule="evenodd" d="M26.5 18C31.1944 18 35 14.1944 35 9.5C35 4.80558 31.1944 1 26.5 1C21.8056 1 18 4.80558 18 9.5C18 14.1944 21.8056 18 26.5 18ZM23.7521 5.69127C23.4592 5.39837 22.9843 5.39837 22.6914 5.69127C22.3985 5.98416 22.3985 6.45903 22.6914 6.75193L25.4395 9.5L22.6914 12.2481C22.3985 12.541 22.3985 13.0158 22.6914 13.3087C22.9843 13.6016 23.4592 13.6016 23.7521 13.3087L26.5002 10.5607L29.2482 13.3087C29.5411 13.6016 30.016 13.6016 30.3089 13.3087C30.6018 13.0158 30.6018 12.541 30.3089 12.2481L27.5608 9.5L30.3089 6.75193C30.6018 6.45903 30.6018 5.98416 30.3089 5.69127C30.016 5.39837 29.5411 5.39837 29.2482 5.69127L26.5002 8.43934L23.7521 5.69127Z" fill="white"/>
<path fill-rule="evenodd" clip-rule="evenodd" d="M18.8066 3.11121C18.5445 3.03757 18.2732 3 18 3C17.606 3 17.2159 3.07812 16.8519 3.22989C16.488 3.38167 16.1573 3.60413 15.8787 3.88458C15.6001 4.16502 15.3791 4.49796 15.2284 4.86438C15.0846 5.21383 15.0073 5.58721 15.0005 5.96506C13.6147 6.36537 12.4906 7.06268 11.5953 8.01049C10.1587 9.53147 9.41647 11.5884 9.00229 13.7467C8.58717 15.9101 8.48084 18.2961 8.40486 20.5553C8.39713 20.7852 8.38971 21.0136 8.38235 21.2404C8.32739 22.9321 8.27547 24.5301 8.1199 25.9595H6.75C6.19772 25.9595 5.75 26.4072 5.75 26.9595C5.75 27.5118 6.19772 27.9595 6.75 27.9595H29.25C29.8023 27.9595 30.25 27.5118 30.25 26.9595C30.25 26.4072 29.8023 25.9595 29.25 25.9595H27.8801C27.7245 24.5301 27.6726 22.9321 27.6177 21.2403C27.6103 21.0136 27.6029 20.7852 27.5951 20.5553C27.5828 20.1881 27.5696 19.8175 27.5545 19.4451C27.208 19.4814 26.8562 19.5 26.5 19.5C26.1807 19.5 25.8648 19.485 25.5531 19.4558C25.5692 19.843 25.5831 20.2323 25.5963 20.6225C25.604 20.8532 25.6115 21.0844 25.619 21.3158C25.6701 22.9016 25.7216 24.4951 25.8694 25.9595H10.1306C10.2784 24.4951 10.3299 22.9016 10.381 21.3158C10.3885 21.0847 10.396 20.8529 10.4037 20.6225C10.4801 18.3516 10.5847 16.113 10.9665 14.1237C11.3492 12.1293 11.9898 10.5055 13.0492 9.38383C13.8717 8.51309 15.0129 7.87549 16.6696 7.6565C16.9877 5.94929 17.7396 4.39463 18.8066 3.11121ZM18.0003 32.9998C16.041 32.9998 14.3741 31.7392 13.7563 29.9797H22.2442C21.6265 31.7392 19.9596 32.9998 18.0003 32.9998Z" fill="white"/>
</svg>
