<svg width="36" height="36" viewBox="0 0 36 36" fill="none" xmlns="http://www.w3.org/2000/svg">
<path fill-rule="evenodd" clip-rule="evenodd" d="M15.0005 5.96508C13.6147 6.36539 12.4906 7.06271 11.5953 8.01053C10.1587 9.53151 9.41647 11.5884 9.00229 13.7468C8.58717 15.9101 8.48084 18.2962 8.40486 20.5554C8.39713 20.7854 8.38971 21.0138 8.38235 21.2405C8.32739 22.9322 8.27547 24.5303 8.1199 25.9597H6.75C6.19772 25.9597 5.75 26.4074 5.75 26.9597C5.75 27.512 6.19772 27.9597 6.75 27.9597H29.25C29.8023 27.9597 30.25 27.512 30.25 26.9597C30.25 26.4074 29.8023 25.9597 29.25 25.9597H27.8801C27.7245 24.5303 27.6726 22.9322 27.6177 21.2404C27.6103 21.0137 27.6029 20.7853 27.5951 20.5554C27.5192 18.2962 27.4128 15.9101 26.9977 13.7468C26.5835 11.5884 25.8413 9.53151 24.4047 8.01053C23.5094 7.06271 22.3853 6.36539 20.9995 5.96508C20.9927 5.58722 20.9154 5.21384 20.7716 4.86439C20.6209 4.49797 20.3999 4.16503 20.1213 3.88458C19.8427 3.60414 19.512 3.38167 19.1481 3.2299C18.7841 3.07812 18.394 3 18 3C17.606 3 17.2159 3.07812 16.8519 3.2299C16.488 3.38167 16.1573 3.60414 15.8787 3.88458C15.6001 4.16503 15.3791 4.49797 15.2284 4.86439C15.0846 5.21384 15.0073 5.58722 15.0005 5.96508ZM25.8694 25.9597C25.7216 24.4953 25.6701 22.9018 25.619 21.316C25.6115 21.0846 25.604 20.8533 25.5963 20.6227C25.5199 18.3517 25.4153 16.1131 25.0335 14.1237C24.6508 12.1294 24.0102 10.5055 22.9508 9.38387C21.9244 8.29722 20.4015 7.57366 18 7.57366C15.5985 7.57366 14.0756 8.29722 13.0492 9.38387C11.9898 10.5055 11.3492 12.1294 10.9665 14.1237C10.5847 16.1131 10.4801 18.3517 10.4037 20.6227C10.396 20.853 10.3885 21.084 10.3811 21.3151C10.3299 22.9009 10.2784 24.4952 10.1306 25.9597H25.8694ZM13.7563 29.9798C14.3741 31.7394 16.041 33 18.0003 33C19.9596 33 21.6265 31.7394 22.2442 29.9798H13.7563Z" fill="white"/>
<path d="M11.25 10.75L13.5 8.5L17.25 7L21.75 7.75L24.3572 10.75L26.25 19V27.25H9V19L11.25 10.75Z" fill="white"/>
</svg>
