<svg width="36" height="36" viewBox="0 0 36 36" fill="none" xmlns="http://www.w3.org/2000/svg">
<path fill-rule="evenodd" clip-rule="evenodd" d="M11.5951 8.01049C12.4903 7.06268 13.6145 6.36537 15.0003 5.96506C15.0071 5.58721 15.0844 5.21383 15.2282 4.86438C15.3789 4.49796 15.5999 4.16502 15.8785 3.88458C16.157 3.60413 16.4878 3.38167 16.8517 3.22989C17.2157 3.07812 17.6058 3 17.9998 3C18.3938 3 18.7839 3.07812 19.1478 3.22989C19.5118 3.38167 19.8425 3.60413 20.1211 3.88458C20.3997 4.16502 20.6207 4.49796 20.7714 4.86438C20.9152 5.21383 20.9924 5.58721 20.9993 5.96506C22.3851 6.36537 23.5092 7.06268 24.4045 8.01049C25.1361 8.785 25.6876 9.69848 26.1074 10.6936L24.5548 12.2461C24.1735 11.096 23.6545 10.1291 22.9506 9.38383C21.9242 8.29719 20.4013 7.57363 17.9998 7.57363C15.5983 7.57363 14.0754 8.29719 13.049 9.38383C11.9896 10.5055 11.3489 12.1293 10.9662 14.1237C10.5845 16.113 10.4799 18.3516 10.4035 20.6225C10.3958 20.8529 10.3883 21.0838 10.3809 21.3149C10.3297 22.9007 10.2782 24.4951 10.1304 25.9595H10.8414L8.84137 27.9595H6.74979C6.19751 27.9595 5.74979 27.5118 5.74979 26.9595C5.74979 26.4072 6.19751 25.9595 6.74979 25.9595H8.11969C8.27527 24.5301 8.32718 22.9321 8.38214 21.2404C8.3895 21.0136 8.39692 20.7852 8.40465 20.5553C8.48063 18.2961 8.58696 15.9101 9.00208 13.7467C9.41626 11.5884 10.1584 9.53147 11.5951 8.01049ZM11.6698 27.9595H29.2498C29.8021 27.9595 30.2498 27.5118 30.2498 26.9595C30.2498 26.4072 29.8021 25.9595 29.2498 25.9595H27.8799C27.7243 24.5301 27.6724 22.9321 27.6174 21.2403C27.6101 21.0136 27.6027 20.7852 27.5949 20.5553C27.519 18.2961 27.4126 15.9101 26.9975 13.7467C26.9384 13.4388 26.8726 13.1328 26.7991 12.8302L25.1058 14.5235C25.4289 16.4107 25.5248 18.5025 25.5961 20.6225C25.6038 20.8532 25.6113 21.0844 25.6187 21.3158C25.6699 22.9016 25.7214 24.4951 25.8692 25.9595H13.6698L11.6698 27.9595ZM18.0001 32.9998C16.0408 32.9998 14.3739 31.7392 13.7561 29.9797H22.244C21.6263 31.7392 19.9594 32.9998 18.0001 32.9998Z" fill="white"/>
<path fill-rule="evenodd" clip-rule="evenodd" d="M31.163 4.29289C31.5535 4.68342 31.5535 5.31658 31.163 5.70711L5.70711 31.163C5.31658 31.5535 4.68342 31.5535 4.29289 31.163C3.90237 30.7724 3.90237 30.1393 4.29289 29.7487L29.7487 4.29289C30.1393 3.90237 30.7724 3.90237 31.163 4.29289Z" fill="white"/>
</svg>
