<svg width="36" height="36" viewBox="0 0 36 36" fill="none" xmlns="http://www.w3.org/2000/svg">
<path d="M18 7.80078C19.9778 7.80078 21.6298 9.1931 22.0312 11.0508H32C32.5522 11.0508 32.9999 11.4986 33 12.0508C33 12.6031 32.5523 13.0508 32 13.0508H24.8691C27.0823 14.6747 28.6983 17.0622 29.3301 19.8262C31.394 20.0527 32.9999 21.8015 33 23.9258C33 26.204 31.1532 28.0508 28.875 28.0508C26.5968 28.0508 24.75 26.204 24.75 23.9258C24.7501 22.1911 25.8212 20.7072 27.3379 20.0977C26.6323 17.2587 24.6679 14.9177 22.0703 13.7031L21.7812 13.5742C21.145 15.0318 19.692 16.0508 18 16.0508C16.3004 16.0508 14.8417 15.0228 14.21 13.5547C14.2127 13.5611 14.215 13.5679 14.2178 13.5742C11.4778 14.7469 9.39245 17.1545 8.66113 20.0977C10.1783 20.707 11.2499 22.1908 11.25 23.9258C11.25 26.204 9.40317 28.0508 7.125 28.0508C4.84683 28.0508 3 26.204 3 23.9258C3.00012 21.8019 4.60546 20.0531 6.66895 19.8262C7.30062 17.0624 8.91707 14.6748 11.1299 13.0508H4C3.44772 13.0508 3 12.6031 3 12.0508C3.00013 11.4986 3.4478 11.0508 4 11.0508H13.9688C14.3702 9.1931 16.0222 7.80078 18 7.80078Z" fill="white"/>
</svg>
