<svg width="36" height="36" viewBox="0 0 36 36" fill="none" xmlns="http://www.w3.org/2000/svg">
<path d="M22.125 10.5C23.5747 10.5 24.75 9.32475 24.75 7.875C24.75 6.42525 23.5747 5.25 22.125 5.25C20.6753 5.25 19.5 6.42525 19.5 7.875C19.5 9.32475 20.6753 10.5 22.125 10.5Z" fill="white"/>
<path d="M19.2274 13.7971C20.7375 15.3376 22.9245 16.875 25.875 16.875C26.4963 16.875 27 16.3713 27 15.75C27 15.1287 26.4963 14.625 25.875 14.625C23.3531 14.625 21.4869 13.0589 20.1287 11.4424C20.063 11.3643 19.9988 11.2863 19.936 11.2088C18.9688 10.014 17.1199 9.78909 15.9524 10.9566L13.0999 13.8091C12.0187 14.8904 12.0867 16.6632 13.2477 17.6583L16.744 20.6552C16.8272 20.7264 16.875 20.8304 16.875 20.9399V26.25C16.875 26.8713 17.3787 27.375 18 27.375C18.6213 27.375 19.125 26.8713 19.125 26.25V20.9399C19.125 20.1736 18.7901 19.4456 18.2083 18.9469L15.9841 17.0404L19.2274 13.7971Z" fill="white"/>
<path fill-rule="evenodd" clip-rule="evenodd" d="M9 18.75C5.68629 18.75 3 21.4363 3 24.75C3 28.0637 5.68629 30.75 9 30.75C12.3137 30.75 15 28.0637 15 24.75C15 21.4363 12.3137 18.75 9 18.75ZM5.25 24.75C5.25 22.6789 6.92893 21 9 21C11.0711 21 12.75 22.6789 12.75 24.75C12.75 26.8211 11.0711 28.5 9 28.5C6.92893 28.5 5.25 26.8211 5.25 24.75Z" fill="white"/>
<path fill-rule="evenodd" clip-rule="evenodd" d="M27 18.75C23.6863 18.75 21 21.4363 21 24.75C21 28.0637 23.6863 30.75 27 30.75C30.3137 30.75 33 28.0637 33 24.75C33 21.4363 30.3137 18.75 27 18.75ZM23.25 24.75C23.25 22.6789 24.9289 21 27 21C29.0711 21 30.75 22.6789 30.75 24.75C30.75 26.8211 29.0711 28.5 27 28.5C24.9289 28.5 23.25 26.8211 23.25 24.75Z" fill="white"/>
</svg>
