<svg width="36" height="36" viewBox="0 0 36 36" fill="none" xmlns="http://www.w3.org/2000/svg">
<path fill-rule="evenodd" clip-rule="evenodd" d="M32.1148 4.5C32.578 4.50023 32.931 4.91615 32.8551 5.37305L28.6051 30.873L28.5709 31.0039C28.4657 31.2969 28.1855 31.4998 27.8648 31.5H8.13632L8.00156 31.4883C7.69513 31.4327 7.44887 31.1895 7.39609 30.873L3.14609 5.37305C3.07482 4.94458 3.38016 4.55228 3.80039 4.50488L3.88632 4.5H32.1148ZM9.19492 29.5H26.8062L29.3902 14H23.7506L22.5826 23.3428C22.5357 23.718 22.2165 23.9998 21.8385 24H14.1627L14.024 23.9873C13.7542 23.9367 13.5327 23.7409 13.4488 23.4795L13.4186 23.3428L12.1061 12.8428C12.0537 12.4231 12.3573 12.0498 12.7672 12.0049L12.8502 12H29.7232L30.6402 6.5H5.36093L9.19492 29.5ZM15.2662 22H20.735L21.735 14H14.2662L15.2662 22Z" fill="white"/>
</svg>
