<svg width="36" height="36" viewBox="0 0 36 36" fill="none" xmlns="http://www.w3.org/2000/svg">
<path fill-rule="evenodd" clip-rule="evenodd" d="M18.875 3.01521C18.6066 2.99969 18.3188 2.99985 17.9955 3.00004L13.0779 3.00008C12.0678 3.00007 11.2417 3.00006 10.5704 3.05491C9.87551 3.11168 9.24791 3.23279 8.6618 3.53143C7.74451 3.99881 6.99873 4.74459 6.53134 5.66188C6.23271 6.24799 6.1116 6.87559 6.05483 7.57048C5.99998 8.24182 5.99999 9.06788 6 10.0779V25.9222C5.99999 26.9323 5.99998 27.7583 6.05483 28.4297C6.1116 29.1246 6.23271 29.7522 6.53134 30.3383C6.99873 31.2556 7.74451 32.0014 8.6618 32.4687C9.24791 32.7674 9.87551 32.8885 10.5704 32.9453C11.2417 33.0001 12.0678 33.0001 13.0778 33.0001H18.9005C17.4039 31.252 16.5 28.9816 16.5 26.5C16.5 20.9772 20.9772 16.5 26.5 16.5C27.7313 16.5 28.9107 16.7225 30 17.1296L30 15.0046C30.0002 14.6814 30.0004 14.3935 29.9849 14.1251H24.6337C23.8287 14.1251 23.1644 14.1251 22.6232 14.0809C22.0611 14.035 21.5444 13.9364 21.059 13.6891C20.3064 13.3056 19.6945 12.6937 19.311 11.9411C19.0637 11.4557 18.9651 10.939 18.9192 10.3769C18.875 9.83572 18.875 9.17136 18.875 8.36639V3.01521ZM20.875 8.32509V3.66343C21.256 3.91422 21.587 4.24553 21.9995 4.65857L28.3415 11.0005C28.7545 11.4131 29.0859 11.744 29.3367 12.1251H24.675C23.8184 12.1251 23.2361 12.1243 22.786 12.0875C22.3476 12.0517 22.1234 11.9868 21.967 11.9071C21.5907 11.7154 21.2847 11.4094 21.093 11.0331C21.0133 10.8767 20.9484 10.6525 20.9126 10.2141C20.8758 9.76397 20.875 9.18167 20.875 8.32509Z" fill="white"/>
<path fill-rule="evenodd" clip-rule="evenodd" d="M26.5 35C31.1944 35 35 31.1944 35 26.5C35 21.8056 31.1944 18 26.5 18C21.8056 18 18 21.8056 18 26.5C18 31.1944 21.8056 35 26.5 35ZM27.2501 21.8636C27.2501 21.4494 26.9143 21.1136 26.5001 21.1136C26.0859 21.1136 25.7501 21.4494 25.7501 21.8636V25.75H21.8638C21.4496 25.75 21.1138 26.0858 21.1138 26.5C21.1138 26.9142 21.4496 27.25 21.8638 27.25H25.7501V31.1364C25.7501 31.5506 26.0859 31.8864 26.5001 31.8864C26.9143 31.8864 27.2501 31.5506 27.2501 31.1364V27.25H31.1365C31.5507 27.25 31.8865 26.9142 31.8865 26.5C31.8865 26.0858 31.5507 25.75 31.1365 25.75H27.2501V21.8636Z" fill="white"/>
</svg>
