<svg width="36" height="36" viewBox="0 0 36 36" fill="none" xmlns="http://www.w3.org/2000/svg">
<path d="M11.1289 23.4053C11.8775 23.4053 12.0781 23.6878 12.0781 24.2832C12.0781 24.8862 11.8428 25.1836 11.1357 25.1836C10.9417 25.1836 10.8238 25.176 10.6367 25.1612V23.4268C10.8169 23.4045 10.9418 23.4053 11.1289 23.4053Z" fill="white"/>
<path d="M15.584 23.4053C16.3325 23.4053 16.5332 23.6878 16.5332 24.2832C16.5332 24.8862 16.2978 25.1836 15.5908 25.1836C15.3968 25.1836 15.2789 25.176 15.0918 25.1612V23.4268C15.272 23.4045 15.3969 23.4053 15.584 23.4053Z" fill="white"/>
<path fill-rule="evenodd" clip-rule="evenodd" d="M17.9951 3.00003C18.3184 2.99984 18.6066 3.00013 18.875 3.01565V8.32522C18.875 9.14863 18.874 9.82663 18.9189 10.377C18.9649 10.939 19.0633 11.4562 19.3105 11.9414C19.694 12.6939 20.3061 13.306 21.0586 13.6895C21.5439 13.9368 22.061 14.0352 22.623 14.0811C23.1734 14.126 23.8513 14.125 24.6748 14.125H29.9844C29.9999 14.3934 30.0002 14.6816 30 15.0049V25.9219C30 26.9319 30.0002 27.7584 29.9453 28.4297C29.8886 29.1244 29.7672 29.7519 29.4688 30.3379C29.0014 31.2552 28.2552 32.0014 27.3379 32.4688C26.7519 32.7673 26.1245 32.8886 25.4297 32.9453C24.7584 33.0002 23.9319 33 22.9219 33H13.0781C12.0681 33 11.2417 33.0002 10.5703 32.9453C9.87556 32.8886 9.24812 32.7673 8.66211 32.4688C7.74484 32.0014 6.99863 31.2552 6.53125 30.3379C6.23277 29.7519 6.11145 29.1244 6.05469 28.4297C5.99985 27.7584 5.99999 26.9319 6 25.9219V10.0782C5.99999 9.06812 5.99984 8.24167 6.05469 7.57034C6.11146 6.87562 6.23273 6.24813 6.53125 5.66214C6.99864 4.74487 7.74483 3.99865 8.66211 3.53128C9.24811 3.23278 9.87558 3.11148 10.5703 3.05472C11.2417 2.99987 12.0681 3.00002 13.0781 3.00003H17.9951ZM18.0723 23.5283H19.4355V27.6504H20.5361V23.5283H21.8994V22.4004H18.0723V23.5283ZM23.5195 25.128L22.1426 27.6504H23.4111L24.3359 26.0078L25.3076 27.6504H26.6104L25.1797 25.1035L26.5361 22.4004H25.2744L24.3828 24.2725L23.5264 22.4004H22.2432L23.5195 25.128ZM11.1494 22.4004C10.4357 22.4004 10.103 22.4224 9.5 22.4522V27.6475H10.6367V26.166C10.8169 26.1809 10.9556 26.1885 11.1357 26.1885C12.6052 26.1885 13.25 25.5709 13.25 24.2237C13.25 22.8988 12.6813 22.4004 11.1494 22.4004ZM15.6045 22.4004C14.8907 22.4004 14.558 22.4224 13.9551 22.4522V27.6475H15.0918V26.166C15.272 26.1809 15.4106 26.1885 15.5908 26.1885C17.0603 26.1885 17.7051 25.5709 17.7051 24.2237C17.705 22.8988 17.1363 22.4004 15.6045 22.4004Z" fill="white"/>
<path d="M20.875 3.66507C21.2557 3.91578 21.5877 4.24548 22 4.65823C22.0252 4.68347 22.0503 4.70953 22.0762 4.73538L28.3418 11.001C28.7543 11.4131 29.0843 11.7445 29.335 12.125H24.6748C23.8184 12.125 23.2362 12.1247 22.7861 12.0879C22.3478 12.0521 22.1232 11.9869 21.9668 11.9073C21.5906 11.7155 21.2845 11.4095 21.0928 11.0332C21.0131 10.8768 20.9479 10.6522 20.9121 10.2139C20.8754 9.76388 20.875 9.18151 20.875 8.32522V3.66507Z" fill="white"/>
</svg>
