<svg width="36" height="36" viewBox="0 0 36 36" fill="none" xmlns="http://www.w3.org/2000/svg">
<path fill-rule="evenodd" clip-rule="evenodd" d="M18.875 3.01521C18.6066 2.99969 18.3188 2.99985 17.9955 3.00004L13.0779 3.00008C12.0678 3.00007 11.2417 3.00006 10.5704 3.05491C9.87551 3.11168 9.24791 3.23279 8.6618 3.53143C7.74451 3.99881 6.99873 4.74459 6.53134 5.66188C6.23271 6.24799 6.1116 6.87559 6.05483 7.57048C5.99998 8.24182 5.99999 9.06788 6 10.0779V25.9222C5.99999 26.9323 5.99998 27.7583 6.05483 28.4297C6.1116 29.1246 6.23271 29.7522 6.53134 30.3383C6.99873 31.2556 7.74451 32.0014 8.6618 32.4687C9.24791 32.7674 9.87551 32.8885 10.5704 32.9453C11.2417 33.0001 12.0678 33.0001 13.0778 33.0001H22.9222C23.9322 33.0001 24.7583 33.0001 25.4296 32.9453C26.1245 32.8885 26.7521 32.7674 27.3382 32.4687C28.2555 32.0014 29.0013 31.2556 29.4687 30.3383C29.7673 29.7522 29.8884 29.1246 29.9452 28.4297C30 27.7584 30 26.9324 30 25.9224L30 15.0046C30.0002 14.6814 30.0004 14.3935 29.9849 14.1251H24.6337C23.8287 14.1251 23.1644 14.1251 22.6232 14.0809C22.0611 14.035 21.5444 13.9364 21.059 13.6891C20.3064 13.3056 19.6945 12.6937 19.311 11.9411C19.0637 11.4557 18.9651 10.939 18.9192 10.3769C18.875 9.83572 18.875 9.17136 18.875 8.36639V3.01521ZM22.5296 25.5813C23.0257 25.7508 23.4394 25.8921 23.4394 26.2893C23.4394 26.6529 23.1769 26.8926 22.5544 26.8926C21.7144 26.8926 21.1519 26.4793 20.8819 26.2231V27.6033C21.2644 27.843 21.9394 28 22.6219 28C24.1444 28 24.7819 27.3554 24.7819 26.2397C24.7819 24.9037 23.8078 24.5871 23.0346 24.3357C22.526 24.1704 22.1044 24.0333 22.1044 23.6529C22.1044 23.3471 22.2919 23.1074 23.0044 23.1074C23.5669 23.1074 24.1369 23.3306 24.5119 23.6116V22.281C24.1519 22.1157 23.5744 22 22.9069 22C21.4069 22 20.8594 22.6364 20.8594 23.6777C20.8594 25.0106 21.7868 25.3275 22.5296 25.5813ZM16.9277 27.8925V22.1073H18.1577V26.6528H20.4677V27.8925H16.9277ZM12.78 24.9255L11.25 27.8925H12.66L13.6875 25.8346L14.7675 27.8925H16.215L14.625 24.9007L16.1325 22.1073H14.73L13.74 24.0412L12.7875 22.1073H11.3625L12.78 24.9255Z" fill="white"/>
<path d="M20.875 8.32509V3.66343C21.256 3.91422 21.587 4.24553 21.9995 4.65857L28.3415 11.0005C28.7545 11.4131 29.0859 11.744 29.3367 12.1251H24.675C23.8184 12.1251 23.2361 12.1243 22.786 12.0875C22.3476 12.0517 22.1234 11.9868 21.967 11.9071C21.5907 11.7154 21.2847 11.4094 21.093 11.0331C21.0133 10.8767 20.9484 10.6525 20.9126 10.2141C20.8758 9.76397 20.875 9.18167 20.875 8.32509Z" fill="white"/>
</svg>
