<svg width="36" height="36" viewBox="0 0 36 36" fill="none" xmlns="http://www.w3.org/2000/svg">
<path d="M16.5405 25.1324C16.743 25.1489 16.8705 25.1572 17.0805 25.1572C17.8455 25.1572 18.1005 24.8266 18.1005 24.1572C18.1005 23.496 17.883 23.182 17.073 23.182C16.8705 23.182 16.7355 23.182 16.5405 23.2068V25.1324Z" fill="white"/>
<path fill-rule="evenodd" clip-rule="evenodd" d="M18.875 3.01521C18.6066 2.99969 18.3188 2.99985 17.9955 3.00004L13.0779 3.00008C12.0678 3.00007 11.2417 3.00006 10.5704 3.05491C9.87551 3.11168 9.24791 3.23279 8.6618 3.53143C7.74451 3.99881 6.99873 4.74459 6.53134 5.66188C6.23271 6.24799 6.1116 6.87559 6.05483 7.57048C5.99998 8.24182 5.99999 9.06788 6 10.0779V25.9222C5.99999 26.9323 5.99998 27.7583 6.05483 28.4297C6.1116 29.1246 6.23271 29.7522 6.53134 30.3383C6.99873 31.2556 7.74451 32.0014 8.6618 32.4687C9.24791 32.7674 9.87551 32.8885 10.5704 32.9453C11.2417 33.0001 12.0678 33.0001 13.0778 33.0001H22.9222C23.9322 33.0001 24.7583 33.0001 25.4296 32.9453C26.1245 32.8885 26.7521 32.7674 27.3382 32.4687C28.2555 32.0014 29.0013 31.2556 29.4687 30.3383C29.7673 29.7522 29.8884 29.1246 29.9452 28.4297C30 27.7584 30 26.9324 30 25.9224L30 15.0046C30.0002 14.6814 30.0004 14.3935 29.9849 14.1251H24.6337C23.8287 14.1251 23.1644 14.1251 22.6232 14.0809C22.0611 14.035 21.5444 13.9364 21.059 13.6891C20.3064 13.3056 19.6945 12.6937 19.311 11.9411C19.0637 11.4557 18.9651 10.939 18.9192 10.3769C18.875 9.83572 18.875 9.17136 18.875 8.36639V3.01521ZM22.4768 24.6281V25.719H23.4293V26.7273C23.2493 26.7769 23.0243 26.8347 22.6868 26.8347C21.6593 26.8347 21.1943 26.3223 21.1943 24.9752C21.1943 23.686 21.6293 23.1653 22.7918 23.1653C23.3393 23.1653 23.7893 23.3141 24.1493 23.5537V22.2562C23.9093 22.1405 23.4443 22 22.7093 22C20.7143 22 19.9268 22.9669 19.9268 25.0496C19.9268 27.1074 20.7593 28 22.5893 28C23.4743 28 24.1718 27.7521 24.5018 27.562V24.6281H22.4768ZM15.3105 27.8927V22.1241L15.5532 22.1116C16.0643 22.085 16.4241 22.0663 17.0955 22.0663C18.753 22.0663 19.368 22.62 19.368 24.0911C19.368 25.5869 18.6705 26.2729 17.0805 26.2729C16.8855 26.2729 16.7355 26.2646 16.5405 26.2481V27.8927H15.3105ZM12.865 22.1073V25.9502C12.865 26.6114 12.685 26.7767 12.235 26.7767C11.9425 26.7767 11.635 26.6527 11.5 26.5288V27.8263C11.7325 27.9007 11.995 27.9585 12.4225 27.9585C13.66 27.9585 14.095 27.4379 14.095 26.1238V22.1073H12.865Z" fill="white"/>
<path d="M20.875 8.32509V3.66343C21.256 3.91422 21.587 4.24553 21.9995 4.65857L28.3415 11.0005C28.7545 11.4131 29.0859 11.744 29.3367 12.1251H24.675C23.8184 12.1251 23.2361 12.1243 22.786 12.0875C22.3476 12.0517 22.1234 11.9868 21.967 11.9071C21.5907 11.7154 21.2847 11.4094 21.093 11.0331C21.0133 10.8767 20.9484 10.6525 20.9126 10.2141C20.8758 9.76397 20.875 9.18167 20.875 8.32509Z" fill="white"/>
</svg>
