<svg width="36" height="36" viewBox="0 0 36 36" fill="none" xmlns="http://www.w3.org/2000/svg">
<path fill-rule="evenodd" clip-rule="evenodd" d="M12.9575 3C11.9435 2.99999 11.1218 2.99998 10.4556 3.05441C9.76841 3.11056 9.1591 3.22956 8.59355 3.51772C7.69978 3.97312 6.97312 4.69978 6.51772 5.59355C6.22956 6.1591 6.11056 6.76842 6.05441 7.45558C5.99998 8.12178 5.99999 8.94348 6 9.9575V26.0425C5.99999 27.0565 5.99998 27.8782 6.05441 28.5444C6.11056 29.2316 6.22956 29.8409 6.51772 30.4065C6.97312 31.3002 7.69978 32.0269 8.59355 32.4823C9.1591 32.7704 9.76841 32.8894 10.4556 32.9456C11.1218 33 11.9435 33 12.9575 33H18.9004C18.38 32.3921 17.9313 31.7211 17.5673 31H13C11.9334 31 11.1936 30.9992 10.6184 30.9522C10.055 30.9062 9.73814 30.8208 9.50153 30.7003C8.98408 30.4366 8.56338 30.0159 8.29973 29.4985C8.17917 29.2619 8.09381 28.945 8.04777 28.3816C8.00078 27.8064 8 27.0666 8 26V10C8 8.9334 8.00078 8.19359 8.04777 7.61844C8.09381 7.05496 8.17917 6.73814 8.29973 6.50153C8.56338 5.98408 8.98408 5.56338 9.50153 5.29973C9.73814 5.17917 10.055 5.09381 10.6184 5.04777C11.1936 5.00078 11.9334 5 13 5H18.8966V8.32236C18.8965 9.12734 18.8965 9.79171 18.9407 10.3329C18.9867 10.895 19.0852 11.4117 19.3325 11.897C19.716 12.6497 20.3279 13.2616 21.0806 13.6451C21.5659 13.8924 22.0826 13.991 22.6447 14.0369C23.1859 14.0811 23.8503 14.0811 24.6553 14.0811H28V16.6118C28.6925 16.7159 29.3617 16.8911 30 17.1296V13.0811C30 12.8154 29.8943 12.5607 29.7062 12.3731L20.6028 3.29202C20.4153 3.10502 20.1613 3 19.8966 3H12.9575ZM26.5816 12.0811L20.8966 6.41002V8.28108C20.8966 9.13766 20.8973 9.71996 20.9341 10.17C20.9699 10.6085 21.0348 10.8327 21.1145 10.9891C21.3063 11.3654 21.6122 11.6713 21.9886 11.8631C22.145 11.9428 22.3692 12.0077 22.8076 12.0435C23.2577 12.0803 23.84 12.0811 24.6966 12.0811H26.5816Z" fill="white"/>
<path fill-rule="evenodd" clip-rule="evenodd" d="M26.5 35C31.1944 35 35 31.1944 35 26.5C35 21.8056 31.1944 18 26.5 18C21.8056 18 18 21.8056 18 26.5C18 31.1944 21.8056 35 26.5 35ZM31.8343 24.9432C32.0415 24.5845 31.9185 24.1258 31.5598 23.9187C31.2011 23.7116 30.7424 23.8345 30.5353 24.1932C30.2131 24.7512 29.7796 25.2347 29.2638 25.6147C29.125 25.717 28.9802 25.8118 28.83 25.8985C28.1217 26.3074 27.3183 26.5227 26.5004 26.5227C25.6826 26.5227 24.8791 26.3074 24.1709 25.8985C24.0207 25.8118 23.8759 25.717 23.737 25.6147C23.2212 25.2347 22.7877 24.7512 22.4655 24.1932C22.2584 23.8345 21.7997 23.7116 21.441 23.9187C21.0823 24.1258 20.9594 24.5845 21.1665 24.9432C21.447 25.4291 21.7913 25.8722 22.1885 26.2616L20.935 27.5151C20.6421 27.808 20.6421 28.2829 20.935 28.5758C21.2279 28.8687 21.7028 28.8687 21.9957 28.5758L23.3911 27.1803L23.4209 27.1976C24.1394 27.6124 24.932 27.8765 25.7504 27.9769V29.5909C25.7504 30.0051 26.0862 30.3409 26.5004 30.3409C26.9146 30.3409 27.2504 30.0051 27.2504 29.5909V27.9769C28.0689 27.8765 28.8614 27.6124 29.58 27.1976L29.6097 27.1803L31.0052 28.5758C31.2981 28.8687 31.773 28.8687 32.0659 28.5758C32.3588 28.2829 32.3588 27.808 32.0659 27.5151L30.8123 26.2616C31.2095 25.8722 31.5538 25.4291 31.8343 24.9432Z" fill="white"/>
</svg>
