<svg width="36" height="36" viewBox="0 0 36 36" fill="none" xmlns="http://www.w3.org/2000/svg">
<path fill-rule="evenodd" clip-rule="evenodd" d="M18.875 3.01521C18.6066 2.99969 18.3188 2.99985 17.9955 3.00004L13.0779 3.00008C12.0678 3.00007 11.2417 3.00006 10.5704 3.05491C9.87551 3.11168 9.24791 3.23279 8.6618 3.53143C7.74451 3.99881 6.99873 4.74459 6.53134 5.66188C6.23271 6.24799 6.1116 6.87559 6.05483 7.57048C5.99998 8.24182 5.99999 9.06788 6 10.0779V25.9222C5.99999 26.9323 5.99998 27.7583 6.05483 28.4297C6.1116 29.1246 6.23271 29.7522 6.53134 30.3383C6.99873 31.2556 7.74451 32.0014 8.6618 32.4687C9.24791 32.7674 9.87551 32.8885 10.5704 32.9453C11.2417 33.0001 12.0678 33.0001 13.0778 33.0001H22.9222C23.9322 33.0001 24.7583 33.0001 25.4296 32.9453C26.1245 32.8885 26.7521 32.7674 27.3382 32.4687C28.2555 32.0014 29.0013 31.2556 29.4687 30.3383C29.7673 29.7522 29.8884 29.1246 29.9452 28.4297C30 27.7584 30 26.9324 30 25.9224L30 15.0046C30.0002 14.6814 30.0004 14.3935 29.9849 14.1251H24.6337C23.8287 14.1251 23.1644 14.1251 22.6232 14.0809C22.0611 14.035 21.5444 13.9364 21.059 13.6891C20.3064 13.3056 19.6945 12.6937 19.311 11.9411C19.0637 11.4557 18.9651 10.939 18.9192 10.3769C18.875 9.83572 18.875 9.17136 18.875 8.36639V3.01521ZM20.875 8.32509V3.66343C21.256 3.91422 21.587 4.24553 21.9995 4.65857L28.3415 11.0005C28.7545 11.4131 29.0859 11.744 29.3367 12.1251H24.675C23.8184 12.1251 23.2361 12.1243 22.786 12.0875C22.3476 12.0517 22.1234 11.9868 21.967 11.9071C21.5907 11.7154 21.2847 11.4094 21.093 11.0331C21.0133 10.8767 20.9484 10.6525 20.9126 10.2141C20.8758 9.76397 20.875 9.18167 20.875 8.32509ZM23.509 24.6281V25.719H24.4615V26.7273C24.2815 26.7769 24.0565 26.8347 23.719 26.8347C22.6915 26.8347 22.2265 26.3223 22.2265 24.9752C22.2265 23.686 22.6615 23.1653 23.824 23.1653C24.3715 23.1653 24.8215 23.3141 25.1815 23.5537V22.2562C24.9415 22.1405 24.4765 22 23.7415 22C21.7465 22 20.959 22.9669 20.959 25.0496C20.959 27.1074 21.7915 28 23.6215 28C24.5065 28 25.204 27.7521 25.534 27.562V24.6281H23.509ZM15.4199 27.8924V22.1073H16.7474L18.4799 25.1321C18.5918 25.3316 18.6885 25.5395 18.7808 25.738C18.8185 25.819 18.8555 25.8984 18.8924 25.975C18.8699 25.6858 18.8549 25.3635 18.8549 25.0412V22.1073H20.0549V27.8924H18.7724L17.0249 24.8345C16.9114 24.644 16.8019 24.4063 16.6962 24.177C16.6552 24.0881 16.6147 24.0003 16.5749 23.9172C16.578 23.9762 16.5814 24.0367 16.5848 24.0981C16.5982 24.3377 16.6124 24.5929 16.6124 24.8428V27.8924H15.4199ZM10.4932 22.1241V27.8927H11.7232V26.2481C11.9182 26.2646 12.0682 26.2729 12.2632 26.2729C13.8532 26.2729 14.5507 25.5869 14.5507 24.0911C14.5507 22.62 13.9357 22.0663 12.2782 22.0663C11.6067 22.0663 11.2469 22.085 10.7358 22.1116C10.6589 22.1156 10.5785 22.1198 10.4932 22.1241ZM12.2632 25.1572C12.0532 25.1572 11.9257 25.1489 11.7232 25.1324V23.2068C11.9182 23.182 12.0532 23.182 12.2557 23.182C13.0657 23.182 13.2832 23.496 13.2832 24.1572C13.2832 24.8266 13.0282 25.1572 12.2632 25.1572Z" fill="white"/>
</svg>
