<svg width="36" height="36" viewBox="0 0 36 36" fill="none" xmlns="http://www.w3.org/2000/svg">
<path fill-rule="evenodd" clip-rule="evenodd" d="M12.9575 3C11.9435 2.99999 11.1218 2.99998 10.4556 3.05441C9.76841 3.11056 9.1591 3.22956 8.59355 3.51772C7.69978 3.97312 6.97312 4.69978 6.51772 5.59355C6.22956 6.1591 6.11056 6.76842 6.05441 7.45558C5.99998 8.12178 5.99999 8.94348 6 9.9575V26.0425C5.99999 27.0565 5.99998 27.8782 6.05441 28.5444C6.11056 29.2316 6.22956 29.8409 6.51772 30.4065C6.97312 31.3002 7.69978 32.0269 8.59355 32.4823C9.1591 32.7704 9.76841 32.8894 10.4556 32.9456C11.1218 33 11.9435 33 12.9575 33H18.9004C18.38 32.3921 17.9313 31.7211 17.5673 31H13C11.9334 31 11.1936 30.9992 10.6184 30.9522C10.055 30.9062 9.73814 30.8208 9.50153 30.7003C8.98408 30.4366 8.56338 30.0159 8.29973 29.4985C8.17917 29.2619 8.09381 28.945 8.04777 28.3816C8.00078 27.8064 8 27.0666 8 26V10C8 8.9334 8.00078 8.19359 8.04777 7.61844C8.09381 7.05496 8.17917 6.73814 8.29973 6.50153C8.56338 5.98408 8.98408 5.56338 9.50153 5.29973C9.73814 5.17917 10.055 5.09381 10.6184 5.04777C11.1936 5.00078 11.9334 5 13 5H18.8966V8.32236C18.8965 9.12734 18.8965 9.79171 18.9407 10.3329C18.9867 10.895 19.0852 11.4117 19.3325 11.897C19.716 12.6497 20.3279 13.2616 21.0806 13.6451C21.5659 13.8924 22.0826 13.991 22.6447 14.0369C23.1859 14.0811 23.8503 14.0811 24.6553 14.0811H28V16.6118C28.6925 16.7159 29.3617 16.8911 30 17.1296V13.0811C30 12.8154 29.8943 12.5607 29.7062 12.3731L20.6028 3.29202C20.4153 3.10502 20.1613 3 19.8966 3H12.9575ZM26.5816 12.0811L20.8966 6.41002V8.28108C20.8966 9.13766 20.8973 9.71996 20.9341 10.17C20.9699 10.6085 21.0348 10.8327 21.1145 10.9891C21.3063 11.3654 21.6122 11.6713 21.9886 11.8631C22.145 11.9428 22.3692 12.0077 22.8076 12.0435C23.2577 12.0803 23.84 12.0811 24.6966 12.0811H26.5816Z" fill="white"/>
<path fill-rule="evenodd" clip-rule="evenodd" d="M26.495 23.3C24.3441 23.3 22.5018 24.5209 21.6535 26.2643C21.6344 26.3035 21.6214 26.3302 21.6106 26.3535C21.6002 26.3757 21.5949 26.3884 21.5917 26.3964C21.5888 26.4039 21.5864 26.4101 21.583 26.4272L21.5824 26.4344C21.5816 26.4471 21.5809 26.4643 21.5809 26.4837C21.5809 26.503 21.5815 26.5202 21.5823 26.5329L21.5829 26.5401C21.5863 26.5573 21.5886 26.5634 21.5916 26.5709C21.5947 26.5789 21.6 26.5916 21.6103 26.6139C21.6211 26.6372 21.634 26.6639 21.653 26.7032C22.4994 28.4513 24.3443 29.6764 26.4989 29.6764C28.6497 29.6764 30.492 28.4555 31.3404 26.7121C31.3594 26.6729 31.3724 26.6462 31.3832 26.6229C31.3936 26.6007 31.3989 26.588 31.4021 26.58C31.405 26.5725 31.4074 26.5663 31.4108 26.5492L31.4114 26.542C31.4122 26.5293 31.4129 26.5121 31.4129 26.4927C31.4129 26.4734 31.4123 26.4562 31.4115 26.4435L31.4109 26.4363C31.4075 26.4191 31.4052 26.413 31.4022 26.4055C31.3991 26.3975 31.3938 26.3848 31.3835 26.3625C31.3727 26.3392 31.3598 26.3125 31.3408 26.2732C30.4944 24.5251 28.6495 23.3 26.495 23.3ZM28.5068 26.3284C28.5068 27.4025 27.6063 28.2732 26.4956 28.2732C25.3848 28.2732 24.4844 27.4025 24.4844 26.3284C24.4844 25.2544 25.3848 24.3837 26.4956 24.3837C27.6063 24.3837 28.5068 25.2544 28.5068 26.3284Z" fill="white"/>
<path fill-rule="evenodd" clip-rule="evenodd" d="M26.4902 34.99C31.1847 34.99 34.9902 31.1844 34.9902 26.49C34.9902 21.7956 31.1847 17.99 26.4902 17.99C21.7958 17.99 17.9902 21.7956 17.9902 26.49C17.9902 31.1844 21.7958 34.99 26.4902 34.99ZM20.3047 25.608C21.4037 23.3494 23.769 21.8 26.495 21.8C29.2256 21.8 31.5944 23.3547 32.6909 25.6196L32.6993 25.637C32.7698 25.7822 32.8448 25.937 32.8882 26.1757C32.9083 26.2865 32.913 26.4062 32.9129 26.4942C32.9128 26.5823 32.9079 26.7019 32.8876 26.8127C32.8437 27.0513 32.7684 27.2059 32.6976 27.351L32.6891 27.3684C31.5902 29.627 29.2248 31.1764 26.4989 31.1764C23.7682 31.1764 21.3995 29.6216 20.3029 27.3568L20.2945 27.3393C20.2241 27.1941 20.149 27.0394 20.1056 26.8007C20.0855 26.6899 20.0808 26.5702 20.0809 26.4822C20.081 26.3941 20.0859 26.2745 20.1063 26.1636C20.1501 25.9251 20.2255 25.7705 20.2962 25.6254L20.3047 25.608Z" fill="white"/>
</svg>
