<svg width="36" height="36" viewBox="0 0 36 36" fill="none" xmlns="http://www.w3.org/2000/svg">
<path d="M16.9945 25.0082C16.9945 26.4423 17.5045 26.8297 18.322 26.8297C19.1395 26.8297 19.582 26.4176 19.582 25.0082C19.582 23.5907 19.1395 23.1703 18.2695 23.1703C17.407 23.1703 16.9945 23.6648 16.9945 25.0082Z" fill="white"/>
<path d="M12.24 26.772C12.0525 26.772 11.91 26.7638 11.73 26.7391V23.2611C11.9325 23.2363 12.105 23.2281 12.33 23.2281C13.425 23.2281 13.8225 23.7226 13.8225 24.9341C13.8225 26.2363 13.365 26.772 12.24 26.772Z" fill="white"/>
<path fill-rule="evenodd" clip-rule="evenodd" d="M18.875 3.01521C18.6066 2.99969 18.3188 2.99985 17.9955 3.00004L13.0779 3.00008C12.0678 3.00007 11.2417 3.00006 10.5704 3.05491C9.87551 3.11168 9.24791 3.23279 8.6618 3.53143C7.74451 3.99881 6.99873 4.74459 6.53134 5.66188C6.23271 6.24799 6.1116 6.87559 6.05483 7.57048C5.99998 8.24182 5.99999 9.06788 6 10.0779V25.9222C5.99999 26.9323 5.99998 27.7583 6.05483 28.4297C6.1116 29.1246 6.23271 29.7522 6.53134 30.3383C6.99873 31.2556 7.74451 32.0014 8.6618 32.4687C9.24791 32.7674 9.87551 32.8885 10.5704 32.9453C11.2417 33.0001 12.0678 33.0001 13.0778 33.0001H22.9222C23.9322 33.0001 24.7583 33.0001 25.4296 32.9453C26.1245 32.8885 26.7521 32.7674 27.3382 32.4687C28.2555 32.0014 29.0013 31.2556 29.4687 30.3383C29.7673 29.7522 29.8884 29.1246 29.9452 28.4297C30 27.7584 30 26.9324 30 25.9224L30 15.0046C30.0002 14.6814 30.0004 14.3935 29.9849 14.1251H24.6337C23.8287 14.1251 23.1644 14.1251 22.6232 14.0809C22.0611 14.035 21.5444 13.9364 21.059 13.6891C20.3064 13.3056 19.6945 12.6937 19.311 11.9411C19.0637 11.4557 18.9651 10.939 18.9192 10.3769C18.875 9.83572 18.875 9.17136 18.875 8.36639V3.01521ZM25.5738 23.6399V22.2635C25.3263 22.1729 24.8538 22.0081 24.1488 22.0081C22.2738 22.0081 21.4863 22.9723 21.4863 25.0493C21.4863 27.0685 22.2588 27.9916 24.1413 27.9916C24.8463 27.9916 25.3638 27.8185 25.6338 27.6784V26.335C25.3713 26.541 24.8913 26.7718 24.2388 26.7718C23.2638 26.7718 22.7913 26.3432 22.7913 24.9751C22.7913 23.6729 23.2338 23.2278 24.1788 23.2278C24.8613 23.2278 25.2663 23.4421 25.5738 23.6399ZM15.6895 25C15.6895 22.9066 16.5295 22 18.2995 22C20.1745 22 20.8795 22.9148 20.8795 25C20.8795 27.1676 19.987 28 18.2995 28C16.6045 28 15.6895 27.1017 15.6895 25ZM10.5 22.1237V27.8682C11.0925 27.9094 11.5275 27.9341 12.18 27.9341C14.205 27.9341 15.09 26.9534 15.09 24.86C15.09 23.0633 14.4525 22.066 12.3075 22.066C11.565 22.066 11.13 22.0825 10.5 22.1237Z" fill="white"/>
<path d="M20.875 8.32509V3.66343C21.256 3.91422 21.587 4.24553 21.9995 4.65857L28.3415 11.0005C28.7545 11.4131 29.0859 11.744 29.3367 12.1251H24.675C23.8184 12.1251 23.2361 12.1243 22.786 12.0875C22.3476 12.0517 22.1234 11.9868 21.967 11.9071C21.5907 11.7154 21.2847 11.4094 21.093 11.0331C21.0133 10.8767 20.9484 10.6525 20.9126 10.2141C20.8758 9.76397 20.875 9.18167 20.875 8.32509Z" fill="white"/>
</svg>
