<svg width="36" height="36" viewBox="0 0 36 36" fill="none" xmlns="http://www.w3.org/2000/svg">
<path d="M12.8652 24.0352L13.6904 22.4004H15.0254L13.6377 24.9502L15.1006 27.6504H13.7051L12.835 25.8877L11.9502 27.6504H10.6006L12.0625 24.9727L10.6748 22.4004H12.04L12.8652 24.0352Z" fill="white"/>
<path d="M18.4219 25.2871L19.5312 22.4004H20.9863V27.6504H19.8613V24.7246C19.8613 24.5748 19.8641 24.4495 19.8691 24.3496C19.8741 24.2497 19.8844 24.1244 19.8994 23.9746H19.8691C19.8441 24.0496 19.8218 24.1177 19.8018 24.1777C19.7818 24.2326 19.7612 24.2898 19.7412 24.3496C19.7262 24.4046 19.7066 24.4625 19.6816 24.5225C19.6617 24.5824 19.6364 24.6497 19.6064 24.7246L18.8867 26.5996H17.9111L17.1914 24.7246C17.1615 24.6498 17.1343 24.5823 17.1094 24.5225C17.0894 24.4625 17.0688 24.4046 17.0488 24.3496C17.0339 24.2898 17.016 24.2326 16.9961 24.1777C16.9761 24.1177 16.9537 24.0496 16.9287 23.9746H16.8994C16.9094 24.1244 16.9169 24.2497 16.9219 24.3496C16.9319 24.4495 16.9365 24.5748 16.9365 24.7246V27.6504H15.8115V22.4004H17.3115L18.4219 25.2871Z" fill="white"/>
<path d="M23.3535 26.5996H25.4082V27.6504H22.1836V22.4004H23.3535V26.5996Z" fill="white"/>
<path fill-rule="evenodd" clip-rule="evenodd" d="M19.8965 3C20.1612 3 20.4151 3.10508 20.6025 3.29199L29.7061 12.373C29.8941 12.5606 30 12.8154 30 13.0811V26C30 27.0334 30.0005 27.8685 29.9453 28.5439C29.8892 29.231 29.7705 29.8408 29.4824 30.4062C29.027 31.3 28.3 32.027 27.4062 32.4824C26.8408 32.7705 26.231 32.8892 25.5439 32.9453C24.8685 33.0005 24.0334 33 23 33H13C11.9666 33 11.1315 33.0005 10.4561 32.9453C9.76898 32.8892 9.15924 32.7705 8.59375 32.4824C7.69998 32.027 6.97298 31.3 6.51758 30.4062C6.2295 29.8408 6.11082 29.231 6.05469 28.5439C5.99954 27.8685 6 27.0334 6 26V10C6 8.96663 5.99954 8.13146 6.05469 7.45605C6.11082 6.76898 6.2295 6.15924 6.51758 5.59375C6.97298 4.69998 7.69998 3.97298 8.59375 3.51758C9.15924 3.2295 9.76898 3.11082 10.4561 3.05469C11.1315 2.99954 11.9666 3 13 3H19.8965ZM13 5C11.9334 5 11.1933 5.00086 10.6182 5.04785C10.0551 5.09388 9.7385 5.17935 9.50195 5.2998C8.98451 5.56346 8.56346 5.98451 8.2998 6.50195C8.17935 6.7385 8.09388 7.05511 8.04785 7.61816C8.00086 8.19332 8 8.9334 8 10V26C8 27.0666 8.00086 27.8067 8.04785 28.3818C8.09388 28.9449 8.17935 29.2615 8.2998 29.498C8.56346 30.0155 8.98451 30.4365 9.50195 30.7002C9.7385 30.8207 10.0551 30.9061 10.6182 30.9521C11.1933 30.9991 11.9334 31 13 31H23C24.0666 31 24.8067 30.9991 25.3818 30.9521C25.9449 30.9061 26.2615 30.8207 26.498 30.7002C27.0155 30.4365 27.4365 30.0155 27.7002 29.498C27.8207 29.2615 27.9061 28.9449 27.9521 28.3818C27.9991 27.8067 28 27.0666 28 26V14.0811H24.6963C23.8728 14.0811 23.1949 14.0821 22.6445 14.0371C22.0827 13.9912 21.5662 13.8926 21.0811 13.6455C20.3286 13.2621 19.7165 12.6499 19.333 11.8975C19.0857 11.4121 18.9864 10.8951 18.9404 10.333C18.8955 9.78262 18.8965 9.10475 18.8965 8.28125V5H13ZM20.8965 8.28125C20.8965 9.13768 20.8978 9.71987 20.9346 10.1699C20.9704 10.6083 21.0346 10.8329 21.1143 10.9893C21.306 11.3655 21.612 11.6715 21.9883 11.8633C22.1447 11.943 22.3692 12.0081 22.8076 12.0439C23.2577 12.0807 23.8399 12.0811 24.6963 12.0811H26.582L20.8965 6.40918V8.28125Z" fill="white"/>
</svg>
