<svg width="36" height="36" viewBox="0 0 36 36" fill="none" xmlns="http://www.w3.org/2000/svg">
<path fill-rule="evenodd" clip-rule="evenodd" d="M17.9951 3.00003C18.3184 2.99984 18.6066 3.00012 18.875 3.01565V8.32522C18.875 9.14863 18.874 9.82663 18.9189 10.377C18.9649 10.939 19.0633 11.4562 19.3105 11.9414C19.694 12.6939 20.3061 13.306 21.0586 13.6895C21.5439 13.9368 22.061 14.0352 22.623 14.0811C23.1734 14.126 23.8513 14.125 24.6748 14.125H29.9844C29.9999 14.3934 30.0002 14.6816 30 15.0049V25.9219C30 26.9319 30.0002 27.7584 29.9453 28.4297C29.8886 29.1244 29.7672 29.7519 29.4688 30.3379C29.0014 31.2552 28.2552 32.0014 27.3379 32.4688C26.7519 32.7673 26.1244 32.8886 25.4297 32.9453C24.7583 33.0002 23.9319 33 22.9219 33H13.0781C12.0681 33 11.2417 33.0002 10.5703 32.9453C9.87556 32.8886 9.24812 32.7673 8.66211 32.4688C7.74484 32.0014 6.99863 31.2552 6.53125 30.3379C6.23277 29.7519 6.11145 29.1244 6.05469 28.4297C5.99984 27.7584 5.99999 26.9319 6 25.9219V10.0782C5.99999 9.06813 5.99984 8.24167 6.05469 7.57034C6.11146 6.87563 6.23273 6.24812 6.53125 5.66214C6.99864 4.74488 7.74484 3.99865 8.66211 3.53128C9.2481 3.23278 9.87559 3.11148 10.5703 3.05472C11.2417 2.99987 12.0681 3.00002 13.0781 3.00003H17.9951ZM12.0625 24.9727L10.6006 27.6504H11.9502L12.835 25.8877L13.7051 27.6504H15.1006L13.6377 24.9502L15.0254 22.4004H13.6904L12.8652 24.0352L12.04 22.4004H10.6748L12.0625 24.9727ZM15.8115 27.6504H16.9365V24.7246C16.9365 24.5748 16.9319 24.4495 16.9219 24.3496C16.9169 24.2497 16.9094 24.1244 16.8994 23.9746H16.9287C16.9537 24.0496 16.9761 24.1178 16.9961 24.1778C17.016 24.2326 17.0339 24.2898 17.0488 24.3496C17.0688 24.4046 17.0894 24.4625 17.1094 24.5225C17.1343 24.5824 17.1615 24.6498 17.1914 24.7246L17.9111 26.5996H18.8867L19.6064 24.7246C19.6364 24.6498 19.6617 24.5824 19.6816 24.5225C19.7066 24.4625 19.7262 24.4046 19.7412 24.3496C19.7612 24.2898 19.7818 24.2326 19.8018 24.1778C19.8218 24.1178 19.8441 24.0496 19.8691 23.9746H19.8994C19.8844 24.1244 19.8741 24.2497 19.8691 24.3496C19.8641 24.4495 19.8613 24.5748 19.8613 24.7246V27.6504H20.9863V22.4004H19.5313L18.4219 25.2871L17.3115 22.4004H15.8115V27.6504ZM22.1836 27.6504H25.4082V26.5996H23.3535V22.4004H22.1836V27.6504Z" fill="white"/>
<path d="M20.875 3.66507C21.2557 3.91578 21.5877 4.24548 22 4.65823C22.0252 4.68348 22.0503 4.70953 22.0762 4.73538L28.3418 11.001C28.7543 11.4131 29.0843 11.7445 29.335 12.125H24.6748C23.8184 12.125 23.2362 12.1247 22.7861 12.0879C22.3477 12.0521 22.1232 11.9869 21.9668 11.9073C21.5906 11.7155 21.2845 11.4095 21.0928 11.0332C21.0131 10.8768 20.9479 10.6522 20.9121 10.2139C20.8754 9.76388 20.875 9.1815 20.875 8.32522V3.66507Z" fill="white"/>
</svg>
