<svg width="36" height="36" viewBox="0 0 36 36" fill="none" xmlns="http://www.w3.org/2000/svg">
<path fill-rule="evenodd" clip-rule="evenodd" d="M18.875 3.01521C18.6066 2.99969 18.3188 2.99985 17.9955 3.00004L13.0779 3.00008C12.0678 3.00007 11.2417 3.00006 10.5704 3.05491C9.87551 3.11168 9.24791 3.23279 8.6618 3.53143C7.74451 3.99881 6.99873 4.74459 6.53134 5.66188C6.23271 6.24799 6.1116 6.87559 6.05483 7.57048C5.99998 8.24182 5.99999 9.06788 6 10.0779V25.9222C5.99999 26.9323 5.99998 27.7583 6.05483 28.4297C6.1116 29.1246 6.23271 29.7522 6.53134 30.3383C6.99873 31.2556 7.74451 32.0014 8.6618 32.4687C9.24791 32.7674 9.87551 32.8885 10.5704 32.9453C11.2417 33.0001 12.0678 33.0001 13.0778 33.0001H22.9222C23.9322 33.0001 24.7583 33.0001 25.4296 32.9453C26.1245 32.8885 26.7521 32.7674 27.3382 32.4687C28.2555 32.0014 29.0013 31.2556 29.4687 30.3383C29.7673 29.7522 29.8884 29.1246 29.9452 28.4297C30 27.7584 30 26.9324 30 25.9224L30 15.0046C30.0002 14.6814 30.0004 14.3935 29.9849 14.1251H24.6337C23.8287 14.1251 23.1644 14.1251 22.6232 14.0809C22.0611 14.035 21.5444 13.9364 21.059 13.6891C20.3064 13.3056 19.6945 12.6937 19.311 11.9411C19.0637 11.4557 18.9651 10.939 18.9192 10.3769C18.875 9.83572 18.875 9.17136 18.875 8.36639V3.01521ZM20.0547 22.1074L21.7497 27.8925H23.3247L25.0122 22.1074H23.7522L22.5822 26.4215L21.3972 22.1074H20.0547ZM18.4638 26.2893C18.4638 25.8921 18.0501 25.7508 17.554 25.5813C16.8112 25.3275 15.8838 25.0106 15.8838 23.6777C15.8838 22.6364 16.4313 22 17.9313 22C18.5988 22 19.1763 22.1157 19.5363 22.281V23.6116C19.1613 23.3306 18.5913 23.1074 18.0288 23.1074C17.3163 23.1074 17.1288 23.3471 17.1288 23.6529C17.1288 24.0333 17.5504 24.1704 18.0591 24.3357C18.8322 24.5871 19.8063 24.9037 19.8063 26.2397C19.8063 27.3554 19.1688 28 17.6463 28C16.9638 28 16.2888 27.843 15.9063 27.6033V26.2231C16.1763 26.4793 16.7388 26.8926 17.5788 26.8926C18.2013 26.8926 18.4638 26.6529 18.4638 26.2893ZM15.0875 23.6364V22.2562C14.84 22.1653 14.3675 22 13.6625 22C11.7875 22 11 22.9669 11 25.0496C11 27.0744 11.7725 28 13.655 28C14.36 28 14.8775 27.8265 15.1475 27.686V26.3388C14.885 26.5455 14.405 26.7769 13.7525 26.7769C12.7775 26.7769 12.305 26.3471 12.305 24.9752C12.305 23.6694 12.7475 23.2231 13.6925 23.2231C14.375 23.2231 14.78 23.438 15.0875 23.6364Z" fill="white"/>
<path d="M20.875 8.32509V3.66343C21.256 3.91422 21.587 4.24553 21.9995 4.65857L28.3415 11.0005C28.7545 11.4131 29.0859 11.744 29.3367 12.1251H24.675C23.8184 12.1251 23.2361 12.1243 22.786 12.0875C22.3476 12.0517 22.1234 11.9868 21.967 11.9071C21.5907 11.7154 21.2847 11.4094 21.093 11.0331C21.0133 10.8767 20.9484 10.6525 20.9126 10.2141C20.8758 9.76397 20.875 9.18167 20.875 8.32509Z" fill="white"/>
</svg>
