<svg width="36" height="36" viewBox="0 0 36 36" fill="none" xmlns="http://www.w3.org/2000/svg">
<path d="M18.875 3.01521C18.6066 2.99969 18.3188 2.99985 17.9955 3.00004L13.0779 3.00008C12.0678 3.00007 11.2417 3.00006 10.5704 3.05491C9.87551 3.11168 9.24791 3.23279 8.6618 3.53143C7.74451 3.99881 6.99873 4.74459 6.53134 5.66188C6.23271 6.24799 6.1116 6.87559 6.05483 7.57048C5.99998 8.24182 5.99999 9.06787 6 10.0779V25.9222C5.99999 26.9323 5.99998 27.7583 6.05483 28.4297C6.1116 29.1246 6.23271 29.7522 6.53134 30.3383C6.99873 31.2556 7.74451 32.0014 8.6618 32.4687C9.24791 32.7674 9.87551 32.8885 10.5704 32.9453C11.2417 33.0001 12.0678 33.0001 13.0778 33.0001H18.9005C17.4039 31.252 16.5 28.9816 16.5 26.5C16.5 20.9772 20.9772 16.5 26.5 16.5C27.7313 16.5 28.9107 16.7225 30 17.1296L30 15.0046C30.0002 14.6814 30.0004 14.3935 29.9849 14.1251H24.6337C23.8287 14.1251 23.1644 14.1251 22.6232 14.0809C22.0611 14.035 21.5444 13.9364 21.059 13.6891C20.3064 13.3056 19.6945 12.6937 19.311 11.9411C19.0637 11.4557 18.9651 10.939 18.9192 10.3769C18.875 9.83572 18.875 9.17136 18.875 8.36639V3.01521Z" fill="white"/>
<path d="M20.875 8.32509V3.66343C21.256 3.91422 21.587 4.24553 21.9995 4.65857L28.3415 11.0005C28.7545 11.4131 29.0859 11.744 29.3367 12.1251H24.675C23.8184 12.1251 23.2361 12.1243 22.786 12.0875C22.3476 12.0517 22.1234 11.9868 21.967 11.9071C21.5907 11.7154 21.2847 11.4094 21.093 11.0331C21.0133 10.8767 20.9484 10.6525 20.9126 10.2141C20.8758 9.76396 20.875 9.18167 20.875 8.32509Z" fill="white"/>
<path fill-rule="evenodd" clip-rule="evenodd" d="M26.495 23.3C24.3441 23.3 22.5018 24.5209 21.6535 26.2643C21.6344 26.3035 21.6214 26.3302 21.6106 26.3535C21.6002 26.3757 21.5949 26.3884 21.5917 26.3964C21.5888 26.4039 21.5864 26.4101 21.583 26.4272L21.5824 26.4344C21.5816 26.4471 21.5809 26.4643 21.5809 26.4837C21.5809 26.503 21.5815 26.5202 21.5823 26.5329L21.5829 26.5401C21.5863 26.5573 21.5886 26.5634 21.5916 26.5709C21.5947 26.5789 21.6 26.5916 21.6103 26.6139C21.6211 26.6372 21.634 26.6639 21.653 26.7032C22.4994 28.4513 24.3443 29.6764 26.4989 29.6764C28.6497 29.6764 30.492 28.4555 31.3404 26.7121C31.3594 26.6729 31.3724 26.6462 31.3832 26.6229C31.3936 26.6006 31.3989 26.588 31.4021 26.58C31.405 26.5725 31.4074 26.5663 31.4108 26.5492L31.4114 26.542C31.4122 26.5293 31.4129 26.5121 31.4129 26.4927C31.4129 26.4734 31.4123 26.4562 31.4115 26.4435L31.4109 26.4363C31.4075 26.4191 31.4052 26.413 31.4022 26.4055C31.3991 26.3975 31.3938 26.3848 31.3835 26.3625C31.3727 26.3392 31.3598 26.3125 31.3408 26.2732C30.4944 24.5251 28.6495 23.3 26.495 23.3ZM28.5068 26.3284C28.5068 27.4025 27.6063 28.2732 26.4956 28.2732C25.3848 28.2732 24.4844 27.4025 24.4844 26.3284C24.4844 25.2544 25.3848 24.3837 26.4956 24.3837C27.6063 24.3837 28.5068 25.2544 28.5068 26.3284Z" fill="white"/>
<path fill-rule="evenodd" clip-rule="evenodd" d="M26.4902 34.99C31.1847 34.99 34.9902 31.1844 34.9902 26.49C34.9902 21.7956 31.1847 17.99 26.4902 17.99C21.7958 17.99 17.9902 21.7956 17.9902 26.49C17.9902 31.1844 21.7958 34.99 26.4902 34.99ZM20.3047 25.608C21.4037 23.3494 23.769 21.8 26.495 21.8C29.2256 21.8 31.5944 23.3547 32.6909 25.6196L32.6993 25.637C32.7698 25.7822 32.8448 25.937 32.8882 26.1756C32.9083 26.2865 32.913 26.4061 32.9129 26.4942C32.9128 26.5823 32.9079 26.7019 32.8876 26.8127C32.8437 27.0513 32.7683 27.2059 32.6976 27.351L32.6891 27.3684C31.5902 29.627 29.2248 31.1764 26.4989 31.1764C23.7682 31.1764 21.3994 29.6216 20.3029 27.3568L20.2945 27.3393C20.2241 27.1941 20.149 27.0394 20.1056 26.8007C20.0855 26.6899 20.0808 26.5702 20.0809 26.4822C20.081 26.3941 20.0859 26.2745 20.1063 26.1636C20.1501 25.9251 20.2255 25.7705 20.2962 25.6254L20.3047 25.608Z" fill="white"/>
</svg>
