<svg width="36" height="36" viewBox="0 0 36 36" fill="none" xmlns="http://www.w3.org/2000/svg">
<path fill-rule="evenodd" clip-rule="evenodd" d="M18.875 3.01521C18.6066 2.99969 18.3188 2.99985 17.9955 3.00004L13.0779 3.00008C12.0678 3.00007 11.2417 3.00006 10.5704 3.05491C9.87551 3.11168 9.24791 3.23279 8.6618 3.53143C7.74451 3.99881 6.99873 4.74459 6.53134 5.66188C6.23271 6.24799 6.1116 6.87559 6.05483 7.57048C5.99998 8.24182 5.99999 9.06788 6 10.0779V25.9222C5.99999 26.9323 5.99998 27.7583 6.05483 28.4297C6.1116 29.1246 6.23271 29.7522 6.53134 30.3383C6.99873 31.2556 7.74451 32.0014 8.6618 32.4687C9.24791 32.7674 9.87551 32.8885 10.5704 32.9453C11.2417 33.0001 12.0678 33.0001 13.0778 33.0001H22.9222C23.9322 33.0001 24.7583 33.0001 25.4296 32.9453C26.1245 32.8885 26.7521 32.7674 27.3382 32.4687C28.2555 32.0014 29.0013 31.2556 29.4687 30.3383C29.7673 29.7522 29.8884 29.1246 29.9452 28.4297C30 27.7584 30 26.9323 30 25.9223L30 15.0046C30.0002 14.6814 30.0004 14.3935 29.9849 14.1251H24.6337C23.8287 14.1251 23.1644 14.1251 22.6232 14.0809C22.0611 14.035 21.5444 13.9364 21.059 13.6891C20.3064 13.3056 19.6945 12.6937 19.311 11.9411C19.0637 11.4557 18.9651 10.939 18.9192 10.3769C18.875 9.83572 18.875 9.17136 18.875 8.36639V3.01521ZM20.875 8.32509V3.66343C21.256 3.91422 21.587 4.24553 21.9995 4.65857L28.3415 11.0005C28.7545 11.4131 29.0859 11.744 29.3367 12.1251H24.675C23.8184 12.1251 23.2361 12.1243 22.786 12.0875C22.3476 12.0517 22.1234 11.9868 21.967 11.9071C21.5907 11.7154 21.2847 11.4094 21.093 11.0331C21.0133 10.8767 20.9484 10.6525 20.9126 10.2141C20.8758 9.76397 20.875 9.18167 20.875 8.32509ZM10.7002 22.1C10.7002 22.1 11.7052 22 12.5432 22C14.2613 22 14.8893 22.628 14.8893 24.094C14.8893 25.56 14.1773 26.272 12.5432 26.272C12.2922 26.272 12.0072 26.255 12.0072 26.255V27.922H10.7002V22.1ZM12.5429 23.2227C12.2918 23.2227 12.0068 23.2567 12.0068 23.2567V25.0317C12.0068 25.0317 12.2918 25.0487 12.5429 25.0487C13.2889 25.0487 13.5319 24.8057 13.5319 24.0937C13.5319 23.4657 13.2889 23.2227 12.5429 23.2227ZM15.8965 27.88V22.1C15.8965 22.1 16.9015 22 17.7395 22C19.7076 22 20.5876 22.879 20.5876 24.949C20.5876 26.975 19.5826 27.981 17.6565 27.981C16.9015 27.981 15.8965 27.88 15.8965 27.88ZM17.7811 23.2227C17.5291 23.2227 17.2031 23.2567 17.2031 23.2567V26.7237C17.2031 26.7237 17.4881 26.7577 17.6971 26.7577C18.7182 26.7577 19.2292 26.2467 19.2292 24.9487C19.2292 23.6917 18.7612 23.2227 17.7811 23.2227ZM21.5967 22.0586H25.1988V23.2316H22.9037V24.5716H24.9478V25.7446H22.9037V27.9226H21.5967V22.0586Z" fill="white"/>
</svg>
