<svg width="36" height="36" viewBox="0 0 36 36" fill="none" xmlns="http://www.w3.org/2000/svg">
<path fill-rule="evenodd" clip-rule="evenodd" d="M18.622 3.7169C18.3215 3.47825 17.9109 3.43263 17.5654 3.59949C17.2198 3.76635 17.0002 4.11625 17.0002 4.50001V15.9289L10.122 10.4669C9.68954 10.1234 9.0605 10.1956 8.71705 10.6281C8.37359 11.0606 8.44578 11.6897 8.87828 12.0331L16.3921 18L8.87828 23.9669C8.77756 24.0469 8.69639 24.1423 8.63545 24.2472L26.7883 10.2019L18.622 3.7169ZM19.7906 18.1449L17.0002 20.304V31.5C17.0002 31.8838 17.2198 32.2337 17.5654 32.4005C17.9109 32.5674 18.3215 32.5218 18.622 32.2831L27.122 25.5331C27.3609 25.3434 27.5002 25.0551 27.5002 24.75C27.5002 24.445 27.3609 24.1566 27.122 23.9669L19.7906 18.1449ZM24.8921 24.75L19.0002 20.0711V29.4289L24.8921 24.75ZM19.0002 6.57108V15.9289L24.8921 11.25L19.0002 6.57108Z" fill="white"/>
<path fill-rule="evenodd" clip-rule="evenodd" d="M31.4839 5.38807C31.8219 5.82487 31.7418 6.45295 31.305 6.79091L4.61199 27.4439C4.17519 27.7819 3.54711 27.7018 3.20914 27.265C2.87118 26.8282 2.9513 26.2001 3.38811 25.8621L30.0811 5.20911C30.5179 4.87114 31.146 4.95126 31.4839 5.38807Z" fill="white"/>
</svg>
