<svg width="36" height="36" viewBox="0 0 36 36" fill="none" xmlns="http://www.w3.org/2000/svg">
<path fill-rule="evenodd" clip-rule="evenodd" d="M12.0652 3.59949C12.4108 3.43263 12.8214 3.47825 13.1219 3.7169L21.6219 10.4669C21.8608 10.6566 22 10.945 22 11.25C22 11.5551 21.8608 11.8434 21.6219 12.0331L14.1081 18L21.6219 23.9669C21.8608 24.1566 22 24.445 22 24.75C22 25.0551 21.8608 25.3434 21.6219 25.5331L13.1219 32.2831C12.8214 32.5218 12.4108 32.5674 12.0652 32.4005C11.7196 32.2337 11.5 31.8838 11.5 31.5V20.0711L4.62192 25.5331C4.18942 25.8766 3.56038 25.8044 3.21693 25.3719C2.87347 24.9394 2.94566 24.3104 3.37816 23.9669L10.892 18L3.37816 12.0331C2.94566 11.6897 2.87347 11.0606 3.21693 10.6281C3.56038 10.1956 4.18942 10.1234 4.62192 10.4669L11.5 15.9289V4.50001C11.5 4.11625 11.7196 3.76635 12.0652 3.59949ZM13.5 20.0711L19.392 24.75L13.5 29.4289V20.0711ZM13.5 15.9289V6.57108L19.392 11.25L13.5 15.9289Z" fill="white"/>
<path fill-rule="evenodd" clip-rule="evenodd" d="M27.2872 7.79872C27.6745 7.40501 28.3076 7.39982 28.7013 7.78714C30.0631 9.12679 31.1442 10.7181 31.8821 12.4706C32.62 14.2231 33 16.1021 33 18C33 19.8979 32.62 21.7769 31.8821 23.5294C31.1442 25.2819 30.0631 26.8732 28.7013 28.2129C28.3076 28.6002 27.6745 28.595 27.2872 28.2013C26.8999 27.8076 26.905 27.1744 27.2987 26.7871C28.4733 25.6317 29.4041 24.2608 30.0388 22.7533C30.6736 21.2458 31 19.6307 31 18C31 16.3693 30.6736 14.7542 30.0388 13.2467C29.4041 11.7392 28.4733 10.3683 27.2987 9.21288C26.905 8.82557 26.8999 8.19242 27.2872 7.79872Z" fill="white"/>
<path fill-rule="evenodd" clip-rule="evenodd" d="M25.3231 12.264C25.7296 11.8901 26.3622 11.9166 26.7361 12.3231C27.4586 13.1087 28.0277 14.0369 28.4147 15.0527C28.8017 16.0685 29 17.1548 29 18.25C29 19.3453 28.8017 20.4315 28.4147 21.4473C28.0277 22.4632 27.4586 23.3914 26.7361 24.1769C26.3622 24.5835 25.7296 24.6099 25.3231 24.236C24.9166 23.8622 24.8901 23.2296 25.264 22.8231C25.8096 22.2298 26.2465 21.521 26.5458 20.7353C26.8451 19.9495 27 19.1048 27 18.25C27 17.3952 26.8451 16.5505 26.5458 15.7647C26.2464 14.979 25.8096 14.2702 25.264 13.6769C24.8901 13.2704 24.9166 12.6378 25.3231 12.264Z" fill="white"/>
</svg>
