<svg width="36" height="36" viewBox="0 0 36 36" fill="none" xmlns="http://www.w3.org/2000/svg">
<path fill-rule="evenodd" clip-rule="evenodd" d="M12.0652 3.59949C12.4108 3.43263 12.8214 3.47825 13.1219 3.7169L21.6219 10.4669C21.8608 10.6566 22 10.945 22 11.25C22 11.5551 21.8608 11.8434 21.6219 12.0331L14.1081 18L21.6219 23.9669C21.8608 24.1566 22 24.445 22 24.75C22 25.0551 21.8608 25.3434 21.6219 25.5331L13.1219 32.2831C12.8214 32.5218 12.4108 32.5674 12.0652 32.4005C11.7196 32.2337 11.5 31.8838 11.5 31.5V20.0711L4.62192 25.5331C4.18942 25.8766 3.56038 25.8044 3.21693 25.3719C2.87347 24.9394 2.94566 24.3104 3.37816 23.9669L10.892 18L3.37816 12.0331C2.94566 11.6897 2.87347 11.0606 3.21693 10.6281C3.56038 10.1956 4.18942 10.1234 4.62192 10.4669L11.5 15.9289V4.50001C11.5 4.11625 11.7196 3.76635 12.0652 3.59949ZM13.5 20.0711L19.392 24.75L13.5 29.4289V20.0711ZM13.5 15.9289V6.57108L19.392 11.25L13.5 15.9289Z" fill="white"/>
<path d="M24 18C24 18.8284 23.3285 19.5 22.5 19.5C21.6716 19.5 21 18.8284 21 18C21 17.1716 21.6716 16.5 22.5 16.5C23.3285 16.5 24 17.1716 24 18Z" fill="white"/>
<path fill-rule="evenodd" clip-rule="evenodd" d="M24.6281 9.51047C24.8984 9.02889 25.508 8.85766 25.9896 9.12803C27.5845 10.0234 28.9124 11.3133 29.8371 12.8707C30.762 14.4283 31.25 16.1974 31.25 18C31.25 19.8026 30.762 21.5717 29.8371 23.1294C28.9124 24.6867 27.5845 25.9766 25.9896 26.872C25.508 27.1424 24.8984 26.9711 24.6281 26.4895C24.3577 26.008 24.5289 25.3984 25.0105 25.128C26.3039 24.4019 27.3745 23.3595 28.1174 22.1083C28.8602 20.8573 29.25 19.4405 29.25 18C29.25 16.5595 28.8602 15.1427 28.1174 13.8917C27.3745 12.6406 26.3039 11.5981 25.0105 10.872C24.5289 10.6016 24.3577 9.99206 24.6281 9.51047Z" fill="white"/>
</svg>
