<svg width="36" height="36" viewBox="0 0 36 36" fill="none" xmlns="http://www.w3.org/2000/svg">
<path fill-rule="evenodd" clip-rule="evenodd" d="M12.0652 3.59949C12.4108 3.43263 12.8214 3.47825 13.1219 3.7169L21.6219 10.4669C21.8608 10.6566 22 10.945 22 11.25C22 11.5551 21.8608 11.8434 21.6219 12.0331L14.1081 18L21.6219 23.9669C21.8608 24.1566 22 24.445 22 24.75C22 25.0551 21.8608 25.3434 21.6219 25.5331L13.1219 32.2831C12.8214 32.5218 12.4108 32.5674 12.0652 32.4005C11.7196 32.2337 11.5 31.8838 11.5 31.5V20.0711L4.62192 25.5331C4.18942 25.8766 3.56038 25.8044 3.21693 25.3719C2.87347 24.9394 2.94566 24.3104 3.37816 23.9669L10.892 18L3.37816 12.0331C2.94566 11.6897 2.87347 11.0606 3.21693 10.6281C3.56038 10.1956 4.18942 10.1234 4.62192 10.4669L11.5 15.9289V4.50001C11.5 4.11625 11.7196 3.76635 12.0652 3.59949ZM13.5 20.0711L19.392 24.75L13.5 29.4289V20.0711ZM13.5 15.9289V6.57108L19.392 11.25L13.5 15.9289Z" fill="white"/>
<path fill-rule="evenodd" clip-rule="evenodd" d="M30.5 16.5V15C30.5 13.3435 29.1569 12 27.5 12C25.8435 12 24.5 13.3432 24.5 15V16.5C23.6715 16.5 23 17.1715 23 18V22.5C23 23.3285 23.6715 24 24.5 24H30.5C31.3285 24 32 23.3285 32 22.5V18C32 17.1715 31.3285 16.5 30.5 16.5ZM26 15C26 14.1715 26.6717 13.5 27.5 13.5C28.3285 13.5 29 14.1717 29 15V16.5H26V15Z" fill="white"/>
</svg>
