<svg width="36" height="36" viewBox="0 0 36 36" fill="none" xmlns="http://www.w3.org/2000/svg">
<path fill-rule="evenodd" clip-rule="evenodd" d="M27.1221 23.9668C27.361 24.1565 27.5 24.4449 27.5 24.75C27.5 25.055 27.3609 25.3435 27.1221 25.5332L18.6221 32.2832C18.3216 32.5218 17.911 32.5672 17.5654 32.4003C17.2199 32.2335 17 31.8837 17 31.5V20.3037L19.791 18.1445L27.1221 23.9668ZM19 29.4287L24.8926 24.75L19 20.0712V29.4287Z" fill="white"/>
<path fill-rule="evenodd" clip-rule="evenodd" d="M17.5654 3.59957C17.911 3.4327 18.3215 3.4781 18.6221 3.71675L25.2275 8.96285L30.0811 5.20894C30.5179 4.87099 31.1464 4.95085 31.4844 5.38765C31.8223 5.82445 31.7415 6.45301 31.3047 6.79097L4.61231 27.4443C4.1755 27.7822 3.54695 27.7014 3.20899 27.2646C2.87133 26.8279 2.9513 26.2002 3.3877 25.8623L14.9893 16.8857L8.87793 12.0332C8.44557 11.6897 8.37341 11.0603 8.7168 10.6279C9.06026 10.1954 9.68957 10.1233 10.1221 10.4668L16.6182 15.625L17 15.33V4.49996C17 4.1162 17.2199 3.76643 17.5654 3.59957ZM19 13.7822L23.5996 10.2226L19 6.57124V13.7822Z" fill="white"/>
</svg>
