<svg width="36" height="36" viewBox="0 0 36 36" fill="none" xmlns="http://www.w3.org/2000/svg">
<path fill-rule="evenodd" clip-rule="evenodd" d="M17.5652 3.59949C17.9108 3.43263 18.3214 3.47825 18.6219 3.7169L27.1219 10.4669C27.3608 10.6566 27.5 10.945 27.5 11.25C27.5 11.5551 27.3608 11.8434 27.1219 12.0331L19.6081 18L27.1219 23.9669C27.3608 24.1566 27.5 24.445 27.5 24.75C27.5 25.0551 27.3608 25.3434 27.1219 25.5331L18.6219 32.2831C18.3214 32.5218 17.9108 32.5674 17.5652 32.4005C17.2196 32.2337 17 31.8838 17 31.5V20.0711L10.1219 25.5331C9.68942 25.8766 9.06038 25.8044 8.71693 25.3719C8.37347 24.9394 8.44566 24.3104 8.87816 23.9669L16.392 18L8.87816 12.0331C8.44566 11.6897 8.37347 11.0606 8.71693 10.6281C9.06038 10.1956 9.68942 10.1234 10.1219 10.4669L17 15.9289V4.50001C17 4.11625 17.2196 3.76635 17.5652 3.59949ZM19 20.0711L24.892 24.75L19 29.4289V20.0711ZM19 15.9289V6.57108L24.892 11.25L19 15.9289Z" fill="white"/>
</svg>
