<svg width="36" height="36" viewBox="0 0 36 36" fill="none" xmlns="http://www.w3.org/2000/svg">
<path fill-rule="evenodd" clip-rule="evenodd" d="M18 33C26.2843 33 33 26.2843 33 18C33 9.71573 26.2843 3 18 3C9.71573 3 3 9.71573 3 18C3 26.2843 9.71573 33 18 33ZM19.2803 5.78033C19.5732 5.48744 19.5732 5.01256 19.2803 4.71967C18.9874 4.42678 18.5126 4.42678 18.2197 4.71967L4.71967 18.2197C4.42678 18.5126 4.42678 18.9874 4.71967 19.2803C5.01256 19.5732 5.48744 19.5732 5.78033 19.2803L19.2803 5.78033ZM24.0455 7.5455C24.4848 7.10616 24.4848 6.39384 24.0455 5.9545C23.6062 5.51517 22.8938 5.51517 22.4545 5.9545L5.9545 22.4545C5.51517 22.8938 5.51517 23.6062 5.9545 24.0455C6.39384 24.4848 7.10616 24.4848 7.5455 24.0455L24.0455 7.5455ZM30.0455 11.9545C29.6062 11.5152 28.8938 11.5152 28.4545 11.9545L11.9545 28.4545C11.5152 28.8938 11.5152 29.6062 11.9545 30.0455C12.3938 30.4848 13.1062 30.4848 13.5455 30.0455L30.0455 13.5455C30.4848 13.1062 30.4848 12.3938 30.0455 11.9545ZM31.2803 16.7197C31.5732 17.0126 31.5732 17.4874 31.2803 17.7803L17.7803 31.2803C17.4874 31.5732 17.0126 31.5732 16.7197 31.2803C16.4268 30.9874 16.4268 30.5126 16.7197 30.2197L30.2197 16.7197C30.5126 16.4268 30.9874 16.4268 31.2803 16.7197ZM27.7955 8.2045C28.2348 8.64384 28.2348 9.35616 27.7955 9.7955L9.7955 27.7955C9.35616 28.2348 8.64384 28.2348 8.2045 27.7955C7.76516 27.3562 7.76516 26.6438 8.2045 26.2045L26.2045 8.2045C26.6438 7.76516 27.3562 7.76516 27.7955 8.2045ZM29.7803 24.5303C30.0732 24.2374 30.0732 23.7626 29.7803 23.4697C29.4874 23.1768 29.0126 23.1768 28.7197 23.4697L23.4697 28.7197C23.1768 29.0126 23.1768 29.4874 23.4697 29.7803C23.7626 30.0732 24.2374 30.0732 24.5303 29.7803L29.7803 24.5303ZM12.5303 6.21967C12.8232 6.51256 12.8232 6.98744 12.5303 7.28033L7.28033 12.5303C6.98744 12.8232 6.51256 12.8232 6.21967 12.5303C5.92678 12.2374 5.92678 11.7626 6.21967 11.4697L11.4697 6.21967C11.7626 5.92678 12.2374 5.92678 12.5303 6.21967Z" fill="white"/>
</svg>
