<svg width="36" height="36" viewBox="0 0 36 36" fill="none" xmlns="http://www.w3.org/2000/svg">
<path fill-rule="evenodd" clip-rule="evenodd" d="M16.7428 4.5H20.2915C21.6545 4.49999 22.7386 4.49999 23.6131 4.57144C24.5087 4.64462 25.2724 4.79768 25.9717 5.15396C27.1006 5.7292 28.0185 6.64709 28.5938 7.77606C28.9501 8.47533 29.1031 9.23911 29.1763 10.1348C29.2477 11.0096 29.2477 12.0938 29.2477 13.4571V23.6748C29.2477 24.5011 29.2478 25.1891 29.2002 25.7201C29.1542 26.2343 29.0513 26.8276 28.6673 27.2878C28.2866 27.7442 27.7603 28.045 27.1869 28.1474C27.3978 27.7617 27.4688 27.3394 27.5058 26.9745C27.5587 26.4529 27.5587 25.7783 27.5586 24.9763V12.9876C27.5587 12.0191 27.5587 11.2268 27.4989 10.583C27.437 9.9166 27.3049 9.31474 26.9794 8.75266C26.4698 7.87298 25.6568 7.15778 24.6568 6.70956C24.0178 6.42316 23.3336 6.30703 22.576 6.25258C21.8442 6.19998 20.9436 6.19999 19.8424 6.2H14.0162C12.915 6.19999 12.0145 6.19998 11.2826 6.25258C11.1238 6.26399 10.9682 6.27812 10.8156 6.29595C11.2367 5.76561 11.7689 5.3285 12.3788 5.01772C12.9444 4.72956 13.5537 4.61056 14.2408 4.55441C14.907 4.49998 15.7287 4.49999 16.7428 4.5ZM13.7075 7.45253C12.6935 7.45252 11.8718 7.45251 11.2056 7.50694C10.5184 7.56308 9.9091 7.68208 9.34355 7.97025C8.44978 8.42565 7.72312 9.1523 7.26772 10.0461C6.97956 10.6116 6.86056 11.2209 6.80441 11.9081C6.74998 12.5743 6.74999 13.396 6.75 14.41V27.213C6.74998 27.9592 6.74996 28.5876 6.7946 29.078C6.83865 29.562 6.93781 30.1118 7.28974 30.5565C7.75927 31.1497 8.47216 31.4984 9.22867 31.5048C9.7957 31.5096 10.2906 31.2504 10.6997 30.988C11.1142 30.7222 11.6102 30.3364 12.1992 29.8783L13.8329 28.6077C14.559 28.043 15.0603 27.654 15.4762 27.3783C15.8816 27.1095 16.1456 26.9904 16.3792 26.9336C16.8842 26.8107 17.4136 26.8335 17.9061 26.9992C18.134 27.0759 18.3868 27.2171 18.7676 27.5197C19.1584 27.8302 19.6244 28.2607 20.2994 28.8857L20.5385 29.107C21.1446 29.6683 21.6494 30.1357 22.0713 30.4615C22.4798 30.777 22.985 31.1045 23.5835 31.1354C24.3692 31.176 25.1281 30.8444 25.6321 30.2403C26.016 29.7801 26.1189 29.1869 26.165 28.6728C26.2125 28.1419 26.2125 27.454 26.2125 26.6279V14.41C26.2125 13.396 26.2125 12.5743 26.1581 11.9081C26.1019 11.2209 25.9829 10.6116 25.6947 10.0461C25.2394 9.1523 24.5127 8.42565 23.6189 7.97025C23.0534 7.68208 22.4441 7.56308 21.7569 7.50694C21.0907 7.45251 20.269 7.45252 19.255 7.45253H13.7075ZM10.2515 9.75226C10.4881 9.6317 10.805 9.54634 11.3684 9.5003C11.9436 9.45331 12.6834 9.45253 13.75 9.45253H19.2125C20.2791 9.45253 21.0189 9.45331 21.594 9.5003C22.1575 9.54634 22.4743 9.6317 22.7109 9.75226C23.2284 10.0159 23.6491 10.4366 23.9127 10.9541C24.0333 11.1907 24.1187 11.5075 24.1647 12.071C24.2117 12.6461 24.2125 13.3859 24.2125 14.4525V26.5789C24.2125 27.4666 24.2115 28.0637 24.1729 28.4944C24.1428 28.831 24.0963 28.9469 24.088 28.9678C24.0877 28.9686 24.0874 28.9692 24.0872 28.9698C23.9896 29.0803 23.8482 29.142 23.7008 29.1386C23.7003 29.1384 23.6996 29.1381 23.6988 29.1378C23.6778 29.1298 23.5612 29.0851 23.2938 28.8786C22.9515 28.6143 22.5127 28.2093 21.8613 27.6062L21.63 27.392C20.99 26.7995 20.4687 26.3168 20.0117 25.9538C19.5382 25.5776 19.078 25.2833 18.5439 25.1036C17.6931 24.8174 16.7786 24.7781 15.9065 24.9902C15.3589 25.1235 14.8751 25.3771 14.3711 25.7113C13.8847 26.0338 13.324 26.4699 12.6356 27.0052L11.0095 28.2699C10.3723 28.7655 9.94849 29.0938 9.62002 29.3045C9.35757 29.4728 9.25108 29.5006 9.23588 29.5046C9.09179 29.5004 8.95612 29.4343 8.86437 29.3232C8.85818 29.3087 8.81463 29.2073 8.78637 28.8967C8.751 28.5081 8.75 27.972 8.75 27.1648V14.4525C8.75 13.3859 8.75078 12.6461 8.79777 12.071C8.84381 11.5075 8.92917 11.1907 9.04973 10.9541C9.31338 10.4366 9.73408 10.0159 10.2515 9.75226Z" fill="white"/>
</svg>
