<svg width="36" height="36" viewBox="0 0 36 36" fill="none" xmlns="http://www.w3.org/2000/svg">
<path fill-rule="evenodd" clip-rule="evenodd" d="M25.125 5.75C30.626 5.74999 33.137 8.89297 33.2441 11.1035H33.25V28.5C33.25 28.7761 32.8023 29 32.25 29C31.732 29 31.3057 28.8031 31.2549 28.5508L31.2588 28.5879C31.2573 28.5825 31.2517 28.5662 31.2393 28.5381C31.2094 28.4707 31.1515 28.3655 31.0527 28.2324C30.8559 27.9671 30.5263 27.6294 30.0342 27.2969C29.0588 26.6379 27.4451 26 25 26C20.0825 26 19 28.499 19 29.25V29.2578L18.9951 29.3604C18.9439 29.8646 18.5178 30.2578 18 30.2578C17.4822 30.2578 17.0561 29.8646 17.0049 29.3604L17 29.2578V29.25C17 28.499 15.9175 26 11 26C8.55488 26 6.94115 26.6379 5.96582 27.2969C5.47367 27.6294 5.14414 27.9671 4.94727 28.2324C4.8485 28.3655 4.79056 28.4707 4.76074 28.5381C4.7483 28.5662 4.74272 28.5825 4.74121 28.5879L4.74512 28.5508C4.69426 28.8031 4.26803 29 3.75 29C3.19772 29 2.75 28.7761 2.75 28.5V11.1562H2.75586C2.77012 10.9267 2.83064 10.6982 2.89746 10.5088C2.98088 10.2724 3.10052 10.0112 3.25391 9.73926C3.56111 9.19466 4.02441 8.57138 4.66797 7.98145C5.96961 6.7883 7.98947 5.75 10.875 5.75C14.6102 5.74999 16.9666 7.19999 18.1289 8.82227C18.354 8.5424 18.6161 8.25819 18.918 7.98145C20.2196 6.7883 22.2395 5.75 25.125 5.75ZM10.875 7.75C8.51056 7.75 6.96789 8.58672 6.01953 9.45605C5.53817 9.89731 5.20451 10.3522 4.99609 10.7217C4.89182 10.9065 4.82381 11.0616 4.78418 11.1738C4.76293 11.234 4.75351 11.2702 4.75 11.2852V25.708C4.78197 25.6857 4.8139 25.6628 4.84668 25.6406C6.18385 24.7371 8.19514 24 11 24C13.726 24 15.6963 24.7168 17 25.7109V11.25C17 10.4652 15.7512 7.74999 10.875 7.75ZM25.125 7.75C22.7606 7.75 21.2179 8.58672 20.2695 9.45605C19.7882 9.89731 19.4545 10.3522 19.2461 10.7217C19.1418 10.9065 19.0738 11.0616 19.0342 11.1738C19.0129 11.234 19.0035 11.2702 19 11.2852V25.7109C20.3037 24.7168 22.274 24 25 24C27.8049 24 29.8161 24.7371 31.1533 25.6406C31.1861 25.6628 31.218 25.6857 31.25 25.708V11.25C31.25 10.4652 30.0012 7.74999 25.125 7.75Z" fill="white"/>
</svg>
