<svg width="36" height="36" viewBox="0 0 36 36" fill="none" xmlns="http://www.w3.org/2000/svg">
<path fill-rule="evenodd" clip-rule="evenodd" d="M14.4575 4.75C13.4435 4.74999 12.6218 4.74998 11.9556 4.80441C11.2684 4.86056 10.6591 4.97956 10.0935 5.26772C9.19978 5.72312 8.47312 6.44978 8.01772 7.34355C7.72956 7.9091 7.61056 8.51841 7.55441 9.20558C7.49998 9.87177 7.49999 10.6935 7.5 11.7075V26.9521C7.49998 27.702 7.49996 28.3332 7.54474 28.8255C7.5889 29.3109 7.68827 29.8628 8.04175 30.3082C8.51299 30.902 9.2282 31.2499 9.98624 31.2541C10.5549 31.2572 11.0504 30.9947 11.4595 30.7297C11.8745 30.461 12.371 30.0714 12.9609 29.6085L14.9122 28.0773C16.3095 26.9809 16.7866 26.631 17.2756 26.4977C17.7491 26.3686 18.2486 26.3686 18.7221 26.4977C19.2111 26.631 19.6882 26.9809 21.0855 28.0773L23.0368 29.6085C23.6267 30.0714 24.1232 30.461 24.5382 30.7297C24.9473 30.9947 25.4428 31.2572 26.0115 31.2541C26.7695 31.2499 27.4847 30.902 27.9559 30.3082C28.3094 29.8628 28.4088 29.3109 28.453 28.8255C28.4977 28.3331 28.4977 27.702 28.4977 26.9521V11.7076C28.4977 10.6935 28.4977 9.8718 28.4433 9.20558C28.3871 8.51841 28.2681 7.9091 27.98 7.34355C27.5246 6.44978 26.7979 5.72312 25.9042 5.26772C25.3386 4.97956 24.7293 4.86056 24.0421 4.80441C23.3759 4.74998 22.5542 4.74999 21.5402 4.75H14.4575ZM11.0015 7.04973C11.2381 6.92917 11.555 6.84381 12.1184 6.79777C12.6936 6.75078 13.4334 6.75 14.5 6.75H21.4977C22.5643 6.75 23.3041 6.75078 23.8793 6.79777C24.4427 6.84381 24.7596 6.92917 24.9962 7.04973C25.5136 7.31338 25.9343 7.73408 26.198 8.25153C26.3185 8.48814 26.4039 8.80496 26.4499 9.36844C26.4969 9.94359 26.4977 10.6834 26.4977 11.75V26.9039C26.4977 27.7149 26.4967 28.2538 26.4612 28.6443C26.4328 28.9561 26.3893 29.0579 26.383 29.0726C26.2909 29.1838 26.1551 29.2501 26.0108 29.2539C25.9954 29.2498 25.888 29.2211 25.6252 29.051C25.296 28.8378 24.8715 28.5059 24.2334 28.0053L22.153 26.3726C20.9929 25.4613 20.1788 24.8218 19.2481 24.5681C18.4302 24.3451 17.5675 24.3451 16.7496 24.5681C15.8189 24.8218 15.0048 25.4613 13.8447 26.3726L11.7643 28.0053C11.1262 28.5059 10.7017 28.8378 10.3725 29.051C10.1097 29.2211 10.0027 29.2497 9.98728 29.2538C9.84301 29.25 9.70694 29.1842 9.6149 29.073C9.6086 29.0583 9.56488 28.956 9.53652 28.6443C9.501 28.2538 9.5 27.7149 9.5 26.9039V11.75C9.5 10.6834 9.50078 9.94359 9.54777 9.36844C9.59381 8.80496 9.67917 8.48814 9.79973 8.25153C10.0634 7.73408 10.4841 7.31338 11.0015 7.04973ZM18.4969 10.6084C18.3379 10.1285 17.6591 10.1285 17.5001 10.6084L16.4116 13.8944C16.3404 14.1092 16.1396 14.2543 15.9133 14.2543H12.4127C11.9016 14.2543 11.6918 14.9103 12.108 15.2068L14.9225 17.2125C15.11 17.3462 15.1886 17.5865 15.1161 17.8052L14.037 21.0628C13.8774 21.5448 14.4266 21.9501 14.8401 21.6555L17.6938 19.6218C17.8762 19.4918 18.1208 19.4918 18.3032 19.6218L21.1569 21.6555C21.5704 21.9501 22.1196 21.5448 21.96 21.0628L20.8809 17.8052C20.8084 17.5865 20.887 17.3462 21.0745 17.2125L23.889 15.2068C24.3052 14.9103 24.0954 14.2543 23.5843 14.2543H20.0837C19.8574 14.2543 19.6565 14.1092 19.5854 13.8944L18.4969 10.6084Z" fill="white"/>
</svg>
