<svg width="36" height="36" viewBox="0 0 36 36" fill="none" xmlns="http://www.w3.org/2000/svg">
<path fill-rule="evenodd" clip-rule="evenodd" d="M14.4573 5.00195C13.4433 5.00194 12.6216 5.00193 11.9554 5.05636C11.2682 5.11251 10.6589 5.23151 10.0933 5.51967C9.19957 5.97507 8.47291 6.70173 8.01751 7.5955C7.72935 8.16105 7.61035 8.77037 7.5542 9.45753C7.49977 10.1237 7.49978 10.9454 7.49979 11.9594V27.1269C7.49977 27.8753 7.49975 28.5054 7.54448 28.9969C7.54583 29.0118 7.54724 29.0268 7.5487 29.0418L9.49979 27.0907C9.49979 27.0867 9.49979 27.0827 9.49979 27.0786V12.002C9.49979 10.9354 9.50057 10.1955 9.54756 9.62039C9.5936 9.05691 9.67896 8.7401 9.79952 8.50348C10.0632 7.98603 10.4839 7.56534 11.0013 7.30169C11.2379 7.18112 11.5548 7.09576 12.1182 7.04972C12.6934 7.00273 13.4332 7.00195 14.4998 7.00195H21.4998C22.5664 7.00195 23.3062 7.00273 23.8814 7.04972C24.4448 7.09576 24.7617 7.18112 24.9983 7.30169C25.5157 7.56534 25.9364 7.98603 26.2001 8.50348C26.3206 8.7401 26.406 9.05691 26.452 9.62039C26.4644 9.77133 26.4735 9.93362 26.4803 10.1102L28.2621 8.32841C28.193 8.07484 28.1023 7.83137 27.9821 7.5955C27.5267 6.70173 26.8 5.97507 25.9062 5.51967C25.3407 5.23151 24.7314 5.11251 24.0442 5.05636C23.378 5.00193 22.5563 5.00194 21.5423 5.00195H14.4573ZM28.4971 10.9218L26.4998 12.9191V27.0786C26.4998 27.8881 26.4988 28.4259 26.4633 28.8157C26.435 29.127 26.3915 29.2285 26.3853 29.2431C26.2933 29.3543 26.1577 29.4208 26.0135 29.4247C25.9981 29.4206 25.8909 29.3922 25.6283 29.2228C25.2994 29.0106 24.8751 28.6801 24.2374 28.1815L22.145 26.5452C20.987 25.6387 20.1744 25.0025 19.246 24.7501C18.43 24.5283 17.5696 24.5283 16.7536 24.7501C15.8252 25.0025 15.0126 25.6387 13.8547 26.5452L11.7622 28.1815C11.1245 28.6801 10.7002 29.0106 10.3713 29.2228C10.1431 29.37 10.0325 29.4107 9.99741 29.4215L8.49648 30.9224C8.92087 31.2418 9.44092 31.4212 9.98307 31.4248C10.5511 31.4286 11.0463 31.1674 11.4555 30.9035C11.8703 30.6359 12.3666 30.2478 12.9561 29.7867L14.9198 28.2512C16.3145 27.1607 16.7905 26.8127 17.2783 26.6801C17.7507 26.5516 18.2489 26.5516 18.7213 26.6801C19.2091 26.8127 19.6851 27.1607 21.0797 28.2512L23.0434 29.7867C23.633 30.2477 24.1293 30.6359 24.5441 30.9035C24.9532 31.1674 25.4485 31.4286 26.0165 31.4248C26.774 31.4198 27.4883 31.0715 27.9588 30.478C28.3117 30.0329 28.411 29.4818 28.4551 28.9969C28.4998 28.5053 28.4998 27.8753 28.4998 27.1269V11.9594C28.4998 11.5884 28.4998 11.2431 28.4971 10.9218Z" fill="white"/>
<path fill-rule="evenodd" clip-rule="evenodd" d="M31.163 4.08196C31.5535 4.47248 31.5535 5.10564 31.163 5.49617L5.70711 30.952C5.31658 31.3425 4.68342 31.3425 4.29289 30.952C3.90237 30.5615 3.90237 29.9283 4.29289 29.5378L29.7487 4.08196C30.1393 3.69143 30.7724 3.69143 31.163 4.08196Z" fill="white"/>
</svg>
