<svg width="36" height="36" viewBox="0 0 36 36" fill="none" xmlns="http://www.w3.org/2000/svg">
<path fill-rule="evenodd" clip-rule="evenodd" d="M17 7.63C16.29 7.05 15.47 6.61 14.51 6.29C13.43 5.93 12.21 5.75 10.87 5.75C9.53 5.75 8.29 5.97 7.17 6.41C6.46 6.7 5.82 7.06 5.23 7.5C5.03 7.65 4.84 7.81 4.66 7.98C4.08 8.51 3.61 9.1 3.25 9.73C3.1 10 2.98 10.26 2.89 10.5C2.81 10.74 2.76 10.96 2.75 11.15V28.5C2.75 28.77 3.19 29 3.75 29C4.3 29 4.75 28.77 4.75 28.5C4.78 28.41 4.86 28.34 4.94 28.23C5.19 27.9 5.53 27.59 5.96 27.29C6.52 26.91 7.18 26.61 7.93 26.4C8.85 26.13 9.87 26 11 26C12.13 26 13.13 26.13 14.01 26.4C14.73 26.63 15.34 26.94 15.84 27.34C16.24 27.66 16.55 28.02 16.75 28.41C16.91 28.72 17 29 17 29.25V7.63ZM19 29.25C19 29 19.08 28.72 19.24 28.41C19.44 28.02 19.75 27.66 20.15 27.34C20.65 26.94 21.26 26.63 21.98 26.4C22.86 26.13 23.86 26 25 26C26.12 26 27.14 26.13 28.06 26.4C28.81 26.61 29.47 26.91 30.03 27.29C30.46 27.59 30.8 27.9 31.05 28.23C31.13 28.34 31.21 28.41 31.25 28.5C31.25 28.77 31.69 29 32.25 29C32.8 29 33.25 28.77 33.25 28.5L33.24 11.1C33.23 10.86 33.19 10.61 33.12 10.36C33.04 10.05 32.91 9.75 32.76 9.45C32.41 8.78 31.92 8.19 31.29 7.66C30.58 7.07 29.74 6.61 28.76 6.29C27.68 5.93 26.46 5.75 25.12 5.75C23.78 5.75 22.54 5.97 21.42 6.41C20.71 6.7 20.07 7.06 19.48 7.5C19.31 7.63 19.15 7.76 19 7.9V29.25Z" fill="white"/>
</svg>
