<svg width="36" height="36" viewBox="0 0 36 36" fill="none" xmlns="http://www.w3.org/2000/svg">
<path fill-rule="evenodd" clip-rule="evenodd" d="M7.75 6.5C7.05965 6.5 6.5 7.05964 6.5 7.75V12.0753H29.4986V7.75C29.4986 7.05964 28.939 6.5 28.2486 6.5H7.75ZM4.5 7.75C4.5 5.95508 5.95507 4.5 7.75 4.5H28.2486C30.0435 4.5 31.4986 5.95507 31.4986 7.75V12.3253C31.4986 13.2122 30.839 13.9449 29.9835 14.0597V26.7486C29.9835 29.372 27.8569 31.4986 25.2335 31.4986H10.7651C8.14171 31.4986 6.01507 29.372 6.01507 26.7486V14.0597C5.15966 13.9449 4.5 13.2122 4.5 12.3253V7.75ZM8.01507 14.0753V26.7486C8.01507 28.2674 9.24628 29.4986 10.7651 29.4986H25.2335C26.7523 29.4986 27.9835 28.2674 27.9835 26.7486V14.0753H8.01507ZM17.3779 19.1354C17.3779 18.5831 17.8256 18.1354 18.3779 18.1354H24.4382C24.9905 18.1354 25.4382 18.5831 25.4382 19.1354C25.4382 19.6877 24.9905 20.1354 24.4382 20.1354H18.3779C17.8256 20.1354 17.3779 19.6877 17.3779 19.1354ZM21.4082 22.681C20.8559 22.681 20.4082 23.1288 20.4082 23.681C20.4082 24.2333 20.8559 24.681 21.4082 24.681H24.4383C24.9906 24.681 25.4383 24.2333 25.4383 23.681C25.4383 23.1288 24.9906 22.681 24.4383 22.681H21.4082Z" fill="white"/>
</svg>
