<svg width="36" height="36" viewBox="0 0 36 36" fill="none" xmlns="http://www.w3.org/2000/svg">
<path fill-rule="evenodd" clip-rule="evenodd" d="M18.0029 3.125C18.5552 3.125 19.0029 3.57272 19.0029 4.125V7.30698C19.0029 7.85926 18.5552 8.30698 18.0029 8.30698C17.4506 8.30698 17.0029 7.85926 17.0029 7.30698V4.125C17.0029 3.57272 17.4506 3.125 18.0029 3.125ZM7.83501 6.42229C7.44449 6.03176 6.81132 6.03176 6.4208 6.42229C6.03027 6.81281 6.03027 7.44598 6.4208 7.8365L8.6708 10.0865C9.06132 10.477 9.69449 10.477 10.085 10.0865C10.4755 9.69598 10.4755 9.06281 10.085 8.67229L7.83501 6.42229ZM27.335 25.9223C26.9445 25.5318 26.3113 25.5318 25.9208 25.9223C25.5303 26.3128 25.5303 26.946 25.9208 27.3365L28.1708 29.5865C28.5613 29.977 29.1945 29.977 29.585 29.5865C29.9755 29.196 29.9755 28.5628 29.585 28.1723L27.335 25.9223ZM29.585 6.42229C29.9755 6.81281 29.9755 7.44598 29.585 7.8365L27.335 10.0865C26.9445 10.477 26.3113 10.477 25.9208 10.0865C25.5303 9.69598 25.5303 9.06281 25.9208 8.67229L28.1708 6.42229C28.5613 6.03176 29.1945 6.03176 29.585 6.42229ZM10.085 27.3365C10.4755 26.946 10.4755 26.3128 10.085 25.9223C9.69448 25.5318 9.06132 25.5318 8.6708 25.9223L6.4208 28.1723C6.03027 28.5628 6.03027 29.196 6.4208 29.5865C6.81132 29.977 7.44449 29.977 7.83501 29.5865L10.085 27.3365ZM19.0029 28.7021C19.0029 28.1499 18.5552 27.7021 18.0029 27.7021C17.4506 27.7021 17.0029 28.1499 17.0029 28.7021L17.0029 31.8841C17.0029 32.4364 17.4506 32.8841 18.0029 32.8841C18.5552 32.8841 19.0029 32.4364 19.0029 31.8841L19.0029 28.7021ZM32.8827 18.0044C32.8827 18.5567 32.4349 19.0044 31.8827 19.0044H28.7007C28.1484 19.0044 27.7007 18.5567 27.7007 18.0044C27.7007 17.4521 28.1484 17.0044 28.7007 17.0044H31.8827C32.4349 17.0044 32.8827 17.4521 32.8827 18.0044ZM7.30551 19.0044C7.8578 19.0044 8.30552 18.5567 8.30551 18.0044C8.30551 17.4521 7.8578 17.0044 7.30551 17.0044L4.12353 17.0044C3.57125 17.0044 3.12354 17.4521 3.12354 18.0044C3.12354 18.5567 3.57125 19.0044 4.12354 19.0044L7.30551 19.0044Z" fill="white"/>
<path fill-rule="evenodd" clip-rule="evenodd" d="M18.0001 12.5015C14.9625 12.5015 12.5001 14.964 12.5001 18.0015C12.5001 21.0391 14.9625 23.5015 18.0001 23.5015C21.0376 23.5015 23.5001 21.0391 23.5001 18.0015C23.5001 14.964 21.0376 12.5015 18.0001 12.5015ZM10.5001 18.0015C10.5001 13.8594 13.8579 10.5015 18.0001 10.5015C22.1422 10.5015 25.5001 13.8594 25.5001 18.0015C25.5001 22.1437 22.1422 25.5015 18.0001 25.5015C13.8579 25.5015 10.5001 22.1437 10.5001 18.0015Z" fill="white"/>
</svg>
