<svg width="36" height="36" viewBox="0 0 36 36" fill="none" xmlns="http://www.w3.org/2000/svg">
<path fill-rule="evenodd" clip-rule="evenodd" d="M26.5 18C31.1944 18 35 21.8056 35 26.5C35 31.1944 31.1944 35 26.5 35C21.8056 35 18 31.1944 18 26.5C18 21.8056 21.8056 18 26.5 18ZM26.501 21.1133C26.0869 21.1133 25.7512 21.4492 25.751 21.8633V25.75H21.8643C21.4502 25.75 21.1145 26.086 21.1143 26.5C21.1145 26.9141 21.4502 27.25 21.8643 27.25H25.751V31.1357C25.751 31.55 26.0868 31.8857 26.501 31.8857C26.9148 31.8853 27.251 31.5497 27.251 31.1357V27.25H31.1367L31.2139 27.2461C31.5916 27.2074 31.8865 26.8879 31.8867 26.5C31.8865 26.1121 31.5916 25.7926 31.2139 25.7539L31.1367 25.75H27.251V21.8633C27.2508 21.4495 26.9147 21.1137 26.501 21.1133Z" fill="white"/>
<path d="M12.1504 25.5C12.7717 25.5 13.2822 26.0037 13.2822 26.625C13.2822 27.2463 12.7717 27.75 12.1504 27.75C11.5292 27.7498 11.0195 27.2462 11.0195 26.625C11.0195 26.0038 11.5292 25.5002 12.1504 25.5Z" fill="white"/>
<path d="M12.1504 21C12.7717 21 13.2822 21.5037 13.2822 22.125C13.2822 22.7463 12.7717 23.25 12.1504 23.25C11.5292 23.2498 11.0195 22.7462 11.0195 22.125C11.0195 21.5038 11.5292 21.0002 12.1504 21Z" fill="white"/>
<path d="M12.1504 16.5C12.7717 16.5 13.2822 17.0037 13.2822 17.625C13.2822 18.2463 12.7717 18.75 12.1504 18.75C11.5292 18.7498 11.0195 18.2462 11.0195 17.625C11.0195 17.0038 11.5292 16.5002 12.1504 16.5Z" fill="white"/>
<path d="M12.1504 12C12.7717 12 13.2822 12.5037 13.2822 13.125C13.2822 13.7463 12.7717 14.25 12.1504 14.25C11.5292 14.2498 11.0195 13.7462 11.0195 13.125C11.0195 12.5038 11.5292 12.0002 12.1504 12Z" fill="white"/>
<path d="M12.1504 7.5C12.7717 7.50004 13.2822 8.00371 13.2822 8.625C13.2822 9.2463 12.7717 9.74997 12.1504 9.75C11.5292 9.74984 11.0195 9.24622 11.0195 8.625C11.0195 8.00379 11.5292 7.50016 12.1504 7.5Z" fill="white"/>
<path fill-rule="evenodd" clip-rule="evenodd" d="M20.4648 3C20.9712 3 21.4191 2.99917 21.7881 3.0293C22.1703 3.06053 22.5666 3.13071 22.9522 3.32715C23.5166 3.61475 23.976 4.07327 24.2637 4.6377C24.4601 5.0232 24.5293 5.41959 24.5605 5.80176C24.5907 6.17086 24.5898 6.61852 24.5898 7.125V9H26.4941C26.8269 8.99998 27.1331 9.00023 27.3887 9.02442C27.6642 9.05053 27.966 9.11023 28.2637 9.28614C28.6894 9.53778 29.036 9.93972 29.2529 10.4336C29.4045 10.7789 29.456 11.1287 29.4785 11.4482C29.4994 11.7447 29.4991 12.0993 29.499 12.4854V16.957C28.5523 16.6598 27.5448 16.5 26.5 16.5C26.3465 16.5 26.1938 16.5039 26.042 16.5107C25.8889 16.0686 25.4671 15.7502 24.9736 15.75C24.3577 15.7502 23.8503 16.2454 23.8418 16.8594C19.6095 18.0237 16.5 21.8978 16.5 26.5C16.5 28.982 17.4064 31.2509 18.9033 32.999C18.7859 32.9989 18.672 32.9983 18.5625 32.9971V33H10.625C10.1185 33 9.67086 33.0009 9.30176 32.9707C8.91957 32.9395 8.52322 32.8693 8.1377 32.6729C7.57348 32.3853 7.11472 31.9265 6.82715 31.3623C6.63072 30.9768 6.56053 30.5804 6.5293 30.1982C6.49914 29.8291 6.5 29.3815 6.5 28.875V7.125C6.5 6.61852 6.49914 6.17086 6.5293 5.80176C6.56053 5.41957 6.63072 5.02322 6.82715 4.6377C7.11472 4.07348 7.57348 3.61472 8.1377 3.32715C8.52322 3.13072 8.91957 3.06053 9.30176 3.0293C9.67086 2.99914 10.1185 3 10.625 3H20.4648ZM10.625 5.25C10.0816 5.25 9.74154 5.25057 9.48535 5.27149C9.24227 5.29135 9.1747 5.32413 9.15918 5.33203C9.01836 5.40389 8.90389 5.51836 8.83203 5.65918C8.82413 5.6747 8.79135 5.74227 8.77149 5.98535C8.75057 6.24154 8.75 6.58158 8.75 7.125V28.875C8.75 29.4184 8.75057 29.7585 8.77149 30.0147C8.79134 30.2577 8.82411 30.3253 8.83203 30.3408C8.90388 30.4816 9.01837 30.5961 9.15918 30.668C9.1747 30.6759 9.24228 30.7087 9.48535 30.7285C9.74154 30.7494 10.0816 30.75 10.625 30.75H15.9609C15.9533 30.6829 15.947 30.6167 15.9424 30.5518C15.9215 30.2553 15.9219 29.9007 15.9219 29.5147V12.4854C15.9219 12.0993 15.9215 11.7447 15.9424 11.4482C15.9649 11.1286 16.0173 10.779 16.1689 10.4336C16.3858 9.93983 16.7316 9.53782 17.1572 9.28614C17.4549 9.11021 17.7568 9.05056 18.0322 9.02442C18.2878 9.0002 18.5939 8.99998 18.9268 9H22.3398V7.125C22.3398 6.58156 22.3393 6.24155 22.3184 5.98535C22.2985 5.74228 22.2667 5.6747 22.2588 5.65918C22.1869 5.51815 22.0717 5.40391 21.9307 5.33203C21.9151 5.32412 21.8483 5.29134 21.6055 5.27149C21.3493 5.25055 21.0084 5.25 20.4648 5.25H10.625ZM20.4473 15.75C19.8262 15.7503 19.3164 16.2539 19.3164 16.875C19.3167 17.4959 19.8264 17.9997 20.4473 18C21.0684 18 21.5788 17.4961 21.5791 16.875C21.5791 16.2537 21.0686 15.75 20.4473 15.75ZM20.4473 12C19.8262 12.0003 19.3164 12.5039 19.3164 13.125C19.3167 13.7459 19.8264 14.2497 20.4473 14.25C21.0684 14.25 21.5788 13.7461 21.5791 13.125C21.5791 12.5037 21.0686 12 20.4473 12ZM24.9736 12C24.3524 12.0002 23.8418 12.5038 23.8418 13.125C23.8421 13.746 24.3526 14.2498 24.9736 14.25C25.5946 14.2498 26.1042 13.7459 26.1045 13.125C26.1045 12.5038 25.5947 12.0002 24.9736 12Z" fill="white"/>
</svg>
