<svg width="36" height="36" viewBox="0 0 36 36" fill="none" xmlns="http://www.w3.org/2000/svg">
<path fill-rule="evenodd" clip-rule="evenodd" d="M10.0833 3C9.59395 2.99998 9.16084 2.99996 8.80189 3.02928C8.41966 3.06051 8.0236 3.13052 7.63803 3.32698C7.07354 3.6146 6.6146 4.07354 6.32698 4.63803C6.13052 5.0236 6.06051 5.41966 6.02928 5.80189C5.99996 6.16084 5.99998 6.59395 6 7.08334V28.9167C5.99998 29.406 5.99996 29.8392 6.02928 30.1981C6.06051 30.5803 6.13052 30.9764 6.32698 31.362C6.6146 31.9265 7.07354 32.3854 7.63803 32.673C8.0236 32.8695 8.41966 32.9395 8.80189 32.9707C9.16083 33 9.59394 33 10.0833 33L26.5143 33C26.9005 33 27.2553 33 27.5518 32.9758C27.8715 32.9497 28.2213 32.8899 28.5667 32.7139C29.0606 32.4622 29.4622 32.0606 29.7139 31.5667C29.8899 31.2213 29.9497 30.8715 29.9758 30.5518C30 30.2553 30 29.9006 30 29.5144V12.4857C30 12.0995 30 11.7447 29.9758 11.4482C29.9497 11.1285 29.8899 10.7787 29.7139 10.4333C29.4622 9.93935 29.0606 9.53778 28.5667 9.28611C28.2213 9.11009 27.8715 9.05029 27.5518 9.02417C27.2553 8.99995 26.9006 8.99997 26.5144 9H24V7.08331C24 6.59394 24 6.16083 23.9707 5.80189C23.9395 5.41966 23.8695 5.0236 23.673 4.63803C23.3854 4.07354 22.9265 3.6146 22.362 3.32698C21.9764 3.13052 21.5803 3.06051 21.1981 3.02928C20.8392 2.99996 20.406 2.99998 19.9167 3H10.0833ZM17.775 30.75C17.3364 30.75 17.0751 30.7491 16.8814 30.7333C16.7632 30.7236 16.7135 30.7109 16.7002 30.7068C16.6332 30.6715 16.5785 30.6168 16.5432 30.5498C16.5391 30.5365 16.5264 30.4868 16.5167 30.3686C16.5009 30.1749 16.5 29.9136 16.5 29.475V12.525C16.5 12.0864 16.5009 11.8251 16.5167 11.6314C16.5264 11.5132 16.5391 11.4635 16.5432 11.4502C16.5785 11.3832 16.6332 11.3285 16.7002 11.2932C16.7135 11.2891 16.7632 11.2764 16.8814 11.2667C17.0751 11.2509 17.3364 11.25 17.775 11.25H26.475C26.9136 11.25 27.1749 11.2509 27.3686 11.2667C27.4868 11.2764 27.5365 11.2891 27.5498 11.2932C27.6168 11.3285 27.6715 11.3832 27.7068 11.4502C27.7109 11.4635 27.7236 11.5132 27.7333 11.6314C27.7491 11.8251 27.75 12.0864 27.75 12.525V29.475C27.75 29.9136 27.7491 30.1749 27.7333 30.3686C27.7236 30.4868 27.7109 30.5365 27.7068 30.5498C27.6715 30.6168 27.6168 30.6715 27.5498 30.7068C27.5365 30.7109 27.4868 30.7236 27.3686 30.7333C27.1749 30.7491 26.9136 30.75 26.475 30.75H25.5V25.875C25.5 25.2537 24.9963 24.75 24.375 24.75H19.875C19.2537 24.75 18.75 25.2537 18.75 25.875V30.75H17.775ZM21 30.75H23.25V27H21V30.75ZM10.125 30.75H14.2949C14.2862 30.6829 14.2795 30.6167 14.2742 30.5518C14.2499 30.2553 14.25 29.9005 14.25 29.5143V12.4857C14.25 12.0995 14.2499 11.7447 14.2742 11.4482C14.3003 11.1285 14.3601 10.7787 14.5361 10.4333C14.7878 9.93935 15.1893 9.53778 15.6833 9.28611C16.0287 9.11009 16.3785 9.05029 16.6982 9.02417C16.9947 8.99995 17.3494 8.99997 17.7356 9H21.75V7.125C21.75 6.58139 21.7491 6.24134 21.7282 5.98512C21.7083 5.74203 21.6762 5.67502 21.6683 5.65951C21.5963 5.51839 21.4816 5.40365 21.3405 5.33175C21.325 5.32384 21.258 5.29167 21.0149 5.27181C20.7587 5.25088 20.4186 5.25 19.875 5.25H10.125C9.58139 5.25 9.24134 5.25088 8.98512 5.27181C8.74203 5.29167 8.67502 5.32384 8.65951 5.33175C8.51839 5.40365 8.40365 5.51839 8.33175 5.65951C8.32384 5.67502 8.29167 5.74203 8.27181 5.98512C8.25088 6.24134 8.25 6.58139 8.25 7.125V28.875C8.25 29.4186 8.25088 29.7587 8.27181 30.0149C8.29167 30.258 8.32384 30.325 8.33175 30.3405C8.40365 30.4816 8.51839 30.5963 8.65951 30.6683C8.67502 30.6762 8.74203 30.7083 8.98512 30.7282C9.24134 30.7491 9.58139 30.75 10.125 30.75ZM10.5 8.625C10.5 8.00368 11.0037 7.5 11.625 7.5C12.2463 7.5 12.75 8.00368 12.75 8.625C12.75 9.24632 12.2463 9.75 11.625 9.75C11.0037 9.75 10.5 9.24632 10.5 8.625ZM10.5 13.125C10.5 12.5037 11.0037 12 11.625 12C12.2463 12 12.75 12.5037 12.75 13.125C12.75 13.7463 12.2463 14.25 11.625 14.25C11.0037 14.25 10.5 13.7463 10.5 13.125ZM11.625 16.5C11.0037 16.5 10.5 17.0037 10.5 17.625C10.5 18.2463 11.0037 18.75 11.625 18.75C12.2463 18.75 12.75 18.2463 12.75 17.625C12.75 17.0037 12.2463 16.5 11.625 16.5ZM10.5 22.125C10.5 21.5037 11.0037 21 11.625 21C12.2463 21 12.75 21.5037 12.75 22.125C12.75 22.7463 12.2463 23.25 11.625 23.25C11.0037 23.25 10.5 22.7463 10.5 22.125ZM11.625 25.5C11.0037 25.5 10.5 26.0037 10.5 26.625C10.5 27.2463 11.0037 27.75 11.625 27.75C12.2463 27.75 12.75 27.2463 12.75 26.625C12.75 26.0037 12.2463 25.5 11.625 25.5ZM19.875 13.5C19.2537 13.5 18.75 14.0037 18.75 14.625C18.75 15.2463 19.2537 15.75 19.875 15.75C20.4963 15.75 21 15.2463 21 14.625C21 14.0037 20.4963 13.5 19.875 13.5ZM19.875 17.25C19.2537 17.25 18.75 17.7537 18.75 18.375C18.75 18.9963 19.2537 19.5 19.875 19.5C20.4963 19.5 21 18.9963 21 18.375C21 17.7537 20.4963 17.25 19.875 17.25ZM18.75 22.125C18.75 21.5037 19.2537 21 19.875 21C20.4963 21 21 21.5037 21 22.125C21 22.7463 20.4963 23.25 19.875 23.25C19.2537 23.25 18.75 22.7463 18.75 22.125ZM24.375 13.5C23.7537 13.5 23.25 14.0037 23.25 14.625C23.25 15.2463 23.7537 15.75 24.375 15.75C24.9963 15.75 25.5 15.2463 25.5 14.625C25.5 14.0037 24.9963 13.5 24.375 13.5ZM23.25 18.375C23.25 17.7537 23.7537 17.25 24.375 17.25C24.9963 17.25 25.5 17.7537 25.5 18.375C25.5 18.9963 24.9963 19.5 24.375 19.5C23.7537 19.5 23.25 18.9963 23.25 18.375ZM24.375 21C23.7537 21 23.25 21.5037 23.25 22.125C23.25 22.7463 23.7537 23.25 24.375 23.25C24.9963 23.25 25.5 22.7463 25.5 22.125C25.5 21.5037 24.9963 21 24.375 21ZM27.5533 30.7056C27.5533 30.7056 27.5536 30.7055 27.5533 30.7056V30.7056ZM27.7054 30.5537L27.7062 30.5514C27.7057 30.553 27.7054 30.5537 27.7054 30.5537ZM27.5537 11.2946L27.5515 11.2938C27.553 11.2943 27.5537 11.2946 27.5537 11.2946ZM16.6963 11.2946C16.6963 11.2946 16.697 11.2943 16.6985 11.2938L16.6963 11.2946ZM16.5446 11.4463L16.5438 11.4485L16.5441 11.4475C16.5444 11.4466 16.5446 11.4463 16.5446 11.4463ZM16.5446 30.5537C16.5446 30.5537 16.5443 30.553 16.5437 30.5514L16.5446 30.5537ZM16.6963 30.7054L16.6985 30.7062C16.697 30.7057 16.6963 30.7054 16.6963 30.7054Z" fill="white"/>
</svg>
