<svg width="36" height="36" viewBox="0 0 36 36" fill="none" xmlns="http://www.w3.org/2000/svg">
<path fill-rule="evenodd" clip-rule="evenodd" d="M10.5833 3H20.507C20.9964 2.99998 21.4295 2.99996 21.7884 3.02928C22.1706 3.06051 22.5667 3.13053 22.9523 3.32698C23.5168 3.6146 23.9757 4.07354 24.2633 4.63803C24.4598 5.0236 24.5298 5.41966 24.561 5.8019C24.5903 6.16083 24.5903 6.59394 24.5903 7.08331V9H26.4947C26.8276 8.99998 27.1334 8.99995 27.3891 9.02418C27.6647 9.0503 27.9662 9.11009 28.264 9.28611C28.6898 9.53778 29.0359 9.93936 29.2529 10.4333C29.4046 10.7787 29.4562 11.1285 29.4787 11.4482C29.4996 11.7447 29.4996 12.0994 29.4995 12.4856V29.5143C29.4996 29.9005 29.4996 30.2553 29.4787 30.5518C29.4562 30.8715 29.4046 31.2213 29.2529 31.5667C29.0359 32.0607 28.6898 32.4622 28.264 32.7139C27.9662 32.8899 27.6647 32.9497 27.3891 32.9758C27.1334 33.0001 26.8276 33 26.4947 33H18.927C18.8012 33 18.6792 33 18.5624 32.9987V33H10.5833C10.0939 33 9.66083 33 9.3019 32.9707C8.91967 32.9395 8.5236 32.8695 8.13803 32.673C7.57355 32.3854 7.1146 31.9265 6.82698 31.362C6.63053 30.9764 6.56052 30.5803 6.52929 30.1981C6.49996 29.8392 6.49998 29.4061 6.5 28.9167V7.08334C6.49998 6.59398 6.49996 6.16082 6.52929 5.8019C6.56052 5.41966 6.63053 5.0236 6.82698 4.63803C7.1146 4.07354 7.57355 3.6146 8.13803 3.32698C8.5236 3.13053 8.91967 3.06051 9.3019 3.02928C9.66084 2.99996 10.094 2.99998 10.5833 3ZM15.9609 30.75C15.9533 30.6829 15.9476 30.6167 15.943 30.5518C15.9221 30.2553 15.9221 29.9006 15.9221 29.5144V12.4857C15.9221 12.0994 15.9221 11.7447 15.943 11.4482C15.9655 11.1285 16.017 10.7787 16.1688 10.4333C16.3857 9.93936 16.7319 9.53778 17.1577 9.28611C17.4555 9.11009 17.757 9.0503 18.0326 9.02418C18.2882 8.99995 18.594 8.99998 18.9269 9H22.3403V7.125C22.3403 6.58139 22.3394 6.24134 22.3185 5.98512C22.2986 5.74203 22.2665 5.67503 22.2586 5.65951C22.1867 5.51839 22.0719 5.40365 21.9308 5.33175C21.9153 5.32384 21.8483 5.29167 21.6052 5.27181C21.349 5.25088 21.0089 5.25 20.4653 5.25H10.625C10.0814 5.25 9.74134 5.25088 9.48512 5.27181C9.24203 5.29167 9.17503 5.32384 9.15951 5.33175C9.01839 5.40365 8.90365 5.51839 8.83175 5.65951C8.82384 5.67503 8.79167 5.74203 8.77181 5.98512C8.75088 6.24134 8.75 6.58139 8.75 7.125V28.875C8.75 29.4186 8.75088 29.7587 8.77181 30.0149C8.79167 30.258 8.82384 30.325 8.83175 30.3405C8.90365 30.4816 9.01839 30.5964 9.15951 30.6683C9.17503 30.6762 9.24203 30.7083 9.48512 30.7282C9.74134 30.7491 10.0814 30.75 10.625 30.75H15.9609ZM11.0195 8.625C11.0195 8.00368 11.5293 7.5 12.1506 7.5C12.7719 7.5 13.2818 8.00368 13.2818 8.625C13.2818 9.24632 12.7719 9.75 12.1506 9.75C11.5293 9.75 11.0195 9.24632 11.0195 8.625ZM11.0195 13.125C11.0195 12.5037 11.5293 12 12.1506 12C12.7719 12 13.2818 12.5037 13.2818 13.125C13.2818 13.7463 12.7719 14.25 12.1506 14.25C11.5293 14.25 11.0195 13.7463 11.0195 13.125ZM12.1506 16.5C11.5293 16.5 11.0195 17.0037 11.0195 17.625C11.0195 18.2463 11.5293 18.75 12.1506 18.75C12.7719 18.75 13.2818 18.2463 13.2818 17.625C13.2818 17.0037 12.7719 16.5 12.1506 16.5ZM11.0195 22.125C11.0195 21.5037 11.5293 21 12.1506 21C12.7719 21 13.2818 21.5037 13.2818 22.125C13.2818 22.7463 12.7719 23.25 12.1506 23.25C11.5293 23.25 11.0195 22.7463 11.0195 22.125ZM12.1506 25.5C11.5293 25.5 11.0195 26.0037 11.0195 26.625C11.0195 27.2463 11.5293 27.75 12.1506 27.75C12.7719 27.75 13.2818 27.2463 13.2818 26.625C13.2818 26.0037 12.7719 25.5 12.1506 25.5ZM19.3166 13.1245C19.3166 12.5032 19.8265 11.9995 20.4478 11.9995C21.0691 11.9995 21.5789 12.5032 21.5789 13.1245C21.5789 13.7458 21.0691 14.2495 20.4478 14.2495C19.8265 14.2495 19.3166 13.7458 19.3166 13.1245ZM19.3166 16.8745C19.3166 16.2532 19.8265 15.7495 20.4478 15.7495C21.0691 15.7495 21.5789 16.2532 21.5789 16.8745C21.5789 17.4958 21.0691 17.9995 20.4478 17.9995C19.8265 17.9995 19.3166 17.4958 19.3166 16.8745ZM20.4478 19.4995C19.8265 19.4995 19.3166 20.0032 19.3166 20.6245C19.3166 21.2458 19.8265 21.7495 20.4478 21.7495C21.0691 21.7495 21.5789 21.2458 21.5789 20.6245C21.5789 20.0032 21.0691 19.4995 20.4478 19.4995ZM23.8423 13.1245C23.8423 12.5032 24.3521 11.9995 24.9734 11.9995C25.5947 11.9995 26.1046 12.5032 26.1046 13.1245C26.1046 13.7458 25.5947 14.2495 24.9734 14.2495C24.3521 14.2495 23.8423 13.7458 23.8423 13.1245ZM24.9734 15.7495C24.3521 15.7495 23.8423 16.2532 23.8423 16.8745C23.8423 17.4958 24.3521 17.9995 24.9734 17.9995C25.5947 17.9995 26.1046 17.4958 26.1046 16.8745C26.1046 16.2532 25.5947 15.7495 24.9734 15.7495ZM23.8423 20.6245C23.8423 20.0032 24.3521 19.4995 24.9734 19.4995C25.5947 19.4995 26.1046 20.0032 26.1046 20.6245C26.1046 21.2458 25.5947 21.7495 24.9734 21.7495C24.3521 21.7495 23.8423 21.2458 23.8423 20.6245ZM20.875 24.7495C20.389 24.7495 19.995 25.2532 19.995 25.8745V30.7495H25.2751V25.8745C25.2751 25.2532 24.8811 24.7495 24.3951 24.7495H20.875Z" fill="white"/>
</svg>
