<svg width="36" height="36" viewBox="0 0 36 36" fill="none" xmlns="http://www.w3.org/2000/svg">
<path fill-rule="evenodd" clip-rule="evenodd" d="M6 15C6 8.37258 11.3726 3 18 3C24.6274 3 30 8.37258 30 15C30 19.0984 27.9444 22.7164 24.8132 24.8795C24.2096 25.2965 23.8253 25.8385 23.7264 26.3991L23.2953 28.8419C23.0082 30.4686 21.7915 31.7316 20.25 32.1232V32.625C20.25 33.6605 19.4105 34.5 18.375 34.5H17.625C16.5895 34.5 15.75 33.6605 15.75 32.625V32.1232C14.2085 31.7316 12.9918 30.4686 12.7047 28.8419L12.2736 26.3991C12.1747 25.8385 11.7904 25.2965 11.1868 24.8795C8.05556 22.7164 6 19.0984 6 15ZM14.4894 26.008C14.4345 25.6969 14.345 25.4023 14.2277 25.125H21.7723C21.655 25.4023 21.5655 25.6969 21.5106 26.008L21.0795 28.4508C20.9214 29.3468 20.1429 30 19.2331 30H16.7669C15.8571 30 15.0786 29.3468 14.9205 28.4508L14.4894 26.008Z" fill="white"/>
</svg>
