<svg width="36" height="36" viewBox="0 0 36 36" fill="none" xmlns="http://www.w3.org/2000/svg">
<path fill-rule="evenodd" clip-rule="evenodd" d="M12.777 3L23.2233 3.00014C24.4425 3.00014 25.4259 3.00014 26.2223 3.06522C27.0422 3.13222 27.7624 3.27377 28.4287 3.61328C29.4871 4.15257 30.3476 5.01309 30.8869 6.07149C31.2264 6.73782 31.368 7.45802 31.435 8.27797C31.5 9.07429 31.5 10.0577 31.5 11.2768V13.5358C31.6173 13.4944 31.7435 13.4718 31.875 13.4718C32.4963 13.4718 33 13.9755 33 14.5968V16.845C33 17.4663 32.4963 17.97 31.875 17.97C31.7435 17.97 31.6173 17.9475 31.5 17.906V30.373C31.5 31.8228 30.3247 32.998 28.875 32.998C27.4253 32.998 26.25 31.8228 26.25 30.373V28.4879H9.75V30.373C9.75 31.8228 8.57475 32.998 7.125 32.998C5.67525 32.998 4.5 31.8228 4.5 30.373V17.8992C4.38271 17.9406 4.25649 17.9632 4.125 17.9632C3.50368 17.9632 3 17.4595 3 16.8382V14.59C3 13.9687 3.50368 13.465 4.125 13.465C4.25651 13.465 4.38274 13.4876 4.50005 13.529L4.50003 11.2769C4.50002 10.0576 4.5 9.07417 4.56507 8.2778C4.63206 7.45783 4.7736 6.73761 5.11311 6.07127C5.65241 5.01285 6.51293 4.15233 7.57136 3.61304C8.2377 3.27353 8.95792 3.132 9.77789 3.06501C10.5742 2.99996 11.5578 2.99998 12.777 3ZM29.25 11.3251V14.2163H6.75005L6.75004 11.325C6.75003 10.0463 6.7509 9.15497 6.8076 8.46101C6.86322 7.78018 6.96691 7.38903 7.11788 7.09275C7.44145 6.4577 7.95777 5.94138 8.59283 5.61781C8.88911 5.46685 9.28026 5.36316 9.96109 5.30754C10.655 5.25085 11.5464 5.24999 12.8251 5.25L23.1751 5.25014C24.4537 5.25015 25.3451 5.25104 26.039 5.30774C26.7198 5.36338 27.111 5.46708 27.4072 5.61804C28.0423 5.94161 28.5586 6.45792 28.8822 7.09296C29.0331 7.38924 29.1368 7.78038 29.1924 8.46119C29.2491 9.15513 29.25 10.0465 29.25 11.3251ZM11.25 23.9816C12.4926 23.9816 13.5 22.9724 13.5 21.7275C13.5 20.4826 12.4926 19.4735 11.25 19.4735C10.0074 19.4735 9 20.4826 9 21.7275C9 22.9724 10.0074 23.9816 11.25 23.9816ZM24.75 23.9816C25.9926 23.9816 27 22.9724 27 21.7275C27 20.4826 25.9926 19.4735 24.75 19.4735C23.5074 19.4735 22.5 20.4826 22.5 21.7275C22.5 22.9724 23.5074 23.9816 24.75 23.9816Z" fill="white"/>
</svg>
