<svg width="36" height="36" viewBox="0 0 36 36" fill="none" xmlns="http://www.w3.org/2000/svg">
<path fill-rule="evenodd" clip-rule="evenodd" d="M32.7139 9.68327C33 10.2448 33 10.9799 33 12.45V23.55C33 25.0201 33 25.7552 32.7139 26.3167C32.4622 26.8106 32.0606 27.2122 31.5667 27.4639C31.0052 27.75 30.2701 27.75 28.8 27.75H28.2C26.7299 27.75 25.9948 27.75 25.4333 27.4639C24.9394 27.2122 24.5378 26.8106 24.2861 26.3167C24 25.7552 24 25.0201 24 23.55V12.45C24 10.9799 24 10.2448 24.2861 9.68327C24.5378 9.18935 24.9394 8.78778 25.4333 8.53611C25.9948 8.25 26.7299 8.25 28.2 8.25H28.8C30.2701 8.25 31.0052 8.25 31.5667 8.53611C32.0606 8.78778 32.4622 9.18935 32.7139 9.68327ZM21 14.1C21 12.8399 21 12.2098 20.7548 11.7285C20.539 11.3052 20.1948 10.961 19.7715 10.7452C19.2902 10.5 18.6601 10.5 17.4 10.5H17.1C15.8399 10.5 15.2098 10.5 14.7285 10.7452C14.3052 10.961 13.961 11.3052 13.7452 11.7285C13.5 12.2098 13.5 12.8399 13.5 14.1V21.9C13.5 23.1601 13.5 23.7902 13.7452 24.2715C13.961 24.6948 14.3052 25.039 14.7285 25.2548C15.2098 25.5 15.8399 25.5 17.1 25.5H17.4C18.6601 25.5 19.2902 25.5 19.7715 25.2548C20.1948 25.039 20.539 24.6948 20.7548 24.2715C21 23.7902 21 23.1601 21 21.9V14.1ZM10.5 14.1C10.5 12.8399 10.5 12.2098 10.2548 11.7285C10.039 11.3052 9.69484 10.961 9.27148 10.7452C8.79018 10.5 8.16012 10.5 6.9 10.5H6.6C5.33988 10.5 4.70982 10.5 4.22852 10.7452C3.80516 10.961 3.46095 11.3052 3.24524 11.7285C3 12.2098 3 12.8399 3 14.1V21.9C3 23.1601 3 23.7902 3.24524 24.2715C3.46095 24.6948 3.80516 25.039 4.22852 25.2548C4.70982 25.5 5.33988 25.5 6.6 25.5H6.9C8.16012 25.5 8.79018 25.5 9.27148 25.2548C9.69484 25.039 10.039 24.6948 10.2548 24.2715C10.5 23.7902 10.5 23.1601 10.5 21.9V14.1Z" fill="white"/>
</svg>
