<svg width="36" height="36" viewBox="0 0 36 36" fill="none" xmlns="http://www.w3.org/2000/svg">
<path fill-rule="evenodd" clip-rule="evenodd" d="M3 29.6242C3 31.4882 4.51104 32.9992 6.375 32.9992H13.1845C15.0484 32.9992 16.5595 31.4882 16.5595 29.6242V22.8148C16.5595 20.9508 15.0484 19.4398 13.1845 19.4398H6.375C4.51104 19.4398 3 20.9508 3 22.8148V29.6242ZM4.63656 12.2902C4.63656 13.671 5.75585 14.7902 7.13656 14.7902H12.4229C13.8036 14.7902 14.9229 13.671 14.9229 12.2902V7.00391C14.9229 5.62319 13.8036 4.50391 12.4229 4.50391H7.13656C5.75585 4.50391 4.63656 5.62319 4.63656 7.0039V12.2902ZM7.13656 12.7902C6.86042 12.7902 6.63656 12.5664 6.63656 12.2902V7.0039C6.63656 6.72776 6.86042 6.50391 7.13656 6.50391H12.4229C12.699 6.50391 12.9229 6.72776 12.9229 7.00391V12.2902C12.9229 12.5664 12.699 12.7902 12.4229 12.7902H7.13656ZM23.709 14.7902C22.3283 14.7902 21.209 13.671 21.209 12.2902V7.0039C21.209 5.62319 22.3283 4.50391 23.709 4.50391H28.9953C30.376 4.50391 31.4953 5.62319 31.4953 7.00391V12.2902C31.4953 13.671 30.376 14.7902 28.9953 14.7902H23.709ZM23.209 12.2902C23.209 12.5664 23.4328 12.7902 23.709 12.7902H28.9953C29.2715 12.7902 29.4953 12.5664 29.4953 12.2902V7.00391C29.4953 6.72776 29.2715 6.50391 28.9953 6.50391H23.709C23.4328 6.50391 23.209 6.72776 23.209 7.0039V12.2902ZM21.209 28.8625C21.209 30.2432 22.3283 31.3625 23.709 31.3625H28.9953C30.376 31.3625 31.4953 30.2432 31.4953 28.8625V23.5762C31.4953 22.1955 30.376 21.0762 28.9953 21.0762H23.709C22.3283 21.0762 21.209 22.1955 21.209 23.5762V28.8625ZM23.709 29.3625C23.4328 29.3625 23.209 29.1387 23.209 28.8625V23.5762C23.209 23.3 23.4328 23.0762 23.709 23.0762H28.9953C29.2715 23.0762 29.4953 23.3 29.4953 23.5762V28.8625C29.4953 29.1387 29.2715 29.3625 28.9953 29.3625H23.709Z" fill="white"/>
</svg>
