<svg width="36" height="36" viewBox="0 0 36 36" fill="none" xmlns="http://www.w3.org/2000/svg">
<path fill-rule="evenodd" clip-rule="evenodd" d="M3.12891 29.7494C3.12891 31.5443 4.58398 32.9994 6.37891 32.9994H13.1785C14.9734 32.9994 16.4285 31.5443 16.4285 29.7494V22.9498C16.4285 21.1549 14.9734 19.6998 13.1785 19.6998H6.37891C4.58398 19.6998 3.12891 21.1549 3.12891 22.9498V29.7494ZM6.37891 30.9994C5.68855 30.9994 5.12891 30.4397 5.12891 29.7494V22.9498C5.12891 22.2595 5.68855 21.6998 6.37891 21.6998H13.1785C13.8688 21.6998 14.4285 22.2595 14.4285 22.9498V29.7494C14.4285 30.4397 13.8688 30.9994 13.1785 30.9994H6.37891ZM4.50586 12.4252C4.50586 13.8749 5.68111 15.0502 7.13086 15.0502H12.4271C13.8769 15.0502 15.0521 13.8749 15.0521 12.4252V7.12891C15.0521 5.67916 13.8769 4.50391 12.4271 4.50391H7.13086C5.68111 4.50391 4.50586 5.67916 4.50586 7.1289V12.4252ZM23.7032 15.0502C22.2535 15.0502 21.0782 13.8749 21.0782 12.4252V7.1289C21.0782 5.67916 22.2535 4.50391 23.7032 4.50391H28.9995C30.4492 4.50391 31.6245 5.67916 31.6245 7.12891V12.4252C31.6245 13.8749 30.4492 15.0502 28.9995 15.0502H23.7032ZM21.0782 28.9974C21.0782 30.4472 22.2535 31.6224 23.7032 31.6224H28.9995C30.4492 31.6224 31.6245 30.4472 31.6245 28.9974V23.7012C31.6245 22.2514 30.4492 21.0762 28.9995 21.0762H23.7032C22.2535 21.0762 21.0782 22.2514 21.0782 23.7012V28.9974Z" fill="white"/>
</svg>
