<svg width="36" height="36" viewBox="0 0 36 36" fill="none" xmlns="http://www.w3.org/2000/svg">
<path fill-rule="evenodd" clip-rule="evenodd" d="M13.7451 9.68327C13.459 10.2448 13.459 10.9799 13.459 12.45V23.55C13.459 25.0201 13.459 25.7552 13.7451 26.3167C13.9968 26.8106 14.3983 27.2122 14.8923 27.4639C15.4538 27.75 16.1888 27.75 17.659 27.75H18.3397C19.8098 27.75 20.5449 27.75 21.1064 27.4639C21.6003 27.2122 22.0019 26.8106 22.2536 26.3167C22.5397 25.7552 22.5397 25.0201 22.5397 23.55V12.45C22.5397 10.9799 22.5397 10.2448 22.2536 9.68327C22.0019 9.18935 21.6003 8.78778 21.1064 8.53611C20.5449 8.25 19.8098 8.25 18.3397 8.25H17.659C16.1888 8.25 15.4538 8.25 14.8923 8.53611C14.3983 8.78778 13.9968 9.18935 13.7451 9.68327ZM5.7668 10.625H7.53029C7.81665 10.625 8.08849 10.6249 8.31742 10.6436C8.56685 10.664 8.85202 10.7115 9.13682 10.8566C9.53666 11.0603 9.86175 11.3854 10.0655 11.7853C10.2106 12.0701 10.2581 12.3552 10.2784 12.6047C10.2971 12.8336 10.2971 13.1054 10.2971 13.3918V22.6082C10.2971 22.8946 10.2971 23.1664 10.2784 23.3953C10.2581 23.6448 10.2106 23.9299 10.0655 24.2147C9.86175 24.6146 9.53666 24.9397 9.13682 25.1434C8.85202 25.2885 8.56685 25.336 8.31742 25.3564C8.08848 25.3751 7.81664 25.375 7.53027 25.375H5.76682C5.48045 25.375 5.20861 25.3751 4.97967 25.3564C4.73024 25.336 4.44507 25.2885 4.16027 25.1434C3.76043 24.9397 3.43535 24.6146 3.23162 24.2147C3.08651 23.9299 3.03903 23.6448 3.01865 23.3953C2.99995 23.1664 2.99997 22.8946 3 22.6082V13.3918C2.99997 13.1054 2.99995 12.8336 3.01865 12.6047C3.03903 12.3552 3.08651 12.0701 3.23162 11.7853C3.43535 11.3854 3.76043 11.0603 4.16027 10.8566C4.44507 10.7115 4.73024 10.664 4.97967 10.6436C5.20861 10.6249 5.48044 10.625 5.7668 10.625ZM5.05303 12.6478C5.0413 12.6561 5.03107 12.6663 5.0228 12.678C5.02004 12.6931 5.01579 12.7213 5.01201 12.7675C5.00078 12.905 5 13.0935 5 13.425V22.575C5 22.9065 5.00078 23.095 5.01201 23.2325C5.01579 23.2787 5.02004 23.3069 5.0228 23.322C5.03107 23.3337 5.0413 23.3439 5.05303 23.3522C5.06808 23.355 5.09632 23.3592 5.14254 23.363C5.27997 23.3742 5.46847 23.375 5.8 23.375H7.49709C7.82862 23.375 8.01712 23.3742 8.15455 23.363C8.20077 23.3592 8.22901 23.355 8.24406 23.3522C8.2558 23.3439 8.26602 23.3337 8.27429 23.322C8.27705 23.3069 8.28131 23.2787 8.28508 23.2325C8.29631 23.095 8.29709 22.9065 8.29709 22.575V13.425C8.29709 13.0935 8.29631 12.905 8.28508 12.7675C8.28131 12.7213 8.27705 12.6931 8.27429 12.678C8.26602 12.6663 8.2558 12.6561 8.24406 12.6478C8.22901 12.645 8.20077 12.6408 8.15455 12.637C8.01712 12.6258 7.82862 12.625 7.49709 12.625H5.8C5.46847 12.625 5.27997 12.6258 5.14254 12.637C5.09632 12.6408 5.06808 12.645 5.05303 12.6478ZM28.4699 10.625H30.2334C30.5198 10.625 30.7916 10.6249 31.0205 10.6436C31.27 10.664 31.5551 10.7115 31.8399 10.8566C32.2398 11.0603 32.5649 11.3854 32.7686 11.7853C32.9137 12.0701 32.9612 12.3552 32.9816 12.6047C33.0003 12.8336 33.0002 13.1054 33.0002 13.3918V22.6082C33.0002 22.8946 33.0003 23.1664 32.9816 23.3953C32.9612 23.6448 32.9137 23.9299 32.7686 24.2147C32.5649 24.6146 32.2398 24.9397 31.8399 25.1434C31.5551 25.2885 31.27 25.336 31.0205 25.3564C30.7916 25.3751 30.5198 25.375 30.2334 25.375H28.4699C28.1836 25.375 27.9117 25.3751 27.6828 25.3564C27.4334 25.336 27.1482 25.2885 26.8634 25.1434C26.4636 24.9397 26.1385 24.6146 25.9347 24.2147C25.7896 23.9299 25.7422 23.6448 25.7218 23.3953C25.7031 23.1664 25.7031 22.8946 25.7031 22.6082V13.3918C25.7031 13.1054 25.7031 12.8336 25.7218 12.6047C25.7422 12.3552 25.7896 12.0701 25.9347 11.7853C26.1385 11.3854 26.4636 11.0603 26.8634 10.8566C27.1482 10.7115 27.4334 10.664 27.6828 10.6436C27.9117 10.6249 28.1836 10.625 28.4699 10.625ZM27.7562 12.6478C27.7444 12.6561 27.7342 12.6663 27.7259 12.678C27.7232 12.6931 27.7189 12.7213 27.7151 12.7675C27.7039 12.905 27.7031 13.0935 27.7031 13.425V22.575C27.7031 22.9065 27.7039 23.095 27.7151 23.2325C27.7189 23.2787 27.7232 23.3069 27.7259 23.322C27.7342 23.3337 27.7444 23.3439 27.7562 23.3522C27.7712 23.355 27.7994 23.3592 27.8457 23.363C27.9831 23.3742 28.1716 23.375 28.5031 23.375H30.2002C30.5317 23.375 30.7202 23.3742 30.8577 23.363C30.9039 23.3592 30.9321 23.355 30.9472 23.3522C30.9589 23.3439 30.9691 23.3337 30.9774 23.322C30.9802 23.3069 30.9844 23.2787 30.9882 23.2325C30.9994 23.095 31.0002 22.9065 31.0002 22.575V13.425C31.0002 13.0935 30.9994 12.905 30.9882 12.7675C30.9844 12.7213 30.9802 12.6931 30.9774 12.678C30.9691 12.6663 30.9589 12.6561 30.9472 12.6478C30.9321 12.645 30.9039 12.6408 30.8577 12.637C30.7202 12.6258 30.5317 12.625 30.2002 12.625H28.5031C28.1716 12.625 27.9831 12.6258 27.8457 12.637C27.7994 12.6408 27.7712 12.645 27.7562 12.6478Z" fill="white"/>
</svg>
