<svg width="36" height="36" viewBox="0 0 36 36" fill="none" xmlns="http://www.w3.org/2000/svg">
<path fill-rule="evenodd" clip-rule="evenodd" d="M3.36785 7.84278C3 8.56473 3 9.50982 3 11.4V24.6C3 26.4902 3 27.4353 3.36785 28.1572C3.69143 28.7923 4.20774 29.3086 4.84278 29.6321C5.56473 30 6.50982 30 8.4 30H12.6C14.4902 30 15.4353 30 16.1572 29.6321C16.7923 29.3086 17.3086 28.7923 17.6321 28.1572C18 27.4353 18 26.4902 18 24.6V11.4C18 9.50982 18 8.56473 17.6321 7.84278C17.3086 7.20774 16.7923 6.69143 16.1572 6.36785C15.4353 6 14.4902 6 12.6 6H8.4C6.50982 6 5.56473 6 4.84278 6.36785C4.20774 6.69143 3.69143 7.20774 3.36785 7.84278ZM25.6856 9.125C25.0891 9.12498 24.582 9.12497 24.1658 9.15898C23.7287 9.19468 23.3046 9.27281 22.8995 9.47923C22.288 9.79082 21.7908 10.288 21.4792 10.8995C21.2728 11.3046 21.1947 11.7287 21.159 12.1658C21.125 12.582 21.125 13.0891 21.125 13.6856V22.3144C21.125 22.9109 21.125 23.418 21.159 23.8342C21.1947 24.2713 21.2728 24.6954 21.4792 25.1005C21.7908 25.712 22.288 26.2092 22.8995 26.5208C23.3046 26.7272 23.7287 26.8053 24.1658 26.841C24.582 26.875 25.0891 26.875 25.6856 26.875H28.3144C28.9109 26.875 29.418 26.875 29.8342 26.841C30.2713 26.8053 30.6954 26.7272 31.1005 26.5208C31.712 26.2092 32.2092 25.712 32.5208 25.1005C32.7272 24.6954 32.8053 24.2713 32.841 23.8342C32.875 23.418 32.875 22.9109 32.875 22.3144V13.6856C32.875 13.0891 32.875 12.582 32.841 12.1658C32.8053 11.7287 32.7272 11.3046 32.5208 10.8995C32.2092 10.288 31.712 9.79082 31.1005 9.47923C30.6954 9.27281 30.2713 9.19468 29.8342 9.15898C29.418 9.12497 28.9109 9.12498 28.3144 9.125H25.6856ZM23.8075 11.2612C23.8837 11.2224 24.0153 11.1779 24.3286 11.1523C24.6537 11.1258 25.0784 11.125 25.725 11.125H28.275C28.9216 11.125 29.3463 11.1258 29.6714 11.1523C29.9847 11.1779 30.1163 11.2224 30.1925 11.2612C30.4277 11.3811 30.6189 11.5723 30.7388 11.8075C30.7776 11.8837 30.8221 12.0153 30.8477 12.3286C30.8742 12.6537 30.875 13.0784 30.875 13.725V22.275C30.875 22.9216 30.8742 23.3463 30.8477 23.6714C30.8221 23.9847 30.7776 24.1163 30.7388 24.1925C30.6189 24.4277 30.4277 24.6189 30.1925 24.7388C30.1163 24.7776 29.9847 24.8221 29.6714 24.8477C29.3463 24.8742 28.9216 24.875 28.275 24.875H25.725C25.0784 24.875 24.6537 24.8742 24.3286 24.8477C24.0153 24.8221 23.8837 24.7776 23.8075 24.7388C23.5723 24.6189 23.3811 24.4277 23.2612 24.1925C23.2224 24.1163 23.1779 23.9847 23.1523 23.6714C23.1258 23.3463 23.125 22.9216 23.125 22.275V13.725C23.125 13.0784 23.1258 12.6537 23.1523 12.3286C23.1779 12.0153 23.2224 11.8837 23.2612 11.8075C23.3811 11.5723 23.5723 11.3811 23.8075 11.2612Z" fill="white"/>
</svg>
