<svg width="36" height="36" viewBox="0 0 36 36" fill="none" xmlns="http://www.w3.org/2000/svg">
<path fill-rule="evenodd" clip-rule="evenodd" d="M6.375 3C4.51104 3 3 4.51104 3 6.375V13.125C3 14.989 4.51104 16.5 6.375 16.5H13.125C14.989 16.5 16.5 14.989 16.5 13.125V6.375C16.5 4.51104 14.989 3 13.125 3H6.375ZM23.625 4.625C22.2443 4.625 21.125 5.74429 21.125 7.125V12.375C21.125 13.7557 22.2443 14.875 23.625 14.875H28.875C30.2557 14.875 31.375 13.7557 31.375 12.375V7.125C31.375 5.74429 30.2557 4.625 28.875 4.625H23.625ZM23.125 7.125C23.125 6.84886 23.3489 6.625 23.625 6.625H28.875C29.1511 6.625 29.375 6.84886 29.375 7.125V12.375C29.375 12.6511 29.1511 12.875 28.875 12.875H23.625C23.3489 12.875 23.125 12.6511 23.125 12.375V7.125ZM21.125 23.625C21.125 22.2443 22.2443 21.125 23.625 21.125H28.875C30.2557 21.125 31.375 22.2443 31.375 23.625V28.875C31.375 30.2557 30.2557 31.375 28.875 31.375H23.625C22.2443 31.375 21.125 30.2557 21.125 28.875V23.625ZM23.625 23.125C23.3489 23.125 23.125 23.3489 23.125 23.625V28.875C23.125 29.1511 23.3489 29.375 23.625 29.375H28.875C29.1511 29.375 29.375 29.1511 29.375 28.875V23.625C29.375 23.3489 29.1511 23.125 28.875 23.125H23.625ZM7.125 21.125C5.74429 21.125 4.625 22.2443 4.625 23.625V28.875C4.625 30.2557 5.74429 31.375 7.125 31.375H12.375C13.7557 31.375 14.875 30.2557 14.875 28.875V23.625C14.875 22.2443 13.7557 21.125 12.375 21.125H7.125ZM6.625 23.625C6.625 23.3489 6.84886 23.125 7.125 23.125H12.375C12.6511 23.125 12.875 23.3489 12.875 23.625V28.875C12.875 29.1511 12.6511 29.375 12.375 29.375H7.125C6.84886 29.375 6.625 29.1511 6.625 28.875V23.625Z" fill="white"/>
</svg>
