<svg width="36" height="36" viewBox="0 0 36 36" fill="none" xmlns="http://www.w3.org/2000/svg">
<path fill-rule="evenodd" clip-rule="evenodd" d="M29.625 3C31.489 3 33 4.51104 33 6.375V13.1845C33 15.0484 31.489 16.5595 29.625 16.5595H22.8155C20.9516 16.5595 19.4405 15.0484 19.4405 13.1845V6.375C19.4405 4.51104 20.9516 3 22.8155 3H29.625ZM12.291 4.63656C13.6717 4.63656 14.791 5.75585 14.791 7.13656V12.4229C14.791 13.8036 13.6717 14.9229 12.291 14.9229H7.00467C5.62396 14.9229 4.50467 13.8036 4.50467 12.4229V7.13656C4.50467 5.75585 5.62395 4.63656 7.00467 4.63656H12.291ZM12.791 7.13656C12.791 6.86042 12.5672 6.63656 12.291 6.63656H7.00467C6.72853 6.63656 6.50467 6.86042 6.50467 7.13656V12.4229C6.50467 12.699 6.72853 12.9229 7.00467 12.9229H12.291C12.5672 12.9229 12.791 12.699 12.791 12.4229V7.13656ZM14.791 23.709C14.791 22.3283 13.6717 21.209 12.291 21.209H7.00467C5.62395 21.209 4.50467 22.3283 4.50467 23.709V28.9953C4.50467 30.376 5.62396 31.4953 7.00467 31.4953H12.291C13.6717 31.4953 14.791 30.376 14.791 28.9953V23.709ZM12.291 23.209C12.5672 23.209 12.791 23.4328 12.791 23.709V28.9953C12.791 29.2715 12.5672 29.4953 12.291 29.4953H7.00467C6.72853 29.4953 6.50467 29.2715 6.50467 28.9953V23.709C6.50467 23.4328 6.72853 23.209 7.00467 23.209H12.291ZM28.8633 21.209C30.244 21.209 31.3633 22.3283 31.3633 23.709V28.9953C31.3633 30.376 30.244 31.4953 28.8633 31.4953H23.5769C22.1962 31.4953 21.0769 30.376 21.0769 28.9953V23.709C21.0769 22.3283 22.1962 21.209 23.5769 21.209H28.8633ZM29.3633 23.709C29.3633 23.4328 29.1394 23.209 28.8633 23.209H23.5769C23.3008 23.209 23.0769 23.4328 23.0769 23.709V28.9953C23.0769 29.2715 23.3008 29.4953 23.5769 29.4953H28.8633C29.1394 29.4953 29.3633 29.2715 29.3633 28.9953V23.709Z" fill="white"/>
</svg>
