<svg width="36" height="36" viewBox="0 0 36 36" fill="none" xmlns="http://www.w3.org/2000/svg">
<path fill-rule="evenodd" clip-rule="evenodd" d="M13.5 12.45C13.5 10.9799 13.5 10.2448 13.7861 9.68327C14.0378 9.18935 14.4393 8.78778 14.9333 8.53611C15.4948 8.25 16.2299 8.25 17.7 8.25H18.3C19.7701 8.25 20.5052 8.25 21.0667 8.53611C21.5606 8.78778 21.9622 9.18935 22.2139 9.68327C22.5 10.2448 22.5 10.9799 22.5 12.45V23.55C22.5 25.0201 22.5 25.7552 22.2139 26.3167C21.9622 26.8106 21.5606 27.2122 21.0667 27.4639C20.5052 27.75 19.7701 27.75 18.3 27.75H17.7C16.2299 27.75 15.4948 27.75 14.9333 27.4639C14.4393 27.2122 14.0378 26.8106 13.7861 26.3167C13.5 25.7552 13.5 25.0201 13.5 23.55V12.45ZM3 14.1C3 12.8399 3 12.2098 3.24524 11.7285C3.46095 11.3052 3.80516 10.961 4.22852 10.7452C4.70982 10.5 5.33988 10.5 6.6 10.5H6.9C8.16012 10.5 8.79018 10.5 9.27148 10.7452C9.69484 10.961 10.039 11.3052 10.2548 11.7285C10.5 12.2098 10.5 12.8399 10.5 14.1V21.9C10.5 23.1601 10.5 23.7902 10.2548 24.2715C10.039 24.6948 9.69484 25.039 9.27148 25.2548C8.79018 25.5 8.16012 25.5 6.9 25.5H6.6C5.33988 25.5 4.70982 25.5 4.22852 25.2548C3.80516 25.039 3.46095 24.6948 3.24524 24.2715C3 23.7902 3 23.1601 3 21.9V14.1ZM25.7452 11.7285C25.5 12.2098 25.5 12.8399 25.5 14.1V21.9C25.5 23.1601 25.5 23.7902 25.7452 24.2715C25.961 24.6948 26.3052 25.039 26.7285 25.2548C27.2098 25.5 27.8399 25.5 29.1 25.5H29.4C30.6601 25.5 31.2902 25.5 31.7715 25.2548C32.1948 25.039 32.539 24.6948 32.7548 24.2715C33 23.7902 33 23.1601 33 21.9V14.1C33 12.8399 33 12.2098 32.7548 11.7285C32.539 11.3052 32.1948 10.961 31.7715 10.7452C31.2902 10.5 30.6601 10.5 29.4 10.5H29.1C27.8399 10.5 27.2098 10.5 26.7285 10.7452C26.3052 10.961 25.961 11.3052 25.7452 11.7285Z" fill="white"/>
</svg>
