<svg width="36" height="36" viewBox="0 0 36 36" fill="none" xmlns="http://www.w3.org/2000/svg">
<path fill-rule="evenodd" clip-rule="evenodd" d="M3.36785 7.84278C3 8.56473 3 9.50982 3 11.4V24.6C3 26.4902 3 27.4353 3.36785 28.1572C3.69143 28.7923 4.20774 29.3086 4.84278 29.6321C5.56473 30 6.50982 30 8.4 30H12.6C14.4902 30 15.4353 30 16.1572 29.6321C16.7923 29.3086 17.3086 28.7923 17.6321 28.1572C18 27.4353 18 26.4902 18 24.6V11.4C18 9.50982 18 8.56473 17.6321 7.84278C17.3086 7.20774 16.7923 6.69143 16.1572 6.36785C15.4353 6 14.4902 6 12.6 6H8.4C6.50982 6 5.56473 6 4.84278 6.36785C4.20774 6.69143 3.69143 7.20774 3.36785 7.84278ZM21.3679 10.8428C21 11.5647 21 12.5098 21 14.4V21.6C21 23.4902 21 24.4353 21.3679 25.1572C21.6914 25.7923 22.2077 26.3086 22.8428 26.6321C23.5647 27 24.5098 27 26.4 27H27.6C29.4902 27 30.4353 27 31.1572 26.6321C31.7923 26.3086 32.3086 25.7923 32.6321 25.1572C33 24.4353 33 23.4902 33 21.6V14.4C33 12.5098 33 11.5647 32.6321 10.8428C32.3086 10.2077 31.7923 9.69143 31.1572 9.36785C30.4353 9 29.4902 9 27.6 9H26.4C24.5098 9 23.5647 9 22.8428 9.36785C22.2077 9.69143 21.6914 10.2077 21.3679 10.8428Z" fill="white"/>
</svg>
