<svg width="36" height="36" viewBox="0 0 36 36" fill="none" xmlns="http://www.w3.org/2000/svg">
<path fill-rule="evenodd" clip-rule="evenodd" d="M32.7105 9.68327C32.9966 10.2448 32.9966 10.9799 32.9966 12.45V23.55C32.9966 25.0201 32.9966 25.7552 32.7105 26.3167C32.4588 26.8106 32.0572 27.2122 31.5633 27.4639C31.0018 27.75 30.2667 27.75 28.7966 27.75H28.1589C26.6888 27.75 25.9537 27.75 25.3922 27.4639C24.8983 27.2122 24.4967 26.8106 24.245 26.3167C23.9589 25.7552 23.9589 25.0201 23.9589 23.55V12.45C23.9589 10.9799 23.9589 10.2448 24.245 9.68327C24.4967 9.18935 24.8983 8.78778 25.3922 8.53611C25.9537 8.25 26.6888 8.25 28.1589 8.25H28.7966C30.2667 8.25 31.0018 8.25 31.5633 8.53611C32.0572 8.78778 32.4588 9.18935 32.7105 9.68327ZM18.0499 10.625H16.3115C16.0251 10.625 15.7533 10.6249 15.5244 10.6436C15.2749 10.664 14.9898 10.7115 14.705 10.8566C14.3051 11.0603 13.98 11.3854 13.7763 11.7853C13.6312 12.0701 13.5837 12.3552 13.5633 12.6047C13.5446 12.8336 13.5447 13.1054 13.5447 13.3918V22.6082C13.5447 22.8946 13.5446 23.1664 13.5633 23.3953C13.5837 23.6448 13.6312 23.9299 13.7763 24.2147C13.98 24.6146 14.3051 24.9397 14.705 25.1434C14.9898 25.2885 15.2749 25.336 15.5244 25.3564C15.7533 25.3751 16.0251 25.375 16.3115 25.375H18.0498C18.3362 25.375 18.6081 25.3751 18.837 25.3564C19.0864 25.336 19.3716 25.2885 19.6564 25.1434C20.0562 24.9397 20.3813 24.6146 20.5851 24.2147C20.7302 23.9299 20.7776 23.6448 20.798 23.3953C20.8167 23.1664 20.8167 22.8946 20.8167 22.6082V13.3918C20.8167 13.1055 20.8167 12.8336 20.798 12.6047C20.7776 12.3552 20.7302 12.0701 20.5851 11.7853C20.3813 11.3854 20.0562 11.0603 19.6564 10.8566C19.3716 10.7115 19.0864 10.664 18.837 10.6436C18.6081 10.6249 18.3362 10.625 18.0499 10.625ZM18.7636 12.6478C18.7754 12.6561 18.7856 12.6663 18.7939 12.678C18.7966 12.6931 18.8009 12.7213 18.8047 12.7675C18.8159 12.905 18.8167 13.0935 18.8167 13.425V22.575C18.8167 22.9065 18.8159 23.095 18.8047 23.2325C18.8009 23.2787 18.7966 23.3069 18.7939 23.322C18.7856 23.3337 18.7754 23.3439 18.7636 23.3522C18.7486 23.355 18.7203 23.3592 18.6741 23.363C18.5367 23.3742 18.3482 23.375 18.0167 23.375H16.3447C16.0132 23.375 15.8247 23.3742 15.6872 23.363C15.641 23.3592 15.6128 23.355 15.5977 23.3522C15.586 23.3439 15.5758 23.3337 15.5675 23.322C15.5647 23.3069 15.5605 23.2787 15.5567 23.2325C15.5455 23.095 15.5447 22.9065 15.5447 22.575V13.425C15.5447 13.0935 15.5455 12.905 15.5567 12.7675C15.5605 12.7213 15.5647 12.6931 15.5675 12.678C15.5758 12.6663 15.586 12.6561 15.5977 12.6478C15.6128 12.645 15.641 12.6408 15.6872 12.637C15.8247 12.6258 16.0132 12.625 16.3447 12.625H18.0167C18.3482 12.625 18.5367 12.6258 18.6741 12.637C18.7203 12.6408 18.7486 12.645 18.7636 12.6478ZM7.50517 10.625H5.7668C5.48044 10.625 5.20861 10.6249 4.97968 10.6436C4.73024 10.664 4.44507 10.7115 4.16027 10.8566C3.76043 11.0603 3.43535 11.3854 3.23162 11.7853C3.08651 12.0701 3.03903 12.3552 3.01865 12.6047C2.99995 12.8336 2.99998 13.1054 3 13.3917V22.6082C2.99998 22.8945 2.99995 23.1664 3.01865 23.3953C3.03903 23.6448 3.08651 23.9299 3.23162 24.2147C3.43535 24.6146 3.76043 24.9397 4.16027 25.1434C4.44507 25.2885 4.73024 25.336 4.97968 25.3564C5.20861 25.3751 5.48045 25.375 5.76682 25.375H7.50515C7.79152 25.375 8.06336 25.3751 8.2923 25.3564C8.54174 25.336 8.82691 25.2885 9.1117 25.1434C9.51155 24.9397 9.83663 24.6146 10.0404 24.2147C10.1855 23.9299 10.2329 23.6448 10.2533 23.3953C10.272 23.1664 10.272 22.8946 10.272 22.6082V13.3918C10.272 13.1054 10.272 12.8336 10.2533 12.6047C10.2329 12.3552 10.1855 12.0701 10.0404 11.7853C9.83663 11.3854 9.51155 11.0603 9.1117 10.8566C8.82691 10.7115 8.54174 10.664 8.2923 10.6436C8.06337 10.6249 7.79153 10.625 7.50517 10.625ZM8.21894 12.6478C8.23068 12.6561 8.24091 12.6663 8.24917 12.678C8.25193 12.6931 8.25619 12.7213 8.25996 12.7675C8.27119 12.905 8.27197 13.0935 8.27197 13.425V22.575C8.27197 22.9065 8.27119 23.095 8.25996 23.2325C8.25619 23.2787 8.25193 23.3069 8.24917 23.322C8.24091 23.3337 8.23068 23.3439 8.21894 23.3522C8.2039 23.355 8.17565 23.3592 8.12944 23.363C7.99201 23.3742 7.8035 23.375 7.47197 23.375H5.8C5.46848 23.375 5.27997 23.3742 5.14254 23.363C5.09632 23.3592 5.06808 23.355 5.05304 23.3522C5.0413 23.3439 5.03107 23.3337 5.0228 23.322C5.02004 23.3069 5.01579 23.2787 5.01201 23.2325C5.00078 23.095 5.00001 22.9065 5.00001 22.575V13.425C5.00001 13.0935 5.00078 12.905 5.01201 12.7675C5.01579 12.7213 5.02004 12.6931 5.0228 12.678C5.03107 12.6663 5.0413 12.6561 5.05304 12.6478C5.06808 12.645 5.09632 12.6408 5.14254 12.637C5.27997 12.6258 5.46847 12.625 5.8 12.625H7.47197C7.8035 12.625 7.99201 12.6258 8.12944 12.637C8.17565 12.6408 8.2039 12.645 8.21894 12.6478Z" fill="white"/>
</svg>
