<svg width="36" height="36" viewBox="0 0 36 36" fill="none" xmlns="http://www.w3.org/2000/svg">
<path fill-rule="evenodd" clip-rule="evenodd" d="M17.9992 9.03138C19.2543 9.03138 20.2718 8.01981 20.2718 6.77197C20.2718 4.51255 17.9992 1.5 17.9992 1.5C17.9992 1.5 15.7266 4.51255 15.7266 6.77197C15.7266 8.01981 16.744 9.03138 17.9992 9.03138ZM18.999 12.1736V10.5381H16.999V12.1736H11.4575C10.4435 12.1736 9.62178 12.1736 8.95558 12.2281C8.26841 12.2842 7.6591 12.4032 7.09355 12.6914C6.19978 13.1468 5.47312 13.8734 5.01772 14.7672C4.72956 15.3327 4.61056 15.9421 4.55441 16.6292C4.49998 17.2954 4.49999 18.1171 4.5 19.1311V24.5383C4.49999 25.5523 4.49998 26.374 4.55441 27.0402C4.61056 27.7274 4.72956 28.3367 5.01772 28.9023C5.47312 29.796 6.19978 30.5227 7.09355 30.9781C7.6591 31.2663 8.26842 31.3853 8.95558 31.4414C9.62178 31.4958 10.4435 31.4958 11.4575 31.4958H24.5411C25.5552 31.4958 26.3768 31.4958 27.043 31.4414C27.7302 31.3853 28.3395 31.2663 28.9051 30.9781C29.7988 30.5227 30.5255 29.796 30.9809 28.9023C31.2691 28.3367 31.3881 27.7274 31.4442 27.0402C31.4986 26.374 31.4986 25.5524 31.4986 24.5383V19.1311C31.4986 18.1171 31.4986 17.2954 31.4442 16.6292C31.3881 15.9421 31.2691 15.3327 30.9809 14.7672C30.5255 13.8734 29.7988 13.1468 28.9051 12.6914C28.3395 12.4032 27.7302 12.2842 27.043 12.2281C26.3768 12.1736 25.5551 12.1736 24.5411 12.1736H18.999ZM8.00153 14.4734C8.23814 14.3528 8.55496 14.2674 9.11844 14.2214C9.69359 14.1744 10.4334 14.1736 11.5 14.1736H24.4986C25.5652 14.1736 26.305 14.1744 26.8802 14.2214C27.4437 14.2674 27.7605 14.3528 27.9971 14.4734C28.5145 14.737 28.9352 15.1577 29.1989 15.6752C29.3194 15.9118 29.4048 16.2286 29.4508 16.7921C29.4978 17.3672 29.4986 18.107 29.4986 19.1736V20.3848C27.1499 19.8024 25.6195 18.0972 25.0745 17.3902L25.0661 17.3793C25.0328 17.336 24.9798 17.2671 24.928 17.2092L24.9259 17.2069C24.8812 17.1569 24.7237 16.9806 24.4628 16.8841C24.1883 16.7825 23.895 16.788 23.6245 16.8998C23.3674 17.0061 23.2165 17.1883 23.1737 17.2399L23.1717 17.2423C23.1222 17.3021 23.0718 17.3729 23.0401 17.4175L23.0321 17.4287C22.7426 17.835 22.1267 18.6098 21.2448 19.2756C20.3652 19.9395 19.2717 20.4582 17.9987 20.4582C16.7258 20.4582 15.6323 19.9395 14.7527 19.2756C13.8708 18.6098 13.2549 17.835 12.9654 17.4287L12.9574 17.4175C12.9257 17.3729 12.8753 17.3021 12.8258 17.2423L12.8238 17.2399C12.781 17.1883 12.6301 17.0061 12.373 16.8998C12.1025 16.788 11.8092 16.7825 11.5347 16.8841C11.2738 16.9806 11.1162 17.1569 11.0716 17.2069L11.0695 17.2092C11.0177 17.2671 10.9648 17.336 10.9314 17.3793L10.923 17.3902C10.3781 18.0971 8.84805 19.8019 6.5 20.3845V19.1736C6.5 18.107 6.50078 17.3672 6.54777 16.7921C6.59381 16.2286 6.67917 15.9118 6.79973 15.6752C7.06338 15.1577 7.48408 14.737 8.00153 14.4734ZM24.0901 19.3181C25.0683 20.3747 26.9 21.9434 29.4986 22.4325V24.4958C29.4986 25.5624 29.4978 26.3022 29.4508 26.8774C29.4048 27.4409 29.3194 27.7577 29.1989 27.9943C28.9352 28.5117 28.5145 28.9324 27.9971 29.1961C27.7605 29.3166 27.4437 29.402 26.8802 29.448C26.305 29.495 25.5652 29.4958 24.4986 29.4958H11.5C10.4334 29.4958 9.69359 29.495 9.11844 29.448C8.55496 29.402 8.23814 29.3166 8.00153 29.1961C7.48408 28.9324 7.06338 28.5117 6.79973 27.9943C6.67917 27.7577 6.59381 27.4409 6.54777 26.8774C6.50078 26.3022 6.5 25.5624 6.5 24.4958V22.4323C9.09806 21.9429 10.9293 20.3745 11.9074 19.3181C12.3112 19.7904 12.8616 20.3539 13.5477 20.8718C14.6524 21.7057 16.1595 22.4582 17.9987 22.4582C19.838 22.4582 21.3451 21.7057 22.4498 20.8718C23.1359 20.3539 23.6863 19.7904 24.0901 19.3181Z" fill="white"/>
</svg>
