<svg width="36" height="36" viewBox="0 0 36 36" fill="none" xmlns="http://www.w3.org/2000/svg">
<path fill-rule="evenodd" clip-rule="evenodd" d="M19.75 6.75C19.75 7.99264 18.7426 9 17.5 9C16.2574 9 15.25 7.99264 15.25 6.75C15.25 4.5 17.5 1.5 17.5 1.5C17.5 1.5 19.75 4.5 19.75 6.75ZM18.5 12V10.5H16.5V12H8.875C6.18261 12 4 14.1826 4 16.875V20.75C7.29237 20.75 9.75225 18.1764 10.5065 17.269L10.5149 17.2589C10.5477 17.2194 10.6018 17.1541 10.655 17.0991L10.6557 17.0983C10.703 17.0493 10.8621 16.8846 11.1193 16.7973C11.3914 16.705 11.6797 16.7164 11.9435 16.83C12.193 16.9374 12.3384 17.1142 12.3818 17.1668L12.3824 17.1676C12.431 17.2267 12.4798 17.296 12.5093 17.338L12.5169 17.3487C12.7973 17.7464 13.4051 18.5211 14.2796 19.1886C15.152 19.8544 16.2371 20.375 17.5 20.375C18.7629 20.375 19.848 19.8544 20.7204 19.1886C21.5949 18.5211 22.2027 17.7464 22.4831 17.3487L22.4906 17.338C22.5201 17.2961 22.569 17.2267 22.6176 17.1676L22.6182 17.1668C22.6616 17.1142 22.807 16.9374 23.0565 16.83C23.3203 16.7164 23.6086 16.705 23.8807 16.7973C24.1379 16.8846 24.297 17.0493 24.3443 17.0983L24.345 17.0991C24.3982 17.1541 24.4523 17.2194 24.4851 17.2589L24.4935 17.269C25.2478 18.1764 27.7076 20.75 31 20.75V16.875C31 14.1826 28.8174 12 26.125 12H18.5ZM31 22.75C27.4716 22.75 24.8211 20.53 23.56 19.221C23.1618 19.6921 22.6161 20.2576 21.9339 20.7784C20.8375 21.6152 19.3359 22.375 17.5 22.375C15.6641 22.375 14.1625 21.6152 13.0661 20.7784C12.3839 20.2576 11.8382 19.6921 11.44 19.221C10.1789 20.53 7.52845 22.75 4 22.75V26.625C4 29.3174 6.18261 31.5 8.875 31.5H26.125C28.8174 31.5 31 29.3174 31 26.625V22.75Z" fill="white"/>
</svg>
