<svg width="36" height="36" viewBox="0 0 36 36" fill="none" xmlns="http://www.w3.org/2000/svg">
<path d="M14.2063 16.4861C14.2063 17.322 13.5271 17.9996 12.6892 17.9996C11.8513 17.9996 11.1721 17.322 11.1721 16.4861C11.1721 15.6503 11.8513 14.9727 12.6892 14.9727C13.5271 14.9727 14.2063 15.6503 14.2063 16.4861Z" fill="white"/>
<path d="M14.2063 21.7829C14.2063 22.6187 13.5271 23.2963 12.6892 23.2963C11.8513 23.2963 11.1721 22.6187 11.1721 21.7829C11.1721 20.947 11.8513 20.2694 12.6892 20.2694C13.5271 20.2694 14.2063 20.947 14.2063 21.7829Z" fill="white"/>
<path d="M12.6892 28.5942C13.5271 28.5942 14.2063 27.9166 14.2063 27.0808C14.2063 26.2449 13.5271 25.5673 12.6892 25.5673C11.8513 25.5673 11.1721 26.2449 11.1721 27.0808C11.1721 27.9166 11.8513 28.5942 12.6892 28.5942Z" fill="white"/>
<path d="M19.5162 16.4861C19.5162 17.322 18.837 17.9996 17.9991 17.9996C17.1612 17.9996 16.482 17.322 16.482 16.4861C16.482 15.6503 17.1612 14.9727 17.9991 14.9727C18.837 14.9727 19.5162 15.6503 19.5162 16.4861Z" fill="white"/>
<path d="M17.9991 23.2964C18.837 23.2964 19.5162 22.6188 19.5162 21.783C19.5162 20.9471 18.837 20.2695 17.9991 20.2695C17.1612 20.2695 16.482 20.9471 16.482 21.783C16.482 22.6188 17.1612 23.2964 17.9991 23.2964Z" fill="white"/>
<path d="M19.5162 27.0808C19.5162 27.9167 18.837 28.5943 17.9991 28.5943C17.1612 28.5943 16.482 27.9167 16.482 27.0808C16.482 26.245 17.1612 25.5674 17.9991 25.5674C18.837 25.5674 19.5162 26.245 19.5162 27.0808Z" fill="white"/>
<path d="M23.309 17.9996C24.1469 17.9996 24.8262 17.322 24.8262 16.4861C24.8262 15.6503 24.1469 14.9727 23.309 14.9727C22.4712 14.9727 21.7919 15.6503 21.7919 16.4861C21.7919 17.322 22.4712 17.9996 23.309 17.9996Z" fill="white"/>
<path d="M24.8262 21.783C24.8262 22.6188 24.1469 23.2964 23.309 23.2964C22.4712 23.2964 21.7919 22.6188 21.7919 21.783C21.7919 20.9471 22.4712 20.2695 23.309 20.2695C24.1469 20.2695 24.8262 20.9471 24.8262 21.783Z" fill="white"/>
<path d="M23.309 28.5943C24.1469 28.5943 24.8262 27.9167 24.8262 27.0808C24.8262 26.245 24.1469 25.5674 23.309 25.5674C22.4712 25.5674 21.7919 26.245 21.7919 27.0808C21.7919 27.9167 22.4712 28.5943 23.309 28.5943Z" fill="white"/>
<path d="M11.9307 9.18262C11.2403 9.18262 10.6807 9.74226 10.6807 10.4326C10.6807 11.123 11.2403 11.6826 11.9307 11.6826H24.0676C24.758 11.6826 25.3176 11.123 25.3176 10.4326C25.3176 9.74226 24.758 9.18262 24.0676 9.18262H11.9307Z" fill="white"/>
<path fill-rule="evenodd" clip-rule="evenodd" d="M12.9575 3H23.0407C24.0548 2.99999 24.8765 2.99998 25.5427 3.05441C26.2298 3.11056 26.8391 3.22956 27.4047 3.51772C28.2985 3.97312 29.0251 4.69978 29.4805 5.59355C29.7687 6.1591 29.8877 6.76841 29.9438 7.45558C29.9983 8.12178 29.9983 8.94346 29.9982 9.95748V26.0414C29.9983 27.0554 29.9983 27.8771 29.9438 28.5433C29.8877 29.2305 29.7687 29.8398 29.4805 30.4053C29.0251 31.2991 28.2985 32.0258 27.4047 32.4812C26.8391 32.7693 26.2298 32.8883 25.5427 32.9445C24.8765 32.9989 24.0548 32.9989 23.0408 32.9989H12.9575C11.9435 32.9989 11.1218 32.9989 10.4556 32.9445C9.76842 32.8883 9.1591 32.7693 8.59355 32.4812C7.69978 32.0258 6.97312 31.2991 6.51772 30.4053C6.22956 29.8398 6.11056 29.2305 6.05441 28.5433C5.99998 27.8771 5.99999 27.0554 6 26.0414V9.9575C5.99999 8.94347 5.99998 8.12178 6.05441 7.45557C6.11056 6.76841 6.22956 6.1591 6.51772 5.59355C6.97312 4.69978 7.69978 3.97312 8.59355 3.51772C9.1591 3.22956 9.76841 3.11056 10.4556 3.05441C11.1218 2.99998 11.9435 2.99999 12.9575 3ZM10.6184 5.04777C10.055 5.09381 9.73814 5.17917 9.50153 5.29973C8.98408 5.56338 8.56338 5.98408 8.29973 6.50153C8.17917 6.73814 8.09381 7.05496 8.04777 7.61844C8.00078 8.19359 8 8.9334 8 10V25.9989C8 27.0655 8.00078 27.8053 8.04777 28.3804C8.09381 28.9439 8.17917 29.2607 8.29973 29.4974C8.56338 30.0148 8.98408 30.4355 9.50153 30.6991C9.73814 30.8197 10.055 30.9051 10.6184 30.9511C11.1936 30.9981 11.9334 30.9989 13 30.9989H22.9982C24.0648 30.9989 24.8046 30.9981 25.3798 30.9511C25.9433 30.9051 26.2601 30.8197 26.4967 30.6991C27.0142 30.4355 27.4349 30.0148 27.6985 29.4974C27.8191 29.2607 27.9044 28.9439 27.9505 28.3804C27.9975 27.8053 27.9982 27.0655 27.9982 25.9989V10C27.9982 8.9334 27.9975 8.19359 27.9505 7.61844C27.9044 7.05496 27.8191 6.73814 27.6985 6.50153C27.4349 5.98408 27.0142 5.56338 26.4967 5.29973C26.2601 5.17917 25.9433 5.09381 25.3798 5.04777C24.8046 5.00078 24.0648 5 22.9982 5H13C11.9334 5 11.1936 5.00078 10.6184 5.04777Z" fill="white"/>
</svg>
