<svg width="36" height="36" viewBox="0 0 36 36" fill="none" xmlns="http://www.w3.org/2000/svg">
<path fill-rule="evenodd" clip-rule="evenodd" d="M10.5001 3C11.0523 3 11.5001 3.44772 11.5001 4V6H24.5001V4C24.5001 3.44772 24.9478 3 25.5001 3C26.0523 3 26.5001 3.44772 26.5001 4V6.00531C26.9833 6.01563 27.3768 6.0455 27.7339 6.13124C29.4708 6.54822 30.8268 7.9043 31.2438 9.64113C31.3756 10.1901 31.3754 10.8248 31.3751 11.7393C31.3751 11.7839 31.3751 11.8291 31.3751 11.875V24.2925C31.3751 25.3065 31.3751 26.1282 31.3206 26.7944C31.2645 27.4816 31.1455 28.0909 30.8573 28.6565C30.4019 29.5502 29.6753 30.2769 28.7815 30.7323C28.216 31.0204 27.6066 31.1394 26.9195 31.1956C26.2533 31.25 25.4316 31.25 24.4176 31.25H11.5825C10.5685 31.25 9.74683 31.25 9.08063 31.1956C8.39347 31.1394 7.78416 31.0204 7.2186 30.7323C6.32483 30.2769 5.59818 29.5502 5.14278 28.6565C4.85461 28.0909 4.73561 27.4816 4.67947 26.7944C4.62504 26.1282 4.62505 25.3065 4.62506 24.2925L4.62506 11.875C4.62506 11.8291 4.62504 11.7839 4.62503 11.7393C4.62472 10.8248 4.62451 10.1901 4.7563 9.64113C5.17328 7.9043 6.52936 6.54822 8.26619 6.13124C8.62335 6.0455 9.01683 6.01563 9.50006 6.00531V4C9.50006 3.44772 9.94777 3 10.5001 3ZM10.5001 8C9.39641 8 9.02056 8.00696 8.73308 8.07598C7.72755 8.31739 6.94245 9.10249 6.70104 10.108C6.63202 10.3955 6.62506 10.7713 6.62506 11.875V12H29.3751V11.875C29.3751 10.7713 29.3681 10.3955 29.2991 10.108C29.0577 9.10249 28.2726 8.31739 27.267 8.07598C26.9796 8.00696 26.6037 8 25.5001 8H10.5001ZM29.3751 14H6.62506V24.25C6.62506 25.3166 6.62584 26.0564 6.67283 26.6316C6.71887 27.195 6.80423 27.5119 6.92479 27.7485C7.18844 28.2659 7.60914 28.6866 8.12658 28.9503C8.3632 29.0708 8.68002 29.1562 9.2435 29.2022C9.81865 29.2492 10.5585 29.25 11.6251 29.25H24.3751C25.4417 29.25 26.1815 29.2492 26.7566 29.2022C27.3201 29.1562 27.6369 29.0708 27.8735 28.9503C28.391 28.6866 28.8117 28.2659 29.0753 27.7485C29.1959 27.5119 29.2813 27.195 29.3273 26.6316C29.3743 26.0564 29.3751 25.3166 29.3751 24.25V14Z" fill="white"/>
<path d="M5.25006 10C5.25006 8.34315 6.5932 7 8.25006 7H27.7501C29.4069 7 30.7501 8.34315 30.7501 10C30.7501 11.6569 29.4069 13 27.7501 13H8.25006C6.5932 13 5.25006 11.6569 5.25006 10Z" fill="white"/>
</svg>
