<svg width="36" height="36" viewBox="0 0 36 36" fill="none" xmlns="http://www.w3.org/2000/svg">
<path fill-rule="evenodd" clip-rule="evenodd" d="M16.1728 4.21137C17.1399 5.28388 17.833 6.85031 18.2932 8.13884C18.3081 8.1806 18.3229 8.22189 18.3375 8.26275C18.5632 8.89245 18.752 9.41951 18.7604 9.96111C18.7639 10.1919 18.7579 10.4223 18.7071 10.6692C18.6562 10.9161 18.5707 11.1301 18.4763 11.3407C18.3315 11.6636 18.063 11.9948 17.7862 12.3137C17.4895 12.6557 17.0804 13.0955 16.5596 13.6555L16.5453 13.6708C15.9924 14.2654 15.5415 15.0017 15.3995 15.8881C15.2597 16.7608 15.4011 17.8916 16.2274 19.3229C17.0538 20.7542 17.9624 21.4419 18.788 21.7572C19.6267 22.0775 20.4898 22.0551 21.2811 21.8736L21.3016 21.8689C22.0469 21.6978 22.6324 21.5635 23.0769 21.4774C23.4914 21.3972 23.9125 21.3303 24.2646 21.3663C24.4942 21.3899 24.7223 21.4228 24.9615 21.5022C25.2008 21.5816 25.4033 21.6916 25.6014 21.8101C26.0663 22.0881 26.4283 22.5152 26.8608 23.0255C26.8889 23.0586 26.9172 23.0921 26.9459 23.1259C27.8317 24.1687 28.8418 25.5521 29.287 26.9259C29.5127 27.6223 29.6216 28.4015 29.4153 29.1636C29.2 29.9588 28.675 30.6114 27.8703 31.076L27.8516 31.0868C26.8556 31.662 24.4151 33.0713 21.1859 32.4995C17.9109 31.9197 14.1362 29.3697 10.3086 22.7401C6.48095 16.1105 6.16002 11.5665 7.29536 8.4403C8.41477 5.35792 10.8555 3.949 11.8516 3.374C11.8579 3.37037 11.8641 3.36678 11.8703 3.36322C12.675 2.89863 13.5027 2.77023 14.2991 2.98141C15.0622 3.18379 15.6825 3.66767 16.1728 4.21137ZM13.7864 4.91459C13.5629 4.85531 13.2757 4.86122 12.8703 5.09527C11.9218 5.64287 10.0385 6.74592 9.17523 9.12301C8.3208 11.4757 8.36822 15.3793 12.0406 21.7401C15.713 28.1009 19.0699 30.0938 21.5346 30.5302C24.0249 30.9711 25.9218 29.8916 26.8703 29.344C27.2757 29.1099 27.4244 28.8642 27.4848 28.6409C27.5542 28.3845 27.5408 28.025 27.3844 27.5425C27.0655 26.5583 26.2722 25.422 25.4216 24.4207C24.8575 23.7566 24.7183 23.6124 24.5749 23.5266C24.4199 23.4339 24.3643 23.4113 24.3314 23.4004C24.2986 23.3894 24.2404 23.3743 24.0607 23.3559L24.0621 23.3561C24.0621 23.3561 24.0218 23.3541 23.9173 23.3658C23.8075 23.3781 23.6589 23.4019 23.457 23.441C23.0504 23.5197 22.4986 23.6462 21.7284 23.8229C20.6722 24.0653 19.385 24.1261 18.0745 23.6256C16.751 23.1202 15.5118 22.0833 14.4954 20.3229C13.479 18.5624 13.2006 16.9707 13.4247 15.5718C13.6465 14.1867 14.3428 13.1023 15.0808 12.3088C15.6189 11.7302 16.0044 11.3155 16.2758 11.0028C16.4106 10.8475 16.5055 10.7307 16.5711 10.6417C16.6335 10.5571 16.6519 10.5212 16.6519 10.5212L16.6513 10.5225C16.7252 10.3576 16.7412 10.2997 16.7482 10.2658C16.7552 10.2319 16.7634 10.1724 16.7606 9.99183C16.758 9.82477 16.7027 9.63209 16.4097 8.8115C15.9678 7.57426 15.3804 6.31909 14.6875 5.55075C14.3478 5.17403 14.0432 4.98268 13.7864 4.91459Z" fill="white"/>
</svg>
