<svg width="36" height="36" viewBox="0 0 36 36" fill="none" xmlns="http://www.w3.org/2000/svg">
<path fill-rule="evenodd" clip-rule="evenodd" d="M5 18C5 10.8203 10.8203 5 18 5C25.1797 5 31 10.8203 31 18C31 25.1797 25.1797 31 18 31C10.8203 31 5 25.1797 5 18ZM18 3C9.71573 3 3 9.71573 3 18C3 26.2843 9.71573 33 18 33C26.2843 33 33 26.2843 33 18C33 9.71573 26.2843 3 18 3ZM16.2634 12.2514C15.3503 10.9247 13.9027 9.36887 12.7054 10.5662C11.7508 11.5208 7.92835 15.3433 14.2923 21.7072C20.6563 28.0712 24.4787 24.2486 25.4333 23.2941C26.6306 22.0968 25.0748 20.6492 23.7481 19.7361C23.3523 19.4637 23.1544 19.3275 22.9385 19.2669C22.7014 19.2004 22.5944 19.1946 22.3515 19.2352C22.1303 19.2721 21.7214 19.4926 20.9038 19.9337C19.8919 20.4795 18.4149 20.7304 16.842 19.1575C15.2691 17.5846 15.52 16.1076 16.0658 15.0957C16.5069 14.2781 16.7274 13.8692 16.7643 13.648C16.8049 13.4051 16.7991 13.2981 16.7326 13.061C16.672 12.8451 16.5358 12.6472 16.2634 12.2514Z" fill="white"/>
</svg>
