<svg width="36" height="36" viewBox="0 0 36 36" fill="none" xmlns="http://www.w3.org/2000/svg">
<path d="M17.2862 22.3431C17.6071 22.5538 17.9326 22.7161 18.2579 22.8372C19.344 23.2415 20.4328 23.1892 21.3654 22.9681C22.1175 22.7897 22.6828 22.6554 23.1056 22.5706C23.3502 22.5216 23.5233 22.4954 23.6466 22.4808C23.6844 22.468 23.7218 22.4553 23.7579 22.4427C24.0425 22.4 24.2683 22.4398 24.4464 22.5452C24.4586 22.5488 24.4705 22.553 24.4825 22.5569C24.6213 22.6023 24.7532 22.6692 24.9279 22.7728C25.1164 22.8846 25.2603 23.0176 25.4093 23.1741C25.5515 23.3235 25.7447 23.5446 26.0284 23.8772C26.8989 24.8978 27.8052 26.1588 28.1876 27.3411C28.3791 27.933 28.439 28.5048 28.2989 29.0159C28.1593 29.5254 27.8192 29.9784 27.2062 30.3323C26.2324 30.8945 24.04 32.1601 21.1544 31.6614C18.9202 31.2753 16.2691 29.8313 13.4454 26.1839L17.2862 22.3431Z" fill="white"/>
<path d="M29.7491 4.29326C30.1397 3.90284 30.7727 3.90277 31.1632 4.29326C31.5535 4.68377 31.5535 5.31687 31.1632 5.70732L5.70715 31.1634C5.31669 31.5537 4.68359 31.5536 4.29308 31.1634C3.9026 30.7729 3.90267 30.1398 4.29308 29.7493L11.1964 22.845C11.1106 22.7004 11.0246 22.5536 10.9386 22.4046C7.18822 15.9088 7.01854 11.6763 8.02941 8.92803C9.04034 6.17997 11.2323 4.9141 12.2062 4.35185C12.8192 3.99792 13.3816 3.92995 13.8927 4.06377C14.4054 4.19807 14.8704 4.53563 15.2872 4.99736C16.1199 5.91962 16.7586 7.33481 17.2071 8.59893C17.3535 9.01128 17.4487 9.28972 17.507 9.4876C17.568 9.69491 17.6108 9.88552 17.6134 10.1048C17.6158 10.3077 17.6083 10.4552 17.5782 10.5979C17.5606 10.6816 17.5349 10.7641 17.5001 10.8548C17.4846 10.8973 17.468 10.9392 17.4493 10.9798C17.4376 11.0068 17.4245 11.0346 17.4112 11.0638L17.4083 11.0618C17.3883 11.0999 17.3666 11.1378 17.3439 11.1741L17.3517 11.178C17.2989 11.2656 17.1811 11.4379 16.8771 11.7835C16.592 12.1075 16.1934 12.5302 15.6622 13.0931C15.0045 13.7901 14.4157 14.7063 14.2228 15.8489C14.0592 16.8183 14.1825 17.9505 14.7892 19.2522L29.7491 4.29326Z" fill="white"/>
</svg>
