<svg width="36" height="36" viewBox="0 0 36 36" fill="none" xmlns="http://www.w3.org/2000/svg">
<path d="M32.3483 17.393C32.7199 17.0172 32.9426 16.497 32.9426 15.789C32.9426 14.6648 32.9426 12.1328 31.0676 9.88278C29.1929 7.63318 25.4433 5.66406 17.9426 5.66406C10.4419 5.66406 6.69228 7.63318 4.81761 9.88278C2.94263 12.1327 2.94263 14.6647 2.94263 15.789C2.94263 16.497 3.16539 17.0172 3.53694 17.393C3.90957 17.7698 4.43405 18.0034 5.04237 18.1336C6.25755 18.3936 7.80268 18.2396 9.12184 17.996C9.5521 17.9165 9.84029 17.8599 10.0408 17.8114C10.2509 17.7606 10.4375 17.7023 10.6288 17.5948C10.8059 17.4953 10.9295 17.415 11.0382 17.3175C11.0476 17.3091 11.0569 17.3005 11.0662 17.2917C11.2465 17.1902 11.3944 17.0155 11.4998 16.7476C11.5069 16.7099 11.5144 16.6714 11.5223 16.6322C11.5713 16.5181 11.6346 16.3547 11.7145 16.118C11.8526 15.7093 12.0191 15.1527 12.2408 14.4119C12.5155 13.4937 13.0144 12.525 13.9075 11.7866C14.8006 11.0483 16.0886 10.539 17.9426 10.539C19.7966 10.539 21.0846 11.0483 21.9777 11.7866C22.8708 12.5251 23.3695 13.493 23.6442 14.4111C23.8661 15.1526 24.0326 15.7091 24.1707 16.118C24.318 16.5541 24.4087 16.7415 24.4582 16.831L24.4654 16.827C24.4855 16.8649 24.5071 16.902 24.53 16.9384L24.5272 16.9404C24.5458 16.9665 24.5638 16.9913 24.5813 17.015C24.6073 17.0516 24.6348 17.0873 24.664 17.1221C24.7251 17.1976 24.7834 17.2604 24.847 17.3175C24.9557 17.415 25.0793 17.4953 25.2564 17.5948C25.4477 17.7023 25.6343 17.7605 25.8444 17.8114C26.0449 17.8599 26.3331 17.9165 26.7634 17.996C28.0826 18.2396 29.6277 18.3936 30.8429 18.1336C31.4512 18.0034 31.9757 17.7698 32.3483 17.393Z" fill="white"/>
<path fill-rule="evenodd" clip-rule="evenodd" d="M15.1385 20.7251L21.5259 27.1125C22.669 25.3231 22.4588 22.9189 20.8954 21.3555C19.3321 19.7921 16.9279 19.582 15.1385 20.7251ZM20.1117 28.5267L13.7242 22.1393C12.5812 23.9287 12.7913 26.3329 14.3547 27.8963C15.9181 29.4596 18.3223 29.6698 20.1117 28.5267ZM12.9405 19.9413C15.5277 17.3541 19.7224 17.3541 22.3097 19.9413C24.8969 22.5285 24.8969 26.7232 22.3097 29.3105C19.7224 31.8977 15.5277 31.8977 12.9405 29.3105C10.3533 26.7232 10.3533 22.5285 12.9405 19.9413Z" fill="white"/>
</svg>
