<svg width="36" height="36" viewBox="0 0 36 36" fill="none" xmlns="http://www.w3.org/2000/svg">
<path d="M32.3481 17.393C32.7196 17.0172 32.9424 16.497 32.9424 15.789C32.9424 14.6648 32.9424 12.1328 31.0674 9.88278C29.1927 7.63318 25.4431 5.66406 17.9424 5.66406C10.4416 5.66406 6.69203 7.63318 4.81736 9.88278C2.94238 12.1327 2.94239 14.6647 2.94238 15.789C2.94239 16.497 3.16515 17.0172 3.53669 17.393C3.90933 17.7698 4.43381 18.0034 5.04212 18.1336C6.2573 18.3936 7.80244 18.2396 9.12159 17.996C9.55186 17.9165 9.84005 17.8599 10.0405 17.8114C10.2507 17.7606 10.4373 17.7023 10.6286 17.5948C10.8056 17.4953 10.9293 17.415 11.038 17.3175C11.0474 17.3091 11.0567 17.3005 11.0659 17.2917C11.2463 17.1902 11.3942 17.0155 11.4995 16.7476C11.5067 16.7099 11.5142 16.6714 11.5221 16.6322C11.5711 16.5181 11.6343 16.3547 11.7143 16.118C11.8523 15.7093 12.0189 15.1527 12.2406 14.4119C12.5153 13.4937 13.0141 12.525 13.9073 11.7866C14.8004 11.0483 16.0883 10.539 17.9424 10.539C19.7964 10.539 21.0844 11.0483 21.9775 11.7866C22.8706 12.5251 23.3692 13.493 23.644 14.4111C23.8658 15.1526 24.0324 15.7091 24.1705 16.118C24.3178 16.5541 24.4085 16.7415 24.458 16.831L24.4652 16.827C24.4853 16.8649 24.5068 16.902 24.5298 16.9384L24.5269 16.9404C24.5456 16.9665 24.5636 16.9913 24.5811 17.015C24.607 17.0516 24.6346 17.0873 24.6637 17.1221C24.7248 17.1976 24.7832 17.2604 24.8468 17.3175C24.9555 17.415 25.0791 17.4953 25.2562 17.5948C25.4474 17.7023 25.6341 17.7605 25.8442 17.8114C26.0447 17.8599 26.3329 17.9165 26.7631 17.996C28.0823 18.2396 29.6274 18.3936 30.8426 18.1336C31.4509 18.0034 31.9754 17.7698 32.3481 17.393Z" fill="white"/>
<path fill-rule="evenodd" clip-rule="evenodd" d="M17.8798 15.3809C18.4321 15.3809 18.8798 15.8286 18.8798 16.3809V26.3847L21.6173 23.1585C21.9746 22.7374 22.6057 22.6857 23.0268 23.043C23.4479 23.4003 23.4996 24.0314 23.1423 24.4525L18.6423 29.7558C18.4523 29.9797 18.1735 30.1088 17.8798 30.1088C17.5861 30.1088 17.3073 29.9797 17.1173 29.7558L12.6173 24.4525C12.26 24.0314 12.3117 23.4003 12.7328 23.043C13.1539 22.6857 13.785 22.7374 14.1423 23.1585L16.8798 26.3847V16.3809C16.8798 15.8286 17.3275 15.3809 17.8798 15.3809Z" fill="white"/>
</svg>
