<svg width="36" height="36" viewBox="0 0 36 36" fill="none" xmlns="http://www.w3.org/2000/svg">
<path d="M13.8929 4.064C13.3817 3.9301 12.8198 3.99731 12.2066 4.3513C11.233 4.91342 9.04024 6.17941 8.0292 8.92821C7.01833 11.6765 7.18782 15.9083 10.9382 22.4042C14.6886 28.9 18.2687 31.1627 21.1542 31.6614C24.0402 32.1602 26.233 30.8942 27.2066 30.3321C27.8197 29.9781 28.1589 29.525 28.2985 29.0154C28.4386 28.5043 28.3787 27.9332 28.1872 27.3413C27.8048 26.159 26.8989 24.8978 26.0284 23.8772C25.7444 23.5443 25.5513 23.323 25.409 23.1737C25.2599 23.0171 25.1161 22.8846 24.9274 22.7727C24.7528 22.6691 24.6214 22.6022 24.4826 22.5568C24.4705 22.5529 24.4584 22.5491 24.4463 22.5455C24.2681 22.4401 24.0429 22.3993 23.7582 22.442C23.722 22.4547 23.6849 22.4674 23.647 22.4802C23.5237 22.4948 23.3506 22.5218 23.1056 22.5709C22.6827 22.6557 22.1173 22.7897 21.3649 22.9682C20.4324 23.1893 19.3441 23.2416 18.258 22.8374C17.172 22.4331 16.087 21.5723 15.16 19.9667C14.233 18.3611 14.03 16.991 14.223 15.8484C14.4159 14.7057 15.0048 13.7899 15.6626 13.0929C16.1938 12.53 16.5925 12.1076 16.8775 11.7835C17.1815 11.4379 17.2985 11.2656 17.3513 11.178L17.3442 11.1737C17.3669 11.1374 17.3883 11.1002 17.4083 11.0621L17.4115 11.0636C17.4248 11.0344 17.4373 11.0064 17.449 10.9794C17.4677 10.9386 17.4849 10.8969 17.5005 10.8543C17.5353 10.7636 17.5605 10.6817 17.5782 10.598C17.6083 10.4552 17.616 10.3079 17.6136 10.1049C17.611 9.88547 17.5682 9.69472 17.5072 9.4873C17.4489 9.28942 17.3539 9.01152 17.2076 8.59916C16.759 7.33493 16.1197 5.91982 15.287 4.99744C14.8701 4.5357 14.4055 4.1983 13.8929 4.064Z" fill="white"/>
<path fill-rule="evenodd" clip-rule="evenodd" d="M18.3813 17.7611C18.1051 17.2828 18.269 16.6712 18.7473 16.3951L27.4109 11.3931L23.2482 10.6355C22.7048 10.5366 22.3445 10.0159 22.4434 9.47258C22.5423 8.92922 23.0629 8.56892 23.6063 8.66781L30.4491 9.91328C30.738 9.96586 30.9892 10.1428 31.136 10.3971C31.2829 10.6514 31.3105 10.9574 31.2116 11.234L28.8688 17.7827C28.6828 18.3027 28.1104 18.5735 27.5904 18.3874C27.0704 18.2014 26.7996 17.629 26.9857 17.109L28.4109 13.1252L19.7473 18.1271C19.269 18.4032 18.6574 18.2394 18.3813 17.7611Z" fill="white"/>
</svg>
