<svg width="36" height="36" viewBox="0 0 36 36" fill="none" xmlns="http://www.w3.org/2000/svg">
<path fill-rule="evenodd" clip-rule="evenodd" d="M4.96614 10.2621C6.96447 7.86413 10.7798 6 17.875 6C24.9702 6 28.7855 7.86414 30.7838 10.2621C32.7503 12.6219 32.7501 15.2692 32.75 16.3438V16.3656C32.75 17.2194 32.4821 17.9491 31.9569 18.5052C31.4514 19.0404 30.7875 19.3304 30.1358 19.4853C28.8564 19.7895 27.3139 19.6443 26.078 19.4307C26.0372 19.4237 25.9967 19.4167 25.9566 19.4098C25.3271 19.3017 24.7977 19.2108 24.3289 18.9588C24.1299 18.8519 23.934 18.7374 23.7451 18.5757C23.5562 18.414 23.4129 18.238 23.2766 18.0579C23.0652 17.7788 22.9016 17.3802 22.7517 16.98C22.5899 16.5482 22.3931 15.9658 22.1417 15.2218L22.1352 15.2026C21.9026 14.5142 21.5177 13.8575 20.891 13.3705C20.2729 12.8903 19.3357 12.5093 17.875 12.5093C16.4143 12.5093 15.4771 12.8903 14.859 13.3705C14.2323 13.8575 13.8474 14.5141 13.6148 15.2026L13.6083 15.2218C13.3569 15.9657 13.1601 16.5482 12.9983 16.98C12.8484 17.3802 12.6848 17.7788 12.4734 18.0579C12.3371 18.238 12.1937 18.414 12.0049 18.5757C11.816 18.7374 11.6201 18.8519 11.4211 18.9588C10.9523 19.2108 10.4229 19.3017 9.79335 19.4098C9.75329 19.4167 9.71284 19.4237 9.67196 19.4307C8.43604 19.6443 6.89363 19.7895 5.61414 19.4853C4.96253 19.3304 4.29857 19.0404 3.79311 18.5052C3.26786 17.9491 3 17.2194 3 16.3656L3 16.3437C2.99991 15.2692 2.99968 12.6219 4.96614 10.2621ZM6.50258 11.5425C5.01375 13.3291 5 15.3445 5 16.3656C5 16.7791 5.11805 16.9953 5.24712 17.1319C5.39596 17.2895 5.65472 17.4392 6.07672 17.5396C6.94447 17.7459 8.1529 17.6636 9.33142 17.4599C10.1467 17.319 10.3287 17.2754 10.4741 17.1972C10.6367 17.1098 10.6811 17.0761 10.7042 17.0564C10.7273 17.0366 10.7675 16.9979 10.8789 16.8507L10.8775 16.8524C10.8775 16.8524 10.9002 16.8185 10.9449 16.7222C10.9927 16.6192 11.0514 16.476 11.1254 16.2784C11.2743 15.8809 11.4608 15.3294 11.72 14.5623C12.0416 13.6107 12.6158 12.5808 13.6319 11.7912C14.6567 10.9949 16.0461 10.5093 17.875 10.5093C19.7038 10.5093 21.0933 10.9949 22.1181 11.7913C23.1342 12.5808 23.7084 13.6108 24.03 14.5623C24.2892 15.3295 24.4757 15.8809 24.6246 16.2784C24.6986 16.4761 24.7573 16.6192 24.8051 16.7222C24.8498 16.8185 24.8724 16.8524 24.8724 16.8524L24.8711 16.8507C24.9825 16.9979 25.0227 17.0366 25.0458 17.0564C25.0688 17.0761 25.1133 17.1098 25.2759 17.1972C25.4212 17.2754 25.6033 17.319 26.4186 17.4599C27.5971 17.6636 28.8055 17.7459 29.6733 17.5396C30.0953 17.4392 30.354 17.2895 30.5029 17.1319C30.632 16.9953 30.75 16.7792 30.75 16.3656C30.75 15.3445 30.7362 13.3291 29.2474 11.5425C27.777 9.77802 24.6548 8 17.875 8C11.0951 8 7.97298 9.77802 6.50258 11.5425Z" fill="white"/>
<path fill-rule="evenodd" clip-rule="evenodd" d="M17.875 15.375C18.4273 15.375 18.875 15.8227 18.875 16.375V26.3788L21.6125 23.1526C21.9698 22.7315 22.6009 22.6798 23.022 23.0371C23.4431 23.3945 23.4948 24.0255 23.1375 24.4466L18.6375 29.7499C18.4475 29.9738 18.1687 30.1029 17.875 30.1029C17.5813 30.1029 17.3025 29.9738 17.1125 29.7499L12.6125 24.4466C12.2552 24.0255 12.3069 23.3945 12.728 23.0371C13.1491 22.6798 13.7802 22.7315 14.1375 23.1526L16.875 26.3788V16.375C16.875 15.8227 17.3227 15.375 17.875 15.375Z" fill="white"/>
</svg>
