<svg width="36" height="36" viewBox="0 0 36 36" fill="none" xmlns="http://www.w3.org/2000/svg">
<path d="M13.3929 4.064C12.8817 3.9301 12.3198 3.99731 11.7066 4.3513C10.733 4.91342 8.54024 6.17941 7.5292 8.92821C6.51833 11.6765 6.68782 15.9083 10.4382 22.4042C14.1886 28.9 17.7687 31.1627 20.6542 31.6614C23.5402 32.1602 25.733 30.8942 26.7066 30.3321C27.3197 29.9781 27.6589 29.525 27.7985 29.0154C27.9386 28.5043 27.8787 27.9332 27.6872 27.3413C27.3048 26.159 26.3989 24.8978 25.5284 23.8772C25.2444 23.5443 25.0513 23.323 24.909 23.1737C24.7599 23.0171 24.6161 22.8846 24.4274 22.7727C24.2528 22.6691 24.1214 22.6022 23.9826 22.5568C23.9705 22.5529 23.9584 22.5491 23.9463 22.5455C23.7681 22.4401 23.5429 22.3993 23.2582 22.442C23.222 22.4547 23.1849 22.4674 23.147 22.4802C23.0237 22.4948 22.8506 22.5218 22.6056 22.5709C22.1827 22.6557 21.6173 22.7897 20.8649 22.9682C19.9324 23.1893 18.8441 23.2416 17.758 22.8374C16.672 22.4331 15.587 21.5723 14.66 19.9667C13.733 18.3611 13.53 16.991 13.723 15.8484C13.9159 14.7057 14.5048 13.7899 15.1626 13.0929C15.6938 12.53 16.0925 12.1076 16.3775 11.7835C16.6815 11.4379 16.7985 11.2656 16.8513 11.178L16.8442 11.1737C16.8669 11.1374 16.8883 11.1002 16.9083 11.0621L16.9115 11.0636C16.9248 11.0344 16.9373 11.0064 16.949 10.9794C16.9677 10.9386 16.9849 10.8969 17.0005 10.8543C17.0353 10.7636 17.0605 10.6817 17.0782 10.598C17.1083 10.4552 17.116 10.3079 17.1136 10.1049C17.111 9.88547 17.0682 9.69472 17.0072 9.4873C16.9489 9.28942 16.8539 9.01152 16.7076 8.59916C16.259 7.33493 15.6197 5.91982 14.787 4.99744C14.3701 4.5357 13.9055 4.1983 13.3929 4.064Z" fill="white"/>
<path fill-rule="evenodd" clip-rule="evenodd" d="M22.2144 11.0016L30.0374 15.5182C30.6784 13.4939 29.8532 11.2261 27.9384 10.1206C26.0237 9.01509 23.647 9.43434 22.2144 11.0016ZM29.0374 17.2503L21.2144 12.7337C20.5735 14.758 21.3987 17.0258 23.3134 18.1313C25.2282 19.2368 27.6048 18.8175 29.0374 17.2503ZM19.8885 10.8134C21.718 7.64475 25.7698 6.55908 28.9384 8.38852C32.1071 10.218 33.1928 14.2698 31.3634 17.4384C29.5339 20.6071 25.4821 21.6928 22.3134 19.8634C19.1447 18.0339 18.0591 13.9821 19.8885 10.8134Z" fill="white"/>
</svg>
