<svg width="36" height="36" viewBox="0 0 36 36" fill="none" xmlns="http://www.w3.org/2000/svg">
<path fill-rule="evenodd" clip-rule="evenodd" d="M17.8094 8.5C17.5624 8.5 17.3191 8.56102 17.1013 8.67763L15.3366 9.62255H6.25C4.59315 9.62255 3.25 10.9657 3.25 12.6226V24.5049C3.25 26.1618 4.59314 27.5049 6.25 27.5049H21.4295C23.0863 27.5049 24.4295 26.1618 24.4295 24.5049V21.6752L30.6553 24.3644C31.6455 24.7921 32.75 24.066 32.75 22.9873V14.1393C32.75 13.0606 31.6455 12.3345 30.6553 12.7623L24.4295 15.4514V12.6225C24.4295 12.5553 24.4273 12.4886 24.4229 12.4225V10.75C24.4229 9.50736 23.4156 8.5 22.1729 8.5H17.8094ZM22.4001 16.328L22.4295 16.3153V12.6225C22.4295 12.0703 21.9818 11.6225 21.4295 11.6225H6.25C5.69772 11.6225 5.25 12.0703 5.25 12.6226V24.5049C5.25 25.0572 5.69772 25.5049 6.25 25.5049H21.4295C21.9818 25.5049 22.4295 25.0572 22.4295 24.5049V20.8113L22.4001 20.7986V16.328ZM30.5 15.2802L24.6501 17.8071V19.3196L30.5 21.8464V15.2802ZM13.8501 21.8C15.645 21.8 17.1001 20.3449 17.1001 18.55C17.1001 16.7551 15.645 15.3 13.8501 15.3C12.0552 15.3 10.6001 16.7551 10.6001 18.55C10.6001 20.3449 12.0552 21.8 13.8501 21.8Z" fill="white"/>
</svg>
