<svg width="36" height="36" viewBox="0 0 36 36" fill="none" xmlns="http://www.w3.org/2000/svg">
<path fill-rule="evenodd" clip-rule="evenodd" d="M27.8895 8.91182C27.3582 8.89354 26.7462 8.89355 26.0414 8.89356L25.84 8.89356C25.6575 8.89356 25.477 8.82399 25.265 8.62365C25.0384 8.40949 24.8221 8.08572 24.6175 7.68404C24.234 6.93139 23.622 6.31947 22.8694 5.93598C22.3841 5.68868 21.8673 5.59012 21.3053 5.5442C20.7641 5.49998 20.0997 5.49999 19.2948 5.5H16.7045C15.8995 5.49999 15.2352 5.49998 14.694 5.5442C14.1319 5.59012 13.6152 5.68868 13.1298 5.93598C12.3772 6.31947 11.7653 6.93139 11.3818 7.68404C11.1771 8.08572 10.9608 8.40949 10.7342 8.62365C10.5222 8.82399 10.3418 8.89356 10.1592 8.89356L9.9575 8.89356C8.94348 8.89355 8.12178 8.89354 7.45558 8.94797C6.76842 9.00411 6.1591 9.12311 5.59355 9.41128C4.69978 9.86667 3.97312 10.5933 3.51772 11.4871C3.22956 12.0527 3.11056 12.662 3.05441 13.3491C2.99998 14.0153 2.99999 14.837 3 15.851V23.5414C2.99999 24.5555 2.99998 25.3772 3.05441 26.0434C3.11056 26.7305 3.22956 27.3398 3.51772 27.9054C3.97312 28.7992 4.69978 29.5258 5.59355 29.9812C5.88189 30.1281 6.1816 30.2311 6.49721 30.3041L8.31518 28.4862C8.05625 28.4791 7.82656 28.4682 7.61844 28.4512C7.05496 28.4051 6.73814 28.3198 6.50153 28.1992C5.98408 27.9356 5.56338 27.5149 5.29973 26.9974C5.17917 26.7608 5.09381 26.444 5.04777 25.8805C5.00078 25.3054 5 24.5655 5 23.4989V15.8936C5 14.827 5.00078 14.0871 5.04777 13.512C5.09381 12.9485 5.17917 12.6317 5.29973 12.3951C5.56338 11.8776 5.98408 11.4569 6.50153 11.1933C6.73814 11.0727 7.05496 10.9874 7.61844 10.9413C8.19359 10.8943 8.9334 10.8936 10 10.8936H10.1592C11.8041 10.8936 12.7094 9.48387 13.1638 8.59202C13.3555 8.2157 13.6615 7.90974 14.0378 7.71799C14.1942 7.6383 14.4184 7.57337 14.8568 7.53755C15.3069 7.50078 15.8892 7.5 16.7458 7.5H19.2534C20.11 7.5 20.6923 7.50078 21.1424 7.53755C21.5808 7.57337 21.805 7.6383 21.9614 7.71799C22.3377 7.90974 22.6437 8.2157 22.8354 8.59202C23.2899 9.48387 24.1951 10.8936 25.84 10.8936H25.9078L27.8895 8.91182ZM30.2795 9.35026L28.66 10.9698C29.0547 11.019 29.303 11.0943 29.4974 11.1933C30.0148 11.4569 30.4355 11.8776 30.6991 12.3951C30.8197 12.6317 30.9051 12.9485 30.9511 13.512C30.9981 14.0871 30.9989 14.827 30.9989 15.8936V23.4989C30.9989 24.5655 30.9981 25.3054 30.9511 25.8805C30.9051 26.444 30.8197 26.7608 30.6991 26.9974C30.4355 27.5149 30.0148 27.9356 29.4974 28.1992C29.2607 28.3198 28.9439 28.4051 28.3804 28.4512C27.8053 28.4982 27.0655 28.4989 25.9989 28.4989H11.1308L9.13212 30.4977C9.39202 30.499 9.66684 30.4989 9.95747 30.4989H26.0414C27.0554 30.499 27.8771 30.499 28.5433 30.4445C29.2305 30.3884 29.8398 30.2694 30.4053 29.9812C31.2991 29.5258 32.0258 28.7992 32.4812 27.9054C32.7693 27.3398 32.8883 26.7305 32.9445 26.0434C32.9989 25.3772 32.9989 24.5555 32.9989 23.5415V15.851C32.9989 14.837 32.9989 14.0153 32.9445 13.3491C32.8883 12.662 32.7693 12.0527 32.4812 11.4871C32.0258 10.5933 31.2991 9.86667 30.4053 9.41127C30.3636 9.39003 30.3217 9.36971 30.2795 9.35026ZM14.5808 25.049C15.5792 25.5974 16.726 25.9093 17.9456 25.9093C21.8116 25.9093 24.9456 22.7753 24.9456 18.9093C24.9456 17.6897 24.6337 16.543 24.0853 15.5445L22.586 17.0438C22.8179 17.6202 22.9456 18.2499 22.9456 18.9093C22.9456 21.6707 20.707 23.9093 17.9456 23.9093C17.2861 23.9093 16.6565 23.7816 16.0801 23.5497L14.5808 25.049ZM21.4543 15.3471C20.5516 14.4579 19.3127 13.9093 17.9456 13.9093C15.1841 13.9093 12.9456 16.1478 12.9456 18.9093C12.9456 20.2764 13.4942 21.5153 14.3834 22.418L12.9691 23.8322C11.7181 22.5676 10.9456 20.8287 10.9456 18.9093C10.9456 15.0433 14.0796 11.9093 17.9456 11.9093C19.865 11.9093 21.6039 12.6818 22.8685 13.9329L21.4543 15.3471ZM25.567 14.0628C25.5833 14.8771 26.2485 15.5322 27.0667 15.5322C27.8951 15.5322 28.5667 14.8606 28.5667 14.0322C28.5667 13.214 27.9116 12.5488 27.0973 12.5325L25.567 14.0628Z" fill="white"/>
<path fill-rule="evenodd" clip-rule="evenodd" d="M31.163 4.29289C31.5535 4.68342 31.5535 5.31658 31.163 5.70711L5.70711 31.163C5.31658 31.5535 4.68342 31.5535 4.29289 31.163C3.90237 30.7724 3.90237 30.1393 4.29289 29.7487L29.7487 4.29289C30.1393 3.90237 30.7724 3.90237 31.163 4.29289Z" fill="white"/>
</svg>
