<svg width="36" height="36" viewBox="0 0 36 36" fill="none" xmlns="http://www.w3.org/2000/svg">
<path d="M30.7065 6.70773C31.0974 6.31755 31.0979 5.68438 30.7078 5.29352C30.3176 4.90265 29.6844 4.90209 29.2936 5.29227L23.4285 11.147C22.6879 9.8645 21.302 9.00143 19.7146 9.00143H7.28574C4.91879 9.00143 3 10.9202 3 13.2872V22.7157C3 25.0826 4.91879 27.0014 7.28574 27.0014H7.5461L4.29369 30.2481C3.90282 30.6383 3.90226 31.2715 4.29244 31.6623C4.68263 32.0532 5.31579 32.0538 5.70666 31.6636L30.7065 6.70773Z" fill="white"/>
<path d="M19.7146 27.0014H12.6937L24.0003 15.8226V22.7157C24.0003 25.0826 22.0815 27.0014 19.7146 27.0014Z" fill="white"/>
<path d="M33.0003 13.2002C33.0003 11.9275 31.4615 11.2901 30.5615 12.19L25.7229 17.0284C25.1797 17.5716 25.1633 18.4471 25.6858 19.0102L30.5244 24.2256C31.4077 25.1777 33.0003 24.5527 33.0003 23.254V13.2002Z" fill="white"/>
</svg>
