<svg width="36" height="36" viewBox="0 0 36 36" fill="none" xmlns="http://www.w3.org/2000/svg">
<path fill-rule="evenodd" clip-rule="evenodd" d="M29.749 4.49211C30.1395 4.10159 30.7726 4.10159 31.1631 4.49211C31.5535 4.88265 31.5536 5.5157 31.1631 5.90617L5.70703 31.3622C5.31653 31.7523 4.68339 31.7525 4.29297 31.3622C3.90244 30.9717 3.90244 30.3377 4.29297 29.9472L7.24121 26.9989H7.1377C4.924 26.9988 3.11683 25.2603 3.00586 23.0741L3 22.8613V13.1366C3.00013 10.8515 4.85257 8.99908 7.1377 8.99895H19.5518L19.7646 9.00481C21.2158 9.07837 22.4693 9.89954 23.1484 11.0907L29.749 4.49211ZM7.1377 10.9989C5.95714 10.9991 5.00013 11.9561 5 13.1366V22.8613C5.00017 24.0418 5.95716 24.9988 7.1377 24.9989H9.24023L12.8232 21.4159C11.3784 21.0858 10.2998 19.7939 10.2998 18.2489C10.2998 16.4541 11.755 14.999 13.5498 14.9989C15.0949 14.9989 16.3867 16.0774 16.7168 17.5224L21.6221 12.6161C21.3893 11.6875 20.5526 10.999 19.5518 10.9989H7.1377Z" fill="white"/>
<path d="M23.6895 22.8613L23.6846 23.0741C23.5772 25.1899 21.8804 26.8858 19.7646 26.9931L19.5518 26.9989H12.8213L14.8213 24.9989H19.5518C20.7324 24.9989 21.6893 24.0418 21.6895 22.8613V18.1308L23.6895 16.1308V22.8613Z" fill="white"/>
<path d="M30.5615 12.1874C31.4615 11.2875 33 11.9255 33 13.1982V23.2519C32.9997 24.5502 31.4076 25.1752 30.5244 24.2236L25.6855 19.0077C25.1634 18.4447 25.1799 17.5694 25.7227 17.0263L30.5615 12.1874Z" fill="white"/>
</svg>
