<svg width="36" height="36" viewBox="0 0 36 36" fill="none" xmlns="http://www.w3.org/2000/svg">
<path fill-rule="evenodd" clip-rule="evenodd" d="M29.749 4.29287C30.1396 3.90239 30.7726 3.90236 31.1631 4.29287C31.5534 4.6834 31.5535 5.31646 31.1631 5.70694L5.70703 31.163C5.31655 31.5533 4.68345 31.5533 4.29297 31.163C3.9025 30.7725 3.90261 30.1395 4.29297 29.7489L4.67383 29.3671C4.19855 28.963 3.80407 28.4675 3.51758 27.9052C3.22944 27.3396 3.11083 26.73 3.05469 26.0429C3.00028 25.3767 2.99999 24.5548 3 23.5409V15.8505C2.99999 14.8366 3.00026 14.0147 3.05469 13.3485C3.11083 12.6617 3.22959 12.0526 3.51758 11.4872C3.97298 10.5934 4.69998 9.86644 5.59375 9.41104C6.15926 9.12294 6.76896 9.00428 7.45605 8.94815C8.12207 8.89376 8.94345 8.89345 9.95703 8.89346H10.1592C10.3418 8.89346 10.5224 8.82329 10.7344 8.62295C10.9609 8.40879 11.1773 8.08498 11.3818 7.6835C11.7653 6.93098 12.3773 6.3189 13.1299 5.93545C13.6152 5.68822 14.1323 5.58977 14.6943 5.54385C15.2354 5.49967 15.8995 5.49989 16.7041 5.4999H19.2949C20.0998 5.49989 20.7645 5.49964 21.3057 5.54385C21.8675 5.58978 22.384 5.68834 22.8691 5.93545C23.6217 6.31888 24.2337 6.93101 24.6172 7.6835C24.8217 8.08492 25.0382 8.40879 25.2646 8.62295C25.2922 8.64903 25.322 8.6705 25.3486 8.69229L29.749 4.29287ZM16.7461 7.4999C15.8895 7.4999 15.3065 7.50024 14.8564 7.53701C14.4185 7.57282 14.1944 7.63807 14.0381 7.71768C13.6618 7.90939 13.3558 8.21546 13.1641 8.5917C12.7096 9.48356 11.8041 10.8935 10.1592 10.8935H10C8.9334 10.8935 8.19332 10.8943 7.61816 10.9413C7.05507 10.9873 6.7385 11.0728 6.50195 11.1933C5.98463 11.4569 5.56347 11.8772 5.2998 12.3944C5.17925 12.631 5.09389 12.9482 5.04785 13.5116C5.00086 14.0868 5 14.8269 5 15.8935V23.4989C5 24.5654 5.00086 25.3056 5.04785 25.8808C5.09389 26.4438 5.17932 26.7604 5.2998 26.997C5.49055 27.3713 5.76437 27.694 6.09668 27.9442L11.793 22.248C11.2532 21.2554 10.9453 20.1183 10.9453 18.9091C10.9453 15.0432 14.0794 11.9092 17.9453 11.9091C19.1547 11.9091 20.2926 12.2159 21.2852 12.7558L23.9297 10.1112C23.4208 9.64151 23.0679 9.04896 22.835 8.5917C22.6432 8.2155 22.3372 7.90938 21.9609 7.71768C21.8046 7.63809 21.5805 7.57281 21.1426 7.53701C20.6926 7.50025 20.1102 7.4999 19.2539 7.4999H16.7461ZM17.9453 13.9091C15.184 13.9092 12.9453 16.1477 12.9453 18.9091C12.9453 19.5578 13.0701 20.1772 13.2949 20.746L19.7822 14.2587C19.2135 14.0339 18.594 13.9091 17.9453 13.9091Z" fill="white"/>
<path d="M30.4053 9.41104C31.299 9.86644 32.026 10.5934 32.4814 11.4872C32.7694 12.0526 32.8882 12.6617 32.9443 13.3485C32.9988 14.0147 32.999 14.8366 32.999 15.8505V23.5409C32.999 24.5548 32.9987 25.3767 32.9443 26.0429C32.8882 26.73 32.7696 27.3397 32.4814 27.9052C32.026 28.7989 31.299 29.526 30.4053 29.9813C29.8398 30.2694 29.2301 30.3881 28.543 30.4442C27.8768 30.4986 27.0549 30.4989 26.041 30.4989H9.95703C9.66657 30.4989 9.3916 30.4983 9.13184 30.497L11.1309 28.4989H25.999C27.0655 28.4989 27.8057 28.4981 28.3809 28.4511C28.9439 28.4051 29.2605 28.3196 29.4971 28.1991C30.0145 27.9355 30.4356 27.5144 30.6992 26.997C30.8197 26.7604 30.9051 26.4438 30.9512 25.8808C30.9982 25.3056 30.999 24.5654 30.999 23.4989V15.8935C30.999 14.8269 30.9982 14.0868 30.9512 13.5116C30.9051 12.9482 30.8198 12.631 30.6992 12.3944C30.4356 11.8771 30.0144 11.4569 29.4971 11.1933C29.3028 11.0943 29.0546 11.0189 28.6602 10.9696L30.2793 9.35049C30.3215 9.36993 30.3636 9.3898 30.4053 9.41104Z" fill="white"/>
<path d="M24.085 15.5438C24.6333 16.5423 24.9453 17.6895 24.9453 18.9091C24.9453 22.7751 21.8113 25.9091 17.9453 25.9091C16.7259 25.909 15.5794 25.597 14.5811 25.0487L16.0801 23.5497C16.6564 23.7816 17.286 23.9091 17.9453 23.9091C20.7067 23.9091 22.9453 21.6705 22.9453 18.9091C22.9453 18.2497 22.8178 17.6202 22.5859 17.0438L24.085 15.5438Z" fill="white"/>
<path d="M27.0977 12.5321C27.9118 12.5486 28.5664 13.2141 28.5664 14.0321C28.5663 14.8605 27.8948 15.5321 27.0664 15.5321C26.2483 15.532 25.5837 14.8766 25.5674 14.0624L27.0977 12.5321Z" fill="white"/>
</svg>
