<svg width="36" height="36" viewBox="0 0 36 36" fill="none" xmlns="http://www.w3.org/2000/svg">
<path fill-rule="evenodd" clip-rule="evenodd" d="M29.749 4.49211C30.1395 4.10159 30.7726 4.10159 31.1631 4.49211C31.5535 4.88265 31.5536 5.5157 31.1631 5.90617L5.70703 31.3622C5.31653 31.7523 4.68339 31.7525 4.29297 31.3622C3.90244 30.9717 3.90244 30.3377 4.29297 29.9472L7.24219 26.997C4.89551 26.9734 3.00004 25.0651 3 22.7128V13.2851C3 10.9181 4.91918 8.99895 7.28613 8.99895H19.7148C21.2157 8.99905 22.5349 9.77115 23.2998 10.9394L29.749 4.49211ZM13.5 14.4989C11.567 14.4989 10 16.066 10 17.9989C10 19.6955 11.2074 21.1089 12.8096 21.4296L16.9307 17.3085C16.61 15.7063 15.1966 14.4989 13.5 14.4989Z" fill="white"/>
<path d="M24 22.7128C24 25.0796 22.0816 26.9988 19.7148 26.9989H12.8213L24 15.8202V22.7128Z" fill="white"/>
<path d="M30.5615 12.1874C31.4615 11.2876 33 11.9255 33 13.1982V23.2519C32.9997 24.5502 31.4076 25.1751 30.5244 24.2236L25.6855 19.0077C25.1633 18.4447 25.1798 17.5695 25.7227 17.0263L30.5615 12.1874Z" fill="white"/>
</svg>
