<svg width="36" height="36" viewBox="0 0 36 36" fill="none" xmlns="http://www.w3.org/2000/svg">
<path fill-rule="evenodd" clip-rule="evenodd" d="M24.4289 12.5634C24.428 12.5159 24.426 12.4687 24.4229 12.4217V10.7492C24.4229 9.50658 23.4156 8.49922 22.1729 8.49922H17.8094C17.5624 8.49922 17.3191 8.56024 17.1013 8.67685L15.3366 9.62177H6.25C4.59315 9.62177 3.25 10.9649 3.25 12.6218V24.5041C3.25 26.161 4.59314 27.5041 6.25 27.5041H9.48826L11.4883 25.5041H6.25C5.69772 25.5041 5.25 25.0564 5.25 24.5041V12.6218C5.25 12.0695 5.69772 11.6218 6.25 11.6218H21.4295C21.9818 11.6218 22.4295 12.0695 22.4295 12.6218V14.5629L24.4289 12.5634ZM14.3167 25.5041H21.4295C21.9818 25.5041 22.4295 25.0564 22.4295 24.5041V20.8105L22.4001 20.7978V17.4207L24.4295 15.3913V15.4507L30.6553 12.7615C31.6455 12.3337 32.75 13.0598 32.75 14.1385V22.9865C32.75 24.0653 31.6455 24.7913 30.6553 24.3636L24.4295 21.6744V24.5041C24.4295 26.161 23.0863 27.5041 21.4295 27.5041H12.3167L14.3167 25.5041ZM7.78857 14.0924H12.327V17.0727H7.78857V14.0924ZM30.5 15.2794L24.6501 17.8063V19.3188L30.5 21.8456V15.2794Z" fill="white"/>
<path fill-rule="evenodd" clip-rule="evenodd" d="M31.1629 4.49211C31.5534 4.88264 31.5534 5.5158 31.1629 5.90633L5.70707 31.3622C5.31655 31.7527 4.68338 31.7527 4.29286 31.3622C3.90233 30.9716 3.90233 30.3385 4.29286 29.948L29.7487 4.49211C30.1392 4.10159 30.7724 4.10159 31.1629 4.49211Z" fill="white"/>
</svg>
