<svg width="36" height="36" viewBox="0 0 36 36" fill="none" xmlns="http://www.w3.org/2000/svg">
<path fill-rule="evenodd" clip-rule="evenodd" d="M17.1013 8.67763C17.3191 8.56102 17.5624 8.5 17.8094 8.5H22.1729C23.4156 8.5 24.4229 9.50736 24.4229 10.75V12.4225C24.4273 12.4886 24.4295 12.5553 24.4295 12.6225V15.4514L30.6553 12.7623C31.6455 12.3345 32.75 13.0606 32.75 14.1393V22.9873C32.75 24.066 31.6455 24.7921 30.6553 24.3644L24.4295 21.6752V24.5049C24.4295 26.1618 23.0863 27.5049 21.4295 27.5049H6.25C4.59314 27.5049 3.25 26.1618 3.25 24.5049V12.6226C3.25 10.9657 4.59315 9.62255 6.25 9.62255H15.3366L17.1013 8.67763ZM22.4295 16.3153L22.4001 16.328V20.7986L22.4295 20.8113V24.5049C22.4295 25.0572 21.9818 25.5049 21.4295 25.5049H6.25C5.69772 25.5049 5.25 25.0572 5.25 24.5049V12.6226C5.25 12.0703 5.69772 11.6225 6.25 11.6225H21.4295C21.9818 11.6225 22.4295 12.0703 22.4295 12.6225V16.3153ZM12.327 14.0931H7.78857V17.0735H12.327V14.0931ZM24.6501 17.8071L30.5 15.2802V21.8464L24.6501 19.3196V17.8071Z" fill="white"/>
</svg>
