<svg width="36" height="36" viewBox="0 0 36 36" fill="none" xmlns="http://www.w3.org/2000/svg">
<path d="M16.75 18.2883C16.75 20.0833 15.2949 21.5383 13.5 21.5383C11.7051 21.5383 10.25 20.0833 10.25 18.2883C10.25 16.4934 11.7051 15.0383 13.5 15.0383C15.2949 15.0383 16.75 16.4934 16.75 18.2883Z" fill="white"/>
<path fill-rule="evenodd" clip-rule="evenodd" d="M3 13.1379C3 10.8526 4.85261 9 7.13793 9H19.5517C21.837 9 23.6897 10.8526 23.6897 13.1379V22.8621C23.6897 25.1474 21.837 27 19.5517 27H7.13793C4.85262 27 3 25.1474 3 22.8621V13.1379ZM7.13793 11H19.5517C20.7325 11 21.6897 11.9572 21.6897 13.1379V22.8621C21.6897 24.0428 20.7325 25 19.5517 25H7.13793C5.95719 25 5 24.0428 5 22.8621V13.1379C5 11.9572 5.95718 11 7.13793 11Z" fill="white"/>
<path d="M33.0004 13.1988C33.0004 11.9261 31.4616 11.2887 30.5617 12.1886L25.7231 17.027C25.1799 17.5702 25.1635 18.4456 25.6859 19.0088L30.5245 24.2242C31.4078 25.1763 33.0004 24.5513 33.0004 23.2526V13.1988Z" fill="white"/>
</svg>
