<svg width="36" height="36" viewBox="0 0 36 36" fill="none" xmlns="http://www.w3.org/2000/svg">
<path fill-rule="evenodd" clip-rule="evenodd" d="M25.9956 3.29289C26.3861 2.90237 27.0193 2.90237 27.4098 3.29289L30.4368 6.31992C30.8274 6.71044 30.8274 7.34361 30.4368 7.73413L27.4098 10.7612C27.0193 11.1517 26.3861 11.1517 25.9956 10.7612C25.6051 10.3706 25.6051 9.73747 25.9956 9.34695L27.3155 8.02703H11.2C9.92338 8.02703 9.02606 8.0278 8.32584 8.08501C7.6373 8.14127 7.22787 8.24707 6.91103 8.4085C6.25247 8.74406 5.71703 9.27949 5.38148 9.93806C5.22004 10.2549 5.11424 10.6643 5.05799 11.3529C5.00078 12.0531 5 12.9504 5 14.227V23.6757C5 24.228 4.55229 24.6757 4 24.6757C3.44772 24.6757 3 24.228 3 23.6757L3 14.1837C2.99999 12.9603 2.99998 11.9812 3.06463 11.19C3.13099 10.3778 3.27043 9.67585 3.59946 9.03008C4.12677 7.99519 4.96816 7.15379 6.00305 6.62649C6.64882 6.29746 7.35075 6.15802 8.16298 6.09166C8.95421 6.02701 9.93329 6.02702 11.1567 6.02703H27.3155L25.9956 4.70711C25.6051 4.31658 25.6051 3.68342 25.9956 3.29289ZM32 11.3243C32.5523 11.3243 33 11.772 33 12.3243V21.8163C33 23.0397 33 24.0188 32.9354 24.81C32.869 25.6222 32.7296 26.3242 32.4005 26.9699C31.8732 28.0048 31.0318 28.8462 29.9969 29.3735C29.3512 29.7025 28.6493 29.842 27.837 29.9083C27.0458 29.973 26.0667 29.973 24.8434 29.973H8.68448L10.0044 31.2929C10.3949 31.6834 10.3949 32.3166 10.0044 32.7071C9.61388 33.0976 8.98072 33.0976 8.59019 32.7071L5.56316 29.6801C5.17264 29.2896 5.17264 28.6564 5.56316 28.2659L8.59019 25.2388C8.98072 24.8483 9.61388 24.8483 10.0044 25.2388C10.3949 25.6294 10.3949 26.2625 10.0044 26.6531L8.68448 27.973H24.8C26.0766 27.973 26.9739 27.9722 27.6742 27.915C28.3627 27.8587 28.7721 27.7529 29.089 27.5915C29.7475 27.2559 30.283 26.7205 30.6185 26.0619C30.78 25.7451 30.8858 25.3357 30.942 24.6471C30.9992 23.9469 31 23.0496 31 21.773V12.3243C31 11.772 31.4477 11.3243 32 11.3243Z" fill="white"/>
<path fill-rule="evenodd" clip-rule="evenodd" d="M17.875 12.875C15.1136 12.875 12.875 15.1136 12.875 17.875C12.875 20.6364 15.1136 22.875 17.875 22.875C20.6364 22.875 22.875 20.6364 22.875 17.875C22.875 15.1136 20.6364 12.875 17.875 12.875ZM10.875 17.875C10.875 14.009 14.009 10.875 17.875 10.875C21.741 10.875 24.875 14.009 24.875 17.875C24.875 21.741 21.741 24.875 17.875 24.875C14.009 24.875 10.875 21.741 10.875 17.875Z" fill="white"/>
</svg>
