<svg width="36" height="36" viewBox="0 0 36 36" fill="none" xmlns="http://www.w3.org/2000/svg">
<path fill-rule="evenodd" clip-rule="evenodd" d="M29.749 4.29287C30.1396 3.90239 30.7726 3.90236 31.1631 4.29287C31.5534 4.6834 31.5535 5.31646 31.1631 5.70694L5.70703 31.163C5.31655 31.5533 4.68345 31.5533 4.29297 31.163C3.9025 30.7725 3.90261 30.1395 4.29297 29.7489L4.70606 29.3349C4.22343 28.924 3.82297 28.4211 3.53125 27.8515C3.23261 27.2683 3.11146 26.6435 3.05469 25.9521C2.99984 25.2841 2.99999 24.4619 3 23.4569V15.9003C2.99999 14.8954 2.99984 14.0731 3.05469 13.4052C3.11147 12.714 3.23275 12.0898 3.53125 11.5067C3.99863 10.594 4.74482 9.85168 5.66211 9.38662C6.24811 9.08959 6.87558 8.96948 7.57031 8.91299C8.24166 8.85841 9.06806 8.85829 10.0781 8.8583H10.2324C10.3708 8.8583 10.5189 8.80897 10.7109 8.62881C10.9193 8.43329 11.1252 8.12977 11.3242 7.74112C11.7196 6.9689 12.3509 6.34069 13.127 5.94717C13.6328 5.69069 14.1685 5.59017 14.7383 5.54385C15.2845 5.49947 15.953 5.49989 16.7539 5.4999H19.2461C20.047 5.49989 20.7155 5.49947 21.2617 5.54385C21.8315 5.59017 22.3672 5.69069 22.873 5.94717C23.6491 6.34069 24.2804 6.9689 24.6758 7.74112C24.8748 8.12977 25.0807 8.43329 25.2891 8.62881C25.3117 8.65004 25.336 8.66675 25.3574 8.68447L29.749 4.29287ZM18 11.8378C14.0703 11.8378 10.8751 15.0087 10.875 18.9325C10.875 20.1555 11.1862 21.305 11.7324 22.3085L13.4277 20.6132C13.2327 20.0892 13.125 19.5232 13.125 18.9325C13.1251 16.2619 15.3023 14.0878 18 14.0878C18.5848 14.0878 19.1451 14.1896 19.6641 14.3769L21.3643 12.6767C20.3618 12.141 19.216 11.8378 18 11.8378Z" fill="white"/>
<path fill-rule="evenodd" clip-rule="evenodd" d="M30.3379 9.38662C31.2552 9.85168 32.0014 10.594 32.4688 11.5067C32.7673 12.0898 32.8885 12.714 32.9453 13.4052C33.0002 14.0731 33 14.8954 33 15.9003V23.4569C33 24.4619 33.0002 25.2841 32.9453 25.9521C32.8885 26.6435 32.7674 27.2683 32.4688 27.8515C32.0014 28.7641 31.2551 29.5056 30.3379 29.9706C29.7518 30.2677 29.1245 30.3887 28.4297 30.4452C27.7583 30.4998 26.9319 30.4999 25.9219 30.4999H10.0781C9.74288 30.4999 9.42762 30.4999 9.13184 30.498L14.5098 25.12C15.5417 25.6985 16.7328 26.0282 18 26.0282C21.9297 26.0282 25.125 22.8563 25.125 18.9325C25.125 17.6585 24.7877 16.4641 24.1982 15.4315L30.2744 9.35537C30.2956 9.36561 30.3168 9.37594 30.3379 9.38662ZM28.5 11.8437C27.6716 11.8437 27.0001 12.5116 27 13.3358C27 14.1601 27.6716 14.829 28.5 14.829C29.3284 14.829 30 14.1601 30 13.3358C29.9999 12.5116 29.3284 11.8437 28.5 11.8437Z" fill="white"/>
<path d="M22.5186 17.1112C22.7484 17.6738 22.875 18.2888 22.875 18.9325C22.875 21.6031 20.6977 23.7782 18 23.7782C17.3618 23.7782 16.7524 23.6557 16.1943 23.4345L22.5186 17.1112Z" fill="white"/>
</svg>
