<svg width="36" height="36" viewBox="0 0 36 36" fill="none" xmlns="http://www.w3.org/2000/svg">
<path fill-rule="evenodd" clip-rule="evenodd" d="M24.4231 12.3783V10.75C24.4231 9.50736 23.4157 8.5 22.1731 8.5H17.8549C17.5508 8.5 17.2538 8.59246 17.0034 8.76511L15.7599 9.62255H6.25C4.59315 9.62255 3.25 10.9657 3.25 12.6226V24.5049C3.25 26.1618 4.59314 27.5049 6.25 27.5049H9.29646L24.4231 12.3783ZM12.1249 27.5049H21.4295C23.0863 27.5049 24.4295 26.1618 24.4295 24.5049V15.2003L12.1249 27.5049ZM6.27563 12.6029H10.7756V15.6029H6.27563V12.6029ZM31.645 12.4511L26.6987 15.1087V22.0178L31.645 24.6754C32.1446 24.9439 32.75 24.582 32.75 24.0148V13.1118C32.75 12.5445 32.1446 12.1826 31.645 12.4511Z" fill="white"/>
<path fill-rule="evenodd" clip-rule="evenodd" d="M31.163 4.29289C31.5535 4.68342 31.5535 5.31658 31.163 5.70711L5.70711 31.163C5.31658 31.5535 4.68342 31.5535 4.29289 31.163C3.90237 30.7724 3.90237 30.1393 4.29289 29.7487L29.7487 4.29289C30.1393 3.90237 30.7724 3.90237 31.163 4.29289Z" fill="white"/>
</svg>
