<svg width="36" height="36" viewBox="0 0 36 36" fill="none" xmlns="http://www.w3.org/2000/svg">
<path fill-rule="evenodd" clip-rule="evenodd" d="M25.5388 3.40357C24.7923 2.65701 23.5178 2.99548 23.24 4.01408L22.1899 7.86479C20.4213 7.01109 18.2332 7.31785 16.7661 8.78508L8.78675 16.765C7.3196 18.2323 7.01288 20.4206 7.86659 22.1893L4.01401 23.2401C2.99548 23.5179 2.65703 24.7924 3.40354 25.539L10.4592 32.5952C11.2057 33.3418 12.4802 33.0033 12.758 31.9847L13.8086 28.132C15.5773 28.9861 17.7657 28.6794 19.233 27.212L27.2124 19.2321C28.6792 17.7652 28.9861 15.5775 28.1331 13.809L31.984 12.7587C33.0025 12.4809 33.341 11.2063 32.5944 10.4598L25.5388 3.40357ZM22.0428 10.1732C22.0528 10.1842 22.0632 10.195 22.0738 10.2056L25.7929 13.925C25.8034 13.9355 25.8142 13.9458 25.8251 13.9558C26.8721 15.0318 26.8631 16.7529 25.7982 17.8178L17.8189 25.7978C16.7449 26.8718 15.0038 26.8718 13.9298 25.7978L10.2009 22.0686C9.12699 20.9946 9.12699 19.2533 10.2009 18.1793L18.1803 10.1993C19.2454 9.13413 20.9669 9.12541 22.0428 10.1732ZM26.7981 12.1L30.4188 11.1125L24.8861 5.5794L23.8987 9.20033L26.7981 12.1ZM9.20127 23.8984L5.57921 24.8863L11.1119 30.4194L12.0997 26.797L9.20127 23.8984ZM20.3006 14.4561C20.6911 14.0656 20.6911 13.4324 20.3006 13.0418C19.9101 12.6513 19.2769 12.6513 18.8864 13.0418L13.0421 18.8866C12.6516 19.2771 12.6516 19.9103 13.0421 20.3008C13.4326 20.6914 14.0658 20.6914 14.4563 20.3008L20.3006 14.4561Z" fill="white"/>
</svg>
