<svg width="36" height="36" viewBox="0 0 36 36" fill="none" xmlns="http://www.w3.org/2000/svg">
<path fill-rule="evenodd" clip-rule="evenodd" d="M29.6945 5.95494C30.2767 5.48913 30.371 4.63958 29.9052 4.05741C29.4394 3.47524 28.5898 3.38092 28.0077 3.84672L27.115 4.56098C26.5248 5.03304 26.1285 5.35003 25.7869 5.70817C24.8725 6.66658 24.2372 7.85103 23.9421 9.13385C22.6908 8.58031 21.3063 8.27286 19.85 8.27286H19.3355C19.3168 8.00754 19.2853 7.7697 19.2318 7.54612C18.8157 5.80592 17.457 4.44721 15.7168 4.03108C15.1698 3.90029 14.5375 3.9005 13.6265 3.9008L12.7078 3.90083C11.8667 3.90082 11.1851 3.90082 10.6296 3.9386C10.0575 3.97751 9.54685 4.0598 9.06142 4.26017C7.89321 4.74238 6.96533 5.67026 6.48312 6.83848C6.28275 7.3239 6.20046 7.8346 6.16155 8.4067C6.12377 8.96214 6.12377 9.64375 6.12378 10.4848L6.12378 12.0515C6.04279 12.4039 6 12.7709 6 13.1479V27.3767C6 30.0691 8.18261 32.2517 10.875 32.2517H25.1C27.7924 32.2517 29.975 30.0691 29.975 27.3767V18.3979C29.975 15.3323 28.6126 12.5849 26.4602 10.7281C26.4654 10.4761 26.4759 10.3141 26.4967 10.1599C26.6279 9.18761 27.0633 8.28175 27.7405 7.5719C27.9413 7.36132 28.186 7.16194 28.8739 6.61152L29.6945 5.95494ZM15.2516 5.97624C14.9652 5.90774 14.5908 5.90083 13.4914 5.90083H12.7429C11.8584 5.90083 11.2449 5.90137 10.7654 5.93399C10.2948 5.966 10.0264 6.02555 9.82452 6.10887C9.14819 6.38805 8.61099 6.92524 8.33182 7.60157C8.2485 7.80343 8.18895 8.07181 8.15694 8.54242C8.14523 8.71449 8.13766 8.9038 8.13276 9.11668C8.91405 8.58417 9.85817 8.27286 10.875 8.27286H17.3295C17.3189 8.17115 17.305 8.08805 17.2866 8.01126C17.0457 7.00378 16.2591 6.21715 15.2516 5.97624ZM13.8248 14.6844C13.4343 14.2939 12.8012 14.2938 12.4106 14.6843C12.0201 15.0748 12.02 15.708 12.4105 16.0985L16.5735 20.2622L12.4105 24.4258C12.02 24.8164 12.0201 25.4496 12.4106 25.8401C12.8012 26.2305 13.4343 26.2305 13.8248 25.8399L17.9876 21.6765L22.1503 25.8399C22.5408 26.2305 23.174 26.2305 23.5646 25.8401C23.9551 25.4496 23.9552 24.8164 23.5647 24.4258L19.4017 20.2622L23.5647 16.0985C23.9552 15.708 23.9551 15.0748 23.5646 14.6843C23.174 14.2938 22.5408 14.2939 22.1503 14.6844L17.9876 18.8479L13.8248 14.6844Z" fill="white"/>
</svg>
