<svg width="36" height="36" viewBox="0 0 36 36" fill="none" xmlns="http://www.w3.org/2000/svg">
<path fill-rule="evenodd" clip-rule="evenodd" d="M23.0951 21.681L14.3186 12.9045L20.4053 6.81769C22.8289 4.39413 26.7583 4.3941 29.1818 6.81763C31.6055 9.2412 31.6055 13.1706 29.1819 15.5942L23.0951 21.681ZM12.9044 14.3187L21.6809 23.0952L15.5942 29.1819C13.1706 31.6055 9.24127 31.6055 6.8177 29.1819C4.39412 26.7584 4.3941 22.829 6.81766 20.4054L12.9044 14.3187ZM18.9911 5.40348L5.40345 18.9912C2.19883 22.1958 2.19885 27.3916 5.4035 30.5962C8.60812 33.8007 13.8038 33.8007 17.0084 30.5961L30.5961 17.0084C33.8008 13.8038 33.8007 8.60801 30.596 5.4034C27.3914 2.19883 22.1957 2.19887 18.9911 5.40348ZM12.7146 19.8859C13.3397 19.8859 13.8464 19.3791 13.8464 18.7538C13.8464 18.1286 13.3397 17.6218 12.7146 17.6218C12.0896 17.6218 11.5829 18.1286 11.5829 18.7538C11.5829 19.3791 12.0896 19.8859 12.7146 19.8859ZM9.31802 23.2831C9.31802 23.9084 8.81132 24.4152 8.18627 24.4152C7.56123 24.4152 7.05453 23.9084 7.05453 23.2831C7.05453 22.6579 7.56123 22.1511 8.18627 22.1511C8.81132 22.1511 9.31802 22.6579 9.31802 23.2831ZM17.2449 24.4152C17.8699 24.4152 18.3766 23.9084 18.3766 23.2831C18.3766 22.6579 17.8699 22.1511 17.2449 22.1511C16.6198 22.1511 16.1131 22.6579 16.1131 23.2831C16.1131 23.9084 16.6198 24.4152 17.2449 24.4152ZM13.8464 27.8124C13.8464 28.4377 13.3397 28.9445 12.7146 28.9445C12.0896 28.9445 11.5829 28.4377 11.5829 27.8124C11.5829 27.1872 12.0896 26.6804 12.7146 26.6804C13.3397 26.6804 13.8464 27.1872 13.8464 27.8124ZM12.7146 24.4152C13.3397 24.4152 13.8464 23.9084 13.8464 23.2831C13.8464 22.6579 13.3397 22.1511 12.7146 22.1511C12.0896 22.1511 11.5829 22.6579 11.5829 23.2831C11.5829 23.9084 12.0896 24.4152 12.7146 24.4152Z" fill="white"/>
</svg>
