<svg width="36" height="36" viewBox="0 0 36 36" fill="none" xmlns="http://www.w3.org/2000/svg">
<path fill-rule="evenodd" clip-rule="evenodd" d="M31.3861 7.61157C28.5675 4.79613 23.9978 4.79614 21.1793 7.61161L17.9806 10.8068L14.787 7.61672C11.9673 4.80012 7.3926 4.81029 4.58551 7.63941C1.79959 10.4472 1.8056 14.975 4.59896 17.7754L8.26104 21.4467C8.88647 22.0737 9.90261 22.0746 10.5292 21.4487L17.9806 14.0054L25.4477 21.4645C26.0721 22.0882 27.0842 22.0891 27.7098 21.4665L31.3769 17.8165C34.2041 15.0025 34.2082 10.4306 31.3861 7.61157ZM26.5806 19.3975L19.5816 12.4061L22.7803 9.2109C24.7146 7.2787 27.8507 7.27869 29.785 9.21088C31.7218 11.1455 31.719 14.2832 29.7788 16.2144L26.5806 19.3975ZM19.1089 29.3691C19.1089 29.9937 18.6021 30.5 17.9768 30.5C17.3516 30.5 16.8447 29.9937 16.8447 29.3691C16.8447 28.7446 17.3516 28.2383 17.9768 28.2383C18.6021 28.2383 19.1089 28.7446 19.1089 29.3691ZM17.9768 25.9765C18.6021 25.9765 19.1089 25.4702 19.1089 24.8456C19.1089 24.2211 18.6021 23.7148 17.9768 23.7148C17.3516 23.7148 16.8447 24.2211 16.8447 24.8456C16.8447 25.4702 17.3516 25.9765 17.9768 25.9765ZM13.4484 25.9765C12.8232 25.9765 12.3163 25.4702 12.3163 24.8456C12.3163 24.2211 12.8232 23.7148 13.4484 23.7148C14.0737 23.7148 14.5805 24.2211 14.5805 24.8456C14.5805 25.4702 14.0737 25.9765 13.4484 25.9765ZM17.9768 21.453C18.6021 21.453 19.1089 20.9467 19.1089 20.3222C19.1089 19.6976 18.6021 19.1913 17.9768 19.1913C17.3516 19.1913 16.8447 19.6976 16.8447 20.3222C16.8447 20.9467 17.3516 21.453 17.9768 21.453ZM22.5052 25.9765C21.88 25.9765 21.3731 25.4702 21.3731 24.8456C21.3731 24.2211 21.88 23.7148 22.5052 23.7148C23.1305 23.7148 23.6373 24.2211 23.6373 24.8456C23.6373 25.4702 23.1305 25.9765 22.5052 25.9765ZM13.5231 13.1541C13.9652 12.7125 13.9652 11.9965 13.5231 11.5548C13.081 11.1132 12.3642 11.1132 11.9221 11.5548C11.48 11.9965 11.48 12.7125 11.9221 13.1541C12.3642 13.5958 13.081 13.5958 13.5231 13.1541ZM10.3211 14.7534C10.7632 15.195 10.7632 15.9111 10.3211 16.3527C9.87894 16.7943 9.16214 16.7943 8.72002 16.3527C8.27791 15.9111 8.27791 15.195 8.72002 14.7534C9.16214 14.3118 9.87894 14.3118 10.3211 14.7534ZM9.14895 11.9833C9.59106 11.5417 9.59106 10.8256 9.14895 10.384C8.70683 9.94236 7.99002 9.94236 7.54791 10.384C7.1058 10.8256 7.1058 11.5417 7.54791 11.9833C7.99002 12.4249 8.70683 12.4249 9.14895 11.9833Z" fill="white"/>
</svg>
