<svg width="36" height="36" viewBox="0 0 36 36" fill="none" xmlns="http://www.w3.org/2000/svg">
<path fill-rule="evenodd" clip-rule="evenodd" d="M23.0508 21.4636L14.5364 12.9492L20.4773 7.00826C22.8285 4.65706 26.6405 4.65704 28.9917 7.00819C31.3429 9.35939 31.343 13.1715 28.9918 15.5227L23.0508 21.4636ZM30.579 5.42083C27.3511 2.19302 22.1178 2.19306 18.8899 5.42092L5.42088 18.89C2.19302 22.1179 2.19304 27.3513 5.42093 30.5791C8.6488 33.807 13.8822 33.8069 17.11 30.5791L30.5791 17.11C33.807 13.8821 33.807 8.64868 30.579 5.42083ZM12.7622 19.8707C13.3821 19.8707 13.8846 19.3682 13.8846 18.7483C13.8846 18.1284 13.3821 17.6258 12.7622 17.6258C12.1423 17.6258 11.6398 18.1284 11.6398 18.7483C11.6398 19.3682 12.1423 19.8707 12.7622 19.8707ZM9.39439 23.238C9.39439 23.8579 8.89187 24.3604 8.27197 24.3604C7.65207 24.3604 7.14954 23.8579 7.14954 23.238C7.14954 22.6181 7.65207 22.1155 8.27197 22.1155C8.89187 22.1155 9.39439 22.6181 9.39439 23.238ZM17.2515 24.3604C17.8714 24.3604 18.3739 23.8579 18.3739 23.238C18.3739 22.6181 17.8714 22.1155 17.2515 22.1155C16.6316 22.1155 16.129 22.6181 16.129 23.238C16.129 23.8579 16.6316 24.3604 17.2515 24.3604ZM13.8846 27.7277C13.8846 28.3475 13.3821 28.8501 12.7622 28.8501C12.1423 28.8501 11.6398 28.3475 11.6398 27.7277C11.6398 27.1078 12.1423 26.6052 12.7622 26.6052C13.3821 26.6052 13.8846 27.1078 13.8846 27.7277ZM12.7622 24.3604C13.3821 24.3604 13.8846 23.8579 13.8846 23.238C13.8846 22.6181 13.3821 22.1155 12.7622 22.1155C12.1423 22.1155 11.6398 22.6181 11.6398 23.238C11.6398 23.8579 12.1423 24.3604 12.7622 24.3604Z" fill="white"/>
</svg>
