<svg width="36" height="36" viewBox="0 0 36 36" fill="none" xmlns="http://www.w3.org/2000/svg">
<path fill-rule="evenodd" clip-rule="evenodd" d="M7.56057 8.25L9.5 8.25V27.75H7.56055C6.96411 27.75 6.45699 27.75 6.04077 27.716C5.60374 27.6803 5.17965 27.6022 4.77453 27.3958C4.16301 27.0842 3.66582 26.587 3.35423 25.9755C3.14781 25.5704 3.06968 25.1463 3.03398 24.7092C2.99997 24.293 2.99998 23.7859 3 23.1894V12.8106C2.99998 12.2141 2.99997 11.707 3.03398 11.2908C3.06968 10.8537 3.14781 10.4297 3.35423 10.0245C3.66582 9.41301 4.16301 8.91582 4.77453 8.60423C5.17965 8.39781 5.60374 8.31968 6.04077 8.28398C6.45699 8.24997 6.96412 8.24998 7.56057 8.25ZM6.20364 10.2773C5.89029 10.3029 5.7587 10.3474 5.68251 10.3862C5.44731 10.5061 5.25608 10.6973 5.13624 10.9325C5.09743 11.0087 5.05294 11.1403 5.02733 11.4536C5.00078 11.7787 5 12.2034 5 12.85V23.15C5 23.7966 5.00078 24.2213 5.02733 24.5464C5.05294 24.8597 5.09743 24.9913 5.13624 25.0675C5.25608 25.3027 5.44731 25.4939 5.68251 25.6138C5.7587 25.6526 5.89029 25.6971 6.20364 25.7227C6.5116 25.7478 6.90912 25.7498 7.5 25.75V10.25C6.90912 10.2502 6.5116 10.2522 6.20364 10.2773Z" fill="white"/>
<path fill-rule="evenodd" clip-rule="evenodd" d="M28.4394 8.25L26.5 8.25V27.75H28.4394C29.0359 27.75 29.543 27.75 29.9592 27.716C30.3963 27.6803 30.8204 27.6022 31.2255 27.3958C31.837 27.0842 32.3342 26.587 32.6458 25.9755C32.8522 25.5704 32.9303 25.1463 32.966 24.7092C33 24.293 33 23.7859 33 23.1894V12.8106C33 12.2141 33 11.707 32.966 11.2908C32.9303 10.8537 32.8522 10.4297 32.6458 10.0245C32.3342 9.41301 31.837 8.91582 31.2255 8.60423C30.8204 8.39781 30.3963 8.31968 29.9592 8.28398C29.543 8.24997 29.0359 8.24998 28.4394 8.25ZM29.7964 10.2773C30.1097 10.3029 30.2413 10.3474 30.3175 10.3862C30.5527 10.5061 30.7439 10.6973 30.8638 10.9325C30.9026 11.0087 30.9471 11.1403 30.9727 11.4536C30.9992 11.7787 31 12.2034 31 12.85V23.15C31 23.7966 30.9992 24.2213 30.9727 24.5464C30.9471 24.8597 30.9026 24.9913 30.8638 25.0675C30.7439 25.3027 30.5527 25.4939 30.3175 25.6138C30.2413 25.6526 30.1097 25.6971 29.7964 25.7227C29.4884 25.7478 29.0909 25.7498 28.5 25.75V10.25C29.0909 10.2502 29.4884 10.2522 29.7964 10.2773Z" fill="white"/>
<path d="M27.5 24.95V11.05C27.5 9.36984 27.5 8.52976 27.173 7.88803C26.8854 7.32354 26.4265 6.8646 25.862 6.57698C25.2202 6.25 24.3802 6.25 22.7 6.25H13.3C11.6198 6.25 10.7798 6.25 10.138 6.57698C9.57354 6.8646 9.1146 7.32354 8.82698 7.88803C8.5 8.52976 8.5 9.36984 8.5 11.05V24.95C8.5 26.6302 8.5 27.4702 8.82698 28.112C9.1146 28.6765 9.57354 29.1354 10.138 29.423C10.7798 29.75 11.6198 29.75 13.3 29.75H22.7C24.3802 29.75 25.2202 29.75 25.862 29.423C26.4265 29.1354 26.8854 28.6765 27.173 28.112C27.5 27.4702 27.5 26.6302 27.5 24.95Z" fill="white"/>
<path fill-rule="evenodd" clip-rule="evenodd" d="M13.2587 5.25H22.7413C23.5463 5.24999 24.2106 5.24998 24.7518 5.29419C25.3139 5.34012 25.8306 5.43868 26.316 5.68597C27.0686 6.06947 27.6805 6.68139 28.064 7.43404C28.3113 7.91937 28.4099 8.43608 28.4558 8.99817C28.5 9.53936 28.5 10.2037 28.5 11.0087V24.9913C28.5 25.7963 28.5 26.4606 28.4558 27.0018C28.4099 27.5639 28.3113 28.0806 28.064 28.566C27.6805 29.3186 27.0686 29.9305 26.316 30.314C25.8306 30.5613 25.3139 30.6599 24.7518 30.7058C24.2106 30.75 23.5463 30.75 22.7413 30.75H13.2587C12.4537 30.75 11.7894 30.75 11.2482 30.7058C10.6861 30.6599 10.1694 30.5613 9.68404 30.314C8.93139 29.9305 8.31947 29.3186 7.93598 28.566C7.68868 28.0806 7.59012 27.5639 7.5442 27.0018C7.49998 26.4606 7.49999 25.7963 7.5 24.9913V11.0087C7.49999 10.2037 7.49998 9.53937 7.5442 8.99817C7.59012 8.43608 7.68868 7.91937 7.93598 7.43404C8.31947 6.68139 8.93139 6.06947 9.68404 5.68597C10.1694 5.43868 10.6861 5.34012 11.2482 5.29419C11.7894 5.24998 12.4537 5.24999 13.2587 5.25ZM11.411 7.28755C10.9726 7.32337 10.7484 7.3883 10.592 7.46799C10.2157 7.65973 9.90974 7.9657 9.71799 8.34202C9.6383 8.49842 9.57337 8.72262 9.53755 9.16104C9.50078 9.61113 9.5 10.1934 9.5 11.05V24.95C9.5 25.8066 9.50078 26.3889 9.53755 26.839C9.57337 27.2774 9.6383 27.5016 9.71799 27.658C9.90973 28.0343 10.2157 28.3403 10.592 28.532C10.7484 28.6117 10.9726 28.6766 11.411 28.7124C11.8611 28.7492 12.4434 28.75 13.3 28.75H22.7C23.5566 28.75 24.1389 28.7492 24.589 28.7124C25.0274 28.6766 25.2516 28.6117 25.408 28.532C25.7843 28.3403 26.0903 28.0343 26.282 27.658C26.3617 27.5016 26.4266 27.2774 26.4624 26.839C26.4992 26.3889 26.5 25.8066 26.5 24.95V11.05C26.5 10.1934 26.4992 9.61113 26.4624 9.16104C26.4266 8.72262 26.3617 8.49842 26.282 8.34202C26.0903 7.96569 25.7843 7.65973 25.408 7.46799C25.2516 7.3883 25.0274 7.32337 24.589 7.28755C24.1389 7.25078 23.5566 7.25 22.7 7.25H13.3C12.4434 7.25 11.8611 7.25078 11.411 7.28755Z" fill="white"/>
</svg>
