<svg width="36" height="36" viewBox="0 0 36 36" fill="none" xmlns="http://www.w3.org/2000/svg">
<path fill-rule="evenodd" clip-rule="evenodd" d="M23.1895 3C23.7858 2.99998 24.2928 3.00019 24.709 3.03418C25.146 3.06989 25.5705 3.14807 25.9756 3.35449C26.587 3.66605 27.0839 4.16305 27.3955 4.77441C27.6019 5.17953 27.6801 5.60398 27.7158 6.04102C27.7498 6.45719 27.75 6.96422 27.75 7.56055V7.65137C28.0325 7.7133 28.3044 7.80203 28.5664 7.93555C29.3189 8.31902 29.931 8.93109 30.3145 9.68359C30.5617 10.1689 30.6601 10.686 30.7061 11.248C30.7503 11.7892 30.75 12.4538 30.75 13.2588V22.7412C30.75 23.5462 30.7503 24.2108 30.7061 24.752C30.6601 25.314 30.5617 25.8311 30.3145 26.3164C29.931 27.0689 29.3189 27.681 28.5664 28.0645C28.3044 28.1979 28.0325 28.2857 27.75 28.3477V28.4395C27.75 29.0358 27.7498 29.5428 27.7158 29.959C27.6801 30.396 27.6019 30.8205 27.3955 31.2256C27.0839 31.837 26.587 32.3339 25.9756 32.6455C25.5705 32.8519 25.146 32.9301 24.709 32.9658C24.2928 32.9998 23.7858 33 23.1895 33H12.8105C12.2142 33 11.7072 32.9998 11.291 32.9658C10.854 32.9301 10.4295 32.8519 10.0244 32.6455C9.41305 32.3339 8.91605 31.837 8.60449 31.2256C8.39807 30.8205 8.31989 30.396 8.28418 29.959C8.25019 29.5428 8.24998 29.0358 8.25 28.4395V28.3477C7.96755 28.2857 7.69557 28.1979 7.43359 28.0645C6.68109 27.681 6.06902 27.0689 5.68555 26.3164C5.43827 25.8311 5.33987 25.314 5.29395 24.752C5.24973 24.2108 5.24999 23.5462 5.25 22.7412V13.2588C5.24999 12.4538 5.24973 11.7892 5.29395 11.248C5.33988 10.686 5.43827 10.1689 5.68555 9.68359C6.06902 8.93109 6.68109 8.31902 7.43359 7.93555C7.69563 7.80203 7.96747 7.7133 8.25 7.65137V7.56055C8.24998 6.96422 8.25019 6.45719 8.28418 6.04102C8.31989 5.60398 8.39807 5.17953 8.60449 4.77441C8.91605 4.16305 9.41305 3.66605 10.0244 3.35449C10.4295 3.14807 10.854 3.06989 11.291 3.03418C11.7072 3.00019 12.2142 2.99998 12.8105 3H23.1895ZM10.25 28.5C10.2501 29.0906 10.2522 29.488 10.2773 29.7959C10.3029 30.1092 10.3479 30.2412 10.3867 30.3174C10.5065 30.5525 10.6975 30.7435 10.9326 30.8633C11.0088 30.9021 11.1408 30.9471 11.4541 30.9727C11.779 30.9992 12.2036 31 12.8496 31H23.1504C23.7964 31 24.221 30.9992 24.5459 30.9727C24.8592 30.9471 24.9912 30.9021 25.0674 30.8633C25.3025 30.7435 25.4935 30.5525 25.6133 30.3174C25.6521 30.2412 25.6971 30.1092 25.7227 29.7959C25.7478 29.488 25.7499 29.0906 25.75 28.5H10.25ZM12.8496 5C12.2036 5 11.779 5.00083 11.4541 5.02734C11.1408 5.05295 11.0088 5.0979 10.9326 5.13672C10.6975 5.25655 10.5065 5.4475 10.3867 5.68262C10.3479 5.7588 10.3029 5.89075 10.2773 6.2041C10.2522 6.512 10.2501 6.90942 10.25 7.5H25.75C25.7499 6.90942 25.7478 6.512 25.7227 6.2041C25.6971 5.89075 25.6521 5.7588 25.6133 5.68262C25.4935 5.4475 25.3025 5.25655 25.0674 5.13672C24.9912 5.0979 24.8592 5.05295 24.5459 5.02734C24.221 5.00083 23.7964 5 23.1504 5H12.8496Z" fill="white"/>
</svg>
