<svg width="36" height="36" viewBox="0 0 36 36" fill="none" xmlns="http://www.w3.org/2000/svg">
<path d="M10.5379 5.625C10.5379 5.00368 11.0391 4.5 11.6572 4.5H24.3426C24.9608 4.5 25.4619 5.00368 25.4619 5.625C25.4619 6.24632 24.9608 6.75 24.3426 6.75H11.6572C11.0391 6.75 10.5379 6.24632 10.5379 5.625Z" fill="white"/>
<path d="M8.02497 16.5H27.975C28.8626 16.5 29.5992 16.5 30.1958 16.5511C30.8147 16.6042 31.3953 16.719 31.9311 17.0176C32.7466 17.4722 33.3837 18.1924 33.7376 19.0595C33.9701 19.6292 34.0157 20.2222 33.9958 20.8462C33.9767 21.4477 33.8906 22.183 33.7869 23.0689L33.4076 26.3096C33.324 27.0235 33.2539 27.6227 33.1581 28.1113C33.0578 28.6234 32.9148 29.0989 32.6424 29.5424C32.2214 30.2275 31.6102 30.7738 30.8841 31.1139C30.4141 31.3341 29.9275 31.4212 29.4098 31.4615C28.9156 31.5 28.3155 31.5 27.6002 31.5H8.39979C7.68449 31.5 7.08436 31.5 6.59025 31.4615C6.07254 31.4212 5.58595 31.3341 5.11593 31.1139C4.38978 30.7738 3.77856 30.2275 3.35763 29.5424C3.08516 29.0989 2.94221 28.6234 2.84187 28.1113C2.74611 27.6226 2.676 27.0235 2.59244 26.3095L2.21313 23.069C2.10941 22.183 2.02333 21.4477 2.00417 20.8462C1.9843 20.2222 2.0299 19.6292 2.2624 19.0595C2.61629 18.1924 3.25345 17.4722 4.06894 17.0176C4.60469 16.719 5.18529 16.6042 5.80416 16.5511C6.4008 16.5 7.13742 16.5 8.02497 16.5Z" fill="white"/>
<path d="M25.489 9C26.2177 8.99999 26.8239 8.99998 27.3187 9.03582C27.8322 9.073 28.3168 9.15321 28.7794 9.36197C29.7921 9.81904 30.5774 10.669 30.9561 11.7179C31.1291 12.1969 31.1729 12.6886 31.1718 13.206C31.1712 13.5196 31.1478 13.8594 31.1171 14.25H4.88275C4.85211 13.8594 4.82877 13.5196 4.82814 13.206C4.8271 12.6886 4.87088 12.1969 5.04385 11.7179C5.42255 10.669 6.20786 9.81904 7.2206 9.36197C7.68316 9.15321 8.16776 9.073 8.68126 9.03582C9.17612 8.99998 9.78226 8.99999 10.5109 9H25.489Z" fill="white"/>
</svg>
