<svg width="36" height="36" viewBox="0 0 36 36" fill="none" xmlns="http://www.w3.org/2000/svg">
<path fill-rule="evenodd" clip-rule="evenodd" d="M27.2412 5C28.0462 4.99999 28.7108 4.99973 29.252 5.04395C29.814 5.08987 30.3311 5.18827 30.8164 5.43555C31.5689 5.81902 32.181 6.43109 32.5645 7.18359C32.8117 7.6689 32.9101 8.18599 32.9561 8.74805C33.0003 9.28924 33 9.95383 33 10.7588V24.4912C33 25.2962 33.0003 25.9608 32.9561 26.502C32.9101 27.064 32.8117 27.5811 32.5645 28.0664C32.181 28.8189 31.5689 29.431 30.8164 29.8145C30.3311 30.0617 29.814 30.1601 29.252 30.2061C28.7108 30.2503 28.0462 30.25 27.2412 30.25H18.0088C17.2038 30.25 16.5392 30.2503 15.998 30.2061C15.436 30.1601 14.9189 30.0617 14.4336 29.8145C13.6811 29.431 13.069 28.8189 12.6855 28.0664C12.552 27.8044 12.4633 27.5325 12.4014 27.25H12.0605C11.4642 27.25 10.9572 27.2498 10.541 27.2158C10.104 27.1801 9.67953 27.1019 9.27441 26.8955C8.66305 26.5839 8.16605 26.087 7.85449 25.4756C7.77515 25.3199 7.71526 25.161 7.66895 25H7.56055C6.96422 25 6.45719 24.9998 6.04102 24.9658C5.60398 24.9301 5.17953 24.8519 4.77441 24.6455C4.16305 24.3339 3.66605 23.837 3.35449 23.2256C3.14807 22.8205 3.06989 22.396 3.03418 21.959C3.00019 21.5428 2.99998 21.0358 3 20.4395V14.8105C2.99998 14.2142 3.00019 13.7072 3.03418 13.291C3.06989 12.854 3.14807 12.4295 3.35449 12.0244C3.66605 11.413 4.16305 10.9161 4.77441 10.6045C5.17953 10.3981 5.60398 10.3199 6.04102 10.2842C6.45719 10.2502 6.96422 10.25 7.56055 10.25H7.66895C7.71526 10.089 7.77515 9.93014 7.85449 9.77442C8.16605 9.16305 8.66305 8.66605 9.27441 8.35449C9.67953 8.14807 10.104 8.06989 10.541 8.03418C10.9572 8.00019 11.4642 7.99998 12.0605 8H12.4014C12.4633 7.71747 12.552 7.44563 12.6855 7.18359C13.069 6.43109 13.6811 5.81902 14.4336 5.43555C14.9189 5.18827 15.436 5.08988 15.998 5.04395C16.5392 4.99973 17.2038 4.99999 18.0088 5H27.2412ZM12 10C11.4094 10.0001 11.012 10.0022 10.7041 10.0273C10.3908 10.0529 10.2588 10.0979 10.1826 10.1367C9.9475 10.2565 9.75655 10.4475 9.63672 10.6826C9.5979 10.7588 9.55295 10.8908 9.52734 11.2041C9.50083 11.529 9.5 11.9536 9.5 12.5996V22.6504C9.5 23.2964 9.50083 23.721 9.52734 24.0459C9.55295 24.3592 9.5979 24.4912 9.63672 24.5674C9.75655 24.8025 9.9475 24.9935 10.1826 25.1133C10.2588 25.1521 10.3908 25.1971 10.7041 25.2227C11.012 25.2478 11.4094 25.2499 12 25.25V10ZM7.5 12.25C6.90942 12.2501 6.512 12.2522 6.2041 12.2773C5.89075 12.3029 5.7588 12.3479 5.68262 12.3867C5.4475 12.5065 5.25655 12.6975 5.13672 12.9326C5.0979 13.0088 5.05295 13.1408 5.02734 13.4541C5.00083 13.779 5 14.2036 5 14.8496V20.4004C5 21.0464 5.00083 21.471 5.02734 21.7959C5.05295 22.1092 5.0979 22.2412 5.13672 22.3174C5.25655 22.5525 5.4475 22.7435 5.68262 22.8633C5.7588 22.9021 5.89075 22.9471 6.2041 22.9727C6.512 22.9978 6.90942 22.9999 7.5 23V12.25Z" fill="white"/>
</svg>
