<svg width="36" height="36" viewBox="0 0 36 36" fill="none" xmlns="http://www.w3.org/2000/svg">
<path d="M8.73047 25.2617C8.80483 25.2693 8.87816 25.2803 8.9502 25.2949C8.95677 25.2963 8.96317 25.2984 8.96973 25.2998C9.03557 25.3138 9.10049 25.33 9.16406 25.3496C9.17696 25.3536 9.18935 25.3591 9.20215 25.3633C9.25444 25.3805 9.30593 25.3991 9.35645 25.4199C9.38453 25.4315 9.41195 25.4444 9.43945 25.457C9.47631 25.474 9.51308 25.4909 9.54883 25.5098C9.5801 25.5263 9.61025 25.5446 9.64062 25.5625C9.6676 25.5784 9.69446 25.5943 9.7207 25.6113C9.75495 25.6335 9.78836 25.6567 9.82129 25.6807C9.84596 25.6986 9.87064 25.7164 9.89453 25.7354C9.92156 25.7567 9.94763 25.7792 9.97363 25.8018C10.0046 25.8287 10.035 25.8562 10.0645 25.8848C10.0828 25.9026 10.1004 25.921 10.1182 25.9395C10.1463 25.9687 10.1736 25.9986 10.2002 26.0293C10.2237 26.0564 10.2464 26.0841 10.2686 26.1123C10.2874 26.1363 10.3054 26.1608 10.3232 26.1855C10.3456 26.2164 10.3679 26.2472 10.3887 26.2793C10.4072 26.308 10.4241 26.3376 10.4414 26.3672C10.4597 26.3985 10.4783 26.4297 10.4951 26.4619C10.5103 26.4909 10.5232 26.521 10.5371 26.5508C10.5526 26.5839 10.5691 26.6164 10.583 26.6504C10.6001 26.6923 10.6143 26.7352 10.6289 26.7783C10.6362 26.7998 10.6447 26.821 10.6514 26.8428C10.6677 26.8963 10.681 26.9508 10.6934 27.0059C10.697 27.0222 10.7018 27.0382 10.7051 27.0547C10.734 27.1987 10.75 27.3475 10.75 27.5V30.75L10.7383 30.9805C10.7159 31.2003 10.6601 31.41 10.5791 31.6064C10.5675 31.6345 10.5547 31.6619 10.542 31.6895C10.525 31.7263 10.5082 31.7631 10.4893 31.7988C10.4727 31.8301 10.4545 31.8602 10.4365 31.8906C10.4206 31.9176 10.4047 31.9445 10.3877 31.9707C10.3655 32.005 10.3423 32.0384 10.3184 32.0713C10.3004 32.096 10.2826 32.1206 10.2637 32.1445C10.2423 32.1716 10.2199 32.1976 10.1973 32.2236C10.1703 32.2546 10.1428 32.285 10.1143 32.3145C10.0965 32.3328 10.078 32.3504 10.0596 32.3682C10.0303 32.3963 10.0004 32.4236 9.96973 32.4502C9.9426 32.4737 9.91496 32.4964 9.88672 32.5186C9.86274 32.5374 9.83823 32.5554 9.81348 32.5732C9.78257 32.5956 9.75179 32.6179 9.71973 32.6387C9.69104 32.6572 9.6614 32.6741 9.63184 32.6914C9.6005 32.7097 9.56939 32.7283 9.53711 32.7451C9.50806 32.7602 9.47802 32.7732 9.44824 32.7871C9.41514 32.8025 9.38259 32.8192 9.34863 32.833C9.30676 32.8501 9.26379 32.8643 9.2207 32.8789C9.19917 32.8862 9.17807 32.8947 9.15625 32.9014C9.10275 32.9177 9.04828 32.931 8.99316 32.9434C8.97685 32.947 8.96078 32.9518 8.94434 32.9551C8.87952 32.9681 8.81377 32.9781 8.74707 32.9854C8.74086 32.986 8.73474 32.9877 8.72852 32.9883C8.65337 32.9959 8.57715 33 8.5 33H5.25C4.00736 33 3 31.9926 3 30.75V27.5C3 27.4853 3.00167 27.4707 3.00195 27.4561C3.00458 27.3189 3.01783 27.1848 3.04395 27.0547C3.04725 27.0382 3.05201 27.0222 3.05566 27.0059C3.06801 26.9508 3.08135 26.8962 3.09766 26.8428C3.10431 26.821 3.11283 26.7998 3.12012 26.7783C3.1347 26.7353 3.14894 26.6922 3.16602 26.6504C3.17986 26.6165 3.19648 26.5839 3.21191 26.5508C3.2258 26.521 3.23878 26.4909 3.25391 26.4619C3.27071 26.4297 3.28932 26.3985 3.30762 26.3672C3.32489 26.3376 3.34179 26.308 3.36035 26.2793C3.38109 26.2473 3.40348 26.2164 3.42578 26.1855C3.44364 26.1608 3.46165 26.1363 3.48047 26.1123C3.50263 26.0841 3.52537 26.0564 3.54883 26.0293C3.57539 25.9986 3.6027 25.9687 3.63086 25.9395C3.6486 25.921 3.66622 25.9026 3.68457 25.8848C3.71403 25.8562 3.74441 25.8287 3.77539 25.8018C3.80138 25.7792 3.82748 25.7567 3.85449 25.7354C3.87838 25.7164 3.90308 25.6986 3.92773 25.6807C3.96064 25.6567 3.99409 25.6335 4.02832 25.6113C4.05455 25.5943 4.08144 25.5784 4.1084 25.5625C4.13876 25.5446 4.16894 25.5263 4.2002 25.5098C4.23593 25.4909 4.27273 25.474 4.30957 25.457C4.33706 25.4444 4.3645 25.4315 4.39258 25.4199C4.44308 25.3991 4.4946 25.3805 4.54688 25.3633C4.55967 25.3591 4.57207 25.3536 4.58496 25.3496C4.64852 25.33 4.71347 25.3138 4.7793 25.2998C4.78585 25.2984 4.79225 25.2963 4.79883 25.2949C4.87117 25.2802 4.94485 25.2693 5.01953 25.2617L5.25 25.25H8.5L8.73047 25.2617Z" fill="white"/>
<path d="M19.8506 25.2617C19.9249 25.2693 19.9983 25.2803 20.0703 25.2949C20.0769 25.2963 20.0833 25.2984 20.0898 25.2998C20.1557 25.3138 20.2206 25.33 20.2842 25.3496C20.2971 25.3536 20.3095 25.3591 20.3223 25.3633C20.3746 25.3805 20.426 25.3991 20.4766 25.4199C20.5047 25.4315 20.5321 25.4444 20.5596 25.457C20.5964 25.474 20.6332 25.4909 20.6689 25.5098C20.7002 25.5263 20.7304 25.5446 20.7607 25.5625C20.7877 25.5784 20.8146 25.5943 20.8408 25.6113C20.8735 25.6325 20.9051 25.655 20.9365 25.6777C20.9646 25.6981 20.9924 25.7187 21.0195 25.7402C21.0445 25.7601 21.0687 25.7808 21.0928 25.8018C21.121 25.8263 21.1488 25.8511 21.1758 25.877C21.2009 25.901 21.225 25.926 21.249 25.9512C21.2706 25.9739 21.2918 25.9969 21.3125 26.0205C21.3385 26.0503 21.3642 26.0802 21.3887 26.1113C21.4109 26.1395 21.4313 26.169 21.4521 26.1982C21.469 26.2219 21.486 26.2452 21.502 26.2695C21.5243 26.3036 21.5449 26.3387 21.5654 26.374C21.5823 26.4031 21.5996 26.432 21.6152 26.4619C21.6304 26.4909 21.6433 26.521 21.6572 26.5508C21.6727 26.5839 21.6893 26.6164 21.7031 26.6504C21.7202 26.6922 21.7344 26.7352 21.749 26.7783C21.7563 26.7998 21.7648 26.821 21.7715 26.8428C21.7878 26.8963 21.8011 26.9508 21.8135 27.0059C21.8171 27.0222 21.8219 27.0382 21.8252 27.0547C21.8343 27.1 21.8394 27.1461 21.8457 27.1924C21.8498 27.2219 21.8555 27.2513 21.8584 27.2812C21.8653 27.3533 21.8701 27.4262 21.8701 27.5V30.75L21.8584 30.9805C21.8436 31.1262 21.8128 31.2672 21.7715 31.4033C21.7627 31.4324 21.7521 31.4607 21.7422 31.4893C21.7284 31.5287 21.7151 31.568 21.6992 31.6064C21.6876 31.6345 21.6748 31.6619 21.6621 31.6895C21.6451 31.7263 21.6283 31.7631 21.6094 31.7988C21.5948 31.8265 21.5782 31.8529 21.5625 31.8799C21.5427 31.9139 21.5225 31.9476 21.501 31.9805C21.4838 32.0067 21.4655 32.0321 21.4473 32.0576C21.4263 32.0868 21.4061 32.1164 21.3838 32.1445C21.3624 32.1716 21.34 32.1976 21.3174 32.2236C21.2904 32.2546 21.2629 32.285 21.2344 32.3145C21.2172 32.3322 21.1994 32.3491 21.1816 32.3662C21.1493 32.3975 21.1162 32.4277 21.082 32.457C21.0599 32.476 21.0375 32.4946 21.0146 32.5127C20.9886 32.5333 20.9625 32.5538 20.9355 32.5732C20.9042 32.5959 20.8723 32.6176 20.8398 32.6387C20.8112 32.6572 20.7815 32.6741 20.752 32.6914C20.7206 32.7097 20.6895 32.7283 20.6572 32.7451C20.6282 32.7603 20.5981 32.7732 20.5684 32.7871C20.5353 32.8025 20.5027 32.8192 20.4688 32.833C20.4269 32.8501 20.3839 32.8643 20.3408 32.8789C20.3193 32.8862 20.2982 32.8947 20.2764 32.9014C20.2229 32.9177 20.1684 32.931 20.1133 32.9434C20.097 32.947 20.0809 32.9518 20.0645 32.9551C19.9207 32.9839 19.7723 33 19.6201 33H16.3701L16.1396 32.9883C15.0052 32.8729 14.1201 31.9149 14.1201 30.75V27.5C14.1201 27.4853 14.1218 27.4707 14.1221 27.4561C14.1247 27.3189 14.1379 27.1848 14.1641 27.0547C14.1684 27.0333 14.1748 27.0124 14.1797 26.9912C14.1904 26.9448 14.2013 26.8987 14.2148 26.8535C14.2255 26.8179 14.2376 26.7829 14.25 26.748C14.2617 26.7151 14.274 26.6826 14.2871 26.6504C14.3009 26.6166 14.3166 26.5838 14.332 26.5508C14.3459 26.521 14.3589 26.4909 14.374 26.4619C14.3908 26.4297 14.4094 26.3985 14.4277 26.3672C14.445 26.3376 14.4619 26.308 14.4805 26.2793C14.5012 26.2473 14.5236 26.2164 14.5459 26.1855C14.5638 26.1608 14.5818 26.1363 14.6006 26.1123C14.6228 26.0841 14.6455 26.0564 14.6689 26.0293C14.6955 25.9986 14.7228 25.9687 14.751 25.9395C14.7687 25.921 14.7863 25.9026 14.8047 25.8848C14.8341 25.8562 14.8645 25.8287 14.8955 25.8018C14.9215 25.7792 14.9476 25.7567 14.9746 25.7354C14.9985 25.7164 15.0232 25.6986 15.0479 25.6807C15.0808 25.6567 15.1142 25.6335 15.1484 25.6113C15.1747 25.5943 15.2016 25.5784 15.2285 25.5625C15.2589 25.5446 15.2891 25.5263 15.3203 25.5098C15.3561 25.4909 15.3928 25.474 15.4297 25.457C15.4572 25.4444 15.4846 25.4315 15.5127 25.4199C15.5632 25.3991 15.6147 25.3805 15.667 25.3633C15.6798 25.3591 15.6922 25.3536 15.7051 25.3496C15.7686 25.33 15.8336 25.3138 15.8994 25.2998C15.906 25.2984 15.9124 25.2963 15.9189 25.2949C15.9912 25.2802 16.065 25.2693 16.1396 25.2617L16.3701 25.25H19.6201L19.8506 25.2617Z" fill="white"/>
<path d="M30.9805 25.2617C31.0548 25.2693 31.1282 25.2803 31.2002 25.2949C31.2068 25.2963 31.2132 25.2984 31.2197 25.2998C31.2856 25.3138 31.3505 25.33 31.4141 25.3496C31.427 25.3536 31.4394 25.3591 31.4521 25.3633C31.5044 25.3805 31.5559 25.3991 31.6064 25.4199C31.6345 25.4315 31.6619 25.4444 31.6895 25.457C31.7263 25.474 31.7631 25.4909 31.7988 25.5098C31.8301 25.5263 31.8603 25.5446 31.8906 25.5625C31.9176 25.5784 31.9445 25.5943 31.9707 25.6113C32.0049 25.6335 32.0384 25.6567 32.0713 25.6807C32.096 25.6986 32.1206 25.7164 32.1445 25.7354C32.1716 25.7567 32.1976 25.7792 32.2236 25.8018C32.2546 25.8287 32.285 25.8562 32.3145 25.8848C32.3328 25.9026 32.3504 25.921 32.3682 25.9395C32.3963 25.9687 32.4236 25.9986 32.4502 26.0293C32.4737 26.0564 32.4964 26.0841 32.5186 26.1123C32.5374 26.1363 32.5554 26.1608 32.5732 26.1855C32.5956 26.2164 32.6179 26.2472 32.6387 26.2793C32.6572 26.308 32.6741 26.3376 32.6914 26.3672C32.7097 26.3985 32.7283 26.4297 32.7451 26.4619C32.7603 26.4909 32.7732 26.521 32.7871 26.5508C32.8026 26.5839 32.8191 26.6164 32.833 26.6504C32.8501 26.6923 32.8643 26.7352 32.8789 26.7783C32.8862 26.7998 32.8947 26.821 32.9014 26.8428C32.9177 26.8963 32.931 26.9508 32.9434 27.0059C32.947 27.0222 32.9518 27.0382 32.9551 27.0547C32.984 27.1987 33 27.3475 33 27.5V30.75L32.9883 30.9805C32.9659 31.2003 32.9101 31.41 32.8291 31.6064C32.8175 31.6345 32.8047 31.6619 32.792 31.6895C32.775 31.7263 32.7582 31.7631 32.7393 31.7988C32.7227 31.8301 32.7045 31.8602 32.6865 31.8906C32.6706 31.9176 32.6547 31.9445 32.6377 31.9707C32.6155 32.005 32.5923 32.0384 32.5684 32.0713C32.5504 32.096 32.5326 32.1206 32.5137 32.1445C32.4923 32.1716 32.4699 32.1976 32.4473 32.2236C32.4203 32.2546 32.3928 32.285 32.3643 32.3145C32.3465 32.3328 32.328 32.3504 32.3096 32.3682C32.2803 32.3963 32.2504 32.4236 32.2197 32.4502C32.1926 32.4737 32.165 32.4964 32.1367 32.5186C32.1127 32.5374 32.0882 32.5554 32.0635 32.5732C32.0326 32.5956 32.0018 32.6179 31.9697 32.6387C31.941 32.6572 31.9114 32.6741 31.8818 32.6914C31.8505 32.7097 31.8194 32.7283 31.7871 32.7451C31.7581 32.7602 31.728 32.7732 31.6982 32.7871C31.6651 32.8025 31.6326 32.8192 31.5986 32.833C31.5568 32.8501 31.5138 32.8643 31.4707 32.8789C31.4492 32.8862 31.4281 32.8947 31.4062 32.9014C31.3527 32.9177 31.2983 32.931 31.2432 32.9434C31.2269 32.947 31.2108 32.9518 31.1943 32.9551C31.1295 32.9681 31.0638 32.9781 30.9971 32.9854C30.9909 32.986 30.9847 32.9877 30.9785 32.9883C30.9034 32.9959 30.8271 33 30.75 33H27.5C26.2574 33 25.25 31.9926 25.25 30.75V27.5C25.25 27.4853 25.2517 27.4707 25.252 27.4561C25.2546 27.3189 25.2678 27.1848 25.2939 27.0547C25.2972 27.0382 25.302 27.0222 25.3057 27.0059C25.318 26.9508 25.3313 26.8962 25.3477 26.8428C25.3543 26.821 25.3628 26.7998 25.3701 26.7783C25.3847 26.7353 25.3989 26.6922 25.416 26.6504C25.4299 26.6165 25.4465 26.5839 25.4619 26.5508C25.4758 26.521 25.4888 26.4909 25.5039 26.4619C25.5207 26.4297 25.5393 26.3985 25.5576 26.3672C25.5749 26.3376 25.5918 26.308 25.6104 26.2793C25.6311 26.2473 25.6535 26.2164 25.6758 26.1855C25.6936 26.1608 25.7116 26.1363 25.7305 26.1123C25.7526 26.0841 25.7754 26.0564 25.7988 26.0293C25.8254 25.9986 25.8527 25.9687 25.8809 25.9395C25.8986 25.921 25.9162 25.9026 25.9346 25.8848C25.964 25.8562 25.9944 25.8287 26.0254 25.8018C26.0514 25.7792 26.0775 25.7567 26.1045 25.7354C26.1284 25.7164 26.1531 25.6986 26.1777 25.6807C26.2106 25.6567 26.2441 25.6335 26.2783 25.6113C26.3045 25.5943 26.3314 25.5784 26.3584 25.5625C26.3888 25.5446 26.4189 25.5263 26.4502 25.5098C26.4859 25.4909 26.5227 25.474 26.5596 25.457C26.5871 25.4444 26.6145 25.4315 26.6426 25.4199C26.6931 25.3991 26.7446 25.3805 26.7969 25.3633C26.8097 25.3591 26.8221 25.3536 26.835 25.3496C26.8985 25.33 26.9635 25.3138 27.0293 25.2998C27.0359 25.2984 27.0423 25.2963 27.0488 25.2949C27.1212 25.2802 27.1948 25.2693 27.2695 25.2617L27.5 25.25H30.75L30.9805 25.2617Z" fill="white"/>
<path d="M8.73047 14.1318C8.80483 14.1394 8.87815 14.1504 8.9502 14.165C8.96041 14.1671 8.9703 14.1706 8.98047 14.1729C9.03891 14.1856 9.09667 14.1996 9.15332 14.2168C9.18504 14.2264 9.21596 14.2381 9.24707 14.249C9.28352 14.2619 9.31991 14.2744 9.35547 14.2891C9.38396 14.3008 9.41156 14.3143 9.43945 14.3271C9.47631 14.3441 9.51308 14.361 9.54883 14.3799C9.5801 14.3964 9.61025 14.4147 9.64062 14.4326C9.6676 14.4485 9.69446 14.4645 9.7207 14.4814C9.75495 14.5036 9.78836 14.5268 9.82129 14.5508C9.84596 14.5687 9.87064 14.5866 9.89453 14.6055C9.92156 14.6269 9.94763 14.6493 9.97363 14.6719C10.0046 14.6988 10.035 14.7263 10.0645 14.7549C10.0828 14.7727 10.1004 14.7912 10.1182 14.8096C10.1473 14.8398 10.1757 14.8706 10.2031 14.9023C10.2235 14.926 10.2433 14.9501 10.2627 14.9746C10.2858 15.0037 10.3084 15.0332 10.3301 15.0635C10.35 15.0913 10.369 15.1197 10.3877 15.1484C10.4065 15.1775 10.4239 15.2074 10.4414 15.2373C10.4597 15.2686 10.4783 15.2998 10.4951 15.332C10.5103 15.3611 10.5232 15.3911 10.5371 15.4209C10.5526 15.454 10.5692 15.4866 10.583 15.5205C10.6001 15.5624 10.6143 15.6054 10.6289 15.6484C10.6362 15.67 10.6447 15.6911 10.6514 15.7129C10.6677 15.7664 10.681 15.8209 10.6934 15.876C10.697 15.8923 10.7018 15.9084 10.7051 15.9248C10.734 16.0688 10.75 16.2176 10.75 16.3701V19.6201C10.75 19.6979 10.746 19.7748 10.7383 19.8506C10.7159 20.0704 10.6601 20.2801 10.5791 20.4766C10.5675 20.5047 10.5547 20.5321 10.542 20.5596C10.525 20.5964 10.5082 20.6332 10.4893 20.6689C10.4727 20.7002 10.4545 20.7304 10.4365 20.7607C10.4206 20.7877 10.4047 20.8146 10.3877 20.8408C10.3665 20.8735 10.3441 20.9051 10.3213 20.9365C10.3009 20.9646 10.2804 20.9924 10.2588 21.0195C10.2389 21.0445 10.2182 21.0687 10.1973 21.0928C10.1727 21.121 10.1479 21.1488 10.1221 21.1758C10.098 21.2009 10.0731 21.225 10.0479 21.249C10.0251 21.2706 10.0021 21.2918 9.97852 21.3125C9.94875 21.3385 9.91882 21.3642 9.8877 21.3887C9.85947 21.4108 9.83007 21.4313 9.80078 21.4521C9.77715 21.469 9.75379 21.486 9.72949 21.502C9.69539 21.5243 9.66035 21.5449 9.625 21.5654C9.59587 21.5823 9.56705 21.5996 9.53711 21.6152C9.50806 21.6304 9.47801 21.6433 9.44824 21.6572C9.41514 21.6727 9.38259 21.6893 9.34863 21.7031C9.30676 21.7202 9.26379 21.7344 9.2207 21.749C9.19917 21.7563 9.17807 21.7648 9.15625 21.7715C9.10275 21.7878 9.04827 21.8011 8.99316 21.8135C8.97685 21.8171 8.96078 21.8219 8.94434 21.8252C8.89901 21.8343 8.8529 21.8394 8.80664 21.8457C8.77708 21.8497 8.74769 21.8555 8.71777 21.8584C8.64607 21.8653 8.57351 21.8701 8.5 21.8701H5.25L5.01953 21.8584C3.88519 21.743 3.00006 20.7849 3 19.6201V16.3701C3 16.3555 3.00167 16.3408 3.00195 16.3262C3.00457 16.189 3.01784 16.0549 3.04395 15.9248C3.04724 15.9084 3.05201 15.8923 3.05566 15.876C3.06801 15.8209 3.08135 15.7664 3.09766 15.7129C3.1043 15.6911 3.11283 15.67 3.12012 15.6484C3.1347 15.6054 3.14894 15.5624 3.16602 15.5205C3.17986 15.4866 3.19648 15.454 3.21191 15.4209C3.22579 15.3911 3.23878 15.3611 3.25391 15.332C3.27071 15.2998 3.28932 15.2686 3.30762 15.2373C3.32511 15.2074 3.34251 15.1775 3.36133 15.1484C3.37996 15.1197 3.39905 15.0913 3.41895 15.0635C3.44059 15.0332 3.46324 15.0037 3.48633 14.9746C3.50573 14.9501 3.52551 14.926 3.5459 14.9023C3.5733 14.8706 3.60174 14.8398 3.63086 14.8096C3.6486 14.7912 3.66622 14.7727 3.68457 14.7549C3.71403 14.7263 3.74441 14.6988 3.77539 14.6719C3.80138 14.6493 3.82748 14.6269 3.85449 14.6055C3.87838 14.5866 3.90308 14.5687 3.92773 14.5508C3.96065 14.5268 3.99409 14.5036 4.02832 14.4814C4.05455 14.4644 4.08143 14.4485 4.1084 14.4326C4.13876 14.4147 4.16894 14.3964 4.2002 14.3799C4.23593 14.361 4.27273 14.3441 4.30957 14.3271C4.33745 14.3143 4.36507 14.3008 4.39355 14.2891C4.4291 14.2744 4.46552 14.2619 4.50195 14.249C4.53305 14.2381 4.56399 14.2264 4.5957 14.2168C4.65234 14.1996 4.71013 14.1856 4.76855 14.1729C4.77872 14.1706 4.78861 14.1671 4.79883 14.165C4.87117 14.1503 4.94484 14.1394 5.01953 14.1318C5.09531 14.1241 5.17219 14.1201 5.25 14.1201H8.5L8.73047 14.1318Z" fill="white"/>
<path d="M19.8506 14.1318C19.9249 14.1394 19.9983 14.1504 20.0703 14.165C20.0805 14.1671 20.0904 14.1706 20.1006 14.1729C20.159 14.1856 20.2168 14.1996 20.2734 14.2168C20.3052 14.2264 20.3361 14.2381 20.3672 14.249C20.4036 14.2619 20.44 14.2744 20.4756 14.2891C20.5041 14.3008 20.5317 14.3143 20.5596 14.3271C20.5964 14.3441 20.6332 14.361 20.6689 14.3799C20.7002 14.3964 20.7304 14.4147 20.7607 14.4326C20.7877 14.4485 20.8146 14.4645 20.8408 14.4814C20.8735 14.5026 20.9051 14.5251 20.9365 14.5479C20.9646 14.5682 20.9924 14.5888 21.0195 14.6104C21.0445 14.6302 21.0687 14.651 21.0928 14.6719C21.121 14.6964 21.1488 14.7212 21.1758 14.7471C21.2009 14.7712 21.225 14.7961 21.249 14.8213C21.2713 14.8447 21.2932 14.8682 21.3145 14.8926C21.3379 14.9194 21.3607 14.9467 21.3828 14.9746C21.409 15.0076 21.4337 15.0417 21.458 15.0762C21.4724 15.0966 21.4872 15.1168 21.501 15.1377C21.5237 15.1724 21.5446 15.2082 21.5654 15.2441C21.5823 15.2733 21.5996 15.3021 21.6152 15.332C21.6304 15.3611 21.6433 15.3911 21.6572 15.4209C21.6727 15.454 21.6893 15.4866 21.7031 15.5205C21.7202 15.5624 21.7344 15.6054 21.749 15.6484C21.7563 15.67 21.7648 15.6911 21.7715 15.7129C21.7878 15.7664 21.8011 15.8209 21.8135 15.876C21.8171 15.8923 21.8219 15.9084 21.8252 15.9248C21.8343 15.9701 21.8394 16.0162 21.8457 16.0625C21.8497 16.0921 21.8555 16.1215 21.8584 16.1514C21.8653 16.2233 21.8701 16.2963 21.8701 16.3701V19.6201C21.8701 19.6979 21.8661 19.7748 21.8584 19.8506C21.8436 19.9963 21.8128 20.1373 21.7715 20.2734C21.7627 20.3025 21.7521 20.3308 21.7422 20.3594C21.7284 20.3988 21.7151 20.4382 21.6992 20.4766C21.6876 20.5047 21.6748 20.5321 21.6621 20.5596C21.6451 20.5964 21.6283 20.6332 21.6094 20.6689C21.5948 20.6966 21.5782 20.723 21.5625 20.75C21.5427 20.784 21.5225 20.8177 21.501 20.8506C21.4847 20.8755 21.4675 20.8996 21.4502 20.9238C21.4272 20.9561 21.4046 20.9886 21.3799 21.0195C21.3599 21.0447 21.3384 21.0685 21.3174 21.0928C21.2929 21.121 21.2681 21.1488 21.2422 21.1758C21.2189 21.2001 21.1952 21.2239 21.1709 21.2471C21.1475 21.2693 21.1239 21.2912 21.0996 21.3125C21.0717 21.3369 21.0427 21.3598 21.0137 21.3828C20.9838 21.4065 20.9539 21.43 20.9229 21.4521C20.8988 21.4693 20.8744 21.4858 20.8496 21.502C20.8155 21.5243 20.7805 21.5449 20.7451 21.5654C20.716 21.5823 20.6872 21.5996 20.6572 21.6152C20.6282 21.6304 20.5981 21.6433 20.5684 21.6572C20.5353 21.6727 20.5027 21.6893 20.4688 21.7031C20.4269 21.7202 20.3839 21.7344 20.3408 21.749C20.3193 21.7563 20.2982 21.7648 20.2764 21.7715C20.2229 21.7878 20.1684 21.8011 20.1133 21.8135C20.097 21.8171 20.0809 21.8219 20.0645 21.8252C20.0165 21.8348 19.9679 21.8411 19.9189 21.8477C19.8923 21.8512 19.8658 21.8558 19.8389 21.8584C19.7669 21.8654 19.694 21.8701 19.6201 21.8701H16.3701L16.1396 21.8584C15.0053 21.743 14.1202 20.7849 14.1201 19.6201V16.3701C14.1201 16.3555 14.1218 16.3408 14.1221 16.3262C14.1247 16.189 14.138 16.0549 14.1641 15.9248C14.1684 15.9034 14.1748 15.8825 14.1797 15.8613C14.1904 15.8149 14.2013 15.7689 14.2148 15.7236C14.2255 15.688 14.2376 15.653 14.25 15.6182C14.2617 15.5852 14.274 15.5527 14.2871 15.5205C14.3009 15.4867 14.3166 15.4539 14.332 15.4209C14.3459 15.3911 14.3589 15.3611 14.374 15.332C14.3908 15.2998 14.4094 15.2686 14.4277 15.2373C14.4452 15.2074 14.4626 15.1775 14.4814 15.1484C14.5001 15.1197 14.5192 15.0913 14.5391 15.0635C14.5607 15.0332 14.5834 15.0037 14.6064 14.9746C14.6259 14.9501 14.6456 14.926 14.666 14.9023C14.6934 14.8706 14.7219 14.8398 14.751 14.8096C14.7687 14.7912 14.7863 14.7727 14.8047 14.7549C14.8341 14.7263 14.8645 14.6988 14.8955 14.6719C14.9215 14.6493 14.9476 14.6269 14.9746 14.6055C14.9985 14.5866 15.0232 14.5687 15.0479 14.5508C15.0808 14.5268 15.1142 14.5036 15.1484 14.4814C15.1747 14.4644 15.2015 14.4485 15.2285 14.4326C15.2589 14.4147 15.2891 14.3964 15.3203 14.3799C15.3561 14.361 15.3928 14.3441 15.4297 14.3271C15.4576 14.3143 15.4852 14.3008 15.5137 14.2891C15.5492 14.2744 15.5856 14.2619 15.6221 14.249C15.6532 14.2381 15.6841 14.2264 15.7158 14.2168C15.7725 14.1996 15.8302 14.1856 15.8887 14.1729C15.8988 14.1706 15.9087 14.1671 15.9189 14.165C15.9913 14.1503 16.065 14.1394 16.1396 14.1318L16.3701 14.1201H19.6201C19.6979 14.1201 19.7748 14.1241 19.8506 14.1318Z" fill="white"/>
<path d="M30.9805 14.1318C31.0548 14.1394 31.1282 14.1504 31.2002 14.165C31.2104 14.1671 31.2203 14.1706 31.2305 14.1729C31.2889 14.1856 31.3467 14.1996 31.4033 14.2168C31.435 14.2264 31.466 14.2381 31.4971 14.249C31.5335 14.2619 31.5699 14.2744 31.6055 14.2891C31.634 14.3008 31.6616 14.3143 31.6895 14.3271C31.7263 14.3441 31.7631 14.361 31.7988 14.3799C31.8301 14.3964 31.8603 14.4147 31.8906 14.4326C31.9176 14.4485 31.9445 14.4645 31.9707 14.4814C32.0049 14.5036 32.0384 14.5268 32.0713 14.5508C32.096 14.5687 32.1206 14.5866 32.1445 14.6055C32.1716 14.6269 32.1976 14.6493 32.2236 14.6719C32.2546 14.6988 32.285 14.7263 32.3145 14.7549C32.3328 14.7727 32.3504 14.7912 32.3682 14.8096C32.3973 14.8398 32.4257 14.8706 32.4531 14.9023C32.4735 14.926 32.4933 14.9501 32.5127 14.9746C32.5358 15.0037 32.5584 15.0332 32.5801 15.0635C32.6 15.0913 32.619 15.1197 32.6377 15.1484C32.6565 15.1775 32.6739 15.2074 32.6914 15.2373C32.7097 15.2686 32.7283 15.2998 32.7451 15.332C32.7603 15.3611 32.7732 15.3911 32.7871 15.4209C32.8026 15.454 32.8192 15.4866 32.833 15.5205C32.8501 15.5624 32.8643 15.6054 32.8789 15.6484C32.8862 15.67 32.8947 15.6911 32.9014 15.7129C32.9177 15.7664 32.931 15.8209 32.9434 15.876C32.947 15.8923 32.9518 15.9084 32.9551 15.9248C32.984 16.0688 33 16.2176 33 16.3701V19.6201C33 19.6979 32.996 19.7748 32.9883 19.8506C32.9659 20.0704 32.9101 20.2801 32.8291 20.4766C32.8175 20.5047 32.8047 20.5321 32.792 20.5596C32.775 20.5964 32.7582 20.6332 32.7393 20.6689C32.7227 20.7002 32.7045 20.7304 32.6865 20.7607C32.6706 20.7877 32.6547 20.8146 32.6377 20.8408C32.6165 20.8735 32.5941 20.9051 32.5713 20.9365C32.5509 20.9646 32.5304 20.9924 32.5088 21.0195C32.4889 21.0445 32.4682 21.0687 32.4473 21.0928C32.4227 21.121 32.3979 21.1488 32.3721 21.1758C32.348 21.2009 32.3231 21.225 32.2979 21.249C32.2751 21.2706 32.2521 21.2918 32.2285 21.3125C32.1987 21.3385 32.1688 21.3642 32.1377 21.3887C32.1095 21.4108 32.0801 21.4313 32.0508 21.4521C32.0271 21.469 32.0038 21.486 31.9795 21.502C31.9454 21.5243 31.9104 21.5449 31.875 21.5654C31.8459 21.5823 31.817 21.5996 31.7871 21.6152C31.7581 21.6304 31.728 21.6433 31.6982 21.6572C31.6651 21.6727 31.6326 21.6893 31.5986 21.7031C31.5568 21.7202 31.5138 21.7344 31.4707 21.749C31.4492 21.7563 31.4281 21.7648 31.4062 21.7715C31.3527 21.7878 31.2983 21.8011 31.2432 21.8135C31.2269 21.8171 31.2108 21.8219 31.1943 21.8252C31.149 21.8343 31.1029 21.8394 31.0566 21.8457C31.0271 21.8497 30.9977 21.8555 30.9678 21.8584C30.8961 21.8653 30.8235 21.8701 30.75 21.8701H27.5L27.2695 21.8584C26.1352 21.743 25.2501 20.7849 25.25 19.6201V16.3701C25.25 16.3555 25.2517 16.3408 25.252 16.3262C25.2546 16.189 25.2678 16.0549 25.2939 15.9248C25.2972 15.9084 25.302 15.8923 25.3057 15.876C25.318 15.8209 25.3314 15.7664 25.3477 15.7129C25.3543 15.6911 25.3628 15.67 25.3701 15.6484C25.3847 15.6054 25.3989 15.5624 25.416 15.5205C25.4299 15.4866 25.4465 15.454 25.4619 15.4209C25.4758 15.3911 25.4888 15.3611 25.5039 15.332C25.5207 15.2998 25.5393 15.2686 25.5576 15.2373C25.5751 15.2074 25.5925 15.1775 25.6113 15.1484C25.63 15.1197 25.6491 15.0913 25.6689 15.0635C25.6906 15.0332 25.7132 15.0037 25.7363 14.9746C25.7557 14.9501 25.7755 14.926 25.7959 14.9023C25.8233 14.8706 25.8517 14.8398 25.8809 14.8096C25.8986 14.7912 25.9162 14.7727 25.9346 14.7549C25.964 14.7263 25.9944 14.6988 26.0254 14.6719C26.0514 14.6493 26.0775 14.6269 26.1045 14.6055C26.1284 14.5866 26.1531 14.5687 26.1777 14.5508C26.2106 14.5268 26.2441 14.5036 26.2783 14.4814C26.3045 14.4644 26.3314 14.4485 26.3584 14.4326C26.3888 14.4147 26.4189 14.3964 26.4502 14.3799C26.4859 14.361 26.5227 14.3441 26.5596 14.3271C26.5875 14.3143 26.6151 14.3008 26.6436 14.2891C26.6791 14.2744 26.7155 14.2619 26.752 14.249C26.7831 14.2381 26.814 14.2264 26.8457 14.2168C26.9023 14.1996 26.9601 14.1856 27.0186 14.1729C27.0287 14.1706 27.0386 14.1671 27.0488 14.165C27.1212 14.1503 27.1948 14.1394 27.2695 14.1318C27.3453 14.1241 27.4222 14.1201 27.5 14.1201H30.75L30.9805 14.1318Z" fill="white"/>
<path d="M8.73047 3.01172C8.80483 3.01928 8.87816 3.03029 8.9502 3.04492C8.95677 3.04626 8.96317 3.04841 8.96973 3.0498C9.03557 3.06379 9.10049 3.08 9.16406 3.09961C9.17696 3.10359 9.18935 3.10908 9.20215 3.11328C9.25444 3.13045 9.30593 3.1491 9.35645 3.16992C9.38453 3.1815 9.41195 3.19436 9.43945 3.20703C9.47631 3.22401 9.51308 3.24089 9.54883 3.25977C9.5801 3.27628 9.61025 3.29458 9.64062 3.3125C9.6676 3.32841 9.69446 3.34434 9.7207 3.36133C9.75495 3.38351 9.78836 3.40671 9.82129 3.43066C9.84596 3.44861 9.87064 3.46644 9.89453 3.48535C9.92156 3.50674 9.94763 3.52918 9.97363 3.55176C10.0046 3.57868 10.035 3.60621 10.0645 3.63477C10.0828 3.65256 10.1004 3.67105 10.1182 3.68945C10.1463 3.71866 10.1736 3.7486 10.2002 3.7793C10.2237 3.80641 10.2464 3.83408 10.2686 3.8623C10.2874 3.88628 10.3054 3.91081 10.3232 3.93555C10.3456 3.96644 10.3679 3.99725 10.3887 4.0293C10.4072 4.05797 10.4241 4.08764 10.4414 4.11719C10.4597 4.14851 10.4783 4.17965 10.4951 4.21191C10.5103 4.24095 10.5232 4.27102 10.5371 4.30078C10.5526 4.33387 10.5691 4.36645 10.583 4.40039C10.6001 4.44225 10.6143 4.48524 10.6289 4.52832C10.6362 4.54985 10.6447 4.57096 10.6514 4.59277C10.6677 4.64626 10.681 4.70076 10.6934 4.75586C10.697 4.77217 10.7018 4.78824 10.7051 4.80469C10.734 4.94868 10.75 5.09749 10.75 5.25V8.5L10.7383 8.73047C10.7159 8.95027 10.6601 9.15998 10.5791 9.35645C10.5675 9.38454 10.5547 9.41194 10.542 9.43945C10.525 9.47632 10.5082 9.51307 10.4893 9.54883C10.4727 9.5801 10.4545 9.61024 10.4365 9.64062C10.4206 9.66761 10.4047 9.69446 10.3877 9.7207C10.3655 9.75495 10.3423 9.78836 10.3184 9.82129C10.3004 9.84596 10.2826 9.87063 10.2637 9.89453C10.2423 9.92156 10.2199 9.94763 10.1973 9.97363C10.1703 10.0046 10.1428 10.035 10.1143 10.0645C10.0965 10.0828 10.078 10.1004 10.0596 10.1182C10.0303 10.1463 10.0004 10.1736 9.96973 10.2002C9.9426 10.2237 9.91496 10.2464 9.88672 10.2686C9.86274 10.2874 9.83823 10.3054 9.81348 10.3232C9.78257 10.3456 9.75179 10.3679 9.71973 10.3887C9.69104 10.4072 9.6614 10.4241 9.63184 10.4414C9.6005 10.4597 9.56939 10.4783 9.53711 10.4951C9.50806 10.5102 9.47802 10.5232 9.44824 10.5371C9.41514 10.5525 9.38259 10.5692 9.34863 10.583C9.30676 10.6001 9.26379 10.6143 9.2207 10.6289C9.19917 10.6362 9.17807 10.6447 9.15625 10.6514C9.10275 10.6677 9.04828 10.681 8.99316 10.6934C8.97685 10.697 8.96078 10.7018 8.94434 10.7051C8.87952 10.7181 8.81377 10.7281 8.74707 10.7354C8.74086 10.736 8.73474 10.7377 8.72852 10.7383C8.65337 10.7459 8.57715 10.75 8.5 10.75H5.25C4.00736 10.75 3 9.74264 3 8.5V5.25C3 5.23531 3.00167 5.22068 3.00195 5.20605C3.00458 5.06893 3.01783 4.93475 3.04395 4.80469C3.04725 4.78825 3.05201 4.77216 3.05566 4.75586C3.06801 4.70078 3.08135 4.64624 3.09766 4.59277C3.10431 4.57097 3.11283 4.54984 3.12012 4.52832C3.1347 4.48526 3.14894 4.44224 3.16602 4.40039C3.17986 4.36646 3.19648 4.33386 3.21191 4.30078C3.2258 4.27103 3.23878 4.24094 3.25391 4.21191C3.27071 4.17966 3.28932 4.1485 3.30762 4.11719C3.32489 4.08764 3.34179 4.05796 3.36035 4.0293C3.38109 3.99726 3.40348 3.96644 3.42578 3.93555C3.44364 3.91081 3.46165 3.88627 3.48047 3.8623C3.50263 3.83408 3.52537 3.80641 3.54883 3.7793C3.57539 3.7486 3.6027 3.71866 3.63086 3.68945C3.6486 3.67105 3.66622 3.65256 3.68457 3.63477C3.71403 3.60621 3.74441 3.57868 3.77539 3.55176C3.80138 3.52918 3.82748 3.50674 3.85449 3.48535C3.87838 3.46644 3.90308 3.44861 3.92773 3.43066C3.96064 3.4067 3.99409 3.38351 4.02832 3.36133C4.05455 3.34433 4.08144 3.32842 4.1084 3.3125C4.13876 3.29457 4.16894 3.27629 4.2002 3.25977C4.23593 3.24088 4.27273 3.22402 4.30957 3.20703C4.33706 3.19435 4.3645 3.18151 4.39258 3.16992C4.44308 3.14908 4.4946 3.13047 4.54688 3.11328C4.55967 3.10907 4.57207 3.10359 4.58496 3.09961C4.64852 3.07998 4.71347 3.06382 4.7793 3.0498C4.78585 3.04841 4.79225 3.04626 4.79883 3.04492C4.87117 3.0302 4.94485 3.01932 5.01953 3.01172L5.25 3H8.5L8.73047 3.01172Z" fill="white"/>
<path d="M19.8506 3.01172C19.9249 3.01929 19.9983 3.03029 20.0703 3.04492C20.0769 3.04626 20.0833 3.04841 20.0898 3.0498C20.1557 3.0638 20.2206 3.08 20.2842 3.09961C20.2971 3.10359 20.3095 3.10908 20.3223 3.11328C20.3746 3.13045 20.426 3.1491 20.4766 3.16992C20.5047 3.1815 20.5321 3.19436 20.5596 3.20703C20.5964 3.22401 20.6332 3.24089 20.6689 3.25977C20.7002 3.27628 20.7304 3.29458 20.7607 3.3125C20.7877 3.32841 20.8146 3.34434 20.8408 3.36133C20.8735 3.38248 20.9051 3.40497 20.9365 3.42773C20.9646 3.44807 20.9924 3.46865 21.0195 3.49023C21.0445 3.51012 21.0687 3.53085 21.0928 3.55176C21.121 3.57626 21.1488 3.6011 21.1758 3.62695C21.2009 3.65103 21.225 3.67596 21.249 3.70117C21.2706 3.7239 21.2918 3.7469 21.3125 3.77051C21.3385 3.80026 21.3642 3.83022 21.3887 3.86133C21.4109 3.88954 21.4313 3.91897 21.4521 3.94824C21.469 3.97187 21.486 3.99524 21.502 4.01953C21.5243 4.05362 21.5449 4.08869 21.5654 4.12402C21.5823 4.15314 21.5996 4.18199 21.6152 4.21191C21.6304 4.24095 21.6433 4.27102 21.6572 4.30078C21.6727 4.33387 21.6893 4.36645 21.7031 4.40039C21.7202 4.44225 21.7344 4.48525 21.749 4.52832C21.7563 4.54984 21.7648 4.57096 21.7715 4.59277C21.7878 4.64626 21.8011 4.70076 21.8135 4.75586C21.8171 4.77217 21.8219 4.78824 21.8252 4.80469C21.8343 4.85 21.8394 4.89613 21.8457 4.94238C21.8498 4.97195 21.8555 5.00133 21.8584 5.03125C21.8653 5.10326 21.8701 5.17616 21.8701 5.25V8.5L21.8584 8.73047C21.8436 8.87618 21.8128 9.01718 21.7715 9.15332C21.7627 9.18238 21.7521 9.21071 21.7422 9.23926C21.7284 9.2787 21.7151 9.31803 21.6992 9.35645C21.6876 9.38454 21.6748 9.41194 21.6621 9.43945C21.6451 9.47632 21.6283 9.51307 21.6094 9.54883C21.5948 9.57648 21.5782 9.60292 21.5625 9.62988C21.5427 9.66393 21.5225 9.69759 21.501 9.73047C21.4838 9.75673 21.4655 9.78214 21.4473 9.80762C21.4263 9.83682 21.4061 9.86639 21.3838 9.89453C21.3624 9.92156 21.34 9.94763 21.3174 9.97363C21.2904 10.0046 21.2629 10.035 21.2344 10.0645C21.2172 10.0822 21.1994 10.0991 21.1816 10.1162C21.1493 10.1475 21.1162 10.1777 21.082 10.207C21.0599 10.226 21.0375 10.2446 21.0146 10.2627C20.9886 10.2833 20.9625 10.3038 20.9355 10.3232C20.9042 10.3459 20.8723 10.3676 20.8398 10.3887C20.8112 10.4072 20.7815 10.4241 20.752 10.4414C20.7206 10.4597 20.6895 10.4783 20.6572 10.4951C20.6282 10.5102 20.5981 10.5232 20.5684 10.5371C20.5353 10.5525 20.5027 10.5692 20.4688 10.583C20.4269 10.6001 20.3839 10.6143 20.3408 10.6289C20.3193 10.6362 20.2982 10.6447 20.2764 10.6514C20.2229 10.6677 20.1684 10.681 20.1133 10.6934C20.097 10.697 20.0809 10.7018 20.0645 10.7051C19.9207 10.7339 19.7723 10.75 19.6201 10.75H16.3701L16.1396 10.7383C15.0052 10.6229 14.1201 9.66487 14.1201 8.5V5.25C14.1201 5.23531 14.1218 5.22068 14.1221 5.20605C14.1247 5.06892 14.1379 4.93476 14.1641 4.80469C14.1684 4.78328 14.1748 4.7624 14.1797 4.74121C14.1904 4.69483 14.2013 4.64875 14.2148 4.60352C14.2255 4.5679 14.2376 4.5329 14.25 4.49805C14.2617 4.46513 14.274 4.43258 14.2871 4.40039C14.3009 4.36657 14.3166 4.33375 14.332 4.30078C14.3459 4.27103 14.3589 4.24094 14.374 4.21191C14.3908 4.17966 14.4094 4.1485 14.4277 4.11719C14.445 4.08764 14.4619 4.05796 14.4805 4.0293C14.5012 3.99726 14.5236 3.96644 14.5459 3.93555C14.5638 3.91081 14.5818 3.88627 14.6006 3.8623C14.6228 3.83408 14.6455 3.80641 14.6689 3.7793C14.6955 3.7486 14.7228 3.71866 14.751 3.68945C14.7687 3.67105 14.7863 3.65256 14.8047 3.63477C14.8341 3.60621 14.8645 3.57868 14.8955 3.55176C14.9215 3.52918 14.9476 3.50674 14.9746 3.48535C14.9985 3.46644 15.0232 3.44861 15.0479 3.43066C15.0808 3.4067 15.1142 3.38351 15.1484 3.36133C15.1747 3.34433 15.2016 3.32842 15.2285 3.3125C15.2589 3.29457 15.2891 3.27628 15.3203 3.25977C15.3561 3.24088 15.3928 3.22402 15.4297 3.20703C15.4572 3.19436 15.4846 3.18151 15.5127 3.16992C15.5632 3.14909 15.6147 3.13047 15.667 3.11328C15.6798 3.10907 15.6922 3.10359 15.7051 3.09961C15.7686 3.07998 15.8336 3.06382 15.8994 3.0498C15.906 3.04841 15.9124 3.04626 15.9189 3.04492C15.9912 3.03021 16.065 3.01931 16.1396 3.01172L16.3701 3H19.6201L19.8506 3.01172Z" fill="white"/>
<path d="M30.9805 3.01172C31.0548 3.01928 31.1282 3.03029 31.2002 3.04492C31.2068 3.04626 31.2132 3.04841 31.2197 3.0498C31.2856 3.06379 31.3505 3.08 31.4141 3.09961C31.427 3.10359 31.4394 3.10908 31.4521 3.11328C31.5044 3.13045 31.5559 3.1491 31.6064 3.16992C31.6345 3.1815 31.6619 3.19436 31.6895 3.20703C31.7263 3.22401 31.7631 3.24089 31.7988 3.25977C31.8301 3.27628 31.8603 3.29458 31.8906 3.3125C31.9176 3.32841 31.9445 3.34434 31.9707 3.36133C32.0049 3.38351 32.0384 3.40671 32.0713 3.43066C32.096 3.44861 32.1206 3.46644 32.1445 3.48535C32.1716 3.50674 32.1976 3.52918 32.2236 3.55176C32.2546 3.57868 32.285 3.60621 32.3145 3.63477C32.3328 3.65256 32.3504 3.67105 32.3682 3.68945C32.3963 3.71866 32.4236 3.7486 32.4502 3.7793C32.4737 3.80641 32.4964 3.83408 32.5186 3.8623C32.5374 3.88628 32.5554 3.91081 32.5732 3.93555C32.5956 3.96644 32.6179 3.99725 32.6387 4.0293C32.6572 4.05797 32.6741 4.08764 32.6914 4.11719C32.7097 4.14851 32.7283 4.17965 32.7451 4.21191C32.7603 4.24095 32.7732 4.27102 32.7871 4.30078C32.8026 4.33387 32.8191 4.36645 32.833 4.40039C32.8501 4.44225 32.8643 4.48524 32.8789 4.52832C32.8862 4.54985 32.8947 4.57096 32.9014 4.59277C32.9177 4.64626 32.931 4.70076 32.9434 4.75586C32.947 4.77217 32.9518 4.78824 32.9551 4.80469C32.984 4.94868 33 5.09749 33 5.25V8.5L32.9883 8.73047C32.9659 8.95027 32.9101 9.15998 32.8291 9.35645C32.8175 9.38454 32.8047 9.41194 32.792 9.43945C32.775 9.47632 32.7582 9.51307 32.7393 9.54883C32.7227 9.5801 32.7045 9.61024 32.6865 9.64062C32.6706 9.66761 32.6547 9.69446 32.6377 9.7207C32.6155 9.75495 32.5923 9.78836 32.5684 9.82129C32.5504 9.84596 32.5326 9.87063 32.5137 9.89453C32.4923 9.92156 32.4699 9.94763 32.4473 9.97363C32.4203 10.0046 32.3928 10.035 32.3643 10.0645C32.3465 10.0828 32.328 10.1004 32.3096 10.1182C32.2803 10.1463 32.2504 10.1736 32.2197 10.2002C32.1926 10.2237 32.165 10.2464 32.1367 10.2686C32.1127 10.2874 32.0882 10.3054 32.0635 10.3232C32.0326 10.3456 32.0018 10.3679 31.9697 10.3887C31.941 10.4072 31.9114 10.4241 31.8818 10.4414C31.8505 10.4597 31.8194 10.4783 31.7871 10.4951C31.7581 10.5102 31.728 10.5232 31.6982 10.5371C31.6651 10.5525 31.6326 10.5692 31.5986 10.583C31.5568 10.6001 31.5138 10.6143 31.4707 10.6289C31.4492 10.6362 31.4281 10.6447 31.4062 10.6514C31.3527 10.6677 31.2983 10.681 31.2432 10.6934C31.2269 10.697 31.2108 10.7018 31.1943 10.7051C31.1295 10.7181 31.0638 10.7281 30.9971 10.7354C30.9909 10.736 30.9847 10.7377 30.9785 10.7383C30.9034 10.7459 30.8271 10.75 30.75 10.75H27.5C26.2574 10.75 25.25 9.74264 25.25 8.5V5.25C25.25 5.23531 25.2517 5.22068 25.252 5.20605C25.2546 5.06893 25.2678 4.93475 25.2939 4.80469C25.2972 4.78825 25.302 4.77216 25.3057 4.75586C25.318 4.70078 25.3313 4.64624 25.3477 4.59277C25.3543 4.57097 25.3628 4.54984 25.3701 4.52832C25.3847 4.48526 25.3989 4.44224 25.416 4.40039C25.4299 4.36646 25.4465 4.33386 25.4619 4.30078C25.4758 4.27103 25.4888 4.24094 25.5039 4.21191C25.5207 4.17966 25.5393 4.1485 25.5576 4.11719C25.5749 4.08764 25.5918 4.05796 25.6104 4.0293C25.6311 3.99726 25.6535 3.96644 25.6758 3.93555C25.6936 3.91081 25.7116 3.88627 25.7305 3.8623C25.7526 3.83408 25.7754 3.80641 25.7988 3.7793C25.8254 3.7486 25.8527 3.71866 25.8809 3.68945C25.8986 3.67105 25.9162 3.65256 25.9346 3.63477C25.964 3.60621 25.9944 3.57868 26.0254 3.55176C26.0514 3.52918 26.0775 3.50674 26.1045 3.48535C26.1284 3.46644 26.1531 3.44861 26.1777 3.43066C26.2106 3.4067 26.2441 3.38351 26.2783 3.36133C26.3045 3.34433 26.3314 3.32842 26.3584 3.3125C26.3888 3.29457 26.4189 3.27629 26.4502 3.25977C26.4859 3.24088 26.5227 3.22402 26.5596 3.20703C26.5871 3.19435 26.6145 3.18151 26.6426 3.16992C26.6931 3.14908 26.7446 3.13047 26.7969 3.11328C26.8097 3.10907 26.8221 3.10359 26.835 3.09961C26.8985 3.07998 26.9635 3.06382 27.0293 3.0498C27.0359 3.04841 27.0423 3.04626 27.0488 3.04492C27.1212 3.0302 27.1948 3.01932 27.2695 3.01172L27.5 3H30.75L30.9805 3.01172Z" fill="white"/>
</svg>
