<svg width="36" height="36" viewBox="0 0 36 36" fill="none" xmlns="http://www.w3.org/2000/svg">
<path fill-rule="evenodd" clip-rule="evenodd" d="M27.75 7.56057L27.75 9.5H8.25V7.56055C8.24998 6.96411 8.24997 6.45699 8.28398 6.04077C8.31968 5.60374 8.39781 5.17965 8.60423 4.77453C8.91582 4.16301 9.413 3.66582 10.0245 3.35423C10.4296 3.14781 10.8537 3.06968 11.2908 3.03398C11.707 2.99997 12.2141 2.99998 12.8106 3H23.1894C23.7859 2.99998 24.293 2.99997 24.7092 3.03398C25.1463 3.06968 25.5704 3.14781 25.9755 3.35423C26.587 3.66582 27.0842 4.16301 27.3958 4.77453C27.6022 5.17965 27.6803 5.60374 27.716 6.04077C27.75 6.45699 27.75 6.96412 27.75 7.56057ZM25.7227 6.20364C25.6971 5.89029 25.6526 5.7587 25.6138 5.68251C25.4939 5.44731 25.3027 5.25608 25.0675 5.13624C24.9913 5.09743 24.8597 5.05294 24.5464 5.02733C24.2213 5.00078 23.7966 5 23.15 5H12.85C12.2034 5 11.7787 5.00078 11.4536 5.02733C11.1403 5.05294 11.0087 5.09743 10.9325 5.13624C10.6973 5.25608 10.5061 5.44731 10.3862 5.68251C10.3474 5.7587 10.3029 5.89029 10.2773 6.20364C10.2522 6.5116 10.2502 6.90912 10.25 7.5H25.75C25.7498 6.90912 25.7478 6.5116 25.7227 6.20364Z" fill="white"/>
<path fill-rule="evenodd" clip-rule="evenodd" d="M27.75 28.4394L27.75 26.5H8.25V28.4394C8.24998 29.0359 8.24997 29.543 8.28398 29.9592C8.31968 30.3963 8.39781 30.8204 8.60423 31.2255C8.91582 31.837 9.413 32.3342 10.0245 32.6458C10.4296 32.8522 10.8537 32.9303 11.2908 32.966C11.707 33 12.2141 33 12.8106 33H23.1894C23.7859 33 24.293 33 24.7092 32.966C25.1463 32.9303 25.5704 32.8522 25.9755 32.6458C26.587 32.3342 27.0842 31.837 27.3958 31.2255C27.6022 30.8204 27.6803 30.3963 27.716 29.9592C27.75 29.543 27.75 29.0359 27.75 28.4394ZM25.7227 29.7964C25.6971 30.1097 25.6526 30.2413 25.6138 30.3175C25.4939 30.5527 25.3027 30.7439 25.0675 30.8638C24.9913 30.9026 24.8597 30.9471 24.5464 30.9727C24.2213 30.9992 23.7966 31 23.15 31H12.85C12.2034 31 11.7787 30.9992 11.4536 30.9727C11.1403 30.9471 11.0087 30.9026 10.9325 30.8638C10.6973 30.7439 10.5061 30.5527 10.3862 30.3175C10.3474 30.2413 10.3029 30.1097 10.2773 29.7964C10.2522 29.4884 10.2502 29.0909 10.25 28.5H25.75C25.7498 29.0909 25.7478 29.4884 25.7227 29.7964Z" fill="white"/>
<path fill-rule="evenodd" clip-rule="evenodd" d="M30.75 13.2587V22.7413C30.75 23.5463 30.75 24.2106 30.7058 24.7518C30.6599 25.3139 30.5613 25.8306 30.314 26.316C29.9305 27.0686 29.3186 27.6805 28.566 28.064C28.0806 28.3113 27.5639 28.4099 27.0018 28.4558C26.4606 28.5 25.7963 28.5 24.9913 28.5H11.0087C10.2037 28.5 9.53936 28.5 8.99818 28.4558C8.43608 28.4099 7.91937 28.3113 7.43404 28.064C6.68139 27.6805 6.06947 27.0686 5.68597 26.316C5.43868 25.8306 5.34012 25.3139 5.29419 24.7518C5.24998 24.2106 5.24999 23.5463 5.25 22.7413V13.2587C5.24999 12.4537 5.24998 11.7894 5.29419 11.2482C5.34012 10.6861 5.43868 10.1694 5.68597 9.68404C6.06947 8.93139 6.68139 8.31947 7.43404 7.93598C7.91937 7.68868 8.43608 7.59012 8.99818 7.5442C9.53937 7.49998 10.2037 7.49999 11.0087 7.5H24.9913C25.7963 7.49999 26.4606 7.49998 27.0018 7.5442C27.5639 7.59012 28.0806 7.68868 28.566 7.93598C29.3186 8.31947 29.9305 8.93139 30.314 9.68404C30.5613 10.1694 30.6599 10.6861 30.7058 11.2482C30.75 11.7894 30.75 12.4537 30.75 13.2587ZM28.7124 11.411C28.6766 10.9726 28.6117 10.7484 28.532 10.592C28.3403 10.2157 28.0343 9.90974 27.658 9.71799C27.5016 9.6383 27.2774 9.57337 26.839 9.53755C26.3889 9.50078 25.8066 9.5 24.95 9.5H11.05C10.1934 9.5 9.61113 9.50078 9.16104 9.53755C8.72262 9.57337 8.49842 9.6383 8.34202 9.71799C7.96569 9.90974 7.65974 10.2157 7.46799 10.592C7.3883 10.7484 7.32337 10.9726 7.28755 11.411C7.25078 11.8611 7.25 12.4434 7.25 13.3V22.7C7.25 23.5566 7.25078 24.1389 7.28755 24.589C7.32337 25.0274 7.3883 25.2516 7.46799 25.408C7.65974 25.7843 7.96569 26.0903 8.34202 26.282C8.49842 26.3617 8.72262 26.4266 9.16104 26.4624C9.61113 26.4992 10.1934 26.5 11.05 26.5H24.95C25.8066 26.5 26.3889 26.4992 26.839 26.4624C27.2774 26.4266 27.5016 26.3617 27.658 26.282C28.0343 26.0903 28.3403 25.7843 28.532 25.408C28.6117 25.2516 28.6766 25.0274 28.7124 24.589C28.7492 24.1389 28.75 23.5566 28.75 22.7V13.3C28.75 12.4434 28.7492 11.8611 28.7124 11.411Z" fill="white"/>
</svg>
