<svg width="36" height="36" viewBox="0 0 36 36" fill="none" xmlns="http://www.w3.org/2000/svg">
<path fill-rule="evenodd" clip-rule="evenodd" d="M25.375 7.18557L25.375 9.125H10.625V7.18555C10.625 6.58911 10.625 6.08199 10.659 5.66577C10.6947 5.22874 10.7728 4.80465 10.9792 4.39953C11.2908 3.78801 11.788 3.29082 12.3995 2.97923C12.8047 2.77281 13.2287 2.69468 13.6658 2.65898C14.082 2.62497 14.5891 2.62498 15.1856 2.625H20.8144C21.4109 2.62498 21.918 2.62497 22.3342 2.65898C22.7713 2.69468 23.1954 2.77281 23.6005 2.97923C24.212 3.29082 24.7092 3.78801 25.0208 4.39953C25.2272 4.80465 25.3053 5.22874 25.341 5.66577C25.375 6.08199 25.375 6.58912 25.375 7.18557ZM23.3477 5.82864C23.3221 5.51529 23.2776 5.3837 23.2388 5.30751C23.1189 5.07231 22.9277 4.88108 22.6925 4.76124C22.6163 4.72243 22.4847 4.67794 22.1714 4.65233C21.8463 4.62578 21.4216 4.625 20.775 4.625H15.225C14.5784 4.625 14.1537 4.62578 13.8286 4.65233C13.5153 4.67794 13.3837 4.72243 13.3075 4.76124C13.0723 4.88108 12.8811 5.07231 12.7612 5.30751C12.7224 5.3837 12.6779 5.51529 12.6523 5.82864C12.6272 6.1366 12.6252 6.53412 12.625 7.125H23.375C23.3748 6.53412 23.3728 6.1366 23.3477 5.82864Z" fill="white"/>
<path fill-rule="evenodd" clip-rule="evenodd" d="M27.625 11.6856L27.625 13.625H8.375V11.6856C8.37498 11.0891 8.37497 10.582 8.40898 10.1658C8.44468 9.72874 8.52281 9.30465 8.72923 8.89953C9.04082 8.28801 9.538 7.79082 10.1495 7.47923C10.5546 7.27281 10.9787 7.19468 11.4158 7.15898C11.832 7.12497 12.3391 7.12498 12.9356 7.125H23.0644C23.6609 7.12498 24.168 7.12497 24.5842 7.15898C25.0213 7.19468 25.4454 7.27281 25.8505 7.47923C26.462 7.79082 26.9592 8.28801 27.2708 8.89953C27.4772 9.30465 27.5553 9.72874 27.591 10.1658C27.625 10.582 27.625 11.0891 27.625 11.6856ZM25.5977 10.3286C25.5721 10.0153 25.5276 9.8837 25.4888 9.80751C25.3689 9.57231 25.1777 9.38108 24.9425 9.26124C24.8663 9.22243 24.7347 9.17794 24.4214 9.15233C24.0963 9.12578 23.6716 9.125 23.025 9.125H12.975C12.3284 9.125 11.9037 9.12578 11.5786 9.15233C11.2653 9.17794 11.1337 9.22243 11.0575 9.26124C10.8223 9.38108 10.6311 9.57231 10.5112 9.80751C10.4724 9.8837 10.4279 10.0153 10.4023 10.3286C10.3772 10.6366 10.3752 11.0341 10.375 11.625H25.625C25.6248 11.0341 25.6228 10.6366 25.5977 10.3286Z" fill="white"/>
<path d="M11.175 31.625H24.825C26.5052 31.625 27.3452 31.625 27.987 31.298C28.5515 31.0104 29.0104 30.5515 29.298 29.987C29.625 29.3452 29.625 28.5052 29.625 26.825V17.675C29.625 15.9948 29.625 15.1548 29.298 14.513C29.0104 13.9485 28.5515 13.4896 27.987 13.202C27.3452 12.875 26.5052 12.875 24.825 12.875H11.175C9.49484 12.875 8.65476 12.875 8.01303 13.202C7.44854 13.4896 6.9896 13.9485 6.70198 14.513C6.375 15.1548 6.375 15.9948 6.375 17.675V26.825C6.375 28.5052 6.375 29.3452 6.70198 29.987C6.9896 30.5515 7.44854 31.0104 8.01303 31.298C8.65476 31.625 9.49484 31.625 11.175 31.625Z" fill="white"/>
<path fill-rule="evenodd" clip-rule="evenodd" d="M30.625 17.6337V26.8663C30.625 27.6713 30.625 28.3356 30.5808 28.8768C30.5349 29.4389 30.4363 29.9556 30.189 30.441C29.8055 31.1936 29.1936 31.8055 28.441 32.189C27.9556 32.4363 27.4389 32.5349 26.8768 32.5808C26.3356 32.625 25.6713 32.625 24.8663 32.625H11.1337C10.3287 32.625 9.66436 32.625 9.12318 32.5808C8.56108 32.5349 8.04437 32.4363 7.55904 32.189C6.80639 31.8055 6.19447 31.1936 5.81097 30.441C5.56368 29.9556 5.46512 29.4389 5.41919 28.8768C5.37498 28.3356 5.37499 27.6713 5.375 26.8663V17.6337C5.37499 16.8287 5.37498 16.1644 5.41919 15.6232C5.46512 15.0611 5.56368 14.5444 5.81097 14.059C6.19447 13.3064 6.80639 12.6945 7.55904 12.311C8.04437 12.0637 8.56108 11.9651 9.12318 11.9192C9.66437 11.875 10.3287 11.875 11.1337 11.875H24.8663C25.6713 11.875 26.3356 11.875 26.8768 11.9192C27.4389 11.9651 27.9556 12.0637 28.441 12.311C29.1936 12.6945 29.8055 13.3064 30.189 14.059C30.4363 14.5444 30.5349 15.0611 30.5808 15.6232C30.625 16.1644 30.625 16.8287 30.625 17.6337ZM28.5874 15.786C28.5516 15.3476 28.4867 15.1234 28.407 14.967C28.2153 14.5907 27.9093 14.2847 27.533 14.093C27.3766 14.0133 27.1524 13.9484 26.714 13.9126C26.2639 13.8758 25.6816 13.875 24.825 13.875H11.175C10.3184 13.875 9.73613 13.8758 9.28604 13.9126C8.84762 13.9484 8.62342 14.0133 8.46702 14.093C8.0907 14.2847 7.78474 14.5907 7.59299 14.967C7.5133 15.1234 7.44837 15.3476 7.41255 15.786C7.37578 16.2361 7.375 16.8184 7.375 17.675V26.825C7.375 27.6816 7.37578 28.2639 7.41255 28.714C7.44837 29.1524 7.5133 29.3766 7.59299 29.533C7.78474 29.9093 8.09069 30.2153 8.46702 30.407C8.62342 30.4867 8.84762 30.5516 9.28604 30.5874C9.73613 30.6242 10.3184 30.625 11.175 30.625H24.825C25.6816 30.625 26.2639 30.6242 26.714 30.5874C27.1524 30.5516 27.3766 30.4867 27.533 30.407C27.9093 30.2153 28.2153 29.9093 28.407 29.533C28.4867 29.3766 28.5516 29.1524 28.5874 28.714C28.6242 28.2639 28.625 27.6816 28.625 26.825V17.675C28.625 16.8184 28.6242 16.2361 28.5874 15.786Z" fill="white"/>
</svg>
