<svg width="36" height="36" viewBox="0 0 36 36" fill="none" xmlns="http://www.w3.org/2000/svg">
<path fill-rule="evenodd" clip-rule="evenodd" d="M9 24.75C10.2426 24.75 11.25 25.7574 11.25 27V30.75C11.25 31.9148 10.3648 32.8729 9.23047 32.9883L9 33H5.25L5.01953 32.9883C3.96094 32.8806 3.11943 32.0391 3.01172 30.9805L3 30.75V27C3 25.7574 4.00736 24.75 5.25 24.75H9ZM5.25 26.75C5.11193 26.75 5 26.8619 5 27V30.75C5 30.8881 5.11193 31 5.25 31H9C9.13807 31 9.25 30.8881 9.25 30.75V27C9.25 26.8619 9.13807 26.75 9 26.75H5.25Z" fill="white"/>
<path fill-rule="evenodd" clip-rule="evenodd" d="M19.875 24.75C21.1176 24.75 22.125 25.7574 22.125 27V30.75C22.125 31.9148 21.2398 32.8729 20.1055 32.9883L19.875 33H16.125L15.8945 32.9883C14.8359 32.8806 13.9944 32.0391 13.8867 30.9805L13.875 30.75V27C13.875 25.7574 14.8824 24.75 16.125 24.75H19.875ZM16.125 26.75C15.9869 26.75 15.875 26.8619 15.875 27V30.75C15.875 30.8881 15.9869 31 16.125 31H19.875C20.0131 31 20.125 30.8881 20.125 30.75V27C20.125 26.8619 20.0131 26.75 19.875 26.75H16.125Z" fill="white"/>
<path fill-rule="evenodd" clip-rule="evenodd" d="M30.75 24.75C31.9926 24.75 33 25.7574 33 27V30.75C33 31.9148 32.1148 32.8729 30.9805 32.9883L30.75 33H27L26.7695 32.9883C25.7109 32.8806 24.8694 32.0391 24.7617 30.9805L24.75 30.75V27C24.75 25.7574 25.7574 24.75 27 24.75H30.75ZM27 26.75C26.8619 26.75 26.75 26.8619 26.75 27V30.75C26.75 30.8881 26.8619 31 27 31H30.75C30.8881 31 31 30.8881 31 30.75V27C31 26.8619 30.8881 26.75 30.75 26.75H27Z" fill="white"/>
<path fill-rule="evenodd" clip-rule="evenodd" d="M9 13.875C10.2426 13.875 11.25 14.8824 11.25 16.125V19.875C11.25 21.0398 10.3648 21.9979 9.23047 22.1133L9 22.125H5.25L5.01953 22.1133C3.96094 22.0056 3.11943 21.1641 3.01172 20.1055L3 19.875V16.125C3 14.8824 4.00736 13.875 5.25 13.875H9ZM5.25 15.875C5.11193 15.875 5 15.9869 5 16.125V19.875C5 20.0131 5.11193 20.125 5.25 20.125H9C9.13807 20.125 9.25 20.0131 9.25 19.875V16.125C9.25 15.9869 9.13807 15.875 9 15.875H5.25Z" fill="white"/>
<path fill-rule="evenodd" clip-rule="evenodd" d="M19.875 13.875C21.1176 13.875 22.125 14.8824 22.125 16.125V19.875C22.125 21.0398 21.2398 21.9979 20.1055 22.1133L19.875 22.125H16.125L15.8945 22.1133C14.8359 22.0056 13.9944 21.1641 13.8867 20.1055L13.875 19.875V16.125C13.875 14.8824 14.8824 13.875 16.125 13.875H19.875ZM16.125 15.875C15.9869 15.875 15.875 15.9869 15.875 16.125V19.875C15.875 20.0131 15.9869 20.125 16.125 20.125H19.875C20.0131 20.125 20.125 20.0131 20.125 19.875V16.125C20.125 15.9869 20.0131 15.875 19.875 15.875H16.125Z" fill="white"/>
<path fill-rule="evenodd" clip-rule="evenodd" d="M30.75 13.875C31.9926 13.875 33 14.8824 33 16.125V19.875C33 21.0398 32.1148 21.9979 30.9805 22.1133L30.75 22.125H27L26.7695 22.1133C25.7109 22.0056 24.8694 21.1641 24.7617 20.1055L24.75 19.875V16.125C24.75 14.8824 25.7574 13.875 27 13.875H30.75ZM27 15.875C26.8619 15.875 26.75 15.9869 26.75 16.125V19.875C26.75 20.0131 26.8619 20.125 27 20.125H30.75C30.8881 20.125 31 20.0131 31 19.875V16.125C31 15.9869 30.8881 15.875 30.75 15.875H27Z" fill="white"/>
<path fill-rule="evenodd" clip-rule="evenodd" d="M9 3C10.2426 3 11.25 4.00736 11.25 5.25V9C11.25 10.1648 10.3648 11.1229 9.23047 11.2383L9 11.25H5.25L5.01953 11.2383C3.96094 11.1306 3.11943 10.2891 3.01172 9.23047L3 9V5.25C3 4.00736 4.00736 3 5.25 3H9ZM5.25 5C5.11193 5 5 5.11193 5 5.25V9C5 9.13807 5.11193 9.25 5.25 9.25H9C9.13807 9.25 9.25 9.13807 9.25 9V5.25C9.25 5.11193 9.13807 5 9 5H5.25Z" fill="white"/>
<path fill-rule="evenodd" clip-rule="evenodd" d="M19.875 3C21.1176 3 22.125 4.00736 22.125 5.25V9C22.125 10.1648 21.2398 11.1229 20.1055 11.2383L19.875 11.25H16.125L15.8945 11.2383C14.8359 11.1306 13.9944 10.2891 13.8867 9.23047L13.875 9V5.25C13.875 4.00736 14.8824 3 16.125 3H19.875ZM16.125 5C15.9869 5 15.875 5.11193 15.875 5.25V9C15.875 9.13807 15.9869 9.25 16.125 9.25H19.875C20.0131 9.25 20.125 9.13807 20.125 9V5.25C20.125 5.11193 20.0131 5 19.875 5H16.125Z" fill="white"/>
<path fill-rule="evenodd" clip-rule="evenodd" d="M30.75 3C31.9926 3 33 4.00736 33 5.25V9C33 10.1648 32.1148 11.1229 30.9805 11.2383L30.75 11.25H27L26.7695 11.2383C25.7109 11.1306 24.8694 10.2891 24.7617 9.23047L24.75 9V5.25C24.75 4.00736 25.7574 3 27 3H30.75ZM27 5C26.8619 5 26.75 5.11193 26.75 5.25V9C26.75 9.13807 26.8619 9.25 27 9.25H30.75C30.8881 9.25 31 9.13807 31 9V5.25C31 5.11193 30.8881 5 30.75 5H27Z" fill="white"/>
</svg>
