<svg width="36" height="36" viewBox="0 0 36 36" fill="none" xmlns="http://www.w3.org/2000/svg">
<path fill-rule="evenodd" clip-rule="evenodd" d="M13.9733 5.75007H22.0267C23.677 5.7493 24.8154 5.74877 25.8124 6.14143C26.6897 6.48696 27.4661 7.04749 28.0702 7.77148C28.6054 8.41292 28.9408 9.21121 29.3084 10.2743H30.375C30.9963 10.2743 31.5 10.778 31.5 11.3993C31.5 12.0206 30.9963 12.5243 30.375 12.5243H30.0582L30.6735 14.3799C32.0692 15.2375 33 16.7783 33 18.5366V27.625C33 29.0747 31.8247 30.25 30.375 30.25C28.9253 30.25 27.75 29.0747 27.75 27.625V26.4799H8.25V27.625C8.25 29.0747 7.07475 30.25 5.625 30.25C4.17525 30.25 3 29.0747 3 27.625V18.5366C3 16.7783 3.9308 15.2375 5.32651 14.3799L5.94176 12.5243H5.625C5.00368 12.5243 4.5 12.0206 4.5 11.3993C4.5 10.778 5.00368 10.2743 5.625 10.2743H6.69162C7.05923 9.21121 7.39464 8.41292 7.92983 7.77148C8.5339 7.04749 9.31028 6.48696 10.1876 6.14143C11.1846 5.74877 12.323 5.7493 13.9733 5.75007ZM27.5681 12.1633L28.0649 13.6616H7.93514L8.4319 12.1633C9.05037 10.2979 9.28015 9.66515 9.65745 9.21295C10.0199 8.77855 10.4857 8.44223 11.0121 8.23492C11.5601 8.0191 12.233 8.00014 14.1982 8.00014H21.8018C23.767 8.00014 24.4399 8.0191 24.9879 8.23492C25.5143 8.44223 25.9801 8.77855 26.3425 9.21295C26.7199 9.66515 26.9496 10.2979 27.5681 12.1633ZM26.25 21.9556C27.4926 21.9556 28.5 20.9429 28.5 19.6936C28.5 18.4443 27.4926 17.4315 26.25 17.4315C25.0074 17.4315 24 18.4443 24 19.6936C24 20.9429 25.0074 21.9556 26.25 21.9556ZM12 19.6936C12 20.9429 10.9926 21.9556 9.75 21.9556C8.50736 21.9556 7.5 20.9429 7.5 19.6936C7.5 18.4443 8.50736 17.4315 9.75 17.4315C10.9926 17.4315 12 18.4443 12 19.6936ZM15.7577 18.1856C14.925 18.1856 14.25 18.8606 14.25 19.6933C14.25 20.5259 14.925 21.2009 15.7577 21.2009H20.2423C21.075 21.2009 21.75 20.5259 21.75 19.6933C21.75 18.8606 21.075 18.1856 20.2423 18.1856H15.7577Z" fill="white"/>
</svg>
