<svg width="36" height="36" viewBox="0 0 36 36" fill="none" xmlns="http://www.w3.org/2000/svg">
<path fill-rule="evenodd" clip-rule="evenodd" d="M14.054 5.62505H21.9461C23.6329 5.62441 24.7611 5.62398 25.7436 6.01505C26.6085 6.35935 27.3719 6.91757 27.9623 7.63742C28.54 8.34187 28.8736 9.23751 29.2816 10.5001H30.375C30.9273 10.5001 31.375 10.9478 31.375 11.5001C31.375 12.0524 30.9273 12.5001 30.375 12.5001H29.9187L30.5722 14.554C31.3329 15.0113 31.9523 15.6739 32.3573 16.4686C32.6454 17.0342 32.7644 17.6435 32.8206 18.3307C32.875 18.9969 32.875 19.8186 32.875 20.8326V25.0002H33V27.6252C33 29.0749 31.8247 30.2502 30.375 30.2502C28.9253 30.2502 27.75 29.0749 27.75 27.6252V26.3751H8.25V27.6252C8.25 29.0749 7.07475 30.2502 5.625 30.2502C4.17525 30.2502 3 29.0749 3 27.6252V25.0002H3.125V20.8326C3.12499 19.8186 3.12498 18.9969 3.17941 18.3307C3.23556 17.6435 3.35456 17.0342 3.64272 16.4686C4.04766 15.6739 4.66708 15.0113 5.42776 14.554L6.08129 12.5001H5.62501C5.07272 12.5001 4.62501 12.0524 4.62501 11.5001C4.62501 10.9478 5.07272 10.5001 5.62501 10.5001H6.71842C7.1264 9.23751 7.46 8.34187 8.03772 7.63742C8.62806 6.91757 9.39148 6.35935 10.2564 6.01505C11.2389 5.62398 12.3671 5.62441 14.054 5.62505ZM25.9501 15.8751H10.0499C9.0235 15.8752 8.30499 15.877 7.74344 15.9229C7.17996 15.9689 6.86315 16.0543 6.62653 16.1748C6.10908 16.4385 5.68839 16.8592 5.42474 17.3766C5.30417 17.6132 5.21881 17.9301 5.17277 18.4935C5.12578 19.0687 5.125 19.8085 5.125 20.8751V24.3751H30.875V20.8751C30.875 19.8085 30.8742 19.0687 30.8272 18.4935C30.7812 17.9301 30.6958 17.6132 30.5753 17.3766C30.3116 16.8592 29.8909 16.4385 29.3735 16.1748C29.1369 16.0543 28.82 15.9689 28.2566 15.9229C27.695 15.877 26.9765 15.8752 25.9501 15.8751ZM28.2574 13.8751H7.74259L8.35663 11.9452C8.95636 10.0604 9.18818 9.38854 9.58418 8.90567C9.95985 8.44758 10.4457 8.09235 10.9961 7.87325C11.5763 7.6423 12.2868 7.6251 14.2648 7.6251H21.7352C23.7132 7.6251 24.4237 7.6423 25.0039 7.87325C25.5543 8.09235 26.0402 8.44758 26.4158 8.90567C26.8118 9.38854 27.0437 10.0604 27.6434 11.9452L28.2574 13.8751ZM26.25 22.0002C27.4926 22.0002 28.5 20.9928 28.5 19.7502C28.5 18.5075 27.4926 17.5002 26.25 17.5002C25.0074 17.5002 24 18.5075 24 19.7502C24 20.9928 25.0074 22.0002 26.25 22.0002ZM12 19.7502C12 20.9928 10.9926 22.0002 9.75 22.0002C8.50736 22.0002 7.5 20.9928 7.5 19.7502C7.5 18.5075 8.50736 17.5002 9.75 17.5002C10.9926 17.5002 12 18.5075 12 19.7502ZM15.75 18.2502C14.9216 18.2502 14.25 18.9217 14.25 19.7502C14.25 20.5786 14.9216 21.2502 15.75 21.2502H20.25C21.0784 21.2502 21.75 20.5786 21.75 19.7502C21.75 18.9217 21.0784 18.2502 20.25 18.2502H15.75Z" fill="white"/>
</svg>
