<svg width="36" height="36" viewBox="0 0 36 36" fill="none" xmlns="http://www.w3.org/2000/svg">
<path fill-rule="evenodd" clip-rule="evenodd" d="M21.7298 4.47746C22.1992 4.17418 22.8008 4.17418 23.2702 4.47746C23.7045 4.758 25.0659 5.60952 26.7431 6.3871C28.4528 7.17979 30.3429 7.82472 31.875 7.82472C32.4963 7.82472 33 8.32487 33 8.94185C33 16.8409 30.6706 21.3868 28.128 23.97C28.0021 24.0979 27.876 24.2207 27.75 24.3385C27.7495 23.7219 27.7447 23.1053 27.7005 22.5676C27.6451 21.8941 27.5115 21.0593 27.0756 20.2097C26.8604 19.7903 26.5986 19.3992 26.2968 19.0431C26.5072 18.606 26.625 18.1165 26.625 17.5997C26.625 15.9732 25.4582 14.6174 23.9105 14.3124C23.7196 13.9621 23.4915 13.6133 23.2109 13.2824C22.4859 12.4274 21.5571 11.766 20.509 11.3584C19.3069 10.8909 18.015 10.894 16.9737 10.8965L16.793 10.8968L12.0498 10.8968C12.0171 10.2691 12 9.61776 12 8.94185C12 8.32487 12.5037 7.82472 13.125 7.82472C14.6571 7.82472 16.5472 7.17979 18.2569 6.3871C19.934 5.60952 21.2955 4.758 21.7298 4.47746ZM11.697 13.1231H16.803C17.9977 13.1222 18.8969 13.1215 19.6913 13.432C20.389 13.7047 21.0075 14.1473 21.4909 14.7196C21.8885 15.1903 22.15 15.7653 22.4096 16.4746H23.25C23.8713 16.4746 24.375 16.9783 24.375 17.5996C24.375 18.2209 23.8713 18.7246 23.25 18.7246H23.1833L23.4756 19.5816C24.159 19.9589 24.7149 20.5303 25.0708 21.224C25.3184 21.7065 25.4139 22.2147 25.4579 22.7495C25.5 23.261 25.5 23.8861 25.5 24.6299V29.5157C25.4915 30.7511 24.4874 31.75 23.25 31.75C22.0126 31.75 21.0085 30.7511 21.0001 29.5157H7.49995C7.49149 30.7511 6.48739 31.75 5.25 31.75C4.01261 31.75 3.00851 30.7511 3.00005 29.5157L3 29.5V24.6299C2.99999 23.8861 2.99998 23.261 3.04206 22.7495C3.08606 22.2147 3.18162 21.7065 3.42917 21.224C3.78512 20.5303 4.34099 19.9589 5.02441 19.5816L5.31674 18.7246H5.25C4.62868 18.7246 4.125 18.2209 4.125 17.5996C4.125 16.9783 4.62868 16.4746 5.25 16.4746H6.09038C6.35002 15.7653 6.61154 15.1903 7.0091 14.7196C7.49246 14.1473 8.11103 13.7047 8.80873 13.432C9.60308 13.1215 10.5023 13.1222 11.697 13.1231ZM11.8958 15.3732C10.4106 15.3732 9.97508 15.3919 9.62786 15.5276C9.27902 15.664 8.96973 15.8853 8.72805 16.1714C8.48751 16.4562 8.32923 16.8624 7.84974 18.2681L7.57238 19.0813H20.9276L20.6503 18.2681C20.1708 16.8624 20.0125 16.4562 19.7719 16.1714C19.5303 15.8853 19.221 15.664 18.8721 15.5276C18.5249 15.3919 18.0894 15.3732 16.6042 15.3732H11.8958ZM12.75 23.3024C12.1977 23.3024 11.75 23.7502 11.75 24.3024C11.75 24.8547 12.1977 25.3024 12.75 25.3024H15.75C16.3023 25.3024 16.75 24.8547 16.75 24.3024C16.75 23.7502 16.3023 23.3024 15.75 23.3024H12.75ZM9 24.3C9 25.1284 8.32843 25.8 7.5 25.8C6.67158 25.8 6 25.1284 6 24.3C6 23.4716 6.67158 22.8 7.5 22.8C8.32843 22.8 9 23.4716 9 24.3ZM21 25.8001C21.8284 25.8001 22.5 25.1285 22.5 24.3001C22.5 23.4716 21.8284 22.8001 21 22.8001C20.1716 22.8001 19.5 23.4716 19.5 24.3001C19.5 25.1285 20.1716 25.8001 21 25.8001Z" fill="white"/>
</svg>
