<svg width="36" height="36" viewBox="0 0 36 36" fill="none" xmlns="http://www.w3.org/2000/svg">
<path fill-rule="evenodd" clip-rule="evenodd" d="M22.5397 6.37987C21.8645 6.79674 20.6281 7.52126 19.1629 8.19796C17.6659 8.88931 15.8393 9.57433 14.0925 9.77982C14.1014 10.1297 14.1153 10.4715 14.1339 10.8054H12.1311C12.0979 10.1751 12.0807 9.52091 12.0807 8.84181C12.0807 8.28953 12.5284 7.84181 13.0807 7.84181C14.6614 7.84181 16.5943 7.1812 18.3243 6.38225C20.0257 5.59651 21.4051 4.73699 21.843 4.45529C22.2684 4.18157 22.811 4.18157 23.2364 4.45529C23.6743 4.737 25.0537 5.59651 26.7551 6.38225C28.485 7.1812 30.418 7.84181 31.9987 7.84181C32.551 7.84181 32.9987 8.28953 32.9987 8.84181C32.9987 16.7578 30.6536 21.2931 28.1146 23.8596C28.022 23.9532 27.9292 24.044 27.8366 24.1322C27.8351 23.572 27.8273 23.018 27.7869 22.529C27.7586 22.1871 27.7103 21.8038 27.6125 21.3981C29.3011 19.2047 30.838 15.6229 30.9869 9.77982C29.2401 9.57434 27.4135 8.88931 25.9165 8.19796C24.4513 7.52126 23.2149 6.79674 22.5397 6.37987ZM11.6149 13.1709C10.4081 13.1702 9.53336 13.1697 8.76251 13.4706C8.08483 13.7352 7.48383 14.1646 7.01389 14.7199C6.63275 15.1703 6.37949 15.7204 6.12399 16.413H5.13526C4.51394 16.413 4.01026 16.9166 4.01026 17.538C4.01026 18.1593 4.51394 18.663 5.13526 18.663H5.34632L5.02476 19.6015C4.33345 19.9686 3.77134 20.5398 3.41554 21.2381C3.17847 21.7033 3.08501 22.1969 3.04164 22.7277C2.99998 23.2377 2.99999 23.8627 3 24.6155V29.3858H3.01587V29.5029C3.01587 30.7455 4.0434 31.7529 5.28604 31.7529C6.52868 31.7529 7.55621 30.7455 7.55621 29.5029V29.3858H20.9253V29.5029C20.9253 30.7455 21.9528 31.7529 23.1955 31.7529C24.4381 31.7529 25.4656 30.7455 25.4656 29.5029V28.7604H25.4315V24.6155C25.4315 23.8627 25.4316 23.2377 25.3899 22.7277C25.3465 22.1969 25.2531 21.7033 25.016 21.2381C24.6602 20.5398 24.0981 19.9686 23.4069 19.6016L23.0853 18.663H23.2964C23.9177 18.663 24.4214 18.1593 24.4214 17.538C24.4214 16.9166 23.9177 16.413 23.2964 16.413H22.3076C22.0521 15.7204 21.7989 15.1703 21.4177 14.7199C20.9478 14.1646 20.3468 13.7352 19.6691 13.4706C18.8982 13.1697 18.0235 13.1702 16.8167 13.1709H11.6149ZM9.48987 15.3337C9.86399 15.1876 10.3277 15.171 11.8004 15.171H16.6312C18.1039 15.171 18.5676 15.1876 18.9417 15.3337C19.3096 15.4773 19.6359 15.7104 19.891 16.0119C20.1504 16.3184 20.3164 16.7517 20.7937 18.1449L21.1401 19.156H7.29151L7.63791 18.1449C8.11522 16.7517 8.28119 16.3184 8.54062 16.0119C8.79573 15.7104 9.12199 15.4773 9.48987 15.3337ZM5.98964 21.354C6.12599 21.2845 6.32704 21.2247 6.73419 21.1914C7.15301 21.1572 7.69593 21.1564 8.5 21.1564H19.9315C20.7356 21.1564 21.2785 21.1572 21.6973 21.1914C22.1045 21.2247 22.3055 21.2845 22.4419 21.354C22.7829 21.5277 23.0602 21.805 23.234 22.146C23.3035 22.2824 23.3633 22.4834 23.3965 22.8906C23.4308 23.3094 23.4315 23.8523 23.4315 24.6564V27.3858H5V24.6564C5 23.8523 5.00078 23.3094 5.035 22.8906C5.06826 22.4834 5.12808 22.2824 5.19755 22.146C5.37132 21.805 5.6486 21.5277 5.98964 21.354ZM13.08 23.2712C12.5277 23.2712 12.08 23.7189 12.08 24.2712C12.08 24.8235 12.5277 25.2712 13.08 25.2712H15.3502C15.9025 25.2712 16.3502 24.8235 16.3502 24.2712C16.3502 23.7189 15.9025 23.2712 15.3502 23.2712H13.08Z" fill="white"/>
<path d="M9.5 24.2C9.5 25.0284 8.82843 25.7 8 25.7C7.17157 25.7 6.5 25.0284 6.5 24.2C6.5 23.3716 7.17157 22.7 8 22.7C8.82843 22.7 9.5 23.3716 9.5 24.2Z" fill="white"/>
<path d="M21.9299 24.2C21.9299 25.0284 21.2584 25.7 20.4299 25.7C19.6015 25.7 18.9299 25.0284 18.9299 24.2C18.9299 23.3716 19.6015 22.7 20.4299 22.7C21.2584 22.7 21.9299 23.3716 21.9299 24.2Z" fill="white"/>
</svg>
