<svg width="36" height="36" viewBox="0 0 36 36" fill="none" xmlns="http://www.w3.org/2000/svg">
<path fill-rule="evenodd" clip-rule="evenodd" d="M2 6.50011C3.05347 6.50011 3.36598 6.51058 3.61489 6.58596C4.08215 6.72746 4.48152 7.035 4.73772 7.4506C4.87419 7.67198 4.96416 7.97145 5.23333 8.98995L5.24154 9.02102H5.23948L8.3099 20.5718C8.3395 20.6837 8.36842 20.7931 8.39736 20.8998L8.59728 21.6519L8.62386 21.6448C8.74564 21.9856 8.89096 22.2898 9.09404 22.5552C9.44124 23.009 9.90193 23.3632 10.4297 23.5821C11.0328 23.8324 11.7223 23.8315 12.5479 23.8304H24.3679C25.1935 23.8315 25.8831 23.8324 26.4862 23.5821C27.0139 23.3632 27.4746 23.009 27.8218 22.5552C28.2186 22.0366 28.3949 21.37 28.606 20.5718L30.7108 12.6532C30.8113 12.2754 30.903 11.9306 30.9532 11.6405C31.0062 11.3337 31.0363 10.9716 30.9237 10.5933C30.7687 10.0728 30.4267 9.62801 29.9635 9.34453C29.6269 9.1385 29.2691 9.07453 28.9591 9.047C28.6658 9.02097 28.3091 9.02099 27.9181 9.02102L7.31021 9.02102L7.13069 8.34153C6.91469 7.52221 6.75281 6.90816 6.44022 6.40109C5.92783 5.56989 5.12909 4.95482 4.19456 4.67181C3.62446 4.49916 2.98943 4.49954 2.14212 4.50005L2 4.50011C1.44772 4.50011 1 4.94783 1 5.50011C1 6.0524 1.44772 6.50011 2 6.50011ZM10.2358 20.0308L7.84072 11.021H27.8788C28.322 11.021 28.5883 11.022 28.7822 11.0392C28.8695 11.0469 28.9158 11.0563 28.9353 11.0612C28.9644 11.083 28.9869 11.1123 29.0005 11.1459C29.0002 11.1661 28.9974 11.2132 28.9824 11.2996C28.9493 11.4914 28.8818 11.749 28.7679 12.1774L26.7154 19.8982C26.4374 20.9441 26.3552 21.1807 26.2334 21.3399C26.0999 21.5144 25.9227 21.6506 25.7197 21.7348C25.5346 21.8117 25.2849 21.8303 24.2027 21.8303H12.7132C11.631 21.8303 11.3813 21.8117 11.1961 21.7348C10.9932 21.6506 10.816 21.5144 10.6824 21.3399C10.566 21.1876 10.4857 20.9646 10.2358 20.0308ZM14.4856 28.8582C14.4856 30.3146 13.2998 31.4954 11.8371 31.4954C10.3745 31.4954 9.18872 30.3146 9.18872 28.8582C9.18872 27.4017 10.3745 26.221 11.8371 26.221C13.2998 26.221 14.4856 27.4017 14.4856 28.8582ZM24.7007 31.4954C26.1633 31.4954 27.3491 30.3146 27.3491 28.8582C27.3491 27.4017 26.1633 26.221 24.7007 26.221C23.238 26.221 22.0522 27.4017 22.0522 28.8582C22.0522 30.3146 23.238 31.4954 24.7007 31.4954Z" fill="white"/>
</svg>
