<svg width="36" height="36" viewBox="0 0 36 36" fill="none" xmlns="http://www.w3.org/2000/svg">
<path fill-rule="evenodd" clip-rule="evenodd" d="M11.5235 3C10.9713 3 10.5235 3.44772 10.5235 4C10.5235 4.55229 10.9713 5.00001 11.5235 5.00001H24.4799C25.0322 5.00001 25.4799 4.55229 25.4799 4C25.4799 3.44772 25.0322 3 24.4799 3H11.5235ZM14.0567 7.54005C13.1013 7.54004 12.3255 7.54004 11.6938 7.59022C11.0409 7.64209 10.4607 7.75201 9.9154 8.0166C9.0508 8.43615 8.33379 9.10808 7.85906 9.94367C7.55967 10.4706 7.41236 11.0425 7.31827 11.6906C7.22723 12.3178 7.17693 13.092 7.11499 14.0453L6.36494 25.5887C6.29516 26.6624 6.23875 27.5304 6.25192 28.2349C6.26548 28.9599 6.3521 29.6062 6.62629 30.2107C7.05805 31.1626 7.79176 31.9456 8.71369 32.4382C9.29914 32.751 9.93849 32.8793 10.6611 32.9399C11.3632 32.9987 12.2331 32.9987 13.309 32.9987H22.6941C23.7701 32.9987 24.64 32.9987 25.3421 32.9399C26.0647 32.8793 26.704 32.751 27.2895 32.4382C28.2114 31.9456 28.9451 31.1626 29.3769 30.2107C29.6511 29.6062 29.7377 28.9599 29.7513 28.2349C29.7644 27.5305 29.708 26.6625 29.6383 25.5889L28.8882 14.0454C28.8262 13.092 28.7759 12.3178 28.6849 11.6906C28.5908 11.0425 28.4435 10.4706 28.1441 9.94367C27.6694 9.10808 26.9524 8.43615 26.0878 8.0166C25.5425 7.75201 24.9623 7.64209 24.3094 7.59022C23.6777 7.54004 22.9019 7.54004 21.9465 7.54005H14.0567ZM13.0476 11.7024C13.5999 11.7024 14.0476 12.1502 14.0476 12.7024C14.0476 13.2161 14.1495 13.7248 14.3476 14.1997C14.5457 14.6747 14.8363 15.1067 15.2032 15.4709C15.57 15.8351 16.0059 16.1244 16.4861 16.3219C16.9663 16.5194 17.4813 16.6212 18.0015 16.6212C18.5217 16.6212 19.0367 16.5194 19.5169 16.3219C19.9972 16.1244 20.4331 15.8351 20.7999 15.4709C21.1667 15.1067 21.4573 14.6747 21.6554 14.1997C21.8536 13.7248 21.9554 13.2161 21.9554 12.7024C21.9554 12.1502 22.4032 11.7024 22.9554 11.7024C23.5077 11.7024 23.9554 12.1502 23.9554 12.7024C23.9554 13.4807 23.801 14.2512 23.5013 14.9698C23.2015 15.6884 22.7623 16.3409 22.2091 16.8901C21.6559 17.4394 20.9995 17.8747 20.2777 18.1716C19.5558 18.4685 18.7824 18.6212 18.0015 18.6212C17.2206 18.6212 16.4472 18.4685 15.7254 18.1716C15.0035 17.8747 14.3472 17.4394 13.794 16.8901C13.2408 16.3409 12.8016 15.6884 12.5018 14.9698C12.202 14.2512 12.0476 13.4807 12.0476 12.7024C12.0476 12.1502 12.4953 11.7024 13.0476 11.7024Z" fill="white"/>
</svg>
