<svg width="36" height="36" viewBox="0 0 36 36" fill="none" xmlns="http://www.w3.org/2000/svg">
<path fill-rule="evenodd" clip-rule="evenodd" d="M10.5235 4C10.5235 3.44772 10.9713 3 11.5235 3H24.4799C25.0322 3 25.4799 3.44772 25.4799 4C25.4799 4.55228 25.0322 5 24.4799 5H11.5235C10.9713 5 10.5235 4.55228 10.5235 4ZM14.0567 7.54014H21.9465C22.9019 7.54013 23.6777 7.54012 24.3094 7.59031C24.9623 7.64218 25.5425 7.75209 26.0878 8.01669C26.9524 8.43623 27.6694 9.10816 28.1441 9.94374C28.4435 10.4707 28.5908 11.0426 28.6849 11.6907C28.7759 12.3179 28.8262 13.0921 28.8882 14.0454L29.6382 25.5886C29.708 26.6622 29.7644 27.5305 29.7513 28.2349C29.7377 28.9599 29.6511 29.6062 29.3769 30.2107C28.9451 31.1627 28.2114 31.9456 27.2895 32.4382C26.704 32.751 26.0647 32.8793 25.3421 32.9399C24.64 32.9987 23.7701 32.9987 22.6941 32.9987H13.309C12.2331 32.9987 11.3632 32.9987 10.6611 32.9399C9.93849 32.8793 9.29914 32.751 8.71369 32.4382C7.79176 31.9456 7.05805 31.1627 6.62629 30.2107C6.3521 29.6062 6.26548 28.9599 6.25192 28.2349C6.23875 27.5305 6.29516 26.6624 6.36494 25.5887L7.11499 14.0454C7.17693 13.0921 7.22723 12.3179 7.31827 11.6907C7.41236 11.0426 7.55967 10.4707 7.85906 9.94374C8.33379 9.10816 9.0508 8.43623 9.9154 8.01669C10.4607 7.75209 11.0409 7.64218 11.6938 7.59031C12.3255 7.54012 13.1013 7.54013 14.0567 7.54014ZM11.8521 9.58403C11.3211 9.62622 11.0186 9.70441 10.7885 9.81604C10.288 10.0589 9.87285 10.4479 9.59801 10.9317C9.47171 11.154 9.37406 11.4508 9.29752 11.978C9.21924 12.5173 9.17337 13.212 9.10813 14.2159L8.36358 25.6745C8.29029 26.8024 8.24015 27.5867 8.25157 28.1975C8.26279 28.7972 8.33401 29.134 8.44769 29.3846C8.69766 29.9357 9.12244 30.389 9.65618 30.6742C9.89892 30.8039 10.2303 30.8968 10.8281 30.9468C11.4368 30.9978 12.2227 30.9987 13.3531 30.9987H22.6501C23.7805 30.9987 24.5664 30.9978 25.1751 30.9468C25.7729 30.8968 26.1043 30.8039 26.347 30.6742C26.8807 30.389 27.3055 29.9357 27.5555 29.3846C27.6692 29.134 27.7404 28.7972 27.7516 28.1975C27.763 27.5867 27.7129 26.8024 27.6396 25.6745L26.895 14.2159C26.8298 13.212 26.7839 12.5173 26.7057 11.978C26.6291 11.4508 26.5315 11.154 26.4052 10.9317C26.1303 10.4479 25.7152 10.0589 25.2147 9.81604C24.9846 9.70441 24.6821 9.62622 24.151 9.58403C23.6078 9.54087 22.9116 9.54014 21.9056 9.54014H14.0976C13.0916 9.54014 12.3953 9.54087 11.8521 9.58403ZM14.0477 12.7026C14.0477 12.1503 13.6 11.7026 13.0477 11.7026C12.4954 11.7026 12.0477 12.1503 12.0477 12.7026C12.0477 13.4808 12.2021 14.2513 12.5019 14.9699C12.8017 15.6885 13.2409 16.341 13.7941 16.8903C14.3473 17.4395 15.0036 17.8749 15.7255 18.1717C16.4473 18.4686 17.2207 18.6213 18.0016 18.6213C18.7825 18.6213 19.5559 18.4686 20.2778 18.1717C20.9996 17.8749 21.656 17.4395 22.2092 16.8903C22.7624 16.341 23.2016 15.6885 23.5014 14.9699C23.8012 14.2513 23.9555 13.4808 23.9555 12.7026C23.9555 12.1503 23.5078 11.7026 22.9555 11.7026C22.4033 11.7026 21.9555 12.1503 21.9555 12.7026C21.9555 13.2162 21.8537 13.725 21.6555 14.1999C21.4574 14.6748 21.1668 15.1068 20.8 15.471C20.4332 15.8352 19.9973 16.1245 19.517 16.322C19.0368 16.5196 18.5218 16.6213 18.0016 16.6213C17.4814 16.6213 16.9664 16.5196 16.4862 16.322C16.006 16.1245 15.5701 15.8352 15.2033 15.471C14.8364 15.1068 14.5458 14.6748 14.3477 14.1999C14.1496 13.725 14.0477 13.2162 14.0477 12.7026Z" fill="white"/>
</svg>
