<svg width="36" height="36" viewBox="0 0 36 36" fill="none" xmlns="http://www.w3.org/2000/svg">
<path fill-rule="evenodd" clip-rule="evenodd" d="M16.636 5.25H19.3627C19.9592 5.24999 20.4663 5.24997 20.8825 5.28398C21.3196 5.31969 21.7437 5.39781 22.1488 5.60423C22.7603 5.91582 23.2575 6.41301 23.5691 7.02453C23.7755 7.42965 23.8536 7.85374 23.8893 8.29078C23.9233 8.70699 23.9233 9.21411 23.9233 9.81055V11.25H24.541C25.555 11.25 26.3767 11.25 27.0429 11.3044C27.73 11.3606 28.3394 11.4796 28.9049 11.7677C29.7987 12.2231 30.5253 12.9498 30.9807 13.8435C31.2689 14.4091 31.3879 15.0184 31.444 15.7056C31.4985 16.3718 31.4985 17.1935 31.4985 18.2075V23.5425C31.4985 24.5565 31.4985 25.3782 31.444 26.0444C31.3879 26.7316 31.2689 27.3409 30.9807 27.9065C30.5253 28.8002 29.7987 29.5269 28.9049 29.9823C28.3394 30.2704 27.73 30.3894 27.0429 30.4456C26.3767 30.5 25.555 30.5 24.541 30.5H11.4575C10.4435 30.5 9.62177 30.5 8.95557 30.4456C8.26841 30.3894 7.6591 30.2704 7.09355 29.9823C6.19978 29.5269 5.47312 28.8002 5.01772 27.9065C4.72956 27.3409 4.61056 26.7316 4.55441 26.0444C4.49998 25.3782 4.49999 24.5565 4.5 23.5425V18.2075C4.49999 17.1935 4.49998 16.3718 4.55441 15.7056C4.61056 15.0184 4.72956 14.4091 5.01772 13.8435C5.47312 12.9498 6.19978 12.2231 7.09355 11.7677C7.6591 11.4796 8.26842 11.3606 8.95558 11.3044C9.62178 11.25 10.4435 11.25 11.4575 11.25H12.0754L12.0754 9.81058C12.0754 9.21416 12.0754 8.70697 12.1094 8.29078C12.1451 7.85374 12.2233 7.42965 12.4297 7.02453C12.7413 6.41301 13.2384 5.91582 13.85 5.60423C14.2551 5.39781 14.6792 5.31969 15.1162 5.28398C15.5324 5.24997 16.0396 5.24999 16.636 5.25ZM21.9233 9.85V11.25H14.0754V9.85C14.0754 9.20344 14.0762 8.77866 14.1028 8.45364C14.1284 8.14029 14.1729 8.0087 14.2117 7.93251C14.3315 7.69731 14.5228 7.50609 14.758 7.38624C14.8341 7.34743 14.9657 7.30294 15.2791 7.27734C15.6041 7.25078 16.0289 7.25 16.6754 7.25H19.3233C19.9699 7.25 20.3947 7.25078 20.7197 7.27734C21.033 7.30294 21.1646 7.34743 21.2408 7.38624C21.476 7.50609 21.6672 7.69731 21.7871 7.93251C21.8259 8.0087 21.8704 8.14029 21.896 8.45364C21.9225 8.77866 21.9233 9.20344 21.9233 9.85ZM6 25C6 24.4477 6.44772 24 7 24H29C29.5523 24 30 24.4477 30 25C30 25.5523 29.5523 26 29 26H7C6.44772 26 6 25.5523 6 25ZM16 19.5C15.4477 19.5 15 19.9477 15 20.5C15 21.0523 15.4477 21.5 16 21.5H20C20.5523 21.5 21 21.0523 21 20.5C21 19.9477 20.5523 19.5 20 19.5H16Z" fill="white"/>
</svg>
