<svg width="36" height="36" viewBox="0 0 36 36" fill="none" xmlns="http://www.w3.org/2000/svg">
<path fill-rule="evenodd" clip-rule="evenodd" d="M32.0057 6.49999C32.558 6.49999 33.0057 6.05228 33.0057 5.49999C33.0057 4.94771 32.558 4.5 32.0057 4.5H4.00684C3.45455 4.5 3.00684 4.94771 3.00684 5.49999C3.00684 6.05228 3.45455 6.49999 4.00684 6.49999H32.0057ZM8.92564 8.38474H27.0871V26.9951C27.0871 28.0452 27.0871 28.5702 26.8827 28.9713C26.703 29.3241 26.4161 29.611 26.0633 29.7907C25.6622 29.9951 25.1372 29.9951 24.0871 29.9951L11.9256 29.9951C10.8755 29.9951 10.3505 29.9951 9.94941 29.7907C9.5966 29.611 9.30976 29.3241 9.13 28.9713C8.92564 28.5702 8.92564 28.0452 8.92564 26.9951L8.92564 8.38474ZM21.1678 15.6746C21.1678 13.9412 19.7559 12.5293 18.0058 12.5293C16.2557 12.5293 14.8438 13.9412 14.8438 15.6746C14.8438 17.4079 16.2557 18.8199 18.0058 18.8199C19.7559 18.8199 21.1678 17.4079 21.1678 15.6746ZM18.0058 10.5293C20.8529 10.5293 23.1678 12.8291 23.1678 15.6746C23.1678 18.52 20.8529 20.8198 18.0058 20.8198C15.1587 20.8198 12.8438 18.52 12.8438 15.6746C12.8438 12.8291 15.1587 10.5293 18.0058 10.5293ZM16.492 23.3427C15.9398 23.3427 15.492 23.7904 15.492 24.3427C15.492 24.8949 15.9398 25.3427 16.492 25.3427H19.5189C20.0712 25.3427 20.5189 24.8949 20.5189 24.3427C20.5189 23.7904 20.0712 23.3427 19.5189 23.3427H16.492Z" fill="white"/>
</svg>
