<svg width="36" height="36" viewBox="0 0 36 36" fill="none" xmlns="http://www.w3.org/2000/svg">
<path fill-rule="evenodd" clip-rule="evenodd" d="M31.9999 6.50001C32.5521 6.50001 32.9999 6.05229 32.9999 5.50001C32.9999 4.94772 32.5521 4.50001 31.9999 4.50001L24.8308 4.50001C24.8119 4.5 24.793 4.5 24.7743 4.5L11.2261 4.5C11.207 4.5 11.1878 4.5 11.1685 4.50001L4.00098 4.50001C3.44869 4.50001 3.00098 4.94772 3.00098 5.50001C3.00098 6.05229 3.44869 6.50001 4.00098 6.50001H9.0549C9.05452 6.55733 9.05453 6.61485 9.05454 6.67155L9.05454 27.8269C9.0545 28.012 9.05446 28.2058 9.06808 28.3725C9.08335 28.5594 9.12061 28.7982 9.24528 29.0429C9.41306 29.3722 9.68077 29.6399 10.0101 29.8077C10.2547 29.9324 10.4936 29.9696 10.6805 29.9849C10.8472 29.9985 11.041 29.9985 11.2261 29.9984H24.7743C24.9593 29.9985 25.1532 29.9985 25.3198 29.9849C25.5067 29.9696 25.7456 29.9324 25.9903 29.8077C26.3196 29.6399 26.5873 29.3722 26.7551 29.0429C26.8797 28.7982 26.917 28.5594 26.9323 28.3725C26.9459 28.2058 26.9458 28.012 26.9458 27.8269L26.9458 6.67154C26.9458 6.61485 26.9458 6.55731 26.9454 6.50001H31.9999ZM24.7458 6.50001L11.2545 6.50001C11.1771 6.50001 11.1121 6.50002 11.055 6.50045C11.0546 6.5576 11.0545 6.62257 11.0545 6.70001L11.0545 27.7984C11.0545 27.8759 11.0546 27.9408 11.055 27.998C11.1121 27.9984 11.1771 27.9984 11.2545 27.9984H24.7458C24.8232 27.9984 24.8882 27.9984 24.9454 27.998C24.9458 27.9408 24.9458 27.8759 24.9458 27.7984L24.9458 6.70001C24.9458 6.62257 24.9458 6.5576 24.9454 6.50045C24.8882 6.50002 24.8232 6.50001 24.7458 6.50001ZM18 12.5643C19.7447 12.5643 21.162 13.9815 21.162 15.7334C21.162 17.4852 19.7447 18.9024 18 18.9024C16.2552 18.9024 14.838 17.4852 14.838 15.7334C14.838 13.9815 16.2552 12.5643 18 12.5643ZM23.162 15.7334C23.162 12.8802 20.8525 10.5643 18 10.5643C15.1475 10.5643 12.838 12.8802 12.838 15.7334C12.838 18.5866 15.1475 20.9024 18 20.9024C20.8525 20.9024 23.162 18.5866 23.162 15.7334ZM15.4881 24.4503C15.4881 23.898 15.9359 23.4503 16.4881 23.4503H19.515C20.0673 23.4503 20.515 23.898 20.515 24.4503C20.515 25.0026 20.0673 25.4503 19.515 25.4503H16.4881C15.9359 25.4503 15.4881 25.0026 15.4881 24.4503Z" fill="white"/>
</svg>
