<svg width="36" height="36" viewBox="0 0 36 36" fill="none" xmlns="http://www.w3.org/2000/svg">
<path fill-rule="evenodd" clip-rule="evenodd" d="M33.75 12.7267C33.75 12.5417 33.7501 12.3478 33.7365 12.1812C33.7212 11.9943 33.6839 11.7554 33.5593 11.5107C33.3915 11.1814 33.1238 10.9137 32.7945 10.7459C32.5498 10.6213 32.3109 10.584 32.124 10.5687C31.9574 10.5551 31.7635 10.5551 31.5785 10.5552L29.2107 10.5552L29.2107 8.17153C29.2107 7.98649 29.2108 7.79263 29.1971 7.62598C29.1819 7.43907 29.1446 7.20021 29.0199 6.95552C28.8522 6.62624 28.5844 6.35852 28.2552 6.19075C28.0105 6.06607 27.7716 6.02882 27.5847 6.01355C27.418 5.99993 27.2242 5.99997 27.0392 6L4.42154 6C4.23648 5.99997 4.04264 5.99993 3.87598 6.01355C3.68907 6.02882 3.45021 6.06607 3.20552 6.19075C2.87624 6.35852 2.60852 6.62624 2.44075 6.95552C2.31607 7.20021 2.27882 7.43907 2.26355 7.62598C2.24993 7.79264 2.24997 7.98649 2.25 8.17155V21.7713C2.24997 21.9564 2.24993 22.1502 2.26355 22.3169C2.27882 22.5038 2.31607 22.7427 2.44075 22.9874C2.60852 23.3167 2.87624 23.5844 3.20552 23.7521C3.45021 23.8768 3.68907 23.9141 3.87598 23.9293C4.04264 23.943 4.23649 23.9429 4.42155 23.9429L6.78934 23.9429L6.78934 26.3265C6.7893 26.5116 6.78926 26.7054 6.80288 26.8721C6.81815 27.059 6.85541 27.2979 6.98008 27.5425C7.14786 27.8718 7.41557 28.1395 7.74486 28.3073C7.98954 28.432 8.2284 28.4693 8.41531 28.4845C8.58197 28.4981 8.77582 28.4981 8.96087 28.4981H31.5785C31.7635 28.4981 31.9574 28.4981 32.124 28.4845C32.3109 28.4693 32.5498 28.432 32.7945 28.3073C33.1238 28.1395 33.3915 27.8718 33.5593 27.5425C33.6839 27.2979 33.7212 27.059 33.7365 26.8721C33.7501 26.7054 33.75 26.5116 33.75 26.3265V12.7267ZM8.78934 23.9429V26.2981C8.78934 26.3755 8.78936 26.4405 8.78979 26.4976C8.84694 26.4981 8.91191 26.4981 8.98934 26.4981H31.55C31.6274 26.4981 31.6924 26.4981 31.7496 26.4976C31.75 26.4405 31.75 26.3755 31.75 26.2981V12.7552C31.75 12.6778 31.75 12.6128 31.7496 12.5556C31.6924 12.5552 31.6274 12.5552 31.55 12.5552H29.2107L29.2107 21.7714C29.2107 21.9564 29.2108 22.1503 29.1971 22.3169C29.1819 22.5038 29.1446 22.7427 29.0199 22.9874C28.8522 23.3167 28.5844 23.5844 28.2552 23.7521C28.0105 23.8768 27.7716 23.9141 27.5847 23.9293C27.418 23.943 27.2242 23.9429 27.0391 23.9429L8.78934 23.9429ZM4.25045 21.9424C4.3076 21.9429 4.37257 21.9429 4.45001 21.9429H27.0107C27.0881 21.9429 27.1531 21.9429 27.2102 21.9424C27.2107 21.8853 27.2107 21.8203 27.2107 21.7429V8.20001C27.2107 8.12257 27.2107 8.0576 27.2102 8.00045C27.1531 8.00002 27.0881 8.00001 27.0107 8.00001H4.45001C4.37257 8.00001 4.3076 8.00002 4.25045 8.00045C4.25002 8.05761 4.25001 8.12257 4.25001 8.20001V21.7429C4.25001 21.8203 4.25002 21.8853 4.25045 21.9424ZM15.7304 11.7954C13.9886 11.7954 12.5703 13.2137 12.5703 14.9709C12.5703 16.7282 13.9886 18.1465 15.7304 18.1465C17.4722 18.1465 18.8905 16.7282 18.8905 14.9709C18.8905 13.2137 17.4722 11.7954 15.7304 11.7954ZM10.5703 14.9709C10.5703 12.1161 12.8771 9.79542 15.7304 9.79542C18.5838 9.79542 20.8905 12.1161 20.8905 14.9709C20.8905 17.8258 18.5838 20.1465 15.7304 20.1465C12.8771 20.1465 10.5703 17.8258 10.5703 14.9709Z" fill="white"/>
</svg>
