<svg width="36" height="36" viewBox="0 0 36 36" fill="none" xmlns="http://www.w3.org/2000/svg">
<path fill-rule="evenodd" clip-rule="evenodd" d="M17.8465 7.01468C17.5312 7.04654 17.1187 7.12379 16.4846 7.24392L6.64678 9.10773C6.19436 9.19344 5.90854 9.24824 5.69278 9.30597C5.48905 9.36048 5.41785 9.40054 5.38402 9.42371C5.24769 9.51708 5.14087 9.64582 5.07482 9.79502C5.0589 9.831 5.03288 9.90652 5.01725 10.1147C5.00065 10.3357 5 10.6245 5 11.0828V24.9173C5 25.3756 5.00065 25.6645 5.01725 25.8854C5.03288 26.0936 5.0589 26.1691 5.07482 26.2051C5.14087 26.3543 5.24769 26.483 5.38402 26.5764C5.41785 26.5996 5.48905 26.6396 5.69278 26.6941C5.90854 26.7519 6.19435 26.8067 6.64678 26.8924L16.4846 28.7562C17.1187 28.8763 17.5312 28.9536 17.8465 28.9854C18.153 29.0164 18.2583 28.9905 18.2986 28.9764C18.4988 28.906 18.6661 28.7677 18.7717 28.5875C18.8024 28.5352 18.8603 28.3959 18.8808 27.8656C18.8917 27.5816 18.8919 27.2358 18.8919 26.7811V9.21899C18.8919 8.76434 18.8917 8.41851 18.8808 8.13454C18.8603 7.60419 18.8024 7.46487 18.7717 7.41263C18.6661 7.23239 18.4988 7.09408 18.2986 7.02375C18.2583 7.00959 18.153 6.9837 17.8465 7.01468ZM17.6454 5.02481C18.0758 4.98131 18.5198 4.98166 18.9614 5.13678C19.6067 5.36344 20.1514 5.81115 20.4973 6.40147C20.5989 6.57479 20.673 6.7556 20.7274 6.94107L22.296 6.67991C22.8676 6.58473 23.3586 6.50297 23.7643 6.47084C24.1889 6.43722 24.6254 6.44682 25.058 6.60638C25.6914 6.84001 26.2236 7.28757 26.5611 7.87251C26.6471 8.02158 26.7128 8.17557 26.7633 8.33274L28.4393 8.09219C29.0011 8.01154 29.4844 7.94216 29.8837 7.9193C30.3022 7.89534 30.7312 7.91392 31.1547 8.07773C31.7759 8.31806 32.2957 8.76526 32.6249 9.3447C32.8496 9.74032 32.9297 10.1623 32.9657 10.5789C33 10.976 33 11.4623 33 12.0263V23.9738C33 24.5378 33 25.0241 32.9657 25.4212C32.9297 25.8378 32.8496 26.2598 32.6249 26.6554C32.2957 27.2348 31.7759 27.682 31.1547 27.9224C30.7312 28.0862 30.3022 28.1048 29.8837 28.0808C29.4844 28.0579 29.0011 27.9886 28.4393 27.9079L26.7633 27.6674C26.7128 27.8245 26.6471 27.9785 26.5611 28.1276C26.2236 28.7125 25.6914 29.1601 25.058 29.3937C24.6254 29.5533 24.1889 29.5629 23.7643 29.5293C23.3585 29.4971 22.8676 29.4154 22.2959 29.3202L20.7274 29.059C20.673 29.2445 20.5989 29.4253 20.4973 29.5986C20.1514 30.1889 19.6067 30.6367 18.9614 30.8633C18.5198 31.0184 18.0758 31.0188 17.6454 30.9753C17.2334 30.9337 16.7349 30.8392 16.1537 30.7291L6.2414 28.8512C5.83171 28.7736 5.47204 28.7054 5.17585 28.6262C4.85968 28.5416 4.54798 28.4279 4.25394 28.2265C3.81208 27.9239 3.46285 27.5045 3.24601 27.0147C3.10152 26.6883 3.04733 26.3609 3.02286 26.0352C2.99997 25.7303 2.99998 25.3656 3 24.9511V11.049C2.99998 10.6345 2.99997 10.2698 3.02286 9.96495C3.04733 9.63917 3.10152 9.31181 3.24601 8.98542C3.46285 8.4956 3.81208 8.07619 4.25394 7.77359C4.54798 7.57222 4.85968 7.45852 5.17585 7.37393C5.47206 7.29468 5.83176 7.22654 6.24149 7.14894L16.1537 5.27104C16.7349 5.1609 17.2334 5.06645 17.6454 5.02481ZM20.8918 27.0589L22.5834 27.3405C23.2075 27.4444 23.6127 27.511 23.9222 27.5355C24.2224 27.5593 24.3256 27.5322 24.3658 27.5173C24.5623 27.4448 24.7257 27.3066 24.8288 27.1281C24.8562 27.0805 24.9102 26.9533 24.9321 26.4905C24.9457 26.2021 24.9459 25.8442 24.9459 25.3575V10.6426C24.9459 10.1559 24.9457 9.79804 24.9321 9.50962C24.9102 9.04676 24.8562 8.91962 24.8288 8.87203C24.7257 8.69346 24.5623 8.55526 24.3658 8.48279C24.3256 8.46793 24.2224 8.44083 23.9222 8.4646C23.6127 8.4891 23.2075 8.55568 22.5834 8.65959L20.8918 8.94123C20.8919 9.02607 20.8919 9.1131 20.8919 9.20226V26.7978C20.8919 26.887 20.8919 26.974 20.8918 27.0589ZM26.9458 25.6731L28.6827 25.9224C29.2966 26.0105 29.6944 26.0667 29.998 26.0841C30.2918 26.1009 30.3929 26.0726 30.4331 26.0571C30.6258 25.9825 30.7853 25.8445 30.8858 25.6676C30.9058 25.6325 30.948 25.5393 30.9731 25.2488C30.9991 24.9484 31 24.5495 31 23.9323V12.0678C31 11.4506 30.9991 11.0517 30.9731 10.7513C30.948 10.4608 30.9058 10.3676 30.8858 10.3325C30.7853 10.1556 30.6258 10.0176 30.4331 9.94303C30.3929 9.9275 30.2918 9.89921 29.998 9.91603C29.6944 9.93341 29.2966 9.98963 28.6827 10.0777L26.9458 10.327C26.9459 10.4225 26.9459 10.5208 26.9459 10.6217V25.3784C26.9459 25.4793 26.9459 25.5776 26.9458 25.6731Z" fill="white"/>
</svg>
