<svg width="36" height="36" viewBox="0 0 36 36" fill="none" xmlns="http://www.w3.org/2000/svg">
<path d="M9.9575 6H26.0414C27.0554 5.99999 27.8771 5.99998 28.5433 6.05441C29.2305 6.11056 29.8398 6.22956 30.4053 6.51772C31.2991 6.97312 32.0258 7.69978 32.4812 8.59355C32.7693 9.1591 32.8883 9.76841 32.9445 10.4556C32.9989 11.1218 32.9989 11.9435 32.9989 12.9575V18.8995C32.391 18.3792 31.72 17.9306 30.9989 17.5667V13C30.9989 11.9334 30.9981 11.1936 30.9511 10.6184C30.9051 10.055 30.8197 9.73814 30.6991 9.50153C30.4355 8.98408 30.0148 8.56338 29.4974 8.29973C29.2607 8.17917 28.9439 8.09381 28.3804 8.04777C27.8053 8.00078 27.0655 8 25.9989 8H10C8.9334 8 8.19359 8.00078 7.61844 8.04777C7.05496 8.09381 6.73814 8.17917 6.50153 8.29973C5.98408 8.56338 5.56338 8.98408 5.29973 9.50153C5.17917 9.73814 5.09381 10.055 5.04777 10.6184C5.00078 11.1936 5 11.9334 5 13V22.9982C5 24.0648 5.00078 24.8046 5.04777 25.3798C5.09381 25.9433 5.17917 26.2601 5.29973 26.4967C5.56338 27.0142 5.98408 27.4349 6.50153 27.6985C6.73814 27.8191 7.05496 27.9044 7.61844 27.9505C8.19359 27.9975 8.9334 27.9982 10 27.9982H16.6115C16.7155 28.6907 16.8906 29.3599 17.129 29.9982H9.95747C8.94346 29.9983 8.12177 29.9983 7.45558 29.9438C6.76841 29.8877 6.1591 29.7687 5.59355 29.4805C4.69978 29.0251 3.97312 28.2985 3.51772 27.4047C3.22956 26.8391 3.11056 26.2298 3.05441 25.5427C2.99998 24.8765 2.99999 24.0548 3 23.0407V12.9575C2.99999 11.9435 2.99998 11.1218 3.05441 10.4556C3.11056 9.76842 3.22956 9.1591 3.51772 8.59355C3.97312 7.69978 4.69978 6.97312 5.59355 6.51772C6.1591 6.22956 6.76842 6.11056 7.45558 6.05441C8.12178 5.99998 8.94348 5.99999 9.9575 6Z" fill="white"/>
<path d="M7.91873 11.9306C7.91873 11.3783 8.36645 10.9306 8.91873 10.9306H20.2696C20.8219 10.9306 21.2696 11.3783 21.2696 11.9306C21.2696 12.4829 20.8219 12.9306 20.2696 12.9306H8.91873C8.36645 12.9306 7.91873 12.4829 7.91873 11.9306Z" fill="white"/>
<path d="M8.91873 15.482C8.36645 15.482 7.91873 15.9297 7.91873 16.482C7.91873 17.0342 8.36645 17.482 8.91873 17.482H20.2696C20.8219 17.482 21.2696 17.0342 21.2696 16.482C21.2696 15.9297 20.8219 15.482 20.2696 15.482H8.91873Z" fill="white"/>
<path d="M7.91873 21.0333C7.91873 20.481 8.36645 20.0333 8.91873 20.0333H14.2158C14.7681 20.0333 15.2158 20.481 15.2158 21.0333C15.2158 21.5856 14.7681 22.0333 14.2158 22.0333H8.91873C8.36645 22.0333 7.91873 21.5856 7.91873 21.0333Z" fill="white"/>
<path d="M26.3392 18.2177C26.4191 18.1094 26.5811 18.1094 26.661 18.2177L28.3326 20.4832C28.3834 20.552 28.4724 20.5809 28.554 20.5551L31.2379 19.7048C31.3662 19.6642 31.4973 19.7594 31.4983 19.894L31.519 22.7094C31.5196 22.7949 31.5746 22.8706 31.6558 22.8976L34.3269 23.7873C34.4547 23.8299 34.5047 23.9839 34.4264 24.0934L32.7884 26.3833C32.7386 26.4529 32.7386 26.5464 32.7884 26.616L34.4264 28.9058C34.5047 29.0153 34.4547 29.1694 34.3269 29.2119L31.6558 30.1016C31.5746 30.1287 31.5196 30.2043 31.519 30.2899L31.4983 33.1052C31.4973 33.2399 31.3662 33.3351 31.2379 33.2944L28.554 32.4441C28.4724 32.4183 28.3834 32.4472 28.3326 32.5161L26.661 34.7815C26.5811 34.8899 26.4191 34.8899 26.3392 34.7815L24.6676 32.5161C24.6168 32.4472 24.5278 32.4183 24.4463 32.4441L21.7623 33.2944C21.634 33.3351 21.5029 33.2399 21.5019 33.1052L21.4812 30.2899C21.4806 30.2043 21.4256 30.1287 21.3444 30.1016L18.6733 29.2119C18.5456 29.1694 18.4955 29.0153 18.5738 28.9058L20.2119 26.616C20.2617 26.5464 20.2617 26.4529 20.2119 26.3833L18.5738 24.0934C18.4955 23.9839 18.5456 23.8299 18.6733 23.7873L21.3444 22.8976C21.4256 22.8706 21.4806 22.7949 21.4812 22.7094L21.5019 19.894C21.5029 19.7594 21.634 19.6642 21.7623 19.7048L24.4463 20.5551C24.5278 20.5809 24.6168 20.552 24.6676 20.4832L26.3392 18.2177Z" fill="white"/>
</svg>
