<svg width="36" height="36" viewBox="0 0 36 36" fill="none" xmlns="http://www.w3.org/2000/svg">
<path fill-rule="evenodd" clip-rule="evenodd" d="M10.5 5.00962C12.2059 4.0247 14.0891 3.38544 16.0421 3.12833C17.9951 2.87121 19.9796 3.00128 21.8823 3.51111L20.2005 9.7876C19.4986 9.60001 18.761 9.5 18 9.5C16.4515 9.5 14.9997 9.91408 13.7493 10.6376L10.5 5.00962ZM18 11.5C18.5819 11.5 19.146 11.5765 19.6827 11.7199C20.2382 11.8684 20.7643 12.0885 21.2505 12.3699C22.7232 13.222 23.8305 14.6352 24.2801 16.3173C24.4235 16.854 24.5 17.4181 24.5 18C24.5 21.5899 21.5899 24.5 18 24.5C16.8158 24.5 15.7056 24.1833 14.7495 23.6301C14.2563 23.3447 13.8041 22.9965 13.4038 22.5962C12.2275 21.4199 11.5 19.7949 11.5 18C11.5 16.2051 12.2275 14.5801 13.4038 13.4038C13.8041 13.0035 14.2563 12.6553 14.7495 12.3699C15.7056 11.8167 16.8158 11.5 18 11.5ZM22.2507 10.6376C24.1765 11.7518 25.6245 13.5999 26.2124 15.7995L32.4889 14.1177C31.4592 10.275 28.9453 6.99874 25.5 5.00962L22.2507 10.6376ZM18 26.5C22.6944 26.5 26.5 22.6944 26.5 18H33C33 20.6331 32.3069 23.2197 30.9904 25.5C29.6739 27.7803 27.7803 29.6739 25.5 30.9904C23.2197 32.3069 20.633 33 18 33C15.3669 33 12.7803 32.3069 10.5 30.9904L13.7493 25.3624C14.9997 26.0859 16.4515 26.5 18 26.5ZM9.5 18C9.5 20.3472 10.4514 22.4722 11.9896 24.0104L7.3934 28.6066C6.00052 27.2137 4.89563 25.5601 4.14181 23.7403C3.38799 21.9204 3 19.9698 3 18C3 16.0302 3.38799 14.0796 4.14181 12.2597C4.89563 10.4399 6.00052 8.78628 7.3934 7.3934L11.9896 11.9896C10.4514 13.5278 9.5 15.6528 9.5 18Z" fill="white"/>
</svg>
