<svg width="36" height="36" viewBox="0 0 36 36" fill="none" xmlns="http://www.w3.org/2000/svg">
<path fill-rule="evenodd" clip-rule="evenodd" d="M11.4997 6.74159C13.4759 5.60066 15.7176 5 17.9994 5C18.5517 5 18.9994 4.55228 18.9994 4C18.9994 3.44772 18.5517 3 17.9994 3C15.3665 3 12.7799 3.69307 10.4997 5.00954C10.0214 5.28569 9.85755 5.89728 10.1337 6.37557C10.4098 6.85386 11.0214 7.01774 11.4997 6.74159ZM6.37557 10.1337C6.85386 10.4098 7.01774 11.0214 6.74159 11.4997C5.60066 13.4759 5 15.7176 5 17.9994C5 20.2813 5.60066 22.523 6.7416 24.4992C7.01774 24.9775 6.85386 25.589 6.37557 25.8652C5.89728 26.1413 5.28569 25.9775 5.00954 25.4992C3.69307 23.219 3 20.6324 3 17.9994C3 15.3665 3.69307 12.7799 5.00954 10.4997C5.28569 10.0214 5.89728 9.85755 6.37557 10.1337ZM31.9989 16.9994C32.5512 16.9994 32.9989 17.4472 32.9989 17.9994C32.9989 20.6324 32.3058 23.219 30.9893 25.4992C29.6729 27.7794 27.7794 29.6729 25.4992 30.9893C23.219 32.3058 20.6324 32.9989 17.9994 32.9989C15.3665 32.9989 12.7799 32.3058 10.4997 30.9893C10.0214 30.7132 9.85755 30.1016 10.1337 29.6233C10.4098 29.145 11.0214 28.9811 11.4997 29.2573C13.4759 30.3982 15.7176 30.9989 17.9994 30.9989C20.2813 30.9989 22.523 30.3982 24.4992 29.2573C26.4753 28.1163 28.1163 26.4753 29.2573 24.4992C30.3982 22.523 30.9989 20.2813 30.9989 17.9994C30.9989 17.4472 31.4466 16.9994 31.9989 16.9994ZM24.1331 5.37557C24.4093 4.89728 25.0209 4.7334 25.4992 5.00954C27.7794 6.32602 29.6729 8.21951 30.9893 10.4997C31.2655 10.978 31.1016 11.5896 30.6233 11.8657C30.145 12.1419 29.5334 11.978 29.2573 11.4997C28.1163 9.52355 26.4753 7.88253 24.4992 6.74159C24.0209 6.46545 23.857 5.85386 24.1331 5.37557ZM11.4326 17.9999C11.4326 14.3729 14.3729 11.4326 17.9999 11.4326C21.6269 11.4326 24.5671 14.3729 24.5671 17.9999C24.5671 21.6269 21.6269 24.5671 17.9999 24.5671C14.3729 24.5671 11.4326 21.6269 11.4326 17.9999ZM17.9999 9.43262C13.2683 9.43262 9.43262 13.2683 9.43262 17.9999C9.43262 22.7315 13.2683 26.5671 17.9999 26.5671C22.7315 26.5671 26.5671 22.7315 26.5671 17.9999C26.5671 13.2683 22.7315 9.43262 17.9999 9.43262Z" fill="white"/>
</svg>
