<svg width="36" height="36" viewBox="0 0 36 36" fill="none" xmlns="http://www.w3.org/2000/svg">
<path d="M26.5393 10.8184C29.6879 12.6932 31.7971 16.131 31.7971 20.0615C31.7971 21.0581 31.6613 22.0244 31.4065 22.9424C31.1456 23.8822 31.0537 24.7568 31.2581 25.5332L32.0237 28.4414C32.4378 30.0152 31.0018 31.4513 29.428 31.0371L26.5188 30.2725C25.7424 30.0682 24.8687 30.16 23.929 30.4209C23.0108 30.6758 22.0438 30.8115 21.0471 30.8115C18.6393 30.8114 16.4162 30.0198 14.6243 28.6826C15.7348 28.6555 16.8115 28.4897 17.8372 28.2031C18.8311 28.5953 19.9139 28.8115 21.0471 28.8115C21.8613 28.8115 22.6482 28.7001 23.3938 28.4932C24.4894 28.189 25.7622 28.0046 27.0286 28.3379L29.9368 29.1035C30.0293 29.1279 30.1145 29.0428 30.0901 28.9502L29.3245 26.042C28.9912 24.7756 29.1756 23.5028 29.4797 22.4072C29.6866 21.6618 29.7971 20.8754 29.7971 20.0615C29.7971 17.6924 28.8557 15.5433 27.3264 13.9678C27.1936 12.8706 26.9257 11.8149 26.5393 10.8184Z" fill="white"/>
<path d="M14.5002 5C20.4372 5.00011 25.2502 9.81301 25.2502 15.75C25.2502 21.687 20.4372 26.4999 14.5002 26.5C13.5035 26.5 12.5366 26.3643 11.6184 26.1094C10.6787 25.8485 9.80492 25.7566 9.02857 25.9609L6.11939 26.7266C4.54583 27.1404 3.10991 25.7044 3.52368 24.1309L4.28931 21.2217C4.4936 20.4454 4.40169 19.5715 4.14087 18.6318C3.88598 17.7137 3.75025 16.7467 3.75025 15.75C3.75025 9.81294 8.56318 5 14.5002 5Z" fill="white"/>
</svg>
