<svg width="36" height="36" viewBox="0 0 36 36" fill="none" xmlns="http://www.w3.org/2000/svg">
<path fill-rule="evenodd" clip-rule="evenodd" d="M17.837 28.2034C16.8114 28.49 15.7351 28.6551 14.6246 28.6822C16.4166 30.0195 18.6396 30.8112 21.0476 30.8112C22.0443 30.8112 23.0108 30.6753 23.929 30.4204C24.8688 30.1595 25.7427 30.0677 26.5191 30.272L29.428 31.0375C31.0018 31.4517 32.438 30.0155 32.0238 28.4417L31.2583 25.5328C31.054 24.7564 31.1459 23.8825 31.4068 22.9427C31.6617 22.0245 31.7976 21.0579 31.7976 20.0612C31.7976 16.1306 29.688 12.6926 26.5392 10.8179C26.9257 11.8145 27.1939 12.8701 27.3268 13.9675C28.856 15.543 29.7976 17.6921 29.7976 20.0612C29.7976 20.8754 29.6866 21.6621 29.4796 22.4077C29.1755 23.5033 28.9909 24.7754 29.3242 26.0418L30.0897 28.9507C30.114 29.0432 30.0296 29.1277 29.937 29.1033L27.0281 28.3379C25.7617 28.0046 24.4896 28.1892 23.394 28.4933C22.6484 28.7003 21.8618 28.8112 21.0476 28.8112C19.9141 28.8112 18.831 28.5957 17.837 28.2034Z" fill="white"/>
<path d="M14.5001 25.5C19.8848 25.5 24.2501 21.1348 24.2501 15.75C24.2501 10.3652 19.8848 6 14.5001 6C9.11528 6 4.75006 10.3652 4.75006 15.75C4.75006 16.6554 4.87348 17.5321 5.10442 18.364C5.38695 19.3816 5.52515 20.4546 5.25636 21.4761L4.49087 24.3849C4.27161 25.2181 5.03194 25.9785 5.86513 25.7592L8.77401 24.9937C9.79541 24.7249 10.8684 24.8631 11.8861 25.1456C12.718 25.3766 13.5946 25.5 14.5001 25.5Z" fill="white"/>
<path fill-rule="evenodd" clip-rule="evenodd" d="M14.5001 7C9.66757 7 5.75006 10.9175 5.75006 15.75C5.75006 16.5642 5.86099 17.3509 6.06798 18.0965C6.37213 19.1921 6.5567 20.4641 6.22344 21.7305L5.45794 24.6394C5.43358 24.732 5.51806 24.8165 5.61064 24.7921L8.51951 24.0266C9.78592 23.6934 11.058 23.8779 12.1536 24.1821C12.8992 24.3891 13.6859 24.5 14.5001 24.5C19.3326 24.5 23.2501 20.5825 23.2501 15.75C23.2501 10.9175 19.3326 7 14.5001 7ZM3.75006 15.75C3.75006 9.81294 8.563 5 14.5001 5C20.4371 5 25.2501 9.81294 25.2501 15.75C25.2501 21.6871 20.4371 26.5 14.5001 26.5C13.5034 26.5 12.5368 26.3641 11.6186 26.1092C10.6788 25.8483 9.8049 25.7565 9.0285 25.9608L6.11963 26.7263C4.54583 27.1404 3.10964 25.7042 3.52379 24.1304L4.28929 21.2216C4.4936 20.4452 4.40176 19.5712 4.14086 18.6314C3.88597 17.7133 3.75006 16.7467 3.75006 15.75Z" fill="white"/>
</svg>
