<svg width="36" height="36" viewBox="0 0 36 36" fill="none" xmlns="http://www.w3.org/2000/svg">
<path fill-rule="evenodd" clip-rule="evenodd" d="M14.6056 6.5C9.73732 6.5 5.80046 10.4228 5.80046 15.25C5.80046 16.0612 5.91126 16.845 6.11808 17.5882C6.42432 18.6886 6.61095 19.9675 6.27417 21.2401L5.50634 24.1414C5.48185 24.234 5.56622 24.3186 5.65883 24.2943L8.61112 23.5218C9.87134 23.192 11.1367 23.3742 12.2281 23.6776C12.9832 23.8875 13.7804 24 14.6056 24C19.4739 24 23.4107 20.0772 23.4107 15.25C23.4107 10.4228 19.4739 6.5 14.6056 6.5ZM3.80046 15.25C3.80046 9.30763 8.6434 4.5 14.6056 4.5C20.5678 4.5 25.4107 9.30763 25.4107 15.25C25.4107 21.1924 20.5678 26 14.6056 26C13.5977 26 12.6204 25.8624 11.6925 25.6045C10.7593 25.3451 9.89013 25.2544 9.11742 25.4566L6.16513 26.2292C4.59076 26.6412 3.15655 25.203 3.5729 23.6298L4.34073 20.7284C4.54719 19.9483 4.45434 19.0696 4.1913 18.1244C3.93637 17.2084 3.80046 16.2442 3.80046 15.25ZM18.1637 27.8927C17.1337 28.1787 16.053 28.3435 14.9379 28.3709C16.7398 29.7085 18.9747 30.5 21.3938 30.5C22.4017 30.5 23.3789 30.3624 24.3068 30.1045C25.2401 29.8451 26.1093 29.7544 26.882 29.9566L29.8342 30.7292C31.4086 31.1412 32.8428 29.703 32.4265 28.1298L31.6587 25.2284C31.4522 24.4483 31.545 23.5696 31.8081 22.6244C32.063 21.7084 32.1989 20.7442 32.1989 19.75C32.1989 15.8185 30.0791 12.3837 26.9178 10.5093C27.3053 11.5038 27.5745 12.557 27.7082 13.6518C29.2502 15.2285 30.1989 17.3803 30.1989 19.75C30.1989 20.5612 30.0881 21.345 29.8813 22.0882C29.5751 23.1886 29.3884 24.4675 29.7252 25.7401L30.493 28.6414C30.5175 28.734 30.4332 28.8186 30.3406 28.7943L27.3883 28.0218C26.128 27.692 24.8626 27.8742 23.7713 28.1776C23.0162 28.3875 22.219 28.5 21.3938 28.5C20.2531 28.5 19.1635 28.2846 18.1637 27.8927ZM17.9998 12.625C17.9998 14.489 16.4802 16 14.6057 16C12.7312 16 11.2116 14.489 11.2116 12.625C11.2116 10.761 12.7312 9.25 14.6057 9.25C16.4802 9.25 17.9998 10.761 17.9998 12.625ZM20.3044 18.9195C19.0945 20.7736 16.9943 22 14.606 22C12.2177 22 10.1174 20.7735 8.90747 18.9194C10.6046 18.0137 12.5449 17.5 14.6058 17.5C16.6668 17.5 18.6072 18.0138 20.3044 18.9195Z" fill="white"/>
</svg>
