<svg width="36" height="36" viewBox="0 0 36 36" fill="none" xmlns="http://www.w3.org/2000/svg">
<path fill-rule="evenodd" clip-rule="evenodd" d="M17.9843 4.9375C25.191 4.9375 31.0331 10.7796 31.0331 17.9863C31.0331 25.1929 25.191 31.035 17.9843 31.035C10.7777 31.035 4.93555 25.1929 4.93555 17.9863C4.93555 10.7796 10.7777 4.9375 17.9843 4.9375ZM33.0331 17.9863C33.0331 9.67507 26.2955 2.9375 17.9843 2.9375C9.67311 2.9375 2.93555 9.67507 2.93555 17.9863C2.93555 26.2975 9.67311 33.035 17.9843 33.035C26.2955 33.035 33.0331 26.2975 33.0331 17.9863ZM21.5006 11.2011C21.8911 10.8105 21.8911 10.1774 21.5006 9.78684C21.11 9.39632 20.4769 9.39632 20.0864 9.78684L12.5933 17.2799C12.2028 17.6704 12.2028 18.3036 12.5933 18.6941L20.0864 26.1872C20.4769 26.5777 21.11 26.5777 21.5006 26.1872C21.8911 25.7967 21.8911 25.1635 21.5006 24.773L14.7146 17.987L21.5006 11.2011Z" fill="white"/>
</svg>
