<svg width="36" height="36" viewBox="0 0 36 36" fill="none" xmlns="http://www.w3.org/2000/svg">
<path fill-rule="evenodd" clip-rule="evenodd" d="M17.9843 31.035C10.7777 31.035 4.93555 25.1929 4.93555 17.9863C4.93555 10.7796 10.7777 4.9375 17.9843 4.9375C25.191 4.9375 31.0331 10.7796 31.0331 17.9863C31.0331 25.1929 25.191 31.035 17.9843 31.035ZM2.93555 17.9863C2.93555 26.2975 9.67311 33.035 17.9843 33.035C26.2955 33.035 33.0331 26.2975 33.0331 17.9863C33.0331 9.67507 26.2955 2.9375 17.9843 2.9375C9.67311 2.9375 2.93555 9.67507 2.93555 17.9863ZM14.4681 24.7715C14.0775 25.162 14.0775 25.7952 14.4681 26.1857C14.8586 26.5762 15.4918 26.5762 15.8823 26.1857L23.3754 18.6926C23.7659 18.3021 23.7659 17.6689 23.3754 17.2784L15.8823 9.78534C15.4918 9.39482 14.8586 9.39482 14.4681 9.78534C14.0775 10.1759 14.0775 10.809 14.4681 11.1996L21.254 17.9855L14.4681 24.7715Z" fill="white"/>
</svg>
