<svg width="36" height="36" viewBox="0 0 36 36" fill="none" xmlns="http://www.w3.org/2000/svg">
<path fill-rule="evenodd" clip-rule="evenodd" d="M31.0331 17.9863C31.0331 25.1929 25.191 31.035 17.9843 31.035C10.7777 31.035 4.93555 25.1929 4.93555 17.9863C4.93555 10.7796 10.7777 4.9375 17.9843 4.9375C25.191 4.9375 31.0331 10.7796 31.0331 17.9863ZM17.9843 33.035C26.2955 33.035 33.0331 26.2975 33.0331 17.9863C33.0331 9.67507 26.2955 2.9375 17.9843 2.9375C9.67311 2.9375 2.93555 9.67507 2.93555 17.9863C2.93555 26.2975 9.67311 33.035 17.9843 33.035ZM24.7695 21.5025C25.1601 21.8931 25.7932 21.8931 26.1838 21.5025C26.5743 21.112 26.5743 20.4788 26.1838 20.0883L18.6907 12.5952C18.3002 12.2047 17.667 12.2047 17.2765 12.5952L9.78339 20.0883C9.39286 20.4788 9.39286 21.112 9.78339 21.5025C10.1739 21.8931 10.8071 21.8931 11.1976 21.5025L17.9836 14.7166L24.7695 21.5025Z" fill="white"/>
</svg>
