<svg width="36" height="36" viewBox="0 0 36 36" fill="none" xmlns="http://www.w3.org/2000/svg">
<path d="M7.125 4.5C5.67525 4.5 4.5 5.67525 4.5 7.125V13.875C4.5 15.3247 5.67525 16.5 7.125 16.5H13.875C15.3247 16.5 16.5 15.3247 16.5 13.875V7.125C16.5 5.67525 15.3247 4.5 13.875 4.5H7.125Z" fill="white"/>
<path fill-rule="evenodd" clip-rule="evenodd" d="M22.125 4.5C20.6753 4.5 19.5 5.67525 19.5 7.125V13.875C19.5 15.3247 20.6753 16.5 22.125 16.5H28.875C30.3247 16.5 31.5 15.3247 31.5 13.875V7.125C31.5 5.67525 30.3247 4.5 28.875 4.5H22.125ZM21.75 7.125C21.75 6.91789 21.9179 6.75 22.125 6.75H28.875C29.0821 6.75 29.25 6.91789 29.25 7.125V13.875C29.25 14.0821 29.0821 14.25 28.875 14.25H22.125C21.9179 14.25 21.75 14.0821 21.75 13.875V7.125Z" fill="white"/>
<path fill-rule="evenodd" clip-rule="evenodd" d="M19.5 22.125C19.5 20.6753 20.6753 19.5 22.125 19.5H28.875C30.3247 19.5 31.5 20.6753 31.5 22.125V28.875C31.5 30.3247 30.3247 31.5 28.875 31.5H22.125C20.6753 31.5 19.5 30.3247 19.5 28.875V22.125ZM22.125 21.75C21.9179 21.75 21.75 21.9179 21.75 22.125V28.875C21.75 29.0821 21.9179 29.25 22.125 29.25H28.875C29.0821 29.25 29.25 29.0821 29.25 28.875V22.125C29.25 21.9179 29.0821 21.75 28.875 21.75H22.125Z" fill="white"/>
<path fill-rule="evenodd" clip-rule="evenodd" d="M7.125 19.5C5.67525 19.5 4.5 20.6753 4.5 22.125V28.875C4.5 30.3247 5.67525 31.5 7.125 31.5H13.875C15.3247 31.5 16.5 30.3247 16.5 28.875V22.125C16.5 20.6753 15.3247 19.5 13.875 19.5H7.125ZM6.75 22.125C6.75 21.9179 6.91789 21.75 7.125 21.75H13.875C14.0821 21.75 14.25 21.9179 14.25 22.125V28.875C14.25 29.0821 14.0821 29.25 13.875 29.25H7.125C6.91789 29.25 6.75 29.0821 6.75 28.875V22.125Z" fill="white"/>
</svg>
