<svg width="36" height="36" viewBox="0 0 36 36" fill="none" xmlns="http://www.w3.org/2000/svg">
<path fill-rule="evenodd" clip-rule="evenodd" d="M15.7243 7.36115C19.1902 3.89524 24.8096 3.89524 28.2755 7.36115C31.7414 10.827 31.7414 16.4464 28.2755 19.9123L17.7167 30.4711C15.9653 32.2225 13.212 32.4707 11.1756 31.0609C8.54659 29.2408 8.20785 25.4842 10.4688 23.2232L21.0276 12.6644C21.4181 12.2739 22.0513 12.2739 22.4418 12.6644C22.8324 13.055 22.8324 13.6881 22.4418 14.0787L11.883 24.6374C10.5044 26.0161 10.7109 28.3067 12.314 29.4165C13.5557 30.2762 15.2345 30.1248 16.3025 29.0569L26.8612 18.4981C29.5461 15.8132 29.5461 11.4602 26.8612 8.77536C24.1764 6.09051 19.8234 6.0905 17.1385 8.77536L5.47127 20.4426C5.08074 20.8331 4.44758 20.8331 4.05705 20.4426C3.66653 20.0521 3.66653 19.4189 4.05705 19.0284L15.7243 7.36115Z" fill="white"/>
</svg>
