<svg width="36" height="36" viewBox="0 0 36 36" fill="none" xmlns="http://www.w3.org/2000/svg">
<path fill-rule="evenodd" clip-rule="evenodd" d="M5 17.9994C5 10.82 10.82 5 17.9994 5C25.1788 5 30.9989 10.82 30.9989 17.9994C30.9989 25.1788 25.1788 30.9989 17.9994 30.9989C10.82 30.9989 5 25.1788 5 17.9994ZM17.9994 3C9.71548 3 3 9.71548 3 17.9994C3 26.2834 9.71548 32.9989 17.9994 32.9989C26.2834 32.9989 32.9989 26.2834 32.9989 17.9994C32.9989 9.71548 26.2834 3 17.9994 3ZM19 11.1886C19 10.6363 18.5523 10.1886 18 10.1886C17.4477 10.1886 17 10.6363 17 11.1886V18.7559C17 19.0902 17.1671 19.4024 17.4453 19.5879L21.9857 22.6148C22.4452 22.9212 23.0661 22.797 23.3724 22.3375C23.6788 21.8779 23.5546 21.2571 23.0951 20.9507L19 18.2207V11.1886Z" fill="white"/>
</svg>
