<svg width="36" height="36" viewBox="0 0 36 36" fill="none" xmlns="http://www.w3.org/2000/svg">
<path fill-rule="evenodd" clip-rule="evenodd" d="M6 7.5H13.5C15.15 7.5 16.5 8.84 16.5 10.5V25.5C16.5 27.15 15.15 28.5 13.5 28.5H6C4.34 28.5 3 27.15 3 25.5V10.5C3 8.84 4.34 7.5 6 7.5ZM22.5 7.5H30C31.65 7.5 33 8.84 33 10.5V25.5C33 27.15 31.65 28.5 30 28.5H22.5C20.84 28.5 19.5 27.15 19.5 25.5V10.5C19.5 8.84 20.84 7.5 22.5 7.5ZM13.32 17.17L8.09 12.27C7.37 11.6 6.19 12.11 6.19 13.09V22.9C6.19 23.88 7.37 24.39 8.09 23.72L13.32 18.82C13.79 18.37 13.79 17.62 13.32 17.17ZM22.67 17.17L27.9 12.27C28.62 11.6 29.8 12.11 29.8 13.09V22.9C29.8 23.88 28.62 24.39 27.9 23.72L22.67 18.82C22.2 18.37 22.2 17.62 22.67 17.17Z" fill="white"/>
</svg>
