<svg width="36" height="36" viewBox="0 0 36 36" fill="none" xmlns="http://www.w3.org/2000/svg">
<path fill-rule="evenodd" clip-rule="evenodd" d="M5 17.9994C5 10.82 10.82 5 17.9994 5C25.1788 5 30.9989 10.82 30.9989 17.9994C30.9989 25.1788 25.1788 30.9989 17.9994 30.9989C10.82 30.9989 5 25.1788 5 17.9994ZM17.9994 3C9.71548 3 3 9.71548 3 17.9994C3 26.2834 9.71548 32.9989 17.9994 32.9989C26.2834 32.9989 32.9989 26.2834 32.9989 17.9994C32.9989 9.71548 26.2834 3 17.9994 3ZM12.6524 11.2388C12.2619 10.8482 11.6287 10.8482 11.2382 11.2388C10.8477 11.6293 10.8477 12.2624 11.2382 12.653L16.5849 17.9997L11.2382 23.3464C10.8477 23.7369 10.8477 24.3701 11.2382 24.7606C11.6287 25.1511 12.2619 25.1511 12.6524 24.7606L17.9991 19.4139L23.3458 24.7606C23.7364 25.1511 24.3695 25.1511 24.76 24.7606C25.1506 24.3701 25.1506 23.7369 24.76 23.3464L19.4133 17.9997L24.76 12.653C25.1506 12.2624 25.1506 11.6293 24.76 11.2388C24.3695 10.8482 23.7364 10.8482 23.3458 11.2388L17.9991 16.5855L12.6524 11.2388Z" fill="white"/>
</svg>
