<svg width="36" height="36" viewBox="0 0 36 36" fill="none" xmlns="http://www.w3.org/2000/svg">
<path fill-rule="evenodd" clip-rule="evenodd" d="M9.375 4.5C6.68261 4.5 4.5 6.68261 4.5 9.375V26.625C4.5 29.3174 6.68261 31.5 9.375 31.5H26.625C29.3174 31.5 31.5 29.3174 31.5 26.625V9.375C31.5 6.68261 29.3174 4.5 26.625 4.5H9.375ZM25.1595 10.8411C25.5988 11.2804 25.5988 11.9927 25.1595 12.4321L19.591 18.0006L25.1595 23.569C25.5988 24.0084 25.5988 24.7207 25.1595 25.16C24.7201 25.5993 24.0078 25.5993 23.5685 25.16L18 19.5915L12.4315 25.16C11.9922 25.5993 11.2799 25.5993 10.8405 25.16C10.4012 24.7207 10.4012 24.0084 10.8405 23.569L16.409 18.0006L10.8405 12.4321C10.4012 11.9927 10.4012 11.2804 10.8405 10.8411C11.2799 10.4018 11.9922 10.4018 12.4315 10.8411L18 16.4096L23.5685 10.8411C24.0078 10.4018 24.7201 10.4018 25.1595 10.8411Z" fill="white"/>
</svg>
