<svg width="36" height="36" viewBox="0 0 36 36" fill="none" xmlns="http://www.w3.org/2000/svg">
<path fill-rule="evenodd" clip-rule="evenodd" d="M8.29289 8.29289C8.68342 7.90237 9.31658 7.90237 9.70711 8.29289L18 16.5858L26.2929 8.29289C26.6834 7.90237 27.3166 7.90237 27.7071 8.29289C28.0976 8.68342 28.0976 9.31658 27.7071 9.70711L19.4142 18L27.7071 26.2929C28.0976 26.6834 28.0976 27.3166 27.7071 27.7071C27.3166 28.0976 26.6834 28.0976 26.2929 27.7071L18 19.4142L9.70711 27.7071C9.31658 28.0976 8.68342 28.0976 8.29289 27.7071C7.90237 27.3166 7.90237 26.6834 8.29289 26.2929L16.5858 18L8.29289 9.70711C7.90237 9.31658 7.90237 8.68342 8.29289 8.29289Z" fill="white"/>
</svg>
