<svg width="36" height="36" viewBox="0 0 36 36" fill="none" xmlns="http://www.w3.org/2000/svg">
<path d="M29.749 4.29287C30.1396 3.90239 30.7726 3.90236 31.1631 4.29287C31.5534 4.6834 31.5535 5.31646 31.1631 5.70694L5.70703 31.163C5.31655 31.5533 4.68345 31.5533 4.29297 31.163C3.9025 30.7725 3.90261 30.1395 4.29297 29.7489L6.06934 27.9716C4.19265 26.3895 3.00004 24.0216 3 21.3749C3 17.3491 5.75735 13.9693 9.48633 13.0175C10.7981 8.94627 14.6161 5.9999 19.125 5.9999C21.6132 5.9999 23.8915 6.89766 25.6543 8.38662L29.749 4.29287Z" fill="white"/>
<path d="M28.1328 11.497C28.8469 12.884 29.25 14.4574 29.25 16.1249C29.25 16.4793 29.232 16.8301 29.1963 17.1757C31.447 18.2694 33 20.5771 33 23.2499C32.9999 26.9778 29.9779 29.9999 26.25 29.9999H11.625C11.0057 29.9999 10.4016 29.9345 9.81934 29.8105L28.1328 11.497Z" fill="white"/>
</svg>
