<svg width="36" height="36" viewBox="0 0 36 36" fill="none" xmlns="http://www.w3.org/2000/svg">
<path fill-rule="evenodd" clip-rule="evenodd" d="M3 17.8105C3 13.998 5.75712 10.7972 9.4861 9.89578L9.49157 9.87976C9.55106 9.87478 9.61095 9.86439 9.67063 9.84823C11.2258 9.42731 12.8642 9.43548 14.4151 9.87191C15.9661 10.3083 17.3727 11.157 18.4884 12.3295C18.8692 12.7296 19.5021 12.7453 19.9022 12.3646C20.3023 11.9839 20.318 11.3509 19.9373 10.9508C18.575 9.51921 16.8555 8.48093 14.9569 7.94668C13.544 7.54911 12.0717 7.44183 10.6262 7.62529C12.4307 4.99209 15.5622 3.25 19.125 3.25C24.7169 3.25 29.25 7.54296 29.25 12.8386C29.25 13.1743 29.2317 13.5062 29.1961 13.8334C31.447 14.8692 33 17.0548 33 19.5861C33 23.1166 29.9779 25.9785 26.25 25.9785H19V31.7475L17 31.7482V25.9785H11.625C6.86154 25.9785 3 22.3216 3 17.8105ZM17 25.9785H19V20.5915L21.7893 23.4091C22.1779 23.8016 22.811 23.8048 23.2035 23.4163C23.596 23.0277 23.5992 22.3946 23.2107 22.0021L18.7107 17.4564C18.5229 17.2667 18.267 17.1599 18 17.1599C17.733 17.1599 17.4771 17.2667 17.2893 17.4564L12.7893 22.0021C12.4008 22.3946 12.404 23.0277 12.7965 23.4163C13.189 23.8048 13.8221 23.8016 14.2107 23.4091L17 20.5915V25.9785ZM19 31.7475C19 32.2997 18.5523 32.7483 18 32.7483C17.4477 32.7483 17 32.3005 17 31.7482L19 31.7475Z" fill="white"/>
</svg>
