<svg width="36" height="36" viewBox="0 0 36 36" fill="none" xmlns="http://www.w3.org/2000/svg">
<path fill-rule="evenodd" clip-rule="evenodd" d="M3 18.5746C3 14.5111 5.76486 11.0889 9.51203 10.1551C10.7912 6.01645 14.6078 3 19.1345 3C24.7147 3 29.2152 7.5818 29.2152 13.205C29.2152 13.5996 29.1931 13.9893 29.1499 14.3729C31.428 15.4513 32.9989 17.7896 32.9989 20.4923C32.9989 23.9065 30.4904 26.7433 27.214 27.1858C26.6667 27.2597 26.1631 26.8759 26.0892 26.3286C26.0152 25.7813 26.399 25.2777 26.9463 25.2038C29.2233 24.8962 30.9989 22.9127 30.9989 20.4923C30.9989 18.3613 29.6212 16.5659 27.7351 15.9594C27.2526 15.8043 26.9625 15.3126 27.0599 14.8152C27.1617 14.2954 27.2152 13.757 27.2152 13.205C27.2152 8.66065 23.5846 5 19.1345 5C15.8351 5 12.9863 7.01132 11.7334 9.90536C14.0682 9.95035 16.1736 10.9416 17.6902 12.5098C18.0742 12.9068 18.0636 13.5399 17.6666 13.9239C17.2695 14.3078 16.6365 14.2972 16.2525 13.9002C15.0582 12.6652 13.4 11.9038 11.5673 11.9038C11.1964 11.9038 10.8334 11.9349 10.4806 11.9945C7.3806 12.5183 5 15.2572 5 18.5746C5 21.4442 6.78222 23.8839 9.27295 24.8273C9.78943 25.023 10.0495 25.6003 9.85388 26.1167C9.65824 26.6332 9.08096 26.8933 8.56449 26.6976C5.30914 25.4645 3 22.289 3 18.5746ZM18.7115 32.7012C18.5236 32.8917 18.2672 32.9989 17.9996 32.9989C17.732 32.9989 17.4756 32.8917 17.2877 32.7012L12.7473 28.0987C12.3595 27.7055 12.3638 27.0724 12.7569 26.6845C13.1501 26.2967 13.7833 26.301 14.1711 26.6941L16.9996 29.5613V18.9585C16.9996 18.4062 17.4473 17.9585 17.9996 17.9585C18.5519 17.9585 18.9996 18.4062 18.9996 18.9585V29.5613L21.828 26.6941C22.2159 26.301 22.8491 26.2967 23.2422 26.6845C23.6354 27.0724 23.6397 27.7055 23.2518 28.0987L18.7115 32.7012Z" fill="white"/>
</svg>
