<svg width="36" height="36" viewBox="0 0 36 36" fill="none" xmlns="http://www.w3.org/2000/svg">
<path fill-rule="evenodd" clip-rule="evenodd" d="M17.0517 6.21595C13.4731 6.96944 10.5952 9.62488 9.51478 13.0758C5.7728 13.9983 3 17.3819 3 21.4138C3 26.1535 6.83351 30 11.5676 30H26.3243C30.0135 30 33 27.0026 33 23.3103C33 21.4051 32.2053 19.6861 30.9298 18.4678C30.2244 18.8169 29.4718 19.0853 28.6843 19.2607C30.0695 20.0747 31 21.5838 31 23.3103C31 25.9027 28.9043 28 26.3243 28H11.5676C7.94272 28 5 25.0536 5 21.4138C5 18.147 7.37184 15.4366 10.479 14.9175C10.8325 14.8584 11.196 14.8276 11.5676 14.8276C15.1924 14.8276 18.1351 17.774 18.1351 21.4138C18.1351 21.9661 18.5829 22.4138 19.1351 22.4138C19.6874 22.4138 20.1351 21.9661 20.1351 21.4138C20.1351 16.7319 16.3946 12.9216 11.7405 12.8293C12.6526 10.7608 14.4026 9.14783 16.5575 8.42105C16.6395 7.65697 16.8075 6.91864 17.0517 6.21595Z" fill="white"/>
<path fill-rule="evenodd" clip-rule="evenodd" d="M26.5 18C31.1944 18 35 14.1944 35 9.5C35 4.80558 31.1944 1 26.5 1C21.8056 1 18 4.80558 18 9.5C18 14.1944 21.8056 18 26.5 18ZM23.7521 5.69127C23.4592 5.39837 22.9843 5.39837 22.6914 5.69127C22.3985 5.98416 22.3985 6.45903 22.6914 6.75193L25.4395 9.5L22.6914 12.2481C22.3985 12.541 22.3985 13.0158 22.6914 13.3087C22.9843 13.6016 23.4592 13.6016 23.7521 13.3087L26.5002 10.5607L29.2482 13.3087C29.5411 13.6016 30.016 13.6016 30.3089 13.3087C30.6018 13.0158 30.6018 12.541 30.3089 12.2481L27.5608 9.5L30.3089 6.75193C30.6018 6.45903 30.6018 5.98416 30.3089 5.69127C30.016 5.39837 29.5411 5.39837 29.2482 5.69127L26.5002 8.43934L23.7521 5.69127Z" fill="white"/>
</svg>
