<svg width="36" height="36" viewBox="0 0 36 36" fill="none" xmlns="http://www.w3.org/2000/svg">
<path fill-rule="evenodd" clip-rule="evenodd" d="M30.9854 18.44C32.2287 19.6639 33 21.3663 33 23.25C33 26.9779 29.9779 30 26.25 30H11.625C6.86154 30 3 26.1385 3 21.375C3 17.4046 5.68184 14.0624 9.33287 13.0582C9.35281 13.0541 9.37276 13.0494 9.39269 13.0441C10.5352 12.7379 11.7285 12.6701 12.8984 12.8447C14.0682 13.0193 15.1897 13.4327 16.193 14.0592C17.1963 14.6856 18.06 15.5117 18.7305 16.4862C19.401 17.4606 19.8639 18.5626 20.0904 19.7235C20.1961 20.2656 20.7213 20.6193 21.2634 20.5135C21.8054 20.4077 22.1591 19.8826 22.0534 19.3405C21.9868 18.9996 21.9038 18.6629 21.8047 18.3314C23.2047 19.0773 24.803 19.5 26.5 19.5C28.1128 19.5 29.6364 19.1182 30.9854 18.44ZM17.0531 6.21214C14.2911 6.78642 11.9423 8.48587 10.5064 10.8092C11.3987 10.7148 12.3017 10.7335 13.1936 10.8666C14.4793 11.0585 15.7176 11.4846 16.8473 12.1222C16.6208 11.2865 16.5 10.4074 16.5 9.5C16.5 8.34819 16.6947 7.24186 17.0531 6.21214Z" fill="white"/>
<path fill-rule="evenodd" clip-rule="evenodd" d="M26.5 18C31.1944 18 35 14.1944 35 9.5C35 4.80558 31.1944 1 26.5 1C21.8056 1 18 4.80558 18 9.5C18 14.1944 21.8056 18 26.5 18ZM23.7521 5.69127C23.4592 5.39837 22.9843 5.39837 22.6914 5.69127C22.3985 5.98416 22.3985 6.45903 22.6914 6.75193L25.4395 9.5L22.6914 12.2481C22.3985 12.541 22.3985 13.0158 22.6914 13.3087C22.9843 13.6016 23.4592 13.6016 23.7521 13.3087L26.5002 10.5607L29.2482 13.3087C29.5411 13.6016 30.016 13.6016 30.3089 13.3087C30.6018 13.0158 30.6018 12.541 30.3089 12.2481L27.5608 9.5L30.3089 6.75193C30.6018 6.45903 30.6018 5.98416 30.3089 5.69127C30.016 5.39837 29.5411 5.39837 29.2482 5.69127L26.5002 8.43934L23.7521 5.69127Z" fill="white"/>
</svg>
