<svg width="36" height="36" viewBox="0 0 36 36" fill="none" xmlns="http://www.w3.org/2000/svg">
<path fill-rule="evenodd" clip-rule="evenodd" d="M3 19.3992C3 15.1925 5.7082 11.583 9.46985 10.5613C10.7553 6.26044 14.5555 3.07422 19.125 3.07422C24.7842 3.07422 29.25 7.94546 29.25 13.7992C29.25 14.1989 29.2293 14.5939 29.189 14.9829C31.4686 16.1466 33 18.6057 33 21.3992C33 25.2647 30.0452 28.5242 26.25 28.5242H22.5C21.8787 28.5242 21.375 28.0205 21.375 27.3992C21.375 26.7779 21.8787 26.2742 22.5 26.2742H26.25C28.668 26.2742 30.75 24.1611 30.75 21.3992C30.75 19.1758 29.3861 17.3516 27.592 16.7446C27.0618 16.5652 26.7441 16.0234 26.8465 15.4731C26.9471 14.9329 27 14.3733 27 13.7992C27 9.04911 23.407 5.32422 19.125 5.32422C15.978 5.32422 13.2105 7.3277 11.958 10.2809C14.2617 10.3734 16.3237 11.4214 17.8094 13.038C18.2298 13.4954 18.1998 14.2071 17.7423 14.6275C17.2849 15.048 16.5732 15.0179 16.1528 14.5605C14.9873 13.2923 13.3835 12.5242 11.625 12.5242C11.2683 12.5242 10.9192 12.5557 10.5798 12.6161C7.60696 13.1446 5.25 15.9346 5.25 19.3992C5.25 23.2657 8.17148 26.2742 11.625 26.2742H13.5C14.1213 26.2742 14.625 26.7779 14.625 27.3992C14.625 28.0205 14.1213 28.5242 13.5 28.5242H11.625C6.79425 28.5242 3 24.3693 3 19.3992ZM18.8207 17.4298C18.6081 17.2029 18.311 17.0742 18 17.0742C17.689 17.0742 17.3919 17.2029 17.1793 17.4298L12.6793 22.2298C12.2543 22.6831 12.2773 23.395 12.7306 23.8199C13.1838 24.2449 13.8958 24.2219 14.3207 23.7687L16.875 21.0441V31.7992C16.875 32.4205 17.3787 32.9242 18 32.9242C18.6213 32.9242 19.125 32.4205 19.125 31.7992V21.0441L21.6793 23.7687C22.1042 24.2219 22.8162 24.2449 23.2694 23.8199C23.7227 23.395 23.7457 22.6831 23.3207 22.2298L18.8207 17.4298Z" fill="white"/>
</svg>
