<svg width="36" height="36" viewBox="0 0 36 36" fill="none" xmlns="http://www.w3.org/2000/svg">
<path d="M21.375 19.125C21.375 20.989 19.864 22.5 18 22.5C16.136 22.5 14.625 20.989 14.625 19.125C14.625 17.261 16.136 15.75 18 15.75C19.864 15.75 21.375 17.261 21.375 19.125Z" fill="white"/>
<path d="M8.4 15.0499C8.84002 15.38 9.46351 15.2925 9.79593 14.8553L9.79714 14.8538C9.80019 14.8499 9.80717 14.8412 9.81797 14.8284C9.83965 14.8025 9.87629 14.7605 9.92706 14.7075C10.0294 14.6006 10.1844 14.4546 10.385 14.3087C10.7902 14.014 11.338 13.7499 12 13.7499C12.662 13.7499 13.2098 14.014 13.615 14.3087C13.8156 14.4546 13.9706 14.6006 14.0729 14.7075C14.1237 14.7605 14.1603 14.8025 14.182 14.8284C14.1928 14.8412 14.1999 14.85 14.203 14.8539L14.2041 14.8553C14.5365 15.2925 15.16 15.38 15.6 15.0499C16.0418 14.7186 16.1314 14.0918 15.8 13.6499L15 14.2499C15.8 13.6499 15.799 13.6486 15.799 13.6486L15.7979 13.6472L15.7954 13.6438L15.789 13.6355L15.771 13.6124C15.7566 13.5943 15.7376 13.5708 15.714 13.5426C15.6668 13.4864 15.6009 13.4113 15.5169 13.3237C15.3498 13.1492 15.1063 12.9203 14.7913 12.6912C14.1652 12.2359 13.213 11.7499 12 11.7499C10.787 11.7499 9.83477 12.2359 9.2087 12.6912C8.89374 12.9203 8.65024 13.1492 8.48309 13.3237C8.3991 13.4113 8.3332 13.4864 8.28603 13.5426C8.26241 13.5708 8.24339 13.5943 8.22904 13.6124L8.21101 13.6355L8.20463 13.6438L8.20209 13.6472L8.20099 13.6486L8.2 13.6499C8.2 13.6499 8.2 13.6499 9 14.2499L8.2 13.6499C7.86863 14.0918 7.95817 14.7186 8.4 15.0499Z" fill="white"/>
<path d="M21.7959 14.8553C21.4635 15.2925 20.84 15.38 20.4 15.0499C19.9582 14.7186 19.8686 14.0918 20.2 13.6499C20.2 13.6499 20.2 13.6499 21 14.2499L20.2 13.6499L20.201 13.6486L20.2021 13.6472L20.2046 13.6438L20.211 13.6355L20.229 13.6124C20.2434 13.5943 20.2624 13.5708 20.286 13.5426C20.3332 13.4864 20.3991 13.4113 20.4831 13.3237C20.6502 13.1492 20.8937 12.9203 21.2087 12.6912C21.8348 12.2359 22.787 11.7499 24 11.7499C25.213 11.7499 26.1652 12.2359 26.7913 12.6912C27.1063 12.9203 27.3498 13.1492 27.5169 13.3237C27.6009 13.4113 27.6668 13.4864 27.714 13.5426C27.7376 13.5708 27.7566 13.5943 27.771 13.6124L27.789 13.6355L27.7954 13.6438L27.7979 13.6472L27.799 13.6486C27.799 13.6486 27.8 13.6499 27 14.2499L27.8 13.6499C28.1314 14.0918 28.0418 14.7186 27.6 15.0499C27.16 15.38 26.5365 15.2925 26.2041 14.8553L26.203 14.8539C26.1999 14.85 26.1928 14.8412 26.182 14.8284C26.1603 14.8025 26.1237 14.7605 26.0729 14.7075C25.9706 14.6006 25.8156 14.4546 25.615 14.3087C25.2098 14.014 24.662 13.7499 24 13.7499C23.338 13.7499 22.7902 14.014 22.385 14.3087C22.1844 14.4546 22.0294 14.6006 21.9271 14.7075C21.8763 14.7605 21.8397 14.8025 21.818 14.8284C21.8072 14.8412 21.8002 14.8499 21.7971 14.8538L21.7959 14.8553Z" fill="white"/>
<path fill-rule="evenodd" clip-rule="evenodd" d="M11.7186 20.6527C13.0964 20.532 13.794 21.2089 14.5455 21.9382C15.3433 22.7124 16.202 23.5456 18 23.5456C19.8476 23.5456 20.6531 22.7222 21.4078 21.9506C22.0793 21.2641 22.7107 20.6187 24 20.631C26.25 20.6525 27.8485 22.5231 27.2788 24.7502C26.4606 27.9489 21.5084 30.3204 18 30.3204C14.4915 30.3204 9.34412 27.7501 8.71859 24.7487C8.25004 22.5005 9.61463 20.8369 11.7186 20.6527ZM11.6806 23.5833C11.9106 23.407 12.2399 23.4504 12.4164 23.6803C12.4164 23.6803 12.4166 23.6806 12 24L11.5833 24.3194C11.4069 24.0893 11.4504 23.7598 11.6806 23.5833ZM12 24L12.4164 23.6803L12.4191 23.6837L12.4343 23.7027C12.4486 23.7205 12.4714 23.7481 12.5024 23.7843C12.5645 23.8566 12.6592 23.9626 12.7852 24.0912C13.0375 24.3488 13.4125 24.6942 13.8981 25.0397C14.871 25.732 16.2664 26.41 18 26.41C19.7335 26.41 21.1289 25.732 22.1019 25.0397C22.5874 24.6942 22.9625 24.3488 23.2148 24.0912C23.3407 23.9626 23.4355 23.8566 23.4975 23.7843C23.5285 23.7481 23.5513 23.7205 23.5657 23.7027L23.5809 23.6837L23.5833 23.6806C23.7598 23.4509 24.0894 23.4071 24.3194 23.5833C24.5495 23.7598 24.593 24.0893 24.4166 24.3194L24 24C24.4166 24.3194 24.4166 24.3194 24.4166 24.3194L24.4152 24.3213L24.4129 24.3242L24.4059 24.3332C24.4001 24.3405 24.3921 24.3506 24.3819 24.3632C24.3615 24.3884 24.3323 24.4238 24.2944 24.4679C24.2188 24.5561 24.1084 24.6794 23.9649 24.826C23.6781 25.1187 23.2563 25.507 22.7106 25.8953C21.621 26.6705 20.0164 27.46 18 27.46C15.9836 27.46 14.3789 26.6705 13.2894 25.8953C12.7437 25.507 12.3218 25.1187 12.0351 24.826C11.8915 24.6794 11.7812 24.5561 11.7055 24.4679C11.6677 24.4238 11.6384 24.3884 11.618 24.3632C11.6078 24.3506 11.5998 24.3405 11.594 24.3332L11.587 24.3242L11.5847 24.3213L11.5833 24.3194C11.5833 24.3194 11.5833 24.3194 12 24Z" fill="white"/>
<path fill-rule="evenodd" clip-rule="evenodd" d="M2.27058 8.71946C2.3124 8.66354 2.3124 8.58646 2.27058 8.53054C1.78517 7.88153 1.5 7.0894 1.5 6.23438C1.5 4.03387 3.3888 2.25 5.71875 2.25C6.62956 2.25 7.47295 2.5226 8.16246 2.98612C8.21535 3.02168 8.28465 3.02168 8.33754 2.98612C9.02705 2.5226 9.87044 2.25 10.7812 2.25C12.3176 2.25 13.6621 3.0256 14.3998 4.18484C15.5531 3.90071 16.759 3.75 18 3.75C19.241 3.75 20.4469 3.90071 21.6002 4.18484C22.3379 3.0256 23.6824 2.25 25.2188 2.25C26.1296 2.25 26.973 2.5226 27.6625 2.98612C27.7154 3.02168 27.7846 3.02168 27.8375 2.98612C28.527 2.5226 29.3704 2.25 30.2812 2.25C32.6112 2.25 34.5 4.03387 34.5 6.23438C34.5 7.0894 34.2148 7.88153 33.7294 8.53054C33.6876 8.58646 33.6876 8.66354 33.7294 8.71946C34.2148 9.36847 34.5 10.1606 34.5 11.0156C34.5 12.4941 33.6474 13.7845 32.3812 14.4721C32.7838 15.8278 33 17.2636 33 18.75C33 27.0343 26.2843 33.75 18 33.75C9.71573 33.75 3 27.0343 3 18.75C3 17.2636 3.21619 15.8278 3.61884 14.4721C2.35264 13.7845 1.5 12.4941 1.5 11.0156C1.5 10.1606 1.78517 9.36847 2.27058 8.71946ZM18 31.75C25.1797 31.75 31 25.9297 31 18.75C31 11.5703 25.1797 5.75 18 5.75C10.8203 5.75 5 11.5703 5 18.75C5 25.9297 10.8203 31.75 18 31.75Z" fill="white"/>
</svg>
