<svg width="36" height="36" viewBox="0 0 36 36" fill="none" xmlns="http://www.w3.org/2000/svg">
<path fill-rule="evenodd" clip-rule="evenodd" d="M20.8878 4.5098C19.8315 4.58188 18.7548 5.06739 18.0394 5.91234L17.8535 5.87482C17.1465 5.05454 16.0986 4.5812 15.0653 4.50984C14.1484 4.44651 13.1853 4.68614 12.4011 5.30607C11.6077 5.93333 11.0549 6.90457 10.8913 8.19187C10.7616 9.21254 11.8144 9.73726 12.5608 9.37625C12.9518 9.18712 13.1479 9.11424 13.3395 9.07545C13.4444 9.05421 13.9336 9.041 14.2309 9.03296C14.3013 9.03106 14.361 9.02945 14.4023 9.02809L14.4021 11.2817L12.334 11.2817C10.7809 11.2817 10.3691 11.2472 9.87451 10.7492C9.76021 10.6334 9.60476 10.303 9.55173 9.71583C9.5018 9.163 9.55567 8.51018 9.71785 7.90132C9.8416 7.43673 9.6898 6.97976 9.4103 6.68085C9.12136 6.37183 8.62979 6.17418 8.11422 6.38342C4.19557 7.97371 3.09529 11.6945 3.62404 14.8943C3.88805 16.4919 4.55987 18.0123 5.53157 19.1477C6.50428 20.2844 7.82016 21.0776 9.34637 21.0777L12.1415 21.0777C11.5378 21.841 11.0884 22.6203 10.7695 23.5605C10.3545 24.784 10.1771 26.2329 10.1067 28.1916C10.0817 28.8869 10.731 29.4325 11.4187 29.2402C12.7528 28.867 13.6964 28.3341 14.4648 27.6287C14.7537 27.3636 15.0134 27.0777 15.2562 26.7761C15.3385 27.4569 15.5233 28.0978 15.8062 28.695C16.1936 29.513 16.754 30.2261 17.4503 30.8383L18.0996 31.5L18.754 30.8309C19.444 30.2175 19.9912 29.5033 20.3643 28.6848C20.5993 28.1692 20.7606 27.6221 20.8475 27.0458C20.9949 27.2473 21.154 27.4409 21.3301 27.6222C22.0589 28.3727 23.046 28.906 24.6304 29.2704C25.0888 29.3758 25.5247 29.1603 25.7462 28.7943L25.7548 28.7996L25.7506 28.7869C25.846 28.6263 25.9002 28.4374 25.8974 28.2343C25.8561 25.2185 25.305 23.0605 23.8149 21.0777L26.6473 21.0777C28.1735 21.0776 29.4894 20.2844 30.4621 19.1477C31.4338 18.0123 32.1056 16.4919 32.3696 14.8943C32.4689 14.2933 32.5108 13.674 32.4873 13.0539C32.5138 12.8498 32.4987 12.6422 32.4428 12.4443C32.1743 9.97125 30.8209 7.57713 27.8795 6.38342C27.3639 6.17418 26.8723 6.37183 26.5834 6.68085C26.3039 6.97976 26.1521 7.43673 26.2758 7.90132C26.438 8.51018 26.4919 9.163 26.4419 9.71583C26.3889 10.303 26.2335 10.6334 26.1192 10.7492C25.6246 11.2472 25.2127 11.2817 23.6595 11.2817L21.5668 11.2747V9.02111C21.5887 9.02183 21.616 9.02269 21.6476 9.02369C21.9266 9.03252 22.5376 9.05185 22.6542 9.07545C22.8457 9.11424 23.0419 9.18712 23.4329 9.37625C24.1786 9.73695 25.2331 9.21295 25.1017 8.1908C24.9358 6.90089 24.3753 5.92952 23.5739 5.30341C22.7824 4.68511 21.8114 4.44677 20.8878 4.5098ZM15.8994 13.5422H20.3733C20.7876 13.5422 21.1233 13.878 21.1233 14.2922V19.5265C21.1233 19.9315 20.8018 20.2633 20.397 20.2761L19.3726 20.3084C19.0752 20.3178 18.8114 20.5022 18.7004 20.7783L18.4843 21.3158C18.3583 21.6293 17.9145 21.6293 17.7884 21.3158L17.5723 20.7783C17.4613 20.5022 17.1976 20.3178 16.9001 20.3084L15.8758 20.2761C15.471 20.2633 15.1494 19.9315 15.1494 19.5265V14.2922C15.1494 13.878 15.4852 13.5422 15.8994 13.5422Z" fill="white"/>
</svg>
