<svg width="36" height="36" viewBox="0 0 36 36" fill="none" xmlns="http://www.w3.org/2000/svg">
<path fill-rule="evenodd" clip-rule="evenodd" d="M19.7498 13.8002C20.578 13.8002 21.2495 14.4719 21.2498 15.3002V19.3666C21.2498 20.195 20.5782 20.8666 19.7498 20.8666H19.0691L18.9402 21.2455C18.5946 22.2631 17.1559 22.263 16.8103 21.2455L16.6814 20.8666H15.9998C15.1715 20.8664 14.4998 20.1949 14.4998 19.3666V15.3002C14.5 14.4721 15.1716 13.8004 15.9998 13.8002H19.7498ZM15.9998 19.3666H16.6814C17.1587 19.3666 17.5964 19.5929 17.8748 19.9584C18.1531 19.5928 18.5917 19.3666 19.0691 19.3666H19.7498V15.3002H15.9998V19.3666Z" fill="white"/>
<path fill-rule="evenodd" clip-rule="evenodd" d="M14.7009 5.01015C15.8381 5.08673 17.0113 5.61824 17.7703 6.55019C18.5301 5.64939 19.681 5.1352 20.7976 5.05996C21.769 4.99455 22.7961 5.24217 23.6365 5.89101C24.4898 6.54994 25.0787 7.56745 25.2517 8.89883C25.4072 10.098 24.1599 10.7007 23.2917 10.2855C22.9003 10.0984 22.7201 10.0342 22.5515 10.0004C22.4775 9.98558 22.3974 9.97478 22.2956 9.96718V11.8002H23.6023C25.1826 11.8002 25.51 11.7564 25.9412 11.3275C26.0065 11.2618 26.1568 10.9911 26.2087 10.4232C26.2568 9.89795 26.205 9.27185 26.0476 8.68789C25.9033 8.15234 26.0788 7.62701 26.4021 7.28359C26.7374 6.92753 27.3155 6.69439 27.9236 6.93789C31.9812 8.56379 33.1146 12.3762 32.571 15.6283C32.2998 17.2508 31.6095 18.7993 30.6042 19.9603C29.5974 21.1231 28.2208 21.9505 26.6121 21.9506H24.1511C25.507 23.8793 26.0146 25.998 26.0544 28.8705C26.0655 29.6667 25.3307 30.2797 24.5388 30.1C22.9174 29.7317 21.8836 29.1871 21.115 28.4047C21.0234 28.3114 20.9358 28.2147 20.8523 28.1156C20.4425 29.8474 19.3424 31.2489 17.7761 32.2904L17.7322 32.225L17.7224 32.2406C16.1563 31.1991 15.0561 29.7975 14.6462 28.0658C14.5627 28.1649 14.4751 28.2616 14.3835 28.3549C13.615 29.1371 12.5818 29.6819 10.9607 30.0502C10.1687 30.2301 9.43306 29.617 9.44409 28.8207C9.48388 25.948 9.99142 23.8286 11.3474 21.8998H8.88647C7.2779 21.8997 5.90208 21.0731 4.89526 19.9105C3.88975 18.7494 3.19871 17.2003 2.92748 15.5775C2.38409 12.3255 3.51755 8.51392 7.57495 6.88808C8.18312 6.64438 8.76105 6.87766 9.09643 7.23379C9.41976 7.57721 9.59624 8.10253 9.4519 8.63808C9.29456 9.22186 9.24282 9.84727 9.29077 10.3725C9.34269 10.9404 9.49196 11.2119 9.55737 11.2777C9.98855 11.7066 10.316 11.7494 11.8962 11.7494H13.2029V9.91738C13.101 9.92498 13.0211 9.93575 12.947 9.95058C12.7784 9.98437 12.5981 10.0477 12.2068 10.2348C11.3385 10.65 10.0919 10.0475 10.2478 8.84804C10.4208 7.51693 11.0089 6.50007 11.8621 5.84121C12.7024 5.19228 13.7295 4.94475 14.7009 5.01015ZM14.573 6.90566C14.001 6.86722 13.4486 7.01665 13.0232 7.34511C12.7891 7.52596 12.5702 7.77823 12.404 8.12539C12.4597 8.11124 12.5165 8.09882 12.574 8.0873C12.9656 8.00885 13.3639 8.00181 13.8494 8.00039C14.5397 7.9984 15.1033 8.55789 15.1033 9.25039V12.3998C15.1033 13.0899 14.5439 13.6498 13.8533 13.6498H11.7361C10.3804 13.6514 9.25065 13.6528 8.21655 12.6234L8.21557 12.6225C7.67528 12.0829 7.46363 11.2617 7.39819 10.5463C7.35512 10.0751 7.3677 9.56768 7.43432 9.06191C5.10351 10.4151 4.40623 12.9001 4.80151 15.265C5.02187 16.5832 5.57949 17.7986 6.3308 18.6664C7.08091 19.5326 7.97051 20.0002 8.88647 20.0004H12.6746C13.8209 20.0007 14.2953 21.3432 13.6072 22.1107C12.1589 23.7255 11.5173 25.3932 11.3738 27.9701C12.213 27.695 12.6875 27.3695 13.0281 27.0228C13.4092 26.6349 13.6571 26.2027 14.0144 25.5785C14.1235 25.3879 14.2432 25.1791 14.3796 24.9486C14.7128 24.3863 15.3372 24.3323 15.7351 24.4906C16.1229 24.645 16.5141 25.079 16.4294 25.6801C16.1879 27.3914 16.6833 28.7638 17.7732 29.8471C18.8289 28.7716 19.3068 27.4163 19.0691 25.7309C18.9842 25.1297 19.3756 24.6949 19.7634 24.5404C20.1613 24.382 20.7867 24.4359 21.1199 24.9984C21.2563 25.2289 21.3751 25.4378 21.4841 25.6283C21.8414 26.2524 22.0894 26.6848 22.4705 27.0727C22.811 27.4193 23.2856 27.7449 24.1248 28.0199C23.9812 25.443 23.3406 23.7753 21.8923 22.1605C21.2039 21.393 21.6782 20.0502 22.8249 20.0502H26.6121C27.5281 20.0501 28.4176 19.5834 29.1677 18.7172C29.9193 17.8493 30.4766 16.6332 30.697 15.3148C31.0923 12.9499 30.395 10.4659 28.0642 9.11269C28.1308 9.61836 28.1434 10.125 28.1003 10.5961C28.0349 11.3116 27.8233 12.1327 27.283 12.6723L27.282 12.6732C26.248 13.7025 25.1189 13.7012 23.7634 13.6996H21.6453C20.9549 13.6995 20.3964 13.1404 20.3962 12.4506V9.30019C20.3962 8.60779 20.959 8.04836 21.6492 8.05019C22.1345 8.05162 22.533 8.05872 22.9246 8.13711C22.982 8.14862 23.0388 8.16202 23.0945 8.17617C22.9282 7.82881 22.7096 7.57581 22.4753 7.39492C22.0499 7.06644 21.4976 6.91696 20.9255 6.95547C19.8602 7.0272 18.9939 7.68888 18.8269 8.65664C18.8415 8.72732 18.8503 8.80037 18.8503 8.87539C18.8503 9.46909 18.3688 9.95058 17.7751 9.95058C17.2063 9.95058 16.7419 9.50874 16.7039 8.94961C16.7035 7.79733 15.76 6.98559 14.573 6.90566Z" fill="white"/>
</svg>
