<svg width="36" height="36" viewBox="0 0 36 36" fill="none" xmlns="http://www.w3.org/2000/svg">
<path d="M20.7934 5.3313C20.9537 4.80293 21.512 4.50417 22.0405 4.66431C22.5687 4.82457 22.8674 5.383 22.7074 5.91138L15.2074 30.6614C15.0473 31.1898 14.4888 31.4884 13.9604 31.3284C13.4318 31.1682 13.1332 30.6098 13.2934 30.0813L20.7934 5.3313Z" fill="white"/>
<path d="M9.79339 12.0393C10.1839 11.6491 10.817 11.6489 11.2074 12.0393C11.5978 12.4298 11.5977 13.0629 11.2074 13.4534L6.66448 17.9963L11.2074 22.5393C11.5978 22.9298 11.5977 23.5629 11.2074 23.9534C10.8169 24.3439 10.1839 24.3438 9.79339 23.9534L4.7553 18.9153C4.24791 18.4077 4.24791 17.585 4.7553 17.0774L9.79339 12.0393Z" fill="white"/>
<path d="M24.7934 12.0393C25.1839 11.649 25.817 11.6489 26.2074 12.0393L31.2455 17.0774C31.7528 17.5849 31.7526 18.4077 31.2455 18.9153L26.2074 23.9534C25.8169 24.3439 25.1839 24.3438 24.7934 23.9534C24.4029 23.5628 24.4029 22.9298 24.7934 22.5393L29.3364 17.9963L24.7934 13.4534C24.4029 13.0628 24.4029 12.4298 24.7934 12.0393Z" fill="white"/>
</svg>
