<svg width="36" height="36" viewBox="0 0 36 36" fill="none" xmlns="http://www.w3.org/2000/svg">
<path fill-rule="evenodd" clip-rule="evenodd" d="M11.2541 7.06C13.3043 5.87429 15.6301 5.25 17.9977 5.25C20.3653 5.25 22.6911 5.87429 24.7413 7.05999C26.7915 8.24569 28.4938 9.95097 29.6773 12.0043C30.8607 14.0575 31.4837 16.3865 31.4837 18.7572C31.4837 21.1279 30.8607 23.4569 29.6773 25.5102C29.4015 25.9887 28.79 26.153 28.3115 25.8772C27.833 25.6015 27.6687 24.99 27.9445 24.5115C28.9528 22.7621 29.4837 20.7775 29.4837 18.7572C29.4837 16.737 28.9528 14.7524 27.9445 13.003C26.9362 11.2536 25.4861 9.80109 23.7401 8.79131C21.9941 7.78154 20.0136 7.25 17.9977 7.25C15.9818 7.25 14.0014 7.78154 12.2553 8.79131C10.5093 9.80109 9.05921 11.2536 8.05092 13.003C7.04261 14.7524 6.51172 16.737 6.51172 18.7572C6.51172 20.7775 7.04261 22.7621 8.05092 24.5115C8.32671 24.99 8.16238 25.6015 7.68389 25.8773C7.20539 26.153 6.59392 25.9887 6.31813 25.5102C5.13469 23.4569 4.51172 21.1279 4.51172 18.7572C4.51172 16.3866 5.13468 14.0575 6.31813 12.0043C7.50158 9.95097 9.20387 8.24569 11.2541 7.06ZM3 29.749C3 29.1967 3.44772 28.749 4 28.749H31.9989C32.5512 28.749 32.9989 29.1967 32.9989 29.749C32.9989 30.3013 32.5512 30.749 31.9989 30.749H4C3.44772 30.749 3 30.3013 3 29.749ZM15.1937 12.4512C12.5474 12.4512 10.9453 14.7193 10.9453 16.6109C10.9453 18.0863 11.6909 19.4169 12.568 20.5214C13.4547 21.6381 14.5852 22.6573 15.5553 23.5086L15.5791 23.5295C15.9062 23.8165 16.1872 24.0631 16.426 24.247C16.6671 24.4326 16.9509 24.6238 17.2888 24.724C17.7783 24.869 18.22 24.869 18.7095 24.724C19.0473 24.6238 19.3311 24.4326 19.5722 24.247C19.811 24.0631 20.092 23.8166 20.419 23.5296L20.443 23.5086C21.413 22.6573 22.5435 21.6381 23.4303 20.5214C24.3073 19.4169 25.0529 18.0863 25.0529 16.6109C25.0529 14.7193 23.4508 12.4512 20.8046 12.4512C19.9729 12.4512 19.2551 12.7786 18.6813 13.1759C18.4377 13.3445 18.21 13.5327 17.9991 13.7277C17.7883 13.5327 17.5606 13.3445 17.317 13.1759C16.7431 12.7786 16.0253 12.4512 15.1937 12.4512ZM12.9453 16.6109C12.9453 15.6548 13.8138 14.4512 15.1937 14.4512C15.4863 14.4512 15.8109 14.5657 16.1785 14.8202C16.5478 15.0759 16.9038 15.4339 17.2403 15.826C17.4303 16.0473 17.7074 16.1747 17.9991 16.1747C18.2908 16.1747 18.568 16.0473 18.7579 15.826C19.0945 15.4339 19.4504 15.0759 19.8197 14.8202C20.1873 14.5657 20.5119 14.4512 20.8046 14.4512C22.1844 14.4512 23.0529 15.6548 23.0529 16.6109C23.0529 17.4162 22.6357 18.3058 21.864 19.2776C21.102 20.2373 20.0977 21.1507 19.1238 22.0053C18.7662 22.3191 18.5338 22.5224 18.3521 22.6623C18.2063 22.7745 18.1456 22.8034 18.1372 22.8075C18.0607 22.8298 18.0209 22.8328 17.9991 22.8328C17.9773 22.8328 17.9382 22.8301 17.8617 22.8078C17.8533 22.8037 17.7919 22.7745 17.6462 22.6623C17.4644 22.5224 17.2321 22.3191 16.8744 22.0053C15.9006 21.1507 14.8963 20.2373 14.1342 19.2776C13.3625 18.3058 12.9453 17.4162 12.9453 16.6109Z" fill="white"/>
</svg>
