<svg width="36" height="36" viewBox="0 0 36 36" fill="none" xmlns="http://www.w3.org/2000/svg">
<path d="M11.2541 7.06C13.3043 5.87429 15.6301 5.25 17.9977 5.25C20.3653 5.25 22.6911 5.87429 24.7413 7.05999C26.7915 8.24569 28.4938 9.95097 29.6773 12.0043C30.8607 14.0575 31.4837 16.3865 31.4837 18.7572C31.4837 21.1279 30.8607 23.4569 29.6773 25.5102C29.4015 25.9887 28.79 26.153 28.3115 25.8772C27.833 25.6015 27.6687 24.99 27.9445 24.5115C28.9528 22.7621 29.4837 20.7775 29.4837 18.7572C29.4837 16.737 28.9528 14.7524 27.9445 13.003C26.9362 11.2536 25.4861 9.80109 23.7401 8.79131C21.9941 7.78154 20.0136 7.25 17.9977 7.25C15.9818 7.25 14.0014 7.78154 12.2553 8.79131C10.5093 9.80109 9.05921 11.2536 8.05092 13.003C7.04261 14.7524 6.51172 16.737 6.51172 18.7572C6.51172 20.7775 7.04261 22.7621 8.05092 24.5115C8.32671 24.99 8.16238 25.6015 7.68389 25.8773C7.20539 26.153 6.59392 25.9887 6.31813 25.5102C5.13469 23.4569 4.51172 21.1279 4.51172 18.7572C4.51172 16.3866 5.13468 14.0575 6.31813 12.0043C7.50158 9.95097 9.20387 8.24569 11.2541 7.06Z" fill="white"/>
<path d="M3 29.749C3 29.1967 3.44772 28.749 4 28.749H31.9989C32.5512 28.749 32.9989 29.1967 32.9989 29.749C32.9989 30.3013 32.5512 30.749 31.9989 30.749H4C3.44772 30.749 3 30.3013 3 29.749Z" fill="white"/>
<path fill-rule="evenodd" clip-rule="evenodd" d="M15 12C14.4477 12 14 12.4477 14 13V25.75C14 26.3023 14.4477 26.75 15 26.75C15.5523 26.75 16 26.3023 16 25.75V20.75H17.7902L20.8784 26.2403C21.1492 26.7216 21.7589 26.8923 22.2403 26.6216C22.7216 26.3508 22.8923 25.7411 22.6216 25.2597L19.9258 20.4672C21.5766 19.8413 22.75 18.2452 22.75 16.375C22.75 13.9588 20.7912 12 18.375 12H15ZM18.3553 18.75H16V14H18.375C19.6867 14 20.75 15.0633 20.75 16.375C20.75 17.6816 19.6949 18.7418 18.3902 18.75C18.3786 18.7498 18.3669 18.7498 18.3553 18.75Z" fill="white"/>
</svg>
