<svg width="36" height="36" viewBox="0 0 36 36" fill="none" xmlns="http://www.w3.org/2000/svg">
<path d="M24.5 5.50977C24.5 4.95748 24.0523 4.50977 23.5 4.50977C22.9477 4.50977 22.5 4.95748 22.5 5.50977V9.27546C22.5 9.82774 22.9477 10.2755 23.5 10.2755C24.0523 10.2755 24.5 9.82774 24.5 9.27546V5.50977Z" fill="white"/>
<path d="M18.5 4.00391C18.5 3.45162 18.0523 3.00391 17.5 3.00391C16.9477 3.00391 16.5 3.45162 16.5 4.00391V7.7696C16.5 8.32188 16.9477 8.7696 17.5 8.7696C18.0523 8.7696 18.5 8.32188 18.5 7.7696V4.00391Z" fill="white"/>
<path d="M11.5 4.50977C12.0523 4.50977 12.5 4.95748 12.5 5.50977V9.27546C12.5 9.82774 12.0523 10.2755 11.5 10.2755C10.9477 10.2755 10.5 9.82774 10.5 9.27546V5.50977C10.5 4.95748 10.9477 4.50977 11.5 4.50977Z" fill="white"/>
<path fill-rule="evenodd" clip-rule="evenodd" d="M17.5 33.0042C23.7132 33.0042 28.75 27.9455 28.75 21.7052C28.75 15.465 23.7132 10.4062 17.5 10.4062C11.2868 10.4062 6.25 15.465 6.25 21.7052C6.25 27.9455 11.2868 33.0042 17.5 33.0042ZM13.25 17.499C13.25 17.0848 12.9142 16.749 12.5 16.749C12.0858 16.749 11.75 17.0848 11.75 17.499V26.349C11.75 26.8461 12.1529 27.249 12.65 27.249H16.7C17.1142 27.249 17.45 26.9132 17.45 26.499C17.45 26.0848 17.1142 25.749 16.7 25.749H13.25V17.499ZM18.05 17.499C18.05 17.0848 18.3858 16.749 18.8 16.749H22.65C23.0642 16.749 23.4 17.0848 23.4 17.499C23.4 17.9132 23.0642 18.249 22.65 18.249H19.55V21.0692H22.65C23.0642 21.0692 23.4 21.4049 23.4 21.8192C23.4 22.2334 23.0642 22.5692 22.65 22.5692H19.55V25.749H23C23.4142 25.749 23.75 26.0848 23.75 26.499C23.75 26.9132 23.4142 27.249 23 27.249H18.95C18.453 27.249 18.05 26.8461 18.05 26.349V17.499Z" fill="white"/>
</svg>
