<svg width="36" height="36" viewBox="0 0 36 36" fill="none" xmlns="http://www.w3.org/2000/svg">
<path fill-rule="evenodd" clip-rule="evenodd" d="M25.0722 5.51357C25.0722 4.96128 24.6245 4.51357 24.0722 4.51357C23.5199 4.51357 23.0722 4.96128 23.0722 5.51357V9.29726C23.0722 9.84954 23.5199 10.2973 24.0722 10.2973C24.6245 10.2973 25.0722 9.84954 25.0722 9.29726V5.51357ZM18.998 4C18.998 3.44772 18.5502 3 17.998 3C17.4457 3 16.998 3.44772 16.998 4V7.78369C16.998 8.33597 17.4457 8.78369 17.998 8.78369C18.5502 8.78369 18.998 8.33597 18.998 7.78369V4ZM11.9257 4.51357C12.478 4.51357 12.9257 4.96128 12.9257 5.51357V9.29726C12.9257 9.84954 12.478 10.2973 11.9257 10.2973C11.3734 10.2973 10.9257 9.84954 10.9257 9.29726V5.51357C10.9257 4.96128 11.3734 4.51357 11.9257 4.51357ZM27.248 21.7833C27.248 16.6965 23.1101 12.5673 17.999 12.5673C12.8879 12.5673 8.75 16.6965 8.75 21.7833C8.75 26.8701 12.8879 30.9992 17.999 30.9992C23.1101 30.9992 27.248 26.8701 27.248 21.7833ZM17.999 10.5673C24.2086 10.5673 29.248 15.5858 29.248 21.7833C29.248 27.9807 24.2086 32.9992 17.999 32.9992C11.7894 32.9992 6.75 27.9807 6.75 21.7833C6.75 15.5858 11.7894 10.5673 17.999 10.5673ZM15.2537 16.1083C15.2537 15.6389 15.6343 15.2583 16.1037 15.2583H19.3394C21.3761 15.2583 23.0272 16.9094 23.0272 18.9461C23.0272 20.9828 21.3761 22.6338 19.3394 22.6338H16.9537V24.7175H19.8997C20.3691 24.7175 20.7497 25.0981 20.7497 25.5675C20.7497 26.037 20.3691 26.4175 19.8997 26.4175H16.9537V27.8378C16.9537 28.3072 16.5732 28.6878 16.1037 28.6878C15.6343 28.6878 15.2537 28.3072 15.2537 27.8378V26.4175H13.8262C13.3567 26.4175 12.9762 26.037 12.9762 25.5675C12.9762 25.0981 13.3567 24.7175 13.8262 24.7175H15.2537V22.6338H13.8262C13.3567 22.6338 12.9762 22.2533 12.9762 21.7838C12.9762 21.3144 13.3567 20.9338 13.8262 20.9338H15.2537V16.1083ZM16.9537 20.9338H19.3394C20.4373 20.9338 21.3272 20.0439 21.3272 18.9461C21.3272 17.8483 20.4373 16.9583 19.3394 16.9583H16.9537V20.9338Z" fill="white"/>
</svg>
