<svg width="36" height="36" viewBox="0 0 36 36" fill="none" xmlns="http://www.w3.org/2000/svg">
<path d="M24.0722 4.51357C24.6245 4.51357 25.0722 4.96128 25.0722 5.51357V9.29726C25.0722 9.84954 24.6245 10.2973 24.0722 10.2973C23.5199 10.2973 23.0722 9.84954 23.0722 9.29726V5.51357C23.0722 4.96128 23.5199 4.51357 24.0722 4.51357Z" fill="white"/>
<path d="M17.998 3C18.5502 3 18.998 3.44772 18.998 4V7.78369C18.998 8.33597 18.5502 8.78369 17.998 8.78369C17.4457 8.78369 16.998 8.33597 16.998 7.78369V4C16.998 3.44772 17.4457 3 17.998 3Z" fill="white"/>
<path d="M12.9257 5.51357C12.9257 4.96128 12.478 4.51357 11.9257 4.51357C11.3734 4.51357 10.9257 4.96128 10.9257 5.51357V9.29726C10.9257 9.84954 11.3734 10.2973 11.9257 10.2973C12.478 10.2973 12.9257 9.84954 12.9257 9.29726V5.51357Z" fill="white"/>
<path fill-rule="evenodd" clip-rule="evenodd" d="M14 16.75C13.5858 16.75 13.25 17.0858 13.25 17.5V25.75C13.25 26.1642 13.5858 26.5 14 26.5H16.4123C17.9789 26.5 19.2436 25.2199 19.2246 23.6533C19.2116 22.5873 18.6068 21.6657 17.7248 21.1994C18.0554 20.7383 18.25 20.1731 18.25 19.5625C18.25 18.0092 16.9908 16.75 15.4375 16.75H14ZM14.75 25V22.375H16.4123C17.1309 22.375 17.716 22.953 17.7247 23.6716C17.7336 24.4026 17.1434 25 16.4123 25H14.75ZM15.4375 20.875H14.75V18.25H15.4375C16.1624 18.25 16.75 18.8376 16.75 19.5625C16.75 20.2874 16.1624 20.875 15.4375 20.875Z" fill="white"/>
<path d="M23 22.1326C22.0335 22.1326 21.25 22.9161 21.25 23.8826V25.7502C21.25 26.1644 20.9142 26.5002 20.5 26.5002C20.0858 26.5002 19.75 26.1644 19.75 25.7502V23.8826C19.75 23.858 19.7503 23.8335 19.7508 23.809L19.75 21.1399C19.75 20.7257 20.0858 20.3899 20.5 20.3899C20.9142 20.3899 21.25 20.7257 21.25 21.1399V21.1435C21.7551 20.8201 22.3557 20.6326 23 20.6326C23.4142 20.6326 23.75 20.9684 23.75 21.3826C23.75 21.7968 23.4142 22.1326 23 22.1326Z" fill="white"/>
<path fill-rule="evenodd" clip-rule="evenodd" d="M17.999 10.5673C24.2086 10.5673 29.248 15.5858 29.248 21.7833C29.248 27.9807 24.2086 32.9992 17.999 32.9992C11.7894 32.9992 6.75 27.9807 6.75 21.7833C6.75 15.5858 11.7894 10.5673 17.999 10.5673ZM27.248 21.7833C27.248 16.6965 23.1101 12.5673 17.999 12.5673C12.8879 12.5673 8.75 16.6965 8.75 21.7833C8.75 26.8701 12.8879 30.9992 17.999 30.9992C23.1101 30.9992 27.248 26.8701 27.248 21.7833Z" fill="white"/>
</svg>
