<svg width="36" height="36" viewBox="0 0 36 36" fill="none" xmlns="http://www.w3.org/2000/svg">
<path fill-rule="evenodd" clip-rule="evenodd" d="M17.9977 5.25C15.6301 5.25 13.3043 5.87429 11.2541 7.06C9.20387 8.24569 7.50158 9.95097 6.31813 12.0043C5.13468 14.0575 4.51172 16.3866 4.51172 18.7572C4.51172 21.1279 5.13469 23.4569 6.31813 25.5102C6.59392 25.9887 7.20539 26.153 7.68389 25.8773C8.16238 25.6015 8.32671 24.99 8.05092 24.5115C7.04261 22.7621 6.51172 20.7775 6.51172 18.7572C6.51172 16.737 7.04261 14.7524 8.05092 13.003C9.05921 11.2536 10.5093 9.80109 12.2553 8.79131C14.0014 7.78154 15.9818 7.25 17.9977 7.25C20.0136 7.25 21.9941 7.78154 23.7401 8.79131C25.4861 9.80109 26.9362 11.2536 27.9445 13.003C28.9528 14.7524 29.4837 16.737 29.4837 18.7572C29.4837 20.7775 28.9528 22.7621 27.9445 24.5115C27.6687 24.99 27.833 25.6015 28.3115 25.8772C28.79 26.153 29.4015 25.9887 29.6773 25.5102C30.8607 23.4569 31.4837 21.1279 31.4837 18.7572C31.4837 16.3865 30.8607 14.0575 29.6773 12.0043C28.4938 9.95097 26.7915 8.24569 24.7413 7.05999C22.6911 5.87429 20.3653 5.25 17.9977 5.25ZM4 28.749C3.44772 28.749 3 29.1967 3 29.749C3 30.3013 3.44772 30.749 4 30.749H31.9989C32.5512 30.749 32.9989 30.3013 32.9989 29.749C32.9989 29.1967 32.5512 28.749 31.9989 28.749H4ZM19.7858 13C20.3381 13 20.7858 13.4477 20.7858 14V18.7601H24.5V14C24.5 13.4477 24.9477 13 25.5 13C26.0523 13 26.5 13.4477 26.5 14V26C26.5 26.5523 26.0523 27 25.5 27C24.9477 27 24.5 26.5523 24.5 26V20.7601H20.7858V26C20.7858 26.5523 20.3381 27 19.7858 27C19.2335 27 18.7858 26.5523 18.7858 26V14C18.7858 13.4477 19.2335 13 19.7858 13ZM10.5 13C9.94772 13 9.5 13.4477 9.5 14V26C9.5 26.5523 9.94772 27 10.5 27H12.4286C15.4661 27 17.9286 24.5376 17.9286 21.5V18.5C17.9286 15.4624 15.4661 13 12.4286 13H10.5ZM11.5 25V15H12.4286C14.3616 15 15.9286 16.567 15.9286 18.5V21.5C15.9286 23.433 14.3616 25 12.4286 25H11.5Z" fill="white"/>
</svg>
