<svg width="36" height="36" viewBox="0 0 36 36" fill="none" xmlns="http://www.w3.org/2000/svg">
<path d="M24.5 5.50977C24.5 4.95748 24.0523 4.50977 23.5 4.50977C22.9477 4.50977 22.5 4.95748 22.5 5.50977V9.27546C22.5 9.82774 22.9477 10.2755 23.5 10.2755C24.0523 10.2755 24.5 9.82774 24.5 9.27546V5.50977Z" fill="white"/>
<path d="M18.5 4.00391C18.5 3.45162 18.0523 3.00391 17.5 3.00391C16.9477 3.00391 16.5 3.45162 16.5 4.00391V7.7696C16.5 8.32188 16.9477 8.7696 17.5 8.7696C18.0523 8.7696 18.5 8.32188 18.5 7.7696V4.00391Z" fill="white"/>
<path d="M11.5 4.50977C12.0523 4.50977 12.5 4.95748 12.5 5.50977V9.27546C12.5 9.82774 12.0523 10.2755 11.5 10.2755C10.9477 10.2755 10.5 9.82774 10.5 9.27546V5.50977C10.5 4.95748 10.9477 4.50977 11.5 4.50977Z" fill="white"/>
<path d="M14.75 22.374V24.999H16.4123C17.1434 24.999 17.7336 24.4016 17.7247 23.6706C17.716 22.952 17.1309 22.374 16.4123 22.374H14.75Z" fill="white"/>
<path d="M14.75 20.874H15.4375C16.1624 20.874 16.75 20.2864 16.75 19.5615C16.75 18.8366 16.1624 18.249 15.4375 18.249H14.75V20.874Z" fill="white"/>
<path fill-rule="evenodd" clip-rule="evenodd" d="M28.75 21.7052C28.75 27.9455 23.7132 33.0042 17.5 33.0042C11.2868 33.0042 6.25 27.9455 6.25 21.7052C6.25 15.465 11.2868 10.4062 17.5 10.4062C23.7132 10.4062 28.75 15.465 28.75 21.7052ZM13.25 17.499C13.25 17.0848 13.5858 16.749 14 16.749H15.4375C16.9908 16.749 18.25 18.0082 18.25 19.5615C18.25 20.1722 18.0554 20.7374 17.7248 21.1985C18.6068 21.6647 19.2116 22.5863 19.2246 23.6523C19.2436 25.2189 17.9789 26.499 16.4123 26.499H14C13.5858 26.499 13.25 26.1632 13.25 25.749V17.499ZM21.25 23.8814C21.25 22.9149 22.0335 22.1314 23 22.1314C23.4142 22.1314 23.75 21.7956 23.75 21.3814C23.75 20.9672 23.4142 20.6314 23 20.6314C22.3557 20.6314 21.7551 20.8189 21.25 21.1423V21.1388C21.25 20.7246 20.9142 20.3888 20.5 20.3888C20.0858 20.3888 19.75 20.7246 19.75 21.1388V23.8079C19.7495 23.8323 19.75 23.8568 19.75 23.8814V25.749C19.75 26.1632 20.0858 26.499 20.5 26.499C20.9142 26.499 21.25 26.1632 21.25 25.749V23.8814Z" fill="white"/>
</svg>
