<svg width="36" height="36" viewBox="0 0 36 36" fill="none" xmlns="http://www.w3.org/2000/svg">
<path d="M25.125 5.625C25.125 5.00368 24.6213 4.5 24 4.5C23.3787 4.5 22.875 5.00368 22.875 5.625V9.375C22.875 9.99632 23.3787 10.5 24 10.5C24.6213 10.5 25.125 9.99632 25.125 9.375V5.625Z" fill="white"/>
<path d="M19.125 4.125C19.125 3.50368 18.6213 3 18 3C17.3787 3 16.875 3.50368 16.875 4.125V7.875C16.875 8.49632 17.3787 9 18 9C18.6213 9 19.125 8.49632 19.125 7.875V4.125Z" fill="white"/>
<path d="M12 4.5C12.6213 4.5 13.125 5.00368 13.125 5.625V9.375C13.125 9.99632 12.6213 10.5 12 10.5C11.3787 10.5 10.875 9.99632 10.875 9.375V5.625C10.875 5.00368 11.3787 4.5 12 4.5Z" fill="white"/>
<path fill-rule="evenodd" clip-rule="evenodd" d="M12.25 17.1667C12.25 16.7525 12.5858 16.4167 13 16.4167H15.1961C16.9748 16.4167 18.4167 17.8587 18.4167 19.6373C18.4167 20.9723 17.6044 22.1176 16.4472 22.6059L18.329 26.1482C18.5233 26.514 18.3843 26.9681 18.0185 27.1624C17.6527 27.3568 17.1987 27.2177 17.0043 26.8519L14.8825 22.8579H13.75V26.5001C13.75 26.9143 13.4142 27.2501 13 27.2501C12.5858 27.2501 12.25 26.9143 12.25 26.5001V17.1667ZM13.75 21.3579H15.1961C16.1463 21.3579 16.9167 20.5876 16.9167 19.6373C16.9167 18.6871 16.1463 17.9167 15.1961 17.9167H13.75V21.3579Z" fill="white"/>
<path d="M22.5 16C22.5 15.5858 22.1642 15.25 21.75 15.25C21.3358 15.25 21 15.5858 21 16V16.9395C19.9857 17.258 19.25 18.2056 19.25 19.325V19.5C19.25 20.8807 20.3693 22 21.75 22C22.3023 22 22.75 22.4477 22.75 23V23.175C22.75 23.7273 22.3023 24.175 21.75 24.175H20.3889C19.9747 24.175 19.6389 24.5108 19.6389 24.925C19.6389 25.3392 19.9747 25.675 20.3889 25.675H21V26.5C21 26.9142 21.3358 27.25 21.75 27.25C22.1642 27.25 22.5 26.9142 22.5 26.5V25.5605C23.5143 25.242 24.25 24.2944 24.25 23.175V23C24.25 21.6193 23.1307 20.5 21.75 20.5C21.1977 20.5 20.75 20.0523 20.75 19.5V19.325C20.75 18.7727 21.1977 18.325 21.75 18.325H23.1111C23.5253 18.325 23.8611 17.9892 23.8611 17.575C23.8611 17.1608 23.5253 16.825 23.1111 16.825H22.5V16Z" fill="white"/>
<path fill-rule="evenodd" clip-rule="evenodd" d="M29.25 21.75C29.25 15.5368 24.2132 10.5 18 10.5C11.7868 10.5 6.75 15.5368 6.75 21.75C6.75 27.9632 11.7868 33 18 33C24.2132 33 29.25 27.9632 29.25 21.75ZM18 12.75C22.9706 12.75 27 16.7794 27 21.75C27 26.7206 22.9706 30.75 18 30.75C13.0294 30.75 9 26.7206 9 21.75C9 16.7794 13.0294 12.75 18 12.75Z" fill="white"/>
</svg>
