<svg width="36" height="36" viewBox="0 0 36 36" fill="none" xmlns="http://www.w3.org/2000/svg">
<path d="M25.125 5.625C25.125 5.00368 24.6213 4.5 24 4.5C23.3787 4.5 22.875 5.00368 22.875 5.625V9.375C22.875 9.99632 23.3787 10.5 24 10.5C24.6213 10.5 25.125 9.99632 25.125 9.375V5.625Z" fill="white"/>
<path d="M19.125 4.125C19.125 3.50368 18.6213 3 18 3C17.3787 3 16.875 3.50368 16.875 4.125V7.875C16.875 8.49632 17.3787 9 18 9C18.6213 9 19.125 8.49632 19.125 7.875V4.125Z" fill="white"/>
<path d="M12 4.5C12.6213 4.5 13.125 5.00368 13.125 5.625V9.375C13.125 9.99632 12.6213 10.5 12 10.5C11.3787 10.5 10.875 9.99632 10.875 9.375V5.625C10.875 5.00368 11.3787 4.5 12 4.5Z" fill="white"/>
<path d="M15.1961 21.3579H13.75V17.9167H15.1961C16.1463 17.9167 16.9167 18.687 16.9167 19.6373C16.9167 20.5875 16.1463 21.3579 15.1961 21.3579Z" fill="white"/>
<path fill-rule="evenodd" clip-rule="evenodd" d="M18 33C24.2132 33 29.25 27.9632 29.25 21.75C29.25 15.5368 24.2132 10.5 18 10.5C11.7868 10.5 6.75 15.5368 6.75 21.75C6.75 27.9632 11.7868 33 18 33ZM13 16.4167C12.5858 16.4167 12.25 16.7525 12.25 17.1667V26.5C12.25 26.9142 12.5858 27.25 13 27.25C13.4142 27.25 13.75 26.9142 13.75 26.5V22.8579H14.8825L17.0043 26.8519C17.1987 27.2177 17.6527 27.3567 18.0185 27.1624C18.3843 26.968 18.5233 26.514 18.329 26.1482L16.4472 22.6059C17.6044 22.1175 18.4167 20.9723 18.4167 19.6373C18.4167 17.8586 16.9748 16.4167 15.1961 16.4167H13ZM21.75 15.25C22.1642 15.25 22.5 15.5858 22.5 16V16.825H23.1111C23.5253 16.825 23.8611 17.1608 23.8611 17.575C23.8611 17.9892 23.5253 18.325 23.1111 18.325H21.75C21.1977 18.325 20.75 18.7727 20.75 19.325V19.5C20.75 20.0523 21.1977 20.5 21.75 20.5C23.1307 20.5 24.25 21.6193 24.25 23V23.175C24.25 24.2944 23.5143 25.242 22.5 25.5605V26.5C22.5 26.9142 22.1642 27.25 21.75 27.25C21.3358 27.25 21 26.9142 21 26.5V25.675H20.3889C19.9747 25.675 19.6389 25.3392 19.6389 24.925C19.6389 24.5108 19.9747 24.175 20.3889 24.175H21.75C22.3023 24.175 22.75 23.7273 22.75 23.175V23C22.75 22.4477 22.3023 22 21.75 22C20.3693 22 19.25 20.8807 19.25 19.5V19.325C19.25 18.2056 19.9857 17.258 21 16.9395V16C21 15.5858 21.3358 15.25 21.75 15.25Z" fill="white"/>
</svg>
