<svg width="36" height="36" viewBox="0 0 36 36" fill="none" xmlns="http://www.w3.org/2000/svg">
<path fill-rule="evenodd" clip-rule="evenodd" d="M11.2541 7.06C13.3043 5.87429 15.6301 5.25 17.9977 5.25C20.3653 5.25 22.6911 5.87429 24.7413 7.05999C26.7915 8.24569 28.4938 9.95097 29.6773 12.0043C30.8607 14.0575 31.4837 16.3865 31.4837 18.7572C31.4837 21.1279 30.8607 23.4569 29.6773 25.5102C29.4015 25.9887 28.79 26.153 28.3115 25.8772C27.833 25.6015 27.6687 24.99 27.9445 24.5115C28.9528 22.7621 29.4837 20.7775 29.4837 18.7572C29.4837 16.737 28.9528 14.7524 27.9445 13.003C26.9362 11.2536 25.4861 9.80109 23.7401 8.79131C21.9941 7.78154 20.0136 7.25 17.9977 7.25C15.9818 7.25 14.0014 7.78154 12.2553 8.79131C10.5093 9.80109 9.05921 11.2536 8.05092 13.003C7.04261 14.7524 6.51172 16.737 6.51172 18.7572C6.51172 20.7775 7.04261 22.7621 8.05092 24.5115C8.32671 24.99 8.16238 25.6015 7.68389 25.8773C7.20539 26.153 6.59392 25.9887 6.31813 25.5102C5.13469 23.4569 4.51172 21.1279 4.51172 18.7572C4.51172 16.3866 5.13468 14.0575 6.31813 12.0043C7.50158 9.95097 9.20387 8.24569 11.2541 7.06ZM17.0003 10.7988C17.0003 10.2465 17.448 9.79883 18.0003 9.79883C19.1753 9.79883 20.3388 10.0307 21.4242 10.481C22.5097 10.9314 23.4958 11.5915 24.3264 12.4235C25.157 13.2555 25.8158 14.2432 26.2652 15.33C26.7147 16.4169 26.9459 17.5817 26.9459 18.758C26.9459 19.3103 26.4982 19.758 25.9459 19.758C25.3937 19.758 24.9459 19.3103 24.9459 18.758C24.9459 17.8439 24.7662 16.9387 24.417 16.0943C24.0678 15.2498 23.5561 14.4827 22.911 13.8365C22.266 13.1904 21.5003 12.6779 20.6577 12.3283C19.8152 11.9787 18.9122 11.7988 18.0003 11.7988C17.448 11.7988 17.0003 11.3511 17.0003 10.7988ZM4 28.749C3.44772 28.749 3 29.1967 3 29.749C3 30.3013 3.44772 30.749 4 30.749H31.9989C32.5512 30.749 32.9989 30.3013 32.9989 29.749C32.9989 29.1967 32.5512 28.749 31.9989 28.749H4Z" fill="white"/>
</svg>
