<svg width="36" height="36" viewBox="0 0 36 36" fill="none" xmlns="http://www.w3.org/2000/svg">
<path fill-rule="evenodd" clip-rule="evenodd" d="M25.0722 5.51357C25.0722 4.96128 24.6245 4.51357 24.0722 4.51357C23.5199 4.51357 23.0722 4.96128 23.0722 5.51357V9.29726C23.0722 9.84954 23.5199 10.2973 24.0722 10.2973C24.6245 10.2973 25.0722 9.84954 25.0722 9.29726V5.51357ZM18.998 4C18.998 3.44772 18.5502 3 17.998 3C17.4457 3 16.998 3.44772 16.998 4V7.78369C16.998 8.33597 17.4457 8.78369 17.998 8.78369C18.5502 8.78369 18.998 8.33597 18.998 7.78369V4ZM11.9257 4.51357C12.478 4.51357 12.9257 4.96128 12.9257 5.51357V9.29726C12.9257 9.84954 12.478 10.2973 11.9257 10.2973C11.3734 10.2973 10.9257 9.84954 10.9257 9.29726V5.51357C10.9257 4.96128 11.3734 4.51357 11.9257 4.51357ZM17.999 12.5673C23.1101 12.5673 27.248 16.6965 27.248 21.7833C27.248 26.8701 23.1101 30.9992 17.999 30.9992C12.8879 30.9992 8.75 26.8701 8.75 21.7833C8.75 16.6965 12.8879 12.5673 17.999 12.5673ZM29.248 21.7833C29.248 15.5858 24.2086 10.5673 17.999 10.5673C11.7894 10.5673 6.75 15.5858 6.75 21.7833C6.75 27.9807 11.7894 32.9992 17.999 32.9992C24.2086 32.9992 29.248 27.9807 29.248 21.7833ZM19.25 16.75C19.6642 16.75 20 17.0858 20 17.5V20.7102H22.5V17.5C22.5 17.0858 22.8358 16.75 23.25 16.75C23.6642 16.75 24 17.0858 24 17.5V25.75C24 26.1642 23.6642 26.5 23.25 26.5C22.8358 26.5 22.5 26.1642 22.5 25.75V22.2102H20V25.75C20 26.1642 19.6642 26.5 19.25 26.5C18.8358 26.5 18.5 26.1642 18.5 25.75V17.5C18.5 17.0858 18.8358 16.75 19.25 16.75ZM12.75 16.75C12.3358 16.75 12 17.0858 12 17.5V25.75C12 26.1642 12.3358 26.5 12.75 26.5H13.3676C15.926 26.5 18 24.426 18 21.8676C18 19.0413 15.7087 16.75 12.8823 16.75H12.75ZM13.5 24.9973V18.3025C15.2037 18.5956 16.5 20.0802 16.5 21.8676C16.5 23.5533 15.1686 24.9279 13.5 24.9973Z" fill="white"/>
</svg>
