<svg width="36" height="36" viewBox="0 0 36 36" fill="none" xmlns="http://www.w3.org/2000/svg">
<path fill-rule="evenodd" clip-rule="evenodd" d="M31.623 18.8165C31.623 21.6054 30.7781 24.1977 29.3293 26.3534H26.4357C26.4773 26.2436 26.5 26.1244 26.5 26V14C26.5 13.4477 26.0523 13 25.5 13C24.9477 13 24.5 13.4477 24.5 14V18.7601H20.7857V14C20.7857 13.4477 20.338 13 19.7857 13C19.2334 13 18.7857 13.4477 18.7857 14V26C18.7857 26.1244 18.8084 26.2436 18.85 26.3534H15.0182C16.7502 25.4274 17.9286 23.6013 17.9286 21.5V18.5C17.9286 15.4624 15.4661 13 12.4286 13H10.5C9.94772 13 9.5 13.4477 9.5 14V26C9.5 26.1244 9.52273 26.2436 9.56426 26.3534H6.67457C5.22578 24.1977 4.38086 21.6054 4.38086 18.8165C4.38086 11.3239 10.4792 5.25 18.0019 5.25C25.5246 5.25 31.623 11.3239 31.623 18.8165ZM20.7857 20.7601V26C20.7857 26.1244 20.763 26.2436 20.7215 26.3534H24.5642C24.5227 26.2436 24.5 26.1244 24.5 26V20.7601H20.7857ZM11.5 15V25H12.4286C14.3616 25 15.9286 23.433 15.9286 21.5V18.5C15.9286 16.567 14.3616 15 12.4286 15H11.5ZM4 28.7451C3.44772 28.7451 3 29.1928 3 29.7451C3 30.2974 3.44772 30.7451 4 30.7451H31.9989C32.5512 30.7451 32.9989 30.2974 32.9989 29.7451C32.9989 29.1928 32.5512 28.7451 31.9989 28.7451H4Z" fill="white"/>
</svg>
