<svg width="36" height="36" viewBox="0 0 36 36" fill="none" xmlns="http://www.w3.org/2000/svg">
<path fill-rule="evenodd" clip-rule="evenodd" d="M17.9977 5.25C15.6301 5.25 13.3043 5.87429 11.2541 7.06C9.20387 8.24569 7.50158 9.95097 6.31813 12.0043C5.13468 14.0575 4.51172 16.3866 4.51172 18.7572C4.51172 21.1279 5.13469 23.4569 6.31813 25.5102C6.59392 25.9887 7.20539 26.153 7.68389 25.8773C8.16238 25.6015 8.32671 24.99 8.05092 24.5115C7.04261 22.7621 6.51172 20.7775 6.51172 18.7572C6.51172 16.737 7.04261 14.7524 8.05092 13.003C9.05921 11.2536 10.5093 9.80109 12.2553 8.79131C14.0014 7.78154 15.9818 7.25 17.9977 7.25C20.0136 7.25 21.9941 7.78154 23.7401 8.79131C25.4861 9.80109 26.9362 11.2536 27.9445 13.003C28.9528 14.7524 29.4837 16.737 29.4837 18.7572C29.4837 20.7775 28.9528 22.7621 27.9445 24.5115C27.6687 24.99 27.833 25.6015 28.3115 25.8772C28.79 26.153 29.4015 25.9887 29.6773 25.5102C30.8607 23.4569 31.4837 21.1279 31.4837 18.7572C31.4837 16.3865 30.8607 14.0575 29.6773 12.0043C28.4938 9.95097 26.7915 8.24569 24.7413 7.05999C22.6911 5.87429 20.3653 5.25 17.9977 5.25ZM4 28.749C3.44772 28.749 3 29.1967 3 29.749C3 30.3013 3.44772 30.749 4 30.749H31.9989C32.5512 30.749 32.9989 30.3013 32.9989 29.749C32.9989 29.1967 32.5512 28.749 31.9989 28.749H4Z" fill="white"/>
<path fill-rule="evenodd" clip-rule="evenodd" d="M15.87 13C15.87 12.4477 16.3177 12 16.87 12H20.245C22.6612 12 24.62 13.9588 24.62 16.375C24.62 18.2452 23.4466 19.8413 21.7958 20.4672L24.4916 25.2597C24.7623 25.7411 24.5916 26.3508 24.1103 26.6216C23.6289 26.8923 23.0192 26.7216 22.7484 26.2403L19.6602 20.75H17.87V25.75C17.87 26.3023 17.4223 26.75 16.87 26.75C16.3177 26.75 15.87 26.3023 15.87 25.75V13ZM17.87 18.75H20.2253C20.2369 18.7498 20.2486 18.7498 20.2602 18.75C21.5649 18.7418 22.62 17.6816 22.62 16.375C22.62 15.0633 21.5567 14 20.245 14H17.87V18.75Z" fill="white"/>
<path fill-rule="evenodd" clip-rule="evenodd" d="M12.37 12C12.9223 12 13.37 12.4477 13.37 13V25.75C13.37 26.3023 12.9223 26.75 12.37 26.75C11.8177 26.75 11.37 26.3023 11.37 25.75V13C11.37 12.4477 11.8177 12 12.37 12Z" fill="white"/>
</svg>
