<svg width="36" height="36" viewBox="0 0 36 36" fill="none" xmlns="http://www.w3.org/2000/svg">
<path fill-rule="evenodd" clip-rule="evenodd" d="M29.3293 26.3534C30.7781 24.1977 31.623 21.6054 31.623 18.8165C31.623 11.3239 25.5246 5.25 18.0019 5.25C10.4792 5.25 4.38086 11.3239 4.38086 18.8165C4.38086 21.6054 5.22578 24.1977 6.67457 26.3534H29.3293ZM10.9473 16.6827C10.9473 14.7937 12.5545 12.541 15.1957 12.541C16.0257 12.541 16.7427 12.8659 17.3167 13.2611C17.5611 13.4293 17.7896 13.6171 18.0011 13.8118C18.2126 13.6171 18.441 13.4293 18.6854 13.2611C19.2594 12.8659 19.9764 12.541 20.8065 12.541C23.4476 12.541 25.0549 14.7937 25.0549 16.6827C25.0549 18.1549 24.3061 19.481 23.4279 20.5799C22.5396 21.6914 21.4075 22.7056 20.4371 23.5522L20.4132 23.573C20.0871 23.8576 19.8068 24.1021 19.5686 24.2845C19.3281 24.4687 19.0451 24.6582 18.7086 24.7575C18.2209 24.9015 17.7813 24.9015 17.2935 24.7575C16.957 24.6582 16.6741 24.4687 16.4336 24.2845C16.1953 24.1021 15.9151 23.8576 15.5889 23.573L15.5651 23.5522C14.5947 22.7056 13.4626 21.6914 12.5743 20.5799C11.6961 19.481 10.9473 18.1549 10.9473 16.6827ZM15.1957 14.541C13.8107 14.541 12.9473 15.7404 12.9473 16.6827C12.9473 17.4805 13.3635 18.3639 14.1367 19.3313C14.8997 20.2861 15.9052 21.1949 16.8799 22.0451C17.2366 22.3563 17.4683 22.5578 17.6494 22.6965C17.7948 22.8078 17.8552 22.8364 17.8635 22.8403C17.9399 22.8625 17.9795 22.8655 18.0011 22.8655C18.0227 22.8655 18.0616 22.8628 18.138 22.8407C18.1463 22.8367 18.2074 22.8078 18.3528 22.6965C18.5339 22.5578 18.7656 22.3563 19.1223 22.0451C20.0969 21.1949 21.1024 20.2861 21.8655 19.3313C22.6386 18.3639 23.0549 17.4805 23.0549 16.6827C23.0549 15.7403 22.1915 14.541 20.8065 14.541C20.5123 14.541 20.187 14.6555 19.8195 14.9085C19.4502 15.1627 19.0944 15.5185 18.758 15.9081C18.5681 16.1282 18.2918 16.2547 18.0011 16.2547C17.7104 16.2547 17.4341 16.1282 17.2441 15.9081C16.9077 15.5185 16.5519 15.1627 16.1827 14.9085C15.8152 14.6555 15.4899 14.541 15.1957 14.541ZM4 28.7451C3.44772 28.7451 3 29.1928 3 29.7451C3 30.2974 3.44772 30.7451 4 30.7451H31.9989C32.5512 30.7451 32.9989 30.2974 32.9989 29.7451C32.9989 29.1928 32.5512 28.7451 31.9989 28.7451H4Z" fill="white"/>
</svg>
