<svg width="36" height="36" viewBox="0 0 36 36" fill="none" xmlns="http://www.w3.org/2000/svg">
<path d="M11.2541 7.06C13.3043 5.87429 15.6301 5.25 17.9977 5.25C20.3653 5.25 22.6911 5.87429 24.7413 7.05999C26.7915 8.24569 28.4938 9.95097 29.6773 12.0043C30.8607 14.0575 31.4837 16.3865 31.4837 18.7572C31.4837 21.1279 30.8607 23.4569 29.6773 25.5102C29.4015 25.9887 28.79 26.153 28.3115 25.8772C27.833 25.6015 27.6687 24.99 27.9445 24.5115C28.9528 22.7621 29.4837 20.7775 29.4837 18.7572C29.4837 16.737 28.9528 14.7524 27.9445 13.003C26.9362 11.2536 25.4861 9.80109 23.7401 8.79131C21.9941 7.78154 20.0136 7.25 17.9977 7.25C15.9818 7.25 14.0014 7.78154 12.2553 8.79131C10.5093 9.80109 9.05921 11.2536 8.05092 13.003C7.04261 14.7524 6.51172 16.737 6.51172 18.7572C6.51172 20.7775 7.04261 22.7621 8.05092 24.5115C8.32671 24.99 8.16238 25.6015 7.68389 25.8773C7.20539 26.153 6.59392 25.9887 6.31813 25.5102C5.13469 23.4569 4.51172 21.1279 4.51172 18.7572C4.51172 16.3866 5.13468 14.0575 6.31813 12.0043C7.50158 9.95097 9.20387 8.24569 11.2541 7.06Z" fill="white"/>
<path d="M3 29.749C3 29.1967 3.44772 28.749 4 28.749H31.9989C32.5512 28.749 32.9989 29.1967 32.9989 29.749C32.9989 30.3013 32.5512 30.749 31.9989 30.749H4C3.44772 30.749 3 30.3013 3 29.749Z" fill="white"/>
<path fill-rule="evenodd" clip-rule="evenodd" d="M12 12C11.4477 12 11 12.4477 11 13V25.75C11 26.3023 11.4477 26.75 12 26.75H15.5247C17.8567 26.75 19.7394 24.845 19.7119 22.5131C19.6925 20.8713 18.7303 19.4594 17.3436 18.7896C17.911 18.0751 18.25 17.1709 18.25 16.1875C18.25 13.8748 16.3752 12 14.0625 12H12ZM13 24.75V20.375H15.5247C16.7227 20.375 17.6979 21.3387 17.712 22.5367C17.7264 23.7548 16.7429 24.75 15.5247 24.75H13ZM14.0625 18.375H13V14H14.0625C15.2706 14 16.25 14.9794 16.25 16.1875C16.25 17.3956 15.2706 18.375 14.0625 18.375Z" fill="white"/>
<path d="M25.5 20C23.9812 20 22.75 21.2312 22.75 22.75V25.75C22.75 26.3023 22.3023 26.75 21.75 26.75C21.1977 26.75 20.75 26.3023 20.75 25.75V18.625C20.75 18.0727 21.1977 17.625 21.75 17.625C22.3023 17.625 22.75 18.0727 22.75 18.625V18.8766C23.5261 18.3246 24.4751 18 25.5 18C26.0523 18 26.5 18.4477 26.5 19C26.5 19.5523 26.0523 20 25.5 20Z" fill="white"/>
</svg>
