<svg width="36" height="36" viewBox="0 0 36 36" fill="none" xmlns="http://www.w3.org/2000/svg">
<path d="M31.5 18.75C31.5 21.5252 30.6626 24.1049 29.2267 26.25H23.4115C23.6191 26.0668 23.75 25.7987 23.75 25.5V24.3182C25.0556 23.8965 26 22.671 26 21.225V21C26 19.2051 24.5449 17.75 22.75 17.75C22.0596 17.75 21.5 17.1904 21.5 16.5V16.275C21.5 15.5846 22.0596 15.025 22.75 15.025H24.5C25.0523 15.025 25.5 14.5773 25.5 14.025C25.5 13.4727 25.0523 13.025 24.5 13.025H23.75V12C23.75 11.4477 23.3023 11 22.75 11C22.1977 11 21.75 11.4477 21.75 12V13.1817C20.4444 13.6035 19.5 14.829 19.5 16.275V16.5C19.5 18.2949 20.9551 19.75 22.75 19.75C23.4404 19.75 24 20.3096 24 21V21.225C24 21.9154 23.4404 22.475 22.75 22.475H21C20.4477 22.475 20 22.9227 20 23.475C20 24.0273 20.4477 24.475 21 24.475H21.75V25.5C21.75 25.7987 21.8809 26.0668 22.0885 26.25H18.1618C18.5013 25.9509 18.6047 25.4479 18.3831 25.0308L15.9818 20.5108C17.4634 19.8691 18.5 18.3938 18.5 16.6765C18.5 14.3699 16.6301 12.5 14.3235 12.5H11.5C10.9477 12.5 10.5 12.9477 10.5 13.5V25.5C10.5 25.7987 10.6309 26.0668 10.8385 26.25H6.77332C5.33741 24.1049 4.5 21.5252 4.5 18.75C4.5 11.2942 10.5442 5.25 18 5.25C25.4558 5.25 31.5 11.2942 31.5 18.75Z" fill="white"/>
<path d="M12.1615 26.25C12.3691 26.0668 12.5 25.7987 12.5 25.5V20.8529H13.8989L16.6169 25.9692C16.675 26.0785 16.7505 26.1727 16.8382 26.25H12.1615Z" fill="white"/>
<path d="M14.3235 18.8529H12.5V14.5H14.3235C15.5256 14.5 16.5 15.4744 16.5 16.6765C16.5 17.8785 15.5256 18.8529 14.3235 18.8529Z" fill="white"/>
<path d="M4.125 28.5C3.50368 28.5 3 29.0037 3 29.625C3 30.2463 3.50368 30.75 4.125 30.75H31.875C32.4963 30.75 33 30.2463 33 29.625C33 29.0037 32.4963 28.5 31.875 28.5H4.125Z" fill="white"/>
</svg>
