<svg width="36" height="36" viewBox="0 0 36 36" fill="none" xmlns="http://www.w3.org/2000/svg">
<path d="M25.125 5.625C25.125 5.00368 24.6213 4.5 24 4.5C23.3787 4.5 22.875 5.00368 22.875 5.625V9.375C22.875 9.99632 23.3787 10.5 24 10.5C24.6213 10.5 25.125 9.99632 25.125 9.375V5.625Z" fill="white"/>
<path d="M19.125 4.125C19.125 3.50368 18.6213 3 18 3C17.3787 3 16.875 3.50368 16.875 4.125V7.875C16.875 8.49632 17.3787 9 18 9C18.6213 9 19.125 8.49632 19.125 7.875V4.125Z" fill="white"/>
<path d="M12 4.5C12.6213 4.5 13.125 5.00368 13.125 5.625V9.375C13.125 9.99632 12.6213 10.5 12 10.5C11.3787 10.5 10.875 9.99632 10.875 9.375V5.625C10.875 5.00368 11.3787 4.5 12 4.5Z" fill="white"/>
<path d="M18.75 23.3076H21.5C21.9142 23.3076 22.25 22.9718 22.25 22.5576C22.25 22.1434 21.9142 21.8076 21.5 21.8076H19.3464L22.3877 16.8947C22.6057 16.5426 22.4969 16.0803 22.1447 15.8623C21.7926 15.6443 21.3303 15.753 21.1123 16.1052L18 21.1328L14.8877 16.1052C14.6697 15.753 14.2074 15.6443 13.8552 15.8623C13.503 16.0803 13.3943 16.5426 13.6123 16.8947L16.6536 21.8076H14.5C14.0858 21.8076 13.75 22.1434 13.75 22.5576C13.75 22.9718 14.0858 23.3076 14.5 23.3076H17.25V25.2693H14.5C14.0858 25.2693 13.75 25.6051 13.75 26.0193C13.75 26.4335 14.0858 26.7693 14.5 26.7693H17.25V27.7499C17.25 28.1641 17.5858 28.4999 18 28.4999C18.4142 28.4999 18.75 28.1641 18.75 27.7499V26.7693H21.5C21.9142 26.7693 22.25 26.4335 22.25 26.0193C22.25 25.6051 21.9142 25.2693 21.5 25.2693H18.75V23.3076Z" fill="white"/>
<path fill-rule="evenodd" clip-rule="evenodd" d="M29.25 21.75C29.25 15.5368 24.2132 10.5 18 10.5C11.7868 10.5 6.75 15.5368 6.75 21.75C6.75 27.9632 11.7868 33 18 33C24.2132 33 29.25 27.9632 29.25 21.75ZM18 12.75C22.9706 12.75 27 16.7794 27 21.75C27 26.7206 22.9706 30.75 18 30.75C13.0294 30.75 9 26.7206 9 21.75C9 16.7794 13.0294 12.75 18 12.75Z" fill="white"/>
</svg>
