<svg width="36" height="36" viewBox="0 0 36 36" fill="none" xmlns="http://www.w3.org/2000/svg">
<path fill-rule="evenodd" clip-rule="evenodd" d="M24.5 5.50977C24.5 4.95748 24.0523 4.50977 23.5 4.50977C22.9477 4.50977 22.5 4.95748 22.5 5.50977V9.27546C22.5 9.82774 22.9477 10.2755 23.5 10.2755C24.0523 10.2755 24.5 9.82774 24.5 9.27546V5.50977ZM18.5 4.00391C18.5 3.45162 18.0523 3.00391 17.5 3.00391C16.9477 3.00391 16.5 3.45162 16.5 4.00391V7.7696C16.5 8.32188 16.9477 8.7696 17.5 8.7696C18.0523 8.7696 18.5 8.32188 18.5 7.7696V4.00391ZM11.5 4.50977C12.0523 4.50977 12.5 4.95748 12.5 5.50977V9.27546C12.5 9.82774 12.0523 10.2755 11.5 10.2755C10.9477 10.2755 10.5 9.82774 10.5 9.27546V5.50977C10.5 4.95748 10.9477 4.50977 11.5 4.50977ZM28.75 21.7052C28.75 27.9455 23.7132 33.0042 17.5 33.0042C11.2868 33.0042 6.25 27.9455 6.25 21.7052C6.25 15.465 11.2868 10.4062 17.5 10.4062C23.7132 10.4062 28.75 15.465 28.75 21.7052ZM14.775 16.0556C14.775 15.5862 15.1556 15.2056 15.625 15.2056H18.8003C20.8298 15.2056 22.475 16.8509 22.475 18.8804C22.475 20.9099 20.8298 22.5551 18.8003 22.5551H16.475V24.6214H19.375C19.8444 24.6214 20.225 25.002 20.225 25.4714C20.225 25.9409 19.8444 26.3214 19.375 26.3214H16.475V27.7312C16.475 28.2007 16.0944 28.5812 15.625 28.5812C15.1556 28.5812 14.775 28.2007 14.775 27.7312V26.3214H13.375C12.9056 26.3214 12.525 25.9409 12.525 25.4714C12.525 25.002 12.9056 24.6214 13.375 24.6214H14.775V22.5551H13.375C12.9056 22.5551 12.525 22.1746 12.525 21.7051C12.525 21.2357 12.9056 20.8551 13.375 20.8551H14.775V16.0556ZM16.475 20.8551H18.8003C19.8909 20.8551 20.775 19.971 20.775 18.8804C20.775 17.7898 19.8909 16.9056 18.8003 16.9056H16.475V20.8551Z" fill="white"/>
</svg>
