<svg width="36" height="36" viewBox="0 0 36 36" fill="none" xmlns="http://www.w3.org/2000/svg">
<path fill-rule="evenodd" clip-rule="evenodd" d="M11.25 7.05866C13.3023 5.87379 15.6303 5.25 18 5.25C20.3697 5.25 22.6977 5.87378 24.75 7.05866C26.8023 8.24353 28.5065 9.94774 29.6913 12C30.8762 14.0523 31.5 16.3803 31.5 18.75C31.5 21.1197 30.8762 23.4477 29.6913 25.5C29.3807 26.0381 28.6926 26.2224 28.1546 25.9118C27.6165 25.6011 27.4321 24.9131 27.7428 24.375C28.7302 22.6648 29.25 20.7248 29.25 18.75C29.25 16.7752 28.7302 14.8352 27.7428 13.125C26.7554 11.4148 25.3352 9.99461 23.625 9.00721C21.9148 8.01982 19.9748 7.5 18 7.5C16.0252 7.5 14.0852 8.01982 12.375 9.00722C10.6648 9.99461 9.24461 11.4148 8.25721 13.125C7.26982 14.8352 6.75 16.7752 6.75 18.75C6.75 20.7248 7.26982 22.6648 8.25722 24.375C8.56788 24.9131 8.38352 25.6011 7.84544 25.9118C7.30736 26.2224 6.61932 26.0381 6.30866 25.5C5.12379 23.4477 4.5 21.1197 4.5 18.75C4.5 16.3803 5.12378 14.0523 6.30866 12C7.49353 9.94774 9.19774 8.24353 11.25 7.05866ZM3 29.625C3 29.0037 3.50368 28.5 4.125 28.5H31.875C32.4963 28.5 33 29.0037 33 29.625C33 30.2463 32.4963 30.75 31.875 30.75H4.125C3.50368 30.75 3 30.2463 3 29.625ZM13.875 11.25C13.2537 11.25 12.75 11.7537 12.75 12.375C12.75 12.9963 13.2537 13.5 13.875 13.5H16.875C17.741 13.5 18.3763 13.8795 18.8188 14.409C18.9751 14.5961 19.1032 14.7973 19.2043 15H14.625C14.0037 15 13.5 15.5037 13.5 16.125C13.5 16.7463 14.0037 17.25 14.625 17.25H19.2043C19.1032 17.4527 18.9751 17.6539 18.8188 17.841C18.3763 18.3705 17.741 18.75 16.875 18.75H13.875C13.2537 18.75 12.75 19.2537 12.75 19.875C12.75 20.2174 12.903 20.5241 13.1443 20.7304C13.1633 20.7527 13.1834 20.7744 13.2045 20.7955L19.0795 26.6705C19.5188 27.1098 20.2312 27.1098 20.6705 26.6705C21.1098 26.2312 21.1098 25.5188 20.6705 25.0795L16.591 21H16.875C18.4943 21 19.734 20.2545 20.5452 19.284C21.0556 18.6733 21.4109 17.9579 21.5975 17.25H22.875C23.4963 17.25 24 16.7463 24 16.125C24 15.5037 23.4963 15 22.875 15H21.5975C21.463 14.4899 21.241 13.9759 20.9364 13.5H22.875C23.4963 13.5 24 12.9963 24 12.375C24 11.7537 23.4963 11.25 22.875 11.25H13.875Z" fill="white"/>
</svg>
