<svg width="36" height="36" viewBox="0 0 36 36" fill="none" xmlns="http://www.w3.org/2000/svg">
<path fill-rule="evenodd" clip-rule="evenodd" d="M24.5 5.50977C24.5 4.95748 24.0523 4.50977 23.5 4.50977C22.9477 4.50977 22.5 4.95748 22.5 5.50977V9.27546C22.5 9.82774 22.9477 10.2755 23.5 10.2755C24.0523 10.2755 24.5 9.82774 24.5 9.27546V5.50977ZM18.5 4.00391C18.5 3.45162 18.0523 3.00391 17.5 3.00391C16.9477 3.00391 16.5 3.45162 16.5 4.00391V7.7696C16.5 8.32188 16.9477 8.7696 17.5 8.7696C18.0523 8.7696 18.5 8.32188 18.5 7.7696V4.00391ZM11.5 4.50977C12.0523 4.50977 12.5 4.95748 12.5 5.50977V9.27546C12.5 9.82774 12.0523 10.2755 11.5 10.2755C10.9477 10.2755 10.5 9.82774 10.5 9.27546V5.50977C10.5 4.95748 10.9477 4.50977 11.5 4.50977ZM17.5 33.0042C23.7132 33.0042 28.75 27.9455 28.75 21.7052C28.75 15.465 23.7132 10.4062 17.5 10.4062C11.2868 10.4062 6.25 15.465 6.25 21.7052C6.25 27.9455 11.2868 33.0042 17.5 33.0042ZM17.25 16.749C16.8358 16.749 16.5 17.0848 16.5 17.499V26.499C16.5 26.9132 16.8358 27.249 17.25 27.249C17.6642 27.249 18 26.9132 18 26.499V23.0137H19.0492L21.0877 26.8509C21.282 27.2167 21.7361 27.3557 22.1019 27.1614C22.4677 26.967 22.6067 26.513 22.4123 26.1472L20.6114 22.7571C21.7226 22.2759 22.5 21.1694 22.5 19.8814C22.5 18.1514 21.0976 16.749 19.3676 16.749H17.25ZM19.3676 21.5137H18V18.249H19.3676C20.2692 18.249 21 18.9799 21 19.8814C21 20.7829 20.2692 21.5137 19.3676 21.5137ZM14.25 16.749C14.6642 16.749 15 17.0848 15 17.499V26.499C15 26.9132 14.6642 27.249 14.25 27.249C13.8358 27.249 13.5 26.9132 13.5 26.499V17.499C13.5 17.0848 13.8358 16.749 14.25 16.749Z" fill="white"/>
</svg>
