<svg width="36" height="36" viewBox="0 0 36 36" fill="none" xmlns="http://www.w3.org/2000/svg">
<path d="M10.5 24.5C9.94772 24.5 9.5 24.9477 9.5 25.5V25.5146C9.5 26.0669 9.94772 26.5146 10.5 26.5146C11.0523 26.5146 11.5 26.0669 11.5 25.5146V25.5C11.5 24.9477 11.0523 24.5 10.5 24.5Z" fill="white"/>
<path fill-rule="evenodd" clip-rule="evenodd" d="M7.5 3.5C6.43913 3.5 5.42202 3.92173 4.67188 4.67188C3.92173 5.42202 3.5 6.43913 3.5 7.5V25.5C3.5 27.3565 4.23705 29.1374 5.5498 30.4502C6.86256 31.763 8.64349 32.5 10.5 32.5H28.5C29.5609 32.5 30.578 32.0783 31.3281 31.3281C32.0783 30.578 32.5 29.5609 32.5 28.5V22.5C32.5 21.4391 32.0783 20.422 31.3281 19.6719C30.578 18.9217 29.5609 18.5 28.5 18.5H27.4072L28.6914 17.2158C29.4412 16.4657 29.8623 15.4483 29.8623 14.3877C29.8622 13.3271 29.4412 12.3096 28.6914 11.5596L24.4492 7.31836C23.6991 6.56855 22.6817 6.14651 21.6211 6.14648C20.5605 6.14648 19.5431 6.56762 18.793 7.31738L17.5 8.61133V7.5C17.5 6.43913 17.0783 5.42202 16.3281 4.67188C15.578 3.92173 14.5609 3.5 13.5 3.5H7.5ZM28.5 20.5C29.0304 20.5 29.539 20.7109 29.9141 21.0859C30.2891 21.461 30.5 21.9696 30.5 22.5V28.5C30.5 29.0304 30.2891 29.539 29.9141 29.9141C29.539 30.2891 29.0304 30.5 28.5 30.5H15.4072L25.4072 20.5H28.5ZM13.5 5.5C14.0304 5.5 14.539 5.71086 14.9141 6.08594C15.2891 6.46101 15.5 6.96957 15.5 7.5V25.5L15.4941 25.748C15.4328 26.9838 14.9142 28.1561 14.0352 29.0352C13.0975 29.9728 11.8261 30.5 10.5 30.5C9.17392 30.5 7.90252 29.9728 6.96484 29.0352C6.02716 28.0975 5.5 26.8261 5.5 25.5V7.5C5.5 6.96957 5.71087 6.46101 6.08594 6.08594C6.46101 5.71086 6.96957 5.5 7.5 5.5H13.5ZM21.6211 8.14648C22.1514 8.14651 22.6601 8.3575 23.0352 8.73242L27.2764 12.9736C27.6512 13.3486 27.8622 13.8575 27.8623 14.3877C27.8623 14.918 27.6513 15.4267 27.2764 15.8018L17.498 25.5811C17.4984 25.554 17.5 25.527 17.5 25.5V11.4395L20.207 8.73242C20.5821 8.35748 21.0908 8.14648 21.6211 8.14648Z" fill="white"/>
</svg>
