<svg width="36" height="36" viewBox="0 0 36 36" fill="none" xmlns="http://www.w3.org/2000/svg">
<path d="M6.83301 16.6455C7.20527 16.3839 7.70928 16.5634 7.91016 16.9717C9.32603 19.8497 11.9316 22.0046 15.0303 22.8447C15.9752 23.1147 16.9651 23.25 18 23.25C18.7309 23.25 19.431 23.1803 20.1113 23.0527C20.5437 22.9718 20.9739 23.2491 20.9932 23.6885C20.9977 23.7927 21 23.8971 21 24C21 26.655 19.845 29.0554 18 30.6904C16.41 32.1303 14.3099 33 12 33C7.03501 33 3.00002 28.965 3 24C3 20.9629 4.52087 18.2716 6.83301 16.6455Z" fill="white"/>
<path d="M28.0908 16.9727C28.2917 16.564 28.7955 16.3845 29.168 16.6465C31.4796 18.2726 33 20.9634 33 24C33 28.965 28.965 33 24 33C22.8833 33 21.8086 32.7962 20.8213 32.4209C20.3436 32.239 20.2544 31.6275 20.5869 31.2393C22.2999 29.2406 23.25 26.6789 23.25 24C23.25 23.49 23.2049 22.98 23.1299 22.5C23.0853 22.2233 23.2265 21.9512 23.4717 21.8154C25.4578 20.7159 27.0801 19.031 28.0908 16.9727Z" fill="white"/>
<path d="M18 3C22.965 3 27 7.035 27 12C27 13.17 26.7751 14.2954 26.3701 15.3154C25.3351 17.9252 23.1149 19.9346 20.3701 20.6846C19.6201 20.8946 18.825 21 18 21C17.175 21 16.3799 20.8946 15.6299 20.6846C12.8851 19.9346 10.6649 17.9252 9.62988 15.3154C9.22488 14.2954 9 13.17 9 12C9 7.035 13.035 3 18 3Z" fill="white"/>
</svg>
