<svg width="36" height="36" viewBox="0 0 36 36" fill="none" xmlns="http://www.w3.org/2000/svg">
<path fill-rule="evenodd" clip-rule="evenodd" d="M18 3.25C23.1035 3.25 27.25 7.39649 27.25 12.5C27.25 13.3309 27.137 14.14 26.9307 14.9082C30.3332 16.2699 32.7499 19.6127 32.75 23.5C32.7499 28.6034 28.6034 32.75 23.5 32.75C21.4376 32.75 19.5357 32.0737 18 30.9258C16.4643 32.0737 14.5624 32.75 12.5 32.75C7.39655 32.75 3.25013 28.6034 3.25 23.5C3.25013 19.6127 5.66681 16.2699 9.06934 14.9082C8.86268 14.1401 8.75 13.3309 8.75 12.5C8.75003 7.39649 12.8965 3.25 18 3.25ZM9.79395 16.7715C7.13742 17.8427 5.25013 20.4626 5.25 23.5C5.25013 27.4989 8.50112 30.75 12.5 30.75C14.3606 30.75 16.049 30.0509 17.3291 28.8916L17.3369 28.8848C18.7277 27.6522 19.6317 25.8778 19.7393 23.8984L19.75 23.5C19.75 22.8534 19.663 22.225 19.5049 21.6299C19.4689 21.6357 19.4326 21.6391 19.3965 21.6445C19.3283 21.6548 19.26 21.6651 19.1914 21.6738C19.1388 21.6805 19.0861 21.6866 19.0332 21.6924C18.9686 21.6995 18.9038 21.7052 18.8389 21.7109C18.793 21.715 18.7472 21.7193 18.7012 21.7227C18.6129 21.7291 18.5244 21.7343 18.4355 21.7383C18.4118 21.7394 18.3881 21.7413 18.3643 21.7422C18.2433 21.7467 18.1219 21.75 18 21.75C17.8948 21.75 17.79 21.7485 17.6855 21.7451C16.9544 21.7217 16.2411 21.6152 15.5576 21.4238C15.25 21.3395 14.9491 21.2392 14.6553 21.125C14.6442 21.1207 14.6331 21.1166 14.6221 21.1123C14.48 21.0565 14.3397 20.9971 14.2012 20.9346C14.1963 20.9324 14.1914 20.93 14.1865 20.9277C13.6141 20.6682 13.0732 20.3524 12.5703 19.9873C12.558 19.9784 12.5454 19.9699 12.5332 19.9609C11.9084 19.5025 11.344 18.9676 10.8525 18.3701C10.8421 18.3574 10.8317 18.3448 10.8213 18.332C10.433 17.8548 10.0918 17.3383 9.80371 16.7891C9.8006 16.7831 9.79704 16.7774 9.79395 16.7715ZM26.2051 16.7715C25.1864 18.7238 23.4927 20.2656 21.4297 21.0908C21.5038 21.3665 21.5655 21.6472 21.6143 21.9326C21.6184 21.9564 21.623 21.9801 21.627 22.0039C21.6653 22.2395 21.6946 22.4778 21.7148 22.7188C21.722 22.8021 21.7275 22.8858 21.7324 22.9697C21.7349 23.014 21.7383 23.0582 21.7402 23.1025C21.746 23.2343 21.75 23.367 21.75 23.5C21.75 23.6582 21.7442 23.8154 21.7363 23.9717C21.7337 24.0229 21.73 24.074 21.7266 24.125C21.7195 24.2297 21.7107 24.3338 21.7002 24.4375C21.6937 24.5012 21.6864 24.5646 21.6787 24.6279C21.6677 24.7176 21.6551 24.8067 21.6416 24.8955C21.632 24.9589 21.6222 25.022 21.6113 25.085C21.5952 25.1779 21.5775 25.2703 21.5586 25.3623C21.5467 25.4204 21.5355 25.4785 21.5225 25.5361C21.5027 25.6236 21.4803 25.7103 21.458 25.7969C21.4417 25.8605 21.4259 25.9242 21.4082 25.9873C21.3837 26.0748 21.3571 26.1616 21.3301 26.248C21.2889 26.3802 21.2452 26.5111 21.1982 26.6406C21.1788 26.6942 21.1591 26.7476 21.1387 26.8008C21.1034 26.8928 21.0655 26.9836 21.0273 27.0742C21.0093 27.117 20.9913 27.1597 20.9727 27.2021C20.9376 27.2819 20.9014 27.3609 20.8643 27.4395C20.8349 27.5013 20.8051 27.5629 20.7744 27.624C20.7374 27.6978 20.7 27.7711 20.6611 27.8438C20.6351 27.8923 20.6079 27.9402 20.5811 27.9883C20.2818 28.5239 19.9309 29.026 19.5342 29.4883C19.5211 29.5035 19.5093 29.52 19.4961 29.5352C20.6413 30.304 22.0154 30.75 23.5 30.75C27.4989 30.75 30.7499 27.4988 30.75 23.5C30.7499 20.5573 28.9784 18.0063 26.4521 16.876L26.2051 16.7715ZM18 5.25C14.0011 5.25 10.75 8.50106 10.75 12.5C10.75 13.3263 10.889 14.1234 11.1416 14.8584L11.2568 15.1699C11.3056 15.2928 11.3579 15.4147 11.4131 15.5342C11.579 15.8936 11.774 16.2368 11.9941 16.5615C12.8749 17.8603 14.1657 18.8595 15.6816 19.3721L16.0908 19.4971L16.0967 19.498C16.6906 19.6643 17.3286 19.75 18 19.75C18.0839 19.75 18.1672 19.7488 18.25 19.7461C18.8301 19.7276 19.3836 19.6436 19.9033 19.498L19.9092 19.4971C20.3236 19.3838 20.7232 19.2349 21.1045 19.0537C21.2317 18.9933 21.3565 18.9288 21.4795 18.8613C21.8484 18.6589 22.1981 18.426 22.5244 18.165C22.7417 17.9913 22.9487 17.8055 23.1445 17.6084C23.3407 17.4109 23.5257 17.2023 23.6982 16.9834C23.8221 16.8263 23.9371 16.6623 24.0479 16.4951C24.3223 16.0807 24.5576 15.638 24.7432 15.1699L24.8584 14.8584C25.111 14.1234 25.25 13.3263 25.25 12.5C25.25 8.50106 21.9989 5.25 18 5.25Z" fill="white"/>
</svg>
