<svg width="36" height="36" viewBox="0 0 36 36" fill="none" xmlns="http://www.w3.org/2000/svg">
<path d="M22.2207 24.6309L14.8516 32H29.667C30.2857 31.9999 30.8789 31.7539 31.3164 31.3164C31.7539 30.8789 31.9999 30.2857 32 29.667V23C32 22.3812 31.754 21.7872 31.3164 21.3496C30.8789 20.9123 30.2856 20.6671 29.667 20.667H26.2607L22.2207 24.6309Z" fill="white"/>
<path fill-rule="evenodd" clip-rule="evenodd" d="M6.33301 4C5.71429 4.00009 5.1211 4.24609 4.68359 4.68359C4.24609 5.1211 4.00009 5.71429 4 6.33301V26.333C4 27.8359 4.59745 29.2771 5.66016 30.3398C6.72286 31.4025 8.1641 32 9.66699 32C11.1698 31.9999 12.6112 31.4025 13.6738 30.3398C14.7363 29.2772 15.333 27.8357 15.333 26.333V6.33301C15.3329 5.71444 15.0877 5.12107 14.6504 4.68359C14.2128 4.24601 13.6188 4 13 4H6.33301ZM9.66699 25.333C10.219 25.3332 10.6668 25.781 10.667 26.333V26.3496C10.667 26.9018 10.2191 27.3494 9.66699 27.3496C9.11471 27.3496 8.66699 26.9019 8.66699 26.3496V26.333C8.66717 25.7809 9.11482 25.333 9.66699 25.333Z" fill="white"/>
<path d="M22.0234 6.94043C21.4048 6.94043 20.8116 7.18666 20.374 7.62402L19.25 8.74805L17.333 10.6777V26.333C17.333 26.4543 17.3309 26.5757 17.3252 26.6963L28.3857 15.6357C28.8228 15.1982 29.0693 14.6048 29.0693 13.9863C29.0692 13.3677 28.8231 12.7744 28.3857 12.3369L23.6729 7.62402C23.2353 7.18662 22.6421 6.94046 22.0234 6.94043Z" fill="white"/>
</svg>
