<svg width="36" height="36" viewBox="0 0 36 36" fill="none" xmlns="http://www.w3.org/2000/svg">
<path fill-rule="evenodd" clip-rule="evenodd" d="M8.56222 3H10.6145C10.933 4.01428 11.8806 4.75 13 4.75H22C23.1194 4.75 24.067 4.01428 24.3855 3H26.4378C26.0807 5.12828 24.2297 6.75 22 6.75H13C10.7703 6.75 8.91928 5.12828 8.56222 3ZM22 31.25H13C11.8806 31.25 10.933 31.9857 10.6145 33H8.56222C8.91928 30.8717 10.7703 29.25 13 29.25H22C24.2297 29.25 26.0807 30.8717 26.4378 33H24.3855C24.067 31.9857 23.1194 31.25 22 31.25ZM8.5 13.5C8.5 11.0147 10.5147 9 13 9H22C24.4853 9 26.5 11.0147 26.5 13.5V22.5C26.5 24.9853 24.4853 27 22 27H13C10.5147 27 8.5 24.9853 8.5 22.5V13.5ZM21.8047 13.7929C22.2642 14.0993 22.3884 14.7202 22.0821 15.1797L17.8096 21.5883C17.3216 22.3204 16.2625 22.3664 15.7128 21.6793L12.9691 18.2497C12.6241 17.8184 12.694 17.1891 13.1253 16.8441C13.5566 16.4991 14.1859 16.569 14.5309 17.0003L16.6765 19.6824L20.4179 14.0703C20.7243 13.6108 21.3452 13.4866 21.8047 13.7929Z" fill="white"/>
</svg>
