<svg width="36" height="36" viewBox="0 0 36 36" fill="none" xmlns="http://www.w3.org/2000/svg">
<path fill-rule="evenodd" clip-rule="evenodd" d="M8.56225 3H10.6145C10.9331 4.01428 11.8806 4.75 13 4.75H22C23.1194 4.75 24.067 4.01428 24.3856 3H26.4378C26.0808 5.12828 24.2298 6.75 22 6.75H13C10.7703 6.75 8.91931 5.12828 8.56225 3ZM22 31.25H13C11.8806 31.25 10.9331 31.9857 10.6145 33H8.56225C8.91931 30.8717 10.7703 29.25 13 29.25H22C24.2298 29.25 26.0808 30.8717 26.4378 33H24.3856C24.067 31.9857 23.1194 31.25 22 31.25ZM8.50004 13.5C8.50004 11.0147 10.5148 9 13 9H22C22.8129 9 23.5754 9.21551 24.2335 9.59252L29.7461 4.08C30.1366 3.68948 30.7697 3.68948 31.1603 4.08C31.5508 4.47053 31.5508 5.10369 31.1603 5.49422L5.70442 30.9501C5.3139 31.3406 4.68073 31.3406 4.29021 30.9501C3.89968 30.5595 3.89968 29.9264 4.29021 29.5358L9.09256 24.7335C8.71555 24.0754 8.50004 23.3128 8.50004 22.5V13.5ZM14.1279 19.6981L15.5508 18.2752L14.5309 17.0003C14.1859 16.569 13.5566 16.4991 13.1253 16.8441C12.6941 17.1891 12.6242 17.8184 12.9692 18.2497L14.1279 19.6981ZM26.5 13.5C26.5 13.313 26.4886 13.1287 26.4665 12.9478L17.7712 21.6431C17.692 21.7499 17.6001 21.8405 17.4994 21.9149L12.4478 26.9665C12.6288 26.9886 12.8131 27 13 27H22C24.4853 27 26.5 24.9853 26.5 22.5V13.5Z" fill="white"/>
</svg>
