<svg width="36" height="36" viewBox="0 0 36 36" fill="none" xmlns="http://www.w3.org/2000/svg">
<path fill-rule="evenodd" clip-rule="evenodd" d="M18 10.5C21.803 10.5 24.9426 13.3308 25.4316 17H33V19H25.4316C24.9426 22.6692 21.803 25.5 18 25.5C14.197 25.5 11.0574 22.6692 10.5684 19H3V17H10.5684C11.0574 13.3308 14.197 10.5 18 10.5ZM18 12.5C14.9624 12.5 12.5 14.9624 12.5 18C12.5 21.0376 14.9624 23.5 18 23.5C21.0376 23.5 23.5 21.0376 23.5 18C23.5 14.9624 21.0376 12.5 18 12.5Z" fill="white"/>
</svg>
