<svg width="36" height="36" viewBox="0 0 36 36" fill="none" xmlns="http://www.w3.org/2000/svg">
<path fill-rule="evenodd" clip-rule="evenodd" d="M18 33C26.2843 33 33 26.2843 33 18C33 9.71573 26.2843 3 18 3C9.71573 3 3 9.71573 3 18C3 26.2843 9.71573 33 18 33ZM24.2437 9.7155C24.5702 9.96158 24.7141 10.3817 24.6069 10.7763L22.2743 19.3623C22.0051 20.3535 21.3648 21.2031 20.4863 21.7351L12.8758 26.3439C12.5261 26.5557 12.0826 26.5333 11.756 26.2872C11.4294 26.0411 11.2856 25.621 11.3928 25.2264L13.7253 16.6404C13.9946 15.6492 14.6348 14.7996 15.5134 14.2675L23.1238 9.65875C23.4736 9.44694 23.9171 9.46941 24.2437 9.7155ZM15.6554 17.1647C15.7227 16.9169 15.8364 16.6868 15.9882 16.4854L20.0115 19.5173C19.8598 19.7187 19.6699 19.8914 19.4503 20.0244L13.9783 23.3382L15.6554 17.1647Z" fill="white"/>
</svg>
