<svg width="36" height="36" viewBox="0 0 36 36" fill="none" xmlns="http://www.w3.org/2000/svg">
<path fill-rule="evenodd" clip-rule="evenodd" d="M18.0005 5C14.6135 5 11.3621 6.36585 8.96243 8.80208C8.57487 9.19555 7.94173 9.20034 7.54826 8.81277C7.15479 8.42521 7.15001 7.79207 7.53757 7.3986C10.3099 4.58403 14.0732 3 18.0005 3C21.9278 3 25.6912 4.58402 28.4635 7.3986C28.851 7.79206 28.8463 8.42521 28.4528 8.81277C28.0593 9.20033 27.4262 9.19555 27.0386 8.80208C24.6389 6.36585 21.3875 5 18.0005 5ZM18.0005 9.54102C15.7995 9.54102 13.6857 10.4285 12.1247 12.0133C11.7371 12.4067 11.104 12.4115 10.7105 12.0239C10.3171 11.6364 10.3123 11.0032 10.6998 10.6098C12.6335 8.64668 15.2593 7.54102 18.0005 7.54102C20.7417 7.54102 23.3675 8.64668 25.3011 10.6098C25.6886 11.0032 25.6839 11.6364 25.2904 12.0239C24.8969 12.4115 24.2638 12.4067 23.8762 12.0133C22.3153 10.4285 20.2014 9.54102 18.0005 9.54102ZM12.1247 23.9869C11.7371 23.5935 11.104 23.5887 10.7105 23.9762C10.3171 24.3638 10.3123 24.997 10.6998 25.3904C12.6335 27.3535 15.2593 28.4592 18.0005 28.4592C20.7417 28.4592 23.3675 27.3535 25.3011 25.3904C25.6886 24.997 25.6839 24.3638 25.2904 23.9762C24.8969 23.5887 24.2638 23.5935 23.8762 23.9869C22.3153 25.5717 20.2014 26.4592 18.0005 26.4592C15.7995 26.4592 13.6857 25.5717 12.1247 23.9869ZM7.54826 27.1861C7.94173 26.7985 8.57487 26.8033 8.96243 27.1968C11.3621 29.633 14.6135 30.9989 18.0005 30.9989C21.3875 30.9989 24.639 29.633 27.0386 27.1968C27.4262 26.8033 28.0593 26.7985 28.4528 27.1861C28.8463 27.5737 28.851 28.2068 28.4635 28.6003C25.6912 31.4149 21.9278 32.9989 18.0005 32.9989C14.0732 32.9989 10.3099 31.4149 7.53757 28.6003C7.15001 28.2068 7.15479 27.5737 7.54826 27.1861ZM18.0008 21.0265C19.6474 21.0265 20.9822 19.6713 20.9822 17.9996C20.9822 16.3278 19.6474 14.9727 18.0008 14.9727C16.3541 14.9727 15.0193 16.3278 15.0193 17.9996C15.0193 19.6713 16.3541 21.0265 18.0008 21.0265Z" fill="white"/>
</svg>
