<svg width="36" height="36" viewBox="0 0 36 36" fill="none" xmlns="http://www.w3.org/2000/svg">
<path fill-rule="evenodd" clip-rule="evenodd" d="M18.0005 5C14.6135 5 11.3621 6.36585 8.96243 8.80208C8.57487 9.19555 7.94173 9.20034 7.54826 8.81277C7.15479 8.42521 7.15001 7.79207 7.53757 7.3986C10.3099 4.58403 14.0732 3 18.0005 3C21.9278 3 25.6912 4.58402 28.4635 7.3986C28.851 7.79206 28.8463 8.42521 28.4528 8.81277C28.0593 9.20033 27.4262 9.19555 27.0386 8.80208C24.6389 6.36585 21.3875 5 18.0005 5ZM18.0005 9.54102C15.7995 9.54102 13.6857 10.4285 12.1247 12.0133C11.7371 12.4067 11.104 12.4115 10.7105 12.0239C10.3171 11.6364 10.3123 11.0032 10.6998 10.6098C12.6335 8.64668 15.2593 7.54102 18.0005 7.54102C20.7417 7.54102 23.3675 8.64668 25.3011 10.6098C25.6886 11.0032 25.6839 11.6364 25.2904 12.0239C24.8969 12.4115 24.2638 12.4067 23.8762 12.0133C22.3153 10.4285 20.2014 9.54102 18.0005 9.54102ZM12.1247 23.9869C11.7371 23.5935 11.104 23.5887 10.7105 23.9762C10.3171 24.3638 10.3123 24.997 10.6998 25.3904C12.3191 27.0343 14.4237 28.077 16.675 28.3726C16.5601 27.766 16.5 27.14 16.5 26.5C16.5 26.4401 16.5005 26.3803 16.5016 26.3207C14.8566 26.0141 13.3267 25.2073 12.1247 23.9869ZM17.5629 30.9913C17.9222 31.7049 18.3645 32.3695 18.877 32.9725C18.586 32.9901 18.2937 32.9989 18.0005 32.9989C14.0732 32.9989 10.3099 31.4149 7.53757 28.6003C7.15001 28.2068 7.15479 27.5737 7.54826 27.1861C7.94173 26.7985 8.57487 26.8033 8.96243 27.1968C11.2586 29.5279 14.3345 30.879 17.5629 30.9913Z" fill="white"/>
<path fill-rule="evenodd" clip-rule="evenodd" d="M26.5 35C31.1944 35 35 31.1944 35 26.5C35 21.8056 31.1944 18 26.5 18C21.8056 18 18 21.8056 18 26.5C18 31.1944 21.8056 35 26.5 35ZM23.7521 22.6913C23.4592 22.3984 22.9843 22.3984 22.6914 22.6913C22.3985 22.9842 22.3985 23.459 22.6914 23.7519L25.4395 26.5L22.6914 29.2481C22.3985 29.541 22.3985 30.0158 22.6914 30.3087C22.9843 30.6016 23.4592 30.6016 23.7521 30.3087L26.5002 27.5607L29.2482 30.3087C29.5411 30.6016 30.016 30.6016 30.3089 30.3087C30.6018 30.0158 30.6018 29.541 30.3089 29.2481L27.5608 26.5L30.3089 23.7519C30.6018 23.459 30.6018 22.9842 30.3089 22.6913C30.016 22.3984 29.5411 22.3984 29.2482 22.6913L26.5002 25.4393L23.7521 22.6913Z" fill="white"/>
</svg>
