<svg width="36" height="36" viewBox="0 0 36 36" fill="none" xmlns="http://www.w3.org/2000/svg">
<path fill-rule="evenodd" clip-rule="evenodd" d="M8.96243 8.80208C11.3621 6.36585 14.6135 5 18.0005 5C21.3875 5 24.6389 6.36585 27.0386 8.80208C27.4262 9.19555 28.0593 9.20033 28.4528 8.81277C28.8463 8.42521 28.851 7.79206 28.4635 7.3986C25.6912 4.58402 21.9278 3 18.0005 3C14.0732 3 10.3099 4.58403 7.53757 7.3986C7.15001 7.79207 7.15479 8.42521 7.54826 8.81277C7.94173 9.20034 8.57487 9.19555 8.96243 8.80208ZM12.1247 12.0133C13.6857 10.4285 15.7995 9.54102 18.0005 9.54102C20.2014 9.54102 22.3153 10.4285 23.8762 12.0133C24.2638 12.4067 24.8969 12.4115 25.2904 12.0239C25.6839 11.6364 25.6886 11.0032 25.3011 10.6098C23.3675 8.64668 20.7417 7.54102 18.0005 7.54102C15.2593 7.54102 12.6335 8.64668 10.6998 10.6098C10.3123 11.0032 10.3171 11.6364 10.7105 12.0239C11.104 12.4115 11.7371 12.4067 12.1247 12.0133ZM10.7105 23.9762C11.104 23.5887 11.7371 23.5935 12.1247 23.9869C13.6857 25.5717 15.7995 26.4592 18.0005 26.4592C20.2014 26.4592 22.3153 25.5717 23.8762 23.9869C24.2638 23.5935 24.8969 23.5887 25.2904 23.9762C25.6839 24.3638 25.6886 24.997 25.3011 25.3904C23.3675 27.3535 20.7417 28.4592 18.0005 28.4592C15.2593 28.4592 12.6335 27.3535 10.6998 25.3904C10.3123 24.997 10.3171 24.3638 10.7105 23.9762ZM8.96243 27.1968C8.57487 26.8033 7.94173 26.7985 7.54826 27.1861C7.15479 27.5737 7.15001 28.2068 7.53757 28.6003C10.3099 31.4149 14.0732 32.9989 18.0005 32.9989C21.9278 32.9989 25.6912 31.4149 28.4635 28.6003C28.851 28.2068 28.8463 27.5737 28.4528 27.1861C28.0593 26.7985 27.4262 26.8033 27.0386 27.1968C24.639 29.633 21.3875 30.9989 18.0005 30.9989C14.6135 30.9989 11.3621 29.633 8.96243 27.1968Z" fill="white"/>
</svg>
