<svg width="36" height="36" viewBox="0 0 36 36" fill="none" xmlns="http://www.w3.org/2000/svg">
<path fill-rule="evenodd" clip-rule="evenodd" d="M17.5 23.3522C14.7652 23.1007 12.6235 20.8004 12.6235 18C12.6235 15.1996 14.7652 12.8993 17.5 12.6478V23.3522ZM17.9985 10.625C22.0716 10.625 25.3735 13.9269 25.3735 18C25.3735 22.0731 22.0716 25.375 17.9985 25.375C13.9254 25.375 10.6235 22.0731 10.6235 18C10.6235 13.9269 13.9254 10.625 17.9985 10.625Z" fill="white"/>
<path fill-rule="evenodd" clip-rule="evenodd" d="M18.0029 4.625C18.5552 4.625 19.0029 5.07272 19.0029 5.625V7.30698C19.0029 7.85926 18.5552 8.30698 18.0029 8.30698C17.4506 8.30698 17.0029 7.85926 17.0029 7.30698V5.625C17.0029 5.07272 17.4506 4.625 18.0029 4.625ZM9.33501 7.92229C8.94449 7.53176 8.31132 7.53176 7.9208 7.92229C7.53027 8.31281 7.53027 8.94598 7.9208 9.3365L8.6708 10.0865C9.06132 10.477 9.69449 10.477 10.085 10.0865C10.4755 9.69598 10.4755 9.06281 10.085 8.67229L9.33501 7.92229ZM27.335 25.9223C26.9445 25.5318 26.3113 25.5318 25.9208 25.9223C25.5303 26.3128 25.5303 26.946 25.9208 27.3365L26.6708 28.0865C27.0613 28.477 27.6945 28.477 28.085 28.0865C28.4755 27.696 28.4755 27.0628 28.085 26.6723L27.335 25.9223ZM28.085 7.92229C28.4755 8.31281 28.4755 8.94598 28.085 9.3365L27.335 10.0865C26.9445 10.477 26.3113 10.477 25.9208 10.0865C25.5303 9.69598 25.5303 9.06281 25.9208 8.67229L26.6708 7.92229C27.0613 7.53176 27.6945 7.53176 28.085 7.92229ZM10.085 27.3365C10.4755 26.946 10.4755 26.3128 10.085 25.9223C9.69448 25.5318 9.06132 25.5318 8.67079 25.9223L7.9208 26.6723C7.53027 27.0628 7.53028 27.696 7.9208 28.0865C8.31133 28.477 8.94449 28.477 9.33502 28.0865L10.085 27.3365ZM19.0029 28.7021C19.0029 28.1499 18.5552 27.7022 18.0029 27.7021C17.4506 27.7021 17.0029 28.1499 17.0029 28.7021L17.0029 30.3841C17.0029 30.9364 17.4506 31.3841 18.0029 31.3841C18.5552 31.3841 19.0029 30.9364 19.0029 30.3841L19.0029 28.7021ZM31.3827 18.0044C31.3827 18.5567 30.9349 19.0044 30.3827 19.0044H28.7007C28.1484 19.0044 27.7007 18.5567 27.7007 18.0044C27.7007 17.4521 28.1484 17.0044 28.7007 17.0044H30.3827C30.9349 17.0044 31.3827 17.4521 31.3827 18.0044ZM7.30552 19.0044C7.8578 19.0044 8.30552 18.5567 8.30552 18.0044C8.30551 17.4521 7.8578 17.0044 7.30551 17.0044L5.62353 17.0044C5.07125 17.0044 4.62354 17.4521 4.62354 18.0044C4.62354 18.5567 5.07125 19.0044 5.62354 19.0044L7.30552 19.0044Z" fill="white"/>
</svg>
