<svg width="36" height="36" viewBox="0 0 36 36" fill="none" xmlns="http://www.w3.org/2000/svg">
<path d="M17.625 26.5C18.2463 26.5 18.75 27.0037 18.75 27.625C18.75 28.2463 18.2463 28.75 17.625 28.75C17.0037 28.75 16.5 28.2463 16.5 27.625C16.5 27.0037 17.0037 26.5 17.625 26.5Z" fill="white"/>
<path d="M22.5 23C23.3284 23 24 23.6716 24 24.5C24 25.3284 23.3284 26 22.5 26C21.6716 26 21 25.3284 21 24.5C21 23.6716 21.6716 23 22.5 23Z" fill="white"/>
<path d="M12 21C12.8284 21 13.5 21.6716 13.5 22.5C13.5 23.3284 12.8284 24 12 24C11.1716 24 10.5 23.3284 10.5 22.5C10.5 21.6716 11.1716 21 12 21Z" fill="white"/>
<path d="M26.625 19.5C27.2463 19.5 27.75 20.0037 27.75 20.625C27.75 21.2463 27.2463 21.75 26.625 21.75C26.0037 21.75 25.5 21.2463 25.5 20.625C25.5 20.0037 26.0037 19.5 26.625 19.5Z" fill="white"/>
<path d="M19 17C20.1046 17 21 17.8954 21 19C21 20.1046 20.1046 21 19 21C17.8954 21 17 20.1046 17 19C17 17.8954 17.8954 17 19 17Z" fill="white"/>
<path d="M24.625 13.5C25.5225 13.5 26.25 14.2275 26.25 15.125C26.25 16.0225 25.5225 16.75 24.625 16.75C23.7275 16.75 23 16.0225 23 15.125C23 14.2275 23.7275 13.5 24.625 13.5Z" fill="white"/>
<path d="M14.625 13C15.5225 13 16.25 13.7275 16.25 14.625C16.25 15.5225 15.5225 16.25 14.625 16.25C13.7275 16.25 13 15.5225 13 14.625C13 13.7275 13.7275 13 14.625 13Z" fill="white"/>
<path d="M8.625 13.5C9.24632 13.5 9.75 14.0037 9.75 14.625C9.75 15.2463 9.24632 15.75 8.625 15.75C8.00368 15.75 7.5 15.2463 7.5 14.625C7.5 14.0037 8.00368 13.5 8.625 13.5Z" fill="white"/>
<path d="M22.125 9C22.7463 9 23.25 9.50368 23.25 10.125C23.25 10.7463 22.7463 11.25 22.125 11.25C21.5037 11.25 21 10.7463 21 10.125C21 9.50368 21.5037 9 22.125 9Z" fill="white"/>
<path d="M16.125 8C16.7463 8 17.25 8.50368 17.25 9.125C17.25 9.74632 16.7463 10.25 16.125 10.25C15.5037 10.25 15 9.74632 15 9.125C15 8.50368 15.5037 8 16.125 8Z" fill="white"/>
<path fill-rule="evenodd" clip-rule="evenodd" d="M18 3C26.2843 3 33 9.71573 33 18C33 26.2843 26.2843 33 18 33C9.71573 33 3 26.2843 3 18C3 9.71573 9.71573 3 18 3ZM18 5C10.8203 5 5 10.8203 5 18C5 25.1797 10.8203 31 18 31C25.1797 31 31 25.1797 31 18C31 10.8203 25.1797 5 18 5Z" fill="white"/>
</svg>
