<svg width="36" height="36" viewBox="0 0 36 36" fill="none" xmlns="http://www.w3.org/2000/svg">
<path fill-rule="evenodd" clip-rule="evenodd" d="M21.2451 18.6201C22.6948 18.6202 23.8701 19.7954 23.8701 21.2451C23.8701 22.6948 22.6948 23.8701 21.2451 23.8701C19.7954 23.8701 18.6202 22.6948 18.6201 21.2451C18.6201 19.7954 19.7954 18.6201 21.2451 18.6201ZM21.2451 20.2197C20.679 20.2197 20.2197 20.679 20.2197 21.2451C20.2198 21.8112 20.6791 22.2705 21.2451 22.2705C21.8111 22.2704 22.2704 21.8111 22.2705 21.2451C22.2705 20.6791 21.8112 20.2198 21.2451 20.2197Z" fill="white"/>
<path d="M21.3594 13.1572C21.7499 12.7667 22.3829 12.7668 22.7734 13.1572C23.164 13.5478 23.164 14.1808 22.7734 14.5713L14.5713 22.7734C14.1808 23.1638 13.5477 23.1639 13.1572 22.7734C12.7668 22.383 12.7669 21.7499 13.1572 21.3594L21.3594 13.1572Z" fill="white"/>
<path fill-rule="evenodd" clip-rule="evenodd" d="M14.7451 12.1201C16.1948 12.1202 17.3701 13.2954 17.3701 14.7451C17.3701 16.1948 16.1948 17.3701 14.7451 17.3701C13.2954 17.3701 12.1202 16.1948 12.1201 14.7451C12.1201 13.2954 13.2954 12.1201 14.7451 12.1201ZM14.7451 13.7197C14.179 13.7197 13.7197 14.179 13.7197 14.7451C13.7198 15.3112 14.1791 15.7705 14.7451 15.7705C15.3111 15.7704 15.7704 15.3111 15.7705 14.7451C15.7705 14.1791 15.3112 13.7198 14.7451 13.7197Z" fill="white"/>
<path fill-rule="evenodd" clip-rule="evenodd" d="M30.1543 7.50391C31.7394 7.58421 33 8.89489 33 10.5V13.0918C33 13.8184 32.6489 14.5005 32.0576 14.9229L31.168 15.5586L31.0156 15.6748C29.4944 16.9097 29.5453 19.2823 31.168 20.4414L32.0576 21.0771C32.6489 21.4995 33 22.1816 33 22.9082V25.5C33 27.1051 31.7394 28.4158 30.1543 28.4961L30 28.5H6C4.3949 28.5 3.08421 27.2394 3.00391 25.6543L3 25.5V22.9082C3 22.227 3.3083 21.5848 3.83398 21.1592L3.94238 21.0771L4.83203 20.4414C6.50708 19.2449 6.50708 16.7551 4.83203 15.5586L3.94238 14.9229C3.35109 14.5005 3 13.8184 3 13.0918V10.5C3 8.84315 4.34315 7.5 6 7.5H30L30.1543 7.50391ZM6 9.5C5.44772 9.5 5 9.94772 5 10.5V13.0918C5 13.1725 5.03879 13.249 5.10449 13.2959L5.99512 13.9316C8.78639 15.9258 8.78638 20.0742 5.99512 22.0684L5.10449 22.7041C5.03879 22.751 5 22.8275 5 22.9082V25.5C5 26.0523 5.44772 26.5 6 26.5H30C30.5523 26.5 31 26.0523 31 25.5V22.9082C31 22.8275 30.9612 22.751 30.8955 22.7041L30.0049 22.0684C27.2136 20.0742 27.2136 15.9258 30.0049 13.9316L30.8955 13.2959C30.9612 13.249 31 13.1725 31 13.0918V10.5C31 9.94772 30.5523 9.5 30 9.5H6Z" fill="white"/>
</svg>
