<svg width="36" height="36" viewBox="0 0 36 36" fill="none" xmlns="http://www.w3.org/2000/svg">
<path d="M21.2451 20.2197C21.8112 20.2198 22.2705 20.6791 22.2705 21.2451C22.2704 21.8111 21.8111 22.2704 21.2451 22.2705C20.6791 22.2705 20.2198 21.8112 20.2197 21.2451C20.2197 20.679 20.679 20.2197 21.2451 20.2197Z" fill="white"/>
<path d="M14.7451 13.7197C15.3112 13.7198 15.7705 14.1791 15.7705 14.7451C15.7704 15.3111 15.3111 15.7704 14.7451 15.7705C14.1791 15.7705 13.7198 15.3112 13.7197 14.7451C13.7197 14.179 14.179 13.7197 14.7451 13.7197Z" fill="white"/>
<path fill-rule="evenodd" clip-rule="evenodd" d="M30 7.5C31.6569 7.5 33 8.84315 33 10.5V13.0918C33 13.8184 32.6489 14.5005 32.0576 14.9229L31.168 15.5586C29.4929 16.7551 29.4929 19.2449 31.168 20.4414L32.0576 21.0771C32.6489 21.4995 33 22.1816 33 22.9082V25.5C33 27.1569 31.6569 28.5 30 28.5H6C4.34315 28.5 3 27.1569 3 25.5V22.9082C3 22.1816 3.35109 21.4995 3.94238 21.0771L4.83203 20.4414C6.50708 19.2449 6.50708 16.7551 4.83203 15.5586L3.94238 14.9229C3.35109 14.5005 3 13.8184 3 13.0918V10.5C3 8.84315 4.34315 7.5 6 7.5H30ZM21.2451 18.6201C19.7954 18.6201 18.6201 19.7954 18.6201 21.2451C18.6202 22.6948 19.7954 23.8701 21.2451 23.8701C22.6948 23.8701 23.8701 22.6948 23.8701 21.2451C23.8701 19.7954 22.6948 18.6202 21.2451 18.6201ZM22.7734 13.1572C22.3829 12.7668 21.7499 12.7667 21.3594 13.1572L13.1572 21.3594C12.7669 21.7499 12.7669 22.3829 13.1572 22.7734C13.5477 23.1639 14.1808 23.1638 14.5713 22.7734L22.7734 14.5713C23.164 14.1808 23.164 13.5478 22.7734 13.1572ZM14.7451 12.1201C13.2954 12.1201 12.1201 13.2954 12.1201 14.7451C12.1202 16.1948 13.2954 17.3701 14.7451 17.3701C16.1948 17.3701 17.3701 16.1948 17.3701 14.7451C17.3701 13.2954 16.1948 12.1202 14.7451 12.1201Z" fill="white"/>
</svg>
