<svg width="36" height="36" viewBox="0 0 36 36" fill="none" xmlns="http://www.w3.org/2000/svg">
<path fill-rule="evenodd" clip-rule="evenodd" d="M8.49512 3C9.0474 3 9.49512 3.44772 9.49512 4V7.5H23.9951L24.2266 7.50586C26.6043 7.62632 28.4951 9.59234 28.4951 12V26.5H31.8701C32.4223 26.5001 32.8701 26.9478 32.8701 27.5C32.8701 28.0522 32.4223 28.4999 31.8701 28.5H28.3701V32C28.3701 32.5523 27.9224 33 27.3701 33C26.8178 33 26.3701 32.5523 26.3701 32V28.5H11.9951C9.58746 28.5 7.62144 26.6092 7.50098 24.2314L7.49512 24V9.5H4.12012C3.56783 9.5 3.12012 9.05228 3.12012 8.5C3.12012 7.94772 3.56783 7.5 4.12012 7.5H7.49512V4C7.49512 3.44772 7.94283 3 8.49512 3ZM9.49512 24C9.49512 25.3807 10.6144 26.5 11.9951 26.5H26.4951V12C26.4951 10.6193 25.3758 9.5 23.9951 9.5H9.49512V24Z" fill="white"/>
</svg>
