<svg width="36" height="36" viewBox="0 0 36 36" fill="none" xmlns="http://www.w3.org/2000/svg">
<path fill-rule="evenodd" clip-rule="evenodd" d="M18.6262 5.14863C18.2242 4.98748 17.7758 4.98748 17.3738 5.14863L7.3254 9.17697L18 13.5259L28.6746 9.17697L18.6262 5.14863ZM16.9884 30.6968V15.3026L5.56937 10.6505C5.5391 10.7774 5.52326 10.9091 5.52326 11.0435V24.9565C5.52326 25.6475 5.943 26.2688 6.58312 26.5255L16.9884 30.6968ZM16.6224 3.26589C17.5067 2.91137 18.4933 2.91137 19.3776 3.26589L30.1683 7.5918C30.7817 7.83769 31.3035 8.23625 31.6967 8.73309C32.2056 9.37622 32.5 10.1856 32.5 11.0435V24.9565C32.5 26.4767 31.5766 27.8436 30.1683 28.4082L19.3776 32.7341C18.9354 32.9114 18.4677 33 18 33C17.5323 33 17.0646 32.9114 16.6224 32.7341L5.8317 28.4082C4.42343 27.8436 3.5 26.4766 3.5 24.9565V11.0435C3.5 10.1856 3.79437 9.37622 4.3033 8.73309C4.69647 8.23625 5.21835 7.83769 5.8317 7.5918L16.6224 3.26589Z" fill="white"/>
</svg>
