<svg width="36" height="36" viewBox="0 0 36 36" fill="none" xmlns="http://www.w3.org/2000/svg">
<path fill-rule="evenodd" clip-rule="evenodd" d="M18.6306 5.12174C18.2258 4.95942 17.7742 4.95942 17.3694 5.12174L7.27735 9.16809L18 13.5371L28.7226 9.16809L18.6306 5.12174ZM30.4497 10.624L19 15.2893V30.7302L29.4306 26.548C30.0754 26.2895 30.5 25.6626 30.5 24.9634V11.0366C30.5 10.8953 30.4827 10.757 30.4497 10.624ZM17 30.7302V15.2893L5.5503 10.624C5.51731 10.757 5.5 10.8953 5.5 11.0366V24.9634C5.5 25.6626 5.9246 26.2895 6.56939 26.548L17 30.7302ZM16.6251 3.2654C17.5077 2.91154 18.4923 2.91153 19.3749 3.26539L30.1749 7.5956C30.787 7.841 31.3075 8.23866 31.6994 8.73404C32.2068 9.37527 32.5 10.1819 32.5 11.0366V24.9634C32.5 26.4776 31.5803 27.8409 30.1749 28.4044L19.3749 32.7346C18.9337 32.9115 18.4668 33 18 33C17.5332 33 17.0663 32.9115 16.6251 32.7346L5.8251 28.4044C4.41974 27.8409 3.5 26.4776 3.5 24.9634V11.0366C3.5 10.1819 3.79321 9.37527 4.30058 8.73404C4.69254 8.23866 5.21304 7.841 5.8251 7.5956L16.6251 3.2654Z" fill="white"/>
</svg>
