<svg width="36" height="36" viewBox="0 0 36 36" fill="none" xmlns="http://www.w3.org/2000/svg">
<path fill-rule="evenodd" clip-rule="evenodd" d="M14 11.75C14 11.1977 14.4477 10.75 15 10.75H18.375C20.7912 10.75 22.75 12.7088 22.75 15.125C22.75 16.9952 21.5766 18.5913 19.9258 19.2172L22.6216 24.0097C22.8923 24.4911 22.7216 25.1008 22.2403 25.3716C21.7589 25.6423 21.1492 25.4716 20.8784 24.9903L17.7902 19.5H16V24.5C16 25.0523 15.5523 25.5 15 25.5C14.4477 25.5 14 25.0523 14 24.5V11.75ZM16 17.5H18.3553C18.3669 17.4998 18.3786 17.4998 18.3902 17.5C19.6949 17.4918 20.75 16.4316 20.75 15.125C20.75 13.8133 19.6867 12.75 18.375 12.75H16V17.5Z" fill="white"/>
</svg>
