<svg width="36" height="36" viewBox="0 0 36 36" fill="none" xmlns="http://www.w3.org/2000/svg">
<path d="M14.3365 11.2527C14.0337 10.7908 13.4138 10.6618 12.9519 10.9645C12.49 11.2673 12.361 11.8872 12.6638 12.3491L16.149 17.6663H13.8C13.2478 17.6663 12.8 18.114 12.8 18.6663C12.8 19.2185 13.2478 19.6663 13.8 19.6663H17V21.5895H13.8C13.2478 21.5895 12.8 22.0372 12.8 22.5895C12.8 23.1418 13.2478 23.5895 13.8 23.5895H17V24.5509C17 25.1032 17.4477 25.5509 18 25.5509C18.5523 25.5509 19 25.1032 19 24.5509V23.5895H22.2C22.7523 23.5895 23.2 23.1418 23.2 22.5895C23.2 22.0372 22.7523 21.5895 22.2 21.5895H19V19.6663H22.2C22.7523 19.6663 23.2 19.2185 23.2 18.6663C23.2 18.114 22.7523 17.6663 22.2 17.6663H19.8513L23.3365 12.3491C23.6392 11.8872 23.5102 11.2673 23.0483 10.9645C22.5864 10.6618 21.9665 10.7908 21.6638 11.2527L18.0001 16.8421L14.3365 11.2527Z" fill="white"/>
</svg>
