<svg width="36" height="36" viewBox="0 0 36 36" fill="none" xmlns="http://www.w3.org/2000/svg">
<path fill-rule="evenodd" clip-rule="evenodd" d="M11 11.75C11 11.1977 11.4477 10.75 12 10.75H14.0625C16.3752 10.75 18.25 12.6248 18.25 14.9375C18.25 15.9209 17.911 16.8251 17.3436 17.5396C18.7303 18.2094 19.6925 19.6213 19.7119 21.2631C19.7394 23.595 17.8567 25.5 15.5247 25.5H12C11.4477 25.5 11 25.0523 11 24.5V11.75ZM13 19.125V23.5H15.5247C16.7429 23.5 17.7264 22.5048 17.712 21.2867C17.6979 20.0887 16.7227 19.125 15.5247 19.125H13ZM13 17.125H14.0625C15.2706 17.125 16.25 16.1456 16.25 14.9375C16.25 13.7294 15.2706 12.75 14.0625 12.75H13V17.125Z" fill="white"/>
<path d="M25.5 18.75C23.9812 18.75 22.75 19.9812 22.75 21.5V24.5C22.75 25.0523 22.3023 25.5 21.75 25.5C21.1977 25.5 20.75 25.0523 20.75 24.5V17.375C20.75 16.8227 21.1977 16.375 21.75 16.375C22.3023 16.375 22.75 16.8227 22.75 17.375V17.6266C23.5261 17.0746 24.4751 16.75 25.5 16.75C26.0523 16.75 26.5 17.1977 26.5 17.75C26.5 18.3023 26.0523 18.75 25.5 18.75Z" fill="white"/>
</svg>
