<svg width="36" height="36" viewBox="0 0 36 36" fill="none" xmlns="http://www.w3.org/2000/svg">
<path fill-rule="evenodd" clip-rule="evenodd" d="M15.25 11.6016C15.25 11.0493 15.6977 10.6016 16.25 10.6016H19.625C22.0412 10.6016 24 12.5603 24 14.9766C24 17.3928 22.0412 19.3516 19.625 19.3516H17.25V21.1016H20C20.5523 21.1016 21 21.5493 21 22.1016C21 22.6538 20.5523 23.1016 20 23.1016H17.25V24.3516C17.25 24.9038 16.8023 25.3516 16.25 25.3516C15.6977 25.3516 15.25 24.9038 15.25 24.3516V23.1016H14C13.4477 23.1016 13 22.6538 13 22.1016C13 21.5493 13.4477 21.1016 14 21.1016H15.25V19.3516H14C13.4477 19.3516 13 18.9038 13 18.3516C13 17.7993 13.4477 17.3516 14 17.3516H15.25V11.6016ZM17.25 17.3516H19.625C20.9367 17.3516 22 16.2882 22 14.9766C22 13.6649 20.9367 12.6016 19.625 12.6016H17.25V17.3516Z" fill="white"/>
</svg>
