<svg width="36" height="36" viewBox="0 0 36 36" fill="none" xmlns="http://www.w3.org/2000/svg">
<path d="M12.875 11.625C12.875 11.0727 13.3227 10.625 13.875 10.625H22.875C23.4273 10.625 23.875 11.0727 23.875 11.625C23.875 12.1773 23.4273 12.625 22.875 12.625H20.7018C21.0868 13.1708 21.3555 13.7783 21.5001 14.375H22.875C23.4273 14.375 23.875 14.8227 23.875 15.375C23.875 15.9273 23.4273 16.375 22.875 16.375H21.5001C21.3257 17.0946 20.9708 17.8298 20.4493 18.4538C19.6586 19.3998 18.4524 20.125 16.875 20.125H16.2892L20.5821 24.4179C20.9726 24.8084 20.9726 25.4416 20.5821 25.8321C20.1916 26.2226 19.5584 26.2226 19.1679 25.8321L13.4179 20.0821C13.3752 20.0394 13.3371 19.9938 13.3038 19.9459C13.0446 19.7652 12.875 19.4649 12.875 19.125C12.875 18.5727 13.3227 18.125 13.875 18.125H16.875C17.7829 18.125 18.4517 17.7252 18.9147 17.1712C19.1235 16.9214 19.2842 16.6468 19.3995 16.375H14.625C14.0727 16.375 13.625 15.9273 13.625 15.375C13.625 14.8227 14.0727 14.375 14.625 14.375H19.3995C19.2842 14.1032 19.1235 13.8286 18.9147 13.5788C18.4517 13.0248 17.7829 12.625 16.875 12.625H13.875C13.3227 12.625 12.875 12.1773 12.875 11.625Z" fill="white"/>
</svg>
