<svg width="36" height="36" viewBox="0 0 36 36" fill="none" xmlns="http://www.w3.org/2000/svg">
<path d="M31.4619 21.1875C31.4867 21.3732 31.5 21.5608 31.5 21.75V26.25C31.5 30.3921 25.4558 33.75 18 33.75C10.5442 33.75 4.5 30.3921 4.5 26.25V21.75C4.5 21.5608 4.51233 21.3732 4.53711 21.1875C5.05484 25.0669 10.8847 28.125 18 28.125C25.1152 28.125 30.9441 25.0669 31.4619 21.1875Z" fill="white"/>
<path d="M31.4619 13.3125C31.4867 13.4982 31.5 13.6858 31.5 13.875V18.375C31.5 22.5171 25.4558 25.875 18 25.875C10.5442 25.875 4.5 22.5171 4.5 18.375V13.875C4.5 13.6858 4.51233 13.4982 4.53711 13.3125C5.05484 17.1919 10.8847 20.25 18 20.25C25.1152 20.25 30.9441 17.1919 31.4619 13.3125Z" fill="white"/>
<path d="M18 3C25.4558 3 31.5 6.35786 31.5 10.5C31.5 14.6421 25.4558 18 18 18C10.5442 18 4.5 14.6421 4.5 10.5C4.5 6.35786 10.5442 3 18 3Z" fill="white"/>
</svg>
