<svg width="36" height="36" viewBox="0 0 36 36" fill="none" xmlns="http://www.w3.org/2000/svg">
<path fill-rule="evenodd" clip-rule="evenodd" d="M18 3C25.4558 3 31.5 6.35786 31.5 10.5V25.7881L31.4951 25.8896C31.4894 25.9463 31.4777 26.0012 31.4629 26.0547C30.9518 29.9378 25.12 33 18 33C10.88 33 5.04708 29.9378 4.53613 26.0547C4.52138 26.0013 4.5106 25.9462 4.50488 25.8896L4.5 25.7881V10.5C4.5 6.35786 10.5442 3 18 3ZM6.5 25.5C6.5 26.5149 7.26451 27.854 9.42578 29.0547C11.5193 30.2177 14.5466 31 18 31C21.4534 31 24.4807 30.2177 26.5742 29.0547C28.6002 27.9291 29.3992 26.6821 29.4912 25.6943L29.5 25.5V21.9277C27.1234 24.0703 22.8626 25.5 18 25.5C13.1374 25.5 8.87662 24.0703 6.5 21.9277V25.5ZM6.5 18C6.5 19.0149 7.26451 20.354 9.42578 21.5547C11.5193 22.7177 14.5466 23.5 18 23.5C21.4534 23.5 24.4807 22.7177 26.5742 21.5547C28.6002 20.4291 29.3992 19.1821 29.4912 18.1943L29.5 18V14.4277C27.1234 16.5703 22.8626 18 18 18C13.1374 18 8.87662 16.5703 6.5 14.4277V18ZM18 5C14.5466 5 11.5193 5.78231 9.42578 6.94531C7.26451 8.14602 6.5 9.48508 6.5 10.5C6.5 11.5149 7.26451 12.854 9.42578 14.0547C11.5193 15.2177 14.5466 16 18 16C21.4534 16 24.4807 15.2177 26.5742 14.0547C28.7355 12.854 29.5 11.5149 29.5 10.5C29.5 9.48508 28.7355 8.14602 26.5742 6.94531C24.4807 5.78231 21.4534 5 18 5Z" fill="white"/>
</svg>
