<svg width="36" height="36" viewBox="0 0 36 36" fill="none" xmlns="http://www.w3.org/2000/svg">
<path fill-rule="evenodd" clip-rule="evenodd" d="M6.61996 5.07191C6.09996 4.86191 5.51996 5.10191 5.31996 5.62191C5.10996 6.14191 5.34996 6.72191 5.86996 6.92191L8.97996 8.17191C9.01996 8.18191 9.04996 8.20191 9.07996 8.22191C9.10996 8.25191 9.21996 8.35191 9.22996 8.39191C9.24996 8.42191 9.26996 8.46191 9.27996 8.49191L12.43 19.5119C12.54 19.8919 12.68 20.2519 12.86 20.5919C13.01 20.8819 13.2 21.1519 13.4 21.4119C13.61 21.6719 13.83 21.9119 14.08 22.1319C14.35 22.3719 14.65 22.5819 14.96 22.7619C15.28 22.9519 15.61 23.1019 15.95 23.2119C16.26 23.3219 16.58 23.3919 16.91 23.4419C17.24 23.4919 17.57 23.5119 17.89 23.5019C18.28 23.4819 18.66 23.4319 19.05 23.3319L29.99 20.6019C30.53 20.4719 30.85 19.9319 30.72 19.3919C30.58 18.8519 30.05 18.5319 29.5 18.6619L18.56 21.3919C18.31 21.4619 18.05 21.4919 17.8 21.5019C17.6 21.5019 17.4 21.4919 17.21 21.4619C17 21.4319 16.8 21.3919 16.61 21.3219C16.39 21.2519 16.17 21.1519 15.96 21.0319C15.76 20.9119 15.56 20.7719 15.39 20.6119C15.24 20.4819 15.1 20.3319 14.97 20.1719C14.84 20.0119 14.74 19.8519 14.64 19.6819C14.52 19.4519 14.42 19.2119 14.35 18.9619L11.2 7.94191C11.15 7.76191 11.07 7.58191 10.98 7.42191C10.89 7.25191 10.78 7.10191 10.65 6.95191C10.52 6.81191 10.38 6.69191 10.23 6.58191C10.07 6.47191 9.89996 6.38191 9.71996 6.31191L6.61996 5.07191ZM16.27 10.0719L22.49 8.40191C24.09 7.97191 25.74 8.92191 26.17 10.5219L27.28 14.6719C27.71 16.2719 26.76 17.9219 25.16 18.3519L18.94 20.0119C17.33 20.4419 15.69 19.4919 15.26 17.8919L14.15 13.7419C13.72 12.1419 14.67 10.5019 16.27 10.0719ZM9.27996 27.2119C9.27996 25.1219 10.98 23.4219 13.07 23.4219C15.16 23.4219 16.86 25.1219 16.86 27.2119C16.86 29.3019 15.16 31.0019 13.07 31.0019C10.98 31.0019 9.27996 29.3019 9.27996 27.2119Z" fill="white"/>
</svg>
