<svg width="36" height="36" viewBox="0 0 36 36" fill="none" xmlns="http://www.w3.org/2000/svg">
<path fill-rule="evenodd" clip-rule="evenodd" d="M25.9221 6H10.0779C9.06781 5.99999 8.24174 5.99998 7.5704 6.05483C6.87551 6.1116 6.24791 6.23271 5.6618 6.53134C4.74451 6.99873 3.99873 7.74451 3.53134 8.6618C3.23271 9.24791 3.1116 9.87551 3.05483 10.5704C2.99998 11.2417 2.99999 12.0678 3 13.0779V22.9221C2.99999 23.9322 2.99998 24.7583 3.05483 25.4296C3.1116 26.1245 3.23271 26.7521 3.53134 27.3382C3.99873 28.2555 4.74451 29.0013 5.6618 29.4687C6.24791 29.7673 6.87551 29.8884 7.5704 29.9452C8.24173 30 9.06778 30 10.0778 30H25.9222C26.9322 30 27.7583 30 28.4296 29.9452C29.1245 29.8884 29.7521 29.7673 30.3382 29.4687C31.2555 29.0013 32.0013 28.2555 32.4687 27.3382C32.7673 26.7521 32.8884 26.1245 32.9452 25.4296C33 24.7583 33 23.9322 33 22.9222V13.0778C33 12.0678 33 11.2417 32.9452 10.5704C32.8884 9.87551 32.7673 9.24791 32.4687 8.6618C32.0013 7.74451 31.2555 6.99873 30.3382 6.53134C29.7521 6.23271 29.1245 6.1116 28.4296 6.05483C27.7583 5.99998 26.9322 5.99999 25.9221 6ZM13.8741 22.6809C13.3 23.0828 12.5107 23.0397 12.0084 22.5374C11.3913 21.9203 11.4344 20.8871 12.1376 20.3848C13.788 19.1936 15.8115 18.4904 18.0072 18.4904C20.2029 18.4904 22.2264 19.1936 23.8768 20.3848C24.5656 20.9014 24.623 21.9203 24.0059 22.5374C23.5036 23.0397 22.7143 23.0684 22.1403 22.6666C20.9778 21.8486 19.5427 21.3606 18.0072 21.3606C16.4716 21.3606 15.0365 21.8486 13.8741 22.6809ZM8.03319 16.2947C10.7455 14.0846 14.2185 12.75 18.0072 12.75C21.7959 12.75 25.2688 14.0846 27.9668 16.3091C28.627 16.8544 28.6844 17.8446 28.0816 18.4474C27.565 18.964 26.747 19.0071 26.1873 18.5478C23.9772 16.7252 21.1214 15.6202 18.0072 15.6202C14.893 15.6202 12.0371 16.7252 9.81272 18.5335C9.25303 18.9927 8.43502 18.9497 7.91838 18.433C7.31564 17.8303 7.37304 16.8401 8.03319 16.2947Z" fill="white"/>
</svg>
