<svg width="36" height="36" viewBox="0 0 36 36" fill="none" xmlns="http://www.w3.org/2000/svg">
<path d="M31.2949 25.5C31.3809 25.5001 31.5027 25.5002 31.6129 25.4912C31.745 25.4804 31.9559 25.4512 32.181 25.3365C32.4632 25.1927 32.6927 24.9633 32.8365 24.681C32.9512 24.4559 32.9804 24.245 32.9912 24.1129C33.0002 24.0027 33.0001 23.881 33 23.7949V7.70519C33.0001 7.61913 33.0002 7.4973 32.9912 7.38711C32.9804 7.25501 32.9512 7.04417 32.8365 6.81904C32.6927 6.53679 32.4632 6.30732 32.181 6.16351C31.9559 6.0488 31.745 6.01966 31.6129 6.00887C31.5027 5.99986 31.3809 5.99995 31.2949 6.00001H4.70518C4.61912 5.99995 4.49731 5.99986 4.38711 6.00887C4.25501 6.01966 4.04417 6.0488 3.81904 6.16351C3.53679 6.30732 3.30732 6.53679 3.16351 6.81904C3.0488 7.04417 3.01966 7.25501 3.00887 7.38711C2.99986 7.49731 2.99995 7.61912 3.00001 7.70518V23.7949C2.99995 23.8809 2.99986 24.0027 3.00887 24.1129C3.01966 24.245 3.0488 24.4559 3.16351 24.681C3.30732 24.9633 3.53679 25.1927 3.81904 25.3365C4.04417 25.4512 4.25501 25.4804 4.38711 25.4912C4.4973 25.5002 4.61909 25.5001 4.70515 25.5L17.25 25.5V23.25H5.25002V8.25002H30.75L30.75 25.5L31.2949 25.5Z" fill="white"/>
<path d="M6 27H17.25V29.25H6V27Z" fill="white"/>
<path fill-rule="evenodd" clip-rule="evenodd" d="M19.5 18.9C19.5 18.0599 19.5 17.6399 19.6635 17.319C19.8073 17.0368 20.0368 16.8073 20.319 16.6635C20.6399 16.5 21.0599 16.5 21.9 16.5H26.1C26.9401 16.5 27.3601 16.5 27.681 16.6635C27.9632 16.8073 28.1927 17.0368 28.3365 17.319C28.5 17.6399 28.5 18.0599 28.5 18.9V29.1C28.5 29.9401 28.5 30.3601 28.3365 30.681C28.1927 30.9632 27.9632 31.1927 27.681 31.3365C27.3601 31.5 26.9401 31.5 26.1 31.5H21.9C21.0599 31.5 20.6399 31.5 20.319 31.3365C20.0368 31.1927 19.8073 30.9632 19.6635 30.681C19.5 30.3601 19.5 29.9401 19.5 29.1V18.9ZM21 28.875C21 28.6679 21.1679 28.5 21.375 28.5H26.625C26.8321 28.5 27 28.6679 27 28.875V29.625C27 29.8321 26.8321 30 26.625 30H21.375C21.1679 30 21 29.8321 21 29.625V28.875Z" fill="white"/>
</svg>
