<svg width="36" height="36" viewBox="0 0 36 36" fill="none" xmlns="http://www.w3.org/2000/svg">
<path fill-rule="evenodd" clip-rule="evenodd" d="M33 18C33 26.2843 26.2843 33 18 33C9.71573 33 3 26.2843 3 18C3 9.71573 9.71573 3 18 3C26.2843 3 33 9.71573 33 18ZM19.7857 11C20.338 11 20.7857 11.4477 20.7857 12V16.7601H24.5V12C24.5 11.4477 24.9477 11 25.5 11C26.0523 11 26.5 11.4477 26.5 12V24C26.5 24.5523 26.0523 25 25.5 25C24.9477 25 24.5 24.5523 24.5 24V18.7601H20.7857V24C20.7857 24.5523 20.338 25 19.7857 25C19.2334 25 18.7857 24.5523 18.7857 24V12C18.7857 11.4477 19.2334 11 19.7857 11ZM10.5 11C9.94772 11 9.5 11.4477 9.5 12V24C9.5 24.5523 9.94772 25 10.5 25H12.4286C15.4661 25 17.9286 22.5376 17.9286 19.5V16.5C17.9286 13.4624 15.4661 11 12.4286 11H10.5ZM12.4286 23H11.5V13H12.4286C14.3616 13 15.9286 14.567 15.9286 16.5V19.5C15.9286 21.433 14.3616 23 12.4286 23Z" fill="white"/>
</svg>
