<svg width="36" height="36" viewBox="0 0 36 36" fill="none" xmlns="http://www.w3.org/2000/svg">
<path fill-rule="evenodd" clip-rule="evenodd" d="M12.7067 9.51914C12.7067 9.5634 12.7096 9.60699 12.7152 9.64972H5C4.44772 9.64972 4 10.0974 4 10.6497C4 11.202 4.44772 11.6497 5 11.6497H7.02843L7.02841 23.5407C7.02826 24.1848 7.02816 24.6313 7.09373 25.0227C7.42863 27.0214 8.99475 28.5876 10.9935 28.9225C11.3849 28.988 11.8314 28.9879 12.4755 28.9878L12.5711 28.9878C13.1234 28.9878 13.5711 28.54 13.5711 27.9878C13.5711 27.4355 13.1234 26.9878 12.5711 26.9878C11.7942 26.9878 11.529 26.9843 11.324 26.95C10.1668 26.7561 9.26012 25.8494 9.06624 24.6922C9.03189 24.4872 9.02843 24.222 9.02843 23.4451V11.6497H25.9561V24.2186C25.9561 24.7709 26.4038 25.2186 26.9561 25.2186C27.5084 25.2186 27.9561 24.7709 27.9561 24.2186V11.6497H29.9845C30.5368 11.6497 30.9845 11.202 30.9845 10.6497C30.9845 10.0974 30.5368 9.64972 29.9845 9.64972H22.2694C22.2749 9.60699 22.2778 9.5634 22.2778 9.51914C22.2778 6.88113 20.1312 4.75 17.4923 4.75C14.8534 4.75 12.7067 6.88113 12.7067 9.51914ZM17.4923 6.75C15.9498 6.75 14.7067 7.99387 14.7067 9.51914C14.7067 9.5634 14.7039 9.60699 14.6983 9.64972H20.2863C20.2807 9.60699 20.2778 9.5634 20.2778 9.51914C20.2778 7.99387 19.0348 6.75 17.4923 6.75Z" fill="white"/>
<path fill-rule="evenodd" clip-rule="evenodd" d="M17.1137 26.9878C16.5614 26.9878 16.1137 27.4355 16.1137 27.9878C16.1137 28.5401 16.5614 28.9878 17.1137 28.9878H20.813C21.2338 30.2938 22.4559 31.2485 23.9064 31.2485H24.7061C26.1566 31.2485 27.3787 30.2938 27.7995 28.9878H31.4988C32.051 28.9878 32.4988 28.5401 32.4988 27.9878C32.4988 27.4355 32.051 26.9878 31.4988 26.9878H17.1137ZM23.9064 29.2485C23.6224 29.2485 23.3588 29.1513 23.1476 28.9878H25.4649C25.2537 29.1513 24.9901 29.2485 24.7061 29.2485H23.9064Z" fill="white"/>
</svg>
