<svg width="36" height="36" viewBox="0 0 36 36" fill="none" xmlns="http://www.w3.org/2000/svg">
<path fill-rule="evenodd" clip-rule="evenodd" d="M12.8135 8.86928C12.8135 6.18515 14.9804 4 17.6648 4C20.3492 4 22.5161 6.18515 22.5161 8.86928H29.9617C30.5791 8.86928 31.0796 9.37219 31.0796 9.99256C31.0796 10.6129 30.5791 11.1158 29.9617 11.1158H28.0985V19.7721L27.5954 18.2351C26.809 15.8322 23.4262 15.8322 22.6397 18.2351L21.8548 20.6332C21.6329 21.311 21.1039 21.8426 20.4294 22.0655L18.0427 22.8542C15.6514 23.6444 15.6514 27.0435 18.0427 27.8338L19.5731 28.3395H14.2642C13.2606 28.3395 12.4397 28.3395 11.7726 28.2848C11.0821 28.2281 10.4585 28.1072 9.87606 27.809C8.96456 27.3423 8.22349 26.5977 7.75905 25.6818C7.4623 25.0966 7.34196 24.4699 7.28554 23.7761C7.23104 23.1058 7.23105 22.281 7.23106 21.2724L7.23106 11.1158H5.3679C4.7505 11.1158 4.25 10.6129 4.25 9.99256C4.25 9.37219 4.7505 8.86928 5.3679 8.86928H12.8135ZM15.0635 8.86928C15.0635 7.41759 16.2332 6.25 17.6648 6.25C19.0964 6.25 20.2661 7.41759 20.2661 8.86928H15.0635Z" fill="white"/>
<path d="M25.4738 18.9444C25.3611 18.5999 24.8738 18.5999 24.761 18.9444L23.9799 21.3309C23.5354 22.6891 22.4721 23.7554 21.1152 24.2039L18.7422 24.988C18.3991 25.1014 18.3991 25.5868 18.7422 25.7002L21.1152 26.4843C22.4721 26.9327 23.5354 27.9991 23.9799 29.3573L24.761 31.7438C24.8738 32.0882 25.3611 32.0882 25.4738 31.7438L26.255 29.3573C26.6995 27.9991 27.7628 26.9327 29.1197 26.4843L31.4926 25.7001C31.8358 25.5868 31.8358 25.1014 31.4926 24.988L29.1197 24.2039C27.7628 23.7554 26.6995 22.6891 26.255 21.3309L25.4738 18.9444Z" fill="white"/>
</svg>
