<svg width="36" height="36" viewBox="0 0 36 36" fill="none" xmlns="http://www.w3.org/2000/svg">
<path fill-rule="evenodd" clip-rule="evenodd" d="M13.2257 8.44343C13.2192 8.39741 13.2158 8.35038 13.2158 8.30256C13.2158 5.65489 15.3528 3.5 17.9995 3.5C20.6461 3.5 22.7831 5.65489 22.7831 8.30256C22.7831 8.35038 22.7797 8.39741 22.7732 8.44343H30.4854C31.0377 8.44343 31.4854 8.89115 31.4854 9.44343C31.4854 9.99572 31.0377 10.4434 30.4854 10.4434H28.4585V20.9777C28.4585 21.9918 28.4585 22.8134 28.4041 23.4796C28.348 24.1668 28.229 24.7761 27.9408 25.3417C27.4854 26.2354 26.7587 26.9621 25.865 27.4175C25.2994 27.7057 24.6901 27.8247 24.003 27.8808C23.3368 27.9352 22.5151 27.9352 21.501 27.9352H14.4978C13.4838 27.9352 12.6621 27.9352 11.9959 27.8808C11.3088 27.8247 10.6995 27.7057 10.1339 27.4175C9.24014 26.9621 8.51348 26.2354 8.05808 25.3417C7.76992 24.7761 7.65092 24.1668 7.59478 23.4796C7.54035 22.8134 7.54035 21.9918 7.54036 20.9777L7.54036 10.4434H5.51346C4.96117 10.4434 4.51346 9.99572 4.51346 9.44343C4.51346 8.89115 4.96117 8.44343 5.51346 8.44343H13.2257ZM15.2158 8.30256C15.2158 6.75004 16.4668 5.5 17.9995 5.5C19.5321 5.5 20.7831 6.75004 20.7831 8.30256C20.7831 8.35038 20.7864 8.39741 20.7929 8.44343H15.206C15.2125 8.39741 15.2158 8.35038 15.2158 8.30256ZM9.54036 10.4434V20.9352C9.54036 22.0018 9.54114 22.7416 9.58813 23.3168C9.63417 23.8803 9.71953 24.1971 9.8401 24.4337C10.1037 24.9511 10.5244 25.3718 11.0419 25.6355C11.2785 25.756 11.5953 25.8414 12.1588 25.8874C12.734 25.9344 13.4738 25.9352 14.5404 25.9352H21.4585C22.5251 25.9352 23.2649 25.9344 23.8401 25.8874C24.4036 25.8414 24.7204 25.756 24.957 25.6355C25.4744 25.3718 25.8951 24.9511 26.1588 24.4337C26.2794 24.1971 26.3647 23.8803 26.4108 23.3168C26.4577 22.7416 26.4585 22.0018 26.4585 20.9352V10.4434H9.54036Z" fill="white"/>
<path d="M31.9989 22.1326C32.5512 22.1326 32.9989 22.5803 32.9989 23.1326V23.1405C32.9989 23.2403 32.9989 23.299 32.9983 23.35C32.943 28.379 28.8797 32.4423 23.8507 32.4976C23.7997 32.4982 23.741 32.4982 23.6411 32.4982H12.3577C12.2579 32.4982 12.1991 32.4982 12.1482 32.4976C7.1192 32.4423 3.05592 28.379 3.00056 23.35C3 23.299 3 23.2403 3 23.1405V23.1326H5C5 23.2426 5.00002 23.2895 5.00044 23.328C5.04383 27.2696 8.22856 30.4544 12.1702 30.4978C12.2087 30.4982 12.2556 30.4982 12.3656 30.4982H23.6332C23.7433 30.4982 23.7902 30.4982 23.8287 30.4978C27.7703 30.4544 30.955 27.2696 30.9984 23.328C30.9989 23.2895 30.9989 23.2426 30.9989 23.1326C30.9989 22.5803 31.4466 22.1326 31.9989 22.1326Z" fill="white"/>
</svg>
