<svg width="36" height="36" viewBox="0 0 36 36" fill="none" xmlns="http://www.w3.org/2000/svg">
<path d="M11.939 8.91868C11.939 9.75454 11.2607 10.4321 10.424 10.4321C9.58722 10.4321 8.90891 9.75454 8.90891 8.91868C8.90891 8.08283 9.58722 7.40523 10.424 7.40523C11.2607 7.40523 11.939 8.08283 11.939 8.91868Z" fill="white"/>
<path d="M19.1356 7.91877C18.5833 7.91877 18.1356 8.36649 18.1356 8.91877C18.1356 9.47106 18.5833 9.91877 19.1356 9.91877H25.9534C26.5057 9.91877 26.9534 9.47106 26.9534 8.91877C26.9534 8.36649 26.5057 7.91877 25.9534 7.91877H19.1356Z" fill="white"/>
<path fill-rule="evenodd" clip-rule="evenodd" d="M11.4575 3C10.4435 2.99999 9.62178 2.99998 8.95558 3.05441C8.26841 3.11056 7.6591 3.22956 7.09355 3.51772C6.19978 3.97312 5.47312 4.69978 5.01772 5.59355C4.72956 6.1591 4.61056 6.76841 4.55441 7.45557C4.49998 8.12178 4.49999 8.94347 4.5 9.9575V26.0414C4.49999 27.0554 4.49998 27.8771 4.55441 28.5433C4.61056 29.2305 4.72956 29.8398 5.01772 30.4053C5.47312 31.2991 6.19978 32.0258 7.09355 32.4812C7.6591 32.7693 8.26842 32.8883 8.95558 32.9445C9.62178 32.9989 10.4435 32.9989 11.4575 32.9989H24.5411C25.5552 32.9989 26.3768 32.9989 27.043 32.9445C27.7302 32.8883 28.3395 32.7693 28.9051 32.4812C29.7988 32.0258 30.5255 31.2991 30.9809 30.4053C31.2691 29.8398 31.3881 29.2305 31.4442 28.5433C31.4986 27.8771 31.4986 27.0554 31.4986 26.0414V9.95748C31.4986 8.94346 31.4986 8.12178 31.4442 7.45558C31.3881 6.76841 31.2691 6.1591 30.9809 5.59355C30.5255 4.69978 29.7988 3.97312 28.9051 3.51772C28.3395 3.22956 27.7302 3.11056 27.043 3.05441C26.3768 2.99998 25.5551 2.99999 24.5411 3H11.4575ZM8.00153 5.29973C8.23814 5.17917 8.55496 5.09381 9.11844 5.04777C9.69359 5.00078 10.4334 5 11.5 5H24.4986C25.5652 5 26.305 5.00078 26.8802 5.04777C27.4437 5.09381 27.7605 5.17917 27.9971 5.29973C28.5145 5.56338 28.9352 5.98408 29.1989 6.50153C29.3194 6.73814 29.4048 7.05496 29.4508 7.61844C29.4978 8.19359 29.4986 8.9334 29.4986 10V12.0808H6.5V10C6.5 8.9334 6.50078 8.19359 6.54777 7.61844C6.59381 7.05496 6.67917 6.73814 6.79973 6.50153C7.06338 5.98408 7.48408 5.56338 8.00153 5.29973ZM6.5 14.0808V25.9989C6.5 27.0655 6.50078 27.8053 6.54777 28.3804C6.59381 28.9439 6.67917 29.2607 6.79973 29.4974C7.06338 30.0148 7.48408 30.4355 8.00153 30.6991C8.23814 30.8197 8.55496 30.9051 9.11844 30.9511C9.6936 30.9981 10.4334 30.9989 11.5 30.9989H24.4986C25.5652 30.9989 26.305 30.9981 26.8802 30.9511C27.4437 30.9051 27.7605 30.8197 27.9971 30.6991C28.5145 30.4355 28.9352 30.0148 29.1989 29.4974C29.3194 29.2607 29.4048 28.9439 29.4508 28.3804C29.4978 27.8053 29.4986 27.0655 29.4986 25.9989V14.0808H6.5Z" fill="white"/>
</svg>
