<svg width="36" height="36" viewBox="0 0 36 36" fill="none" xmlns="http://www.w3.org/2000/svg">
<path fill-rule="evenodd" clip-rule="evenodd" d="M12.418 9.625C12.418 6.92795 14.6126 4.75 17.3095 4.75C20.0063 4.75 22.201 6.92795 22.201 9.625H29.739C30.363 9.625 30.8689 10.1287 30.8689 10.75C30.8689 11.3713 30.363 11.875 29.739 11.875H27.8557L27.8557 20.125H16.543C14.8861 20.125 13.543 21.4681 13.543 23.125V29.1249C12.6764 29.1243 11.9536 29.119 11.3537 29.0702C10.6558 29.0134 10.0254 28.8923 9.43674 28.5937C8.51541 28.1263 7.76634 27.3805 7.2969 26.4632C6.99695 25.8771 6.87531 25.2495 6.81828 24.5546C6.76319 23.8833 6.7632 23.0572 6.76322 22.0471L6.76322 11.875H4.87996C4.2559 11.875 3.75 11.3713 3.75 10.75C3.75 10.1287 4.2559 9.625 4.87996 9.625H12.418ZM14.668 9.625C14.668 8.17991 15.8459 7 17.3095 7C18.773 7 19.951 8.17991 19.951 9.625H14.668Z" fill="white"/>
<path d="M15.9328 23.5C15.9328 22.9477 16.3805 22.5 16.9328 22.5H31.2456C31.7979 22.5 32.2456 22.9477 32.2456 23.5C32.2456 24.0523 31.7979 24.5 31.2456 24.5H16.9328C16.3805 24.5 15.9328 24.0523 15.9328 23.5Z" fill="white"/>
<path fill-rule="evenodd" clip-rule="evenodd" d="M15.9328 28C15.9328 27.4477 16.3805 27 16.9328 27H31.2456C31.7979 27 32.2456 27.4477 32.2456 28C32.2456 28.5523 31.7979 29 31.2456 29H27.569C27.1472 30.3056 25.9218 31.25 24.4758 31.25H23.7026C22.2566 31.25 21.0312 30.3056 20.6094 29H16.9328C16.3805 29 15.9328 28.5523 15.9328 28ZM22.9525 29C23.1615 29.157 23.4212 29.25 23.7026 29.25H24.4758C24.7572 29.25 25.017 29.157 25.2259 29H22.9525Z" fill="white"/>
</svg>
