<svg width="36" height="36" viewBox="0 0 36 36" fill="none" xmlns="http://www.w3.org/2000/svg">
<path fill-rule="evenodd" clip-rule="evenodd" d="M9.625 3C6.93261 3 4.75 5.18261 4.75 7.875V12H31.5796V7.875C31.5796 5.18261 29.397 3 26.7046 3H9.625ZM12.2027 9C12.2027 9.82843 11.5353 10.5 10.7121 10.5C9.88893 10.5 9.22159 9.82843 9.22159 9C9.22159 8.17157 9.88893 7.5 10.7121 7.5C11.5353 7.5 12.2027 8.17157 12.2027 9ZM19.2827 7.875C18.6614 7.875 18.1577 8.37868 18.1577 9C18.1577 9.62132 18.6614 10.125 19.2827 10.125H25.9901C26.6114 10.125 27.1151 9.62132 27.1151 9C27.1151 8.37868 26.6114 7.875 25.9901 7.875H19.2827Z" fill="white"/>
<path d="M31.5796 14.25H4.75V28.125C4.75 30.8174 6.93261 33 9.625 33H26.7046L26.7292 32.9999H23.3016C23.2347 32.8709 23.1803 32.7438 23.1397 32.6197L22.3548 30.2178C22.1329 29.539 21.6039 29.0066 20.9294 28.7834L18.5427 27.9935C16.1514 27.202 16.1514 23.7977 18.5427 23.0063L20.9294 22.2164C21.6039 21.9931 22.1329 21.4607 22.3548 20.7819L23.1397 18.3801C23.9262 15.9736 27.309 15.9736 28.0954 18.3801L28.8804 20.7819C29.1022 21.4607 29.6312 21.9931 30.3057 22.2164L31.5796 22.638V14.25Z" fill="white"/>
<path d="M25.9739 19.0907C25.8612 18.746 25.3736 18.746 25.261 19.0907L24.479 21.4837C24.035 22.8421 22.9722 23.9089 21.6155 24.3579L19.2404 25.144C18.8975 25.2575 18.8975 25.7425 19.2404 25.856L21.6155 26.6421C22.9722 27.0911 24.035 28.1579 24.479 29.5163L25.261 31.9093C25.3736 32.254 25.8612 32.254 25.9739 31.9093L26.7559 29.5163C27.1999 28.1579 28.2626 27.0911 29.6194 26.6421L31.9945 25.856C32.3373 25.7425 32.3373 25.2575 31.9945 25.144L29.6194 24.3579C28.2626 23.9089 27.1999 22.8421 26.7559 21.4837L25.9739 19.0907Z" fill="white"/>
</svg>
