<svg width="36" height="36" viewBox="0 0 36 36" fill="none" xmlns="http://www.w3.org/2000/svg">
<path fill-rule="evenodd" clip-rule="evenodd" d="M13.0908 8.41013C13.0908 5.69879 15.2881 3.5 17.9995 3.5C20.7108 3.5 22.9081 5.69868 22.9081 8.41002L30.4854 8.41013C31.1123 8.41013 31.6205 8.91851 31.6205 9.54563C31.6205 10.1728 31.1123 10.6811 30.4854 10.6811H28.5936V20.9483C28.5936 21.9677 28.5936 22.8016 28.5383 23.4792C28.481 24.1805 28.3588 24.814 28.0575 25.4056C27.5859 26.3314 26.8335 27.0842 25.9079 27.5559C25.3166 27.8574 24.6833 27.9796 23.9822 28.0369C23.3049 28.0923 22.4715 28.0922 21.4524 28.0922H14.5466C13.5275 28.0922 12.694 28.0923 12.0166 28.0369C11.3155 27.9796 10.6823 27.8574 10.0909 27.5559C9.16542 27.0842 8.41295 26.3314 7.94137 25.4056C7.64006 24.814 7.51787 24.1805 7.46058 23.4792C7.40524 22.8015 7.40525 21.9678 7.40526 20.9483L7.40526 10.6811H5.51345C4.88655 10.6811 4.37836 10.1728 4.37836 9.54563C4.37836 8.91851 4.88655 8.41013 5.51345 8.41013H13.0908ZM15.3408 8.41002C15.3408 6.94054 16.5315 5.75 17.9995 5.75C19.4674 5.75 20.6581 6.94054 20.6581 8.41002H15.3408Z" fill="white"/>
<path d="M31.9989 22.1715C32.5512 22.1715 32.9989 22.6192 32.9989 23.1715V23.1774C32.9989 23.2435 32.9989 23.2825 32.9986 23.3164C32.9615 28.372 28.8723 32.4612 23.8167 32.4983C23.7828 32.4985 23.7436 32.4985 23.677 32.4985H12.3218C12.2553 32.4985 12.2161 32.4985 12.1822 32.4983C7.12657 32.4612 3.03733 28.372 3.00025 23.3164C3 23.2824 3 23.2433 3 23.1768V23.1715H5C5 23.2448 5.00001 23.276 5.0002 23.3017C5.02926 27.2642 8.23434 30.4693 12.1968 30.4983C12.2225 30.4985 12.2537 30.4985 12.327 30.4985H23.6718C23.6995 30.4985 23.7213 30.4985 23.7389 30.4985C23.768 30.4985 23.7861 30.4985 23.8021 30.4983C27.7645 30.4693 30.9696 27.2642 30.9987 23.3017L30.9988 23.2772L30.9989 23.1715C30.9989 22.6192 31.4466 22.1715 31.9989 22.1715Z" fill="white"/>
</svg>
