<svg width="36" height="36" viewBox="0 0 36 36" fill="none" xmlns="http://www.w3.org/2000/svg">
<path d="M10.6141 10.4322C11.4407 10.4322 12.1108 9.75458 12.1108 8.91873C12.1108 8.08287 11.4407 7.40527 10.6141 7.40527C9.78753 7.40527 9.11746 8.08287 9.11746 8.91873C9.11746 9.75458 9.78753 10.4322 10.6141 10.4322Z" fill="white"/>
<path d="M18.2198 8.91895C18.2198 8.36666 18.6676 7.91895 19.2198 7.91895H25.9548C26.5071 7.91895 26.9548 8.36666 26.9548 8.91895C26.9548 9.47123 26.5071 9.91895 25.9548 9.91895H19.2198C18.6676 9.91895 18.2198 9.47123 18.2198 8.91895Z" fill="white"/>
<path fill-rule="evenodd" clip-rule="evenodd" d="M11.7075 3H24.4872C25.5012 2.99999 26.3229 2.99998 26.9891 3.05441C27.6763 3.11056 28.2856 3.22956 28.8512 3.51772C29.7449 3.97312 30.4716 4.69978 30.927 5.59355C31.2151 6.1591 31.3342 6.76841 31.3903 7.45558C31.4447 8.1218 31.4447 8.94352 31.4447 9.95758V21.7831C31.4447 22.3354 30.997 22.7831 30.4447 22.7831C29.8924 22.7831 29.4447 22.3354 29.4447 21.7831V14.0806H6.75V25.9989C6.75 27.0655 6.75078 27.8053 6.79777 28.3804C6.84381 28.9439 6.92917 29.2607 7.04973 29.4974C7.31338 30.0148 7.73408 30.4355 8.25153 30.6991C8.48814 30.8197 8.80496 30.9051 9.36844 30.9511C9.94359 30.9981 10.6834 30.9989 11.75 30.9989H21.839C22.3913 30.9989 22.839 31.4466 22.839 31.9989C22.839 32.5512 22.3913 32.9989 21.839 32.9989H11.7075C10.6935 32.9989 9.87177 32.9989 9.20557 32.9445C8.51841 32.8883 7.9091 32.7693 7.34355 32.4812C6.44978 32.0258 5.72312 31.2991 5.26772 30.4053C4.97956 29.8398 4.86056 29.2305 4.80441 28.5433C4.74998 27.8771 4.74999 27.0554 4.75 26.0414V9.9575C4.74999 8.94347 4.74998 8.12178 4.80441 7.45557C4.86056 6.76841 4.97956 6.1591 5.26772 5.59355C5.72312 4.69978 6.44978 3.97312 7.34355 3.51772C7.9091 3.22956 8.51841 3.11056 9.20558 3.05441C9.87178 2.99998 10.6935 2.99999 11.7075 3ZM29.4447 10V12.0806H6.75V10C6.75 8.9334 6.75078 8.19359 6.79777 7.61844C6.84381 7.05496 6.92917 6.73814 7.04973 6.50153C7.31338 5.98408 7.73408 5.56338 8.25153 5.29973C8.48814 5.17917 8.80496 5.09381 9.36844 5.04777C9.94359 5.00078 10.6834 5 11.75 5H24.4447C25.5113 5 26.2511 5.00078 26.8263 5.04777C27.3897 5.09381 27.7066 5.17917 27.9432 5.29973C28.4606 5.56338 28.8813 5.98408 29.145 6.50153C29.2655 6.73814 29.3509 7.05496 29.3969 7.61844C29.4439 8.19359 29.4447 8.9334 29.4447 10Z" fill="white"/>
<path d="M25.9372 19.096C25.8249 18.7507 25.3363 18.7507 25.224 19.096L24.4314 21.5329C23.9894 22.8919 22.9282 23.9601 21.5722 24.4111L19.1673 25.2109C18.8251 25.3247 18.8251 25.8088 19.1673 25.9226L21.5722 26.7224C22.9282 27.1734 23.9894 28.2417 24.4314 29.6007L25.224 32.0375C25.3363 32.3829 25.8249 32.3829 25.9372 32.0375L26.7297 29.6007C27.1717 28.2417 28.233 27.1734 29.589 26.7224L31.9939 25.9226C32.3361 25.8088 32.3361 25.3247 31.9939 25.2109L29.589 24.4111C28.233 23.9601 27.1717 22.8919 26.7297 21.5329L25.9372 19.096Z" fill="white"/>
</svg>
