<svg width="36" height="36" viewBox="0 0 36 36" fill="none" xmlns="http://www.w3.org/2000/svg">
<path fill-rule="evenodd" clip-rule="evenodd" d="M17.9942 31.357C18.403 32.5794 19.7027 33.2597 20.9397 32.9075C23.6784 32.1276 25.2897 29.3019 24.554 26.5524L23.1084 21.1495C23.0237 20.8327 23.2626 20.5139 23.6024 20.5139H26.7102C30.9421 20.5139 33.6154 15.9629 31.5265 12.2794L27.7199 5.56705C26.1997 2.88659 23.1073 1.50741 20.0924 2.16064L11.2554 4.07531C10.5949 3.07757 9.40474 2.4754 8.12282 2.6351L6.61191 2.82334C4.91083 3.03526 3.65962 4.52495 3.75512 6.23821L4.31123 16.2148C4.38328 17.5073 5.21468 18.6327 6.42683 19.0858L7.86982 19.6251C9.21016 20.126 10.5949 19.6935 11.4474 18.7496C11.7245 19.0442 11.9747 19.3652 12.1943 19.709L15.7603 25.294C16.0478 25.7444 16.2789 26.2282 16.4482 26.7345L17.9942 31.357ZM12.2765 16.7765C12.2835 16.6608 12.2844 16.5435 12.279 16.425L11.8037 6.00293L20.5159 4.11529C22.6785 3.64673 24.8931 4.63688 25.9802 6.55366L29.7868 13.266C31.1139 15.6062 29.4208 18.5139 26.7102 18.5139H23.6024C21.9567 18.5139 20.7495 20.071 21.1764 21.6664L22.622 27.0694C23.074 28.7588 22.0853 30.5018 20.392 30.984C20.1787 31.0447 19.959 30.9263 19.8909 30.7226L18.3449 26.1002C18.1236 25.4383 17.8217 24.8061 17.446 24.2177L13.8799 18.6327C13.4354 17.9364 12.8944 17.3121 12.2765 16.7765ZM10.2359 16.9191C10.0436 17.5994 9.28661 18.0195 8.57001 17.7517L7.12702 17.2123C6.65569 17.0362 6.33582 16.6003 6.30813 16.1035L5.75202 6.1269C5.71536 5.46921 6.19608 4.89061 6.85916 4.808L8.37007 4.61976C8.99832 4.54149 9.56943 4.93403 9.74127 5.50654C9.77003 5.60237 9.78797 5.70443 9.79287 5.812L10.2811 16.5162C10.2877 16.6614 10.2707 16.796 10.2359 16.9191Z" fill="white"/>
</svg>
