<svg width="36" height="36" viewBox="0 0 36 36" fill="none" xmlns="http://www.w3.org/2000/svg">
<path fill-rule="evenodd" clip-rule="evenodd" d="M21.1429 32.9305C20.2234 33.1946 19.2602 32.6839 18.9578 31.7721L17.4121 27.1113C17.2265 26.5518 16.9734 26.0173 16.6584 25.5198L13.0929 19.8884C12.856 19.5143 12.5865 19.1647 12.2884 18.8433C11.4795 20.1686 9.80227 20.8693 8.19022 20.2617L6.7501 19.7189C5.49144 19.2445 4.62913 18.0692 4.55019 16.7204L4.00595 7.42129C3.90079 5.62437 5.20073 4.05365 6.97782 3.83039L8.4869 3.64079C9.79549 3.47639 11.0124 4.08085 11.7071 5.09023L20.5973 3.14775C23.3474 2.54685 26.1664 3.816 27.5512 6.27855L31.3573 13.0466C33.2074 16.3365 30.8426 20.4101 27.0826 20.4101H23.9753C23.2308 20.4101 22.6886 21.1194 22.8804 21.8425L24.3258 27.2903C24.9727 29.7282 23.5567 32.2374 21.1429 32.9305ZM8.98595 18.129C9.74831 18.4163 10.5544 17.8258 10.5157 17.0084L10.0404 6.97689C10.009 6.31422 9.42296 5.81868 8.768 5.90097L7.25891 6.09056C6.66655 6.16498 6.23323 6.68856 6.26829 7.28753L6.81253 16.5867C6.83884 17.0363 7.12628 17.428 7.54583 17.5862L8.98595 18.129Z" fill="white"/>
</svg>
