<svg width="36" height="36" viewBox="0 0 36 36" fill="none" xmlns="http://www.w3.org/2000/svg">
<path fill-rule="evenodd" clip-rule="evenodd" d="M6.53134 5.6618C6 6.70462 6 8.06974 6 10.8V25.2C6 27.9303 6 29.2954 6.53134 30.3382C6.99873 31.2555 7.74451 32.0013 8.6618 32.4687C9.70462 33 11.0697 33 13.8 33H22.2C24.9303 33 26.2954 33 27.3382 32.4687C28.2555 32.0013 29.0013 31.2555 29.4687 30.3382C30 29.2954 30 27.9303 30 25.2V10.8C30 8.06974 30 6.70462 29.4687 5.6618C29.0013 4.74451 28.2555 3.99873 27.3382 3.53134C26.2954 3 24.9303 3 22.2 3H13.8C11.0697 3 9.70462 3 8.6618 3.53134C7.74451 3.99873 6.99873 4.74451 6.53134 5.6618ZM12 9.125C11.4477 9.125 11 9.57272 11 10.125C11 10.6773 11.4477 11.125 12 11.125H24C24.5523 11.125 25 10.6773 25 10.125C25 9.57272 24.5523 9.125 24 9.125H12ZM12 14C11.4477 14 11 14.4477 11 15C11 15.5523 11.4477 16 12 16H24C24.5523 16 25 15.5523 25 15C25 14.4477 24.5523 14 24 14H12ZM12 18.5C11.4477 18.5 11 18.9477 11 19.5C11 20.0523 11.4477 20.5 12 20.5H18C18.5523 20.5 19 20.0523 19 19.5C19 18.9477 18.5523 18.5 18 18.5H12Z" fill="white"/>
</svg>
