<svg width="36" height="36" viewBox="0 0 36 36" fill="none" xmlns="http://www.w3.org/2000/svg">
<path fill-rule="evenodd" clip-rule="evenodd" d="M6.53134 5.6618C6 6.70462 6 8.06974 6 10.8V25.2C6 27.9303 6 29.2954 6.53134 30.3382C6.99873 31.2555 7.74451 32.0013 8.6618 32.4687C9.70462 33 11.0697 33 13.8 33H18.9004C17.4039 31.252 16.5 28.9815 16.5 26.5C16.5 20.9772 20.9772 16.5 26.5 16.5C27.7313 16.5 28.9107 16.7225 30 17.1296V10.8C30 8.06974 30 6.70462 29.4687 5.6618C29.0013 4.74451 28.2555 3.99873 27.3382 3.53134C26.2954 3 24.9303 3 22.2 3H13.8C11.0697 3 9.70462 3 8.6618 3.53134C7.74451 3.99873 6.99873 4.74451 6.53134 5.6618ZM12 9.125C11.4477 9.125 11 9.57272 11 10.125C11 10.6773 11.4477 11.125 12 11.125H24C24.5523 11.125 25 10.6773 25 10.125C25 9.57272 24.5523 9.125 24 9.125H12ZM12 14C11.4477 14 11 14.4477 11 15C11 15.5523 11.4477 16 12 16H18C18.5523 16 19 15.5523 19 15C19 14.4477 18.5523 14 18 14H12Z" fill="white"/>
<path fill-rule="evenodd" clip-rule="evenodd" d="M35 26.5C35 31.1944 31.1944 35 26.5 35C21.8056 35 18 31.1944 18 26.5C18 21.8056 21.8056 18 26.5 18C31.1944 18 35 21.8056 35 26.5ZM29.882 22.8237C28.7949 21.811 27.1235 21.5285 25.8601 22.7359L22.4618 25.9799C22.1748 26.2539 21.7207 26.2425 21.4476 25.9545C21.1745 25.6664 21.1859 25.2108 21.4729 24.9367L24.8706 21.6932C26.8217 19.829 29.3677 20.3801 30.8581 21.7685C31.6088 22.4678 32.1516 23.4231 32.238 24.4796C32.3263 25.5595 31.9303 26.6637 30.9497 27.6009L26.7388 31.6259C25.3044 32.9969 23.4361 32.5796 22.3599 31.577C21.8163 31.0706 21.4148 30.3713 21.3506 29.5867C21.2845 28.7787 21.5839 27.9624 22.2956 27.2822L26.4461 23.3152C27.3352 22.4657 28.48 22.7047 29.1526 23.2811C29.1743 23.2997 29.1955 23.3187 29.2162 23.3379C29.5526 23.6514 29.8129 24.0948 29.8548 24.6074C29.8987 25.1433 29.6962 25.6716 29.2535 26.095L29.2516 26.0969L25.8039 29.3693C25.516 29.6426 25.062 29.6299 24.7897 29.341C24.5175 29.0522 24.5301 28.5966 24.8179 28.3234L28.2637 25.0527L28.2646 25.0519C28.4181 24.9047 28.4305 24.7934 28.4249 24.7253C28.4174 24.6337 28.3638 24.5084 28.24 24.3931C28.1172 24.2787 27.9647 24.2123 27.8272 24.2027C27.7703 24.1987 27.7108 24.2037 27.6494 24.2237C27.5802 24.2463 27.5086 24.288 27.4357 24.3577L23.2852 28.3247C22.8619 28.7293 22.7528 29.1287 22.7806 29.4689C22.8103 29.8324 23.0051 30.2136 23.3361 30.5219C24.0088 31.1486 25.0024 31.2971 25.7492 30.5834L29.9601 26.5583C30.6522 25.8968 30.8581 25.2095 30.808 24.5974C30.756 23.962 30.42 23.3249 29.882 22.8237Z" fill="white"/>
</svg>
