<svg width="36" height="36" viewBox="0 0 36 36" fill="none" xmlns="http://www.w3.org/2000/svg">
<path d="M12.9575 3C11.9435 2.99999 11.1218 2.99998 10.4556 3.05441C9.76841 3.11056 9.1591 3.22956 8.59355 3.51772C7.69978 3.97312 6.97312 4.69978 6.51772 5.59355C6.22956 6.1591 6.11056 6.76842 6.05441 7.45558C5.99998 8.12178 5.99999 8.94347 6 9.9575V26.0414C5.99999 27.0554 5.99998 27.8771 6.05441 28.5433C6.11056 29.2305 6.22956 29.8398 6.51772 30.4053C6.97312 31.2991 7.69978 32.0258 8.59355 32.4812C9.1591 32.7693 9.76842 32.8883 10.4556 32.9445C11.1218 32.9989 11.9435 32.9989 12.9575 32.9989H18.8995C18.3792 32.391 17.9306 31.72 17.5667 30.9989H13C11.9334 30.9989 11.1936 30.9981 10.6184 30.9511C10.055 30.9051 9.73814 30.8197 9.50153 30.6991C8.98408 30.4355 8.56338 30.0148 8.29973 29.4974C8.17917 29.2607 8.09381 28.9439 8.04777 28.3804C8.00078 27.8053 8 27.0655 8 25.9989V10C8 8.9334 8.00078 8.19359 8.04777 7.61844C8.09381 7.05496 8.17917 6.73814 8.29973 6.50153C8.56338 5.98408 8.98408 5.56339 9.50153 5.29973C9.73814 5.17917 10.055 5.09381 10.6184 5.04777C11.1936 5.00078 11.9334 5 13 5H22.9982C24.0648 5 24.8046 5.00078 25.3798 5.04777C25.9433 5.09381 26.2601 5.17917 26.4967 5.29973C27.0142 5.56339 27.4349 5.98408 27.6985 6.50153C27.8191 6.73814 27.9044 7.05496 27.9505 7.61844C27.9975 8.19359 27.9982 8.9334 27.9982 10V16.6115C28.6907 16.7155 29.3599 16.8906 29.9982 17.129V9.95748C29.9983 8.94346 29.9983 8.12178 29.9438 7.45558C29.8877 6.76842 29.7687 6.1591 29.4805 5.59355C29.0251 4.69978 28.2985 3.97312 27.4047 3.51772C26.8391 3.22956 26.2298 3.11056 25.5427 3.05441C24.8765 2.99998 24.0548 2.99999 23.0408 3H12.9575Z" fill="white"/>
<path d="M11.9307 9.05371C11.3784 9.05371 10.9307 9.50143 10.9307 10.0537C10.9307 10.606 11.3784 11.0537 11.9307 11.0537H24.0676C24.6199 11.0537 25.0676 10.606 25.0676 10.0537C25.0676 9.50143 24.6199 9.05371 24.0676 9.05371H11.9307Z" fill="white"/>
<path d="M11.9307 13.97C11.3784 13.97 10.9307 14.4177 10.9307 14.97C10.9307 15.5223 11.3784 15.97 11.9307 15.97H17.9991C18.5514 15.97 18.9991 15.5223 18.9991 14.97C18.9991 14.4177 18.5514 13.97 17.9991 13.97H11.9307Z" fill="white"/>
<path fill-rule="evenodd" clip-rule="evenodd" d="M35 26.5C35 31.1944 31.1944 35 26.5 35C21.8056 35 18 31.1944 18 26.5C18 21.8056 21.8056 18 26.5 18C31.1944 18 35 21.8056 35 26.5ZM29.882 22.8237C28.7949 21.811 27.1235 21.5285 25.8601 22.7359L22.4618 25.9799C22.1748 26.2539 21.7207 26.2425 21.4476 25.9545C21.1745 25.6664 21.1859 25.2108 21.4729 24.9367L24.8706 21.6932C26.8217 19.829 29.3677 20.3801 30.8581 21.7685C31.6088 22.4678 32.1516 23.4231 32.238 24.4796C32.3263 25.5595 31.9303 26.6637 30.9497 27.6009L26.7388 31.6259C25.3044 32.9969 23.4361 32.5796 22.3599 31.577C21.8163 31.0706 21.4148 30.3713 21.3506 29.5867C21.2845 28.7787 21.5839 27.9624 22.2956 27.2822L26.4461 23.3152C27.3352 22.4657 28.48 22.7047 29.1526 23.2811C29.1743 23.2997 29.1955 23.3187 29.2162 23.3379C29.5526 23.6514 29.8129 24.0948 29.8548 24.6074C29.8987 25.1433 29.6962 25.6716 29.2535 26.095L29.2516 26.0969L25.8039 29.3693C25.516 29.6426 25.062 29.6299 24.7897 29.341C24.5175 29.0522 24.5301 28.5966 24.8179 28.3234L28.2637 25.0527L28.2646 25.0519C28.4181 24.9047 28.4305 24.7934 28.4249 24.7253C28.4174 24.6337 28.3638 24.5084 28.24 24.3931C28.1172 24.2787 27.9647 24.2123 27.8272 24.2027C27.7703 24.1987 27.7108 24.2037 27.6494 24.2237C27.5802 24.2463 27.5086 24.288 27.4357 24.3577L23.2852 28.3247C22.8619 28.7293 22.7528 29.1287 22.7806 29.4689C22.8103 29.8324 23.0051 30.2136 23.3361 30.5219C24.0088 31.1486 25.0024 31.2971 25.7492 30.5834L29.9601 26.5583C30.6522 25.8968 30.8581 25.2095 30.808 24.5974C30.756 23.962 30.42 23.3249 29.882 22.8237Z" fill="white"/>
</svg>
