<svg width="36" height="36" viewBox="0 0 36 36" fill="none" xmlns="http://www.w3.org/2000/svg">
<path fill-rule="evenodd" clip-rule="evenodd" d="M12.9575 3C11.9435 2.99999 11.1218 2.99998 10.4556 3.05441C9.76841 3.11056 9.1591 3.22956 8.59355 3.51772C7.69978 3.97312 6.97312 4.69978 6.51772 5.59355C6.22956 6.1591 6.11056 6.76841 6.05441 7.45558C5.99998 8.12178 5.99999 8.94347 6 9.9575V26.0414C5.99999 27.0554 5.99998 27.8771 6.05441 28.5433C6.11056 29.2305 6.22956 29.8398 6.51772 30.4053C6.97312 31.2991 7.69978 32.0258 8.59355 32.4812C9.1591 32.7693 9.76842 32.8883 10.4556 32.9445C11.1218 32.9989 11.9435 32.9989 12.9575 32.9989H23.0408C24.0548 32.9989 24.8765 32.9989 25.5427 32.9445C26.2298 32.8883 26.8391 32.7693 27.4047 32.4812C28.2985 32.0258 29.0251 31.2991 29.4805 30.4053C29.7687 29.8398 29.8877 29.2305 29.9438 28.5433C29.9983 27.8771 29.9983 27.0554 29.9982 26.0414V9.95748C29.9983 8.94346 29.9983 8.12178 29.9438 7.45558C29.8877 6.76842 29.7687 6.1591 29.4805 5.59355C29.0251 4.69978 28.2985 3.97312 27.4047 3.51772C26.8391 3.22956 26.2298 3.11056 25.5427 3.05441C24.8765 2.99998 24.0548 2.99999 23.0407 3H12.9575ZM9.50153 5.29973C9.73814 5.17917 10.055 5.09381 10.6184 5.04777C11.1936 5.00078 11.9334 5 13 5H22.9982C24.0648 5 24.8046 5.00078 25.3798 5.04777C25.9433 5.09381 26.2601 5.17917 26.4967 5.29973C27.0142 5.56338 27.4349 5.98408 27.6985 6.50153C27.8191 6.73814 27.9044 7.05496 27.9505 7.61844C27.9975 8.19359 27.9982 8.9334 27.9982 10V25.9989C27.9982 27.0655 27.9975 27.8053 27.9505 28.3804C27.9044 28.9439 27.8191 29.2607 27.6985 29.4974C27.4349 30.0148 27.0142 30.4355 26.4967 30.6991C26.2601 30.8197 25.9433 30.9051 25.3798 30.9511C24.8046 30.9981 24.0648 30.9989 22.9982 30.9989H13C11.9334 30.9989 11.1936 30.9981 10.6184 30.9511C10.055 30.9051 9.73814 30.8197 9.50153 30.6991C8.98408 30.4355 8.56338 30.0148 8.29973 29.4974C8.17917 29.2607 8.09381 28.9439 8.04777 28.3804C8.00078 27.8053 8 27.0655 8 25.9989V10C8 8.9334 8.00078 8.19359 8.04777 7.61844C8.09381 7.05496 8.17917 6.73814 8.29973 6.50153C8.56338 5.98408 8.98408 5.56338 9.50153 5.29973ZM11.9307 9.05371C11.3784 9.05371 10.9307 9.50143 10.9307 10.0537C10.9307 10.606 11.3784 11.0537 11.9307 11.0537H24.0676C24.6199 11.0537 25.0676 10.606 25.0676 10.0537C25.0676 9.50143 24.6199 9.05371 24.0676 9.05371H11.9307ZM11.9307 13.9724C11.3784 13.9724 10.9307 14.4201 10.9307 14.9724C10.9307 15.5247 11.3784 15.9724 11.9307 15.9724H24.0676C24.6199 15.9724 25.0676 15.5247 25.0676 14.9724C25.0676 14.4201 24.6199 13.9724 24.0676 13.9724H11.9307ZM11.9307 18.5128C11.3784 18.5128 10.9307 18.9605 10.9307 19.5128C10.9307 20.0651 11.3784 20.5128 11.9307 20.5128H17.9991C18.5514 20.5128 18.9991 20.0651 18.9991 19.5128C18.9991 18.9605 18.5514 18.5128 17.9991 18.5128H11.9307Z" fill="white"/>
</svg>
