<svg width="36" height="36" viewBox="0 0 36 36" fill="none" xmlns="http://www.w3.org/2000/svg">
<path fill-rule="evenodd" clip-rule="evenodd" d="M26.5 18C31.1944 18 35 21.8056 35 26.5C35 31.1944 31.1944 35 26.5 35C21.8056 35 18 31.1944 18 26.5C18 21.8056 21.8056 18 26.5 18ZM26.501 21.1133C26.0869 21.1133 25.7512 21.4492 25.751 21.8633V25.75H21.8643C21.4502 25.75 21.1144 26.0859 21.1143 26.5C21.1144 26.9141 21.4502 27.25 21.8643 27.25H25.751V31.1357C25.751 31.55 26.0868 31.8857 26.501 31.8857C26.9148 31.8853 27.251 31.5497 27.251 31.1357V27.25H31.1367C31.5506 27.2497 31.8865 26.9139 31.8867 26.5C31.8865 26.0861 31.5506 25.7503 31.1367 25.75H27.251V21.8633C27.2508 21.4495 26.9147 21.1137 26.501 21.1133Z" fill="white"/>
<path fill-rule="evenodd" clip-rule="evenodd" d="M21.25 2C22.1039 2 22.8667 2.38934 23.3711 3H24C26.1001 3 27.15 3.00049 27.9521 3.40918C28.6578 3.7687 29.2313 4.34224 29.5908 5.04785C29.9995 5.85001 30 6.89986 30 9V17.1299C28.9106 16.7228 27.7314 16.5 26.5 16.5C20.9772 16.5 16.5 20.9772 16.5 26.5C16.5 28.9822 17.4061 31.2518 18.9033 33H12C9.89986 33 8.85001 32.9995 8.04785 32.5908C7.34224 32.2313 6.7687 31.6578 6.40918 30.9521C6.00049 30.15 6 29.1001 6 27V9C6 6.89986 6.00049 5.85001 6.40918 5.04785C6.7687 4.34224 7.34224 3.7687 8.04785 3.40918C8.85001 3.00049 9.89986 3 12 3H12.6289C13.1333 2.38934 13.8961 2 14.75 2H21.25ZM12 14C11.4477 14 11 14.4477 11 15C11 15.5523 11.4477 16 12 16H18C18.5523 16 19 15.5523 19 15C19 14.4477 18.5523 14 18 14H12ZM12 9.125C11.4477 9.125 11 9.57272 11 10.125C11 10.6773 11.4477 11.125 12 11.125H24C24.5523 11.125 25 10.6773 25 10.125C25 9.57272 24.5523 9.125 24 9.125H12ZM14.75 4C14.3358 4 14 4.33579 14 4.75C14 5.16421 14.3358 5.5 14.75 5.5H21.25C21.6642 5.5 22 5.16421 22 4.75C22 4.33579 21.6642 4 21.25 4H14.75Z" fill="white"/>
</svg>
