<svg width="36" height="36" viewBox="0 0 36 36" fill="none" xmlns="http://www.w3.org/2000/svg">
<path fill-rule="evenodd" clip-rule="evenodd" d="M6 10.8C6 8.06974 6 6.70462 6.53134 5.6618C6.99873 4.74451 7.74451 3.99873 8.6618 3.53134C9.70462 3 11.0697 3 13.8 3H22.2C24.9303 3 26.2954 3 27.3382 3.53134C28.2555 3.99873 29.0013 4.74451 29.4687 5.6618C30 6.70462 30 8.06974 30 10.8V17.1296C28.9107 16.7225 27.7313 16.5 26.5 16.5C20.9772 16.5 16.5 20.9772 16.5 26.5C16.5 28.9815 17.4039 31.252 18.9004 33H13.8C11.0697 33 9.70462 33 8.6618 32.4687C7.74451 32.0013 6.99873 31.2555 6.53134 30.3382C6 29.2954 6 27.9303 6 25.2V10.8ZM11 10.125C11 9.57272 11.4477 9.125 12 9.125H24C24.5523 9.125 25 9.57272 25 10.125C25 10.6773 24.5523 11.125 24 11.125H12C11.4477 11.125 11 10.6773 11 10.125ZM11 15C11 14.4477 11.4477 14 12 14H18C18.5523 14 19 14.4477 19 15C19 15.5523 18.5523 16 18 16H12C11.4477 16 11 15.5523 11 15Z" fill="white"/>
<path fill-rule="evenodd" clip-rule="evenodd" d="M26.5 35C31.1944 35 35 31.1944 35 26.5C35 21.8056 31.1944 18 26.5 18C21.8056 18 18 21.8056 18 26.5C18 31.1944 21.8056 35 26.5 35ZM26.7285 20.15C24.7173 20.15 22.9204 21.0633 21.7285 22.4967V22.1778C21.7285 21.7636 21.3927 21.4278 20.9785 21.4278C20.5643 21.4278 20.2285 21.7636 20.2285 22.1778V24.4139C20.2285 24.8281 20.5643 25.1639 20.9785 25.1639H21.4122C21.4235 25.1641 21.4349 25.1641 21.4462 25.1639H23.2146C23.6288 25.1639 23.9646 24.8281 23.9646 24.4139C23.9646 23.9997 23.6288 23.6639 23.2146 23.6639H22.7176C23.6296 22.4409 25.0872 21.65 26.7285 21.65C29.4899 21.65 31.7285 23.8886 31.7285 26.65C31.7285 29.4114 29.4899 31.65 26.7285 31.65C24.6579 31.65 22.8796 30.3912 22.1204 28.5942C21.9592 28.2127 21.5192 28.034 21.1376 28.1952C20.7561 28.3565 20.5774 28.7965 20.7386 29.178C21.7242 31.5107 24.0341 33.15 26.7285 33.15C30.3184 33.15 33.2285 30.2399 33.2285 26.65C33.2285 23.0602 30.3184 20.15 26.7285 20.15Z" fill="white"/>
</svg>
