<svg width="36" height="36" viewBox="0 0 36 36" fill="none" xmlns="http://www.w3.org/2000/svg">
<path fill-rule="evenodd" clip-rule="evenodd" d="M26.5 18C31.1944 18 35 21.8056 35 26.5C35 31.1944 31.1944 35 26.5 35C21.8056 35 18 31.1944 18 26.5C18 21.8056 21.8056 18 26.5 18ZM31 28.875C30.5858 28.875 30.25 29.2108 30.25 29.625C30.25 30.4534 29.5784 31.125 28.75 31.125H24.25C23.4216 31.125 22.75 30.4534 22.75 29.625C22.75 29.2108 22.4142 28.875 22 28.875C21.5858 28.875 21.25 29.2108 21.25 29.625C21.25 31.2819 22.5931 32.625 24.25 32.625H28.75C30.4069 32.625 31.75 31.2819 31.75 29.625C31.75 29.2108 31.4142 28.875 31 28.875ZM26.5 19.6133C26.2955 19.6134 26.0994 19.6969 25.958 19.8447L22.958 22.9814C22.6717 23.2808 22.6822 23.7557 22.9814 24.042C23.2808 24.3283 23.7557 24.3178 24.042 24.0186L25.75 22.2324V28.5L25.7539 28.5771C25.7925 28.955 26.112 29.2498 26.5 29.25C26.8882 29.25 27.2075 28.9551 27.2461 28.5771L27.25 28.5V22.2324L28.958 24.0186L29.0137 24.0713C29.3028 24.318 29.7379 24.3104 30.0186 24.042C30.2991 23.7736 30.3254 23.3399 30.0918 23.04L30.042 22.9814L27.042 19.8447C26.9005 19.697 26.7045 19.6133 26.5 19.6133Z" fill="white"/>
<path d="M24.4043 3.00684C24.8269 3.01354 25.2051 3.02709 25.543 3.05469C26.2298 3.11082 26.839 3.22965 27.4043 3.51758L27.7314 3.70117C28.4756 4.15755 29.082 4.81167 29.4805 5.59375L29.5811 5.80762C29.7977 6.31252 29.8942 6.85478 29.9434 7.45605C29.9985 8.13146 29.998 8.96663 29.998 10V17.1299C29.3597 16.8915 28.6906 16.7154 27.998 16.6113V10C27.998 8.93341 27.9972 8.19331 27.9502 7.61816C27.9156 7.19552 27.8593 6.91162 27.7822 6.69629L27.6982 6.50195C27.4676 6.04939 27.1171 5.67045 26.6865 5.40625L26.4971 5.2998C26.2605 5.17928 25.9432 5.09388 25.3799 5.04785C25.0923 5.02436 24.7633 5.01193 24.373 5.00586L22.998 5H13C11.9334 5 11.1933 5.00086 10.6182 5.04785C10.1956 5.0824 9.91161 5.13877 9.69629 5.21582L9.50195 5.2998C9.04917 5.53051 8.67047 5.8817 8.40625 6.3125L8.2998 6.50195C8.17935 6.73849 8.09387 7.05513 8.04785 7.61816C8.00086 8.19331 8 8.93342 8 10V25.999C8 27.0655 8.00086 27.8058 8.04785 28.3809C8.09389 28.9438 8.17933 29.2606 8.2998 29.4971L8.40625 29.6865C8.67047 30.1172 9.04922 30.4685 9.50195 30.6992L9.69629 30.7832C9.9116 30.8602 10.1956 30.9166 10.6182 30.9512C11.1933 30.9982 11.9334 30.999 13 30.999H17.5703C17.9343 31.7201 18.3819 32.3912 18.9023 32.999H13C11.9667 32.999 11.1315 32.9995 10.4561 32.9443C9.8547 32.8952 9.31258 32.7977 8.80762 32.5811L8.59375 32.4814C7.81175 32.083 7.15756 31.4764 6.70117 30.7324L6.51758 30.4053C6.22947 29.8398 6.11083 29.23 6.05469 28.543C5.99953 27.8676 6 27.0323 6 25.999V10C6 8.96665 5.99954 8.13145 6.05469 7.45605C6.11082 6.76899 6.2295 6.15923 6.51758 5.59375C6.97298 4.69999 7.69998 3.97298 8.59375 3.51758C9.15924 3.2295 9.76899 3.11082 10.4561 3.05469C11.1315 2.99954 11.9667 3 13 3H22.998L24.4043 3.00684Z" fill="white"/>
<path d="M18.1016 13.9756C18.6056 14.0269 18.9989 14.4522 18.999 14.9697C18.999 15.4874 18.6057 15.9136 18.1016 15.9648L17.999 15.9697H11.9307C11.3784 15.9697 10.9307 15.522 10.9307 14.9697C10.9308 14.4176 11.3785 13.9698 11.9307 13.9697H17.999L18.1016 13.9756Z" fill="white"/>
<path d="M24.1699 9.05859C24.6742 9.10981 25.0674 9.53595 25.0674 10.0537C25.0674 10.5715 24.6742 10.9976 24.1699 11.0488L24.0674 11.0537H11.9307C11.3784 11.0537 10.9307 10.606 10.9307 10.0537C10.9307 9.50144 11.3784 9.05374 11.9307 9.05371H24.0674L24.1699 9.05859Z" fill="white"/>
</svg>
