<svg width="36" height="36" viewBox="0 0 36 36" fill="none" xmlns="http://www.w3.org/2000/svg">
<path fill-rule="evenodd" clip-rule="evenodd" d="M10.6184 5.04777C10.9963 5.01689 11.4453 5.00597 12.0114 5.00211C12.1387 6.40273 13.3162 7.5 14.75 7.5H21.25C22.6838 7.5 23.8613 6.40273 23.9886 5.00212C24.5538 5.00599 25.0023 5.01693 25.3798 5.04777C25.9433 5.09381 26.2601 5.17917 26.4967 5.29973C27.0142 5.56339 27.4349 5.98408 27.6985 6.50153C27.8191 6.73814 27.9044 7.05496 27.9505 7.61844C27.9975 8.19359 27.9982 8.9334 27.9982 10V16.6115C28.6907 16.7155 29.3599 16.8906 29.9982 17.129V9.95748C29.9983 8.94346 29.9983 8.12178 29.9438 7.45558C29.8877 6.76842 29.7687 6.1591 29.4805 5.59355C29.0251 4.69978 28.2985 3.97312 27.4047 3.51772C26.8391 3.22956 26.2298 3.11056 25.5427 3.05441C24.9504 3.00603 24.2353 3.00066 23.3715 3.00007C22.8671 2.38928 22.104 2 21.25 2H14.75C13.896 2 13.1329 2.38928 12.6285 3.00007C11.7639 3.00065 11.0482 3.00599 10.4556 3.05441C9.76842 3.11056 9.1591 3.22956 8.59355 3.51772C7.69978 3.97312 6.97312 4.69978 6.51772 5.59355C6.22956 6.1591 6.11056 6.76841 6.05441 7.45558C5.99998 8.12177 5.99999 8.94345 6 9.95747V26.0414C5.99999 27.0554 5.99998 27.8771 6.05441 28.5433C6.11056 29.2305 6.22956 29.8398 6.51772 30.4053C6.97312 31.2991 7.69978 32.0258 8.59355 32.4812C9.1591 32.7693 9.76842 32.8883 10.4556 32.9445C11.1218 32.9989 11.9435 32.9989 12.9575 32.9989H18.8995C18.3792 32.391 17.9306 31.72 17.5667 30.9989H13C11.9334 30.9989 11.1936 30.9981 10.6184 30.9511C10.055 30.9051 9.73814 30.8197 9.50153 30.6991C8.98408 30.4355 8.56338 30.0148 8.29973 29.4974C8.17917 29.2607 8.09381 28.9439 8.04777 28.3804C8.00078 27.8053 8 27.0655 8 25.9989V10C8 8.9334 8.00078 8.19359 8.04777 7.61844C8.09381 7.05496 8.17917 6.73814 8.29973 6.50153C8.56338 5.98408 8.98408 5.56339 9.50153 5.29973C9.73814 5.17917 10.055 5.09381 10.6184 5.04777ZM14.75 5.5C14.4234 5.5 14.1456 5.2913 14.0427 5L14.0394 4.99055C14.0139 4.91504 14 4.83414 14 4.75001C14 4.3358 14.3358 4 14.75 4H21.25C21.3018 4 21.3523 4.00525 21.4012 4.01524C21.7429 4.08517 22 4.38756 22 4.75L21.9998 4.76936C21.9977 4.85005 21.9829 4.92758 21.9573 5C21.8544 5.2913 21.5766 5.5 21.25 5.5H14.75Z" fill="white"/>
<path d="M11.9307 9.05371C11.3784 9.05371 10.9307 9.50143 10.9307 10.0537C10.9307 10.606 11.3784 11.0537 11.9307 11.0537H24.0676C24.6199 11.0537 25.0676 10.606 25.0676 10.0537C25.0676 9.50143 24.6199 9.05371 24.0676 9.05371H11.9307Z" fill="white"/>
<path d="M11.9307 13.97C11.3784 13.97 10.9307 14.4177 10.9307 14.97C10.9307 15.5223 11.3784 15.97 11.9307 15.97H17.9991C18.5514 15.97 18.9991 15.5223 18.9991 14.97C18.9991 14.4177 18.5514 13.97 17.9991 13.97H11.9307Z" fill="white"/>
<path fill-rule="evenodd" clip-rule="evenodd" d="M35 26.5C35 31.1944 31.1944 35 26.5 35C21.8056 35 18 31.1944 18 26.5C18 21.8056 21.8056 18 26.5 18C31.1944 18 35 21.8056 35 26.5ZM31.45 22.4C31.7814 22.6485 31.8485 23.1186 31.6 23.45L25.6 31.45C25.4643 31.6309 25.2542 31.741 25.0282 31.7495C24.8023 31.758 24.5845 31.6641 24.4356 31.4939L20.9356 27.4939C20.6628 27.1822 20.6944 26.7083 21.0061 26.4356C21.3178 26.1628 21.7917 26.1944 22.0644 26.5061L24.9552 29.8098L30.4 22.55C30.6485 22.2186 31.1186 22.1515 31.45 22.4Z" fill="white"/>
</svg>
