<svg width="36" height="36" viewBox="0 0 36 36" fill="none" xmlns="http://www.w3.org/2000/svg">
<path fill-rule="evenodd" clip-rule="evenodd" d="M12.9575 3H23.0407C24.0548 2.99999 24.8765 2.99998 25.5427 3.05441C26.2298 3.11056 26.8391 3.22956 27.4047 3.51772C28.2985 3.97312 29.0251 4.69978 29.4805 5.59355C29.7687 6.1591 29.8877 6.76842 29.9438 7.45558C29.9983 8.12178 29.9983 8.94346 29.9982 9.95748V17.129C29.3599 16.8906 28.6907 16.7155 27.9982 16.6115V10C27.9982 8.9334 27.9975 8.19359 27.9505 7.61844C27.9044 7.05496 27.8191 6.73814 27.6985 6.50153C27.4349 5.98408 27.0142 5.56339 26.4967 5.29973C26.2601 5.17917 25.9433 5.09381 25.3798 5.04777C24.8046 5.00078 24.0648 5 22.9982 5H13C11.9334 5 11.1936 5.00078 10.6184 5.04777C10.055 5.09381 9.73814 5.17917 9.50153 5.29973C8.98408 5.56339 8.56338 5.98408 8.29973 6.50153C8.17917 6.73814 8.09381 7.05496 8.04777 7.61844C8.00078 8.19359 8 8.9334 8 10V25.9989C8 27.0655 8.00078 27.8053 8.04777 28.3804C8.09381 28.9439 8.17917 29.2607 8.29973 29.4974C8.56338 30.0148 8.98408 30.4355 9.50153 30.6991C9.73814 30.8197 10.055 30.9051 10.6184 30.9511C11.1936 30.9981 11.9334 30.9989 13 30.9989H17.5667C17.9306 31.72 18.3792 32.391 18.8995 32.9989H12.9575C11.9435 32.9989 11.1218 32.9989 10.4556 32.9445C9.76842 32.8883 9.1591 32.7693 8.59355 32.4812C7.69978 32.0258 6.97312 31.2991 6.51772 30.4053C6.22956 29.8398 6.11056 29.2305 6.05441 28.5433C5.99998 27.8771 5.99999 27.0554 6 26.0414V9.9575C5.99999 8.94347 5.99998 8.12178 6.05441 7.45558C6.11056 6.76841 6.22956 6.1591 6.51772 5.59355C6.97312 4.69978 7.69978 3.97312 8.59355 3.51772C9.1591 3.22956 9.76841 3.11056 10.4556 3.05441C11.1218 2.99998 11.9435 2.99999 12.9575 3ZM10.9307 10.0537C10.9307 9.50143 11.3784 9.05371 11.9307 9.05371H24.0676C24.6199 9.05371 25.0676 9.50143 25.0676 10.0537C25.0676 10.606 24.6199 11.0537 24.0676 11.0537H11.9307C11.3784 11.0537 10.9307 10.606 10.9307 10.0537ZM10.9307 14.97C10.9307 14.4177 11.3784 13.97 11.9307 13.97H17.9991C18.5514 13.97 18.9991 14.4177 18.9991 14.97C18.9991 15.5223 18.5514 15.97 17.9991 15.97H11.9307C11.3784 15.97 10.9307 15.5223 10.9307 14.97Z" fill="white"/>
<path fill-rule="evenodd" clip-rule="evenodd" d="M26.5 35C31.1944 35 35 31.1944 35 26.5C35 21.8056 31.1944 18 26.5 18C21.8056 18 18 21.8056 18 26.5C18 31.1944 21.8056 35 26.5 35ZM26.2577 23.167C26.5506 22.8742 26.5506 22.3993 26.2577 22.1064C25.9648 21.8135 25.49 21.8135 25.1971 22.1064L21.3334 25.97C21.0405 26.2629 21.0405 26.7378 21.3334 27.0307L25.1971 30.8943C25.49 31.1872 25.9648 31.1872 26.2577 30.8943C26.5506 30.6014 26.5506 30.1266 26.2577 29.8337L23.6744 27.2504H31.1365C31.5507 27.2504 31.8865 26.9146 31.8865 26.5004C31.8865 26.0861 31.5507 25.7504 31.1365 25.7504H23.6744L26.2577 23.167Z" fill="white"/>
</svg>
