<svg width="36" height="36" viewBox="0 0 36 36" fill="none" xmlns="http://www.w3.org/2000/svg">
<path fill-rule="evenodd" clip-rule="evenodd" d="M5 17.875C5 10.7643 10.7643 5 17.875 5C24.9857 5 30.75 10.7643 30.75 17.875C30.75 24.9857 24.9857 30.75 17.875 30.75C10.7643 30.75 5 24.9857 5 17.875ZM17.875 3C9.65976 3 3 9.65976 3 17.875C3 26.0902 9.65976 32.75 17.875 32.75C26.0902 32.75 32.75 26.0902 32.75 17.875C32.75 9.65976 26.0902 3 17.875 3ZM26.07 14.094C26.4671 13.7101 26.4778 13.0771 26.094 12.68C25.7101 12.2829 25.0771 12.2722 24.68 12.656L14.5129 22.4842L11.07 19.156C10.6729 18.7722 10.0399 18.7829 9.65601 19.18C9.27216 19.5771 9.28289 20.2101 9.67998 20.594L13.8179 24.594C14.2055 24.9687 14.8204 24.9687 15.208 24.594L26.07 14.094Z" fill="white"/>
</svg>
