<svg width="36" height="36" viewBox="0 0 36 36" fill="none" xmlns="http://www.w3.org/2000/svg">
<path fill-rule="evenodd" clip-rule="evenodd" d="M27.2626 9.28434C27.6578 9.67009 27.6655 10.3032 27.2798 10.6985L11.6644 26.6985C11.4762 26.8913 11.2182 27 10.9487 27C10.6793 27 10.4212 26.8913 10.2331 26.6985L4.28434 20.6032C3.8986 20.208 3.9063 19.5749 4.30155 19.1891C4.69679 18.8034 5.32991 18.8111 5.71566 19.2063L10.9487 24.5683L25.8484 9.30155C26.2342 8.9063 26.8673 8.8986 27.2626 9.28434ZM34.6985 9.28434C35.0937 9.67009 35.1014 10.3032 34.7157 10.6985L19.1003 26.6985C18.7145 27.0937 18.0814 27.1014 17.6862 26.7157C17.2909 26.3299 17.2832 25.6968 17.669 25.3015L33.2843 9.30155C33.6701 8.9063 34.3032 8.8986 34.6985 9.28434Z" fill="white"/>
</svg>
