<svg width="36" height="36" viewBox="0 0 36 36" fill="none" xmlns="http://www.w3.org/2000/svg">
<path fill-rule="evenodd" clip-rule="evenodd" d="M19.2168 2.60427C20.9048 2.12235 22.59 3.37148 22.59 5.10464V5.47281H27.4998C28.8805 5.47281 29.9998 6.5921 29.9998 7.97281V28.0282C29.9998 29.4089 28.8805 30.5282 27.4998 30.5282H22.59V30.8954C22.59 32.6285 20.9048 33.8777 19.2168 33.3957L7.90544 30.1664C6.77676 29.8442 6 28.8249 6 27.666V8.33396C6 7.17511 6.77677 6.15582 7.90544 5.83359L19.2168 2.60427ZM22.59 28.5282H27.4998C27.7759 28.5282 27.9998 28.3043 27.9998 28.0282V7.97281C27.9998 7.69667 27.7759 7.47281 27.4998 7.47281H22.59V28.5282ZM16.5566 18.0005C16.5566 18.822 15.8815 19.4879 15.0488 19.4879C14.216 19.4879 13.5409 18.822 13.5409 18.0005C13.5409 17.179 14.216 16.5131 15.0488 16.5131C15.8815 16.5131 16.5566 17.179 16.5566 18.0005Z" fill="white"/>
</svg>
