<svg width="36" height="36" viewBox="0 0 36 36" fill="none" xmlns="http://www.w3.org/2000/svg">
<path fill-rule="evenodd" clip-rule="evenodd" d="M28.1321 4.84278C28.5 5.56473 28.5 6.50982 28.5 8.4V27.6C28.5 29.4902 28.5 30.4353 28.1321 31.1572C27.8086 31.7923 27.2923 32.3086 26.6572 32.6321C25.9353 33 24.9902 33 23.1 33H12.9C11.0098 33 10.0647 33 9.34278 32.6321C8.70774 32.3086 8.19143 31.7923 7.86785 31.1572C7.5 30.4353 7.5 29.4902 7.5 27.6V8.4C7.5 6.50982 7.5 5.56473 7.86785 4.84278C8.19143 4.20774 8.70774 3.69143 9.34278 3.36785C10.0647 3 11.0098 3 12.9 3H23.1C24.9902 3 25.9353 3 26.6572 3.36785C27.2923 3.69143 27.8086 4.20774 28.1321 4.84278ZM14.25 21C13.0074 21 12 19.9926 12 18.75C12 17.5074 13.0074 16.5 14.25 16.5C15.4926 16.5 16.5 17.5074 16.5 18.75C16.5 19.9926 15.4926 21 14.25 21Z" fill="white"/>
</svg>
