<svg width="36" height="36" viewBox="0 0 36 36" fill="none" xmlns="http://www.w3.org/2000/svg">
<path fill-rule="evenodd" clip-rule="evenodd" d="M16.7832 2.60427C15.0951 2.12235 13.41 3.37148 13.41 5.10464V5.47281H8.50018C7.11947 5.47281 6.00018 6.5921 6.00018 7.97281V28.0282C6.00018 29.4089 7.11947 30.5282 8.50018 30.5282H13.41V30.8954C13.41 32.6285 15.0952 33.8777 16.7832 33.3957L28.0945 30.1664C29.2232 29.8442 30 28.8249 30 27.666V8.33396C30 7.17511 29.2232 6.15582 28.0945 5.83359L16.7832 2.60427ZM13.41 28.5282H8.50018C8.22404 28.5282 8.00018 28.3043 8.00018 28.0282V7.97281C8.00018 7.69667 8.22404 7.47281 8.50018 7.47281H13.41V28.5282ZM19.4434 18.0005C19.4434 18.822 20.1184 19.4879 20.9512 19.4879C21.784 19.4879 22.4591 18.822 22.4591 18.0005C22.4591 17.179 21.784 16.5131 20.9512 16.5131C20.1184 16.5131 19.4434 17.179 19.4434 18.0005Z" fill="white"/>
</svg>
