<svg width="36" height="36" viewBox="0 0 36 36" fill="none" xmlns="http://www.w3.org/2000/svg">
<path d="M21.0822 19.4997C20.2494 19.4997 19.5743 18.8285 19.5743 18.0006C19.5743 17.1726 20.2494 16.5014 21.0822 16.5014C21.9149 16.5014 22.59 17.1726 22.59 18.0006C22.59 18.8285 21.9149 19.4997 21.0822 19.4997Z" fill="white"/>
<path fill-rule="evenodd" clip-rule="evenodd" d="M16.8636 2.59902C15.2655 2.13919 13.6723 3.33865 13.6723 5.00154V5.25768H8.63932C7.18166 5.25768 6 6.43228 6 7.88122V28.1199C6 29.5689 7.18166 30.7435 8.63932 30.7435H13.6723V30.9999C13.6723 32.6628 15.2655 33.8622 16.8636 33.4024L28.1913 30.1429C29.2623 29.8348 30 28.8549 30 27.7404V8.26101C30 7.14655 29.2623 6.16667 28.1913 5.85849L16.8636 2.59902ZM15.6723 5.00154C15.6723 4.66896 15.9909 4.42907 16.3105 4.52103L27.6383 7.78051C27.8525 7.84214 28 8.03812 28 8.26101V27.7404C28 27.9633 27.8525 28.1593 27.6383 28.2209L16.3105 31.4804C15.9909 31.5724 15.6723 31.3325 15.6723 30.9999V5.00154Z" fill="white"/>
</svg>
