<svg width="36" height="36" viewBox="0 0 36 36" fill="none" xmlns="http://www.w3.org/2000/svg">
<path d="M14.1993 21.0264C12.9403 21.0264 11.9196 20.01 11.9196 18.7562C11.9196 17.5024 12.9403 16.486 14.1993 16.486C15.4584 16.486 16.4791 17.5024 16.4791 18.7562C16.4791 20.01 15.4584 21.0264 14.1993 21.0264Z" fill="white"/>
<path fill-rule="evenodd" clip-rule="evenodd" d="M23.9371 3C24.5336 2.99999 25.0407 2.99997 25.4569 3.03398C25.894 3.06968 26.3181 3.14781 26.7232 3.35423C27.3347 3.66582 27.8319 4.16301 28.1435 4.77453C28.3499 5.17965 28.428 5.60374 28.4637 6.04077C28.4977 6.45699 28.4977 6.96412 28.4977 7.56057V28.4383C28.4977 29.0348 28.4977 29.5419 28.4637 29.9581C28.428 30.3951 28.3499 30.8192 28.1435 31.2244C27.8319 31.8359 27.3347 32.3331 26.7232 32.6447C26.3181 32.8511 25.894 32.9292 25.4569 32.9649C25.0407 32.9989 24.5336 32.9989 23.9371 32.9989H12.0606C11.4641 32.9989 10.957 32.9989 10.5408 32.9649C10.1037 32.9292 9.67965 32.8511 9.27453 32.6447C8.663 32.3331 8.16582 31.8359 7.85423 31.2244C7.64781 30.8192 7.56968 30.3951 7.53398 29.9581C7.49997 29.5419 7.49998 29.0348 7.5 28.4383V7.56055C7.49998 6.96411 7.49997 6.45699 7.53398 6.04078C7.56968 5.60374 7.64781 5.17965 7.85423 4.77453C8.16582 4.16301 8.663 3.66582 9.27453 3.35423C9.67965 3.14781 10.1037 3.06968 10.5408 3.03398C10.957 2.99997 11.4641 2.99999 12.0605 3H23.9371ZM25.8152 5.13624C25.739 5.09743 25.6074 5.05294 25.2941 5.02734C24.969 5.00078 24.5443 5 23.8977 5H12.1C11.4534 5 11.0287 5.00078 10.7036 5.02734C10.3903 5.05294 10.2587 5.09743 10.1825 5.13624C9.94731 5.25609 9.75609 5.44731 9.63624 5.68251C9.59743 5.7587 9.55294 5.89029 9.52734 6.20364C9.50078 6.52866 9.5 6.95344 9.5 7.6V28.3989C9.5 29.0454 9.50078 29.4702 9.52734 29.7952C9.55294 30.1086 9.59743 30.2402 9.63624 30.3164C9.75609 30.5516 9.94731 30.7428 10.1825 30.8626C10.2587 30.9015 10.3903 30.9459 10.7036 30.9715C11.0287 30.9981 11.4534 30.9989 12.1 30.9989H23.8977C24.5443 30.9989 24.969 30.9981 25.2941 30.9715C25.6074 30.9459 25.739 30.9015 25.8152 30.8626C26.0504 30.7428 26.2416 30.5516 26.3615 30.3164C26.4003 30.2402 26.4448 30.1086 26.4704 29.7952C26.4969 29.4702 26.4977 29.0454 26.4977 28.3989V7.6C26.4977 6.95344 26.4969 6.52866 26.4704 6.20364C26.4448 5.89029 26.4003 5.7587 26.3615 5.68251C26.2416 5.44731 26.0504 5.25609 25.8152 5.13624Z" fill="white"/>
</svg>
