<svg width="36" height="36" viewBox="0 0 36 36" fill="none" xmlns="http://www.w3.org/2000/svg">
<path fill-rule="evenodd" clip-rule="evenodd" d="M7.86785 4.84278C7.5 5.56473 7.5 6.50982 7.5 8.4V27.6C7.5 29.4902 7.5 30.4353 7.86785 31.1572C8.19143 31.7923 8.70774 32.3086 9.34278 32.6321C10.0647 33 11.0098 33 12.9 33H23.1C24.9902 33 25.9353 33 26.6572 32.6321C27.2923 32.3086 27.8086 31.7923 28.1321 31.1572C28.5 30.4353 28.5 29.4902 28.5 27.6V8.4C28.5 6.50982 28.5 5.56473 28.1321 4.84278C27.8086 4.20774 27.2923 3.69143 26.6572 3.36785C25.9353 3 24.9902 3 23.1 3H12.9C11.0098 3 10.0647 3 9.34278 3.36785C8.70774 3.69143 8.19143 4.20774 7.86785 4.84278ZM21.75 21C22.9926 21 24 19.9926 24 18.75C24 17.5074 22.9926 16.5 21.75 16.5C20.5074 16.5 19.5 17.5074 19.5 18.75C19.5 19.9926 20.5074 21 21.75 21Z" fill="white"/>
</svg>
