<svg width="36" height="36" viewBox="0 0 36 36" fill="none" xmlns="http://www.w3.org/2000/svg">
<path d="M14.9178 19.4997C15.7506 19.4997 16.4257 18.8285 16.4257 18.0006C16.4257 17.1726 15.7506 16.5014 14.9178 16.5014C14.0851 16.5014 13.41 17.1726 13.41 18.0006C13.41 18.8285 14.0851 19.4997 14.9178 19.4997Z" fill="white"/>
<path fill-rule="evenodd" clip-rule="evenodd" d="M19.1364 2.59902C20.7345 2.13919 22.3277 3.33865 22.3277 5.00154V5.25768H27.3607C28.8183 5.25768 30 6.43228 30 7.88122V28.1199C30 29.5689 28.8183 30.7435 27.3607 30.7435H22.3277V30.9999C22.3277 32.6628 20.7345 33.8622 19.1364 33.4024L7.80869 30.1429C6.73769 29.8348 6 28.8549 6 27.7404V8.26101C6 7.14655 6.73768 6.16667 7.80869 5.85849L19.1364 2.59902ZM20.3277 5.00154C20.3277 4.66896 20.0091 4.42907 19.6895 4.52103L8.36174 7.78051C8.14754 7.84214 8 8.03812 8 8.26101V27.7404C8 27.9633 8.14754 28.1593 8.36174 28.2209L19.6895 31.4804C20.0091 31.5724 20.3277 31.3325 20.3277 30.9999V5.00154Z" fill="white"/>
</svg>
