<svg width="36" height="36" viewBox="0 0 36 36" fill="none" xmlns="http://www.w3.org/2000/svg">
<path fill-rule="evenodd" clip-rule="evenodd" d="M11.2106 10.5464C10.822 10.154 10.1889 10.1508 9.79642 10.5394C9.40396 10.928 9.40081 11.5611 9.78939 11.9536L15.776 18L9.78939 24.0464C9.40081 24.4389 9.40396 25.072 9.79642 25.4606C10.1889 25.8492 10.822 25.846 11.2106 25.4536L18.5905 18L11.2106 10.5464ZM20.1214 10.5464C19.7328 10.154 19.0997 10.1508 18.7072 10.5394C18.3148 10.928 18.3116 11.5611 18.7002 11.9536L24.6868 18L18.7002 24.0464C18.3116 24.4389 18.3148 25.072 18.7072 25.4606C19.0997 25.8492 19.7328 25.846 20.1214 25.4536L27.5013 18L20.1214 10.5464Z" fill="white"/>
</svg>
