<svg width="36" height="36" viewBox="0 0 36 36" fill="none" xmlns="http://www.w3.org/2000/svg">
<path d="M18.9993 5.5C18.9993 4.94772 18.5516 4.5 17.9993 4.5C17.447 4.5 16.9993 4.94772 16.9993 5.5V23.5392L13.0249 19.5648C12.6344 19.1743 12.0012 19.1743 11.6107 19.5648C11.2202 19.9553 11.2202 20.5885 11.6107 20.979L17.2922 26.6605C17.6827 27.051 18.3159 27.051 18.7064 26.6605L24.3879 20.979C24.7784 20.5885 24.7784 19.9553 24.3879 19.5648C23.9974 19.1743 23.3642 19.1743 22.9737 19.5648L18.9993 23.5392V5.5Z" fill="white"/>
<path d="M6.5 16.1055C6.5 15.5532 6.05228 15.1055 5.5 15.1055C4.94772 15.1055 4.5 15.5532 4.5 16.1055V24.1414C4.49999 25.2252 4.49998 26.0994 4.55782 26.8072C4.61737 27.5361 4.74318 28.1763 5.04497 28.7686C5.52433 29.7094 6.28924 30.4743 7.23005 30.9536C7.82234 31.2554 8.46253 31.3812 9.19138 31.4408C9.89925 31.4986 10.7734 31.4986 11.8572 31.4986H24.1414C25.2252 31.4986 26.0994 31.4986 26.8072 31.4408C27.5361 31.3812 28.1763 31.2554 28.7686 30.9536C29.7094 30.4743 30.4743 29.7094 30.9536 28.7686C31.2554 28.1763 31.3812 27.5361 31.4408 26.8072C31.4986 26.0994 31.4986 25.2253 31.4986 24.1415V16.1055C31.4986 15.5532 31.0509 15.1055 30.4986 15.1055C29.9463 15.1055 29.4986 15.5532 29.4986 16.1055V24.0986C29.4986 25.2352 29.4978 26.0275 29.4474 26.6444C29.398 27.2495 29.3058 27.5972 29.1716 27.8606C28.884 28.4251 28.4251 28.884 27.8606 29.1716C27.5972 29.3058 27.2495 29.398 26.6444 29.4474C26.0275 29.4978 25.2352 29.4986 24.0986 29.4986H11.9C10.7634 29.4986 9.97108 29.4978 9.35424 29.4474C8.74907 29.398 8.40138 29.3058 8.13803 29.1716C7.57354 28.884 7.1146 28.4251 6.82698 27.8606C6.69279 27.5972 6.60062 27.2495 6.55118 26.6444C6.50078 26.0275 6.5 25.2352 6.5 24.0986V16.1055Z" fill="white"/>
</svg>
