<svg width="36" height="36" viewBox="0 0 36 36" fill="none" xmlns="http://www.w3.org/2000/svg">
<path d="M15.35 6.375C15.35 8.23896 13.8389 9.75 11.975 9.75C10.111 9.75 8.59998 8.23896 8.59998 6.375C8.59998 4.51104 10.111 3 11.975 3C13.8389 3 15.35 4.51104 15.35 6.375Z" fill="white"/>
<path d="M27.35 6.375C27.35 8.23896 25.8389 9.75 23.975 9.75C22.111 9.75 20.6 8.23896 20.6 6.375C20.6 4.51104 22.111 3 23.975 3C25.8389 3 27.35 4.51104 27.35 6.375Z" fill="white"/>
<path d="M15.35 18C15.35 19.864 13.8389 21.375 11.975 21.375C10.111 21.375 8.59998 19.864 8.59998 18C8.59998 16.136 10.111 14.625 11.975 14.625C13.8389 14.625 15.35 16.136 15.35 18Z" fill="white"/>
<path d="M27.35 18C27.35 19.864 25.8389 21.375 23.975 21.375C22.111 21.375 20.6 19.864 20.6 18C20.6 16.136 22.111 14.625 23.975 14.625C25.8389 14.625 27.35 16.136 27.35 18Z" fill="white"/>
<path d="M15.35 29.625C15.35 31.489 13.8389 33 11.975 33C10.111 33 8.59998 31.489 8.59998 29.625C8.59998 27.761 10.111 26.25 11.975 26.25C13.8389 26.25 15.35 27.761 15.35 29.625Z" fill="white"/>
<path d="M27.35 29.625C27.35 31.489 25.8389 33 23.975 33C22.111 33 20.6 31.489 20.6 29.625C20.6 27.761 22.111 26.25 23.975 26.25C25.8389 26.25 27.35 27.761 27.35 29.625Z" fill="white"/>
</svg>
