<svg width="36" height="36" viewBox="0 0 36 36" fill="none" xmlns="http://www.w3.org/2000/svg">
<path d="M17.6406 18.136C17.8515 17.9547 18.1485 17.9547 18.3594 18.136L18.4688 18.2336L18.7051 18.4543C18.8362 18.5795 18.9775 18.7184 19.126 18.8704C19.6912 19.4488 20.2567 20.1011 20.7852 20.8137C22.3204 22.8844 23.2498 25.0456 23.25 27.2141C23.2499 30.4093 20.8993 33.0002 18 33.0002C15.1007 33.0002 12.7501 30.4093 12.75 27.2141C12.7502 25.0456 13.6796 22.8844 15.2148 20.8137C15.7433 20.1011 16.3088 19.4488 16.874 18.8704C17.0225 18.7184 17.1638 18.5795 17.2949 18.4543L17.4229 18.3333L17.6406 18.136ZM18 20.5891C17.5964 21.024 17.1972 21.4981 16.8213 22.0051C15.4352 23.8746 14.7502 25.6242 14.75 27.2141C14.7501 29.492 16.3837 31.0002 18 31.0002C19.6163 31.0002 21.2499 29.492 21.25 27.2141C21.2498 25.6242 20.5648 23.8746 19.1787 22.0051C18.8028 21.4981 18.4036 21.024 18 20.5891ZM10.1406 3.13599C10.3515 2.95467 10.6485 2.95467 10.8594 3.13599L10.9688 3.23364L11.2051 3.45435C11.3362 3.57948 11.4775 3.71844 11.626 3.87036C12.1912 4.44882 12.7567 5.10108 13.2852 5.81372C14.8204 7.88437 15.7498 10.0456 15.75 12.2141C15.7499 15.4093 13.3993 18.0002 10.5 18.0002C7.60072 18.0002 5.25009 15.4093 5.25 12.2141C5.25022 10.0456 6.17959 7.88437 7.71484 5.81372C8.24326 5.10108 8.80879 4.44882 9.37402 3.87036C9.52249 3.71844 9.66376 3.57948 9.79492 3.45435L9.92285 3.33325L10.1406 3.13599ZM25.1406 3.13599C25.3515 2.95467 25.6485 2.95467 25.8594 3.13599L25.9688 3.23364L26.2051 3.45435C26.3362 3.57948 26.4775 3.71844 26.626 3.87036C27.1912 4.44882 27.7567 5.10108 28.2852 5.81372C29.8204 7.88437 30.7498 10.0456 30.75 12.2141C30.7499 15.4093 28.3993 18.0002 25.5 18.0002C22.6007 18.0002 20.2501 15.4093 20.25 12.2141C20.2502 10.0456 21.1796 7.88437 22.7148 5.81372C23.2433 5.10108 23.8088 4.44882 24.374 3.87036C24.5225 3.71844 24.6638 3.57948 24.7949 3.45435L24.9229 3.33325L25.1406 3.13599ZM10.5 5.58911C10.0964 6.02398 9.69724 6.4981 9.32129 7.00513C7.93522 8.8746 7.25022 10.6242 7.25 12.2141C7.25009 14.492 8.88372 16.0002 10.5 16.0002C12.1163 16.0002 13.7499 14.492 13.75 12.2141C13.7498 10.6242 13.0648 8.8746 11.6787 7.00513C11.3028 6.4981 10.9036 6.02398 10.5 5.58911ZM25.5 5.58911C25.0964 6.02398 24.6972 6.4981 24.3213 7.00513C22.9352 8.8746 22.2502 10.6242 22.25 12.2141C22.2501 14.492 23.8837 16.0002 25.5 16.0002C27.1163 16.0002 28.7499 14.492 28.75 12.2141C28.7498 10.6242 28.0648 8.8746 26.6787 7.00513C26.3028 6.4981 25.9036 6.02398 25.5 5.58911Z" fill="white"/>
</svg>
