<svg width="36" height="36" viewBox="0 0 36 36" fill="none" xmlns="http://www.w3.org/2000/svg">
<path fill-rule="evenodd" clip-rule="evenodd" d="M18.8207 3.27242C18.3384 2.90919 17.6616 2.90919 17.1793 3.27242L16.6815 3.66628L16.3887 3.90771C16.0884 4.15839 15.7661 4.43664 15.426 4.7411C14.1338 5.89827 12.8423 7.20183 11.6342 8.6275C8.1245 12.7694 6 17.0909 6 21.4284C6 24.0674 6.91626 26.5001 8.45873 28.4469L26.0817 10.824C25.5551 10.0869 24.9818 9.35441 24.3658 8.6275C23.1577 7.20183 21.8662 5.89827 20.574 4.7411C20.2339 4.43664 19.9116 4.15839 19.6113 3.90771L19.0708 3.46693L18.8207 3.27242ZM27.2082 12.5259L9.83021 29.9039C11.9725 31.825 14.844 33 18 33C24.627 33 30 27.8189 30 21.4284C30 18.4354 28.9884 15.4499 27.2082 12.5259Z" fill="white"/>
<path fill-rule="evenodd" clip-rule="evenodd" d="M26.0817 10.824C25.5551 10.0869 24.9818 9.35441 24.3658 8.6275C23.1577 7.20183 21.8662 5.89827 20.574 4.7411C20.2339 4.43664 19.9116 4.15839 19.6113 3.90771L19.0708 3.46693L18.8207 3.27242C18.3384 2.90919 17.6616 2.90919 17.1793 3.27242L16.6815 3.66628L16.3887 3.90771C16.0884 4.15839 15.7661 4.43664 15.426 4.7411C14.1338 5.89827 12.8423 7.20183 11.6342 8.6275C8.1245 12.7694 6 17.0909 6 21.4284C6 23.3434 6.48247 25.1498 7.33658 26.7407C7.65951 27.3421 8.03555 27.9128 8.45873 28.4469L26.0817 10.824ZM8.82821 25.249L23.435 10.6422C23.2422 10.4016 23.0438 10.161 22.84 9.92046C21.6967 8.57133 20.4704 7.33305 19.2398 6.23105C18.9198 5.94454 18.6179 5.68389 18.3383 5.45034L17.9993 5.17392L17.9383 5.22218L17.6658 5.44692C17.385 5.68134 17.0818 5.94314 16.7602 6.23106C15.5296 7.33305 14.3033 8.57133 13.16 9.92046C9.80709 13.8774 8 17.7531 8 21.4284C8 22.7855 8.29435 24.0772 8.82821 25.249ZM27.2082 12.5259C27.5768 13.1313 27.9124 13.7394 28.213 14.3496C29.3639 16.6865 30 19.0551 30 21.4284C30 27.8189 24.627 33 18 33C15.5799 33 13.327 32.309 11.442 31.1205C10.8688 30.7592 10.3297 30.3518 9.83021 29.9039L27.2082 12.5259ZM26.7101 15.8525L12.8995 29.663C14.3894 30.5109 16.1316 31 18 31C23.5916 31 28 26.6464 28 21.4284C28 19.6161 27.562 17.7547 26.7101 15.8525Z" fill="white"/>
<path fill-rule="evenodd" clip-rule="evenodd" d="M31.163 4.29289C31.5535 4.68342 31.5535 5.31658 31.163 5.70711L5.70711 31.163C5.31658 31.5535 4.68342 31.5535 4.29289 31.163C3.90237 30.7724 3.90237 30.1393 4.29289 29.7487L29.7487 4.29289C30.1393 3.90237 30.7724 3.90237 31.163 4.29289Z" fill="white"/>
</svg>
