<svg width="36" height="36" viewBox="0 0 36 36" fill="none" xmlns="http://www.w3.org/2000/svg">
<path fill-rule="evenodd" clip-rule="evenodd" d="M18.8207 3.27242C18.3384 2.90919 17.6616 2.90919 17.1793 3.27242L16.6815 3.66628L16.3887 3.90771C16.0884 4.15839 15.7661 4.43664 15.426 4.7411C14.1338 5.89827 12.8423 7.20183 11.6342 8.6275C8.1245 12.7694 6 17.0909 6 21.4284C6 27.8189 11.373 33 18 33C24.627 33 30 27.8189 30 21.4284C30 17.0909 27.8755 12.7694 24.3658 8.6275C23.1577 7.20183 21.8662 5.89827 20.574 4.7411C20.2339 4.43664 19.9116 4.15839 19.6113 3.90771L19.0708 3.46693L18.8207 3.27242ZM18.3383 5.45033L17.9993 5.17392L17.9383 5.22218L17.6658 5.44692C17.385 5.68134 17.0818 5.94314 16.7602 6.23106C15.5296 7.33305 14.3033 8.57133 13.16 9.92046C9.80709 13.8774 8 17.7531 8 21.4284C8 26.6464 12.4084 31 18 31C23.5916 31 28 26.6464 28 21.4284C28 17.7531 26.1929 13.8774 22.84 9.92046C21.6967 8.57133 20.4704 7.33305 19.2398 6.23106C18.9198 5.94454 18.6179 5.68388 18.3383 5.45033Z" fill="white"/>
</svg>
