<svg width="36" height="36" viewBox="0 0 36 36" fill="none" xmlns="http://www.w3.org/2000/svg">
<path d="M18.2822 4.5C18.4191 4.5 18.5307 4.60943 18.5352 4.74414C18.7186 9.59833 19.3349 12.5487 21.4014 14.6152C23.4637 16.6775 26.4114 17.296 31.2549 17.4795C31.3899 17.4858 31.5 17.5974 31.5 17.7324L31.498 18.2969C31.498 18.4339 31.3879 18.5466 31.2529 18.5508C26.4094 18.7343 23.4638 19.3498 21.3994 21.4141C19.3371 23.4764 18.7207 26.4179 18.5352 31.2529C18.5288 31.3879 18.4172 31.498 18.2822 31.498H17.7148C17.578 31.4978 17.4661 31.3878 17.4619 31.2529C17.2763 26.418 16.6609 23.4764 14.5986 21.4141C12.5363 19.3518 9.58783 18.7343 4.74414 18.5508C4.60938 18.5442 4.5 18.4317 4.5 18.2969V17.7324C4.5 17.5955 4.60939 17.484 4.74414 17.4795C9.58783 17.296 12.5342 16.6797 14.5986 14.6152C16.6651 12.5487 17.2804 9.59617 17.4639 4.74414C17.4704 4.60942 17.583 4.5 17.7178 4.5H18.2822Z" fill="white"/>
</svg>
