<svg width="36" height="36" viewBox="0 0 36 36" fill="none" xmlns="http://www.w3.org/2000/svg">
<path fill-rule="evenodd" clip-rule="evenodd" d="M19.8852 29.4361C20.8386 27.8926 22.1024 26.426 23.6984 25.5632C27.4507 23.5347 29.9998 19.565 29.9998 15C29.9998 13.5416 29.7396 12.1439 29.2631 10.8509L8.78276 31.3312C10.0713 32.3748 11.7125 33 13.4998 33C16.1983 33 18.564 31.5748 19.8852 29.4361ZM7.4087 29.8769C6.52205 28.6451 5.99979 27.1336 5.99979 25.5C5.99979 24.8396 6.08515 24.1991 6.24545 23.589C6.70634 21.8347 6.89671 19.9102 6.42022 18.16C6.1461 17.1532 5.99979 16.0937 5.99979 15C5.99979 8.37258 11.3724 3 17.9998 3C22.413 3 26.2699 5.38239 28.3543 8.93125L24.897 12.3886C24.7284 11.9433 24.5163 11.5134 24.2627 11.1055C23.5358 9.93656 22.4962 8.99438 21.2617 8.38557C20.0271 7.77675 18.6468 7.52559 17.2769 7.66052C15.907 7.79544 14.6022 8.31105 13.5102 9.14902C12.4181 9.98699 11.5824 11.1139 11.0975 12.4022C10.6126 13.6904 10.498 15.0887 10.7665 16.4388C11.035 17.7889 11.6761 19.0368 12.617 20.0415C13.082 20.5379 13.4504 21.1625 13.6126 21.769C13.7731 22.3691 13.7165 22.8729 13.4673 23.2622L12.5046 24.7666C12.4968 24.7788 12.4893 24.7911 12.4821 24.8035L7.4087 29.8769ZM15.6337 21.6519L23.2817 14.0039C23.159 13.3535 22.9168 12.7285 22.5643 12.1616C22.0345 11.3097 21.2769 10.623 20.3771 10.1793C19.4773 9.7356 18.4713 9.55255 17.4729 9.65089C16.4746 9.74922 15.5236 10.125 14.7277 10.7357C13.9318 11.3465 13.3227 12.1677 12.9693 13.1067C12.6159 14.0456 12.5324 15.0647 12.7281 16.0486C12.9238 17.0326 13.391 17.9421 14.0768 18.6743C14.7306 19.3724 15.2847 20.2802 15.5447 21.2522C15.5797 21.3831 15.6096 21.5165 15.6337 21.6519Z" fill="white"/>
<path fill-rule="evenodd" clip-rule="evenodd" d="M31.7069 4.29289C32.0974 4.68342 32.0974 5.31658 31.7069 5.70711L6.25105 31.163C5.86053 31.5535 5.22736 31.5535 4.83684 31.163C4.44631 30.7724 4.44631 30.1393 4.83684 29.7487L30.2927 4.29289C30.6832 3.90237 31.3164 3.90237 31.7069 4.29289Z" fill="white"/>
</svg>
