<svg width="36" height="36" viewBox="0 0 36 36" fill="none" xmlns="http://www.w3.org/2000/svg">
<path fill-rule="evenodd" clip-rule="evenodd" d="M29.8229 17.0653C28.7833 16.6992 27.6649 16.5 26.5 16.5C20.9772 16.5 16.5 20.9772 16.5 26.5C16.5 28.3562 17.0057 30.0942 17.8869 31.5839C16.6533 32.4749 15.138 33 13.5 33C9.35786 33 6 29.6421 6 25.5C6 24.8396 6.08536 24.1991 6.24566 23.589C6.70655 21.8347 6.89692 19.9102 6.42043 18.16C6.14631 17.1532 6 16.0937 6 15C6 8.37258 11.3726 3 18 3C24.6274 3 30 8.37258 30 15C30 15.7043 29.9393 16.3944 29.8229 17.0653ZM17.2771 7.66052C18.647 7.52559 20.0273 7.77675 21.2619 8.38557C22.4964 8.99438 23.536 9.93656 24.2629 11.1055C24.8361 12.0274 25.1969 13.0613 25.3238 14.1324C25.3888 14.6808 24.9968 15.1781 24.4484 15.2431C23.8999 15.308 23.4027 14.9161 23.3377 14.3676C23.2452 13.587 22.9823 12.8335 22.5645 12.1616C22.0347 11.3097 21.2771 10.623 20.3773 10.1793C19.4775 9.7356 18.4716 9.55255 17.4732 9.65089C16.4748 9.74922 15.5238 10.125 14.7279 10.7357C13.932 11.3465 13.3229 12.1677 12.9695 13.1067C12.6161 14.0456 12.5326 15.0647 12.7283 16.0486C12.924 17.0326 13.3912 17.9421 14.077 18.6743C14.733 19.3747 15.305 20.2773 15.5908 21.2514C15.8785 22.2319 15.8921 23.3567 15.3024 24.3782L14.366 26C14.0899 26.4783 13.4783 26.6422 13 26.366C12.5217 26.0899 12.3578 25.4783 12.634 25L13.5703 23.3782C13.8136 22.9568 13.8521 22.4294 13.6717 21.8145C13.4894 21.1933 13.1002 20.5572 12.6173 20.0415C11.6763 19.0368 11.0353 17.7889 10.7667 16.4388C10.4982 15.0887 10.6128 13.6904 11.0977 12.4022C11.5826 11.1139 12.4183 9.98699 13.5104 9.14902C14.6024 8.31105 15.9072 7.79544 17.2771 7.66052Z" fill="white"/>
<path fill-rule="evenodd" clip-rule="evenodd" d="M26.5 35C31.1944 35 35 31.1944 35 26.5C35 21.8056 31.1944 18 26.5 18C21.8056 18 18 21.8056 18 26.5C18 31.1944 21.8056 35 26.5 35ZM23.7521 22.6913C23.4592 22.3984 22.9843 22.3984 22.6914 22.6913C22.3985 22.9842 22.3985 23.459 22.6914 23.7519L25.4395 26.5L22.6914 29.2481C22.3985 29.541 22.3985 30.0158 22.6914 30.3087C22.9843 30.6016 23.4592 30.6016 23.7521 30.3087L26.5002 27.5607L29.2482 30.3087C29.5411 30.6016 30.016 30.6016 30.3089 30.3087C30.6018 30.0158 30.6018 29.541 30.3089 29.2481L27.5608 26.5L30.3089 23.7519C30.6018 23.459 30.6018 22.9842 30.3089 22.6913C30.016 22.3984 29.5411 22.3984 29.2482 22.6913L26.5002 25.4393L23.7521 22.6913Z" fill="white"/>
</svg>
