<svg width="36" height="36" viewBox="0 0 36 36" fill="none" xmlns="http://www.w3.org/2000/svg">
<path fill-rule="evenodd" clip-rule="evenodd" d="M17.9991 5C12.4745 5 8 9.46714 8 14.9725C8 15.5248 7.55228 15.9725 7 15.9725C6.44772 15.9725 6 15.5248 6 14.9725C6 8.35801 11.3745 3 17.9991 3C24.6238 3 29.9982 8.35801 29.9982 14.9725C29.9982 15.6857 29.9358 16.3842 29.816 17.0629C29.1923 16.8438 28.5403 16.6847 27.867 16.5927C27.9533 16.0653 27.9982 15.5241 27.9982 14.9725C27.9982 9.46714 23.5238 5 17.9991 5ZM17.014 29.6734C16.0581 30.4997 14.8114 30.9989 13.4478 30.9989C10.4368 30.9989 8 28.5645 8 25.5667C8 25.101 8.05854 24.6504 8.16817 24.2212C8.30484 23.6861 7.98185 23.1415 7.44674 23.0048C6.91163 22.8681 6.36705 23.1911 6.23038 23.7262C6.07978 24.3158 6 24.9327 6 25.5667C6 29.6737 9.33676 32.9989 13.4478 32.9989C15.1023 32.9989 16.6308 32.4602 17.8668 31.5497C17.5212 30.9602 17.2343 30.3321 17.014 29.6734ZM17.2697 7.57678C18.6527 7.44091 20.0462 7.69382 21.2927 8.30705C22.5393 8.9203 23.5893 9.86951 24.3236 11.0476C24.9028 11.9767 25.2673 13.0188 25.3955 14.0985C25.4607 14.647 25.0689 15.1444 24.5204 15.2095C23.972 15.2746 23.4746 14.8828 23.4095 14.3344C23.3158 13.5458 23.0496 12.7845 22.6263 12.1056C22.0897 11.2446 21.322 10.5504 20.4099 10.1016C19.4977 9.65291 18.4777 9.46773 17.4653 9.5672C16.4529 9.66667 15.4889 10.0468 14.6822 10.6643C13.8756 11.2817 13.2585 12.1118 12.9006 13.0605C12.5428 14.0091 12.4582 15.0385 12.6563 16.0325C12.8545 17.0265 13.3277 17.9456 14.0226 18.6857C14.1152 18.7843 14.2112 18.8793 14.3105 18.9704C14.955 19.5618 15.4912 20.3522 15.7567 21.2179C16.0247 22.0916 16.0302 23.1023 15.499 24.0202L14.3137 26.0683C14.037 26.5463 13.4253 26.7095 12.9473 26.4328C12.4692 26.1562 12.306 25.5444 12.5827 25.0664L13.768 23.0184C13.9564 22.6928 13.9915 22.2831 13.8447 21.8044C13.6954 21.3178 13.3722 20.8238 12.9582 20.4439C12.8225 20.3194 12.6911 20.1895 12.5645 20.0547C11.614 19.0423 10.9663 17.7846 10.695 16.4236C10.4236 15.0626 10.5395 13.653 11.0294 12.3545C11.5193 11.0559 12.3637 9.92036 13.4665 9.07614C14.5694 8.23194 15.8868 7.71266 17.2697 7.57678Z" fill="white"/>
<path fill-rule="evenodd" clip-rule="evenodd" d="M26.5 35C31.1944 35 35 31.1944 35 26.5C35 21.8056 31.1944 18 26.5 18C21.8056 18 18 21.8056 18 26.5C18 31.1944 21.8056 35 26.5 35ZM23.7521 22.6913C23.4592 22.3984 22.9843 22.3984 22.6914 22.6913C22.3985 22.9842 22.3985 23.459 22.6914 23.7519L25.4395 26.5L22.6914 29.2481C22.3985 29.541 22.3985 30.0158 22.6914 30.3087C22.9843 30.6016 23.4592 30.6016 23.7521 30.3087L26.5002 27.5607L29.2482 30.3087C29.5411 30.6016 30.016 30.6016 30.3089 30.3087C30.6018 30.0158 30.6018 29.541 30.3089 29.2481L27.5608 26.5L30.3089 23.7519C30.6018 23.459 30.6018 22.9842 30.3089 22.6913C30.016 22.3984 29.5411 22.3984 29.2482 22.6913L26.5002 25.4393L23.7521 22.6913Z" fill="white"/>
</svg>
