<svg width="36" height="36" viewBox="0 0 36 36" fill="none" xmlns="http://www.w3.org/2000/svg">
<path fill-rule="evenodd" clip-rule="evenodd" d="M31.4541 4.54476C29.3945 2.48508 26.0551 2.48508 23.9954 4.54477L6.08914 22.4511C5.36506 23.1752 4.85611 24.086 4.61893 25.0822L3.02721 31.7674C2.94678 32.1052 3.04736 32.4606 3.29291 32.7062C3.53846 32.9517 3.89382 33.0523 4.23164 32.9719L10.9168 31.3801C11.913 31.143 12.8238 30.634 13.5479 29.9099L31.4541 12.0035C33.5138 9.94384 33.5138 6.60444 31.4541 4.54476ZM25.4096 5.95898C26.6882 4.68034 28.7613 4.68034 30.0399 5.95897C31.3186 7.23761 31.3186 9.31068 30.0399 10.5893L28.9045 11.7248C28.4772 10.6935 27.8495 9.74903 27.05 8.9495C26.2503 8.14977 25.3055 7.52193 24.2739 7.09469L25.4096 5.95898ZM25.6358 10.3637C26.4519 11.1798 27.0344 12.193 27.3313 13.298L12.1337 28.4957C11.6713 28.9581 11.0897 29.2831 10.4536 29.4345L10.0497 29.5307C9.43923 27.8747 8.12436 26.5595 6.46852 25.9487L6.56454 25.5454C6.71599 24.9093 7.04099 24.3277 7.50336 23.8653L22.7006 8.66796C23.8059 8.96481 24.8195 9.5474 25.6358 10.3637Z" fill="white"/>
</svg>
