<svg width="36" height="36" viewBox="0 0 36 36" fill="none" xmlns="http://www.w3.org/2000/svg">
<path d="M4.23256 22.786V15.7764L7.95349 18.0496V18.0585L15.4585 22.6435C16.6635 23.3797 17.0469 23.597 17.4288 23.6822C17.805 23.7661 18.195 23.7661 18.5712 23.6822C18.9531 23.597 19.3366 23.3797 20.5415 22.6435L28.0465 18.0585V18.0497L33.458 14.7436C33.7974 14.5362 34.0036 14.1614 34 13.7584C33.9963 13.3554 33.7833 12.9845 33.4402 12.7836L21.3808 5.72309C20.4392 5.17115 19.7527 4.76873 19.0024 4.60691C18.3415 4.46436 17.6586 4.46436 16.9977 4.60691C16.2474 4.76873 15.5609 5.17115 14.6193 5.72308L2.55985 12.7836C2.21351 12.9864 2 13.3622 2 13.769V22.786C2 23.4138 2.49978 23.9226 3.11628 23.9226C3.73278 23.9226 4.23256 23.4138 4.23256 22.786Z" fill="white"/>
<path d="M28.0465 20.6952L21.5634 24.656C20.5748 25.2607 19.8544 25.7013 19.0609 25.8783C18.3622 26.034 17.6378 26.034 16.9392 25.8783C16.1456 25.7013 15.4252 25.2607 14.4367 24.656L7.95349 20.6952V27.0143C7.95349 27.3472 8.09683 27.6634 8.34566 27.8794C11.0288 30.2079 14.4489 31.5 18 31.5C21.5511 31.5 24.9712 30.2079 27.6543 27.8793C27.9032 27.6634 28.0465 27.3472 28.0465 27.0143V20.6952Z" fill="white"/>
</svg>
