<svg width="36" height="36" viewBox="0 0 36 36" fill="none" xmlns="http://www.w3.org/2000/svg">
<path fill-rule="evenodd" clip-rule="evenodd" d="M14.2947 6.75C14.1114 6.74996 13.9128 6.74991 13.7408 6.76396C13.5462 6.77987 13.289 6.81922 13.0238 6.95437C12.671 7.13413 12.3841 7.42097 12.2044 7.77378C12.0692 8.03902 12.0299 8.29617 12.014 8.4908C11.9999 8.66277 12 8.86145 12 9.04469L12 11.25L9.79469 11.25C9.61145 11.25 9.41277 11.2499 9.2408 11.264C9.04617 11.2799 8.78902 11.3192 8.52378 11.4544C8.17097 11.6341 7.88414 11.921 7.70437 12.2738C7.56922 12.539 7.52987 12.7962 7.51396 12.9908C7.49991 13.1628 7.49996 13.3614 7.50001 13.5447L7.50001 15.75L6.79469 15.75C6.61145 15.75 6.41277 15.7499 6.2408 15.764C6.04617 15.7799 5.78902 15.8192 5.52378 15.9544C5.17097 16.1341 4.88414 16.421 4.70437 16.7738C4.56922 17.039 4.52987 17.2962 4.51396 17.4908C4.49991 17.6628 4.49996 17.8614 4.5 18.0447V26.9553C4.49996 27.1386 4.49991 27.3372 4.51396 27.5092C4.52987 27.7039 4.56923 27.961 4.70437 28.2262C4.88414 28.579 5.17097 28.8659 5.52378 29.0456C5.78902 29.1808 6.04617 29.2202 6.2408 29.2361C6.41271 29.2501 6.61132 29.2501 6.79451 29.25H29.2054C29.3885 29.2501 29.5873 29.2501 29.7592 29.2361C29.9539 29.2202 30.211 29.1808 30.4762 29.0456C30.829 28.8659 31.1159 28.579 31.2957 28.2262C31.4308 27.961 31.4702 27.7039 31.4861 27.5092C31.5001 27.3373 31.5001 27.1387 31.5 26.9555V18.0447C31.5001 17.8615 31.5001 17.6627 31.4861 17.4908C31.4702 17.2962 31.4308 17.039 31.2956 16.7738C31.1159 16.421 30.829 16.1341 30.4762 15.9544C30.211 15.8192 29.9539 15.7799 29.7592 15.764C29.5873 15.7499 29.3886 15.75 29.2053 15.75L28.5 15.75L28.5 13.5447C28.5001 13.3615 28.5001 13.1627 28.4861 12.9908C28.4702 12.7962 28.4308 12.539 28.2957 12.2738C28.1159 11.921 27.829 11.6341 27.4762 11.4544C27.211 11.3192 26.9539 11.2799 26.7592 11.264C26.5873 11.2499 26.3886 11.25 26.2053 11.25L24 11.25L24 9.04467C24.0001 8.86143 24.0001 8.66276 23.9861 8.4908C23.9702 8.29616 23.9308 8.03902 23.7957 7.77378C23.6159 7.42097 23.329 7.13413 22.9762 6.95437C22.711 6.81922 22.4539 6.77987 22.2592 6.76396C22.0873 6.74991 21.8886 6.74996 21.7053 6.75H14.2947ZM9 20.55C9 20.3843 9.13432 20.25 9.3 20.25H10.95C11.1157 20.25 11.25 20.3843 11.25 20.55V24.45C11.25 24.6157 11.1157 24.75 10.95 24.75H9.3C9.13432 24.75 9 24.6157 9 24.45V20.55ZM14.25 20.55C14.25 20.3843 14.3843 20.25 14.55 20.25H16.2C16.3657 20.25 16.5 20.3843 16.5 20.55V24.45C16.5 24.6157 16.3657 24.75 16.2 24.75H14.55C14.3843 24.75 14.25 24.6157 14.25 24.45V20.55ZM19.8 20.25C19.6343 20.25 19.5 20.3843 19.5 20.55V24.45C19.5 24.6157 19.6343 24.75 19.8 24.75H21.45C21.6157 24.75 21.75 24.6157 21.75 24.45V20.55C21.75 20.3843 21.6157 20.25 21.45 20.25H19.8ZM24.75 20.55C24.75 20.3843 24.8843 20.25 25.05 20.25H26.7C26.8657 20.25 27 20.3843 27 20.55V24.45C27 24.6157 26.8657 24.75 26.7 24.75H25.05C24.8843 24.75 24.75 24.6157 24.75 24.45V20.55Z" fill="white"/>
</svg>
