<svg width="36" height="36" viewBox="0 0 36 36" fill="none" xmlns="http://www.w3.org/2000/svg">
<path d="M32.25 22.7502C32.8022 22.7502 33.2498 23.1981 33.25 23.7502V27.5002C33.25 30.5378 30.7876 33.0002 27.75 33.0002H8.25C5.21243 33.0002 2.75 30.5378 2.75 27.5002V23.7502C2.75017 23.1981 3.19782 22.7502 3.75 22.7502C4.30218 22.7502 4.74983 23.1981 4.75 23.7502V27.5002C4.75 29.4332 6.317 31.0002 8.25 31.0002H27.75C29.683 31.0002 31.25 29.4332 31.25 27.5002V23.7502C31.2502 23.1981 31.6978 22.7502 32.25 22.7502Z" fill="white"/>
<path d="M17.1338 4.5891C17.6121 4.11082 18.3878 4.11103 18.8662 4.5891L25.458 11.1809C25.8484 11.5714 25.8485 12.2045 25.458 12.595C25.0675 12.9854 24.4345 12.9853 24.0439 12.595L19.0723 7.62328V26.7629C19.0721 27.3151 18.6245 27.7629 18.0723 27.7629C17.5201 27.7629 17.0724 27.3151 17.0723 26.7629V7.47972L11.957 12.595C11.5665 12.9854 10.9335 12.9854 10.543 12.595C10.1525 12.2045 10.1525 11.5714 10.543 11.1809L17.1338 4.5891Z" fill="white"/>
</svg>
