<svg width="36" height="36" viewBox="0 0 36 36" fill="none" xmlns="http://www.w3.org/2000/svg">
<path fill-rule="evenodd" clip-rule="evenodd" d="M26.5 18.0001C31.1944 18.0001 34.9999 21.8058 35 26.5001C35 31.1945 31.1944 35.0001 26.5 35.0001C21.8056 35.0001 18 31.1945 18 26.5001C18.0001 21.8058 21.8056 18.0001 26.5 18.0001ZM31.4502 22.4005C31.119 22.1521 30.649 22.2189 30.4004 22.5499L24.9551 29.8097L22.0645 26.506C21.7917 26.1945 21.3175 26.163 21.0059 26.4357C20.6943 26.7084 20.6629 27.1826 20.9355 27.4943L24.4355 31.4943C24.5845 31.6644 24.8024 31.7577 25.0283 31.7491C25.2541 31.7406 25.4639 31.631 25.5996 31.4503L31.5996 23.4503C31.848 23.119 31.7813 22.6491 31.4502 22.4005Z" fill="white"/>
<path d="M3.75 22.7501C4.30208 22.7501 4.74967 23.1981 4.75 23.7501V27.5001C4.75 29.4331 6.317 31.0001 8.25 31.0001H17.5703C17.9345 31.7213 18.3827 32.3922 18.9033 33.0001H8.25C5.21243 33.0001 2.75 30.5377 2.75 27.5001V23.7501C2.75033 23.1981 3.19792 22.7501 3.75 22.7501Z" fill="white"/>
<path d="M17.1338 4.58898C17.612 4.11085 18.3878 4.11108 18.8662 4.58898L25.458 11.1808C25.8484 11.5713 25.8484 12.2043 25.458 12.5948C25.0675 12.9853 24.4345 12.9852 24.0439 12.5948L19.0723 7.62316V19.8058C18.2005 20.7724 17.5157 21.91 17.0723 23.1622V7.47961L11.957 12.5948C11.5665 12.9853 10.9335 12.9853 10.543 12.5948C10.1526 12.2043 10.1526 11.5713 10.543 11.1808L17.1338 4.58898Z" fill="white"/>
</svg>
