<svg width="36" height="36" viewBox="0 0 36 36" fill="none" xmlns="http://www.w3.org/2000/svg">
<path fill-rule="evenodd" clip-rule="evenodd" d="M27.7815 10.0201C24.9865 8.11327 21.6214 7 17.9999 7C11.6775 7 6.13666 10.393 3.04605 15.478L3.0233 15.5154C2.72389 16.0077 2.48384 16.4024 2.33276 17.0847C2.2694 17.3708 2.25 17.7161 2.25 17.9999C2.25 18.2837 2.26939 18.629 2.33274 18.9151C2.48382 19.5973 2.72386 19.9921 3.02326 20.4844L3.04601 20.5218C4.82559 23.4498 7.4176 25.8169 10.5034 27.2982L12.8314 24.9702C10.7515 23.378 9.40699 20.8484 9.40699 18C9.40699 13.1818 13.2541 9.27586 17.9999 9.27586C20.8522 9.27586 23.38 10.6867 24.9431 12.8585L27.7815 10.0201ZM23.0503 14.7513C21.9901 13.0561 20.1245 11.931 18.0002 11.931C14.6987 11.931 12.0223 14.6482 12.0223 18C12.0223 20.1239 13.0969 21.9929 14.7243 23.0773L23.0503 14.7513ZM16.7041 23.9259L23.856 16.7741C23.936 17.17 23.978 17.58 23.978 18C23.978 21.3518 21.3016 24.069 18.0002 24.069C17.5551 24.069 17.1214 24.0196 16.7041 23.9259ZM14.6107 26.0193C15.6506 26.4729 16.7965 26.7241 18.0001 26.7241C22.7459 26.7241 26.5932 22.8182 26.5932 18C26.5932 16.8248 26.3643 15.7039 25.9494 14.6807L29.3799 11.2501C30.7775 12.4586 31.9859 13.8854 32.954 15.4782L32.9767 15.5156C33.2761 16.008 33.5162 16.4027 33.6673 17.0849C33.7306 17.371 33.75 17.7163 33.75 18.0001C33.75 18.2839 33.7306 18.6292 33.6672 18.9153C33.5162 19.5976 33.2761 19.9923 32.9767 20.4847L32.954 20.5221C29.8633 25.607 24.3225 29 18.0001 29C16.0851 29 14.2418 28.6887 12.5166 28.1134L14.6107 26.0193Z" fill="white"/>
<path fill-rule="evenodd" clip-rule="evenodd" d="M32.163 4.29289C32.5535 4.68342 32.5535 5.31658 32.163 5.70711L6.70711 31.163C6.31658 31.5535 5.68342 31.5535 5.29289 31.163C4.90237 30.7724 4.90237 30.1393 5.29289 29.7487L30.7487 4.29289C31.1393 3.90237 31.7724 3.90237 32.163 4.29289Z" fill="white"/>
</svg>
