<svg width="36" height="36" viewBox="0 0 36 36" fill="none" xmlns="http://www.w3.org/2000/svg">
<path fill-rule="evenodd" clip-rule="evenodd" d="M27.1675 9.63414C24.5015 7.96441 21.3634 7 18.0019 7C11.6375 7 6.07392 10.4572 2.99903 15.6131L2.97744 15.6493C2.6882 16.134 2.46526 16.5077 2.32616 17.1443C2.26863 17.4077 2.25 17.7283 2.25 17.9981C2.25 18.2679 2.26863 18.5886 2.32616 18.8519C2.46526 19.4886 2.6882 19.8622 2.97744 20.3469L2.99903 20.3831C4.6515 23.154 7.02273 25.4342 9.85074 26.9509L11.337 25.4646C8.59481 24.1315 6.29209 22.0002 4.71676 19.3587C4.41574 18.854 4.34595 18.7265 4.28007 18.425C4.26678 18.3642 4.25 18.2065 4.25 17.9981C4.25 17.7897 4.26678 17.632 4.28007 17.5712C4.34595 17.2697 4.41574 17.1422 4.71675 16.6375C7.45328 12.049 12.3847 9 18.0019 9C20.8051 9 23.4374 9.75925 25.7114 11.0902L27.1675 9.63414ZM22.6793 14.1223C21.5757 12.7327 19.8911 11.8447 18.0036 11.8447C14.6793 11.8447 11.9844 14.5993 11.9844 17.9973C11.9844 19.8781 12.8101 21.5619 14.1112 22.6904L22.6793 14.1223ZM15.8757 23.7543L23.6812 15.9489C23.9024 16.5896 24.0228 17.2791 24.0228 17.9973C24.0228 21.3952 21.3279 24.1498 18.0036 24.1498C17.2545 24.1498 16.5373 24.0099 15.8757 23.7543ZM13.3562 26.2739C14.8239 26.7434 16.3845 26.9962 18.0019 26.9962C23.6192 26.9962 28.5506 23.9473 31.2871 19.3587C31.5881 18.854 31.6579 18.7265 31.7238 18.425C31.7371 18.3642 31.7539 18.2065 31.7539 17.9981C31.7539 17.7897 31.7371 17.632 31.7238 17.5712C31.6579 17.2697 31.5881 17.1422 31.2871 16.6375C30.2687 14.9299 28.9464 13.4355 27.3979 12.2322L28.8216 10.8084C30.4835 12.1383 31.9037 13.7668 33.0048 15.6131L33.0264 15.6493C33.3157 16.134 33.5386 16.5077 33.6777 17.1443C33.7353 17.4077 33.7539 17.7283 33.7539 17.9981C33.7539 18.2679 33.7353 18.5886 33.6777 18.8519C33.5386 19.4886 33.3157 19.8622 33.0264 20.3469L33.0048 20.3831C29.93 25.5391 24.3664 28.9962 18.0019 28.9962C15.8133 28.9962 13.7194 28.5874 11.7888 27.8412L13.3562 26.2739Z" fill="white"/>
<path fill-rule="evenodd" clip-rule="evenodd" d="M31.163 4.29289C31.5535 4.68342 31.5535 5.31658 31.163 5.70711L5.70711 31.163C5.31658 31.5535 4.68342 31.5535 4.29289 31.163C3.90237 30.7724 3.90237 30.1393 4.29289 29.7487L29.7487 4.29289C30.1393 3.90237 30.7724 3.90237 31.163 4.29289Z" fill="white"/>
</svg>
