<svg width="36" height="36" viewBox="0 0 36 36" fill="none" xmlns="http://www.w3.org/2000/svg">
<path fill-rule="evenodd" clip-rule="evenodd" d="M30.749 4.29287C31.1396 3.90239 31.7726 3.90236 32.1631 4.29287C32.5534 4.6834 32.5535 5.31646 32.1631 5.70694L6.70703 31.163C6.31655 31.5533 5.68345 31.5533 5.29297 31.163C4.9025 30.7725 4.90261 30.1395 5.29297 29.7489L8.72852 26.3124C6.42209 24.8535 4.47238 22.8684 3.0459 20.5214L3.02344 20.4843C2.72405 19.992 2.48408 19.5971 2.33301 18.9149C2.26967 18.6289 2.25001 18.2837 2.25 17.9999C2.25 17.7162 2.26971 17.3709 2.33301 17.0849C2.48407 16.4027 2.72409 16.0078 3.02344 15.5155L3.0459 15.4774C6.13653 10.3926 11.6776 6.9999 18 6.9999C20.9046 6.99991 23.6437 7.71694 26.0566 8.98428L30.749 4.29287ZM18 9.27529C13.2542 9.27529 9.40723 13.1817 9.40723 17.9999C9.40726 20.1393 10.1659 22.0985 11.4248 23.6161L13.2979 21.7431C12.5002 20.7116 12.0225 19.413 12.0225 17.9999C12.0225 14.6482 14.6986 11.9307 18 11.9306C19.4244 11.9306 20.7309 12.4388 21.7578 13.2831L23.6299 11.411C22.1218 10.0817 20.154 9.27531 18 9.27529Z" fill="white"/>
<path d="M29.3799 11.2499C30.7775 12.4584 31.986 13.8857 32.9541 15.4784L32.9766 15.5155C33.276 16.0079 33.5159 16.4026 33.667 17.0849C33.7303 17.3709 33.75 17.7161 33.75 17.9999C33.75 18.2837 33.7303 18.6289 33.667 18.9149C33.5159 19.5972 33.276 19.992 32.9766 20.4843L32.9541 20.5214C29.8635 25.6063 24.3224 28.9999 18 28.9999C16.085 28.9999 14.2418 28.6885 12.5166 28.1132L14.6104 26.0194C15.6502 26.473 16.7964 26.7235 18 26.7235C22.7458 26.7235 26.5927 22.818 26.5928 17.9999C26.5928 16.8247 26.3642 15.7038 25.9492 14.6806L29.3799 11.2499Z" fill="white"/>
<path d="M23.8564 16.7743C23.9364 17.1701 23.9775 17.5801 23.9775 17.9999C23.9775 21.3516 21.3014 24.0683 18 24.0683C17.555 24.0683 17.1214 24.0193 16.7041 23.9257L23.8564 16.7743Z" fill="white"/>
</svg>
