<svg width="36" height="36" viewBox="0 0 36 36" fill="none" xmlns="http://www.w3.org/2000/svg">
<path fill-rule="evenodd" clip-rule="evenodd" d="M29.749 4.29287C30.1396 3.90239 30.7726 3.90236 31.1631 4.29287C31.5534 4.6834 31.5535 5.31646 31.1631 5.70694L5.70703 31.163C5.31655 31.5533 4.68345 31.5533 4.29297 31.163C3.9025 30.7725 3.90261 30.1395 4.29297 29.7489L8.14062 25.9003C6.06389 24.4576 4.30606 22.5743 2.99902 20.3827L2.97754 20.3466C2.68832 19.8619 2.46527 19.4881 2.32617 18.8515C2.26868 18.5882 2.25 18.2677 2.25 17.998C2.25 17.7282 2.26869 17.4077 2.32617 17.1444C2.46526 16.5078 2.68834 16.134 2.97754 15.6493L2.99902 15.6132C6.07392 10.4573 11.6375 6.9999 18.002 6.9999C20.6401 6.99991 23.14 7.59527 25.3828 8.65811L29.749 4.29287ZM18.002 8.9999C12.3847 8.9999 7.45332 12.0491 4.7168 16.6376C4.41589 17.1422 4.34614 17.2697 4.28027 17.5712C4.26699 17.6321 4.25 17.7897 4.25 17.998C4.25 18.2063 4.26699 18.3639 4.28027 18.4247C4.34615 18.7262 4.41585 18.8537 4.7168 19.3583C5.94256 21.4136 7.61016 23.158 9.58105 24.4599L12.8555 21.1855C12.3031 20.2555 11.9844 19.1644 11.9844 17.997C11.9844 14.5991 14.6796 11.8446 18.0039 11.8446C19.1931 11.8447 20.3018 12.1971 21.2354 12.8056L23.8682 10.1728C22.0568 9.4171 20.0764 8.99991 18.002 8.9999Z" fill="white"/>
<path d="M28.8213 10.8085C30.4832 12.1384 31.9038 13.7669 33.0049 15.6132L33.0264 15.6493C33.3156 16.134 33.5387 16.5078 33.6777 17.1444C33.7352 17.4077 33.7539 17.7282 33.7539 17.998C33.7539 18.2677 33.7352 18.5882 33.6777 18.8515C33.5386 19.4881 33.3156 19.8619 33.0264 20.3466L33.0049 20.3827C29.93 25.5386 24.3664 28.996 18.002 28.996C15.8134 28.996 13.7196 28.5868 11.7891 27.8407L13.3564 26.2733C14.8241 26.7429 16.3846 26.996 18.002 26.996C23.6192 26.996 28.5506 23.9468 31.2871 19.3583C31.5881 18.8537 31.6578 18.7262 31.7236 18.4247C31.7369 18.3639 31.7539 18.2063 31.7539 17.998C31.7539 17.7897 31.7369 17.6321 31.7236 17.5712C31.6578 17.2697 31.588 17.1421 31.2871 16.6376C30.2687 14.93 28.946 13.4357 27.3975 12.2323L28.8213 10.8085Z" fill="white"/>
<path d="M23.6816 15.9491C23.9028 16.5897 24.0225 17.279 24.0225 17.997C24.0225 21.3948 21.3281 24.1491 18.0039 24.1493C17.2548 24.1493 16.5375 24.0094 15.876 23.7538L23.6816 15.9491Z" fill="white"/>
</svg>
