<svg width="36" height="36" viewBox="0 0 36 36" fill="none" xmlns="http://www.w3.org/2000/svg">
<path fill-rule="evenodd" clip-rule="evenodd" d="M3.04605 15.478C6.13666 10.393 11.6775 7 17.9999 7C24.3225 7 29.8634 10.3932 32.954 15.4782L32.9767 15.5156C33.2761 16.008 33.5162 16.4027 33.6673 17.0849C33.7306 17.371 33.75 17.7163 33.75 18.0001C33.75 18.2839 33.7306 18.6292 33.6672 18.9153C33.5162 19.5976 33.2761 19.9923 32.9767 20.4847L32.954 20.5221C29.8633 25.607 24.3225 29 18.0001 29C11.6775 29 6.13659 25.6068 3.04601 20.5218L3.02326 20.4844C2.72386 19.9921 2.48382 19.5973 2.33274 18.9151C2.26939 18.629 2.25 18.2837 2.25 17.9999C2.25 17.7161 2.2694 17.3708 2.33276 17.0847C2.48384 16.4024 2.72389 16.0077 3.0233 15.5154L3.04605 15.478ZM9.40699 18C9.40699 13.1818 13.2541 9.27586 17.9999 9.27586C22.7458 9.27586 26.5932 13.1818 26.5932 18C26.5932 22.8182 22.7459 26.7241 18.0001 26.7241C13.2542 26.7241 9.40699 22.8182 9.40699 18ZM18.0002 24.069C21.3016 24.069 23.978 21.3518 23.978 18C23.978 14.6482 21.3016 11.931 18.0002 11.931C14.6987 11.931 12.0223 14.6482 12.0223 18C12.0223 21.3518 14.6987 24.069 18.0002 24.069Z" fill="white"/>
</svg>
