<svg width="36" height="36" viewBox="0 0 36 36" fill="none" xmlns="http://www.w3.org/2000/svg">
<path fill-rule="evenodd" clip-rule="evenodd" d="M4.71675 16.6375C7.45328 12.049 12.3847 9 18.0019 9C23.6192 9 28.5506 12.049 31.2871 16.6375C31.5881 17.1422 31.6579 17.2697 31.7238 17.5712C31.7371 17.632 31.7539 17.7897 31.7539 17.9981C31.7539 18.2065 31.7371 18.3642 31.7238 18.425C31.6579 18.7265 31.5881 18.854 31.2871 19.3587C28.5506 23.9473 23.6192 26.9962 18.0019 26.9962C12.3847 26.9962 7.45328 23.9473 4.71676 19.3587C4.41574 18.854 4.34595 18.7265 4.28007 18.425C4.26678 18.3642 4.25 18.2065 4.25 17.9981C4.25 17.7897 4.26678 17.632 4.28007 17.5712C4.34595 17.2697 4.41574 17.1422 4.71675 16.6375ZM18.0019 7C11.6375 7 6.07392 10.4572 2.99903 15.6131L2.97744 15.6493C2.6882 16.134 2.46526 16.5077 2.32616 17.1443C2.26863 17.4077 2.25 17.7283 2.25 17.9981C2.25 18.2679 2.26863 18.5886 2.32616 18.8519C2.46526 19.4886 2.6882 19.8622 2.97744 20.3469L2.99903 20.3831C6.07392 25.5391 11.6375 28.9962 18.0019 28.9962C24.3664 28.9962 29.93 25.5391 33.0048 20.3831L33.0264 20.3469C33.3157 19.8622 33.5386 19.4886 33.6777 18.8519C33.7353 18.5886 33.7539 18.2679 33.7539 17.9981C33.7539 17.7283 33.7353 17.4077 33.6777 17.1443C33.5386 16.5077 33.3157 16.134 33.0264 15.6493L33.0048 15.6131C29.93 10.4572 24.3664 7 18.0019 7ZM18.0036 24.1498C21.3279 24.1498 24.0228 21.3952 24.0228 17.9973C24.0228 14.5993 21.3279 11.8447 18.0036 11.8447C14.6793 11.8447 11.9844 14.5993 11.9844 17.9973C11.9844 21.3952 14.6793 24.1498 18.0036 24.1498Z" fill="white"/>
</svg>
