<svg width="36" height="36" viewBox="0 0 36 36" fill="none" xmlns="http://www.w3.org/2000/svg">
<path fill-rule="evenodd" clip-rule="evenodd" d="M32.2035 29.0455C32.5664 30.1479 31.5958 31.228 30.4617 30.9837L25.19 29.848C21.9996 31.4162 18.2851 31.8884 14.737 31.1767C11.1889 30.465 8.04868 28.6179 5.90022 25.9788C3.75176 23.3397 2.74124 20.0883 3.05657 16.829C3.37189 13.5697 4.99159 10.5243 7.61453 8.25913C10.2375 5.99396 13.6851 4.66311 17.3165 4.51403C20.9479 4.36495 24.5158 5.40779 27.357 7.44865C30.1982 9.4895 32.1192 12.3895 32.7629 15.6094C33.4066 18.8294 32.7292 22.1501 30.8566 24.9543L32.2035 29.0455ZM10.3549 12.3113C10.5445 12.1849 10.7657 12.1532 10.9868 12.1532C11.4292 12.1532 11.8715 12.3745 12.1242 12.8171C12.6298 13.7339 14.1463 13.7339 14.6835 12.7855C15.031 12.1849 15.8209 11.9636 16.4528 12.3113C17.0531 12.659 17.2743 13.4493 16.9267 14.0816C16.2 15.3461 14.873 16.1048 13.3881 16.1048C11.9347 16.1048 10.5761 15.3145 9.881 14.05C9.53345 13.4493 9.75462 12.659 10.3549 12.3113ZM25.6449 12.3362C25.013 11.9885 24.2231 12.2098 23.8756 12.8104C23.3385 13.7588 21.8219 13.7588 21.348 12.8104C21.0952 12.3679 20.6529 12.1466 20.2105 12.1466C19.9894 12.1466 19.7682 12.1782 19.5786 12.3046C18.9467 12.684 18.7256 13.4427 19.0731 14.0749C19.7682 15.3394 21.1268 16.1297 22.5802 16.1297C24.0651 16.1297 25.3921 15.371 26.1188 14.1065C26.4664 13.4743 26.2452 12.684 25.6449 12.3362ZM12.566 23.6997C12.4712 24.2055 12.8819 24.6796 13.419 24.6796H22.5816C23.1188 24.6796 23.5295 24.1738 23.4347 23.6997C22.9608 21.1391 20.7175 19.1791 18.0003 19.1791C15.2832 19.1791 13.0399 21.1391 12.566 23.6997Z" fill="white"/>
</svg>
