<svg width="36" height="36" viewBox="0 0 36 36" fill="none" xmlns="http://www.w3.org/2000/svg">
<path fill-rule="evenodd" clip-rule="evenodd" d="M6 10.8C6 8.06974 6 6.70462 6.53134 5.6618C6.99873 4.74451 7.74451 3.99873 8.6618 3.53134C9.70462 3 11.0697 3 13.8 3H22.2C24.9303 3 26.2954 3 27.3382 3.53134C28.2555 3.99873 29.0013 4.74451 29.4687 5.6618C30 6.70462 30 8.06974 30 10.8V25.2C30 27.9303 30 29.2954 29.4687 30.3382C29.0013 31.2555 28.2555 32.0013 27.3382 32.4687C26.2954 33 24.9303 33 22.2 33H13.8C11.0697 33 9.70462 33 8.6618 32.4687C7.74451 32.0013 6.99873 31.2555 6.53134 30.3382C6 29.2954 6 27.9303 6 25.2V10.8ZM11 9C11 8.44772 11.4477 8 12 8H24C24.5523 8 25 8.44772 25 9C25 9.55228 24.5523 10 24 10H12C11.4477 10 11 9.55228 11 9ZM11 14.625C11 14.0727 11.4477 13.625 12 13.625H24C24.5523 13.625 25 14.0727 25 14.625C25 15.1773 24.5523 15.625 24 15.625H12C11.4477 15.625 11 15.1773 11 14.625ZM11 20.25C11 19.6977 11.4477 19.25 12 19.25H15.375C15.9273 19.25 16.375 19.6977 16.375 20.25C16.375 20.8023 15.9273 21.25 15.375 21.25H12C11.4477 21.25 11 20.8023 11 20.25ZM25.4571 23.9571C25.8476 23.5666 25.8476 22.9334 25.4571 22.5429C25.0666 22.1524 24.4334 22.1524 24.0429 22.5429L20.25 26.3358L18.7071 24.7929C18.3166 24.4024 17.6834 24.4024 17.2929 24.7929C16.9024 25.1834 16.9024 25.8166 17.2929 26.2071L19.5429 28.4571C19.9334 28.8476 20.5666 28.8476 20.9571 28.4571L25.4571 23.9571Z" fill="white"/>
</svg>
