<svg width="36" height="36" viewBox="0 0 36 36" fill="none" xmlns="http://www.w3.org/2000/svg">
<path fill-rule="evenodd" clip-rule="evenodd" d="M12.9575 3C11.9435 2.99999 11.1218 2.99998 10.4556 3.05441C9.76841 3.11056 9.1591 3.22956 8.59355 3.51772C7.69978 3.97312 6.97312 4.69978 6.51772 5.59355C6.22956 6.1591 6.11056 6.76842 6.05441 7.45558C5.99998 8.12178 5.99999 8.94348 6 9.9575V17.875C6 18.4273 6.44772 18.875 7 18.875C7.55229 18.875 8 18.4273 8 17.875V10C8 8.9334 8.00078 8.19359 8.04777 7.61844C8.09381 7.05496 8.17917 6.73814 8.29973 6.50153C8.56338 5.98408 8.98408 5.56338 9.50153 5.29973C9.73814 5.17917 10.055 5.09381 10.6184 5.04777C11.1936 5.00078 11.9334 5 13 5H22.75C23.8166 5 24.5564 5.00078 25.1316 5.04777C25.695 5.09381 26.0119 5.17917 26.2485 5.29973C26.7659 5.56338 27.1866 5.98408 27.4503 6.50153C27.5708 6.73814 27.6562 7.05496 27.7022 7.61844C27.7492 8.19359 27.75 8.9334 27.75 10V25.75C27.75 26.8166 27.7492 27.5564 27.7022 28.1316C27.6562 28.695 27.5708 29.0119 27.4503 29.2485C27.1866 29.7659 26.7659 30.1866 26.2485 30.4503C26.0119 30.5708 25.695 30.6562 25.1316 30.7022C24.5564 30.7492 23.8166 30.75 22.75 30.75H19.375C18.8227 30.75 18.375 31.1977 18.375 31.75C18.375 32.3023 18.8227 32.75 19.375 32.75H22.7925C23.8065 32.75 24.6282 32.75 25.2944 32.6956C25.9816 32.6394 26.5909 32.5204 27.1565 32.2323C28.0502 31.7769 28.7769 31.0502 29.2323 30.1565C29.5204 29.5909 29.6394 28.9816 29.6956 28.2944C29.75 27.6282 29.75 26.8065 29.75 25.7925V9.95748C29.75 8.94346 29.75 8.12178 29.6956 7.45558C29.6394 6.76842 29.5204 6.1591 29.2323 5.59355C28.7769 4.69978 28.0502 3.97312 27.1565 3.51772C26.5909 3.22956 25.9816 3.11056 25.2944 3.05441C24.6282 2.99998 23.8065 2.99999 22.7925 3H12.9575ZM11.875 7.875C11.3227 7.875 10.875 8.32272 10.875 8.875C10.875 9.42729 11.3227 9.875 11.875 9.875H23.875C24.4273 9.875 24.875 9.42729 24.875 8.875C24.875 8.32272 24.4273 7.875 23.875 7.875H11.875ZM11.875 13.875C11.3227 13.875 10.875 14.3227 10.875 14.875C10.875 15.4273 11.3227 15.875 11.875 15.875H23.875C24.4273 15.875 24.875 15.4273 24.875 14.875C24.875 14.3227 24.4273 13.875 23.875 13.875H11.875ZM20.875 19.875C20.3227 19.875 19.875 20.3227 19.875 20.875C19.875 21.4273 20.3227 21.875 20.875 21.875H23.875C24.4273 21.875 24.875 21.4273 24.875 20.875C24.875 20.3227 24.4273 19.875 23.875 19.875H20.875ZM22.375 25.875C21.8227 25.875 21.375 26.3227 21.375 26.875C21.375 27.4273 21.8227 27.875 22.375 27.875H23.875C24.4273 27.875 24.875 27.4273 24.875 26.875C24.875 26.3227 24.4273 25.875 23.875 25.875H22.375Z" fill="white"/>
<path fill-rule="evenodd" clip-rule="evenodd" d="M10.25 25.375C10.25 23.6491 11.6491 22.25 13.375 22.25C15.1009 22.25 16.5 23.6491 16.5 25.375C16.5 27.1009 15.1009 28.5 13.375 28.5C11.6491 28.5 10.25 27.1009 10.25 25.375ZM13.375 20.25C10.5445 20.25 8.25 22.5445 8.25 25.375C8.25 26.4287 8.56799 27.4081 9.11324 28.2225L6.29289 31.0429C5.90237 31.4334 5.90237 32.0666 6.29289 32.4571C6.68342 32.8476 7.31658 32.8476 7.70711 32.4571L10.5275 29.6368C11.3419 30.182 12.3213 30.5 13.375 30.5C16.2055 30.5 18.5 28.2055 18.5 25.375C18.5 22.5445 16.2055 20.25 13.375 20.25Z" fill="white"/>
</svg>
