<svg width="36" height="36" viewBox="0 0 36 36" fill="none" xmlns="http://www.w3.org/2000/svg">
<path fill-rule="evenodd" clip-rule="evenodd" d="M24.5991 3H13.4995C12.1012 3 10.9263 3.95668 10.5937 5.25121C10.8275 5.24999 11.0694 5.25 11.3183 5.25002H20.1804C21.0559 5.24997 21.8437 5.24992 22.4991 5.30348C23.201 5.36082 23.9468 5.49063 24.6778 5.8631C25.7362 6.40239 26.5967 7.26289 27.136 8.3213C27.5085 9.05232 27.6383 9.79813 27.6956 10.5001C27.7492 11.1555 27.7492 11.9433 27.7491 12.8187V27.6812C27.7491 27.9301 27.7491 28.1721 27.7479 28.4058C29.0424 28.0732 29.999 26.8983 29.999 25.5001V8.39995C29.999 6.50979 29.999 5.56471 29.6312 4.84276C29.3076 4.20772 28.7913 3.69142 28.1563 3.36785C27.4343 3 26.4893 3 24.5991 3ZM21.3509 7.50575C22.4482 7.52298 23.1152 7.59193 23.6568 7.86785C24.2918 8.19142 24.8081 8.70772 25.1317 9.34276C25.4995 10.0647 25.4995 11.0098 25.4995 12.8999V27.6001C25.4995 29.4902 25.4995 30.4353 25.1317 31.1572C24.8081 31.7923 24.2918 32.3086 23.6568 32.6322C22.9348 33 21.9897 33 20.0996 33H11.3999C9.50977 33 8.56469 33 7.84275 32.6322C7.20772 32.3086 6.69141 31.7923 6.36785 31.1572C6 30.4353 6 29.4902 6 27.6001V12.8999C6 11.0098 6 10.0647 6.36785 9.34276C6.69141 8.70772 7.20772 8.19142 7.84275 7.86785C8.49819 7.53389 9.33753 7.50312 10.901 7.50029C11.0596 7.5 11.2256 7.5 11.3995 7.5C11.3994 7.5 11.3997 7.5 11.3995 7.5H20.0992C20.0991 7.5 20.0993 7.5 20.0992 7.5C20.5716 7.5 20.9853 7.5 21.3509 7.50575ZM10.6249 14.25C10.6249 13.6977 11.0726 13.25 11.6249 13.25H19.8746C20.4269 13.25 20.8746 13.6977 20.8746 14.25C20.8746 14.8023 20.4269 15.25 19.8746 15.25H11.6249C11.0726 15.25 10.6249 14.8023 10.6249 14.25ZM10.6249 20.25C10.6249 19.6977 11.0726 19.25 11.6249 19.25H19.8746C20.4269 19.25 20.8746 19.6977 20.8746 20.25C20.8746 20.8023 20.4269 21.25 19.8746 21.25H11.6249C11.0726 21.25 10.6249 20.8023 10.6249 20.25ZM10.6249 26.25C10.6249 25.6977 11.0726 25.25 11.6249 25.25H19.8746C20.4269 25.25 20.8746 25.6977 20.8746 26.25C20.8746 26.8023 20.4269 27.25 19.8746 27.25H11.6249C11.0726 27.25 10.6249 26.8023 10.6249 26.25Z" fill="white"/>
</svg>
