<svg width="36" height="36" viewBox="0 0 36 36" fill="none" xmlns="http://www.w3.org/2000/svg">
<path fill-rule="evenodd" clip-rule="evenodd" d="M6 10.8C6 8.06974 6 6.70462 6.53134 5.6618C6.99873 4.74451 7.74451 3.99873 8.6618 3.53134C9.70462 3 11.0697 3 13.8 3H22.2C24.9303 3 26.2954 3 27.3382 3.53134C28.2555 3.99873 29.0013 4.74451 29.4687 5.6618C30 6.70462 30 8.06974 30 10.8V25.2C30 27.9303 30 29.2954 29.4687 30.3382C29.0013 31.2555 28.2555 32.0013 27.3382 32.4687C26.2954 33 24.9303 33 22.2 33H13.8C11.0697 33 9.70462 33 8.6618 32.4687C8.50546 32.389 8.3541 32.3013 8.20826 32.206L10.6525 29.7618C11.4669 30.307 12.4463 30.625 13.5 30.625C16.3305 30.625 18.625 28.3305 18.625 25.5C18.625 22.6695 16.3305 20.375 13.5 20.375C10.6695 20.375 8.375 22.6695 8.375 25.5C8.375 26.5537 8.69299 27.5331 9.23824 28.3475L6.79405 30.7917C6.69875 30.6459 6.611 30.4945 6.53134 30.3382C6 29.2954 6 27.9303 6 25.2V10.8ZM11 9C11 8.44772 11.4477 8 12 8H24C24.5523 8 25 8.44772 25 9C25 9.55228 24.5523 10 24 10H12C11.4477 10 11 9.55228 11 9ZM11 15C11 14.4477 11.4477 14 12 14H24C24.5523 14 25 14.4477 25 15C25 15.5523 24.5523 16 24 16H12C11.4477 16 11 15.5523 11 15ZM20 21C20 20.4477 20.4477 20 21 20H24C24.5523 20 25 20.4477 25 21C25 21.5523 24.5523 22 24 22H21C20.4477 22 20 21.5523 20 21ZM21.5 27C21.5 26.4477 21.9477 26 22.5 26H24C24.5523 26 25 26.4477 25 27C25 27.5523 24.5523 28 24 28H22.5C21.9477 28 21.5 27.5523 21.5 27ZM13.5 22.375C11.7741 22.375 10.375 23.7741 10.375 25.5C10.375 27.2259 11.7741 28.625 13.5 28.625C15.2259 28.625 16.625 27.2259 16.625 25.5C16.625 23.7741 15.2259 22.375 13.5 22.375Z" fill="white"/>
</svg>
