<svg width="36" height="36" viewBox="0 0 36 36" fill="none" xmlns="http://www.w3.org/2000/svg">
<path d="M29.1701 10.6514C28.8824 12.8242 27.7953 14.8242 26.0978 16.2305L21.7062 19.8916C21.2725 20.2509 21.0217 20.789 21.0217 21.3564V29.3809C21.0217 29.8876 20.6894 30.3334 20.2082 30.4727L16.3468 31.9561C16.0086 32.0539 15.6443 31.9859 15.3635 31.7715C15.0827 31.5571 14.9183 31.2213 14.9181 30.8652V24.9033L29.1701 10.6514Z" fill="white"/>
<path fill-rule="evenodd" clip-rule="evenodd" d="M28.1291 4C28.703 4.00005 29.1754 4.43686 29.2414 5L29.7492 4.49316C30.1397 4.10264 30.7727 4.10264 31.1633 4.49316C31.5536 4.8837 31.5537 5.51676 31.1633 5.90723L5.7072 31.3633C5.31671 31.7535 4.68358 31.7535 4.29314 31.3633C3.90261 30.9728 3.90261 30.3388 4.29314 29.9482L14.3088 19.9326C14.2835 19.9092 14.2593 19.8844 14.2326 19.8623L9.90251 16.2305C7.90732 14.5776 6.75021 12.1053 6.75017 9.49512V5.13477C6.75037 4.50802 7.25222 4.00001 7.87126 4H28.1291ZM19.091 8.92871C18.4698 8.92871 17.9662 9.43255 17.966 10.0537C17.966 10.675 18.4697 11.1787 19.091 11.1787H23.0636L25.2912 8.9502C25.2198 8.93596 25.146 8.92875 25.0705 8.92871H19.091Z" fill="white"/>
</svg>
