<svg width="36" height="36" viewBox="0 0 36 36" fill="none" xmlns="http://www.w3.org/2000/svg">
<path d="M29.9884 9.83203C29.8922 12.2438 28.7777 14.5082 26.9074 16.0508L22.382 19.7822C21.9214 20.1621 21.6545 20.7282 21.6545 21.3252V29.4697C21.6543 29.9152 21.3599 30.3073 20.9318 30.4307L15.6213 31.96C15.3195 32.0468 14.9942 31.9866 14.7433 31.7979C14.4924 31.609 14.345 31.313 14.3449 30.999V25.4766L16.3449 23.4766V29.6699L19.6545 28.7168V21.3252C19.6545 20.8341 19.7458 20.3538 19.9162 19.9053L23.8068 16.0146L25.6349 14.5078C26.2741 13.9807 26.7966 13.3422 27.1877 12.6338L29.9884 9.83203Z" fill="white"/>
<path fill-rule="evenodd" clip-rule="evenodd" d="M28.9992 4C29.3389 4.00003 29.6388 4.16971 29.8195 4.42871C30.2124 4.10364 30.7954 4.12534 31.1633 4.49316C31.5536 4.8837 31.5537 5.51676 31.1633 5.90723L5.7072 31.3633C5.31671 31.7535 4.68358 31.7535 4.29314 31.3633C3.90261 30.9728 3.90261 30.3388 4.29314 29.9482L14.0129 20.2275C13.9042 20.0624 13.7732 19.9108 13.6174 19.7822L9.09197 16.0508C7.25645 14.537 6.14556 12.3281 6.01384 9.9668L6.00017 9.49316V5L6.00505 4.89746C6.05639 4.39334 6.48249 4 7.00017 4H28.9992ZM8.00017 9.49316L8.00993 9.85547C8.1107 11.6611 8.96084 13.3502 10.3644 14.5078L14.8898 18.2393C15.0944 18.408 15.2789 18.5958 15.4435 18.7979L23.2717 10.9707H19.1379C18.5857 10.9707 18.1381 10.5228 18.1379 9.9707C18.1379 9.41842 18.5856 8.9707 19.1379 8.9707H24.4484C24.6788 8.97087 24.8906 9.04959 25.0597 9.18066L27.9992 6.24219V6H8.00017V9.49316Z" fill="white"/>
</svg>
