<svg width="36" height="36" viewBox="0 0 36 36" fill="none" xmlns="http://www.w3.org/2000/svg">
<path fill-rule="evenodd" clip-rule="evenodd" d="M7 4C6.44772 4 6 4.44772 6 5V9.49282C6 12.0306 7.13395 14.4357 9.0918 16.0504L13.6171 19.7825C14.0777 20.1624 14.3445 20.7283 14.3445 21.3254V30.9986C14.3445 31.3128 14.4922 31.6087 14.7432 31.7976C14.9942 31.9865 15.3194 32.0465 15.6213 31.9595L20.9315 30.4302C21.3597 30.3069 21.6547 29.915 21.6547 29.4693V21.3254C21.6547 20.7283 21.9215 20.1624 22.3822 19.7825L26.9074 16.0504C28.8653 14.4357 29.9992 12.0306 29.9992 9.49282V5C29.9992 4.44772 29.5515 4 28.9992 4H7ZM8 9.49282V6H27.9992V9.49282C27.9992 11.4335 27.1321 13.2726 25.6349 14.5074L21.1097 18.2395C20.1883 18.9994 19.6547 20.1312 19.6547 21.3254V28.7166L16.3445 29.67V21.3254C16.3445 20.1312 15.8109 18.9994 14.8896 18.2395L10.3643 14.5074C8.86714 13.2726 8 11.4335 8 9.49282ZM19.1374 8.97021C18.5851 8.97021 18.1374 9.41793 18.1374 9.97021C18.1374 10.5225 18.5851 10.9702 19.1374 10.9702H24.4476C24.9999 10.9702 25.4476 10.5225 25.4476 9.97021C25.4476 9.41793 24.9999 8.97021 24.4476 8.97021H19.1374Z" fill="white"/>
</svg>
