<svg width="36" height="36" viewBox="0 0 36 36" fill="none" xmlns="http://www.w3.org/2000/svg">
<path fill-rule="evenodd" clip-rule="evenodd" d="M16.8184 6.47964C16.6234 8.3864 15.9841 9.90962 15.163 11.2919C14.661 12.1371 14.0879 12.9344 13.5293 13.7115C13.5132 13.7339 13.4972 13.7562 13.4811 13.7785C12.8997 14.5875 12.3295 15.3851 11.8051 16.264C10.3367 18.7256 9.51072 21.4394 9.8117 23.9133C10.0206 25.6302 10.7801 27.3052 12.3764 28.7613C12.1135 28.0306 11.9363 27.3802 11.8366 26.7757C11.619 25.4555 11.7801 24.4119 12.1159 23.3082C12.4292 22.2783 13.7802 22.2441 14.2349 23.1128C14.424 23.4741 14.6149 23.8037 14.817 24.1177C15.0455 20.4677 16.3914 17.9909 18.5242 16.8005C19.1447 16.4543 19.8696 16.7561 20.1296 17.3356C20.6388 18.47 21.1909 19.3854 21.7289 20.2776C21.9483 20.6413 22.1653 21.0012 22.3762 21.3705C23.0813 22.6054 23.6844 23.9044 23.6844 25.5017C23.6844 27.5214 23.3667 28.425 22.8641 29.7093C23.7417 29.1787 24.4091 28.4946 24.9116 27.7051C25.7173 26.4394 26.1327 24.8471 26.2284 23.0751C26.3977 19.9412 25.5563 16.4292 24.3978 13.6725C24.3307 13.7523 24.2635 13.8354 24.1959 13.9217C24.0334 14.1291 23.8751 14.346 23.7079 14.5767C23.6915 14.5993 23.675 14.6221 23.6585 14.645C23.5091 14.8513 23.3513 15.0691 23.189 15.2815C22.4783 16.2115 21.1748 15.6056 21.126 14.6343C21.0318 12.7619 20.2305 10.8461 19.1199 9.1815C18.4095 8.11678 17.5973 7.19189 16.8184 6.47964ZM14.8721 4.82211C14.8407 3.97799 15.7884 3.26162 16.6382 3.80821C18.0001 4.68418 19.5475 6.21883 20.7836 8.0715C21.651 9.37155 22.3947 10.8728 22.8022 12.4631C23.1379 12.0556 23.527 11.6459 23.9982 11.2972C24.5742 10.8709 25.3934 11.0719 25.707 11.7159C27.2141 14.811 28.4407 19.1996 28.2255 23.183C28.1175 25.1831 27.6425 27.1395 26.5989 28.7791C25.5427 30.4384 23.9383 31.717 21.6913 32.3837C20.8342 32.638 19.9631 31.831 20.2775 30.9136C20.5602 30.0888 20.7953 29.4896 20.9872 29.0004C21.476 27.7546 21.6844 27.2235 21.6844 25.5017C21.6844 24.438 21.2965 23.5131 20.6394 22.3622C20.4692 22.0641 20.2775 21.7463 20.0734 21.4078C19.6605 20.723 19.1964 19.9532 18.7548 19.0901C17.498 20.2534 16.5685 22.548 16.8239 26.5072C16.8908 27.5441 15.5909 28.1985 14.826 27.3589C14.4327 26.9271 14.0834 26.5155 13.7624 26.0939C13.7741 26.2097 13.7899 26.3282 13.81 26.4503C13.9722 27.4339 14.424 28.7036 15.3765 30.66C15.8726 31.679 14.7652 32.6926 13.7993 32.1726C10.0261 30.1409 8.20621 27.2773 7.82634 24.1548C7.45394 21.0939 8.48175 17.9313 10.0874 15.2394C10.6615 14.2774 11.2797 13.4148 11.8571 12.6113L11.883 12.5752C12.4581 11.7751 12.9867 11.0397 13.4435 10.2705C14.3485 8.74684 14.9575 7.11404 14.8721 4.82211Z" fill="white"/>
</svg>
