<svg width="36" height="36" viewBox="0 0 36 36" fill="none" xmlns="http://www.w3.org/2000/svg">
<path d="M30 5.14737C20.25 11.5474 16.4999 -2.00547 6 5.14737V21.3354C17.25 14.5591 20.25 27.3589 30 21.3354V5.14737Z" fill="white"/>
<path fill-rule="evenodd" clip-rule="evenodd" d="M7 5.68606V19.6526C9.31366 18.5282 11.3408 18.1854 13.2007 18.3266C15.421 18.4951 17.3062 19.3509 18.9909 20.1495C19.0876 20.1954 19.1835 20.2409 19.2787 20.2862C20.8908 21.0522 22.3029 21.7232 23.8527 21.9327C25.3155 22.1304 26.9599 21.9172 29 20.7653V6.87093C27.005 7.84518 25.1916 8.06737 23.4774 7.83222C21.5159 7.56314 19.744 6.69512 18.128 5.90342C18.0323 5.8565 17.937 5.80985 17.8424 5.76361C16.0948 4.91014 14.4946 4.17344 12.7257 4.02632C11.1098 3.89194 9.26393 4.24726 7 5.68606ZM7 21.9101C9.43652 20.5396 11.3824 20.1944 13.0493 20.3208C14.8603 20.4583 16.4438 21.1554 18.1341 21.9567C18.2505 22.0119 18.3676 22.0677 18.4855 22.1239C20.031 22.8603 21.7127 23.6617 23.5848 23.9147C25.6665 24.196 27.9128 23.8003 30.5256 22.1862C30.8205 22.004 31 21.6821 31 21.3354V5.14737C31 4.77986 30.7984 4.44196 30.475 4.26739C30.1516 4.09282 29.7585 4.10971 29.4512 4.31139C27.197 5.79107 25.3752 6.07382 23.7492 5.85077C22.1162 5.62676 20.6118 4.89131 18.9163 4.06239C18.8512 4.03055 18.7858 3.99857 18.7201 3.96649C16.9988 3.12585 15.0835 2.21551 12.8914 2.0332C10.6491 1.84672 8.22169 2.4239 5.43699 4.32092C5.1636 4.50717 5 4.81657 5 5.14737V31.5C5 32.0523 5.44772 32.5 6 32.5C6.55228 32.5 7 32.0523 7 31.5V21.9101Z" fill="white"/>
</svg>
