<svg width="36" height="36" viewBox="0 0 36 36" fill="none" xmlns="http://www.w3.org/2000/svg">
<path d="M5.43652 4.32128C8.22122 2.42426 10.6493 1.8467 12.8916 2.03319C15.0835 2.21552 16.9986 3.12619 18.7197 3.96678C18.7854 3.99885 18.851 4.03068 18.916 4.06249C20.6115 4.89139 22.1161 5.62654 23.749 5.85057C25.375 6.07362 27.197 5.79113 29.4512 4.31151C29.7583 4.10988 30.1512 4.09312 30.4746 4.26757C30.798 4.44214 31 4.77993 31 5.14745V21.3349C31 21.6816 30.8203 22.0043 30.5254 22.1865C27.9129 23.8004 25.6665 24.1963 23.585 23.915C21.7129 23.662 20.0309 22.8605 18.4854 22.124C18.3675 22.0678 18.2501 22.0122 18.1338 21.957C16.4436 21.1558 14.8605 20.4588 13.0498 20.3213C11.3829 20.1948 9.43652 20.5397 7 21.9101V31.5C7 32.0523 6.55228 32.5 6 32.5C5.44772 32.5 5 32.0523 5 31.5V5.14745C5 4.81684 5.16343 4.50756 5.43652 4.32128Z" fill="white"/>
</svg>
