<svg width="36" height="36" viewBox="0 0 36 36" fill="none" xmlns="http://www.w3.org/2000/svg">
<path fill-rule="evenodd" clip-rule="evenodd" d="M18.9981 5.5C18.9981 4.94772 18.5504 4.5 17.9981 4.5C17.4458 4.5 16.9981 4.94772 16.9981 5.5V10.8004C16.9981 11.3527 17.4458 11.8004 17.9981 11.8004C18.5504 11.8004 18.9981 11.3527 18.9981 10.8004V5.5ZM29.7056 9.80924C30.0964 9.41894 30.0964 8.78614 29.7056 8.39583C29.3149 8.00553 28.6814 8.00553 28.2906 8.39583L25.6086 11.0748C25.2179 11.4651 25.2179 12.0979 25.6086 12.4882C25.9994 12.8785 26.6329 12.8785 27.0236 12.4882L29.7056 9.80924ZM6.29257 8.41439C6.68332 8.02409 7.31684 8.02409 7.70759 8.41439L10.3896 11.0933C10.7803 11.4836 10.7803 12.1165 10.3896 12.5068C9.99884 12.8971 9.36532 12.8971 8.97457 12.5068L6.29257 9.8278C5.90183 9.4375 5.90183 8.80469 6.29257 8.41439ZM25.6748 27.7172L25.2475 19.6208C25.1144 17.0982 23.0302 15.1211 20.5041 15.1211H15.4784C12.9523 15.1211 10.8681 17.0982 10.735 19.6208L10.3077 27.7172H25.6748ZM27.6148 29.5076C27.5718 29.5139 27.5278 29.5172 27.4831 29.5172H8.51375C8.46901 29.5172 8.42502 29.5139 8.38202 29.5076C7.892 29.5721 7.51375 29.9914 7.51375 30.499C7.51375 31.0513 7.96147 31.499 8.51375 31.499H27.4831C28.0353 31.499 28.4831 31.0513 28.4831 30.499C28.4831 29.9914 28.1048 29.5721 27.6148 29.5076Z" fill="white"/>
</svg>
