<svg width="36" height="36" viewBox="0 0 36 36" fill="none" xmlns="http://www.w3.org/2000/svg">
<path d="M12.1801 22.3809C12.5706 21.9905 13.2037 21.9904 13.5942 22.3809C13.9846 22.7713 13.9845 23.4044 13.5942 23.7949L11.685 25.7041C11.2945 26.0945 10.6614 26.0945 10.2709 25.7041C9.88045 25.3136 9.88055 24.6806 10.2709 24.29L12.1801 22.3809Z" fill="white"/>
<path fill-rule="evenodd" clip-rule="evenodd" d="M17.6596 7.81445C18.401 7.07321 19.5742 7.02713 20.3696 7.67578L20.5239 7.81445L28.1606 15.4512L28.2993 15.6055C28.9478 16.4008 28.9009 17.5741 28.1596 18.3154L24.4428 22.0322L24.2973 22.168C23.9457 22.4712 23.5204 22.68 23.0629 22.7715L19.7133 23.4414L19.5639 23.4766C19.2181 23.5735 18.9033 23.7616 18.6528 24.0215L12.1205 30.7988C10.9923 31.9696 9.14598 32.0238 7.95257 30.9473L7.83929 30.8389L5.40081 28.4004L5.29535 28.29C4.27789 27.1655 4.26189 25.4528 5.25824 24.3096L5.36078 24.1973L11.9985 17.3096C12.2332 17.0659 12.403 16.768 12.4926 16.4434L12.5258 16.3018L13.2035 12.9111C13.2951 12.454 13.5041 12.0301 13.8071 11.6787L13.9428 11.5322L17.6596 7.81445ZM6.8012 25.585L6.7348 25.6611C6.42551 26.0544 6.45366 26.6251 6.81488 26.9863L9.25335 29.4238C9.64896 29.8194 10.2918 29.8139 10.6801 29.4111L16.9828 22.8701L13.1293 19.0176L6.8012 25.585ZM15.3569 12.9463C15.2592 13.044 15.1916 13.1683 15.1645 13.3037L14.4868 16.6943C14.4416 16.9198 14.3744 17.1388 14.2924 17.3516L18.6274 21.6865C18.8509 21.5979 19.0827 21.5271 19.3207 21.4795L22.6703 20.8096C22.8059 20.7825 22.931 20.7159 23.0287 20.6182L23.6528 19.9941L15.9799 12.3213L15.3569 12.9463ZM19.0815 9.22266L19.0805 9.22363C19.0805 9.22363 19.0767 9.22553 19.0737 9.22852L17.394 10.9072L25.0668 18.5801L26.7514 16.8955V16.8936C26.7514 16.8936 26.7543 16.8877 26.7543 16.8828C26.7543 16.8777 26.7514 16.8721 26.7514 16.8721L26.7504 16.8711C26.7504 16.8711 26.7494 16.8681 26.7465 16.8652L19.1098 9.22852C19.1069 9.2257 19.1039 9.22363 19.1039 9.22363L19.102 9.22266C19.102 9.22266 19.0969 9.22078 19.0922 9.2207C19.0872 9.2207 19.0815 9.22266 19.0815 9.22266Z" fill="white"/>
<path d="M33.4994 12.5C34.0517 12.5 34.4994 12.9477 34.4994 13.5C34.4994 14.0523 34.0517 14.5 33.4994 14.5H30.9994C30.4474 14.4998 29.9994 14.0521 29.9994 13.5C29.9994 12.9479 30.4474 12.5002 30.9994 12.5H33.4994Z" fill="white"/>
<path d="M30.3686 4.72461C30.7613 4.40433 31.3403 4.42708 31.7065 4.79297C32.0726 5.15908 32.0952 5.73809 31.7748 6.13086L31.7065 6.20703L29.2065 8.70703C28.8159 9.09733 28.1829 9.09748 27.7924 8.70703C27.4022 8.31656 27.4022 7.68343 27.7924 7.29297L30.2924 4.79297L30.3686 4.72461Z" fill="white"/>
<path d="M22.9994 2C23.5517 2 23.9994 2.44772 23.9994 3V5.5C23.9994 6.05228 23.5517 6.5 22.9994 6.5C22.4474 6.49975 21.9994 6.05213 21.9994 5.5V3C21.9994 2.44787 22.4474 2.00025 22.9994 2Z" fill="white"/>
</svg>
