<svg width="36" height="36" viewBox="0 0 36 36" fill="none" xmlns="http://www.w3.org/2000/svg">
<path fill-rule="evenodd" clip-rule="evenodd" d="M18.9981 5.5C18.9981 4.94772 18.5504 4.5 17.9981 4.5C17.4458 4.5 16.9981 4.94772 16.9981 5.5V10.8004C16.9981 11.3527 17.4458 11.8004 17.9981 11.8004C18.5504 11.8004 18.9981 11.3527 18.9981 10.8004V5.5ZM29.7056 9.80924C30.0964 9.41894 30.0964 8.78614 29.7056 8.39583C29.3149 8.00553 28.6814 8.00553 28.2906 8.39583L25.6086 11.0748C25.2179 11.4651 25.2179 12.0979 25.6086 12.4882C25.9994 12.8785 26.6329 12.8785 27.0236 12.4882L29.7056 9.80924ZM6.29257 8.41439C6.68332 8.02409 7.31684 8.02409 7.70759 8.41439L10.3896 11.0933C10.7803 11.4836 10.7803 12.1165 10.3896 12.5068C9.99884 12.8971 9.36532 12.8971 8.97457 12.5068L6.29257 9.8278C5.90183 9.4375 5.90183 8.80469 6.29257 8.41439ZM12.7322 19.7262C12.8093 18.2657 14.0159 17.1211 15.4784 17.1211H20.5041C21.9666 17.1211 23.1732 18.2657 23.2503 19.7262L23.7661 29.499H12.2165L12.7322 19.7262ZM25.2475 19.6208L25.7688 29.499H27.4831C28.0353 29.499 28.4831 29.9467 28.4831 30.499C28.4831 31.0513 28.0353 31.499 27.4831 31.499H8.51375C7.96147 31.499 7.51375 31.0513 7.51375 30.499C7.51375 29.9467 7.96147 29.499 8.51375 29.499H10.2137L10.735 19.6208C10.8681 17.0982 12.9523 15.1211 15.4784 15.1211H20.5041C23.0302 15.1211 25.1144 17.0982 25.2475 19.6208Z" fill="white"/>
</svg>
