<svg width="36" height="36" viewBox="0 0 36 36" fill="none" xmlns="http://www.w3.org/2000/svg">
<path fill-rule="evenodd" clip-rule="evenodd" d="M17.7259 24.0352L11.2562 30.3145C10.374 31.1702 8.96824 31.159 8.09896 30.29L5.65951 27.8506C4.7719 26.9626 4.78208 25.52 5.68295 24.6455L12.1038 18.4131L17.7259 24.0352ZM13.4613 22.498C13.0953 22.1321 12.5022 22.1323 12.1361 22.498L10.2269 24.4072C9.86107 24.7734 9.86088 25.3674 10.2269 25.7334C10.5928 26.0988 11.1861 26.0987 11.5521 25.7334L13.4613 23.8232C13.827 23.4571 13.8272 22.864 13.4613 22.498Z" fill="white"/>
<path d="M25.2708 20.3291L23.8206 21.7793C23.5486 22.0513 23.2017 22.2379 22.8245 22.3135L19.4388 22.9912C19.271 23.0248 19.107 23.0745 18.9495 23.1377L13.0189 17.207C13.0608 17.1057 13.0975 17.0016 13.1273 16.8955L13.1771 16.6904L13.847 13.3369C13.9226 12.9596 14.1091 12.6119 14.3812 12.3398L15.8314 10.8896L25.2708 20.3291Z" fill="white"/>
<path d="M18.098 8.62305C18.5959 8.12551 19.4039 8.12531 19.9017 8.62305L27.5384 16.2598C28.036 16.7576 28.0349 17.5646 27.5374 18.0625L26.3314 19.2686L16.8919 9.8291L18.098 8.62305Z" fill="white"/>
<path d="M33.0003 12.5C33.5525 12.5001 34.0003 12.9478 34.0003 13.5C34.0003 14.0522 33.5525 14.4999 33.0003 14.5H30.5003C29.948 14.5 29.5003 14.0523 29.5003 13.5C29.5003 12.9477 29.948 12.5 30.5003 12.5H33.0003Z" fill="white"/>
<path d="M30.3695 4.72461C30.7622 4.40431 31.3413 4.42687 31.7074 4.79297C32.0732 5.1591 32.096 5.73818 31.7757 6.13086L31.7074 6.20703L29.2074 8.70703C28.8169 9.09747 28.1838 9.0973 27.7933 8.70703C27.4028 8.31651 27.4028 7.68349 27.7933 7.29297L30.2933 4.79297L30.3695 4.72461Z" fill="white"/>
<path d="M23.0003 2.5C23.5525 2.50011 24.0003 2.94779 24.0003 3.5V6C24.0003 6.55221 23.5525 6.99989 23.0003 7C22.448 7 22.0003 6.55228 22.0003 6V3.5C22.0003 2.94772 22.448 2.5 23.0003 2.5Z" fill="white"/>
</svg>
