<svg width="36" height="36" viewBox="0 0 36 36" fill="none" xmlns="http://www.w3.org/2000/svg">
<path fill-rule="evenodd" clip-rule="evenodd" d="M29.4094 14.4359C30.7654 15.1856 30.2333 17.2484 28.6838 17.2484H8.24927L8.0188 17.2367C6.96044 17.1288 6.11868 16.2873 6.01099 15.2289L5.99927 14.9984V4.04141L6.01294 3.83242C6.15125 2.81407 7.28773 2.21062 8.22485 2.72793L29.4094 14.4359ZM7.99927 4.88906V14.9984C7.99927 15.1364 8.11141 15.2482 8.24927 15.2484H26.7454L7.99927 4.88906Z" fill="white"/>
<path fill-rule="evenodd" clip-rule="evenodd" d="M28.6838 18.7484C30.2333 18.7485 30.7654 20.8113 29.4094 21.5609L8.22485 33.2689C7.28757 33.7866 6.15106 33.1831 6.01294 32.1645L5.99927 31.9555V20.9984L6.01099 20.768C6.11882 19.7097 6.96051 18.868 8.0188 18.7602L8.24927 18.7484H28.6838ZM8.24927 20.7484C8.11153 20.7487 7.99946 20.8607 7.99927 20.9984V31.1078L26.7454 20.7484H8.24927Z" fill="white"/>
</svg>
