<svg width="36" height="36" viewBox="0 0 36 36" fill="none" xmlns="http://www.w3.org/2000/svg">
<path d="M20.1071 5.82137C20.5771 5.77265 21.07 5.93582 21.4078 6.35751C21.464 6.42756 21.5164 6.50443 21.5631 6.58895L33.2711 27.7735C33.338 27.8945 33.3847 28.0196 33.4157 28.1446C33.4205 28.164 33.4234 28.1838 33.4274 28.2032C33.4364 28.2472 33.4439 28.291 33.4489 28.335C33.4514 28.3578 33.4513 28.3807 33.4528 28.4034C33.4554 28.4437 33.4584 28.4836 33.4576 28.5235C33.4572 28.5474 33.4543 28.5711 33.4528 28.5948C33.4502 28.6342 33.4477 28.6732 33.442 28.712C33.4391 28.732 33.435 28.7517 33.4313 28.7716C33.4238 28.8111 33.4155 28.8501 33.4049 28.8888C33.3985 28.9122 33.3909 28.9351 33.3834 28.9581C33.3719 28.9935 33.3594 29.0282 33.3453 29.0626C33.3359 29.0857 33.3256 29.1083 33.3151 29.1309C33.301 29.1611 33.2862 29.1907 33.2701 29.2198C33.2559 29.2457 33.2409 29.271 33.2252 29.296C33.2075 29.3243 33.1891 29.3519 33.1696 29.379C33.1557 29.3982 33.1414 29.4171 33.1266 29.4356C33.0997 29.4694 33.0714 29.5018 33.0416 29.5333C33.0299 29.5457 33.0186 29.5584 33.0065 29.5704C32.9766 29.5999 32.9451 29.6274 32.9127 29.6544C32.8966 29.6679 32.8807 29.6816 32.8639 29.6944C32.8304 29.72 32.7952 29.7429 32.7594 29.7657C32.743 29.7762 32.7275 29.7881 32.7106 29.7979C32.6757 29.8183 32.639 29.8351 32.6022 29.8526C32.5809 29.8627 32.5606 29.8747 32.5387 29.8839C32.5027 29.8989 32.465 29.9097 32.4274 29.922C32.4036 29.9297 32.3805 29.9398 32.3561 29.9464C32.2947 29.963 32.2316 29.9766 32.1666 29.9854C32.0987 29.9947 32.029 30.0001 31.9576 30.0001H20.9996C20.8826 30.0001 20.7681 29.988 20.6559 29.9708C20.6255 29.9661 20.5951 29.962 20.5651 29.9561C20.5348 29.9502 20.505 29.9428 20.4752 29.9356C20.4348 29.926 20.3946 29.9162 20.3551 29.9044C20.3304 29.897 20.3062 29.8882 20.2819 29.88C20.2373 29.8649 20.1933 29.8488 20.15 29.8311C20.1307 29.8232 20.1115 29.8152 20.0924 29.8067C20.0493 29.7877 20.0072 29.7669 19.9655 29.7452C19.9415 29.7328 19.9176 29.7204 19.8942 29.7071C19.8623 29.6891 19.8313 29.67 19.8004 29.6505C19.7715 29.6322 19.7425 29.6143 19.7145 29.5948C19.678 29.5694 19.6429 29.5423 19.608 29.5147C19.5929 29.5028 19.577 29.4919 19.5621 29.4796C19.4558 29.3911 19.3576 29.293 19.2692 29.1866C19.2569 29.1718 19.246 29.1558 19.234 29.1407C19.2065 29.1058 19.1794 29.0707 19.1539 29.0343C19.1344 29.0063 19.1165 28.9772 19.0983 28.9483C19.0778 28.9159 19.0576 28.8832 19.0387 28.8497C19.0259 28.8268 19.0137 28.8037 19.0016 28.7804C18.9832 28.7447 18.9654 28.7087 18.9489 28.672C18.9361 28.6435 18.9234 28.6151 18.9118 28.586C18.8971 28.5494 18.8835 28.5123 18.8707 28.4747C18.8616 28.4478 18.8525 28.4209 18.8444 28.3936C18.8326 28.3541 18.8228 28.3139 18.8131 28.2735C18.806 28.2437 18.7985 28.2139 18.7926 28.1837C18.7867 28.1537 18.7826 28.1233 18.778 28.0929C18.7608 27.981 18.7497 27.8667 18.7496 27.7501V7.31551C18.7496 6.54061 19.266 6.01953 19.8756 5.86239C19.9516 5.84282 20.029 5.82945 20.1071 5.82137Z" fill="white"/>
<path fill-rule="evenodd" clip-rule="evenodd" d="M14.4371 6.58895C15.1868 5.23335 17.2492 5.76549 17.2496 7.31454V27.7491L17.2379 27.9796C17.1302 29.0382 16.2887 29.8797 15.2301 29.9874L14.9996 29.9991H4.04261L3.83363 29.9854C2.81516 29.847 2.21133 28.7107 2.72913 27.7735L14.4371 6.58895ZM4.89027 27.9991H14.9996C15.1377 27.9991 15.2496 27.8872 15.2496 27.7491V9.25301L4.89027 27.9991Z" fill="white"/>
</svg>
