<svg width="36" height="36" viewBox="0 0 36 36" fill="none" xmlns="http://www.w3.org/2000/svg">
<path fill-rule="evenodd" clip-rule="evenodd" d="M29.4102 14.4362C30.766 15.1858 30.2338 17.2484 28.6846 17.2487H8.25L8.01953 17.237C6.96094 17.1293 6.11943 16.2877 6.01172 15.2291L6 14.9987V4.04165L6.01367 3.83266C6.15202 2.81414 7.28837 2.21035 8.22559 2.72817L29.4102 14.4362ZM8 4.88931V14.9987C8 15.1368 8.11193 15.2487 8.25 15.2487H26.7461L8 4.88931Z" fill="white"/>
<path d="M30.1621 19.9889C30.2668 20.57 30.0461 21.2107 29.4102 21.5622L8.25 33.2555L8.22559 33.2692C8.16593 33.3021 8.1049 33.3301 8.04395 33.3541C8.02148 33.363 7.99817 33.3689 7.97559 33.3766C7.93477 33.3905 7.89458 33.4046 7.85352 33.4147C7.8302 33.4205 7.80655 33.4238 7.7832 33.4284C7.74336 33.4362 7.70387 33.4435 7.66406 33.4479C7.64127 33.4504 7.61844 33.4503 7.5957 33.4518C7.55576 33.4544 7.51621 33.4574 7.47656 33.4567C7.45298 33.4563 7.42968 33.4533 7.40625 33.4518C7.36657 33.4492 7.32719 33.4468 7.28809 33.4411C7.26807 33.4381 7.24835 33.434 7.22852 33.4303C7.18972 33.423 7.15124 33.4152 7.11328 33.4049C7.08489 33.3972 7.05713 33.3879 7.0293 33.3786C7.0017 33.3693 6.97425 33.3601 6.94727 33.3493C6.92015 33.3384 6.89361 33.3265 6.86719 33.3141C6.83667 33.2998 6.80684 33.2845 6.77734 33.2682C6.75212 33.2543 6.72752 33.2396 6.70312 33.2243C6.67646 33.2075 6.65059 33.1899 6.625 33.1715C6.60211 33.1551 6.57958 33.1384 6.55762 33.1208C6.52828 33.0971 6.50021 33.0723 6.47266 33.0465C6.45751 33.0324 6.4423 33.0184 6.42773 33.0036C6.39879 32.9742 6.37125 32.9436 6.34473 32.9118C6.33125 32.8956 6.3175 32.8797 6.30469 32.8629C6.28097 32.8319 6.2596 32.7993 6.23828 32.7663C6.22527 32.7461 6.21128 32.7266 6.19922 32.7057C6.17988 32.6723 6.16327 32.6374 6.14648 32.6022C6.1366 32.5815 6.12614 32.561 6.11719 32.5397C6.07075 32.4293 6.03733 32.3116 6.01855 32.1872C6.00729 32.1125 6.00002 32.0357 6 31.9567V20.9987C6.00001 20.9209 6.004 20.844 6.01172 20.7682C6.01916 20.6951 6.03065 20.6232 6.04492 20.5524C6.0477 20.5386 6.05166 20.5251 6.05469 20.5114C6.06643 20.4583 6.0793 20.4058 6.09473 20.3541C6.10321 20.3258 6.11349 20.2981 6.12305 20.2702C6.13625 20.2316 6.14984 20.1935 6.16504 20.1559C6.17436 20.1329 6.18428 20.1102 6.19434 20.0875C6.21343 20.0446 6.23323 20.0021 6.25488 19.9606C6.26568 19.9399 6.27667 19.9194 6.28809 19.8991C6.30974 19.8605 6.33263 19.8229 6.35645 19.7858C6.37056 19.7638 6.38456 19.7418 6.39941 19.7204C6.42421 19.6845 6.45076 19.6501 6.47754 19.6159C6.4934 19.5956 6.50886 19.575 6.52539 19.5553C6.61088 19.4533 6.70458 19.3585 6.80664 19.2731C6.82531 19.2575 6.84508 19.2432 6.86426 19.2282C6.90253 19.1982 6.94123 19.1688 6.98145 19.1413C6.99799 19.1299 7.01537 19.1199 7.03223 19.109C7.06758 19.0862 7.10297 19.0635 7.13965 19.0426C7.17038 19.0251 7.20178 19.0089 7.2334 18.9928C7.26362 18.9775 7.2942 18.9629 7.3252 18.9489C7.35426 18.9357 7.38338 18.9227 7.41309 18.9108C7.45096 18.8956 7.48946 18.882 7.52832 18.8688C7.55422 18.86 7.58013 18.8512 7.60645 18.8434C7.64757 18.8312 7.68937 18.8211 7.73145 18.8112C7.75874 18.8047 7.78581 18.7971 7.81348 18.7916C7.88106 18.7784 7.94993 18.7675 8.01953 18.7604L8.25 18.7487H28.6846C29.2654 18.7487 29.7031 19.0391 29.9521 19.4411C29.9843 19.4929 30.0124 19.547 30.0381 19.6022C30.075 19.6814 30.1066 19.7631 30.1299 19.8473C30.1428 19.894 30.1535 19.9413 30.1621 19.9889Z" fill="white"/>
</svg>
