<svg width="36" height="36" viewBox="0 0 36 36" fill="none" xmlns="http://www.w3.org/2000/svg">
<path d="M31.5327 21.781C31.9737 21.6049 32.4855 21.7878 32.7104 22.2175C32.9502 22.6764 32.7727 23.2433 32.314 23.4832L19.2056 30.3318C18.4766 30.7126 17.6073 30.7126 16.8784 30.3318L3.77002 23.4832L3.68799 23.4343C3.29123 23.1729 3.14875 22.6478 3.37354 22.2175C3.5984 21.7878 4.11032 21.605 4.55127 21.781L4.63916 21.8211L17.7466 28.6697C17.9315 28.7663 18.1525 28.7663 18.3374 28.6697L31.4458 21.8211L31.5327 21.781Z" fill="white"/>
<path d="M19.0122 13.033L9.79346 18.1541L5.32959 15.7195V17.7898L8.81689 19.6043L10.8042 20.5886L16.9175 23.9226V22.0388L11.3521 19.0037L15.8394 16.5105L22.562 20.1863L19.1675 22.0379V23.9207L25.2603 20.5984L27.2661 19.6043L30.7544 17.6287V15.7185L24.1265 19.3328L17.5991 15.7625L17.3911 15.6492L25.9507 10.8943L26.5845 10.5408L32.1489 13.5759C32.2121 13.6104 32.2673 13.6521 32.3159 13.698C32.7205 13.8684 33.0044 14.2686 33.0044 14.7351V18.3318C33.0044 18.7484 32.7774 19.111 32.4409 19.3054C32.3785 19.3828 32.2996 19.4513 32.2036 19.5037L18.7954 26.8152L18.6147 26.9002C18.2466 27.0438 17.8364 27.044 17.4683 26.9002L17.2876 26.8152L3.90967 19.5203C3.81506 19.4686 3.73815 19.4009 3.67627 19.325C3.32169 19.1356 3.07969 18.7628 3.07959 18.3328V14.7254C3.07975 14.2523 3.37193 13.8475 3.78564 13.6814C3.82977 13.6422 3.87875 13.6062 3.93408 13.5759L11.9819 9.18629L19.0122 13.033Z" fill="white"/>
<path d="M17.2876 6.29371C17.7575 6.03744 18.3254 6.03759 18.7954 6.29371L25.0259 9.69117L20.562 12.1707L20.1772 11.9597L13.5454 8.33375L17.2876 6.29371Z" fill="white"/>
</svg>
