<svg width="36" height="36" viewBox="0 0 36 36" fill="none" xmlns="http://www.w3.org/2000/svg">
<path fill-rule="evenodd" clip-rule="evenodd" d="M18 5C10.8203 5 5 10.8203 5 18C5 25.1797 10.8203 31 18 31C25.1797 31 31 25.1797 31 18C31 10.8203 25.1797 5 18 5ZM3 18C3 9.71573 9.71573 3 18 3C26.2843 3 33 9.71573 33 18C33 26.2843 26.2843 33 18 33C9.71573 33 3 26.2843 3 18Z" fill="white"/>
<path d="M24.0544 18C24.0544 21.3436 21.3439 24.0541 18.0003 24.0541C14.6568 24.0541 11.9463 21.3436 11.9463 18C11.9463 14.6564 14.6568 11.9459 18.0003 11.9459C21.3439 11.9459 24.0544 14.6564 24.0544 18Z" fill="white"/>
</svg>
