<svg width="36" height="36" viewBox="0 0 36 36" fill="none" xmlns="http://www.w3.org/2000/svg">
<path fill-rule="evenodd" clip-rule="evenodd" d="M3 18C3 9.71573 9.71573 3 18 3C26.2843 3 33 9.71573 33 18C33 26.2843 26.2843 33 18 33C9.71573 33 3 26.2843 3 18ZM13.918 5.91744C11.4399 6.75435 9.30299 8.33227 7.77095 10.3876L8.46456 13.7238L10.6615 14.4412L16.8669 9.93266L16.8704 7.6045L13.918 5.91744ZM7.5989 25.376C6.14582 23.3307 5.28091 20.8383 5.25081 18.1455L7.76425 15.862L9.97737 16.5847L12.3477 23.8797L10.9865 25.7473L7.5989 25.376ZM14.2005 30.1743C15.4006 30.5484 16.6768 30.75 18 30.75C19.3233 30.75 20.5995 30.5484 21.7996 30.1742L23.2008 27.0644L21.8452 25.1926H14.175L12.8037 27.0741L14.2005 30.1743ZM30.7492 18.1453C30.7191 20.8382 29.8542 23.3307 28.4011 25.376L25.0242 25.7462L23.6586 23.8606L26.0288 16.5656L28.2279 15.8547L30.7492 18.1453ZM28.2291 10.3876C26.697 8.33228 24.5601 6.75436 22.082 5.91744L19.1204 7.60979L19.1169 9.92092L25.3223 14.4294L27.5377 13.7132L28.2291 10.3876ZM12.1896 16.1121L14.409 22.9426H21.591L23.8104 16.1121L18 11.8906L12.1896 16.1121Z" fill="white"/>
</svg>
