<svg width="36" height="36" viewBox="0 0 36 36" fill="none" xmlns="http://www.w3.org/2000/svg">
<path fill-rule="evenodd" clip-rule="evenodd" d="M7.2668 4.5C7.27785 4.5 7.28892 4.5 7.3 4.5H11.9394C12.4917 4.5 12.9394 4.94772 12.9394 5.5C12.9394 6.05229 12.4917 6.5 11.9394 6.5H7.3C6.96847 6.5 6.77997 6.50078 6.64254 6.51201C6.59632 6.51579 6.56808 6.52004 6.55303 6.5228C6.5413 6.53107 6.53107 6.5413 6.5228 6.55303C6.52004 6.56808 6.51579 6.59632 6.51201 6.64254C6.50078 6.77997 6.5 6.96847 6.5 7.3V11.9394C6.5 12.4917 6.05229 12.9394 5.5 12.9394C4.94772 12.9394 4.5 12.4917 4.5 11.9394V7.3C4.5 7.28892 4.5 7.27785 4.5 7.2668C4.49997 6.98044 4.49995 6.70861 4.51865 6.47967C4.53903 6.23024 4.58651 5.94507 4.73162 5.66027C4.93535 5.26043 5.26043 4.93535 5.66027 4.73162C5.94507 4.58651 6.23024 4.53903 6.47967 4.51865C6.70861 4.49995 6.98044 4.49997 7.2668 4.5ZM29.3575 6.51201C29.22 6.50078 29.0315 6.5 28.7 6.5H24.0606C23.5083 6.5 23.0606 6.05229 23.0606 5.5C23.0606 4.94772 23.5083 4.5 24.0606 4.5L28.7332 4.5C29.0196 4.49997 29.2914 4.49995 29.5203 4.51865C29.7698 4.53903 30.0549 4.58651 30.3397 4.73162C30.7396 4.93535 31.0647 5.26043 31.2684 5.66027C31.4135 5.94507 31.461 6.23024 31.4814 6.47967C31.5001 6.7086 31.5 6.98043 31.5 7.26679L31.5 11.9394C31.5 12.4917 31.0523 12.9394 30.5 12.9394C29.9477 12.9394 29.5 12.4917 29.5 11.9394V7.3C29.5 6.96847 29.4992 6.77997 29.488 6.64254C29.4842 6.59633 29.48 6.56808 29.4772 6.55303C29.4689 6.54129 29.4587 6.53106 29.447 6.5228C29.4319 6.52004 29.4037 6.51579 29.3575 6.51201ZM5.5 23.0606C6.05229 23.0606 6.5 23.5083 6.5 24.0606V28.7C6.5 29.0315 6.50078 29.22 6.51201 29.3575C6.51579 29.4037 6.52004 29.4319 6.5228 29.447C6.53106 29.4587 6.54129 29.4689 6.55303 29.4772C6.56808 29.48 6.59633 29.4842 6.64254 29.488C6.77997 29.4992 6.96847 29.5 7.3 29.5H11.9394C12.4917 29.5 12.9394 29.9477 12.9394 30.5C12.9394 31.0523 12.4917 31.5 11.9394 31.5L7.26679 31.5C6.98043 31.5 6.7086 31.5001 6.47967 31.4814C6.23024 31.461 5.94507 31.4135 5.66027 31.2684C5.26043 31.0647 4.93535 30.7396 4.73162 30.3397C4.58651 30.0549 4.53903 29.7698 4.51865 29.5203C4.49995 29.2914 4.49997 29.0196 4.5 28.7332L4.5 24.0606C4.5 23.5083 4.94772 23.0606 5.5 23.0606ZM30.5 23.0606C31.0523 23.0606 31.5 23.5083 31.5 24.0606L31.5 28.7332C31.5 29.0196 31.5001 29.2914 31.4814 29.5203C31.461 29.7698 31.4135 30.0549 31.2684 30.3397C31.0647 30.7396 30.7396 31.0647 30.3397 31.2684C30.0549 31.4135 29.7698 31.461 29.5203 31.4814C29.2914 31.5001 29.0196 31.5 28.7332 31.5L24.0606 31.5C23.5083 31.5 23.0606 31.0523 23.0606 30.5C23.0606 29.9477 23.5083 29.5 24.0606 29.5H28.7C29.0315 29.5 29.22 29.4992 29.3575 29.488C29.4037 29.4842 29.4319 29.48 29.447 29.4772C29.4587 29.4689 29.4689 29.4587 29.4772 29.447C29.48 29.4319 29.4842 29.4037 29.488 29.3575C29.4992 29.22 29.5 29.0315 29.5 28.7V24.0606C29.5 23.5083 29.9477 23.0606 30.5 23.0606Z" fill="white"/>
</svg>
