<svg width="36" height="36" viewBox="0 0 36 36" fill="none" xmlns="http://www.w3.org/2000/svg">
<path fill-rule="evenodd" clip-rule="evenodd" d="M11.9394 4.5C12.4917 4.5 12.9394 4.94772 12.9394 5.5L12.9394 10.1726C12.9394 10.459 12.9395 10.7308 12.9207 10.9597C12.9004 11.2092 12.8529 11.4943 12.7078 11.7791C12.5041 12.179 12.179 12.5041 11.7791 12.7078C11.4943 12.8529 11.2092 12.9004 10.9597 12.9207C10.7308 12.9395 10.459 12.9394 10.1726 12.9394L5.5 12.9394C4.94772 12.9394 4.5 12.4917 4.5 11.9394C4.5 11.3871 4.94772 10.9394 5.5 10.9394H10.1394C10.4709 10.9394 10.6594 10.9386 10.7969 10.9274C10.8431 10.9236 10.8713 10.9194 10.8864 10.9166C10.8981 10.9083 10.9083 10.8981 10.9166 10.8864C10.9194 10.8713 10.9236 10.8431 10.9274 10.7969C10.9386 10.6594 10.9394 10.4709 10.9394 10.1394V5.5C10.9394 4.94772 11.3871 4.5 11.9394 4.5ZM24.0606 4.5C24.6129 4.5 25.0606 4.94772 25.0606 5.5V10.1394C25.0606 10.4709 25.0614 10.6594 25.0726 10.7969C25.0764 10.8431 25.0806 10.8713 25.0834 10.8864C25.0917 10.8981 25.1019 10.9083 25.1136 10.9166C25.1287 10.9194 25.1569 10.9236 25.2031 10.9274C25.3406 10.9386 25.5291 10.9394 25.8606 10.9394H30.5C31.0523 10.9394 31.5 11.3871 31.5 11.9394C31.5 12.4917 31.0523 12.9394 30.5 12.9394L25.8274 12.9394C25.541 12.9394 25.2692 12.9395 25.0403 12.9207C24.7908 12.9004 24.5057 12.8529 24.2209 12.7078C23.821 12.5041 23.4959 12.179 23.2922 11.7791C23.1471 11.4943 23.0996 11.2092 23.0793 10.9597C23.0605 10.7308 23.0606 10.459 23.0606 10.1726L23.0606 5.5C23.0606 4.94772 23.5083 4.5 24.0606 4.5ZM10.7969 25.0726C10.6594 25.0614 10.4709 25.0606 10.1394 25.0606H5.5C4.94772 25.0606 4.5 24.6129 4.5 24.0606C4.5 23.5083 4.94772 23.0606 5.5 23.0606L10.1726 23.0606C10.459 23.0606 10.7308 23.0605 10.9597 23.0793C11.2092 23.0996 11.4943 23.1471 11.7791 23.2922C12.179 23.4959 12.5041 23.821 12.7078 24.2209C12.8529 24.5057 12.9004 24.7908 12.9207 25.0403C12.9395 25.2692 12.9394 25.541 12.9394 25.8274L12.9394 30.5C12.9394 31.0523 12.4917 31.5 11.9394 31.5C11.3871 31.5 10.9394 31.0523 10.9394 30.5V25.8606C10.9394 25.5291 10.9386 25.3406 10.9274 25.2031C10.9236 25.1569 10.9194 25.1287 10.9166 25.1136C10.9083 25.1019 10.8981 25.0917 10.8864 25.0834C10.8713 25.0806 10.8431 25.0764 10.7969 25.0726ZM25.8274 23.0606L30.5 23.0606C31.0523 23.0606 31.5 23.5083 31.5 24.0606C31.5 24.6129 31.0523 25.0606 30.5 25.0606H25.8606C25.5291 25.0606 25.3406 25.0614 25.2031 25.0726C25.1569 25.0764 25.1287 25.0806 25.1136 25.0834C25.1019 25.0917 25.0917 25.1019 25.0834 25.1136C25.0806 25.1287 25.0764 25.1569 25.0726 25.2031C25.0614 25.3406 25.0606 25.5291 25.0606 25.8606V30.5C25.0606 31.0523 24.6129 31.5 24.0606 31.5C23.5083 31.5 23.0606 31.0523 23.0606 30.5L23.0606 25.8274C23.0606 25.541 23.0605 25.2692 23.0793 25.0403C23.0996 24.7908 23.1471 24.5057 23.2922 24.2209C23.4959 23.821 23.821 23.4959 24.2209 23.2922C24.5057 23.1471 24.7908 23.0996 25.0403 23.0793C25.2692 23.0605 25.541 23.0606 25.8274 23.0606Z" fill="white"/>
</svg>
