<svg width="36" height="36" viewBox="0 0 36 36" fill="none" xmlns="http://www.w3.org/2000/svg">
<path d="M15.0311 7.47773C15.455 4.6175 18.629 3.15087 21.0536 4.69452L22.243 5.45136C22.7084 5.748 22.8505 6.36963 22.5614 6.84003C22.272 7.31014 21.6608 7.4517 21.1952 7.15546L20.0067 6.39765C18.7944 5.62573 17.2069 6.36003 16.995 7.79023L15.5252 17.7121H19.4833C20.0355 17.7121 20.4833 18.1598 20.4833 18.7121C20.4831 19.2643 20.0355 19.7121 19.4833 19.7121H15.2294L13.9266 28.5109C13.5368 31.143 10.7789 32.657 8.38072 31.5549L6.48814 30.6848C5.98792 30.4545 5.76293 29.8579 5.98619 29.3517C6.20972 28.8457 6.79628 28.6222 7.29673 28.8517L9.19029 29.7209C10.3893 30.2719 11.7687 29.5153 11.9637 28.1994L13.2206 19.7121H9.95201C9.39981 19.7121 8.95214 19.2643 8.95201 18.7121C8.95201 18.1598 9.39972 17.7121 9.95201 17.7121H13.5165L15.0311 7.47773Z" fill="white"/>
<path d="M27.5243 20.2004C27.8373 19.7455 28.4553 19.6369 28.9051 19.9572C29.3549 20.2776 29.4661 20.9056 29.1532 21.3605L26.4481 25.2912L29.8309 30.2062C30.1437 30.6612 30.0326 31.2902 29.5829 31.6105C29.1332 31.9307 28.5151 31.821 28.202 31.3664L25.2342 27.0539L22.2674 31.3664C21.9543 31.8211 21.3353 31.9309 20.8856 31.6105C20.4359 31.2901 20.3257 30.6612 20.6385 30.2062L24.0204 25.2912L21.3153 21.3605C21.0026 20.9057 21.1138 20.2776 21.5633 19.9572C22.0131 19.6368 22.6311 19.7456 22.9442 20.2004L25.2342 23.5275L27.5243 20.2004Z" fill="white"/>
</svg>
