<svg width="36" height="36" viewBox="0 0 36 36" fill="none" xmlns="http://www.w3.org/2000/svg">
<path d="M13.1116 12.6641C13.1116 12.0427 12.6079 11.5391 11.9866 11.5391C11.3653 11.5391 10.8616 12.0427 10.8616 12.6641V14.9453H8.6058C7.98448 14.9453 7.4808 15.449 7.4808 16.0703C7.4808 16.6916 7.98448 17.1953 8.6058 17.1953H10.8616V19.4762C10.8616 20.0975 11.3653 20.6012 11.9866 20.6012C12.6079 20.6012 13.1116 20.0975 13.1116 19.4762V17.1953H15.3674C15.9887 17.1953 16.4924 16.6916 16.4924 16.0703C16.4924 15.449 15.9887 14.9453 15.3674 14.9453H13.1116V12.6641Z" fill="white"/>
<path d="M24.0076 14.5559C23.1779 14.5559 22.5053 13.8782 22.5053 13.0421C22.5053 12.2061 23.1779 11.5283 24.0076 11.5283C24.8372 11.5283 25.5098 12.2061 25.5098 13.0421C25.5098 13.8782 24.8372 14.5559 24.0076 14.5559Z" fill="white"/>
<path d="M22.504 16.0695C22.504 16.9055 21.8314 17.5833 21.0017 17.5833C20.1721 17.5833 19.4995 16.9055 19.4995 16.0695C19.4995 15.2334 20.1721 14.5557 21.0017 14.5557C21.8314 14.5557 22.504 15.2334 22.504 16.0695Z" fill="white"/>
<path d="M27.0121 17.5833C27.8417 17.5833 28.5143 16.9055 28.5143 16.0695C28.5143 15.2334 27.8417 14.5557 27.0121 14.5557C26.1824 14.5557 25.5098 15.2334 25.5098 16.0695C25.5098 16.9055 26.1824 17.5833 27.0121 17.5833Z" fill="white"/>
<path d="M24.0076 20.6116C23.1779 20.6116 22.5053 19.9338 22.5053 19.0978C22.5053 18.2617 23.1779 17.584 24.0076 17.584C24.8372 17.584 25.5098 18.2617 25.5098 19.0978C25.5098 19.9338 24.8372 20.6116 24.0076 20.6116Z" fill="white"/>
<path fill-rule="evenodd" clip-rule="evenodd" d="M14.2981 7.5H21.6958C23.1432 7.49999 24.2866 7.49999 25.2149 7.5712C26.1643 7.64404 26.9634 7.79531 27.7088 8.13718C28.9332 8.69866 29.9695 9.60145 30.6936 10.7372C31.1344 11.4288 31.3938 12.1996 31.5961 13.1301C31.7939 14.0398 31.9507 15.1723 32.1491 16.606L32.9458 22.3624C33.3947 25.6058 30.875 28.4984 27.6006 28.4984C25.9769 28.4984 24.4395 27.7673 23.4147 26.5077L22.6852 25.611C22.0856 24.874 21.8818 24.6332 21.6524 24.4558C21.3403 24.2145 20.9799 24.0431 20.5958 23.9533C20.3134 23.8873 19.998 23.8812 19.0479 23.8812H16.9461C15.996 23.8812 15.6806 23.8873 15.3982 23.9533C15.014 24.0431 14.6537 24.2145 14.3416 24.4558C14.1122 24.6332 13.9084 24.874 13.3087 25.611L12.5792 26.5077C11.5545 27.7673 10.0171 28.4984 8.39336 28.4984C5.11899 28.4984 2.59921 25.6058 3.04813 22.3624L3.84484 16.6061C4.04327 15.1724 4.20003 14.0398 4.39783 13.1301C4.60015 12.1996 4.85954 11.4288 5.30039 10.7372C6.02442 9.60145 7.06077 8.69866 8.28511 8.13718C9.03058 7.79531 9.82963 7.64404 10.7791 7.5712C11.7073 7.49999 12.8508 7.49999 14.2981 7.5ZM10.9321 9.56534C10.1017 9.62904 9.56427 9.75084 9.11881 9.95513C8.24428 10.3562 7.50403 11.001 6.98687 11.8123C6.72344 12.2256 6.5291 12.7412 6.35216 13.555C6.17256 14.381 6.02562 15.4377 5.82033 16.9209L5.02924 22.6366C4.74671 24.6779 6.33258 26.4984 8.39336 26.4984C9.41528 26.4984 10.3829 26.0382 11.0278 25.2455L11.8269 24.2633C12.3295 23.6451 12.6833 23.21 13.118 22.8737C13.6571 22.4569 14.2795 22.1608 14.9431 22.0058C15.4783 21.8807 16.0391 21.8809 16.8358 21.8812H19.1581C19.9548 21.8809 20.5157 21.8807 21.0508 22.0058C21.7144 22.1608 22.3368 22.4569 22.8759 22.8737C23.3106 23.2099 23.6644 23.6451 24.167 24.2632L24.9661 25.2455C25.6111 26.0382 26.5787 26.4984 27.6006 26.4984C29.6614 26.4984 31.2472 24.6779 30.9647 22.6366L30.1736 16.9209C29.9683 15.4377 29.8214 14.381 29.6418 13.555C29.4648 12.7412 29.2705 12.2256 29.0071 11.8123C28.4899 11.001 27.7497 10.3562 26.8751 9.95513C26.4297 9.75084 25.8922 9.62904 25.0619 9.56534C24.2191 9.50068 23.1522 9.5 21.6548 9.5H14.3391C12.8418 9.5 11.7749 9.50068 10.9321 9.56534Z" fill="white"/>
</svg>
