<svg width="36" height="36" viewBox="0 0 36 36" fill="none" xmlns="http://www.w3.org/2000/svg">
<path d="M18 30.1875C18.7767 30.1875 19.4062 30.8171 19.4062 31.5938C19.4062 32.3704 18.7767 33 18 33C17.2233 33 16.5938 32.3704 16.5938 31.5938C16.5938 30.8171 17.2233 30.1875 18 30.1875Z" fill="white"/>
<path d="M8.15625 26.4375C8.9329 26.4375 9.5625 27.0671 9.5625 27.8438C9.5625 28.6204 8.9329 29.25 8.15625 29.25C7.3796 29.25 6.75 28.6204 6.75 27.8438C6.75 27.0671 7.3796 26.4375 8.15625 26.4375Z" fill="white"/>
<path d="M27.8438 26.4375C28.6204 26.4375 29.25 27.0671 29.25 27.8438C29.25 28.6204 28.6204 29.25 27.8438 29.25C27.0671 29.25 26.4375 28.6204 26.4375 27.8438C26.4375 27.0671 27.0671 26.4375 27.8438 26.4375Z" fill="white"/>
<path d="M14.7188 23.625C16.0132 23.625 17.0625 24.6743 17.0625 25.9688C17.0625 27.2632 16.0132 28.3125 14.7188 28.3125C13.4243 28.3125 12.375 27.2632 12.375 25.9688C12.375 24.6743 13.4243 23.625 14.7188 23.625Z" fill="white"/>
<path d="M21.2812 23.625C22.5757 23.625 23.625 24.6743 23.625 25.9688C23.625 27.2632 22.5757 28.3125 21.2812 28.3125C19.9868 28.3125 18.9375 27.2632 18.9375 25.9688C18.9375 24.6743 19.9868 23.625 21.2812 23.625Z" fill="white"/>
<path d="M10.0312 18.9375C11.3257 18.9375 12.375 19.9868 12.375 21.2812C12.375 22.5757 11.3257 23.625 10.0312 23.625C8.73683 23.625 7.6875 22.5757 7.6875 21.2812C7.6875 19.9868 8.73683 18.9375 10.0312 18.9375Z" fill="white"/>
<path d="M25.9688 18.9375C27.2632 18.9375 28.3125 19.9868 28.3125 21.2812C28.3125 22.5757 27.2632 23.625 25.9688 23.625C24.6743 23.625 23.625 22.5757 23.625 21.2812C23.625 19.9868 24.6743 18.9375 25.9688 18.9375Z" fill="white"/>
<path d="M18 13.3125C20.5888 13.3125 22.6875 15.4112 22.6875 18C22.6875 20.5888 20.5888 22.6875 18 22.6875C15.4112 22.6875 13.3125 20.5888 13.3125 18C13.3125 15.4112 15.4112 13.3125 18 13.3125Z" fill="white"/>
<path d="M4.40625 16.5938C5.1829 16.5938 5.8125 17.2233 5.8125 18C5.8125 18.7767 5.1829 19.4062 4.40625 19.4062C3.6296 19.4062 3 18.7767 3 18C3 17.2233 3.6296 16.5938 4.40625 16.5938Z" fill="white"/>
<path d="M31.5938 16.5938C32.3704 16.5938 33 17.2233 33 18C33 18.7767 32.3704 19.4062 31.5938 19.4062C30.8171 19.4062 30.1875 18.7767 30.1875 18C30.1875 17.2233 30.8171 16.5938 31.5938 16.5938Z" fill="white"/>
<path d="M10.0312 12.375C11.3257 12.375 12.375 13.4243 12.375 14.7188C12.375 16.0132 11.3257 17.0625 10.0312 17.0625C8.73683 17.0625 7.6875 16.0132 7.6875 14.7188C7.6875 13.4243 8.73683 12.375 10.0312 12.375Z" fill="white"/>
<path d="M25.9688 12.375C27.2632 12.375 28.3125 13.4243 28.3125 14.7188C28.3125 16.0132 27.2632 17.0625 25.9688 17.0625C24.6743 17.0625 23.625 16.0132 23.625 14.7188C23.625 13.4243 24.6743 12.375 25.9688 12.375Z" fill="white"/>
<path d="M14.7188 7.6875C16.0132 7.6875 17.0625 8.73683 17.0625 10.0312C17.0625 11.3257 16.0132 12.375 14.7188 12.375C13.4243 12.375 12.375 11.3257 12.375 10.0312C12.375 8.73683 13.4243 7.6875 14.7188 7.6875Z" fill="white"/>
<path d="M21.2812 7.6875C22.5757 7.6875 23.625 8.73683 23.625 10.0312C23.625 11.3257 22.5757 12.375 21.2812 12.375C19.9868 12.375 18.9375 11.3257 18.9375 10.0312C18.9375 8.73683 19.9868 7.6875 21.2812 7.6875Z" fill="white"/>
<path d="M8.15625 6.75C8.9329 6.75 9.5625 7.3796 9.5625 8.15625C9.5625 8.9329 8.9329 9.5625 8.15625 9.5625C7.3796 9.5625 6.75 8.9329 6.75 8.15625C6.75 7.3796 7.3796 6.75 8.15625 6.75Z" fill="white"/>
<path d="M27.8438 6.75C28.6204 6.75 29.25 7.3796 29.25 8.15625C29.25 8.9329 28.6204 9.5625 27.8438 9.5625C27.0671 9.5625 26.4375 8.9329 26.4375 8.15625C26.4375 7.3796 27.0671 6.75 27.8438 6.75Z" fill="white"/>
<path d="M18 3C18.7767 3 19.4062 3.6296 19.4062 4.40625C19.4062 5.1829 18.7767 5.8125 18 5.8125C17.2233 5.8125 16.5938 5.1829 16.5938 4.40625C16.5938 3.6296 17.2233 3 18 3Z" fill="white"/>
</svg>
