<svg width="36" height="36" viewBox="0 0 36 36" fill="none" xmlns="http://www.w3.org/2000/svg">
<path fill-rule="evenodd" clip-rule="evenodd" d="M10.0795 4.10517C11.5544 2.63161 13.9456 2.63161 15.4205 4.10517L18 6.68239L20.5795 4.10517C22.0544 2.63161 24.4456 2.63161 25.9205 4.10517C27.3954 5.57874 27.3954 7.96786 25.9205 9.44142L24.841 10.52H29.625C30.6605 10.52 31.5 11.3587 31.5 12.3933V17.2627H19.125V10.52H21.659L24.3295 7.85185C24.9257 7.25618 24.9257 6.29042 24.3295 5.69475C23.7333 5.09909 22.7667 5.09909 22.1705 5.69475L19.125 8.73754V10.52L16.875 10.5197V8.73754L13.8295 5.69475C13.2333 5.09909 12.2667 5.09909 11.6705 5.69475C11.0743 6.29042 11.0743 7.25618 11.6705 7.85185L14.341 10.52L16.875 10.5197V17.2627H4.5V12.3933C4.5 11.3587 5.33947 10.52 6.375 10.52H11.159L10.0795 9.44142C8.60463 7.96786 8.60463 5.57874 10.0795 4.10517ZM6 19.5127V28.1293C6 30.8193 8.18261 33 10.875 33H16.875V19.5127H6ZM19.125 33H25.125C27.8174 33 30 30.8193 30 28.1293V19.5127H19.125V33Z" fill="white"/>
</svg>
