<svg width="36" height="36" viewBox="0 0 36 36" fill="none" xmlns="http://www.w3.org/2000/svg">
<path d="M28.5098 15.0088C28.7852 15.9688 28.9326 16.9829 28.9326 18.0312C28.9324 24.0742 24.0342 28.9745 17.9912 28.9746C15.4489 28.9746 13.1086 28.1073 11.251 26.6523C11.6063 26.6843 11.9807 26.7002 12.3867 26.7002C12.7282 26.7002 13.0931 26.6886 13.4854 26.666C15.8018 26.4966 18.1963 25.807 20.4102 24.6719C22.6485 23.5244 24.5997 21.9722 26.0557 20.1787C26.999 18.9842 28.1304 17.1491 28.4512 14.9248C28.4708 14.9519 28.4902 14.9808 28.5098 15.0088Z" fill="white"/>
<path d="M19.5566 6.46582C20.3278 6.46584 21.086 6.53038 21.8252 6.66016C19.0694 6.91599 16.2286 8.12993 13.373 10.2715C13.252 10.3617 13.1734 10.5012 13.1592 10.6514C13.1443 10.8016 13.1945 10.9537 13.2959 11.0664C14.2279 12.0934 15.1592 13.2172 16.2285 14.6016C16.4061 14.8327 16.7319 14.8806 16.9707 14.7109C19.1245 13.1675 20.9932 12.025 22.8027 11.1475C22.7228 12.0758 21.4806 13.5132 20.1826 14.5996C18.1087 16.2972 15.6114 18.0624 12.8105 18.2881L12.7021 18.2979C12.2904 18.3166 11.8473 18.2689 11.3867 18.1543C10.2788 17.8703 9.30205 16.904 8.90039 15.6982C8.73111 15.1594 8.70791 14.5415 8.83105 13.8682C9.04741 12.7613 9.60865 11.6324 10.4531 10.6035L10.4658 10.5889C12.4194 8.00791 15.8178 6.46582 19.5566 6.46582Z" fill="white"/>
<path fill-rule="evenodd" clip-rule="evenodd" d="M18 3C26.2837 3 33 9.71518 33 18C33 26.2848 26.2837 33 18 33C9.71623 33 3 26.2838 3 18C3 9.71623 9.71623 3 18 3ZM18 5.30762C10.9907 5.30762 5.30762 10.9907 5.30762 18C5.30762 24.7901 10.6411 30.3356 17.3467 30.6758L18 30.6924C25.0093 30.6924 30.6924 25.0102 30.6924 18C30.6924 10.9898 25.0093 5.30762 18 5.30762Z" fill="white"/>
</svg>
