<svg width="36" height="36" viewBox="0 0 36 36" fill="none" xmlns="http://www.w3.org/2000/svg">
<path d="M25.0194 4.50801C25.1323 4.164 25.619 4.164 25.7319 4.508L26.5088 6.87374C26.9547 8.23152 28.019 9.2968 29.3764 9.74391L31.7378 10.5217C32.0814 10.6349 32.0814 11.1209 31.7378 11.2341L29.3764 12.0119C28.019 12.459 26.9547 13.5243 26.5088 14.8821L25.7319 17.2478C25.619 17.5918 25.1323 17.5918 25.0194 17.2478L24.2425 14.8821C23.7967 13.5243 22.7323 12.459 21.375 12.0119L19.0135 11.2341C18.67 11.1209 18.67 10.6349 19.0135 10.5217L21.375 9.74391C22.7323 9.2968 23.7967 8.23153 24.2425 6.87374L25.0194 4.50801Z" fill="white"/>
<path d="M15.3544 22.7384C11.5735 22.2247 8.73918 18.8399 9.01907 14.9155L9.58132 7.03182C9.5934 6.86187 9.60662 6.67584 9.63097 6.51489C9.65873 6.33136 9.71194 6.0928 9.85123 5.84982C10.0379 5.52423 10.3183 5.26268 10.6559 5.09943C10.9078 4.9776 11.1492 4.94143 11.334 4.92678C11.496 4.91392 11.6822 4.91397 11.8523 4.91401H20.8568C21.027 4.91397 21.2132 4.91392 21.3752 4.92678C21.56 4.94143 21.8013 4.9776 22.0533 5.09943C22.1781 5.15978 22.295 5.23356 22.4024 5.31905L22.117 6.18812C21.8954 6.86282 21.367 7.39202 20.6934 7.61392L18.3096 8.39908C15.9212 9.18579 15.9212 12.5696 18.3096 13.3563L20.6934 14.1415C21.367 14.3633 21.8954 14.8925 22.117 15.5673L22.901 17.9546C22.9415 18.078 22.9958 18.2043 23.0626 18.3326H23.1204C22.1264 20.6589 19.9663 22.3837 17.3544 22.7384V28.8115C20.167 29.0496 22.3092 30.2753 22.3092 31.7516H10.3997C10.3997 30.2753 12.5418 29.0496 15.3544 28.8115V22.7384Z" fill="white"/>
</svg>
