<svg width="36" height="36" viewBox="0 0 36 36" fill="none" xmlns="http://www.w3.org/2000/svg">
<path fill-rule="evenodd" clip-rule="evenodd" d="M7.2543 4.5C7.08123 4.49997 6.89832 4.49993 6.74024 4.51245C6.5617 4.52659 6.33581 4.561 6.10163 4.67405C5.78422 4.82728 5.52048 5.07279 5.34494 5.37843C5.21543 5.60392 5.16496 5.82678 5.13809 6.00384C5.1143 6.16062 5.10125 6.34306 5.08891 6.5157L4.51917 14.4622C4.2389 18.3711 7.06548 21.7432 10.837 22.2559V28.5224C7.9712 28.7598 5.78637 30.0005 5.78637 31.4954H17.8877C17.8877 30.0005 15.7029 28.7598 12.837 28.5224V22.2558C16.6083 21.7429 19.4347 18.371 19.1544 14.4622L18.5847 6.5157C18.5724 6.34308 18.5593 6.16061 18.5355 6.00384C18.5086 5.82678 18.4582 5.60392 18.3287 5.37843C18.1531 5.07279 17.8894 4.82728 17.572 4.67405C17.3378 4.561 17.1119 4.52659 16.9334 4.51245C16.7753 4.49993 16.5924 4.49997 16.4193 4.5H7.2543ZM7.08186 6.68571C7.08702 6.61369 7.09136 6.55339 7.09554 6.50041C7.14869 6.50002 7.20915 6.50001 7.28135 6.50001H16.3923C16.4645 6.50001 16.5249 6.50002 16.5781 6.50041C16.5823 6.55339 16.5866 6.61369 16.5918 6.6857L17.1596 14.6052C17.3811 17.6948 14.9343 20.3233 11.8368 20.3233C8.73928 20.3233 6.29253 17.6948 6.51404 14.6052L7.08186 6.68571Z" fill="white"/>
<path fill-rule="evenodd" clip-rule="evenodd" d="M24.7317 7.51396C24.5467 7.51392 24.3528 7.51388 24.1862 7.5275C23.9993 7.54277 23.7604 7.58003 23.5157 7.7047C23.1864 7.87248 22.9187 8.14019 22.7509 8.46948C22.6263 8.71416 22.589 8.95303 22.5737 9.13993C22.5601 9.3066 22.5602 9.50045 22.5602 9.68551L22.5602 20.9337C22.5602 23.0217 24.0135 24.7703 25.9637 25.2232V28.5548C23.9386 28.8573 22.4257 30.059 22.4257 31.4954H31.5017C31.5017 30.059 29.9889 28.8573 27.9637 28.5548V25.2232C29.9139 24.7703 31.3672 23.0217 31.3672 20.9337L31.3672 9.6855C31.3672 9.50045 31.3673 9.3066 31.3537 9.13993C31.3384 8.95303 31.3011 8.71416 31.1765 8.46948C31.0087 8.14019 30.741 7.87248 30.4117 7.7047C30.167 7.58003 29.9281 7.54277 29.7412 7.5275C29.5746 7.51388 29.3807 7.51392 29.1957 7.51396H24.7317ZM24.5602 9.71396C24.5602 9.63652 24.5602 9.57156 24.5606 9.51441C24.6178 9.51397 24.6828 9.51396 24.7602 9.51396H29.1672C29.2446 9.51396 29.3096 9.51397 29.3668 9.51441C29.3672 9.57156 29.3672 9.63652 29.3672 9.71396V20.9337C29.3672 22.2611 28.2911 23.3372 26.9637 23.3372C25.6363 23.3372 24.5602 22.2611 24.5602 20.9337V9.71396Z" fill="white"/>
</svg>
