<svg width="36" height="36" viewBox="0 0 36 36" fill="none" xmlns="http://www.w3.org/2000/svg">
<path d="M25.6986 4.50741C25.5853 4.1642 25.0998 4.1642 24.9865 4.50741L24.203 6.87986C23.7548 8.23689 22.6888 9.30038 21.3306 9.7452L18.9465 10.5261C18.6022 10.6388 18.6022 11.126 18.9465 11.2388L21.3306 12.0197C22.6888 12.4645 23.7548 13.528 24.203 14.885L24.9865 17.2574C25.0998 17.6007 25.5853 17.6007 25.6986 17.2574L26.4821 14.885C26.9303 13.528 27.9964 12.4645 29.3545 12.0197L31.7386 11.2388C32.083 11.126 32.083 10.6388 31.7386 10.5261L29.3545 9.7452C27.9964 9.30038 26.9303 8.23689 26.4821 6.87986L25.6986 4.50741Z" fill="white"/>
<path d="M11.747 5.03779C11.5743 5.03776 11.3918 5.03772 11.2341 5.05016C11.0561 5.0642 10.8308 5.09836 10.5971 5.21073C10.2803 5.36308 10.0164 5.6075 9.84049 5.91261C9.71058 6.13796 9.66001 6.36072 9.63313 6.53741C9.60936 6.69366 9.59636 6.87539 9.5841 7.04684L9.01889 14.9272C8.74199 18.7879 11.5421 22.1116 15.2721 22.6219V28.8117C12.4414 29.0487 10.2848 30.2747 10.2848 31.7516H22.2594C22.2594 30.2747 20.1028 29.0487 17.2721 28.8117V22.6219C20.2892 22.2094 22.6951 19.957 23.3606 17.0696C23.4846 16.5315 23.1489 15.9946 22.6108 15.8706C22.0726 15.7466 21.5357 16.0823 21.4117 16.6205C20.8783 18.9348 18.7938 20.6897 16.2721 20.6897C13.2085 20.6897 10.7963 18.1026 11.0138 15.0703L11.577 7.2169C11.582 7.14773 11.5862 7.08948 11.5902 7.03818C11.6429 7.03781 11.7027 7.0378 11.774 7.0378H21.8852C22.4375 7.0378 22.8852 6.59008 22.8852 6.0378C22.8852 5.48551 22.4375 5.0378 21.8852 5.0378L11.747 5.03779Z" fill="white"/>
</svg>
