<svg width="36" height="36" viewBox="0 0 36 36" fill="none" xmlns="http://www.w3.org/2000/svg">
<path fill-rule="evenodd" clip-rule="evenodd" d="M13.0707 8.50004C13.1053 8.50006 13.1404 8.50008 13.176 8.50008H13.4999C14.1212 8.50008 14.6249 9.00046 14.6249 9.61772C14.6249 10.235 14.1212 10.7354 13.4999 10.7354H13.176C12.4127 10.7354 12.2089 10.7421 12.0282 10.784C11.842 10.8271 11.6635 10.8982 11.499 10.9949C11.3393 11.0888 11.1873 11.2238 10.6357 11.748L6.09345 16.0644C6.91717 15.9957 7.88254 15.951 8.99995 15.951C11.4466 15.951 13.2247 16.5609 14.4136 17.2051C15.0049 17.5255 15.4441 17.8509 15.7438 18.1061C15.7762 18.1337 15.8069 18.1605 15.8361 18.1863H20.1637C20.1929 18.1605 20.2236 18.1337 20.256 18.1061C20.5557 17.8509 20.9949 17.5255 21.5862 17.2051C22.7751 16.5609 24.5532 15.951 26.9998 15.951C28.1173 15.951 29.0826 15.9957 29.9064 16.0644L25.3641 11.748C24.8125 11.2238 24.6605 11.0888 24.5008 10.9949C24.3363 10.8982 24.1578 10.8271 23.9716 10.784C23.7909 10.7421 23.5871 10.7354 22.8238 10.7354H22.4999C21.8786 10.7354 21.3749 10.235 21.3749 9.61772C21.3749 9.00046 21.8786 8.50008 22.4999 8.50008H22.8238C22.8594 8.50008 22.8945 8.50006 22.9291 8.50004C23.5381 8.4997 24.0176 8.49943 24.4823 8.60702C24.8919 8.70184 25.2845 8.85834 25.6464 9.07108C26.0571 9.31246 26.4034 9.64189 26.8432 10.0604C26.8683 10.0842 26.8936 10.1083 26.9193 10.1327L34.1524 17.0061C34.3743 17.2169 34.4998 17.5087 34.4998 17.8138V18.9314C34.4998 19.005 34.4925 19.0784 34.478 19.1506L33.8046 22.4956C33.7073 22.979 33.6407 23.3101 33.546 23.606C32.8723 25.7096 31.0152 27.2221 28.8067 27.4658C28.4961 27.5001 28.1563 27.5001 27.66 27.5H27.4993C26.6896 27.5001 26.1745 27.5001 25.7258 27.4434C22.5037 27.0362 19.9667 24.5158 19.5568 21.3148C19.5235 21.0545 19.5097 20.7719 19.5039 20.4216H16.4959C16.4901 20.7719 16.4763 21.0545 16.443 21.3148C16.0331 24.5158 13.4961 27.0362 10.274 27.4434C9.82526 27.5001 9.3102 27.5001 8.50045 27.5H8.33981C7.84352 27.5001 7.50374 27.5001 7.19309 27.4658C4.9846 27.2221 3.12752 25.7096 2.45385 23.606C2.35909 23.3101 2.2925 22.9791 2.19524 22.4956C2.19082 22.4736 2.18634 22.4514 2.18179 22.4288L1.52185 19.1506C1.50732 19.0784 1.5 19.005 1.5 18.9314V17.8138C1.5 17.5087 1.62549 17.2169 1.84737 17.0061L9.08049 10.1327C9.10617 10.1083 9.13152 10.0842 9.15656 10.0603C9.59641 9.64189 9.94269 9.31245 10.3534 9.07108C10.7153 8.85834 11.1079 8.70184 11.5175 8.60702C11.9822 8.49943 12.4617 8.4997 13.0707 8.50004Z" fill="white"/>
</svg>
