<svg width="36" height="36" viewBox="0 0 36 36" fill="none" xmlns="http://www.w3.org/2000/svg">
<path fill-rule="evenodd" clip-rule="evenodd" d="M3.8 13.13C5.82 7.23 11.41 3 18 3C22.22 3 26.04 4.74 28.77 7.56L30.79 5.54C31.18 5.14 31.81 5.14 32.2 5.54C32.6 5.93 32.6 6.56 32.2 6.95L30.07 9.09L28.63 10.52L26.7 12.45L24.7 14.45L24.4 14.76L22.61 16.55L17.62 21.53L15.62 23.53L14.57 24.58L13.04 26.12L10.52 28.63L9.09 30.07L7.2 31.95C6.81 32.35 6.18 32.35 5.79 31.95C5.39 31.56 5.39 30.93 5.79 30.54L7.56 28.77C5.88 27.14 4.58 25.12 3.8 22.86C3.28 21.33 3 19.7 3 17.99C3 16.29 3.28 14.66 3.8 13.13ZM8.97 27.35L12.27 24.05C12.22 23.88 12.16 23.71 12.11 23.53H6.23C6.91 24.97 7.84 26.26 8.97 27.35ZM14.79 21.53L21.87 14.45H13.68C13.45 15.57 13.32 16.75 13.32 17.99C13.32 19.24 13.45 20.42 13.68 21.53H14.79ZM23.87 12.45L27.35 8.97C25.49 7.04 23.04 5.68 20.28 5.2C20.72 5.79 21.21 6.52 21.7 7.37C22.5 8.76 23.3 10.47 23.87 12.45ZM6.23 12.45H12.11C12.68 10.48 13.49 8.76 14.29 7.37C14.78 6.52 15.27 5.79 15.71 5.2C11.5 5.94 8 8.71 6.23 12.45ZM18 5.51C17.96 5.55 17.92 5.59 17.89 5.64C17.38 6.27 16.7 7.2 16.02 8.37C15.36 9.52 14.71 10.89 14.2 12.45H21.78C21.28 10.89 20.63 9.52 19.97 8.37C19.29 7.2 18.61 6.27 18.1 5.64C18.07 5.59 18.03 5.55 18 5.51ZM10.82 31.17C12.95 32.33 15.39 32.99 18 32.99C24.58 32.99 30.17 28.75 32.19 22.86C32.71 21.33 32.99 19.7 32.99 17.99C32.99 16.29 32.71 14.66 32.19 13.13C31.91 12.33 31.57 11.55 31.17 10.82L29.68 12.3C29.71 12.35 29.73 12.4 29.76 12.45H29.53L27.53 14.45H30.51C30.82 15.58 30.99 16.77 30.99 17.99C30.99 19.22 30.82 20.41 30.51 21.53H24.35C24.55 20.42 24.67 19.23 24.67 17.99C24.67 17.77 24.67 17.55 24.66 17.33L22.62 19.37C22.56 20.12 22.45 20.84 22.31 21.53H20.45L18.45 23.53H21.78C21.28 25.1 20.63 26.47 19.97 27.62C19.29 28.79 18.61 29.72 18.1 30.35C18.07 30.4 18.03 30.44 18 30.48C17.96 30.44 17.92 30.4 17.89 30.35C17.38 29.72 16.7 28.79 16.02 27.62C15.83 27.28 15.63 26.92 15.44 26.54L13.96 28.02C14.07 28.23 14.18 28.42 14.29 28.62C14.78 29.46 15.27 30.2 15.71 30.79C14.51 30.58 13.36 30.2 12.3 29.68L10.82 31.17ZM5.48 21.53H11.64C11.44 20.42 11.32 19.23 11.32 17.99C11.32 16.75 11.44 15.57 11.64 14.45H5.48C5.16 15.58 5 16.77 5 17.99C5 19.22 5.16 20.41 5.48 21.53ZM20.28 30.79C20.72 30.2 21.21 29.46 21.7 28.62C22.5 27.23 23.3 25.51 23.87 23.53H29.76C27.99 27.28 24.48 30.05 20.28 30.79Z" fill="white"/>
</svg>
