<svg width="36" height="36" viewBox="0 0 36 36" fill="none" xmlns="http://www.w3.org/2000/svg">
<path fill-rule="evenodd" clip-rule="evenodd" d="M4.25 11.97H11.7C12.32 9.85 13.18 8.01 14.04 6.53C14.84 5.14 15.64 4.05 16.24 3.3C16.33 3.19 16.41 3.09 16.49 3C10.99 3.57 6.37 7.1 4.25 11.97ZM19.66 3C19.75 3.09 19.83 3.19 19.91 3.3C20.52 4.05 21.32 5.14 22.11 6.53C22.96 8 23.82 9.81 24.43 11.89L22.09 14.23H13.47C13.24 15.42 13.09 16.67 13.09 18C13.09 19.32 13.24 20.57 13.47 21.76H14.57L11.84 24.48C11.79 24.33 11.75 24.17 11.7 24.02H4.25C5.03 25.82 6.16 27.43 7.54 28.79L5.79 30.54C5.39 30.93 5.39 31.56 5.79 31.95C6.18 32.35 6.81 32.35 7.2 31.95L9.07 30.09L12.6 26.56L14.34 24.81L15.14 24.02L17.4 21.76L22.97 16.18L27.18 11.97L30.17 8.98L32.2 6.95C32.6 6.56 32.6 5.93 32.2 5.54C31.81 5.14 31.18 5.14 30.79 5.54L28.87 7.46C26.48 5.01 23.26 3.37 19.66 3ZM22.09 11.97C21.55 10.32 20.86 8.87 20.16 7.66C19.42 6.39 18.69 5.39 18.15 4.72H18C17.46 5.39 16.73 6.39 16 7.66C15.3 8.87 14.6 10.32 14.07 11.97H22.09ZM31.28 10.7L30.01 11.97H31.91C31.72 11.54 31.51 11.11 31.28 10.7ZM3.47 21.76H11.17C10.96 20.57 10.83 19.31 10.83 18C10.83 16.68 10.96 15.42 11.17 14.23H3.47C3.16 15.44 3 16.7 3 18C3 19.29 3.16 20.55 3.47 21.76ZM27.75 14.23L25.28 16.7C25.31 17.13 25.32 17.56 25.32 18C25.32 19.31 25.2 20.57 24.99 21.76H32.69C33 20.55 33.16 19.29 33.16 18C33.16 16.7 33 15.44 32.69 14.23H27.75ZM23.04 18.95L20.23 21.76H22.68C22.86 20.86 22.99 19.92 23.04 18.95ZM17.97 24.02L15.19 26.8C15.45 27.34 15.73 27.86 16 28.33C16.73 29.6 17.46 30.6 18 31.27H18.15C18.69 30.6 19.42 29.6 20.16 28.33C20.86 27.12 21.55 25.67 22.09 24.02H17.97ZM31.91 24.02H24.45C23.84 26.14 22.97 27.98 22.11 29.46C21.32 30.85 20.52 31.94 19.91 32.69C19.83 32.8 19.75 32.9 19.66 33C25.16 32.42 29.79 28.89 31.91 24.02ZM13.5 28.48L10.78 31.2C12.51 32.15 14.44 32.78 16.49 33C16.41 32.9 16.33 32.8 16.24 32.69C15.64 31.94 14.84 30.85 14.04 29.46C13.86 29.15 13.68 28.82 13.5 28.48Z" fill="white"/>
</svg>
