<svg width="36" height="36" viewBox="0 0 36 36" fill="none" xmlns="http://www.w3.org/2000/svg">
<path fill-rule="evenodd" clip-rule="evenodd" d="M6.23608 12.4591H12.119C12.6893 10.4801 13.4953 8.76551 14.2955 7.3785C14.7854 6.52948 15.2754 5.79889 15.7127 5.20049C11.5101 5.94633 8.00417 8.71164 6.23608 12.4591ZM17.9994 5.51098C17.9646 5.55347 17.9289 5.59756 17.8922 5.64324C17.3862 6.27294 16.7073 7.20027 16.0279 8.37795C15.3666 9.52416 14.71 10.8983 14.2094 12.4591H21.7894C21.2889 10.8983 20.6323 9.52416 19.971 8.37795C19.2915 7.20027 18.6127 6.27294 18.1067 5.64324C18.07 5.59756 18.0342 5.55347 17.9994 5.51098ZM22.3137 14.4591H13.6851C13.4583 15.5708 13.324 16.7548 13.324 17.9994C13.324 19.2441 13.4583 20.428 13.6851 21.5398H22.3137C22.5405 20.428 22.6749 19.2441 22.6749 17.9994C22.6749 16.7548 22.5405 15.5708 22.3137 14.4591ZM24.3509 21.5398C24.5555 20.4229 24.6749 19.2398 24.6749 17.9994C24.6749 16.7591 24.5555 15.576 24.3509 14.4591H30.5112C30.8287 15.5837 30.9989 16.771 30.9989 17.9994C30.9989 19.2279 30.8287 20.4152 30.5112 21.5398L24.3509 21.5398ZM21.7894 23.5398H14.2094C14.71 25.1006 15.3666 26.4747 16.0279 27.6209C16.7073 28.7986 17.3862 29.7259 17.8922 30.3556C17.9289 30.4013 17.9646 30.4454 17.9994 30.4879C18.0342 30.4454 18.07 30.4013 18.1067 30.3556C18.6127 29.7259 19.2915 28.7986 19.971 27.6209C20.6323 26.4747 21.2889 25.1006 21.7894 23.5398ZM15.7127 30.7984C15.2754 30.2 14.7854 29.4694 14.2955 28.6204C13.4953 27.2334 12.6893 25.5187 12.119 23.5398L6.23608 23.5398C8.00417 27.2872 11.5101 30.0525 15.7127 30.7984ZM5.48767 21.5398L11.648 21.5398C11.4434 20.4229 11.324 19.2398 11.324 17.9994C11.324 16.7591 11.4434 15.576 11.648 14.4591H5.48767C5.17013 15.5837 5 16.771 5 17.9994C5 19.2279 5.17013 20.4152 5.48767 21.5398ZM20.2861 30.7984C20.7234 30.2 21.2135 29.4694 21.7033 28.6204C22.5035 27.2334 23.3095 25.5187 23.8798 23.5398L29.7628 23.5398C27.9947 27.2872 24.4888 30.0525 20.2861 30.7984ZM29.7628 12.4591H23.8798C23.3095 10.4801 22.5035 8.76551 21.7033 7.3785C21.2135 6.52948 20.7234 5.79889 20.2861 5.20049C24.4888 5.94633 27.9947 8.71164 29.7628 12.4591ZM3.8067 13.1349C5.82674 7.23992 11.4167 3 17.9994 3C24.5822 3 30.1721 7.23992 32.1922 13.1349C32.7154 14.6617 32.9989 16.2985 32.9989 17.9994C32.9989 19.7004 32.7154 21.3372 32.1922 22.864C30.1721 28.759 24.5822 32.9989 17.9994 32.9989C11.4167 32.9989 5.82674 28.759 3.8067 22.864C3.28353 21.3372 3 19.7004 3 17.9994C3 16.2985 3.28353 14.6617 3.8067 13.1349Z" fill="white"/>
</svg>
