<svg width="36" height="36" viewBox="0 0 36 36" fill="none" xmlns="http://www.w3.org/2000/svg">
<path d="M17.9951 3.0014C18.8616 2.98693 19.7221 3.14918 20.5244 3.47894C22.027 4.16967 23.4924 4.94095 24.9131 5.78948C26.3444 6.61564 27.73 7.52008 29.0635 8.49847C30.2493 9.45456 31.4351 11.4468 31.5537 13.0004C31.5537 13.0004 31.8306 15.3114 31.8701 18.0483C31.8677 19.7382 31.7756 21.4269 31.5938 23.1069C31.3179 24.8662 30.4188 26.4657 29.0635 27.6088C29.0635 27.6088 27.2057 28.9635 24.9131 30.3578C23.4922 31.206 22.0267 31.9772 20.5244 32.6684C19.7231 33.0019 18.862 33.1643 17.9951 33.1459C17.1292 33.1642 16.2683 33.006 15.4648 32.6801C13.9624 31.9895 12.4977 31.2181 11.0771 30.3696C8.78444 29.0151 6.92676 27.6205 6.92676 27.6205C6.0846 26.9415 5.24256 25.7403 4.76855 24.5444C4.68311 24.3288 4.84723 24.103 5.0791 24.103H7.00391C7.25397 24.1031 7.48192 24.2414 7.61426 24.4535C7.97562 25.0338 8.41287 25.5532 8.84961 25.9028C8.87818 25.924 10.4011 27.0565 12.2764 28.1567C13.4493 28.8524 14.6589 29.4848 15.8994 30.0512C16.5628 30.3184 17.2734 30.448 17.9883 30.433C18.7041 30.4481 19.4154 30.315 20.0771 30.0414C21.3175 29.4747 22.527 28.8424 23.7002 28.1469C25.5789 27.0122 27.1039 25.9097 27.127 25.893C28.246 24.9557 28.988 23.6441 29.2158 22.2016C29.366 20.8238 29.4423 19.4382 29.4443 18.0522C29.4117 15.8082 29.1836 13.9135 29.1836 13.9135C29.0856 12.6395 28.1061 11.0061 27.127 10.2221C26.026 9.41987 24.882 8.67875 23.7002 8.0014C22.5272 7.30552 21.3177 6.67219 20.0771 6.10589C19.4145 5.83535 18.7038 5.70246 17.9883 5.71429C17.2726 5.69928 16.5611 5.83238 15.8994 6.10589C14.659 6.67261 13.4495 7.30593 12.2764 8.0014C10.4 9.13457 8.87636 10.2033 8.84961 10.2221C8.34853 10.6418 7.92255 11.1371 7.58496 11.685C7.45139 11.9015 7.2203 12.0444 6.96582 12.0444H5.07031C4.84166 12.0441 4.67757 11.8237 4.75586 11.6088C5.19431 10.4065 5.9394 9.33124 6.92676 8.49847C6.95223 8.48046 8.80025 7.17418 11.0771 5.78948C12.498 4.94139 13.9627 4.17013 15.4648 3.47894C16.2664 3.14532 17.1282 2.98307 17.9951 3.0014ZM23.1133 18.9789C23.4464 18.9789 23.7158 19.2495 23.7158 19.5825V21.391C23.7158 21.724 23.4464 21.9946 23.1133 21.9946H4.72266C4.38979 21.9944 4.12012 21.7239 4.12012 21.391V18.9789H23.1133ZM14.0693 14.1567C14.4022 14.1568 14.6719 14.4263 14.6719 14.7592V16.5678C14.6719 16.9007 14.4022 17.1712 14.0693 17.1713H4.12012V14.7592C4.12012 14.4264 4.38986 14.1569 4.72266 14.1567H14.0693Z" fill="white"/>
</svg>
