<svg width="36" height="36" viewBox="0 0 36 36" fill="none" xmlns="http://www.w3.org/2000/svg">
<path fill-rule="evenodd" clip-rule="evenodd" d="M3.50277 16.4043C2.6729 17.2341 2.67291 18.5796 3.50277 19.4094L7.27986 23.1864C8.10973 24.0162 9.4552 24.0162 10.2851 23.1864L14.0622 19.4094C14.892 18.5795 14.892 17.2341 14.0622 16.4043L10.2851 12.6273C9.45521 11.7974 8.10973 11.7974 7.27986 12.6273L3.50277 16.4043ZM4.917 17.9952C4.86819 17.9464 4.8682 17.8673 4.917 17.8185L8.6941 14.0415C8.7429 13.9927 8.82204 13.9927 8.87084 14.0415L12.6479 17.8185C12.6967 17.8673 12.6967 17.9464 12.6479 17.9952L8.87084 21.7722C8.82203 21.821 8.7429 21.821 8.69409 21.7722L4.917 17.9952ZM12.63 25.5296C11.8002 26.3594 11.8002 27.7049 12.63 28.5347L16.4071 32.3117C17.237 33.1415 18.5825 33.1415 19.4123 32.3117L23.1894 28.5347C24.0193 27.7049 24.0193 26.3594 23.1894 25.5296L19.4123 21.7526C18.5825 20.9227 17.237 20.9227 16.4071 21.7526L12.63 25.5296ZM14.0443 27.1205C13.9955 27.0717 13.9955 26.9926 14.0443 26.9438L17.8214 23.1668C17.8702 23.118 17.9493 23.118 17.9981 23.1668L21.7752 26.9438C21.824 26.9926 21.824 27.0717 21.7752 27.1205L17.9981 30.8975C17.9493 30.9463 17.8702 30.9463 17.8214 30.8975L14.0443 27.1205ZM12.6297 10.2834C11.7999 9.45358 11.7999 8.10813 12.6297 7.27829L16.4068 3.50129C17.2367 2.67145 18.5822 2.67144 19.412 3.50129L23.1891 7.27828C24.019 8.10813 24.019 9.45357 23.1891 10.2834L19.412 14.0604C18.5822 14.8903 17.2367 14.8903 16.4068 14.0604L12.6297 10.2834ZM14.044 8.69248C13.9951 8.74129 13.9951 8.82042 14.044 8.86923L17.821 12.6462C17.8699 12.695 17.949 12.695 17.9978 12.6462L21.7749 8.86922C21.8237 8.82042 21.8237 8.74128 21.7749 8.69248L17.9978 4.91549C17.949 4.86668 17.8699 4.86668 17.8211 4.91549L14.044 8.69248ZM21.755 16.4036C20.9252 17.2334 20.9252 18.5789 21.755 19.4087L25.5321 23.1857C26.362 24.0156 27.7075 24.0156 28.5373 23.1857L32.3144 19.4087C33.1443 18.5789 33.1443 17.2334 32.3144 16.4036L28.5373 12.6266C27.7075 11.7968 26.362 11.7968 25.5321 12.6266L21.755 16.4036ZM23.1693 17.9945C23.1205 17.9457 23.1205 17.8666 23.1693 17.8178L26.9464 14.0408C26.9952 13.992 27.0743 13.992 27.1231 14.0408L30.9002 17.8178C30.949 17.8666 30.949 17.9457 30.9002 17.9945L27.1231 21.7715C27.0743 21.8203 26.9952 21.8203 26.9464 21.7715L23.1693 17.9945Z" fill="white"/>
</svg>
