<svg width="36" height="36" viewBox="0 0 36 36" fill="none" xmlns="http://www.w3.org/2000/svg">
<path fill-rule="evenodd" clip-rule="evenodd" d="M18.375 9.5C19.5486 9.5 20.5 10.4514 20.5 11.625V15.5H24.375C25.5486 15.5 26.5 16.4514 26.5 17.625V24.375C26.5 25.5486 25.5486 26.5 24.375 26.5H17.625C16.4514 26.5 15.5 25.5486 15.5 24.375V20.5H11.625C10.4514 20.5 9.5 19.5486 9.5 18.375V11.625C9.5 10.4514 10.4514 9.5 11.625 9.5H18.375ZM20.5 18.375C20.5 19.5486 19.5486 20.5 18.375 20.5H17.5V24.375C17.5 24.444 17.556 24.5 17.625 24.5H24.375C24.444 24.5 24.5 24.444 24.5 24.375V17.625C24.5 17.556 24.444 17.5 24.375 17.5H20.5V18.375ZM11.625 11.5C11.556 11.5 11.5 11.556 11.5 11.625V18.375C11.5 18.444 11.556 18.5 11.625 18.5H18.375C18.444 18.5 18.5 18.444 18.5 18.375V11.625C18.5 11.556 18.444 11.5 18.375 11.5H11.625Z" fill="white"/>
<path fill-rule="evenodd" clip-rule="evenodd" d="M30.75 3C31.9926 3 33 4.00736 33 5.25C33 6.1044 32.5238 6.84754 31.8223 7.22852C31.7989 7.24122 31.7739 7.25081 31.75 7.2627V28.7363C32.4903 29.1047 33 29.867 33 30.75C33 31.9926 31.9926 33 30.75 33C29.867 33 29.1047 32.4903 28.7363 31.75H7.26367C7.25172 31.774 7.24129 31.7987 7.22852 31.8223C6.84754 32.5238 6.1044 33 5.25 33C4.00736 33 3 31.9926 3 30.75C3 29.8956 3.47624 29.1525 4.17773 28.7715C4.20125 28.7587 4.22598 28.7483 4.25 28.7363V7.2627C4.22612 7.25081 4.20113 7.24122 4.17773 7.22852C3.47624 6.84754 3 6.1044 3 5.25C3 4.00736 4.00736 3 5.25 3C6.1044 3 6.84754 3.47624 7.22852 4.17773C7.24129 4.20125 7.25172 4.22598 7.26367 4.25H28.7363C28.7483 4.22598 28.7587 4.20125 28.7715 4.17773C29.1525 3.47624 29.8956 3 30.75 3ZM7.22852 6.32227C7.02066 6.705 6.705 7.02066 6.32227 7.22852C6.29887 7.24122 6.27388 7.25081 6.25 7.2627V28.7363C6.27402 28.7483 6.29875 28.7587 6.32227 28.7715C6.705 28.9793 7.02066 29.295 7.22852 29.6777C7.24129 29.7013 7.25172 29.726 7.26367 29.75H28.7363C28.9547 29.3112 29.3112 28.9547 29.75 28.7363V7.2627C29.7261 7.25081 29.7011 7.24122 29.6777 7.22852C29.295 7.02066 28.9793 6.705 28.7715 6.32227C28.7587 6.29875 28.7483 6.27402 28.7363 6.25H7.26367C7.25172 6.27402 7.24129 6.29875 7.22852 6.32227Z" fill="white"/>
</svg>
