<svg width="36" height="36" viewBox="0 0 36 36" fill="none" xmlns="http://www.w3.org/2000/svg">
<path d="M24.375 15.5C25.5486 15.5 26.5 16.4514 26.5 17.625V24.375C26.5 25.5486 25.5486 26.5 24.375 26.5H17.625C16.4514 26.5 15.5 25.5486 15.5 24.375V22H18.75C20.5449 22 22 20.5449 22 18.75V15.5H24.375Z" fill="white"/>
<path d="M18.375 9.5C19.5486 9.5 20.5 10.4514 20.5 11.625V18.375C20.5 19.5486 19.5486 20.5 18.375 20.5H11.625C10.4514 20.5 9.5 19.5486 9.5 18.375V11.625C9.5 10.4514 10.4514 9.5 11.625 9.5H18.375Z" fill="white"/>
<path fill-rule="evenodd" clip-rule="evenodd" d="M30.75 3C31.9926 3 33 4.00736 33 5.25C33 6.13289 32.4901 6.89426 31.75 7.2627V28.7363C31.774 28.7483 31.7987 28.7587 31.8223 28.7715C32.5238 29.1525 33 29.8956 33 30.75C33 31.9926 31.9926 33 30.75 33C29.8956 33 29.1525 32.5238 28.7715 31.8223C28.7587 31.7987 28.7483 31.774 28.7363 31.75H7.26367C7.25172 31.774 7.24129 31.7987 7.22852 31.8223C6.84754 32.5238 6.1044 33 5.25 33C4.00736 33 3 31.9926 3 30.75C3 29.8956 3.47624 29.1525 4.17773 28.7715C4.20125 28.7587 4.22598 28.7483 4.25 28.7363V7.2627C3.50988 6.89426 3 6.13289 3 5.25C3 4.00736 4.00736 3 5.25 3C6.13304 3 6.89531 3.50967 7.26367 4.25H28.7363C29.1047 3.50967 29.867 3 30.75 3ZM7.26367 6.25C7.04538 6.68872 6.68867 7.04432 6.25 7.2627V28.7363C6.27402 28.7483 6.29875 28.7587 6.32227 28.7715C6.705 28.9793 7.02066 29.295 7.22852 29.6777C7.24129 29.7013 7.25172 29.726 7.26367 29.75H28.7363C28.7483 29.726 28.7587 29.7013 28.7715 29.6777C28.9793 29.295 29.295 28.9793 29.6777 28.7715C29.7013 28.7587 29.726 28.7483 29.75 28.7363V7.2627C29.3113 7.04432 28.9546 6.68872 28.7363 6.25H7.26367Z" fill="white"/>
</svg>
