<svg width="36" height="36" viewBox="0 0 36 36" fill="none" xmlns="http://www.w3.org/2000/svg">
<path fill-rule="evenodd" clip-rule="evenodd" d="M29.7489 4.49211C30.1395 4.10159 30.7725 4.10159 31.163 4.49211C31.5533 4.88265 31.5534 5.51573 31.163 5.90617L5.70696 31.3622C5.31649 31.7523 4.68333 31.7524 4.29289 31.3622C3.90237 30.9717 3.90237 30.3377 4.29289 29.9472L9.83977 24.3993L7.07024 20.7236C6.11549 19.4564 6.36697 17.6537 7.63469 16.6982C7.87767 16.5151 8.14056 16.3758 8.41301 16.2802L7.12883 14.5761C6.1739 13.3089 6.42528 11.5062 7.69328 10.5507C7.93634 10.3676 8.19907 10.2292 8.4716 10.1337L8.31438 9.9257C7.35951 8.65855 7.61106 6.85587 8.87883 5.90031C10.0175 5.04258 11.5843 5.16352 12.5839 6.11418C12.7553 5.86397 12.9689 5.63596 13.2245 5.44328C14.4925 4.48801 16.2941 4.74351 17.2489 6.01066L21.5126 11.6679C21.1441 10.1946 21.987 8.67532 23.457 8.22648C24.2555 7.98278 25.0761 8.10606 25.7431 8.49699L29.7489 4.49211ZM10.0624 18.4687C9.77096 18.0821 9.22288 18.0065 8.83879 18.2958C8.45492 18.5853 8.3767 19.1327 8.66789 19.5195L11.2685 22.9706L12.5155 21.7245L10.0624 18.4687ZM10.12 12.3212C9.82863 11.9346 9.28051 11.8582 8.89641 12.1474C8.51231 12.4368 8.43419 12.9852 8.72551 13.372L13.9433 20.2958L15.2011 19.038C15.1597 18.9992 15.1202 18.957 15.0849 18.9101L10.12 12.3212ZM11.3056 7.67179C11.0143 7.28524 10.4671 7.20813 10.0829 7.49699C9.69881 7.78645 9.62064 8.33481 9.91203 8.7216L16.6181 17.621L18.0917 16.1484C17.8263 16.1201 17.5727 15.9876 17.3993 15.7577L11.3056 7.67179ZM15.6513 7.21379C15.3598 6.82725 14.8117 6.75159 14.4277 7.04094C14.0441 7.33045 13.9657 7.87797 14.2568 8.26457L18.996 14.5536C19.1091 14.7037 19.1719 14.8755 19.1904 15.0497L20.539 13.7001L15.6513 7.21379ZM24.0409 10.1386C23.7253 10.235 23.5028 10.4947 23.4404 10.7978L24.122 10.1181C24.0949 10.1236 24.0679 10.1304 24.0409 10.1386Z" fill="white"/>
<path d="M29.5693 18.3818C31.1854 23.6614 28.2184 29.2484 22.9404 30.8603C18.923 32.0869 14.7286 30.656 12.2411 27.578L13.665 26.1542C15.6386 28.7349 19.0746 29.9501 22.3564 28.9482C26.576 27.6595 28.9503 23.1912 27.6572 18.9667L26.0624 13.7577L27.663 12.1571L29.5693 18.3818Z" fill="white"/>
<path d="M25.0732 16.4941C25.215 16.958 25.0034 17.4572 24.5712 17.6777C24.139 17.8977 23.6113 17.7759 23.3193 17.3886L22.9374 16.8827L24.663 15.1562L25.0732 16.4941Z" fill="white"/>
</svg>
