<svg width="36" height="36" viewBox="0 0 36 36" fill="none" xmlns="http://www.w3.org/2000/svg">
<path fill-rule="evenodd" clip-rule="evenodd" d="M16.5158 6.51415C16.5158 5.67791 17.1862 5 18.0132 5C18.8402 5 19.5106 5.67791 19.5106 6.51415V17.8703C19.5106 18.0793 19.6782 18.2488 19.885 18.2488C20.0917 18.2488 20.2593 18.0793 20.2593 17.8703V9.54244C20.2593 8.7062 20.9297 8.0283 21.7567 8.0283C22.5837 8.0283 23.2542 8.7062 23.2542 9.54244V19.0059C23.2542 19.2149 23.4218 19.3844 23.6285 19.3844C23.8353 19.3844 24.0029 19.2149 24.0029 19.0059V14.4634C24.0029 13.6272 24.6733 12.9493 25.5003 12.9493C26.3273 12.9493 26.9977 13.6272 26.9977 14.4634V22.7912C26.9977 22.8055 26.9985 22.8196 27 22.8335C26.9826 26.3743 24.8142 29.6911 21.3324 30.9726C16.8639 32.6171 11.923 30.2874 10.2966 25.769L7.35178 17.5877C7.06893 16.8019 7.46962 15.933 8.24674 15.647C8.29244 15.6302 8.33842 15.6157 8.38455 15.6036C8.99518 15.4866 9.619 15.6978 9.88186 16.2579C10.1359 16.7991 10.3463 17.2134 10.542 17.5966L12.0461 21.7752C12.1082 21.9478 12.284 22.0504 12.4629 22.0185C12.6418 21.9866 12.7722 21.8295 12.7722 21.6458L12.7722 8.78537C12.7722 7.94913 13.4427 7.27122 14.2697 7.27122C15.0967 7.27122 15.7671 7.94913 15.7671 8.78537L15.7671 16.7346C15.7671 16.9437 15.9347 17.1132 16.1414 17.1132C16.3482 17.1132 16.5158 16.9437 16.5158 16.7346V6.51415Z" fill="white"/>
</svg>
