<svg width="36" height="36" viewBox="0 0 36 36" fill="none" xmlns="http://www.w3.org/2000/svg">
<path fill-rule="evenodd" clip-rule="evenodd" d="M18.8829 5.5C18.4019 5.5 18.0101 5.89068 18.0101 6.375V16.5C18.0101 17.0523 17.5623 17.5 17.0101 17.5C16.4578 17.5 16.0101 17.0523 16.0101 16.5V8.625C16.0101 8.14068 15.6182 7.75 15.1372 7.75C14.6562 7.75 14.2643 8.14068 14.2643 8.625L14.2643 21.3652C14.2643 21.8506 13.9158 22.2659 13.4378 22.3501C12.9598 22.4343 12.4903 22.1631 12.3245 21.7069L10.4433 16.5324C10.278 16.0779 9.77699 15.845 9.32495 16.0097C8.87237 16.1746 8.63759 16.6766 8.80303 17.1317L11.7496 25.2365C13.2592 29.3888 17.8442 31.5283 21.9898 30.0177C25.2106 28.8441 27.2224 25.8109 27.2495 22.5658C27.2481 22.5441 27.2473 22.5221 27.2473 22.5V14.25C27.2473 13.7657 26.8555 13.375 26.3745 13.375C25.8935 13.375 25.5016 13.7657 25.5016 14.25V18.75C25.5016 19.3023 25.0539 19.75 24.5016 19.75C23.9493 19.75 23.5016 19.3023 23.5016 18.75V9.375C23.5016 8.89068 23.1097 8.5 22.6287 8.5C22.1477 8.5 21.7558 8.89068 21.7558 9.375V17.625C21.7558 18.1773 21.3081 18.625 20.7558 18.625C20.2035 18.625 19.7558 18.1773 19.7558 17.625V6.375C19.7558 5.89068 19.364 5.5 18.8829 5.5ZM21.7558 6.63507V6.375C21.7558 4.78825 20.4707 3.5 18.8829 3.5C17.4578 3.5 16.2765 4.53789 16.0494 5.89794C15.7629 5.80199 15.4561 5.75 15.1372 5.75C13.5495 5.75 12.2643 7.03825 12.2643 8.625L12.2643 15.7006C11.6696 14.307 10.0818 13.6053 8.64022 14.1306C7.14883 14.674 6.3813 16.3239 6.9234 17.815L9.86999 25.9199C11.7566 31.1093 17.4891 33.7863 22.6745 31.8968C26.7328 30.4181 29.2495 26.5823 29.2498 22.5001C29.2498 22.4765 29.2489 22.4532 29.2473 22.43V14.25C29.2473 12.6632 27.9622 11.375 26.3745 11.375C26.0701 11.375 25.7768 11.4223 25.5016 11.5101V9.375C25.5016 7.78825 24.2164 6.5 22.6287 6.5C22.3243 6.5 22.031 6.54735 21.7558 6.63507Z" fill="white"/>
</svg>
