<svg width="36" height="36" viewBox="0 0 36 36" fill="none" xmlns="http://www.w3.org/2000/svg">
<path d="M29.7489 4.49211C30.1395 4.10159 30.7725 4.10159 31.163 4.49211C31.5533 4.88265 31.5534 5.51573 31.163 5.90617L5.70696 31.3622C5.31649 31.7523 4.68333 31.7524 4.29289 31.3622C3.90237 30.9717 3.90237 30.3377 4.29289 29.9472L10.9775 23.2616L8.45696 20.5585C7.88674 19.947 7.9138 18.9936 8.51848 18.4296C9.12331 17.866 10.0762 17.9051 10.6464 18.5165L13.0966 21.1435L13.6259 20.6132L7.83782 14.4052C7.26794 13.7937 7.2958 12.8412 7.90032 12.2773C8.50505 11.714 9.45808 11.7522 10.0282 12.3632L15.7079 18.454C15.7206 18.4675 15.7349 18.4789 15.7489 18.4902L16.2724 17.9667C16.2664 17.9592 16.2615 17.9504 16.2548 17.9433L8.50969 9.63761C7.93997 9.02603 7.96862 8.07353 8.57317 7.50969C9.17789 6.9463 10.1299 6.9846 10.7001 7.59562L17.6708 15.0702C17.8133 15.2229 18.0519 15.2334 18.203 15.0927C18.3539 14.9517 18.361 14.7123 18.2187 14.5595L12.7968 8.74601C12.2268 8.13456 12.255 7.18208 12.8593 6.61808C13.4641 6.05441 14.417 6.09273 14.9872 6.70402L21.0419 13.1972L22.6249 11.6152C22.5076 11.2047 22.3798 10.7609 22.1982 10.1972C22.0085 9.60827 22.3211 9.02798 22.8476 8.69719C22.889 8.67496 22.9332 8.65425 22.9775 8.63566C23.704 8.33091 24.5398 8.64509 24.9023 9.33781L29.7489 4.49211Z" fill="white"/>
<path d="M28.3798 17.4364C30.2717 21.85 28.2476 26.9236 23.8583 28.7685C20.438 30.2057 16.5895 29.2582 14.162 26.6806C14.1539 26.6697 14.1451 26.6585 14.1357 26.6484L13.6698 26.1493L23.7343 16.0849L23.7577 16.1093C23.883 16.2434 24.0857 16.2693 24.2382 16.1708C24.3904 16.0722 24.4498 15.8773 24.3779 15.7089L24.2978 15.5214L26.581 13.2382L28.3798 17.4364Z" fill="white"/>
</svg>
