<svg width="36" height="36" viewBox="0 0 36 36" fill="none" xmlns="http://www.w3.org/2000/svg">
<path fill-rule="evenodd" clip-rule="evenodd" d="M7.40181 7.18959C7.86443 6.6277 8.45107 6.17502 9.11653 5.86754C9.78199 5.56006 10.5069 5.40672 11.2347 5.4186C11.9623 5.43048 12.6722 5.60716 13.3098 5.93296C13.9472 6.2587 14.4957 6.72488 14.9141 7.29441C15.3325 7.86389 15.6106 8.52273 15.7269 9.22053C15.8178 9.76528 16.3331 10.1332 16.8778 10.0424C17.4226 9.95151 17.7906 9.43624 17.6997 8.89149C17.5317 7.88453 17.1301 6.93275 16.5259 6.11032C15.9217 5.28794 15.1322 4.61825 14.2198 4.15202C13.3075 3.68584 12.2972 3.43569 11.2673 3.41888C10.2375 3.40207 9.21482 3.61896 8.27763 4.05199C7.34044 4.48502 6.51241 5.12328 5.85779 5.91837C5.20312 6.71352 4.73877 7.64507 4.5025 8.64194C4.2662 9.63894 4.2645 10.6742 4.4992 11.6673C4.73391 12.6604 5.19841 13.5832 5.85639 14.3637C6.21235 14.786 6.84324 14.8398 7.2655 14.4838C7.68777 14.1278 7.74153 13.497 7.38556 13.0747C6.9296 12.5338 6.60811 11.895 6.44558 11.2073C6.28305 10.5196 6.2835 9.79975 6.44859 9.10319C6.61372 8.4065 6.93925 7.75141 7.40181 7.18959ZM10.2223 10.4512C10.0285 10.0319 10.2088 9.4935 10.6889 9.2717C11.1689 9.0499 11.6958 9.26157 11.8895 9.68083L15.8219 18.1912C16.0535 18.6926 16.6477 18.9112 17.1491 18.6796C17.6504 18.4479 17.8691 17.8537 17.6374 17.3524L16.5364 14.9694C16.3426 14.5502 16.5229 14.0118 17.0029 13.79C17.483 13.5682 18.0099 13.7798 18.2036 14.1991L19.7765 17.6033C20.0082 18.1046 20.6024 18.3232 21.1038 18.0916C21.6051 17.8599 21.8237 17.2657 21.5921 16.7644L20.6483 14.7219C20.4546 14.3026 20.6349 13.7642 21.1149 13.5424C21.595 13.3206 22.1218 13.5323 22.3155 13.9515L23.7312 17.0153C23.9629 17.5166 24.5571 17.7353 25.0584 17.5036C25.5598 17.272 25.7784 16.6777 25.5468 16.1764L24.9176 14.8147C24.7239 14.3955 24.9041 13.857 25.3842 13.6352C25.8642 13.4134 26.3911 13.6251 26.5848 14.0444L28.7869 18.8102C28.7963 18.8305 28.8063 18.8503 28.8168 18.8697C30.1462 21.8137 29.558 25.433 27.0428 27.8947C23.7969 31.0713 18.6156 31.0809 15.4769 27.9667L9.33755 21.8751C9.00849 21.5486 8.99694 20.9978 9.36542 20.6372C9.74156 20.2691 10.3259 20.2833 10.6636 20.6184L14.5832 24.5074C14.9267 24.8483 15.465 24.8943 15.8613 24.6166C16.2576 24.339 16.3983 23.8174 16.1953 23.3781L10.2223 10.4512ZM13.7051 8.84195L15.3916 12.492C15.6149 12.2845 15.874 12.1084 16.1641 11.9744C17.2425 11.4761 18.4847 11.6805 19.3254 12.4251C19.5849 12.1382 19.9051 11.8982 20.276 11.7268C21.4654 11.1773 22.8538 11.4824 23.6834 12.4241C23.9259 12.1786 24.2156 11.972 24.5453 11.8197C25.9887 11.1527 27.7254 11.7447 28.4004 13.2055L30.5728 17.907C30.5841 17.9276 30.5948 17.9487 30.6048 17.9704C32.323 21.6898 31.5816 26.251 28.4417 29.324C24.4377 33.2426 18.0056 33.2932 14.0682 29.3864L7.92887 23.2949C6.78374 22.1586 6.82461 20.3254 7.96651 19.2078C9.09386 18.1045 10.9136 18.0714 12.0516 19.1783L8.40671 11.2901C7.73172 9.82926 8.40651 8.1231 9.84997 7.45615C11.2934 6.7892 13.0301 7.38114 13.7051 8.84195Z" fill="white"/>
</svg>
