<svg width="36" height="36" viewBox="0 0 36 36" fill="none" xmlns="http://www.w3.org/2000/svg">
<path fill-rule="evenodd" clip-rule="evenodd" d="M10.7002 7.59593C10.1299 6.98435 9.17722 6.94578 8.57239 7.50979C7.96756 8.07381 7.93958 9.02682 8.50989 9.63841L16.2547 17.9437C16.3973 18.0966 16.3903 18.3349 16.2391 18.4759C16.0879 18.6169 15.8497 18.6073 15.7072 18.4544L10.0276 12.3638C9.4573 11.7522 8.50466 11.7136 7.89983 12.2776C7.295 12.8416 7.26702 13.7947 7.83733 14.4062L14.2914 21.3274C14.4339 21.4803 14.427 21.7185 14.2757 21.8595C14.1245 22.0005 13.8864 21.9909 13.7438 21.838L10.6459 18.5158C10.0755 17.9043 9.1229 17.8657 8.51807 18.4297C7.91324 18.9937 7.88526 19.9467 8.45558 20.5583L14.1351 26.6489C14.1449 26.6593 14.1539 26.6702 14.1622 26.6813C16.5898 29.2591 20.4378 30.206 23.8582 28.7686C28.2478 26.9239 30.2724 21.8504 28.3804 17.4366L24.9544 9.44478C24.6254 8.67717 23.7398 8.31498 22.9764 8.6358C22.931 8.65487 22.8871 8.67592 22.8446 8.69882C22.3196 9.02992 22.0086 9.60895 22.1981 10.197C22.3827 10.7701 22.5118 11.2188 22.6307 11.635L24.3771 15.7089C24.4494 15.8775 24.3908 16.0724 24.2382 16.1711C24.0856 16.2698 23.883 16.2438 23.7578 16.1094L14.987 6.70391C14.4167 6.09232 13.464 6.05376 12.8592 6.61777C12.2544 7.18178 12.2264 8.13479 12.7967 8.74638L18.2181 14.5601C18.3607 14.713 18.3537 14.9513 18.2025 15.0923C18.0513 15.2333 17.8131 15.2236 17.6705 15.0707L10.7002 7.59593Z" fill="white"/>
</svg>
