<svg width="36" height="36" viewBox="0 0 36 36" fill="none" xmlns="http://www.w3.org/2000/svg">
<path fill-rule="evenodd" clip-rule="evenodd" d="M27.6592 23.6132C27.9242 23.4508 28.1512 23.2238 28.6052 22.7698L31.7698 19.6052C32.2238 19.1512 32.4508 18.9242 32.6132 18.6592C32.7571 18.4244 32.8632 18.1683 32.9275 17.9005C33 17.5984 33 17.2774 33 16.6353V16.2C33 14.7299 33 13.9948 32.7139 13.4333C32.4622 12.9393 32.0606 12.5378 31.5667 12.2861C31.0052 12 30.2701 12 28.8 12H7.2C5.72986 12 4.99479 12 4.43328 12.2861C3.93935 12.5378 3.53778 12.9393 3.28611 13.4333C3 13.9948 3 14.7299 3 16.2V16.6353C3 17.2774 3 17.5984 3.07253 17.9005C3.13683 18.1683 3.2429 18.4244 3.38682 18.6592C3.54915 18.9242 3.77615 19.1511 4.23014 19.6051L7.39485 22.7698C7.84885 23.2238 8.07585 23.4508 8.34075 23.6132C8.57562 23.7571 8.83167 23.8632 9.09952 23.9275C9.40162 24 9.72265 24 10.3647 24H25.6353C26.2774 24 26.5984 24 26.9005 23.9275C27.1683 23.8632 27.4244 23.7571 27.6592 23.6132ZM24.375 18.625C24.9273 18.625 25.375 18.1773 25.375 17.625C25.375 17.0727 24.9273 16.625 24.375 16.625H11.625C11.0727 16.625 10.625 17.0727 10.625 17.625C10.625 18.1773 11.0727 18.625 11.625 18.625H24.375Z" fill="white"/>
</svg>
