<svg width="36" height="36" viewBox="0 0 36 36" fill="none" xmlns="http://www.w3.org/2000/svg">
<path fill-rule="evenodd" clip-rule="evenodd" d="M25.6627 23.9988C26.131 23.9991 26.5242 23.9994 26.9049 23.9071C27.2398 23.8258 27.5596 23.6918 27.8523 23.5101C28.1852 23.3035 28.4607 23.023 28.7889 22.6889L32.0719 19.3521C32.2778 19.1434 32.4853 18.9332 32.6389 18.6793C32.7733 18.4571 32.8722 18.2154 32.9322 17.9629C33.0008 17.6741 33.0004 17.3788 32.9999 17.0856L32.9999 15.3639C32.9999 14.9748 32.9999 14.6247 32.9761 14.3334C32.9506 14.0214 32.8929 13.6899 32.7274 13.365C32.4877 12.8946 32.1053 12.5122 31.6348 12.2725C31.3099 12.1069 30.9785 12.0492 30.6665 12.0238C30.3752 12 30.0251 12 29.636 12H6.36515C5.97607 12 5.62595 12 5.33463 12.0238C5.02267 12.0492 4.69119 12.1069 4.36629 12.2725C3.89588 12.5122 3.51343 12.8946 3.27375 13.365C3.1082 13.6899 3.05051 14.0214 3.02502 14.3334C3.00122 14.6247 3.00124 14.9749 3.00126 15.364L3.0012 17.0855C3.00077 17.3788 3.00035 17.6741 3.06892 17.9629C3.12891 18.2154 3.22787 18.4571 3.36226 18.6793C3.51588 18.9332 3.72332 19.1434 3.92926 19.3521L7.21223 22.6889C7.5404 23.023 7.81596 23.3035 8.14878 23.5101C8.44156 23.6918 8.76138 23.8258 9.09625 23.9071C9.47692 23.9994 9.87014 23.9991 10.3384 23.9988H25.6627ZM26.4332 21.9635C26.315 21.9922 26.1775 21.9987 25.5728 21.9987H10.4283C9.82364 21.9987 9.68612 21.9922 9.56789 21.9635C9.43909 21.9322 9.31608 21.8807 9.20348 21.8108C9.10011 21.7466 8.99898 21.6532 8.57492 21.2222L5.40329 17.9985C5.11587 17.7064 5.08968 17.6708 5.07346 17.644C5.04659 17.5996 5.02679 17.5512 5.0148 17.5007C5.00756 17.4702 5.00126 17.4265 5.00126 17.0167V15.4C5.00126 14.9635 5.00204 14.6962 5.01838 14.4962C5.02599 14.4031 5.03555 14.3467 5.04361 14.3125C5.04744 14.2962 5.05066 14.2862 5.05259 14.2808C5.05445 14.2756 5.05556 14.2734 5.05576 14.273C5.1037 14.1789 5.18019 14.1024 5.27427 14.0545C5.27467 14.0543 5.27685 14.0532 5.28205 14.0513C5.28747 14.0494 5.29748 14.0462 5.31376 14.0423C5.34799 14.0343 5.40435 14.0247 5.4975 14.0171C5.69746 14.0008 5.96472 14 6.40126 14H29.5999C30.0364 14 30.3037 14.0008 30.5036 14.0171C30.5968 14.0247 30.6531 14.0343 30.6874 14.0423C30.7037 14.0462 30.7137 14.0494 30.7191 14.0513C30.7243 14.0532 30.7265 14.0543 30.7269 14.0545C30.8209 14.1024 30.8974 14.1789 30.9454 14.273C30.9456 14.2734 30.9467 14.2756 30.9485 14.2808C30.9505 14.2862 30.9537 14.2962 30.9575 14.3125C30.9656 14.3467 30.9751 14.4031 30.9828 14.4962C30.9991 14.6962 30.9999 14.9635 30.9999 15.4V17.0167C30.9999 17.4265 30.9936 17.4702 30.9863 17.5007C30.9743 17.5512 30.9545 17.5996 30.9277 17.644C30.9115 17.6708 30.8853 17.7064 30.5978 17.9985L27.4262 21.2222C27.0022 21.6532 26.901 21.7466 26.7977 21.8108C26.685 21.8807 26.562 21.9322 26.4332 21.9635ZM24.4336 18.615C24.9859 18.615 25.4336 18.1673 25.4336 17.615C25.4336 17.0627 24.9859 16.615 24.4336 16.615H11.5694C11.0171 16.615 10.5694 17.0627 10.5694 17.615C10.5694 18.1673 11.0171 18.615 11.5694 18.615H24.4336Z" fill="white"/>
</svg>
