<svg width="36" height="36" viewBox="0 0 36 36" fill="none" xmlns="http://www.w3.org/2000/svg">
<path fill-rule="evenodd" clip-rule="evenodd" d="M17.875 5C10.7643 5 5 10.7643 5 17.875V19.6266C5.77607 19.0746 6.72513 18.75 7.75 18.75C10.3734 18.75 12.5 20.8766 12.5 23.5V28C12.5 30.6234 10.3734 32.75 7.75 32.75C5.12665 32.75 3 30.6234 3 28V17.875C3 9.65976 9.65976 3 17.875 3C26.0902 3 32.75 9.65976 32.75 17.875V28C32.75 30.6234 30.6234 32.75 28 32.75C25.3766 32.75 23.25 30.6234 23.25 28V23.5C23.25 20.8766 25.3766 18.75 28 18.75C29.0249 18.75 29.9739 19.0746 30.75 19.6266V17.875C30.75 10.7643 24.9857 5 17.875 5ZM30.75 23.5C30.75 21.9812 29.5188 20.75 28 20.75C26.4812 20.75 25.25 21.9812 25.25 23.5V28C25.25 29.5188 26.4812 30.75 28 30.75C29.5188 30.75 30.75 29.5188 30.75 28V23.5ZM5 23.5C5 21.9812 6.23122 20.75 7.75 20.75C9.26878 20.75 10.5 21.9812 10.5 23.5V28C10.5 29.5188 9.26878 30.75 7.75 30.75C6.23122 30.75 5 29.5188 5 28V23.5Z" fill="white"/>
</svg>
