<svg width="36" height="36" viewBox="0 0 36 36" fill="none" xmlns="http://www.w3.org/2000/svg">
<path fill-rule="evenodd" clip-rule="evenodd" d="M16 19.0743V26H18.25V10H16V16.4271H10.7153V10H8.5V26H10.7153V19.0743H16ZM19.8459 11.5621C20.4984 10.8033 21.9568 10 23.9717 10C26.7543 10.0223 28.2511 11.5174 28.2511 13.9721C28.2511 15.8243 27.3491 17.0962 25.9675 17.6764C27.7521 18.0558 28.75 19.2831 28.75 21.4031C28.75 23.9916 27.1189 25.9554 23.8374 26C21.7841 26 20.3065 25.0851 19.75 24.4156V21.4477C20.5943 22.5858 22.0336 23.3668 23.799 23.3445C25.5837 23.3222 26.524 22.4742 26.524 21.113C26.524 19.6402 25.7372 18.9038 23.6647 18.9038H22.1487V16.8954H23.2617C25.0272 16.8954 26.0059 16.2259 26.0059 14.7308C26.0059 13.3027 25.2191 12.6555 23.6455 12.6555C21.9952 12.7001 20.7287 13.3473 19.8459 14.53V11.5621Z" fill="white"/>
</svg>
