<svg width="36" height="36" viewBox="0 0 36 36" fill="none" xmlns="http://www.w3.org/2000/svg">
<path fill-rule="evenodd" clip-rule="evenodd" d="M3.25 13.7369C3.25 10.0163 6.41511 5.5 11.628 5.5C13.1766 5.5 14.5581 6.11429 15.7302 6.9326C16.5675 7.51718 17.3272 8.22606 18 8.94437C18.6728 8.22606 19.4325 7.51718 20.2698 6.9326C21.4419 6.11429 22.8234 5.5 24.372 5.5C29.5849 5.5 32.75 10.0163 32.75 13.7369C32.75 16.9422 31.2508 19.9628 29.1931 22.6401C27.1288 25.326 24.4282 27.7629 21.8565 29.8188C21.8116 29.8547 21.7672 29.8902 21.7234 29.9252C20.7717 30.687 20.0777 31.2425 19.1909 31.4877C18.4499 31.6926 17.5501 31.6926 16.8091 31.4877C15.9223 31.2425 15.2283 30.687 14.2766 29.9252C14.2328 29.8902 14.1885 29.8547 14.1435 29.8188C11.5718 27.7629 8.87121 25.326 6.80694 22.6401C4.74919 19.9628 3.25 16.9422 3.25 13.7369ZM11.628 7.5C7.69646 7.5 5.25 10.9353 5.25 13.7369C5.25 16.3173 6.46423 18.9122 8.39269 21.4213C10.3146 23.922 12.873 26.2425 15.3924 28.2566C16.5335 29.1689 16.8982 29.4373 17.3421 29.56C17.7343 29.6684 18.2657 29.6684 18.6579 29.56C19.1018 29.4373 19.4665 29.1689 20.6076 28.2566C23.127 26.2425 25.6854 23.922 27.6073 21.4213C29.5358 18.9122 30.75 16.3173 30.75 13.7369C30.75 10.9353 28.3035 7.5 24.372 7.5C23.367 7.5 22.3809 7.89786 21.4147 8.57248C20.4469 9.24817 19.5564 10.1617 18.7615 11.0956L18 11.9902L17.2385 11.0956C16.4436 10.1617 15.5531 9.24817 14.5853 8.57248C13.619 7.89786 12.633 7.5 11.628 7.5Z" fill="white"/>
</svg>
