<svg width="36" height="36" viewBox="0 0 36 36" fill="none" xmlns="http://www.w3.org/2000/svg">
<path fill-rule="evenodd" clip-rule="evenodd" d="M10.0449 3.75C9.49264 3.75 9.04492 4.19772 9.04492 4.75C9.04492 5.30228 9.49264 5.75 10.0449 5.75H25.9531C26.5054 5.75 26.9531 5.30228 26.9531 4.75C26.9531 4.19772 26.5054 3.75 25.9531 3.75H10.0449ZM10.2587 8.29286H25.7399C26.5449 8.29285 27.2092 8.29284 27.7504 8.33705C28.3125 8.38298 28.8292 8.48154 29.3146 8.72883C30.0672 9.11233 30.6791 9.72425 31.0626 10.4769C31.3099 10.9622 31.4085 11.4789 31.4544 12.041C31.4986 12.5822 31.4986 13.2466 31.4986 14.0515V26.4903C31.4986 27.2953 31.4986 27.9596 31.4544 28.5008C31.4085 29.0629 31.3099 29.5796 31.0626 30.0649C30.6791 30.8176 30.0672 31.4295 29.3146 31.813C28.8292 32.0603 28.3125 32.1589 27.7504 32.2048C27.2092 32.249 26.5449 32.249 25.7399 32.249H10.2587C9.45372 32.249 8.78937 32.249 8.24818 32.2048C7.68608 32.1589 7.16937 32.0603 6.68404 31.813C5.93139 31.4295 5.31947 30.8176 4.93597 30.0649C4.68868 29.5796 4.59012 29.0629 4.54419 28.5008C4.49998 27.9596 4.49999 27.2952 4.5 26.4903V14.0516C4.49999 13.2466 4.49998 12.5822 4.54419 12.041C4.59012 11.4789 4.68868 10.9622 4.93597 10.4769C5.31947 9.72425 5.93139 9.11233 6.68404 8.72883C7.16937 8.48154 7.68608 8.38298 8.24817 8.33705C8.78937 8.29284 9.45373 8.29285 10.2587 8.29286ZM8.41104 10.3304C7.97262 10.3662 7.74842 10.4312 7.59202 10.5108C7.2157 10.7026 6.90973 11.0086 6.71799 11.3849C6.6383 11.5413 6.57337 11.7655 6.53755 12.2039C6.50078 12.654 6.5 13.2363 6.5 14.0929V26.449C6.5 27.3056 6.50078 27.8878 6.53755 28.3379C6.57337 28.7764 6.6383 29.0006 6.71799 29.157C6.90973 29.5333 7.2157 29.8392 7.59202 30.031C7.74842 30.1107 7.97262 30.1756 8.41104 30.2114C8.86113 30.2482 9.44342 30.249 10.3 30.249H25.6986C26.5552 30.249 27.1375 30.2482 27.5876 30.2114C28.026 30.1756 28.2502 30.1107 28.4066 30.031C28.7829 29.8392 29.0889 29.5333 29.2806 29.157C29.3603 29.0006 29.4252 28.7764 29.4611 28.3379C29.4978 27.8878 29.4986 27.3056 29.4986 26.449V14.0929C29.4986 13.2363 29.4978 12.654 29.4611 12.2039C29.4252 11.7655 29.3603 11.5413 29.2806 11.3849C29.0889 11.0086 28.7829 10.7026 28.4066 10.5108C28.2502 10.4312 28.026 10.3662 27.5876 10.3304C27.1375 10.2936 26.5552 10.2929 25.6986 10.2929H10.3C9.44342 10.2929 8.86113 10.2936 8.41104 10.3304ZM10.1816 17.7643C10.1816 15.6945 11.9417 13.2139 14.84 13.2139C15.7419 13.2139 16.5252 13.5681 17.1585 14.0056C17.4609 14.2145 17.7417 14.451 17.9994 14.6956C18.2572 14.451 18.538 14.2145 18.8404 14.0056C19.4737 13.5681 20.257 13.2139 21.1589 13.2139C24.0572 13.2139 25.8172 15.6945 25.8172 17.7643C25.8172 19.5471 24.9537 21.1791 23.856 22.5614C22.75 23.9541 21.3219 25.1995 20.006 26.2252L19.9183 26.2938C19.5362 26.5931 19.1458 26.8989 18.6538 27.0323C18.2391 27.1448 17.7598 27.1448 17.3451 27.0323C16.8531 26.8989 16.4626 26.5931 16.0806 26.2938L15.9929 26.2252C14.677 25.1995 13.2488 23.9541 12.1429 22.5614C11.0452 21.1791 10.1816 19.5471 10.1816 17.7643ZM14.84 15.2139C13.204 15.2139 12.1816 16.6344 12.1816 17.7643C12.1816 18.8993 12.7396 20.0967 13.7092 21.3177C14.6705 22.5284 15.9554 23.6602 17.2225 24.6478C17.7555 25.0633 17.8154 25.0877 17.8686 25.1021C17.9405 25.1216 18.0584 25.1216 18.1303 25.1021C18.1835 25.0877 18.2434 25.0633 18.7764 24.6478C20.0434 23.6602 21.3284 22.5284 22.2897 21.3177C23.2593 20.0967 23.8172 18.8993 23.8172 17.7643C23.8172 16.6344 22.7949 15.2139 21.1589 15.2139C20.7947 15.2139 20.4041 15.3562 19.9771 15.6512C19.5484 15.9473 19.1395 16.3587 18.7575 16.8026C18.5676 17.0235 18.2907 17.1505 17.9994 17.1505C17.7081 17.1505 17.4313 17.0235 17.2414 16.8026C16.8594 16.3587 16.4505 15.9473 16.0218 15.6512C15.5948 15.3562 15.2042 15.2139 14.84 15.2139Z" fill="white"/>
</svg>
