<svg width="36" height="36" viewBox="0 0 36 36" fill="none" xmlns="http://www.w3.org/2000/svg">
<path d="M30.9229 8.70694C32.1066 10.2207 32.7499 12.0592 32.75 13.7362C32.75 16.9415 31.251 19.9623 29.1934 22.6396C27.1291 25.3254 24.4281 27.7624 21.8564 29.8183L21.7236 29.9247C20.7719 30.6865 20.0773 31.242 19.1904 31.4872C18.4497 31.6919 17.5503 31.6919 16.8096 31.4872C15.9227 31.242 15.2281 30.6865 14.2764 29.9247L14.1436 29.8183C13.3625 29.1939 12.5695 28.5346 11.7861 27.8437L13.2031 26.4267C13.9251 27.0604 14.6607 27.6716 15.3926 28.2567C16.5332 29.1686 16.8981 29.4367 17.3418 29.5595C17.734 29.6679 18.266 29.6679 18.6582 29.5595C19.1019 29.4367 19.4668 29.1686 20.6074 28.2567C23.1268 26.2427 25.6855 23.9214 27.6074 21.4208C29.5358 18.9118 30.75 16.3166 30.75 13.7362C30.7499 12.5453 30.3075 11.2401 29.4971 10.1327L30.9229 8.70694Z" fill="white"/>
<path fill-rule="evenodd" clip-rule="evenodd" d="M29.749 4.29287C30.1396 3.90239 30.7726 3.90236 31.1631 4.29287C31.5534 4.6834 31.5535 5.31646 31.1631 5.70694L5.70703 31.163C5.31655 31.5533 4.68345 31.5533 4.29297 31.163C3.9025 30.7725 3.90261 30.1395 4.29297 29.7489L8.93164 25.1093C8.17581 24.3139 7.45941 23.4889 6.80664 22.6396C4.74904 19.9623 3.25 16.9415 3.25 13.7362C3.25023 10.0157 6.41526 5.49997 11.6279 5.4999C13.1765 5.4999 14.5584 6.11422 15.7305 6.93252C16.5677 7.51707 17.3272 8.22599 18 8.94424C18.6728 8.22599 19.4323 7.51707 20.2695 6.93252C21.4416 6.11421 22.8235 5.4999 24.3721 5.4999C25.6456 5.49992 26.7968 5.76969 27.8096 6.23135L29.749 4.29287ZM24.3721 7.4999C23.3672 7.4999 22.3812 7.89768 21.415 8.57217C20.4472 9.24787 19.5566 10.1618 18.7617 11.0956L18 11.9901L17.2383 11.0956C16.4434 10.1618 15.5528 9.24787 14.585 8.57217C13.6188 7.89767 12.6328 7.4999 11.6279 7.4999C7.6966 7.49997 5.25024 10.9348 5.25 13.7362C5.25 16.3166 6.46424 18.9118 8.39258 21.4208C8.98927 22.1972 9.64751 22.9564 10.3467 23.6942L26.2578 7.78311C25.676 7.60171 25.046 7.49992 24.3721 7.4999Z" fill="white"/>
</svg>
