<svg width="36" height="36" viewBox="0 0 36 36" fill="none" xmlns="http://www.w3.org/2000/svg">
<path fill-rule="evenodd" clip-rule="evenodd" d="M29.5181 7.28353C28.1674 6.20333 26.4291 5.5 24.372 5.5C22.8234 5.5 21.4419 6.11429 20.2698 6.9326C19.4325 7.51718 18.6728 8.22606 18 8.94437C17.3272 8.22606 16.5675 7.51718 15.7302 6.9326C14.5581 6.11429 13.1766 5.5 11.628 5.5C6.41511 5.5 3.25 10.0163 3.25 13.7369C3.25 16.9422 4.74919 19.9628 6.80694 22.6401C7.84621 23.9923 9.04678 25.2814 10.311 26.4906L11.7256 25.076C10.5094 23.9153 9.36894 22.6916 8.39269 21.4213C6.46423 18.9122 5.25 16.3173 5.25 13.7369C5.25 10.9353 7.69646 7.5 11.628 7.5C12.633 7.5 13.619 7.89786 14.5853 8.57248C15.5531 9.24817 16.4436 10.1617 17.2385 11.0956L18 11.9902L18.7615 11.0956C19.5564 10.1617 20.4469 9.24817 21.4147 8.57247C22.3809 7.89786 23.367 7.5 24.372 7.5C25.8321 7.5 27.0874 7.97382 28.0886 8.71303L29.5181 7.28353ZM30.923 8.70704L29.4973 10.1327C30.3078 11.2402 30.75 12.5458 30.75 13.7369C30.75 16.3173 29.5358 18.9122 27.6073 21.4213C25.6854 23.922 23.127 26.2425 20.6076 28.2566C19.4665 29.1689 19.1018 29.4373 18.6579 29.56C18.2657 29.6684 17.7343 29.6684 17.3421 29.56C16.8982 29.4373 16.5335 29.1689 15.3924 28.2566C14.6604 27.6715 13.9252 27.0605 13.2033 26.4267L11.7862 27.8439C12.5695 28.5349 13.3625 29.1944 14.1435 29.8188L14.2766 29.9252C15.2283 30.687 15.9223 31.2425 16.8091 31.4877C17.5501 31.6926 18.4499 31.6926 19.1909 31.4877C20.0777 31.2425 20.7717 30.687 21.7234 29.9252L21.8565 29.8188C24.4282 27.7629 27.1288 25.326 29.1931 22.6401C31.2508 19.9628 32.75 16.9422 32.75 13.7369C32.75 12.0597 32.1069 10.221 30.923 8.70704Z" fill="white"/>
<path fill-rule="evenodd" clip-rule="evenodd" d="M31.163 4.29289C31.5535 4.68342 31.5535 5.31658 31.163 5.70711L5.70711 31.163C5.31658 31.5535 4.68342 31.5535 4.29289 31.163C3.90237 30.7724 3.90237 30.1393 4.29289 29.7487L29.7487 4.29289C30.1393 3.90237 30.7724 3.90237 31.163 4.29289Z" fill="white"/>
</svg>
