<svg width="36" height="36" viewBox="0 0 36 36" fill="none" xmlns="http://www.w3.org/2000/svg">
<path fill-rule="evenodd" clip-rule="evenodd" d="M14.1273 10.125C10.611 10.125 8.47485 13.1372 8.47485 15.6464C8.47485 17.8901 9.59802 19.9485 11.0193 21.6921C12.4518 23.4494 14.2927 25.0158 15.957 26.2919L16.0503 26.3637C16.4327 26.6587 16.8464 26.9777 17.3583 27.1148C17.7926 27.2311 18.2821 27.2311 18.7164 27.1148C19.2283 26.9777 19.642 26.6587 20.0244 26.3637L20.1177 26.2919C21.782 25.0158 23.623 23.4494 25.0554 21.6921C26.4767 19.9485 27.5999 17.8901 27.5999 15.6464C27.5999 13.1372 25.4638 10.125 21.9474 10.125C20.8613 10.125 19.9139 10.5518 19.1418 11.0855C18.7428 11.3612 18.3738 11.677 18.0374 12.0029C17.7009 11.677 17.3319 11.3612 16.9329 11.0855C16.1608 10.5518 15.2134 10.125 14.1273 10.125ZM10.7249 15.6464C10.7249 14.1934 12.0322 12.375 14.1273 12.375C14.6081 12.375 15.1136 12.5631 15.6536 12.9364C16.1955 13.311 16.7089 13.8286 17.1843 14.3815C17.398 14.63 17.7095 14.773 18.0374 14.773C18.3652 14.773 18.6767 14.63 18.8904 14.3815C19.3658 13.8286 19.8792 13.311 20.4211 12.9364C20.9611 12.5631 21.4666 12.375 21.9474 12.375C24.0425 12.375 25.3499 14.1934 25.3499 15.6464C25.3499 17.1392 24.5914 18.7002 23.3114 20.2705C22.0427 21.827 20.3628 23.2687 18.7486 24.5064C18.4956 24.7004 18.3547 24.8074 18.2432 24.8801C18.1937 24.9123 18.165 24.9276 18.15 24.9348C18.1429 24.9383 18.1372 24.9405 18.1372 24.9405L18.1344 24.9414C18.0813 24.9556 17.9934 24.9556 17.9404 24.9414L17.9375 24.9405C17.9375 24.9405 17.9318 24.9383 17.9247 24.9348C17.9097 24.9276 17.881 24.9123 17.8315 24.8801C17.72 24.8074 17.5791 24.7004 17.3261 24.5064C15.7119 23.2687 14.032 21.827 12.7633 20.2705C11.4833 18.7002 10.7249 17.1392 10.7249 15.6464Z" fill="white"/>
<path fill-rule="evenodd" clip-rule="evenodd" d="M18 3C9.71573 3 3 9.71573 3 18C3 26.2843 9.71573 33 18 33C26.2843 33 33 26.2843 33 18C33 9.71573 26.2843 3 18 3ZM5.25 18C5.25 10.9584 10.9584 5.25 18 5.25C25.0416 5.25 30.75 10.9584 30.75 18C30.75 25.0416 25.0416 30.75 18 30.75C10.9584 30.75 5.25 25.0416 5.25 18Z" fill="white"/>
</svg>
