<svg width="36" height="36" viewBox="0 0 36 36" fill="none" xmlns="http://www.w3.org/2000/svg">
<path fill-rule="evenodd" clip-rule="evenodd" d="M5 17.9994C5 10.82 10.82 5 17.9994 5C25.1788 5 30.9989 10.82 30.9989 17.9994C30.9989 25.1788 25.1788 30.9989 17.9994 30.9989C10.82 30.9989 5 25.1788 5 17.9994ZM17.9994 3C9.71548 3 3 9.71548 3 17.9994C3 26.2834 9.71548 32.9989 17.9994 32.9989C26.2834 32.9989 32.9989 26.2834 32.9989 17.9994C32.9989 9.71548 26.2834 3 17.9994 3ZM15.4898 11.316C14.9524 11.734 14.457 12.5308 14.457 14.2157C14.457 14.7679 14.0093 15.2157 13.457 15.2157C12.9047 15.2157 12.457 14.7679 12.457 14.2157C12.457 12.1168 13.0967 10.6435 14.262 9.73727C15.3763 8.87054 16.7846 8.6753 17.9974 8.6753C19.2102 8.6753 20.6185 8.87054 21.7328 9.73727C22.898 10.6435 23.5378 12.1168 23.5378 14.2157C23.5378 16.6314 22.0183 17.8416 20.8676 18.7047C19.603 19.6531 18.9974 20.1084 18.9974 21.0262C18.9974 21.5785 18.5497 22.0262 17.9974 22.0262C17.4451 22.0262 16.9974 21.5785 16.9974 21.0262C16.9974 19.0728 18.4253 18.0208 19.435 17.277C19.5153 17.2179 19.5935 17.1602 19.6676 17.1047C20.787 16.2652 21.5378 15.5835 21.5378 14.2157C21.5378 12.5308 21.0424 11.734 20.5049 11.316C19.9167 10.8584 19.0548 10.6753 17.9974 10.6753C16.94 10.6753 16.0781 10.8584 15.4898 11.316ZM19.5113 24.8097C19.5113 25.6455 18.8337 26.3231 17.9978 26.3231C17.162 26.3231 16.4844 25.6455 16.4844 24.8097C16.4844 23.9738 17.162 23.2962 17.9978 23.2962C18.8337 23.2962 19.5113 23.9738 19.5113 24.8097Z" fill="white"/>
</svg>
