<svg width="36" height="36" viewBox="0 0 36 36" fill="none" xmlns="http://www.w3.org/2000/svg">
<path d="M19.5 4.5C21.1569 4.5 22.5 5.84315 22.5 7.5V10.5C22.5 12.1569 21.1569 13.5 19.5 13.5H19V17H26.25C28.0449 17 29.5 18.4551 29.5 20.25V22.5H30C31.6569 22.5 33 23.8431 33 25.5V28.5C33 30.1569 31.6569 31.5 30 31.5H27C25.3431 31.5 24 30.1569 24 28.5V25.5C24 23.8431 25.3431 22.5 27 22.5H27.5V20.25C27.5 19.5596 26.9404 19 26.25 19H19V22.5H19.5C21.1569 22.5 22.5 23.8431 22.5 25.5V28.5C22.5 30.1569 21.1569 31.5 19.5 31.5H16.5C14.8431 31.5 13.5 30.1569 13.5 28.5V25.5C13.5 23.8431 14.8431 22.5 16.5 22.5H17V19H9.75C9.05964 19 8.5 19.5596 8.5 20.25V22.5H9C10.6569 22.5 12 23.8431 12 25.5V28.5C12 30.1569 10.6569 31.5 9 31.5H6C4.34315 31.5 3 30.1569 3 28.5V25.5C3 23.8431 4.34315 22.5 6 22.5H6.5V20.25C6.5 18.4551 7.95507 17 9.75 17H17V13.5H16.5C14.8431 13.5 13.5 12.1569 13.5 10.5V7.5C13.5 5.84315 14.8431 4.5 16.5 4.5H19.5Z" fill="white"/>
</svg>
