<svg width="36" height="36" viewBox="0 0 36 36" fill="none" xmlns="http://www.w3.org/2000/svg">
<path fill-rule="evenodd" clip-rule="evenodd" d="M18.5204 6.14753C18.1778 6.07061 17.8224 6.07061 17.4798 6.14753C17.1313 6.22578 16.7821 6.4257 15.6922 7.09714L7.0922 12.3954C6.09985 13.0067 5.79411 13.208 5.57872 13.457C5.36698 13.7018 5.20752 13.9874 5.11013 14.2961C5.01107 14.6101 5.0001 14.9759 5.0001 16.1415V26.1008C5.0001 27.0624 5.00087 27.7234 5.04276 28.236C5.08368 28.737 5.15883 29.0075 5.25895 29.204C5.48665 29.6509 5.84998 30.0142 6.29687 30.2419C6.49338 30.342 6.76389 30.4172 7.26483 30.4581C7.77745 30.5 8.4385 30.5008 9.40009 30.5008H17.3785V22.9129C17.3785 20.062 19.6897 17.7508 22.5406 17.7508C25.3916 17.7508 27.7028 20.062 27.7028 22.9129V30.4978C28.1122 30.4938 28.4447 30.4844 28.7295 30.4623C29.2058 30.4253 29.4644 30.3573 29.6524 30.2671C30.1397 30.0333 30.5326 29.6404 30.7664 29.1531C30.8566 28.965 30.9246 28.7065 30.9616 28.2301C30.9994 27.7429 31.0001 27.1158 31.0001 26.2035V16.1415C31.0001 14.9759 30.9891 14.6101 30.8901 14.2961C30.7927 13.9874 30.6332 13.7018 30.4215 13.457C30.2061 13.208 29.9003 13.0067 28.908 12.3954L20.308 7.09714C19.2181 6.4257 18.8689 6.22578 18.5204 6.14753ZM25.7028 30.5008V22.9129C25.7028 21.1665 24.2871 19.7508 22.5406 19.7508C20.7942 19.7508 19.3785 21.1665 19.3785 22.9129V30.5008H25.7028ZM17.0417 4.19612C17.6728 4.05442 18.3274 4.05442 18.9585 4.19612C19.6753 4.35706 20.3255 4.75809 21.2211 5.31055C21.2658 5.33811 21.3111 5.36604 21.357 5.39434L29.957 10.6926C29.9986 10.7182 30.0397 10.7434 30.0802 10.7684C30.8977 11.2714 31.4916 11.6369 31.9342 12.1487C32.3243 12.5997 32.618 13.1257 32.7974 13.6943C33.001 14.3397 33.0006 15.037 33.0001 15.9969C33.0001 16.0445 33.0001 16.0926 33.0001 16.1415V26.2433C33.0001 27.1062 33.0001 27.8112 32.9556 28.3849C32.9095 28.9782 32.8115 29.5142 32.5696 30.0183C32.139 30.9158 31.4151 31.6397 30.5176 32.0703C30.0135 32.3121 29.4776 32.4102 28.8842 32.4563C28.3105 32.5008 27.6055 32.5008 26.7426 32.5008H9.35811C8.44867 32.5008 7.70566 32.5008 7.10197 32.4515C6.47734 32.4004 5.91433 32.2917 5.38889 32.0239C4.56568 31.6045 3.89639 30.9352 3.47694 30.112C3.20921 29.5865 3.10043 29.0235 3.0494 28.3989C3.00007 27.7952 3.00008 27.0522 3.00009 26.1427L3.0001 16.1415C3.0001 16.0926 3.00007 16.0445 3.00005 15.9969C2.99956 15.037 2.99921 14.3397 3.20279 13.6943C3.38219 13.1257 3.67593 12.5997 4.06598 12.1487C4.50863 11.6369 5.10251 11.2714 5.92004 10.7684C5.96053 10.7434 6.00156 10.7182 6.04316 10.6926L14.6432 5.39434C14.6891 5.36604 14.7344 5.33811 14.7791 5.31055C15.6747 4.7581 16.3249 4.35706 17.0417 4.19612Z" fill="white"/>
</svg>
