<svg width="36" height="36" viewBox="0 0 36 36" fill="none" xmlns="http://www.w3.org/2000/svg">
<path fill-rule="evenodd" clip-rule="evenodd" d="M11.0852 3.00008C10.2011 2.99942 9.51737 2.99892 8.92773 3.17778C7.60938 3.5777 6.5777 4.60938 6.17778 5.92773C5.99892 6.51737 5.99942 7.20113 6.00008 8.08524L6.00016 8.25016C6.00016 10.7727 7.54527 13.0019 9.15971 14.6698C10.539 16.0947 12.1049 17.2495 13.2329 18.0002C12.1049 18.7509 10.539 19.9056 9.15971 21.3305C7.54527 22.9984 6.00016 25.2277 6.00016 27.7502L6.00008 27.9151C5.99942 28.7992 5.99892 29.4829 6.17778 30.0726C6.5777 31.3909 7.60938 32.4226 8.92774 32.8225C9.51737 33.0014 10.2011 33.0009 11.0852 33.0002H24.9151C25.7992 33.0009 26.4829 33.0014 27.0726 32.8225C28.3909 32.4226 29.4226 31.3909 29.8225 30.0726C30.0014 29.4829 30.0009 28.7992 30.0002 27.9151L30.0002 27.7502C30.0002 25.2276 28.455 22.9984 26.8406 21.3305C25.4614 19.9056 23.8954 18.7509 22.7674 18.0002C23.8954 17.2495 25.4614 16.0947 26.8406 14.6698C28.455 13.0019 30.0002 10.7727 30.0002 8.25016L30.0002 8.08524C30.0009 7.20113 30.0014 6.51737 29.8225 5.92773C29.4226 4.60938 28.3909 3.5777 27.0726 3.17778C26.4829 2.99892 25.7992 2.99942 24.9151 3.00008H11.0852ZM19.7674 21.418L19.7347 21.3975C18.7705 20.7917 17.3845 20.6951 16.2664 21.3975L16.2338 21.418C15.2539 22.0355 13.6816 23.1298 12.3935 24.4606C11.3806 25.5071 10.6711 26.5548 10.5291 27.9147C10.5104 28.0941 10.501 28.1837 10.5377 28.2719C10.5676 28.3437 10.6326 28.4167 10.7004 28.4548C10.7837 28.5015 10.8848 28.5028 11.0871 28.5053C15.6936 28.5637 20.3076 28.5637 24.914 28.5053C25.1163 28.5028 25.2175 28.5015 25.3008 28.4548C25.3686 28.4167 25.4335 28.3437 25.4634 28.2719C25.5001 28.1837 25.4908 28.0941 25.472 27.9147C25.33 26.5548 24.6206 25.5071 23.6076 24.4606C22.3195 23.1298 20.7473 22.0355 19.7674 21.418Z" fill="white"/>
</svg>
