<svg width="36" height="36" viewBox="0 0 36 36" fill="none" xmlns="http://www.w3.org/2000/svg">
<path fill-rule="evenodd" clip-rule="evenodd" d="M11.0024 3.00006C11.0549 3.0001 11.1082 3.00013 11.1623 3.00013H24.838C24.8921 3.00013 24.9454 3.0001 24.9979 3.00006C25.9225 2.99948 26.6099 2.99905 27.1985 3.18385C28.4468 3.57582 29.4244 4.55351 29.8164 5.80181C30.0012 6.39032 30.0008 7.07773 30.0002 8.00237C30.0002 8.0549 30.0001 8.1082 30.0001 8.16229C30.0001 10.6574 28.4643 12.8766 26.8361 14.5529C25.3811 16.0511 23.7186 17.2523 22.5751 18.0001C23.7186 18.748 25.3811 19.9492 26.8361 21.4473C28.4643 23.1237 30.0001 25.3428 30.0001 27.838C30.0001 27.8921 30.0002 27.9454 30.0002 27.9979C30.0008 28.9225 30.0012 29.6099 29.8164 30.1984C29.4244 31.4468 28.4468 32.4244 27.1984 32.8164C26.6099 33.0012 25.9225 33.0008 24.9979 33.0002C24.9454 33.0002 24.8921 33.0001 24.838 33.0001H11.1623C11.1082 33.0001 11.0549 33.0002 11.0024 33.0002C10.0777 33.0008 9.39032 33.0012 8.80181 32.8164C7.55351 32.4244 6.57581 31.4468 6.18384 30.1984C5.99905 29.6099 5.99948 28.9225 6.00006 27.9979C6.0001 27.9454 6.00013 27.8921 6.00013 27.838C6.00013 25.3428 7.53594 23.1237 9.16413 21.4473C10.6192 19.9492 12.2817 18.748 13.4252 18.0001C12.2817 17.2523 10.6192 16.0511 9.16413 14.5529C7.53594 12.8766 6.00013 10.6574 6.00013 8.16229C6.00013 8.1082 6.0001 8.0549 6.00006 8.00237C5.99948 7.07773 5.99905 6.39032 6.18385 5.80181C6.57582 4.55351 7.55351 3.57582 8.80181 3.18385C9.39032 2.99905 10.0777 2.99948 11.0024 3.00006ZM14.1878 18.4927C14.1878 18.4927 14.1874 18.4924 14.1867 18.4917L14.1878 18.4927ZM11.1623 5.00013C10.0056 5.00013 9.65664 5.01171 9.40097 5.09199C8.77682 5.28797 8.28797 5.77682 8.09199 6.40097C8.01171 6.65664 8.00013 7.00563 8.00013 8.16229C8.00013 9.8555 9.07265 11.5882 10.5988 13.1595C12.0963 14.7013 13.871 15.924 14.9328 16.5911L14.9567 16.606C15.0985 16.6951 15.2498 16.7901 15.3688 16.8782C15.4721 16.9548 15.7195 17.1419 15.8554 17.4597C16.0055 17.8109 16.0055 18.1894 15.8554 18.5406C15.7195 18.8584 15.4721 19.0454 15.3688 19.122C15.2498 19.2102 15.0985 19.3052 14.9567 19.3942L14.9328 19.4092C13.871 20.0762 12.0963 21.2989 10.5988 22.8408C9.07265 24.4121 8.00013 26.1448 8.00013 27.838C8.00013 28.9946 8.01171 29.3436 8.09199 29.5993C8.28797 30.2234 8.77682 30.7123 9.40097 30.9083C9.65664 30.9886 10.0056 31.0001 11.1623 31.0001H24.838C25.9946 31.0001 26.3436 30.9886 26.5993 30.9083C27.2234 30.7123 27.7123 30.2234 27.9083 29.5993C27.9886 29.3436 28.0001 28.9946 28.0001 27.838C28.0001 26.1448 26.9276 24.4121 25.4014 22.8408C23.9039 21.2989 22.1293 20.0762 21.0674 19.4092L21.0436 19.3942C20.9018 19.3052 20.7505 19.2102 20.6315 19.122C20.5282 19.0454 20.2807 18.8584 20.1449 18.5406C19.9948 18.1894 19.9948 17.8109 20.1449 17.4597C20.2807 17.1419 20.5282 16.9548 20.6315 16.8782C20.7505 16.7901 20.9018 16.6951 21.0436 16.606L21.0674 16.5911C22.1293 15.924 23.9039 14.7013 25.4014 13.1595C26.9276 11.5882 28.0001 9.8555 28.0001 8.16229C28.0001 7.00563 27.9886 6.65664 27.9083 6.40097C27.7123 5.77682 27.2234 5.28797 26.5993 5.09199C26.3436 5.01171 25.9946 5.00013 24.838 5.00013H11.1623Z" fill="white"/>
</svg>
