<svg width="36" height="36" viewBox="0 0 36 36" fill="none" xmlns="http://www.w3.org/2000/svg">
<path d="M19.7856 21.464L19.7525 21.4432C18.7767 20.8292 17.3739 20.7313 16.2423 21.4432L16.2093 21.464C15.2176 22.0898 13.6263 23.1989 12.3226 24.5477C11.2866 25.6195 10.5643 26.6927 10.4313 28.0924C10.4151 28.2639 10.4069 28.3497 10.4439 28.4312C10.4743 28.4982 10.5378 28.5646 10.6053 28.6C10.6875 28.6431 10.7882 28.6444 10.9896 28.6469C15.6589 28.7063 20.336 28.7063 25.0052 28.6469C25.2067 28.6444 25.3074 28.6431 25.3896 28.6C25.4571 28.5646 25.5206 28.4982 25.551 28.4312C25.588 28.3497 25.5798 28.2639 25.5635 28.0924C25.4306 26.6928 24.7083 25.6195 23.6723 24.5477C22.3686 23.1989 20.7773 22.0898 19.7856 21.464Z" fill="white"/>
<path fill-rule="evenodd" clip-rule="evenodd" d="M11.3916 3C10.7442 2.99999 10.2097 2.99999 9.77198 3.02741C9.31818 3.05584 8.8981 3.11668 8.4926 3.27042C7.48734 3.65154 6.69055 4.40332 6.28661 5.35179C6.12366 5.73439 6.05919 6.13074 6.02905 6.5589C5.99999 6.97193 5.99999 7.47615 6 8.087V8.11824C6 10.605 7.54603 12.8348 9.20292 14.5315C10.6882 16.0525 12.3797 17.2642 13.5114 18C12.3797 18.7358 10.6882 19.9475 9.20292 21.4685C7.54603 23.1652 6 25.395 6 27.8818V27.913C5.99999 28.5238 5.99999 29.0281 6.02905 29.4411C6.05919 29.8693 6.12366 30.2656 6.28661 30.6482C6.69055 31.5967 7.48735 32.3485 8.4926 32.7296C8.8981 32.8833 9.31818 32.9442 9.77198 32.9726C10.2097 33 10.7442 33 11.3916 33H24.6083C25.2557 33 25.7903 33 26.228 32.9726C26.6818 32.9442 27.1019 32.8833 27.5074 32.7296C28.5127 32.3485 29.3095 31.5967 29.7134 30.6482C29.8763 30.2656 29.9408 29.8693 29.9709 29.4411C30 29.0281 30 28.5239 30 27.9131V27.8818C30 25.395 28.454 23.1652 26.7971 21.4685C25.3118 19.9475 23.6203 18.7358 22.4886 18C23.6203 17.2642 25.3118 16.0525 26.7971 14.5315C28.454 12.8348 30 10.605 30 8.11824V8.08699C30 7.47619 30 6.97191 29.9709 6.5589C29.9408 6.13074 29.8763 5.73439 29.7134 5.35179C29.3095 4.40332 28.5127 3.65154 27.5074 3.27042C27.1019 3.11668 26.6818 3.05584 26.228 3.02741C25.7903 2.99999 25.2558 2.99999 24.6084 3H11.3916ZM9.23356 5.01021C9.36299 4.96114 9.54816 4.92056 9.90365 4.89829C10.2677 4.87548 10.7359 4.875 11.4247 4.875H24.5753C25.2641 4.875 25.7323 4.87548 26.0963 4.89829C26.4518 4.92056 26.637 4.96114 26.7664 5.01021C27.2691 5.20077 27.6675 5.57666 27.8694 6.05089C27.9214 6.17302 27.9644 6.34772 27.9881 6.68313C28.0122 7.02665 28.0127 7.46838 28.0127 8.11824C28.0127 9.88905 26.8858 11.6735 25.3356 13.261C23.8091 14.8242 22.0123 16.0532 20.9746 16.7026L20.952 16.7168C20.8218 16.7982 20.6803 16.8867 20.5685 16.9691C20.4679 17.0432 20.2386 17.2171 20.1117 17.5051C19.9697 17.8274 19.9697 18.1726 20.1117 18.4949C20.2386 18.7829 20.4679 18.9568 20.5685 19.0309C20.6802 19.1132 20.8216 19.2017 20.9518 19.2831L20.9746 19.2974C22.0123 19.9468 23.8091 21.1758 25.3356 22.739C26.8858 24.3265 28.0127 26.1109 28.0127 27.8818C28.0127 28.5316 28.0122 28.9733 27.9881 29.3169C27.9644 29.6523 27.9214 29.827 27.8694 29.9491C27.6675 30.4233 27.2691 30.7992 26.7664 30.9898C26.637 31.0389 26.4518 31.0794 26.0963 31.1017C25.7323 31.1245 25.2641 31.125 24.5753 31.125H11.4247C10.7359 31.125 10.2677 31.1245 9.90365 31.1017C9.54816 31.0794 9.36299 31.0389 9.23356 30.9898C8.73093 30.7992 8.33254 30.4233 8.13056 29.9491C8.07855 29.827 8.03555 29.6523 8.01195 29.3169C7.98777 28.9733 7.98726 28.5316 7.98726 27.8818C7.98726 26.1109 9.11417 24.3265 10.6644 22.739C12.1909 21.1758 13.9877 19.9468 15.0254 19.2974L15.048 19.2833C15.1782 19.2018 15.3197 19.1133 15.4315 19.0309C15.5321 18.9568 15.7614 18.7829 15.8883 18.4949C16.0303 18.1726 16.0303 17.8274 15.8883 17.5051C15.7614 17.2171 15.5321 17.0432 15.4315 16.9691C15.3197 16.8867 15.1782 16.7982 15.048 16.7167L15.0254 16.7026C13.9877 16.0532 12.1909 14.8242 10.6644 13.261C9.11417 11.6735 7.98726 9.88905 7.98726 8.11824C7.98726 7.46838 7.98777 7.02665 8.01195 6.68313C8.03555 6.34772 8.07855 6.17302 8.13056 6.05089C8.33254 5.57666 8.73093 5.20077 9.23356 5.01021Z" fill="white"/>
</svg>
