<svg width="36" height="36" viewBox="0 0 36 36" fill="none" xmlns="http://www.w3.org/2000/svg">
<path fill-rule="evenodd" clip-rule="evenodd" d="M17.3817 5.08175C17.7863 4.97275 18.2126 4.97275 18.6173 5.08175C19.0287 5.19259 19.4356 5.48331 20.6897 6.45233L32.6375 15.6841C33.0745 16.0218 33.7025 15.9412 34.0402 15.5042C34.3779 15.0672 34.2974 14.4392 33.8603 14.1015L21.7538 4.74688C20.7285 3.95362 19.9861 3.37921 19.1375 3.1506C18.3921 2.9498 17.6069 2.9498 16.8615 3.1506C16.0129 3.37921 15.2705 3.95362 14.2452 4.74688L2.13863 14.1015C1.7016 14.4392 1.62106 15.0672 1.95874 15.5042C2.29642 15.9412 2.92445 16.0218 3.36147 15.6841L15.3092 6.45233C16.5633 5.48331 16.9703 5.19259 17.3817 5.08175ZM6.41899 17.9331C6.41899 17.3808 5.97128 16.9331 5.41899 16.9331C4.86671 16.9331 4.41899 17.3808 4.41899 17.9331L4.41899 26.6385C4.41898 27.548 4.41897 28.291 4.4683 28.8947C4.51933 29.5193 4.62811 30.0823 4.89584 30.6078C5.31529 31.431 5.98458 32.1003 6.80778 32.5197C7.33323 32.7875 7.89624 32.8962 8.52087 32.9473C9.12454 32.9966 9.86753 32.9966 10.7769 32.9966H25.2225C26.1319 32.9966 26.875 32.9966 27.4787 32.9473C28.1033 32.8962 28.6663 32.7875 29.1918 32.5197C30.015 32.1003 30.6843 31.431 31.1037 30.6078C31.3714 30.0823 31.4802 29.5193 31.5313 28.8947C31.5806 28.291 31.5806 27.548 31.5806 26.6386V17.9331C31.5806 17.3808 31.1328 16.9331 30.5806 16.9331C30.0283 16.9331 29.5806 17.3808 29.5806 17.9331V26.5966C29.5806 27.5582 29.5798 28.2192 29.5379 28.7318C29.497 29.2328 29.4218 29.5033 29.3217 29.6998C29.094 30.1467 28.7307 30.51 28.2838 30.7377C28.0873 30.8378 27.8168 30.913 27.3158 30.9539C26.8032 30.9958 26.1421 30.9966 25.1806 30.9966H23.1934V23.267C23.1934 20.3987 20.8681 18.0734 17.9998 18.0734C15.1314 18.0734 12.8062 20.3987 12.8062 23.267V30.9966H10.819C9.8574 30.9966 9.19635 30.9958 8.68373 30.9539C8.18278 30.913 7.91227 30.8378 7.71576 30.7377C7.26888 30.51 6.90555 30.1467 6.67785 29.6998C6.57773 29.5033 6.50258 29.2328 6.46165 28.7318C6.41977 28.2192 6.41899 27.5582 6.41899 26.5966V17.9331ZM21.1934 23.267V30.9966H14.8062V23.267C14.8062 21.5032 16.236 20.0734 17.9998 20.0734C19.7635 20.0734 21.1934 21.5032 21.1934 23.267Z" fill="white"/>
</svg>
