<svg width="36" height="36" viewBox="0 0 36 36" fill="none" xmlns="http://www.w3.org/2000/svg">
<path fill-rule="evenodd" clip-rule="evenodd" d="M17.3839 5.08117C17.7871 4.97294 18.2118 4.97294 18.6151 5.08117C19.0252 5.19122 19.4309 5.47968 20.6816 6.44137L32.6394 15.6361C33.0772 15.9727 33.705 15.8907 34.0417 15.4529C34.3783 15.0151 34.2963 14.3872 33.8585 14.0506L21.7423 4.73403C20.7198 3.94668 19.9792 3.37651 19.1335 3.14953C18.3906 2.95016 17.6083 2.95016 16.8654 3.14953C16.0197 3.37651 15.2792 3.94668 14.2566 4.73404L2.14049 14.0506C1.70267 14.3872 1.62066 15.0151 1.95731 15.4529C2.29396 15.8907 2.92179 15.9727 3.35961 15.6361L15.3174 6.44137C16.5681 5.47968 16.9738 5.19122 17.3839 5.08117ZM17.5114 7.53435C17.8317 7.45003 18.1687 7.45003 18.489 7.53435C18.8658 7.63353 19.1806 7.87411 19.3719 8.02023C19.3918 8.03543 19.4103 8.04961 19.4275 8.0625L30.305 16.2385L30.3752 16.2911C30.6579 16.5027 30.9601 16.7289 31.1874 17.0281C31.3855 17.2889 31.5332 17.5839 31.6231 17.898C31.7263 18.2584 31.7255 18.634 31.7248 18.9853L31.7247 19.0726V26.4648C31.7247 27.3782 31.7247 28.1321 31.6741 28.7462C31.6216 29.3841 31.5089 29.9704 31.226 30.5211C30.7874 31.3752 30.0876 32.0696 29.2268 32.5047C28.6717 32.7853 28.0807 32.8972 27.4379 32.9493C26.8189 32.9995 26.0591 32.9995 25.1384 32.9994H10.8619C9.94129 32.9995 9.18146 32.9995 8.5625 32.9493C7.91963 32.8972 7.32867 32.7853 6.77359 32.5047C5.91278 32.0696 5.21292 31.3752 4.77431 30.5211C4.49148 29.9704 4.37875 29.3841 4.32623 28.7462C4.27566 28.1321 4.27567 27.3782 4.27568 26.4648L4.27569 19.0726L4.27556 18.9854C4.27483 18.634 4.27405 18.2584 4.37722 17.898C4.46716 17.5839 4.6149 17.2889 4.81298 17.0281C5.04022 16.7289 5.34247 16.5027 5.62515 16.2911L5.69531 16.2385L16.5729 8.0625C16.59 8.04961 16.6086 8.03543 16.6285 8.02023C16.8197 7.87411 17.1346 7.63353 17.5114 7.53435ZM16.2045 16.5468C16.6972 16.9276 17.1057 17.5352 17.3924 18.0372L17.4214 18.0879C17.56 18.3298 17.6818 18.5425 17.7262 18.7763C17.7447 18.8737 17.7594 18.9744 17.7557 19.0863C17.7519 19.1982 17.7305 19.2976 17.7056 19.3936C17.6658 19.5465 17.5735 19.7081 17.4813 19.8583C17.3819 20.0203 17.243 20.2298 17.0674 20.4945L17.0619 20.5029C16.8739 20.7864 16.7398 21.1178 16.7425 21.4851C16.7451 21.845 16.8793 22.294 17.3248 22.8208C17.7703 23.3475 18.1927 23.5566 18.5495 23.6217C18.9136 23.6881 19.2658 23.6146 19.5799 23.4801L19.5891 23.4762C19.8824 23.3506 20.1144 23.2513 20.2925 23.1822C20.4576 23.1183 20.634 23.0562 20.7926 23.0439C20.8923 23.0361 20.9947 23.0325 21.1064 23.0482C21.2182 23.064 21.3155 23.0959 21.409 23.1309C21.6333 23.2148 21.8233 23.3708 22.0393 23.5482L22.0846 23.5854C22.5331 23.9527 23.0653 24.4573 23.3577 25.0048C23.5063 25.2829 23.6132 25.6092 23.5807 25.9548C23.5468 26.3163 23.3662 26.6378 23.0539 26.8978L23.046 26.9044C22.6685 27.2187 21.7356 27.9956 20.3222 28.0004C18.885 28.0052 17.1033 27.2173 15.0128 24.7455C12.9224 22.2738 12.4498 20.396 12.7041 18.9927C12.9543 17.6125 13.8874 16.8357 14.2649 16.5215L14.2728 16.5149C14.5852 16.2549 14.9356 16.1343 15.3003 16.1639C15.649 16.1922 15.9543 16.3533 16.2045 16.5468Z" fill="white"/>
</svg>
