<svg width="36" height="36" viewBox="0 0 36 36" fill="none" xmlns="http://www.w3.org/2000/svg">
<path fill-rule="evenodd" clip-rule="evenodd" d="M18.6173 5.08175C18.2126 4.97275 17.7863 4.97275 17.3817 5.08175C16.9703 5.19259 16.5633 5.48331 15.3092 6.45233L3.36147 15.6841C2.92445 16.0218 2.29642 15.9412 1.95874 15.5042C1.62106 15.0672 1.7016 14.4392 2.13863 14.1015L14.2452 4.74688C15.2704 3.95363 16.0129 3.37921 16.8615 3.1506C17.6069 2.9498 18.3921 2.9498 19.1375 3.1506C19.9861 3.37921 20.7285 3.95362 21.7538 4.74688L33.8603 14.1015C34.2974 14.4392 34.3779 15.0672 34.0402 15.5042C33.7025 15.9412 33.0745 16.0218 32.6375 15.6841L20.6897 6.45233C19.4356 5.48331 19.0287 5.19259 18.6173 5.08175ZM5.41899 16.9331C5.97128 16.9331 6.41899 17.3808 6.41899 17.9331V26.5966C6.41899 27.5582 6.41977 28.2192 6.46165 28.7318C6.50258 29.2328 6.57773 29.5033 6.67785 29.6998C6.90555 30.1467 7.26888 30.51 7.71576 30.7377C7.91227 30.8378 8.18278 30.913 8.68373 30.9539C9.19635 30.9958 9.8574 30.9966 10.819 30.9966H25.1806C26.1421 30.9966 26.8032 30.9958 27.3158 30.9539C27.8168 30.913 28.0873 30.8378 28.2838 30.7377C28.7307 30.51 29.094 30.1467 29.3217 29.6998C29.4218 29.5033 29.497 29.2328 29.5379 28.7318C29.5798 28.2192 29.5806 27.5582 29.5806 26.5966V17.9331C29.5806 17.3808 30.0283 16.9331 30.5806 16.9331C31.1328 16.9331 31.5806 17.3808 31.5806 17.9331V26.6386C31.5806 27.548 31.5806 28.291 31.5313 28.8947C31.4802 29.5193 31.3714 30.0823 31.1037 30.6078C30.6843 31.431 30.015 32.1003 29.1918 32.5197C28.6663 32.7875 28.1033 32.8962 27.4787 32.9473C26.875 32.9966 26.132 32.9966 25.2226 32.9966H10.7771C9.86765 32.9966 9.12454 32.9966 8.52087 32.9473C7.89624 32.8962 7.33323 32.7875 6.80778 32.5197C5.98458 32.1003 5.31529 31.431 4.89584 30.6078C4.62811 30.0823 4.51933 29.5193 4.4683 28.8947C4.41897 28.291 4.41898 27.548 4.41899 26.6385L4.41899 17.9331C4.41899 17.3808 4.86671 16.9331 5.41899 16.9331ZM17.3934 16.5799C17.1067 16.0754 16.6982 15.4649 16.2055 15.0822C15.9553 14.8878 15.65 14.7259 15.3013 14.6974C14.9366 14.6677 14.5861 14.7889 14.2738 15.0502L14.2659 15.0568C13.8884 15.3725 12.9552 16.153 12.7051 17.54C12.4507 18.9502 12.9234 20.8371 15.0138 23.3209C17.1042 25.8047 18.886 26.5964 20.3231 26.5916C21.7365 26.5868 22.6695 25.8061 23.0469 25.4903L23.0549 25.4837C23.3672 25.2224 23.5478 24.8993 23.5817 24.5361C23.6142 24.1887 23.5073 23.8609 23.3587 23.5815C23.0663 23.0313 22.5341 22.5242 22.0856 22.1551L22.0403 22.1177C21.8243 21.9395 21.6343 21.7827 21.41 21.6983C21.3165 21.6632 21.2191 21.6312 21.1074 21.6153C20.9957 21.5995 20.8932 21.6031 20.7936 21.6109C20.635 21.6233 20.4586 21.6857 20.2935 21.75C20.1154 21.8193 19.8834 21.9192 19.5901 22.0454L19.5808 22.0493C19.2667 22.1845 18.9145 22.2583 18.5504 22.1916C18.1936 22.1262 17.7713 21.916 17.3258 21.3867C16.8803 20.8574 16.7461 20.4062 16.7435 20.0445C16.7408 19.6755 16.8749 19.3425 17.0629 19.0575L17.0684 19.0491C17.244 18.7831 17.3829 18.5726 17.4823 18.4098C17.5745 18.2589 17.6667 18.0965 17.7065 17.9429C17.7315 17.8464 17.7529 17.7465 17.7567 17.634C17.7604 17.5216 17.7457 17.4205 17.7272 17.3226C17.6828 17.0876 17.561 16.8739 17.4224 16.6308L17.3934 16.5799Z" fill="white"/>
</svg>
