<svg width="36" height="36" viewBox="0 0 36 36" fill="none" xmlns="http://www.w3.org/2000/svg">
<path fill-rule="evenodd" clip-rule="evenodd" d="M17.3839 5.08117C17.7871 4.97294 18.2118 4.97294 18.6151 5.08117C19.0252 5.19122 19.4309 5.47968 20.6816 6.44137L32.6394 15.6361C33.0772 15.9727 33.705 15.8907 34.0417 15.4529C34.3783 15.0151 34.2963 14.3872 33.8585 14.0506L21.7423 4.73403C20.7198 3.94668 19.9792 3.37651 19.1335 3.14953C18.3906 2.95016 17.6083 2.95016 16.8654 3.14953C16.0197 3.37651 15.2792 3.94668 14.2566 4.73404L2.14049 14.0506C1.70267 14.3872 1.62066 15.0151 1.95731 15.4529C2.29396 15.8907 2.92179 15.9727 3.35961 15.6361L15.3174 6.44137C16.5681 5.47968 16.9738 5.19122 17.3839 5.08117ZM17.5114 7.53435C17.8317 7.45003 18.1687 7.45003 18.489 7.53435C18.8658 7.63353 19.1806 7.87411 19.3719 8.02023C19.3918 8.03543 19.4103 8.04961 19.4275 8.0625L30.305 16.2385L30.3752 16.2911C30.6579 16.5027 30.9601 16.7289 31.1874 17.0281C31.3855 17.2889 31.5332 17.5839 31.6231 17.898C31.7263 18.2584 31.7255 18.634 31.7248 18.9853L31.7247 19.0726V26.4648C31.7247 27.3782 31.7247 28.1321 31.6741 28.7462C31.6216 29.3841 31.5089 29.9704 31.226 30.5211C30.7874 31.3752 30.0876 32.0696 29.2268 32.5047C28.6717 32.7853 28.0807 32.8972 27.4379 32.9493C26.8189 32.9995 26.0591 32.9995 25.1384 32.9994H10.8619C9.94129 32.9995 9.18146 32.9995 8.5625 32.9493C7.91963 32.8972 7.32867 32.7853 6.77359 32.5047C5.91278 32.0696 5.21292 31.3752 4.77431 30.5211C4.49148 29.9704 4.37875 29.3841 4.32623 28.7462C4.27566 28.1321 4.27567 27.3782 4.27568 26.4648L4.27569 19.0726L4.27556 18.9854C4.27483 18.634 4.27405 18.2584 4.37722 17.898C4.46716 17.5839 4.6149 17.2889 4.81298 17.0281C5.04022 16.7289 5.34247 16.5027 5.62515 16.2911L5.69531 16.2385L16.5729 8.0625C16.59 8.04961 16.6086 8.03543 16.6285 8.02023C16.8197 7.87411 17.1346 7.63353 17.5114 7.53435ZM13.4249 22.4452C13.4249 19.9186 15.4731 17.8704 17.9997 17.8704C20.5263 17.8704 22.5745 19.9186 22.5745 22.4452V30.7308H13.4249V22.4452Z" fill="white"/>
</svg>
