<svg width="36" height="36" viewBox="0 0 36 36" fill="none" xmlns="http://www.w3.org/2000/svg">
<path fill-rule="evenodd" clip-rule="evenodd" d="M18 3C9.71571 3 3 9.71571 3 18C3 26.2843 9.71571 33 18 33C26.2843 33 33 26.2843 33 18C33 9.71571 26.2843 3 18 3ZM24.4286 13.7143C22.0616 13.7143 20.1429 15.6331 20.1429 18C20.1429 20.3669 22.0616 22.2857 24.4286 22.2857C26.7956 22.2857 28.7143 20.3669 28.7143 18C28.7143 15.6331 26.7956 13.7143 24.4286 13.7143ZM9.42857 15.8571C8.24511 15.8571 7.28571 16.8165 7.28571 18C7.28571 19.1835 8.24511 20.1429 9.42857 20.1429C10.612 20.1429 11.5714 19.1835 11.5714 18C11.5714 16.8165 10.612 15.8571 9.42857 15.8571ZM13.7143 18C13.7143 16.8165 14.6737 15.8571 15.8571 15.8571C17.0406 15.8571 18 16.8165 18 18C18 19.1835 17.0406 20.1429 15.8571 20.1429C14.6737 20.1429 13.7143 19.1835 13.7143 18Z" fill="white"/>
</svg>
