<svg width="36" height="36" viewBox="0 0 36 36" fill="none" xmlns="http://www.w3.org/2000/svg">
<path d="M24.5879 13.6152C27.0094 13.6153 28.9727 15.5785 28.9727 18C28.9725 20.4214 27.0093 22.3847 24.5879 22.3848C22.1664 22.3848 20.2032 20.4215 20.2031 18C20.2031 15.5784 22.1663 13.6152 24.5879 13.6152Z" fill="white"/>
<path d="M9.24707 15.8076C10.4578 15.8077 11.4394 16.7893 11.4395 18C11.4395 19.2108 10.4578 20.1923 9.24707 20.1924C8.03629 20.1924 7.05469 19.2108 7.05469 18C7.05478 16.7893 8.03635 15.8076 9.24707 15.8076Z" fill="white"/>
<path d="M15.8213 15.8076C17.032 15.8077 18.0136 16.7893 18.0137 18C18.0137 19.2108 17.032 20.1923 15.8213 20.1924C14.6105 20.1924 13.6289 19.2108 13.6289 18C13.629 16.7893 14.6106 15.8076 15.8213 15.8076Z" fill="white"/>
<path fill-rule="evenodd" clip-rule="evenodd" d="M18 3C26.2843 3 33 9.71573 33 18C33 26.2843 26.2843 33 18 33C9.71573 33 3 26.2843 3 18C3 9.71573 9.71573 3 18 3ZM18 5C10.8203 5 5 10.8203 5 18C5 25.1797 10.8203 31 18 31C25.1797 31 31 25.1797 31 18C31 10.8203 25.1797 5 18 5Z" fill="white"/>
</svg>
