<svg width="36" height="36" viewBox="0 0 36 36" fill="none" xmlns="http://www.w3.org/2000/svg">
<path fill-rule="evenodd" clip-rule="evenodd" d="M9.9575 6C8.94348 5.99999 8.12178 5.99998 7.45558 6.05441C6.76841 6.11056 6.1591 6.22956 5.59355 6.51772C4.69978 6.97312 3.97312 7.69978 3.51772 8.59355C3.22956 9.1591 3.11056 9.76842 3.05441 10.4556C2.99998 11.1218 2.99999 11.9435 3 12.9575V13.4478C3 14 3.44772 14.4478 4 14.4478C4.55229 14.4478 5 14 5 13.4478V13C5 11.9334 5.00078 11.1936 5.04777 10.6184C5.09381 10.055 5.17917 9.73814 5.29973 9.50153C5.56338 8.98408 5.98408 8.56338 6.50153 8.29973C6.73814 8.17917 7.05496 8.09381 7.61844 8.04777C8.19359 8.00078 8.9334 8 10 8H25.9989C27.0655 8 27.8053 8.00078 28.3804 8.04777C28.9439 8.09381 29.2607 8.17917 29.4974 8.29973C30.0148 8.56338 30.4355 8.98408 30.6991 9.50153C30.8197 9.73814 30.9051 10.055 30.9511 10.6184C30.9981 11.1936 30.9989 11.9334 30.9989 13V22.9982C30.9989 24.0648 30.9981 24.8046 30.9511 25.3798C30.9051 25.9433 30.8197 26.2601 30.6991 26.4967C30.4355 27.0142 30.0148 27.4349 29.4974 27.6985C29.2607 27.8191 28.9439 27.9044 28.3804 27.9505C27.8053 27.9975 27.0655 27.9982 25.9989 27.9982H10C8.9334 27.9982 8.19359 27.9975 7.61844 27.9505C7.05496 27.9044 6.73814 27.8191 6.50153 27.6985C5.98408 27.4349 5.56338 27.0142 5.29973 26.4967C5.17917 26.2601 5.09381 25.9433 5.04777 25.3798C5.00078 24.8046 5 24.0648 5 22.9982V22.5505C5 21.9982 4.55229 21.5505 4 21.5505C3.44772 21.5505 3 21.9982 3 22.5505V23.0407C2.99999 24.0548 2.99998 24.8765 3.05441 25.5427C3.11056 26.2298 3.22956 26.8391 3.51772 27.4047C3.97312 28.2985 4.69978 29.0251 5.59355 29.4805C6.1591 29.7687 6.76841 29.8877 7.45557 29.9438C8.12177 29.9983 8.94346 29.9983 9.95747 29.9982H26.0414C27.0554 29.9983 27.8771 29.9983 28.5433 29.9438C29.2305 29.8877 29.8398 29.7687 30.4053 29.4805C31.2991 29.0251 32.0258 28.2985 32.4812 27.4047C32.7693 26.8391 32.8883 26.2298 32.9445 25.5427C32.9989 24.8765 32.9989 24.0548 32.9989 23.0408V12.9575C32.9989 11.9435 32.9989 11.1218 32.9445 10.4556C32.8883 9.76841 32.7693 9.1591 32.4812 8.59355C32.0258 7.69978 31.2991 6.97312 30.4053 6.51772C29.8398 6.22956 29.2305 6.11056 28.5433 6.05441C27.8771 5.99998 27.0554 5.99999 26.0414 6H9.9575ZM17.5723 11.9833C17.1823 11.5923 16.5491 11.5915 16.1581 11.9816C15.7671 12.3717 15.7663 13.0048 16.1564 13.3958L19.7513 16.9995H4C3.44772 16.9995 3 17.4472 3 17.9995C3 18.5518 3.44772 18.9995 4 18.9995H19.7513L16.1564 22.6032C15.7663 22.9941 15.7671 23.6273 16.1581 24.0174C16.5491 24.4074 17.1823 24.4067 17.5723 24.0157L22.8694 18.7057C23.2588 18.3154 23.2588 17.6836 22.8694 17.2932L17.5723 11.9833Z" fill="white"/>
</svg>
