<svg width="36" height="36" viewBox="0 0 36 36" fill="none" xmlns="http://www.w3.org/2000/svg">
<path fill-rule="evenodd" clip-rule="evenodd" d="M3.8 13.13C5.82 7.23 11.41 3 18 3C24.58 3 30.17 7.23 32.19 13.13C32.71 14.66 32.99 16.29 32.99 17.99C32.99 18.29 32.99 18.58 32.97 18.87C32.37 18.36 31.7 17.92 30.99 17.56C30.95 16.48 30.79 15.45 30.51 14.45H24.35C24.48 15.17 24.57 15.91 24.62 16.67C23.94 16.8 23.28 17 22.66 17.26C22.61 16.28 22.49 15.34 22.31 14.45H13.68C13.45 15.57 13.32 16.75 13.32 17.99C13.32 19.24 13.45 20.42 13.68 21.54H17.81C17.45 22.16 17.16 22.83 16.94 23.54H14.2C14.71 25.1 15.36 26.47 16.02 27.62C16.27 28.05 16.52 28.45 16.76 28.81C17.14 30.37 17.87 31.79 18.87 32.97C18.58 32.99 18.29 32.99 18 32.99C11.41 32.99 5.82 28.75 3.8 22.86C3.28 21.33 3 19.7 3 17.99C3 16.29 3.28 14.66 3.8 13.13ZM6.23 12.45H12.11C12.68 10.48 13.49 8.76 14.29 7.37C14.78 6.52 15.27 5.79 15.71 5.2C11.5 5.94 8 8.71 6.23 12.45ZM29.76 12.45H23.87C23.3 10.48 22.5 8.76 21.7 7.37C21.21 6.52 20.72 5.79 20.28 5.2C24.48 5.94 27.99 8.71 29.76 12.45ZM18 5.51C17.96 5.55 17.92 5.59 17.89 5.64C17.38 6.27 16.7 7.2 16.02 8.37C15.36 9.52 14.71 10.89 14.2 12.45H21.78C21.28 10.89 20.63 9.52 19.97 8.37C19.29 7.2 18.61 6.27 18.1 5.64C18.07 5.59 18.03 5.55 18 5.51ZM5.48 21.54H11.64C11.44 20.42 11.32 19.23 11.32 17.99C11.32 16.75 11.44 15.57 11.64 14.45H5.48C5.16 15.58 5 16.77 5 17.99C5 19.22 5.16 20.41 5.48 21.54ZM35 26.5C35 21.8 31.19 18 26.5 18C21.8 18 18 21.8 18 26.5C18 31.19 21.8 35 26.5 35C31.19 35 35 31.19 35 26.5ZM25.75 21.25C25.75 20.83 26.08 20.5 26.5 20.5C26.91 20.5 27.25 20.83 27.25 21.25V22.07H28.25C28.62 22.11 29 22.43 29 22.82C29 23.21 28.7 23.53 28.32 23.57H26.08C25.48 23.57 25 24.06 25 24.66C25 25.26 25.48 25.75 26.08 25.75H26.91C28.34 25.75 29.5 26.9 29.5 28.33C29.5 29.65 28.51 30.73 27.25 30.9V31.75C27.25 32.16 26.91 32.5 26.5 32.5C26.08 32.5 25.75 32.16 25.75 31.75V30.92H24.75C24.33 30.92 24 30.58 24 30.17C24 29.76 24.33 29.42 24.75 29.42H26.91C27.51 29.42 28 28.93 28 28.33C28 27.73 27.51 27.25 26.91 27.25H26.08C24.65 27.25 23.5 26.09 23.5 24.66C23.5 23.34 24.48 22.26 25.75 22.09V21.25ZM15.71 30.79C15.27 30.2 14.78 29.46 14.29 28.62C13.49 27.23 12.68 25.51 12.11 23.54H6.23C8 27.28 11.5 30.05 15.71 30.79Z" fill="white"/>
</svg>
