<svg width="36" height="36" viewBox="0 0 36 36" fill="none" xmlns="http://www.w3.org/2000/svg">
<path fill-rule="evenodd" clip-rule="evenodd" d="M18 3C11.41 3 5.82 7.23 3.8 13.13C3.28 14.66 3 16.29 3 17.99C3 19.7 3.28 21.33 3.8 22.86C5.82 28.75 11.41 32.99 18 32.99C18.29 32.99 18.58 32.99 18.87 32.97C17.87 31.79 17.13 30.37 16.76 28.81C16.52 28.45 16.27 28.05 16.02 27.62C15.36 26.47 14.71 25.1 14.2 23.54H16.94C17.16 22.83 17.45 22.16 17.81 21.54H13.68C13.45 20.42 13.32 19.24 13.32 17.99C13.32 16.75 13.45 15.57 13.68 14.45H22.31C22.49 15.34 22.61 16.28 22.66 17.26C23.28 17 23.94 16.8 24.62 16.67C24.57 15.91 24.48 15.17 24.35 14.45H30.51C30.79 15.45 30.95 16.48 30.99 17.56C31.7 17.92 32.37 18.36 32.97 18.87C32.99 18.58 32.99 18.29 32.99 17.99C32.99 16.29 32.71 14.66 32.19 13.13C30.17 7.23 24.58 3 18 3ZM12.11 12.45H6.23C8 8.71 11.5 5.94 15.71 5.2C15.27 5.79 14.78 6.52 14.29 7.37C13.49 8.76 12.68 10.48 12.11 12.45ZM23.87 12.45H29.76C27.99 8.71 24.48 5.94 20.28 5.2C20.72 5.79 21.21 6.52 21.7 7.37C22.5 8.76 23.3 10.48 23.87 12.45ZM17.89 5.64C17.92 5.59 17.96 5.55 18 5.51C18.03 5.55 18.07 5.59 18.1 5.64C18.61 6.27 19.29 7.2 19.97 8.37C20.63 9.52 21.28 10.89 21.78 12.45H14.2C14.71 10.89 15.36 9.52 16.02 8.37C16.7 7.2 17.38 6.27 17.89 5.64ZM11.64 21.54H5.48C5.16 20.41 5 19.22 5 17.99C5 16.77 5.16 15.58 5.48 14.45H11.64C11.44 15.57 11.32 16.75 11.32 17.99C11.32 19.23 11.44 20.42 11.64 21.54ZM26.5 18C31.19 18 35 21.8 35 26.5C35 31.19 31.19 35 26.5 35C21.8 35 18 31.19 18 26.5C18 21.8 21.8 18 26.5 18ZM25.05 20.87C24.59 20.87 24.22 21.25 24.22 21.7V25.85H23.39C22.93 25.85 22.56 26.22 22.56 26.68C22.56 27.13 22.93 27.5 23.39 27.5H24.22V28.61H23.39C22.93 28.61 22.56 28.98 22.56 29.44C22.56 29.9 22.93 30.27 23.39 30.27H24.22V31.92C24.22 32.38 24.59 32.75 25.05 32.75C25.51 32.75 25.88 32.38 25.88 31.92V30.27H27.81C28.27 30.27 28.64 29.9 28.64 29.44C28.64 29.01 28.32 28.66 27.9 28.61H25.88V27.5H27.54C29.37 27.5 30.85 26.02 30.85 24.19C30.85 22.36 29.37 20.87 27.54 20.87H25.05ZM27.54 22.53C28.45 22.53 29.19 23.27 29.19 24.19C29.19 25.1 28.45 25.85 27.54 25.85H25.88V22.53H27.54ZM14.29 28.62C14.78 29.46 15.27 30.2 15.71 30.79C11.5 30.05 8 27.28 6.23 23.54H12.11C12.68 25.51 13.49 27.23 14.29 28.62Z" fill="white"/>
</svg>
