<svg width="36" height="36" viewBox="0 0 36 36" fill="none" xmlns="http://www.w3.org/2000/svg">
<path fill-rule="evenodd" clip-rule="evenodd" d="M26.5 18C31.1944 18 35 21.8056 35 26.5C35 31.1944 31.1944 35 26.5 35C21.8056 35 18 31.1944 18 26.5C18 21.8056 21.8056 18 26.5 18ZM23.3965 20.9111C22.9392 20.9116 22.5674 21.2829 22.5674 21.7402C22.5676 22.1975 22.9393 22.5689 23.3965 22.5693H25.6074L25.8379 22.582C26.3592 22.6407 26.7538 22.8972 27.0391 23.2383C27.1537 23.3755 27.246 23.5242 27.3203 23.6729H23.9492C23.492 23.6732 23.1204 24.0447 23.1201 24.502C23.1201 24.9594 23.4918 25.3307 23.9492 25.3311H27.3203C27.2459 25.4799 27.1539 25.6291 27.0391 25.7666C26.7145 26.1549 26.2489 26.4331 25.6152 26.4355H23.3965C22.9996 26.436 22.6687 26.716 22.5879 27.0889C22.5844 27.1051 22.5807 27.1213 22.5781 27.1377C22.5717 27.1791 22.5674 27.2215 22.5674 27.2646C22.5674 27.3064 22.5722 27.3476 22.5781 27.3877C22.5802 27.4013 22.5813 27.4152 22.584 27.4287C22.6167 27.5916 22.6976 27.7374 22.8105 27.8506L27.2305 32.2705C27.554 32.5941 28.0787 32.5939 28.4023 32.2705C28.726 31.9469 28.726 31.4223 28.4023 31.0986L25.3975 28.0938H25.6064L25.6074 28.0928C26.8 28.0926 27.714 27.5449 28.3115 26.8301C28.6874 26.3803 28.9468 25.8525 29.084 25.3311H30.0264L30.1113 25.3262C30.5293 25.2838 30.8555 24.9311 30.8555 24.502C30.8552 24.073 30.5291 23.7201 30.1113 23.6777L30.0264 23.6729H29.084C28.9849 23.2971 28.82 22.9198 28.5957 22.5693H30.0264L30.1113 22.5645C30.529 22.522 30.8553 22.1691 30.8555 21.7402C30.8554 21.3112 30.5291 20.9585 30.1113 20.916L30.0264 20.9111H23.3965Z" fill="white"/>
<path fill-rule="evenodd" clip-rule="evenodd" d="M18 3C26.2843 3 33 9.71573 33 18C33 18.2954 32.9895 18.5887 32.9727 18.8799C31.9991 18.0521 30.8655 17.408 29.624 17H30.9619C30.7201 13.8207 29.3344 10.9616 27.2158 8.83203C26.5408 9.35868 25.8199 9.82875 25.0596 10.2354C25.6809 12.0988 26.0824 14.2279 26.2061 16.5068C25.5228 16.5266 24.8571 16.6145 24.2148 16.7646C24.1134 14.6677 23.7606 12.7349 23.2246 11.0645C21.8953 11.5588 20.4769 11.8685 19 11.9658V17H23.376C22.075 17.4276 20.8926 18.1143 19.8887 19H19V19.8887C18.1143 20.8926 17.4276 22.075 17 23.376V19H11.7715C11.8547 21.1309 12.2007 23.0979 12.7324 24.7998C14.0214 24.3597 15.3895 24.0923 16.8096 24.0205C16.6436 24.6712 16.5421 25.3474 16.5107 26.042C15.4449 26.1295 14.416 26.3478 13.4385 26.6768C13.5909 27.0151 13.7512 27.3375 13.9189 27.6426C14.9113 29.4468 16.0068 30.417 17 30.8008V29.623C17.408 30.8649 18.0519 31.9988 18.8799 32.9727C18.5887 32.9895 18.2954 33 18 33C9.71573 33 3 26.2843 3 18C3 9.71573 9.71573 3 18 3ZM11.5986 27.46C11.0896 27.7246 10.5997 28.0205 10.1328 28.3477C11.0291 29.0302 12.0158 29.5998 13.0732 30.0332C12.5247 29.2895 12.0301 28.424 11.5986 27.46ZM5.03809 19C5.27299 22.0879 6.58908 24.8717 8.60547 26.9805C9.3174 26.448 10.0781 25.9772 10.8799 25.5762C10.2499 23.623 9.85697 21.388 9.77051 19H5.03809ZM8.7832 8.83301C6.66519 10.9625 5.2799 13.8212 5.03809 17H9.77051C9.85974 14.5354 10.2738 12.2333 10.9395 10.2363C10.1791 9.82979 9.4582 9.35956 8.7832 8.83301ZM12.7754 11.0635C12.2192 12.7964 11.8569 14.8119 11.7715 17H17V11.9658C15.5231 11.8685 14.1049 11.5578 12.7754 11.0635ZM19 9.95996C20.2226 9.86659 21.3967 9.60317 22.501 9.19434C22.3663 8.90306 22.2273 8.62329 22.0811 8.35742C21.0886 6.55295 19.9932 5.5819 19 5.19824V9.95996ZM17 5.19824C16.0068 5.5819 14.9114 6.55295 13.9189 8.35742C13.7723 8.62401 13.6321 8.90416 13.4971 9.19629C14.6018 9.60507 15.7771 9.86566 17 9.95898V5.19824ZM13.0732 5.96582C12.0964 6.36616 11.1796 6.88275 10.3389 7.49707C10.7673 7.81043 11.2157 8.09737 11.6816 8.35742C12.0934 7.46624 12.5593 6.66238 13.0732 5.96582ZM22.9258 5.96582C23.4397 6.66239 23.9055 7.46619 24.3174 8.35742C24.7834 8.09726 25.2316 7.80953 25.6602 7.49609C24.8195 6.88196 23.9025 6.36603 22.9258 5.96582Z" fill="white"/>
</svg>
