<svg width="36" height="36" viewBox="0 0 36 36" fill="none" xmlns="http://www.w3.org/2000/svg">
<path fill-rule="evenodd" clip-rule="evenodd" d="M31.5002 12.824C31.5002 17.5593 27.6387 21.398 22.8752 21.398C21.1009 21.398 19.4518 20.8654 18.0807 19.9522C17.8177 19.7771 17.4459 19.9564 17.4459 20.2711L17.4459 23.6341C17.4459 23.8406 17.2775 24.008 17.0697 24.008H13.8759C13.6682 24.008 13.4998 24.1754 13.4998 24.3819V26.9893C13.4998 27.1958 13.3314 27.3632 13.1236 27.3632L9.46358 27.3631C9.25585 27.363 9.08745 27.5304 9.08745 27.7369L9.08745 31.3765C9.08745 31.583 8.91906 31.7504 8.71134 31.7504H4.87611C4.66839 31.7504 4.49999 31.583 4.5 31.3765L4.50024 25.0307C4.50024 24.9315 4.53987 24.8364 4.6104 24.7663L14.36 15.0743C14.4536 14.9813 14.4905 14.8464 14.4614 14.718C14.3232 14.1087 14.2502 13.4748 14.2502 12.824C14.2502 8.0887 18.1118 4.25 22.8752 4.25C27.6387 4.25 31.5002 8.0887 31.5002 12.824ZM24.7507 13.1973C25.9934 13.1973 27.0007 12.1959 27.0007 10.9606C27.0007 9.72533 25.9934 8.72393 24.7507 8.72393C23.5081 8.72393 22.5007 9.72533 22.5007 10.9606C22.5007 12.1959 23.5081 13.1973 24.7507 13.1973Z" fill="white"/>
</svg>
