<svg width="36" height="36" viewBox="0 0 36 36" fill="none" xmlns="http://www.w3.org/2000/svg">
<path fill-rule="evenodd" clip-rule="evenodd" d="M26.5 16.5C29.4386 16.5 32.0812 17.7676 33.9108 19.7858C34.281 19.2868 34.5 18.669 34.5 18C34.5 16.3431 33.1569 15 31.5 15C31.3883 15 31.2781 15.0061 31.1695 15.018C29.812 8.99699 24.4312 4.5 18 4.5C11.5688 4.5 6.18799 8.99699 4.83045 15.018C4.72194 15.0061 4.61168 15 4.5 15C2.84315 15 1.5 16.3431 1.5 18C1.5 19.6569 2.84315 21 4.5 21C4.61168 21 4.72194 20.9939 4.83045 20.982C6.17652 26.9522 11.4782 31.4239 17.8373 31.499C16.9868 30.0284 16.5 28.321 16.5 26.5C16.5 23.9792 17.4327 21.6763 18.9718 19.9175C18.6109 19.9681 18.2456 19.9906 17.8794 19.9842C16.94 19.9681 16.0135 19.7629 15.155 19.3811C14.2966 18.9992 13.5238 18.4485 12.8827 17.7616L14.3448 16.3969C14.8027 16.8875 15.3547 17.281 15.9679 17.5537C16.5811 17.8265 17.2429 17.973 17.9139 17.9845C18.5849 17.9961 19.2514 17.8725 19.8736 17.621C20.4958 17.3695 21.061 16.9954 21.5355 16.5208L22.3939 17.3792C23.6466 16.8143 25.0366 16.5 26.5 16.5ZM10 16C11.1046 16 12 15.1046 12 14C12 12.8954 11.1046 12 10 12C8.89543 12 8 12.8954 8 14C8 15.1046 8.89543 16 10 16ZM28 14C28 15.1046 27.1046 16 26 16C24.8954 16 24 15.1046 24 14C24 12.8954 24.8954 12 26 12C27.1046 12 28 12.8954 28 14Z" fill="white"/>
<path d="M24.5 23C24.5 21.8953 25.3956 21 26.5 21C27.6047 21 28.5 21.8956 28.5 23V25H24.5V23Z" fill="white"/>
<path fill-rule="evenodd" clip-rule="evenodd" d="M35 26.5C35 31.1944 31.1944 35 26.5 35C21.8056 35 18 31.1944 18 26.5C18 21.8056 21.8056 18 26.5 18C31.1944 18 35 21.8056 35 26.5ZM29.8333 24.8V23.2C29.8333 21.4331 28.3409 20 26.5 20C24.6594 20 23.1667 21.4327 23.1667 23.2V24.8C22.2461 24.8 21.5 25.5163 21.5 26.4V30.4C21.5 31.2837 22.2461 32 23.1667 32H29.8333C30.7539 32 31.5 31.2837 31.5 30.4V26.4C31.5 25.5163 30.7539 24.8 29.8333 24.8Z" fill="white"/>
</svg>
