<svg width="36" height="36" viewBox="0 0 36 36" fill="none" xmlns="http://www.w3.org/2000/svg">
<path fill-rule="evenodd" clip-rule="evenodd" d="M17.9995 3.75C11.3541 3.75 5.77572 8.30919 4.20779 14.4717C2.64786 14.8864 1.5 16.3094 1.5 17.9995C1.5 19.6896 2.64789 21.1126 4.20785 21.5273C5.77586 27.6897 11.3542 32.2488 17.9995 32.2488C24.6447 32.2488 30.223 27.6897 31.791 21.5273C33.3511 21.1127 34.4991 19.6897 34.4991 17.9995C34.4991 16.3093 33.3511 14.8863 31.7911 14.4717C30.2231 8.30916 24.6448 3.75 17.9995 3.75ZM6.01233 15.5505C7.14492 9.95778 12.0834 5.75 17.9995 5.75C23.9155 5.75 28.854 9.95777 29.9866 15.5505L30.142 16.318L30.9243 16.3511C31.7988 16.3882 32.4991 17.1111 32.4991 17.9995C32.4991 18.8879 31.7987 19.6108 30.9243 19.6478L30.142 19.681L29.9865 20.4485C28.8539 26.0411 23.9155 30.2488 17.9995 30.2488C12.0834 30.2488 7.14504 26.0411 6.01237 20.4484L5.85696 19.681L5.07468 19.6478C4.20029 19.6107 3.5 18.8878 3.5 17.9995C3.5 17.1111 4.20027 16.3883 5.07465 16.3511L5.85693 16.3179L6.01233 15.5505ZM10.4389 16.4854C11.2741 16.4854 11.9511 15.8074 11.9511 14.9711C11.9511 14.1349 11.2741 13.4569 10.4389 13.4569C9.60377 13.4569 8.92676 14.1349 8.92676 14.9711C8.92676 15.8074 9.60377 16.4854 10.4389 16.4854ZM27.0727 14.9711C27.0727 15.8074 26.3956 16.4854 25.5605 16.4854C24.7254 16.4854 24.0483 15.8074 24.0483 14.9711C24.0483 14.1349 24.7254 13.4569 25.5605 13.4569C26.3956 13.4569 27.0727 14.1349 27.0727 14.9711ZM21.5699 16.5131C21.0907 16.993 20.5199 17.3714 19.8916 17.6257C19.2632 17.88 18.5902 18.005 17.9125 17.9933C17.2349 17.9816 16.5666 17.8335 15.9473 17.5576C15.3281 17.2818 14.7707 16.884 14.3082 16.3879L12.8472 17.7535C13.4926 18.446 14.2707 19.0013 15.1351 19.3862C15.9994 19.7712 16.9323 19.9781 17.8781 19.9944C18.824 20.0107 19.7634 19.8362 20.6405 19.4812C21.5175 19.1263 22.3143 18.5981 22.9832 17.9283L21.5699 16.5131Z" fill="white"/>
</svg>
