<svg width="36" height="36" viewBox="0 0 36 36" fill="none" xmlns="http://www.w3.org/2000/svg">
<path d="M27.1597 18.709H31.1743C31.9618 18.709 32.6001 19.3458 32.6001 20.1318V22.4961C32.6 23.282 31.9617 23.9189 31.1743 23.9189H27.6733C27.295 23.9189 26.932 24.0691 26.6646 24.3359L20.6558 30.333C20.3883 30.5999 20.0254 30.75 19.647 30.75H16.7593C15.9867 30.75 15.3533 30.1346 15.3335 29.3633L15.271 26.9502C15.2502 26.1503 15.8945 25.4902 16.6968 25.4902H19.1831C19.5614 25.4901 19.9236 25.3392 20.1909 25.0723L26.1499 19.125C26.4173 18.8583 26.7795 18.708 27.1577 18.708L27.1597 18.709ZM31.1743 8.2959C31.9617 8.2959 32.6001 8.93267 32.6001 9.71875V12.082C32.6001 12.8681 31.9617 13.5049 31.1743 13.5049H27.6724C27.2941 13.505 26.9319 13.656 26.6646 13.9229L20.6558 19.9199C20.3883 20.1869 20.0253 20.3379 19.647 20.3379H16.1372C15.7698 20.338 15.4163 20.4794 15.1509 20.7334L8.40576 27.1855C8.14025 27.4396 7.78599 27.5811 7.41846 27.5811H4.96045C4.17295 27.5811 3.53467 26.9433 3.53467 26.1582V23.7285C3.53493 22.9427 4.17311 22.3066 4.96045 22.3066H7.40088C7.77922 22.3066 8.1422 22.1556 8.40967 21.8887L14.8149 15.4941C15.0823 15.2272 15.4454 15.0771 15.8237 15.0771H19.1831C19.5613 15.077 19.9236 14.927 20.1909 14.6602L26.1489 8.71289C26.4164 8.44591 26.7793 8.2959 27.1577 8.2959H31.1743ZM19.2544 5.25C20.0418 5.25014 20.6792 5.88688 20.6792 6.67285V9.03711C20.6791 9.82302 20.0417 10.4598 19.2544 10.46H15.7524C15.3741 10.46 15.0111 10.6101 14.7437 10.877L8.73486 16.875C8.46745 17.1418 8.10529 17.292 7.72705 17.292H4.83838C4.06588 17.292 3.43261 16.6773 3.4126 15.9062L3.35107 13.4922C3.33032 12.6924 3.97361 12.0333 4.77588 12.0332H7.26221C7.64064 12.0332 8.00352 11.8822 8.271 11.6152L14.229 5.66797C14.4965 5.40111 14.8595 5.25098 15.2378 5.25098L15.2397 5.25H19.2544Z" fill="white"/>
</svg>
