<svg width="36" height="36" viewBox="0 0 36 36" fill="none" xmlns="http://www.w3.org/2000/svg">
<path fill-rule="evenodd" clip-rule="evenodd" d="M6.92285 27.7793C7.26712 27.7793 7.59738 27.9157 7.84082 28.1592C8.08426 28.4026 8.2207 28.7329 8.2207 29.0771C8.22064 29.4213 8.0842 29.7517 7.84082 29.9951C7.5974 30.2384 7.26702 30.375 6.92285 30.375C6.57866 30.3749 6.24827 30.2385 6.00488 29.9951C5.7615 29.7517 5.62506 29.4213 5.625 29.0771C5.625 28.733 5.76159 28.4026 6.00488 28.1592C6.24827 27.9158 6.57866 27.7794 6.92285 27.7793Z" fill="white"/>
<path fill-rule="evenodd" clip-rule="evenodd" d="M12.4619 27.7793C12.806 27.7794 13.1365 27.9158 13.3799 28.1592C13.6231 28.4026 13.7598 28.733 13.7598 29.0771C13.7597 29.4213 13.6232 29.7517 13.3799 29.9951C13.1365 30.2385 12.806 30.3749 12.4619 30.375C12.1178 30.375 11.7874 30.2384 11.5439 29.9951C11.3006 29.7517 11.1631 29.4213 11.1631 29.0771C11.1631 28.7329 11.3005 28.4026 11.5439 28.1592C11.7874 27.9158 12.1177 27.7793 12.4619 27.7793Z" fill="white"/>
<path fill-rule="evenodd" clip-rule="evenodd" d="M18 27.7793C18.3443 27.7793 18.6745 27.9157 18.918 28.1592C19.1613 28.4026 19.2979 28.7329 19.2979 29.0771C19.2978 29.4213 19.1614 29.7517 18.918 29.9951C18.6745 30.2385 18.3442 30.375 18 30.375C17.6558 30.375 17.3255 30.2385 17.082 29.9951C16.8386 29.7517 16.7022 29.4213 16.7021 29.0771C16.7021 28.7329 16.8387 28.4026 17.082 28.1592C17.3255 27.9157 17.6557 27.7793 18 27.7793Z" fill="white"/>
<path fill-rule="evenodd" clip-rule="evenodd" d="M23.5381 27.7793C23.8823 27.7793 24.2126 27.9158 24.4561 28.1592C24.6995 28.4026 24.8369 28.7329 24.8369 29.0771C24.8369 29.4213 24.6994 29.7517 24.4561 29.9951C24.2126 30.2384 23.8822 30.375 23.5381 30.375C23.194 30.3749 22.8635 30.2385 22.6201 29.9951C22.3768 29.7517 22.2403 29.4213 22.2402 29.0771C22.2402 28.733 22.3769 28.4026 22.6201 28.1592C22.8635 27.9158 23.194 27.7794 23.5381 27.7793Z" fill="white"/>
<path fill-rule="evenodd" clip-rule="evenodd" d="M29.0771 27.7793C29.4213 27.7794 29.7517 27.9158 29.9951 28.1592C30.2384 28.4026 30.375 28.733 30.375 29.0771C30.3749 29.4213 30.2385 29.7517 29.9951 29.9951C29.7517 30.2385 29.4213 30.3749 29.0771 30.375C28.733 30.375 28.4026 30.2384 28.1592 29.9951C27.9158 29.7517 27.7794 29.4213 27.7793 29.0771C27.7793 28.7329 27.9157 28.4026 28.1592 28.1592C28.4026 27.9157 28.7329 27.7793 29.0771 27.7793Z" fill="white"/>
<path d="M12.4619 21.7793C12.9285 21.7794 13.3762 21.964 13.7061 22.2939C14.036 22.6238 14.2206 23.0715 14.2207 23.5381C14.2207 24.0046 14.0358 24.4523 13.7061 24.7822C13.3762 25.1121 12.9285 25.2978 12.4619 25.2979C11.9952 25.2979 11.5478 25.1122 11.2178 24.7822C10.8878 24.4522 10.7021 24.0048 10.7021 23.5381C10.7022 23.0715 10.8879 22.6238 11.2178 22.2939C11.5477 21.9642 11.9954 21.7793 12.4619 21.7793Z" fill="white"/>
<path fill-rule="evenodd" clip-rule="evenodd" d="M18 21.7793C18.4666 21.7793 18.9142 21.9641 19.2441 22.2939C19.574 22.6238 19.7597 23.0715 19.7598 23.5381C19.7598 24.0047 19.574 24.4523 19.2441 24.7822C18.9141 25.1122 18.4667 25.2979 18 25.2979C17.5333 25.2979 17.0859 25.1122 16.7559 24.7822C16.426 24.4523 16.2402 24.0047 16.2402 23.5381C16.2403 23.0715 16.426 22.6238 16.7559 22.2939C17.0858 21.9641 17.5334 21.7793 18 21.7793Z" fill="white"/>
<path d="M23.5381 21.7793C24.0046 21.7793 24.4523 21.9642 24.7822 22.2939C25.1121 22.6238 25.2978 23.0715 25.2979 23.5381C25.2979 24.0048 25.1122 24.4522 24.7822 24.7822C24.4522 25.1122 24.0048 25.2979 23.5381 25.2979C23.0715 25.2978 22.6238 25.1121 22.2939 24.7822C21.9642 24.4523 21.7793 24.0046 21.7793 23.5381C21.7794 23.0715 21.964 22.6238 22.2939 22.2939C22.6238 21.964 23.0715 21.7794 23.5381 21.7793Z" fill="white"/>
<path fill-rule="evenodd" clip-rule="evenodd" d="M6.92285 22.2402C7.26698 22.2402 7.59741 22.3769 7.84082 22.6201C8.08417 22.8635 8.2206 23.1939 8.2207 23.5381C8.2207 23.8823 8.08421 24.2126 7.84082 24.4561C7.59738 24.6995 7.26712 24.8369 6.92285 24.8369C6.57866 24.8369 6.24827 24.6994 6.00488 24.4561C5.76163 24.2126 5.625 23.8822 5.625 23.5381C5.6251 23.1939 5.76153 22.8635 6.00488 22.6201C6.24826 22.3768 6.5787 22.2403 6.92285 22.2402Z" fill="white"/>
<path fill-rule="evenodd" clip-rule="evenodd" d="M29.0771 22.2402C29.4213 22.2403 29.7517 22.3768 29.9951 22.6201C30.2385 22.8635 30.3749 23.194 30.375 23.5381C30.375 23.8822 30.2384 24.2126 29.9951 24.4561C29.7517 24.6994 29.4213 24.8369 29.0771 24.8369C28.7329 24.8369 28.4026 24.6995 28.1592 24.4561C27.9158 24.2126 27.7793 23.8823 27.7793 23.5381C27.7794 23.194 27.9158 22.8635 28.1592 22.6201C28.4026 22.3769 28.733 22.2402 29.0771 22.2402Z" fill="white"/>
<path fill-rule="evenodd" clip-rule="evenodd" d="M18 15.7793C18.5891 15.7793 19.1538 16.0131 19.5703 16.4297C19.9869 16.8462 20.2207 17.4109 20.2207 18C20.2207 18.5891 19.9869 19.1538 19.5703 19.5703C19.1538 19.9869 18.5891 20.2207 18 20.2207C17.4109 20.2207 16.8462 19.9869 16.4297 19.5703C16.0131 19.1538 15.7793 18.5891 15.7793 18C15.7793 17.4109 16.0131 16.8462 16.4297 16.4297C16.8462 16.0131 17.4109 15.7793 18 15.7793Z" fill="white"/>
<path fill-rule="evenodd" clip-rule="evenodd" d="M12.4619 16.2402C12.9285 16.2403 13.3762 16.426 13.7061 16.7559C14.0359 17.0858 14.2207 17.5334 14.2207 18C14.2207 18.4666 14.0359 18.9142 13.7061 19.2441C13.3762 19.574 12.9285 19.7597 12.4619 19.7598C11.9953 19.7598 11.5477 19.574 11.2178 19.2441C10.8878 18.9141 10.7021 18.4667 10.7021 18C10.7021 17.5333 10.8878 17.0859 11.2178 16.7559C11.5477 16.426 11.9953 16.2402 12.4619 16.2402Z" fill="white"/>
<path fill-rule="evenodd" clip-rule="evenodd" d="M23.5381 16.2402C24.0047 16.2402 24.4523 16.426 24.7822 16.7559C25.1122 17.0859 25.2979 17.5333 25.2979 18C25.2979 18.4667 25.1122 18.9141 24.7822 19.2441C24.4523 19.574 24.0047 19.7598 23.5381 19.7598C23.0715 19.7597 22.6238 19.574 22.2939 19.2441C21.9641 18.9142 21.7793 18.4666 21.7793 18C21.7793 17.5334 21.9641 17.0858 22.2939 16.7559C22.6238 16.426 23.0715 16.2403 23.5381 16.2402Z" fill="white"/>
<path fill-rule="evenodd" clip-rule="evenodd" d="M6.92285 16.7021C7.26707 16.7021 7.59739 16.8387 7.84082 17.082C8.08426 17.3255 8.2207 17.6557 8.2207 18C8.2207 18.3443 8.08426 18.6745 7.84082 18.918C7.59739 19.1613 7.26707 19.2979 6.92285 19.2979C6.57866 19.2978 6.24827 19.1614 6.00488 18.918C5.76152 18.6745 5.625 18.3442 5.625 18C5.625 17.6558 5.76152 17.3255 6.00488 17.082C6.24827 16.8386 6.57866 16.7022 6.92285 16.7021Z" fill="white"/>
<path fill-rule="evenodd" clip-rule="evenodd" d="M29.0771 16.7021C29.4213 16.7022 29.7517 16.8386 29.9951 17.082C30.2385 17.3255 30.375 17.6558 30.375 18C30.375 18.3442 30.2385 18.6745 29.9951 18.918C29.7517 19.1614 29.4213 19.2978 29.0771 19.2979C28.7329 19.2979 28.4026 19.1613 28.1592 18.918C27.9157 18.6745 27.7793 18.3443 27.7793 18C27.7793 17.6557 27.9157 17.3255 28.1592 17.082C28.4026 16.8387 28.7329 16.7021 29.0771 16.7021Z" fill="white"/>
<path d="M12.4619 10.7021C12.9285 10.7022 13.3762 10.8879 13.7061 11.2178C14.0358 11.5477 14.2207 11.9954 14.2207 12.4619C14.2206 12.9285 14.036 13.3762 13.7061 13.7061C13.3762 14.036 12.9285 14.2206 12.4619 14.2207C11.9954 14.2207 11.5477 14.0358 11.2178 13.7061C10.8879 13.3762 10.7022 12.9285 10.7021 12.4619C10.7021 11.9952 10.8878 11.5478 11.2178 11.2178C11.5478 10.8878 11.9952 10.7021 12.4619 10.7021Z" fill="white"/>
<path fill-rule="evenodd" clip-rule="evenodd" d="M18 10.7021C18.4667 10.7021 18.9141 10.8878 19.2441 11.2178C19.574 11.5477 19.7598 11.9953 19.7598 12.4619C19.7597 12.9285 19.574 13.3762 19.2441 13.7061C18.9142 14.0359 18.4666 14.2207 18 14.2207C17.5334 14.2207 17.0858 14.0359 16.7559 13.7061C16.426 13.3762 16.2403 12.9285 16.2402 12.4619C16.2402 11.9953 16.426 11.5477 16.7559 11.2178C17.0859 10.8878 17.5333 10.7021 18 10.7021Z" fill="white"/>
<path d="M23.5381 10.7021C24.0048 10.7021 24.4522 10.8878 24.7822 11.2178C25.1122 11.5478 25.2979 11.9952 25.2979 12.4619C25.2978 12.9285 25.1121 13.3762 24.7822 13.7061C24.4523 14.0358 24.0046 14.2207 23.5381 14.2207C23.0715 14.2206 22.6238 14.036 22.2939 13.7061C21.964 13.3762 21.7794 12.9285 21.7793 12.4619C21.7793 11.9954 21.9642 11.5477 22.2939 11.2178C22.6238 10.8879 23.0715 10.7022 23.5381 10.7021Z" fill="white"/>
<path fill-rule="evenodd" clip-rule="evenodd" d="M6.92285 11.1631C7.26712 11.1631 7.59738 11.3005 7.84082 11.5439C8.08421 11.7874 8.2207 12.1177 8.2207 12.4619C8.2206 12.806 8.08417 13.1365 7.84082 13.3799C7.59741 13.6231 7.26698 13.7598 6.92285 13.7598C6.5787 13.7597 6.24826 13.6232 6.00488 13.3799C5.76153 13.1365 5.6251 12.806 5.625 12.4619C5.625 12.1178 5.76163 11.7874 6.00488 11.5439C6.24827 11.3006 6.57866 11.1631 6.92285 11.1631Z" fill="white"/>
<path fill-rule="evenodd" clip-rule="evenodd" d="M29.0771 11.1631C29.4213 11.1631 29.7517 11.3006 29.9951 11.5439C30.2384 11.7874 30.375 12.1178 30.375 12.4619C30.3749 12.806 30.2385 13.1365 29.9951 13.3799C29.7517 13.6232 29.4213 13.7597 29.0771 13.7598C28.733 13.7598 28.4026 13.6231 28.1592 13.3799C27.9158 13.1365 27.7794 12.806 27.7793 12.4619C27.7793 12.1177 27.9158 11.7874 28.1592 11.5439C28.4026 11.3005 28.7329 11.1631 29.0771 11.1631Z" fill="white"/>
<path fill-rule="evenodd" clip-rule="evenodd" d="M6.92285 5.625C7.26702 5.625 7.59741 5.76159 7.84082 6.00488C8.0842 6.24827 8.22064 6.57866 8.2207 6.92285C8.2207 7.26712 8.08426 7.59738 7.84082 7.84082C7.59738 8.08426 7.26712 8.2207 6.92285 8.2207C6.57866 8.22064 6.24827 8.0842 6.00488 7.84082C5.76159 7.59741 5.625 7.26702 5.625 6.92285C5.62506 6.57866 5.7615 6.24827 6.00488 6.00488C6.24827 5.7615 6.57866 5.62506 6.92285 5.625Z" fill="white"/>
<path fill-rule="evenodd" clip-rule="evenodd" d="M12.4619 5.625C12.806 5.6251 13.1365 5.76153 13.3799 6.00488C13.6232 6.24826 13.7597 6.5787 13.7598 6.92285C13.7598 7.26698 13.6231 7.59741 13.3799 7.84082C13.1365 8.08417 12.806 8.2206 12.4619 8.2207C12.1177 8.2207 11.7874 8.08421 11.5439 7.84082C11.3005 7.59738 11.1631 7.26712 11.1631 6.92285C11.1631 6.57866 11.3006 6.24827 11.5439 6.00488C11.7874 5.76163 12.1178 5.625 12.4619 5.625Z" fill="white"/>
<path fill-rule="evenodd" clip-rule="evenodd" d="M18 5.625C18.3442 5.625 18.6745 5.76152 18.918 6.00488C19.1614 6.24827 19.2978 6.57866 19.2979 6.92285C19.2979 7.26707 19.1613 7.59739 18.918 7.84082C18.6745 8.08426 18.3443 8.2207 18 8.2207C17.6557 8.2207 17.3255 8.08426 17.082 7.84082C16.8387 7.59739 16.7021 7.26707 16.7021 6.92285C16.7022 6.57866 16.8386 6.24827 17.082 6.00488C17.3255 5.76152 17.6558 5.625 18 5.625Z" fill="white"/>
<path fill-rule="evenodd" clip-rule="evenodd" d="M23.5381 5.625C23.8822 5.625 24.2126 5.76163 24.4561 6.00488C24.6994 6.24827 24.8369 6.57866 24.8369 6.92285C24.8369 7.26712 24.6995 7.59738 24.4561 7.84082C24.2126 8.08421 23.8823 8.2207 23.5381 8.2207C23.1939 8.2206 22.8635 8.08417 22.6201 7.84082C22.3769 7.59741 22.2402 7.26698 22.2402 6.92285C22.2403 6.5787 22.3768 6.24826 22.6201 6.00488C22.8635 5.76153 23.1939 5.6251 23.5381 5.625Z" fill="white"/>
<path fill-rule="evenodd" clip-rule="evenodd" d="M29.0771 5.625C29.4213 5.62506 29.7517 5.7615 29.9951 6.00488C30.2385 6.24827 30.3749 6.57866 30.375 6.92285C30.375 7.26702 30.2384 7.5974 29.9951 7.84082C29.7517 8.0842 29.4213 8.22064 29.0771 8.2207C28.7329 8.2207 28.4026 8.08426 28.1592 7.84082C27.9157 7.59738 27.7793 7.26712 27.7793 6.92285C27.7794 6.57866 27.9158 6.24827 28.1592 6.00488C28.4026 5.76159 28.733 5.625 29.0771 5.625Z" fill="white"/>
</svg>
