<svg width="36" height="36" viewBox="0 0 36 36" fill="none" xmlns="http://www.w3.org/2000/svg">
<path d="M4.5 5.75C5.05228 5.75 5.5 6.19772 5.5 6.75V29.25C5.5 29.8023 5.05228 30.25 4.5 30.25C3.94772 30.25 3.5 29.8023 3.5 29.25V6.75C3.5 6.19772 3.94772 5.75 4.5 5.75Z" fill="white"/>
<path d="M31.5 5.75C32.0523 5.75 32.5 6.19772 32.5 6.75V29.25C32.5 29.8023 32.0523 30.25 31.5 30.25C30.9477 30.25 30.5 29.8023 30.5 29.25V6.75C30.5 6.19772 30.9477 5.75 31.5 5.75Z" fill="white"/>
<path fill-rule="evenodd" clip-rule="evenodd" d="M27 28H24.0215L22.1729 22.7197H13.6475L11.8242 28H9L16.3438 7H19.5537L27 28ZM14.6494 19.7803H21.1455L17.8848 10.3896L14.6494 19.7803Z" fill="white"/>
</svg>
