<svg width="36" height="36" viewBox="0 0 36 36" fill="none" xmlns="http://www.w3.org/2000/svg">
<path fill-rule="evenodd" clip-rule="evenodd" d="M22.6786 3.13762C23.0862 3.37684 23.2707 3.86873 23.1209 4.31696L19.7678 14.3514H29C29.3961 14.3514 29.7548 14.5851 29.9148 14.9474C30.0748 15.3097 30.0059 15.7322 29.7391 16.025L14.5667 32.6736C14.2484 33.0229 13.729 33.1017 13.3214 32.8625C12.9138 32.6232 12.7294 32.1313 12.8792 31.6831L16.2322 21.6487H7.00002C6.60398 21.6487 6.24526 21.415 6.08526 21.0527C5.92526 20.6904 5.99414 20.2678 6.2609 19.9751L21.4333 3.32646C21.7516 2.97715 22.271 2.89839 22.6786 3.13762ZM9.26432 19.6487H17.6207C17.9423 19.6487 18.2442 19.8033 18.4322 20.0643C18.6201 20.3252 18.6711 20.6606 18.5692 20.9656L16.2757 27.8292L26.7357 16.3514H18.3793C18.0578 16.3514 17.7558 16.1967 17.5679 15.9358C17.3799 15.6749 17.329 15.3395 17.4309 15.0345L19.7244 8.1709L9.26432 19.6487Z" fill="white"/>
</svg>
