<svg width="36" height="36" viewBox="0 0 36 36" fill="none" xmlns="http://www.w3.org/2000/svg">
<path d="M13.4545 14.9545C13.8938 14.5152 14.6062 14.5152 15.0455 14.9545L18 17.909L20.9545 14.9545C21.3938 14.5152 22.1062 14.5152 22.5455 14.9545C22.9848 15.3938 22.9848 16.1062 22.5455 16.5455L19.125 19.966V23.25C19.125 23.8713 18.6213 24.375 18 24.375C17.3787 24.375 16.875 23.8713 16.875 23.25V19.966L13.4545 16.5455C13.0152 16.1062 13.0152 15.3938 13.4545 14.9545Z" fill="white"/>
<path fill-rule="evenodd" clip-rule="evenodd" d="M6.75 14.25C6.75 8.0368 11.7868 3 18 3C24.2132 3 29.25 8.0368 29.25 14.25C29.25 17.6323 27.756 20.667 25.3957 22.7276C24.9641 23.1044 24.6831 23.5273 24.579 23.9572L24.2427 25.346C23.7945 27.1966 22.1377 28.5 20.2336 28.5H15.7664C13.8623 28.5 12.2055 27.1966 11.7573 25.346L11.421 23.9572C11.3169 23.5273 11.0359 23.1044 10.6043 22.7276C8.24402 20.667 6.75 17.6323 6.75 14.25ZM18 5.25C13.0294 5.25 9 9.27944 9 14.25C9 16.9555 10.1924 19.3811 12.0841 21.0327C12.7614 21.624 13.3654 22.4268 13.6078 23.4276L13.9441 24.8163C14.1478 25.6576 14.9009 26.25 15.7664 26.25H20.2336C21.0991 26.25 21.8522 25.6576 22.0559 24.8163L22.3922 23.4276C22.6346 22.4268 23.2386 21.624 23.9159 21.0327C25.8076 19.3811 27 16.9555 27 14.25C27 9.27944 22.9706 5.25 18 5.25Z" fill="white"/>
<path d="M14.25 30.75C13.6287 30.75 13.125 31.2537 13.125 31.875C13.125 32.4963 13.6287 33 14.25 33H21.75C22.3713 33 22.875 32.4963 22.875 31.875C22.875 31.2537 22.3713 30.75 21.75 30.75H14.25Z" fill="white"/>
</svg>
