<svg width="36" height="36" viewBox="0 0 36 36" fill="none" xmlns="http://www.w3.org/2000/svg">
<path fill-rule="evenodd" clip-rule="evenodd" d="M17.9942 3.64323C18.403 2.42081 19.7027 1.74047 20.9397 2.09272C23.6784 2.87258 25.2897 5.69829 24.554 8.44778L23.1084 13.8507C23.0237 14.1675 23.2626 14.4863 23.6024 14.4863H26.7102C30.9421 14.4863 33.6154 19.0373 31.5265 22.7208L27.7199 29.4332C26.1997 32.1136 23.1073 33.4928 20.0924 32.8396L11.2554 30.9249C10.5949 31.9226 9.40474 32.5248 8.12282 32.3651L6.61191 32.1769C4.91083 31.9649 3.65962 30.4753 3.75512 28.762L4.31123 18.7854C4.38328 17.4929 5.21468 16.3675 6.42683 15.9144L7.86982 15.3751C9.21016 14.8742 10.5949 15.3067 11.4474 16.2506C11.7245 15.956 11.9747 15.635 12.1943 15.2912L15.7603 9.70619C16.0478 9.25579 16.2789 8.772 16.4482 8.26567L17.9942 3.64323ZM12.2765 18.2238C12.2835 18.3395 12.2844 18.4567 12.279 18.5752L11.8037 28.9973L20.5159 30.8849C22.6785 31.3535 24.8931 30.3633 25.9802 28.4466L29.7868 21.7342C31.1139 19.394 29.4208 16.4863 26.7102 16.4863H23.6024C21.9567 16.4863 20.7495 14.9292 21.1764 13.3338L22.622 7.93084C23.074 6.24146 22.0853 4.49846 20.392 4.01625C20.1787 3.95552 19.959 4.07389 19.8909 4.27759L18.3449 8.90004C18.1236 9.56187 17.8217 10.1941 17.446 10.7825L13.8799 16.3675C13.4354 17.0638 12.8944 17.6881 12.2765 18.2238ZM10.2359 18.0811C10.0436 17.4008 9.28661 16.9807 8.57001 17.2486L7.12702 17.7879C6.65569 17.964 6.33582 18.3999 6.30813 18.8967L5.75202 28.8733C5.71536 29.531 6.19608 30.1096 6.85916 30.1922L8.37007 30.3804C8.99832 30.4587 9.56943 30.0662 9.74127 29.4937C9.77003 29.3978 9.78797 29.2958 9.79287 29.1882L10.2811 18.484C10.2877 18.3388 10.2707 18.2042 10.2359 18.0811Z" fill="white"/>
</svg>
