<svg width="36" height="36" viewBox="0 0 36 36" fill="none" xmlns="http://www.w3.org/2000/svg">
<path d="M26.998 5.13662C27.3886 4.74611 28.0216 4.74615 28.4121 5.13662L32.5859 9.31044C32.7734 9.49797 32.8789 9.75231 32.8789 10.0175C32.8788 10.2826 32.7734 10.537 32.5859 10.7245L28.4521 14.8583C28.0616 15.2488 27.4276 15.2488 27.0371 14.8583C26.647 14.4678 26.6468 13.8346 27.0371 13.4442L29.4766 11.0058L22.4443 10.9726C20.4985 10.9634 18.9185 12.5433 18.9277 14.4892L18.958 20.8866C18.9725 23.9444 16.4903 26.4272 13.4326 26.413L8.86426 26.3905C8.48418 27.6113 7.34591 28.4979 6 28.4979C4.34318 28.4979 3.00006 27.1547 3 25.4979C3 23.8411 4.34315 22.4979 6 22.4979C7.26538 22.4979 8.34528 23.2823 8.78613 24.3905L13.4414 24.413C15.3872 24.4222 16.9671 22.8422 16.958 20.8964L16.9277 14.4989C16.9133 11.441 19.3962 8.95808 22.4541 8.97255L29.4531 9.00576L26.998 6.55068C26.6076 6.16021 26.6077 5.52714 26.998 5.13662Z" fill="white"/>
</svg>
