<svg width="36" height="36" viewBox="0 0 36 36" fill="none" xmlns="http://www.w3.org/2000/svg">
<path fill-rule="evenodd" clip-rule="evenodd" d="M28.4124 5.13664L32.5861 9.3103C32.7736 9.49784 32.879 9.75219 32.879 10.0174C32.879 10.2826 32.7736 10.537 32.5861 10.7245L28.4517 14.8589C28.0612 15.2494 27.428 15.2494 27.0375 14.8589C26.647 14.4683 26.647 13.8352 27.0375 13.4446L29.4761 11.006L22.4444 10.9728C20.4985 10.9636 18.9187 12.5434 18.9279 14.4893L18.9582 20.8869C18.9727 23.9448 16.4901 26.4273 13.4322 26.4129L5.51297 26.3754C4.96069 26.3728 4.51509 25.923 4.51771 25.3707C4.52032 24.8184 4.97015 24.3728 5.52243 24.3754L13.4417 24.4129C15.3876 24.4221 16.9674 22.8423 16.9582 20.8964L16.9279 14.4988C16.9135 11.4409 19.396 8.95833 22.4539 8.9728L29.4533 9.00592L26.9982 6.55086C26.6077 6.16033 26.6077 5.52717 26.9982 5.13664C27.3887 4.74612 28.0219 4.74612 28.4124 5.13664Z" fill="white"/>
<path d="M9 25.4981C9 27.1549 7.65685 28.4981 6 28.4981C4.34315 28.4981 3 27.1549 3 25.4981C3 23.8412 4.34315 22.4981 6 22.4981C7.65685 22.4981 9 23.8412 9 25.4981Z" fill="white"/>
</svg>
