<svg width="36" height="36" viewBox="0 0 36 36" fill="none" xmlns="http://www.w3.org/2000/svg">
<path d="M9.41241 15.3368C9.80294 14.9465 10.436 14.9464 10.8265 15.3368C11.2168 15.7273 11.2168 16.3604 10.8265 16.7509L7.90949 19.6679C5.51761 22.0598 5.51757 25.938 7.90949 28.33C10.3014 30.7218 14.1796 30.7218 16.5716 28.33L19.4885 25.413C19.8791 25.0226 20.5121 25.0225 20.9026 25.413C21.2931 25.8035 21.293 26.4365 20.9026 26.827L17.9856 29.744C14.8126 32.9169 9.66841 32.917 6.49543 29.744C3.32247 26.5711 3.3225 21.4268 6.49543 18.2538L9.41241 15.3368ZM5.64485 4.49211C6.03537 4.10159 6.66838 4.10159 7.05891 4.49211L18.6956 16.1288L23.2004 11.6249C23.591 11.2344 24.224 11.2344 24.6145 11.6249C25.0049 12.0154 25.005 12.6485 24.6145 13.039L20.1096 17.5429L32.5149 29.9472C32.9054 30.3377 32.9054 30.9717 32.5149 31.3622C32.1245 31.7525 31.4913 31.7523 31.1008 31.3622L5.64485 5.90617C5.25437 5.51569 5.25445 4.88265 5.64485 4.49211ZM17.3206 20.3329L12.9476 24.706C12.557 25.0964 11.924 25.0964 11.5335 24.706C11.143 24.3155 11.143 23.6824 11.5335 23.2919L15.9065 18.9189L17.3206 20.3329ZM18.1624 6.58586C21.3352 3.4132 26.4796 3.41337 29.6526 6.58586C32.8255 9.75885 32.8255 14.904 29.6526 18.0771L26.7366 20.994C26.346 21.3845 25.712 21.3846 25.3215 20.994C24.931 20.6035 24.931 19.9695 25.3215 19.579L28.2385 16.663C30.6304 14.2711 30.6304 10.3928 28.2385 8.0009C25.8466 5.60896 21.9684 5.60899 19.5764 8.0009L16.6595 10.9169C16.2689 11.3074 15.6359 11.3074 15.2454 10.9169C14.8553 10.5264 14.855 9.89324 15.2454 9.50285L18.1624 6.58586Z" fill="white"/>
</svg>
