<svg width="36" height="36" viewBox="0 0 36 36" fill="none" xmlns="http://www.w3.org/2000/svg">
<path d="M19.0196 16.6357V16.6777H18.9924L19.0196 16.6357Z" fill="white"/>
<path fill-rule="evenodd" clip-rule="evenodd" d="M10.5 4.5C7.18629 4.5 4.5 7.18629 4.5 10.5V25.5C4.5 28.8137 7.18629 31.5 10.5 31.5H25.5C28.8137 31.5 31.5 28.8137 31.5 25.5V10.5C31.5 7.18629 28.8137 4.5 25.5 4.5H10.5ZM12.6854 27.1016V14.9096H8.60729V27.1016H12.6854ZM10.6463 13.245C12.0684 13.245 12.9536 12.3088 12.9536 11.1388C12.9271 9.94246 12.0684 9.03223 10.6733 9.03223C9.2783 9.03223 8.36621 9.94246 8.36621 11.1388C8.36621 12.3088 9.25117 13.245 10.6197 13.245H10.6463ZM14.9414 27.1016H19.0195V20.293C19.0195 19.9286 19.046 19.5646 19.1537 19.3041C19.4485 18.5761 20.1195 17.8221 21.2461 17.8221C22.7217 17.8221 23.312 18.9401 23.312 20.5791V27.1016H27.3898V20.1108C27.3898 16.366 25.3779 14.6235 22.6948 14.6235C20.5315 14.6235 19.5615 15.8049 19.0196 16.6357V14.9096H14.9415C14.995 16.0536 14.9414 27.1016 14.9414 27.1016Z" fill="white"/>
</svg>
