<svg width="36" height="36" viewBox="0 0 36 36" fill="none" xmlns="http://www.w3.org/2000/svg">
<path fill-rule="evenodd" clip-rule="evenodd" d="M9 8.5C9 7.94772 9.44772 7.5 10 7.5H30C30.5523 7.5 31 7.94772 31 8.5C31 9.05228 30.5523 9.5 30 9.5H10C9.44772 9.5 9 9.05228 9 8.5Z" fill="white"/>
<path d="M7.25 8.5C7.25 9.4665 6.4665 10.25 5.5 10.25C4.5335 10.25 3.75 9.4665 3.75 8.5C3.75 7.5335 4.5335 6.75 5.5 6.75C6.4665 6.75 7.25 7.5335 7.25 8.5Z" fill="white"/>
<path fill-rule="evenodd" clip-rule="evenodd" d="M9 17.5C9 16.9477 9.44772 16.5 10 16.5H30C30.5523 16.5 31 16.9477 31 17.5C31 18.0523 30.5523 18.5 30 18.5H10C9.44772 18.5 9 18.0523 9 17.5Z" fill="white"/>
<path d="M7.25 17.5C7.25 18.4665 6.4665 19.25 5.5 19.25C4.5335 19.25 3.75 18.4665 3.75 17.5C3.75 16.5335 4.5335 15.75 5.5 15.75C6.4665 15.75 7.25 16.5335 7.25 17.5Z" fill="white"/>
<path fill-rule="evenodd" clip-rule="evenodd" d="M9 26.5C9 25.9477 9.44772 25.5 10 25.5H30C30.5523 25.5 31 25.9477 31 26.5C31 27.0523 30.5523 27.5 30 27.5H10C9.44772 27.5 9 27.0523 9 26.5Z" fill="white"/>
<path d="M7.25 26.5C7.25 27.4665 6.4665 28.25 5.5 28.25C4.5335 28.25 3.75 27.4665 3.75 26.5C3.75 25.5335 4.5335 24.75 5.5 24.75C6.4665 24.75 7.25 25.5335 7.25 26.5Z" fill="white"/>
</svg>
