<svg width="36" height="36" viewBox="0 0 36 36" fill="none" xmlns="http://www.w3.org/2000/svg">
<path d="M26.9855 8.02449C27.5826 7.80954 28.1602 8.3871 27.9452 8.9842L19.7903 31.6367C19.5379 32.3378 18.5283 32.2817 18.3552 31.5569L15.8272 20.9753C15.7287 20.5629 15.4068 20.241 14.9944 20.1425L4.41277 17.6145C3.68803 17.4414 3.63192 16.4318 4.33301 16.1794L26.9855 8.02449Z" fill="white"/>
<path fill-rule="evenodd" clip-rule="evenodd" d="M26.6468 7.0836C28.04 6.58205 29.3877 7.9297 28.8861 9.32292L20.7312 31.9754C20.1423 33.6113 17.7865 33.4804 17.3825 31.7893L14.8546 21.2077C14.8436 21.1618 14.8079 21.1261 14.762 21.1151L4.18041 18.5872C2.48934 18.1832 2.35841 15.8274 3.99429 15.2385L26.6468 7.0836ZM26.8244 9.14532L5.45988 16.8365L15.2268 19.1699C16.0056 19.3559 16.6138 19.9641 16.7998 20.7429L19.1332 30.5098L26.8244 9.14532Z" fill="white"/>
</svg>
