<svg width="36" height="36" viewBox="0 0 36 36" fill="none" xmlns="http://www.w3.org/2000/svg">
<path fill-rule="evenodd" clip-rule="evenodd" d="M18.9994 4C18.9994 3.44772 18.5517 3 17.9994 3C17.4472 3 16.9994 3.44772 16.9994 4V6.8276C11.603 7.3044 7.3044 11.603 6.8276 16.9994H4C3.44772 16.9994 3 17.4472 3 17.9994C3 18.5517 3.44772 18.9994 4 18.9994H6.8276C7.3044 24.3958 11.603 28.6945 16.9994 29.1713V31.9989C16.9994 32.5512 17.4472 32.9989 17.9994 32.9989C18.5517 32.9989 18.9994 32.5512 18.9994 31.9989V29.1713C24.3958 28.6945 28.6945 24.3958 29.1713 18.9994H31.9989C32.5512 18.9994 32.9989 18.5517 32.9989 17.9994C32.9989 17.4472 32.5512 16.9994 31.9989 16.9994H29.1713C28.6945 11.603 24.3958 7.3044 18.9994 6.8276V4ZM8.78363 17.9994C8.78363 12.9097 12.9097 8.78363 17.9994 8.78363C23.0892 8.78363 27.2152 12.9097 27.2152 17.9994C27.2152 23.0892 23.0892 27.2152 17.9994 27.2152C12.9097 27.2152 8.78363 23.0892 8.78363 17.9994ZM17.9993 22.5397C20.5069 22.5397 22.5397 20.5069 22.5397 17.9993C22.5397 15.4918 20.5069 13.459 17.9993 13.459C15.4918 13.459 13.459 15.4918 13.459 17.9993C13.459 20.5069 15.4918 22.5397 17.9993 22.5397Z" fill="white"/>
</svg>
