<svg width="36" height="36" viewBox="0 0 36 36" fill="none" xmlns="http://www.w3.org/2000/svg">
<path fill-rule="evenodd" clip-rule="evenodd" d="M19.2482 4.25C19.2482 3.55964 18.6886 3 17.9982 3C17.3079 3 16.7482 3.55964 16.7482 4.25V6.50476C11.3614 7.08401 7.08279 11.3641 6.50382 16.7518H4.25C3.55964 16.7518 3 17.3115 3 18.0018C3 18.6922 3.55964 19.2518 4.25 19.2518H6.50382C7.08279 24.6396 11.3614 28.9196 16.7482 29.4989V31.7537C16.7482 32.444 17.3079 33.0037 17.9982 33.0037C18.6886 33.0037 19.2482 32.444 19.2482 31.7537V29.4989C24.6351 28.9196 28.9137 24.6396 29.4926 19.2518H31.7465C32.4368 19.2518 32.9965 18.6922 32.9965 18.0018C32.9965 17.3115 32.4368 16.7518 31.7465 16.7518H29.4926C28.9137 11.3641 24.6351 7.08401 19.2482 6.50476V4.25ZM8.93706 18.0018C8.93706 12.9957 12.9942 8.93796 17.9982 8.93796C23.0023 8.93796 27.0594 12.9957 27.0594 18.0018C27.0594 23.008 23.0023 27.0657 17.9982 27.0657C12.9942 27.0657 8.93706 23.008 8.93706 18.0018ZM17.998 24.1145C21.3727 24.1145 24.1083 21.3781 24.1083 18.0025C24.1083 14.627 21.3727 11.8906 17.998 11.8906C14.6234 11.8906 11.8877 14.627 11.8877 18.0025C11.8877 21.3781 14.6234 24.1145 17.998 24.1145Z" fill="white"/>
</svg>
