<svg width="36" height="36" viewBox="0 0 36 36" fill="none" xmlns="http://www.w3.org/2000/svg">
<path fill-rule="evenodd" clip-rule="evenodd" d="M22.0263 9.48626C22.0263 7.00857 24.0349 5 26.5126 5C28.9903 5 30.9989 7.00857 30.9989 9.48627V17.0405C30.9989 17.5928 31.4466 18.0405 31.9989 18.0405C32.5512 18.0405 32.9989 17.5928 32.9989 17.0405V9.48627C32.9989 5.904 30.0949 3 26.5126 3C22.9303 3 20.0263 5.904 20.0263 9.48626V14.8899H9.95753C8.94349 14.8899 8.12179 14.8899 7.45558 14.9443C6.76841 15.0004 6.1591 15.1194 5.59355 15.4076C4.69978 15.863 3.97312 16.5897 3.51772 17.4834C3.22956 18.049 3.11056 18.6583 3.05441 19.3455C2.99998 20.0117 2.99999 20.8334 3 21.8474V26.0412C2.99999 27.0553 2.99998 27.877 3.05441 28.5432C3.11056 29.2303 3.22956 29.8397 3.51772 30.4052C3.97312 31.299 4.69978 32.0256 5.59355 32.481C6.1591 32.7692 6.76841 32.8882 7.45558 32.9443C8.12178 32.9988 8.94346 32.9988 9.95748 32.9988H19.9876C21.0016 32.9988 21.8233 32.9988 22.4895 32.9443C23.1767 32.8882 23.786 32.7692 24.3515 32.481C25.2453 32.0256 25.9719 31.299 26.4273 30.4052C26.7155 29.8397 26.8345 29.2303 26.8907 28.5432C26.9451 27.877 26.9451 27.0553 26.9451 26.0413L26.9451 20.6676C26.9454 19.7175 26.9457 19.058 26.8035 18.4888C26.3782 16.7862 25.0488 15.4568 23.3462 15.0315C22.9663 14.9366 22.5462 14.9051 22.0263 14.8948V9.48626ZM21.0263 16.8899C22.1731 16.8899 22.5634 16.8974 22.8615 16.9719C23.8472 17.2181 24.6169 17.9877 24.8631 18.9734C24.9376 19.2715 24.9451 19.6619 24.9451 20.8086V25.9987C24.9451 27.0653 24.9443 27.8052 24.8973 28.3803C24.8513 28.9438 24.7659 29.2606 24.6453 29.4972C24.3817 30.0147 23.961 30.4354 23.4435 30.699C23.2069 30.8196 22.8901 30.9049 22.3266 30.951C21.7515 30.998 21.0117 30.9988 19.9451 30.9988H10C8.9334 30.9988 8.19359 30.998 7.61844 30.951C7.05496 30.9049 6.73814 30.8196 6.50153 30.699C5.98408 30.4354 5.56338 30.0147 5.29973 29.4972C5.17917 29.2606 5.09381 28.9438 5.04777 28.3803C5.00078 27.8052 5 27.0653 5 25.9988V21.8899C5 20.8233 5.00078 20.0835 5.04777 19.5083C5.09381 18.9448 5.17917 18.628 5.29973 18.3914C5.56338 17.874 5.98408 17.4533 6.50153 17.1896C6.73814 17.0691 7.05496 16.9837 7.61844 16.9376C8.19359 16.8907 8.9334 16.8899 10 16.8899H21.0263ZM14.9728 27.0127C16.6445 27.0127 17.9997 25.6389 17.9997 23.9443C17.9997 22.2497 16.6445 20.876 14.9728 20.876C13.3011 20.876 11.9459 22.2497 11.9459 23.9443C11.9459 25.6389 13.3011 27.0127 14.9728 27.0127Z" fill="white"/>
</svg>
