<svg width="36" height="36" viewBox="0 0 36 36" fill="none" xmlns="http://www.w3.org/2000/svg">
<path fill-rule="evenodd" clip-rule="evenodd" d="M25.1251 10.2152V14.7807C25.559 14.7938 25.9263 14.8267 26.2631 14.9086C28.0457 15.3419 29.4374 16.7513 29.8654 18.5564C30.0007 19.1274 30.0005 19.7849 30.0001 20.7005L30.0001 25.8326C30.0001 26.8553 30.0001 27.6919 29.9452 28.3717C29.8885 29.0754 29.7674 29.711 29.4687 30.3045C29.0014 31.2334 28.2556 31.9886 27.3383 32.4619C26.7522 32.7643 26.1246 32.887 25.4297 32.9445C24.7583 33 23.9323 33 22.9222 33H13.0779C12.0679 33 11.2418 33 10.5705 32.9445C9.87558 32.887 9.24798 32.7643 8.66187 32.4619C7.74458 31.9886 6.9988 31.2334 6.53142 30.3045C6.23278 29.711 6.11168 29.0754 6.0549 28.3717C6.00005 27.6919 6.00006 26.8554 6.00008 25.8325L6.00004 20.7006C5.99967 19.7849 5.9994 19.1274 6.13477 18.5564C6.56272 16.7513 7.95449 15.3419 9.73703 14.9086C10.0738 14.8267 10.4412 14.7938 10.8751 14.7807V10.2152C10.8751 6.23035 14.065 3 18.0001 3C21.9351 3 25.1251 6.23035 25.1251 10.2152ZM13.1251 10.2152C13.1251 7.48872 15.3077 5.27848 18.0001 5.27848C20.6925 5.27848 22.8751 7.48872 22.8751 10.2152V14.7722H13.1251V10.2152ZM18 26.924C19.6569 26.924 21 25.5639 21 23.8861C21 22.2082 19.6569 20.8481 18 20.8481C16.3431 20.8481 15 22.2082 15 23.8861C15 25.5639 16.3431 26.924 18 26.924Z" fill="white"/>
</svg>
