<svg width="36" height="36" viewBox="0 0 36 36" fill="none" xmlns="http://www.w3.org/2000/svg">
<path fill-rule="evenodd" clip-rule="evenodd" d="M22.125 9.64557C22.125 7.23369 24.0558 5.27848 26.4375 5.27848C28.8192 5.27848 30.75 7.23369 30.75 9.64557V17.0506C30.75 17.6798 31.2537 18.1899 31.875 18.1899C32.4963 18.1899 33 17.6798 33 17.0506V9.64557C33 5.97532 30.0619 3 26.4375 3C22.8131 3 19.875 5.97532 19.875 9.64557V14.7722H10.0779C9.06781 14.7721 8.24175 14.7721 7.5704 14.8277C6.87551 14.8852 6.24791 15.0078 5.6618 15.3102C4.74451 15.7835 3.99873 16.5387 3.53134 17.4676C3.23271 18.0612 3.1116 18.6967 3.05483 19.4004C2.99998 20.0802 2.99999 20.9168 3 21.9396V25.8325C2.99999 26.8554 2.99998 27.6919 3.05483 28.3717C3.1116 29.0754 3.23271 29.711 3.53134 30.3045C3.99873 31.2334 4.74451 31.9886 5.6618 32.4619C6.24791 32.7643 6.87551 32.887 7.5704 32.9445C8.24174 33 9.06779 33 10.0778 33H19.9222C20.9322 33 21.7583 33 22.4296 32.9445C23.1245 32.887 23.7521 32.7643 24.3382 32.4619C25.2555 31.9886 26.0013 31.2334 26.4687 30.3045C26.7673 29.711 26.8884 29.0754 26.9452 28.3717C27 27.6919 27 26.8555 27 25.8327L27 20.7006C27.0004 19.785 27.0007 19.1274 26.8653 18.5564C26.4374 16.7513 25.0456 15.3419 23.263 14.9086C22.9262 14.8267 22.5589 14.7938 22.125 14.7807V9.64557ZM15 26.924C16.6569 26.924 18 25.5639 18 23.8861C18 22.2082 16.6569 20.8481 15 20.8481C13.3431 20.8481 12 22.2082 12 23.8861C12 25.5639 13.3431 26.924 15 26.924Z" fill="white"/>
</svg>
