<svg width="36" height="36" viewBox="0 0 36 36" fill="none" xmlns="http://www.w3.org/2000/svg">
<path fill-rule="evenodd" clip-rule="evenodd" d="M15.9361 29.316C15.5002 28.4603 15.5002 27.3402 15.5002 25.1V18.9996H23.1034L20.2362 21.8281C19.8431 22.216 19.8387 22.8491 20.2266 23.2423C20.6145 23.6355 21.2476 23.6398 21.6408 23.2519L26.2433 18.7115C26.4338 18.5236 26.541 18.2672 26.541 17.9996C26.541 17.7321 26.4338 17.4757 26.2433 17.2878L21.6408 12.7474C21.2476 12.3595 20.6145 12.3638 20.2266 12.757C19.8387 13.1502 19.8431 13.7833 20.2362 14.1712L23.1034 16.9996H15.5002V10.9C15.5002 8.65979 15.5002 7.53968 15.9361 6.68404C16.3196 5.93139 16.9315 5.31947 17.6842 4.93597C18.5398 4.5 19.6599 4.5 21.9002 4.5H25.1002C27.3404 4.5 28.4605 4.5 29.3161 4.93598C30.0688 5.31947 30.6807 5.93139 31.0642 6.68404C31.5002 7.53969 31.5002 8.65979 31.5002 10.9V25.1C31.5002 27.3402 31.5002 28.4603 31.0642 29.316C30.6807 30.0686 30.0688 30.6805 29.3161 31.064C28.4605 31.5 27.3404 31.5 25.1002 31.5H21.9002C19.6599 31.5 18.5398 31.5 17.6842 31.064C16.9315 30.6805 16.3196 30.0686 15.9361 29.316ZM15.5002 16.9996H10C9.44772 16.9996 9 17.4474 9 17.9996C9 18.5519 9.44772 18.9996 10 18.9996H15.5002V16.9996Z" fill="white"/>
</svg>
