<svg width="36" height="36" viewBox="0 0 36 36" fill="none" xmlns="http://www.w3.org/2000/svg">
<path fill-rule="evenodd" clip-rule="evenodd" d="M24.5416 4.5L20.121 4.5C18.188 4.5 16.6206 6.06621 16.6191 7.99922C16.6186 8.5515 17.066 8.99957 17.6183 9C18.1706 9.00043 18.6186 8.55307 18.6191 8.00078C18.6197 7.17174 19.292 6.5 20.121 6.5H24.4991C25.5657 6.5 26.3055 6.50078 26.8807 6.54777C27.4442 6.59381 27.761 6.67917 27.9976 6.79973C28.5151 7.06338 28.9357 7.48408 29.1994 8.00153C29.32 8.23814 29.4053 8.55496 29.4514 9.11844C29.4984 9.6936 29.4991 10.4334 29.4991 11.5V24.4986C29.4991 25.5652 29.4984 26.305 29.4514 26.8802C29.4053 27.4437 29.32 27.7605 29.1994 27.9971C28.9357 28.5145 28.5151 28.9352 27.9976 29.1989C27.761 29.3194 27.4442 29.4048 26.8807 29.4508C26.3055 29.4978 25.5657 29.4986 24.4991 29.4986H20.1196C19.292 29.4986 18.621 28.8277 18.621 28C18.621 27.4477 18.1733 27 17.621 27C17.0687 27 16.621 27.4477 16.621 28C16.621 29.9322 18.1874 31.4986 20.1196 31.4986H24.5416C25.5557 31.4986 26.3774 31.4986 27.0436 31.4442C27.7307 31.3881 28.34 31.2691 28.9056 30.9809C29.7994 30.5255 30.526 29.7988 30.9814 28.9051C31.2696 28.3395 31.3886 27.7302 31.4447 27.043C31.4992 26.3768 31.4991 25.5551 31.4991 24.5411V11.4575C31.4991 10.4435 31.4992 9.62178 31.4447 8.95558C31.3886 8.26842 31.2696 7.6591 30.9814 7.09355C30.526 6.19978 29.7994 5.47312 28.9056 5.01772C28.34 4.72956 27.7307 4.61056 27.0436 4.55441C26.3774 4.49998 25.5557 4.49999 24.5416 4.5Z" fill="white"/>
<path fill-rule="evenodd" clip-rule="evenodd" d="M22.0409 17.9996C22.0409 17.7321 21.9337 17.4757 21.7432 17.2877L17.1407 12.7474C16.7475 12.3595 16.1144 12.3638 15.7265 12.757C15.3387 13.1502 15.343 13.7833 15.7361 14.1712L18.6033 16.9996H8.00049C7.4482 16.9996 7.00049 17.4474 7.00049 17.9996C7.00049 18.5519 7.4482 18.9996 8.00049 18.9996H18.6033L15.7361 21.8281C15.343 22.216 15.3387 22.8491 15.7265 23.2423C16.1144 23.6355 16.7475 23.6398 17.1407 23.2519L21.7432 18.7115C21.9337 18.5236 22.0409 18.2672 22.0409 17.9996Z" fill="white"/>
</svg>
