<svg width="36" height="36" viewBox="0 0 36 36" fill="none" xmlns="http://www.w3.org/2000/svg">
<path fill-rule="evenodd" clip-rule="evenodd" d="M20.5645 29.316C21.0005 28.4603 21.0005 27.3402 21.0005 25.1V18.9998L14.0007 19C13.4484 19 13.0007 18.5523 13.0006 18C13.0006 17.4477 13.4483 17 14.0006 17L21.0005 16.9998V10.9C21.0005 8.65979 21.0005 7.53969 20.5645 6.68404C20.181 5.93139 19.5691 5.31947 18.8165 4.93597C17.9608 4.5 16.8407 4.5 14.6005 4.5H12.4005C10.1603 4.5 9.04017 4.5 8.18453 4.93597C7.43188 5.31947 6.81996 5.93139 6.43646 6.68404C6.00049 7.53969 6.00049 8.65979 6.00049 10.9V25.1C6.00049 27.3402 6.00049 28.4603 6.43646 29.316C6.81996 30.0686 7.43188 30.6805 8.18453 31.064C9.04017 31.5 10.1603 31.5 12.4005 31.5H14.6005C16.8407 31.5 17.9608 31.5 18.8165 31.064C19.5691 30.6805 20.181 30.0686 20.5645 29.316ZM21.0005 16.9998L27.0631 16.9997L24.1959 14.1712C23.8027 13.7833 23.7984 13.1502 24.1862 12.757C24.5741 12.3638 25.2073 12.3595 25.6004 12.7474L30.2029 17.2878C30.3934 17.4757 30.5006 17.7321 30.5006 17.9996C30.5006 18.2672 30.3934 18.5236 30.2029 18.7115L25.6004 23.2519C25.2073 23.6398 24.5741 23.6355 24.1862 23.2423C23.7984 22.8491 23.8027 22.216 24.1959 21.8281L27.063 18.9997L21.0005 18.9998V16.9998Z" fill="white"/>
</svg>
