<svg width="36" height="36" viewBox="0 0 36 36" fill="none" xmlns="http://www.w3.org/2000/svg">
<path fill-rule="evenodd" clip-rule="evenodd" d="M11.4575 4.5L15.88 4.5C17.813 4.5 19.38 6.067 19.38 8C19.38 8.55229 18.9323 9 18.38 9C17.8277 9 17.38 8.55229 17.38 8C17.38 7.17157 16.7084 6.5 15.88 6.5H11.5C10.4334 6.5 9.69359 6.50078 9.11844 6.54777C8.55496 6.59381 8.23814 6.67917 8.00153 6.79973C7.48408 7.06338 7.06338 7.48408 6.79973 8.00153C6.67917 8.23814 6.59381 8.55496 6.54777 9.11844C6.50078 9.6936 6.5 10.4334 6.5 11.5V24.4986C6.5 25.5652 6.50078 26.305 6.54777 26.8802C6.59381 27.4437 6.67917 27.7605 6.79973 27.9971C7.06338 28.5145 7.48408 28.9352 8.00153 29.1989C8.23814 29.3194 8.55496 29.4048 9.11844 29.4508C9.69359 29.4978 10.4334 29.4986 11.5 29.4986H15.8814C16.709 29.4986 17.38 28.8277 17.38 28C17.38 27.4477 17.8277 27 18.38 27C18.9323 27 19.38 27.4477 19.38 28C19.38 29.9322 17.8136 31.4986 15.8814 31.4986H11.4575C10.4435 31.4986 9.62178 31.4986 8.95558 31.4442C8.26842 31.3881 7.6591 31.2691 7.09355 30.9809C6.19978 30.5255 5.47312 29.7988 5.01772 28.9051C4.72956 28.3395 4.61056 27.7302 4.55441 27.043C4.49998 26.3768 4.49999 25.5551 4.5 24.5411V11.4575C4.49999 10.4435 4.49998 9.62178 4.55441 8.95558C4.61056 8.26842 4.72956 7.6591 5.01772 7.09355C5.47312 6.19978 6.19978 5.47312 7.09355 5.01772C7.6591 4.72956 8.26842 4.61056 8.95558 4.55441C9.62178 4.49998 10.4435 4.49999 11.4575 4.5Z" fill="white"/>
<path fill-rule="evenodd" clip-rule="evenodd" d="M29 17.9997C29 17.7321 28.8928 17.4757 28.7023 17.2878L24.0998 12.7474C23.7066 12.3595 23.0735 12.3638 22.6856 12.757C22.2977 13.1502 22.302 13.7833 22.6952 14.1712L25.5624 16.9997H14.9596C14.4073 16.9997 13.9596 17.4474 13.9596 17.9997C13.9596 18.5519 14.4073 18.9997 14.9596 18.9997H25.5624L22.6952 21.8281C22.302 22.216 22.2977 22.8491 22.6856 23.2423C23.0735 23.6355 23.7066 23.6398 24.0998 23.2519L28.7023 18.7115C28.8928 18.5236 29 18.2672 29 17.9997Z" fill="white"/>
</svg>
