<svg width="36" height="36" viewBox="0 0 36 36" fill="none" xmlns="http://www.w3.org/2000/svg">
<path d="M12.7538 13.6776C13.1452 13.2881 13.7784 13.2897 14.168 13.6812L17.9516 17.4837C18.3398 17.8739 18.3398 18.5043 17.9516 18.8944L14.168 22.697C13.7784 23.0885 13.1452 23.0901 12.7538 22.7005C12.3623 22.311 12.3607 21.6778 12.7502 21.2863L15.832 18.1891L12.7502 15.0919C12.3607 14.7004 12.3623 14.0672 12.7538 13.6776Z" fill="white"/>
<path d="M18.8076 13.6776C19.1991 13.2881 19.8322 13.2897 20.2218 13.6812L24.0054 17.4837C24.3936 17.8739 24.3936 18.5043 24.0054 18.8944L20.2218 22.697C19.8322 23.0885 19.1991 23.0901 18.8076 22.7005C18.4161 22.311 18.4145 21.6778 18.804 21.2863L21.8858 18.1891L18.804 15.0919C18.4145 14.7004 18.4161 14.0672 18.8076 13.6776Z" fill="white"/>
<path fill-rule="evenodd" clip-rule="evenodd" d="M13.2158 8.30256C13.2158 8.35038 13.2192 8.39741 13.2256 8.44343H5.51346C4.96117 8.44343 4.51346 8.89115 4.51346 9.44343C4.51346 9.99572 4.96117 10.4434 5.51346 10.4434H7.54036L7.54036 20.9777C7.54035 21.9917 7.54035 22.8134 7.59478 23.4796C7.65092 24.1668 7.76992 24.7761 8.05808 25.3417C8.51348 26.2354 9.24014 26.9621 10.1339 27.4175C10.6995 27.7057 11.3088 27.8247 11.9959 27.8808C12.6621 27.9352 13.4838 27.9352 14.4978 27.9352H21.501C22.5151 27.9352 23.3368 27.9352 24.003 27.8808C24.6901 27.8247 25.2994 27.7057 25.865 27.4175C26.7587 26.9621 27.4854 26.2354 27.9408 25.3417C28.229 24.7761 28.348 24.1668 28.4041 23.4796C28.4585 22.8134 28.4585 21.9918 28.4585 20.9777V10.4434H30.4854C31.0377 10.4434 31.4854 9.99572 31.4854 9.44343C31.4854 8.89115 31.0377 8.44343 30.4854 8.44343H22.7732C22.7797 8.39741 22.7831 8.35038 22.7831 8.30256C22.7831 5.65489 20.6461 3.5 17.9994 3.5C15.3528 3.5 13.2158 5.65489 13.2158 8.30256ZM17.9994 5.5C16.4668 5.5 15.2158 6.75004 15.2158 8.30256C15.2158 8.35038 15.2124 8.39741 15.206 8.44343H20.7929C20.7864 8.39741 20.7831 8.35038 20.7831 8.30256C20.7831 6.75004 19.5321 5.5 17.9994 5.5ZM9.54036 20.9352V10.4434H26.4585V20.9352C26.4585 22.0018 26.4577 22.7416 26.4108 23.3168C26.3647 23.8803 26.2794 24.1971 26.1588 24.4337C25.8951 24.9511 25.4744 25.3718 24.957 25.6355C24.7204 25.756 24.4036 25.8414 23.8401 25.8874C23.2649 25.9344 22.5251 25.9352 21.4585 25.9352H14.5404C13.4738 25.9352 12.734 25.9344 12.1588 25.8874C11.5953 25.8414 11.2785 25.756 11.0419 25.6355C10.5244 25.3718 10.1037 24.9511 9.8401 24.4337C9.71953 24.1971 9.63417 23.8803 9.58813 23.3168C9.54114 22.7416 9.54036 22.0018 9.54036 20.9352Z" fill="white"/>
<path d="M32.9989 23.1326C32.9989 22.5803 32.5512 22.1326 31.9989 22.1326C31.4466 22.1326 30.9989 22.5803 30.9989 23.1326C30.9989 23.2426 30.9989 23.2895 30.9984 23.328C30.955 27.2696 27.7703 30.4544 23.8287 30.4978C23.7902 30.4982 23.7433 30.4982 23.6332 30.4982H12.3656C12.2556 30.4982 12.2087 30.4982 12.1702 30.4978C8.22856 30.4544 5.04383 27.2696 5.00044 23.328C5.00002 23.2895 5 23.2426 5 23.1326H3V23.1405C3 23.2403 3 23.299 3.00056 23.35C3.05592 28.379 7.1192 32.4423 12.1482 32.4976C12.1991 32.4982 12.2579 32.4982 12.3577 32.4982H23.6411C23.741 32.4982 23.7997 32.4982 23.8507 32.4976C28.8797 32.4423 32.943 28.379 32.9983 23.35C32.9989 23.299 32.9989 23.2403 32.9989 23.1405V23.1326Z" fill="white"/>
</svg>
