<svg width="36" height="36" viewBox="0 0 36 36" fill="none" xmlns="http://www.w3.org/2000/svg">
<path fill-rule="evenodd" clip-rule="evenodd" d="M12.7722 5.92367C13.232 4.52544 15.2099 4.52544 15.6696 5.92367L16.874 9.58675C17.2212 10.6427 18.0493 11.4709 19.1052 11.8183L22.7674 13.023C24.1654 13.4829 24.1653 15.4604 22.7674 15.9202L19.1052 17.125C18.0493 17.4723 17.2212 18.3005 16.874 19.3565L15.6696 23.0196C15.2099 24.4178 13.232 24.4178 12.7722 23.0196L11.5678 19.3565C11.2206 18.3005 10.3925 17.4723 9.33662 17.125L5.67443 15.9202C4.27649 15.4604 4.2765 13.4829 5.67443 13.023L9.33663 11.8183C10.3925 11.4709 11.2206 10.6427 11.5678 9.58675L12.7722 5.92367ZM14.2209 7.92074L13.4677 10.2115C12.9222 11.8708 11.6208 13.1723 9.9616 13.7181L7.67103 14.4716L9.9616 15.2251C11.6208 15.771 12.9222 17.0725 13.4677 18.7318L14.2209 21.0225L14.9741 18.7318C15.5197 17.0725 16.821 15.771 18.4802 15.2251L20.7708 14.4716L18.4802 13.7181C16.821 13.1723 15.5197 11.8708 14.9741 10.2115L14.2209 7.92074ZM20.7798 26.3449C20.8378 26.1568 21.104 26.1568 21.162 26.3449L21.3665 27.0082C21.5614 27.6403 22.0562 28.1352 22.6882 28.3301L23.3514 28.5347C23.5394 28.5927 23.5394 28.8589 23.3514 28.9169L22.6882 29.1215C22.0562 29.3164 21.5614 29.8113 21.3665 30.4433L21.162 31.1066C21.104 31.2947 20.8378 31.2947 20.7798 31.1066L20.5753 30.4433C20.3804 29.8113 19.8856 29.3164 19.2536 29.1215L18.5905 28.9169C18.4024 28.8589 18.4024 28.5927 18.5905 28.5347L19.2536 28.3301C19.8856 28.1352 20.3804 27.6403 20.5753 27.0082L20.7798 26.3449ZM26.5076 16.1529C26.4206 15.8708 26.0212 15.8708 25.9342 16.1529L25.2739 18.2946C24.9816 19.2427 24.2394 19.985 23.2914 20.2775L21.1503 20.9379C20.8682 21.0249 20.8682 21.4242 21.1503 21.5113L23.2914 22.1717C24.2394 22.4642 24.9816 23.2064 25.2739 24.1545L25.9342 26.2962C26.0212 26.5784 26.4206 26.5784 26.5076 26.2962L27.1679 24.1545C27.4602 23.2064 28.2024 22.4642 29.1505 22.1717L31.2916 21.5113C31.5737 21.4242 31.5737 21.0249 31.2916 20.9379L29.1505 20.2775C28.2024 19.985 27.4602 19.2427 27.1679 18.2946L26.5076 16.1529Z" fill="white"/>
</svg>
