<svg width="36" height="36" viewBox="0 0 36 36" fill="none" xmlns="http://www.w3.org/2000/svg">
<path fill-rule="evenodd" clip-rule="evenodd" d="M11.2997 4.25826C11.4125 3.91391 11.8997 3.91391 12.0125 4.25826L12.4377 5.55637C12.8826 6.91447 13.9461 7.98052 15.3031 8.42862L16.5943 8.85495C16.9375 8.96829 16.9375 9.4538 16.5943 9.56713L15.3031 9.99347C13.9461 10.4416 12.8826 11.5076 12.4377 12.8657L12.0125 14.1638C11.8997 14.5082 11.4125 14.5082 11.2997 14.1638L10.8745 12.8657C10.4296 11.5076 9.36609 10.4416 8.00904 9.99347L6.71788 9.56714C6.37465 9.4538 6.37465 8.96829 6.71788 8.85496L8.00904 8.42862C9.36609 7.98052 10.4296 6.91447 10.8745 5.55637L11.2997 4.25826ZM20.4898 26.4446C20.5477 26.2562 20.8143 26.2562 20.8722 26.4446L21.0796 27.12C21.2738 27.7523 21.7681 28.2477 22.3999 28.4433L23.0722 28.6515C23.26 28.7096 23.26 28.9754 23.0722 29.0336L22.3999 29.2418C21.7681 29.4374 21.2738 29.9328 21.0796 30.565L20.8722 31.2405C20.8143 31.4288 20.5477 31.4288 20.4898 31.2405L20.2823 30.565C20.0881 29.9328 19.5939 29.4374 18.962 29.2418L18.2897 29.0336C18.1019 28.9754 18.1019 28.7096 18.2897 28.6515L18.962 28.4433C19.5939 28.2477 20.0881 27.7523 20.2823 27.12L20.4898 26.4446ZM28.4895 19.2055C28.4027 18.923 28.0027 18.923 27.9159 19.2055L27.6047 20.2187C27.3134 21.1671 26.572 21.9102 25.6243 22.2036L24.6158 22.5158C24.3341 22.6031 24.3341 23.0018 24.6158 23.089L25.6243 23.4012C26.572 23.6947 27.3134 24.4377 27.6047 25.3862L27.9159 26.3993C28.0027 26.6819 28.4027 26.6819 28.4895 26.3993L28.8007 25.3862C29.092 24.4377 29.8334 23.6947 30.7811 23.4012L31.7896 23.089C32.0713 23.0018 32.0713 22.6031 31.7896 22.5158L30.7811 22.2036C29.8334 21.9102 29.092 21.1671 28.8007 20.2187L28.4895 19.2055ZM25.4285 5.67003C26.753 4.34064 28.9 4.34079 30.2243 5.67036C31.5486 6.99995 31.5488 9.15563 30.2247 10.4854L9.92139 30.8757C8.59544 32.2073 6.4453 32.2075 5.11911 30.8761C3.79287 29.5446 3.79299 27.3857 5.11939 26.0544L25.4285 5.67003ZM24.6779 13.2215L8.5098 29.4588C7.96329 30.0077 7.07707 30.0078 6.53046 29.459C5.98382 28.9102 5.98387 28.0204 6.53057 27.4717L22.7033 11.239L24.6779 13.2215Z" fill="white"/>
</svg>
