<svg width="36" height="36" viewBox="0 0 36 36" fill="none" xmlns="http://www.w3.org/2000/svg">
<path fill-rule="evenodd" clip-rule="evenodd" d="M24.7232 6H11.2768C10.0576 5.99999 9.07416 5.99998 8.2778 6.06505C7.45784 6.13204 6.73763 6.27358 6.0713 6.61309C5.01289 7.15238 4.15238 8.01289 3.61309 9.0713C3.27358 9.73763 3.13204 10.4578 3.06505 11.2778C2.99998 12.0742 2.99999 13.0576 3 14.2768V21.7232C2.99999 22.9424 2.99998 23.9258 3.06505 24.7222C3.13204 25.5422 3.27358 26.2624 3.61309 26.9287C4.15238 27.9871 5.01289 28.8476 6.0713 29.3869C6.73763 29.7264 7.45784 29.868 8.2778 29.935C9.07416 30 10.0576 30 11.2768 30H24.7232C25.9424 30 26.9258 30 27.7222 29.935C28.5422 29.868 29.2624 29.7264 29.9287 29.3869C30.9871 28.8476 31.8476 27.9871 32.3869 26.9287C32.7264 26.2624 32.868 25.5422 32.935 24.7222C33 23.9258 33 22.9424 33 21.7232V14.2768C33 13.0576 33 12.0742 32.935 11.2778C32.868 10.4578 32.7264 9.73763 32.3869 9.0713C31.8476 8.01289 30.9871 7.15238 29.9287 6.61309C29.2624 6.27358 28.5422 6.13204 27.7222 6.06505C26.9258 5.99998 25.9424 5.99999 24.7232 6ZM8.7741 11.8983C8.30374 11.6089 7.68779 11.7555 7.39834 12.2259C7.10889 12.6963 7.25555 13.3122 7.7259 13.6017L15.1175 18.1503C16.8852 19.2381 19.1148 19.2382 20.8825 18.1503L28.2741 13.6017C28.7445 13.3122 28.8911 12.6963 28.6017 12.2259C28.3122 11.7555 27.6963 11.6089 27.2259 11.8983L19.8343 16.447C18.7094 17.1393 17.2906 17.1393 16.1657 16.447L8.7741 11.8983Z" fill="white"/>
</svg>
