<svg width="36" height="36" viewBox="0 0 36 36" fill="none" xmlns="http://www.w3.org/2000/svg">
<path fill-rule="evenodd" clip-rule="evenodd" d="M19.1078 3.36058C18.3766 3.21314 17.6236 3.21314 16.8924 3.36058C16.0637 3.52769 15.2973 3.94393 14.1889 4.54592L7.20345 8.33668C5.98755 8.99587 5.14733 9.4514 4.5196 10.1242C3.9662 10.7174 3.54685 11.4236 3.29022 12.1944C2.99912 13.0687 2.9995 14.0274 3.00005 15.4146L3.0001 24.4407C3.00008 25.6647 3.00008 26.652 3.06514 27.4515C3.13213 28.2747 3.27367 28.9977 3.61318 29.6666C4.15247 30.7292 5.01299 31.5931 6.0714 32.1345C6.73773 32.4754 7.45794 32.6174 8.27789 32.6847C9.07425 32.75 10.0577 32.75 11.2769 32.75H24.7233C25.9425 32.75 26.9259 32.75 27.7223 32.6847C28.5423 32.6174 29.2625 32.4754 29.9288 32.1345C30.9872 31.5931 31.8477 30.7292 32.387 29.6666C32.7265 28.9977 32.8681 28.2747 32.935 27.4515C33.0001 26.652 33.0001 25.6647 33.0001 24.4407L33.0001 15.4147C33.0007 14.0274 33.0011 13.0687 32.71 12.1944C32.4533 11.4236 32.034 10.7174 31.4806 10.1242C30.8529 9.4514 30.0126 8.99587 28.7967 8.33668L21.8112 4.54592C20.7029 3.94393 19.9365 3.52769 19.1078 3.36058ZM8.77559 14.5817C8.30574 14.2914 7.68953 14.437 7.39926 14.9068C7.10899 15.3767 7.25456 15.9929 7.72441 16.2831L15.1093 20.8455C16.881 21.9401 19.119 21.9401 20.8907 20.8455L28.2756 16.2831C28.7454 15.9929 28.891 15.3767 28.6007 14.9068C28.3105 14.437 27.6943 14.2914 27.2244 14.5817L19.8396 19.144C18.7121 19.8406 17.2879 19.8406 16.1604 19.144L8.77559 14.5817Z" fill="white"/>
</svg>
