<svg width="36" height="36" viewBox="0 0 36 36" fill="none" xmlns="http://www.w3.org/2000/svg">
<path fill-rule="evenodd" clip-rule="evenodd" d="M11.1567 6C9.9333 5.99999 8.95421 5.99998 8.16298 6.06463C7.35075 6.13099 6.64882 6.27043 6.00305 6.59946C4.96816 7.12677 4.12677 7.96816 3.59946 9.00305C3.27043 9.64882 3.13099 10.3508 3.06463 11.163C2.99998 11.9542 2.99999 12.9333 3 14.1567V21.8416C2.99999 23.0649 2.99998 24.044 3.06463 24.8353C3.13099 25.6475 3.27043 26.3494 3.59946 26.9952C4.12677 28.0301 4.96816 28.8715 6.00305 29.3988C6.64882 29.7278 7.35075 29.8673 8.16298 29.9336C8.9542 29.9983 9.93328 29.9983 11.1566 29.9982H24.8422C26.0656 29.9983 27.0447 29.9983 27.8359 29.9336C28.6481 29.8673 29.3501 29.7278 29.9958 29.3988C31.0307 28.8715 31.8721 28.0301 32.3994 26.9952C32.7284 26.3494 32.8679 25.6475 32.9342 24.8353C32.9989 24.044 32.9989 23.065 32.9989 21.8416V14.1566C32.9989 12.9333 32.9989 11.9542 32.9342 11.163C32.8679 10.3508 32.7284 9.64882 32.3994 9.00305C31.8721 7.96816 31.0307 7.12677 29.9958 6.59946C29.3501 6.27043 28.6481 6.13099 27.8359 6.06463C27.0447 5.99998 26.0656 5.99999 24.8422 6H11.1567ZM6.91103 8.38148C7.22787 8.22004 7.6373 8.11424 8.32584 8.05799C9.02606 8.00078 9.92338 8 11.2 8H24.7989C26.0755 8 26.9728 8.00078 27.673 8.05799C28.3616 8.11424 28.771 8.22004 29.0878 8.38148C29.7464 8.71703 30.2818 9.25247 30.6174 9.91103C30.7788 10.2279 30.8846 10.6373 30.9409 11.3258C30.9981 12.0261 30.9989 12.9234 30.9989 14.2V21.7982C30.9989 23.0749 30.9981 23.9722 30.9409 24.6724C30.8846 25.3609 30.7788 25.7704 30.6174 26.0872C30.2818 26.7458 29.7464 27.2812 29.0878 27.6168C28.771 27.7782 28.3616 27.884 27.673 27.9403C26.9728 27.9975 26.0755 27.9982 24.7989 27.9982H11.2C9.92338 27.9982 9.02606 27.9975 8.32584 27.9403C7.6373 27.884 7.22787 27.7782 6.91103 27.6168C6.25247 27.2812 5.71703 26.7458 5.38148 26.0872C5.22004 25.7704 5.11424 25.3609 5.05799 24.6724C5.00078 23.9722 5 23.0749 5 21.7982V14.2C5 12.9234 5.00078 12.0261 5.05799 11.3258C5.11424 10.6373 5.22004 10.2279 5.38148 9.91103C5.71703 9.25247 6.25247 8.71703 6.91103 8.38148ZM8.68713 11.8385C8.21708 11.5485 7.60098 11.6945 7.31102 12.1645C7.02106 12.6346 7.16705 13.2507 7.63709 13.5407L15.112 18.1517C16.8822 19.2437 19.1169 19.2437 20.8871 18.1517L28.362 13.5407C28.8321 13.2507 28.978 12.6346 28.6881 12.1645C28.3981 11.6945 27.782 11.5485 27.312 11.8385L19.8371 16.4495C18.7106 17.1444 17.2885 17.1444 16.162 16.4495L8.68713 11.8385Z" fill="white"/>
</svg>
