<svg width="36" height="36" viewBox="0 0 36 36" fill="none" xmlns="http://www.w3.org/2000/svg">
<path fill-rule="evenodd" clip-rule="evenodd" d="M24.7232 6H11.2768C10.0576 5.99999 9.07416 5.99998 8.2778 6.06505C7.45784 6.13204 6.73763 6.27358 6.0713 6.61309C5.01289 7.15238 4.15238 8.01289 3.61309 9.0713C3.27358 9.73763 3.13204 10.4578 3.06505 11.2778C2.99998 12.0742 2.99999 13.0576 3 14.2768V20H11.9788C12.8848 20 13.6295 20.4901 14.1009 21.0772C14.3499 21.3874 14.6366 21.6687 14.9561 21.9139C15.8293 22.5839 16.8992 22.9471 17.9999 22.9471C19.1006 22.9471 20.1705 22.5839 21.0437 21.9139C21.3632 21.6687 21.6499 21.3874 21.8989 21.0772C22.3703 20.4901 23.115 20 24.021 20H33V14.2768C33 13.0576 33 12.0742 32.935 11.2778C32.868 10.4578 32.7264 9.73763 32.3869 9.0713C31.8476 8.01289 30.9871 7.15238 29.9287 6.61309C29.2624 6.27358 28.5422 6.13204 27.7222 6.06505C26.9258 5.99998 25.9424 5.99999 24.7232 6ZM33 22H24.021C23.8661 22 23.6512 22.0892 23.4585 22.3293C23.1099 22.7636 22.7085 23.1573 22.2612 23.5006C21.0387 24.4386 19.5408 24.9471 17.9999 24.9471C16.459 24.9471 14.9611 24.4386 13.7386 23.5006C13.2913 23.1573 12.8899 22.7636 12.5413 22.3293C12.3486 22.0892 12.1337 22 11.9788 22H3.00003C3.00037 23.0924 3.00498 23.987 3.06505 24.7222C3.13204 25.5422 3.27358 26.2624 3.61309 26.9287C4.15238 27.9871 5.01289 28.8476 6.0713 29.3869C6.73763 29.7264 7.45784 29.868 8.2778 29.935C9.07415 30 10.0575 30 11.2768 30H24.7232C25.9424 30 26.9259 30 27.7222 29.935C28.5422 29.868 29.2624 29.7264 29.9287 29.3869C30.9871 28.8476 31.8476 27.9871 32.3869 26.9287C32.7264 26.2624 32.868 25.5422 32.935 24.7222C32.995 23.987 32.9996 23.0924 33 22ZM7.625 16.125C7.625 15.5727 8.07272 15.125 8.625 15.125H27.375C27.9273 15.125 28.375 15.5727 28.375 16.125C28.375 16.6773 27.9273 17.125 27.375 17.125H8.625C8.07272 17.125 7.625 16.6773 7.625 16.125ZM8.625 10.625C8.07272 10.625 7.625 11.0727 7.625 11.625C7.625 12.1773 8.07272 12.625 8.625 12.625H27.375C27.9273 12.625 28.375 12.1773 28.375 11.625C28.375 11.0727 27.9273 10.625 27.375 10.625H8.625Z" fill="white"/>
</svg>
