<svg width="36" height="36" viewBox="0 0 36 36" fill="none" xmlns="http://www.w3.org/2000/svg">
<path fill-rule="evenodd" clip-rule="evenodd" d="M9.9575 6C8.94348 5.99999 8.12178 5.99998 7.45558 6.05441C6.76841 6.11056 6.1591 6.22956 5.59355 6.51772C4.69978 6.97312 3.97312 7.69978 3.51772 8.59355C3.22956 9.1591 3.11056 9.76842 3.05441 10.4556C2.99998 11.1218 2.99999 11.9435 3 12.9575V23.0407C2.99999 24.0548 2.99998 24.8765 3.05441 25.5427C3.11056 26.2298 3.22956 26.8391 3.51772 27.4047C3.97312 28.2985 4.69978 29.0251 5.59355 29.4805C6.1591 29.7687 6.76841 29.8877 7.45557 29.9438C8.12177 29.9983 8.94346 29.9983 9.95747 29.9982H26.0414C27.0554 29.9983 27.8771 29.9983 28.5433 29.9438C29.2305 29.8877 29.8398 29.7687 30.4053 29.4805C31.2991 29.0251 32.0258 28.2985 32.4812 27.4047C32.7693 26.8391 32.8883 26.2298 32.9445 25.5427C32.9989 24.8765 32.9989 24.0548 32.9989 23.0408V12.9575C32.9989 11.9435 32.9989 11.1218 32.9445 10.4556C32.8883 9.76841 32.7693 9.1591 32.4812 8.59355C32.0258 7.69978 31.2991 6.97312 30.4053 6.51772C29.8398 6.22956 29.2305 6.11056 28.5433 6.05441C27.8771 5.99998 27.0554 5.99999 26.0414 6H9.9575ZM6.50153 8.29973C6.73814 8.17917 7.05496 8.09381 7.61844 8.04777C8.19359 8.00078 8.9334 8 10 8H25.9989C27.0655 8 27.8053 8.00078 28.3804 8.04777C28.9439 8.09381 29.2607 8.17917 29.4974 8.29973C30.0148 8.56338 30.4355 8.98408 30.6991 9.50153C30.8197 9.73814 30.9051 10.055 30.9511 10.6184C30.9981 11.1936 30.9989 11.9334 30.9989 13V20.0342H24.0683C23.1615 20.0342 22.4156 20.525 21.9443 21.1151C21.6915 21.4316 21.4003 21.7184 21.0755 21.9682C20.1929 22.6471 19.1118 23.0149 17.9999 23.0149C16.888 23.0149 15.8069 22.6471 14.9242 21.9682C14.5995 21.7184 14.3082 21.4316 14.0555 21.1151C13.5842 20.525 12.8382 20.0342 11.9314 20.0342H5V13C5 11.9334 5.00078 11.1936 5.04777 10.6184C5.09381 10.055 5.17917 9.73814 5.29973 9.50153C5.56338 8.98408 5.98408 8.56338 6.50153 8.29973ZM5 22.0342V22.9982C5 24.0648 5.00078 24.8046 5.04777 25.3798C5.09381 25.9433 5.17917 26.2601 5.29973 26.4967C5.56338 27.0142 5.98408 27.4349 6.50153 27.6985C6.73814 27.8191 7.05496 27.9044 7.61844 27.9505C8.19359 27.9975 8.9334 27.9982 10 27.9982H25.9989C27.0655 27.9982 27.8053 27.9975 28.3804 27.9505C28.9439 27.9044 29.2607 27.8191 29.4974 27.6985C30.0148 27.4349 30.4355 27.0142 30.6991 26.4967C30.8197 26.2601 30.9051 25.9433 30.9511 25.3798C30.9981 24.8046 30.9989 24.0648 30.9989 22.9982V22.0342H24.0683C23.9132 22.0342 23.6985 22.1236 23.507 22.3633C23.1545 22.8047 22.7481 23.2049 22.2949 23.5535C21.063 24.5011 19.5533 25.0149 17.9999 25.0149C16.4465 25.0149 14.9368 24.5011 13.7049 23.5535C13.2516 23.2049 12.8453 22.8047 12.4927 22.3633C12.3013 22.1236 12.0866 22.0342 11.9314 22.0342H5ZM7.53906 16.1027C7.53906 15.5504 7.98678 15.1027 8.53906 15.1027H27.4572C28.0095 15.1027 28.4572 15.5504 28.4572 16.1027C28.4572 16.655 28.0095 17.1027 27.4572 17.1027H8.53906C7.98678 17.1027 7.53906 16.655 7.53906 16.1027ZM8.53906 10.5518C7.98678 10.5518 7.53906 10.9996 7.53906 11.5518C7.53906 12.1041 7.98678 12.5518 8.53906 12.5518H27.4572C28.0095 12.5518 28.4572 12.1041 28.4572 11.5518C28.4572 10.9996 28.0095 10.5518 27.4572 10.5518H8.53906Z" fill="white"/>
</svg>
