<svg width="36" height="36" viewBox="0 0 36 36" fill="none" xmlns="http://www.w3.org/2000/svg">
<path fill-rule="evenodd" clip-rule="evenodd" d="M11.2768 6H24.7232C25.9424 5.99999 26.9258 5.99998 27.7222 6.06505C28.5422 6.13204 29.2624 6.27358 29.9287 6.61309C30.9871 7.15238 31.8476 8.01289 32.3869 9.0713C32.7264 9.73763 32.868 10.4578 32.935 11.2778C33 12.0742 33 13.0576 33 14.2768V18.9004C31.252 17.4039 28.9815 16.5 26.5 16.5C20.9772 16.5 16.5 20.9772 16.5 26.5C16.5 27.7313 16.7225 28.9107 17.1296 30H11.2768C10.0576 30 9.07416 30 8.2778 29.935C7.45784 29.868 6.73763 29.7264 6.0713 29.3869C5.01289 28.8476 4.15238 27.9871 3.61309 26.9287C3.27358 26.2624 3.13204 25.5422 3.06505 24.7222C2.99998 23.9258 2.99999 22.9424 3 21.7232V14.2768C2.99999 13.0576 2.99998 12.0742 3.06505 11.2778C3.13204 10.4578 3.27358 9.73763 3.61309 9.0713C4.15238 8.01289 5.01289 7.15238 6.0713 6.61309C6.73763 6.27358 7.45784 6.13204 8.2778 6.06505C9.07416 5.99998 10.0576 5.99999 11.2768 6ZM7.39834 12.2259C7.68779 11.7555 8.30374 11.6089 8.7741 11.8983L16.1657 16.447C17.2906 17.1393 18.7094 17.1393 19.8343 16.447L27.2259 11.8983C27.6963 11.6089 28.3122 11.7555 28.6017 12.2259C28.8911 12.6963 28.7445 13.3122 28.2741 13.6017L20.8825 18.1503C19.1148 19.2382 16.8852 19.2381 15.1175 18.1503L7.7259 13.6017C7.25555 13.3122 7.10889 12.6963 7.39834 12.2259Z" fill="white"/>
<path fill-rule="evenodd" clip-rule="evenodd" d="M26.5 35C31.1944 35 35 31.1944 35 26.5C35 21.8056 31.1944 18 26.5 18C21.8056 18 18 21.8056 18 26.5C18 31.1944 21.8056 35 26.5 35ZM31.8343 24.9432C32.0415 24.5845 31.9185 24.1258 31.5598 23.9187C31.2011 23.7116 30.7424 23.8345 30.5353 24.1932C30.2131 24.7512 29.7796 25.2347 29.2638 25.6147C29.125 25.717 28.9802 25.8118 28.83 25.8985C28.1217 26.3074 27.3183 26.5227 26.5004 26.5227C25.6826 26.5227 24.8791 26.3074 24.1709 25.8985C24.0207 25.8118 23.8759 25.717 23.737 25.6147C23.2212 25.2347 22.7877 24.7512 22.4655 24.1932C22.2584 23.8345 21.7997 23.7116 21.441 23.9187C21.0823 24.1258 20.9594 24.5845 21.1665 24.9432C21.447 25.4291 21.7913 25.8722 22.1885 26.2616L20.935 27.5151C20.6421 27.808 20.6421 28.2829 20.935 28.5758C21.2279 28.8687 21.7028 28.8687 21.9957 28.5758L23.3911 27.1803L23.4209 27.1976C24.1394 27.6124 24.932 27.8765 25.7504 27.9769V29.5909C25.7504 30.0051 26.0862 30.3409 26.5004 30.3409C26.9146 30.3409 27.2504 30.0051 27.2504 29.5909V27.9769C28.0689 27.8765 28.8614 27.6124 29.58 27.1976L29.6097 27.1803L31.0052 28.5758C31.2981 28.8687 31.773 28.8687 32.0659 28.5758C32.3588 28.2829 32.3588 27.808 32.0659 27.5151L30.8123 26.2616C31.2095 25.8722 31.5538 25.4291 31.8343 24.9432Z" fill="white"/>
</svg>
