<svg width="36" height="36" viewBox="0 0 36 36" fill="none" xmlns="http://www.w3.org/2000/svg">
<path fill-rule="evenodd" clip-rule="evenodd" d="M11.1567 6H24.8422C26.0656 5.99999 27.0447 5.99999 27.8359 6.06463C28.6481 6.13099 29.3501 6.27043 29.9958 6.59947C31.0307 7.12677 31.8721 7.96816 32.3994 9.00305C32.7285 9.64882 32.8679 10.3508 32.9342 11.163C32.9989 11.9542 32.9989 12.9333 32.9989 14.1566V18.8995C32.391 18.3792 31.72 17.9306 30.9989 17.5667V14.2C30.9989 12.9234 30.9981 12.0261 30.9409 11.3258C30.8846 10.6373 30.7788 10.2279 30.6174 9.91103C30.2818 9.25247 29.7464 8.71704 29.0878 8.38148C28.771 8.22004 28.3616 8.11425 27.673 8.05799C26.9728 8.00078 26.0755 8 24.7989 8H11.2C9.92338 8 9.02606 8.00078 8.32584 8.05799C7.6373 8.11425 7.22787 8.22004 6.91103 8.38148C6.25247 8.71704 5.71704 9.25247 5.38148 9.91103C5.22004 10.2279 5.11424 10.6373 5.05799 11.3258C5.00078 12.0261 5 12.9234 5 14.2V21.7982C5 23.0749 5.00078 23.9722 5.05799 24.6724C5.11424 25.3609 5.22004 25.7704 5.38148 26.0872C5.71704 26.7458 6.25247 27.2812 6.91103 27.6168C7.22787 27.7782 7.6373 27.884 8.32584 27.9403C9.02606 27.9975 9.92338 27.9982 11.2 27.9982H16.6115C16.7155 28.6907 16.8906 29.3599 17.129 29.9982H11.1566C9.93328 29.9983 8.9542 29.9983 8.16298 29.9336C7.35075 29.8673 6.64882 29.7278 6.00305 29.3988C4.96816 28.8715 4.12677 28.0301 3.59946 26.9952C3.27043 26.3494 3.13099 25.6475 3.06463 24.8353C2.99998 24.044 2.99999 23.065 3 21.8416V14.1567C2.99999 12.9333 2.99998 11.9542 3.06463 11.163C3.13099 10.3508 3.27043 9.64882 3.59946 9.00305C4.12677 7.96816 4.96816 7.12677 6.00305 6.59947C6.64882 6.27043 7.35075 6.13099 8.16298 6.06463C8.9542 5.99999 9.93331 5.99999 11.1567 6ZM7.31102 12.1645C7.60098 11.6945 8.21708 11.5485 8.68713 11.8385L16.162 16.4495C17.2885 17.1444 18.7106 17.1444 19.8371 16.4495L27.312 11.8385C27.782 11.5485 28.3981 11.6945 28.6881 12.1645C28.9781 12.6346 28.8321 13.2507 28.362 13.5407L20.8872 18.1517C19.1169 19.2437 16.8822 19.2437 15.112 18.1517L7.63709 13.5407C7.16705 13.2507 7.02106 12.6346 7.31102 12.1645Z" fill="white"/>
<path fill-rule="evenodd" clip-rule="evenodd" d="M26.5 35C31.1944 35 35 31.1944 35 26.5C35 21.8056 31.1944 18 26.5 18C21.8056 18 18 21.8056 18 26.5C18 31.1944 21.8056 35 26.5 35ZM23.7521 22.6913C23.4592 22.3984 22.9843 22.3984 22.6914 22.6913C22.3985 22.9842 22.3985 23.459 22.6914 23.7519L25.4395 26.5L22.6914 29.2481C22.3985 29.541 22.3985 30.0158 22.6914 30.3087C22.9843 30.6016 23.4592 30.6016 23.7521 30.3087L26.5002 27.5607L29.2482 30.3087C29.5411 30.6016 30.016 30.6016 30.3089 30.3087C30.6018 30.0158 30.6018 29.541 30.3089 29.2481L27.5608 26.5L30.3089 23.7519C30.6018 23.459 30.6018 22.9842 30.3089 22.6913C30.016 22.3984 29.5411 22.3984 29.2482 22.6913L26.5002 25.4393L23.7521 22.6913Z" fill="white"/>
</svg>
