<svg width="36" height="36" viewBox="0 0 36 36" fill="none" xmlns="http://www.w3.org/2000/svg">
<path fill-rule="evenodd" clip-rule="evenodd" d="M17.3184 5.5669C17.768 5.4777 18.2308 5.4777 18.6805 5.5669C19.1541 5.66086 19.6222 5.8988 20.915 6.58768L27.7144 10.2107C29.1631 10.9827 29.6768 11.2704 30.0433 11.6584C30.3911 12.0267 30.6549 12.4661 30.8163 12.9462C30.9864 13.4521 30.9988 14.0408 30.9988 15.6824V24.3011C30.9988 25.5777 30.998 26.475 30.9408 27.1753C30.8846 27.8638 30.7788 28.2732 30.6173 28.5901C30.2818 29.2486 29.7463 29.7841 29.0878 30.1196C28.7709 30.2811 28.3615 30.3869 27.673 30.4431C26.9727 30.5003 26.0754 30.5011 24.7988 30.5011H11.2001C9.92346 30.5011 9.02613 30.5003 8.32591 30.4431C7.63737 30.3869 7.22794 30.2811 6.91111 30.1196C6.25254 29.7841 5.71711 29.2486 5.38155 28.5901C5.22012 28.2732 5.11432 27.8638 5.05806 27.1753C5.00085 26.475 5.00007 25.5777 5.00007 24.3011V15.6824C5.00007 14.0408 5.01249 13.4521 5.18259 12.9462C5.34403 12.4661 5.60776 12.0267 5.95557 11.6584C6.32204 11.2704 6.83573 10.9827 8.28451 10.2107L15.0839 6.58768C16.3767 5.8988 16.8448 5.66086 17.3184 5.5669ZM19.0696 3.60512C18.3631 3.46496 17.6358 3.46496 16.9292 3.60512C16.1289 3.76388 15.3862 4.15992 14.2783 4.75069L7.19174 8.52671C5.95185 9.18686 5.12121 9.62911 4.50157 10.2852C3.95501 10.8639 3.54057 11.5543 3.28688 12.3088C2.99927 13.1642 2.99958 14.1052 3.00004 15.5099L3.00007 24.3444C3.00006 25.5678 3.00006 26.5469 3.0647 27.3381C3.13106 28.1503 3.2705 28.8523 3.59954 29.498C4.12684 30.5329 4.96823 31.3743 6.00313 31.9016C6.64889 32.2307 7.35083 32.3701 8.16305 32.4365C8.95428 32.5011 9.93335 32.5011 11.1567 32.5011H24.8422C26.0655 32.5011 27.0446 32.5011 27.8358 32.4365C28.6481 32.3701 29.35 32.2307 29.9958 31.9016C31.0306 31.3743 31.872 30.5329 32.3993 29.498C32.7284 28.8523 32.8678 28.1503 32.9342 27.3381C32.9988 26.5469 32.9988 25.5678 32.9988 24.3443L32.9988 15.5099C32.9993 14.1052 32.9996 13.1641 32.712 12.3088C32.4583 11.5543 32.0439 10.8639 31.4973 10.2852C30.8777 9.62911 30.047 9.18686 28.8071 8.52671L21.7206 4.75068C20.6127 4.15992 19.8699 3.76388 19.0696 3.60512ZM8.68084 14.6086C8.20864 14.3221 7.59364 14.4727 7.3072 14.9449C7.02075 15.4171 7.17133 16.0321 7.64353 16.3185L15.147 20.8703C16.9 21.9337 19.0991 21.9337 20.8522 20.8703L28.3556 16.3185C28.8278 16.0321 28.9784 15.4171 28.692 14.9449C28.4055 14.4727 27.7905 14.3221 27.3183 14.6086L19.8149 19.1603C18.6993 19.8371 17.2999 19.8371 16.1843 19.1603L8.68084 14.6086Z" fill="white"/>
</svg>
