<svg width="36" height="36" viewBox="0 0 36 36" fill="none" xmlns="http://www.w3.org/2000/svg">
<path fill-rule="evenodd" clip-rule="evenodd" d="M11.2768 6H24.7232C25.9424 5.99999 26.9258 5.99998 27.7222 6.06505C28.5422 6.13204 29.2624 6.27358 29.9287 6.61309C30.9871 7.15238 31.8476 8.01289 32.3869 9.0713C32.7264 9.73763 32.868 10.4578 32.935 11.2778C33 12.0742 33 13.0576 33 14.2768V18.9004C31.252 17.4039 28.9815 16.5 26.5 16.5C20.9772 16.5 16.5 20.9772 16.5 26.5C16.5 27.7313 16.7225 28.9107 17.1296 30H11.2768C10.0576 30 9.07416 30 8.2778 29.935C7.45784 29.868 6.73763 29.7264 6.0713 29.3869C5.01289 28.8476 4.15238 27.9871 3.61309 26.9287C3.27358 26.2624 3.13204 25.5422 3.06505 24.7222C2.99998 23.9258 2.99999 22.9424 3 21.7232V14.2768C2.99999 13.0576 2.99998 12.0742 3.06505 11.2778C3.13204 10.4578 3.27358 9.73763 3.61309 9.0713C4.15238 8.01289 5.01289 7.15238 6.0713 6.61309C6.73763 6.27358 7.45784 6.13204 8.2778 6.06505C9.07416 5.99998 10.0576 5.99999 11.2768 6ZM7.39834 12.2259C7.68779 11.7555 8.30374 11.6089 8.7741 11.8983L16.1657 16.447C17.2906 17.1393 18.7094 17.1393 19.8343 16.447L27.2259 11.8983C27.6963 11.6089 28.3122 11.7555 28.6017 12.2259C28.8911 12.6963 28.7445 13.3122 28.2741 13.6017L20.8825 18.1503C19.1148 19.2382 16.8852 19.2381 15.1175 18.1503L7.7259 13.6017C7.25555 13.3122 7.10889 12.6963 7.39834 12.2259Z" fill="white"/>
<path fill-rule="evenodd" clip-rule="evenodd" d="M26.5 35C31.1944 35 35 31.1944 35 26.5C35 21.8056 31.1944 18 26.5 18C21.8056 18 18 21.8056 18 26.5C18 31.1944 21.8056 35 26.5 35ZM23.7521 22.6913C23.4592 22.3984 22.9843 22.3984 22.6914 22.6913C22.3985 22.9842 22.3985 23.459 22.6914 23.7519L25.4395 26.5L22.6914 29.2481C22.3985 29.541 22.3985 30.0158 22.6914 30.3087C22.9843 30.6016 23.4592 30.6016 23.7521 30.3087L26.5002 27.5607L29.2482 30.3087C29.5411 30.6016 30.016 30.6016 30.3089 30.3087C30.6018 30.0158 30.6018 29.541 30.3089 29.2481L27.5608 26.5L30.3089 23.7519C30.6018 23.459 30.6018 22.9842 30.3089 22.6913C30.016 22.3984 29.5411 22.3984 29.2482 22.6913L26.5002 25.4393L23.7521 22.6913Z" fill="white"/>
</svg>
