<svg width="36" height="36" viewBox="0 0 36 36" fill="none" xmlns="http://www.w3.org/2000/svg">
<path fill-rule="evenodd" clip-rule="evenodd" d="M32.6189 6.21454C32.8596 6.40416 33 6.69363 33 7.00001V26.7241C33 27.1863 32.6833 27.5883 32.2339 27.6964L22.7745 29.9723C22.6176 30.01 22.4539 30.0092 22.2974 29.97L13.4546 27.7539L4.23392 29.9723C3.93604 30.0439 3.62175 29.9751 3.3811 29.7855C3.14045 29.5959 3 29.3064 3 29V9.27587C3 8.81369 3.31673 8.41173 3.76608 8.30361L13.2255 6.02775C13.3824 5.99001 13.5461 5.99079 13.7026 6.03001L22.5454 8.24617L31.7661 6.02775C32.064 5.95609 32.3783 6.02492 32.6189 6.21454ZM21.5405 10.0562L14.4595 8.28155V25.9438L21.5405 27.7185V10.0562ZM23.5405 27.7309L31 25.9362V8.26914L23.5405 10.0638V27.7309ZM12.4595 25.9362V8.26914L5 10.0638V27.7309L12.4595 25.9362Z" fill="white"/>
</svg>
