<svg width="36" height="36" viewBox="0 0 36 36" fill="none" xmlns="http://www.w3.org/2000/svg">
<path fill-rule="evenodd" clip-rule="evenodd" d="M7.01448 4.09605C5.7835 3.69108 4.48417 4.61759 4.50015 5.92017C4.64366 17.6203 7.01975 24.1546 9.93158 27.78C12.8849 31.4571 16.2713 32 18 32C19.7288 32 23.1152 31.4571 26.0684 27.78C28.9802 24.1546 31.3563 17.6203 31.4999 5.92017C31.5158 4.61759 30.2165 3.69108 28.9855 4.09605C27.112 4.7124 22.8462 5.9076 18 5.9076C13.1538 5.9076 8.888 4.7124 7.01448 4.09605ZM15.7491 14.8534C15.7491 15.7176 14.7415 15.9971 13.9918 15.5671L13.6985 15.3988C13.1096 15.061 12.3856 15.061 11.7967 15.3988L11.5033 15.5671C10.7537 15.9971 9.74609 15.7176 9.74609 14.8534C9.74609 14.3299 9.88478 13.8157 10.1482 13.3624C10.4117 12.9091 10.7906 12.5326 11.2468 12.2709C11.7031 12.0092 12.2207 11.8714 12.7476 11.8714C13.2745 11.8714 13.7921 12.0092 14.2483 12.2709C14.7046 12.5326 15.0835 12.9091 15.347 13.3624C15.6104 13.8157 15.7491 14.3299 15.7491 14.8534ZM22.0092 15.5671C21.2596 15.9971 20.252 15.7176 20.252 14.8534C20.252 14.3299 20.3906 13.8157 20.6541 13.3624C20.9175 12.9091 21.2964 12.5326 21.7527 12.2709C22.209 12.0092 22.7266 11.8714 23.2534 11.8714C23.7803 11.8714 24.2979 12.0092 24.7542 12.2709C25.2105 12.5326 25.5894 12.9091 25.8528 13.3624C26.1163 13.8157 26.2549 14.3299 26.2549 14.8534C26.2549 15.7176 25.2473 15.9971 24.4977 15.5671L24.2044 15.3988C23.6154 15.061 22.8915 15.061 22.3025 15.3988L22.0092 15.5671ZM12.1133 22.2082C11.812 20.8916 13.2224 20.077 14.5378 20.3835L16.8417 20.9201C17.6043 21.0977 18.3975 21.0977 19.1601 20.9201L21.464 20.3835C22.7794 20.077 24.1898 20.8916 23.8886 22.2082C23.7089 22.9933 23.3239 23.7319 22.7634 24.3669C22.2029 25.002 21.4818 25.5164 20.656 25.8704C19.8301 26.2245 18.9217 26.4086 18.0009 26.4086C17.0801 26.4086 16.1717 26.2245 15.3459 25.8704C14.52 25.5164 13.799 25.002 13.2384 24.3669C12.6779 23.7319 12.2929 22.9933 12.1133 22.2082Z" fill="white"/>
</svg>
