<svg width="36" height="36" viewBox="0 0 36 36" fill="none" xmlns="http://www.w3.org/2000/svg">
<path d="M17.1238 10.5228C14.9 12.2989 13.7073 15.7982 13.7073 18.0643C13.7073 20.3304 14.4843 23.3518 17.1238 25.4772C15.6462 26.4389 14.1985 27 12.2849 27C7.15701 27 3 22.9706 3 18C3 13.0294 7.15701 9 12.2849 9C14.1985 9 15.6462 9.5611 17.1238 10.5228Z" fill="white"/>
<path d="M19.3391 25.4772C20.8167 26.4389 21.8015 27 23.7151 27C28.843 27 33 22.9706 33 18C33 13.0294 28.843 9 23.7151 9C21.8015 9 20.8167 9.54899 19.3391 10.5107C21.5629 12.2868 22.7721 15.774 22.7171 18.0522C22.662 20.3304 21.5629 23.7011 19.3391 25.4772Z" fill="white"/>
<path d="M21.688 18C21.688 15.1336 20.3371 12.5797 18.2315 10.9286C16.1258 12.5797 14.775 15.1336 14.775 18C14.775 20.8664 16.1258 23.4203 18.2315 25.0714C20.3371 23.4203 21.688 20.8664 21.688 18Z" fill="white"/>
</svg>
