<svg width="36" height="36" viewBox="0 0 36 36" fill="none" xmlns="http://www.w3.org/2000/svg">
<path fill-rule="evenodd" clip-rule="evenodd" d="M18.2188 4.5C25.665 4.5 31.4999 10.567 31.5 18.0391C31.525 25.3956 25.6147 31.3836 18.29 31.4229C15.6404 31.4228 14.4089 31.0345 12.2686 29.4805C10.9147 31.2286 6.62778 32.5948 6.44043 30.2578C6.44043 28.5031 6.05362 27.0201 5.61523 25.4014C5.09303 23.4071 4.5 21.1858 4.5 17.9678C4.5001 10.2822 10.7792 4.50021 18.2188 4.5ZM18.3994 11.1436C14.7764 10.9559 11.9526 13.4743 11.3271 17.4238C10.8115 20.6931 11.7268 24.6744 12.5068 24.8828C12.8807 24.9735 13.8225 24.2103 14.4092 23.6211C15.3791 24.2939 16.5086 24.6983 17.6836 24.793C21.4378 24.9743 24.6464 22.1033 24.8984 18.3369C25.0451 14.5626 22.1541 11.3654 18.3994 11.1494V11.1436Z" fill="white"/>
</svg>
