<svg width="36" height="36" viewBox="0 0 36 36" fill="none" xmlns="http://www.w3.org/2000/svg">
<path fill-rule="evenodd" clip-rule="evenodd" d="M27.8889 5.64687C28.5874 5.49507 29.2657 5.42797 29.937 5.60849C30.9438 5.87923 31.8118 6.52462 32.3667 7.41498C32.7366 8.00863 32.8745 8.68261 32.9382 9.40111C33.0004 10.1014 33.0003 10.9793 33.0003 12.0478V23.224C33.0003 24.2925 33.0004 25.1704 32.9382 25.8707C32.8745 26.5892 32.7366 27.2632 32.3667 27.8568C31.8118 28.7472 30.9438 29.3926 29.937 29.6633C29.2657 29.8439 28.5874 29.7768 27.8889 29.625C27.2081 29.477 26.3778 29.2164 25.3673 28.8993L20.6682 27.4246C20.003 28.4928 19.03 29.3428 17.8674 29.8524C16.4158 30.4888 14.7786 30.5463 13.2864 30.0129C11.7945 29.4796 10.5608 28.3963 9.83142 26.9842C9.3215 25.9969 9.0841 24.8993 9.13074 23.8039L6.32293 22.9228L6.16366 22.8729C5.41461 22.6391 4.75741 22.434 4.24744 22.0158C3.80163 21.6501 3.45562 21.1757 3.24214 20.6373C2.99793 20.0215 2.99897 19.3269 3.00016 18.5353V16.7365C2.99897 15.9449 2.99793 15.2503 3.24214 14.6345C3.45562 14.0961 3.80163 13.6217 4.24744 13.2561C4.75741 12.8378 5.41461 12.6327 6.16365 12.3989L6.32293 12.3491L25.3673 6.37254C26.3779 6.05539 27.2081 5.79483 27.8889 5.64687ZM11.1399 24.4344L18.6656 26.7961C18.2392 27.3241 17.6915 27.7458 17.0644 28.0207C16.08 28.4523 14.9709 28.4911 13.9596 28.1296C12.948 27.768 12.107 27.0318 11.6084 26.0664C11.3443 25.5549 11.1869 24.9997 11.1399 24.4344ZM11.125 14.6083C11.125 14.056 10.6773 13.6083 10.125 13.6083C9.57272 13.6083 9.125 14.056 9.125 14.6083V20.6664C9.125 21.2187 9.57272 21.6664 10.125 21.6664C10.6773 21.6664 11.125 21.2187 11.125 20.6664V14.6083Z" fill="white"/>
</svg>
