<svg width="36" height="36" viewBox="0 0 36 36" fill="none" xmlns="http://www.w3.org/2000/svg">
<path fill-rule="evenodd" clip-rule="evenodd" d="M24.9537 2.13367C25.5012 2.20576 25.8867 2.70808 25.8146 3.25564L25.423 6.22997C25.3509 6.77753 24.8486 7.16298 24.301 7.09089C23.7535 7.0188 23.368 6.51648 23.4401 5.96892L23.8317 2.99459C23.9038 2.44703 24.4061 2.06158 24.9537 2.13367ZM32.2129 5.54462C32.6034 5.1541 32.6034 4.52093 32.2129 4.13041C31.8223 3.73988 31.1892 3.73988 30.7986 4.13041L27.0863 7.84272C26.6958 8.23324 26.6958 8.86641 27.0863 9.25693C27.4769 9.64746 28.11 9.64746 28.5005 9.25693L32.2129 5.54462ZM33.3472 12.5101C33.8948 12.438 34.2802 11.9357 34.2081 11.3881C34.136 10.8406 33.6337 10.4551 33.0862 10.5272L30.1118 10.9188C29.5643 10.9909 29.1788 11.4932 29.2509 12.0408C29.323 12.5883 29.8253 12.9738 30.3729 12.9017L33.3472 12.5101ZM18.2479 29.8149C17.7393 29.6193 17.26 29.3319 16.8353 28.9725L22.7825 26.2438C22.9063 26.8853 22.8717 27.5104 22.6925 28.0619C22.422 28.8942 21.8343 29.5291 21.0398 29.8573C20.2367 30.189 19.2414 30.1969 18.2479 29.8149ZM14.8862 29.8668C15.6171 30.6659 16.5263 31.2956 17.53 31.6816C18.9417 32.2245 20.471 32.2562 21.8035 31.7057C23.1445 31.1517 24.1448 30.0639 24.5946 28.6801C24.9357 27.6304 24.9363 26.489 24.6359 25.3934L27.2359 24.2005C28.2483 23.736 29.0773 23.3556 29.7082 22.9941C30.3529 22.6247 30.9237 22.2036 31.3072 21.5957C31.8795 20.6886 32.0759 19.5941 31.8549 18.5446C31.7067 17.8413 31.3181 17.2479 30.8421 16.6773C30.3763 16.1189 29.7313 15.474 28.9437 14.6864L21.6552 7.39791C20.8677 6.61032 20.2227 5.96533 19.6644 5.49958C19.0937 5.02359 18.5004 4.63491 17.7971 4.48678C16.7475 4.26571 15.6531 4.46217 14.7459 5.03449C14.1381 5.41797 13.717 5.98875 13.3475 6.6335C12.986 7.26435 12.6057 8.09336 12.1412 9.10566L5.63328 23.2892C5.32185 23.9654 5.04837 24.5592 5.00724 25.1862C4.97126 25.7348 5.06981 26.2838 5.29433 26.7856C5.55099 27.3592 6.01391 27.8208 6.54108 28.3464L7.99525 29.8006C8.52088 30.3277 8.98246 30.7907 9.55607 31.0473C10.0578 31.2718 10.6069 31.3704 11.1554 31.3344C11.7825 31.2933 12.3762 31.0198 13.0524 30.7084L14.8862 29.8668ZM12.7216 27.7122C13.1121 28.1028 13.7453 28.1028 14.1358 27.7122C14.5263 27.3217 14.5263 26.6885 14.1358 26.298L9.89318 22.0554C9.50265 21.6649 8.86949 21.6649 8.47896 22.0554C8.08844 22.4459 8.08844 23.0791 8.47896 23.4696L12.7216 27.7122Z" fill="white"/>
</svg>
