<svg width="36" height="36" viewBox="0 0 36 36" fill="none" xmlns="http://www.w3.org/2000/svg">
<path fill-rule="evenodd" clip-rule="evenodd" d="M18.2269 5.00198C16.52 4.97219 14.8239 5.27889 13.2355 5.90457C11.6471 6.53026 10.1975 7.46267 8.96944 8.64858C7.7414 9.83449 6.75896 11.2507 6.07822 12.8163C5.39748 14.3819 5.03177 16.0662 5.00198 17.7731C4.97219 19.48 5.27889 21.1761 5.90457 22.7645C6.53026 24.3529 7.46267 25.8025 8.64858 27.0306C9.83449 28.2586 11.2507 29.241 12.8163 29.9218C14.3819 30.6025 16.0662 30.9682 17.7731 30.998C17.7709 30.998 17.7753 30.998 17.7931 30.9981L17.8543 30.9984L18.0549 30.9988L18.6355 30.9995C19.0545 30.9998 19.4732 31 19.5135 31C20.0658 31 20.5135 31.4477 20.5135 32C20.5135 32.5523 20.0658 33 19.5135 33C19.4415 33 17.8313 32.9993 17.7382 32.9977C15.7687 32.9633 13.8252 32.5414 12.0188 31.7559C10.2123 30.9704 8.57826 29.8369 7.2099 28.4199C5.84154 27.0029 4.76568 25.3303 4.04374 23.4975C3.32179 21.6648 2.96791 19.7077 3.00228 17.7382C3.03666 15.7687 3.45863 13.8252 4.2441 12.0188C5.02957 10.2123 6.16315 8.57826 7.58013 7.2099C8.9971 5.84154 10.6697 4.76568 12.5025 4.04374C14.3352 3.32179 16.2923 2.96791 18.2618 3.00228C20.2313 3.03666 22.1748 3.45863 23.9812 4.2441C25.7877 5.02957 27.4217 6.16315 28.7901 7.58013C30.1585 8.9971 31.2343 10.6697 31.9563 12.5025C32.6782 14.3352 33.0321 16.2923 32.9977 18.2618C32.9633 20.2313 32.5414 22.1748 31.7559 23.9812C31.7233 24.0563 31.69 24.1311 31.6562 24.2055C31.5808 24.3944 31.4924 24.5776 31.3919 24.7538C31.237 25.0255 31.0532 25.2807 30.843 25.5147C30.4241 25.9813 29.9104 26.3531 29.3362 26.6052C28.762 26.8574 28.1407 26.984 27.5136 26.9767C26.8866 26.9694 26.2683 26.8283 25.7002 26.5628C25.132 26.2974 24.6271 25.9137 24.2192 25.4374C23.8843 25.0465 23.6212 24.6006 23.4408 24.1204C21.9947 25.4069 20.0891 26.1892 18 26.1892C13.4773 26.1892 9.81083 22.5228 9.81083 18C9.81083 13.4772 13.4773 9.8108 18 9.8108C22.5228 9.8108 26.1892 13.4772 26.1892 18C26.1892 19.1713 25.9427 20.2876 25.4978 21.2979L25.4045 21.514L25.396 21.5318C25.2905 21.7518 25.2188 21.9872 25.184 22.2298C25.1354 22.5687 25.1596 22.9141 25.2552 23.2429C25.3507 23.5717 25.5154 23.8763 25.7381 24.1364C25.9609 24.3964 26.2366 24.6059 26.5468 24.7508C26.857 24.8958 27.1946 24.9728 27.5369 24.9768C27.8793 24.9808 28.2186 24.9117 28.5321 24.774C28.8456 24.6363 29.1261 24.4333 29.3549 24.1786C29.4639 24.0571 29.5599 23.9253 29.6418 23.7852C29.7009 23.6662 29.7583 23.5462 29.8138 23.4253C29.8299 23.3829 29.8448 23.34 29.8585 23.2966L29.8704 23.3004C29.8877 23.2616 29.9048 23.2227 29.9218 23.1837C30.6025 21.6182 30.9682 19.9338 30.998 18.2269C31.0278 16.52 30.7211 14.8239 30.0954 13.2355C29.4697 11.6471 28.5373 10.1975 27.3514 8.96944C26.1655 7.7414 24.7493 6.75896 23.1837 6.07822C21.6181 5.39748 19.9338 5.03177 18.2269 5.00198ZM18 11.8108C14.5818 11.8108 11.8108 14.5818 11.8108 18C11.8108 21.4182 14.5818 24.1892 18 24.1892C20.529 24.1892 22.7058 22.6723 23.6662 20.4946C24.0022 19.7327 24.1892 18.8895 24.1892 18C24.1892 14.5818 21.4182 11.8108 18 11.8108Z" fill="white"/>
</svg>
