<svg width="36" height="36" viewBox="0 0 36 36" fill="none" xmlns="http://www.w3.org/2000/svg">
<path fill-rule="evenodd" clip-rule="evenodd" d="M3.27198 17.2512H16.8573L13.2263 13.6202C12.8358 13.2297 12.8358 12.5965 13.2263 12.206C13.6168 11.8155 14.25 11.8155 14.6405 12.206L19.9786 17.544C20.3691 17.9346 20.3691 18.5677 19.9786 18.9583L14.6405 24.2963C14.25 24.6869 13.6168 24.6869 13.2263 24.2963C12.8358 23.9058 12.8358 23.2726 13.2263 22.8821L16.8573 19.2512H3.32265C3.43987 20.5229 3.71741 21.7495 4.13528 22.9097C4.4758 23.8552 4.57387 24.7839 4.34499 25.6014L3.08741 30.0927C2.60639 31.8106 4.18936 33.3936 5.90727 32.9126L10.3986 31.655C11.2161 31.4261 12.1448 31.5242 13.0903 31.8647C14.6654 32.432 16.3628 32.7407 18.1297 32.7407C26.3423 32.7407 33 26.083 33 17.8703C33 9.65768 26.3423 3 18.1297 3C10.1244 3 3.5966 9.32564 3.27198 17.2512Z" fill="white"/>
</svg>
