<svg width="36" height="36" viewBox="0 0 36 36" fill="none" xmlns="http://www.w3.org/2000/svg">
<path fill-rule="evenodd" clip-rule="evenodd" d="M18.1366 5C11.0333 5 5.27496 10.7581 5.27496 17.861C5.27496 19.4082 5.54775 20.8895 6.047 22.2608C6.48399 23.4611 6.68456 24.8451 6.30428 26.2033L5.00712 30.8357C4.99834 30.8671 5.00079 30.8871 5.00486 30.9016C5.0098 30.9192 5.02074 30.9395 5.0391 30.9578C5.05746 30.9762 5.07776 30.9871 5.09532 30.9921C5.10978 30.9961 5.12983 30.9986 5.16119 30.9898L9.79419 29.6926C11.1522 29.3124 12.5361 29.513 13.7363 29.9499C15.1078 30.4492 16.5892 30.722 18.1366 30.722C25.2399 30.722 30.9982 24.9639 30.9982 17.861C30.9982 10.7581 25.2399 5 18.1366 5ZM3.27496 17.861C3.27496 9.65345 9.92878 3 18.1366 3C26.3444 3 32.9982 9.65345 32.9982 17.861C32.9982 26.0685 26.3444 32.722 18.1366 32.722C16.3525 32.722 14.6397 32.4072 13.0522 31.8292C12.1107 31.4865 11.1702 31.3843 10.3334 31.6186L5.70043 32.9158C4.10472 33.3625 2.63438 31.8921 3.0812 30.2965L4.37835 25.664C4.61268 24.8271 4.51046 23.8866 4.16768 22.945C3.58976 21.3576 3.27496 19.6449 3.27496 17.861ZM26.4727 24.077C24.5769 26.6138 21.5499 28.2561 18.1394 28.2561C14.7288 28.2561 11.7018 26.6138 9.80608 24.077C12.31 22.8101 15.1413 22.0963 18.1394 22.0963C21.1374 22.0963 23.9688 22.8101 26.4727 24.077ZM18.1357 20.1712C21.1129 20.1712 23.5264 17.7578 23.5264 14.7808C23.5264 11.8038 21.1129 9.39041 18.1357 9.39041C15.1586 9.39041 12.7451 11.8038 12.7451 14.7808C12.7451 17.7578 15.1586 20.1712 18.1357 20.1712Z" fill="white"/>
</svg>
