<svg width="36" height="36" viewBox="0 0 36 36" fill="none" xmlns="http://www.w3.org/2000/svg">
<path fill-rule="evenodd" clip-rule="evenodd" d="M5.27496 17.861C5.27496 10.7581 11.0333 5 18.1366 5C25.2399 5 30.9982 10.7581 30.9982 17.861C30.9982 24.9639 25.2399 30.722 18.1366 30.722C16.5892 30.722 15.1078 30.4492 13.7363 29.9499C12.5361 29.513 11.1522 29.3124 9.79419 29.6926L5.16119 30.9898C5.12983 30.9986 5.10978 30.9961 5.09532 30.9921C5.07776 30.9871 5.05746 30.9762 5.0391 30.9578C5.02074 30.9395 5.0098 30.9192 5.00486 30.9016C5.00079 30.8871 4.99834 30.8671 5.00712 30.8357L6.30428 26.2033C6.68456 24.8451 6.48399 23.4611 6.047 22.2608C5.54775 20.8895 5.27496 19.4082 5.27496 17.861ZM18.1366 3C9.92878 3 3.27496 9.65345 3.27496 17.861C3.27496 19.6449 3.58976 21.3576 4.16768 22.945C4.51046 23.8866 4.61268 24.8271 4.37835 25.664L3.0812 30.2965C2.63438 31.8921 4.10472 33.3625 5.70043 32.9158L10.3334 31.6186C11.1702 31.3843 12.1107 31.4865 13.0522 31.8292C14.6397 32.4072 16.3525 32.722 18.1366 32.722C26.3444 32.722 32.9982 26.0685 32.9982 17.861C32.9982 9.65345 26.3444 3 18.1366 3ZM13.4522 12.5332C13.0617 12.1426 12.4285 12.1427 12.038 12.5332C11.6475 12.9237 11.6475 13.5569 12.038 13.9474L16.3364 18.2456L12.038 22.5439C11.6475 22.9344 11.6475 23.5676 12.038 23.9581C12.4285 24.3486 13.0617 24.3486 13.4522 23.9581L17.7507 19.6598L22.0492 23.9581C22.4397 24.3486 23.0729 24.3486 23.4634 23.9581C23.8539 23.5676 23.8539 22.9344 23.4634 22.5439L19.1649 18.2456L23.4634 13.9474C23.8539 13.5569 23.8539 12.9237 23.4634 12.5332C23.0729 12.1427 22.4397 12.1426 22.0492 12.5332L17.7507 16.8315L13.4522 12.5332Z" fill="white"/>
</svg>
