<svg width="36" height="36" viewBox="0 0 36 36" fill="none" xmlns="http://www.w3.org/2000/svg">
<path fill-rule="evenodd" clip-rule="evenodd" d="M23.9954 4.54477C26.0551 2.48508 29.3945 2.48508 31.4541 4.54476C33.5138 6.60444 33.5138 9.94384 31.4541 12.0035L13.5479 29.9099C12.8238 30.634 11.913 31.143 10.9168 31.3801L4.23164 32.9719C3.89382 33.0523 3.53846 32.9517 3.29291 32.7062C3.04736 32.4606 2.94678 32.1052 3.02721 31.7674L4.61893 25.0822C4.85611 24.086 5.36506 23.1752 6.08914 22.4511L23.9954 4.54477ZM30.0399 5.95897C28.7613 4.68034 26.6882 4.68034 25.4096 5.95898L24.2739 7.09469C25.3055 7.52193 26.2503 8.14977 27.05 8.9495C27.8495 9.74903 28.4772 10.6935 28.9045 11.7248L30.0399 10.5893C31.3186 9.31068 31.3186 7.23761 30.0399 5.95897ZM27.3313 13.298C27.0344 12.193 26.4519 11.1798 25.6358 10.3637C24.8195 9.5474 23.8059 8.96481 22.7006 8.66796L7.50336 23.8653C7.04099 24.3277 6.71599 24.9093 6.56454 25.5454L6.46852 25.9487C8.12436 26.5595 9.43923 27.8747 10.0497 29.5307L10.4536 29.4345C11.0897 29.2831 11.6713 28.9581 12.1337 28.4957L27.3313 13.298Z" fill="white"/>
<path d="M13.8694 32L16.8694 29H31C31.8284 29 32.5 29.6716 32.5 30.5C32.5 31.3284 31.8284 32 31 32H13.8694Z" fill="white"/>
</svg>
