<svg width="36" height="36" viewBox="0 0 36 36" fill="none" xmlns="http://www.w3.org/2000/svg">
<path d="M11.2249 20.5014C11.2249 19.9491 11.6726 19.5014 12.2249 19.5014H18.1161C18.6684 19.5014 19.1161 19.9491 19.1161 20.5014C19.1161 21.0537 18.6684 21.5014 18.1161 21.5014H12.2249C11.6726 21.5014 11.2249 21.0537 11.2249 20.5014Z" fill="white"/>
<path d="M12.2249 14.9196C11.6726 14.9196 11.2249 15.3673 11.2249 15.9196C11.2249 16.4719 11.6726 16.9196 12.2249 16.9196H24.0073C24.5596 16.9196 25.0073 16.4719 25.0073 15.9196C25.0073 15.3673 24.5596 14.9196 24.0073 14.9196H12.2249Z" fill="white"/>
<path fill-rule="evenodd" clip-rule="evenodd" d="M5.33351 17.8834C5.33351 10.8241 11.0564 5.10156 18.1159 5.10156C25.1753 5.10156 30.8983 10.8241 30.8983 17.8834C30.8983 24.9427 25.1753 30.6652 18.1159 30.6652C16.5816 30.6652 15.1084 30.3945 13.7428 29.8974C12.962 29.6131 12.1958 29.5336 11.5236 29.7218L7.58559 30.8244C6.11661 31.2357 4.76303 29.8821 5.17436 28.4131L6.27694 24.4755C6.46517 23.8033 6.38567 23.037 6.10136 22.2561C5.60423 20.8906 5.33351 19.4175 5.33351 17.8834ZM18.1159 7.10156C12.1609 7.10156 7.33351 11.9288 7.33351 17.8834C7.33351 19.1808 7.56223 20.4225 7.98069 21.5719C8.35919 22.6116 8.53705 23.8213 8.20286 25.0148L7.12125 28.8775L10.9844 27.7959C12.1778 27.4617 13.3874 27.6396 14.427 28.018C15.5765 28.4365 16.8184 28.6652 18.1159 28.6652C24.0709 28.6652 28.8983 23.838 28.8983 17.8834C28.8983 11.9288 24.0709 7.10156 18.1159 7.10156Z" fill="white"/>
</svg>
