<svg width="36" height="36" viewBox="0 0 36 36" fill="none" xmlns="http://www.w3.org/2000/svg">
<path d="M7.23971 24.7412L8.20267 25.0109L7.23971 24.7412ZM6.13712 28.6788L7.10009 28.9485H7.10009L6.13712 28.6788ZM7.04083 21.9101L7.98049 21.568H7.98049L7.04083 21.9101ZM14.0847 28.9538L13.7426 29.8934H13.7426L14.0847 28.9538ZM7.31578 29.8575L7.04616 28.8946H7.04616L7.31578 29.8575ZM11.2538 28.7549L11.5234 29.7179H11.5234L11.2538 28.7549ZM22.7495 14.659C23.14 14.2685 23.1401 13.6353 22.7495 13.2448C22.359 12.8543 21.7259 12.8543 21.3353 13.2448L22.7495 14.659ZM12.8258 21.7539C12.4353 22.1444 12.4353 22.7776 12.8258 23.1681C13.2163 23.5586 13.8495 23.5586 14.24 23.1681L12.8258 21.7539ZM14.24 13.2448C13.8495 12.8543 13.2163 12.8543 12.8258 13.2448C12.4353 13.6353 12.4353 14.2685 12.8258 14.659L14.24 13.2448ZM21.3353 23.1681C21.7259 23.5586 22.359 23.5586 22.7495 23.1681C23.1401 22.7776 23.1401 22.1444 22.7495 21.7539L21.3353 23.1681ZM28.8981 17.8795C28.8981 23.8341 24.0707 28.6613 18.1157 28.6613V30.6613C25.1752 30.6613 30.8981 24.9387 30.8981 17.8795H28.8981ZM7.33331 17.8795C7.33331 11.9249 12.1607 7.09766 18.1157 7.09766V5.09766C11.0562 5.09766 5.33331 10.8202 5.33331 17.8795H7.33331ZM18.1157 7.09766C24.0707 7.09766 28.8981 11.9249 28.8981 17.8795H30.8981C30.8981 10.8202 25.1752 5.09766 18.1157 5.09766V7.09766ZM6.27675 24.4716L5.17416 28.4092L7.10009 28.9485L8.20267 25.0109L6.27675 24.4716ZM7.98049 21.568C7.56203 20.4186 7.33331 19.1769 7.33331 17.8795H5.33331C5.33331 19.4136 5.60403 20.8867 6.10117 22.2522L7.98049 21.568ZM18.1157 28.6613C16.8182 28.6613 15.5763 28.4326 14.4268 28.0141L13.7426 29.8934C15.1082 30.3906 16.5814 30.6613 18.1157 30.6613V28.6613ZM7.5854 30.8205L11.5234 29.7179L10.9842 27.792L7.04616 28.8946L7.5854 30.8205ZM14.4268 28.0141C13.3872 27.6357 12.1776 27.4578 10.9842 27.792L11.5234 29.7179C12.1956 29.5297 12.9618 29.6092 13.7426 29.8934L14.4268 28.0141ZM8.20267 25.0109C8.53686 23.8174 8.35899 22.6077 7.98049 21.568L6.10117 22.2522C6.38547 23.0331 6.46497 23.7994 6.27675 24.4716L8.20267 25.0109ZM5.17416 28.4092C4.76283 29.8782 6.11641 31.2318 7.5854 30.8205L7.04616 28.8946C7.04477 28.8949 7.0476 28.894 7.05366 28.8941C7.05951 28.8941 7.06562 28.8949 7.07124 28.8965C7.08189 28.8995 7.08695 28.9038 7.08889 28.9058C7.09083 28.9077 7.09512 28.9128 7.09812 28.9234C7.0997 28.929 7.10057 28.9351 7.10059 28.941C7.1006 28.947 7.0997 28.9499 7.10009 28.9485L5.17416 28.4092ZM21.3353 13.2448L17.0806 17.4993L18.4948 18.9136L22.7495 14.659L21.3353 13.2448ZM17.0806 17.4993L12.8258 21.7539L14.24 23.1681L18.4948 18.9136L17.0806 17.4993ZM12.8258 14.659L17.0806 18.9136L18.4948 17.4993L14.24 13.2448L12.8258 14.659ZM17.0806 18.9136L21.3353 23.1681L22.7495 21.7539L18.4948 17.4993L17.0806 18.9136Z" fill="white"/>
</svg>
