<svg width="36" height="36" viewBox="0 0 36 36" fill="none" xmlns="http://www.w3.org/2000/svg">
<path d="M6.55847 28.2645L5.5955 27.9949L6.55847 28.2645ZM7.73714 29.4432L7.46751 28.4802L7.73714 29.4432ZM28.9001 17.6799C28.9001 23.5222 24.164 28.2583 18.3217 28.2583V30.2583C25.2686 30.2583 30.9001 24.6268 30.9001 17.6799H28.9001ZM7.74334 17.6799C7.74334 11.8377 12.4794 7.10156 18.3217 7.10156V5.10156C11.3749 5.10156 5.74334 10.7331 5.74334 17.6799H7.74334ZM18.3217 7.10156C24.164 7.10156 28.9001 11.8377 28.9001 17.6799H30.9001C30.9001 10.7331 25.2686 5.10156 18.3217 5.10156V7.10156ZM6.66408 24.1786L5.5955 27.9949L7.52143 28.5342L8.59001 24.7178L6.66408 24.1786ZM8.37019 21.2766C7.9648 20.1551 7.74334 18.9445 7.74334 17.6799H5.74334C5.74334 19.1796 6.00624 20.6202 6.48931 21.9565L8.37019 21.2766ZM18.3217 28.2583C17.0572 28.2583 15.8465 28.0369 14.7251 27.6315L14.0452 29.5124C15.3815 29.9954 16.822 30.2583 18.3217 30.2583V28.2583ZM8.00677 30.4062L11.8231 29.3376L11.2838 27.4117L7.46751 28.4802L8.00677 30.4062ZM14.7251 27.6315C13.6866 27.2561 12.4775 27.0774 11.2838 27.4117L11.8231 29.3376C12.4951 29.1494 13.2616 29.2291 14.0452 29.5124L14.7251 27.6315ZM8.59001 24.7178C8.92422 23.5242 8.74558 22.3151 8.37019 21.2766L6.48931 21.9565C6.77254 22.74 6.85224 23.5065 6.66408 24.1786L8.59001 24.7178ZM5.5955 27.9949C5.18419 29.4639 6.53779 30.8175 8.00677 30.4062L7.46751 28.4802C7.46612 28.4806 7.46895 28.4797 7.47501 28.4797C7.48086 28.4797 7.48697 28.4806 7.49259 28.4822C7.50323 28.4852 7.5083 28.4895 7.51024 28.4914C7.51218 28.4934 7.51647 28.4984 7.51946 28.5091C7.52104 28.5147 7.52192 28.5208 7.52193 28.5267C7.52195 28.5327 7.52104 28.5355 7.52143 28.5342L5.5955 27.9949Z" fill="white"/>
</svg>
