<svg width="36" height="36" viewBox="0 0 36 36" fill="none" xmlns="http://www.w3.org/2000/svg">
<path fill-rule="evenodd" clip-rule="evenodd" d="M18.1297 3C9.917 3 3.25932 9.65768 3.25932 17.8703C3.25932 19.6372 3.56797 21.3346 4.13528 22.9097C4.4758 23.8552 4.57387 24.7839 4.34499 25.6014L3.08741 30.0927C2.60639 31.8106 4.18936 33.3936 5.90727 32.9126L10.3986 31.655C11.2161 31.4261 12.1448 31.5242 13.0903 31.8647C14.6654 32.432 16.3628 32.7407 18.1297 32.7407C26.3423 32.7407 33 26.083 33 17.8703C33 9.65768 26.3423 3 18.1297 3ZM13.5885 12.4994C13.1491 12.06 12.4368 12.06 11.9975 12.4994C11.5581 12.9387 11.5581 13.651 11.9975 14.0903L16.1588 18.2516L11.9975 22.4129C11.5581 22.8523 11.5581 23.5646 11.9975 24.0039C12.4368 24.4432 13.1491 24.4432 13.5885 24.0039L17.7497 19.8426L21.911 24.0039C22.3504 24.4432 23.0627 24.4432 23.502 24.0039C23.9414 23.5646 23.9414 22.8523 23.502 22.4129L19.3407 18.2516L23.502 14.0903C23.9414 13.651 23.9414 12.9387 23.502 12.4994C23.0627 12.06 22.3504 12.06 21.911 12.4994L17.7497 16.6606L13.5885 12.4994Z" fill="white"/>
</svg>
