<svg width="36" height="36" viewBox="0 0 36 36" fill="none" xmlns="http://www.w3.org/2000/svg">
<path fill-rule="evenodd" clip-rule="evenodd" d="M5.47052 17.8898C5.47052 10.909 11.1321 5.25 18.1159 5.25C24.8727 5.25 30.3918 10.547 30.7435 17.2131H18.9111L21.7424 14.383C22.133 13.9926 22.1332 13.3594 21.7427 12.9688C21.3523 12.5782 20.7191 12.5781 20.3285 12.9685L15.7891 17.5059C15.6015 17.6934 15.4961 17.9478 15.4961 18.2131C15.4961 18.4784 15.6015 18.7329 15.7891 18.9204L20.3285 23.4578C20.7191 23.8482 21.3523 23.8481 21.7427 23.4575C22.1332 23.0668 22.133 22.4337 21.7424 22.0432L18.9111 19.2131H30.6929C30.031 25.5719 24.6527 30.5296 18.1159 30.5296C16.6134 30.5296 15.17 30.2672 13.8305 29.785C13.0265 29.4956 12.2368 29.4122 11.5416 29.6068L7.72228 30.6757C6.26141 31.0846 4.91529 29.739 5.32433 28.2788L6.39375 24.4611C6.58838 23.7664 6.50499 22.977 6.21541 22.1733C5.73299 20.8344 5.47052 19.3916 5.47052 17.8898Z" fill="white"/>
</svg>
