<svg width="36" height="36" viewBox="0 0 36 36" fill="none" xmlns="http://www.w3.org/2000/svg">
<path fill-rule="evenodd" clip-rule="evenodd" d="M5.47042 17.8898C5.47042 10.909 11.1294 5.25 18.1102 5.25C25.091 5.25 30.75 10.909 30.75 17.8898C30.75 24.8706 25.091 30.5296 18.1102 30.5296C16.6084 30.5296 15.1656 30.2672 13.8267 29.785C13.023 29.4956 12.2336 29.4122 11.5389 29.6068L7.72118 30.6757C6.26096 31.0846 4.91544 29.739 5.3243 28.2788L6.39325 24.4612C6.58779 23.7664 6.50443 22.977 6.21498 22.1733C5.73278 20.8344 5.47042 19.3917 5.47042 17.8898ZM19.0592 13.0278C19.0592 12.3237 18.4883 11.7528 17.7842 11.7528C17.08 11.7528 16.5092 12.3237 16.5092 13.0278V18.2134C16.5092 18.9176 17.08 19.4884 17.7842 19.4884C18.4883 19.4884 19.0592 18.9176 19.0592 18.2134V13.0278ZM19.0312 23.7535C18.8769 24.297 18.3769 24.695 17.784 24.695C17.068 24.695 16.4876 24.1146 16.4876 23.3986C16.4876 23.2741 16.5052 23.1536 16.538 23.0395C16.6935 22.4979 17.1925 22.1016 17.7842 22.1016C18.5002 22.1016 19.0806 22.682 19.0806 23.398C19.0806 23.5118 19.0659 23.6223 19.0383 23.7275C19.036 23.7362 19.0337 23.7449 19.0312 23.7535Z" fill="white"/>
</svg>
