<svg width="36" height="36" viewBox="0 0 36 36" fill="none" xmlns="http://www.w3.org/2000/svg">
<path fill-rule="evenodd" clip-rule="evenodd" d="M5.75677 17.6216C5.75677 10.6509 11.4077 5 18.3784 5C25.331 5 30.9706 10.6215 30.9999 17.5672C31.7008 17.921 32.3543 18.3548 32.9486 18.8567C32.9826 18.4495 33 18.0376 33 17.6216C33 9.54632 26.4537 3 18.3784 3C10.3031 3 3.75677 9.54632 3.75677 17.6216C3.75677 19.3652 4.0624 21.0397 4.62387 22.5929C4.96521 23.5372 5.06771 24.478 4.83345 25.3146L3.57631 29.8044C3.12951 31.4001 4.59987 32.8705 6.19557 32.4237L10.6854 31.1666C11.522 30.9323 12.4629 31.0348 13.4071 31.3762C14.9408 31.9305 16.5927 32.2355 18.3126 32.2431C17.8668 31.6087 17.4928 30.9202 17.2026 30.1893C16.1176 30.0891 15.0735 29.8519 14.0871 29.4953C12.8878 29.0618 11.5043 28.8603 10.1461 29.2406L5.65631 30.4978C5.62494 30.5066 5.6049 30.5041 5.59044 30.5C5.57288 30.4951 5.55258 30.4842 5.53422 30.4658C5.51586 30.4474 5.50492 30.4271 5.49998 30.4096C5.49591 30.3951 5.49345 30.3751 5.50224 30.3437L6.75938 25.8539C7.13969 24.4957 6.93826 23.1122 6.50475 21.913C6.02096 20.5746 5.75677 19.1301 5.75677 17.6216Z" fill="white"/>
<path fill-rule="evenodd" clip-rule="evenodd" d="M26.5 35C31.1944 35 35 31.1944 35 26.5C35 21.8056 31.1944 18 26.5 18C21.8056 18 18 21.8056 18 26.5C18 31.1944 21.8056 35 26.5 35ZM29.9771 23.0221C29.9771 24.9425 28.4203 26.4994 26.4998 26.4994C24.5794 26.4994 23.0225 24.9425 23.0225 23.0221C23.0225 21.1016 24.5794 19.5448 26.4998 19.5448C28.4203 19.5448 29.9771 21.1016 29.9771 23.0221ZM32.3387 30.2807C31.0991 32.1907 28.9475 33.4542 26.5008 33.4542C24.0539 33.4542 21.9022 32.1905 20.6626 30.2802C22.4013 29.3472 24.3889 28.818 26.5002 28.818C28.6118 28.818 30.5998 29.3474 32.3387 30.2807Z" fill="white"/>
</svg>
