<svg width="36" height="36" viewBox="0 0 36 36" fill="none" xmlns="http://www.w3.org/2000/svg">
<path fill-rule="evenodd" clip-rule="evenodd" d="M5.27973 17.8582C5.27973 10.7699 11.1107 5 18.3331 5C24.1588 5 29.085 8.75749 30.7673 13.9329C30.938 14.4581 31.5022 14.7455 32.0274 14.5748C32.5527 14.404 32.8401 13.8398 32.6693 13.3146C30.7222 7.32476 25.0351 3 18.3331 3C10.0326 3 3.27973 9.6391 3.27973 17.8582C3.27973 19.6357 3.59641 21.3424 4.17784 22.9247C4.52825 23.8783 4.63296 24.8316 4.3926 25.6781L3.08333 30.2891C2.6307 31.8832 4.09576 33.3589 5.6931 32.9179L10.4599 31.6017C11.2872 31.3733 12.2149 31.4728 13.1423 31.8091C14.7619 32.3964 16.5108 32.7164 18.3331 32.7164C24.7232 32.7164 30.1901 28.7848 32.373 23.2282C32.5749 22.7141 32.3219 22.1337 31.8079 21.9318C31.2938 21.7298 30.7134 21.9829 30.5115 22.4969C28.6241 27.3012 23.887 30.7164 18.3331 30.7164C16.7463 30.7164 15.2279 30.4379 13.8241 29.9289C12.636 29.4981 11.2695 29.3033 9.92758 29.6739L5.16079 30.99C5.1294 30.9987 5.10936 30.9962 5.09492 30.992C5.07737 30.987 5.05711 30.976 5.03882 30.9576C5.02052 30.9392 5.00966 30.9188 5.00478 30.9012C5.00077 30.8868 4.99838 30.8667 5.00728 30.8354L6.31655 26.2244C6.70673 24.8502 6.5009 23.448 6.05511 22.2349C5.55356 20.8699 5.27973 19.3966 5.27973 17.8582ZM22.5491 13.5657C22.9424 13.178 22.9468 12.5448 22.559 12.1516C22.1712 11.7583 21.5381 11.7539 21.1448 12.1417L15.6797 17.531C15.4891 17.7189 15.3818 17.9754 15.3818 18.243C15.3818 18.5107 15.4891 18.7671 15.6797 18.955L21.1448 24.3443C21.5381 24.7321 22.1712 24.7277 22.559 24.3345C22.9468 23.9412 22.9424 23.3081 22.5491 22.9203L18.8201 19.243H31.9966C32.5489 19.243 32.9966 18.7953 32.9966 18.243C32.9966 17.6907 32.5489 17.243 31.9966 17.243H18.8201L22.5491 13.5657Z" fill="white"/>
</svg>
