<svg width="36" height="36" viewBox="0 0 36 36" fill="none" xmlns="http://www.w3.org/2000/svg">
<path d="M5.47042 17.8898C5.47042 10.909 11.1294 5.25 18.1102 5.25C20.3115 5.25 22.3813 5.8127 24.1837 6.80211C22.7113 7.84339 21.75 9.55943 21.75 11.5C21.75 14.6756 24.3244 17.25 27.5 17.25C28.6639 17.25 29.747 16.9042 30.6522 16.3097C30.7167 16.8274 30.75 17.3547 30.75 17.8898C30.75 24.8706 25.091 30.5296 18.1102 30.5296C16.6084 30.5296 15.1656 30.2672 13.8267 29.785C13.023 29.4956 12.2336 29.4122 11.5389 29.6068L7.72118 30.6757C6.26096 31.0846 4.91544 29.739 5.3243 28.2788L6.39325 24.4612C6.58779 23.7664 6.50443 22.977 6.21498 22.1733C5.73278 20.8344 5.47042 19.3917 5.47042 17.8898Z" fill="white"/>
<path d="M27.5 15.25C29.5711 15.25 31.25 13.5711 31.25 11.5C31.25 9.42893 29.5711 7.75 27.5 7.75C25.4289 7.75 23.75 9.42893 23.75 11.5C23.75 13.5711 25.4289 15.25 27.5 15.25Z" fill="white"/>
</svg>
