<svg width="36" height="36" viewBox="0 0 36 36" fill="none" xmlns="http://www.w3.org/2000/svg">
<path fill-rule="evenodd" clip-rule="evenodd" d="M18.1297 3C9.917 3 3.25932 9.65768 3.25932 17.8703C3.25932 19.6372 3.56797 21.3346 4.13528 22.9097C4.4758 23.8552 4.57387 24.7839 4.34499 25.6014L3.08741 30.0927C2.60639 31.8106 4.18936 33.3936 5.90727 32.9126L10.3986 31.655C11.2161 31.4261 12.1448 31.5242 13.0903 31.8647C14.6654 32.432 16.3628 32.7407 18.1297 32.7407C26.3423 32.7407 33 26.083 33 17.8703C33 9.65768 26.3423 3 18.1297 3ZM17.7461 10.6504C18.5745 10.6504 19.2461 11.322 19.2461 12.1504V18.251C19.2461 19.0795 18.5745 19.751 17.7461 19.751C16.9177 19.751 16.2461 19.0795 16.2461 18.251V12.1504C16.2461 11.322 16.9177 10.6504 17.7461 10.6504ZM19.271 24.3513C19.271 25.1937 18.5882 25.8765 17.7459 25.8765C16.9035 25.8765 16.2207 25.1937 16.2207 24.3513C16.2207 23.509 16.9035 22.8262 17.7459 22.8262C18.5882 22.8262 19.271 23.509 19.271 24.3513Z" fill="white"/>
</svg>
