<svg width="36" height="36" viewBox="0 0 36 36" fill="none" xmlns="http://www.w3.org/2000/svg">
<path fill-rule="evenodd" clip-rule="evenodd" d="M18.1102 5.25C11.1294 5.25 5.47042 10.909 5.47042 17.8898C5.47042 19.3917 5.73278 20.8344 6.21498 22.1733C6.50443 22.977 6.58779 23.7664 6.39325 24.4612L5.3243 28.2788C4.91544 29.739 6.26096 31.0846 7.72118 30.6757L11.5389 29.6068C12.2336 29.4122 13.023 29.4956 13.8267 29.785C15.1656 30.2672 16.6084 30.5296 18.1102 30.5296C25.091 30.5296 30.75 24.8706 30.75 17.8898C30.75 10.909 25.091 5.25 18.1102 5.25ZM25.1232 23.1231C25.1236 23.1227 25.1239 23.1223 25.1242 23.1218C23.0168 22.0556 20.6338 21.4549 18.1106 21.4549C15.5867 21.4549 13.2032 22.0559 11.0954 23.1226C11.0957 23.123 11.096 23.1234 11.0963 23.1238C11.0959 23.1239 11.0956 23.1241 11.0952 23.1243C12.6909 25.2595 15.2387 26.6418 18.1093 26.6418C20.9803 26.6418 23.5284 25.2592 25.124 23.1235C25.1237 23.1234 25.1235 23.1232 25.1232 23.1231ZM13.6036 14.7764C13.6049 14.7652 13.6062 14.7539 13.6076 14.7427C13.8811 12.4985 15.7933 10.7601 18.1114 10.7601C20.6173 10.7601 22.6487 12.7915 22.6487 15.2974C22.6487 15.4736 22.6387 15.6475 22.6192 15.8184C22.6168 15.8391 22.6143 15.8596 22.6117 15.8802C22.3264 18.1117 20.4202 19.8364 18.1112 19.8364C15.6053 19.8364 13.5738 17.805 13.5738 15.2991C13.5738 15.1223 13.5839 14.9479 13.6036 14.7764Z" fill="white"/>
</svg>
