<svg width="36" height="36" viewBox="0 0 36 36" fill="none" xmlns="http://www.w3.org/2000/svg">
<path fill-rule="evenodd" clip-rule="evenodd" d="M18.3784 5C11.4077 5 5.75677 10.6509 5.75677 17.6216C5.75677 19.1301 6.02096 20.5746 6.50475 21.913C6.93826 23.1122 7.13969 24.4957 6.75938 25.8539L5.50224 30.3437C5.49345 30.3751 5.49591 30.3951 5.49998 30.4096C5.50492 30.4271 5.51586 30.4474 5.53422 30.4658C5.55258 30.4842 5.57288 30.4951 5.59044 30.5C5.6049 30.5041 5.62494 30.5066 5.65631 30.4978L10.1461 29.2406C11.5043 28.8603 12.8878 29.0618 14.0871 29.4953C15.4254 29.9791 16.8699 30.2432 18.3784 30.2432C25.3491 30.2432 31 24.5924 31 17.6216C31 10.6509 25.3491 5 18.3784 5ZM3.75677 17.6216C3.75677 9.54632 10.3031 3 18.3784 3C26.4537 3 33 9.54632 33 17.6216C33 25.6969 26.4537 32.2432 18.3784 32.2432C16.6348 32.2432 14.9603 31.9376 13.4071 31.3761C12.4629 31.0348 11.522 30.9323 10.6854 31.1666L6.19557 32.4237C4.59987 32.8705 3.12951 31.4001 3.57631 29.8044L4.83345 25.3146C5.06771 24.478 4.96521 23.5372 4.62387 22.5929C4.0624 21.0397 3.75677 19.3652 3.75677 17.6216Z" fill="white"/>
</svg>
