<svg width="36" height="36" viewBox="0 0 36 36" fill="none" xmlns="http://www.w3.org/2000/svg">
<path fill-rule="evenodd" clip-rule="evenodd" d="M5.27496 17.861C5.27496 10.7581 11.0333 5 18.1366 5C25.2399 5 30.9982 10.7581 30.9982 17.861C30.9982 24.9639 25.2399 30.722 18.1366 30.722C16.5892 30.722 15.1078 30.4492 13.7363 29.9499C12.5361 29.513 11.1522 29.3124 9.79419 29.6926L5.16119 30.9898C5.12983 30.9986 5.10978 30.9961 5.09532 30.9921C5.07776 30.9871 5.05746 30.9762 5.0391 30.9578C5.02074 30.9395 5.0098 30.9192 5.00486 30.9016C5.00079 30.8871 4.99834 30.8671 5.00712 30.8357L6.30428 26.2033C6.68456 24.8451 6.48399 23.4611 6.047 22.2608C5.54775 20.8895 5.27496 19.4082 5.27496 17.861ZM18.1366 3C9.92878 3 3.27496 9.65345 3.27496 17.861C3.27496 19.6449 3.58976 21.3576 4.16768 22.945C4.51046 23.8866 4.61268 24.8271 4.37835 25.664L3.0812 30.2965C2.63438 31.8921 4.10472 33.3625 5.70043 32.9158L10.3334 31.6186C11.1702 31.3843 12.1107 31.4865 13.0522 31.8292C14.6397 32.4072 16.3525 32.722 18.1366 32.722C26.3444 32.722 32.9982 26.0685 32.9982 17.861C32.9982 9.65345 26.3444 3 18.1366 3ZM11.5908 15.0851C11.5908 14.035 11.5908 13.51 11.7952 13.1089C11.9749 12.7561 12.2618 12.4693 12.6146 12.2895C13.0157 12.0851 13.5407 12.0851 14.5908 12.0851H18.602C19.6521 12.0851 20.1771 12.0851 20.5782 12.2895C20.931 12.4693 21.2179 12.7561 21.3976 13.1089C21.602 13.51 21.602 14.035 21.602 15.0851V15.9193L24.231 13.7944C24.7214 13.398 25.4524 13.7471 25.4524 14.3777V20.573C25.4524 21.2037 24.7214 21.5528 24.231 21.1563L21.602 19.0314V19.8659C21.602 20.916 21.602 21.441 21.3976 21.8421C21.2179 22.1949 20.931 22.4818 20.5782 22.6615C20.1771 22.8659 19.6521 22.8659 18.602 22.8659H14.5908C13.5407 22.8659 13.0157 22.8659 12.6146 22.6615C12.2618 22.4818 11.9749 22.1949 11.7952 21.8421C11.5908 21.441 11.5908 20.916 11.5908 19.8659V15.0851Z" fill="white"/>
</svg>
