<svg width="36" height="36" viewBox="0 0 36 36" fill="none" xmlns="http://www.w3.org/2000/svg">
<path fill-rule="evenodd" clip-rule="evenodd" d="M18.1297 3C9.917 3 3.25932 9.65768 3.25932 17.8703C3.25932 19.6372 3.56797 21.3346 4.13528 22.9097C4.4758 23.8552 4.57387 24.7839 4.34499 25.6014L3.08741 30.0927C2.60639 31.8106 4.18936 33.3936 5.90727 32.9126L10.3986 31.655C11.2161 31.4261 12.1448 31.5242 13.0903 31.8647C14.6654 32.432 16.3628 32.7407 18.1297 32.7407C26.3423 32.7407 33 26.083 33 17.8703C33 9.65768 26.3423 3 18.1297 3ZM24.612 20.5394C25.8755 20.5394 26.8997 19.5151 26.8997 18.2516C26.8997 16.9881 25.8755 15.9639 24.612 15.9639C23.3485 15.9639 22.3242 16.9881 22.3242 18.2516C22.3242 19.5151 23.3485 20.5394 24.612 20.5394ZM20.0364 18.2516C20.0364 19.5151 19.0122 20.5394 17.7487 20.5394C16.4852 20.5394 15.4609 19.5151 15.4609 18.2516C15.4609 16.9881 16.4852 15.9639 17.7487 15.9639C19.0122 15.9639 20.0364 16.9881 20.0364 18.2516ZM10.8854 20.5394C12.1489 20.5394 13.1731 19.5151 13.1731 18.2516C13.1731 16.9881 12.1489 15.9639 10.8854 15.9639C9.62191 15.9639 8.59766 16.9881 8.59766 18.2516C8.59766 19.5151 9.62191 20.5394 10.8854 20.5394Z" fill="white"/>
</svg>
