<svg width="36" height="36" viewBox="0 0 36 36" fill="none" xmlns="http://www.w3.org/2000/svg">
<path d="M4.83391 26.0102L3.76547 31.3524C3.66051 31.8772 4.1232 32.3399 4.64799 32.235L9.9898 31.1666C9.95285 30.5584 9.81503 29.9597 9.58125 29.3953C9.30485 28.728 8.89973 28.1217 8.389 27.611C7.87828 27.1003 7.27197 26.6951 6.60468 26.4187C6.04044 26.185 5.44196 26.0472 4.83391 26.0102Z" fill="white"/>
<path d="M11.9046 30.308C12.0569 30.1905 12.2021 30.063 12.3392 29.926L27.4958 14.7693C27.4885 14.5634 27.4714 14.3573 27.4443 14.1516C27.2575 12.733 26.6079 11.4157 25.5961 10.4039C24.5843 9.3921 23.267 8.74244 21.8483 8.55568C21.643 8.52864 21.4371 8.51152 21.2315 8.50419L6.07444 23.6613C5.93751 23.7982 5.81008 23.9433 5.69271 24.0955C6.26707 24.1881 6.83006 24.3473 7.37004 24.571C8.27998 24.9479 9.10678 25.5003 9.80322 26.1968C10.4997 26.8932 11.0521 27.72 11.429 28.6299C11.6528 29.1701 11.8121 29.7334 11.9046 30.308Z" fill="white"/>
<path d="M30.953 11.3122L29.262 13.0031C28.8962 11.4894 28.1197 10.099 27.0103 8.98966C25.9011 7.88046 24.5111 7.10407 22.9976 6.73814L24.6882 5.04746C26.4182 3.31751 29.223 3.31751 30.953 5.04747C32.6829 6.77742 32.6829 9.58222 30.953 11.3122Z" fill="white"/>
<path d="M12.8693 32L15.8693 29H30C30.8284 29 31.5 29.6716 31.5 30.5C31.5 31.3284 30.8284 32 30 32H12.8693Z" fill="white"/>
</svg>
