<svg width="36" height="36" viewBox="0 0 36 36" fill="none" xmlns="http://www.w3.org/2000/svg">
<path d="M7.93724 14.588C9.32483 10.2418 13.3813 7.10156 18.1621 7.10156C24.0873 7.10156 28.8975 11.9253 28.8975 17.8841C28.8975 23.8429 24.0873 28.6666 18.1621 28.6666C16.8743 28.6666 15.6415 28.4393 14.4999 28.0233C13.4574 27.6433 12.2434 27.464 11.0458 27.8006L7.21552 28.8774L8.35708 24.784C8.64788 23.7413 8.49754 22.6845 8.14813 21.7789C7.94932 21.2637 7.37045 21.0071 6.85519 21.2059C6.33993 21.4048 6.08339 21.9836 6.2822 22.4989C6.51934 23.1135 6.57751 23.72 6.43059 24.2468L5.26814 28.4151C4.85835 29.8845 6.21335 31.2367 7.68191 30.8238L11.5871 29.726C12.2615 29.5364 13.0307 29.6165 13.8151 29.9024C15.1728 30.3972 16.6372 30.6666 18.1621 30.6666C25.1994 30.6666 30.8975 24.9399 30.8975 17.8841C30.8975 10.8283 25.1994 5.10156 18.1621 5.10156C12.4816 5.10156 7.67517 8.83299 6.03199 13.9797C5.86401 14.5059 6.15435 15.0685 6.68047 15.2365C7.20659 15.4045 7.76927 15.1141 7.93724 14.588Z" fill="white"/>
<path d="M13.8667 14.3348C13.4769 13.9435 13.4782 13.3103 13.8695 12.9206C14.2608 12.5308 14.894 12.5321 15.2837 12.9234L19.8475 17.5055C20.2361 17.8957 20.2361 18.5267 19.8475 18.9169L15.2837 23.499C14.894 23.8903 14.2608 23.8915 13.8695 23.5018C13.4782 23.1121 13.4769 22.4789 13.8667 22.0876L16.7316 19.2112H6.09961C5.54732 19.2112 5.09961 18.7635 5.09961 18.2112C5.09961 17.6589 5.54732 17.2112 6.09961 17.2112H16.7316L13.8667 14.3348Z" fill="white"/>
</svg>
