<svg width="36" height="36" viewBox="0 0 36 36" fill="none" xmlns="http://www.w3.org/2000/svg">
<path d="M7.33756 17.881C7.33756 11.9408 12.2247 7.10156 18.2829 7.10156C23.169 7.10156 27.2992 10.2529 28.7093 14.5909C28.8801 15.1161 29.4443 15.4035 29.9695 15.2328C30.4947 15.062 30.7821 14.4978 30.6114 13.9726C28.9365 8.82015 24.0453 5.10156 18.2829 5.10156C11.1466 5.10156 5.33756 10.81 5.33756 17.881C5.33756 19.4099 5.60995 20.878 6.11016 22.2393C6.40085 23.0304 6.48227 23.807 6.2892 24.487L5.17632 28.4063C4.75964 29.8738 6.10836 31.2324 7.57884 30.8264L11.6306 29.7076C12.2952 29.5241 13.0508 29.6016 13.8197 29.8803C15.2124 30.3853 16.7163 30.6605 18.2829 30.6605C23.7772 30.6605 28.4788 27.2799 30.3564 22.5004C30.5584 21.9863 30.3054 21.4059 29.7913 21.204C29.2773 21.002 28.6969 21.255 28.4949 21.7691C26.9129 25.7963 22.941 28.6605 18.2829 28.6605C16.9518 28.6605 15.6785 28.4269 14.5014 28.0001C13.4719 27.6268 12.2775 27.4542 11.0983 27.7797L7.12152 28.8778L8.21315 25.0332C8.55604 23.8256 8.37351 22.6001 7.98743 21.5495C7.5671 20.4056 7.33756 19.1707 7.33756 17.881Z" fill="white"/>
<path d="M21.9719 14.3393C22.3651 13.9515 22.3696 13.3183 21.9818 12.9251C21.594 12.5318 20.9608 12.5274 20.5676 12.9152L15.9222 17.4961C15.7316 17.684 15.6243 17.9405 15.6243 18.2081C15.6243 18.4758 15.7316 18.7322 15.9222 18.9202L20.5676 23.5011C20.9608 23.8888 21.594 23.8844 21.9818 23.4912C22.3696 23.0979 22.3651 22.4648 21.9719 22.077L19.0626 19.2081H29.8969C30.4492 19.2081 30.8969 18.7604 30.8969 18.2081C30.8969 17.6558 30.4492 17.2081 29.8969 17.2081H19.0626L21.9719 14.3393Z" fill="white"/>
</svg>
