<svg width="36" height="36" viewBox="0 0 36 36" fill="none" xmlns="http://www.w3.org/2000/svg">
<path d="M12.5521 15.5221C12.5521 14.6295 12.5521 14.1833 12.7258 13.8423C12.8786 13.5424 13.1224 13.2986 13.4223 13.1458C13.7632 12.9721 14.2095 12.9721 15.1021 12.9721H18.5115C19.4041 12.9721 19.8504 12.9721 20.1913 13.1458C20.4912 13.2986 20.735 13.5424 20.8878 13.8423C21.0616 14.1833 21.0616 14.6295 21.0616 15.5221V16.2312L23.2962 14.425C23.7131 14.0881 24.3344 14.3848 24.3344 14.9208V20.1869C24.3344 20.7229 23.7131 21.0196 23.2962 20.6827L21.0616 18.8765V19.5858C21.0616 20.4784 21.0616 20.9247 20.8878 21.2656C20.735 21.5655 20.4912 21.8093 20.1913 21.9621C19.8504 22.1358 19.4041 22.1358 18.5116 22.1358H15.1021C14.2095 22.1358 13.7632 22.1358 13.4223 21.9621C13.1224 21.8093 12.8786 21.5655 12.7258 21.2656C12.5521 20.9247 12.5521 20.4784 12.5521 19.5858V15.5221Z" fill="white"/>
<path fill-rule="evenodd" clip-rule="evenodd" d="M18.1159 5.10156C11.0564 5.10156 5.33351 10.8241 5.33351 17.8834C5.33351 19.4175 5.60423 20.8906 6.10136 22.2561C6.38567 23.037 6.46517 23.8033 6.27694 24.4755L5.17436 28.4131C4.76303 29.8821 6.11661 31.2357 7.58559 30.8244L11.5236 29.7218C12.1958 29.5336 12.962 29.6131 13.7428 29.8974C15.1084 30.3945 16.5816 30.6652 18.1159 30.6652C25.1753 30.6652 30.8983 24.9427 30.8983 17.8834C30.8983 10.8241 25.1753 5.10156 18.1159 5.10156ZM7.33351 17.8834C7.33351 11.9288 12.1609 7.10156 18.1159 7.10156C24.0709 7.10156 28.8983 11.9288 28.8983 17.8834C28.8983 23.838 24.0709 28.6652 18.1159 28.6652C16.8184 28.6652 15.5765 28.4365 14.427 28.018C13.3874 27.6396 12.1778 27.4617 10.9844 27.7959L7.12125 28.8775L8.20286 25.0148C8.53705 23.8213 8.35919 22.6116 7.98069 21.5719C7.56223 20.4225 7.33351 19.1808 7.33351 17.8834Z" fill="white"/>
</svg>
