<svg width="36" height="36" viewBox="0 0 36 36" fill="none" xmlns="http://www.w3.org/2000/svg">
<path fill-rule="evenodd" clip-rule="evenodd" d="M5.47042 17.8898C5.47042 10.909 11.1293 5.25 18.1099 5.25C25.0905 5.25 30.7494 10.909 30.7494 17.8898C30.7494 24.8706 25.0905 30.5296 18.1099 30.5296C16.6081 30.5296 15.1654 30.2672 13.8265 29.785C13.0229 29.4956 12.2335 29.4122 11.5387 29.6068L7.72112 30.6757C6.26094 31.0846 4.91544 29.739 5.3243 28.2788L6.39322 24.4612C6.58775 23.7664 6.5044 22.977 6.21496 22.1733C5.73277 20.8344 5.47042 19.3917 5.47042 17.8898ZM12.689 21.0082C12.6011 20.6912 12.6011 20.2634 12.6011 19.5521V15.5773C12.6011 14.6848 12.6011 14.2385 12.7748 13.8975C12.9276 13.5977 13.1714 13.3539 13.4713 13.2011C13.8122 13.0273 14.2585 13.0273 15.1511 13.0273H18.4774C19.37 13.0273 19.8163 13.0273 20.1572 13.2011C20.4571 13.3539 20.7009 13.5977 20.8537 13.8975C20.8897 13.9682 20.9182 14.0434 20.9409 14.1262C21.0276 14.4428 21.0276 14.87 21.0276 15.578V16.2537L23.2291 14.4742C23.5981 14.1759 24.1272 14.374 24.244 14.7951C24.2593 14.85 24.2676 14.9087 24.2676 14.9706V20.1595C24.2676 20.6956 23.6462 20.9923 23.2293 20.6553L21.0276 18.8756V19.5527C21.0276 20.4453 21.0276 20.8916 20.8539 21.2325C20.7011 21.5324 20.4573 21.7762 20.1574 21.929C19.8165 22.1027 19.3702 22.1027 18.4776 22.1027H15.1513C14.2587 22.1027 13.8124 22.1027 13.4715 21.929C13.1716 21.7762 12.9278 21.5324 12.775 21.2325C12.7396 21.1631 12.7114 21.0893 12.689 21.0082Z" fill="white"/>
</svg>
