<svg width="36" height="36" viewBox="0 0 36 36" fill="none" xmlns="http://www.w3.org/2000/svg">
<path fill-rule="evenodd" clip-rule="evenodd" d="M18.1297 3C9.917 3 3.25932 9.65768 3.25932 17.8703C3.25932 19.6372 3.56797 21.3346 4.13528 22.9097C4.4758 23.8552 4.57387 24.7839 4.34499 25.6014L3.08741 30.0927C2.60639 31.8106 4.18936 33.3936 5.90727 32.9126L10.3986 31.655C11.2161 31.4261 12.1448 31.5242 13.0903 31.8647C14.6654 32.432 16.3628 32.7407 18.1297 32.7407C26.3423 32.7407 33 26.083 33 17.8703C33 9.65768 26.3423 3 18.1297 3ZM15.2157 11.5105C14.6716 11.9337 14.1719 12.7393 14.1719 14.4388C14.1719 14.9911 13.7242 15.4388 13.1719 15.4388C12.6196 15.4388 12.1719 14.9911 12.1719 14.4388C12.1719 12.3253 12.816 10.8432 13.9878 9.93183C15.1087 9.05998 16.5258 8.86328 17.7474 8.86328C18.9689 8.86328 20.386 9.05998 21.507 9.93183C22.6787 10.8432 23.3229 12.3253 23.3229 14.4388C23.3229 16.8692 21.7947 18.0867 20.6351 18.9564C19.3617 19.9114 18.7474 20.3725 18.7474 21.302C18.7474 21.8543 18.2996 22.302 17.7474 22.302C17.1951 22.302 16.7474 21.8543 16.7474 21.302C16.7474 19.3375 18.1831 18.2798 19.2009 17.5299C19.2819 17.4702 19.3603 17.4125 19.4351 17.3564C20.5633 16.5102 21.3229 15.8213 21.3229 14.4388C21.3229 12.7393 20.8231 11.9337 20.2791 11.5105C19.6842 11.0479 18.8136 10.8633 17.7474 10.8633C16.6812 10.8633 15.8105 11.0479 15.2157 11.5105ZM19.273 25.1149C19.273 25.9572 18.5901 26.6401 17.7478 26.6401C16.9055 26.6401 16.2227 25.9572 16.2227 25.1149C16.2227 24.2726 16.9055 23.5897 17.7478 23.5897C18.5901 23.5897 19.273 24.2726 19.273 25.1149Z" fill="white"/>
</svg>
