<svg width="36" height="36" viewBox="0 0 36 36" fill="none" xmlns="http://www.w3.org/2000/svg">
<path fill-rule="evenodd" clip-rule="evenodd" d="M5.47042 17.8898C5.47042 10.909 11.1294 5.25 18.1102 5.25C25.091 5.25 30.75 10.909 30.75 17.8898C30.75 24.8706 25.091 30.5296 18.1102 30.5296C16.6084 30.5296 15.1656 30.2672 13.8267 29.785C13.023 29.4956 12.2336 29.4122 11.5389 29.6068L7.72118 30.6757C6.26096 31.0846 4.91544 29.739 5.3243 28.2788L6.39325 24.4612C6.58779 23.7664 6.50443 22.977 6.21498 22.1733C5.73278 20.8344 5.47042 19.3917 5.47042 17.8898ZM14.2813 13.2929C13.8908 12.9024 13.2576 12.9024 12.8671 13.2929C12.4766 13.6834 12.4766 14.3166 12.8671 14.7071L16.3733 18.2133L12.8671 21.7194C12.4766 22.1099 12.4766 22.7431 12.8671 23.1336C13.2576 23.5242 13.8908 23.5242 14.2813 23.1336L17.7875 19.6275L21.2936 23.1336C21.6842 23.5242 22.3173 23.5242 22.7079 23.1336C23.0984 22.7431 23.0984 22.1099 22.7079 21.7194L19.2017 18.2133L22.7079 14.7071C23.0984 14.3166 23.0984 13.6834 22.7079 13.2929C22.3173 12.9024 21.6842 12.9024 21.2936 13.2929L17.7875 16.799L14.2813 13.2929Z" fill="white"/>
</svg>
