<svg width="36" height="36" viewBox="0 0 36 36" fill="none" xmlns="http://www.w3.org/2000/svg">
<path d="M23.6798 20.1744C24.7643 20.1744 25.6435 19.2953 25.6435 18.2108C25.6435 17.1263 24.7643 16.2471 23.6798 16.2471C22.5952 16.2471 21.716 17.1263 21.716 18.2108C21.716 19.2953 22.5952 20.1744 23.6798 20.1744Z" fill="white"/>
<path d="M19.7533 18.2108C19.7533 19.2953 18.8741 20.1744 17.7895 20.1744C16.705 20.1744 15.8258 19.2953 15.8258 18.2108C15.8258 17.1263 16.705 16.2471 17.7895 16.2471C18.8741 16.2471 19.7533 17.1263 19.7533 18.2108Z" fill="white"/>
<path d="M11.8976 20.1744C12.9822 20.1744 13.8614 19.2953 13.8614 18.2108C13.8614 17.1263 12.9822 16.2471 11.8976 16.2471C10.8131 16.2471 9.93391 17.1263 9.93391 18.2108C9.93391 19.2953 10.8131 20.1744 11.8976 20.1744Z" fill="white"/>
<path fill-rule="evenodd" clip-rule="evenodd" d="M18.1159 5.10156C11.0564 5.10156 5.33351 10.8241 5.33351 17.8834C5.33351 19.4175 5.60423 20.8906 6.10136 22.2561C6.38567 23.037 6.46517 23.8033 6.27694 24.4755L5.17436 28.4131C4.76303 29.8821 6.11661 31.2357 7.58559 30.8244L11.5236 29.7218C12.1958 29.5336 12.962 29.6131 13.7428 29.8974C15.1084 30.3945 16.5816 30.6652 18.1159 30.6652C25.1753 30.6652 30.8983 24.9427 30.8983 17.8834C30.8983 10.8241 25.1753 5.10156 18.1159 5.10156ZM7.33351 17.8834C7.33351 11.9288 12.1609 7.10156 18.1159 7.10156C24.0709 7.10156 28.8983 11.9288 28.8983 17.8834C28.8983 23.838 24.0709 28.6652 18.1159 28.6652C16.8184 28.6652 15.5765 28.4365 14.427 28.018C13.3874 27.6396 12.1778 27.4617 10.9844 27.7959L7.12125 28.8775L8.20286 25.0148C8.53705 23.8213 8.35919 22.6116 7.98069 21.5719C7.56223 20.4225 7.33351 19.1808 7.33351 17.8834Z" fill="white"/>
</svg>
