<svg width="36" height="36" viewBox="0 0 36 36" fill="none" xmlns="http://www.w3.org/2000/svg">
<path fill-rule="evenodd" clip-rule="evenodd" d="M18.1293 3C9.91683 3 3.25931 9.65768 3.25931 17.8703C3.25931 19.6372 3.56796 21.3346 4.13525 22.9097C4.47577 23.8552 4.57383 24.7839 4.34496 25.6014L3.08741 30.0927C2.6064 31.8106 4.18934 33.3936 5.9072 32.9126L10.3985 31.655C11.2159 31.4261 12.1445 31.5242 13.09 31.8647C14.6652 32.432 16.3624 32.7407 18.1293 32.7407C26.3418 32.7407 32.9993 26.083 32.9993 17.8703C32.9993 9.65768 26.3418 3 18.1293 3ZM11.6485 15.1506C11.6485 14.1005 11.6485 13.5754 11.8529 13.1744C12.0327 12.8216 12.3195 12.5347 12.6723 12.355C13.0734 12.1506 13.5984 12.1506 14.6485 12.1506H18.5619C19.612 12.1506 20.137 12.1506 20.5381 12.355C20.8909 12.5347 21.1777 12.8216 21.3575 13.1744C21.5619 13.5754 21.5619 14.1005 21.5619 15.1506V15.9465L24.1521 13.8527C24.6426 13.4563 25.3736 13.8054 25.3736 14.436V20.5406C25.3736 21.1712 24.6426 21.5203 24.1521 21.1239L21.5619 19.0301V19.8267C21.5619 20.8768 21.5619 21.4019 21.3575 21.803C21.1777 22.1558 20.8909 22.4426 20.5381 22.6224C20.137 22.8267 19.612 22.8267 18.5619 22.8267H14.6485C13.5984 22.8267 13.0734 22.8267 12.6723 22.6224C12.3195 22.4426 12.0327 22.1558 11.8529 21.803C11.6485 21.4019 11.6485 20.8768 11.6485 19.8267V15.1506Z" fill="white"/>
</svg>
