<svg width="36" height="36" viewBox="0 0 36 36" fill="none" xmlns="http://www.w3.org/2000/svg">
<path d="M7.7802 17.6409C7.7802 11.7986 12.5163 7.0625 18.3586 7.0625C24.0076 7.0625 28.6224 11.4904 28.9215 17.0648C29.6301 17.271 30.3044 17.5575 30.934 17.9139C30.936 17.8231 30.937 17.7321 30.937 17.6409C30.937 10.694 25.3054 5.0625 18.3586 5.0625C11.4117 5.0625 5.7802 10.694 5.7802 17.6409C5.7802 19.1406 6.04309 20.5811 6.52616 21.9174C6.8094 22.701 6.8891 23.4675 6.70093 24.1395L5.63236 27.9558C5.22105 29.4248 6.57464 30.7784 8.04362 30.3671L11.86 29.2985C12.532 29.1104 13.2985 29.1901 14.082 29.4733C15.206 29.8796 16.4036 30.1301 17.6482 30.1995C17.3433 29.546 17.1105 28.852 16.9603 28.1278C16.1984 28.0273 15.4627 27.8457 14.7619 27.5924C13.7235 27.217 12.5143 27.0384 11.3207 27.3726L7.57926 28.4202L8.62686 24.6788C8.96107 23.4851 8.78244 22.276 8.40704 21.2375C8.00165 20.1161 7.7802 18.9054 7.7802 17.6409Z" fill="white"/>
<path fill-rule="evenodd" clip-rule="evenodd" d="M26.4998 34.9996C31.1942 34.9996 34.9998 31.194 34.9998 26.4996C34.9998 21.8052 31.1942 17.9996 26.4998 17.9996C21.8054 17.9996 17.9998 21.8052 17.9998 26.4996C17.9998 31.194 21.8054 34.9996 26.4998 34.9996ZM29.9769 23.0217C29.9769 24.9422 28.4201 26.499 26.4996 26.499C24.5792 26.499 23.0223 24.9422 23.0223 23.0217C23.0223 21.1013 24.5792 19.5444 26.4996 19.5444C28.4201 19.5444 29.9769 21.1013 29.9769 23.0217ZM32.3385 30.2803C31.0989 32.1903 28.9473 33.4538 26.5006 33.4538C24.0537 33.4538 21.902 32.1901 20.6624 30.2798C22.4011 29.3468 24.3888 28.8176 26.5 28.8176C28.6117 28.8176 30.5996 29.347 32.3385 30.2803Z" fill="white"/>
</svg>
