<svg width="36" height="36" viewBox="0 0 36 36" fill="none" xmlns="http://www.w3.org/2000/svg">
<path fill-rule="evenodd" clip-rule="evenodd" d="M5.27496 17.861C5.27496 10.7581 11.0333 5 18.1366 5C25.2399 5 30.9982 10.7581 30.9982 17.861C30.9982 24.9639 25.2399 30.722 18.1366 30.722C16.5892 30.722 15.1078 30.4492 13.7363 29.9499C12.5361 29.513 11.1522 29.3124 9.79419 29.6926L5.16119 30.9898C5.12983 30.9986 5.10978 30.9961 5.09532 30.9921C5.07776 30.9871 5.05746 30.9762 5.0391 30.9578C5.02074 30.9395 5.0098 30.9192 5.00486 30.9016C5.00079 30.8871 4.99834 30.8671 5.00712 30.8357L6.30428 26.2033C6.68456 24.8451 6.48399 23.4611 6.047 22.2608C5.54775 20.8895 5.27496 19.4082 5.27496 17.861ZM18.1366 3C9.92878 3 3.27496 9.65345 3.27496 17.861C3.27496 19.6449 3.58976 21.3576 4.16768 22.945C4.51046 23.8866 4.61268 24.8271 4.37835 25.664L3.0812 30.2965C2.63438 31.8921 4.10472 33.3625 5.70043 32.9158L10.3334 31.6186C11.1702 31.3843 12.1107 31.4865 13.0522 31.8292C14.6397 32.4072 16.3525 32.722 18.1366 32.722C26.3444 32.722 32.9982 26.0685 32.9982 17.861C32.9982 9.65345 26.3444 3 18.1366 3ZM24.6823 20.5563C25.9583 20.5563 26.9926 19.522 26.9926 18.2461C26.9926 16.9703 25.9583 15.936 24.6823 15.936C23.4064 15.936 22.3721 16.9703 22.3721 18.2461C22.3721 19.522 23.4064 20.5563 24.6823 20.5563ZM20.0629 18.2461C20.0629 19.522 19.0286 20.5563 17.7526 20.5563C16.4767 20.5563 15.4424 19.522 15.4424 18.2461C15.4424 16.9703 16.4767 15.936 17.7526 15.936C19.0286 15.936 20.0629 16.9703 20.0629 18.2461ZM10.821 20.5563C12.0969 20.5563 13.1313 19.522 13.1313 18.2461C13.1313 16.9703 12.0969 15.936 10.821 15.936C9.54508 15.936 8.51073 16.9703 8.51073 18.2461C8.51073 19.522 9.54508 20.5563 10.821 20.5563Z" fill="white"/>
</svg>
