<svg width="36" height="36" viewBox="0 0 36 36" fill="none" xmlns="http://www.w3.org/2000/svg">
<path d="M17.7864 11.7242C18.4768 11.7242 19.0364 12.2839 19.0364 12.9742V18.2106C19.0364 18.9009 18.4768 19.4606 17.7864 19.4606C17.0961 19.4606 16.5364 18.9009 16.5364 18.2106V12.9742C16.5364 12.2839 17.0961 11.7242 17.7864 11.7242Z" fill="white"/>
<path d="M19.0949 23.447C19.0949 24.17 18.5088 24.7561 17.7857 24.7561C17.0627 24.7561 16.4766 24.17 16.4766 23.447C16.4766 22.724 17.0627 22.1379 17.7857 22.1379C18.5088 22.1379 19.0949 22.724 19.0949 23.447Z" fill="white"/>
<path fill-rule="evenodd" clip-rule="evenodd" d="M18.1159 5.10156C11.0564 5.10156 5.33351 10.8241 5.33351 17.8834C5.33351 19.4175 5.60423 20.8906 6.10136 22.2561C6.38567 23.037 6.46517 23.8033 6.27694 24.4755L5.17436 28.4131C4.76303 29.8821 6.11661 31.2357 7.58559 30.8244L11.5236 29.7218C12.1958 29.5336 12.962 29.6131 13.7428 29.8974C15.1084 30.3945 16.5816 30.6652 18.1159 30.6652C25.1753 30.6652 30.8983 24.9427 30.8983 17.8834C30.8983 10.8241 25.1753 5.10156 18.1159 5.10156ZM7.33351 17.8834C7.33351 11.9288 12.1609 7.10156 18.1159 7.10156C24.0709 7.10156 28.8983 11.9288 28.8983 17.8834C28.8983 23.838 24.0709 28.6652 18.1159 28.6652C16.8184 28.6652 15.5765 28.4365 14.427 28.018C13.3874 27.6396 12.1778 27.4617 10.9844 27.7959L7.12125 28.8775L8.20286 25.0148C8.53705 23.8213 8.35919 22.6116 7.98069 21.5719C7.56223 20.4225 7.33351 19.1808 7.33351 17.8834Z" fill="white"/>
</svg>
