<svg width="36" height="36" viewBox="0 0 36 36" fill="none" xmlns="http://www.w3.org/2000/svg">
<path fill-rule="evenodd" clip-rule="evenodd" d="M5.48822 17.2131H16.6664L13.8361 14.3829C13.4456 13.9924 13.4456 13.3592 13.8361 12.9687C14.2266 12.5782 14.8598 12.5782 15.2503 12.9687L19.7877 17.506C20.1782 17.8966 20.1782 18.5297 19.7877 18.9202L15.2503 23.4576C14.8598 23.8481 14.2266 23.8481 13.8361 23.4576C13.4456 23.0671 13.4456 22.4339 13.8361 22.0434L16.6664 19.2131H5.53894C5.64595 20.2408 5.87621 21.2326 6.21498 22.1733C6.50443 22.977 6.58779 23.7664 6.39325 24.4612L5.3243 28.2788C4.91544 29.739 6.26096 31.0846 7.72118 30.6757L11.5389 29.6068C12.2336 29.4122 13.023 29.4956 13.8267 29.785C15.1656 30.2672 16.6084 30.5296 18.1102 30.5296C25.091 30.5296 30.75 24.8706 30.75 17.8898C30.75 10.909 25.091 5.25 18.1102 5.25C11.3564 5.25 5.83985 10.547 5.48822 17.2131Z" fill="white"/>
</svg>
