<svg width="36" height="36" viewBox="0 0 36 36" fill="none" xmlns="http://www.w3.org/2000/svg">
<path fill-rule="evenodd" clip-rule="evenodd" d="M18.0656 4.12537C18.0443 4.12512 18.0229 4.125 18.0015 4.125C14.9772 4.125 12.5255 6.5767 12.5255 9.60103V18.8147C12.5255 21.839 14.9772 24.2907 18.0015 24.2907C20.9525 24.2907 23.3583 21.9565 23.4733 19.0338C22.7713 18.8111 22.1029 18.5131 21.4776 18.1492V18.8147C21.4776 20.7344 19.9213 22.2907 18.0015 22.2907C16.0818 22.2907 14.5255 20.7344 14.5255 18.8147V9.60103C14.5255 8.01619 15.5861 6.67908 17.0363 6.26077C17.2953 5.50395 17.6425 4.78806 18.0656 4.12537ZM25.9816 19.4868C25.9328 19.5843 25.8992 19.6915 25.8844 19.8058C25.6316 21.7538 24.6898 23.5392 23.2384 24.8307C21.7873 26.1218 19.9256 26.8318 18.0006 26.8318C16.0756 26.8318 14.2139 26.1218 12.7628 24.8307C11.3114 23.5392 10.3696 21.7538 10.1168 19.8058C10.0457 19.2581 9.54413 18.8717 8.99643 18.9428C8.44874 19.0138 8.06236 19.5154 8.13342 20.0631C8.44762 22.4845 9.61903 24.7105 11.4333 26.3248C12.9964 27.7156 14.9447 28.5704 17.0006 28.7807V32.3731C17.0006 32.9254 17.4483 33.3731 18.0006 33.3731C18.5529 33.3731 19.0006 32.9254 19.0006 32.3731V28.7807C21.0565 28.5704 23.0048 27.7156 24.5678 26.3248C26.3822 24.7105 27.5536 22.4845 27.8678 20.0631C27.8977 19.8325 27.8465 19.6099 27.7362 19.4243C27.3312 19.4743 26.9186 19.5 26.5 19.5C26.3261 19.5 26.1533 19.4956 25.9816 19.4868Z" fill="white"/>
<path fill-rule="evenodd" clip-rule="evenodd" d="M26.5 18C31.1944 18 35 14.1944 35 9.5C35 4.80558 31.1944 1 26.5 1C21.8056 1 18 4.80558 18 9.5C18 14.1944 21.8056 18 26.5 18ZM23.7521 5.69127C23.4592 5.39837 22.9843 5.39837 22.6914 5.69127C22.3985 5.98416 22.3985 6.45903 22.6914 6.75193L25.4395 9.5L22.6914 12.2481C22.3985 12.541 22.3985 13.0158 22.6914 13.3087C22.9843 13.6016 23.4592 13.6016 23.7521 13.3087L26.5002 10.5607L29.2482 13.3087C29.5411 13.6016 30.016 13.6016 30.3089 13.3087C30.6018 13.0158 30.6018 12.541 30.3089 12.2481L27.5608 9.5L30.3089 6.75193C30.6018 6.45903 30.6018 5.98416 30.3089 5.69127C30.016 5.39837 29.5411 5.39837 29.2482 5.69127L26.5002 8.43934L23.7521 5.69127Z" fill="white"/>
</svg>
