<svg width="36" height="36" viewBox="0 0 36 36" fill="none" xmlns="http://www.w3.org/2000/svg">
<path fill-rule="evenodd" clip-rule="evenodd" d="M18.0777 4C15.1936 4 12.8556 6.54075 12.8556 9.67493V18.7548C12.8556 21.889 15.1936 24.4297 18.0777 24.4297C20.9617 24.4297 23.2997 21.889 23.2997 18.7548V9.67493C23.2997 6.54075 20.9617 4 18.0777 4ZM10.1168 19.8107C10.0457 19.263 9.54408 18.8767 8.99639 18.9478C8.4487 19.0189 8.06234 19.5205 8.13343 20.0682C8.44765 22.489 9.61912 24.7142 11.4335 26.3281C12.9965 27.7184 14.9448 28.573 17.0006 28.7832V32.374C17.0006 32.9263 17.4483 33.374 18.0006 33.374C18.5529 33.374 19.0006 32.9263 19.0006 32.374V28.7832C21.0564 28.573 23.0046 27.7184 24.5677 26.3281C26.3821 24.7142 27.5535 22.489 27.8677 20.0682C27.9388 19.5205 27.5525 19.0189 27.0048 18.9478C26.4571 18.8767 25.9555 19.263 25.8844 19.8107C25.6316 21.758 24.6899 23.5427 23.2385 24.8337C21.7874 26.1244 19.9257 26.8342 18.0006 26.8342C16.0755 26.8342 14.2138 26.1244 12.7627 24.8337C11.3113 23.5427 10.3695 21.758 10.1168 19.8107Z" fill="white"/>
</svg>
