<svg width="36" height="36" viewBox="0 0 36 36" fill="none" xmlns="http://www.w3.org/2000/svg">
<path d="M27.0048 17.9424C27.5523 18.0136 27.9381 18.5159 27.8671 19.0635C27.5528 21.4847 26.3815 23.7109 24.5673 25.3252C23.0042 26.7159 21.0557 27.57 18.9999 27.7803V31.373C18.9999 31.9253 18.5522 32.373 17.9999 32.373C17.4477 32.3729 16.9999 31.9252 16.9999 31.373V27.7803C15.3337 27.6098 13.7383 27.0161 12.3612 26.0566L13.8036 24.6143C15.057 25.4058 16.5094 25.832 17.9999 25.832C19.9249 25.832 21.7871 25.1222 23.2382 23.8311C24.6896 22.5396 25.6309 20.7537 25.8837 18.8057C25.9548 18.258 26.4571 17.8713 27.0048 17.9424Z" fill="white"/>
<path fill-rule="evenodd" clip-rule="evenodd" d="M18.0009 3.125C21.0251 3.125 23.4772 5.57646 23.4774 8.60059V10.3516L29.7489 4.08008C30.1395 3.68972 30.7725 3.68961 31.163 4.08008C31.5533 4.47056 31.5533 5.10366 31.163 5.49414L5.70693 30.9502C5.31646 31.3406 4.6834 31.3405 4.29287 30.9502C3.90236 30.5597 3.90239 29.9267 4.29287 29.5361L10.0351 23.793C9.01731 22.4162 8.35676 20.7897 8.13272 19.0635C8.06165 18.5158 8.4483 18.0135 8.996 17.9424C9.54363 17.8713 10.045 18.2581 10.1161 18.8057C10.2832 20.0931 10.7515 21.3096 11.4687 22.3594L13.2646 20.5635C12.7947 19.7555 12.5253 18.8164 12.5253 17.8145V8.60059C12.5255 5.57654 14.9768 3.12513 18.0009 3.125ZM18.0009 5.125C16.0814 5.12513 14.5255 6.68111 14.5253 8.60059V17.8145C14.5253 18.2569 14.608 18.6801 14.7587 19.0693L21.4774 12.3516V8.60059C21.4772 6.68103 19.9205 5.125 18.0009 5.125Z" fill="white"/>
<path d="M23.4774 17.8145C23.4774 20.8388 21.0252 23.291 18.0009 23.291C17.1611 23.291 16.3654 23.1016 15.6542 22.7637L17.2157 21.2021C17.4679 21.2604 17.731 21.291 18.0009 21.291C19.9206 21.291 21.4774 19.7342 21.4774 17.8145V16.9404L23.4774 14.9404V17.8145Z" fill="white"/>
</svg>
