<svg width="36" height="36" viewBox="0 0 36 36" fill="none" xmlns="http://www.w3.org/2000/svg">
<path fill-rule="evenodd" clip-rule="evenodd" d="M12.5253 8.60103C12.5253 5.5767 14.977 3.125 18.0013 3.125C21.0257 3.125 23.4774 5.5767 23.4774 8.60103V12.1121L21.4774 14.1121V8.60103C21.4774 6.68127 19.9211 5.125 18.0013 5.125C16.0816 5.125 14.5253 6.68127 14.5253 8.60103V17.8147C14.5253 18.7169 14.8691 19.5389 15.4328 20.1567L14.0176 21.5719C13.0924 20.5913 12.5253 19.2692 12.5253 17.8147V8.60103ZM12.2537 23.3357C11.0913 22.1005 10.3385 20.5158 10.1166 18.8058C10.0455 18.2581 9.54393 17.8717 8.99624 17.9428C8.44855 18.0138 8.06216 18.5154 8.13323 19.0631C8.41167 21.209 9.3633 23.2013 10.839 24.7505L12.2537 23.3357ZM12.3611 26.0568L13.8035 24.6144C15.057 25.406 16.5097 25.8318 18.0004 25.8318C19.9254 25.8318 21.7871 25.1218 23.2382 23.8307C24.6896 22.5392 25.6314 20.7538 25.8842 18.8058C25.9553 18.2581 26.4569 17.8717 27.0046 17.9428C27.5522 18.0138 27.9386 18.5154 27.8676 19.0631C27.5534 21.4845 26.382 23.7105 24.5676 25.3248C23.0046 26.7156 21.0563 27.5704 19.0004 27.7807V31.3731C19.0004 31.9254 18.5527 32.3731 18.0004 32.3731C17.4481 32.3731 17.0004 31.9254 17.0004 31.3731V27.7807C15.334 27.6103 13.7383 27.0164 12.3611 26.0568ZM15.6543 22.7636L17.2163 21.2017C17.4685 21.2599 17.7313 21.2907 18.0013 21.2907C19.9211 21.2907 21.4774 19.7344 21.4774 17.8147V16.9405L23.4774 14.9405V17.8147C23.4774 20.839 21.0257 23.2907 18.0013 23.2907C17.1614 23.2907 16.3656 23.1016 15.6543 22.7636Z" fill="white"/>
<path fill-rule="evenodd" clip-rule="evenodd" d="M31.163 4.08C31.5535 4.47053 31.5535 5.10369 31.163 5.49422L5.70711 30.9501C5.31658 31.3406 4.68342 31.3406 4.29289 30.9501C3.90237 30.5595 3.90237 29.9264 4.29289 29.5358L29.7487 4.08C30.1393 3.68948 30.7724 3.68948 31.163 4.08Z" fill="white"/>
</svg>
