<svg width="36" height="36" viewBox="0 0 36 36" fill="none" xmlns="http://www.w3.org/2000/svg">
<path fill-rule="evenodd" clip-rule="evenodd" d="M18.0015 4.125C14.9772 4.125 12.5255 6.5767 12.5255 9.60103V18.8147C12.5255 21.839 14.9772 24.2907 18.0015 24.2907C21.0259 24.2907 23.4776 21.839 23.4776 18.8147V9.60103C23.4776 6.5767 21.0259 4.125 18.0015 4.125ZM14.5255 9.60103C14.5255 7.68127 16.0818 6.125 18.0015 6.125C19.9213 6.125 21.4776 7.68127 21.4776 9.60103V18.8147C21.4776 20.7344 19.9213 22.2907 18.0015 22.2907C16.0818 22.2907 14.5255 20.7344 14.5255 18.8147V9.60103ZM10.1168 19.8058C10.0457 19.2581 9.54413 18.8717 8.99643 18.9428C8.44874 19.0138 8.06236 19.5154 8.13342 20.0631C8.44762 22.4845 9.61903 24.7105 11.4333 26.3248C12.9964 27.7156 14.9447 28.5704 17.0006 28.7807V32.3731C17.0006 32.9254 17.4483 33.3731 18.0006 33.3731C18.5529 33.3731 19.0006 32.9254 19.0006 32.3731V28.7807C21.0565 28.5704 23.0048 27.7156 24.5678 26.3248C26.3822 24.7105 27.5536 22.4845 27.8678 20.0631C27.9388 19.5154 27.5524 19.0138 27.0047 18.9428C26.4571 18.8717 25.9554 19.2581 25.8844 19.8058C25.6316 21.7538 24.6898 23.5392 23.2384 24.8307C21.7873 26.1218 19.9256 26.8318 18.0006 26.8318C16.0756 26.8318 14.2139 26.1218 12.7628 24.8307C11.3114 23.5392 10.3696 21.7538 10.1168 19.8058Z" fill="white"/>
</svg>
