<svg width="36" height="36" viewBox="0 0 36 36" fill="none" xmlns="http://www.w3.org/2000/svg">
<path d="M27.0043 18.9491C27.552 19.0202 27.9386 19.5225 27.8675 20.0702C27.5533 22.4908 26.382 24.7162 24.5677 26.33C23.0047 27.7203 21.0561 28.5748 19.0004 28.785V32.3758C19.0003 32.9281 18.5526 33.3758 18.0004 33.3758C17.4482 33.3758 17.0004 32.928 17.0004 32.3758V28.785C15.3334 28.6145 13.7372 28.0203 12.3597 27.0604L13.8021 25.618C15.0559 26.41 16.5091 26.8358 18.0004 26.8358C19.9255 26.8358 21.7876 26.1265 23.2386 24.8358C24.6901 23.5448 25.6314 21.7596 25.8841 19.8124C25.9552 19.2649 26.4568 18.8783 27.0043 18.9491Z" fill="white"/>
<path d="M29.7494 4.0819C30.1399 3.69148 30.773 3.69141 31.1634 4.0819C31.5537 4.47241 31.5538 5.10551 31.1634 5.49597L5.70739 30.952C5.31694 31.3424 4.68384 31.3423 4.29333 30.952C3.90284 30.5615 3.90291 29.9285 4.29333 29.538L9.62731 24.203C8.84065 22.9624 8.3257 21.5531 8.13317 20.0702C8.06208 19.5225 8.44876 19.0202 8.99645 18.9491C9.54404 18.8781 10.0455 19.2648 10.1166 19.8124C10.2517 20.8531 10.585 21.8467 11.0863 22.744L13.1605 20.6698C12.9635 20.072 12.8558 19.4281 12.8558 18.7567V9.67663C12.8558 6.54249 15.1935 4.00188 18.0775 4.00183C20.9616 4.00183 23.2992 6.54245 23.2992 9.67663V10.5321L29.7494 4.0819Z" fill="white"/>
<path d="M23.2992 18.7567C23.2991 21.8908 20.9615 24.4315 18.0775 24.4315C17.198 24.4315 16.3691 24.1955 15.642 23.7782L23.2992 16.12V18.7567Z" fill="white"/>
</svg>
