<svg width="36" height="36" viewBox="0 0 36 36" fill="none" xmlns="http://www.w3.org/2000/svg">
<path d="M16.5 3.5C18.2949 3.5 19.75 4.95507 19.75 6.75V10.2539C23.7971 10.3509 27.9628 12.7901 30.1289 16.7725C32.3503 20.8568 31.8837 26.0597 28.459 30.5H31.5C32.0523 30.5 32.5 30.9477 32.5 31.5C32.5 32.0523 32.0523 32.5 31.5 32.5H4.5C3.94772 32.5 3.5 32.0523 3.5 31.5C3.5 30.9477 3.94772 30.5 4.5 30.5H25.8262C29.808 26.3192 30.3467 21.3598 28.3711 17.7275C26.5485 14.377 23.0529 12.3527 19.75 12.2549V18.75C19.75 20.5449 18.2949 22 16.5 22H12.75C10.9551 22 9.5 20.5449 9.5 18.75V6.75C9.5 4.95507 10.9551 3.5 12.75 3.5H16.5Z" fill="white"/>
<path d="M18.458 24.875C19.0103 24.875 19.458 25.3227 19.458 25.875C19.458 26.4273 19.0103 26.875 18.458 26.875H10.79C10.2378 26.875 9.79004 26.4273 9.79004 25.875C9.79004 25.3227 10.2378 24.875 10.79 24.875H18.458Z" fill="white"/>
</svg>
