<svg width="36" height="36" viewBox="0 0 36 36" fill="none" xmlns="http://www.w3.org/2000/svg">
<path fill-rule="evenodd" clip-rule="evenodd" d="M28.5943 8C27.2684 8 26.1895 9.07809 26.1895 10.413C26.1895 11.748 27.2684 12.8261 28.5943 12.8261C29.9202 12.8261 30.9992 11.748 30.9992 10.413C30.9992 9.07809 29.9202 8 28.5943 8ZM20.248 11.4092H24.3022C24.7528 13.3653 26.5018 14.8261 28.5943 14.8261C31.0293 14.8261 32.9992 12.848 32.9992 10.413C32.9992 7.97804 31.0293 6 28.5943 6C26.5046 6 24.7574 7.45689 24.304 9.40918H20.248C18.4531 9.40918 16.998 10.8643 16.998 12.6592V16.998H11.6961C11.2441 15.0438 9.49601 13.585 7.40487 13.585C4.96987 13.585 3 15.563 3 17.998C3 20.433 4.96987 22.411 7.40487 22.411C9.49597 22.411 11.244 20.9523 11.6961 18.998H16.998V23.3342C16.998 25.1291 18.4531 26.5842 20.248 26.5842H24.3029C24.7547 28.5388 26.503 29.9979 28.5943 29.9979C31.0293 29.9979 32.9992 28.0199 32.9992 25.5849C32.9992 23.1499 31.0293 21.1719 28.5943 21.1719C26.5034 21.1719 24.7555 22.6303 24.3032 24.5842H20.248C19.5577 24.5842 18.998 24.0246 18.998 23.3342V12.6592C18.998 11.9688 19.5577 11.4092 20.248 11.4092ZM5 17.998C5 16.6631 6.07895 15.585 7.40487 15.585C8.73078 15.585 9.80973 16.6631 9.80973 17.998C9.80973 19.3329 8.73078 20.411 7.40487 20.411C6.07895 20.411 5 19.3329 5 17.998ZM26.1895 25.5849C26.1895 24.25 27.2684 23.1719 28.5943 23.1719C29.9202 23.1719 30.9992 24.25 30.9992 25.5849C30.9992 26.9199 29.9202 27.9979 28.5943 27.9979C27.2684 27.9979 26.1895 26.9199 26.1895 25.5849Z" fill="white"/>
</svg>
