<svg width="36" height="36" viewBox="0 0 36 36" fill="none" xmlns="http://www.w3.org/2000/svg">
<path fill-rule="evenodd" clip-rule="evenodd" d="M5.81666 14.0008C5.80133 14.0011 5.78713 14.0013 5.77416 14.0014L3 14.0014V22H5.68074V17.2828H5.8605L7.35488 22H9.37179L10.8662 17.2863H11.0459V22H13.7267V14.0014L11.0965 14.0014C11.0761 14.0014 11.0539 14.0011 11.03 14.0008C10.6554 13.9957 9.88293 13.9854 9.56242 15.0429C9.36323 15.7001 8.99725 16.9284 8.46449 18.7278H8.26217C7.76539 17.0211 7.40336 15.7927 7.17609 15.0429C6.85502 13.9835 6.11817 13.9958 5.81666 14.0008ZM17.5761 18.7186V14.0014H14.8394V22H17.4336C17.4336 22 18.2213 21.9301 18.5741 21.1617L20.3563 17.2828H20.5701V22H23.3068V14.0014H20.7127C20.7127 14.0014 19.9606 14.0678 19.6078 14.8397L17.79 18.7186H17.5761ZM29.8583 19.6173C31.1856 19.6173 32.3844 18.8599 32.7662 17.8024H24.3859V22H26.9883V19.6173H29.8583ZM24.25 14.0015H29.9844C32.1909 14.0015 33.2574 15.8267 32.9476 17.3067H27.579C25.9551 17.3067 24.3865 15.7823 24.25 14.0015Z" fill="white"/>
</svg>
