<svg width="36" height="36" viewBox="0 0 36 36" fill="none" xmlns="http://www.w3.org/2000/svg">
<path fill-rule="evenodd" clip-rule="evenodd" d="M18.9004 3H14.4C12.5098 3 11.5647 3 10.8428 3.36785C10.2077 3.69143 9.69143 4.20774 9.36785 4.84278C9 5.56473 9 6.50982 9 8.4V27.6C9 29.4902 9 30.4353 9.36785 31.1572C9.69143 31.7923 10.2077 32.3086 10.8428 32.6321C11.5647 33 12.5098 33 14.4 33H21.6C23.4902 33 24.4353 33 25.1572 32.6321C25.7923 32.3086 26.3086 31.7923 26.6321 31.1572C27 30.4353 27 29.4902 27 27.6V19.4877C26.8344 19.4959 26.6677 19.5 26.5 19.5C20.9772 19.5 16.5 15.0228 16.5 9.5C16.5 9.29009 16.5065 9.0817 16.5192 8.875H16.125C15.5727 8.875 15.125 8.42728 15.125 7.875C15.125 7.32272 15.5727 6.875 16.125 6.875H16.8481C17.2412 5.42626 17.9517 4.10816 18.9004 3Z" fill="white"/>
<path fill-rule="evenodd" clip-rule="evenodd" d="M35 9.5C35 14.1944 31.1944 18 26.5 18C21.8056 18 18 14.1944 18 9.5C18 4.80558 21.8056 1 26.5 1C31.1944 1 35 4.80558 35 9.5ZM22.175 9.0965C22.3179 8.56304 22.8662 8.24645 23.3997 8.38939C24.2696 8.62247 25.0382 9.13607 25.5864 9.85052C26.1347 10.565 26.4318 11.4404 26.4318 12.3409C26.4318 12.8932 25.9841 13.3409 25.4318 13.3409C24.8795 13.3409 24.4318 12.8932 24.4318 12.3409C24.4318 11.8806 24.2799 11.4332 23.9997 11.068C23.7195 10.7029 23.3267 10.4404 22.8821 10.3212C22.3486 10.1783 22.032 9.62997 22.175 9.0965ZM24.2861 4.29737C23.7526 4.15443 23.2043 4.47102 23.0613 5.00448C22.9184 5.53795 23.235 6.08628 23.7684 6.22923C25.1989 6.61251 26.4629 7.45709 27.3644 8.63197C28.2659 9.80685 28.7545 11.2464 28.7545 12.7273C28.7545 13.2796 29.2023 13.7273 29.7545 13.7273C30.3068 13.7273 30.7545 13.2796 30.7545 12.7273C30.7545 10.8061 30.1206 8.93861 28.9511 7.41444C27.7815 5.89028 26.1418 4.79461 24.2861 4.29737Z" fill="white"/>
</svg>
