<svg width="36" height="36" viewBox="0 0 36 36" fill="none" xmlns="http://www.w3.org/2000/svg">
<path fill-rule="evenodd" clip-rule="evenodd" d="M22.4363 32.9989C23.0327 32.9989 23.5399 32.9989 23.9561 32.9649C24.3931 32.9292 24.8172 32.8511 25.2223 32.6447C25.8339 32.3331 26.331 31.8359 26.6426 31.2243C26.8491 30.8192 26.9272 30.3951 26.9629 29.9581C26.9969 29.5419 26.9969 29.0348 26.9969 28.4383V7.56058C26.9969 6.96413 26.9969 6.45699 26.9629 6.04077C26.9272 5.60374 26.8491 5.17965 26.6426 4.77453C26.331 4.163 25.8339 3.66582 25.2223 3.35423C24.8172 3.14781 24.3931 3.06968 23.9561 3.03398C23.5399 2.99997 23.0328 2.99998 22.4363 3H13.5606C12.9641 2.99998 12.457 2.99997 12.0408 3.03398C11.6037 3.06968 11.1797 3.14781 10.7745 3.35423C10.163 3.66582 9.66582 4.163 9.35423 4.77453C9.14781 5.17965 9.06968 5.60374 9.03398 6.04077C8.99997 6.45699 8.99998 6.96411 9 7.56055V28.4383C8.99998 29.0348 8.99997 29.5419 9.03398 29.9581C9.06968 30.3951 9.14781 30.8192 9.35423 31.2243C9.66582 31.8359 10.163 32.3331 10.7745 32.6447C11.1797 32.8511 11.6037 32.9292 12.0408 32.9649C12.457 32.9989 12.9641 32.9989 13.5606 32.9989H22.4363ZM24.3144 30.8626C24.2382 30.9015 24.1066 30.9459 23.7932 30.9715C23.4682 30.9981 23.0434 30.9989 22.3969 30.9989H13.6C12.9534 30.9989 12.5287 30.9981 12.2036 30.9715C11.8903 30.9459 11.7587 30.9015 11.6825 30.8626C11.4473 30.7428 11.2561 30.5516 11.1362 30.3164C11.0974 30.2402 11.0529 30.1086 11.0273 29.7952C11.0008 29.4702 11 29.0454 11 28.3989V7.6C11 6.95344 11.0008 6.52866 11.0273 6.20364C11.0529 5.89029 11.0974 5.7587 11.1362 5.68251C11.2561 5.44731 11.4473 5.25609 11.6825 5.13624C11.7587 5.09743 11.8903 5.05294 12.2036 5.02734C12.5287 5.00078 12.9534 5 13.6 5H22.3969C23.0434 5 23.4682 5.00078 23.7932 5.02734C24.1066 5.05294 24.2382 5.09743 24.3144 5.13624C24.5496 5.25609 24.7408 5.44731 24.8606 5.68251C24.8994 5.7587 24.9439 5.89029 24.9695 6.20364C24.9961 6.52866 24.9969 6.95344 24.9969 7.6V28.3989C24.9969 29.0454 24.9961 29.4702 24.9695 29.7952C24.9439 30.1086 24.8994 30.2402 24.8606 30.3164C24.7408 30.5516 24.5496 30.7428 24.3144 30.8626ZM16.0926 6.78306C15.5403 6.78306 15.0926 7.23077 15.0926 7.78306C15.0926 8.33534 15.5403 8.78306 16.0926 8.78306H19.9013C20.4536 8.78306 20.9013 8.33534 20.9013 7.78306C20.9013 7.23077 20.4536 6.78306 19.9013 6.78306H16.0926Z" fill="white"/>
</svg>
