<svg width="36" height="36" viewBox="0 0 36 36" fill="none" xmlns="http://www.w3.org/2000/svg">
<path fill-rule="evenodd" clip-rule="evenodd" d="M18.9004 3H14.4C12.5098 3 11.5647 3 10.8428 3.36785C10.2077 3.69143 9.69143 4.20774 9.36785 4.84278C9 5.56473 9 6.50982 9 8.4V27.6C9 29.4902 9 30.4353 9.36785 31.1572C9.69143 31.7923 10.2077 32.3086 10.8428 32.6321C11.5647 33 12.5098 33 14.4 33H21.6C23.4902 33 24.4353 33 25.1572 32.6321C25.7923 32.3086 26.3086 31.7923 26.6321 31.1572C27 30.4353 27 29.4902 27 27.6V19.4877C26.8344 19.4959 26.6677 19.5 26.5 19.5C20.9772 19.5 16.5 15.0228 16.5 9.5C16.5 9.29009 16.5065 9.0817 16.5192 8.875H16.125C15.5727 8.875 15.125 8.42728 15.125 7.875C15.125 7.32272 15.5727 6.875 16.125 6.875H16.8481C17.2412 5.42626 17.9517 4.10816 18.9004 3Z" fill="white"/>
<path fill-rule="evenodd" clip-rule="evenodd" d="M26.5 18C31.1944 18 35 14.1944 35 9.5C35 4.80558 31.1944 1 26.5 1C21.8056 1 18 4.80558 18 9.5C18 14.1944 21.8056 18 26.5 18ZM27.2501 4.86364C27.2501 4.44942 26.9143 4.11364 26.5001 4.11364C26.0859 4.11364 25.7501 4.44942 25.7501 4.86364V8.75H21.8638C21.4496 8.75 21.1138 9.08579 21.1138 9.5C21.1138 9.91421 21.4496 10.25 21.8638 10.25H25.7501V14.1364C25.7501 14.5506 26.0859 14.8864 26.5001 14.8864C26.9143 14.8864 27.2501 14.5506 27.2501 14.1364V10.25H31.1365C31.5507 10.25 31.8865 9.91421 31.8865 9.5C31.8865 9.08579 31.5507 8.75 31.1365 8.75H27.2501V4.86364Z" fill="white"/>
</svg>
