<svg width="36" height="36" viewBox="0 0 36 36" fill="none" xmlns="http://www.w3.org/2000/svg">
<path fill-rule="evenodd" clip-rule="evenodd" d="M15.2189 4.5C14.6224 4.49998 14.1153 4.49997 13.6991 4.53398C13.2621 4.56968 12.838 4.64781 12.4329 4.85423C11.8213 5.16582 11.3242 5.66301 11.0126 6.27453C10.8062 6.67965 10.728 7.10374 10.6923 7.54078C10.6583 7.95699 10.6583 8.46413 10.6583 9.06058V26.938C10.6583 27.5345 10.6583 28.0416 10.6923 28.4578C10.728 28.8949 10.8062 29.319 11.0126 29.7241C11.3242 30.3356 11.8213 30.8328 12.4329 31.1444C12.838 31.3508 13.2621 31.4289 13.6991 31.4646C14.1153 31.4986 14.6224 31.4986 15.2189 31.4986H20.783C21.3794 31.4986 21.8866 31.4986 22.3028 31.4646C22.7398 31.4289 23.1639 31.3508 23.569 31.1444C24.1805 30.8328 24.6777 30.3356 24.9893 29.7241C25.1957 29.319 25.2738 28.8949 25.3096 28.4578C25.3436 28.0416 25.3435 27.5345 25.3435 26.938V9.0606C25.3435 8.46414 25.3436 7.957 25.3096 7.54077C25.2738 7.10374 25.1957 6.67965 24.9893 6.27453C24.6777 5.66301 24.1805 5.16582 23.569 4.85423C23.1639 4.64781 22.7398 4.56968 22.3028 4.53398C21.8865 4.49997 21.3794 4.49998 20.783 4.5H15.2189ZM13.3408 6.63624C13.417 6.59743 13.5486 6.55294 13.862 6.52734C14.187 6.50078 14.6118 6.5 15.2583 6.5H20.7435C21.3901 6.5 21.8149 6.50078 22.1399 6.52734C22.4533 6.55294 22.5848 6.59743 22.661 6.63624C22.8962 6.75609 23.0875 6.94731 23.2073 7.18251C23.2461 7.2587 23.2906 7.39029 23.3162 7.70364C23.3428 8.02866 23.3435 8.45344 23.3435 9.1V26.8986C23.3435 27.5452 23.3428 27.97 23.3162 28.295C23.2906 28.6083 23.2461 28.7399 23.2073 28.8161C23.0875 29.0513 22.8962 29.2425 22.661 29.3624C22.5848 29.4012 22.4533 29.4457 22.1399 29.4713C21.8149 29.4978 21.3901 29.4986 20.7435 29.4986H15.2583C14.6118 29.4986 14.187 29.4978 13.862 29.4713C13.5486 29.4457 13.417 29.4012 13.3408 29.3624C13.1056 29.2425 12.9144 29.0513 12.7946 28.8161C12.7558 28.7399 12.7113 28.6083 12.6857 28.295C12.6591 27.97 12.6583 27.5452 12.6583 26.8986V9.1C12.6583 8.45344 12.6591 8.02866 12.6857 7.70364C12.7113 7.39029 12.7558 7.2587 12.7946 7.18251C12.9144 6.94731 13.1056 6.75609 13.3408 6.63624ZM31.4008 10.3679C31.7884 9.97447 31.7837 9.34132 31.3903 8.9537C30.9969 8.56607 30.3638 8.57076 29.9762 8.96416L28.0482 10.9209C27.492 11.4854 27.492 12.3918 28.0482 12.9563L30.031 14.9688L28.0482 16.9812C27.492 17.5457 27.492 18.4521 28.0482 19.0166L30.031 21.029L28.0482 23.0415C27.492 23.6059 27.492 24.5124 28.0482 25.0768L29.9762 27.0336C30.3638 27.427 30.9969 27.4317 31.3903 27.0441C31.7837 26.6565 31.7884 26.0233 31.4008 25.6299L29.8531 24.0592L31.836 22.0467C32.3922 21.4822 32.3922 20.5758 31.836 20.0113L29.8531 17.9989L31.836 15.9864C32.3922 15.422 32.3922 14.5155 31.836 13.9511L29.8531 11.9386L31.4008 10.3679ZM4.61378 8.9537C4.22038 9.34132 4.2157 9.97447 4.60332 10.3679L6.15098 11.9386L4.16811 13.9511C3.61193 14.5155 3.61193 15.422 4.16811 15.9864L6.15098 17.9989L4.16811 20.0113C3.61193 20.5758 3.61193 21.4822 4.16811 22.0467L6.15098 24.0592L4.60332 25.6299C4.2157 26.0233 4.22038 26.6565 4.61378 27.0441C5.00719 27.4317 5.64033 27.427 6.02795 27.0336L7.95596 25.0768C8.51214 24.5124 8.51214 23.6059 7.95596 23.0415L5.97309 21.029L7.95596 19.0166C8.51214 18.4521 8.51214 17.5457 7.95596 16.9812L5.97309 14.9688L7.95596 12.9563C8.51214 12.3918 8.51214 11.4854 7.95596 10.9209L6.02795 8.96416C5.64033 8.57076 5.00719 8.56607 4.61378 8.9537ZM16.1349 8.28809C15.5826 8.28809 15.1349 8.7358 15.1349 9.28809C15.1349 9.84037 15.5826 10.2881 16.1349 10.2881H19.8658C20.4181 10.2881 20.8658 9.84037 20.8658 9.28809C20.8658 8.7358 20.4181 8.28809 19.8658 8.28809H16.1349Z" fill="white"/>
</svg>
