<svg width="36" height="36" viewBox="0 0 36 36" fill="none" xmlns="http://www.w3.org/2000/svg">
<path fill-rule="evenodd" clip-rule="evenodd" d="M31.998 18.9994C31.4458 18.9994 30.998 18.5517 30.998 17.9994C30.998 16.2923 30.6618 14.6019 30.0085 13.0248C29.3552 11.4476 28.3977 10.0146 27.1906 8.80745C25.9835 7.60034 24.5504 6.64281 22.9733 5.98952C22.2356 5.68395 21.4731 5.44775 20.6957 5.28287L22.8061 7.39324C23.1966 7.78376 23.1966 8.41692 22.8061 8.80745C22.4155 9.19797 21.7824 9.19797 21.3918 8.80745L17.2915 4.70711C17.0055 4.42111 16.9199 3.99099 17.0747 3.61732C17.2295 3.24364 17.5941 3 17.9986 3C19.9684 3 21.9188 3.38797 23.7386 4.14176C25.5585 4.89556 27.212 6.00041 28.6048 7.39324C29.9976 8.78606 31.1025 10.4396 31.8563 12.2594C32.6101 14.0792 32.998 16.0297 32.998 17.9994C32.998 18.5517 32.5503 18.9994 31.998 18.9994ZM8.44338 18.0717C7.10682 16.7352 6.43854 16.0669 6.18816 15.2963C5.96791 14.6184 5.96791 13.8883 6.18816 13.2104C6.43854 12.4398 7.10682 11.7715 8.44337 10.435L10.4382 8.44018C11.7747 7.10362 12.443 6.43534 13.2136 6.18495C13.8915 5.96471 14.6216 5.96471 15.2995 6.18495C16.0701 6.43534 16.7384 7.10362 18.0749 8.44017L27.5609 17.9262C28.8975 19.2627 29.5658 19.931 29.8162 20.7016C30.0364 21.3795 30.0364 22.1096 29.8162 22.7875C29.5658 23.5581 28.8975 24.2264 27.561 25.5629L25.5661 27.5577C24.2296 28.8943 23.5613 29.5626 22.7907 29.8129C22.1129 30.0332 21.3827 30.0332 20.7048 29.8129C19.9342 29.5626 19.2659 28.8943 17.9294 27.5577L8.44338 18.0717ZM5 17.9994C5 17.4472 4.55229 16.9994 4 16.9994C3.44772 16.9994 3 17.4472 3 17.9994C3 19.9692 3.38797 21.9197 4.14176 23.7395C4.89555 25.5593 6.0004 27.2128 7.39323 28.6056C8.78606 29.9985 10.4396 31.1033 12.2594 31.8571C14.0792 32.6109 16.0297 32.9989 17.9994 32.9989C18.4039 32.9989 18.7685 32.7552 18.9233 32.3816C19.0781 32.0079 18.9925 31.5778 18.7065 31.2918L14.6062 27.1914C14.2157 26.8009 13.5825 26.8009 13.192 27.1914C12.8015 27.582 12.8015 28.2151 13.192 28.6056L15.3024 30.716C14.525 30.5511 13.7625 30.3149 13.0248 30.0094C11.4476 29.3561 10.0146 28.3985 8.80744 27.1914C7.60033 25.9843 6.6428 24.5513 5.98952 22.9741C5.33624 21.3969 5 19.7066 5 17.9994Z" fill="white"/>
</svg>
