<svg width="36" height="36" viewBox="0 0 36 36" fill="none" xmlns="http://www.w3.org/2000/svg">
<path fill-rule="evenodd" clip-rule="evenodd" d="M8.59959 4.5C8.2358 4.5 7.90071 4.69756 7.72459 5.01588C7.54847 5.33419 7.55912 5.72304 7.75238 6.03125L11.628 12.2119C8.46544 13.7802 6.0403 16.6863 5.16279 20.2952L4.99367 20.9908C3.69252 26.3421 7.74582 31.499 13.253 31.499H22.7491C28.2563 31.499 32.3096 26.3421 31.0084 20.9908L30.8393 20.2953C29.9618 16.6862 27.5366 13.7801 24.374 12.2119L28.2496 6.03125C28.4429 5.72304 28.4535 5.33419 28.2774 5.01588C28.1013 4.69756 27.7662 4.5 27.4024 4.5H8.59959ZM13.666 11.6973L10.407 6.5H25.595L22.336 11.6973H13.666ZM13.1956 13.6973C10.2183 14.9124 7.90181 17.4955 7.10617 20.7678L6.93704 21.4633C5.94205 25.5555 9.04163 29.499 13.253 29.499H22.7491C26.9605 29.499 30.06 25.5555 29.065 21.4633L28.8959 20.7678C28.1003 17.4955 25.7838 14.9124 22.8065 13.6973H13.1956Z" fill="white"/>
</svg>
