<svg width="36" height="36" viewBox="0 0 36 36" fill="none" xmlns="http://www.w3.org/2000/svg">
<path fill-rule="evenodd" clip-rule="evenodd" d="M13.126 11.2432C15.2655 10.2922 17.7635 9.9716 20.0567 10.1729C21.0889 10.2635 21.8693 10.8986 22.3731 11.5352C23.349 12.7688 24.4649 13.2424 25.4678 13.2119C26.4811 13.1809 27.5639 12.6296 28.4492 11.4492C28.7805 11.0076 29.4078 10.9181 29.8496 11.249C30.2915 11.5804 30.3812 12.2076 30.0498 12.6494C28.8721 14.2197 27.2611 15.1581 25.5284 15.2109C24.6567 15.2374 23.8 15.0384 22.9991 14.6279L18.5078 21.6855L18.542 21.7031L18.625 21.7686C20.6438 23.3836 21.6927 25.0388 22.2862 26.7168C22.8558 28.3277 23.0002 29.9891 23.2305 31.3877C23.3199 31.9324 22.951 32.4464 22.4063 32.5361C21.8615 32.6257 21.3477 32.2566 21.2578 31.7119C20.9943 30.1109 20.8915 28.7715 20.4004 27.3828C19.9391 26.0785 19.127 24.7522 17.4424 23.3867C15.9377 22.622 14.8239 21.8003 14.1407 20.8467C13.4051 19.82 13.2174 18.7105 13.459 17.5625C13.6887 16.4715 14.2986 15.3769 15.0733 14.2754C15.5174 13.6439 16.0378 12.9823 16.6094 12.2881C15.6737 12.4428 14.7659 12.7021 13.9375 13.0703C12.1626 13.8594 10.8066 15.1171 10.2159 16.8691C10.0393 17.3922 9.47242 17.6734 8.94925 17.4971C8.42616 17.3205 8.14492 16.7527 8.32132 16.2295C9.13413 13.8195 10.9776 12.1981 13.126 11.2432ZM19.3555 12.1309C18.2947 13.371 17.3944 14.4512 16.709 15.4258C15.9838 16.4569 15.5613 17.2844 15.416 17.9746C15.2828 18.6076 15.3773 19.1392 15.7666 19.6826C15.9886 19.9923 16.3187 20.3189 16.7871 20.6641L21.3887 13.4326C21.1873 13.23 20.9911 13.012 20.8047 12.7764C20.4905 12.3793 20.1626 12.1897 19.8819 12.165C19.7074 12.1497 19.5318 12.1391 19.3555 12.1309Z" fill="white"/>
<path d="M12.668 23.4951C12.9744 23.0356 13.5952 22.9114 14.0547 23.2178C14.5141 23.5242 14.6384 24.145 14.3321 24.6045C13.5685 25.7498 12.7056 26.8664 11.4473 27.5527C10.1526 28.2588 8.58487 28.4365 6.55374 28.0303C6.01238 27.9219 5.66144 27.3949 5.76956 26.8535C5.87796 26.3121 6.40482 25.961 6.94632 26.0693C8.66474 26.413 9.7226 26.2155 10.4903 25.7969C11.2941 25.3583 11.9317 24.5995 12.668 23.4951Z" fill="white"/>
<path d="M23.25 3.5C24.7826 3.5 26.0254 4.74188 26.0254 6.27441C26.0254 7.807 24.7826 9.0498 23.25 9.0498C21.7175 9.04977 20.4746 7.80698 20.4746 6.27441C20.4747 4.74191 21.7175 3.50004 23.25 3.5Z" fill="white"/>
</svg>
