<svg width="36" height="36" viewBox="0 0 36 36" fill="none" xmlns="http://www.w3.org/2000/svg">
<path fill-rule="evenodd" clip-rule="evenodd" d="M18 33C26.2843 33 33 26.2843 33 18C33 9.71573 26.2843 3 18 3C9.71573 3 3 9.71573 3 18C3 26.2843 9.71573 33 18 33ZM20.5882 8.34074C20.0547 8.1978 19.5064 8.51438 19.3634 9.04785C19.2205 9.58132 19.5371 10.1297 20.0706 10.2726C21.427 10.6361 22.6639 11.3502 23.6569 12.3431C24.6498 13.3361 25.3639 14.573 25.7274 15.9294C25.8703 16.4629 26.4187 16.7795 26.9522 16.6366C27.4856 16.4936 27.8022 15.9453 27.6593 15.4118C27.2049 13.7163 26.3123 12.1702 25.0711 10.9289C23.8298 9.6877 22.2837 8.79507 20.5882 8.34074ZM9.04785 19.3634C9.58131 19.2205 10.1297 19.5371 10.2726 20.0706C10.6361 21.427 11.3502 22.6639 12.3431 23.6569C13.3361 24.6498 14.573 25.3639 15.9294 25.7274C16.4629 25.8703 16.7795 26.4187 16.6366 26.9522C16.4936 27.4856 15.9453 27.8022 15.4118 27.6593C13.7163 27.2049 12.1702 26.3123 10.9289 25.0711C9.6877 23.8298 8.79506 22.2837 8.34074 20.5882C8.1978 20.0547 8.51438 19.5064 9.04785 19.3634ZM18 22.125C20.2782 22.125 22.125 20.2782 22.125 18C22.125 15.7218 20.2782 13.875 18 13.875C15.7218 13.875 13.875 15.7218 13.875 18C13.875 20.2782 15.7218 22.125 18 22.125Z" fill="white"/>
</svg>
