<svg width="36" height="36" viewBox="0 0 36 36" fill="none" xmlns="http://www.w3.org/2000/svg">
<path fill-rule="evenodd" clip-rule="evenodd" d="M28.5 21.024V10.8806L15 14.7353V28.1281C15 28.128 15 28.1281 15 28.1281C14.9999 30.8187 12.8173 33 10.125 33C7.43261 33 5.25 30.8187 5.25 28.1281C5.25 25.4374 7.43261 23.2562 10.125 23.2562C11.0915 23.2562 11.9923 23.5372 12.75 24.022V9.58715C12.75 8.08124 13.7489 6.75778 15.1978 6.34407L26.4478 3.13183C28.6038 2.51622 30.75 4.13405 30.75 6.37491V25.13C30.75 25.1299 30.75 25.13 30.75 25.13C30.7499 27.8206 28.5674 30.0019 25.875 30.0019C23.1826 30.0019 21 27.8207 21 25.13C21 22.4393 23.1826 20.2581 25.875 20.2581C26.8415 20.2581 27.7423 20.5391 28.5 21.024Z" fill="white"/>
</svg>
