<svg width="36" height="36" viewBox="0 0 36 36" fill="none" xmlns="http://www.w3.org/2000/svg">
<path fill-rule="evenodd" clip-rule="evenodd" d="M19.7498 3.20738C19.6626 2.92567 19.2639 2.92567 19.1767 3.20738L18.8687 4.20215C18.5753 5.14992 17.8323 5.89134 16.8839 6.18271L15.8848 6.48968C15.6022 6.57648 15.6022 6.97642 15.8848 7.06322L16.8839 7.37019C17.8323 7.66156 18.5753 8.40298 18.8687 9.35075L19.1767 10.3455C19.2639 10.6272 19.6626 10.6272 19.7498 10.3455L20.0578 9.35075C20.3512 8.40298 21.0942 7.66156 22.0426 7.37019L23.0417 7.06322C23.3243 6.97642 23.3243 6.57648 23.0417 6.48968L22.0426 6.18271C21.0942 5.89134 20.3512 5.14992 20.0578 4.20215L19.7498 3.20738ZM8.57988 10.8517C8.6932 10.5084 9.17876 10.5084 9.29208 10.8517L9.7124 12.1249C10.1604 13.4819 11.2264 14.5455 12.5845 14.9905L13.8642 15.4098C14.2085 15.5226 14.2085 16.0097 13.8642 16.1225L12.5845 16.5418C11.2264 16.9867 10.1604 18.0503 9.7124 19.4074L9.29208 20.6806C9.17876 21.0238 8.6932 21.0238 8.57988 20.6806L8.15956 19.4074C7.71155 18.0503 6.64556 16.9867 5.28748 16.5418L4.00776 16.1225C3.66343 16.0097 3.66343 15.5226 4.00776 15.4098L5.28748 14.9905C6.64556 14.5455 7.71155 13.4819 8.15956 12.1249L8.57988 10.8517ZM29.963 13.7248C30.0421 13.7045 30.1191 13.7642 30.1191 13.8459V16.1145L20.4633 18.5968V16.264C20.4633 16.2069 20.5019 16.1571 20.5572 16.1429L29.963 13.7248ZM30.1191 24.3763V18.1795L20.4633 20.6619L20.4633 29.2506C20.4633 31.2546 18.8336 32.8726 16.8313 32.8726C14.829 32.8726 13.1994 31.2546 13.1994 29.2506C13.1994 27.2467 14.829 25.6287 16.8313 25.6287C17.4178 25.6287 17.9723 25.7675 18.4633 26.0141V16.264C18.4633 15.2941 19.1199 14.4474 20.0592 14.2059L29.465 11.7878C30.8096 11.4421 32.1191 12.4575 32.1191 13.8459V26.7882C32.2009 27.0957 32.2445 27.4189 32.2445 27.7524C32.2445 29.8258 30.5585 31.4993 28.4876 31.4993C26.4167 31.4993 24.7306 29.8258 24.7306 27.7524C24.7306 25.6789 26.4167 24.0054 28.4876 24.0054C29.0718 24.0054 29.6254 24.1386 30.1191 24.3763ZM18.4633 29.2506C18.4633 28.3584 17.7362 27.6287 16.8313 27.6287C15.9265 27.6287 15.1994 28.3584 15.1994 29.2506C15.1994 30.1429 15.9265 30.8726 16.8313 30.8726C17.7362 30.8726 18.4633 30.1429 18.4633 29.2506ZM28.4876 26.2554C27.6513 26.2554 26.9806 26.9296 26.9806 27.7524C26.9806 28.5751 27.6513 29.2493 28.4876 29.2493C29.3239 29.2493 29.9945 28.5751 29.9945 27.7524C29.9945 26.9296 29.3239 26.2554 28.4876 26.2554Z" fill="white"/>
</svg>
