<svg width="36" height="36" viewBox="0 0 36 36" fill="none" xmlns="http://www.w3.org/2000/svg">
<path fill-rule="evenodd" clip-rule="evenodd" d="M5 17.9994C5 10.82 10.82 5 17.9994 5C25.1788 5 30.9989 10.82 30.9989 17.9994C30.9989 25.1788 25.1788 30.9989 17.9994 30.9989C10.82 30.9989 5 25.1788 5 17.9994ZM17.9994 3C9.71548 3 3 9.71548 3 17.9994C3 26.2834 9.71548 32.9989 17.9994 32.9989C26.2834 32.9989 32.9989 26.2834 32.9989 17.9994C32.9989 9.71548 26.2834 3 17.9994 3ZM20.6078 8.26227C20.0743 8.11932 19.526 8.43591 19.383 8.96937C19.2401 9.50284 19.5567 10.0512 20.0901 10.1941C21.4603 10.5612 22.7096 11.2826 23.7126 12.2856C24.7156 13.2886 25.4369 14.5379 25.8041 15.908C25.947 16.4415 26.4953 16.7581 27.0288 16.6152C27.5623 16.4722 27.8789 15.9239 27.7359 15.3904C27.2779 13.6812 26.3781 12.1226 25.1268 10.8713C23.8756 9.6201 22.317 8.72026 20.6078 8.26227ZM8.96857 19.3838C9.50203 19.2409 10.0504 19.5575 10.1933 20.0909C10.5604 21.4611 11.2818 22.7104 12.2848 23.7134C13.2878 24.7164 14.5371 25.4377 15.9072 25.8049C16.4407 25.9478 16.7573 26.4961 16.6143 27.0296C16.4714 27.5631 15.9231 27.8797 15.3896 27.7367C13.6804 27.2787 12.1218 26.3789 10.8705 25.1276C9.61929 23.8764 8.71945 22.3178 8.26146 20.6086C8.11852 20.0751 8.4351 19.5268 8.96857 19.3838ZM14.8379 17.9995C14.8379 16.2532 16.2536 14.8375 17.9999 14.8375C19.7462 14.8375 21.1619 16.2532 21.1619 17.9995C21.1619 19.7459 19.7462 21.1615 17.9999 21.1615C16.2536 21.1615 14.8379 19.7459 14.8379 17.9995ZM17.9999 12.8375C15.149 12.8375 12.8379 15.1486 12.8379 17.9995C12.8379 20.8504 15.149 23.1615 17.9999 23.1615C20.8508 23.1615 23.1619 20.8504 23.1619 17.9995C23.1619 15.1486 20.8508 12.8375 17.9999 12.8375Z" fill="white"/>
</svg>
