<svg width="36" height="36" viewBox="0 0 36 36" fill="none" xmlns="http://www.w3.org/2000/svg">
<path fill-rule="evenodd" clip-rule="evenodd" d="M28.7524 7.83924C28.7354 7.82235 28.7184 7.80551 28.7013 7.7887C28.3076 7.40139 27.6744 7.40657 27.2871 7.80028C26.8998 8.19399 26.905 8.82714 27.2987 9.21445C27.3119 9.22742 27.3251 9.24043 27.3382 9.25346L28.7524 7.83924ZM24.097 12.4947C23.9813 12.3506 23.861 12.2105 23.736 12.0746C23.3622 11.6681 22.7296 11.6417 22.3231 12.0155C21.9166 12.3894 21.8901 13.022 22.264 13.4285C22.4075 13.5846 22.5436 13.7487 22.6715 13.9201L24.097 12.4947ZM23.64 15.78L25.1779 14.2422C25.2631 14.4262 25.3421 14.6137 25.4147 14.8043C25.8017 15.8201 26 16.9063 26 18.0016C26 19.0968 25.8017 20.183 25.4147 21.1989C25.0277 22.2147 24.4586 23.1429 23.736 23.9285C23.3622 24.335 22.7296 24.3615 22.3231 23.9876C21.9166 23.6138 21.8901 22.9811 22.264 22.5746C22.8096 21.9813 23.2464 21.2726 23.5457 20.4869C23.8451 19.7011 24 18.8564 24 18.0016C24 17.2417 23.8776 16.4897 23.64 15.78ZM17.5 19.0916V9.89468C17.5 7.98287 17.5 7.02696 17.1286 6.60247C16.8065 6.23447 16.3255 6.04637 15.8392 6.09837C15.2784 6.15834 14.63 6.86074 13.3333 8.26555L9.70994 12.1908C8.93866 13.0264 7.85328 13.5016 6.71617 13.5016C5.21607 13.5016 4 14.7176 4 16.2177V19.7854C4 21.2855 5.21607 22.5016 6.71617 22.5016C7.85328 22.5016 8.93866 22.9768 9.70994 23.8123L11.1832 25.4084L17.5 19.0916ZM12.5409 26.8792L17.5 21.9201V26.1085C17.5 28.0203 17.5 28.9762 17.1286 29.4007C16.8065 29.7687 16.3255 29.9568 15.8392 29.9048C15.2784 29.8448 14.63 29.1424 13.3333 27.7376L12.5409 26.8792ZM28.644 10.7761L30.0734 9.34672C30.8044 10.3078 31.4127 11.3573 31.8821 12.4722C32.62 14.2247 33 16.1036 33 18.0016C33 19.8995 32.62 21.7785 31.8821 23.531C31.1442 25.2835 30.0631 26.8748 28.7013 28.2144C28.3076 28.6018 27.6744 28.5966 27.2871 28.2029C26.8998 27.8092 26.905 27.176 27.2987 26.7887C28.4732 25.6332 29.4041 24.2624 30.0388 22.7549C30.6735 21.2474 31 19.6323 31 18.0016C31 16.3709 30.6735 14.7558 30.0388 13.2483C29.6703 12.373 29.2019 11.5438 28.644 10.7761Z" fill="white"/>
<path fill-rule="evenodd" clip-rule="evenodd" d="M31.1632 4.08196C31.5537 4.47248 31.5537 5.10564 31.1632 5.49617L5.70732 30.952C5.31679 31.3425 4.68363 31.3425 4.2931 30.952C3.90258 30.5615 3.90258 29.9283 4.2931 29.5378L29.7489 4.08196C30.1395 3.69143 30.7726 3.69143 31.1632 4.08196Z" fill="white"/>
</svg>
