<svg width="36" height="36" viewBox="0 0 36 36" fill="none" xmlns="http://www.w3.org/2000/svg">
<path fill-rule="evenodd" clip-rule="evenodd" d="M29.749 4.08196C30.1395 3.69143 30.7726 3.69143 31.1631 4.08196C31.5536 4.47248 31.5536 5.10551 31.1631 5.49602L5.70703 30.9521C5.3165 31.3423 4.68341 31.3425 4.29297 30.9521C3.90253 30.5616 3.90269 29.9286 4.29297 29.538L9.15039 24.6796L8.97559 24.4902C8.39361 23.8597 7.57384 23.5019 6.71582 23.5019C4.6636 23.5017 3 21.8373 3 19.7851V16.2177C3 14.1654 4.6636 12.5021 6.71582 12.5019C7.57384 12.5019 8.39361 12.1431 8.97559 11.5126L12.6318 7.55071C13.2517 6.87912 13.7627 6.3257 14.1895 5.93742C14.5945 5.56899 15.1055 5.17064 15.7324 5.10344C16.5426 5.01681 17.3443 5.33111 17.8809 5.94426C18.2962 6.41897 18.4025 7.05785 18.4502 7.60344C18.5005 8.17827 18.5 8.93161 18.5 9.84563V15.331L29.749 4.08196ZM15.96 7.0927C15.9332 7.10614 15.8068 7.16979 15.5352 7.41692C15.1811 7.73901 14.7299 8.22664 14.0684 8.94328L10.4443 12.8691C9.48376 13.9095 8.13191 14.5019 6.71582 14.5019C5.76817 14.5021 5 15.27 5 16.2177V19.7851C5 20.7328 5.76817 21.5017 6.71582 21.5019C8.13189 21.5019 9.48376 22.0933 10.4443 23.1337L10.5654 23.2646L16.5 17.331V9.89446C16.5 8.91923 16.4987 8.25511 16.457 7.77824C16.4251 7.41308 16.3759 7.2803 16.3652 7.25188L16.3633 7.24699C16.2603 7.1378 16.1136 7.08027 15.9639 7.09074L15.96 7.0927Z" fill="white"/>
<path d="M18.5 26.1572C18.5 27.0712 18.5005 27.8245 18.4502 28.3993C18.4025 28.945 18.2963 29.5847 17.8809 30.0595C17.3443 30.6724 16.5424 30.9859 15.7324 30.8993C15.1055 30.8321 14.5945 30.4338 14.1895 30.0654C13.7626 29.6771 13.2517 29.1237 12.6318 28.4521L11.833 27.5868L13.249 26.1718L14.0684 27.0595C14.7299 27.7762 15.1811 28.2638 15.5352 28.5859C15.8068 28.833 15.9332 28.8966 15.96 28.9101L15.9639 28.912C16.1137 28.9225 16.2603 28.865 16.3633 28.7558L16.3652 28.7509C16.376 28.7223 16.4251 28.59 16.457 28.2255C16.4987 27.7486 16.5 27.0839 16.5 26.1083V22.9198L18.5 20.9198V26.1572Z" fill="white"/>
<path d="M30.0732 9.3466C30.8042 10.3075 31.4125 11.357 31.8818 12.4716C32.6197 14.2241 33 16.1039 33 18.0019C32.9999 19.8997 32.6197 21.7788 31.8818 23.5312C31.1439 25.2835 30.0629 26.8752 28.7012 28.2148C28.3075 28.6017 27.6743 28.5965 27.2871 28.203C26.8998 27.8094 26.9053 27.1763 27.2988 26.789C28.4734 25.6335 29.4043 24.2623 30.0391 22.7548C30.6737 21.2475 30.9999 19.6324 31 18.0019C31 16.3712 30.6738 14.7555 30.0391 13.248C29.6705 12.3727 29.2014 11.544 28.6436 10.7763L30.0732 9.3466Z" fill="white"/>
<path d="M25.1777 14.2421C25.263 14.4262 25.3424 14.614 25.415 14.8046C25.8019 15.8203 26 16.9068 26 18.0019C25.9999 19.097 25.802 20.1835 25.415 21.1991C25.028 22.2149 24.4588 23.1431 23.7363 23.9286C23.3625 24.3351 22.7297 24.3611 22.3232 23.9872C21.9168 23.6134 21.8898 22.9806 22.2637 22.5741C22.8093 21.9809 23.2466 21.2719 23.5459 20.4863C23.8451 19.7007 23.9999 18.8563 24 18.0019C24 17.242 23.8771 16.4898 23.6396 15.7802L25.1777 14.2421Z" fill="white"/>
</svg>
