<svg width="36" height="36" viewBox="0 0 36 36" fill="none" xmlns="http://www.w3.org/2000/svg">
<path fill-rule="evenodd" clip-rule="evenodd" d="M17.8811 5.94396C17.3446 5.33081 16.543 5.01742 15.7329 5.10404C15.1056 5.17112 14.5944 5.56935 14.1893 5.93795C13.7625 6.32622 13.2519 6.87938 12.632 7.55097L8.97513 11.5125C8.39316 12.143 7.57418 12.5016 6.71617 12.5016C4.66378 12.5016 3 14.1654 3 16.2178V19.7854C3 21.8378 4.66378 23.5016 6.71617 23.5016C7.57418 23.5016 8.39316 23.8602 8.97514 24.4906L10.4756 26.1161L11.8909 24.7007L10.4447 23.1341C9.48415 22.0934 8.13238 21.5016 6.71617 21.5016C5.76835 21.5016 5 20.7332 5 19.7854V16.2178C5 15.2699 5.76835 14.5016 6.71617 14.5016C8.13238 14.5016 9.48415 13.9097 10.4447 12.8691L14.0681 8.94384C14.7298 8.227 15.181 7.73951 15.5351 7.41736C15.8069 7.17011 15.933 7.10669 15.9597 7.09325L15.9639 7.09108C16.1138 7.0806 16.2606 7.13798 16.3636 7.24734L16.3652 7.2518C16.3757 7.2798 16.4254 7.41191 16.4574 7.77794C16.4991 8.25485 16.5 8.91913 16.5 9.89469V20.0916L18.5 18.0916V9.84543C18.5 8.93141 18.5 8.17856 18.4498 7.60373C18.4021 7.05807 18.2965 6.41871 17.8811 5.94396ZM18.5 20.9201L16.5 22.9201V26.1085C16.5 27.084 16.4991 27.7483 16.4574 28.2252C16.4254 28.5913 16.3757 28.7234 16.3652 28.7514L16.3636 28.7558C16.2606 28.8652 16.1138 28.9226 15.9639 28.9121L15.9597 28.9099C15.933 28.8965 15.8069 28.833 15.5351 28.5858C15.181 28.2637 14.7298 27.7762 14.0681 27.0593L13.2485 26.1715L11.8332 27.5869L12.6319 28.4521C13.2518 29.1237 13.7625 29.6769 14.1893 30.0652C14.5944 30.4338 15.1056 30.8321 15.7329 30.8991C16.543 30.9858 17.3446 30.6724 17.8811 30.0592C18.2965 29.5845 18.4021 28.9451 18.4498 28.3994C18.5 27.8246 18.5 27.0718 18.5 26.1577V20.9201ZM23.64 15.78L25.1779 14.2422C25.2631 14.4262 25.3421 14.6137 25.4147 14.8043C25.8017 15.8201 26 16.9063 26 18.0016C26 19.0968 25.8017 20.183 25.4147 21.1989C25.0277 22.2147 24.4586 23.1429 23.736 23.9285C23.3622 24.335 22.7296 24.3615 22.3231 23.9876C21.9166 23.6138 21.8901 22.9812 22.264 22.5746C22.8096 21.9814 23.2464 21.2726 23.5457 20.4869C23.8451 19.7011 24 18.8564 24 18.0016C24 17.2417 23.8776 16.4897 23.64 15.78ZM24.0969 12.4947L22.6715 13.9201C22.5436 13.7487 22.4075 13.5846 22.264 13.4285C21.8901 13.022 21.9166 12.3894 22.3231 12.0155C22.7296 11.6417 23.3622 11.6681 23.736 12.0746C23.861 12.2105 23.9813 12.3506 24.0969 12.4947ZM28.644 10.7761C29.2019 11.5438 29.6703 12.373 30.0388 13.2483C30.6735 14.7558 31 16.3709 31 18.0016C31 19.6323 30.6735 21.2474 30.0388 22.7549C29.4041 24.2624 28.4732 25.6333 27.2987 26.7887C26.905 27.176 26.8998 27.8092 27.2871 28.2029C27.6744 28.5966 28.3076 28.6018 28.7013 28.2145C30.0631 26.8748 31.1442 25.2835 31.8821 23.531C32.62 21.7785 33 19.8995 33 18.0016C33 16.1037 32.62 14.2247 31.8821 12.4722C31.4127 11.3574 30.8044 10.3078 30.0734 9.34672L28.644 10.7761ZM28.7524 7.83924L27.3382 9.25346C27.3251 9.24043 27.3119 9.22743 27.2987 9.21446C26.905 8.82714 26.8998 8.194 27.2871 7.80029C27.6744 7.40658 28.3076 7.4014 28.7013 7.78871C28.7184 7.80552 28.7354 7.82236 28.7524 7.83924Z" fill="white"/>
<path fill-rule="evenodd" clip-rule="evenodd" d="M31.1632 4.08196C31.5537 4.47248 31.5537 5.10564 31.1632 5.49617L5.70732 30.952C5.31679 31.3425 4.68363 31.3425 4.2931 30.952C3.90258 30.5615 3.90258 29.9283 4.2931 29.5378L29.7489 4.08196C30.1395 3.69143 30.7726 3.69143 31.1632 4.08196Z" fill="white"/>
</svg>
