<svg width="36" height="36" viewBox="0 0 36 36" fill="none" xmlns="http://www.w3.org/2000/svg">
<path fill-rule="evenodd" clip-rule="evenodd" d="M10.3932 6.96229C10.7865 6.57465 10.7912 5.9415 10.4036 5.54811C10.0159 5.15473 9.38276 5.15007 8.98938 5.53771C6.59685 7.89532 5.25 11.0961 5.25 14.4367C5.25 17.7773 6.59685 20.978 8.98938 23.3356C9.38276 23.7233 10.0159 23.7186 10.4036 23.3252C10.7912 22.9318 10.7865 22.2987 10.3932 21.911C8.37888 19.9262 7.25 17.2373 7.25 14.4367C7.25 11.6361 8.37888 8.94716 10.3932 6.96229ZM14.0723 14.4358C14.0723 12.3205 15.8166 10.5807 17.9994 10.5807C20.1821 10.5807 21.9265 12.3205 21.9265 14.4358C21.9265 16.5511 20.1821 18.291 17.9994 18.291C15.8166 18.291 14.0723 16.5511 14.0723 14.4358ZM17.9994 8.58065C14.7398 8.58065 12.0723 11.1883 12.0723 14.4358C12.0723 17.3439 14.2113 19.7389 16.999 20.2078V29.7483C16.999 30.3006 17.4467 30.7483 17.999 30.7483C18.5513 30.7483 18.999 30.3006 18.999 29.7483V20.2079C21.7871 19.7392 23.9265 17.3441 23.9265 14.4358C23.9265 11.1883 21.2589 8.58065 17.9994 8.58065ZM25.5949 5.54811C25.9825 5.15473 26.6157 5.15007 27.0091 5.53771C29.4016 7.89532 30.7484 11.0961 30.7484 14.4367C30.7484 17.7773 29.4016 20.978 27.0091 23.3356C26.6157 23.7233 25.9825 23.7186 25.5949 23.3252C25.2072 22.9318 25.2119 22.2987 25.6053 21.911C27.6196 19.9262 28.7484 17.2373 28.7484 14.4367C28.7484 11.6361 27.6196 8.94716 25.6053 6.96229C25.2119 6.57465 25.2072 5.9415 25.5949 5.54811Z" fill="white"/>
<path d="M22.5 14.4996C22.5 16.9849 20.4853 18.9996 18 18.9996C15.5147 18.9996 13.5 16.9849 13.5 14.4996C13.5 12.0143 15.5147 9.9996 18 9.9996C20.4853 9.9996 22.5 12.0143 22.5 14.4996Z" fill="white"/>
</svg>
