<svg width="36" height="36" viewBox="0 0 36 36" fill="none" xmlns="http://www.w3.org/2000/svg">
<path d="M8.625 23.25C8.00368 23.25 7.5 23.7537 7.5 24.375C7.5 24.9963 8.00368 25.5 8.625 25.5H27.375C27.9963 25.5 28.5 24.9963 28.5 24.375C28.5 23.7537 27.9963 23.25 27.375 23.25H8.625Z" fill="white"/>
<path d="M7.5 19.875C7.5 19.2537 8.00368 18.75 8.625 18.75H27.375C27.9963 18.75 28.5 19.2537 28.5 19.875C28.5 20.4963 27.9963 21 27.375 21H8.625C8.00368 21 7.5 20.4963 7.5 19.875Z" fill="white"/>
<path d="M7.62262 11.1143C7.5 11.3549 7.5 11.6699 7.5 12.3V14.7C7.5 15.3301 7.5 15.6451 7.62262 15.8857C7.73048 16.0974 7.90258 16.2695 8.11426 16.3774C8.35491 16.5 8.66994 16.5 9.3 16.5H16.2C16.8301 16.5 17.1451 16.5 17.3857 16.3774C17.5974 16.2695 17.7695 16.0974 17.8774 15.8857C18 15.6451 18 15.3301 18 14.7V12.3C18 11.6699 18 11.3549 17.8774 11.1143C17.7695 10.9026 17.5974 10.7305 17.3857 10.6226C17.1451 10.5 16.8301 10.5 16.2 10.5H9.3C8.66994 10.5 8.35491 10.5 8.11426 10.6226C7.90258 10.7305 7.73048 10.9026 7.62262 11.1143Z" fill="white"/>
<path fill-rule="evenodd" clip-rule="evenodd" d="M8.87935 6C8.07813 5.99999 7.40934 5.99997 6.863 6.04461C6.29317 6.09117 5.75818 6.19183 5.25229 6.4496C4.47612 6.84508 3.84508 7.47612 3.4496 8.25229C3.19183 8.75819 3.09117 9.29317 3.04461 9.863C2.99997 10.4093 2.99999 11.0781 3 11.8793V24.1207C2.99999 24.9219 2.99997 25.5907 3.04461 26.137C3.09117 26.7068 3.19183 27.2418 3.4496 27.7477C3.84508 28.5239 4.47612 29.1549 5.25229 29.5504C5.75818 29.8082 6.29317 29.9088 6.863 29.9554C7.40934 30 8.0781 30 8.87932 30H27.1207C27.9219 30 28.5907 30 29.137 29.9554C29.7068 29.9088 30.2418 29.8082 30.7477 29.5504C31.5239 29.1549 32.1549 28.5239 32.5504 27.7477C32.8082 27.2418 32.9088 26.7068 32.9554 26.137C33 25.5907 33 24.9219 33 24.1207V11.8793C33 11.0781 33 10.4093 32.9554 9.863C32.9088 9.29317 32.8082 8.75819 32.5504 8.25229C32.1549 7.47612 31.5239 6.84508 30.7477 6.4496C30.2418 6.19183 29.7068 6.09117 29.137 6.04461C28.5907 5.99997 27.9219 5.99999 27.1207 6H8.87935ZM6.27377 8.45436C6.40961 8.38515 6.61553 8.32233 7.04622 8.28714C7.49004 8.25088 8.06636 8.25 8.925 8.25H27.075C27.9336 8.25 28.51 8.25088 28.9538 8.28714C29.3845 8.32233 29.5904 8.38515 29.7262 8.45436C30.079 8.63413 30.3659 8.92097 30.5456 9.27377C30.6149 9.40961 30.6777 9.61553 30.7129 10.0462C30.7491 10.49 30.75 11.0664 30.75 11.925V24.075C30.75 24.9336 30.7491 25.51 30.7129 25.9538C30.6777 26.3845 30.6149 26.5904 30.5456 26.7262C30.3659 27.079 30.079 27.3659 29.7262 27.5456C29.5904 27.6149 29.3845 27.6777 28.9538 27.7129C28.51 27.7491 27.9336 27.75 27.075 27.75H8.925C8.06636 27.75 7.49004 27.7491 7.04622 27.7129C6.61553 27.6777 6.40961 27.6149 6.27377 27.5456C5.92097 27.3659 5.63413 27.079 5.45436 26.7262C5.38515 26.5904 5.32233 26.3845 5.28714 25.9538C5.25088 25.51 5.25 24.9336 5.25 24.075V11.925C5.25 11.0664 5.25088 10.49 5.28714 10.0462C5.32233 9.61553 5.38515 9.40961 5.45436 9.27377C5.63413 8.92097 5.92097 8.63413 6.27377 8.45436Z" fill="white"/>
</svg>
