<svg width="36" height="36" viewBox="0 0 36 36" fill="none" xmlns="http://www.w3.org/2000/svg">
<path d="M26.1606 24.6898C26.1606 25.5299 26.1606 25.95 25.9972 26.2708C25.8533 26.5531 25.6239 26.7825 25.3416 26.9264C25.0208 27.0898 24.6007 27.0898 23.7606 27.0898H12.2384C11.3983 27.0898 10.9783 27.0898 10.6574 26.9264C10.3752 26.7825 10.1457 26.5531 10.0019 26.2708C9.83842 25.95 9.83842 25.5299 9.83842 24.6898V15.8542C9.83842 15.0142 9.83842 14.5941 10.0019 14.2733C10.1457 13.991 10.3752 13.7615 10.6574 13.6177C10.9783 13.4542 11.3983 13.4542 12.2384 13.4542H23.7606C24.6007 13.4542 25.0208 13.4542 25.3416 13.6177C25.6239 13.7615 25.8533 13.991 25.9972 14.2733C26.1606 14.5941 26.1606 15.0142 26.1606 15.8542V24.6898Z" fill="white"/>
<path d="M10.9517 9.04514C10.3994 9.04514 9.95166 9.49285 9.95166 10.0451C9.95166 10.5974 10.3994 11.0451 10.9517 11.0451H17.6289C18.1812 11.0451 18.6289 10.5974 18.6289 10.0451C18.6289 9.49285 18.1812 9.04514 17.6289 9.04514H10.9517Z" fill="white"/>
<path fill-rule="evenodd" clip-rule="evenodd" d="M12.4575 4.5H23.542C24.556 4.49999 25.3777 4.49998 26.0439 4.55441C26.7311 4.61056 27.3404 4.72956 27.906 5.01772C28.7997 5.47312 29.5264 6.19978 29.9818 7.09355C30.27 7.6591 30.389 8.26841 30.4451 8.95558C30.4995 9.62178 30.4995 10.4435 30.4995 11.4575V24.5411C30.4995 25.5551 30.4995 26.3768 30.4451 27.043C30.389 27.7302 30.27 28.3395 29.9818 28.9051C29.5264 29.7988 28.7997 30.5255 27.906 30.9809C27.3404 31.2691 26.7311 31.3881 26.0439 31.4442C25.3777 31.4986 24.556 31.4986 23.542 31.4986H12.4575C11.4435 31.4986 10.6218 31.4986 9.95558 31.4442C9.26841 31.3881 8.6591 31.2691 8.09355 30.9809C7.19978 30.5255 6.47312 29.7988 6.01772 28.9051C5.72956 28.3395 5.61056 27.7302 5.55441 27.043C5.49998 26.3768 5.49999 25.5551 5.5 24.5411V11.4575C5.49999 10.4435 5.49998 9.62178 5.55441 8.95558C5.61056 8.26842 5.72956 7.6591 6.01772 7.09355C6.47312 6.19978 7.19978 5.47312 8.09355 5.01772C8.6591 4.72956 9.26841 4.61056 9.95558 4.55441C10.6218 4.49998 11.4435 4.49999 12.4575 4.5ZM10.1184 6.54777C9.55496 6.59381 9.23814 6.67917 9.00153 6.79973C8.48408 7.06338 8.06338 7.48408 7.79973 8.00153C7.67917 8.23814 7.59381 8.55496 7.54777 9.11844C7.50078 9.6936 7.5 10.4334 7.5 11.5V24.4986C7.5 25.5652 7.50078 26.305 7.54777 26.8802C7.59381 27.4437 7.67917 27.7605 7.79973 27.9971C8.06338 28.5145 8.48408 28.9352 9.00153 29.1989C9.23814 29.3194 9.55496 29.4048 10.1184 29.4508C10.6936 29.4978 11.4334 29.4986 12.5 29.4986H23.4995C24.5661 29.4986 25.3059 29.4978 25.8811 29.4508C26.4445 29.4048 26.7614 29.3194 26.998 29.1989C27.5154 28.9352 27.9361 28.5145 28.1998 27.9971C28.3203 27.7605 28.4057 27.4437 28.4517 26.8802C28.4987 26.305 28.4995 25.5652 28.4995 24.4986V11.5C28.4995 10.4334 28.4987 9.69359 28.4517 9.11844C28.4057 8.55496 28.3203 8.23814 28.1998 8.00153C27.9361 7.48408 27.5154 7.06338 26.998 6.79973C26.7614 6.67917 26.4445 6.59381 25.8811 6.54777C25.3059 6.50078 24.5661 6.5 23.4995 6.5H12.5C11.4334 6.5 10.6936 6.50078 10.1184 6.54777Z" fill="white"/>
</svg>
