<svg width="36" height="36" viewBox="0 0 36 36" fill="none" xmlns="http://www.w3.org/2000/svg">
<path fill-rule="evenodd" clip-rule="evenodd" d="M7.125 6C4.84683 6 3 7.84683 3 10.125V25.875C3 28.1532 4.84683 30 7.125 30H28.875C31.1532 30 33 28.1532 33 25.875V10.125C33 7.84683 31.1532 6 28.875 6H7.125ZM8.625 23.25C8.00368 23.25 7.5 23.7537 7.5 24.375C7.5 24.9963 8.00368 25.5 8.625 25.5H27.375C27.9963 25.5 28.5 24.9963 28.5 24.375C28.5 23.7537 27.9963 23.25 27.375 23.25H8.625ZM7.5 19.875C7.5 19.2537 8.00368 18.75 8.625 18.75H27.375C27.9963 18.75 28.5 19.2537 28.5 19.875C28.5 20.4963 27.9963 21 27.375 21H8.625C8.00368 21 7.5 20.4963 7.5 19.875ZM7.62262 11.1143C7.5 11.3549 7.5 11.6699 7.5 12.3V14.7C7.5 15.3301 7.5 15.6451 7.62262 15.8857C7.73047 16.0974 7.90258 16.2695 8.11426 16.3774C8.35491 16.5 8.66994 16.5 9.3 16.5H16.2C16.8301 16.5 17.1451 16.5 17.3857 16.3774C17.5974 16.2695 17.7695 16.0974 17.8774 15.8857C18 15.6451 18 15.3301 18 14.7V12.3C18 11.6699 18 11.3549 17.8774 11.1143C17.7695 10.9026 17.5974 10.7305 17.3857 10.6226C17.1451 10.5 16.8301 10.5 16.2 10.5H9.3C8.66994 10.5 8.35491 10.5 8.11426 10.6226C7.90258 10.7305 7.73047 10.9026 7.62262 11.1143Z" fill="white"/>
</svg>
