<svg width="36" height="36" viewBox="0 0 36 36" fill="none" xmlns="http://www.w3.org/2000/svg">
<path fill-rule="evenodd" clip-rule="evenodd" d="M17.9917 3.07122C17.6837 2.94829 17.3347 2.98611 17.0601 3.17217C16.7855 3.35823 16.6211 3.66833 16.6211 4V22.1037C15.4927 21.0498 13.9763 20.4048 12.3099 20.4048C8.82733 20.4048 6 23.2218 6 26.7019C6 30.1819 8.82733 32.9989 12.3099 32.9989C15.7925 32.9989 18.6198 30.1819 18.6198 26.7019C18.6198 26.7018 18.6198 26.7019 18.6198 26.7019L18.6211 26.7018V13.4213L28.6289 17.4148C28.9369 17.5377 29.2859 17.4999 29.5605 17.3138C29.835 17.1278 29.9995 16.8177 29.9995 16.486V10.0651C29.9995 8.73513 29.1892 7.53939 27.954 7.0465L17.9917 3.07122ZM27.9995 15.0103L18.6211 11.268V5.47571L27.2128 8.90407C27.6879 9.09365 27.9995 9.55354 27.9995 10.0651V15.0103ZM8 26.7019C8 24.3309 9.92733 22.4048 12.3099 22.4048C14.6925 22.4048 16.6198 24.3309 16.6198 26.7019C16.6198 29.0728 14.6925 30.9989 12.3099 30.9989C9.92733 30.9989 8 29.0728 8 26.7019Z" fill="white"/>
</svg>
