<svg width="36" height="36" viewBox="0 0 36 36" fill="none" xmlns="http://www.w3.org/2000/svg">
<path fill-rule="evenodd" clip-rule="evenodd" d="M27.1082 24.1571C27.3946 24.1571 27.6664 24.1572 27.8953 24.1384C28.1448 24.1181 28.4299 24.0706 28.7147 23.9255C29.1146 23.7218 29.4397 23.3967 29.6434 22.9968C29.7885 22.712 29.836 22.4269 29.8564 22.1774C29.8751 21.9485 29.875 21.6767 29.875 21.3903V10.7668C29.875 10.4804 29.8751 10.2086 29.8564 9.97968C29.836 9.73024 29.7885 9.44507 29.6434 9.16028C29.4397 8.76043 29.1146 8.43535 28.7147 8.23162C28.4299 8.08651 28.1448 8.03903 27.8953 8.01865C27.6664 7.99995 27.3946 7.99998 27.1082 8L8.89182 8C8.60545 7.99998 8.3336 7.99995 8.10467 8.01865C7.85523 8.03903 7.57006 8.08651 7.28527 8.23162C6.88543 8.43535 6.56034 8.76043 6.35661 9.16028C6.2115 9.44507 6.16403 9.73024 6.14365 9.97968C6.12494 10.2086 6.12497 10.4804 6.125 10.7667V21.3903C6.12497 21.6766 6.12494 21.9485 6.14365 22.1774C6.16403 22.4269 6.2115 22.712 6.35661 22.9968C6.56034 23.3967 6.88543 23.7218 7.28527 23.9255C7.57006 24.0706 7.85523 24.1181 8.10467 24.1384C8.3336 24.1572 8.60544 24.1571 8.8918 24.1571H27.1082ZM27.8522 22.1041C27.8439 22.1158 27.8337 22.126 27.822 22.1343C27.8069 22.1371 27.7787 22.1413 27.7325 22.1451C27.595 22.1563 27.4065 22.1571 27.075 22.1571H8.925C8.59347 22.1571 8.40496 22.1563 8.26753 22.1451C8.22133 22.1413 8.19309 22.1371 8.17804 22.1343C8.1663 22.126 8.15606 22.1158 8.1478 22.1041C8.14504 22.089 8.14078 22.0608 8.137 22.0146C8.12578 21.8771 8.125 21.6886 8.125 21.3571V10.8C8.125 10.4685 8.12578 10.28 8.137 10.1425C8.14078 10.0963 8.14504 10.0681 8.14779 10.053C8.15606 10.0413 8.16629 10.0311 8.17802 10.0228C8.19307 10.02 8.22132 10.0158 8.26753 10.012C8.40496 10.0008 8.59347 10 8.925 10H27.075C27.4065 10 27.595 10.0008 27.7325 10.012C27.7787 10.0158 27.8069 10.02 27.822 10.0228C27.8337 10.0311 27.8439 10.0413 27.8522 10.053C27.855 10.0681 27.8592 10.0963 27.863 10.1425C27.8742 10.28 27.875 10.4685 27.875 10.8V21.3571C27.875 21.6886 27.8742 21.8771 27.863 22.0146C27.8592 22.0608 27.855 22.089 27.8522 22.1041Z" fill="white"/>
<path d="M4.11801 25.7657C3.50055 25.7657 3 26.2662 3 26.8837C3 27.5011 3.50055 28.0017 4.11801 28.0017H31.882C32.4994 28.0017 33 27.5011 33 26.8837C33 26.2662 32.4995 25.7657 31.882 25.7657H4.11801Z" fill="white"/>
</svg>
