<svg width="36" height="36" viewBox="0 0 36 36" fill="none" xmlns="http://www.w3.org/2000/svg">
<path d="M16.6117 8.00001L8.89182 8.00001C8.60548 7.99998 8.33358 7.99995 8.10467 8.01866C7.85523 8.03904 7.57006 8.08651 7.28527 8.23162C6.88543 8.43535 6.56034 8.76043 6.35661 9.16028C6.2115 9.44507 6.16403 9.73024 6.14365 9.97968C6.12494 10.2086 6.12497 10.4804 6.125 10.7667V21.3903C6.12497 21.6766 6.12494 21.9485 6.14365 22.1774C6.16403 22.4269 6.2115 22.712 6.35661 22.9968C6.56034 23.3967 6.88543 23.7218 7.28527 23.9255C7.57006 24.0706 7.85523 24.1181 8.10467 24.1385C8.3336 24.1572 8.60544 24.1571 8.8918 24.1571H27.1082C27.3946 24.1571 27.6664 24.1572 27.8953 24.1385C28.1448 24.1181 28.4299 24.0706 28.7147 23.9255C29.1146 23.7218 29.4397 23.3967 29.6434 22.9968C29.7885 22.712 29.836 22.4269 29.8564 22.1774C29.8751 21.9485 29.875 21.6767 29.875 21.3903L29.875 18.9162C29.2359 19.1452 28.5667 19.3111 27.875 19.4062V21.3571C27.875 21.6886 27.8742 21.8771 27.863 22.0146C27.8592 22.0608 27.855 22.089 27.8522 22.1041C27.8439 22.1158 27.8337 22.126 27.822 22.1343C27.8069 22.1371 27.7787 22.1413 27.7325 22.1451C27.595 22.1563 27.4065 22.1571 27.075 22.1571H8.925C8.59347 22.1571 8.40496 22.1563 8.26753 22.1451C8.22133 22.1413 8.19309 22.1371 8.17804 22.1343C8.1663 22.126 8.15606 22.1158 8.1478 22.1041C8.14504 22.089 8.14078 22.0608 8.137 22.0146C8.12578 21.8771 8.125 21.6886 8.125 21.3571V10.8C8.125 10.4685 8.12578 10.28 8.137 10.1425C8.14078 10.0963 8.14504 10.0681 8.14779 10.053C8.15606 10.0413 8.16629 10.0311 8.17802 10.0228C8.19307 10.0201 8.22132 10.0158 8.26753 10.012C8.40496 10.0008 8.59347 10 8.925 10H16.5123C16.5041 9.83437 16.5 9.66767 16.5 9.5C16.5 8.99019 16.5381 8.4893 16.6117 8.00001Z" fill="white"/>
<path d="M3 26.8837C3 26.2662 3.50055 25.7657 4.11801 25.7657H31.882C32.4995 25.7657 33 26.2662 33 26.8837C33 27.5011 32.4994 28.0017 31.882 28.0017H4.11801C3.50055 28.0017 3 27.5011 3 26.8837Z" fill="white"/>
<path fill-rule="evenodd" clip-rule="evenodd" d="M35 9.5C35 14.1944 31.1944 18 26.5 18C21.8056 18 18 14.1944 18 9.5C18 4.80558 21.8056 1 26.5 1C31.1944 1 35 4.80558 35 9.5ZM22.175 9.0965C22.3179 8.56304 22.8662 8.24645 23.3997 8.38939C24.2696 8.62247 25.0382 9.13607 25.5864 9.85052C26.1347 10.565 26.4318 11.4404 26.4318 12.3409C26.4318 12.8932 25.9841 13.3409 25.4318 13.3409C24.8795 13.3409 24.4318 12.8932 24.4318 12.3409C24.4318 11.8806 24.2799 11.4332 23.9997 11.068C23.7195 10.7029 23.3267 10.4404 22.8821 10.3212C22.3486 10.1783 22.032 9.62997 22.175 9.0965ZM24.2861 4.29737C23.7526 4.15443 23.2043 4.47102 23.0613 5.00448C22.9184 5.53795 23.235 6.08628 23.7684 6.22923C25.1989 6.61251 26.4629 7.45709 27.3644 8.63197C28.2659 9.80685 28.7545 11.2464 28.7545 12.7273C28.7545 13.2796 29.2023 13.7273 29.7545 13.7273C30.3068 13.7273 30.7545 13.2796 30.7545 12.7273C30.7545 10.8061 30.1206 8.93861 28.9511 7.41444C27.7815 5.89028 26.1418 4.79461 24.2861 4.29737Z" fill="white"/>
</svg>
