<svg width="36" height="36" viewBox="0 0 36 36" fill="none" xmlns="http://www.w3.org/2000/svg">
<path d="M9.24549 19.1762C9.89821 18.9642 10.6016 18.9642 11.2543 19.1762C11.6867 19.3167 12.0421 19.5614 12.3764 19.8452C12.6947 20.1154 13.0533 20.4743 13.475 20.896L15.8637 23.2846C16.2853 23.7062 16.6442 24.065 16.9144 24.3833C17.1982 24.7175 17.4429 25.073 17.5834 25.5053C17.7955 26.1581 17.7955 26.8614 17.5834 27.5141C17.4429 27.9465 17.1982 28.302 16.9144 28.6362C16.6442 28.9545 16.2853 29.3132 15.8637 29.7348L13.475 32.1235C13.0533 32.5452 12.6947 32.904 12.3764 33.1743C12.0421 33.4581 11.6867 33.7027 11.2543 33.8432C10.6016 34.0553 9.89821 34.0553 9.24549 33.8432C8.81328 33.7027 8.45855 33.4579 8.1244 33.1743C7.80605 32.904 7.44651 32.5453 7.02479 32.1235L4.63612 29.7348C4.21442 29.3132 3.85558 28.9545 3.58534 28.6362C3.30156 28.3019 3.05689 27.9465 2.91639 27.5141C2.7043 26.8614 2.7043 26.1581 2.91639 25.5053C3.0569 25.073 3.30157 24.7175 3.58534 24.3833C3.85558 24.065 4.21443 23.7063 4.63612 23.2846L7.02577 20.896C7.44745 20.4743 7.80608 20.1154 8.1244 19.8452C8.45854 19.5615 8.81329 19.3167 9.24549 19.1762Z" fill="white"/>
<path d="M28.8148 20.2632C29.4111 20.2631 29.9182 20.2624 30.3344 20.2964C30.7714 20.3321 31.1959 20.4103 31.601 20.6167C32.2124 20.9283 32.7093 21.4261 33.0209 22.0376C33.2271 22.4425 33.3055 22.8664 33.3412 23.3032C33.3752 23.7194 33.3754 24.2272 33.3754 24.8237V28.2016C33.3754 28.7981 33.3752 29.3059 33.3412 29.7221C33.3055 30.159 33.2271 30.5828 33.0209 30.9878C32.7093 31.5992 32.2124 32.0971 31.601 32.4087C31.1959 32.6151 30.7714 32.6933 30.3344 32.729C29.9182 32.763 29.4111 32.7632 28.8148 32.7632H25.4359C24.8395 32.7632 24.3316 32.763 23.9154 32.729C23.4786 32.6933 23.0547 32.6149 22.6498 32.4087C22.0383 32.0971 21.5405 31.5993 21.2289 30.9878C21.0227 30.5828 20.9443 30.1589 20.9086 29.7221C20.8746 29.306 20.8754 28.7989 20.8754 28.2026V24.8237C20.8754 24.2273 20.8746 23.7194 20.9086 23.3032C20.9443 22.8664 21.0227 22.4425 21.2289 22.0376C21.5405 21.426 22.0383 20.9283 22.6498 20.6167C23.0547 20.4104 23.4786 20.3321 23.9154 20.2964C24.3316 20.2624 24.8395 20.2631 25.4359 20.2632H28.8148Z" fill="white"/>
<path fill-rule="evenodd" clip-rule="evenodd" d="M10.6254 3.38816C14.2841 3.38832 17.2504 6.35437 17.2504 10.0132C17.2502 13.6718 14.284 16.638 10.6254 16.6382C6.96662 16.6382 4.00059 13.6719 4.00037 10.0132C4.00037 6.35427 6.96649 3.38816 10.6254 3.38816ZM10.6254 5.38816C8.07106 5.38816 6.00037 7.45884 6.00037 10.0132C6.00059 12.5673 8.07119 14.6382 10.6254 14.6382C13.1794 14.638 15.2502 12.5672 15.2504 10.0132C15.2504 7.45894 13.1796 5.38832 10.6254 5.38816Z" fill="white"/>
<path d="M24.9633 4.2446C25.9269 2.58517 28.3239 2.5851 29.2875 4.2446L33.432 11.3823C34.3996 13.0488 33.1969 15.1379 31.2699 15.1382H22.9808C21.0536 15.1382 19.851 13.049 20.8187 11.3823L24.9633 4.2446Z" fill="white"/>
</svg>
