<svg width="36" height="36" viewBox="0 0 36 36" fill="none" xmlns="http://www.w3.org/2000/svg">
<path fill-rule="evenodd" clip-rule="evenodd" d="M6 7.5C4.34 7.5 3 8.84 3 10.5V25.5C3 27.15 4.34 28.5 6 28.5H13.5C15.15 28.5 16.5 27.15 16.5 25.5V10.5C16.5 8.84 15.15 7.5 13.5 7.5H6ZM22.5 7.5C20.84 7.5 19.5 8.84 19.5 10.5V25.5C19.5 27.15 20.84 28.5 22.5 28.5H30C31.65 28.5 33 27.15 33 25.5V10.5C33 8.84 31.65 7.5 30 7.5H22.5ZM6 9.5C5.44 9.5 5 9.94 5 10.5V25.5C5 26.05 5.44 26.5 6 26.5H13.5C14.05 26.5 14.5 26.05 14.5 25.5V10.5C14.5 9.94 14.05 9.5 13.5 9.5H6ZM22.5 9.5C21.94 9.5 21.5 9.94 21.5 10.5V25.5C21.5 26.05 21.94 26.5 22.5 26.5H30C30.55 26.5 31 26.05 31 25.5V10.5C31 9.94 30.55 9.5 30 9.5H22.5ZM11.4 12.27L6.17 17.17C5.7 17.62 5.7 18.37 6.17 18.82L11.4 23.72C12.12 24.39 13.3 23.88 13.3 22.9V13.09C13.3 12.11 12.12 11.6 11.4 12.27ZM29.82 17.17L24.59 12.27C23.87 11.6 22.69 12.11 22.69 13.09V22.9C22.69 23.88 23.87 24.39 24.59 23.72L29.82 18.82C30.29 18.37 30.29 17.62 29.82 17.17Z" fill="white"/>
</svg>
