<svg width="36" height="36" viewBox="0 0 36 36" fill="none" xmlns="http://www.w3.org/2000/svg">
<path fill-rule="evenodd" clip-rule="evenodd" d="M11.4575 4.5H24.5411C25.5551 4.49999 26.3768 4.49998 27.043 4.55441C27.7302 4.61056 28.3395 4.72956 28.9051 5.01772C29.7988 5.47312 30.5255 6.19978 30.9809 7.09355C31.2691 7.6591 31.3881 8.26841 31.4442 8.95558C31.4986 9.62178 31.4986 10.4435 31.4986 11.4575V24.5411C31.4986 25.5551 31.4986 26.3768 31.4442 27.043C31.3881 27.7302 31.2691 28.3395 30.9809 28.9051C30.5255 29.7988 29.7988 30.5255 28.9051 30.9809C28.3395 31.2691 27.7302 31.3881 27.043 31.4442C26.3768 31.4986 25.5552 31.4986 24.5411 31.4986H11.4575C10.4435 31.4986 9.62178 31.4986 8.95558 31.4442C8.26842 31.3881 7.6591 31.2691 7.09355 30.9809C6.19978 30.5255 5.47312 29.7988 5.01772 28.9051C4.72956 28.3395 4.61056 27.7302 4.55441 27.043C4.49998 26.3768 4.49999 25.5551 4.5 24.5411V11.4575C4.49999 10.4435 4.49998 9.62178 4.55441 8.95558C4.61056 8.26842 4.72956 7.6591 5.01772 7.09355C5.47312 6.19978 6.19978 5.47312 7.09355 5.01772C7.6591 4.72956 8.26841 4.61056 8.95558 4.55441C9.62178 4.49998 10.4435 4.49999 11.4575 4.5ZM13.4538 12.0752C12.9015 12.0752 12.4538 12.5229 12.4538 13.0752C12.4538 13.6275 12.9015 14.0752 13.4538 14.0752H20.5088L11.9892 22.5948C11.5987 22.9853 11.5987 23.6185 11.9892 24.009C12.3797 24.3995 13.0129 24.3995 13.4034 24.009L21.923 15.4894V22.5444C21.923 23.0967 22.3707 23.5444 22.923 23.5444C23.4753 23.5444 23.923 23.0967 23.923 22.5444V13.0752C23.923 12.5229 23.4753 12.0752 22.923 12.0752H13.4538Z" fill="white"/>
</svg>
