<svg width="36" height="36" viewBox="0 0 36 36" fill="none" xmlns="http://www.w3.org/2000/svg">
<path fill-rule="evenodd" clip-rule="evenodd" d="M13.5 7.5C15.1569 7.5 16.5 8.84315 16.5 10.5V25.5C16.5 27.1569 15.1569 28.5 13.5 28.5H6C4.34315 28.5 3 27.1569 3 25.5V10.5C3 8.84315 4.34315 7.5 6 7.5H13.5ZM13.5 12.9023C13.5 11.9486 12.388 11.4276 11.6553 12.0381L5.53711 17.1357C4.99739 17.5855 4.99739 18.4145 5.53711 18.8643L11.6553 23.9619C12.388 24.5724 13.5 24.0514 13.5 23.0977V12.9023Z" fill="white" fill-opacity="0.96"/>
<path fill-rule="evenodd" clip-rule="evenodd" d="M30 7.5C31.6569 7.5 33 8.84315 33 10.5V25.5C33 27.1569 31.6569 28.5 30 28.5H22.5C20.8431 28.5 19.5 27.1569 19.5 25.5V10.5C19.5 8.84315 20.8431 7.5 22.5 7.5H30ZM24.3447 12.0381C23.612 11.4276 22.5 11.9486 22.5 12.9023V23.0977C22.5 24.0514 23.612 24.5724 24.3447 23.9619L30.4629 18.8643C31.0026 18.4145 31.0026 17.5855 30.4629 17.1357L24.3447 12.0381Z" fill="white" fill-opacity="0.96"/>
</svg>
