<svg width="36" height="36" viewBox="0 0 36 36" fill="none" xmlns="http://www.w3.org/2000/svg">
<path fill-rule="evenodd" clip-rule="evenodd" d="M6 7.5H13.5C15.15 7.5 16.5 8.84 16.5 10.5V25.5C16.5 27.15 15.15 28.5 13.5 28.5H6C4.34 28.5 3 27.15 3 25.5V10.5C3 8.84 4.34 7.5 6 7.5ZM30 7.5H22.5C20.84 7.5 19.5 8.84 19.5 10.5V25.5C19.5 27.15 20.84 28.5 22.5 28.5H30C31.65 28.5 33 27.15 33 25.5V10.5C33 8.84 31.65 7.5 30 7.5ZM6.17 17.17L11.4 12.27C12.12 11.6 13.3 12.11 13.3 13.09V22.9C13.3 23.88 12.12 24.39 11.4 23.72L6.17 18.82C5.7 18.37 5.7 17.62 6.17 17.17ZM24.59 12.27L29.82 17.17C30.29 17.62 30.29 18.37 29.82 18.82L24.59 23.72C23.87 24.39 22.69 23.88 22.69 22.9V13.09C22.69 12.11 23.87 11.6 24.59 12.27Z" fill="white"/>
</svg>
