<svg width="36" height="36" viewBox="0 0 36 36" fill="none" xmlns="http://www.w3.org/2000/svg">
<path fill-rule="evenodd" clip-rule="evenodd" d="M16.8036 4.08707C25.8035 3.08714 32.6151 10.9065 31.8651 16.9064C31.8649 17.6571 31.1147 21.0315 28.8651 22.1564C25.8652 23.6563 23.0526 22.1565 21.3651 24.4064C19.6777 26.6563 23.0805 29.5126 20.6151 31.1564C16.1151 34.1564 4.86602 29.587 4.05359 19.8371C3.36645 11.5876 9.34814 4.91575 16.8036 4.08707ZM14.9296 23.9621C13.6871 23.9622 12.6798 24.9697 12.6796 26.2121C12.6796 27.4547 13.687 28.462 14.9296 28.4621C16.172 28.4618 17.1796 27.4546 17.1796 26.2121C17.1793 24.9698 16.1719 23.9623 14.9296 23.9621ZM10.0546 18.3371C8.81214 18.3372 7.8048 19.3447 7.80457 20.5871C7.80457 21.8297 8.812 22.837 10.0546 22.8371C11.297 22.8368 12.3046 21.8296 12.3046 20.5871C12.3043 19.3448 11.2969 18.3373 10.0546 18.3371ZM25.8046 12.3371C24.5621 12.3372 23.5548 13.3447 23.5546 14.5871C23.5546 15.8297 24.562 16.837 25.8046 16.8371C27.047 16.8368 28.0546 15.8296 28.0546 14.5871C28.0543 13.3448 27.0469 12.3373 25.8046 12.3371ZM11.5546 10.8371C10.3121 10.8372 9.3048 11.8447 9.30457 13.0871C9.30457 14.3297 10.312 15.337 11.5546 15.3371C12.797 15.3368 13.8046 14.3296 13.8046 13.0871C13.8043 11.8448 12.7969 10.8373 11.5546 10.8371ZM19.0546 7.83707C17.8121 7.83716 16.8048 8.84468 16.8046 10.0871C16.8046 11.3297 17.812 12.337 19.0546 12.3371C20.297 12.3368 21.3046 11.3296 21.3046 10.0871C21.3043 8.84478 20.2969 7.83732 19.0546 7.83707Z" fill="white"/>
</svg>
