<svg width="36" height="36" viewBox="0 0 36 36" fill="none" xmlns="http://www.w3.org/2000/svg">
<path fill-rule="evenodd" clip-rule="evenodd" d="M8.87935 6H27.1207C27.9219 5.99999 28.5907 5.99997 29.137 6.04461C29.7068 6.09117 30.2418 6.19183 30.7477 6.4496C31.5239 6.84508 32.1549 7.47612 32.5504 8.25229C32.8082 8.75818 32.9088 9.29317 32.9554 9.863C33 10.4093 33 11.0781 33 11.8793V24.1207C33 24.9219 33 25.5907 32.9554 26.137C32.9088 26.7068 32.8082 27.2418 32.5504 27.7477C32.1549 28.5239 31.5239 29.1549 30.7477 29.5504C30.2418 29.8082 29.7068 29.9088 29.137 29.9554C28.5907 30 27.922 30 27.1208 30H8.87932C8.07816 30 7.40931 30 6.863 29.9554C6.29317 29.9088 5.75819 29.8082 5.25229 29.5504C4.47612 29.1549 3.84508 28.5239 3.4496 27.7477C3.19183 27.2418 3.09117 26.7068 3.04461 26.137C2.99997 25.5907 2.99998 24.9219 3 24.1207V11.8793C2.99998 11.0781 2.99997 10.4093 3.04461 9.863C3.09117 9.29317 3.19183 8.75818 3.4496 8.25229C3.84508 7.47612 4.47612 6.84508 5.25229 6.4496C5.75819 6.19183 6.29317 6.09117 6.863 6.04461C7.40934 5.99997 8.07813 5.99999 8.87935 6ZM25.5 8.25C24.2574 8.25 23.25 9.25736 23.25 10.5V25.5C23.25 26.7426 24.2574 27.75 25.5 27.75H28.5C29.7426 27.75 30.75 26.7426 30.75 25.5V10.5C30.75 9.25736 29.7426 8.25 28.5 8.25H25.5Z" fill="white"/>
</svg>
