<svg width="36" height="36" viewBox="0 0 36 36" fill="none" xmlns="http://www.w3.org/2000/svg">
<path fill-rule="evenodd" clip-rule="evenodd" d="M10.0669 8.15312C10.0669 6.27709 11.5837 4.75 13.4626 4.75C15.3414 4.75 16.8583 6.27709 16.8583 8.15312C16.8583 10.0291 15.3414 11.5562 13.4626 11.5562C11.5837 11.5562 10.0669 10.0291 10.0669 8.15312ZM6.6457 12.3027C4.76685 12.3027 3.25 13.8298 3.25 15.7059C3.25 17.5819 4.76685 19.109 6.6457 19.109C8.52455 19.109 10.0414 17.5819 10.0414 15.7059C10.0414 13.8298 8.52455 12.3027 6.6457 12.3027ZM22.0304 16.0771C20.1202 13.0551 15.889 13.0551 13.9789 16.0771L9.36499 23.3767C7.3021 26.6404 9.41592 31.2481 13.3907 31.2481H22.6186C26.5933 31.2481 28.7072 26.6404 26.6443 23.3767L22.0304 16.0771ZM29.3527 12.3027C27.4739 12.3027 25.957 13.8298 25.957 15.7059C25.957 17.5819 27.4739 19.109 29.3527 19.109C31.2316 19.109 32.7484 17.5819 32.7484 15.7059C32.7484 13.8298 31.2316 12.3027 29.3527 12.3027ZM19.1499 8.15312C19.1499 6.27709 20.6667 4.75 22.5456 4.75C24.4244 4.75 25.9413 6.27709 25.9413 8.15312C25.9413 10.0291 24.4244 11.5562 22.5456 11.5562C20.6667 11.5562 19.1499 10.0291 19.1499 8.15312Z" fill="white"/>
</svg>
