<svg width="36" height="36" viewBox="0 0 36 36" fill="none" xmlns="http://www.w3.org/2000/svg">
<path fill-rule="evenodd" clip-rule="evenodd" d="M9.53906 11.9306C9.53906 9.75742 11.2957 8 13.4574 8C15.6191 8 17.3757 9.75742 17.3757 11.9306C17.3757 14.1037 15.6191 15.8611 13.4574 15.8611C11.2957 15.8611 9.53906 14.1037 9.53906 11.9306ZM13.4574 6C10.1864 6 7.53906 8.65755 7.53906 11.9306C7.53906 15.2036 10.1864 17.8611 13.4574 17.8611C16.7283 17.8611 19.3757 15.2036 19.3757 11.9306C19.3757 8.65755 16.7283 6 13.4574 6ZM5.66651 24.7577C7.89981 23.2752 10.5766 22.4121 13.4574 22.4121C16.3391 22.4121 19.0167 23.2758 21.2505 24.7591C21.6574 25.0293 21.9165 25.5307 21.9165 26.1196C21.9165 27.157 21.0756 27.998 20.0382 27.998H6.87911C5.84131 27.998 5 27.1566 5 26.1188C5 25.5297 5.25931 25.028 5.66651 24.7577ZM13.4574 20.4121C10.1709 20.4121 7.11119 21.3982 4.56044 23.0913C3.51384 23.7861 3 24.9631 3 26.1188C3 28.2612 4.73674 29.9979 6.87911 29.9979H20.0382C22.1801 29.9979 23.9165 28.2615 23.9165 26.1196C23.9165 24.9642 23.4029 23.7876 22.3568 23.093C19.8056 21.3988 16.745 20.4121 13.4574 20.4121ZM25.689 13.1836C24.4328 13.1836 23.4102 14.2052 23.4102 15.4706C23.4102 16.7361 24.4328 17.7577 25.689 17.7577C26.9453 17.7577 27.9679 16.7361 27.9679 15.4706C27.9679 14.2052 26.9453 13.1836 25.689 13.1836ZM21.4102 15.4706C21.4102 13.1053 23.3235 11.1836 25.689 11.1836C28.0545 11.1836 29.9679 13.1053 29.9679 15.4706C29.9679 17.836 28.0545 19.7577 25.689 19.7577C23.3235 19.7577 21.4102 17.836 21.4102 15.4706ZM25.5636 26.3428C25.5636 26.8627 25.4984 27.3673 25.3757 27.8489H30.0788C31.6909 27.8489 32.9977 26.542 32.9977 24.9299C32.9977 24.0651 32.6129 23.1681 31.8088 22.6343C30.0552 21.4701 27.9513 20.792 25.6923 20.792C24.6629 20.792 23.6657 20.9328 22.7192 21.1963C23.4116 21.6311 24.01 22.2024 24.4769 22.8727C24.8744 22.8195 25.2801 22.792 25.6923 22.792C27.5455 22.792 29.2665 23.3471 30.7026 24.3005C30.8674 24.4099 30.9977 24.6317 30.9977 24.9299C30.9977 25.4374 30.5863 25.8489 30.0788 25.8489H25.5438C25.5569 26.0118 25.5636 26.1765 25.5636 26.3428Z" fill="white"/>
</svg>
