<svg width="36" height="36" viewBox="0 0 36 36" fill="none" xmlns="http://www.w3.org/2000/svg">
<path d="M27 3C30.3137 3 33 5.68629 33 9V27C33 27.1376 32.9935 27.2739 32.9844 27.4092C32.9665 27.6743 32.933 27.9348 32.8818 28.1895C32.8494 28.3506 32.8087 28.5088 32.7637 28.665C32.7559 28.692 32.7494 28.7193 32.7412 28.7461C32.7232 28.8053 32.7024 28.8634 32.6826 28.9219C32.6709 28.9564 32.6598 28.9911 32.6475 29.0254C32.6299 29.0742 32.6115 29.1226 32.5928 29.1709C32.576 29.214 32.5597 29.2572 32.542 29.2998C32.5289 29.3312 32.5155 29.3624 32.502 29.3936C32.4769 29.4511 32.4506 29.5079 32.4238 29.5645C32.4052 29.6038 32.3857 29.6427 32.3662 29.6816C32.3419 29.7301 32.3175 29.7784 32.292 29.8262C32.2723 29.8629 32.2519 29.8992 32.2314 29.9355C32.2077 29.9778 32.1839 30.0199 32.1592 30.0615C32.1338 30.1041 32.1084 30.1466 32.082 30.1885C32.0572 30.2279 32.0316 30.2668 32.0059 30.3057C31.9818 30.3421 31.9575 30.3782 31.9326 30.4141C31.9029 30.4569 31.8725 30.499 31.8418 30.541C31.8192 30.5718 31.7966 30.6025 31.7734 30.6328C31.7365 30.6813 31.6986 30.729 31.6602 30.7764C31.6373 30.8046 31.6142 30.8326 31.5908 30.8604C31.5539 30.9042 31.5166 30.9475 31.4785 30.9902C31.4503 31.0219 31.4215 31.0529 31.3926 31.084C31.3552 31.1241 31.3177 31.164 31.2793 31.2031C31.2567 31.2261 31.2339 31.2489 31.2109 31.2715C31.1663 31.3155 31.1212 31.3588 31.0752 31.4014C31.0497 31.425 31.024 31.4485 30.998 31.4717C30.9544 31.5108 30.9101 31.5491 30.8652 31.5869C30.8343 31.613 30.803 31.6386 30.7715 31.6641C30.7306 31.6972 30.6892 31.7297 30.6475 31.7617C30.6172 31.7849 30.5873 31.8084 30.5566 31.8311C30.5123 31.8638 30.4671 31.8953 30.4219 31.9268C30.3828 31.9539 30.3434 31.9806 30.3037 32.0068C30.2739 32.0266 30.2441 32.0462 30.2139 32.0654C30.1626 32.098 30.1109 32.1301 30.0586 32.1611C30.0219 32.1829 29.9845 32.2036 29.9473 32.2246C29.909 32.2463 29.8709 32.2682 29.832 32.2891C29.7831 32.3153 29.7334 32.3403 29.6836 32.3652C29.6437 32.3853 29.6039 32.4057 29.5635 32.4248C29.5311 32.4401 29.4985 32.455 29.4658 32.4697C29.4099 32.495 29.3537 32.5194 29.2969 32.543C29.2642 32.5565 29.2312 32.569 29.1982 32.582C29.141 32.6046 29.0835 32.6266 29.0254 32.6475C28.9888 32.6606 28.952 32.6731 28.915 32.6855C28.8651 32.7024 28.8152 32.7198 28.7646 32.7354C28.7159 32.7503 28.6665 32.7636 28.6172 32.7773C28.5695 32.7907 28.5218 32.8042 28.4736 32.8164C28.4174 32.8306 28.3606 32.8429 28.3037 32.8555C28.2698 32.863 28.2362 32.872 28.2021 32.8789C28.1349 32.8926 28.0671 32.9036 27.999 32.915C27.9671 32.9204 27.9354 32.9268 27.9033 32.9316C27.8389 32.9414 27.774 32.9484 27.709 32.9561C27.6751 32.96 27.6414 32.9653 27.6074 32.9688C27.5085 32.9787 27.4089 32.9871 27.3086 32.9922C27.2064 32.9974 27.1035 33 27 33H9C8.8965 33 8.79362 32.9974 8.69141 32.9922C8.5911 32.9871 8.49153 32.9787 8.39258 32.9688C8.3707 32.9666 8.34896 32.9634 8.32715 32.9609C8.25119 32.9525 8.17566 32.9429 8.10059 32.9316C8.06199 32.9258 8.02371 32.9186 7.98535 32.9121C7.93013 32.9027 7.87501 32.8937 7.82031 32.8828C7.77483 32.8737 7.72968 32.8636 7.68457 32.8535C7.63655 32.8428 7.5886 32.8322 7.54102 32.8203C7.48759 32.807 7.43469 32.7921 7.38184 32.7773C7.34496 32.767 7.30807 32.7571 7.27148 32.7461C7.22101 32.7309 7.171 32.7147 7.12109 32.6982C7.07664 32.6836 7.03227 32.669 6.98828 32.6533C6.9463 32.6384 6.90483 32.6223 6.86328 32.6064C6.81679 32.5887 6.77054 32.5706 6.72461 32.5518C6.67867 32.5329 6.63325 32.5131 6.58789 32.4932C6.54769 32.4755 6.5075 32.458 6.46777 32.4395C6.42154 32.4179 6.37567 32.3957 6.33008 32.373C6.29172 32.354 6.2537 32.3343 6.21582 32.3145C6.17193 32.2914 6.1282 32.2682 6.08496 32.2441C6.04952 32.2244 6.01449 32.204 5.97949 32.1836C5.93496 32.1576 5.89047 32.1316 5.84668 32.1045C5.80519 32.0788 5.76444 32.0521 5.72363 32.0254C5.68703 32.0015 5.6503 31.9778 5.61426 31.9531C5.56839 31.9217 5.52345 31.8891 5.47852 31.8564C5.44985 31.8356 5.42086 31.8153 5.39258 31.7939C5.3446 31.7578 5.29782 31.7202 5.25098 31.6826C5.22423 31.6612 5.19727 31.6401 5.1709 31.6182C5.12434 31.5795 5.07856 31.54 5.0332 31.5C4.83359 31.3239 4.64634 31.1345 4.47168 30.9336C4.44124 30.8986 4.4105 30.8638 4.38086 30.8281C4.35898 30.8018 4.33784 30.7748 4.31641 30.748C4.2787 30.701 4.24138 30.6537 4.20508 30.6055C4.18322 30.5764 4.16196 30.547 4.14062 30.5176C4.10871 30.4736 4.07663 30.4297 4.0459 30.3848C4.01883 30.3452 3.99294 30.3049 3.9668 30.2646C3.94255 30.2273 3.91797 30.1902 3.89453 30.1523C3.86743 30.1085 3.84143 30.0641 3.81543 30.0195C3.795 29.9845 3.77462 29.9495 3.75488 29.9141C3.72996 29.8693 3.70642 29.8238 3.68262 29.7783C3.66358 29.742 3.64428 29.7057 3.62598 29.6689C3.60154 29.6198 3.5778 29.5704 3.55469 29.5205C3.53521 29.4785 3.51658 29.4361 3.49805 29.3936C3.47983 29.3517 3.46162 29.3099 3.44434 29.2676C3.4265 29.2239 3.40941 29.1799 3.39258 29.1357C3.3758 29.0917 3.35952 29.0475 3.34375 29.0029C3.32906 28.9614 3.31458 28.9198 3.30078 28.8779C3.28435 28.828 3.26808 28.778 3.25293 28.7275C3.24195 28.691 3.23198 28.6541 3.22168 28.6172C3.20656 28.5631 3.19136 28.5088 3.17773 28.4541C3.16621 28.4078 3.15595 28.3612 3.14551 28.3145C3.13499 28.2674 3.12464 28.2203 3.11523 28.1729C3.10389 28.1156 3.09467 28.0578 3.08496 28C3.07858 27.962 3.0711 27.924 3.06543 27.8857C3.03736 27.6961 3.01769 27.5036 3.00781 27.3086L3 27V9C3 5.68629 5.68629 3 9 3H27ZM25.0195 19.627C24.2434 18.7909 23.0184 18.791 22.2422 19.627L16.4863 25.8291L16.4805 25.8359L11.5986 31H23.25L28.1992 30.8164C29.1674 30.5125 29.9759 29.8503 30.4717 28.9854L30.999 27.0107C30.999 27.0072 31 27.0036 31 27V26.0059C30.9155 25.9571 30.8364 25.8956 30.7666 25.8203L25.0195 19.627ZM13.0156 23.6699C12.2394 22.8335 11.0145 22.8334 10.2383 23.6699L5.44531 28.834C6.0939 30.0885 7.38621 30.955 8.88574 30.9971C8.92362 30.9321 8.96956 30.8705 9.02344 30.8135L14.3828 25.1426L13.0156 23.6699ZM11.625 9C10.1753 9 9 10.1753 9 11.625C9 13.0747 10.1753 14.25 11.625 14.25C13.0747 14.25 14.25 13.0747 14.25 11.625C14.25 10.1753 13.0747 9 11.625 9Z" fill="white"/>
</svg>
