<svg width="36" height="36" viewBox="0 0 36 36" fill="none" xmlns="http://www.w3.org/2000/svg">
<path fill-rule="evenodd" clip-rule="evenodd" d="M29.9322 12.1684C29.9991 12.9874 30 14.0363 30 15.525V26.1236C30 26.7449 30.5037 27.2486 31.125 27.2486C31.7463 27.2486 32.25 26.7449 32.25 26.1236V10.6816C32.25 10.0886 32.25 9.57699 32.2156 9.1556C32.1793 8.71083 32.099 8.26846 31.8822 7.84279C31.5586 7.20774 31.0423 6.69143 30.4072 6.36786C29.9815 6.15096 29.5392 6.07073 29.0944 6.03439C28.673 5.99997 28.1615 5.99998 27.5685 6L12.375 6C11.7537 6 11.25 6.50368 11.25 7.125C11.25 7.74632 11.7537 8.25 12.375 8.25H22.725C24.2137 8.25 25.2626 8.25088 26.0816 8.31779C26.8875 8.38364 27.3712 8.50777 27.7477 8.6996C28.5239 9.09508 29.1549 9.72612 29.5504 10.5023C29.7422 10.8788 29.8664 11.3625 29.9322 12.1684ZM9.4123 10.5447H22.0877C22.8957 10.5447 23.5566 10.5447 24.0937 10.5891C24.6496 10.6352 25.1517 10.7333 25.6206 10.9754C26.3544 11.3543 26.951 11.9588 27.3249 12.7024C27.5638 13.1775 27.6607 13.6862 27.7061 14.2495C27.75 14.7937 27.75 15.4633 27.75 16.282V24.2307C27.75 24.6865 27.75 25.0924 27.7433 25.4502C27.7259 26.3857 27.6672 27.161 27.3249 27.8416C26.951 28.5852 26.3544 29.1897 25.6206 29.5686C25.1517 29.8106 24.6496 29.9088 24.0937 29.9548C23.5567 29.9993 22.8957 29.9993 22.0877 29.9993H9.41206C8.60412 29.9993 7.94334 29.9993 7.40632 29.9548C6.85041 29.9088 6.34833 29.8106 5.87944 29.5686C5.34625 29.2933 4.88551 28.8989 4.53 28.4186C4.3962 28.2378 4.27731 28.0449 4.17508 27.8416C3.93617 27.3665 3.83928 26.8578 3.79386 26.2945C3.74998 25.7503 3.74999 25.0807 3.75 24.2619V16.2821C3.74999 15.4633 3.74998 14.7937 3.79386 14.2495C3.83928 13.6862 3.93617 13.1775 4.17508 12.7024C4.54898 11.9588 5.14561 11.3543 5.87944 10.9754C6.34833 10.7333 6.85041 10.6352 7.40632 10.5891C7.94339 10.5447 8.60426 10.5447 9.4123 10.5447ZM25.9324 25.7995L21.6107 21.4205C21.0249 20.8269 20.0751 20.8269 19.4893 21.4205L12.8228 28.1754H22.05C22.9049 28.1754 23.492 28.1747 23.9471 28.137C24.3917 28.1002 24.6305 28.0327 24.8034 27.9435C25.1985 27.7395 25.5198 27.414 25.7211 27.0136C25.8357 26.7856 25.9038 26.4713 25.9324 25.7995ZM10.2772 28.1754L12.9772 25.4396L12.0107 24.4602C11.4249 23.8667 10.4751 23.8667 9.88934 24.4602L6.54008 27.8539C6.59082 27.8859 6.64304 27.9158 6.69662 27.9435C6.86947 28.0327 7.1083 28.1002 7.5529 28.137C8.008 28.1747 8.59507 28.1754 9.45 28.1754H10.2772ZM12.15 17.2322C12.15 18.2395 11.3441 19.0561 10.35 19.0561C9.35589 19.0561 8.55 18.2395 8.55 17.2322C8.55 16.2249 9.35589 15.4083 10.35 15.4083C11.3441 15.4083 12.15 16.2249 12.15 17.2322Z" fill="white"/>
</svg>
