<svg width="36" height="36" viewBox="0 0 36 36" fill="none" xmlns="http://www.w3.org/2000/svg">
<path d="M27 3C30.3137 3 33 5.68629 33 9V27C33 30.2102 30.4789 32.8316 27.3086 32.9922L27 33H9L8.69141 32.9922C5.62332 32.8368 3.16325 30.3767 3.00781 27.3086L3 27V9C3 5.68629 5.68629 3 9 3H27ZM25.0195 19.627C24.2434 18.7909 23.0184 18.791 22.2422 19.627L16.4863 25.8291L16.4805 25.8359L11.5986 31H27C29.2091 31 31 29.2091 31 27V26.0059C30.9155 25.9571 30.8364 25.8956 30.7666 25.8203L25.0195 19.627ZM13.0156 23.6699C12.2394 22.8335 11.0145 22.8334 10.2383 23.6699L5.44531 28.834C6.0939 30.0885 7.38621 30.955 8.88574 30.9971C8.92362 30.9321 8.96956 30.8705 9.02344 30.8135L14.3828 25.1426L13.0156 23.6699ZM9 5C6.79086 5 5 6.79086 5 9V26.374L8.77246 22.3096C10.3401 20.6203 12.9148 20.6203 14.4824 22.3096L15.7529 23.6787L20.7754 18.2666C22.3429 16.5775 24.9177 16.5777 26.4854 18.2666L31 23.1309V9C31 6.79086 29.2091 5 27 5H9ZM11.625 9C13.0747 9 14.25 10.1753 14.25 11.625C14.25 13.0747 13.0747 14.25 11.625 14.25C10.1753 14.25 9 13.0747 9 11.625C9 10.1753 10.1753 9 11.625 9Z" fill="white"/>
</svg>
