<svg width="36" height="36" viewBox="0 0 36 36" fill="none" xmlns="http://www.w3.org/2000/svg">
<path fill-rule="evenodd" clip-rule="evenodd" d="M10.0112 6C8.98785 5.99999 8.15901 5.99998 7.4871 6.05501C6.79414 6.11177 6.1804 6.23202 5.61104 6.52283C4.71074 6.98266 3.97923 7.71616 3.52094 8.61779C3.23126 9.1877 3.11143 9.80203 3.05485 10.4961C2.99998 11.1694 2.99999 12 3 13.026V22.9722C2.99999 23.9983 2.99998 24.8289 3.05485 25.5021C3.11143 26.1962 3.23126 26.8105 3.52094 27.3805C3.64625 27.627 3.79199 27.861 3.95603 28.0802C4.39188 28.6627 4.95691 29.1413 5.61104 29.4754C6.1804 29.7662 6.79414 29.8865 7.4871 29.9432C8.15901 29.9983 8.98783 29.9983 10.0112 29.9982H25.9877C27.011 29.9983 27.8399 29.9983 28.5118 29.9432C29.2047 29.8865 29.8185 29.7662 30.3878 29.4754C31.2881 29.0156 32.0196 28.2821 32.4779 27.3805C32.8935 26.5628 32.9685 25.6253 32.9905 24.4575C32.9989 24.0123 32.9989 23.5068 32.9989 22.9371V13.026C32.9989 12 32.9989 11.1694 32.944 10.4961C32.8874 9.80203 32.7676 9.1877 32.4779 8.61779C32.0196 7.71616 31.2881 6.98266 30.3878 6.52283C29.8185 6.23202 29.2047 6.11177 28.5118 6.05501C27.8399 5.99998 27.011 5.99999 25.9877 6H10.0112ZM6.52076 8.30395C6.76076 8.18137 7.08146 8.09493 7.65036 8.04834C8.231 8.00078 8.97776 8 10.0538 8H25.9451C27.0211 8 27.7679 8.00078 28.3485 8.04834C28.9174 8.09493 29.2381 8.18137 29.4781 8.30395C30.0017 8.57138 30.4278 8.99833 30.695 9.52402C30.8177 9.76543 30.9041 10.0878 30.9506 10.6586C30.9981 11.241 30.9989 11.9899 30.9989 13.0685V22.0285L26.9016 17.9213C25.3288 16.3447 22.7777 16.3447 21.2049 17.9213L16.1076 23.031L14.7939 21.7141C13.2211 20.1375 10.6701 20.1375 9.09732 21.7141L5.09142 25.7297C5.07449 25.6139 5.06008 25.4848 5.04824 25.3396C5.00077 24.7572 5 24.0083 5 22.9298V13.0685C5 11.9899 5.00077 11.241 5.04824 10.6586C5.09477 10.0878 5.18114 9.76543 5.30384 9.52402C5.57105 8.99833 5.99718 8.57138 6.52076 8.30395ZM25.4856 19.3338L30.979 24.8405C30.9446 25.7256 30.857 26.1557 30.695 26.4742C30.4278 26.9999 30.0017 27.4269 29.4781 27.6943C29.2381 27.8169 28.9174 27.9033 28.3485 27.9499C27.7679 27.9975 27.0211 27.9982 25.9451 27.9982H13.9774L22.6209 19.3338C23.4122 18.5405 24.6943 18.5405 25.4856 19.3338ZM14.6951 24.4469L11.1523 27.9982H10.0538C8.97776 27.9982 8.231 27.9975 7.65036 27.9499C7.08146 27.9033 6.76076 27.8169 6.52076 27.6943C6.39808 27.6316 6.28074 27.5602 6.16955 27.4808L10.5132 23.1266C11.3046 22.3333 12.5866 22.3333 13.378 23.1266L14.6951 24.4469ZM11.1881 16.482C12.4419 16.482 13.4583 15.4632 13.4583 14.2063C13.4583 12.9495 12.4419 11.9307 11.1881 11.9307C9.93436 11.9307 8.91797 12.9495 8.91797 14.2063C8.91797 15.4632 9.93436 16.482 11.1881 16.482Z" fill="white"/>
</svg>
