<svg width="36" height="36" viewBox="0 0 36 36" fill="none" xmlns="http://www.w3.org/2000/svg">
<path d="M27.7489 18.3262C28.9846 19.9742 27.8086 22.3258 25.7489 22.3262H19.4833V30.7402L18.0019 32.999L16.5194 30.7402V22.8975L19.0907 20.3262H25.7489C26.1606 20.3258 26.3953 19.8559 26.1483 19.5264L23.4667 15.9492L24.8954 14.5215L27.7489 18.3262Z" fill="white"/>
<path d="M23.4237 3.00391C24.4988 3.00391 25.3195 3.96441 25.1522 5.02637L24.328 9.5L22.0761 11.752L23.1317 5.00391H12.871L13.9257 11.6973C14.1252 12.9647 13.8028 14.2596 13.0331 15.2861L9.8544 19.5264C9.6073 19.8559 9.84201 20.326 10.2538 20.3262H13.5028L29.7489 4.08008C30.1395 3.68972 30.7725 3.68961 31.163 4.08008C31.5533 4.47056 31.5533 5.10366 31.163 5.49414L5.70693 30.9502C5.31646 31.3406 4.6834 31.3405 4.29287 30.9502C3.90236 30.5597 3.90239 29.9267 4.29287 29.5361L11.5028 22.3262H10.2538C8.19404 22.326 7.01814 19.9742 8.25381 18.3262L11.4335 14.0859C11.879 13.4917 12.0646 12.7425 11.9491 12.0088L10.8505 5.02637C10.6833 3.96441 11.504 3.00391 12.579 3.00391H23.4237Z" fill="white"/>
</svg>
