<svg width="36" height="36" viewBox="0 0 36 36" fill="none" xmlns="http://www.w3.org/2000/svg">
<path fill-rule="evenodd" clip-rule="evenodd" d="M11.7436 5.17126C11.5692 4.03204 12.4112 3.00003 13.515 3.00003L22.4846 3C23.5884 3 24.4303 4.03201 24.2559 5.17123L23.1967 12.0909C23.1339 12.5011 23.1657 12.9164 23.2842 13.3043L14.0885 22.5L11.2658 22.5C9.18751 22.5 8.00862 20.0121 9.26814 18.2842L12.3207 14.0965C12.7372 13.5251 12.9114 12.8003 12.8029 12.0909L11.7436 5.17126ZM16.5153 22.9016V30.75L18.0002 33L19.4851 30.75V22.5L24.7338 22.5C26.8121 22.5 27.991 20.012 26.7314 18.2841L24.371 15.0459L16.5153 22.9016Z" fill="white"/>
<path fill-rule="evenodd" clip-rule="evenodd" d="M31.163 4.08C31.5535 4.47053 31.5535 5.10369 31.163 5.49422L5.70711 30.9501C5.31658 31.3406 4.68342 31.3406 4.29289 30.9501C3.90237 30.5595 3.90237 29.9264 4.29289 29.5358L29.7487 4.08C30.1393 3.68948 30.7724 3.68948 31.163 4.08Z" fill="white"/>
</svg>
