<svg width="36" height="36" viewBox="0 0 36 36" fill="none" xmlns="http://www.w3.org/2000/svg">
<path fill-rule="evenodd" clip-rule="evenodd" d="M12.8715 5.00391L13.9255 11.6974C14.125 12.9649 13.8034 14.2591 13.0337 15.2857L9.85429 19.5261C9.60714 19.8558 9.84234 20.3261 10.2543 20.3261H16.2624L14.2624 22.3261H10.2543C8.19437 22.3261 7.01838 19.9745 8.25411 18.3264L11.4335 14.0859C11.8791 13.4916 12.0653 12.7423 11.9498 12.0085L10.8504 5.0261C10.6832 3.96414 11.5041 3.00391 12.5791 3.00391H23.424C24.499 3.00391 25.3199 3.96414 25.1527 5.0261L24.0533 12.0085C24.024 12.1942 24.0141 12.3808 24.0228 12.5657L22.3677 14.2208C22.0466 13.4285 21.9423 12.5568 22.0776 11.6974L23.1315 5.00391H12.8715ZM19.0909 20.3261H25.7487C26.1607 20.3261 26.3959 19.8558 26.1488 19.5261L23.4672 15.9497L24.8958 14.5211L27.7489 18.3264C28.9847 19.9745 27.8087 22.3261 25.7487 22.3261H19.484V30.74L18.0017 32.9994L16.5194 30.74V22.8976L19.0909 20.3261Z" fill="white"/>
<path fill-rule="evenodd" clip-rule="evenodd" d="M31.163 4.08C31.5535 4.47053 31.5535 5.10369 31.163 5.49422L5.70711 30.9501C5.31658 31.3406 4.68342 31.3406 4.29289 30.9501C3.90237 30.5595 3.90237 29.9264 4.29289 29.5358L29.7487 4.08C30.1393 3.68948 30.7724 3.68948 31.163 4.08Z" fill="white"/>
</svg>
