<svg width="36" height="36" viewBox="0 0 36 36" fill="none" xmlns="http://www.w3.org/2000/svg">
<path fill-rule="evenodd" clip-rule="evenodd" d="M20.1142 7.87721L15.7488 13.4508C15.1148 14.2604 14.2354 14.8421 13.2428 15.1087L8.16697 16.4721C7.79547 16.5718 7.67112 17.0367 7.94311 17.3089L15.9288 25.3014C16.2007 25.5737 16.6652 25.4492 16.7649 25.0774L18.127 19.9972C18.3934 19.0037 18.9746 18.1236 19.7835 17.489L25.3523 13.1198L20.1142 7.87721ZM18.7149 6.42067C19.3623 5.59399 20.5863 5.52006 21.3284 6.26281L26.9653 11.9045C27.7074 12.6473 27.6335 13.8723 26.8075 14.5204L21.0168 19.0637C20.5485 19.4311 20.212 19.9406 20.0578 20.5158L18.6957 25.596C18.1972 27.4551 15.8751 28.0774 14.5151 26.7163L11.5843 23.7828L5.65455 29.7177L3 30.249L3.53091 27.5922L9.46061 21.6574L6.52951 18.7237C5.16957 17.3626 5.7913 15.0385 7.64882 14.5396L12.7246 13.1763C13.2993 13.0219 13.8084 12.6851 14.1755 12.2164L18.7149 6.42067ZM22.9887 27.2492C22.4364 27.2492 21.9887 27.6969 21.9887 28.2492C21.9887 28.8015 22.4364 29.2492 22.9887 29.2492H31.6231C32.1754 29.2492 32.6231 28.8015 32.6231 28.2492C32.6231 27.6969 32.1754 27.2492 31.6231 27.2492H22.9887ZM28.3705 10.214C28.3705 9.66167 28.8182 9.21395 29.3705 9.21395H31.9984C32.5507 9.21395 32.9984 9.66167 32.9984 10.214C32.9984 10.7662 32.5507 11.214 31.9984 11.214H29.3705C28.8182 11.214 28.3705 10.7662 28.3705 10.214ZM26.3671 18.2316C25.8148 18.2316 25.3671 18.6793 25.3671 19.2316C25.3671 19.7839 25.8148 20.2316 26.3671 20.2316H31.9982C32.5505 20.2316 32.9982 19.7839 32.9982 19.2316C32.9982 18.6793 32.5505 18.2316 31.9982 18.2316H26.3671Z" fill="white"/>
</svg>
