<svg width="36" height="36" viewBox="0 0 36 36" fill="none" xmlns="http://www.w3.org/2000/svg">
<path fill-rule="evenodd" clip-rule="evenodd" d="M8.76261 4.5C7.95765 4.49999 7.29327 4.49998 6.75208 4.54419C6.18998 4.59012 5.67328 4.68868 5.18795 4.93598C4.4353 5.31947 3.82337 5.93139 3.43988 6.68404C3.19259 7.16938 3.09403 7.68608 3.0481 8.24818C3.00388 8.78937 3.00389 9.45374 3.00391 10.2587V22.5925C3.00389 23.3974 3.00388 24.0618 3.0481 24.603C3.09403 25.1651 3.19259 25.6818 3.43988 26.1671C3.82337 26.9198 4.4353 27.5317 5.18795 27.9152C5.67328 28.1625 6.18998 28.261 6.75208 28.307C7.29327 28.3512 7.95762 28.3512 8.76258 28.3512H15.2987C15.851 28.3512 16.2987 27.9035 16.2987 27.3512C16.2987 26.7989 15.851 26.3512 15.2987 26.3512H8.80391C7.94733 26.3512 7.36503 26.3504 6.91494 26.3136C6.47653 26.2778 6.25233 26.2129 6.09593 26.1332C5.7196 25.9414 5.41364 25.6355 5.22189 25.2591C5.1422 25.1027 5.07728 24.8785 5.04146 24.4401C5.00468 23.99 5.00391 23.4077 5.00391 22.5512V10.3C5.00391 9.44343 5.00468 8.86113 5.04146 8.41104C5.07728 7.97262 5.1422 7.74842 5.22189 7.59202C5.41364 7.2157 5.7196 6.90974 6.09593 6.71799C6.25233 6.6383 6.47653 6.57337 6.91495 6.53755C7.36503 6.50078 7.94733 6.5 8.80391 6.5H27.0645C27.921 6.5 28.5033 6.50078 28.9534 6.53755C29.3918 6.57337 29.616 6.6383 29.7724 6.71799C30.1488 6.90974 30.4547 7.2157 30.6465 7.59202C30.7262 7.74842 30.7911 7.97262 30.8269 8.41104C30.8637 8.86113 30.8645 9.44342 30.8645 10.3V16.8023C30.8645 17.3546 31.3122 17.8023 31.8645 17.8023C32.4167 17.8023 32.8645 17.3546 32.8645 16.8023V10.2587C32.8645 9.45372 32.8645 8.78937 32.8203 8.24818C32.7743 7.68608 32.6758 7.16937 32.4285 6.68404C32.045 5.93139 31.4331 5.31947 30.6804 4.93598C30.1951 4.68868 29.6784 4.59012 29.1163 4.54419C28.5751 4.49998 27.9107 4.49999 27.1058 4.5H8.76261ZM18.2606 21.0776C17.9336 21.7193 17.9336 22.5594 17.9336 24.2395V26.6954C17.9336 28.3755 17.9336 29.2156 18.2606 29.8573C18.5482 30.4218 19.0071 30.8807 19.5716 31.1684C20.2134 31.4953 21.0534 31.4953 22.7336 31.4953H29.6993C31.3795 31.4953 32.2196 31.4953 32.8613 31.1684C33.4258 30.8807 33.8847 30.4218 34.1723 29.8573C34.4993 29.2156 34.4993 28.3755 34.4993 26.6954V24.2395C34.4993 22.5594 34.4993 21.7193 34.1723 21.0776C33.8847 20.5131 33.4258 20.0541 32.8613 19.7665C32.2196 19.4395 31.3795 19.4395 29.6993 19.4395H22.7336C21.0534 19.4395 20.2134 19.4395 19.5716 19.7665C19.0071 20.0541 18.5482 20.5131 18.2606 21.0776Z" fill="white"/>
</svg>
