<svg width="36" height="36" viewBox="0 0 36 36" fill="none" xmlns="http://www.w3.org/2000/svg">
<path fill-rule="evenodd" clip-rule="evenodd" d="M6.59449 11.9488C5.86056 11.4752 5.75077 10.4452 6.36838 9.82762C7.08956 9.10644 8.15147 8.8452 9.12492 9.1495L19.6635 12.4437L23.7773 8.06901C24.912 6.86229 26.8199 6.83297 27.9912 8.00426C29.1625 9.17555 29.1332 11.0834 27.9264 12.2182L23.5515 16.3322L26.8455 26.8701C27.1498 27.8435 26.8885 28.9054 26.1674 29.6266C25.5498 30.2442 24.5198 30.1344 24.0462 29.4005L18.6115 20.9775L14.562 24.7854L14.5748 26.5753C14.5806 27.3784 14.2641 28.1502 13.6962 28.7181L12.3727 30.0416C12.1762 30.2381 11.8418 30.1601 11.7525 29.8971L10.3183 25.675L6.09693 24.2406C5.83385 24.1512 5.75591 23.8168 5.95237 23.6203L7.2759 22.2968C7.84377 21.7289 8.61561 21.4124 9.41867 21.4182L11.2123 21.431L15.0181 17.3838L6.59449 11.9488Z" fill="white"/>
</svg>
