<svg width="36" height="36" viewBox="0 0 36 36" fill="none" xmlns="http://www.w3.org/2000/svg">
<path fill-rule="evenodd" clip-rule="evenodd" d="M14.9217 3C13.4111 3 12.2857 4.39395 12.6041 5.87067L14.4642 14.4959L10.5478 14.6163L9.59603 13.6508C8.84431 12.8883 7.81825 12.459 6.74748 12.459H4.87546C3.85673 12.459 3.19175 13.5281 3.64215 14.4419L5.39598 18L3.64215 21.5581C3.19175 22.4719 3.85672 23.541 4.87546 23.541H6.74748C7.81825 23.541 8.84431 23.1117 9.59603 22.3492L10.5484 21.3831L14.4662 21.5035L14.2958 22.2939L16.5577 20.032C16.5358 19.9949 16.5113 19.9591 16.4845 19.9247C16.3016 19.6909 16.0242 19.5504 15.7275 19.5413L10.1735 19.3706C9.89529 19.362 9.62608 19.4699 9.43066 19.6681L8.17175 20.9451C7.79589 21.3264 7.28286 21.541 6.74748 21.541H5.88034L7.15028 18.9646C7.57324 18.848 7.88387 18.4605 7.88387 18.0005C7.88387 17.5404 7.57324 17.152 7.15028 17.0354L5.88034 14.459H6.74748C7.28286 14.459 7.79589 14.6736 8.17175 15.0549L9.43005 16.3313C9.62548 16.5295 9.89468 16.6373 10.1729 16.6288L15.7255 16.4581C16.0222 16.449 16.2995 16.3085 16.4824 16.0747C16.6653 15.8409 16.7348 15.5379 16.6723 15.2478L14.5592 5.44907C14.5094 5.21806 14.6854 5 14.9217 5C15.5697 5 16.1641 5.35968 16.4647 5.93369L21.3424 15.2473L22.8241 13.7656L18.2364 5.0058C17.5906 3.77269 16.3137 3 14.9217 3ZM25.2538 14.1643L23.1894 16.2287L28.5079 16.0652C29.5996 16.0316 30.5028 16.9075 30.5028 17.9997C30.5028 19.0919 29.5996 19.9677 28.5079 19.9342L22.5058 19.7497C22.1229 19.7379 21.7669 19.9459 21.5892 20.2853L16.4667 30.0663C16.166 30.6403 15.5716 31 14.9237 31C14.6874 31 14.5113 30.7819 14.5611 30.5509L16.1266 23.2915L13.5181 25.9L12.6061 30.1293C12.2876 31.6061 13.413 33 14.9237 33C16.3157 33 17.5926 32.2273 18.2384 30.9942L23.0703 21.768L28.4465 21.9332C30.6663 22.0015 32.5028 20.2205 32.5028 17.9997C32.5028 15.7788 30.6663 13.9979 28.4465 14.0661L25.2538 14.1643Z" fill="white"/>
<path fill-rule="evenodd" clip-rule="evenodd" d="M31.1631 4.08C31.5537 4.47053 31.5537 5.10369 31.1631 5.49422L5.7073 30.9501C5.31678 31.3406 4.68361 31.3406 4.29309 30.9501C3.90257 30.5595 3.90257 29.9264 4.29309 29.5358L29.7489 4.08C30.1395 3.68948 30.7726 3.68948 31.1631 4.08Z" fill="white"/>
</svg>
