<svg width="36" height="36" viewBox="0 0 36 36" fill="none" xmlns="http://www.w3.org/2000/svg">
<path fill-rule="evenodd" clip-rule="evenodd" d="M6.05252 12.789C4.78319 11.97 4.5933 10.1887 5.66147 9.12051C6.6457 8.13628 8.09494 7.77976 9.42347 8.19504L19.3642 11.3024L23.049 7.38396C24.5703 5.76613 27.1282 5.72683 28.6985 7.29715C30.2688 8.86748 30.2295 11.4253 28.6117 12.9467L24.693 16.6316L27.8001 26.5717C28.2154 27.9002 27.8589 29.3495 26.8747 30.3337C25.8065 31.4019 24.0251 31.212 23.2062 29.9427L18.4223 22.5283L15.5653 25.2148L15.575 26.5682C15.5827 27.6389 15.1607 28.668 14.4035 29.4252L13.08 30.7487C12.3597 31.4691 11.1334 31.1833 10.8058 30.2187L9.52999 26.4627L5.77549 25.1874C4.81089 24.8598 4.52511 23.6336 5.24546 22.9132L6.56899 21.5897C7.32615 20.8325 8.35526 20.4105 9.42602 20.4182L10.783 20.4279L13.4674 17.5733L6.05252 12.789ZM11.2755 25.3832L12.3763 28.624L12.9893 28.011C13.3679 27.6324 13.5789 27.1179 13.5751 26.5825L13.5623 24.7926C13.5603 24.5142 13.6744 24.2476 13.8772 24.0569L17.9267 20.249C18.1429 20.0456 18.4383 19.9489 18.733 19.9849C19.0276 20.0208 19.2911 20.1859 19.452 20.4353L24.8867 28.8583C25.0148 29.0569 25.2934 29.0866 25.4605 28.9195C25.9186 28.4614 26.0845 27.7868 25.8912 27.1684L22.5972 16.6305C22.4829 16.2649 22.5875 15.8661 22.8666 15.6037L27.2416 11.4897C28.0372 10.7415 28.0565 9.48362 27.2843 8.71137C26.512 7.93912 25.2541 7.95844 24.506 8.75406L20.3922 13.1288C20.1298 13.4079 19.731 13.5125 19.3653 13.3982L8.82676 10.104C8.20838 9.91065 7.53381 10.0766 7.07568 10.5347C6.90862 10.7018 6.93832 10.9804 7.13684 11.1085L15.5604 16.5435C15.8098 16.7045 15.9749 16.9679 16.0109 17.2625C16.0469 17.5572 15.9501 17.8526 15.7468 18.0689L11.941 22.116C11.7503 22.3188 11.4837 22.433 11.2053 22.431L9.41172 22.4182C8.87634 22.4143 8.36178 22.6253 7.9832 23.0039L7.37022 23.6169L10.6405 24.7277C10.9466 24.8317 11.1822 25.0765 11.2755 25.3832Z" fill="white"/>
</svg>
