<svg width="36" height="36" viewBox="0 0 36 36" fill="none" xmlns="http://www.w3.org/2000/svg">
<path fill-rule="evenodd" clip-rule="evenodd" d="M14.9218 4.00195C14.0483 4.00195 13.3975 4.80796 13.5817 5.66182L15.6948 15.4605L10.1422 15.6312L8.88391 14.3548C8.32012 13.7829 7.55057 13.4609 6.7475 13.4609H4.87548C4.59764 13.4609 4.41629 13.7525 4.53912 14.0017L6.51064 18.0015L4.53912 22.0022C4.41629 22.2514 4.59764 22.543 4.87548 22.543H6.7475C7.55057 22.543 8.32012 22.221 8.88391 21.6491L10.1428 20.3721L15.6968 20.5428L15.6001 20.9916L22.0833 14.5084L17.3506 5.47169C16.8774 4.56814 15.9417 4.00195 14.9218 4.00195ZM24.2217 15.1984L14.8224 24.5977L13.5836 30.3421C13.3995 31.1959 14.0502 32.002 14.9237 32.002C15.9437 32.002 16.8793 31.4358 17.3525 30.5322L22.4751 20.7512L28.4772 20.9357C30.133 20.9866 31.5028 19.6582 31.5028 18.0016C31.5028 16.3451 30.133 15.0167 28.4772 15.0676L24.2217 15.1984Z" fill="white"/>
<path fill-rule="evenodd" clip-rule="evenodd" d="M31.1632 4.08196C31.5537 4.47248 31.5537 5.10564 31.1632 5.49617L5.70732 30.952C5.3168 31.3425 4.68363 31.3425 4.29311 30.952C3.90258 30.5615 3.90258 29.9283 4.29311 29.5378L29.749 4.08196C30.1395 3.69143 30.7726 3.69143 31.1632 4.08196Z" fill="white"/>
</svg>
