<svg width="36" height="36" viewBox="0 0 36 36" fill="none" xmlns="http://www.w3.org/2000/svg">
<path d="M28.4777 15.0673C30.1332 15.0167 31.5031 16.3455 31.5031 18.0019C31.5029 19.658 30.1331 20.9861 28.4777 20.9354L22.4748 20.7509L17.3527 30.5321C16.8796 31.4356 15.9439 32.0017 14.924 32.0019C14.0505 32.0019 13.3991 31.1956 13.5832 30.3417L14.8224 24.5976L24.2219 15.1981L28.4777 15.0673Z" fill="white"/>
<path d="M29.7492 4.08193C30.1397 3.69146 30.7728 3.69142 31.1633 4.08193C31.5536 4.47245 31.5537 5.10551 31.1633 5.49599L5.70721 30.952C5.31672 31.3424 4.68363 31.3424 4.29315 30.952C3.90268 30.5616 3.90278 29.9285 4.29315 29.538L13.3596 20.4706L10.1428 20.372L8.88397 21.6493C8.32019 22.2211 7.55024 22.5429 6.74725 22.5429H4.87518C4.59751 22.5427 4.41645 22.251 4.53924 22.0019L6.51092 18.0009L4.53924 14.0019C4.41645 13.7527 4.59751 13.461 4.87518 13.4608H6.74725C7.55028 13.4608 8.32019 13.7826 8.88397 14.3544L10.1418 15.6308L15.6945 15.4608L13.5812 5.66201C13.3971 4.80814 14.0486 4.00185 14.9221 4.00185C15.9419 4.00196 16.8776 4.56812 17.3508 5.47158L21.134 12.6962L29.7492 4.08193Z" fill="white"/>
</svg>
