<svg width="36" height="36" viewBox="0 0 36 36" fill="none" xmlns="http://www.w3.org/2000/svg">
<path d="M18 3C26.2843 3 33 9.71573 33 18C33 26.2843 26.2843 33 18 33C9.71573 33 3 26.2843 3 18C3 9.71573 9.71573 3 18 3ZM17 26.0127C15.7594 26.0673 14.5647 26.2977 13.4385 26.6768C13.5909 27.0151 13.7512 27.3375 13.9189 27.6426C14.9113 29.4468 16.0068 30.417 17 30.8008V26.0127ZM19 30.8008C19.9932 30.417 21.0887 29.4468 22.0811 27.6426C22.2044 27.4184 22.3214 27.1838 22.4365 26.9414C21.3556 26.5045 20.2026 26.2103 19 26.0791V30.8008ZM11.5986 27.46C11.0899 27.7245 10.6004 28.0207 10.1338 28.3477C11.0299 29.0299 12.0161 29.5999 13.0732 30.0332C12.5247 29.2895 12.0301 28.424 11.5986 27.46ZM24.2266 27.832C23.837 28.6473 23.4027 29.3867 22.9258 30.0332C23.8196 29.6669 24.6632 29.2039 25.4443 28.6572C25.0547 28.3605 24.6488 28.0842 24.2266 27.832ZM26.4863 27.8428C26.5206 27.8132 26.5549 27.7838 26.5889 27.7539L26.5801 27.75L26.4863 27.8428ZM26.2295 19C26.1373 21.5454 25.6955 23.9164 24.9912 25.958C25.7085 26.3667 26.3883 26.8333 27.0254 27.3506C29.2498 25.2031 30.713 22.2724 30.9619 19H26.2295ZM5.03809 19C5.27299 22.0879 6.58908 24.8717 8.60547 26.9805C9.31739 26.448 10.0782 25.9772 10.8799 25.5762C10.2499 23.623 9.85697 21.388 9.77051 19H5.03809ZM19 24.0674C20.4641 24.205 21.8667 24.5529 23.1777 25.0811C23.7605 23.316 24.1407 21.2492 24.2285 19H19V24.0674ZM11.7715 19C11.8547 21.1309 12.2007 23.0979 12.7324 24.7998C14.0788 24.3401 15.5119 24.0683 17 24.0117V19H11.7715ZM8.78223 8.83301C6.66449 10.9624 5.27988 13.8215 5.03809 17H9.77051C9.85974 14.5354 10.2738 12.2333 10.9395 10.2363C10.1789 9.82964 9.45738 9.35974 8.78223 8.83301ZM12.7754 11.0645C12.2194 12.7972 11.8569 14.8122 11.7715 17H17V11.9668C15.5232 11.8694 14.1049 11.5588 12.7754 11.0645ZM23.2246 11.0645C21.8952 11.5588 20.4769 11.8695 19 11.9668V17H24.2285C24.1431 14.8122 23.7806 12.7972 23.2246 11.0645ZM27.2158 8.83301C26.5409 9.35951 25.8198 9.82884 25.0596 10.2354C25.7255 12.2326 26.1402 14.5349 26.2295 17H30.9619C30.7201 13.821 29.3341 10.9625 27.2158 8.83301ZM17 5.19824C16.0068 5.5819 14.9114 6.55295 13.9189 8.35742C13.7723 8.62401 13.6321 8.90416 13.4971 9.19629C14.6019 9.60517 15.7771 9.86656 17 9.95996V5.19824ZM19 9.95996C20.2226 9.86659 21.3966 9.60316 22.501 9.19434C22.3663 8.90306 22.2273 8.62329 22.0811 8.35742C21.0886 6.55295 19.9932 5.5819 19 5.19824V9.95996ZM22.9258 5.96582C23.4399 6.6626 23.9055 7.46685 24.3174 8.3584C24.7836 8.09814 25.2323 7.81065 25.6611 7.49707C24.8201 6.88258 23.9029 6.3662 22.9258 5.96582ZM13.0732 5.96582C12.0964 6.36616 11.1796 6.88275 10.3389 7.49707C10.7673 7.81043 11.2157 8.09735 11.6816 8.35742C12.0934 7.46624 12.5593 6.66238 13.0732 5.96582Z" fill="white"/>
</svg>
