<svg width="36" height="36" viewBox="0 0 36 36" fill="none" xmlns="http://www.w3.org/2000/svg">
<path fill-rule="evenodd" clip-rule="evenodd" d="M13.5826 5.65987C13.3984 4.806 14.0491 4 14.9226 4C15.9426 4 16.8783 4.56619 17.3515 5.46974L22.4737 15.2502L28.4781 15.0657C30.1339 15.0148 31.5037 16.3432 31.5037 17.9997C31.5037 19.6562 30.1339 20.9846 28.4781 20.9337L22.4759 20.7492L17.3534 30.5303C16.8802 31.4338 15.9446 32 14.9246 32C14.0511 32 13.4004 31.194 13.5845 30.3401L15.6977 20.5409L10.1437 20.3701L8.88479 21.6471C8.321 22.219 7.55145 22.541 6.74838 22.541H4.87636C4.59852 22.541 4.41717 22.2494 4.54 22.0002L6.51152 18.0005H6.88477C6.88477 18.0002 6.88477 18.0007 6.88477 18.0005H6.51152L4.54 13.9998C4.41717 13.7506 4.59852 13.459 4.87636 13.459H6.74838C7.55145 13.459 8.321 13.781 8.88479 14.3529L10.1431 15.6293L15.6956 15.4586L13.5826 5.65987Z" fill="white"/>
</svg>
