<svg width="36" height="36" viewBox="0 0 36 36" fill="none" xmlns="http://www.w3.org/2000/svg">
<path fill-rule="evenodd" clip-rule="evenodd" d="M12.605 5.87067C12.2866 4.39395 13.412 3 14.9226 3C16.3146 3 17.5915 3.77269 18.2373 5.0058L23.069 14.2315L28.4474 14.0661C30.6672 13.9979 32.5037 15.7788 32.5037 17.9997C32.5037 20.2205 30.6672 22.0015 28.4474 21.9332L23.0712 21.768L18.2393 30.9942C17.5935 32.2273 16.3166 33 14.9246 33C13.4139 33 12.2885 31.6061 12.607 30.1293L14.4671 21.5035L10.5493 21.3831L9.59693 22.3492C8.84521 23.1117 7.81915 23.541 6.74838 23.541H4.87636C3.85762 23.541 3.19265 22.4719 3.64305 21.5581L5.39688 18L3.64305 14.4419C3.19265 13.5281 3.85763 12.459 4.87636 12.459H6.74838C7.81915 12.459 8.84521 12.8883 9.59693 13.6508L10.5487 14.6163L14.4651 14.4959L12.605 5.87067ZM7.15118 18.9646L5.88124 21.541H6.74838C7.28376 21.541 7.79679 21.3264 8.17265 20.9451L9.43156 19.6681C9.62698 19.4699 9.89619 19.362 10.1744 19.3706L15.7284 19.5413C16.0251 19.5504 16.3025 19.6909 16.4854 19.9247C16.6683 20.1585 16.7378 20.4615 16.6752 20.7517L14.562 30.5509C14.5122 30.7819 14.6883 31 14.9246 31C15.5725 31 16.1669 30.6403 16.4676 30.0663L21.5901 20.2853C21.7678 19.9459 22.1238 19.7379 22.5067 19.7497L28.5089 19.9342C29.6005 19.9677 30.5037 19.0919 30.5037 17.9997C30.5037 16.9075 29.6005 16.0316 28.5088 16.0652L22.5044 16.2498C22.1215 16.2615 21.7656 16.0535 21.5878 15.7142L16.4656 5.93369C16.165 5.35968 15.5706 5 14.9226 5C14.6863 5 14.5103 5.21806 14.5601 5.44907L16.6732 15.2478C16.7357 15.5379 16.6662 15.8409 16.4833 16.0747C16.3004 16.3085 16.0231 16.449 15.7264 16.4581L10.1738 16.6288C9.89558 16.6373 9.62638 16.5295 9.43095 16.3313L8.17265 15.0549C7.79679 14.6736 7.28376 14.459 6.74838 14.459H5.88124L7.15118 17.0354C7.57414 17.152 7.88477 17.5395 7.88477 17.9995C7.88477 18.4596 7.57414 18.848 7.15118 18.9646Z" fill="white"/>
</svg>
