<svg width="36" height="36" viewBox="0 0 36 36" fill="none" xmlns="http://www.w3.org/2000/svg">
<path d="M28.4464 14.0664C30.6661 13.9982 32.503 15.7792 32.503 18C32.5028 20.2207 30.666 22.0018 28.4464 21.9336L23.0704 21.7676L18.2383 30.9941C17.5926 32.2272 16.3158 32.9999 14.9239 33C13.4132 33 12.2881 31.6056 12.6065 30.1289L13.5186 25.9004L16.127 23.291L14.5616 30.5508C14.5118 30.7818 14.6876 31 14.9239 31C15.5718 30.9999 16.1663 30.6403 16.4669 30.0664L21.5889 20.2852C21.7667 19.9458 22.123 19.7382 22.5059 19.75L28.5079 19.9346C29.5995 19.9681 30.5028 19.0921 30.503 18C30.503 16.9078 29.5996 16.0319 28.5079 16.0654L23.1895 16.2285L25.254 14.1641L28.4464 14.0664Z" fill="white"/>
<path fill-rule="evenodd" clip-rule="evenodd" d="M14.9219 3C16.3138 3.00008 17.5906 3.77282 18.2364 5.00586L21.8751 11.9531L29.7491 4.08008C30.1396 3.6896 30.7726 3.68957 31.1631 4.08008C31.5536 4.47059 31.5536 5.10363 31.1631 5.49414L5.70709 30.9502C5.31657 31.3405 4.6835 31.3406 4.29303 30.9502C3.90256 30.5597 3.90268 29.9267 4.29303 29.5361L12.3887 21.4395L10.5489 21.3828L9.59577 22.3496C8.84408 23.1119 7.81774 23.541 6.74713 23.541H4.87506C3.85655 23.5407 3.19132 22.4713 3.64166 21.5576L5.39557 18L3.64166 14.4424C3.19132 13.5287 3.85655 12.4593 4.87506 12.459H6.74713C7.81774 12.459 8.84408 12.8881 9.59577 13.6504L10.5479 14.6162L14.4639 14.4961L12.6046 5.87109C12.2861 4.39437 13.4113 3 14.9219 3ZM14.9219 5C14.6856 5 14.5098 5.21821 14.5596 5.44922L16.6719 15.248C16.7344 15.5382 16.6653 15.8414 16.4825 16.0752C16.2996 16.3088 16.0222 16.4488 15.7256 16.458L10.1729 16.6289C9.89468 16.6375 9.62517 16.5293 9.42975 16.3311L8.17194 15.0547C7.79608 14.6734 7.28251 14.459 6.74713 14.459H5.87995L7.15045 17.0352C7.57321 17.1518 7.88364 17.5402 7.88385 18C7.88385 18.46 7.57336 18.8482 7.15045 18.9648L5.87995 21.541H6.74713C7.28251 21.541 7.79608 21.3266 8.17194 20.9453L9.43073 19.668C9.62614 19.4698 9.8957 19.3616 10.1739 19.3701L14.3311 19.4971L20.3936 13.4346L16.4649 5.93359C16.1643 5.35965 15.5698 5.00008 14.9219 5Z" fill="white"/>
</svg>
