<svg width="36" height="36" viewBox="0 0 36 36" fill="none" xmlns="http://www.w3.org/2000/svg">
<path fill-rule="evenodd" clip-rule="evenodd" d="M11.4575 4.5C10.4435 4.49999 9.62178 4.49998 8.95558 4.55441C8.26841 4.61056 7.6591 4.72956 7.09355 5.01772C6.19978 5.47312 5.47312 6.19978 5.01772 7.09355C4.72956 7.6591 4.61056 8.26842 4.55441 8.95558C4.49998 9.62178 4.49999 10.4435 4.5 11.4575V24.5411C4.49999 25.5551 4.49998 26.3768 4.55441 27.043C4.61056 27.7302 4.72956 28.3395 5.01772 28.9051C5.47312 29.7988 6.19978 30.5255 7.09355 30.9809C7.6591 31.2691 8.26842 31.3881 8.95558 31.4442C9.62178 31.4986 10.4435 31.4986 11.4575 31.4986H24.5411C25.5552 31.4986 26.3768 31.4986 27.043 31.4442C27.7302 31.3881 28.3395 31.2691 28.9051 30.9809C29.7988 30.5255 30.5255 29.7988 30.9809 28.9051C31.2691 28.3395 31.3881 27.7302 31.4442 27.043C31.4986 26.3768 31.4986 25.5552 31.4986 24.5411V11.4575C31.4986 10.4435 31.4986 9.62178 31.4442 8.95558C31.3881 8.26841 31.2691 7.6591 30.9809 7.09355C30.5255 6.19978 29.7988 5.47312 28.9051 5.01772C28.3395 4.72956 27.7302 4.61056 27.043 4.55441C26.3768 4.49998 25.5551 4.49999 24.5411 4.5H11.4575ZM8.00153 6.79973C8.23814 6.67917 8.55496 6.59381 9.11844 6.54777C9.69359 6.50078 10.4334 6.5 11.5 6.5H24.4986C25.5652 6.5 26.305 6.50078 26.8802 6.54777C27.4437 6.59381 27.7605 6.67917 27.9971 6.79973C28.5145 7.06338 28.9352 7.48408 29.1989 8.00153C29.3194 8.23814 29.4048 8.55496 29.4508 9.11844C29.4978 9.69359 29.4986 10.4334 29.4986 11.5V24.4986C29.4986 25.5652 29.4978 26.305 29.4508 26.8802C29.4048 27.4437 29.3194 27.7605 29.1989 27.9971C28.9352 28.5145 28.5145 28.9352 27.9971 29.1989C27.7605 29.3194 27.4437 29.4048 26.8802 29.4508C26.305 29.4978 25.5652 29.4986 24.4986 29.4986H11.5C10.4334 29.4986 9.6936 29.4978 9.11844 29.4508C8.55496 29.4048 8.23814 29.3194 8.00153 29.1989C7.48408 28.9352 7.06338 28.5145 6.79973 27.9971C6.67917 27.7605 6.59381 27.4437 6.54777 26.8802C6.50078 26.305 6.5 25.5652 6.5 24.4986V11.5C6.5 10.4334 6.50078 9.6936 6.54777 9.11844C6.59381 8.55496 6.67917 8.23814 6.79973 8.00153C7.06338 7.48408 7.48408 7.06338 8.00153 6.79973ZM17.998 9.04492C18.5503 9.04492 18.998 9.49264 18.998 10.0449V16.9992H25.9512C26.5035 16.9992 26.9512 17.4469 26.9512 17.9992C26.9512 18.5514 26.5035 18.9992 25.9512 18.9992H18.998V25.9531C18.998 26.5054 18.5503 26.9531 17.998 26.9531C17.4458 26.9531 16.998 26.5054 16.998 25.9531V18.9992H10.043C9.49068 18.9992 9.04297 18.5514 9.04297 17.9992C9.04297 17.4469 9.49068 16.9992 10.043 16.9992H16.998V10.0449C16.998 9.49264 17.4458 9.04492 17.998 9.04492Z" fill="white"/>
</svg>
