<svg width="36" height="36" viewBox="0 0 36 36" fill="none" xmlns="http://www.w3.org/2000/svg">
<path fill-rule="evenodd" clip-rule="evenodd" d="M5 17.9994C5 10.82 10.82 5 17.9994 5C25.1788 5 30.9989 10.82 30.9989 17.9994C30.9989 25.1788 25.1788 30.9989 17.9994 30.9989C10.82 30.9989 5 25.1788 5 17.9994ZM17.9994 3C9.71548 3 3 9.71548 3 17.9994C3 26.2834 9.71548 32.9989 17.9994 32.9989C26.2834 32.9989 32.9989 26.2834 32.9989 17.9994C32.9989 9.71548 26.2834 3 17.9994 3ZM18.9987 8.91877C18.9987 8.36649 18.551 7.91877 17.9987 7.91877C17.4464 7.91877 16.9987 8.36649 16.9987 8.91877V16.9995H8.91797C8.36568 16.9995 7.91797 17.4472 7.91797 17.9995C7.91797 18.5518 8.36568 18.9995 8.91797 18.9995H16.9987V27.0802C16.9987 27.6325 17.4464 28.0802 17.9987 28.0802C18.551 28.0802 18.9987 27.6325 18.9987 27.0802V18.9995H27.0794C27.6317 18.9995 28.0794 18.5518 28.0794 17.9995C28.0794 17.4472 27.6317 16.9995 27.0794 16.9995H18.9987V8.91877Z" fill="white"/>
</svg>
