<svg width="36" height="36" viewBox="0 0 36 36" fill="none" xmlns="http://www.w3.org/2000/svg">
<path d="M21.0417 5.66068C21.4064 5.11928 22.2867 5.10323 22.6075 5.67179C23.2902 6.88146 23.9237 7.81896 24.4886 8.65486C25.9272 10.7835 26.9205 12.2534 27.1454 15.8813C26.8749 15.8513 26.5868 15.8241 26.2817 15.7954C24.362 15.6144 21.77 15.37 18.6647 13.9623C18.4562 13.8677 18.245 13.7701 18.0307 13.6711C16.7868 13.0962 15.4405 12.4738 13.922 12.1351C14.5697 10.9719 15.7507 10.1649 17.0405 9.28364C18.4238 8.33847 19.9321 7.30784 21.0417 5.66068Z" fill="white"/>
<path d="M9.88141 13.1347C8.00257 13.6029 7.19869 14.6595 6.9276 15.7218C6.72162 16.529 6.80819 17.4025 7.08036 18.1407C7.44304 18.1679 7.80633 18.2503 8.16068 18.3929C18.7538 22.6569 22.6573 20.6914 25.6548 19.1821C26.774 18.6186 27.7669 18.1187 28.9345 18.0303C28.913 17.7631 28.8606 17.6095 28.8153 17.522C28.7708 17.4362 28.7119 17.371 28.6015 17.3059C28.3033 17.1301 27.7758 17.0234 26.7502 16.9197C26.5685 16.9014 26.3776 16.8834 26.1778 16.8647C24.2513 16.6839 21.4963 16.4254 18.2212 14.9408C18.0136 14.8466 17.8063 14.7512 17.5988 14.6556C15.2849 13.5904 12.9501 12.5155 9.88141 13.1347Z" fill="white"/>
<path d="M7.76161 19.3896C15.3743 22.4538 19.7787 22.4307 22.9344 21.4918C24.2195 21.1094 25.2749 20.5772 26.1573 20.1323C26.3277 20.0464 26.492 19.9635 26.6499 19.8858C27.6547 19.3913 28.423 19.0906 29.302 19.0906C30.184 19.0906 30.8071 19.3796 31.2475 19.8007C31.7029 20.2362 32.0271 20.8767 32.17 21.6608C32.4593 23.2479 31.9593 25.1696 30.7446 26.4216C26.6723 30.0939 20.8863 31.1562 15.6414 30.6192C13.0259 30.3514 10.5971 29.6895 8.65428 28.797C6.6842 27.892 5.33096 26.805 4.70689 25.7636C3.32526 23.4582 3.63409 21.6079 4.41518 20.5117C5.2341 19.3625 6.60598 18.9243 7.76161 19.3896Z" fill="white"/>
</svg>
