<svg width="36" height="36" viewBox="0 0 36 36" fill="none" xmlns="http://www.w3.org/2000/svg">
<path d="M26.1606 11.3088C26.1606 10.4687 26.1606 10.0487 25.9972 9.72778C25.8533 9.44554 25.6239 9.21607 25.3416 9.07226C25.0208 8.90877 24.6007 8.90877 23.7606 8.90877H12.2384C11.3983 8.90877 10.9783 8.90877 10.6574 9.07226C10.3752 9.21607 10.1457 9.44554 10.0019 9.72778C9.83842 10.0487 9.83842 10.4687 9.83842 11.3088V20.1444C9.83842 20.9845 9.83842 21.4045 10.0019 21.7254C10.1457 22.0076 10.3752 22.2371 10.6574 22.3809C10.9783 22.5444 11.3983 22.5444 12.2384 22.5444H23.7606C24.6007 22.5444 25.0208 22.5444 25.3416 22.3809C25.6239 22.2371 25.8533 22.0076 25.9972 21.7254C26.1606 21.4045 26.1606 20.9845 26.1606 20.1444V11.3088Z" fill="white"/>
<path d="M10.9517 26.9535C10.3994 26.9535 9.95166 26.5058 9.95166 25.9535C9.95166 25.4012 10.3994 24.9535 10.9517 24.9535H17.6289C18.1812 24.9535 18.6289 25.4012 18.6289 25.9535C18.6289 26.5058 18.1812 26.9535 17.6289 26.9535H10.9517Z" fill="white"/>
<path fill-rule="evenodd" clip-rule="evenodd" d="M12.4575 31.4986H23.542C24.556 31.4986 25.3777 31.4986 26.0439 31.4442C26.7311 31.3881 27.3404 31.2691 27.906 30.9809C28.7997 30.5255 29.5264 29.7988 29.9818 28.9051C30.27 28.3395 30.389 27.7302 30.4451 27.043C30.4995 26.3768 30.4995 25.5552 30.4995 24.5411V11.4575C30.4995 10.4435 30.4995 9.62178 30.4451 8.95558C30.389 8.26842 30.27 7.6591 29.9818 7.09355C29.5264 6.19978 28.7997 5.47312 27.906 5.01772C27.3404 4.72956 26.7311 4.61056 26.0439 4.55441C25.3777 4.49998 24.556 4.49999 23.542 4.5H12.4575C11.4435 4.49999 10.6218 4.49998 9.95558 4.55441C9.26841 4.61056 8.6591 4.72956 8.09355 5.01772C7.19978 5.47312 6.47312 6.19978 6.01772 7.09355C5.72956 7.6591 5.61056 8.26841 5.55441 8.95558C5.49998 9.62178 5.49999 10.4435 5.5 11.4575V24.5411C5.49999 25.5551 5.49998 26.3768 5.55441 27.043C5.61056 27.7302 5.72956 28.3395 6.01772 28.9051C6.47312 29.7988 7.19978 30.5255 8.09355 30.9809C8.6591 31.2691 9.26841 31.3881 9.95558 31.4442C10.6218 31.4986 11.4435 31.4986 12.4575 31.4986ZM10.1184 29.4508C9.55496 29.4048 9.23814 29.3194 9.00153 29.1989C8.48408 28.9352 8.06338 28.5145 7.79973 27.9971C7.67917 27.7605 7.59381 27.4437 7.54777 26.8802C7.50078 26.305 7.5 25.5652 7.5 24.4986V11.5C7.5 10.4334 7.50078 9.69359 7.54777 9.11844C7.59381 8.55496 7.67917 8.23814 7.79973 8.00153C8.06338 7.48408 8.48408 7.06338 9.00153 6.79973C9.23814 6.67917 9.55496 6.59381 10.1184 6.54777C10.6936 6.50078 11.4334 6.5 12.5 6.5H23.4995C24.5661 6.5 25.3059 6.50078 25.8811 6.54777C26.4445 6.59381 26.7614 6.67917 26.998 6.79973C27.5154 7.06338 27.9361 7.48408 28.1998 8.00153C28.3203 8.23814 28.4057 8.55496 28.4517 9.11844C28.4987 9.69359 28.4995 10.4334 28.4995 11.5V24.4986C28.4995 25.5652 28.4987 26.305 28.4517 26.8802C28.4057 27.4437 28.3203 27.7605 28.1998 27.9971C27.9361 28.5145 27.5154 28.9352 26.998 29.1989C26.7614 29.3194 26.4445 29.4048 25.8811 29.4508C25.3059 29.4978 24.5661 29.4986 23.4995 29.4986H12.5C11.4334 29.4986 10.6936 29.4978 10.1184 29.4508Z" fill="white"/>
</svg>
