<svg width="36" height="36" viewBox="0 0 36 36" fill="none" xmlns="http://www.w3.org/2000/svg">
<path fill-rule="evenodd" clip-rule="evenodd" d="M25.4646 5.09123C25.8355 5.03958 26.0507 5.01048 26.2088 5.00214C26.2631 4.99928 26.2965 4.99997 26.3144 5.00095C26.3269 5.00847 26.338 5.01812 26.3472 5.02946C26.3506 5.0471 26.3559 5.08012 26.3606 5.13422C26.3741 5.29197 26.375 5.50917 26.375 5.88358V8.8143C25.9524 8.77325 25.4815 8.73724 24.9582 8.69721L12.1143 7.71473C11.035 7.63216 10.1549 7.56483 9.43892 7.57082C9.31846 7.57183 9.19977 7.57487 9.08274 7.58047C9.3448 7.47493 9.66267 7.38155 10.0712 7.29239C10.7875 7.13603 11.7057 7.00746 13.0042 6.82661L25.4646 5.09123ZM4.66871 11.3171C4.67427 11.2202 4.68053 11.1257 4.68759 11.0337C4.75183 10.196 4.88588 9.48098 5.19325 8.81029C5.69399 7.71766 6.49916 6.79258 7.51227 6.14591C8.13416 5.74896 8.82387 5.51756 9.64464 5.3384C10.4446 5.16377 11.4388 5.02531 12.6882 4.85131L25.2245 3.10536C25.5471 3.06041 25.849 3.01834 26.1035 3.00492C26.3773 2.99048 26.6984 3.0011 27.0271 3.13024C27.4823 3.30908 27.8618 3.63943 28.1017 4.06558C28.275 4.37331 28.3298 4.6899 28.3532 4.96305C28.3751 5.21699 28.375 5.52182 28.375 5.84746L28.375 9.18409C28.6134 9.26727 28.8428 9.37004 29.0649 9.49969C29.9126 9.99452 30.5931 10.7356 31.0177 11.6265C31.288 12.1935 31.3984 12.7918 31.4501 13.4531C31.5 14.0904 31.5 14.8706 31.5 15.8219V25.727C31.5 26.82 31.5 27.7111 31.44 28.4315C31.3781 29.1751 31.2459 29.8454 30.9173 30.4616C30.4054 31.4217 29.5921 32.1829 28.6053 32.6259C27.972 32.9102 27.3 32.9926 26.5611 32.9988C25.8452 33.0048 24.9651 32.9375 23.8859 32.8549L11.0418 31.8724C10.1023 31.8006 9.33186 31.7416 8.70629 31.6433C8.05715 31.5412 7.47455 31.3848 6.9351 31.0699C6.08739 30.5751 5.4069 29.834 4.98226 28.9431C4.71204 28.3762 4.60165 27.7778 4.54987 27.1165C4.49998 26.4792 4.49999 25.699 4.5 24.7477V14.8426C4.49999 13.7497 4.49998 12.8585 4.55998 12.1381C4.58364 11.8541 4.61754 11.5808 4.66871 11.3171ZM14.872 14.7951C12.6274 14.7951 11.25 16.7461 11.25 18.3464C11.25 21.2562 14.0483 23.9905 16.5996 26.0027C17.0734 26.3763 17.3103 26.5632 17.6041 26.6436C17.8492 26.7106 18.1508 26.7106 18.3959 26.6436C18.6897 26.5632 18.9266 26.3763 19.4004 26.0027C21.9517 23.9905 24.75 21.2562 24.75 18.3464C24.75 16.7461 23.3726 14.7951 21.1281 14.7951C19.8745 14.7951 18.8036 15.7884 18 16.7321C17.1964 15.7884 16.1255 14.7951 14.872 14.7951Z" fill="white"/>
</svg>
