<svg width="36" height="36" viewBox="0 0 36 36" fill="none" xmlns="http://www.w3.org/2000/svg">
<path d="M11.25 11C11.8023 11 12.25 11.4477 12.25 12V23H16.65C17.2023 23 17.65 23.4477 17.65 24C17.65 24.5523 17.2023 25 16.65 25H11.4C10.7649 25 10.25 24.4851 10.25 23.85V12C10.25 11.4477 10.6977 11 11.25 11Z" fill="white"/>
<path d="M24.3001 13H20.3501V16.7601H24.3001C24.8524 16.7601 25.3001 17.2078 25.3001 17.7601C25.3001 18.3124 24.8524 18.7601 24.3001 18.7601H20.3501V23H24.7501C25.3024 23 25.7501 23.4477 25.7501 24C25.7501 24.5523 25.3024 25 24.7501 25H19.5001C18.865 25 18.3501 24.4851 18.3501 23.85V12C18.3501 11.4477 18.7978 11 19.3501 11H24.3001C24.8524 11 25.3001 11.4477 25.3001 12C25.3001 12.5523 24.8524 13 24.3001 13Z" fill="white"/>
<path fill-rule="evenodd" clip-rule="evenodd" d="M3 17.9994C3 9.71548 9.71548 3 17.9994 3C26.2834 3 32.9989 9.71548 32.9989 17.9994C32.9989 26.2834 26.2834 32.9989 17.9994 32.9989C9.71548 32.9989 3 26.2834 3 17.9994ZM17.9994 5C10.82 5 5 10.82 5 17.9994C5 25.1788 10.82 30.9989 17.9994 30.9989C25.1788 30.9989 30.9989 25.1788 30.9989 17.9994C30.9989 10.82 25.1788 5 17.9994 5Z" fill="white"/>
</svg>
