<svg width="36" height="36" viewBox="0 0 36 36" fill="none" xmlns="http://www.w3.org/2000/svg">
<path fill-rule="evenodd" clip-rule="evenodd" d="M33 18C33 26.2843 26.2843 33 18 33C9.71573 33 3 26.2843 3 18C3 9.71573 9.71573 3 18 3C26.2843 3 33 9.71573 33 18ZM11.25 11C11.8023 11 12.25 11.4477 12.25 12V23H16.65C17.2023 23 17.65 23.4477 17.65 24C17.65 24.5523 17.2023 25 16.65 25H11.4C10.7649 25 10.25 24.4851 10.25 23.85V12C10.25 11.4477 10.6977 11 11.25 11ZM24.3 13H20.35V16.7601H24.3C24.8523 16.7601 25.3 17.2078 25.3 17.7601C25.3 18.3124 24.8523 18.7601 24.3 18.7601H20.35V23H24.75C25.3023 23 25.75 23.4477 25.75 24C25.75 24.5523 25.3023 25 24.75 25H19.5C18.8649 25 18.35 24.4851 18.35 23.85V12C18.35 11.4477 18.7977 11 19.35 11H24.3C24.8523 11 25.3 11.4477 25.3 12C25.3 12.5523 24.8523 13 24.3 13Z" fill="white"/>
</svg>
