<svg width="36" height="36" viewBox="0 0 36 36" fill="none" xmlns="http://www.w3.org/2000/svg">
<path fill-rule="evenodd" clip-rule="evenodd" d="M13.4373 3C13.9896 3 14.4373 3.44772 14.4373 4V10.2598H21.5641V4C21.5641 3.44772 22.0118 3 22.5641 3C23.1163 3 23.5641 3.44772 23.5641 4V10.2598H24.4646C24.9925 10.2598 25.4828 10.4225 25.8887 10.7007L12.3566 24.2329L11.4787 23.4745C9.90531 22.1153 8.99979 20.1312 8.99979 18.0428V12.8148C8.99979 11.4037 10.1348 10.2598 11.535 10.2598H12.4373V4C12.4373 3.44772 12.885 3 13.4373 3ZM13.8741 25.5438L14.1467 25.7792C14.2591 25.8763 14.3237 26.018 14.3237 26.1672V32.9993H21.6758V26.1672C21.6758 26.018 21.7405 25.8763 21.8529 25.7792L24.5209 23.4745C26.0943 22.1153 26.9998 20.1312 26.9998 18.0428V12.8148C26.9998 12.6891 26.9908 12.5654 26.9734 12.4445L13.8741 25.5438Z" fill="white"/>
<path fill-rule="evenodd" clip-rule="evenodd" d="M31.163 4.08C31.5535 4.47053 31.5535 5.10369 31.163 5.49422L5.70711 30.9501C5.31658 31.3406 4.68342 31.3406 4.29289 30.9501C3.90237 30.5595 3.90237 29.9264 4.29289 29.5358L29.7487 4.08C30.1393 3.68948 30.7724 3.68948 31.163 4.08Z" fill="white"/>
</svg>
