<svg width="36" height="36" viewBox="0 0 36 36" fill="none" xmlns="http://www.w3.org/2000/svg">
<path d="M26.9745 12.4443C26.9919 12.5651 27.0009 12.6888 27.0009 12.8145V18.043C27.0008 20.1313 26.0947 22.1155 24.5214 23.4746L21.8534 25.7793C21.7412 25.8763 21.6767 26.018 21.6767 26.167V32.999H14.3241V26.167C14.3241 26.0179 14.2597 25.8763 14.1474 25.7793L13.8749 25.5439L26.9745 12.4443Z" fill="white"/>
<path d="M22.5644 3C23.1166 3 23.5644 3.44772 23.5644 4V10.2598H23.5702L29.7509 4.08008C30.1414 3.68972 30.7745 3.68961 31.1649 4.08008C31.5552 4.47056 31.5552 5.10366 31.1649 5.49414L5.70889 30.9502C5.31842 31.3406 4.68535 31.3405 4.29483 30.9502C3.90432 30.5597 3.90434 29.9267 4.29483 29.5361L10.9081 22.9229C9.68897 21.6057 9.00094 19.8638 9.00088 18.043V12.8145C9.00108 11.4035 10.136 10.2598 11.536 10.2598H12.4384V4C12.4384 3.44772 12.8861 3 13.4384 3C13.9905 3.00018 14.4384 3.44783 14.4384 4V10.2598H21.5644V4C21.5644 3.44786 22.0123 3.00024 22.5644 3Z" fill="white"/>
</svg>
