<svg width="36" height="36" viewBox="0 0 36 36" fill="none" xmlns="http://www.w3.org/2000/svg">
<path fill-rule="evenodd" clip-rule="evenodd" d="M13.4219 3C12.6625 3 12.0469 3.61561 12.0469 4.375V10.5672H11.5C10.1193 10.5672 9 11.6865 9 13.0672V18.2548C9 20.3063 9.89992 22.2545 11.4619 23.5845L14.1564 25.8789C14.268 25.9739 14.3323 26.113 14.3323 26.2595V32.9988H21.6646V26.2595C21.6646 26.113 21.7289 25.9739 21.8404 25.8789L24.535 23.5845C26.097 22.2545 26.9969 20.3063 26.9969 18.2548V13.0672C26.9969 11.6865 25.8776 10.5672 24.4969 10.5672H23.9497V4.375C23.9497 3.61561 23.3341 3 22.5747 3H13.4219ZM21.9497 10.5672V5H14.0469V10.5672H21.9497ZM11 13.0672C11 12.7911 11.2239 12.5672 11.5 12.5672H24.4969C24.773 12.5672 24.9969 12.7911 24.9969 13.0672V18.2548C24.9969 19.7201 24.3541 21.1117 23.2384 22.0617L20.5438 24.3561C19.986 24.8311 19.6646 25.5269 19.6646 26.2595V30.9988H16.3323V26.2595C16.3323 25.5269 16.0109 24.8311 15.453 24.3561L12.7585 22.0617C11.6428 21.1117 11 19.7201 11 18.2548V13.0672Z" fill="white"/>
</svg>
