<svg width="36" height="36" viewBox="0 0 36 36" fill="none" xmlns="http://www.w3.org/2000/svg">
<path fill-rule="evenodd" clip-rule="evenodd" d="M18.9981 4C18.9981 3.44772 18.5503 3 17.9981 3C17.4458 3 16.9981 3.44772 16.9981 4V15.3509C16.9981 15.9032 17.4458 16.3509 17.9981 16.3509C18.5503 16.3509 18.9981 15.9032 18.9981 15.3509V4ZM24.7486 7.83389C24.2701 7.55797 23.6586 7.72213 23.3827 8.20055C23.1068 8.67897 23.2709 9.29048 23.7494 9.5664C25.9417 10.8308 27.6548 12.7823 28.6234 15.1182C29.592 17.454 29.7619 20.0438 29.1068 22.4859C28.4518 24.928 27.0083 27.0861 25 28.6255C22.9918 30.1648 20.531 30.9993 17.9993 30.9993C15.4676 30.9993 13.0069 30.1648 10.9986 28.6255C8.9903 27.0861 7.54682 24.928 6.89177 22.4859C6.23671 20.0438 6.40662 17.454 7.37519 15.1182C8.34377 12.7823 10.0569 10.8308 12.2493 9.56641C12.7277 9.29048 12.8918 8.67897 12.6159 8.20055C12.34 7.72213 11.7285 7.55797 11.2501 7.83389C8.67658 9.31811 6.66507 11.6092 5.52772 14.3521C4.39036 17.095 4.19081 20.1362 4.96005 23.004C5.72929 25.8718 7.42426 28.4057 9.78186 30.2128C12.1394 32.0199 15.0279 32.9993 17.9993 32.9993C20.9707 32.9993 23.8592 32.0199 26.2168 30.2128C28.5744 28.4057 30.2693 25.8718 31.0386 23.004C31.8078 20.1362 31.6082 17.095 30.4709 14.3521C29.3335 11.6092 27.322 9.31811 24.7486 7.83389Z" fill="white"/>
</svg>
