<svg width="36" height="36" viewBox="0 0 36 36" fill="none" xmlns="http://www.w3.org/2000/svg">
<path d="M26.9745 12.4443C26.9898 12.5562 26.997 12.671 26.997 12.7871V18.1279C26.9969 20.1629 26.1117 22.0971 24.5712 23.4268L21.8388 25.7852C21.7287 25.8801 21.6649 26.0187 21.6649 26.1641V32.9971H14.3329V26.1641C14.3329 26.0187 14.2691 25.8801 14.1591 25.7852L13.8769 25.542L15.2948 24.124L15.4667 24.2715C16.0167 24.7464 16.3329 25.4374 16.3329 26.1641V30.9971H19.6649V26.1641C19.6649 25.4372 19.9819 24.7464 20.5321 24.2715L23.2646 21.9131C24.3649 20.9634 24.9969 19.5815 24.997 18.1279V14.4209L26.9745 12.4443Z" fill="white"/>
<path fill-rule="evenodd" clip-rule="evenodd" d="M22.5692 3C23.1215 3 23.5692 3.44772 23.5692 4V10.2607L29.7509 4.08008C30.1414 3.68972 30.7745 3.68961 31.1649 4.08008C31.5552 4.47056 31.5552 5.10366 31.1649 5.49414L5.70889 30.9502C5.31842 31.3406 4.68535 31.3405 4.29483 30.9502C3.90432 30.5597 3.90434 29.9267 4.29483 29.5361L10.9042 22.9268C9.68774 21.635 9.00097 19.9203 9.00088 18.1279V12.7871C9.00088 11.4064 10.1202 10.2871 11.5009 10.2871H12.4286V4C12.4286 3.44772 12.8763 3 13.4286 3C13.9807 3.00018 14.4286 3.44783 14.4286 4V10.2871H21.5692V4C21.5692 3.44775 22.017 3.00006 22.5692 3ZM11.5009 12.2871C11.2247 12.2871 11.0009 12.511 11.0009 12.7871V18.1279C11.001 19.3878 11.4761 20.5934 12.3192 21.5107L21.5438 12.2871H11.5009Z" fill="white"/>
</svg>
