<svg width="36" height="36" viewBox="0 0 36 36" fill="none" xmlns="http://www.w3.org/2000/svg">
<path d="M12.75 19C14.1307 19 15.25 20.1193 15.25 21.5V24.5C15.25 25.8807 14.1307 27 12.75 27H9.75C9.47386 27 9.25 27.2239 9.25 27.5V30.5C9.25 30.7761 9.47386 31 9.75 31H14.25C14.8023 31 15.25 31.4477 15.25 32C15.25 32.5523 14.8023 33 14.25 33H9.75C8.36929 33 7.25 31.8807 7.25 30.5V27.5C7.25 26.1193 8.36929 25 9.75 25H12.75C13.0261 25 13.25 24.7761 13.25 24.5V21.5C13.25 21.2239 13.0261 21 12.75 21H8.25C7.69772 21 7.25 20.5523 7.25 20C7.25 19.4477 7.69772 19 8.25 19H12.75Z" fill="white"/>
<path d="M18 30C18.8284 30 19.5 30.6716 19.5 31.5C19.5 32.3284 18.8284 33 18 33C17.1716 33 16.5 32.3284 16.5 31.5C16.5 30.6716 17.1716 30 18 30Z" fill="white"/>
<path d="M27.75 19C28.3023 19 28.75 19.4477 28.75 20C28.75 20.5523 28.3023 21 27.75 21H23.25C22.9739 21 22.75 21.2239 22.75 21.5V24.5C22.75 24.7761 22.9739 25 23.25 25H26.25C27.6307 25 28.75 26.1193 28.75 27.5V30.5C28.75 31.8807 27.6307 33 26.25 33H21.75C21.1977 33 20.75 32.5523 20.75 32C20.75 31.4477 21.1977 31 21.75 31H26.25C26.5261 31 26.75 30.7761 26.75 30.5V27.5C26.75 27.2239 26.5261 27 26.25 27H23.25C21.8693 27 20.75 25.8807 20.75 24.5V21.5C20.75 20.1193 21.8693 19 23.25 19H27.75Z" fill="white"/>
<path fill-rule="evenodd" clip-rule="evenodd" d="M12.0225 3C14.2191 3.00022 15.9998 4.7809 16 6.97754C16 9.17436 14.2192 10.9558 12.0225 10.9561H9.25V15.25C9.25 15.8023 8.80228 16.25 8.25 16.25C7.69772 16.25 7.25 15.8023 7.25 15.25V4C7.25 3.44772 7.69772 3 8.25 3H12.0225ZM9.25 8.95605H12.0225C13.1147 8.95584 14 8.06979 14 6.97754C13.9998 5.88547 13.1145 5.00022 12.0225 5H9.25V8.95605Z" fill="white"/>
<path d="M26.9434 3.4082C27.1991 3.05963 27.6506 2.9153 28.0615 3.0498C28.4722 3.18446 28.75 3.56774 28.75 4V15.25C28.75 15.8023 28.3023 16.25 27.75 16.25C27.1977 16.25 26.75 15.8023 26.75 15.25V7.05469L24.4316 10.2168C24.2433 10.4736 23.9435 10.625 23.625 10.625C23.3065 10.625 23.0067 10.4736 22.8184 10.2168L20.5 7.05469V15.25C20.5 15.8023 20.0523 16.25 19.5 16.25C18.9477 16.25 18.5 15.8023 18.5 15.25V4C18.5 3.56774 18.7778 3.18446 19.1885 3.0498C19.5994 2.9153 20.0509 3.05963 20.3066 3.4082L23.625 7.93262L26.9434 3.4082Z" fill="white"/>
</svg>
