<svg width="36" height="36" viewBox="0 0 36 36" fill="none" xmlns="http://www.w3.org/2000/svg">
<path d="M18.8359 19.2529C19.1301 18.9914 19.5501 18.9269 19.9092 19.0879C20.2684 19.2492 20.5 19.6062 20.5 20V32C20.5 32.5523 20.0523 33 19.5 33C18.9478 32.9999 18.5 32.5522 18.5 32V22.2256L15.6641 24.7471C15.2513 25.1139 14.6198 25.0768 14.2529 24.6641C13.8861 24.2513 13.9233 23.6198 14.3359 23.2529L18.8359 19.2529Z" fill="white"/>
<path fill-rule="evenodd" clip-rule="evenodd" d="M12.0225 3C14.2191 3.00022 15.9998 4.7809 16 6.97754C16 9.17436 14.2192 10.9558 12.0225 10.9561H9.25V15.25C9.25 15.8023 8.80228 16.25 8.25 16.25C7.69772 16.25 7.25 15.8023 7.25 15.25V4C7.25 3.44772 7.69772 3 8.25 3H12.0225ZM9.25 8.95605H12.0225C13.1147 8.95584 14 8.06979 14 6.97754C13.9998 5.88547 13.1145 5.00022 12.0225 5H9.25V8.95605Z" fill="white"/>
<path d="M26.9434 3.4082C27.1991 3.05963 27.6506 2.9153 28.0615 3.0498C28.4722 3.18446 28.75 3.56774 28.75 4V15.25C28.75 15.8023 28.3023 16.25 27.75 16.25C27.1977 16.25 26.75 15.8023 26.75 15.25V7.05469L24.4316 10.2168C24.2433 10.4736 23.9435 10.625 23.625 10.625C23.3065 10.625 23.0067 10.4736 22.8184 10.2168L20.5 7.05469V15.25C20.5 15.8023 20.0523 16.25 19.5 16.25C18.9477 16.25 18.5 15.8023 18.5 15.25V4C18.5 3.56774 18.7778 3.18446 19.1885 3.0498C19.5994 2.9153 20.0509 3.05963 20.3066 3.4082L23.625 7.93262L26.9434 3.4082Z" fill="white"/>
</svg>
