<svg width="36" height="36" viewBox="0 0 36 36" fill="none" xmlns="http://www.w3.org/2000/svg">
<path fill-rule="evenodd" clip-rule="evenodd" d="M11.6044 20.7874C9.50311 19.5247 9.5031 16.4787 11.6044 15.216L26.5759 6.21931C28.742 4.91761 31.4999 6.47783 31.4999 9.00502V26.9984C31.4999 29.5256 28.742 31.0858 26.5759 29.7841L11.6044 20.7874ZM12.6346 16.9303C11.8264 17.4159 11.8264 18.5875 12.6346 19.0731L27.606 28.0698C28.4392 28.5704 29.4999 27.9704 29.4999 26.9984V9.00502C29.4999 8.03303 28.4392 7.43294 27.606 7.9336L12.6346 16.9303ZM4.50195 7.51603C4.50195 6.96374 4.94967 6.51603 5.50195 6.51603C6.05424 6.51603 6.50195 6.96374 6.50195 7.51603V29.2382C6.50195 29.7904 6.05424 30.2382 5.50195 30.2382C4.94967 30.2382 4.50195 29.7904 4.50195 29.2382V7.51603Z" fill="white"/>
</svg>
