<svg width="36" height="36" viewBox="0 0 36 36" fill="none" xmlns="http://www.w3.org/2000/svg">
<path fill-rule="evenodd" clip-rule="evenodd" d="M22.97 6.12883L11.07 12.8388L6.04 10.1088L16.98 3.85883L17.22 3.74883C17.8 3.50883 18.46 3.54883 19.01 3.85883L22.97 6.12883ZM13.14 13.9688L17.93 16.5588L30.07 10.1888L25 7.28883L13.14 13.9688ZM10.07 14.5688V20.0388C10.07 20.5988 10.51 21.0388 11.07 21.0388C11.63 21.0388 12.07 20.5988 12.07 20.0388L12.08 15.6588L16.92 18.2888V23.5888C16.65 24.5088 16.5 25.4788 16.5 26.4988C16.5 27.5088 16.65 28.4788 16.92 29.3988V32.4188C16.85 32.3788 16.77 32.3488 16.7 32.3088L5.72 26.2288C5.05 25.8688 4.64 25.1588 4.64 24.3988V11.7788C4.64 11.7288 4.64 11.6788 4.65 11.6288L10.07 14.5688ZM31.28 17.7088V11.8188L18.92 18.2988V19.9588C20.76 17.8388 23.47 16.4988 26.5 16.4988C28.23 16.4988 29.86 16.9388 31.28 17.7088ZM18 26.4888C18 21.7988 21.8 17.9888 26.5 17.9888C31.19 17.9888 35 21.7988 35 26.4888C35 31.1888 31.19 34.9888 26.5 34.9888C21.8 34.9888 18 31.1888 18 26.4888ZM23.67 25.7488L26.25 23.1588C26.55 22.8688 26.55 22.3988 26.25 22.0988C25.96 21.7988 25.49 21.7988 25.19 22.0988L21.33 25.9688C21.25 26.0388 21.2 26.1188 21.16 26.2088C21.13 26.2988 21.11 26.3888 21.11 26.4988C21.11 26.5988 21.13 26.6888 21.16 26.7788C21.2 26.8688 21.25 26.9488 21.33 27.0288L25.19 30.8888C25.49 31.1888 25.96 31.1888 26.25 30.8888C26.55 30.5888 26.55 30.1288 26.25 29.8288L23.67 27.2488H31.13C31.55 27.2488 31.88 26.9188 31.88 26.4988C31.88 26.0788 31.55 25.7488 31.13 25.7488H23.67Z" fill="white"/>
</svg>
