<svg width="36" height="36" viewBox="0 0 36 36" fill="none" xmlns="http://www.w3.org/2000/svg">
<path fill-rule="evenodd" clip-rule="evenodd" d="M26.4998 18.0002C31.1941 18.0002 34.9997 21.8059 34.9998 26.5002C34.9998 31.1946 31.1942 35.0002 26.4998 35.0002C21.8055 35.0001 17.9998 31.1945 17.9998 26.5002C17.9999 21.8059 21.8055 18.0003 26.4998 18.0002ZM27.7459 22.0549C27.4513 21.8147 27.0165 21.8321 26.742 22.1066C26.4674 22.3812 26.4501 22.816 26.6902 23.1105L26.742 23.1672L29.325 25.7502H21.8631C21.4491 25.7503 21.1134 26.0863 21.1131 26.5002C21.1131 26.9143 21.449 27.2501 21.8631 27.2502H29.325L26.742 29.8342C26.4492 30.127 26.4493 30.6018 26.742 30.8947C27.0348 31.1874 27.5097 31.1874 27.8025 30.8947L31.6658 27.0304C31.9587 26.7376 31.9587 26.2628 31.6658 25.9699L27.8025 22.1066L27.7459 22.0549Z" fill="white"/>
<path fill-rule="evenodd" clip-rule="evenodd" d="M16.8484 3.28338C17.5082 2.90559 18.3196 2.90549 18.9793 3.28338L31.2918 10.3381C31.7967 10.6279 31.739 11.0004 31.739 11.6994V17.9816C31.1147 17.5968 30.4445 17.2797 29.739 17.0383V13.0861L18.9793 19.2512C18.9581 19.2633 18.9353 19.274 18.9138 19.2853V19.9885C18.0084 21.0424 17.3192 22.2866 16.9138 23.6535V19.2853L16.8484 19.2512L12.4851 16.7512V20.9367C12.4848 21.4885 12.037 21.9364 11.4851 21.9367C10.9333 21.9364 10.4855 21.4885 10.4851 20.9367V15.6047L6.01443 13.0441V24.9094C6.01461 24.935 6.02821 24.9593 6.05057 24.9719L16.9138 30.9953V29.3459C17.3387 30.7791 18.0747 32.0777 19.0457 33.1633C18.2782 33.5485 17.3671 33.534 16.6121 33.1154L5.08084 26.7209C4.42272 26.3558 4.01462 25.6619 4.01443 24.9094V11.6174C4.01445 11.5756 4.01823 11.5338 4.02322 11.4933C4.02321 11.0394 4.10215 10.587 4.53592 10.3381L16.8484 3.28338ZM24.1375 8.54217C24.0717 8.65706 23.9829 8.76164 23.8719 8.8449L23.7869 8.90154L13.5535 15.0578L17.8426 17.5158C17.8864 17.5408 17.9413 17.5408 17.9851 17.5158L28.8914 11.2668L24.1375 8.54217ZM17.9851 5.01873C17.9413 4.99372 17.8864 4.99383 17.8426 5.01873L6.93729 11.2668L11.6609 13.9728L11.9363 13.6974L22.2771 7.47674L17.9851 5.01873Z" fill="white"/>
</svg>
