<svg width="36" height="36" viewBox="0 0 36 36" fill="none" xmlns="http://www.w3.org/2000/svg">
<path fill-rule="evenodd" clip-rule="evenodd" d="M18 17.6484C21.5208 17.6484 24.375 14.7942 24.375 11.2734C24.375 7.75261 21.5208 4.89844 18 4.89844C14.4792 4.89844 11.625 7.75261 11.625 11.2734C11.625 14.7942 14.4792 17.6484 18 17.6484ZM30.7492 26.9342C30.7758 26.0681 30.3972 25.2334 29.7096 24.706C26.3702 22.1447 22.3405 20.6484 18.0019 20.6484C13.6618 20.6484 9.63084 22.1458 6.29082 24.7086C5.60347 25.236 5.22497 26.0706 5.25172 26.9365C5.28225 27.9247 5.37333 28.5676 5.64506 29.1009C6.00458 29.8065 6.57826 30.3802 7.28387 30.7397C8.08604 31.1484 9.13614 31.1484 11.2363 31.1484H24.7645C26.8647 31.1484 27.9148 31.1484 28.7169 30.7397C29.4225 30.3802 29.9962 29.8065 30.3557 29.1009C30.6277 28.5672 30.7187 27.9237 30.7492 26.9342Z" fill="white"/>
</svg>
