<svg width="36" height="36" viewBox="0 0 36 36" fill="none" xmlns="http://www.w3.org/2000/svg">
<path fill-rule="evenodd" clip-rule="evenodd" d="M23.2232 4.5H12.7768C11.5576 4.49999 10.5742 4.49998 9.7778 4.56505C8.95784 4.63204 8.23763 4.77358 7.5713 5.11309C6.51289 5.65238 5.65238 6.51289 5.11309 7.5713C4.77358 8.23763 4.63204 8.95784 4.56505 9.7778C4.49998 10.5742 4.49999 11.5576 4.5 12.7768V23.2232C4.49999 24.4424 4.49998 25.4258 4.56505 26.2222C4.63204 27.0422 4.77358 27.7624 5.11309 28.4287C5.65238 29.4871 6.51289 30.3476 7.5713 30.8869C8.23763 31.2264 8.95784 31.368 9.7778 31.435C10.5742 31.5 11.5576 31.5 12.7768 31.5H23.2232C24.4424 31.5 25.4258 31.5 26.2222 31.435C27.0422 31.368 27.7624 31.2264 28.4287 30.8869C29.4871 30.3476 30.3476 29.4871 30.8869 28.4287C31.2264 27.7624 31.368 27.0422 31.435 26.2222C31.5 25.4258 31.5 24.4424 31.5 23.2232V12.7768C31.5 11.5576 31.5 10.5742 31.435 9.7778C31.368 8.95784 31.2264 8.23763 30.8869 7.5713C30.3476 6.51289 29.4871 5.65238 28.4287 5.11309C27.7624 4.77358 27.0422 4.63204 26.2222 4.56505C25.4258 4.49998 24.4424 4.49999 23.2232 4.5ZM23.25 15C23.25 17.8995 20.8995 20.25 18 20.25C15.1005 20.25 12.75 17.8995 12.75 15C12.75 12.1005 15.1005 9.75 18 9.75C20.8995 9.75 23.25 12.1005 23.25 15ZM28.4688 28.0343C28.1777 28.384 27.8172 28.6732 27.4072 28.8821C26.6853 29.25 25.7402 29.25 23.85 29.25H12.15C10.2598 29.25 9.31473 29.25 8.59278 28.8821C8.18277 28.6732 7.82226 28.384 7.53116 28.0343C7.94708 24.9382 12.4752 22.5 18 22.5C23.5248 22.5 28.0529 24.9382 28.4688 28.0343Z" fill="white"/>
</svg>
