<svg width="36" height="36" viewBox="0 0 36 36" fill="none" xmlns="http://www.w3.org/2000/svg">
<path fill-rule="evenodd" clip-rule="evenodd" d="M5 17.9994C5 10.82 10.82 5 17.9994 5C25.1788 5 30.9989 10.82 30.9989 17.9994C30.9989 21.2935 29.7747 24.3003 27.7545 26.5918C25.6531 24.1778 22.0077 22.6749 17.9994 22.6749C13.9912 22.6749 10.3457 24.1778 8.24434 26.5918C6.22417 24.3003 5 21.2935 5 17.9994ZM17.9994 24.6749C21.6426 24.6749 24.6969 26.0692 26.3175 27.9896C24.0629 29.8692 21.1639 30.9989 17.9994 30.9989C14.8349 30.9989 11.936 29.8692 9.68134 27.9896C11.3019 26.0692 14.3563 24.6749 17.9994 24.6749ZM17.9994 3C9.71548 3 3 9.71548 3 17.9994C3 22.2698 4.78585 26.1247 7.64871 28.8551C10.3396 31.4216 13.9864 32.9989 17.9994 32.9989C22.0125 32.9989 25.6593 31.4216 28.3502 28.8551C31.213 26.1247 32.9989 22.2698 32.9989 17.9994C32.9989 9.71548 26.2834 3 17.9994 3ZM14.459 14.973C14.459 13.0177 16.0441 11.4326 17.9993 11.4326C19.9546 11.4326 21.5397 13.0177 21.5397 14.973C21.5397 16.9283 19.9546 18.5133 17.9993 18.5133C16.0441 18.5133 14.459 16.9283 14.459 14.973ZM17.9993 9.43262C14.9395 9.43262 12.459 11.9131 12.459 14.973C12.459 18.0328 14.9395 20.5133 17.9993 20.5133C21.0592 20.5133 23.5397 18.0328 23.5397 14.973C23.5397 11.9131 21.0592 9.43262 17.9993 9.43262Z" fill="white"/>
</svg>
