<svg width="36" height="36" viewBox="0 0 36 36" fill="none" xmlns="http://www.w3.org/2000/svg">
<path fill-rule="evenodd" clip-rule="evenodd" d="M12.6567 4.5H23.3419C24.5653 4.49999 25.5444 4.49998 26.3356 4.56463C27.1479 4.63099 27.8498 4.77043 28.4956 5.09946C29.5305 5.62677 30.3718 6.46816 30.8992 7.50305C31.2282 8.14882 31.3676 8.85075 31.434 9.66298C31.4986 10.4542 31.4986 11.4333 31.4986 12.6566V23.342C31.4986 24.5653 31.4986 25.5444 31.434 26.3356C31.3676 27.1479 31.2282 27.8498 30.8992 28.4956C30.3718 29.5305 29.5305 30.3718 28.4956 30.8992C27.8498 31.2282 27.1479 31.3676 26.3356 31.434C25.5444 31.4986 24.5653 31.4986 23.342 31.4986H12.6567C11.4333 31.4986 10.4542 31.4986 9.66298 31.434C8.85075 31.3676 8.14882 31.2282 7.50305 30.8992C6.46816 30.3718 5.62677 29.5305 5.09946 28.4956C4.77043 27.8498 4.63099 27.1479 4.56463 26.3356C4.49998 25.5444 4.49999 24.5653 4.5 23.3419V12.6567C4.49999 11.4333 4.49998 10.4542 4.56463 9.66298C4.63099 8.85075 4.77043 8.14882 5.09946 7.50305C5.62677 6.46816 6.46816 5.62677 7.50305 5.09946C8.14882 4.77043 8.85075 4.63099 9.66298 4.56463C10.4542 4.49998 11.4333 4.49999 12.6567 4.5ZM9.82584 6.55799C9.1373 6.61424 8.72787 6.72004 8.41103 6.88148C7.75247 7.21703 7.21703 7.75247 6.88148 8.41103C6.72004 8.72787 6.61424 9.1373 6.55799 9.82584C6.50078 10.5261 6.5 11.4234 6.5 12.7V23.2986C6.5 24.5752 6.50078 25.4726 6.55799 26.1728C6.61424 26.8613 6.72004 27.2707 6.88148 27.5876C7.03082 27.8807 7.21975 28.1494 7.44151 28.3869C7.94416 26.915 9.06318 25.6621 10.4895 24.7295C12.4565 23.4434 15.1148 22.6806 18.0003 22.6806C20.8857 22.6806 23.544 23.4434 25.5111 24.7295C26.9369 25.6618 28.0556 26.9142 28.5585 28.3854C28.7797 28.1482 28.9681 27.8801 29.1171 27.5876C29.2786 27.2707 29.3844 26.8613 29.4406 26.1728C29.4978 25.4726 29.4986 24.5752 29.4986 23.2986V12.7C29.4986 11.4234 29.4978 10.5261 29.4406 9.82584C29.3844 9.1373 29.2786 8.72787 29.1171 8.41103C28.7816 7.75247 28.2461 7.21703 27.5876 6.88148C27.2707 6.72004 26.8613 6.61424 26.1728 6.55799C25.4726 6.50078 24.5752 6.5 23.2986 6.5H12.7C11.4234 6.5 10.5261 6.50078 9.82584 6.55799ZM26.7609 29.3701C26.51 28.2967 25.7205 27.2561 24.4166 26.4035C22.8194 25.3591 20.5537 24.6806 18.0003 24.6806C15.4469 24.6806 13.1812 25.3591 11.584 26.4035C10.2799 27.2561 9.49043 28.2969 9.23962 29.3704C9.41009 29.3991 9.6034 29.4225 9.82584 29.4406C10.5261 29.4978 11.4234 29.4986 12.7 29.4986H23.2986C24.5752 29.4986 25.4726 29.4978 26.1728 29.4406C26.396 29.4224 26.5899 29.3989 26.7609 29.3701ZM18.0003 11.4238C16.0423 11.4238 14.4551 13.0111 14.4551 14.969C14.4551 16.927 16.0423 18.5142 18.0003 18.5142C19.9582 18.5142 21.5455 16.927 21.5455 14.969C21.5455 13.0111 19.9582 11.4238 18.0003 11.4238ZM12.4551 14.969C12.4551 11.9065 14.9377 9.42383 18.0003 9.42383C21.0628 9.42383 23.5455 11.9065 23.5455 14.969C23.5455 18.0316 21.0628 20.5142 18.0003 20.5142C14.9377 20.5142 12.4551 18.0316 12.4551 14.969Z" fill="white"/>
</svg>
