<svg width="36" height="36" viewBox="0 0 36 36" fill="none" xmlns="http://www.w3.org/2000/svg">
<path fill-rule="evenodd" clip-rule="evenodd" d="M24.3762 11.0234C24.3762 14.5442 21.522 17.3984 18.0012 17.3984C14.4804 17.3984 11.6262 14.5442 11.6262 11.0234C11.6262 7.50261 14.4804 4.64844 18.0012 4.64844C21.522 4.64844 24.3762 7.50261 24.3762 11.0234ZM17.5175 30.8984C16.8659 29.5707 16.5 28.0773 16.5 26.4984C16.5 24.206 17.2714 22.0937 18.5688 20.4069C18.3808 20.4013 18.1922 20.3984 18.0031 20.3984C13.6629 20.3984 9.632 21.8958 6.29198 24.4586C5.60463 24.986 5.22613 25.8206 5.25288 26.6865C5.28341 27.6747 5.37449 28.3176 5.64622 28.8509C6.00574 29.5565 6.57942 30.1302 7.28503 30.4897C8.0872 30.8984 9.1373 30.8984 11.2375 30.8984H17.5175Z" fill="white"/>
<path fill-rule="evenodd" clip-rule="evenodd" d="M26.5 34.9984C31.1944 34.9984 35 31.1929 35 26.4984C35 21.804 31.1944 17.9984 26.5 17.9984C21.8056 17.9984 18 21.804 18 26.4984C18 31.1929 21.8056 34.9984 26.5 34.9984ZM23.7521 22.6897C23.4592 22.3968 22.9843 22.3968 22.6914 22.6897C22.3985 22.9826 22.3985 23.4575 22.6914 23.7504L25.4395 26.4984L22.6914 29.2465C22.3985 29.5394 22.3985 30.0143 22.6914 30.3072C22.9843 30.6001 23.4592 30.6001 23.7521 30.3072L26.5002 27.5591L29.2482 30.3072C29.5411 30.6001 30.016 30.6001 30.3089 30.3072C30.6018 30.0143 30.6018 29.5394 30.3089 29.2465L27.5608 26.4984L30.3089 23.7504C30.6018 23.4575 30.6018 22.9826 30.3089 22.6897C30.016 22.3968 29.5411 22.3968 29.2482 22.6897L26.5002 25.4378L23.7521 22.6897Z" fill="white"/>
</svg>
