<svg width="36" height="36" viewBox="0 0 36 36" fill="none" xmlns="http://www.w3.org/2000/svg">
<path d="M10.3125 24.4307C10.4726 24.4307 10.6318 24.4355 10.79 24.4434C10.8256 24.4451 10.861 24.4481 10.8965 24.4502C11.0916 24.462 11.2854 24.4786 11.4775 24.502C11.4948 24.5041 11.5121 24.5056 11.5293 24.5078C11.6084 24.5179 11.6871 24.53 11.7656 24.542C11.8175 24.5499 11.8693 24.5577 11.9209 24.5664C11.9961 24.5791 12.0708 24.5939 12.1455 24.6084C12.1948 24.6179 12.244 24.6274 12.293 24.6377C12.3832 24.6567 12.4731 24.6768 12.5625 24.6982C12.5847 24.7036 12.6068 24.7094 12.6289 24.7148C12.7215 24.7378 12.8136 24.7615 12.9053 24.7871C12.9513 24.8 12.9971 24.8136 13.043 24.8271C13.1152 24.8485 13.1871 24.8706 13.2588 24.8936C13.2941 24.9049 13.3291 24.917 13.3643 24.9287C13.8863 25.1026 14.3914 25.3192 14.877 25.5752C14.9089 25.592 14.9409 25.6088 14.9727 25.626C15.0553 25.6707 15.1373 25.7167 15.2188 25.7637C15.239 25.7753 15.2592 25.787 15.2793 25.7988C15.3675 25.8504 15.4552 25.9028 15.542 25.957C15.564 25.9708 15.5855 25.9851 15.6074 25.999C15.6884 26.0505 15.769 26.1026 15.8486 26.1562C15.8581 26.1627 15.8675 26.1693 15.877 26.1758C16.0691 26.306 16.2583 26.4412 16.4424 26.584C17.2583 27.2168 17.625 28.1819 17.625 29.0957C17.625 30.9758 16.1008 32.5 14.2207 32.5H6.4043C4.52425 32.5 3 30.9758 3 29.0957C3.00004 28.1819 3.36668 27.2168 4.18262 26.584C5.92227 25.2347 8.02963 24.4307 10.3125 24.4307ZM10.3125 26.6807C8.57466 26.6807 6.94422 27.289 5.56152 28.3613C5.3855 28.4979 5.25004 28.7542 5.25 29.0957C5.25 29.7331 5.76689 30.25 6.4043 30.25H14.2207C14.8581 30.25 15.375 29.7331 15.375 29.0957C15.375 28.7542 15.2395 28.4979 15.0635 28.3613C13.7671 27.356 12.253 26.7582 10.6367 26.6875L10.3125 26.6807ZM17.6875 18.5557C18.0407 18.5557 18.3894 18.5772 18.7334 18.6152C18.7405 18.616 18.7477 18.6164 18.7549 18.6172C19.4004 18.69 20.0281 18.8276 20.6338 19.0244C20.644 19.0277 20.6539 19.0318 20.6641 19.0352C20.9347 19.1241 21.2006 19.225 21.4619 19.3369C21.4991 19.3528 21.5363 19.3684 21.5732 19.3848C21.646 19.417 21.7181 19.4504 21.79 19.4844C21.8223 19.4996 21.8546 19.5147 21.8867 19.5303C22.5408 19.8472 23.1619 20.2333 23.7412 20.6826C24.5215 21.2879 24.875 22.2137 24.875 23.0957C24.875 24.9067 23.4067 26.375 21.5957 26.375H18.2881C18.0401 26.0182 17.7333 25.687 17.3613 25.3984C16.8701 25.0175 16.3498 24.6764 15.8066 24.375H21.5957C22.3021 24.375 22.875 23.8021 22.875 23.0957C22.875 22.7225 22.7271 22.4268 22.5156 22.2627C21.2007 21.2428 19.6618 20.6345 18.0176 20.5625L17.6875 20.5557C16.8494 20.5557 16.0366 20.6958 15.2637 20.958C15.4959 20.3497 15.625 19.6901 15.625 19C15.625 18.9274 15.6219 18.8551 15.6191 18.7832C16.2877 18.6342 16.9791 18.5557 17.6875 18.5557ZM10.125 15C12.3341 15 14.125 16.7909 14.125 19C14.125 20.0772 13.6974 21.0533 13.0049 21.7725C12.9983 21.7793 12.9919 21.7862 12.9854 21.793C12.9105 21.8696 12.8327 21.9432 12.752 22.0137C12.7412 22.0231 12.7306 22.0327 12.7197 22.042C12.6907 22.0668 12.6616 22.0913 12.6318 22.1152C12.6134 22.1301 12.5948 22.1447 12.5762 22.1592C12.4994 22.2188 12.4209 22.2761 12.3398 22.3301C12.3314 22.3357 12.3229 22.3411 12.3145 22.3467C12.1373 22.4628 11.9501 22.5641 11.7549 22.6514C11.7376 22.6591 11.7205 22.6673 11.7031 22.6748C11.6747 22.687 11.6459 22.6984 11.6172 22.71C11.5867 22.7222 11.5562 22.7346 11.5254 22.7461C11.4256 22.7834 11.3241 22.8173 11.2207 22.8467C11.2146 22.8484 11.2083 22.8498 11.2021 22.8516C11.1552 22.8647 11.1081 22.8773 11.0605 22.8887C11.0453 22.8923 11.03 22.8959 11.0146 22.8994C10.7285 22.9644 10.4309 23 10.125 23C7.91586 23 6.125 21.2091 6.125 19C6.125 16.7909 7.91586 15 10.125 15ZM10.125 17C9.02043 17 8.125 17.8954 8.125 19C8.125 20.1046 9.02043 21 10.125 21C11.2296 21 12.125 20.1046 12.125 19C12.125 17.8954 11.2296 17 10.125 17ZM25.6875 12.4307C27.9704 12.4307 30.0777 13.2347 31.8174 14.584C32.6333 15.2168 33 16.1819 33 17.0957C33 18.9758 31.4758 20.5 29.5957 20.5H25.5957C25.3485 20.1328 25.0398 19.7916 24.6602 19.4971C24.0418 19.0175 23.3782 18.6 22.6787 18.25H29.5957C30.2331 18.25 30.75 17.7331 30.75 17.0957C30.75 16.7542 30.6145 16.4979 30.4385 16.3613C29.1421 15.356 27.628 14.7582 26.0117 14.6875L25.6875 14.6807C24.5409 14.6807 23.4415 14.9464 22.4287 15.4346C22.7926 14.7006 23 13.875 23 13C23 12.9385 22.9971 12.8774 22.9951 12.8164C23.8549 12.5664 24.7563 12.4307 25.6875 12.4307ZM17.5 9C19.7091 9 21.5 10.7909 21.5 13C21.5 13.351 21.4541 13.6912 21.3691 14.0156C21.3661 14.0271 21.3625 14.0384 21.3594 14.0498C21.3355 14.1378 21.3079 14.2241 21.2783 14.3096C21.275 14.319 21.2719 14.3285 21.2686 14.3379C21.2366 14.4279 21.2022 14.5166 21.1641 14.6035C21.1589 14.6154 21.1528 14.6269 21.1475 14.6387C21.0697 14.8116 20.9805 14.9779 20.8799 15.1367C20.868 15.1554 20.8559 15.1739 20.8438 15.1924C20.6836 15.4362 20.4982 15.6615 20.29 15.8643C20.2795 15.8745 20.2685 15.8844 20.2578 15.8945C20.1185 16.0273 19.9698 16.15 19.8125 16.2617C19.8047 16.2673 19.7969 16.2728 19.7891 16.2783C19.5425 16.4508 19.2761 16.596 18.9932 16.71C18.9854 16.7131 18.9775 16.7157 18.9697 16.7188C18.5145 16.8988 18.0193 17 17.5 17C15.2909 17 13.5 15.2091 13.5 13C13.5 10.7909 15.2909 9 17.5 9ZM17.5 11C16.3954 11 15.5 11.8954 15.5 13C15.5 14.1046 16.3954 15 17.5 15C18.6046 15 19.5 14.1046 19.5 13C19.5 11.8954 18.6046 11 17.5 11ZM25.5 3C27.7091 3 29.5 4.79086 29.5 7C29.5 9.20914 27.7091 11 25.5 11C23.2909 11 21.5 9.20914 21.5 7C21.5 4.79086 23.2909 3 25.5 3ZM25.5 5C24.3954 5 23.5 5.89543 23.5 7C23.5 8.10457 24.3954 9 25.5 9C26.6046 9 27.5 8.10457 27.5 7C27.5 5.89543 26.6046 5 25.5 5Z" fill="white"/>
</svg>
