<svg width="36" height="36" viewBox="0 0 36 36" fill="none" xmlns="http://www.w3.org/2000/svg">
<path d="M10.3125 24.5557C10.5158 24.5557 10.7176 24.5636 10.918 24.5762C10.9362 24.5773 10.9544 24.5788 10.9727 24.5801C11.071 24.5868 11.169 24.5948 11.2666 24.6045C11.2803 24.6059 11.294 24.607 11.3076 24.6084C11.76 24.6553 12.2037 24.7339 12.6377 24.8418C12.6579 24.8468 12.6781 24.8513 12.6982 24.8564C12.7926 24.8806 12.8862 24.9067 12.9795 24.9336C13.0079 24.9418 13.0361 24.9506 13.0645 24.959C13.1399 24.9815 13.2152 25.0041 13.29 25.0283C13.3414 25.045 13.3923 25.0626 13.4434 25.0801C13.5198 25.1062 13.5962 25.1321 13.6719 25.1602C13.6912 25.1673 13.7102 25.1753 13.7295 25.1826C14.132 25.3345 14.5236 25.5123 14.9033 25.7139C14.9378 25.7322 14.9726 25.7499 15.0068 25.7686C15.0794 25.8081 15.151 25.8493 15.2227 25.8906C15.2487 25.9056 15.2749 25.9203 15.3008 25.9355C15.3865 25.986 15.4713 26.0379 15.5557 26.0908C15.5772 26.1043 15.5986 26.1182 15.6201 26.1318C15.6935 26.1786 15.7666 26.2258 15.8389 26.2744C15.8769 26.3 15.9144 26.3265 15.9521 26.3525C16.1182 26.4672 16.2824 26.5849 16.4424 26.709C17.2583 27.3418 17.625 28.3069 17.625 29.2207C17.625 31.1008 16.1008 32.625 14.2207 32.625H6.4043C4.52425 32.625 3 31.1008 3 29.2207C3.00004 28.3069 3.36668 27.3418 4.18262 26.709C5.92227 25.3597 8.02963 24.5557 10.3125 24.5557ZM17.8125 18.6807C18.1203 18.6807 18.4247 18.6966 18.7256 18.7256C18.7709 18.73 18.8161 18.7352 18.8613 18.7402C19.0005 18.7557 19.1388 18.7745 19.2764 18.7959C19.3197 18.8026 19.3631 18.8081 19.4062 18.8154C19.4789 18.8278 19.5509 18.8425 19.623 18.8564C19.6723 18.866 19.7215 18.8754 19.7705 18.8857C19.848 18.902 19.9251 18.9193 20.002 18.9375C20.0339 18.9451 20.0658 18.953 20.0977 18.9609C20.1843 18.9824 20.2706 19.0045 20.3564 19.0283C20.3888 19.0373 20.4209 19.0473 20.4531 19.0566C20.5282 19.0783 20.6033 19.0996 20.6777 19.123C20.7885 19.158 20.8986 19.1946 21.0078 19.2334C21.077 19.258 21.1453 19.2845 21.2139 19.3105C21.2539 19.3258 21.2941 19.3407 21.334 19.3564C21.4068 19.3852 21.4787 19.4158 21.5508 19.4463C21.5903 19.463 21.6297 19.4798 21.6689 19.4971C21.7366 19.5268 21.8041 19.5567 21.8711 19.5879C21.9238 19.6124 21.9761 19.6377 22.0283 19.6631C22.0845 19.6904 22.1406 19.7177 22.1963 19.7461C22.2218 19.7591 22.247 19.7729 22.2725 19.7861C22.418 19.8619 22.5621 19.9406 22.7041 20.0234C22.739 20.0438 22.7739 20.0642 22.8086 20.085C22.9815 20.1885 23.1513 20.2975 23.3184 20.4111C23.3372 20.4239 23.3563 20.4363 23.375 20.4492C23.5416 20.5641 23.7057 20.6831 23.8662 20.8076C24.6465 21.4129 25 22.3387 25 23.2207C25 25.0317 23.5317 26.5 21.7207 26.5H18.2881C18.0401 26.1432 17.7333 25.812 17.3613 25.5234C16.1963 24.6199 14.875 23.9268 13.4453 23.5078C14.769 22.5034 15.625 20.9148 15.625 19.125C15.625 19.0626 15.6222 19.0004 15.6201 18.9385C16.3272 18.7709 17.0601 18.6807 17.8125 18.6807ZM10.125 15.125C12.3341 15.125 14.125 16.9159 14.125 19.125C14.125 19.5751 14.0492 20.0074 13.9121 20.4111C13.9063 20.4281 13.9005 20.445 13.8945 20.4619C13.3443 22.0134 11.8651 23.125 10.125 23.125C7.91586 23.125 6.125 21.3341 6.125 19.125C6.125 16.9159 7.91586 15.125 10.125 15.125ZM25.6875 12.5557C27.9704 12.5557 30.0777 13.3597 31.8174 14.709C32.6333 15.3418 33 16.3069 33 17.2207C33 19.1008 31.4758 20.625 29.5957 20.625H25.7207C25.4735 20.2578 25.1648 19.9166 24.7852 19.6221C23.6067 18.7082 22.2678 18.0117 20.8184 17.6006C22.2139 16.603 23.125 14.9712 23.125 13.125C23.125 13.0511 23.122 12.9775 23.1191 12.9043C23.9413 12.677 24.8012 12.5557 25.6875 12.5557ZM17.625 9.125C19.8341 9.125 21.625 10.9159 21.625 13.125C21.625 15.3341 19.8341 17.125 17.625 17.125C15.4159 17.125 13.625 15.3341 13.625 13.125C13.625 10.9159 15.4159 9.125 17.625 9.125ZM25.5 3.125C27.7091 3.125 29.5 4.91586 29.5 7.125C29.5 9.33414 27.7091 11.125 25.5 11.125C23.2909 11.125 21.5 9.33414 21.5 7.125C21.5 4.91586 23.2909 3.125 25.5 3.125Z" fill="white"/>
</svg>
