<svg width="36" height="36" viewBox="0 0 36 36" fill="none" xmlns="http://www.w3.org/2000/svg">
<path fill-rule="evenodd" clip-rule="evenodd" d="M10.5 4.5C10.5 3.67157 9.82843 3 9 3C8.17157 3 7.5 3.67157 7.5 4.5V9.06082C6.83303 9.12001 6.22805 9.24282 5.6618 9.53134C4.74451 9.99873 3.99873 10.7445 3.53134 11.6618C3.23271 12.2479 3.1116 12.8755 3.05483 13.5704C2.99998 14.2417 2.99999 15.0678 3 16.0778V22.9222C2.99999 23.9322 2.99998 24.7583 3.05483 25.4296C3.1116 26.1245 3.23271 26.7521 3.53134 27.3382C3.99873 28.2555 4.74451 29.0013 5.6618 29.4687C6.24791 29.7673 6.87551 29.8884 7.5704 29.9452C8.24174 30 9.0678 30 10.0779 30H25.9221C26.9322 30 27.7583 30 28.4296 29.9452C29.1245 29.8884 29.7521 29.7673 30.3382 29.4687C31.2555 29.0013 32.0013 28.2555 32.4687 27.3382C32.7673 26.7521 32.8884 26.1245 32.9452 25.4296C33 24.7583 33 23.9322 33 22.9221V16.0779C33 15.0678 33 14.2417 32.9452 13.5704C32.8884 12.8755 32.7673 12.2479 32.4687 11.6618C32.0013 10.7445 31.2555 9.99873 30.3382 9.53134C29.7521 9.23271 29.1245 9.1116 28.4296 9.05483C27.7583 8.99998 26.9322 8.99999 25.9222 9H10.5V4.5ZM10.5 24C10.5 24.8284 9.82843 25.5 9 25.5C8.17157 25.5 7.5 24.8284 7.5 24C7.5 23.1716 8.17157 22.5 9 22.5C9.82843 22.5 10.5 23.1716 10.5 24ZM22.5 25.5C25.8137 25.5 28.5 22.8137 28.5 19.5C28.5 16.1863 25.8137 13.5 22.5 13.5C19.1863 13.5 16.5 16.1863 16.5 19.5C16.5 22.8137 19.1863 25.5 22.5 25.5ZM25.5 19.5C25.5 21.1569 24.1569 22.5 22.5 22.5C20.8431 22.5 19.5 21.1569 19.5 19.5C19.5 17.8431 20.8431 16.5 22.5 16.5C24.1569 16.5 25.5 17.8431 25.5 19.5Z" fill="white"/>
</svg>
