<svg width="36" height="36" viewBox="0 0 36 36" fill="none" xmlns="http://www.w3.org/2000/svg">
<path fill-rule="evenodd" clip-rule="evenodd" d="M9.9188 4C9.9188 3.44772 9.47109 3 8.9188 3C8.36652 3 7.9188 3.44772 7.9188 4V8.67918C7.75659 8.68647 7.60231 8.69582 7.45558 8.7078C6.76841 8.76395 6.1591 8.88295 5.59355 9.17111C4.69978 9.62651 3.97312 10.3532 3.51772 11.2469C3.22956 11.8125 3.11056 12.4218 3.05441 13.109C2.99998 13.7752 2.99999 14.5969 3 15.6109V22.5415C2.99999 23.5555 2.99998 24.3772 3.05441 25.0434C3.11056 25.7306 3.22956 26.3399 3.51772 26.9055C3.97312 27.7992 4.69978 28.5259 5.59355 28.9813C6.1591 29.2694 6.76841 29.3884 7.45557 29.4446C8.12178 29.499 8.94347 29.499 9.9575 29.499H26.0414C27.0554 29.499 27.8771 29.499 28.5433 29.4446C29.2305 29.3884 29.8398 29.2694 30.4053 28.9813C31.2991 28.5259 32.0258 27.7992 32.4812 26.9055C32.7693 26.3399 32.8883 25.7306 32.9445 25.0434C32.9989 24.3772 32.9989 23.5555 32.9989 22.5415V15.6109C32.9989 14.5969 32.9989 13.7752 32.9445 13.109C32.8883 12.4218 32.7693 11.8125 32.4812 11.2469C32.0258 10.3532 31.2991 9.62651 30.4053 9.17111C29.8398 8.88295 29.2305 8.76395 28.5433 8.7078C27.8771 8.65337 27.0554 8.65338 26.0414 8.65339H9.95748C9.94455 8.65339 9.93166 8.65339 9.9188 8.65339V4ZM28.3804 27.4512C28.9439 27.4052 29.2607 27.3198 29.4974 27.1993C30.0148 26.9356 30.4355 26.5149 30.6991 25.9975C30.8197 25.7609 30.9051 25.444 30.9511 24.8806C30.9981 24.3054 30.9989 23.5656 30.9989 22.499V15.6534C30.9989 14.5868 30.9981 13.847 30.9511 13.2718C30.9051 12.7084 30.8197 12.3915 30.6991 12.1549C30.4355 11.6375 30.0148 11.2168 29.4974 10.9531C29.2607 10.8326 28.9439 10.7472 28.3804 10.7012C27.8053 10.6542 27.0655 10.6534 25.9989 10.6534H10C8.9334 10.6534 8.19359 10.6542 7.61844 10.7012C7.05496 10.7472 6.73814 10.8326 6.50153 10.9531C5.98408 11.2168 5.56338 11.6375 5.29973 12.1549C5.17917 12.3915 5.09381 12.7084 5.04777 13.2718C5.00078 13.847 5 14.5868 5 15.6534V22.499C5 23.5656 5.00078 24.3054 5.04777 24.8806C5.09381 25.444 5.17917 25.7609 5.29973 25.9975C5.56338 26.5149 5.98408 26.9356 6.50153 27.1993C6.73814 27.3198 7.05496 27.4052 7.61844 27.4512C8.19359 27.4982 8.9334 27.499 10 27.499H25.9989C27.0655 27.499 27.8053 27.4982 28.3804 27.4512ZM10.4322 23.5994C10.4322 24.4321 9.75458 25.1071 8.91873 25.1071C8.08287 25.1071 7.40527 24.4321 7.40527 23.5994C7.40527 22.7668 8.08287 22.0918 8.91873 22.0918C9.75458 22.0918 10.4322 22.7668 10.4322 23.5994ZM22.5397 20.5846C23.3755 20.5846 24.0531 19.9096 24.0531 19.077C24.0531 18.2443 23.3755 17.5693 22.5397 17.5693C21.7038 17.5693 21.0262 18.2443 21.0262 19.077C21.0262 19.9096 21.7038 20.5846 22.5397 20.5846ZM22.5398 15.1768C20.3719 15.1768 18.6211 16.9264 18.6211 19.0766C18.6211 21.2268 20.3719 22.9765 22.5398 22.9765C24.7077 22.9765 26.4585 21.2268 26.4585 19.0766C26.4585 16.9264 24.7077 15.1768 22.5398 15.1768ZM16.6211 19.0766C16.6211 15.8146 19.2746 13.1768 22.5398 13.1768C25.805 13.1768 28.4585 15.8146 28.4585 19.0766C28.4585 22.3386 25.805 24.9765 22.5398 24.9765C19.2746 24.9765 16.6211 22.3386 16.6211 19.0766Z" fill="white"/>
</svg>
