<svg width="36" height="36" viewBox="0 0 36 36" fill="none" xmlns="http://www.w3.org/2000/svg">
<path d="M18.3553 17.5H16V12.75H18.375C19.6867 12.75 20.75 13.8133 20.75 15.125C20.75 16.4316 19.6949 17.4918 18.3902 17.5C18.3786 17.4998 18.3669 17.4998 18.3553 17.5Z" fill="white"/>
<path fill-rule="evenodd" clip-rule="evenodd" d="M18 33C26.2843 33 33 26.2843 33 18C33 9.71573 26.2843 3 18 3C9.71573 3 3 9.71573 3 18C3 26.2843 9.71573 33 18 33ZM15 10.75C14.4477 10.75 14 11.1977 14 11.75V24.5C14 25.0523 14.4477 25.5 15 25.5C15.5523 25.5 16 25.0523 16 24.5V19.5H17.7902L20.8784 24.9903C21.1492 25.4716 21.7589 25.6423 22.2403 25.3716C22.7216 25.1008 22.8923 24.4911 22.6216 24.0097L19.9258 19.2172C21.5766 18.5913 22.75 16.9952 22.75 15.125C22.75 12.7088 20.7912 10.75 18.375 10.75H15Z" fill="white"/>
</svg>
