<svg width="36" height="36" viewBox="0 0 36 36" fill="none" xmlns="http://www.w3.org/2000/svg">
<path fill-rule="evenodd" clip-rule="evenodd" d="M14.3619 5.05133C14.3567 5.05318 14.3541 5.0545 14.3541 5.0545C14.26 5.10244 14.1835 5.17893 14.1356 5.27301C14.1356 5.27301 14.1343 5.27559 14.1324 5.28079C14.1305 5.28621 14.1273 5.29622 14.1234 5.3125C14.1154 5.34673 14.1058 5.40309 14.0982 5.49624C14.0819 5.6962 14.0811 5.96346 14.0811 6.4V13.0811C14.0811 13.6334 13.6334 14.0811 13.0811 14.0811H6.4C5.96346 14.0811 5.6962 14.0819 5.49624 14.0982C5.40309 14.1058 5.34673 14.1154 5.3125 14.1234C5.29622 14.1273 5.28621 14.1305 5.28079 14.1324C5.27559 14.1343 5.27301 14.1356 5.27301 14.1356C5.17893 14.1835 5.10244 14.26 5.0545 14.3541C5.0545 14.3541 5.05318 14.3567 5.05133 14.3619C5.0494 14.3673 5.04618 14.3773 5.04235 14.3936C5.03429 14.4278 5.02473 14.4842 5.01712 14.5773C5.00078 14.7773 5 15.0445 5 15.4811V20.5189C5 20.9555 5.00078 21.2227 5.01712 21.4227C5.02473 21.5158 5.03429 21.5722 5.04235 21.6064C5.04618 21.6227 5.0494 21.6327 5.05133 21.6381C5.05319 21.6433 5.0545 21.6459 5.0545 21.6459C5.10244 21.74 5.17893 21.8165 5.27301 21.8644C5.27301 21.8644 5.27559 21.8657 5.28079 21.8676C5.28621 21.8695 5.29622 21.8727 5.3125 21.8766C5.34673 21.8846 5.40309 21.8942 5.49624 21.9018C5.6962 21.9181 5.96346 21.9189 6.4 21.9189H13.0811C13.6334 21.9189 14.0811 22.3666 14.0811 22.9189V29.6C14.0811 30.0365 14.0819 30.3038 14.0982 30.5038C14.1058 30.5969 14.1154 30.6533 14.1234 30.6875C14.1273 30.7038 14.1305 30.7138 14.1324 30.7192C14.1343 30.7244 14.1356 30.727 14.1356 30.727C14.1835 30.8211 14.26 30.8976 14.3541 30.9455C14.3541 30.9455 14.3567 30.9468 14.3619 30.9487C14.3673 30.9506 14.3773 30.9538 14.3936 30.9577C14.4278 30.9657 14.4842 30.9753 14.5773 30.9829C14.7773 30.9992 15.0445 31 15.4811 31H20.5189C20.9555 31 21.2227 30.9992 21.4227 30.9829C21.5158 30.9753 21.5722 30.9657 21.6064 30.9577C21.6227 30.9538 21.6327 30.9506 21.6381 30.9487C21.6433 30.9468 21.6459 30.9455 21.6459 30.9455C21.74 30.8976 21.8165 30.8211 21.8644 30.727C21.8644 30.727 21.8657 30.7244 21.8676 30.7192C21.8695 30.7138 21.8727 30.7038 21.8766 30.6875C21.8846 30.6533 21.8942 30.5969 21.9018 30.5038C21.9181 30.3038 21.9189 30.0365 21.9189 29.6V22.9189C21.9189 22.3666 22.3666 21.9189 22.9189 21.9189H29.6C30.0365 21.9189 30.3038 21.9181 30.5038 21.9018C30.5969 21.8942 30.6533 21.8846 30.6875 21.8766C30.7038 21.8727 30.7138 21.8695 30.7192 21.8676C30.7244 21.8657 30.727 21.8644 30.727 21.8644C30.8211 21.8165 30.8976 21.74 30.9455 21.6459C30.9455 21.6459 30.9468 21.6433 30.9487 21.6381C30.9506 21.6327 30.9538 21.6227 30.9577 21.6064C30.9657 21.5722 30.9753 21.5158 30.9829 21.4227C30.9992 21.2227 31 20.9555 31 20.5189V15.4811C31 15.0445 30.9992 14.7773 30.9829 14.5773C30.9753 14.4842 30.9657 14.4278 30.9577 14.3936C30.9555 14.3846 30.9536 14.3775 30.952 14.372C30.9507 14.3676 30.9495 14.3643 30.9487 14.3619C30.9476 14.3589 30.9462 14.3557 30.9462 14.3557L30.9455 14.3541C30.8976 14.26 30.8211 14.1835 30.727 14.1356C30.727 14.1356 30.7244 14.1343 30.7192 14.1324C30.7138 14.1305 30.7038 14.1273 30.6875 14.1234C30.6533 14.1154 30.5969 14.1058 30.5038 14.0982C30.3038 14.0819 30.0365 14.0811 29.6 14.0811H22.9189C22.3666 14.0811 21.9189 13.6334 21.9189 13.0811V6.4C21.9189 5.96346 21.9181 5.6962 21.9018 5.49624C21.8942 5.40309 21.8846 5.34673 21.8766 5.3125C21.8727 5.29622 21.8695 5.2862 21.8676 5.28079C21.8657 5.27559 21.8644 5.27301 21.8644 5.27301C21.8165 5.17893 21.74 5.10244 21.6459 5.0545C21.6459 5.0545 21.6433 5.05318 21.6381 5.05133C21.6327 5.0494 21.6227 5.04618 21.6064 5.04235C21.5722 5.03429 21.5158 5.02473 21.4227 5.01712C21.2227 5.00078 20.9555 5 20.5189 5H15.4811C15.0445 5 14.7773 5.00078 14.5773 5.01712C14.4842 5.02473 14.4278 5.03429 14.3936 5.04235C14.3773 5.04618 14.3673 5.0494 14.3619 5.05133ZM15.445 3H20.555C20.9441 2.99998 21.2942 2.99996 21.5856 3.02376C21.8975 3.04925 22.229 3.10694 22.5539 3.27249C23.0243 3.51217 23.4068 3.89462 23.6464 4.36503C23.812 4.68993 23.8697 5.02141 23.8952 5.33337C23.919 5.62469 23.9189 5.97481 23.9189 6.3639V12.0811L29.6361 12.0811C30.0252 12.0811 30.3753 12.081 30.6666 12.1048C30.9786 12.1303 31.3101 12.188 31.635 12.3536C32.1054 12.5933 32.4878 12.9757 32.7275 13.4461C32.8931 13.771 32.9508 14.1025 32.9762 14.4145C33 14.7058 33 15.0559 33 15.445V20.555C33 20.9441 33 21.2942 32.9762 21.5856C32.9508 21.8975 32.8931 22.229 32.7275 22.5539C32.4878 23.0243 32.1054 23.4068 31.635 23.6464C31.3101 23.812 30.9786 23.8697 30.6666 23.8952C30.3753 23.919 30.0252 23.9189 29.6361 23.9189H23.9189V29.6361C23.9189 30.0252 23.919 30.3753 23.8952 30.6666C23.8697 30.9786 23.812 31.3101 23.6464 31.635C23.4068 32.1054 23.0243 32.4878 22.5539 32.7275C22.229 32.8931 21.8975 32.9508 21.5856 32.9762C21.2942 33 20.9441 33 20.555 33H15.445C15.0559 33 14.7058 33 14.4145 32.9762C14.1025 32.9508 13.771 32.8931 13.4461 32.7275C12.9757 32.4878 12.5933 32.1054 12.3536 31.635C12.188 31.3101 12.1303 30.9786 12.1048 30.6666C12.081 30.3753 12.0811 30.0252 12.0811 29.6361L12.0811 23.9189H6.3639C5.97481 23.9189 5.62468 23.919 5.33337 23.8952C5.0214 23.8697 4.68993 23.812 4.36503 23.6464C3.89462 23.4068 3.51217 23.0243 3.27249 22.5539C3.10694 22.229 3.04925 21.8975 3.02376 21.5855C2.99996 21.2942 2.99998 20.9441 3 20.555V15.445C2.99998 15.0559 2.99996 14.7058 3.02376 14.4145C3.04925 14.1025 3.10694 13.771 3.27249 13.4461C3.51217 12.9757 3.89462 12.5932 4.36503 12.3536C4.68993 12.188 5.0214 12.1303 5.33337 12.1048C5.62469 12.081 5.97484 12.0811 6.36393 12.0811L12.0811 12.0811L12.0811 6.36393C12.0811 5.97484 12.081 5.62469 12.1048 5.33337C12.1303 5.0214 12.188 4.68993 12.3536 4.36503C12.5933 3.89462 12.9757 3.51217 13.4461 3.27249C13.771 3.10694 14.1025 3.04925 14.4145 3.02376C14.7058 2.99996 15.0559 2.99998 15.445 3Z" fill="white"/>
</svg>
