<svg width="36" height="36" viewBox="0 0 36 36" fill="none" xmlns="http://www.w3.org/2000/svg">
<path fill-rule="evenodd" clip-rule="evenodd" d="M13.0361 4.43327C12.75 4.99479 12.75 5.72986 12.75 7.2V12.75H7.2C5.72986 12.75 4.99479 12.75 4.43327 13.0361C3.93935 13.2878 3.53778 13.6893 3.28611 14.1833C3 14.7448 3 15.4799 3 16.95V19.05C3 20.5201 3 21.2552 3.28611 21.8167C3.53778 22.3106 3.93935 22.7122 4.43327 22.9639C4.99479 23.25 5.72986 23.25 7.2 23.25H12.75V28.8C12.75 30.2701 12.75 31.0052 13.0361 31.5667C13.2878 32.0606 13.6893 32.4622 14.1833 32.7139C14.7448 33 15.4799 33 16.95 33H19.05C20.5201 33 21.2552 33 21.8167 32.7139C22.3106 32.4622 22.7122 32.0606 22.9639 31.5667C23.25 31.0052 23.25 30.2701 23.25 28.8V23.25H28.8C30.2701 23.25 31.0052 23.25 31.5667 22.9639C32.0606 22.7122 32.4622 22.3106 32.7139 21.8167C33 21.2552 33 20.5201 33 19.05V16.95C33 15.4799 33 14.7448 32.7139 14.1833C32.4622 13.6893 32.0606 13.2878 31.5667 13.0361C31.0052 12.75 30.2701 12.75 28.8 12.75H23.25V7.2C23.25 5.72986 23.25 4.99479 22.9639 4.43327C22.7122 3.93935 22.3106 3.53778 21.8167 3.28611C21.2552 3 20.5201 3 19.05 3H16.95C15.4799 3 14.7448 3 14.1833 3.28611C13.6893 3.53778 13.2878 3.93935 13.0361 4.43327Z" fill="white"/>
</svg>
