<svg width="36" height="36" viewBox="0 0 36 36" fill="none" xmlns="http://www.w3.org/2000/svg">
<path fill-rule="evenodd" clip-rule="evenodd" d="M12.3464 4.7038C12.7351 4.31146 12.7322 3.6783 12.3398 3.2896C11.9475 2.9009 11.3143 2.90386 10.9256 3.2962C9.99751 4.23303 9.26176 5.34471 8.75995 6.56752C8.25816 7.79032 8 9.10059 8 10.4236C8 11.7466 8.25815 13.0569 8.75995 14.2797C9.26176 15.5025 9.9975 16.6142 10.9256 17.551C11.3143 17.9433 11.9475 17.9463 12.3398 17.5576C12.7322 17.1689 12.7351 16.5357 12.3464 16.1434C11.6031 15.3931 11.013 14.5019 10.6102 13.5204C10.2074 12.5388 10 11.4865 10 10.4236C10 9.36066 10.2074 8.30834 10.6102 7.32682C11.013 6.3453 11.6031 5.45408 12.3464 4.7038ZM23.6602 3.28961C24.0525 2.90091 24.6857 2.90386 25.0744 3.2962C26.0025 4.23304 26.7382 5.34471 27.24 6.56753C27.7418 7.79032 28 9.10059 28 10.4236C28 11.7466 27.7418 13.0569 27.24 14.2797C26.7382 15.5025 26.0025 16.6142 25.0744 17.551C24.6857 17.9433 24.0525 17.9463 23.6602 17.5576C23.2678 17.1689 23.2649 16.5357 23.6536 16.1434C24.3969 15.3931 24.987 14.5019 25.3898 13.5204C25.7926 12.5388 26 11.4865 26 10.4236C26 9.36066 25.7926 8.30835 25.3898 7.32682C24.987 6.34531 24.3969 5.45409 23.6536 4.70381C23.2649 4.31146 23.2678 3.67831 23.6602 3.28961ZM14.5 10.4232C14.5 8.45813 16.0758 6.88106 18 6.88106C19.9242 6.88106 21.5 8.45813 21.5 10.4232C21.5 12.3883 19.9242 13.9654 18 13.9654C16.0758 13.9654 14.5 12.3883 14.5 10.4232ZM18 4.88106C14.9537 4.88106 12.5 7.37118 12.5 10.4232C12.5 12.6038 13.7525 14.4976 15.5789 15.4013L11.0366 31.7309C10.8886 32.263 11.1999 32.8143 11.732 32.9623C12.2641 33.1103 12.8154 32.799 12.9634 32.2669L13.9021 28.8923L20.4324 22.9L23.0367 32.2668C23.1847 32.7989 23.736 33.1103 24.2681 32.9623C24.8002 32.8144 25.1116 32.2631 24.9636 31.731L20.4231 15.4003C22.2483 14.4963 23.5 12.6031 23.5 10.4232C23.5 7.37118 21.0463 4.88106 18 4.88106ZM18.4981 15.943C18.3341 15.9578 18.1679 15.9654 18 15.9654C17.8328 15.9654 17.6674 15.9579 17.504 15.9432L14.9159 25.2476L19.8311 20.7374L18.4981 15.943Z" fill="white"/>
</svg>
