<svg width="36" height="36" viewBox="0 0 36 36" fill="none" xmlns="http://www.w3.org/2000/svg">
<path d="M14.8812 14.625C14.8812 12.9164 16.2663 11.5312 17.975 11.5312C19.6836 11.5312 21.0687 12.9164 21.0687 14.625C21.0687 16.3336 19.6836 17.7188 17.975 17.7188C16.2663 17.7188 14.8812 16.3336 14.8812 14.625Z" fill="white"/>
<path fill-rule="evenodd" clip-rule="evenodd" d="M15.6778 1.5H20.2721C21.2821 1.49999 22.1082 1.49998 22.7796 1.55483C23.4745 1.6116 24.1021 1.73271 24.6882 2.03135C25.6055 2.49873 26.3513 3.24451 26.8186 4.1618C27.1173 4.74791 27.2384 5.37551 27.2951 6.0704C27.35 6.74171 27.35 7.56773 27.35 8.57773V27.4222C27.35 28.4322 27.35 29.2583 27.2951 29.9296C27.2384 30.6245 27.1173 31.2521 26.8186 31.8382C26.3513 32.7555 25.6055 33.5013 24.6882 33.9687C24.1021 34.2673 23.4745 34.3884 22.7796 34.4452C22.1082 34.5 21.2822 34.5 20.2721 34.5H15.6778C14.6678 34.5 13.8417 34.5 13.1704 34.4452C12.4755 34.3884 11.8479 34.2673 11.2618 33.9687C10.3445 33.5013 9.5987 32.7555 9.13132 31.8382C8.83268 31.2521 8.71158 30.6245 8.6548 29.9296C8.59995 29.2583 8.59996 28.4322 8.59998 27.4222V8.57787C8.59996 7.56782 8.59995 6.74174 8.6548 6.0704C8.71158 5.37551 8.83268 4.74791 9.13132 4.1618C9.5987 3.24451 10.3445 2.49873 11.2618 2.03135C11.8479 1.73271 12.4755 1.6116 13.1704 1.55483C13.8417 1.49998 14.6678 1.49999 15.6778 1.5ZM14.225 8.25C15.0534 8.25 15.725 7.57843 15.725 6.75C15.725 5.92157 15.0534 5.25 14.225 5.25C13.3965 5.25 12.725 5.92157 12.725 6.75C12.725 7.57843 13.3965 8.25 14.225 8.25ZM14.225 24C15.0534 24 15.725 23.3284 15.725 22.5C15.725 21.6716 15.0534 21 14.225 21C13.3965 21 12.725 21.6716 12.725 22.5C12.725 23.3284 13.3965 24 14.225 24ZM23.225 6.75C23.225 7.57843 22.5534 8.25 21.725 8.25C20.8965 8.25 20.225 7.57843 20.225 6.75C20.225 5.92157 20.8965 5.25 21.725 5.25C22.5534 5.25 23.225 5.92157 23.225 6.75ZM21.725 24C22.5534 24 23.225 23.3284 23.225 22.5C23.225 21.6716 22.5534 21 21.725 21C20.8965 21 20.225 21.6716 20.225 22.5C20.225 23.3284 20.8965 24 21.725 24ZM17.975 9.46875C15.1273 9.46875 12.8187 11.7773 12.8187 14.625C12.8187 17.4727 15.1273 19.7812 17.975 19.7812C20.8227 19.7812 23.1312 17.4727 23.1312 14.625C23.1312 11.7773 20.8227 9.46875 17.975 9.46875Z" fill="white"/>
</svg>
