<svg width="36" height="36" viewBox="0 0 36 36" fill="none" xmlns="http://www.w3.org/2000/svg">
<path fill-rule="evenodd" clip-rule="evenodd" d="M15.7075 1.60156H20.2925C21.3065 1.60155 22.1282 1.60154 22.7944 1.65597C23.4816 1.71212 24.0909 1.83112 24.6565 2.11928C25.5502 2.57468 26.2769 3.30134 26.7323 4.19511C27.0204 4.76066 27.1394 5.36998 27.1956 6.05714C27.25 6.72334 27.25 7.54502 27.25 8.55904V27.3941C27.25 28.4081 27.25 29.2298 27.1956 29.896C27.1394 30.5831 27.0204 31.1925 26.7323 31.758C26.2769 32.6518 25.5502 33.3784 24.6565 33.8338C24.0909 34.122 23.4816 34.241 22.7944 34.2972C22.1282 34.3516 21.3065 34.3516 20.2925 34.3516H15.7075C14.6935 34.3516 13.8718 34.3516 13.2056 34.2972C12.5184 34.241 11.9091 34.122 11.3435 33.8338C10.4498 33.3784 9.72312 32.6518 9.26772 31.758C8.97956 31.1925 8.86056 30.5831 8.80441 29.896C8.74998 29.2298 8.74999 28.4081 8.75 27.3941V8.55907C8.74999 7.54504 8.74998 6.72334 8.80441 6.05714C8.86056 5.36998 8.97956 4.76066 9.26772 4.19511C9.72312 3.30134 10.4498 2.57468 11.3435 2.11928C11.9091 1.83112 12.5184 1.71212 13.2056 1.65597C13.8718 1.60154 14.6935 1.60155 15.7075 1.60156ZM13.3684 3.64933C12.805 3.69537 12.4881 3.78073 12.2515 3.9013C11.7341 4.16495 11.3134 4.58564 11.0497 5.10309C10.9292 5.33971 10.8438 5.65652 10.7978 6.22C10.7508 6.79516 10.75 7.53496 10.75 8.60156V27.3516C10.75 28.4182 10.7508 29.158 10.7978 29.7331C10.8438 30.2966 10.9292 30.6134 11.0497 30.85C11.3134 31.3675 11.7341 31.7882 12.2515 32.0518C12.4881 32.1724 12.805 32.2578 13.3684 32.3038C13.9436 32.3508 14.6834 32.3516 15.75 32.3516H20.25C21.3166 32.3516 22.0564 32.3508 22.6316 32.3038C23.195 32.2578 23.5119 32.1724 23.7485 32.0518C24.2659 31.7882 24.6866 31.3675 24.9503 30.85C25.0708 30.6134 25.1562 30.2966 25.2022 29.7331C25.2492 29.158 25.25 28.4182 25.25 27.3516V8.60156C25.25 7.53496 25.2492 6.79516 25.2022 6.22C25.1562 5.65652 25.0708 5.33971 24.9503 5.10309C24.6866 4.58564 24.2659 4.16495 23.7485 3.9013C23.5119 3.78073 23.195 3.69537 22.6316 3.64933C22.0564 3.60234 21.3166 3.60156 20.25 3.60156H15.75C14.6834 3.60156 13.9436 3.60234 13.3684 3.64933Z" fill="white"/>
<path fill-rule="evenodd" clip-rule="evenodd" d="M18 11.4766C16.2741 11.4766 14.875 12.8757 14.875 14.6016C14.875 16.3275 16.2741 17.7266 18 17.7266C19.7259 17.7266 21.125 16.3275 21.125 14.6016C21.125 12.8757 19.7259 11.4766 18 11.4766ZM12.875 14.6016C12.875 11.7711 15.1695 9.47656 18 9.47656C20.8305 9.47656 23.125 11.7711 23.125 14.6016C23.125 17.432 20.8305 19.7266 18 19.7266C15.1695 19.7266 12.875 17.432 12.875 14.6016Z" fill="white"/>
<path d="M15.75 6.72656C15.75 7.55499 15.0784 8.22656 14.25 8.22656C13.4216 8.22656 12.75 7.55499 12.75 6.72656C12.75 5.89814 13.4216 5.22656 14.25 5.22656C15.0784 5.22656 15.75 5.89814 15.75 6.72656Z" fill="white"/>
<path d="M15.75 22.4766C15.75 23.305 15.0784 23.9766 14.25 23.9766C13.4216 23.9766 12.75 23.305 12.75 22.4766C12.75 21.6481 13.4216 20.9766 14.25 20.9766C15.0784 20.9766 15.75 21.6481 15.75 22.4766Z" fill="white"/>
<path d="M23.25 6.72656C23.25 7.55499 22.5784 8.22656 21.75 8.22656C20.9216 8.22656 20.25 7.55499 20.25 6.72656C20.25 5.89814 20.9216 5.22656 21.75 5.22656C22.5784 5.22656 23.25 5.89814 23.25 6.72656Z" fill="white"/>
<path d="M23.25 22.4766C23.25 23.305 22.5784 23.9766 21.75 23.9766C20.9216 23.9766 20.25 23.305 20.25 22.4766C20.25 21.6481 20.9216 20.9766 21.75 20.9766C22.5784 20.9766 23.25 21.6481 23.25 22.4766Z" fill="white"/>
</svg>
