<svg width="36" height="36" viewBox="0 0 36 36" fill="none" xmlns="http://www.w3.org/2000/svg">
<path fill-rule="evenodd" clip-rule="evenodd" d="M19.4635 4.04307C19.073 3.65245 18.4399 3.65229 18.0492 4.04272C17.6586 4.43314 17.6585 5.06631 18.0489 5.45693L20.1264 7.53554H13.4591C7.68222 7.53554 3 12.2208 3 17.9994C3 20.3537 3.77839 22.5291 5.09141 24.2781C5.423 24.7197 6.04984 24.809 6.49151 24.4774C6.93318 24.1458 7.02242 23.519 6.69083 23.0773C5.62891 21.6628 5 19.906 5 17.9994C5 13.3245 8.78773 9.53554 13.4591 9.53554H22.5398C22.9442 9.53554 23.3088 9.29195 23.4636 8.91834C23.6184 8.54472 23.533 8.11465 23.2471 7.82861L19.4635 4.04307ZM30.9067 11.7197C30.5751 11.278 29.9482 11.1889 29.5066 11.5205C29.065 11.8521 28.9758 12.479 29.3074 12.9206C30.3697 14.3353 30.9989 16.0923 30.9989 17.9994C30.9989 22.6743 27.2111 26.4632 22.5398 26.4632H13.4591C13.0547 26.4632 12.6901 26.7068 12.5352 27.0804C12.3804 27.454 12.4659 27.8841 12.7518 28.1701L16.5354 31.9557C16.9259 32.3463 17.559 32.3465 17.9496 31.956C18.3403 31.5656 18.3404 30.9324 17.95 30.5418L15.8724 28.4632H22.5398C28.3167 28.4632 32.9989 23.7779 32.9989 17.9994C32.9989 15.6446 32.2202 13.4688 30.9067 11.7197ZM19.3776 13.457C19.3776 13.0525 19.1339 12.6879 18.7602 12.5331C18.3864 12.3784 17.9563 12.464 17.6703 12.7501L15.4001 15.0214C15.0097 15.412 15.0099 16.0452 15.4005 16.4356C15.7911 16.8261 16.4243 16.8259 16.8147 16.4353L17.3776 15.8721V22.5423C17.3776 23.0946 17.8253 23.5423 18.3776 23.5423C18.9299 23.5423 19.3776 23.0946 19.3776 22.5423V13.457Z" fill="white"/>
</svg>
