<svg width="36" height="36" viewBox="0 0 36 36" fill="none" xmlns="http://www.w3.org/2000/svg">
<path fill-rule="evenodd" clip-rule="evenodd" d="M18.0465 4.29607C18.4353 3.9038 19.0684 3.90096 19.4607 4.28973L23.2445 8.03973C23.4339 8.22752 23.5405 8.48323 23.5405 8.75C23.5405 9.01677 23.4339 9.27248 23.2445 9.46027L19.4607 13.2103C19.0684 13.599 18.4353 13.5962 18.0465 13.2039C17.6577 12.8117 17.6606 12.1785 18.0528 11.7897L20.1109 9.75H13.4595C8.77895 9.75 5 13.5081 5 18.125C5 22.7419 8.77895 26.5 13.4595 26.5H22.5405C27.221 26.5 31 22.7419 31 18.125C31 16.2404 30.3724 14.503 29.3112 13.1032C28.9776 12.6631 29.0639 12.0358 29.504 11.7022C29.9441 11.3685 30.5714 11.4549 30.905 11.895C32.2197 13.6292 33 15.7878 33 18.125C33 23.8634 28.3087 28.5 22.5405 28.5H13.4595C7.69133 28.5 3 23.8634 3 18.125C3 12.3866 7.69133 7.75 13.4595 7.75H20.1109L18.0528 5.71027C17.6606 5.3215 17.6577 4.68834 18.0465 4.29607Z" fill="white"/>
</svg>
