<svg width="36" height="36" viewBox="0 0 36 36" fill="none" xmlns="http://www.w3.org/2000/svg">
<path fill-rule="evenodd" clip-rule="evenodd" d="M17.9986 30.9989C10.8192 30.9989 4.99915 25.1788 4.99915 17.9994C4.99915 13.1663 7.63697 8.94733 11.5544 6.70692V9.44423C11.5544 9.99651 12.0021 10.4442 12.5544 10.4442C13.1066 10.4442 13.5544 9.99651 13.5544 9.44423V4C13.5544 3.44772 13.1066 3 12.5544 3H7.11013C6.55785 3 6.11013 3.44772 6.11013 4C6.11013 4.55228 6.55785 5 7.11013 5L10.5108 5C6.02214 7.59102 2.99915 12.4413 2.99915 17.9994C2.99915 26.2834 9.71462 32.9989 17.9986 32.9989C26.2825 32.9989 32.998 26.2834 32.998 17.9994C32.998 11.7828 29.2164 6.45181 23.832 4.17688C23.3233 3.96194 22.7366 4.2001 22.5217 4.70884C22.3067 5.21759 22.5449 5.80425 23.0536 6.01919C27.7238 7.99236 30.998 12.6147 30.998 17.9994C30.998 25.1788 25.178 30.9989 17.9986 30.9989ZM17.3791 15.7157C17.3791 14.335 18.4984 13.2157 19.8791 13.2157H22.1762C23.5569 13.2157 24.6762 14.335 24.6762 15.7157V21.7964C24.6762 23.1771 23.5569 24.2964 22.1762 24.2964H19.8791C18.4984 24.2964 17.3791 23.1771 17.3791 21.7964V15.7157ZM19.8791 15.2157C19.603 15.2157 19.3791 15.4395 19.3791 15.7157V21.7964C19.3791 22.0725 19.603 22.2964 19.8791 22.2964H22.1762C22.4523 22.2964 22.6762 22.0725 22.6762 21.7964V15.7157C22.6762 15.4395 22.4523 15.2157 22.1762 15.2157H19.8791ZM15.1212 13.365C15.416 13.5472 15.5955 13.8691 15.5955 14.2157V23.2964C15.5955 23.8487 15.1477 24.2964 14.5955 24.2964C14.0432 24.2964 13.5955 23.8487 13.5955 23.2964V15.8337L12.0158 16.6236C11.5218 16.8705 10.9211 16.6703 10.6741 16.1763C10.4271 15.6824 10.6274 15.0817 11.1213 14.8347L14.1482 13.3212C14.4582 13.1663 14.8264 13.1828 15.1212 13.365Z" fill="white"/>
</svg>
