<svg width="36" height="36" viewBox="0 0 36 36" fill="none" xmlns="http://www.w3.org/2000/svg">
<path fill-rule="evenodd" clip-rule="evenodd" d="M4.99915 17.9994C4.99915 25.1788 10.8192 30.9989 17.9986 30.9989C25.178 30.9989 30.998 25.1788 30.998 17.9994C30.998 12.6147 27.7238 7.99236 23.0536 6.01919C22.5449 5.80425 22.3067 5.21759 22.5217 4.70884C22.7366 4.2001 23.3233 3.96194 23.832 4.17688C29.2164 6.45181 32.998 11.7828 32.998 17.9994C32.998 26.2834 26.2825 32.9989 17.9986 32.9989C9.71462 32.9989 2.99915 26.2834 2.99915 17.9994C2.99915 12.4413 6.02214 7.59102 10.5108 5L7.11013 5C6.55785 5 6.11013 4.55228 6.11013 4C6.11013 3.44772 6.55785 3 7.11013 3H12.5544C13.1066 3 13.5544 3.44772 13.5544 4V9.44423C13.5544 9.99651 13.1066 10.4442 12.5544 10.4442C12.0021 10.4442 11.5544 9.99651 11.5544 9.44423V6.70692C7.63697 8.94733 4.99915 13.1663 4.99915 17.9994ZM10.1894 14.2157C10.1894 13.6634 10.6371 13.2157 11.1894 13.2157H14.2298C15.6105 13.2157 16.7298 14.335 16.7298 15.7157V16.1803C16.7298 17.0341 16.531 17.8762 16.1491 18.6399L16.0911 18.756L16.1491 18.8721C16.531 19.6358 16.7298 20.4779 16.7298 21.3318V21.7964C16.7298 23.1771 15.6105 24.2964 14.2298 24.2964H11.1894C10.6371 24.2964 10.1894 23.8487 10.1894 23.2964C10.1894 22.7441 10.6371 22.2964 11.1894 22.2964H14.2298C14.5059 22.2964 14.7298 22.0725 14.7298 21.7964V21.3318C14.7298 20.7884 14.6033 20.2525 14.3603 19.7665L14.355 19.756H11.9462C11.3939 19.756 10.9462 19.3083 10.9462 18.756C10.9462 18.2037 11.3939 17.756 11.9462 17.756H14.355L14.3603 17.7455C14.6033 17.2595 14.7298 16.7236 14.7298 16.1803V15.7157C14.7298 15.4395 14.5059 15.2157 14.2298 15.2157H11.1894C10.6371 15.2157 10.1894 14.768 10.1894 14.2157ZM21.0136 13.2157C19.6329 13.2157 18.5136 14.335 18.5136 15.7157V21.7964C18.5136 23.1771 19.6329 24.2964 21.0136 24.2964H23.3107C24.6914 24.2964 25.8107 23.1771 25.8107 21.7964V15.7157C25.8107 14.335 24.6914 13.2157 23.3107 13.2157H21.0136ZM20.5136 15.7157C20.5136 15.4395 20.7375 15.2157 21.0136 15.2157H23.3107C23.5869 15.2157 23.8107 15.4395 23.8107 15.7157V21.7964C23.8107 22.0725 23.5869 22.2964 23.3107 22.2964H21.0136C20.7375 22.2964 20.5136 22.0725 20.5136 21.7964V15.7157Z" fill="white"/>
</svg>
