<svg width="36" height="36" viewBox="0 0 36 36" fill="none" xmlns="http://www.w3.org/2000/svg">
<path fill-rule="evenodd" clip-rule="evenodd" d="M23.25 10.5C26.5637 10.5 29.25 13.1863 29.25 16.5H30L30.1543 16.5039C31.7394 16.5842 33 17.8949 33 19.5V24C33 25.6051 31.7394 26.9158 30.1543 26.9961L30 27H29.25C29.25 30.3137 26.5637 33 23.25 33H12.75C9.43629 33 6.75 30.3137 6.75 27H6C4.34315 27 3 25.6569 3 24V19.5C3 17.8949 4.26055 16.5842 5.8457 16.5039L6 16.5H6.75C6.75 13.1863 9.43629 10.5 12.75 10.5H16.875V8.78027C15.7759 8.33509 15 7.2588 15 6C15 4.34315 16.3431 3 18 3C19.6569 3 21 4.34315 21 6C21 7.35234 20.1048 8.49455 18.875 8.86914V10.5H23.25ZM21.7305 24.8174C21.3533 24.4141 20.7207 24.3926 20.3174 24.7695L20.3223 24.7646L20.3262 24.7617C20.3277 24.7603 20.3291 24.7588 20.3291 24.7588C20.3291 24.7588 20.3251 24.7617 20.3203 24.7656C20.3073 24.7763 20.2801 24.7977 20.2393 24.8262C20.1573 24.8834 20.0206 24.969 19.8301 25.0566C19.4518 25.2307 18.8503 25.4187 18.0195 25.4023C17.1671 25.3855 16.5469 25.193 16.1553 25.0205C15.9585 24.9338 15.817 24.8518 15.7324 24.7969L15.6504 24.7402L15.6494 24.7412C15.2301 24.3823 14.6005 24.4305 14.2412 24.8496C13.8818 25.2689 13.9303 25.8994 14.3496 26.2588L15 25.5C14.3682 26.2371 14.3496 26.2588 14.3496 26.2588L14.3506 26.2607L14.3525 26.2617L14.3555 26.2646C14.3578 26.2666 14.3604 26.2691 14.3633 26.2715C14.3691 26.2764 14.3768 26.2817 14.3848 26.2881C14.4008 26.301 14.4208 26.3175 14.4453 26.3359C14.4943 26.3728 14.5605 26.4197 14.6436 26.4736C14.8099 26.5817 15.0458 26.7178 15.3496 26.8516C15.9594 27.12 16.8393 27.3789 17.9805 27.4014C19.1436 27.4243 20.0428 27.1607 20.666 26.874C20.9756 26.7316 21.2149 26.5847 21.3838 26.4668C21.4683 26.4078 21.5362 26.3551 21.5859 26.3145C21.6106 26.2943 21.6313 26.2769 21.6475 26.2627C21.6554 26.2558 21.6621 26.2495 21.668 26.2441C21.671 26.2414 21.6743 26.2386 21.6768 26.2363L21.6816 26.2314C21.6816 26.2314 21.6831 26.2303 21 25.5L21.6826 26.2305C22.0859 25.8533 22.1074 25.2207 21.7305 24.8174ZM6 18.5C5.44772 18.5 5 18.9477 5 19.5V24C5 24.5523 5.44771 25 6 25H6.72656V18.5H6ZM29.2598 25H30C30.5523 25 31 24.5523 31 24V19.5C31 18.9477 30.5523 18.5 30 18.5H29.2598V25ZM13.5 17.625C12.8787 17.625 12.375 18.1287 12.375 18.75V20.25C12.375 20.8713 12.8787 21.375 13.5 21.375C14.1213 21.375 14.625 20.8713 14.625 20.25V18.75C14.625 18.1287 14.1213 17.625 13.5 17.625ZM22.5 17.625C21.8787 17.625 21.375 18.1287 21.375 18.75V20.25C21.375 20.8713 21.8787 21.375 22.5 21.375C23.1213 21.375 23.625 20.8713 23.625 20.25V18.75C23.625 18.1287 23.1213 17.625 22.5 17.625ZM18 5C17.4477 5 17 5.44772 17 6C17 6.55228 17.4477 7 18 7C18.5523 7 19 6.55228 19 6C19 5.44772 18.5523 5 18 5Z" fill="white"/>
</svg>
