<svg width="36" height="36" viewBox="0 0 36 36" fill="none" xmlns="http://www.w3.org/2000/svg">
<path d="M20.3174 24.7695C20.7208 24.3928 21.3534 24.4142 21.7305 24.8174C22.1071 25.2207 22.0856 25.8533 21.6826 26.2305L21 25.5C21.6686 26.2148 21.6827 26.2298 21.6826 26.2305L21.6768 26.2363C21.6744 26.2385 21.6709 26.2415 21.668 26.2441C21.6622 26.2494 21.6553 26.2558 21.6475 26.2627C21.6314 26.2768 21.6105 26.2944 21.5859 26.3145C21.5363 26.355 21.4682 26.4078 21.3838 26.4668C21.215 26.5846 20.9754 26.7317 20.666 26.874C20.0429 27.1607 19.1433 27.4242 17.9805 27.4014C16.8395 27.3789 15.9594 27.12 15.3496 26.8516C15.0459 26.7178 14.8099 26.5816 14.6436 26.4736C14.5607 26.4198 14.4943 26.3728 14.4453 26.3359C14.4209 26.3176 14.4007 26.301 14.3848 26.2881C14.3769 26.2818 14.3691 26.2763 14.3633 26.2715C14.3605 26.2692 14.3578 26.2666 14.3555 26.2646C14.3545 26.2638 14.3534 26.2625 14.3525 26.2617L14.3506 26.2607L14.3496 26.2598C14.3517 26.2566 14.3904 26.2112 15 25.5L14.3496 26.2598C13.9303 25.9003 13.8818 25.2689 14.2412 24.8496C14.6005 24.4307 15.2302 24.3824 15.6494 24.7412L15.6504 24.7402L15.7324 24.7969C15.817 24.8518 15.9587 24.9339 16.1553 25.0205C16.547 25.1929 17.1674 25.3855 18.0195 25.4023C18.85 25.4187 19.4518 25.2306 19.8301 25.0566C20.0205 24.969 20.1574 24.8833 20.2393 24.8262C20.2799 24.7978 20.3073 24.7763 20.3203 24.7656C20.325 24.7618 20.3282 24.7596 20.3291 24.7588C20.3286 24.7592 20.3276 24.7604 20.3262 24.7617C20.3253 24.7625 20.3236 24.7635 20.3223 24.7646L20.3174 24.7695Z" fill="white"/>
<path d="M13.5 17.625C14.1213 17.625 14.625 18.1287 14.625 18.75V20.25C14.625 20.8713 14.1213 21.375 13.5 21.375C12.8787 21.375 12.375 20.8713 12.375 20.25V18.75C12.375 18.1287 12.8787 17.625 13.5 17.625Z" fill="white"/>
<path d="M22.5 17.625C23.1213 17.625 23.625 18.1287 23.625 18.75V20.25C23.625 20.8713 23.1213 21.375 22.5 21.375C21.8787 21.375 21.375 20.8713 21.375 20.25V18.75C21.375 18.1287 21.8787 17.625 22.5 17.625Z" fill="white"/>
<path fill-rule="evenodd" clip-rule="evenodd" d="M18 3C19.6569 3 21 4.34315 21 6C21 7.35234 20.1048 8.49455 18.875 8.86914V10.5H23.25C26.5637 10.5 29.25 13.1863 29.25 16.5H30L30.1543 16.5039C31.7394 16.5842 33 17.8949 33 19.5V24C33 25.6051 31.7394 26.9158 30.1543 26.9961L30 27H29.25C29.25 30.3137 26.5637 33 23.25 33H12.75L12.4414 32.9922C9.27111 32.8316 6.75 30.2102 6.75 27H6C4.34315 27 3 25.6569 3 24V19.5C3 17.8949 4.26055 16.5842 5.8457 16.5039L6 16.5H6.75C6.75 13.1863 9.43629 10.5 12.75 10.5H16.875V8.78027C15.7759 8.33509 15 7.2588 15 6C15 4.34315 16.3431 3 18 3ZM12.75 12.5C10.5409 12.5 8.75 14.2909 8.75 16.5V27C8.75 29.2091 10.5409 31 12.75 31H23.25C25.4591 31 27.25 29.2091 27.25 27V16.5C27.25 14.2909 25.4591 12.5 23.25 12.5H12.75ZM6 18.5C5.44772 18.5 5 18.9477 5 19.5V24C5 24.5523 5.44771 25 6 25H6.72656V18.5H6ZM29.2598 25H30C30.5523 25 31 24.5523 31 24V19.5C31 18.9477 30.5523 18.5 30 18.5H29.2598V25ZM18 5C17.4477 5 17 5.44772 17 6C17 6.55228 17.4477 7 18 7C18.5523 7 19 6.55228 19 6C19 5.44772 18.5523 5 18 5Z" fill="white"/>
</svg>
