<svg width="36" height="36" viewBox="0 0 36 36" fill="none" xmlns="http://www.w3.org/2000/svg">
<path fill-rule="evenodd" clip-rule="evenodd" d="M20.1805 3.25702C20.1894 3.26591 20.1983 3.27482 20.2073 3.28375L32.5939 15.6704C32.8311 15.9076 33.0546 16.131 33.2271 16.3341C33.4145 16.555 33.6069 16.8248 33.7198 17.1723C33.879 17.6622 33.879 18.19 33.7198 18.6799C33.6069 19.0274 33.4145 19.2972 33.2271 19.518C33.0546 19.7212 32.8311 19.9446 32.5939 20.1817L20.1805 32.5952C19.9434 32.8324 19.72 33.0558 19.5168 33.2283C19.296 33.4158 19.0262 33.6081 18.6786 33.7211C18.1887 33.8802 17.661 33.8802 17.1711 33.7211C16.8236 33.6081 16.5538 33.4158 16.3329 33.2283C16.1297 33.0558 15.9064 32.8324 15.6692 32.5952L3.25578 20.1817C3.01859 19.9446 2.79516 19.7212 2.62268 19.518C2.4352 19.2972 2.24281 19.0274 2.12988 18.6799C1.9707 18.19 1.9707 17.6622 2.12988 17.1723C2.24281 16.8248 2.4352 16.555 2.62268 16.3341C2.79517 16.131 3.0186 15.9076 3.2558 15.6704L15.6425 3.28375C15.6514 3.27482 15.6603 3.26591 15.6692 3.25702C15.9063 3.01982 16.1297 2.79639 16.3329 2.6239C16.5538 2.43642 16.8236 2.24403 17.1711 2.1311C17.661 1.97192 18.1887 1.97192 18.6786 2.1311C19.0262 2.24403 19.296 2.43642 19.5168 2.6239C19.72 2.79639 19.9434 3.01982 20.1805 3.25702Z" fill="white"/>
</svg>
