<svg width="36" height="36" viewBox="0 0 36 36" fill="none" xmlns="http://www.w3.org/2000/svg">
<path fill-rule="evenodd" clip-rule="evenodd" d="M20.1695 3.75377C20.1776 3.76196 20.1859 3.77016 20.1941 3.77839L32.5786 16.1629C32.8177 16.402 33.0379 16.6221 33.207 16.8213C33.3894 17.0362 33.5704 17.2916 33.6762 17.6172C33.8272 18.082 33.8272 18.5827 33.6762 19.0475C33.5704 19.3731 33.3894 19.6285 33.207 19.8434C33.0379 20.0426 32.8177 20.2627 32.5786 20.5017L20.1694 32.9109C19.9304 33.15 19.7103 33.3701 19.5111 33.5392C19.2962 33.7217 19.0408 33.9026 18.7152 34.0084C18.2504 34.1595 17.7497 34.1595 17.2849 34.0084C16.9593 33.9026 16.7039 33.7217 16.489 33.5392C16.2898 33.3701 16.0697 33.15 15.8307 32.9109L3.42149 20.5017C3.18241 20.2627 2.96226 20.0426 2.79317 19.8434C2.61071 19.6285 2.42975 19.3731 2.32396 19.0475C2.17294 18.5827 2.17294 18.082 2.32396 17.6172C2.42975 17.2916 2.61071 17.0362 2.79317 16.8213C2.96226 16.6221 3.18241 16.402 3.4215 16.1629L15.806 3.77839C15.8143 3.77016 15.8225 3.76196 15.8307 3.75377C16.0697 3.51469 16.2898 3.29454 16.489 3.12544C16.7039 2.94298 16.9593 2.76203 17.2849 2.65624C17.7497 2.50521 18.2504 2.50521 18.7152 2.65624C19.0408 2.76203 19.2962 2.94298 19.5111 3.12544C19.7103 3.29453 19.9304 3.51469 20.1695 3.75377ZM18.0881 4.55481L18.0899 4.55567L18.0881 4.55481ZM18.0918 4.55665C18.103 4.56276 18.1409 4.58573 18.2168 4.65012C18.346 4.75985 18.508 4.9207 18.7799 5.1926L31.1398 17.5525C31.4117 17.8244 31.5725 17.9864 31.6823 18.1156C31.7467 18.1915 31.7696 18.2294 31.7757 18.2406C31.794 18.3004 31.794 18.3643 31.7757 18.424C31.7696 18.4353 31.7467 18.4732 31.6823 18.549C31.5725 18.6783 31.4117 18.8402 31.1398 19.1121L18.7799 31.4721C18.508 31.744 18.346 31.9048 18.2168 32.0146C18.1409 32.0789 18.103 32.1019 18.0918 32.108C18.032 32.1263 17.9681 32.1263 17.9083 32.108C17.8971 32.1019 17.8592 32.0789 17.7834 32.0146C17.6541 31.9048 17.4922 31.744 17.2203 31.4721L4.86033 19.1121C4.58843 18.8402 4.42758 18.6783 4.31785 18.549C4.25346 18.4732 4.23049 18.4353 4.22438 18.4241C4.20613 18.3643 4.20613 18.3004 4.22437 18.2406C4.23048 18.2294 4.25345 18.1915 4.31785 18.1156C4.42758 17.9864 4.58843 17.8244 4.86033 17.5525L17.2203 5.1926C17.4922 4.9207 17.6541 4.75985 17.7834 4.65012C17.8592 4.58573 17.8971 4.56276 17.9083 4.55665C17.9681 4.53841 18.032 4.53841 18.0918 4.55665ZM17.912 4.55481L17.9102 4.55567L17.912 4.55481ZM4.22253 18.2443L4.2234 18.2425L4.22253 18.2443ZM18.0881 32.1099L18.0901 32.1089L18.0881 32.1099ZM31.7776 18.4204L31.7767 18.4222L31.7776 18.4204ZM31.7776 18.2443L31.7767 18.2424L31.7776 18.2443Z" fill="white"/>
</svg>
