<svg width="36" height="36" viewBox="0 0 36 36" fill="none" xmlns="http://www.w3.org/2000/svg">
<path d="M5.99902 5.5C5.99902 4.94772 6.44674 4.5 6.99902 4.5H28.999C29.5513 4.5 29.999 4.94772 29.999 5.5C29.999 6.05228 29.5513 6.5 28.999 6.5H6.99902C6.44674 6.5 5.99902 6.05228 5.99902 5.5Z" fill="#F5F5F5"/>
<path d="M4.49902 10C4.49902 9.17157 5.1706 8.5 5.99902 8.5H29.999C30.8274 8.5 31.499 9.17157 31.499 10V12.3C31.499 13.1284 30.8274 13.8 29.999 13.8H5.99902C5.1706 13.8 4.49902 13.1284 4.49902 12.3V10Z" fill="#F5F5F5"/>
<path d="M4.49902 16.8C4.49902 15.9716 5.1706 15.3 5.99902 15.3H29.999C30.8274 15.3 31.499 15.9716 31.499 16.8V19.1C31.499 19.9284 30.8274 20.6 29.999 20.6H5.99902C5.1706 20.6 4.49902 19.9284 4.49902 19.1V16.8Z" fill="#F5F5F5"/>
<path d="M5.99902 22.1C5.1706 22.1 4.49902 22.7716 4.49902 23.6V25.9C4.49902 26.7284 5.1706 27.4 5.99902 27.4H29.999C30.8274 27.4 31.499 26.7284 31.499 25.9V23.6C31.499 22.7716 30.8274 22.1 29.999 22.1H5.99902Z" fill="#F5F5F5"/>
<path d="M6.99949 29.5C6.44721 29.5 5.99949 29.9477 5.99949 30.5C5.99949 31.0523 6.44721 31.5 6.99949 31.5H28.9995C29.5518 31.5 29.9995 31.0523 29.9995 30.5C29.9995 29.9477 29.5518 29.5 28.9995 29.5H6.99949Z" fill="#F5F5F5"/>
</svg>
