<svg width="36" height="36" viewBox="0 0 36 36" fill="none" xmlns="http://www.w3.org/2000/svg">
<path d="M5.99988 5.5C5.99988 4.94772 6.4476 4.5 6.99988 4.5H28.9999C29.5522 4.5 29.9999 4.94772 29.9999 5.5C29.9999 6.05228 29.5522 6.5 28.9999 6.5H6.99989C6.4476 6.5 5.99988 6.05228 5.99988 5.5Z" fill="#F5F5F5"/>
<path fill-rule="evenodd" clip-rule="evenodd" d="M27.9999 8.5H7.99951C6.06652 8.5 4.49951 10.067 4.49951 12V15.5C4.49951 16.4793 4.90175 17.3647 5.55002 18C4.90175 18.6353 4.49951 19.5207 4.49951 20.5V24C4.49951 25.933 6.06652 27.5 7.99951 27.5H27.9998C29.9328 27.5 31.4998 25.933 31.4998 24V20.5C31.4998 19.5207 31.0976 18.6353 30.4493 18C31.0976 17.3648 31.4999 16.4794 31.4999 15.5V12C31.4999 10.067 29.9329 8.5 27.9999 8.5ZM27.9998 19H7.99951C7.17108 19 6.49951 19.6716 6.49951 20.5V24C6.49951 24.8284 7.17109 25.5 7.99951 25.5H27.9998C28.8283 25.5 29.4998 24.8284 29.4998 24V20.5C29.4998 19.6716 28.8283 19 27.9998 19ZM27.9999 17C28.8283 17 29.4999 16.3284 29.4999 15.5V12C29.4999 11.1716 28.8283 10.5 27.9999 10.5H7.99951C7.17108 10.5 6.49951 11.1716 6.49951 12V15.5C6.49951 16.3284 7.17109 17 7.99951 17H27.9999Z" fill="#F5F5F5"/>
<path d="M6.99988 29.5C6.4476 29.5 5.99988 29.9477 5.99988 30.5C5.99988 31.0523 6.4476 31.5 6.99989 31.5H28.9999C29.5522 31.5 29.9999 31.0523 29.9999 30.5C29.9999 29.9477 29.5522 29.5 28.9999 29.5H6.99988Z" fill="#F5F5F5"/>
</svg>
