<svg width="36" height="36" viewBox="0 0 36 36" fill="none" xmlns="http://www.w3.org/2000/svg">
<path d="M6.00049 5.5C6.00049 4.94772 6.4482 4.5 7.00049 4.5H29.0005C29.5528 4.5 30.0005 4.94772 30.0005 5.5C30.0005 6.05228 29.5528 6.5 29.0005 6.5H7.00049C6.4482 6.5 6.00049 6.05228 6.00049 5.5Z" fill="#F5F5F5"/>
<path d="M6.75049 8.5C5.50785 8.5 4.50049 9.50736 4.50049 10.75V15.25C4.50049 16.4926 5.50785 17.5 6.75049 17.5H29.2505C30.4931 17.5 31.5005 16.4926 31.5005 15.25V10.75C31.5005 9.50736 30.4931 8.5 29.2505 8.5H6.75049Z" fill="#F5F5F5"/>
<path d="M6.75049 19C5.50785 19 4.50049 20.0074 4.50049 21.25V25.75C4.50049 26.9926 5.50785 28 6.75049 28H29.2505C30.4931 28 31.5005 26.9926 31.5005 25.75V21.25C31.5005 20.0074 30.4931 19 29.2505 19H6.75049Z" fill="#F5F5F5"/>
<path d="M7.00049 29.5C6.4482 29.5 6.00049 29.9477 6.00049 30.5C6.00049 31.0523 6.4482 31.5 7.00049 31.5H29.0005C29.5528 31.5 30.0005 31.0523 30.0005 30.5C30.0005 29.9477 29.5528 29.5 29.0005 29.5H7.00049Z" fill="#F5F5F5"/>
</svg>
