<svg width="36" height="36" viewBox="0 0 36 36" fill="none" xmlns="http://www.w3.org/2000/svg">
<path d="M5.99953 5.5C5.99953 4.94772 6.44725 4.5 6.99953 4.5H28.9995C29.5518 4.5 29.9995 4.94772 29.9995 5.5C29.9995 6.05228 29.5518 6.5 28.9995 6.5H6.99953C6.44725 6.5 5.99953 6.05228 5.99953 5.5Z" fill="#F5F5F5"/>
<path fill-rule="evenodd" clip-rule="evenodd" d="M7.25 8.5H28.7497C30.2684 8.5 31.4997 9.73121 31.4997 11.25V13.45C31.4997 14.1383 31.2468 14.7675 30.8289 15.2498C31.247 15.7322 31.5 16.3616 31.5 17.05V19.25C31.5 19.9148 31.2641 20.5245 30.8714 21C31.2641 21.4755 31.5 22.0852 31.5 22.75V24.95C31.5 26.4688 30.2688 27.7 28.75 27.7H7.25C5.73122 27.7 4.5 26.4688 4.5 24.95V22.75C4.5 22.0852 4.73591 21.4755 5.12858 21C4.73591 20.5245 4.5 19.9148 4.5 19.25V17.05C4.5 16.3616 4.75291 15.7324 5.17088 15.25C4.75291 14.7676 4.5 14.1384 4.5 13.45V11.25C4.5 9.73122 5.73121 8.5 7.25 8.5ZM7.25 20H28.75C29.1642 20 29.5 19.6642 29.5 19.25V17.05C29.5 16.6358 29.1642 16.3 28.75 16.3H7.25C6.83579 16.3 6.5 16.6358 6.5 17.05V19.25C6.5 19.6642 6.83579 20 7.25 20ZM7.25 22C6.83579 22 6.5 22.3358 6.5 22.75V24.95C6.5 25.3642 6.83579 25.7 7.25 25.7H28.75C29.1642 25.7 29.5 25.3642 29.5 24.95V22.75C29.5 22.3358 29.1642 22 28.75 22H7.25ZM7.25 10.5C6.83579 10.5 6.5 10.8358 6.5 11.25V13.45C6.5 13.8642 6.83579 14.2 7.25 14.2H28.7497C29.1639 14.2 29.4997 13.8642 29.4997 13.45V11.25C29.4997 10.8358 29.1639 10.5 28.7497 10.5H7.25Z" fill="#F5F5F5"/>
<path d="M7 29.5C6.44772 29.5 6 29.9477 6 30.5C6 31.0523 6.44772 31.5 7 31.5H29C29.5523 31.5 30 31.0523 30 30.5C30 29.9477 29.5523 29.5 29 29.5H7Z" fill="#F5F5F5"/>
</svg>
