<svg width="36" height="36" viewBox="0 0 36 36" fill="none" xmlns="http://www.w3.org/2000/svg">
<path fill-rule="evenodd" clip-rule="evenodd" d="M31.0577 5.50789L6.30769 30.2579C5.91717 30.6484 5.284 30.6484 4.89348 30.2579C4.50295 29.8674 4.50295 29.2342 4.89348 28.8437L29.6435 4.09367C30.034 3.70315 30.6672 3.70315 31.0577 4.09367C31.4482 4.4842 31.4482 5.11736 31.0577 5.50789ZM6.85059 4.80078C6.85059 4.2485 7.2983 3.80078 7.85059 3.80078H11.9756C14.3918 3.80078 16.3506 5.75954 16.3506 8.17578C16.3506 10.592 14.3918 12.5508 11.9756 12.5508H8.85059V14.3008H11.6006C12.1529 14.3008 12.6006 14.7485 12.6006 15.3008C12.6006 15.8531 12.1529 16.3008 11.6006 16.3008H8.85059V17.5508C8.85059 18.1031 8.40287 18.5508 7.85059 18.5508C7.2983 18.5508 6.85059 18.1031 6.85059 17.5508V16.3008H5.60059C5.0483 16.3008 4.60059 15.8531 4.60059 15.3008C4.60059 14.7485 5.0483 14.3008 5.60059 14.3008H6.85059V12.5508H5.60059C5.0483 12.5508 4.60059 12.1031 4.60059 11.5508C4.60059 10.9985 5.0483 10.5508 5.60059 10.5508H6.85059V4.80078ZM8.85059 10.5508H11.9756C13.2873 10.5508 14.3506 9.48746 14.3506 8.17578C14.3506 6.8641 13.2873 5.80078 11.9756 5.80078H8.85059V10.5508ZM27.6748 16.0508C27.6748 15.4985 27.2271 15.0508 26.6748 15.0508C26.1225 15.0508 25.6748 15.4985 25.6748 16.0508V17.3093C23.7894 17.4377 22.2998 19.0078 22.2998 20.9258C22.2998 22.9278 23.9228 24.5508 25.9248 24.5508H27.4248C28.3223 24.5508 29.0498 25.2783 29.0498 26.1758C29.0498 27.0732 28.3223 27.8008 27.4248 27.8008H24.0498C23.4975 27.8008 23.0498 28.2485 23.0498 28.8008C23.0498 29.3531 23.4975 29.8008 24.0498 29.8008H25.6748V31.0508C25.6748 31.6031 26.1225 32.0508 26.6748 32.0508C27.2271 32.0508 27.6748 31.6031 27.6748 31.0508V29.7923C29.5602 29.6639 31.0498 28.0938 31.0498 26.1758C31.0498 24.1737 29.4268 22.5508 27.4248 22.5508H25.9248C25.0273 22.5508 24.2998 21.8232 24.2998 20.9258C24.2998 20.0283 25.0273 19.3008 25.9248 19.3008H29.2998C29.8521 19.3008 30.2998 18.8531 30.2998 18.3008C30.2998 17.7485 29.8521 17.3008 29.2998 17.3008H27.6748V16.0508Z" fill="white"/>
</svg>
