<svg width="36" height="36" viewBox="0 0 36 36" fill="none" xmlns="http://www.w3.org/2000/svg">
<path fill-rule="evenodd" clip-rule="evenodd" d="M28.851 3.79637C27.863 2.82173 26.2895 2.81144 25.3279 3.77332L3.77996 25.3267C2.81926 26.2877 2.82886 27.8593 3.80147 28.8474L7.26859 32.3698C8.25289 33.3698 9.84767 33.3918 10.8194 32.4188L32.4074 10.8027C33.3775 9.83132 33.3554 8.23982 32.3581 7.25609L28.851 3.79637ZM26.7564 5.20154C26.9488 5.00916 27.2635 5.01122 27.4611 5.20615L30.9682 8.66586C31.1677 8.86261 31.1721 9.18091 30.9781 9.37518L9.39012 30.9913C9.19577 31.1859 8.87681 31.1815 8.67995 30.9815L5.21283 27.4591C5.01831 27.2615 5.01639 26.9472 5.20853 26.755L6.68592 25.2772L8.55441 27.1457C8.94494 27.5362 9.5781 27.5362 9.96863 27.1457C10.3591 26.7552 10.3591 26.122 9.96863 25.7315L8.09995 23.8628L10.9662 20.9958L12.8353 22.8648C13.2258 23.2554 13.859 23.2554 14.2495 22.8648C14.64 22.4743 14.64 21.8411 14.2495 21.4506L12.3803 19.5814L15.2475 16.7134L17.1171 18.583C17.5076 18.9735 18.1408 18.9735 18.5313 18.583C18.9218 18.1925 18.9218 17.5593 18.5313 17.1688L16.6615 15.299L19.5283 12.4315L21.3989 14.3021C21.7895 14.6927 22.4226 14.6927 22.8131 14.3021C23.2037 13.9116 23.2037 13.2785 22.8131 12.8879L20.9423 11.0171L23.8076 8.15109L25.6788 10.0223C26.0693 10.4128 26.7025 10.4128 27.093 10.0223C27.4836 9.63174 27.4836 8.99858 27.093 8.60805L25.2217 6.73669L26.7564 5.20154Z" fill="white"/>
</svg>
