<svg width="36" height="36" viewBox="0 0 36 36" fill="none" xmlns="http://www.w3.org/2000/svg">
<path fill-rule="evenodd" clip-rule="evenodd" d="M19.4102 12.6992C20.3474 12.6992 21.1086 12.8007 21.7178 12.9805C22.3271 13.1864 22.8352 13.4942 23.291 13.9307C23.7224 14.3916 24.0264 14.9051 24.2041 15.4951C24.3818 16.0852 24.4834 16.855 24.4834 17.8291V19.1123C24.4834 20.7552 24.2041 21.9869 23.6465 22.7568C23.0889 23.5266 22.4126 23.9938 20.9072 24.2197L24.9912 29.8135H20.2471L16.543 24.2461H8.73633V29.8135H4.5V12.6992H19.4102ZM8.73633 16.4727V20.4746H18.7246C19.308 20.4746 19.7144 20.3995 19.918 20.2197C20.1215 20.04 20.248 19.7064 20.248 19.1934V17.7559C20.248 17.2689 20.1214 16.9357 19.918 16.7559C19.7144 16.576 19.3081 16.4727 18.7246 16.4727H8.73633Z" fill="white"/>
<path d="M28.2461 6.19141C30.0432 6.19163 31.4997 7.64833 31.5 9.44531C31.5 11.2425 30.0433 12.7 28.2461 12.7002C26.4487 12.7002 24.9912 11.2426 24.9912 9.44531C24.9915 7.64819 26.4489 6.19141 28.2461 6.19141Z" fill="white"/>
</svg>
