<svg width="36" height="36" viewBox="0 0 36 36" fill="none" xmlns="http://www.w3.org/2000/svg">
<path d="M21.1777 14.2266C21.6436 14.2266 21.9682 14.3075 22.1309 14.4492C22.2934 14.591 22.3935 14.8543 22.3936 15.2383V16.3721C22.3936 16.7768 22.2933 17.0398 22.1309 17.1816C21.9683 17.3235 21.6437 17.3828 21.1777 17.3828H13.2012V14.2266H21.1777Z" fill="white"/>
<path fill-rule="evenodd" clip-rule="evenodd" d="M25.1592 4.5C28.6611 4.50004 31.4999 7.33888 31.5 10.8408V25.1592C31.4999 28.6611 28.6611 31.5 25.1592 31.5H10.8408C10.4031 31.5 9.97525 31.4555 9.5625 31.3711C6.67334 30.7796 4.50005 28.2232 4.5 25.1592V10.8408C4.5 10.622 4.51155 10.4055 4.5332 10.1924C4.85802 6.99508 7.55785 4.50004 10.8408 4.5H25.1592ZM9.81836 24.749H13.2012V20.3574H19.4355L22.3936 24.749H26.1816L22.9209 20.3369C24.1231 20.1587 24.6632 19.7898 25.1084 19.1826C25.5537 18.5753 25.7763 17.6043 25.7764 16.3086V15.2959C25.7763 14.5276 25.6956 13.9205 25.5537 13.4551C25.4118 12.9896 25.1689 12.5844 24.8242 12.2207C24.4602 11.8765 24.0549 11.6341 23.5684 11.4717C23.0819 11.3299 22.4741 11.25 21.7256 11.25H9.81836V24.749ZM18.1475 6.5C18.3199 7.6612 18.6395 8.77436 19.0879 9.81934L21.7246 9.81836C22.5713 9.81836 23.3203 9.90962 23.9688 10.0986C24.6499 10.3261 25.2898 10.6919 25.8076 11.1816C26.2938 11.6945 26.7115 12.3459 26.9229 13.0381C27.1186 13.6801 27.208 14.4384 27.208 15.2979V16.3096C27.208 16.6405 27.195 16.9684 27.166 17.2891C27.9164 17.5432 28.6969 17.7333 29.5 17.8525V10.8408C29.5 8.44352 27.5565 6.50013 25.1592 6.5H18.1475Z" fill="white"/>
</svg>
