<svg width="36" height="36" viewBox="0 0 36 36" fill="none" xmlns="http://www.w3.org/2000/svg">
<path fill-rule="evenodd" clip-rule="evenodd" d="M10.2587 3C9.45374 2.99999 8.78937 2.99998 8.24817 3.04419C7.68608 3.09012 7.16937 3.18868 6.68404 3.43598C5.93139 3.81947 5.31947 4.43139 4.93597 5.18404C4.68868 5.66937 4.59012 6.18608 4.54419 6.74817C4.49998 7.28937 4.49999 7.95373 4.5 8.7587V24.2133C4.49999 25.0182 4.49998 25.6826 4.54419 26.2238C4.59012 26.7859 4.68868 27.3026 4.93597 27.7879C5.31947 28.5406 5.93139 29.1525 6.68404 29.536C6.95519 29.6742 7.23612 29.7659 7.5293 29.828V31.9991C7.5293 32.5514 7.97701 32.9991 8.5293 32.9991C9.08158 32.9991 9.5293 32.5514 9.5293 31.9991V29.9705C9.75841 29.972 10.0013 29.972 10.2586 29.972H25.7399C25.997 29.972 26.2398 29.972 26.4688 29.9705V31.9991C26.4688 32.5514 26.9165 32.9991 27.4688 32.9991C28.021 32.9991 28.4688 32.5514 28.4688 31.9991V29.8281C28.7621 29.766 29.0433 29.6742 29.3146 29.536C30.0672 29.1525 30.6791 28.5406 31.0626 27.7879C31.3099 27.3026 31.4085 26.7859 31.4544 26.2238C31.4986 25.6826 31.4986 25.0183 31.4986 24.2133V8.75868C31.4986 7.95372 31.4986 7.28937 31.4544 6.74818C31.4085 6.18608 31.3099 5.66937 31.0626 5.18404C30.6791 4.43139 30.0672 3.81947 29.3146 3.43598C28.8292 3.18868 28.3125 3.09012 27.7504 3.04419C27.2092 2.99998 26.5449 2.99999 25.7399 3H10.2587ZM7.59202 5.21799C7.74842 5.1383 7.97262 5.07337 8.41104 5.03755C8.86113 5.00078 9.44342 5 10.3 5H25.6986C26.5552 5 27.1375 5.00078 27.5876 5.03755C28.026 5.07337 28.2502 5.1383 28.4066 5.21799C28.7829 5.40974 29.0889 5.7157 29.2806 6.09202C29.3603 6.24842 29.4252 6.47262 29.4611 6.91104C29.4978 7.36113 29.4986 7.94342 29.4986 8.8V24.172C29.4986 25.0286 29.4978 25.6108 29.4611 26.0609C29.4252 26.4994 29.3603 26.7236 29.2806 26.88C29.0889 27.2563 28.7829 27.5622 28.4066 27.754C28.2502 27.8337 28.026 27.8986 27.5876 27.9344C27.1375 27.9712 26.5552 27.972 25.6986 27.972H10.3C9.44342 27.972 8.86113 27.9712 8.41104 27.9344C7.97262 27.8986 7.74842 27.8337 7.59202 27.754C7.2157 27.5622 6.90973 27.2563 6.71799 26.88C6.6383 26.7236 6.57337 26.4994 6.53755 26.0609C6.50078 25.6108 6.5 25.0286 6.5 24.172V8.8C6.5 7.94342 6.50078 7.36113 6.53755 6.91104C6.57337 6.47262 6.6383 6.24842 6.71799 6.09202C6.90973 5.7157 7.2157 5.40974 7.59202 5.21799ZM14.0762 16.4861C14.0762 14.3229 15.832 12.5674 18.0001 12.5674C20.1683 12.5674 21.9241 14.3229 21.9241 16.4861C21.9241 18.6494 20.1683 20.4048 18.0001 20.4048C15.832 20.4048 14.0762 18.6494 14.0762 16.4861ZM18.0001 10.5674C14.7294 10.5674 12.0762 13.2163 12.0762 16.4861C12.0762 19.7559 14.7294 22.4048 18.0001 22.4048C21.2709 22.4048 23.9241 19.7559 23.9241 16.4861C23.9241 13.2163 21.2709 10.5674 18.0001 10.5674Z" fill="white"/>
</svg>
