<svg width="36" height="36" viewBox="0 0 36 36" fill="none" xmlns="http://www.w3.org/2000/svg">
<path d="M33 21.6518C32.3216 20.5801 29.4384 20.6213 26.64 20.6625H22.5484C15.5312 20.1061 12.5632 17.4268 11.3124 15.3659C10.6934 14.313 10.3417 13.1318 10.2863 11.9203C10.231 10.7087 10.4738 9.50188 10.9944 8.39983C11.7086 7.0481 12.7181 5.86445 13.9522 4.93174C15.1863 3.99902 16.6151 3.33977 18.1388 3.00013C15.493 2.98961 12.8881 3.6351 10.5704 4.8756C9.37345 5.53946 8.26911 6.34984 7.28435 7.28691C6.16953 8.40765 5.33084 9.75969 4.83142 11.2412C4.332 12.7227 4.18488 14.2951 4.40114 15.8399C4.69159 17.4705 5.35726 19.0162 6.34843 20.3616C7.3396 21.7071 8.63065 22.8174 10.1252 23.6097C14.5837 26.2802 19.969 26.1046 23.7618 25.981L23.7992 25.9798H25.9192C27.6364 25.9798 28.8448 26.1653 29.2476 26.969C29.3463 27.2637 29.3463 27.5812 29.2476 27.8759C29.2476 28.0201 29.396 28.0613 29.5232 27.8759C31.1454 26.1077 32.3085 23.9876 32.9152 21.693L33 21.6518Z" fill="white"/>
<path d="M23.8487 31.7399L23.8466 31.7287L23.8696 31.7185L23.8487 31.7399Z" fill="white"/>
<path d="M23.8466 31.7287C23.6849 30.9267 21.7526 30.7565 19.3245 30.5652C17.5075 30.4437 15.7023 30.1795 13.9247 29.7749C11.5743 29.236 9.38106 28.1372 7.52278 26.5675C5.66451 24.9978 4.19359 23.0014 3.22934 20.7404C3 20.3773 3 20.4414 3 20.8258C3.51554 23.2938 4.61371 25.5947 6.1984 27.5272C7.78309 29.4596 9.80599 30.9647 12.09 31.9107C14.52 32.9172 16.5517 32.9657 17.5941 32.9657C17.8149 32.9877 18.0372 33 18.2613 33C20.1847 32.9407 22.0798 32.5094 23.8466 31.7287Z" fill="white"/>
<path d="M14.8851 11.6715C14.6762 10.7955 14.6918 9.88468 14.9305 9.01557V8.97414C15.2466 8.01774 15.7942 7.14487 16.5294 6.42537C17.2645 5.70587 18.1669 5.15972 19.1642 4.83062C20.2806 4.43507 21.4643 4.23841 22.6559 4.25053H23.0269C23.3304 4.25741 23.6286 4.32817 23.8998 4.4577C25.001 4.99751 26.0587 5.61381 27.0642 6.30157C26.0871 6.26613 25.1096 6.36381 24.1617 6.59162C23.6526 6.75082 23.1899 7.02119 22.8109 7.38101C22.4319 7.74083 22.1471 8.18006 21.9794 8.66337C21.8823 9.02308 21.8792 9.39986 21.9705 9.76094C22.0618 10.122 22.2446 10.4564 22.5031 10.7351C23.5112 11.4975 24.7 12.0148 25.9664 12.2423C27.2328 12.4697 28.5385 12.4004 29.7702 12.0403C30.4097 11.8381 30.9868 11.4895 31.4506 11.0252C32.155 12.2416 32.6765 13.5457 33.0001 14.8994C32.2571 16.0564 31.1163 16.9346 29.7702 17.3855C27.3983 18.1211 24.8543 18.198 22.4379 17.607C20.0214 17.0161 17.8332 15.7819 16.1308 14.0499C15.5211 13.3631 15.094 12.5475 14.8851 11.6715Z" fill="white"/>
</svg>
