<svg width="36" height="36" viewBox="0 0 36 36" fill="none" xmlns="http://www.w3.org/2000/svg">
<path d="M18 1.5C8.90605 1.5 1.5 8.90605 1.5 18C1.5 27.0939 8.90605 34.5 18 34.5C27.0939 34.5 34.5 27.0939 34.5 18C34.5 8.90605 27.0939 1.5 18 1.5ZM22.5297 4.94468C22.6159 4.94468 22.7192 4.94468 22.8053 4.94468C23.0637 4.94468 23.3392 5.01357 23.5804 5.13413C24.7516 5.71973 25.7333 6.30532 26.5256 6.87369C25.6127 6.85647 24.4588 6.95981 23.9421 7.14927C22.8742 7.52818 22.1336 8.23434 21.9097 9.06106C21.7203 9.73278 21.8925 10.4217 22.3747 11.0245C23.5287 12.4368 26.9906 12.9019 28.8335 12.2474C29.4535 12.0235 29.9703 11.6962 30.3319 11.2829C30.952 12.4196 31.417 13.6425 31.6926 14.917C31.107 15.9332 30.108 16.7427 28.8163 17.2422C24.941 18.7406 19.1712 17.2594 16.7082 14.1247C15.6232 12.6952 15.2443 11.0245 15.6748 9.42276C16.1571 7.66597 17.535 6.23643 19.4468 5.49582C20.3941 5.13413 21.4275 4.94468 22.5297 4.94468ZM18.465 32.0543C18.3272 32.0543 18.1895 32.0543 18 32.0543H17.845C16.5877 32.0371 15.3304 31.8648 14.142 31.5204L13.9697 31.4687C13.9181 31.4515 13.8664 31.4342 13.8147 31.417C13.763 31.3998 13.7114 31.3826 13.6425 31.3653L13.4703 31.3137C13.4358 31.2964 13.4014 31.2965 13.3152 31.262L13.0913 31.1759C13.0052 31.1414 12.9363 31.1242 12.8502 31.0898L12.6952 31.0209C8.35491 29.2469 5.2547 25.4749 4.27296 20.9969C4.20407 20.6524 4.20407 20.1013 4.34186 20.4457C5.80585 23.8387 9.49165 27.3523 14.8137 28.6441C16.4843 29.0574 18.2928 29.1952 19.8773 29.3158C22.0475 29.488 23.5804 29.5569 23.6493 30.9003C22.0303 31.6065 20.2735 32.0026 18.465 32.0543ZM28.5407 27.3006C28.7474 23.5287 23.8904 24.6138 22.7537 24.7516C8.50992 26.5945 5.82307 20.3252 5.40971 16.5877C5.09969 13.7114 6.08142 10.1806 8.18267 7.95877C8.81994 7.26983 9.81889 6.512 11.1279 5.70251C13.2291 4.54854 15.5887 3.9285 18.0344 3.9285C18.1206 3.9285 18.1206 3.96294 18.0517 3.98017C8.61326 6.92537 9.18163 13.7803 10.4562 16.3121C14.452 24.2176 28.9541 18.7578 31.5376 21.3413C31.6065 21.4102 31.6237 21.5308 31.5892 21.6341C31.0209 23.7354 29.9875 25.6644 28.5407 27.3006Z" fill="white"/>
</svg>
