<svg width="36" height="36" viewBox="0 0 36 36" fill="none" xmlns="http://www.w3.org/2000/svg">
<path d="M13.5 9.5C12.9477 9.5 12.5 9.94772 12.5 10.5C12.5 11.0523 12.9477 11.5 13.5 11.5H22.5C23.0523 11.5 23.5 11.0523 23.5 10.5C23.5 9.94772 23.0523 9.5 22.5 9.5H13.5Z" fill="white"/>
<path fill-rule="evenodd" clip-rule="evenodd" d="M9 31.5H27C29.4853 31.5 31.5 29.4853 31.5 27V11.7426C31.5 10.947 31.1839 10.1839 30.6213 9.62132L26.3787 5.37868C25.8161 4.81607 25.053 4.5 24.2574 4.5H9C6.51472 4.5 4.5 6.51472 4.5 9V27C4.5 29.4853 6.51472 31.5 9 31.5ZM29.5 27V11.7426C29.5 11.4774 29.3946 11.2231 29.2071 11.0355L24.9645 6.79289C24.7769 6.60536 24.5226 6.5 24.2574 6.5H9C7.61929 6.5 6.5 7.61929 6.5 9V27C6.5 28.3807 7.61929 29.5 9 29.5H10.5V21.75C10.5 20.5074 11.5074 19.5 12.75 19.5H23.25C24.4926 19.5 25.5 20.5074 25.5 21.75V29.5H27C28.3807 29.5 29.5 28.3807 29.5 27ZM23.5 29.5H12.5V21.75C12.5 21.6119 12.6119 21.5 12.75 21.5H23.25C23.3881 21.5 23.5 21.6119 23.5 21.75V29.5Z" fill="white"/>
</svg>
