<svg width="36" height="36" viewBox="0 0 36 36" fill="none" xmlns="http://www.w3.org/2000/svg">
<path d="M18.0011 6.46421H17.9995C15.0263 6.46421 12.3126 7.59461 10.2644 9.44924L10.2652 9.45018C7.93299 11.5622 6.46652 14.6118 6.46534 17.9994C6.46534 20.9733 7.59722 23.6876 9.45071 25.736L9.45207 25.7347C11.564 28.067 14.6148 29.5346 18.0012 29.5346C20.9748 29.5344 23.6889 28.4023 25.7371 26.5488L25.7359 26.5475C28.0681 24.4355 29.5358 21.3847 29.5358 17.9982C29.5358 17.8957 29.5334 17.7933 29.5311 17.6908L32.7597 15.3114C32.9175 16.1842 33 17.0818 33 17.9994C33 22.1416 31.3205 25.8924 28.6063 28.6058C25.8913 31.3208 22.1415 33 18.0002 33L17.9634 32.9999C13.8364 32.9897 10.1004 31.3125 7.39431 28.6057L7.39352 28.6065C4.67849 25.8914 3 22.1409 3 17.9994C3 13.858 4.67853 10.1079 7.39269 7.39357C10.1077 4.67851 13.8582 3 17.9995 3H18.0011C21.5702 3 24.847 4.24622 27.4219 6.32757L24.5042 8.47725C22.7995 7.30999 20.7676 6.5865 18.5756 6.47927L18.5755 6.4807C18.4732 6.47565 18.3705 6.47127 18.2675 6.4683C18.1789 6.46632 18.0901 6.46535 18.0011 6.46539V6.46421Z" fill="white"/>
<path d="M31.6679 11.8095C31.1838 10.7435 30.5784 9.74347 29.8704 8.82825L18.0009 17.5765L12.2905 13.9969V18.3033L18.0009 21.8829L31.6679 11.8095Z" fill="white"/>
</svg>
