<svg width="36" height="36" viewBox="0 0 36 36" fill="none" xmlns="http://www.w3.org/2000/svg">
<path fill-rule="evenodd" clip-rule="evenodd" d="M26.5 18C31.1944 18 35 21.8056 35 26.5C35 31.1944 31.1944 35 26.5 35C21.8056 35 18 31.1944 18 26.5C18 21.8056 21.8056 18 26.5 18ZM27.1914 22.1885C26.9539 21.3635 26.1032 20.9982 25.4424 21.4375C25.278 21.5468 25.0535 21.8342 24.6045 22.4082L23.7842 23.4561C23.4444 23.8905 22.9568 24.1395 22.4443 24.1396C21.785 24.1396 21.25 24.7455 21.25 25.4922V27.5078C21.25 28.2545 21.785 28.8604 22.4443 28.8604C22.9568 28.8605 23.4444 29.1095 23.7842 29.5439L24.6045 30.5918C25.0535 31.1658 25.278 31.4532 25.4424 31.5625C26.1032 32.0018 26.9539 31.6365 27.1914 30.8115C27.2504 30.6062 27.25 30.2227 27.25 29.4561V23.5439C27.25 22.7773 27.2504 22.3938 27.1914 22.1885ZM30.7764 22.8643C30.4255 22.5737 29.9049 22.6228 29.6143 22.9736C29.3237 23.3245 29.3728 23.8451 29.7236 24.1357C30.1173 24.4619 30.4197 24.8404 30.6221 25.2451C30.8241 25.6492 30.9248 26.0752 30.9248 26.5L30.9199 26.6592C30.8979 27.0308 30.7989 27.4013 30.6221 27.7549C30.4197 28.1596 30.1173 28.5381 29.7236 28.8643C29.3728 29.1549 29.3237 29.6755 29.6143 30.0264C29.9049 30.3772 30.4255 30.4263 30.7764 30.1357C31.3337 29.6741 31.7854 29.1168 32.0977 28.4922C32.4103 27.8668 32.5752 27.1895 32.5752 26.5C32.5752 25.8105 32.4103 25.1332 32.0977 24.5078C31.7854 23.8832 31.3337 23.3259 30.7764 22.8643Z" fill="white"/>
<path fill-rule="evenodd" clip-rule="evenodd" d="M25.125 2.25C25.6473 2.25 26.0852 2.6063 26.2119 3.08887C26.6524 3.31216 27.1201 3.64214 27.5713 4.13281C28.9201 5.59965 30 8.35703 30 13.5V17.1299C29.5166 16.9492 29.0155 16.8048 28.5 16.7002V13.5C28.5 8.51846 27.4465 6.21299 26.4678 5.14844C26.1505 4.80342 25.8278 4.57545 25.5273 4.42383C25.4022 4.47186 25.267 4.5 25.125 4.5H24.6387C25.6562 6.02084 26.5088 8.71256 26.5088 13.5V16.5C26.5059 16.5 26.5029 16.5 26.5 16.5C25.9932 16.5 25.4953 16.5376 25.0088 16.6104V13.5C25.0088 8.51219 24.0494 6.17434 23.2236 5.09668C23.0201 4.83109 22.8228 4.63903 22.6455 4.5H21.8428C22.255 5.8956 22.6289 8.51321 22.6289 13.5V17.2773C22.1042 17.4978 21.6035 17.7635 21.1289 18.0664V13.5C21.1289 8.45723 20.7411 6.01655 20.3867 4.86035C20.3432 4.71839 20.3009 4.59946 20.2617 4.5H18.75V20.1807C18.1335 20.9358 17.6265 21.7832 17.25 22.6982V4.5H15.7383C15.6991 4.59946 15.6568 4.71839 15.6133 4.86035C15.2589 6.01654 14.8711 8.45723 14.8711 13.5V19.5C14.8711 23.9784 15.0637 26.0036 15.251 27.3164C15.3921 28.305 15.5457 28.972 15.6123 30H17.1309C17.6675 31.4359 18.5254 32.714 19.6162 33.75H11.25C10.2145 33.75 9.375 32.9105 9.375 31.875V31.125C9.375 30.5436 9.21955 30.1367 8.9541 29.6943C8.81254 29.4584 8.64574 29.2224 8.44238 28.9316C8.24377 28.6477 8.01947 28.3241 7.79395 27.9482C6.86643 26.4023 6 24.1058 6 19.5V13.5C6 8.35703 7.0799 5.59965 8.42871 4.13281C8.87968 3.64243 9.3469 3.31215 9.78711 3.08887C9.91372 2.60618 10.3526 2.25 10.875 2.25H25.125ZM10.4717 4.42383C10.1715 4.57546 9.84921 4.80372 9.53223 5.14844C8.55354 6.21299 7.5 8.51846 7.5 13.5V19.5C7.5 23.8939 8.32114 25.9102 9.08105 27.1768C9.27733 27.5039 9.47506 27.7899 9.67188 28.0713C9.8639 28.3458 10.0664 28.6315 10.2412 28.9229C10.4401 29.2544 10.6072 29.6039 10.7207 30H11.3311C11.1818 29.2498 10.8769 28.7169 10.5049 27.6738C9.98274 26.2101 9.49121 24.0567 9.49121 19.5V13.5C9.49121 8.71255 10.3438 6.02084 11.3613 4.5H10.875C10.7326 4.5 10.597 4.47207 10.4717 4.42383ZM13.3545 4.5C13.1772 4.63903 12.9799 4.83109 12.7764 5.09668C11.9506 6.17434 10.9912 8.51218 10.9912 13.5V19.5C10.9912 23.9432 11.4703 25.9149 11.918 27.1699C12.2585 28.1245 12.677 28.8567 12.8496 30H14.1084C14.0461 29.1363 13.9133 28.5554 13.7666 27.5273C13.566 26.1214 13.3711 24.0212 13.3711 19.5V13.5C13.3711 8.5132 13.745 5.8956 14.1572 4.5H13.3545Z" fill="white"/>
</svg>
