<svg width="36" height="36" viewBox="0 0 36 36" fill="none" xmlns="http://www.w3.org/2000/svg">
<path fill-rule="evenodd" clip-rule="evenodd" d="M26.5 18C31.1944 18 35 21.8056 35 26.5C35 31.1944 31.1944 35 26.5 35C21.8056 35 18 31.1944 18 26.5C18 21.8056 21.8056 18 26.5 18ZM24.2861 21.2979C23.7527 21.155 23.2044 21.4715 23.0615 22.0049C22.9188 22.5382 23.2353 23.0865 23.7686 23.2295C25.1988 23.6128 26.4628 24.4571 27.3643 25.6318C28.2658 26.8067 28.7539 28.2466 28.7539 29.7275C28.7541 30.2795 29.202 30.7272 29.7539 30.7275C30.3061 30.7275 30.7538 30.2797 30.7539 29.7275C30.7539 27.8064 30.1207 25.9382 28.9512 24.4141C27.7817 22.8901 26.1416 21.7951 24.2861 21.2979ZM23.3994 25.3896C22.866 25.2469 22.3177 25.5633 22.1748 26.0967C22.032 26.63 22.3486 27.1783 22.8818 27.3213C23.3264 27.4404 23.7198 27.7032 24 28.0684C24.28 28.4334 24.4316 28.8807 24.4316 29.3408C24.4316 29.893 24.8794 30.3407 25.4316 30.3408C25.9839 30.3408 26.4316 29.8931 26.4316 29.3408C26.4316 28.4404 26.135 27.565 25.5869 26.8506C25.0387 26.1361 24.2693 25.6227 23.3994 25.3896Z" fill="white"/>
<path fill-rule="evenodd" clip-rule="evenodd" d="M25.125 2.25C25.6473 2.25 26.0852 2.6063 26.2119 3.08887C26.6524 3.31216 27.1201 3.64214 27.5713 4.13281C28.9201 5.59965 30 8.35703 30 13.5V17.1299C29.5166 16.9492 29.0155 16.8048 28.5 16.7002V13.5C28.5 8.51846 27.4465 6.21299 26.4678 5.14844C26.1505 4.80342 25.8278 4.57545 25.5273 4.42383C25.4022 4.47186 25.267 4.5 25.125 4.5H24.6387C25.6562 6.02084 26.5088 8.71256 26.5088 13.5V16.5C26.5059 16.5 26.5029 16.5 26.5 16.5C25.9932 16.5 25.4953 16.5376 25.0088 16.6104V13.5C25.0088 8.51219 24.0494 6.17434 23.2236 5.09668C23.0201 4.83109 22.8228 4.63903 22.6455 4.5H21.8428C22.255 5.8956 22.6289 8.51321 22.6289 13.5V17.2773C22.1042 17.4978 21.6035 17.7635 21.1289 18.0664V13.5C21.1289 8.45723 20.7411 6.01655 20.3867 4.86035C20.3432 4.71839 20.3009 4.59946 20.2617 4.5H18.75V20.1807C18.1335 20.9358 17.6265 21.7832 17.25 22.6982V4.5H15.7383C15.6991 4.59946 15.6568 4.71839 15.6133 4.86035C15.2589 6.01654 14.8711 8.45723 14.8711 13.5V19.5C14.8711 23.9784 15.0637 26.0036 15.251 27.3164C15.3921 28.305 15.5457 28.972 15.6123 30H17.1309C17.6675 31.4359 18.5254 32.714 19.6162 33.75H11.25C10.2145 33.75 9.375 32.9105 9.375 31.875V31.125C9.375 30.5436 9.21955 30.1367 8.9541 29.6943C8.81254 29.4584 8.64574 29.2224 8.44238 28.9316C8.24377 28.6477 8.01947 28.3241 7.79395 27.9482C6.86643 26.4023 6 24.1058 6 19.5V13.5C6 8.35703 7.0799 5.59965 8.42871 4.13281C8.87968 3.64243 9.3469 3.31215 9.78711 3.08887C9.91372 2.60618 10.3526 2.25 10.875 2.25H25.125ZM10.4717 4.42383C10.1715 4.57546 9.84921 4.80372 9.53223 5.14844C8.55354 6.21299 7.5 8.51846 7.5 13.5V19.5C7.5 23.8939 8.32114 25.9102 9.08105 27.1768C9.27733 27.5039 9.47506 27.7899 9.67188 28.0713C9.8639 28.3458 10.0664 28.6315 10.2412 28.9229C10.4401 29.2544 10.6072 29.6039 10.7207 30H11.3311C11.1818 29.2498 10.8769 28.7169 10.5049 27.6738C9.98274 26.2101 9.49121 24.0567 9.49121 19.5V13.5C9.49121 8.71255 10.3438 6.02084 11.3613 4.5H10.875C10.7326 4.5 10.597 4.47207 10.4717 4.42383ZM13.3545 4.5C13.1772 4.63903 12.9799 4.83109 12.7764 5.09668C11.9506 6.17434 10.9912 8.51218 10.9912 13.5V19.5C10.9912 23.9432 11.4703 25.9149 11.918 27.1699C12.2585 28.1245 12.677 28.8567 12.8496 30H14.1084C14.0461 29.1363 13.9133 28.5554 13.7666 27.5273C13.566 26.1214 13.3711 24.0212 13.3711 19.5V13.5C13.3711 8.5132 13.745 5.8956 14.1572 4.5H13.3545Z" fill="white"/>
</svg>
