<svg width="36" height="36" viewBox="0 0 36 36" fill="none" xmlns="http://www.w3.org/2000/svg">
<path d="M26.9746 23.5C27.5269 23.5 27.9746 23.9477 27.9746 24.5C27.9746 25.0523 27.5269 25.5 26.9746 25.5H8.97461C8.42249 25.4998 7.97461 25.0522 7.97461 24.5C7.97461 23.9478 8.42249 23.5002 8.97461 23.5H26.9746Z" fill="white"/>
<path d="M17.9746 14.75C19.0101 14.75 19.8496 15.5895 19.8496 16.625C19.8496 17.6605 19.0101 18.5 17.9746 18.5C16.9392 18.4998 16.0996 17.6604 16.0996 16.625C16.0996 15.5896 16.9392 14.7502 17.9746 14.75Z" fill="white"/>
<path fill-rule="evenodd" clip-rule="evenodd" d="M31.8496 11.5C33.2303 11.5 34.3496 12.6193 34.3496 14V19.25C34.3496 20.6307 33.2303 21.75 31.8496 21.75H4.09961C2.71907 21.7498 1.59961 20.6306 1.59961 19.25V14C1.59961 12.6194 2.71907 11.5002 4.09961 11.5H31.8496ZM4.09961 13.5C3.82364 13.5002 3.59961 13.724 3.59961 14V19.25C3.59961 19.526 3.82364 19.7498 4.09961 19.75H6.22461V13.5H4.09961ZM29.9746 19.75H31.8496C32.1258 19.75 32.3496 19.5261 32.3496 19.25V14C32.3496 13.7239 32.1258 13.5 31.8496 13.5H29.9746V19.75ZM8.22461 19.75H27.9746V13.5H8.22461V19.75Z" fill="white"/>
</svg>
