<svg width="36" height="36" viewBox="0 0 36 36" fill="none" xmlns="http://www.w3.org/2000/svg">
<path fill-rule="evenodd" clip-rule="evenodd" d="M26.5 18C31.1944 18 35 21.8056 35 26.5C35 31.1944 31.1944 35 26.5 35C21.8056 35 18 31.1944 18 26.5C18 21.8056 21.8056 18 26.5 18ZM24.2861 21.2979C23.7527 21.155 23.2044 21.4715 23.0615 22.0049C22.9188 22.5382 23.2353 23.0865 23.7686 23.2295C25.1988 23.6128 26.4628 24.4571 27.3643 25.6318C28.2658 26.8067 28.7539 28.2466 28.7539 29.7275C28.7541 30.2795 29.202 30.7272 29.7539 30.7275C30.3061 30.7275 30.7538 30.2797 30.7539 29.7275C30.7539 27.8064 30.1207 25.9382 28.9512 24.4141C27.7817 22.8901 26.1416 21.7951 24.2861 21.2979ZM23.3994 25.3896C22.866 25.2469 22.3177 25.5633 22.1748 26.0967C22.032 26.63 22.3486 27.1783 22.8818 27.3213C23.3264 27.4404 23.7198 27.7032 24 28.0684C24.28 28.4334 24.4316 28.8807 24.4316 29.3408C24.4316 29.893 24.8794 30.3407 25.4316 30.3408C25.9839 30.3408 26.4316 29.8931 26.4316 29.3408C26.4316 28.4404 26.135 27.565 25.5869 26.8506C25.0387 26.1361 24.2693 25.6227 23.3994 25.3896Z" fill="white"/>
<path d="M31.875 6.75C32.4963 6.75 33 7.25368 33 7.875C33 8.27127 32.794 8.61795 32.4844 8.81836C32.8097 9.29804 33 9.87674 33 10.5V15.3496C33 16.6605 32.9215 17.7732 32.7881 18.7256C32.3513 18.3719 31.8837 18.0554 31.3906 17.7783C31.459 17.0717 31.5 16.2677 31.5 15.3496V10.5C31.5 9.67157 30.8284 9 30 9H6C5.17157 9 4.5 9.67157 4.5 10.5V15.3496C4.5 20.0368 5.50361 21.7534 6.36523 22.6934C6.59423 22.9432 6.82629 23.152 7.06641 23.3643C7.29673 23.5679 7.55715 23.7935 7.7832 24.04C8.28126 24.5834 8.625 25.2407 8.625 26.25H10.125C10.125 25.5806 10.0369 25.1803 9.9248 24.8955C9.80948 24.6025 9.65409 24.3859 9.41602 24.0547C9.17995 23.7262 8.89267 23.3219 8.63379 22.7295C8.3761 22.1398 8.15749 21.3907 8.00879 20.3564C7.95 19.9465 8.23462 19.5667 8.64453 19.5078C9.05442 19.449 9.43423 19.7337 9.49316 20.1436C9.6267 21.0722 9.81441 21.6863 10.0078 22.1289C10.2001 22.5688 10.4095 22.8666 10.6338 23.1787C10.856 23.4879 11.1256 23.8512 11.3203 24.3457C11.5183 24.8487 11.625 25.4453 11.625 26.25H13.5C13.5 25.5043 13.4473 25.1535 13.3916 24.9561C13.3368 24.7617 13.2893 24.7138 13.1318 24.417C12.8087 23.8078 12.5282 22.9406 12.4033 20.2852C12.3839 19.8716 12.7036 19.5206 13.1172 19.501C13.5309 19.4815 13.8829 19.8011 13.9023 20.2148C14.0245 22.8109 14.2933 23.4052 14.457 23.7139C14.5429 23.8758 14.7227 24.1517 14.835 24.5498C14.9464 24.9451 15 25.4574 15 26.25H16.5059C16.5038 26.3331 16.5 26.4164 16.5 26.5C16.5 27.454 16.6362 28.3761 16.8857 29.25H9C7.96447 29.25 7.125 28.4105 7.125 27.375V26.25C7.125 25.6594 6.95307 25.3541 6.67773 25.0537C6.51713 24.8785 6.32619 24.7119 6.07324 24.4883C5.83005 24.2733 5.5463 24.0196 5.25977 23.707C4.05889 22.397 3 20.2624 3 15.3496V10.5C3 9.87694 3.18951 9.29795 3.51465 8.81836C3.20542 8.61788 3 8.27098 3 7.875C3 7.25368 3.50368 6.75 4.125 6.75H31.875Z" fill="white"/>
<path d="M18 19.5C18.3921 19.5 18.7129 19.801 18.7461 20.1846C18.1312 20.9387 17.6258 21.7849 17.25 22.6982V20.25C17.25 19.8358 17.5858 19.5 18 19.5Z" fill="white"/>
</svg>
