<svg width="36" height="36" viewBox="0 0 36 36" fill="none" xmlns="http://www.w3.org/2000/svg">
<path fill-rule="evenodd" clip-rule="evenodd" d="M9.77637 11.2773C12.6606 7.90983 16.4383 7.10726 19.6514 7.54492C21.2511 7.76289 22.7263 8.2889 23.9082 8.96875C25.0705 9.63737 26.0312 10.5033 26.4893 11.4541C27.3486 13.2382 26.9704 15.0641 25.877 16.1943C24.7689 17.3394 22.9863 17.6975 21.3174 16.6582C19.6473 15.6183 18.1102 15.4453 16.8418 15.7705C15.6043 16.0878 14.5488 16.8992 13.832 18C14.5488 19.1008 15.6043 19.9122 16.8418 20.2295C18.1102 20.5547 19.6473 20.3817 21.3174 19.3418C22.9863 18.3025 24.7689 18.6606 25.877 19.8057C26.9704 20.9359 27.3486 22.7618 26.4893 24.5459C26.0348 25.4893 25.0977 26.3593 23.9531 27.0361C22.7911 27.7232 21.3391 28.2573 19.7529 28.4805C16.5624 28.9293 12.795 28.1196 9.78613 24.7334L9.75488 24.6982L9.72754 24.6602C9.25062 23.9796 8.85788 23.3018 8.53906 22.6318C8.49181 22.5384 8.446 22.4439 8.40137 22.3486C7.80466 21.075 7.4431 19.6377 7.43652 18.0967C7.4364 18.0885 7.43565 18.0804 7.43555 18.0723V17.9277C7.43574 17.9128 7.43627 17.8978 7.43652 17.8828C7.44622 16.3496 7.80731 14.9193 8.40137 13.6514C8.44613 13.5558 8.49167 13.4609 8.53906 13.3672C8.85781 12.6974 9.25081 12.0201 9.72754 11.3398L9.75 11.3076L9.77637 11.2773ZM13.0732 19.6943C12.4908 21.8257 13.0365 24.3958 15.418 26.373L15.7646 26.6611C17.0479 26.999 18.3311 27.0351 19.5254 26.8672C20.8993 26.6739 22.1474 26.2113 23.124 25.6338C24.1178 25.0461 24.759 24.3837 25.0215 23.8389C25.5959 22.6463 25.3057 21.5603 24.7051 20.9395C24.1189 20.3337 23.1808 20.1016 22.1787 20.7256C20.1762 21.9724 18.1857 22.2566 16.4375 21.8086C15.0981 21.4652 13.9483 20.7026 13.0732 19.6943ZM11.9121 11.541C11.1546 12.2507 10.4594 13.1533 9.94238 14.2119C9.34715 15.5109 9.08413 16.7594 9.06641 17.9277C9.06392 19.1437 9.32713 20.4482 9.9541 21.8086C10.4701 22.8581 11.1597 23.754 11.9121 24.459C10.929 22.2754 11.0594 19.9218 11.9688 18C11.0594 16.0782 10.929 13.7246 11.9121 11.541ZM19.4307 9.16016C18.2527 8.99974 17.0003 9.03153 15.7607 9.34082L15.418 9.62695C13.0368 11.6039 12.4912 14.1735 13.0732 16.3047C13.9482 15.2967 15.0984 14.5347 16.4375 14.1914C18.1857 13.7434 20.1762 14.0276 22.1787 15.2744C23.1808 15.8984 24.1189 15.6663 24.7051 15.0605C25.3057 14.4397 25.5959 13.3537 25.0215 12.1611C24.7626 11.6238 24.1127 10.9659 23.0957 10.3809C22.098 9.80699 20.8237 9.34991 19.4307 9.16016Z" fill="white"/>
<path fill-rule="evenodd" clip-rule="evenodd" d="M18 3C26.2843 3 33 9.71573 33 18C33 26.2843 26.2843 33 18 33C9.71573 33 3 26.2843 3 18C3 9.71573 9.71573 3 18 3ZM18 4.62988C10.616 4.62988 4.62988 10.616 4.62988 18C4.62988 25.384 10.616 31.3701 18 31.3701C25.384 31.3701 31.3701 25.384 31.3701 18C31.3701 10.616 25.384 4.62988 18 4.62988Z" fill="white"/>
</svg>
