<svg width="36" height="36" viewBox="0 0 36 36" fill="none" xmlns="http://www.w3.org/2000/svg">
<path fill-rule="evenodd" clip-rule="evenodd" d="M26.4999 18.0011C31.1943 18.0011 34.9999 21.8068 34.9999 26.5011C34.9999 31.1955 31.1944 35.0011 26.4999 35.0011C21.8055 35.0011 17.9999 31.1955 17.9999 26.5011C18 21.8068 21.8056 18.0011 26.4999 18.0011ZM27.1913 22.1896C26.9538 21.3647 26.1031 20.9994 25.4423 21.4386C25.2779 21.5479 25.0534 21.8354 24.6044 22.4093L23.7841 23.4572C23.4443 23.8916 22.9567 24.1406 22.4443 24.1408C21.785 24.1408 21.25 24.7467 21.2499 25.4933V27.5089C21.2499 28.2556 21.7849 28.8614 22.4443 28.8615C22.9567 28.8616 23.4443 29.1107 23.7841 29.5451L24.6044 30.5929C25.0533 31.1668 25.2779 31.4543 25.4423 31.5636C26.1031 32.0029 26.9539 31.6377 27.1913 30.8126C27.2503 30.6073 27.2499 30.2237 27.2499 29.4572V23.5451C27.2499 22.7785 27.2504 22.3949 27.1913 22.1896ZM30.7763 22.8654C30.4254 22.575 29.9048 22.624 29.6142 22.9748C29.3237 23.3256 29.3728 23.8462 29.7236 24.1369C30.1172 24.463 30.4196 24.8416 30.622 25.2462C30.824 25.6503 30.9247 26.0764 30.9247 26.5011L30.9199 26.6603C30.8978 27.0319 30.7988 27.4024 30.622 27.756C30.4196 28.1607 30.1172 28.5392 29.7236 28.8654C29.3728 29.156 29.3238 29.6766 29.6142 30.0275C29.9048 30.3783 30.4254 30.4274 30.7763 30.1369C31.3336 29.6752 31.7853 29.1179 32.0976 28.4933C32.4102 27.868 32.5751 27.1906 32.5751 26.5011C32.5751 25.8117 32.4102 25.1343 32.0976 24.5089C31.7853 23.8844 31.3335 23.327 30.7763 22.8654Z" fill="white"/>
<path d="M18.0048 5.68764C25.6145 4.83745 31.119 10.4045 31.1191 17.1027C31.1191 17.2774 31.1131 17.4516 31.1044 17.6251C30.5568 17.3405 29.98 17.1044 29.3788 16.924C29.3858 16.7956 29.3915 16.6673 29.3915 16.5392C29.3913 10.2123 24.7907 6.22835 17.9335 6.96401C11.6266 7.64094 6.70652 12.7834 6.47454 17.3947C6.1317 24.2165 10.743 27.4752 16.5663 27.6457C16.6742 28.5926 16.914 29.4991 17.2675 30.3468C17.1767 30.3489 17.0858 30.3517 16.995 30.3517C10.0703 30.3514 4.48621 26.4779 4.88958 18.1212C5.15537 12.6245 10.7862 6.4945 18.0048 5.68764Z" fill="white"/>
<path d="M9.497 22.0978C9.76402 22.0978 9.98033 22.3134 9.9804 22.5792C9.9801 22.8449 9.76388 23.0607 9.497 23.0607C9.2303 23.0605 9.0139 22.8448 9.0136 22.5792C9.01368 22.3135 9.23016 22.098 9.497 22.0978Z" fill="white"/>
<path d="M15.0243 19.3458C15.2912 19.3458 15.5075 19.5616 15.5077 19.8273C15.5076 20.0931 15.2913 20.3087 15.0243 20.3087C14.7576 20.3085 14.5411 20.093 14.5409 19.8273C14.5412 19.5617 14.7576 19.3461 15.0243 19.3458Z" fill="white"/>
<path d="M21.1025 11.7804C22.8192 11.7804 24.2107 13.1658 24.2109 14.8751C24.2108 15.7044 23.8808 16.4551 23.3476 17.0109C22.6215 17.252 21.9315 17.5717 21.29 17.964C21.228 17.9677 21.1654 17.9708 21.1025 17.9708C19.3859 17.9706 17.9942 16.5844 17.9941 14.8751C17.9943 13.1659 19.386 11.7806 21.1025 11.7804Z" fill="white"/>
<path d="M9.35931 16.5949C9.54984 16.595 9.7039 16.7489 9.70403 16.9386C9.70388 17.1283 9.54982 17.2822 9.35931 17.2824C9.16875 17.2822 9.01376 17.1284 9.0136 16.9386C9.01374 16.7489 9.16874 16.595 9.35931 16.5949Z" fill="white"/>
<path d="M25.8007 15.2189C25.9151 15.2189 26.0077 15.312 26.0077 15.4259C26.0074 15.5396 25.9149 15.632 25.8007 15.632C25.6867 15.6318 25.5941 15.5394 25.5937 15.4259C25.5938 15.3122 25.6865 15.2191 25.8007 15.2189Z" fill="white"/>
<path d="M13.5038 13.8439C13.6944 13.8441 13.8485 13.9979 13.8486 14.1876C13.8483 14.3772 13.6943 14.5312 13.5038 14.5314C13.3134 14.5313 13.1584 14.3773 13.1581 14.1876C13.1582 13.9978 13.3132 13.844 13.5038 13.8439Z" fill="white"/>
<path d="M14.748 11.0919C14.8623 11.0919 14.9548 11.1842 14.955 11.298C14.9549 11.4118 14.8623 11.505 14.748 11.505C14.6338 11.5048 14.5411 11.4117 14.5409 11.298C14.5412 11.1844 14.6339 11.0922 14.748 11.0919Z" fill="white"/>
<path d="M21.7929 9.71596C21.9833 9.71613 22.1373 9.87016 22.1376 10.0597C22.1375 10.2494 21.9834 10.4043 21.7929 10.4044C21.6023 10.4043 21.4474 10.2495 21.4472 10.0597C21.4475 9.87013 21.6025 9.71608 21.7929 9.71596Z" fill="white"/>
<path d="M17.5097 8.34096C17.6241 8.34096 17.7166 8.43317 17.7167 8.54702C17.7166 8.66085 17.6241 8.75307 17.5097 8.75307C17.3955 8.75284 17.3028 8.66071 17.3027 8.54702C17.3028 8.43331 17.3955 8.34119 17.5097 8.34096Z" fill="white"/>
</svg>
