<svg width="36" height="36" viewBox="0 0 36 36" fill="none" xmlns="http://www.w3.org/2000/svg">
<path d="M18.9843 24.7805C19.2471 24.7341 19.4975 24.9085 19.5438 25.1701C19.59 25.432 19.4143 25.6824 19.1513 25.7287C18.8884 25.7749 18.6378 25.5999 18.5917 25.3381C18.5457 25.0764 18.7214 24.8269 18.9843 24.7805Z" fill="white"/>
<path d="M10.3427 23.51C10.6057 23.4636 10.857 23.6387 10.9032 23.9006C10.9491 24.1622 10.7732 24.4117 10.5106 24.4582C10.2478 24.5046 9.99644 24.3302 9.95009 24.0686C9.90393 23.8068 10.0798 23.5565 10.3427 23.51Z" fill="white"/>
<path d="M20.8524 20.26C21.0403 20.2269 21.2198 20.3522 21.2528 20.5393C21.2856 20.7261 21.1602 20.9045 20.9725 20.9377C20.7848 20.9708 20.6053 20.8462 20.5722 20.6594C20.5392 20.4724 20.6647 20.2932 20.8524 20.26Z" fill="white"/>
<path d="M15.3075 19.841C15.5704 19.7947 15.8207 19.969 15.8671 20.2307C15.9133 20.4926 15.7375 20.7429 15.4745 20.7893C15.2116 20.8354 14.9611 20.6604 14.9149 20.3987C14.8689 20.1369 15.0447 19.8874 15.3075 19.841Z" fill="white"/>
<path d="M9.25184 18.1154C9.43957 18.0825 9.6183 18.2068 9.65126 18.3938C9.68422 18.5808 9.55874 18.759 9.37098 18.7922C9.18316 18.8253 9.00363 18.7009 8.97059 18.5139C8.93761 18.3268 9.06399 18.1486 9.25184 18.1154Z" fill="white"/>
<path d="M25.953 16.5666C26.216 16.5202 26.4674 16.6954 26.5136 16.9572C26.5596 17.2189 26.3837 17.4683 26.121 17.5149C25.858 17.5612 25.6067 17.387 25.5604 17.1252C25.5143 16.8635 25.6902 16.6132 25.953 16.5666Z" fill="white"/>
<path d="M19.9804 11.3342C21.6711 11.0361 23.2821 12.1595 23.579 13.843C23.8757 15.5264 22.7461 17.1327 21.0556 17.4309C19.3648 17.729 17.7538 16.6056 17.4569 14.9221C17.1601 13.2386 18.2897 11.6323 19.9804 11.3342Z" fill="white"/>
<path d="M12.8554 14.6858C13.0432 14.6526 13.2227 14.7771 13.2557 14.9641C13.2887 15.1511 13.1624 15.3294 12.9745 15.3625C12.7867 15.3955 12.6081 15.2712 12.5751 15.0842C12.5421 14.8972 12.6676 14.7189 12.8554 14.6858Z" fill="white"/>
<path d="M25.204 13.9055C25.3165 13.8859 25.4234 13.9605 25.4432 14.0725C25.463 14.1847 25.3879 14.2918 25.2753 14.3117C25.1626 14.3316 25.0549 14.2569 25.035 14.1447C25.0153 14.0325 25.0913 13.9254 25.204 13.9055Z" fill="white"/>
<path d="M13.6024 11.76C13.7149 11.7403 13.8217 11.8151 13.8417 11.927C13.8615 12.0392 13.7864 12.1464 13.6737 12.1662C13.561 12.1861 13.4533 12.1115 13.4335 11.9992C13.4138 11.8871 13.4898 11.7798 13.6024 11.76Z" fill="white"/>
<path d="M20.3026 9.18185C20.4903 9.14893 20.669 9.27335 20.702 9.46017C20.735 9.64719 20.6096 9.82543 20.4218 9.85861C20.2339 9.89174 20.0544 9.76735 20.0214 9.58029C19.9885 9.39328 20.1148 9.21497 20.3026 9.18185Z" fill="white"/>
<path d="M15.8456 8.57053C15.9583 8.55069 16.066 8.62628 16.0858 8.73849C16.1054 8.85058 16.0295 8.9579 15.9169 8.97775C15.8043 8.99735 15.6974 8.92187 15.6776 8.80978C15.658 8.69765 15.733 8.59038 15.8456 8.57053Z" fill="white"/>
<path fill-rule="evenodd" clip-rule="evenodd" d="M15.871 5.87228C23.2174 3.71333 29.605 8.23986 30.7684 14.8362C32.0907 22.3329 25.9808 29.1344 19.161 30.3371C12.3411 31.5396 6.16893 28.695 5.11513 20.3947C4.37707 14.5822 8.90205 7.92044 15.871 5.87228ZM28.9706 14.5822C27.8718 8.35123 22.6488 5.22631 16.0233 7.14181C9.9299 8.90369 5.91445 14.3117 6.55067 19.4035C7.42096 26.3686 12.7897 28.7206 18.7479 27.6701C24.7063 26.6195 29.9956 20.3947 28.9706 14.5822Z" fill="white"/>
</svg>
