<svg width="36" height="36" viewBox="0 0 36 36" fill="none" xmlns="http://www.w3.org/2000/svg">
<path fill-rule="evenodd" clip-rule="evenodd" d="M15.872 5.87213C23.2184 3.7136 29.6052 8.23979 30.7685 14.836C31.9941 21.7871 25.9808 29.1332 19.1611 30.336C12.341 31.5385 6.16897 28.6939 5.11517 20.3936C4.42261 14.9342 8.90308 7.92012 15.872 5.87213ZM18.9843 24.7794C18.7214 24.8258 18.5457 25.0762 18.5917 25.3379C18.6379 25.5997 18.8884 25.7738 19.1513 25.7276C19.4142 25.6812 19.59 25.4318 19.5439 25.17C19.4976 24.9083 19.2472 24.7331 18.9843 24.7794ZM10.3427 23.5098C10.0799 23.5563 9.90397 23.8066 9.95013 24.0684C9.9965 24.3299 10.247 24.5041 10.5097 24.4581C10.7726 24.4117 10.9482 24.1622 10.9023 23.9004C10.8561 23.6386 10.6057 23.4635 10.3427 23.5098ZM20.8525 20.2598C20.665 20.2931 20.5395 20.4715 20.5722 20.6583C20.6052 20.8453 20.7847 20.9707 20.9726 20.9376C21.1603 20.9043 21.2858 20.7251 21.2529 20.5381C21.2197 20.3513 21.0402 20.2268 20.8525 20.2598ZM15.3075 19.8399C15.0448 19.8864 14.869 20.1368 14.915 20.3985C14.9612 20.6602 15.2117 20.8343 15.4745 20.7881C15.7374 20.7417 15.9133 20.4923 15.8671 20.2305C15.8208 19.969 15.5703 19.7938 15.3075 19.8399ZM9.25188 18.1143C9.06406 18.1474 8.93771 18.3267 8.97063 18.5137C9.00381 18.7006 9.1833 18.8251 9.37103 18.792C9.55865 18.7588 9.68407 18.5805 9.6513 18.3936C9.61831 18.2068 9.4395 18.0816 9.25188 18.1143ZM25.9531 16.5674C25.6904 16.6141 25.5144 16.8634 25.5605 17.1251C25.6068 17.3865 25.8575 17.5615 26.12 17.5157C26.3829 17.4693 26.5595 17.2188 26.5136 16.9571C26.4674 16.6952 26.2161 16.5211 25.9531 16.5674ZM23.579 13.8419C23.2821 12.1586 21.6709 11.0352 19.9804 11.3331C18.2898 11.6313 17.1592 13.2385 17.456 14.9219C17.7529 16.6053 19.365 17.7287 21.0556 17.4307C22.7461 17.1324 23.8759 15.5252 23.579 13.8419ZM12.8554 14.6856C12.6677 14.7187 12.5415 14.8972 12.5742 15.084C12.6072 15.2708 12.7869 15.3962 12.9745 15.3633C13.1623 15.3302 13.2886 15.1509 13.2558 14.9639C13.2226 14.7771 13.0431 14.6525 12.8554 14.6856ZM25.2031 13.9044C25.0906 13.9244 25.0154 14.0325 25.0351 14.1446C25.0551 14.2564 25.1629 14.3312 25.2753 14.3116C25.3877 14.2916 25.4638 14.1843 25.4443 14.0723C25.4244 13.9602 25.3157 13.8845 25.2031 13.9044ZM13.6015 11.7598C13.4892 11.78 13.4139 11.8872 13.4335 11.9991C13.4534 12.111 13.5613 12.1867 13.6738 12.167C13.7863 12.1471 13.8624 12.0389 13.8427 11.9268C13.8228 11.8147 13.7141 11.74 13.6015 11.7598ZM20.3027 9.18072C20.1148 9.21384 19.9894 9.39405 20.0224 9.58111C20.0557 9.76756 20.2344 9.89224 20.4218 9.85943C20.6093 9.82619 20.7347 9.64774 20.7021 9.46099C20.6691 9.27407 20.4904 9.14785 20.3027 9.18072ZM15.8456 8.57037C15.733 8.59026 15.6579 8.69743 15.6777 8.80963C15.6975 8.92169 15.8044 8.99625 15.9169 8.97662C16.0296 8.9567 16.1056 8.84953 16.0859 8.73736C16.0659 8.62534 15.9582 8.55058 15.8456 8.57037Z" fill="white"/>
</svg>
