<svg width="36" height="36" viewBox="0 0 36 36" fill="none" xmlns="http://www.w3.org/2000/svg">
<path fill-rule="evenodd" clip-rule="evenodd" d="M26.4999 18.0011C31.1943 18.0011 34.9998 21.8068 34.9999 26.5011C34.9999 31.1955 31.1944 35.0011 26.4999 35.0011C21.8055 35.0011 17.9999 31.1955 17.9999 26.5011C18 21.8068 21.8056 18.0012 26.4999 18.0011ZM24.2861 21.299C23.7527 21.1562 23.2044 21.4727 23.0615 22.006C22.9187 22.5393 23.2353 23.0876 23.7685 23.2306C25.1987 23.6139 26.4628 24.4583 27.3642 25.633C28.2657 26.8078 28.7538 28.2478 28.7538 29.7287C28.754 30.2806 29.202 30.7283 29.7538 30.7287C30.306 30.7287 30.7537 30.2808 30.7538 29.7287C30.7538 27.8076 30.1206 25.9393 28.9511 24.4152C27.7817 22.8913 26.1415 21.7962 24.2861 21.299ZM23.3993 25.3908C22.866 25.2481 22.3177 25.5645 22.1747 26.0978C22.032 26.6311 22.3486 27.1794 22.8818 27.3224C23.3263 27.4415 23.7197 27.7044 23.9999 28.0695C24.2799 28.4345 24.4315 28.8819 24.4316 29.3419C24.4316 29.8942 24.8794 30.3418 25.4316 30.3419C25.9839 30.3419 26.4316 29.8942 26.4316 29.3419C26.4315 28.4416 26.1349 27.5661 25.5868 26.8517C25.0386 26.1373 24.2692 25.6238 23.3993 25.3908Z" fill="white"/>
<path fill-rule="evenodd" clip-rule="evenodd" d="M18.0048 5.68765C25.6146 4.83741 31.119 10.4045 31.1191 17.1027C31.1191 17.2774 31.1131 17.4516 31.1044 17.6252C29.726 16.9087 28.1608 16.5011 26.4999 16.5011C25.3982 16.5011 24.3388 16.6818 23.3476 17.0109C23.8808 16.4552 24.2108 15.7044 24.2109 14.8752C24.2108 13.1657 22.8192 11.7794 21.1025 11.7794C19.3859 11.7797 17.9942 13.1659 17.9941 14.8752C17.9942 16.5844 19.386 17.9706 21.1025 17.9709C21.1654 17.9709 21.228 17.9677 21.29 17.964C18.4172 19.7209 16.5 22.8872 16.4999 26.5011C16.4999 27.8639 16.7738 29.1629 17.2675 30.3468C17.177 30.3489 17.0864 30.3517 16.996 30.3517C10.071 30.3516 4.48618 26.4782 4.88958 18.1212C5.15541 12.6245 10.7861 6.49451 18.0048 5.68765ZM9.497 22.0978C9.23023 22.0981 9.01369 22.3136 9.0136 22.5793C9.0139 22.8448 9.23036 23.0604 9.497 23.0607C9.76388 23.0607 9.98011 22.8449 9.9804 22.5793C9.98032 22.3134 9.76401 22.0978 9.497 22.0978ZM15.0234 19.3459C14.7567 19.3461 14.5402 19.5618 14.54 19.8273C14.5401 20.0929 14.7566 20.3085 15.0234 20.3087C15.2903 20.3087 15.5066 20.0931 15.5068 19.8273C15.5065 19.5616 15.2903 19.3459 15.0234 19.3459ZM9.35931 16.5949C9.16874 16.595 9.01374 16.7489 9.0136 16.9386C9.01375 17.1284 9.16874 17.2823 9.35931 17.2824C9.5499 17.2823 9.70486 17.1284 9.70501 16.9386C9.70487 16.7489 9.5499 16.595 9.35931 16.5949ZM25.7997 15.2189C25.6856 15.2193 25.5928 15.3123 25.5927 15.4259C25.5931 15.5394 25.6858 15.6316 25.7997 15.632C25.914 15.632 26.0074 15.5396 26.0077 15.4259C26.0077 15.312 25.9141 15.2189 25.7997 15.2189ZM13.5038 13.8439C13.3133 13.8441 13.1582 13.9979 13.1581 14.1877C13.1584 14.3773 13.3134 14.5312 13.5038 14.5314C13.6944 14.5314 13.8492 14.3773 13.8495 14.1877C13.8495 13.9978 13.6945 13.8439 13.5038 13.8439ZM14.747 11.0919C14.633 11.0923 14.5402 11.1844 14.54 11.298C14.5401 11.4117 14.6329 11.5047 14.747 11.505C14.8614 11.505 14.9549 11.4118 14.955 11.298C14.9548 11.1842 14.8613 11.0919 14.747 11.0919ZM21.7939 9.71597C21.6033 9.71609 21.4483 9.8709 21.4482 10.0607C21.4485 10.2503 21.6034 10.4043 21.7939 10.4044C21.9843 10.4043 22.1383 10.2503 22.1386 10.0607C22.1385 9.87094 21.9844 9.71615 21.7939 9.71597ZM17.5107 8.34097C17.3964 8.34109 17.3037 8.43321 17.3036 8.54703C17.3038 8.66076 17.3964 8.75296 17.5107 8.75308C17.625 8.75303 17.7175 8.6608 17.7177 8.54703C17.7176 8.43317 17.625 8.34103 17.5107 8.34097Z" fill="white"/>
</svg>
