<svg width="36" height="36" viewBox="0 0 36 36" fill="none" xmlns="http://www.w3.org/2000/svg">
<path fill-rule="evenodd" clip-rule="evenodd" d="M1.5 15.7C1.5 14.2299 1.5 13.4948 1.78611 12.9333C2.03778 12.4393 2.43935 12.0378 2.93327 11.7861C3.49479 11.5 4.22986 11.5 5.7 11.5H30.3C31.7701 11.5 32.5052 11.5 33.0667 11.7861C33.5606 12.0378 33.9622 12.4393 34.2139 12.9333C34.5 13.4948 34.5 14.2299 34.5 15.7V17.8C34.5 19.2701 34.5 20.0052 34.2139 20.5667C33.9622 21.0607 33.5606 21.4622 33.0667 21.7139C32.5052 22 31.7701 22 30.3 22H5.7C4.22986 22 3.49479 22 2.93327 21.7139C2.43935 21.4622 2.03778 21.0607 1.78611 20.5667C1.5 20.0052 1.5 19.2701 1.5 17.8V15.7ZM20.625 16.75C20.625 18.1997 19.4497 19.375 18 19.375C16.5503 19.375 15.375 18.1997 15.375 16.75C15.375 15.3003 16.5503 14.125 18 14.125C19.4497 14.125 20.625 15.3003 20.625 16.75ZM6.75 13.75H4.5V19.75H6.75V13.75ZM31.5 13.75V19.75H29.25V13.75H31.5Z" fill="white"/>
<path d="M9 23.625C8.44772 23.625 8 24.0727 8 24.625C8 25.1773 8.44772 25.625 9 25.625H27C27.5523 25.625 28 25.1773 28 24.625C28 24.0727 27.5523 23.625 27 23.625H9Z" fill="white"/>
</svg>
