<svg width="36" height="36" viewBox="0 0 36 36" fill="none" xmlns="http://www.w3.org/2000/svg">
<path d="M26.323 14.453C26.7632 14.8914 26.7646 15.6038 26.3261 16.0439L22.8594 19.5241C22.5689 19.8311 22.1265 19.9496 21.7212 19.8283C21.6305 19.8014 21.5425 19.7627 21.4596 19.7124L17.9966 17.7258C17.4576 17.4167 17.2714 16.7291 17.5805 16.1902C17.8897 15.6513 18.5772 15.465 19.1162 15.7742L21.8543 17.3449L24.732 14.4561C25.1705 14.0159 25.8828 14.0145 26.323 14.453Z" fill="white"/>
<path fill-rule="evenodd" clip-rule="evenodd" d="M7.10103 29.7521C3.61461 29.7521 1.62238 25.2483 4.11272 21.7492L13.8429 8.98116C14.2687 8.43081 14.7714 7.94483 15.3506 7.53749C16.5898 6.66588 18.0407 6.25182 19.5724 6.25001C23.2257 6.24562 27.3387 8.58639 30.1367 12.6577C34.1077 18.436 33.9262 25.5121 29.7312 28.4625C28.6515 29.2218 27.4113 29.6339 26.0969 29.7287C25.9091 29.7422 25.7199 29.7493 25.5293 29.7499L7.10103 29.7521ZM25.5214 27.5L25.5249 27.4999C26.6369 27.4954 27.6193 27.197 28.4366 26.6221C29.8079 25.6577 30.6866 23.9073 30.7468 21.5629C30.8068 19.2229 30.0259 16.4693 28.2822 13.9321C26.5383 11.3945 24.2644 9.70301 22.0913 8.95047C21.2066 8.64411 20.3657 8.49889 19.5875 8.49921C18.4546 8.49971 17.4545 8.80862 16.6451 9.37788C16.2556 9.65184 15.9151 9.97998 15.6226 10.358L15.6172 10.365L15.5859 10.4061C13.7714 12.814 13.7293 17.6004 16.7996 22.0679C19.2778 25.674 22.7454 27.491 25.4793 27.5L25.5214 27.5Z" fill="white"/>
</svg>
