<svg width="36" height="36" viewBox="0 0 36 36" fill="none" xmlns="http://www.w3.org/2000/svg">
<path fill-rule="evenodd" clip-rule="evenodd" d="M30 18.8704V19.5C30 24.1061 29.1332 26.4024 28.2056 27.9484C27.9801 28.3242 27.7561 28.6474 27.5574 28.9314L27.5194 28.9858C27.3331 29.252 27.1781 29.4734 27.0455 29.6945C26.7806 30.136 26.6256 30.542 26.625 31.1215V31.875C26.625 32.9105 25.7855 33.75 24.75 33.75H11.25C10.2145 33.75 9.375 32.9105 9.375 31.875V31.125C9.375 30.5436 9.21998 30.1369 8.95454 29.6945C8.82186 29.4733 8.667 29.2521 8.48065 28.9858L8.44256 28.9314C8.24395 28.6474 8.0199 28.3242 7.79438 27.9484C6.8668 26.4024 6 24.1061 6 19.5V13.5C6 8.35703 7.07971 5.59981 8.42853 4.13297C8.87959 3.64244 9.34659 3.31147 9.7869 3.08816C9.91372 2.60578 10.3528 2.25 10.875 2.25H19.6125C18.6008 3.21144 17.7901 4.38243 17.25 5.69343V4.5H15.7382C15.6991 4.59946 15.6571 4.71849 15.6136 4.8604C15.2592 6.01657 14.8707 8.45715 14.8707 13.5V19.5C14.8707 23.9784 15.0638 26.0031 15.2511 27.3159C15.2947 27.6215 15.3395 27.8963 15.3826 28.1605C15.479 28.7515 15.5668 29.2895 15.6128 30H17.25V13.3066C17.6264 14.2203 18.1343 15.066 18.75 15.8201V30H20.3872C20.4332 29.2895 20.521 28.7515 20.6174 28.1605C20.6605 27.8963 20.7053 27.6215 20.7489 27.3159C20.9362 26.0031 21.1293 23.9784 21.1293 19.5V17.9369C21.6036 18.2394 22.1051 18.5031 22.6293 18.7233V19.5C22.6293 24.0216 22.4345 26.1219 22.2339 27.5278C22.184 27.877 22.1356 28.1746 22.0909 28.4491C22.004 28.9829 21.9313 29.4298 21.89 30H23.1489C23.2713 29.1894 23.5181 28.5857 23.7728 27.9627C23.8773 27.7069 23.9833 27.4478 24.0824 27.1699C24.5301 25.9149 25.0086 23.9433 25.0086 19.5001V19.3895C25.4952 19.4623 25.9932 19.5 26.5 19.5C26.5029 19.5 26.5057 19.5 26.5086 19.5V20.3308L26.5029 20.3315C26.4467 24.3249 25.9845 26.3022 25.4952 27.6739C25.3589 28.0558 25.2315 28.3693 25.1174 28.6502C24.9197 29.1363 24.762 29.5244 24.6673 30H25.277C25.3906 29.6036 25.5602 29.2545 25.7592 28.9227C25.9203 28.6542 26.1048 28.3908 26.283 28.1362L26.3283 28.0716C26.5252 27.7901 26.723 27.5039 26.9194 27.1766C27.6793 25.9101 28.5 23.8939 28.5 19.5V19.3C29.0155 19.1953 29.5166 19.051 30 18.8704ZM10.875 4.5C10.732 4.5 10.5952 4.47331 10.4693 4.42463C10.1699 4.57623 9.84878 4.80452 9.53268 5.14828C8.55391 6.2127 7.5 8.51798 7.5 13.5V19.5C7.5 23.8939 8.3207 25.9101 9.08062 27.1766C9.27697 27.5039 9.4748 27.7901 9.6717 28.0716L9.71695 28.1362C9.89521 28.3908 10.0797 28.6542 10.2408 28.9227C10.4398 29.2545 10.6094 29.6036 10.723 30H11.3327C11.238 29.5244 11.0803 29.1363 10.8827 28.6502C10.7685 28.3693 10.6411 28.0558 10.5048 27.6739C9.98266 26.2101 9.49138 24.0568 9.49138 19.5V13.5C9.49138 8.71323 10.3427 6.02097 11.3599 4.5H10.875ZM12.2272 27.9627C12.4819 28.5857 12.7287 29.1894 12.8511 30H14.11C14.0687 29.4298 13.996 28.9829 13.9091 28.4491C13.8644 28.1746 13.816 27.877 13.7661 27.5278C13.5655 26.1219 13.3707 24.0216 13.3707 19.5V13.5C13.3707 8.51371 13.7435 5.89571 14.1557 4.5H13.3549C13.1775 4.63899 12.98 4.83102 12.7764 5.0968C11.9506 6.17447 10.9914 8.51219 10.9914 13.5V19.5C10.9914 23.9432 11.4699 25.9149 11.9176 27.1699C12.0168 27.4478 12.1227 27.7069 12.2272 27.9627Z" fill="white"/>
<path fill-rule="evenodd" clip-rule="evenodd" d="M35 9.5C35 14.1944 31.1944 18 26.5 18C21.8056 18 18 14.1944 18 9.5C18 4.80558 21.8056 1 26.5 1C31.1944 1 35 4.80558 35 9.5ZM26.5 3.47754C27.0523 3.47754 27.5 3.92525 27.5 4.47754V9.1139C27.5 9.66619 27.0523 10.1139 26.5 10.1139C25.9477 10.1139 25.5 9.66619 25.5 9.1139V4.47754C25.5 3.92525 25.9477 3.47754 26.5 3.47754ZM26.5 14.3184C27.1904 14.3184 27.75 13.7587 27.75 13.0684C27.75 12.378 27.1904 11.8184 26.5 11.8184C25.8096 11.8184 25.25 12.378 25.25 13.0684C25.25 13.7587 25.8096 14.3184 26.5 14.3184Z" fill="white"/>
</svg>
