<svg width="36" height="36" viewBox="0 0 36 36" fill="none" xmlns="http://www.w3.org/2000/svg">
<path d="M21 7.89844C21 9.55529 19.6569 10.8984 18 10.8984C16.3431 10.8984 15 9.55529 15 7.89844C15 6.24158 16.3431 4.89844 18 4.89844C19.6569 4.89844 21 6.24158 21 7.89844Z" fill="white"/>
<path d="M18 12.398C20.4853 12.398 22.5 10.3833 22.5 7.89805C22.5 7.64251 22.4787 7.39195 22.4378 7.14805H30.375C31.8247 7.14805 33 8.3233 33 9.77305V24.023C33 25.4728 31.8247 26.648 30.375 26.648H5.625C4.17525 26.648 3 25.4728 3 24.023V9.77305C3 8.3233 4.17525 7.14805 5.625 7.14805H13.5622C13.5213 7.39195 13.5 7.64251 13.5 7.89805C13.5 10.3833 15.5147 12.398 18 12.398Z" fill="white"/>
<path d="M17.9999 31.148C15.1865 31.148 12.6411 30.0005 10.8062 28.148H25.1937C23.3587 30.0005 20.8133 31.148 17.9999 31.148Z" fill="white"/>
</svg>
