<svg width="36" height="36" viewBox="0 0 36 36" fill="none" xmlns="http://www.w3.org/2000/svg">
<path d="M24.125 3.375C24.125 3.16789 24.2929 3 24.5 3H27.5C27.7071 3 27.875 3.16789 27.875 3.375V6C27.875 6.55521 27.5734 7.03997 27.125 7.29933V16.5037C28.1588 16.5153 28.7881 16.563 29.3165 16.7601C30.4376 17.1782 31.3218 18.0624 31.7399 19.1835C32 19.8808 32 20.7538 32 22.5V27C32 28.7462 32 29.6192 31.7399 30.3165C31.3218 31.4376 30.4376 32.3218 29.3165 32.7399C28.6192 33 27.7462 33 26 33C24.2538 33 23.3808 33 22.6835 32.7399C21.5624 32.3218 20.6782 31.4376 20.2601 30.3165C20 29.6192 20 28.7462 20 27V22.5C20 20.7538 20 19.8808 20.2601 19.1835C20.6782 18.0624 21.5624 17.1782 22.6835 16.7601C23.2119 16.563 23.8412 16.5153 24.875 16.5037V7.29933C24.4266 7.03997 24.125 6.55521 24.125 6V3.375Z" fill="white"/>
<path fill-rule="evenodd" clip-rule="evenodd" d="M8 4.5C6.34315 4.5 5 5.84315 5 7.5V30C5 31.6569 6.34315 33 8 33H14C15.6569 33 17 31.6569 17 30V7.5C17 5.84315 15.6569 4.5 14 4.5H8ZM11 15C12.2426 15 13.25 13.9926 13.25 12.75C13.25 11.5074 12.2426 10.5 11 10.5C9.75736 10.5 8.75 11.5074 8.75 12.75C8.75 13.9926 9.75736 15 11 15ZM12.125 17.625C12.125 18.2463 11.6213 18.75 11 18.75C10.3787 18.75 9.875 18.2463 9.875 17.625C9.875 17.0037 10.3787 16.5 11 16.5C11.6213 16.5 12.125 17.0037 12.125 17.625Z" fill="white"/>
</svg>
