<svg width="36" height="36" viewBox="0 0 36 36" fill="none" xmlns="http://www.w3.org/2000/svg">
<path fill-rule="evenodd" clip-rule="evenodd" d="M20.9348 7.27344H30.375C31.7557 7.27344 32.875 8.39273 32.875 9.77344V24.006C32.875 25.3867 31.7557 26.506 30.375 26.506H26.3139C26.2762 26.5743 26.2348 26.6469 26.1895 26.7231C25.9012 27.2077 25.4497 27.8468 24.7877 28.4848C23.4468 29.777 21.282 31.0234 18 31.0234C14.718 31.0234 12.5532 29.777 11.2123 28.4848C10.5503 27.8468 10.0988 27.2077 9.81051 26.7231C9.76517 26.6469 9.72376 26.5743 9.6861 26.506H5.625C4.24429 26.506 3.125 25.3867 3.125 24.006V9.77344C3.125 8.39273 4.24429 7.27344 5.625 7.27344H15.0652C15.3527 5.91657 16.5575 4.89844 18 4.89844C19.4425 4.89844 20.6473 5.91657 20.9348 7.27344ZM18 10.8984C19.1613 10.8984 20.1684 10.2386 20.667 9.27344H30.375C30.6511 9.27344 30.875 9.4973 30.875 9.77344V24.006C30.875 24.2821 30.6511 24.506 30.375 24.506H5.625C5.34886 24.506 5.125 24.2821 5.125 24.006V9.77344C5.125 9.4973 5.34886 9.27344 5.625 9.27344H15.333C15.8316 10.2386 16.8387 10.8984 18 10.8984ZM12.6002 27.0447C12.4115 26.8628 12.2453 26.6811 12.0999 26.506H23.9001C23.7547 26.6811 23.5885 26.8628 23.3998 27.0447C22.3969 28.0112 20.718 29.0234 18 29.0234C15.282 29.0234 13.6031 28.0112 12.6002 27.0447Z" fill="white"/>
</svg>
