<svg width="36" height="36" viewBox="0 0 36 36" fill="none" xmlns="http://www.w3.org/2000/svg">
<path d="M11.25 15.4463C11.5607 15.4463 11.8125 15.6981 11.8125 16.0088V20.4834C11.8123 20.7939 11.5605 21.0459 11.25 21.0459C10.9395 21.0459 10.6877 20.7939 10.6875 20.4834V16.0088C10.6875 15.6981 10.9393 15.4463 11.25 15.4463Z" fill="white"/>
<path fill-rule="evenodd" clip-rule="evenodd" d="M15.375 15.4463C15.8928 15.4463 16.3125 15.866 16.3125 16.3838V20.1084C16.3123 20.626 15.8927 21.0459 15.375 21.0459H13.5C12.9823 21.0459 12.5627 20.626 12.5625 20.1084V16.3838C12.5625 15.866 12.9822 15.4463 13.5 15.4463H15.375ZM13.6875 19.9209H15.1875V18.8086H13.6875V19.9209ZM13.6875 17.6836H15.1875V16.5713H13.6875V17.6836Z" fill="white"/>
<path d="M22.875 15.4463C23.1857 15.4463 23.4375 15.6981 23.4375 16.0088V20.4834C23.4373 20.7939 23.1855 21.0459 22.875 21.0459C22.5645 21.0459 22.3127 20.7939 22.3125 20.4834V18.8086H20.625C20.1073 18.8086 19.6877 18.3887 19.6875 17.8711V16.0088C19.6875 15.6981 19.9393 15.4463 20.25 15.4463C20.5607 15.4463 20.8125 15.6981 20.8125 16.0088V17.6836H22.3125V16.0088C22.3125 15.6981 22.5643 15.4463 22.875 15.4463Z" fill="white"/>
<path d="M24.75 15.4463C25.0607 15.4463 25.3125 15.6981 25.3125 16.0088V20.4834C25.3123 20.7939 25.0605 21.0459 24.75 21.0459C24.4395 21.0459 24.1877 20.7939 24.1875 20.4834V16.0088C24.1875 15.6981 24.4393 15.4463 24.75 15.4463Z" fill="white"/>
<path d="M18 18.6191C18.4142 18.6191 18.75 18.9533 18.75 19.3652C18.7496 19.7769 18.414 20.1104 18 20.1104C17.586 20.1104 17.2504 19.7769 17.25 19.3652C17.25 18.9533 17.5858 18.6191 18 18.6191Z" fill="white"/>
<path d="M18 16.3818C18.4142 16.3818 18.75 16.716 18.75 17.1279C18.7497 17.5397 18.4141 17.874 18 17.874C17.5859 17.874 17.2503 17.5397 17.25 17.1279C17.25 16.716 17.5858 16.3818 18 16.3818Z" fill="white"/>
<path fill-rule="evenodd" clip-rule="evenodd" d="M31.8809 6.5C32.4988 6.5 33 7.00118 33 7.61914C32.9999 8.10906 32.6846 8.52437 32.2461 8.67578C32.3378 8.95885 32.3633 9.24018 32.3662 9.50586C32.3696 9.82434 32.3401 10.2095 32.3086 10.6396L31.2412 25.2354C31.1994 25.8073 31.1644 26.2946 31.1035 26.6924C31.0407 27.1023 30.9406 27.4975 30.7256 27.8711C30.3994 28.4378 29.9092 28.8927 29.3203 29.1768C28.932 29.364 28.5307 29.436 28.1172 29.4688C27.7159 29.5005 27.2271 29.499 26.6533 29.499H9.34668C8.77292 29.499 8.28411 29.5005 7.88281 29.4688C7.4693 29.436 7.06802 29.364 6.67969 29.1768C6.09076 28.8927 5.60063 28.4378 5.27441 27.8711C5.05943 27.4975 4.95927 27.1023 4.89648 26.6924C4.83557 26.2946 4.80062 25.8073 4.75879 25.2354L3.69141 10.6396C3.65994 10.2095 3.63035 9.82434 3.63379 9.50586C3.63668 9.24027 3.66135 8.95875 3.75293 8.67578C3.3149 8.52412 3.00009 8.10874 3 7.61914C3 7.00118 3.50118 6.5 4.11914 6.5H31.8809ZM7.08203 8.99121C6.6167 8.99121 6.32944 8.9918 6.11523 9.00977C6.01514 9.01818 5.95369 9.02912 5.91699 9.03809C5.89992 9.04227 5.88926 9.04582 5.88379 9.04785C5.88158 9.04868 5.87891 9.0498 5.87891 9.0498L5.87695 9.05078C5.77969 9.10307 5.70235 9.18633 5.65723 9.28711L5.65625 9.28906C5.65625 9.28906 5.65585 9.29186 5.65527 9.29395C5.65365 9.2995 5.6504 9.31082 5.64746 9.32812C5.6412 9.36533 5.63489 9.42703 5.63379 9.52734C5.63146 9.74227 5.6516 10.029 5.68555 10.4932L6.75293 25.0889C6.79666 25.6868 6.82666 26.0804 6.87207 26.3809H29.1279C29.1733 26.0804 29.2033 25.6868 29.2471 25.0889L30.3145 10.4932C30.3484 10.029 30.3685 9.74227 30.3662 9.52734C30.3651 9.42703 30.3588 9.36533 30.3525 9.32812C30.3496 9.31082 30.3463 9.2995 30.3447 9.29395C30.3441 9.29186 30.3438 9.28906 30.3438 9.28906L30.3428 9.28711C30.2977 9.18633 30.2203 9.10307 30.123 9.05078L30.1211 9.0498C30.1211 9.0498 30.1184 9.04868 30.1162 9.04785C30.1107 9.04582 30.1001 9.04227 30.083 9.03809C30.0463 9.02912 29.9849 9.01818 29.8848 9.00977C29.6706 8.9918 29.3833 8.99121 28.918 8.99121H7.08203Z" fill="white"/>
</svg>
