<svg width="36" height="36" viewBox="0 0 36 36" fill="none" xmlns="http://www.w3.org/2000/svg">
<path fill-rule="evenodd" clip-rule="evenodd" d="M26.5 18C31.1944 18 35 21.8056 35 26.5C35 31.1944 31.1944 35 26.5 35C21.8056 35 18 31.1944 18 26.5C18 21.8056 21.8056 18 26.5 18ZM27.1914 22.1885C26.9539 21.3635 26.1032 20.9982 25.4424 21.4375C25.278 21.5468 25.0535 21.8342 24.6045 22.4082L23.7842 23.4561C23.4444 23.8905 22.9568 24.1395 22.4443 24.1396C21.785 24.1396 21.25 24.7455 21.25 25.4922V27.5078C21.25 28.2545 21.785 28.8604 22.4443 28.8604C22.9568 28.8605 23.4444 29.1095 23.7842 29.5439L24.6045 30.5918C25.0535 31.1658 25.278 31.4532 25.4424 31.5625C26.1032 32.0018 26.9539 31.6365 27.1914 30.8115C27.2504 30.6062 27.25 30.2227 27.25 29.4561V23.5439C27.25 22.7773 27.2504 22.3938 27.1914 22.1885ZM30.7764 22.8643C30.4255 22.5737 29.9049 22.6228 29.6143 22.9736C29.3237 23.3245 29.3728 23.8451 29.7236 24.1357C30.1173 24.4619 30.4197 24.8404 30.6221 25.2451C30.8241 25.6492 30.9248 26.0752 30.9248 26.5L30.9199 26.6592C30.8979 27.0308 30.7989 27.4013 30.6221 27.7549C30.4197 28.1596 30.1173 28.5381 29.7236 28.8643C29.3728 29.1549 29.3237 29.6755 29.6143 30.0264C29.9049 30.3772 30.4255 30.4263 30.7764 30.1357C31.3337 29.6741 31.7854 29.1168 32.0977 28.4922C32.4103 27.8668 32.5752 27.1895 32.5752 26.5C32.5752 25.8105 32.4103 25.1332 32.0977 24.5078C31.7854 23.8832 31.3337 23.3259 30.7764 22.8643Z" fill="white"/>
<path d="M31.8809 6.5C32.4988 6.5 33 7.00118 33 7.61914C32.9999 8.10906 32.6846 8.52437 32.2461 8.67578C32.3378 8.95885 32.3633 9.24018 32.3662 9.50586C32.3696 9.82434 32.3401 10.2095 32.3086 10.6396L31.7695 18.001C31.1641 17.6248 30.5157 17.3116 29.833 17.0703L30.3145 10.4932C30.3484 10.029 30.3685 9.74227 30.3662 9.52734C30.3651 9.42703 30.3588 9.36533 30.3525 9.32812C30.3496 9.31082 30.3463 9.2995 30.3447 9.29395C30.3441 9.29186 30.3438 9.28906 30.3438 9.28906L30.3428 9.28711C30.2977 9.18633 30.2203 9.10307 30.123 9.05078L30.1211 9.0498C30.1211 9.0498 30.1184 9.04868 30.1162 9.04785C30.1107 9.04582 30.1001 9.04227 30.083 9.03809C30.0463 9.02912 29.9849 9.01818 29.8848 9.00977C29.6706 8.9918 29.3833 8.99121 28.918 8.99121H7.08203C6.6167 8.99121 6.32944 8.9918 6.11523 9.00977C6.01514 9.01818 5.95369 9.02912 5.91699 9.03809C5.89992 9.04227 5.88926 9.04582 5.88379 9.04785C5.88158 9.04868 5.87891 9.0498 5.87891 9.0498L5.87695 9.05078C5.77969 9.10307 5.70235 9.18633 5.65723 9.28711L5.65625 9.28906C5.65625 9.28906 5.65585 9.29186 5.65527 9.29395C5.65365 9.2995 5.6504 9.31082 5.64746 9.32812C5.6412 9.36533 5.63489 9.42703 5.63379 9.52734C5.63146 9.74227 5.6516 10.029 5.68555 10.4932L6.75293 25.0889C6.79666 25.6868 6.82666 26.0804 6.87207 26.3809H16.5029C16.5025 26.4205 16.5 26.4602 16.5 26.5C16.5 27.5449 16.6607 28.5522 16.958 29.499H9.34668C8.77292 29.499 8.28411 29.5005 7.88281 29.4688C7.4693 29.436 7.06802 29.364 6.67969 29.1768C6.09076 28.8927 5.60063 28.4378 5.27441 27.8711C5.05943 27.4975 4.95927 27.1023 4.89648 26.6924C4.83557 26.2946 4.80062 25.8073 4.75879 25.2354L3.69141 10.6396C3.65994 10.2095 3.63035 9.82434 3.63379 9.50586C3.63668 9.24027 3.66135 8.95875 3.75293 8.67578C3.3149 8.52412 3.00009 8.10874 3 7.61914C3 7.00118 3.50118 6.5 4.11914 6.5H31.8809Z" fill="white"/>
<path d="M11.25 15.4463C11.5607 15.4463 11.8125 15.6981 11.8125 16.0088V20.4834C11.8123 20.7939 11.5605 21.0459 11.25 21.0459C10.9395 21.0459 10.6877 20.7939 10.6875 20.4834V16.0088C10.6875 15.6981 10.9393 15.4463 11.25 15.4463Z" fill="white"/>
<path fill-rule="evenodd" clip-rule="evenodd" d="M15.375 15.4463C15.8928 15.4463 16.3125 15.866 16.3125 16.3838V20.1084C16.3123 20.626 15.8927 21.0459 15.375 21.0459H13.5C12.9823 21.0459 12.5627 20.626 12.5625 20.1084V16.3838C12.5625 15.866 12.9822 15.4463 13.5 15.4463H15.375ZM13.6875 19.9209H15.1875V18.8086H13.6875V19.9209ZM13.6875 17.6836H15.1875V16.5713H13.6875V17.6836Z" fill="white"/>
<path d="M18 18.6191C18.4142 18.6191 18.75 18.9533 18.75 19.3652C18.7496 19.7769 18.414 20.1104 18 20.1104C17.586 20.1104 17.2504 19.7769 17.25 19.3652C17.25 18.9533 17.5858 18.6191 18 18.6191Z" fill="white"/>
<path d="M20.25 15.4463C20.5607 15.4463 20.8125 15.6981 20.8125 16.0088V17.6836H21.7793C21.2271 17.9799 20.7057 18.3259 20.2217 18.7168C19.906 18.5659 19.6876 18.2442 19.6875 17.8711V16.0088C19.6875 15.6981 19.9393 15.4463 20.25 15.4463Z" fill="white"/>
<path d="M18 16.3818C18.4142 16.3818 18.75 16.716 18.75 17.1279C18.7497 17.5397 18.4141 17.874 18 17.874C17.5859 17.874 17.2503 17.5397 17.25 17.1279C17.25 16.716 17.5858 16.3818 18 16.3818Z" fill="white"/>
<path d="M22.875 15.4463C23.1857 15.4463 23.4375 15.6981 23.4375 16.0088V16.9785C23.0515 17.1026 22.6765 17.2508 22.3125 17.4189V16.0088C22.3125 15.6981 22.5643 15.4463 22.875 15.4463Z" fill="white"/>
<path d="M24.75 15.4463C25.0607 15.4463 25.3125 15.6981 25.3125 16.0088V16.5723C24.9304 16.6175 24.5552 16.6844 24.1875 16.7715V16.0088C24.1875 15.6981 24.4393 15.4463 24.75 15.4463Z" fill="white"/>
</svg>
