<svg width="36" height="36" viewBox="0 0 36 36" fill="none" xmlns="http://www.w3.org/2000/svg">
<path d="M15.1875 19.8418H13.6875V18.7422H15.1875V19.8418Z" fill="white"/>
<path d="M15.1875 17.6172H13.6875V16.5176H15.1875V17.6172Z" fill="white"/>
<path fill-rule="evenodd" clip-rule="evenodd" d="M31.8877 6.5C32.502 6.50002 33 6.998 33 7.6123C33 8.05741 32.738 8.44036 32.3604 8.61816C32.4605 8.92235 32.4874 9.22245 32.4902 9.49805C32.4936 9.82296 32.4641 10.2137 32.4326 10.6416L31.3672 25.123C31.3253 25.6929 31.2895 26.1862 31.2275 26.5898C31.1634 27.0069 31.0597 27.4185 30.834 27.8105C30.4951 28.3987 29.9864 28.8712 29.375 29.166C28.9672 29.3626 28.5489 29.4364 28.1279 29.4697C27.7207 29.5019 27.2268 29.501 26.6553 29.501H9.34473C8.77323 29.501 8.27927 29.5019 7.87207 29.4697C7.45112 29.4364 7.0328 29.3626 6.625 29.166C6.01359 28.8712 5.50488 28.3987 5.16602 27.8105C4.94027 27.4185 4.83656 27.0069 4.77246 26.5898C4.71046 26.1862 4.67473 25.6929 4.63281 25.123L3.56738 10.6416C3.53591 10.2137 3.50643 9.82296 3.50977 9.49805C3.51264 9.22254 3.53858 8.92225 3.63867 8.61816C3.26141 8.44019 3 8.05709 3 7.6123C3.00002 6.998 3.498 6.50002 4.1123 6.5H31.8877ZM11.25 15.3926C10.9394 15.3926 10.6876 15.6445 10.6875 15.9551V20.4043C10.6877 20.7147 10.9395 20.9668 11.25 20.9668C11.5605 20.9668 11.8123 20.7147 11.8125 20.4043V15.9551C11.8124 15.6445 11.5606 15.3926 11.25 15.3926ZM13.5 15.3926C12.9823 15.3926 12.5626 15.8124 12.5625 16.3301V20.0293C12.5627 20.5469 12.9824 20.9668 13.5 20.9668H15.375C15.8926 20.9668 16.3123 20.5469 16.3125 20.0293V16.3301C16.3124 15.8124 15.8927 15.3926 15.375 15.3926H13.5ZM22.875 15.3926C22.5644 15.3926 22.3126 15.6445 22.3125 15.9551V17.6172H20.8125V15.9551C20.8124 15.6445 20.5606 15.3926 20.25 15.3926C19.9394 15.3926 19.6876 15.6445 19.6875 15.9551V17.8047C19.6877 18.3222 20.1074 18.7422 20.625 18.7422H22.3125V20.4043C22.3127 20.7147 22.5645 20.9668 22.875 20.9668C23.1855 20.9668 23.4373 20.7147 23.4375 20.4043V15.9551C23.4374 15.6445 23.1856 15.3926 22.875 15.3926ZM24.75 15.3926C24.4394 15.3926 24.1876 15.6445 24.1875 15.9551V20.4043C24.1877 20.7147 24.4395 20.9668 24.75 20.9668C25.0605 20.9668 25.3123 20.7147 25.3125 20.4043V15.9551C25.3124 15.6445 25.0606 15.3926 24.75 15.3926ZM18 18.5498C17.5859 18.5498 17.2503 18.8824 17.25 19.292C17.2501 19.7017 17.5859 20.0342 18 20.0342C18.4141 20.0342 18.7499 19.7017 18.75 19.292C18.7497 18.8824 18.4141 18.5498 18 18.5498ZM18 16.3252C17.5859 16.3252 17.2503 16.6578 17.25 17.0674C17.2501 17.477 17.5859 17.8086 18 17.8086C18.4141 17.8086 18.7499 17.477 18.75 17.0674C18.7497 16.6578 18.4141 16.3252 18 16.3252Z" fill="white"/>
</svg>
