<svg width="36" height="36" viewBox="0 0 36 36" fill="none" xmlns="http://www.w3.org/2000/svg">
<path fill-rule="evenodd" clip-rule="evenodd" d="M3.93852 4.74221L3.91178 4.7324C3.75967 4.67658 3.59368 4.61566 3.45221 4.57505C3.33499 4.5414 3.02025 4.45147 2.66393 4.53367C2.27723 4.62288 1.95857 4.84648 1.74233 5.18031C1.54705 5.4818 1.52037 5.79839 1.51077 5.92636C1.49992 6.07085 1.49997 6.24297 1.50001 6.39593L1.50001 23.3621C1.49995 23.4911 1.49988 23.6489 1.5111 23.7851C1.52258 23.9245 1.55479 24.2096 1.73239 24.4913C1.93781 24.8172 2.25035 25.0461 2.62218 25.1433C2.9476 25.2282 3.23244 25.1693 3.36522 25.1382C3.49879 25.107 3.6505 25.0582 3.77693 25.0176L3.80243 25.0094C4.4646 24.797 5.54967 24.4836 7.02355 24.1717C6.92583 23.5769 6.875 22.9662 6.875 22.3437C6.875 16.1835 11.8526 11.1837 18 11.1837C24.1474 11.1837 29.125 16.1835 29.125 22.3437C29.125 22.9662 29.0742 23.5769 28.9764 24.1717C30.4503 24.4836 31.5354 24.797 32.1976 25.0094L32.223 25.0176C32.3495 25.0582 32.5012 25.107 32.6348 25.1382C32.7676 25.1693 33.0524 25.2282 33.3778 25.1433C33.7497 25.0461 34.0622 24.8171 34.2676 24.4913C34.4452 24.2096 34.4775 23.9245 34.4889 23.7851C34.5002 23.6489 34.5001 23.4911 34.5 23.3621V6.39593C34.5001 6.24299 34.5001 6.07082 34.4893 5.92636C34.4797 5.79839 34.453 5.4818 34.2577 5.18031C34.0415 4.84648 33.7228 4.62288 33.3361 4.53368C32.9798 4.45147 32.665 4.5414 32.5478 4.57505C32.4064 4.61566 32.2404 4.67657 32.0883 4.73239L32.0615 4.74221C30.4407 5.3366 26.1549 6.53887 18 6.53887C9.84516 6.53887 5.55933 5.3366 3.93852 4.74221ZM8.875 22.3437C8.875 17.2815 12.9637 13.1837 18 13.1837C23.0363 13.1837 27.125 17.2815 27.125 22.3437C27.125 27.4059 23.0363 31.5038 18 31.5038C12.9637 31.5038 8.875 27.4059 8.875 22.3437Z" fill="white"/>
</svg>
