<svg width="36" height="36" viewBox="0 0 36 36" fill="none" xmlns="http://www.w3.org/2000/svg">
<path fill-rule="evenodd" clip-rule="evenodd" d="M32.8062 20.3748C33.3633 16.9442 32.6969 13.4301 30.9227 10.432C29.1487 7.43415 26.3779 5.1392 23.0853 3.93449C19.7929 2.72987 16.1797 2.68869 12.8601 3.81783C9.54034 4.94705 6.71672 7.17805 4.87302 10.1344C4.54423 10.6616 4.70508 11.3555 5.23228 11.6843C5.75948 12.0131 6.45339 11.8522 6.78218 11.325C8.34868 8.81317 10.7518 6.91159 13.5847 5.94798C16.4178 4.98429 19.5025 5.0195 22.3122 6.0475C25.1216 7.07541 27.4793 9.03115 28.9863 11.5779C30.4932 14.1242 31.0576 17.1054 30.5853 20.0141C30.113 22.923 28.6324 25.5834 26.3919 27.5405C24.1512 29.4978 21.2893 30.6301 18.2935 30.741C15.2977 30.852 12.3573 29.9346 9.97334 28.148C7.58973 26.3616 5.91075 23.8176 5.21856 20.9514C5.08478 20.3975 4.55791 20.031 3.99202 20.0984C3.42613 20.1658 3 20.6456 3 21.2155V29.2501C3 29.8714 3.50368 30.3751 4.125 30.3751C4.74632 30.3751 5.25 29.8714 5.25 29.2501L5.25 26.4403C6.1686 27.773 7.30515 28.96 8.62397 29.9484C11.4223 32.0456 14.869 33.1194 18.3768 32.9895C21.8846 32.8596 25.2405 31.5339 27.8721 29.235C30.5042 26.9359 32.2492 23.8052 32.8062 20.3748ZM17.8076 8.25C12.3496 8.25 7.92383 12.6158 7.92383 18C7.92383 23.3842 12.3496 27.75 17.8076 27.75C23.2656 27.75 27.6914 23.3842 27.6914 18C27.6914 12.6158 23.2656 8.25 17.8076 8.25ZM22.7898 14.9599C23.2261 15.4023 23.2212 16.1146 22.7789 16.5509L17.4569 21.8009C17.0188 22.233 16.3148 22.233 15.8768 21.8009L13.2158 19.1759C12.7734 18.7396 12.7686 18.0273 13.2049 17.5849C13.6413 17.1426 14.3535 17.1378 14.7959 17.5741L16.6668 19.4197L21.1988 14.9491C21.6411 14.5128 22.3534 14.5176 22.7898 14.9599Z" fill="white"/>
</svg>
