<svg width="36" height="36" viewBox="0 0 36 36" fill="none" xmlns="http://www.w3.org/2000/svg">
<path fill-rule="evenodd" clip-rule="evenodd" d="M3 29.281V21.241C3 21.091 3.02 20.941 3.08 20.811C3.13 20.681 3.21 20.551 3.33 20.441C3.43 20.341 3.56 20.251 3.69 20.201C3.82 20.141 3.97 20.121 4.12 20.121C4.25 20.121 4.37 20.141 4.49 20.181C4.61 20.221 4.72 20.281 4.82 20.361C4.92 20.441 5 20.531 5.07 20.631C5.14 20.741 5.18 20.851 5.21 20.981C5.57 22.461 6.13 23.801 6.91 25.001C7.7 26.201 8.69 27.261 9.91 28.181C11.12 29.101 12.4 29.771 13.77 30.201C15.13 30.641 16.58 30.821 18.1 30.771C19.62 30.711 21.04 30.411 22.37 29.881C23.7 29.351 24.93 28.581 26.07 27.571C27.21 26.561 28.12 25.431 28.81 24.181C29.5 22.921 29.97 21.541 30.21 20.041C30.45 18.541 30.44 17.091 30.17 15.681C29.91 14.271 29.4 12.911 28.63 11.601C27.86 10.281 26.93 9.171 25.83 8.251C24.74 7.321 23.48 6.601 22.05 6.071C20.63 5.541 19.2 5.271 17.76 5.251C16.33 5.241 14.9 5.481 13.46 5.971C12.02 6.471 10.75 7.161 9.63 8.061C8.51 8.951 7.55 10.051 6.76 11.341C6.43 11.881 5.75 12.041 5.21 11.711C4.67 11.381 4.51 10.701 4.84 10.171C5.78 8.641 6.91 7.351 8.22 6.301C9.53 5.251 11.04 4.431 12.73 3.841C14.42 3.261 16.11 2.981 17.79 3.001C19.48 3.021 21.16 3.341 22.83 3.961C24.51 4.581 26 5.441 27.28 6.521C28.57 7.601 29.67 8.921 30.57 10.461C31.47 12.011 32.08 13.611 32.39 15.261C32.7 16.921 32.71 18.631 32.43 20.401C32.15 22.161 31.6 23.791 30.79 25.261C29.98 26.741 28.9 28.071 27.56 29.261C26.22 30.441 24.77 31.351 23.21 31.971C21.64 32.601 19.97 32.951 18.18 33.011C16.39 33.081 14.7 32.861 13.09 32.351C11.48 31.851 9.97 31.051 8.54 29.971C7.23 28.971 6.13 27.831 5.25 26.551V29.281C5.25 29.901 4.75 30.401 4.12 30.401C3.49 30.401 3 29.901 3 29.281ZM17.81 6.771C11.59 6.771 6.56 11.811 6.56 18.021C6.56 24.241 11.59 29.271 17.81 29.271C24.02 29.271 29.06 24.241 29.06 18.021C29.06 11.811 24.02 6.771 17.81 6.771ZM16.76 22.731C16.89 22.681 17.01 22.601 17.12 22.491L23.79 15.821C24.24 15.371 24.24 14.671 23.79 14.231C23.34 13.781 22.65 13.781 22.2 14.231L16.33 20.101L13.79 17.561C13.34 17.121 12.65 17.121 12.2 17.561C11.75 18.011 11.75 18.711 12.2 19.151L15.53 22.491C15.64 22.601 15.76 22.681 15.9 22.731C16.03 22.791 16.17 22.821 16.33 22.821C16.48 22.821 16.63 22.791 16.76 22.731Z" fill="white"/>
</svg>
