<svg width="36" height="36" viewBox="0 0 36 36" fill="none" xmlns="http://www.w3.org/2000/svg">
<path fill-rule="evenodd" clip-rule="evenodd" d="M10.7671 7.4928C13.2725 5.77307 16.3103 5.00248 19.334 5.31989C22.3578 5.63729 25.1686 7.0218 27.2611 9.22402C29.3535 11.4262 30.5903 14.3016 30.7494 17.3328C30.782 17.9533 31.3113 18.4299 31.9318 18.3973C32.5523 18.3648 33.0289 17.8354 32.9963 17.2149C32.8091 13.6479 31.3537 10.2648 28.8922 7.67419C26.4307 5.0836 23.1247 3.45544 19.5689 3.08218C16.0132 2.70893 12.4406 3.61504 9.49378 5.63776C8.00553 6.65931 6.72617 7.93185 5.70508 9.38573V6.56528C5.70508 5.94396 5.2014 5.44028 4.58008 5.44028C3.95876 5.44028 3.45508 5.94396 3.45508 6.56528V14.4089C3.45508 14.9734 3.87341 15.4505 4.43306 15.5243C4.99271 15.598 5.52038 15.2456 5.66665 14.7004C6.45329 11.7684 8.26174 9.2125 10.7671 7.4928ZM5.25044 18.6676C5.21788 18.0471 4.6885 17.5706 4.06803 17.6031C3.44756 17.6357 2.97097 18.1651 3.00353 18.7855C3.19071 22.3526 4.64612 25.7356 7.10765 28.3262C9.56915 30.9168 12.8752 32.545 16.4309 32.9182C19.9867 33.2915 23.5592 32.3854 26.5061 30.3627C27.9943 29.3411 29.2737 28.0686 30.2948 26.6147V29.4352C30.2948 30.0565 30.7984 30.5602 31.4198 30.5602C32.0411 30.5602 32.5448 30.0565 32.5448 29.4352V21.5915C32.5448 21.027 32.1264 20.5499 31.5668 20.4762C31.0071 20.4024 30.4795 20.7548 30.3332 21.3C29.5465 24.2321 27.7381 26.7879 25.2327 28.5076C22.7273 30.2274 19.6896 30.9979 16.6658 30.6805C13.6421 30.3631 10.8312 28.9786 8.73876 26.7764C6.64631 24.5742 5.4095 21.6989 5.25044 18.6676Z" fill="white"/>
<path fill-rule="evenodd" clip-rule="evenodd" d="M18.0025 6.75C11.7822 6.75 6.73828 11.7875 6.73828 18C6.73828 24.2125 11.7822 29.25 18.0025 29.25C24.2229 29.25 29.2668 24.2125 29.2668 18C29.2668 11.7875 24.2229 6.75 18.0025 6.75ZM9.36719 15C9.36719 13.5503 10.5424 12.375 11.9922 12.375H15.7488C16.3702 12.375 16.8738 12.8787 16.8738 13.5C16.8738 14.1213 16.3702 14.625 15.7488 14.625H11.9922C11.7851 14.625 11.6172 14.7929 11.6172 15V16.875H14.2488C15.6986 16.875 16.8738 18.0503 16.8738 19.5V21C16.8738 22.4497 15.6986 23.625 14.2488 23.625H11.9922C10.5424 23.625 9.36719 22.4497 9.36719 21V15ZM11.6172 19.125V21C11.6172 21.2071 11.7851 21.375 11.9922 21.375H14.2488C14.456 21.375 14.6238 21.2071 14.6238 21V19.5C14.6238 19.2929 14.456 19.125 14.2488 19.125H11.6172ZM19.8809 12.375C19.2595 12.375 18.7559 12.8787 18.7559 13.5V18C18.7559 18.6213 19.2595 19.125 19.8809 19.125H23.6375C23.8446 19.125 24.0125 19.2929 24.0125 19.5V21C24.0125 21.2071 23.8446 21.375 23.6375 21.375H19.8809C19.2595 21.375 18.7559 21.8787 18.7559 22.5C18.7559 23.1213 19.2595 23.625 19.8809 23.625H23.6375C25.0873 23.625 26.2625 22.4497 26.2625 21V19.5C26.2625 18.0503 25.0873 16.875 23.6375 16.875H21.0059V14.625H25.1375C25.7588 14.625 26.2625 14.1213 26.2625 13.5C26.2625 12.8787 25.7588 12.375 25.1375 12.375H19.8809Z" fill="white"/>
</svg>
