<svg width="36" height="36" viewBox="0 0 36 36" fill="none" xmlns="http://www.w3.org/2000/svg">
<path fill-rule="evenodd" clip-rule="evenodd" d="M19.334 5.31989C16.3103 5.00248 13.2725 5.77307 10.7671 7.4928C8.26174 9.2125 6.45329 11.7684 5.66665 14.7004C5.52038 15.2456 4.99271 15.598 4.43306 15.5243C3.87341 15.4505 3.45508 14.9734 3.45508 14.4089V6.56528C3.45508 5.94396 3.95876 5.44028 4.58008 5.44028C5.2014 5.44028 5.70508 5.94396 5.70508 6.56528V9.38573C6.72617 7.93185 8.00553 6.65931 9.49378 5.63776C12.4406 3.61504 16.0132 2.70893 19.5689 3.08218C23.1247 3.45544 26.4307 5.0836 28.8922 7.67419C31.3537 10.2648 32.8091 13.6479 32.9963 17.2149C33.0289 17.8354 32.5523 18.3648 31.9318 18.3973C31.3113 18.4299 30.782 17.9533 30.7494 17.3328C30.5903 14.3016 29.3535 11.4262 27.2611 9.22402C25.1686 7.0218 22.3578 5.63729 19.334 5.31989ZM4.06803 17.6031C4.6885 17.5706 5.21788 18.0471 5.25044 18.6676C5.4095 21.6989 6.64631 24.5742 8.73876 26.7764C10.8312 28.9786 13.6421 30.3631 16.6658 30.6805C19.6896 30.9979 22.7273 30.2274 25.2327 28.5076C27.7381 26.7879 29.5465 24.2321 30.3332 21.3C30.4795 20.7548 31.0071 20.4024 31.5668 20.4762C32.1264 20.5499 32.5448 21.027 32.5448 21.5915V29.4352C32.5448 30.0565 32.0411 30.5602 31.4198 30.5602C30.7984 30.5602 30.2948 30.0565 30.2948 29.4352V26.6147C29.2737 28.0686 27.9943 29.3411 26.5061 30.3627C23.5592 32.3854 19.9867 33.2915 16.4309 32.9182C12.8752 32.545 9.56915 30.9168 7.10765 28.3262C4.64612 25.7356 3.19071 22.3526 3.00353 18.7855C2.97097 18.1651 3.44756 17.6357 4.06803 17.6031ZM19.0087 11.4964C18.8181 11.1155 18.4287 10.875 18.0028 10.875C17.5768 10.875 17.1874 11.1155 16.9968 11.4964L11.7401 21.9964C11.462 22.552 11.6869 23.2278 12.2425 23.506C12.7981 23.7841 13.4739 23.5592 13.7521 23.0036L15.3184 19.875H20.6871L22.2534 23.0036C22.5316 23.5592 23.2075 23.7841 23.763 23.506C24.3186 23.2278 24.5435 22.552 24.2654 21.9964L19.0087 11.4964ZM18.0028 14.513L19.5607 17.625H16.4448L18.0028 14.513Z" fill="white"/>
</svg>
