<svg width="36" height="36" viewBox="0 0 36 36" fill="none" xmlns="http://www.w3.org/2000/svg">
<path fill-rule="evenodd" clip-rule="evenodd" d="M9.8501 5.25C12.7496 5.25 15.1001 7.60051 15.1001 10.5C15.1001 11.1957 14.9631 11.8592 14.7173 12.4668L17.8911 15.6406L25.0005 8.5332C25.0086 8.52281 25.683 7.66527 28.0005 7.0332C30.3236 6.39972 31.492 7.02862 31.5005 7.0332L14.7954 23.7373C14.9918 24.2884 15.1001 24.8815 15.1001 25.5C15.1001 28.3995 12.7496 30.75 9.8501 30.75C6.9506 30.75 4.6001 28.3995 4.6001 25.5C4.6001 22.6005 6.9506 20.25 9.8501 20.25C10.8339 20.25 11.7545 20.5204 12.5415 20.9912L15.3911 18.1406L12.3608 15.1104C11.6149 15.5175 10.7598 15.75 9.8501 15.75C6.9506 15.75 4.6001 13.3995 4.6001 10.5C4.6001 7.60051 6.9506 5.25 9.8501 5.25ZM9.8501 22.25C8.05517 22.25 6.6001 23.7051 6.6001 25.5C6.6001 27.2949 8.05517 28.75 9.8501 28.75C11.645 28.75 13.1001 27.2949 13.1001 25.5C13.1001 23.7051 11.645 22.25 9.8501 22.25ZM17.7505 17.25C17.1982 17.25 16.7506 17.6978 16.7505 18.25C16.7505 18.6296 16.9623 18.9595 17.2739 19.1289C17.3022 19.1443 17.331 19.1592 17.3608 19.1719L17.4536 19.2051C17.516 19.2245 17.581 19.2383 17.6479 19.2451C17.6815 19.2485 17.716 19.25 17.7505 19.25C17.8883 19.25 18.0197 19.2223 18.1392 19.1719C18.1991 19.1466 18.2558 19.1151 18.3091 19.0791C18.4421 18.9892 18.5524 18.8683 18.6294 18.7266C18.6601 18.67 18.6861 18.6103 18.7056 18.5479C18.7348 18.4538 18.7505 18.3537 18.7505 18.25C18.7505 18.1463 18.7348 18.0462 18.7056 17.9521C18.5787 17.5455 18.1989 17.2502 17.7505 17.25ZM9.8501 7.25C8.05517 7.25 6.6001 8.70507 6.6001 10.5C6.6001 12.2949 8.05517 13.75 9.8501 13.75C11.645 13.75 13.1001 12.2949 13.1001 10.5C13.1001 8.70507 11.645 7.25 9.8501 7.25Z" fill="white"/>
<path d="M31.5005 29.25C31.5005 29.25 30.332 29.8858 28.0005 29.25C25.6882 28.6194 25.0116 27.7642 25.0005 27.75L19.2505 22L21.7505 19.5L31.5005 29.25Z" fill="white"/>
</svg>
