<svg width="36" height="36" viewBox="0 0 36 36" fill="none" xmlns="http://www.w3.org/2000/svg">
<path fill-rule="evenodd" clip-rule="evenodd" d="M3 4C3 3.44772 3.44772 3 4 3C5.18209 3 12.2378 3.28331 19.0158 4.41362C22.398 4.97763 25.7794 5.76317 28.3385 6.86099C29.616 7.40901 30.7504 8.06045 31.5794 8.84935C32.4191 9.64852 33 10.6462 33 11.84C33 13.1117 32.3025 14.0292 31.3197 14.632C30.383 15.2065 29.1315 15.5404 27.7744 15.7454C25.0463 16.1577 21.4554 16.1058 17.9733 16.013C17.5312 16.0012 17.0907 15.9887 16.6534 15.9764C13.5943 15.8899 10.6917 15.8079 8.45475 15.9868C7.16759 16.0898 6.20844 16.273 5.59852 16.5356C4.99998 16.7933 4.99999 16.9927 5 17.066C5 17.2216 5.07631 17.4914 5.6602 17.8523C6.24463 18.2136 7.15157 18.5398 8.3544 18.8233C10.7463 19.3871 13.9734 19.7093 17.2845 19.9902C17.8309 20.0366 18.3797 20.0818 18.9266 20.1269C21.6525 20.3516 24.3319 20.5725 26.4333 20.9093C27.6882 21.1104 28.8182 21.3643 29.6562 21.7198C30.0745 21.8973 30.4853 22.1267 30.8043 22.44C31.1397 22.7695 31.4 23.223 31.4 23.7867C31.4 24.9172 30.4492 25.5164 29.7194 25.8208C28.9147 26.1565 27.8382 26.3738 26.6544 26.5283C24.2798 26.8381 21.1409 26.9326 18.0729 27.0249L18.0301 27.0262C14.9117 27.1201 11.8688 27.2128 9.60437 27.5083C8.46322 27.6571 7.60223 27.8482 7.05066 28.0783C6.76942 28.1957 6.64987 28.2853 6.60351 28.3307C6.63597 28.6283 6.9064 29.0533 7.92663 29.5134C8.96029 29.9795 10.4254 30.3139 12.048 30.5432C15.2729 30.9988 18.8084 31 20 31C20.5523 31 21 31.4477 21 32C21 32.5523 20.5523 33 20 33H19.9914C18.7956 33 15.1406 33 11.7682 32.5235C10.0881 32.2861 8.39917 31.9205 7.10445 31.3366C5.87193 30.7808 4.6 29.8345 4.6 28.2667C4.6 27.1362 5.55085 26.537 6.28059 26.2325C7.08527 25.8968 8.16178 25.6795 9.34563 25.5251C11.7202 25.2153 14.8591 25.1208 17.9271 25.0284L17.9699 25.0271C21.0883 24.9332 24.1312 24.8405 26.3956 24.5451C27.5368 24.3962 28.3978 24.2051 28.9493 23.975C29.1258 23.9014 29.2386 23.8387 29.3096 23.791C29.2209 23.7283 29.0823 23.6489 28.8751 23.561C28.2693 23.304 27.3368 23.0796 26.1168 22.8841C24.0988 22.5607 21.5164 22.3476 18.7889 22.1225C18.2359 22.0769 17.6769 22.0307 17.1155 21.9831C13.8266 21.704 10.4537 21.3729 7.8956 20.77C6.62343 20.4702 5.46787 20.0847 4.60855 19.5535C3.74869 19.022 3 18.2177 3 17.0667C3 15.8326 3.87697 15.0992 4.80773 14.6986C5.72906 14.302 6.95741 14.1002 8.29526 13.9932C10.6496 13.8048 13.6767 13.8909 16.7154 13.9772C17.1529 13.9896 17.5906 14.0021 18.0267 14.0137C21.5446 14.1075 24.9537 14.149 27.4756 13.7679C28.7435 13.5763 29.6795 13.2918 30.274 12.9271C30.8225 12.5908 31 12.2483 31 11.84C31 11.3538 30.7768 10.8465 30.2006 10.2982C29.6136 9.73955 28.7202 9.20099 27.55 8.69901C25.2139 7.69683 22.0209 6.94237 18.6869 6.38638C12.0325 5.27669 5.08818 5 4 5C3.44772 5 3 4.55228 3 4ZM29.4226 23.6898C29.4234 23.6899 29.4213 23.6947 29.414 23.7037C29.4182 23.6941 29.4218 23.6896 29.4226 23.6898ZM6.57743 28.3636C6.57664 28.3634 6.57871 28.3586 6.58597 28.3497C6.58184 28.3592 6.57821 28.3637 6.57743 28.3636Z" fill="white"/>
</svg>
