<svg width="36" height="36" viewBox="0 0 36 36" fill="none" xmlns="http://www.w3.org/2000/svg">
<path fill-rule="evenodd" clip-rule="evenodd" d="M12.626 6.4403L18.414 16.4655L21.3729 14.7572C19.9315 11.7699 19.5685 8.50366 20.1565 5.43519C17.6695 5.00731 15.0455 5.3117 12.626 6.4403ZM22.3378 6.0117C21.8879 8.5242 22.1861 11.1811 23.3278 13.6285L28.4392 10.6774C26.8905 8.46502 24.7387 6.87825 22.3378 6.0117ZM29.5642 12.626L24.4528 15.5771C26.0015 17.7895 28.1533 19.3763 30.5542 20.2428C31.0042 17.7303 30.7059 15.0735 29.5642 12.626ZM29.9628 22.4202C27.0114 21.3951 24.3643 19.4477 22.4979 16.7058L19.539 18.414L25.3271 28.4392C27.5142 26.9082 29.0899 24.7879 29.9628 22.4202ZM23.3785 29.5642L17.5905 19.539L14.6316 21.2473C16.073 24.2347 16.436 27.5009 15.8481 30.5693C18.335 30.9972 20.9591 30.6928 23.3785 29.5642ZM13.6667 29.9928C14.1167 27.4803 13.8184 24.8235 12.6767 22.376L7.5653 25.3271C9.11403 27.5395 11.2658 29.1263 13.6667 29.9928ZM6.4403 23.3785L11.5517 20.4274C10.003 18.215 7.85123 16.6282 5.45035 15.7617C5.00036 18.2742 5.29865 20.9311 6.4403 23.3785ZM6.04176 13.5843C8.99309 14.6094 11.6402 16.5569 13.5066 19.2988L16.4655 17.5905L10.6774 7.5653C8.49031 9.09632 6.91468 11.2166 6.04176 13.5843ZM10.5023 5.01189C14.0601 2.95775 18.1121 2.52717 21.7946 3.48957C25.5369 4.46762 28.905 6.88629 30.9926 10.5023C33.0803 14.1182 33.491 18.2444 32.4668 21.9744C31.459 25.6447 29.0601 28.9385 25.5023 30.9926C21.9444 33.0468 17.8924 33.4774 14.21 32.515C10.4676 31.5369 7.09957 29.1182 5.01189 25.5023C2.9242 21.8863 2.51359 17.7602 3.53775 14.0301C4.54552 10.3598 6.94439 7.06603 10.5023 5.01189Z" fill="white"/>
</svg>
