<svg width="36" height="36" viewBox="0 0 36 36" fill="none" xmlns="http://www.w3.org/2000/svg">
<path d="M7 15.5C7 10.8056 10.8056 7 15.5 7C20.1944 7 24 10.8056 24 15.5C24 18.9604 21.9322 21.9378 18.9648 23.2641C19.1813 23.8975 19.3361 24.5596 19.4218 25.2431C20.4294 24.8371 21.3596 24.2794 22.184 23.5982L30.0429 31.4571C30.4334 31.8476 31.0666 31.8476 31.4571 31.4571C31.8476 31.0666 31.8476 30.4334 31.4571 30.0429L23.5982 22.184C25.0985 20.3682 26 18.0394 26 15.5C26 9.70101 21.299 5 15.5 5C9.70101 5 5 9.70101 5 15.5C5 16.1755 5.06378 16.836 5.18565 17.476C5.7916 17.1858 6.43133 16.9548 7.09734 16.7905C7.03324 16.3697 7 15.9387 7 15.5Z" fill="white"/>
<path fill-rule="evenodd" clip-rule="evenodd" d="M18 26.5C18 31.1944 14.1944 35 9.5 35C4.80558 35 1 31.1944 1 26.5C1 21.8056 4.80558 18 9.5 18C14.1944 18 18 21.8056 18 26.5ZM5.69143 22.6913C5.98433 22.3984 6.4592 22.3984 6.75209 22.6913L9.50017 25.4393L12.2482 22.6913C12.5411 22.3984 13.016 22.3984 13.3089 22.6913C13.6018 22.9842 13.6018 23.459 13.3089 23.7519L10.5608 26.5L13.3089 29.2481C13.6018 29.541 13.6018 30.0158 13.3089 30.3087C13.016 30.6016 12.5411 30.6016 12.2482 30.3087L9.50017 27.5607L6.75209 30.3087C6.4592 30.6016 5.98433 30.6016 5.69143 30.3087C5.39854 30.0158 5.39854 29.541 5.69143 29.2481L8.43951 26.5L5.69143 23.7519C5.39854 23.459 5.39854 22.9842 5.69143 22.6913Z" fill="white"/>
</svg>
