<svg width="36" height="36" viewBox="0 0 36 36" fill="none" xmlns="http://www.w3.org/2000/svg">
<path fill-rule="evenodd" clip-rule="evenodd" d="M7.76938 6C5.97445 6 4.51938 7.45508 4.51938 9.25V17.6437C4.51938 19.4387 5.97445 20.8937 7.76938 20.8937H16.9995V24.0991C16.9995 24.7895 16.4398 25.3491 15.7495 25.3491H5V23.6877C5 23.1354 4.55228 22.6877 4 22.6877C3.44772 22.6877 3 23.1354 3 23.6877V28.9986C3 29.5509 3.44772 29.9986 4 29.9986C4.55228 29.9986 5 29.5509 5 28.9986V27.3491H15.7495C17.5444 27.3491 18.9995 25.894 18.9995 24.0991V20.8937H25.2067C27.0016 20.8937 28.4567 19.4387 28.4567 17.6437V9.25C28.4567 7.45508 27.0016 6 25.2067 6H7.76938ZM6.51938 9.25C6.51938 8.55964 7.07902 8 7.76938 8H25.2067C25.897 8 26.4567 8.55964 26.4567 9.25V17.6437C26.4567 18.3341 25.897 18.8937 25.2067 18.8937H7.76938C7.07902 18.8937 6.51938 18.3341 6.51938 17.6437V9.25ZM33.0004 10.0311C33.0004 9.68445 32.8209 9.36256 32.5261 9.18037C32.2312 8.99817 31.863 8.98165 31.553 9.13671L30.7947 9.51607C30.456 9.68549 30.242 10.0317 30.242 10.4104V16.4801C30.242 16.8589 30.4561 17.2052 30.795 17.3746L31.5534 17.7536C31.8634 17.9085 32.2315 17.8918 32.5262 17.7096C32.821 17.5274 33.0004 17.2056 33.0004 16.859V10.0311ZM9.05258 11.5481C9.05258 10.9958 9.5003 10.5481 10.0526 10.5481H15.3495C15.9018 10.5481 16.3495 10.9958 16.3495 11.5481C16.3495 12.1003 15.9018 12.5481 15.3495 12.5481H10.0526C9.5003 12.5481 9.05258 12.1003 9.05258 11.5481Z" fill="white"/>
</svg>
