<svg width="36" height="36" viewBox="0 0 36 36" fill="none" xmlns="http://www.w3.org/2000/svg">
<path d="M17.5684 18.3018C17.2257 17.232 18.2338 16.2223 19.2969 16.5703L33.0547 21.0771C34.3215 21.4922 34.3127 23.2973 33.042 23.7002L27.0107 25.6123C26.8017 25.6788 26.6368 25.8417 26.5674 26.0508L24.5752 32.0586C24.1565 33.3206 22.3774 33.3112 21.9717 32.0449L17.5684 18.3018Z" fill="white"/>
<path d="M27.0752 5C27.8965 5 28.5801 4.99946 29.1367 5.04492C29.7065 5.09148 30.2422 5.19145 30.748 5.44922C31.5241 5.84468 32.1553 6.47588 32.5508 7.25195C32.8085 7.75785 32.9085 8.29346 32.9551 8.86328C33.0005 9.41988 33 10.1035 33 10.9248V18.8535L30.75 18.1162V10.9248C30.75 10.0663 30.7491 9.48968 30.7129 9.0459C30.6777 8.61543 30.6151 8.40925 30.5459 8.27344C30.3662 7.92076 30.0792 7.63384 29.7266 7.4541C29.5908 7.3849 29.3846 7.3223 28.9541 7.28711C28.5103 7.25085 27.9337 7.25 27.0752 7.25H8.92481C8.06627 7.25 7.48968 7.25085 7.0459 7.28711C6.61543 7.3223 6.40925 7.3849 6.27344 7.4541C5.92076 7.63384 5.63384 7.92076 5.4541 8.27344C5.3849 8.40925 5.3223 8.61543 5.28711 9.0459C5.25085 9.48968 5.25 10.0663 5.25 10.9248V23.0752C5.25 23.9337 5.25085 24.5103 5.28711 24.9541C5.3223 25.3846 5.3849 25.5908 5.4541 25.7266C5.63384 26.0792 5.92076 26.3662 6.27344 26.5459C6.40925 26.6151 6.61543 26.6777 7.0459 26.7129C7.48968 26.7491 8.06627 26.75 8.92481 26.75H18.0508L18.7725 29H8.92481C8.1035 29 7.41988 29.0005 6.86328 28.9551C6.29345 28.9085 5.75785 28.8085 5.25195 28.5508C4.47588 28.1553 3.84468 27.5241 3.44922 26.748C3.19145 26.2422 3.09148 25.7065 3.04492 25.1367C2.99946 24.5801 3 23.8965 3 23.0752V10.9248C3 10.1035 2.99946 9.41988 3.04492 8.86328C3.09148 8.29346 3.19145 7.75785 3.44922 7.25195C3.84468 6.47588 4.47587 5.84468 5.25195 5.44922C5.75785 5.19145 6.29345 5.09148 6.86328 5.04492C7.41988 4.99946 8.1035 5 8.92481 5H27.0752Z" fill="white"/>
<path d="M15 14.5C15.5523 14.5 16 14.9477 16 15.5C16 16.0523 15.5523 16.5 15 16.5H8C7.44772 16.5 7 16.0523 7 15.5C7 14.9477 7.44772 14.5 8 14.5H15Z" fill="white"/>
<path d="M24 10C24.5523 10 25 10.4477 25 11C25 11.5523 24.5523 12 24 12H8C7.44772 12 7 11.5523 7 11C7 10.4477 7.44772 10 8 10H24Z" fill="white"/>
</svg>
