<svg width="36" height="36" viewBox="0 0 36 36" fill="none" xmlns="http://www.w3.org/2000/svg">
<path d="M29.5 21.7499C29.9142 21.7499 30.25 22.0856 30.25 22.4999C30.2499 22.914 29.9142 23.2499 29.5 23.2499C29.0858 23.2499 28.7501 22.914 28.75 22.4999C28.75 22.0856 29.0858 21.7499 29.5 21.7499Z" fill="white"/>
<path fill-rule="evenodd" clip-rule="evenodd" d="M26.5 17.9999C31.1944 17.9999 35 21.8054 35 26.4999C34.9999 31.1942 31.1944 34.9999 26.5 34.9999C21.8056 34.9999 18.0001 31.1942 18 26.4999C18 21.8054 21.8056 17.9999 26.5 17.9999ZM25.75 21.2499C25.3358 21.2499 25 21.5856 25 21.9999V24.3807H23.5L23.4229 24.3846C23.0449 24.4233 22.75 24.7426 22.75 25.1307C22.7503 25.5447 23.086 25.8807 23.5 25.8807H25V29.1249C25.0001 30.5745 26.1753 31.7499 27.625 31.7499C29.0747 31.7499 30.2499 30.5745 30.25 29.1249V29.0438C30.25 28.6296 29.9142 28.2938 29.5 28.2938C29.0858 28.2938 28.75 28.6296 28.75 29.0438V29.1249C28.7499 29.7461 28.2463 30.2499 27.625 30.2499C27.0037 30.2499 26.5001 29.7461 26.5 29.1249V25.8807H28L28.0771 25.8768C28.4549 25.8382 28.7497 25.5186 28.75 25.1307C28.75 24.7426 28.4551 24.4233 28.0771 24.3846L28 24.3807H26.5V21.9999C26.5 21.5856 26.1642 21.2499 25.75 21.2499ZM29.5 20.9999C28.6716 20.9999 28 21.6714 28 22.4999C28.0001 23.3282 28.6716 23.9999 29.5 23.9999C30.3284 23.9999 30.9999 23.3282 31 22.4999C31 21.6714 30.3284 20.9999 29.5 20.9999Z" fill="white"/>
<path d="M6.28809 9.66197C6.71222 9.38506 7.2858 9.46881 7.61133 9.87095C7.93639 10.2734 7.89851 10.8521 7.53906 11.2088L7.46289 11.2772L7.05566 11.6229C6.13354 12.4456 5.40189 13.383 4.88672 14.3885L4.67969 14.8221C4.22882 15.8412 4.00099 16.91 4.00098 17.9813L4.01465 18.4403C4.0705 19.3566 4.29337 20.2663 4.67969 21.1395L4.88672 21.5741C5.47547 22.7229 6.34751 23.7826 7.46289 24.6844C7.89177 25.0318 7.95836 25.6614 7.61133 26.0907C7.26419 26.5196 6.6344 26.5866 6.20508 26.2401C4.89074 25.1775 3.83386 23.9029 3.10742 22.4852L2.97461 22.2186C2.37667 20.9651 2.04633 19.6291 2.00488 18.2723L2.00098 17.9813C2.00099 16.5247 2.33409 15.0871 2.97461 13.744L3.10742 13.4764C3.78852 12.1471 4.75994 10.9445 5.96191 9.92369L6.20508 9.72252L6.28809 9.66197Z" fill="white"/>
<path d="M20.25 9.74986C22.7353 9.74986 24.75 11.7646 24.75 14.2499V16.6551C23.4851 16.8785 22.302 17.3371 21.249 17.9881C21.2427 16.1986 19.791 14.7499 18 14.7499C16.2051 14.7499 14.75 16.2049 14.75 17.9999C14.7502 19.7907 16.1989 21.2426 17.9883 21.2489C17.0858 22.7088 16.5508 24.4182 16.5059 26.2499H15.75C13.2648 26.2499 11.2502 24.235 11.25 21.7499V14.2499C11.25 11.7646 13.2647 9.74986 15.75 9.74986H20.25Z" fill="white"/>
<path d="M7.12012 14.0995C7.50429 13.7688 8.08432 13.7764 8.45996 14.1327C8.83512 14.4891 8.8732 15.0677 8.56348 15.4686L8.49707 15.5467L8.37109 15.6844C7.76312 16.3824 7.45998 17.1864 7.45996 17.9813L7.46484 18.1405C7.50545 18.9356 7.84873 19.7317 8.49707 20.4149C8.87693 20.8155 8.86042 21.4489 8.45996 21.829C8.05949 22.2088 7.42606 22.192 7.0459 21.7919C6.10081 20.7959 5.53411 19.5575 5.4668 18.245L5.45996 17.9813C5.45998 16.659 5.96785 15.3997 6.8623 14.3719L7.0459 14.1698L7.12012 14.0995Z" fill="white"/>
<path d="M18 16.1502C19.0217 16.1502 19.8496 16.9781 19.8496 17.9999C19.8494 19.0214 19.0216 19.8495 18 19.8495C16.9784 19.8495 16.1506 19.0214 16.1504 17.9999C16.1504 16.9781 16.9783 16.1502 18 16.1502Z" fill="white"/>
<path d="M28.1602 9.87095C28.4856 9.46864 29.0592 9.38508 29.4834 9.66197L29.5664 9.72252L29.8096 9.92369C31.0116 10.9445 31.9829 12.1471 32.6641 13.4764L32.7969 13.744C33.4374 15.0871 33.7705 16.5247 33.7705 17.9813L33.7666 18.2723C33.754 18.6862 33.7103 19.0975 33.6445 19.5057C33.0833 18.9325 32.4543 18.4263 31.7695 18.0008L31.7705 17.9813C31.7705 16.91 31.5427 15.8413 31.0918 14.8221L30.8848 14.3885C30.3696 13.383 29.638 12.4456 28.7158 11.6229L28.3086 11.2772L28.2324 11.2088C27.873 10.852 27.835 10.2734 28.1602 9.87095Z" fill="white"/>
<path d="M27.3115 14.1327C27.6871 13.7764 28.2672 13.769 28.6514 14.0995L28.7256 14.1698L28.9092 14.3719C29.6327 15.2032 30.1024 16.1862 30.2559 17.2313C29.5417 16.9416 28.7871 16.7304 28.002 16.6122C27.8541 16.2904 27.6555 15.9774 27.4004 15.6844L27.2744 15.5467L27.208 15.4686C26.8985 15.0678 26.9365 14.489 27.3115 14.1327Z" fill="white"/>
</svg>
