<svg width="36" height="36" viewBox="0 0 36 36" fill="none" xmlns="http://www.w3.org/2000/svg">
<path d="M6.28809 9.66197C6.71222 9.38506 7.2858 9.46881 7.61133 9.87095C7.93648 10.2734 7.89854 10.852 7.53906 11.2088L7.46289 11.2772L7.05566 11.6229C6.1335 12.4457 5.4019 13.383 4.88672 14.3885L4.67969 14.8221C4.22877 15.8413 4.00099 16.9099 4.00098 17.9813L4.01465 18.4403C4.07048 19.3566 4.29334 20.2662 4.67969 21.1395L4.88672 21.5741C5.47547 22.723 6.34746 23.7826 7.46289 24.6844C7.89185 25.0317 7.95839 25.6614 7.61133 26.0907C7.26419 26.5197 6.63444 26.5868 6.20508 26.2401C4.8907 25.1774 3.83387 23.9029 3.10742 22.4852L2.97461 22.2186C2.37664 20.965 2.04631 19.6291 2.00488 18.2723L2.00098 17.9813C2.00099 16.5246 2.33404 15.0871 2.97461 13.744L3.10742 13.4764C3.78853 12.1471 4.75991 10.9445 5.96191 9.92369L6.20508 9.72252L6.28809 9.66197Z" fill="white"/>
<path d="M28.1602 9.87095C28.4856 9.46864 29.0592 9.38508 29.4834 9.66197L29.5664 9.72252L29.8096 9.92369C31.0116 10.9445 31.9829 12.1471 32.6641 13.4764L32.7969 13.744C33.4375 15.0871 33.7705 16.5246 33.7705 17.9813L33.7666 18.2723C33.7252 19.6292 33.3949 20.965 32.7969 22.2186L32.6641 22.4852C31.9376 23.9031 30.881 25.1773 29.5664 26.2401C29.137 26.5869 28.5073 26.5198 28.1602 26.0907C27.8132 25.6613 27.8796 25.0317 28.3086 24.6844C29.4242 23.7825 30.296 22.7231 30.8848 21.5741L31.0918 21.1395C31.4782 20.2662 31.701 19.3567 31.7568 18.4403L31.7705 17.9813C31.7705 16.9099 31.5427 15.8413 31.0918 14.8221L30.8848 14.3885C30.3696 13.383 29.638 12.4457 28.7158 11.6229L28.3086 11.2772L28.2324 11.2088C27.873 10.852 27.8349 10.2734 28.1602 9.87095Z" fill="white"/>
<path d="M18 15.9002C19.0217 15.9002 19.8496 16.7281 19.8496 17.7499C19.8495 18.7715 19.0217 19.5995 18 19.5995C16.9783 19.5995 16.1505 18.7715 16.1504 17.7499C16.1504 16.7281 16.9783 15.9002 18 15.9002Z" fill="white"/>
<path fill-rule="evenodd" clip-rule="evenodd" d="M20 9.74986C22.4853 9.74986 24.5 11.7646 24.5 14.2499V21.7499C24.4999 24.2351 22.4852 26.2499 20 26.2499H16C13.5148 26.2499 11.5001 24.2351 11.5 21.7499V14.2499C11.5 11.7646 13.5147 9.74986 16 9.74986H20ZM18 14.4999C16.2051 14.4999 14.75 15.9549 14.75 17.7499C14.7501 19.5447 16.2051 20.9999 18 20.9999C19.7949 20.9999 21.2499 19.5447 21.25 17.7499C21.25 15.9549 19.7949 14.4999 18 14.4999Z" fill="white"/>
<path d="M7.12012 14.0995C7.50429 13.7688 8.08432 13.7764 8.45996 14.1327C8.8352 14.4891 8.87323 15.0677 8.56348 15.4686L8.49707 15.5467L8.37109 15.6844C7.76306 16.3824 7.45998 17.1864 7.45996 17.9813L7.46484 18.1405C7.5054 18.9357 7.84869 19.7317 8.49707 20.4149C8.87703 20.8155 8.86045 21.4488 8.45996 21.829C8.05946 22.2089 7.42608 22.1921 7.0459 21.7919C6.10077 20.7959 5.53407 19.5576 5.4668 18.245L5.45996 17.9813C5.45998 16.659 5.9678 15.3997 6.8623 14.3719L7.0459 14.1698L7.12012 14.0995Z" fill="white"/>
<path d="M27.3115 14.1327C27.6871 13.7764 28.2672 13.769 28.6514 14.0995L28.7256 14.1698L28.9092 14.3719C29.8037 15.3997 30.3115 16.659 30.3115 17.9813L30.3047 18.245C30.2374 19.5577 29.6708 20.7959 28.7256 21.7919C28.3454 22.1921 27.712 22.2089 27.3115 21.829C26.9113 21.4488 26.8946 20.8154 27.2744 20.4149C27.9229 19.7316 28.2661 18.9357 28.3066 18.1405L28.3115 17.9813C28.3115 17.1864 28.0084 16.3824 27.4004 15.6844L27.2744 15.5467L27.208 15.4686C26.8985 15.0677 26.9364 14.489 27.3115 14.1327Z" fill="white"/>
</svg>
