<svg width="36" height="36" viewBox="0 0 36 36" fill="none" xmlns="http://www.w3.org/2000/svg">
<path fill-rule="evenodd" clip-rule="evenodd" d="M31.1622 5.70711C31.5527 5.31658 31.5527 4.68342 31.1622 4.29289C30.7717 3.90237 30.1385 3.90237 29.748 4.29289L26.166 7.87487C25.4954 7.47787 24.7128 7.25 23.877 7.25C21.7354 7.25 19.9432 8.74601 19.4885 10.75H4.37695C3.82467 10.75 3.37695 11.1977 3.37695 11.75C3.37695 12.3023 3.82467 12.75 4.37695 12.75H19.4885C19.593 13.2105 19.7681 13.6442 20.0018 14.039L14.2562 19.7846C13.6223 19.4435 12.8972 19.25 12.127 19.25C9.95233 19.25 8.13799 20.7925 7.71838 22.8431C7.72475 22.8119 7.73145 22.7809 7.73846 22.75H4.62695C4.07467 22.75 3.62695 23.1977 3.62695 23.75C3.62695 24.3023 4.07467 24.75 4.62695 24.75H7.73846C7.82904 25.1492 7.97268 25.5282 8.16159 25.8793L4.29213 29.7487C3.9016 30.1393 3.9016 30.7724 4.29212 31.163C4.68265 31.5535 5.31581 31.5535 5.70634 31.163L31.1622 5.70711ZM9.69774 24.3431L12.7201 21.3208C12.53 21.2745 12.3313 21.25 12.127 21.25C10.7462 21.25 9.62695 22.3693 9.62695 23.75C9.62695 23.9544 9.65147 24.153 9.69774 24.3431ZM21.5035 12.5374L24.6643 9.37652C24.4168 9.29444 24.1521 9.25 23.877 9.25C22.4962 9.25 21.377 10.3693 21.377 11.75C21.377 12.0251 21.4214 12.2898 21.5035 12.5374ZM16.8805 22.75L11.4336 28.1969C11.6596 28.2319 11.8912 28.25 12.127 28.25C14.2685 28.25 16.0607 26.754 16.5154 24.75H31.627C32.1792 24.75 32.627 24.3023 32.627 23.75C32.627 23.1977 32.1792 22.75 31.627 22.75H16.8805ZM28.8805 10.75L23.405 16.2255C23.5601 16.2417 23.7176 16.25 23.877 16.25C26.0185 16.25 27.8107 14.754 28.2654 12.75H31.377C31.9292 12.75 32.377 12.3023 32.377 11.75C32.377 11.1977 31.9292 10.75 31.377 10.75H28.8805Z" fill="white"/>
</svg>
