<svg width="36" height="36" viewBox="0 0 36 36" fill="none" xmlns="http://www.w3.org/2000/svg">
<path fill-rule="evenodd" clip-rule="evenodd" d="M17.0422 3.00049L16.9441 3.00025C16.58 2.99893 16.1539 2.99737 15.7691 3.14981C15.4361 3.2817 15.1418 3.4956 14.9137 3.77165C14.6499 4.09072 14.52 4.49645 14.4089 4.84324L14.3789 4.93663C14.0793 5.86042 13.8715 6.49864 13.6707 6.98517C13.4746 7.46025 13.3134 7.71717 13.1425 7.89921C12.7717 8.29436 12.2923 8.57112 11.7646 8.69474C11.5216 8.75168 11.2185 8.76283 10.709 8.69512C10.1872 8.62577 9.53064 8.48656 8.58082 8.28414L8.48492 8.26345C8.12905 8.18625 7.71271 8.09593 7.3045 8.1648C6.95135 8.22438 6.61899 8.37225 6.33828 8.59468C6.01383 8.85178 5.80216 9.2215 5.62124 9.53752L5.57239 9.6226L4.63086 11.2534L4.5816 11.3382C4.39838 11.6529 4.18402 12.0211 4.1236 12.4306C4.07132 12.7849 4.10945 13.1467 4.23443 13.4823C4.37888 13.8703 4.66527 14.1857 4.91006 14.4553L4.97593 14.528C5.62614 15.2493 6.07499 15.7484 6.39593 16.1655C6.70931 16.5729 6.8512 16.841 6.92343 17.08C7.0802 17.5987 7.0802 18.1522 6.92343 18.671C6.8512 18.91 6.70931 19.1781 6.39593 19.5854C6.07499 20.0026 5.62614 20.5016 4.97592 21.223L4.91006 21.2957C4.66526 21.5653 4.37887 21.8807 4.23441 22.2687C4.10944 22.6043 4.07131 22.9661 4.12359 23.3204C4.18401 23.7299 4.39837 24.0981 4.58159 24.4128L4.63085 24.4976L5.57238 26.1284L5.62123 26.2135C5.80215 26.5295 6.01382 26.8992 6.33828 27.1563C6.61898 27.3787 6.95134 27.5266 7.30449 27.5862C7.71269 27.6551 8.12903 27.5647 8.48491 27.4875L8.58081 27.4669C9.53063 27.2644 10.1872 27.1252 10.709 27.0559C11.2185 26.9882 11.5216 26.9993 11.7646 27.0563C12.2923 27.1799 12.7717 27.4566 13.1425 27.8518C13.3134 28.0338 13.4746 28.2907 13.6707 28.7658C13.8715 29.2523 14.0793 29.8906 14.3789 30.8144L14.4089 30.9077C14.52 31.2545 14.6499 31.6603 14.9137 31.9793C15.1418 32.2554 15.4361 32.4693 15.7691 32.6012C16.1539 32.7536 16.58 32.7521 16.9441 32.7507L17.0422 32.7505H18.9253L19.0234 32.7507C19.3875 32.7521 19.8136 32.7536 20.1984 32.6012C20.5314 32.4693 20.8257 32.2554 21.0538 31.9793C21.3176 31.6603 21.4475 31.2545 21.5586 30.9078L21.5886 30.8144C21.8882 29.8906 22.096 29.2523 22.2968 28.7658C22.4929 28.2907 22.6541 28.0338 22.825 27.8518C23.1958 27.4566 23.6752 27.1799 24.2029 27.0563C24.4459 26.9993 24.749 26.9882 25.2585 27.0559C25.7803 27.1252 26.4369 27.2644 27.3867 27.4669L27.4826 27.4875C27.8385 27.5647 28.2548 27.6551 28.663 27.5862C29.0162 27.5266 29.3485 27.3787 29.6292 27.1563C29.9537 26.8992 30.1653 26.5295 30.3463 26.2135L30.3951 26.1284L31.3366 24.4976L31.3859 24.4128C31.5691 24.0981 31.7835 23.7299 31.8439 23.3204C31.8962 22.966 31.8581 22.6043 31.7331 22.2687C31.5886 21.8807 31.3022 21.5653 31.0575 21.2957L30.9916 21.223C30.3414 20.5016 29.8925 20.0026 29.5716 19.5854C29.2582 19.1781 29.1163 18.91 29.0441 18.671C28.8873 18.1522 28.8873 17.5987 29.0441 17.08C29.1163 16.841 29.2582 16.5729 29.5716 16.1655C29.8925 15.7484 30.3414 15.2493 30.9916 14.528L31.0574 14.4553C31.3022 14.1857 31.5886 13.8703 31.7331 13.4823C31.8581 13.1467 31.8962 12.7849 31.8439 12.4306C31.7835 12.0211 31.5691 11.6529 31.3859 11.3382L31.3366 11.2534L30.3951 9.6226L30.3463 9.53752C30.1653 9.2215 29.9537 8.85177 29.6292 8.59468C29.3485 8.37225 29.0161 8.22438 28.663 8.1648C28.2548 8.09594 27.8385 8.18625 27.4826 8.26345L27.3867 8.28413C26.4369 8.48656 25.7803 8.62577 25.2585 8.69512C24.749 8.76283 24.4459 8.75168 24.2029 8.69473C23.6752 8.57112 23.1958 8.29436 22.825 7.89921C22.6541 7.71716 22.4929 7.46025 22.2968 6.98517C22.096 6.49864 21.8882 5.86042 21.5886 4.93663L21.5586 4.84323C21.4475 4.49644 21.3176 4.09072 21.0538 3.77165C20.8257 3.4956 20.5314 3.2817 20.1984 3.14981C19.8136 2.99737 19.3875 2.99893 19.0234 3.00025L18.9253 3.00049H17.0422ZM16.4635 5.03678C16.4726 5.02777 16.483 5.02021 16.4944 5.01435C16.5049 5.01275 16.5248 5.01024 16.5575 5.00798C16.6574 5.00105 16.7935 5.00049 17.0422 5.00049H18.9253C19.174 5.00049 19.3101 5.00105 19.41 5.00798C19.4427 5.01024 19.4626 5.01275 19.4731 5.01435C19.4845 5.02021 19.4949 5.02777 19.504 5.03678C19.5088 5.04631 19.5173 5.0645 19.5295 5.09483C19.567 5.18778 19.6095 5.31705 19.6862 5.55364L19.6985 5.59163C19.9828 6.46832 20.214 7.18112 20.4481 7.74826C20.6903 8.33503 20.9635 8.83838 21.3667 9.26793C22.0073 9.95046 22.8353 10.4285 23.7467 10.642C24.3202 10.7764 24.8928 10.7613 25.522 10.6777C26.1302 10.5968 26.8631 10.4407 27.7644 10.2485L27.8036 10.2402C28.0468 10.1884 28.18 10.1605 28.2792 10.1465C28.3116 10.1419 28.3316 10.1402 28.3423 10.1396C28.3546 10.1429 28.3664 10.1482 28.3771 10.1551C28.3838 10.1634 28.3959 10.1794 28.4142 10.2065C28.4702 10.2896 28.5387 10.4072 28.6631 10.6226L29.6046 12.2534C29.7289 12.4688 29.7965 12.5869 29.8405 12.6769C29.8548 12.7063 29.8626 12.7248 29.8665 12.7348C29.8671 12.7475 29.8658 12.7603 29.8625 12.7727C29.8567 12.7816 29.8452 12.7981 29.825 12.8238C29.7632 12.9027 29.6725 13.0042 29.506 13.1889L29.4792 13.2186C28.8622 13.9032 28.3605 14.4598 27.9864 14.9461C27.5993 15.4492 27.3 15.9375 27.1296 16.5014C26.8588 17.3974 26.8588 18.3535 27.1296 19.2496C27.3 19.8135 27.5993 20.3018 27.9864 20.8049C28.3605 21.2912 28.8622 21.8478 29.4793 22.5324L29.506 22.5621C29.6725 22.7468 29.7632 22.8483 29.825 22.9271C29.8452 22.9529 29.8567 22.9694 29.8625 22.9783C29.8658 22.9906 29.8671 23.0034 29.8665 23.0162C29.8626 23.0261 29.8548 23.0447 29.8405 23.074C29.7965 23.1641 29.729 23.2822 29.6046 23.4976L28.6631 25.1284C28.5387 25.3438 28.4702 25.4614 28.4142 25.5445C28.3959 25.5716 28.3838 25.5876 28.3771 25.5959C28.3664 25.6028 28.3546 25.6081 28.3423 25.6114C28.3316 25.6108 28.3116 25.6091 28.2792 25.6045C28.18 25.5904 28.0468 25.5626 27.8036 25.5108L27.7644 25.5024C26.8631 25.3103 26.1302 25.1541 25.522 25.0733C24.8928 24.9897 24.3202 24.9746 23.7467 25.109C22.8353 25.3225 22.0073 25.8005 21.3667 26.4831C20.9635 26.9126 20.6903 27.416 20.4481 28.0027C20.214 28.5699 19.9828 29.2826 19.6985 30.1593L19.6862 30.1973C19.6095 30.4339 19.567 30.5632 19.5295 30.6562C19.5173 30.6865 19.5088 30.7047 19.504 30.7142C19.4949 30.7232 19.4845 30.7308 19.4731 30.7366C19.4626 30.7382 19.4427 30.7407 19.41 30.743C19.3101 30.7499 19.174 30.7505 18.9253 30.7505H17.0422C16.7935 30.7505 16.6574 30.7499 16.5575 30.743C16.5248 30.7407 16.5049 30.7382 16.4944 30.7366C16.483 30.7308 16.4726 30.7232 16.4635 30.7142C16.4587 30.7047 16.4502 30.6865 16.438 30.6562C16.4005 30.5632 16.358 30.4339 16.2813 30.1973L16.269 30.1593C15.9847 29.2827 15.7535 28.5699 15.5194 28.0027C15.2772 27.416 15.004 26.9126 14.6008 26.4831C13.9602 25.8005 13.1322 25.3225 12.2208 25.109C11.6473 24.9746 11.0747 24.9897 10.4455 25.0733C9.83733 25.1541 9.10452 25.3103 8.20322 25.5024L8.16393 25.5108C7.92067 25.5626 7.78746 25.5904 7.68825 25.6045C7.65588 25.6091 7.63585 25.6108 7.62522 25.6114C7.61288 25.6081 7.60112 25.6028 7.59037 25.5959C7.58371 25.5876 7.57157 25.5716 7.5533 25.5445C7.49731 25.4614 7.42879 25.3438 7.30443 25.1284L6.3629 23.4976C6.23854 23.2822 6.17098 23.1641 6.127 23.074C6.11265 23.0447 6.10485 23.0261 6.10098 23.0162C6.10036 23.0034 6.10171 22.9906 6.10497 22.9783C6.11083 22.9694 6.12232 22.9529 6.14248 22.9271C6.20426 22.8483 6.29496 22.7468 6.46149 22.5621L6.48831 22.5323C7.10533 21.8478 7.60704 21.2912 7.98113 20.8049C8.36819 20.3018 8.6675 19.8135 8.83792 19.2496C9.1087 18.3535 9.1087 17.3974 8.83792 16.5014C8.6675 15.9375 8.36819 15.4492 7.98113 14.9461C7.60704 14.4598 7.10534 13.9032 6.48829 13.2187L6.46149 13.1889C6.29497 13.0042 6.20427 12.9027 6.14249 12.8238C6.12233 12.7981 6.11084 12.7816 6.10498 12.7727C6.10172 12.7603 6.10037 12.7475 6.10099 12.7348C6.10486 12.7249 6.11266 12.7063 6.12701 12.6769C6.17099 12.5869 6.23855 12.4688 6.36291 12.2534L7.30444 10.6226C7.4288 10.4072 7.49732 10.2896 7.55331 10.2065C7.57158 10.1794 7.58372 10.1634 7.59038 10.1551C7.60113 10.1482 7.61289 10.1429 7.62523 10.1396C7.63586 10.1402 7.65589 10.1419 7.68826 10.1465C7.78747 10.1605 7.92068 10.1884 8.16394 10.2402L8.20305 10.2485C9.10442 10.4407 9.8373 10.5968 10.4455 10.6777C11.0747 10.7613 11.6473 10.7764 12.2208 10.642C13.1322 10.4285 13.9602 9.95046 14.6008 9.26793C15.004 8.83839 15.2772 8.33503 15.5194 7.74826C15.7535 7.18113 15.9847 6.46835 16.269 5.59168L16.2813 5.55364C16.358 5.31705 16.4005 5.18778 16.438 5.09483C16.4502 5.0645 16.4587 5.04631 16.4635 5.03678ZM14.1063 17.8755C14.1063 15.7354 15.8412 14.0005 17.9813 14.0005C20.1214 14.0005 21.8563 15.7354 21.8563 17.8755C21.8563 20.0156 20.1214 21.7505 17.9813 21.7505C15.8412 21.7505 14.1063 20.0156 14.1063 17.8755ZM17.9813 12.0005C14.7366 12.0005 12.1063 14.6308 12.1063 17.8755C12.1063 21.1202 14.7366 23.7505 17.9813 23.7505C21.226 23.7505 23.8563 21.1202 23.8563 17.8755C23.8563 14.6308 21.226 12.0005 17.9813 12.0005Z" fill="white"/>
</svg>
