<svg width="36" height="36" viewBox="0 0 36 36" fill="none" xmlns="http://www.w3.org/2000/svg">
<path fill-rule="evenodd" clip-rule="evenodd" d="M25.5 3C27.9853 3 30 5.01472 30 7.5V23.25L29.9941 23.4814C29.9938 23.4876 29.9935 23.4938 29.9932 23.5H30V28.5C30 30.9853 27.9853 33 25.5 33H10.5C8.09234 33 6.12632 31.1092 6.00586 28.7314L6 28.5V23.5H6.00684C6.00809 23.5228 6.01013 23.5456 6.01172 23.5684C6.0097 23.5394 6.00733 23.5105 6.00586 23.4814L6 23.25V7.5C6 5.01472 8.01472 3 10.5 3H25.5ZM7.5 28.5C7.5 30.1569 8.84315 31.5 10.5 31.5H10.5303L7.5 28.4697V28.5ZM7.5 26.8799L12.1201 31.5H14.2051L10.4531 27.748C9.31859 27.7365 8.28542 27.3059 7.5 26.6025V26.8799ZM12.0449 27.75L15.7949 31.5H18.7051L14.9551 27.75H12.0449ZM27.8135 27.1084C27.1487 27.5079 26.3732 27.7403 25.543 27.748L27.9805 30.1855C28.3077 29.705 28.5 29.1252 28.5 28.5V27.7949L27.8135 27.1084ZM10.5 5C9.11929 5 8 6.11929 8 7.5V23.25C8 24.6307 9.11929 25.75 10.5 25.75H25.5C26.8807 25.75 28 24.6307 28 23.25V7.5C28 6.11929 26.8807 5 25.5 5H10.5ZM20.2949 31.5H23.2051L19.4551 27.75H16.5449L20.2949 31.5ZM24.7949 31.5H25.5C26.1252 31.5 26.705 31.3077 27.1855 30.9805L23.9551 27.75H21.0449L24.7949 31.5Z" fill="white"/>
</svg>
