<svg width="36" height="36" viewBox="0 0 36 36" fill="none" xmlns="http://www.w3.org/2000/svg">
<path fill-rule="evenodd" clip-rule="evenodd" d="M25.5 3C27.9853 3 30 5.01472 30 7.5V12.5H29.9932C29.9935 12.5062 29.9938 12.5124 29.9941 12.5186L30 12.75V28.5C30 30.9853 27.9853 33 25.5 33H10.5C8.01472 33 6 30.9853 6 28.5V12.75L6.00586 12.5186C6.00617 12.5124 6.0065 12.5062 6.00684 12.5H6V7.5L6.00586 7.26855C6.12632 4.89083 8.09234 3 10.5 3H25.5ZM10.5 10.25C9.11929 10.25 8 11.3693 8 12.75V28.5C8 29.8807 9.11929 31 10.5 31H25.5C26.8807 31 28 29.8807 28 28.5V12.75C28 11.3693 26.8807 10.25 25.5 10.25H10.5ZM12.1201 4.5L7.5 9.12012V9.39648C8.28536 8.69343 9.31882 8.26255 10.4531 8.25098L14.2051 4.5H12.1201ZM25.543 8.25098C26.373 8.25874 27.1488 8.49132 27.8135 8.89062L28.5 8.20508V7.5C28.5 6.8748 28.3077 6.29501 27.9805 5.81445L25.543 8.25098ZM15.7949 4.5L12.0449 8.25H14.9551L18.7051 4.5H15.7949ZM10.5 4.5C8.84315 4.5 7.5 5.84315 7.5 7.5V7.53027L10.5303 4.5H10.5ZM19.4551 8.25L23.2051 4.5H20.2949L16.5449 8.25H19.4551ZM27.1855 5.01953C26.705 4.69235 26.1252 4.5 25.5 4.5H24.7949L21.0449 8.25H23.9551L27.1855 5.01953Z" fill="white"/>
</svg>
