<svg width="36" height="36" viewBox="0 0 36 36" fill="none" xmlns="http://www.w3.org/2000/svg">
<path fill-rule="evenodd" clip-rule="evenodd" d="M8.87935 5C8.07814 4.99999 7.40934 4.99997 6.863 5.04461C6.29317 5.09117 5.75818 5.19183 5.25229 5.4496C4.47612 5.84508 3.84508 6.47612 3.4496 7.25229C3.19183 7.75819 3.09117 8.29317 3.04461 8.863C2.99997 9.40935 2.99998 10.0781 3 10.8794V23.1207C2.99998 23.9219 2.99997 24.5907 3.04461 25.137C3.09117 25.7068 3.19183 26.2418 3.4496 26.7477C3.84508 27.5239 4.47612 28.1549 5.25229 28.5504C5.75818 28.8082 6.29317 28.9088 6.863 28.9554C7.40934 29 8.0781 29 8.87932 29L15.75 29V26.75H8.925C8.06636 26.75 7.49004 26.7491 7.04622 26.7129C6.61553 26.6777 6.40961 26.6149 6.27377 26.5456C5.92096 26.3659 5.63413 26.079 5.45436 25.7262C5.38515 25.5904 5.32233 25.3845 5.28714 24.9538C5.25088 24.51 5.25 23.9336 5.25 23.075V10.925C5.25 10.0664 5.25088 9.49004 5.28714 9.04622C5.32233 8.61553 5.38515 8.40961 5.45436 8.27377C5.63413 7.92097 5.92096 7.63413 6.27377 7.45437C6.40961 7.38515 6.61553 7.32233 7.04622 7.28714C7.49004 7.25088 8.06636 7.25 8.925 7.25H27.075C27.9336 7.25 28.51 7.25088 28.9538 7.28714C29.3845 7.32233 29.5904 7.38515 29.7262 7.45437C30.079 7.63413 30.3659 7.92097 30.5456 8.27377C30.6149 8.40961 30.6777 8.61553 30.7129 9.04622C30.7491 9.49004 30.75 10.0664 30.75 10.925V23.075C30.75 23.9336 30.7491 24.51 30.7129 24.9538C30.6777 25.3845 30.6149 25.5904 30.5456 25.7262C30.3659 26.079 30.079 26.3659 29.7262 26.5456C29.6262 26.5966 29.488 26.6442 29.25 26.6797V28.9454C29.7777 28.8948 30.2754 28.7911 30.7477 28.5504C31.5239 28.1549 32.1549 27.5239 32.5504 26.7477C32.8082 26.2418 32.9088 25.7068 32.9554 25.137C33 24.5907 33 23.9219 33 23.1207V10.8793C33 10.0781 33 9.40934 32.9554 8.863C32.9088 8.29317 32.8082 7.75819 32.5504 7.25229C32.1549 6.47612 31.5239 5.84508 30.7477 5.4496C30.2418 5.19183 29.7068 5.09117 29.137 5.04461C28.5907 4.99997 27.9219 4.99999 27.1207 5H8.87935Z" fill="white"/>
<path d="M18 19.4C18 18.5599 18 18.1399 18.1635 17.819C18.3073 17.5368 18.5368 17.3073 18.819 17.1635C19.1399 17 19.5599 17 20.4 17H24.6C25.4401 17 25.8601 17 26.181 17.1635C26.4632 17.3073 26.6927 17.5368 26.8365 17.819C27 18.1399 27 18.5599 27 19.4V29.6C27 30.4401 27 30.8601 26.8365 31.181C26.6927 31.4632 26.4632 31.6927 26.181 31.8365C25.8601 32 25.4401 32 24.6 32H20.4C19.5599 32 19.1399 32 18.819 31.8365C18.5368 31.6927 18.3073 31.4632 18.1635 31.181C18 30.8601 18 30.4401 18 29.6V19.4Z" fill="white"/>
</svg>
