<svg width="36" height="36" viewBox="0 0 36 36" fill="none" xmlns="http://www.w3.org/2000/svg">
<path fill-rule="evenodd" clip-rule="evenodd" d="M17.2913 4.04445C17.479 3.85596 17.734 3.75 18 3.75C18.266 3.75 18.521 3.85596 18.7087 4.04445L23.2087 8.56427C23.5983 8.95565 23.5969 9.58882 23.2056 9.97848C22.8142 10.3681 22.181 10.3668 21.7913 9.97537L19 7.17174V12.6602H27.375C29.6532 12.6602 31.5 14.507 31.5 16.7852V28.1211C31.5 30.3992 29.6532 32.2461 27.375 32.2461H8.625C6.34683 32.2461 4.5 30.3992 4.5 28.1211V16.7852C4.5 14.507 6.34683 12.6602 8.625 12.6602H17V7.17174L14.2087 9.97537C13.819 10.3668 13.1858 10.3681 12.7944 9.97848C12.4031 9.58882 12.4017 8.95565 12.7913 8.56427L17.2913 4.04445ZM17 12.6626V20.5704C17 21.1226 17.4477 21.5704 18 21.5704C18.5523 21.5704 19 21.1226 19 20.5704V12.6626H17Z" fill="white"/>
</svg>
