<svg width="36" height="36" viewBox="0 0 36 36" fill="none" xmlns="http://www.w3.org/2000/svg">
<path fill-rule="evenodd" clip-rule="evenodd" d="M10.2587 12.8357L14.5909 12.8357V14.8357H10.3C9.44342 14.8357 8.86113 14.8365 8.41104 14.8733C7.97262 14.9091 7.74842 14.974 7.59202 15.0537C7.2157 15.2454 6.90973 15.5514 6.71799 15.9277C6.6383 16.0841 6.57337 16.3083 6.53755 16.7468C6.50078 17.1968 6.5 17.7791 6.5 18.6357V26.45C6.5 27.3066 6.50078 27.8889 6.53755 28.339C6.57337 28.7774 6.6383 29.0016 6.71799 29.158C6.90973 29.5343 7.2157 29.8403 7.59202 30.032C7.74842 30.1117 7.97262 30.1766 8.41104 30.2124C8.86113 30.2492 9.44342 30.25 10.3 30.25H25.7C26.5566 30.25 27.1389 30.2492 27.589 30.2124C28.0274 30.1766 28.2516 30.1117 28.408 30.032C28.7843 29.8403 29.0903 29.5343 29.282 29.158C29.3617 29.0016 29.4266 28.7774 29.4624 28.339C29.4992 27.8889 29.5 27.3066 29.5 26.45V18.6357C29.5 17.7791 29.4992 17.1968 29.4624 16.7468C29.4266 16.3083 29.3617 16.0841 29.282 15.9277C29.0903 15.5514 28.7843 15.2454 28.408 15.0537C28.2516 14.974 28.0274 14.9091 27.589 14.8733C27.1389 14.8365 26.5566 14.8357 25.7 14.8357H21.4091V12.8357L25.7413 12.8357C26.5463 12.8357 27.2106 12.8357 27.7518 12.8799C28.3139 12.9258 28.8306 13.0244 29.316 13.2717C30.0686 13.6552 30.6805 14.2671 31.064 15.0198C31.3113 15.5051 31.4099 16.0218 31.4558 16.5839C31.5 17.1251 31.5 17.7894 31.5 18.5944V26.4913C31.5 27.2963 31.5 27.9606 31.4558 28.5018C31.4099 29.0639 31.3113 29.5806 31.064 30.066C30.6805 30.8186 30.0686 31.4305 29.316 31.814C28.8306 32.0613 28.3139 32.1599 27.7518 32.2058C27.2106 32.25 26.5463 32.25 25.7413 32.25H10.2587C9.45372 32.25 8.78936 32.25 8.24817 32.2058C7.68608 32.1599 7.16937 32.0613 6.68404 31.814C5.93139 31.4305 5.31947 30.8186 4.93597 30.066C4.68868 29.5806 4.59012 29.0639 4.54419 28.5018C4.49998 27.9606 4.49999 27.2963 4.5 26.4913V18.5944C4.49999 17.7894 4.49998 17.1251 4.54419 16.5839C4.59012 16.0218 4.68868 15.5051 4.93597 15.0198C5.31947 14.2671 5.93139 13.6552 6.68404 13.2717C7.16937 13.0244 7.68608 12.9258 8.24817 12.8799C8.78937 12.8357 9.45373 12.8357 10.2587 12.8357Z" fill="white"/>
<path fill-rule="evenodd" clip-rule="evenodd" d="M18.7064 4.04269C18.3159 3.65244 17.683 3.65244 17.2926 4.04269L12.7471 8.58555C12.3565 8.97596 12.3563 9.60913 12.7467 9.99976C13.1371 10.3904 13.7703 10.3906 14.1609 10.0002L16.9995 7.16324V20.65C16.9995 21.2023 17.4472 21.65 17.9995 21.65C18.5518 21.65 18.9995 21.2023 18.9995 20.65V7.16324L21.838 10.0002C22.2287 10.3906 22.8618 10.3904 23.2522 9.99976C23.6426 9.60913 23.6425 8.97596 23.2518 8.58555L18.7064 4.04269Z" fill="white"/>
</svg>
