<svg width="36" height="36" viewBox="0 0 36 36" fill="none" xmlns="http://www.w3.org/2000/svg">
<path fill-rule="evenodd" clip-rule="evenodd" d="M21.65 6.90998C21.6488 7.04444 21.6486 7.20184 21.6486 7.38814V11.0899C21.6486 11.741 21.1286 12.273 20.4777 12.2877C12.6514 12.4649 6.25705 18.2979 5.16476 25.8279C6.30149 24.4132 7.53184 23.1 9.13164 22.041C11.5294 20.4538 14.6656 19.4878 19.4151 19.3475L19.4439 19.3466C19.6237 19.3413 19.816 19.3356 19.9832 19.345C20.1747 19.3558 20.4133 19.3889 20.6607 19.5086C20.9971 19.6713 21.2783 19.9443 21.4508 20.2757C21.579 20.5218 21.6183 20.7623 21.6345 20.9531C21.6487 21.1214 21.6487 21.3165 21.6487 21.5008L21.6486 24.2252C21.6486 24.4115 21.6488 24.5689 21.65 24.7033C21.7462 24.6093 21.8578 24.4983 21.9898 24.3669L30.5831 15.8067L21.9898 7.24645C21.8578 7.11497 21.7462 7.00399 21.65 6.90998ZM20.0673 5.16893C20.4305 4.74312 20.9756 4.51675 21.5336 4.55991C22.0076 4.59657 22.3668 4.87057 22.5789 5.04749C22.8085 5.23887 23.076 5.50542 23.3712 5.79953L32.7057 15.0982C32.8941 15.2858 33 15.5408 33 15.8067C33 16.0725 32.8941 16.3275 32.7057 16.5151L23.3712 25.8138C23.076 26.1079 22.8085 26.3744 22.5789 26.5658C22.3668 26.7427 22.0076 27.0167 21.5336 27.0534C20.9756 27.0966 20.4305 26.8702 20.0673 26.4444C19.7587 26.0827 19.6994 25.6349 19.675 25.3597C19.6486 25.062 19.6486 24.6843 19.6486 24.2676L19.6486 21.5297C19.6486 21.4573 19.6486 21.396 19.6483 21.3418C19.5978 21.343 19.5409 21.3446 19.4741 21.3466C14.9757 21.4795 12.2351 22.3852 10.2356 23.7087C8.23141 25.0353 6.88092 26.8319 5.22406 29.036L5.16078 29.1202C4.46778 30.042 3 29.5525 3 28.3986V28.1198C3 18.6892 10.3275 10.9383 19.6486 10.3229L19.6486 7.34565C19.6486 6.92895 19.6486 6.5513 19.675 6.25362C19.6994 5.97845 19.7587 5.53063 20.0673 5.16893Z" fill="white"/>
</svg>
