<svg width="36" height="36" viewBox="0 0 36 36" fill="none" xmlns="http://www.w3.org/2000/svg">
<path fill-rule="evenodd" clip-rule="evenodd" d="M7.125 5C4.84683 5 3 6.84683 3 9.125V24.875C3 27.1532 4.84683 29 7.125 29H14.25V20.75C14.25 19.0931 15.5931 17.75 17.25 17.75H33V9.125C33 6.84683 31.1532 5 28.875 5H7.125Z" fill="white"/>
<path d="M16.5 22.4C16.5 21.5599 16.5 21.1399 16.6635 20.819C16.8073 20.5368 17.0368 20.3073 17.319 20.1635C17.6399 20 18.0599 20 18.9 20H30.6C31.4401 20 31.8601 20 32.181 20.1635C32.4632 20.3073 32.6927 20.5368 32.8365 20.819C33 21.1399 33 21.5599 33 22.4V29.6C33 30.4401 33 30.8601 32.8365 31.181C32.6927 31.4632 32.4632 31.6927 32.181 31.8365C31.8601 32 31.4401 32 30.6 32H18.9C18.0599 32 17.6399 32 17.319 31.8365C17.0368 31.6927 16.8073 31.4632 16.6635 31.181C16.5 30.8601 16.5 30.4401 16.5 29.6V22.4Z" fill="white"/>
</svg>
