<svg width="36" height="36" viewBox="0 0 36 36" fill="none" xmlns="http://www.w3.org/2000/svg">
<path d="M12.7338 3C11.9305 3 11.444 3.57473 11.1736 4.05254C10.8947 4.54542 10.6916 5.19178 10.5199 5.86254C10.3614 6.48179 10.2132 7.19136 10.0599 7.92539L10.012 8.15466C9.8395 8.97909 9.65577 9.84017 9.43292 10.6972C8.98284 12.428 8.39522 14.0484 7.50579 15.225C6.64775 16.3601 5.52082 17.0737 3.88235 17.0737C3.39504 17.0737 3 17.4688 3 17.9561C3 17.9708 3.00036 17.9855 3.00107 18C3.00036 18.0145 3 18.0292 3 18.0439C3 18.5312 3.39504 18.9263 3.88235 18.9263C5.52206 18.9263 6.66124 19.6413 7.53314 20.7795C8.43541 21.9574 9.03801 23.5789 9.49802 25.3077C9.72579 26.1637 9.91336 27.0243 10.0872 27.847L10.1663 28.2232C10.3092 28.903 10.4468 29.5579 10.5905 30.1326C10.7574 30.8006 10.9513 31.4417 11.2126 31.9295C11.4565 32.3849 11.9227 33 12.7338 33C13.5448 33 14.0111 32.3849 14.255 31.9295C14.5163 31.4417 14.7101 30.8006 14.8771 30.1326C15.0207 29.5579 15.1583 28.903 15.3012 28.2232L15.3804 27.847C15.5542 27.0243 15.7418 26.1637 15.9695 25.3077C17.4118 18.5882 18.7758 19.01 20.0515 23.6166C20.2752 24.2469 20.4601 24.8828 20.6336 25.4987L20.712 25.7783C20.8548 26.2878 20.9952 26.789 21.1418 27.2289C21.3118 27.7389 21.518 28.2569 21.8048 28.6585C22.1046 29.0783 22.5787 29.4816 23.2662 29.4816C23.9489 29.4816 24.4386 29.1069 24.7628 28.6771C25.0685 28.2719 25.2849 27.7491 25.4603 27.235C25.6224 26.7603 25.7734 26.2179 25.926 25.6697L25.9742 25.4966C26.1466 24.8785 26.3278 24.2421 26.5468 23.6106C26.988 22.3381 27.556 21.1686 28.4118 20.3195C29.2387 19.4992 30.3855 18.9263 32.1176 18.9263C32.605 18.9263 33 18.5312 33 18.0439C33 18.0329 32.9998 18.0219 32.9994 18.011C32.9998 18.0001 33 17.9891 33 17.9781C33 17.4907 32.605 17.0957 32.1176 17.0957C30.3855 17.0957 29.2387 16.5228 28.4118 15.7024C27.556 14.8533 26.988 13.6839 26.5468 12.4114C26.3278 11.7799 26.1466 11.1435 25.9742 10.5254L25.926 10.3524C25.7734 9.80421 25.6224 9.26163 25.4603 8.78698C25.2849 8.27291 25.0685 7.75006 24.7628 7.34487C24.4386 6.91512 23.9489 6.5404 23.2662 6.5404C22.5835 6.5404 22.0938 6.91512 21.7696 7.34487C21.4639 7.75006 21.2475 8.27292 21.072 8.78698C20.91 9.26168 20.759 9.80417 20.6064 10.3524L20.5582 10.5254C20.3857 11.1435 20.2046 11.7799 19.9856 12.4114C19.5721 13.6041 19.3572 14.8144 18.5882 15.6471C17.4118 16.8235 16.8235 13.8824 16.0343 10.6299C15.8115 9.77831 15.6278 8.92405 15.4552 8.10675L15.4094 7.8896C15.2554 7.15848 15.1065 6.4518 14.9471 5.83564C14.7753 5.17144 14.5717 4.5305 14.2918 4.04147C14.0188 3.56471 13.5316 3 12.7338 3Z" fill="white"/>
</svg>
