<svg width="36" height="36" viewBox="0 0 36 36" fill="none" xmlns="http://www.w3.org/2000/svg">
<path fill-rule="evenodd" clip-rule="evenodd" d="M18.8279 3.74077C18.3237 3.41974 17.6763 3.41975 17.1721 3.74077C16.5875 4.11296 14.7746 5.23003 12.5413 6.25027C10.275 7.28557 7.72498 8.15054 5.625 8.15054C5.00368 8.15054 4.5 8.63868 4.5 9.24084C4.5 19.4378 7.54628 25.2533 10.8207 28.535C14.0753 31.7969 17.4216 32.4214 17.7987 32.483L17.8068 32.4843C17.8111 32.485 17.8224 32.4868 17.8365 32.4888C17.8666 32.4929 17.9255 32.5 18 32.5C18.0745 32.5 18.1334 32.4929 18.1635 32.4888C18.1775 32.4868 18.1888 32.485 18.1932 32.4843L18.199 32.4834L18.2013 32.483C18.5784 32.4214 21.9247 31.7969 25.1793 28.535C28.4537 25.2533 31.5 19.4378 31.5 9.24084C31.5 8.63868 30.9963 8.15054 30.375 8.15054C28.275 8.15054 25.7249 7.28557 23.4587 6.25027C21.2254 5.23003 19.4125 4.11296 18.8279 3.74077ZM15.6732 10.8342C15.6732 9.58595 16.717 8.57431 18.005 8.57431C19.2929 8.57431 20.3368 9.58595 20.3368 10.8342C20.3368 12.0824 19.2929 13.094 18.005 13.094C16.717 13.094 15.6732 12.0824 15.6732 10.8342ZM15.7224 14.6724C16.0958 14.2628 16.6351 13.998 17.2453 13.998H18.7646C19.3749 13.998 19.9141 14.2628 20.2876 14.6724L24.2116 18.184C24.6178 18.5495 24.6433 19.1656 24.2662 19.5611C23.8909 19.9548 23.2552 19.9795 22.8471 19.6141L21.8712 18.7408C21.4636 18.376 20.8031 18.6562 20.8031 19.1939V20.5463L21.1839 25.8993C21.2312 26.5525 20.6975 27.1052 20.0234 27.1052C19.4114 27.1052 18.9049 26.6461 18.863 26.0547L18.6241 22.6936C18.6017 22.3782 18.3312 22.1335 18.005 22.1335C17.6788 22.1335 17.4083 22.3782 17.3859 22.6936L17.147 26.0547C17.1051 26.6461 16.5986 27.1052 15.9865 27.1052C15.3125 27.1052 14.7787 26.5525 14.8261 25.8993L15.2068 20.5516V19.1939C15.2068 18.6562 14.5464 18.376 14.1387 18.7408L13.1629 19.6141C12.7548 19.9795 12.119 19.9548 11.7438 19.5611C11.3667 19.1656 11.3922 18.5495 11.7984 18.184L15.7224 14.6724Z" fill="white"/>
</svg>
