<svg width="36" height="36" viewBox="0 0 36 36" fill="none" xmlns="http://www.w3.org/2000/svg">
<path fill-rule="evenodd" clip-rule="evenodd" d="M16.6721 3.24843C17.1763 2.91719 17.8237 2.91719 18.3279 3.24843C18.9125 3.63247 20.7254 4.7851 22.9587 5.83782C24.4247 6.52885 26.0094 7.14634 27.5143 7.49627L30.5219 4.48869C30.9124 4.09817 31.5455 4.09817 31.9361 4.48869C32.3266 4.87922 32.3266 5.51238 31.9361 5.90291L6.48023 31.3588C6.0897 31.7493 5.45654 31.7493 5.06601 31.3588C4.67549 30.9682 4.67549 30.3351 5.06601 29.9445L8.46017 26.5504C5.97836 22.9456 4 17.4027 4 8.92358C4 8.30226 4.50368 7.79858 5.125 7.79858C7.22498 7.79858 9.77504 6.90607 12.0413 5.83782C14.2746 4.7851 16.0875 3.63247 16.6721 3.24843ZM10.7557 29.2655L30.9999 9.02123C30.9811 19.4823 27.9436 25.4562 24.6793 28.832C21.4247 32.1977 18.0784 32.842 17.7013 32.9056L17.699 32.906L17.6932 32.907L17.6826 32.9087L17.6635 32.9115C17.6334 32.9158 17.5745 32.9231 17.5 32.9231C17.4255 32.9231 17.3666 32.9158 17.3365 32.9115C17.3224 32.9095 17.3111 32.9077 17.3068 32.907L17.2987 32.9056C16.9384 32.8449 13.8674 32.2539 10.7557 29.2655Z" fill="white"/>
</svg>
