<svg width="36" height="36" viewBox="0 0 36 36" fill="none" xmlns="http://www.w3.org/2000/svg">
<path fill-rule="evenodd" clip-rule="evenodd" d="M13.401 7.73664C15.4502 6.7714 17.1601 5.7321 18 5.19656C18.84 5.7321 20.5498 6.7714 22.5991 7.73664C23.977 8.38565 25.5538 9.02342 27.1489 9.4406L28.826 7.76354C27.0745 7.45748 25.1763 6.73981 23.4513 5.9273C21.1865 4.86055 19.3496 3.69341 18.759 3.30572C18.2966 3.00226 17.7034 3.00226 17.2411 3.30572C16.6505 3.69341 14.8135 4.86055 12.5487 5.9273C10.2546 7.00786 7.65417 7.92069 5.50004 7.92069C4.94775 7.92069 4.50004 8.3684 4.50004 8.92069C4.50004 17.9156 6.714 23.6124 9.38993 27.1996L10.8211 25.7685C8.6012 22.6797 6.65398 17.744 6.50872 9.87087C8.84935 9.6472 11.3463 8.70442 13.401 7.73664ZM12.0939 27.3241L10.6789 28.7391C10.7355 28.7992 10.7921 28.8586 10.8488 28.9171C14.1101 32.2848 17.4592 32.9249 17.8201 32.9856L17.8268 32.9868C17.8304 32.9874 17.8403 32.989 17.8526 32.9908C17.8789 32.9945 17.9323 33.0014 18 33.0014C18.0677 33.0014 18.1211 32.9945 18.1474 32.9908C18.1597 32.989 18.1697 32.9874 18.1732 32.9868L18.18 32.9856C18.5409 32.9249 21.89 32.2848 25.1513 28.9171C28.4303 25.531 31.5 19.5123 31.5 8.92069C31.5 8.64385 31.3875 8.39328 31.2058 8.21221L29.4903 9.9277C29.3034 19.4691 26.4659 24.6846 23.7145 27.5258C21.1905 30.1322 18.6436 30.8391 18 30.9827C17.3565 30.8391 14.8096 30.1323 12.2855 27.5258C12.2217 27.4598 12.1578 27.3926 12.0939 27.3241Z" fill="white"/>
<path fill-rule="evenodd" clip-rule="evenodd" d="M31.1622 4.08177C31.5527 4.4723 31.5527 5.10546 31.1622 5.49599L5.70637 30.9518C5.31585 31.3424 4.68268 31.3424 4.29216 30.9518C3.90164 30.5613 3.90164 29.9281 4.29216 29.5376L29.748 4.08177C30.1385 3.69125 30.7717 3.69125 31.1622 4.08177Z" fill="white"/>
</svg>
