<svg width="36" height="36" viewBox="0 0 36 36" fill="none" xmlns="http://www.w3.org/2000/svg">
<path fill-rule="evenodd" clip-rule="evenodd" d="M17.9907 5.61136C17.157 6.12587 15.4457 7.13323 13.3925 8.06921C11.3383 9.00559 8.84459 9.91663 6.50934 10.1333C6.57093 13.2413 6.93364 15.8736 7.49267 18.1027L17.6324 12.4314C17.6185 12.3252 17.6113 12.2169 17.6113 12.107C17.6113 10.6933 18.7976 9.54726 20.2609 9.54726C21.7242 9.54726 22.9104 10.6933 22.9104 12.107C22.9104 13.5206 21.7242 14.6667 20.2609 14.6667C19.6599 14.6667 19.1057 14.4734 18.6611 14.1476L8.06941 20.0717C9.18101 23.3589 10.7414 25.6025 12.2746 27.132C14.8028 29.6544 17.3555 30.3338 17.9907 30.4699C18.6258 30.3338 21.1785 29.6544 23.7067 27.1321C25.5746 25.2685 27.483 22.3451 28.5709 17.7657L18.3482 23.4835C18.3622 23.5899 18.3694 23.6984 18.3694 23.8086C18.3694 25.2222 17.1831 26.3682 15.7198 26.3682C14.2565 26.3682 13.0703 25.2222 13.0703 23.8086C13.0703 22.3949 14.2565 21.2489 15.7198 21.2489C16.3206 21.2489 16.8746 21.442 17.319 21.7675L29.0631 15.1988C29.2916 13.6691 29.4353 11.9857 29.472 10.1333C27.1367 9.91664 24.6429 9.00559 22.5888 8.06921C20.5356 7.13323 18.8243 6.12588 17.9907 5.61136ZM17.2489 3.71629C17.703 3.4279 18.2783 3.4279 18.7324 3.7163C19.3172 4.08768 21.1528 5.21658 23.4184 6.24937C25.7121 7.29498 28.3188 8.18172 30.4813 8.18172C31.0336 8.18172 31.4813 8.62944 31.4813 9.18172C31.4813 19.4404 28.4039 25.2709 25.1193 28.5479C21.8565 31.8031 18.5115 32.4163 18.1639 32.4727C18.1746 32.471 18.1518 32.4747 18.1379 32.4767C18.1146 32.4801 18.0602 32.4873 17.9906 32.4873C17.9211 32.4873 17.8667 32.4801 17.8434 32.4767C17.8295 32.4747 17.8067 32.471 17.8174 32.4727C17.4698 32.4163 14.1248 31.8031 10.862 28.5479C7.5774 25.2709 4.5 19.4404 4.5 9.18172C4.5 8.62944 4.94772 8.18172 5.5 8.18172C7.66244 8.18172 10.2692 7.29498 12.5629 6.24937C14.8285 5.21658 16.6642 4.08767 17.2489 3.71629Z" fill="white"/>
</svg>
