<svg width="36" height="36" viewBox="0 0 36 36" fill="none" xmlns="http://www.w3.org/2000/svg">
<path fill-rule="evenodd" clip-rule="evenodd" d="M13.3925 8.06921C15.4457 7.13323 17.157 6.12588 17.9907 5.61136C18.8243 6.12588 20.5356 7.13323 22.5888 8.06921C24.6429 9.0056 27.1367 9.91664 29.472 10.1333C29.2892 19.3572 26.4542 24.391 23.7067 27.1321C21.1785 29.6544 18.6258 30.3338 17.9907 30.4699C17.3555 30.3338 14.8028 29.6544 12.2746 27.1321C9.52714 24.391 6.69212 19.3572 6.50934 10.1333C8.84459 9.91664 11.3383 9.00559 13.3925 8.06921ZM18.7324 3.7163C18.2783 3.4279 17.703 3.4279 17.2489 3.71629C16.6642 4.08768 14.8285 5.21658 12.5629 6.24937C10.2692 7.29498 7.66244 8.18172 5.5 8.18172C4.94772 8.18172 4.5 8.62944 4.5 9.18172C4.5 19.4404 7.5774 25.2709 10.862 28.5479C14.1248 31.8031 17.4698 32.4163 17.8174 32.4727C17.8067 32.471 17.8295 32.4747 17.8434 32.4767C17.8667 32.4801 17.9211 32.4873 17.9906 32.4873C18.0602 32.4873 18.1146 32.4801 18.1379 32.4767C18.1453 32.4757 18.1553 32.4741 18.1614 32.4731C18.1666 32.4723 18.1689 32.4719 18.1639 32.4727C18.5115 32.4163 21.8565 31.8031 25.1193 28.5479C28.4039 25.2709 31.4813 19.4404 31.4813 9.18172C31.4813 8.62944 31.0336 8.18172 30.4813 8.18172C28.3188 8.18172 25.7121 7.29498 23.4184 6.24938C21.1528 5.21658 19.3172 4.08768 18.7324 3.7163ZM11.5566 12.2039C11.0044 12.2039 10.5566 12.6516 10.5566 13.2039C10.5566 13.7562 11.0044 14.2039 11.5566 14.2039H24.4258C24.9781 14.2039 25.4258 13.7562 25.4258 13.2039C25.4258 12.6516 24.9781 12.2039 24.4258 12.2039H11.5566ZM11.5566 17.3233C11.0044 17.3233 10.5566 17.771 10.5566 18.3233C10.5566 18.8756 11.0044 19.3233 11.5566 19.3233H24.4258C24.9781 19.3233 25.4258 18.8756 25.4258 18.3233C25.4258 17.771 24.9781 17.3233 24.4258 17.3233H11.5566ZM16.0987 22.4427C15.5464 22.4427 15.0987 22.8904 15.0987 23.4427C15.0987 23.995 15.5464 24.4427 16.0987 24.4427H19.8837C20.436 24.4427 20.8837 23.995 20.8837 23.4427C20.8837 22.8904 20.436 22.4427 19.8837 22.4427H16.0987Z" fill="white"/>
</svg>
