<svg width="36" height="36" viewBox="0 0 36 36" fill="none" xmlns="http://www.w3.org/2000/svg">
<path fill-rule="evenodd" clip-rule="evenodd" d="M13.3979 8.07071C15.4528 7.13408 17.1653 6.12605 17.9993 5.61134C18.8333 6.12605 20.5458 7.13408 22.6007 8.07071C24.6565 9.00778 27.1522 9.91947 29.4893 10.1362C29.3065 19.3661 26.4693 24.4032 23.7197 27.146C21.1894 29.6701 18.6347 30.3497 17.9993 30.4859C17.3639 30.3497 14.8092 29.6701 12.2789 27.146C9.52932 24.4032 6.69214 19.3661 6.50934 10.1362C8.84635 9.91946 11.3421 9.00777 13.3979 8.07071ZM18.741 3.71627C18.2869 3.42791 17.7117 3.42791 17.2576 3.71627C16.6726 4.08776 14.8357 5.21738 12.5684 6.25085C10.273 7.29714 7.66421 8.18454 5.5 8.18454C4.94772 8.18454 4.5 8.63225 4.5 9.18454C4.5 19.4493 7.57961 25.2832 10.8664 28.5619C14.1313 31.8188 17.4785 32.4323 17.8261 32.4887C17.8203 32.4878 17.8242 32.4884 17.8311 32.4895C17.8372 32.4905 17.8456 32.4918 17.852 32.4927C17.8752 32.496 17.9297 32.5033 17.9993 32.5033C18.0689 32.5033 18.1234 32.496 18.1466 32.4927L18.1698 32.4891C18.1728 32.4886 18.1753 32.4882 18.1753 32.4882C18.1753 32.4882 18.1748 32.4883 18.1726 32.4887C18.5201 32.4323 21.8673 31.8188 25.1322 28.5619C28.419 25.2832 31.4986 19.4493 31.4986 9.18454C31.4986 8.63225 31.0509 8.18454 30.4986 8.18454C28.3344 8.18454 25.7256 7.29714 23.4302 6.25085C21.1629 5.21738 19.326 4.08777 18.741 3.71627ZM24.7742 15.0076C25.1611 14.6135 25.1552 13.9803 24.7611 13.5934C24.367 13.2065 23.7338 13.2124 23.3469 13.6065L16.8175 20.2579L14.1051 17.9378C13.6854 17.5788 13.0542 17.628 12.6952 18.0477C12.3362 18.4674 12.3854 19.0986 12.8051 19.4576L16.227 22.3847C16.6265 22.7264 17.2224 22.7005 17.5907 22.3253L24.7742 15.0076Z" fill="white"/>
</svg>
