<svg width="36" height="36" viewBox="0 0 36 36" fill="none" xmlns="http://www.w3.org/2000/svg">
<path fill-rule="evenodd" clip-rule="evenodd" d="M18.8279 3.74077C18.3237 3.41974 17.6763 3.41975 17.1721 3.74077C16.5875 4.11296 14.7746 5.23003 12.5413 6.25027C10.275 7.28557 7.72498 8.15054 5.625 8.15054C5.00368 8.15054 4.5 8.63868 4.5 9.24084C4.5 19.4378 7.54628 25.2533 10.8207 28.535C14.0753 31.7969 17.4216 32.4214 17.7987 32.483L17.8068 32.4843C17.8111 32.485 17.8224 32.4868 17.8365 32.4888C17.8666 32.4929 17.9255 32.5 18 32.5C18.0745 32.5 18.1334 32.4929 18.1635 32.4888C18.1775 32.4868 18.1888 32.485 18.1932 32.4843L18.199 32.4834L18.2013 32.483C18.5784 32.4214 21.9247 31.7969 25.1793 28.535C28.4537 25.2533 31.5 19.4378 31.5 9.24084C31.5 8.63868 30.9963 8.15054 30.375 8.15054C28.275 8.15054 25.7249 7.28557 23.4587 6.25027C21.2254 5.23003 19.4125 4.11296 18.8279 3.74077ZM24.7148 15.0285C25.101 14.6337 25.0941 14.0006 24.6994 13.6144C24.3046 13.2281 23.6715 13.235 23.2852 13.6297L16.8283 20.2288L14.1512 17.9314C13.7321 17.5717 13.1008 17.6199 12.7411 18.039C12.3815 18.4582 12.4296 19.0895 12.8488 19.4492L16.2367 22.3566C16.6366 22.6998 17.2342 22.6737 17.6027 22.2971L24.7148 15.0285Z" fill="white"/>
</svg>
