<svg width="36" height="36" viewBox="0 0 36 36" fill="none" xmlns="http://www.w3.org/2000/svg">
<path fill-rule="evenodd" clip-rule="evenodd" d="M16.65 9.40875C16.36 9.17875 16.05 8.99875 15.72 8.86875C15.48 8.78875 15.24 8.72875 14.99 8.68875C14.9 8.67875 14.8 8.66875 14.71 8.65875C14.48 8.64875 14.25 8.65875 14.01 8.69875C13.89 8.70875 13.77 8.73875 13.66 8.76875C13.46 8.81875 13.27 8.87875 13.08 8.96875C12.89 9.04875 12.71 9.14875 12.54 9.25875C12.44 9.32875 12.34 9.39875 12.25 9.47875C12.07 9.62875 11.9 9.78875 11.76 9.96875C11.7 10.0388 11.64 10.1187 11.59 10.1887C11.45 10.3987 11.33 10.6188 11.24 10.8488C11.08 11.2588 11 11.6988 11 12.1688V30.4988C11 31.0588 10.56 31.4988 10 31.4988C9.43 31.4988 9 31.0588 9 30.4988V12.1688C9 11.6788 9.05 11.2088 9.17 10.7488C9.19 10.6688 9.22 10.5788 9.25 10.4988C9.33 10.2288 9.43 9.97875 9.55 9.73875C9.66 9.49875 9.79 9.27875 9.94 9.05875C10.05 8.90875 10.16 8.75875 10.28 8.61875C10.49 8.36875 10.72 8.13875 10.98 7.92875C11.15 7.79875 11.32 7.66875 11.5 7.55875C11.74 7.39875 12 7.25875 12.27 7.13875C12.54 7.01875 12.82 6.91875 13.1 6.84875C13.31 6.78875 13.51 6.74875 13.73 6.71875C14.05 6.66875 14.38 6.64875 14.7 6.65875C14.89 6.66875 15.08 6.67875 15.26 6.70875C15.52 6.74875 15.77 6.79875 16.02 6.86875C16.28 6.94875 16.54 7.03875 16.79 7.15875C16.87 7.19875 16.95 7.23875 17.03 7.27875C17.44 7.49875 17.83 7.76875 18.19 8.09875L18.39 8.27875L19.05 7.84875C20.41 6.96875 22.14 6.88875 23.58 7.62875L26.49 9.14875C27.02 9.42875 27.3 9.94875 27.3 10.4787C27.3 10.9587 27.07 11.4387 26.61 11.7387L16.92 18.0288C15.96 18.6588 14.68 18.0087 14.61 16.8588L14.41 13.5888C14.4 13.4988 14.4 13.4088 14.4 13.3187C14.4 11.7987 15.16 10.3788 16.45 9.53875L16.65 9.40875ZM26.56 14.1688L27.43 15.3888C27.56 15.5688 27.62 15.7688 27.62 15.9688C27.62 16.2788 27.47 16.5888 27.19 16.7788C26.74 17.1088 26.12 16.9987 25.8 16.5487L24.93 15.3187C24.8 15.1387 24.74 14.9387 24.74 14.7387C24.74 14.4287 24.89 14.1288 25.16 13.9288C25.62 13.6088 26.24 13.7088 26.56 14.1688ZM20.56 17.9187L21.43 19.1387C21.56 19.3187 21.62 19.5187 21.62 19.7187C21.62 20.0287 21.47 20.3388 21.19 20.5288C20.74 20.8588 20.12 20.7487 19.8 20.2987L18.93 19.0687C18.8 18.8887 18.74 18.6887 18.74 18.4887C18.74 18.1787 18.89 17.8787 19.16 17.6788C19.62 17.3588 20.24 17.4587 20.56 17.9187ZM25.06 18.2888L25.93 19.5087C26.06 19.6888 26.12 19.8988 26.12 20.0988C26.12 20.4088 25.97 20.7087 25.69 20.9087C25.24 21.2287 24.62 21.1287 24.3 20.6687L23.43 19.4488C23.3 19.2688 23.24 19.0688 23.24 18.8688C23.24 18.5588 23.39 18.2487 23.66 18.0487C24.12 17.7287 24.74 17.8288 25.06 18.2888ZM29.56 18.6687L30.43 19.8887C30.56 20.0687 30.62 20.2687 30.62 20.4687C30.62 20.7787 30.47 21.0888 30.19 21.2788C29.74 21.6088 29.12 21.4987 28.8 21.0487L27.93 19.8187C27.8 19.6387 27.74 19.4387 27.74 19.2387C27.74 18.9287 27.89 18.6287 28.16 18.4288C28.62 18.1088 29.24 18.2087 29.56 18.6687ZM23.56 22.4187L24.43 23.6388C24.56 23.8188 24.62 24.0187 24.62 24.2188C24.62 24.5287 24.47 24.8388 24.19 25.0288C23.74 25.3588 23.12 25.2488 22.8 24.7987L21.93 23.5688C21.8 23.3888 21.74 23.1888 21.74 22.9888C21.74 22.6788 21.89 22.3787 22.16 22.1788C22.62 21.8588 23.24 21.9587 23.56 22.4187ZM28.06 22.7888L28.93 24.0088C29.06 24.1888 29.12 24.3988 29.12 24.5988C29.12 24.9088 28.97 25.2087 28.69 25.4088C28.24 25.7288 27.62 25.6287 27.3 25.1688L26.43 23.9488C26.3 23.7688 26.24 23.5688 26.24 23.3688C26.24 23.0588 26.39 22.7487 26.66 22.5487C27.12 22.2287 27.74 22.3288 28.06 22.7888Z" fill="white"/>
</svg>
