<svg width="36" height="36" viewBox="0 0 36 36" fill="none" xmlns="http://www.w3.org/2000/svg">
<path fill-rule="evenodd" clip-rule="evenodd" d="M22 4.5C22 3.94772 21.5523 3.5 21 3.5C20.4477 3.5 20 3.94772 20 4.5V15C20 15.5523 20.4477 16 21 16H31.5C32.0523 16 32.5 15.5523 32.5 15C32.5 14.4477 32.0523 14 31.5 14H23.4142L32.2071 5.20711C32.5976 4.81658 32.5976 4.18342 32.2071 3.79289C31.8166 3.40237 31.1834 3.40237 30.7929 3.79289L22 12.5858V4.5ZM3.5 21C3.5 21.5523 3.94772 22 4.5 22H12.5858L3.79289 30.7929C3.40237 31.1834 3.40237 31.8166 3.79289 32.2071C4.18342 32.5976 4.81658 32.5976 5.20711 32.2071L14 23.4142V31.5C14 32.0523 14.4477 32.5 15 32.5C15.5523 32.5 16 32.0523 16 31.5V21C16 20.4477 15.5523 20 15 20H4.5C3.94772 20 3.5 20.4477 3.5 21Z" fill="white"/>
</svg>
