<svg width="36" height="36" viewBox="0 0 36 36" fill="none" xmlns="http://www.w3.org/2000/svg">
<path fill-rule="evenodd" clip-rule="evenodd" d="M4.5 30.5C4.5 31.0523 4.94772 31.5 5.5 31.5H11.5606C12.1129 31.5 12.5606 31.0523 12.5606 30.5C12.5606 29.9477 12.1129 29.5 11.5606 29.5H7.91421L13.0253 24.3889C13.4158 23.9984 13.4158 23.3652 13.0253 22.9747C12.6348 22.5842 12.0016 22.5842 11.6111 22.9747L6.5 28.0858V24.4394C6.5 23.8871 6.05228 23.4394 5.5 23.4394C4.94772 23.4394 4.5 23.8871 4.5 24.4394V30.5Z" fill="white"/>
<path fill-rule="evenodd" clip-rule="evenodd" d="M4.5 5.5C4.5 4.94772 4.94772 4.5 5.5 4.5H11.5606C12.1129 4.5 12.5606 4.94772 12.5606 5.5C12.5606 6.05228 12.1129 6.5 11.5606 6.5H7.91421L13.0253 11.6111C13.4158 12.0016 13.4158 12.6348 13.0253 13.0253C12.6348 13.4158 12.0016 13.4158 11.6111 13.0253L6.5 7.91421V11.5606C6.5 12.1129 6.05228 12.5606 5.5 12.5606C4.94772 12.5606 4.5 12.1129 4.5 11.5606V5.5Z" fill="white"/>
<path fill-rule="evenodd" clip-rule="evenodd" d="M31.5 5.5C31.5 4.94772 31.0523 4.5 30.5 4.5H24.4394C23.8871 4.5 23.4394 4.94772 23.4394 5.5C23.4394 6.05228 23.8871 6.5 24.4394 6.5H28.0858L22.9747 11.6111C22.5842 12.0016 22.5842 12.6348 22.9747 13.0253C23.3652 13.4158 23.9984 13.4158 24.3889 13.0253L29.5 7.91421V11.5606C29.5 12.1129 29.9477 12.5606 30.5 12.5606C31.0523 12.5606 31.5 12.1129 31.5 11.5606V5.5Z" fill="white"/>
<path fill-rule="evenodd" clip-rule="evenodd" d="M31.5 30.5C31.5 31.0523 31.0523 31.5 30.5 31.5H24.4394C23.8871 31.5 23.4394 31.0523 23.4394 30.5C23.4394 29.9477 23.8871 29.5 24.4394 29.5H28.0858L22.9747 24.3889C22.5842 23.9984 22.5842 23.3652 22.9747 22.9747C23.3652 22.5842 23.9984 22.5842 24.3889 22.9747L29.5 28.0858V24.4394C29.5 23.8871 29.9477 23.4394 30.5 23.4394C31.0523 23.4394 31.5 23.8871 31.5 24.4394V30.5Z" fill="white"/>
</svg>
