<svg width="36" height="36" viewBox="0 0 36 36" fill="none" xmlns="http://www.w3.org/2000/svg">
<path d="M23.6419 4.52488C24.1344 4.43089 24.5726 4.62442 24.8314 4.75241C25.1143 4.89231 25.456 5.10185 25.8353 5.33445L25.8734 5.35788C30.1481 7.97901 33.0033 12.6976 33.0033 18.0835C33.0032 26.3221 26.3236 33.0005 18.0843 33.0005C12.6985 33.0004 7.98029 30.1461 5.35874 25.8725L5.3353 25.8344C5.10264 25.4552 4.89323 25.1134 4.75327 24.8305C4.62524 24.5717 4.43088 24.1335 4.52475 23.6411C4.6354 23.0617 5.0237 22.583 5.56772 22.355C5.84189 22.24 6.10821 22.2373 6.29819 22.2534C6.4931 22.2699 6.6899 22.3142 6.87143 22.3637C7.22148 22.4594 7.67125 22.6197 8.1976 22.8071L8.23667 22.8208C9.43227 23.2464 10.7208 23.4789 12.0658 23.479C18.3697 23.479 23.4798 18.3688 23.4798 12.0659C23.4798 10.7209 23.2475 9.43244 22.8216 8.23679L22.808 8.19773C22.6204 7.67127 22.4603 7.22164 22.3646 6.87155C22.315 6.68998 22.2708 6.49326 22.2542 6.29831C22.2381 6.1084 22.241 5.84205 22.3558 5.56784C22.5837 5.02379 23.0626 4.63562 23.6419 4.52488Z" fill="white"/>
</svg>
