<svg width="36" height="36" viewBox="0 0 36 36" fill="none" xmlns="http://www.w3.org/2000/svg">
<path fill-rule="evenodd" clip-rule="evenodd" d="M5 17.9994C5 10.82 10.82 5 17.9994 5C25.1788 5 30.9989 10.82 30.9989 17.9994C30.9989 25.1788 25.1788 30.9989 17.9994 30.9989C10.82 30.9989 5 25.1788 5 17.9994ZM17.9994 3C9.71548 3 3 9.71548 3 17.9994C3 26.2834 9.71548 32.9989 17.9994 32.9989C26.2834 32.9989 32.9989 26.2834 32.9989 17.9994C32.9989 9.71548 26.2834 3 17.9994 3ZM13.0813 16.4858C14.1261 16.4858 14.9731 15.6388 14.9731 14.594C14.9731 13.5491 14.1261 12.7021 13.0813 12.7021C12.0364 12.7021 11.1895 13.5491 11.1895 14.594C11.1895 15.6388 12.0364 16.4858 13.0813 16.4858ZM24.811 14.594C24.811 15.6388 23.964 16.4858 22.9192 16.4858C21.8743 16.4858 21.0273 15.6388 21.0273 14.594C21.0273 13.5491 21.8743 12.7021 22.9192 12.7021C23.964 12.7021 24.811 13.5491 24.811 14.594ZM12.3115 21.2835C12.0353 20.8052 11.4238 20.6413 10.9455 20.9175C10.4672 21.1936 10.3033 21.8052 10.5794 22.2835C11.3314 23.5859 12.4129 24.6674 13.7153 25.4193C15.0177 26.1713 16.495 26.5671 17.9989 26.5671C19.5028 26.5671 20.9801 26.1713 22.2825 25.4193C23.5849 24.6674 24.6664 23.5859 25.4184 22.2835C25.6945 21.8052 25.5306 21.1936 25.0523 20.9175C24.5741 20.6413 23.9625 20.8052 23.6863 21.2835C23.1099 22.2819 22.2809 23.1109 21.2825 23.6873C20.2842 24.2637 19.1517 24.5671 17.9989 24.5671C16.8461 24.5671 15.7136 24.2637 14.7153 23.6873C13.7169 23.1109 12.8879 22.2819 12.3115 21.2835Z" fill="white"/>
</svg>
