<svg width="36" height="36" viewBox="0 0 36 36" fill="none" xmlns="http://www.w3.org/2000/svg">
<path d="M17.8433 3.86716C18.1928 3.4398 18.823 3.37615 19.2505 3.72555C19.6777 4.07499 19.7411 4.70527 19.3921 5.13278C17.0537 7.99405 16.4756 10.1832 16.6284 12.0107C16.7868 13.903 17.7321 15.5893 18.8697 17.4853C19.9663 19.313 21.2583 21.3567 21.6792 23.7314C22.1145 26.1877 21.612 28.8864 19.4429 32.0634C19.1315 32.5195 18.5093 32.6373 18.0532 32.3261C17.5973 32.0148 17.4804 31.3926 17.7915 30.9365C19.7185 28.114 20.0393 25.937 19.7105 24.081C19.3671 22.1436 18.308 20.4367 17.1548 18.5146C16.0425 16.6607 14.8377 14.5967 14.6353 12.1767C14.4275 9.69184 15.2783 7.00572 17.8433 3.86716Z" fill="white"/>
<path d="M9.34622 7.59762C9.70648 7.17941 10.3379 7.1321 10.7564 7.49216C11.1745 7.85235 11.2217 8.48381 10.8618 8.90231C9.23003 10.7991 8.92921 12.2533 9.10501 13.4746C9.29506 14.7947 10.0525 16.0173 10.9693 17.4648C11.8344 18.8307 12.8592 20.4217 13.1138 22.2441C13.382 24.1648 12.7896 26.1793 10.8599 28.4052C10.4982 28.8224 9.86606 28.8673 9.44876 28.5058C9.03146 28.1441 8.9864 27.512 9.34817 27.0947C10.9941 25.1961 11.3026 23.7412 11.1324 22.5215C10.9483 21.2036 10.1958 19.9814 9.27981 18.5351C8.41532 17.1701 7.38762 15.5802 7.12551 13.7597C6.84921 11.8405 7.4293 9.82572 9.34622 7.59762Z" fill="white"/>
<path d="M25.1109 7.59762C25.4711 7.17941 26.1025 7.1321 26.521 7.49216C26.9392 7.85235 26.9863 8.48381 26.6265 8.90231C24.9947 10.7991 24.6939 12.2533 24.8697 13.4746C25.0597 14.7947 25.8172 16.0173 26.7339 17.4648C27.599 18.8307 28.6239 20.4217 28.8784 22.2441C29.1466 24.1648 28.5542 26.1793 26.6245 28.4052C26.2628 28.8224 25.6307 28.8673 25.2134 28.5058C24.7961 28.1441 24.751 27.512 25.1128 27.0947C26.7587 25.1961 27.0672 23.7412 26.897 22.5215C26.713 21.2036 25.9604 19.9814 25.0445 18.5351C24.18 17.1701 23.1523 15.5802 22.8902 13.7597C22.6139 11.8405 23.1939 9.82572 25.1109 7.59762Z" fill="white"/>
</svg>
