<svg width="36" height="36" viewBox="0 0 36 36" fill="none" xmlns="http://www.w3.org/2000/svg">
<path d="M5 11C4.44772 11 4 10.5523 4 10C4 9.44772 4.44772 9 5 9H15C15.5523 9 16 9.44772 16 10C16 10.5523 15.5523 11 15 11H5Z" fill="white"/>
<path d="M4 18C4 18.5523 4.44772 19 5 19H22C22.5523 19 23 18.5523 23 18C23 17.4477 22.5523 17 22 17H5C4.44772 17 4 17.4477 4 18Z" fill="white"/>
<path d="M4 26C4 26.5523 4.44772 27 5 27H30C30.5523 27 31 26.5523 31 26C31 25.4477 30.5523 25 30 25H5C4.44772 25 4 25.4477 4 26Z" fill="white"/>
</svg>
