<svg width="36" height="36" viewBox="0 0 36 36" fill="none" xmlns="http://www.w3.org/2000/svg">
<path d="M4.5 5.75C5.05227 5.75002 5.5 6.19773 5.5 6.75V29.25C5.5 29.8023 5.05227 30.25 4.5 30.25C3.94777 30.2499 3.5 29.8022 3.5 29.25V6.75C3.5 6.19775 3.94777 5.75006 4.5 5.75Z" fill="white"/>
<path d="M31.5 5.75C32.0523 5.75 32.5 6.19772 32.5 6.75V29.25C32.5 29.8023 32.0523 30.25 31.5 30.25C30.9478 30.2499 30.5 29.8023 30.5 29.25V6.75C30.5 6.19775 30.9478 5.75005 31.5 5.75Z" fill="white"/>
<path d="M20.4893 12.375C20.8834 11.9882 21.5164 11.9936 21.9033 12.3877L26.7246 17.2998C27.1083 17.6908 27.1064 18.3179 26.7197 18.7061L21.8975 23.5439C21.5076 23.9351 20.8746 23.9367 20.4834 23.5469C20.0922 23.157 20.0916 22.524 20.4814 22.1328L23.6035 19H12.2061L15.4971 22.1113C15.8984 22.4907 15.9165 23.124 15.5371 23.5254C15.1578 23.9264 14.5253 23.9444 14.124 23.5654L9.00488 18.7266C8.80628 18.5386 8.69345 18.2773 8.69238 18.0039C8.69136 17.7303 8.80258 17.4678 9 17.2783L14.1182 12.3672C14.5166 11.9849 15.1498 11.9972 15.5322 12.3955C15.9146 12.7939 15.9013 13.4272 15.5029 13.8096L12.1797 17H23.6279L20.4756 13.7891C20.0888 13.3949 20.0952 12.7619 20.4893 12.375Z" fill="white"/>
</svg>
