<svg width="36" height="36" viewBox="0 0 36 36" fill="none" xmlns="http://www.w3.org/2000/svg">
<path d="M4 18C4.55229 18 5 18.4477 5 19V21.75C5 22.4666 5.00078 22.9438 5.03074 23.3106C5.05975 23.6656 5.11105 23.8281 5.16349 23.931C5.3073 24.2132 5.53677 24.4427 5.81902 24.5865C5.92194 24.639 6.0844 24.6903 6.43944 24.7193C6.80615 24.7492 7.28343 24.75 8 24.75H28C28.7166 24.75 29.1939 24.7492 29.5606 24.7193C29.9156 24.6903 30.0781 24.639 30.181 24.5865C30.4632 24.4427 30.6927 24.2132 30.8365 23.931C30.889 23.8281 30.9403 23.6656 30.9693 23.3106C30.9992 22.9438 31 22.4666 31 21.75V19C31 18.4477 31.4477 18 32 18C32.5523 18 33 18.4477 33 19V21.7902C33 22.456 33 23.0156 32.9626 23.4734C32.9235 23.9521 32.8386 24.4071 32.6185 24.839C32.283 25.4975 31.7475 26.033 31.089 26.3685C30.6571 26.5886 30.2022 26.6735 29.7234 26.7126C29.2656 26.75 28.706 26.75 28.0402 26.75H7.95984C7.29397 26.75 6.73445 26.75 6.27657 26.7126C5.79785 26.6735 5.34289 26.5886 4.91103 26.3685C4.25247 26.033 3.71704 25.4975 3.38148 24.839C3.16144 24.4071 3.0765 23.9521 3.03738 23.4734C2.99997 23.0156 2.99999 22.456 3 21.7902L3 19C3 18.4477 3.44772 18 4 18Z" fill="white"/>
</svg>
