<svg width="36" height="36" viewBox="0 0 36 36" fill="none" xmlns="http://www.w3.org/2000/svg">
<path fill-rule="evenodd" clip-rule="evenodd" d="M18 33C26.2843 33 33 26.2843 33 18C33 9.71573 26.2843 3 18 3C9.71573 3 3 9.71573 3 18C3 26.2843 9.71573 33 18 33ZM14.6515 9.91605C16.4311 9.17894 18.4041 9.04962 20.2647 9.54815C20.7981 9.69109 21.3465 9.37451 21.4894 8.84104C21.6324 8.30758 21.3158 7.75924 20.7823 7.6163C18.4965 7.00382 16.0725 7.1627 13.8862 8.0683C11.6998 8.97389 9.87345 10.5756 8.69023 12.625C7.50701 14.6744 7.03308 17.057 7.34197 19.4032C7.65085 21.7494 8.72527 23.9281 10.3986 25.6014C10.7891 25.9919 11.4223 25.9919 11.8128 25.6014C12.2033 25.2109 12.2033 24.5777 11.8128 24.1872C10.4508 22.8252 9.57627 21.0518 9.32486 19.1421C9.07344 17.2324 9.45919 15.2931 10.4223 13.625C11.3854 11.9569 12.872 10.6532 14.6515 9.91605ZM27.159 14.5106C27.6924 14.3676 28.2408 14.6842 28.3837 15.2177C28.8721 17.0404 28.8721 18.9596 28.3837 20.7823C27.8953 22.605 26.9357 24.2671 25.6014 25.6014C25.2109 25.9919 24.5777 25.9919 24.1872 25.6014C23.7967 25.2109 23.7967 24.5777 24.1872 24.1872C25.2733 23.1011 26.0543 21.7483 26.4519 20.2647C26.8494 18.7811 26.8494 17.2189 26.4519 15.7353C26.3089 15.2019 26.6255 14.6535 27.159 14.5106ZM25.4969 10.3752C25.166 10.0976 24.6824 10.1019 24.3565 10.3854L16.3022 17.3937C15.1139 18.4277 15.1305 20.2788 16.3371 21.2913C17.5438 22.3039 19.3697 21.9988 20.1816 20.6489L25.6848 11.5C25.9074 11.1299 25.8277 10.6528 25.4969 10.3752Z" fill="white"/>
</svg>
