<svg width="36" height="36" viewBox="0 0 36 36" fill="none" xmlns="http://www.w3.org/2000/svg">
<path fill-rule="evenodd" clip-rule="evenodd" d="M5 17.9994C5 10.82 10.82 5 17.9994 5C25.1788 5 30.9989 10.82 30.9989 17.9994C30.9989 25.1788 25.1788 30.9989 17.9994 30.9989C10.82 30.9989 5 25.1788 5 17.9994ZM17.9994 3C9.71548 3 3 9.71548 3 17.9994C3 26.2834 9.71548 32.9989 17.9994 32.9989C26.2834 32.9989 32.9989 26.2834 32.9989 17.9994C32.9989 9.71548 26.2834 3 17.9994 3ZM14.6176 9.83471C16.4149 9.09023 18.4077 8.95962 20.2869 9.46313C20.8203 9.60607 21.3687 9.28949 21.5116 8.75602C21.6545 8.22256 21.338 7.67422 20.8045 7.53128C18.5001 6.91381 16.0563 7.07399 13.8522 7.98695C11.6482 8.89992 9.8069 10.5147 8.61405 12.5807C7.42121 14.6468 6.94343 17.0487 7.25483 19.414C7.56622 21.7793 8.64938 23.9757 10.3363 25.6627C10.7268 26.0532 11.36 26.0532 11.7505 25.6627C12.1411 25.2722 12.1411 24.639 11.7505 24.2485C10.3749 22.8728 9.49164 21.0817 9.23771 19.153C8.98379 17.2242 9.37339 15.2655 10.3461 13.5807C11.3188 11.8959 12.8203 10.5792 14.6176 9.83471ZM27.243 14.4874C27.7764 14.3445 28.3248 14.661 28.4677 15.1945C28.9601 17.0321 28.9601 18.9668 28.4677 20.8044C27.9754 22.6419 27.008 24.3175 25.6628 25.6627C25.2723 26.0532 24.6391 26.0532 24.2486 25.6627C23.858 25.2722 23.858 24.639 24.2486 24.2485C25.3455 23.1515 26.1344 21.7852 26.5359 20.2867C26.9374 18.7883 26.9374 17.2106 26.5359 15.7121C26.3929 15.1787 26.7095 14.6303 27.243 14.4874ZM25.5636 10.306C25.2298 10.0259 24.7418 10.0303 24.4131 10.3163L16.2865 17.3875C15.0875 18.4307 15.1042 20.2984 16.3217 21.32C17.5393 22.3417 19.3815 22.0338 20.2007 20.6719L25.7533 11.4409C25.9779 11.0675 25.8974 10.5861 25.5636 10.306Z" fill="white"/>
</svg>
