<svg width="36" height="36" viewBox="0 0 36 36" fill="none" xmlns="http://www.w3.org/2000/svg">
<path fill-rule="evenodd" clip-rule="evenodd" d="M7.96352 4.60156C7.97552 4.60156 7.98755 4.60157 7.99961 4.60157L27.9857 4.60156C28.3748 4.60154 28.7249 4.60152 29.0162 4.62532C29.3282 4.65081 29.6597 4.7085 29.9846 4.87405C30.455 5.11373 30.8374 5.49618 31.0771 5.96659C31.2427 6.29149 31.3004 6.62297 31.3259 6.93494C31.3497 7.22625 31.3496 7.57638 31.3496 7.96546V27.9877C31.3496 28.3768 31.3497 28.7269 31.3259 29.0182C31.3004 29.3302 31.2427 29.6616 31.0771 29.9865C30.8374 30.4569 30.455 30.8394 29.9846 31.0791C29.6597 31.2446 29.3282 31.3023 29.0162 31.3278C28.7249 31.3516 28.3748 31.3516 27.9857 31.3516H7.9635C7.57442 31.3516 7.22429 31.3516 6.93298 31.3278C6.62101 31.3023 6.28954 31.2446 5.96464 31.0791C5.49423 30.8394 5.11178 30.4569 4.8721 29.9865C4.70655 29.6616 4.64886 29.3302 4.62337 29.0182C4.59957 28.7269 4.59959 28.3767 4.59961 27.9877L4.59961 8.00156C4.59961 7.9895 4.59961 7.97747 4.59961 7.96548C4.59959 7.57639 4.59957 7.22625 4.62337 6.93494C4.64886 6.62297 4.70655 6.29149 4.8721 5.96659C5.11178 5.49618 5.49423 5.11373 5.96464 4.87405C6.28954 4.7085 6.62101 4.65081 6.93298 4.62532C7.2243 4.60152 7.57443 4.60154 7.96352 4.60156ZM6.8804 6.65289C6.8752 6.65475 6.87262 6.65606 6.87262 6.65606C6.77854 6.704 6.70205 6.78049 6.65411 6.87457C6.65411 6.87457 6.65279 6.87715 6.65094 6.88235C6.649 6.88777 6.64579 6.89778 6.64196 6.91406C6.6339 6.94829 6.62434 7.00465 6.61673 7.0978C6.60039 7.29776 6.59961 7.56502 6.59961 8.00156V27.9516C6.59961 28.3881 6.60039 28.6554 6.61673 28.8553C6.62434 28.9485 6.6339 29.0048 6.64196 29.0391C6.64579 29.0553 6.649 29.0654 6.65094 29.0708C6.65279 29.076 6.65411 29.0786 6.65411 29.0786C6.70205 29.1726 6.77854 29.2491 6.87262 29.2971C6.87262 29.2971 6.8752 29.2984 6.8804 29.3002C6.88582 29.3022 6.89583 29.3054 6.91211 29.3092C6.94634 29.3173 7.0027 29.3268 7.09585 29.3344C7.29581 29.3508 7.56307 29.3516 7.99961 29.3516H27.9496C28.3862 29.3516 28.6534 29.3508 28.8534 29.3344C28.9465 29.3268 29.0029 29.3173 29.0371 29.3092C29.0534 29.3054 29.0634 29.3022 29.0688 29.3002C29.074 29.2984 29.0766 29.2971 29.0766 29.2971C29.1707 29.2491 29.2472 29.1726 29.2951 29.0786C29.2951 29.0786 29.2964 29.076 29.2983 29.0708C29.3002 29.0654 29.3034 29.0553 29.3073 29.0391C29.3153 29.0048 29.3249 28.9485 29.3325 28.8553C29.3488 28.6554 29.3496 28.3881 29.3496 27.9516V8.00157C29.3496 7.56503 29.3488 7.29776 29.3325 7.0978C29.3249 7.00465 29.3153 6.94829 29.3073 6.91406C29.3034 6.89778 29.3002 6.88777 29.2983 6.88235C29.2964 6.87715 29.2951 6.87457 29.2951 6.87457C29.2472 6.78049 29.1707 6.704 29.0766 6.65606C29.0766 6.65606 29.074 6.65475 29.0688 6.65289C29.0634 6.65096 29.0534 6.64774 29.0371 6.64391C29.0029 6.63585 28.9465 6.62629 28.8534 6.61868C28.6534 6.60234 28.3862 6.60157 27.9496 6.60157H7.99961C7.56307 6.60157 7.29581 6.60234 7.09585 6.61868C7.0027 6.62629 6.94634 6.63585 6.91211 6.64391C6.89583 6.64774 6.88582 6.65096 6.8804 6.65289Z" fill="white"/>
</svg>
