<svg width="36" height="36" viewBox="0 0 36 36" fill="none" xmlns="http://www.w3.org/2000/svg">
<path fill-rule="evenodd" clip-rule="evenodd" d="M10.5 32.928C10.1428 32.9062 9.81075 32.8778 9.5 32.8408C8.53133 32.7253 7.7694 32.5261 7.09507 32.1825C5.68386 31.4635 4.5365 30.3161 3.81745 28.9049C3 27.3006 3 25.2004 3 21V15C3 10.7996 3 8.69941 3.81745 7.09507C4.5365 5.68386 5.68386 4.5365 7.09507 3.81745C8.69941 3 10.7996 3 15 3H21C25.2004 3 27.3006 3 28.9049 3.81745C30.3161 4.5365 31.4635 5.68386 32.1825 7.09507C32.5261 7.7694 32.7253 8.53133 32.8408 9.5C32.8778 9.81075 32.9062 10.1428 32.928 10.5C33 11.6785 33 13.1315 33 15V21C33 25.2004 33 27.3006 32.1825 28.9049C31.4635 30.3161 30.3161 31.4635 28.9049 32.1825C27.3006 33 25.2004 33 21 33H15C13.1315 33 11.6785 33 10.5 32.928ZM19 31H21C23.1332 31 24.6128 30.9984 25.7631 30.9045C26.8901 30.8124 27.5237 30.6417 27.9969 30.4005C29.0318 29.8732 29.8732 29.0318 30.4005 27.9969C30.6417 27.5237 30.8124 26.8901 30.9045 25.7631C30.9984 24.6128 31 23.1332 31 21V19H25.2C23.9234 19 23.0261 19.0008 22.3258 19.058C21.6373 19.1142 21.2279 19.22 20.911 19.3815C20.2525 19.717 19.717 20.2525 19.3815 20.911C19.22 21.2279 19.1142 21.6373 19.058 22.3258C19.0008 23.0261 19 23.9234 19 25.2V31ZM31 17H25.1567C23.9333 17 22.9542 17 22.163 17.0646C21.3508 17.131 20.6488 17.2704 20.0031 17.5995C18.9682 18.1268 18.1268 18.9682 17.5995 20.0031C17.2704 20.6488 17.131 21.3508 17.0646 22.163C17 22.9542 17 23.9333 17 25.1567V31H15C13.5784 31 12.4443 30.9995 11.5 30.9707V24.9C11.5 22.3633 11.5008 20.5209 11.6193 19.0702C11.7369 17.6313 11.9653 16.6662 12.3719 15.8681C13.1389 14.3628 14.3628 13.1389 15.8681 12.3719C16.6662 11.9653 17.6313 11.7369 19.0702 11.6193C20.5209 11.5008 22.3633 11.5 24.9 11.5H30.9707C30.9995 12.4443 31 13.5784 31 15V17ZM30.8237 9.5C30.7258 8.81407 30.5843 8.36372 30.4005 8.00305C29.8732 6.96816 29.0318 6.12677 27.9969 5.59946C27.5237 5.35834 26.8901 5.18762 25.7631 5.09554C24.6128 5.00156 23.1332 5 21 5H15C12.8668 5 11.3872 5.00156 10.2369 5.09554C9.10992 5.18762 8.47629 5.35834 8.00305 5.59946C6.96816 6.12677 6.12677 6.96816 5.59946 8.00305C5.35834 8.47629 5.18762 9.10992 5.09554 10.2369C5.00156 11.3872 5 12.8668 5 15V21C5 23.1332 5.00156 24.6128 5.09554 25.7631C5.18762 26.8901 5.35834 27.5237 5.59946 27.9969C6.12677 29.0318 6.96816 29.8732 8.00305 30.4005C8.36372 30.5843 8.81407 30.7258 9.5 30.8237V24.8545C9.5 22.3727 9.49999 20.4489 9.62594 18.9074C9.75361 17.3448 10.0157 16.0872 10.5899 14.9601C11.5487 13.0785 13.0785 11.5487 14.9601 10.5899C16.0872 10.0157 17.3448 9.75361 18.9074 9.62594C20.4489 9.49999 22.3727 9.5 24.8545 9.5H30.8237Z" fill="white"/>
</svg>
