<svg width="36" height="36" viewBox="0 0 36 36" fill="none" xmlns="http://www.w3.org/2000/svg">
<path fill-rule="evenodd" clip-rule="evenodd" d="M3.81745 7.09507C3 8.69941 3 10.7996 3 15V21C3 25.2004 3 27.3006 3.81745 28.9049C4.5365 30.3161 5.68386 31.4635 7.09507 32.1825C7.7694 32.5261 8.53133 32.7253 9.5 32.8408V24.8545C9.5 22.3727 9.49999 20.4489 9.62594 18.9074C9.75361 17.3448 10.0157 16.0872 10.5899 14.9601C11.5487 13.0785 13.0785 11.5487 14.9601 10.5899C16.0872 10.0157 17.3448 9.75361 18.9074 9.62594C20.4489 9.49999 22.3727 9.5 24.8545 9.5H32.8408C32.7253 8.53133 32.5261 7.7694 32.1825 7.09507C31.4635 5.68386 30.3161 4.5365 28.9049 3.81745C27.3006 3 25.2004 3 21 3H15C10.7996 3 8.69941 3 7.09507 3.81745C5.68386 4.5365 4.5365 5.68386 3.81745 7.09507ZM32.9715 11.5H24.9C22.3633 11.5 20.5209 11.5008 19.0702 11.6193C17.6313 11.7369 16.6662 11.9653 15.8681 12.3719C14.3628 13.1389 13.1389 14.3628 12.3719 15.8681C11.9653 16.6662 11.7369 17.6313 11.6193 19.0702C11.5008 20.5209 11.5 22.3633 11.5 24.9V32.9715C12.4798 33 13.6279 33 15 33H17V25.1567C17 23.9333 17 22.9542 17.0646 22.163C17.131 21.3507 17.2704 20.6488 17.5995 20.0031C18.1268 18.9682 18.9682 18.1268 20.0031 17.5995C20.6488 17.2704 21.3507 17.131 22.163 17.0646C22.9542 17 23.9333 17 25.1567 17H33V15C33 13.6279 33 12.4798 32.9715 11.5ZM33 19H25.2C23.9234 19 23.0261 19.0008 22.3258 19.058C21.6373 19.1142 21.2279 19.22 20.911 19.3815C20.2525 19.717 19.717 20.2525 19.3815 20.911C19.22 21.2279 19.1142 21.6373 19.058 22.3258C19.0008 23.0261 19 23.9234 19 25.2V33H21C25.2004 33 27.3006 33 28.9049 32.1825C30.3161 31.4635 31.4635 30.3161 32.1825 28.9049C33 27.3006 33 25.2004 33 21V19Z" fill="white"/>
</svg>
