<svg width="36" height="36" viewBox="0 0 36 36" fill="none" xmlns="http://www.w3.org/2000/svg">
<path fill-rule="evenodd" clip-rule="evenodd" d="M19.2915 4.32995C18.7533 3.27543 17.2466 3.27544 16.7084 4.32995L12.8439 11.9024L4.44787 13.2378C3.27866 13.4237 2.81306 14.8567 3.64966 15.6944L9.65732 21.7098L8.63104 28.2165L11.0349 25.8126L11.6765 21.745C11.7487 21.2872 11.5977 20.8224 11.2702 20.4944L5.82636 15.0437L13.4344 13.8337C13.8921 13.7609 14.2875 13.4736 14.4982 13.0608L18 6.19902L21.5017 13.0608C21.7124 13.4736 22.1078 13.7609 22.5655 13.8337L22.9523 13.8952L24.6996 12.1479L23.156 11.9024L19.2915 4.32995ZM27.1399 12.536L25.3927 14.2833L30.1735 15.0437L24.7297 20.4944C24.4022 20.8224 24.2512 21.2872 24.3234 21.745L25.5237 29.3546L18.6574 25.8616C18.2443 25.6514 17.7556 25.6514 17.3425 25.8616L10.4763 29.3546L10.5053 29.1707L8.54914 31.1268C8.93065 31.705 9.71356 31.9865 10.4225 31.6258L18 27.7711L25.5774 31.6258C26.6326 32.1626 27.8516 31.277 27.6671 30.1075L26.3426 21.7098L32.3503 15.6944C33.1869 14.8567 32.7212 13.4237 31.552 13.2378L27.1399 12.536Z" fill="white"/>
<path fill-rule="evenodd" clip-rule="evenodd" d="M31.1629 4.29199C31.5534 4.68251 31.5534 5.31568 31.1629 5.7062L5.70706 31.162C5.31654 31.5526 4.68337 31.5526 4.29285 31.162C3.90232 30.7715 3.90232 30.1384 4.29285 29.7478L29.7487 4.29199C30.1392 3.90147 30.7724 3.90147 31.1629 4.29199Z" fill="white"/>
</svg>
