<svg width="36" height="36" viewBox="0 0 36 36" fill="none" xmlns="http://www.w3.org/2000/svg">
<path fill-rule="evenodd" clip-rule="evenodd" d="M28.1021 4.77496C28.4655 4.2755 28.3546 3.57644 27.8545 3.21357C27.3543 2.85069 26.6543 2.96141 26.2909 3.46087L23.1534 7.77323C22.79 8.27269 22.9009 8.97175 23.401 9.33463C23.9012 9.69751 24.6012 9.58678 24.9646 9.08732L28.1021 4.77496ZM9.70904 3.46094C9.34565 2.96148 8.64561 2.85076 8.14545 3.21364C7.64529 3.57651 7.53441 4.27557 7.89779 4.77503L11.0353 9.08739C11.3987 9.58685 12.0987 9.69757 12.5989 9.3347C13.0991 8.97182 13.2099 8.27276 12.8465 7.7733L9.70904 3.46094ZM8.54224 21.0022C9.13022 20.8114 9.452 20.1808 9.26095 19.5936C9.06991 19.0065 8.43839 18.6851 7.85042 18.8759L2.7738 20.5231C2.18582 20.7138 1.86405 21.3445 2.05509 21.9316C2.24613 22.5188 2.87765 22.8401 3.46562 22.6493L8.54224 21.0022ZM28.1496 18.876C27.5616 18.6852 26.9301 19.0065 26.739 19.5937C26.548 20.1808 26.8698 20.8114 27.4578 21.0022L32.5344 22.6494C33.1224 22.8401 33.7539 22.5188 33.9449 21.9317C34.136 21.3445 33.8142 20.7139 33.2262 20.5231L28.1496 18.876ZM19.1193 27.0518C19.1193 26.4344 18.6182 25.934 17.9999 25.934C17.3817 25.934 16.8805 26.4344 16.8805 27.0518V32.3822C16.8805 32.9995 17.3817 33.5 17.9999 33.5C18.6182 33.5 19.1193 32.9995 19.1193 32.3822V27.0518ZM19.396 5.10696C18.8143 3.96884 17.1858 3.96883 16.6041 5.10696L13.6825 10.824L7.33477 11.8321C6.07108 12.0328 5.56784 13.5794 6.47205 14.4835L11.014 19.025L10.0126 25.365C9.81328 26.6272 11.1308 27.5831 12.2713 27.0037L18 24.0935L23.7288 27.0037C24.8693 27.5831 26.1868 26.6272 25.9875 25.365L24.9861 19.025L29.528 14.4835C30.4323 13.5794 29.929 12.0328 28.6653 11.8321L22.3176 10.824L19.396 5.10696ZM15.5213 12.1441L18 7.29383L20.4788 12.1441C20.7065 12.5897 21.1338 12.8997 21.6286 12.9783L27.0139 13.8336L23.1605 17.6865C22.8065 18.0405 22.6433 18.5421 22.7213 19.0362L23.5709 24.4151L18.7106 21.9461C18.2641 21.7193 17.736 21.7193 17.2895 21.9461L12.4292 24.4151L13.2788 19.0362C13.3568 18.5421 13.1936 18.0405 12.8396 17.6865L8.98617 13.8336L14.3715 12.9783C14.8663 12.8997 15.2936 12.5897 15.5213 12.1441Z" fill="white"/>
</svg>
