<svg width="36" height="36" viewBox="0 0 36 36" fill="none" xmlns="http://www.w3.org/2000/svg">
<path fill-rule="evenodd" clip-rule="evenodd" d="M15.6547 4.95663C16.4601 2.78008 19.5388 2.78008 20.3442 4.95663L23.1547 12.5514C23.2054 12.6878 23.3131 12.7957 23.4496 12.8463L31.0444 15.6568C33.2209 16.4622 33.2209 19.5409 31.0444 20.3463L23.4496 23.1568C23.3131 23.2075 23.2053 23.3152 23.1547 23.4517L20.3442 31.0465C19.5386 33.2224 16.4603 33.2225 15.6547 31.0465L12.8442 23.4517C12.7935 23.3151 12.6859 23.2075 12.5492 23.1568L4.95452 20.3463C2.77808 19.5409 2.77828 16.4624 4.95452 15.6568L12.5492 12.8463C12.6857 12.7957 12.7934 12.6878 12.8442 12.5514L15.6547 4.95663ZM18.4682 5.64999C18.307 5.21518 17.6919 5.21517 17.5307 5.64999L14.7201 13.2457C14.4668 13.9294 13.9274 14.4691 13.2436 14.7223L5.64788 17.5328C5.21337 17.6942 5.21317 18.3091 5.64788 18.4703L13.2436 21.2808C13.9275 21.5341 14.4669 22.0734 14.7201 22.7574L17.5307 30.3531C17.6921 30.7874 18.3067 30.7873 18.4682 30.3531L21.2787 22.7574C21.5319 22.0735 22.0715 21.5341 22.7553 21.2808L30.351 18.4703C30.7858 18.3091 30.7858 17.694 30.351 17.5328L22.7553 14.7223C22.0715 14.4691 21.532 13.9295 21.2787 13.2457L18.4682 5.64999Z" fill="white"/>
</svg>
