<svg width="36" height="36" viewBox="0 0 36 36" fill="none" xmlns="http://www.w3.org/2000/svg">
<path d="M31.1622 5.70711C31.5527 5.31658 31.5527 4.68342 31.1622 4.29289C30.7717 3.90237 30.1385 3.90237 29.748 4.29289L22.0082 12.0327L19.2142 5.31522C18.765 4.23522 17.2351 4.23522 16.7859 5.31522L13.6082 12.9552L5.36026 13.6164C4.19431 13.7099 3.72154 15.1649 4.60987 15.9259L10.894 21.3089L10.3182 23.7227L4.29216 29.7487C3.90164 30.1393 3.90164 30.7724 4.29216 31.163C4.68268 31.5535 5.31585 31.5535 5.70637 31.163L31.1622 5.70711Z" fill="white"/>
<path d="M10.9386 30.7848C10.3133 31.1668 9.59391 30.9565 9.21048 30.4664L26.4004 13.2765L30.6398 13.6164C31.8058 13.7099 32.2785 15.1649 31.3902 15.9259L25.1061 21.3089L27.026 29.3575C27.2974 30.4953 26.0597 31.3945 25.0615 30.7848L18 26.4718L10.9386 30.7848Z" fill="white"/>
</svg>
