<svg width="36" height="36" viewBox="0 0 36 36" fill="none" xmlns="http://www.w3.org/2000/svg">
<path fill-rule="evenodd" clip-rule="evenodd" d="M18 33C26.2843 33 33 26.2843 33 18C33 9.71573 26.2843 3 18 3C9.71573 3 3 9.71573 3 18C3 26.2843 9.71573 33 18 33ZM18.7133 6.69529C18.4888 6.0043 17.5112 6.00431 17.2867 6.69529L15.1374 13.31C15.037 13.6191 14.7491 13.8283 14.4242 13.8283H7.469C6.74246 13.8283 6.44038 14.758 7.02816 15.185L12.655 19.2732C12.9179 19.4642 13.0279 19.8027 12.9275 20.1117L10.7782 26.7264C10.5537 27.4174 11.3445 27.992 11.9323 27.565L17.5592 23.4768C17.822 23.2858 18.178 23.2858 18.4408 23.4768L24.0677 27.565C24.6555 27.992 25.4463 27.4174 25.2218 26.7264L23.0725 20.1117C22.9721 19.8027 23.0821 19.4642 23.345 19.2732L28.9718 15.185C29.5596 14.758 29.2575 13.8283 28.531 13.8283H21.5758C21.2509 13.8283 20.963 13.619 20.8626 13.31L18.7133 6.69529Z" fill="white"/>
</svg>
