<svg width="36" height="36" viewBox="0 0 36 36" fill="none" xmlns="http://www.w3.org/2000/svg">
<path fill-rule="evenodd" clip-rule="evenodd" d="M17.7168 5.88825C17.2323 4.70392 15.5551 4.70392 15.0706 5.88825L12.1511 13.0245L4.56544 13.6428C3.30457 13.7456 2.78873 15.3148 3.74272 16.1456L9.53925 21.1937L7.76947 28.7366C7.47844 29.977 8.83295 30.9497 9.91536 30.2776L16.9212 25.9271C17.3904 25.6358 17.5346 25.0192 17.2432 24.5501C16.9519 24.0809 16.3354 23.9367 15.8662 24.2281L10.0315 27.8512L11.5649 21.3158C11.686 20.7999 11.5116 20.2593 11.112 19.9113L6.07681 15.5262L12.6626 14.9895C13.1992 14.9457 13.6657 14.6042 13.8696 14.1059L16.3937 7.93611L19.0177 14.35C19.2268 14.8612 19.8107 15.106 20.3219 14.8969C20.833 14.6878 21.0779 14.1039 20.8688 13.5927L17.7168 5.88825ZM25.0909 13.8436C24.7056 12.638 22.9996 12.6379 22.6143 13.8436L21.1138 18.5387H16.2552C15.0011 18.5387 14.474 20.1392 15.4828 20.8843L19.4319 23.8013L17.9241 28.5191C17.5401 29.7206 18.9202 30.71 19.9348 29.9606L23.8526 27.0667L27.7705 29.9606C28.7851 30.71 30.1651 29.7206 29.7811 28.5191L28.2733 23.8013L32.2224 20.8843C33.2312 20.1392 32.7042 18.5387 31.45 18.5387H26.5914L25.0909 13.8436ZM22.8633 19.6344L23.8526 16.5388L24.842 19.6344C25.0141 20.1731 25.5148 20.5387 26.0803 20.5387H29.3242L26.6814 22.4907C26.2333 22.8217 26.0459 23.4015 26.2155 23.9321L27.2168 27.0652L24.625 25.1507C24.1659 24.8116 23.5393 24.8116 23.0802 25.1507L20.4884 27.0652L21.4897 23.9321C21.6593 23.4015 21.4719 22.8217 21.0238 22.4907L18.3811 20.5387H21.625C22.1905 20.5387 22.6911 20.1731 22.8633 19.6344Z" fill="white"/>
</svg>
