<svg width="36" height="36" viewBox="0 0 36 36" fill="none" xmlns="http://www.w3.org/2000/svg">
<path fill-rule="evenodd" clip-rule="evenodd" d="M30.8471 20C30.9478 19.3481 31 18.6801 31 18C31 17.4926 30.9709 16.992 30.9144 16.4997C27.7075 16.481 25.7889 15.4181 24.0312 14.4444L24.0154 14.4357C22.2931 13.4815 20.7319 12.6221 18 12.6221C15.3606 12.6221 13.9972 13.4212 12.4243 14.3432L12.2864 14.4239C10.5754 15.4254 8.66072 16.483 5.08563 16.4998C5.02907 16.992 5 17.4926 5 18C5 18.6801 5.05223 19.3481 5.1529 20H10.5C13.5376 20 16 22.4624 16 25.5V30.8471C16.6519 30.9478 17.3199 31 18 31C18.6801 31 19.3481 30.9478 20 30.8471V25.5C20 22.4624 22.4624 20 25.5 20H30.8471ZM30.373 22H25.5C23.567 22 22 23.567 22 25.5V30.373C25.9624 29.093 29.093 25.9624 30.373 22ZM14 30.373C10.0376 29.093 6.90704 25.9624 5.627 22H10.5C12.433 22 14 23.567 14 25.5V30.373ZM5.47857 14.4929C7.00916 9.01682 12.0355 5 18 5C23.9638 5 28.9896 9.01583 30.5209 14.4909C28.0803 14.3964 26.6037 13.5831 24.9846 12.6862L24.9691 12.6776C23.1957 11.6951 21.2586 10.6221 18 10.6221C14.8159 10.6221 13.0642 11.6493 11.4292 12.6082L11.2761 12.6979C9.7715 13.5786 8.28442 14.4081 5.47857 14.4929ZM18 33C26.2843 33 33 26.2843 33 18C33 9.71573 26.2843 3 18 3C9.71573 3 3 9.71573 3 18C3 26.2843 9.71573 33 18 33ZM21 18C21 19.6569 19.6569 21 18 21C16.3431 21 15 19.6569 15 18C15 16.3431 16.3431 15 18 15C19.6569 15 21 16.3431 21 18Z" fill="white"/>
</svg>
