<svg width="36" height="36" viewBox="0 0 36 36" fill="none" xmlns="http://www.w3.org/2000/svg">
<path fill-rule="evenodd" clip-rule="evenodd" d="M31.4004 11.5591V21.3516C31.4004 21.6168 31.295 21.8711 31.1075 22.0587L22.1075 31.0587C21.92 31.2462 21.6656 31.3516 21.4004 31.3516H11.6079C10.5939 31.3516 9.77217 31.3516 9.10597 31.2972C8.4188 31.241 7.80949 31.122 7.24394 30.8338C6.35017 30.3784 5.62351 29.6518 5.16811 28.758C4.87995 28.1925 4.76095 27.5831 4.7048 26.896C4.65037 26.2298 4.65038 25.4081 4.65039 24.3941V11.559C4.65038 10.545 4.65037 9.72334 4.7048 9.05714C4.76095 8.36998 4.87995 7.76066 5.16811 7.19511C5.62351 6.30134 6.35017 5.57468 7.24394 5.11928C7.80949 4.83112 8.4188 4.71212 9.10597 4.65597C9.77217 4.60154 10.5939 4.60155 11.6079 4.60156H24.4429C25.4569 4.60155 26.2786 4.60154 26.9448 4.65597C27.632 4.71212 28.2413 4.83112 28.8068 5.11928C29.7006 5.57468 30.4273 6.30134 30.8827 7.19511C31.1708 7.76066 31.2898 8.36998 31.346 9.05714C31.4004 9.72334 31.4004 10.545 31.4004 11.5591ZM29.3526 9.22C29.3066 8.65652 29.2212 8.33971 29.1007 8.10309C28.837 7.58564 28.4163 7.16495 27.8989 6.9013C27.6622 6.78073 27.3454 6.69537 26.782 6.64933C26.2068 6.60234 25.467 6.60156 24.4004 6.60156H11.6504C10.5838 6.60156 9.84398 6.60234 9.26883 6.64933C8.70535 6.69537 8.38853 6.78073 8.15192 6.9013C7.63447 7.16495 7.21377 7.58564 6.95012 8.10309C6.82956 8.33971 6.7442 8.65652 6.69816 9.22C6.65117 9.79516 6.65039 10.535 6.65039 11.6016V24.3516C6.65039 25.4182 6.65117 26.158 6.69816 26.7331C6.7442 27.2966 6.82956 27.6134 6.95012 27.85C7.21377 28.3675 7.63447 28.7882 8.15192 29.0518C8.38853 29.1724 8.70535 29.2578 9.26883 29.3038C9.84398 29.3508 10.5838 29.3516 11.6504 29.3516H20.4004V26.1103C20.4004 25.3053 20.4004 24.6409 20.4446 24.0997C20.4905 23.5376 20.5891 23.0209 20.8364 22.5356C21.2199 21.783 21.8318 21.171 22.5844 20.7875C23.0698 20.5402 23.5865 20.4417 24.1486 20.3958C24.6898 20.3515 25.3541 20.3516 26.1591 20.3516H29.4004V11.6016C29.4004 10.535 29.3996 9.79516 29.3526 9.22ZM27.9862 22.3516L22.4004 27.9373V26.1516C22.4004 25.295 22.4012 24.7127 22.4379 24.2626C22.4738 23.8242 22.5387 23.6 22.6184 23.4436C22.8101 23.0673 23.1161 22.7613 23.4924 22.5695C23.6488 22.4899 23.873 22.4249 24.3114 22.3891C24.7615 22.3523 25.3438 22.3516 26.2004 22.3516H27.9862Z" fill="white"/>
</svg>
