<svg width="36" height="36" viewBox="0 0 36 36" fill="none" xmlns="http://www.w3.org/2000/svg">
<path fill-rule="evenodd" clip-rule="evenodd" d="M18 7.5C19.2426 7.5 20.25 6.49264 20.25 5.25C20.25 4.00736 19.2426 3 18 3C16.7574 3 15.75 4.00736 15.75 5.25C15.75 6.49264 16.7574 7.5 18 7.5ZM18 33C19.2426 33 20.25 31.9926 20.25 30.75C20.25 29.5074 19.2426 28.5 18 28.5C16.7574 28.5 15.75 29.5074 15.75 30.75C15.75 31.9926 16.7574 33 18 33ZM25.5009 18C25.5009 22.1421 22.143 25.5 18.0009 25.5C13.8587 25.5 10.5009 22.1421 10.5009 18C10.5009 13.8579 13.8587 10.5 18.0009 10.5C22.143 10.5 25.5009 13.8579 25.5009 18ZM28.6061 10.5752C27.7274 11.4539 26.3028 11.4539 25.4241 10.5752C24.5455 9.69654 24.5455 8.27191 25.4241 7.39323C26.3028 6.51455 27.7274 6.51455 28.6061 7.39323C29.4848 8.27191 29.4848 9.69654 28.6061 10.5752ZM10.574 28.6068C9.69534 29.4855 8.27072 29.4855 7.39204 28.6068C6.51336 27.7282 6.51336 26.3035 7.39204 25.4249C8.27072 24.5462 9.69534 24.5462 10.574 25.4249C11.4527 26.3035 11.4527 27.7282 10.574 28.6068ZM10.5775 10.5749C11.4562 9.6962 11.4562 8.27158 10.5775 7.3929C9.69887 6.51422 8.27425 6.51422 7.39557 7.3929C6.51689 8.27158 6.51689 9.6962 7.39557 10.5749C8.27425 11.4536 9.69887 11.4536 10.5775 10.5749ZM28.6098 28.6064C29.4885 27.7277 29.4885 26.3031 28.6098 25.4244C27.7311 24.5457 26.3065 24.5457 25.4278 25.4244C24.5491 26.3031 24.5491 27.7277 25.4278 28.6064C26.3065 29.4851 27.7311 29.4851 28.6098 28.6064ZM5.25 15.75C6.49264 15.75 7.5 16.7574 7.5 18C7.5 19.2426 6.49264 20.25 5.25 20.25C4.00736 20.25 3 19.2426 3 18C3 16.7574 4.00736 15.75 5.25 15.75ZM30.75 15.75C31.9926 15.75 33 16.7574 33 18C33 19.2426 31.9926 20.25 30.75 20.25C29.5074 20.25 28.5 19.2426 28.5 18C28.5 16.7574 29.5074 15.75 30.75 15.75Z" fill="white"/>
</svg>
