<svg width="36" height="36" viewBox="0 0 36 36" fill="none" xmlns="http://www.w3.org/2000/svg">
<path d="M18.6795 5.26636C18.5012 5.10105 18.2624 5 18 5C17.7117 5 17.452 5.12196 17.2695 5.3171L12.7718 10.0959C12.3933 10.4981 12.4125 11.1309 12.8146 11.5094C13.2168 11.888 13.8497 11.8688 14.2282 11.4666L17 8.52158V15.5625C17 16.1148 17.4477 16.5625 18 16.5625C18.5523 16.5625 19 16.1148 19 15.5625V8.52157L21.7718 11.4666C22.1503 11.8688 22.7832 11.888 23.1854 11.5094C23.5875 11.1309 23.6067 10.4981 23.2282 10.0959L18.7291 5.31562" fill="white"/>
<path d="M18.6795 5.26636C18.6955 5.28114 18.711 5.29644 18.7259 5.31223L18.6795 5.26636Z" fill="white"/>
<path d="M11.9285 22.9959C13.5025 21.107 15.6807 20 18 20C20.3193 20 22.4975 21.107 24.0715 22.9959C25.4388 24.6366 26.2668 26.7614 26.4575 29H31.5C32.0523 29 32.5 29.4477 32.5 30C32.5 30.5523 32.0523 31 31.5 31H4.5C3.94772 31 3.5 30.5523 3.5 30C3.5 29.4477 3.94772 29 4.5 29H9.54249C9.73322 26.7614 10.5612 24.6366 11.9285 22.9959Z" fill="white"/>
<path d="M8.68964 16.4281C9.09181 16.0495 9.72469 16.0687 10.1032 16.4709L11.6032 18.0646C11.9817 18.4668 11.9625 19.0997 11.5604 19.4782C11.1582 19.8567 10.5253 19.8375 10.1468 19.4354L8.6468 17.8416C8.26829 17.4394 8.28746 16.8066 8.68964 16.4281Z" fill="white"/>
<path d="M4.5 24.2188C3.94772 24.2188 3.5 24.6665 3.5 25.2188C3.5 25.771 3.94772 26.2188 4.5 26.2188H7.5C8.05228 26.2188 8.5 25.771 8.5 25.2188C8.5 24.6665 8.05228 24.2188 7.5 24.2188H4.5Z" fill="white"/>
<path d="M27.5 25.2188C27.5 24.6665 27.9477 24.2188 28.5 24.2188H31.5C32.0523 24.2188 32.5 24.6665 32.5 25.2188C32.5 25.771 32.0523 26.2188 31.5 26.2188H28.5C27.9477 26.2188 27.5 25.771 27.5 25.2188Z" fill="white"/>
<path d="M27.3532 17.8416C27.7317 17.4394 27.7125 16.8066 27.3104 16.4281C26.9082 16.0495 26.2753 16.0687 25.8968 16.4709L24.3968 18.0646C24.0183 18.4668 24.0375 19.0997 24.4396 19.4782C24.8418 19.8567 25.4747 19.8375 25.8532 19.4354L27.3532 17.8416Z" fill="white"/>
</svg>
