<svg width="36" height="36" viewBox="0 0 36 36" fill="none" xmlns="http://www.w3.org/2000/svg">
<path fill-rule="evenodd" clip-rule="evenodd" d="M33 18C33 9.71573 26.2843 3 18 3C9.71573 3 3 9.71573 3 18C3 26.2843 9.71573 33 18 33C26.2843 33 33 26.2843 33 18ZM10.4545 22.0795C10.8938 21.6402 11.6062 21.6402 12.0455 22.0795L13.125 23.159V10.125C13.125 9.50369 13.6287 9.00001 14.25 9.00001C14.8713 9.00001 15.375 9.50369 15.375 10.125V25.875C15.375 26.33 15.1009 26.7402 14.6805 26.9144C14.2601 27.0885 13.7763 26.9923 13.4545 26.6705L10.4545 23.6705C10.0152 23.2312 10.0152 22.5189 10.4545 22.0795ZM25.5455 13.9205C25.1062 14.3598 24.3938 14.3598 23.9545 13.9205L22.875 12.841V25.875C22.875 26.4963 22.3713 27 21.75 27C21.1287 27 20.625 26.4963 20.625 25.875V10.125C20.625 9.66999 20.8991 9.25978 21.3195 9.08565C21.7399 8.91152 22.2237 9.00777 22.5455 9.32952L25.5455 12.3295C25.9848 12.7689 25.9848 13.4812 25.5455 13.9205Z" fill="white"/>
</svg>
