<svg width="36" height="36" viewBox="0 0 36 36" fill="none" xmlns="http://www.w3.org/2000/svg">
<path fill-rule="evenodd" clip-rule="evenodd" d="M26.375 16.25C30.0339 16.25 33 13.2839 33 9.625C33 5.96611 30.0339 3 26.375 3H9.625C5.96611 3 3 5.96611 3 9.625C3 13.2839 5.96611 16.25 9.625 16.25H26.375ZM31 9.625C31 12.1793 28.9293 14.25 26.375 14.25H9.625C7.07068 14.25 5 12.1793 5 9.625C5 7.07068 7.07068 5 9.625 5H26.375C28.9293 5 31 7.07068 31 9.625ZM26.45 6.8501C24.9312 6.8501 23.7 8.08132 23.7 9.6001C23.7 11.1189 24.9312 12.3501 26.45 12.3501C27.9688 12.3501 29.2 11.1189 29.2 9.6001C29.2 8.08132 27.9688 6.8501 26.45 6.8501Z" fill="white"/>
<path fill-rule="evenodd" clip-rule="evenodd" d="M9.625 19.75C5.96611 19.75 3 22.7161 3 26.375C3 30.0339 5.96611 33 9.625 33H26.375C30.0339 33 33 30.0339 33 26.375C33 22.7161 30.0339 19.75 26.375 19.75H9.625ZM5 26.375C5 23.8207 7.07068 21.75 9.625 21.75H26.375C28.9293 21.75 31 23.8207 31 26.375C31 28.9293 28.9293 31 26.375 31H9.625C7.07068 31 5 28.9293 5 26.375ZM9.55 29.1499C11.0688 29.1499 12.3 27.9187 12.3 26.3999C12.3 24.8811 11.0688 23.6499 9.55 23.6499C8.03122 23.6499 6.8 24.8811 6.8 26.3999C6.8 27.9187 8.03122 29.1499 9.55 29.1499Z" fill="white"/>
</svg>
