<svg width="36" height="36" viewBox="0 0 36 36" fill="none" xmlns="http://www.w3.org/2000/svg">
<path fill-rule="evenodd" clip-rule="evenodd" d="M5.19832 15.7412C6.44506 8.67055 13.1876 3.94936 20.2582 5.1961C25.0182 6.03541 28.7152 9.36595 30.2414 13.6131L27.5455 13.1377C27.0016 13.0418 26.4829 13.405 26.387 13.9489C26.2911 14.4928 26.6543 15.0114 27.1982 15.1073L31.4566 15.8582C31.4714 15.8612 31.4863 15.8638 31.5013 15.8661L32.5599 16.0528C33.1038 16.1487 33.6225 15.7855 33.7184 15.2416L34.6638 9.87986C34.7597 9.33597 34.3965 8.81731 33.8526 8.72141C33.3087 8.6255 32.7901 8.98867 32.6942 9.53257L32.1036 12.8819C30.3313 8.01121 26.0795 4.1917 20.6055 3.22649C12.4471 1.78794 4.66725 7.23546 3.2287 15.3939C3.1328 15.9378 3.49597 16.4564 4.03986 16.5523C4.58376 16.6482 5.10242 16.2851 5.19832 15.7412ZM18.8814 32.9761C18.3678 32.3726 17.9246 31.7073 17.5645 30.9929C16.9622 30.9719 16.354 30.9088 15.7434 30.8011C10.9834 29.9618 7.28646 26.6313 5.76028 22.3841L8.45618 22.8595C9.00007 22.9554 9.51873 22.5922 9.61463 22.0483C9.71054 21.5044 9.34737 20.9858 8.80347 20.8899L4.54511 20.139C4.53027 20.136 4.51533 20.1334 4.50031 20.1311L3.44174 19.9444C2.89785 19.8485 2.37919 20.2117 2.28329 20.7556L1.33787 26.1173C1.24197 26.6612 1.60513 27.1799 2.14903 27.2758C2.69292 27.3717 3.21158 27.0085 3.30748 26.4646L3.89806 23.1153C5.6703 27.986 9.92212 31.8055 15.3961 32.7707C16.5717 32.978 17.7394 33.0423 18.8814 32.9761Z" fill="white"/>
<path fill-rule="evenodd" clip-rule="evenodd" d="M35.0001 26.4985C35.0001 31.1929 31.1945 34.9985 26.5001 34.9985C21.8056 34.9985 18.0001 31.1929 18.0001 26.4985C18.0001 21.8041 21.8056 17.9985 26.5001 17.9985C31.1945 17.9985 35.0001 21.8041 35.0001 26.4985ZM26.5001 20.476C27.0523 20.476 27.5001 20.9237 27.5001 21.476V26.1124C27.5001 26.6647 27.0523 27.1124 26.5001 27.1124C25.9478 27.1124 25.5001 26.6647 25.5001 26.1124V21.476C25.5001 20.9237 25.9478 20.476 26.5001 20.476ZM26.5001 31.3168C27.1904 31.3168 27.7501 30.7572 27.7501 30.0668C27.7501 29.3765 27.1904 28.8168 26.5001 28.8168C25.8097 28.8168 25.2501 29.3765 25.2501 30.0668C25.2501 30.7572 25.8097 31.3168 26.5001 31.3168Z" fill="white"/>
</svg>
