<svg width="36" height="36" viewBox="0 0 36 36" fill="none" xmlns="http://www.w3.org/2000/svg">
<path d="M13.9502 3C15.6069 3.00012 16.9502 4.34322 16.9502 6V30C16.9502 31.6568 15.6069 32.9999 13.9502 33H11.0996C9.44292 32.9998 8.09961 31.6567 8.09961 30V6C8.09961 4.34327 9.44292 3.0002 11.0996 3H13.9502Z" fill="white"/>
<path d="M24.9004 3C26.5571 3.00018 27.9004 4.34326 27.9004 6V30C27.9004 31.6567 26.5571 32.9998 24.9004 33H22.0498C20.3931 32.9999 19.0498 31.6568 19.0498 30V6C19.0498 4.34323 20.3931 3.00013 22.0498 3H24.9004Z" fill="white"/>
</svg>
