<svg width="36" height="36" viewBox="0 0 36 36" fill="none" xmlns="http://www.w3.org/2000/svg">
<path fill-rule="evenodd" clip-rule="evenodd" d="M26.5 18C31.1944 18 35 21.8056 35 26.5C35 31.1944 31.1944 35 26.5 35C21.8056 35 18 31.1944 18 26.5C18 21.8056 21.8056 18 26.5 18ZM26.501 21.1133C26.0869 21.1133 25.7512 21.4492 25.751 21.8633V25.75H21.8643C21.4502 25.75 21.1144 26.0859 21.1143 26.5C21.1145 26.9141 21.4502 27.25 21.8643 27.25H25.751V31.1357C25.751 31.55 26.0868 31.8857 26.501 31.8857C26.9148 31.8853 27.251 31.5497 27.251 31.1357V27.25H31.1367L31.2139 27.2461C31.5916 27.2074 31.8865 26.8879 31.8867 26.5C31.8865 26.1121 31.5916 25.7926 31.2139 25.7539L31.1367 25.75H27.251V21.8633C27.2508 21.4495 26.9147 21.1137 26.501 21.1133Z" fill="white"/>
<path d="M27.75 6C30.6495 6 33 8.35051 33 11.25V18.9033C31.801 17.8764 30.3569 17.1294 28.7666 16.7607C29.9224 16.3439 30.7499 15.2408 30.75 13.9414V11.1172C30.7497 9.46055 29.4067 8.11719 27.75 8.11719H8.25C6.5933 8.11719 5.25026 9.46055 5.25 11.1172V13.9414C5.25012 15.5982 6.59322 16.9414 8.25 16.9414H23.5537C22.1533 17.3726 20.8847 18.1035 19.8213 19.0586H8.25C6.59323 19.0586 5.25014 20.4019 5.25 22.0586V24.8828C5.25023 26.5395 6.59329 27.8828 8.25 27.8828H16.5977C16.6992 28.617 16.8789 29.3257 17.1309 30H8.25C5.35051 30 3 27.6495 3 24.75V11.25C3 8.35051 5.35051 6 8.25 6H27.75Z" fill="white"/>
</svg>
