<svg width="36" height="36" viewBox="0 0 36 36" fill="none" xmlns="http://www.w3.org/2000/svg">
<path fill-rule="evenodd" clip-rule="evenodd" d="M30.1543 19.0557C31.7394 19.136 32.9999 20.4467 33 22.0518V24.9014C33 26.5065 31.7394 27.8171 30.1543 27.8975L30 27.9014H6C4.34315 27.9014 3 26.5582 3 24.9014V22.0518C3.0001 20.395 4.34321 19.0518 6 19.0518H30L30.1543 19.0557ZM6 21.0518C5.44778 21.0518 5.0001 21.4996 5 22.0518V24.9014C5 25.4537 5.44772 25.9014 6 25.9014H30C30.5523 25.9014 31 25.4536 31 24.9014V22.0518C30.9999 21.4996 30.5522 21.0518 30 21.0518H6Z" fill="white"/>
<path fill-rule="evenodd" clip-rule="evenodd" d="M30.1543 8.10547C31.7393 8.18577 32.9998 9.49662 33 11.1016V13.9512C33 15.5563 31.7394 16.8669 30.1543 16.9473L30 16.9512H6C4.34315 16.9512 3 15.608 3 13.9512V11.1016C3.0002 9.44488 4.34327 8.10156 6 8.10156H30L30.1543 8.10547ZM6 10.1016C5.44784 10.1016 5.0002 10.5494 5 11.1016V13.9512C5 14.5035 5.44772 14.9512 6 14.9512H30C30.5523 14.9512 31 14.5035 31 13.9512V11.1016C30.9998 10.5494 30.5522 10.1016 30 10.1016H6Z" fill="white"/>
</svg>
