<svg width="36" height="36" viewBox="0 0 36 36" fill="none" xmlns="http://www.w3.org/2000/svg">
<path fill-rule="evenodd" clip-rule="evenodd" d="M23.8198 4.5H27.9598C29.8998 4.5 31.4598 6.06 31.4598 8V12.15H23.8198V4.5ZM8.00977 4.5H12.1598V12.15H4.50977V8C4.50977 6.06 6.07977 4.5 8.00977 4.5ZM14.1598 4.5H21.8198V12.15H14.1598V4.5ZM4.50977 14.15H12.1598V21.8H4.50977V14.15ZM14.1598 14.15H21.8198V17.66C20.0498 18.59 18.5998 20.04 17.6598 21.8H14.1598V14.15ZM31.4598 17.82V14.15H23.8198V16.86C24.6698 16.62 25.5698 16.5 26.4998 16.5C28.2998 16.5 29.9998 16.98 31.4598 17.82ZM26.4998 18C31.1898 18 34.9998 21.8 34.9998 26.5C34.9998 31.19 31.1898 34.99 26.4998 35C21.7998 34.99 17.9998 31.19 17.9998 26.49C17.9998 21.8 21.7998 18 26.4998 18ZM29.8098 20.81C29.2598 20.26 28.3998 20.22 27.8098 20.7L27.6898 20.8C27.1098 21.38 26.1698 22.32 25.4598 23.04C24.8298 22.89 24.2198 22.84 23.6298 22.93C23.0598 23.02 22.5298 23.25 22.0498 23.6L21.8398 23.76C21.2598 24.23 21.3198 25.04 21.7698 25.5L24.0998 27.82L21.9798 29.94C21.6798 30.24 21.6798 30.71 21.9798 31C22.2698 31.3 22.7398 31.3 23.0398 31L25.1598 28.88C25.8998 29.61 26.6698 30.39 27.4898 31.22C27.9198 31.57 28.6898 31.69 29.1398 31.25L29.2298 31.15C30.1198 30.05 30.2598 28.85 29.9498 27.53C30.6498 26.82 31.5898 25.88 32.1698 25.3L32.2798 25.18C32.7598 24.59 32.7298 23.72 32.1798 23.17L29.8098 20.81ZM31.1198 24.24L28.7698 26.58L28.6598 26.71C28.4298 27.01 28.3698 27.4 28.4598 27.75L28.5398 28.13C28.6698 28.83 28.5898 29.38 28.2798 29.89C26.3498 27.94 24.7098 26.3 23.0998 24.7C23.3498 24.55 23.6098 24.46 23.8698 24.41C24.2398 24.35 24.6798 24.38 25.2298 24.53L25.3798 24.56C25.7498 24.61 26.1298 24.49 26.4098 24.21C27.1198 23.49 28.1398 22.48 28.7498 21.87L31.1198 24.24ZM8.00977 31.45C6.07977 31.45 4.50977 29.88 4.50977 27.95V23.79H12.1598V31.45H8.00977ZM16.8598 23.79H14.1598V31.45H17.7998C16.9698 29.99 16.4998 28.3 16.4998 26.5C16.4998 25.56 16.6198 24.65 16.8598 23.79Z" fill="white"/>
</svg>
