<svg width="36" height="36" viewBox="0 0 36 36" fill="none" xmlns="http://www.w3.org/2000/svg">
<path fill-rule="evenodd" clip-rule="evenodd" d="M26.5 18C31.1944 18 35 21.8056 35 26.5C35 31.1944 31.1944 35 26.5 35C21.8056 35 18 31.1944 18 26.5C18 21.8056 21.8056 18 26.5 18ZM26.501 21.1133C26.0869 21.1133 25.7512 21.4492 25.751 21.8633V25.75H21.8643C21.4502 25.75 21.1144 26.0859 21.1143 26.5C21.1144 26.9141 21.4502 27.25 21.8643 27.25H25.751V31.1357C25.751 31.55 26.0868 31.8857 26.501 31.8857C26.9148 31.8853 27.251 31.5497 27.251 31.1357V27.25H31.1367L31.2139 27.2461C31.5916 27.2074 31.8865 26.8879 31.8867 26.5C31.8865 26.1121 31.5916 25.7926 31.2139 25.7539L31.1367 25.75H27.251V21.8633C27.2508 21.4495 26.9147 21.1137 26.501 21.1133Z" fill="white"/>
<path d="M24.75 3C27.6495 3 30 5.35051 30 8.25V17.1299C29.3258 16.8779 28.617 16.6982 27.8828 16.5967V8.25C27.8828 6.59327 26.5395 5.25021 24.8828 5.25H22.0586C20.4019 5.25016 19.0586 6.59325 19.0586 8.25V19.8213C18.1035 20.8847 17.3726 22.1533 16.9414 23.5537V8.25C16.9414 6.59323 15.5981 5.25014 13.9414 5.25H11.1172C9.46053 5.25023 8.11719 6.59329 8.11719 8.25V27.75C8.11719 29.4067 9.46053 30.7498 11.1172 30.75H13.9414C15.2408 30.7499 16.3439 29.9224 16.7607 28.7666C17.1294 30.3569 17.8764 31.801 18.9033 33H11.25C8.35051 33 6 30.6495 6 27.75V8.25C6 5.35051 8.35051 3 11.25 3H24.75Z" fill="white"/>
</svg>
