<svg width="36" height="36" viewBox="0 0 36 36" fill="none" xmlns="http://www.w3.org/2000/svg">
<path d="M31.1201 24.2402L28.7705 26.5889L28.6621 26.7139C28.4329 27.0184 28.3704 27.4072 28.4619 27.7568L28.5469 28.1357C28.6745 28.8379 28.5919 29.3852 28.2881 29.8896C26.3523 27.9424 24.7126 26.3031 23.1035 24.7051C23.3576 24.5509 23.6109 24.4594 23.8721 24.417C24.2485 24.3562 24.689 24.3885 25.2324 24.5322L25.3867 24.5615C25.7493 24.6092 26.1337 24.4961 26.4121 24.2148C27.1278 23.4918 28.1407 22.4821 28.7529 21.873L31.1201 24.2402Z" fill="white"/>
<path fill-rule="evenodd" clip-rule="evenodd" d="M26.499 17.999C31.193 17.9994 34.9988 21.805 34.999 26.499C34.9988 31.193 31.193 34.9986 26.499 34.999C21.8047 34.9989 17.999 31.1924 17.999 26.498C17.9996 21.8042 21.805 17.9991 26.499 17.999ZM29.8135 20.8115C29.2669 20.2651 28.4004 20.2281 27.8105 20.7061L27.6963 20.8076C27.1165 21.3844 26.1724 22.3255 25.4619 23.042C24.8369 22.8917 24.2272 22.8394 23.6328 22.9355C23.0627 23.0279 22.5393 23.2527 22.0518 23.6045L21.8447 23.7637C21.2647 24.2359 21.3213 25.0482 21.7754 25.499L24.1064 27.8213L21.9795 29.9473C21.6868 30.2401 21.6868 30.716 21.9795 31.0088C22.2722 31.3013 22.7472 31.301 23.04 31.0088L25.167 28.8818C25.9019 29.6178 26.6718 30.3912 27.4961 31.2207L27.584 31.3008C28.0151 31.6527 28.6914 31.692 29.1396 31.252L29.2314 31.1504C30.1227 30.0525 30.2657 28.8585 29.9502 27.5312C30.6583 26.8202 31.5993 25.8797 32.1797 25.3008L32.2822 25.1875C32.7637 24.5979 32.7291 23.7276 32.1807 23.1787L29.8135 20.8115Z" fill="white"/>
<path fill-rule="evenodd" clip-rule="evenodd" d="M27.2314 4.50586C27.3806 4.51342 27.5279 4.52807 27.6729 4.5498C27.7013 4.55407 27.7295 4.55965 27.7578 4.56445C27.8726 4.58392 27.986 4.60678 28.0977 4.63477L28.125 4.6416C28.1673 4.65249 28.2092 4.66468 28.251 4.67676C28.2715 4.68268 28.2921 4.68813 28.3125 4.69434C28.343 4.70361 28.3731 4.71373 28.4033 4.72363C28.5136 4.7598 28.6222 4.79948 28.7285 4.84375C28.7627 4.85799 28.7963 4.87361 28.8301 4.88867C28.8604 4.90221 28.8909 4.9155 28.9209 4.92969C28.9637 4.94994 29.0058 4.97162 29.0479 4.99316C29.0681 5.00352 29.0883 5.01376 29.1084 5.02441C29.137 5.03961 29.1651 5.0555 29.1934 5.07129C29.2947 5.12799 29.3939 5.18784 29.4902 5.25195C29.5136 5.26752 29.5365 5.28381 29.5596 5.2998C29.592 5.3223 29.6244 5.34484 29.6562 5.36816C29.6919 5.39427 29.7269 5.42113 29.7617 5.44824C29.7791 5.46177 29.7963 5.47548 29.8135 5.48926C29.8481 5.51705 29.8822 5.54543 29.916 5.57422C29.9403 5.59488 29.9645 5.61555 29.9883 5.63672C30.0126 5.65832 30.0367 5.68004 30.0605 5.70215C30.094 5.73317 30.1267 5.76486 30.1592 5.79688C30.1736 5.8111 30.1879 5.82542 30.2021 5.83984C30.2373 5.87541 30.2718 5.91153 30.3057 5.94824C30.3218 5.96568 30.3377 5.98328 30.3535 6.00098C30.384 6.03503 30.4139 6.06952 30.4434 6.10449C30.4606 6.12499 30.4782 6.1452 30.4951 6.16602C30.5207 6.19751 30.5456 6.22953 30.5703 6.26172C30.5906 6.2881 30.6102 6.31496 30.6299 6.3418C30.6538 6.37435 30.6772 6.40722 30.7002 6.44043C30.7139 6.46024 30.7278 6.47996 30.7412 6.5C30.766 6.53698 30.7898 6.57456 30.8135 6.6123C30.8302 6.63892 30.8471 6.66539 30.8633 6.69238C30.8889 6.73514 30.9133 6.7786 30.9375 6.82227C30.9476 6.84049 30.9579 6.85858 30.9678 6.87695C30.9879 6.91439 31.0073 6.95217 31.0264 6.99023C31.0398 7.01717 31.0535 7.04405 31.0664 7.07129C31.0796 7.09904 31.0919 7.12722 31.1045 7.15527C31.1218 7.19379 31.139 7.2324 31.1553 7.27148C31.1736 7.31558 31.19 7.36048 31.207 7.40527C31.2142 7.42425 31.2225 7.44281 31.2295 7.46191C31.2446 7.50356 31.2585 7.54568 31.2725 7.58789C31.2833 7.6207 31.2946 7.65339 31.3047 7.68652C31.3119 7.71016 31.3184 7.73402 31.3252 7.75781C31.3374 7.80026 31.3494 7.8428 31.3604 7.88574C31.3914 8.00751 31.4166 8.13133 31.4375 8.25684C31.4416 8.28125 31.4465 8.30554 31.4502 8.33008C31.468 8.44968 31.48 8.57088 31.4883 8.69336C31.4951 8.79472 31.5 8.89691 31.5 9V17.8408C30.8728 17.4779 30.2038 17.1791 29.5 16.958V15H23V17.1299C22.2914 17.3947 21.6219 17.739 21 18.1494V15H15V21H18.1494C17.739 21.6218 17.3956 22.2915 17.1309 23H15V29.5H16.958C17.1791 30.2038 17.4779 30.8728 17.8408 31.5H9L8.76855 31.4941C8.7057 31.491 8.64321 31.4862 8.58105 31.4805C8.56934 31.4794 8.55759 31.4787 8.5459 31.4775C8.47734 31.4707 8.40941 31.4611 8.3418 31.4512C8.30581 31.4459 8.27008 31.4397 8.23438 31.4336C8.19817 31.4274 8.16188 31.4221 8.12598 31.415C8.09454 31.4088 8.06343 31.4014 8.03223 31.3945C7.99567 31.3865 7.95907 31.379 7.92285 31.3701C7.861 31.3549 7.80007 31.3371 7.73926 31.3193C7.73509 31.3181 7.73072 31.3176 7.72656 31.3164C7.6849 31.3041 7.64369 31.2908 7.60254 31.2773C7.57147 31.2672 7.54053 31.2569 7.50977 31.2461C7.48983 31.2391 7.47 31.2319 7.4502 31.2246C7.40368 31.2075 7.3573 31.1904 7.31152 31.1719C7.28134 31.1596 7.25153 31.1466 7.22168 31.1338C7.19421 31.122 7.16683 31.11 7.13965 31.0977C7.08428 31.0725 7.02972 31.0459 6.97559 31.0186C6.97182 31.0167 6.96763 31.0156 6.96387 31.0137L6.91504 30.9893C6.87472 30.9681 6.83548 30.9451 6.7959 30.9229C6.79006 30.9196 6.78415 30.9164 6.77832 30.9131C6.73056 30.8859 6.68336 30.858 6.63672 30.8291C6.62242 30.8203 6.60794 30.8117 6.59375 30.8027C6.56018 30.7814 6.5271 30.7595 6.49414 30.7373C6.46557 30.7181 6.43728 30.6985 6.40918 30.6787C6.37793 30.6567 6.34706 30.6341 6.31641 30.6113C6.29326 30.5941 6.26987 30.5772 6.24707 30.5596C6.21136 30.5319 6.17644 30.5033 6.1416 30.4746C6.12982 30.4649 6.11812 30.4551 6.10645 30.4453C6.07427 30.4183 6.04214 30.3912 6.01074 30.3633C5.98147 30.3372 5.95241 30.311 5.92383 30.2842C5.89762 30.2596 5.87229 30.2342 5.84668 30.209C5.82763 30.1903 5.80875 30.1714 5.79004 30.1523C5.76745 30.1293 5.74475 30.1065 5.72266 30.083C5.69044 30.0488 5.65908 30.0138 5.62793 29.9785C5.61219 29.9607 5.59652 29.9429 5.58105 29.9248C5.55384 29.893 5.52731 29.8607 5.50098 29.8281C5.48553 29.809 5.47022 29.7899 5.45508 29.7705C5.42804 29.736 5.40104 29.7014 5.375 29.666C5.35759 29.6424 5.3402 29.6187 5.32324 29.5947C5.3012 29.5636 5.28005 29.5318 5.25879 29.5C5.23785 29.4687 5.21744 29.4371 5.19727 29.4053C5.18982 29.3935 5.18214 29.3819 5.1748 29.3701C5.11254 29.2698 5.05439 29.1669 5 29.0615C4.98665 29.0357 4.9738 29.0095 4.96094 28.9834C4.9418 28.9445 4.92233 28.9057 4.9043 28.8662C4.88942 28.8336 4.87544 28.8006 4.86133 28.7676C4.84883 28.7384 4.83611 28.7092 4.82422 28.6797C4.81226 28.65 4.80138 28.6199 4.79004 28.5898C4.77981 28.5628 4.7685 28.5361 4.75879 28.5088L4.74512 28.4697C4.73421 28.4381 4.72506 28.4059 4.71484 28.374C4.70537 28.3444 4.6954 28.315 4.68652 28.2852C4.6771 28.2535 4.6689 28.2214 4.66016 28.1895C4.65057 28.1544 4.64059 28.1194 4.63184 28.084C4.62264 28.0468 4.61471 28.0092 4.60645 27.9717C4.57271 27.8185 4.546 27.6625 4.52832 27.5039C4.51828 27.4138 4.5105 27.323 4.50586 27.2314L4.5 27V9C4.5 6.51472 6.51472 4.5 9 4.5H27L27.2314 4.50586ZM6.5 27C6.5 28.3807 7.61929 29.5 9 29.5H13V23H6.5V27ZM6.5 21H13V15H6.5V21Z" fill="white"/>
</svg>
