<svg width="36" height="36" viewBox="0 0 36 36" fill="none" xmlns="http://www.w3.org/2000/svg">
<path d="M17.9033 3.11352C21.511 3.09318 25.0032 4.38444 27.7295 6.74731C27.7601 6.77389 27.7888 6.80198 27.8154 6.83129L30.8662 3.78149C31.2567 3.39096 31.8897 3.39096 32.2803 3.78149C32.6704 4.17204 32.6707 4.80514 32.2803 5.19555L18.6943 18.7805C18.3038 19.171 17.6708 19.171 17.2803 18.7805C16.8899 18.39 16.8898 17.7569 17.2803 17.3664L21.8701 12.7756C20.7482 11.9399 19.385 11.4865 17.9824 11.4875C16.5102 11.4888 15.081 11.9898 13.9306 12.9084C12.7804 13.8271 11.9762 15.1098 11.6494 16.5452C11.3227 17.9805 11.4935 19.4848 12.1328 20.8108C12.7722 22.1367 13.8425 23.2067 15.1689 23.845C16.4956 24.4833 18.0003 24.6524 19.4355 24.3245C20.8707 23.9965 22.1516 23.1904 23.0693 22.0393C23.987 20.8882 24.4873 19.4597 24.4873 17.9875C24.4875 17.4354 24.9351 16.9876 25.4873 16.9875C26.0394 16.9875 26.4871 17.4354 26.4873 17.9875C26.4873 19.9126 25.8338 21.7811 24.6338 23.2864C23.4336 24.7917 21.7576 25.8448 19.8808 26.2737C18.0039 26.7025 16.0366 26.4814 14.3017 25.6467C12.5671 24.812 11.1671 23.413 10.331 21.6789C9.49503 19.9448 9.27192 17.9779 9.6992 16.1008C10.1265 14.2239 11.1785 12.5473 12.6826 11.3459C14.1869 10.1446 16.0553 9.48914 17.9804 9.48754C19.9055 9.48599 21.774 10.1384 23.2803 11.3372C23.2856 11.3414 23.2906 11.3465 23.2959 11.3508L26.4023 8.24438C24.0451 6.20862 21.0291 5.09592 17.914 5.11352C14.7916 5.13128 11.7817 6.28319 9.44529 8.35473C7.10901 10.4265 5.605 13.2772 5.21384 16.3752C4.82274 19.4733 5.57123 22.6081 7.31931 25.1955C9.06753 27.7829 11.6966 29.6474 14.7168 30.4407C17.737 31.2338 20.9433 30.9026 23.7373 29.508C26.5313 28.1134 28.7236 25.7502 29.9053 22.8596C31.0868 19.9691 31.1771 16.7476 30.1601 13.7952C29.9803 13.273 30.2581 12.7035 30.7803 12.5237C31.3024 12.3439 31.8719 12.6216 32.0517 13.1438C33.2266 16.5548 33.1218 20.277 31.7568 23.6164C30.3916 26.9561 27.858 29.6858 24.6299 31.2971C21.4019 32.9082 17.6984 33.2916 14.209 32.3752C10.7194 31.4588 7.68196 29.3051 5.66209 26.3157C3.64224 23.3261 2.77756 19.7038 3.22947 16.1243C3.68148 12.5449 5.41877 9.25126 8.11814 6.85766C10.8176 4.46408 14.2956 3.13393 17.9033 3.11352Z" fill="white"/>
</svg>
