<svg width="36" height="36" viewBox="0 0 36 36" fill="none" xmlns="http://www.w3.org/2000/svg">
<path fill-rule="evenodd" clip-rule="evenodd" d="M5.6618 29.4687C6.70462 30 8.06974 30 10.8 30H25.2C27.9303 30 29.2954 30 30.3382 29.4687C31.2555 29.0013 32.0013 28.2555 32.4687 27.3382C33 26.2954 33 24.9303 33 22.2V13.8C33 11.0697 33 9.70462 32.4687 8.6618C32.0013 7.74451 31.2555 6.99873 30.3382 6.53134C29.2954 6 27.9303 6 25.2 6H10.8C8.06974 6 6.70462 6 5.6618 6.53134C4.74451 6.99873 3.99873 7.74451 3.53134 8.6618C3 9.70462 3 11.0697 3 13.8V22.2C3 24.9303 3 26.2954 3.53134 27.3382C3.99873 28.2555 4.74451 29.0013 5.6618 29.4687ZM24.7071 14.9571C25.0976 14.5666 25.0976 13.9334 24.7071 13.5429C24.3166 13.1524 23.6834 13.1524 23.2929 13.5429L15.75 21.0858L12.7071 18.0429C12.3166 17.6524 11.6834 17.6524 11.2929 18.0429C10.9024 18.4334 10.9024 19.0666 11.2929 19.4571L15.0429 23.2071C15.4334 23.5976 16.0666 23.5976 16.4571 23.2071L24.7071 14.9571Z" fill="white"/>
</svg>
