<svg width="36" height="36" viewBox="0 0 36 36" fill="none" xmlns="http://www.w3.org/2000/svg">
<path fill-rule="evenodd" clip-rule="evenodd" d="M3 23.0407C2.99999 24.0548 2.99998 24.8765 3.05441 25.5427C3.11056 26.2298 3.22956 26.8391 3.51772 27.4047C3.97312 28.2985 4.69978 29.0251 5.59355 29.4805C6.1591 29.7687 6.76841 29.8877 7.45557 29.9438C8.12178 29.9983 8.94347 29.9983 9.9575 29.9982H26.0414C27.0554 29.9983 27.8771 29.9983 28.5433 29.9438C29.2305 29.8877 29.8398 29.7687 30.4053 29.4805C31.2991 29.0251 32.0258 28.2985 32.4812 27.4047C32.7693 26.8391 32.8883 26.2298 32.9445 25.5427C32.9989 24.8765 32.9989 24.0548 32.9989 23.0408V12.9575C32.9989 11.9435 32.9989 11.1218 32.9445 10.4556C32.8883 9.76841 32.7693 9.1591 32.4812 8.59355C32.0258 7.69978 31.2991 6.97312 30.4053 6.51772C29.8398 6.22956 29.2305 6.11056 28.5433 6.05441C27.8771 5.99998 27.0554 5.99999 26.0414 6H9.95748C8.94346 5.99999 8.12178 5.99998 7.45558 6.05441C6.76841 6.11056 6.1591 6.22956 5.59355 6.51772C4.69978 6.97312 3.97312 7.69978 3.51772 8.59355C3.22956 9.1591 3.11056 9.76842 3.05441 10.4556C2.99998 11.1218 2.99999 11.9435 3 12.9575V23.0407ZM5.29973 26.4967C5.17917 26.2601 5.09381 25.9433 5.04777 25.3798C5.00078 24.8047 5 24.0648 5 22.9982V13C5 11.9334 5.00078 11.1936 5.04777 10.6184C5.09381 10.055 5.17917 9.73814 5.29973 9.50153C5.56338 8.98408 5.98408 8.56338 6.50153 8.29973C6.73814 8.17917 7.05496 8.09381 7.61844 8.04777C8.19359 8.00078 8.9334 8 10 8H25.9989C27.0655 8 27.8053 8.00078 28.3804 8.04777C28.9439 8.09381 29.2607 8.17917 29.4974 8.29973C30.0148 8.56338 30.4355 8.98408 30.6991 9.50153C30.8197 9.73814 30.9051 10.055 30.9511 10.6184C30.9981 11.1936 30.9989 11.9334 30.9989 13V22.9982C30.9989 24.0648 30.9981 24.8046 30.9511 25.3798C30.9051 25.9433 30.8197 26.2601 30.6991 26.4967C30.4355 27.0142 30.0148 27.4349 29.4974 27.6985C29.2607 27.8191 28.9439 27.9044 28.3804 27.9505C27.8053 27.9975 27.0655 27.9982 25.9989 27.9982H10C8.9334 27.9982 8.19359 27.9975 7.61844 27.9505C7.05496 27.9044 6.73814 27.8191 6.50153 27.6985C5.98408 27.4349 5.56338 27.0142 5.29973 26.4967ZM24.7609 14.9132C25.1509 14.5222 25.1502 13.889 24.7592 13.499C24.3682 13.1089 23.735 13.1097 23.345 13.5007L15.7289 21.1352L12.6533 18.0521C12.2632 17.6611 11.6301 17.6603 11.2391 18.0503C10.8481 18.4404 10.8473 19.0736 11.2374 19.4646L15.021 23.2574C15.2086 23.4454 15.4633 23.5511 15.7289 23.5511C15.9946 23.5511 16.2493 23.4454 16.4369 23.2574L24.7609 14.9132Z" fill="white"/>
</svg>
