<svg width="36" height="36" viewBox="0 0 36 36" fill="none" xmlns="http://www.w3.org/2000/svg">
<path fill-rule="evenodd" clip-rule="evenodd" d="M13.25 8C13.25 5.23 15.48 3 18.25 3C21.01 3 23.25 5.23 23.25 8V18.18C25.22 19.69 26.5 22.07 26.5 24.75C26.5 29.3 22.8 33 18.25 33C13.69 33 10 29.3 10 24.75C10 22.07 11.27 19.69 13.25 18.18V8ZM22.4 24.75C22.4 22.8 21.05 21.16 19.25 20.72V12.25C19.25 11.68 18.81 11.25 18.25 11.25C17.68 11.25 17.25 11.68 17.25 12.25V20.72C15.44 21.16 14.09 22.8 14.09 24.75C14.09 27.04 15.95 28.9 18.25 28.9C20.54 28.9 22.4 27.04 22.4 24.75ZM16.09 24.75C16.09 23.56 17.06 22.6 18.25 22.6C19.43 22.6 20.4 23.56 20.4 24.75C20.4 25.93 19.43 26.9 18.25 26.9C17.06 26.9 16.09 25.93 16.09 24.75Z" fill="white"/>
</svg>
