<svg width="36" height="36" viewBox="0 0 36 36" fill="none" xmlns="http://www.w3.org/2000/svg">
<path d="M18.1768 3.00005C19.4382 2.99447 20.6571 3.44779 21.5977 4.27154C22.4997 5.06162 23.0837 6.13943 23.2501 7.3106V18.1885C24.4583 19.1093 25.3939 20.3492 25.9454 21.7754C26.5918 23.4477 26.6757 25.2855 26.1847 27.0098C25.6936 28.734 24.6541 30.2513 23.2237 31.3321C21.7932 32.4129 20.0489 32.9988 18.2559 33C16.463 33.0012 14.7183 32.4178 13.2862 31.3389C11.8542 30.26 10.8119 28.7443 10.3184 27.0206C9.82511 25.297 9.9068 23.4593 10.5509 21.7862C11.0825 20.4053 11.9744 19.1985 13.1251 18.2862V7.70806C13.1186 7.64277 13.1183 7.57567 13.1251 7.50786V7.50005C13.2511 6.27239 13.8367 5.13252 14.7677 4.30181C15.7005 3.46972 16.9156 3.00586 18.1768 3.00005ZM18.1856 5.00005C17.4075 5.00369 16.6639 5.29069 16.0987 5.79497C15.5534 6.28172 15.2135 6.93673 15.1251 7.63677V17.8897C15.1267 17.8913 15.1284 17.893 15.13 17.8946V19.295C15.0756 19.3503 15.0152 19.4016 14.9464 19.4444C13.7934 20.1623 12.9052 21.2365 12.4171 22.504C11.9291 23.7714 11.8676 25.164 12.2413 26.4698C12.6151 27.7756 13.4045 28.9249 14.4893 29.7422C15.5741 30.5594 16.8959 31.0008 18.254 31C19.6123 30.9991 20.9339 30.5552 22.0177 29.7364C23.1013 28.9176 23.8888 27.7682 24.2608 26.462C24.6329 25.1555 24.569 23.7631 24.0792 22.4961C23.5893 21.2294 22.6999 20.1558 21.546 19.4395C21.425 19.3642 21.326 19.2668 21.2501 19.1563V7.50005H21.254C21.1389 6.8424 20.8017 6.23207 20.2804 5.77544C19.7102 5.2762 18.9637 4.99659 18.1856 5.00005ZM18.3751 11.25C18.9274 11.25 19.3751 11.6978 19.3751 12.25V20.75C19.3751 20.7602 19.3734 20.7703 19.3731 20.7803C21.1055 21.2694 22.3751 22.8612 22.3751 24.75C22.3751 27.0282 20.5283 28.875 18.2501 28.875C15.972 28.875 14.1251 27.0282 14.1251 24.75C14.1251 22.7722 15.5173 21.1202 17.3751 20.7188V12.25C17.3751 11.6978 17.8229 11.2501 18.3751 11.25ZM18.2501 22.625C17.0765 22.6251 16.1251 23.5765 16.1251 24.75C16.1251 25.9236 17.0765 26.875 18.2501 26.875C19.4237 26.875 20.3751 25.9237 20.3751 24.75C20.3751 23.5765 19.4237 22.625 18.2501 22.625Z" fill="white"/>
</svg>
