<svg width="36" height="36" viewBox="0 0 36 36" fill="none" xmlns="http://www.w3.org/2000/svg">
<path d="M18.3748 11.2501C18.9271 11.2501 19.3748 11.6978 19.3748 12.2501V20.7501C19.3748 20.7602 19.3732 20.7703 19.3729 20.7803C21.1052 21.2694 22.3748 22.8612 22.3748 24.7501C22.3748 27.0282 20.528 28.8751 18.2498 28.8751C15.9717 28.875 14.1248 27.0282 14.1248 24.7501C14.1249 22.7722 15.5171 21.1202 17.3748 20.7188V12.2501C17.3749 11.6978 17.8226 11.2501 18.3748 11.2501Z" fill="white"/>
<path fill-rule="evenodd" clip-rule="evenodd" d="M18.1766 3.00005C19.4379 2.99447 20.6569 3.44779 21.5975 4.27154C22.4995 5.06162 23.0834 6.13943 23.2498 7.3106V18.1885C24.458 19.1093 25.3937 20.3492 25.9452 21.7754C26.5916 23.4477 26.6754 25.2855 26.1844 27.0098C25.6934 28.734 24.6538 30.2513 23.2235 31.3321C21.7929 32.4129 20.0486 32.9988 18.2557 33.0001C16.4628 33.0012 14.718 32.4178 13.286 31.3389C11.854 30.26 10.8116 28.7443 10.3182 27.0206C9.82486 25.297 9.90655 23.4593 10.5506 21.7862C11.0823 20.4053 11.9741 19.1985 13.1248 18.2862V7.70806C13.1184 7.64277 13.118 7.57567 13.1248 7.50786V7.50005C13.2508 6.27239 13.8365 5.13252 14.7674 4.30181C15.7002 3.46972 16.9154 3.00586 18.1766 3.00005ZM18.1854 5.00005C17.4073 5.00369 16.6637 5.29069 16.0985 5.79497C15.5532 6.28172 15.2133 6.93673 15.1248 7.63677V17.8897C15.1264 17.8913 15.1282 17.893 15.1297 17.8946V19.295C15.0753 19.3503 15.0149 19.4016 14.9461 19.4444C13.7932 20.1623 12.9049 21.2365 12.4168 22.504C11.9288 23.7714 11.8674 25.164 12.2411 26.4698C12.6149 27.7756 13.4043 28.9249 14.4891 29.7422C15.5738 30.5594 16.8957 31.0008 18.2537 31.0001C19.6121 30.9991 20.9336 30.5552 22.0174 29.7364C23.1011 28.9176 23.8885 27.7682 24.2606 26.462C24.6326 25.1555 24.5688 23.7631 24.0789 22.4961C23.5891 21.2294 22.6997 20.1558 21.5457 19.4395C21.4247 19.3642 21.3257 19.2668 21.2498 19.1563V7.50005H21.2537C21.1387 6.8424 20.8014 6.23207 20.2801 5.77544C19.7099 5.2762 18.9635 4.99659 18.1854 5.00005Z" fill="white"/>
</svg>
