<svg width="36" height="36" viewBox="0 0 36 36" fill="none" xmlns="http://www.w3.org/2000/svg">
<path fill-rule="evenodd" clip-rule="evenodd" d="M12.875 4.5C12.875 3.94772 13.3227 3.5 13.875 3.5H22.125C22.6773 3.5 23.125 3.94772 23.125 4.5C23.125 5.05228 22.6773 5.5 22.125 5.5H13.875C13.3227 5.5 12.875 5.05228 12.875 4.5ZM18 32.9996C25.0416 32.9996 30.75 27.2152 30.75 20.0798C30.75 16.713 29.4791 13.6469 27.3969 11.3474L28.4616 10.269C28.8496 9.87596 28.8456 9.24281 28.4526 8.85479C28.0596 8.46677 27.4264 8.47082 27.0384 8.86384L25.9433 9.97304C23.7644 8.21235 21.0035 7.15999 18 7.15999C10.9584 7.15999 5.25 12.9444 5.25 20.0798C5.25 27.2152 10.9584 32.9996 18 32.9996ZM19.125 13.6198C19.125 12.9985 18.6213 12.4948 18 12.4948C17.3787 12.4948 16.875 12.9985 16.875 13.6198V18.9547H11.625C11.0037 18.9547 10.5 19.4584 10.5 20.0797C10.5 20.7011 11.0037 21.2047 11.625 21.2047H16.875V26.5396C16.875 27.161 17.3787 27.6646 18 27.6646C18.6213 27.6646 19.125 27.161 19.125 26.5396V21.2047H24.375C24.9963 21.2047 25.5 20.7011 25.5 20.0797C25.5 19.4584 24.9963 18.9547 24.375 18.9547H19.125V13.6198Z" fill="white"/>
</svg>
