<svg width="36" height="36" viewBox="0 0 36 36" fill="none" xmlns="http://www.w3.org/2000/svg">
<path fill-rule="evenodd" clip-rule="evenodd" d="M18.5547 6.125C18.5547 5.57272 19.0024 5.125 19.5547 5.125H25.5288C26.0811 5.125 26.5288 5.57272 26.5288 6.125C26.5288 6.67728 26.0811 7.125 25.5288 7.125H23.543V9.27551C28.7798 9.77861 32.8761 14.1865 32.8761 19.5518C32.8761 25.2548 28.2481 29.876 22.5416 29.876C16.835 29.876 12.207 25.2548 12.207 19.5518C12.207 14.1856 16.3047 9.77702 21.543 9.27524V7.125H19.5547C19.0024 7.125 18.5547 6.67728 18.5547 6.125ZM24.2936 13.6463C24.4649 13.7532 24.5426 13.9734 24.4798 14.1741L23.2639 18.0606H26.6016C26.7679 18.0606 26.9185 18.1651 26.9858 18.3271C27.053 18.4891 27.0243 18.6781 26.9124 18.8092L21.3117 25.3734C21.1782 25.5299 20.96 25.5655 20.7887 25.4585C20.6173 25.3516 20.5396 25.1315 20.6024 24.9308L21.8183 21.0443H18.4806C18.3143 21.0443 18.1637 20.9398 18.0965 20.7778C18.0292 20.6158 18.058 20.4268 18.1698 20.2957L23.7705 13.7315C23.9041 13.5749 24.1222 13.5394 24.2936 13.6463ZM14.207 19.5518C14.207 14.9556 17.9375 11.2277 22.5416 11.2277C27.1456 11.2277 30.8761 14.9556 30.8761 19.5518C30.8761 24.1481 27.1456 27.876 22.5416 27.876C17.9375 27.876 14.207 24.1481 14.207 19.5518ZM6.11328 11.0938C5.561 11.0938 5.11328 11.5415 5.11328 12.0938C5.11328 12.646 5.561 13.0938 6.11328 13.0938H11.3406C11.8929 13.0938 12.3406 12.646 12.3406 12.0938C12.3406 11.5415 11.8929 11.0938 11.3406 11.0938H6.11328ZM3.125 17.0605C2.57272 17.0605 2.125 17.5083 2.125 18.0605C2.125 18.6128 2.57272 19.0605 3.125 19.0605H8.35233C8.90462 19.0605 9.35233 18.6128 9.35233 18.0605C9.35233 17.5083 8.90462 17.0605 8.35233 17.0605H3.125ZM3.61914 24.0293C3.61914 23.477 4.06686 23.0293 4.61914 23.0293H9.84647C10.3988 23.0293 10.8465 23.477 10.8465 24.0293C10.8465 24.5816 10.3988 25.0293 9.84647 25.0293H4.61914C4.06686 25.0293 3.61914 24.5816 3.61914 24.0293Z" fill="white"/>
</svg>
