<svg width="36" height="36" viewBox="0 0 36 36" fill="none" xmlns="http://www.w3.org/2000/svg">
<path fill-rule="evenodd" clip-rule="evenodd" d="M12.875 4.5C12.875 3.94772 13.3227 3.5 13.875 3.5H22.125C22.6773 3.5 23.125 3.94772 23.125 4.5C23.125 5.05228 22.6773 5.5 22.125 5.5H13.875C13.3227 5.5 12.875 5.05228 12.875 4.5ZM18 32.9996C25.0416 32.9996 30.75 27.2152 30.75 20.0798C30.75 16.713 29.4791 13.6469 27.3969 11.3474L28.4616 10.269C28.8496 9.87596 28.8456 9.24281 28.4526 8.85479C28.0596 8.46677 27.4264 8.47082 27.0384 8.86384L25.9433 9.97304C23.7644 8.21235 21.0035 7.15999 18 7.15999C10.9584 7.15999 5.25 12.9444 5.25 20.0798C5.25 27.2152 10.9584 32.9996 18 32.9996ZM20.5961 13.2296C20.6802 12.974 20.5762 12.6936 20.3468 12.5575C20.1173 12.4213 19.8251 12.4666 19.6463 12.6659L12.1463 21.0258C11.9965 21.1927 11.958 21.4335 12.0481 21.6398C12.1382 21.8461 12.3399 21.9792 12.5625 21.9792H17.0321L15.4039 26.9289C15.3198 27.1845 15.4238 27.4648 15.6532 27.601C15.8827 27.7371 16.1749 27.6919 16.3537 27.4925L23.8537 19.1327C24.0035 18.9657 24.042 18.725 23.9519 18.5187C23.8618 18.3123 23.6601 18.1793 23.4375 18.1793H18.9679L20.5961 13.2296Z" fill="white"/>
</svg>
