<svg width="36" height="36" viewBox="0 0 36 36" fill="none" xmlns="http://www.w3.org/2000/svg">
<path fill-rule="evenodd" clip-rule="evenodd" d="M19.5566 5C19.0044 5 18.5566 5.44772 18.5566 6C18.5566 6.55228 19.0044 7 19.5566 7H21.543V9.0475C16.2378 9.55354 12.0879 14.0401 12.0879 19.5C12.0879 25.299 16.7693 30 22.5441 30C28.3189 30 33.0003 25.299 33.0003 19.5C33.0003 14.0393 28.8492 9.55229 23.543 9.04729V7H25.5325C26.0848 7 26.5325 6.55228 26.5325 6C26.5325 5.44772 26.0848 5 25.5325 5H19.5566ZM6.11328 11C5.561 11 5.11328 11.4477 5.11328 12C5.11328 12.5523 5.561 13 6.11328 13H11.3422C11.8945 13 12.3422 12.5523 12.3422 12C12.3422 11.4477 11.8945 11 11.3422 11H6.11328ZM3.125 17C2.57272 17 2.125 17.4477 2.125 18C2.125 18.5523 2.57272 19 3.125 19H8.35392C8.9062 19 9.35392 18.5523 9.35392 18C9.35392 17.4477 8.9062 17 8.35392 17H3.125ZM3.61914 24C3.61914 23.4477 4.06686 23 4.61914 23H9.84806C10.4003 23 10.8481 23.4477 10.8481 24C10.8481 24.5523 10.4003 25 9.84806 25H4.61914C4.06686 25 3.61914 24.5523 3.61914 24ZM26.9864 16.4557C27.3762 16.0644 27.3749 15.4312 26.9836 15.0415C26.5923 14.6517 25.9591 14.653 25.5694 15.0443L21.8344 18.7943C21.4447 19.1856 21.446 19.8188 21.8373 20.2085C22.2286 20.5983 22.8618 20.597 23.2515 20.2057L26.9864 16.4557Z" fill="white"/>
</svg>
