<svg width="36" height="36" viewBox="0 0 36 36" fill="none" xmlns="http://www.w3.org/2000/svg">
<path fill-rule="evenodd" clip-rule="evenodd" d="M12.875 4.5C12.875 3.94772 13.3227 3.5 13.875 3.5H22.125C22.6773 3.5 23.125 3.94772 23.125 4.5C23.125 5.05228 22.6773 5.5 22.125 5.5H13.875C13.3227 5.5 12.875 5.05228 12.875 4.5ZM30.75 20.0791C30.75 27.2145 25.0416 32.999 18 32.999C10.9584 32.999 5.25 27.2145 5.25 20.0791C5.25 12.9436 10.9584 7.15917 18 7.15917C20.9716 7.15917 23.7058 8.18933 25.8738 9.91647L27.0384 8.73688C27.4264 8.34387 28.0596 8.33982 28.4526 8.72784C28.8456 9.11587 28.8496 9.74902 28.4616 10.142L27.3371 11.281C29.4547 13.5877 30.75 16.6801 30.75 20.0791ZM18.875 15.8995C18.875 15.3472 19.3227 14.8995 19.875 14.8995H25.125C25.6773 14.8995 26.125 15.3472 26.125 15.8995C26.125 16.4518 25.6773 16.8995 25.125 16.8995H20.875V19.4595H23.625C25.0057 19.4595 26.125 20.5788 26.125 21.9595V23.5195C26.125 24.9002 25.0057 26.0195 23.625 26.0195H19.875C19.3227 26.0195 18.875 25.5717 18.875 25.0195C18.875 24.4672 19.3227 24.0195 19.875 24.0195H23.625C23.9011 24.0195 24.125 23.7956 24.125 23.5195V21.9595C24.125 21.6834 23.9011 21.4595 23.625 21.4595H19.875C19.3227 21.4595 18.875 21.0118 18.875 20.4595V15.8995ZM11.875 15.8995C11.875 15.3472 11.4273 14.8995 10.875 14.8995C10.3227 14.8995 9.875 15.3472 9.875 15.8995V20.4595C9.875 21.0118 10.3227 21.4595 10.875 21.4595H15.125V25.0195C15.125 25.5717 15.5727 26.0195 16.125 26.0195C16.6773 26.0195 17.125 25.5717 17.125 25.0195V15.8995C17.125 15.3472 16.6773 14.8995 16.125 14.8995C15.5727 14.8995 15.125 15.3472 15.125 15.8995V19.4595H11.875V15.8995Z" fill="white"/>
</svg>
