<svg width="36" height="36" viewBox="0 0 36 36" fill="none" xmlns="http://www.w3.org/2000/svg">
<path fill-rule="evenodd" clip-rule="evenodd" d="M12.875 4.625C12.875 4.07272 13.3227 3.625 13.875 3.625H22.125C22.6773 3.625 23.125 4.07272 23.125 4.625C23.125 5.17728 22.6773 5.625 22.125 5.625H13.875C13.3227 5.625 12.875 5.17728 12.875 4.625ZM18 9.41016C16.606 9.41016 15.2254 9.68724 13.937 10.2258C12.6486 10.7644 11.4773 11.5541 10.4902 12.5502C9.50316 13.5464 8.7197 14.7295 8.18501 16.0322C7.65032 17.335 7.375 18.7315 7.375 20.1422C7.375 21.5528 7.65032 22.9494 8.18501 24.2521C8.7197 25.5548 9.50316 26.7379 10.4902 27.7341C11.4773 28.7302 12.6486 29.5199 13.937 30.0585C15.2254 30.5971 16.606 30.8742 18 30.8742C19.394 30.8742 20.7746 30.5971 22.063 30.0585C23.3514 29.5199 24.5227 28.7302 25.5098 27.7341C26.4968 26.7379 27.2803 25.5548 27.815 24.2521C28.3497 22.9494 28.625 21.5528 28.625 20.1422C28.625 18.7319 28.3498 17.3357 27.8154 16.0333L27.815 16.0322C27.2803 14.7295 26.4968 13.5464 25.5098 12.5502C24.5227 11.5541 23.3514 10.7644 22.063 10.2258C20.7746 9.68724 19.394 9.41016 18 9.41016ZM27.2464 11.4731C28.2698 12.5833 29.0891 13.8695 29.6647 15.2716L29.6652 15.2728C30.2989 16.8169 30.625 18.4714 30.625 20.1422C30.625 21.8129 30.2989 23.4675 29.6652 25.0115C29.0315 26.5556 28.1024 27.9591 26.9305 29.1418C25.7585 30.3245 24.3668 31.2632 22.8344 31.9038C21.302 32.5443 19.6592 32.8742 18 32.8742C16.3408 32.8742 14.698 32.5443 13.1656 31.9038C11.6332 31.2632 10.2415 30.3245 9.06954 29.1418C7.89765 27.9591 6.96852 26.5556 6.33479 25.0115C5.70106 23.4675 5.375 21.8129 5.375 20.1422C5.375 18.4714 5.70106 16.8169 6.33479 15.2728C6.96853 13.7288 7.89765 12.3252 9.06955 11.1425C10.2415 9.95982 11.6332 9.02115 13.1656 8.38057C14.698 7.73998 16.3408 7.41016 18 7.41016C19.6592 7.41016 21.302 7.73998 22.8344 8.38057C23.8912 8.82233 24.8811 9.40586 25.7781 10.1134L27.0399 8.84083C27.4287 8.44865 28.0619 8.44595 28.4541 8.83481C28.8463 9.22367 28.849 9.85683 28.4601 10.249L27.2464 11.4731ZM18.875 15.9785C18.875 15.4262 19.3227 14.9785 19.875 14.9785H25.125C25.6773 14.9785 26.125 15.4262 26.125 15.9785C26.125 16.5308 25.6773 16.9785 25.125 16.9785H20.875V19.5199H23.625C25.0057 19.5199 26.125 20.6392 26.125 22.0199V23.5614C26.125 24.9421 25.0057 26.0614 23.625 26.0614H19.875C19.3227 26.0614 18.875 25.6136 18.875 25.0614C18.875 24.5091 19.3227 24.0614 19.875 24.0614H23.625C23.9011 24.0614 24.125 23.8375 24.125 23.5614V22.0199C24.125 21.7438 23.9011 21.5199 23.625 21.5199H19.875C19.3227 21.5199 18.875 21.0722 18.875 20.5199V15.9785ZM11.875 15.9785C11.875 15.4262 11.4273 14.9785 10.875 14.9785C10.3227 14.9785 9.875 15.4262 9.875 15.9785V20.5199C9.875 21.0722 10.3227 21.5199 10.875 21.5199H15.125V25.0614C15.125 25.6136 15.5727 26.0614 16.125 26.0614C16.6773 26.0614 17.125 25.6136 17.125 25.0614V15.9785C17.125 15.4262 16.6773 14.9785 16.125 14.9785C15.5727 14.9785 15.125 15.4262 15.125 15.9785V19.5199H11.875V15.9785Z" fill="white"/>
</svg>
