<svg width="36" height="36" viewBox="0 0 36 36" fill="none" xmlns="http://www.w3.org/2000/svg">
<path fill-rule="evenodd" clip-rule="evenodd" d="M13.3301 6.26128C13.6701 6.20128 14.0101 6.32128 14.2401 6.58128L20.9901 14.1213C21.1601 14.3113 21.2501 14.5413 21.2501 14.7913V18.3213H21.8701V11.0213C21.8701 10.4613 22.3201 10.0213 22.8701 10.0213H28.8601C29.2801 10.0213 29.7001 10.1413 30.0501 10.3813C30.4001 10.6213 30.6701 10.9613 30.8301 11.3513L32.8001 16.3113C32.8701 16.4913 32.8901 16.6813 32.8501 16.8613C32.8601 16.9213 32.8701 16.9913 32.8701 17.0513V24.2213C32.8701 24.7813 32.6501 25.3213 32.2501 25.7213C31.8501 26.1213 31.3101 26.3513 30.7501 26.3513H28.2601C27.8101 28.2913 26.0701 29.7513 24.0001 29.7513C21.9201 29.7513 20.1801 28.2913 19.7301 26.3513H12.5101C12.0601 28.2913 10.3201 29.7513 8.25012 29.7513C6.14012 29.7513 4.40012 28.2613 3.97012 26.2813C3.60012 26.1913 3.26012 26.0013 2.99012 25.7213C2.59012 25.3213 2.37012 24.7813 2.37012 24.2213V20.4513C2.37012 19.8813 2.59012 19.3413 2.99012 18.9413C3.39012 18.5413 3.93012 18.3213 4.50012 18.3213H19.2501V15.1713L13.1201 8.32128L9.61012 8.91128L9.33012 11.5113C10.2101 11.9713 10.7401 12.9713 10.7401 13.9713C10.7401 15.3413 9.75012 16.6913 8.25012 16.6913C7.13012 16.6913 6.12012 15.9013 5.79012 14.8413C5.63012 14.3113 5.92012 13.7513 6.45012 13.5913C6.98012 13.4313 7.54012 13.7213 7.70012 14.2513C7.78012 14.5213 8.06012 14.6913 8.25012 14.6913C8.33012 14.6913 8.44012 14.6613 8.55012 14.5313C8.66012 14.4113 8.74012 14.2113 8.74012 13.9713C8.74012 13.7313 8.66012 13.5313 8.55012 13.4113C8.44012 13.2913 8.33012 13.2513 8.25012 13.2513C7.96012 13.2513 7.69012 13.1313 7.50012 12.9213C7.31012 12.7013 7.22012 12.4213 7.25012 12.1413L7.69012 8.04128C7.74012 7.63128 8.03012 7.30128 8.41012 7.19128C8.53012 7.10128 8.67012 7.04128 8.83012 7.01128L13.3301 6.26128ZM24.0001 22.9613C22.6901 22.9613 21.6201 24.0213 21.6201 25.3513C21.6201 26.6813 22.6901 27.7513 24.0001 27.7513C25.3001 27.7513 26.3701 26.6813 26.3701 25.3513C26.3701 24.0213 25.3001 22.9613 24.0001 22.9613ZM5.87012 25.3513C5.87012 24.0213 6.94012 22.9613 8.25012 22.9613C9.55012 22.9613 10.6201 24.0213 10.6201 25.3513C10.6201 26.6813 9.55012 27.7513 8.25012 27.7513C6.94012 27.7513 5.87012 26.6813 5.87012 25.3513Z" fill="white"/>
</svg>
