<svg width="36" height="36" viewBox="0 0 36 36" fill="none" xmlns="http://www.w3.org/2000/svg">
<path fill-rule="evenodd" clip-rule="evenodd" d="M13.3351 6.26378C13.6733 6.20708 14.017 6.32765 14.2457 6.58321L20.9957 14.1271C21.1597 14.3104 21.2504 14.5478 21.2504 14.7939V18.3202H21.875V11.022C21.875 10.4697 22.3227 10.022 22.875 10.022H28.8626C29.2872 10.0219 29.7019 10.1493 30.0531 10.3874C30.4043 10.6254 30.6759 10.963 30.834 11.3561L30.8355 11.3597L32.8042 16.3103C32.8774 16.4944 32.8921 16.6872 32.8572 16.8683C32.8689 16.9294 32.875 16.9925 32.875 17.057V24.2238C32.875 24.7872 32.6525 25.3287 32.2547 25.7289C31.8566 26.1293 31.3155 26.3553 30.75 26.3553H28.2611C27.8109 28.2975 26.0779 29.75 24 29.75C21.9221 29.75 20.1891 28.2974 19.7389 26.3552H12.5111C12.0609 28.2974 10.3279 29.75 8.25 29.75C6.14852 29.75 4.39979 28.2643 3.97404 26.289C3.60625 26.1947 3.26738 26.0025 2.99534 25.7289C2.59747 25.3287 2.375 24.7872 2.375 24.2237V20.4518C2.375 19.8883 2.59747 19.3468 2.99534 18.9466C3.3934 18.5462 3.93453 18.3202 4.5 18.3202H19.2504V15.176L13.1225 8.32732L9.61731 8.9149L9.33546 11.5158C10.214 11.9755 10.7485 12.9715 10.7485 13.9758C10.7485 15.3445 9.75665 16.6991 8.24978 16.6991C7.13299 16.6991 6.12291 15.9089 5.7943 14.8448C5.63134 14.3171 5.92702 13.7572 6.45471 13.5943C6.98241 13.4313 7.54229 13.727 7.70525 14.2547C7.78998 14.529 8.05991 14.6991 8.24978 14.6991C8.33873 14.6991 8.4491 14.6601 8.55504 14.5383C8.66278 14.4144 8.74845 14.2187 8.74845 13.9758C8.74845 13.7334 8.66279 13.5376 8.55474 13.4134C8.44833 13.2912 8.33777 13.2524 8.24978 13.2524C7.96581 13.2524 7.69523 13.1317 7.50556 12.9203C7.31589 12.709 7.22501 12.427 7.2556 12.1447L7.6996 8.0475C7.74446 7.6336 8.03583 7.30619 8.41177 7.19555C8.53322 7.10706 8.67655 7.0447 8.83483 7.01816L13.3351 6.26378ZM28.931 12.0429C28.9104 12.029 28.8869 12.022 28.8633 12.022H23.875V20.9623C23.9165 20.9612 23.9582 20.9606 24 20.9606C26.0779 20.9606 27.8109 22.4132 28.2611 24.3553H30.75C30.7813 24.3553 30.8124 24.3429 30.8363 24.3189C30.8604 24.2946 30.875 24.2605 30.875 24.2238V17.057C30.875 17.0041 30.8791 16.9522 30.887 16.9016L28.9785 12.1023L28.9781 12.1014C28.968 12.0768 28.9513 12.0567 28.931 12.0429ZM21.875 20.3202H4.5C4.46874 20.3202 4.43757 20.3326 4.41367 20.3567C4.38958 20.3809 4.375 20.415 4.375 20.4518V23.3136C5.10611 21.9162 6.56461 20.9606 8.25 20.9606C10.3279 20.9606 12.0608 22.4131 12.5111 24.3552H19.7389C20.0219 23.1346 20.8115 22.1074 21.875 21.5127V20.3202ZM24 22.9606C22.6938 22.9606 21.625 24.0272 21.625 25.3553C21.625 26.6834 22.6938 27.75 24 27.75C25.3062 27.75 26.375 26.6834 26.375 25.3553C26.375 24.0272 25.3062 22.9606 24 22.9606ZM5.875 25.3553C5.875 24.0272 6.94381 22.9606 8.25 22.9606C9.55619 22.9606 10.625 24.0272 10.625 25.3553C10.625 26.6834 9.55619 27.75 8.25 27.75C6.94381 27.75 5.875 26.6834 5.875 25.3553Z" fill="white"/>
</svg>
