<svg width="36" height="36" viewBox="0 0 36 36" fill="none" xmlns="http://www.w3.org/2000/svg">
<path fill-rule="evenodd" clip-rule="evenodd" d="M26.5004 17.998C31.1946 17.9982 35.0004 21.8037 35.0004 26.498C35.0004 31.1923 31.1946 34.9978 26.5004 34.998C21.8059 34.998 18.0004 31.1925 18.0004 26.498C18.0004 21.8036 21.8059 17.998 26.5004 17.998ZM27.1918 22.1865C26.9543 21.3616 26.1035 20.9965 25.4427 21.4355C25.2784 21.5448 25.0537 21.8324 24.6049 22.4062L23.7845 23.4541C23.4448 23.8884 22.957 24.1374 22.4447 24.1377C21.7853 24.1377 21.2504 24.7435 21.2504 25.4902V27.5059C21.2504 28.2526 21.7853 28.8584 22.4447 28.8584C22.957 28.8587 23.4448 29.1077 23.7845 29.542L24.6049 30.5898C25.0537 31.1637 25.2784 31.4513 25.4427 31.5605C26.1035 31.9996 26.9543 31.6345 27.1918 30.8096C27.2508 30.6043 27.2504 30.2206 27.2504 29.4541V23.542C27.2504 22.7755 27.2508 22.3918 27.1918 22.1865ZM30.7767 22.8623C30.4259 22.5718 29.9053 22.621 29.6146 22.9717C29.3241 23.3226 29.3732 23.8432 29.724 24.1338C30.1175 24.4599 30.4201 24.8385 30.6224 25.2432C30.8244 25.6472 30.9252 26.0733 30.9252 26.498L30.9203 26.6572C30.8983 27.0288 30.7992 27.3994 30.6224 27.7529C30.4201 28.1576 30.1175 28.5362 29.724 28.8623C29.3732 29.1529 29.3241 29.6735 29.6146 30.0244C29.9053 30.3751 30.4259 30.4242 30.7767 30.1338C31.3339 29.6722 31.7858 29.1147 32.098 28.4902C32.4106 27.8649 32.5756 27.1875 32.5756 26.498C32.5756 25.8086 32.4106 25.1312 32.098 24.5059C31.7858 23.8813 31.3339 23.3239 30.7767 22.8623Z" fill="white"/>
<path fill-rule="evenodd" clip-rule="evenodd" d="M22.6605 2.93848H22.6625L22.9672 2.94629H22.9691C23.9305 2.98744 24.7286 3.22338 25.389 3.61523L25.5052 3.64258C26.661 3.90908 28.28 4.38385 29.683 4.9209C30.3837 5.18917 31.0449 5.47803 31.5707 5.76953C31.8332 5.91511 32.0717 6.0671 32.2679 6.22266C32.459 6.37421 32.6402 6.55281 32.7513 6.75781C33.1382 7.47181 33.2406 8.27297 32.8695 8.93652C32.4921 9.61071 31.7099 9.99392 30.6654 10.0439C29.7567 10.0873 28.9368 9.82829 28.2211 9.3916C28.4978 11.7298 28.3921 14.3705 28.3607 16.6729C27.8028 16.5679 27.2285 16.5091 26.642 16.501C26.681 13.7393 26.8102 10.8464 26.3412 8.45117C26.2168 7.81659 26.056 7.26499 25.8627 6.79492C25.7421 6.57467 25.6314 6.34906 25.5306 6.12207C25.3984 5.89938 25.2562 5.70331 25.1029 5.53516C24.8506 5.25868 24.5428 5.02708 24.1468 4.86328C24.9077 6.29483 25.206 8.3809 25.3129 10.6123C25.4072 12.5817 25.3557 14.6827 25.3353 16.5674C24.851 16.6236 24.377 16.7131 23.9164 16.8359C23.9399 14.0153 24.0533 10.8918 23.6888 8.33398C23.4891 6.93253 23.1641 5.87035 22.7123 5.18848C22.542 4.93171 22.3598 4.73744 22.1595 4.59766L21.4613 4.5918C21.9994 5.98614 22.2107 8.13256 22.2865 10.4551C22.3621 12.7718 22.3063 15.2826 22.3021 17.4219C21.8055 17.652 21.3297 17.9195 20.8812 18.2246C20.8814 18.0404 20.8832 17.8532 20.8832 17.6631C20.8832 14.6774 20.9966 11.1227 20.7425 8.26953C20.6149 6.83626 20.4023 5.709 20.098 4.97461C20.0242 4.79654 19.9489 4.66285 19.8841 4.56152H18.93C19.1488 5.93892 19.2368 8.08944 19.2679 10.4307C19.2999 12.8409 19.2738 15.4628 19.2738 17.6631L19.2709 19.5928C18.7262 20.1628 18.2477 20.7963 17.849 21.4824C17.8527 20.3619 17.8558 19.0957 17.8558 17.6631C17.8558 14.7163 17.9024 11.1006 17.7992 8.2041C17.7474 6.75103 17.6588 5.53656 17.5209 4.7041C17.5126 4.65438 17.5026 4.60702 17.4935 4.56152H16.8158C16.8072 4.60685 16.7976 4.65449 16.7894 4.7041C16.6515 5.53638 16.5629 6.75031 16.5111 8.20312C16.4079 11.0997 16.4545 14.716 16.4545 17.6631C16.4545 29.1163 16.582 29.9324 16.6683 30.7285L16.7465 31.1914H17.5629C17.5715 31.141 17.58 31.0886 17.5892 31.0342C17.9703 31.7812 18.4419 32.4738 18.9906 33.0977H10.4271C10.0926 33.0974 9.58188 32.9365 9.1068 32.7217C8.63058 32.5063 8.16349 32.2247 7.92223 31.9688C7.58019 31.6057 7.41199 31.2839 7.22204 30.957C7.10326 30.7526 6.96397 30.5462 6.82751 30.208C6.69092 29.8694 6.55673 29.399 6.43591 28.6553C6.19447 27.1689 6.0055 24.5764 5.96423 19.7275L5.95544 17.6631L5.94567 16.5566C5.9062 13.9083 5.77866 10.8299 6.25231 8.28027C6.52336 6.82139 6.99351 5.52183 7.79919 4.56934C8.60811 3.61333 9.74956 3.0144 11.3422 2.94629H11.3441L11.6478 2.93848L17.1537 2.89844H17.1556L22.6605 2.93848ZM10.1615 4.86328C9.76621 5.02711 9.45934 5.25895 9.20739 5.53516C8.64882 6.14794 8.23124 7.11318 7.96911 8.45117C7.43372 11.1851 7.67713 14.5676 7.67712 17.6631C7.6771 23.4917 7.86199 26.4886 8.09411 28.1152C8.20884 28.9189 8.32783 29.3341 8.4154 29.5635C8.48159 29.7367 8.52978 29.817 8.62829 29.9824C8.91004 30.2844 9.11672 30.4973 9.33825 30.7324C9.47258 30.875 9.61201 31.0291 9.74548 31.1914H10.0677L9.91149 30.9629L9.90563 30.9551L9.90173 30.9453C9.81505 30.7402 9.7143 30.5357 9.61559 30.1992C9.51684 29.8625 9.41906 29.3938 9.33141 28.6514C9.15623 27.1672 9.01862 24.5764 8.98864 19.7275L8.98278 17.6631L8.96911 15.9902C8.94659 14.2598 8.91276 12.3829 8.99743 10.6123C9.10414 8.38103 9.40092 6.29478 10.1615 4.86328ZM12.1498 4.59766C11.95 4.73718 11.769 4.93119 11.599 5.1875C11.1471 5.86915 10.8212 6.93132 10.6215 8.33301C10.2211 11.1439 10.3998 14.6384 10.3998 17.6631C10.3998 23.4954 10.533 26.5296 10.7064 28.2021C10.7926 29.0333 10.8862 29.4942 10.9642 29.7754C11.0274 30.0027 11.0799 30.1202 11.1615 30.3086C11.375 30.6238 11.5328 30.8468 11.6947 31.083C11.7176 31.1164 11.7429 31.1559 11.766 31.1914H12.6927L12.5873 30.9463L12.5843 30.9395L12.5824 30.9316C12.343 30.0254 12.0091 29.3341 12.0091 17.6631C12.0092 15.4731 11.9448 12.8594 12.0228 10.4551C12.0982 8.13278 12.3083 5.98625 12.8461 4.5918L12.1498 4.59766ZM14.4261 4.56152C14.3613 4.66274 14.286 4.79674 14.2123 4.97461C13.9081 5.70887 13.6953 6.83558 13.5677 8.26855C13.3137 11.1219 13.4271 14.677 13.4271 17.6631C13.4271 28.8631 13.7385 29.8148 13.9291 30.498C14.0354 30.7493 14.1347 30.9787 14.2259 31.1914H15.3119L15.266 30.9238L15.265 30.917C15.1701 30.0191 15.0365 29.3369 15.0365 17.6631C15.0365 15.4628 15.0113 12.8409 15.0433 10.4307C15.0744 8.08946 15.1615 5.93892 15.3802 4.56152H14.4261ZM26.8002 4.94922C27.3944 5.80247 27.7724 6.87353 28.0121 8.05957C28.7647 8.75262 29.6483 9.15951 30.6185 9.11328C31.4604 9.07288 31.8628 8.78238 32.0257 8.49121C32.1732 8.22698 32.1917 7.84383 31.9974 7.38965L31.9007 7.19043C31.8755 7.14428 31.8067 7.06035 31.6605 6.94434C31.5189 6.83204 31.3279 6.70832 31.0931 6.57812C30.6234 6.31772 30.0105 6.04712 29.3314 5.78711C28.5178 5.47564 27.6244 5.18744 26.8002 4.94922Z" fill="white"/>
</svg>
