<svg width="36" height="36" viewBox="0 0 36 36" fill="none" xmlns="http://www.w3.org/2000/svg">
<path fill-rule="evenodd" clip-rule="evenodd" d="M22.6605 2.93848H22.6625L22.9672 2.94629H22.9691C23.9307 2.98744 24.7286 3.22331 25.389 3.61523L25.5052 3.64258C26.6611 3.9091 28.2799 4.38381 29.683 4.9209C30.3838 5.18921 31.0449 5.47798 31.5707 5.76953C31.8333 5.91515 32.0717 6.06705 32.2679 6.22266C32.459 6.37425 32.6402 6.55275 32.7513 6.75781C33.1382 7.47181 33.2406 8.27297 32.8695 8.93652C32.4921 9.61079 31.7099 9.99392 30.6654 10.0439C29.7566 10.0873 28.9369 9.82834 28.2211 9.3916C28.5385 12.0731 28.3539 15.1525 28.3539 17.6631L28.347 19.7266C28.3058 24.5756 28.1158 27.1689 27.8744 28.6553C27.7536 29.3991 27.6194 29.8694 27.4828 30.208C27.3463 30.5462 27.207 30.7526 27.0883 30.957L27.0834 30.9658L27.0824 30.9648C26.8001 31.3542 26.6839 31.4847 26.2279 31.9688C25.9906 32.2206 25.6003 32.5021 25.1761 32.7197C24.7532 32.9367 24.2815 33.0976 23.8832 33.0977H10.4271C10.0926 33.0975 9.582 32.9365 9.10681 32.7217C8.63052 32.5063 8.16353 32.2247 7.92224 31.9688C7.58012 31.6056 7.41201 31.284 7.22204 30.957C7.10325 30.7526 6.96399 30.5463 6.82751 30.208C6.69091 29.8694 6.55674 29.3991 6.43591 28.6553C6.19447 27.1689 6.0055 24.5765 5.96423 19.7275L5.95544 17.6631L5.94567 16.5566C5.90621 13.9083 5.77865 10.8299 6.25231 8.28027C6.52337 6.82132 6.99345 5.52184 7.79919 4.56934C8.60815 3.61328 9.74944 3.01435 11.3422 2.94629H11.3441L11.6478 2.93848L17.1537 2.89844H17.1556L22.6605 2.93848ZM10.1615 4.86328C9.76611 5.02711 9.45939 5.2589 9.20739 5.53516C8.64876 6.14794 8.23126 7.1131 7.96911 8.45117C7.43371 11.1851 7.67714 14.5676 7.67712 17.6631C7.6771 23.4918 7.86199 26.4886 8.09411 28.1152C8.20886 28.919 8.32783 29.3341 8.4154 29.5635C8.48161 29.7367 8.52974 29.8169 8.62829 29.9824C8.91009 30.2845 9.11668 30.4973 9.33825 30.7324C9.47262 30.875 9.61198 31.029 9.74548 31.1914H10.0677L9.91149 30.9629L9.90563 30.9551L9.90173 30.9453C9.81504 30.7402 9.71432 30.5357 9.6156 30.1992C9.51684 29.8624 9.41907 29.3939 9.33142 28.6514C9.15623 27.1672 9.01862 24.5765 8.98864 19.7275L8.98278 17.6631L8.96911 15.9902C8.94659 14.2598 8.91276 12.3829 8.99743 10.6123C9.10415 8.38097 9.40089 6.29479 10.1615 4.86328ZM12.1498 4.59766C11.95 4.73719 11.7691 4.93112 11.599 5.1875C11.1471 5.86914 10.8212 6.93124 10.6215 8.33301C10.2211 11.1439 10.3998 14.6383 10.3998 17.6631C10.3998 23.4955 10.533 26.5296 10.7064 28.2021C10.7926 29.0334 10.8862 29.4942 10.9642 29.7754C11.0274 30.0028 11.0799 30.1202 11.1615 30.3086C11.375 30.6239 11.5328 30.8468 11.6947 31.083C11.7176 31.1164 11.7429 31.1558 11.766 31.1914H12.6927L12.5873 30.9463L12.5843 30.9395L12.5824 30.9316C12.343 30.0254 12.0091 29.3343 12.0092 17.6631C12.0092 15.4731 11.9448 12.8594 12.0228 10.4551C12.0982 8.13273 12.3082 5.98625 12.8461 4.5918L12.1498 4.59766ZM14.4261 4.56152C14.3613 4.66276 14.2861 4.79668 14.2123 4.97461C13.9081 5.70886 13.6954 6.83552 13.5677 8.26855C13.3137 11.1219 13.4271 14.677 13.4271 17.6631C13.4271 28.8635 13.7385 29.8148 13.9291 30.498C14.0354 30.7493 14.1347 30.9786 14.2259 31.1914H15.3119L15.266 30.9238L15.265 30.917C15.1701 30.0191 15.0365 29.337 15.0365 17.6631C15.0365 15.4628 15.0113 12.8409 15.0433 10.4307C15.0744 8.08944 15.1615 5.93891 15.3802 4.56152H14.4261ZM16.7894 4.7041C16.6515 5.53638 16.5629 6.75028 16.5111 8.20312C16.408 11.0997 16.4545 14.716 16.4545 17.6631C16.4545 29.1164 16.582 29.9324 16.6683 30.7285L16.7465 31.1914H17.5629C17.5865 31.0528 17.6121 30.9 17.641 30.7285C17.7273 29.9324 17.8558 29.1153 17.8558 17.6631C17.8558 14.7163 17.9024 11.1006 17.7992 8.2041C17.7474 6.75102 17.6588 5.53656 17.5209 4.7041C17.5126 4.65436 17.5026 4.60703 17.4935 4.56152H16.8158C16.8072 4.60686 16.7977 4.65447 16.7894 4.7041ZM18.93 4.56152C19.1488 5.93892 19.2368 8.08944 19.2679 10.4307C19.3 12.8409 19.2738 15.4628 19.2738 17.6631L19.2679 21.5479C19.2411 29.5099 19.1283 30.1312 19.0453 30.917L19.0443 30.9229C19.0283 31.0178 19.013 31.1075 18.9984 31.1914H20.0834C20.1742 30.9795 20.2725 30.7538 20.3783 30.5039C20.5687 29.8201 20.8832 28.8963 20.8832 17.6631C20.8832 14.6774 20.9966 11.1227 20.7425 8.26953C20.6149 6.83625 20.4023 5.709 20.098 4.97461C20.0242 4.79649 19.9489 4.66287 19.8842 4.56152H18.93ZM21.4613 4.5918C21.9994 5.98615 22.2107 8.13256 22.2865 10.4551C22.365 12.8594 22.3011 15.4729 22.3011 17.6631L22.2963 19.7256C22.2588 29.4201 21.9524 30.0819 21.7279 30.9316L21.724 30.9453C21.6876 31.0319 21.6521 31.1142 21.6185 31.1914H22.5433C22.5667 31.1557 22.5917 31.1179 22.6156 31.083C22.7771 30.8475 22.9338 30.6232 23.1468 30.3086C23.2288 30.1195 23.2829 30.003 23.3461 29.7754C23.4241 29.4941 23.5167 29.0335 23.6029 28.2021C23.7763 26.5295 23.9115 23.4952 23.9115 17.6631C23.9115 14.6387 24.0893 11.1448 23.6888 8.33398C23.4891 6.93251 23.1641 5.87036 22.7123 5.18848C22.542 4.93165 22.3598 4.73746 22.1595 4.59766L21.4613 4.5918ZM24.1468 4.86328C24.9077 6.29483 25.206 8.3809 25.3129 10.6123C25.4259 12.9732 25.3265 15.5233 25.3265 17.6631C25.3266 23.5005 25.194 26.5932 25.0131 28.3389C24.9226 29.2118 24.8192 29.7513 24.7142 30.1299C24.6092 30.5086 24.5022 30.7261 24.4095 30.9453L24.4056 30.9541L24.3998 30.9619C24.3456 31.0425 24.2926 31.1191 24.2425 31.1914H24.5648C24.6984 31.0291 24.8379 30.8748 24.972 30.7324C25.1935 30.4974 25.3995 30.2842 25.681 29.9824C25.7798 29.8165 25.8295 29.7371 25.8959 29.5635C25.9834 29.3341 26.1024 28.919 26.2172 28.1152C26.4493 26.4886 26.6332 23.4916 26.6332 17.6631C26.6332 14.5676 26.8766 11.1851 26.3412 8.45117C26.2169 7.81657 26.056 7.265 25.8627 6.79492C25.742 6.57463 25.6314 6.34911 25.5306 6.12207C25.3984 5.89933 25.2562 5.70334 25.1029 5.53516C24.8506 5.25861 24.5428 5.0271 24.1468 4.86328ZM26.8002 4.94922C27.3944 5.80248 27.7724 6.87351 28.0121 8.05957C28.7648 8.75269 29.6482 9.15962 30.6185 9.11328C31.4605 9.07287 31.8629 8.78242 32.0258 8.49121C32.1732 8.22698 32.1917 7.84383 31.9974 7.38965L31.9008 7.19043C31.8756 7.14431 31.8069 7.06046 31.6605 6.94434C31.5189 6.832 31.328 6.70838 31.0931 6.57812C30.6233 6.31768 30.0107 6.04716 29.3314 5.78711C28.5177 5.4756 27.6245 5.18747 26.8002 4.94922Z" fill="white"/>
</svg>
