<svg width="36" height="36" viewBox="0 0 36 36" fill="none" xmlns="http://www.w3.org/2000/svg">
<path fill-rule="evenodd" clip-rule="evenodd" d="M21.5 3C21.86 3 22.22 3.03 22.57 3.11C22.87 3.18 23.16 3.27 23.44 3.39C23.73 3.51 23.99 3.65 24.25 3.82C24.53 4 24.79 4.22 25.03 4.46C25.27 4.7 25.49 4.96 25.67 5.24C26.37 5.24 26.88 5.25 27.18 5.25C27.72 5.27 28.16 5.29 28.5 5.33C28.94 5.37 29.3 5.45 29.59 5.57C29.94 5.71 30.23 5.9 30.44 6.16C30.47 6.19 30.5 6.23 30.53 6.27C30.59 6.35 30.64 6.44 30.69 6.53C30.76 6.66 30.82 6.79 30.86 6.93C30.9 7.04 30.93 7.15 30.95 7.26C30.97 7.4 30.99 7.53 30.99 7.66C30.99 8.02 30.89 8.43 30.69 8.78C30.54 9.05 30.3 9.35 30 9.67C29.75 9.92 29.43 10.22 29.01 10.59C28.76 10.8 28.32 11.17 27.7 11.7L26.5 12.71V14.25C26.78 14.25 27.01 14.25 27.18 14.25C27.72 14.27 28.16 14.29 28.5 14.33C28.94 14.37 29.3 14.45 29.59 14.57C29.94 14.71 30.23 14.9 30.44 15.16C30.47 15.19 30.5 15.23 30.53 15.27C30.59 15.35 30.64 15.44 30.69 15.53C30.76 15.66 30.82 15.79 30.86 15.93C30.9 16.04 30.93 16.15 30.95 16.26C30.97 16.4 30.99 16.53 30.99 16.66C30.99 17.02 30.89 17.43 30.69 17.78C30.54 18.05 30.3 18.35 30 18.67C29.75 18.92 29.43 19.22 29.01 19.59C28.76 19.8 28.32 20.17 27.7 20.7L26.5 21.71V23.25C26.78 23.25 27.01 23.25 27.18 23.25C27.72 23.27 28.16 23.29 28.5 23.33C28.94 23.37 29.3 23.45 29.59 23.57C29.94 23.71 30.23 23.9 30.44 24.16C30.47 24.19 30.5 24.23 30.53 24.27C30.59 24.35 30.64 24.44 30.69 24.53C30.76 24.66 30.82 24.79 30.86 24.93C30.9 25.04 30.93 25.15 30.95 25.26C30.97 25.4 30.99 25.53 30.99 25.66C30.99 26.02 30.89 26.43 30.69 26.78C30.54 27.05 30.3 27.35 30 27.67C29.75 27.92 29.43 28.22 29.01 28.59C28.76 28.8 28.32 29.17 27.7 29.7L26.14 31.01C26 31.13 25.84 31.2 25.68 31.23C25.5 31.51 25.27 31.79 25.03 32.03C24.79 32.27 24.53 32.49 24.25 32.67C23.99 32.84 23.73 32.98 23.44 33.1C23.16 33.22 22.87 33.31 22.57 33.38C22.22 33.46 21.86 33.5 21.5 33.5H14.5C14.13 33.5 13.77 33.46 13.42 33.38C13.12 33.31 12.83 33.22 12.55 33.1C12.26 32.98 12 32.84 11.74 32.67C11.46 32.49 11.2 32.27 10.96 32.03C10.72 31.79 10.5 31.53 10.32 31.25C10.16 31.22 9.99 31.13 9.85 31.01L8.29 29.7C7.66 29.17 7.23 28.8 6.98 28.59C6.56 28.22 6.23 27.92 5.99 27.67C5.68 27.35 5.45 27.05 5.3 26.78C5.09 26.43 5 26.02 5 25.66C5 25.53 5.01 25.4 5.04 25.26C5.06 25.15 5.09 25.04 5.13 24.93C5.17 24.79 5.23 24.66 5.3 24.53C5.35 24.44 5.4 24.35 5.46 24.27C5.49 24.23 5.52 24.19 5.55 24.16C5.76 23.9 6.05 23.71 6.4 23.57C6.69 23.45 7.05 23.37 7.49 23.33C7.83 23.29 8.27 23.27 8.81 23.25C8.98 23.25 9.21 23.25 9.5 23.25V21.71L8.29 20.7C7.66 20.17 7.23 19.8 6.98 19.59C6.56 19.22 6.23 18.92 5.99 18.67C5.68 18.35 5.45 18.05 5.3 17.78C5.09 17.43 5 17.02 5 16.66C5 16.53 5.01 16.4 5.04 16.26C5.06 16.15 5.09 16.04 5.13 15.93C5.17 15.79 5.23 15.66 5.3 15.53C5.35 15.44 5.4 15.35 5.46 15.27C5.49 15.23 5.52 15.19 5.55 15.16C5.76 14.9 6.05 14.71 6.4 14.57C6.69 14.45 7.05 14.37 7.49 14.33C7.83 14.29 8.27 14.27 8.81 14.25C8.98 14.25 9.21 14.25 9.5 14.25V12.71L8.29 11.7C7.66 11.17 7.23 10.8 6.98 10.59C6.56 10.22 6.23 9.92 5.99 9.67C5.68 9.35 5.45 9.05 5.3 8.78C5.09 8.43 5 8.02 5 7.66C5 7.53 5.01 7.4 5.04 7.26C5.06 7.15 5.09 7.04 5.13 6.93C5.17 6.79 5.23 6.66 5.3 6.53C5.35 6.44 5.4 6.35 5.46 6.27C5.49 6.23 5.52 6.19 5.55 6.16C5.76 5.9 6.05 5.71 6.4 5.57C6.69 5.45 7.05 5.37 7.49 5.33C7.83 5.29 8.27 5.27 8.81 5.25C9.11 5.25 9.61 5.25 10.32 5.25C10.5 4.97 10.72 4.7 10.96 4.46C11.2 4.22 11.46 4 11.74 3.82C12 3.65 12.26 3.51 12.55 3.39C12.83 3.27 13.12 3.18 13.41 3.11C13.77 3.03 14.13 3 14.5 3H21.5ZM26.44 7.25C26.48 7.49 26.5 7.74 26.5 8V10.1C27.06 9.62 27.47 9.28 27.7 9.08C28.07 8.75 28.35 8.49 28.56 8.28C28.75 8.08 28.88 7.91 28.96 7.79C28.96 7.76 28.96 7.64 28.96 7.61C28.83 7.56 28.54 7.34 28.28 7.31C28 7.28 27.62 7.26 27.14 7.25C26.97 7.25 26.74 7.25 26.44 7.25ZM26.5 16.25V19.1C27.06 18.62 27.47 18.28 27.7 18.08C28.07 17.75 28.35 17.49 28.56 17.28C28.75 17.08 28.88 16.91 28.96 16.79C28.96 16.76 28.96 16.64 28.96 16.61C28.83 16.56 28.54 16.34 28.28 16.31C28 16.28 27.62 16.26 27.14 16.25C26.98 16.25 26.77 16.25 26.5 16.25ZM26.5 25.25V28.1C27.06 27.62 27.47 27.28 27.7 27.08C28.07 26.75 28.35 26.49 28.56 26.28C28.75 26.08 28.88 25.91 28.96 25.79C28.96 25.76 28.96 25.64 28.96 25.61C28.83 25.56 28.54 25.34 28.28 25.31C28 25.28 27.62 25.26 27.14 25.25C26.98 25.25 26.77 25.25 26.5 25.25ZM9.5 28.1V25.25C9.22 25.25 9.01 25.25 8.85 25.25C8.37 25.26 7.99 25.28 7.71 25.31C7.44 25.34 7.16 25.48 7.04 25.53C7.04 25.56 7.03 25.67 7.03 25.7C7.1 25.83 7.24 26.08 7.43 26.28C7.63 26.49 7.92 26.75 8.29 27.08C8.52 27.28 8.92 27.62 9.5 28.1ZM9.5 19.1V16.25C9.22 16.25 9.01 16.25 8.85 16.25C8.37 16.26 7.99 16.28 7.71 16.31C7.44 16.34 7.16 16.48 7.04 16.53C7.04 16.56 7.03 16.67 7.03 16.7C7.1 16.82 7.24 17.08 7.43 17.28C7.63 17.49 7.92 17.75 8.29 18.08C8.52 18.28 8.92 18.62 9.5 19.1ZM9.5 10.1V8C9.5 7.74 9.51 7.49 9.55 7.25C9.25 7.25 9.02 7.25 8.85 7.25C8.37 7.26 7.99 7.28 7.71 7.31C7.44 7.34 7.16 7.48 7.04 7.53C7.04 7.56 7.03 7.67 7.03 7.7C7.1 7.82 7.24 8.08 7.43 8.28C7.63 8.49 7.92 8.75 8.29 9.08C8.52 9.28 8.92 9.62 9.5 10.1ZM18 12.25C19.24 12.25 20.25 11.24 20.25 10C20.25 8.75 19.24 7.75 18 7.75C16.75 7.75 15.75 8.75 15.75 10C15.75 11.24 16.75 12.25 18 12.25ZM18 20.5C19.24 20.5 20.25 19.49 20.25 18.25C20.25 17 19.24 16 18 16C16.75 16 15.75 17 15.75 18.25C15.75 19.49 16.75 20.5 18 20.5ZM18 28.75C19.24 28.75 20.25 27.74 20.25 26.5C20.25 25.25 19.24 24.25 18 24.25C16.75 24.25 15.75 25.25 15.75 26.5C15.75 27.74 16.75 28.75 18 28.75Z" fill="white"/>
</svg>
