<svg width="36" height="36" viewBox="0 0 36 36" fill="none" xmlns="http://www.w3.org/2000/svg">
<path fill-rule="evenodd" clip-rule="evenodd" d="M16.125 3C13.8468 3 12 4.84683 12 7.125V12.7495H7.125C4.84683 12.7495 3 14.5963 3 16.8745V28.8745C3 31.1527 4.84683 32.9995 7.125 32.9995H18.9C17.8809 31.809 17.1367 30.3762 16.7657 28.7995H16.7115L15.606 26.0605H10.3095L9.2205 28.7995H7.125L11.811 17.2495H12V19.875C12 20.3494 12.0801 20.8052 12.2275 21.2294L11.052 24.163H14.847L14.677 23.7387C15.1275 23.9076 15.6155 24 16.125 24H16.815C17.019 23.2077 17.3175 22.4535 17.698 21.75H16.125C15.0895 21.75 14.25 20.9105 14.25 19.875V7.125C14.25 6.08947 15.0895 5.25 16.125 5.25H28.875C29.9105 5.25 30.75 6.08947 30.75 7.125V17.4455C31.5664 17.8293 32.3224 18.3203 33 18.9004V7.125C33 4.84683 31.1532 3 28.875 3H16.125ZM28.0133 16.6138C28.0849 16.4658 28.125 16.2999 28.125 16.1245V10.8745C28.125 10.2532 27.6213 9.74952 27 9.74952C26.3787 9.74952 25.875 10.2532 25.875 10.8745V16.1245C25.875 16.2619 25.8996 16.3935 25.9447 16.5152C26.1285 16.5051 26.3137 16.5 26.5 16.5C27.0144 16.5 27.5198 16.5388 28.0133 16.6138ZM23.625 16.9194V8.99952C23.625 8.3782 23.1213 7.87452 22.5 7.87452C21.8787 7.87452 21.375 8.3782 21.375 8.99952V17.9113C22.0742 17.4932 22.8287 17.1581 23.625 16.9194ZM18 9.74952C18.6213 9.74952 19.125 10.2532 19.125 10.8745V16.1245C19.125 16.7458 18.6213 17.2495 18 17.2495C17.3787 17.2495 16.875 16.7458 16.875 16.1245V10.8745C16.875 10.2532 17.3787 9.74952 18 9.74952Z" fill="white"/>
<path fill-rule="evenodd" clip-rule="evenodd" d="M26.5 35C31.1944 35 35 31.1944 35 26.5C35 21.8056 31.1944 18 26.5 18C21.8056 18 18 21.8056 18 26.5C18 31.1944 21.8056 35 26.5 35ZM23.7521 22.6913C23.4592 22.3984 22.9843 22.3984 22.6914 22.6913C22.3985 22.9842 22.3985 23.459 22.6914 23.7519L25.4395 26.5L22.6914 29.2481C22.3985 29.541 22.3985 30.0158 22.6914 30.3087C22.9843 30.6016 23.4592 30.6016 23.7521 30.3087L26.5002 27.5607L29.2482 30.3087C29.5411 30.6016 30.016 30.6016 30.3089 30.3087C30.6018 30.0158 30.6018 29.541 30.3089 29.2481L27.5608 26.5L30.3089 23.7519C30.6018 23.459 30.6018 22.9842 30.3089 22.6913C30.016 22.3984 29.5411 22.3984 29.2482 22.6913L26.5002 25.4393L23.7521 22.6913Z" fill="white"/>
</svg>
