<svg width="36" height="36" viewBox="0 0 36 36" fill="none" xmlns="http://www.w3.org/2000/svg">
<path fill-rule="evenodd" clip-rule="evenodd" d="M12 7.125C12 4.84683 13.8468 3 16.125 3H28.875C31.1532 3 33 4.84682 33 7.125V19.875C33 22.1532 31.1532 24 28.875 24H23.25V28.8745C23.25 31.1527 21.4032 32.9995 19.125 32.9995H7.125C4.84683 32.9995 3 31.1527 3 28.8745V16.8745C3 14.5963 4.84683 12.7495 7.125 12.7495H12V7.125ZM12 17.2495H11.811L7.125 28.7995H9.2205L10.3095 26.0605H15.606L16.7115 28.7995H18.906L16.9313 24H16.125C15.6155 24 15.1275 23.9076 14.677 23.7387L14.847 24.163H11.052L12.2275 21.2294C12.0801 20.8052 12 20.3494 12 19.875V17.2495ZM16.125 5.25C15.0895 5.25 14.25 6.08947 14.25 7.125V19.875C14.25 20.9105 15.0895 21.75 16.125 21.75H28.875C29.9105 21.75 30.75 20.9105 30.75 19.875V7.125C30.75 6.08947 29.9105 5.25 28.875 5.25H16.125ZM22.5 7.87452C23.1213 7.87452 23.625 8.3782 23.625 8.99952V17.9995C23.625 18.6208 23.1213 19.1245 22.5 19.1245C21.8787 19.1245 21.375 18.6208 21.375 17.9995V8.99952C21.375 8.3782 21.8787 7.87452 22.5 7.87452ZM27 9.74952C27.6213 9.74952 28.125 10.2532 28.125 10.8745V16.1245C28.125 16.7458 27.6213 17.2495 27 17.2495C26.3787 17.2495 25.875 16.7458 25.875 16.1245V10.8745C25.875 10.2532 26.3787 9.74952 27 9.74952ZM19.125 10.8745C19.125 10.2532 18.6213 9.74952 18 9.74952C17.3787 9.74952 16.875 10.2532 16.875 10.8745V16.1245C16.875 16.7458 17.3787 17.2495 18 17.2495C18.6213 17.2495 19.125 16.7458 19.125 16.1245V10.8745Z" fill="white"/>
</svg>
