<svg width="36" height="36" viewBox="0 0 36 36" fill="none" xmlns="http://www.w3.org/2000/svg">
<path fill-rule="evenodd" clip-rule="evenodd" d="M12 7.125C12 4.84683 13.8468 3 16.125 3H28.875C31.1532 3 33 4.84682 33 7.125V19.875C33 22.1532 31.1532 24 28.875 24H16.125C13.9536 24 12.1741 22.3223 12.012 20.1924C12.0395 20.553 12.1132 20.9007 12.2275 21.2295L11.052 24.163H14.847L14.6771 23.7389C15.1276 23.9078 15.6155 24 16.125 24L16.9314 24.0002L18.906 28.7995H16.7115L15.606 26.0605H10.3095L9.2205 28.7995H7.125L11.811 17.2495H12V14.9995H7.125C6.08947 14.9995 5.25 15.839 5.25 16.8745V28.8745C5.25 29.91 6.08947 30.7495 7.125 30.7495H19.125C20.1605 30.7495 21 29.91 21 28.8745V24.0002H23.25V28.8745C23.25 31.1527 21.4032 32.9995 19.125 32.9995H7.125C4.84683 32.9995 3 31.1527 3 28.8745V16.8745C3 14.5963 4.84683 12.7495 7.125 12.7495H12V7.125ZM12 19.8752C12 19.8752 12 19.8752 12 19.8752V19.8752ZM16.125 5.25C15.0895 5.25 14.25 6.08947 14.25 7.125V19.875C14.25 20.9105 15.0895 21.75 16.125 21.75H28.875C29.9105 21.75 30.75 20.9105 30.75 19.875V7.125C30.75 6.08947 29.9105 5.25 28.875 5.25H16.125ZM22.5 7.87452C23.1213 7.87452 23.625 8.3782 23.625 8.99952V17.9995C23.625 18.6208 23.1213 19.1245 22.5 19.1245C21.8787 19.1245 21.375 18.6208 21.375 17.9995V8.99952C21.375 8.3782 21.8787 7.87452 22.5 7.87452ZM27 9.74952C27.6213 9.74952 28.125 10.2532 28.125 10.8745V16.1245C28.125 16.7458 27.6213 17.2495 27 17.2495C26.3787 17.2495 25.875 16.7458 25.875 16.1245V10.8745C25.875 10.2532 26.3787 9.74952 27 9.74952ZM19.125 10.8745C19.125 10.2532 18.6213 9.74952 18 9.74952C17.3787 9.74952 16.875 10.2532 16.875 10.8745V16.1245C16.875 16.7458 17.3787 17.2495 18 17.2495C18.6213 17.2495 19.125 16.7458 19.125 16.1245V10.8745Z" fill="white"/>
</svg>
