<svg width="36" height="36" viewBox="0 0 36 36" fill="none" xmlns="http://www.w3.org/2000/svg">
<path fill-rule="evenodd" clip-rule="evenodd" d="M12.4478 8.9089C12.4478 6.47266 14.425 4.5 16.8613 4.5H19.137C21.5732 4.5 23.5505 6.47266 23.5505 8.9089V10.1815H28.9982C29.5505 10.1815 29.9982 10.6292 29.9982 11.1815C29.9982 11.7338 29.5505 12.1815 28.9982 12.1815H26.964V25.6918C26.964 26.5051 26.964 27.1759 26.9193 27.7221C26.8729 28.2894 26.7734 28.8099 26.524 29.2986C26.1371 30.057 25.5198 30.6734 24.7608 31.0596C24.2719 31.3084 23.7511 31.4077 23.1834 31.454C22.6366 31.4986 21.9651 31.4986 21.1506 31.4986H14.8477C14.0331 31.4986 13.3617 31.4986 12.8148 31.454C12.2471 31.4077 11.7263 31.3084 11.2375 31.0596C10.4785 30.6734 9.86116 30.057 9.4742 29.2986C9.22486 28.8099 9.12532 28.2894 9.07891 27.7221C9.03422 27.1759 9.03423 26.5051 9.03424 25.6918L9.03424 12.1815H7C6.44772 12.1815 6 11.7338 6 11.1815C6 10.6292 6.44772 10.1815 7 10.1815H12.4478V8.9089ZM14.4478 10.1815H21.5505V8.9089C21.5505 7.57978 20.4712 6.5 19.137 6.5H16.8613C15.5271 6.5 14.4478 7.57978 14.4478 8.9089V10.1815ZM11.0342 12.1815V25.6504C11.0342 26.5154 11.035 27.104 11.0722 27.559C11.1085 28.0024 11.1743 28.2302 11.2557 28.3897C11.4506 28.7715 11.7616 29.0823 12.1445 29.2771C12.3046 29.3586 12.5332 29.4244 12.9775 29.4606C13.4333 29.4978 14.0229 29.4986 14.889 29.4986H21.1092C21.9754 29.4986 22.5649 29.4978 23.0208 29.4606C23.465 29.4244 23.6936 29.3586 23.8538 29.2771C24.2367 29.0823 24.5477 28.7715 24.7425 28.3897C24.8239 28.2302 24.8897 28.0024 24.926 27.559C24.9632 27.104 24.964 26.5154 24.964 25.6504V12.1815H11.0342ZM14.9648 16.6211C15.5171 16.6211 15.9648 17.0688 15.9648 17.6211V26.7115C15.9648 27.2638 15.5171 27.7115 14.9648 27.7115C14.4126 27.7115 13.9648 27.2638 13.9648 26.7115V17.6211C13.9648 17.0688 14.4126 16.6211 14.9648 16.6211ZM22.0332 17.6211C22.0332 17.0688 21.5855 16.6211 21.0332 16.6211C20.4809 16.6211 20.0332 17.0688 20.0332 17.6211V26.7115C20.0332 27.2638 20.4809 27.7115 21.0332 27.7115C21.5855 27.7115 22.0332 27.2638 22.0332 26.7115V17.6211Z" fill="white"/>
</svg>
