<svg width="36" height="36" viewBox="0 0 36 36" fill="none" xmlns="http://www.w3.org/2000/svg">
<path fill-rule="evenodd" clip-rule="evenodd" d="M14.811 4.25C13.8008 4.24999 12.988 4.24999 12.3226 4.2992C11.6363 4.34996 11.038 4.45655 10.4667 4.70441C9.54297 5.10516 8.74701 5.75179 8.16554 6.57381C7.80591 7.08222 7.57902 7.64602 7.38874 8.30741C7.22084 8.89102 7.06783 9.60253 6.88569 10.4712H5.625C5.00368 10.4712 4.5 10.9748 4.5 11.5962C4.5 12.2175 5.00368 12.7212 5.625 12.7212H6.41477L6.21751 13.6637C5.6893 13.9769 5.25929 14.4341 4.97923 14.9838C4.77281 15.3889 4.69468 15.813 4.65898 16.25C4.62497 16.6663 4.62498 17.1734 4.625 17.7698L4.625 26.5282H4.6001V29.1294C4.6001 30.5792 5.77535 31.7544 7.2251 31.7544C8.67485 31.7544 9.8501 30.5792 9.8501 29.1294V27.155H26.1499V29.1294C26.1499 30.5792 27.3252 31.7544 28.7749 31.7544C30.2246 31.7544 31.3999 30.5792 31.3999 29.1294V26.5282H31.375V17.7698C31.375 17.1734 31.375 16.6663 31.341 16.25C31.3053 15.813 31.2272 15.3889 31.0208 14.9838C30.7407 14.4341 30.3107 13.9769 29.7825 13.6637L29.5852 12.7212H30.375C30.9963 12.7212 31.5 12.2175 31.5 11.5962C31.5 10.9748 30.9963 10.4712 30.375 10.4712H29.1143C28.9322 9.60253 28.7792 8.89102 28.6113 8.30741C28.421 7.64602 28.1941 7.08222 27.8345 6.57381C27.253 5.75179 26.457 5.10516 25.5333 4.70441C24.962 4.45655 24.3637 4.34996 23.6774 4.2992C23.012 4.24999 22.1992 4.24999 21.189 4.25H14.811ZM26.775 15.2093H9.225C8.57844 15.2093 8.15366 15.2101 7.82864 15.2366C7.51529 15.2622 7.38369 15.3067 7.30751 15.3455C7.07231 15.4654 6.88108 15.6566 6.76124 15.8918C6.72242 15.968 6.67794 16.0996 6.65233 16.4129C6.62578 16.7379 6.625 17.1627 6.625 17.8093V25.155H29.375V17.8093C29.375 17.1627 29.3742 16.7379 29.3477 16.4129C29.3221 16.0996 29.2776 15.968 29.2388 15.8918C29.1189 15.6566 28.9277 15.4654 28.6925 15.3455C28.6163 15.3067 28.4847 15.2622 28.1714 15.2366C27.8463 15.2101 27.4216 15.2093 26.775 15.2093ZM27.6441 13.2093L27.2194 11.18C27.0028 10.1452 26.8508 9.42216 26.6892 8.86036C26.5311 8.31069 26.3815 7.98298 26.2017 7.72879C25.8316 7.20568 25.3251 6.79419 24.7373 6.53917C24.4517 6.41524 24.1003 6.33594 23.5299 6.29375C22.9469 6.25063 22.208 6.25 21.1508 6.25H14.8492C13.792 6.25 13.0531 6.25063 12.4701 6.29375C11.8997 6.33594 11.5483 6.41524 11.2627 6.53917C10.6749 6.79419 10.1684 7.20568 9.79834 7.72879C9.61853 7.98298 9.46892 8.31069 9.31078 8.86036C9.14916 9.42216 8.99719 10.1452 8.78064 11.18L8.35594 13.2093H27.6441ZM27 20.5554C27 21.7924 25.9926 22.7952 24.75 22.7952C23.5074 22.7952 22.5 21.7924 22.5 20.5554C22.5 19.3183 23.5074 18.3155 24.75 18.3155C25.9926 18.3155 27 19.3183 27 20.5554ZM11.25 22.7952C12.4926 22.7952 13.5 21.7924 13.5 20.5554C13.5 19.3183 12.4926 18.3155 11.25 18.3155C10.0074 18.3155 9 19.3183 9 20.5554C9 21.7924 10.0074 22.7952 11.25 22.7952Z" fill="white"/>
</svg>
