<svg width="36" height="36" viewBox="0 0 36 36" fill="none" xmlns="http://www.w3.org/2000/svg">
<path fill-rule="evenodd" clip-rule="evenodd" d="M14.811 4.25C13.8008 4.24999 12.988 4.24999 12.3226 4.2992C11.6363 4.34996 11.038 4.45655 10.4667 4.70441C9.54297 5.10516 8.74701 5.75179 8.16554 6.57381C7.80591 7.08222 7.57902 7.64602 7.38874 8.30741C7.22084 8.89102 7.06783 9.60253 6.88569 10.4712H5.625C5.00368 10.4712 4.5 10.9748 4.5 11.5962C4.5 12.2175 5.00368 12.7212 5.625 12.7212H6.41477L6.25051 13.506C5.65772 13.8316 5.17561 14.3281 4.86785 14.9321C4.5 15.6541 4.5 16.5992 4.5 18.4894V29.1295C4.5 30.5793 5.67525 31.7545 7.125 31.7545C8.57475 31.7545 9.75 30.5793 9.75 29.1295V27.2749H26.25V29.1295C26.25 30.5793 27.4253 31.7545 28.875 31.7545C30.3247 31.7545 31.5 30.5793 31.5 29.1295V18.4894C31.5 16.5992 31.5 15.6541 31.1321 14.9321C30.8244 14.3281 30.3423 13.8316 29.7495 13.506L29.5852 12.7212H30.375C30.9963 12.7212 31.5 12.2175 31.5 11.5962C31.5 10.9748 30.9963 10.4712 30.375 10.4712H29.1143C28.9322 9.60253 28.7792 8.89102 28.6113 8.30741C28.421 7.64602 28.1941 7.08222 27.8345 6.57381C27.253 5.75179 26.457 5.10516 25.5333 4.70441C24.962 4.45655 24.3637 4.34996 23.6774 4.2992C23.012 4.24999 22.1992 4.24999 21.189 4.25H14.811ZM27.6213 13.1007L27.2194 11.18C27.0028 10.1452 26.8508 9.42216 26.6892 8.86036C26.5311 8.31069 26.3815 7.98298 26.2017 7.72879C25.8316 7.20568 25.3251 6.79419 24.7373 6.53917C24.4517 6.41524 24.1003 6.33594 23.5299 6.29375C22.9469 6.25063 22.208 6.25 21.1508 6.25H14.8492C13.792 6.25 13.0531 6.25063 12.4701 6.29375C11.8997 6.33594 11.5483 6.41524 11.2627 6.53917C10.6749 6.79419 10.1684 7.20568 9.79834 7.72879C9.61853 7.98298 9.46892 8.31069 9.31078 8.86036C9.14916 9.42216 8.99719 10.1452 8.78064 11.18L8.37867 13.1007C8.80772 13.0894 9.30741 13.0894 9.9 13.0894H26.1C26.6926 13.0894 27.1923 13.0894 27.6213 13.1007ZM24.75 22.7951C25.9926 22.7951 27 21.7923 27 20.5553C27 19.3183 25.9926 18.3155 24.75 18.3155C23.5074 18.3155 22.5 19.3183 22.5 20.5553C22.5 21.7923 23.5074 22.7951 24.75 22.7951ZM13.5 20.5553C13.5 21.7923 12.4926 22.7951 11.25 22.7951C10.0074 22.7951 9 21.7923 9 20.5553C9 19.3183 10.0074 18.3155 11.25 18.3155C12.4926 18.3155 13.5 19.3183 13.5 20.5553Z" fill="white"/>
</svg>
