<svg width="36" height="36" viewBox="0 0 36 36" fill="none" xmlns="http://www.w3.org/2000/svg">
<path fill-rule="evenodd" clip-rule="evenodd" d="M4.625 11.25C4.625 12.9068 5.96815 14.25 7.625 14.25H8.99866L8.99913 25.2623C8.99921 27.1188 10.5035 28.6246 12.3608 28.6246H16.032C16.2365 29.9695 17.3979 31.0001 18.8 31.0001H27.2C28.7464 31.0001 30 29.7465 30 28.2001V25.8001C30 24.2537 28.7464 23.0001 27.2 23.0001H18.8C17.2536 23.0001 16 24.2537 16 25.8001V26.6246H12.3608C11.6088 26.6246 10.9992 26.015 10.9991 25.2622L10.9989 19.0001H16V19.2001C16 20.7465 17.2536 22.0001 18.8 22.0001H27.2C28.7464 22.0001 30 20.7465 30 19.2001V16.8001C30 15.2537 28.7464 14.0001 27.2 14.0001H18.8C17.2536 14.0001 16 15.2537 16 16.8001V17.0001H10.9988L10.9987 14.25H12.4996C14.1564 14.25 15.4996 12.9068 15.4996 11.25V7.5C15.4996 5.84315 14.1564 4.5 12.4996 4.5H7.625C5.96815 4.5 4.625 5.84315 4.625 7.5V11.25ZM6.625 7.5V11.25C6.625 11.8023 7.07272 12.25 7.625 12.25H12.4996C13.0518 12.25 13.4996 11.8023 13.4996 11.25V7.5C13.4996 6.94772 13.0518 6.5 12.4996 6.5H7.625C7.07271 6.5 6.625 6.94772 6.625 7.5ZM27.2 16.0001H18.8C18.3582 16.0001 18 16.3582 18 16.8001V19.2001C18 19.6419 18.3582 20.0001 18.8 20.0001H27.2C27.6418 20.0001 28 19.6419 28 19.2001V16.8001C28 16.3582 27.6418 16.0001 27.2 16.0001ZM18 28.2001V25.8001C18 25.3582 18.3582 25.0001 18.8 25.0001H27.2C27.6418 25.0001 28 25.3582 28 25.8001V28.2001C28 28.6419 27.6418 29.0001 27.2 29.0001H18.8C18.3582 29.0001 18 28.6419 18 28.2001Z" fill="white"/>
</svg>
