<svg width="36" height="36" viewBox="0 0 36 36" fill="none" xmlns="http://www.w3.org/2000/svg">
<path fill-rule="evenodd" clip-rule="evenodd" d="M33 16.4993C32.4519 15.7697 31.7737 15.1433 31 14.6546V8.00002H5.00002V23.1526H19.8135C20.0282 23.8703 20.3474 24.5429 20.7535 25.1526L4.58079 25.1526C4.49378 25.1526 4.37704 25.1527 4.27228 25.1441C4.14791 25.134 3.95536 25.1069 3.75078 25.0027C3.49206 24.8709 3.28171 24.6605 3.14988 24.4018C3.04565 24.1972 3.01861 24.0047 3.00845 23.8803C2.99989 23.7755 2.99996 23.6588 3.00001 23.5718V7.58078C2.99996 7.49377 2.99989 7.37705 3.00845 7.27228C3.01861 7.14791 3.04565 6.95536 3.14988 6.75078C3.28171 6.49206 3.49206 6.28171 3.75078 6.14988C3.95536 6.04565 4.14791 6.01861 4.27228 6.00845C4.37705 5.99989 4.49377 5.99996 4.58079 6.00001H31.4193C31.5063 5.99996 31.623 5.99989 31.7278 6.00845C31.8521 6.01861 32.0447 6.04565 32.2493 6.14988C32.508 6.28171 32.7183 6.49206 32.8502 6.75078C32.9544 6.95536 32.9814 7.14791 32.9916 7.27228C33.0001 7.37704 33.0001 7.49374 33 7.58075L33 16.4993ZM22.4996 27.0002C22.6614 27.1218 22.8284 27.237 23 27.3454V29.0016H5.89259V27.0002H22.4996Z" fill="white"/>
<path fill-rule="evenodd" clip-rule="evenodd" d="M30.2334 27C30.1295 27.2532 30.047 27.5149 29.9926 27.7868L29.6913 29.2937C29.4347 30.5766 28.3083 31.5 27 31.5C25.6917 31.5 24.5653 30.5766 24.3087 29.2937L24.0074 27.7868C23.953 27.5149 23.8705 27.2532 23.7666 27H30.2334ZM30.7652 26C31.0497 25.5573 31.3782 25.136 31.7048 24.724C32.5157 23.7008 33 22.407 33 21C33 17.6863 30.3137 15 27 15C23.6863 15 21 17.6863 21 21C21 22.407 21.4843 23.7008 22.2952 24.724C22.6218 25.136 22.9503 25.5573 23.2348 26H30.7652Z" fill="white"/>
</svg>
