<svg width="36" height="36" viewBox="0 0 36 36" fill="none" xmlns="http://www.w3.org/2000/svg">
<path fill-rule="evenodd" clip-rule="evenodd" d="M30.5879 6.00376C30.412 6.00195 30.2172 6.00195 30 6.00195H6C4.9499 6.00195 4.42485 6.00195 4.02377 6.20632C3.67096 6.38608 3.38413 6.67292 3.20436 7.02572C3 7.42681 3 7.95186 3 9.00196V22.7116C3 23.7617 3 24.2868 3.20436 24.6879C3.38413 25.0407 3.67096 25.3275 4.02377 25.5073C4.42485 25.7116 4.9499 25.7116 6 25.7116H10.88L30.5879 6.00376ZM9.08969 27.502H6V29.502H7.08969L9.08969 27.502ZM9.91812 29.502L11.9181 27.502H30V29.502H9.91812ZM13.7084 25.7116L32.5157 6.90437C32.5599 6.86016 32.5991 6.81285 32.6333 6.76313C32.6943 6.84565 32.7486 6.93343 32.7956 7.02572C33 7.42681 33 7.95185 33 9.00195V22.7116C33 23.7617 33 24.2868 32.7956 24.6879C32.6159 25.0407 32.329 25.3275 31.9762 25.5073C31.5751 25.7116 31.0501 25.7116 30 25.7116H13.7084Z" fill="white"/>
<path fill-rule="evenodd" clip-rule="evenodd" d="M31.1632 4.08196C31.5537 4.47248 31.5537 5.10564 31.1632 5.49617L5.70732 30.952C5.31679 31.3425 4.68363 31.3425 4.2931 30.952C3.90258 30.5615 3.90258 29.9283 4.2931 29.5378L29.7489 4.08196C30.1395 3.69143 30.7726 3.69143 31.1632 4.08196Z" fill="white"/>
</svg>
