<svg width="36" height="36" viewBox="0 0 36 36" fill="none" xmlns="http://www.w3.org/2000/svg">
<path fill-rule="evenodd" clip-rule="evenodd" d="M32.7373 6.56867C32.6885 6.69088 32.6147 6.80542 32.5157 6.90437L31 8.42006V23.1545H16.2655L14.2655 25.1545L31.4192 25.1545C31.5063 25.1546 31.623 25.1547 31.7277 25.1461C31.8521 25.1359 32.0447 25.1089 32.2493 25.0047C32.508 24.8728 32.7183 24.6625 32.8501 24.4038C32.9544 24.1992 32.9814 24.0066 32.9916 23.8823C33.0001 23.7775 33.0001 23.6608 33 23.5738V7.58274C33.0001 7.49572 33.0001 7.37901 32.9916 7.27424C32.9814 7.14986 32.9544 6.95731 32.8501 6.75273C32.8173 6.68821 32.7795 6.6267 32.7373 6.56867ZM11.4371 25.1545L4.58078 25.1545C4.49377 25.1546 4.37705 25.1547 4.27229 25.1461C4.14791 25.1359 3.95536 25.1089 3.75078 25.0047C3.49205 24.8728 3.28171 24.6625 3.14988 24.4038C3.04565 24.1992 3.01861 24.0066 3.00845 23.8823C2.99989 23.7775 2.99996 23.6608 3.00001 23.5737V7.58275C2.99996 7.49573 2.99989 7.37901 3.00845 7.27424C3.01861 7.14986 3.04565 6.95731 3.14988 6.75273C3.28171 6.49401 3.49206 6.28366 3.75078 6.15184C3.95536 6.0476 4.14791 6.02056 4.27229 6.0104C4.37706 6.00184 4.49377 6.00191 4.58079 6.00196L30.5897 6.00196L28.5897 8.00197H5.00002V23.1545H13.4371L11.4371 25.1545ZM9.59085 27.0008L7.58966 29.002L7.10197 29.002V27.0006L9.59085 27.0008ZM10.4179 29.0022L12.4191 27.001L30.1088 27.0022V29.0035L10.4179 29.0022Z" fill="white"/>
<path fill-rule="evenodd" clip-rule="evenodd" d="M31.1632 4.08196C31.5537 4.47248 31.5537 5.10564 31.1632 5.49617L5.70732 30.952C5.31679 31.3425 4.68363 31.3425 4.2931 30.952C3.90258 30.5615 3.90258 29.9283 4.2931 29.5378L29.7489 4.08196C30.1395 3.69143 30.7726 3.69143 31.1632 4.08196Z" fill="white"/>
</svg>
