<svg width="36" height="36" viewBox="0 0 36 36" fill="none" xmlns="http://www.w3.org/2000/svg">
<path d="M29.749 4.08196C30.1395 3.69143 30.7726 3.69143 31.1631 4.08196C31.5536 4.47248 31.5536 5.10551 31.1631 5.49602L5.70703 30.9521C5.3165 31.3423 4.68341 31.3425 4.29297 30.9521C3.90253 30.5616 3.90269 29.9286 4.29297 29.538L6 27.831V27.5019H6.3291L8.11914 25.7118H6C4.9499 25.7118 4.42452 25.7111 4.02344 25.5068C3.67082 25.327 3.3838 25.0401 3.2041 24.6874C2.99993 24.2864 3 23.7614 3 22.7118V9.00188C3 7.95178 2.99974 7.4264 3.2041 7.02532C3.38384 6.67262 3.67075 6.38573 4.02344 6.20598C4.42452 6.00162 4.9499 6.00188 6 6.00188H27.8291L29.749 4.08196Z" fill="white"/>
<path d="M30 29.5019H9.91797L11.918 27.5019H30V29.5019Z" fill="white"/>
<path d="M32.6338 6.76262C32.6947 6.84512 32.7489 6.93306 32.7959 7.02532C33.0003 7.4264 33 7.95178 33 9.00188V22.7118C33 23.7614 33.0001 24.2864 32.7959 24.6874C32.6162 25.0401 32.3292 25.327 31.9766 25.5068C31.5755 25.7111 31.0501 25.7118 30 25.7118H13.708L32.5156 6.90422C32.5598 6.86001 32.5996 6.81234 32.6338 6.76262Z" fill="white"/>
</svg>
