<svg width="36" height="36" viewBox="0 0 36 36" fill="none" xmlns="http://www.w3.org/2000/svg">
<path fill-rule="evenodd" clip-rule="evenodd" d="M31.4192 25.1526C31.4127 25.1526 31.4062 25.1526 31.4 25.1526L4.58079 25.1526C4.49378 25.1526 4.37706 25.1527 4.27228 25.1441C4.14791 25.134 3.95536 25.1069 3.75078 25.0027C3.49206 24.8709 3.28171 24.6605 3.14988 24.4018C3.04565 24.1972 3.01861 24.0047 3.00845 23.8803C2.99989 23.7755 2.99996 23.6588 3.00001 23.5718V7.58078C2.99996 7.49377 2.99989 7.37705 3.00845 7.27228C3.01861 7.14791 3.04565 6.95536 3.14988 6.75078C3.28171 6.49206 3.49206 6.28171 3.75078 6.14988C3.95536 6.04565 4.14791 6.01861 4.27228 6.00845C4.37705 5.99989 4.49377 5.99996 4.58078 6.00001L31.4 6.00002C31.4062 6.00002 31.4127 6.00001 31.4192 6.00001C31.5063 5.99996 31.623 5.99989 31.7277 6.00845C31.8521 6.01861 32.0447 6.04565 32.2493 6.14988C32.508 6.28171 32.7183 6.49206 32.8501 6.75078C32.9544 6.95536 32.9814 7.14791 32.9916 7.27228C33.0001 7.37706 33.0001 7.49378 33 7.58079C33 7.58738 33 7.59379 33 7.60002V23.5526C33 23.5588 33 23.5652 33 23.5718C33.0001 23.6588 33.0001 23.7755 32.9916 23.8803C32.9814 24.0047 32.9544 24.1972 32.8501 24.4018C32.7183 24.6605 32.508 24.8709 32.2493 25.0027C32.0447 25.1069 31.8521 25.134 31.7277 25.1441C31.623 25.1527 31.5063 25.1526 31.4192 25.1526ZM31 23.1526H5.00002V8.00002H31V23.1526Z" fill="white"/>
<path d="M5.89259 27.0002H30.1088V29.0016H5.89259V27.0002Z" fill="white"/>
</svg>
