<svg width="36" height="36" viewBox="0 0 36 36" fill="none" xmlns="http://www.w3.org/2000/svg">
<path fill-rule="evenodd" clip-rule="evenodd" d="M17.9996 3C14.0041 3 10.1713 4.57906 7.34449 7.39143C5.16463 9.56019 3.72079 12.3254 3.17402 15.3025L3.16787 15.336C3.10485 15.679 3.0487 15.9847 3.02123 16.2191C3.007 16.3405 2.99478 16.4864 3.00228 16.6332C3.00875 16.7597 3.03421 17.0234 3.2043 17.2789C3.47385 17.6839 3.92009 17.9111 4.40615 17.8909C4.7355 17.8772 4.97735 17.7199 5.07109 17.6559C5.19283 17.5729 5.30642 17.4729 5.40255 17.3829C5.59065 17.2067 5.82877 16.9563 6.10535 16.6655L6.12762 16.642C6.90009 15.8298 7.8377 15.2158 8.87236 15.2158C10.026 15.2158 10.7836 15.6378 11.3042 16.1432L11.3125 16.1513C11.718 16.5449 12.0319 16.8497 12.2547 17.0589C12.3658 17.1632 12.4659 17.2548 12.549 17.3254C12.5898 17.3601 12.6389 17.4003 12.6908 17.4376L12.6941 17.4399C12.7234 17.4613 12.8491 17.5525 13.0188 17.6065L13.0481 17.6162L13.0507 17.617C13.0597 17.62 13.0793 17.6266 13.0981 17.6324L13.0998 17.633C13.139 17.6452 13.2689 17.6857 13.436 17.6857C13.6031 17.6857 13.733 17.6452 13.7721 17.633L13.7739 17.6324C13.7926 17.6266 13.8123 17.62 13.8213 17.617L13.8238 17.6162L13.8531 17.6065C14.0228 17.5525 14.1485 17.4613 14.1779 17.4399L14.1811 17.4376C14.233 17.4003 14.2821 17.3601 14.3229 17.3254C14.4061 17.2548 14.5061 17.1632 14.6172 17.0589C14.84 16.8496 15.154 16.5448 15.5596 16.1511L15.5677 16.1432C16.0884 15.6378 16.8459 15.2158 17.9996 15.2158C19.1532 15.2158 19.9108 15.6378 20.4314 16.1432L20.4397 16.1513C20.8449 16.5446 21.1592 16.8498 21.3819 17.0589C21.493 17.1632 21.5931 17.2548 21.6762 17.3254C21.717 17.3601 21.7661 17.4003 21.818 17.4376L21.8213 17.4399C21.8506 17.4613 21.9763 17.5525 22.146 17.6065L22.1753 17.6162L22.1779 17.617C22.1868 17.62 22.2065 17.6266 22.2253 17.6324L22.227 17.633C22.2662 17.6452 22.3961 17.6857 22.5632 17.6857C22.7303 17.6857 22.8602 17.6452 22.8993 17.633L22.9011 17.6324C22.9198 17.6266 22.9395 17.62 22.9485 17.617L22.951 17.6162L22.9803 17.6065C23.15 17.5525 23.2757 17.4613 23.3051 17.4399L23.3083 17.4376C23.3602 17.4003 23.4093 17.3601 23.4501 17.3254C23.5333 17.2548 23.6333 17.1632 23.7444 17.0589C23.9672 16.8497 24.281 16.545 24.6864 16.1515L24.6949 16.1432C25.2156 15.6378 25.9731 15.2158 27.1268 15.2158C28.1614 15.2158 29.099 15.8298 29.8715 16.642L29.8939 16.6656C30.1704 16.9564 30.4085 17.2067 30.5966 17.3829C30.6927 17.4729 30.8063 17.5729 30.928 17.6559C31.0218 17.7199 31.2636 17.8772 31.593 17.8909C32.0791 17.9111 32.5253 17.6839 32.7948 17.2789C32.9649 17.0234 32.9904 16.7597 32.9969 16.6332C33.0044 16.4864 32.9921 16.3405 32.9779 16.2191C32.9504 15.9847 32.8943 15.6791 32.8313 15.3361L32.8251 15.3025C32.2784 12.3254 30.8345 9.56019 28.6546 7.39143C25.8279 4.57906 21.995 3 17.9996 3ZM8.75509 8.80925C11.206 6.37081 14.5313 5 17.9996 5C21.4679 5 24.7931 6.37081 27.244 8.80925C28.8714 10.4283 30.0248 12.4299 30.6161 14.601C29.7285 13.8599 28.5511 13.2158 27.1268 13.2158C25.4099 13.2158 24.1637 13.8716 23.3018 14.7082C22.9974 15.0037 22.7539 15.2401 22.5632 15.4226C22.3725 15.2401 22.1289 15.0037 21.8245 14.7082C20.9627 13.8716 19.7164 13.2158 17.9996 13.2158C16.2827 13.2158 15.0365 13.8716 14.1746 14.7082C13.8702 15.0037 13.6267 15.2401 13.436 15.4226C13.2453 15.2401 13.0017 15.0037 12.6973 14.7082C11.8355 13.8716 10.5892 13.2158 8.87236 13.2158C7.44805 13.2158 6.27065 13.8599 5.38299 14.601C5.97434 12.4299 7.12775 10.4283 8.75509 8.80925ZM18.0027 16.9995C18.555 16.9995 19.0027 17.4473 19.0027 17.9995V28.5937C19.0027 28.6197 19.0017 28.6454 18.9997 28.6709C18.99 29.2237 18.8758 29.7699 18.6631 30.2809C18.4404 30.8157 18.1142 31.3014 17.7032 31.7102C17.2923 32.119 16.8048 32.4431 16.2686 32.664C15.7323 32.885 15.1578 32.9987 14.5777 32.9987C13.9976 32.9987 13.4231 32.885 12.8869 32.664C12.3507 32.4431 11.8631 32.119 11.4522 31.7102C11.0413 31.3014 10.715 30.8157 10.4924 30.2809C10.2697 29.7461 10.155 29.1726 10.155 28.5934C10.155 28.0411 10.6027 27.5934 11.155 27.5934C11.7073 27.5934 12.155 28.0411 12.155 28.5934C12.155 28.9086 12.2174 29.2208 12.3387 29.5122C12.4601 29.8036 12.6381 30.0688 12.8628 30.2924C13.0875 30.516 13.3546 30.6936 13.6489 30.8149C13.9432 30.9362 14.2589 30.9987 14.5777 30.9987C14.8966 30.9987 15.2122 30.9362 15.5065 30.8149C15.8008 30.6936 16.0679 30.516 16.2926 30.2924C16.5174 30.0688 16.6954 29.8036 16.8167 29.5122C16.938 29.2208 17.0004 28.9086 17.0004 28.5934C17.0004 28.5707 17.0012 28.5481 17.0027 28.5258V17.9995C17.0027 17.4473 17.4504 16.9995 18.0027 16.9995Z" fill="white"/>
</svg>
