<svg width="36" height="36" viewBox="0 0 36 36" fill="none" xmlns="http://www.w3.org/2000/svg">
<path fill-rule="evenodd" clip-rule="evenodd" d="M18 3C14.0025 3 10.1687 4.58696 7.34198 7.41178C5.17117 9.58116 3.73093 12.3441 3.17943 15.3188L3.17266 15.3553C3.10909 15.6981 3.0514 16.0092 3.02284 16.2491C3.00801 16.3737 2.99452 16.5283 3.00225 16.6861C3.00885 16.8206 3.03544 17.1131 3.22487 17.3986C3.51926 17.8423 4.00845 18.0924 4.54077 18.0713C4.90921 18.0567 5.17763 17.8812 5.27581 17.8145C5.40621 17.7259 5.52618 17.6205 5.62481 17.5285C5.81747 17.3489 6.06039 17.0947 6.33846 16.8038L6.36298 16.7781C7.1149 15.9915 8.00036 15.4268 8.95637 15.4268C10.0418 15.4268 10.7515 15.8175 11.2421 16.2862L11.2515 16.2951C11.6631 16.6882 11.9826 16.9935 12.2095 17.2032C12.3226 17.3078 12.4256 17.4007 12.5118 17.4729C12.5539 17.5083 12.606 17.5504 12.6616 17.59L12.6651 17.5925C12.6954 17.6143 12.8357 17.7153 13.0254 17.775L13.0513 17.7834L13.0538 17.7843C13.0619 17.787 13.0824 17.7938 13.101 17.7996L13.104 17.8006C13.1444 17.8132 13.2905 17.8591 13.4782 17.8591C13.6658 17.8591 13.812 17.8132 13.8524 17.8006L13.8554 17.7996C13.874 17.7938 13.8944 17.787 13.9026 17.7843L13.9051 17.7834L13.931 17.775C14.1207 17.7153 14.261 17.6143 14.2913 17.5925L14.2947 17.59C14.3504 17.5504 14.4024 17.5083 14.4446 17.4729C14.5308 17.4007 14.6338 17.3078 14.7469 17.2032C14.9737 16.9935 15.2933 16.6882 15.7048 16.2951L15.7142 16.2862C16.2049 15.8175 16.9146 15.4268 18 15.4268C19.0854 15.4268 19.7951 15.8175 20.2858 16.2862L20.2952 16.2952C20.7067 16.6883 21.0263 16.9935 21.2531 17.2032C21.3662 17.3078 21.4692 17.4007 21.5554 17.4729C21.5976 17.5083 21.6496 17.5504 21.7053 17.59L21.7087 17.5925C21.739 17.6143 21.8793 17.7153 22.069 17.775L22.0949 17.7834L22.0974 17.7843C22.1056 17.787 22.126 17.7938 22.1446 17.7996L22.1476 17.8006C22.188 17.8132 22.3342 17.8591 22.5218 17.8591C22.7095 17.8591 22.8556 17.8132 22.896 17.8006L22.899 17.7996C22.92 17.7931 22.9433 17.7852 22.9487 17.7834L22.9746 17.775C23.1644 17.7153 23.3046 17.6143 23.3349 17.5925L23.3384 17.59C23.394 17.5504 23.4461 17.5083 23.4882 17.4729C23.5744 17.4007 23.6774 17.3078 23.7905 17.2032C24.0174 16.9935 24.3369 16.6883 24.7484 16.2952L24.7579 16.2862C25.2485 15.8175 25.9582 15.4268 27.0436 15.4268C27.9996 15.4268 28.8851 15.9915 29.637 16.7781L29.6616 16.8038C29.9396 17.0947 30.1826 17.3489 30.3752 17.5285C30.4738 17.6205 30.5938 17.7259 30.7242 17.8145C30.8224 17.8812 31.0908 18.0567 31.4592 18.0713C31.9916 18.0924 32.4807 17.8423 32.7751 17.3986C32.9646 17.1131 32.9911 16.8206 32.9977 16.6861C33.0055 16.5283 32.992 16.3737 32.9772 16.2491C32.9486 16.0092 32.8909 15.6981 32.8273 15.3554L32.8206 15.3188C32.2691 12.3441 30.8288 9.58117 28.658 7.41178C25.8313 4.58697 21.9975 3 18 3ZM17.998 17.0628C18.5503 17.0628 18.998 17.5105 18.998 18.0628V28.6067C18.998 28.6187 18.9978 28.6306 18.9974 28.6424C18.9928 29.2068 18.8794 29.765 18.6632 30.2866C18.4425 30.8191 18.1189 31.303 17.7111 31.7105C17.3033 32.118 16.8192 32.4413 16.2865 32.6618C15.7538 32.8823 15.1828 32.9958 14.6062 32.9958C14.0296 32.9958 13.4587 32.8823 12.9259 32.6618C12.3932 32.4413 11.9091 32.118 11.5013 31.7105C11.0935 31.303 10.7699 30.8191 10.5492 30.2866C10.3285 29.754 10.2148 29.1832 10.2148 28.6067C10.2148 28.0544 10.6626 27.6067 11.2148 27.6067C11.7671 27.6067 12.2148 28.0544 12.2148 28.6067C12.2148 28.9203 12.2767 29.2309 12.3968 29.5208C12.5169 29.8106 12.693 30.0739 12.915 30.2958C13.1371 30.5177 13.4007 30.6937 13.6909 30.8139C13.981 30.934 14.2921 30.9958 14.6062 30.9958C14.9203 30.9958 15.2314 30.934 15.5216 30.8139C15.8117 30.6937 16.0754 30.5177 16.2974 30.2958C16.5194 30.0739 16.6955 29.8106 16.8156 29.5208C16.9357 29.2309 16.9976 28.9203 16.9976 28.6067C16.9976 28.5962 16.9977 28.5858 16.998 28.5754V18.0628C16.998 17.5105 17.4458 17.0628 17.998 17.0628Z" fill="white"/>
</svg>
