<svg width="36" height="36" viewBox="0 0 36 36" fill="none" xmlns="http://www.w3.org/2000/svg">
<path d="M5.25 26C5.80228 26 6.25 26.4477 6.25 27V28.7363C6.68885 28.9547 7.04532 29.3112 7.26367 29.75H9.09375C9.64603 29.75 10.0938 30.1977 10.0938 30.75C10.0938 31.3023 9.64603 31.75 9.09375 31.75H7.26367C6.89531 32.4903 6.13304 33 5.25 33C4.00736 33 3 31.9926 3 30.75C3 29.867 3.50967 29.1047 4.25 28.7363V27C4.25 26.4477 4.69772 26 5.25 26Z" fill="white"/>
<path d="M30.75 26C31.3023 26 31.75 26.4477 31.75 27V28.7363C31.774 28.7483 31.7987 28.7587 31.8223 28.7715C32.5238 29.1525 33 29.8956 33 30.75C33 31.9926 31.9926 33 30.75 33C29.8956 33 29.1525 32.5238 28.7715 31.8223C28.7587 31.7987 28.7483 31.774 28.7363 31.75H27.6562C27.104 31.75 26.6562 31.3023 26.6562 30.75C26.6562 30.1977 27.104 29.75 27.6562 29.75H28.7363C28.7483 29.726 28.7587 29.7013 28.7715 29.6777C28.9793 29.295 29.295 28.9793 29.6777 28.7715C29.7013 28.7587 29.726 28.7483 29.75 28.7363V27C29.75 26.4477 30.1977 26 30.75 26Z" fill="white"/>
<path d="M21.4688 29.75C22.021 29.75 22.4688 30.1977 22.4688 30.75C22.4688 31.3023 22.021 31.75 21.4688 31.75H15.2812C14.729 31.75 14.2812 31.3023 14.2812 30.75C14.2812 30.1977 14.729 29.75 15.2812 29.75H21.4688Z" fill="white"/>
<path d="M25.875 18.5C27.0486 18.5 28 19.4514 28 20.625V25.875C28 27.0486 27.0486 28 25.875 28H20.625C19.4514 28 18.5 27.0486 18.5 25.875V20.625C18.5 19.4514 19.4514 18.5 20.625 18.5H25.875Z" fill="white"/>
<path d="M5.25 14C5.80228 14 6.25 14.4477 6.25 15V21C6.25 21.5523 5.80228 22 5.25 22C4.69772 22 4.25 21.5523 4.25 21V15C4.25 14.4477 4.69772 14 5.25 14Z" fill="white"/>
<path d="M30.75 14C31.3023 14 31.75 14.4477 31.75 15V21C31.75 21.5523 31.3023 22 30.75 22C30.1977 22 29.75 21.5523 29.75 21V15C29.75 14.4477 30.1977 14 30.75 14Z" fill="white"/>
<path d="M15.375 8C16.5486 8 17.5 8.9514 17.5 10.125V15.375C17.5 16.5486 16.5486 17.5 15.375 17.5H10.125C8.95139 17.5 8 16.5486 8 15.375V10.125C8 8.95139 8.9514 8 10.125 8H15.375Z" fill="white"/>
<path d="M5.25 3C6.1044 3 6.84754 3.47624 7.22852 4.17773C7.24129 4.20125 7.25172 4.22598 7.26367 4.25H9.09375C9.64603 4.25 10.0938 4.69772 10.0938 5.25C10.0938 5.80228 9.64603 6.25 9.09375 6.25H7.26367C7.25172 6.27402 7.24129 6.29875 7.22852 6.32227C7.02066 6.705 6.705 7.02066 6.32227 7.22852C6.29887 7.24122 6.27388 7.25081 6.25 7.2627V9C6.25 9.55228 5.80228 10 5.25 10C4.69772 10 4.25 9.55228 4.25 9V7.2627C4.22612 7.25081 4.20113 7.24122 4.17773 7.22852C3.47624 6.84754 3 6.1044 3 5.25C3 4.00736 4.00736 3 5.25 3Z" fill="white"/>
<path d="M30.75 3C31.9926 3 33 4.00736 33 5.25C33 6.1044 32.5238 6.84754 31.8223 7.22852C31.7989 7.24122 31.7739 7.25081 31.75 7.2627V9C31.75 9.55228 31.3023 10 30.75 10C30.1977 10 29.75 9.55228 29.75 9V7.2627C29.7261 7.25081 29.7011 7.24122 29.6777 7.22852C29.295 7.02066 28.9793 6.705 28.7715 6.32227C28.7587 6.29875 28.7483 6.27402 28.7363 6.25H27.6562C27.104 6.25 26.6562 5.80228 26.6562 5.25C26.6562 4.69772 27.104 4.25 27.6562 4.25H28.7363C28.7483 4.22598 28.7587 4.20125 28.7715 4.17773C29.1525 3.47624 29.8956 3 30.75 3Z" fill="white"/>
<path d="M21.4688 4.25C22.021 4.25 22.4688 4.69772 22.4688 5.25C22.4688 5.80228 22.021 6.25 21.4688 6.25H15.2812C14.729 6.25 14.2812 5.80228 14.2812 5.25C14.2812 4.69772 14.729 4.25 15.2812 4.25H21.4688Z" fill="white"/>
</svg>
