<svg width="36" height="36" viewBox="0 0 36 36" fill="none" xmlns="http://www.w3.org/2000/svg">
<path fill-rule="evenodd" clip-rule="evenodd" d="M8.87935 4H27.1207C27.9219 3.99999 28.5907 3.99997 29.137 4.04461C29.7068 4.09117 30.2418 4.19183 30.7477 4.4496C31.5239 4.84508 32.1549 5.47612 32.5504 6.25229C32.8082 6.75818 32.9088 7.29317 32.9554 7.863C33 8.40934 33 9.0781 33 9.87932V22.1207C33 22.9219 33 23.5907 32.9554 24.137C32.9088 24.7068 32.8082 25.2418 32.5504 25.7477C32.1549 26.5239 31.5239 27.1549 30.7477 27.5504C30.2418 27.8082 29.7068 27.9088 29.137 27.9554C28.5907 28 27.922 28 27.1209 28H19.125V17.841L21.7045 20.4205C22.1438 20.8598 22.8562 20.8598 23.2955 20.4205C23.7348 19.9812 23.7348 19.2688 23.2955 18.8295L18.7955 14.3295C18.3562 13.8902 17.6438 13.8902 17.2045 14.3295L12.7045 18.8295C12.2652 19.2688 12.2652 19.9812 12.7045 20.4205C13.1438 20.8598 13.8562 20.8598 14.2955 20.4205L16.875 17.841V28H8.87932C8.07818 28 7.4093 28 6.863 27.9554C6.29317 27.9088 5.75819 27.8082 5.25229 27.5504C4.47612 27.1549 3.84508 26.5239 3.4496 25.7477C3.19183 25.2418 3.09117 24.7068 3.04461 24.137C2.99997 23.5907 2.99999 22.9219 3 22.1207V9.87935C2.99999 9.07814 2.99997 8.40934 3.04461 7.863C3.09117 7.29317 3.19183 6.75818 3.4496 6.25229C3.84508 5.47612 4.47612 4.84508 5.25229 4.4496C5.75819 4.19183 6.29317 4.09117 6.863 4.04461C7.40934 3.99997 8.07813 3.99999 8.87935 4ZM19.125 30.8749V28H16.875V30.8749C16.875 31.4962 17.3787 31.9999 18 31.9999C18.6213 31.9999 19.125 31.4962 19.125 30.8749Z" fill="white"/>
</svg>
