<svg width="36" height="36" viewBox="0 0 36 36" fill="none" xmlns="http://www.w3.org/2000/svg">
<path fill-rule="evenodd" clip-rule="evenodd" d="M8.99941 12C5.68603 12 3 14.686 3 17.9994C3 21.3128 5.68602 23.9988 8.9994 23.9988H26.9995C30.3129 23.9988 32.9989 21.3128 32.9989 17.9994C32.9989 14.686 30.3129 12 26.9995 12H8.99941ZM5 17.9994C5 15.7906 6.7906 14 8.99941 14H26.9995C29.2083 14 30.9989 15.7906 30.9989 17.9994C30.9989 20.2082 29.2083 21.9988 26.9995 21.9988H8.9994C6.79059 21.9988 5 20.2082 5 17.9994ZM10.0547 16.9991C9.5024 16.9991 9.05469 17.4468 9.05469 17.9991C9.05469 18.5513 9.5024 18.9991 10.0547 18.9991H25.9459C26.4982 18.9991 26.9459 18.5513 26.9459 17.9991C26.9459 17.4468 26.4982 16.9991 25.9459 16.9991H10.0547Z" fill="white"/>
</svg>
