<svg width="36" height="36" viewBox="0 0 36 36" fill="none" xmlns="http://www.w3.org/2000/svg">
<path d="M35 17.8189C34.1061 17.8189 31.9613 15.6575 31.9613 13.7V9.34998C31.9613 6.305 30.8708 5 28.8685 5H27.331V7.06681H28.8685C29.8874 7.3307 30.0663 8.50717 30.0663 9.81217V13.7272C30.0663 15.9565 30.3702 17.3023 31.9613 17.8189C30.3702 18.3626 30.0663 19.7356 30.0663 21.9377V25.8255C30.0663 27.1577 29.8874 28.307 28.797 28.6132H27.331V30.6377H28.8685C30.8708 30.6377 31.9613 29.3327 31.9613 26.2877V21.9649C31.9613 20.0074 34.1061 17.8189 35 17.8189Z" fill="white"/>
<path d="M1 18.0778C1.89388 18.0778 4.03867 15.9164 4.03867 13.9589V9.60895C4.03867 6.56396 5.12921 5.25897 7.1315 5.25897H8.66897V7.32578H7.1315C6.11265 7.58967 5.9337 8.76614 5.9337 10.0711V13.9861C5.9337 16.2155 5.62978 17.5613 4.03867 18.0778C5.62978 18.6216 5.9337 19.9945 5.9337 22.1967V26.0845C5.9337 27.4167 6.11265 28.566 7.20301 28.8722H8.66897V30.8967H7.1315C5.12921 30.8967 4.03867 29.5917 4.03867 26.5467V22.2239C4.03867 20.2664 1.89388 18.0778 1 18.0778Z" fill="white"/>
<path fill-rule="evenodd" clip-rule="evenodd" d="M20.3616 15.9333V9H18.4956V24.5223H20.2485V22.7424C20.3616 23.0046 20.5124 23.2599 20.7008 23.5082C20.9019 23.7428 21.1343 23.9566 21.3982 24.1498C21.6747 24.3292 21.9825 24.474 22.3218 24.5844C22.6736 24.6948 23.0568 24.75 23.4715 24.75C24.1249 24.75 24.7155 24.6465 25.2432 24.4396C25.7835 24.2326 26.2359 23.9083 26.6003 23.4668C26.9647 23.0115 27.2474 22.432 27.4484 21.7283C27.6495 21.0108 27.75 20.1416 27.75 19.1206C27.75 18.2099 27.6495 17.4304 27.4484 16.7819C27.26 16.1334 26.9835 15.6022 26.6191 15.1882C26.2673 14.7743 25.8401 14.4708 25.3375 14.2776C24.8348 14.0706 24.2757 13.9671 23.66 13.9671C22.7553 13.9671 22.039 14.1672 21.5113 14.5673C20.9836 14.9537 20.6003 15.409 20.3616 15.9333ZM21.1532 22.1629C20.6631 21.6524 20.3993 20.9281 20.3616 19.9898V18.7066C20.4118 17.796 20.6569 17.0923 21.0966 16.5956C21.549 16.0851 22.2275 15.8298 23.1322 15.8298C23.5469 15.8298 23.9176 15.8919 24.2443 16.0161C24.5835 16.1265 24.8662 16.3196 25.0924 16.5956C25.3312 16.8578 25.5134 17.2027 25.639 17.6304C25.7772 18.0581 25.8463 18.5894 25.8463 19.224C25.8463 20.5624 25.6265 21.5145 25.1867 22.0802C24.7594 22.6321 24.0621 22.908 23.0945 22.908C22.3029 22.908 21.6558 22.6597 21.1532 22.1629Z" fill="white"/>
<path fill-rule="evenodd" clip-rule="evenodd" d="M10.7667 14.2569C10.2139 14.4501 9.78036 14.6777 9.46623 14.9399V17.6718C9.79292 17.0923 10.2201 16.6301 10.7479 16.2852C11.2882 15.9402 11.9604 15.7677 12.7646 15.7677C13.418 15.7677 13.9269 15.9195 14.2913 16.2231C14.6683 16.5128 14.8568 17.0578 14.8568 17.8581V18.4997H12.6704C12.0673 18.4997 11.5207 18.548 11.0306 18.6445C10.5531 18.7411 10.1448 18.9067 9.80549 19.1413C9.46623 19.362 9.20235 19.6656 9.01387 20.0519C8.83796 20.4244 8.75 20.9005 8.75 21.48C8.75 22.5148 9.02644 23.3081 9.57931 23.8601C10.1322 24.412 10.8798 24.6879 11.8222 24.6879C12.5762 24.6879 13.2296 24.5085 13.7824 24.1498C14.3353 23.7773 14.7311 23.3012 14.9699 22.7217V24.5223H16.7416V17.6925C16.7416 17.0026 16.6536 16.4231 16.4777 15.954C16.3143 15.4711 16.063 15.0848 15.7238 14.795C15.3845 14.5053 14.9636 14.2983 14.461 14.1741C13.9709 14.0361 13.4055 13.9671 12.7646 13.9671C11.9856 13.9671 11.3196 14.0637 10.7667 14.2569ZM13.462 22.6183C13.1604 22.7424 12.796 22.8045 12.3688 22.8045C11.8034 22.8045 11.3762 22.6666 11.0872 22.3906C10.7982 22.1147 10.6537 21.7559 10.6537 21.3144C10.6537 20.7901 10.8296 20.4382 11.1814 20.2589C11.5332 20.0657 12.0861 19.9691 12.84 19.9691H14.8568V20.9626C14.8316 21.1419 14.7688 21.342 14.6683 21.5627C14.5678 21.7697 14.417 21.9698 14.2159 22.1629C14.0149 22.3423 13.7636 22.4941 13.462 22.6183Z" fill="white"/>
</svg>
