<svg width="36" height="36" viewBox="0 0 36 36" fill="none" xmlns="http://www.w3.org/2000/svg">
<path fill-rule="evenodd" clip-rule="evenodd" d="M23.5493 3.27411C22.9146 2.91159 22.1889 2.73083 21.4517 2.75161C20.9815 2.76487 20.5462 2.8831 20.0938 3.05352C19.6612 3.2165 19.1539 3.45103 18.544 3.733L16.7394 4.56725C16.3028 4.76911 16.1747 4.82561 16.0483 4.86303C15.9216 4.90056 15.7917 4.92568 15.6604 4.93805C15.5295 4.95038 15.3902 4.94557 14.9123 4.92057L13.0057 4.82084C12.3142 4.78465 11.7399 4.75459 11.2645 4.76535C10.768 4.77658 10.307 4.83225 9.85298 5.00535C9.14246 5.27621 8.52066 5.73969 8.05934 6.34229C7.76452 6.72739 7.58087 7.15216 7.42997 7.62352C7.2855 8.07478 7.1524 8.63217 6.99217 9.30322L6.61237 10.8936C6.49631 11.3796 6.45987 11.5205 6.40792 11.6475C6.35583 11.7748 6.29074 11.8966 6.21367 12.0111C6.13683 12.1252 6.03952 12.2347 5.69822 12.6048L4.60876 13.7863C4.12825 14.3074 3.72942 14.7399 3.42847 15.12C3.11433 15.5168 2.85931 15.9137 2.70467 16.379C2.46294 17.1063 2.43576 17.8841 2.62634 18.6198C2.74826 19.0905 2.97521 19.4969 3.2612 19.9054C3.53518 20.2968 3.90325 20.7443 4.3467 21.2834L5.42755 22.5975C5.73596 22.9725 5.82366 23.0833 5.8914 23.1977C5.95933 23.3124 6.01531 23.4338 6.0585 23.5601C6.10157 23.686 6.12897 23.8248 6.21424 24.3036L6.5284 26.0675C6.64574 26.7264 6.74329 27.2742 6.85781 27.7195C6.97751 28.1849 7.13142 28.6061 7.3947 28.9936C7.80719 29.6008 8.38323 30.0801 9.05871 30.3779C9.48985 30.5681 9.93568 30.6459 10.4198 30.6827C10.8829 30.718 11.4452 30.7192 12.1215 30.7206L14.1455 30.7248C14.6191 30.7258 14.7569 30.7285 14.8851 30.7475C15.0137 30.7665 15.1398 30.7979 15.2619 30.8413C15.3836 30.8846 15.5055 30.9466 15.9205 31.1669L17.6938 32.1086C18.2864 32.4233 18.7791 32.685 19.2021 32.8704C19.6442 33.0643 20.0733 33.2045 20.546 33.2395C21.2864 33.2943 22.0308 33.144 22.6961 32.8053C23.1208 32.5891 23.4666 32.2924 23.8047 31.941C24.1282 31.6048 24.4881 31.171 24.9211 30.6492L26.0802 29.2523C26.3949 28.8731 26.4884 28.7644 26.5892 28.6744C26.6903 28.5841 26.8002 28.504 26.9171 28.4353C27.0338 28.3668 27.1661 28.3108 27.6239 28.1267L29.2285 27.4816C29.8868 27.2169 30.4333 26.9972 30.8693 26.7827C31.3244 26.5588 31.7267 26.3091 32.0693 25.9542C32.6049 25.3993 32.971 24.706 33.1241 23.9566C33.222 23.4772 33.1978 23.0107 33.1218 22.5167C33.049 22.0435 32.9168 21.4787 32.7575 20.7983L32.3963 19.2554C32.2831 18.7721 32.2529 18.6308 32.2428 18.495C32.2328 18.3589 32.2369 18.2218 32.2551 18.0861C32.2733 17.9507 32.312 17.8104 32.4541 17.3309L32.919 15.7617C33.1152 15.0996 33.2781 14.5496 33.3779 14.0872C33.4821 13.6043 33.5343 13.1467 33.4694 12.672C33.3677 11.9292 33.0559 11.2331 32.5699 10.6642C32.2593 10.3006 31.8838 10.0366 31.4549 9.79487C31.0443 9.5634 30.5266 9.32141 29.9033 9.03008L28.1849 8.22683C27.7541 8.02546 27.6298 7.96462 27.5214 7.89267C27.4127 7.82053 27.3116 7.73784 27.2195 7.64582C27.1277 7.55405 27.0439 7.44477 26.763 7.06415L25.602 5.49121C25.2096 4.95955 24.8832 4.51733 24.5863 4.17261C24.2758 3.81216 23.9542 3.50537 23.5493 3.27411ZM21.4788 4.74251C21.8474 4.73212 22.2102 4.82251 22.5276 5.00376C22.6625 5.08081 22.816 5.20633 23.0511 5.47929C23.2944 5.76172 23.5775 6.14419 23.9967 6.71223L25.1726 8.3053C25.4018 8.61602 25.5751 8.85102 25.7835 9.05932C25.9677 9.24337 26.1699 9.40874 26.3873 9.55303C26.6333 9.71633 26.8993 9.84055 27.251 10.0048L28.9913 10.8183C29.6568 11.1294 30.1057 11.3399 30.443 11.53C30.7694 11.714 30.9266 11.8444 31.0295 11.9649C31.2725 12.2493 31.4284 12.5973 31.4793 12.9688C31.5008 13.1261 31.4937 13.3308 31.4144 13.6983C31.3324 14.0782 31.1917 14.5555 30.9822 15.2624L30.5096 16.8578C30.3936 17.249 30.3058 17.5449 30.2645 17.8522C30.2281 18.1237 30.2198 18.3978 30.2399 18.6701C30.2627 18.9783 30.3326 19.2766 30.4251 19.6709L30.7923 21.2396C30.9623 21.9658 31.0765 22.4566 31.1364 22.8458C31.1944 23.2228 31.1884 23.431 31.156 23.5893C31.0795 23.964 30.8964 24.3107 30.6286 24.5881C30.5155 24.7054 30.3457 24.8302 29.9984 25.0011C29.6398 25.1776 29.1653 25.3691 28.4627 25.6516L26.8343 26.3063C26.4606 26.4564 26.178 26.5699 25.9133 26.7254C25.6793 26.8627 25.4596 27.0229 25.2575 27.2035C25.0287 27.4079 24.8346 27.642 24.5779 27.9515L23.4017 29.369C22.9392 29.9263 22.6268 30.3017 22.3616 30.5774C22.1052 30.8439 21.9416 30.9643 21.8003 31.0362C21.4676 31.2055 21.0955 31.2807 20.7252 31.2533C20.568 31.2416 20.3723 31.1939 20.037 31.0468C19.6902 30.8948 19.2631 30.6687 18.6301 30.3325L16.8354 29.3795C16.4967 29.1995 16.2406 29.0634 15.9644 28.9652C15.7203 28.8785 15.4679 28.8156 15.2108 28.7775C14.9199 28.7344 14.6275 28.7339 14.2409 28.7332L12.1926 28.7289C11.4701 28.7274 10.983 28.7258 10.6033 28.6969C10.2361 28.6689 10.0409 28.6193 9.89749 28.556C9.55975 28.4071 9.27172 28.1675 9.06548 27.8639C8.97791 27.735 8.89501 27.5532 8.80423 27.2002C8.71033 26.8351 8.62518 26.3607 8.49983 25.6569L8.18105 23.8669C8.11158 23.4762 8.05904 23.1807 7.96129 22.895C7.87491 22.6425 7.76294 22.3997 7.62708 22.1702C7.47332 21.9105 7.2829 21.6791 7.03112 21.3732L5.93428 20.0397C5.46099 19.4642 5.14181 19.0751 4.91643 18.7531C4.69819 18.4414 4.61219 18.2528 4.57192 18.0973C4.47663 17.7294 4.49022 17.3405 4.61108 16.9769C4.66216 16.8232 4.76122 16.6382 5.00095 16.3354C5.2485 16.0227 5.59444 15.6466 6.10728 15.0904L7.215 13.8892C7.49358 13.5873 7.70427 13.3589 7.87871 13.0998C8.03283 12.8709 8.16301 12.6272 8.2672 12.3726C8.38513 12.0844 8.45666 11.7845 8.55124 11.3879L8.93735 9.77094C9.10845 9.05447 9.22458 8.57102 9.34324 8.20035C9.45808 7.84167 9.55448 7.65916 9.65217 7.53155C9.88283 7.23025 10.1937 6.99852 10.549 6.86308C10.6994 6.80573 10.9024 6.76509 11.2803 6.75654C11.6707 6.7477 12.1691 6.77312 12.9074 6.81174L14.8383 6.91276C15.2284 6.93328 15.5234 6.9488 15.8206 6.92081C16.0831 6.89609 16.343 6.84583 16.5964 6.77078C16.8832 6.68584 17.1527 6.56116 17.5091 6.3963L19.3367 5.55139C19.9883 5.25012 20.4278 5.04765 20.7823 4.91412C21.1249 4.78507 21.3221 4.74693 21.4788 4.74251ZM26.8029 14.2552C27.2067 13.8785 27.2285 13.2457 26.8518 12.8419C26.475 12.4381 25.8422 12.4162 25.4384 12.793L15.0992 22.4407L11.5828 19.1595C11.179 18.7827 10.5463 18.8046 10.1695 19.2083C9.79267 19.6121 9.81457 20.2449 10.2184 20.6217L14.417 24.5395C14.8012 24.898 15.3973 24.898 15.7815 24.5395L26.8029 14.2552Z" fill="white"/>
</svg>
