<svg width="36" height="36" viewBox="0 0 36 36" fill="none" xmlns="http://www.w3.org/2000/svg">
<path fill-rule="evenodd" clip-rule="evenodd" d="M23.5901 3.30569C22.9201 2.92303 22.1526 2.73098 21.3754 2.75149C20.8738 2.76472 20.4146 2.89057 19.9475 3.0671C19.5025 3.23527 18.9826 3.47683 18.3644 3.76409L16.7062 4.53451C16.2624 4.74073 16.1428 4.79316 16.0259 4.8278C15.9055 4.86346 15.7818 4.88733 15.6565 4.89905C15.5348 4.91044 15.4036 4.90638 14.9122 4.88058L13.0763 4.7842C12.3918 4.74826 11.8162 4.71803 11.3387 4.72782C10.8375 4.73809 10.3637 4.79223 9.89501 4.96617C9.16883 5.23568 8.5355 5.69797 8.06743 6.30018C7.76535 6.68883 7.58051 7.11548 7.43155 7.5798C7.28965 8.02212 7.16022 8.56696 7.0063 9.21491L6.59343 10.9528C6.48292 11.4179 6.45061 11.5413 6.40564 11.6516C6.35935 11.7651 6.30144 11.8738 6.23278 11.9761C6.16609 12.0755 6.08104 12.1724 5.75385 12.529L4.53149 13.8612C4.07573 14.3579 3.6925 14.7755 3.40268 15.1437C3.09846 15.5302 2.84665 15.9233 2.69465 16.3872C2.45912 17.1059 2.43687 17.8744 2.63044 18.6049C2.75536 19.0763 2.98402 19.4824 3.2654 19.8849C3.53345 20.2683 3.89192 20.7062 4.31822 21.2269L5.46156 22.6235C5.7676 22.9973 5.84691 23.0988 5.90775 23.2016C5.97037 23.3075 6.0219 23.4192 6.06155 23.535C6.10007 23.6476 6.12518 23.7725 6.20861 24.243L6.52026 26.0005C6.63645 26.6558 6.73415 27.2069 6.85023 27.6562C6.97209 28.1279 7.13195 28.564 7.41106 28.9684C7.84354 29.5952 8.44913 30.0912 9.15857 30.3998C9.61642 30.599 10.0864 30.6789 10.5862 30.7164C11.0624 30.7522 11.6388 30.7533 12.3242 30.7547L14.1629 30.7584C14.6551 30.7594 14.7863 30.7625 14.9071 30.7805C15.0315 30.799 15.1536 30.8296 15.2717 30.8718C15.3865 30.9127 15.5028 30.9716 15.934 31.2016L17.5451 32.0612C18.1457 32.3816 18.6508 32.6511 19.0853 32.8432C19.5415 33.0449 19.9926 33.1955 20.4927 33.236C21.2675 33.2988 22.0449 33.1489 22.736 32.8033C23.182 32.5803 23.5394 32.2736 23.8813 31.918C24.207 31.5792 24.5674 31.1428 24.9959 30.6237L26.1452 29.2318C26.4529 28.8592 26.5372 28.7616 26.627 28.6812C26.7195 28.5984 26.8203 28.5249 26.9279 28.4616C27.0324 28.4001 27.1524 28.3486 27.6067 28.165L29.3039 27.4792C29.9367 27.2235 30.4689 27.0085 30.8947 26.7987C31.3417 26.5785 31.7444 26.3303 32.0888 25.9764C32.6225 25.4279 32.9863 24.7449 33.1387 24.0053C33.237 23.528 33.2127 23.0658 33.1392 22.5848C33.0692 22.1266 32.9421 21.5812 32.7909 20.9326L32.3855 19.1932C32.277 18.7276 32.2509 18.6028 32.2421 18.4845C32.2331 18.3628 32.2366 18.2405 32.2527 18.1194C32.2683 18.0018 32.3016 17.8787 32.4369 17.4197L32.9423 15.705C33.1307 15.0657 33.2892 14.5281 33.3856 14.0744C33.4868 13.5982 33.5378 13.138 33.4673 12.6561C33.358 11.9094 33.0343 11.2077 32.5331 10.631C32.2097 10.2589 31.822 9.98915 31.3885 9.74496C30.9755 9.51235 30.4566 9.26872 29.8396 8.97898L28.1848 8.20184C27.7418 7.99382 27.625 7.93582 27.5242 7.86876C27.4204 7.79972 27.324 7.72077 27.2364 7.63309C27.1514 7.54791 27.0729 7.4459 26.7873 7.05715L25.7203 5.60478C25.3225 5.06328 24.988 4.60793 24.6824 4.25194C24.3616 3.87824 24.0225 3.55265 23.5901 3.30569ZM26.8213 14.2896C27.2242 13.9119 27.2446 13.279 26.8668 12.8761C26.4891 12.4733 25.8562 12.4529 25.4534 12.8306L15.2281 22.4182L11.7562 19.1628C11.3533 18.7851 10.7204 18.8054 10.3427 19.2083C9.96492 19.6112 9.98529 20.244 10.3882 20.6218L14.5441 24.5185C14.9288 24.8792 15.5274 24.8792 15.9121 24.5185L26.8213 14.2896Z" fill="white"/>
</svg>
