<svg width="36" height="36" viewBox="0 0 36 36" fill="none" xmlns="http://www.w3.org/2000/svg">
<path fill-rule="evenodd" clip-rule="evenodd" d="M10.2361 25.4954C9.09676 25.4963 8.24011 25.497 7.49756 25.1876C6.84593 24.9161 6.27777 24.477 5.85076 23.9148C5.36417 23.2743 5.14888 22.4451 4.86256 21.3424L3.91816 17.7168C3.66167 16.7322 3.45246 15.9292 3.34224 15.2729C3.22912 14.5994 3.19743 13.964 3.38397 13.3453C3.66822 12.4026 4.29019 11.5978 5.1308 11.0851C5.68247 10.7486 6.30538 10.6191 6.98562 10.5588C7.64854 10.5 8.47837 10.5 9.49576 10.5H26.5082C27.5256 10.5 28.3554 10.5 29.0183 10.5588C29.6985 10.6191 30.3215 10.7486 30.8731 11.0851C31.7137 11.5978 32.3357 12.4026 32.62 13.3453C32.8065 13.964 32.7748 14.5994 32.6617 15.2729C32.5515 15.9292 32.3422 16.7323 32.0857 17.7168L31.1414 21.3424C30.8551 22.4451 30.6398 23.2743 30.1532 23.9148C29.7262 24.477 29.158 24.9161 28.5064 25.1876C27.7638 25.497 26.9072 25.4963 25.7679 25.4954H10.2361ZM8.26678 23.3414C8.59095 23.4765 9.00786 23.4953 10.4272 23.4953H25.5768C26.9961 23.4953 27.413 23.4765 27.7372 23.3414C28.063 23.2057 28.347 22.9861 28.5606 22.7051C28.773 22.4254 28.8962 22.0267 29.254 20.6532L30.1385 17.258C30.4097 16.2171 30.5955 15.5 30.6893 14.9416C30.7819 14.3903 30.7618 14.1108 30.7051 13.9226C30.563 13.4513 30.252 13.0489 29.8317 12.7925C29.6639 12.6902 29.3985 12.6003 28.8416 12.5509C28.2776 12.5009 27.5369 12.5 26.4613 12.5H9.54266C8.46701 12.5 7.72631 12.5009 7.16229 12.5509C6.60544 12.6003 6.34001 12.6902 6.17224 12.7925C5.75193 13.0489 5.44094 13.4513 5.29882 13.9226C5.24209 14.1108 5.22202 14.3903 5.31461 14.9416C5.4084 15.5 5.59423 16.2171 5.86539 17.258L6.74989 20.6532C7.10768 22.0267 7.23095 22.4254 7.44338 22.7051C7.65688 22.9861 7.94097 23.2057 8.26678 23.3414ZM10.4777 17.2339C11.1008 17.2339 11.6059 16.7205 11.6059 16.0872C11.6059 15.454 11.1008 14.9406 10.4777 14.9406C9.85469 14.9406 9.3496 15.454 9.3496 16.0872C9.3496 16.7205 9.85469 17.2339 10.4777 17.2339ZM14.2395 17.2339C14.8625 17.2339 15.3676 16.7205 15.3676 16.0872C15.3676 15.454 14.8625 14.9406 14.2395 14.9406C13.6164 14.9406 13.1113 15.454 13.1113 16.0872C13.1113 16.7205 13.6164 17.2339 14.2395 17.2339ZM19.1274 16.0872C19.1274 16.7205 18.6223 17.2339 17.9992 17.2339C17.3762 17.2339 16.8711 16.7205 16.8711 16.0872C16.8711 15.454 17.3762 14.9406 17.9992 14.9406C18.6223 14.9406 19.1274 15.454 19.1274 16.0872ZM21.7627 17.2339C22.3858 17.2339 22.8909 16.7205 22.8909 16.0872C22.8909 15.454 22.3858 14.9406 21.7627 14.9406C21.1397 14.9406 20.6346 15.454 20.6346 16.0872C20.6346 16.7205 21.1397 17.2339 21.7627 17.2339ZM26.6528 16.0872C26.6528 16.7205 26.1477 17.2339 25.5246 17.2339C24.9016 17.2339 24.3965 16.7205 24.3965 16.0872C24.3965 15.454 24.9016 14.9406 25.5246 14.9406C26.1477 14.9406 26.6528 15.454 26.6528 16.0872ZM12.3586 21.0561C12.9817 21.0561 13.4867 20.5428 13.4867 19.9095C13.4867 19.2762 12.9817 18.7629 12.3586 18.7629C11.7355 18.7629 11.2305 19.2762 11.2305 19.9095C11.2305 20.5428 11.7355 21.0561 12.3586 21.0561ZM17.2485 19.9095C17.2485 20.5428 16.7434 21.0561 16.1203 21.0561C15.4973 21.0561 14.9922 20.5428 14.9922 19.9095C14.9922 19.2762 15.4973 18.7629 16.1203 18.7629C16.7434 18.7629 17.2485 19.2762 17.2485 19.9095ZM19.8803 21.0561C20.5033 21.0561 21.0084 20.5428 21.0084 19.9095C21.0084 19.2762 20.5033 18.7629 19.8803 18.7629C19.2572 18.7629 18.7521 19.2762 18.7521 19.9095C18.7521 20.5428 19.2572 21.0561 19.8803 21.0561ZM24.7719 19.9095C24.7719 20.5428 24.2668 21.0561 23.6438 21.0561C23.0207 21.0561 22.5156 20.5428 22.5156 19.9095C22.5156 19.2762 23.0207 18.7629 23.6438 18.7629C24.2668 18.7629 24.7719 19.2762 24.7719 19.9095Z" fill="white"/>
</svg>
