<svg width="36" height="36" viewBox="0 0 36 36" fill="none" xmlns="http://www.w3.org/2000/svg">
<path d="M10.7195 4.40221C11.1877 4.10957 11.8046 4.25154 12.0974 4.71959L15.3786 9.96959C15.8607 10.741 15.8858 11.7135 15.4441 12.5087L12.529 17.7567C12.4452 17.9077 12.4452 18.0921 12.529 18.243L15.4441 23.4911C15.8858 24.2863 15.8608 25.2587 15.3786 26.0301L12.0974 31.2801C11.8045 31.7481 11.1876 31.8901 10.7195 31.5975C10.2515 31.3048 10.1096 30.6878 10.4021 30.2196L13.6833 24.9696C13.7794 24.8154 13.7842 24.6206 13.696 24.4618L10.78 19.2137C10.3608 18.4589 10.3609 17.5409 10.78 16.786L13.696 11.538C13.7843 11.3791 13.7794 11.1843 13.6833 11.0301L10.4021 5.78014C10.1095 5.31198 10.2515 4.69505 10.7195 4.40221Z" fill="white"/>
<path d="M23.9021 4.71959C24.1948 4.25161 24.8118 4.10974 25.28 4.40221C25.7481 4.69501 25.89 5.31192 25.5974 5.78014L22.3161 11.0301C22.2202 11.1843 22.2153 11.3792 22.3034 11.538L25.2195 16.786C25.6387 17.5409 25.6387 18.4588 25.2195 19.2137L22.3034 24.4618C22.2154 24.6206 22.2201 24.8155 22.3161 24.9696L25.5974 30.2196C25.89 30.6878 25.7481 31.3047 25.28 31.5975C24.8118 31.8899 24.1948 31.7481 23.9021 31.2801L20.6208 26.0301C20.1388 25.2588 20.1138 24.2862 20.5554 23.4911L23.4704 18.243C23.5543 18.092 23.5543 17.9077 23.4704 17.7567L20.5554 12.5087C20.1137 11.7135 20.1389 10.741 20.6208 9.96959L23.9021 4.71959Z" fill="white"/>
<path d="M6.6052 11.5526C6.85219 11.0586 7.45302 10.8583 7.947 11.1053C8.44095 11.3523 8.64125 11.9532 8.39427 12.4471L5.72923 17.7762C5.659 17.9169 5.65895 18.0829 5.72923 18.2235L8.39427 23.5526C8.64116 24.0466 8.44094 24.6474 7.947 24.8944C7.45308 25.1413 6.85222 24.941 6.6052 24.4471L3.94114 19.118C3.58926 18.4143 3.58931 17.5855 3.94114 16.8817L6.6052 11.5526Z" fill="white"/>
<path d="M28.0525 11.1053C28.5464 10.8584 29.1473 11.0587 29.3943 11.5526L32.0583 16.8817C32.4102 17.5855 32.4102 18.4142 32.0583 19.118L29.3943 24.4471C29.1472 24.9409 28.5463 25.1413 28.0525 24.8944C27.5588 24.6474 27.3585 24.0464 27.6052 23.5526L30.2702 18.2235C30.3405 18.0828 30.3405 17.9169 30.2702 17.7762L27.6052 12.4471C27.3583 11.9533 27.5588 11.3525 28.0525 11.1053Z" fill="white"/>
</svg>
