<svg width="36" height="36" viewBox="0 0 36 36" fill="none" xmlns="http://www.w3.org/2000/svg">
<path fill-rule="evenodd" clip-rule="evenodd" d="M10.0469 4C9.49459 4 9.04688 4.44772 9.04688 5C9.04688 5.55228 9.49459 6 10.0469 6H25.9551C26.5074 6 26.9551 5.55228 26.9551 5C26.9551 4.44772 26.5074 4 25.9551 4H10.0469ZM10.2624 7.82622H25.7362C26.5418 7.82621 27.2067 7.82619 27.7483 7.87044C28.3107 7.9164 28.8277 8.01503 29.3133 8.26244C30.0664 8.64616 30.6787 9.25844 31.0624 10.0115C31.3098 10.4971 31.4084 11.0141 31.4544 11.5766C31.4986 12.1182 31.4986 12.783 31.4986 13.5886V26.2347C31.4986 27.0403 31.4986 27.7052 31.4544 28.2467C31.4084 28.8092 31.3098 29.3262 31.0624 29.8118C30.6787 30.5649 30.0664 31.1772 29.3133 31.5609C28.8277 31.8083 28.3107 31.9069 27.7483 31.9529C27.2067 31.9971 26.5419 31.9971 25.7364 31.9971H10.2624C9.45683 31.9971 8.79192 31.9971 8.25036 31.9529C7.68788 31.9069 7.17089 31.8083 6.6853 31.5609C5.93222 31.1772 5.31994 30.5649 4.93623 29.8118C4.68881 29.3262 4.59018 28.8092 4.54423 28.2467C4.49998 27.7052 4.49999 27.0403 4.5 26.2347V13.5886C4.49999 12.783 4.49998 12.1182 4.54423 11.5766C4.59018 11.0141 4.68881 10.4971 4.93623 10.0115C5.31994 9.25844 5.93222 8.64616 6.6853 8.26244C7.17089 8.01503 7.68788 7.9164 8.25036 7.87044C8.79194 7.82619 9.45679 7.82621 10.2624 7.82622ZM8.41322 9.8638C7.97442 9.89965 7.74993 9.96464 7.59329 10.0445C7.21653 10.2364 6.91021 10.5427 6.71824 10.9195C6.63842 11.0762 6.57344 11.3006 6.53758 11.7394C6.50078 12.1899 6.5 12.7727 6.5 13.6299V26.1934C6.5 27.0506 6.50078 27.6334 6.53758 28.0839C6.57344 28.5227 6.63842 28.7472 6.71824 28.9038C6.91021 29.2806 7.21653 29.5869 7.59329 29.7789C7.74993 29.8587 7.97442 29.9237 8.41323 29.9595C8.8637 29.9963 9.44649 29.9971 10.3037 29.9971H25.6949C26.5521 29.9971 27.1349 29.9963 27.5854 29.9595C28.0242 29.9237 28.2487 29.8587 28.4053 29.7789C28.7821 29.5869 29.0884 29.2806 29.2804 28.9038C29.3602 28.7472 29.4252 28.5227 29.461 28.0839C29.4978 27.6334 29.4986 27.0506 29.4986 26.1934V13.6299C29.4986 12.7727 29.4978 12.1899 29.461 11.7394C29.4252 11.3006 29.3602 11.0762 29.2804 10.9195C29.0884 10.5427 28.7821 10.2364 28.4053 10.0445C28.2487 9.96464 28.0242 9.89965 27.5854 9.8638C27.1349 9.827 26.5521 9.82622 25.6949 9.82622H10.3037C9.44648 9.82622 8.8637 9.827 8.41322 9.8638ZM23.451 18.4112C24.61 19.0865 24.61 20.7609 23.451 21.4363L16.602 25.4269C15.435 26.1069 13.9701 25.2651 13.9701 23.9144V15.9331C13.9701 14.5824 15.435 13.7405 16.602 14.4205L23.451 18.4112ZM22.0742 19.9237L15.9701 16.3671V23.4804L22.0742 19.9237Z" fill="white"/>
</svg>
