<svg width="36" height="36" viewBox="0 0 36 36" fill="none" xmlns="http://www.w3.org/2000/svg">
<path d="M12.9854 19.6553C13.3746 19.6553 13.7252 19.6549 14.0166 19.6787C14.3287 19.7042 14.6604 19.7622 14.9854 19.9277C15.4559 20.1675 15.8393 20.5499 16.0791 21.0205C16.2446 21.3454 16.3016 21.6772 16.3272 21.9893C16.351 22.2807 16.3516 22.6313 16.3516 23.0205V26.6338C16.3516 27.0232 16.351 27.3745 16.3272 27.666C16.3016 27.978 16.2446 28.3099 16.0791 28.6348C15.8393 29.1053 15.4559 29.4878 14.9854 29.7275C14.6604 29.893 14.3287 29.9511 14.0166 29.9766C13.7252 30.0004 13.3746 30 12.9854 30H6.36621C5.97681 30 5.62549 30.0004 5.33399 29.9766C5.02196 29.951 4.6901 29.8931 4.36524 29.7275C3.89483 29.4878 3.51222 29.1052 3.27246 28.6348C3.10693 28.3099 3.04896 27.9781 3.02344 27.666C2.99962 27.3745 2.99998 27.0232 3 26.6338V23.0205C2.99998 22.6313 2.99963 22.2807 3.02344 21.9893C3.04896 21.6772 3.10692 21.3454 3.27246 21.0205C3.51221 20.5501 3.89482 20.1675 4.36524 19.9277C4.6901 19.7622 5.02196 19.7042 5.33399 19.6787C5.6255 19.6549 5.9768 19.6553 6.36621 19.6553H12.9854Z" fill="white"/>
<path d="M29.6338 19.6553C30.0231 19.6553 30.3736 19.6549 30.665 19.6787C30.9771 19.7042 31.3089 19.7622 31.6338 19.9277C32.1044 20.1675 32.4877 20.5499 32.7275 21.0205C32.8931 21.3454 32.9501 21.6772 32.9756 21.9893C32.9994 22.2807 33 22.6313 33 23.0205V26.6338C33 27.0232 32.9994 27.3745 32.9756 27.666C32.9501 27.978 32.8931 28.3099 32.7275 28.6348C32.4877 29.1053 32.1044 29.4878 31.6338 29.7275C31.3089 29.893 30.9771 29.9511 30.665 29.9766C30.3736 30.0004 30.0231 30 29.6338 30H23.0147C22.6252 30 22.2739 30.0004 21.9824 29.9766C21.6704 29.951 21.3385 29.8931 21.0137 29.7275C20.5433 29.4878 20.1607 29.1052 19.9209 28.6348C19.7554 28.3099 19.6974 27.9781 19.6719 27.666C19.6481 27.3745 19.6484 27.0232 19.6484 26.6338V23.0205C19.6484 22.6313 19.6481 22.2807 19.6719 21.9893C19.6974 21.6772 19.7554 21.3454 19.9209 21.0205C20.1606 20.5501 20.5433 20.1675 21.0137 19.9277C21.3385 19.7622 21.6704 19.7042 21.9824 19.6787C22.2739 19.6549 22.6252 19.6553 23.0147 19.6553H29.6338Z" fill="white"/>
<path d="M12.9854 6C13.3746 5.99998 13.7252 5.99965 14.0166 6.02344C14.3287 6.04894 14.6604 6.10699 14.9854 6.27246C15.4559 6.51223 15.8393 6.89471 16.0791 7.36524C16.2446 7.69009 16.3016 8.02198 16.3272 8.33399C16.351 8.6255 16.3516 8.9768 16.3516 9.36621V12.9795C16.3516 13.3687 16.351 13.7193 16.3272 14.0107C16.3016 14.3228 16.2446 14.6546 16.0791 14.9795C15.8393 15.4501 15.4559 15.8325 14.9854 16.0723C14.6604 16.2378 14.3287 16.2958 14.0166 16.3213C13.7252 16.3451 13.3746 16.3448 12.9854 16.3447H6.36621C5.9768 16.3448 5.6255 16.3451 5.33399 16.3213C5.02196 16.2958 4.6901 16.2378 4.36524 16.0723C3.89483 15.8325 3.51221 15.4499 3.27246 14.9795C3.10692 14.6546 3.04896 14.3228 3.02344 14.0107C2.99963 13.7193 2.99998 13.3687 3 12.9795V9.36621C2.99998 8.9768 2.99962 8.6255 3.02344 8.33399C3.04896 8.02196 3.10694 7.69011 3.27246 7.36524C3.51222 6.89483 3.89483 6.51222 4.36524 6.27246C4.69011 6.10694 5.02196 6.04896 5.33399 6.02344C5.6255 5.99962 5.9768 5.99998 6.36621 6H12.9854Z" fill="white"/>
<path d="M29.6338 6C30.023 5.99998 30.3736 5.99966 30.665 6.02344C30.9771 6.04893 31.3089 6.10702 31.6338 6.27246C32.1043 6.51222 32.4877 6.89472 32.7275 7.36524C32.8931 7.69011 32.951 8.02196 32.9766 8.33399C33.0004 8.62549 33 8.97681 33 9.36621V12.9795C33 13.3687 33.0004 13.7193 32.9766 14.0107C32.951 14.3228 32.8931 14.6546 32.7275 14.9795C32.4877 15.4501 32.1044 15.8325 31.6338 16.0723C31.3089 16.2377 30.9771 16.2958 30.665 16.3213C30.3736 16.3451 30.023 16.3448 29.6338 16.3447H23.0147C22.6254 16.3448 22.2748 16.3451 21.9834 16.3213C21.6714 16.2958 21.3396 16.2377 21.0147 16.0723C20.5441 15.8325 20.1607 15.4501 19.9209 14.9795C19.7554 14.6546 19.6974 14.3228 19.6719 14.0107C19.6481 13.7193 19.6484 13.3687 19.6484 12.9795V9.36621C19.6484 8.9768 19.6481 8.6255 19.6719 8.33399C19.6974 8.02196 19.7554 7.69011 19.9209 7.36524C20.1607 6.89472 20.5441 6.51222 21.0147 6.27246C21.3395 6.10702 21.6714 6.04893 21.9834 6.02344C22.2748 5.99966 22.6254 5.99998 23.0147 6H29.6338Z" fill="white"/>
</svg>
