<svg width="36" height="36" viewBox="0 0 36 36" fill="none" xmlns="http://www.w3.org/2000/svg">
<path fill-rule="evenodd" clip-rule="evenodd" d="M10.0833 6H25.92C26.9308 5.99999 27.7576 5.99998 28.4294 6.05487C29.1248 6.11169 29.7529 6.23289 30.3395 6.53175C31.2575 6.9995 32.0039 7.74586 32.4716 8.66385C32.7705 9.25042 32.8917 9.8785 32.9485 10.5739C33.0034 11.2458 33.0034 12.0725 33.0033 13.0833V22.9184C33.0034 23.9292 33.0034 24.756 32.9485 25.4278C32.8917 26.1232 32.7705 26.7513 32.4716 27.3379C32.0039 28.2559 31.2575 29.0022 30.3395 29.47C29.7529 29.7689 29.1248 29.8901 28.4294 29.9469C27.7576 30.0018 26.9309 30.0018 25.9201 30.0017H10.0834C9.07253 30.0018 8.24579 30.0018 7.57393 29.9469C6.8785 29.8901 6.25042 29.7689 5.66385 29.47C4.74586 29.0022 3.9995 28.2559 3.53175 27.3379C3.23289 26.7513 3.11169 26.1232 3.05487 25.4278C2.99998 24.756 2.99999 23.9293 3 22.9184V13.0833C2.99999 12.0725 2.99998 11.2458 3.05487 10.5739C3.11169 9.8785 3.23289 9.25042 3.53175 8.66385C3.9995 7.74586 4.74586 6.9995 5.66385 6.53175C6.25042 6.23289 6.8785 6.11169 7.57393 6.05487C8.24579 5.99998 9.07251 5.99999 10.0833 6ZM7.75729 8.29913C7.20111 8.34457 6.90235 8.4279 6.68612 8.53807C6.19182 8.78993 5.78993 9.19181 5.53807 9.68612C5.4279 9.90235 5.34457 10.2011 5.29913 10.7573C5.25262 11.3266 5.25174 12.061 5.25174 13.1305V22.8712C5.25174 23.9407 5.25262 24.6751 5.29913 25.2444C5.34457 25.8006 5.4279 26.0994 5.53807 26.3156C5.78993 26.8099 6.19182 27.2118 6.68612 27.4637C6.90235 27.5738 7.20111 27.6572 7.75729 27.7026C8.32662 27.7491 9.06102 27.75 10.1305 27.75H25.8728C26.9423 27.75 27.6767 27.7491 28.2461 27.7026C28.8022 27.6572 29.101 27.5738 29.3172 27.4637C29.8115 27.2118 30.2134 26.8099 30.4653 26.3156C30.5755 26.0994 30.6588 25.8006 30.7042 25.2444C30.7507 24.6751 30.7516 23.9407 30.7516 22.8712V13.1305C30.7516 12.061 30.7507 11.3266 30.7042 10.7573C30.6588 10.2011 30.5755 9.90235 30.4653 9.68612C30.2134 9.19181 29.8115 8.78993 29.3172 8.53807C29.101 8.4279 28.8022 8.34457 28.2461 8.29913C27.6767 8.25262 26.9423 8.25174 25.8728 8.25174H10.1305C9.06102 8.25174 8.32661 8.25262 7.75729 8.29913ZM21.7519 14.2509C21.7519 16.3219 20.0728 18.0009 18.0016 18.0009C15.9305 18.0009 14.2514 16.3219 14.2514 14.2509C14.2514 12.1798 15.9305 10.5009 18.0016 10.5009C20.0728 10.5009 21.7519 12.1798 21.7519 14.2509ZM25.493 23.3067C25.5573 22.6834 25.2742 22.0785 24.7962 21.7325C22.8479 20.3221 20.5124 19.5009 18.0017 19.5009C15.4909 19.5009 13.1553 20.3222 11.2069 21.7327C10.7289 22.0787 10.4459 22.6835 10.5102 23.3068C10.5449 23.6428 10.606 23.9048 10.7136 24.1358C10.9325 24.6063 11.2819 24.9887 11.7117 25.2284C12.2002 25.5009 12.8398 25.5009 14.1189 25.5009H21.8843C23.1634 25.5009 23.8029 25.5009 24.2915 25.2284C24.7212 24.9887 25.0706 24.6063 25.2896 24.1358C25.3972 23.9047 25.4583 23.6427 25.493 23.3067Z" fill="white"/>
</svg>
