<svg width="36" height="36" viewBox="0 0 36 36" fill="none" xmlns="http://www.w3.org/2000/svg">
<path fill-rule="evenodd" clip-rule="evenodd" d="M8.8017 3C7.98925 2.99999 7.31923 2.99998 6.77355 3.04456C6.20697 3.09085 5.68694 3.19015 5.19873 3.43891C4.44102 3.82498 3.82498 4.44102 3.43891 5.19873C3.19015 5.68694 3.09085 6.20697 3.04456 6.77355C2.99998 7.31923 2.99999 7.98923 3 8.80169V11.1889C3 11.7412 3.44772 12.1889 4 12.1889C4.55229 12.1889 5 11.7412 5 11.1889V8.84305C5 7.97894 5.00078 7.39099 5.03792 6.93642C5.07411 6.49351 5.13976 6.26599 5.22092 6.10671C5.41525 5.72532 5.72532 5.41525 6.10671 5.22092C6.26599 5.13977 6.49351 5.07411 6.93642 5.03792C7.39099 5.00078 7.97894 5 8.84305 5H11.1889C11.7412 5 12.1889 4.55229 12.1889 4C12.1889 3.44772 11.7412 3 11.1889 3H8.8017ZM27.1558 5C28.0199 5 28.6079 5.00078 29.0625 5.03792C29.5054 5.07411 29.7329 5.13977 29.8922 5.22092C30.2736 5.41525 30.5836 5.72532 30.778 6.10671C30.8591 6.26599 30.9248 6.49351 30.961 6.93642C30.9981 7.39099 30.9989 7.97894 30.9989 8.84305V11.1889C30.9989 11.7412 31.4466 12.1889 31.9989 12.1889C32.5512 12.1889 32.9989 11.7412 32.9989 11.1889V8.80177C32.9989 7.98928 32.9989 7.31925 32.9543 6.77355C32.908 6.20697 32.8087 5.68694 32.56 5.19873C32.1739 4.44102 31.5579 3.82498 30.8001 3.43891C30.3119 3.19015 29.7919 3.09085 29.2253 3.04456C28.6796 2.99998 28.0097 2.99999 27.1972 3H24.81C24.2577 3 23.81 3.44772 23.81 4C23.81 4.55229 24.2577 5 24.81 5H27.1558ZM5 24.81C5 24.2577 4.55229 23.81 4 23.81C3.44772 23.81 3 24.2577 3 24.81V27.1972C2.99999 28.0096 2.99998 28.6796 3.04456 29.2253C3.09085 29.7919 3.19015 30.3119 3.43891 30.8001C3.82498 31.5579 4.44102 32.1739 5.19873 32.56C5.68694 32.8087 6.20697 32.908 6.77355 32.9543C7.3192 32.9989 7.98916 32.9989 8.80156 32.9989H11.1889C11.7412 32.9989 12.1889 32.5512 12.1889 31.9989C12.1889 31.4466 11.7412 30.9989 11.1889 30.9989H8.84305C7.97894 30.9989 7.39099 30.9981 6.93642 30.961C6.49351 30.9248 6.26599 30.8591 6.10671 30.778C5.72532 30.5836 5.41525 30.2736 5.22092 29.8922C5.13976 29.7329 5.07411 29.5054 5.03792 29.0625C5.00078 28.6079 5 28.0199 5 27.1558V24.81ZM32.9989 24.81C32.9989 24.2577 32.5512 23.81 31.9989 23.81C31.4466 23.81 30.9989 24.2577 30.9989 24.81V27.1558C30.9989 28.0199 30.9981 28.6079 30.961 29.0625C30.9248 29.5054 30.8591 29.7329 30.778 29.8922C30.5836 30.2736 30.2736 30.5836 29.8922 30.778C29.7329 30.8591 29.5054 30.9248 29.0625 30.961C28.6079 30.9981 28.0199 30.9989 27.1558 30.9989H24.81C24.2577 30.9989 23.81 31.4466 23.81 31.9989C23.81 32.5512 24.2577 32.9989 24.81 32.9989H27.1972C28.0096 32.9989 28.6797 32.9989 29.2253 32.9543C29.7919 32.908 30.3119 32.8087 30.8001 32.56C31.5579 32.1739 32.1739 31.5579 32.56 30.8001C32.8087 30.3119 32.908 29.7919 32.9543 29.2253C32.9989 28.6796 32.9989 28.0096 32.9989 27.1971V24.81ZM10.8047 10.0537C10.3905 10.0537 10.0547 10.3895 10.0547 10.8037V13.8441C10.0547 14.2583 10.3905 14.5941 10.8047 14.5941H13.845C14.2593 14.5941 14.595 14.2583 14.595 13.8441V10.8037C14.595 10.3895 14.2593 10.0537 13.845 10.0537H10.8047ZM17.2402 10.0537C17.0331 10.0537 16.8652 10.2216 16.8652 10.4287V11.9489C16.8652 12.156 17.0331 12.3239 17.2402 12.3239H18.7604C18.9675 12.3239 19.1354 12.156 19.1354 11.9489V10.4287C19.1354 10.2216 18.9675 10.0537 18.7604 10.0537H17.2402ZM12.3262 17.2392C12.3262 17.0321 12.4941 16.8642 12.7012 16.8642H14.2214C14.4285 16.8642 14.5964 17.0321 14.5964 17.2392V18.7594C14.5964 18.9665 14.4285 19.1344 14.2214 19.1344H12.7012C12.4941 19.1344 12.3262 18.9665 12.3262 18.7594V17.2392ZM20.6582 14.5938C21.0724 14.5938 21.4082 14.9295 21.4082 15.3438V20.6543C21.4082 21.0685 21.0724 21.4043 20.6582 21.4043H15.3477C14.9334 21.4043 14.5977 21.0685 14.5977 20.6543V19.8835C14.5977 19.4692 14.9334 19.1335 15.3477 19.1335H18.7647C18.9719 19.1335 19.1397 18.9656 19.1397 18.7585V17.2383C19.1397 17.0312 18.9719 16.8633 18.7647 16.8633H15.3477C14.9334 16.8633 14.5977 16.5275 14.5977 16.1133V15.3438C14.5977 14.9295 14.9334 14.5938 15.3477 14.5938H20.6582ZM23.6758 17.2392C23.6758 17.0321 23.8437 16.8642 24.0508 16.8642H25.571C25.7781 16.8642 25.946 17.0321 25.946 17.2392V18.7594C25.946 18.9665 25.7781 19.1344 25.571 19.1344H24.0508C23.8437 19.1344 23.6758 18.9665 23.6758 18.7594V17.2392ZM17.2402 23.6747C17.0331 23.6747 16.8652 23.8426 16.8652 24.0497V25.5698C16.8652 25.777 17.0331 25.9448 17.2402 25.9448H18.7604C18.9675 25.9448 19.1354 25.777 19.1354 25.5698V24.0497C19.1354 23.8426 18.9675 23.6747 18.7604 23.6747H17.2402ZM10.0547 22.1553C10.0547 21.7411 10.3905 21.4053 10.8047 21.4053H13.845C14.2593 21.4053 14.595 21.7411 14.595 22.1553V25.1956C14.595 25.6098 14.2593 25.9456 13.845 25.9456H10.8047C10.3905 25.9456 10.0547 25.6098 10.0547 25.1956V22.1553ZM22.1562 10.0539C21.742 10.0539 21.4062 10.3897 21.4062 10.8039V13.8443C21.4062 14.2585 21.742 14.5943 22.1562 14.5943H25.1966C25.6108 14.5943 25.9466 14.2585 25.9466 13.8443V10.8039C25.9466 10.3897 25.6108 10.0539 25.1966 10.0539H22.1562ZM21.4062 22.1553C21.4062 21.7411 21.742 21.4053 22.1562 21.4053H25.1966C25.6108 21.4053 25.9466 21.7411 25.9466 22.1553V25.1956C25.9466 25.6098 25.6108 25.9456 25.1966 25.9456H22.1562C21.742 25.9456 21.4062 25.6098 21.4062 25.1956V22.1553Z" fill="white"/>
</svg>
