<svg width="36" height="36" viewBox="0 0 36 36" fill="none" xmlns="http://www.w3.org/2000/svg">
<path fill-rule="evenodd" clip-rule="evenodd" d="M28.0076 5.25788C28.1209 4.91404 28.6073 4.91404 28.7205 5.25788L29.129 6.49782C29.5764 7.85625 30.6426 8.92137 32.0014 9.36756L33.244 9.77558C33.5883 9.88863 33.5883 10.3757 33.244 10.4887L32.0014 10.8967C30.6426 11.3429 29.5764 12.408 29.129 13.7665L28.7205 15.0064C28.6073 15.3502 28.1209 15.3502 28.0076 15.0064L27.5992 13.7665C27.1517 12.408 26.0856 11.3429 24.7268 10.8967L23.4842 10.4887C23.1399 10.3757 23.1399 9.88863 23.4842 9.77558L24.7268 9.36756C26.0856 8.92137 27.1517 7.85624 27.5992 6.49782L28.0076 5.25788ZM10.0824 5.65633H22.7679C23.3897 5.65633 23.8938 6.16041 23.8938 6.78221C23.8938 7.40401 23.3897 7.90808 22.7679 7.90808H10.1295C9.06004 7.90808 8.32564 7.90896 7.75632 7.95547C7.20014 8.00091 6.90137 8.08424 6.68515 8.19441C6.19084 8.44627 5.78895 8.84816 5.53709 9.34247C5.42692 9.55869 5.3436 9.85746 5.29815 10.4136C5.25164 10.983 5.25076 11.7174 5.25076 12.7869V22.3695C5.25076 23.439 5.25164 24.1734 5.29815 24.7427C5.3436 25.2989 5.42692 25.5976 5.53709 25.8139C5.78895 26.3082 6.19084 26.7101 6.68515 26.9619C6.90137 27.0721 7.20014 27.1554 7.75632 27.2009C8.32564 27.2474 9.06004 27.2483 10.1295 27.2483H25.7119C26.7814 27.2483 27.5158 27.2474 28.0851 27.2009C28.6413 27.1554 28.94 27.0721 29.1563 26.9619C29.6506 26.7101 30.0525 26.3082 30.3043 25.8139C30.4145 25.5976 30.4978 25.2989 30.5433 24.7427C30.5898 24.1734 30.5907 23.439 30.5907 22.3695V15.7168C30.5907 15.095 31.0947 14.5909 31.7165 14.5909C32.3383 14.5909 32.8424 15.095 32.8424 15.7168V22.4166C32.8424 23.4274 32.8424 24.2542 32.7875 24.9261C32.7307 25.6215 32.6095 26.2496 32.3106 26.8361C31.8429 27.7541 31.0965 28.5005 30.1785 28.9682C29.592 29.2671 28.9639 29.3883 28.2685 29.4451C27.5966 29.5 26.77 29.5 25.7592 29.5H10.0824C9.07158 29.5 8.2448 29.5 7.57295 29.4451C6.87752 29.3883 6.24944 29.2671 5.66288 28.9682C4.74488 28.5005 3.99852 27.7541 3.53078 26.8361C3.23191 26.2496 3.11071 25.6215 3.05389 24.9261C2.999 24.2542 2.99901 23.4275 2.99902 22.4167V12.7397C2.99901 11.7289 2.999 10.9021 3.05389 10.2303C3.11071 9.53485 3.23191 8.90676 3.53078 8.3202C3.99852 7.40219 4.74488 6.65584 5.66288 6.18809C6.24944 5.88922 6.87752 5.76802 7.57295 5.7112C8.24481 5.65631 9.07153 5.65632 10.0824 5.65633ZM21.6504 13.8555C21.6504 15.9116 19.9811 17.5783 17.9219 17.5783C15.8626 17.5783 14.1933 15.9116 14.1933 13.8555C14.1933 11.7995 15.8626 10.1328 17.9219 10.1328C19.9811 10.1328 21.6504 11.7995 21.6504 13.8555ZM25.3701 22.8456C25.4341 22.2268 25.1526 21.6263 24.6774 21.2828C22.7403 19.8826 20.4183 19.0674 17.922 19.0674C15.4257 19.0674 13.1036 19.8827 11.1664 21.283C10.6912 21.6265 10.4098 22.2269 10.4738 22.8457C10.5082 23.1792 10.569 23.4393 10.6759 23.6687C10.8936 24.1357 11.241 24.5153 11.6683 24.7533C12.154 25.0238 12.7899 25.0238 14.0616 25.0238H21.7822C23.054 25.0238 23.6898 25.0238 24.1756 24.7533C24.6028 24.5153 24.9502 24.1357 25.1679 23.6687C25.2749 23.4392 25.3356 23.1792 25.3701 22.8456ZM10.7533 13.294C10.6661 13.0118 10.2667 13.0118 10.1795 13.294L9.88015 14.2632C9.58712 15.2119 8.844 15.9544 7.89505 16.2466L6.92398 16.5456C6.64147 16.6326 6.64147 17.0325 6.92398 17.1195L7.89505 17.4185C8.844 17.7107 9.58712 18.4531 9.88015 19.4018L10.1795 20.3711C10.2667 20.6533 10.6661 20.6533 10.7533 20.3711L11.0526 19.4018C11.3457 18.4531 12.0888 17.7107 13.0377 17.4185L14.0088 17.1195C14.2913 17.0325 14.2913 16.6326 14.0088 16.5456L13.0377 16.2466C12.0888 15.9544 11.3457 15.2119 11.0526 14.2632L10.7533 13.294Z" fill="white"/>
</svg>
