<svg width="36" height="36" viewBox="0 0 36 36" fill="none" xmlns="http://www.w3.org/2000/svg">
<path fill-rule="evenodd" clip-rule="evenodd" d="M8.87935 6H27.1207C27.9219 5.99999 28.5907 5.99997 29.137 6.04461C29.7068 6.09117 30.2418 6.19183 30.7477 6.4496C31.5239 6.84508 32.1549 7.47612 32.5504 8.25229C32.8082 8.75818 32.9088 9.29317 32.9554 9.863C33 10.4093 33 11.0781 33 11.8793V24.1207C33 24.9219 33 25.5907 32.9554 26.137C32.9088 26.7068 32.8082 27.2418 32.5504 27.7477C32.1549 28.5239 31.5239 29.1549 30.7477 29.5504C30.2418 29.8082 29.7068 29.9088 29.137 29.9554C28.5907 30 27.9221 30 27.121 30H8.87932C8.07822 30 7.40928 30 6.863 29.9554C6.29317 29.9088 5.75818 29.8082 5.25229 29.5504C4.47612 29.1549 3.84508 28.5239 3.4496 27.7477C3.19183 27.2418 3.09117 26.7068 3.04461 26.137C2.99997 25.5907 2.99999 24.9219 3 24.1207V11.8793C2.99999 11.0781 2.99997 10.4093 3.04461 9.863C3.09117 9.29317 3.19183 8.75818 3.4496 8.25229C3.84508 7.47612 4.47612 6.84508 5.25229 6.4496C5.75818 6.19183 6.29317 6.09117 6.863 6.04461C7.40934 5.99997 8.07813 5.99999 8.87935 6ZM24.0007 11.7V24.3C24.0007 24.72 24.0007 24.9301 24.0621 25.0905C24.116 25.2316 24.202 25.3463 24.3079 25.4183C24.4282 25.5 24.5857 25.5 24.9007 25.5H27.6007C27.9158 25.5 28.0733 25.5 28.1936 25.4183C28.2995 25.3463 28.3855 25.2316 28.4394 25.0905C28.5007 24.9301 28.5007 24.72 28.5007 24.3V11.7C28.5007 11.28 28.5007 11.0699 28.4394 10.9095C28.3855 10.7684 28.2995 10.6537 28.1936 10.5817C28.0733 10.5 27.9158 10.5 27.6007 10.5H24.9007C24.5857 10.5 24.4282 10.5 24.3079 10.5817C24.202 10.6537 24.116 10.7684 24.0621 10.9095C24.0007 11.0699 24.0007 11.28 24.0007 11.7ZM17.0651 15.1875C17.0651 16.9479 15.6381 18.375 13.8776 18.375C12.1172 18.375 10.6901 16.9479 10.6901 15.1875C10.6901 13.4271 12.1172 12 13.8776 12C15.6381 12 17.0651 13.4271 17.0651 15.1875ZM19.6518 21.5463C20.0581 21.8404 20.2987 22.3545 20.244 22.8844C20.2145 23.17 20.1626 23.3927 20.0712 23.5891C19.8851 23.989 19.5881 24.3141 19.2228 24.5178C18.8076 24.7494 18.264 24.7494 17.1768 24.7494H10.5766C9.48944 24.7494 8.94585 24.7494 8.5306 24.5178C8.16533 24.3141 7.86836 23.989 7.68225 23.5891C7.59082 23.3927 7.5389 23.1701 7.50942 22.8845C7.45472 22.3547 7.69532 21.8406 8.10157 21.5465C9.75759 20.3475 11.7427 19.6494 13.8768 19.6494C16.0108 19.6494 17.9958 20.3474 19.6518 21.5463Z" fill="white"/>
</svg>
