<svg width="36" height="36" viewBox="0 0 36 36" fill="none" xmlns="http://www.w3.org/2000/svg">
<path fill-rule="evenodd" clip-rule="evenodd" d="M28.716 5.2579C28.6027 4.91403 28.1163 4.91403 28.0031 5.2579L27.5942 6.49954C27.1468 7.85799 26.0808 8.92319 24.722 9.36948L23.4781 9.77802C23.4658 9.78207 23.4539 9.7866 23.4425 9.79157C23.1292 9.92057 23.1386 10.3796 23.4708 10.4887L23.476 10.4904C23.4767 10.4906 23.4774 10.4909 23.4781 10.4911L24.722 10.8997C26.0808 11.346 27.1468 12.4112 27.5942 13.7696L28.0031 15.0112C28.0087 15.0283 28.0152 15.0445 28.0225 15.0598C28.1591 15.3591 28.6072 15.3452 28.7148 15.0182L29.1312 13.7539L29.1459 13.7101C29.1742 13.627 29.2049 13.545 29.2378 13.4642C29.7072 12.3235 30.6255 11.4234 31.7785 10.9777C31.832 10.9572 31.886 10.9377 31.9405 10.9192L31.9843 10.9045L32.8073 10.6342C32.8073 10.634 32.8073 10.6344 32.8073 10.6342L33.2409 10.4911C33.5852 10.3781 33.5852 9.89109 33.2409 9.77802L31.9971 9.36948C31.9946 9.36868 31.9922 9.36787 31.9897 9.36707C30.714 8.94563 29.6972 7.97831 29.2098 6.73524C29.1873 6.67732 29.166 6.61879 29.1459 6.55969L29.1312 6.51597L28.8925 5.79093C28.8921 5.79088 28.8918 5.79082 28.8915 5.79077L28.716 5.2579ZM32.4503 12.3197L32.8344 12.1936C32.8347 12.3523 32.8347 12.5161 32.8347 12.685V22.4725C32.8347 23.4757 32.8347 24.2961 32.7802 24.9629C32.7237 25.653 32.6033 26.2763 32.3063 26.8584C31.8415 27.7695 31.0998 28.5102 30.1876 28.9744C29.6047 29.271 28.9806 29.3913 28.2895 29.4476C27.6219 29.5021 26.8004 29.5021 25.796 29.5021H10.0389C9.03441 29.5021 8.21284 29.5021 7.54522 29.4476C6.85416 29.3913 6.23002 29.271 5.64713 28.9744C4.7349 28.5102 3.99323 27.7695 3.52842 26.8584C3.23142 26.2763 3.11099 25.653 3.05453 24.9629C2.99998 24.2961 2.99999 23.4757 3 22.4725V12.6953C2.99999 11.6922 2.99998 10.8717 3.05453 10.2049C3.11099 9.51479 3.23142 8.89147 3.52842 8.30935C3.99323 7.39832 4.7349 6.65762 5.64713 6.19342C6.23002 5.89682 6.85416 5.77654 7.54522 5.72016C8.21286 5.66568 9.03437 5.66569 10.0389 5.6657H25.7958C25.9691 5.6657 26.137 5.6657 26.2995 5.66598L26.1729 6.05054C25.8768 6.94942 25.1709 7.65445 24.2708 7.95007L23.0048 8.36591C21.2953 8.92738 21.2953 11.3424 23.0048 11.9039L24.2708 12.3197C25.1709 12.6154 25.8768 13.3204 26.1729 14.2193L26.5892 15.4837C27.1515 17.1909 29.5697 17.1909 30.1319 15.4837L30.5483 14.2193C30.8443 13.3204 31.5503 12.6154 32.4503 12.3197ZM17.9168 17.5843C19.9765 17.5843 21.6462 15.9168 21.6462 13.8598C21.6462 11.8029 19.9765 10.1354 17.9168 10.1354C15.8572 10.1354 14.1875 11.8029 14.1875 13.8598C14.1875 15.9168 15.8572 17.5843 17.9168 17.5843ZM25.3673 22.8539C25.4313 22.2349 25.1498 21.6341 24.6745 21.2905C22.737 19.8897 20.4145 19.0741 17.9178 19.0741C15.4209 19.0741 13.0983 19.8897 11.1608 21.2907C10.6855 21.6343 10.404 22.235 10.468 22.8541C10.5025 23.1878 10.5632 23.4479 10.6702 23.6774C10.888 24.1446 11.2354 24.5245 11.6628 24.7625C12.1486 25.0331 12.7846 25.0331 14.0566 25.0331H21.7787C23.0507 25.0331 23.6867 25.0331 24.1725 24.7625C24.5999 24.5245 24.9474 24.1446 25.1651 23.6774C25.2721 23.4479 25.3328 23.1877 25.3673 22.8539ZM10.7445 13.2987C10.6574 13.0165 10.2579 13.0165 10.1708 13.2987L9.87106 14.2692C9.5781 15.2179 8.83504 15.9604 7.88611 16.2527L6.91406 16.5521C6.63158 16.6391 6.63158 17.0389 6.91406 17.1259L7.88611 17.4253C8.83504 17.7176 9.5781 18.4601 9.87106 19.4088L10.1708 20.3794C10.2579 20.6615 10.6574 20.6615 10.7445 20.3794L11.0442 19.4088C11.3372 18.4601 12.0802 17.7176 13.0292 17.4253L14.0012 17.1259C14.2837 17.0389 14.2837 16.6391 14.0012 16.5521L13.0292 16.2527C12.0802 15.9604 11.3372 15.2179 11.0442 14.2692L10.7445 13.2987Z" fill="white"/>
</svg>
