<svg width="36" height="36" viewBox="0 0 36 36" fill="none" xmlns="http://www.w3.org/2000/svg">
<path fill-rule="evenodd" clip-rule="evenodd" d="M4.16362 7.81965C4 8.14077 4 8.56113 4 9.40186V12.943C4 13.7837 4 14.2041 4.16362 14.5252C4.30754 14.8076 4.53719 15.0373 4.81965 15.1812C5.14077 15.3448 5.56114 15.3448 6.40187 15.3448H12.9495C13.7903 15.3448 14.2106 15.3448 14.5318 15.1812C14.8142 15.0373 15.0439 14.8076 15.1878 14.5252C15.3514 14.2041 15.3514 13.7837 15.3514 12.943V9.40186C15.3514 8.56113 15.3514 8.14077 15.1878 7.81965C15.0439 7.53719 14.8142 7.30754 14.5318 7.16362C14.2106 7 13.7903 7 12.9495 7H6.40187C5.56114 7 5.14077 7 4.81965 7.16362C4.53719 7.30754 4.30754 7.53719 4.16362 7.81965ZM4.16362 21.4748C4 21.7959 4 22.2163 4 23.057V26.5981C4 27.4389 4 27.8592 4.16362 28.1804C4.30754 28.4628 4.53719 28.6925 4.81965 28.8364C5.14077 29 5.56114 29 6.40187 29H12.9495C13.7903 29 14.2106 29 14.5318 28.8364C14.8142 28.6925 15.0439 28.4628 15.1878 28.1804C15.3514 27.8592 15.3514 27.4389 15.3514 26.5981V23.057C15.3514 22.2163 15.3514 21.7959 15.1878 21.4748C15.0439 21.1924 14.8142 20.9627 14.5318 20.8188C14.2106 20.6552 13.7903 20.6552 12.9495 20.6552H6.40187C5.56114 20.6552 5.14077 20.6552 4.81965 20.8188C4.53719 20.9627 4.30754 21.1924 4.16362 21.4748ZM20.6486 9.40186C20.6486 8.56113 20.6486 8.14077 20.8122 7.81965C20.9561 7.53719 21.1858 7.30754 21.4683 7.16362C21.7894 7 22.2097 7 23.0505 7H29.5981C30.4389 7 30.8592 7 31.1804 7.16362C31.4628 7.30754 31.6925 7.53719 31.8364 7.81965C32 8.14077 32 8.56113 32 9.40186V12.943C32 13.7837 32 14.2041 31.8364 14.5252C31.6925 14.8076 31.4628 15.0373 31.1804 15.1812C30.8592 15.3448 30.4389 15.3448 29.5981 15.3448H23.0505C22.2097 15.3448 21.7894 15.3448 21.4683 15.1812C21.1858 15.0373 20.9561 14.8076 20.8122 14.5252C20.6486 14.2041 20.6486 13.7837 20.6486 12.943V9.40186ZM20.8121 21.4748C20.6485 21.7959 20.6485 22.2163 20.6485 23.057V26.5981C20.6485 27.4389 20.6485 27.8592 20.8121 28.1804C20.956 28.4628 21.1857 28.6925 21.4682 28.8364C21.7893 29 22.2096 29 23.0504 29H29.598C30.4388 29 30.8591 29 31.1803 28.8364C31.4627 28.6925 31.6924 28.4628 31.8363 28.1804C31.9999 27.8592 31.9999 27.4389 31.9999 26.5981V23.057C31.9999 22.2163 31.9999 21.7959 31.8363 21.4748C31.6924 21.1924 31.4627 20.9627 31.1803 20.8188C30.8591 20.6552 30.4388 20.6552 29.598 20.6552H23.0504C22.2096 20.6552 21.7893 20.6552 21.4682 20.8188C21.1857 20.9627 20.956 21.1924 20.8121 21.4748Z" fill="white"/>
<path fill-rule="evenodd" clip-rule="evenodd" d="M5.28152 8.05141C5.27629 8.05328 5.27364 8.05463 5.27364 8.05463C5.17934 8.10267 5.10267 8.17934 5.05463 8.27364C5.05463 8.27364 5.05328 8.27629 5.05141 8.28152C5.04947 8.28697 5.04624 8.29702 5.0424 8.31334C5.03432 8.34764 5.02475 8.40408 5.01713 8.49733C5.00078 8.69748 5 8.96499 5 9.40186V12.943C5 13.3798 5.00078 13.6473 5.01713 13.8475C5.02475 13.9408 5.03432 13.9972 5.0424 14.0315C5.04624 14.0478 5.04947 14.0579 5.05141 14.0633C5.05328 14.0685 5.05463 14.0712 5.05463 14.0712C5.10267 14.1655 5.17934 14.2422 5.27364 14.2902C5.27364 14.2902 5.27629 14.2916 5.28152 14.2934C5.28697 14.2954 5.29702 14.2986 5.31334 14.3024C5.34764 14.3105 5.40408 14.3201 5.49733 14.3277C5.69749 14.3441 5.96499 14.3448 6.40186 14.3448H12.9495C13.3864 14.3448 13.6539 14.3441 13.854 14.3277C13.9473 14.3201 14.0037 14.3105 14.038 14.3024C14.0543 14.2986 14.0644 14.2954 14.0698 14.2934C14.0751 14.2916 14.0777 14.2902 14.0777 14.2902C14.172 14.2422 14.2487 14.1655 14.2967 14.0712C14.2967 14.0712 14.2981 14.0685 14.2999 14.0633C14.3019 14.0579 14.3051 14.0478 14.309 14.0315C14.317 13.9972 14.3266 13.9408 14.3342 13.8475C14.3506 13.6473 14.3514 13.3798 14.3514 12.943V9.40186C14.3514 8.96499 14.3506 8.69749 14.3342 8.49733C14.3266 8.40408 14.317 8.34764 14.309 8.31334C14.3051 8.29702 14.3019 8.28697 14.2999 8.28152C14.2981 8.27629 14.2967 8.27364 14.2967 8.27364C14.2487 8.17934 14.172 8.10267 14.0777 8.05463C14.0777 8.05463 14.0751 8.05328 14.0698 8.05141C14.0644 8.04947 14.0543 8.04624 14.038 8.0424C14.0037 8.03432 13.9473 8.02475 13.854 8.01713C13.6539 8.00078 13.3864 8 12.9495 8H6.40186C5.96499 8 5.69749 8.00078 5.49733 8.01713C5.40408 8.02475 5.34764 8.03432 5.31334 8.0424C5.29702 8.04624 5.28697 8.04947 5.28152 8.05141ZM6.36576 6C6.37776 6 6.38979 6 6.40186 6L12.9856 6C13.375 5.99998 13.7254 5.99996 14.0169 6.02378C14.3291 6.04928 14.6607 6.107 14.9857 6.27261C15.4563 6.51241 15.8389 6.89504 16.0787 7.36566C16.2444 7.69069 16.3021 8.02231 16.3276 8.33447C16.3514 8.62598 16.3514 8.97637 16.3514 9.36578V12.9791C16.3514 13.3685 16.3514 13.7189 16.3276 14.0104C16.3021 14.3225 16.2444 14.6541 16.0787 14.9792C15.8389 15.4498 15.4563 15.8324 14.9857 16.0722C14.6607 16.2378 14.3291 16.2956 14.0169 16.3211C13.7254 16.3449 13.375 16.3449 12.9856 16.3448H6.36578C5.97637 16.3449 5.62598 16.3449 5.33447 16.3211C5.02231 16.2956 4.69069 16.2378 4.36566 16.0722C3.89504 15.8324 3.51241 15.4498 3.27261 14.9792C3.107 14.6541 3.04928 14.3225 3.02378 14.0104C2.99996 13.7189 2.99998 13.3685 3 12.9791L3 9.40186C3 9.38979 3 9.37776 3 9.36576C2.99998 8.97635 2.99996 8.62598 3.02378 8.33447C3.04928 8.0223 3.107 7.69068 3.27261 7.36566C3.51241 6.89504 3.89504 6.51241 4.36566 6.27261C4.69068 6.107 5.0223 6.04928 5.33447 6.02378C5.62598 5.99996 5.97635 5.99998 6.36576 6ZM23.0143 6H29.6341C30.0235 5.99998 30.3739 5.99996 30.6654 6.02378C30.9776 6.04928 31.3092 6.107 31.6342 6.27261C32.1049 6.51241 32.4875 6.89504 32.7273 7.36566C32.8929 7.69069 32.9506 8.02231 32.9761 8.33447C32.9999 8.62597 32.9999 8.97634 32.9999 9.36574V12.9791C32.9999 13.3685 32.9999 13.7189 32.9761 14.0104C32.9506 14.3225 32.8929 14.6541 32.7273 14.9792C32.4875 15.4498 32.1049 15.8324 31.6342 16.0722C31.3092 16.2378 30.9776 16.2956 30.6654 16.3211C30.3739 16.3449 30.0235 16.3449 29.6341 16.3448H23.0143C22.6249 16.3449 22.2745 16.3449 21.983 16.3211C21.6708 16.2956 21.3392 16.2378 21.0142 16.0722C20.5436 15.8324 20.1609 15.4498 19.9211 14.9792C19.7555 14.6541 19.6978 14.3225 19.6723 14.0104C19.6485 13.7189 19.6485 13.3685 19.6485 12.9791V9.36578C19.6485 8.97636 19.6485 8.62598 19.6723 8.33447C19.6978 8.0223 19.7555 7.69069 19.9211 7.36566C20.1609 6.89504 20.5436 6.51241 21.0142 6.27261C21.3392 6.107 21.6708 6.04928 21.983 6.02378C22.2745 5.99996 22.6249 5.99998 23.0143 6ZM21.9301 8.05141C21.9248 8.05328 21.9222 8.05463 21.9222 8.05463C21.8279 8.10267 21.7512 8.17934 21.7032 8.27364C21.7032 8.27364 21.7018 8.27629 21.6999 8.28152C21.698 8.28697 21.6948 8.29702 21.6909 8.31334C21.6829 8.34764 21.6733 8.40408 21.6657 8.49733C21.6493 8.69748 21.6485 8.96499 21.6485 9.40186V12.943C21.6485 13.3798 21.6493 13.6473 21.6657 13.8475C21.6733 13.9408 21.6829 13.9972 21.6909 14.0315C21.6948 14.0478 21.698 14.0579 21.6999 14.0633C21.7018 14.0685 21.7032 14.0712 21.7032 14.0712C21.7512 14.1655 21.8279 14.2422 21.9222 14.2902C21.9222 14.2902 21.9248 14.2916 21.9301 14.2934C21.9355 14.2954 21.9456 14.2986 21.9619 14.3024C21.9962 14.3105 22.0526 14.3201 22.1459 14.3277C22.346 14.3441 22.6135 14.3448 23.0504 14.3448H29.598C30.0349 14.3448 30.3024 14.3441 30.5026 14.3277C30.5958 14.3201 30.6523 14.3105 30.6866 14.3024C30.7029 14.2986 30.7129 14.2954 30.7184 14.2934L30.7227 14.2918C30.7249 14.2909 30.7262 14.2902 30.7262 14.2902C30.8206 14.2422 30.8972 14.1655 30.9453 14.0712C30.9453 14.0712 30.9466 14.0685 30.9485 14.0633C30.9504 14.0579 30.9536 14.0478 30.9575 14.0315C30.9656 13.9972 30.9751 13.9408 30.9828 13.8475C30.9991 13.6473 30.9999 13.3798 30.9999 12.943V9.40186C30.9999 8.96499 30.9991 8.69749 30.9828 8.49733C30.9751 8.40408 30.9656 8.34764 30.9575 8.31334C30.9536 8.29702 30.9504 8.28697 30.9485 8.28152C30.9466 8.27629 30.9453 8.27364 30.9453 8.27364C30.8972 8.17934 30.8205 8.10267 30.7262 8.05463C30.7262 8.05463 30.7236 8.05328 30.7184 8.05141C30.7129 8.04947 30.7029 8.04624 30.6866 8.0424C30.6522 8.03432 30.5958 8.02475 30.5026 8.01713C30.3024 8.00078 30.0349 8 29.598 8H23.0504C22.6135 8 22.346 8.00078 22.1459 8.01713C22.0526 8.02475 21.9962 8.03432 21.9619 8.0424C21.9456 8.04624 21.9355 8.04947 21.9301 8.05141ZM5.28152 21.7066C5.27629 21.7085 5.27364 21.7098 5.27364 21.7098C5.17934 21.7578 5.10267 21.8345 5.05463 21.9288C5.05463 21.9288 5.05328 21.9315 5.05141 21.9367C5.04947 21.9421 5.04624 21.9522 5.0424 21.9685C5.03432 22.0028 5.02475 22.0593 5.01713 22.1525C5.00078 22.3527 5 22.6202 5 23.057V26.5981C5 27.035 5.00078 27.3025 5.01713 27.5027C5.02475 27.5959 5.03432 27.6524 5.0424 27.6867C5.04624 27.703 5.04947 27.713 5.05141 27.7185C5.05328 27.7237 5.05463 27.7264 5.05463 27.7264C5.10267 27.8207 5.17934 27.8973 5.27364 27.9454C5.27364 27.9454 5.27629 27.9467 5.28152 27.9486C5.28697 27.9505 5.29702 27.9538 5.31334 27.9576C5.34764 27.9657 5.40408 27.9753 5.49733 27.9829C5.69749 27.9992 5.96499 28 6.40186 28H12.9495C13.3864 28 13.6539 27.9992 13.854 27.9829C13.9473 27.9753 14.0037 27.9657 14.038 27.9576C14.0543 27.9538 14.0644 27.9505 14.0698 27.9486C14.0751 27.9467 14.0777 27.9454 14.0777 27.9454C14.172 27.8973 14.2487 27.8207 14.2967 27.7264C14.2967 27.7264 14.2981 27.7237 14.2999 27.7185C14.3019 27.713 14.3051 27.703 14.309 27.6867C14.317 27.6524 14.3266 27.5959 14.3342 27.5027C14.3506 27.3025 14.3514 27.035 14.3514 26.5981V23.057C14.3514 22.6202 14.3506 22.3527 14.3342 22.1525C14.3266 22.0593 14.317 22.0028 14.309 21.9685C14.3051 21.9522 14.3019 21.9421 14.2999 21.9367C14.2981 21.9315 14.2967 21.9288 14.2967 21.9288C14.2487 21.8345 14.172 21.7578 14.0777 21.7098C14.0777 21.7098 14.0751 21.7085 14.0698 21.7066C14.0644 21.7046 14.0543 21.7014 14.038 21.6976C14.0037 21.6895 13.9473 21.6799 13.854 21.6723C13.6539 21.656 13.3864 21.6552 12.9495 21.6552H6.40186C5.96499 21.6552 5.69748 21.656 5.49733 21.6723C5.40408 21.6799 5.34764 21.6895 5.31334 21.6976C5.29702 21.7014 5.28697 21.7046 5.28152 21.7066ZM6.36578 19.6552H12.9856C13.375 19.6552 13.7254 19.6551 14.0169 19.6789C14.3291 19.7045 14.6607 19.7622 14.9857 19.9278C15.4563 20.1676 15.8389 20.5502 16.0787 21.0208C16.2444 21.3459 16.3021 21.6775 16.3276 21.9896C16.3514 22.2812 16.3514 22.6315 16.3514 23.021V26.6342C16.3514 27.0236 16.3514 27.374 16.3276 27.6655C16.3021 27.9777 16.2444 28.3093 16.0787 28.6343C15.839 29.105 15.4563 29.4876 14.9857 29.7274C14.6607 29.893 14.3291 29.9507 14.0169 29.9762C13.7254 30 13.375 30 12.9856 30H6.36574C5.97634 30 5.62597 30 5.33447 29.9762C5.02231 29.9507 4.69069 29.893 4.36566 29.7274C3.89504 29.4876 3.51241 29.105 3.27261 28.6343C3.107 28.3093 3.04928 27.9777 3.02378 27.6655C2.99996 27.374 2.99998 27.0237 3 26.6342V23.0209C2.99998 22.6315 2.99996 22.2811 3.02378 21.9896C3.04928 21.6775 3.107 21.3459 3.27261 21.0208C3.51241 20.5502 3.89504 20.1676 4.36566 19.9278C4.69069 19.7622 5.02231 19.7045 5.33447 19.6789C5.62598 19.6551 5.97637 19.6552 6.36578 19.6552ZM21.93 21.7066C21.9247 21.7085 21.9221 21.7098 21.9221 21.7098C21.8278 21.7578 21.7511 21.8345 21.7031 21.9288C21.7031 21.9288 21.7017 21.9315 21.6999 21.9367C21.6979 21.9421 21.6947 21.9522 21.6908 21.9685C21.6828 22.0028 21.6732 22.0593 21.6656 22.1525C21.6492 22.3527 21.6484 22.6202 21.6484 23.057V26.5981C21.6484 27.035 21.6492 27.3025 21.6656 27.5027C21.6732 27.5959 21.6828 27.6524 21.6908 27.6867C21.6947 27.703 21.6979 27.713 21.6999 27.7185C21.7017 27.7237 21.7031 27.7264 21.7031 27.7264C21.7511 27.8207 21.8278 27.8973 21.9221 27.9454C21.9221 27.9454 21.9247 27.9467 21.93 27.9486C21.9336 27.9499 21.9393 27.9518 21.9475 27.954C21.9516 27.9551 21.9563 27.9563 21.9618 27.9576C21.9961 27.9657 22.0525 27.9753 22.1458 27.9829C22.3459 27.9992 22.6134 28 23.0503 28H29.5979C30.0348 28 30.3023 27.9992 30.5025 27.9829C30.5957 27.9753 30.6522 27.9657 30.6865 27.9576C30.7028 27.9538 30.7128 27.9505 30.7183 27.9486C30.7235 27.9467 30.7262 27.9454 30.7262 27.9454C30.8205 27.8973 30.8971 27.8207 30.9452 27.7264C30.9452 27.7264 30.9465 27.7237 30.9484 27.7185C30.9503 27.713 30.9536 27.703 30.9574 27.6867C30.9655 27.6524 30.975 27.5959 30.9827 27.5027C30.999 27.3025 30.9998 27.035 30.9998 26.5981V23.057C30.9998 22.6202 30.999 22.3527 30.9827 22.1525C30.975 22.0593 30.9655 22.0028 30.9574 21.9685C30.9536 21.9522 30.9503 21.9421 30.9484 21.9367C30.947 21.9327 30.9455 21.9295 30.9455 21.9295C30.8974 21.8352 30.8205 21.7578 30.7262 21.7098C30.7262 21.7098 30.7221 21.708 30.7183 21.7066C30.7128 21.7046 30.7028 21.7014 30.6865 21.6976C30.6522 21.6895 30.5957 21.6799 30.5025 21.6723C30.3023 21.656 30.0348 21.6552 29.5979 21.6552H23.0503C22.6134 21.6552 22.3459 21.656 22.1458 21.6723C22.0525 21.6799 21.9961 21.6895 21.9618 21.6976C21.9455 21.7014 21.9354 21.7046 21.93 21.7066ZM23.0142 19.6552H29.634C30.0234 19.6552 30.3738 19.6551 30.6653 19.6789C30.9775 19.7045 31.3091 19.7622 31.6341 19.9278C32.1048 20.1676 32.4874 20.5502 32.7272 21.0208C32.8928 21.3459 32.9505 21.6775 32.976 21.9896C32.9998 22.2811 32.9998 22.6315 32.9998 23.0209V26.6343C32.9998 27.0237 32.9998 27.374 32.976 27.6655C32.9505 27.9777 32.8928 28.3093 32.7272 28.6343C32.4874 29.105 32.1048 29.4876 31.6341 29.7274C31.3091 29.893 30.9775 29.9507 30.6653 29.9762C30.3738 30 30.0235 30 29.6341 30H23.0142C22.6248 30 22.2744 30 21.9829 29.9762C21.6707 29.9507 21.3391 29.893 21.0141 29.7274C20.5435 29.4876 20.1608 29.105 19.921 28.6343C19.7554 28.3093 19.6977 27.9777 19.6722 27.6655C19.6484 27.374 19.6484 27.0236 19.6484 26.6342V23.021C19.6484 22.6315 19.6484 22.2812 19.6722 21.9896C19.6977 21.6775 19.7554 21.3459 19.921 21.0208C20.1608 20.5502 20.5435 20.1676 21.0141 19.9278C21.3391 19.7622 21.6707 19.7045 21.9829 19.6789C22.2744 19.6551 22.6248 19.6552 23.0142 19.6552Z" fill="white"/>
</svg>
