<svg width="36" height="36" viewBox="0 0 36 36" fill="none" xmlns="http://www.w3.org/2000/svg">
<path fill-rule="evenodd" clip-rule="evenodd" d="M8.8017 3C7.98925 2.99999 7.31923 2.99998 6.77355 3.04456C6.20697 3.09085 5.68694 3.19015 5.19873 3.43891C4.44102 3.82498 3.82498 4.44102 3.43891 5.19873C3.19015 5.68694 3.09085 6.20697 3.04456 6.77355C2.99998 7.31923 2.99999 7.98923 3 8.80169V11.1889C3 11.7412 3.44772 12.1889 4 12.1889C4.55229 12.1889 5 11.7412 5 11.1889V8.84305C5 7.97894 5.00078 7.39099 5.03792 6.93642C5.07411 6.49351 5.13976 6.26599 5.22092 6.10671C5.41525 5.72532 5.72532 5.41525 6.10671 5.22092C6.26599 5.13977 6.49351 5.07411 6.93642 5.03792C7.39099 5.00078 7.97894 5 8.84305 5H11.1889C11.7412 5 12.1889 4.55229 12.1889 4C12.1889 3.44772 11.7412 3 11.1889 3H8.8017ZM27.1558 5C28.0199 5 28.6079 5.00078 29.0625 5.03792C29.5054 5.07411 29.7329 5.13977 29.8922 5.22092C30.2736 5.41525 30.5836 5.72532 30.778 6.10671C30.8591 6.26599 30.9248 6.49351 30.961 6.93642C30.9981 7.39099 30.9989 7.97894 30.9989 8.84305V11.1889C30.9989 11.7412 31.4466 12.1889 31.9989 12.1889C32.5512 12.1889 32.9989 11.7412 32.9989 11.1889V8.80177C32.9989 7.98928 32.9989 7.31925 32.9543 6.77355C32.908 6.20697 32.8087 5.68694 32.56 5.19873C32.1739 4.44102 31.5579 3.82498 30.8001 3.43891C30.3119 3.19015 29.7919 3.09085 29.2253 3.04456C28.6796 2.99998 28.0097 2.99999 27.1972 3H24.81C24.2577 3 23.81 3.44772 23.81 4C23.81 4.55229 24.2577 5 24.81 5H27.1558ZM5 24.81C5 24.2577 4.55229 23.81 4 23.81C3.44772 23.81 3 24.2577 3 24.81V27.1972C2.99999 28.0096 2.99998 28.6796 3.04456 29.2253C3.09085 29.7919 3.19015 30.3119 3.43891 30.8001C3.82498 31.5579 4.44102 32.1739 5.19873 32.56C5.68694 32.8087 6.20697 32.908 6.77355 32.9543C7.3192 32.9989 7.98916 32.9989 8.80156 32.9989H11.1889C11.7412 32.9989 12.1889 32.5512 12.1889 31.9989C12.1889 31.4466 11.7412 30.9989 11.1889 30.9989H8.84305C7.97894 30.9989 7.39099 30.9981 6.93642 30.961C6.49351 30.9248 6.26599 30.8591 6.10671 30.778C5.72532 30.5836 5.41525 30.2736 5.22092 29.8922C5.13976 29.7329 5.07411 29.5054 5.03792 29.0625C5.00078 28.6079 5 28.0199 5 27.1558V24.81ZM32.9989 24.81C32.9989 24.2577 32.5512 23.81 31.9989 23.81C31.4466 23.81 30.9989 24.2577 30.9989 24.81V27.1558C30.9989 28.0199 30.9981 28.6079 30.961 29.0625C30.9248 29.5054 30.8591 29.7329 30.778 29.8922C30.5836 30.2736 30.2736 30.5836 29.8922 30.778C29.7329 30.8591 29.5054 30.9248 29.0625 30.961C28.6079 30.9981 28.0199 30.9989 27.1558 30.9989H24.81C24.2577 30.9989 23.81 31.4466 23.81 31.9989C23.81 32.5512 24.2577 32.9989 24.81 32.9989H27.1972C28.0096 32.9989 28.6797 32.9989 29.2253 32.9543C29.7919 32.908 30.3119 32.8087 30.8001 32.56C31.5579 32.1739 32.1739 31.5579 32.56 30.8001C32.8087 30.3119 32.908 29.7919 32.9543 29.2253C32.9989 28.6796 32.9989 28.0096 32.9989 27.1971V24.81ZM13.8372 13.0807C13.8372 14.3345 12.8208 15.3509 11.5671 15.3509C10.3133 15.3509 9.29688 14.3345 9.29688 13.0807C9.29688 11.8269 10.3133 10.8105 11.5671 10.8105C12.8208 10.8105 13.8372 11.8269 13.8372 13.0807ZM26.7025 13.0807C26.7025 14.3345 25.6861 15.3509 24.4323 15.3509C23.1785 15.3509 22.1621 14.3345 22.1621 13.0807C22.1621 11.8269 23.1785 10.8105 24.4323 10.8105C25.6861 10.8105 26.7025 11.8269 26.7025 13.0807ZM12.3115 22.7972C12.0353 22.3189 11.4238 22.155 10.9455 22.4312C10.4672 22.7073 10.3033 23.3189 10.5794 23.7972C11.3314 25.0996 12.4129 26.1811 13.7153 26.933C15.0177 27.685 16.495 28.0808 17.9989 28.0808C19.5028 28.0808 20.9801 27.685 22.2825 26.933C23.5849 26.1811 24.6664 25.0996 25.4184 23.7972C25.6945 23.3189 25.5306 22.7073 25.0523 22.4312C24.5741 22.155 23.9625 22.3189 23.6863 22.7972C23.1099 23.7955 22.2809 24.6246 21.2825 25.201C20.2842 25.7774 19.1517 26.0808 17.9989 26.0808C16.8461 26.0808 15.7136 25.7774 14.7153 25.201C13.7169 24.6246 12.8879 23.7955 12.3115 22.7972ZM17.1942 13.311C17.6939 13.0758 18.2897 13.2903 18.5248 13.79L21.0485 19.1528C21.5947 20.3135 20.7479 21.6479 19.4651 21.6479H16.8633C16.311 21.6479 15.8633 21.2002 15.8633 20.6479C15.8633 20.0957 16.311 19.6479 16.8633 19.6479H19.0711L16.7152 14.6416C16.48 14.1419 16.6945 13.5461 17.1942 13.311Z" fill="white"/>
</svg>
