<svg width="36" height="36" viewBox="0 0 36 36" fill="none" xmlns="http://www.w3.org/2000/svg">
<path fill-rule="evenodd" clip-rule="evenodd" d="M8.87935 6H27.1207C27.9219 5.99999 28.5907 5.99997 29.137 6.04461C29.7068 6.09117 30.2418 6.19183 30.7477 6.4496C31.5239 6.84508 32.1549 7.47612 32.5504 8.25229C32.8082 8.75818 32.9088 9.29317 32.9554 9.863C33 10.4093 33 11.0781 33 11.8793V24.1207C33 24.9219 33 25.5907 32.9554 26.137C32.9088 26.7068 32.8082 27.2418 32.5504 27.7477C32.1549 28.5239 31.5239 29.1549 30.7477 29.5504C30.2418 29.8082 29.7068 29.9088 29.137 29.9554C28.5907 30 27.9221 30 27.121 30H8.87932C8.07822 30 7.40928 30 6.863 29.9554C6.29317 29.9088 5.75818 29.8082 5.25229 29.5504C4.47612 29.1549 3.84508 28.5239 3.4496 27.7477C3.19183 27.2418 3.09117 26.7068 3.04461 26.137C2.99997 25.5907 2.99999 24.9219 3 24.1207V11.8793C2.99999 11.0781 2.99997 10.4093 3.04461 9.863C3.09117 9.29317 3.19183 8.75818 3.4496 8.25229C3.84508 7.47612 4.47612 6.84508 5.25229 6.4496C5.75818 6.19183 6.29317 6.09117 6.863 6.04461C7.40934 5.99997 8.07813 5.99999 8.87935 6ZM7.50086 11.7V24.3C7.50086 24.72 7.50086 24.9301 7.56217 25.0905C7.61609 25.2316 7.70215 25.3463 7.80799 25.4183C7.92831 25.5 8.08583 25.5 8.40086 25.5H11.1009C11.4159 25.5 11.5734 25.5 11.6937 25.4183C11.7996 25.3463 11.8856 25.2316 11.9395 25.0905C12.0009 24.9301 12.0009 24.72 12.0009 24.3V11.7C12.0009 11.28 12.0009 11.0699 11.9395 10.9095C11.8856 10.7684 11.7996 10.6537 11.6937 10.5817C11.5734 10.5 11.4159 10.5 11.1009 10.5H8.40086C8.08583 10.5 7.92831 10.5 7.80799 10.5817C7.70215 10.6537 7.61609 10.7684 7.56217 10.9095C7.50086 11.0699 7.50086 11.28 7.50086 11.7ZM18.9359 15.1875C18.9359 16.9479 20.363 18.375 22.1234 18.375C23.8838 18.375 25.3109 16.9479 25.3109 15.1875C25.3109 13.4271 23.8838 12 22.1234 12C20.363 12 18.9359 13.4271 18.9359 15.1875ZM16.3492 21.5463C15.9429 21.8404 15.7023 22.3545 15.757 22.8844C15.7865 23.17 15.8384 23.3927 15.9298 23.5891C16.116 23.989 16.4129 24.3141 16.7782 24.5178C17.1934 24.7494 17.737 24.7494 18.8242 24.7494H25.4244C26.5116 24.7494 27.0552 24.7494 27.4704 24.5178C27.8357 24.3141 28.1326 23.989 28.3188 23.5891C28.4102 23.3927 28.4621 23.1701 28.4916 22.8845C28.5463 22.3547 28.3057 21.8406 27.8994 21.5465C26.2434 20.3475 24.2583 19.6494 22.1242 19.6494C19.9902 19.6494 18.0052 20.3474 16.3492 21.5463Z" fill="white"/>
</svg>
