<svg width="36" height="36" viewBox="0 0 36 36" fill="none" xmlns="http://www.w3.org/2000/svg">
<path fill-rule="evenodd" clip-rule="evenodd" d="M27.1195 6H8.8839C8.08206 5.99999 7.41275 5.99997 6.86598 6.04465C6.29571 6.09124 5.76031 6.19198 5.25403 6.44995C4.47726 6.84573 3.84573 7.47726 3.44995 8.25403C3.19198 8.76032 3.09124 9.29571 3.04464 9.86598C2.99997 10.4128 2.99998 11.082 3 11.8839V24.1178C2.99998 24.9197 2.99997 25.589 3.04464 26.1358C3.09124 26.706 3.19198 27.2414 3.44995 27.7477C3.84573 28.5245 4.47726 29.156 5.25403 29.5518C5.76031 29.8098 6.29571 29.9105 6.86598 29.9571C7.41275 30.0018 8.08204 30.0018 8.8839 30.0017H27.1194C27.9213 30.0018 28.5906 30.0018 29.1374 29.9571C29.7076 29.9105 30.243 29.8098 30.7493 29.5518C31.5261 29.156 32.1576 28.5245 32.5534 27.7477C32.8114 27.2414 32.9121 26.706 32.9587 26.1358C33.0034 25.589 33.0034 24.9197 33.0033 24.1179V11.8839C33.0034 11.0821 33.0034 10.4127 32.9587 9.86598C32.9121 9.29571 32.8114 8.76032 32.5534 8.25403C32.1576 7.47726 31.5261 6.84573 30.7493 6.44995C30.243 6.19198 29.7076 6.09124 29.1374 6.04465C28.5906 5.99997 27.9213 5.99999 27.1195 6ZM28.954 8.28891C29.385 8.32412 29.5911 8.38699 29.727 8.45626C30.0801 8.63616 30.3672 8.92322 30.5471 9.2763C30.6164 9.41225 30.6792 9.61833 30.7144 10.0493C30.7507 10.4935 30.7516 11.0703 30.7516 11.9296V24.0722C30.7516 24.9315 30.7507 25.5082 30.7144 25.9524C30.6792 26.3834 30.6164 26.5895 30.5471 26.7254C30.3672 27.0785 30.0801 27.3656 29.727 27.5455C29.5911 27.6147 29.385 27.6776 28.954 27.7128C28.5098 27.7491 27.9331 27.75 27.0738 27.75H8.92958C8.07027 27.75 7.4935 27.7491 7.04934 27.7128C6.61833 27.6776 6.41224 27.6147 6.2763 27.5455C5.92322 27.3656 5.63616 27.0785 5.45626 26.7254C5.38699 26.5895 5.32412 26.3834 5.2889 25.9524C5.25261 25.5082 5.25174 24.9315 5.25174 24.0722V11.9296C5.25174 11.0703 5.25261 10.4935 5.2889 10.0493C5.32412 9.61833 5.38699 9.41225 5.45626 9.2763C5.63616 8.92322 5.92322 8.63616 6.2763 8.45626C6.41224 8.38699 6.61833 8.32412 7.04934 8.28891C7.49351 8.25262 8.07028 8.25174 8.92958 8.25174H27.0738C27.9331 8.25174 28.5098 8.25262 28.954 8.28891ZM28.5016 11.7018V24.2999C28.5016 24.7203 28.5016 24.9305 28.4198 25.091C28.3479 25.2323 28.233 25.3471 28.0918 25.4191C27.9313 25.5009 27.7211 25.5009 27.3007 25.5009H25.2023C24.7819 25.5009 24.5718 25.5009 24.4112 25.4191C24.27 25.3471 24.1551 25.2323 24.0832 25.091C24.0014 24.9305 24.0014 24.7203 24.0014 24.2999V11.7018C24.0014 11.2814 24.0014 11.0713 24.0832 10.9107C24.1551 10.7695 24.27 10.6546 24.4112 10.5827C24.5718 10.5009 24.7819 10.5009 25.2023 10.5009H27.3007C27.7211 10.5009 27.9313 10.5009 28.0918 10.5827C28.233 10.6546 28.3479 10.7695 28.4198 10.9107C28.5016 11.0713 28.5016 11.2814 28.5016 11.7018ZM17.0645 15.1884C17.0645 16.9488 15.6373 18.3759 13.8768 18.3759C12.1163 18.3759 10.6891 16.9488 10.6891 15.1884C10.6891 13.428 12.1163 12.0009 13.8768 12.0009C15.6373 12.0009 17.0645 13.428 17.0645 15.1884ZM19.6513 21.5472C20.0576 21.8413 20.2982 22.3554 20.2435 22.8852C20.2141 23.1709 20.1621 23.3936 20.0707 23.59C19.8846 23.9899 19.5876 24.3149 19.2223 24.5187C18.807 24.7503 18.2634 24.7503 17.1761 24.7503H10.5756C9.48835 24.7503 8.94473 24.7503 8.52945 24.5187C8.16417 24.3149 7.86718 23.9899 7.68106 23.59C7.58963 23.3936 7.5377 23.1709 7.50822 22.8854C7.45351 22.3556 7.69413 21.8415 8.1004 21.5473C9.75652 20.3484 11.7418 19.6503 13.876 19.6503C16.0101 19.6503 17.9953 20.3483 19.6513 21.5472Z" fill="white"/>
</svg>
