<svg width="36" height="36" viewBox="0 0 36 36" fill="none" xmlns="http://www.w3.org/2000/svg">
<path fill-rule="evenodd" clip-rule="evenodd" d="M25.9221 6H10.0779C9.06781 5.99999 8.24174 5.99998 7.5704 6.05483C6.87551 6.1116 6.24791 6.23271 5.6618 6.53134C4.74451 6.99873 3.99873 7.74451 3.53134 8.6618C3.23271 9.24791 3.1116 9.87551 3.05483 10.5704C2.99998 11.2417 2.99999 12.0678 3 13.0779V22.9221C2.99999 23.9322 2.99998 24.7583 3.05483 25.4296C3.1116 26.1245 3.23271 26.7521 3.53134 27.3382C3.99873 28.2555 4.74451 29.0013 5.6618 29.4687C6.24791 29.7673 6.87551 29.8884 7.5704 29.9452C8.24173 30 9.06778 30 10.0778 30H25.9222C26.9322 30 27.7583 30 28.4296 29.9452C29.1245 29.8884 29.7521 29.7673 30.3382 29.4687C31.2555 29.0013 32.0013 28.2555 32.4687 27.3382C32.7673 26.7521 32.8884 26.1245 32.9452 25.4296C33 24.7583 33 23.9322 33 22.9222V13.0778C33 12.0678 33 11.2417 32.9452 10.5704C32.8884 9.87551 32.7673 9.24791 32.4687 8.6618C32.0013 7.74451 31.2555 6.99873 30.3382 6.53134C29.7521 6.23271 29.1245 6.1116 28.4296 6.05483C27.7583 5.99998 26.9322 5.99999 25.9221 6ZM21.7503 14.25C21.7503 16.3211 20.0714 18 18.0003 18C15.9292 18 14.2503 16.3211 14.2503 14.25C14.2503 12.1789 15.9292 10.5 18.0003 10.5C20.0714 10.5 21.7503 12.1789 21.7503 14.25ZM24.7944 21.7316C25.2723 22.0777 25.5554 22.6825 25.4911 23.3058C25.4564 23.6419 25.3953 23.9039 25.2877 24.135C25.0688 24.6054 24.7194 24.9878 24.2897 25.2275C23.8011 25.5 23.1616 25.5 21.8826 25.5H14.1177C12.8386 25.5 12.1991 25.5 11.7106 25.2275C11.2809 24.9878 10.9315 24.6054 10.7125 24.135C10.605 23.9039 10.5439 23.6419 10.5092 23.306C10.4448 22.6827 10.7279 22.0779 11.2058 21.7318C13.1541 20.3213 15.4895 19.5 18.0002 19.5C20.5108 19.5 22.8462 20.3212 24.7944 21.7316Z" fill="white"/>
</svg>
