<svg width="36" height="36" viewBox="0 0 36 36" fill="none" xmlns="http://www.w3.org/2000/svg">
<path fill-rule="evenodd" clip-rule="evenodd" d="M8.76241 6H27.2376C28.0432 5.99999 28.7081 5.99998 29.2496 6.04423C29.8121 6.09018 30.3291 6.18881 30.8147 6.43623C31.5678 6.81994 32.1801 7.43222 32.5638 8.1853C32.8112 8.67089 32.9098 9.18788 32.9558 9.75036C33 10.2919 33 10.9568 33 11.7624V24.2376C33 25.0432 33 25.7081 32.9558 26.2496C32.9098 26.8121 32.8112 27.3291 32.5638 27.8147C32.1801 28.5678 31.5678 29.1801 30.8147 29.5638C30.3291 29.8112 29.8121 29.9098 29.2496 29.9558C28.7081 30 28.0432 30 27.2376 30H8.76238C7.95678 30 7.29194 30 6.75036 29.9558C6.18788 29.9098 5.67089 29.8112 5.1853 29.5638C4.43222 29.1801 3.81994 28.5678 3.43623 27.8147C3.18881 27.3291 3.09018 26.8121 3.04423 26.2496C2.99998 25.7081 2.99999 25.0432 3 24.2376V11.7624C2.99999 10.9568 2.99998 10.2919 3.04423 9.75036C3.09018 9.18788 3.18881 8.67089 3.43623 8.1853C3.81994 7.43222 4.43222 6.81994 5.1853 6.43623C5.67089 6.18881 6.18788 6.09018 6.75036 6.04423C7.29194 5.99998 7.95679 5.99999 8.76241 6ZM6.91322 8.03758C6.47442 8.07344 6.24993 8.13842 6.09329 8.21824C5.71653 8.41021 5.41021 8.71653 5.21824 9.09329C5.13842 9.24993 5.07344 9.47442 5.03758 9.91322C5.00078 10.3637 5 10.9465 5 11.8037V17H17V8H8.80371C7.94648 8 7.3637 8.00078 6.91322 8.03758ZM19 8V17H31V11.8037C31 10.9465 30.9992 10.3637 30.9624 9.91322C30.9266 9.47442 30.8616 9.24993 30.7818 9.09329C30.5898 8.71653 30.2835 8.41021 29.9067 8.21824C29.7501 8.13842 29.5256 8.07344 29.0868 8.03758C28.6363 8.00078 28.0535 8 27.1963 8H19ZM31 19H19V28H27.1963C28.0535 28 28.6363 27.9992 29.0868 27.9624C29.5256 27.9266 29.7501 27.8616 29.9067 27.7818C30.2835 27.5898 30.5898 27.2835 30.7818 26.9067C30.8616 26.7501 30.9266 26.5256 30.9624 26.0868C30.9992 25.6363 31 25.0535 31 24.1963V19ZM17 28V19H5V24.1963C5 25.0535 5.00078 25.6363 5.03758 26.0868C5.07344 26.5256 5.13842 26.7501 5.21824 26.9067C5.41021 27.2835 5.71653 27.5898 6.09329 27.7818C6.24993 27.8616 6.47442 27.9266 6.91322 27.9624C7.3637 27.9992 7.94648 28 8.80371 28H17Z" fill="white"/>
</svg>
