<svg width="36" height="36" viewBox="0 0 36 36" fill="none" xmlns="http://www.w3.org/2000/svg">
<path d="M12.1387 12.6562C12.2399 17.8602 14.5125 20.0641 16.3125 20.5186V12.6562H19.2148V17.1445C20.9923 16.9514 22.8592 14.906 23.4893 12.6562H26.3926C25.9089 15.4287 23.8834 17.4736 22.4434 18.3145C23.8833 18.9962 26.1898 20.7802 27.0674 24.0068H23.8721C23.1858 21.8482 21.4759 20.1784 19.2148 19.9512V24.0068H18.8662C12.7125 24.0068 9.20288 19.7464 9.05664 12.6562H12.1387Z" fill="white"/>
<path fill-rule="evenodd" clip-rule="evenodd" d="M18.54 4.35938C24.6494 4.35938 27.7046 4.35945 29.6025 6.27637C31.5002 8.19333 31.5 11.279 31.5 17.4492V18.54C31.5 24.7103 31.5004 27.796 29.6025 29.7129C27.7046 31.6298 24.6494 31.6289 18.54 31.6289H17.46C11.3506 31.6289 8.29542 31.6298 6.39746 29.7129C4.49957 27.796 4.5 24.7103 4.5 18.54V17.4492C4.5 11.279 4.4998 8.19333 6.39746 6.27637C8.29542 4.35945 11.3506 4.35938 17.46 4.35938H18.54ZM17.54 6.35938C12.336 6.35938 9.73396 6.35958 8.11719 7.99512C6.5004 9.63088 6.5 12.2639 6.5 17.5293V18.46C6.5 23.7252 6.50045 26.3574 8.11719 27.9932C9.73395 29.6289 12.3357 29.6289 17.54 29.6289H18.46C23.6643 29.6289 26.266 29.6289 27.8828 27.9932C29.4995 26.3574 29.5 23.7252 29.5 18.46V17.5293C29.5 12.2639 29.4996 9.63088 27.8828 7.99512C26.266 6.35959 23.664 6.35938 18.46 6.35938H17.54Z" fill="white"/>
</svg>
