<svg width="36" height="36" viewBox="0 0 36 36" fill="none" xmlns="http://www.w3.org/2000/svg">
<path d="M4 19.7854V16.2177C4 14.7176 5.21607 13.5016 6.71617 13.5016C7.85328 13.5016 8.93866 13.0264 9.70994 12.1908L13.3333 8.26555C14.63 6.86074 15.2784 6.15834 15.8392 6.09837C16.3255 6.04637 16.8065 6.23447 17.1286 6.60247C17.5 7.02696 17.5 7.98287 17.5 9.89468V26.1085C17.5 28.0203 17.5 28.9762 17.1286 29.4007C16.8065 29.7687 16.3255 29.9568 15.8392 29.9048C15.2784 29.8448 14.63 29.1424 13.3333 27.7376L9.70994 23.8123C8.93866 22.9768 7.85328 22.5016 6.71617 22.5016C5.21607 22.5016 4 21.2855 4 19.7854Z" fill="white"/>
<path fill-rule="evenodd" clip-rule="evenodd" d="M22.3231 12.0155C22.7296 11.6417 23.3622 11.6681 23.736 12.0746C24.4585 12.8602 25.0277 13.7884 25.4147 14.8043C25.8017 15.8201 26 16.9063 26 18.0016C26 19.0968 25.8017 20.183 25.4147 21.1989C25.0277 22.2147 24.4585 23.1429 23.736 23.9285C23.3622 24.335 22.7296 24.3615 22.3231 23.9876C21.9166 23.6138 21.8901 22.9811 22.264 22.5746C22.8096 21.9814 23.2464 21.2726 23.5457 20.4869C23.8451 19.7011 24 18.8564 24 18.0016C24 17.1468 23.8451 16.3021 23.5457 15.5163C23.2464 14.7306 22.8096 14.0218 22.264 13.4285C21.8901 13.022 21.9166 12.3894 22.3231 12.0155Z" fill="white"/>
</svg>
