<svg width="36" height="36" viewBox="0 0 36 36" fill="none" xmlns="http://www.w3.org/2000/svg">
<path fill-rule="evenodd" clip-rule="evenodd" d="M15.7329 5.10404C16.543 5.01742 17.3446 5.33081 17.8811 5.94396C18.2965 6.41871 18.4021 7.05807 18.4498 7.60373C18.5 8.17856 18.5 8.93141 18.5 9.84543V26.1577C18.5 27.0718 18.5 27.8246 18.4498 28.3994C18.4021 28.9451 18.2965 29.5845 17.8811 30.0592C17.3446 30.6724 16.543 30.9858 15.7329 30.8991C15.1056 30.8321 14.5944 30.4338 14.1893 30.0652C13.7624 29.6769 13.2518 29.1237 12.6319 28.4521L8.97514 24.4906C8.39316 23.8602 7.57418 23.5016 6.71617 23.5016C4.66378 23.5016 3 21.8378 3 19.7854V16.2178C3 14.1654 4.66378 12.5016 6.71617 12.5016C7.57418 12.5016 8.39316 12.143 8.97513 11.5125L12.6319 7.55109C13.2518 6.87945 13.7624 6.32624 14.1893 5.93795C14.5944 5.56935 15.1056 5.17112 15.7329 5.10404ZM15.9639 7.09108C15.9503 7.09856 15.8264 7.15242 15.5351 7.41736C15.181 7.73951 14.7298 8.227 14.0681 8.94384L10.4447 12.8691C9.48415 13.9097 8.13238 14.5016 6.71617 14.5016C5.76835 14.5016 5 15.2699 5 16.2178V19.7854C5 20.7332 5.76835 21.5016 6.71617 21.5016C8.13238 21.5016 9.48415 22.0934 10.4447 23.1341L14.0681 27.0593C14.7298 27.7762 15.181 28.2637 15.5351 28.5858C15.8264 28.8507 15.9503 28.9046 15.9639 28.9121C16.1138 28.9226 16.2606 28.8652 16.3636 28.7558C16.3686 28.7411 16.4231 28.6174 16.4574 28.2252C16.4991 27.7483 16.5 27.084 16.5 26.1085V9.89469C16.5 8.91913 16.4991 8.25485 16.4574 7.77794C16.4231 7.38573 16.3686 7.26209 16.3636 7.24734C16.2606 7.13798 16.1138 7.0806 15.9639 7.09108Z" fill="white"/>
<path fill-rule="evenodd" clip-rule="evenodd" d="M22.3231 12.0155C22.7296 11.6417 23.3622 11.6681 23.736 12.0746C24.4585 12.8602 25.0277 13.7884 25.4147 14.8043C25.8017 15.8201 26 16.9063 26 18.0016C26 19.0968 25.8017 20.183 25.4147 21.1989C25.0277 22.2147 24.4585 23.1429 23.736 23.9285C23.3622 24.335 22.7296 24.3615 22.3231 23.9876C21.9166 23.6138 21.8901 22.9812 22.264 22.5746C22.8096 21.9814 23.2464 21.2726 23.5457 20.4869C23.8451 19.7011 24 18.8564 24 18.0016C24 17.1468 23.8451 16.3021 23.5457 15.5163C23.2464 14.7306 22.8096 14.0218 22.264 13.4285C21.8901 13.022 21.9166 12.3894 22.3231 12.0155Z" fill="white"/>
<path fill-rule="evenodd" clip-rule="evenodd" d="M27.2871 7.80029C27.6744 7.40658 28.3076 7.4014 28.7013 7.78871C30.0631 9.12837 31.1442 10.7197 31.8821 12.4722C32.62 14.2247 33 16.1037 33 18.0016C33 19.8995 32.62 21.7785 31.8821 23.531C31.1442 25.2835 30.0631 26.8748 28.7013 28.2145C28.3076 28.6018 27.6744 28.5966 27.2871 28.2029C26.8998 27.8092 26.905 27.176 27.2987 26.7887C28.4732 25.6333 29.4041 24.2624 30.0388 22.7549C30.6735 21.2474 31 19.6323 31 18.0016C31 16.3709 30.6735 14.7558 30.0388 13.2483C29.4041 11.7408 28.4732 10.3699 27.2987 9.21446C26.905 8.82714 26.8998 8.194 27.2871 7.80029Z" fill="white"/>
</svg>
