<svg width="36" height="36" viewBox="0 0 36 36" fill="none" xmlns="http://www.w3.org/2000/svg">
<path fill-rule="evenodd" clip-rule="evenodd" d="M15.7329 5.10404C16.543 5.01742 17.3446 5.33081 17.8811 5.94396C18.2965 6.41871 18.4021 7.05807 18.4498 7.60373C18.5 8.17856 18.5 8.93141 18.5 9.84543V26.1577C18.5 27.0718 18.5 27.8246 18.4498 28.3994C18.4021 28.9451 18.2965 29.5845 17.8811 30.0592C17.3446 30.6724 16.543 30.9858 15.7329 30.8991C15.1056 30.8321 14.5944 30.4338 14.1893 30.0652C13.7624 29.6769 13.2518 29.1237 12.6319 28.4521L8.97514 24.4906C8.39316 23.8602 7.57418 23.5016 6.71617 23.5016C4.66378 23.5016 3 21.8378 3 19.7854V16.2178C3 14.1654 4.66378 12.5016 6.71617 12.5016C7.57418 12.5016 8.39316 12.143 8.97513 11.5125L12.6319 7.55109C13.2518 6.87945 13.7624 6.32624 14.1893 5.93795C14.5944 5.56935 15.1056 5.17112 15.7329 5.10404ZM15.9639 7.09108C15.9503 7.09856 15.8264 7.15242 15.5351 7.41736C15.181 7.73951 14.7298 8.227 14.0681 8.94384L10.4447 12.8691C9.48415 13.9097 8.13238 14.5016 6.71617 14.5016C5.76835 14.5016 5 15.2699 5 16.2178V19.7854C5 20.7332 5.76835 21.5016 6.71617 21.5016C8.13238 21.5016 9.48415 22.0934 10.4447 23.1341L14.0681 27.0593C14.7298 27.7762 15.181 28.2637 15.5351 28.5858C15.8264 28.8507 15.9503 28.9046 15.9639 28.9121C16.1138 28.9226 16.2606 28.8652 16.3636 28.7558C16.3686 28.7411 16.4231 28.6174 16.4574 28.2252C16.4991 27.7483 16.5 27.084 16.5 26.1085V9.89469C16.5 8.91913 16.4991 8.25485 16.4574 7.77794C16.4231 7.38573 16.3686 7.26209 16.3636 7.24734C16.2606 7.13798 16.1138 7.0806 15.9639 7.09108Z" fill="white"/>
<path fill-rule="evenodd" clip-rule="evenodd" d="M21.2929 12.7945C21.6834 12.404 22.3166 12.404 22.7071 12.7945L26.5 16.5874L30.2929 12.7945C30.6834 12.404 31.3166 12.404 31.7071 12.7945C32.0976 13.185 32.0976 13.8182 31.7071 14.2087L27.9142 18.0016L31.7071 21.7945C32.0976 22.185 32.0976 22.8182 31.7071 23.2087C31.3166 23.5992 30.6834 23.5992 30.2929 23.2087L26.5 19.4158L22.7071 23.2087C22.3166 23.5992 21.6834 23.5992 21.2929 23.2087C20.9024 22.8182 20.9024 22.185 21.2929 21.7945L25.0858 18.0016L21.2929 14.2087C20.9024 13.8182 20.9024 13.185 21.2929 12.7945Z" fill="white"/>
</svg>
