<svg width="36" height="36" viewBox="0 0 36 36" fill="none" xmlns="http://www.w3.org/2000/svg">
<path fill-rule="evenodd" clip-rule="evenodd" d="M9.9575 6H26.0375C27.0515 5.99999 27.8732 5.99998 28.5394 6.05441C29.2266 6.11056 29.8359 6.22956 30.4015 6.51772C31.2952 6.97312 32.0219 7.69978 32.4773 8.59355C32.7655 9.1591 32.8845 9.76841 32.9406 10.4556C32.995 11.1218 32.995 11.9435 32.995 12.9575V23.0408C32.995 24.0548 32.995 24.8765 32.9406 25.5427C32.8845 26.2298 32.7655 26.8391 32.4773 27.4047C32.0219 28.2985 31.2952 29.0251 30.4015 29.4805C29.8359 29.7687 29.2266 29.8877 28.5394 29.9438C27.8732 29.9983 27.0516 29.9983 26.0375 29.9982H9.95748C8.94347 29.9983 8.12178 29.9983 7.45558 29.9438C6.76842 29.8877 6.1591 29.7687 5.59355 29.4805C4.69978 29.0251 3.97312 28.2985 3.51772 27.4047C3.22956 26.8391 3.11056 26.2298 3.05441 25.5427C2.99998 24.8765 2.99999 24.0548 3 23.0407V12.9575C2.99999 11.9435 2.99998 11.1218 3.05441 10.4556C3.11056 9.76842 3.22956 9.1591 3.51772 8.59355C3.97312 7.69978 4.69978 6.97312 5.59355 6.51772C6.1591 6.22956 6.76841 6.11056 7.45558 6.05441C8.12178 5.99998 8.94348 5.99999 9.9575 6ZM7.61844 8.04777C7.05496 8.09381 6.73814 8.17917 6.50153 8.29973C5.98408 8.56338 5.56338 8.98408 5.29973 9.50153C5.17917 9.73814 5.09381 10.055 5.04777 10.6184C5.00078 11.1936 5 11.9334 5 13V22.9982C5 24.0648 5.00078 24.8046 5.04777 25.3798C5.09381 25.9433 5.17917 26.2601 5.29973 26.4967C5.56338 27.0142 5.98408 27.4349 6.50153 27.6985C6.73814 27.8191 7.05496 27.9044 7.61844 27.9505C8.1936 27.9975 8.93341 27.9982 10 27.9982H25.995C27.0616 27.9982 27.8014 27.9975 28.3766 27.9505C28.9401 27.9044 29.2569 27.8191 29.4935 27.6985C30.0109 27.4349 30.4316 27.0142 30.6953 26.4967C30.8159 26.2601 30.9012 25.9433 30.9473 25.3798C30.9942 24.8046 30.995 24.0648 30.995 22.9982V13C30.995 11.9334 30.9942 11.1936 30.9473 10.6184C30.9012 10.055 30.8159 9.73814 30.6953 9.50153C30.4316 8.98408 30.0109 8.56338 29.4935 8.29973C29.2569 8.17917 28.9401 8.09381 28.3766 8.04777C27.8014 8.00078 27.0616 8 25.995 8H10C8.9334 8 8.19359 8.00078 7.61844 8.04777ZM7.53125 16.1027C7.53125 15.5504 7.97897 15.1027 8.53125 15.1027H12.3602C13.2417 15.1027 13.9681 15.5681 14.4397 16.12C14.7829 16.5217 15.1926 16.8637 15.6527 17.13C16.3632 17.5413 17.169 17.7577 17.9891 17.7577C18.8092 17.7577 19.6149 17.5413 20.3255 17.13C20.7856 16.8637 21.1953 16.5217 21.5385 16.12C22.01 15.5681 22.7365 15.1027 23.618 15.1027H27.4468C27.9991 15.1027 28.4468 15.5504 28.4468 16.1027C28.4468 16.655 27.9991 17.1027 27.4468 17.1027H23.618C23.468 17.1027 23.2574 17.187 23.059 17.4192C22.5694 17.9923 21.9845 18.4806 21.3274 18.8609C20.3126 19.4483 19.1612 19.7577 17.9891 19.7577C16.8169 19.7577 15.6656 19.4483 14.6508 18.8609C13.9936 18.4806 13.4088 17.9923 12.9192 17.4192C12.7207 17.187 12.5101 17.1027 12.3602 17.1027H8.53125C7.97897 17.1027 7.53125 16.655 7.53125 16.1027ZM8.53125 10.5518C7.97897 10.5518 7.53125 10.9996 7.53125 11.5518C7.53125 12.1041 7.97897 12.5518 8.53125 12.5518H27.4468C27.9991 12.5518 28.4468 12.1041 28.4468 11.5518C28.4468 10.9996 27.9991 10.5518 27.4468 10.5518H8.53125Z" fill="white"/>
</svg>
