<svg width="36" height="36" viewBox="0 0 36 36" fill="none" xmlns="http://www.w3.org/2000/svg">
<path fill-rule="evenodd" clip-rule="evenodd" d="M16.701 8.75C17.2784 7.75 18.7217 7.75 19.2991 8.75L28.3924 24.5C28.9697 25.5 28.248 26.75 27.0933 26.75H8.90678C7.75208 26.75 7.03039 25.5 7.60774 24.5L16.701 8.75ZM10.2058 24.5L18 11L25.7943 24.5H10.2058Z" fill="white"/>
<path fill-rule="evenodd" clip-rule="evenodd" d="M14.7524 7.625C16.1958 5.125 19.8042 5.125 21.2476 7.625L30.3408 23.375C31.7842 25.875 29.98 29 27.0933 29H8.90671C6.01996 29 4.21575 25.875 5.65912 23.375L14.7524 7.625ZM19.9485 8.375L29.0418 24.125C29.9078 25.625 28.8253 27.5 27.0933 27.5H8.90671C7.17467 27.5 6.09213 25.625 6.95816 24.125L16.0514 8.375C16.9175 6.875 19.0825 6.875 19.9485 8.375Z" fill="white"/>
</svg>
