<svg width="36" height="36" viewBox="0 0 36 36" fill="none" xmlns="http://www.w3.org/2000/svg">
<path fill-rule="evenodd" clip-rule="evenodd" d="M9.375 3C6.68261 3 4.5 5.18261 4.5 7.875V28.125C4.5 30.8174 6.68261 33 9.375 33H26.625C29.3174 33 31.5 30.8174 31.5 28.125V7.875C31.5 5.18261 29.3174 3 26.625 3H9.375ZM10.5 10.5C11.3284 10.5 12 9.82843 12 9C12 8.17157 11.3284 7.5 10.5 7.5C9.67157 7.5 9 8.17157 9 9C9 9.82843 9.67157 10.5 10.5 10.5ZM19.125 8C18.5727 8 18.125 8.44772 18.125 9C18.125 9.55228 18.5727 10 19.125 10H25.875C26.4273 10 26.875 9.55228 26.875 9C26.875 8.44772 26.4273 8 25.875 8H19.125ZM12.25 19.875C12.25 16.6994 14.8244 14.125 18 14.125C21.1756 14.125 23.75 16.6994 23.75 19.875C23.75 20.0068 23.7456 20.1376 23.7368 20.2672L23.6374 20.3126C22.8647 20.6656 22.1328 21 20.9997 21C19.4997 21 18.7497 20.625 17.9997 20.25C17.2497 19.875 16.4997 19.5 14.9997 19.5C13.6694 19.5 12.9289 19.795 12.2553 20.1233C12.2518 20.041 12.25 19.9582 12.25 19.875ZM10.3148 20.8816C10.272 20.5521 10.25 20.2161 10.25 19.875C10.25 15.5948 13.7198 12.125 18 12.125C22.1881 12.125 25.6003 15.447 25.7452 19.5998C25.786 19.5929 25.8274 19.5862 25.8693 19.58C25.8729 19.6779 25.8747 19.7762 25.8747 19.875C25.8747 24.2242 22.3489 27.75 17.9997 27.75C13.9995 27.75 10.6958 24.7674 10.1914 20.9047C10.2333 20.8974 10.2744 20.8896 10.3148 20.8816Z" fill="white"/>
</svg>
