<svg width="36" height="36" viewBox="0 0 36 36" fill="none" xmlns="http://www.w3.org/2000/svg">
<path fill-rule="evenodd" clip-rule="evenodd" d="M11.4575 3H24.5411C25.5551 2.99999 26.3768 2.99998 27.043 3.05441C27.7302 3.11056 28.3395 3.22956 28.9051 3.51772C29.7988 3.97312 30.5255 4.69978 30.9809 5.59355C31.2691 6.1591 31.3881 6.76842 31.4442 7.45558C31.4986 8.12178 31.4986 8.94346 31.4986 9.95748V26.0414C31.4986 27.0554 31.4986 27.8771 31.4442 28.5433C31.3881 29.2305 31.2691 29.8398 30.9809 30.4053C30.5255 31.2991 29.7988 32.0258 28.9051 32.4812C28.3395 32.7693 27.7302 32.8883 27.043 32.9445C26.3768 32.9989 25.5552 32.9989 24.5411 32.9989H11.4575C10.4435 32.9989 9.62178 32.9989 8.95558 32.9445C8.26842 32.8883 7.6591 32.7693 7.09355 32.4812C6.19978 32.0258 5.47312 31.2991 5.01772 30.4053C4.72956 29.8398 4.61056 29.2305 4.55441 28.5433C4.49998 27.8771 4.49999 27.0554 4.5 26.0414V9.9575C4.49999 8.94347 4.49998 8.12178 4.55441 7.45558C4.61056 6.76841 4.72956 6.1591 5.01772 5.59355C5.47312 4.69978 6.19978 3.97312 7.09355 3.51772C7.6591 3.22956 8.26841 3.11056 8.95558 3.05441C9.62178 2.99998 10.4435 2.99999 11.4575 3ZM9.11844 5.04777C8.55496 5.09381 8.23814 5.17917 8.00153 5.29973C7.48408 5.56338 7.06338 5.98408 6.79973 6.50153C6.67917 6.73814 6.59381 7.05496 6.54777 7.61844C6.50078 8.19359 6.5 8.9334 6.5 10V25.9989C6.5 27.0655 6.50078 27.8053 6.54777 28.3804C6.59381 28.9439 6.67917 29.2607 6.79973 29.4974C7.06338 30.0148 7.48408 30.4355 8.00153 30.6991C8.23814 30.8197 8.55496 30.9051 9.11844 30.9511C9.6936 30.9981 10.4334 30.9989 11.5 30.9989H24.4986C25.5652 30.9989 26.305 30.9981 26.8802 30.9511C27.4437 30.9051 27.7605 30.8197 27.9971 30.6991C28.5145 30.4355 28.9352 30.0148 29.1989 29.4974C29.3194 29.2607 29.4048 28.9439 29.4508 28.3804C29.4978 27.8053 29.4986 27.0655 29.4986 25.9989V10C29.4986 8.9334 29.4978 8.19359 29.4508 7.61844C29.4048 7.05496 29.3194 6.73814 29.1989 6.50153C28.9352 5.98408 28.5145 5.56338 27.9971 5.29973C27.7605 5.17917 27.4437 5.09381 26.8802 5.04777C26.305 5.00078 25.5652 5 24.4986 5H11.5C10.4334 5 9.69359 5.00078 9.11844 5.04777ZM11.9383 8.91868C11.9383 9.75454 11.26 10.4321 10.4233 10.4321C9.58652 10.4321 8.9082 9.75454 8.9082 8.91868C8.9082 8.08283 9.58652 7.40523 10.4233 7.40523C11.26 7.40523 11.9383 8.08283 11.9383 8.91868ZM19.1367 7.91877C18.5844 7.91877 18.1367 8.36649 18.1367 8.91877C18.1367 9.47106 18.5844 9.91877 19.1367 9.91877H25.9545C26.5068 9.91877 26.9545 9.47106 26.9545 8.91877C26.9545 8.36649 26.5068 7.91877 25.9545 7.91877H19.1367ZM17.9994 14.0803C14.7854 14.0803 12.1816 16.6828 12.1816 19.8908C12.1816 19.9769 12.1835 20.0625 12.1872 20.1476C12.8711 19.8139 13.6198 19.5126 14.9718 19.5126C16.4869 19.5126 17.2444 19.891 18.002 20.2693C18.7595 20.6477 19.517 21.0261 21.0321 21.0261C22.1766 21.0261 22.9158 20.6887 23.6963 20.3325C23.7321 20.3161 23.7681 20.2997 23.8042 20.2833C23.8128 20.1536 23.8172 20.0227 23.8172 19.8908C23.8172 16.6828 21.2135 14.0803 17.9994 14.0803ZM25.8125 19.6154C25.6673 15.4284 22.2239 12.0803 17.9994 12.0803C13.6828 12.0803 10.1816 15.5762 10.1816 19.8908C10.1816 20.2346 10.2039 20.5731 10.247 20.9051C10.2039 20.9138 10.16 20.9221 10.1152 20.9299C10.6247 24.8272 13.9615 27.8366 18.002 27.8366C22.3949 27.8366 25.9561 24.2792 25.9561 19.891C25.9561 19.7913 25.9542 19.6921 25.9506 19.5933C25.9039 19.6003 25.8579 19.6077 25.8125 19.6154Z" fill="white"/>
</svg>
