<svg width="36" height="36" viewBox="0 0 36 36" fill="none" xmlns="http://www.w3.org/2000/svg">
<path fill-rule="evenodd" clip-rule="evenodd" d="M11.6582 4.92909C11.9233 3.79899 12.9314 3 14.0922 3H20.7669C21.9277 3 22.9358 3.79898 23.2009 4.92909L24.4381 10.2038L24.394 10.2142C25.985 11.6464 27.1344 13.5618 27.6129 15.7295H29.1239C29.331 15.7295 29.4989 15.8974 29.4989 16.1045V19.8949C29.4989 20.102 29.331 20.2699 29.1239 20.2699H27.6131C27.1347 22.4374 25.9857 24.3528 24.3949 25.7851L24.4381 25.7953L23.2009 31.07C22.9358 32.2001 21.9277 32.9991 20.7669 32.9991H14.0922C12.9314 32.9991 11.9233 32.2001 11.6582 31.07L10.421 25.7953L10.4644 25.7851C8.33738 23.8698 7 21.0908 7 18.0001C7 14.9089 8.33779 12.1295 10.4654 10.2142L10.421 10.2038L11.6582 4.92909ZM12.8515 8.5998C14.2333 7.92172 15.787 7.54102 17.4297 7.54102C19.0723 7.54102 20.6258 7.92165 22.0076 8.59962L21.2537 5.38582C21.2007 5.1598 20.9991 5 20.7669 5H14.0922C13.86 5 13.6584 5.1598 13.6054 5.38582L12.8515 8.5998ZM12.8518 27.4005L13.6054 30.6133C13.6584 30.8393 13.86 30.9991 14.0922 30.9991H20.7669C20.9991 30.9991 21.2007 30.8393 21.2537 30.6133L22.0073 27.4007C20.6256 28.0786 19.0722 28.4592 17.4297 28.4592C15.7871 28.4592 14.2336 28.0785 12.8518 27.4005ZM9 18.0001C9 13.3253 12.777 9.54102 17.4297 9.54102C22.0824 9.54102 25.8594 13.3253 25.8594 18.0001C25.8594 22.6749 22.0824 26.4592 17.4297 26.4592C12.777 26.4592 9 22.6749 9 18.0001ZM18.4297 12.7021C18.4297 12.1499 17.982 11.7021 17.4297 11.7021C16.8774 11.7021 16.4297 12.1499 16.4297 12.7021V18.756C16.4297 19.0898 16.5962 19.4016 16.8737 19.5871L20.2676 21.8573C20.7266 22.1644 21.3477 22.0412 21.6547 21.5821C21.9618 21.1231 21.8386 20.502 21.3795 20.1949L18.4297 18.2218V12.7021Z" fill="white"/>
</svg>
