<svg width="36" height="36" viewBox="0 0 36 36" fill="none" xmlns="http://www.w3.org/2000/svg">
<path fill-rule="evenodd" clip-rule="evenodd" d="M11.6328 5.02377C11.9118 3.83802 12.9699 3 14.188 3H20.812C22.0301 3 23.0882 3.83802 23.3672 5.02377L24.5951 10.2423L24.5799 10.2459C26.1531 11.6831 27.2873 13.5926 27.7584 15.75H29.125C29.3321 15.75 29.5 15.9179 29.5 16.125V19.875C29.5 20.0821 29.3321 20.25 29.125 20.25H27.7584C27.2873 22.4074 26.1531 24.3169 24.5799 25.7541L24.5951 25.7577L23.3672 30.9762C23.0882 32.162 22.0301 33 20.812 33H14.188C12.9699 33 11.9118 32.162 11.6328 30.9762L10.4049 25.7577L10.4201 25.7541C8.3184 23.8341 7 21.071 7 18C7 14.929 8.3184 12.1659 10.4201 10.2459L10.4049 10.2423L11.6328 5.02377ZM9.25 18C9.25 13.4437 12.9437 9.75 17.5 9.75C22.0563 9.75 25.75 13.4437 25.75 18C25.75 22.5563 22.0563 26.25 17.5 26.25C12.9437 26.25 9.25 22.5563 9.25 18ZM18.5 12.75C18.5 12.1977 18.0523 11.75 17.5 11.75C16.9477 11.75 16.5 12.1977 16.5 12.75V18.75C16.5 19.0844 16.6671 19.3966 16.9453 19.5821L20.3203 21.8321C20.7798 22.1384 21.4007 22.0142 21.7071 21.5547C22.0134 21.0952 21.8892 20.4743 21.4297 20.1679L18.5 18.2148V12.75Z" fill="white"/>
</svg>
