<svg width="36" height="36" viewBox="0 0 36 36" fill="none" xmlns="http://www.w3.org/2000/svg">
<path fill-rule="evenodd" clip-rule="evenodd" d="M15.1433 3C14.9811 2.99997 14.8084 2.99994 14.6584 3.01142C14.488 3.02448 14.2742 3.05616 14.0502 3.15862C13.7447 3.2984 13.4858 3.52317 13.3046 3.80611C13.1718 4.01351 13.1104 4.22075 13.0736 4.38766C13.0412 4.53454 13.017 4.70555 12.9943 4.86608L12.5911 7.71418C12.2409 7.78812 11.9103 7.89646 11.5935 8.05787C10.6998 8.51327 9.97312 9.23992 9.51772 10.1337C9.22956 10.6992 9.11056 11.3086 9.05441 11.9957C8.99998 12.6619 8.99999 13.4836 9 14.4977V21.5008C8.99999 22.5148 8.99998 23.3365 9.05441 24.0027C9.11056 24.6899 9.22956 25.2992 9.51772 25.8648C9.97312 26.7585 10.6998 27.4852 11.5935 27.9406C11.9103 28.102 12.2408 28.2103 12.591 28.2842L12.9943 31.1331C13.017 31.2936 13.0412 31.4647 13.0736 31.6116C13.1104 31.7785 13.1717 31.9857 13.3046 32.1931C13.4858 32.4761 13.7447 32.7008 14.0502 32.8406C14.2742 32.9431 14.488 32.9748 14.6584 32.9878C14.8084 32.9993 14.9811 32.9993 15.1433 32.9992H20.6103C20.7724 32.9993 20.9451 32.9993 21.0951 32.9878C21.2656 32.9748 21.4793 32.9431 21.7033 32.8406C22.0089 32.7008 22.2677 32.4761 22.4489 32.1931C22.5818 31.9857 22.6431 31.7785 22.6799 31.6116C22.7123 31.4647 22.7365 31.2936 22.7592 31.1331L23.1627 28.2833C23.5113 28.2094 23.8404 28.1013 24.1558 27.9406C25.0496 27.4852 25.7762 26.7585 26.2316 25.8648C26.5198 25.2992 26.6388 24.6899 26.6949 24.0027C26.7494 23.3365 26.7494 22.5148 26.7494 21.5008V16.4651C26.7886 16.479 26.8309 16.4866 26.875 16.4866H27.6245C27.8316 16.4866 27.9995 16.3188 27.9995 16.1116V12.3213C27.9995 12.1142 27.8316 11.9463 27.6245 11.9463H26.875C26.8096 11.9463 26.7482 11.963 26.6947 11.9924C26.6384 11.3066 26.5193 10.6983 26.2316 10.1337C25.7762 9.23992 25.0496 8.51327 24.1558 8.05787C23.8403 7.89712 23.5112 7.78901 23.1626 7.71509L22.7592 4.86618C22.7365 4.70562 22.7123 4.53457 22.6799 4.38766C22.6431 4.22075 22.5818 4.01351 22.4489 3.80611C22.2677 3.52317 22.0089 3.2984 21.7033 3.15862C21.4793 3.05616 21.2656 3.02448 21.0951 3.01142C20.9451 2.99994 20.7724 2.99997 20.6103 3H15.1433ZM15.9575 7.54015C15.4743 7.54014 15.0347 7.54014 14.6348 7.54603L14.971 5.17197C14.9804 5.10518 14.9883 5.04936 14.9956 5.00036C15.0452 5.00002 15.1015 5.00001 15.169 5.00001H20.5845C20.652 5.00001 20.7084 5.00002 20.7579 5.00036C20.7652 5.04936 20.7731 5.10518 20.7826 5.17197L21.1187 7.54609C20.7177 7.54014 20.2768 7.54014 19.7919 7.54015H15.9575ZM14.971 30.8273L14.6347 28.4524C15.0346 28.4583 15.4742 28.4583 15.9575 28.4583H19.7919C20.2768 28.4583 20.7178 28.4583 21.1188 28.4524L20.7826 30.8273C20.7731 30.8941 20.7652 30.9499 20.7579 30.9989C20.7084 30.9992 20.652 30.9992 20.5845 30.9992H15.169C15.1015 30.9992 15.0452 30.9992 14.9956 30.9989C14.9883 30.9499 14.9804 30.8941 14.971 30.8273ZM13.6184 9.58792C13.055 9.63396 12.7381 9.71932 12.5015 9.83988C11.9841 10.1035 11.5634 10.5242 11.2997 11.0417C11.1792 11.2783 11.0938 11.5951 11.0478 12.1586C11.0008 12.7337 11 13.4735 11 14.5401V21.4583C11 22.5249 11.0008 23.2647 11.0478 23.8399C11.0938 24.4033 11.1792 24.7202 11.2997 24.9568C11.5634 25.4742 11.9841 25.8949 12.5015 26.1586C12.7381 26.2791 13.055 26.3645 13.6184 26.4105C14.1936 26.4575 14.9334 26.4583 16 26.4583H19.7494C20.816 26.4583 21.5558 26.4575 22.1309 26.4105C22.6944 26.3645 23.0112 26.2791 23.2478 26.1586C23.7653 25.8949 24.186 25.4742 24.4496 24.9568C24.5702 24.7202 24.6556 24.4033 24.7016 23.8399C24.7486 23.2647 24.7494 22.5249 24.7494 21.4583V14.5401C24.7494 13.4735 24.7486 12.7337 24.7016 12.1586C24.6556 11.5951 24.5702 11.2783 24.4496 11.0417C24.186 10.5242 23.7653 10.1035 23.2478 9.83988C23.0112 9.71932 22.6944 9.63396 22.1309 9.58792C21.5558 9.54093 20.816 9.54015 19.7494 9.54015H16C14.9334 9.54015 14.1936 9.54093 13.6184 9.58792Z" fill="white"/>
</svg>
