<svg width="36" height="36" viewBox="0 0 36 36" fill="none" xmlns="http://www.w3.org/2000/svg">
<path d="M6.91016 29C7.01532 29.7497 7.35379 30.4509 7.87598 31H6C5.44772 31 5 30.5523 5 30C5 29.4477 5.44772 29 6 29H6.91016ZM22.0859 29.7197C22.2623 30.2129 22.5355 30.6441 22.875 31H13.125C13.4644 30.6441 13.7368 30.2135 13.9131 29.7207L14.1699 29H21.8291L22.0859 29.7197ZM17.999 6.125C18.0509 6.125 18.1027 6.1281 18.1533 6.13379C18.1732 6.13603 18.1932 6.13753 18.2129 6.14062C18.2754 6.15043 18.3366 6.16554 18.3965 6.18359C18.4013 6.18506 18.4063 6.18599 18.4111 6.1875C18.4237 6.19145 18.4358 6.19687 18.4482 6.20117C18.4702 6.20877 18.4922 6.21593 18.5137 6.22461C18.5219 6.22794 18.5299 6.23187 18.5381 6.23535C18.5587 6.24418 18.5794 6.25289 18.5996 6.2627L18.6133 6.26953C18.6225 6.27415 18.6315 6.27936 18.6406 6.28418C18.6597 6.29427 18.6787 6.30447 18.6973 6.31543C18.7113 6.32369 18.7246 6.33306 18.7383 6.3418C18.7518 6.35041 18.7652 6.35909 18.7783 6.36816C19.0109 6.52819 19.1953 6.75862 19.2949 7.03711L26.7949 28.0371C26.9881 28.5782 26.8201 29.1594 26.418 29.5215C26.4106 29.5281 26.403 29.5345 26.3955 29.541C26.3708 29.5623 26.3457 29.583 26.3193 29.6025C26.316 29.605 26.3129 29.6079 26.3096 29.6104C26.2057 29.6861 26.09 29.7494 25.9629 29.7949C25.8988 29.8178 25.8333 29.8337 25.7686 29.8467C25.6978 29.8609 25.6272 29.8701 25.5566 29.873C25.4012 29.8795 25.2482 29.8586 25.1025 29.8145C25.0809 29.8079 25.0593 29.8015 25.0381 29.7939C25.0185 29.787 24.9997 29.7784 24.9805 29.7705C24.9613 29.7626 24.9417 29.7558 24.9229 29.7471C24.8547 29.7156 24.7898 29.6779 24.7275 29.6357C24.7178 29.6291 24.7078 29.6231 24.6982 29.6162C24.563 29.5194 24.4455 29.3971 24.3516 29.2539C24.3479 29.2482 24.3435 29.243 24.3398 29.2373C24.2945 29.1658 24.2559 29.0891 24.2236 29.0078C24.2226 29.0051 24.2208 29.0027 24.2197 29C24.2149 28.9875 24.2096 28.9756 24.2051 28.9629L22.1191 23.125H13.8799L11.7949 28.9629C11.65 29.3683 11.3329 29.6618 10.9561 29.7949C10.9319 29.8035 10.9075 29.8111 10.8828 29.8184C10.8665 29.8231 10.8505 29.8288 10.834 29.833C10.8172 29.8373 10.8001 29.8401 10.7832 29.8438C10.7149 29.8582 10.6456 29.8691 10.5752 29.873C10.4584 29.8797 10.34 29.8692 10.2217 29.8447C10.1599 29.8319 10.0973 29.8168 10.0361 29.7949C9.93997 29.7605 9.85065 29.7153 9.76758 29.6631C9.76023 29.6585 9.75333 29.6532 9.74609 29.6484C9.716 29.6287 9.68638 29.6087 9.6582 29.5869C9.64266 29.5748 9.62822 29.5615 9.61328 29.5488C9.5903 29.5294 9.56743 29.5101 9.5459 29.4893C9.53697 29.4806 9.5282 29.4718 9.51953 29.4629C9.49344 29.4363 9.46904 29.4084 9.44531 29.3799C9.44015 29.3737 9.43473 29.3676 9.42969 29.3613C9.14029 29.0009 9.03837 28.504 9.20508 28.0371L16.7051 7.03711L16.7197 7L16.7441 6.9375C16.7991 6.81483 16.8707 6.70262 16.9561 6.60352C17.2121 6.3058 17.5904 6.12529 17.999 6.125ZM7.90039 25H6C5.44772 25 5 24.5523 5 24C5 23.4477 5.44772 23 6 23H8.61426L7.90039 25ZM30 23C30.5523 23 31 23.4477 31 24C31 24.5523 30.5523 25 30 25H28.0986L27.3848 23H30ZM14.8623 20.375H21.1377L17.999 11.5889L14.8623 20.375ZM10.043 19H6C5.44772 19 5 18.5523 5 18C5 17.4477 5.44772 17 6 17H10.7578L10.043 19ZM30 17C30.5523 17 31 17.4477 31 18C31 18.5523 30.5523 19 30 19H25.9561L25.2412 17H30ZM12.1855 13H6C5.44772 13 5 12.5523 5 12C5 11.4477 5.44772 11 6 11H12.9004L12.1855 13ZM30 11C30.5523 11 31 11.4477 31 12C31 12.5523 30.5523 13 30 13H23.8135L23.0986 11H30ZM15.377 5C15.0968 5.29366 14.8626 5.63548 14.6914 6.01758L14.6729 6.05762L14.6572 6.09863L14.6172 6.19824L14.6006 6.23926L14.3291 7H6C5.44772 7 5 6.55228 5 6C5 5.44772 5.44772 5 6 5H15.377Z" fill="white"/>
</svg>
