<svg width="36" height="36" viewBox="0 0 36 36" fill="none" xmlns="http://www.w3.org/2000/svg">
<path fill-rule="evenodd" clip-rule="evenodd" d="M18.9719 3.55001C19.3585 3.1556 19.9916 3.14925 20.386 3.53585C22.322 5.43347 23.8589 7.68736 24.9078 10.1694C25.9567 12.6514 26.4968 15.3124 26.4968 18.0002C26.4968 20.688 25.9567 23.3489 24.9078 25.831C23.8589 28.313 22.322 30.5669 20.386 32.4645C19.9916 32.8511 19.3585 32.8448 18.9719 32.4503C18.5853 32.0559 18.5916 31.4228 18.986 31.0362C20.7345 29.3224 22.1204 27.289 23.0655 25.0525C24.0106 22.816 24.4968 20.4197 24.4968 18.0002C24.4968 15.5807 24.0106 13.1844 23.0655 10.9479C22.1204 8.71139 20.7345 6.67793 18.986 4.96415C18.5916 4.57756 18.5853 3.94443 18.9719 3.55001ZM9.88362 13.57C10.3185 13.2296 10.947 13.3061 11.2875 13.741C12.2421 14.9605 12.7615 16.4574 12.7615 17.9998C12.7615 19.5423 12.2421 21.0392 11.2875 22.2587C10.947 22.6935 10.3185 22.7701 9.88361 22.4296C9.44874 22.0892 9.37219 21.4607 9.71263 21.0258C10.3941 20.1554 10.7615 19.0917 10.7615 17.9998C10.7615 16.908 10.3941 15.8443 9.71263 14.9739C9.37219 14.539 9.44874 13.9105 9.88362 13.57ZM15.2613 8.56041C14.8669 8.17382 14.2337 8.18016 13.8472 8.57458C13.4606 8.96899 13.4669 9.60213 13.8613 9.98872C14.9367 11.0427 15.7886 12.2929 16.3694 13.6674C16.9502 15.0418 17.2489 16.5142 17.2489 18.0006C17.2489 19.4871 16.9502 20.9595 16.3694 22.3339C15.7886 23.7084 14.9367 24.9586 13.8613 26.0126C13.4669 26.3992 13.4606 27.0323 13.8472 27.4267C14.2337 27.8211 14.8669 27.8275 15.2613 27.4409C16.5242 26.203 17.5271 24.7324 18.2117 23.1124C18.8963 21.4924 19.2489 19.7554 19.2489 18.0006C19.2489 16.2459 18.8963 14.5089 18.2117 12.8889C17.5271 11.2689 16.5242 9.79826 15.2613 8.56041Z" fill="white"/>
</svg>
