<svg width="36" height="36" viewBox="0 0 36 36" fill="none" xmlns="http://www.w3.org/2000/svg">
<path fill-rule="evenodd" clip-rule="evenodd" d="M9.18236 16.8909C8.15419 18.2803 6.65944 19.3063 4.5 19.3063C3.67157 19.3063 3 18.6379 3 17.8134C3 16.9888 3.67157 16.3204 4.5 16.3204C5.52806 16.3204 6.18956 15.9002 6.76686 15.1201C7.41065 14.2502 7.87444 13.0235 8.37616 11.5492C8.42391 11.4089 8.47221 11.2656 8.52127 11.12C8.94914 9.85025 9.43526 8.40769 10.1262 7.27567C10.9467 5.93154 12.2265 4.75 14.25 4.75C15.5969 4.75 16.5955 5.45148 17.2612 6.39569C17.8844 7.2795 18.2635 8.42615 18.5217 9.59684C19.02 11.8554 19.1832 14.7903 19.3383 17.5806C19.3446 17.693 19.3508 17.8053 19.3571 17.9172C19.5235 20.8983 19.696 23.6882 20.1908 25.7335C20.4387 26.7586 20.7345 27.4442 21.0399 27.8462C21.3001 28.1886 21.5077 28.2641 21.75 28.2641C22.0808 28.2641 22.4924 28.1092 23.0318 27.0049C23.4846 26.0777 23.829 24.882 24.2323 23.4822C24.3127 23.203 24.3954 22.9156 24.4819 22.6207C24.9694 20.9571 25.5731 19.0644 26.569 17.5878C27.6192 16.0308 29.1872 14.8275 31.5 14.8275C32.3284 14.8275 33 15.4959 33 16.3204C33 17.145 32.3284 17.8134 31.5 17.8134C30.4378 17.8134 29.7089 18.2896 29.0599 19.252C28.3565 20.2948 27.8587 21.7612 27.3619 23.4568C27.2883 23.708 27.2143 23.9661 27.1391 24.2283C26.7399 25.6205 26.3083 27.126 25.7299 28.3103C25.0388 29.7253 23.8567 31.25 21.75 31.25C20.3986 31.25 19.364 30.5907 18.6471 29.6472C17.9755 28.7632 17.5593 27.6117 17.2741 26.4324C16.7024 24.0689 16.5234 20.9802 16.3617 18.0828C16.3583 18.0224 16.3549 17.9621 16.3516 17.9018C16.1887 14.9807 16.0367 12.2549 15.5915 10.2372C15.3635 9.20348 15.0892 8.51308 14.8056 8.11097C14.5647 7.76925 14.4031 7.73592 14.25 7.73592C13.6485 7.73592 13.1939 8.00067 12.6902 8.82601C12.1843 9.65477 11.8082 10.7648 11.3506 12.1151C11.3071 12.2436 11.2628 12.3743 11.2176 12.5071C10.7349 13.9254 10.144 15.5914 9.18236 16.8909Z" fill="white"/>
</svg>
