<svg width="36" height="36" viewBox="0 0 36 36" fill="none" xmlns="http://www.w3.org/2000/svg">
<path d="M13.3691 28.5176C13.7156 28.0028 14.4187 27.8638 14.9385 28.207C15.458 28.5503 15.5984 29.246 15.252 29.7607L13.7441 32.001C13.3976 32.5158 12.6946 32.6547 12.1748 32.3115C11.6553 31.9682 11.5149 31.2725 11.8613 30.7578L13.3691 28.5176Z" fill="white"/>
<path d="M20.9102 28.5176C21.2567 28.0029 21.9588 27.8639 22.4785 28.207C22.9983 28.5502 23.1385 29.246 22.792 29.7607L21.2842 32.001C20.9377 32.5158 20.2356 32.6547 19.7158 32.3115C19.1961 31.9683 19.0558 31.2726 19.4023 30.7578L20.9102 28.5176Z" fill="white"/>
<path d="M12.1992 13.5303C13.5565 5.9873 24.8672 5.24091 26.9785 13.4561C35.4166 14.8261 34.2111 24.9898 28.1348 26.6631C28.1154 26.7004 28.0944 26.7377 28.0703 26.7734L26.5625 29.0137C26.216 29.5285 25.5139 29.6674 24.9941 29.3242C24.4744 28.981 24.3342 28.2853 24.6807 27.7705L25.2676 26.8984H20.4463L19.0225 29.0137C18.676 29.5285 17.9729 29.6674 17.4531 29.3242C16.9337 28.9809 16.7932 28.2852 17.1396 27.7705L17.7266 26.8984H12.9053L11.4814 29.0137C11.1349 29.5284 10.4328 29.6674 9.91309 29.3242C9.39338 28.981 9.25312 28.2853 9.59961 27.7705L10.2656 26.7793C7.08081 26.1993 5.03024 23.7797 4.58105 21.1104C3.82725 16.6295 8.42909 12.7836 12.1992 13.5303Z" fill="white"/>
<path d="M10.54 3C13.097 3 15.3572 4.26057 16.7207 6.18848C14.2695 6.74689 12.1026 8.45708 11.3252 11.1934C11.2107 11.5963 10.811 11.8652 10.3887 11.8486C8.20966 11.7631 5.89662 13.0615 4.56836 15.0283C3.58511 13.767 3.0001 12.1855 3 10.4688C3 6.34425 6.37575 3.00023 10.54 3Z" fill="white"/>
</svg>
