<svg width="36" height="36" viewBox="0 0 36 36" fill="none" xmlns="http://www.w3.org/2000/svg">
<path d="M18.0001 3C21.977 3.00458 25.7897 4.58644 28.6017 7.39845C31.4138 10.2105 32.9956 14.0232 33.0002 18C33.0002 20.9668 32.121 23.8673 30.4728 26.334C28.8246 28.8007 26.4812 30.7232 23.7404 31.8585C20.9997 32.9937 17.9839 33.2906 15.0744 32.712C12.1646 32.1332 9.49149 30.7043 7.3937 28.6065C5.29603 26.5088 3.86704 23.8364 3.28823 20.9268C2.70946 18.0171 3.00648 15.0006 4.14175 12.2598C5.27706 9.51889 7.2004 7.17655 9.66714 5.52833C12.1338 3.88017 15.0335 3.00003 18.0001 3ZM24.1662 23.7696C23.5188 26.1444 22.4271 28.3746 20.9503 30.3438C22.7341 29.9153 24.4046 29.1076 25.8468 27.9737C27.2907 26.8385 28.4722 25.4043 29.3097 23.7696H24.1662ZM14.2501 23.7696C14.9898 26.1902 16.2724 28.4101 18.0001 30.2598C19.7285 28.4106 21.0113 26.1905 21.7501 23.7696H14.2501ZM13.6876 14.5381C13.2915 16.8288 13.2915 19.1713 13.6876 21.462H22.3244C22.7205 19.1713 22.7205 16.8288 22.3244 14.5381H13.6876ZM24.6584 14.5381C25.0122 16.8322 25.0122 19.1678 24.6584 21.462H30.2121C30.5317 20.3359 30.6935 19.1706 30.6925 18C30.6935 16.8295 30.5317 15.6642 30.2121 14.5381H24.6584ZM18.0001 5.74024C16.2718 7.58949 14.989 9.80953 14.2501 12.2305H21.7501C21.0105 9.80989 19.7278 7.58995 18.0001 5.74024ZM20.9445 5.6543C22.4217 7.62383 23.5128 9.85519 24.1603 12.2305H29.3019C28.465 10.5966 27.2866 9.16247 25.8439 8.02736C24.4011 6.89225 22.7295 6.08318 20.9445 5.6543Z" fill="white"/>
</svg>
