<svg width="36" height="36" viewBox="0 0 36 36" fill="none" xmlns="http://www.w3.org/2000/svg">
<path fill-rule="evenodd" clip-rule="evenodd" d="M12.7399 3C13.2099 3.16 13.6799 3.45 14.1499 3.86C14.9799 4.59 15.7199 5.65 16.3799 7.03C17.0599 8.46 17.5899 10.1 17.9699 11.97C18.3599 13.92 18.5599 15.97 18.5599 18.11C18.5599 20.25 18.3599 22.29 17.9699 24.24C17.5899 26.11 17.0599 27.76 16.3799 29.18C15.7199 30.56 14.9799 31.62 14.1499 32.35C13.6799 32.77 13.2099 33.06 12.7399 33.22H11.7799C11.6399 33.22 11.4999 33.21 11.3599 33.2C10.9099 33.15 10.4699 33.03 10.0399 32.83C9.5199 32.59 9.0299 32.25 8.5599 31.8C7.6999 30.99 6.9599 29.87 6.3199 28.44C5.7099 27.07 5.2399 25.51 4.9099 23.75C4.5699 21.95 4.3999 20.07 4.3999 18.11C4.3999 16.14 4.5699 14.26 4.9099 12.46C5.2399 10.7 5.7099 9.14 6.3199 7.77C6.9599 6.34 7.6999 5.22 8.5599 4.41C9.0299 3.97 9.5199 3.62 10.0399 3.38C10.4699 3.19 10.9099 3.07 11.3499 3.02C11.4999 3 11.6399 3 11.7799 3H12.7399ZM21.1499 3.86C20.6799 3.45 20.2099 3.16 19.7399 3H16.1199C16.8899 3.83 17.5799 4.89 18.1899 6.17C18.9399 7.74 19.5199 9.55 19.9299 11.57C20.0599 12.21 20.1699 12.86 20.2599 13.51L24.6299 10.49C24.2899 9.22 23.8799 8.07 23.3799 7.03C22.7199 5.65 21.9799 4.59 21.1499 3.86ZM26.7199 10.61L31.3299 13.8C31.2599 13.35 31.1899 12.9 31.1099 12.46C30.7799 10.7 30.3099 9.14 29.6899 7.77C29.0599 6.34 28.3099 5.22 27.4499 4.41C26.9799 3.97 26.4899 3.62 25.9699 3.38C25.5399 3.19 25.0999 3.07 24.6599 3.02C24.5199 3 24.3699 3 24.2299 3H23.1199C23.8899 3.83 24.5799 4.89 25.1899 6.17C25.8199 7.49 26.3299 8.97 26.7199 10.61ZM11.7799 26.48C12.9299 26.48 13.8599 22.73 13.8599 18.11C13.8599 13.48 12.9299 9.74 11.7799 9.74C10.6399 9.74 9.7099 13.48 9.7099 18.11C9.7099 22.73 10.6399 26.48 11.7799 26.48ZM20.5599 18.11C20.5599 17.32 20.5399 16.55 20.4899 15.78L25.0899 12.6C25.4099 14.36 25.5599 16.2 25.5599 18.11C25.5599 18.68 25.5499 19.25 25.5199 19.81L19.9899 24.35C20.3699 22.36 20.5599 20.28 20.5599 18.11ZM19.1699 27.56C19.2599 27.52 19.3399 27.47 19.4199 27.41L25.2499 22.62C25.1699 23.17 25.0799 23.71 24.9699 24.24C24.5899 26.11 24.0599 27.76 23.3799 29.18C22.7199 30.56 21.9799 31.62 21.1499 32.35C20.6799 32.77 20.2099 33.06 19.7399 33.22H16.1199C16.8899 32.38 17.5799 31.32 18.1899 30.05C18.5599 29.27 18.8899 28.44 19.1699 27.56ZM27.2899 22.43C27.1999 23.18 27.0799 23.92 26.9299 24.64C26.5199 26.67 25.9399 28.47 25.1899 30.05C24.5799 31.32 23.8899 32.38 23.1199 33.22H24.2299C24.3699 33.22 24.5099 33.21 24.6599 33.2C25.0999 33.15 25.5399 33.03 25.9699 32.83C26.4899 32.59 26.9799 32.25 27.4499 31.8C28.3099 30.99 29.0599 29.87 29.6899 28.44C30.1499 27.41 30.5299 26.27 30.8299 25.03L27.2899 22.43ZM31.2599 22.86L27.5099 20.11C27.5399 19.45 27.5599 18.78 27.5599 18.11C27.5599 16.49 27.4599 14.93 27.2399 13.41L31.5699 16.4C31.5999 16.96 31.6199 17.53 31.6199 18.11C31.6199 19.75 31.4999 21.33 31.2599 22.86Z" fill="white"/>
</svg>
