<svg width="36" height="36" viewBox="0 0 36 36" fill="none" xmlns="http://www.w3.org/2000/svg">
<path fill-rule="evenodd" clip-rule="evenodd" d="M12 9.05C11.1551 9.05 10.6334 9.70761 10.3623 10.1635C10.0523 10.6847 9.80797 11.3724 9.61623 12.1343C9.2289 13.6736 9 15.7469 9 18C9 20.2531 9.2289 22.3264 9.61623 23.8657C9.80797 24.6276 10.0523 25.3153 10.3623 25.8365C10.6334 26.2924 11.1551 26.95 12 26.95C12.8449 26.95 13.3666 26.2924 13.6377 25.8365C13.9477 25.3153 14.192 24.6276 14.3838 23.8657C14.7711 22.3264 15 20.2531 15 18C15 15.7469 14.7711 13.6736 14.3838 12.1343C14.192 11.3724 13.9477 10.6847 13.6377 10.1635C13.3666 9.70761 12.8449 9.05 12 9.05ZM11 18C11 15.862 11.2191 13.9604 11.5558 12.6224C11.6991 12.0528 11.854 11.625 12 11.3349C12.146 11.625 12.3009 12.0528 12.4442 12.6224C12.7809 13.9604 13 15.862 13 18C13 20.138 12.7809 22.0396 12.4442 23.3776C12.3009 23.9472 12.146 24.375 12 24.6651C11.854 24.375 11.6991 23.9472 11.5558 23.3776C11.2191 22.0396 11 20.138 11 18Z" fill="white"/>
<path fill-rule="evenodd" clip-rule="evenodd" d="M12 32.25C9.70804 32.25 7.96201 30.2449 6.84655 27.7818C5.6896 25.227 5 21.7677 5 18C5 14.2323 5.6896 10.773 6.84655 8.21823C7.96201 5.75506 9.70804 3.75 12 3.75H24C26.292 3.75 28.038 5.75506 29.1534 8.21823C30.1431 10.4036 30.7908 13.2506 30.9574 16.3864C31.0049 16.5445 31.0133 16.7135 30.9795 16.8775C30.9931 17.2481 31 17.6225 31 18C31 21.7677 30.3104 25.227 29.1534 27.7818C28.038 30.2449 26.292 32.25 24 32.25H12ZM7 18C7 14.4497 7.65374 11.284 8.66845 9.04329C9.72465 6.71095 10.9786 5.75 12 5.75C13.0214 5.75 14.2753 6.71095 15.3316 9.04329C16.3463 11.284 17 14.4497 17 18C17 21.5503 16.3463 24.716 15.3316 26.9567C14.2753 29.289 13.0214 30.25 12 30.25C10.9786 30.25 9.72465 29.289 8.66845 26.9567C7.65374 24.716 7 21.5503 7 18ZM27.3316 9.04329C28.0132 10.5485 28.532 12.4713 28.7991 14.6476L24.2767 11.5684C23.9814 10.3386 23.6027 9.21023 23.1534 8.21823C22.7406 7.3066 22.2414 6.45771 21.6601 5.75H24C25.0214 5.75 26.2753 6.71095 27.3316 9.04329ZM21.3316 9.04329C21.6953 9.84649 22.0126 10.7686 22.2701 11.7846L18.7555 14.1779C18.4592 11.9187 17.9049 9.87767 17.1534 8.21823C16.7406 7.3066 16.2414 6.45771 15.6601 5.75H18C19.0214 5.75 20.2753 6.71095 21.3316 9.04329ZM22.698 13.9129L18.9611 16.4576C18.9868 16.9648 19 17.4795 19 18C19 19.9414 18.8169 21.8009 18.4811 23.497L22.8614 20.336C22.8761 20.3253 22.8911 20.3151 22.9062 20.3054C22.9677 19.5599 23 18.7895 23 18C23 16.5627 22.8928 15.1883 22.698 13.9129ZM22.5328 23.0395L17.8351 26.4296C17.778 26.4708 17.7181 26.5051 17.6563 26.5327C17.5004 26.9692 17.3325 27.3863 17.1534 27.7818C16.7406 28.6934 16.2414 29.5423 15.6601 30.25H18C19.0214 30.25 20.2753 29.289 21.3316 26.9567C21.8311 25.8537 22.2431 24.5264 22.5328 23.0395ZM24.5433 23.1718L27.8717 25.5744C27.7062 26.0665 27.5255 26.5285 27.3316 26.9567C26.2753 29.289 25.0214 30.25 24 30.25H21.6601C22.2414 29.5423 22.7406 28.6934 23.1534 27.7818C23.7521 26.4598 24.2257 24.8956 24.5433 23.1718ZM28.4349 23.5144L24.8576 20.9321C24.9511 19.9841 25 19.003 25 18C25 16.7332 24.922 15.5013 24.7746 14.327L28.9888 17.1963C28.9962 17.4618 29 17.7298 29 18C29 19.9908 28.7944 21.8607 28.4349 23.5144Z" fill="white"/>
</svg>
