<svg width="36" height="36" viewBox="0 0 36 36" fill="none" xmlns="http://www.w3.org/2000/svg">
<path fill-rule="evenodd" clip-rule="evenodd" d="M7.33319 9.89317C8.93657 8.82183 10.8216 8.25 12.75 8.25C13.0484 8.25 13.3345 8.36853 13.5455 8.5795C13.7565 8.79048 13.875 9.07663 13.875 9.375L13.875 12.375H16.125V9.375C16.125 8.75368 16.6287 8.25 17.25 8.25H31.875C32.4963 8.25 33 8.75368 33 9.375V15C33 15.5023 32.667 15.9437 32.1841 16.0817L22.772 18.7709C22.6366 18.8096 22.4566 18.9698 22.4162 19.2754C22.2215 20.7515 21.6903 22.1694 20.8568 23.4168C19.7855 25.0202 18.2627 26.2699 16.4812 27.0078C14.6996 27.7458 12.7392 27.9389 10.8479 27.5627C8.95656 27.1865 7.21927 26.2579 5.85571 24.8943C4.49215 23.5307 3.56355 21.7934 3.18735 19.9021C2.81114 18.0108 3.00422 16.0504 3.74218 14.2688C4.48013 12.4873 5.72982 10.9645 7.33319 9.89317Z" fill="white"/>
</svg>
