<svg width="36" height="36" viewBox="0 0 36 36" fill="none" xmlns="http://www.w3.org/2000/svg">
<path fill-rule="evenodd" clip-rule="evenodd" d="M8.7587 6C7.95374 5.99999 7.28937 5.99998 6.74817 6.04419C6.18608 6.09012 5.66937 6.18868 5.18404 6.43598C4.43139 6.81947 3.81947 7.43139 3.43597 8.18404C3.18868 8.66937 3.09012 9.18608 3.04419 9.74818C2.99998 10.2894 2.99999 10.9537 3 11.7587V24.2395C2.99999 25.0445 2.99998 25.7089 3.04419 26.2501C3.09012 26.8122 3.18868 27.3289 3.43597 27.8142C3.81947 28.5669 4.43139 29.1788 5.18404 29.5623C5.66937 29.8096 6.18608 29.9081 6.74817 29.954C7.28936 29.9983 7.95372 29.9983 8.75868 29.9982H27.2402C28.0452 29.9983 28.7095 29.9983 29.2507 29.954C29.8128 29.9081 30.3295 29.8096 30.8148 29.5623C31.5675 29.1788 32.1794 28.5669 32.5629 27.8142C32.8102 27.3289 32.9088 26.8122 32.9547 26.2501C32.9989 25.7089 32.9989 25.0445 32.9989 24.2395V11.7588C32.9989 10.9538 32.9989 10.2894 32.9547 9.74818C32.9088 9.18608 32.8102 8.66937 32.5629 8.18404C32.1794 7.43139 31.5675 6.81947 30.8148 6.43598C30.3295 6.18868 29.8128 6.09012 29.2507 6.04419C28.7095 5.99998 28.0452 5.99999 27.2402 6H8.7587ZM6.09202 8.21799C6.24842 8.1383 6.47262 8.07337 6.91104 8.03755C7.36113 8.00078 7.94342 8 8.8 8H27.1989C28.0555 8 28.6377 8.00078 29.0878 8.03755C29.5263 8.07337 29.7505 8.1383 29.9069 8.21799C30.2832 8.40974 30.5891 8.7157 30.7809 9.09202C30.8606 9.24842 30.9255 9.47262 30.9613 9.91104C30.9981 10.3611 30.9989 10.9434 30.9989 11.8V24.1982C30.9989 25.0548 30.9981 25.6371 30.9613 26.0872C30.9255 26.5256 30.8606 26.7498 30.7809 26.9062C30.5891 27.2825 30.2832 27.5885 29.9069 27.7803C29.7505 27.8599 29.5263 27.9249 29.0878 27.9607C28.6377 27.9975 28.0555 27.9982 27.1989 27.9982H8.8C7.94342 27.9982 7.36113 27.9975 6.91104 27.9607C6.47262 27.9249 6.24842 27.8599 6.09202 27.7803C5.7157 27.5885 5.40973 27.2825 5.21799 26.9062C5.1383 26.7498 5.07337 26.5256 5.03755 26.0872C5.00078 25.6371 5 25.0548 5 24.1982V11.8C5 10.9434 5.00078 10.3611 5.03755 9.91104C5.07337 9.47262 5.1383 9.24842 5.21799 9.09202C5.40973 8.7157 5.7157 8.40974 6.09202 8.21799ZM22.2928 10.5519C21.4589 10.5518 20.6593 10.8836 20.0703 11.474L18.047 13.5022L12.4707 19.1185C11.8091 19.7849 11.3291 20.6096 11.0765 21.514L10.2263 24.5576C10.1295 24.9044 10.2265 25.2765 10.4804 25.5318C10.7343 25.7871 11.1058 25.8862 11.4532 25.7913L14.461 24.9689C15.3854 24.7162 16.2277 24.2264 16.9044 23.548L24.5131 15.9208C25.1023 15.3301 25.4321 14.5285 25.4321 13.6963C25.4321 11.9657 24.0297 10.5519 22.2928 10.5519ZM21.4862 12.8865C21.7 12.6723 21.9902 12.5518 22.2928 12.5519C22.9188 12.5519 23.4321 13.064 23.4321 13.6963C23.4321 14.001 23.3109 14.2941 23.0972 14.5083L22.0654 15.5426C21.8771 15.2247 21.6441 14.8867 21.3763 14.6182C21.1074 14.3487 20.7684 14.1143 20.4501 13.9251L21.4862 12.8865ZM20.5617 16.9617L20.591 17.0205L15.4885 22.1355C15.0578 22.5672 14.5218 22.8789 13.9336 23.0397L12.6271 23.3969L13.0027 22.0521C13.1635 21.4765 13.4689 20.9517 13.89 20.5277L18.9792 15.4019L19.0324 15.4285C19.4186 15.6236 19.7743 15.8442 19.9604 16.0308C20.1467 16.2174 20.367 16.5743 20.5617 16.9617Z" fill="white"/>
</svg>
