<svg width="36" height="36" viewBox="0 0 36 36" fill="none" xmlns="http://www.w3.org/2000/svg">
<path fill-rule="evenodd" clip-rule="evenodd" d="M7.125 6C4.84683 6 3 7.84683 3 10.125V25.875C3 28.1532 4.84683 30 7.125 30H28.875C31.1532 30 33 28.1532 33 25.875V10.125C33 7.84683 31.1532 6 28.875 6H7.125ZM22.2536 10.625C21.4258 10.625 20.6318 10.9539 20.0465 11.5392L18.0428 13.5429L18.0411 13.5446L12.5238 19.0881C11.8606 19.7545 11.3792 20.5797 11.1257 21.485L10.287 24.4804C10.19 24.8271 10.2868 25.1993 10.5405 25.4547C10.7943 25.7102 11.1657 25.8095 11.5131 25.7148L14.4852 24.9042C15.4086 24.6524 16.2503 24.1639 16.9271 23.4871L24.4607 15.9534C25.0461 15.3681 25.3749 14.5742 25.3749 13.7463C25.3749 12.0225 23.9775 10.625 22.2536 10.625ZM21.4607 12.9534C21.671 12.7431 21.9562 12.625 22.2536 12.625C22.8729 12.625 23.3749 13.127 23.3749 13.7463C23.3749 14.0437 23.2568 14.3289 23.0465 14.5392L22.0308 15.5549C21.8449 15.2427 21.6154 14.9115 21.3518 14.6479C21.0882 14.3844 20.7572 14.155 20.4451 13.969L21.4607 12.9534ZM20.5315 16.9797L20.5563 17.0294L15.5129 22.0729C15.0822 22.5036 14.5466 22.8144 13.9589 22.9747L12.6885 23.3211L13.0517 22.0243C13.213 21.4482 13.5193 20.923 13.9413 20.499L18.972 15.4444L19.0201 15.4684C19.4028 15.6613 19.7543 15.8789 19.9376 16.0622C20.1209 16.2455 20.3386 16.597 20.5315 16.9797Z" fill="white"/>
</svg>
