<svg width="36" height="36" viewBox="0 0 36 36" fill="none" xmlns="http://www.w3.org/2000/svg">
<path fill-rule="evenodd" clip-rule="evenodd" d="M17.999 8C13.0082 8 8.22513 9.94967 4.70113 13.4148C4.30734 13.8021 3.67419 13.7967 3.28697 13.4029C2.89974 13.0092 2.90507 12.376 3.29887 11.9888C7.20043 8.15234 12.4885 6 17.999 6C23.5095 6 28.7977 8.15234 32.6992 11.9888C33.093 12.376 33.0983 13.0091 32.7111 13.4029C32.3239 13.7967 31.6908 13.8021 31.297 13.4148C27.773 9.94966 22.9899 8 17.999 8ZM11.1623 19.7683C12.9727 17.9881 15.4317 16.9851 17.9991 16.9851C19.2887 16.9851 20.551 17.2381 21.7174 17.7157C22.4967 17.2905 23.3389 16.9659 24.2264 16.7596C22.3763 15.6088 20.2196 14.9851 17.9991 14.9851C14.912 14.9851 11.948 16.1908 9.76005 18.3423C9.36625 18.7295 9.36092 19.3626 9.74815 19.7564C10.1354 20.1502 10.7685 20.1555 11.1623 19.7683ZM17.2987 22.5774C16.7845 23.7818 16.5 25.1077 16.5 26.5C16.5 27.6917 16.7085 28.8347 17.0909 29.8946C15.4264 29.4943 14.1916 28.0181 14.1916 26.258C14.1916 24.4253 15.5302 22.9006 17.2987 22.5774Z" fill="white"/>
<path d="M26.5 21C25.3956 21 24.5 21.8953 24.5 23V25H28.5V23C28.5 21.8956 27.6047 21 26.5 21Z" fill="white"/>
<path fill-rule="evenodd" clip-rule="evenodd" d="M26.5 35C31.1944 35 35 31.1944 35 26.5C35 21.8056 31.1944 18 26.5 18C21.8056 18 18 21.8056 18 26.5C18 31.1944 21.8056 35 26.5 35ZM29.8333 23.2V24.8C30.7539 24.8 31.5 25.5163 31.5 26.4V30.4C31.5 31.2837 30.7539 32 29.8333 32H23.1667C22.2461 32 21.5 31.2837 21.5 30.4V26.4C21.5 25.5163 22.2461 24.8 23.1667 24.8V23.2C23.1667 21.4327 24.6594 20 26.5 20C28.3409 20 29.8333 21.4331 29.8333 23.2Z" fill="white"/>
</svg>
