<svg width="36" height="36" viewBox="0 0 36 36" fill="none" xmlns="http://www.w3.org/2000/svg">
<path d="M29.7494 4.29283C30.14 3.90243 30.773 3.90235 31.1635 4.29283C31.5537 4.68333 31.5538 5.31644 31.1635 5.70689L5.70743 31.1629C5.31699 31.5533 4.68389 31.5532 4.29337 31.1629C3.90287 30.7724 3.90292 30.1394 4.29337 29.7489L17.0063 17.035C14.8045 17.2584 12.7379 18.2194 11.1625 19.7684C10.7687 20.1554 10.1356 20.1494 9.74845 19.7557C9.36148 19.3619 9.36645 18.7288 9.76017 18.3417C11.9481 16.1903 14.9124 14.9853 17.9994 14.9852C18.3387 14.9852 18.6767 15.0004 19.0121 15.0292L24.7924 9.24888C22.6468 8.43191 20.3462 7.99986 17.9994 7.99986C13.0085 7.99991 8.22562 9.94976 4.70157 13.4149C4.30777 13.8021 3.67472 13.796 3.28751 13.4022C2.90036 13.0084 2.90545 12.3753 3.29923 11.9881C7.20081 8.1519 12.489 5.99991 17.9994 5.99986C20.8931 5.99986 23.7251 6.59456 26.3275 7.71373L29.7494 4.29283Z" fill="white"/>
<path d="M17.9994 22.5135C20.1025 22.5135 21.807 24.1898 21.807 26.2577C21.807 28.3256 20.1025 30.0018 17.9994 30.0018C15.8966 30.0016 14.1928 28.3254 14.1928 26.2577C14.1928 25.9325 14.2347 25.6171 14.3139 25.3163L16.9799 22.6493C17.3043 22.5608 17.6463 22.5136 17.9994 22.5135Z" fill="white"/>
<path d="M23.3598 16.2694C24.4117 16.8055 25.3844 17.5017 26.2387 18.3417C26.6323 18.7287 26.6381 19.3619 26.2514 19.7557C25.8642 20.1495 25.2301 20.1556 24.8363 19.7684C23.9714 18.918 22.9589 18.2444 21.8568 17.7733L23.3598 16.2694Z" fill="white"/>
<path d="M29.9291 9.70103C30.9119 10.3782 31.8402 11.1421 32.7006 11.9881C33.0942 12.3752 33.0992 13.0084 32.7123 13.4022C32.3252 13.7959 31.6921 13.8018 31.2983 13.4149C30.4326 12.5637 29.4907 11.8033 28.4887 11.1415L29.9291 9.70103Z" fill="white"/>
</svg>
