<svg width="36" height="36" viewBox="0 0 36 36" fill="none" xmlns="http://www.w3.org/2000/svg">
<path fill-rule="evenodd" clip-rule="evenodd" d="M4.70112 13.4149C8.22521 9.94967 13.0084 8 17.9994 8C22.9904 8 27.7736 9.94967 31.2977 13.4149C31.6915 13.8021 32.3246 13.7967 32.7119 13.4029C33.0991 13.0091 33.0937 12.376 32.6999 11.9888C28.7983 8.15234 23.51 6 17.9994 6C12.4888 6 7.20053 8.15234 3.29888 11.9888C2.90508 12.376 2.89974 13.0091 3.28696 13.4029C3.67418 13.7967 4.30732 13.8021 4.70112 13.4149ZM17.9995 16.9851C15.432 16.9851 12.9729 17.9881 11.1625 19.7683C10.7687 20.1555 10.1355 20.1502 9.74831 19.7564C9.36109 19.3626 9.36643 18.7295 9.76023 18.3422C11.9483 16.1908 14.9123 14.9851 17.9995 14.9851C21.0867 14.9851 24.0507 16.1908 26.2388 18.3422C26.6326 18.7295 26.6379 19.3626 26.2507 19.7564C25.8635 20.1502 25.2303 20.1555 24.8365 19.7683C23.0261 17.9881 20.567 16.9851 17.9995 16.9851ZM21.8069 26.258C21.8069 28.3258 20.1026 30.0017 17.9996 30.0017C15.8965 30.0017 14.1922 28.3258 14.1922 26.258C14.1922 24.1901 15.8965 22.5143 17.9996 22.5143C20.1026 22.5143 21.8069 24.1901 21.8069 26.258Z" fill="white"/>
</svg>
