<svg width="36" height="36" viewBox="0 0 36 36" fill="none" xmlns="http://www.w3.org/2000/svg">
<path d="M17.8752 23.04C19.9465 23.0401 21.6252 24.7187 21.6252 26.79C21.6252 28.8613 19.9465 30.5399 17.8752 30.54C15.8039 30.54 14.1253 28.8614 14.1253 26.79C14.1253 24.7187 15.8039 23.04 17.8752 23.04ZM17.8752 15.5C20.9251 15.5 23.8504 16.7115 26.007 18.8682C26.3973 19.2586 26.3972 19.8917 26.007 20.2822C25.6165 20.6727 24.9835 20.6727 24.593 20.2822C22.8114 18.5007 20.3947 17.5 17.8752 17.5C15.3557 17.5 12.9391 18.5007 11.1575 20.2822C10.767 20.6727 10.134 20.6727 9.74348 20.2822C9.35315 19.8917 9.35302 19.2586 9.74348 18.8682C11.9001 16.7115 14.8253 15.5 17.8752 15.5Z" fill="white"/>
</svg>
