<svg width="36" height="36" viewBox="0 0 36 36" fill="none" xmlns="http://www.w3.org/2000/svg">
<path fill-rule="evenodd" clip-rule="evenodd" d="M9.9575 6H21.0263V8H10C8.9334 8 8.19359 8.00078 7.61844 8.04777C7.05496 8.09381 6.73814 8.17917 6.50153 8.29973C5.98408 8.56338 5.56338 8.98408 5.29973 9.50153C5.17917 9.73814 5.09381 10.055 5.04777 10.6184C5.00078 11.1936 5 11.9334 5 13V16.482H17.1403C19.0305 16.482 19.9756 16.482 20.6976 16.8498C21.3326 17.1734 21.8489 17.6897 22.1725 18.3247C22.5403 19.0467 22.5403 19.9918 22.5403 21.882V27.9982H25.9989C27.0655 27.9982 27.8053 27.9975 28.3804 27.9505C28.9439 27.9044 29.2607 27.8191 29.4973 27.6985C30.0148 27.4349 30.4355 27.0142 30.6991 26.4967C30.8197 26.2601 30.9051 25.9433 30.9511 25.3798C30.9981 24.8046 30.9989 24.0648 30.9989 22.9982V17.9991H32.9989V23.0407C32.9989 24.0547 32.9989 24.8764 32.9445 25.5427C32.8883 26.2298 32.7693 26.8391 32.4812 27.4047C32.0258 28.2985 31.2991 29.0251 30.4053 29.4805C29.8398 29.7687 29.2305 29.8877 28.5433 29.9438C27.8771 29.9983 27.0554 29.9983 26.0414 29.9982H9.95747C8.94346 29.9983 8.12177 29.9983 7.45557 29.9438C6.76841 29.8877 6.1591 29.7687 5.59355 29.4805C4.69978 29.0251 3.97312 28.2985 3.51772 27.4047C3.22956 26.8391 3.11056 26.2298 3.05441 25.5427C2.99998 24.8765 2.99999 24.0548 3 23.0407V12.9575C2.99999 11.9435 2.99998 11.1218 3.05441 10.4556C3.11056 9.76842 3.22956 9.1591 3.51772 8.59355C3.97312 7.69978 4.69978 6.97312 5.59355 6.51772C6.1591 6.22956 6.76841 6.11056 7.45558 6.05441C8.12178 5.99998 8.94348 5.99999 9.9575 6ZM23.8114 7C23.8114 6.44772 24.2591 6 24.8114 6H32.0003C32.5526 6 33.0003 6.44772 33.0003 7V14.2063C33.0003 14.7586 32.5526 15.2063 32.0003 15.2063C31.448 15.2063 31.0003 14.7586 31.0003 14.2063V9.41835L24.7626 15.6711C24.3726 16.0621 23.7394 16.0629 23.3484 15.6728C22.9574 15.2828 22.9567 14.6496 23.3467 14.2586L29.5902 8H24.8114C24.2591 8 23.8114 7.55229 23.8114 7Z" fill="white"/>
</svg>
