<svg width="36" height="36" viewBox="0 0 36 36" fill="none" xmlns="http://www.w3.org/2000/svg">
<path fill-rule="evenodd" clip-rule="evenodd" d="M9.9575 6H21.027V8H10C8.9334 8 8.19359 8.00078 7.61844 8.04777C7.05496 8.09381 6.73814 8.17917 6.50153 8.29973C5.98408 8.56338 5.56338 8.98408 5.29973 9.50153C5.17917 9.73814 5.09381 10.055 5.04777 10.6184C5.00078 11.1936 5 11.9334 5 13V16.482H17.1403C19.0305 16.482 19.9756 16.482 20.6976 16.8498C21.3326 17.1734 21.8489 17.6897 22.1725 18.3247C22.5403 19.0467 22.5403 19.9918 22.5403 21.882V27.9982H25.9999C27.0665 27.9982 27.8063 27.9975 28.3815 27.9505C28.945 27.9044 29.2618 27.8191 29.4984 27.6985C30.0158 27.4349 30.4365 27.0142 30.7002 26.4967C30.8208 26.2601 30.9061 25.9433 30.9522 25.3798C30.9991 24.8046 30.9999 24.0648 30.9999 22.9982V17.9991H32.9999V23.0408C32.9999 24.0548 32.9999 24.8765 32.9455 25.5427C32.8894 26.2298 32.7704 26.8391 32.4822 27.4047C32.0268 28.2985 31.3001 29.0251 30.4064 29.4805C29.8408 29.7687 29.2315 29.8877 28.5443 29.9438C27.8781 29.9983 27.0565 29.9983 26.0424 29.9982H9.95747C8.94346 29.9983 8.12177 29.9983 7.45558 29.9438C6.76841 29.8877 6.1591 29.7687 5.59355 29.4805C4.69978 29.0251 3.97312 28.2985 3.51772 27.4047C3.22956 26.8391 3.11056 26.2298 3.05441 25.5427C2.99998 24.8765 2.99999 24.0548 3 23.0407V12.9575C2.99999 11.9435 2.99998 11.1218 3.05441 10.4556C3.11056 9.76842 3.22956 9.1591 3.51772 8.59355C3.97312 7.69978 4.69978 6.97312 5.59355 6.51772C6.1591 6.22956 6.76841 6.11056 7.45558 6.05441C8.12178 5.99998 8.94348 5.99999 9.9575 6ZM33 14.965C33 15.5173 32.5523 15.965 32 15.965H24.0544C23.5021 15.965 23.0544 15.5173 23.0544 14.965V7.00011C23.0544 6.44783 23.5021 6.00011 24.0544 6.00011C24.6067 6.00011 25.0544 6.44783 25.0544 7.00011V12.5466L31.292 6.29386C31.6821 5.90287 32.3153 5.9021 32.7063 6.29215C33.0972 6.6822 33.098 7.31537 32.708 7.70636L26.4645 13.965H32C32.5523 13.965 33 14.4127 33 14.965Z" fill="white"/>
</svg>
