<svg width="36" height="36" viewBox="0 0 36 36" fill="none" xmlns="http://www.w3.org/2000/svg">
<path fill-rule="evenodd" clip-rule="evenodd" d="M26.0424 6C27.0564 5.99999 27.8781 5.99998 28.5443 6.05441C29.2315 6.11056 29.8408 6.22956 30.4064 6.51772C31.3001 6.97312 32.0268 7.69978 32.4822 8.59355C32.7704 9.1591 32.8894 9.76842 32.9455 10.4556C32.9999 11.1218 32.9999 11.9435 32.9999 12.9575V23.0406C32.9999 23.0405 32.9999 23.0406 32.9999 23.0406C32.9999 23.1538 32.9999 23.2648 32.9999 23.3733C32.9993 24.2363 32.9939 24.9508 32.9455 25.5427C32.8894 26.2298 32.7704 26.8391 32.4822 27.4047C32.0268 28.2985 31.3001 29.0251 30.4064 29.4805C29.8408 29.7687 29.2315 29.8877 28.5443 29.9438C27.8781 29.9983 27.0565 29.9983 26.0424 29.9982H9.95748C8.94346 29.9983 8.12178 29.9983 7.45558 29.9438C6.76841 29.8877 6.1591 29.7687 5.59355 29.4805C4.69978 29.0251 3.97312 28.2985 3.51772 27.4047C3.22956 26.8391 3.11056 26.2298 3.05441 25.5427C2.99998 24.8765 2.99999 24.0548 3 23.0408V12.9575C2.99999 11.9435 2.99998 11.1218 3.05441 10.4556C3.11056 9.76841 3.22956 9.1591 3.51772 8.59355C3.97312 7.69978 4.69978 6.97312 5.59355 6.51772C6.1591 6.22956 6.76841 6.11056 7.45558 6.05441C8.12178 5.99998 8.94348 5.99999 9.9575 6H26.0424ZM13.5952 27.9982H10C8.9334 27.9982 8.19359 27.9975 7.61844 27.9505C7.05496 27.9044 6.73814 27.8191 6.50153 27.6985C5.98408 27.4349 5.56338 27.0142 5.29973 26.4967C5.17917 26.2601 5.09381 25.9433 5.04777 25.3798C5.00078 24.8046 5 24.0648 5 22.9982V13C5 11.9334 5.00078 11.1936 5.04777 10.6184C5.09381 10.055 5.17917 9.73814 5.29973 9.50153C5.56338 8.98408 5.98408 8.56338 6.50153 8.29973C6.73814 8.17917 7.05496 8.09381 7.61844 8.04777C8.19359 8.00078 8.9334 8 10 8H25.9999C27.0665 8 27.8063 8.00078 28.3815 8.04777C28.945 8.09381 29.2618 8.17917 29.4984 8.29973C30.0158 8.56338 30.4365 8.98408 30.7002 9.50153C30.8208 9.73814 30.9061 10.055 30.9522 10.6184C30.9991 11.1936 30.9999 11.9334 30.9999 13V16.6197L18.1558 16.6197C17.5593 16.6196 17.0522 16.6196 16.636 16.6536C16.199 16.6893 15.7749 16.7675 15.3697 16.9739C14.7582 17.2855 14.261 17.7827 13.9494 18.3942C13.743 18.7993 13.6649 19.2234 13.6292 19.6604C13.5952 20.0767 13.5952 20.5838 13.5952 21.1803V27.9982ZM30.9999 18.6197V22.9981C30.9999 22.998 30.9999 22.9981 30.9999 22.9981C30.9999 23.9313 30.9993 24.6146 30.9677 25.1561C30.9632 25.2334 30.958 25.3078 30.9522 25.3796C30.9061 25.9431 30.8208 26.2599 30.7002 26.4965C30.4365 27.014 30.0158 27.4347 29.4984 27.6983C29.2618 27.8189 28.945 27.9043 28.3815 27.9503C27.8063 27.9973 27.0665 27.9981 25.9999 27.9981H15.5952V21.2197C15.5952 20.5731 15.596 20.1483 15.6225 19.8233C15.6482 19.51 15.6926 19.3784 15.7315 19.3022C15.8513 19.067 16.0425 18.8758 16.2777 18.7559C16.3539 18.7171 16.4855 18.6726 16.7989 18.647C17.1239 18.6204 17.5487 18.6197 18.1952 18.6197H30.9999Z" fill="white"/>
</svg>
