<svg width="36" height="36" viewBox="0 0 36 36" fill="none" xmlns="http://www.w3.org/2000/svg">
<path fill-rule="evenodd" clip-rule="evenodd" d="M26.0414 6H14.9725V8H25.9989C27.0655 8 27.8053 8.00078 28.3804 8.04777C28.9439 8.09381 29.2607 8.17917 29.4974 8.29973C30.0148 8.56338 30.4355 8.98408 30.6991 9.50153C30.8197 9.73814 30.9051 10.055 30.9511 10.6184C30.9981 11.1936 30.9989 11.9334 30.9989 13V16.482H18.8585C16.9684 16.482 16.0233 16.482 15.3013 16.8498C14.6663 17.1734 14.15 17.6897 13.8264 18.3247C13.4585 19.0467 13.4585 19.9918 13.4585 21.882V27.9982H10C8.9334 27.9982 8.19359 27.9975 7.61844 27.9505C7.05496 27.9044 6.73814 27.8191 6.50153 27.6985C5.98408 27.4349 5.56339 27.0142 5.29973 26.4967C5.17917 26.2601 5.09381 25.9433 5.04777 25.3798C5.00078 24.8046 5 24.0648 5 22.9982V17.9991H3V23.0408C2.99999 24.0548 2.99998 24.8765 3.05441 25.5427C3.11056 26.2298 3.22956 26.8391 3.51772 27.4047C3.97312 28.2985 4.69978 29.0251 5.59355 29.4805C6.1591 29.7687 6.76841 29.8877 7.45558 29.9438C8.12178 29.9983 8.94346 29.9983 9.95748 29.9982H26.0414C27.0554 29.9983 27.8771 29.9983 28.5433 29.9438C29.2305 29.8877 29.8398 29.7687 30.4053 29.4805C31.2991 29.0251 32.0258 28.2985 32.4812 27.4047C32.7693 26.8391 32.8883 26.2298 32.9445 25.5427C32.9989 24.8765 32.9989 24.0548 32.9989 23.0407V12.9575C32.9989 11.9435 32.9989 11.1218 32.9445 10.4556C32.8883 9.76842 32.7693 9.1591 32.4812 8.59355C32.0258 7.69978 31.2991 6.97312 30.4053 6.51772C29.8398 6.22956 29.2305 6.11056 28.5433 6.05441C27.8771 5.99998 27.0554 5.99999 26.0414 6ZM3.00083 14.965C3.00083 15.5173 3.44855 15.965 4.00083 15.965H11.9465C12.4987 15.965 12.9465 15.5173 12.9465 14.965V7.00011C12.9465 6.44783 12.4987 6.00011 11.9465 6.00011C11.3942 6.00011 10.9465 6.44783 10.9465 7.00011V12.5466L4.70879 6.29386C4.31874 5.90287 3.68558 5.9021 3.29458 6.29215C2.90358 6.6822 2.90282 7.31537 3.29287 7.70636L9.53637 13.965H4.00083C3.44855 13.965 3.00083 14.4127 3.00083 14.965Z" fill="white"/>
</svg>
