<svg width="36" height="36" viewBox="0 0 36 36" fill="none" xmlns="http://www.w3.org/2000/svg">
<path d="M19 19.6654H22.2C22.7523 19.6654 23.2 19.2177 23.2 18.6654C23.2 18.1131 22.7523 17.6654 22.2 17.6654H19.8513L23.3365 12.3482C23.6392 11.8863 23.5102 11.2665 23.0483 10.9637C22.5864 10.6609 21.9665 10.7899 21.6638 11.2518L18.0001 16.8413L14.3365 11.2518C14.0337 10.7899 13.4138 10.6609 12.9519 10.9637C12.49 11.2665 12.361 11.8863 12.6638 12.3482L16.149 17.6654H13.8C13.2478 17.6654 12.8 18.1131 12.8 18.6654C12.8 19.2177 13.2478 19.6654 13.8 19.6654H17V21.5886H13.8C13.2478 21.5886 12.8 22.0363 12.8 22.5886C12.8 23.1409 13.2478 23.5886 13.8 23.5886H17V24.55C17 25.1023 17.4477 25.55 18 25.55C18.5523 25.55 19 25.1023 19 24.55V23.5886H22.2C22.7523 23.5886 23.2 23.1409 23.2 22.5886C23.2 22.0363 22.7523 21.5886 22.2 21.5886H19V19.6654Z" fill="white"/>
<path fill-rule="evenodd" clip-rule="evenodd" d="M3 18C3 9.71573 9.71573 3 18 3C26.2843 3 33 9.71573 33 18C33 26.2843 26.2843 33 18 33C9.71573 33 3 26.2843 3 18ZM18 5.25C10.9584 5.25 5.25 10.9584 5.25 18C5.25 25.0416 10.9584 30.75 18 30.75C25.0416 30.75 30.75 25.0416 30.75 18C30.75 10.9584 25.0416 5.25 18 5.25Z" fill="white"/>
</svg>
