<svg width="36" height="36" viewBox="0 0 36 36" fill="none" xmlns="http://www.w3.org/2000/svg">
<path d="M16.5 10.5C16.5 9.94772 16.0523 9.5 15.5 9.5C14.9477 9.5 14.5 9.94772 14.5 10.5V14.5H10.5C9.94772 14.5 9.5 14.9477 9.5 15.5C9.5 16.0523 9.94772 16.5 10.5 16.5H14.5V20.5C14.5 21.0523 14.9477 21.5 15.5 21.5C16.0523 21.5 16.5 21.0523 16.5 20.5V16.5H20.5C21.0523 16.5 21.5 16.0523 21.5 15.5C21.5 14.9477 21.0523 14.5 20.5 14.5H16.5V10.5Z" fill="white"/>
<path fill-rule="evenodd" clip-rule="evenodd" d="M5 15.5C5 9.70101 9.70101 5 15.5 5C21.299 5 26 9.70101 26 15.5C26 18.0394 25.0985 20.3682 23.5982 22.184L31.4571 30.0429C31.8476 30.4334 31.8476 31.0666 31.4571 31.4571C31.0666 31.8476 30.4334 31.8476 30.0429 31.4571L22.184 23.5982C20.3682 25.0985 18.0394 26 15.5 26C9.70101 26 5 21.299 5 15.5ZM15.5 7C10.8056 7 7 10.8056 7 15.5C7 20.1944 10.8056 24 15.5 24C20.1944 24 24 20.1944 24 15.5C24 10.8056 20.1944 7 15.5 7Z" fill="white"/>
</svg>
