<svg width="36" height="36" viewBox="0 0 36 36" fill="none" xmlns="http://www.w3.org/2000/svg">
<path fill-rule="evenodd" clip-rule="evenodd" d="M6 15.5C6 10.2533 10.2533 6 15.5 6C20.7467 6 25 10.2533 25 15.5C25 20.7467 20.7467 25 15.5 25C10.2533 25 6 20.7467 6 15.5ZM15.5 4C9.14873 4 4 9.14873 4 15.5C4 21.8513 9.14873 27 15.5 27C18.3156 27 20.8949 25.9881 22.894 24.3082L30.5429 31.9571C30.9334 32.3476 31.5666 32.3476 31.9571 31.9571C32.3476 31.5666 32.3476 30.9334 31.9571 30.5429L24.3082 22.894C25.9881 20.8949 27 18.3156 27 15.5C27 9.14873 21.8513 4 15.5 4ZM16.5 9.5C16.5 8.94772 16.0523 8.5 15.5 8.5C14.9477 8.5 14.5 8.94772 14.5 9.5V14.5H9.5C8.94772 14.5 8.5 14.9477 8.5 15.5C8.5 16.0523 8.94772 16.5 9.5 16.5H14.5V21.5C14.5 22.0523 14.9477 22.5 15.5 22.5C16.0523 22.5 16.5 22.0523 16.5 21.5V16.5H21.5C22.0523 16.5 22.5 16.0523 22.5 15.5C22.5 14.9477 22.0523 14.5 21.5 14.5H16.5V9.5Z" fill="white"/>
</svg>
