<svg width="36" height="36" viewBox="0 0 36 36" fill="none" xmlns="http://www.w3.org/2000/svg">
<path fill-rule="evenodd" clip-rule="evenodd" d="M10.5 11C9.94772 11 9.5 11.4477 9.5 12V24C9.5 24.5523 9.94772 25 10.5 25H12.4286C15.4661 25 17.9286 22.5376 17.9286 19.5V16.5C17.9286 13.4624 15.4661 11 12.4286 11H10.5ZM11.5 23V13H12.4286C14.3616 13 15.9286 14.567 15.9286 16.5V19.5C15.9286 21.433 14.3616 23 12.4286 23H11.5ZM20.7856 12C20.7856 11.4477 20.3379 11 19.7856 11C19.2334 11 18.7856 11.4477 18.7856 12V24C18.7856 24.5523 19.2334 25 19.7856 25C20.3379 25 20.7856 24.5523 20.7856 24V18.7601H24.4999L24.5 24C24.5 24.5523 24.9477 25 25.5 25C26.0523 25 26.5 24.5523 26.5 24V12C26.5 11.4477 26.0523 11 25.5 11C24.9477 11 24.5 11.4477 24.5 12V16.7601H20.7856V12Z" fill="white"/>
</svg>
