<svg width="24" height="24" viewBox="0 0 24 24" fill="none" xmlns="http://www.w3.org/2000/svg">
<path fill-rule="evenodd" clip-rule="evenodd" d="M2.59998 12.2C2.59998 7.50553 6.40556 3.69995 11.1 3.69995C11.9068 3.69995 12.6861 3.81214 13.4238 4.02132C13.8223 4.13431 14.237 3.90285 14.35 3.50435C14.463 3.10584 14.2315 2.6912 13.833 2.57821C12.9635 2.33166 12.0465 2.19995 11.1 2.19995C5.57713 2.19995 1.09998 6.6771 1.09998 12.2C1.09998 17.7228 5.57713 22.2 11.1 22.2C16.6228 22.2 21.1 17.7228 21.1 12.2C21.1 12.0115 21.0948 11.8241 21.0844 11.6381C21.0615 11.2245 20.7076 10.9078 20.2941 10.9308C19.8805 10.9537 19.5638 11.3076 19.5867 11.7211C19.5955 11.8795 19.6 12.0392 19.6 12.2C19.6 16.8944 15.7944 20.7 11.1 20.7C6.40556 20.7 2.59998 16.8944 2.59998 12.2ZM7.84998 11.2C8.54033 11.2 9.09998 10.6403 9.09998 9.94995C9.09998 9.2596 8.54033 8.69995 7.84998 8.69995C7.15962 8.69995 6.59998 9.2596 6.59998 9.94995C6.59998 10.6403 7.15962 11.2 7.84998 11.2ZM15.6 9.94995C15.6 10.6403 15.0403 11.2 14.35 11.2C13.6596 11.2 13.1 10.6403 13.1 9.94995C13.1 9.2596 13.6596 8.69995 14.35 8.69995C15.0403 8.69995 15.6 9.2596 15.6 9.94995ZM7.41942 14.325C7.21231 13.9662 6.75362 13.8433 6.3949 14.0504C6.03618 14.2575 5.91327 14.7162 6.12038 15.075C6.62505 15.9491 7.35091 16.6749 8.22502 17.1796C9.09913 17.6843 10.0907 17.95 11.1 17.95C12.1094 17.95 13.1009 17.6843 13.975 17.1796C14.8491 16.6749 15.575 15.9491 16.0797 15.075C16.2868 14.7162 16.1639 14.2575 15.8052 14.0504C15.4464 13.8433 14.9877 13.9662 14.7806 14.325C14.4076 14.971 13.8711 15.5075 13.225 15.8806C12.5789 16.2536 11.8461 16.45 11.1 16.45C10.354 16.45 9.62111 16.2536 8.97502 15.8806C8.32894 15.5075 7.79243 14.971 7.41942 14.325Z" fill="white" fill-opacity="0.96"/>
<path fill-rule="evenodd" clip-rule="evenodd" d="M19.1 1.69995C19.5142 1.69995 19.85 2.03574 19.85 2.44995V4.69995H22.1C22.5142 4.69995 22.85 5.03574 22.85 5.44995C22.85 5.86416 22.5142 6.19995 22.1 6.19995H19.85V8.44995C19.85 8.86416 19.5142 9.19995 19.1 9.19995C18.6858 9.19995 18.35 8.86416 18.35 8.44995V6.19995H16.1C15.6858 6.19995 15.35 5.86416 15.35 5.44995C15.35 5.03574 15.6858 4.69995 16.1 4.69995H18.35V2.44995C18.35 2.03574 18.6858 1.69995 19.1 1.69995Z" fill="white" fill-opacity="0.96"/>
</svg>
