<svg width="24" height="24" viewBox="0 0 24 24" fill="none" xmlns="http://www.w3.org/2000/svg">
<path fill-rule="evenodd" clip-rule="evenodd" d="M8.45483 8.477C8.78648 7.46855 10.213 7.46854 10.5447 8.477L11.3474 10.9184C11.5707 11.597 12.1034 12.1287 12.782 12.352L15.2234 13.1557C16.2317 13.4875 16.2318 14.9139 15.2234 15.2456L12.782 16.0483C12.1033 16.2716 11.5706 16.8042 11.3474 17.4829L10.5447 19.9233C10.213 20.9317 8.78649 20.9317 8.45483 19.9233L7.65209 17.4829C7.42885 16.8041 6.89631 16.2715 6.21752 16.0483L3.77709 15.2456C2.76865 14.9139 2.76863 13.4874 3.77709 13.1557L6.21752 12.352C6.89619 12.1288 7.42877 11.597 7.65209 10.9184L8.45483 8.477ZM9.0769 11.3862C8.70482 12.5175 7.81759 13.4057 6.68627 13.7778L5.40014 14.2006L6.68627 14.6235C7.81759 14.9956 8.70483 15.8828 9.0769 17.0141L9.49975 18.2993L9.9226 17.0141C10.2946 15.8829 11.1821 14.9956 12.3132 14.6235L13.5994 14.2006L12.3132 13.7778C11.182 13.4057 10.2946 12.5174 9.9226 11.3862L9.49975 10.101L9.0769 11.3862Z" fill="white"/>
<path d="M17.3093 4.32075C17.3673 4.13267 17.6332 4.13267 17.6912 4.32075L18.1316 5.74751C18.3265 6.37951 18.8209 6.87482 19.4529 7.06977L20.8806 7.50922C21.0685 7.5673 21.0685 7.83397 20.8806 7.89204L19.4529 8.33149C18.8209 8.52644 18.3265 9.02175 18.1316 9.65376L17.6912 11.0805C17.6332 11.2686 17.3673 11.2686 17.3093 11.0805L16.8689 9.65376C16.674 9.0217 16.1787 8.52641 15.5466 8.33149L14.1199 7.89204C13.9318 7.83403 13.9318 7.56723 14.1199 7.50922L15.5466 7.06977C16.1787 6.87485 16.674 6.37957 16.8689 5.74751L17.3093 4.32075Z" fill="white"/>
</svg>
