<svg width="24" height="24" viewBox="0 0 24 24" fill="none" xmlns="http://www.w3.org/2000/svg">
<path fill-rule="evenodd" clip-rule="evenodd" d="M9 12.5001C9.96645 12.5001 10.7499 13.2837 10.75 14.2501V20.2501C10.75 21.2166 9.9665 22.0001 9 22.0001H7C6.0335 22.0001 5.25 21.2166 5.25 20.2501V14.2501C5.25007 13.2837 6.03355 12.5001 7 12.5001H9ZM7 14.0001C6.86197 14.0001 6.75007 14.1121 6.75 14.2501V20.2501C6.75 20.3882 6.86193 20.5001 7 20.5001H9C9.13807 20.5001 9.25 20.3882 9.25 20.2501V14.2501C9.24993 14.1121 9.13803 14.0001 9 14.0001H7Z" fill="white"/>
<path d="M16.5 12.5001C18.0187 12.5001 19.2499 13.7314 19.25 15.2501C19.25 15.6643 18.9142 16.0001 18.5 16.0001C18.0858 16.0001 17.75 15.6643 17.75 15.2501C17.7499 14.5598 17.1903 14.0001 16.5 14.0001H16C15.0335 14.0001 14.2501 14.7837 14.25 15.7501V18.7501C14.25 19.7166 15.0335 20.5001 16 20.5001H16.5C17.1904 20.5001 17.75 19.9405 17.75 19.2501C17.7501 18.836 18.0858 18.5001 18.5 18.5001C18.9142 18.5001 19.2499 18.836 19.25 19.2501C19.25 20.7689 18.0188 22.0001 16.5 22.0001H16C14.2051 22.0001 12.75 20.5451 12.75 18.7501V15.7501C12.7501 13.9553 14.2051 12.5001 16 12.5001H16.5Z" fill="white"/>
<path d="M10.5 2.00013C10.9142 2.00013 11.2499 2.33598 11.25 2.75013C11.25 3.16434 10.9142 3.50013 10.5 3.50013H8.75V10.7501C8.75 11.1643 8.41421 11.5001 8 11.5001C7.58579 11.5001 7.25 11.1643 7.25 10.7501V3.50013H5.5C5.08579 3.50013 4.75 3.16434 4.75 2.75013C4.75007 2.33598 5.08583 2.00013 5.5 2.00013H10.5Z" fill="white"/>
<path d="M13.2764 2.03431C13.6717 1.91081 14.0922 2.13126 14.2158 2.52649L16 8.23548L17.7842 2.52649C17.9077 2.13127 18.3284 1.91092 18.7236 2.03431C19.1189 2.15784 19.3393 2.57844 19.2158 2.97376L16.7158 10.9738C16.618 11.2869 16.328 11.5001 16 11.5001C15.672 11.5001 15.382 11.2868 15.2842 10.9738L12.7842 2.97376C12.6608 2.5785 12.8811 2.15787 13.2764 2.03431Z" fill="white"/>
</svg>
