<svg width="24" height="24" viewBox="0 0 24 24" fill="none" xmlns="http://www.w3.org/2000/svg">
<path d="M17.476 1.91962C17.7689 1.62673 18.2437 1.62673 18.5366 1.91962L22.0722 5.45515C22.3651 5.74805 22.3651 6.22292 22.0722 6.51582C21.7793 6.80871 21.3044 6.80871 21.0115 6.51582L17.476 2.98028C17.1831 2.68739 17.1831 2.21251 17.476 1.91962Z" fill="white" fill-opacity="0.96"/>
<path d="M6.51582 1.91962C6.80871 2.21251 6.80871 2.68739 6.51582 2.98028L2.98028 6.51582C2.68739 6.80871 2.21251 6.80871 1.91962 6.51582C1.62673 6.22292 1.62673 5.74805 1.91962 5.45515L5.45515 1.91962C5.74805 1.62673 6.22292 1.62673 6.51582 1.91962Z" fill="white" fill-opacity="0.96"/>
<path d="M11.9959 7.74585C11.9959 7.33164 11.6601 6.99585 11.2459 6.99585C10.8317 6.99585 10.4959 7.33164 10.4959 7.74585V12.4958C10.4959 13.0481 10.9436 13.4958 11.4959 13.4958H14.7459C15.1601 13.4958 15.4959 13.1601 15.4959 12.7458C15.4959 12.3316 15.1601 11.9958 14.7459 11.9958H11.9959V7.74585Z" fill="white" fill-opacity="0.96"/>
<path fill-rule="evenodd" clip-rule="evenodd" d="M2.99591 11.9958C2.99591 7.02529 7.02535 2.99585 11.9959 2.99585C16.9665 2.99585 20.9959 7.02529 20.9959 11.9958C20.9959 14.4659 20.0002 16.7039 18.3901 18.3294L19.7762 19.7155C20.0691 20.0084 20.0691 20.4833 19.7762 20.7762C19.4833 21.0691 19.0085 21.0691 18.7156 20.7762L17.246 19.3066C15.7684 20.3694 13.9545 20.9958 11.9959 20.9958C9.78092 20.9958 7.75188 20.1949 6.1843 18.8681L4.27624 20.7762C3.98335 21.0691 3.50847 21.0691 3.21558 20.7762C2.92269 20.4833 2.92269 20.0084 3.21558 19.7155L5.12364 17.8075C3.79685 16.2399 2.99591 14.2108 2.99591 11.9958ZM11.9959 4.49585C7.85378 4.49585 4.49591 7.85371 4.49591 11.9958C4.49591 14.0671 5.33456 15.9411 6.69261 17.2992C8.05066 18.6572 9.92463 19.4958 11.9959 19.4958C13.8362 19.4958 15.5199 18.834 16.825 17.7346C18.4595 16.3576 19.4959 14.2981 19.4959 11.9958C19.4959 7.85371 16.138 4.49585 11.9959 4.49585Z" fill="white" fill-opacity="0.96"/>
</svg>
