<svg width="24" height="24" viewBox="0 0 24 24" fill="none" xmlns="http://www.w3.org/2000/svg">
<path d="M17.476 1.91962C17.7689 1.62673 18.2437 1.62673 18.5366 1.91962L22.0722 5.45515C22.3651 5.74805 22.3651 6.22292 22.0722 6.51582C21.7793 6.80871 21.3044 6.80871 21.0115 6.51582L17.476 2.98028C17.1831 2.68739 17.1831 2.21251 17.476 1.91962Z" fill="white" fill-opacity="0.96"/>
<path d="M6.51582 1.91962C6.80871 2.21251 6.80871 2.68739 6.51582 2.98028L2.98028 6.51582C2.68739 6.80871 2.21251 6.80871 1.91962 6.51582C1.62673 6.22292 1.62673 5.74805 1.91962 5.45515L5.45515 1.91962C5.74805 1.62673 6.22292 1.62673 6.51582 1.91962Z" fill="white" fill-opacity="0.96"/>
<path fill-rule="evenodd" clip-rule="evenodd" d="M6.18427 18.8681L4.27624 20.7762C3.98335 21.0691 3.50847 21.0691 3.21558 20.7762C2.92269 20.4833 2.92269 20.0084 3.21558 19.7155L5.12361 17.8075C3.79628 16.2395 2.99591 14.2111 2.99591 11.9958C2.99591 7.02529 7.02535 2.99585 11.9959 2.99585C16.9665 2.99585 20.9959 7.02529 20.9959 11.9958C20.9959 14.4657 20.001 16.7032 18.3901 18.3294L19.7762 19.7155C20.0691 20.0084 20.0691 20.4833 19.7762 20.7762C19.4833 21.0691 19.0085 21.0691 18.7156 20.7762L17.2461 19.3067C15.7684 20.3697 13.9553 20.9958 11.9959 20.9958C9.78063 20.9958 7.75229 20.1955 6.18427 18.8681ZM11.2459 6.99585C11.6601 6.99585 11.9959 7.33164 11.9959 7.74585V11.9958H14.7459C15.1601 11.9958 15.4959 12.3316 15.4959 12.7458C15.4959 13.1601 15.1601 13.4958 14.7459 13.4958H11.4959C10.9436 13.4958 10.4959 13.0481 10.4959 12.4958V7.74585C10.4959 7.33164 10.8317 6.99585 11.2459 6.99585Z" fill="white" fill-opacity="0.96"/>
</svg>
