<svg width="24" height="24" viewBox="0 0 24 24" fill="none" xmlns="http://www.w3.org/2000/svg">
<path d="M16.1305 6.83984C16.8116 6.86984 18.7192 7.09945 19.945 8.81934C19.8507 8.87933 17.6713 10.0993 17.6921 12.6289C17.7234 15.642 20.4564 16.6546 20.4997 16.6689C20.4682 16.7393 20.0601 18.1093 19.0544 19.499C18.1848 20.7389 17.262 21.9488 15.8581 21.9688C14.4546 21.9986 14.0039 21.1788 12.4118 21.1787C10.8088 21.1787 10.3157 21.949 8.98504 21.999C7.61276 22.0488 6.57597 20.6785 5.69598 19.4688C3.90437 16.9989 2.53167 12.4494 4.37567 9.38965C5.28719 7.86976 6.92142 6.90988 8.69207 6.87988C10.0332 6.8599 11.3116 7.75 12.1393 7.75C12.9566 7.74978 14.5069 6.68006 16.1305 6.83984ZM16.152 2C16.2882 3.16984 15.7955 4.34952 15.0622 5.18945C14.3393 6.0394 13.1448 6.69937 11.9714 6.60938C11.8144 5.45955 12.4015 4.25988 13.072 3.5C13.8368 2.67013 15.1044 2.04 16.152 2Z" fill="white"/>
</svg>
