<svg width="24" height="24" viewBox="0 0 24 24" fill="none" xmlns="http://www.w3.org/2000/svg">
<path d="M13.5469 4.80868C13.8246 4.69182 14.1455 4.75268 14.3613 4.96297L21.0234 11.463C21.1681 11.6041 21.25 11.798 21.25 12.0001C21.25 12.2022 21.1681 12.396 21.0234 12.5372L14.3613 19.0372C14.1455 19.2476 13.8247 19.3084 13.5469 19.1915C13.2689 19.0743 13.0879 18.8017 13.0879 18.5001V15.3038H4.5C3.5335 15.3038 2.75 14.5203 2.75 13.5538V10.4464C2.75015 9.48 3.53359 8.69637 4.5 8.69637H13.0879V5.50008C13.0879 5.19847 13.2689 4.92582 13.5469 4.80868Z" fill="white"/>
</svg>
