<svg width="24" height="24" viewBox="0 0 24 24" fill="none" xmlns="http://www.w3.org/2000/svg">
<path d="M18.5 10.1622L12 3.5L5.50002 10.1622H9.44645V19.5C9.44645 20.0523 9.89416 20.5 10.4464 20.5H13.5536C14.1059 20.5 14.5536 20.0523 14.5536 19.5V10.1622H18.5Z" fill="white"/>
<path fill-rule="evenodd" clip-rule="evenodd" d="M19.1911 10.4534C19.074 10.7314 18.8017 10.9122 18.5 10.9122H15.3036V19.5C15.3036 20.4665 14.5201 21.25 13.5536 21.25H10.4464C9.47995 21.25 8.69645 20.4665 8.69645 19.5V10.9122H5.50002C5.19835 10.9122 4.92605 10.7314 4.80889 10.4534C4.69173 10.1755 4.75253 9.85433 4.9632 9.63841L11.4632 2.97624C11.6043 2.83158 11.7979 2.75 12 2.75C12.2021 2.75 12.3957 2.83158 12.5368 2.97624L19.0368 9.63841C19.2475 9.85433 19.3083 10.1755 19.1911 10.4534ZM12 4.57397L7.2796 9.41216H9.44645C9.86066 9.41216 10.1964 9.74795 10.1964 10.1622V19.5C10.1964 19.6381 10.3084 19.75 10.4464 19.75H13.5536C13.6917 19.75 13.8036 19.6381 13.8036 19.5V10.1622C13.8036 9.74795 14.1394 9.41216 14.5536 9.41216H16.7204L12 4.57397Z" fill="white"/>
</svg>
