<svg width="24" height="24" viewBox="0 0 24 24" fill="none" xmlns="http://www.w3.org/2000/svg">
<path d="M10.1622 5.50002L3.5 12L10.1622 18.5V14.5536H19.5C20.0523 14.5536 20.5 14.1059 20.5 13.5536V10.4464C20.5 9.89416 20.0523 9.44645 19.5 9.44645H10.1622V5.50002Z" fill="white"/>
<path fill-rule="evenodd" clip-rule="evenodd" d="M10.4534 4.80889C10.7314 4.92605 10.9122 5.19835 10.9122 5.50002V8.69645H19.5C20.4665 8.69645 21.25 9.47995 21.25 10.4464V13.5536C21.25 14.5201 20.4665 15.3036 19.5 15.3036H10.9122V18.5C10.9122 18.8017 10.7314 19.074 10.4534 19.1911C10.1755 19.3083 9.85433 19.2475 9.63841 19.0368L2.97624 12.5368C2.83158 12.3957 2.75 12.2021 2.75 12C2.75 11.7979 2.83158 11.6043 2.97624 11.4632L9.63841 4.9632C9.85433 4.75253 10.1755 4.69173 10.4534 4.80889ZM4.57397 12L9.41216 16.7204V14.5536C9.41216 14.1394 9.74795 13.8036 10.1622 13.8036H19.5C19.6381 13.8036 19.75 13.6917 19.75 13.5536V10.4464C19.75 10.3084 19.6381 10.1964 19.5 10.1964H10.1622C9.74795 10.1964 9.41216 9.86066 9.41216 9.44645V7.2796L4.57397 12Z" fill="white"/>
</svg>
