<svg width="24" height="24" viewBox="0 0 24 24" fill="none" xmlns="http://www.w3.org/2000/svg">
<path d="M13.5536 2.75C14.52 2.75001 15.3036 3.53351 15.3036 4.5V13.0879H18.4998C18.8015 13.0879 19.0741 13.2689 19.1912 13.5469C19.3082 13.8247 19.2474 14.1455 19.0369 14.3613L12.5369 21.0234C12.3958 21.1681 12.202 21.25 11.9998 21.25C11.7978 21.25 11.6038 21.1681 11.4627 21.0234L4.96273 14.3613C4.75244 14.1455 4.69157 13.8246 4.80843 13.5469C4.92557 13.2689 5.19823 13.0879 5.49984 13.0879H8.69613V4.5C8.69613 3.53359 9.47975 2.75015 10.4461 2.75H13.5536Z" fill="white"/>
</svg>
