<svg width="24" height="24" viewBox="0 0 24 24" fill="none" xmlns="http://www.w3.org/2000/svg">
<path d="M9.63867 4.96297C9.85448 4.75268 10.1754 4.69182 10.4531 4.80868C10.7311 4.92582 10.9121 5.19847 10.9121 5.50008V8.69637H19.5C20.4664 8.69637 21.2499 9.48 21.25 10.4464V13.5538C21.25 14.5203 20.4665 15.3038 19.5 15.3038H10.9121V18.5001C10.9121 18.8017 10.7311 19.0743 10.4531 19.1915C10.1753 19.3084 9.85451 19.2476 9.63867 19.0372L2.97656 12.5372C2.83189 12.396 2.75 12.2022 2.75 12.0001C2.75003 11.798 2.83193 11.6041 2.97656 11.463L9.63867 4.96297Z" fill="white"/>
</svg>
