<svg width="24" height="24" viewBox="0 0 24 24" fill="none" xmlns="http://www.w3.org/2000/svg">
<path d="M11.9998 2.75C12.202 2.75 12.3958 2.83189 12.5369 2.97656L19.0369 9.63867C19.2474 9.85451 19.3082 10.1753 19.1912 10.4531C19.0741 10.7311 18.8015 10.9121 18.4998 10.9121H15.3036V19.5C15.3036 20.4665 14.52 21.25 13.5536 21.25H10.4461C9.47975 21.2499 8.69613 20.4664 8.69613 19.5V10.9121H5.49984C5.19823 10.9121 4.92557 10.7311 4.80843 10.4531C4.69157 10.1754 4.75244 9.85448 4.96273 9.63867L11.4627 2.97656C11.6038 2.83193 11.7978 2.75003 11.9998 2.75Z" fill="white"/>
</svg>
