<svg width="24" height="24" viewBox="0 0 24 24" fill="none" xmlns="http://www.w3.org/2000/svg">
<path fill-rule="evenodd" clip-rule="evenodd" d="M17.4997 12C20.5372 12 22.9997 14.4624 22.9997 17.5C22.9997 20.5376 20.5372 23 17.4997 23C14.4623 22.9998 11.9997 20.5374 11.9997 17.5C11.9997 14.4626 14.4623 12.0002 17.4997 12ZM17.9606 14.626C17.8023 14.076 17.2351 13.8322 16.7946 14.125C16.685 14.198 16.5351 14.3901 16.236 14.7725L15.6891 15.4707C15.4625 15.7603 15.1372 15.9268 14.7956 15.9268C14.3562 15.927 13.9997 16.3305 13.9997 16.8281V18.1719C13.9997 18.6695 14.3562 19.073 14.7956 19.0732C15.1372 19.0732 15.4625 19.2397 15.6891 19.5293L16.236 20.2275C16.5351 20.6099 16.685 20.802 16.7946 20.875C17.2351 21.1678 17.8023 20.924 17.9606 20.374C17.9999 20.2371 17.9997 19.9814 17.9997 19.4707V15.5293C17.9997 15.0186 17.9999 14.7629 17.9606 14.626ZM20.3503 15.0762C20.1163 14.8829 19.7695 14.9157 19.5758 15.1494C19.3826 15.3832 19.4155 15.7301 19.6491 15.9238C19.9114 16.1412 20.1128 16.3943 20.2477 16.6641C20.3823 16.9333 20.4499 17.2169 20.4499 17.5L20.4372 17.7119C20.412 17.9238 20.3487 18.1339 20.2477 18.3359C20.1128 18.6057 19.9114 18.8588 19.6491 19.0762C19.4155 19.2699 19.3826 19.6168 19.5758 19.8506C19.7695 20.0843 20.1163 20.1171 20.3503 19.9238C20.7217 19.6161 21.0239 19.2445 21.2321 18.8281C21.4404 18.4113 21.5495 17.9596 21.5495 17.5C21.5495 17.0404 21.4404 16.5887 21.2321 16.1719C21.0239 15.7555 20.7217 15.3839 20.3503 15.0762Z" fill="white"/>
<path fill-rule="evenodd" clip-rule="evenodd" d="M15.7028 1.92578L15.9088 1.93066H15.9108C16.9886 1.97457 17.7644 2.36132 18.3151 2.98145C18.8628 3.59836 19.181 4.43794 19.3639 5.37598C19.7249 7.22776 19.5665 9.51507 19.5631 11.3359C19.1721 11.2052 18.7646 11.1101 18.3444 11.0557C18.3598 9.1636 18.4839 7.14853 18.1452 5.50098C17.9697 4.64748 17.691 4.03712 17.3219 3.65137C17.1742 3.49709 16.998 3.36367 16.777 3.26367C17.2584 4.18541 17.4486 5.49067 17.5182 6.87598C17.5871 8.24663 17.5415 9.71809 17.5319 11C17.5217 11 17.5109 11 17.5006 11C17.1651 11 16.8352 11.0252 16.5133 11.0742C16.5243 9.21108 16.616 7.12261 16.362 5.42383C16.228 4.52816 16.0096 3.85468 15.7106 3.4248C15.6 3.26593 15.4828 3.14692 15.3551 3.06055L14.9469 3.05762C15.2966 3.95873 15.434 5.31622 15.484 6.77539C15.5359 8.28792 15.4944 9.9309 15.4928 11.3164C15.1387 11.4313 14.7978 11.5759 14.4733 11.7471C14.4734 11.6314 14.4753 11.5139 14.4753 11.3945C14.4752 9.47963 14.5502 7.20628 14.3795 5.38086C14.2938 4.46383 14.1519 3.74703 13.9499 3.28223C13.9047 3.17831 13.8589 3.09844 13.819 3.03711H13.2331C13.3757 3.9242 13.4332 5.28485 13.4538 6.76074C13.4753 8.30512 13.4577 9.98556 13.4577 11.3945L13.4557 12.4131C13.0794 12.7128 12.7368 13.053 12.4352 13.4277C12.4369 12.8157 12.4391 12.1403 12.4391 11.3945C12.4391 9.50588 12.4704 7.19149 12.401 5.33691C12.3662 4.40625 12.3068 3.63025 12.2145 3.09961C12.2108 3.07818 12.2058 3.05727 12.2018 3.03711H11.7985C11.7946 3.05721 11.7905 3.07826 11.7868 3.09961C11.6945 3.63008 11.635 4.40557 11.6003 5.33594C11.5309 7.1906 11.5622 9.5057 11.5622 11.3945C11.5622 12.7646 11.5657 13.8969 11.571 14.8359C11.2051 15.649 11.0006 16.5506 11.0006 17.5C11.0006 19.2966 11.7297 20.9231 12.9079 22.0996H6.84537C6.63764 22.0993 6.45734 21.9669 6.40885 21.7793L6.40592 21.7676L6.3981 21.7061L6.39713 21.7012L6.39615 21.6924V21.6855C6.39282 21.3783 6.36304 21.1956 6.28873 21.0381C6.21328 20.8785 6.0872 20.7346 5.86685 20.5117L5.30924 19.9492L5.30045 19.9414L5.29459 19.9307C5.21585 19.8016 5.12003 19.6659 5.02701 19.4463C4.93375 19.2259 4.84291 18.9215 4.76138 18.4434C4.59852 17.488 4.47078 15.8246 4.44303 12.7178L4.43814 11.3945C4.43815 9.56434 4.2725 7.24767 4.63736 5.37598C4.82023 4.43798 5.13856 3.59835 5.68619 2.98145C6.23684 2.36129 7.01276 1.97462 8.09049 1.93066H8.09244L8.29752 1.92578L11.9997 1.90039H12.0016L15.7028 1.92578ZM7.2233 3.26367C7.00275 3.36368 6.82689 3.49726 6.67935 3.65137C6.31033 4.03713 6.0316 4.64754 5.85611 5.50098C5.49714 7.2473 5.66081 9.40654 5.6608 11.3945C5.66078 15.1285 5.78448 17.046 5.9401 18.085C6.01697 18.5981 6.09655 18.8606 6.15396 19.0039C6.19666 19.1104 6.22731 19.1597 6.29166 19.2627C6.48011 19.4551 6.61833 19.5906 6.76724 19.7412C6.85428 19.8292 6.94451 19.925 7.03189 20.0254H7.16763L7.10416 19.9375L7.0983 19.9287L7.09342 19.9199C7.03581 19.7901 6.96723 19.6557 6.90006 19.4375C6.83284 19.219 6.76672 18.9163 6.70767 18.4395C6.58967 17.4863 6.49736 15.8238 6.47721 12.7168L6.4733 11.3945C6.4733 10.0261 6.40714 8.38957 6.48306 6.87598C6.55255 5.49077 6.74208 4.18537 7.2233 3.26367ZM8.6442 3.06055C8.51711 3.14678 8.40084 3.26656 8.29068 3.4248L8.28971 3.42383C7.99067 3.85363 7.77326 4.52797 7.63931 5.42383C7.37072 7.22074 7.49088 9.45338 7.49088 11.3945C7.49086 15.131 7.58156 17.0734 7.69791 18.1426C7.75565 18.673 7.81725 18.9653 7.86881 19.1426C7.91025 19.2848 7.94532 19.358 7.99967 19.4775C8.14186 19.6775 8.24642 19.8186 8.35513 19.9697C8.36754 19.987 8.38137 20.0067 8.3942 20.0254H8.94791L8.90006 19.9199L8.89713 19.9131L8.8942 19.9053C8.73159 19.3189 8.50844 18.87 8.50845 11.3945C8.50846 9.99318 8.46476 8.31729 8.51724 6.77637C8.56697 5.31719 8.70295 3.95888 9.0524 3.05762L8.6442 3.06055ZM10.1823 3.03711C10.1424 3.09831 10.0965 3.17762 10.0514 3.28125C9.84933 3.74588 9.70745 4.46284 9.62174 5.37988C9.45116 7.2054 9.52604 9.47941 9.52603 11.3945C9.52602 18.5655 9.73564 19.1742 9.86197 19.6055C9.92959 19.7576 9.99371 19.8953 10.0524 20.0254H10.7223L10.6989 19.8965L10.6969 19.8896C10.6329 19.312 10.5436 18.8719 10.5436 11.3945C10.5436 9.98556 10.526 8.30512 10.5475 6.76074C10.5681 5.28486 10.6257 3.9242 10.7682 3.03711H10.1823Z" fill="white"/>
</svg>
