<svg width="24" height="24" viewBox="0 0 24 24" fill="none" xmlns="http://www.w3.org/2000/svg">
<path fill-rule="evenodd" clip-rule="evenodd" d="M15.7017 1.92578L15.9077 1.93066H15.9097C16.9876 1.97454 17.7633 2.36128 18.314 2.98145C18.8617 3.59836 19.1799 4.4379 19.3628 5.37598C19.7277 7.24768 19.562 9.56432 19.562 11.3945L19.5572 12.7168C19.5294 15.8237 19.4017 17.488 19.2388 18.4434C19.1573 18.9216 19.0665 19.2259 18.9732 19.4463C18.8801 19.666 18.7844 19.8016 18.7056 19.9307L18.6997 19.9414L18.691 19.9492L18.1333 20.5117C17.913 20.7346 17.7869 20.8785 17.7115 21.0381C17.6372 21.1956 17.6074 21.3783 17.604 21.6855V21.6924L17.6031 21.7012V21.7061L17.5943 21.7676L17.5923 21.7793C17.5438 21.967 17.3627 22.0995 17.1548 22.0996H6.84427C6.63653 22.0993 6.45622 21.967 6.40775 21.7793L6.40482 21.7676L6.397 21.7061L6.39603 21.7012L6.39505 21.6924V21.6855C6.39172 21.3782 6.36197 21.1956 6.28763 21.0381C6.21217 20.8785 6.08616 20.7346 5.86575 20.5117L5.30814 19.9492L5.29935 19.9414L5.29349 19.9307C5.21474 19.8016 5.11894 19.666 5.02591 19.4463C4.93265 19.2259 4.84182 18.9215 4.76029 18.4434C4.59742 17.488 4.46968 15.8246 4.44193 12.7178L4.43704 11.3945C4.43705 9.56434 4.2714 7.24767 4.63626 5.37598C4.81913 4.43797 5.13745 3.59836 5.68509 2.98145C6.23574 2.36124 7.01161 1.97462 8.08939 1.93066H8.09134L8.29642 1.92578L11.9986 1.90039H12.0005L15.7017 1.92578ZM7.2222 3.26367C7.0016 3.3637 6.82581 3.49722 6.67825 3.65137C6.30922 4.03714 6.0305 4.64752 5.85501 5.50098C5.49604 7.2473 5.65971 9.40654 5.6597 11.3945C5.65968 15.1285 5.78338 17.046 5.939 18.085C6.01588 18.5982 6.09545 18.8606 6.15286 19.0039C6.19558 19.1105 6.22619 19.1597 6.29056 19.2627C6.47906 19.4552 6.6172 19.5906 6.76615 19.7412C6.85322 19.8293 6.94338 19.9249 7.03079 20.0254H7.16654L7.10306 19.9375L7.0972 19.9287L7.09232 19.9199C7.03471 19.79 6.96614 19.6557 6.89896 19.4375C6.83174 19.219 6.76563 18.9163 6.70658 18.4395C6.58857 17.4863 6.49626 15.8239 6.47611 12.7168L6.4722 11.3945C6.47221 10.0261 6.40604 8.38957 6.48197 6.87598C6.55145 5.49077 6.74098 4.18538 7.2222 3.26367ZM8.6431 3.06055C8.51599 3.14679 8.39976 3.26652 8.28958 3.4248L8.28861 3.42383C7.98957 3.85364 7.77216 4.52795 7.63822 5.42383C7.36963 7.22074 7.48979 9.45338 7.48978 11.3945C7.48976 15.131 7.58047 17.0734 7.69681 18.1426C7.75455 18.673 7.81615 18.9653 7.86771 19.1426C7.90916 19.2849 7.94422 19.358 7.99857 19.4775C8.14079 19.6775 8.2453 19.8186 8.35404 19.9697C8.36645 19.987 8.38025 20.0066 8.3931 20.0254H8.94681L8.89896 19.9199L8.89603 19.9131L8.8931 19.9053C8.73049 19.3189 8.50734 18.87 8.50736 11.3945C8.50736 9.99317 8.46366 8.31729 8.51615 6.77637C8.56587 5.31719 8.70185 3.95888 9.0513 3.05762L8.6431 3.06055ZM10.1812 3.03711C10.1413 3.09833 10.0954 3.17759 10.0503 3.28125C9.84823 3.74588 9.70635 4.46283 9.62064 5.37988C9.45006 7.2054 9.52494 9.47941 9.52493 11.3945C9.52492 18.5655 9.73454 19.1742 9.86087 19.6055C9.9285 19.7576 9.9926 19.8953 10.0513 20.0254H10.7212L10.6978 19.8965L10.6958 19.8896C10.6318 19.312 10.5425 18.8719 10.5425 11.3945C10.5425 9.98556 10.5249 8.30512 10.5464 6.76074C10.567 5.28486 10.6246 3.9242 10.7671 3.03711H10.1812ZM11.7857 3.09961C11.6934 3.63008 11.6339 4.40557 11.5992 5.33594C11.5298 7.1906 11.5611 9.5057 11.5611 11.3945C11.5611 18.7205 11.6469 19.2511 11.7046 19.7578L11.7515 20.0254H12.2466C12.261 19.9445 12.2761 19.8561 12.2935 19.7578C12.3512 19.2512 12.438 18.7202 12.438 11.3945C12.438 9.50588 12.4693 7.19149 12.3999 5.33691C12.3651 4.40624 12.3057 3.63025 12.2134 3.09961C12.2097 3.07817 12.2047 3.05728 12.2007 3.03711H11.7974C11.7935 3.05722 11.7894 3.07825 11.7857 3.09961ZM13.232 3.03711C13.3746 3.9242 13.4321 5.28483 13.4527 6.76074C13.4742 8.30512 13.4566 9.98556 13.4566 11.3945L13.4527 13.8828C13.4347 18.983 13.3593 19.3841 13.3033 19.8896L13.3023 19.8965C13.2944 19.9414 13.2863 19.9844 13.2788 20.0254H13.9478C14.0065 19.8952 14.0685 19.7579 14.1363 19.6055C14.2626 19.1742 14.4742 18.568 14.4742 11.3945C14.4741 9.47962 14.5491 7.20628 14.3785 5.38086C14.2927 4.46379 14.1508 3.74702 13.9488 3.28223C13.9035 3.17827 13.8578 3.09845 13.8179 3.03711H13.232ZM14.9458 3.05762C15.2955 3.95873 15.4329 5.31618 15.4829 6.77539C15.5358 8.31645 15.4917 9.99293 15.4917 11.3945L15.4898 12.7158C15.4646 18.9252 15.2585 19.3553 15.106 19.9053L15.104 19.9131L15.1011 19.9189C15.0849 19.9557 15.0677 19.9913 15.0523 20.0254H15.606C15.6188 20.0067 15.6325 19.9872 15.6451 19.9697C15.7532 19.8194 15.8568 19.6768 15.9986 19.4775C16.0533 19.3572 16.0899 19.285 16.1314 19.1426C16.183 18.9653 16.2445 18.6731 16.3023 18.1426C16.4186 17.0733 16.5093 15.1309 16.5093 11.3945C16.5093 9.45351 16.6296 7.22069 16.3609 5.42383C16.2269 4.5281 16.0086 3.85467 15.7095 3.4248C15.5989 3.26588 15.4818 3.14693 15.354 3.06055L14.9458 3.05762ZM16.7759 3.26367C17.2573 4.18542 17.4475 5.49063 17.5171 6.87598C17.5932 8.38958 17.5269 10.0261 17.5269 11.3945C17.5269 15.1347 17.4369 17.1177 17.315 18.2383C17.254 18.7985 17.1852 19.1462 17.1138 19.3916C17.0422 19.6376 16.9685 19.7808 16.9068 19.9199L16.9019 19.9287L16.897 19.9365C16.8754 19.9671 16.8533 19.9967 16.8326 20.0254H16.9683C17.0557 19.9249 17.1459 19.8293 17.2329 19.7412C17.3818 19.5907 17.5193 19.4549 17.7076 19.2627C17.7722 19.1593 17.8035 19.1106 17.8462 19.0039C17.9036 18.8606 17.9832 18.5983 18.0601 18.085C18.2157 17.046 18.3394 15.1286 18.3394 11.3945C18.3394 9.40651 18.5031 7.24731 18.1441 5.50098C17.9686 4.64742 17.6899 4.03711 17.3208 3.65137C17.1731 3.49705 16.997 3.36367 16.7759 3.26367Z" fill="white"/>
</svg>
