<svg width="24" height="24" viewBox="0 0 24 24" fill="none" xmlns="http://www.w3.org/2000/svg">
<path fill-rule="evenodd" clip-rule="evenodd" d="M17.4996 12C20.5371 12 22.9995 14.4624 22.9995 17.5C22.9995 20.5376 20.5371 23 17.4996 23C14.4622 22.9998 11.9996 20.5374 11.9996 17.5C11.9996 14.4626 14.4622 12.0002 17.4996 12ZM16.4878 13.9961C16.0879 13.8892 15.6761 14.1265 15.5689 14.5264C15.462 14.9261 15.6997 15.3368 16.0992 15.4443C17.0027 15.6864 17.8021 16.2208 18.3716 16.9629C18.9409 17.705 19.2495 18.6145 19.2496 19.5498C19.2496 19.9639 19.5855 20.2996 19.9996 20.2998C20.4138 20.2998 20.7495 19.964 20.7495 19.5498C20.7495 18.2841 20.3315 17.0539 19.5611 16.0498C18.7906 15.0458 17.7103 14.3237 16.4878 13.9961ZM15.7115 16.8438C15.3115 16.7368 14.8997 16.974 14.7925 17.374C14.6855 17.7739 14.9231 18.1856 15.3228 18.293C15.5885 18.3642 15.8233 18.5211 15.9908 18.7393C16.1583 18.9576 16.2496 19.2248 16.2496 19.5C16.2496 19.9141 16.5855 20.2498 16.9996 20.25C17.4138 20.25 17.7495 19.9142 17.7496 19.5C17.7496 18.8947 17.5497 18.3064 17.1812 17.8262C16.8127 17.346 16.2961 17.0004 15.7115 16.8438Z" fill="white"/>
<path fill-rule="evenodd" clip-rule="evenodd" d="M15.7027 1.92578L15.9087 1.93066H15.9107C16.9884 1.97465 17.7643 2.36126 18.315 2.98145C18.8626 3.59836 19.1809 4.438 19.3638 5.37598C19.7248 7.22775 19.5664 9.51509 19.563 11.3359C19.172 11.2051 18.7645 11.1102 18.3443 11.0557C18.3597 9.16362 18.4837 7.14851 18.1451 5.50098C17.9696 4.64757 17.6908 4.03714 17.3218 3.65137C17.1741 3.49707 16.9979 3.36369 16.7769 3.26367C17.2582 4.18541 17.4485 5.49074 17.5181 6.87598C17.587 8.24663 17.5414 9.71809 17.5318 11C17.5212 10.9999 17.5101 11 17.4996 11C17.1643 11 16.8348 11.0253 16.5132 11.0742C16.5242 9.2111 16.6159 7.1226 16.3619 5.42383C16.2279 4.52824 16.0095 3.85469 15.7105 3.4248C15.5999 3.26593 15.4827 3.14695 15.355 3.06055L14.9468 3.05762C15.2964 3.95873 15.4339 5.31627 15.4839 6.77539C15.5358 8.28792 15.4943 9.9309 15.4927 11.3164C15.1386 11.4313 14.7978 11.576 14.4732 11.7471C14.4733 11.6314 14.4751 11.5139 14.4751 11.3945C14.4751 9.47964 14.55 7.20627 14.3794 5.38086C14.2937 4.46389 14.1518 3.74704 13.9497 3.28223C13.9046 3.17833 13.8588 3.09845 13.8189 3.03711H13.2329C13.3755 3.9242 13.4331 5.28488 13.4537 6.76074C13.4752 8.30512 13.4576 9.98557 13.4576 11.3945L13.4556 12.4131C13.0794 12.7126 12.7367 13.0523 12.4351 13.4268C12.4368 12.8149 12.439 12.1399 12.439 11.3945C12.439 9.50589 12.4703 7.19148 12.4009 5.33691C12.3661 4.40628 12.3067 3.63025 12.2144 3.09961C12.2107 3.07818 12.2057 3.05727 12.2017 3.03711H11.7984C11.7945 3.05722 11.7904 3.07825 11.7867 3.09961C11.6944 3.63008 11.6349 4.40554 11.6001 5.33594C11.5308 7.1906 11.5621 9.5057 11.5621 11.3945C11.562 12.7641 11.5656 13.8961 11.5708 14.835C11.2047 15.6483 10.9996 16.5501 10.9996 17.5C10.9996 19.2966 11.7286 20.9231 12.9068 22.0996H6.84525C6.63739 22.0995 6.45729 21.967 6.40873 21.7793L6.4058 21.7676L6.39799 21.7061L6.39701 21.7012L6.39604 21.6924V21.6855C6.3927 21.3783 6.36288 21.1956 6.28861 21.0381C6.21319 20.8785 6.08706 20.7345 5.86674 20.5117L5.30912 19.9492L5.30033 19.9414L5.29447 19.9307C5.21572 19.8016 5.11994 19.6659 5.02689 19.4463C4.93361 19.2259 4.84281 18.9216 4.76127 18.4434C4.5984 17.488 4.47067 15.8246 4.44291 12.7178L4.43803 11.3945C4.43804 9.56432 4.27237 7.24768 4.63725 5.37598C4.82014 4.43791 5.13835 3.59836 5.68607 2.98145C6.23678 2.36131 7.01253 1.97454 8.09037 1.93066H8.09232L8.2974 1.92578L11.9996 1.90039H12.0015L15.7027 1.92578ZM7.22318 3.26367C7.00255 3.36366 6.82681 3.49725 6.67924 3.65137C6.31013 4.03711 6.03151 4.64743 5.856 5.50098C5.497 7.24731 5.66069 9.40651 5.66068 11.3945C5.66066 15.1286 5.78436 17.046 5.93998 18.085C6.01688 18.5983 6.09643 18.8606 6.15385 19.0039C6.19655 19.1104 6.22714 19.1596 6.29154 19.2627C6.47999 19.4551 6.61818 19.5906 6.76713 19.7412C6.85418 19.8293 6.9444 19.9249 7.03178 20.0254H7.16752L7.10404 19.9375L7.09818 19.9287L7.0933 19.9199C7.03569 19.79 6.96713 19.6557 6.89994 19.4375C6.83272 19.219 6.76662 18.9164 6.70756 18.4395C6.58955 17.4863 6.49724 15.8239 6.47709 12.7168L6.47318 11.3945C6.47319 10.0261 6.40703 8.38957 6.48295 6.87598C6.55244 5.49069 6.74191 4.18538 7.22318 3.26367ZM8.64408 3.06055C8.51693 3.14676 8.40078 3.26653 8.29057 3.4248L8.28959 3.42383C7.99049 3.85362 7.77316 4.52786 7.6392 5.42383C7.3706 7.22075 7.49077 9.45336 7.49076 11.3945C7.49075 15.1311 7.58145 17.0734 7.69779 18.1426C7.75555 18.673 7.81712 18.9653 7.86869 19.1426C7.91014 19.2848 7.94518 19.3579 7.99955 19.4775C8.14175 19.6775 8.24628 19.8186 8.35502 19.9697C8.36743 19.987 8.38126 20.0067 8.39408 20.0254H8.94779L8.89994 19.9199L8.89701 19.9131L8.89408 19.9053C8.73147 19.3189 8.50832 18.8704 8.50834 11.3945C8.50834 9.99317 8.46464 8.31729 8.51713 6.77637C8.56685 5.31712 8.7028 3.95888 9.05229 3.05762L8.64408 3.06055ZM10.1822 3.03711C10.1422 3.09832 10.0964 3.17758 10.0513 3.28125C9.84919 3.74587 9.70735 4.46276 9.62162 5.37988C9.45104 7.20541 9.52592 9.47939 9.52592 11.3945C9.5259 18.5661 9.73553 19.1742 9.86186 19.6055C9.92948 19.7576 9.99359 19.8953 10.0523 20.0254H10.7222L10.6988 19.8965L10.6968 19.8896C10.6327 19.312 10.5435 18.8721 10.5435 11.3945C10.5435 9.98556 10.5259 8.30512 10.5474 6.76074C10.568 5.28483 10.6255 3.92419 10.7681 3.03711H10.1822Z" fill="white"/>
</svg>
