<svg width="24" height="24" viewBox="0 0 24 24" fill="none" xmlns="http://www.w3.org/2000/svg">
<path d="M11.5305 8.46969C11.2376 8.1768 10.7627 8.1768 10.4698 8.46969C10.1769 8.76258 10.1769 9.23746 10.4698 9.53035L12.9395 12L10.4698 14.4697C10.1769 14.7626 10.1769 15.2375 10.4698 15.5304C10.7627 15.8232 11.2376 15.8232 11.5305 15.5304L14.0001 13.0607L16.4698 15.5304C16.7627 15.8232 17.2376 15.8232 17.5305 15.5304C17.8234 15.2375 17.8234 14.7626 17.5305 14.4697L15.0608 12L17.5305 9.53035C17.8234 9.23746 17.8234 8.76258 17.5305 8.46969C17.2376 8.1768 16.7627 8.1768 16.4698 8.46969L14.0001 10.9394L11.5305 8.46969Z" fill="white" fill-opacity="0.96"/>
<path fill-rule="evenodd" clip-rule="evenodd" d="M9.82721 5.00002C9.29288 4.99981 8.90268 4.99965 8.52702 5.08984C8.1954 5.16945 7.87838 5.30077 7.5876 5.47896C7.2582 5.68082 6.9824 5.95684 6.60472 6.33482L3.71108 9.22849C3.33337 9.60619 3.0181 9.92144 2.78159 10.2C2.53492 10.4906 2.33018 10.7903 2.21321 11.1502C2.03375 11.7026 2.03375 12.2975 2.21321 12.8498C2.33018 13.2098 2.53492 13.5095 2.78159 13.8C3.0181 14.0786 3.33336 14.3939 3.71107 14.7716L6.60471 17.6653C6.98239 18.0432 7.2582 18.3193 7.5876 18.5211C7.87838 18.6993 8.1954 18.8306 8.52702 18.9102C8.90268 19.0004 9.29288 19.0003 9.82722 19.0001L17.2816 19C17.955 19 18.5057 19.0001 18.9533 18.9635C19.4165 18.9256 19.8349 18.8449 20.2257 18.6458C20.8372 18.3342 21.3344 17.837 21.646 17.2255C21.8451 16.8348 21.9258 16.4164 21.9636 15.9531C22.0002 15.5056 22.0002 14.9548 22.0002 14.2815V9.7186C22.0002 9.04523 22.0002 8.49453 21.9636 8.04697C21.9258 7.58371 21.8451 7.16531 21.646 6.77457C21.3344 6.16305 20.8372 5.66586 20.2257 5.35427C19.8349 5.15518 19.4165 5.07444 18.9533 5.03659C18.5057 5.00003 17.955 5.00003 17.2816 5.00004L9.82721 5.00002ZM8.87719 6.54839C9.05852 6.50486 9.25986 6.50004 9.90704 6.50004H17.2502C17.9626 6.50004 18.4519 6.50062 18.8311 6.53161C19.2016 6.56188 19.4006 6.61739 19.5447 6.69078C19.874 6.85856 20.1417 7.12627 20.3094 7.45556C20.3828 7.5996 20.4383 7.79862 20.4686 8.16912C20.4996 8.54838 20.5002 9.0376 20.5002 9.75004V14.25C20.5002 14.9625 20.4996 15.4517 20.4686 15.831C20.4383 16.2015 20.3828 16.4005 20.3094 16.5445C20.1417 16.8738 19.874 17.1415 19.5447 17.3093C19.4006 17.3827 19.2016 17.4382 18.8311 17.4685C18.4519 17.4995 17.9626 17.5 17.2502 17.5H9.90704C9.25987 17.5 9.05852 17.4952 8.87719 17.4517C8.69863 17.4088 8.52792 17.3381 8.37135 17.2422C8.21235 17.1447 8.06657 17.0058 7.60894 16.5481L4.79326 13.7325C4.38849 13.3277 4.11722 13.0556 3.9251 12.8293C3.73866 12.6097 3.6712 12.483 3.63979 12.3863C3.55822 12.1353 3.55822 11.8648 3.63979 11.6138C3.6712 11.5171 3.73866 11.3904 3.9251 11.1708C4.11722 10.9445 4.38849 10.6724 4.79326 10.2676L7.60894 7.45194C8.06657 6.99432 8.21235 6.85536 8.37135 6.75792C8.52792 6.66197 8.69863 6.59126 8.87719 6.54839Z" fill="white" fill-opacity="0.96"/>
</svg>
