<svg width="24" height="24" viewBox="0 0 24 24" fill="none" xmlns="http://www.w3.org/2000/svg">
<path d="M21.25 19.8502C21.6642 19.8502 22 20.186 22 20.6002C22 21.0144 21.6642 21.3502 21.25 21.3502H2.75C2.3358 21.3502 2.00001 21.0144 2 20.6002C2 20.186 2.33579 19.8502 2.75 19.8502H21.25Z" fill="white"/>
<path d="M20.25 17.3502C20.6642 17.3502 21 17.686 21 18.1002C21 18.5144 20.6642 18.8502 20.25 18.8502H3.75C3.3358 18.8502 3.00001 18.5144 3 18.1002C3 17.686 3.33579 17.3502 3.75 17.3502H20.25Z" fill="white"/>
<path d="M6.75 10.3502C7.02614 10.3502 7.25 10.5741 7.25 10.8502V16.0406C7.24975 16.3166 7.02599 16.5406 6.75 16.5406H4.75C4.47401 16.5406 4.25025 16.3166 4.25 16.0406V10.8502C4.25 10.5741 4.47386 10.3502 4.75 10.3502H6.75Z" fill="white"/>
<path d="M13 10.3502C13.2761 10.3502 13.5 10.5741 13.5 10.8502V16.0406C13.4998 16.3166 13.276 16.5406 13 16.5406H11C10.724 16.5406 10.5002 16.3166 10.5 16.0406V10.8502C10.5 10.5741 10.7239 10.3502 11 10.3502H13Z" fill="white"/>
<path d="M19.25 10.3502C19.5261 10.3502 19.75 10.5741 19.75 10.8502V16.0406C19.7498 16.3166 19.526 16.5406 19.25 16.5406H17.25C16.974 16.5406 16.7502 16.3166 16.75 16.0406V10.8502C16.75 10.5741 16.9739 10.3502 17.25 10.3502H19.25Z" fill="white"/>
<path fill-rule="evenodd" clip-rule="evenodd" d="M11.2715 2.50937C11.7339 2.29754 12.2659 2.29777 12.7285 2.50937L20.5703 6.09629C20.837 6.21833 21.0086 6.4847 21.0088 6.77793V8.66758C21.0084 9.08132 20.6726 9.41737 20.2588 9.41758H3.75293C3.33896 9.41758 3.00333 9.08145 3.00293 8.66758V6.77793L3.01074 6.66953C3.04719 6.42058 3.20731 6.20316 3.44043 6.09629L11.2715 2.50937ZM12.1045 3.87265C12.0386 3.84249 11.9624 3.84259 11.8965 3.87265L4.50293 7.25937V7.91758H19.5088V7.26035L12.1045 3.87265Z" fill="white"/>
</svg>
