<svg width="24" height="24" viewBox="0 0 24 24" fill="none" xmlns="http://www.w3.org/2000/svg">
<path d="M21.25 19.5006C21.6642 19.5006 22 19.8363 22 20.2506C21.9998 20.6646 21.6641 21.0006 21.25 21.0006H2.75C2.33592 21.0006 2.00021 20.6646 2 20.2506C2 19.8363 2.33579 19.5006 2.75 19.5006H21.25Z" fill="white"/>
<path d="M20.25 17.0006C20.6642 17.0006 21 17.3363 21 17.7506C20.9998 18.1646 20.6641 18.5006 20.25 18.5006H3.75C3.33592 18.5006 3.00021 18.1646 3 17.7506C3 17.3363 3.33579 17.0006 3.75 17.0006H20.25Z" fill="white"/>
<path d="M6.75 10.0006C7.02614 10.0006 7.25 10.2244 7.25 10.5006V15.69C7.25 15.9661 7.02614 16.19 6.75 16.19H4.75C4.47386 16.19 4.25 15.9661 4.25 15.69V10.5006C4.25 10.2244 4.47386 10.0006 4.75 10.0006H6.75Z" fill="white"/>
<path d="M13 10.0006C13.2761 10.0006 13.5 10.2244 13.5 10.5006V15.69C13.5 15.9661 13.2761 16.19 13 16.19H11C10.7239 16.19 10.5 15.9661 10.5 15.69V10.5006C10.5 10.2244 10.7239 10.0006 11 10.0006H13Z" fill="white"/>
<path d="M19.25 10.0006C19.5261 10.0006 19.75 10.2244 19.75 10.5006V15.69C19.75 15.9661 19.5261 16.19 19.25 16.19H17.25C16.9739 16.19 16.75 15.9661 16.75 15.69V10.5006C16.75 10.2244 16.9739 10.0006 17.25 10.0006H19.25Z" fill="white"/>
<path d="M11.2715 2.15875C11.7339 1.94696 12.266 1.9472 12.7285 2.15875L20.5703 5.74567C20.837 5.86766 21.0085 6.1341 21.0088 6.42731V8.31696C21.0086 8.7309 20.6727 9.06676 20.2588 9.06696H3.75293C3.33882 9.06696 3.00311 8.73102 3.00293 8.31696V6.42731L3.01074 6.31891C3.04726 6.06998 3.20728 5.85249 3.44043 5.74567L11.2715 2.15875Z" fill="white"/>
</svg>
