<svg width="24" height="24" viewBox="0 0 24 24" fill="none" xmlns="http://www.w3.org/2000/svg">
<path fill-rule="evenodd" clip-rule="evenodd" d="M17.2813 4C17.9546 3.99999 18.5056 3.99957 18.9531 4.03613C19.4164 4.07398 19.8349 4.1554 20.2256 4.35449C20.837 4.66605 21.3339 5.16305 21.6455 5.77442C21.8446 6.16515 21.926 6.58362 21.9639 7.04688C22.0004 7.49444 22 8.04538 22 8.71875V15.2813C22 15.9546 22.0004 16.5056 21.9639 16.9531C21.926 17.4164 21.8446 17.8349 21.6455 18.2256C21.3339 18.837 20.837 19.3339 20.2256 19.6455C19.8349 19.8446 19.4164 19.926 18.9531 19.9639C18.5056 20.0004 17.9546 20 17.2813 20H6.71875C6.04538 20 5.49444 20.0004 5.04688 19.9639C4.58362 19.926 4.16515 19.8446 3.77442 19.6455C3.16305 19.3339 2.66605 18.837 2.35449 18.2256C2.1554 17.8349 2.07398 17.4164 2.03613 16.9531C1.99957 16.5056 1.99999 15.9546 2 15.2813V8.71875C1.99999 8.04537 1.99957 7.49444 2.03613 7.04688C2.07398 6.58362 2.1554 6.16515 2.35449 5.77442C2.66605 5.16305 3.16305 4.66605 3.77442 4.35449C4.16515 4.1554 4.58362 4.07398 5.04688 4.03613C5.49444 3.99957 6.04537 3.99999 6.71875 4H17.2813ZM3.5 11.5V15.25C3.5 15.9624 3.50026 16.4518 3.53125 16.8311C3.56152 17.2015 3.61705 17.4009 3.69043 17.5449C3.85818 17.874 4.12597 18.1418 4.45508 18.3096C4.5991 18.383 4.79852 18.4385 5.16895 18.4688C5.5482 18.4997 6.03756 18.5 6.75 18.5H17.25C17.9624 18.5 18.4518 18.4997 18.8311 18.4688C19.2015 18.4385 19.4009 18.383 19.5449 18.3096C19.874 18.1418 20.1418 17.874 20.3096 17.5449C20.383 17.4009 20.4385 17.2015 20.4688 16.8311C20.4997 16.4518 20.5 15.9624 20.5 15.25V11.5H3.5ZM6.75 5.5C6.03756 5.5 5.5482 5.50026 5.16895 5.53125C4.79852 5.56152 4.5991 5.61705 4.45508 5.69043C4.12597 5.85818 3.85818 6.12597 3.69043 6.45508C3.61705 6.5991 3.56152 6.79852 3.53125 7.16895C3.50026 7.5482 3.5 8.03756 3.5 8.75V9.25H20.5V8.75C20.5 8.03756 20.4997 7.5482 20.4688 7.16895C20.4385 6.79852 20.383 6.5991 20.3096 6.45508C20.1418 6.12597 19.874 5.85818 19.5449 5.69043C19.4009 5.61705 19.2015 5.56152 18.8311 5.53125C18.4518 5.50026 17.9624 5.5 17.25 5.5H6.75Z" fill="white"/>
</svg>
