<svg width="24" height="24" viewBox="0 0 24 24" fill="none" xmlns="http://www.w3.org/2000/svg">
<path fill-rule="evenodd" clip-rule="evenodd" d="M9 3C9 2.44772 9.44772 2 10 2H14C14.5523 2 15 2.44772 15 3V4.04511C15.5244 4.0892 15.9144 4.17638 16.2528 4.34878C16.8549 4.65557 17.3444 5.14511 17.6512 5.74723C18 6.43175 18 7.32783 18 9.12V16.88C18 18.6722 18 19.5683 17.6512 20.2528C17.3444 20.8549 16.8549 21.3444 16.2528 21.6512C15.5683 22 14.6722 22 12.88 22H11.12C9.32783 22 8.43175 22 7.74723 21.6512C7.14511 21.3444 6.65557 20.8549 6.34878 20.2528C6 19.5683 6 18.6722 6 16.88V9.12C6 7.32783 6 6.43175 6.34878 5.74723C6.65557 5.14511 7.14511 4.65557 7.74723 4.34878C8.08558 4.17638 8.47561 4.0892 9 4.04511V3ZM9.5 5.5C8.39543 5.5 7.5 6.39543 7.5 7.5V18.5C7.5 19.6046 8.39543 20.5 9.5 20.5H14.5C15.6046 20.5 16.5 19.6046 16.5 18.5V7.5C16.5 6.39543 15.6046 5.5 14.5 5.5H9.5Z" fill="white"/>
<path fill-rule="evenodd" clip-rule="evenodd" d="M9.0433 14.1665C8.76472 14.1665 8.60267 13.6894 8.7646 13.4658L12.5916 9.14256C12.7986 8.85676 13.2554 9.03361 13.21 9.38197L12.2198 12.1665H14.96C15.2385 12.1665 15.3909 12.6439 15.2289 12.8675L11.348 17.1908C11.1411 17.4766 10.6843 17.2997 10.7296 16.9514L11.7514 14.1665H9.0433Z" fill="white"/>
</svg>
