<svg width="24" height="24" viewBox="0 0 24 24" fill="none" xmlns="http://www.w3.org/2000/svg">
<path fill-rule="evenodd" clip-rule="evenodd" d="M10 2C9.44772 2 9 2.44772 9 3V4.10819C8.71161 4.15982 8.46838 4.2361 8.24723 4.34878C7.64511 4.65557 7.15557 5.14511 6.84878 5.74723C6.5 6.43175 6.5 7.32783 6.5 9.12V16.88C6.5 18.6722 6.5 19.5683 6.84878 20.2528C7.15557 20.8549 7.64511 21.3444 8.24723 21.6512C8.93175 22 9.82783 22 11.62 22H12.38C14.1722 22 15.0683 22 15.7528 21.6512C16.3549 21.3444 16.8444 20.8549 17.1512 20.2528C17.5 19.5683 17.5 18.6722 17.5 16.88V9.12C17.5 7.32783 17.5 6.43175 17.1512 5.74723C16.8444 5.14511 16.3549 4.65557 15.7528 4.34878C15.5316 4.2361 15.2884 4.15982 15 4.10819V3C15 2.44772 14.5523 2 14 2H10ZM9 20.5C8.44772 20.5 8 20.0523 8 19.5V19C8 18.7239 8.22386 18.5 8.5 18.5H15.5C15.7761 18.5 16 18.7239 16 19V19.5C16 20.0523 15.5523 20.5 15 20.5H9ZM8 17.3999C8 17.676 8.22386 17.8999 8.5 17.8999H15.5C15.7761 17.8999 16 17.676 16 17.3999V16.3999C16 16.1238 15.7761 15.8999 15.5 15.8999H8.5C8.22386 15.8999 8 16.1238 8 16.3999V17.3999Z" fill="white"/>
</svg>
