<svg width="24" height="24" viewBox="0 0 24 24" fill="none" xmlns="http://www.w3.org/2000/svg">
<path fill-rule="evenodd" clip-rule="evenodd" d="M22 10C22 9.44772 21.5523 9 21 9H19.9549C19.9108 8.47561 19.8236 8.08558 19.6512 7.74723C19.3444 7.14511 18.8549 6.65557 18.2528 6.34878C17.5683 6 16.6722 6 14.88 6H7.12C5.32783 6 4.43175 6 3.74723 6.34878C3.14511 6.65557 2.65557 7.14511 2.34878 7.74723C2 8.43175 2 9.32783 2 11.12V12.88C2 14.6722 2 15.5683 2.34878 16.2528C2.65557 16.8549 3.14511 17.3444 3.74723 17.6512C4.43175 18 5.32783 18 7.12 18H14.88C16.6722 18 17.5683 18 18.2528 17.6512C18.8549 17.3444 19.3444 16.8549 19.6512 16.2528C19.8236 15.9144 19.9108 15.5244 19.9549 15H21C21.5523 15 22 14.5523 22 14V10ZM16.5 7.5C17.6046 7.5 18.5 8.39543 18.5 9.5V14.5C18.5 15.6046 17.6046 16.5 16.5 16.5H5.5C4.39543 16.5 3.5 15.6046 3.5 14.5V9.5C3.5 8.39543 4.39543 7.5 5.5 7.5H16.5ZM8.0644 12.2656C7.90248 12.4892 8.06452 12.9663 8.34311 12.9663H11.0512L10.0294 15.7512C9.98407 16.0996 10.4409 16.2764 10.6478 15.9906L14.5287 11.6673C14.6907 11.4437 14.5383 10.9663 14.2598 10.9663H11.5196L12.5098 8.18177C12.5552 7.83341 12.0984 7.65657 11.8914 7.94237L8.0644 12.2656Z" fill="white"/>
</svg>
