<svg width="24" height="24" viewBox="0 0 24 24" fill="none" xmlns="http://www.w3.org/2000/svg">
<path fill-rule="evenodd" clip-rule="evenodd" d="M21 9C21.5523 9 22 9.44772 22 10V14C22 14.5523 21.5523 15 21 15H19.9549C19.9108 15.5244 19.8236 15.9144 19.6512 16.2528C19.3444 16.8549 18.8549 17.3444 18.2528 17.6512C17.5683 18 16.6722 18 14.88 18H7.12C5.32783 18 4.43175 18 3.74723 17.6512C3.14511 17.3444 2.65557 16.8549 2.34878 16.2528C2 15.5683 2 14.6722 2 12.88V11.12C2 9.32783 2 8.43175 2.34878 7.74723C2.65557 7.14511 3.14511 6.65557 3.74723 6.34878C4.43175 6 5.32783 6 7.12 6H14.88C16.6722 6 17.5683 6 18.2528 6.34878C18.8549 6.65557 19.3444 7.14511 19.6512 7.74723C19.8236 8.08558 19.9108 8.47561 19.9549 9H21ZM18.5 9.5C18.5 8.39543 17.6046 7.5 16.5 7.5H5.5C4.39543 7.5 3.5 8.39543 3.5 9.5V14.5C3.5 15.6046 4.39543 16.5 5.5 16.5H16.5C17.6046 16.5 18.5 15.6046 18.5 14.5V9.5Z" fill="white"/>
<path d="M4.5 9C4.5 8.72386 4.72386 8.5 5 8.5H5.5C5.77614 8.5 6 8.72386 6 9V15C6 15.2761 5.77614 15.5 5.5 15.5H5C4.72386 15.5 4.5 15.2761 4.5 15V9Z" fill="white"/>
<path d="M9.09961 9C9.09961 8.72386 9.32347 8.5 9.59961 8.5H10.0996C10.3758 8.5 10.5996 8.72386 10.5996 9V15C10.5996 15.2761 10.3758 15.5 10.0996 15.5H9.59961C9.32347 15.5 9.09961 15.2761 9.09961 15V9Z" fill="white"/>
<path d="M6.7998 9C6.7998 8.72386 7.02366 8.5 7.2998 8.5H7.7998C8.07595 8.5 8.2998 8.72386 8.2998 9V15C8.2998 15.2761 8.07595 15.5 7.7998 15.5H7.2998C7.02366 15.5 6.7998 15.2761 6.7998 15V9Z" fill="white"/>
<path d="M11.3994 9C11.3994 8.72386 11.6233 8.5 11.8994 8.5H12.3994C12.6756 8.5 12.8994 8.72386 12.8994 9V15C12.8994 15.2761 12.6756 15.5 12.3994 15.5H11.8994C11.6233 15.5 11.3994 15.2761 11.3994 15V9Z" fill="white"/>
</svg>
