<svg width="24" height="24" viewBox="0 0 24 24" fill="none" xmlns="http://www.w3.org/2000/svg">
<path fill-rule="evenodd" clip-rule="evenodd" d="M4.77564 7.93691C6.24836 5.40168 8.99146 3.69974 12.1312 3.69974C13.0979 3.69974 14.0255 3.86083 14.8894 4.15703C15.2812 4.29137 15.7077 4.08264 15.8421 3.69081C15.9764 3.29899 15.7677 2.87245 15.3759 2.73811C14.3575 2.38894 13.2656 2.19974 12.1312 2.19974C8.43535 2.19974 5.20874 4.20509 3.4786 7.18346C3.32585 7.44641 3.18472 7.71701 3.05592 7.99454C2.88155 8.37026 3.04478 8.8162 3.4205 8.99057C3.79622 9.16494 4.24216 9.00171 4.41653 8.62599C4.52592 8.39028 4.64582 8.16039 4.77564 7.93691ZM22.0027 10.593C21.9366 10.1841 21.5515 9.90618 21.1426 9.97226C20.7337 10.0383 20.4558 10.4234 20.5219 10.8323C20.5938 11.277 20.6312 11.7338 20.6312 12.1997C20.6312 16.8942 16.8256 20.6997 12.1312 20.6997C8.99146 20.6997 6.24836 18.9978 4.77564 16.4626C4.63844 16.2264 4.51231 15.983 4.39796 15.7332C4.22556 15.3566 3.78048 15.191 3.40385 15.3634C3.02722 15.5358 2.86165 15.9809 3.03404 16.3575C3.16869 16.6517 3.31716 16.9381 3.4786 17.216C5.20874 20.1944 8.43535 22.1997 12.1312 22.1997C17.654 22.1997 22.1312 17.7226 22.1312 12.1997C22.1312 11.6533 22.0873 11.1166 22.0027 10.593ZM8.8812 11.1997C9.57155 11.1997 10.1312 10.6401 10.1312 9.94974C10.1312 9.25939 9.57155 8.69974 8.8812 8.69974C8.19084 8.69974 7.6312 9.25939 7.6312 9.94974C7.6312 10.6401 8.19084 11.1997 8.8812 11.1997ZM16.6312 9.94974C16.6312 10.6401 16.0716 11.1997 15.3812 11.1997C14.6908 11.1997 14.1312 10.6401 14.1312 9.94974C14.1312 9.25939 14.6908 8.69974 15.3812 8.69974C16.0716 8.69974 16.6312 9.25939 16.6312 9.94974ZM8.45054 14.3247C8.24343 13.966 7.78474 13.8431 7.42602 14.0502C7.0673 14.2573 6.9444 14.716 7.1515 15.0747C7.65617 15.9489 8.38204 16.6747 9.25615 17.1794C10.1303 17.6841 11.1218 17.9497 12.1311 17.9497C13.1405 17.9497 14.132 17.6841 15.0061 17.1794C15.8803 16.6747 16.6061 15.9489 17.1108 15.0747C17.3179 14.716 17.195 14.2573 16.8363 14.0502C16.4776 13.8431 16.0189 13.966 15.8118 14.3247C15.4387 14.9708 14.9022 15.5073 14.2561 15.8804C13.6101 16.2534 12.8772 16.4497 12.1311 16.4497C11.3851 16.4497 10.6522 16.2534 10.0061 15.8804C9.36007 15.5073 8.82356 14.9708 8.45054 14.3247Z" fill="white" fill-opacity="0.96"/>
<path d="M19.9938 1.87185C20.0692 1.64265 20.3934 1.64265 20.4688 1.87185L20.7479 2.72056C21.0456 3.62562 21.7554 4.33548 22.6605 4.63313L23.5092 4.91226C23.7384 4.98764 23.7384 5.31185 23.5092 5.38723L22.6605 5.66636C21.7554 5.96401 21.0456 6.67387 20.7479 7.57893L20.4688 8.42764C20.3934 8.65684 20.0692 8.65684 19.9938 8.42764L19.7147 7.57893C19.417 6.67387 18.7072 5.96401 17.8021 5.66636L16.9534 5.38723C16.7242 5.31185 16.7242 4.98764 16.9534 4.91226L17.8021 4.63313C18.7072 4.33548 19.417 3.62561 19.7147 2.72056L19.9938 1.87185Z" fill="white" fill-opacity="0.96"/>
<path d="M2.53017 9.71947C2.58817 9.53139 2.8544 9.53139 2.9124 9.71947L3.11684 10.3824C3.31176 11.0145 3.80657 11.5093 4.43863 11.7042L5.10156 11.9086C5.28964 11.9666 5.28964 12.2329 5.10156 12.2909L4.43863 12.4953C3.80657 12.6902 3.31176 13.185 3.11684 13.8171L2.9124 14.48C2.8544 14.6681 2.58817 14.6681 2.53017 14.48L2.32573 13.8171C2.13081 13.185 1.636 12.6902 1.00394 12.4953L0.341012 12.2909C0.152931 12.2329 0.152931 11.9666 0.341012 11.9086L1.00394 11.7042C1.636 11.5093 2.13081 11.0145 2.32573 10.3824L2.53017 9.71947Z" fill="white" fill-opacity="0.96"/>
</svg>
