<svg width="24" height="24" viewBox="0 0 24 24" fill="none" xmlns="http://www.w3.org/2000/svg">
<path fill-rule="evenodd" clip-rule="evenodd" d="M17.3122 3.73515C17.3278 3.73 17.3434 3.72469 17.3589 3.71922C15.8221 2.75656 14.0049 2.20004 12.0577 2.20004C7.96499 2.20004 4.44653 4.6587 2.89876 8.17957C3.20598 8.2555 3.48062 8.47463 3.59979 8.83696L3.81704 9.49754C4.04028 10.1763 4.57268 10.7087 5.25147 10.932L5.91206 11.1492C6.82883 11.4507 6.82883 12.7476 5.91206 13.0491L5.25147 13.2664C4.57268 13.4896 4.04028 14.022 3.81704 14.7008L3.59979 15.3614C3.47046 15.7546 3.15798 15.9792 2.81948 16.0351C4.32381 19.6548 7.89352 22.2 12.0577 22.2C17.5805 22.2 22.0577 17.7229 22.0577 12.2C22.0577 10.9247 21.819 9.7051 21.3837 8.58353L21.1112 9.41204C20.8097 10.3288 19.5129 10.3288 19.2114 9.41204L18.7466 7.99895C18.5234 7.32015 17.991 6.78776 17.3122 6.56451L15.8991 6.09977C14.9823 5.79826 14.9823 4.50139 15.8991 4.19989L17.3122 3.73515ZM8.8077 11.2C9.49806 11.2 10.0577 10.6404 10.0577 9.95004C10.0577 9.25968 9.49806 8.70004 8.8077 8.70004C8.11735 8.70004 7.5577 9.25968 7.5577 9.95004C7.5577 10.6404 8.11735 11.2 8.8077 11.2ZM15.3077 11.2C15.9981 11.2 16.5577 10.6404 16.5577 9.95004C16.5577 9.25968 15.9981 8.70004 15.3077 8.70004C14.6173 8.70004 14.0577 9.25968 14.0577 9.95004C14.0577 10.6404 14.6173 11.2 15.3077 11.2ZM7.35262 14.0505C7.71134 13.8434 8.17004 13.9663 8.37714 14.325C8.75016 14.9711 9.28667 15.5076 9.93275 15.8806C10.5788 16.2537 11.3117 16.45 12.0578 16.45C12.8038 16.45 13.5367 16.2537 14.1827 15.8806C14.8288 15.5076 15.3653 14.9711 15.7384 14.325C15.9455 13.9663 16.4042 13.8434 16.7629 14.0505C17.1216 14.2576 17.2445 14.7163 17.0374 15.075C16.5327 15.9491 15.8069 16.675 14.9327 17.1797C14.0586 17.6844 13.0671 17.95 12.0578 17.95C11.0484 17.95 10.0569 17.6844 9.18275 17.1797C8.30864 16.675 7.58277 15.9491 7.0781 15.075C6.871 14.7163 6.9939 14.2576 7.35262 14.0505Z" fill="white" fill-opacity="0.96"/>
<path d="M19.9238 1.87185C19.9992 1.64265 20.3234 1.64265 20.3988 1.87185L20.6779 2.72056C20.9756 3.62562 21.6855 4.33548 22.5905 4.63313L23.4392 4.91226C23.6684 4.98764 23.6684 5.31185 23.4392 5.38723L22.5905 5.66636C21.6855 5.96401 20.9756 6.67387 20.6779 7.57893L20.3988 8.42764C20.3234 8.65684 19.9992 8.65684 19.9238 8.42764L19.6447 7.57893C19.3471 6.67387 18.6372 5.96401 17.7321 5.66636L16.8834 5.38723C16.6542 5.31185 16.6542 4.98764 16.8834 4.91226L17.7321 4.63313C18.6372 4.33548 19.3471 3.62561 19.6447 2.72056L19.9238 1.87185Z" fill="white" fill-opacity="0.96"/>
<path d="M2.41226 9.82131C2.48764 9.59212 2.81185 9.59212 2.88723 9.82131L2.91887 9.91751C3.21652 10.8226 3.92639 11.5324 4.83144 11.8301L4.92764 11.8617C5.15684 11.9371 5.15684 12.2613 4.92764 12.3367L4.83144 12.3683C3.92639 12.666 3.21652 13.3758 2.91887 14.2809L2.88723 14.3771C2.81185 14.6063 2.48764 14.6063 2.41226 14.3771L2.38062 14.2809C2.08296 13.3758 1.3731 12.666 0.468044 12.3683L0.371846 12.3367C0.142653 12.2613 0.142653 11.9371 0.371846 11.8617L0.468044 11.8301C1.3731 11.5324 2.08296 10.8226 2.38062 9.91751L2.41226 9.82131Z" fill="white" fill-opacity="0.96"/>
</svg>
