<svg width="24" height="24" viewBox="0 0 24 24" fill="none" xmlns="http://www.w3.org/2000/svg">
<path fill-rule="evenodd" clip-rule="evenodd" d="M12 5.25C13.2613 5.25 14.3214 6.09999 14.6455 7.25781C14.6797 7.25305 14.7145 7.25 14.75 7.25H21.25C21.6642 7.25 22 7.58579 22 8C22 8.41421 21.6642 8.75 21.25 8.75H16.5801C18.0553 9.83262 19.1318 11.4248 19.5527 13.2676C20.929 13.4183 22 14.5836 22 16C22 17.5188 20.7688 18.75 19.25 18.75C17.7312 18.75 16.5 17.5188 16.5 16C16.5 14.9047 17.1416 13.9618 18.0684 13.5195C17.5998 11.5915 16.24 10.0133 14.4473 9.24902C13.992 10.1392 13.0685 10.75 12 10.75C10.8751 10.75 9.90937 10.0739 9.4834 9.10645C9.50474 9.15476 9.52781 9.20218 9.55176 9.24902C7.75935 10.0135 6.3991 11.5916 5.93066 13.5195C6.85781 13.9616 7.5 14.9044 7.5 16C7.5 17.5188 6.26878 18.75 4.75 18.75C3.23122 18.75 2 17.5188 2 16C2 14.5839 3.07047 13.4188 4.44629 13.2676C4.86718 11.4247 5.94465 9.83273 7.41992 8.75H2.75C2.33579 8.75 2 8.41421 2 8C2 7.58579 2.33579 7.25 2.75 7.25H9.25C9.28516 7.25 9.31965 7.25313 9.35352 7.25781C9.67758 6.09986 10.7386 5.25 12 5.25Z" fill="white"/>
</svg>
