<svg width="24" height="24" viewBox="0 0 24 24" fill="none" xmlns="http://www.w3.org/2000/svg">
<path d="M15.6775 16.0413V16.7431H16.3125V17.3918C16.1925 17.4237 16.0425 17.4609 15.8175 17.4609C15.1325 17.4609 14.8225 17.1313 14.8225 16.2646C14.8225 15.4352 15.1125 15.1003 15.8875 15.1003C16.2525 15.1003 16.5525 15.196 16.7925 15.3501V14.5154C16.6325 14.441 16.3225 14.3506 15.8325 14.3506C14.5025 14.3506 13.9775 14.9727 13.9775 16.3125C13.9775 17.6364 14.5325 18.2106 15.7525 18.2106C16.3425 18.2106 16.8075 18.0511 17.0275 17.9288V16.0413H15.6775Z" fill="white"/>
<path d="M10.2842 18.1407V14.4189H11.1692L12.3242 16.3649C12.3987 16.4933 12.4632 16.627 12.5248 16.7547C12.5499 16.8067 12.5746 16.8579 12.5992 16.9072C12.5842 16.7211 12.5742 16.5138 12.5742 16.3064V14.4189H13.3742V18.1407H12.5192L11.3542 16.1735C11.2785 16.0509 11.2055 15.898 11.135 15.7505C11.1077 15.6932 11.0807 15.6368 11.0542 15.5833C11.0562 15.6213 11.0585 15.6602 11.0608 15.6997C11.0697 15.8539 11.0792 16.018 11.0792 16.1788V18.1407H10.2842Z" fill="white"/>
<path fill-rule="evenodd" clip-rule="evenodd" d="M7 14.4308V18.1419H7.82V17.0839C7.95 17.0945 8.05 17.0998 8.18 17.0998C9.24 17.0998 9.705 16.6585 9.705 15.6962C9.705 14.7498 9.295 14.3936 8.19 14.3936C7.74238 14.3936 7.5025 14.4056 7.16177 14.4227C7.11048 14.4253 7.05691 14.428 7 14.4308ZM8.18 16.382C8.04 16.382 7.955 16.3767 7.82 16.3661V15.1273C7.95 15.1113 8.04 15.1113 8.175 15.1113C8.715 15.1113 8.86 15.3134 8.86 15.7387C8.86 16.1694 8.69 16.382 8.18 16.382Z" fill="white"/>
<path fill-rule="evenodd" clip-rule="evenodd" d="M8.71858 2.00098C8.04522 2.00097 7.49449 2.00096 7.04693 2.03753C6.58367 2.07538 6.16527 2.15611 5.77453 2.35521C5.163 2.66679 4.66582 3.16398 4.35423 3.77551C4.15514 4.16625 4.0744 4.58465 4.03655 5.04791C3.99998 5.49547 3.99999 6.04617 4 6.71955V17.2824C3.99999 17.9558 3.99998 18.5065 4.03655 18.954C4.0744 19.4173 4.15514 19.8357 4.35423 20.2264C4.66582 20.838 5.163 21.3352 5.77453 21.6467C6.16527 21.8458 6.58367 21.9266 7.04693 21.9644C7.49449 22.001 8.04519 22.001 8.71856 22.001H15.2814C15.9548 22.001 16.5055 22.001 16.9531 21.9644C17.4163 21.9266 17.8347 21.8458 18.2255 21.6467C18.837 21.3352 19.3342 20.838 19.6458 20.2264C19.8449 19.8357 19.9256 19.4173 19.9634 18.954C20 18.5065 20 17.9558 20 17.2824V8.75098C20 8.55207 19.921 8.3613 19.7803 8.22065L13.7803 2.22065C13.6397 2.08 13.4489 2.00098 13.25 2.00098H8.71858ZM6.45552 3.69172C6.59956 3.61832 6.79858 3.56282 7.16908 3.53255C7.54833 3.50156 8.03756 3.50098 8.75 3.50098H12.5V5.58141C12.5 6.11554 12.5 6.56142 12.5297 6.92565C12.5608 7.30553 12.6279 7.66219 12.7997 7.99945C13.0634 8.5169 13.4841 8.93759 14.0015 9.20125C14.3388 9.37309 14.6954 9.4402 15.0753 9.47124C15.4396 9.501 15.8854 9.50099 16.4196 9.50098H18.5V17.251C18.5 17.9634 18.4994 18.4526 18.4684 18.8319C18.4382 19.2024 18.3827 19.4014 18.3093 19.5455C18.1415 19.8747 17.8738 20.1425 17.5445 20.3102C17.4004 20.3836 17.2014 20.4391 16.8309 20.4694C16.4517 20.5004 15.9624 20.501 15.25 20.501H8.75C8.03756 20.501 7.54833 20.5004 7.16908 20.4694C6.79858 20.4391 6.59956 20.3836 6.45552 20.3102C6.12623 20.1425 5.85852 19.8747 5.69074 19.5455C5.61735 19.4014 5.56184 19.2024 5.53157 18.8319C5.50058 18.4526 5.5 17.9634 5.5 17.251V6.75098C5.5 6.03854 5.50058 5.54931 5.53157 5.17006C5.56184 4.79956 5.61735 4.60053 5.69074 4.45649C5.85852 4.12721 6.12623 3.85949 6.45552 3.69172ZM17.4393 8.00098L14 4.56164V5.55098C14 6.12341 14.0006 6.50762 14.0248 6.8035C14.0482 7.09062 14.0901 7.22791 14.1362 7.31847C14.2561 7.55367 14.4473 7.74489 14.6825 7.86474C14.7731 7.91088 14.9104 7.95276 15.1975 7.97622C15.4934 8.00039 15.8776 8.00098 16.45 8.00098H17.4393Z" fill="white"/>
</svg>
