<svg width="24" height="24" viewBox="0 0 24 24" fill="none" xmlns="http://www.w3.org/2000/svg">
<path fill-rule="evenodd" clip-rule="evenodd" d="M12.5 2.00608C12.3449 1.99982 12.1794 1.99992 11.997 2.00003L8.71858 2.00005C8.0452 2.00005 7.4945 2.00004 7.04693 2.03661C6.58367 2.07446 6.16527 2.15519 5.77453 2.35428C5.163 2.66587 4.66582 3.16306 4.35423 3.77459C4.15514 4.16533 4.0744 4.58372 4.03655 5.04699C3.99998 5.49455 3.99999 6.04526 4 6.71863V17.2815C3.99999 17.9549 3.99998 18.5056 4.03655 18.9531C4.0744 19.4164 4.15514 19.8348 4.35423 20.2255C4.66582 20.8371 5.163 21.3342 5.77453 21.6458C6.16527 21.8449 6.58367 21.9257 7.04693 21.9635C7.49449 22.0001 8.04519 22.0001 8.71856 22.0001H15.2814C15.9548 22.0001 16.5055 22.0001 16.9531 21.9635C17.4163 21.9257 17.8347 21.8449 18.2255 21.6458C18.837 21.3342 19.3342 20.8371 19.6458 20.2255C19.8449 19.8348 19.9256 19.4164 19.9634 18.9531C20 18.5056 20 17.955 20 17.2817L20 10.0031C20.0001 9.82073 20.0002 9.65504 19.994 9.50006H16.4196C15.8854 9.50007 15.4396 9.50008 15.0753 9.47032C14.6954 9.43928 14.3388 9.37217 14.0015 9.20033C13.4841 8.93668 13.0634 8.51598 12.7997 7.99854C12.6279 7.66127 12.5608 7.30462 12.5297 6.92473C12.5 6.5605 12.5 6.11465 12.5 5.5805V2.00608ZM15.0197 16.7376C15.3504 16.8506 15.6263 16.9448 15.6263 17.2096C15.6263 17.452 15.4513 17.6118 15.0363 17.6118C14.4762 17.6118 14.1013 17.3363 13.9213 17.1655V18.0856C14.1763 18.2454 14.6263 18.3501 15.0813 18.3501C16.0963 18.3501 16.5212 17.9203 16.5212 17.1765C16.5212 16.2859 15.8718 16.0748 15.3564 15.9073C15.0173 15.797 14.7362 15.7056 14.7362 15.452C14.7362 15.2482 14.8612 15.0884 15.3363 15.0884C15.7113 15.0884 16.0913 15.2372 16.3413 15.4245V14.5374C16.1013 14.4272 15.7163 14.3501 15.2712 14.3501C14.2712 14.3501 13.9062 14.7743 13.9062 15.4686C13.9062 16.3572 14.5245 16.5684 15.0197 16.7376ZM11.2852 18.2784V14.4217H12.1052V17.452H13.6452V18.2784H11.2852ZM8.52 16.3004L7.5 18.2784H8.44L9.125 16.9065L9.845 18.2784H10.81L9.75 16.2839L10.755 14.4217H9.82L9.16 15.7109L8.525 14.4217H7.575L8.52 16.3004Z" fill="white"/>
<path d="M14 5.55006V2.49984C14.2203 2.65909 14.4218 2.86086 14.6664 3.10571L18.8943 7.33369C19.1392 7.57826 19.341 7.7798 19.5002 8.00006H16.45C15.8776 8.00006 15.4934 7.99948 15.1975 7.9753C14.9104 7.95184 14.7731 7.90996 14.6825 7.86382C14.4473 7.74398 14.2561 7.55275 14.1362 7.31755C14.0901 7.22699 14.0482 7.08971 14.0248 6.80258C14.0006 6.5067 14 6.12249 14 5.55006Z" fill="white"/>
</svg>
