<svg width="24" height="24" viewBox="0 0 24 24" fill="none" xmlns="http://www.w3.org/2000/svg">
<path d="M12.5 2.00608V5.5805C12.5 6.11465 12.5 6.5605 12.5297 6.92473C12.5608 7.30462 12.6279 7.66127 12.7997 7.99854C13.0634 8.51598 13.4841 8.93668 14.0015 9.20033C14.3388 9.37217 14.6954 9.43928 15.0753 9.47032C15.4396 9.50008 15.8854 9.50007 16.4196 9.50006H19.994C20.0002 9.65504 20.0001 9.82047 20 10.0028L20 11.4982C19.2304 11.1772 18.3859 11 17.5 11C13.9101 11 11 13.9101 11 17.5C11 19.2465 11.6888 20.8322 12.8096 22.0001H8.71856C8.04519 22.0001 7.49449 22.0001 7.04693 21.9635C6.58367 21.9257 6.16527 21.8449 5.77453 21.6458C5.163 21.3342 4.66582 20.8371 4.35423 20.2255C4.15514 19.8348 4.0744 19.4164 4.03655 18.9531C3.99998 18.5056 3.99999 17.9549 4 17.2815V6.71864C3.99999 6.04526 3.99998 5.49455 4.03655 5.04699C4.0744 4.58372 4.15514 4.16533 4.35423 3.77459C4.66582 3.16306 5.163 2.66587 5.77453 2.35428C6.16527 2.15519 6.58367 2.07446 7.04693 2.03661C7.4945 2.00004 8.0452 2.00005 8.71858 2.00005L11.997 2.00003C12.1794 1.99992 12.3449 1.99982 12.5 2.00608Z" fill="white"/>
<path d="M14 2.49984V5.55006C14 6.12249 14.0006 6.5067 14.0248 6.80258C14.0482 7.08971 14.0901 7.22699 14.1362 7.31755C14.2561 7.55275 14.4473 7.74398 14.6825 7.86382C14.7731 7.90996 14.9104 7.95184 15.1975 7.9753C15.4934 7.99948 15.8776 8.00006 16.45 8.00006H19.5002C19.341 7.7798 19.1392 7.57826 18.8943 7.33369L14.6664 3.10572C14.4218 2.86087 14.2203 2.65909 14 2.49984Z" fill="white"/>
<path fill-rule="evenodd" clip-rule="evenodd" d="M17.4969 15.45C16.1196 15.45 14.9391 16.2278 14.3896 17.3403C14.3766 17.3666 14.3679 17.3844 14.3606 17.3998C14.3536 17.4145 14.3501 17.4229 14.348 17.4281C14.3461 17.433 14.3442 17.4378 14.3414 17.4517L14.341 17.4574C14.3403 17.4667 14.3399 17.4793 14.3398 17.4933C14.3398 17.5073 14.3403 17.5199 14.3409 17.5292L14.3413 17.5349C14.3441 17.5488 14.346 17.5536 14.3479 17.5585C14.35 17.5637 14.3535 17.5721 14.3604 17.5868C14.3677 17.6023 14.3764 17.62 14.3894 17.6464C14.9379 18.7613 16.1197 19.5411 17.4989 19.5411C18.8762 19.5411 20.0567 18.7633 20.6062 17.6508C20.6192 17.6245 20.628 17.6068 20.6353 17.5913C20.6422 17.5766 20.6457 17.5682 20.6478 17.563C20.6498 17.5581 20.6516 17.5533 20.6544 17.5395L20.6549 17.5337C20.6555 17.5244 20.656 17.5119 20.656 17.4978C20.656 17.4838 20.6556 17.4713 20.6549 17.4619L20.6545 17.4562C20.6517 17.4423 20.6499 17.4375 20.6479 17.4326C20.6459 17.4274 20.6423 17.419 20.6354 17.4043C20.6281 17.3888 20.6194 17.3711 20.6065 17.3448C20.0579 16.2299 18.8761 15.45 17.4969 15.45ZM18.6992 17.4987C18.6992 18.1663 18.1396 18.7074 17.4492 18.7074C16.7589 18.7074 16.1992 18.1663 16.1992 17.4987C16.1992 16.8312 16.7589 16.29 17.4492 16.29C18.1396 16.29 18.6992 16.8312 18.6992 17.4987Z" fill="white"/>
<path fill-rule="evenodd" clip-rule="evenodd" d="M17.5 23C20.5376 23 23 20.5376 23 17.5C23 14.4624 20.5376 12 17.5 12C14.4624 12 12 14.4624 12 17.5C12 20.5376 14.4624 23 17.5 23ZM13.493 16.8975C14.2106 15.4446 15.7381 14.45 17.4969 14.45C19.2581 14.45 20.7874 15.4473 21.5037 16.9033L21.509 16.9139C21.5577 17.0129 21.6087 17.1163 21.6389 17.28C21.6529 17.3558 21.656 17.4384 21.656 17.4986C21.6559 17.5587 21.6526 17.6414 21.6385 17.7172C21.6081 17.8808 21.557 17.9841 21.5081 18.0831L21.5028 18.0936C20.7852 19.5465 19.2577 20.5411 17.4989 20.5411C15.7377 20.5411 14.2085 19.5439 13.4921 18.0878L13.4869 18.0772C13.4381 17.9782 13.3871 17.8748 13.3569 17.7112C13.343 17.6354 13.3398 17.5527 13.3398 17.4925C13.3399 17.4324 13.3432 17.3497 13.3573 17.2739C13.3877 17.1104 13.4388 17.007 13.4878 16.9081L13.493 16.8975Z" fill="white"/>
</svg>
