<svg width="24" height="24" viewBox="0 0 24 24" fill="none" xmlns="http://www.w3.org/2000/svg">
<path d="M12.5 2.00608V5.5805C12.5 6.11465 12.5 6.5605 12.5297 6.92473C12.5608 7.30462 12.6279 7.66127 12.7997 7.99854C13.0634 8.51598 13.4841 8.93668 14.0015 9.20033C14.3388 9.37217 14.6954 9.43928 15.0753 9.47032C15.4396 9.50008 15.8854 9.50007 16.4196 9.50006H19.994C20.0002 9.65504 20.0001 9.82047 20 10.0028L20 11.4982C19.2304 11.1772 18.3859 11 17.5 11C13.9101 11 11 13.9101 11 17.5C11 19.2465 11.6888 20.8322 12.8096 22.0001H8.71856C8.04519 22.0001 7.49449 22.0001 7.04693 21.9635C6.58367 21.9257 6.16527 21.8449 5.77453 21.6458C5.163 21.3342 4.66582 20.8371 4.35423 20.2255C4.15514 19.8348 4.0744 19.4164 4.03655 18.9531C3.99998 18.5056 3.99999 17.9549 4 17.2815V6.71864C3.99999 6.04526 3.99998 5.49455 4.03655 5.04699C4.0744 4.58372 4.15514 4.16533 4.35423 3.77459C4.66582 3.16306 5.163 2.66587 5.77453 2.35428C6.16527 2.15519 6.58367 2.07446 7.04693 2.03661C7.4945 2.00004 8.0452 2.00005 8.71858 2.00005L11.997 2.00003C12.1794 1.99992 12.3449 1.99982 12.5 2.00608Z" fill="white"/>
<path d="M14 2.49984V5.55006C14 6.12249 14.0006 6.5067 14.0248 6.80258C14.0482 7.08971 14.0901 7.22699 14.1362 7.31755C14.2561 7.55275 14.4473 7.74398 14.6825 7.86382C14.7731 7.90996 14.9104 7.95184 15.1975 7.9753C15.4934 7.99948 15.8776 8.00006 16.45 8.00006H19.5002C19.341 7.7798 19.1392 7.57826 18.8943 7.33369L14.6664 3.10572C14.4218 2.86087 14.2203 2.65909 14 2.49984Z" fill="white"/>
<path fill-rule="evenodd" clip-rule="evenodd" d="M17.5 23C20.5376 23 23 20.5376 23 17.5C23 14.4624 20.5376 12 17.5 12C14.4624 12 12 14.4624 12 17.5C12 20.5376 14.4624 23 17.5 23ZM20.9641 16.5C21.1021 16.2609 21.0202 15.9551 20.781 15.817C20.5419 15.6789 20.2361 15.7609 20.098 16C19.8906 16.3593 19.6114 16.6707 19.2793 16.9153C19.1899 16.9812 19.0967 17.0422 19 17.0981C18.5439 17.3614 18.0266 17.5 17.5 17.5C16.9733 17.5 16.456 17.3614 16 17.0981C15.9032 17.0422 15.81 16.9812 15.7206 16.9153C15.3885 16.6707 15.1093 16.3593 14.9019 16C14.7638 15.7609 14.458 15.6789 14.2189 15.817C13.9797 15.9551 13.8978 16.2609 14.0358 16.5C14.2155 16.8112 14.4355 17.0954 14.689 17.3458L13.8884 18.1464C13.6931 18.3417 13.6931 18.6583 13.8884 18.8536C14.0837 19.0488 14.4002 19.0488 14.5955 18.8536L15.4905 17.9586L15.5 17.9641C15.9628 18.2313 16.473 18.4022 17 18.4686V19.5C17 19.7761 17.2238 20 17.5 20C17.7761 20 18 19.7761 18 19.5V18.4686C18.5269 18.4022 19.0371 18.2313 19.5 17.9641L19.5095 17.9586L20.4044 18.8536C20.5997 19.0488 20.9163 19.0488 21.1115 18.8536C21.3068 18.6583 21.3068 18.3417 21.1115 18.1464L20.3109 17.3458C20.5644 17.0954 20.7844 16.8112 20.9641 16.5Z" fill="white"/>
</svg>
