<svg width="24" height="24" viewBox="0 0 24 24" fill="none" xmlns="http://www.w3.org/2000/svg">
<path d="M11.0095 16.3651C11.1445 16.3757 11.2295 16.3811 11.3695 16.3811C11.8795 16.3811 12.0495 16.1684 12.0495 15.7377C12.0495 15.3124 11.9045 15.1103 11.3645 15.1103C11.2295 15.1103 11.1395 15.1103 11.0095 15.1263V16.3651Z" fill="white"/>
<path fill-rule="evenodd" clip-rule="evenodd" d="M12.5 2.00608C12.3449 1.99982 12.1794 1.99992 11.997 2.00003L8.71858 2.00005C8.0452 2.00005 7.4945 2.00004 7.04693 2.03661C6.58367 2.07446 6.16527 2.15519 5.77453 2.35428C5.163 2.66587 4.66582 3.16306 4.35423 3.77459C4.15514 4.16533 4.0744 4.58372 4.03655 5.04699C3.99998 5.49455 3.99999 6.04526 4 6.71863V17.2815C3.99999 17.9549 3.99998 18.5056 4.03655 18.9531C4.0744 19.4164 4.15514 19.8348 4.35423 20.2255C4.66582 20.8371 5.163 21.3342 5.77453 21.6458C6.16527 21.8449 6.58367 21.9257 7.04693 21.9635C7.49449 22.0001 8.04519 22.0001 8.71856 22.0001H15.2814C15.9548 22.0001 16.5055 22.0001 16.9531 21.9635C17.4163 21.9257 17.8347 21.8449 18.2255 21.6458C18.837 21.3342 19.3342 20.8371 19.6458 20.2255C19.8449 19.8348 19.9256 19.4164 19.9634 18.9531C20 18.5056 20 17.955 20 17.2817L20 10.0031C20.0001 9.82073 20.0002 9.65504 19.994 9.50006H16.4196C15.8854 9.50007 15.4396 9.50008 15.0753 9.47032C14.6954 9.43928 14.3388 9.37217 14.0015 9.20033C13.4841 8.93668 13.0634 8.51598 12.7997 7.99854C12.6279 7.66127 12.5608 7.30462 12.5297 6.92473C12.5 6.5605 12.5 6.11465 12.5 5.5805V2.00608ZM14.9676 16.0408V16.7427H15.6026V17.3913C15.4826 17.4232 15.3326 17.4604 15.1076 17.4604C14.4226 17.4604 14.1126 17.1308 14.1126 16.2641C14.1126 15.4347 14.4026 15.0998 15.1776 15.0998C15.5426 15.0998 15.8426 15.1955 16.0826 15.3497V14.5149C15.9226 14.4405 15.6126 14.3501 15.1226 14.3501C13.7926 14.3501 13.2676 14.9722 13.2676 16.312C13.2676 17.6359 13.8226 18.2101 15.0426 18.2101C15.6326 18.2101 16.0976 18.0506 16.3176 17.9283V16.0408H14.9676ZM10.1895 18.1409V14.4298L10.3512 14.4217C10.692 14.4046 10.9318 14.3926 11.3795 14.3926C12.4845 14.3926 12.8945 14.7488 12.8945 15.6952C12.8945 16.6575 12.4295 17.0988 11.3695 17.0988C11.2395 17.0988 11.1395 17.0935 11.0095 17.0829V18.1409H10.1895ZM8.55941 14.4189V16.8913C8.55941 17.3166 8.43941 17.4229 8.13941 17.4229C7.94441 17.4229 7.73941 17.3432 7.64941 17.2634V18.0982C7.80441 18.146 7.97941 18.1832 8.26441 18.1832C9.08941 18.1832 9.37941 17.8483 9.37941 17.0029V14.4189H8.55941Z" fill="white"/>
<path d="M14 5.55006V2.49984C14.2203 2.65909 14.4218 2.86086 14.6664 3.10571L18.8943 7.33369C19.1392 7.57826 19.341 7.7798 19.5002 8.00006H16.45C15.8776 8.00006 15.4934 7.99948 15.1975 7.9753C14.9104 7.95184 14.7731 7.90996 14.6825 7.86382C14.4473 7.74398 14.2561 7.55275 14.1362 7.31755C14.0901 7.22699 14.0482 7.08971 14.0248 6.80258C14.0006 6.5067 14 6.12249 14 5.55006Z" fill="white"/>
</svg>
