<svg width="24" height="24" viewBox="0 0 24 24" fill="none" xmlns="http://www.w3.org/2000/svg">
<path fill-rule="evenodd" clip-rule="evenodd" d="M12.5 2.00685V5.54981C12.5 6.09745 12.499 6.5537 12.5293 6.92481C12.5603 7.30452 12.6281 7.66093 12.7998 7.99806C13.0635 8.51549 13.4845 8.93655 14.002 9.2002C14.3391 9.37192 14.6955 9.43968 15.0752 9.47071C15.4463 9.50104 15.9025 9.50001 16.4502 9.50001H19.9932C19.9994 9.65504 20.0001 9.82053 20 10.0029V17.2813C20 17.9546 20.0004 18.5056 19.9639 18.9531C19.926 19.4164 19.8446 19.8349 19.6455 20.2256C19.334 20.837 18.837 21.3339 18.2256 21.6455C17.8349 21.8446 17.4164 21.926 16.9531 21.9639C16.5056 22.0004 15.9546 22 15.2813 22H8.71875C8.04538 22 7.49444 22.0004 7.04688 21.9639C6.58363 21.926 6.16515 21.8446 5.77442 21.6455C5.16305 21.3339 4.66605 20.837 4.35449 20.2256C4.15541 19.8349 4.07398 19.4164 4.03613 18.9531C3.99957 18.5056 3.99999 17.9546 4 17.2813V6.71876C3.99999 6.04539 3.99957 5.49444 4.03613 5.04688C4.07399 4.58366 4.15542 4.16513 4.35449 3.77442C4.66606 3.16308 5.16306 2.66605 5.77442 2.3545C6.16515 2.15542 6.58363 2.07399 7.04688 2.03614C7.49444 1.99957 8.04537 2 8.71875 2.00001H11.9971C12.1795 1.9999 12.345 2.00059 12.5 2.00685ZM8.04492 16.415L7.07031 18.2002H7.96973L8.55957 17.0254L9.13965 18.2002H10.0703L9.09473 16.4004L10.0205 14.7002H9.12988L8.58008 15.79L8.03027 14.7002H7.12012L8.04492 16.415ZM10.5439 18.2002H11.2939V16.25C11.2939 16.15 11.2908 16.0667 11.2842 16C11.2808 15.9333 11.2762 15.85 11.2695 15.75H11.2891L11.334 15.8848C11.3473 15.9214 11.3591 15.96 11.3691 16C11.3825 16.0367 11.3958 16.0753 11.4092 16.1152C11.4258 16.1552 11.4449 16.2001 11.4648 16.25L11.9443 17.5H12.5947L13.0742 16.25C13.0942 16.2001 13.1107 16.1552 13.124 16.1152L13.2041 15.8848L13.249 15.75H13.2695C13.2595 15.85 13.2524 15.9333 13.249 16C13.2457 16.0667 13.2441 16.15 13.2441 16.25V18.2002H13.9941V14.7002H13.0244L12.2842 16.625L11.5439 14.7002H10.5439V18.2002ZM14.792 18.2002H16.9424V17.5H15.5723V14.7002H14.792V18.2002Z" fill="white"/>
<path d="M14 2.50294C14.2196 2.66196 14.4221 2.86131 14.666 3.10548L18.8945 7.33399C19.1387 7.57788 19.338 7.78043 19.4971 8.00001H16.4502C15.8778 8.00001 15.4931 7.99977 15.1973 7.9756C14.9103 7.95213 14.7732 7.90942 14.6826 7.86329C14.4475 7.74346 14.2565 7.5525 14.1367 7.31739C14.0906 7.22685 14.0479 7.08967 14.0244 6.80274C14.0002 6.50688 14 6.12218 14 5.54981V2.50294Z" fill="white"/>
</svg>
