<svg width="24" height="24" viewBox="0 0 24 24" fill="none" xmlns="http://www.w3.org/2000/svg">
<path d="M8.58008 15.79L9.12989 14.7002H10.0205L9.09473 16.4004L10.0703 18.2002H9.13965L8.56055 17.0254L7.96973 18.2002H7.07032L8.04492 16.415L7.12012 14.7002H8.03028L8.58008 15.79Z" fill="white"/>
<path d="M12.2842 16.625L13.0244 14.7002H13.9941V18.2002H13.2441V16.25C13.2441 16.15 13.2457 16.0667 13.249 16C13.2524 15.9333 13.2595 15.85 13.2695 15.75H13.249L13.2041 15.8848L13.124 16.1152C13.1107 16.1551 13.0942 16.2002 13.0742 16.25L12.5947 17.5H11.9443L11.4648 16.25C11.4449 16.2001 11.4258 16.1552 11.4092 16.1152C11.3958 16.0752 11.3825 16.0367 11.3691 16C11.3591 15.96 11.3473 15.9214 11.334 15.8848L11.2891 15.75H11.2695C11.2762 15.85 11.2808 15.9333 11.2842 16C11.2908 16.0667 11.2949 16.15 11.2949 16.25V18.2002H10.5449V14.7002H11.5449L12.2842 16.625Z" fill="white"/>
<path d="M15.5723 17.5H16.9424V18.2002H14.793V14.7002H15.5723V17.5Z" fill="white"/>
<path fill-rule="evenodd" clip-rule="evenodd" d="M13.25 2C13.4489 2 13.6396 2.07908 13.7803 2.21973L19.7803 8.21973C19.9209 8.36038 20 8.55109 20 8.75V17.25C20 17.9377 20.001 18.4986 19.9639 18.9531C19.926 19.4164 19.8446 19.8349 19.6455 20.2256C19.334 20.837 18.837 21.3339 18.2256 21.6455C17.8349 21.8446 17.4164 21.926 16.9531 21.9639C16.4986 22.001 15.9377 22 15.25 22H8.75C8.06232 22 7.50138 22.001 7.04688 21.9639C6.58363 21.926 6.16515 21.8446 5.77442 21.6455C5.16305 21.3339 4.66605 20.837 4.35449 20.2256C4.15541 19.8349 4.07399 19.4164 4.03614 18.9531C3.999 18.4986 4 17.9377 4 17.25V6.75C4 6.06232 3.999 5.50138 4.03614 5.04688C4.07399 4.58363 4.15541 4.16515 4.35449 3.77442C4.66606 3.16305 5.16305 2.66606 5.77442 2.35449C6.16515 2.15541 6.58363 2.07399 7.04688 2.03614C7.50138 1.999 8.06232 2 8.75 2H13.25ZM8.75 3.5C8.03756 3.5 7.5482 3.50027 7.16895 3.53125C6.79852 3.56153 6.59911 3.61705 6.45508 3.69043C6.12598 3.85818 5.85818 4.12598 5.69043 4.45508C5.61705 4.59911 5.56153 4.79852 5.53125 5.16895C5.50027 5.5482 5.5 6.03756 5.5 6.75V17.25C5.5 17.9624 5.50027 18.4518 5.53125 18.8311C5.56153 19.2015 5.61705 19.4009 5.69043 19.5449C5.85818 19.874 6.12598 20.1418 6.45508 20.3096C6.5991 20.383 6.79852 20.4385 7.16895 20.4688C7.5482 20.4997 8.03756 20.5 8.75 20.5H15.25C15.9624 20.5 16.4518 20.4997 16.8311 20.4688C17.2015 20.4385 17.4009 20.383 17.5449 20.3096C17.874 20.1418 18.1418 19.874 18.3096 19.5449C18.383 19.4009 18.4385 19.2015 18.4688 18.8311C18.4997 18.4518 18.5 17.9624 18.5 17.25V9.5H16.4502C15.9025 9.5 15.4463 9.50103 15.0752 9.47071C14.6955 9.43967 14.3391 9.37191 14.002 9.2002C13.4845 8.93655 13.0635 8.51549 12.7998 7.99805C12.6281 7.66091 12.5603 7.30454 12.5293 6.92481C12.499 6.55368 12.5 6.09748 12.5 5.54981V3.5H8.75ZM14 5.54981C14 6.12223 14.0002 6.50686 14.0244 6.80274C14.0479 7.08973 14.0906 7.22684 14.1367 7.31739C14.2565 7.5525 14.4475 7.74346 14.6826 7.86328C14.7732 7.90942 14.9103 7.95213 15.1973 7.97559C15.4931 7.99976 15.8778 8 16.4502 8H17.4395L14 4.56055V5.54981Z" fill="white"/>
</svg>
