<svg width="24" height="24" viewBox="0 0 24 24" fill="none" xmlns="http://www.w3.org/2000/svg">
<path d="M7.38574 15.3701C7.88463 15.3701 8.01846 15.5584 8.01856 15.9551C8.01856 16.357 7.86194 16.5557 7.39063 16.5557C7.26124 16.5557 7.18238 16.551 7.05762 16.541V15.3848C7.1777 15.3699 7.2611 15.3701 7.38574 15.3701Z" fill="white"/>
<path d="M10.3564 15.3701C10.8549 15.3702 10.9892 15.5585 10.9893 15.9551C10.9893 16.357 10.8317 16.5557 10.3604 16.5557C10.2313 16.5557 10.1527 16.5509 10.0283 16.541V15.3848C10.1482 15.3699 10.2318 15.3701 10.3564 15.3701Z" fill="white"/>
<path fill-rule="evenodd" clip-rule="evenodd" d="M12.5 2.00685V5.54981C12.5 6.09745 12.499 6.5537 12.5293 6.92481C12.5603 7.30452 12.6281 7.66094 12.7998 7.99806C13.0634 8.51548 13.4845 8.93655 14.002 9.2002C14.3391 9.37191 14.6955 9.43968 15.0752 9.47071C15.4463 9.50103 15.9025 9.50001 16.4502 9.50001H19.9932C19.9994 9.65504 20.0001 9.82053 20 10.0029V17.2813C20 17.9546 20.0004 18.5056 19.9639 18.9531C19.926 19.4164 19.8446 19.8349 19.6455 20.2256C19.334 20.837 18.837 21.3339 18.2256 21.6455C17.8349 21.8446 17.4164 21.926 16.9531 21.9639C16.5056 22.0004 15.9546 22 15.2813 22H8.71875C8.04539 22 7.49443 22.0004 7.04688 21.9639C6.58363 21.926 6.16514 21.8446 5.77442 21.6455C5.16305 21.3339 4.66604 20.837 4.35449 20.2256C4.15542 19.8349 4.07398 19.4164 4.03613 18.9531C3.99957 18.5056 3.99999 17.9546 4 17.2813V6.71876C3.99999 6.04539 3.99957 5.49444 4.03613 5.04688C4.07399 4.58366 4.15541 4.16514 4.35449 3.77442C4.66606 3.16307 5.16305 2.66605 5.77442 2.3545C6.16515 2.15541 6.58363 2.07399 7.04688 2.03614C7.49444 1.99958 8.04538 2 8.71875 2.00001H11.9971C12.1795 1.9999 12.345 2.00059 12.5 2.00685ZM12.0146 15.4522H12.9238V18.2002H13.6572V15.4522H14.5664V14.7002H12.0146V15.4522ZM15.6465 16.5186L14.7285 18.2002H15.5742L16.1904 17.1055L16.8389 18.2002H17.707L16.7529 16.5029L17.6572 14.7002H16.8164L16.2227 15.9483L15.6504 14.7002H14.7959L15.6465 16.5186ZM7.39942 14.7002C6.92373 14.7002 6.70172 14.7145 6.29981 14.7344V18.1983H7.05762V17.2109C7.17776 17.2209 7.27048 17.2256 7.39063 17.2256C8.37017 17.2256 8.79973 16.814 8.79981 15.916C8.79979 15.0328 8.42066 14.7002 7.39942 14.7002ZM10.3701 14.7002C9.89416 14.7002 9.67156 14.7145 9.26953 14.7344V18.1983H10.0283V17.2109C10.1482 17.2208 10.2405 17.2256 10.3604 17.2256C11.3399 17.2256 11.7695 16.814 11.7695 15.916C11.7695 15.0328 11.3911 14.7003 10.3701 14.7002Z" fill="white"/>
<path d="M14 2.50294C14.2196 2.66195 14.4221 2.86132 14.666 3.10548L18.8945 7.33399C19.1387 7.57787 19.338 7.78043 19.4971 8.00001H16.4502C15.8778 8.00001 15.4931 7.99977 15.1973 7.9756C14.9103 7.95213 14.7732 7.90942 14.6826 7.86329C14.4475 7.74346 14.2565 7.55249 14.1367 7.31739C14.0906 7.22685 14.0479 7.08965 14.0244 6.80274C14.0002 6.50688 14 6.12218 14 5.54981V2.50294Z" fill="white"/>
</svg>
