<svg width="24" height="24" viewBox="0 0 24 24" fill="none" xmlns="http://www.w3.org/2000/svg">
<path d="M17.0492 15.4434V14.5258C16.8842 14.4654 16.5692 14.3555 16.0992 14.3555C14.8492 14.3555 14.3242 14.9983 14.3242 16.3829C14.3242 17.7291 14.8392 18.3445 16.0942 18.3445C16.5642 18.3445 16.9092 18.2291 17.0892 18.1357V17.2401C16.9142 17.3774 16.5942 17.5313 16.1592 17.5313C15.5092 17.5313 15.1942 17.2456 15.1942 16.3335C15.1942 15.4654 15.4892 15.1687 16.1192 15.1687C16.5742 15.1687 16.8442 15.3115 17.0492 15.4434Z" fill="white"/>
<path fill-rule="evenodd" clip-rule="evenodd" d="M10.46 16.3501C10.46 14.9545 11.02 14.3501 12.2 14.3501C13.45 14.3501 13.92 14.96 13.92 16.3501C13.92 17.7952 13.325 18.3501 12.2 18.3501C11.07 18.3501 10.46 17.7512 10.46 16.3501ZM11.33 16.3556C11.33 17.3116 11.67 17.5699 12.215 17.5699C12.76 17.5699 13.055 17.2952 13.055 16.3556C13.055 15.4105 12.76 15.1303 12.18 15.1303C11.605 15.1303 11.33 15.46 11.33 16.3556Z" fill="white"/>
<path fill-rule="evenodd" clip-rule="evenodd" d="M7 14.4325V18.2622C7.395 18.2896 7.685 18.3061 8.12 18.3061C9.47 18.3061 10.06 17.6523 10.06 16.2567C10.06 15.0589 9.635 14.394 8.205 14.394C7.71 14.394 7.42 14.405 7 14.4325ZM8.16 17.5314C8.035 17.5314 7.94 17.5259 7.82 17.5094V15.1907C7.955 15.1743 8.07 15.1688 8.22 15.1688C8.95 15.1688 9.215 15.4984 9.215 16.3061C9.215 17.1743 8.91 17.5314 8.16 17.5314Z" fill="white"/>
<path fill-rule="evenodd" clip-rule="evenodd" d="M8.71858 2C8.04522 1.99999 7.49449 1.99999 7.04693 2.03655C6.58367 2.0744 6.16527 2.15514 5.77453 2.35423C5.163 2.66582 4.66582 3.163 4.35423 3.77453C4.15514 4.16527 4.0744 4.58367 4.03655 5.04693C3.99998 5.49449 3.99999 6.0452 4 6.71857V17.2814C3.99999 17.9548 3.99998 18.5055 4.03655 18.9531C4.0744 19.4163 4.15514 19.8347 4.35423 20.2255C4.66582 20.837 5.163 21.3342 5.77453 21.6458C6.16527 21.8449 6.58367 21.9256 7.04693 21.9634C7.49449 22 8.04519 22 8.71856 22H15.2814C15.9548 22 16.5055 22 16.9531 21.9634C17.4163 21.9256 17.8347 21.8449 18.2255 21.6458C18.837 21.3342 19.3342 20.837 19.6458 20.2255C19.8449 19.8347 19.9256 19.4163 19.9634 18.9531C20 18.5055 20 17.9548 20 17.2814V8.75C20 8.55109 19.921 8.36032 19.7803 8.21967L13.7803 2.21967C13.6397 2.07902 13.4489 2 13.25 2H8.71858ZM6.45552 3.69074C6.59956 3.61735 6.79858 3.56184 7.16908 3.53157C7.54833 3.50058 8.03756 3.5 8.75 3.5H12.5V5.58043C12.5 6.11457 12.5 6.56045 12.5297 6.92467C12.5608 7.30456 12.6279 7.66121 12.7997 7.99848C13.0634 8.51592 13.4841 8.93662 14.0015 9.20027C14.3388 9.37211 14.6954 9.43922 15.0753 9.47026C15.4396 9.50002 15.8854 9.50001 16.4196 9.5H18.5V17.25C18.5 17.9624 18.4994 18.4517 18.4684 18.8309C18.4382 19.2014 18.3827 19.4004 18.3093 19.5445C18.1415 19.8738 17.8738 20.1415 17.5445 20.3093C17.4004 20.3827 17.2014 20.4382 16.8309 20.4684C16.4517 20.4994 15.9624 20.5 15.25 20.5H8.75C8.03756 20.5 7.54833 20.4994 7.16908 20.4684C6.79858 20.4382 6.59956 20.3827 6.45552 20.3093C6.12623 20.1415 5.85852 19.8738 5.69074 19.5445C5.61735 19.4004 5.56184 19.2014 5.53157 18.8309C5.50058 18.4517 5.5 17.9624 5.5 17.25V6.75C5.5 6.03756 5.50058 5.54833 5.53157 5.16908C5.56184 4.79858 5.61735 4.59956 5.69074 4.45552C5.85852 4.12623 6.12623 3.85852 6.45552 3.69074ZM17.4393 8L14 4.56066V5.55C14 6.12243 14.0006 6.50664 14.0248 6.80252C14.0482 7.08965 14.0901 7.22693 14.1362 7.31749C14.2561 7.55269 14.4473 7.74392 14.6825 7.86376C14.7731 7.9099 14.9104 7.95179 15.1975 7.97524C15.4934 7.99942 15.8776 8 16.45 8H17.4393Z" fill="white"/>
</svg>
