<svg width="24" height="24" viewBox="0 0 24 24" fill="none" xmlns="http://www.w3.org/2000/svg">
<path fill-rule="evenodd" clip-rule="evenodd" d="M8.71858 2C8.04521 1.99999 7.49449 1.99998 7.04693 2.03655C6.58367 2.0744 6.16527 2.15514 5.77453 2.35423C5.163 2.66582 4.66582 3.163 4.35423 3.77453C4.15514 4.16527 4.0744 4.58367 4.03655 5.04693C3.99998 5.49449 3.99999 6.0452 4 6.71857V17.2814C3.99999 17.9548 3.99998 18.5055 4.03655 18.9531C4.0744 19.4163 4.15514 19.8347 4.35423 20.2255C4.66582 20.837 5.163 21.3342 5.77453 21.6458C6.16527 21.8449 6.58367 21.9256 7.04693 21.9634C7.49449 22 8.04519 22 8.71856 22H12.8096C12.3832 21.5557 12.0194 21.051 11.7322 20.5H8.75C8.03756 20.5 7.54833 20.4994 7.16908 20.4684C6.79858 20.4382 6.59956 20.3827 6.45552 20.3093C6.12623 20.1415 5.85852 19.8738 5.69074 19.5445C5.61735 19.4004 5.56184 19.2014 5.53157 18.8309C5.50058 18.4517 5.5 17.9624 5.5 17.25V6.75C5.5 6.03756 5.50058 5.54833 5.53157 5.16908C5.56184 4.79858 5.61735 4.59956 5.69074 4.45552C5.85852 4.12623 6.12623 3.85852 6.45552 3.69074C6.59956 3.61735 6.79858 3.56184 7.16908 3.53157C7.54833 3.50058 8.03756 3.5 8.75 3.5H12.5V5.58043C12.5 6.11459 12.5 6.56044 12.5297 6.92467C12.5608 7.30456 12.6279 7.66121 12.7997 7.99848C13.0634 8.51592 13.4841 8.93662 14.0015 9.20027C14.3388 9.37211 14.6954 9.43922 15.0753 9.47026C15.4396 9.50002 15.8854 9.50001 16.4196 9.5H18.5V11.0764C19.0232 11.1572 19.5258 11.3004 20 11.4982V8.75C20 8.55109 19.921 8.36032 19.7803 8.21967L13.7803 2.21967C13.6397 2.07902 13.4489 2 13.25 2H8.71858ZM17.4393 8L14 4.56066V5.55C14 6.12243 14.0006 6.50664 14.0248 6.80252C14.0482 7.08965 14.0901 7.22693 14.1362 7.31749C14.2561 7.55269 14.4473 7.74392 14.6825 7.86376C14.7731 7.9099 14.9104 7.95178 15.1975 7.97524C15.4934 7.99942 15.8776 8 16.45 8H17.4393Z" fill="white"/>
<path fill-rule="evenodd" clip-rule="evenodd" d="M17.5 23C20.5376 23 23 20.5376 23 17.5C23 14.4624 20.5376 12 17.5 12C14.4624 12 12 14.4624 12 17.5C12 20.5376 14.4624 23 17.5 23ZM20.9641 16.5C21.1021 16.2609 21.0202 15.9551 20.781 15.817C20.5419 15.6789 20.2361 15.7609 20.098 16C19.8906 16.3593 19.6114 16.6707 19.2793 16.9153C19.1899 16.9812 19.0967 17.0422 19 17.0981C18.5439 17.3614 18.0266 17.5 17.5 17.5C16.9733 17.5 16.456 17.3614 16 17.0981C15.9032 17.0422 15.81 16.9812 15.7206 16.9153C15.3885 16.6707 15.1093 16.3593 14.9019 16C14.7638 15.7609 14.458 15.6789 14.2189 15.817C13.9797 15.9551 13.8978 16.2609 14.0358 16.5C14.2155 16.8112 14.4355 17.0954 14.689 17.3458L13.8884 18.1464C13.6931 18.3417 13.6931 18.6583 13.8884 18.8536C14.0837 19.0488 14.4002 19.0488 14.5955 18.8536L15.4905 17.9586L15.5 17.9641C15.9628 18.2313 16.473 18.4022 17 18.4686V19.5C17 19.7761 17.2238 20 17.5 20C17.7761 20 18 19.7761 18 19.5V18.4686C18.5269 18.4022 19.0371 18.2313 19.5 17.9641L19.5095 17.9586L20.4044 18.8536C20.5997 19.0488 20.9163 19.0488 21.1115 18.8536C21.3068 18.6583 21.3068 18.3417 21.1115 18.1464L20.3109 17.3458C20.5644 17.0954 20.7844 16.8112 20.9641 16.5Z" fill="white"/>
</svg>
