<svg width="24" height="24" viewBox="0 0 24 24" fill="none" xmlns="http://www.w3.org/2000/svg">
<path fill-rule="evenodd" clip-rule="evenodd" d="M12 22C17.5228 22 22 17.5228 22 12C22 6.47715 17.5228 2 12 2C6.47715 2 2 6.47715 2 12C2 17.5228 6.47715 22 12 22ZM17.2742 16.2135L7.78649 6.72583C10.4368 4.60318 14.3162 4.77025 16.773 7.22703C19.2298 9.68381 19.3968 13.5632 17.2742 16.2135ZM6.72583 7.78649L16.2135 17.2742C13.5632 19.3968 9.68381 19.2298 7.22703 16.773C4.77025 14.3162 4.60318 10.4368 6.72583 7.78649ZM17.8336 6.16637C14.6118 2.94454 9.38819 2.94454 6.16637 6.16637C2.94454 9.38819 2.94454 14.6118 6.16637 17.8336C9.38819 21.0555 14.6118 21.0555 17.8336 17.8336C21.0555 14.6118 21.0555 9.38819 17.8336 6.16637Z" fill="white"/>
</svg>
