<svg width="24" height="24" viewBox="0 0 24 24" fill="none" xmlns="http://www.w3.org/2000/svg">
<path fill-rule="evenodd" clip-rule="evenodd" d="M11.6614 2.32403C11.9213 2.19914 12.2297 2.23425 12.4548 2.41436L17.3204 6.30679L20.7163 3.67928C21.0439 3.42581 21.5149 3.4859 21.7684 3.81351C22.0219 4.14111 21.9618 4.61216 21.6342 4.86564L18.355 7.40284C18.355 7.40291 18.355 7.40297 18.355 7.40304L5.86765 17.0648C5.86761 17.0648 5.86757 17.0647 5.86753 17.0647L3.83887 18.6343C3.51127 18.8878 3.04022 18.8277 2.78674 18.5001C2.53327 18.1725 2.59336 17.7014 2.92096 17.448L10.3808 11.6761L5.89278 8.08566C5.56933 7.8269 5.51689 7.35493 5.77565 7.03149C6.03441 6.70804 6.50638 6.6556 6.82982 6.91436L11.2363 10.4395V3.00001C11.2363 2.7117 11.4016 2.44892 11.6614 2.32403ZM16.0997 7.25122L12.7363 9.85359V4.56048L16.0997 7.25122ZM12.7912 13.6044L14.0119 12.66L18.0798 15.9144C18.2577 16.0567 18.3613 16.2722 18.3613 16.5C18.3613 16.7278 18.2577 16.9433 18.0798 17.0857L12.4548 21.5857C12.2297 21.7658 11.9213 21.8009 11.6614 21.676C11.4016 21.5511 11.2363 21.2883 11.2363 21V14.8075L12.7363 13.6469V19.4395L16.4107 16.5L12.7912 13.6044Z" fill="white" fill-opacity="0.96"/>
</svg>
