<svg width="24" height="24" viewBox="0 0 24 24" fill="none" xmlns="http://www.w3.org/2000/svg">
<path fill-rule="evenodd" clip-rule="evenodd" d="M14.1185 3H9.88154C9.25627 2.99999 8.74488 2.99999 8.32929 3.03655C7.89912 3.0744 7.51061 3.15514 7.14778 3.35423C6.57993 3.66582 6.11826 4.163 5.82893 4.77453C5.64406 5.16527 5.56909 5.58367 5.53394 6.04693C5.49999 6.49448 5.49999 7.04517 5.5 7.71852V17.9565C5.49999 18.459 5.49997 18.8871 5.52821 19.222C5.55595 19.5508 5.61913 19.9429 5.85499 20.2611C6.16373 20.6776 6.63188 20.92 7.12676 20.9194C7.50484 20.9189 7.82859 20.7271 8.08437 20.545C8.3448 20.3596 8.65519 20.0922 9.01955 19.7782L10.1148 18.8347C10.5367 18.4712 10.8243 18.224 11.0628 18.0477C11.2941 17.8767 11.4403 17.8026 11.5667 17.7649C11.8502 17.6804 12.1498 17.6804 12.4333 17.7649C12.5597 17.8026 12.7059 17.8767 12.9372 18.0477C13.1757 18.224 13.4633 18.4712 13.8852 18.8347L14.9805 19.7782C15.3448 20.0922 15.6552 20.3596 15.9156 20.545C16.1714 20.7271 16.4952 20.9189 16.8732 20.9194C17.3681 20.92 17.8363 20.6776 18.145 20.2611C18.3809 19.9429 18.444 19.5508 18.4718 19.222C18.5 18.8871 18.5 18.459 18.5 17.9565V7.71856C18.5 7.04523 18.5 6.49447 18.4661 6.04693C18.4309 5.58367 18.3559 5.16527 18.1711 4.77453C17.8817 4.163 17.4201 3.66582 16.8522 3.35423C16.4894 3.15514 16.1009 3.0744 15.6707 3.03655C15.2551 2.99999 14.7437 2.99999 14.1185 3ZM12.3329 7.02447C12.2281 6.70201 11.7719 6.70201 11.6671 7.02447L10.956 9.21307C10.9092 9.35728 10.7748 9.45492 10.6231 9.45492H8.32191C7.98285 9.45492 7.84188 9.88878 8.11618 10.0881L9.97792 11.4407C10.1006 11.5298 10.1519 11.6878 10.1051 11.832L9.39394 14.0206C9.28917 14.3431 9.65824 14.6112 9.93254 14.4119L11.7943 13.0593C11.9169 12.9702 12.0831 12.9702 12.2057 13.0593L14.0675 14.4119C14.3418 14.6112 14.7108 14.3431 14.6061 14.0206L13.8949 11.832C13.8481 11.6878 13.8994 11.5298 14.0221 11.4407L15.8838 10.0881C16.1581 9.88878 16.0171 9.45492 15.6781 9.45492H13.3769C13.2252 9.45492 13.0908 9.35728 13.044 9.21307L12.3329 7.02447Z" fill="white"/>
</svg>
