<svg width="24" height="24" viewBox="0 0 24 24" fill="none" xmlns="http://www.w3.org/2000/svg">
<path fill-rule="evenodd" clip-rule="evenodd" d="M14.1185 3H9.88154C9.25627 2.99999 8.74489 2.99998 8.32929 3.03655C7.89912 3.0744 7.51061 3.15514 7.14778 3.35423C6.57993 3.66582 6.11826 4.163 5.82893 4.77453C5.64406 5.16527 5.56909 5.58367 5.53394 6.04693C5.49999 6.49448 5.49999 7.04518 5.5 7.71853V17.9565C5.49999 18.1604 5.49999 18.3521 5.50187 18.5302L18.4176 5.61447C18.3715 5.31814 18.2966 5.03995 18.1711 4.77453C17.8817 4.163 17.4201 3.66582 16.8522 3.35423C16.4894 3.15514 16.1009 3.0744 15.6707 3.03655C15.2551 2.99998 14.7437 2.99999 14.1185 3ZM18.5 7.65344L5.87103 20.2824C6.1798 20.6859 6.64037 20.9199 7.12676 20.9194C7.50484 20.9189 7.82859 20.7271 8.08437 20.545C8.34479 20.3596 8.65519 20.0922 9.01955 19.7782L10.1148 18.8347C10.5367 18.4712 10.8243 18.224 11.0628 18.0477C11.2941 17.8767 11.4403 17.8026 11.5667 17.7649C11.8502 17.6804 12.1497 17.6804 12.4333 17.7649C12.5597 17.8026 12.7059 17.8767 12.9372 18.0477C13.1757 18.224 13.4633 18.4712 13.8852 18.8347L14.9805 19.7782C15.3448 20.0922 15.6552 20.3596 15.9156 20.545C16.1714 20.7271 16.4952 20.9189 16.8732 20.9194C17.3681 20.92 17.8363 20.6776 18.145 20.2611C18.3809 19.9429 18.444 19.5508 18.4718 19.222C18.5 18.8871 18.5 18.459 18.5 17.9565V7.71856C18.5 7.69675 18.5 7.67499 18.5 7.65344Z" fill="white"/>
<path fill-rule="evenodd" clip-rule="evenodd" d="M20.5009 2.46967C20.7938 2.76256 20.7938 3.23744 20.5009 3.53033L3.53033 20.5009C3.23744 20.7938 2.76256 20.7938 2.46967 20.5009C2.17678 20.208 2.17678 19.7331 2.46967 19.4402L19.4402 2.46967C19.7331 2.17678 20.208 2.17678 20.5009 2.46967Z" fill="white"/>
</svg>
