<svg width="24" height="24" viewBox="0 0 24 24" fill="none" xmlns="http://www.w3.org/2000/svg">
<path d="M18.5002 17.956C18.5002 18.4584 18.5001 18.8868 18.4718 19.2216C18.4441 19.5504 18.3806 19.9424 18.1447 20.2607C17.836 20.6772 17.3681 20.9194 16.8732 20.9189C16.4953 20.9184 16.1719 20.7269 15.9162 20.5448C15.6558 20.3594 15.3449 20.0921 14.9806 19.7782L13.8849 18.8349C13.4632 18.4716 13.1761 18.224 12.9377 18.0478C12.7066 17.877 12.5601 17.8023 12.4337 17.7646C12.1502 17.6801 11.8501 17.6801 11.5666 17.7646C11.4402 17.8022 11.2938 17.8769 11.0627 18.0478C10.8242 18.2241 10.5362 18.4715 10.1144 18.8349L9.01968 19.7782C8.65534 20.0921 8.34455 20.3594 8.08414 20.5448C7.82845 20.7269 7.50497 20.9183 7.12711 20.9189C6.64073 20.9194 6.18002 20.6856 5.87125 20.2821L18.5002 7.65323V17.956Z" fill="white"/>
<path d="M19.4406 2.46963C19.7335 2.17681 20.2083 2.17676 20.5011 2.46963C20.7938 2.76252 20.7939 3.23734 20.5011 3.53018L18.4171 5.61319L18.4181 5.61417L5.50211 18.5302L5.50113 18.5292L3.53043 20.5009C3.23758 20.7937 2.76276 20.7936 2.46988 20.5009C2.17701 20.208 2.17706 19.7332 2.46988 19.4403L5.50015 16.4101V7.71866C5.50015 7.04531 5.50038 6.49433 5.53433 6.04678C5.56948 5.58352 5.64438 5.16506 5.82925 4.77432C6.11853 4.16297 6.57995 3.66598 7.14761 3.3544C7.51042 3.15532 7.89911 3.07389 8.32925 3.03604C8.74485 2.99947 9.25671 2.9999 9.88199 2.99991H14.1183C14.7436 2.9999 15.2555 2.99947 15.6711 3.03604C16.1011 3.0739 16.4899 3.15535 16.8527 3.3544C17.2063 3.54851 17.5183 3.81481 17.7736 4.13565L19.4406 2.46963Z" fill="white"/>
</svg>
