<svg width="24" height="24" viewBox="0 0 24 24" fill="none" xmlns="http://www.w3.org/2000/svg">
<path fill-rule="evenodd" clip-rule="evenodd" d="M17.5 12C20.5376 12 23 14.4624 23 17.5C23 20.5376 20.5376 23 17.5 23C14.4624 23 12 20.5376 12 17.5C12 14.4624 14.4624 12 17.5 12ZM17.5 14C17.2239 14 17 14.2239 17 14.5V17H14.5C14.2239 17 14 17.2239 14 17.5C14 17.7761 14.2239 18 14.5 18H17V20.5C17 20.7761 17.2239 21 17.5 21C17.7761 21 18 20.7761 18 20.5V18H20.5C20.7761 18 21 17.7761 21 17.5C21 17.2239 20.7761 17 20.5 17H18V14.5C18 14.2239 17.7761 14 17.5 14Z" fill="white"/>
<path d="M7.75 17.25C8.16421 17.25 8.5 17.5858 8.5 18C8.5 18.4142 8.16422 18.75 7.75 18.75C7.33579 18.75 7 18.4142 7 18C7.00001 17.5858 7.33579 17.25 7.75 17.25Z" fill="white"/>
<path d="M7.75 14.25C8.16421 14.25 8.5 14.5858 8.5 15C8.5 15.4142 8.16422 15.75 7.75 15.75C7.33579 15.75 7 15.4142 7 15C7.00001 14.5858 7.33579 14.25 7.75 14.25Z" fill="white"/>
<path d="M7.75 11.25C8.16421 11.25 8.5 11.5858 8.5 12C8.5 12.4142 8.16422 12.75 7.75 12.75C7.33579 12.75 7 12.4142 7 12C7.00001 11.5858 7.33579 11.25 7.75 11.25Z" fill="white"/>
<path d="M7.75 8.25C8.16421 8.25 8.5 8.58579 8.5 9C8.5 9.41422 8.16422 9.75 7.75 9.75C7.33579 9.75 7 9.41421 7 9C7.00001 8.58579 7.33579 8.25001 7.75 8.25Z" fill="white"/>
<path d="M7.75 5.25C8.16421 5.25 8.5 5.58579 8.5 6C8.5 6.41422 8.16422 6.75 7.75 6.75C7.33579 6.75 7 6.41421 7 6C7.00001 5.58579 7.33579 5.25001 7.75 5.25Z" fill="white"/>
<path fill-rule="evenodd" clip-rule="evenodd" d="M13.25 2.25C13.5875 2.25 13.8858 2.24945 14.1318 2.26953C14.3867 2.29035 14.6512 2.33681 14.9082 2.46777C15.2845 2.65951 15.5905 2.96555 15.7822 3.3418C15.9132 3.59884 15.9597 3.86335 15.9805 4.11817C16.0006 4.36418 16 4.66245 16 5V6.25H17.2578C17.4783 6.24998 17.6812 6.25049 17.8506 6.2666C18.0332 6.28401 18.2334 6.32326 18.4307 6.44043C18.7128 6.60817 18.9431 6.8759 19.0869 7.20508C19.1875 7.43528 19.2214 7.66878 19.2363 7.88184C19.2502 8.07952 19.25 8.31674 19.25 8.57422V11.2402C18.6931 11.0849 18.1065 11 17.5 11C17.2745 11 17.0516 11.0108 16.832 11.0332C16.6946 10.862 16.4866 10.75 16.25 10.75C15.9036 10.75 15.6145 10.9855 15.5283 11.3047C12.9024 12.1396 11 14.5975 11 17.5C11 19.3752 11.7952 21.0636 13.0654 22.25H12.2422C12.1586 22.25 12.0776 22.2488 12 22.248V22.25H6.75C6.41245 22.25 6.11418 22.2506 5.86817 22.2305C5.61335 22.2097 5.34884 22.1632 5.0918 22.0322C4.71555 21.8405 4.40951 21.5345 4.21777 21.1582C4.08681 20.9012 4.04035 20.6367 4.01953 20.3818C3.99945 20.1358 4 19.8375 4 19.5V5C4 4.66245 3.99945 4.36418 4.01953 4.11817C4.04035 3.86335 4.0868 3.59884 4.21777 3.3418C4.40951 2.96555 4.71555 2.65951 5.0918 2.46777C5.34884 2.3368 5.61335 2.29035 5.86817 2.26953C6.11418 2.24945 6.41245 2.25 6.75 2.25H13.25ZM6.75 3.75C6.3877 3.75 6.16103 3.75071 5.99024 3.76465C5.82954 3.77778 5.78427 3.7992 5.77344 3.80469C5.67936 3.85263 5.60263 3.92936 5.55469 4.02344C5.5492 4.03427 5.52778 4.07954 5.51465 4.24024C5.50071 4.41103 5.5 4.6377 5.5 5V19.5C5.5 19.8623 5.50071 20.089 5.51465 20.2598C5.52778 20.4204 5.54919 20.4657 5.55469 20.4766C5.60262 20.5706 5.67936 20.6474 5.77344 20.6953C5.78427 20.7008 5.82954 20.7222 5.99024 20.7354C6.16103 20.7493 6.3877 20.75 6.75 20.75H10.2764C10.2714 20.7053 10.2667 20.6614 10.2637 20.6182C10.2498 20.4205 10.25 20.1833 10.25 19.9258V8.57422C10.25 8.31674 10.2498 8.07952 10.2637 7.88184C10.2786 7.66878 10.3125 7.43528 10.4131 7.20508C10.5569 6.8759 10.7872 6.60817 11.0693 6.44043C11.2666 6.32326 11.4668 6.28401 11.6494 6.2666C11.8188 6.25049 12.0217 6.24998 12.2422 6.25H14.5V5C14.5 4.6377 14.4993 4.41103 14.4854 4.24024C14.4722 4.07954 14.4508 4.03427 14.4453 4.02344C14.3974 3.92936 14.3206 3.85262 14.2266 3.80469C14.2157 3.79919 14.1704 3.77778 14.0098 3.76465C13.839 3.75071 13.6123 3.75 13.25 3.75H6.75ZM13.25 10.75C12.8358 10.75 12.5 11.0858 12.5 11.5C12.5001 11.9141 12.8359 12.25 13.25 12.25C13.6641 12.25 13.9999 11.9141 14 11.5C14 11.0858 13.6642 10.75 13.25 10.75ZM13.25 8.25C12.8358 8.25001 12.5 8.5858 12.5 9C12.5001 9.41412 12.8359 9.75 13.25 9.75C13.6641 9.75 13.9999 9.41412 14 9C14 8.58579 13.6642 8.25 13.25 8.25ZM16.25 8.25C15.8358 8.25001 15.5 8.5858 15.5 9C15.5001 9.41412 15.8359 9.75 16.25 9.75C16.6641 9.75 16.9999 9.41412 17 9C17 8.58579 16.6642 8.25 16.25 8.25Z" fill="white"/>
</svg>
