<svg width="24" height="24" viewBox="0 0 24 24" fill="none" xmlns="http://www.w3.org/2000/svg">
<path fill-rule="evenodd" clip-rule="evenodd" d="M6.99999 2.5C7.4142 2.5 7.74999 2.83579 7.74999 3.25V4.5H16.25V3.25C16.25 2.83579 16.5858 2.5 17 2.5C17.4142 2.5 17.75 2.83579 17.75 3.25V4.50561C18.0393 4.51425 18.2841 4.53589 18.5087 4.5898C19.697 4.8751 20.6249 5.80294 20.9102 6.9913C21.0004 7.3672 21.0003 7.80008 21 8.40286C21 8.43476 21 8.46713 21 8.5V16.7814C21 17.4548 21 18.0055 20.9634 18.4531C20.9256 18.9163 20.8449 19.3347 20.6458 19.7255C20.3342 20.337 19.837 20.8342 19.2255 21.1458C18.8347 21.3449 18.4163 21.4256 17.9531 21.4634C17.5055 21.5 16.9548 21.5 16.2814 21.5H7.71855C7.04518 21.5 6.49448 21.5 6.04692 21.4634C5.58366 21.4256 5.16526 21.3449 4.77452 21.1458C4.16299 20.8342 3.66581 20.337 3.35422 19.7255C3.15513 19.3347 3.07439 18.9163 3.03654 18.4531C2.99997 18.0055 2.99998 17.4548 2.99999 16.7814L2.99999 8.5C2.99999 8.46714 2.99998 8.43476 2.99996 8.40287C2.99972 7.80008 2.99954 7.3672 3.08979 6.9913C3.37509 5.80294 4.30293 4.8751 5.49129 4.5898C5.71584 4.53589 5.96071 4.51425 6.24999 4.50561V3.25C6.24999 2.83579 6.58578 2.5 6.99999 2.5ZM6.99999 6C6.25941 6 6.02111 6.00522 5.84146 6.04835C5.20158 6.20198 4.70197 6.70158 4.54834 7.34147C4.50521 7.52112 4.49999 7.75942 4.49999 8.5H19.5C19.5 7.75942 19.4948 7.52112 19.4516 7.34147C19.298 6.70158 18.7984 6.20198 18.1585 6.04835C17.9789 6.00522 17.7406 6 17 6H6.99999ZM19.5 10H4.49999V16.75C4.49999 17.4624 4.50057 17.9517 4.53156 18.3309C4.56183 18.7014 4.61734 18.9004 4.69073 19.0445C4.85851 19.3738 5.12622 19.6415 5.45551 19.8093C5.59955 19.8827 5.79857 19.9382 6.16907 19.9684C6.54832 19.9994 7.03755 20 7.74999 20H16.25C16.9624 20 17.4517 19.9994 17.8309 19.9684C18.2014 19.9382 18.4004 19.8827 18.5445 19.8093C18.8738 19.6415 19.1415 19.3738 19.3093 19.0445C19.3826 18.9004 19.4381 18.7014 19.4684 18.3309C19.4994 17.9517 19.5 17.4624 19.5 16.75V10Z" fill="white"/>
<path d="M3.49999 7.25C3.49999 6.14543 4.39542 5.25 5.49999 5.25H18.5C19.6046 5.25 20.5 6.14543 20.5 7.25C20.5 8.35457 19.6046 9.25 18.5 9.25H5.49999C4.39542 9.25 3.49999 8.35457 3.49999 7.25Z" fill="white"/>
</svg>
