<svg width="24" height="24" viewBox="0 0 24 24" fill="none" xmlns="http://www.w3.org/2000/svg">
<path d="M10.0001 16.25C10.0001 17.3546 9.10462 18.25 8.00005 18.25C6.89548 18.25 6.00005 17.3546 6.00005 16.25C6.00005 15.1454 6.89548 14.25 8.00005 14.25C9.10462 14.25 10.0001 15.1454 10.0001 16.25Z" fill="white"/>
<path fill-rule="evenodd" clip-rule="evenodd" d="M7.00005 2.5C7.41426 2.5 7.75005 2.83579 7.75005 3.25V4.5H16.2501V3.25C16.2501 2.83579 16.5858 2.5 17.0001 2.5C17.4143 2.5 17.7501 2.83579 17.7501 3.25V4.50561C18.0393 4.51425 18.2842 4.53589 18.5087 4.5898C19.6971 4.8751 20.625 5.80294 20.9103 6.9913C21.0005 7.3672 21.0003 7.80008 21.0001 8.40286C21.0001 8.43476 21.0001 8.46713 21.0001 8.5V16.7814C21.0001 17.4548 21.0001 18.0055 20.9635 18.4531C20.9256 18.9163 20.8449 19.3347 20.6458 19.7255C20.3342 20.337 19.837 20.8342 19.2255 21.1458C18.8348 21.3449 18.4164 21.4256 17.9531 21.4634C17.5056 21.5 16.9549 21.5 16.2815 21.5H7.71861C7.04524 21.5 6.49454 21.5 6.04698 21.4634C5.58372 21.4256 5.16532 21.3449 4.77458 21.1458C4.16306 20.8342 3.66587 20.337 3.35428 19.7255C3.15519 19.3347 3.07445 18.9163 3.0366 18.4531C3.00004 18.0055 3.00004 17.4548 3.00005 16.7814L3.00005 8.5C3.00005 8.46714 3.00004 8.43476 3.00003 8.40287C2.99978 7.80008 2.9996 7.3672 3.08985 6.9913C3.37515 5.80294 4.30299 4.8751 5.49135 4.5898C5.7159 4.53589 5.96077 4.51425 6.25005 4.50561V3.25C6.25005 2.83579 6.58584 2.5 7.00005 2.5ZM7.00005 6C6.25947 6 6.02117 6.00522 5.84152 6.04835C5.20164 6.20198 4.70203 6.70158 4.5484 7.34147C4.50527 7.52112 4.50005 7.75942 4.50005 8.5H19.5001C19.5001 7.75942 19.4948 7.52112 19.4517 7.34147C19.2981 6.70158 18.7985 6.20198 18.1586 6.04835C17.9789 6.00522 17.7406 6 17.0001 6H7.00005ZM19.5001 10H4.50005V16.75C4.50005 17.4624 4.50063 17.9517 4.53162 18.3309C4.56189 18.7014 4.6174 18.9004 4.69079 19.0445C4.85857 19.3738 5.12628 19.6415 5.45557 19.8093C5.59961 19.8827 5.79863 19.9382 6.16913 19.9684C6.54839 19.9994 7.03761 20 7.75005 20H16.2501C16.9625 20 17.4517 19.9994 17.831 19.9684C18.2015 19.9382 18.4005 19.8827 18.5445 19.8093C18.8738 19.6415 19.1415 19.3738 19.3093 19.0445C19.3827 18.9004 19.4382 18.7014 19.4685 18.3309C19.4995 17.9517 19.5001 17.4624 19.5001 16.75V10Z" fill="white"/>
<path d="M3.50005 7.25C3.50005 6.14543 4.39548 5.25 5.50005 5.25H18.5001C19.6046 5.25 20.5001 6.14543 20.5001 7.25C20.5001 8.35457 19.6046 9.25 18.5001 9.25H5.50005C4.39548 9.25 3.50005 8.35457 3.50005 7.25Z" fill="white"/>
</svg>
