<svg width="24" height="24" viewBox="0 0 24 24" fill="none" xmlns="http://www.w3.org/2000/svg">
<path d="M9.42304 2.39813C9.08227 2.30887 8.70764 2.35367 8.29889 2.58967C7.64981 2.96441 6.18796 3.80841 5.51393 5.64094C4.84002 7.47315 4.95302 10.2944 7.45326 14.6249C9.95351 18.9555 12.3402 20.4639 14.2639 20.7964C16.188 21.1289 17.6498 20.2849 18.2989 19.9102C18.7076 19.6742 18.9338 19.3722 19.0268 19.0324C19.1202 18.6917 19.0802 18.311 18.9526 17.9164C18.6977 17.1281 18.0937 16.2873 17.5134 15.6069C17.3241 15.385 17.1953 15.2375 17.1005 15.1379C17.0011 15.0335 16.9052 14.9452 16.7794 14.8706C16.663 14.8016 16.5754 14.7569 16.4829 14.7267C16.475 14.7241 16.4671 14.7217 16.4592 14.7193C16.3403 14.6488 16.19 14.6215 15.9999 14.65C15.9756 14.6585 15.9506 14.6671 15.9251 14.6757C15.8429 14.6855 15.7277 14.7034 15.5649 14.7361C15.2829 14.7926 14.9059 14.882 14.4041 15.001C13.7824 15.1484 13.0572 15.1832 12.3332 14.9137C11.6092 14.6442 10.8858 14.0703 10.2678 12.9999C9.6498 11.9295 9.5145 11.0162 9.6431 10.2544C9.77171 9.4926 10.1643 8.88206 10.6029 8.41739C10.9569 8.04222 11.2228 7.76047 11.4128 7.54447C11.6155 7.31407 11.6935 7.19919 11.7286 7.1408L11.7239 7.13796C11.7391 7.11374 11.7533 7.08893 11.7667 7.06354L11.7688 7.06451C11.7777 7.04505 11.786 7.02637 11.7938 7.00833C11.8063 6.98121 11.8177 6.95345 11.8281 6.92504C11.8513 6.86458 11.8681 6.80994 11.8799 6.75416C11.9 6.65892 11.9051 6.56075 11.9035 6.42537C11.9018 6.27911 11.8733 6.15195 11.8326 6.01367C11.7938 5.88175 11.7304 5.69648 11.6328 5.42158C11.3338 4.57875 10.9076 3.63535 10.3525 3.02043C10.0745 2.7126 9.76481 2.48767 9.42304 2.39813Z" fill="white"/>
</svg>
