<svg width="24" height="24" viewBox="0 0 24 24" fill="none" xmlns="http://www.w3.org/2000/svg">
<path fill-rule="evenodd" clip-rule="evenodd" d="M10.2851 3.32181C10.957 4.21084 11.4129 5.44409 11.6824 6.32151C11.6905 6.3479 11.6987 6.37443 11.707 6.40108C11.8019 6.70712 11.902 7.03014 11.8837 7.34937C11.8664 7.6503 11.7981 7.87557 11.6454 8.13546C11.5363 8.32114 11.3778 8.47323 11.2438 8.59312C11.1027 8.71929 10.9163 8.87131 10.6944 9.05234L10.6804 9.06373C10.2216 9.43801 9.7764 9.94766 9.58221 10.5861C9.39706 11.1949 9.40821 12.0237 10.0467 13.1297C10.6852 14.2356 11.3975 14.6597 12.0172 14.8037C12.6672 14.9548 13.3312 14.824 13.8848 14.6138L13.9016 14.6074C14.1693 14.5057 14.3942 14.4203 14.574 14.3612C14.7449 14.3051 14.9558 14.2439 15.1712 14.2422C15.4726 14.2399 15.7018 14.2934 15.9711 14.4289C16.2567 14.5727 16.4864 14.8209 16.704 15.0561C16.7229 15.0766 16.7418 15.097 16.7606 15.1172C17.3857 15.7892 18.2258 16.8007 18.6598 17.8271C18.8774 18.3419 19.0268 18.938 18.9246 19.5325C18.8153 20.1685 18.4359 20.6992 17.8033 21.0644L17.7892 21.0726C17.1176 21.4604 15.4576 22.419 13.2656 22.0402C11.0368 21.655 8.49227 19.9372 5.93314 15.5046C3.374 11.0721 3.15865 8.00953 3.93943 5.88677C4.70733 3.79902 6.36755 2.8407 7.03919 2.45301C7.04394 2.45027 7.04863 2.44756 7.05328 2.44488C7.68596 2.0796 8.33521 2.01644 8.9406 2.23975C9.50657 2.44851 9.94816 2.87595 10.2851 3.32181ZM8.4215 3.64706C8.27429 3.59276 8.08859 3.5792 7.80328 3.74392C7.16646 4.11159 5.92195 4.84202 5.34722 6.40457C4.77995 7.94687 4.7913 10.5269 7.23217 14.7546C9.67305 18.9824 11.9018 20.2822 13.5211 20.5621C15.1616 20.8456 16.4164 20.1331 17.0533 19.7654C17.3386 19.6007 17.4197 19.4331 17.4463 19.2784C17.48 19.0824 17.4407 18.7956 17.2782 18.4112C16.9518 17.6393 16.2655 16.7873 15.6623 16.1388C15.5168 15.9824 15.4312 15.8909 15.3629 15.8262C15.3204 15.786 15.3001 15.7714 15.2948 15.7678C15.2606 15.7507 15.2458 15.7457 15.2422 15.7446C15.2389 15.7441 15.2262 15.7424 15.1964 15.7422C15.1884 15.744 15.1447 15.7526 15.0423 15.7862C14.8989 15.8334 14.7063 15.9063 14.4173 16.0161C13.7114 16.2842 12.726 16.5084 11.6777 16.2648C10.5992 16.0141 9.56422 15.2939 8.74768 13.8797C7.93115 12.4654 7.82492 11.209 8.14713 10.1496C8.4603 9.11996 9.1472 8.37867 9.73228 7.9014C9.97184 7.70599 10.1313 7.57564 10.2439 7.47501C10.3241 7.40323 10.3535 7.3696 10.3591 7.36363C10.3791 7.3284 10.3809 7.31919 10.3799 7.32246C10.3799 7.32254 10.3799 7.32237 10.3799 7.32246C10.3809 7.3184 10.3838 7.30291 10.386 7.26563C10.3856 7.25923 10.3831 7.23429 10.3695 7.17748C10.3477 7.08599 10.3112 6.966 10.2485 6.76186C9.98849 5.91521 9.59378 4.89482 9.08846 4.22623C8.83683 3.89328 8.60815 3.71591 8.4215 3.64706ZM15.1047 6.65301L20.1371 9.5585C20.4957 8.27142 19.9565 6.85614 18.7459 6.1572C17.5353 5.45826 16.04 5.69896 15.1047 6.65301ZM19.3871 10.8575L14.3547 7.95205C13.9961 9.23914 14.5353 10.6544 15.7459 11.3534C16.9565 12.0523 18.4517 11.8116 19.3871 10.8575ZM13.3488 6.50528C14.5914 4.35296 17.3436 3.61552 19.4959 4.85816C21.6482 6.1008 22.3857 8.85296 21.143 11.0053C19.9004 13.1576 17.1482 13.895 14.9959 12.6524C12.8436 11.4097 12.1061 8.65759 13.3488 6.50528Z" fill="white" fill-opacity="0.96"/>
</svg>
