<svg width="24" height="24" viewBox="0 0 24 24" fill="none" xmlns="http://www.w3.org/2000/svg">
<path d="M11.6153 14.537C11.8518 14.7007 12.0926 14.8245 12.3331 14.914C13.0571 15.1835 13.7827 15.1483 14.4044 15.0009C14.9058 14.882 15.2826 14.7928 15.5645 14.7362C15.7273 14.7036 15.8427 14.6855 15.9249 14.6757C15.9504 14.6671 15.9757 14.6588 16.0001 14.6503C16.19 14.6218 16.3403 14.6483 16.4591 14.7187C16.4669 14.721 16.4748 14.7239 16.4825 14.7265C16.575 14.7567 16.6631 14.801 16.7794 14.87C16.9052 14.9446 17.0013 15.0332 17.1007 15.1376C17.1955 15.2372 17.3245 15.3845 17.5138 15.6064C18.094 16.2867 18.6972 17.1278 18.9522 17.9159C19.0799 18.3105 19.1198 18.6914 19.0265 19.0321C18.9334 19.3719 18.7077 19.6741 18.2989 19.9101C17.6498 20.2848 16.1878 21.1283 14.2638 20.7958C12.761 20.536 10.9756 19.5589 9.07431 17.079L11.6153 14.537Z" fill="white"/>
<path d="M19.4405 2.46964C19.7334 2.17681 20.2082 2.17677 20.5011 2.46964C20.7938 2.76252 20.7938 3.23734 20.5011 3.53019L10.5645 13.4657L10.5655 13.4667L3.53036 20.5009C3.23751 20.7937 2.76269 20.7936 2.46981 20.5009C2.17695 20.208 2.177 19.7332 2.46981 19.4403L7.39169 14.5175C4.95123 10.2475 4.84543 7.45758 5.51376 5.64054C6.18778 3.8082 7.6498 2.96452 8.29892 2.58976C8.70766 2.35376 9.08217 2.30908 9.42294 2.39835C9.76471 2.48788 10.0747 2.7126 10.3526 3.02042C10.9077 3.63534 11.3339 4.57904 11.6329 5.42179C11.7304 5.69646 11.7933 5.88172 11.8321 6.01358C11.8728 6.15171 11.9016 6.27866 11.9034 6.42472C11.905 6.56002 11.9 6.65863 11.88 6.75382C11.8682 6.80955 11.8514 6.86433 11.8282 6.92472C11.8179 6.95297 11.8064 6.98074 11.794 7.00772C11.7862 7.02576 11.7775 7.0449 11.7686 7.06437L11.7667 7.06339C11.7533 7.08876 11.7389 7.1134 11.7237 7.13761L11.7286 7.14054C11.6934 7.19889 11.6156 7.31375 11.4132 7.54386C11.2233 7.75975 10.9574 8.04201 10.6036 8.4169C10.1651 8.88151 9.77133 9.49217 9.64267 10.2538C9.55283 10.7859 9.59276 11.3922 9.83505 12.0741L19.4405 2.46964Z" fill="white"/>
</svg>
