<svg width="24" height="24" viewBox="0 0 24 24" fill="none" xmlns="http://www.w3.org/2000/svg">
<path fill-rule="evenodd" clip-rule="evenodd" d="M8.2986 2.59022C8.70715 2.35434 9.08199 2.30874 9.42262 2.39784C9.7644 2.48737 10.0744 2.71306 10.3523 3.02089C10.9073 3.63571 11.3336 4.57862 11.6326 5.42128C11.7301 5.69618 11.794 5.88213 11.8328 6.01405C11.8734 6.15212 11.9013 6.27916 11.9031 6.42518C11.9047 6.56056 11.8997 6.65905 11.8797 6.75429C11.8599 6.84806 11.8259 6.93859 11.7713 7.05897C11.7702 7.06123 11.7682 7.0629 11.7673 7.06483L11.7644 7.06386C11.7221 7.14409 11.6694 7.21679 11.6101 7.28554C11.6436 7.25248 11.6678 7.22691 11.6716 7.22206L11.6326 7.2787C11.5834 7.3434 11.5137 7.42965 11.4129 7.54433C11.2229 7.76032 10.9573 8.04221 10.6033 8.41737C10.1648 8.882 9.77197 9.4926 9.64332 10.2543C9.51472 11.016 9.64934 11.93 10.2673 13.0004C10.8852 14.0705 11.6089 14.6439 12.3328 14.9135C13.0568 15.183 13.7824 15.1488 14.4041 15.0014C14.9059 14.8823 15.2832 14.7923 15.5652 14.7357C15.7174 14.7052 15.8281 14.6883 15.9089 14.6781C15.9398 14.6678 15.9706 14.66 15.9998 14.6498C16.2017 14.6195 16.3581 14.6532 16.4802 14.7338L16.4832 14.7269C16.5755 14.7571 16.663 14.8016 16.7791 14.8705C16.9049 14.9451 17.001 15.0337 17.1004 15.1381C17.1952 15.2376 17.3242 15.3849 17.5134 15.6068C18.0938 16.2872 18.6979 17.1281 18.9529 17.9164C19.0805 18.311 19.1205 18.6919 19.0271 19.0326C18.934 19.3723 18.7073 19.6746 18.2986 19.9105C17.6494 20.2854 16.1879 21.1286 14.2644 20.7963C12.3407 20.4638 9.95311 18.9558 7.45289 14.6254C4.95265 10.2948 4.84051 7.47322 5.51442 5.641C6.18833 3.809 7.64932 2.96508 8.2986 2.59022ZM16.6892 14.9721C16.7564 15.0942 16.8031 15.2434 16.8347 15.4115C16.8345 15.3459 16.827 15.2766 16.8064 15.2055C16.7819 15.1208 16.7456 15.0506 16.7068 14.9935C16.7016 14.9858 16.6945 14.9793 16.6892 14.9721Z" fill="white"/>
<path d="M14.3562 6.22206C14.4959 5.83243 14.9244 5.62964 15.3142 5.76893C15.7042 5.90846 15.9078 6.33791 15.7683 6.72792L14.8943 9.16933L20.4734 5.94862C20.832 5.74156 21.2906 5.8645 21.4978 6.22304C21.7049 6.58174 21.5821 7.04033 21.2234 7.24745L15.6443 10.4691L18.1961 10.933C18.6035 11.0071 18.8735 11.3977 18.7996 11.8051C18.7254 12.2126 18.335 12.4828 17.9275 12.4086L13.366 11.5785C13.1494 11.5391 12.9605 11.4068 12.8504 11.2162C12.7402 11.0255 12.7196 10.7956 12.7937 10.5883L14.3562 6.22206Z" fill="white"/>
<path d="M11.7088 7.17226C11.7065 7.17555 11.7013 7.18376 11.6941 7.19374C11.6912 7.19779 11.6842 7.20539 11.6765 7.21522L11.7185 7.15663C11.7172 7.15875 11.7136 7.16502 11.7088 7.17226Z" fill="white"/>
<path d="M11.7312 7.1371L11.7322 7.13417C11.7335 7.13203 11.7359 7.1292 11.7381 7.12538L11.7312 7.1371Z" fill="white"/>
<path d="M11.7527 7.09901C11.7511 7.10216 11.7493 7.10505 11.7478 7.1078C11.7512 7.10138 11.7553 7.09209 11.7605 7.08143C11.7569 7.08892 11.7546 7.09539 11.7527 7.09901Z" fill="white"/>
</svg>
