<svg width="24" height="24" viewBox="0 0 24 24" fill="none" xmlns="http://www.w3.org/2000/svg">
<path fill-rule="evenodd" clip-rule="evenodd" d="M12 10.2498C12.4142 10.2498 12.75 10.5856 12.75 10.9998V17.442L14.4281 15.4643C14.6961 15.1484 15.1694 15.1097 15.4852 15.3777C15.8011 15.6456 15.8399 16.1189 15.5719 16.4348L12.5719 19.9703C12.4294 20.1382 12.2203 20.2351 12 20.2351C11.7798 20.2351 11.5706 20.1382 11.4281 19.9703L8.42813 16.4348C8.16014 16.1189 8.19892 15.6456 8.51475 15.3777C8.83059 15.1097 9.30388 15.1484 9.57187 15.4643L11.25 17.442V10.9998C11.25 10.5856 11.5858 10.2498 12 10.2498Z" fill="white"/>
<path d="M21.8267 11.9272C22.0744 11.6767 22.2229 11.3299 22.2229 10.8579C22.2229 10.1084 22.2229 8.42038 20.9729 6.92039C19.7231 5.42066 17.2234 4.10791 12.2229 4.10791C7.22242 4.10791 4.7227 5.42065 3.47292 6.92039C2.22293 8.42037 2.22293 10.1084 2.22293 10.8579C2.22293 11.3298 2.37144 11.6767 2.61914 11.9272C2.86756 12.1784 3.21722 12.3342 3.62276 12.4209C4.43288 12.5943 5.46297 12.4916 6.3424 12.3292C6.62925 12.2762 6.82138 12.2385 6.95504 12.2061C7.09514 12.1722 7.21954 12.1334 7.34707 12.0617C7.46509 11.9954 7.54753 11.9419 7.61998 11.8769C7.62612 11.8714 7.6322 11.8658 7.63821 11.8601C7.7587 11.7924 7.8575 11.6759 7.92785 11.497C7.93265 11.4716 7.93772 11.4457 7.94304 11.4193C7.97567 11.3432 8.01771 11.2345 8.07087 11.0772C8.1629 10.8047 8.27397 10.4335 8.42179 9.9395C8.60495 9.32739 8.93744 8.68189 9.53286 8.18962C10.1283 7.69737 10.9869 7.35787 12.2229 7.35787C13.4589 7.35787 14.3176 7.69737 14.913 8.18963C15.5084 8.6819 15.8408 9.32719 16.024 9.9393C16.1719 10.4335 16.2829 10.8047 16.375 11.0772C16.4732 11.3679 16.5337 11.4929 16.5667 11.5526L16.5715 11.5499C16.5849 11.5751 16.5992 11.5999 16.6145 11.6241L16.6126 11.6255C16.6251 11.6429 16.6371 11.6595 16.6488 11.6753C16.666 11.6996 16.6844 11.7234 16.7038 11.7466C16.7445 11.7969 16.7834 11.8388 16.8259 11.8769C16.8983 11.9419 16.9807 11.9954 17.0988 12.0617C17.2263 12.1334 17.3507 12.1722 17.4908 12.2061C17.6245 12.2385 17.8166 12.2762 18.1034 12.3292C18.9829 12.4916 20.013 12.5943 20.8231 12.4209C21.2286 12.3342 21.5783 12.1784 21.8267 11.9272Z" fill="white"/>
</svg>
