<svg width="24" height="24" viewBox="0 0 24 24" fill="none" xmlns="http://www.w3.org/2000/svg">
<path fill-rule="evenodd" clip-rule="evenodd" d="M14.6094 7.14836L19.6419 10.0539C20.0004 8.76677 19.4612 7.35149 18.2506 6.65255C17.04 5.95361 15.5448 6.19431 14.6094 7.14836ZM18.8919 11.3529L13.8594 8.4474C13.5009 9.73449 14.04 11.1498 15.2506 11.8487C16.4612 12.5476 17.9565 12.3069 18.8919 11.3529ZM12.8535 7.00063C14.0962 4.84831 16.8483 4.11087 19.0006 5.35351C21.1529 6.59615 21.8904 9.34831 20.6477 11.5006C19.4051 13.6529 16.6529 14.3904 14.5006 13.1477C12.3483 11.9051 11.6109 9.15294 12.8535 7.00063Z" fill="white"/>
<path d="M8.76191 2.84247C8.42114 2.7532 8.04651 2.79801 7.63776 3.034C6.98867 3.40875 5.52683 4.25275 4.8528 6.08528C4.17889 7.91749 4.29188 10.7387 6.79213 15.0692C9.29238 19.3998 11.6791 20.9083 13.6028 21.2407C15.5268 21.5733 16.9887 20.7293 17.6378 20.3545C18.0465 20.1185 18.2726 19.8165 18.3657 19.4767C18.459 19.136 18.4191 18.7553 18.2915 18.3607C18.0365 17.5724 17.4326 16.7317 16.8522 16.0513C16.6629 15.8293 16.5342 15.6818 16.4393 15.5823C16.3399 15.4779 16.2441 15.3896 16.1183 15.3149C16.0018 15.2459 15.9142 15.2013 15.8217 15.171C15.8139 15.1685 15.806 15.166 15.798 15.1636C15.6792 15.0931 15.5289 15.0658 15.3388 15.0943C15.3144 15.1029 15.2895 15.1114 15.2639 15.12C15.1817 15.1298 15.0666 15.1477 14.9037 15.1804C14.6217 15.2369 14.2448 15.3263 13.743 15.4453C13.1213 15.5928 12.3961 15.6276 11.672 15.358C10.948 15.0885 10.2247 14.5147 9.60668 13.4443C8.98867 12.3738 8.85336 11.4605 8.98197 10.6987C9.11058 9.93693 9.5032 9.3264 9.94172 8.86173C10.2958 8.48656 10.5617 8.2048 10.7517 7.98881C10.9543 7.75841 11.0323 7.64353 11.0675 7.58514L11.0628 7.5823C11.0779 7.55807 11.0922 7.53327 11.1056 7.50788L11.1077 7.50885C11.1166 7.48939 11.1249 7.47071 11.1327 7.45267C11.1451 7.42555 11.1566 7.39778 11.167 7.36938C11.1902 7.30892 11.207 7.25428 11.2188 7.19849C11.2388 7.10325 11.244 7.00509 11.2424 6.86971C11.2407 6.72345 11.2121 6.59628 11.1714 6.458C11.1326 6.32608 11.0693 6.14082 10.9717 5.86591C10.6727 5.02309 10.2465 4.07968 9.69132 3.46476C9.41341 3.15694 9.10368 2.932 8.76191 2.84247Z" fill="white"/>
</svg>
