<svg width="24" height="24" viewBox="0 0 24 24" fill="none" xmlns="http://www.w3.org/2000/svg">
<path d="M16.2266 13.9261C16.383 13.9412 16.5424 13.9638 16.711 14.0189C16.8797 14.074 17.0221 14.1496 17.1573 14.2298C17.4818 14.4223 17.7337 14.7179 18.0196 15.054L18.0792 15.1253C18.6731 15.8216 19.3597 16.7547 19.6622 17.6898C19.8158 18.1648 19.8907 18.7046 19.7452 19.2357C19.5929 19.7908 19.2246 20.244 18.669 20.5648L18.6553 20.5726C17.9838 20.9604 16.3237 21.9191 14.1319 21.5404C12.5438 21.2659 10.795 20.3146 8.99519 18.1868L10.0596 17.1224C11.7212 19.1209 13.2138 19.859 14.3868 20.0618C16.0273 20.3454 17.2822 19.6327 17.919 19.265C18.1777 19.1156 18.2641 18.9661 18.2989 18.8392C18.3403 18.688 18.3357 18.4647 18.2344 18.1517C18.0271 17.5108 17.5059 16.7631 16.9385 16.098C16.5573 15.651 16.4742 15.5682 16.3926 15.5198C16.2926 15.4605 16.2599 15.4494 16.2452 15.4447C16.2305 15.4399 16.1976 15.4304 16.0821 15.4193C16.0748 15.4194 15.984 15.4206 15.7081 15.4759C15.442 15.5292 15.0803 15.6152 14.5723 15.7357C13.8534 15.9062 12.9696 15.9571 12.0675 15.6214C11.9483 15.577 11.8298 15.5262 11.713 15.4691L12.879 14.3031C13.3334 14.4094 13.7947 14.3781 14.2266 14.2757L14.2413 14.2718C14.7304 14.1558 15.1181 14.0643 15.4132 14.0052C15.6866 13.9504 15.9774 13.902 16.2266 13.9261Z" fill="white"/>
<path fill-rule="evenodd" clip-rule="evenodd" d="M7.91902 1.94465C8.4747 1.62383 9.05147 1.5312 9.60847 1.67708C10.1412 1.81663 10.5698 2.1522 10.9044 2.52278C11.5629 3.25225 12.029 4.31262 12.335 5.17512L12.3663 5.26301C12.5143 5.67858 12.6441 6.04401 12.6485 6.42122C12.6504 6.57844 12.6461 6.73964 12.6094 6.9134C12.5728 7.08721 12.5125 7.23706 12.4473 7.3802C12.3436 7.60802 12.1559 7.83493 11.9718 8.04426C11.773 8.2702 11.4994 8.5595 11.1544 8.92512L11.1436 8.93684C10.7741 9.3284 10.475 9.80965 10.378 10.3841C10.2967 10.8659 10.3472 11.4758 10.7051 12.2337L19.9503 2.9886C20.2431 2.69597 20.718 2.696 21.0108 2.9886C21.3036 3.28143 21.3035 3.75624 21.0108 4.04915L4.04011 21.0198C3.74722 21.3127 3.27246 21.3127 2.97956 21.0198C2.6869 20.7269 2.68675 20.2521 2.97956 19.9593L7.2237 15.7152C7.08232 15.4864 6.94042 15.2493 6.7989 15.0042C4.24007 10.5721 4.02509 7.50973 4.80574 5.38704C5.57364 3.29929 7.23371 2.34015 7.90534 1.95247L7.91902 1.94465ZM9.22859 3.12825C9.10127 3.0949 8.92795 3.09399 8.66902 3.24348C8.03216 3.61117 6.78765 4.34216 6.21296 5.90461C5.64578 7.44693 5.65798 10.0268 8.0987 14.2542C8.17126 14.3799 8.24333 14.5038 8.3155 14.6243L9.59382 13.345C8.91966 12.1628 8.73883 11.0857 8.89949 10.1341C9.05977 9.18489 9.54565 8.44498 10.0528 7.90754C10.4109 7.52808 10.6656 7.25776 10.8448 7.05403C11.0308 6.84254 11.0784 6.76434 11.0821 6.75813C11.1302 6.65251 11.1385 6.61892 11.1417 6.60383C11.1449 6.58859 11.1508 6.55441 11.1495 6.43879C11.1484 6.34397 11.1184 6.23076 10.9219 5.67708C10.6296 4.85315 10.2425 4.02761 9.79109 3.52766C9.57073 3.28361 9.3802 3.168 9.22859 3.12825Z" fill="white"/>
</svg>
