<svg width="24" height="24" viewBox="0 0 24 24" fill="none" xmlns="http://www.w3.org/2000/svg">
<path d="M8.67389 3.23918C8.93282 3.08969 9.10566 3.0903 9.23298 3.12365C9.38463 3.16338 9.57533 3.27885 9.79577 3.52302C10.2471 4.02297 10.6337 4.84846 10.926 5.67238C11.1226 6.22626 11.1525 6.33935 11.1536 6.43418C11.155 6.55052 11.1492 6.58437 11.146 6.59947C11.1428 6.61457 11.1344 6.64786 11.0862 6.75375C11.0825 6.75996 11.0357 6.83763 10.8497 7.04912C10.6704 7.25288 10.4157 7.52298 10.0574 7.90265C9.55014 8.44013 9.06385 9.18016 8.90357 10.1295C8.74135 11.0904 8.92785 12.1791 9.61829 13.3749C10.3087 14.5708 11.1583 15.2766 12.0715 15.6166C12.9738 15.9525 13.8579 15.9013 14.5769 15.7308C15.0849 15.6103 15.4462 15.5248 15.7123 15.4714C15.9884 15.4161 16.0786 15.4144 16.0859 15.4142C16.2017 15.4254 16.2352 15.4348 16.2499 15.4396C16.2645 15.4444 16.2967 15.4563 16.3968 15.5157C16.4784 15.5641 16.5613 15.6465 16.9428 16.0937C17.5101 16.7588 18.0317 17.5063 18.239 18.1472C18.3403 18.4602 18.3449 18.683 18.3035 18.8342C18.2687 18.9612 18.1828 19.1112 17.9239 19.2607C17.2871 19.6283 16.0322 20.3409 14.3917 20.0574C12.7724 19.7775 10.5437 18.4776 8.10278 14.2499C5.66191 10.0222 5.65055 7.44213 6.21783 5.89984C6.79256 4.33729 8.03707 3.60685 8.67389 3.23918Z" fill="white"/>
<path fill-rule="evenodd" clip-rule="evenodd" d="M8.29889 2.58967C8.70764 2.35367 9.08227 2.30887 9.42304 2.39813C9.76481 2.48767 10.0745 2.7126 10.3525 3.02043C10.9076 3.63535 11.3338 4.57875 11.6328 5.42158C11.7304 5.69648 11.7938 5.88175 11.8326 6.01367C11.8733 6.15195 11.9018 6.27911 11.9035 6.42537C11.9051 6.56075 11.9 6.65892 11.8799 6.75415C11.8601 6.84797 11.826 6.93854 11.7713 7.05898C11.7673 7.06796 11.7642 7.07444 11.7627 7.07758C11.7583 7.08692 11.7545 7.09432 11.7523 7.09855C11.7506 7.10184 11.7489 7.10496 11.7474 7.10782C11.7524 7.09847 11.7601 7.08351 11.7682 7.06584L11.0862 6.75375L10.4118 6.44668C10.411 6.45058 10.4099 6.45596 10.4088 6.46228C10.4077 6.46807 10.4069 6.4736 10.4061 6.47881C10.407 6.48574 10.4078 6.48975 10.4078 6.48975C10.4078 6.48975 10.4072 6.48713 10.4058 6.48131L10.4056 6.48282C10.4039 6.49529 10.4032 6.50477 10.4032 6.50477C10.4032 6.50477 10.4034 6.50105 10.4036 6.49193C10.4037 6.48705 10.4038 6.48098 10.4038 6.47357C10.4025 6.46852 10.4008 6.46218 10.3986 6.45443C10.3949 6.46297 10.3906 6.47318 10.3863 6.48453C10.3814 6.49709 10.3702 6.52717 10.36 6.56679C10.36 6.56679 10.3549 6.58415 10.35 6.60958C10.3389 6.66694 10.3259 6.77614 10.351 6.90131C10.3729 7.01027 10.4498 7.25081 10.7088 7.40169C10.9638 7.55019 11.2065 7.50117 11.3059 7.47075C11.3116 7.469 11.3172 7.46719 11.3228 7.46533C11.4817 7.41234 11.5811 7.31772 11.5879 7.3112C11.6353 7.26856 11.6676 7.22771 11.672 7.2221C11.6821 7.20941 11.6901 7.19854 11.6937 7.19362C11.7012 7.18323 11.7068 7.1749 11.7089 7.1718C11.7138 7.16452 11.7175 7.15874 11.7188 7.15666C11.7223 7.15113 11.7255 7.14604 11.7282 7.14154C11.6928 7.20016 11.6146 7.31504 11.4128 7.54447C11.2228 7.76052 10.957 8.04209 10.6029 8.41739C10.1643 8.88206 9.77171 9.4926 9.6431 10.2544C9.5145 11.0161 9.6498 11.9295 10.2678 12.9999C10.8858 14.0703 11.6092 14.6442 12.3332 14.9137C13.0572 15.1832 13.7822 15.1485 14.4039 15.001C14.9058 14.882 15.2828 14.7926 15.5649 14.7361L15.5883 14.8531C15.5494 14.8877 15.5059 14.9335 15.4659 14.9923C15.3674 15.137 15.2911 15.3656 15.3655 15.6228C15.4289 15.8417 15.5697 15.9641 15.633 16.012C15.7147 16.0739 15.7954 16.1076 15.8431 16.124C15.8632 16.1309 15.8775 16.1348 15.8834 16.1364L15.8853 16.1369C15.9399 16.152 15.986 16.1578 16.0019 16.1595C15.9962 16.1537 15.9915 16.149 15.9878 16.1453C15.9814 16.1417 15.9761 16.1387 15.9718 16.1363C15.9638 16.1319 15.9602 16.1301 15.9602 16.1301C15.9602 16.1301 15.969 16.1344 15.9807 16.1392L15.9821 16.1397C15.9777 16.1356 15.9758 16.1338 15.9758 16.1338C15.9758 16.1338 15.9789 16.1365 15.9844 16.1407C15.9893 16.1427 15.9945 16.1447 16.0001 16.1467C16.0058 16.1488 16.0109 16.1505 16.0146 16.1517L16.0859 15.4142L16.1482 14.6668C16.1238 14.6648 16.0996 14.664 16.0758 14.6643C16.0813 14.6642 16.0881 14.6642 16.0956 14.6643C16.1004 14.6644 16.1118 14.6645 16.1264 14.6653C16.1329 14.6657 16.1453 14.6664 16.1609 14.668L16.1647 14.6684C16.174 14.6693 16.2255 14.6746 16.2865 14.6916L16.2884 14.6921C16.3044 14.6964 16.38 14.7169 16.4688 14.7695L16.4828 14.7267C16.5754 14.7569 16.663 14.8016 16.7794 14.8706C16.9052 14.9452 17.0011 15.0335 17.1005 15.1379C17.1953 15.2375 17.3241 15.385 17.5134 15.6069C18.0937 16.2873 18.6977 17.1281 18.9526 17.9164C19.0802 18.311 19.1202 18.6917 19.0268 19.0324C18.9338 19.3721 18.7076 19.6742 18.2989 19.9102C17.6498 20.2849 16.188 21.1289 14.2639 20.7964C12.3402 20.4639 9.95351 18.9555 7.45326 14.6249C4.95302 10.2944 4.84002 7.47315 5.51393 5.64094C6.18796 3.80841 7.64981 2.96441 8.29889 2.58967ZM16.4688 14.7695C16.4916 14.7829 16.5152 14.7985 16.5389 14.8164C16.5776 14.8458 16.6454 14.903 16.7067 14.9932C16.7455 15.0504 16.7818 15.1208 16.8064 15.2057C16.8808 15.4629 16.8045 15.6915 16.706 15.8362C16.6229 15.9583 16.525 16.0242 16.4837 16.0501C16.4343 16.081 16.3915 16.0997 16.3673 16.1095C16.3189 16.1291 16.2792 16.1391 16.2634 16.1429C16.2279 16.1516 16.1997 16.1556 16.191 16.1569C16.1783 16.1586 16.168 16.1598 16.1618 16.1604C16.1469 16.1619 16.1317 16.163 16.1164 16.1636C16.1126 16.164 16.1054 16.1648 16.0943 16.1662C16.0776 16.1683 16.0529 16.1718 16.019 16.1774C16.0818 16.2438 16.1848 16.3608 16.3721 16.5804C16.9265 17.2303 17.3658 17.8845 17.5254 18.378C17.559 18.4819 17.5714 18.5523 17.5757 18.5948C17.568 18.5998 17.5591 18.6052 17.5489 18.6111C16.9242 18.9718 15.8762 19.5528 14.5194 19.3183C13.2045 19.091 11.1338 17.9998 8.7523 13.8749C6.3708 9.75003 6.46109 7.41112 6.92173 6.15874C7.39704 4.86647 8.42416 4.24939 9.04889 3.8887C9.05914 3.88279 9.0683 3.8778 9.07641 3.87361C9.11106 3.89863 9.16586 3.94451 9.23909 4.02562C9.58667 4.4106 9.93356 5.11816 10.2192 5.92318C10.3157 6.19517 10.3655 6.34286 10.3916 6.43053C10.3661 6.46166 10.3318 6.50231 10.2865 6.55377C10.1181 6.74525 9.87433 7.00387 9.51192 7.38789C8.93598 7.99817 8.35598 8.86772 8.16403 10.0047C7.9682 11.1646 8.2059 12.4286 8.96877 13.7499C9.73164 15.0713 10.7074 15.9091 11.8099 16.3195C12.8905 16.7217 13.9335 16.6542 14.75 16.4606C15.2638 16.3387 15.6097 16.2569 15.8597 16.2068C15.9269 16.1933 15.9793 16.1839 16.019 16.1774M16.0684 14.6644C15.9989 14.666 15.8604 14.6768 15.5649 14.7361L15.5883 14.8531C15.6302 14.816 15.6667 14.7918 15.6881 14.7784C15.7375 14.7475 15.7804 14.7288 15.8046 14.719C15.853 14.6994 15.8927 14.6894 15.9085 14.6855C15.944 14.6769 15.9722 14.6729 15.9809 14.6716C15.9936 14.6698 16.0039 14.6687 16.0101 14.6681C16.0272 14.6663 16.0446 14.6652 16.0622 14.6646L16.0859 15.4142L16.0719 14.6644L16.0758 14.6643C16.073 14.6643 16.0705 14.6644 16.0684 14.6644ZM11.7378 7.12522L11.7311 7.13673L11.7324 7.13454C11.7336 7.13239 11.7355 7.12919 11.7378 7.12522ZM11.7378 7.12522C11.7378 7.12522 11.7409 7.11981 11.7439 7.1143C11.7429 7.11612 11.7419 7.1179 11.7419 7.1179C11.7404 7.12055 11.739 7.123 11.7378 7.12522Z" fill="white"/>
<path d="M11.9 6.50251C11.9 7.60708 10.6046 8.00251 9.49999 8.00251C8.39542 8.00251 7.99999 7.10748 7.99999 6.00291C7.99999 4.89834 8.39542 5.0027 9.49999 5.0027C10.6046 5.0027 11.9 5.39794 11.9 6.50251Z" fill="white"/>
<path d="M12.9999 16.4996C12.9999 15.395 14.9998 14.9996 15.9998 14.6496C16.9999 14.4996 16.8999 15.8946 16.8999 16.9992C16.8999 18.1037 16.5045 17.9994 15.3999 17.9994C14.2954 17.9994 12.9999 17.6041 12.9999 16.4996Z" fill="white"/>
<path fill-rule="evenodd" clip-rule="evenodd" d="M12.8505 11.2158C12.6434 10.8571 12.7663 10.3984 13.125 10.1913L18.7041 6.97017L16.1523 6.50571C15.7448 6.43154 15.4746 6.04105 15.5488 5.63353C15.6229 5.22601 16.0134 4.95578 16.4209 5.02996L20.9828 5.86027C21.1995 5.89971 21.3879 6.0324 21.498 6.22314C21.6081 6.41389 21.6289 6.64339 21.5547 6.85077L19.9928 11.2166C19.8533 11.6066 19.424 11.8097 19.034 11.6702C18.644 11.5306 18.4409 11.1014 18.5805 10.7114L19.4541 8.26921L13.875 11.4903C13.5163 11.6974 13.0576 11.5745 12.8505 11.2158Z" fill="white"/>
</svg>
