<svg width="24" height="24" viewBox="0 0 24 24" fill="none" xmlns="http://www.w3.org/2000/svg">
<path fill-rule="evenodd" clip-rule="evenodd" d="M19.4404 2.46967C19.7333 2.17678 20.2081 2.17678 20.501 2.46967C20.7938 2.76257 20.7939 3.23733 20.501 3.53022L3.53027 20.5009C3.23738 20.7936 2.76256 20.7937 2.46973 20.5009C2.17689 20.2081 2.17701 19.7333 2.46973 19.4404L4.03223 17.8769C2.85681 17.5226 2.00003 16.4334 2 15.1425V8.85737C2 7.27941 3.27947 5.99994 4.85742 5.99994H13.1426C13.9091 5.99994 14.6031 6.30316 15.1152 6.79487L19.4404 2.46967ZM9 9.74994C7.75736 9.74994 6.75 10.7573 6.75 11.9999C6.75002 12.8551 7.22715 13.5988 7.92969 13.9794L10.9795 10.9296C10.5988 10.2271 9.85519 9.74994 9 9.74994Z" fill="white"/>
<path d="M16 15.1425C16 16.7205 14.7205 17.9999 13.1426 17.9999H8.15332L16 10.1533V15.1425Z" fill="white"/>
<path d="M20.374 8.12592C20.9739 7.52608 21.9996 7.95062 22 8.79877V15.5019C21.9998 16.3675 20.9384 16.784 20.3496 16.1494L17.124 12.6728C16.7758 12.2975 16.7866 11.7136 17.1484 11.3515L20.374 8.12592Z" fill="white"/>
</svg>
