<svg width="24" height="24" viewBox="0 0 24 24" fill="none" xmlns="http://www.w3.org/2000/svg">
<path fill-rule="evenodd" clip-rule="evenodd" d="M14 7.5H4C3.72386 7.5 3.5 7.72386 3.5 8V16C3.5 16.2761 3.72386 16.5 4 16.5H14C14.2761 16.5 14.5 16.2761 14.5 16V8C14.5 7.72386 14.2761 7.5 14 7.5ZM4 6C2.89543 6 2 6.89543 2 8V16C2 17.1046 2.89543 18 4 18H14C15.1046 18 16 17.1046 16 16V8C16 6.89543 15.1046 6 14 6H4Z" fill="white"/>
<path fill-rule="evenodd" clip-rule="evenodd" d="M11.1132 5.402C11.2721 5.30267 11.4557 5.25 11.6432 5.25H14.5C15.3284 5.25 16 5.92157 16 6.75V9.5H15V6.75C15 6.47386 14.7762 6.25 14.5 6.25H11.6432L9.76476 7.424L9.23476 6.576L11.1132 5.402Z" fill="white"/>
<path fill-rule="evenodd" clip-rule="evenodd" d="M14.5 10.4992V13.4992L20.1061 15.9018C20.7659 16.1846 21.5 15.7006 21.5 14.9826V9.01573C21.5 8.29781 20.7659 7.81378 20.1061 8.09658L14.5 10.4992ZM20 9.77399L16 11.4883V12.5101L20 14.2244V9.77399Z" fill="white"/>
<path d="M11 12C11 13.1046 10.1046 14 9 14C7.89543 14 7 13.1046 7 12C7 10.8954 7.89543 10 9 10C10.1046 10 11 10.8954 11 12Z" fill="white"/>
</svg>
