<svg width="24" height="24" viewBox="0 0 24 24" fill="none" xmlns="http://www.w3.org/2000/svg">
<path d="M13.0345 7.5H4.7586C4.06349 7.5 3.49998 8.0635 3.49998 8.75862V11.7322C2.94896 12.0194 2.44425 12.3832 1.99998 12.8096V8.75862C1.99998 7.23508 3.23506 6 4.7586 6H13.0345C14.558 6 15.7931 7.23508 15.7931 8.75862V15.2414C15.7931 16.7649 14.558 18 13.0345 18H12.9811C12.9936 17.835 13 17.6682 13 17.5C13 17.1599 12.9739 16.826 12.9236 16.5H13.0345C13.7296 16.5 14.2931 15.9365 14.2931 15.2414V8.75862C14.2931 8.06351 13.7296 7.5 13.0345 7.5Z" fill="white"/>
<path d="M20.3744 8.12575C20.9743 7.5258 22.0002 7.95072 22.0002 8.7992V15.5017C22.0002 16.3675 20.9384 16.7842 20.3496 16.1494L17.1239 12.6725C16.7756 12.2971 16.7865 11.7134 17.1487 11.3513L20.3744 8.12575Z" fill="white"/>
<path fill-rule="evenodd" clip-rule="evenodd" d="M6.5 23C9.53757 23 12 20.5376 12 17.5C12 14.4624 9.53757 12 6.5 12C3.46243 12 1 14.4624 1 17.5C1 20.5376 3.46243 23 6.5 23ZM7 14.5C7 14.2239 6.77614 14 6.5 14C6.22386 14 6 14.2239 6 14.5V17H3.5C3.22386 17 3 17.2239 3 17.5C3 17.7761 3.22386 18 3.5 18H6V20.5C6 20.7761 6.22386 21 6.5 21C6.77614 21 7 20.7761 7 20.5V18H9.5C9.77614 18 10 17.7761 10 17.5C10 17.2239 9.77614 17 9.5 17H7V14.5Z" fill="white"/>
</svg>
