<svg width="24" height="24" viewBox="0 0 24 24" fill="none" xmlns="http://www.w3.org/2000/svg">
<path fill-rule="evenodd" clip-rule="evenodd" d="M21.0154 2.97968C21.3083 3.27257 21.3083 3.74745 21.0154 4.04034L15.9985 9.05729C15.9985 9.05742 15.9985 9.05716 15.9985 9.05729L6.06231 18.9938C6.06218 18.9938 6.06244 18.9938 6.06231 18.9938L4.04488 21.0109C3.75198 21.3038 3.27711 21.3038 2.98421 21.0109C2.69132 20.718 2.69132 20.2431 2.98422 19.9502L4.14161 18.7929C4.01633 18.7519 3.89413 18.7021 3.77453 18.6411C3.163 18.3295 2.66582 17.8324 2.35423 17.2208C2.15514 16.8301 2.0744 16.4117 2.03655 15.9484C1.99998 15.5009 1.99999 14.9502 2 14.2768V9.71394C1.99999 9.04057 1.99998 8.48985 2.03655 8.04229C2.0744 7.57903 2.15514 7.16063 2.35423 6.76989C2.66582 6.15837 3.163 5.66118 3.77453 5.34959C4.16527 5.1505 4.58367 5.06976 5.04693 5.03191C5.4945 4.99535 6.0452 4.99535 6.71858 4.99536H11.2814C11.9548 4.99535 12.5055 4.99535 12.9531 5.03191C13.4163 5.06976 13.8347 5.1505 14.2255 5.34959C14.837 5.66118 15.3342 6.15837 15.6458 6.76989C15.7067 6.88949 15.7566 7.01169 15.7975 7.13697L19.9548 2.97968C20.2477 2.68679 20.7225 2.68679 21.0154 2.97968ZM14.4684 8.16444C14.4757 8.25282 14.4812 8.34718 14.4855 8.44894L5.45358 17.4809C5.35182 17.4766 5.25746 17.471 5.16908 17.4638C4.79858 17.4335 4.59956 17.378 4.45552 17.3046C4.12623 17.1368 3.85852 16.8691 3.69074 16.5398C3.61735 16.3958 3.56184 16.1968 3.53157 15.8263C3.50058 15.447 3.5 14.9578 3.5 14.2454V9.74536C3.5 9.03292 3.50058 8.5437 3.53157 8.16444C3.56184 7.79394 3.61735 7.59492 3.69074 7.45088C3.85852 7.12159 4.12623 6.85388 4.45552 6.6861C4.59956 6.61271 4.79858 6.5572 5.16908 6.52693C5.54833 6.49594 6.03756 6.49536 6.75 6.49536H11.25C11.9624 6.49536 12.4517 6.49594 12.8309 6.52693C13.2014 6.5572 13.4004 6.61271 13.5445 6.6861C13.8738 6.85388 14.1415 7.12159 14.3093 7.45088C14.3827 7.59492 14.4382 7.79394 14.4684 8.16444Z" fill="white" fill-opacity="0.96"/>
<path fill-rule="evenodd" clip-rule="evenodd" d="M8.18212 18.9954H11.2814C11.9548 18.9954 12.5055 18.9954 12.9531 18.9588C13.4163 18.921 13.8347 18.8402 14.2255 18.6411C14.837 18.3295 15.3342 17.8324 15.6458 17.2208C15.8449 16.8301 15.9256 16.4117 15.9634 15.9484C16 15.5009 16 14.9502 16 14.2768V14.1604L19.75 16.3255C20.75 16.9028 22 16.1812 22 15.0265V8.96427C22 7.80957 20.75 7.08788 19.75 7.66523L19.1875 7.99001L14.5 12.6775V14.2454C14.5 14.9578 14.4994 15.447 14.4684 15.8263C14.4382 16.1968 14.3827 16.3958 14.3093 16.5398C14.1415 16.8691 13.8738 17.1368 13.5445 17.3046C13.4004 17.378 13.2014 17.4335 12.8309 17.4638C12.4517 17.4948 11.9624 17.4954 11.25 17.4954H9.68212L8.18212 18.9954ZM16 12.4284L20.5 15.0265V8.96427L16 11.5623V12.4284Z" fill="white" fill-opacity="0.96"/>
</svg>
