<svg width="24" height="24" viewBox="0 0 24 24" fill="none" xmlns="http://www.w3.org/2000/svg">
<path fill-rule="evenodd" clip-rule="evenodd" d="M11.0839 5.43077C11.252 5.31311 11.4522 5.25 11.6574 5.25H14.5C15.3284 5.25 16 5.92157 16 6.75V9.5H15V6.75C15 6.47386 14.7762 6.25 14.5 6.25H11.6574L9.28649 7.90962L8.71303 7.09038L11.0839 5.43077Z" fill="white"/>
<path fill-rule="evenodd" clip-rule="evenodd" d="M20.7606 7.90258L17.5 9.68107V14.3174L20.7606 16.0959C21.0938 16.2777 21.5 16.0365 21.5 15.657V8.34153C21.5 7.962 21.0938 7.72084 20.7606 7.90258Z" fill="white"/>
<path fill-rule="evenodd" clip-rule="evenodd" d="M4 6C2.89543 6 2 6.89543 2 8V16C2 17.1046 2.89543 18 4 18H14C15.1046 18 16 17.1046 16 16V8C16 6.89543 15.1046 6 14 6H4ZM9 14.25C10.2426 14.25 11.25 13.2426 11.25 12C11.25 10.7574 10.2426 9.75 9 9.75C7.75736 9.75 6.75 10.7574 6.75 12C6.75 13.2426 7.75736 14.25 9 14.25Z" fill="white"/>
</svg>
