<svg width="24" height="24" viewBox="0 0 24 24" fill="none" xmlns="http://www.w3.org/2000/svg">
<path fill-rule="evenodd" clip-rule="evenodd" d="M14 7.5H4C3.72386 7.5 3.5 7.72386 3.5 8V16C3.5 16.2761 3.72386 16.5 4 16.5H14C14.2761 16.5 14.5 16.2761 14.5 16V8C14.5 7.72386 14.2761 7.5 14 7.5ZM4 6C2.89543 6 2 6.89543 2 8V16C2 17.1046 2.89543 18 4 18H14C15.1046 18 16 17.1046 16 16V8C16 6.89543 15.1046 6 14 6H4Z" fill="white"/>
<path d="M5 9H8V11H5V9Z" fill="white"/>
<path fill-rule="evenodd" clip-rule="evenodd" d="M11.1132 5.402C11.2721 5.30267 11.4557 5.25 11.6432 5.25H14.5C15.3284 5.25 16 5.92157 16 6.75V9.5H15V6.75C15 6.47386 14.7762 6.25 14.5 6.25H11.6432L9.76476 7.424L9.23476 6.576L11.1132 5.402Z" fill="white"/>
<path fill-rule="evenodd" clip-rule="evenodd" d="M14.5 10.5002V13.5002L20.1061 15.9028C20.7659 16.1856 21.5 15.7015 21.5 14.9836V9.0167C21.5 8.29879 20.7659 7.81476 20.1061 8.09756L14.5 10.5002ZM20 9.77497L16 11.4893V12.5111L20 14.2254V9.77497Z" fill="white"/>
</svg>
