<svg width="24" height="24" viewBox="0 0 24 24" fill="none" xmlns="http://www.w3.org/2000/svg">
<path fill-rule="evenodd" clip-rule="evenodd" d="M16 8.03185V6.75C16 5.92157 15.3284 5.25 14.5 5.25H11.6574C11.4522 5.25 11.252 5.31311 11.0839 5.43077L10.2707 6H4C2.89543 6 2 6.89543 2 8V16C2 17.1046 2.89543 18 4 18H6.03187L16 8.03185ZM8.15319 18H14C15.1046 18 16 17.1046 16 16V10.1532L8.15319 18ZM4 8H7V10H4V8ZM20.7606 7.90307L17.5 9.68156V14.3179L20.7606 16.0964C21.0938 16.2782 21.5 16.037 21.5 15.6575V8.34202C21.5 7.96249 21.0938 7.72133 20.7606 7.90307Z" fill="white"/>
<path fill-rule="evenodd" clip-rule="evenodd" d="M20.5009 2.46967C20.7938 2.76256 20.7938 3.23744 20.5009 3.53033L3.53035 20.5009C3.23745 20.7938 2.76258 20.7938 2.46969 20.5009C2.1768 20.208 2.17679 19.7331 2.46969 19.4402L19.4403 2.46967C19.7331 2.17678 20.208 2.17678 20.5009 2.46967Z" fill="white"/>
</svg>
