<svg width="24" height="24" viewBox="0 0 24 24" fill="none" xmlns="http://www.w3.org/2000/svg">
<path d="M1.99998 8.85714C1.99998 7.27919 3.27917 6 4.85713 6H13.1428C14.7208 6 16 7.27919 16 8.85714V15.1429C16 16.7208 14.7208 18 13.1428 18H12.9811C12.9936 17.835 13 17.6682 13 17.5C13 13.9102 10.0899 11 6.5 11C4.7535 11 3.16788 11.6888 1.99998 12.8096V8.85714Z" fill="white"/>
<path d="M20.3745 8.12587C20.9745 7.52592 22.0003 7.95084 22.0003 8.79931V15.5018C22.0003 16.3676 20.9386 16.7843 20.3497 16.1496L17.124 12.6726C16.7757 12.2972 16.7867 11.7136 17.1488 11.3515L20.3745 8.12587Z" fill="white"/>
<path fill-rule="evenodd" clip-rule="evenodd" d="M6.5 23C9.53757 23 12 20.5376 12 17.5C12 14.4624 9.53757 12 6.5 12C3.46243 12 1 14.4624 1 17.5C1 20.5376 3.46243 23 6.5 23ZM7 14.5C7 14.2239 6.77614 14 6.5 14C6.22386 14 6 14.2239 6 14.5V17H3.5C3.22386 17 3 17.2239 3 17.5C3 17.7761 3.22386 18 3.5 18H6V20.5C6 20.7761 6.22386 21 6.5 21C6.77614 21 7 20.7761 7 20.5V18H9.5C9.77614 18 10 17.7761 10 17.5C10 17.2239 9.77614 17 9.5 17H7V14.5Z" fill="white"/>
</svg>
