<svg width="24" height="24" viewBox="0 0 24 24" fill="none" xmlns="http://www.w3.org/2000/svg">
<path fill-rule="evenodd" clip-rule="evenodd" d="M19.4404 2.46967C19.7333 2.17678 20.2081 2.17678 20.501 2.46967C20.7938 2.76257 20.7939 3.23733 20.501 3.53022L3.53027 20.5009C3.23738 20.7936 2.76256 20.7937 2.46973 20.5009C2.17689 20.2081 2.17701 19.7333 2.46973 19.4404L4.0127 17.8955C2.85184 17.57 2.00003 16.506 2 15.2412V8.75873C2 7.33043 3.08554 6.15588 4.47656 6.01459L4.75879 5.99994H13.0342C13.8257 5.99994 14.5368 6.33496 15.0391 6.86908L19.4404 2.46967ZM4.75879 7.49994C4.06367 7.49994 3.5 8.06361 3.5 8.75873V15.2412C3.50003 15.9362 4.06369 16.4999 4.75879 16.4999H5.40918L8.11719 13.7919C7.45603 13.4656 7.00002 12.7871 7 11.9999C7 10.8954 7.89543 9.99994 9 9.99994C9.78721 9.99994 10.4657 10.4559 10.792 11.1171L13.9795 7.92963C13.7488 7.66677 13.4114 7.49994 13.0342 7.49994H4.75879Z" fill="white"/>
<path d="M15.793 15.2412C15.7929 16.7647 14.5577 17.9999 13.0342 17.9999H8.15332L9.65332 16.4999H13.0342C13.7293 16.4999 14.2929 15.9362 14.293 15.2412V11.8603L15.793 10.3603V15.2412Z" fill="white"/>
<path d="M20.374 8.12592C20.9739 7.52606 21.9997 7.95054 22 8.79877V15.5019C21.9998 16.3675 20.9384 16.7839 20.3496 16.1494L17.124 12.6728C16.7758 12.2975 16.7866 11.7136 17.1484 11.3515L20.374 8.12592Z" fill="white"/>
</svg>
