<svg width="24" height="24" viewBox="0 0 24 24" fill="none" xmlns="http://www.w3.org/2000/svg">
<path fill-rule="evenodd" clip-rule="evenodd" d="M5.78928 6.75581C6.08218 7.04871 6.08218 7.52358 5.78928 7.81647C5.49639 8.10937 5.02152 8.10937 4.72862 7.81647C4.43573 7.52358 4.43573 7.04871 4.72862 6.75581C5.02152 6.46292 5.49639 6.46292 5.78928 6.75581ZM9.16996 7.66162C9.46286 7.95452 9.46286 8.42939 9.16996 8.72228C8.87707 9.01518 8.4022 9.01518 8.1093 8.72228C7.81641 8.42939 7.81641 7.95452 8.1093 7.66162C8.4022 7.36873 8.87707 7.36873 9.16996 7.66162ZM6.6887 11.2035C6.9816 10.9106 6.9816 10.4358 6.6887 10.1429C6.39581 9.84999 5.92094 9.84999 5.62804 10.1429C5.33515 10.4358 5.33515 10.9106 5.62804 11.2035C5.92094 11.4964 6.39581 11.4964 6.6887 11.2035Z" fill="white" fill-opacity="0.96"/>
<path fill-rule="evenodd" clip-rule="evenodd" d="M20.8365 5.10036C18.9693 3.23314 15.9419 3.23315 14.0747 5.10038L11.9556 7.21947L9.83989 5.10377C7.97191 3.23579 4.94122 3.24253 3.08157 5.11882C1.23594 6.98095 1.23992 9.98381 3.09048 11.841L5.51656 14.2759C5.93089 14.6917 6.60407 14.6923 7.01915 14.2772L11.9556 9.34079L16.9025 14.2877C17.3161 14.7013 17.9866 14.7019 18.401 14.289L20.8305 11.8683C22.7034 10.0021 22.7062 6.96997 20.8365 5.10036ZM17.653 12.9169L13.0162 8.28013L15.1353 6.16104C16.4168 4.87959 18.4944 4.87959 19.7759 6.16103C21.059 7.44411 21.0571 9.52499 19.7717 10.8058L17.653 12.9169ZM8.77923 6.16443L10.8949 8.28013L6.26909 12.906L4.15305 10.7823C2.88464 9.50931 2.88191 7.45109 4.14694 6.17475C5.42158 4.8887 7.49888 4.88408 8.77923 6.16443ZM11.9531 20.2801C12.3673 20.2801 12.7031 19.9443 12.7031 19.5301C12.7031 19.1159 12.3673 18.7801 11.9531 18.7801C11.5389 18.7801 11.2031 19.1159 11.2031 19.5301C11.2031 19.9443 11.5389 20.2801 11.9531 20.2801ZM12.7031 16.5301C12.7031 16.9443 12.3673 17.2801 11.9531 17.2801C11.5389 17.2801 11.2031 16.9443 11.2031 16.5301C11.2031 16.1159 11.5389 15.7801 11.9531 15.7801C12.3673 15.7801 12.7031 16.1159 12.7031 16.5301ZM8.20312 16.5301C8.20312 16.9443 8.53891 17.2801 8.95312 17.2801C9.36734 17.2801 9.70312 16.9443 9.70312 16.5301C9.70312 16.1159 9.36734 15.7801 8.95312 15.7801C8.53891 15.7801 8.20312 16.1159 8.20312 16.5301ZM12.7031 13.5301C12.7031 13.9443 12.3673 14.2801 11.9531 14.2801C11.5389 14.2801 11.2031 13.9443 11.2031 13.5301C11.2031 13.1159 11.5389 12.7801 11.9531 12.7801C12.3673 12.7801 12.7031 13.1159 12.7031 13.5301ZM14.2031 16.5301C14.2031 16.9443 14.5389 17.2801 14.9531 17.2801C15.3673 17.2801 15.7031 16.9443 15.7031 16.5301C15.7031 16.1159 15.3673 15.7801 14.9531 15.7801C14.5389 15.7801 14.2031 16.1159 14.2031 16.5301Z" fill="white" fill-opacity="0.96"/>
</svg>
