<svg width="24" height="24" viewBox="0 0 24 24" fill="none" xmlns="http://www.w3.org/2000/svg">
<path fill-rule="evenodd" clip-rule="evenodd" d="M6 16.5C6.82843 16.5 7.5 17.1716 7.5 18V20.5C7.5 21.2767 6.90972 21.9154 6.15332 21.9922L6 22H3.5L3.34668 21.9922C2.64069 21.9205 2.07949 21.3593 2.00781 20.6533L2 20.5V18C2 17.1716 2.67157 16.5 3.5 16.5H6ZM3.5 20.5H6V18H3.5V20.5Z" fill="white"/>
<path fill-rule="evenodd" clip-rule="evenodd" d="M13.25 16.5C14.0784 16.5 14.75 17.1716 14.75 18V20.5C14.75 21.2767 14.1597 21.9154 13.4033 21.9922L13.25 22H10.75L10.5967 21.9922C9.89069 21.9205 9.32949 21.3593 9.25781 20.6533L9.25 20.5V18C9.25 17.1716 9.92157 16.5 10.75 16.5H13.25ZM10.75 20.5H13.25V18H10.75V20.5Z" fill="white"/>
<path fill-rule="evenodd" clip-rule="evenodd" d="M20.5 16.5C21.3284 16.5 22 17.1716 22 18V20.5C22 21.2767 21.4097 21.9154 20.6533 21.9922L20.5 22H18L17.8467 21.9922C17.1407 21.9205 16.5795 21.3593 16.5078 20.6533L16.5 20.5V18C16.5 17.1716 17.1716 16.5 18 16.5H20.5ZM18 20.5H20.5V18H18V20.5Z" fill="white"/>
<path fill-rule="evenodd" clip-rule="evenodd" d="M6 9.25C6.82843 9.25 7.5 9.92157 7.5 10.75V13.25C7.5 14.0267 6.90972 14.6654 6.15332 14.7422L6 14.75H3.5L3.34668 14.7422C2.64069 14.6705 2.07949 14.1093 2.00781 13.4033L2 13.25V10.75C2 9.92157 2.67157 9.25 3.5 9.25H6ZM3.5 13.25H6V10.75H3.5V13.25Z" fill="white"/>
<path fill-rule="evenodd" clip-rule="evenodd" d="M13.25 9.25C14.0784 9.25 14.75 9.92157 14.75 10.75V13.25C14.75 14.0267 14.1597 14.6654 13.4033 14.7422L13.25 14.75H10.75L10.5967 14.7422C9.89069 14.6705 9.32949 14.1093 9.25781 13.4033L9.25 13.25V10.75C9.25 9.92157 9.92157 9.25 10.75 9.25H13.25ZM10.75 13.25H13.25V10.75H10.75V13.25Z" fill="white"/>
<path fill-rule="evenodd" clip-rule="evenodd" d="M20.5 9.25C21.3284 9.25 22 9.92157 22 10.75V13.25C22 14.0267 21.4097 14.6654 20.6533 14.7422L20.5 14.75H18L17.8467 14.7422C17.1407 14.6705 16.5795 14.1093 16.5078 13.4033L16.5 13.25V10.75C16.5 9.92157 17.1716 9.25 18 9.25H20.5ZM18 13.25H20.5V10.75H18V13.25Z" fill="white"/>
<path fill-rule="evenodd" clip-rule="evenodd" d="M6 2C6.82843 2 7.5 2.67157 7.5 3.5V6C7.5 6.77666 6.90972 7.41539 6.15332 7.49219L6 7.5H3.5L3.34668 7.49219C2.64069 7.42051 2.07949 6.85931 2.00781 6.15332L2 6V3.5C2 2.67157 2.67157 2 3.5 2H6ZM3.5 6H6V3.5H3.5V6Z" fill="white"/>
<path fill-rule="evenodd" clip-rule="evenodd" d="M13.25 2C14.0784 2 14.75 2.67157 14.75 3.5V6C14.75 6.77666 14.1597 7.41539 13.4033 7.49219L13.25 7.5H10.75L10.5967 7.49219C9.89069 7.42051 9.32949 6.85931 9.25781 6.15332L9.25 6V3.5C9.25 2.67157 9.92157 2 10.75 2H13.25ZM10.75 6H13.25V3.5H10.75V6Z" fill="white"/>
<path fill-rule="evenodd" clip-rule="evenodd" d="M20.5 2C21.3284 2 22 2.67157 22 3.5V6C22 6.77666 21.4097 7.41539 20.6533 7.49219L20.5 7.5H18L17.8467 7.49219C17.1407 7.42051 16.5795 6.85931 16.5078 6.15332L16.5 6V3.5C16.5 2.67157 17.1716 2 18 2H20.5ZM18 6H20.5V3.5H18V6Z" fill="white"/>
</svg>
