<svg width="24" height="24" viewBox="0 0 24 24" fill="none" xmlns="http://www.w3.org/2000/svg">
<path d="M7.00098 3.75C7.00098 3.33579 7.33676 3 7.75098 3H16.251C16.6652 3 17.001 3.33579 17.001 3.75C17.001 4.16421 16.6652 4.5 16.251 4.5H7.75098C7.33676 4.5 7.00098 4.16421 7.00098 3.75Z" fill="white" fill-opacity="0.96"/>
<path d="M5.31714 11H18.6849C19.2796 11 19.7732 11 20.173 11.0341C20.5877 11.0695 20.9767 11.146 21.3357 11.3451C21.8821 11.6482 22.3091 12.1283 22.5462 12.7064C22.702 13.0861 22.7326 13.4815 22.7192 13.8974C22.7064 14.2985 22.6487 14.7887 22.5792 15.3793L22.3251 17.5398C22.2691 18.0157 22.2221 18.4151 22.1579 18.7409C22.0907 19.0823 21.9949 19.3993 21.8123 19.6949C21.5303 20.1517 21.1207 20.5159 20.6342 20.7426C20.3192 20.8894 19.9932 20.9475 19.6463 20.9744C19.3152 21 18.9131 21 18.4338 21H5.56829C5.08899 21 4.68687 21 4.35578 20.9744C4.00888 20.9475 3.68284 20.8894 3.3679 20.7426C2.88133 20.5159 2.47178 20.1517 2.18972 19.6949C2.00716 19.3993 1.91137 19.0823 1.84414 18.7409C1.77997 18.4151 1.73299 18.0157 1.677 17.5397L1.42284 15.3793C1.35334 14.7887 1.29566 14.2985 1.28282 13.8974C1.26951 13.4815 1.30007 13.0861 1.45585 12.7064C1.69298 12.1283 2.11992 11.6482 2.66635 11.3451C3.02533 11.146 3.41437 11.0695 3.82905 11.0341C4.22884 11 4.72242 11 5.31714 11Z" fill="white" fill-opacity="0.96"/>
<path d="M17.0192 6C17.5074 5.99999 17.9136 5.99999 18.2452 6.02388C18.5892 6.04867 18.9139 6.10214 19.2239 6.24131C19.9025 6.54603 20.4287 7.11265 20.6824 7.81191C20.7983 8.13128 20.8277 8.45906 20.827 8.80403C20.8266 9.01309 20.8109 9.23959 20.7903 9.5H3.21165C3.19112 9.23959 3.17548 9.01308 3.17506 8.80403C3.17437 8.45906 3.2037 8.13129 3.3196 7.81191C3.57335 7.11265 4.09956 6.54603 4.77816 6.24131C5.0881 6.10214 5.41281 6.04867 5.75689 6.02388C6.08848 5.99999 6.49463 5.99999 6.98287 6H17.0192Z" fill="white" fill-opacity="0.96"/>
</svg>
