<svg width="24" height="24" viewBox="0 0 24 24" fill="none" xmlns="http://www.w3.org/2000/svg">
<path d="M5.75 16.75C6.57843 16.75 7.25 17.4216 7.25 18.25V20.5C7.25 20.6013 7.23985 20.7002 7.2207 20.7959C7.21719 20.8134 7.21115 20.8303 7.20703 20.8477C7.20039 20.8756 7.19373 20.9033 7.18555 20.9307C7.17822 20.9551 7.16966 20.979 7.16113 21.0029C7.15388 21.0233 7.14677 21.0435 7.13867 21.0635C7.12926 21.0866 7.11892 21.1093 7.1084 21.1318C7.09921 21.1516 7.09009 21.1712 7.08008 21.1904C7.06788 21.2139 7.05538 21.2371 7.04199 21.2598C7.03202 21.2767 7.02135 21.2931 7.01074 21.3096C6.99801 21.3294 6.9853 21.349 6.97168 21.3682C6.95764 21.3879 6.94268 21.4068 6.92773 21.4258C6.91668 21.4398 6.90607 21.4541 6.89453 21.4678C6.87261 21.4937 6.84977 21.5186 6.82617 21.543C6.81623 21.5532 6.80613 21.5633 6.7959 21.5732C6.77129 21.5972 6.74593 21.6203 6.71973 21.6426C6.71038 21.6505 6.70095 21.6583 6.69141 21.666C6.66846 21.6846 6.64512 21.7025 6.62109 21.7197C6.60281 21.7328 6.58432 21.7455 6.56543 21.7578C6.54853 21.7688 6.53104 21.7788 6.51367 21.7891C6.49111 21.8025 6.46861 21.8159 6.44531 21.8281C6.42199 21.8404 6.39805 21.8513 6.37402 21.8623C6.35748 21.8699 6.34108 21.8778 6.32422 21.8848C6.29923 21.8951 6.27369 21.904 6.24805 21.9131C6.22604 21.9208 6.20411 21.9288 6.18164 21.9355C6.16389 21.9409 6.14595 21.9455 6.12793 21.9502C6.10111 21.9572 6.07426 21.9642 6.04688 21.9697C5.99973 21.9792 5.95195 21.9872 5.90332 21.9922C5.85291 21.9973 5.80176 22 5.75 22H3.5L3.34668 21.9922C3.30173 21.9876 3.25755 21.9801 3.21387 21.9717C3.19011 21.9671 3.16689 21.9608 3.14355 21.9551C3.11898 21.9491 3.09439 21.9437 3.07031 21.9365C3.05221 21.9311 3.03441 21.925 3.0166 21.9189C2.99017 21.9099 2.96422 21.9001 2.93848 21.8896C2.91936 21.8819 2.90055 21.8737 2.88184 21.8652C2.86109 21.8558 2.84054 21.8462 2.82031 21.8359C2.7995 21.8253 2.77903 21.8143 2.75879 21.8027C2.73794 21.7908 2.71748 21.7785 2.69727 21.7656C2.68017 21.7548 2.6631 21.744 2.64648 21.7324C2.62312 21.7162 2.6005 21.6991 2.57812 21.6816C2.56441 21.6709 2.55044 21.6606 2.53711 21.6494C2.46924 21.5925 2.40646 21.5298 2.34961 21.4619C2.33845 21.4486 2.32808 21.4346 2.31738 21.4209C2.29993 21.3985 2.28279 21.3759 2.2666 21.3525C2.25509 21.3359 2.24425 21.3189 2.2334 21.3018C2.22057 21.2815 2.20816 21.2611 2.19629 21.2402C2.18405 21.2187 2.17232 21.197 2.16113 21.1748C2.15156 21.1558 2.14257 21.1366 2.13379 21.1172C2.12532 21.0985 2.11709 21.0797 2.10938 21.0605C2.09899 21.0348 2.08905 21.0089 2.08008 20.9824C2.07403 20.9646 2.06789 20.9468 2.0625 20.9287C2.05533 20.9046 2.04992 20.88 2.04395 20.8555C2.0162 20.7414 2 20.6226 2 20.5V18.25C2 17.4216 2.67157 16.75 3.5 16.75H5.75Z" fill="white"/>
<path d="M13.1299 16.75C13.9583 16.75 14.6299 17.4216 14.6299 18.25V20.5C14.6299 20.6013 14.6197 20.7002 14.6006 20.7959C14.5971 20.8134 14.591 20.8303 14.5869 20.8477C14.5805 20.8748 14.5753 20.9021 14.5674 20.9287C14.562 20.9469 14.5549 20.9645 14.5488 20.9824C14.5384 21.0132 14.527 21.0434 14.5146 21.0732C14.5085 21.088 14.5026 21.1027 14.4961 21.1172C14.4848 21.1421 14.4725 21.1663 14.46 21.1904C14.4478 21.2139 14.4353 21.2371 14.4219 21.2598C14.4119 21.2767 14.4012 21.2931 14.3906 21.3096C14.3779 21.3294 14.3652 21.349 14.3516 21.3682C14.3389 21.386 14.326 21.4036 14.3125 21.4209C14.3001 21.4368 14.2874 21.4524 14.2744 21.4678C14.2525 21.4937 14.2297 21.5186 14.2061 21.543C14.1961 21.5532 14.186 21.5633 14.1758 21.5732C14.1512 21.5972 14.1258 21.6203 14.0996 21.6426C14.0903 21.6505 14.0808 21.6583 14.0713 21.666C14.0483 21.6846 14.025 21.7025 14.001 21.7197C13.9827 21.7328 13.9642 21.7455 13.9453 21.7578C13.9284 21.7688 13.9109 21.7788 13.8936 21.7891C13.871 21.8025 13.8485 21.8159 13.8252 21.8281C13.8019 21.8404 13.7779 21.8513 13.7539 21.8623C13.7374 21.8699 13.721 21.8778 13.7041 21.8848C13.6791 21.8951 13.6536 21.904 13.6279 21.9131C13.6059 21.9208 13.584 21.9288 13.5615 21.9355C13.5438 21.9409 13.5258 21.9455 13.5078 21.9502C13.481 21.9572 13.4541 21.9642 13.4268 21.9697C13.3797 21.9792 13.3318 21.9873 13.2832 21.9922C13.2328 21.9973 13.1816 22 13.1299 22H10.8799C10.8281 22 10.777 21.9973 10.7266 21.9922C10.681 21.9876 10.6361 21.9803 10.5918 21.9717C10.5707 21.9676 10.5501 21.962 10.5293 21.957C10.5027 21.9507 10.4762 21.9443 10.4502 21.9365C10.4321 21.9311 10.4143 21.925 10.3965 21.9189C10.3701 21.9099 10.3441 21.9001 10.3184 21.8896C10.2992 21.8819 10.2804 21.8737 10.2617 21.8652C10.241 21.8558 10.2204 21.8462 10.2002 21.8359C10.1774 21.8243 10.1549 21.8125 10.1328 21.7998C10.1176 21.791 10.1028 21.7817 10.0879 21.7725C10.0669 21.7593 10.0457 21.7465 10.0254 21.7324C10.0023 21.7164 9.98017 21.699 9.95801 21.6816C9.94429 21.6709 9.93032 21.6606 9.91699 21.6494C9.84913 21.5925 9.78634 21.5298 9.72949 21.4619C9.71206 21.4411 9.69598 21.4192 9.67969 21.3975C9.66853 21.3826 9.6571 21.3679 9.64648 21.3525C9.63472 21.3355 9.62338 21.3183 9.6123 21.3008C9.59733 21.2771 9.583 21.253 9.56934 21.2285C9.56239 21.2161 9.5564 21.2031 9.5498 21.1904C9.53645 21.1647 9.52361 21.1388 9.51172 21.1123C9.50403 21.0952 9.49631 21.078 9.48926 21.0605C9.47887 21.0348 9.46894 21.0088 9.45996 20.9824C9.45391 20.9646 9.44777 20.9468 9.44238 20.9287C9.43445 20.9021 9.42834 20.8749 9.42188 20.8477C9.39535 20.736 9.37988 20.6198 9.37988 20.5V18.25C9.37988 17.4216 10.0515 16.7501 10.8799 16.75H13.1299Z" fill="white"/>
<path d="M20.5 16.75C21.3284 16.75 22 17.4216 22 18.25V20.5C22 20.6013 21.9898 20.7002 21.9707 20.7959C21.9672 20.8134 21.9611 20.8303 21.957 20.8477C21.9506 20.8748 21.9454 20.9021 21.9375 20.9287C21.9321 20.9469 21.925 20.9645 21.9189 20.9824C21.91 21.0087 21.901 21.0349 21.8906 21.0605C21.8808 21.0848 21.8694 21.1082 21.8584 21.1318C21.8492 21.1516 21.8401 21.1712 21.8301 21.1904C21.8179 21.2139 21.8054 21.2371 21.792 21.2598C21.782 21.2767 21.7714 21.2931 21.7607 21.3096C21.748 21.3294 21.7353 21.349 21.7217 21.3682C21.709 21.386 21.6961 21.4036 21.6826 21.4209C21.6702 21.4368 21.6575 21.4524 21.6445 21.4678C21.6226 21.4937 21.5998 21.5186 21.5762 21.543C21.5662 21.5532 21.5561 21.5633 21.5459 21.5732C21.5213 21.5972 21.4959 21.6203 21.4697 21.6426C21.4604 21.6505 21.4509 21.6583 21.4414 21.666C21.4185 21.6846 21.3951 21.7025 21.3711 21.7197C21.3528 21.7328 21.3343 21.7455 21.3154 21.7578C21.2985 21.7688 21.281 21.7788 21.2637 21.7891C21.2411 21.8025 21.2186 21.8159 21.1953 21.8281C21.172 21.8404 21.148 21.8513 21.124 21.8623C21.1075 21.8699 21.0911 21.8778 21.0742 21.8848C21.0492 21.8951 21.0237 21.904 20.998 21.9131C20.976 21.9208 20.9541 21.9288 20.9316 21.9355C20.9139 21.9409 20.896 21.9455 20.8779 21.9502C20.8511 21.9572 20.8243 21.9642 20.7969 21.9697C20.7497 21.9792 20.702 21.9872 20.6533 21.9922C20.6029 21.9973 20.5518 22 20.5 22H18.25L18.0967 21.9922C18.0517 21.9876 18.0076 21.9801 17.9639 21.9717C17.9401 21.9671 17.9169 21.9608 17.8936 21.9551C17.869 21.9491 17.8444 21.9437 17.8203 21.9365C17.8022 21.9311 17.7844 21.925 17.7666 21.9189C17.7402 21.9099 17.7142 21.9001 17.6885 21.8896C17.6694 21.8819 17.6506 21.8737 17.6318 21.8652C17.6111 21.8558 17.5905 21.8462 17.5703 21.8359C17.5495 21.8253 17.529 21.8143 17.5088 21.8027C17.4879 21.7908 17.4675 21.7785 17.4473 21.7656C17.4302 21.7548 17.4131 21.744 17.3965 21.7324C17.3731 21.7162 17.3505 21.6991 17.3281 21.6816C17.3144 21.6709 17.3004 21.6606 17.2871 21.6494C17.2192 21.5925 17.1565 21.5298 17.0996 21.4619C17.0884 21.4486 17.0781 21.4346 17.0674 21.4209C17.0499 21.3985 17.0328 21.3759 17.0166 21.3525C17.0051 21.3359 16.9942 21.3189 16.9834 21.3018C16.9706 21.2815 16.9582 21.2611 16.9463 21.2402C16.9341 21.2187 16.9223 21.197 16.9111 21.1748C16.9016 21.1558 16.8926 21.1366 16.8838 21.1172C16.8753 21.0985 16.8671 21.0797 16.8594 21.0605C16.849 21.0348 16.8391 21.0089 16.8301 20.9824C16.824 20.9646 16.8179 20.9468 16.8125 20.9287C16.8046 20.9021 16.7985 20.8749 16.792 20.8477C16.7655 20.736 16.75 20.6198 16.75 20.5V18.25C16.75 17.4216 17.4216 16.75 18.25 16.75H20.5Z" fill="white"/>
<path d="M5.75 9.37988C6.57839 9.37988 7.24993 10.0515 7.25 10.8799V13.1299C7.25 13.2311 7.23983 13.3302 7.2207 13.4258C7.21719 13.4433 7.21115 13.4602 7.20703 13.4775C7.20039 13.5055 7.19373 13.5332 7.18555 13.5605C7.17822 13.585 7.16966 13.6089 7.16113 13.6328C7.15388 13.6532 7.14677 13.6734 7.13867 13.6934C7.12926 13.7165 7.11892 13.7391 7.1084 13.7617C7.09921 13.7814 7.09009 13.8011 7.08008 13.8203C7.06788 13.8438 7.05538 13.8669 7.04199 13.8896C7.03202 13.9066 7.02135 13.923 7.01074 13.9395C6.99801 13.9592 6.9853 13.9789 6.97168 13.998C6.95764 14.0178 6.94268 14.0367 6.92773 14.0557C6.91668 14.0697 6.90607 14.084 6.89453 14.0977C6.87261 14.1236 6.84977 14.1485 6.82617 14.1729C6.81623 14.1831 6.80613 14.1932 6.7959 14.2031C6.77129 14.2271 6.74593 14.2502 6.71973 14.2725C6.71038 14.2804 6.70095 14.2882 6.69141 14.2959C6.66846 14.3144 6.64513 14.3324 6.62109 14.3496C6.60281 14.3627 6.58432 14.3754 6.56543 14.3877C6.54853 14.3987 6.53104 14.4086 6.51367 14.4189C6.49111 14.4323 6.46862 14.4458 6.44531 14.458C6.42199 14.4702 6.39805 14.4812 6.37402 14.4922C6.35748 14.4998 6.34108 14.5076 6.32422 14.5146C6.28968 14.529 6.25454 14.5419 6.21875 14.5537C6.20995 14.5566 6.20125 14.5598 6.19238 14.5625C6.15682 14.5735 6.12062 14.5825 6.08398 14.5908C6.07191 14.5936 6.06003 14.5972 6.04785 14.5996C6.0004 14.6092 5.95228 14.6171 5.90332 14.6221C5.8529 14.6272 5.80177 14.6299 5.75 14.6299H3.5L3.34668 14.6221C3.29805 14.6171 3.25027 14.6091 3.20312 14.5996C3.19063 14.5971 3.1784 14.5936 3.16602 14.5908C3.13374 14.5835 3.10176 14.5758 3.07031 14.5664C3.05221 14.561 3.03441 14.5549 3.0166 14.5488C2.9889 14.5394 2.96151 14.5295 2.93457 14.5186C2.92144 14.5132 2.90845 14.5077 2.89551 14.502C2.86637 14.4891 2.8377 14.4756 2.80957 14.4609C2.79338 14.4525 2.77756 14.4436 2.76172 14.4346C2.73982 14.4221 2.71846 14.409 2.69727 14.3955C2.68017 14.3846 2.6631 14.3738 2.64648 14.3623C2.53586 14.2855 2.43583 14.1948 2.34961 14.0918C2.33845 14.0785 2.32808 14.0645 2.31738 14.0508C2.29993 14.0284 2.28279 14.0058 2.2666 13.9824C2.25509 13.9658 2.24425 13.9487 2.2334 13.9316C2.22058 13.9114 2.20816 13.891 2.19629 13.8701C2.18405 13.8486 2.17232 13.8268 2.16113 13.8047C2.15156 13.7857 2.14257 13.7665 2.13379 13.7471C2.12532 13.7284 2.11709 13.7095 2.10938 13.6904C2.09849 13.6635 2.08843 13.6361 2.0791 13.6084C2.07386 13.5928 2.06822 13.5773 2.06348 13.5615C2.05547 13.5348 2.04853 13.5078 2.04199 13.4805C2.01505 13.368 2 13.2506 2 13.1299V10.8799C2.00007 10.0515 2.67161 9.37988 3.5 9.37988H5.75Z" fill="white"/>
<path d="M13.1299 9.37988C13.9583 9.37988 14.6298 10.0515 14.6299 10.8799V13.1299C14.6299 13.2312 14.6197 13.3301 14.6006 13.4258C14.5971 13.4433 14.591 13.4602 14.5869 13.4775C14.5803 13.5054 14.5746 13.5333 14.5664 13.5605C14.5616 13.5767 14.5561 13.5925 14.5508 13.6084C14.54 13.6406 14.5276 13.672 14.5146 13.7031C14.5085 13.7178 14.5026 13.7326 14.4961 13.7471C14.4848 13.772 14.4725 13.7962 14.46 13.8203C14.4478 13.8438 14.4353 13.8669 14.4219 13.8896C14.4119 13.9066 14.4012 13.923 14.3906 13.9395C14.3779 13.9592 14.3652 13.9789 14.3516 13.998C14.3389 14.0159 14.326 14.0335 14.3125 14.0508C14.3001 14.0667 14.2874 14.0823 14.2744 14.0977C14.2525 14.1236 14.2297 14.1485 14.2061 14.1729C14.1961 14.1831 14.186 14.1932 14.1758 14.2031C14.1512 14.2271 14.1258 14.2502 14.0996 14.2725C14.0903 14.2804 14.0808 14.2882 14.0713 14.2959C14.0483 14.3144 14.025 14.3324 14.001 14.3496C13.9827 14.3627 13.9642 14.3754 13.9453 14.3877C13.9284 14.3987 13.9109 14.4086 13.8936 14.4189C13.871 14.4323 13.8485 14.4458 13.8252 14.458C13.8019 14.4702 13.7779 14.4812 13.7539 14.4922C13.7374 14.4998 13.721 14.5076 13.7041 14.5146C13.6696 14.529 13.6344 14.5419 13.5986 14.5537C13.5898 14.5566 13.5811 14.5598 13.5723 14.5625C13.5367 14.5735 13.5005 14.5825 13.4639 14.5908C13.4518 14.5936 13.4399 14.5972 13.4277 14.5996C13.3803 14.6092 13.3321 14.6171 13.2832 14.6221C13.2328 14.6272 13.1816 14.6299 13.1299 14.6299H10.8799C10.8281 14.6299 10.777 14.6272 10.7266 14.6221C10.6773 14.6171 10.6288 14.6093 10.5811 14.5996C10.5735 14.5981 10.5661 14.5954 10.5586 14.5938C10.522 14.5857 10.4858 14.577 10.4502 14.5664C10.4321 14.561 10.4143 14.5549 10.3965 14.5488C10.3688 14.5394 10.3414 14.5295 10.3145 14.5186C10.3013 14.5132 10.2883 14.5077 10.2754 14.502C10.2472 14.4895 10.2196 14.476 10.1924 14.4619C10.1729 14.4519 10.1537 14.4415 10.1348 14.4307C10.1189 14.4216 10.1034 14.412 10.0879 14.4023C10.0669 14.3892 10.0457 14.3764 10.0254 14.3623C9.91504 14.2856 9.81553 14.1946 9.72949 14.0918C9.71206 14.071 9.69598 14.0491 9.67969 14.0273C9.66853 14.0124 9.6571 13.9978 9.64648 13.9824C9.63472 13.9654 9.62338 13.9482 9.6123 13.9307C9.59733 13.907 9.583 13.8829 9.56934 13.8584C9.5624 13.8459 9.5564 13.833 9.5498 13.8203C9.53645 13.7946 9.5236 13.7687 9.51172 13.7422C9.50403 13.725 9.49631 13.7079 9.48926 13.6904C9.47838 13.6635 9.46831 13.6361 9.45898 13.6084C9.45364 13.5925 9.44818 13.5767 9.44336 13.5605C9.43519 13.5332 9.42851 13.5055 9.42188 13.4775C9.39537 13.3659 9.37988 13.2496 9.37988 13.1299V10.8799C9.37995 10.0516 10.0516 9.37995 10.8799 9.37988H13.1299Z" fill="white"/>
<path d="M20.5 9.37988C21.3284 9.37988 21.9999 10.0515 22 10.8799V13.1299C22 13.2311 21.9898 13.3302 21.9707 13.4258C21.9672 13.4433 21.9611 13.4602 21.957 13.4775C21.9504 13.5055 21.9437 13.5332 21.9355 13.5605C21.9282 13.585 21.9197 13.6089 21.9111 13.6328C21.9043 13.6521 21.8982 13.6715 21.8906 13.6904C21.8808 13.7147 21.8694 13.7381 21.8584 13.7617C21.8492 13.7814 21.8401 13.8011 21.8301 13.8203C21.8179 13.8438 21.8054 13.8669 21.792 13.8896C21.782 13.9066 21.7714 13.923 21.7607 13.9395C21.748 13.9592 21.7353 13.9789 21.7217 13.998C21.709 14.0159 21.6961 14.0335 21.6826 14.0508C21.6702 14.0667 21.6575 14.0823 21.6445 14.0977C21.6226 14.1236 21.5998 14.1485 21.5762 14.1729C21.5662 14.1831 21.5561 14.1932 21.5459 14.2031C21.5213 14.2271 21.4959 14.2502 21.4697 14.2725C21.4604 14.2804 21.4509 14.2882 21.4414 14.2959C21.4185 14.3144 21.3951 14.3324 21.3711 14.3496C21.3528 14.3627 21.3343 14.3754 21.3154 14.3877C21.2985 14.3987 21.281 14.4086 21.2637 14.4189C21.2411 14.4323 21.2186 14.4458 21.1953 14.458C21.172 14.4702 21.148 14.4812 21.124 14.4922C21.1075 14.4998 21.0911 14.5076 21.0742 14.5146C21.0397 14.529 21.0045 14.5419 20.9688 14.5537C20.96 14.5566 20.9513 14.5598 20.9424 14.5625C20.9068 14.5735 20.8706 14.5825 20.834 14.5908C20.8219 14.5936 20.81 14.5972 20.7979 14.5996C20.7504 14.6092 20.7023 14.6171 20.6533 14.6221C20.6029 14.6272 20.5518 14.6299 20.5 14.6299H18.25L18.0967 14.6221C18.048 14.6171 18.0003 14.6091 17.9531 14.5996C17.9406 14.5971 17.9284 14.5936 17.916 14.5908C17.8837 14.5835 17.8518 14.5758 17.8203 14.5664C17.8022 14.561 17.7844 14.5549 17.7666 14.5488C17.7389 14.5394 17.7115 14.5295 17.6846 14.5186C17.6714 14.5132 17.6584 14.5077 17.6455 14.502C17.6164 14.4891 17.5877 14.4756 17.5596 14.4609C17.5434 14.4525 17.5276 14.4436 17.5117 14.4346C17.4898 14.4221 17.4685 14.409 17.4473 14.3955C17.4302 14.3846 17.4131 14.3738 17.3965 14.3623C17.2859 14.2855 17.1858 14.1948 17.0996 14.0918C17.0884 14.0785 17.0781 14.0645 17.0674 14.0508C17.0499 14.0284 17.0328 14.0058 17.0166 13.9824C17.0051 13.9658 16.9942 13.9487 16.9834 13.9316C16.9706 13.9114 16.9582 13.891 16.9463 13.8701C16.9341 13.8486 16.9223 13.8268 16.9111 13.8047C16.9016 13.7857 16.8926 13.7665 16.8838 13.7471C16.8753 13.7284 16.8671 13.7095 16.8594 13.6904C16.8485 13.6635 16.8384 13.6361 16.8291 13.6084C16.8238 13.5925 16.8183 13.5767 16.8135 13.5605C16.8053 13.5332 16.7986 13.5055 16.792 13.4775C16.7655 13.3659 16.75 13.2496 16.75 13.1299V10.8799C16.7501 10.0515 17.4216 9.37988 18.25 9.37988H20.5Z" fill="white"/>
<path d="M5.75 2C6.57843 2 7.25 2.67157 7.25 3.5V5.75C7.25 5.8513 7.23985 5.95023 7.2207 6.0459C7.21719 6.06344 7.21115 6.08034 7.20703 6.09766C7.20039 6.12561 7.19373 6.15334 7.18555 6.18066C7.17822 6.20512 7.16966 6.22901 7.16113 6.25293C7.15388 6.27328 7.14677 6.29354 7.13867 6.31348C7.12926 6.33665 7.11892 6.35926 7.1084 6.38184C7.09921 6.40156 7.09009 6.42119 7.08008 6.44043C7.06788 6.46389 7.05538 6.48705 7.04199 6.50977C7.03202 6.52668 7.02135 6.54309 7.01074 6.55957C6.99801 6.57935 6.9853 6.59904 6.97168 6.61816C6.95764 6.63788 6.94268 6.65679 6.92773 6.67578C6.91668 6.68982 6.90607 6.70414 6.89453 6.71777C6.87261 6.74366 6.84977 6.76863 6.82617 6.79297C6.81623 6.80323 6.80613 6.81327 6.7959 6.82324C6.77129 6.84723 6.74593 6.87032 6.71973 6.89258C6.71038 6.90052 6.70095 6.9083 6.69141 6.91602C6.66846 6.93456 6.64512 6.95254 6.62109 6.96973C6.60281 6.98281 6.58432 6.99554 6.56543 7.00781C6.54853 7.01879 6.53104 7.02876 6.51367 7.03906C6.49111 7.05246 6.46861 7.0659 6.44531 7.07812C6.42199 7.09036 6.39805 7.10128 6.37402 7.1123C6.35748 7.1199 6.34108 7.12777 6.32422 7.13477C6.29923 7.14514 6.27369 7.15405 6.24805 7.16309C6.22604 7.17084 6.20411 7.1788 6.18164 7.18555C6.16389 7.19088 6.14595 7.19551 6.12793 7.2002C6.10111 7.20717 6.07426 7.21423 6.04688 7.21973C5.99973 7.2292 5.95195 7.23725 5.90332 7.24219C5.85291 7.24731 5.80176 7.25 5.75 7.25H3.5L3.34668 7.24219C3.30173 7.23762 3.25755 7.23012 3.21387 7.22168C3.19011 7.21709 3.16689 7.21078 3.14355 7.20508C3.11898 7.19908 3.09439 7.19372 3.07031 7.18652C3.05221 7.18112 3.03441 7.17501 3.0166 7.16895C2.99017 7.15994 2.96422 7.15006 2.93848 7.13965C2.91936 7.13192 2.90055 7.12372 2.88184 7.11523C2.86109 7.10583 2.84054 7.09625 2.82031 7.08594C2.7995 7.07533 2.77903 7.06427 2.75879 7.05273C2.73794 7.04085 2.71748 7.02847 2.69727 7.01562C2.68017 7.00476 2.6631 6.99395 2.64648 6.98242C2.62312 6.96621 2.6005 6.94912 2.57812 6.93164C2.56441 6.92093 2.55044 6.91059 2.53711 6.89941C2.46924 6.8425 2.40646 6.77983 2.34961 6.71191C2.33845 6.69858 2.32808 6.68462 2.31738 6.6709C2.29993 6.64851 2.28279 6.62591 2.2666 6.60254C2.25509 6.58591 2.24425 6.56886 2.2334 6.55176C2.22057 6.53154 2.20816 6.51109 2.19629 6.49023C2.18405 6.46873 2.17232 6.44696 2.16113 6.4248C2.15156 6.40584 2.14257 6.3866 2.13379 6.36719C2.12532 6.34847 2.11709 6.32966 2.10938 6.31055C2.09899 6.2848 2.08905 6.25885 2.08008 6.23242C2.07403 6.21461 2.06789 6.19681 2.0625 6.17871C2.05533 6.15464 2.04992 6.13003 2.04395 6.10547C2.0162 5.99141 2 5.8726 2 5.75V3.5C2 2.67157 2.67157 2 3.5 2H5.75Z" fill="white"/>
<path d="M13.1299 2C13.9583 2 14.6299 2.67157 14.6299 3.5V5.75C14.6299 5.85131 14.6197 5.95022 14.6006 6.0459C14.5971 6.06344 14.591 6.08034 14.5869 6.09766C14.5805 6.12482 14.5753 6.15215 14.5674 6.17871C14.562 6.19691 14.5549 6.21452 14.5488 6.23242C14.5384 6.26319 14.527 6.29341 14.5146 6.32324C14.5085 6.33797 14.5026 6.3527 14.4961 6.36719C14.4848 6.39207 14.4725 6.4163 14.46 6.44043C14.4478 6.46389 14.4353 6.48705 14.4219 6.50977C14.4119 6.52669 14.4012 6.54308 14.3906 6.55957C14.3779 6.57935 14.3652 6.59903 14.3516 6.61816C14.3389 6.63601 14.326 6.65364 14.3125 6.6709C14.3001 6.68679 14.2874 6.7024 14.2744 6.71777C14.2525 6.74366 14.2297 6.76863 14.2061 6.79297C14.1961 6.80323 14.186 6.81327 14.1758 6.82324C14.1512 6.84723 14.1258 6.87032 14.0996 6.89258C14.0903 6.90052 14.0808 6.9083 14.0713 6.91602C14.0483 6.93456 14.025 6.95254 14.001 6.96973C13.9827 6.98281 13.9642 6.99554 13.9453 7.00781C13.9284 7.01879 13.9109 7.02876 13.8936 7.03906C13.871 7.05246 13.8485 7.0659 13.8252 7.07812C13.8019 7.09036 13.7779 7.10128 13.7539 7.1123C13.7374 7.1199 13.721 7.12777 13.7041 7.13477C13.6791 7.14514 13.6536 7.15405 13.6279 7.16309C13.6059 7.17084 13.584 7.1788 13.5615 7.18555C13.5438 7.19088 13.5258 7.19551 13.5078 7.2002C13.481 7.20716 13.4541 7.21423 13.4268 7.21973C13.3797 7.22918 13.3318 7.23725 13.2832 7.24219C13.2328 7.2473 13.1816 7.25 13.1299 7.25H10.8799C10.8281 7.25 10.777 7.24731 10.7266 7.24219C10.681 7.23755 10.6361 7.2303 10.5918 7.22168C10.5707 7.21757 10.5501 7.21201 10.5293 7.20703C10.5027 7.20065 10.4762 7.1943 10.4502 7.18652C10.4321 7.18111 10.4143 7.17501 10.3965 7.16895C10.3701 7.15994 10.3441 7.15006 10.3184 7.13965C10.2992 7.13192 10.2804 7.12372 10.2617 7.11523C10.241 7.10583 10.2204 7.09625 10.2002 7.08594C10.1774 7.07433 10.1549 7.06252 10.1328 7.0498C10.1176 7.04104 10.1028 7.03174 10.0879 7.02246C10.0669 7.00934 10.0457 6.99653 10.0254 6.98242C10.0023 6.96635 9.98017 6.94895 9.95801 6.93164C9.94429 6.92093 9.93032 6.91059 9.91699 6.89941C9.84913 6.8425 9.78634 6.77983 9.72949 6.71191C9.71206 6.69109 9.69598 6.66922 9.67969 6.64746C9.66853 6.63256 9.6571 6.61787 9.64648 6.60254C9.63472 6.58555 9.62338 6.56827 9.6123 6.55078C9.59733 6.52712 9.583 6.50305 9.56934 6.47852C9.56239 6.46605 9.5564 6.45311 9.5498 6.44043C9.53645 6.41475 9.52361 6.38883 9.51172 6.3623C9.50403 6.34516 9.49631 6.32803 9.48926 6.31055C9.47887 6.28481 9.46894 6.25885 9.45996 6.23242C9.45391 6.21462 9.44777 6.19681 9.44238 6.17871C9.43445 6.15208 9.42834 6.12489 9.42188 6.09766C9.39535 5.98598 9.37988 5.86979 9.37988 5.75V3.5C9.37988 2.67161 10.0515 2.00007 10.8799 2H13.1299Z" fill="white"/>
<path d="M20.5 2C21.3284 2 22 2.67157 22 3.5V5.75C22 5.8513 21.9898 5.95023 21.9707 6.0459C21.9672 6.06344 21.9611 6.08034 21.957 6.09766C21.9506 6.12481 21.9454 6.15215 21.9375 6.17871C21.9321 6.19691 21.925 6.21452 21.9189 6.23242C21.91 6.25875 21.901 6.2849 21.8906 6.31055C21.8808 6.33481 21.8694 6.35822 21.8584 6.38184C21.8492 6.40156 21.8401 6.42119 21.8301 6.44043C21.8179 6.46389 21.8054 6.48705 21.792 6.50977C21.782 6.52668 21.7714 6.54309 21.7607 6.55957C21.748 6.57935 21.7353 6.59904 21.7217 6.61816C21.709 6.63601 21.6961 6.65364 21.6826 6.6709C21.6702 6.68679 21.6575 6.7024 21.6445 6.71777C21.6226 6.74366 21.5998 6.76863 21.5762 6.79297C21.5662 6.80323 21.5561 6.81327 21.5459 6.82324C21.5213 6.84723 21.4959 6.87032 21.4697 6.89258C21.4604 6.90052 21.4509 6.9083 21.4414 6.91602C21.4185 6.93456 21.3951 6.95254 21.3711 6.96973C21.3528 6.98281 21.3343 6.99554 21.3154 7.00781C21.2985 7.01879 21.281 7.02876 21.2637 7.03906C21.2411 7.05246 21.2186 7.0659 21.1953 7.07812C21.172 7.09036 21.148 7.10128 21.124 7.1123C21.1075 7.1199 21.0911 7.12777 21.0742 7.13477C21.0492 7.14514 21.0237 7.15405 20.998 7.16309C20.976 7.17084 20.9541 7.1788 20.9316 7.18555C20.9139 7.19088 20.896 7.19551 20.8779 7.2002C20.8511 7.20717 20.8243 7.21423 20.7969 7.21973C20.7497 7.2292 20.702 7.23725 20.6533 7.24219C20.6029 7.24731 20.5518 7.25 20.5 7.25H18.25L18.0967 7.24219C18.0517 7.23762 18.0076 7.23012 17.9639 7.22168C17.9401 7.21709 17.9169 7.21078 17.8936 7.20508C17.869 7.19908 17.8444 7.19372 17.8203 7.18652C17.8022 7.18112 17.7844 7.17501 17.7666 7.16895C17.7402 7.15994 17.7142 7.15006 17.6885 7.13965C17.6694 7.13192 17.6506 7.12372 17.6318 7.11523C17.6111 7.10583 17.5905 7.09625 17.5703 7.08594C17.5495 7.07533 17.529 7.06427 17.5088 7.05273C17.4879 7.04085 17.4675 7.02847 17.4473 7.01562C17.4302 7.00476 17.4131 6.99395 17.3965 6.98242C17.3731 6.96621 17.3505 6.94912 17.3281 6.93164C17.3144 6.92093 17.3004 6.91059 17.2871 6.89941C17.2192 6.8425 17.1565 6.77983 17.0996 6.71191C17.0884 6.69858 17.0781 6.68462 17.0674 6.6709C17.0499 6.64851 17.0328 6.62591 17.0166 6.60254C17.0051 6.58591 16.9942 6.56886 16.9834 6.55176C16.9706 6.53154 16.9582 6.51109 16.9463 6.49023C16.9341 6.46873 16.9223 6.44696 16.9111 6.4248C16.9016 6.40584 16.8926 6.3866 16.8838 6.36719C16.8753 6.34847 16.8671 6.32966 16.8594 6.31055C16.849 6.2848 16.8391 6.25885 16.8301 6.23242C16.824 6.21461 16.8179 6.19681 16.8125 6.17871C16.8046 6.15208 16.7985 6.12489 16.792 6.09766C16.7655 5.98598 16.75 5.8698 16.75 5.75V3.5C16.75 2.67157 17.4216 2 18.25 2H20.5Z" fill="white"/>
</svg>
