<svg width="16" height="16" viewBox="0 0 16 16" fill="none" xmlns="http://www.w3.org/2000/svg">
<path d="M4.50215 2.27083C4.50215 1.98319 4.73706 1.75 5.02682 1.75H10.9731C11.2629 1.75 11.4978 1.98319 11.4978 2.27083C11.4978 2.55848 11.2629 2.79167 10.9731 2.79167H5.02682C4.73706 2.79167 4.50215 2.55848 4.50215 2.27083Z" fill="white"/>
<path d="M3.32421 7.30556H12.6758C13.0918 7.30555 13.4371 7.30554 13.7168 7.32923C14.0069 7.3538 14.2791 7.40695 14.5302 7.54521C14.9124 7.75566 15.2111 8.08907 15.377 8.49053C15.486 8.75427 15.5074 9.02879 15.498 9.31766C15.4891 9.59615 15.4487 9.93656 15.4001 10.3467L15.2223 11.847C15.1831 12.1776 15.1503 12.4549 15.1054 12.6812C15.0583 12.9182 14.9913 13.1384 14.8636 13.3437C14.6663 13.6609 14.3798 13.9138 14.0394 14.0713C13.8191 14.1732 13.591 14.2135 13.3483 14.2322C13.1167 14.25 12.8354 14.25 12.5001 14.25H3.4999C3.1646 14.25 2.88329 14.25 2.65168 14.2322C2.409 14.2135 2.18091 14.1732 1.96059 14.0713C1.62021 13.9138 1.3337 13.6609 1.13639 13.3437C1.00867 13.1384 0.941661 12.9182 0.894627 12.6812C0.849737 12.4549 0.816874 12.1776 0.777704 11.847L0.599904 10.3467C0.551286 9.93658 0.510935 9.59616 0.501954 9.31766C0.49264 9.02879 0.514017 8.75427 0.622998 8.49053C0.788887 8.08907 1.08755 7.75566 1.46982 7.54521C1.72095 7.40695 1.9931 7.3538 2.2832 7.32923C2.56287 7.30554 2.90817 7.30555 3.32421 7.30556Z" fill="white"/>
<path d="M11.5105 3.83333C11.852 3.83333 12.1362 3.83332 12.3681 3.84992C12.6089 3.86713 12.836 3.90426 13.0528 4.00091C13.5276 4.21252 13.8957 4.60601 14.0732 5.0916C14.1543 5.31339 14.1748 5.54101 14.1743 5.78058C14.174 5.92576 14.163 6.08305 14.1487 6.26389H1.85129C1.83693 6.08305 1.82599 5.92575 1.82569 5.78058C1.82521 5.54101 1.84573 5.31339 1.92681 5.0916C2.10432 4.60601 2.47244 4.21252 2.94716 4.00091C3.16398 3.90426 3.39114 3.86713 3.63184 3.84992C3.86381 3.83332 4.14793 3.83333 4.48949 3.83333H11.5105Z" fill="white"/>
</svg>
