<svg width="16" height="16" viewBox="0 0 16 16" fill="none" xmlns="http://www.w3.org/2000/svg">
<path d="M13.7292 4.50215C14.0168 4.50215 14.25 4.73706 14.25 5.02682V10.9731C14.25 11.2629 14.0168 11.4978 13.7292 11.4978C13.4415 11.4978 13.2083 11.2629 13.2083 10.9731V5.02682C13.2083 4.73706 13.4415 4.50215 13.7292 4.50215Z" fill="white"/>
<path d="M8.69445 3.32421V12.6758C8.69445 13.0918 8.69446 13.4371 8.67077 13.7168C8.6462 14.0069 8.59305 14.2791 8.45479 14.5302C8.24434 14.9124 7.91093 15.2111 7.50947 15.377C7.24573 15.486 6.97121 15.5074 6.68234 15.498C6.40385 15.4891 6.06344 15.4487 5.65328 15.4001L4.15295 15.2223C3.82245 15.1831 3.54507 15.1503 3.31883 15.1054C3.08176 15.0583 2.86161 14.9913 2.65631 14.8636C2.33913 14.6663 2.08621 14.3798 1.92874 14.0394C1.82682 13.8191 1.78648 13.591 1.76781 13.3483C1.74999 13.1167 1.74999 12.8354 1.75 12.5001V3.4999C1.74999 3.1646 1.74999 2.88329 1.76781 2.65168C1.78648 2.409 1.82682 2.18091 1.92874 1.96059C2.08621 1.62021 2.33913 1.3337 2.65631 1.13639C2.86161 1.00867 3.08176 0.941661 3.31883 0.894627C3.5451 0.849737 3.82244 0.816874 4.15301 0.777704L5.65326 0.599904C6.06342 0.551286 6.40384 0.510935 6.68234 0.501954C6.97121 0.49264 7.24573 0.514017 7.50947 0.622998C7.91093 0.788887 8.24434 1.08755 8.45479 1.46982C8.59305 1.72095 8.6462 1.9931 8.67077 2.2832C8.69446 2.56287 8.69445 2.90817 8.69445 3.32421Z" fill="white"/>
<path d="M12.1667 11.5105C12.1667 11.852 12.1667 12.1362 12.1501 12.3681C12.1329 12.6089 12.0957 12.836 11.9991 13.0528C11.7875 13.5276 11.394 13.8957 10.9084 14.0732C10.6866 14.1543 10.459 14.1748 10.2194 14.1743C10.0742 14.174 9.91695 14.163 9.73611 14.1487V1.85129C9.91695 1.83693 10.0742 1.82599 10.2194 1.82569C10.459 1.82521 10.6866 1.84573 10.9084 1.92681C11.394 2.10432 11.7875 2.47244 11.9991 2.94716C12.0957 3.16398 12.1329 3.39114 12.1501 3.63184C12.1667 3.86381 12.1667 4.14793 12.1667 4.48949V11.5105Z" fill="white"/>
</svg>
