<svg width="24" height="24" viewBox="0 0 24 24" fill="none" xmlns="http://www.w3.org/2000/svg">
<path fill-rule="evenodd" clip-rule="evenodd" d="M5.65332 16.5078C6.40972 16.5846 7 17.2233 7 18V20L6.99219 20.1533C6.92051 20.8593 6.35931 21.4205 5.65332 21.4922L5.5 21.5H3.5C2.72334 21.5 2.08461 20.9097 2.00781 20.1533L2 20V18C2 17.1716 2.67157 16.5 3.5 16.5H5.5L5.65332 16.5078ZM3.5 20H5.5V18H3.5V20Z" fill="white"/>
<path fill-rule="evenodd" clip-rule="evenodd" d="M20.6533 16.5078C21.4097 16.5846 22 17.2233 22 18V20L21.9922 20.1533C21.9205 20.8593 21.3593 21.4205 20.6533 21.4922L20.5 21.5H10.5C9.72334 21.5 9.08461 20.9097 9.00781 20.1533L9 20V18C9 17.1716 9.67157 16.5 10.5 16.5H20.5L20.6533 16.5078ZM10.5 20H20.5V18H10.5V20Z" fill="white"/>
<path fill-rule="evenodd" clip-rule="evenodd" d="M5.65332 9.50781C6.40972 9.58461 7 10.2233 7 11V13L6.99219 13.1533C6.92051 13.8593 6.35931 14.4205 5.65332 14.4922L5.5 14.5H3.5C2.72334 14.5 2.08461 13.9097 2.00781 13.1533L2 13V11C2 10.1716 2.67157 9.5 3.5 9.5H5.5L5.65332 9.50781ZM3.5 13H5.5V11H3.5V13Z" fill="white"/>
<path fill-rule="evenodd" clip-rule="evenodd" d="M20.6533 9.50781C21.4097 9.58461 22 10.2233 22 11V13L21.9922 13.1533C21.9205 13.8593 21.3593 14.4205 20.6533 14.4922L20.5 14.5H10.5C9.72334 14.5 9.08461 13.9097 9.00781 13.1533L9 13V11C9 10.1716 9.67157 9.5 10.5 9.5H20.5L20.6533 9.50781ZM10.5 13H20.5V11H10.5V13Z" fill="white"/>
<path fill-rule="evenodd" clip-rule="evenodd" d="M5.65332 2.50781C6.40972 2.58461 7 3.22334 7 4V6L6.99219 6.15332C6.92051 6.85931 6.35931 7.42051 5.65332 7.49219L5.5 7.5H3.5C2.72334 7.5 2.08461 6.90972 2.00781 6.15332L2 6V4C2 3.17157 2.67157 2.5 3.5 2.5H5.5L5.65332 2.50781ZM3.5 6H5.5V4H3.5V6Z" fill="white"/>
<path fill-rule="evenodd" clip-rule="evenodd" d="M20.6533 2.50781C21.4097 2.58461 22 3.22334 22 4V6L21.9922 6.15332C21.9205 6.85931 21.3593 7.42051 20.6533 7.49219L20.5 7.5H10.5C9.72334 7.5 9.08461 6.90972 9.00781 6.15332L9 6V4C9 3.17157 9.67157 2.5 10.5 2.5H20.5L20.6533 2.50781ZM10.5 6H20.5V4H10.5V6Z" fill="white"/>
</svg>
