<svg width="24" height="24" viewBox="0 0 24 24" fill="none" xmlns="http://www.w3.org/2000/svg">
<path fill-rule="evenodd" clip-rule="evenodd" d="M1.76393 4.5001C2.46242 4.5001 2.65333 4.50747 2.8029 4.55047C3.10937 4.63858 3.37093 4.83654 3.53571 5.10509C3.61286 5.23082 3.6674 5.40102 3.82863 6.00011H3.82719L5.58357 13.156L5.61374 13.2684C5.63342 13.3418 5.65277 13.414 5.67225 13.4849L5.80828 13.9894L5.82666 13.9846C5.9116 14.2185 6.01431 14.4306 6.15847 14.6159C6.40326 14.9305 6.72827 15.1761 7.10067 15.3279C7.5269 15.5017 8.01274 15.5009 8.56689 15.5001L8.68525 15.4999H16.3808L16.4992 15.5001C17.0533 15.5009 17.5392 15.5017 17.9654 15.3279C18.3378 15.1761 18.6628 14.9305 18.9076 14.6159C19.1878 14.2558 19.3114 13.7945 19.4523 13.2684L19.4825 13.156L20.8023 8.67971C20.8696 8.43001 20.9325 8.197 20.967 8.00003C21.0036 7.79055 21.0261 7.53441 20.944 7.26444C20.8326 6.89803 20.5871 6.58498 20.2548 6.38548C20.01 6.23849 19.7521 6.19422 19.5364 6.17543C19.3336 6.15776 19.0882 6.15778 18.825 6.1578H5.49422L5.30198 5.60233C5.16216 5.07921 5.05309 4.67111 4.84445 4.33107C4.48193 3.74025 3.9065 3.30475 3.23227 3.11091C2.84423 2.99936 2.41448 2.99966 1.86361 3.00004L1.76393 3.00009C1.34202 3.00009 1 3.33588 1 3.75009C1 4.16431 1.34202 4.5001 1.76393 4.5001ZM10.1671 18.75C10.1671 19.7165 9.36909 20.5 8.38465 20.5C7.4002 20.5 6.60215 19.7165 6.60215 18.75C6.60215 17.7835 7.4002 17 8.38465 17C9.36909 17 10.1671 17.7835 10.1671 18.75ZM17.0425 20.5C18.027 20.5 18.825 19.7165 18.825 18.75C18.825 17.7835 18.027 17 17.0425 17C16.0581 17 15.26 17.7835 15.26 18.75C15.26 19.7165 16.0581 20.5 17.0425 20.5Z" fill="white"/>
</svg>
