<svg width="24" height="24" viewBox="0 0 24 24" fill="none" xmlns="http://www.w3.org/2000/svg">
<path d="M7.75159 2C7.33737 2 7.00159 2.33579 7.00159 2.75C7.00159 3.16421 7.33737 3.5 7.75159 3.5H16.2516C16.6658 3.5 17.0016 3.16421 17.0016 2.75C17.0016 2.33579 16.6658 2 16.2516 2H7.75159Z" fill="white" fill-opacity="0.96"/>
<path fill-rule="evenodd" clip-rule="evenodd" d="M9.47162 5H14.5316C15.1663 4.99999 15.6865 4.99998 16.1112 5.03373C16.5517 5.06873 16.9502 5.14337 17.3269 5.32625C17.9187 5.61348 18.4093 6.07348 18.734 6.64548C18.9408 7.00968 19.0409 7.40254 19.1042 7.83988C19.1652 8.26147 19.1987 8.78064 19.2396 9.41396L19.7275 16.9766C19.7735 17.6894 19.811 18.2709 19.8019 18.7439C19.7926 19.2323 19.734 19.6759 19.5445 20.0934C19.2489 20.7445 18.747 21.2799 18.1163 21.6167C17.7118 21.8328 17.2729 21.9198 16.7861 21.9605C16.3147 22 15.732 22 15.0178 22H8.98549C8.27122 22 7.68853 22 7.21712 21.9605C6.73036 21.9198 6.29144 21.8328 5.88696 21.6167C5.2563 21.2799 4.75431 20.7445 4.45877 20.0934C4.26922 19.6759 4.21066 19.2323 4.20131 18.7439C4.19225 18.2709 4.22977 17.6894 4.27577 16.9767L4.76368 9.41399C4.80453 8.78066 4.83802 8.26148 4.89904 7.83988C4.96233 7.40254 5.06247 7.00968 5.26923 6.64548C5.59396 6.07348 6.08459 5.61348 6.67631 5.32625C7.05307 5.14337 7.45156 5.06873 7.89206 5.03373C8.31671 4.99998 8.83698 4.99999 9.47162 5ZM8.75159 7.75C9.1658 7.75 9.50159 8.08579 9.50159 8.5C9.50159 8.8283 9.56625 9.15339 9.69189 9.45671C9.81752 9.76002 10.0017 10.0356 10.2338 10.2678C10.466 10.4999 10.7416 10.6841 11.0449 10.8097C11.3482 10.9353 11.6733 11 12.0016 11C12.3299 11 12.655 10.9353 12.9583 10.8097C13.2616 10.6841 13.5372 10.4999 13.7694 10.2678C14.0015 10.0356 14.1856 9.76002 14.3113 9.45671C14.4369 9.15339 14.5016 8.8283 14.5016 8.5C14.5016 8.08579 14.8374 7.75 15.2516 7.75C15.6658 7.75 16.0016 8.08579 16.0016 8.5C16.0016 9.02529 15.8981 9.54543 15.6971 10.0307C15.4961 10.516 15.2014 10.957 14.83 11.3284C14.4586 11.6999 14.0176 11.9945 13.5323 12.1955C13.047 12.3965 12.5269 12.5 12.0016 12.5C11.4763 12.5 10.9562 12.3965 10.4709 12.1955C9.98555 11.9945 9.54459 11.6999 9.17316 11.3284C8.80173 10.957 8.50709 10.516 8.30607 10.0307C8.10505 9.54543 8.00159 9.02529 8.00159 8.5C8.00159 8.08579 8.33737 7.75 8.75159 7.75Z" fill="white" fill-opacity="0.96"/>
</svg>
