<svg width="24" height="24" viewBox="0 0 24 24" fill="none" xmlns="http://www.w3.org/2000/svg">
<path d="M2 6.69381C2 5.71613 2.70683 4.88176 3.6712 4.72103L11.6712 3.38769C12.8903 3.18452 14 4.1246 14 5.36048V18.6386C14 19.8745 12.8903 20.8146 11.6712 20.6114L3.6712 19.2781C2.70683 19.1174 2 18.283 2 17.3053V6.69381Z" fill="white" fill-opacity="0.96"/>
<path d="M19.7471 18.8268L19.8466 18.8345C21.0082 18.9239 22 18.0054 22 16.8404V7.15991C22 5.99489 21.0082 5.07645 19.8466 5.1658L19.7471 5.17346C19.908 5.46115 20 5.79324 20 6.14811V17.8522C20 18.2071 19.908 18.5392 19.7471 18.8268Z" fill="white" fill-opacity="0.96"/>
<path d="M15.8575 19.8472L15.6078 19.8294C15.8532 19.4989 16 19.0886 16 18.6391V5.36097C16 4.91167 15.8533 4.50147 15.608 4.17107L15.8575 4.15326C17.0152 4.07056 18 4.98749 18 6.14817V17.8523C18 19.013 17.0152 19.9299 15.8575 19.8472Z" fill="white" fill-opacity="0.96"/>
</svg>
