<svg width="24" height="24" viewBox="0 0 24 24" fill="none" xmlns="http://www.w3.org/2000/svg">
<path fill-rule="evenodd" clip-rule="evenodd" d="M3 6.69418C3 5.7165 3.70683 4.88212 4.6712 4.72139L12.6712 3.38806C13.8903 3.18488 15 4.12497 15 5.36085V18.639C15 19.8749 13.8903 20.815 12.6712 20.6118L4.6712 19.2785C3.70683 19.1177 3 18.2833 3 17.3057V6.69418ZM18.747 18.8273L18.8465 18.835C20.0081 18.9243 20.9999 18.0059 20.9999 16.8409V7.1604C20.9999 5.99538 20.0081 5.07694 18.8465 5.16629L18.747 5.17394C18.9079 5.46163 18.9999 5.79369 18.9999 6.14854V17.8526C18.9999 18.2075 18.9079 18.5396 18.747 18.8273ZM15.8579 19.8476L15.6082 19.8297C15.8536 19.4993 16.0004 19.0889 16.0004 18.6395V5.36133C16.0004 4.91204 15.8537 4.50183 15.6084 4.17144L15.8579 4.15362C17.0156 4.07093 18.0004 4.98786 18.0004 6.14854V17.8526C18.0004 19.0133 17.0156 19.9302 15.8579 19.8476Z" fill="white"/>
</svg>
