<svg width="24" height="24" viewBox="0 0 24 24" fill="none" xmlns="http://www.w3.org/2000/svg">
<path fill-rule="evenodd" clip-rule="evenodd" d="M7.25 5.5C7.25 5.08579 7.58579 4.75 8 4.75H14.5C14.9142 4.75 15.25 5.08579 15.25 5.5C15.25 5.91421 14.9142 6.25 14.5 6.25H12V7.25H14.9C15.3694 7.25 15.75 7.63056 15.75 8.1V9.25H17.4C17.8694 9.25 18.25 9.63056 18.25 10.1V11.25H18.5986L19.2928 10.2088C19.6292 9.70411 20.3708 9.70411 20.7072 10.2088L21.6072 11.5588C21.7003 11.6984 21.75 11.8625 21.75 12.0303V15.4697C21.75 15.6375 21.7003 15.8016 21.6072 15.9412L20.7072 17.2912C20.3708 17.7959 19.6292 17.7959 19.2928 17.2912L18.5986 16.25H18.25V17.9C18.25 18.3694 17.8694 18.75 17.4 18.75H11.5351C11.3421 18.75 11.1548 18.6843 11.0041 18.5637L8.73691 16.75H5.6C5.13056 16.75 4.75 16.3694 4.75 15.9V13.5H3.75V16C3.75 16.4142 3.41421 16.75 3 16.75C2.58579 16.75 2.25 16.4142 2.25 16V9.5C2.25 9.08579 2.58579 8.75 3 8.75C3.41421 8.75 3.75 9.08579 3.75 9.5V12H4.75V9.6C4.75 9.13056 5.13056 8.75 5.6 8.75H6.75V8.1C6.75 7.63056 7.13056 7.25 7.6 7.25H10.5V6.25H8C7.58579 6.25 7.25 5.91421 7.25 5.5ZM6.25 15.25H8.96492C9.15793 15.25 9.3452 15.3157 9.49591 15.4363L11.7631 17.25H16.75V15.51C16.75 15.0903 17.0903 14.75 17.51 14.75H18.9946C19.2488 14.75 19.4861 14.877 19.627 15.0884L20 15.6479L20.25 15.2729V12.2271L20 11.8521L19.627 12.4116C19.486 12.623 19.2487 12.75 18.9946 12.75H17.51C17.0903 12.75 16.75 12.4097 16.75 11.99V10.75H15.1C14.6306 10.75 14.25 10.3694 14.25 9.9V8.75H8.25V9.4C8.25 9.86944 7.86944 10.25 7.4 10.25H6.25V15.25Z" fill="white"/>
</svg>
