<svg width="24" height="24" viewBox="0 0 24 24" fill="none" xmlns="http://www.w3.org/2000/svg">
<path fill-rule="evenodd" clip-rule="evenodd" d="M9 5C10.1046 5 11 5.89543 11 7V17C11 18.1046 10.1046 19 9 19H4C2.89543 19 2 18.1046 2 17V7C2 5.89543 2.89543 5 4 5H9ZM5.23047 8.02539C4.74197 7.61831 4 7.96568 4 8.60156V15.3984C4 16.0343 4.74197 16.3817 5.23047 15.9746L9.30859 12.5762C9.66841 12.2763 9.66841 11.7237 9.30859 11.4238L5.23047 8.02539Z" fill="white" fill-opacity="0.96"/>
<path fill-rule="evenodd" clip-rule="evenodd" d="M20 5C21.1046 5 22 5.89543 22 7V17C22 18.1046 21.1046 19 20 19H15C13.8954 19 13 18.1046 13 17V7C13 5.89543 13.8954 5 15 5H20ZM20 8.60156C20 7.96568 19.258 7.61831 18.7695 8.02539L14.6914 11.4238C14.3316 11.7237 14.3316 12.2763 14.6914 12.5762L18.7695 15.9746C19.258 16.3817 20 16.0343 20 15.3984V8.60156Z" fill="white" fill-opacity="0.96"/>
</svg>
