<svg width="24" height="24" viewBox="0 0 24 24" fill="none" xmlns="http://www.w3.org/2000/svg">
<path fill-rule="evenodd" clip-rule="evenodd" d="M2 11.6094C2 9.09328 3.83808 6.98087 6.32407 6.38597L6.32736 6.37642C6.36717 6.3724 6.40718 6.36514 6.44709 6.35444C7.48384 6.07665 8.57613 6.08204 9.61009 6.37007C10.644 6.65809 11.5818 7.2182 12.3256 7.992C12.6127 8.29063 13.0875 8.30001 13.3861 8.01296C13.6847 7.72591 13.6941 7.25113 13.407 6.95251C12.4773 5.98525 11.3051 5.28512 10.0126 4.92509C9.1035 4.67184 8.15832 4.59339 7.22659 4.68998C8.44788 3.06312 10.466 2 12.75 2C16.4779 2 19.5 4.8332 19.5 8.32812C19.5 8.54965 19.4878 8.7687 19.464 8.98469C20.9647 9.66823 22 11.1107 22 12.7812C22 15.1112 19.9853 17 17.5 17H12.75V13.3107L14.4697 15.0303C14.7626 15.3232 15.2374 15.3232 15.5303 15.0303C15.8232 14.7374 15.8232 14.2626 15.5303 13.9697L12.5303 10.9697C12.2374 10.6768 11.7626 10.6768 11.4697 10.9697L8.46967 13.9697C8.17678 14.2626 8.17678 14.7374 8.46967 15.0303C8.76256 15.3232 9.23744 15.3232 9.53033 15.0303L11.25 13.3107V17H7.75C4.57436 17 2 14.5865 2 11.6094ZM11.25 17H12.75V20.8074C12.75 21.2216 12.4142 21.5579 12 21.5579C11.5858 21.5579 11.25 21.2221 11.25 20.8079V17Z" fill="white"/>
</svg>
