<svg width="24" height="24" viewBox="0 0 24 24" fill="none" xmlns="http://www.w3.org/2000/svg">
<path d="M18.5 11.75C19.7426 11.75 20.75 12.7574 20.75 14V15C20.75 16.2426 19.7426 17.25 18.5 17.25H17.5C17.0858 17.25 16.75 17.5858 16.75 18V19C16.75 19.4142 17.0858 19.75 17.5 19.75H20C20.4142 19.75 20.75 20.0858 20.75 20.5C20.75 20.9142 20.4142 21.25 20 21.25H17.5C16.2574 21.25 15.25 20.2426 15.25 19V18C15.25 16.7574 16.2574 15.75 17.5 15.75H18.5C18.9142 15.75 19.25 15.4142 19.25 15V14C19.25 13.5858 18.9142 13.25 18.5 13.25H16C15.5858 13.25 15.25 12.9142 15.25 12.5C15.25 12.0858 15.5858 11.75 16 11.75H18.5Z" fill="white"/>
<path d="M7.75 3.75C9.683 3.75 11.25 5.317 11.25 7.25C11.25 7.66421 10.9142 8 10.5 8C10.0858 8 9.75 7.66421 9.75 7.25C9.75 6.14543 8.85457 5.25 7.75 5.25H7C5.75736 5.25 4.75 6.25736 4.75 7.5V12.5C4.75 13.7426 5.75736 14.75 7 14.75H7.75C8.85457 14.75 9.75 13.8546 9.75 12.75C9.75 12.3358 10.0858 12 10.5 12C10.9142 12 11.25 12.3358 11.25 12.75C11.25 14.683 9.683 16.25 7.75 16.25H7C4.92893 16.25 3.25 14.5711 3.25 12.5V7.5C3.25 5.42893 4.92893 3.75 7 3.75H7.75Z" fill="white"/>
<path d="M16.5 3.75C18.5711 3.75 20.25 5.42893 20.25 7.5V10.9697C19.8029 10.711 19.2939 10.5482 18.75 10.5098V7.5C18.75 6.25736 17.7426 5.25 16.5 5.25H16C14.7574 5.25 13.75 6.25736 13.75 7.5V12.5C13.75 13.7426 14.7574 14.75 16 14.75H16.2012C15.5656 15.0042 15.0217 15.4387 14.6338 15.9912C13.2387 15.4449 12.25 14.0887 12.25 12.5V7.5C12.25 5.42893 13.9289 3.75 16 3.75H16.5Z" fill="white"/>
</svg>
