<svg width="24" height="24" viewBox="0 0 24 24" fill="none" xmlns="http://www.w3.org/2000/svg">
<path fill-rule="evenodd" clip-rule="evenodd" d="M10.2617 3.2571C11.5669 3.34643 12.9407 4.32215 12.9409 5.99995L11.4409 6.00014C11.4408 5.30035 10.8818 4.80306 10.1593 4.7536C9.81296 4.7299 9.48341 4.82159 9.23164 5.01884C9.14341 5.08797 9.05727 5.17586 8.97987 5.2871C9.2093 5.25432 9.44542 5.25118 9.71315 5.25039C10.2392 5.24883 10.6659 5.67534 10.6659 6.20044C10.6659 6.46757 10.6658 6.6995 10.6658 6.91954C10.6657 7.36409 10.6657 7.76006 10.6658 8.29952C10.666 8.82763 10.2363 9.25003 9.71484 9.24998L8.41596 9.25C8.37659 9.25 8.33734 9.25006 8.29834 9.25012C7.40651 9.25149 6.60843 9.25272 5.88549 8.53097L5.88464 8.53012C5.49628 8.14115 5.35228 7.56004 5.30802 7.07441C5.28551 6.82737 5.28522 6.56657 5.30665 6.30296C3.97196 7.19803 3.57158 8.72096 3.8168 10.1915C3.9603 11.0521 4.32318 11.8421 4.80714 12.4026C5.29009 12.9618 5.85061 13.2502 6.41542 13.2502L8.93255 13.2502C9.80054 13.2502 10.1719 14.2733 9.62936 14.858C9.08363 15.4462 8.76113 15.9381 8.55091 16.5524C8.38484 17.0377 8.27916 17.627 8.21807 18.4408C8.54151 18.2889 8.78954 18.1152 9.00143 17.9225C9.37127 17.5861 9.66339 17.165 10.0554 16.5697C10.339 16.1392 10.824 16.1406 11.0993 16.2538C11.3715 16.3657 11.6998 16.6885 11.6306 17.1725C11.5263 17.9016 11.6256 18.5075 11.8685 19.0157C12.1131 19.5275 12.5248 19.9845 13.1119 20.376L12.2797 21.6239C11.5123 21.1122 10.8972 20.4619 10.5151 19.6625C10.3881 19.3967 10.2891 19.1192 10.2188 18.831C10.1518 18.8996 10.0826 18.9667 10.0108 19.0321C9.46364 19.5298 8.79569 19.9007 7.86974 20.1573C7.24249 20.3312 6.65192 19.8378 6.67462 19.2116C6.72199 17.9047 6.84182 16.9138 7.13172 16.0667C7.29906 15.5778 7.51756 15.1522 7.79119 14.7502L6.41535 14.7502C5.30202 14.7502 4.35682 14.1762 3.67185 13.3829C2.98789 12.5909 2.52066 11.5383 2.33723 10.4383C1.96964 8.23378 2.735 5.62863 5.49706 4.5178C5.95475 4.33372 6.38952 4.51005 6.64001 4.77553C6.88101 5.03096 7.01299 5.42201 6.90553 5.82184C6.80426 6.19862 6.7712 6.60216 6.80183 6.93828C6.81706 7.10533 6.84659 7.23986 6.88133 7.33803C6.91448 7.43167 6.94315 7.46662 6.94601 7.4701C6.94606 7.47015 6.94621 7.47034 6.94601 7.4701C7.19217 7.71552 7.35666 7.75 8.41582 7.75C8.4158 7.75 8.41584 7.75 8.41582 7.75L9.16575 7.74999C9.16574 7.46005 9.16577 7.19889 9.16581 6.91851C9.16582 6.87163 9.16582 6.82421 9.16583 6.77604C9.1564 6.77765 9.14725 6.77936 9.13827 6.78116C9.04144 6.80059 8.93284 6.83782 8.67571 6.96108C8.02667 7.27221 7.08578 6.82326 7.20186 5.91795C7.31872 5.00657 7.71754 4.29954 8.30657 3.83807C8.88628 3.38389 9.59425 3.21142 10.2617 3.2571Z" fill="white"/>
<path fill-rule="evenodd" clip-rule="evenodd" d="M14.1264 3.25706C12.817 3.34561 11.423 4.31491 11.4228 5.99995L12.9228 6.00014C12.9229 5.30758 13.4849 4.80387 14.2276 4.75364C14.5824 4.72965 14.9197 4.82263 15.1766 5.02152C15.2653 5.09018 15.3516 5.17698 15.4291 5.28625C15.2016 5.25426 14.9673 5.25117 14.7019 5.25039C14.1772 5.24883 13.7491 5.67373 13.7491 6.20013V8.30024C13.7491 8.82477 14.174 9.25002 14.6989 9.24998L15.9991 9.25C16.0384 9.25 16.0777 9.25006 16.1167 9.25012C17.0085 9.25149 17.8066 9.25272 18.5295 8.53097L18.5304 8.53012C18.9187 8.14115 19.0627 7.56004 19.107 7.07441C19.1295 6.82737 19.1298 6.56657 19.1084 6.30296C20.4431 7.19803 20.8434 8.72096 20.5982 10.1915C20.4547 11.0521 20.0918 11.8421 19.6079 12.4026C19.1249 12.9618 18.5644 13.2502 17.9996 13.2502L15.4825 13.2502C14.6107 13.2502 14.2524 14.2691 14.7729 14.8509C15.6811 15.8664 16.1039 16.9121 16.2171 18.5107C15.7776 18.3459 15.5201 18.1597 15.3322 17.968C15.0901 17.7209 14.9347 17.4487 14.6995 17.0368C14.6264 16.9088 14.5455 16.7672 14.452 16.6088C14.1966 16.1761 13.7148 16.1296 13.4041 16.2535C13.1016 16.3743 12.8028 16.7132 12.8713 17.1758C12.9801 17.9117 12.8898 18.5195 12.657 19.0256C12.4234 19.5338 12.024 19.9871 11.4409 20.376L12.2731 21.6239C13.0445 21.1095 13.6505 20.4555 14.0198 19.6524C14.1151 19.4452 14.1932 19.2312 14.2541 19.011C14.2564 19.0133 14.2586 19.0155 14.2608 19.0178C14.792 19.5599 15.5016 19.9313 16.5937 20.1803C17.1964 20.3176 17.7559 19.8512 17.7475 19.2455C17.7221 17.4031 17.4103 16.011 16.5854 14.7502L17.9997 14.7502C19.113 14.7502 20.0582 14.1762 20.7432 13.3829C21.4271 12.5909 21.8944 11.5383 22.0778 10.4383C22.4454 8.23378 21.68 5.62863 18.918 4.5178C18.4603 4.33372 18.0255 4.51005 17.775 4.77553C17.534 5.03096 17.402 5.42201 17.5095 5.82184C17.6108 6.19862 17.6438 6.60216 17.6132 6.93829C17.598 7.10533 17.5684 7.23986 17.5337 7.33803C17.5005 7.43167 17.4719 7.46662 17.469 7.4701C17.4688 7.47034 17.469 7.47015 17.469 7.4701C17.2229 7.71552 17.0584 7.75 15.9992 7.75C15.9992 7.75 15.9992 7.75 15.9992 7.75L15.2491 7.74999V6.77603C15.2586 6.77765 15.2678 6.77936 15.2768 6.78116C15.3736 6.80059 15.4822 6.83782 15.7393 6.96108C16.3877 7.2719 17.3303 6.82368 17.2127 5.91687C17.0941 5.0029 16.6894 4.29573 16.0948 3.83541C15.5102 3.38286 14.7975 3.21167 14.1264 3.25706Z" fill="white"/>
<path fill-rule="evenodd" clip-rule="evenodd" d="M9.99999 10.2002C9.99999 9.64788 10.4477 9.20017 11 9.20017H13.5C14.0523 9.20017 14.5 9.64788 14.5 10.2002V12.9111C14.5 13.4634 14.0523 13.9111 13.5 13.9111H13.0458L12.9602 14.1633C12.7299 14.8419 11.7701 14.8419 11.5398 14.1633L11.4542 13.9111L11 13.9111C10.4477 13.9111 9.99999 13.4634 9.99999 12.9111V10.2002ZM13.5 10.2002L11 10.2002V12.9111H11.4542C11.7724 12.9111 12.0644 13.0617 12.25 13.3054C12.4356 13.0617 12.7275 12.9111 13.0458 12.9111H13.5V10.2002Z" fill="white"/>
<path d="M12.9504 5.95017C12.9504 6.36438 12.6034 6.70017 12.1754 6.70017C11.7474 6.70017 11.4004 6.36438 11.4004 5.95017C11.4004 5.53595 11.7474 5.20017 12.1754 5.20017C12.6034 5.20017 12.9504 5.53595 12.9504 5.95017Z" fill="white"/>
</svg>
