<svg width="24" height="24" viewBox="0 0 24 24" fill="none" xmlns="http://www.w3.org/2000/svg">
<path fill-rule="evenodd" clip-rule="evenodd" d="M13.4999 9.20037C14.0521 9.20037 14.4998 9.64819 14.4999 10.2004V12.9113C14.4999 13.4636 14.0522 13.9113 13.4999 13.9113H13.0458L12.9598 14.1633C12.7295 14.8419 11.7702 14.8419 11.5399 14.1633L11.454 13.9113H10.9999C10.4476 13.9112 9.99988 13.4636 9.99988 12.9113V10.2004C10 9.64822 10.4477 9.20042 10.9999 9.20037H13.4999ZM10.9999 12.9113H11.454C11.7722 12.9113 12.0643 13.0621 12.2499 13.3058C12.4354 13.0621 12.7275 12.9113 13.0458 12.9113H13.4999V10.2004H10.9999V12.9113Z" fill="white"/>
<path fill-rule="evenodd" clip-rule="evenodd" d="M14.1268 3.25701C14.7979 3.21174 15.5102 3.38367 16.0946 3.83611C16.6892 4.29641 17.0942 5.00326 17.2128 5.91716C17.3304 6.82397 16.3875 7.27193 15.7391 6.96111C15.4826 6.83814 15.3739 6.80087 15.2772 6.78142C15.2682 6.77961 15.2584 6.77816 15.2489 6.77654V7.75017H15.9989C17.0575 7.75017 17.2227 7.71597 17.4686 7.47087C17.4715 7.46739 17.5009 7.43171 17.5341 7.33806C17.5687 7.23994 17.598 7.10543 17.6132 6.93865C17.6438 6.6026 17.6109 6.19913 17.5096 5.82244C17.4022 5.42261 17.5343 5.03099 17.7753 4.77556C18.0258 4.51032 18.4604 4.33392 18.9178 4.51775C21.6799 5.62857 22.4456 8.23419 22.078 10.4386C21.8946 11.5386 21.4269 12.591 20.743 13.383C20.0581 14.1761 19.1131 14.75 17.9999 14.7502H16.5858C17.4107 16.0109 17.7225 17.4039 17.7479 19.2463C17.7561 19.8518 17.1963 20.3182 16.5936 20.1808C15.5016 19.9319 14.7918 19.5607 14.2606 19.0187C14.2584 19.0164 14.256 19.0132 14.2538 19.0109C14.1928 19.2312 14.1147 19.4454 14.0194 19.6525C13.6522 20.451 13.051 21.1014 12.286 21.6144L12.2802 21.6242L12.2762 21.6213L12.2733 21.6242L12.2665 21.6144C11.5056 21.1042 10.8953 20.4577 10.5155 19.6633C10.3884 19.3974 10.289 19.1194 10.2186 18.8312C10.1517 18.8998 10.0825 18.967 10.0106 19.0324C9.46355 19.53 8.79575 19.9007 7.87 20.1574C7.24275 20.3313 6.65201 19.8383 6.67468 19.2121C6.72205 17.9053 6.84191 16.9145 7.13171 16.0676C7.29905 15.5786 7.51727 15.1522 7.79089 14.7502H6.41492C5.30177 14.75 4.35664 14.1761 3.67175 13.383C2.98792 12.591 2.5202 11.5386 2.33679 10.4386C1.96925 8.23419 2.73493 5.62857 5.49695 4.51775C5.95436 4.33383 6.38898 4.51034 6.63953 4.77556C6.88053 5.03099 7.01262 5.42261 6.90515 5.82244C6.80394 6.19911 6.77103 6.60261 6.80164 6.93865C6.81685 7.10557 6.847 7.23992 6.88171 7.33806C6.91486 7.43171 6.94331 7.46739 6.94617 7.47087C7.19218 7.71606 7.35711 7.75017 8.41589 7.75017H9.16589V6.77654C9.15658 6.77813 9.14743 6.77964 9.13855 6.78142C9.04173 6.80085 8.9327 6.8379 8.67566 6.96111C8.02662 7.27224 7.08595 6.82345 7.20203 5.91814C7.31893 5.00688 7.71755 4.29949 8.30652 3.83806C8.88617 3.38401 9.59422 3.21232 10.2616 3.25798C10.9563 3.30553 11.6683 3.60605 12.1844 4.1281C12.7067 3.60443 13.4282 3.30425 14.1268 3.25701ZM14.2274 4.75408C13.5524 4.79978 13.0265 5.22021 12.9364 5.81658C12.9445 5.86008 12.9501 5.9046 12.9501 5.95037C12.9501 6.36448 12.6035 6.70021 12.1757 6.70037C11.7476 6.70037 11.4003 6.36458 11.4003 5.95037C11.4003 5.89197 11.4067 5.835 11.4198 5.78044C11.3157 5.1984 10.8031 4.79816 10.1591 4.75408C9.8128 4.73043 9.48304 4.82249 9.23132 5.0197C9.14323 5.08878 9.05665 5.17621 8.97937 5.28728C9.2087 5.25451 9.4452 5.25194 9.71277 5.25115C10.2388 5.24959 10.6659 5.67625 10.6659 6.20134V8.29997C10.666 8.82807 10.2362 9.25022 9.71472 9.25017H8.29871C7.40691 9.25154 6.60853 9.25309 5.88562 8.53142L5.88464 8.53044C5.49631 8.14147 5.35272 7.56 5.30847 7.07439C5.28601 6.82762 5.28514 6.56718 5.30652 6.30388C3.97216 7.19892 3.57217 8.7212 3.81726 10.1916C3.96075 11.0521 4.32358 11.8421 4.8075 12.4025C5.2903 12.9616 5.85027 13.25 6.41492 13.2502H8.9325C9.8004 13.2502 10.1721 14.2738 9.62976 14.8586C9.08402 15.4467 8.76088 15.9386 8.55066 16.5529C8.38462 17.0381 8.27874 17.6279 8.21765 18.4416C8.54109 18.2897 8.78995 18.1158 9.00183 17.923C9.37155 17.5867 9.66362 17.1656 10.0555 16.5705C10.3391 16.14 10.8242 16.1409 11.0995 16.2541C11.3717 16.3661 11.7 16.6891 11.6307 17.173C11.5265 17.9019 11.6253 18.5078 11.868 19.0158C11.9717 19.2326 12.1072 19.4386 12.2714 19.6349C12.4292 19.4417 12.559 19.2399 12.6571 19.0265C12.8899 18.5204 12.9798 17.9118 12.871 17.176C12.8027 16.7135 13.1018 16.3748 13.4042 16.2541C13.7148 16.1301 14.1967 16.1768 14.452 16.6095C14.5455 16.7678 14.626 16.9093 14.6991 17.0373C14.9342 17.4489 15.0901 17.721 15.3319 17.9679C15.5197 18.1596 15.7775 18.3462 16.2167 18.5109C16.1035 16.9127 15.6813 15.8671 14.7733 14.8517C14.2529 14.2699 14.6107 13.2503 15.4823 13.2502H17.9999C18.5646 13.25 19.1254 12.9617 19.6083 12.4025C20.092 11.8421 20.4551 11.0519 20.5985 10.1916C20.8436 8.72119 20.4427 7.19888 19.1083 6.30388C19.1297 6.56716 19.1298 6.82764 19.1073 7.07439C19.063 7.56001 18.9185 8.14147 18.5302 8.53044L18.5292 8.53142C17.8064 9.25288 17.0087 9.25154 16.1171 9.25017H14.6991C14.1743 9.25021 13.7491 8.82535 13.7489 8.30095V6.20037C13.749 5.67405 14.1774 5.24959 14.702 5.25115C14.9673 5.25193 15.2021 5.25432 15.4296 5.2863C15.352 5.17705 15.2653 5.09031 15.1766 5.02165C14.9197 4.82282 14.5822 4.73008 14.2274 4.75408Z" fill="white"/>
</svg>
