<svg width="24" height="24" viewBox="0 0 24 24" fill="none" xmlns="http://www.w3.org/2000/svg">
<path fill-rule="evenodd" clip-rule="evenodd" d="M13.8426 3.0065C13.1354 3.05433 12.4145 3.37649 11.9354 3.93716L11.8109 3.91227C11.3376 3.36797 10.6359 3.05388 9.94408 3.00653C9.33013 2.96451 8.68523 3.12352 8.16017 3.53487C7.6289 3.95109 7.25878 4.59556 7.14925 5.44976C7.06242 6.12703 7.76735 6.47521 8.26707 6.23565C8.52887 6.11015 8.66023 6.0618 8.7885 6.03606C8.85873 6.02197 9.1863 6.0132 9.38535 6.00787C9.43253 6.0066 9.47249 6.00553 9.50009 6.00463L9.5 7.5L8.11526 7.50001C7.07528 7.50001 6.79959 7.47717 6.46842 7.14671C6.39188 7.06984 6.2878 6.85059 6.25229 6.46098C6.21886 6.09415 6.25493 5.66097 6.36352 5.25696C6.44638 4.94868 6.34474 4.64546 6.1576 4.44711C5.96413 4.24206 5.63498 4.11091 5.28976 4.24975C2.66593 5.305 1.92921 7.77396 2.28325 9.89715C2.46002 10.9573 2.90986 11.9661 3.56049 12.7196C4.21179 13.4738 5.09288 14.0002 6.11479 14.0002L7.98631 14.0002C7.5821 14.5067 7.28119 15.0238 7.06767 15.6477C6.78984 16.4595 6.67099 17.421 6.62388 18.7207C6.60716 19.182 7.04193 19.5441 7.50239 19.4164C8.39564 19.1688 9.02744 18.8152 9.54197 18.3472C9.73539 18.1712 9.90927 17.9815 10.0719 17.7814C10.127 18.2332 10.2507 18.6584 10.4401 19.0547C10.6995 19.5975 11.0748 20.0706 11.541 20.4769L11.9758 20.916L12.4139 20.472C12.8759 20.065 13.2423 19.5911 13.4921 19.0479C13.6495 18.7058 13.7575 18.3427 13.8157 17.9603C13.9144 18.0941 14.0209 18.2225 14.1388 18.3429C14.6268 18.8408 15.2878 19.1947 16.3486 19.4365C16.6555 19.5065 16.9474 19.3634 17.0957 19.1206L17.1015 19.1241L17.0987 19.1156C17.1625 19.0091 17.1988 18.8838 17.197 18.749C17.1693 16.7479 16.8003 15.3159 15.8026 14.0002L17.6991 14.0002C18.721 14.0002 19.6021 13.4738 20.2534 12.7196C20.904 11.9661 21.3538 10.9573 21.5306 9.89715C21.5971 9.49839 21.6251 9.08744 21.6094 8.67594C21.6272 8.54053 21.617 8.40279 21.5796 8.2715C21.3998 6.63047 20.4936 5.04184 18.5241 4.24975C18.1789 4.11091 17.8497 4.24206 17.6563 4.44711C17.4691 4.64546 17.3675 4.94868 17.4503 5.25696C17.5589 5.66097 17.595 6.09415 17.5616 6.46098C17.5261 6.85059 17.422 7.06984 17.3454 7.14671C17.0143 7.47717 16.7385 7.50001 15.6986 7.50001L14.2973 7.49536V6C14.312 6.00048 14.3302 6.00105 14.3514 6.00171C14.5382 6.00757 14.9473 6.0204 15.0254 6.03606C15.1536 6.0618 15.285 6.11015 15.5468 6.23565C16.0461 6.475 16.7522 6.1273 16.6642 5.44905C16.5531 4.59312 16.1778 3.94856 15.6412 3.53311C15.1112 3.12283 14.4611 2.96468 13.8426 3.0065ZM10.5 9H13.5C13.7761 9 14 9.22386 14 9.5V12.9685C14 13.2385 13.7856 13.4598 13.5156 13.4682L12.8253 13.4898C12.6275 13.496 12.452 13.6182 12.3776 13.8016L12.2317 14.1614C12.1473 14.3694 11.8527 14.3694 11.7683 14.1614L11.6224 13.8016C11.548 13.6182 11.3725 13.496 11.1747 13.4898L10.4844 13.4682C10.2144 13.4598 10 13.2385 10 12.9685V9.5C10 9.22386 10.2239 9 10.5 9Z" fill="white"/>
</svg>
