<svg width="24" height="24" viewBox="0 0 24 24" fill="none" xmlns="http://www.w3.org/2000/svg">
<path d="M13.7823 3.53242C13.9026 3.13627 14.3216 2.91233 14.7179 3.03242C15.114 3.15264 15.3378 3.5717 15.2179 3.96796L10.2179 20.468C10.0977 20.8642 9.67864 21.088 9.28232 20.968C8.88606 20.8477 8.66222 20.4287 8.78232 20.0324L13.7823 3.53242Z" fill="white"/>
<path d="M6.46982 7.96992C6.76272 7.67715 7.23752 7.67709 7.53037 7.96992C7.82322 8.26277 7.82314 8.73756 7.53037 9.03046L4.56064 12.0002L7.53037 14.9699C7.82322 15.2628 7.82314 15.7376 7.53037 16.0305C7.23748 16.3234 6.76272 16.3234 6.46982 16.0305L3.11143 12.6721C2.74046 12.3011 2.74044 11.6993 3.11143 11.3283L6.46982 7.96992Z" fill="white"/>
<path d="M16.4698 7.96992C16.7627 7.67715 17.2375 7.6771 17.5304 7.96992L20.8888 11.3283C21.2597 11.6993 21.2597 12.3011 20.8888 12.6721L17.5304 16.0305C17.2375 16.3234 16.7627 16.3234 16.4698 16.0305C16.177 15.7376 16.1769 15.2628 16.4698 14.9699L19.4396 12.0002L16.4698 9.03046C16.177 8.73757 16.1769 8.2628 16.4698 7.96992Z" fill="white"/>
</svg>
