<svg width="24" height="24" viewBox="0 0 24 24" fill="none" xmlns="http://www.w3.org/2000/svg">
<path d="M15.9999 3C16.4141 3 16.7499 3.33579 16.7499 3.75V6.25C16.7499 6.66421 16.4141 7 15.9999 7C15.5857 7 15.2499 6.66421 15.2499 6.25V3.75C15.2499 3.33579 15.5857 3 15.9999 3Z" fill="white"/>
<path d="M11.9999 2C12.4141 2 12.7499 2.33579 12.7499 2.75V5.25C12.7499 5.66421 12.4141 6 11.9999 6C11.5857 6 11.2499 5.66421 11.2499 5.25V2.75C11.2499 2.33579 11.5857 2 11.9999 2Z" fill="white"/>
<path d="M8.74988 3.75C8.74988 3.33579 8.41409 3 7.99988 3C7.58566 3 7.24988 3.33579 7.24988 3.75V6.25C7.24988 6.66421 7.58566 7 7.99988 7C8.41409 7 8.74988 6.66421 8.74988 6.25V3.75Z" fill="white"/>
<path fill-rule="evenodd" clip-rule="evenodd" d="M9.49988 11C9.22374 11 8.99988 11.2239 8.99988 11.5V17C8.99988 17.2761 9.22374 17.5 9.49988 17.5H11.1081C12.1525 17.5 12.9956 16.6466 12.9829 15.6022C12.9743 14.8915 12.5711 14.2771 11.9831 13.9663C12.2035 13.6589 12.3332 13.2821 12.3332 12.875C12.3332 11.8395 11.4937 11 10.4582 11H9.49988ZM9.99988 16.5V14.75H11.1081C11.5872 14.75 11.9772 15.1353 11.983 15.6144C11.9889 16.1017 11.5955 16.5 11.1081 16.5H9.99988ZM10.4582 13.75H9.99988V12H10.4582C10.9415 12 11.3332 12.3918 11.3332 12.875C11.3332 13.3582 10.9415 13.75 10.4582 13.75Z" fill="white"/>
<path d="M15.4999 14.5881C14.8556 14.5881 14.3333 15.1105 14.3333 15.7548V16.9999C14.3333 17.276 14.1094 17.4999 13.8333 17.4999C13.5571 17.4999 13.3333 17.276 13.3333 16.9999V15.7548C13.3333 15.7385 13.3334 15.7222 13.3338 15.7059L13.3333 13.9265C13.3333 13.6504 13.5571 13.4265 13.8333 13.4265C14.1094 13.4265 14.3333 13.6504 14.3333 13.9265V13.9287C14.67 13.7131 15.0704 13.5881 15.4999 13.5881C15.7761 13.5881 15.9999 13.812 15.9999 14.0881C15.9999 14.3643 15.7761 14.5881 15.4999 14.5881Z" fill="white"/>
<path fill-rule="evenodd" clip-rule="evenodd" d="M11.9999 7C16.142 7 19.4999 10.3579 19.4999 14.5C19.4999 18.6421 16.142 22 11.9999 22C7.85774 22 4.49988 18.6421 4.49988 14.5C4.49988 10.3579 7.85774 7 11.9999 7ZM17.9999 14.5C17.9999 11.1863 15.3136 8.5 11.9999 8.5C8.68617 8.5 5.99988 11.1863 5.99988 14.5C5.99988 17.8137 8.68617 20.5 11.9999 20.5C15.3136 20.5 17.9999 17.8137 17.9999 14.5Z" fill="white"/>
</svg>
