<svg width="24" height="24" viewBox="0 0 24 24" fill="none" xmlns="http://www.w3.org/2000/svg">
<path d="M21 12C21 13.8501 20.4417 15.5699 19.4845 17H12.559C12.6778 16.8673 12.75 16.6921 12.75 16.5V15.9424H14.8C15.2142 15.9424 15.55 15.6066 15.55 15.1924C15.55 14.7782 15.2142 14.4424 14.8 14.4424H12.75V13.3269H14.8C15.2142 13.3269 15.55 12.9911 15.55 12.5769C15.55 12.1627 15.2142 11.8269 14.8 11.8269H13.3884L15.6273 8.41115C15.8543 8.06472 15.7576 7.59981 15.4111 7.37274C15.0647 7.14567 14.5998 7.24243 14.3727 7.58885L12 11.2088L9.62726 7.58885C9.40019 7.24243 8.93528 7.14567 8.58885 7.37274C8.24243 7.59981 8.14567 8.06472 8.37274 8.41115L10.6116 11.8269H9.20002C8.78581 11.8269 8.45002 12.1627 8.45002 12.5769C8.45002 12.9911 8.78581 13.3269 9.20002 13.3269H11.25V14.4424H9.20002C8.78581 14.4424 8.45002 14.7782 8.45002 15.1924C8.45002 15.6066 8.78581 15.9424 9.20002 15.9424H11.25V16.5C11.25 16.6921 11.3222 16.8673 11.441 17H4.51555C3.55827 15.5699 3 13.8501 3 12C3 7.02944 7.02944 3 12 3C16.9706 3 21 7.02944 21 12Z" fill="white"/>
<path d="M2.75 18.5C2.33579 18.5 2 18.8358 2 19.25C2 19.6642 2.33579 20 2.75 20H21.25C21.6642 20 22 19.6642 22 19.25C22 18.8358 21.6642 18.5 21.25 18.5H2.75Z" fill="white"/>
</svg>
