<svg width="24" height="24" viewBox="0 0 24 24" fill="none" xmlns="http://www.w3.org/2000/svg">
<path d="M19.4845 17C20.4417 15.5699 21 13.8501 21 12C21 7.02944 16.9706 3 12 3C7.02944 3 3 7.02944 3 12C3 13.8501 3.55827 15.5699 4.51555 17H7.44097C7.32221 16.8673 7.25 16.6921 7.25 16.5V8C7.25 7.58579 7.58579 7.25 8 7.25H9.375C10.9628 7.25 12.25 8.53718 12.25 10.125C12.25 10.7636 12.0418 11.3535 11.6896 11.8307C12.5925 12.3071 13.2117 13.2502 13.2246 14.3411C13.2385 15.5236 12.537 16.5462 11.5242 17H13.941C13.8222 16.8673 13.75 16.6921 13.75 16.5V11.75C13.75 11.3358 14.0858 11 14.5 11C14.9142 11 15.25 11.3358 15.25 11.75V11.7609C15.7551 11.4375 16.3557 11.25 17 11.25C17.4142 11.25 17.75 11.5858 17.75 12C17.75 12.4142 17.4142 12.75 17 12.75C16.0335 12.75 15.25 13.5335 15.25 14.5V16.5C15.25 16.6921 15.1778 16.8673 15.059 17H19.4845Z" fill="white"/>
<path d="M8.75 13V15.75H10.3498C11.1155 15.75 11.7337 15.1245 11.7247 14.3588C11.7158 13.6058 11.1029 13 10.3498 13H8.75Z" fill="white"/>
<path d="M8.75 11.5H9.375C10.1344 11.5 10.75 10.8844 10.75 10.125C10.75 9.36561 10.1344 8.75 9.375 8.75H8.75V11.5Z" fill="white"/>
<path d="M2.75 18.5C2.33579 18.5 2 18.8358 2 19.25C2 19.6642 2.33579 20 2.75 20H21.25C21.6642 20 22 19.6642 22 19.25C22 18.8358 21.6642 18.5 21.25 18.5H2.75Z" fill="white"/>
</svg>
