<svg width="24" height="24" viewBox="0 0 24 24" fill="none" xmlns="http://www.w3.org/2000/svg">
<path d="M16.75 3.75C16.75 3.33579 16.4142 3 16 3C15.5858 3 15.25 3.33579 15.25 3.75V6.25C15.25 6.66421 15.5858 7 16 7C16.4142 7 16.75 6.66421 16.75 6.25V3.75Z" fill="white"/>
<path d="M12.75 2.75C12.75 2.33579 12.4142 2 12 2C11.5858 2 11.25 2.33579 11.25 2.75V5.25C11.25 5.66421 11.5858 6 12 6C12.4142 6 12.75 5.66421 12.75 5.25V2.75Z" fill="white"/>
<path d="M8 3C8.41421 3 8.75 3.33579 8.75 3.75V6.25C8.75 6.66421 8.41421 7 8 7C7.58579 7 7.25 6.66421 7.25 6.25V3.75C7.25 3.33579 7.58579 3 8 3Z" fill="white"/>
<path d="M10.2141 14.3219H9.25V12.0278H10.2141C10.8476 12.0278 11.3611 12.5414 11.3611 13.1749C11.3611 13.8084 10.8476 14.3219 10.2141 14.3219Z" fill="white"/>
<path fill-rule="evenodd" clip-rule="evenodd" d="M12 22C16.1421 22 19.5 18.6421 19.5 14.5C19.5 10.3579 16.1421 7 12 7C7.85786 7 4.5 10.3579 4.5 14.5C4.5 18.6421 7.85786 22 12 22ZM8.75 11.0278C8.47386 11.0278 8.25 11.2517 8.25 11.5278V17.75C8.25 18.0262 8.47386 18.25 8.75 18.25C9.02614 18.25 9.25 18.0262 9.25 17.75V15.3219H10.005L11.4196 17.9846C11.5491 18.2285 11.8518 18.3211 12.0957 18.1916C12.3396 18.062 12.4322 17.7593 12.3027 17.5154L11.0481 15.1539C11.8196 14.8284 12.3611 14.0648 12.3611 13.1749C12.3611 11.9891 11.3998 11.0278 10.2141 11.0278H8.75ZM14.5833 10.25C14.8595 10.25 15.0833 10.4739 15.0833 10.75V11.3H15.4907C15.7669 11.3 15.9907 11.5239 15.9907 11.8C15.9907 12.0761 15.7669 12.3 15.4907 12.3H14.5833C14.2151 12.3 13.9167 12.5985 13.9167 12.9667V13.0833C13.9167 13.4515 14.2151 13.75 14.5833 13.75C15.5038 13.75 16.25 14.4962 16.25 15.4167V15.5333C16.25 16.2796 15.7595 16.9113 15.0833 17.1237V17.75C15.0833 18.0261 14.8595 18.25 14.5833 18.25C14.3072 18.25 14.0833 18.0261 14.0833 17.75V17.2H13.6759C13.3998 17.2 13.1759 16.9761 13.1759 16.7C13.1759 16.4239 13.3998 16.2 13.6759 16.2H14.5833C14.9515 16.2 15.25 15.9015 15.25 15.5333V15.4167C15.25 15.0485 14.9515 14.75 14.5833 14.75C13.6629 14.75 12.9167 14.0038 12.9167 13.0833V12.9667C12.9167 12.2204 13.4072 11.5887 14.0833 11.3763V10.75C14.0833 10.4739 14.3072 10.25 14.5833 10.25Z" fill="white"/>
</svg>
