<svg width="24" height="24" viewBox="0 0 24 24" fill="none" xmlns="http://www.w3.org/2000/svg">
<path fill-rule="evenodd" clip-rule="evenodd" d="M21 12C21 13.8501 20.4417 15.5699 19.4845 17H16.4501C16.7484 16.7768 16.8409 16.3612 16.6518 16.029L14.9121 12.9725C15.9909 12.5264 16.75 11.4636 16.75 10.2235C16.75 8.58129 15.4187 7.25 13.7765 7.25H11.5C11.0858 7.25 10.75 7.58579 10.75 8V16.4C10.75 16.6453 10.8678 16.8632 11.0499 17H9.05903C9.17779 16.8673 9.25 16.6921 9.25 16.5V8C9.25 7.58579 8.91421 7.25 8.5 7.25C8.08579 7.25 7.75 7.58579 7.75 8V16.5C7.75 16.6921 7.82221 16.8673 7.94097 17H4.51555C3.55827 15.5699 3 13.8501 3 12C3 7.02944 7.02944 3 12 3C16.9706 3 21 7.02944 21 12ZM11.9501 17C12.1322 16.8632 12.25 16.6453 12.25 16.4V13.1971H13.3139L15.3482 16.771C15.4007 16.8633 15.4698 16.9401 15.5497 17H11.9501ZM13.7354 11.6971H12.25V8.75H13.7765C14.5903 8.75 15.25 9.40972 15.25 10.2235C15.25 11.0373 14.5903 11.6971 13.7765 11.6971H13.7632L13.7451 11.6969L13.7354 11.6971ZM2.75 18.5C2.33579 18.5 2 18.8358 2 19.25C2 19.6642 2.33579 20 2.75 20H21.25C21.6642 20 22 19.6642 22 19.25C22 18.8358 21.6642 18.5 21.25 18.5H2.75Z" fill="white"/>
</svg>
