<svg width="24" height="24" viewBox="0 0 24 24" fill="none" xmlns="http://www.w3.org/2000/svg">
<path d="M16.75 3.75C16.75 3.33579 16.4142 3 16 3C15.5858 3 15.25 3.33579 15.25 3.75V6.25C15.25 6.66421 15.5858 7 16 7C16.4142 7 16.75 6.66421 16.75 6.25V3.75Z" fill="white"/>
<path d="M12.75 2.75C12.75 2.33579 12.4142 2 12 2C11.5858 2 11.25 2.33579 11.25 2.75V5.25C11.25 5.66421 11.5858 6 12 6C12.4142 6 12.75 5.66421 12.75 5.25V2.75Z" fill="white"/>
<path d="M8 3C8.41421 3 8.75 3.33579 8.75 3.75V6.25C8.75 6.66421 8.41421 7 8 7C7.58579 7 7.25 6.66421 7.25 6.25V3.75C7.25 3.33579 7.58579 3 8 3Z" fill="white"/>
<path fill-rule="evenodd" clip-rule="evenodd" d="M12 22C16.1421 22 19.5 18.6421 19.5 14.5C19.5 10.3579 16.1421 7 12 7C7.85786 7 4.5 10.3579 4.5 14.5C4.5 18.6421 7.85786 22 12 22ZM14.3333 15.5385H12.5V16.8462H14.3333C14.6095 16.8462 14.8333 17.07 14.8333 17.3462C14.8333 17.6223 14.6095 17.8462 14.3333 17.8462H12.5V18.5C12.5 18.7761 12.2761 19 12 19C11.7239 19 11.5 18.7761 11.5 18.5V17.8462H9.66668C9.39053 17.8462 9.16668 17.6223 9.16668 17.3462C9.16668 17.07 9.39053 16.8462 9.66668 16.8462H11.5V15.5385H9.66668C9.39053 15.5385 9.16668 15.3146 9.16668 15.0385C9.16668 14.7623 9.39053 14.5385 9.66668 14.5385H11.1024L9.07487 11.2632C8.92952 11.0284 9.00203 10.7202 9.23682 10.5749C9.47162 10.4295 9.77978 10.502 9.92513 10.7368L12 14.0885L14.0749 10.7368C14.2202 10.502 14.5284 10.4295 14.7632 10.5749C14.998 10.7202 15.0705 11.0284 14.9251 11.2632L12.8976 14.5385H14.3333C14.6095 14.5385 14.8333 14.7623 14.8333 15.0385C14.8333 15.3146 14.6095 15.5385 14.3333 15.5385Z" fill="white"/>
</svg>
