<svg width="24" height="24" viewBox="0 0 24 24" fill="none" xmlns="http://www.w3.org/2000/svg">
<path d="M7.5 4.20577C8.86817 3.41586 10.4202 3 12 3C13.5798 3 15.1318 3.41586 16.5 4.20577C17.8682 4.99569 19.0043 6.13183 19.7942 7.5C20.5841 8.86817 21 10.4202 21 12C21 13.5798 20.5841 15.1318 19.7942 16.5C19.5871 16.8587 19.1284 16.9816 18.7697 16.7745C18.411 16.5674 18.2881 16.1087 18.4952 15.75C19.1535 14.6099 19.5 13.3165 19.5 12C19.5 10.6835 19.1535 9.39014 18.4952 8.25C17.8369 7.10986 16.8901 6.16307 15.75 5.50481C14.6099 4.84655 13.3165 4.5 12 4.5C10.6835 4.5 9.39014 4.84655 8.25 5.50481C7.10986 6.16307 6.16307 7.10986 5.50481 8.25C4.84655 9.39015 4.5 10.6835 4.5 12C4.5 13.3165 4.84655 14.6099 5.50481 15.75C5.71192 16.1087 5.58901 16.5674 5.23029 16.7745C4.87157 16.9816 4.41288 16.8587 4.20577 16.5C3.41586 15.1318 3 13.5798 3 12C3 10.4202 3.41586 8.86817 4.20577 7.5C4.99569 6.13183 6.13183 4.99569 7.5 4.20577Z" fill="white"/>
<path d="M2 19.25C2 18.8358 2.33579 18.5 2.75 18.5H21.25C21.6642 18.5 22 18.8358 22 19.25C22 19.6642 21.6642 20 21.25 20H2.75C2.33579 20 2 19.6642 2 19.25Z" fill="white"/>
<path fill-rule="evenodd" clip-rule="evenodd" d="M8 7.25C7.58579 7.25 7.25 7.58579 7.25 8V16.5C7.25 16.9142 7.58579 17.25 8 17.25H10.3498C11.9509 17.25 13.2435 15.9421 13.2246 14.3411C13.2117 13.2502 12.5925 12.3071 11.6896 11.8307C12.0418 11.3535 12.25 10.7636 12.25 10.125C12.25 8.53718 10.9628 7.25 9.375 7.25H8ZM8.75 15.75V13H10.3498C11.1029 13 11.7158 13.6058 11.7247 14.3588C11.7337 15.1245 11.1155 15.75 10.3498 15.75H8.75ZM9.375 11.5H8.75V8.75H9.375C10.1344 8.75 10.75 9.36561 10.75 10.125C10.75 10.8844 10.1344 11.5 9.375 11.5Z" fill="white"/>
<path d="M17 12.75C16.0335 12.75 15.25 13.5335 15.25 14.5V16.5C15.25 16.9142 14.9142 17.25 14.5 17.25C14.0858 17.25 13.75 16.9142 13.75 16.5V11.75C13.75 11.3358 14.0858 11 14.5 11C14.9142 11 15.25 11.3358 15.25 11.75V11.7609C15.7551 11.4375 16.3557 11.25 17 11.25C17.4142 11.25 17.75 11.5858 17.75 12C17.75 12.4142 17.4142 12.75 17 12.75Z" fill="white"/>
</svg>
