<svg width="24" height="24" viewBox="0 0 24 24" fill="none" xmlns="http://www.w3.org/2000/svg">
<path fill-rule="evenodd" clip-rule="evenodd" d="M16.75 3.75C16.75 3.33579 16.4142 3 16 3C15.5858 3 15.25 3.33579 15.25 3.75V6.25C15.25 6.66421 15.5858 7 16 7C16.4142 7 16.75 6.66421 16.75 6.25V3.75ZM12.75 2.75C12.75 2.33579 12.4142 2 12 2C11.5858 2 11.25 2.33579 11.25 2.75V5.25C11.25 5.66421 11.5858 6 12 6C12.4142 6 12.75 5.66421 12.75 5.25V2.75ZM8 3C8.41421 3 8.75 3.33579 8.75 3.75V6.25C8.75 6.66421 8.41421 7 8 7C7.58579 7 7.25 6.66421 7.25 6.25V3.75C7.25 3.33579 7.58579 3 8 3ZM12 22C16.1421 22 19.5 18.6421 19.5 14.5C19.5 10.3579 16.1421 7 12 7C7.85786 7 4.5 10.3579 4.5 14.5C4.5 18.6421 7.85786 22 12 22ZM13.3334 11.75C13.3334 11.4739 13.1095 11.25 12.8334 11.25C12.5572 11.25 12.3334 11.4739 12.3334 11.75V17.25C12.3334 17.5261 12.5572 17.75 12.8334 17.75C13.1095 17.75 13.3334 17.5261 13.3334 17.25V14.8901H15V17.25C15 17.5261 15.2238 17.75 15.5 17.75C15.7761 17.75 16 17.5261 16 17.25V11.75C16 11.4739 15.7761 11.25 15.5 11.25C15.2238 11.25 15 11.4739 15 11.75V13.8901H13.3334V11.75ZM8 11.75C8 11.4739 8.22386 11.25 8.5 11.25H8.58823C10.4725 11.25 12 12.7775 12 14.6618C12 16.3673 10.6173 17.75 8.91176 17.75H8.5C8.22386 17.75 8 17.5261 8 17.25V11.75ZM9 12.285V16.7482C10.1124 16.7019 11 15.7855 11 14.6618C11 13.4702 10.1358 12.4804 9 12.285Z" fill="white"/>
</svg>
