<svg width="24" height="24" viewBox="0 0 24 24" fill="none" xmlns="http://www.w3.org/2000/svg">
<path fill-rule="evenodd" clip-rule="evenodd" d="M12 3C10.4202 3 8.86817 3.41586 7.5 4.20577C6.13183 4.99569 4.99569 6.13183 4.20577 7.5C3.41586 8.86817 3 10.4202 3 12C3 13.5798 3.41586 15.1318 4.20577 16.5C4.41288 16.8587 4.87157 16.9816 5.23029 16.7745C5.58901 16.5674 5.71192 16.1087 5.50481 15.75C4.84655 14.6099 4.5 13.3165 4.5 12C4.5 10.6835 4.84655 9.39015 5.50481 8.25C6.16307 7.10986 7.10986 6.16307 8.25 5.50481C9.39014 4.84655 10.6835 4.5 12 4.5C13.3165 4.5 14.6099 4.84655 15.75 5.50481C16.8901 6.16307 17.8369 7.10986 18.4952 8.25C19.1535 9.39014 19.5 10.6835 19.5 12C19.5 13.3165 19.1535 14.6099 18.4952 15.75C18.2881 16.1087 18.411 16.5674 18.7697 16.7745C19.1284 16.9816 19.5871 16.8587 19.7942 16.5C20.5841 15.1318 21 13.5798 21 12C21 10.4202 20.5841 8.86817 19.7942 7.5C19.0043 6.13183 17.8682 4.99569 16.5 4.20577C15.1318 3.41586 13.5798 3 12 3ZM2.75 18.5C2.33579 18.5 2 18.8358 2 19.25C2 19.6642 2.33579 20 2.75 20H21.25C21.6642 20 22 19.6642 22 19.25C22 18.8358 21.6642 18.5 21.25 18.5H2.75Z" fill="white"/>
<path fill-rule="evenodd" clip-rule="evenodd" d="M9.25 8C9.25 7.58579 9.58579 7.25 10 7.25H12.25C13.9069 7.25 15.25 8.59315 15.25 10.25C15.25 11.4982 14.4877 12.5684 13.4032 13.0203L15.1537 16.1323C15.3568 16.4933 15.2287 16.9506 14.8677 17.1537C14.5067 17.3568 14.0494 17.2287 13.8463 16.8677L11.8114 13.25H10.75V16.5C10.75 16.9142 10.4142 17.25 10 17.25C9.58579 17.25 9.25 16.9142 9.25 16.5V8ZM12.2352 11.75H10.75H12.2352ZM12.2611 11.75C13.0844 11.744 13.75 11.0747 13.75 10.25C13.75 9.42157 13.0784 8.75 12.25 8.75H10.75V11.75" fill="white"/>
</svg>
