<svg width="24" height="24" viewBox="0 0 24 24" fill="none" xmlns="http://www.w3.org/2000/svg">
<path d="M21 12C21 13.8501 20.4417 15.5699 19.4845 17H17.559C17.6778 16.8673 17.75 16.6921 17.75 16.5C17.75 16.0858 17.4142 15.75 17 15.75H14.15V13.0901H16.7C17.1142 13.0901 17.45 12.7543 17.45 12.3401C17.45 11.9258 17.1142 11.5901 16.7 11.5901H14.15V9.25H16.7C17.1142 9.25 17.45 8.91421 17.45 8.5C17.45 8.08579 17.1142 7.75 16.7 7.75H13.4C12.9858 7.75 12.65 8.08579 12.65 8.5V16.4C12.65 16.6342 12.7447 16.8463 12.8979 17H12.159C12.2778 16.8673 12.35 16.6921 12.35 16.5C12.35 16.0858 12.0142 15.75 11.6 15.75H8.75V8.5C8.75 8.08579 8.41421 7.75 8 7.75C7.58579 7.75 7.25 8.08579 7.25 8.5V16.4C7.25 16.6342 7.34471 16.8463 7.49792 17H4.51555C3.55827 15.5699 3 13.8501 3 12C3 7.02944 7.02944 3 12 3C16.9706 3 21 7.02944 21 12Z" fill="white"/>
<path d="M2.75 18.5C2.33579 18.5 2 18.8358 2 19.25C2 19.6642 2.33579 20 2.75 20H21.25C21.6642 20 22 19.6642 22 19.25C22 18.8358 21.6642 18.5 21.25 18.5H2.75Z" fill="white"/>
</svg>
