<svg width="24" height="24" viewBox="0 0 24 24" fill="none" xmlns="http://www.w3.org/2000/svg">
<path fill-rule="evenodd" clip-rule="evenodd" d="M16.75 3.75C16.75 3.33579 16.4142 3 16 3C15.5858 3 15.25 3.33579 15.25 3.75V6.25C15.25 6.66421 15.5858 7 16 7C16.4142 7 16.75 6.66421 16.75 6.25V3.75ZM12.75 2.75C12.75 2.33579 12.4142 2 12 2C11.5858 2 11.25 2.33579 11.25 2.75V5.25C11.25 5.66421 11.5858 6 12 6C12.4142 6 12.75 5.66421 12.75 5.25V2.75ZM8 3C8.41421 3 8.75 3.33579 8.75 3.75V6.25C8.75 6.66421 8.41421 7 8 7C7.58579 7 7.25 6.66421 7.25 6.25V3.75C7.25 3.33579 7.58579 3 8 3ZM12 8.5C15.3137 8.5 18 11.1863 18 14.5C18 17.8137 15.3137 20.5 12 20.5C8.68629 20.5 6 17.8137 6 14.5C6 11.1863 8.68629 8.5 12 8.5ZM19.5 14.5C19.5 10.3579 16.1421 7 12 7C7.85786 7 4.5 10.3579 4.5 14.5C4.5 18.6421 7.85786 22 12 22C16.1421 22 19.5 18.6421 19.5 14.5Z" fill="white"/>
<path fill-rule="evenodd" clip-rule="evenodd" d="M9.5 10.5C9.22386 10.5 9 10.7105 9 10.9702C9 11.2299 9.22386 11.4405 9.5 11.4405H11.3574C11.9668 11.4405 12.4142 11.6852 12.7177 12.0137C12.8871 12.197 13.0077 12.4026 13.083 12.5998H9.96484C9.6887 12.5998 9.46484 12.8103 9.46484 13.0701C9.46484 13.3298 9.6887 13.5403 9.96484 13.5403H13.0831C13.0078 13.7376 12.8872 13.9432 12.7177 14.1267C12.4166 14.4525 11.9739 14.6959 11.3721 14.6998C11.3671 14.6997 11.3621 14.6996 11.3571 14.6996H9.74822C9.20803 14.6996 8.94296 15.3184 9.33229 15.6706L12.8677 18.8687C13.0667 19.0487 13.3832 19.0429 13.5746 18.8557C13.7661 18.6686 13.7599 18.3709 13.5609 18.1908L10.7411 15.6401H11.3571C11.357 15.6401 11.3572 15.6401 11.3571 15.6401C12.2863 15.6401 12.9999 15.2551 13.4725 14.7436C13.8049 14.3838 14.0251 13.9546 14.1221 13.5403H15.072C15.3481 13.5403 15.572 13.3298 15.572 13.0701C15.572 12.8103 15.3481 12.5998 15.072 12.5998H14.1221C14.0289 12.2022 13.8223 11.791 13.512 11.4405H15.0714C15.3476 11.4405 15.5714 11.2299 15.5714 10.9702C15.5714 10.7105 15.3476 10.5 15.0714 10.5H9.5Z" fill="white"/>
</svg>
