<svg width="24" height="24" viewBox="0 0 24 24" fill="none" xmlns="http://www.w3.org/2000/svg">
<path d="M19.4845 17C20.4417 15.5699 21 13.8501 21 12C21 7.02944 16.9706 3 12 3C7.02944 3 3 7.02944 3 12C3 13.8501 3.55827 15.5699 4.51555 17H9.54993C9.3678 16.8632 9.25 16.6453 9.25 16.4V8C9.25 7.58579 9.58579 7.25 10 7.25H12.2765C13.9187 7.25 15.25 8.58129 15.25 10.2235C15.25 11.4636 14.4909 12.5264 13.4121 12.9725L15.1518 16.029C15.3409 16.3612 15.2484 16.7768 14.9501 17H19.4845Z" fill="white"/>
<path d="M10.75 16.4C10.75 16.6453 10.6322 16.8632 10.4501 17H14.0497C13.9698 16.9401 13.9007 16.8633 13.8482 16.771L11.8139 13.1971H10.75V16.4Z" fill="white"/>
<path d="M10.75 11.6971H12.2354C12.2447 11.6969 12.254 11.6969 12.2632 11.6971H12.2765C13.0903 11.6971 13.75 11.0373 13.75 10.2235C13.75 9.40972 13.0903 8.75 12.2765 8.75H10.75V11.6971Z" fill="white"/>
<path d="M2.75 18.5C2.33579 18.5 2 18.8358 2 19.25C2 19.6642 2.33579 20 2.75 20H21.25C21.6642 20 22 19.6642 22 19.25C22 18.8358 21.6642 18.5 21.25 18.5H2.75Z" fill="white"/>
</svg>
