<svg width="24" height="24" viewBox="0 0 24 24" fill="none" xmlns="http://www.w3.org/2000/svg">
<path d="M16.75 3.75C16.75 3.33579 16.4142 3 16 3C15.5858 3 15.25 3.33579 15.25 3.75V6.25C15.25 6.66421 15.5858 7 16 7C16.4142 7 16.75 6.66421 16.75 6.25V3.75Z" fill="white"/>
<path d="M12.75 2.75C12.75 2.33579 12.4142 2 12 2C11.5858 2 11.25 2.33579 11.25 2.75V5.25C11.25 5.66421 11.5858 6 12 6C12.4142 6 12.75 5.66421 12.75 5.25V2.75Z" fill="white"/>
<path d="M8 3C8.41421 3 8.75 3.33579 8.75 3.75V6.25C8.75 6.66421 8.41421 7 8 7C7.58579 7 7.25 6.66421 7.25 6.25V3.75C7.25 3.33579 7.58579 3 8 3Z" fill="white"/>
<path d="M10 14.75V16.5H11.1082C11.5956 16.5 11.989 16.1017 11.9831 15.6144C11.9773 15.1353 11.5873 14.75 11.1082 14.75H10Z" fill="white"/>
<path d="M10 13.75H10.4583C10.9416 13.75 11.3333 13.3582 11.3333 12.875C11.3333 12.3918 10.9416 12 10.4583 12H10V13.75Z" fill="white"/>
<path fill-rule="evenodd" clip-rule="evenodd" d="M19.5 14.5C19.5 18.6421 16.1421 22 12 22C7.85786 22 4.5 18.6421 4.5 14.5C4.5 10.3579 7.85786 7 12 7C16.1421 7 19.5 10.3579 19.5 14.5ZM9 11.5C9 11.2239 9.22386 11 9.5 11H10.4583C11.4939 11 12.3333 11.8395 12.3333 12.875C12.3333 13.2821 12.2036 13.6589 11.9832 13.9663C12.5712 14.2771 12.9744 14.8915 12.9831 15.6022C12.9957 16.6466 12.1526 17.5 11.1082 17.5H9.5C9.22386 17.5 9 17.2761 9 17V11.5ZM14.3333 15.7549C14.3333 15.1106 14.8557 14.5882 15.5 14.5882C15.7761 14.5882 16 14.3644 16 14.0882C16 13.8121 15.7761 13.5882 15.5 13.5882C15.0705 13.5882 14.6701 13.7132 14.3333 13.9288V13.9265C14.3333 13.6504 14.1095 13.4265 13.8333 13.4265C13.5572 13.4265 13.3333 13.6504 13.3333 13.9265V15.7059C13.333 15.7222 13.3333 15.7385 13.3333 15.7549V17C13.3333 17.2761 13.5572 17.5 13.8333 17.5C14.1095 17.5 14.3333 17.2761 14.3333 17V15.7549Z" fill="white"/>
</svg>
