<svg width="24" height="24" viewBox="0 0 24 24" fill="none" xmlns="http://www.w3.org/2000/svg">
<path d="M12.0001 3C10.4203 3 8.86829 3.41586 7.50012 4.20577C6.13195 4.99569 4.99581 6.13183 4.20589 7.5C3.41598 8.86817 3.00012 10.4202 3.00012 12C3.00012 13.5798 3.41598 15.1318 4.20589 16.5C4.413 16.8587 4.87169 16.9816 5.23041 16.7745C5.58913 16.5674 5.71204 16.1087 5.50493 15.75C4.84667 14.6099 4.50012 13.3165 4.50012 12C4.50012 10.6835 4.84667 9.39015 5.50493 8.25C6.16319 7.10986 7.10998 6.16307 8.25012 5.50481C9.39027 4.84655 10.6836 4.5 12.0001 4.5C13.3166 4.5 14.61 4.84655 15.7501 5.50481C16.8903 6.16307 17.837 7.10986 18.4953 8.25C19.1536 9.39014 19.5001 10.6835 19.5001 12C19.5001 13.3165 19.1536 14.6099 18.4953 15.75C18.2882 16.1087 18.4111 16.5674 18.7698 16.7745C19.1286 16.9816 19.5872 16.8587 19.7944 16.5C20.5843 15.1318 21.0001 13.5798 21.0001 12C21.0001 10.4202 20.5843 8.86817 19.7943 7.5C19.0044 6.13183 17.8683 4.99569 16.5001 4.20577C15.1319 3.41586 13.58 3 12.0001 3Z" fill="white"/>
<path d="M2.75012 18.5C2.33591 18.5 2.00012 18.8358 2.00012 19.25C2.00012 19.6642 2.33591 20 2.75012 20H21.2501C21.6643 20 22.0001 19.6642 22.0001 19.25C22.0001 18.8358 21.6643 18.5 21.2501 18.5H2.75012Z" fill="white"/>
<path d="M12.7501 13.3269H14.8001C15.2143 13.3269 15.5501 12.9911 15.5501 12.5769C15.5501 12.1627 15.2143 11.8269 14.8001 11.8269H13.3884L15.6273 8.41111C15.8544 8.06468 15.7577 7.59977 15.4112 7.3727C15.0648 7.14563 14.5999 7.24239 14.3728 7.58882L12.0001 11.2088L9.62735 7.58882C9.40028 7.24239 8.93537 7.14563 8.58894 7.3727C8.24251 7.59977 8.14575 8.06468 8.37282 8.41111L10.6117 11.8269H9.20007C8.78586 11.8269 8.45007 12.1627 8.45007 12.5769C8.45007 12.9911 8.78586 13.3269 9.20007 13.3269H11.2501V14.4424H9.20007C8.78586 14.4424 8.45007 14.7782 8.45007 15.1924C8.45007 15.6066 8.78586 15.9424 9.20007 15.9424H11.2501V16.5C11.2501 16.9142 11.5859 17.25 12.0001 17.25C12.4143 17.25 12.7501 16.9142 12.7501 16.5V15.9424H14.8001C15.2143 15.9424 15.5501 15.6066 15.5501 15.1924C15.5501 14.7782 15.2143 14.4424 14.8001 14.4424H12.7501V13.3269Z" fill="white"/>
</svg>
