<svg width="24" height="24" viewBox="0 0 24 24" fill="none" xmlns="http://www.w3.org/2000/svg">
<path d="M16.75 3.75C16.75 3.33579 16.4142 3 16 3C15.5858 3 15.25 3.33579 15.25 3.75V6.25C15.25 6.66421 15.5858 7 16 7C16.4142 7 16.75 6.66421 16.75 6.25V3.75Z" fill="white"/>
<path d="M12.75 2.75C12.75 2.33579 12.4142 2 12 2C11.5858 2 11.25 2.33579 11.25 2.75V5.25C11.25 5.66421 11.5858 6 12 6C12.4142 6 12.75 5.66421 12.75 5.25V2.75Z" fill="white"/>
<path d="M8 3C8.41421 3 8.75 3.33579 8.75 3.75V6.25C8.75 6.66421 8.41421 7 8 7C7.58579 7 7.25 6.66421 7.25 6.25V3.75C7.25 3.33579 7.58579 3 8 3Z" fill="white"/>
<path fill-rule="evenodd" clip-rule="evenodd" d="M12 22C16.1421 22 19.5 18.6421 19.5 14.5C19.5 10.3579 16.1421 7 12 7C7.85786 7 4.5 10.3579 4.5 14.5C4.5 18.6421 7.85786 22 12 22ZM9 11.5C9 11.2239 8.77614 11 8.5 11C8.22386 11 8 11.2239 8 11.5V17.4C8 17.7314 8.26863 18 8.6 18H11.3C11.5761 18 11.8 17.7761 11.8 17.5C11.8 17.2239 11.5761 17 11.3 17H9V11.5ZM13.2 12H15.2667C15.5428 12 15.7667 11.7761 15.7667 11.5C15.7667 11.2239 15.5428 11 15.2667 11H12.7C12.4239 11 12.2 11.2239 12.2 11.5V17.4C12.2 17.7314 12.4686 18 12.8 18H15.5C15.7762 18 16 17.7761 16 17.5C16 17.2239 15.7762 17 15.5 17H13.2V14.8801H15.2667C15.5428 14.8801 15.7667 14.6562 15.7667 14.3801C15.7667 14.1039 15.5428 13.8801 15.2667 13.8801H13.2V12Z" fill="white"/>
</svg>
