<svg width="24" height="24" viewBox="0 0 24 24" fill="none" xmlns="http://www.w3.org/2000/svg">
<path fill-rule="evenodd" clip-rule="evenodd" d="M12 3C10.4202 3 8.86817 3.41586 7.5 4.20577C6.13183 4.99569 4.99569 6.13183 4.20577 7.5C3.41586 8.86817 3 10.4202 3 12C3 13.5798 3.41586 15.1318 4.20577 16.5C4.41288 16.8587 4.87157 16.9816 5.23029 16.7745C5.58901 16.5674 5.71192 16.1087 5.50481 15.75C4.84655 14.6099 4.5 13.3165 4.5 12C4.5 10.6835 4.84655 9.39015 5.50481 8.25C6.16307 7.10986 7.10986 6.16307 8.25 5.50481C9.39014 4.84655 10.6835 4.5 12 4.5C13.3165 4.5 14.6099 4.84655 15.75 5.50481C16.8901 6.16307 17.8369 7.10986 18.4952 8.25C19.1535 9.39014 19.5 10.6835 19.5 12C19.5 13.3165 19.1535 14.6099 18.4952 15.75C18.2881 16.1087 18.411 16.5674 18.7697 16.7745C19.1284 16.9816 19.5871 16.8587 19.7942 16.5C20.5841 15.1318 21 13.5798 21 12C21 10.4202 20.5841 8.86817 19.7942 7.5C19.0043 6.13183 17.8682 4.99569 16.5 4.20577C15.1318 3.41586 13.5798 3 12 3ZM2.75 18.5C2.33579 18.5 2 18.8358 2 19.25C2 19.6642 2.33579 20 2.75 20H21.25C21.6642 20 22 19.6642 22 19.25C22 18.8358 21.6642 18.5 21.25 18.5H2.75ZM13.1904 7.75C13.6046 7.75 13.9404 8.08579 13.9404 8.5V11.5901H16.25V8.5C16.25 8.08579 16.5858 7.75 17 7.75C17.4142 7.75 17.75 8.08579 17.75 8.5V16.5C17.75 16.9142 17.4142 17.25 17 17.25C16.5858 17.25 16.25 16.9142 16.25 16.5V13.0901H13.9404V16.5C13.9404 16.9142 13.6046 17.25 13.1904 17.25C12.7762 17.25 12.4404 16.9142 12.4404 16.5V8.5C12.4404 8.08579 12.7762 7.75 13.1904 7.75ZM7 7.75C6.58579 7.75 6.25 8.08579 6.25 8.5V16.5C6.25 16.9142 6.58579 17.25 7 17.25H8.28571C10.3568 17.25 12.0357 15.5711 12.0357 13.5V11.5C12.0357 9.42893 10.3568 7.75 8.28571 7.75H7ZM7.75 15.75V9.25H8.28571C9.52835 9.25 10.5357 10.2574 10.5357 11.5V13.5C10.5357 14.7426 9.52836 15.75 8.28571 15.75H7.75Z" fill="white"/>
</svg>
