<svg width="24" height="24" viewBox="0 0 24 24" fill="none" xmlns="http://www.w3.org/2000/svg">
<path d="M16.75 3.75C16.75 3.33579 16.4142 3 16 3C15.5858 3 15.25 3.33579 15.25 3.75V6.25C15.25 6.66421 15.5858 7 16 7C16.4142 7 16.75 6.66421 16.75 6.25V3.75Z" fill="white"/>
<path d="M12.75 2.75C12.75 2.33579 12.4142 2 12 2C11.5858 2 11.25 2.33579 11.25 2.75V5.25C11.25 5.66421 11.5858 6 12 6C12.4142 6 12.75 5.66421 12.75 5.25V2.75Z" fill="white"/>
<path d="M8 3C8.41421 3 8.75 3.33579 8.75 3.75V6.25C8.75 6.66421 8.41421 7 8 7C7.58579 7 7.25 6.66421 7.25 6.25V3.75C7.25 3.33579 7.58579 3 8 3Z" fill="white"/>
<path d="M8.5 11C8.77614 11 9 11.2239 9 11.5V17H11.3C11.5761 17 11.8 17.2239 11.8 17.5C11.8 17.7761 11.5761 18 11.3 18H8.6C8.26863 18 8 17.7314 8 17.4V11.5C8 11.2239 8.22386 11 8.5 11Z" fill="white"/>
<path d="M15.2667 12H13.2001V13.8801H15.2667C15.5429 13.8801 15.7667 14.104 15.7667 14.3801C15.7667 14.6563 15.5429 14.8801 15.2667 14.8801H13.2001V17H15.5001C15.7762 17 16.0001 17.2239 16.0001 17.5C16.0001 17.7761 15.7762 18 15.5001 18H12.8001C12.4687 18 12.2001 17.7314 12.2001 17.4V11.5C12.2001 11.2239 12.4239 11 12.7001 11H15.2667C15.5429 11 15.7667 11.2239 15.7667 11.5C15.7667 11.7761 15.5429 12 15.2667 12Z" fill="white"/>
<path fill-rule="evenodd" clip-rule="evenodd" d="M19.5 14.5C19.5 10.3579 16.1421 7 12 7C7.85786 7 4.5 10.3579 4.5 14.5C4.5 18.6421 7.85786 22 12 22C16.1421 22 19.5 18.6421 19.5 14.5ZM12 8.5C15.3137 8.5 18 11.1863 18 14.5C18 17.8137 15.3137 20.5 12 20.5C8.68629 20.5 6 17.8137 6 14.5C6 11.1863 8.68629 8.5 12 8.5Z" fill="white"/>
</svg>
