<svg width="24" height="24" viewBox="0 0 24 24" fill="none" xmlns="http://www.w3.org/2000/svg">
<path d="M12 3C10.4202 3 8.86817 3.41586 7.5 4.20577C6.13183 4.99569 4.99569 6.13183 4.20577 7.5C3.41586 8.86817 3 10.4202 3 12C3 13.5798 3.41586 15.1318 4.20577 16.5C4.41288 16.8587 4.87157 16.9816 5.23029 16.7745C5.58901 16.5674 5.71192 16.1087 5.50481 15.75C4.84655 14.6099 4.5 13.3165 4.5 12C4.5 10.6835 4.84655 9.39015 5.50481 8.25C6.16307 7.10986 7.10986 6.16307 8.25 5.50481C9.39014 4.84655 10.6835 4.5 12 4.5C13.3165 4.5 14.6099 4.84655 15.75 5.50481C16.8901 6.16307 17.8369 7.10986 18.4952 8.25C19.1535 9.39014 19.5 10.6835 19.5 12C19.5 13.3165 19.1535 14.6099 18.4952 15.75C18.2881 16.1087 18.411 16.5674 18.7697 16.7745C19.1284 16.9816 19.5871 16.8587 19.7942 16.5C20.5841 15.1318 21 13.5798 21 12C21 10.4202 20.5841 8.86817 19.7942 7.5C19.0043 6.13183 17.8682 4.99569 16.5 4.20577C15.1318 3.41586 13.5798 3 12 3Z" fill="white"/>
<path d="M2.75 18.5C2.33579 18.5 2 18.8358 2 19.25C2 19.6642 2.33579 20 2.75 20H21.25C21.6642 20 22 19.6642 22 19.25C22 18.8358 21.6642 18.5 21.25 18.5H2.75Z" fill="white"/>
<path d="M7.5 7.75C7.91421 7.75 8.25 8.08579 8.25 8.5V15.75H11.1C11.5142 15.75 11.85 16.0858 11.85 16.5C11.85 16.9142 11.5142 17.25 11.1 17.25H7.6C7.13056 17.25 6.75 16.8694 6.75 16.4V8.5C6.75 8.08579 7.08579 7.75 7.5 7.75Z" fill="white"/>
<path d="M16.2 9.25H13.65V11.5901H16.2C16.6142 11.5901 16.95 11.9259 16.95 12.3401C16.95 12.7543 16.6142 13.0901 16.2 13.0901H13.65V15.75H16.5C16.9142 15.75 17.25 16.0858 17.25 16.5C17.25 16.9142 16.9142 17.25 16.5 17.25H13C12.5306 17.25 12.15 16.8694 12.15 16.4V8.5C12.15 8.08579 12.4858 7.75 12.9 7.75H16.2C16.6142 7.75 16.95 8.08579 16.95 8.5C16.95 8.91421 16.6142 9.25 16.2 9.25Z" fill="white"/>
</svg>
