<svg width="24" height="24" viewBox="0 0 24 24" fill="none" xmlns="http://www.w3.org/2000/svg">
<path d="M12 3C10.4202 3 8.86817 3.41586 7.5 4.20577C6.13183 4.99569 4.99569 6.13183 4.20577 7.5C3.41586 8.86817 3 10.4202 3 12C3 13.5798 3.41586 15.1318 4.20577 16.5C4.41288 16.8587 4.87157 16.9816 5.23029 16.7745C5.58901 16.5674 5.71192 16.1087 5.50481 15.75C4.84655 14.6099 4.5 13.3165 4.5 12C4.5 10.6835 4.84655 9.39015 5.50481 8.25C6.16307 7.10986 7.10986 6.16307 8.25 5.50481C9.39014 4.84655 10.6835 4.5 12 4.5C13.3165 4.5 14.6099 4.84655 15.75 5.50481C16.8901 6.16307 17.8369 7.10986 18.4952 8.25C19.1535 9.39014 19.5 10.6835 19.5 12C19.5 13.3165 19.1535 14.6099 18.4952 15.75C18.2881 16.1087 18.411 16.5674 18.7697 16.7745C19.1284 16.9816 19.5871 16.8587 19.7942 16.5C20.5841 15.1318 21 13.5798 21 12C21 10.4202 20.5841 8.86817 19.7942 7.5C19.0043 6.13183 17.8682 4.99569 16.5 4.20577C15.1318 3.41586 13.5798 3 12 3Z" fill="white"/>
<path d="M2.75 18.5C2.33579 18.5 2 18.8358 2 19.25C2 19.6642 2.33579 20 2.75 20H21.25C21.6642 20 22 19.6642 22 19.25C22 18.8358 21.6642 18.5 21.25 18.5H2.75Z" fill="white"/>
<path fill-rule="evenodd" clip-rule="evenodd" d="M7 8.5C7 8.08579 7.33579 7.75 7.75 7.75H9.63235C11.2161 7.75 12.5 9.03389 12.5 10.6176C12.5 11.7648 11.8264 12.7546 10.8532 13.2132L12.4123 16.1481C12.6067 16.5139 12.4677 16.968 12.1019 17.1623C11.7361 17.3567 11.282 17.2177 11.0877 16.8519L9.29917 13.4853H8.5V16.5C8.5 16.9142 8.16421 17.25 7.75 17.25C7.33579 17.25 7 16.9142 7 16.5V8.5ZM8.5 11.9853H9.63235C10.3877 11.9853 11 11.373 11 10.6176C11 9.86232 10.3877 9.25 9.63235 9.25H8.5V11.9853Z" fill="white"/>
<path d="M16 7.5C16 7.08579 15.6642 6.75 15.25 6.75C14.8358 6.75 14.5 7.08579 14.5 7.5V8.22803C13.6261 8.53691 13 9.37034 13 10.35V10.5C13 11.7426 14.0074 12.75 15.25 12.75C15.6642 12.75 16 13.0858 16 13.5V13.65C16 14.0642 15.6642 14.4 15.25 14.4H14.0833C13.6691 14.4 13.3333 14.7358 13.3333 15.15C13.3333 15.5642 13.6691 15.9 14.0833 15.9H14.5V16.5C14.5 16.9142 14.8358 17.25 15.25 17.25C15.6642 17.25 16 16.9142 16 16.5V15.772C16.8739 15.4631 17.5 14.6297 17.5 13.65V13.5C17.5 12.2574 16.4926 11.25 15.25 11.25C14.8358 11.25 14.5 10.9142 14.5 10.5V10.35C14.5 9.93579 14.8358 9.6 15.25 9.6H16.4167C16.8309 9.6 17.1667 9.26421 17.1667 8.85C17.1667 8.43579 16.8309 8.1 16.4167 8.1H16V7.5Z" fill="white"/>
</svg>
