<svg width="24" height="24" viewBox="0 0 24 24" fill="none" xmlns="http://www.w3.org/2000/svg">
<path fill-rule="evenodd" clip-rule="evenodd" d="M16.75 3.75C16.75 3.33579 16.4142 3 16 3C15.5858 3 15.25 3.33579 15.25 3.75V6.25C15.25 6.66421 15.5858 7 16 7C16.4142 7 16.75 6.66421 16.75 6.25V3.75ZM12.75 2.75C12.75 2.33579 12.4142 2 12 2C11.5858 2 11.25 2.33579 11.25 2.75V5.25C11.25 5.66421 11.5858 6 12 6C12.4142 6 12.75 5.66421 12.75 5.25V2.75ZM8 3C8.41421 3 8.75 3.33579 8.75 3.75V6.25C8.75 6.66421 8.41421 7 8 7C7.58579 7 7.25 6.66421 7.25 6.25V3.75C7.25 3.33579 7.58579 3 8 3ZM12 8.5C15.3137 8.5 18 11.1863 18 14.5C18 17.8137 15.3137 20.5 12 20.5C8.68629 20.5 6 17.8137 6 14.5C6 11.1863 8.68629 8.5 12 8.5ZM19.5 14.5C19.5 10.3579 16.1421 7 12 7C7.85786 7 4.5 10.3579 4.5 14.5C4.5 18.6421 7.85786 22 12 22C16.1421 22 19.5 18.6421 19.5 14.5Z" fill="white"/>
<path fill-rule="evenodd" clip-rule="evenodd" d="M9.75 11C9.75 10.7239 9.97386 10.5 10.25 10.5H12.3971C13.6966 10.5 14.75 11.5534 14.75 12.8529C14.75 13.9157 14.0454 14.8139 13.0778 15.1059L14.6774 17.7405C14.8207 17.9766 14.7455 18.2841 14.5095 18.4274C14.2734 18.5707 13.9659 18.4955 13.8226 18.2595L11.9686 15.2059H10.75V18C10.75 18.2761 10.5261 18.5 10.25 18.5C9.97386 18.5 9.75 18.2761 9.75 18V11ZM10.75 14.2059H12.241C12.2467 14.2058 12.2524 14.2058 12.2581 14.2059H12.3971C13.1443 14.2059 13.75 13.6002 13.75 12.8529C13.75 12.1057 13.1443 11.5 12.3971 11.5H10.75V14.2059Z" fill="white"/>
</svg>
