<svg width="24" height="24" viewBox="0 0 24 24" fill="none" xmlns="http://www.w3.org/2000/svg">
<path fill-rule="evenodd" clip-rule="evenodd" d="M19.4845 17C20.4417 15.5699 21 13.8501 21 12C21 7.02944 16.9706 3 12 3C7.02944 3 3 7.02944 3 12C3 13.8501 3.55827 15.5699 4.51555 17H12.4393L8.71967 13.2803C8.64776 13.2084 8.59351 13.1255 8.55691 13.0371C8.52024 12.9487 8.5 12.8517 8.5 12.75C8.5 12.6483 8.52024 12.5513 8.55691 12.4629C8.59351 12.3745 8.64776 12.2916 8.71967 12.2197C8.79158 12.1478 8.87445 12.0935 8.96291 12.0569C9.05134 12.0202 9.14831 12 9.25 12H11.25C11.8274 12 12.2508 11.747 12.5458 11.394C12.6501 11.2693 12.7354 11.1351 12.8029 11H9.75C9.33579 11 9 10.6642 9 10.25C9 9.83579 9.33579 9.5 9.75 9.5H12.8029C12.7354 9.36488 12.6501 9.2307 12.5458 9.10597C12.2508 8.753 11.8274 8.5 11.25 8.5H9.25C8.83579 8.5 8.5 8.16421 8.5 7.75C8.5 7.33579 8.83579 7 9.25 7H15.25C15.6642 7 16 7.33579 16 7.75C16 8.16421 15.6642 8.5 15.25 8.5H13.9576C14.1606 8.81727 14.3087 9.15993 14.3983 9.5H15.25C15.6642 9.5 16 9.83579 16 10.25C16 10.6642 15.6642 11 15.25 11H14.3983C14.2739 11.4719 14.0371 11.9488 13.6968 12.356C13.156 13.003 12.3295 13.5 11.25 13.5H11.0607L13.7803 16.2197C13.9914 16.4307 14.0503 16.7362 13.9573 17H19.4845ZM2.75 18.5C2.33579 18.5 2 18.8358 2 19.25C2 19.6642 2.33579 20 2.75 20H21.25C21.6642 20 22 19.6642 22 19.25C22 18.8358 21.6642 18.5 21.25 18.5H2.75Z" fill="white"/>
</svg>
