<svg width="24" height="24" viewBox="0 0 24 24" fill="none" xmlns="http://www.w3.org/2000/svg">
<path d="M15.166 16.1855L10.1016 21.25H19.7773C20.1678 21.25 20.5423 21.0945 20.8184 20.8184C21.0945 20.5423 21.25 20.1678 21.25 19.7773V15.333C21.2499 14.9427 21.0944 14.568 20.8184 14.292C20.5423 14.0161 20.1676 13.8613 19.7773 13.8613H17.5L15.166 16.1855Z" fill="white"/>
<path fill-rule="evenodd" clip-rule="evenodd" d="M4.22266 2.75C3.8322 2.75 3.45774 2.90555 3.18164 3.18164C2.90554 3.45774 2.75 3.8322 2.75 4.22266V17.5557C2.75003 18.5355 3.13921 19.4752 3.83203 20.168C4.52485 20.8608 5.46455 21.25 6.44434 21.25C7.42411 21.25 8.36381 20.8607 9.05664 20.168C9.74946 19.4752 10.1386 18.5355 10.1387 17.5557V4.22266C10.1387 3.83238 9.98387 3.4577 9.70801 3.18164C9.43199 2.90562 9.05733 2.75009 8.66699 2.75H4.22266ZM6.44434 16.8057C6.85855 16.8057 7.19434 17.1415 7.19434 17.5557V17.5664C7.19434 17.9806 6.85855 18.3164 6.44434 18.3164C6.03017 18.3163 5.69434 17.9806 5.69434 17.5664V17.5557C5.69434 17.1415 6.03017 16.8057 6.44434 16.8057Z" fill="white"/>
<path d="M14.6826 4.71094C14.2923 4.71094 13.9177 4.86565 13.6416 5.1416L12.7988 5.98438L11.6387 7.28613V17.5918L18.8652 10.3652C19.1412 10.0892 19.2959 9.71456 19.2959 9.32422C19.2958 8.93392 19.1412 8.55923 18.8652 8.2832L15.7227 5.1416C15.4467 4.8658 15.0728 4.71104 14.6826 4.71094Z" fill="white"/>
</svg>
