<svg width="24" height="24" viewBox="0 0 24 24" fill="none" xmlns="http://www.w3.org/2000/svg">
<path d="M7 16.25C6.58579 16.25 6.25 16.5858 6.25 17V17.0098C6.25 17.424 6.58579 17.7598 7 17.7598C7.41421 17.7598 7.75 17.424 7.75 17.0098V17C7.75 16.5858 7.41421 16.25 7 16.25Z" fill="white"/>
<path fill-rule="evenodd" clip-rule="evenodd" d="M5 2.25C4.27065 2.25 3.57139 2.53994 3.05566 3.05566C2.53994 3.57139 2.25 4.27065 2.25 5V17C2.25 18.2598 2.7508 19.4676 3.6416 20.3584C4.5324 21.2492 5.74022 21.75 7 21.75H19C19.7293 21.75 20.4286 21.4601 20.9443 20.9443C21.4601 20.4286 21.75 19.7293 21.75 19V15C21.75 14.2707 21.4601 13.5714 20.9443 13.0557C20.4286 12.5399 19.7293 12.25 19 12.25H18.4727L19.1865 11.5361C19.702 11.0204 19.9912 10.3209 19.9912 9.5918C19.9912 8.86267 19.702 8.16311 19.1865 7.64746L16.3584 4.81934C15.8427 4.30384 15.1432 4.01467 14.4141 4.01465C13.7762 4.01465 13.1611 4.23611 12.6719 4.63672L12.4697 4.81934L11.75 5.53906V5C11.75 4.27065 11.4601 3.57139 10.9443 3.05566C10.4286 2.53994 9.72935 2.25 9 2.25H5ZM19 13.75C19.3315 13.75 19.6494 13.8818 19.8838 14.1162C20.1182 14.3506 20.25 14.6685 20.25 15V19C20.25 19.3315 20.1182 19.6494 19.8838 19.8838C19.6494 20.1182 19.3315 20.25 19 20.25H10.4727L16.9727 13.75H19ZM9 3.75C9.33152 3.75 9.64937 3.88179 9.88379 4.11621C10.1182 4.35063 10.25 4.66848 10.25 5V17L10.2461 17.1611C10.2063 17.9644 9.86926 18.7264 9.29785 19.2979C8.68836 19.9073 7.86195 20.25 7 20.25C6.13805 20.25 5.31164 19.9073 4.70215 19.2979C4.09266 18.6884 3.75 17.862 3.75 17V5C3.75 4.66848 3.88179 4.35063 4.11621 4.11621C4.35063 3.88179 4.66848 3.75 5 3.75H9ZM14.4141 5.51465C14.7455 5.51467 15.0635 5.64654 15.2979 5.88086L15.2988 5.87988L18.126 8.70801C18.3602 8.94236 18.4912 9.26045 18.4912 9.5918C18.4912 9.92312 18.3601 10.2412 18.126 10.4756L11.75 16.8516V7.66016L13.5303 5.87988C13.7647 5.64572 14.0827 5.51465 14.4141 5.51465Z" fill="white"/>
</svg>
