<svg width="24" height="24" viewBox="0 0 24 24" fill="none" xmlns="http://www.w3.org/2000/svg">
<path fill-rule="evenodd" clip-rule="evenodd" d="M6.04148 2H7.58535C7.79127 2.5826 8.34689 3 9 3H15C15.6531 3 16.2087 2.5826 16.4146 2H17.9585C17.7205 3.41886 16.4865 4.5 15 4.5H9C7.5135 4.5 6.27952 3.41886 6.04148 2ZM9 7.5H15C15.8284 7.5 16.5 8.17157 16.5 9V15C16.5 15.8284 15.8284 16.5 15 16.5H9C8.17157 16.5 7.5 15.8284 7.5 15V9C7.5 8.17157 8.17157 7.5 9 7.5ZM6 9C6 7.34315 7.34315 6 9 6H15C16.6569 6 18 7.34315 18 9V15C18 16.6569 16.6569 18 15 18H9C7.34315 18 6 16.6569 6 15V9ZM9 21H15C15.6531 21 16.2087 21.4174 16.4146 22H17.9585C17.7205 20.5811 16.4865 19.5 15 19.5H9C7.5135 19.5 6.27952 20.5811 6.04148 22H7.58535C7.79127 21.4174 8.34689 21 9 21ZM15.124 10.166C15.3538 9.82138 15.2607 9.35573 14.916 9.12596C14.5714 8.8962 14.1057 8.98933 13.876 9.33397L11.4449 12.9806L10.0857 11.2815C9.82689 10.958 9.35493 10.9056 9.03148 11.1643C8.70803 11.4231 8.65559 11.8951 8.91435 12.2185L10.7435 14.5049C11.1451 15.007 11.9191 14.9734 12.2758 14.4384L15.124 10.166Z" fill="white"/>
</svg>
