<svg width="24" height="24" viewBox="0 0 24 24" fill="none" xmlns="http://www.w3.org/2000/svg">
<path fill-rule="evenodd" clip-rule="evenodd" d="M6.04149 2H7.58537C7.79128 2.5826 8.3469 3 9.00001 3H15C15.6531 3 16.2087 2.5826 16.4147 2H17.9585C17.7205 3.41886 16.4865 4.5 15 4.5H9.00001C7.51351 4.5 6.27953 3.41886 6.04149 2ZM15 21H9.00001C8.3469 21 7.79128 21.4174 7.58537 22H6.04149C6.27953 20.5811 7.51351 19.5 9.00001 19.5H15C16.4865 19.5 17.7205 20.5811 17.9585 22H16.4147C16.2087 21.4174 15.6531 21 15 21ZM6.00001 9C6.00001 7.34315 7.34316 6 9.00001 6H15C15.5561 6 16.0769 6.15131 16.5234 6.415L19.9541 2.98432C20.247 2.69143 20.7218 2.69143 21.0147 2.98432C21.3076 3.27721 21.3076 3.75209 21.0147 4.04498L17.5843 7.47541L17.5851 7.4768L15.2474 9.81454L15.2476 9.81212L10.6596 14.4001L10.6606 14.4013L7.47681 17.5851L7.47542 17.5843L4.04415 21.0155C3.75126 21.3084 3.27639 21.3084 2.98349 21.0155C2.6906 20.7226 2.6906 20.2478 2.98349 19.9549L6.41501 16.5234C6.15132 16.0769 6.00001 15.5561 6.00001 15V9ZM9.7168 13.2216L10.784 12.1544L10.0857 11.2815C9.82691 10.958 9.35494 10.9056 9.03149 11.1643C8.70804 11.4231 8.6556 11.8951 8.91436 12.2185L9.7168 13.2216ZM18 15V9.18322L9.18323 18H15C16.6569 18 18 16.6569 18 15Z" fill="white"/>
</svg>
