<svg width="24" height="24" viewBox="0 0 24 24" fill="none" xmlns="http://www.w3.org/2000/svg">
<path d="M12.0001 2.99707C12.4143 2.99707 12.7501 3.33286 12.7501 3.74707V4.86839C12.7501 5.2826 12.4143 5.61839 12.0001 5.61839C11.5859 5.61839 11.2501 5.2826 11.2501 4.86839V3.74707C11.2501 3.33286 11.5859 2.99707 12.0001 2.99707Z" fill="white" fill-opacity="0.96"/>
<path d="M5.21979 5.21973C5.51268 4.92683 5.98755 4.92683 6.28045 5.21973L6.78045 5.71973C7.07334 6.01262 7.07334 6.48749 6.78045 6.78039C6.48755 7.07328 6.01268 7.07328 5.71979 6.78039L5.21979 6.28039C4.92689 5.98749 4.92689 5.51262 5.21979 5.21973Z" fill="white" fill-opacity="0.96"/>
<path fill-rule="evenodd" clip-rule="evenodd" d="M15.5219 8.45076C14.6182 7.554 13.3738 7 12.0001 7C9.2387 7 7.00012 9.23858 7.00012 12C7.00012 14.7614 9.2387 17 12.0001 17C13.3767 17 14.6234 16.4437 15.5276 15.5436L15.5357 15.5355L15.5437 15.5275C16.4438 14.6233 17.0001 13.3766 17.0001 12C17.0001 10.6263 16.4461 9.38194 15.5494 8.47823L15.5357 8.46447L15.5219 8.45076ZM12.0001 15.5V8.5C10.0671 8.5 8.50012 10.067 8.50012 12C8.50012 13.933 10.0671 15.5 12.0001 15.5Z" fill="white" fill-opacity="0.96"/>
<path d="M18.2805 17.2197C17.9876 16.9268 17.5127 16.9268 17.2198 17.2197C16.9269 17.5126 16.9269 17.9875 17.2198 18.2804L17.7198 18.7804C18.0127 19.0733 18.4876 19.0733 18.7804 18.7804C19.0733 18.4875 19.0733 18.0126 18.7804 17.7197L18.2805 17.2197Z" fill="white" fill-opacity="0.96"/>
<path d="M18.7804 5.21973C19.0733 5.51262 19.0733 5.98749 18.7804 6.28039L18.2804 6.78039C17.9876 7.07328 17.5127 7.07328 17.2198 6.78039C16.9269 6.48749 16.9269 6.01262 17.2198 5.71973L17.7198 5.21973C18.0127 4.92683 18.4876 4.92683 18.7804 5.21973Z" fill="white" fill-opacity="0.96"/>
<path d="M6.78045 18.2804C7.07334 17.9875 7.07334 17.5126 6.78045 17.2197C6.48755 16.9268 6.01268 16.9268 5.71979 17.2197L5.21979 17.7197C4.9269 18.0126 4.9269 18.4875 5.21979 18.7804C5.51269 19.0733 5.98756 19.0733 6.28045 18.7804L6.78045 18.2804Z" fill="white" fill-opacity="0.96"/>
<path d="M12.7501 19.1318C12.7501 18.7176 12.4143 18.3818 12.0001 18.3818C11.5859 18.3818 11.2501 18.7176 11.2501 19.1318L11.2501 20.2532C11.2501 20.6674 11.5859 21.0032 12.0001 21.0032C12.4143 21.0032 12.7501 20.6674 12.7501 20.2532L12.7501 19.1318Z" fill="white" fill-opacity="0.96"/>
<path d="M21.0032 12.0001C21.0032 12.4143 20.6674 12.7501 20.2532 12.7501H19.1319C18.7176 12.7501 18.3819 12.4143 18.3819 12.0001C18.3819 11.5859 18.7176 11.2501 19.1319 11.2501H20.2532C20.6674 11.2501 21.0032 11.5859 21.0032 12.0001Z" fill="white" fill-opacity="0.96"/>
<path d="M4.86839 12.7501C5.28261 12.7501 5.61839 12.4143 5.61839 12.0001C5.61839 11.5859 5.2826 11.2501 4.86839 11.2501L3.74707 11.2501C3.33285 11.2501 2.99707 11.5859 2.99707 12.0001C2.99707 12.4143 3.33286 12.7501 3.74707 12.7501L4.86839 12.7501Z" fill="white" fill-opacity="0.96"/>
</svg>
