<svg width="24" height="24" viewBox="0 0 24 24" fill="none" xmlns="http://www.w3.org/2000/svg">
<path fill-rule="evenodd" clip-rule="evenodd" d="M12 22C6.47 22 2 17.52 2 12C2 6.47 6.47 2 12 2C17.52 2 22 6.47 22 12C22 17.52 17.52 22 12 22ZM10.75 5C10.33 5 10 5.33 10 5.75C10 6.16 10.33 6.5 10.75 6.5C11.16 6.5 11.5 6.16 11.5 5.75C11.5 5.33 11.16 5 10.75 5ZM14.75 6C14.33 6 14 6.33 14 6.75C14 7.16 14.33 7.5 14.75 7.5C15.16 7.5 15.5 7.16 15.5 6.75C15.5 6.33 15.16 6 14.75 6ZM9.25 8C8.56 8 8 8.55 8 9.25C8 9.94 8.56 10.5 9.25 10.5C9.93 10.5 10.5 9.94 10.5 9.25C10.5 8.55 9.93 8 9.25 8ZM5.75 9C5.33 9 5 9.33 5 9.75C5 10.16 5.33 10.5 5.75 10.5C6.16 10.5 6.5 10.16 6.5 9.75C6.5 9.33 6.16 9 5.75 9ZM15.25 9C14.56 9 14 9.55 14 10.25C14 10.94 14.56 11.5 15.25 11.5C15.93 11.5 16.5 10.94 16.5 10.25C16.5 9.55 15.93 9 15.25 9ZM12.25 11C11.56 11 11 11.55 11 12.25C11 12.94 11.56 13.5 12.25 13.5C12.93 13.5 13.5 12.94 13.5 12.25C13.5 11.55 12.93 11 12.25 11ZM17.75 13C17.33 13 17 13.33 17 13.75C17 14.16 17.33 14.5 17.75 14.5C18.16 14.5 18.5 14.16 18.5 13.75C18.5 13.33 18.16 13 17.75 13ZM8 14C7.44 14 7 14.44 7 15C7 15.55 7.44 16 8 16C8.55 16 9 15.55 9 15C9 14.44 8.55 14 8 14ZM14.25 15C13.56 15 13 15.55 13 16.25C13 16.94 13.56 17.5 14.25 17.5C14.93 17.5 15.5 16.94 15.5 16.25C15.5 15.55 14.93 15 14.25 15ZM11.75 17C11.33 17 11 17.33 11 17.75C11 18.16 11.33 18.5 11.75 18.5C12.16 18.5 12.5 18.16 12.5 17.75C12.5 17.33 12.16 17 11.75 17Z" fill="white"/>
</svg>
