<svg width="24" height="24" viewBox="0 0 24 24" fill="none" xmlns="http://www.w3.org/2000/svg">
<path d="M11.75 17.667C12.1642 17.667 12.5 18.0028 12.5 18.417C12.4998 18.831 12.1641 19.167 11.75 19.167C11.3359 19.167 11.0002 18.831 11 18.417C11 18.0028 11.3358 17.667 11.75 17.667Z" fill="white"/>
<path d="M15 15.333C15.5522 15.333 15.9998 15.7809 16 16.333C16 16.8853 15.5523 17.333 15 17.333C14.4477 17.333 14 16.8853 14 16.333C14.0002 15.7809 14.4478 15.333 15 15.333Z" fill="white"/>
<path d="M8 14C8.55228 14 9 14.4477 9 15C9 15.5523 8.55228 16 8 16C7.44772 16 7 15.5523 7 15C7 14.4477 7.44772 14 8 14Z" fill="white"/>
<path d="M17.75 13C18.1642 13 18.5 13.3358 18.5 13.75C18.5 14.1642 18.1642 14.5 17.75 14.5C17.3358 14.5 17 14.1642 17 13.75C17 13.3358 17.3358 13 17.75 13Z" fill="white"/>
<path d="M12.667 11.333C13.4032 11.3332 14 11.9307 14 12.667C13.9998 13.4031 13.4031 13.9998 12.667 14C11.9307 14 11.3332 13.4032 11.333 12.667C11.333 11.9306 11.9306 11.333 12.667 11.333Z" fill="white"/>
<path d="M16.417 9C17.0151 9.00015 17.4998 9.48494 17.5 10.083C17.5 10.6812 17.0152 11.1668 16.417 11.167C15.8187 11.167 15.333 10.6813 15.333 10.083C15.3332 9.48485 15.8188 9 16.417 9Z" fill="white"/>
<path d="M9.75 8.66699C10.3483 8.66701 10.833 9.1517 10.833 9.75C10.833 10.3483 10.3483 10.833 9.75 10.833C9.1517 10.833 8.66701 10.3483 8.66699 9.75C8.66699 9.15169 9.15169 8.66699 9.75 8.66699Z" fill="white"/>
<path d="M5.75 9C6.16421 9 6.5 9.33579 6.5 9.75C6.5 10.1642 6.16421 10.5 5.75 10.5C5.33579 10.5 5 10.1642 5 9.75C5 9.33579 5.33579 9 5.75 9Z" fill="white"/>
<path d="M14.75 6C15.1642 6 15.5 6.33579 15.5 6.75C15.5 7.16421 15.1642 7.5 14.75 7.5C14.3358 7.5 14 7.16421 14 6.75C14 6.33579 14.3358 6 14.75 6Z" fill="white"/>
<path d="M10.75 5.33301C11.1641 5.33301 11.4998 5.66896 11.5 6.08301C11.5 6.49722 11.1642 6.83301 10.75 6.83301C10.3358 6.83301 10 6.49722 10 6.08301C10.0002 5.66896 10.3359 5.33301 10.75 5.33301Z" fill="white"/>
<path fill-rule="evenodd" clip-rule="evenodd" d="M12 2C17.5228 2 22 6.47715 22 12C22 17.5228 17.5228 22 12 22C6.47715 22 2 17.5228 2 12C2 6.47715 6.47715 2 12 2ZM12 3.5C7.30558 3.5 3.5 7.30558 3.5 12C3.5 16.6944 7.30558 20.5 12 20.5C16.6944 20.5 20.5 16.6944 20.5 12C20.5 7.30558 16.6944 3.5 12 3.5Z" fill="white"/>
</svg>
