<svg width="24" height="24" viewBox="0 0 24 24" fill="none" xmlns="http://www.w3.org/2000/svg">
<path fill-rule="evenodd" clip-rule="evenodd" d="M5.75 2C6.16421 2 6.5 2.33579 6.5 2.75V5H16L16.1543 5.00391C17.7394 5.08421 19 6.39489 19 8V17.5H21.25C21.6642 17.5001 22 17.8358 22 18.25C22 18.6642 21.6642 18.9999 21.25 19H19V21.25L18.9961 21.3271C18.9575 21.7051 18.6382 22 18.25 22C17.8618 22 17.5425 21.7051 17.5039 21.3271L17.5 21.25V19H8C6.39489 19 5.08421 17.7394 5.00391 16.1543L5 16V6.5H2.75C2.33579 6.5 2 6.16421 2 5.75C2 5.33579 2.33579 5 2.75 5H5V2.75C5 2.33579 5.33579 2 5.75 2ZM6.5 16C6.5 16.8284 7.17157 17.5 8 17.5H17.5V8C17.5 7.17157 16.8284 6.5 16 6.5H6.5V16Z" fill="white"/>
</svg>
