<svg width="24" height="24" viewBox="0 0 24 24" fill="none" xmlns="http://www.w3.org/2000/svg">
<path d="M9.5 2C9.91421 2 10.25 2.33579 10.25 2.75C10.25 3.16421 9.91421 3.5 9.5 3.5C8.81834 3.5 8.28412 3.62796 7.92188 3.93457C7.58393 4.22066 7.25001 4.78902 7.25 6.01465V9.2793C7.25 10.4608 6.98068 11.3883 6.32812 12C6.98068 12.6116 7.25 13.5392 7.25 14.7207V17.9854C7.25001 19.211 7.58393 19.7793 7.92188 20.0654C8.28412 20.372 8.81835 20.5 9.5 20.5C9.91421 20.5 10.25 20.8358 10.25 21.25C10.25 21.6642 9.91421 22 9.5 22C8.68166 22 7.71587 21.8556 6.95312 21.21C6.16618 20.5438 5.75001 19.4801 5.75 17.9854V14.7207C5.75 13.7284 5.52009 13.2974 5.30078 13.0928C5.07249 12.8798 4.68535 12.75 4 12.75C3.58579 12.75 3.25 12.4142 3.25 12C3.25 11.5858 3.58579 11.25 4 11.25C4.68535 11.25 5.0725 11.1202 5.30078 10.9072C5.52009 10.7026 5.75 10.2716 5.75 9.2793V6.01465C5.75001 4.51992 6.16618 3.45617 6.95312 2.79004C7.71587 2.14445 8.68166 2 9.5 2Z" fill="white"/>
<path d="M14.5 2C15.3183 2 16.2841 2.14445 17.0469 2.79004C17.8338 3.45617 18.25 4.51992 18.25 6.01465V9.2793C18.25 10.2716 18.4799 10.7026 18.6992 10.9072C18.9275 11.1202 19.3147 11.25 20 11.25C20.4142 11.25 20.75 11.5858 20.75 12C20.75 12.4142 20.4142 12.75 20 12.75C19.3147 12.75 18.9275 12.8798 18.6992 13.0928C18.4799 13.2974 18.25 13.7284 18.25 14.7207V17.9854C18.25 19.4801 17.8338 20.5438 17.0469 21.21C16.2841 21.8556 15.3183 22 14.5 22C14.0858 22 13.75 21.6642 13.75 21.25C13.75 20.8358 14.0858 20.5 14.5 20.5C15.1817 20.5 15.7159 20.372 16.0781 20.0654C16.4161 19.7793 16.75 19.211 16.75 17.9854V14.7207C16.75 13.5392 17.0193 12.6117 17.6719 12C17.0193 11.3883 16.75 10.4608 16.75 9.2793V6.01465C16.75 4.78902 16.4161 4.22066 16.0781 3.93457C15.7159 3.62796 15.1817 3.5 14.5 3.5C14.0858 3.5 13.75 3.16421 13.75 2.75C13.75 2.33579 14.0858 2 14.5 2Z" fill="white"/>
</svg>
