<svg width="24" height="24" viewBox="0 0 24 24" fill="none" xmlns="http://www.w3.org/2000/svg">
<path fill-rule="evenodd" clip-rule="evenodd" d="M7.25 7.75C7.25 7.33579 7.58579 7 8 7H9.375C10.9628 7 12.25 8.28718 12.25 9.875C12.25 10.5136 12.0418 11.1035 11.6896 11.5807C12.5925 12.0571 13.2117 13.0002 13.2246 14.0911C13.2435 15.6921 11.9509 17 10.3498 17H8C7.58579 17 7.25 16.6642 7.25 16.25V7.75ZM8.75 12.75V15.5H10.3498C11.1155 15.5 11.7337 14.8745 11.7247 14.1088C11.7158 13.3558 11.1029 12.75 10.3498 12.75H8.75ZM8.75 11.25H9.375C10.1344 11.25 10.75 10.6344 10.75 9.875C10.75 9.11561 10.1344 8.5 9.375 8.5H8.75V11.25Z" fill="white"/>
<path d="M17 12.5C16.0335 12.5 15.25 13.2835 15.25 14.25V16.25C15.25 16.6642 14.9142 17 14.5 17C14.0858 17 13.75 16.6642 13.75 16.25V11.5C13.75 11.0858 14.0858 10.75 14.5 10.75C14.9142 10.75 15.25 11.0858 15.25 11.5V11.5109C15.7551 11.1875 16.3557 11 17 11C17.4142 11 17.75 11.3358 17.75 11.75C17.75 12.1642 17.4142 12.5 17 12.5Z" fill="white"/>
</svg>
