<svg width="24" height="24" viewBox="0 0 24 24" fill="none" xmlns="http://www.w3.org/2000/svg">
<path fill-rule="evenodd" clip-rule="evenodd" d="M10 7.75C10 7.33579 10.3358 7 10.75 7H13C14.6569 7 16 8.34315 16 10C16 11.6569 14.6569 13 13 13H11.5V14H13.25C13.6642 14 14 14.3358 14 14.75C14 15.1642 13.6642 15.5 13.25 15.5H11.5V16.25C11.5 16.6642 11.1642 17 10.75 17C10.3358 17 10 16.6642 10 16.25V15.5H9.25C8.83579 15.5 8.5 15.1642 8.5 14.75C8.5 14.3358 8.83579 14 9.25 14H10V13H9.25C8.83579 13 8.5 12.6642 8.5 12.25C8.5 11.8358 8.83579 11.5 9.25 11.5H10V7.75ZM11.5 11.5H13C13.8284 11.5 14.5 10.8284 14.5 10C14.5 9.17157 13.8284 8.5 13 8.5H11.5V11.5Z" fill="white"/>
</svg>
