<svg width="24" height="24" viewBox="0 0 24 24" fill="none" xmlns="http://www.w3.org/2000/svg">
<path d="M9.5 11C10.3284 11 11 11.6716 11 12.5V20.5C11 21.3284 10.3284 22 9.5 22H3.5C2.67157 22 2 21.3284 2 20.5V12.5C2 11.6716 2.67157 11 3.5 11H9.5Z" fill="white"/>
<path d="M20.5 15C21.3284 15 22 15.6716 22 16.5V20.5C22 21.3284 21.3284 22 20.5 22H14.5C13.6716 22 13 21.3284 13 20.5V16.5C13 15.6716 13.6716 15 14.5 15H20.5Z" fill="white"/>
<path d="M20.5 2C21.3284 2 22 2.67157 22 3.5V11.5C22 12.3284 21.3284 13 20.5 13H14.5C13.6716 13 13 12.3284 13 11.5V3.5C13 2.67157 13.6716 2 14.5 2H20.5Z" fill="white"/>
<path d="M9.5 2C10.3284 2 11 2.67157 11 3.5V7.5C11 8.32843 10.3284 9 9.5 9H3.5C2.67157 9 2 8.32843 2 7.5V3.5C2 2.67157 2.67157 2 3.5 2H9.5Z" fill="white"/>
</svg>
