<svg width="24" height="24" viewBox="0 0 24 24" fill="none" xmlns="http://www.w3.org/2000/svg">
<path fill-rule="evenodd" clip-rule="evenodd" d="M9.65332 11.0078C10.4097 11.0846 11 11.7233 11 12.5V20.5C11 21.2767 10.4097 21.9154 9.65332 21.9922L9.5 22H3.5C2.72334 22 2.08461 21.4097 2.00781 20.6533L2 20.5V12.5C2 11.6716 2.67157 11 3.5 11H9.5L9.65332 11.0078ZM3.5 20.5H9.5V12.5H3.5V20.5Z" fill="white"/>
<path fill-rule="evenodd" clip-rule="evenodd" d="M20.6533 15.0078C21.4097 15.0846 22 15.7233 22 16.5V20.5L21.9922 20.6533C21.9205 21.3593 21.3593 21.9205 20.6533 21.9922L20.5 22H14.5C13.7233 22 13.0846 21.4097 13.0078 20.6533L13 20.5V16.5C13 15.6716 13.6716 15 14.5 15H20.5L20.6533 15.0078ZM14.5 20.5H20.5V16.5H14.5V20.5Z" fill="white"/>
<path fill-rule="evenodd" clip-rule="evenodd" d="M20.6533 2.00781C21.4097 2.08461 22 2.72334 22 3.5V11.5C22 12.2767 21.4097 12.9154 20.6533 12.9922L20.5 13H14.5C13.7233 13 13.0846 12.4097 13.0078 11.6533L13 11.5V3.5C13 2.67157 13.6716 2 14.5 2H20.5L20.6533 2.00781ZM14.5 11.5H20.5V3.5H14.5V11.5Z" fill="white"/>
<path fill-rule="evenodd" clip-rule="evenodd" d="M9.65332 2.00781C10.4097 2.08461 11 2.72334 11 3.5V7.5L10.9922 7.65332C10.9205 8.35931 10.3593 8.92051 9.65332 8.99219L9.5 9H3.5C2.72334 9 2.08461 8.40972 2.00781 7.65332L2 7.5V3.5C2 2.67157 2.67157 2 3.5 2H9.5L9.65332 2.00781ZM3.5 7.5H9.5V3.5H3.5V7.5Z" fill="white"/>
</svg>
