<svg width="24" height="24" viewBox="0 0 24 24" fill="none" xmlns="http://www.w3.org/2000/svg">
<path fill-rule="evenodd" clip-rule="evenodd" d="M22 12C22 17.5228 17.5228 22 12 22C6.47715 22 2 17.5228 2 12C2 6.47715 6.47715 2 12 2C17.5228 2 22 6.47715 22 12ZM13.1905 7.25C13.6047 7.25 13.9405 7.58579 13.9405 8V11.0901H16.25V8C16.25 7.58579 16.5858 7.25 17 7.25C17.4142 7.25 17.75 7.58579 17.75 8V16C17.75 16.4142 17.4142 16.75 17 16.75C16.5858 16.75 16.25 16.4142 16.25 16V12.5901H13.9405V16C13.9405 16.4142 13.6047 16.75 13.1905 16.75C12.7763 16.75 12.4405 16.4142 12.4405 16V8C12.4405 7.58579 12.7763 7.25 13.1905 7.25ZM7 7.25C6.58579 7.25 6.25 7.58579 6.25 8V16C6.25 16.4142 6.58579 16.75 7 16.75H8.28571C10.3568 16.75 12.0357 15.0711 12.0357 13V11C12.0357 8.92893 10.3568 7.25 8.28571 7.25H7ZM8.28571 15.25H7.75V8.75H8.28571C9.52835 8.75 10.5357 9.75736 10.5357 11V13C10.5357 14.2426 9.52836 15.25 8.28571 15.25Z" fill="white"/>
</svg>
