<svg width="24" height="24" viewBox="0 0 24 24" fill="none" xmlns="http://www.w3.org/2000/svg">
<path d="M8.91839 2C8.21017 1.99999 7.63323 1.99999 7.16483 2.03826C6.68073 2.07781 6.24689 2.16195 5.84278 2.36785C5.20774 2.69143 4.69143 3.20774 4.36785 3.84278C4.16195 4.24689 4.07781 4.68073 4.03826 5.16483C3.99999 5.63323 3.99999 6.21015 4 6.91836V17.082C3.99999 17.7902 3.99999 18.3672 4.03826 18.8356C4.07781 19.3197 4.16195 19.7535 4.36785 20.1576C4.69143 20.7927 5.20774 21.309 5.84278 21.6325C6.24689 21.8384 6.68073 21.9226 7.16483 21.9621C7.63321 22.0004 8.21011 22.0004 8.91829 22.0004H12.6132C12.0595 21.5719 11.5711 21.0664 11.1648 20.5004H8.95C8.20256 20.5004 7.68708 20.4998 7.28698 20.4671C6.89564 20.4352 6.68118 20.3762 6.52377 20.296C6.17096 20.1163 5.88413 19.8294 5.70436 19.4766C5.62416 19.3192 5.56525 19.1048 5.53327 18.7134C5.50058 18.3133 5.5 17.7978 5.5 17.0504V6.95001C5.5 6.20256 5.50058 5.68708 5.53327 5.28698C5.56525 4.89564 5.62416 4.68118 5.70436 4.52377C5.88413 4.17096 6.17096 3.88413 6.52377 3.70436C6.68118 3.62416 6.89564 3.56525 7.28698 3.53327C7.68708 3.50058 8.20256 3.5 8.95 3.5H15.1119C15.8593 3.5 16.3748 3.50058 16.7749 3.53327C17.1662 3.56525 17.3807 3.62416 17.5381 3.70436C17.8909 3.88413 18.1777 4.17096 18.3575 4.52377C18.4377 4.68118 18.4966 4.89564 18.5286 5.28698C18.5613 5.68708 18.5619 6.20256 18.5619 6.95V9.43729C19.0842 9.53897 19.5863 9.69524 20.0619 9.89976V6.91837C20.0619 6.21015 20.0619 5.63323 20.0236 5.16483C19.9841 4.68073 19.8999 4.24689 19.694 3.84278C19.3704 3.20774 18.8541 2.69143 18.2191 2.36785C17.815 2.16195 17.3811 2.07781 16.897 2.03826C16.4286 1.99999 15.8517 1.99999 15.1435 2H8.91839Z" fill="white"/>
<path d="M8.01315 5.99921C7.59893 5.99921 7.26315 6.33499 7.26315 6.74921C7.26315 7.16342 7.59893 7.49921 8.01315 7.49921H16.0473C16.4615 7.49921 16.7973 7.16342 16.7973 6.74921C16.7973 6.33499 16.4615 5.99921 16.0473 5.99921H8.01315Z" fill="white"/>
<path d="M8.01315 9.24626C7.59893 9.24626 7.26315 9.58205 7.26315 9.99626C7.26315 10.4105 7.59893 10.7463 8.01315 10.7463H12.0302C12.4444 10.7463 12.7802 10.4105 12.7802 9.99626C12.7802 9.58205 12.4444 9.24626 12.0302 9.24626H8.01315Z" fill="white"/>
<path d="M16.3929 12.7625C17.497 11.6726 18.952 11.9159 19.9187 12.8461C20.3973 13.3067 20.698 13.8941 20.7445 14.4812C20.7892 15.0464 20.6053 15.6783 19.9893 16.2864L16.1419 20.0851C15.5097 20.7091 14.674 20.5922 14.0859 20.0262C13.7964 19.7477 13.6249 19.4019 13.5987 19.0714C13.5742 18.7628 13.6698 18.4026 14.0402 18.0369L17.8324 14.2931C17.8828 14.2434 17.9296 14.2132 17.9728 14.1958C18.0221 14.1758 18.0667 14.1724 18.1069 14.1753C18.2013 14.1822 18.3185 14.2311 18.4185 14.3273C18.5186 14.4236 18.5612 14.528 18.567 14.6019C18.5711 14.6537 18.564 14.7419 18.4401 14.8647L18.4393 14.8655L15.2911 17.9519C14.9954 18.2419 14.9907 18.7168 15.2807 19.0125C15.5706 19.3083 16.0455 19.313 16.3413 19.023L19.4914 15.9346L19.4934 15.9327C19.9143 15.5169 20.1034 15.0016 20.0623 14.4833C20.023 13.987 19.7788 13.5546 19.4585 13.2464C19.4422 13.2307 19.4255 13.2152 19.4085 13.2C18.7674 12.6246 17.6444 12.3712 16.7786 13.2256L12.9863 16.9695C12.3197 17.6277 12.042 18.4148 12.1034 19.1898C12.163 19.9428 12.5362 20.6167 13.0458 21.1071C14.0557 22.0788 15.8349 22.4958 17.1957 21.1525L21.0432 17.3538C21.9554 16.4532 22.3215 15.3944 22.2398 14.3628C22.1598 13.3531 21.6575 12.4377 20.9587 11.7652C19.5704 10.4294 17.1719 9.88612 15.3391 11.695L12.2347 14.756C11.9398 15.0468 11.9364 15.5217 12.2272 15.8166C12.5181 16.1115 12.9929 16.1149 13.2879 15.8241L16.3929 12.7625Z" fill="white"/>
</svg>
