<svg width="24" height="24" viewBox="0 0 24 24" fill="none" xmlns="http://www.w3.org/2000/svg">
<path fill-rule="evenodd" clip-rule="evenodd" d="M17.5 12C20.5376 12 23 14.4624 23 17.5C23 20.5376 20.5376 23 17.5 23C14.4624 23 12 20.5376 12 17.5C12 14.4624 14.4624 12 17.5 12ZM20.5 19C20.2239 19 20 19.2239 20 19.5C20 20.0523 19.5523 20.5 19 20.5H16C15.4477 20.5 15 20.0523 15 19.5C15 19.2239 14.7761 19 14.5 19C14.2239 19 14 19.2239 14 19.5C14 20.6046 14.8954 21.5 16 21.5H19C20.1046 21.5 21 20.6046 21 19.5C21 19.2239 20.7761 19 20.5 19ZM17.5 13C17.2239 13 17 13.2239 17 13.5V17.793L15.8535 16.6465L15.7754 16.582C15.5813 16.4539 15.3173 16.4756 15.1465 16.6465C14.9756 16.8173 14.9539 17.0813 15.082 17.2754L15.1465 17.3535L17.1465 19.3535C17.3417 19.5488 17.6583 19.5488 17.8535 19.3535L19.8535 17.3535L19.918 17.2754C20.0461 17.0813 20.0244 16.8173 19.8535 16.6465C19.6827 16.4756 19.4187 16.4539 19.2246 16.582L19.1465 16.6465L18 17.793V13.5C18 13.2239 17.7761 13 17.5 13Z" fill="white"/>
<path fill-rule="evenodd" clip-rule="evenodd" d="M14.7998 2C16.62 2 17.5304 2.00026 18.2256 2.35449C18.837 2.66605 19.3339 3.16305 19.6455 3.77441C19.9997 4.46963 20 5.38002 20 7.2002V11.498C19.2304 11.1771 18.3859 11 17.5 11C13.9101 11 11 13.9101 11 17.5C11 19.247 11.6902 20.832 12.8115 22H9.2002C7.38002 22 6.46963 21.9997 5.77441 21.6455C5.16305 21.3339 4.66605 20.837 4.35449 20.2256C4.00026 19.5304 4 18.62 4 16.7998V7.2002C4 5.38002 4.00026 4.46963 4.35449 3.77441C4.66605 3.16305 5.16305 2.66605 5.77441 2.35449C6.46963 2.00026 7.38002 2 9.2002 2H14.7998ZM8 9.25C7.58579 9.25 7.25 9.58579 7.25 10C7.25 10.4142 7.58579 10.75 8 10.75H12C12.4142 10.75 12.75 10.4142 12.75 10C12.75 9.58579 12.4142 9.25 12 9.25H8ZM8 6C7.58579 6 7.25 6.33579 7.25 6.75C7.25 7.16421 7.58579 7.5 8 7.5H16C16.4142 7.5 16.75 7.16421 16.75 6.75C16.75 6.33579 16.4142 6 16 6H8Z" fill="white"/>
</svg>
