<svg width="24" height="24" viewBox="0 0 24 24" fill="none" xmlns="http://www.w3.org/2000/svg">
<path fill-rule="evenodd" clip-rule="evenodd" d="M14.25 1.25C14.8812 1.25 15.443 1.54326 15.8096 2H16C17.4 2 18.1 2.00007 18.6348 2.27246C19.1052 2.51214 19.4879 2.89483 19.7275 3.36523C19.9999 3.89999 20 4.60002 20 6V18C20 19.4 19.9999 20.1 19.7275 20.6348C19.4879 21.1052 19.1052 21.4879 18.6348 21.7275C18.1 21.9999 17.4 22 16 22H8C6.60002 22 5.89999 21.9999 5.36523 21.7275C4.89483 21.4879 4.51214 21.1052 4.27246 20.6348C4.00007 20.1 4 19.4 4 18V6C4 4.60002 4.00007 3.89999 4.27246 3.36523C4.51214 2.89483 4.89483 2.51214 5.36523 2.27246C5.89999 2.00007 6.60002 2 8 2H8.69043C9.05698 1.54326 9.6188 1.25 10.25 1.25H14.25ZM8 9.25C7.58579 9.25 7.25 9.58579 7.25 10C7.25 10.4142 7.58579 10.75 8 10.75H12C12.4142 10.75 12.75 10.4142 12.75 10C12.75 9.58579 12.4142 9.25 12 9.25H8ZM8 6C7.58579 6 7.25 6.33579 7.25 6.75C7.25 7.16421 7.58579 7.5 8 7.5H16C16.4142 7.5 16.75 7.16421 16.75 6.75C16.75 6.33579 16.4142 6 16 6H8ZM10.25 2.75C9.97386 2.75 9.75 2.97386 9.75 3.25C9.75 3.52614 9.97386 3.75 10.25 3.75H14.25C14.5261 3.75 14.75 3.52614 14.75 3.25C14.75 2.97386 14.5261 2.75 14.25 2.75H10.25Z" fill="white"/>
</svg>
