<svg width="24" height="24" viewBox="0 0 24 24" fill="none" xmlns="http://www.w3.org/2000/svg">
<path fill-rule="evenodd" clip-rule="evenodd" d="M16 2H15.8113C15.4448 1.54277 14.8816 1.25 14.25 1.25H10.25C9.6184 1.25 9.05519 1.54277 8.68866 2H8C6.59987 2 5.8998 2 5.36502 2.27248C4.89462 2.51217 4.51217 2.89462 4.27248 3.36502C4 3.8998 4 4.59987 4 6V18C4 19.4001 4 20.1002 4.27248 20.635C4.51217 21.1054 4.89462 21.4878 5.36502 21.7275C5.8998 22 6.59987 22 8 22H12.8096C11.6888 20.8321 11 19.2465 11 17.5C11 13.9101 13.9101 11 17.5 11C18.3859 11 19.2304 11.1772 20 11.4982V6C20 4.59987 20 3.8998 19.7275 3.36502C19.4878 2.89462 19.1054 2.51217 18.635 2.27248C18.1002 2 17.4001 2 16 2ZM7.25 6.75C7.25 6.33579 7.58579 6 8 6H16C16.4142 6 16.75 6.33579 16.75 6.75C16.75 7.16421 16.4142 7.5 16 7.5H8C7.58579 7.5 7.25 7.16421 7.25 6.75ZM7.25 10C7.25 9.58579 7.58579 9.25 8 9.25H12C12.4142 9.25 12.75 9.58579 12.75 10C12.75 10.4142 12.4142 10.75 12 10.75H8C7.58579 10.75 7.25 10.4142 7.25 10ZM10.25 2.75C9.97386 2.75 9.75 2.97386 9.75 3.25C9.75 3.52614 9.97386 3.75 10.25 3.75H14.25C14.5261 3.75 14.75 3.52614 14.75 3.25C14.75 2.97386 14.5261 2.75 14.25 2.75H10.25Z" fill="white"/>
<path fill-rule="evenodd" clip-rule="evenodd" d="M17.5 23C20.5376 23 23 20.5376 23 17.5C23 14.4624 20.5376 12 17.5 12C14.4624 12 12 14.4624 12 17.5C12 20.5376 14.4624 23 17.5 23ZM20.8536 16.3536C21.0488 16.1583 21.0488 15.8417 20.8536 15.6464C20.6583 15.4512 20.3417 15.4512 20.1464 15.6464L16.5 19.2929L14.8536 17.6464C14.6583 17.4512 14.3417 17.4512 14.1464 17.6464C13.9512 17.8417 13.9512 18.1583 14.1464 18.3536L16.1464 20.3536C16.3417 20.5488 16.6583 20.5488 16.8536 20.3536L20.8536 16.3536Z" fill="white"/>
</svg>
