<svg width="24" height="24" viewBox="0 0 24 24" fill="none" xmlns="http://www.w3.org/2000/svg">
<path d="M12 9.25C12.4142 9.25 12.75 9.58579 12.75 10C12.75 10.4142 12.4142 10.75 12 10.75H8C7.58579 10.75 7.25 10.4142 7.25 10C7.25 9.58579 7.58579 9.25 8 9.25H12Z" fill="white"/>
<path d="M16 6C16.4142 6 16.75 6.33579 16.75 6.75C16.75 7.16421 16.4142 7.5 16 7.5H8C7.58579 7.5 7.25 7.16421 7.25 6.75C7.25 6.33579 7.58579 6 8 6H16Z" fill="white"/>
<path fill-rule="evenodd" clip-rule="evenodd" d="M14 1.25C14.6316 1.25 15.194 1.54369 15.5605 2.00098C16.1089 2.00151 16.569 2.00475 16.9531 2.03613C17.4164 2.07398 17.8349 2.15541 18.2256 2.35449C18.837 2.66605 19.3339 3.16305 19.6455 3.77441C19.8446 4.16515 19.926 4.58363 19.9639 5.04688C20.001 5.50138 20 6.06231 20 6.75V17.25C20 17.9377 20.001 18.4986 19.9639 18.9531C19.926 19.4164 19.8446 19.8349 19.6455 20.2256C19.334 20.837 18.837 21.3339 18.2256 21.6455C17.8349 21.8446 17.4164 21.926 16.9531 21.9639C16.4986 22.001 15.9377 22 15.25 22H8.75C8.06232 22 7.50138 22.001 7.04688 21.9639C6.58363 21.926 6.16515 21.8446 5.77442 21.6455C5.16305 21.3339 4.66605 20.837 4.35449 20.2256C4.15541 19.8349 4.07399 19.4164 4.03614 18.9531C3.999 18.4986 4 17.9377 4 17.25V6.75C4 6.06231 3.999 5.50138 4.03614 5.04688C4.07399 4.58363 4.15541 4.16515 4.35449 3.77441C4.66606 3.16305 5.16305 2.66605 5.77442 2.35449C6.16515 2.1554 6.58363 2.07398 7.04688 2.03613C7.43074 2.00477 7.89053 2.00151 8.43848 2.00098C8.805 1.54342 9.36814 1.25 10 1.25H14ZM15.9814 3.50293C15.8571 4.48801 15.0188 5.25 14 5.25H10C8.98112 5.25 8.14192 4.48807 8.01758 3.50293C7.67585 3.50585 7.40166 3.51224 7.16895 3.53125C6.79852 3.56152 6.5991 3.61705 6.45508 3.69043C6.12598 3.85818 5.85818 4.12597 5.69043 4.45508C5.61705 4.5991 5.56153 4.79852 5.53125 5.16895C5.50027 5.5482 5.5 6.03756 5.5 6.75V17.25C5.5 17.9624 5.50027 18.4518 5.53125 18.8311C5.56152 19.2015 5.61705 19.4009 5.69043 19.5449C5.85818 19.874 6.12598 20.1418 6.45508 20.3096C6.5991 20.383 6.79852 20.4385 7.16895 20.4688C7.5482 20.4997 8.03757 20.5 8.75 20.5H15.25C15.9624 20.5 16.4518 20.4997 16.8311 20.4688C17.2015 20.4385 17.4009 20.383 17.5449 20.3096C17.874 20.1418 18.1418 19.874 18.3096 19.5449C18.383 19.4009 18.4385 19.2015 18.4688 18.8311C18.4997 18.4518 18.5 17.9624 18.5 17.25V6.75C18.5 6.03756 18.4997 5.5482 18.4688 5.16895C18.4385 4.79852 18.383 4.5991 18.3096 4.45508C18.1418 4.12598 17.874 3.85818 17.5449 3.69043C17.4009 3.61705 17.2015 3.56152 16.8311 3.53125C16.5981 3.51222 16.3236 3.50584 15.9814 3.50293ZM10 2.75C9.72392 2.75 9.5001 2.97394 9.5 3.25C9.5 3.52614 9.72386 3.75 10 3.75H14C14.2761 3.75 14.5 3.52614 14.5 3.25C14.4999 2.97394 14.2761 2.75 14 2.75H10Z" fill="white"/>
</svg>
