<svg width="24" height="24" viewBox="0 0 24 24" fill="none" xmlns="http://www.w3.org/2000/svg">
<path fill-rule="evenodd" clip-rule="evenodd" d="M8.71858 2C8.04522 1.99999 7.49449 1.99999 7.04693 2.03655C6.58367 2.0744 6.16527 2.15514 5.77453 2.35423C5.16301 2.66582 4.66582 3.16301 4.35423 3.77453C4.15514 4.16527 4.0744 4.58367 4.03655 5.04693C3.99999 5.49449 3.99999 6.04519 4 6.71856V17.2814C3.99999 17.9548 3.99999 18.5055 4.03655 18.9531C4.0744 19.4163 4.15514 19.8347 4.35423 20.2255C4.66582 20.837 5.16301 21.3342 5.77453 21.6458C6.16527 21.8449 6.58367 21.9256 7.04693 21.9634C7.49449 22 8.04519 22 8.71856 22H12.8096C12.3832 21.5557 12.0194 21.051 11.7322 20.5H8.75C8.03756 20.5 7.54834 20.4994 7.16908 20.4684C6.79858 20.4382 6.59956 20.3827 6.45552 20.3093C6.12623 20.1415 5.85852 19.8738 5.69074 19.5445C5.61735 19.4004 5.56184 19.2014 5.53157 18.8309C5.50058 18.4517 5.5 17.9624 5.5 17.25V6.75C5.5 6.03756 5.50058 5.54834 5.53157 5.16908C5.56184 4.79858 5.61735 4.59956 5.69074 4.45552C5.85852 4.12623 6.12623 3.85852 6.45552 3.69074C6.59956 3.61735 6.79858 3.56184 7.16908 3.53157C7.54833 3.50058 8.03756 3.5 8.75 3.5H15.25C15.9624 3.5 16.4517 3.50058 16.8309 3.53157C17.2014 3.56184 17.4004 3.61735 17.5445 3.69074C17.8738 3.85852 18.1415 4.12623 18.3093 4.45552C18.3827 4.59956 18.4382 4.79858 18.4684 5.16908C18.4994 5.54834 18.5 6.03756 18.5 6.75V11.0764C19.0232 11.1572 19.5258 11.3004 20 11.4982V6.71856C20 6.04519 20 5.49449 19.9635 5.04693C19.9256 4.58367 19.8449 4.16527 19.6458 3.77453C19.3342 3.16301 18.837 2.66582 18.2255 2.35423C17.8347 2.15514 17.4163 2.0744 16.9531 2.03655C16.5055 1.99999 15.9548 1.99999 15.2815 2H8.71858ZM8 6C7.58579 6 7.25 6.33579 7.25 6.75C7.25 7.16421 7.58579 7.5 8 7.5H16C16.4142 7.5 16.75 7.16421 16.75 6.75C16.75 6.33579 16.4142 6 16 6H8ZM8 9.25C7.58579 9.25 7.25 9.58579 7.25 10C7.25 10.4142 7.58579 10.75 8 10.75H12C12.4142 10.75 12.75 10.4142 12.75 10C12.75 9.58579 12.4142 9.25 12 9.25H8ZM23 17.5C23 20.5376 20.5376 23 17.5 23C14.4624 23 12 20.5376 12 17.5C12 14.4624 14.4624 12 17.5 12C20.5376 12 23 14.4624 23 17.5ZM19.6764 15.043C18.9705 14.3699 17.8938 14.1867 17.0789 14.9837L14.8469 17.1648C14.6481 17.3591 14.3316 17.3532 14.14 17.1515C13.9483 16.9499 13.9542 16.6289 14.1531 16.4346L16.3847 14.2539C17.6811 12.9858 19.3744 13.363 20.3614 14.3042C20.8585 14.7783 21.2174 15.4252 21.2746 16.1403C21.333 16.8713 21.0711 17.6194 20.4218 18.2546L17.6561 20.9608C16.6989 21.8972 15.4509 21.61 14.7359 20.9282C14.3748 20.5839 14.1087 20.109 14.0661 19.5767C14.0223 19.0285 14.2207 18.4739 14.6934 18.0115L17.4195 15.3443C18.0209 14.7561 18.7977 14.9272 19.2471 15.3263C19.2593 15.3372 19.2713 15.3482 19.283 15.3594C19.508 15.574 19.6813 15.8768 19.7093 16.2262C19.7385 16.5915 19.6038 16.9525 19.3078 17.2422L19.3064 17.2435L17.0419 19.4437C16.8426 19.6374 16.526 19.6306 16.335 19.4284C16.144 19.2262 16.1507 18.9052 16.3501 18.7114L18.6133 16.5126C18.709 16.4186 18.7158 16.3491 18.7126 16.3082C18.708 16.2514 18.6752 16.1719 18.598 16.0982C18.5212 16.025 18.4276 15.9843 18.3463 15.9785C18.3119 15.976 18.2753 15.9791 18.2368 15.993C18.1977 16.0071 18.1566 16.0323 18.1138 16.0742L15.3877 18.7413C15.1149 19.0082 15.045 19.271 15.0629 19.4948C15.082 19.7344 15.2076 19.986 15.4209 20.1894C15.8547 20.603 16.4863 20.6962 16.9618 20.231L19.7275 17.5248C20.1769 17.0852 20.3103 16.6288 20.2778 16.2223C20.2441 15.7998 20.0257 15.3761 19.6764 15.043Z" fill="white"/>
</svg>
