<svg width="24" height="24" viewBox="0 0 24 24" fill="none" xmlns="http://www.w3.org/2000/svg">
<path d="M12.1465 4.95215C12.218 4.95215 12.2771 5.00963 12.2793 5.08008C12.3751 7.61391 12.6966 9.15369 13.7754 10.2324C14.852 11.3089 16.3905 11.6318 18.9189 11.7275C18.9894 11.7309 19.0468 11.789 19.0469 11.8594L19.0459 12.1543C19.0459 12.2258 18.9884 12.2848 18.918 12.2871C16.3894 12.3829 14.8511 12.7036 13.7734 13.7812C12.6969 14.8578 12.3762 16.3941 12.2793 18.918C12.2758 18.9883 12.2169 19.0459 12.1465 19.0459H11.8506C11.7792 19.0458 11.7211 18.9883 11.7188 18.918C11.6219 16.394 11.3002 14.8578 10.2236 13.7812C9.14711 12.7049 7.60827 12.3829 5.08008 12.2871C5.00963 12.2838 4.95215 12.2247 4.95215 12.1543V11.8594C4.95223 11.7879 5.00968 11.7297 5.08008 11.7275C7.60844 11.6318 9.146 11.3101 10.2236 10.2324C11.3024 9.15369 11.624 7.61283 11.7197 5.08008C11.723 5.00973 11.7813 4.95231 11.8516 4.95215H12.1465Z" fill="white"/>
<path fill-rule="evenodd" clip-rule="evenodd" d="M11.9639 2.75C15.6222 2.75002 17.8441 3.11951 19.3535 4.58594C20.8937 6.15697 21.249 8.28981 21.249 11.9482V12.0518C21.249 15.7112 20.8937 17.8585 19.3535 19.4141C17.843 20.8805 15.71 21.25 12.0361 21.25C8.36362 21.25 6.14164 20.8804 4.64551 19.4141C3.10531 17.8431 2.75 15.7101 2.75 12.0518V11.9482C2.75 8.28981 3.10531 6.14156 4.64551 4.58594C6.15596 3.11953 8.29013 2.75 11.9639 2.75ZM11.9639 4.25C11.0404 4.25 10.2515 4.27538 9.59863 4.32617C8.91719 4.3792 8.32866 4.46364 7.83398 4.5791C7.35831 4.69018 6.9446 4.83573 6.59375 5.01562C6.38908 5.1206 6.19705 5.24208 6.01758 5.37988C5.9036 5.46741 5.76498 5.59158 5.66113 5.69238C5.4125 5.94967 5.20133 6.24384 5.02832 6.57422C4.84252 6.92909 4.69335 7.34586 4.58008 7.82422C4.46316 8.31808 4.37814 8.90636 4.3252 9.58887C4.2751 10.2347 4.25 11.0215 4.25 11.9482V12.0518C4.25 12.9781 4.27512 13.7636 4.3252 14.4082C4.37808 15.089 4.46321 15.6759 4.58008 16.1689C4.69333 16.6465 4.84306 17.0637 5.0293 17.4199C5.08271 17.5221 5.14025 17.622 5.20215 17.7188C5.34957 17.949 5.52123 18.1638 5.7168 18.3633C5.96528 18.6066 6.25616 18.8135 6.58887 18.9844C6.93854 19.1639 7.35164 19.3098 7.82812 19.4209C8.32367 19.5364 8.91358 19.6207 9.59668 19.6738C10.2504 19.7246 11.1127 19.75 12.0361 19.75C12.9594 19.75 13.7477 19.7246 14.4004 19.6738C15.0819 19.6208 15.6704 19.5364 16.165 19.4209C16.6405 19.3099 17.0535 19.1642 17.4043 18.9844C17.6076 18.8801 17.7991 18.7597 17.9775 18.623C18.093 18.5346 18.2348 18.4067 18.3398 18.3047C18.5875 18.048 18.7982 17.7551 18.9707 17.4258C19.1565 17.071 19.3057 16.6541 19.4189 16.1758C19.5359 15.6819 19.6209 15.0937 19.6738 14.4111C19.7239 13.7652 19.749 12.9787 19.749 12.0518V11.9482C19.749 11.022 19.7239 10.2365 19.6738 9.5918C19.6209 8.911 19.5358 8.32404 19.4189 7.83105C19.3057 7.35349 19.156 6.93626 18.9697 6.58008C18.9164 6.47817 18.8586 6.37873 18.7969 6.28223C18.6526 6.05664 18.4854 5.84547 18.2949 5.64941C18.2109 5.56856 18.1231 5.49219 18.0322 5.41992C17.8384 5.26584 17.6291 5.13068 17.4043 5.01562C17.0525 4.83563 16.6374 4.69036 16.1602 4.5791C15.6648 4.46364 15.0766 4.37923 14.3955 4.32617C13.7435 4.27538 12.8836 4.25 11.9639 4.25Z" fill="white"/>
</svg>
