<svg width="24" height="24" viewBox="0 0 24 24" fill="none" xmlns="http://www.w3.org/2000/svg">
<path fill-rule="evenodd" clip-rule="evenodd" d="M12.0371 2.75C15.6955 2.75 17.8441 3.11955 19.3535 4.58594C20.8937 6.15697 21.249 8.2899 21.249 11.9482V12.0518C21.249 15.7112 20.8937 17.8585 19.3535 19.4141C17.843 20.8805 15.71 21.25 12.0361 21.25H11.9629C8.29022 21.25 6.14169 20.8805 4.64551 19.4141C3.10532 17.8431 2.75 15.7101 2.75 12.0518V11.9482C2.75 8.2899 3.10532 6.14156 4.64551 4.58594C6.15599 3.11958 8.2901 2.75 11.9639 2.75H12.0371ZM11.8516 4.95215C11.7813 4.95237 11.723 5.00978 11.7197 5.08008C11.6239 7.61277 11.3024 9.15367 10.2236 10.2324C9.14599 11.3101 7.60844 11.6317 5.08008 11.7275C5.00965 11.7298 4.95223 11.7879 4.95215 11.8594V12.1543C4.95215 12.2247 5.00961 12.2828 5.08008 12.2861C7.6083 12.3819 9.14708 12.7049 10.2236 13.7812C11.3002 14.8578 11.6219 16.394 11.7188 18.918C11.7211 18.9882 11.7792 19.0457 11.8506 19.0459H12.1475C12.2176 19.0456 12.2759 18.9881 12.2793 18.918C12.3762 16.394 12.6978 14.8578 13.7744 13.7812C14.8521 12.7038 16.3897 12.3819 18.918 12.2861C18.9884 12.2839 19.0459 12.2258 19.0459 12.1543L19.0469 11.8594C19.0468 11.789 18.9894 11.7308 18.9189 11.7275C16.3905 11.6317 14.8519 11.3089 13.7754 10.2324C12.6966 9.15367 12.3751 7.61394 12.2793 5.08008C12.2771 5.0098 12.2188 4.9524 12.1475 4.95215H11.8516Z" fill="white"/>
</svg>
