<svg width="24" height="24" viewBox="0 0 24 24" fill="none" xmlns="http://www.w3.org/2000/svg">
<path d="M21.5 15.2504C21.9142 15.2504 22.25 15.5861 22.25 16.0004V18.5004C22.2499 20.5713 20.571 22.2504 18.5 22.2504H5.5C3.42901 22.2504 1.75013 20.5713 1.75 18.5004V16.0004C1.75 15.5861 2.08579 15.2504 2.5 15.2504C2.91421 15.2504 3.25 15.5861 3.25 16.0004V18.5004C3.25013 19.7429 4.25744 20.7504 5.5 20.7504H18.5C19.7426 20.7504 20.7499 19.7429 20.75 18.5004V16.0004C20.75 15.5861 21.0858 15.2504 21.5 15.2504Z" fill="white"/>
<path d="M11.3574 3.00817C11.7089 2.65674 12.2784 2.65682 12.6299 3.00817L17.3574 7.73571C17.6503 8.02861 17.6503 8.50337 17.3574 8.79626C17.0645 9.08903 16.5897 9.08911 16.2969 8.79626L12.792 5.29138V17.516C12.792 17.9301 12.4561 18.2659 12.042 18.266C11.6278 18.266 11.292 17.9302 11.292 17.516V5.1947L7.69043 8.79626C7.39754 9.08915 6.92278 9.08915 6.62988 8.79626C6.337 8.50337 6.33699 8.0286 6.62988 7.73571L11.3574 3.00817Z" fill="white"/>
</svg>
