<svg width="24" height="24" viewBox="0 0 24 24" fill="none" xmlns="http://www.w3.org/2000/svg">
<path fill-rule="evenodd" clip-rule="evenodd" d="M19.6223 7.55371L17.3328 9.84325C17.6012 10.5079 17.749 11.2342 17.749 11.9951C17.749 15.1707 15.1746 17.7451 11.999 17.7451C11.2381 17.7451 10.5118 17.5973 9.84714 17.3289L8.47016 18.7059C9.58397 19.0562 10.7694 19.2451 11.999 19.2451C16.2295 19.2451 19.9372 17.0088 22.0052 13.6573L22.0204 13.6327C22.2208 13.3082 22.3814 13.048 22.4825 12.5984C22.5249 12.4098 22.5379 12.1822 22.5379 11.9952C22.5379 11.8081 22.5249 11.5805 22.4825 11.392C22.3814 10.9423 22.2208 10.6821 22.0205 10.3576L22.0052 10.333C21.3595 9.28645 20.5538 8.34864 19.6223 7.55371ZM4.03878 21.016C3.74549 21.3038 3.27445 21.3021 2.98327 21.0109C2.69038 20.718 2.69037 20.2431 2.98327 19.9502L5.58923 17.3443C4.13535 16.3962 2.90455 15.1351 1.9926 13.6572L1.97738 13.6325C1.77704 13.308 1.61642 13.0479 1.51533 12.5982C1.47294 12.4096 1.45996 12.1821 1.45996 11.995C1.45996 11.8079 1.47294 11.5803 1.51534 11.3918C1.61644 10.9421 1.77706 10.682 1.97741 10.3575L1.99263 10.3328C4.06068 6.9814 7.7683 4.74508 11.9989 4.74508C13.8073 4.74508 15.5201 5.15369 17.0502 5.88335L19.9538 2.97968C20.2467 2.68679 20.7216 2.68679 21.0145 2.97968C21.3056 3.27082 21.3074 3.74179 21.0197 4.03508C21.018 4.03678 21.0162 4.0385 21.0145 4.04023L4.04394 21.0108C4.04221 21.0125 4.04049 21.0143 4.03878 21.016ZM11.2509 15.9252C11.4932 15.971 11.7433 15.995 11.999 15.995C14.2082 15.995 15.999 14.2042 15.999 11.995C15.999 11.7393 15.975 11.4892 15.9292 11.2469L11.2509 15.9252ZM11.9989 6.24508C13.3164 6.24508 14.5304 6.68818 15.5 7.43348L14.2473 8.68621C13.6066 8.25001 12.8326 7.99504 11.999 7.99504C9.78988 7.99504 7.99902 9.7859 7.99902 11.995C7.99902 12.8286 8.25399 13.6026 8.69019 14.2433L7.43736 15.4961C6.69208 14.5265 6.24899 13.3126 6.24899 11.9951C6.24899 8.81942 8.82326 6.24508 11.9989 6.24508Z" fill="white" fill-opacity="0.96"/>
</svg>
