<svg width="24" height="24" viewBox="0 0 24 24" fill="none" xmlns="http://www.w3.org/2000/svg">
<path fill-rule="evenodd" clip-rule="evenodd" d="M5.24438 3C4.83017 3 4.49438 3.33579 4.49438 3.75V6.6306C4.49438 8.35522 5.26849 9.98877 6.60327 11.0809L9.49988 13.4803C9.79005 13.7177 9.95833 14.0728 9.95833 14.4478V20.75C9.95833 20.9853 10.0688 21.207 10.2567 21.3488C10.4446 21.4905 10.6881 21.5358 10.9144 21.4711L13.4975 20.4908C13.8194 20.3988 14.0414 20.1045 14.0414 19.7697V14.4674C14.0414 14.0925 14.2097 13.7374 14.4999 13.5L17.4375 11.0809C18.7723 9.98877 19.5464 8.35522 19.5464 6.6306V3.75C19.5464 3.33579 19.2106 3 18.7964 3H5.24438ZM12.7499 6.25C12.3357 6.25 11.9999 6.58579 11.9999 7C11.9999 7.41421 12.3357 7.75 12.7499 7.75H16.7499C17.1641 7.75 17.4999 7.41421 17.4999 7C17.4999 6.58579 17.1641 6.25 16.7499 6.25H12.7499Z" fill="white"/>
</svg>
