<svg width="24" height="24" viewBox="0 0 24 24" fill="none" xmlns="http://www.w3.org/2000/svg">
<path d="M20.0001 6.63078C20 8.35518 19.2263 9.98895 17.8917 11.081L14.9581 13.4804C14.6682 13.7178 14.5001 14.0734 14.5001 14.4482V19.7499C14.5001 20.0847 14.278 20.3786 13.9562 20.4706L10.4562 21.4706C10.23 21.5352 9.9868 21.4901 9.79896 21.3486C9.61109 21.2068 9.50015 20.9852 9.50014 20.7499V16.6532L11.0001 15.1532V19.7558L13.0001 19.1845V14.4482C13.0001 13.6234 13.3706 12.8416 14.0089 12.3193L16.9415 9.91985C17.6116 9.37161 18.089 8.63827 18.3273 7.82512L20.0001 6.15324V6.63078Z" fill="white"/>
<path fill-rule="evenodd" clip-rule="evenodd" d="M19.4406 2.46965C19.7335 2.1768 20.2082 2.17677 20.5011 2.46965C20.7939 2.76254 20.7939 3.23733 20.5011 3.5302L16.9982 7.03215C16.9817 7.42062 16.6708 7.73146 16.2824 7.74797L3.53041 20.5009C3.23754 20.7937 2.76273 20.7937 2.46986 20.5009C2.177 20.208 2.17707 19.7333 2.46986 19.4404L8.70521 13.204L6.10853 11.081C4.77395 9.98895 4.00023 8.3552 4.00014 6.63078V3.74992C4.00014 3.33571 4.33592 2.99992 4.75014 2.99992H18.9103L19.4406 2.46965ZM5.50014 6.63078C5.50023 7.90535 6.07229 9.11271 7.05873 9.91985L9.77064 12.1386L14.1603 7.74992H12.7501C12.3359 7.74992 12.0002 7.41411 12.0001 6.99992C12.0001 6.58571 12.3359 6.24992 12.7501 6.24992H15.6603L17.4103 4.49992H5.50014V6.63078Z" fill="white"/>
</svg>
