<svg width="24" height="24" viewBox="0 0 24 24" fill="none" xmlns="http://www.w3.org/2000/svg">
<path d="M19.546 6.63078C19.5459 8.35525 18.7723 9.98895 17.4376 11.081L14.5001 13.4999C14.2101 13.7373 14.0412 14.0928 14.0412 14.4677V19.7695C14.0411 20.1043 13.8191 20.3991 13.4972 20.4911L10.9142 21.4706C10.6881 21.5352 10.4448 21.4901 10.257 21.3486C10.0692 21.2068 9.95816 20.9852 9.95814 20.7499V16.1952L19.546 6.60735V6.63078Z" fill="white"/>
<path fill-rule="evenodd" clip-rule="evenodd" d="M19.4406 2.46965C19.7335 2.1768 20.2082 2.17677 20.5011 2.46965C20.7939 2.76254 20.7939 3.23733 20.5011 3.5302L3.53041 20.5009C3.23754 20.7937 2.76273 20.7937 2.46986 20.5009C2.177 20.208 2.17707 19.7333 2.46986 19.4404L8.9142 12.995L6.60267 11.081C5.26819 9.98895 4.49437 8.35514 4.49428 6.63078V3.74992C4.49428 3.33579 4.83017 3.00006 5.24428 2.99992H18.796C18.8319 2.99993 18.867 3.00288 18.9015 3.00774L19.4406 2.46965ZM12.7501 6.24992C12.336 6.25006 12.0001 6.58579 12.0001 6.99992C12.0002 7.41403 12.3361 7.74979 12.7501 7.74992H14.1603L15.6603 6.24992H12.7501Z" fill="white"/>
</svg>
