<svg width="24" height="24" viewBox="0 0 24 24" fill="none" xmlns="http://www.w3.org/2000/svg">
<path fill-rule="evenodd" clip-rule="evenodd" d="M11.4974 4.48666C11.3469 5.69867 10.9266 6.67941 10.3944 7.57066C10.056 8.13741 9.66993 8.6716 9.29611 9.18888C9.28508 9.20414 9.27407 9.21938 9.26306 9.23461C8.87319 9.7742 8.49297 10.3032 8.14358 10.8857C7.1651 12.5173 6.62037 14.3072 6.81909 15.9308C6.94573 16.9656 7.37952 17.9807 8.27483 18.8841C8.15593 18.5184 8.07122 18.1815 8.01842 17.8627C7.86986 16.9656 7.98076 16.2558 8.20877 15.5108C8.44124 14.7513 9.43717 14.726 9.77378 15.366C9.85911 15.5282 9.94499 15.6808 10.0334 15.827C10.2317 13.5068 11.1295 11.9093 12.543 11.125C13.0011 10.8709 13.535 11.0934 13.7274 11.5199C14.0665 12.2715 14.4326 12.8753 14.7923 13.4685C14.9399 13.7119 15.0864 13.9535 15.2295 14.2028C15.7041 15.0295 16.1178 15.9117 16.1178 16.9999C16.1178 18.2325 15.9389 18.8559 15.6539 19.6011C16.1317 19.2751 16.5047 18.8752 16.7942 18.4229C17.3241 17.5948 17.5999 16.5489 17.6635 15.3775C17.7737 13.3497 17.2401 11.0781 16.4938 9.26848C16.4767 9.2897 16.4595 9.31127 16.4422 9.33318C16.3343 9.47027 16.2288 9.61391 16.1166 9.76792C16.1058 9.78273 16.095 9.79766 16.084 9.81269C15.9837 9.95053 15.8769 10.0971 15.7671 10.2401C15.2401 10.9257 14.2797 10.4763 14.2437 9.76042C14.1819 8.53242 13.6527 7.26965 12.9132 6.16736C12.475 5.51405 11.979 4.94109 11.4974 4.48666ZM10.052 3.21638C10.0286 2.59436 10.7264 2.06336 11.3558 2.46579C12.2796 3.05648 13.3249 4.08837 14.1589 5.33175C14.717 6.16364 15.2009 7.12074 15.4841 8.13784C15.6896 7.90097 15.9253 7.66602 16.2034 7.46142C16.6288 7.14853 17.2322 7.29668 17.4644 7.77087C18.4792 9.84368 19.3066 12.7845 19.1613 15.4589C19.0884 16.8025 18.7673 18.1225 18.0575 19.2315C17.3384 20.3551 16.2466 21.219 14.7229 21.6684C14.0898 21.8552 13.4456 21.2585 13.6796 20.5797C13.8719 20.0217 14.0306 19.6192 14.1594 19.2929C14.484 18.47 14.6178 18.1307 14.6178 16.9999C14.6178 16.314 14.3672 15.7135 13.9286 14.9496C13.8162 14.7538 13.6889 14.5438 13.5528 14.3193C13.2907 13.8869 12.9961 13.4008 12.7127 12.8591C11.9322 13.6336 11.3542 15.1198 11.5195 17.6656C11.5692 18.4305 10.6111 18.9156 10.0444 18.297C9.85172 18.0867 9.67459 17.8833 9.50896 17.6793C9.62402 18.3143 9.92337 19.1396 10.5408 20.4012C10.9095 21.1543 10.0916 21.9043 9.37746 21.522C6.82802 20.157 5.58879 18.226 5.3302 16.1131C5.07729 14.0466 5.77511 11.9186 6.85716 10.1142C7.24401 9.46932 7.66039 8.8915 8.04723 8.35612L8.06347 8.33364C8.44979 7.799 8.80222 7.31124 9.10654 6.80162C9.7068 5.7964 10.1085 4.72409 10.052 3.21638Z" fill="white"/>
</svg>
