<svg width="24" height="24" viewBox="0 0 24 24" fill="none" xmlns="http://www.w3.org/2000/svg">
<path d="M7.50029 10.5C5.43977 13.936 5.01517 18.3358 9.73139 20.8609C9.81611 20.9063 9.90938 20.8173 9.86713 20.731C8.57369 18.0884 8.51735 17.0651 8.92586 15.7304C8.95194 15.6452 9.06843 15.6363 9.10992 15.7152C9.53187 16.5174 9.96983 17.1055 10.5973 17.7905C10.6612 17.8603 10.7771 17.8088 10.771 17.7143C10.5598 14.4623 11.4992 12.5617 12.9068 11.781C12.9571 11.7531 13.0202 11.7765 13.0442 11.8288C14.0433 14.0117 15.5 14.4232 15.5 17C15.5 19.4987 15.0434 19.5049 14.4172 20.8093C14.3808 20.8851 14.453 20.9665 14.5335 20.9424C19.9232 19.331 18.7365 12.0751 16.7907 8.10077C16.7642 8.04655 16.6964 8.02991 16.6477 8.06569C16.0372 8.51479 15.6306 9.18693 15.1724 9.78311C15.1153 9.85737 14.9974 9.81636 14.9927 9.72282C14.851 6.90915 12.5969 4.14976 10.9517 3.09776C10.8843 3.05471 10.7984 3.10851 10.8014 3.18837C10.9277 6.55518 8.97282 8.04534 7.50029 10.5Z" fill="white"/>
</svg>
