<svg width="24" height="24" viewBox="0 0 24 24" fill="none" xmlns="http://www.w3.org/2000/svg">
<path d="M3.8291 3.12972C5.69871 1.86104 7.33483 1.47102 8.85059 1.59651C10.329 1.71899 11.6192 2.32979 12.7656 2.88753C12.8077 2.90802 12.8499 2.92874 12.8916 2.94905C14.0263 3.50156 15.0183 3.98472 16.0938 4.13167C17.1569 4.27694 18.3522 4.09459 19.8398 3.1219C20.0703 2.97142 20.3644 2.95976 20.6064 3.09065C20.8487 3.22168 21 3.47446 21 3.74983V14.4998C21 14.7601 20.8651 15.002 20.6436 15.1385C18.8874 16.2192 17.3709 16.4871 15.9629 16.2977C14.7018 16.1279 13.5693 15.5906 12.541 15.1024C12.4618 15.0648 12.3827 15.0279 12.3047 14.991C11.1776 14.4588 10.1341 14.002 8.94336 13.9119C7.86007 13.8301 6.59176 14.0495 5 14.9325V21.2498C5 21.664 4.66421 21.9998 4.25 21.9998C3.83579 21.9998 3.5 21.664 3.5 21.2498V3.74983C3.50002 3.50129 3.62344 3.26929 3.8291 3.12972Z" fill="white"/>
</svg>
