<svg width="24" height="24" viewBox="0 0 24 24" fill="none" xmlns="http://www.w3.org/2000/svg">
<path d="M8.06069 14.6064C8.35347 14.3138 8.82834 14.314 9.12124 14.6064C9.41413 14.8993 9.41413 15.3751 9.12124 15.668L7.84878 16.9404C7.5559 17.2331 7.08106 17.2331 6.78823 16.9404C6.49541 16.6476 6.49554 16.1728 6.78823 15.8799L8.06069 14.6064Z" fill="white"/>
<path fill-rule="evenodd" clip-rule="evenodd" d="M11.7736 4.9541C12.2679 4.46038 13.0502 4.43002 13.5802 4.8623L13.6818 4.9541L18.7736 10.0459L18.8664 10.1484C19.2984 10.6785 19.2682 11.4609 18.7746 11.9551L16.2951 14.4346L16.1974 14.5244C15.9631 14.7263 15.6799 14.8648 15.3751 14.9258L13.1183 15.377C12.8637 15.4279 12.6279 15.5516 12.4416 15.7324L7.91421 20.1279L7.76186 20.2607C7.0278 20.8429 5.98229 20.8352 5.25698 20.2422L5.10659 20.1074L3.48061 18.4805L3.34194 18.3271C2.73887 17.5861 2.74653 16.5152 3.3605 15.7832L3.5021 15.6318L7.97182 11.293C8.14337 11.1264 8.267 10.9175 8.3312 10.6885L8.35561 10.5889L8.80288 8.35352C8.86382 8.04879 9.00237 7.76553 9.20425 7.53125L9.29409 7.43359L11.7736 4.9541ZM4.54604 16.707C4.34589 16.9013 4.34413 17.2226 4.54116 17.4199L6.16714 19.0459C6.36034 19.2391 6.67322 19.2411 6.86928 19.0508L11.1281 14.917L8.79507 12.583L4.54604 16.707ZM10.3556 8.49414C10.3139 8.53596 10.2852 8.58956 10.2736 8.64746L9.82632 10.8838C9.79403 11.0451 9.74554 11.2016 9.68667 11.3535L12.3703 14.0371C12.5169 13.9813 12.6683 13.9373 12.8234 13.9062L15.0812 13.4551L15.1632 13.4258C15.189 13.412 15.2136 13.3949 15.2345 13.374L15.5919 13.0156L10.7121 8.13672L10.3556 8.49414ZM11.7726 7.07617L16.6525 11.9551L17.6076 11.001L12.7277 6.12109L11.7726 7.07617Z" fill="white"/>
<path d="M22.2169 7.89746C22.6494 7.89751 23.0002 8.24827 23.0001 8.68066C22.9999 9.11286 22.6492 9.46284 22.2169 9.46289H20.6505C20.2184 9.46275 19.8676 9.1128 19.8673 8.68066C19.8673 8.24833 20.2182 7.89761 20.6505 7.89746H22.2169Z" fill="white"/>
<path d="M20.0968 2.87402C20.4026 2.56823 20.8985 2.56828 21.2042 2.87402C21.51 3.17984 21.5101 3.67568 21.2042 3.98145L19.6388 5.54688C19.3331 5.85273 18.8371 5.85269 18.5314 5.54688C18.2256 5.24111 18.2256 4.74525 18.5314 4.43945L20.0968 2.87402Z" fill="white"/>
<path d="M15.3986 1.07812C15.8307 1.07834 16.1807 1.4291 16.1808 1.86133V3.42773C16.1807 3.85995 15.8308 4.21072 15.3986 4.21094C14.9662 4.21094 14.6155 3.86008 14.6154 3.42773V1.86133C14.6155 1.429 14.9662 1.07812 15.3986 1.07812Z" fill="white"/>
</svg>
