<svg width="24" height="24" viewBox="0 0 24 24" fill="none" xmlns="http://www.w3.org/2000/svg">
<path fill-rule="evenodd" clip-rule="evenodd" d="M11.8768 15.582L7.5653 19.7695C6.97721 20.3398 6.03932 20.332 5.45983 19.7529L3.83385 18.127C3.24222 17.535 3.24986 16.5732 3.85046 15.9902L8.12975 11.8359L11.8768 15.582ZM9.03503 14.5576C8.79102 14.3139 8.39524 14.3139 8.15124 14.5576L6.87878 15.8301C6.6348 16.0741 6.635 16.4698 6.87878 16.7139C7.12288 16.9575 7.51862 16.9578 7.76256 16.7139L9.03503 15.4414C9.27867 15.1974 9.27861 14.8016 9.03503 14.5576Z" fill="white"/>
<path d="M16.9071 13.1133L15.9413 14.0801C15.8053 14.2159 15.6412 14.3193 15.4618 14.3838L15.2772 14.4355L13.0204 14.8867C12.9086 14.9091 12.8001 14.9442 12.6952 14.9863L8.73913 11.0303C8.78472 10.92 8.82188 10.8056 8.84557 10.6875L9.29284 8.45117C9.34314 8.19966 9.46701 7.96854 9.64831 7.78711L10.6141 6.82031L16.9071 13.1133Z" fill="white"/>
<path d="M12.1268 5.30762C12.4587 4.97609 12.9971 4.97608 13.329 5.30762L18.4198 10.3994C18.7512 10.7313 18.7523 11.2697 18.4208 11.6016L17.6141 12.4062L11.3212 6.11328L12.1268 5.30762Z" fill="white"/>
<path d="M22.2167 7.89746C22.649 7.89767 22.9989 8.24837 22.9989 8.68066C22.9988 9.11287 22.6488 9.46366 22.2167 9.46387H20.6503C20.2179 9.46387 19.8672 9.11299 19.8671 8.68066C19.8671 8.24824 20.2178 7.89746 20.6503 7.89746H22.2167Z" fill="white"/>
<path d="M20.0985 2.87402C20.4043 2.56828 20.9002 2.56823 21.2059 2.87402C21.5114 3.17983 21.5116 3.67575 21.2059 3.98145L19.6395 5.54688C19.3338 5.85273 18.8378 5.85269 18.5321 5.54688C18.2265 5.24109 18.2264 4.74519 18.5321 4.43945L20.0985 2.87402Z" fill="white"/>
<path d="M15.3983 1.07812C15.8307 1.07814 16.1815 1.42887 16.1815 1.86133V3.42676C16.1815 3.85917 15.8307 4.20995 15.3983 4.20996C14.9659 4.20996 14.6151 3.85918 14.6151 3.42676V1.86133C14.6151 1.42891 14.9659 1.07812 15.3983 1.07812Z" fill="white"/>
</svg>
