<svg width="24" height="24" viewBox="0 0 24 24" fill="none" xmlns="http://www.w3.org/2000/svg">
<path fill-rule="evenodd" clip-rule="evenodd" d="M9.6247 4.39271C10.1244 3.48899 11.4993 3.84352 11.4997 4.87611V18.4992C11.4997 19.3276 10.8281 19.9992 9.9997 19.9992H2.69501L2.55537 19.9894C1.87662 19.8969 1.47485 19.1404 1.82001 18.5158L9.6247 4.39271ZM3.54267 18.4992H9.9997V6.81459L3.54267 18.4992Z" fill="white"/>
<path fill-rule="evenodd" clip-rule="evenodd" d="M12.4997 4.87611C12.5001 3.8436 13.8749 3.48925 14.3747 4.39271L22.1794 18.5158C22.5246 19.1405 22.123 19.8971 21.444 19.9894L21.3044 19.9992H13.9997C13.1714 19.999 12.4997 19.3275 12.4997 18.4992V4.87611ZM13.9997 18.4992H20.4567L13.9997 6.81459V18.4992Z" fill="white"/>
</svg>
