<svg width="24" height="24" viewBox="0 0 24 24" fill="none" xmlns="http://www.w3.org/2000/svg">
<path fill-rule="evenodd" clip-rule="evenodd" d="M19.6069 9.62519C20.5107 10.1249 20.1561 11.4998 19.1235 11.5002H5.50049C4.67206 11.5002 4.00049 10.8286 4.00049 10.0002V2.6955L4.01025 2.55585C4.10277 1.87711 4.85921 1.47534 5.48389 1.8205L19.6069 9.62519ZM5.50049 3.54316V10.0002H17.1851L5.50049 3.54316Z" fill="white"/>
<path fill-rule="evenodd" clip-rule="evenodd" d="M19.1235 12.5002C20.1561 12.5006 20.5104 13.8754 19.6069 14.3752L5.48389 22.1799C4.85912 22.5251 4.10259 22.1235 4.01025 21.4445L4.00049 21.3049V14.0002C4.00062 13.1719 4.67215 12.5002 5.50049 12.5002H19.1235ZM5.50049 14.0002V20.4572L17.1851 14.0002H5.50049Z" fill="white"/>
</svg>
