<svg width="24" height="24" viewBox="0 0 24 24" fill="none" xmlns="http://www.w3.org/2000/svg">
<path d="M21.0537 14.5803C21.333 14.5002 21.6395 14.6242 21.7793 14.8918C21.9386 15.1976 21.8203 15.5748 21.5146 15.7346L12.7764 20.301C12.3513 20.523 11.8541 20.5504 11.4111 20.384L11.2246 20.301L2.48633 15.7346L2.37988 15.6652C2.15468 15.4817 2.08208 15.1593 2.22168 14.8918C2.36156 14.6241 2.66783 14.5 2.94727 14.5803L3.06445 14.6271L11.8037 19.1926L11.8994 19.2287C11.9986 19.2529 12.1048 19.2409 12.1973 19.1926L20.9355 14.6271L21.0537 14.5803Z" fill="white"/>
<path fill-rule="evenodd" clip-rule="evenodd" d="M11.4971 4.2746C11.8104 4.10377 12.1896 4.10378 12.5029 4.2746L21.4053 9.1291C21.4475 9.15213 21.4842 9.1804 21.5166 9.21113C21.7859 9.32491 21.9746 9.59176 21.9746 9.90253V12.3C21.9745 12.5756 21.8242 12.8133 21.6025 12.9436C21.5604 12.9971 21.5073 13.0443 21.4414 13.0803L12.5029 17.9553L12.3828 18.0109C12.1369 18.1071 11.8631 18.1072 11.6172 18.0109L11.4971 17.9553L2.5791 13.091C2.51325 13.055 2.45909 13.0087 2.41699 12.9553C2.18448 12.8279 2.02539 12.5838 2.02539 12.3V9.8957C2.02553 9.5814 2.21883 9.31278 2.49316 9.20136C2.52316 9.17441 2.55687 9.14977 2.59473 9.1291L11.4971 4.2746ZM3.52539 11.9377L5.85059 13.1477L7.19043 13.8117L11.25 16.0256V14.7707L3.52539 10.5578V11.9377ZM12.75 14.7707V16.0246L16.7988 13.8166L18.1504 13.1477L20.4746 11.8312V10.5568L12.75 14.7707ZM9.16504 11.925L12 13.4709L13.7832 12.4973L10.9365 10.9396L9.16504 11.925ZM11.9717 10.3654L14.8281 11.9279L19.1162 9.59003L16.2158 8.008L11.9717 10.3654ZM4.88281 9.59003L8.125 11.3576L12.293 9.04121L9.09473 7.29218L4.88281 9.59003ZM10.1396 6.72187L13.3291 8.46601L15.1758 7.44062L12 5.7082L10.1396 6.72187Z" fill="white"/>
</svg>
