<svg width="24" height="24" viewBox="0 0 24 24" fill="none" xmlns="http://www.w3.org/2000/svg">
<path d="M21.0537 14.5803C21.333 14.5002 21.6395 14.6242 21.7793 14.8918C21.9386 15.1976 21.8203 15.5748 21.5146 15.7346L12.7764 20.301C12.3513 20.5231 11.8541 20.5504 11.4111 20.384L11.2246 20.301L2.48633 15.7346L2.37988 15.6653C2.15469 15.4818 2.08208 15.1594 2.22168 14.8918C2.36156 14.6241 2.66783 14.5 2.94727 14.5803L3.06445 14.6272L11.8037 19.1926L11.8994 19.2287C11.9986 19.2529 12.1048 19.2409 12.1973 19.1926L20.9355 14.6272L21.0537 14.5803Z" fill="white"/>
<path d="M12.6465 8.76681L12.3457 8.93478L6.5 12.1809L3.52539 10.5588V11.9377L5.85059 13.1477L7.19043 13.8117L11.25 16.0256V14.7717L7.54004 12.7483L10.5312 11.0861L15.0127 13.5373L12.75 14.7707V16.0246L16.7988 13.8166L18.1504 13.1477L20.4746 11.8313V10.5588L16.0566 12.968L11.5654 10.511L17.6943 7.10666L21.4043 9.1301C21.4457 9.15266 21.4817 9.1802 21.5137 9.21017C21.7845 9.32328 21.9746 9.59069 21.9746 9.90256V12.3C21.9745 12.5757 21.8242 12.8133 21.6025 12.9436C21.5604 12.9971 21.5073 13.0443 21.4414 13.0803L12.5029 17.9553L12.3828 18.011C12.1369 18.1072 11.8631 18.1072 11.6172 18.011L11.4971 17.9553L2.5791 13.091C2.51325 13.055 2.45909 13.0087 2.41699 12.9553C2.18447 12.8279 2.02539 12.5838 2.02539 12.3V9.89572C2.02553 9.58033 2.22024 9.31112 2.49609 9.20041C2.52546 9.17434 2.55793 9.15021 2.59473 9.1301L7.95898 6.20334L12.6465 8.76681Z" fill="white"/>
<path d="M11.4971 4.27463C11.8104 4.10377 12.1896 4.10377 12.5029 4.27463L16.6553 6.53927L15.3057 7.29025L13.6797 8.1926L13.4229 8.05295L9.00293 5.634L11.4971 4.27463Z" fill="white"/>
</svg>
