<svg width="24" height="24" viewBox="0 0 24 24" fill="none" xmlns="http://www.w3.org/2000/svg">
<path d="M9.98897 4.97363C10.2801 3.00706 12.4617 1.99771 14.1286 3.05859L14.9226 3.56347C15.2714 3.78596 15.3785 4.25273 15.1618 4.60547C14.9447 4.95813 14.4847 5.06418 14.1355 4.84179L13.3435 4.33691C12.5857 3.8545 11.594 4.31404 11.4616 5.208L10.5095 11.6416H12.9558C13.3698 11.6418 13.7058 11.9775 13.7058 12.3916C13.7058 12.8057 13.3698 13.1414 12.9558 13.1416H10.2868L9.4167 19.0205C9.14883 20.83 7.25194 21.8717 5.60323 21.1143L4.34151 20.5332C3.9663 20.3605 3.79707 19.9128 3.96455 19.5332C4.13228 19.1535 4.5735 18.9857 4.94893 19.1582L6.21065 19.7373C6.9599 20.0816 7.82198 19.6093 7.94405 18.7871L8.77998 13.1416H6.76826C6.35405 13.1416 6.01826 12.8058 6.01826 12.3916C6.01828 11.9774 6.35406 11.6416 6.76826 11.6416H9.00166L9.98897 4.97363Z" fill="white"/>
<path d="M18.3522 13.5361C18.5871 13.1949 19.051 13.1132 19.3884 13.3535C19.7254 13.5939 19.8086 14.0651 19.5739 14.4062L17.7829 17.0078L19.8894 20.0693C20.1241 20.4105 20.0411 20.8818 19.7038 21.1221C19.3665 21.3624 18.9025 21.2807 18.6677 20.9394L16.8728 18.3311L15.0778 20.9394C14.843 21.2807 14.3791 21.3624 14.0417 21.1221C13.7044 20.8818 13.6215 20.4105 13.8562 20.0693L15.9616 17.0078L14.1716 14.4062C13.937 14.0651 14.0201 13.5939 14.3571 13.3535C14.6945 13.1132 15.1584 13.1949 15.3933 13.5361L16.8728 15.6855L18.3522 13.5361Z" fill="white"/>
</svg>
