<svg width="24" height="24" viewBox="0 0 24 24" fill="none" xmlns="http://www.w3.org/2000/svg">
<path d="M19.0059 10.0059C19.1895 10.646 19.2891 11.3224 19.2891 12.0215C19.2886 16.0499 16.0227 19.3163 11.9941 19.3164C10.2994 19.3164 8.73934 18.7384 7.50098 17.7686C7.73781 17.7898 7.98718 17.7998 8.25781 17.7998C8.48544 17.7998 8.72875 17.7924 8.99023 17.7773C10.5344 17.6644 12.1306 17.2049 13.6064 16.4482C15.0988 15.6833 16.3994 14.6479 17.3701 13.4521C17.999 12.6559 18.7528 11.4329 18.9668 9.9502C18.9799 9.96823 18.9928 9.98721 19.0059 10.0059Z" fill="white"/>
<path d="M13.0381 4.31055C13.552 4.31058 14.0572 4.35299 14.5498 4.43945C12.7126 4.61006 10.8187 5.41992 8.91504 6.84766C8.83429 6.90786 8.78186 7.00133 8.77246 7.10156C8.76269 7.2016 8.79676 7.30289 8.86426 7.37793C9.48551 8.06252 10.1066 8.81162 10.8193 9.73438C10.9377 9.88828 11.1543 9.92042 11.3135 9.80762C12.7494 8.77861 13.9957 8.01669 15.2021 7.43164C15.1488 8.05055 14.3204 9.00914 13.4551 9.7334C12.0725 10.8651 10.4072 12.0419 8.54004 12.1924L8.46875 12.1982C8.19414 12.2108 7.89803 12.18 7.59082 12.1035C6.85228 11.9142 6.20143 11.2695 5.93359 10.4658C5.82074 10.1066 5.8056 9.694 5.8877 9.24512C6.03197 8.50737 6.40595 7.75507 6.96875 7.06934L6.97656 7.05957C8.27896 5.33892 10.5455 4.31055 13.0381 4.31055Z" fill="white"/>
<path fill-rule="evenodd" clip-rule="evenodd" d="M12 2C17.5224 2 22 6.47678 22 12C22 17.5232 17.5224 22 12 22C6.47749 22 2 17.5225 2 12C2 6.47748 6.47748 2 12 2ZM12 3.53809C7.32715 3.53809 3.53809 7.32715 3.53809 12C3.53809 16.5267 7.09405 20.2234 11.5645 20.4502L12 20.4619C16.6728 20.4619 20.4619 16.6735 20.4619 12C20.4619 7.32653 16.6728 3.53809 12 3.53809Z" fill="white"/>
</svg>
