<svg width="24" height="24" viewBox="0 0 24 24" fill="none" xmlns="http://www.w3.org/2000/svg">
<path fill-rule="evenodd" clip-rule="evenodd" d="M12 2C17.5225 2 22 6.4768 22 12C22 17.5232 17.5225 22 12 22C6.47755 22 2 17.5225 2 12C2 6.47755 6.47755 2 12 2ZM20.2344 9.57715C19.9816 11.3296 19.0909 12.7757 18.3477 13.7168C17.2005 15.1299 15.6631 16.3528 13.8994 17.2568C12.1549 18.1513 10.2676 18.6947 8.44238 18.8281C8.13357 18.8459 7.84697 18.8545 7.57812 18.8545C7.25798 18.8545 6.96274 18.8426 6.68262 18.8174C8.14595 19.9636 9.98952 20.6452 11.9922 20.6455C16.7536 20.6455 20.6143 16.7858 20.6143 12.0244C20.6143 11.1981 20.4974 10.3992 20.2803 9.64258C20.2649 9.62059 20.2498 9.59841 20.2344 9.57715ZM13.2266 2.91211C10.281 2.91211 7.6037 4.12686 6.06445 6.16016L6.05469 6.17188C5.38931 6.98249 4.94687 7.87203 4.77637 8.74414C4.67929 9.27471 4.69671 9.76191 4.83008 10.1865C5.14645 11.1364 5.91631 11.8971 6.78906 12.1211C7.15213 12.2115 7.50162 12.2502 7.82617 12.2354L7.91211 12.2275C10.1189 12.0497 12.0867 10.6589 13.7207 9.32129C14.7432 8.46547 15.721 7.33301 15.7842 6.60156C14.3586 7.2929 12.8871 8.19239 11.1904 9.4082C11.0022 9.54234 10.7455 9.50457 10.6055 9.32227C9.763 8.23158 9.02922 7.34626 8.29492 6.53711C8.21489 6.44818 8.17467 6.32853 8.18652 6.20996C8.19766 6.09141 8.25891 5.98129 8.35449 5.91016C10.6043 4.22285 12.8424 3.26705 15.0137 3.06543C14.4313 2.9632 13.8341 2.91211 13.2266 2.91211Z" fill="white"/>
</svg>
