<svg width="24" height="24" viewBox="0 0 24 24" fill="none" xmlns="http://www.w3.org/2000/svg">
<path fill-rule="evenodd" clip-rule="evenodd" d="M2.83 7.9998H7.77C8.17 6.5998 8.75 5.3798 9.32 4.3898C9.85 3.4698 10.38 2.7498 10.78 2.2498C10.83 2.1798 10.89 2.1098 10.94 2.0498C7.3 2.4298 4.23 4.7698 2.83 7.9998ZM13.05 2.0498C13.1 2.1098 13.16 2.1798 13.21 2.2498C13.61 2.7498 14.14 3.4698 14.67 4.3898C15.22 5.3298 15.76 6.4898 16.17 7.8098L14.48 9.4998H8.94C8.78 10.2898 8.69 11.1198 8.69 11.9998C8.69 12.8698 8.78 13.6998 8.94 14.4898H9.49L7.82 16.1598C7.8 16.0998 7.78 16.0498 7.77 15.9898H2.83C3.33 17.1398 4.04 18.1798 4.92 19.0598L3.51 20.4698C3.21 20.7698 3.21 21.2298 3.51 21.5298C3.81 21.8298 4.27 21.8298 4.57 21.5298L21.3 4.8098C21.59 4.5098 21.59 4.0398 21.3 3.7398C21 3.4498 20.53 3.4498 20.24 3.7398L19.06 4.9198C17.49 3.3498 15.39 2.2898 13.05 2.0498ZM14.65 7.9998C14.3 6.9098 13.84 5.9498 13.37 5.1398C12.89 4.2998 12.41 3.6398 12.04 3.1898C11.68 3.6398 11.1 4.2998 10.62 5.1398C10.15 5.9498 9.69 6.9098 9.34 7.9998H14.65ZM20.83 7.2998L20.13 7.9998H21.16C21.06 7.7598 20.95 7.5298 20.83 7.2998ZM2.31 14.4898H7.41C7.27 13.6998 7.19 12.8698 7.19 11.9998C7.19 11.1198 7.27 10.2898 7.41 9.4998H2.31C2.1 10.2998 2 11.1298 2 11.9998C2 12.8598 2.1 13.6898 2.31 14.4898ZM18.63 9.4998L16.78 11.3498C16.79 11.5598 16.8 11.7798 16.8 11.9998C16.8 12.8698 16.72 13.6998 16.58 14.4898H21.68C21.89 13.6898 22 12.8598 22 11.9998C22 11.1298 21.89 10.2998 21.68 9.4998H18.63ZM15.27 12.8598L13.64 14.4898H15.05C15.15 13.9698 15.23 13.4198 15.27 12.8598ZM12.14 15.9898L10.15 17.9798C10.3 18.2898 10.46 18.5798 10.62 18.8498C11.1 19.6898 11.58 20.3498 11.95 20.7998C12.31 20.3498 12.89 19.6898 13.37 18.8498C13.84 18.0398 14.3 17.0798 14.65 15.9898H12.14ZM21.16 15.9898H16.22C15.82 17.3898 15.24 18.6098 14.67 19.5998C14.14 20.5198 13.61 21.2398 13.21 21.7398C13.16 21.8098 13.1 21.8798 13.05 21.9398C16.69 21.5598 19.76 19.2198 21.16 15.9898ZM9.04 19.0898L7.3 20.8298C8.41 21.4198 9.64 21.7998 10.94 21.9398C10.89 21.8798 10.83 21.8098 10.78 21.7398C10.38 21.2398 9.85 20.5198 9.32 19.5998C9.23 19.4398 9.13 19.2698 9.04 19.0898Z" fill="white"/>
</svg>
