<svg width="24" height="24" viewBox="0 0 24 24" fill="none" xmlns="http://www.w3.org/2000/svg">
<path d="M12 2.00093C12.5777 1.99127 13.1515 2.09939 13.6865 2.31929C14.6882 2.77978 15.6652 3.29462 16.6123 3.86031C17.5664 4.41102 18.49 5.01379 19.3789 5.66597C20.1695 6.30337 20.96 7.63119 21.0391 8.66695C21.0391 8.66695 21.2236 10.2076 21.25 12.0322C21.2484 13.1589 21.1867 14.2851 21.0654 15.4052C20.8815 16.578 20.2824 17.6442 19.3789 18.4062C19.3636 18.4174 18.131 19.3146 16.6123 20.2382C15.6651 20.8036 14.688 21.3184 13.6865 21.7793C13.1523 22.0016 12.5779 22.1098 12 22.0976C11.4228 22.1098 10.8491 22.0043 10.3135 21.7871C9.31183 21.3266 8.33476 20.8118 7.3877 20.246C5.86473 19.3463 4.62964 18.4204 4.62109 18.414C4.05964 17.9613 3.49766 17.1605 3.18164 16.3632C3.12468 16.2195 3.23507 16.0693 3.38965 16.0693H4.67188C4.83879 16.0693 4.99183 16.161 5.08008 16.3027C5.32096 16.6894 5.61222 17.0355 5.90332 17.2685C5.92711 17.2862 6.94036 18.0397 8.1875 18.7714C8.96936 19.2352 9.77561 19.6566 10.6025 20.0341C11.0447 20.2122 11.5186 20.299 11.9951 20.289C12.4723 20.2991 12.9465 20.2096 13.3877 20.0273C14.2146 19.6494 15.0216 19.2282 15.8037 18.7646C17.0594 18.0062 18.0778 17.269 18.0879 17.2617C18.834 16.6368 19.3286 15.7625 19.4805 14.8007C19.5806 13.8822 19.6315 12.959 19.6328 12.0351C19.6111 10.539 19.459 9.27534 19.459 9.27534C19.3935 8.42612 18.7405 7.33799 18.0879 6.81538C17.3539 6.28054 16.5916 5.78553 15.8037 5.33394C15.0217 4.87002 14.2148 4.44878 13.3877 4.07124C12.9459 3.89091 12.4721 3.80162 11.9951 3.80952C11.518 3.79956 11.0436 3.88889 10.6025 4.07124C9.77574 4.44901 8.9695 4.87037 8.1875 5.33394C6.93249 6.09188 5.91466 6.80742 5.90332 6.81538C5.56927 7.09521 5.28463 7.42474 5.05957 7.78999C4.97052 7.93423 4.81702 8.02923 4.64746 8.02925H3.38379C3.23123 8.0292 3.12163 7.88256 3.17383 7.73921C3.46612 6.93765 3.96287 6.22115 4.62109 5.66597C4.62109 5.66597 5.85942 4.78975 7.3877 3.86031C8.33494 3.29489 9.31201 2.7801 10.3135 2.31929C10.8478 2.09693 11.4221 1.98871 12 2.00093ZM15.4121 12.6533C15.6341 12.6533 15.8143 12.8327 15.8145 13.0546V14.2607C15.8145 14.4827 15.6342 14.663 15.4121 14.663H3.15234C2.93034 14.663 2.75 14.4827 2.75 14.2607V12.6533H15.4121ZM9.38281 9.43745C9.60476 9.43752 9.78516 9.61784 9.78516 9.8398V11.0459C9.78489 11.2676 9.6046 11.4472 9.38281 11.4472H2.75V9.8398C2.75 9.6178 2.93034 9.43745 3.15234 9.43745H9.38281Z" fill="white"/>
</svg>
