<svg width="24" height="24" viewBox="0 0 24 24" fill="none" xmlns="http://www.w3.org/2000/svg">
<path d="M17.9346 2.00586C20.1991 2.12059 22 3.99313 22 6.28613V17.7139L21.9941 17.9346C21.8831 20.1261 20.1261 21.8831 17.9346 21.9941L17.7139 22H6.28613C3.99313 22 2.12059 20.1991 2.00586 17.9346L2 17.7139V6.28613C2 3.9192 3.9192 2 6.28613 2H17.7139L17.9346 2.00586ZM6.28613 4.85742H9.14258V7.71387H6.28613V10.5713H9.14258V13.4287H6.28613V16.2861H9.14258V19.1426H6.28613V20.5713H9.14258V19.1426H12V20.5713H17.7139C19.2918 20.5713 20.5713 19.2918 20.5713 17.7139V6.28613C20.5713 4.70818 19.2918 3.42871 17.7139 3.42871H12V4.85742H9.14258V3.42871H6.28613V4.85742ZM14.8574 19.1426H12V16.2861H14.8574V19.1426ZM12 16.2861H9.14258V13.4287H12V16.2861ZM17.7139 16.2861H14.8574V13.4287H17.7139V16.2861ZM14.8574 13.4287H12V10.5713H14.8574V13.4287ZM12 10.5713H9.14258V7.71387H12V10.5713ZM17.7139 10.5713H14.8574V7.71387H17.7139V10.5713ZM14.8574 7.71387H12V4.85742H14.8574V7.71387Z" fill="white"/>
</svg>
