<svg width="24" height="24" viewBox="0 0 24 24" fill="none" xmlns="http://www.w3.org/2000/svg">
<path d="M2.45936 10.9346C1.87357 11.5204 1.87357 12.4702 2.45936 13.056L4.93423 15.5308C5.52002 16.1166 6.46977 16.1166 7.05555 15.5308L9.53043 13.056C10.1162 12.4702 10.1162 11.5204 9.53043 10.9346L7.05555 8.45976C6.46977 7.87397 5.52002 7.87397 4.93423 8.45976L2.45936 10.9346Z" fill="white" fill-opacity="0.96"/>
<path d="M8.46977 16.945C7.88398 17.5308 7.88398 18.4806 8.46977 19.0664L10.9446 21.5412C11.5304 22.127 12.4802 22.127 13.066 21.5412L15.5408 19.0664C16.1266 18.4806 16.1266 17.5308 15.5408 16.945L13.066 14.4702C12.4802 13.8844 11.5304 13.8844 10.9446 14.4702L8.46977 16.945Z" fill="white" fill-opacity="0.96"/>
<path d="M8.46977 7.04554C7.88398 6.45976 7.88398 5.51001 8.46977 4.92422L10.9446 2.44935C11.5304 1.86356 12.4802 1.86356 13.066 2.44935L15.5408 4.92422C16.1266 5.51001 16.1266 6.45976 15.5408 7.04554L13.066 9.52042C12.4802 10.1062 11.5304 10.1062 10.9446 9.52042L8.46977 7.04554Z" fill="white" fill-opacity="0.96"/>
<path d="M14.4802 10.9346C13.8944 11.5204 13.8944 12.4702 14.4802 13.056L16.955 15.5308C17.5408 16.1166 18.4906 16.1166 19.0764 15.5308L21.5512 13.056C22.137 12.4702 22.137 11.5204 21.5512 10.9346L19.0764 8.45976C18.4906 7.87397 17.5408 7.87397 16.955 8.45976L14.4802 10.9346Z" fill="white" fill-opacity="0.96"/>
</svg>
