<svg width="24" height="24" viewBox="0 0 24 24" fill="none" xmlns="http://www.w3.org/2000/svg">
<path fill-rule="evenodd" clip-rule="evenodd" d="M21.0155 4.04034C21.3084 3.74745 21.3084 3.27257 21.0155 2.97968C20.7226 2.68679 20.2477 2.68679 19.9548 2.97968L18.554 4.38048C17.8819 4.08914 17.1227 3.92017 16.2866 3.92017C15.2259 3.92017 14.2823 4.33676 13.4856 4.88739C12.939 5.26518 12.442 5.71953 12 6.18139C11.558 5.71953 11.061 5.26518 10.5144 4.88738C9.71774 4.33676 8.77411 3.92017 7.71342 3.92017C4.16377 3.92017 2 6.966 2 9.48992C2 11.6601 3.02813 13.6968 4.42451 15.4908C4.85681 16.0463 5.32992 16.5855 5.8285 17.106L2.98425 19.9502C2.69135 20.2431 2.69135 20.718 2.98425 21.0109C3.27714 21.3038 3.75201 21.3038 4.04491 21.0109L21.0155 4.04034ZM6.88939 16.0451L17.3751 5.5594C17.0353 5.46948 16.6718 5.42017 16.2866 5.42017C15.6294 5.42017 14.9804 5.67766 14.3385 6.12132C13.6953 6.56587 13.1014 7.16851 12.5687 7.78808L12 8.44952L11.4313 7.78808C10.8986 7.16851 10.3047 6.56587 9.66151 6.12133C9.01962 5.67766 8.37056 5.42017 7.71342 5.42017C5.11129 5.42017 3.5 7.6701 3.5 9.48992C3.5 11.1854 4.30895 12.9002 5.60823 14.5695C6.0001 15.073 6.43137 15.5656 6.88939 16.0451ZM19.8222 7.35479L20.8985 6.2785C21.6132 7.26252 22 8.42286 22 9.48992C22 11.6601 20.9719 13.6968 19.5755 15.4908C18.1738 17.2917 16.343 18.9227 14.6064 20.2947L14.5116 20.3697C13.8863 20.8645 13.4127 21.2393 12.8094 21.4046C12.3046 21.5429 11.6954 21.5429 11.1906 21.4046C10.5874 21.2393 10.1137 20.8645 9.4884 20.3697L9.48837 20.3697L9.39357 20.2947C8.93748 19.9344 8.4749 19.5562 8.0153 19.1617L9.0792 18.0978C9.49105 18.4491 9.90802 18.7895 10.3235 19.1177C11.0861 19.7202 11.3135 19.8829 11.5871 19.9579C11.8324 20.0251 12.1676 20.0251 12.4129 19.9579C12.6865 19.8829 12.9139 19.7202 13.6765 19.1177C15.3743 17.7764 17.0978 16.232 18.3918 14.5695C19.6911 12.9002 20.5 11.1854 20.5 9.48992C20.5 8.79104 20.2624 8.02874 19.8222 7.35479Z" fill="white" fill-opacity="0.96"/>
</svg>
