<svg width="24" height="24" viewBox="0 0 24 24" fill="none" xmlns="http://www.w3.org/2000/svg">
<path d="M19.4403 2.46963C19.7332 2.17681 20.208 2.17676 20.5009 2.46963C20.7936 2.76252 20.7937 3.23734 20.5009 3.53018L3.53018 20.5009C3.23734 20.7937 2.76252 20.7936 2.46963 20.5009C2.17677 20.208 2.17681 19.7332 2.46963 19.4403L6.31729 15.5917C4.41953 13.5332 2.99991 11.2209 2.99991 8.81924C3.00009 6.64751 4.88724 4.00008 7.9628 3.99991C9.68063 3.99991 11.1487 5.34805 12.2499 6.62881C13.351 5.34813 14.8183 4.00003 16.536 3.99991C16.9678 3.99991 17.3757 4.0546 17.7587 4.1503L19.4403 2.46963Z" fill="white"/>
<path d="M20.3505 5.80167C21.093 6.70211 21.4998 7.81181 21.4999 8.81924C21.4999 12.6849 17.8258 16.3227 14.3915 19.036C13.6738 19.603 13.3145 19.8863 12.8612 20.0107C12.4862 20.1134 12.0136 20.1134 11.6386 20.0107C11.1851 19.8864 10.8261 19.6031 10.1083 19.036C9.56426 18.6062 9.01406 18.153 8.47354 17.6796L20.3505 5.80167Z" fill="white"/>
</svg>
