<svg width="24" height="24" viewBox="0 0 24 24" fill="none" xmlns="http://www.w3.org/2000/svg">
<path fill-rule="evenodd" clip-rule="evenodd" d="M11 4.5H13C13.2761 4.5 13.5 4.72386 13.5 5V7C13.5 7.27614 13.2761 7.5 13 7.5H11C10.7239 7.5 10.5 7.27614 10.5 7V5C10.5 4.72386 10.7239 4.5 11 4.5ZM9 5C9 3.89543 9.89543 3 11 3H13C14.1046 3 15 3.89543 15 5V7C15 8.10457 14.1046 9 13 9H12.75V11.25H17.5C18.7426 11.25 19.75 12.2574 19.75 13.5V15H20C21.1046 15 22 15.8954 22 17V19C22 20.1046 21.1046 21 20 21H18C16.8954 21 16 20.1046 16 19V17C16 15.8954 16.8954 15 18 15H18.25V13.5C18.25 13.0858 17.9142 12.75 17.5 12.75H12.75V15H13C14.1046 15 15 15.8954 15 17V19C15 20.1046 14.1046 21 13 21H11C9.89543 21 9 20.1046 9 19V17C9 15.8954 9.89543 15 11 15H11.25V12.75H6.5C6.08579 12.75 5.75 13.0858 5.75 13.5V15H6C7.10457 15 8 15.8954 8 17V19C8 20.1046 7.10457 21 6 21H4C2.89543 21 2 20.1046 2 19V17C2 15.8954 2.89543 15 4 15H4.25V13.5C4.25 12.2574 5.25736 11.25 6.5 11.25H11.25V9H11C9.89543 9 9 8.10457 9 7V5ZM4 16.5C3.72386 16.5 3.5 16.7239 3.5 17V19C3.5 19.2761 3.72386 19.5 4 19.5H6C6.27614 19.5 6.5 19.2761 6.5 19V17C6.5 16.7239 6.27614 16.5 6 16.5H4ZM18 16.5C17.7239 16.5 17.5 16.7239 17.5 17V19C17.5 19.2761 17.7239 19.5 18 19.5H20C20.2761 19.5 20.5 19.2761 20.5 19V17C20.5 16.7239 20.2761 16.5 20 16.5H18ZM11 16.5H13C13.2761 16.5 13.5 16.7239 13.5 17V19C13.5 19.2761 13.2761 19.5 13 19.5H11C10.7239 19.5 10.5 19.2761 10.5 19V17C10.5 16.7239 10.7239 16.5 11 16.5Z" fill="white"/>
</svg>
