<svg width="24" height="24" viewBox="0 0 24 24" fill="none" xmlns="http://www.w3.org/2000/svg">
<path d="M11.609 3.65147C11.8651 3.58232 12.135 3.58232 12.3911 3.65147C12.6459 3.72027 12.9023 3.90114 13.7459 4.55489L21.5406 10.5958C21.868 10.8496 22.3391 10.7898 22.5928 10.4624C22.8466 10.135 22.7869 9.66393 22.4595 9.41019L14.5512 3.28116C13.8745 2.75588 13.3657 2.36093 12.7821 2.20333C12.2699 2.06504 11.7302 2.06504 11.218 2.20333C10.6343 2.36093 10.1256 2.75588 9.4489 3.28117L1.54061 9.41019C1.21321 9.66393 1.15349 10.135 1.40722 10.4624C1.66096 10.7898 2.13206 10.8496 2.45946 10.5958L10.2542 4.55489C11.0978 3.90114 11.3542 3.72027 11.609 3.65147Z" fill="white"/>
<path fill-rule="evenodd" clip-rule="evenodd" d="M4.50004 12.003C4.50004 11.5888 4.16425 11.253 3.75004 11.253C3.33582 11.253 3.00004 11.5888 3.00004 12.003L3.00004 17.684C3.00003 18.2877 3.00002 18.786 3.03318 19.1919C3.06762 19.6134 3.14155 20.001 3.32702 20.365C3.61464 20.9295 4.07358 21.3884 4.63806 21.676C5.00207 21.8615 5.38959 21.9354 5.81117 21.9699C6.21706 22.003 6.71532 22.003 7.31904 22.003H16.681C17.2847 22.003 17.783 22.003 18.1889 21.9699C18.6105 21.9354 18.998 21.8615 19.362 21.676C19.9265 21.3884 20.3854 20.9295 20.6731 20.365C20.8585 20.001 20.9324 19.6134 20.9669 19.1919C21.0001 18.786 21 18.2877 21 17.684V12.003C21 11.5888 20.6642 11.253 20.25 11.253C19.8358 11.253 19.5 11.5888 19.5 12.003V17.653C19.5 18.2954 19.4995 18.7322 19.4719 19.0697C19.445 19.3985 19.3963 19.5667 19.3365 19.684C19.1927 19.9662 18.9633 20.1957 18.681 20.3395C18.5637 20.3993 18.3956 20.448 18.0668 20.4748C17.7292 20.5024 17.2925 20.503 16.65 20.503H15.5V15.503C15.5 13.57 13.933 12.003 12 12.003C10.067 12.003 8.50004 13.57 8.50004 15.503V20.503H7.35004C6.7076 20.503 6.27088 20.5024 5.93331 20.4748C5.6045 20.448 5.43635 20.3993 5.31905 20.3395C5.03681 20.1957 4.80734 19.9662 4.66353 19.684C4.60376 19.5667 4.55506 19.3985 4.5282 19.0697C4.50062 18.7322 4.50004 18.2954 4.50004 17.653V12.003ZM14 15.503V20.503H10V15.503C10 14.3984 10.8955 13.503 12 13.503C13.1046 13.503 14 14.3984 14 15.503Z" fill="white"/>
</svg>
