<svg width="24" height="24" viewBox="0 0 24 24" fill="none" xmlns="http://www.w3.org/2000/svg">
<path fill-rule="evenodd" clip-rule="evenodd" d="M7.77 7.9998H2.83C4.23 4.7698 7.3 2.4298 10.94 2.0498C10.89 2.1098 10.83 2.1798 10.78 2.2498C10.38 2.7498 9.85 3.4698 9.32 4.3898C8.75 5.3798 8.17 6.5998 7.77 7.9998ZM13.21 2.2498C13.16 2.1798 13.1 2.1098 13.05 2.0498C16.69 2.4298 19.76 4.7698 21.16 7.9998H16.22C15.82 6.5998 15.24 5.3798 14.67 4.3898C14.14 3.4698 13.61 2.7498 13.21 2.2498ZM13.37 5.1398C13.84 5.9498 14.3 6.9098 14.65 7.9998H9.34C9.69 6.9098 10.15 5.9498 10.62 5.1398C11.1 4.2998 11.58 3.6398 11.95 3.1898C12.31 3.6398 12.89 4.2998 13.37 5.1398ZM7.41 14.4898H2.31C2.1 13.6898 2 12.8598 2 11.9898C2 11.1298 2.1 10.2998 2.31 9.4998H7.41C7.27 10.2898 7.19 11.1198 7.19 11.9898C7.19 12.8698 7.27 13.6998 7.41 14.4898ZM8.69 11.9898C8.69 11.1198 8.78 10.2898 8.94 9.4998H15.05C15.17 10.0998 15.25 10.7298 15.28 11.3798C13.75 11.9398 12.48 13.0598 11.73 14.4898H8.94C8.78 13.6998 8.69 12.8698 8.69 11.9898ZM21.97 12.7798C21.99 12.5198 22 12.2598 22 11.9898C22 11.1298 21.89 10.2998 21.68 9.4998H16.58C16.66 9.9998 16.73 10.5098 16.77 11.0398C17 11.0098 17.25 10.9998 17.5 10.9998C19.23 10.9998 20.8 11.6698 21.97 12.7798ZM17.5 11.9998C20.53 11.9998 23 14.4598 23 17.4998C23 20.5298 20.53 22.9998 17.5 22.9998C14.46 22.9998 12 20.5298 12 17.4998C12 14.4598 14.46 11.9998 17.5 11.9998ZM16.56 13.8598C16.26 13.8598 16.02 14.0998 16.02 14.3898V17.0798H15.49C15.19 17.0798 14.95 17.3198 14.95 17.6098C14.95 17.9098 15.19 18.1498 15.49 18.1498H16.02V18.8598H15.49C15.19 18.8598 14.95 19.0998 14.95 19.3998C14.95 19.6998 15.19 19.9398 15.49 19.9398H16.02V21.0098C16.02 21.2998 16.26 21.5398 16.56 21.5398C16.86 21.5398 17.09 21.2998 17.1 21.0098V19.9398H18.35L18.46 19.9198C18.7 19.8698 18.88 19.6598 18.88 19.3998C18.88 19.1398 18.7 18.9198 18.46 18.8698L18.35 18.8598H17.1V18.1498H18.17C19.35 18.1498 20.31 17.1898 20.31 15.9998C20.31 14.8198 19.35 13.8598 18.17 13.8598H16.56ZM18.17 14.9298C18.76 14.9298 19.24 15.4098 19.24 15.9998C19.24 16.5998 18.76 17.0798 18.17 17.0798H17.1V14.9298H18.17ZM10.78 21.7398C10.83 21.8098 10.89 21.8798 10.94 21.9398C7.3 21.5598 4.23 19.2198 2.83 15.9898H7.77C8.17 17.3898 8.75 18.6098 9.32 19.5998C9.85 20.5198 10.38 21.2398 10.78 21.7398ZM11.17 15.9898H9.34C9.69 17.0798 10.15 18.0398 10.62 18.8498C11.03 19.5598 11.43 20.1398 11.77 20.5698C11.27 19.6598 11 18.6098 11 17.4998C11 16.9798 11.06 16.4698 11.17 15.9898Z" fill="white"/>
</svg>
