<svg width="24" height="24" viewBox="0 0 24 24" fill="none" xmlns="http://www.w3.org/2000/svg">
<path fill-rule="evenodd" clip-rule="evenodd" d="M17.5 12C20.5376 12 23 14.4624 23 17.5C23 20.5376 20.5376 23 17.5 23C14.4624 23 12 20.5376 12 17.5C12 14.4624 14.4624 12 17.5 12ZM15.4922 13.8838C15.1962 13.8839 14.9561 14.1239 14.9561 14.4199C14.9561 14.716 15.1962 14.9559 15.4922 14.9561H16.9219C17.3345 14.9561 17.6377 15.1374 17.8486 15.3896C17.9229 15.4785 17.9832 15.5746 18.0312 15.6709H15.8496C15.5538 15.6711 15.3137 15.9112 15.3135 16.207C15.3135 16.5031 15.5536 16.743 15.8496 16.7432H18.0322C17.9841 16.8399 17.9232 16.9362 17.8486 17.0254C17.6377 17.2776 17.3345 17.459 16.9219 17.459H15.4922C15.457 17.459 15.4214 17.4618 15.3867 17.4688C15.3663 17.4728 15.3467 17.48 15.3271 17.4863C15.3142 17.4905 15.3007 17.4938 15.2881 17.499C15.1567 17.5532 15.0506 17.6579 14.9961 17.7891C14.9892 17.8057 14.9856 17.8237 14.9805 17.8408C14.9658 17.8898 14.9561 17.9414 14.9561 17.9951C14.9561 18.0525 14.9667 18.1073 14.9834 18.1592C14.9876 18.1722 14.9909 18.1855 14.9961 18.1982C15.0233 18.2645 15.0634 18.3242 15.1133 18.374L17.9727 21.2344L18.0566 21.3027C18.2648 21.4404 18.5481 21.4176 18.7314 21.2344C18.9148 21.051 18.9375 20.7678 18.7998 20.5596L18.7314 20.4756L16.7861 18.5312H16.9219C17.6936 18.5312 18.2842 18.1754 18.6709 17.7129C18.9141 17.4219 19.0827 17.0805 19.1719 16.7432H19.7822L19.8906 16.7324C20.1348 16.6823 20.3183 16.466 20.3184 16.207C20.3181 15.9482 20.1346 15.7318 19.8906 15.6816L19.7822 15.6709H19.1719C19.1075 15.4275 19.0009 15.183 18.8555 14.9561H19.7822L19.8906 14.9453C20.1348 14.8952 20.3183 14.6789 20.3184 14.4199C20.3183 14.1609 20.1348 13.9447 19.8906 13.8945L19.7822 13.8838H15.4922Z" fill="white"/>
<path fill-rule="evenodd" clip-rule="evenodd" d="M12 2C17.5228 2 22 6.47715 22 12C22 12.2623 21.9866 12.5221 21.9668 12.7793C21.2185 12.071 20.3019 11.5401 19.2832 11.25H20.4648C20.2857 9.20159 19.3828 7.36091 18.0098 5.98828C17.5982 6.29862 17.1616 6.5765 16.7041 6.82129C17.1184 8.06299 17.3858 9.4814 17.4688 11C16.955 11.0024 16.4556 11.0656 15.9766 11.1807C15.9094 9.79811 15.6767 8.52638 15.3252 7.42969C14.5099 7.71768 13.6469 7.90209 12.75 7.96875V11.25H15.7168C14.7125 11.536 13.8079 12.0566 13.0654 12.75H12.75V13.0645C12.0565 13.8068 11.5361 14.7116 11.25 15.7158V12.75H8.01855C8.07948 14.1228 8.30457 15.3882 8.64648 16.4834C9.4489 16.2242 10.2951 16.0622 11.1719 16.0146C11.0603 16.4918 11 16.9889 11 17.5C11 17.5101 11 17.5202 11 17.5303C10.3746 17.5828 9.76886 17.7039 9.18945 17.8848C9.26559 18.0453 9.3433 18.2004 9.4248 18.3486C10.0266 19.4428 10.6723 20.0449 11.25 20.3174V19.2832C11.5401 20.3019 12.071 21.2185 12.7793 21.9668C12.5221 21.9866 12.2623 22 12 22C6.47715 22 2 17.5228 2 12C2 6.47715 6.47715 2 12 2ZM7.80176 18.458C7.54108 18.5939 7.28793 18.7421 7.04395 18.9033C7.50741 19.2366 8.00546 19.524 8.53223 19.7598C8.26722 19.3677 8.02246 18.9319 7.80176 18.458ZM3.53516 12.75C3.70911 14.7391 4.56715 16.5307 5.87402 17.8896C6.30886 17.5756 6.76855 17.2937 7.25195 17.0518C6.83925 15.7722 6.58026 14.3109 6.5166 12.75H3.53516ZM5.9873 5.99023C4.6156 7.36261 3.71418 9.2028 3.53516 11.25H6.5166C6.58237 9.63731 6.85619 8.13069 7.29297 6.82129C6.83584 6.57673 6.39855 6.30025 5.9873 5.99023ZM8.67285 7.43066C8.31578 8.54536 8.08108 9.8412 8.01855 11.25H11.25V7.96973C10.3526 7.9031 9.48871 7.71871 8.67285 7.43066ZM11.25 3.68164C10.6722 3.95401 10.0267 4.55701 9.4248 5.65137C9.35705 5.77456 9.29162 5.90241 9.22754 6.03418C9.87041 6.25646 10.5475 6.40521 11.25 6.4668V3.68164ZM12.75 6.4668C13.452 6.40513 14.1291 6.25747 14.7715 6.03516C14.7073 5.90324 14.643 5.77468 14.5752 5.65137C13.9733 4.55699 13.3278 3.954 12.75 3.68164V6.4668ZM8.53223 4.23926C8.05741 4.45175 7.60555 4.70578 7.18164 4.99805C7.40048 5.14912 7.62637 5.29044 7.85938 5.4209C8.06499 4.99338 8.28979 4.59786 8.53223 4.23926ZM15.4668 4.23926C15.709 4.59755 15.9351 4.99184 16.1406 5.41895C16.373 5.28875 16.5981 5.14772 16.8164 4.99707C16.3928 4.70515 15.9412 4.45152 15.4668 4.23926Z" fill="white"/>
</svg>
