<svg width="24" height="24" viewBox="0 0 24 24" fill="none" xmlns="http://www.w3.org/2000/svg">
<path d="M18.1738 14.9355C18.7659 14.9358 19.2459 15.4158 19.2461 16.0078C19.2461 16.6 18.766 17.0808 18.1738 17.0811H17.1006V14.9355H18.1738Z" fill="white"/>
<path fill-rule="evenodd" clip-rule="evenodd" d="M17.5 12C20.5376 12 23 14.4624 23 17.5C23 20.5376 20.5376 23 17.5 23C14.4624 23 12 20.5376 12 17.5C12 14.4624 14.4624 12 17.5 12ZM16.5645 13.8633C16.2685 13.8636 16.0283 14.1034 16.0283 14.3994V17.0811H15.4922C15.1962 17.0812 14.9561 17.3211 14.9561 17.6172C14.9562 17.9131 15.1963 18.1532 15.4922 18.1533H16.0283V18.8682H15.4922C15.1962 18.8683 14.9561 19.1083 14.9561 19.4043C14.9561 19.7003 15.1962 19.9403 15.4922 19.9404H16.0283V21.0127C16.0283 21.3087 16.2685 21.5495 16.5645 21.5498C16.8606 21.5498 17.1006 21.3088 17.1006 21.0127V19.9404H18.3525L18.46 19.9297C18.7044 19.8798 18.8887 19.6635 18.8887 19.4043C18.8886 19.1451 18.7044 18.9288 18.46 18.8789L18.3525 18.8682H17.1006V18.1533H18.1738C19.3583 18.1531 20.3183 17.1923 20.3184 16.0078C20.3182 14.8235 19.3582 13.8635 18.1738 13.8633H16.5645Z" fill="white"/>
<path fill-rule="evenodd" clip-rule="evenodd" d="M12 2C17.5228 2 22 6.47715 22 12C22 12.2623 21.9866 12.5221 21.9668 12.7793C21.2185 12.071 20.3019 11.5401 19.2832 11.25H20.4648C20.2857 9.20159 19.3828 7.36091 18.0098 5.98828C17.5982 6.29862 17.1616 6.5765 16.7041 6.82129C17.1184 8.06299 17.3858 9.4814 17.4688 11C16.955 11.0024 16.4556 11.0656 15.9766 11.1807C15.9094 9.79811 15.6767 8.52638 15.3252 7.42969C14.5099 7.71768 13.6469 7.90209 12.75 7.96875V11.25H15.7168C14.7125 11.536 13.8079 12.0566 13.0654 12.75H12.75V13.0645C12.0565 13.8068 11.5361 14.7116 11.25 15.7158V12.75H8.01855C8.07948 14.1228 8.30457 15.3882 8.64648 16.4834C9.4489 16.2242 10.2951 16.0622 11.1719 16.0146C11.0603 16.4918 11 16.9889 11 17.5C11 17.5101 11 17.5202 11 17.5303C10.3746 17.5828 9.76886 17.7039 9.18945 17.8848C9.26559 18.0453 9.3433 18.2004 9.4248 18.3486C10.0266 19.4428 10.6723 20.0449 11.25 20.3174V19.2832C11.5401 20.3019 12.071 21.2185 12.7793 21.9668C12.5221 21.9866 12.2623 22 12 22C6.47715 22 2 17.5228 2 12C2 6.47715 6.47715 2 12 2ZM7.80176 18.458C7.54108 18.5939 7.28793 18.7421 7.04395 18.9033C7.50741 19.2366 8.00546 19.524 8.53223 19.7598C8.26722 19.3677 8.02246 18.9319 7.80176 18.458ZM3.53516 12.75C3.70911 14.7391 4.56715 16.5307 5.87402 17.8896C6.30886 17.5756 6.76855 17.2937 7.25195 17.0518C6.83925 15.7722 6.58026 14.3109 6.5166 12.75H3.53516ZM5.9873 5.99023C4.6156 7.36261 3.71418 9.2028 3.53516 11.25H6.5166C6.58237 9.63731 6.85619 8.13069 7.29297 6.82129C6.83584 6.57673 6.39855 6.30025 5.9873 5.99023ZM8.67285 7.43066C8.31578 8.54536 8.08108 9.8412 8.01855 11.25H11.25V7.96973C10.3526 7.9031 9.48871 7.71871 8.67285 7.43066ZM11.25 3.68164C10.6722 3.95401 10.0267 4.55701 9.4248 5.65137C9.35705 5.77456 9.29162 5.90241 9.22754 6.03418C9.87041 6.25646 10.5475 6.40521 11.25 6.4668V3.68164ZM12.75 6.4668C13.452 6.40513 14.1291 6.25747 14.7715 6.03516C14.7073 5.90324 14.643 5.77468 14.5752 5.65137C13.9733 4.55699 13.3278 3.954 12.75 3.68164V6.4668ZM8.53223 4.23926C8.05741 4.45175 7.60555 4.70578 7.18164 4.99805C7.40048 5.14912 7.62637 5.29044 7.85938 5.4209C8.06499 4.99338 8.28979 4.59786 8.53223 4.23926ZM15.4668 4.23926C15.709 4.59755 15.9351 4.99184 16.1406 5.41895C16.373 5.28875 16.5981 5.14772 16.8164 4.99707C16.3928 4.70515 15.9412 4.45152 15.4668 4.23926Z" fill="white"/>
</svg>
