<svg width="24" height="24" viewBox="0 0 24 24" fill="none" xmlns="http://www.w3.org/2000/svg">
<path fill-rule="evenodd" clip-rule="evenodd" d="M17.5 12C20.5376 12 23 14.4624 23 17.5C23 20.5376 20.5376 23 17.5 23C14.4624 23 12 20.5376 12 17.5C12 14.4624 14.4624 12 17.5 12ZM17.5 13.5C17.2239 13.5 17 13.7239 17 14V14.5654C16.1537 14.6757 15.5 15.399 15.5 16.2754C15.5002 17.2278 16.2722 17.9998 17.2246 18H17.7754C18.1755 18.0002 18.4998 18.3245 18.5 18.7246C18.5 19.1249 18.1756 19.45 17.7754 19.4502H16.333C16.057 19.4504 15.833 19.6742 15.833 19.9502C15.8331 20.2261 16.0571 20.45 16.333 20.4502H17V21C17 21.2761 17.2239 21.5 17.5 21.5C17.7761 21.5 18 21.2761 18 21V20.4336C18.8463 20.3232 19.5 19.601 19.5 18.7246C19.4998 17.7722 18.7278 17.0002 17.7754 17H17.2246C16.8245 16.9998 16.5002 16.6755 16.5 16.2754C16.5 15.8751 16.8244 15.55 17.2246 15.5498H18.667L18.7676 15.54C18.9954 15.4934 19.167 15.2914 19.167 15.0498C19.1669 14.8083 18.9953 14.6072 18.7676 14.5605L18.667 14.5498H18V14C18 13.7239 17.7761 13.5 17.5 13.5Z" fill="white"/>
<path fill-rule="evenodd" clip-rule="evenodd" d="M12.5146 2.0127C17.7981 2.28061 21.9998 6.64997 22 12C22 12.2622 21.9866 12.5222 21.9668 12.7793C21.2185 12.071 20.3019 11.5401 19.2832 11.25H20.4648C20.2857 9.20171 19.3827 7.36089 18.0098 5.98828C17.5983 6.29859 17.1615 6.57652 16.7041 6.82129C17.1183 8.0629 17.3858 9.48155 17.4688 11C16.955 11.0024 16.4556 11.0656 15.9766 11.1807C15.9094 9.79827 15.6766 8.5263 15.3252 7.42969C14.51 7.71767 13.6468 7.9011 12.75 7.96777V11.25H15.7168C14.7125 11.536 13.8079 12.0566 13.0654 12.75H12.75V13.0645C12.0565 13.8068 11.5361 14.7116 11.25 15.7158V12.75H8.01855C8.07951 14.1227 8.3046 15.3883 8.64648 16.4834C9.4489 16.2243 10.2951 16.0622 11.1719 16.0146C11.0603 16.4918 11 16.9889 11 17.5C11 17.5101 11 17.5202 11 17.5303C10.3747 17.583 9.76885 17.7039 9.18945 17.8848C9.26549 18.0451 9.34343 18.2007 9.4248 18.3486C10.0264 19.4423 10.6725 20.0439 11.25 20.3164V19.2832C11.5401 20.3019 12.071 21.2185 12.7793 21.9668C12.5221 21.9866 12.2623 22 12 22C6.47734 21.9999 2.0002 17.5226 2 12C2.0002 6.47737 6.47734 2.00007 12 2L12.5146 2.0127ZM7.80176 18.457C7.54112 18.5929 7.2879 18.7412 7.04395 18.9023C7.50747 19.2357 8.00538 19.524 8.53223 19.7598C8.26714 19.3675 8.02252 18.9311 7.80176 18.457ZM3.53516 12.75C3.70916 14.7387 4.56751 16.5298 5.87402 17.8887C6.30871 17.5748 6.76874 17.2936 7.25195 17.0518C6.83929 15.7723 6.58028 14.3107 6.5166 12.75H3.53516ZM5.9873 5.99023C4.61566 7.36259 3.71418 9.20287 3.53516 11.25H6.5166C6.58237 9.63743 6.85624 8.13062 7.29297 6.82129C6.83593 6.57678 6.39847 6.30017 5.9873 5.99023ZM8.67285 7.43066C8.31584 8.54529 8.08107 9.84133 8.01855 11.25H11.25V7.96875C10.3527 7.90213 9.48862 7.71866 8.67285 7.43066ZM11.25 3.68164C10.6723 3.954 10.0267 4.55717 9.4248 5.65137C9.35709 5.77449 9.29158 5.90249 9.22754 6.03418C9.87034 6.25642 10.5476 6.40522 11.25 6.4668V3.68164ZM12.75 6.46582C13.452 6.40414 14.1291 6.25745 14.7715 6.03516C14.7074 5.90336 14.643 5.77458 14.5752 5.65137C13.9734 4.55736 13.3277 3.95403 12.75 3.68164V6.46582ZM8.53027 4.24023C8.05595 4.45265 7.60417 4.706 7.18066 4.99805C7.39963 5.14923 7.62623 5.29036 7.85938 5.4209C8.06465 4.99408 8.28829 4.59837 8.53027 4.24023ZM15.4668 4.23926C15.709 4.59747 15.9352 4.99196 16.1406 5.41895C16.3729 5.28877 16.5982 5.1477 16.8164 4.99707C16.3928 4.7052 15.9412 4.4515 15.4668 4.23926Z" fill="white"/>
</svg>
