<svg width="24" height="24" viewBox="0 0 24 24" fill="none" xmlns="http://www.w3.org/2000/svg">
<path fill-rule="evenodd" clip-rule="evenodd" d="M2.53 8.75C3.88 4.82 7.61 2 12 2C16.38 2 20.11 4.82 21.46 8.75C21.81 9.77 22 10.86 22 12C22 12.26 21.99 12.52 21.97 12.78C21.53 12.36 21.03 12.01 20.49 11.73C20.47 11.04 20.37 10.38 20.19 9.75H16.3C16.37 10.17 16.43 10.62 16.46 11.08C15.95 11.16 15.45 11.3 14.98 11.5C14.96 10.89 14.88 10.3 14.77 9.75H9.22C9.08 10.45 9 11.21 9 12C9 12.78 9.08 13.54 9.22 14.25H11.86C11.59 14.71 11.38 15.21 11.23 15.75H9.61C9.94 16.72 10.35 17.58 10.77 18.31C10.9 18.53 11.03 18.74 11.16 18.94C11.42 20.1 11.99 21.13 12.78 21.96C12.52 21.98 12.26 22 12 22C7.61 22 3.88 19.17 2.53 15.24C2.18 14.22 2 13.13 2 12C2 10.86 2.18 9.77 2.53 8.75ZM19.63 8.25H15.95C15.57 6.96 15.04 5.84 14.52 4.93C14.24 4.45 13.97 4.03 13.71 3.67C16.31 4.2 18.48 5.92 19.63 8.25ZM4.36 8.25H8.04C8.42 6.96 8.95 5.84 9.47 4.93C9.75 4.45 10.02 4.03 10.28 3.67C7.68 4.2 5.51 5.92 4.36 8.25ZM12 3.89C11.66 4.3 11.22 4.91 10.77 5.68C10.35 6.41 9.94 7.27 9.61 8.25H14.38C14.05 7.27 13.64 6.41 13.22 5.68C12.77 4.91 12.33 4.3 12 3.89ZM3.8 14.25H7.69C7.57 13.53 7.5 12.78 7.5 12C7.5 11.21 7.57 10.46 7.69 9.75H3.8C3.6 10.46 3.5 11.22 3.5 12C3.5 12.77 3.6 13.53 3.8 14.25ZM17.5 12C20.53 12 23 14.46 23 17.5C23 20.53 20.53 23 17.5 23C14.46 23 12 20.53 12 17.5C12 14.46 14.46 12 17.5 12ZM16.56 13.86C16.26 13.86 16.02 14.1 16.02 14.39V17.08H15.49C15.19 17.08 14.95 17.32 14.95 17.61C14.95 17.91 15.19 18.15 15.49 18.15H16.02V18.86H15.49C15.19 18.86 14.95 19.1 14.95 19.4C14.95 19.7 15.19 19.94 15.49 19.94H16.02V21.01C16.02 21.3 16.26 21.54 16.56 21.54C16.86 21.54 17.09 21.3 17.1 21.01V19.94H18.35L18.46 19.92C18.7 19.87 18.88 19.66 18.88 19.4C18.88 19.14 18.7 18.92 18.46 18.87L18.35 18.86H17.1V18.15H18.17C19.35 18.15 20.31 17.19 20.31 16C20.31 14.82 19.35 13.86 18.17 13.86H16.56ZM18.17 14.93C18.76 14.93 19.24 15.41 19.24 16C19.24 16.6 18.76 17.08 18.17 17.08H17.1V14.93H18.17ZM10.28 20.32C10.02 19.96 9.75 19.54 9.47 19.06C8.95 18.15 8.42 17.03 8.04 15.75H4.36C5.51 18.07 7.68 19.79 10.28 20.32Z" fill="white"/>
</svg>
