<svg width="24" height="24" viewBox="0 0 24 24" fill="none" xmlns="http://www.w3.org/2000/svg">
<path fill-rule="evenodd" clip-rule="evenodd" d="M7.77 7.9998H2.83C4.23 4.7698 7.3 2.4298 10.94 2.0498C10.89 2.1098 10.83 2.1798 10.78 2.2498C10.38 2.7498 9.85 3.4698 9.32 4.3898C8.75 5.3798 8.17 6.5998 7.77 7.9998ZM13.21 2.2498C13.16 2.1798 13.1 2.1098 13.05 2.0498C16.69 2.4298 19.76 4.7698 21.16 7.9998H16.22C15.82 6.5998 15.24 5.3798 14.67 4.3898C14.14 3.4698 13.61 2.7498 13.21 2.2498ZM13.37 5.1398C13.84 5.9498 14.3 6.9098 14.65 7.9998H9.34C9.69 6.9098 10.15 5.9498 10.62 5.1398C11.1 4.2998 11.58 3.6398 11.95 3.1898C12.31 3.6398 12.89 4.2998 13.37 5.1398ZM7.41 14.4898H2.31C2.1 13.6898 2 12.8598 2 11.9898C2 11.1298 2.1 10.2998 2.31 9.4998H7.41C7.27 10.2898 7.19 11.1198 7.19 11.9898C7.19 12.8698 7.27 13.6998 7.41 14.4898ZM8.69 11.9898C8.69 11.1198 8.78 10.2898 8.94 9.4998H15.05C15.17 10.0998 15.25 10.7298 15.28 11.3798C13.75 11.9398 12.48 13.0598 11.73 14.4898H8.94C8.78 13.6998 8.69 12.8698 8.69 11.9898ZM21.97 12.7798C21.99 12.5198 22 12.2598 22 11.9898C22 11.1298 21.89 10.2998 21.68 9.4998H16.58C16.66 9.9998 16.73 10.5098 16.77 11.0398C17 11.0098 17.25 10.9998 17.5 10.9998C19.23 10.9998 20.8 11.6698 21.97 12.7798ZM23 17.4998C23 14.4598 20.53 11.9998 17.5 11.9998C14.46 11.9998 12 14.4598 12 17.4998C12 20.5298 14.46 22.9998 17.5 22.9998C20.53 22.9998 23 20.5298 23 17.4998ZM14.95 14.4098C14.95 14.1198 15.19 13.8798 15.49 13.8798H19.78L19.89 13.8898C20.13 13.9398 20.31 14.1598 20.31 14.4098C20.31 14.6698 20.13 14.8898 19.89 14.9398L19.78 14.9498H18.85C19 15.1798 19.1 15.4198 19.17 15.6698H19.78L19.89 15.6798C20.13 15.7298 20.31 15.9398 20.31 16.1998C20.31 16.4598 20.13 16.6798 19.89 16.7298L19.78 16.7398H19.17C19.08 17.0798 18.91 17.4198 18.67 17.7098C18.28 18.1698 17.69 18.5298 16.92 18.5298H16.78L18.73 20.4698C18.86 20.6798 18.91 21.0498 18.73 21.2298C18.54 21.4098 18.26 21.4398 18.05 21.2998L15.11 18.3698C15.06 18.3198 15.02 18.2598 14.99 18.1898C14.97 18.1398 14.95 18.0498 14.95 17.9898C14.95 17.9398 14.96 17.8798 14.98 17.8398C15.03 17.6998 15.15 17.5498 15.28 17.4898C15.32 17.4898 15.45 17.4498 15.49 17.4498H16.92C17.33 17.4498 17.63 17.2698 17.84 17.0198C17.92 16.9298 17.98 16.8398 18.03 16.7398H15.84C15.55 16.7398 15.31 16.4998 15.31 16.1998C15.31 15.9098 15.55 15.6698 15.84 15.6698H18.03C17.98 15.5698 17.92 15.4698 17.84 15.3798C17.63 15.1298 17.33 14.9498 16.92 14.9498H15.49C15.19 14.9498 14.95 14.7098 14.95 14.4098ZM10.78 21.7398C10.83 21.8098 10.89 21.8798 10.94 21.9398C7.3 21.5598 4.23 19.2198 2.83 15.9898H7.77C8.17 17.3898 8.75 18.6098 9.32 19.5998C9.85 20.5198 10.38 21.2398 10.78 21.7398ZM11.17 15.9898H9.34C9.69 17.0798 10.15 18.0398 10.62 18.8498C11.03 19.5598 11.43 20.1398 11.77 20.5698C11.27 19.6598 11 18.6098 11 17.4998C11 16.9798 11.06 16.4698 11.17 15.9898Z" fill="white"/>
</svg>
