<svg width="24" height="24" viewBox="0 0 24 24" fill="none" xmlns="http://www.w3.org/2000/svg">
<path fill-rule="evenodd" clip-rule="evenodd" d="M2.53 8.75C3.88 4.82 7.61 2 12 2C16.38 2 20.11 4.82 21.46 8.75C21.81 9.77 22 10.86 22 12C22 12.26 21.99 12.52 21.97 12.78C21.53 12.36 21.03 12.01 20.49 11.73C20.47 11.04 20.37 10.38 20.19 9.75H16.3C16.37 10.17 16.43 10.62 16.46 11.08C15.95 11.16 15.45 11.3 14.98 11.5C14.96 10.89 14.88 10.3 14.77 9.75H9.22C9.08 10.45 9 11.21 9 12C9 12.78 9.08 13.54 9.22 14.25H11.86C11.59 14.71 11.38 15.21 11.23 15.75H9.61C9.94 16.72 10.35 17.58 10.77 18.31C10.9 18.53 11.03 18.74 11.16 18.94C11.42 20.1 11.99 21.13 12.78 21.96C12.52 21.98 12.26 22 12 22C7.61 22 3.88 19.17 2.53 15.24C2.18 14.22 2 13.13 2 12C2 10.86 2.18 9.77 2.53 8.75ZM19.63 8.25H15.95C15.57 6.96 15.04 5.84 14.52 4.93C14.24 4.45 13.97 4.03 13.71 3.67C16.31 4.2 18.48 5.92 19.63 8.25ZM4.36 8.25H8.04C8.42 6.96 8.95 5.84 9.47 4.93C9.75 4.45 10.02 4.03 10.28 3.67C7.68 4.2 5.51 5.92 4.36 8.25ZM12 3.89C11.66 4.3 11.22 4.91 10.77 5.68C10.35 6.41 9.94 7.27 9.61 8.25H14.38C14.05 7.27 13.64 6.41 13.22 5.68C12.77 4.91 12.33 4.3 12 3.89ZM3.8 14.25H7.69C7.57 13.53 7.5 12.78 7.5 12C7.5 11.21 7.57 10.46 7.69 9.75H3.8C3.6 10.46 3.5 11.22 3.5 12C3.5 12.77 3.6 13.53 3.8 14.25ZM23 17.5C23 14.46 20.53 12 17.5 12C14.46 12 12 14.46 12 17.5C12 20.53 14.46 23 17.5 23C20.53 23 23 20.53 23 17.5ZM17 14C17 13.72 17.22 13.5 17.5 13.5C17.77 13.5 18 13.72 18 14V14.54H18.66L18.76 14.56C18.99 14.6 19.16 14.8 19.16 15.04C19.16 15.29 18.99 15.49 18.76 15.54H18.66H17.22C16.82 15.54 16.5 15.87 16.5 16.27C16.5 16.67 16.82 17 17.22 17H17.77C18.72 17 19.5 17.77 19.5 18.72C19.5 19.6 18.84 20.32 18 20.43V21C18 21.27 17.77 21.5 17.5 21.5C17.22 21.5 17 21.27 17 21V20.45H16.33C16.05 20.45 15.83 20.22 15.83 19.95C15.83 19.67 16.05 19.45 16.33 19.45H17.77C18.17 19.45 18.5 19.12 18.5 18.72C18.5 18.32 18.17 18 17.77 18H17.22C16.27 18 15.5 17.22 15.5 16.27C15.5 15.39 16.15 14.67 17 14.56V14ZM10.28 20.32C10.02 19.96 9.75 19.54 9.47 19.06C8.95 18.15 8.42 17.03 8.04 15.75H4.36C5.51 18.07 7.68 19.79 10.28 20.32Z" fill="white"/>
</svg>
