<svg width="24" height="24" viewBox="0 0 24 24" fill="none" xmlns="http://www.w3.org/2000/svg">
<path fill-rule="evenodd" clip-rule="evenodd" d="M17.5 11C19.5048 11 21.2975 11.9076 22.4899 13.3343C22.8071 12.9803 23 12.5127 23 12C23 10.8954 22.1046 10 21 10C20.9255 10 20.852 10.0041 20.7797 10.012C19.8747 5.99799 16.2874 3 12 3C7.71255 3 4.12532 5.99799 3.2203 10.012C3.14796 10.0041 3.07446 10 3 10C1.89543 10 1 10.8954 1 12C1 13.1046 1.89543 14 3 14C3.07446 14 3.14796 13.9959 3.2203 13.988C4.12532 18.002 7.71255 21 12 21L12.0218 21C11.375 19.9897 11 18.7886 11 17.5C11 15.9877 11.5165 14.596 12.3826 13.4917C12.2278 13.504 12.0723 13.5088 11.9165 13.5061C11.2656 13.4949 10.6236 13.3528 10.0288 13.0882C9.43406 12.8237 8.89862 12.4421 8.45444 11.9662L9.69722 10.8062C9.9857 11.1153 10.3335 11.3631 10.7198 11.535C11.1061 11.7068 11.523 11.7991 11.9457 11.8064C12.3685 11.8137 12.7884 11.7358 13.1803 11.5773C13.5723 11.4189 13.9284 11.1832 14.2274 10.8842L14.8889 11.5457C15.688 11.1948 16.5713 11 17.5 11ZM6.625 10.75C7.38439 10.75 8 10.1344 8 9.375C8 8.61561 7.38439 8 6.625 8C5.86561 8 5.25 8.61561 5.25 9.375C5.25 10.1344 5.86561 10.75 6.625 10.75ZM18.75 9.375C18.75 10.1344 18.1344 10.75 17.375 10.75C16.6156 10.75 16 10.1344 16 9.375C16 8.61561 16.6156 8 17.375 8C18.1344 8 18.75 8.61561 18.75 9.375Z" fill="white"/>
<path d="M16.5 15.5C16.5 14.9477 16.9478 14.5 17.5 14.5C18.0523 14.5 18.5 14.9478 18.5 15.5V16.5H16.5V15.5Z" fill="white"/>
<path fill-rule="evenodd" clip-rule="evenodd" d="M23 17.5C23 20.5376 20.5376 23 17.5 23C14.4624 23 12 20.5376 12 17.5C12 14.4624 14.4624 12 17.5 12C20.5376 12 23 14.4624 23 17.5ZM19.5 16.5V15.5C19.5 14.3957 18.6046 13.5 17.5 13.5C16.3957 13.5 15.5 14.3954 15.5 15.5V16.5C14.9477 16.5 14.5 16.9477 14.5 17.5V20C14.5 20.5523 14.9477 21 15.5 21H19.5C20.0523 21 20.5 20.5523 20.5 20V17.5C20.5 16.9477 20.0523 16.5 19.5 16.5Z" fill="white"/>
</svg>
