<svg width="24" height="24" viewBox="0 0 24 24" fill="none" xmlns="http://www.w3.org/2000/svg">
<path fill-rule="evenodd" clip-rule="evenodd" d="M4.61523 18.5195C4.84475 18.5195 5.06525 18.6102 5.22754 18.7725C5.38983 18.9348 5.48047 19.1553 5.48047 19.3848C5.48043 19.6141 5.38958 19.8339 5.22754 19.9961C5.06525 20.1584 4.84475 20.25 4.61523 20.25C4.38578 20.25 4.16616 20.1583 4.00391 19.9961C3.84165 19.8338 3.75004 19.6142 3.75 19.3848C3.75 19.1553 3.84161 18.9348 4.00391 18.7725C4.16613 18.6104 4.38593 18.5196 4.61523 18.5195Z" fill="white"/>
<path fill-rule="evenodd" clip-rule="evenodd" d="M8.30762 18.5195C8.53713 18.5195 8.75763 18.6102 8.91992 18.7725C9.08219 18.9347 9.17285 19.1553 9.17285 19.3848C9.17281 19.614 9.08194 19.8339 8.91992 19.9961C8.75763 20.1584 8.53713 20.25 8.30762 20.25C8.07813 20.25 7.85759 20.1584 7.69531 19.9961C7.53334 19.8339 7.44242 19.614 7.44238 19.3848C7.44238 19.1553 7.53309 18.9347 7.69531 18.7725C7.85759 18.6102 8.07813 18.5196 8.30762 18.5195Z" fill="white"/>
<path fill-rule="evenodd" clip-rule="evenodd" d="M12 18.5195C12.2295 18.5195 12.45 18.6102 12.6123 18.7725C12.7745 18.9347 12.8652 19.1553 12.8652 19.3848C12.8652 19.614 12.7743 19.8339 12.6123 19.9961C12.45 20.1584 12.2295 20.25 12 20.25C11.7705 20.25 11.55 20.1584 11.3877 19.9961C11.2257 19.8339 11.1348 19.614 11.1348 19.3848C11.1348 19.1553 11.2255 18.9347 11.3877 18.7725C11.55 18.6102 11.7705 18.5195 12 18.5195Z" fill="white"/>
<path fill-rule="evenodd" clip-rule="evenodd" d="M15.6924 18.5195C15.9219 18.5196 16.1424 18.6102 16.3047 18.7725C16.4669 18.9347 16.5576 19.1553 16.5576 19.3848C16.5576 19.614 16.4667 19.8339 16.3047 19.9961C16.1424 20.1584 15.9219 20.25 15.6924 20.25C15.4629 20.25 15.2424 20.1584 15.0801 19.9961C14.9181 19.8339 14.8272 19.614 14.8271 19.3848C14.8271 19.1553 14.9178 18.9347 15.0801 18.7725C15.2424 18.6102 15.4629 18.5195 15.6924 18.5195Z" fill="white"/>
<path d="M19.3848 18.5195C19.6141 18.5196 19.8339 18.6104 19.9961 18.7725C20.1584 18.9348 20.25 19.1553 20.25 19.3848C20.25 19.6142 20.1584 19.8338 19.9961 19.9961C19.8338 20.1584 19.6142 20.25 19.3848 20.25C19.1553 20.25 18.9348 20.1584 18.7725 19.9961C18.6104 19.8339 18.5196 19.6141 18.5195 19.3848C18.5195 19.1553 18.6102 18.9348 18.7725 18.7725C18.9348 18.6102 19.1553 18.5195 19.3848 18.5195Z" fill="white"/>
<path d="M8.30762 14.5195C8.61874 14.5195 8.91672 14.6433 9.13672 14.8633C9.35671 15.0833 9.48047 15.3813 9.48047 15.6924C9.48045 16.0035 9.35669 16.3015 9.13672 16.5215C8.91673 16.7414 8.6187 16.8652 8.30762 16.8652C7.99652 16.8652 7.69849 16.7415 7.47852 16.5215C7.25854 16.3015 7.13479 16.0035 7.13477 15.6924C7.13477 15.3813 7.25857 15.0833 7.47852 14.8633C7.69849 14.6433 7.99652 14.5196 8.30762 14.5195Z" fill="white"/>
<path d="M12 14.5195C12.3111 14.5195 12.6091 14.6433 12.8291 14.8633C13.0491 15.0833 13.1729 15.3813 13.1729 15.6924C13.1728 16.0035 13.0491 16.3015 12.8291 16.5215C12.6091 16.7415 12.3111 16.8652 12 16.8652C11.6889 16.8652 11.3909 16.7415 11.1709 16.5215C10.9509 16.3015 10.8272 16.0035 10.8271 15.6924C10.8271 15.3813 10.9509 15.0833 11.1709 14.8633C11.3909 14.6433 11.6889 14.5195 12 14.5195Z" fill="white"/>
<path d="M15.6924 14.5195C16.0035 14.5196 16.3015 14.6433 16.5215 14.8633C16.7414 15.0833 16.8652 15.3813 16.8652 15.6924C16.8652 16.0035 16.7415 16.3015 16.5215 16.5215C16.3015 16.7415 16.0035 16.8652 15.6924 16.8652C15.3813 16.8652 15.0833 16.7414 14.8633 16.5215C14.6433 16.3015 14.5196 16.0035 14.5195 15.6924C14.5195 15.3813 14.6433 15.0833 14.8633 14.8633C15.0833 14.6433 15.3813 14.5195 15.6924 14.5195Z" fill="white"/>
<path fill-rule="evenodd" clip-rule="evenodd" d="M4.61523 14.8271C4.84473 14.8271 5.06525 14.9178 5.22754 15.0801C5.38983 15.2424 5.48047 15.4629 5.48047 15.6924C5.48045 15.9219 5.38981 16.1424 5.22754 16.3047C5.06526 16.4669 4.8447 16.5576 4.61523 16.5576C4.38599 16.5576 4.16612 16.4667 4.00391 16.3047C3.84163 16.1424 3.75002 15.9219 3.75 15.6924C3.75 15.4629 3.84161 15.2424 4.00391 15.0801C4.16613 14.9181 4.38595 14.8272 4.61523 14.8271Z" fill="white"/>
<path fill-rule="evenodd" clip-rule="evenodd" d="M19.3848 14.8271C19.614 14.8272 19.8339 14.9181 19.9961 15.0801C20.1584 15.2424 20.25 15.4629 20.25 15.6924C20.25 15.9219 20.1584 16.1424 19.9961 16.3047C19.8339 16.4667 19.614 16.5576 19.3848 16.5576C19.1553 16.5576 18.9347 16.4669 18.7725 16.3047C18.6102 16.1424 18.5196 15.9219 18.5195 15.6924C18.5195 15.4629 18.6102 15.2424 18.7725 15.0801C18.9347 14.9178 19.1553 14.8271 19.3848 14.8271Z" fill="white"/>
<path d="M12 10.5195C12.3927 10.5195 12.7692 10.6754 13.0469 10.9531C13.3246 11.2308 13.4805 11.6073 13.4805 12C13.4805 12.3927 13.3246 12.7692 13.0469 13.0469C12.7692 13.3246 12.3927 13.4805 12 13.4805C11.6073 13.4805 11.2308 13.3246 10.9531 13.0469C10.6754 12.7692 10.5195 12.3927 10.5195 12C10.5195 11.6073 10.6754 11.2308 10.9531 10.9531C11.2308 10.6754 11.6073 10.5195 12 10.5195Z" fill="white"/>
<path d="M8.30762 10.8271C8.61872 10.8271 8.91673 10.9509 9.13672 11.1709C9.35671 11.3909 9.48047 11.6889 9.48047 12C9.48047 12.3111 9.35671 12.6091 9.13672 12.8291C8.91673 13.0491 8.61872 13.1729 8.30762 13.1729C7.99652 13.1728 7.69849 13.0491 7.47852 12.8291C7.25854 12.6091 7.13477 12.3111 7.13477 12C7.13477 11.6889 7.25854 11.3909 7.47852 11.1709C7.69849 10.9509 7.99652 10.8272 8.30762 10.8271Z" fill="white"/>
<path d="M15.6924 10.8271C16.0035 10.8272 16.3015 10.9509 16.5215 11.1709C16.7415 11.3909 16.8652 11.6889 16.8652 12C16.8652 12.3111 16.7415 12.6091 16.5215 12.8291C16.3015 13.0491 16.0035 13.1728 15.6924 13.1729C15.3813 13.1729 15.0833 13.0491 14.8633 12.8291C14.6433 12.6091 14.5195 12.3111 14.5195 12C14.5195 11.6889 14.6433 11.3909 14.8633 11.1709C15.0833 10.9509 15.3813 10.8271 15.6924 10.8271Z" fill="white"/>
<path fill-rule="evenodd" clip-rule="evenodd" d="M4.61523 11.1348C4.84471 11.1348 5.06525 11.2255 5.22754 11.3877C5.38983 11.55 5.48047 11.7705 5.48047 12C5.48047 12.2295 5.38983 12.45 5.22754 12.6123C5.06525 12.7745 4.84471 12.8652 4.61523 12.8652C4.38597 12.8652 4.16612 12.7743 4.00391 12.6123C3.84161 12.45 3.75 12.2295 3.75 12C3.75 11.7705 3.84162 11.55 4.00391 11.3877C4.16612 11.2257 4.38597 11.1348 4.61523 11.1348Z" fill="white"/>
<path fill-rule="evenodd" clip-rule="evenodd" d="M19.3848 11.1348C19.614 11.1348 19.8339 11.2257 19.9961 11.3877C20.1584 11.55 20.25 11.7705 20.25 12C20.25 12.2295 20.1584 12.45 19.9961 12.6123C19.8339 12.7743 19.614 12.8652 19.3848 12.8652C19.1553 12.8652 18.9347 12.7745 18.7725 12.6123C18.6102 12.45 18.5195 12.2295 18.5195 12C18.5195 11.7705 18.6102 11.55 18.7725 11.3877C18.9347 11.2255 19.1553 11.1348 19.3848 11.1348Z" fill="white"/>
<path d="M8.30762 7.13477C8.6187 7.13477 8.91673 7.25857 9.13672 7.47852C9.3567 7.69849 9.48045 7.99652 9.48047 8.30762C9.48047 8.61874 9.35671 8.91672 9.13672 9.13672C8.91672 9.35671 8.61874 9.48047 8.30762 9.48047C7.99652 9.48045 7.69849 9.3567 7.47852 9.13672C7.25857 8.91673 7.13477 8.6187 7.13477 8.30762C7.13479 7.99652 7.25854 7.69849 7.47852 7.47852C7.69849 7.25854 7.99652 7.13479 8.30762 7.13477Z" fill="white"/>
<path d="M12 7.13477C12.3111 7.13477 12.6091 7.25854 12.8291 7.47852C13.0491 7.69849 13.1728 7.99652 13.1729 8.30762C13.1729 8.61872 13.0491 8.91673 12.8291 9.13672C12.6091 9.35671 12.3111 9.48047 12 9.48047C11.6889 9.48047 11.3909 9.35671 11.1709 9.13672C10.9509 8.91673 10.8271 8.61872 10.8271 8.30762C10.8272 7.99652 10.9509 7.69849 11.1709 7.47852C11.3909 7.25854 11.6889 7.13477 12 7.13477Z" fill="white"/>
<path d="M15.6924 7.13477C16.0035 7.13479 16.3015 7.25854 16.5215 7.47852C16.7415 7.69849 16.8652 7.99652 16.8652 8.30762C16.8652 8.6187 16.7414 8.91673 16.5215 9.13672C16.3015 9.35669 16.0035 9.48045 15.6924 9.48047C15.3813 9.48047 15.0833 9.35671 14.8633 9.13672C14.6433 8.91672 14.5195 8.61874 14.5195 8.30762C14.5196 7.99652 14.6433 7.69849 14.8633 7.47852C15.0833 7.25857 15.3813 7.13477 15.6924 7.13477Z" fill="white"/>
<path fill-rule="evenodd" clip-rule="evenodd" d="M4.61523 7.44238C4.8447 7.44238 5.06526 7.53309 5.22754 7.69531C5.38981 7.85759 5.48045 8.07813 5.48047 8.30762C5.48047 8.53713 5.38983 8.75763 5.22754 8.91992C5.06525 9.08219 4.84473 9.17285 4.61523 9.17285C4.38595 9.17281 4.16613 9.08194 4.00391 8.91992C3.84162 8.75763 3.75 8.53713 3.75 8.30762C3.75002 8.07813 3.84163 7.85759 4.00391 7.69531C4.16612 7.53334 4.38599 7.44242 4.61523 7.44238Z" fill="white"/>
<path fill-rule="evenodd" clip-rule="evenodd" d="M19.3848 7.44238C19.614 7.44242 19.8339 7.53334 19.9961 7.69531C20.1584 7.85759 20.25 8.07813 20.25 8.30762C20.25 8.53713 20.1584 8.75763 19.9961 8.91992C19.8339 9.08194 19.614 9.17281 19.3848 9.17285C19.1553 9.17285 18.9347 9.08219 18.7725 8.91992C18.6102 8.75763 18.5195 8.53713 18.5195 8.30762C18.5196 8.07813 18.6102 7.85759 18.7725 7.69531C18.9347 7.53309 19.1553 7.44238 19.3848 7.44238Z" fill="white"/>
<path fill-rule="evenodd" clip-rule="evenodd" d="M4.61523 3.75C4.84475 3.75 5.06525 3.84162 5.22754 4.00391C5.38958 4.16613 5.48043 4.38593 5.48047 4.61523C5.48047 4.84475 5.38983 5.06525 5.22754 5.22754C5.06525 5.38983 4.84475 5.48047 4.61523 5.48047C4.38593 5.48043 4.16613 5.38958 4.00391 5.22754C3.84162 5.06525 3.75 4.84475 3.75 4.61523C3.75004 4.38577 3.84165 4.16616 4.00391 4.00391C4.16616 3.84165 4.38577 3.75004 4.61523 3.75Z" fill="white"/>
<path fill-rule="evenodd" clip-rule="evenodd" d="M8.30762 3.75C8.53713 3.75 8.75763 3.84162 8.91992 4.00391C9.08194 4.16613 9.17281 4.38595 9.17285 4.61523C9.17285 4.84473 9.08219 5.06525 8.91992 5.22754C8.75763 5.38983 8.53713 5.48047 8.30762 5.48047C8.07813 5.48045 7.85759 5.38981 7.69531 5.22754C7.53309 5.06526 7.44238 4.8447 7.44238 4.61523C7.44242 4.38599 7.53334 4.16612 7.69531 4.00391C7.85759 3.84163 8.07813 3.75002 8.30762 3.75Z" fill="white"/>
<path fill-rule="evenodd" clip-rule="evenodd" d="M12 3.75C12.2295 3.75 12.45 3.84161 12.6123 4.00391C12.7743 4.16612 12.8652 4.38597 12.8652 4.61523C12.8652 4.84471 12.7745 5.06525 12.6123 5.22754C12.45 5.38983 12.2295 5.48047 12 5.48047C11.7705 5.48047 11.55 5.38983 11.3877 5.22754C11.2255 5.06525 11.1348 4.84471 11.1348 4.61523C11.1348 4.38597 11.2257 4.16612 11.3877 4.00391C11.55 3.84162 11.7705 3.75 12 3.75Z" fill="white"/>
<path fill-rule="evenodd" clip-rule="evenodd" d="M15.6924 3.75C15.9219 3.75002 16.1424 3.84163 16.3047 4.00391C16.4667 4.16612 16.5576 4.38599 16.5576 4.61523C16.5576 4.8447 16.4669 5.06526 16.3047 5.22754C16.1424 5.38981 15.9219 5.48045 15.6924 5.48047C15.4629 5.48047 15.2424 5.38983 15.0801 5.22754C14.9178 5.06525 14.8271 4.84473 14.8271 4.61523C14.8272 4.38595 14.9181 4.16613 15.0801 4.00391C15.2424 3.84161 15.4629 3.75 15.6924 3.75Z" fill="white"/>
<path fill-rule="evenodd" clip-rule="evenodd" d="M19.3848 3.75C19.6142 3.75004 19.8338 3.84165 19.9961 4.00391C20.1583 4.16616 20.25 4.38578 20.25 4.61523C20.25 4.84475 20.1584 5.06525 19.9961 5.22754C19.8339 5.38958 19.6141 5.48043 19.3848 5.48047C19.1553 5.48047 18.9348 5.38983 18.7725 5.22754C18.6102 5.06525 18.5195 4.84475 18.5195 4.61523C18.5196 4.38593 18.6104 4.16613 18.7725 4.00391C18.9348 3.84161 19.1553 3.75 19.3848 3.75Z" fill="white"/>
</svg>
