<svg width="24" height="24" viewBox="0 0 24 24" fill="none" xmlns="http://www.w3.org/2000/svg">
<path d="M3 3.75C3.41421 3.75 3.75 4.08579 3.75 4.5V19.5C3.74993 19.9142 3.41417 20.25 3 20.25C2.58583 20.25 2.25007 19.9142 2.25 19.5V4.5C2.25 4.08579 2.58579 3.75 3 3.75Z" fill="white"/>
<path d="M21 3.75C21.4142 3.75 21.75 4.08579 21.75 4.5V19.5C21.7499 19.9142 21.4142 20.25 21 20.25C20.5858 20.25 20.2501 19.9142 20.25 19.5V4.5C20.25 4.08579 20.5858 3.75 21 3.75Z" fill="white"/>
<path fill-rule="evenodd" clip-rule="evenodd" d="M18 19H16.0146L14.7822 15.4805H9.09863L7.88281 19H6L10.8955 5H13.0361L18 19ZM9.76562 13.5195H14.0967L11.9229 7.25977L9.76562 13.5195Z" fill="white"/>
</svg>
