<svg width="24" height="24" viewBox="0 0 24 24" fill="none" xmlns="http://www.w3.org/2000/svg">
<path d="M12.6797 11.0905V11.1185H12.6616L12.6797 11.0905Z" fill="white"/>
<path fill-rule="evenodd" clip-rule="evenodd" d="M7 3C4.79086 3 3 4.79086 3 7V17C3 19.2091 4.79086 21 7 21H17C19.2091 21 21 19.2091 21 17V7C21 4.79086 19.2091 3 17 3H7ZM8.4566 18.0677V9.93973H5.73786V18.0677H8.4566ZM7.09722 8.82999C8.0453 8.82999 8.6354 8.20585 8.6354 7.42586C8.61773 6.62831 8.0453 6.02148 7.11521 6.02148C6.18521 6.02148 5.57715 6.62831 5.57715 7.42586C5.57715 8.20585 6.16712 8.82999 7.0795 8.82999H7.09722ZM9.96094 18.0677H12.6797V13.5287C12.6797 13.2858 12.6973 13.0431 12.7691 12.8695C12.9656 12.3841 13.413 11.8814 14.1641 11.8814C15.1478 11.8814 15.5414 12.6268 15.5414 13.7194V18.0677H18.2599V13.4073C18.2599 10.9107 16.9186 9.74901 15.1299 9.74901C13.6877 9.74901 13.041 10.5367 12.6797 11.0905V9.93974H9.96101C9.99669 10.7024 9.96094 18.0677 9.96094 18.0677Z" fill="white"/>
</svg>
