<svg width="24" height="24" viewBox="0 0 24 24" fill="none" xmlns="http://www.w3.org/2000/svg">
<path fill-rule="evenodd" clip-rule="evenodd" d="M5.27983 18.7184C3.71773 17.1563 3.71773 14.6237 5.27983 13.0616L7.22437 11.117C7.51726 10.8242 7.51726 10.3493 7.22437 10.0564C6.93148 9.76349 6.4566 9.76349 6.16371 10.0564L4.21917 12.0009C2.07128 14.1488 2.07128 17.6312 4.21917 19.7791C6.36705 21.927 9.84946 21.927 11.9973 19.7791L13.9419 17.8346C14.2348 17.5417 14.2348 17.0668 13.9419 16.7739C13.649 16.481 13.1741 16.481 12.8812 16.7739L10.9367 18.7184C9.37458 20.2805 6.84192 20.2805 5.27983 18.7184ZM10.0528 6.1673C9.7599 6.46019 9.7599 6.93506 10.0528 7.22796C10.3457 7.52085 10.8206 7.52085 11.1135 7.22796L13.058 5.28341C14.6201 3.72132 17.1528 3.72132 18.7149 5.28341C20.277 6.84551 20.277 9.37817 18.7149 10.9403L16.7703 12.8848C16.4774 13.1777 16.4774 13.6526 16.7703 13.9455C17.0632 14.2384 17.5381 14.2384 17.831 13.9455L19.7755 12.0009C21.9234 9.85304 21.9234 6.37064 19.7755 4.22275C17.6276 2.07487 14.1452 2.07487 11.9973 4.22275L10.0528 6.1673ZM7.57792 15.3597C7.28503 15.6526 7.28503 16.1275 7.57792 16.4203C7.87082 16.7132 8.34569 16.7132 8.63858 16.4203L16.4168 8.64217C16.7097 8.34928 16.7097 7.8744 16.4168 7.58151C16.1239 7.28862 15.649 7.28862 15.3561 7.58151L7.57792 15.3597Z" fill="white" fill-opacity="0.96"/>
</svg>
