<svg width="24" height="24" viewBox="0 0 24 24" fill="none" xmlns="http://www.w3.org/2000/svg">
<path d="M5 7C5.55228 7 6 6.55228 6 6C6 5.44772 5.55228 5 5 5C4.44772 5 4 5.44772 4 6C4 6.55228 4.44772 7 5 7Z" fill="white"/>
<path d="M8.81606 5.25C8.40185 5.25 8.06606 5.58579 8.06606 6C8.06606 6.41421 8.40185 6.75 8.81606 6.75H20.3567C20.7709 6.75 21.1067 6.41421 21.1067 6C21.1067 5.58579 20.7709 5.25 20.3567 5.25H8.81606Z" fill="white"/>
<path d="M8.81606 11.25C8.40185 11.25 8.06606 11.5858 8.06606 12C8.06606 12.4142 8.40185 12.75 8.81606 12.75H20.3567C20.7709 12.75 21.1067 12.4142 21.1067 12C21.1067 11.5858 20.7709 11.25 20.3567 11.25H8.81606Z" fill="white"/>
<path d="M8.06606 18C8.06606 17.5858 8.40185 17.25 8.81606 17.25H20.3567C20.7709 17.25 21.1067 17.5858 21.1067 18C21.1067 18.4142 20.7709 18.75 20.3567 18.75H8.81606C8.40185 18.75 8.06606 18.4142 8.06606 18Z" fill="white"/>
<path d="M6 18C6 18.5523 5.55228 19 5 19C4.44772 19 4 18.5523 4 18C4 17.4477 4.44772 17 5 17C5.55228 17 6 17.4477 6 18Z" fill="white"/>
<path d="M5 13C5.55228 13 6 12.5523 6 12C6 11.4477 5.55228 11 5 11C4.44772 11 4 11.4477 4 12C4 12.5523 4.44772 13 5 13Z" fill="white"/>
</svg>
