<svg width="24" height="24" viewBox="0 0 24 24" fill="none" xmlns="http://www.w3.org/2000/svg">
<path fill-rule="evenodd" clip-rule="evenodd" d="M10.5497 19.7485C10.25 19.1602 10.25 18.3901 10.25 16.85V12.75H14.9393L13.2197 14.4697C12.9268 14.7626 12.9268 15.2374 13.2197 15.5303C13.5126 15.8232 13.9874 15.8232 14.2803 15.5303L17.2803 12.5303C17.5732 12.2374 17.5732 11.7626 17.2803 11.4697L14.2803 8.46968C13.9874 8.17678 13.5126 8.17678 13.2197 8.46968C12.9268 8.76257 12.9268 9.23744 13.2197 9.53034L14.9393 11.25H10.25V7.15C10.25 5.60986 10.25 4.83978 10.5497 4.25153C10.8134 3.73408 11.2341 3.31338 11.7515 3.04973C12.3398 2.75 13.1099 2.75 14.65 2.75H16.35C17.8901 2.75 18.6602 2.75 19.2485 3.04973C19.7659 3.31338 20.1866 3.73408 20.4503 4.25153C20.75 4.83978 20.75 5.60986 20.75 7.15V16.85C20.75 18.3901 20.75 19.1602 20.4503 19.7485C20.1866 20.2659 19.7659 20.6866 19.2485 20.9503C18.6602 21.25 17.8901 21.25 16.35 21.25H14.65C13.1099 21.25 12.3398 21.25 11.7515 20.9503C11.2341 20.6866 10.8134 20.2659 10.5497 19.7485ZM10.25 11.25H6.25C5.83579 11.25 5.5 11.5858 5.5 12C5.5 12.4142 5.83579 12.75 6.25 12.75H10.25V11.25Z" fill="white"/>
</svg>
