<svg width="24" height="24" viewBox="0 0 24 24" fill="none" xmlns="http://www.w3.org/2000/svg">
<path fill-rule="evenodd" clip-rule="evenodd" d="M16.2814 3L13.5 3C12.1193 3 11 4.11929 11 5.5C11 5.91421 11.3358 6.25 11.75 6.25C12.1642 6.25 12.5 5.91421 12.5 5.5C12.5 4.94772 12.9477 4.5 13.5 4.5H16.25C16.9624 4.5 17.4517 4.50058 17.8309 4.53157C18.2014 4.56184 18.4004 4.61735 18.5445 4.69074C18.8738 4.85852 19.1415 5.12623 19.3093 5.45552C19.3827 5.59956 19.4382 5.79858 19.4684 6.16908C19.4994 6.54833 19.5 7.03756 19.5 7.75V16.25C19.5 16.9624 19.4994 17.4517 19.4684 17.8309C19.4382 18.2014 19.3827 18.4004 19.3093 18.5445C19.1415 18.8738 18.8738 19.1415 18.5445 19.3093C18.4004 19.3827 18.2014 19.4382 17.8309 19.4684C17.4517 19.4994 16.9624 19.5 16.25 19.5H13.5C12.9477 19.5 12.5 19.0523 12.5 18.5C12.5 18.0858 12.1642 17.75 11.75 17.75C11.3358 17.75 11 18.0858 11 18.5C11 19.8807 12.1193 21 13.5 21H16.2814C16.9548 21 17.5055 21 17.9531 20.9634C18.4163 20.9256 18.8347 20.8449 19.2255 20.6458C19.837 20.3342 20.3342 19.837 20.6458 19.2255C20.8449 18.8347 20.9256 18.4163 20.9634 17.9531C21 17.5055 21 16.9548 21 16.2814V7.71858C21 7.0452 21 6.4945 20.9634 6.04693C20.9256 5.58367 20.8449 5.16527 20.6458 4.77453C20.3342 4.163 19.837 3.66582 19.2255 3.35423C18.8347 3.15514 18.4163 3.0744 17.9531 3.03655C17.5055 2.99998 16.9548 2.99999 16.2814 3Z" fill="white"/>
<path fill-rule="evenodd" clip-rule="evenodd" d="M14.0303 12.5303C14.3232 12.2374 14.3232 11.7626 14.0303 11.4697L11.0303 8.46967C10.7374 8.17678 10.2626 8.17678 9.96967 8.46967C9.67678 8.76256 9.67678 9.23744 9.96967 9.53033L11.6893 11.25H5C4.58579 11.25 4.25 11.5858 4.25 12C4.25 12.4142 4.58579 12.75 5 12.75H11.6893L9.96967 14.4697C9.67678 14.7626 9.67678 15.2374 9.96967 15.5303C10.2626 15.8232 10.7374 15.8232 11.0303 15.5303L14.0303 12.5303Z" fill="white"/>
</svg>
