<svg width="24" height="24" viewBox="0 0 24 24" fill="none" xmlns="http://www.w3.org/2000/svg">
<path fill-rule="evenodd" clip-rule="evenodd" d="M7.71858 3L10.5 3C11.8807 3 13 4.11929 13 5.5C13 5.91421 12.6642 6.25 12.25 6.25C11.8358 6.25 11.5 5.91421 11.5 5.5C11.5 4.94772 11.0523 4.5 10.5 4.5H7.75C7.03756 4.5 6.54833 4.50058 6.16908 4.53157C5.79858 4.56184 5.59956 4.61735 5.45552 4.69074C5.12623 4.85852 4.85852 5.12623 4.69074 5.45552C4.61735 5.59956 4.56184 5.79858 4.53157 6.16908C4.50058 6.54833 4.5 7.03756 4.5 7.75V16.25C4.5 16.9624 4.50058 17.4517 4.53157 17.8309C4.56184 18.2014 4.61735 18.4004 4.69074 18.5445C4.85852 18.8738 5.12623 19.1415 5.45552 19.3093C5.59956 19.3827 5.79858 19.4382 6.16908 19.4684C6.54833 19.4994 7.03756 19.5 7.75 19.5H10.5C11.0523 19.5 11.5 19.0523 11.5 18.5C11.5 18.0858 11.8358 17.75 12.25 17.75C12.6642 17.75 13 18.0858 13 18.5C13 19.8807 11.8807 21 10.5 21H7.71856C7.04519 21 6.49449 21 6.04693 20.9634C5.58367 20.9256 5.16527 20.8449 4.77453 20.6458C4.163 20.3342 3.66582 19.837 3.35423 19.2255C3.15514 18.8347 3.0744 18.4163 3.03655 17.9531C2.99998 17.5055 2.99999 16.9548 3 16.2814V7.71858C2.99999 7.0452 2.99998 6.4945 3.03655 6.04693C3.0744 5.58367 3.15514 5.16527 3.35423 4.77453C3.66582 4.163 4.163 3.66582 4.77453 3.35423C5.16527 3.15514 5.58367 3.0744 6.04693 3.03655C6.4945 2.99998 7.0452 2.99999 7.71858 3Z" fill="white"/>
<path fill-rule="evenodd" clip-rule="evenodd" d="M19.5312 12.5303C19.8241 12.2374 19.8241 11.7626 19.5312 11.4697L16.5312 8.46967C16.2383 8.17678 15.7635 8.17678 15.4706 8.46967C15.1777 8.76256 15.1777 9.23744 15.4706 9.53033L17.1902 11.25H10.5009C10.0867 11.25 9.7509 11.5858 9.7509 12C9.7509 12.4142 10.0867 12.75 10.5009 12.75H17.1902L15.4706 14.4697C15.1777 14.7626 15.1777 15.2374 15.4706 15.5303C15.7635 15.8232 16.2383 15.8232 16.5312 15.5303L19.5312 12.5303Z" fill="white"/>
</svg>
