<svg width="24" height="24" viewBox="0 0 24 24" fill="none" xmlns="http://www.w3.org/2000/svg">
<path fill-rule="evenodd" clip-rule="evenodd" d="M8.45528 3.77685C8.78694 2.76839 10.2135 2.7684 10.5452 3.77685L11.348 6.218C11.5712 6.89679 12.1036 7.42919 12.7824 7.65243L15.2236 8.45528C16.232 8.78694 16.232 10.2135 15.2236 10.5452L12.7824 11.348C12.1036 11.5712 11.5712 12.1036 11.348 12.7824L10.5452 15.2236C10.2135 16.232 8.78694 16.232 8.45528 15.2236L7.65243 12.7824C7.42919 12.1036 6.89679 11.5712 6.218 11.348L3.77685 10.5452C2.76839 10.2135 2.7684 8.78694 3.77685 8.45528L6.218 7.65243C6.89679 7.42919 7.42919 6.89679 7.65243 6.218L8.45528 3.77685ZM9.50022 5.40084L9.07735 6.68663C8.70528 7.81795 7.81795 8.70528 6.68663 9.07735L5.40084 9.50022L6.68663 9.92309C7.81795 10.2952 8.70528 11.1825 9.07735 12.3138L9.50022 13.5996L9.92309 12.3138C10.2952 11.1825 11.1825 10.2952 12.3138 9.92309L13.5996 9.50022L12.3138 9.07735C11.1825 8.70528 10.2952 7.81795 9.92309 6.68663L9.50022 5.40084Z" fill="white" fill-opacity="0.96"/>
<path d="M13.8728 17.4134C13.9115 17.288 14.089 17.288 14.1276 17.4134L14.2639 17.8553C14.3939 18.2767 14.7237 18.6066 15.1451 18.7365L15.5871 18.8728C15.7125 18.9115 15.7125 19.089 15.5871 19.1276L15.1451 19.2639C14.7237 19.3939 14.3939 19.7237 14.2639 20.1451L14.1276 20.5871C14.089 20.7125 13.9115 20.7125 13.8728 20.5871L13.7365 20.1451C13.6066 19.7237 13.2767 19.3939 12.8553 19.2639L12.4134 19.1276C12.288 19.089 12.288 18.9115 12.4134 18.8728L12.8553 18.7365C13.2767 18.6066 13.6066 18.2767 13.7365 17.8553L13.8728 17.4134Z" fill="white" fill-opacity="0.96"/>
<path d="M17.6913 10.6199C17.6333 10.4319 17.3671 10.4319 17.3091 10.6199L16.869 12.0472C16.674 12.6792 16.1792 13.174 15.5472 13.369L14.1199 13.8091C13.9319 13.8671 13.9319 14.1333 14.1199 14.1913L15.5472 14.6315C16.1792 14.8264 16.674 15.3212 16.869 15.9533L17.3091 17.3805C17.3671 17.5686 17.6333 17.5686 17.6913 17.3805L18.1315 15.9533C18.3264 15.3212 18.8212 14.8264 19.4533 14.6315L20.8805 14.1913C21.0686 14.1333 21.0686 13.8671 20.8805 13.8091L19.4533 13.369C18.8212 13.174 18.3264 12.6792 18.1315 12.0472L17.6913 10.6199Z" fill="white" fill-opacity="0.96"/>
</svg>
