<svg width="24" height="24" viewBox="0 0 24 24" fill="none" xmlns="http://www.w3.org/2000/svg">
<path fill-rule="evenodd" clip-rule="evenodd" d="M12.1465 3C17.1105 3.00021 21 7.04508 21 12.0264C21.0165 16.9306 17.0764 20.9221 12.1934 20.9482C10.4269 20.9482 9.60563 20.6893 8.17871 19.6533C7.27618 20.8188 4.41888 21.7298 4.29395 20.1719C4.29395 19.0022 4.03539 18.0136 3.74316 16.9346C3.39503 15.605 3 14.1239 3 11.9785C3.00006 6.85471 7.18665 3 12.1465 3ZM12.2666 7.42871C9.85114 7.30353 7.96866 8.98305 7.55176 11.6162C7.20801 13.7958 7.81788 16.4502 8.33789 16.5889C8.58717 16.6493 9.21533 16.1399 9.60645 15.7471C10.253 16.1956 11.0058 16.4652 11.7891 16.5283C14.2919 16.6492 16.4306 14.7355 16.5986 12.2246C16.6964 9.70845 14.7697 7.57768 12.2666 7.43359V7.42871Z" fill="white"/>
</svg>
