<svg width="24" height="24" viewBox="0 0 24 24" fill="none" xmlns="http://www.w3.org/2000/svg">
<path d="M16.7297 1.02896C17.1403 1.08303 17.4294 1.45977 17.3754 1.87044L17.1143 3.85333C17.0602 4.264 16.6835 4.55309 16.2728 4.49902C15.8622 4.44495 15.5731 4.06821 15.6271 3.65754L15.8882 1.67465C15.9423 1.26398 16.319 0.974897 16.7297 1.02896Z" fill="white" fill-opacity="0.96"/>
<path d="M21.6169 3.44399C21.9098 3.1511 21.9098 2.67622 21.6169 2.38333C21.324 2.09044 20.8491 2.09044 20.5562 2.38333L18.0813 4.8582C17.7884 5.1511 17.7884 5.62597 18.0813 5.91886C18.3742 6.21176 18.8491 6.21176 19.142 5.91886L21.6169 3.44399Z" fill="white" fill-opacity="0.96"/>
<path d="M22.3254 8.11183C22.7361 8.05777 23.0252 7.68102 22.9711 7.27035C22.9171 6.85968 22.5403 6.5706 22.1296 6.62467L20.1468 6.88572C19.7361 6.93978 19.447 7.31653 19.5011 7.7272C19.5551 8.13787 19.9319 8.42695 20.3425 8.37289L22.3254 8.11183Z" fill="white" fill-opacity="0.96"/>
<path fill-rule="evenodd" clip-rule="evenodd" d="M9.92831 19.6367C10.4272 20.1884 11.0509 20.623 11.7408 20.8883C12.6993 21.2569 13.7411 21.2797 14.6515 20.9036C15.5683 20.5249 16.2523 19.7808 16.5597 18.8353C16.7941 18.1141 16.7925 17.3315 16.5846 16.5826L18.241 15.8226C18.9158 15.513 19.4685 15.2594 19.8891 15.0184C20.3189 14.7721 20.6994 14.4914 20.9551 14.0861C21.3366 13.4813 21.4676 12.7517 21.3202 12.052C21.2215 11.5832 20.9624 11.1876 20.645 10.8072C20.3345 10.4349 19.9045 10.005 19.3795 9.47991L14.5205 4.62091C13.9955 4.09586 13.5655 3.66585 13.1932 3.35535C12.8128 3.03803 12.4172 2.77891 11.9484 2.68015C11.2487 2.53278 10.5191 2.66375 9.91428 3.04529C9.50904 3.30095 9.22829 3.68147 8.98199 4.1113C8.741 4.53187 8.48743 5.08454 8.1778 5.75941L3.83918 15.2151C3.63156 15.6659 3.44924 16.0618 3.42182 16.4798C3.39783 16.8455 3.46353 17.2115 3.61321 17.546C3.78432 17.9284 4.09294 18.2361 4.44438 18.5866L5.41382 19.556C5.76425 19.9075 6.07197 20.2161 6.45438 20.3872C6.78889 20.5369 7.15491 20.6026 7.5206 20.5786C7.93863 20.5512 8.33448 20.3688 8.78525 20.1612L9.92831 19.6367ZM12.2792 19.4882C11.9608 19.3658 11.6597 19.1877 11.391 18.9655L15.1942 17.2205C15.2699 17.6285 15.2461 18.024 15.1331 18.3716C14.9603 18.9035 14.5857 19.3079 14.0788 19.5173C13.5654 19.7293 12.9241 19.7363 12.2792 19.4882ZM8.50527 18.2227C8.79816 18.5156 9.27304 18.5156 9.56593 18.2227C9.85882 17.9298 9.85882 17.4549 9.56593 17.1621L6.7375 14.3336C6.44461 14.0407 5.96973 14.0407 5.67684 14.3336C5.38395 14.6265 5.38395 15.1014 5.67684 15.3943L8.50527 18.2227Z" fill="white" fill-opacity="0.96"/>
</svg>
