<svg width="24" height="24" viewBox="0 0 24 24" fill="none" xmlns="http://www.w3.org/2000/svg">
<path d="M16.7297 1.02896C17.1403 1.08303 17.4294 1.45977 17.3754 1.87044L17.1143 3.85333C17.0602 4.264 16.6835 4.55309 16.2728 4.49902C15.8622 4.44495 15.5731 4.06821 15.6271 3.65754L15.8882 1.67465C15.9423 1.26398 16.319 0.974897 16.7297 1.02896Z" fill="white" fill-opacity="0.96"/>
<path d="M21.6169 3.44399C21.9098 3.1511 21.9098 2.67622 21.6169 2.38333C21.324 2.09044 20.8491 2.09044 20.5562 2.38333L18.0813 4.8582C17.7885 5.1511 17.7885 5.62597 18.0813 5.91886C18.3742 6.21176 18.8491 6.21176 19.142 5.91886L21.6169 3.44399Z" fill="white" fill-opacity="0.96"/>
<path d="M22.3254 8.11183C22.7361 8.05777 23.0252 7.68102 22.9711 7.27035C22.9171 6.85968 22.5403 6.5706 22.1297 6.62467L20.1468 6.88572C19.7361 6.93978 19.447 7.31653 19.5011 7.7272C19.5551 8.13787 19.9319 8.42695 20.3426 8.37289L22.3254 8.11183Z" fill="white" fill-opacity="0.96"/>
<path fill-rule="evenodd" clip-rule="evenodd" d="M9.92815 19.6366L8.78526 20.1611C8.33449 20.3687 7.93864 20.551 7.5206 20.5784C7.15491 20.6024 6.78889 20.5367 6.45438 20.387C6.07197 20.2159 5.76425 19.9073 5.41382 19.5559L4.44438 18.5864C4.09294 18.236 3.78432 17.9283 3.61321 17.5459C3.46353 17.2113 3.39783 16.8453 3.42182 16.4796C3.44924 16.0616 3.63156 15.6657 3.83918 15.215L8.17778 5.75927C8.48742 5.08441 8.741 4.53171 8.98199 4.11114C9.22829 3.68131 9.50904 3.30078 9.91428 3.04513C10.5191 2.66358 11.2487 2.53261 11.9484 2.67999C12.4172 2.77874 12.8128 3.03786 13.1932 3.35519C13.5655 3.66569 13.9954 4.09568 14.5205 4.62073L19.3795 9.47974C19.9045 10.0048 20.3345 10.4348 20.645 10.807C20.9624 11.1874 21.2215 11.583 21.3202 12.0518C21.4676 12.7516 21.3366 13.4812 20.9551 14.086C20.6994 14.4912 20.3189 14.7719 19.8891 15.0182C19.4685 15.2592 18.9158 15.5128 18.241 15.8224L16.5845 16.5825C16.7925 17.3314 16.7941 18.1141 16.5597 18.8354C16.2524 19.7809 15.5683 20.525 14.6515 20.9037C13.7411 21.2798 12.6993 21.257 11.7408 20.8884C11.0508 20.623 10.4271 20.1883 9.92815 19.6366ZM5.49213 15.2095L5.2464 15.7451C4.96976 16.3481 4.92547 16.4731 4.9186 16.5778C4.91061 16.6997 4.93251 16.8217 4.9824 16.9332C5.02525 17.029 5.11027 17.1308 5.57935 17.5999L6.40031 18.4209C6.8694 18.89 6.97125 18.975 7.06701 19.0178C7.17852 19.0677 7.30052 19.0896 7.42242 19.0816C7.52711 19.0748 7.65217 19.0305 8.25512 18.7538L8.79068 18.5081L5.49213 15.2095ZM10.2448 17.8409L17.5827 14.4741C18.2983 14.1458 18.7887 13.92 19.1433 13.7168C19.4955 13.515 19.625 13.3831 19.6865 13.2856C19.8599 13.0107 19.9194 12.6791 19.8524 12.361C19.8287 12.2482 19.7532 12.0795 19.4932 11.7678C19.2313 11.4539 18.8502 11.0717 18.2934 10.5149L13.4853 5.70687C12.9285 5.15008 12.5463 4.76889 12.2324 4.50706C11.9207 4.24704 11.7521 4.17155 11.6392 4.14779C11.3212 4.0808 10.9895 4.14033 10.7146 4.31376C10.6171 4.37528 10.4853 4.50471 10.2835 4.85691C10.0802 5.21157 9.85447 5.70189 9.52609 6.41758L6.15932 13.7554L10.2448 17.8409ZM15.1942 17.2204C15.2699 17.6285 15.2461 18.024 15.1331 18.3717C14.9603 18.9036 14.5857 19.308 14.0788 19.5174C13.5655 19.7294 12.9241 19.7364 12.2792 19.4883C11.9607 19.3658 11.6595 19.1877 11.3908 18.9655L15.1942 17.2204Z" fill="white" fill-opacity="0.96"/>
</svg>
