<svg width="24" height="24" viewBox="0 0 24 24" fill="none" xmlns="http://www.w3.org/2000/svg">
<path d="M7.66228 13.4623C7.66228 13.0481 7.99807 12.7123 8.41228 12.7123H12.2373C12.6515 12.7123 12.9873 13.0481 12.9873 13.4623C12.9873 13.8765 12.6515 14.2123 12.2373 14.2123H8.41228C7.99807 14.2123 7.66228 13.8765 7.66228 13.4623Z" fill="white"/>
<path d="M8.41228 9.7373C7.99807 9.7373 7.66228 10.0731 7.66228 10.4873C7.66228 10.9015 7.99807 11.2373 8.41228 11.2373H16.0623C16.4765 11.2373 16.8123 10.9015 16.8123 10.4873C16.8123 10.0731 16.4765 9.7373 16.0623 9.7373H8.41228Z" fill="white"/>
<path fill-rule="evenodd" clip-rule="evenodd" d="M3.83728 11.7623C3.83728 7.12311 7.59809 3.3623 12.2373 3.3623C16.8765 3.3623 20.6373 7.12311 20.6373 11.7623C20.6373 16.4015 16.8765 20.1623 12.2373 20.1623C11.2394 20.1623 10.2805 19.988 9.39062 19.6675C8.8779 19.4828 8.38519 19.4337 7.95899 19.5531L5.45586 20.2539C4.41397 20.5457 3.45391 19.5856 3.74564 18.5437L4.44651 16.0406C4.56585 15.6144 4.51678 15.1217 4.33212 14.609C4.01162 13.719 3.83728 12.7602 3.83728 11.7623ZM12.2373 4.8623C8.42652 4.8623 5.33728 7.95154 5.33728 11.7623C5.33728 12.5845 5.48075 13.3715 5.74338 14.1007C5.99638 14.8031 6.11987 15.6275 5.89096 16.445L5.24401 18.7556L7.55454 18.1086C8.37209 17.8797 9.19644 18.0032 9.89889 18.2562C10.6281 18.5188 11.4151 18.6623 12.2373 18.6623C16.048 18.6623 19.1373 15.5731 19.1373 11.7623C19.1373 7.95154 16.048 4.8623 12.2373 4.8623Z" fill="white"/>
</svg>
