<svg width="24" height="24" viewBox="0 0 24 24" fill="none" xmlns="http://www.w3.org/2000/svg">
<path d="M12.0248 7.7248C12.4942 7.7248 12.8748 8.10536 12.8748 8.5748V11.9748C12.8748 12.4442 12.4942 12.8248 12.0248 12.8248C11.5553 12.8248 11.1748 12.4442 11.1748 11.9748V8.5748C11.1748 8.10536 11.5553 7.7248 12.0248 7.7248Z" fill="white"/>
<path d="M12.8748 15.3748C12.8748 15.8442 12.4942 16.2248 12.0248 16.2248C11.5553 16.2248 11.1748 15.8442 11.1748 15.3748C11.1748 14.9054 11.5553 14.5248 12.0248 14.5248C12.4942 14.5248 12.8748 14.9054 12.8748 15.3748Z" fill="white"/>
<path fill-rule="evenodd" clip-rule="evenodd" d="M12.2373 3.3623C7.59809 3.3623 3.83728 7.12311 3.83728 11.7623C3.83728 12.7602 4.01162 13.719 4.33212 14.609C4.51678 15.1217 4.56585 15.6144 4.44651 16.0406L3.74564 18.5437C3.45391 19.5856 4.41397 20.5457 5.45586 20.2539L7.95899 19.5531C8.38519 19.4337 8.8779 19.4828 9.39062 19.6675C10.2805 19.988 11.2394 20.1623 12.2373 20.1623C16.8765 20.1623 20.6373 16.4015 20.6373 11.7623C20.6373 7.12311 16.8765 3.3623 12.2373 3.3623ZM5.33728 11.7623C5.33728 7.95154 8.42652 4.8623 12.2373 4.8623C16.048 4.8623 19.1373 7.95154 19.1373 11.7623C19.1373 15.5731 16.048 18.6623 12.2373 18.6623C11.4151 18.6623 10.6281 18.5188 9.89889 18.2562C9.19644 18.0032 8.37209 17.8797 7.55454 18.1086L5.24401 18.7556L5.89096 16.445C6.11987 15.6275 5.99638 14.8031 5.74338 14.1007C5.48075 13.3715 5.33728 12.5845 5.33728 11.7623Z" fill="white"/>
</svg>
