<svg width="24" height="24" viewBox="0 0 24 24" fill="none" xmlns="http://www.w3.org/2000/svg">
<path d="M15.8505 13.2498C16.5547 13.2498 17.1255 12.679 17.1255 11.9748C17.1255 11.2706 16.5547 10.6998 15.8505 10.6998C15.1464 10.6998 14.5755 11.2706 14.5755 11.9748C14.5755 12.679 15.1464 13.2498 15.8505 13.2498Z" fill="white"/>
<path d="M13.3005 11.9748C13.3005 12.679 12.7297 13.2498 12.0255 13.2498C11.3214 13.2498 10.7505 12.679 10.7505 11.9748C10.7505 11.2706 11.3214 10.6998 12.0255 10.6998C12.7297 10.6998 13.3005 11.2706 13.3005 11.9748Z" fill="white"/>
<path d="M8.20051 13.2498C8.90468 13.2498 9.47551 12.679 9.47551 11.9748C9.47551 11.2706 8.90468 10.6998 8.20051 10.6998C7.49635 10.6998 6.92551 11.2706 6.92551 11.9748C6.92551 12.679 7.49635 13.2498 8.20051 13.2498Z" fill="white"/>
<path fill-rule="evenodd" clip-rule="evenodd" d="M12.238 3.3623C7.59882 3.3623 3.83801 7.12311 3.83801 11.7623C3.83801 12.7602 4.01235 13.719 4.33286 14.609C4.51751 15.1217 4.56658 15.6144 4.44725 16.0406L3.74637 18.5437C3.45464 19.5856 4.4147 20.5457 5.4566 20.2539L7.95972 19.5531C8.38592 19.4337 8.87864 19.4828 9.39136 19.6675C10.2813 19.988 11.2401 20.1623 12.238 20.1623C16.8772 20.1623 20.638 16.4015 20.638 11.7623C20.638 7.12311 16.8772 3.3623 12.238 3.3623ZM5.33801 11.7623C5.33801 7.95154 8.42725 4.8623 12.238 4.8623C16.0488 4.8623 19.138 7.95154 19.138 11.7623C19.138 15.5731 16.0488 18.6623 12.238 18.6623C11.4159 18.6623 10.6289 18.5188 9.89963 18.2562C9.19717 18.0032 8.37282 17.8797 7.55527 18.1086L5.24474 18.7556L5.89169 16.445C6.1206 15.6275 5.99711 14.8031 5.74412 14.1007C5.48148 13.3715 5.33801 12.5845 5.33801 11.7623Z" fill="white"/>
</svg>
