<svg width="24" height="24" viewBox="0 0 24 24" fill="none" xmlns="http://www.w3.org/2000/svg">
<path fill-rule="evenodd" clip-rule="evenodd" d="M3.94994 11.7631C3.94994 7.18603 7.66038 3.47559 12.2374 3.47559C16.8145 3.47559 20.5249 7.18603 20.5249 11.7631C20.5249 16.3401 16.8145 20.0506 12.2374 20.0506C11.2527 20.0506 10.3068 19.8786 9.4289 19.5624C8.90195 19.3726 8.38437 19.318 7.92881 19.4455L5.42569 20.1464C4.46827 20.4145 3.58606 19.5323 3.85413 18.5748L4.55501 16.0717C4.68256 15.6162 4.62791 15.0986 4.43813 14.5716C4.12196 13.6938 3.94994 12.7478 3.94994 11.7631ZM8.74427 13.9523C8.74302 13.9499 8.74179 13.9475 8.74056 13.9451C8.62476 13.7178 8.62476 13.4203 8.62476 12.8252V10.2752C8.62476 9.68014 8.62476 9.38261 8.74056 9.15533C8.84243 8.95541 9.00497 8.79287 9.20489 8.691C9.43217 8.5752 9.7297 8.5752 10.3248 8.5752H12.4498C13.0448 8.5752 13.3423 8.5752 13.5696 8.691C13.7688 8.7925 13.9309 8.95425 14.0329 9.15318M8.74427 13.9523C8.84634 14.1491 9.00745 14.3091 9.20509 14.4098C9.43237 14.5256 9.7299 14.5256 10.325 14.5256H12.45C13.045 14.5256 13.3425 14.5256 13.5698 14.4098C13.7697 14.3079 13.9323 14.1454 14.0342 13.9454C14.15 13.7182 14.15 13.4206 14.15 12.8256V12.4094L15.5828 13.5675C15.8607 13.7922 16.275 13.5944 16.275 13.237V9.86416C16.275 9.79218 16.2582 9.72668 16.229 9.6698C16.1138 9.44397 15.8047 9.35374 15.5826 9.53324L14.15 10.6912V10.2756C14.15 9.68053 14.15 9.383 14.0342 9.15572C14.0341 9.15559 14.034 9.15546 14.034 9.15533" fill="white"/>
</svg>
