<svg width="24" height="24" viewBox="0 0 24 24" fill="none" xmlns="http://www.w3.org/2000/svg">
<path d="M5.31848 11.7623C5.31848 7.95154 8.40772 4.8623 12.2185 4.8623C15.2928 4.8623 17.8993 6.87342 18.7906 9.65374C18.917 10.0482 19.3393 10.2654 19.7337 10.139C20.1282 10.0126 20.3454 9.59031 20.219 9.19587C19.1345 5.81276 15.9637 3.3623 12.2185 3.3623C7.57929 3.3623 3.81848 7.12311 3.81848 11.7623C3.81848 12.7602 3.99282 13.719 4.31332 14.609C4.49798 15.1217 4.54705 15.6144 4.42772 16.0406L3.72684 18.5437C3.43511 19.5856 4.39517 20.5457 5.43706 20.2539L7.94019 19.5531C8.36639 19.4337 8.8591 19.4828 9.37182 19.6675C10.2617 19.988 11.2206 20.1623 12.2185 20.1623C15.7893 20.1623 18.8379 17.9345 20.0538 14.7957C20.2035 14.4095 20.0117 13.9751 19.6254 13.8254C19.2392 13.6758 18.8048 13.8676 18.6551 14.2539C17.6554 16.8345 15.1495 18.6623 12.2185 18.6623C11.3963 18.6623 10.6093 18.5188 9.8801 18.2562C9.17764 18.0032 8.35329 17.8797 7.53574 18.1086L5.22521 18.7556L5.87216 16.445C6.10107 15.6275 5.97758 14.8031 5.72459 14.1007C5.46195 13.3715 5.31848 12.5845 5.31848 11.7623Z" fill="white"/>
<path d="M14.6613 9.53013C14.9542 9.23724 14.9542 8.76237 14.6613 8.46947C14.3684 8.17658 13.8935 8.17658 13.6007 8.46947L10.6257 11.4445C10.485 11.5851 10.406 11.7759 10.406 11.9748C10.406 12.1737 10.485 12.3645 10.6257 12.5051L13.6007 15.4801C13.8935 15.773 14.3684 15.773 14.6613 15.4801C14.9542 15.1872 14.9542 14.7124 14.6613 14.4195L12.9666 12.7248H19.656C20.0702 12.7248 20.406 12.389 20.406 11.9748C20.406 11.5606 20.0702 11.2248 19.656 11.2248H12.9666L14.6613 9.53013Z" fill="white"/>
</svg>
