<svg width="24" height="24" viewBox="0 0 24 24" fill="none" xmlns="http://www.w3.org/2000/svg">
<path d="M15.2123 10.0623C15.2123 11.7054 13.8803 13.0373 12.2373 13.0373C10.5942 13.0373 9.26228 11.7054 9.26228 10.0623C9.26228 8.41926 10.5942 7.0873 12.2373 7.0873C13.8803 7.0873 15.2123 8.41926 15.2123 10.0623Z" fill="white"/>
<path d="M16.8365 15.1931C15.7903 16.5933 14.1196 17.4998 12.2373 17.4998C10.3549 17.4998 8.68428 16.5933 7.63808 15.1931C9.01999 14.4938 10.5826 14.0998 12.2373 14.0998C13.8919 14.0998 15.4546 14.4938 16.8365 15.1931Z" fill="white"/>
<path fill-rule="evenodd" clip-rule="evenodd" d="M12.2373 3.3623C7.59809 3.3623 3.83728 7.12311 3.83728 11.7623C3.83728 12.7602 4.01162 13.719 4.33212 14.609C4.51678 15.1217 4.56585 15.6144 4.44651 16.0406L3.74564 18.5437C3.45391 19.5856 4.41397 20.5457 5.45586 20.2539L7.95899 19.5531C8.38519 19.4337 8.8779 19.4828 9.39062 19.6675C10.2805 19.988 11.2394 20.1623 12.2373 20.1623C16.8765 20.1623 20.6373 16.4015 20.6373 11.7623C20.6373 7.12311 16.8765 3.3623 12.2373 3.3623ZM5.33728 11.7623C5.33728 7.95154 8.42652 4.8623 12.2373 4.8623C16.048 4.8623 19.1373 7.95154 19.1373 11.7623C19.1373 15.5731 16.048 18.6623 12.2373 18.6623C11.4151 18.6623 10.6281 18.5188 9.89889 18.2562C9.19644 18.0032 8.37209 17.8797 7.55454 18.1086L5.24401 18.7556L5.89096 16.445C6.11987 15.6275 5.99638 14.8031 5.74338 14.1007C5.48075 13.3715 5.33728 12.5845 5.33728 11.7623Z" fill="white"/>
</svg>
