<svg width="24" height="24" viewBox="0 0 24 24" fill="none" xmlns="http://www.w3.org/2000/svg">
<path d="M8.62478 10.2748C8.62478 9.67975 8.62478 9.38222 8.74059 9.15494C8.84245 8.95502 9.00499 8.79248 9.20492 8.69061C9.4322 8.5748 9.72973 8.5748 10.3248 8.5748H12.4498C13.0448 8.5748 13.3424 8.5748 13.5696 8.69061C13.7696 8.79248 13.9321 8.95502 14.034 9.15494C14.1498 9.38222 14.1498 9.67975 14.1498 10.2748V10.691L15.5826 9.53285C15.8605 9.3082 16.2748 9.50602 16.2748 9.86338V13.2362C16.2748 13.5936 15.8605 13.7914 15.5826 13.5668L14.1498 12.4086V12.8248C14.1498 13.4199 14.1498 13.7174 14.034 13.9447C13.9321 14.1446 13.7696 14.3071 13.5696 14.409C13.3424 14.5248 13.0448 14.5248 12.4498 14.5248H10.3248C9.72973 14.5248 9.4322 14.5248 9.20492 14.409C9.00499 14.3071 8.84245 14.1446 8.74059 13.9447C8.62478 13.7174 8.62478 13.4199 8.62478 12.8248V10.2748Z" fill="white"/>
<path fill-rule="evenodd" clip-rule="evenodd" d="M12.2373 3.3623C7.59809 3.3623 3.83728 7.12311 3.83728 11.7623C3.83728 12.7602 4.01162 13.719 4.33212 14.609C4.51678 15.1217 4.56585 15.6144 4.44651 16.0406L3.74564 18.5437C3.45391 19.5856 4.41397 20.5457 5.45586 20.2539L7.95899 19.5531C8.38519 19.4337 8.8779 19.4828 9.39062 19.6675C10.2805 19.988 11.2394 20.1623 12.2373 20.1623C16.8765 20.1623 20.6373 16.4015 20.6373 11.7623C20.6373 7.12311 16.8765 3.3623 12.2373 3.3623ZM5.33728 11.7623C5.33728 7.95154 8.42652 4.8623 12.2373 4.8623C16.048 4.8623 19.1373 7.95154 19.1373 11.7623C19.1373 15.5731 16.048 18.6623 12.2373 18.6623C11.4151 18.6623 10.6281 18.5188 9.89889 18.2562C9.19644 18.0032 8.37209 17.8797 7.55454 18.1086L5.24401 18.7556L5.89096 16.445C6.11987 15.6275 5.99638 14.8031 5.74338 14.1007C5.48075 13.3715 5.33728 12.5845 5.33728 11.7623Z" fill="white"/>
</svg>
