<svg width="24" height="24" viewBox="0 0 24 24" fill="none" xmlns="http://www.w3.org/2000/svg">
<path d="M12.2372 3.47559C7.66014 3.47559 3.9497 7.18603 3.9497 11.7631C3.9497 12.7478 4.12172 13.6938 4.43788 14.5716C4.62767 15.0986 4.68232 15.6162 4.55476 16.0717L3.85389 18.5748C3.58581 19.5323 4.46803 20.4145 5.42545 20.1464L7.92857 19.4455C8.38412 19.318 8.90171 19.3726 9.42866 19.5624C10.0869 19.7995 10.7834 19.9555 11.5058 20.0187C11.18 19.2442 11 18.3933 11 17.5003C11 13.9105 13.9101 11.0003 17.5 11.0003C18.592 11.0003 19.6212 11.2697 20.5247 11.7455C20.5152 7.17653 16.8084 3.47559 12.2372 3.47559Z" fill="white"/>
<path fill-rule="evenodd" clip-rule="evenodd" d="M17.5 23.0003C20.5375 23.0003 23 20.5379 23 17.5003C23 14.4628 20.5375 12.0003 17.5 12.0003C14.4624 12.0003 12 14.4628 12 17.5003C12 20.5379 14.4624 23.0003 17.5 23.0003ZM19.75 15.2503C19.75 16.493 18.7426 17.5003 17.5 17.5003C16.2573 17.5003 15.25 16.493 15.25 15.2503C15.25 14.0077 16.2573 13.0003 17.5 13.0003C18.7426 13.0003 19.75 14.0077 19.75 15.2503ZM21.2776 19.9466C20.4755 21.1827 19.0832 22.0003 17.5 22.0003C15.9167 22.0003 14.5245 21.1827 13.7224 19.9466C14.8475 19.3428 16.1337 19.0003 17.5 19.0003C18.8663 19.0003 20.1525 19.3428 21.2776 19.9466Z" fill="white"/>
</svg>
