<svg width="24" height="24" viewBox="0 0 24 24" fill="none" xmlns="http://www.w3.org/2000/svg">
<path fill-rule="evenodd" clip-rule="evenodd" d="M15.9197 3.01685C17.3171 1.61939 19.5829 1.61938 20.9803 3.01685C22.3778 4.41431 22.3778 6.68004 20.9803 8.07751L9.13077 19.9271C8.64006 20.4178 8.0228 20.7627 7.34769 20.9235L2.92373 21.9768C2.67037 22.0371 2.40385 21.9617 2.21968 21.7775C2.03552 21.5934 1.96009 21.3268 2.02041 21.0735L3.07374 16.6495C3.23447 15.9744 3.57939 15.3571 4.07011 14.8664L15.9197 3.01685ZM19.9197 4.07751C19.108 3.26583 17.792 3.26583 16.9803 4.07751L16.321 4.73682C16.9673 5.02196 17.5598 5.42562 18.0659 5.93169C18.5718 6.43764 18.9754 7.02996 19.2605 7.67602L19.9197 7.01685C20.7314 6.20517 20.7314 4.88918 19.9197 4.07751ZM18.0909 8.84562C17.8946 8.14835 17.5222 7.50934 17.0052 6.99235C16.4881 6.47523 15.8489 6.10278 15.1514 5.90648L5.13077 15.9271C4.83634 16.2215 4.62939 16.5919 4.53294 16.9969L4.46678 17.2749C5.49605 17.6807 6.31652 18.5012 6.72246 19.5304L7.00026 19.4643C7.40532 19.3678 7.77568 19.1609 8.07011 18.8664L18.0909 8.84562Z" fill="white"/>
<path d="M9.53136 21.5L11.5314 19.5H21C21.5523 19.5 22 19.9477 22 20.5C22 21.0523 21.5523 21.5 21 21.5H9.53136Z" fill="white"/>
</svg>
