<svg width="24" height="24" viewBox="0 0 24 24" fill="none" xmlns="http://www.w3.org/2000/svg">
<path fill-rule="evenodd" clip-rule="evenodd" d="M3.94994 11.7631C3.94994 7.18603 7.66038 3.47559 12.2374 3.47559C16.8145 3.47559 20.5249 7.18603 20.5249 11.7631C20.5249 16.3401 16.8145 20.0506 12.2374 20.0506C11.2527 20.0506 10.3068 19.8786 9.4289 19.5624C8.90195 19.3726 8.38437 19.318 7.92881 19.4455L5.42569 20.1464C4.46827 20.4145 3.58606 19.5323 3.85413 18.5748L4.55501 16.0717C4.68256 15.6162 4.62791 15.0986 4.43813 14.5716C4.12196 13.6938 3.94994 12.7478 3.94994 11.7631ZM16.8366 15.1939C15.7904 16.5941 14.1198 17.5006 12.2374 17.5006C10.3551 17.5006 8.68446 16.5941 7.63825 15.1939C9.02016 14.4946 10.5828 14.1006 12.2374 14.1006C13.8921 14.1006 15.4547 14.4946 16.8366 15.1939ZM12.2375 13.0381C13.8805 13.0381 15.2125 11.7061 15.2125 10.0631C15.2125 8.42004 13.8805 7.08809 12.2375 7.08809C10.5944 7.08809 9.26246 8.42004 9.26246 10.0631C9.26246 11.7061 10.5944 13.0381 12.2375 13.0381Z" fill="white"/>
</svg>
