<svg width="24" height="24" viewBox="0 0 24 24" fill="none" xmlns="http://www.w3.org/2000/svg">
<path d="M12.2126 4.8877C8.40186 4.8877 5.31262 7.97693 5.31262 11.7877C5.31262 12.6099 5.45609 13.3969 5.71873 14.1261C5.97172 14.8285 6.09521 15.6529 5.8663 16.4704L5.21935 18.781L7.52988 18.134C8.34743 17.9051 9.17178 18.0286 9.87424 18.2816C10.6035 18.5442 11.3905 18.6877 12.2126 18.6877C16.0048 18.6877 19.0825 15.6285 19.1124 11.8433C19.6592 11.6853 20.1579 11.4137 20.5812 11.0558C20.602 11.297 20.6126 11.5411 20.6126 11.7877C20.6126 16.4269 16.8518 20.1877 12.2126 20.1877C11.2147 20.1877 10.2559 20.0134 9.36596 19.6929C8.85325 19.5082 8.36053 19.4591 7.93433 19.5785L5.43121 20.2793C4.38931 20.5711 3.42925 19.611 3.72098 18.5691L4.42186 16.066C4.54119 15.6398 4.49212 15.1471 4.30746 14.6344C3.98696 13.7444 3.81262 12.7856 3.81262 11.7877C3.81262 7.1485 7.57343 3.3877 12.2126 3.3877C13.669 3.3877 15.0389 3.75835 16.233 4.41047C15.7276 4.65974 15.2824 5.01261 14.9253 5.44135C14.0926 5.08498 13.1756 4.8877 12.2126 4.8877Z" fill="white"/>
<path d="M18.125 10.4751C19.5747 10.4751 20.75 9.29985 20.75 7.8501C20.75 6.40035 19.5747 5.2251 18.125 5.2251C16.6753 5.2251 15.5 6.40035 15.5 7.8501C15.5 9.29985 16.6753 10.4751 18.125 10.4751Z" fill="white"/>
</svg>
