<svg width="24" height="24" viewBox="0 0 24 24" fill="none" xmlns="http://www.w3.org/2000/svg">
<path fill-rule="evenodd" clip-rule="evenodd" d="M12.2374 3.47559C7.66038 3.47559 3.94994 7.18603 3.94994 11.7631C3.94994 12.7478 4.12196 13.6938 4.43813 14.5716C4.62791 15.0986 4.68256 15.6162 4.55501 16.0717L3.85413 18.5748C3.58606 19.5323 4.46827 20.4145 5.42569 20.1464L7.92881 19.4455C8.38437 19.318 8.90195 19.3726 9.4289 19.5624C10.3068 19.8786 11.2527 20.0506 12.2374 20.0506C16.8145 20.0506 20.5249 16.3401 20.5249 11.7631C20.5249 7.18603 16.8145 3.47559 12.2374 3.47559ZM12 6.15C12.4694 6.15 12.85 6.53056 12.85 7V11C12.85 11.4694 12.4694 11.85 12 11.85C11.5306 11.85 11.15 11.4694 11.15 11V7C11.15 6.53056 11.5306 6.15 12 6.15ZM12.0246 16.2254C12.494 16.2254 12.8746 15.8448 12.8746 15.3754C12.8746 14.9059 12.494 14.5254 12.0246 14.5254C11.5551 14.5254 11.1746 14.9059 11.1746 15.3754C11.1746 15.8448 11.5551 16.2254 12.0246 16.2254Z" fill="white"/>
</svg>
