<svg width="24" height="24" viewBox="0 0 24 24" fill="none" xmlns="http://www.w3.org/2000/svg">
<path fill-rule="evenodd" clip-rule="evenodd" d="M22.9986 6.5C22.9986 9.53757 20.5362 12 17.4986 12C14.461 12 11.9986 9.53757 11.9986 6.5C11.9986 3.46243 14.461 1 17.4986 1C20.5362 1 22.9986 3.46243 22.9986 6.5ZM15.0237 4.02513C15.219 3.82986 15.5356 3.82986 15.7308 4.02513L17.4986 5.79289L19.2664 4.02513C19.4616 3.82986 19.7782 3.82986 19.9735 4.02513C20.1687 4.22039 20.1687 4.53697 19.9735 4.73223L18.2057 6.5L19.9735 8.26777C20.1687 8.46303 20.1687 8.77961 19.9735 8.97487C19.7782 9.17014 19.4616 9.17014 19.2664 8.97487L17.4986 7.20711L15.7308 8.97487C15.5356 9.17014 15.219 9.17014 15.0237 8.97487C14.8285 8.77961 14.8285 8.46303 15.0237 8.26777L16.7915 6.5L15.0237 4.73223C14.8285 4.53697 14.8285 4.22039 15.0237 4.02513Z" fill="white" fill-opacity="0.96"/>
<path d="M11.9986 2.25C12.1847 2.25 12.3675 2.26355 12.5463 2.28971C11.5811 3.42394 10.9986 4.89395 10.9986 6.5C10.9986 9.45693 12.973 11.9527 15.6754 12.7408C15.3315 14.4571 13.8161 15.75 11.9986 15.75C9.92755 15.75 8.24862 14.0711 8.24862 12V6C8.24862 3.92893 9.92755 2.25 11.9986 2.25Z" fill="white" fill-opacity="0.96"/>
<path d="M15.4601 15.9472C16.3399 15.1757 16.9344 14.1344 17.1542 12.991C17.2682 12.997 17.3831 13 17.4986 13C17.9054 13 18.3034 12.9626 18.6895 12.8912C18.4738 14.5108 17.6778 15.9974 16.4491 17.075C15.4071 17.9888 14.1141 18.5556 12.7486 18.7083V21C12.7486 21.4142 12.4128 21.75 11.9986 21.75C11.5843 21.75 11.2486 21.4142 11.2486 21V18.7083C9.88305 18.5556 8.58997 17.9888 7.54797 17.075C6.31676 15.9952 5.52006 14.5047 5.30631 12.8811C5.25224 12.4704 5.54133 12.0937 5.952 12.0396C6.36266 11.9856 6.73941 12.2746 6.79347 12.6853C6.95972 13.9481 7.57938 15.1074 8.53699 15.9472C9.49461 16.787 10.7249 17.25 11.9986 17.25C13.2723 17.25 14.5025 16.787 15.4601 15.9472Z" fill="white" fill-opacity="0.96"/>
</svg>
