<svg width="24" height="24" viewBox="0 0 24 24" fill="none" xmlns="http://www.w3.org/2000/svg">
<path d="M12.0001 2C12.2968 2 12.5849 2.03956 12.86 2.11402C11.1342 3.28262 10 5.25885 10 7.5C10 10.5472 12.0968 13.1046 14.9263 13.8082C14.3006 14.8273 13.2237 15.5 12.0001 15.5C10.0671 15.5 8.50009 13.8211 8.50009 11.75V5.75C8.50009 3.67893 10.0671 2 12.0001 2Z" fill="white"/>
<path d="M15.4103 15.6972C15.9541 15.2204 16.3888 14.6405 16.6935 13.9972C17.2879 13.9798 17.8622 13.8826 18.4061 13.716C18.042 14.9121 17.3503 15.991 16.3993 16.825C15.3573 17.7388 14.0643 18.3056 12.6988 18.4583V20.75C12.6988 21.1642 12.363 21.5 11.9488 21.5C11.5345 21.5 11.1988 21.1642 11.1988 20.75V18.4583C9.83324 18.3056 8.54017 17.7388 7.49817 16.825C6.26695 15.7452 5.47025 14.2547 5.2565 12.6311C5.20244 12.2204 5.49152 11.8437 5.90219 11.7896C6.31286 11.7356 6.6896 12.0246 6.74367 12.4353C6.90992 13.6981 7.52958 14.8574 8.48719 15.6972C9.4448 16.537 10.6751 17 11.9488 17C13.2224 17 14.4527 16.537 15.4103 15.6972Z" fill="white"/>
<path fill-rule="evenodd" clip-rule="evenodd" d="M22 7.5C22 10.5376 19.5376 13 16.5 13C13.4624 13 11 10.5376 11 7.5C11 4.46243 13.4624 2 16.5 2C19.5376 2 22 4.46243 22 7.5ZM14.0251 5.02513C14.2204 4.82986 14.537 4.82986 14.7322 5.02513L16.5 6.79289L18.2678 5.02513C18.463 4.82986 18.7796 4.82986 18.9749 5.02513C19.1701 5.22039 19.1701 5.53697 18.9749 5.73223L17.2071 7.5L18.9749 9.26777C19.1701 9.46303 19.1701 9.77961 18.9749 9.97487C18.7796 10.1701 18.463 10.1701 18.2678 9.97487L16.5 8.20711L14.7322 9.97487C14.537 10.1701 14.2204 10.1701 14.0251 9.97487C13.8299 9.77961 13.8299 9.46303 14.0251 9.26777L15.7929 7.5L14.0251 5.73223C13.8299 5.53697 13.8299 5.22039 14.0251 5.02513Z" fill="white"/>
</svg>
