<svg width="24" height="24" viewBox="0 0 24 24" fill="none" xmlns="http://www.w3.org/2000/svg">
<path fill-rule="evenodd" clip-rule="evenodd" d="M22.9985 7.5C22.9985 10.5376 20.5361 13 17.4985 13C14.461 13 11.9985 10.5376 11.9985 7.5C11.9985 4.46243 14.461 2 17.4985 2C20.5361 2 22.9985 4.46243 22.9985 7.5ZM15.0237 5.02513C15.2189 4.82986 15.5355 4.82986 15.7308 5.02513L17.4985 6.79289L19.2663 5.02513C19.4616 4.82986 19.7781 4.82986 19.9734 5.02513C20.1687 5.22039 20.1687 5.53697 19.9734 5.73223L18.2056 7.5L19.9734 9.26777C20.1687 9.46303 20.1687 9.77961 19.9734 9.97487C19.7781 10.1701 19.4616 10.1701 19.2663 9.97487L17.4985 8.20711L15.7308 9.97487C15.5355 10.1701 15.2189 10.1701 15.0237 9.97487C14.8284 9.77961 14.8284 9.46303 15.0237 9.26777L16.7914 7.5L15.0237 5.73223C14.8284 5.53697 14.8284 5.22039 15.0237 5.02513Z" fill="white" fill-opacity="0.96"/>
<path d="M11.9986 2.25C12.4735 2.25 12.9277 2.33826 13.3458 2.49928C12.9054 2.86539 12.5142 3.28857 12.1834 3.75748C12.1225 3.75253 12.0608 3.75 11.9986 3.75C10.756 3.75 9.74862 4.75736 9.74862 6V12C9.74862 13.2426 10.756 14.25 11.9986 14.25C12.8855 14.25 13.6526 13.7369 14.0191 12.9913C14.4392 13.258 14.892 13.4779 15.3702 13.6436C14.7611 14.8908 13.4802 15.75 11.9986 15.75C9.92755 15.75 8.24862 14.0711 8.24862 12V6C8.24862 3.92893 9.92755 2.25 11.9986 2.25Z" fill="white" fill-opacity="0.96"/>
<path d="M15.4601 15.9472C16.081 15.4027 16.5599 14.7238 16.8651 13.9695C17.0736 13.9897 17.2848 14 17.4985 14C17.8277 14 18.1512 13.9755 18.4673 13.9283C18.1063 15.1394 17.41 16.2323 16.4491 17.075C15.4071 17.9888 14.1141 18.5556 12.7486 18.7083V21C12.7486 21.4142 12.4128 21.75 11.9986 21.75C11.5843 21.75 11.2486 21.4142 11.2486 21V18.7083C9.88305 18.5556 8.58997 17.9888 7.54798 17.075C6.31676 15.9952 5.52006 14.5047 5.30631 12.8811C5.25224 12.4704 5.54133 12.0937 5.952 12.0396C6.36267 11.9856 6.73941 12.2746 6.79347 12.6853C6.95972 13.9481 7.57938 15.1074 8.53699 15.9472C9.49461 16.787 10.7249 17.25 11.9986 17.25C13.2723 17.25 14.5025 16.787 15.4601 15.9472Z" fill="white" fill-opacity="0.96"/>
</svg>
