<svg width="24" height="24" viewBox="0 0 24 24" fill="none" xmlns="http://www.w3.org/2000/svg">
<path fill-rule="evenodd" clip-rule="evenodd" d="M12.0001 2C10.0671 2 8.50009 3.67893 8.50009 5.75V11.75C8.50009 13.8211 10.0671 15.5 12.0001 15.5C13.9331 15.5 15.5001 13.8211 15.5001 11.75V5.75C15.5001 3.67893 13.9331 2 12.0001 2ZM6.74367 12.4353C6.6896 12.0246 6.31286 11.7356 5.90219 11.7896C5.49152 11.8437 5.20244 12.2204 5.2565 12.6311C5.47025 14.2547 6.26695 15.7452 7.49817 16.825C8.54017 17.7388 9.83324 18.3056 11.1988 18.4583V20.75C11.1988 21.1642 11.5345 21.5 11.9488 21.5C12.363 21.5 12.6988 21.1642 12.6988 20.75V18.4583C14.0643 18.3056 15.3573 17.7388 16.3993 16.825C17.6306 15.7452 18.4273 14.2547 18.641 12.6311C18.6951 12.2204 18.406 11.8437 17.9953 11.7896C17.5847 11.7356 17.2079 12.0246 17.1538 12.4353C16.9876 13.6981 16.3679 14.8574 15.4103 15.6972C14.4527 16.537 13.2224 17 11.9488 17C10.6751 17 9.4448 16.537 8.48719 15.6972C7.52958 14.8574 6.90992 13.6981 6.74367 12.4353Z" fill="white"/>
</svg>
