<svg width="24" height="24" viewBox="0 0 24 24" fill="none" xmlns="http://www.w3.org/2000/svg">
<path fill-rule="evenodd" clip-rule="evenodd" d="M11.9953 2.25C9.92422 2.25 8.24529 3.92893 8.24529 6V12C8.24529 12.7643 8.47394 13.4752 8.86656 14.068L7.79063 15.1439C7.25565 14.4284 6.90833 13.583 6.79014 12.6853C6.73608 12.2746 6.35933 11.9856 5.94866 12.0396C5.53799 12.0937 5.24891 12.4704 5.30297 12.8811C5.46445 14.1076 5.9586 15.2582 6.72145 16.2131L2.97944 19.9551C2.68654 20.248 2.68654 20.7229 2.97944 21.0158C3.27061 21.307 3.74165 21.3087 4.03493 21.0209C4.03665 21.0191 4.03837 21.0174 4.0401 21.0157L21.0107 4.04511C21.0124 4.04338 21.0141 4.04167 21.0159 4.03996C21.3035 3.74667 21.3018 3.27571 21.0107 2.98456C20.7178 2.69167 20.2429 2.69167 19.95 2.98456L15.7453 7.18927V6C15.7453 3.92893 14.0664 2.25 11.9953 2.25ZM15.7453 11.4318L13.6029 13.5742C13.5919 13.5855 13.5808 13.5966 13.5695 13.6076L11.4644 15.7127C11.6378 15.7373 11.8151 15.75 11.9953 15.75C14.0664 15.75 15.7453 14.0711 15.7453 12V11.4318ZM10.232 16.9451L9.08611 18.091C9.76401 18.4148 10.4936 18.6242 11.2452 18.7083V21C11.2452 21.4142 11.581 21.75 11.9952 21.75C12.4094 21.75 12.7452 21.4142 12.7452 21V18.7083C14.1107 18.5556 15.4038 17.9888 16.4458 17.075C17.677 15.9952 18.4737 14.5047 18.6875 12.8811C18.7415 12.4704 18.4525 12.0937 18.0418 12.0396C17.6311 11.9856 17.2544 12.2746 17.2003 12.6853C17.0341 13.9481 16.4144 15.1074 15.4568 15.9472C14.4992 16.787 13.2689 17.25 11.9952 17.25C11.3894 17.25 10.7935 17.1453 10.232 16.9451ZM9.96454 12.97L14.2453 8.68927V6C14.2453 4.75736 13.2379 3.75 11.9953 3.75C10.7526 3.75 9.74529 4.75736 9.74529 6V12C9.74529 12.3473 9.82399 12.6763 9.96454 12.97Z" fill="white" fill-opacity="0.96"/>
</svg>
