<svg width="24" height="24" viewBox="0 0 24 24" fill="none" xmlns="http://www.w3.org/2000/svg">
<path d="M11 2.25C12.2426 2.25 13.25 3.25736 13.25 4.5V6.75391C15.9526 6.84959 18.7146 8.48781 20.1582 11.1416C21.635 13.8566 21.3483 17.2968 19.1406 20.25H21C21.4142 20.25 21.75 20.5858 21.75 21C21.75 21.4142 21.4142 21.75 21 21.75H3C2.58579 21.75 2.25 21.4142 2.25 21C2.25 20.5858 2.58579 20.25 3 20.25H17.1826C19.7932 17.4906 20.1344 14.2354 18.8418 11.8584C17.6565 9.67922 15.3964 8.35227 13.25 8.25586V12.5C13.25 13.7426 12.2426 14.75 11 14.75H8.5C7.25736 14.75 6.25 13.7426 6.25 12.5V4.5C6.25 3.25736 7.25736 2.25 8.5 2.25H11Z" fill="white"/>
<path d="M12.3027 16.5C12.7167 16.5003 13.0527 16.8359 13.0527 17.25C13.0527 17.6641 12.7167 17.9997 12.3027 18H7.19043C6.77622 18 6.44043 17.6642 6.44043 17.25C6.44043 16.8358 6.77622 16.5 7.19043 16.5H12.3027Z" fill="white"/>
</svg>
