<svg width="24" height="24" viewBox="0 0 24 24" fill="none" xmlns="http://www.w3.org/2000/svg">
<path d="M12.3085 2.12055C12.3665 1.93247 12.6327 1.93247 12.6907 2.12055L12.8952 2.78348C13.0901 3.41554 13.5849 3.91035 14.2169 4.10527L14.8799 4.30971C15.068 4.36771 15.068 4.63394 14.8799 4.69194L14.2169 4.89638C13.5849 5.0913 13.0901 5.58611 12.8952 6.21817L12.6907 6.8811C12.6327 7.06918 12.3665 7.06918 12.3085 6.8811L12.104 6.21817C11.9091 5.58611 11.4143 5.0913 10.7822 4.89638L10.1193 4.69194C9.93124 4.63394 9.93124 4.36771 10.1193 4.30971L10.7822 4.10527C11.4143 3.91035 11.9091 3.41554 12.104 2.78348L12.3085 2.12055Z" fill="white" fill-opacity="0.96"/>
<path d="M5.26211 7.22293C5.33749 6.99373 5.66171 6.99373 5.73708 7.22293L6.01621 8.07164C6.31387 8.9767 7.02373 9.68656 7.92878 9.98421L8.7775 10.2633C9.00669 10.3387 9.00669 10.6629 8.7775 10.7383L7.92878 11.0174C7.02373 11.3151 6.31387 12.025 6.01621 12.93L5.73708 13.7787C5.66171 14.0079 5.33749 14.0079 5.26211 13.7787L4.98299 12.93C4.68533 12.025 3.97547 11.3151 3.07041 11.0174L2.2217 10.7383C1.99251 10.6629 1.99251 10.3387 2.2217 10.2633L3.07041 9.98421C3.97547 9.68656 4.68533 8.9767 4.98299 8.07164L5.26211 7.22293Z" fill="white" fill-opacity="0.96"/>
<path fill-rule="evenodd" clip-rule="evenodd" d="M20.9996 9.21938C20.9996 8.23883 20.0742 7.52194 19.1248 7.76696L12.8748 9.37986C12.2124 9.5508 11.7496 10.1482 11.7496 10.8323V17.2088C11.4434 17.075 11.1052 17.0008 10.7496 17.0008C9.36889 17.0008 8.2496 18.1201 8.2496 19.5008C8.2496 20.8815 9.36889 22.0008 10.7496 22.0008C12.1302 22.0008 13.2494 20.8818 13.2496 19.5013V13.8323L19.4996 12.2194V16.2088C19.1934 16.075 18.8552 16.0008 18.4996 16.0008C17.1189 16.0008 15.9996 17.1201 15.9996 18.5008C15.9996 19.8815 17.1189 21.0008 18.4996 21.0008C19.8802 21.0008 20.9994 19.8818 20.9996 18.5013V9.21938Z" fill="white" fill-opacity="0.96"/>
</svg>
