<svg width="24" height="24" viewBox="0 0 24 24" fill="none" xmlns="http://www.w3.org/2000/svg">
<path fill-rule="evenodd" clip-rule="evenodd" d="M17.5 12C20.5376 12 23 14.4624 23 17.5C23 20.5376 20.5376 23 17.5 23C14.4624 23 12 20.5376 12 17.5C12 14.4624 14.4624 12 17.5 12ZM20.5 19C20.2239 19 20 19.2239 20 19.5C20 20.0523 19.5523 20.5 19 20.5H16C15.4477 20.5 15 20.0523 15 19.5C15 19.2239 14.7761 19 14.5 19C14.2239 19 14 19.2239 14 19.5C14 20.6046 14.8954 21.5 16 21.5H19C20.1046 21.5 21 20.6046 21 19.5C21 19.2239 20.7761 19 20.5 19ZM17.5 13C17.2239 13 17 13.2239 17 13.5V17.793L15.8535 16.6465C15.6583 16.4512 15.3417 16.4512 15.1465 16.6465C14.9512 16.8417 14.9512 17.1583 15.1465 17.3535L17.1465 19.3535C17.3417 19.5488 17.6583 19.5488 17.8535 19.3535L19.8535 17.3535C20.0488 17.1583 20.0488 16.8417 19.8535 16.6465C19.6583 16.4512 19.3417 16.4512 19.1465 16.6465L18 17.793V13.5C18 13.2239 17.7761 13 17.5 13Z" fill="white"/>
<path d="M11.0205 17C11.0079 17.1651 11 17.3317 11 17.5C11 17.8401 11.0268 18.174 11.0771 18.5H2.75C2.33579 18.5 2 18.1642 2 17.75C2.00001 17.3358 2.33579 17 2.75 17H11.0205Z" fill="white"/>
<path d="M18.0498 5C18.2474 5 18.4409 4.99942 18.6035 5.0127C18.7748 5.0267 18.9772 5.05954 19.1807 5.16309C19.4629 5.3069 19.6931 5.5371 19.8369 5.81934C19.9405 6.02276 19.9733 6.22517 19.9873 6.39649C20.0006 6.55914 20 6.75263 20 6.9502V11.4981C19.5258 11.3003 19.0232 11.157 18.5 11.0762V6.9502C18.5 6.72788 18.4993 6.60599 18.4922 6.51856C18.4919 6.51551 18.4915 6.51253 18.4912 6.50977C18.4881 6.50948 18.4849 6.5081 18.4814 6.50782C18.394 6.50068 18.2721 6.5 18.0498 6.5H5.9502C5.72786 6.5 5.60599 6.50068 5.51855 6.50782C5.51547 6.50807 5.51256 6.50951 5.50977 6.50977C5.50951 6.51256 5.50807 6.51548 5.50781 6.51856C5.50067 6.60599 5.5 6.72788 5.5 6.9502V14.0498C5.5 14.2721 5.50068 14.394 5.50781 14.4814C5.50809 14.4849 5.50948 14.4881 5.50977 14.4912C5.51254 14.4915 5.5155 14.4919 5.51855 14.4922C5.60599 14.4993 5.72786 14.5 5.9502 14.5H11.7334C11.4887 14.9693 11.3005 15.4722 11.1758 16H5.9502C5.75261 16 5.55914 16.0006 5.39648 15.9873C5.22516 15.9733 5.02276 15.9405 4.81934 15.8369C4.5724 15.7111 4.3658 15.5191 4.22168 15.2842L4.16309 15.1807L4.09766 15.0293C4.04392 14.8785 4.0232 14.7321 4.0127 14.6035C3.99942 14.4409 4 14.2474 4 14.0498V6.9502C4 6.75263 3.99942 6.55914 4.0127 6.39649C4.02669 6.22517 4.05954 6.02276 4.16309 5.81934C4.3069 5.5371 4.5371 5.3069 4.81934 5.16309C5.02276 5.05954 5.22516 5.0267 5.39648 5.0127C5.55914 4.99942 5.75262 5 5.9502 5H18.0498Z" fill="white"/>
</svg>
