<svg width="24" height="24" viewBox="0 0 24 24" fill="none" xmlns="http://www.w3.org/2000/svg">
<path fill-rule="evenodd" clip-rule="evenodd" d="M17.5 12C20.5376 12 23 14.4624 23 17.5C23 20.5376 20.5376 23 17.5 23C14.4624 23 12 20.5376 12 17.5C12 14.4624 14.4624 12 17.5 12ZM20.5 19C20.2239 19 20 19.2239 20 19.5C20 20.0523 19.5523 20.5 19 20.5H16C15.4477 20.5 15 20.0523 15 19.5C15 19.2239 14.7761 19 14.5 19C14.2239 19 14 19.2239 14 19.5C14 20.6046 14.8954 21.5 16 21.5H19C20.1046 21.5 21 20.6046 21 19.5C21 19.2239 20.7761 19 20.5 19ZM17.5 13C17.2239 13 17 13.2239 17 13.5V17.793L15.8535 16.6465C15.6583 16.4512 15.3417 16.4512 15.1465 16.6465C14.9512 16.8417 14.9512 17.1583 15.1465 17.3535L17.1465 19.3535C17.3417 19.5488 17.6583 19.5488 17.8535 19.3535L19.8535 17.3535C20.0488 17.1583 20.0488 16.8417 19.8535 16.6465C19.6583 16.4512 19.3417 16.4512 19.1465 16.6465L18 17.793V13.5C18 13.2239 17.7761 13 17.5 13Z" fill="white"/>
<path d="M11.0205 17C11.0079 17.1651 11 17.3317 11 17.5C11 17.8401 11.0268 18.174 11.0771 18.5H2.75C2.33579 18.5 2 18.1642 2 17.75C2 17.3358 2.33579 17 2.75 17H11.0205Z" fill="white"/>
<path d="M17.5996 5C18.4393 5 18.8598 4.99981 19.1807 5.16309C19.4629 5.3069 19.6931 5.53709 19.8369 5.81934C20.0002 6.14015 20 6.56068 20 7.40039V11.498C19.2304 11.1771 18.3859 11 17.5 11C14.4266 11 11.8531 13.1335 11.1758 16H6.40039C5.56068 16 5.14015 16.0002 4.81934 15.8369C4.53709 15.6931 4.3069 15.4629 4.16309 15.1807C3.99981 14.8598 4 14.4393 4 13.5996V7.40039C4 6.56068 3.99981 6.14015 4.16309 5.81934C4.3069 5.53709 4.53709 5.3069 4.81934 5.16309C5.14015 4.99981 5.56068 5 6.40039 5H17.5996Z" fill="white"/>
</svg>
