<svg width="24" height="24" viewBox="0 0 24 24" fill="none" xmlns="http://www.w3.org/2000/svg">
<path d="M6.72253 13.1436C7.14478 12.4745 8.03053 12.2733 8.70105 12.6934C10.7215 13.9558 13.287 13.9558 15.3075 12.6934C15.9736 12.284 16.8455 12.4828 17.2694 13.1396C17.7004 13.8071 17.5086 14.6962 16.8407 15.127C15.9638 15.6782 14.9999 16.0777 13.9901 16.3066L16.7323 19.0508C17.2925 19.6117 17.2926 20.5193 16.7323 21.0801C16.171 21.6401 15.2623 21.6401 14.701 21.0801L12.0048 18.3857L9.31042 21.0801C8.75527 21.6042 7.88803 21.6042 7.33288 21.0801C6.75498 20.534 6.72982 19.6235 7.27624 19.0469L10.0194 16.3057C9.0105 16.0759 8.04679 15.6764 7.17077 15.126L7.16979 15.125C6.49835 14.7013 6.2985 13.8136 6.72253 13.1436Z" fill="white"/>
<path fill-rule="evenodd" clip-rule="evenodd" d="M12.0028 2.5C14.7122 2.49913 16.9101 4.69304 16.911 7.40137C16.9118 10.1087 14.7169 12.3048 12.0067 12.3057C9.2982 12.3039 7.102 10.1109 7.09851 7.4043C7.09785 4.69717 9.29374 2.5011 12.0028 2.5ZM12.0067 5.37402C10.8851 5.3749 9.97644 6.28359 9.97448 7.4043C9.97448 8.52606 10.8841 9.43554 12.0067 9.43555C13.1293 9.43555 14.0389 8.52705 14.0389 7.40527C14.0388 6.28364 13.1292 5.37402 12.0067 5.37402Z" fill="white"/>
</svg>
