<svg width="24" height="24" viewBox="0 0 24 24" fill="none" xmlns="http://www.w3.org/2000/svg">
<path fill-rule="evenodd" clip-rule="evenodd" d="M9 5C10.1046 5 11 5.89543 11 7V17C11 18.1046 10.1046 19 9 19H4C2.89543 19 2 18.1046 2 17V7C2 5.89543 2.89543 5 4 5H9ZM9 8.60156C9 7.96568 8.25803 7.61831 7.76953 8.02539L3.69141 11.4238C3.33159 11.7237 3.33159 12.2763 3.69141 12.5762L7.76953 15.9746C8.25803 16.3817 9 16.0343 9 15.3984V8.60156Z" fill="white" fill-opacity="0.96"/>
<path fill-rule="evenodd" clip-rule="evenodd" d="M20 5C21.1046 5 22 5.89543 22 7V17C22 18.1046 21.1046 19 20 19H15C13.8954 19 13 18.1046 13 17V7C13 5.89543 13.8954 5 15 5H20ZM16.2305 8.02539C15.742 7.61831 15 7.96568 15 8.60156V15.3984C15 16.0343 15.742 16.3817 16.2305 15.9746L20.3086 12.5762C20.6684 12.2763 20.6684 11.7237 20.3086 11.4238L16.2305 8.02539Z" fill="white" fill-opacity="0.96"/>
</svg>
