<svg width="24" height="24" viewBox="0 0 24 24" fill="none" xmlns="http://www.w3.org/2000/svg">
<path fill-rule="evenodd" clip-rule="evenodd" d="M2 7C2 5.89 2.89 5 4 5H9C10.1 5 11 5.89 11 7V17C11 18.1 10.1 19 9 19H4C2.89 19 2 18.1 2 17V7ZM15 5C13.89 5 13 5.89 13 7V17C13 18.1 13.89 19 15 19H20C21.1 19 22 18.1 22 17V7C22 5.89 21.1 5 20 5H15ZM3.5 7C3.5 6.72 3.72 6.5 4 6.5H9C9.27 6.5 9.5 6.72 9.5 7V17C9.5 17.27 9.27 17.5 9 17.5H4C3.72 17.5 3.5 17.27 3.5 17V7ZM15 6.5C14.72 6.5 14.5 6.72 14.5 7V17C14.5 17.27 14.72 17.5 15 17.5H20C20.27 17.5 20.5 17.27 20.5 17V7C20.5 6.72 20.27 6.5 20 6.5H15ZM7.51 8.28L4.33 11.46C4.03 11.76 4.03 12.23 4.33 12.53L7.51 15.71C7.99 16.19 8.8 15.85 8.8 15.18V8.81C8.8 8.14 7.99 7.8 7.51 8.28ZM16.48 8.28L19.66 11.46C19.96 11.76 19.96 12.23 19.66 12.53L16.48 15.71C16 16.19 15.19 15.85 15.19 15.18V8.81C15.19 8.14 16 7.8 16.48 8.28Z" fill="white"/>
</svg>
