<svg width="24" height="24" viewBox="0 0 24 24" fill="none" xmlns="http://www.w3.org/2000/svg">
<path fill-rule="evenodd" clip-rule="evenodd" d="M5.91957 4H18.0804C18.6146 3.99999 19.0604 3.99998 19.4247 4.02974C19.8046 4.06078 20.1612 4.12789 20.4985 4.29973C21.0159 4.56338 21.4366 4.98408 21.7003 5.50153C21.8721 5.83879 21.9392 6.19545 21.9703 6.57533C22 6.93955 22 7.38537 22 7.91948V16.0804C22 16.6146 22 17.0605 21.9703 17.4247C21.9392 17.8046 21.8721 18.1612 21.7003 18.4985C21.4366 19.0159 21.0159 19.4366 20.4985 19.7003C20.1612 19.8721 19.8046 19.9392 19.4247 19.9703C19.0605 20 18.6147 20 18.0806 20H5.91955C5.38548 20 4.93952 20 4.57533 19.9703C4.19545 19.9392 3.83879 19.8721 3.50153 19.7003C2.98408 19.4366 2.56338 19.0159 2.29973 18.4985C2.12789 18.1612 2.06078 17.8046 2.02974 17.4247C1.99998 17.0604 1.99999 16.6146 2 16.0805V7.91955C1.99999 7.3854 1.99998 6.93956 2.02974 6.57533C2.06078 6.19545 2.12789 5.83879 2.29973 5.50153C2.56338 4.98408 2.98408 4.56338 3.50153 4.29973C3.83879 4.12789 4.19544 4.06078 4.57533 4.02974C4.93956 3.99998 5.38542 3.99999 5.91957 4ZM17 5.5C16.1716 5.5 15.5 6.17157 15.5 7V17C15.5 17.8284 16.1716 18.5 17 18.5H19C19.8284 18.5 20.5 17.8284 20.5 17V7C20.5 6.17157 19.8284 5.5 19 5.5H17Z" fill="white"/>
</svg>
