<svg width="24" height="24" viewBox="0 0 24 24" fill="none" xmlns="http://www.w3.org/2000/svg">
<path fill-rule="evenodd" clip-rule="evenodd" d="M21.0147 4.04498C21.3076 3.75209 21.3076 3.27721 21.0147 2.98432C20.7218 2.69143 20.2469 2.69143 19.954 2.98432L18.9384 4H4.7C3.20883 4 2 5.20883 2 6.7V17.3C2 18.2862 2.52875 19.1489 3.31824 19.6201L2.98348 19.9549C2.69059 20.2478 2.69059 20.7226 2.98348 21.0155C3.27638 21.3084 3.75125 21.3084 4.04414 21.0155L5.05968 20H5.0619L6.5619 18.5H6.55968L8.05968 17H8.0619L12.0619 13H12.0597L19.5364 5.52328L19.5382 5.52365L20.6819 4.37997L20.6805 4.37915L21.0147 4.04498ZM17.4384 5.5H4.7C4.03726 5.5 3.5 6.03726 3.5 6.7V17.3C3.5 17.8812 3.91325 18.366 4.46197 18.4764L5.93836 17H5.5C5.22386 17 5 16.7761 5 16.5V13.5C5 13.2239 5.22386 13 5.5 13H9.93836L17.4384 5.5ZM20.4999 6.68333L21.7073 5.47597C21.8944 5.84339 22 6.25937 22 6.7V17.3C22 18.7912 20.7912 20 19.3 20H7.18322L8.68322 18.5H19.3C19.9627 18.5 20.5 17.9627 20.5 17.3V6.7L20.4999 6.68333ZM18.5 17H10.1832L14.1832 13H18.5C18.7761 13 19 13.2239 19 13.5V16.5C19 16.7761 18.7761 17 18.5 17Z" fill="white"/>
</svg>
