<svg width="24" height="24" viewBox="0 0 24 24" fill="none" xmlns="http://www.w3.org/2000/svg">
<path fill-rule="evenodd" clip-rule="evenodd" d="M18.0804 4H5.91957C5.38542 3.99999 4.93956 3.99998 4.57533 4.02974C4.19545 4.06078 3.83879 4.12789 3.50153 4.29973C2.98408 4.56338 2.56338 4.98408 2.29973 5.50153C2.12789 5.83879 2.06078 6.19545 2.02974 6.57533C1.99998 6.93956 1.99999 7.38541 2 7.91956V16.0804C1.99999 16.6146 1.99998 17.0604 2.02974 17.4247C2.06078 17.8046 2.12789 18.1612 2.29973 18.4985C2.56338 19.0159 2.98408 19.4366 3.50153 19.7003C3.83879 19.8721 4.19545 19.9392 4.57533 19.9703C4.93952 20 5.3853 20 5.91936 20H18.0805C18.6145 20 19.0605 20 19.4247 19.9703C19.8046 19.9392 20.1612 19.8721 20.4985 19.7003C21.0159 19.4366 21.4366 19.0159 21.7003 18.4985C21.8721 18.1612 21.9392 17.8046 21.9703 17.4247C22 17.0604 22 16.6146 22 16.0805V7.91955C22 7.3854 22 6.93956 21.9703 6.57533C21.9392 6.19545 21.8721 5.83879 21.7003 5.50153C21.4366 4.98408 21.0159 4.56338 20.4985 4.29973C20.1612 4.12789 19.8046 4.06078 19.4247 4.02974C19.0604 3.99998 18.6146 3.99999 18.0804 4ZM7 5.5C7.82843 5.5 8.5 6.17157 8.5 7V17C8.5 17.8284 7.82843 18.5 7 18.5H5C4.17157 18.5 3.5 17.8284 3.5 17V7C3.5 6.17157 4.17157 5.5 5 5.5H7Z" fill="white"/>
</svg>
