<svg width="24" height="24" viewBox="0 0 24 24" fill="none" xmlns="http://www.w3.org/2000/svg">
<path fill-rule="evenodd" clip-rule="evenodd" d="M21.0147 4.04498C21.3076 3.75209 21.3076 3.27721 21.0147 2.98432C20.7218 2.69143 20.2469 2.69143 19.954 2.98432L18.9323 4.00603C18.678 3.99999 18.3945 3.99999 18.0805 4H5.91957C5.38542 3.99999 4.93956 3.99998 4.57533 4.02974C4.19544 4.06078 3.83879 4.12789 3.50153 4.29973C2.98408 4.56339 2.56338 4.98408 2.29973 5.50153C2.12789 5.83879 2.06078 6.19545 2.02974 6.57533C1.99998 6.93956 1.99999 7.3854 2 7.91955V16.0805C1.99999 16.6146 1.99998 17.0604 2.02974 17.4247C2.06078 17.8046 2.12789 18.1612 2.29973 18.4985C2.53398 18.9582 2.89219 19.3416 3.33209 19.6063L2.98348 19.9549C2.69059 20.2478 2.69059 20.7226 2.98348 21.0155C3.27638 21.3084 3.75125 21.3084 4.04414 21.0155L5.06576 19.9939C5.06648 19.9939 5.0672 19.994 5.06792 19.994L6.5619 18.5H6.55968L15 10.0597V10.0619L18.0619 7H18.0597L19.5111 5.54855C19.5118 5.54865 19.5124 5.54875 19.5131 5.54885L20.6681 4.39382C20.6676 4.39355 20.6672 4.39327 20.6667 4.39299L21.0147 4.04498ZM17.4384 5.5H5.95C5.37757 5.5 4.99336 5.50058 4.69748 5.52476C4.41036 5.54822 4.27307 5.5901 4.18251 5.63624C3.94731 5.75608 3.75609 5.94731 3.63624 6.18251C3.5901 6.27307 3.54822 6.41036 3.52476 6.69748C3.50058 6.99336 3.5 7.37757 3.5 7.95V16.05C3.5 16.6224 3.50058 17.0066 3.52476 17.3025C3.54822 17.5896 3.5901 17.7269 3.63624 17.8175C3.75609 18.0527 3.94731 18.2439 4.18251 18.3638C4.24742 18.3968 4.33632 18.4277 4.48717 18.4512L15 7.93836V7.8C15 7.51998 15 7.37996 15.0545 7.27301C15.1024 7.17893 15.1789 7.10244 15.273 7.0545C15.38 7 15.52 7 15.8 7H15.9384L17.4384 5.5ZM20.476 6.7072L21.694 5.48925L21.7003 5.50153C21.8721 5.83879 21.9392 6.19545 21.9703 6.57533C22 6.93954 22 7.38536 22 7.91947V16.0804C22 16.6145 22 17.0605 21.9703 17.4247C21.9392 17.8046 21.8721 18.1612 21.7003 18.4985C21.4366 19.0159 21.0159 19.4366 20.4985 19.7003C20.1612 19.8721 19.8046 19.9392 19.4247 19.9703C19.0604 20 18.6146 20 18.0805 20H7.18322L8.68322 18.5H18.05C18.6224 18.5 19.0066 18.4994 19.3025 18.4752C19.5896 18.4518 19.7269 18.4099 19.8175 18.3638C20.0527 18.2439 20.2439 18.0527 20.3638 17.8175C20.4099 17.7269 20.4518 17.5896 20.4752 17.3025C20.4994 17.0066 20.5 16.6224 20.5 16.05V7.95C20.5 7.38382 20.4994 7.00176 20.476 6.7072ZM15 16.2V12.1832L19 8.18322V16.2C19 16.48 19 16.62 18.9455 16.727C18.8976 16.8211 18.8211 16.8976 18.727 16.9455C18.62 17 18.48 17 18.2 17H15.8C15.52 17 15.38 17 15.273 16.9455C15.1789 16.8976 15.1024 16.8211 15.0545 16.727C15 16.62 15 16.48 15 16.2Z" fill="white"/>
</svg>
