<svg width="24" height="24" viewBox="0 0 24 24" fill="none" xmlns="http://www.w3.org/2000/svg">
<path d="M18 17.85C18 18.6901 18 19.1101 17.8365 19.431C17.6927 19.7132 17.4632 19.9427 17.181 20.0865C16.8601 20.25 16.4401 20.25 15.6 20.25H15.4C14.5599 20.25 14.1399 20.25 13.819 20.0865C13.5368 19.9427 13.3073 19.7132 13.1635 19.431C13 19.1101 13 18.6901 13 17.85V6.15C13 5.30992 13 4.88988 13.1635 4.56901C13.3073 4.28677 13.5368 4.0573 13.819 3.91349C14.1399 3.75 14.5599 3.75 15.4 3.75H15.6C16.4401 3.75 16.8601 3.75 17.181 3.91349C17.4632 4.0573 17.6927 4.28677 17.8365 4.56901C18 4.88988 18 5.30992 18 6.15V17.85Z" fill="white"/>
<path d="M6 6.15C6 5.30992 6 4.88988 6.16349 4.56901C6.3073 4.28677 6.53677 4.0573 6.81901 3.91349C7.13988 3.75 7.55992 3.75 8.4 3.75H8.6C9.44008 3.75 9.86012 3.75 10.181 3.91349C10.4632 4.0573 10.6927 4.28677 10.8365 4.56901C11 4.88988 11 5.30992 11 6.15V17.85C11 18.6901 11 19.1101 10.8365 19.431C10.6927 19.7132 10.4632 19.9427 10.181 20.0865C9.86012 20.25 9.44008 20.25 8.6 20.25H8.4C7.55992 20.25 7.13988 20.25 6.81901 20.0865C6.53677 19.9427 6.3073 19.7132 6.16349 19.431C6 19.1101 6 18.6901 6 17.85V6.15Z" fill="white"/>
</svg>
