<svg width="24" height="24" viewBox="0 0 24 24" fill="none" xmlns="http://www.w3.org/2000/svg">
<path fill-rule="evenodd" clip-rule="evenodd" d="M7 4.5C5.61929 4.5 4.5 5.61929 4.5 7C4.5 8.38071 5.61929 9.5 7 9.5C8.38071 9.5 9.5 8.38071 9.5 7C9.5 5.61929 8.38071 4.5 7 4.5ZM3 7C3 4.79086 4.79086 3 7 3C9.20914 3 11 4.79086 11 7C11 9.20914 9.20914 11 7 11C4.79086 11 3 9.20914 3 7ZM19.5303 4.46967C19.8232 4.76256 19.8232 5.23744 19.5303 5.53033L5.53033 19.5303C5.23744 19.8232 4.76256 19.8232 4.46967 19.5303C4.17678 19.2374 4.17678 18.7626 4.46967 18.4697L18.4697 4.46967C18.7626 4.17678 19.2374 4.17678 19.5303 4.46967ZM14.5 17C14.5 15.6193 15.6193 14.5 17 14.5C18.3807 14.5 19.5 15.6193 19.5 17C19.5 18.3807 18.3807 19.5 17 19.5C15.6193 19.5 14.5 18.3807 14.5 17ZM17 13C14.7909 13 13 14.7909 13 17C13 19.2091 14.7909 21 17 21C19.2091 21 21 19.2091 21 17C21 14.7909 19.2091 13 17 13Z" fill="white"/>
</svg>
