<svg width="24" height="24" viewBox="0 0 24 24" fill="none" xmlns="http://www.w3.org/2000/svg">
<path fill-rule="evenodd" clip-rule="evenodd" d="M19.9548 8.11228C19.9994 8.65829 20 9.35753 20 10.35V17.4157C20 17.83 20.3358 18.1657 20.75 18.1657C21.1642 18.1657 21.5 17.83 21.5 17.4157V7.12108C21.5 6.72572 21.5 6.38466 21.4771 6.10373C21.4528 5.80722 21.3994 5.51231 21.2548 5.22852C21.0391 4.80516 20.6948 4.46095 20.2715 4.24524C19.9877 4.10064 19.6928 4.04716 19.3963 4.02293C19.1154 3.99998 18.7743 3.99999 18.379 4H8.25C7.83579 4 7.5 4.33579 7.5 4.75C7.5 5.16422 7.83579 5.5 8.25 5.5H15.15C16.1425 5.5 16.8417 5.50059 17.3877 5.5452C17.925 5.58909 18.2475 5.67185 18.4985 5.79973C19.0159 6.06339 19.4366 6.48408 19.7003 7.00153C19.8282 7.25252 19.9109 7.57503 19.9548 8.11228ZM6.27487 7.0298H14.7251C15.2638 7.02979 15.7044 7.02978 16.0625 7.05943C16.4331 7.09011 16.7678 7.15555 17.0804 7.31694C17.5696 7.56951 17.9673 7.97254 18.2166 8.46824C18.3759 8.78498 18.4405 9.12414 18.4708 9.49966C18.5 9.86246 18.5 10.3089 18.5 10.8547V16.1538C18.5 16.4577 18.5 16.7283 18.4956 16.9668C18.4839 17.5905 18.4448 18.1073 18.2166 18.5611C17.9673 19.0568 17.5696 19.4598 17.0804 19.7124C16.7678 19.8738 16.4331 19.9392 16.0625 19.9699C15.7044 19.9995 15.2638 19.9995 14.7252 19.9995H6.27471C5.73608 19.9995 5.29556 19.9995 4.93755 19.9699C4.56694 19.9392 4.23222 19.8738 3.91963 19.7124C3.56417 19.5289 3.25701 19.2659 3.02 18.9457C2.9308 18.8252 2.85154 18.6966 2.78338 18.5611C2.62411 18.2443 2.55952 17.9052 2.52924 17.5297C2.49999 17.1669 2.49999 16.7204 2.5 16.1746V10.8547C2.49999 10.3089 2.49999 9.86245 2.52924 9.49966C2.55952 9.12414 2.62411 8.78498 2.78338 8.46824C3.03265 7.97254 3.4304 7.56951 3.91963 7.31694C4.23222 7.15555 4.56694 7.09011 4.93755 7.05943C5.2956 7.02978 5.73616 7.02979 6.27487 7.0298ZM17.2882 17.1996L14.4071 14.2803C14.0166 13.8846 13.3834 13.8846 12.9929 14.2803L8.54853 18.7836H14.7C15.27 18.7836 15.6613 18.7831 15.9647 18.758C16.2611 18.7335 16.4204 18.6885 16.5356 18.629C16.799 18.493 17.0132 18.276 17.1474 18.0091C17.2238 17.8571 17.2692 17.6476 17.2882 17.1996ZM6.85147 18.7836L8.65147 16.9597L8.00711 16.3068C7.61658 15.9111 6.98342 15.9111 6.59289 16.3068L4.36005 18.5693C4.39388 18.5906 4.4287 18.6105 4.46441 18.629C4.57965 18.6885 4.73886 18.7335 5.03526 18.758C5.33867 18.7831 5.73005 18.7836 6.3 18.7836H6.85147ZM8.1 11.4881C8.1 12.1597 7.56274 12.704 6.9 12.704C6.23726 12.704 5.7 12.1597 5.7 11.4881C5.7 10.8166 6.23726 10.2722 6.9 10.2722C7.56274 10.2722 8.1 10.8166 8.1 11.4881Z" fill="white"/>
</svg>
