<svg width="24" height="24" viewBox="0 0 24 24" fill="none" xmlns="http://www.w3.org/2000/svg">
<path d="M18 2C20.2091 2 22 3.79086 22 6V18C22 18.1687 21.9881 18.3348 21.9678 18.498C21.9555 18.5972 21.9403 18.6952 21.9209 18.792C21.9155 18.8188 21.9092 18.8454 21.9033 18.8721C21.8947 18.9107 21.8857 18.9491 21.876 18.9873C21.8697 19.0121 21.8632 19.0369 21.8564 19.0615C21.8464 19.0982 21.8363 19.1347 21.8252 19.1709C21.8162 19.2002 21.8055 19.2288 21.7959 19.2578C21.7847 19.2915 21.7737 19.3251 21.7617 19.3584C21.757 19.3714 21.7529 19.3845 21.748 19.3975C21.731 19.4431 21.713 19.4883 21.6943 19.5332C21.6822 19.5625 21.6691 19.5912 21.6562 19.6201C21.6431 19.6499 21.6301 19.6796 21.6162 19.709C21.6041 19.7345 21.5917 19.7599 21.5791 19.7852C21.5624 19.8187 21.545 19.8518 21.5273 19.8848C21.5165 19.9051 21.5054 19.9252 21.4941 19.9453C21.4745 19.9805 21.4543 20.0153 21.4336 20.0498C21.4184 20.0753 21.4035 20.1009 21.3877 20.126C21.3724 20.1503 21.3566 20.1743 21.3408 20.1982C21.3256 20.2213 21.3096 20.2439 21.2939 20.2666C21.269 20.3028 21.2439 20.3387 21.2178 20.374C21.207 20.3886 21.1965 20.4035 21.1855 20.418C21.1592 20.4527 21.132 20.4867 21.1045 20.5205C21.0879 20.541 21.0707 20.5609 21.0537 20.5811C21.0337 20.6047 21.0137 20.6282 20.9932 20.6514C20.9724 20.6748 20.951 20.6977 20.9297 20.7207C20.8595 20.7963 20.7868 20.8695 20.7109 20.9395C20.6952 20.954 20.6791 20.9681 20.6631 20.9824C20.6367 21.006 20.61 21.0289 20.583 21.0518C20.5594 21.0718 20.5358 21.0918 20.5117 21.1113C20.4879 21.1306 20.4637 21.1493 20.4395 21.168C20.4148 21.187 20.3903 21.2062 20.3652 21.2246C20.335 21.2469 20.3044 21.2686 20.2734 21.29C20.257 21.3014 20.2402 21.3121 20.2236 21.3232C20.1903 21.3456 20.1571 21.3683 20.123 21.3896C20.1005 21.4038 20.0775 21.417 20.0547 21.4307C20.0258 21.448 19.9971 21.4658 19.9678 21.4824C19.9388 21.4989 19.9093 21.5146 19.8799 21.5303C19.846 21.5484 19.8118 21.5659 19.7773 21.583C19.7595 21.5919 19.7416 21.6008 19.7236 21.6094C19.6766 21.6319 19.629 21.6531 19.5811 21.6738C19.5697 21.6787 19.5583 21.6837 19.5469 21.6885C19.4998 21.7083 19.4523 21.7271 19.4043 21.7451C19.3917 21.7499 19.3789 21.7542 19.3662 21.7588C19.3309 21.7716 19.2955 21.784 19.2598 21.7959C19.2299 21.8058 19.2001 21.816 19.1699 21.8252C19.0021 21.8765 18.8297 21.9163 18.6533 21.9453C18.6367 21.948 18.6202 21.9516 18.6035 21.9541C18.4729 21.9739 18.3404 21.9883 18.2061 21.9951L18 22H6C5.83766 22 5.67779 21.9885 5.52051 21.9697C5.47868 21.9647 5.43693 21.9604 5.39551 21.9541C5.38603 21.9527 5.37664 21.9507 5.36719 21.9492C5.30984 21.9401 5.2528 21.9305 5.19629 21.9189C5.19235 21.9181 5.18851 21.9168 5.18457 21.916C5.12552 21.9038 5.06686 21.8908 5.00879 21.876C4.99339 21.8721 4.97821 21.8674 4.96289 21.8633C4.92159 21.8522 4.88061 21.8405 4.83984 21.8281C4.81695 21.8212 4.7942 21.814 4.77148 21.8066C4.66362 21.7719 4.55775 21.7329 4.4541 21.6895C4.44361 21.6851 4.4333 21.6803 4.42285 21.6758C4.38087 21.6577 4.33907 21.6395 4.29785 21.6201C4.27887 21.6112 4.26003 21.602 4.24121 21.5928C4.20182 21.5735 4.16268 21.5538 4.12402 21.5332C4.10537 21.5233 4.08684 21.5131 4.06836 21.5029C4.02976 21.4816 3.99191 21.4591 3.9541 21.4365C3.9412 21.4288 3.92785 21.4219 3.91504 21.4141C3.82003 21.3559 3.72823 21.2932 3.63867 21.2275C3.62307 21.2161 3.60723 21.205 3.5918 21.1934C3.29473 20.969 3.02996 20.7044 2.80566 20.4072C2.79401 20.3918 2.78291 20.376 2.77148 20.3604C2.70588 20.2708 2.64307 20.179 2.58496 20.084C2.57713 20.0712 2.57019 20.0578 2.5625 20.0449C2.53958 20.0065 2.51677 19.968 2.49512 19.9287C2.48141 19.9039 2.46827 19.8787 2.45508 19.8535C2.43847 19.8218 2.42203 19.79 2.40625 19.7578C2.3944 19.7336 2.38344 19.709 2.37207 19.6846C2.30333 19.5368 2.24293 19.3844 2.19238 19.2275C2.18456 19.2033 2.17729 19.1788 2.16992 19.1543C2.10428 18.9362 2.05696 18.7105 2.0293 18.4785C2.01058 18.3216 2 18.162 2 18V6C2 3.79086 3.79086 2 6 2H18ZM16.6191 13.1416C16.1346 12.6195 15.3732 12.6195 14.8887 13.1416L11.0518 17.2764L11.0469 17.2812L8.00488 20.5H18C19.3807 20.5 20.5 19.3807 20.5 18V17.3193C20.4828 17.304 20.4662 17.2877 20.4502 17.2705L16.6191 13.1416ZM8.61621 15.8369C8.13168 15.3148 7.37125 15.3148 6.88672 15.8369L3.79199 19.1709C4.20367 19.9456 5.00989 20.4763 5.94336 20.4971C5.94721 20.4928 5.95111 20.4886 5.95508 20.4844L9.47363 16.7607L8.61621 15.8369ZM7.75 6C6.7835 6 6 6.7835 6 7.75C6 8.7165 6.7835 9.5 7.75 9.5C8.7165 9.5 9.5 8.7165 9.5 7.75C9.5 6.7835 8.7165 6 7.75 6Z" fill="white"/>
</svg>
