<svg width="24" height="24" viewBox="0 0 24 24" fill="none" xmlns="http://www.w3.org/2000/svg">
<path fill-rule="evenodd" clip-rule="evenodd" d="M16.1023 5.4502C16.9548 5.4502 17.549 5.45078 18.0117 5.48858C18.4655 5.52566 18.7263 5.59479 18.9238 5.69543C19.3472 5.91115 19.6914 6.25535 19.9071 6.67872C20.0077 6.87623 20.0769 7.137 20.114 7.59088C20.1518 8.05351 20.1523 8.64774 20.1523 9.5002V16.7002C20.1523 17.1144 20.4881 17.4502 20.9023 17.4502C21.3166 17.4502 21.6523 17.1144 21.6523 16.7002V9.46807C21.6524 8.65524 21.6524 7.99963 21.609 7.46873C21.5643 6.92209 21.47 6.44195 21.2436 5.99773C20.8841 5.29212 20.3104 4.71845 19.6048 4.35892C19.1606 4.13258 18.6804 4.03822 18.1338 3.99356C17.6029 3.95018 16.9473 3.95019 16.1345 3.9502H8.90234C8.48813 3.9502 8.15234 4.28598 8.15234 4.7002C8.15234 5.11441 8.48813 5.4502 8.90234 5.4502H16.1023ZM6.27113 6.9502H14.732C15.2662 6.95019 15.712 6.95018 16.0762 6.97994C16.4561 7.01097 16.8128 7.07808 17.15 7.24993C17.6675 7.51358 18.0882 7.93428 18.3518 8.45172C18.5237 8.78898 18.5908 9.14564 18.6218 9.52553C18.6516 9.88974 18.6516 10.3356 18.6516 10.8697V16.1057C18.6516 16.4049 18.6516 16.6731 18.6471 16.91C18.6355 17.5248 18.5973 18.0669 18.3518 18.5487C18.0882 19.0661 17.6675 19.4868 17.15 19.7505C16.8128 19.9223 16.4561 19.9894 16.0762 20.0205C15.712 20.0502 15.2662 20.0502 14.732 20.0502H6.27116C5.73701 20.0502 5.29112 20.0502 4.92689 20.0205C4.54701 19.9894 4.19035 19.9223 3.85309 19.7505C3.47712 19.5589 3.15224 19.2844 2.90157 18.9502C2.80722 18.8244 2.72338 18.6901 2.6513 18.5487C2.47945 18.2114 2.41234 17.8548 2.3813 17.4749C2.35154 17.1106 2.35155 16.6648 2.35156 16.1307V10.8698C2.35155 10.3356 2.35154 9.88975 2.3813 9.52553C2.41234 9.14564 2.47945 8.78898 2.6513 8.45172C2.91495 7.93428 3.33564 7.51358 3.85309 7.24993C4.19035 7.07808 4.54701 7.01097 4.92689 6.97994C5.29113 6.95018 5.73698 6.95019 6.27113 6.9502ZM5.04904 8.47495C4.76192 8.49841 4.62464 8.54029 4.53408 8.58644C4.29887 8.70628 4.10765 8.89751 3.98781 9.13271C3.94166 9.22327 3.89978 9.36055 3.87632 9.64767C3.85215 9.94355 3.85156 10.3278 3.85156 10.9002V16.1002C3.85156 16.5117 3.85187 16.826 3.86102 17.0801L5.63986 15.3012C6.5576 14.3835 8.04553 14.3835 8.96327 15.3012L9.50156 15.8395L12.0399 13.3012C12.9576 12.3835 14.4455 12.3835 15.3633 13.3012L17.1516 15.0895V10.9002C17.1516 10.3278 17.151 9.94355 17.1268 9.64767C17.1033 9.36055 17.0615 9.22327 17.0153 9.13271C16.8955 8.89751 16.7043 8.70628 16.4691 8.58644C16.3785 8.54029 16.2412 8.49841 15.9541 8.47495C15.6582 8.45078 15.274 8.4502 14.7016 8.4502H6.30156C5.72914 8.4502 5.34492 8.45078 5.04904 8.47495ZM17.1368 17.1961L14.3026 14.3619C13.9707 14.03 13.4325 14.03 13.1005 14.3619L8.91222 18.5502H14.7016C15.274 18.5502 15.6582 18.5496 15.9541 18.5254C16.2412 18.502 16.3785 18.4601 16.4691 18.414C16.7043 18.2941 16.8955 18.1029 17.0153 17.8677C17.0739 17.7527 17.1165 17.5852 17.1368 17.1961ZM6.7909 18.5502L8.4409 16.9002L7.90261 16.3619C7.57066 16.03 7.03247 16.03 6.70052 16.3619L4.61422 18.4482C4.70443 18.4803 4.83517 18.508 5.04904 18.5254C5.34492 18.5496 5.72914 18.5502 6.30156 18.5502H6.7909ZM8.10117 11.5003C8.10117 12.163 7.56391 12.7003 6.90117 12.7003C6.23843 12.7003 5.70117 12.163 5.70117 11.5003C5.70117 10.8376 6.23843 10.3003 6.90117 10.3003C7.56391 10.3003 8.10117 10.8376 8.10117 11.5003Z" fill="white"/>
</svg>
