<svg width="24" height="24" viewBox="0 0 24 24" fill="none" xmlns="http://www.w3.org/2000/svg">
<path fill-rule="evenodd" clip-rule="evenodd" d="M5.25 3.25C5.59155 3.25 5.92177 3.30353 6.23047 3.40332C6.62447 3.53073 6.84108 3.95364 6.71387 4.34766C6.58646 4.74166 6.16355 4.95826 5.76953 4.83105C5.60916 4.7792 5.43427 4.75 5.25 4.75C4.35743 4.75 3.75003 5.39729 3.75 6.05859C3.75 6.47383 3.85645 6.81605 3.99121 7.07227C5.67436 5.26796 8.25581 4.13867 11.0752 4.13867C15.1967 4.13875 18.774 6.52699 19.8359 9.92188C19.8803 10.0637 19.9376 10.1131 19.9785 10.1387C20.0329 10.1726 20.1381 10.21 20.3252 10.21C21.3119 10.2101 21.9997 11.0637 22 11.9717V13.4434C22 14.0864 21.6488 14.6221 21.2803 15.0205C20.901 15.4306 20.4071 15.7995 19.9219 16.1182C19.432 16.4398 18.9139 16.7337 18.4727 16.9824C18.0121 17.2421 17.6667 17.4355 17.457 17.583C17.4096 17.6164 17.3751 17.6775 17.375 17.748V20C17.3749 20.4141 17.0391 20.75 16.625 20.75H14.7754C14.5282 20.75 14.2961 20.6276 14.1562 20.4238L13.5332 19.5137C11.926 19.9034 10.2254 19.9031 8.61816 19.5137L7.99316 20.4238C7.85328 20.6276 7.62216 20.75 7.375 20.75H5.52539C5.11125 20.75 4.77551 20.4141 4.77539 20V17.7256C4.77531 17.6661 4.74598 17.5892 4.67285 17.5264C3.04056 16.1247 2 14.1645 2 11.9717C2.00011 10.643 2.37681 9.40816 3.03418 8.3291C2.60122 7.81082 2.25001 7.0224 2.25 6.05859C2.25003 4.44611 3.65733 3.25 5.25 3.25ZM16.1533 9.55566C15.6012 9.55586 15.1533 10.0035 15.1533 10.5557C15.1534 11.1078 15.6012 11.5555 16.1533 11.5557H16.1621C16.7144 11.5557 17.162 11.1079 17.1621 10.5557C17.1621 10.0034 16.7144 9.55566 16.1621 9.55566H16.1533ZM11.5381 6.5C10.7618 6.5 10.0209 6.70051 9.33887 7.05859C8.97236 7.25124 8.83094 7.70466 9.02344 8.07129C9.21603 8.43766 9.66957 8.57894 10.0361 8.38672C10.5231 8.13107 11.0263 8 11.5381 8C12.0497 8.00011 12.5522 8.13111 13.0391 8.38672C13.4056 8.57891 13.8592 8.43766 14.0518 8.07129C14.2442 7.70469 14.1028 7.25123 13.7363 7.05859C13.0544 6.70055 12.3142 6.50011 11.5381 6.5Z" fill="white"/>
</svg>
