<svg width="24" height="24" viewBox="0 0 24 24" fill="none" xmlns="http://www.w3.org/2000/svg">
<path d="M18.1095 12.1895C18.9577 13.3413 18.1643 14.9998 16.7648 15H13.2296V20.5L12.2296 22L11.2296 20.5V15.5654L16.6232 10.1709L18.1095 12.1895Z" fill="white"/>
<path d="M15.2501 2C15.9933 2.00022 16.5598 2.68798 16.4425 3.44727L15.9562 6.5957L19.9406 2.61133C20.2335 2.31886 20.7083 2.31867 21.0011 2.61133C21.294 2.90422 21.294 3.37996 21.0011 3.67285L4.03041 20.6426C3.73752 20.9355 3.26276 20.9355 2.96986 20.6426C2.67707 20.3497 2.677 19.8749 2.96986 19.582L7.55775 14.9951C6.24434 14.8913 5.5287 13.3033 6.34877 12.1895L8.40443 9.39746C8.68493 9.01653 8.80275 8.53343 8.72963 8.06055L8.01576 3.44727C7.89851 2.6879 8.46586 2 9.20912 2H15.2501Z" fill="white"/>
</svg>
