<svg width="24" height="24" viewBox="0 0 24 24" fill="none" xmlns="http://www.w3.org/2000/svg">
<path d="M18.6183 12.1895C19.4958 13.3413 18.6746 14.9996 17.2267 15H12.9953V20.5L11.9953 22L10.9953 20.5V16.1816L13.6769 13.5H17.2267C17.4333 13.4996 17.5502 13.2631 17.425 13.0986L15.9777 11.1992L17.048 10.1289L18.6183 12.1895Z" fill="white"/>
<path fill-rule="evenodd" clip-rule="evenodd" d="M15.6593 2C16.4282 2.00021 17.015 2.68801 16.8937 3.44727L16.3996 6.53516L19.9503 2.98438C20.2432 2.69163 20.718 2.69158 21.0109 2.98438C21.3037 3.27723 21.3037 3.75202 21.0109 4.04492L4.04019 21.0156C3.7473 21.3085 3.27254 21.3085 2.97965 21.0156C2.68681 20.7227 2.68678 20.248 2.97965 19.9551L7.93473 15H6.7648C5.31666 15 4.4947 13.3414 5.37223 12.1895L7.49918 9.39746C7.78941 9.01653 7.91078 8.53344 7.83512 8.06055L7.09781 3.44727C6.9764 2.68784 7.5631 2 8.33219 2H15.6593ZM9.31656 7.82324C9.45708 8.70146 9.23154 9.59919 8.69254 10.3066L6.56558 13.0986C6.44031 13.2632 6.55795 13.5 6.7648 13.5H9.43473L14.633 8.30176C14.6347 8.14272 14.6485 7.98227 14.674 7.82324L15.3654 3.5H8.62515L9.31656 7.82324Z" fill="white"/>
</svg>
