<svg width="24" height="24" viewBox="0 0 24 24" fill="none" xmlns="http://www.w3.org/2000/svg">
<path fill-rule="evenodd" clip-rule="evenodd" d="M21.03 2.61176C21.3233 2.90465 21.3233 3.37953 21.03 3.67242L4.03237 20.643C3.73901 20.9359 3.26338 20.9359 2.97002 20.643C2.67666 20.3501 2.67666 19.8752 2.97002 19.5823L19.9676 2.61176C20.261 2.31887 20.7366 2.31887 21.03 2.61176Z" fill="white"/>
<path fill-rule="evenodd" clip-rule="evenodd" d="M8.02464 3.44751C7.90701 2.68803 8.47493 2.00002 9.21947 2.00002L15.2698 2C16.0144 2 16.5823 2.68801 16.4647 3.44749L15.7502 8.0606C15.7072 8.33824 15.7299 8.61945 15.8129 8.88142L9.68459 15L7.70231 15C6.30044 15 5.50523 13.3414 6.35483 12.1894L8.41386 9.39768C8.69482 9.01674 8.81237 8.53351 8.73913 8.06062L8.02464 3.44751ZM11.2432 15.5652V20.5L12.2448 22L13.2464 20.5V15L16.787 15C18.1889 15 18.9841 13.3414 18.1345 12.1894L16.6459 10.1711L11.2432 15.5652Z" fill="white"/>
</svg>
