<svg width="24" height="24" viewBox="0 0 24 24" fill="none" xmlns="http://www.w3.org/2000/svg">
<path fill-rule="evenodd" clip-rule="evenodd" d="M12.2572 4.50818C12.7073 3.90842 13.5872 3.82567 14.1084 4.33408L17.8207 7.95561C18.3419 8.46402 18.2571 9.32238 17.6423 9.76149L13.9079 12.4287C13.5251 12.7021 13.2686 13.1129 13.1982 13.5653L12.6822 16.8807C12.4693 18.2487 10.7498 18.8401 9.76848 17.8828L7.60878 15.776L3.75274 19.5376L2 19.8796L2.35055 18.1698L6.20659 14.4081L3.93215 12.1893C2.95086 11.232 3.55709 9.55461 4.95942 9.3469L8.358 8.84352C8.82173 8.77483 9.24282 8.5246 9.52309 8.15116L12.2572 4.50818ZM19.5213 6.94232C19.1106 6.94232 18.7776 7.2671 18.7776 7.66775C18.7776 8.06839 19.1106 8.39317 19.5213 8.39317H21.2564C21.6671 8.39317 22 8.06839 22 7.66775C22 7.2671 21.6671 6.94232 21.2564 6.94232H19.5213ZM15.3074 18.5491C14.8967 18.5491 14.5638 18.8739 14.5638 19.2746C14.5638 19.6752 14.8967 20 15.3074 20H21.0085C21.4192 20 21.7521 19.6752 21.7521 19.2746C21.7521 18.8739 21.4192 18.5491 21.0085 18.5491H15.3074ZM16.7946 13.4712C16.7946 13.0705 17.1276 12.7457 17.5383 12.7457H21.2564C21.6671 12.7457 22 13.0705 22 13.4712C22 13.8718 21.6671 14.1966 21.2564 14.1966H17.5383C17.1276 14.1966 16.7946 13.8718 16.7946 13.4712Z" fill="white"/>
</svg>
