<svg width="24" height="24" viewBox="0 0 24 24" fill="none" xmlns="http://www.w3.org/2000/svg">
<path d="M8.51174 4.02735C8.28387 2.98562 9.07719 2 10.1436 2C11.1019 2 11.9819 2.529 12.4315 3.37531L14.906 8.03315L19.9547 2.98444C20.2476 2.69155 20.7225 2.69155 21.0154 2.98444C21.3083 3.27733 21.3083 3.75221 21.0154 4.0451L4.04481 21.0157C3.75192 21.3086 3.27704 21.3086 2.98415 21.0157C2.69126 20.7228 2.69126 20.2479 2.98415 19.955L8.57296 14.3662L7.23511 14.3256L6.61622 14.9445C6.10049 15.4603 5.40102 15.75 4.67167 15.75H3.40461C2.66123 15.75 2.17773 14.9677 2.51018 14.3028L3.66158 12L2.51018 9.69721C2.17773 9.03231 2.66123 8.25 3.40461 8.25H4.67167C5.40102 8.25 6.10049 8.53973 6.61622 9.05546L7.23512 9.67435L9.73048 9.59874L8.51174 4.02735Z" fill="white" fill-opacity="0.96"/>
<path d="M8.87645 18.3054L17.8285 9.35334L19.2283 9.31092C20.7454 9.26495 22.0001 10.4823 22.0001 12C22.0001 13.5177 20.7454 14.735 19.2283 14.6891L15.6425 14.5804L12.4315 20.6247C11.9819 21.471 11.1019 22 10.1436 22C9.07719 22 8.28387 21.0144 8.51174 19.9726L8.87645 18.3054Z" fill="white" fill-opacity="0.96"/>
</svg>
