<svg width="24" height="24" viewBox="0 0 24 24" fill="none" xmlns="http://www.w3.org/2000/svg">
<path d="M18.9874 9.99895C20.0814 9.96585 20.9862 10.844 20.9865 11.9384C20.9865 13.033 20.0815 13.911 18.9874 13.8779L14.9357 13.7558L11.506 20.2118C11.1866 20.8131 10.5609 21.1884 9.88001 21.1884C9.2926 21.1884 8.85537 20.646 8.9806 20.0722L9.7931 16.3603L16.0646 10.0878L18.9874 9.99895Z" fill="white"/>
<path d="M19.4406 2.46965C19.7335 2.17679 20.2082 2.17677 20.5011 2.46965C20.7939 2.76255 20.7939 3.23734 20.5011 3.5302L3.53041 20.5009C3.23753 20.7937 2.76272 20.7937 2.46986 20.5009C2.177 20.208 2.17708 19.7333 2.46986 19.4404L8.35365 13.5556L6.67005 13.5048L5.8224 14.3534C5.44741 14.7284 4.9386 14.9383 4.40834 14.9384H3.14076C2.95507 14.9383 2.83417 14.7432 2.91712 14.5771L4.23646 11.9384L2.91712 9.30071C2.83407 9.13455 2.95504 8.93855 3.14076 8.93841H4.40834C4.93863 8.93849 5.4474 9.14938 5.8224 9.52434L6.67005 10.373L10.3927 10.2597L8.9806 3.80559C8.85529 3.23172 9.29256 2.6884 9.88001 2.6884C10.5609 2.68845 11.1866 3.06467 11.506 3.66594L13.8429 8.06633L19.4406 2.46965Z" fill="white"/>
</svg>
