<svg width="24" height="24" viewBox="0 0 24 24" fill="none" xmlns="http://www.w3.org/2000/svg">
<path fill-rule="evenodd" clip-rule="evenodd" d="M8.51162 4.02735C8.28374 2.98562 9.07707 2 10.1434 2C11.1017 2 11.9818 2.529 12.4314 3.37531L15.6424 9.41958L19.2282 9.31092C20.7452 9.26495 22 10.4823 22 12C22 13.5177 20.7452 14.735 19.2282 14.6891L15.6424 14.5804L12.4314 20.6247C11.9818 21.471 11.1017 22 10.1434 22C9.07706 22 8.28374 21.0144 8.51162 19.9726L9.73036 14.4013L7.23499 14.3256L6.6161 14.9445C6.10037 15.4603 5.4009 15.75 4.67155 15.75H3.40449C2.66111 15.75 2.17761 14.9677 2.51006 14.3028L3.66145 12L2.51006 9.69721C2.17761 9.03231 2.66111 8.25 3.40449 8.25H4.67155C5.4009 8.25 6.10037 8.53973 6.6161 9.05546L7.23499 9.67435L9.73036 9.59874L8.51162 4.02735ZM10.1434 3.5C10.0347 3.5 9.95373 3.60054 9.97697 3.70681L11.3888 10.1608C11.4364 10.3787 11.3846 10.6065 11.2474 10.7824C11.1102 10.9583 10.9018 11.0639 10.6788 11.0707L6.95652 11.1835C6.74982 11.1897 6.5497 11.1104 6.40347 10.9642L5.55544 10.1161C5.32102 9.8817 5.00307 9.75 4.67155 9.75H4.21351L5.1708 11.6646C5.27637 11.8757 5.27637 12.1243 5.1708 12.3354L4.21351 14.25H4.67155C5.00307 14.25 5.32102 14.1183 5.55544 13.8839L6.40347 13.0358C6.5497 12.8896 6.74982 12.8103 6.95652 12.8165L10.6788 12.9293C10.9018 12.9361 11.1102 13.0417 11.2474 13.2176C11.3846 13.3935 11.4364 13.6213 11.3888 13.8392L9.97697 20.2932C9.95373 20.3995 10.0347 20.5 10.1434 20.5C10.5469 20.5 10.9174 20.2773 11.1067 19.921L14.5366 13.4648C14.6706 13.2126 14.9362 13.0583 15.2216 13.067L19.2736 13.1898C19.9448 13.2101 20.5 12.6715 20.5 12C20.5 11.3285 19.9448 10.7899 19.2736 10.8102L15.2216 10.933C14.9362 10.9417 14.6706 10.7874 14.5366 10.5352L11.1067 4.07904C10.9174 3.72272 10.5469 3.5 10.1434 3.5Z" fill="white" fill-opacity="0.96"/>
</svg>
