<svg width="24" height="24" viewBox="0 0 24 24" fill="none" xmlns="http://www.w3.org/2000/svg">
<path d="M20.0645 6.08789C21.2806 7.74403 22 9.78775 22 12C22 17.5228 17.5228 22 12 22C9.78775 22 7.74403 21.2806 6.08789 20.0645L7.16602 18.9863C7.59495 19.2836 8.05085 19.5443 8.53223 19.7598C8.26707 19.3674 8.02256 18.9313 7.80176 18.457C7.72117 18.499 7.64252 18.5444 7.56348 18.5889L10.0039 16.1484C10.4114 16.0775 10.8271 16.0303 11.25 16.0107V14.9033L12.75 13.4033V16.0518C13.6387 16.1429 14.4918 16.3535 15.2959 16.6621C15.6699 15.5267 15.9172 14.1982 15.9814 12.75H13.4033L14.9033 11.25H15.9814C15.9663 10.9087 15.9401 10.5741 15.9053 10.2471L17.2324 8.91992C17.3646 9.66236 17.4505 10.4428 17.4834 11.25H20.4648C20.3328 9.73982 19.8065 8.34314 18.9893 7.16309L20.0645 6.08789ZM12 2C14.2281 2 16.2858 2.72895 17.9482 3.96094L19.4404 2.46973C19.7333 2.17683 20.2081 2.17683 20.501 2.46973C20.7939 2.76262 20.7939 3.23738 20.501 3.53027L3.53027 20.501C3.23737 20.7937 2.76257 20.7938 2.46973 20.501C2.17688 20.2081 2.17697 19.7333 2.46973 19.4404L3.96094 17.9482C2.72895 16.2858 2 14.2281 2 12C2 6.47715 6.47715 2 12 2ZM11.25 17.5137C10.536 17.5527 9.84572 17.6799 9.18945 17.8848C9.26559 18.0453 9.3433 18.2004 9.4248 18.3486C10.0266 19.4428 10.6723 20.0449 11.25 20.3174V17.5137ZM12.75 20.3174C13.3277 20.0449 13.9734 19.4428 14.5752 18.3486C14.6281 18.2525 14.6788 18.1532 14.7295 18.0518C14.1018 17.8132 13.4389 17.6461 12.75 17.5625V20.3174ZM16.0781 18.7051C15.8894 19.0843 15.6851 19.4368 15.4668 19.7598C15.8885 19.5711 16.2919 19.3497 16.6738 19.0977C16.481 18.959 16.2825 18.8276 16.0781 18.7051ZM17.4834 12.75C17.4154 14.4167 17.1227 15.9691 16.6602 17.3086C17.0886 17.553 17.4969 17.828 17.8828 18.1309C19.3255 16.7462 20.2804 14.8596 20.4648 12.75H17.4834ZM3.53516 12.75C3.66858 14.2757 4.20491 15.6849 5.03711 16.8721L6.77832 15.1309C6.64095 14.3732 6.55028 13.5758 6.5166 12.75H3.53516ZM8.01855 12.75C8.03458 13.111 8.06177 13.4646 8.09961 13.8096L9.16016 12.75H8.01855ZM5.9873 5.99023C4.6156 7.36261 3.71418 9.2028 3.53516 11.25H6.5166C6.58237 9.63731 6.85619 8.13069 7.29297 6.82129C6.83585 6.57674 6.39854 6.30023 5.9873 5.99023ZM8.67285 7.43066C8.31578 8.54536 8.08108 9.8412 8.01855 11.25H10.6602L11.25 10.6602V7.96875C10.3526 7.90213 9.48866 7.71868 8.67285 7.43066ZM14.1465 7.7627C13.6917 7.86199 13.2259 7.9324 12.75 7.96777V9.16016L14.1465 7.7627ZM11.25 3.68164C10.6722 3.95401 10.0267 4.557 9.4248 5.65137C9.35705 5.77456 9.29162 5.90241 9.22754 6.03418C9.87039 6.25644 10.5476 6.40522 11.25 6.4668V3.68164ZM12.75 6.46582C13.452 6.40415 14.1291 6.25745 14.7715 6.03516C14.7073 5.90324 14.643 5.77468 14.5752 5.65137C13.9733 4.557 13.3278 3.95401 12.75 3.68164V6.46582ZM8.53223 4.23926C8.05741 4.45175 7.60555 4.70578 7.18164 4.99805C7.40047 5.14911 7.62637 5.29045 7.85938 5.4209C8.06499 4.99338 8.28979 4.59786 8.53223 4.23926ZM15.4668 4.23926C15.709 4.59755 15.9351 4.99184 16.1406 5.41895C16.3727 5.28889 16.5974 5.14754 16.8154 4.99707C16.392 4.70534 15.941 4.45141 15.4668 4.23926Z" fill="white"/>
</svg>
