<svg width="24" height="24" viewBox="0 0 24 24" fill="none" xmlns="http://www.w3.org/2000/svg">
<path d="M12 2C17.5228 2 22 6.47715 22 12C22 17.5228 17.5228 22 12 22C6.47715 22 2 17.5228 2 12C2 6.47715 6.47715 2 12 2ZM11.25 17.5137C10.536 17.5527 9.84572 17.6799 9.18945 17.8848C9.26559 18.0453 9.3433 18.2004 9.4248 18.3486C10.0266 19.4428 10.6723 20.0449 11.25 20.3174V17.5137ZM12.75 20.3174C13.3277 20.0449 13.9734 19.4428 14.5752 18.3486C14.6281 18.2525 14.6788 18.1532 14.7295 18.0518C14.1018 17.8132 13.4389 17.6461 12.75 17.5625V20.3174ZM7.80176 18.457C7.54094 18.593 7.28805 18.742 7.04395 18.9033C7.50741 19.2366 8.00546 19.524 8.53223 19.7598C8.26707 19.3674 8.02256 18.9313 7.80176 18.457ZM16.0781 18.7051C15.8894 19.0843 15.6851 19.4368 15.4668 19.7598C15.8885 19.5711 16.2919 19.3497 16.6738 19.0977C16.481 18.959 16.2825 18.8276 16.0781 18.7051ZM17.4834 12.75C17.4154 14.4167 17.1227 15.9691 16.6602 17.3086C17.0886 17.553 17.4969 17.828 17.8828 18.1309C19.3255 16.7462 20.2804 14.8596 20.4648 12.75H17.4834ZM3.53516 12.75C3.70911 14.7391 4.56715 16.5307 5.87402 17.8896C6.30886 17.5756 6.76855 17.2937 7.25195 17.0518C6.83925 15.7722 6.58026 14.3109 6.5166 12.75H3.53516ZM12.75 16.0518C13.6387 16.1429 14.4918 16.3535 15.2959 16.6621C15.6699 15.5267 15.9172 14.1982 15.9814 12.75H12.75V16.0518ZM8.01855 12.75C8.07948 14.1228 8.30457 15.3882 8.64648 16.4834C9.4727 16.2166 10.3454 16.0526 11.25 16.0107V12.75H8.01855ZM5.9873 5.99023C4.6156 7.36261 3.71418 9.2028 3.53516 11.25H6.5166C6.58237 9.63731 6.85619 8.13069 7.29297 6.82129C6.83585 6.57674 6.39854 6.30023 5.9873 5.99023ZM8.67285 7.43066C8.31578 8.54536 8.08108 9.8412 8.01855 11.25H11.25V7.96875C10.3526 7.90213 9.48866 7.71868 8.67285 7.43066ZM15.3252 7.42969C14.51 7.71766 13.6468 7.90111 12.75 7.96777V11.25H15.9814C15.9189 9.84059 15.6825 8.54471 15.3252 7.42969ZM18.0098 5.98828C17.5982 6.2986 17.1615 6.57651 16.7041 6.82129C17.141 8.13092 17.4176 9.63697 17.4834 11.25H20.4648C20.2857 9.20159 19.3828 7.36091 18.0098 5.98828ZM11.25 3.68164C10.6722 3.95401 10.0267 4.557 9.4248 5.65137C9.35705 5.77456 9.29162 5.90241 9.22754 6.03418C9.87039 6.25644 10.5476 6.40522 11.25 6.4668V3.68164ZM12.75 6.46582C13.452 6.40415 14.1291 6.25745 14.7715 6.03516C14.7073 5.90324 14.643 5.77468 14.5752 5.65137C13.9733 4.557 13.3278 3.95401 12.75 3.68164V6.46582ZM8.53223 4.23926C8.05741 4.45175 7.60555 4.70578 7.18164 4.99805C7.40047 5.14911 7.62637 5.29045 7.85938 5.4209C8.06499 4.99338 8.28979 4.59786 8.53223 4.23926ZM15.4668 4.23926C15.709 4.59755 15.9351 4.99184 16.1406 5.41895C16.3727 5.28889 16.5974 5.14754 16.8154 4.99707C16.392 4.70534 15.941 4.45141 15.4668 4.23926Z" fill="white"/>
</svg>
