<svg width="24" height="24" viewBox="0 0 24 24" fill="none" xmlns="http://www.w3.org/2000/svg">
<path fill-rule="evenodd" clip-rule="evenodd" d="M8.51162 4.02735C8.28374 2.98562 9.07707 2 10.1434 2C11.1017 2 11.9818 2.529 12.4314 3.37531L15.6424 9.41958L19.2282 9.31092C20.7452 9.26495 22 10.4823 22 12C22 13.5177 20.7452 14.735 19.2282 14.6891L15.6424 14.5804L12.4314 20.6247C11.9818 21.471 11.1017 22 10.1434 22C9.07706 22 8.28374 21.0144 8.51162 19.9726L9.73036 14.4013L7.23499 14.3256L6.6161 14.9445C6.10037 15.4603 5.4009 15.75 4.67155 15.75H3.40449C2.66111 15.75 2.17761 14.9677 2.51006 14.3028L3.66145 12L2.51006 9.69721C2.17761 9.03231 2.66111 8.25 3.40449 8.25H4.67155C5.4009 8.25 6.10037 8.53973 6.6161 9.05546L7.23499 9.67435L9.73036 9.59874L8.51162 4.02735Z" fill="white" fill-opacity="0.96"/>
</svg>
