<svg width="24" height="24" viewBox="0 0 24 24" fill="none" xmlns="http://www.w3.org/2000/svg">
<path fill-rule="evenodd" clip-rule="evenodd" d="M8.98076 3.80653C8.85519 3.23253 9.29232 2.68945 9.87989 2.68945C10.5608 2.68945 11.1861 3.06531 11.5055 3.66663L14.9354 10.1228L18.9874 10C20.0815 9.96688 20.9864 10.8448 20.9864 11.9395C20.9864 13.0341 20.0815 13.912 18.9874 13.8789L14.9354 13.7561L11.5055 20.2123C11.1861 20.8136 10.5608 21.1895 9.87989 21.1895C9.29232 21.1895 8.85519 20.6464 8.98076 20.0724L10.3926 13.6184L6.67026 13.5056L5.82223 14.3537C5.44715 14.7287 4.93845 14.9395 4.40801 14.9395H3.14095C2.9551 14.9395 2.83423 14.7439 2.91734 14.5777L4.23644 11.9395L2.91734 9.30126C2.83423 9.13503 2.9551 8.93945 3.14095 8.93945H4.40801C4.93845 8.93945 5.44715 9.15017 5.82223 9.52524L6.67026 10.3733L10.3926 10.2605L8.98076 3.80653Z" fill="white"/>
</svg>
