<svg width="24" height="24" viewBox="0 0 24 24" fill="none" xmlns="http://www.w3.org/2000/svg">
<path d="M14.0278 3.77379C14.271 3.41285 14.8578 3.40216 15.0717 3.78119C15.5268 4.58764 15.9492 5.21264 16.3258 5.76991C17.2848 7.18902 17.947 8.16892 18.0969 10.5875C17.9166 10.5675 17.7245 10.5494 17.5211 10.5303C16.2414 10.4096 14.5134 10.2467 12.4431 9.30818C12.3041 9.24517 12.1633 9.18009 12.0205 9.11407C11.1912 8.73077 10.2936 8.31588 9.28137 8.09008C9.71313 7.31462 10.5005 6.77662 11.3603 6.18909C12.2825 5.55898 13.2881 4.87189 14.0278 3.77379Z" fill="white"/>
<path d="M6.58761 8.75645C5.33504 9.0686 4.79912 9.77299 4.6184 10.4812C4.48108 11.0193 4.53879 11.6017 4.72024 12.0938C4.96203 12.1119 5.20422 12.1668 5.44045 12.262C12.5026 15.1046 15.1048 13.7943 17.1032 12.7881C17.8493 12.4124 18.5112 12.0791 19.2897 12.0202C19.2753 11.8421 19.2404 11.7397 19.2102 11.6813C19.1805 11.6241 19.1412 11.5807 19.0677 11.5373C18.8689 11.4201 18.5172 11.3489 17.8334 11.2798C17.7124 11.2676 17.5851 11.2556 17.4519 11.2431C16.1675 11.1226 14.3308 10.9503 12.1475 9.9605C12.0091 9.89774 11.8708 9.83411 11.7325 9.77043C10.1899 9.06025 8.6334 8.34366 6.58761 8.75645Z" fill="white"/>
<path d="M5.17441 12.9264C10.2495 14.9692 13.1858 14.9538 15.2896 14.3278C16.1463 14.0729 16.8499 13.7181 17.4382 13.4215C17.5518 13.3642 17.6613 13.309 17.7666 13.2572C18.4365 12.9276 18.9487 12.7271 19.5347 12.7271C20.1226 12.7271 20.5381 12.9197 20.8317 13.2005C21.1353 13.4908 21.3514 13.9178 21.4467 14.4406C21.6395 15.4986 21.3062 16.7798 20.4964 17.6144C17.7815 20.0626 13.9242 20.7708 10.4276 20.4128C8.68392 20.2343 7.0647 19.793 5.76952 19.198C4.45613 18.5947 3.55397 17.87 3.13792 17.1757C2.21684 15.6388 2.42272 14.4053 2.94345 13.6745C3.4894 12.9083 4.40399 12.6162 5.17441 12.9264Z" fill="white"/>
</svg>
