<svg width="24" height="24" viewBox="0 0 24 24" fill="none" xmlns="http://www.w3.org/2000/svg">
<path fill-rule="evenodd" clip-rule="evenodd" d="M8.21858 21H15.7814C16.4548 21 17.0055 21 17.4531 20.9634C17.9163 20.9256 18.3347 20.8449 18.7255 20.6458C19.337 20.3342 19.8342 19.837 20.1458 19.2255C20.3449 18.8347 20.4256 18.4163 20.4634 17.9531C20.5 17.5055 20.5 16.9548 20.5 16.2814V7.71856C20.5 7.04519 20.5 6.49449 20.4634 6.04693C20.4256 5.58367 20.3449 5.16527 20.1458 4.77453C19.8342 4.163 19.337 3.66582 18.7255 3.35423C18.3347 3.15514 17.9163 3.0744 17.4531 3.03655C17.0055 2.99999 16.4548 2.99999 15.7814 3H8.21856C7.54519 2.99999 6.99449 2.99999 6.54693 3.03655C6.08367 3.0744 5.66527 3.15514 5.27453 3.35423C4.663 3.66582 4.16582 4.163 3.85423 4.77453C3.65514 5.16527 3.5744 5.58367 3.53655 6.04693C3.49998 6.49449 3.49999 7.0452 3.5 7.71857V16.2814C3.49999 16.9548 3.49998 17.5055 3.53655 17.9531C3.5744 18.4163 3.65514 18.8347 3.85423 19.2255C4.16582 19.837 4.663 20.3342 5.27453 20.6458C5.66527 20.8449 6.08367 20.9256 6.54693 20.9634C6.99449 21 7.54521 21 8.21858 21ZM18.5 7.4C18.5 6.55992 18.5 6.13988 18.3365 5.81901C18.1927 5.53677 17.9632 5.3073 17.681 5.16349C17.3601 5 16.9401 5 16.1 5H7.9C7.05992 5 6.63988 5 6.31901 5.16349C6.03677 5.3073 5.8073 5.53677 5.66349 5.81901C5.5 6.13988 5.5 6.55992 5.5 7.4V13.6C5.5 14.4401 5.5 14.8601 5.66349 15.181C5.8073 15.4632 6.03677 15.6927 6.31901 15.8365C6.63988 16 7.05992 16 7.9 16H16.1C16.9401 16 17.3601 16 17.681 15.8365C17.9632 15.6927 18.1927 15.4632 18.3365 15.181C18.5 14.8601 18.5 14.4401 18.5 13.6V7.4ZM6.25 19.5C5.69772 19.5 5.25 19.0523 5.25 18.5C5.25 17.9477 5.69772 17.5 6.25 17.5H11.75C12.3023 17.5 12.75 17.9477 12.75 18.5C12.75 19.0523 12.3023 19.5 11.75 19.5H6.25Z" fill="white"/>
</svg>
