<svg width="24" height="24" viewBox="0 0 24 24" fill="none" xmlns="http://www.w3.org/2000/svg">
<path fill-rule="evenodd" clip-rule="evenodd" d="M22 12C22 17.5228 17.5228 22 12 22C6.47715 22 2 17.5228 2 12C2 6.47715 6.47715 2 12 2C17.5228 2 22 6.47715 22 12ZM7.5 7.25C7.91421 7.25 8.25 7.58579 8.25 8V15.25H11.1C11.5142 15.25 11.85 15.5858 11.85 16C11.85 16.4142 11.5142 16.75 11.1 16.75H7.6C7.13056 16.75 6.75 16.3694 6.75 15.9V8C6.75 7.58579 7.08579 7.25 7.5 7.25ZM12.9 7.25C12.4858 7.25 12.15 7.58579 12.15 8V15.9C12.15 16.3694 12.5306 16.75 13 16.75H16.5C16.9142 16.75 17.25 16.4142 17.25 16C17.25 15.5858 16.9142 15.25 16.5 15.25H13.65V12.5901H16.2C16.6142 12.5901 16.95 12.2543 16.95 11.8401C16.95 11.4258 16.6142 11.0901 16.2 11.0901H13.65V8.75H16.2C16.6142 8.75 16.95 8.41421 16.95 8C16.95 7.58579 16.6142 7.25 16.2 7.25H12.9Z" fill="white"/>
</svg>
