<svg width="24" height="24" viewBox="0 0 24 24" fill="none" xmlns="http://www.w3.org/2000/svg">
<path d="M12.502 12.6895C12.7227 12.4935 13.0383 12.4446 13.3076 12.5655C13.5769 12.6865 13.75 12.9549 13.75 13.2501V21.2501C13.75 21.6643 13.4142 22 13 22.0001C12.5858 22.0001 12.25 21.6643 12.25 21.2501V14.92L10.498 16.4776C10.1885 16.7525 9.71457 16.7246 9.43945 16.4151C9.16428 16.1056 9.19241 15.6317 9.50195 15.3565L12.502 12.6895Z" fill="white"/>
<path fill-rule="evenodd" clip-rule="evenodd" d="M8.01465 2.00009C9.52527 2.00009 10.7499 3.22483 10.75 4.73544C10.75 6.24608 9.52529 7.4708 8.01465 7.4708H6.25V10.2501C6.25 10.6643 5.91421 11.0001 5.5 11.0001C5.08579 11.0001 4.75 10.6643 4.75 10.2501V2.75009C4.75006 2.33593 5.08582 2.00009 5.5 2.00009H8.01465ZM6.25 5.9708H8.01465C8.69686 5.9708 9.24997 5.41765 9.25 4.73544C9.24994 4.05326 8.69684 3.50009 8.01465 3.50009H6.25V5.9708Z" fill="white"/>
<path d="M17.8955 2.30673C18.0873 2.04531 18.4252 1.93634 18.7334 2.0372C19.0416 2.13809 19.2499 2.42584 19.25 2.75009V10.2501C19.25 10.6643 18.9142 11.0001 18.5 11.0001C18.0858 11.0001 17.75 10.6643 17.75 10.2501V5.04013L16.3545 6.94345C16.2132 7.13608 15.9889 7.25009 15.75 7.25009C15.5111 7.25009 15.2868 7.13608 15.1455 6.94345L13.75 5.04013V10.2501C13.75 10.6643 13.4142 11.0001 13 11.0001C12.5858 11.0001 12.25 10.6643 12.25 10.2501V2.75009C12.2501 2.42584 12.4584 2.13809 12.7666 2.0372C13.0748 1.93634 13.4127 2.04531 13.6045 2.30673L15.75 5.23154L17.8955 2.30673Z" fill="white"/>
</svg>
