<svg width="24" height="24" viewBox="0 0 24 24" fill="none" xmlns="http://www.w3.org/2000/svg">
<path d="M12 20.0001C12.5522 20.0001 12.9999 20.4479 13 21.0001C13 21.5524 12.5523 22.0001 12 22.0001C11.4477 22.0001 11 21.5524 11 21.0001C11.0001 20.4479 11.4478 20.0001 12 20.0001Z" fill="white"/>
<path d="M8.5 12.2501C9.46646 12.2501 10.2499 13.0336 10.25 14.0001V16.0001C10.25 16.9666 9.4665 17.7501 8.5 17.7501H6.5C6.36197 17.7501 6.25006 17.8621 6.25 18.0001V20.0001C6.25 20.1382 6.36193 20.2501 6.5 20.2501H9.5C9.91418 20.2501 10.2499 20.5859 10.25 21.0001C10.25 21.4143 9.91421 21.7501 9.5 21.7501H6.5C5.5335 21.7501 4.75 20.9666 4.75 20.0001V18.0001C4.75006 17.0336 5.53354 16.2501 6.5 16.2501H8.5C8.63807 16.2501 8.75 16.1382 8.75 16.0001V14.0001C8.74994 13.8621 8.63803 13.7501 8.5 13.7501H5.5C5.08579 13.7501 4.75 13.4143 4.75 13.0001C4.75006 12.5859 5.08582 12.2501 5.5 12.2501H8.5Z" fill="white"/>
<path d="M18.5 12.2501C18.9142 12.2501 19.2499 12.5859 19.25 13.0001C19.25 13.4143 18.9142 13.7501 18.5 13.7501H15.5C15.362 13.7501 15.2501 13.8621 15.25 14.0001V16.0001C15.25 16.1382 15.3619 16.2501 15.5 16.2501H17.5C18.4665 16.2501 19.2499 17.0336 19.25 18.0001V20.0001C19.25 20.9666 18.4665 21.7501 17.5 21.7501H14.5C14.0858 21.7501 13.75 21.4143 13.75 21.0001C13.7501 20.5859 14.0858 20.2501 14.5 20.2501H17.5C17.6381 20.2501 17.75 20.1382 17.75 20.0001V18.0001C17.7499 17.8621 17.638 17.7501 17.5 17.7501H15.5C14.5335 17.7501 13.75 16.9666 13.75 16.0001V14.0001C13.7501 13.0336 14.5335 12.2501 15.5 12.2501H18.5Z" fill="white"/>
<path fill-rule="evenodd" clip-rule="evenodd" d="M8.01465 2.00009C9.52527 2.00009 10.7499 3.22483 10.75 4.73544C10.75 6.24608 9.52529 7.4708 8.01465 7.4708H6.25V10.2501C6.25 10.6643 5.91421 11.0001 5.5 11.0001C5.08579 11.0001 4.75 10.6643 4.75 10.2501V2.75009C4.75006 2.33593 5.08582 2.00009 5.5 2.00009H8.01465ZM6.25 5.9708H8.01465C8.69686 5.9708 9.24997 5.41765 9.25 4.73544C9.24994 4.05326 8.69684 3.50009 8.01465 3.50009H6.25V5.9708Z" fill="white"/>
<path d="M17.8955 2.30673C18.0873 2.04531 18.4252 1.93634 18.7334 2.0372C19.0416 2.13809 19.2499 2.42584 19.25 2.75009V10.2501C19.25 10.6643 18.9142 11.0001 18.5 11.0001C18.0858 11.0001 17.75 10.6643 17.75 10.2501V5.04013L16.3545 6.94345C16.2132 7.13608 15.9889 7.25009 15.75 7.25009C15.5111 7.25009 15.2868 7.13608 15.1455 6.94345L13.75 5.04013V10.2501C13.75 10.6643 13.4142 11.0001 13 11.0001C12.5858 11.0001 12.25 10.6643 12.25 10.2501V2.75009C12.2501 2.42584 12.4584 2.13809 12.7666 2.0372C13.0748 1.93634 13.4127 2.04531 13.6045 2.30673L15.75 5.23154L17.8955 2.30673Z" fill="white"/>
</svg>
