<svg width="24" height="24" viewBox="0 0 24 24" fill="none" xmlns="http://www.w3.org/2000/svg">
<path fill-rule="evenodd" clip-rule="evenodd" d="M17.5 12.0006C20.5376 12.0006 23 14.463 23 17.5006C22.9998 20.538 20.5374 23.0006 17.5 23.0006C14.4626 23.0006 12.0002 20.538 12 17.5006C12 14.463 14.4624 12.0006 17.5 12.0006ZM17.3535 14.6471C17.1583 14.4518 16.8417 14.4518 16.6465 14.6471L14.1465 17.1471C13.9514 17.3424 13.9513 17.6589 14.1465 17.8541L16.6465 20.3541L16.7246 20.4186C16.9186 20.5465 17.1827 20.5247 17.3535 20.3541C17.5243 20.1833 17.5459 19.9193 17.418 19.7252L17.3535 19.6471L15.707 18.0006H20.5C20.776 18.0006 20.9998 17.7766 21 17.5006C21 17.2245 20.7761 17.0006 20.5 17.0006H15.707L17.3535 15.3541C17.5487 15.1589 17.5486 14.8424 17.3535 14.6471Z" fill="white"/>
<path fill-rule="evenodd" clip-rule="evenodd" d="M11.6416 2.18908C12.0807 1.93834 12.6205 1.9382 13.0596 2.18908L21.2656 6.87756C21.5268 7.02702 21.6446 7.30091 21.6211 7.56311C21.6383 7.62614 21.6504 7.69287 21.6504 7.76135V12.4977C21.1983 12.1222 20.6936 11.808 20.1504 11.5651V8.75451L15.8447 11.2135C13.9576 11.709 12.4065 13.0322 11.6006 14.7711V12.7828L8.81445 11.1901V13.9274C8.81382 14.341 8.47826 14.6773 8.06445 14.6774C7.65076 14.6772 7.31508 14.341 7.31445 13.9274V10.3326L4.5 8.72522V16.5446L11.6006 20.4723V20.2301C11.9441 20.9712 12.4231 21.6369 13.0059 22.1949C12.5013 22.3981 11.9272 22.367 11.4443 22.1002L3.75586 17.8492C3.28997 17.5916 3.00043 17.0993 3 16.567V7.73108C3 7.609 3.03218 7.49407 3.08398 7.39221C3.11395 7.18818 3.23113 6.99455 3.43555 6.87756L11.6416 2.18908ZM16.3711 5.95666L16.3076 5.99963L9.69531 9.96643L12.2109 11.4049C12.2561 11.3964 12.3029 11.3912 12.3506 11.3912C12.3987 11.3912 12.4456 11.3962 12.4912 11.4049L19.3281 7.49768L16.4717 5.86487C16.4413 5.89758 16.4079 5.92922 16.3711 5.95666ZM5.37402 7.49768L8.23145 9.12951L8.31445 9.04651L8.39355 8.99865L15.0088 5.02893L12.3506 3.51037L5.37402 7.49768Z" fill="white"/>
</svg>
