<svg width="24" height="24" viewBox="0 0 24 24" fill="none" xmlns="http://www.w3.org/2000/svg">
<path fill-rule="evenodd" clip-rule="evenodd" d="M15.78 3.72962L7.5 8.39962L4.03 6.51962L11.64 2.16962L11.81 2.08962C12.21 1.91962 12.67 1.94962 13.05 2.16962L15.78 3.72962ZM9.05 9.23962L12.3 10.9996L20.75 6.56962L17.3 4.58962L9.05 9.23962ZM6.75 9.69962V13.4996C6.75 13.9196 7.08 14.2496 7.5 14.2496C7.91 14.2496 8.25 13.9196 8.25 13.4996V10.5096L11.55 12.2996V14.8696C11.19 15.6796 11 16.5596 11 17.4996C11 18.4296 11.19 19.3096 11.55 20.1196V22.1396C11.51 22.1196 11.47 22.0996 11.44 22.0796L3.75 17.8296C3.28 17.5696 3 17.0796 3 16.5496V7.70962L6.75 9.69962ZM21.65 12.4896V7.78962L13.05 12.3096V12.7596C14.21 11.6596 15.77 10.9996 17.5 10.9996C19.07 10.9996 20.52 11.5596 21.65 12.4896ZM12 17.4996C12 14.4596 14.46 11.9996 17.5 11.9996C20.53 11.9996 23 14.4596 23 17.4996C23 20.5296 20.53 22.9996 17.5 22.9996C14.46 22.9996 12 20.5296 12 17.4996ZM15.7 16.9996L17.35 15.3496C17.55 15.1496 17.55 14.8396 17.35 14.6396C17.15 14.4396 16.84 14.4396 16.64 14.6396L14.14 17.1396C14.09 17.1896 14.06 17.2396 14.03 17.2996C14.01 17.3596 14 17.4296 14 17.4996C14 17.5596 14.01 17.6296 14.03 17.6896C14.06 17.7496 14.09 17.7996 14.14 17.8496L16.64 20.3496C16.84 20.5496 17.15 20.5496 17.35 20.3496C17.55 20.1496 17.55 19.8396 17.35 19.6396L15.7 17.9996H20.5C20.77 17.9996 21 17.7796 21 17.4996C21 17.2196 20.77 16.9996 20.5 16.9996H15.7Z" fill="white"/>
</svg>
