<svg width="24" height="24" viewBox="0 0 24 24" fill="none" xmlns="http://www.w3.org/2000/svg">
<path fill-rule="evenodd" clip-rule="evenodd" d="M6.99995 7C6.99995 4.23857 9.23854 2 12 2C14.7614 2 17 4.23857 17 7C17 9.76143 14.7614 12 12 12C9.23854 12 6.99995 9.76143 6.99995 7ZM12 3.5C10.067 3.5 8.49995 5.06701 8.49995 7C8.49995 8.93299 10.067 10.5 12 10.5C13.933 10.5 15.5 8.93299 15.5 7C15.5 5.06701 13.933 3.5 12 3.5Z" fill="white" fill-opacity="0.96"/>
<path d="M4.97617 17.1074C6.8585 15.8624 9.08996 15.1036 11.494 15.0098C11.7193 14.4671 12.016 13.9615 12.3724 13.5048C12.2486 13.5016 12.1245 13.5 12.0001 13.5C9.10008 13.5 6.40033 14.3671 4.1487 15.8563C3.4107 16.3444 2.94983 17.2134 3.05458 18.1402C3.0986 18.5297 3.18193 18.8874 3.35416 19.2255C3.66575 19.837 4.16294 20.3342 4.77447 20.6458C5.16521 20.8449 5.5836 20.9256 6.04687 20.9634C6.49443 21 7.04513 21 7.7185 21H12.0218C11.7252 20.5368 11.4858 20.0335 11.3134 19.5H7.74993C7.03749 19.5 6.54827 19.4994 6.16901 19.4684C5.79851 19.4382 5.59949 19.3827 5.45545 19.3093C5.12617 19.1415 4.85845 18.8738 4.69067 18.5445C4.62742 18.4203 4.57701 18.2542 4.54509 17.9717C4.50895 17.6519 4.66779 17.3113 4.97617 17.1074Z" fill="white" fill-opacity="0.96"/>
<path fill-rule="evenodd" clip-rule="evenodd" d="M22.9999 17.5C22.9999 20.5376 20.5375 23 17.4999 23C14.4624 23 11.9999 20.5376 11.9999 17.5C11.9999 14.4624 14.4624 12 17.4999 12C20.5375 12 22.9999 14.4624 22.9999 17.5ZM15.0251 15.0251C15.2203 14.8299 15.5369 14.8299 15.7322 15.0251L17.4999 16.7929L19.2677 15.0251C19.463 14.8299 19.7796 14.8299 19.9748 15.0251C20.1701 15.2204 20.1701 15.537 19.9748 15.7322L18.207 17.5L19.9748 19.2678C20.1701 19.463 20.1701 19.7796 19.9748 19.9749C19.7796 20.1701 19.463 20.1701 19.2677 19.9749L17.4999 18.2071L15.7322 19.9749C15.5369 20.1701 15.2203 20.1701 15.0251 19.9749C14.8298 19.7796 14.8298 19.463 15.0251 19.2678L16.7928 17.5L15.0251 15.7322C14.8298 15.537 14.8298 15.2204 15.0251 15.0251Z" fill="white" fill-opacity="0.96"/>
</svg>
