<svg width="24" height="24" viewBox="0 0 24 24" fill="none" xmlns="http://www.w3.org/2000/svg">
<path fill-rule="evenodd" clip-rule="evenodd" d="M16.2504 7.49999C16.2504 9.84719 14.3476 11.75 12.0004 11.75C9.65318 11.75 7.75039 9.84719 7.75039 7.49999C7.75039 5.15278 9.65318 3.25 12.0004 3.25C14.3476 3.25 16.2504 5.15278 16.2504 7.49999ZM11.8696 20.75C11.3165 19.7939 11 18.6839 11 17.5C11 16.1039 11.4401 14.8107 12.1892 13.7514C12.1265 13.7505 12.0638 13.75 12.001 13.75C9.10759 13.75 6.4203 14.7482 4.19361 16.4568C3.73539 16.8084 3.48305 17.3648 3.50089 17.9421C3.52124 18.6009 3.58196 19.0294 3.76311 19.385C4.00279 19.8554 4.38524 20.2378 4.85565 20.4775C5.39043 20.75 6.09049 20.75 7.49063 20.75H11.8696Z" fill="white"/>
<path fill-rule="evenodd" clip-rule="evenodd" d="M17.5 23C20.5376 23 23 20.5376 23 17.5C23 14.4624 20.5376 12 17.5 12C14.4624 12 12 14.4624 12 17.5C12 20.5376 14.4624 23 17.5 23ZM15.7322 15.0251C15.537 14.8299 15.2204 14.8299 15.0251 15.0251C14.8299 15.2204 14.8299 15.537 15.0251 15.7322L16.7929 17.5L15.0251 19.2678C14.8299 19.463 14.8299 19.7796 15.0251 19.9749C15.2204 20.1701 15.537 20.1701 15.7322 19.9749L17.5 18.2071L19.2678 19.9749C19.463 20.1701 19.7796 20.1701 19.9749 19.9749C20.1701 19.7796 20.1701 19.463 19.9749 19.2678L18.2071 17.5L19.9749 15.7322C20.1701 15.537 20.1701 15.2204 19.9749 15.0251C19.7796 14.8299 19.463 14.8299 19.2678 15.0251L17.5 16.7929L15.7322 15.0251Z" fill="white"/>
</svg>
