<svg width="24" height="24" viewBox="0 0 24 24" fill="none" xmlns="http://www.w3.org/2000/svg">
<path fill-rule="evenodd" clip-rule="evenodd" d="M7.0002 7C7.0002 4.23857 9.23878 2 12.0002 2C14.7616 2 17.0002 4.23857 17.0002 7C17.0002 9.76143 14.7616 12 12.0002 12C9.23878 12 7.0002 9.76143 7.0002 7ZM4.14895 15.8563C6.40058 14.3671 9.10032 13.5 12.0003 13.5C14.9002 13.5 17.5998 14.367 19.8514 15.8561C20.5894 16.3442 21.0503 17.2132 20.9456 18.14C20.9015 18.5296 20.8182 18.8874 20.646 19.2255C20.3344 19.837 19.8372 20.3342 19.2256 20.6458C18.8349 20.8449 18.4165 20.9256 17.9532 20.9634C17.5057 21 16.955 21 16.2816 21H7.71874C7.04537 21 6.49467 21 6.04711 20.9634C5.58385 20.9256 5.16545 20.8449 4.77471 20.6458C4.16318 20.3342 3.666 19.837 3.35441 19.2255C3.18218 18.8874 3.09885 18.5297 3.05483 18.1402C2.95008 17.2134 3.41094 16.3444 4.14895 15.8563Z" fill="white" fill-opacity="0.96"/>
</svg>
