<svg width="24" height="24" viewBox="0 0 24 24" fill="none" xmlns="http://www.w3.org/2000/svg">
<path fill-rule="evenodd" clip-rule="evenodd" d="M12 3.5C10.067 3.5 8.49995 5.06701 8.49995 7C8.49995 8.93299 10.067 10.5 12 10.5C13.933 10.5 15.5 8.93299 15.5 7C15.5 5.06701 13.933 3.5 12 3.5ZM6.99995 7C6.99995 4.23857 9.23854 2 12 2C14.7614 2 17 4.23857 17 7C17 9.76143 14.7614 12 12 12C9.23854 12 6.99995 9.76143 6.99995 7ZM12.0001 15C9.40329 15 6.98994 15.7755 4.97617 17.1074C4.66779 17.3113 4.50895 17.6519 4.54509 17.9717C4.57701 18.2542 4.62742 18.4203 4.69067 18.5445C4.85845 18.8738 5.12617 19.1415 5.45545 19.3093C5.59949 19.3827 5.79851 19.4382 6.16901 19.4684C6.54827 19.4994 7.03749 19.5 7.74993 19.5H16.2499C16.9624 19.5 17.4516 19.4994 17.8309 19.4684C18.2014 19.4382 18.4004 19.3827 18.5444 19.3093C18.8737 19.1415 19.1414 18.8738 19.3092 18.5445C19.3725 18.4203 19.4229 18.2541 19.4548 17.9716C19.4909 17.6518 19.3321 17.3112 19.0237 17.1072C17.01 15.7754 14.5967 15 12.0001 15ZM4.1487 15.8563C6.40033 14.3671 9.10008 13.5 12.0001 13.5C14.8999 13.5 17.5996 14.367 19.8511 15.8561C20.5892 16.3442 21.05 17.2132 20.9453 18.14C20.9013 18.5296 20.818 18.8874 20.6457 19.2255C20.3341 19.837 19.8369 20.3342 19.2254 20.6458C18.8347 20.8449 18.4163 20.9256 17.953 20.9634C17.5054 21 16.9547 21 16.2814 21H7.7185C7.04513 21 6.49443 21 6.04687 20.9634C5.5836 20.9256 5.16521 20.8449 4.77447 20.6458C4.16294 20.3342 3.66575 19.837 3.35416 19.2255C3.18193 18.8874 3.0986 18.5297 3.05458 18.1402C2.94983 17.2134 3.4107 16.3444 4.1487 15.8563Z" fill="white" fill-opacity="0.96"/>
</svg>
