<svg width="24" height="24" viewBox="0 0 24 24" fill="none" xmlns="http://www.w3.org/2000/svg">
<path d="M6.875 16.3711C6.97906 16.3711 7.08261 16.373 7.18555 16.3779C7.45613 16.3909 7.72267 16.4209 7.98438 16.4668C7.99582 16.4688 8.00713 16.4716 8.01855 16.4736C8.09315 16.4871 8.16742 16.5015 8.24121 16.5176C8.26669 16.5231 8.292 16.5293 8.31738 16.5352C8.37593 16.5487 8.43418 16.563 8.49219 16.5781C8.52294 16.5861 8.55339 16.5951 8.58398 16.6035C8.63857 16.6186 8.69299 16.6339 8.74707 16.6504C8.77773 16.6597 8.80838 16.669 8.83887 16.6787C8.89125 16.6955 8.94323 16.7134 8.99512 16.7314C9.03102 16.7439 9.06688 16.7564 9.10254 16.7695C9.14704 16.7859 9.19124 16.803 9.23535 16.8203C9.27195 16.8347 9.30841 16.8493 9.34473 16.8643C9.38262 16.8799 9.42042 16.8958 9.45801 16.9121C9.5044 16.9323 9.55076 16.9524 9.59668 16.9736C9.62523 16.9868 9.65328 17.0011 9.68164 17.0146C9.72302 17.0344 9.76469 17.0536 9.80566 17.0742L9.83301 17.0879C9.86752 17.1055 9.90133 17.1244 9.93555 17.1426C10.178 17.2712 10.4129 17.4145 10.6396 17.5713C10.6585 17.5843 10.6775 17.5971 10.6963 17.6104C10.7856 17.6734 10.8743 17.7375 10.9609 17.8047C11.5053 18.2266 11.75 18.8711 11.75 19.4805C11.7498 20.7338 10.7338 21.7498 9.48047 21.75H4.26953C3.01618 21.7498 2.00016 20.7338 2 19.4805C2 18.8711 2.24472 18.2266 2.78906 17.8047C3.94891 16.9057 5.35385 16.3711 6.875 16.3711ZM11.875 12.3711C12.0664 12.3711 12.2559 12.3789 12.4434 12.3955C12.6222 12.4113 12.7989 12.4355 12.9736 12.4658C12.9942 12.4694 13.0147 12.4728 13.0352 12.4766C13.0963 12.4878 13.1572 12.4997 13.2178 12.5127C13.2462 12.5188 13.2744 12.5258 13.3027 12.5322C13.3708 12.5478 13.4385 12.5643 13.5059 12.582C13.5175 12.5851 13.5294 12.5877 13.541 12.5908C13.6199 12.612 13.6985 12.6341 13.7764 12.6582C13.7838 12.6605 13.7914 12.6627 13.7988 12.665C13.8648 12.6857 13.9299 12.7087 13.9951 12.7314C14.0403 12.7472 14.0851 12.7636 14.1299 12.7803C14.1841 12.8005 14.2384 12.8202 14.292 12.8418C14.3162 12.8516 14.3401 12.862 14.3643 12.8721C14.4156 12.8935 14.4668 12.9148 14.5176 12.9375C14.5552 12.9543 14.5925 12.9718 14.6299 12.9893C14.6698 13.008 14.7094 13.0274 14.749 13.0469C14.7849 13.0645 14.8208 13.0823 14.8564 13.1006C14.8886 13.1171 14.9203 13.1343 14.9521 13.1514C15.168 13.2666 15.3777 13.3936 15.5811 13.5312C15.6231 13.5597 15.6655 13.5878 15.707 13.6172C15.7928 13.6779 15.8777 13.7401 15.9609 13.8047C16.5053 14.2266 16.75 14.8711 16.75 15.4805C16.7498 16.7338 15.7338 17.7498 14.4805 17.75H12.2471C12.0726 17.4801 11.8503 17.2294 11.5732 17.0146C10.8234 16.4335 9.97729 15.9816 9.0625 15.7002C9.93711 15.0137 10.5 13.9481 10.5 12.75C10.5 12.6729 10.4968 12.5964 10.4922 12.5205C10.9392 12.4221 11.4016 12.3711 11.875 12.3711ZM6.75 10C8.26878 10 9.5 11.2312 9.5 12.75C9.5 13.383 9.28328 13.9639 8.92383 14.4287C8.91714 14.4374 8.91108 14.4465 8.9043 14.4551C8.81146 14.5722 8.70903 14.6807 8.59863 14.7812C8.58704 14.7918 8.57525 14.8021 8.56348 14.8125C8.50992 14.8596 8.4546 14.9044 8.39746 14.9473C8.3885 14.954 8.37916 14.9602 8.37012 14.9668C8.31626 15.0062 8.26181 15.0446 8.20508 15.0801C8.18752 15.0911 8.16919 15.1007 8.15137 15.1113C8.09328 15.1459 8.03438 15.1787 7.97363 15.209C7.9662 15.2127 7.95864 15.2161 7.95117 15.2197C7.88342 15.2527 7.81487 15.2841 7.74414 15.3115C7.73647 15.3145 7.72841 15.3164 7.7207 15.3193C7.64993 15.3461 7.57831 15.3707 7.50488 15.3916C7.49972 15.3931 7.49443 15.3941 7.48926 15.3955C7.25372 15.4612 7.00648 15.5 6.75 15.5C5.23122 15.5 4 14.2688 4 12.75C4 11.2312 5.23122 10 6.75 10ZM17.125 8.37109C18.6461 8.3711 20.0511 8.90574 21.2109 9.80469C21.7553 10.2266 22 10.8711 22 11.4805C21.9998 12.7338 20.9838 13.7498 19.7305 13.75H17.2471C17.0726 13.4801 16.8503 13.2294 16.5732 13.0146C15.8234 12.4335 14.9773 11.9816 14.0625 11.7002C14.9371 11.0137 15.5 9.9481 15.5 8.75C15.5 8.69337 15.4976 8.63708 15.4951 8.58105C16.0183 8.44403 16.5637 8.37109 17.125 8.37109ZM11.75 6C13.2688 6 14.5 7.23122 14.5 8.75C14.5 9.36772 14.2931 9.93544 13.9492 10.3945C13.9438 10.4018 13.9391 10.4097 13.9336 10.417C13.8964 10.4656 13.8576 10.5126 13.8174 10.5586C13.8045 10.5734 13.7915 10.5881 13.7783 10.6025C13.7365 10.6483 13.6932 10.6925 13.6484 10.7354C13.6389 10.7444 13.6288 10.7528 13.6191 10.7617C13.4184 10.9483 13.191 11.1052 12.9414 11.2256C12.9236 11.2342 12.9057 11.2428 12.8877 11.251C12.8321 11.2763 12.7753 11.2986 12.7178 11.3203C12.7012 11.3266 12.6847 11.3329 12.668 11.3389C12.6092 11.3597 12.5498 11.3786 12.4893 11.3955C12.4766 11.399 12.4639 11.4019 12.4512 11.4053C12.227 11.4643 11.9927 11.5 11.75 11.5C11.0796 11.5 10.4655 11.2599 9.98828 10.8613C9.803 10.5443 9.57347 10.2567 9.30664 10.0078C9.11206 9.6306 9 9.20369 9 8.75C9 7.23122 10.2312 6 11.75 6ZM17 2C18.5188 2 19.75 3.23122 19.75 4.75C19.75 6.26878 18.5188 7.5 17 7.5C15.4812 7.5 14.25 6.26878 14.25 4.75C14.25 3.23122 15.4812 2 17 2Z" fill="white"/>
</svg>
