<svg width="24" height="24" viewBox="0 0 24 24" fill="none" xmlns="http://www.w3.org/2000/svg">
<path d="M9.34473 16.8643C9.38262 16.8799 9.42042 16.8958 9.45801 16.9121C9.5044 16.9323 9.55076 16.9524 9.59668 16.9736C9.62523 16.9868 9.65328 17.0011 9.68164 17.0146C9.72302 17.0344 9.76469 17.0536 9.80566 17.0742L9.83301 17.0879C9.86752 17.1055 9.90133 17.1244 9.93555 17.1426C10.178 17.2712 10.4129 17.4145 10.6396 17.5713C10.6585 17.5843 10.6775 17.5971 10.6963 17.6104C10.7856 17.6734 10.8743 17.7375 10.9609 17.8047C11.5053 18.2266 11.75 18.8711 11.75 19.4805C11.7498 20.7338 10.7338 21.7498 9.48047 21.75H4.31543L5.82324 20.25H9.48047C9.9054 20.2498 10.2498 19.9054 10.25 19.4805C10.25 19.2526 10.1594 19.0812 10.042 18.9902C9.44451 18.5272 8.7774 18.1945 8.06641 18.0176L9.25977 16.8301C9.28815 16.8413 9.31651 16.8526 9.34473 16.8643Z" fill="white"/>
<path fill-rule="evenodd" clip-rule="evenodd" d="M17 2C17.8004 2 18.518 2.34369 19.0195 2.88965L19.4404 2.46973C19.7333 2.17683 20.2081 2.17683 20.501 2.46973C20.7939 2.76262 20.7939 3.23738 20.501 3.53027L3.53027 20.501C3.45501 20.5762 3.36751 20.6314 3.27441 20.668L2.76465 21.1758C2.29667 20.7601 2.00009 20.1557 2 19.4805C2 18.8711 2.24472 18.2266 2.78906 17.8047C3.5506 17.2145 4.41812 16.7826 5.35449 16.5547L6.42969 15.4795C5.06193 15.3207 4 14.1604 4 12.75C4 11.2312 5.23122 10 6.75 10C8.16035 10 9.32071 11.0619 9.47949 12.4297L10.6436 11.2656C10.4059 11.1609 10.185 11.0256 9.98828 10.8613C9.803 10.5443 9.57347 10.2567 9.30664 10.0078C9.11206 9.6306 9 9.20369 9 8.75C9 7.23122 10.2312 6 11.75 6C12.8746 6 13.8404 6.67556 14.2666 7.64258L15.1396 6.76953C14.5937 6.26796 14.25 5.55038 14.25 4.75C14.25 3.23122 15.4812 2 17 2ZM6.75 11.5C6.05964 11.5 5.5 12.0596 5.5 12.75C5.5 13.4404 6.05964 14 6.75 14C7.44036 14 8 13.4404 8 12.75C8 12.0596 7.44036 11.5 6.75 11.5ZM11.75 7.5C11.0596 7.5 10.5 8.05965 10.5 8.75C10.5 9.44035 11.0596 10 11.75 10C11.8091 10 11.8669 9.99329 11.9238 9.98535L12.9854 8.92383C12.9933 8.8669 13 8.80911 13 8.75C13 8.05964 12.4404 7.5 11.75 7.5ZM17 3.5C16.3096 3.5 15.75 4.05964 15.75 4.75C15.75 5.1357 15.9246 5.48067 16.1992 5.70996L17.96 3.94922C17.7307 3.67464 17.3857 3.5 17 3.5Z" fill="white"/>
<path d="M13.541 12.5908C13.6199 12.612 13.6985 12.6341 13.7764 12.6582C13.7838 12.6605 13.7914 12.6627 13.7988 12.665C13.8648 12.6857 13.9299 12.7087 13.9951 12.7314C14.0403 12.7472 14.0851 12.7636 14.1299 12.7803C14.1841 12.8005 14.2384 12.8202 14.292 12.8418C14.3162 12.8516 14.3401 12.862 14.3643 12.8721C14.4137 12.8927 14.4628 12.9138 14.5117 12.9355C14.5513 12.9531 14.5907 12.9709 14.6299 12.9893C14.6698 13.008 14.7094 13.0274 14.749 13.0469C14.7849 13.0645 14.8208 13.0823 14.8564 13.1006C14.8886 13.1171 14.9203 13.1343 14.9521 13.1514C15.1787 13.2723 15.3985 13.4061 15.6113 13.5518C15.6432 13.5736 15.6755 13.5948 15.707 13.6172C15.7928 13.6779 15.8777 13.7401 15.9609 13.8047C16.5053 14.2266 16.75 14.8711 16.75 15.4805C16.7498 16.7338 15.7338 17.7498 14.4805 17.75H12.2471C12.0726 17.4801 11.8503 17.2294 11.5732 17.0146C11.201 16.7261 10.805 16.4697 10.3887 16.25H14.4805C14.9054 16.2498 15.2498 15.9054 15.25 15.4805C15.25 15.2526 15.1594 15.0812 15.042 14.9902C14.2127 14.3475 13.2495 13.9559 12.2207 13.8838L13.5254 12.5869C13.5306 12.5882 13.5358 12.5894 13.541 12.5908Z" fill="white"/>
<path d="M17.7324 8.40039C19.0198 8.52226 20.2072 9.02672 21.2109 9.80469C21.7553 10.2266 22 10.8711 22 11.4805C21.9998 12.7338 20.9838 13.7498 19.7305 13.75H17.2471C17.0726 13.4801 16.8503 13.2294 16.5732 13.0146C16.201 12.7261 15.805 12.4697 15.3887 12.25H19.7305C20.1554 12.2498 20.4998 11.9054 20.5 11.4805C20.5 11.2526 20.4094 11.0812 20.292 10.9902C19.4282 10.3208 18.419 9.92317 17.3418 9.87598L17.125 9.87109C16.7962 9.87109 16.4733 9.90371 16.1582 9.9668L17.7324 8.40039Z" fill="white"/>
</svg>
