<svg width="24" height="24" viewBox="0 0 24 24" fill="none" xmlns="http://www.w3.org/2000/svg">
<path fill-rule="evenodd" clip-rule="evenodd" d="M10 7.25C9.58579 7.25 9.25 7.58579 9.25 8V16.5C9.25 16.9142 9.58579 17.25 10 17.25C10.4142 17.25 10.75 16.9142 10.75 16.5V13.25H11.8114L13.8463 16.8677C14.0494 17.2287 14.5067 17.3568 14.8677 17.1537C15.2287 16.9506 15.3568 16.4933 15.1537 16.1323L13.4032 13.0203C14.4877 12.5684 15.25 11.4982 15.25 10.25C15.25 8.59315 13.9069 7.25 12.25 7.25H10ZM13.75 10.25C13.75 11.0747 13.0844 11.744 12.2611 11.75L10.75 11.75V8.75H12.25C13.0784 8.75 13.75 9.42157 13.75 10.25Z" fill="white"/>
<path fill-rule="evenodd" clip-rule="evenodd" d="M2 12C2 6.47715 6.47715 2 12 2C17.5228 2 22 6.47715 22 12C22 17.5228 17.5228 22 12 22C6.47715 22 2 17.5228 2 12ZM12 3.5C7.30558 3.5 3.5 7.30558 3.5 12C3.5 16.6944 7.30558 20.5 12 20.5C16.6944 20.5 20.5 16.6944 20.5 12C20.5 7.30558 16.6944 3.5 12 3.5Z" fill="white"/>
</svg>
