<svg width="24" height="24" viewBox="0 0 24 24" fill="none" xmlns="http://www.w3.org/2000/svg">
<path fill-rule="evenodd" clip-rule="evenodd" d="M8.69074 2.95552C8.5 3.32986 8.5 3.81991 8.5 4.8V8.5L4.8 8.5C3.81991 8.5 3.32986 8.5 2.95552 8.69074C2.62623 8.85852 2.35852 9.12623 2.19074 9.45552C2 9.82986 2 10.3199 2 11.3V12.7C2 13.6801 2 14.1701 2.19074 14.5445C2.35852 14.8738 2.62623 15.1415 2.95552 15.3093C3.32986 15.5 3.81991 15.5 4.8 15.5H8.5V19.2C8.5 20.1801 8.5 20.6701 8.69074 21.0445C8.85852 21.3738 9.12623 21.6415 9.45552 21.8093C9.82986 22 10.3199 22 11.3 22H12.7C13.6801 22 14.1701 22 14.5445 21.8093C14.8738 21.6415 15.1415 21.3738 15.3093 21.0445C15.5 20.6701 15.5 20.1801 15.5 19.2V15.5H19.2C20.1801 15.5 20.6701 15.5 21.0445 15.3093C21.3738 15.1415 21.6415 14.8738 21.8093 14.5445C22 14.1701 22 13.6801 22 12.7V11.3C22 10.3199 22 9.82986 21.8093 9.45552C21.6415 9.12623 21.3738 8.85852 21.0445 8.69074C20.6701 8.5 20.1801 8.5 19.2 8.5L15.5 8.5V4.8C15.5 3.81991 15.5 3.32986 15.3093 2.95552C15.1415 2.62623 14.8738 2.35852 14.5445 2.19074C14.1701 2 13.6801 2 12.7 2H11.3C10.3199 2 9.82986 2 9.45552 2.19074C9.12623 2.35852 8.85852 2.62623 8.69074 2.95552Z" fill="white"/>
</svg>
