<svg width="24" height="24" viewBox="0 0 24 24" fill="none" xmlns="http://www.w3.org/2000/svg">
<path d="M8.28769 3.29034C8.58059 2.99745 8.58059 2.52257 8.28769 2.22968C7.9948 1.93679 7.51993 1.93679 7.22703 2.22968C6.60024 2.85647 6.10303 3.60059 5.76381 4.41954C5.42459 5.23848 5.25 6.11623 5.25 7.00265C5.25 7.88907 5.42459 8.76682 5.76381 9.58576C6.10303 10.4047 6.60023 11.1488 7.22703 11.7756C7.51992 12.0685 7.9948 12.0685 8.28769 11.7756C8.58058 11.4827 8.58058 11.0079 8.28769 10.715C7.80018 10.2275 7.41347 9.6487 7.14963 9.01174C6.88579 8.37478 6.75 7.69209 6.75 7.00265C6.75 6.31321 6.8858 5.63052 7.14963 4.99356C7.41347 4.3566 7.80018 3.77785 8.28769 3.29034Z" fill="white" fill-opacity="0.96"/>
<path d="M15.7123 2.22968C16.0052 1.93679 16.4801 1.93679 16.773 2.22968C17.3998 2.85648 17.897 3.60059 18.2362 4.41954C18.5754 5.23849 18.75 6.11623 18.75 7.00265C18.75 7.88908 18.5754 8.76682 18.2362 9.58577C17.897 10.4047 17.3998 11.1488 16.773 11.7756C16.4801 12.0685 16.0052 12.0685 15.7123 11.7756C15.4194 11.4827 15.4194 11.0079 15.7123 10.715C16.1998 10.2275 16.5865 9.6487 16.8504 9.01174C17.1142 8.37478 17.25 7.69209 17.25 7.00265C17.25 6.31321 17.1142 5.63052 16.8504 4.99356C16.5865 4.35661 16.1998 3.77785 15.7123 3.29034C15.4194 2.99745 15.4194 2.52258 15.7123 2.22968Z" fill="white" fill-opacity="0.96"/>
<path fill-rule="evenodd" clip-rule="evenodd" d="M13.7159 10.3379C14.924 9.71518 15.75 8.4554 15.75 7.00269C15.75 4.93162 14.0711 3.25269 12 3.25269C9.92893 3.25269 8.25 4.93162 8.25 7.00269C8.25 8.45591 9.07662 9.71606 10.2853 10.3386L7.27792 21.0499C7.16595 21.4487 7.39847 21.8628 7.79726 21.9747C8.19606 22.0867 8.61011 21.8542 8.72208 21.4554L9.34074 19.252L13.5785 15.3995L15.278 21.4553C15.3899 21.8541 15.804 22.0867 16.2028 21.9748C16.6016 21.8629 16.8341 21.4488 16.7222 21.05L13.7159 10.3379ZM12.2717 10.743C12.1819 10.7494 12.0914 10.7527 12 10.7527C11.9091 10.7527 11.819 10.7495 11.7298 10.7431L10.105 16.53L13.1252 13.7844L12.2717 10.743Z" fill="white" fill-opacity="0.96"/>
</svg>
