<svg width="24" height="24" viewBox="0 0 24 24" fill="none" xmlns="http://www.w3.org/2000/svg">
<path fill-rule="evenodd" clip-rule="evenodd" d="M10.4686 1H13.5314C14.2048 0.999992 14.7555 0.999984 15.2031 1.03655C15.6663 1.0744 16.0847 1.15514 16.4755 1.35423C17.087 1.66582 17.5842 2.163 17.8958 2.77453C18.0949 3.16527 18.1756 3.58367 18.2134 4.04693C18.25 4.49449 18.25 5.04519 18.25 5.71856V18.2814C18.25 18.9548 18.25 19.5055 18.2134 19.9531C18.1756 20.4163 18.0949 20.8347 17.8958 21.2255C17.5842 21.837 17.087 22.3342 16.4755 22.6458C16.0847 22.8449 15.6663 22.9256 15.2031 22.9634C14.7555 23 14.2048 23 13.5314 23H10.4686C9.79519 23 9.24449 23 8.79693 22.9634C8.33367 22.9256 7.91527 22.8449 7.52453 22.6458C6.913 22.3342 6.41582 21.837 6.10423 21.2255C5.90514 20.8347 5.8244 20.4163 5.78655 19.9531C5.74998 19.5055 5.74999 18.9548 5.75 18.2814V5.71858C5.74999 5.0452 5.74998 4.4945 5.78655 4.04693C5.8244 3.58367 5.90514 3.16527 6.10423 2.77453C6.41582 2.163 6.913 1.66582 7.52453 1.35423C7.91527 1.15514 8.33367 1.0744 8.79693 1.03655C9.2445 0.999984 9.7952 0.999992 10.4686 1ZM8.91908 2.53157C8.54858 2.56184 8.34956 2.61735 8.20552 2.69074C7.87623 2.85852 7.60852 3.12623 7.44074 3.45552C7.36735 3.59956 7.31184 3.79858 7.28157 4.16908C7.25058 4.54833 7.25 5.03756 7.25 5.75V18.25C7.25 18.9624 7.25058 19.4517 7.28157 19.8309C7.31184 20.2014 7.36735 20.4004 7.44074 20.5445C7.60852 20.8738 7.87623 21.1415 8.20552 21.3093C8.34956 21.3827 8.54858 21.4382 8.91908 21.4684C9.29833 21.4994 9.78756 21.5 10.5 21.5H13.5C14.2124 21.5 14.7017 21.4994 15.0809 21.4684C15.4514 21.4382 15.6504 21.3827 15.7945 21.3093C16.1238 21.1415 16.3915 20.8738 16.5593 20.5445C16.6327 20.4004 16.6882 20.2014 16.7184 19.8309C16.7494 19.4517 16.75 18.9624 16.75 18.25V5.75C16.75 5.03756 16.7494 4.54833 16.7184 4.16908C16.6882 3.79858 16.6327 3.59956 16.5593 3.45552C16.3915 3.12623 16.1238 2.85852 15.7945 2.69074C15.6504 2.61735 15.4514 2.56184 15.0809 2.53157C14.7017 2.50058 14.2124 2.5 13.5 2.5H10.5C9.78756 2.5 9.29833 2.50058 8.91908 2.53157Z" fill="white"/>
<path fill-rule="evenodd" clip-rule="evenodd" d="M12 7.6875C10.8609 7.6875 9.9375 8.61091 9.9375 9.75C9.9375 10.8891 10.8609 11.8125 12 11.8125C13.1391 11.8125 14.0625 10.8891 14.0625 9.75C14.0625 8.61091 13.1391 7.6875 12 7.6875ZM8.5625 9.75C8.5625 7.85152 10.1015 6.3125 12 6.3125C13.8985 6.3125 15.4375 7.85152 15.4375 9.75C15.4375 11.6485 13.8985 13.1875 12 13.1875C10.1015 13.1875 8.5625 11.6485 8.5625 9.75Z" fill="white"/>
<path d="M10.5 4.5C10.5 5.05229 10.0523 5.5 9.5 5.5C8.94772 5.5 8.5 5.05229 8.5 4.5C8.5 3.94772 8.94772 3.5 9.5 3.5C10.0523 3.5 10.5 3.94772 10.5 4.5Z" fill="white"/>
<path d="M10.5 15C10.5 15.5523 10.0523 16 9.5 16C8.94772 16 8.5 15.5523 8.5 15C8.5 14.4477 8.94772 14 9.5 14C10.0523 14 10.5 14.4477 10.5 15Z" fill="white"/>
<path d="M15.5 4.5C15.5 5.05229 15.0523 5.5 14.5 5.5C13.9477 5.5 13.5 5.05229 13.5 4.5C13.5 3.94772 13.9477 3.5 14.5 3.5C15.0523 3.5 15.5 3.94772 15.5 4.5Z" fill="white"/>
<path d="M15.5 15C15.5 15.5523 15.0523 16 14.5 16C13.9477 16 13.5 15.5523 13.5 15C13.5 14.4477 13.9477 14 14.5 14C15.0523 14 15.5 14.4477 15.5 15Z" fill="white"/>
</svg>
