<svg width="24" height="24" viewBox="0 0 24 24" fill="none" xmlns="http://www.w3.org/2000/svg">
<path d="M12 1.99963C8.4103 1.99963 5.26364 3.89095 3.5 6.72952V4.80519C3.5 4.39098 3.16421 4.05519 2.75 4.05519C2.33579 4.05519 2 4.39098 2 4.80519V8.40241C2 8.81663 2.33579 9.15241 2.75 9.15241H3.45818C3.46954 9.15267 3.48088 9.15267 3.4922 9.15241H6.34722C6.76144 9.15241 7.09722 8.81663 7.09722 8.40241C7.09722 7.9882 6.76144 7.65241 6.34722 7.65241H4.69406C6.17764 5.16457 8.89506 3.49963 12 3.49963C16.6944 3.49963 20.5 7.30521 20.5 11.9996C20.5 16.6941 16.6944 20.4996 12 20.4996C8.4792 20.4996 5.45667 18.3588 4.16639 15.305C4.00518 14.9234 3.56518 14.7448 3.18362 14.906C2.80207 15.0672 2.62344 15.5072 2.78465 15.8888C4.30126 19.4783 7.85532 21.9996 12 21.9996C17.5228 21.9996 22 17.5225 22 11.9996C22 6.47679 17.5228 1.99963 12 1.99963Z" fill="white" fill-opacity="0.96"/>
<path d="M12 13.9996C13.1046 13.9996 14 13.1042 14 11.9996C14 10.8951 13.1046 9.99963 12 9.99963C10.8954 9.99963 10 10.8951 10 11.9996C10 13.1042 10.8954 13.9996 12 13.9996Z" fill="white" fill-opacity="0.96"/>
</svg>
