<svg width="24" height="24" viewBox="0 0 24 24" fill="none" xmlns="http://www.w3.org/2000/svg">
<path d="M4 3.75C4 3.33579 4.33579 3 4.75 3H19.25C19.6642 3 20 3.33579 20 3.75C20 4.16421 19.6642 4.5 19.25 4.5H4.75C4.33579 4.5 4 4.16421 4 3.75Z" fill="#F5F5F5"/>
<path fill-rule="evenodd" clip-rule="evenodd" d="M18.5 6H5.5C4.11929 6 3 7.11929 3 8.5V10.25C3 10.9314 3.27258 11.5491 3.71464 12C3.27258 12.4509 3 13.0686 3 13.75V15.5C3 16.8807 4.11929 18 5.5 18H18.5C19.8807 18 21 16.8807 21 15.5V13.75C21 13.0686 20.7274 12.4509 20.2854 12C20.7274 11.5491 21 10.9314 21 10.25V8.5C21 7.11929 19.8807 6 18.5 6ZM5.5 11.25H18.5C19.0523 11.25 19.5 10.8023 19.5 10.25V8.5C19.5 7.94772 19.0523 7.5 18.5 7.5H5.5C4.94772 7.5 4.5 7.94772 4.5 8.5V10.25C4.5 10.8023 4.94772 11.25 5.5 11.25ZM5.5 12.75C4.94772 12.75 4.5 13.1977 4.5 13.75V15.5C4.5 16.0523 4.94772 16.5 5.5 16.5H18.5C19.0523 16.5 19.5 16.0523 19.5 15.5V13.75C19.5 13.1977 19.0523 12.75 18.5 12.75H5.5Z" fill="#F5F5F5"/>
<path d="M4.75 19.5C4.33579 19.5 4 19.8358 4 20.25C4 20.6642 4.33579 21 4.75 21H19.25C19.6642 21 20 20.6642 20 20.25C20 19.8358 19.6642 19.5 19.25 19.5H4.75Z" fill="#F5F5F5"/>
</svg>
