<svg width="24" height="24" viewBox="0 0 24 24" fill="none" xmlns="http://www.w3.org/2000/svg">
<path fill-rule="evenodd" clip-rule="evenodd" d="M12 22C17.5228 22 22 17.5228 22 12C22 6.47715 17.5228 2 12 2C6.47715 2 2 6.47715 2 12C2 17.5228 6.47715 22 12 22ZM9.25 7C8.83579 7 8.5 7.33579 8.5 7.75C8.5 8.16421 8.83579 8.5 9.25 8.5H11.25C11.8274 8.5 12.2508 8.753 12.5458 9.10597C12.6501 9.2307 12.7354 9.36488 12.8029 9.5H9.75C9.33579 9.5 9 9.83579 9 10.25C9 10.6642 9.33579 11 9.75 11H12.8029C12.7354 11.1351 12.6501 11.2693 12.5458 11.394C12.2508 11.747 11.8274 12 11.25 12H9.25C9.14831 12 9.05134 12.0202 8.96291 12.0569C8.87445 12.0935 8.79158 12.1478 8.71967 12.2197C8.64776 12.2916 8.59351 12.3745 8.55691 12.4629C8.52024 12.5513 8.5 12.6483 8.5 12.75C8.5 12.8517 8.52024 12.9487 8.55691 13.0371C8.59351 13.1255 8.64776 13.2084 8.71967 13.2803L12.7197 17.2803C13.0126 17.5732 13.4874 17.5732 13.7803 17.2803C14.0732 16.9874 14.0732 16.5126 13.7803 16.2197L11.0607 13.5H11.25C12.3295 13.5 13.156 13.003 13.6968 12.356C14.0371 11.9488 14.2739 11.4719 14.3983 11H15.25C15.6642 11 16 10.6642 16 10.25C16 9.83579 15.6642 9.5 15.25 9.5H14.3983C14.3087 9.15993 14.1606 8.81727 13.9576 8.5H15.25C15.6642 8.5 16 8.16421 16 7.75C16 7.33579 15.6642 7 15.25 7H9.25Z" fill="white"/>
</svg>
