<svg width="24" height="24" viewBox="0 0 24 24" fill="none" xmlns="http://www.w3.org/2000/svg">
<path fill-rule="evenodd" clip-rule="evenodd" d="M12.9404 8.46094C13.5651 8.46096 14.0724 8.52862 14.4785 8.64844C14.8847 8.78571 15.2235 8.99032 15.5273 9.28125C15.8149 9.58849 16.0172 9.93096 16.1357 10.3242C16.2543 10.7176 16.3223 11.2313 16.3223 11.8809V12.7363C16.3223 13.8316 16.1364 14.6527 15.7646 15.166C15.3929 15.6793 14.9413 15.991 13.9375 16.1416L16.6611 19.8711H13.498L11.0283 16.1582H5.82422V19.8711H3V8.46094H12.9404ZM5.82422 10.9756V13.6445H12.4834C12.8723 13.6445 13.1426 13.5935 13.2783 13.4736C13.4139 13.3538 13.498 13.1319 13.498 12.79V11.832C13.498 11.5074 13.414 11.285 13.2783 11.165C13.1426 11.0452 12.8723 10.9756 12.4834 10.9756H5.82422Z" fill="white"/>
<path d="M18.8301 4.12012C20.0283 4.12012 21 5.09176 21 6.29004C20.9999 7.4882 20.0283 8.45996 18.8301 8.45996C17.632 8.45986 16.6613 7.48814 16.6611 6.29004C16.6611 5.09182 17.6319 4.12022 18.8301 4.12012Z" fill="white"/>
</svg>
