<svg width="24" height="24" viewBox="0 0 24 24" fill="none" xmlns="http://www.w3.org/2000/svg">
<path d="M14.1777 9.41504C14.4968 9.41508 14.7187 9.47025 14.8301 9.56738C14.9415 9.66457 15.0107 9.84515 15.0107 10.1084V10.8848C15.0107 11.1621 14.9414 11.3423 14.8301 11.4395C14.7187 11.5366 14.4968 11.5771 14.1777 11.5771H8.71191V9.41504H14.1777Z" fill="white"/>
<path fill-rule="evenodd" clip-rule="evenodd" d="M16.7881 2.75C19.2523 2.75011 21.2499 4.74772 21.25 7.21191V16.7881C21.2499 19.2523 19.2523 21.2499 16.7881 21.25H7.21191C4.74772 21.2499 2.75011 19.2523 2.75 16.7881V7.21191C2.75011 4.74772 4.74772 2.75011 7.21191 2.75H16.7881ZM6.39453 16.625H8.71191V13.6162H12.9834L15.0107 16.625H17.6064L15.3711 13.6016C16.1948 13.4795 16.565 13.2274 16.8701 12.8115C17.1752 12.3954 17.3281 11.7297 17.3281 10.8418V10.1484C17.3281 9.62186 17.273 9.20565 17.1758 8.88672C17.0785 8.56778 16.9119 8.29019 16.6758 8.04102C16.4264 7.80526 16.1487 7.63959 15.8154 7.52832C15.4821 7.43117 15.0656 7.376 14.5527 7.37598H6.39453V16.625ZM12.1211 4.25C12.2432 4.99891 12.4556 5.71749 12.7461 6.39453L13.5713 6.39355H14.5527C15.1327 6.39357 15.6456 6.45645 16.0898 6.58594C16.5565 6.74173 16.9948 6.99261 17.3496 7.32812C17.6828 7.6796 17.9695 8.1262 18.1143 8.60059C18.2483 9.04044 18.3096 9.55968 18.3096 10.1484V10.8418C18.3096 11.0684 18.3011 11.293 18.2812 11.5127C18.7549 11.6731 19.2455 11.7966 19.75 11.8789V7.21191C19.7499 5.57611 18.4239 4.25006 16.7881 4.25H12.1211Z" fill="white"/>
</svg>
