<svg width="24" height="24" viewBox="0 0 24 24" fill="none" xmlns="http://www.w3.org/2000/svg">
<path d="M12 0.799988C5.93737 0.799988 1 5.73736 1 11.8C1 17.8626 5.93737 22.8 12 22.8C18.0626 22.8 23 17.8626 23 11.8C23 5.73736 18.0626 0.799988 12 0.799988ZM15.0198 3.09644C15.0772 3.09644 15.1461 3.09644 15.2035 3.09644C15.3758 3.09644 15.5595 3.14237 15.7202 3.22274C16.501 3.61314 17.1555 4.00354 17.6837 4.38245C17.0752 4.37097 16.3058 4.43986 15.9614 4.56617C15.2495 4.81878 14.7557 5.28955 14.6065 5.8407C14.4802 6.28851 14.595 6.7478 14.9165 7.14967C15.6858 8.09122 17.9937 8.40124 19.2223 7.96491C19.6357 7.81564 19.9802 7.59748 20.2213 7.32191C20.6347 8.07974 20.9447 8.89498 21.1284 9.74466C20.738 10.4221 20.072 10.9618 19.2109 11.2948C16.6273 12.2937 12.7808 11.3063 11.1388 9.21648C10.4154 8.26345 10.1628 7.14967 10.4499 6.08182C10.7714 4.91063 11.69 3.95761 12.9645 3.46387C13.596 3.22274 14.285 3.09644 15.0198 3.09644ZM12.31 21.1695C12.2182 21.1695 12.1263 21.1695 12 21.1695H11.8967C11.0585 21.158 10.2203 21.0432 9.42797 20.8136L9.31315 20.7791C9.27871 20.7676 9.24426 20.7561 9.20981 20.7447C9.17537 20.7332 9.14092 20.7217 9.09499 20.7102L8.98017 20.6758C8.9572 20.6643 8.93424 20.6643 8.87683 20.6413L8.72756 20.5839C8.67015 20.5609 8.62422 20.5495 8.56681 20.5265L8.46347 20.4806C5.56994 19.2979 3.50313 16.7833 2.84864 13.7979C2.80271 13.5683 2.80271 13.2008 2.89457 13.4305C3.87056 15.6925 6.32777 18.0349 9.87578 18.896C10.9896 19.1716 12.1952 19.2635 13.2516 19.3438C14.6983 19.4587 15.7202 19.5046 15.7662 20.4002C14.6868 20.871 13.5157 21.1351 12.31 21.1695ZM19.0271 18.0004C19.1649 15.4858 15.9269 16.2092 15.1691 16.301C5.67328 17.5296 3.88205 13.3501 3.60647 10.8584C3.39979 8.94091 4.05428 6.58704 5.45511 5.10583C5.87996 4.64654 6.54593 4.14132 7.41858 3.60166C8.81942 2.83235 10.3925 2.41899 12.023 2.41899C12.0804 2.41899 12.0804 2.44195 12.0344 2.45343C5.74217 4.4169 6.12109 8.98684 6.97077 10.6747C9.63465 15.9451 19.3027 12.3052 21.0251 14.0275C21.071 14.0735 21.0825 14.1538 21.0595 14.2227C20.6806 15.6236 19.9916 16.9096 19.0271 18.0004Z" fill="white" fill-opacity="0.96"/>
</svg>
