<svg width="24" height="24" viewBox="0 0 24 24" fill="none" xmlns="http://www.w3.org/2000/svg">
<path fill-rule="evenodd" clip-rule="evenodd" d="M17.5 12C20.5376 12 23 14.4624 23 17.5C23 20.5376 20.5376 23 17.5 23C14.4624 23 12 20.5376 12 17.5C12 14.4624 14.4624 12 17.5 12ZM16.4883 13.9961C16.0883 13.8889 15.6766 14.1264 15.5693 14.5264C15.4624 14.9262 15.6999 15.337 16.0996 15.4443C17.0033 15.6865 17.8025 16.2207 18.3721 16.9629C18.9414 17.705 19.25 18.6145 19.25 19.5498C19.25 19.964 19.5858 20.2998 20 20.2998C20.4142 20.2998 20.75 19.964 20.75 19.5498C20.75 18.2842 20.332 17.0539 19.5615 16.0498C18.791 15.0457 17.7108 14.3237 16.4883 13.9961ZM15.7119 16.8438C15.3118 16.7365 14.9002 16.9739 14.793 17.374C14.6858 17.7741 14.9233 18.1857 15.3232 18.293C15.589 18.3642 15.8237 18.521 15.9912 18.7393C16.1587 18.9576 16.25 19.2248 16.25 19.5C16.25 19.9142 16.5858 20.25 17 20.25C17.4142 20.25 17.75 19.9142 17.75 19.5C17.75 18.8947 17.5501 18.3064 17.1816 17.8262C16.8131 17.3459 16.2966 17.0005 15.7119 16.8438Z" fill="white"/>
<path d="M21.25 5C21.6642 5 22 5.33579 22 5.75C22 6.01447 21.8621 6.24537 21.6553 6.37891C21.8723 6.69878 22 7.0843 22 7.5V10.7334C22 11.485 21.9605 12.1387 21.8936 12.7109C21.6041 12.4452 21.2901 12.2063 20.9561 11.9961C20.9829 11.6154 21 11.1962 21 10.7334V7.5C21 6.94772 20.5523 6.5 20 6.5H4C3.44771 6.5 3 6.94772 3 7.5V10.7334C3.00001 13.8579 3.66878 15.0022 4.24316 15.6289C4.39583 15.7955 4.55086 15.9347 4.71094 16.0762C4.86438 16.2118 5.03785 16.3621 5.18848 16.5264C5.52051 16.8886 5.75 17.3271 5.75 18H6.75C6.75 17.5536 6.69094 17.2866 6.61621 17.0967C6.53932 16.9014 6.43605 16.7569 6.27734 16.5361C6.11999 16.3172 5.92842 16.0481 5.75586 15.6533C5.58405 15.2602 5.43801 14.7608 5.33887 14.0713C5.29957 13.798 5.4894 13.5442 5.7627 13.5049C6.036 13.4656 6.28976 13.6554 6.3291 13.9287C6.41814 14.548 6.5429 14.9578 6.67188 15.2529C6.80007 15.5462 6.93929 15.745 7.08887 15.9531C7.23698 16.1592 7.41712 16.4009 7.54688 16.7305C7.67885 17.0658 7.75 17.4636 7.75 18H9C9 17.503 8.96484 17.2694 8.92773 17.1377C8.89115 17.0079 8.85892 16.9763 8.75391 16.7783C8.53848 16.3722 8.35282 15.7938 8.26953 14.0234C8.25658 13.7476 8.46929 13.514 8.74512 13.501C9.02093 13.488 9.2546 13.7007 9.26758 13.9766C9.34901 15.7075 9.52856 16.1038 9.6377 16.3096C9.69494 16.4175 9.81483 16.601 9.88965 16.8662C9.96395 17.1298 10 17.4715 10 18H11.0215C11.0751 18.704 11.239 19.3765 11.499 20H6C5.30964 20 4.75 19.4404 4.75 18.75V18C4.75 17.6062 4.63571 17.4024 4.45215 17.2021C4.34505 17.0853 4.21753 16.9743 4.04883 16.8252C3.88675 16.6819 3.6978 16.513 3.50684 16.3047C2.70626 15.4313 2.00001 14.0086 2 10.7334V7.5C2 7.08449 2.12687 6.69869 2.34375 6.37891C2.13734 6.2453 2 6.01418 2 5.75C2 5.33579 2.33579 5 2.75 5H21.25Z" fill="white"/>
<path d="M12 13.5C12.1124 13.5 12.2153 13.538 12.2988 13.6006C11.9779 14.0279 11.7088 14.4963 11.5 14.9961V14C11.5 13.7239 11.7239 13.5 12 13.5Z" fill="white"/>
</svg>
