<svg width="24" height="24" viewBox="0 0 24 24" fill="none" xmlns="http://www.w3.org/2000/svg">
<path fill-rule="evenodd" clip-rule="evenodd" d="M17.5 12C20.5376 12 23 14.4624 23 17.5C23 20.5376 20.5376 23 17.5 23C14.4624 23 12 20.5376 12 17.5C12 14.4624 14.4624 12 17.5 12ZM16.4883 13.9961C16.0883 13.8889 15.6766 14.1264 15.5693 14.5264C15.4624 14.9262 15.6999 15.337 16.0996 15.4443C17.0033 15.6865 17.8025 16.2207 18.3721 16.9629C18.9414 17.705 19.25 18.6145 19.25 19.5498C19.25 19.964 19.5858 20.2998 20 20.2998C20.4142 20.2998 20.75 19.964 20.75 19.5498C20.75 18.2841 20.332 17.0539 19.5615 16.0498C18.791 15.0457 17.7108 14.3237 16.4883 13.9961ZM15.7119 16.8438C15.3118 16.7365 14.9002 16.9739 14.793 17.374C14.6858 17.7741 14.9233 18.1857 15.3232 18.293C15.589 18.3642 15.8237 18.521 15.9912 18.7393C16.1587 18.9576 16.25 19.2248 16.25 19.5C16.25 19.9142 16.5858 20.25 17 20.25C17.4142 20.25 17.75 19.9142 17.75 19.5C17.75 18.8947 17.5501 18.3064 17.1816 17.8262C16.8131 17.3459 16.2966 17.0005 15.7119 16.8438Z" fill="white"/>
<path fill-rule="evenodd" clip-rule="evenodd" d="M16.75 1.5C17.0974 1.5 17.3864 1.73705 17.4717 2.05762C17.7662 2.20645 18.0791 2.42675 18.3809 2.75488C19.2801 3.73278 20 5.57135 20 9V11.498C19.679 11.3642 19.3446 11.2572 19 11.1758V9C19 5.67874 18.297 4.14225 17.6445 3.43262C17.432 3.20149 17.2157 3.04989 17.0146 2.94922C16.9321 2.98048 16.8435 3 16.75 3H16.4258C17.1041 4.01389 17.6729 5.80835 17.6729 9V11.0039C17.6154 11.0024 17.5578 11 17.5 11C17.2197 11 16.9438 11.0193 16.6729 11.0537V9C16.6729 5.67479 16.033 4.1159 15.4824 3.39746C15.3467 3.22036 15.215 3.0925 15.0967 3H14.5615C14.8363 3.93038 15.0859 5.67537 15.0859 9V11.4648C14.7367 11.6047 14.4022 11.7731 14.0859 11.9688V9C14.0859 5.63812 13.8271 4.01102 13.5908 3.24023C13.5618 3.14564 13.5339 3.0663 13.5078 3H12.5V13.3467C12.0897 13.8401 11.751 14.3952 11.5 14.9961V3H10.4922C10.4661 3.0663 10.4382 3.14564 10.4092 3.24023C10.1729 4.01102 9.91406 5.6381 9.91406 9V13C9.91406 15.9856 10.0421 17.3357 10.167 18.2109C10.261 18.87 10.3638 19.3147 10.4082 20H11.499C11.9065 20.9771 12.5455 21.8331 13.3477 22.5H7.5C6.80964 22.5 6.25 21.9404 6.25 21.25V20.75C6.25 20.3624 6.14669 20.0908 5.96973 19.7959C5.87535 19.6386 5.7635 19.4809 5.62793 19.2871C5.49561 19.0979 5.3465 18.8822 5.19629 18.6318C4.57796 17.6012 4 16.0705 4 13V9C4 5.57135 4.71993 3.73278 5.61914 2.75488C5.92067 2.42704 6.23307 2.20644 6.52734 2.05762C6.61249 1.73693 6.90251 1.5 7.25 1.5H16.75ZM6.98438 2.94922C6.78359 3.0499 6.56772 3.20179 6.35547 3.43262C5.70297 4.14225 5 5.67874 5 9V13C5 15.9293 5.5471 17.2738 6.05371 18.1182C6.18456 18.3362 6.31703 18.5273 6.44824 18.7148C6.57615 18.8977 6.71073 19.0882 6.82715 19.2822C6.95972 19.5032 7.07172 19.736 7.14746 20H7.55273C7.45292 19.5001 7.25092 19.1444 7.00293 18.4492C6.65485 17.4734 6.32715 16.0377 6.32715 13V9C6.32715 5.80835 6.89586 4.01389 7.57422 3H7.25C7.15617 3 7.06716 2.98069 6.98438 2.94922ZM8.90332 3C8.78501 3.0925 8.65332 3.22036 8.51758 3.39746C7.96705 4.1159 7.32715 5.67479 7.32715 9V13C7.32715 15.9622 7.64686 17.2766 7.94531 18.1133C8.17233 18.7497 8.45117 19.2378 8.56641 20H9.40527C9.36384 19.4242 9.27553 19.0369 9.17773 18.3516C9.04401 17.4143 8.91406 16.0141 8.91406 13V9C8.91406 5.67536 9.16368 3.93038 9.43848 3H8.90332Z" fill="white"/>
</svg>
