<svg width="24" height="24" viewBox="0 0 24 24" fill="none" xmlns="http://www.w3.org/2000/svg">
<path fill-rule="evenodd" clip-rule="evenodd" d="M17.5 12C20.5376 12 23 14.4624 23 17.5C23 20.5376 20.5376 23 17.5 23C14.4624 23 12 20.5376 12 17.5C12 14.4624 14.4624 12 17.5 12ZM17.9609 14.626C17.8026 14.076 17.2355 13.8322 16.7949 14.125C16.6853 14.1979 16.5357 14.3898 16.2363 14.7725L15.6895 15.4707C15.4629 15.7604 15.1376 15.9268 14.7959 15.9268C14.3563 15.9268 14 16.3303 14 16.8281V18.1719C14 18.6697 14.3563 19.0732 14.7959 19.0732C15.1376 19.0732 15.4629 19.2396 15.6895 19.5293L16.2363 20.2275C16.5357 20.6102 16.6853 20.8021 16.7949 20.875C17.2355 21.1678 17.8026 20.924 17.9609 20.374C18.0002 20.2371 18 19.9814 18 19.4707V15.5293C18 15.0186 18.0002 14.7629 17.9609 14.626ZM20.3506 15.0762C20.1167 14.8827 19.7699 14.9156 19.5762 15.1494C19.3827 15.3833 19.4156 15.7301 19.6494 15.9238C19.9118 16.1413 20.1131 16.3942 20.248 16.6641C20.3826 16.9333 20.4502 17.2169 20.4502 17.5L20.4375 17.7119C20.4123 17.9239 20.349 18.1339 20.248 18.3359C20.1131 18.6058 19.9118 18.8587 19.6494 19.0762C19.4156 19.2699 19.3827 19.6167 19.5762 19.8506C19.7699 20.0844 20.1167 20.1173 20.3506 19.9238C20.7221 19.616 21.0242 19.2445 21.2324 18.8281C21.4408 18.4113 21.5498 17.9596 21.5498 17.5C21.5498 17.0404 21.4408 16.5887 21.2324 16.1719C21.0242 15.7555 20.7221 15.384 20.3506 15.0762Z" fill="white"/>
<path d="M21.25 5C21.6642 5 22 5.33579 22 5.75C22 6.01447 21.8621 6.24537 21.6553 6.37891C21.8723 6.69878 22 7.0843 22 7.5V10.7334C22 11.485 21.9605 12.1387 21.8936 12.7109C21.6041 12.4452 21.2901 12.2063 20.9561 11.9961C20.9829 11.6154 21 11.1962 21 10.7334V7.5C21 6.94772 20.5523 6.5 20 6.5H4C3.44771 6.5 3 6.94772 3 7.5V10.7334C3.00001 13.8579 3.66878 15.0022 4.24316 15.6289C4.39583 15.7955 4.55086 15.9347 4.71094 16.0762C4.86438 16.2118 5.03785 16.3621 5.18848 16.5264C5.52051 16.8886 5.75 17.3271 5.75 18H6.75C6.75 17.5536 6.69094 17.2866 6.61621 17.0967C6.53932 16.9014 6.43605 16.7569 6.27734 16.5361C6.11999 16.3172 5.92842 16.0481 5.75586 15.6533C5.58405 15.2602 5.43801 14.7608 5.33887 14.0713C5.29957 13.798 5.4894 13.5442 5.7627 13.5049C6.036 13.4656 6.28976 13.6554 6.3291 13.9287C6.41814 14.548 6.5429 14.9578 6.67188 15.2529C6.80007 15.5462 6.93929 15.745 7.08887 15.9531C7.23698 16.1592 7.41712 16.4009 7.54688 16.7305C7.67885 17.0658 7.75 17.4636 7.75 18H9C9 17.503 8.96484 17.2694 8.92773 17.1377C8.89115 17.0079 8.85892 16.9763 8.75391 16.7783C8.53848 16.3722 8.35282 15.7938 8.26953 14.0234C8.25658 13.7476 8.46929 13.514 8.74512 13.501C9.02093 13.488 9.2546 13.7007 9.26758 13.9766C9.34901 15.7075 9.52856 16.1038 9.6377 16.3096C9.69494 16.4175 9.81483 16.601 9.88965 16.8662C9.96395 17.1298 10 17.4715 10 18H11.0215C11.0751 18.704 11.239 19.3765 11.499 20H6C5.30964 20 4.75 19.4404 4.75 18.75V18C4.75 17.6062 4.63571 17.4024 4.45215 17.2021C4.34505 17.0853 4.21753 16.9743 4.04883 16.8252C3.88675 16.6819 3.6978 16.513 3.50684 16.3047C2.70626 15.4313 2.00001 14.0086 2 10.7334V7.5C2 7.08449 2.12687 6.69869 2.34375 6.37891C2.13734 6.2453 2 6.01418 2 5.75C2 5.33579 2.33579 5 2.75 5H21.25Z" fill="white"/>
<path d="M12 13.5C12.1124 13.5 12.2153 13.538 12.2988 13.6006C11.9779 14.0279 11.7088 14.4963 11.5 14.9961V14C11.5 13.7239 11.7239 13.5 12 13.5Z" fill="white"/>
</svg>
