<svg width="24" height="24" viewBox="0 0 24 24" fill="none" xmlns="http://www.w3.org/2000/svg">
<path fill-rule="evenodd" clip-rule="evenodd" d="M17.5 12C20.5376 12 23 14.4624 23 17.5C23 20.5376 20.5376 23 17.5 23C14.4624 23 12 20.5376 12 17.5C12 14.4624 14.4624 12 17.5 12ZM17.9609 14.626C17.8026 14.076 17.2355 13.8322 16.7949 14.125C16.6853 14.1979 16.5357 14.3898 16.2363 14.7725L15.6895 15.4707C15.4629 15.7604 15.1376 15.9268 14.7959 15.9268C14.3563 15.9268 14 16.3303 14 16.8281V18.1719C14 18.6697 14.3563 19.0732 14.7959 19.0732C15.1376 19.0732 15.4629 19.2396 15.6895 19.5293L16.2363 20.2275C16.5357 20.6102 16.6853 20.8021 16.7949 20.875C17.2355 21.1678 17.8026 20.924 17.9609 20.374C18.0002 20.2371 18 19.9814 18 19.4707V15.5293C18 15.0186 18.0002 14.7629 17.9609 14.626ZM20.3506 15.0762C20.1167 14.8827 19.7699 14.9156 19.5762 15.1494C19.3827 15.3833 19.4156 15.7301 19.6494 15.9238C19.9118 16.1413 20.1131 16.3942 20.248 16.6641C20.3826 16.9333 20.4502 17.2169 20.4502 17.5L20.4375 17.7119C20.4123 17.9239 20.349 18.1339 20.248 18.3359C20.1131 18.6058 19.9118 18.8587 19.6494 19.0762C19.4156 19.2699 19.3827 19.6167 19.5762 19.8506C19.7699 20.0844 20.1167 20.1173 20.3506 19.9238C20.7221 19.616 21.0242 19.2445 21.2324 18.8281C21.4408 18.4113 21.5498 17.9596 21.5498 17.5C21.5498 17.0404 21.4408 16.5887 21.2324 16.1719C21.0242 15.7555 20.7221 15.384 20.3506 15.0762Z" fill="white"/>
<path fill-rule="evenodd" clip-rule="evenodd" d="M16.75 1.5C17.0974 1.5 17.3864 1.73705 17.4717 2.05762C17.7662 2.20645 18.0791 2.42675 18.3809 2.75488C19.2801 3.73278 20 5.57135 20 9V11.498C19.679 11.3642 19.3446 11.2572 19 11.1758V9C19 5.67874 18.297 4.14225 17.6445 3.43262C17.432 3.20149 17.2157 3.04989 17.0146 2.94922C16.9321 2.98048 16.8435 3 16.75 3H16.4258C17.1041 4.01389 17.6729 5.80835 17.6729 9V11.0039C17.6154 11.0024 17.5578 11 17.5 11C17.2197 11 16.9438 11.0193 16.6729 11.0537V9C16.6729 5.67479 16.033 4.1159 15.4824 3.39746C15.3467 3.22036 15.215 3.0925 15.0967 3H14.5615C14.8363 3.93038 15.0859 5.67537 15.0859 9V11.4648C14.7367 11.6047 14.4022 11.7731 14.0859 11.9688V9C14.0859 5.63812 13.8271 4.01102 13.5908 3.24023C13.5618 3.14564 13.5339 3.0663 13.5078 3H12.5V13.3467C12.0897 13.8401 11.751 14.3952 11.5 14.9961V3H10.4922C10.4661 3.0663 10.4382 3.14564 10.4092 3.24023C10.1729 4.01102 9.91406 5.6381 9.91406 9V13C9.91406 15.9856 10.0421 17.3357 10.167 18.2109C10.261 18.87 10.3638 19.3147 10.4082 20H11.499C11.9065 20.9771 12.5455 21.8331 13.3477 22.5H7.5C6.80964 22.5 6.25 21.9404 6.25 21.25V20.75C6.25 20.3624 6.14669 20.0908 5.96973 19.7959C5.87535 19.6386 5.7635 19.4809 5.62793 19.2871C5.49561 19.0979 5.3465 18.8822 5.19629 18.6318C4.57796 17.6012 4 16.0705 4 13V9C4 5.57135 4.71993 3.73278 5.61914 2.75488C5.92067 2.42704 6.23307 2.20644 6.52734 2.05762C6.61249 1.73693 6.90251 1.5 7.25 1.5H16.75ZM6.98438 2.94922C6.78359 3.0499 6.56772 3.20179 6.35547 3.43262C5.70297 4.14225 5 5.67874 5 9V13C5 15.9293 5.5471 17.2738 6.05371 18.1182C6.18456 18.3362 6.31703 18.5273 6.44824 18.7148C6.57615 18.8977 6.71073 19.0882 6.82715 19.2822C6.95972 19.5032 7.07172 19.736 7.14746 20H7.55273C7.45292 19.5001 7.25092 19.1444 7.00293 18.4492C6.65485 17.4734 6.32715 16.0377 6.32715 13V9C6.32715 5.80835 6.89586 4.01389 7.57422 3H7.25C7.15617 3 7.06716 2.98069 6.98438 2.94922ZM8.90332 3C8.78501 3.0925 8.65332 3.22036 8.51758 3.39746C7.96705 4.1159 7.32715 5.67479 7.32715 9V13C7.32715 15.9622 7.64686 17.2766 7.94531 18.1133C8.17233 18.7497 8.45117 19.2378 8.56641 20H9.40527C9.36384 19.4242 9.27553 19.0369 9.17773 18.3516C9.04401 17.4143 8.91406 16.0141 8.91406 13V9C8.91406 5.67536 9.16368 3.93038 9.43848 3H8.90332Z" fill="white"/>
</svg>
