<svg width="24" height="24" viewBox="0 0 24 24" fill="none" xmlns="http://www.w3.org/2000/svg">
<path fill-rule="evenodd" clip-rule="evenodd" d="M17.5 12C20.5376 12 23 14.4624 23 17.5C23 20.5376 20.5376 23 17.5 23C14.4624 23 12 20.5376 12 17.5C12 14.4624 14.4624 12 17.5 12ZM17.9609 14.626C17.8026 14.076 17.2355 13.8322 16.7949 14.125C16.6853 14.1979 16.5357 14.3898 16.2363 14.7725L15.6895 15.4707C15.4629 15.7604 15.1376 15.9268 14.7959 15.9268C14.3563 15.9268 14 16.3303 14 16.8281V18.1719C14 18.6697 14.3563 19.0732 14.7959 19.0732C15.1376 19.0732 15.4629 19.2396 15.6895 19.5293L16.2363 20.2275C16.5357 20.6102 16.6853 20.8021 16.7949 20.875C17.2355 21.1678 17.8026 20.924 17.9609 20.374C18.0002 20.2371 18 19.9814 18 19.4707V15.5293C18 15.0186 18.0002 14.7629 17.9609 14.626ZM20.3506 15.0762C20.1167 14.8827 19.7699 14.9156 19.5762 15.1494C19.3827 15.3833 19.4156 15.7301 19.6494 15.9238C19.9118 16.1413 20.1131 16.3942 20.248 16.6641C20.3826 16.9333 20.4502 17.2169 20.4502 17.5L20.4375 17.7119C20.4123 17.9239 20.349 18.1339 20.248 18.3359C20.1131 18.6058 19.9118 18.8587 19.6494 19.0762C19.4156 19.2699 19.3827 19.6167 19.5762 19.8506C19.7699 20.0844 20.1167 20.1173 20.3506 19.9238C20.7221 19.616 21.0242 19.2445 21.2324 18.8281C21.4408 18.4113 21.5498 17.9596 21.5498 17.5C21.5498 17.0404 21.4408 16.5887 21.2324 16.1719C21.0242 15.7555 20.7221 15.384 20.3506 15.0762Z" fill="white"/>
<path fill-rule="evenodd" clip-rule="evenodd" d="M21.25 5C21.6642 5 22 5.33579 22 5.75C22 6.05422 21.8179 6.31399 21.5576 6.43164C21.8346 6.66003 22 6.99893 22 7.5V10.7334C22 11.4808 21.9608 12.1353 21.8945 12.7119C20.7374 11.6494 19.1948 11 17.5 11C15.3731 11 13.4847 12.0214 12.2988 13.6006C12.2153 13.538 12.1124 13.5 12 13.5C11.7239 13.5001 11.5 13.7239 11.5 14V14.9961C11.178 15.7668 11 16.6126 11 17.5C11 18.386 11.178 19.2303 11.499 20H6C5.30964 20 4.75 19.4404 4.75 18.75V18C4.75 17.676 4.66405 17.5309 4.51758 17.3711C4.42577 17.271 4.31599 17.1744 4.15625 17.0332L4.13281 17.0127C3.97021 16.8689 3.7728 16.6924 3.57227 16.4736C2.71515 15.5386 2.00001 14.0462 2 10.7334V7.5C2 6.99928 2.1648 6.66003 2.44141 6.43164C2.18155 6.31381 2 6.0539 2 5.75C2 5.33579 2.33579 5 2.75 5H21.25ZM5.43066 13.5049C5.1572 13.5432 4.9666 13.7959 5.00488 14.0693C5.10183 14.7618 5.25277 15.2646 5.43457 15.6611C5.61706 16.0591 5.82195 16.3302 5.99121 16.5498C6.16306 16.7728 6.27471 16.9164 6.35742 17.1104C6.43675 17.2965 6.5 17.5586 6.5 18C6.5 18.2761 6.72386 18.5 7 18.5C7.27614 18.5 7.5 18.2761 7.5 18C7.5 17.459 7.42191 17.0568 7.27734 16.7178C7.13607 16.3865 6.94055 16.1436 6.7832 15.9395C6.62329 15.732 6.47684 15.5344 6.34375 15.2441C6.21001 14.9524 6.08137 14.5468 5.99512 13.9307C5.95682 13.6572 5.70413 13.4666 5.43066 13.5049ZM8.83105 13.501C8.55534 13.5136 8.34208 13.7468 8.35449 14.0225C8.43555 15.7919 8.61718 16.3688 8.82617 16.7734C8.92793 16.9704 8.95919 17.0039 8.99512 17.1348C9.03162 17.268 9.06543 17.5029 9.06543 18C9.06543 18.276 9.28951 18.4997 9.56543 18.5C9.84157 18.5 10.0654 18.2761 10.0654 18C10.0654 17.4722 10.0309 17.1322 9.95898 16.8701C9.88645 16.6059 9.76996 16.4231 9.71387 16.3145C9.60685 16.1072 9.43285 15.7089 9.35352 13.9775C9.34088 13.7018 9.10681 13.4885 8.83105 13.501Z" fill="white"/>
</svg>
