<svg width="24" height="24" viewBox="0 0 24 24" fill="none" xmlns="http://www.w3.org/2000/svg">
<path fill-rule="evenodd" clip-rule="evenodd" d="M6.45508 7.46582C8.39916 5.19583 10.9472 4.65454 13.1113 4.94922C14.1883 5.09592 15.1823 5.44962 15.9795 5.9082C16.7617 6.35817 17.418 6.94595 17.7334 7.60059C18.3206 8.81966 18.0633 10.0735 17.3096 10.8525C16.5448 11.6429 15.3149 11.8883 14.1689 11.1748C13.0722 10.4918 12.0696 10.3821 11.248 10.5928C10.4624 10.7942 9.78939 11.305 9.32227 12C9.78939 12.695 10.4624 13.2058 11.248 13.4072C12.0696 13.6179 13.0722 13.5082 14.1689 12.8252C15.3149 12.1117 16.5448 12.3571 17.3096 13.1475C18.0633 13.9265 18.3206 15.1803 17.7334 16.3994C17.418 17.054 16.7617 17.6418 15.9795 18.0918C15.1823 18.5504 14.1883 18.9041 13.1113 19.0508C10.9472 19.3455 8.39916 18.8042 6.45508 16.5342L6.43555 16.5117L6.41797 16.4863C6.07044 15.9904 5.78875 15.4966 5.56543 15.0088C5.55322 14.9835 5.53927 14.959 5.52734 14.9336C5.10768 14.0379 4.85966 13.0228 4.87598 11.9346C4.88057 10.8958 5.12455 9.92613 5.52734 9.06641C5.54076 9.03778 5.55557 9.00984 5.56934 8.98145C5.79196 8.49673 6.07271 8.0064 6.41797 7.51367L6.43555 7.48828L6.45508 7.46582ZM8.75781 13.2998C8.44178 14.6613 8.82488 16.269 10.3311 17.5195L10.543 17.6953C11.3537 17.8955 12.1721 17.9176 12.9434 17.8125C13.8615 17.6874 14.7007 17.386 15.3564 17.0088C16.0273 16.6229 16.4448 16.194 16.6074 15.8564C16.9757 15.0914 16.7876 14.405 16.4121 14.0166C16.0475 13.6397 15.4638 13.4905 14.8291 13.8857C13.4772 14.7276 12.1272 14.9232 10.9375 14.6182C10.0797 14.3982 9.33709 13.9255 8.75781 13.2998ZM7.71289 8.04004C7.34481 8.43515 7.0088 8.90278 6.74023 9.43262C6.32566 10.3099 6.14123 11.1513 6.12695 11.9375C6.12321 12.7507 6.29876 13.6255 6.72559 14.5391C6.99646 15.0807 7.33822 15.5578 7.71289 15.96C7.22482 14.606 7.33895 13.1847 7.88867 12C7.33895 10.8153 7.22482 9.39404 7.71289 8.04004ZM12.9434 6.1875C12.1722 6.08246 11.3536 6.10362 10.543 6.30371L10.3311 6.48047C8.82522 7.73069 8.44217 9.33791 8.75781 10.6992C9.33702 10.0738 10.0799 9.60176 10.9375 9.38184C12.1272 9.07683 13.4772 9.2724 14.8291 10.1143C15.4638 10.5095 16.0475 10.3603 16.4121 9.9834C16.7876 9.59504 16.9757 8.90857 16.6074 8.14355C16.4448 7.80599 16.0273 7.37708 15.3564 6.99121C14.7007 6.61399 13.8615 6.31262 12.9434 6.1875Z" fill="white"/>
<path fill-rule="evenodd" clip-rule="evenodd" d="M12 2C17.5228 2 22 6.47715 22 12C22 17.5228 17.5228 22 12 22C6.47715 22 2 17.5228 2 12C2 6.47715 6.47715 2 12 2ZM12 3.25C7.16751 3.25 3.25 7.16751 3.25 12C3.25 16.8325 7.16751 20.75 12 20.75C16.8325 20.75 20.75 16.8325 20.75 12C20.75 7.16751 16.8325 3.25 12 3.25Z" fill="white"/>
</svg>
