<svg width="24" height="24" viewBox="0 0 24 24" fill="none" xmlns="http://www.w3.org/2000/svg">
<path fill-rule="evenodd" clip-rule="evenodd" d="M17.5 12.0003C20.5375 12.0003 23 14.4627 23 17.5003C22.9999 20.5378 20.5375 23.0003 17.5 23.0003C14.4625 23.0003 12.0001 20.5378 12 17.5003C12 14.4627 14.4624 12.0003 17.5 12.0003ZM17.5 19.0003C16.9477 19.0003 16.5 19.448 16.5 20.0003C16.5001 20.5525 16.9477 21.0003 17.5 21.0003C18.0522 21.0003 18.4999 20.5525 18.5 20.0003C18.5 19.448 18.0522 19.0003 17.5 19.0003ZM17.5 13.5003C17.0858 13.5003 16.75 13.8361 16.75 14.2503V17.2503C16.7501 17.6644 17.0858 18.0003 17.5 18.0003C17.9141 18.0003 18.2499 17.6644 18.25 17.2503V14.2503C18.25 13.8361 17.9142 13.5003 17.5 13.5003Z" fill="white"/>
<path d="M12.0068 3.80792C17.08 3.24094 20.7498 6.95182 20.75 11.4173C20.7499 11.5663 20.7448 11.7149 20.7353 11.8626C20.373 11.6542 19.9888 11.4803 19.5869 11.344C19.5933 11.2434 19.5976 11.1427 19.5976 11.0423C19.5976 6.8241 16.5306 4.1679 11.9589 4.6585C7.75447 5.10996 4.47486 8.5385 4.32027 11.6126C4.09166 16.1681 7.17742 18.3392 11.0693 18.4456C11.1616 19.0785 11.3455 19.6815 11.6064 20.2415C11.5155 20.2447 11.4247 20.2503 11.3339 20.2503C6.71756 20.2501 2.99491 17.6678 3.26363 12.097C3.44057 8.43239 7.19426 4.34588 12.0068 3.80792Z" fill="white"/>
<path d="M6.33589 14.7474C6.51393 14.7474 6.65816 14.8914 6.65816 15.0687C6.65776 15.2456 6.51368 15.3899 6.33589 15.3899C6.15821 15.3898 6.01403 15.2455 6.01363 15.0687C6.01363 14.8915 6.15796 14.7475 6.33589 14.7474Z" fill="white"/>
<path d="M10.0195 12.9134C10.1975 12.9134 10.3418 13.0574 10.3418 13.2347C10.3412 13.4115 10.1972 13.555 10.0195 13.555C9.84188 13.5549 9.69774 13.4114 9.69722 13.2347C9.69722 13.0575 9.84156 12.9135 10.0195 12.9134Z" fill="white"/>
<path d="M14.0722 7.86944C15.2168 7.86944 16.1445 8.79326 16.1445 9.93292C16.1443 10.4428 15.9573 10.9088 15.6494 11.2689C15.0777 11.4384 14.5389 11.6838 14.0449 11.9944C12.9133 11.9797 12.0004 11.063 12 9.93292C12 8.79334 12.9278 7.86957 14.0722 7.86944Z" fill="white"/>
<path d="M6.2441 11.0794C6.37105 11.0795 6.47437 11.1815 6.47457 11.3079C6.47426 11.4342 6.37098 11.5373 6.2441 11.5374C6.11718 11.5373 6.01394 11.4342 6.01363 11.3079C6.01383 11.1815 6.11711 11.0795 6.2441 11.0794Z" fill="white"/>
<path d="M17.2041 10.1624C17.2802 10.1624 17.3425 10.2233 17.3427 10.2991C17.3424 10.3748 17.2802 10.4368 17.2041 10.4368C17.1282 10.4365 17.0667 10.3746 17.0664 10.2991C17.0666 10.2235 17.1282 10.1627 17.2041 10.1624Z" fill="white"/>
<path d="M9.00582 9.24444C9.13284 9.24455 9.2362 9.34744 9.23628 9.47393C9.23597 9.60023 9.1327 9.70331 9.00582 9.70342C8.8789 9.70335 8.77566 9.60026 8.77535 9.47393C8.77543 9.34742 8.87876 9.24451 9.00582 9.24444Z" fill="white"/>
<path d="M9.83492 7.41046C9.91122 7.41046 9.97359 7.47217 9.97359 7.54815C9.97324 7.62384 9.91101 7.68585 9.83492 7.68585C9.7591 7.68553 9.69756 7.62364 9.69722 7.54815C9.69722 7.47237 9.75889 7.41078 9.83492 7.41046Z" fill="white"/>
<path d="M14.5332 6.49346C14.6602 6.49357 14.7636 6.5964 14.7636 6.72296C14.7631 6.8491 14.6599 6.95136 14.5332 6.95147C14.4064 6.9514 14.3032 6.84912 14.3027 6.72296C14.3027 6.59637 14.4061 6.49354 14.5332 6.49346Z" fill="white"/>
<path d="M11.6767 5.57647C11.753 5.57647 11.8154 5.63819 11.8154 5.71417C11.8149 5.78976 11.7527 5.85186 11.6767 5.85186C11.601 5.85154 11.5395 5.78956 11.539 5.71417C11.539 5.63839 11.6007 5.5768 11.6767 5.57647Z" fill="white"/>
</svg>
