<svg width="24" height="24" viewBox="0 0 24 24" fill="none" xmlns="http://www.w3.org/2000/svg">
<path fill-rule="evenodd" clip-rule="evenodd" d="M17.5 12.0003C20.5375 12.0003 23 14.4627 23 17.5003C22.9999 20.5378 20.5375 23.0003 17.5 23.0003C14.4625 23.0003 12.0001 20.5378 12 17.5003C12 14.4627 14.4624 12.0003 17.5 12.0003ZM17.5 19.0003C16.9477 19.0003 16.5 19.448 16.5 20.0003C16.5001 20.5525 16.9477 21.0003 17.5 21.0003C18.0522 21.0003 18.4999 20.5525 18.5 20.0003C18.5 19.448 18.0522 19.0003 17.5 19.0003ZM17.5 13.5003C17.0858 13.5003 16.75 13.8361 16.75 14.2503V17.2503C16.7501 17.6644 17.0858 18.0003 17.5 18.0003C17.9141 18.0003 18.2499 17.6644 18.25 17.2503V14.2503C18.25 13.8361 17.9142 13.5003 17.5 13.5003Z" fill="white"/>
<path fill-rule="evenodd" clip-rule="evenodd" d="M12.0068 3.80792C17.0801 3.24094 20.7498 6.9518 20.75 11.4173C20.7499 11.5663 20.7448 11.7149 20.7353 11.8626C19.7824 11.3146 18.6781 11.0003 17.5 11.0003C16.8569 11.0003 16.236 11.0949 15.6494 11.2689C15.9573 10.9088 16.1443 10.4428 16.1445 9.93292C16.1445 8.79325 15.2168 7.86944 14.0722 7.86944C12.9278 7.86961 12 8.79336 12 9.93292C12.0004 11.063 12.9134 11.9797 14.0449 11.9944C12.216 13.1446 11 15.1803 11 17.5003C11 18.4799 11.2182 19.4085 11.6064 20.2415C11.5155 20.2447 11.4247 20.2503 11.3339 20.2503C6.71749 20.2501 2.9949 17.6679 3.26363 12.097C3.44058 8.43239 7.1942 4.34589 12.0068 3.80792ZM6.33589 14.7474C6.15792 14.7474 6.01265 14.8914 6.01265 15.0687C6.01303 15.2456 6.15815 15.3899 6.33589 15.3899C6.51349 15.3897 6.65778 15.2455 6.65816 15.0687C6.65816 14.8915 6.51373 14.7476 6.33589 14.7474ZM10.0195 12.9134C9.84161 12.9136 9.69722 13.0575 9.69722 13.2347C9.69774 13.4114 9.84193 13.5548 10.0195 13.555C10.1972 13.555 10.3412 13.4115 10.3418 13.2347C10.3418 13.0574 10.1975 12.9134 10.0195 12.9134ZM6.24312 11.0794C6.11625 11.0796 6.01288 11.1816 6.01265 11.3079C6.01296 11.4342 6.1163 11.5372 6.24312 11.5374C6.3701 11.5374 6.47328 11.4343 6.47359 11.3079C6.47336 11.1815 6.37015 11.0794 6.24312 11.0794ZM17.2041 10.1614C17.1279 10.1615 17.0656 10.2233 17.0654 10.2991C17.0657 10.3748 17.128 10.4367 17.2041 10.4368C17.2802 10.4368 17.3414 10.3748 17.3418 10.2991C17.3416 10.2233 17.2802 10.1615 17.2041 10.1614ZM9.00679 9.24444C8.87975 9.24452 8.77642 9.34743 8.77632 9.47393C8.77663 9.60026 8.87988 9.70335 9.00679 9.70343C9.13365 9.70328 9.23695 9.60021 9.23726 9.47393C9.23717 9.34748 9.13378 9.24459 9.00679 9.24444ZM9.8359 7.41046C9.75966 7.41053 9.69722 7.47222 9.69722 7.54815C9.69759 7.62377 9.75988 7.68577 9.8359 7.68585C9.91178 7.68563 9.97323 7.62368 9.97359 7.54815C9.97359 7.47231 9.91201 7.41068 9.8359 7.41046ZM14.5332 6.49346C14.4061 6.49354 14.3027 6.59638 14.3027 6.72296C14.3031 6.84916 14.4063 6.95237 14.5332 6.95245C14.66 6.95233 14.7632 6.84913 14.7636 6.72296C14.7636 6.5964 14.6602 6.49359 14.5332 6.49346ZM11.6777 5.57647C11.6015 5.57655 11.539 5.63824 11.539 5.71417C11.5395 5.78968 11.6018 5.85179 11.6777 5.85186C11.7536 5.85182 11.8149 5.7897 11.8154 5.71417C11.8154 5.63822 11.754 5.57651 11.6777 5.57647Z" fill="white"/>
</svg>
