<svg width="24" height="24" viewBox="0 0 24 24" fill="none" xmlns="http://www.w3.org/2000/svg">
<path d="M7.5 10.25C7.70711 10.25 7.875 10.4179 7.875 10.625V13.625C7.875 13.8321 7.70711 14 7.5 14C7.29289 14 7.125 13.8321 7.125 13.625V10.625C7.125 10.4179 7.29289 10.25 7.5 10.25Z" fill="white"/>
<path fill-rule="evenodd" clip-rule="evenodd" d="M10.25 10.25C10.5952 10.25 10.875 10.5298 10.875 10.875V13.375C10.875 13.7202 10.5952 14 10.25 14H9C8.65482 14 8.375 13.7202 8.375 13.375V10.875C8.375 10.5298 8.65482 10.25 9 10.25H10.25ZM9.125 13.25H10.125V12.5H9.125V13.25ZM9.125 11.75H10.125V11H9.125V11.75Z" fill="white"/>
<path d="M15.25 10.25C15.4571 10.25 15.625 10.4179 15.625 10.625V13.625C15.625 13.8321 15.4571 14 15.25 14C15.0429 14 14.875 13.8321 14.875 13.625V12.5H13.75C13.4048 12.5 13.125 12.2202 13.125 11.875V10.625C13.125 10.4179 13.2929 10.25 13.5 10.25C13.7071 10.25 13.875 10.4179 13.875 10.625V11.75H14.875V10.625C14.875 10.4179 15.0429 10.25 15.25 10.25Z" fill="white"/>
<path d="M16.5 10.25C16.7071 10.25 16.875 10.4179 16.875 10.625V13.625C16.875 13.8321 16.7071 14 16.5 14C16.2929 14 16.125 13.8321 16.125 13.625V10.625C16.125 10.4179 16.2929 10.25 16.5 10.25Z" fill="white"/>
<path d="M12 12.375C12.2761 12.375 12.5 12.5989 12.5 12.875C12.5 13.1511 12.2761 13.375 12 13.375C11.7239 13.375 11.5 13.1511 11.5 12.875C11.5 12.5989 11.7239 12.375 12 12.375Z" fill="white"/>
<path d="M12 10.875C12.2761 10.875 12.5 11.0989 12.5 11.375C12.5 11.6511 12.2761 11.875 12 11.875C11.7239 11.875 11.5 11.6511 11.5 11.375C11.5 11.0989 11.7239 10.875 12 10.875Z" fill="white"/>
<path fill-rule="evenodd" clip-rule="evenodd" d="M21.25 4.25C21.6642 4.25 22 4.58579 22 5C22 5.29799 21.825 5.55284 21.5732 5.67383C21.6398 5.87596 21.6591 6.07451 21.6611 6.25781C21.6636 6.47444 21.6438 6.73513 21.623 7.02051L20.9102 16.8281C20.8825 17.2083 20.8585 17.5373 20.8174 17.8066C20.7748 18.0851 20.7063 18.3603 20.5557 18.6221C20.3299 19.0145 19.9907 19.3296 19.583 19.5264C19.311 19.6576 19.0318 19.7073 18.751 19.7295C18.4794 19.751 18.1498 19.75 17.7686 19.75H6.23145C5.85023 19.75 5.52063 19.751 5.24902 19.7295C4.96822 19.7073 4.68899 19.6576 4.41699 19.5264C4.00926 19.3296 3.6701 19.0145 3.44434 18.6221C3.29375 18.3603 3.22516 18.0851 3.18262 17.8066C3.14149 17.5373 3.11749 17.2083 3.08984 16.8281L2.37695 7.02051C2.3562 6.73513 2.33644 6.47444 2.33887 6.25781C2.34094 6.0746 2.35932 5.87586 2.42578 5.67383C2.17446 5.55268 2 5.29767 2 5C2 4.58579 2.33579 4.25 2.75 4.25H21.25ZM4.7207 6C4.40893 6 4.22149 6.00106 4.08301 6.0127C3.95274 6.02365 3.93873 6.03913 3.95703 6.0293C3.90834 6.05546 3.86924 6.09797 3.84668 6.14844C3.85515 6.12949 3.84037 6.14408 3.83887 6.27441C3.83731 6.41337 3.85043 6.60116 3.87305 6.91211L4.58594 16.7197C4.61151 17.0713 4.63216 17.3132 4.65625 17.5H19.3438C19.3678 17.3132 19.3885 17.0713 19.4141 16.7197L20.127 6.91211C20.1496 6.60116 20.1627 6.41337 20.1611 6.27441C20.1596 6.14408 20.1448 6.12949 20.1533 6.14844C20.1308 6.09797 20.0917 6.05546 20.043 6.0293C20.0613 6.03913 20.0473 6.02365 19.917 6.0127C19.7785 6.00106 19.5911 6 19.2793 6H4.7207Z" fill="white"/>
</svg>
