<svg width="24" height="24" viewBox="0 0 24 24" fill="none" xmlns="http://www.w3.org/2000/svg">
<path fill-rule="evenodd" clip-rule="evenodd" d="M17.5 12C20.5376 12 23 14.4624 23 17.5C23 20.5376 20.5376 23 17.5 23C14.4624 23 12 20.5376 12 17.5C12 14.4624 14.4624 12 17.5 12ZM16.4883 13.9961C16.0883 13.8889 15.6766 14.1264 15.5693 14.5264C15.4624 14.9262 15.6999 15.337 16.0996 15.4443C17.0033 15.6865 17.8025 16.2207 18.3721 16.9629C18.9414 17.705 19.25 18.6145 19.25 19.5498C19.25 19.964 19.5858 20.2998 20 20.2998C20.4142 20.2998 20.75 19.964 20.75 19.5498C20.75 18.2842 20.332 17.0539 19.5615 16.0498C18.791 15.0457 17.7108 14.3237 16.4883 13.9961ZM15.7119 16.8438C15.3118 16.7365 14.9002 16.9739 14.793 17.374C14.6858 17.7741 14.9233 18.1857 15.3232 18.293C15.589 18.3642 15.8237 18.521 15.9912 18.7393C16.1587 18.9576 16.25 19.2248 16.25 19.5C16.25 19.9142 16.5858 20.25 17 20.25C17.4142 20.25 17.75 19.9142 17.75 19.5C17.75 18.8947 17.5501 18.3064 17.1816 17.8262C16.8131 17.3459 16.2966 17.0005 15.7119 16.8438Z" fill="white"/>
<path d="M10.125 13.25H9.125V12.5H10.125V13.25Z" fill="white"/>
<path d="M10.125 11.75H9.125V11H10.125V11.75Z" fill="white"/>
<path fill-rule="evenodd" clip-rule="evenodd" d="M21.25 4.25C21.6642 4.25 22 4.58579 22 5C22 5.29799 21.825 5.55284 21.5732 5.67383C21.6398 5.87596 21.6591 6.07451 21.6611 6.25781C21.6636 6.47444 21.6438 6.73513 21.623 7.02051L21.2471 12.1904C20.1879 11.4416 18.8959 11 17.5 11C17.2892 11 17.0807 11.0097 16.875 11.0293V10.625C16.875 10.4179 16.7071 10.25 16.5 10.25C16.2929 10.25 16.125 10.4179 16.125 10.625V11.1465C15.9558 11.1829 15.7891 11.226 15.625 11.2754V10.625C15.625 10.4179 15.4571 10.25 15.25 10.25C15.0429 10.25 14.875 10.4179 14.875 10.625V11.5527C14.7366 11.6139 14.6009 11.6797 14.4678 11.75H13.875V10.625C13.875 10.4179 13.7071 10.25 13.5 10.25C13.2929 10.25 13.125 10.4179 13.125 10.625V11.875C13.125 12.1098 13.2558 12.3121 13.4473 12.4189C11.956 13.61 11 15.4431 11 17.5C11 18.291 11.1417 19.0489 11.4004 19.75H6.23145C5.85023 19.75 5.52063 19.751 5.24902 19.7295C4.96822 19.7073 4.68899 19.6576 4.41699 19.5264C4.00925 19.3296 3.6701 19.0145 3.44434 18.6221C3.29375 18.3603 3.22516 18.0851 3.18262 17.8066C3.14149 17.5373 3.1175 17.2083 3.08984 16.8281L2.37695 7.02051C2.3562 6.73513 2.33644 6.47444 2.33887 6.25781C2.34094 6.0746 2.35932 5.87586 2.42578 5.67383C2.17446 5.55268 2 5.29767 2 5C2 4.58579 2.33579 4.25 2.75 4.25H21.25ZM7.5 10.25C7.29289 10.25 7.125 10.4179 7.125 10.625V13.625C7.125 13.8321 7.29289 14 7.5 14C7.70711 14 7.875 13.8321 7.875 13.625V10.625C7.875 10.4179 7.70711 10.25 7.5 10.25ZM9 10.25C8.65482 10.25 8.375 10.5298 8.375 10.875V13.375C8.375 13.7202 8.65482 14 9 14H10.25C10.5952 14 10.875 13.7202 10.875 13.375V10.875C10.875 10.5298 10.5952 10.25 10.25 10.25H9ZM12 12.375C11.7239 12.375 11.5 12.5989 11.5 12.875C11.5 13.1511 11.7239 13.375 12 13.375C12.2761 13.375 12.5 13.1511 12.5 12.875C12.5 12.5989 12.2761 12.375 12 12.375ZM12 10.875C11.7239 10.875 11.5 11.0989 11.5 11.375C11.5 11.6511 11.7239 11.875 12 11.875C12.2761 11.875 12.5 11.6511 12.5 11.375C12.5 11.0989 12.2761 10.875 12 10.875Z" fill="white"/>
</svg>
