<svg width="24" height="24" viewBox="0 0 24 24" fill="none" xmlns="http://www.w3.org/2000/svg">
<path fill-rule="evenodd" clip-rule="evenodd" d="M17.5 12C20.5376 12 23 14.4624 23 17.5C23 20.5376 20.5376 23 17.5 23C14.4624 23 12 20.5376 12 17.5C12 14.4624 14.4624 12 17.5 12ZM17.9609 14.626C17.8026 14.076 17.2355 13.8322 16.7949 14.125C16.6853 14.1979 16.5357 14.3898 16.2363 14.7725L15.6895 15.4707C15.4629 15.7604 15.1376 15.9268 14.7959 15.9268C14.3563 15.9268 14 16.3303 14 16.8281V18.1719C14 18.6697 14.3563 19.0732 14.7959 19.0732C15.1376 19.0732 15.4629 19.2396 15.6895 19.5293L16.2363 20.2275C16.5357 20.6102 16.6853 20.8021 16.7949 20.875C17.2355 21.1678 17.8026 20.924 17.9609 20.374C18.0002 20.2371 18 19.9814 18 19.4707V15.5293C18 15.0186 18.0002 14.7629 17.9609 14.626ZM20.3506 15.0762C20.1167 14.8827 19.7699 14.9156 19.5762 15.1494C19.3827 15.3833 19.4156 15.7301 19.6494 15.9238C19.9118 16.1413 20.1131 16.3942 20.248 16.6641C20.3826 16.9333 20.4502 17.2169 20.4502 17.5L20.4375 17.7119C20.4123 17.9239 20.349 18.1339 20.248 18.3359C20.1131 18.6058 19.9118 18.8587 19.6494 19.0762C19.4156 19.2699 19.3827 19.6167 19.5762 19.8506C19.7699 20.0844 20.1167 20.1173 20.3506 19.9238C20.7221 19.616 21.0242 19.2445 21.2324 18.8281C21.4408 18.4113 21.5498 17.9596 21.5498 17.5C21.5498 17.0404 21.4408 16.5887 21.2324 16.1719C21.0242 15.7555 20.7221 15.384 20.3506 15.0762Z" fill="white"/>
<path d="M10.125 13.25H9.125V12.5H10.125V13.25Z" fill="white"/>
<path d="M10.125 11.75H9.125V11H10.125V11.75Z" fill="white"/>
<path fill-rule="evenodd" clip-rule="evenodd" d="M21.25 4.25C21.6642 4.25 22 4.58579 22 5C22 5.29799 21.825 5.55284 21.5732 5.67383C21.6398 5.87596 21.6591 6.07451 21.6611 6.25781C21.6636 6.47444 21.6438 6.73513 21.623 7.02051L21.2471 12.1904C20.1879 11.4416 18.8959 11 17.5 11C17.2892 11 17.0807 11.0097 16.875 11.0293V10.625C16.875 10.4179 16.7071 10.25 16.5 10.25C16.2929 10.25 16.125 10.4179 16.125 10.625V11.1465C15.9558 11.1829 15.7891 11.226 15.625 11.2754V10.625C15.625 10.4179 15.4571 10.25 15.25 10.25C15.0429 10.25 14.875 10.4179 14.875 10.625V11.5527C14.7366 11.6139 14.6009 11.6797 14.4678 11.75H13.875V10.625C13.875 10.4179 13.7071 10.25 13.5 10.25C13.2929 10.25 13.125 10.4179 13.125 10.625V11.875C13.125 12.1098 13.2558 12.3121 13.4473 12.4189C11.956 13.61 11 15.4431 11 17.5C11 18.291 11.1417 19.0489 11.4004 19.75H6.23145C5.85023 19.75 5.52063 19.751 5.24902 19.7295C4.96822 19.7073 4.68899 19.6576 4.41699 19.5264C4.00925 19.3296 3.6701 19.0145 3.44434 18.6221C3.29375 18.3603 3.22516 18.0851 3.18262 17.8066C3.14149 17.5373 3.1175 17.2083 3.08984 16.8281L2.37695 7.02051C2.3562 6.73513 2.33644 6.47444 2.33887 6.25781C2.34094 6.0746 2.35932 5.87586 2.42578 5.67383C2.17446 5.55268 2 5.29767 2 5C2 4.58579 2.33579 4.25 2.75 4.25H21.25ZM7.5 10.25C7.29289 10.25 7.125 10.4179 7.125 10.625V13.625C7.125 13.8321 7.29289 14 7.5 14C7.70711 14 7.875 13.8321 7.875 13.625V10.625C7.875 10.4179 7.70711 10.25 7.5 10.25ZM9 10.25C8.65482 10.25 8.375 10.5298 8.375 10.875V13.375C8.375 13.7202 8.65482 14 9 14H10.25C10.5952 14 10.875 13.7202 10.875 13.375V10.875C10.875 10.5298 10.5952 10.25 10.25 10.25H9ZM12 12.375C11.7239 12.375 11.5 12.5989 11.5 12.875C11.5 13.1511 11.7239 13.375 12 13.375C12.2761 13.375 12.5 13.1511 12.5 12.875C12.5 12.5989 12.2761 12.375 12 12.375ZM12 10.875C11.7239 10.875 11.5 11.0989 11.5 11.375C11.5 11.6511 11.7239 11.875 12 11.875C12.2761 11.875 12.5 11.6511 12.5 11.375C12.5 11.0989 12.2761 10.875 12 10.875Z" fill="white"/>
</svg>
