<svg width="24" height="24" viewBox="0 0 24 24" fill="none" xmlns="http://www.w3.org/2000/svg">
<path fill-rule="evenodd" clip-rule="evenodd" d="M2.25 14.1471V19.4971C2.25 19.9171 2.58 20.2471 3 20.2471C3.42 20.2471 3.75 19.9171 3.75 19.4971V17.6571C4.03 18.0671 4.34 18.4571 4.67 18.8171C5.06 19.2271 5.49 19.6171 5.95 19.9671C6.41 20.3171 6.89 20.6171 7.4 20.8771C7.9 21.1471 8.43 21.3571 8.98 21.5371C9.53 21.7071 10.09 21.8371 10.66 21.9171C11.22 21.9871 11.79 22.0171 12.37 21.9971C12.95 21.9771 13.52 21.9071 14.07 21.7871C14.63 21.6671 15.18 21.4971 15.72 21.2871C16.25 21.0671 16.76 20.8071 17.25 20.5071C17.73 20.2171 18.19 19.8671 18.62 19.4871C19.06 19.1071 19.45 18.6871 19.81 18.2471C20.16 17.7971 20.48 17.3271 20.76 16.8171C21.04 16.3071 21.27 15.7871 21.45 15.2471C21.64 14.7071 21.78 14.1571 21.87 13.5871C21.96 13.0071 22 12.4371 22 11.8671C21.99 11.2971 21.93 10.7371 21.83 10.1671C21.72 9.59707 21.57 9.04707 21.37 8.50707C21.17 7.97707 20.92 7.45707 20.63 6.95707C20.34 6.45707 20.01 5.99707 19.64 5.55707C19.28 5.11707 18.87 4.71707 18.43 4.34707C17.99 3.97707 17.52 3.64707 17.02 3.35707C16.53 3.06707 16.01 2.82707 15.47 2.62707C14.93 2.42707 14.38 2.26707 13.82 2.16707C13.26 2.06707 12.69 2.00707 12.11 1.99707C11.53 1.99707 10.96 2.03707 10.4 2.12707C9.84 2.21707 9.28 2.35707 8.74 2.54707C8.19 2.73707 7.66 2.96707 7.17 3.24707C6.67 3.51707 6.19 3.83707 5.74 4.19707C5.29 4.55707 4.88 4.95707 4.5 5.37707C4.12 5.80707 3.78 6.26707 3.48 6.75707C3.26 7.11707 3.37 7.57707 3.72 7.79707C4.08 8.01707 4.54 7.90707 4.75 7.54707C5.01 7.12707 5.3 6.73707 5.62 6.37707C5.94 6.00707 6.3 5.67707 6.68 5.36707C7.06 5.05707 7.47 4.78707 7.89 4.55707C8.32 4.32707 8.76 4.12707 9.22 3.96707C9.69 3.80707 10.16 3.68707 10.64 3.60707C11.12 3.52707 11.6 3.49707 12.09 3.49707C12.58 3.50707 13.07 3.55707 13.55 3.64707C14.02 3.72707 14.49 3.85707 14.95 4.02707C15.41 4.20707 15.85 4.40707 16.27 4.65707C16.69 4.89707 17.09 5.17707 17.46 5.49707C17.84 5.80707 18.18 6.15707 18.5 6.52707C18.81 6.89707 19.09 7.28707 19.34 7.71707C19.58 8.13707 19.79 8.57707 19.96 9.03707C20.13 9.48707 20.26 9.95707 20.35 10.4371C20.44 10.9271 20.49 11.4071 20.5 11.8871C20.5 12.3771 20.47 12.8571 20.39 13.3471C20.31 13.8271 20.19 14.3071 20.04 14.7571C19.88 15.2171 19.68 15.6671 19.44 16.0971C19.21 16.5271 18.94 16.9271 18.64 17.3071C18.33 17.6871 18 18.0371 17.63 18.3671C17.26 18.6871 16.87 18.9771 16.46 19.2371C16.05 19.4871 15.61 19.7071 15.16 19.8871C14.7 20.0771 14.24 20.2171 13.76 20.3171C13.29 20.4171 12.81 20.4771 12.31 20.4971C11.82 20.5171 11.34 20.4871 10.86 20.4271C10.38 20.3571 9.9 20.2571 9.43 20.1071C8.97 19.9571 8.52 19.7771 8.08 19.5471C7.66 19.3271 7.25 19.0671 6.85 18.7671C6.46 18.4671 6.1 18.1471 5.77 17.7871C5.44 17.4371 5.14 17.0571 4.87 16.6371C4.6 16.2271 4.38 15.7971 4.18 15.3571C3.99 14.9071 3.84 14.4471 3.73 13.9671C3.69 13.8071 3.6 13.6671 3.46 13.5571C3.33 13.4471 3.17 13.3971 3 13.3971C2.89 13.3971 2.8 13.4171 2.71 13.4471C2.62 13.4871 2.54 13.5371 2.47 13.6171C2.32 13.7571 2.25 13.9371 2.25 14.1471ZM11.49 15.1971L16.16 10.5371C16.45 10.2371 16.45 9.76707 16.16 9.46707C15.86 9.17707 15.39 9.17707 15.09 9.46707L10.96 13.6071L9.16 11.8071C8.86 11.5071 8.39 11.5071 8.09 11.8071C7.8 12.1071 7.8 12.5671 8.09 12.8671L10.43 15.1971C10.58 15.3471 10.75 15.4171 10.96 15.4171C11.06 15.4171 11.16 15.3971 11.25 15.3671C11.33 15.3271 11.41 15.2771 11.49 15.1971Z" fill="white"/>
</svg>
