<svg width="24" height="24" viewBox="0 0 24 24" fill="none" xmlns="http://www.w3.org/2000/svg">
<path d="M4.13184 6.37158C4.45011 6.1635 4.8808 6.22675 5.125 6.52881C5.36838 6.83071 5.33991 7.26433 5.07031 7.53173L5.0127 7.58349L4.74512 7.81103C4.1375 8.35317 3.65678 8.96984 3.31836 9.63037C2.93222 10.3842 2.7364 11.1844 2.73633 11.9868L2.74512 12.2876C2.78778 12.9888 2.98033 13.6845 3.31836 14.3442C3.65681 15.0046 4.13756 15.6215 4.74512 16.1636L5.0127 16.3911C5.33438 16.6515 5.38505 17.1238 5.125 17.4458C4.88088 17.7475 4.44998 17.8107 4.13184 17.603L4.07031 17.5581C3.18583 16.843 2.47248 15.985 1.98242 15.0288C1.55335 14.1913 1.30388 13.2943 1.24805 12.3804L1.23633 11.9868C1.2364 10.9373 1.49209 9.90297 1.98242 8.9458C2.41112 8.1091 3.01065 7.34816 3.74609 6.69189L4.07031 6.4165L4.13184 6.37158Z" fill="white"/>
<path d="M18.9893 6.52881C19.2335 6.22697 19.6642 6.16356 19.9824 6.37158L20.0439 6.4165L20.3682 6.69189C21.1035 7.34813 21.7032 8.10915 22.1318 8.9458C22.6222 9.90295 22.8778 10.9374 22.8779 11.9868L22.8662 12.3804C22.8104 13.2943 22.5609 14.1913 22.1318 15.0288C21.6418 15.985 20.9284 16.843 20.0439 17.5581L19.9824 17.603C19.6643 17.8109 19.2334 17.7475 18.9893 17.4458C18.7292 17.1237 18.7797 16.6515 19.1016 16.3911L19.3691 16.1636C19.9766 15.6215 20.4575 15.0046 20.7959 14.3442C21.1339 13.6845 21.3265 12.9888 21.3691 12.2876L21.3779 11.9868C21.3778 11.1844 21.182 10.3842 20.7959 9.63037C20.4575 8.96989 19.9767 8.35315 19.3691 7.81103L19.1016 7.58349L19.0439 7.53173C18.7743 7.26425 18.7456 6.83072 18.9893 6.52881Z" fill="white"/>
<path d="M12 10.7495C12.6903 10.7495 13.2499 11.3093 13.25 11.9995C13.25 12.6899 12.6904 13.2495 12 13.2495C11.3096 13.2495 10.75 12.6899 10.75 11.9995C10.7501 11.3093 11.3097 10.7495 12 10.7495Z" fill="white"/>
<path fill-rule="evenodd" clip-rule="evenodd" d="M13.3008 6.49951C14.9575 6.49951 16.3006 7.84278 16.3008 9.49951V14.4995C16.3008 16.1564 14.9576 17.4995 13.3008 17.4995H10.7012C9.04432 17.4995 7.70117 16.1564 7.70117 14.4995V9.49951C7.70132 7.84278 9.04441 6.49951 10.7012 6.49951H13.3008ZM12 9.74951C10.7575 9.74951 9.75015 10.757 9.75 11.9995C9.75 13.2421 10.7574 14.2495 12 14.2495C13.2426 14.2495 14.25 13.2421 14.25 11.9995C14.2499 10.757 13.2425 9.74951 12 9.74951Z" fill="white"/>
<path d="M18.2334 9.36181C18.5151 9.09448 18.9501 9.08853 19.2383 9.33642L19.2939 9.38916L19.4189 9.52685C20.0271 10.2257 20.374 11.0843 20.374 11.9878L20.3691 12.1675C20.3232 13.0642 19.9364 13.9084 19.2939 14.5854L19.2383 14.6382C18.9502 14.8859 18.515 14.8807 18.2334 14.6138C17.9331 14.3287 17.9213 13.8537 18.2061 13.5532L18.3633 13.3726C18.6566 13.0048 18.8219 12.5979 18.8633 12.1909L18.874 11.9878C18.874 11.5139 18.7053 11.0322 18.3633 10.603L18.2061 10.4224L18.1562 10.3638C17.9237 10.0632 17.9521 9.62923 18.2334 9.36181Z" fill="white"/>
<path d="M4.76172 9.33545C5.0499 9.08769 5.48497 9.09363 5.7666 9.36084C6.04814 9.62819 6.07624 10.0621 5.84375 10.3628L5.79395 10.4214L5.63672 10.602C5.29466 11.0312 5.12603 11.5129 5.12598 11.9868L5.13672 12.1899C5.17806 12.597 5.3434 13.0037 5.63672 13.3716L5.79395 13.5522C6.07895 13.8526 6.06688 14.3277 5.7666 14.6128C5.48487 14.88 5.04985 14.8852 4.76172 14.6372L4.70605 14.5845C4.06352 13.9073 3.67671 13.0633 3.63086 12.1665L3.62598 11.9868C3.62604 11.0834 3.97285 10.2247 4.58105 9.52588L4.70605 9.38818L4.76172 9.33545Z" fill="white"/>
</svg>
