<svg width="24" height="24" viewBox="0 0 24 24" fill="none" xmlns="http://www.w3.org/2000/svg">
<path d="M19.502 14.225C19.7915 14.2252 20.026 14.4598 20.0264 14.7494C20.0263 15.0391 19.7917 15.2746 19.502 15.2748C19.2121 15.2748 18.9767 15.0392 18.9766 14.7494C18.9769 14.4597 19.2122 14.225 19.502 14.225Z" fill="white"/>
<path fill-rule="evenodd" clip-rule="evenodd" d="M17.5 11.9994C20.5374 11.9994 22.9998 14.462 23 17.4994C23 20.5369 20.5376 22.9994 17.5 22.9994C14.4624 22.9994 12 20.5369 12 17.4994C12.0002 14.462 14.4626 11.9994 17.5 11.9994ZM17 13.9994C16.724 13.9994 16.5002 14.2234 16.5 14.4994V16.0863H15.5L15.3994 16.0961C15.1716 16.1425 15.0002 16.3448 15 16.5863C15 16.8624 15.2239 17.0863 15.5 17.0863H16.5V19.2494C16.5 20.2159 17.2835 20.9994 18.25 20.9994C19.2165 20.9994 20 20.2159 20 19.2494V19.1947C19.9996 18.9189 19.7759 18.6947 19.5 18.6947C19.2241 18.6947 19.0004 18.9189 19 19.1947V19.2494C19 19.6636 18.6642 19.9994 18.25 19.9994C17.8358 19.9994 17.5 19.6636 17.5 19.2494V17.0863H18.5L18.6006 17.0765C18.8285 17.03 19 16.828 19 16.5863C18.9998 16.3448 18.8284 16.1425 18.6006 16.0961L18.5 16.0863H17.5V14.4994C17.4998 14.2234 17.276 13.9994 17 13.9994ZM19.501 13.6996C18.9213 13.6996 18.4515 14.1698 18.4512 14.7494C18.4513 15.3292 18.9211 15.7992 19.501 15.7992C20.0808 15.7992 20.5507 15.3292 20.5508 14.7494C20.5505 14.1698 20.0807 13.6996 19.501 13.6996Z" fill="white"/>
<path d="M4.13184 6.37144C4.45003 6.16354 4.88082 6.22683 5.125 6.52867C5.36849 6.83051 5.33981 7.26413 5.07031 7.5316L5.0127 7.58336L4.74512 7.8109C4.13769 8.35291 3.65672 8.9699 3.31836 9.63023C2.93234 10.3839 2.73644 11.1844 2.73633 11.9867L2.74512 12.2875C2.78778 12.9886 2.9804 13.6844 3.31836 14.3441C3.65679 15.0045 4.13759 15.6214 4.74512 16.1634L5.0127 16.391C5.33449 16.6513 5.38494 17.1236 5.125 17.4457C4.88079 17.7472 4.44991 17.8107 4.13184 17.6029L4.07031 17.558C3.18586 16.8429 2.47246 15.9849 1.98242 15.0287C1.55342 14.1913 1.30388 13.2941 1.24805 12.3802L1.23633 11.9867C1.23644 10.9374 1.4922 9.90268 1.98242 8.94566C2.41106 8.10916 3.01084 7.3479 3.74609 6.69176L4.07031 6.41637L4.13184 6.37144Z" fill="white"/>
<path d="M13.5 6.50035C15.1568 6.50035 16.4999 7.84357 16.5 9.50035V11.0755C15.9768 11.1563 15.4741 11.2997 15 11.4974V9.50035C14.9999 8.67199 14.3284 8.00035 13.5 8.00035H10.5C9.67162 8.00035 9.00008 8.67199 9 9.50035V14.5004C9.00039 15.3284 9.67181 16.0004 10.5 16.0004H11.1758C11.0621 16.4817 11 16.9833 11 17.4994L10.5 17.5004L10.3457 17.4964C8.76079 17.4161 7.50037 16.1051 7.5 14.5004V9.50035C7.50008 7.84357 8.84319 6.50035 10.5 6.50035H13.5Z" fill="white"/>
<path d="M4.76172 9.33629C5.04991 9.08847 5.48495 9.09443 5.7666 9.36168C6.04804 9.62906 6.07627 10.063 5.84375 10.3636L5.79395 10.4222L5.63672 10.6029C5.29493 11.0319 5.12601 11.5139 5.12598 11.9877L5.13672 12.1908C5.17817 12.5977 5.34352 13.0047 5.63672 13.3724L5.79395 13.5531C6.07879 13.8535 6.06689 14.3286 5.7666 14.6136C5.4849 14.8803 5.04968 14.8857 4.76172 14.638L4.70605 14.5853C4.06365 13.9083 3.67686 13.0639 3.63086 12.1673L3.62598 11.9877C3.62601 11.0844 3.97311 10.2255 4.58105 9.52672L4.70605 9.38902L4.76172 9.33629Z" fill="white"/>
<path fill-rule="evenodd" clip-rule="evenodd" d="M12 10.0004C13.1045 10.0004 13.9999 10.8958 14 12.0004C14 12.0085 13.9982 12.0167 13.998 12.0248C13.2062 12.5323 12.5319 13.2064 12.0244 13.9984C12.0163 13.9985 12.0082 14.0004 12 14.0004C10.8957 14.0004 10.0004 13.1046 10 12.0004C10.0001 10.8958 10.8955 10.0004 12 10.0004ZM12 11.1507C11.5306 11.1507 11.1505 11.531 11.1504 12.0004C11.1508 12.4695 11.5308 12.85 12 12.85C12.4692 12.85 12.8492 12.4695 12.8496 12.0004C12.8495 11.531 12.4694 11.1507 12 11.1507Z" fill="white"/>
<path d="M18.9893 6.52965C19.2334 6.2277 19.6642 6.16442 19.9824 6.37242L20.0439 6.41734L20.3682 6.69273C21.1033 7.34887 21.7032 8.11018 22.1318 8.94664C22.622 9.90362 22.8778 10.9384 22.8779 11.9877L22.8662 12.3812C22.8416 12.783 22.7769 13.181 22.6787 13.5726C22.3056 13.0813 21.8647 12.6444 21.3691 12.2767L21.3779 11.9877C21.3778 11.1855 21.1818 10.3848 20.7959 9.63121C20.4576 8.97091 19.9765 8.35387 19.3691 7.81187L19.1016 7.58433L19.0439 7.53258C18.7744 7.26515 18.7458 6.83152 18.9893 6.52965Z" fill="white"/>
<path d="M18.2334 9.36168C18.515 9.09453 18.9501 9.0887 19.2383 9.33629L19.2939 9.38902L19.4189 9.52672C19.9531 10.1406 20.2845 10.878 20.3574 11.6605C19.8327 11.4033 19.2683 11.2151 18.6758 11.1068C18.5959 10.9336 18.492 10.7644 18.3633 10.6029L18.2061 10.4222L18.1562 10.3636C17.924 10.063 17.9521 9.62898 18.2334 9.36168Z" fill="white"/>
</svg>
