<svg width="24" height="24" viewBox="0 0 24 24" fill="none" xmlns="http://www.w3.org/2000/svg">
<path d="M18.9893 6.52856C19.2334 6.22681 19.6643 6.16348 19.9824 6.37134L20.0439 6.41626L20.3682 6.69165C21.1034 7.3478 21.7032 8.10904 22.1318 8.94555C22.6221 9.90262 22.8778 10.9372 22.8779 11.9866L22.8662 12.3801C22.8104 13.2941 22.5609 14.1911 22.1318 15.0286C21.6418 15.9849 20.9284 16.8427 20.0439 17.5579L19.9824 17.6028C19.6643 17.8107 19.2335 17.7473 18.9893 17.4456C18.7293 17.1235 18.7796 16.6511 19.1016 16.3909L19.3691 16.1633C19.9767 15.6212 20.4575 15.0045 20.7959 14.344C21.1339 13.6842 21.3265 12.9886 21.3691 12.2874L21.3779 11.9866C21.3778 11.1843 21.182 10.3838 20.7959 9.63012C20.4575 8.96977 19.9766 8.35281 19.3691 7.81079L19.1016 7.58325L19.0439 7.53149C18.7744 7.26394 18.7455 6.83041 18.9893 6.52856Z" fill="white"/>
<path d="M4.13184 6.37036C4.44992 6.16254 4.88078 6.226 5.125 6.52759C5.36871 6.82942 5.33982 7.26296 5.07031 7.53052L5.0127 7.58227L4.74512 7.80981C4.13755 8.35187 3.6568 8.96873 3.31836 9.62915C2.9322 10.3829 2.7365 11.1832 2.73633 11.9856L2.74512 12.2864C2.7877 12.9876 2.98042 13.6832 3.31836 14.343C3.65674 15.0034 4.1376 15.6203 4.74512 16.1624L5.0127 16.3899C5.33461 16.6501 5.38487 17.1225 5.125 17.4446C4.88082 17.7466 4.4501 17.8098 4.13184 17.6018L4.07031 17.5569C3.18587 16.8418 2.47241 15.9839 1.98242 15.0276C1.55345 14.1901 1.30379 13.2931 1.24805 12.3791L1.23633 11.9856C1.2365 10.9362 1.49207 9.90166 1.98242 8.94458C2.41113 8.10799 3.0107 7.34686 3.74609 6.69067L4.07031 6.41528L4.13184 6.37036Z" fill="white"/>
<path fill-rule="evenodd" clip-rule="evenodd" d="M12 9.99927C13.1044 9.99927 13.9998 10.8949 14 11.9993C14 13.1038 13.1046 13.9993 12 13.9993C10.8954 13.9993 10 13.1038 10 11.9993C10.0002 10.8949 10.8956 9.99927 12 9.99927ZM12 11.1497C11.5307 11.1497 11.1506 11.53 11.1504 11.9993C11.1504 12.4687 11.5306 12.8489 12 12.8489C12.4694 12.8489 12.8496 12.4687 12.8496 11.9993C12.8494 11.53 12.4693 11.1497 12 11.1497Z" fill="white"/>
<path fill-rule="evenodd" clip-rule="evenodd" d="M13.6543 6.50317C15.2393 6.58347 16.4998 7.89434 16.5 9.49927V14.4993L16.4961 14.6536C16.4184 16.1876 15.1883 17.4176 13.6543 17.4954L13.5 17.4993H10.5L10.3457 17.4954C8.81167 17.4176 7.58162 16.1876 7.50391 14.6536L7.5 14.4993V9.49927C7.50021 7.89434 8.76069 6.58347 10.3457 6.50317L10.5 6.49927H13.5L13.6543 6.50317ZM10.5 7.99927C9.67171 7.99927 9.00022 8.67102 9 9.49927V14.4993C9 15.3277 9.67157 15.9993 10.5 15.9993H13.5C14.3284 15.9993 15 15.3277 15 14.4993V9.49927C14.9998 8.67102 14.3283 7.99927 13.5 7.99927H10.5Z" fill="white"/>
<path d="M4.76172 9.3352C5.04983 9.08756 5.48499 9.09358 5.7666 9.36059C6.04823 9.62791 6.0762 10.0618 5.84375 10.3625L5.79395 10.4211L5.63672 10.6018C5.29475 11.0308 5.12607 11.5127 5.12598 11.9866L5.13672 12.1897C5.17804 12.5967 5.34347 13.0035 5.63672 13.3713L5.79395 13.552C6.07903 13.8524 6.06685 14.3274 5.7666 14.6125C5.48483 14.8796 5.0498 14.885 4.76172 14.637L4.70605 14.5842C4.06361 13.9071 3.67668 13.063 3.63086 12.1663L3.62598 11.9866C3.62608 11.0832 3.97295 10.2244 4.58105 9.52563L4.70605 9.38794L4.76172 9.3352Z" fill="white"/>
<path d="M18.2334 9.36059C18.5149 9.09368 18.9502 9.08785 19.2383 9.3352L19.2939 9.38794L19.4189 9.52563C20.0271 10.2243 20.3738 11.0833 20.374 11.9866L20.3691 12.1663C20.3233 13.063 19.9364 13.9071 19.2939 14.5842L19.2383 14.637C18.9501 14.885 18.5152 14.8798 18.2334 14.6125C17.9335 14.3273 17.9211 13.8523 18.2061 13.552L18.3633 13.3713C18.6565 13.0035 18.822 12.5967 18.8633 12.1897L18.874 11.9866C18.8738 11.5128 18.7052 11.0308 18.3633 10.6018L18.2061 10.4211L18.1562 10.3625C17.9241 10.0618 17.9519 9.6278 18.2334 9.36059Z" fill="white"/>
</svg>
