<svg width="24" height="24" viewBox="0 0 24 24" fill="none" xmlns="http://www.w3.org/2000/svg">
<path d="M8.49866 12.0004C8.49866 10.0674 10.0657 8.50043 11.9987 8.50043C13.9317 8.50043 15.4987 10.0674 15.4987 12.0004C15.4987 13.9334 13.9317 15.5004 11.9987 15.5004C10.0657 15.5004 8.49866 13.9334 8.49866 12.0004Z" fill="white" fill-opacity="0.96"/>
<path fill-rule="evenodd" clip-rule="evenodd" d="M11.371 2.0004L11.3044 2.00021C11.0647 1.99917 10.764 1.99787 10.4915 2.10581C10.2565 2.1989 10.0488 2.34989 9.8877 2.54475C9.70096 2.77067 9.60943 3.0571 9.53646 3.28544L9.51612 3.34879C9.31598 3.96588 9.1786 4.38774 9.04625 4.7084C8.91743 5.02046 8.81464 5.18147 8.71041 5.29252C8.4744 5.54398 8.16935 5.7201 7.83357 5.79876C7.68528 5.8335 7.49445 5.84202 7.15979 5.79755C6.81591 5.75184 6.38188 5.65988 5.7474 5.52466L5.68236 5.5106C5.44813 5.45963 5.15431 5.39568 4.86529 5.44444C4.616 5.4865 4.38139 5.59088 4.18325 5.74788C3.95352 5.92992 3.8043 6.19098 3.68534 6.39909L3.65224 6.45681L3.02455 7.544L2.99112 7.60152C2.87036 7.8086 2.71889 8.06836 2.67611 8.35833C2.63921 8.60843 2.66612 8.8638 2.75434 9.10071C2.85662 9.3754 3.05891 9.59788 3.22017 9.77524L3.26487 9.82453C3.69921 10.3064 3.99587 10.6363 4.20738 10.9113C4.41323 11.1788 4.50127 11.3484 4.54533 11.4942C4.64509 11.8243 4.64509 12.1765 4.54533 12.5066C4.50127 12.6524 4.41323 12.822 4.20738 13.0896C3.99586 13.3645 3.69921 13.6944 3.26486 14.1763L3.22017 14.2256C3.0589 14.4029 2.85661 14.6254 2.75433 14.9001C2.66611 15.137 2.6392 15.3924 2.6761 15.6425C2.71888 15.9324 2.87036 16.1922 2.99111 16.3993L3.02455 16.4568L3.65223 17.544L3.68533 17.6017C3.80429 17.8098 3.95351 18.0709 4.18324 18.2529C4.38139 18.4099 4.616 18.5143 4.86528 18.5564C5.1543 18.6051 5.44813 18.5412 5.68236 18.4902L5.74739 18.4761C6.38188 18.3409 6.81591 18.249 7.15978 18.2033C7.49445 18.1588 7.68528 18.1673 7.83357 18.202C8.16935 18.2807 8.47439 18.4568 8.71041 18.7083C8.81464 18.8193 8.91743 18.9803 9.04625 19.2924C9.1786 19.6131 9.31598 20.0349 9.51612 20.652L9.53646 20.7154C9.60943 20.9437 9.70096 21.2301 9.8877 21.4561C10.0488 21.6509 10.2565 21.8019 10.4915 21.895C10.764 22.0029 11.0647 22.0016 11.3044 22.0006L11.371 22.0004H12.6263L12.6929 22.0006C12.9326 22.0016 13.2333 22.0029 13.5058 21.895C13.7408 21.8019 13.9485 21.6509 14.1096 21.4561C14.2963 21.2301 14.3879 20.9437 14.4608 20.7154L14.4812 20.652C14.6813 20.0349 14.8187 19.6131 14.951 19.2924C15.0799 18.9803 15.1827 18.8193 15.2869 18.7083C15.5229 18.4568 15.8279 18.2807 16.1637 18.202C16.312 18.1673 16.5028 18.1588 16.8375 18.2033C17.1814 18.249 17.6154 18.3409 18.2499 18.4761L18.3149 18.4902C18.5492 18.5412 18.843 18.6051 19.132 18.5564C19.3813 18.5143 19.6159 18.4099 19.8141 18.2529C20.0438 18.0709 20.193 17.8098 20.312 17.6017L20.3451 17.544L20.9727 16.4568L21.0062 16.3993C21.1269 16.1922 21.2784 15.9325 21.3212 15.6425C21.3581 15.3924 21.3312 15.137 21.243 14.9001C21.1407 14.6254 20.9384 14.4029 20.7771 14.2256L20.7324 14.1763C20.2981 13.6944 20.0014 13.3645 19.7899 13.0896C19.5841 12.822 19.496 12.6524 19.452 12.5066C19.3522 12.1765 19.3522 11.8243 19.452 11.4942C19.496 11.3484 19.5841 11.1788 19.7899 10.9113C20.0014 10.6363 20.2981 10.3064 20.7324 9.82453L20.7771 9.77524C20.9384 9.59788 21.1407 9.3754 21.243 9.10071C21.3312 8.8638 21.3581 8.60843 21.3212 8.35833C21.2784 8.06836 21.1269 7.8086 21.0062 7.60152L20.9727 7.544L20.3451 6.45681L20.312 6.39909C20.193 6.19098 20.0438 5.92992 19.814 5.74788C19.6159 5.59088 19.3813 5.4865 19.132 5.44444C18.843 5.39568 18.5492 5.45963 18.3149 5.5106L18.2499 5.52466C17.6154 5.65988 17.1814 5.75184 16.8375 5.79755C16.5028 5.84202 16.312 5.8335 16.1637 5.79876C15.8279 5.7201 15.5229 5.54398 15.2869 5.29252C15.1827 5.18147 15.0799 5.02046 14.951 4.7084C14.8187 4.38774 14.6813 3.96588 14.4812 3.34879L14.4608 3.28544C14.3879 3.0571 14.2963 2.77067 14.1096 2.54475C13.9485 2.34989 13.7408 2.1989 13.5058 2.10581C13.2333 1.99787 12.9326 1.99917 12.6929 2.00021L12.6263 2.0004H11.371ZM11.9987 7.00043C9.23723 7.00043 6.99866 9.239 6.99866 12.0004C6.99866 14.7619 9.23723 17.0004 11.9987 17.0004C14.7601 17.0004 16.9987 14.7619 16.9987 12.0004C16.9987 9.239 14.7601 7.00043 11.9987 7.00043Z" fill="white" fill-opacity="0.96"/>
</svg>
