<svg width="24" height="24" viewBox="0 0 24 24" fill="none" xmlns="http://www.w3.org/2000/svg">
<path fill-rule="evenodd" clip-rule="evenodd" d="M21.0147 4.04498C21.3076 3.75209 21.3076 3.27721 21.0147 2.98432C20.7218 2.69143 20.2469 2.69143 19.954 2.98432L17.5234 5.415C17.0769 5.15131 16.5561 5 16 5C14.6021 5 13.4275 5.95608 13.0945 7.25H3C2.58579 7.25 2.25 7.58579 2.25 8C2.25 8.41421 2.58579 8.75 3 8.75H13.0945C13.1653 9.02503 13.2741 9.2848 13.415 9.52336L9.52336 13.415C9.07686 13.1513 8.5561 13 8 13C6.60212 13 5.42755 13.9561 5.09451 15.25H3C2.58579 15.25 2.25 15.5858 2.25 16C2.25 16.4142 2.58579 16.75 3 16.75H5.09451C5.1653 17.025 5.27411 17.2848 5.415 17.5234L2.98348 19.9549C2.69059 20.2478 2.69059 20.7226 2.98348 21.0155C3.27638 21.3084 3.75125 21.3084 4.04414 21.0155L21.0147 4.04498ZM6.5506 16.3878L8.38776 14.5506C8.26407 14.5176 8.13409 14.5 8 14.5C7.17157 14.5 6.5 15.1716 6.5 16C6.5 16.1341 6.51759 16.2641 6.5506 16.3878ZM14.5506 8.38776L16.3878 6.5506C16.2641 6.51759 16.1341 6.5 16 6.5C15.1716 6.5 14.5 7.17157 14.5 8C14.5 8.13409 14.5176 8.26407 14.5506 8.38776ZM11.9308 15.25L8.18648 18.9943C9.50143 18.9137 10.5874 17.986 10.9055 16.75H21C21.4142 16.75 21.75 16.4142 21.75 16C21.75 15.5858 21.4142 15.25 21 15.25H11.9308ZM19.9308 7.25L16.1865 10.9943C17.5014 10.9137 18.5874 9.98596 18.9055 8.75H21C21.4142 8.75 21.75 8.41421 21.75 8C21.75 7.58579 21.4142 7.25 21 7.25H19.9308Z" fill="white"/>
</svg>
