<svg width="24" height="24" viewBox="0 0 24 24" fill="none" xmlns="http://www.w3.org/2000/svg">
<path fill-rule="evenodd" clip-rule="evenodd" d="M11.9986 8.0004C9.78951 8.0004 7.99865 9.79127 7.99865 12.0004C7.99865 14.2095 9.78951 16.0004 11.9986 16.0004C14.2078 16.0004 15.9986 14.2095 15.9986 12.0004C15.9986 9.79127 14.2078 8.0004 11.9986 8.0004ZM9.49865 12.0004C9.49865 10.6197 10.6179 9.5004 11.9986 9.5004C13.3794 9.5004 14.4986 10.6197 14.4986 12.0004C14.4986 13.3811 13.3794 14.5004 11.9986 14.5004C10.6179 14.5004 9.49865 13.3811 9.49865 12.0004Z" fill="white" fill-opacity="0.96"/>
<path fill-rule="evenodd" clip-rule="evenodd" d="M11.371 2.0004L11.3044 2.00021C11.0647 1.99917 10.764 1.99787 10.4915 2.10581C10.2565 2.1989 10.0488 2.34989 9.8877 2.54475C9.70096 2.77067 9.60943 3.0571 9.53646 3.28544L9.51612 3.34879C9.31598 3.96588 9.1786 4.38774 9.04625 4.7084C8.91743 5.02046 8.81464 5.18147 8.71041 5.29252C8.4744 5.54398 8.16935 5.7201 7.83357 5.79876C7.68528 5.8335 7.49445 5.84202 7.15979 5.79755C6.81591 5.75184 6.38188 5.65988 5.7474 5.52466L5.68236 5.5106C5.44813 5.45963 5.15431 5.39568 4.86529 5.44444C4.616 5.4865 4.38139 5.59088 4.18325 5.74788C3.95352 5.92992 3.8043 6.19098 3.68534 6.39909L3.65224 6.45681L3.02455 7.544L2.99112 7.60152C2.87036 7.8086 2.71889 8.06836 2.67611 8.35833C2.63921 8.60843 2.66612 8.8638 2.75434 9.10071C2.85662 9.3754 3.05891 9.59788 3.22017 9.77524L3.26487 9.82453C3.69921 10.3064 3.99587 10.6363 4.20738 10.9113C4.41323 11.1788 4.50127 11.3484 4.54533 11.4942C4.64509 11.8243 4.64509 12.1765 4.54533 12.5066C4.50127 12.6524 4.41323 12.822 4.20738 13.0896C3.99586 13.3645 3.69921 13.6944 3.26486 14.1763L3.22017 14.2256C3.0589 14.4029 2.85661 14.6254 2.75433 14.9001C2.66611 15.137 2.6392 15.3924 2.6761 15.6425C2.71888 15.9324 2.87036 16.1922 2.99111 16.3993L3.02455 16.4568L3.65223 17.544L3.68533 17.6017C3.80429 17.8098 3.95351 18.0709 4.18324 18.2529C4.38139 18.4099 4.616 18.5143 4.86528 18.5564C5.1543 18.6051 5.44813 18.5412 5.68236 18.4902L5.74739 18.4761C6.38188 18.3409 6.81591 18.249 7.15978 18.2033C7.49445 18.1588 7.68528 18.1673 7.83357 18.202C8.16935 18.2807 8.47439 18.4568 8.71041 18.7083C8.81464 18.8193 8.91743 18.9803 9.04625 19.2924C9.1786 19.6131 9.31598 20.0349 9.51612 20.652L9.53646 20.7154C9.60943 20.9437 9.70096 21.2301 9.8877 21.4561C10.0488 21.6509 10.2565 21.8019 10.4915 21.895C10.764 22.0029 11.0647 22.0016 11.3044 22.0006L11.371 22.0004H12.6263L12.6929 22.0006C12.9326 22.0016 13.2333 22.0029 13.5058 21.895C13.7408 21.8019 13.9485 21.6509 14.1096 21.4561C14.2963 21.2301 14.3879 20.9437 14.4608 20.7154L14.4812 20.652C14.6813 20.0349 14.8187 19.6131 14.951 19.2924C15.0799 18.9803 15.1827 18.8193 15.2869 18.7083C15.5229 18.4568 15.8279 18.2807 16.1637 18.202C16.312 18.1673 16.5028 18.1588 16.8375 18.2033C17.1814 18.249 17.6154 18.3409 18.2499 18.4761L18.3149 18.4902C18.5492 18.5412 18.843 18.6051 19.132 18.5564C19.3813 18.5143 19.6159 18.4099 19.8141 18.2529C20.0438 18.0709 20.193 17.8098 20.312 17.6017L20.3451 17.544L20.9727 16.4568L21.0062 16.3993C21.1269 16.1922 21.2784 15.9325 21.3212 15.6425C21.3581 15.3924 21.3312 15.137 21.243 14.9001C21.1407 14.6254 20.9384 14.4029 20.7771 14.2256L20.7324 14.1763C20.2981 13.6944 20.0014 13.3645 19.7899 13.0896C19.5841 12.822 19.496 12.6524 19.452 12.5066C19.3522 12.1765 19.3522 11.8243 19.452 11.4942C19.496 11.3484 19.5841 11.1788 19.7899 10.9113C20.0014 10.6363 20.2981 10.3064 20.7324 9.82453L20.7771 9.77524C20.9384 9.59788 21.1407 9.3754 21.243 9.10071C21.3312 8.8638 21.3581 8.60843 21.3212 8.35833C21.2784 8.06836 21.1269 7.8086 21.0062 7.60152L20.9727 7.544L20.3451 6.45681L20.312 6.39909C20.193 6.19098 20.0438 5.92992 19.814 5.74788C19.6159 5.59088 19.3813 5.4865 19.132 5.44444C18.843 5.39568 18.5492 5.45963 18.3149 5.5106L18.2499 5.52466C17.6154 5.65988 17.1814 5.75184 16.8375 5.79755C16.5028 5.84202 16.312 5.8335 16.1637 5.79876C15.8279 5.7201 15.5229 5.54398 15.2869 5.29252C15.1827 5.18147 15.0799 5.02046 14.951 4.7084C14.8187 4.38774 14.6813 3.96588 14.4812 3.34879L14.4608 3.28544C14.3879 3.0571 14.2963 2.77067 14.1096 2.54475C13.9485 2.34989 13.7408 2.1989 13.5058 2.10581C13.2333 1.99787 12.9326 1.99917 12.6929 2.00021L12.6263 2.0004H11.371ZM5.1233 6.93024C5.18592 6.93911 5.27146 6.95692 5.43474 6.99172L5.46366 6.99788C6.06214 7.12544 6.55345 7.23015 6.96216 7.28447C7.38666 7.34089 7.77957 7.35203 8.17572 7.25922C8.7993 7.11313 9.36582 6.78605 9.80413 6.31906C10.0826 6.02238 10.2694 5.67654 10.4328 5.28071C10.5901 4.8996 10.7451 4.42177 10.9338 3.83968L10.943 3.81155C10.9945 3.65274 11.0218 3.56976 11.0454 3.5111L11.0477 3.50562L11.0535 3.50519C11.1166 3.50082 11.204 3.5004 11.371 3.5004H12.6263C12.7933 3.5004 12.8807 3.50082 12.9437 3.50519L12.9496 3.50562L12.9519 3.5111C12.9755 3.56976 13.0028 3.65274 13.0543 3.81155L13.0635 3.83964C13.2522 4.42173 13.4072 4.89959 13.5645 5.28071C13.7279 5.67654 13.9147 6.02238 14.1932 6.31906C14.6315 6.78605 15.198 7.11313 15.8216 7.25922C16.2177 7.35203 16.6106 7.34089 17.0351 7.28447C17.4439 7.23015 17.9352 7.12544 18.5336 6.99788L18.5626 6.99172C18.7258 6.95692 18.8114 6.93911 18.874 6.93024L18.8798 6.92943L18.8832 6.93432C18.9185 6.98677 18.9625 7.06223 19.046 7.20681L19.6737 8.294C19.7572 8.43858 19.8005 8.51445 19.8283 8.57128L19.8308 8.57659L19.8272 8.58126C19.7882 8.63105 19.73 8.69623 19.6183 8.82023L19.5985 8.84217C19.1888 9.29671 18.8524 9.66984 18.601 9.99664C18.3399 10.3361 18.1338 10.6708 18.0161 11.0602C17.8308 11.6733 17.8308 12.3275 18.0161 12.9406C18.1338 13.33 18.3399 13.6647 18.601 14.0042C18.8524 14.331 19.1887 14.7041 19.5985 15.1586L19.6183 15.1806C19.73 15.3046 19.7882 15.3698 19.8272 15.4195L19.8308 15.4242L19.8283 15.4295C19.8005 15.4864 19.7572 15.5622 19.6737 15.7068L19.046 16.794C18.9625 16.9386 18.9185 17.014 18.8832 17.0665L18.8799 17.0714L18.874 17.0706C18.8114 17.0617 18.7258 17.0439 18.5626 17.0091L18.5336 17.0029C17.9352 16.8754 17.4438 16.7707 17.0351 16.7163C16.6106 16.6599 16.2177 16.6488 15.8216 16.7416C15.198 16.8877 14.6315 17.2148 14.1932 17.6817C13.9147 17.9784 13.7279 18.3243 13.5645 18.7201C13.4072 19.1012 13.2522 19.579 13.0635 20.1611L13.0543 20.1893C13.0028 20.3481 12.9755 20.431 12.9519 20.4897L12.9496 20.4952L12.9437 20.4956C12.8807 20.5 12.7933 20.5004 12.6263 20.5004H11.371C11.204 20.5004 11.1166 20.5 11.0535 20.4956L11.0477 20.4952L11.0454 20.4897C11.0218 20.431 10.9945 20.3481 10.943 20.1893L10.9338 20.1611C10.7451 19.5791 10.5901 19.1012 10.4328 18.7201C10.2694 18.3243 10.0826 17.9784 9.80413 17.6817C9.36582 17.2148 8.7993 16.8877 8.17572 16.7416C7.77957 16.6488 7.38666 16.6599 6.96216 16.7163C6.55343 16.7707 6.0621 16.8754 5.46357 17.0029L5.43473 17.0091C5.27145 17.0439 5.18591 17.0617 5.12329 17.0706L5.11744 17.0714L5.11413 17.0665C5.07879 17.014 5.03474 16.9386 4.95127 16.794L4.32358 15.7068C4.24011 15.5622 4.19678 15.4864 4.16903 15.4295L4.16646 15.4242L4.17008 15.4195C4.20907 15.3698 4.26726 15.3046 4.37904 15.1806L4.39882 15.1586C4.80854 14.7041 5.14488 14.331 5.39629 14.0042C5.65739 13.6647 5.86349 13.33 5.98119 12.9406C6.16647 12.3275 6.16647 11.6733 5.98119 11.0602C5.86349 10.6708 5.65739 10.3361 5.39629 9.99664C5.14488 9.66984 4.80854 9.29671 4.39883 8.84218L4.37904 8.82023C4.26727 8.69623 4.20908 8.63105 4.17008 8.58126L4.16646 8.5766L4.16903 8.57128C4.19679 8.51445 4.24012 8.43858 4.32359 8.294L4.95128 7.20681C5.03475 7.06223 5.0788 6.98677 5.11413 6.93432L5.11745 6.92943L5.1233 6.93024Z" fill="white" fill-opacity="0.96"/>
</svg>
