<svg width="24" height="24" viewBox="0 0 24 24" fill="none" xmlns="http://www.w3.org/2000/svg">
<path fill-rule="evenodd" clip-rule="evenodd" d="M17 2C18.6569 2 20 3.34315 20 5V15.5L19.9961 15.6543C19.9866 15.8408 19.958 16.0223 19.916 16.1982C19.9316 16.1329 19.9468 16.067 19.958 16H20V19C20 20.6569 18.6569 22 17 22H7L6.8457 21.9961C5.26055 21.9158 4 20.6051 4 19V16H4.04199C4.04741 16.0323 4.05606 16.0638 4.0625 16.0957C4.03348 15.9518 4.01153 15.8048 4.00391 15.6543L4 15.5V5C4 3.34315 5.34315 2 7 2H17ZM5 19C5 20.1046 5.89543 21 7 21H7.01953L5 18.9805V19ZM5 17.9189L8.08008 21H9.46973L6.96777 18.499L6.8457 18.4961C6.1369 18.4602 5.49532 18.1757 5 17.7314V17.9189ZM8.03125 18.5L10.5303 21H12.4697L9.96875 18.5H8.03125ZM7 3.5C6.17157 3.5 5.5 4.17157 5.5 5V15.5C5.5 16.3284 6.17157 17 7 17H17C17.8284 17 18.5 16.3284 18.5 15.5V5C18.5 4.17157 17.8284 3.5 17 3.5H7ZM13.5303 21H15.4697L12.9688 18.5H11.0312L13.5303 21ZM16.5303 21H17C17.4167 21 17.8027 20.8713 18.123 20.6533L15.9688 18.5H14.0312L16.5303 21ZM17.0293 18.499L18.6533 20.123C18.8713 19.8027 19 19.4167 19 19V18.5303L18.54 18.0703C18.0894 18.3409 17.5639 18.5 17 18.5C17.0098 18.5 17.0195 18.4991 17.0293 18.499Z" fill="white"/>
</svg>
