<svg width="24" height="24" viewBox="0 0 24 24" fill="none" xmlns="http://www.w3.org/2000/svg">
<path fill-rule="evenodd" clip-rule="evenodd" d="M15.6543 4.00391C15.8407 4.01335 16.0223 4.04106 16.1982 4.08301C16.1329 4.0674 16.0669 4.05322 16 4.04199V4H19C20.6569 4 22 5.34315 22 7V17L21.9961 17.1543C21.9158 18.7394 20.6051 20 19 20H16V19.958C16.0323 19.9526 16.0637 19.943 16.0957 19.9365C15.9518 19.9656 15.8049 19.9885 15.6543 19.9961L15.5 20H5C3.34315 20 2 18.6569 2 17V7C2 5.34315 3.34315 4 5 4H15.5L15.6543 4.00391ZM18.499 17.0322L18.4961 17.1543C18.4602 17.8629 18.1764 18.5047 17.7324 19H17.9189L21 15.9199V14.5303L18.499 17.0322ZM18.9805 19H19C20.1046 19 21 18.1046 21 17V16.9805L18.9805 19ZM17 7C17 6.17157 16.3284 5.5 15.5 5.5H5C4.17157 5.5 3.5 6.17157 3.5 7V17C3.5 17.8284 4.17157 18.5 5 18.5H15.5C16.3284 18.5 17 17.8284 17 17V7ZM18.5 14.0312V15.9688L21 13.4697V11.5303L18.5 14.0312ZM18.5 11.0312V12.9688L21 10.4697V8.53027L18.5 11.0312ZM18.5 8.03125V9.96875L21 7.46973V7C21 6.58332 20.8713 6.19727 20.6533 5.87695L18.5 8.03125ZM18.499 6.9707L20.123 5.34668C19.8027 5.12868 19.4167 5 19 5H18.5303L18.0703 5.45898C18.3412 5.90979 18.5 6.43578 18.5 7C18.5 6.99022 18.4991 6.98046 18.499 6.9707Z" fill="white"/>
</svg>
