<svg width="24" height="24" viewBox="0 0 24 24" fill="none" xmlns="http://www.w3.org/2000/svg">
<path fill-rule="evenodd" clip-rule="evenodd" d="M17 2C18.6569 2 20 3.34315 20 5V8H19.958C19.9467 7.93267 19.9317 7.86647 19.916 7.80078C19.9581 7.97705 19.9866 8.15889 19.9961 8.3457L20 8.5V19C20 20.6569 18.6569 22 17 22H7C5.34315 22 4 20.6569 4 19V8.5L4.00391 8.3457C4.01155 8.19483 4.03337 8.04751 4.0625 7.90332C4.05598 7.93553 4.04746 7.96742 4.04199 8H4V5C4 3.39489 5.26055 2.08421 6.8457 2.00391L7 2H17ZM7 7C6.17157 7 5.5 7.67157 5.5 8.5V19C5.5 19.8284 6.17157 20.5 7 20.5H17C17.8284 20.5 18.5 19.8284 18.5 19V8.5C18.5 7.67157 17.8284 7 17 7H7ZM8.08008 3L5 6.08105V6.26758C5.49525 5.82359 6.13713 5.5398 6.8457 5.50391L6.96777 5.5L9.46973 3H8.08008ZM17.0293 5.50098C17.0195 5.50088 17.0098 5.5 17 5.5C17.5637 5.5 18.0895 5.65828 18.54 5.92871L19 5.46973V5C19 4.58332 18.8713 4.19727 18.6533 3.87695L17.0293 5.50098ZM10.5303 3L8.03125 5.5H9.96875L12.4697 3H10.5303ZM7 3C5.89543 3 5 3.89543 5 5V5.01953L7.01953 3H7ZM12.9688 5.5L15.4697 3H13.5303L11.0312 5.5H12.9688ZM18.123 3.34668C17.8027 3.12868 17.4167 3 17 3H16.5303L14.0312 5.5H15.9688L18.123 3.34668Z" fill="white"/>
</svg>
