<svg width="24" height="24" viewBox="0 0 24 24" fill="none" xmlns="http://www.w3.org/2000/svg">
<path fill-rule="evenodd" clip-rule="evenodd" d="M18.75 15H19.5C20.3284 15 21 15.6716 21 16.5V19.5C21 20.3284 20.3284 21 19.5 21H16.5C15.6716 21 15 20.3284 15 19.5V18.75H9V19.5C9 20.3284 8.32843 21 7.5 21H4.5C3.67157 21 3 20.3284 3 19.5V16.5C3 15.6716 3.67157 15 4.5 15H5.25V9H4.5C3.67157 9 3 8.32843 3 7.5V4.5C3 3.67157 3.67157 3 4.5 3H7.5C8.32843 3 9 3.67157 9 4.5V5.25H15V4.5C15 3.67157 15.6716 3 16.5 3H19.5C20.3284 3 21 3.67157 21 4.5V7.5C21 8.32843 20.3284 9 19.5 9H18.75V15ZM7.5 15C8.32843 15 9 15.6716 9 16.5V17.25H15V16.5C15 15.6716 15.6716 15 16.5 15H17.25V9H16.5C15.6716 9 15 8.32843 15 7.5V6.75H9V7.5C9 8.32843 8.32843 9 7.5 9H6.75V15H7.5Z" fill="white"/>
</svg>
