<svg width="24" height="24" viewBox="0 0 24 24" fill="none" xmlns="http://www.w3.org/2000/svg">
<path fill-rule="evenodd" clip-rule="evenodd" d="M13.6328 3.34875C13.7808 3.17559 13.9492 2.97183 14.3481 3.00323C14.6925 3.03034 14.9495 3.22966 15.0922 3.34915C15.2482 3.4797 15.4289 3.66046 15.6242 3.85585L21.7803 10.0119C22.0732 10.3048 22.0732 10.7797 21.7803 11.0726L15.6242 17.2287C15.4289 17.4241 15.2482 17.6048 15.0922 17.7354C14.9495 17.8549 14.6925 18.0542 14.3481 18.0813C14 18.0928 13.7067 17.7333 13.5997 17.5928C13.4927 17.4523 13.3677 17.005 13.3512 16.8195C13.3333 16.617 13.3333 16.3614 13.3333 16.0851L13.3333 13.666C13.3333 13.6522 13.3333 13.6391 13.3333 13.6265C13.3236 13.6268 13.3135 13.6271 13.303 13.6274C10.3461 13.7159 8.22162 13.9901 6.9194 14.8557C5.60853 15.727 4.72439 16.9077 3.62592 18.3746C3.62592 18.3746 3.54688 18.4893 3.5 18.5928C3.04688 19.5928 2 19.7426 2 18.8928V18.6672C2 12.4171 7.16763 7.78306 13.3333 7.33242L13.3333 4.85403C13.3333 4.57774 13.3333 4.32213 13.3512 4.11955C13.3677 3.93413 13.4084 3.61149 13.6328 3.34875Z" fill="white"/>
</svg>
