<svg width="24" height="24" viewBox="0 0 24 24" fill="none" xmlns="http://www.w3.org/2000/svg">
<path fill-rule="evenodd" clip-rule="evenodd" d="M10.3635 5.99024C8.91354 4.87266 6.75 5.89377 6.75 7.78082V19.9992C6.75 20.4134 6.41421 20.7492 6 20.7492C5.58579 20.7492 5.25 20.4134 5.25 19.9992V7.78082C5.25 4.52528 9.11362 2.81613 11.5225 5.00604L11.6711 5.14109L12.0368 4.9036C12.9434 4.31486 14.0966 4.25937 15.0555 4.75834L16.9955 5.76782C17.675 6.12141 17.721 7.07639 17.0785 7.49358L10.6171 11.6897C9.97469 12.1069 9.12096 11.6765 9.07433 10.9119L8.94119 8.72902C8.87539 7.65005 9.39513 6.61911 10.3017 6.03037L10.3635 5.99024ZM11.1187 7.28838L12.8537 6.16161C13.307 5.86724 13.8836 5.83949 14.3631 6.08898L15.5424 6.70262L10.5193 9.96463L10.4384 8.6377C10.4055 8.09822 10.6654 7.58275 11.1187 7.28838Z" fill="white"/>
<path d="M13.1112 11.5648C12.8712 11.2271 12.403 11.1479 12.0654 11.3878C11.7277 11.6277 11.6485 12.0959 11.8884 12.4335L12.4675 13.2487C12.7074 13.5864 13.1757 13.6657 13.5133 13.4257C13.851 13.1858 13.9302 12.7176 13.6903 12.38L13.1112 11.5648Z" fill="white"/>
<path d="M14.0654 14.3878C14.403 14.1479 14.8712 14.2271 15.1112 14.5648L15.6903 15.38C15.9302 15.7176 15.851 16.1858 15.5133 16.4257C15.1757 16.6657 14.7074 16.5864 14.4675 16.2487L13.8884 15.4335C13.6485 15.0959 13.7277 14.6277 14.0654 14.3878Z" fill="white"/>
<path d="M18.1112 14.8148C17.8712 14.4771 17.403 14.3979 17.0654 14.6378C16.7277 14.8777 16.6485 15.3459 16.8884 15.6835L17.4675 16.4987C17.7074 16.8364 18.1757 16.9157 18.5133 16.6757C18.851 16.4358 18.9302 15.9676 18.6903 15.63L18.1112 14.8148Z" fill="white"/>
<path d="M15.0654 11.6378C15.403 11.3979 15.8712 11.4771 16.1112 11.8148L16.6903 12.63C16.9302 12.9676 16.851 13.4358 16.5133 13.6757C16.1757 13.9157 15.7074 13.8364 15.4675 13.4987L14.8884 12.6835C14.6485 12.3459 14.7277 11.8777 15.0654 11.6378Z" fill="white"/>
<path d="M19.1112 12.0648C18.8712 11.7271 18.403 11.6479 18.0654 11.8878C17.7277 12.1277 17.6485 12.5959 17.8884 12.9335L18.4675 13.7487C18.7074 14.0864 19.1757 14.1657 19.5133 13.9257C19.851 13.6858 19.9302 13.2176 19.6903 12.88L19.1112 12.0648Z" fill="white"/>
<path d="M16.0654 8.88776C16.403 8.64785 16.8712 8.7271 17.1112 9.06477L17.6903 9.87996C17.9302 10.2176 17.851 10.6858 17.5133 10.9257C17.1757 11.1657 16.7074 11.0864 16.4675 10.7487L15.8884 9.93354C15.6485 9.59588 15.7277 9.12766 16.0654 8.88776Z" fill="white"/>
</svg>
