<svg width="24" height="24" viewBox="0 0 24 24" fill="none" xmlns="http://www.w3.org/2000/svg">
<path fill-rule="evenodd" clip-rule="evenodd" d="M12 4C7.58172 4 4 7.58172 4 12C4 16.4183 7.58172 20 12 20C16.4183 20 20 16.4183 20 12C20 11.6307 19.975 11.2678 19.9269 10.9128C19.8526 10.3655 20.236 9.86163 20.7833 9.78736C21.3306 9.71309 21.8344 10.0965 21.9087 10.6438C21.9689 11.0877 22 11.5405 22 12C22 17.5228 17.5228 22 12 22C6.47715 22 2 17.5228 2 12C2 6.47715 6.47715 2 12 2C12.848 2 13.6726 2.10577 14.461 2.30532C14.9963 2.44086 15.3205 2.98475 15.185 3.52015C15.0494 4.05554 14.5055 4.3797 13.9701 4.24417C13.341 4.08489 12.6811 4 12 4Z" fill="white"/>
<path d="M12.0001 7C11.4478 7 11.0001 7.44772 11.0001 8V12.9844C10.9997 13.0132 11.0005 13.0419 11.0026 13.0705C11.0234 13.3694 11.1755 13.632 11.4016 13.8012C11.4385 13.8288 11.4775 13.854 11.5182 13.8764L14.0982 15.366C14.5765 15.6422 15.1881 15.4783 15.4643 15C15.7404 14.5217 15.5765 13.9101 15.0982 13.634L13.0001 12.4226V8C13.0001 7.44772 12.5524 7 12.0001 7Z" fill="white"/>
<path fill-rule="evenodd" clip-rule="evenodd" d="M17.9999 2.9001C17.5028 2.9001 17.0999 2.49715 17.0999 2.0001C17.0999 1.50304 17.5028 1.1001 17.9999 1.1001H22.9999C23.3639 1.1001 23.6921 1.31938 23.8314 1.65568C23.9707 1.99199 23.8937 2.3791 23.6363 2.63649L20.1727 6.1001H22.9999C23.4969 6.1001 23.8999 6.50304 23.8999 7.0001C23.8999 7.49715 23.4969 7.9001 22.9999 7.9001H17.9999C17.6359 7.9001 17.3077 7.68082 17.1684 7.34451C17.0291 7.00821 17.1061 6.6211 17.3635 6.3637L20.8271 2.9001H17.9999Z" fill="white" fill-opacity="0.96"/>
</svg>
