<svg width="24" height="24" viewBox="0 0 24 24" fill="none" xmlns="http://www.w3.org/2000/svg">
<path fill-rule="evenodd" clip-rule="evenodd" d="M17.2008 3.45789L17.2282 3.47472C20.0899 5.23248 22.0011 8.39339 22.0011 12.0013C22.0011 17.5242 17.5239 22.0013 12.0011 22.0013C8.39337 22.0013 5.23264 20.0904 3.47481 17.229L3.45798 17.2016C3.30393 16.9509 3.16224 16.7203 3.0671 16.5283C2.9809 16.3544 2.83957 16.0405 2.90757 15.683C2.98627 15.2693 3.26314 14.9272 3.65143 14.7641C3.85152 14.6801 4.04425 14.6785 4.17777 14.6897C4.31511 14.7012 4.4518 14.7322 4.57502 14.7657C4.81155 14.8301 5.11366 14.9374 5.4625 15.0612L5.49101 15.0713C6.27476 15.3496 7.11929 15.5014 8.00089 15.5014C12.143 15.5014 15.5009 12.1435 15.5009 8.00139C15.5009 7.11962 15.349 6.27494 15.0707 5.49106L15.0606 5.46254C14.9367 5.11371 14.8294 4.81162 14.765 4.57509C14.7314 4.45187 14.7005 4.31518 14.689 4.17784C14.6778 4.04433 14.6793 3.85159 14.7633 3.6515C14.9264 3.26321 15.2684 2.9863 15.6822 2.90758C16.0397 2.83956 16.3535 2.98087 16.5275 3.06706C16.7195 3.16219 16.9501 3.30387 17.2008 3.45789ZM16.3888 4.71949C16.4175 4.80109 16.4492 4.89061 16.4842 4.98912C16.819 5.9319 17.0009 6.94622 17.0009 8.00139C17.0009 12.972 12.9715 17.0014 8.00089 17.0014C6.94592 17.0014 5.93179 16.8196 4.98916 16.4849C4.89064 16.4499 4.80113 16.4182 4.71953 16.3895C4.73035 16.4071 4.74147 16.4253 4.75289 16.4439C6.24927 18.8796 8.93612 20.5013 12.0011 20.5013C16.6955 20.5013 20.5011 16.6958 20.5011 12.0013C20.5011 8.93617 18.8792 6.24918 16.4431 4.75286C16.4245 4.74144 16.4064 4.73032 16.3888 4.71949Z" fill="white" fill-opacity="0.96"/>
</svg>
