<svg width="24" height="24" viewBox="0 0 24 24" fill="none" xmlns="http://www.w3.org/2000/svg">
<path d="M11.9577 2.52536C12.2197 2.20487 12.6917 2.15721 13.0124 2.41891C13.3331 2.68104 13.381 3.15388 13.1189 3.47458C11.5694 5.37049 11.196 6.80904 11.2956 7.99997C11.3993 9.2396 12.0186 10.3484 12.778 11.6142C13.5068 12.8288 14.378 14.2052 14.6618 15.8066C14.9564 17.4691 14.614 19.29 13.1579 21.4228C12.9244 21.7649 12.457 21.8526 12.115 21.6191C11.7732 21.3855 11.6853 20.9191 11.9187 20.5771C13.1934 18.7101 13.3991 17.2807 13.1843 16.0683C12.9586 14.7949 12.2631 13.671 11.4919 12.3857C10.7514 11.1516 9.93732 9.76025 9.8005 8.12497C9.65964 6.44093 10.2382 4.62938 11.9577 2.52536Z" fill="white"/>
<path d="M6.29269 5.01071C6.56275 4.69681 7.03631 4.66175 7.35031 4.93161C7.66429 5.20174 7.7005 5.67523 7.43038 5.98923C6.35442 7.23993 6.16501 8.18653 6.27804 8.97165C6.40183 9.83064 6.89535 10.6305 7.50851 11.5986C8.08317 12.506 8.7783 13.5822 8.95089 14.8183C9.13366 16.1279 8.72668 17.4937 7.42843 18.9912C7.15711 19.3039 6.68372 19.3375 6.37081 19.0664C6.05808 18.7951 6.02371 18.3217 6.29464 18.0088C7.38032 16.7565 7.57402 15.8094 7.46456 15.0254C7.34477 14.1679 6.85464 13.3688 6.24191 12.4013C5.66776 11.4948 4.9714 10.419 4.79367 9.18454C4.60543 7.87617 5.00323 6.50963 6.29269 5.01071Z" fill="white"/>
<path d="M16.8034 5.01071C17.0735 4.69681 17.5471 4.66164 17.861 4.93161C18.1749 5.20175 18.2112 5.67528 17.9411 5.98923C16.865 7.24003 16.6757 8.18649 16.7888 8.97165C16.9126 9.83063 17.4061 10.6305 18.0193 11.5986C18.5939 12.5059 19.2891 13.5823 19.4616 14.8183C19.6444 16.1279 19.2374 17.4937 17.9392 18.9912C17.6679 19.3041 17.1945 19.3374 16.8816 19.0664C16.5686 18.7951 16.5342 18.3217 16.8054 18.0088C17.891 16.7565 18.0847 15.8094 17.9753 15.0254C17.8555 14.1679 17.3653 13.3687 16.7526 12.4013C16.1785 11.4948 15.4822 10.419 15.3044 9.18454C15.1162 7.87611 15.5138 6.50971 16.8034 5.01071Z" fill="white"/>
</svg>
