<svg width="24" height="24" viewBox="0 0 24 24" fill="none" xmlns="http://www.w3.org/2000/svg">
<path fill-rule="evenodd" clip-rule="evenodd" d="M5.89522 11.6004H4.35931L7.73854 1.90039H9.30751L12.6401 11.6004H11.173L10.3627 9.21182H6.7169L5.89522 11.6004ZM9.84992 7.68182L8.55102 3.84473L7.24182 7.68182H9.84992Z" fill="white"/>
<path d="M20.0218 10.1197C20.3194 9.83152 20.3269 9.35671 20.0387 9.05921L17.5387 6.47856C17.3974 6.33273 17.203 6.25041 17 6.25041C16.7969 6.25041 16.6026 6.33273 16.4613 6.47857L13.9613 9.05921C13.6731 9.35672 13.6806 9.83153 13.9782 10.1197C14.2757 10.4079 14.7505 10.4004 15.0387 10.1029L16.25 8.85252V17.0005C16.25 17.4147 16.5858 17.7505 17 17.7505C17.4142 17.7505 17.75 17.4147 17.75 17.0005V8.85249L18.9613 10.1029C19.2495 10.4004 19.7243 10.4079 20.0218 10.1197Z" fill="white"/>
<path fill-rule="evenodd" clip-rule="evenodd" d="M6.09203 22.1004L7.96086 18.9739C8.05642 18.9863 8.15205 18.9925 8.24774 18.9925H10.1063V22.1004H11.5999V12.4004H8.61043C7.39601 12.4004 6.45414 12.6747 5.80069 13.239C5.1439 13.8061 4.82304 14.6474 4.82304 15.744C4.82304 16.4847 4.96645 17.1054 5.2602 17.6C5.53584 18.0642 5.94019 18.411 6.46851 18.6413L4.32007 22.1004H6.09203ZM8.58625 17.4761C7.7877 17.4761 7.22526 17.3455 6.88 17.1017C6.55262 16.8561 6.3771 16.436 6.3771 15.8118C6.3771 15.1038 6.5661 14.6296 6.91812 14.3577C7.28864 14.0778 7.83977 13.9304 8.58625 13.9304H10.1063V17.4761H8.58625Z" fill="white"/>
</svg>
