<svg width="24" height="24" viewBox="0 0 24 24" fill="none" xmlns="http://www.w3.org/2000/svg">
<path d="M2.75 10.9902C3.16421 10.9902 3.5 11.326 3.5 11.7402V13.8402C3.5 14.2726 3.50058 14.5519 3.51795 14.7644C3.53459 14.9681 3.56285 15.0436 3.58175 15.0807C3.65365 15.2218 3.76839 15.3366 3.90951 15.4085C3.94659 15.4274 4.02213 15.4556 4.22588 15.4723C4.43838 15.4897 4.71759 15.4902 5.15 15.4902H18.85C19.2824 15.4902 19.5616 15.4897 19.7741 15.4723C19.9779 15.4556 20.0534 15.4274 20.0905 15.4085C20.2316 15.3366 20.3464 15.2218 20.4183 15.0807C20.4372 15.0436 20.4654 14.9681 20.4821 14.7644C20.4994 14.5519 20.5 14.2726 20.5 13.8402V11.7402C20.5 11.326 20.8358 10.9902 21.25 10.9902C21.6642 10.9902 22 11.326 22 11.7402V13.8692C22 14.2645 22 14.6056 21.9771 14.8865C21.9528 15.183 21.8994 15.4779 21.7548 15.7617C21.5391 16.1851 21.1948 16.5293 20.7715 16.745C20.4877 16.8896 20.1928 16.9431 19.8963 16.9673C19.6153 16.9903 19.2743 16.9902 18.8789 16.9902H5.1211C4.72573 16.9902 4.38466 16.9903 4.10373 16.9673C3.80722 16.9431 3.51231 16.8896 3.22852 16.745C2.80516 16.5293 2.46095 16.1851 2.24524 15.7617C2.10064 15.4779 2.04715 15.183 2.02293 14.8865C1.99998 14.6056 1.99999 14.2645 2 13.8691L2 11.7402C2 11.326 2.33579 10.9902 2.75 10.9902Z" fill="white"/>
</svg>
