<svg width="24" height="24" viewBox="0 0 24 24" fill="none" xmlns="http://www.w3.org/2000/svg">
<path d="M19.5 20.25C19.9141 20.25 20.2499 20.5859 20.25 21C20.2498 21.4141 19.9141 21.75 19.5 21.75H4.5C4.08589 21.75 3.75016 21.4141 3.75 21C3.75011 20.5859 4.08585 20.25 4.5 20.25H19.5Z" fill="white"/>
<path d="M11.9971 5.71191C12.2022 5.71114 12.3989 5.79439 12.541 5.94238L15.8154 9.35449C16.102 9.65331 16.0926 10.1283 15.7939 10.415C15.4952 10.7015 15.0202 10.692 14.7334 10.3936L12.75 8.32617V15.5518L14.749 13.5908C15.0446 13.3008 15.5194 13.3052 15.8096 13.6006C16.0997 13.8961 16.0953 14.3709 15.7998 14.6611L12.5254 17.876C12.2322 18.1636 11.7618 18.1618 11.4707 17.8721L8.24512 14.6572C7.95183 14.3649 7.95087 13.8901 8.24316 13.5967C8.5355 13.3034 9.01033 13.3025 9.30371 13.5947L11.25 15.5342V8.34668L9.31934 10.3896C9.0348 10.6901 8.55965 10.7032 8.25879 10.4189C7.95811 10.1344 7.94522 9.65933 8.22949 9.3584L11.4551 5.94629C11.596 5.79731 11.792 5.71272 11.9971 5.71191Z" fill="white"/>
<path d="M19.5 2.25C19.9141 2.25 20.2498 2.58592 20.25 3C20.2498 3.41404 19.9141 3.75 19.5 3.75H4.5C4.08591 3.75 3.75021 3.41404 3.75 3C3.75016 2.58592 4.08589 2.25 4.5 2.25H19.5Z" fill="white"/>
</svg>
