<svg width="24" height="24" viewBox="0 0 24 24" fill="none" xmlns="http://www.w3.org/2000/svg">
<path fill-rule="evenodd" clip-rule="evenodd" d="M20.2509 3.82525C20.5438 3.53236 20.5438 3.05748 20.2509 2.76459C19.958 2.4717 19.4831 2.4717 19.1902 2.76459L14.6421 7.31274L13.1304 3.67819C12.8025 2.88975 11.6856 2.88975 11.3576 3.67819L9.28078 8.6715L3.89009 9.10367C3.0389 9.17191 2.69376 10.2342 3.34227 10.7897L7.44941 14.3079L7.38754 14.5673L2.21967 19.7352C1.92678 20.028 1.92678 20.5029 2.21967 20.7958C2.51256 21.0887 2.98744 21.0887 3.28033 20.7958L6.72301 17.3531L6.72277 17.3541L8.74793 15.329L8.74817 15.328L14.1858 9.89035L20.2509 3.82525ZM13.4947 8.46009L12.244 5.453L10.5391 9.55209C10.4009 9.88447 10.0883 10.1116 9.72943 10.1403L5.30412 10.4951L8.61962 13.3352L13.4947 8.46009Z" fill="white"/>
<path d="M15.9614 10.2368L17.3546 8.84366L20.5979 9.10367C21.4491 9.17191 21.7943 10.2342 21.1457 10.7897L17.0386 14.3079L18.2934 19.5683C18.4915 20.3989 17.5879 21.0554 16.8592 20.6103L12.244 17.7914L7.62882 20.6103C7.03571 20.9726 6.32676 20.6051 6.19024 20.008L8.08341 18.1148L7.95492 18.6535L11.7436 16.3393C12.0508 16.1517 12.4372 16.1517 12.7444 16.3393L16.5331 18.6535L15.503 14.3351C15.4195 13.9849 15.5389 13.6175 15.8123 13.3833L19.1839 10.4951L15.9614 10.2368Z" fill="white"/>
</svg>
