<svg width="24" height="24" viewBox="0 0 24 24" fill="none" xmlns="http://www.w3.org/2000/svg">
<path d="M20.007 3.82525C20.2999 3.53236 20.2999 3.05748 20.007 2.76459C19.7141 2.4717 19.2392 2.4717 18.9463 2.76459L14.3982 7.31274L12.8865 3.67819C12.5586 2.88975 11.4417 2.88975 11.1137 3.67819L9.03689 8.6715L3.64619 9.10367C2.795 9.17191 2.44986 10.2342 3.09837 10.7897L7.20552 14.3079L7.14364 14.5673L1.97577 19.7352C1.68288 20.028 1.68288 20.5029 1.97577 20.7958C2.26867 21.0887 2.74354 21.0887 3.03643 20.7958L6.47911 17.3531L6.47888 17.3541L20.007 3.82525Z" fill="white"/>
<path d="M7.38492 20.6103C6.79181 20.9726 6.08287 20.6051 5.94635 20.008L17.1107 8.84366L20.354 9.10367C21.2052 9.17191 21.5504 10.2342 20.9018 10.7897L16.7947 14.3079L18.0495 19.5683C18.2476 20.3989 17.344 21.0554 16.6153 20.6103L12.0001 17.7914L7.38492 20.6103Z" fill="white"/>
</svg>
