<svg width="24" height="24" viewBox="0 0 24 24" fill="none" xmlns="http://www.w3.org/2000/svg">
<path d="M12.1682 3.97261C11.7785 3.209 10.6874 3.209 10.2977 3.97261L8.04038 8.39577L3.13616 9.17575C2.2895 9.3104 1.95233 10.3481 2.55815 10.9547L6.06728 14.4683L5.2936 19.3736C5.16003 20.2204 6.04275 20.8617 6.80686 20.473L11.0389 18.3201C11.4081 18.1323 11.5551 17.6807 11.3673 17.3116C11.1795 16.9424 10.728 16.7953 10.3588 16.9831L6.91266 18.7362L7.58463 14.4759C7.63693 14.1444 7.52757 13.8078 7.29039 13.5703L4.2426 10.5186L8.50206 9.8412C8.83353 9.78848 9.11983 9.58048 9.27239 9.28152L11.2329 5.43987L13.0478 8.99607C13.2361 9.36501 13.6878 9.51147 14.0567 9.32318C14.4257 9.1349 14.5721 8.68317 14.3838 8.31422L12.1682 3.97261Z" fill="white" fill-opacity="0.96"/>
<path fill-rule="evenodd" clip-rule="evenodd" d="M17.0606 9.70162C16.6709 8.938 15.5798 8.938 15.1901 9.70162L13.9759 12.0807L11.3381 12.5003C10.4914 12.6349 10.1542 13.6726 10.7601 14.2792L12.6475 16.1691L12.2314 18.8075C12.0978 19.6543 12.9805 20.2957 13.7447 19.907L16.1253 18.6959L18.506 19.907C19.2701 20.2957 20.1528 19.6543 20.0192 18.8075L19.6031 16.1691L21.4906 14.2792C22.0964 13.6726 21.7592 12.6349 20.9126 12.5003L18.2747 12.0807L17.0606 9.70162ZM15.2079 12.9665L16.1253 11.1689L17.0427 12.9665C17.1953 13.2654 17.4816 13.4734 17.813 13.5261L19.8061 13.8431L18.38 15.2711C18.1428 15.5086 18.0335 15.8451 18.0857 16.1767L18.4002 18.1702L16.6014 17.2551C16.3023 17.1029 15.9484 17.1029 15.6492 17.2551L13.8504 18.1702L14.1649 16.1767C14.2172 15.8451 14.1078 15.5086 13.8706 15.2711L12.4445 13.8431L14.4376 13.5261C14.7691 13.4734 15.0554 13.2654 15.2079 12.9665Z" fill="white" fill-opacity="0.96"/>
</svg>
