<svg width="24" height="24" viewBox="0 0 24 24" fill="none" xmlns="http://www.w3.org/2000/svg">
<path d="M10.3574 3.27347C10.9212 1.74996 13.0768 1.75001 13.6406 3.27347L15.5137 8.33695C15.539 8.40509 15.593 8.45906 15.6611 8.48441L20.7246 10.3575C22.2482 10.9212 22.2482 13.0769 20.7246 13.6407L15.6611 15.5137C15.593 15.539 15.539 15.593 15.5137 15.6612L13.6406 20.7246C13.0769 22.2482 10.9212 22.2482 10.3574 20.7246L8.48438 15.6612C8.45903 15.593 8.40506 15.539 8.33692 15.5137L3.27344 13.6407C1.75002 13.0768 1.74998 10.9213 3.27344 10.3575L8.33692 8.48441C8.4051 8.45908 8.45905 8.40513 8.48438 8.33695L10.3574 3.27347Z" fill="white"/>
</svg>
