<svg width="24" height="24" viewBox="0 0 24 24" fill="none" xmlns="http://www.w3.org/2000/svg">
<path fill-rule="evenodd" clip-rule="evenodd" d="M12.8864 3.67824C12.5585 2.8898 11.4416 2.88981 11.1137 3.67824L9.03681 8.67156L3.64612 9.10373C2.79493 9.17197 2.44979 10.2342 3.0983 10.7897L7.20544 14.3079L5.95064 19.5683C5.75251 20.399 6.65612 21.0555 7.38485 20.6104L12 17.7914L16.6152 20.6104C17.344 21.0555 18.2476 20.399 18.0494 19.5683L16.7946 14.3079L20.9018 10.7897C21.5503 10.2342 21.2051 9.17197 20.354 9.10373L14.9633 8.67156L12.8864 3.67824ZM12 16.1987C12.1734 16.1987 12.3468 16.2456 12.5004 16.3394L16.2891 18.6535L15.259 14.3352C15.1755 13.985 15.2949 13.6175 15.5683 13.3833L18.9399 10.4952L14.5146 10.1404C14.1558 10.1116 13.8432 9.88453 13.7049 9.55214L12 5.45305L12 16.1987Z" fill="white"/>
</svg>
