<svg width="24" height="24" viewBox="0 0 24 24" fill="none" xmlns="http://www.w3.org/2000/svg">
<path fill-rule="evenodd" clip-rule="evenodd" d="M5.80941 5.15669C5.33237 4.60626 5.72336 3.75 6.45175 3.75H17.1327C17.6022 3.75 17.9827 4.13056 17.9827 4.6V5.67857C17.9827 6.09278 17.647 6.42857 17.2327 6.42857C16.8185 6.42857 16.4827 6.09278 16.4827 5.67857V5.25H8.88299L13.8127 11.5242C13.8515 11.5713 13.8838 11.6224 13.9094 11.6762C14.0075 11.8807 14.0059 12.1166 13.9126 12.3171C13.8875 12.371 13.8558 12.4223 13.8176 12.4698L8.98666 18.75H16.4827V18.3214C16.4827 17.9072 16.8185 17.5714 17.2327 17.5714C17.647 17.5714 17.9827 17.9072 17.9827 18.3214V19.4C17.9827 19.8694 17.6022 20.25 17.1327 20.25H6.45175C5.72336 20.25 5.33237 19.3937 5.80941 18.8433L11.7403 12L5.80941 5.15669Z" fill="white"/>
</svg>
