<svg width="24" height="24" viewBox="0 0 24 24" fill="none" xmlns="http://www.w3.org/2000/svg">
<path d="M12.5475 3.48735C12.4106 3.34127 12.216 3.25 12 3.25C11.784 3.25 11.5894 3.3413 11.4525 3.4874L8.45385 6.67348C8.16996 6.97511 8.18435 7.44976 8.48598 7.73365C8.78761 8.01754 9.26227 8.00315 9.54616 7.70152L11.25 5.89118V10.375C11.25 10.7892 11.5858 11.125 12 11.125C12.4142 11.125 12.75 10.7892 12.75 10.375V5.89118L14.4539 7.70152C14.7378 8.00315 15.2124 8.01754 15.5141 7.73365C15.8157 7.44976 15.8301 6.97511 15.5462 6.67348L12.5475 3.48735Z" fill="white"/>
<path d="M5.73598 10.8914C6.03761 10.6075 6.51226 10.6218 6.79615 10.9235L7.79615 11.986C8.08004 12.2876 8.06566 12.7623 7.76403 13.0462C7.4624 13.33 6.98774 13.3157 6.70385 13.014L5.70385 11.9515C5.41996 11.6499 5.43435 11.1752 5.73598 10.8914Z" fill="white"/>
<path d="M12 13.25C10.4263 13.25 8.95163 14.0012 7.8883 15.2772C6.98054 16.3665 6.42605 17.77 6.2855 19.25H3C2.58579 19.25 2.25 19.5858 2.25 20C2.25 20.4142 2.58579 20.75 3 20.75H21C21.4142 20.75 21.75 20.4142 21.75 20C21.75 19.5858 21.4142 19.25 21 19.25H17.7145C17.5739 17.77 17.0195 16.3665 16.1117 15.2772C15.0484 14.0012 13.5737 13.25 12 13.25Z" fill="white"/>
<path d="M3 16.0625C2.58579 16.0625 2.25 16.3983 2.25 16.8125C2.25 17.2267 2.58579 17.5625 3 17.5625H5C5.41421 17.5625 5.75 17.2267 5.75 16.8125C5.75 16.3983 5.41421 16.0625 5 16.0625H3Z" fill="white"/>
<path d="M18.25 16.8125C18.25 16.3983 18.5858 16.0625 19 16.0625H21C21.4142 16.0625 21.75 16.3983 21.75 16.8125C21.75 17.2267 21.4142 17.5625 21 17.5625H19C18.5858 17.5625 18.25 17.2267 18.25 16.8125Z" fill="white"/>
<path d="M18.2962 11.9515C18.58 11.6499 18.5657 11.1752 18.264 10.8914C17.9624 10.6075 17.4877 10.6218 17.2039 10.9235L16.2039 11.986C15.92 12.2876 15.9343 12.7623 16.236 13.0462C16.5376 13.33 17.0123 13.3157 17.2962 13.014L18.2962 11.9515Z" fill="white"/>
</svg>
