<svg width="24" height="24" viewBox="0 0 24 24" fill="none" xmlns="http://www.w3.org/2000/svg">
<path d="M17.5357 8.42055V9.48884H21.5V8.42055H20.3071V2.5H19.5089L17.5357 3.92772V5.11582L19.1681 3.92772V8.42055H17.5357Z" fill="white"/>
<path fill-rule="evenodd" clip-rule="evenodd" d="M11.3652 17.5L7.99101 7.33843H6.32734L3 17.5H4.48793L5.26119 15.0903H9.02202L9.80699 17.5H11.3652ZM8.48308 13.4209H5.78841L7.13574 9.25461L8.48308 13.4209Z" fill="white"/>
<path fill-rule="evenodd" clip-rule="evenodd" d="M12.0916 10.6337V12.7531C12.49 11.9837 13.1109 11.4611 14.1888 11.4611C14.9737 11.4611 15.3721 11.7805 15.3721 12.8112V13.1305H14.0482C12.6071 13.1305 11.6347 13.5951 11.6347 15.2499C11.6347 16.6726 12.3376 17.5 13.521 17.5C14.4582 17.5 15.1729 16.9193 15.4541 16.0774V17.3839H16.7429V12.5934C16.7429 10.7063 15.8993 9.98044 14.1888 9.98044C13.1812 9.98044 12.4782 10.2708 12.0916 10.6337ZM15.3721 14.829C15.3135 15.3225 14.88 15.9758 13.9545 15.9758C13.3452 15.9758 13.0172 15.6274 13.0172 15.0757C13.0172 14.4225 13.4038 14.2338 14.2122 14.2338H15.3721V14.829Z" fill="white"/>
</svg>
