<svg width="24" height="24" viewBox="0 0 24 24" fill="none" xmlns="http://www.w3.org/2000/svg">
<path fill-rule="evenodd" clip-rule="evenodd" d="M17.5 12C20.5376 12 23 14.4624 23 17.5C23 20.5376 20.5376 23 17.5 23C14.4624 23 12 20.5376 12 17.5C12 14.4624 14.4624 12 17.5 12ZM17.5 14C17.2239 14 17 14.2239 17 14.5V17H14.5C14.2239 17 14 17.2239 14 17.5C14 17.7761 14.2239 18 14.5 18H17V20.5C17 20.7761 17.2239 21 17.5 21C17.7761 21 18 20.7761 18 20.5V18H20.5C20.7761 18 21 17.7761 21 17.5C21 17.2239 20.7761 17 20.5 17H18V14.5C18 14.2239 17.7761 14 17.5 14Z" fill="white"/>
<path d="M18.5 4C20.433 4 22 5.567 22 7.5V12.8115C21.202 12.0454 20.2097 11.4809 19.1035 11.2002C19.913 10.9442 20.5 10.1881 20.5 9.29395V7.41211C20.5 6.30754 19.6046 5.41211 18.5 5.41211H5.5C4.39543 5.41211 3.5 6.30754 3.5 7.41211V9.29395C3.5 10.3985 4.39543 11.2939 5.5 11.2939H15.5615C14.6396 11.5816 13.8063 12.0695 13.1113 12.7061H5.5C4.39543 12.7061 3.5 13.6015 3.5 14.7061V16.5879C3.5 17.6925 4.39543 18.5879 5.5 18.5879H11.0928C11.1756 19.0795 11.3124 19.5525 11.499 20H5.5C3.567 20 2 18.433 2 16.5V7.5C2 5.567 3.567 4 5.5 4H18.5Z" fill="white"/>
</svg>
