<svg width="24" height="24" viewBox="0 0 24 24" fill="none" xmlns="http://www.w3.org/2000/svg">
<path d="M9.2998 2C10.4044 2 11.2998 2.89543 11.2998 4V20C11.2998 21.1046 10.4044 22 9.2998 22H7.40039C6.29582 22 5.40039 21.1046 5.40039 20V4C5.40039 2.89543 6.29582 2 7.40039 2H9.2998Z" fill="white"/>
<path d="M16.5996 2C17.7042 2 18.5996 2.89543 18.5996 4V20C18.5996 21.1046 17.7042 22 16.5996 22H14.7002C13.5956 22 12.7002 21.1046 12.7002 20V4C12.7002 2.89543 13.5956 2 14.7002 2H16.5996Z" fill="white"/>
</svg>
