<svg width="24" height="24" viewBox="0 0 24 24" fill="none" xmlns="http://www.w3.org/2000/svg">
<path fill-rule="evenodd" clip-rule="evenodd" d="M17.5 12C20.5376 12 23 14.4624 23 17.5C23 20.5376 20.5376 23 17.5 23C14.4624 23 12 20.5376 12 17.5C12 14.4624 14.4624 12 17.5 12ZM17.5 14C17.2239 14 17 14.2239 17 14.5V17H14.5C14.2239 17 14 17.2239 14 17.5C14 17.7761 14.2239 18 14.5 18H17V20.5C17 20.7761 17.2239 21 17.5 21C17.7761 21 18 20.7761 18 20.5V18H20.5C20.7761 18 21 17.7761 21 17.5C21 17.2239 20.7761 17 20.5 17H18V14.5C18 14.2239 17.7761 14 17.5 14Z" fill="white"/>
<path d="M16.5 2C18.433 2 20 3.567 20 5.5V11.498C19.5525 11.3114 19.0795 11.1746 18.5879 11.0918V5.5C18.5879 4.39543 17.6925 3.5 16.5879 3.5H14.7061C13.6015 3.5 12.7061 4.39543 12.7061 5.5V13.1113C12.0695 13.8063 11.5816 14.6396 11.2939 15.5615V5.5C11.2939 4.39543 10.3985 3.5 9.29395 3.5H7.41211C6.30754 3.5 5.41211 4.39543 5.41211 5.5V18.5C5.41211 19.6046 6.30754 20.5 7.41211 20.5H9.29395C10.1881 20.5 10.9442 19.913 11.2002 19.1035C11.4809 20.2097 12.0454 21.202 12.8115 22H7.5C5.567 22 4 20.433 4 18.5V5.5C4 3.567 5.567 2 7.5 2H16.5Z" fill="white"/>
</svg>
