<svg width="24" height="24" viewBox="0 0 24 24" fill="none" xmlns="http://www.w3.org/2000/svg">
<path fill-rule="evenodd" clip-rule="evenodd" d="M21 12.02V6C21 4.34 19.65 3 18 3H6C4.34 3 3 4.34 3 6V18C3 19.65 4.34 21 6 21H12.02C11.72 20.53 11.48 20.03 11.31 19.5H10V15.5H11.31C11.48 14.96 11.72 14.46 12.02 14H10V10H14V12.02C14.46 11.72 14.96 11.48 15.5 11.31V10H19.5V11.31C20.03 11.48 20.53 11.72 21 12.02ZM6 19.5H8.5V8.5H19.5V6C19.5 5.87 19.48 5.75 19.45 5.63C19.43 5.56 19.41 5.48 19.38 5.41C19.34 5.33 19.31 5.26 19.26 5.19C19.2 5.1 19.13 5.01 19.06 4.93C18.98 4.85667 18.8933 4.79 18.8 4.73C18.73 4.68 18.66 4.65 18.58 4.61C18.51 4.58 18.43 4.56 18.36 4.54C18.24 4.51 18.12 4.5 18 4.5H6C5.87 4.5 5.75 4.51 5.63 4.54C5.56 4.56 5.48 4.58 5.41 4.61C5.33 4.65 5.26 4.68 5.19 4.73C5.09667 4.79 5.01 4.85667 4.93 4.93C4.86 5.01 4.79 5.1 4.73 5.19C4.68 5.26 4.65 5.33 4.61 5.41C4.58 5.48 4.56 5.56 4.54 5.63C4.51 5.75 4.5 5.87 4.5 6V18C4.5 18.12 4.51 18.24 4.54 18.36C4.56 18.43 4.58 18.51 4.61 18.58C4.65 18.66 4.68 18.73 4.73 18.8C4.79 18.89 4.86 18.98 4.93 19.06C5.01 19.13 5.1 19.2 5.19 19.26C5.26 19.31 5.33 19.34 5.41 19.38C5.48 19.41 5.56 19.43 5.63 19.45C5.75 19.48 5.87 19.5 6 19.5ZM23 17.5C23 14.46 20.53 12 17.5 12C14.46 12 12 14.46 12 17.5C12 20.53 14.46 23 17.5 23C20.53 23 23 20.53 23 17.5ZM18.35 13.6C18.74 13.28 19.32 13.31 19.68 13.67L21.26 15.25C21.62 15.62 21.65 16.2 21.33 16.59L21.26 16.67C20.87 17.05 20.24 17.68 19.77 18.15C19.98 19.04 19.89 19.83 19.29 20.57L19.23 20.63C18.91 20.95 18.42 20.89 18.14 20.61C17.59 20.06 17.07 19.54 16.58 19.05L15.16 20.47C14.97 20.67 14.65 20.67 14.46 20.47C14.26 20.28 14.26 19.96 14.46 19.76L15.88 18.35L14.32 16.8C14.02 16.5 13.98 15.96 14.37 15.64L14.51 15.54C14.83 15.3 15.18 15.15 15.56 15.09C15.96 15.03 16.36 15.06 16.78 15.16C17.25 14.68 17.88 14.06 18.27 13.67L18.35 13.6ZM20.55 15.96L18.99 17.53L18.91 17.61C18.76 17.81 18.72 18.07 18.78 18.3C18.93 18.9 18.9 19.33 18.66 19.72C17.37 18.43 16.28 17.33 15.21 16.27C15.38 16.17 15.55 16.11 15.72 16.08C15.97 16.04 16.26 16.06 16.63 16.15L16.73 16.17C16.94 16.2 17.15 16.15 17.33 16.02L17.41 15.94L18.97 14.38L20.55 15.96Z" fill="white"/>
</svg>
