<svg width="24" height="24" viewBox="0 0 24 24" fill="none" xmlns="http://www.w3.org/2000/svg">
<path fill-rule="evenodd" clip-rule="evenodd" d="M11.3008 20L11.29 20.2041C11.1946 21.1454 10.4461 21.8935 9.50488 21.9893L9.30078 22H7.40039C6.29582 22 5.40039 21.1046 5.40039 20V4L5.41113 3.7959C5.51341 2.78724 6.36475 2 7.40039 2H9.30078L9.50488 2.01074C10.4461 2.10652 11.1946 2.85458 11.29 3.7959L11.3008 4V20ZM9.80078 4C9.80078 3.72411 9.57658 3.50041 9.30078 3.5H7.40039C7.12425 3.5 6.90039 3.72386 6.90039 4V20C6.90039 20.2761 7.12425 20.5 7.40039 20.5H9.30078C9.57658 20.4996 9.80078 20.2759 9.80078 20V4Z" fill="white"/>
<path fill-rule="evenodd" clip-rule="evenodd" d="M18.6006 20L18.5898 20.2041C18.4944 21.1455 17.746 21.8936 16.8047 21.9893L16.6006 22H14.7002C13.5956 22 12.7002 21.1046 12.7002 20V4L12.7109 3.7959C12.8132 2.78723 13.6646 2 14.7002 2H16.6006L16.8047 2.01074C17.746 2.10645 18.4944 2.85452 18.5898 3.7959L18.6006 4V20ZM17.1006 4C17.1006 3.72405 16.8765 3.50031 16.6006 3.5H14.7002C14.4241 3.5 14.2002 3.72386 14.2002 4V20C14.2002 20.2761 14.4241 20.5 14.7002 20.5H16.6006C16.8765 20.4997 17.1006 20.276 17.1006 20V4Z" fill="white"/>
</svg>
