<svg width="24" height="24" viewBox="0 0 24 24" fill="none" xmlns="http://www.w3.org/2000/svg">
<path d="M11.9439 2.00113C14.3421 1.98764 16.6633 2.83702 18.4869 4.39176L20.4097 2.46988C20.7027 2.17731 21.1775 2.1771 21.4703 2.46988C21.7629 2.76268 21.7628 3.23756 21.4703 3.53043L12.5308 12.4699C12.238 12.7627 11.7632 12.7626 11.4703 12.4699C11.1774 12.177 11.1774 11.7022 11.4703 11.4093L14.3912 8.48746C13.6872 8.00826 12.8531 7.74952 11.9967 7.75016C11.0343 7.75104 10.1002 8.07842 9.34822 8.67887C8.59613 9.27951 8.07072 10.1183 7.85701 11.0568C7.64336 11.9954 7.75437 12.9788 8.17244 13.8459C8.59052 14.713 9.29034 15.4129 10.1578 15.8302C11.025 16.2474 12.0086 16.358 12.9468 16.1437C13.8851 15.9292 14.7238 15.4022 15.3238 14.6496C15.9237 13.8969 16.2506 12.9626 16.2506 12.0002C16.2506 11.586 16.5864 11.2502 17.0006 11.2502C17.4146 11.2503 17.7505 11.5861 17.7506 12.0002C17.7506 13.3024 17.3084 14.5668 16.4967 15.5851C15.6849 16.6031 14.5511 17.3154 13.2818 17.6056C12.0122 17.8957 10.681 17.7464 9.5074 17.1818C8.33382 16.6171 7.3865 15.6703 6.82087 14.4972C6.25535 13.3242 6.10508 11.9936 6.39411 10.7238C6.68324 9.45406 7.39511 8.31965 8.41267 7.50699C9.4302 6.69458 10.6936 6.25126 11.9957 6.25016C13.2494 6.2492 14.4671 6.65916 15.4654 7.41324L17.4215 5.45719C15.8856 4.18462 13.9503 3.48984 11.9517 3.50113C9.89025 3.51289 7.90337 4.27305 6.36091 5.64078C4.81844 7.00856 3.82524 8.89039 3.56697 10.9357C3.30883 12.9809 3.80261 15.0508 4.95661 16.7589C6.11083 18.4672 7.84735 19.6982 9.84138 20.2218C11.8354 20.7454 13.9519 20.5263 15.7965 19.6056C17.641 18.6849 19.0886 17.1253 19.8687 15.217C20.6488 13.3086 20.7081 11.1809 20.0367 9.2316C19.9021 8.84011 20.1101 8.41334 20.5015 8.27848C20.8931 8.14362 21.3196 8.3519 21.4547 8.74332C22.2445 11.0364 22.174 13.5384 21.2564 15.7834C20.3387 18.0284 18.6365 19.8642 16.4664 20.9474C14.2962 22.0307 11.8055 22.2881 9.45954 21.672C7.11391 21.0559 5.0722 19.6083 3.71443 17.5988C2.35661 15.5891 1.77501 13.1545 2.07869 10.7482C2.38249 8.3418 3.551 6.12696 5.36579 4.51774C7.18054 2.9087 9.5186 2.01485 11.9439 2.00113Z" fill="white"/>
</svg>
