<svg width="24" height="24" viewBox="0 0 24 24" fill="none" xmlns="http://www.w3.org/2000/svg">
<path d="M18.6025 5.13222C18.6245 5.12372 20.2709 4.49389 20.1328 6.05996C20.0864 6.70926 19.7157 8.98186 19.3447 11.4398C18.7893 14.9109 18.1871 18.7052 18.1845 18.7211C18.1845 18.7211 18.0921 19.7875 17.3037 19.973C16.5158 20.1584 15.2184 19.3253 14.9853 19.1391C14.7998 19 11.5066 16.9123 10.3007 15.892C9.97619 15.6138 9.60541 15.0576 10.3466 14.4086C12.0163 12.8781 14.011 10.9757 15.2168 9.76992C15.7733 9.21324 16.3292 7.91503 14.0107 9.4916C10.7179 11.7641 7.47164 13.8978 7.47164 13.8978C7.46659 13.901 6.72504 14.3604 5.33883 13.9447C3.95789 13.5305 2.34823 12.9784 2.32418 12.9701C2.32418 12.9701 1.2108 12.2747 3.11227 11.5326C3.13269 11.5242 11.1386 8.23855 13.9179 7.08047C14.9847 6.61672 18.6025 5.13222 18.6025 5.13222Z" fill="white"/>
</svg>
