<svg width="24" height="24" viewBox="0 0 24 24" fill="none" xmlns="http://www.w3.org/2000/svg">
<path fill-rule="evenodd" clip-rule="evenodd" d="M11.9998 7.50004C12.414 7.50004 12.7498 7.83585 12.7498 8.25004V13.75C12.7498 13.7852 12.7457 13.8196 12.741 13.8536C13.8995 14.1772 14.7498 15.2382 14.7498 16.5C14.7498 18.0188 13.5186 19.25 11.9998 19.25C10.4811 19.2499 9.24979 18.0187 9.24979 16.5C9.2498 15.2387 10.0998 14.1777 11.2576 13.8536C11.2529 13.8197 11.2498 13.7852 11.2498 13.75V8.25004C11.2498 7.83594 11.5857 7.50019 11.9998 7.50004ZM11.9998 15.25C11.3096 15.2502 10.7498 15.8098 10.7498 16.5C10.7498 17.1903 11.3096 17.7499 11.9998 17.75C12.6901 17.75 13.2498 17.1904 13.2498 16.5C13.2498 15.8097 12.6901 15.25 11.9998 15.25Z" fill="white"/>
<path fill-rule="evenodd" clip-rule="evenodd" d="M12.0174 2.00004C12.5094 2.00248 12.9959 2.10778 13.4451 2.30863C13.8943 2.50952 14.2969 2.80194 14.6267 3.16703C14.9565 3.53219 15.2068 3.96252 15.3611 4.42973C15.4227 4.6161 15.468 4.807 15.4978 5.00004H15.4998V12.2579C16.2247 12.8559 16.7878 13.6325 17.1297 14.5166C17.5607 15.6316 17.6172 16.8572 17.2898 18.0069C16.9624 19.1564 16.2689 20.1682 15.3152 20.8887C14.3616 21.6091 13.1988 21.9992 12.0037 22C10.8085 22.0008 9.64486 21.6118 8.69021 20.8926C7.73572 20.1734 7.04062 19.1627 6.7117 18.0137C6.38281 16.8646 6.43753 15.6389 6.86697 14.5235C7.20842 13.6368 7.77322 12.8584 8.49979 12.2588V5.00004H8.50271C8.53417 4.79586 8.5822 4.59399 8.6492 4.3975C8.8081 3.93171 9.06285 3.50363 9.39627 3.14164C9.7297 2.7797 10.1355 2.49053 10.5867 2.29399C11.0377 2.09763 11.5254 1.99768 12.0174 2.00004ZM12.0096 3.50004C11.7261 3.49875 11.4452 3.5568 11.1853 3.66996C10.9254 3.78322 10.6919 3.94972 10.4998 4.15824C10.3078 4.36671 10.1607 4.6127 10.0691 4.8809C10.0389 4.96961 10.0175 5.06074 9.99979 5.15238V13.0166C9.96512 13.0488 9.92717 13.0786 9.88553 13.1045C9.14779 13.564 8.57973 14.2515 8.26736 15.0625C7.95508 15.8737 7.91497 16.765 8.15408 17.6006C8.39331 18.4363 8.89834 19.1723 9.59256 19.6954C10.2868 20.2184 11.1335 20.5005 12.0027 20.5C12.8719 20.4994 13.7174 20.2153 14.4109 19.6914C15.1045 19.1674 15.6083 18.4317 15.8465 17.5957C16.0846 16.7596 16.0437 15.8685 15.7303 15.0577C15.4167 14.2469 14.8477 13.5601 14.1092 13.1016C14.0693 13.0768 14.0332 13.0482 13.9998 13.0176V5.14164C13.9836 5.06028 13.9634 4.97952 13.9373 4.90043C13.8483 4.63113 13.7036 4.38336 13.5135 4.17289C13.3234 3.96251 13.0916 3.79354 12.8328 3.67778C12.5739 3.56207 12.2931 3.50144 12.0096 3.50004Z" fill="white"/>
</svg>
