<svg width="24" height="24" viewBox="0 0 24 24" fill="none" xmlns="http://www.w3.org/2000/svg">
<path fill-rule="evenodd" clip-rule="evenodd" d="M9.12701 4.26022C9.3797 4.2181 9.6364 4.30788 9.80777 4.49829L14.3078 9.49829C14.4317 9.63601 14.5003 9.81473 14.5003 10V12.25H14.75V7.5C14.75 7.08579 15.0858 6.75 15.5 6.75H19.4919C19.7907 6.74993 20.0827 6.83909 20.3305 7.00607C20.5784 7.17311 20.7707 7.4104 20.8828 7.6875L20.8839 7.6902L22.1964 10.9715C22.2495 11.1044 22.262 11.2435 22.2396 11.375C22.2464 11.4156 22.25 11.4574 22.25 11.5V16.2501C22.25 16.6479 22.092 17.0294 21.8107 17.3107C21.5294 17.592 21.1478 17.7501 20.75 17.7501H19.1555C18.8224 19.0439 17.6479 20 16.25 20C14.8521 20 13.6775 19.0439 13.3445 17.75H8.65549C8.32245 19.0439 7.14788 20 5.75 20C4.33057 20 3.14138 19.0142 2.82971 17.6899C2.58992 17.6199 2.36915 17.4905 2.18934 17.3107C1.90803 17.0294 1.75 16.6478 1.75 16.25V13.75C1.75 13.3522 1.90804 12.9706 2.18934 12.6893C2.47064 12.408 2.85217 12.25 3.25 12.25H13.0003V10.2878L8.96794 5.80741L6.73751 6.17913L6.56331 7.77727C7.14753 8.10866 7.49932 8.78205 7.49932 9.45771C7.49932 10.4056 6.80756 11.3499 5.7502 11.3499C4.96994 11.3499 4.26429 10.8022 4.03396 10.0606C3.91109 9.66506 4.13215 9.24478 4.52772 9.12191C4.92329 8.99904 5.34357 9.2201 5.46644 9.61567C5.51166 9.76125 5.65936 9.84993 5.7502 9.84993C5.78407 9.84993 5.83596 9.83605 5.89225 9.77169C5.94987 9.70582 5.99932 9.59714 5.99932 9.45771C5.99932 9.31867 5.94991 9.20997 5.89207 9.14389C5.83544 9.07919 5.7834 9.06548 5.7502 9.06548C5.53714 9.06548 5.33414 8.97486 5.19188 8.81625C5.04962 8.65765 4.98153 8.44602 5.00462 8.23421L5.30062 5.51865C5.33392 5.21311 5.54633 4.97053 5.82194 4.88403C5.91036 4.82248 6.01349 4.7791 6.12683 4.76022L9.12701 4.26022ZM16.25 8.25V14C17.6479 14 18.8225 14.9561 19.1555 16.2501H20.75V11.5C20.75 11.469 20.7519 11.4384 20.7555 11.4083L19.4922 8.25H16.25ZM14.75 13.75H3.25V15.3411C3.78746 14.5328 4.70651 14 5.75 14C7.14788 14 8.32245 14.9561 8.65549 16.25H13.3445C13.5474 15.4619 14.0624 14.7991 14.75 14.4013V13.75ZM5.75 18.5C4.92157 18.5 4.25 17.8284 4.25 17C4.25 16.1716 4.92157 15.5 5.75 15.5C6.57843 15.5 7.25 16.1716 7.25 17C7.25 17.8284 6.57843 18.5 5.75 18.5ZM16.25 15.5C15.4216 15.5 14.75 16.1716 14.75 17C14.75 17.8284 15.4216 18.5 16.25 18.5C17.0784 18.5 17.75 17.8284 17.75 17C17.75 16.1716 17.0784 15.5 16.25 15.5Z" fill="white"/>
</svg>
