<svg width="24" height="24" viewBox="0 0 24 24" fill="none" xmlns="http://www.w3.org/2000/svg">
<path fill-rule="evenodd" clip-rule="evenodd" d="M9.12 4.25972C9.37 4.20972 9.63 4.29972 9.8 4.48972L14.3 9.48972C14.43 9.62972 14.5 9.80972 14.5 9.99972V12.2497H14.75V7.49972C14.75 7.07972 15.08 6.74972 15.5 6.74972H19.49C19.79 6.74972 20.08 6.82972 20.33 6.99972C20.57 7.16972 20.77 7.40972 20.88 7.67972V7.68972L22.19 10.9697C22.25 11.0997 22.26 11.2397 22.24 11.3697C22.24 11.4097 22.25 11.4497 22.25 11.4997V16.2497C22.25 16.6397 22.09 17.0197 21.81 17.3097C21.52 17.5897 21.14 17.7497 20.75 17.7497H19.15C18.82 19.0397 17.64 19.9997 16.25 19.9997C14.85 19.9997 13.67 19.0397 13.34 17.7497H8.65C8.32 19.0397 7.14 19.9997 5.75 19.9997C4.33 19.9997 3.14 19.0097 2.83 17.6797C2.58 17.6097 2.36 17.4897 2.18 17.3097C1.9 17.0197 1.75 16.6397 1.75 16.2497V13.7497C1.75 13.3497 1.9 12.9697 2.18 12.6797C2.47 12.3997 2.85 12.2497 3.25 12.2497H13V10.2797L8.96 5.79972L6.73 6.16972L6.56 7.76972C7.14 8.09972 7.5 8.77972 7.5 9.44972C7.5 10.3997 6.8 11.3397 5.75 11.3397C4.97 11.3397 4.26 10.7997 4.03 10.0597C3.91 9.65972 4.13 9.23972 4.52 9.11972C4.92 8.98972 5.34 9.21972 5.46 9.60972C5.51 9.75972 5.66 9.83972 5.75 9.83972C5.78 9.83972 5.83 9.82972 5.89 9.76972C5.94 9.69972 6 9.58972 6 9.44972C6 9.30972 5.94 9.19972 5.89 9.13972C5.83 9.06972 5.78 9.05972 5.75 9.05972C5.53 9.05972 5.33 8.96972 5.19 8.80972C5.04 8.64972 4.98 8.43972 5 8.22972L5.3 5.50972C5.33 5.20972 5.54 4.96972 5.82 4.87972C5.91 4.81972 6.01 4.76972 6.12 4.75972L9.12 4.25972ZM5.75 18.4997C4.92 18.4997 4.25 17.8197 4.25 16.9997C4.25 16.1697 4.92 15.4997 5.75 15.4997C6.57 15.4997 7.25 16.1697 7.25 16.9997C7.25 17.8197 6.57 18.4997 5.75 18.4997ZM16.25 15.4997C15.42 15.4997 14.75 16.1697 14.75 16.9997C14.75 17.8197 15.42 18.4997 16.25 18.4997C17.07 18.4997 17.75 17.8197 17.75 16.9997C17.75 16.1697 17.07 15.4997 16.25 15.4997Z" fill="white"/>
</svg>
