<svg width="24" height="24" viewBox="0 0 24 24" fill="none" xmlns="http://www.w3.org/2000/svg">
<path fill-rule="evenodd" clip-rule="evenodd" d="M15.1077 1.92676L15.3118 1.93164H15.3138C15.9572 1.95915 16.4931 2.11727 16.9378 2.37988L17.011 2.39746C17.7831 2.57548 18.8641 2.8923 19.8011 3.25098C20.2689 3.4301 20.7114 3.62296 21.0638 3.81836C21.2399 3.91603 21.4008 4.01876 21.5335 4.12402C21.6622 4.22619 21.7864 4.34796 21.8636 4.49023C22.1249 4.9724 22.1964 5.51897 21.9417 5.97461C21.6825 6.43777 21.1483 6.69672 20.4456 6.73047C19.8569 6.75858 19.3229 6.59982 18.8548 6.32715C19.0556 8.10133 18.9358 10.1271 18.9358 11.7764L18.931 13.1523C18.9034 16.3854 18.7769 18.1168 18.6155 19.1104C18.5347 19.6077 18.4451 19.9236 18.3528 20.1523C18.2607 20.3807 18.1665 20.5215 18.0882 20.6562L18.0823 20.665L18.0813 20.6641C17.8921 20.9251 17.8142 21.0141 17.5101 21.3369C17.3485 21.5083 17.0842 21.6975 16.7991 21.8438C16.5152 21.9894 16.1954 22.0995 15.9222 22.0996H6.95147C6.72093 22.0995 6.37457 21.9893 6.05693 21.8457C5.73847 21.7016 5.42252 21.5124 5.25713 21.3369C5.02598 21.0916 4.91242 20.8731 4.78643 20.6562C4.70812 20.5215 4.61294 20.3807 4.5208 20.1523C4.42856 19.9236 4.33891 19.6077 4.25811 19.1104C4.09671 18.1168 3.97019 16.3863 3.94268 13.1533L3.93682 11.7773C3.93681 9.87189 3.7735 7.46218 4.13506 5.51562C4.31626 4.54033 4.63164 3.66766 5.17412 3.02637C5.71984 2.38134 6.48928 1.97739 7.55986 1.93164H7.56182L7.76397 1.92676H7.76592L11.4358 1.90039H11.4378L15.1077 1.92676ZM6.70244 3.31055C6.48387 3.41449 6.30992 3.55326 6.16338 3.71387C5.79678 4.11597 5.51924 4.75232 5.34502 5.6416C4.9889 7.45997 5.15166 9.70873 5.15166 11.7764C5.15164 15.6622 5.27461 17.6584 5.429 18.7402C5.50528 19.2746 5.58373 19.5484 5.64092 19.6982C5.68367 19.8101 5.71506 19.8613 5.77959 19.9697C5.96609 20.1696 6.1027 20.3101 6.25029 20.4668C6.33655 20.5584 6.42573 20.6575 6.51201 20.7617H6.64873L6.58037 20.6621L6.57451 20.6543L6.57061 20.6445C6.51335 20.5091 6.44474 20.3703 6.37822 20.1436C6.31171 19.9167 6.24635 19.6024 6.18779 19.1064C6.07077 18.1151 5.97927 16.386 5.95928 13.1533L5.95537 11.7773C5.95537 10.3528 5.88983 8.64908 5.96514 7.07422C6.03428 5.62893 6.22308 4.26867 6.70244 3.31055ZM8.11064 3.09961C7.98493 3.18927 7.8694 3.31368 7.76006 3.47852C7.46297 3.92681 7.24645 4.6288 7.11357 5.56152C6.84712 7.4323 6.96611 9.75708 6.96611 11.7764C6.9661 15.6647 7.05578 17.6866 7.17119 18.7998C7.22854 19.3526 7.28978 19.6578 7.34111 19.8428C7.38216 19.9906 7.41646 20.0668 7.47002 20.1904C7.6117 20.3996 7.71643 20.5465 7.82451 20.7041C7.83623 20.7212 7.84902 20.7423 7.86162 20.7617H8.41045L8.35772 20.6387L8.35576 20.6309C8.19486 20.0219 7.97293 19.5561 7.97295 11.7764C7.97295 10.3177 7.92973 8.57412 7.98174 6.9707C8.03114 5.44783 8.16683 4.03218 8.51494 3.0957L8.11064 3.09961ZM9.63701 3.0752C9.59722 3.13917 9.55111 3.22171 9.50615 3.33008C9.30528 3.81473 9.16343 4.5619 9.07842 5.5166C8.90925 7.4168 8.98467 9.78391 8.98467 11.7764C8.98465 19.2278 9.19199 19.8712 9.31768 20.3213C9.385 20.4803 9.44782 20.6258 9.50615 20.7617H10.1683L10.1448 20.623L10.1438 20.6162C10.0804 20.0155 9.9915 19.5591 9.9915 11.7764C9.9915 10.3101 9.97406 8.56208 9.99541 6.95508C10.0159 5.41581 10.0733 3.99757 10.2151 3.0752H9.63701ZM11.2259 3.14258C11.1343 3.69527 11.0758 4.50311 11.0413 5.47168C10.9726 7.40186 11.0032 9.81102 11.0032 11.7764C11.0032 19.4028 11.0875 19.9534 11.1448 20.4814L11.1927 20.7617H11.68C11.6944 20.677 11.7105 20.5844 11.7278 20.4814C11.7851 19.9534 11.8714 19.4022 11.8714 11.7764C11.8714 9.81115 11.9021 7.4018 11.8333 5.47168C11.7988 4.50317 11.7394 3.6953 11.6478 3.14258C11.6439 3.11932 11.6393 3.09699 11.6351 3.0752H11.2386C11.2345 3.09698 11.2297 3.11937 11.2259 3.14258ZM12.6585 3.0752C12.8004 3.99757 12.8578 5.41583 12.8782 6.95508C12.8996 8.56208 12.8821 10.3101 12.8821 11.7764L12.8782 14.3662C12.8604 19.6746 12.7853 20.0905 12.7298 20.6162L12.7288 20.6221C12.7206 20.6707 12.713 20.7174 12.7054 20.7617H13.3665C13.425 20.6255 13.4874 20.4818 13.555 20.3223C13.6806 19.8722 13.889 19.2333 13.889 11.7764C13.889 9.78426 13.9644 7.41763 13.7952 5.51758C13.7102 4.56294 13.5683 3.81581 13.3675 3.33105C13.3225 3.22261 13.2773 3.13927 13.2376 3.0752H12.6585ZM14.3567 3.0957C14.705 4.0321 14.8412 5.44778 14.8909 6.9707C14.9433 8.57409 14.9007 10.3176 14.9007 11.7764L14.8978 13.1514C14.8728 19.6136 14.6688 20.0598 14.5179 20.6309L14.514 20.6445C14.4969 20.6852 14.4785 20.7242 14.4622 20.7617H15.011C15.0236 20.7425 15.0366 20.7223 15.0491 20.7041C15.1561 20.5481 15.2597 20.4009 15.3997 20.1943C15.4546 20.0677 15.491 19.9923 15.5325 19.8428C15.5838 19.6577 15.6451 19.3527 15.7024 18.7998C15.8179 17.6865 15.9075 15.6645 15.9075 11.7764C15.9075 9.75743 16.0265 7.43311 15.7601 5.5625C15.6271 4.62966 15.4107 3.92694 15.1136 3.47852C15.0041 3.31344 14.8881 3.18943 14.762 3.09961L14.3567 3.0957ZM16.1702 3.31055C16.6497 4.2688 16.8393 5.62974 16.9085 7.0752C16.9839 8.64991 16.9183 10.3519 16.9183 11.7764C16.9183 15.6682 16.8291 17.7319 16.7083 18.8975C16.6479 19.4804 16.5788 19.8419 16.5081 20.0967C16.4373 20.3519 16.3643 20.4995 16.303 20.6445L16.3001 20.6533L16.2942 20.6611C16.2709 20.6959 16.2472 20.7293 16.2249 20.7617H16.3616C16.4481 20.6574 16.5381 20.5583 16.6243 20.4668C16.7717 20.3104 16.9069 20.1692 17.0931 19.9697C17.1578 19.861 17.1899 19.8103 17.2327 19.6982C17.2899 19.5484 17.3684 19.2746 17.4446 18.7402C17.599 17.6584 17.722 15.6622 17.722 11.7764C17.722 9.70868 17.8838 7.45999 17.5276 5.6416C17.4451 5.22025 17.3391 4.85487 17.2112 4.54395C17.1317 4.3984 17.0582 4.2495 16.9915 4.09961C16.9043 3.95274 16.8107 3.82406 16.7103 3.71387C16.5636 3.55306 16.3891 3.41453 16.1702 3.31055ZM17.9466 3.3584C18.3143 3.91613 18.5511 4.60227 18.7044 5.35547C19.2 5.80945 19.7784 6.07421 20.4114 6.04395C20.9657 6.01723 21.2206 5.82599 21.3216 5.64551C21.4264 5.45738 21.4295 5.16572 21.2376 4.81152C21.2241 4.78658 21.1826 4.73368 21.0862 4.65723C20.9938 4.58389 20.8687 4.50226 20.7132 4.41602C20.4019 4.24341 19.9945 4.06375 19.5423 3.89062C19.03 3.6945 18.4702 3.51195 17.9466 3.3584Z" fill="white"/>
</svg>
