<svg width="24" height="24" viewBox="0 0 24 24" fill="none" xmlns="http://www.w3.org/2000/svg">
<path fill-rule="evenodd" clip-rule="evenodd" d="M17.5003 12C20.5377 12.0002 23.0003 14.4625 23.0003 17.5C23.0003 20.5375 20.5377 22.9998 17.5003 23C14.4627 23 12.0003 20.5376 12.0003 17.5C12.0003 14.4624 14.4627 12 17.5003 12ZM16.4886 13.9961C16.0885 13.8889 15.6769 14.1264 15.5696 14.5264C15.4627 14.9262 15.7002 15.337 16.0999 15.4443C17.0035 15.6865 17.8029 16.2207 18.3723 16.9629C18.9417 17.705 19.2502 18.6145 19.2503 19.5498C19.2503 19.964 19.5861 20.2998 20.0003 20.2998C20.4143 20.2996 20.7503 19.9639 20.7503 19.5498C20.7502 18.2842 20.3322 17.0539 19.5618 16.0498C18.7913 15.0457 17.711 14.3238 16.4886 13.9961ZM15.7122 16.8438C15.3121 16.7366 14.9005 16.974 14.7932 17.374C14.6861 17.7741 14.9235 18.1857 15.3235 18.293C15.5891 18.3642 15.824 18.5211 15.9915 18.7393C16.1589 18.9575 16.2503 19.2249 16.2503 19.5C16.2503 19.9142 16.5861 20.25 17.0003 20.25C17.4143 20.2498 17.7503 19.9141 17.7503 19.5C17.7503 18.8948 17.5503 18.3064 17.1819 17.8262C16.8135 17.346 16.2967 17.0005 15.7122 16.8438Z" fill="white"/>
<path fill-rule="evenodd" clip-rule="evenodd" d="M15.1077 1.92676L15.3118 1.93164H15.3138C15.9569 1.9591 16.4932 2.11748 16.9378 2.37988L17.011 2.39746C17.7829 2.57542 18.8642 2.89238 19.8011 3.25098C20.2687 3.43 20.7114 3.62305 21.0638 3.81836C21.2397 3.91593 21.4008 4.01887 21.5335 4.12402C21.6622 4.22613 21.7864 4.34805 21.8636 4.49023C22.125 4.97248 22.1965 5.51891 21.9417 5.97461C21.6824 6.43759 21.1482 6.69679 20.4456 6.73047C19.8572 6.75837 19.3227 6.59976 18.8548 6.32715C19.0313 7.8866 18.9625 9.64044 18.9427 11.1621C18.5512 11.0734 18.1464 11.0204 17.7317 11.0059C17.7576 9.1617 17.84 7.2362 17.5276 5.6416C17.4451 5.22028 17.3391 4.85485 17.2112 4.54395C17.1317 4.39849 17.0581 4.24941 16.9915 4.09961C16.9043 3.95285 16.8107 3.82399 16.7102 3.71387C16.5636 3.5532 16.389 3.41444 16.1702 3.31055C16.6497 4.2688 16.8393 5.6297 16.9085 7.0752C16.971 8.3817 16.9387 9.77584 16.9251 11.0264C16.5791 11.0567 16.2407 11.1139 15.9124 11.1963C15.9287 9.32206 16.0013 7.25629 15.76 5.5625C15.6271 4.62962 15.4108 3.92691 15.1136 3.47852C15.0041 3.31357 14.888 3.18936 14.762 3.09961L14.3567 3.0957C14.7051 4.03209 14.8412 5.44774 14.8909 6.9707C14.9404 8.48873 14.9056 10.1324 14.9016 11.541C14.5459 11.6964 14.2062 11.8819 13.887 12.0957C13.8871 11.9907 13.8889 11.8842 13.8889 11.7764C13.889 9.78425 13.9644 7.41763 13.7952 5.51758C13.7102 4.56291 13.5683 3.81579 13.3675 3.33105C13.3225 3.2227 13.2773 3.13922 13.2376 3.0752H12.6585C12.8004 3.99756 12.8578 5.41581 12.8782 6.95508C12.8995 8.56208 12.8821 10.3101 12.8821 11.7764L12.8802 12.9277C12.4881 13.3238 12.1479 13.7709 11.8675 14.2568C11.8698 13.5261 11.8714 12.7035 11.8714 11.7764C11.8714 9.81115 11.902 7.4018 11.8333 5.47168C11.7988 4.50316 11.7394 3.69529 11.6477 3.14258C11.6439 3.11935 11.6393 3.09696 11.635 3.0752H11.2386C11.2345 3.09695 11.2297 3.11942 11.2259 3.14258C11.1343 3.69527 11.0758 4.50319 11.0413 5.47168C10.9726 7.40186 11.0032 9.81103 11.0032 11.7764C11.0032 14.0803 11.0124 15.7384 11.0247 16.9453C11.0092 17.1282 11.0003 17.3131 11.0003 17.5C11.0003 17.7493 11.0149 17.9953 11.0423 18.2373C11.0719 19.8703 11.1121 20.1797 11.1448 20.4814L11.1927 20.7617H11.68C11.6941 20.6784 11.7098 20.5873 11.7268 20.4863C12.0366 21.0839 12.4347 21.6284 12.9065 22.0996H6.95145C6.72085 22.0992 6.37418 21.9892 6.05692 21.8457C5.73864 21.7016 5.42233 21.5123 5.25711 21.3369C5.02623 21.0917 4.91235 20.873 4.78641 20.6562C4.70814 20.5216 4.61284 20.3805 4.52079 20.1523C4.42859 19.9237 4.33885 19.6075 4.25809 19.1104C4.0967 18.1168 3.97018 16.3861 3.94266 13.1533L3.9368 11.7773C3.9368 9.87195 3.77352 7.46215 4.13504 5.51562C4.3162 4.54056 4.63187 3.66763 5.17411 3.02637C5.71966 2.38145 6.4897 1.9776 7.55985 1.93164H7.5618L7.76395 1.92676H7.7659L11.4358 1.90039H11.4378L15.1077 1.92676ZM6.70243 3.31055C6.48416 3.41448 6.30976 3.55339 6.16336 3.71387C5.79698 4.116 5.51916 4.75266 5.345 5.6416C4.98893 7.45994 5.15164 9.7088 5.15164 11.7764C5.15163 15.662 5.2746 17.6583 5.42899 18.7402C5.50521 19.2742 5.58372 19.5483 5.6409 19.6982C5.68362 19.81 5.7152 19.8616 5.77957 19.9697C5.96596 20.1695 6.10282 20.3103 6.25028 20.4668C6.33645 20.5583 6.42579 20.6577 6.512 20.7617H6.64872L6.58036 20.6621L6.5745 20.6543L6.57059 20.6445C6.51336 20.5091 6.44467 20.3701 6.37821 20.1436C6.31172 19.9167 6.24632 19.6023 6.18778 19.1064C6.07076 18.115 5.97925 16.3859 5.95926 13.1533L5.95536 11.7773C5.95535 10.3528 5.88981 8.64906 5.96512 7.07422C6.03426 5.62912 6.22321 4.26865 6.70243 3.31055ZM8.11063 3.09961C7.98513 3.18926 7.86922 3.3139 7.76004 3.47852C7.4631 3.92684 7.24639 4.62909 7.11356 5.56152C6.84713 7.43227 6.9661 9.75712 6.9661 11.7764C6.96609 15.6646 7.05577 17.6866 7.17118 18.7998C7.2285 19.3524 7.28978 19.6577 7.3411 19.8428C7.38212 19.9905 7.41653 20.067 7.47 20.1904C7.6116 20.3994 7.7165 20.5466 7.8245 20.7041C7.83616 20.7211 7.84906 20.7424 7.86161 20.7617H8.41043L8.3577 20.6387L8.35575 20.6309C8.19485 20.022 7.97292 19.555 7.97293 11.7764C7.97293 10.3177 7.92972 8.57411 7.98172 6.9707C8.03112 5.448 8.1669 4.03219 8.51493 3.0957L8.11063 3.09961ZM9.637 3.0752C9.59725 3.13914 9.551 3.22191 9.50614 3.33008C9.30534 3.81474 9.1634 4.56211 9.0784 5.5166C8.90924 7.41679 8.98465 9.78394 8.98465 11.7764C8.98464 19.2264 9.19197 19.8712 9.31766 20.3213C9.38495 20.4802 9.44784 20.6259 9.50614 20.7617H10.1682L10.1448 20.623L10.1438 20.6162C10.0804 20.0156 9.99148 19.5587 9.99149 11.7764C9.99149 10.3101 9.97405 8.56207 9.99539 6.95508C10.0158 5.41589 10.0733 3.99757 10.2151 3.0752H9.637ZM17.9466 3.3584C18.3143 3.91611 18.5511 4.60228 18.7044 5.35547C19.1998 5.80932 19.7787 6.07391 20.4114 6.04395C20.9655 6.01731 21.2204 5.82591 21.3216 5.64551C21.4264 5.45736 21.4296 5.16586 21.2376 4.81152C21.2238 4.7864 21.1822 4.73336 21.0862 4.65723C20.9938 4.58397 20.8684 4.50213 20.7132 4.41602C20.4019 4.2435 19.9942 4.06365 19.5423 3.89062C19.0301 3.69458 18.47 3.51189 17.9466 3.3584Z" fill="white"/>
</svg>
