<svg width="24" height="24" viewBox="0 0 24 24" fill="none" xmlns="http://www.w3.org/2000/svg">
<path fill-rule="evenodd" clip-rule="evenodd" d="M15 1.83C15.21 1.87 15.41 1.94 15.61 2.02C15.81 2.1 16 2.21 16.17 2.32C16.37 2.45 16.55 2.6 16.72 2.77C16.87 2.92 17 3.08 17.12 3.25C17.58 3.25 17.92 3.25 18.12 3.25C18.48 3.26 18.78 3.27 19.01 3.3C19.31 3.33 19.55 3.39 19.75 3.47C20 3.56 20.2 3.7 20.34 3.87C20.44 4.01 20.59 4.24 20.64 4.4C20.7 4.57 20.74 4.75 20.74 4.94C20.74 5.18 20.67 5.48 20.53 5.73C20.42 5.91 20.26 6.12 20.06 6.33C19.89 6.5 19.67 6.71 19.39 6.95C19.23 7.1 18.93 7.34 18.52 7.69L17.75 8.34V9.25C17.9 9.25 18.02 9.25 18.12 9.25C18.48 9.26 18.78 9.27 19.01 9.3C19.31 9.33 19.55 9.39 19.75 9.47C20 9.56 20.2 9.7 20.34 9.87C20.44 10.01 20.59 10.24 20.64 10.4C20.7 10.57 20.74 10.75 20.74 10.94C20.74 11.18 20.67 11.48 20.53 11.73C20.42 11.91 20.26 12.12 20.06 12.33C19.89 12.5 19.67 12.71 19.39 12.95C19.23 13.1 18.93 13.34 18.52 13.69L17.75 14.34V15.25C17.9 15.25 18.02 15.25 18.12 15.25C18.48 15.26 18.78 15.27 19.01 15.3C19.31 15.33 19.55 15.39 19.75 15.47C20 15.56 20.2 15.7 20.34 15.87C20.44 16.01 20.59 16.24 20.64 16.4C20.7 16.57 20.74 16.75 20.74 16.94C20.74 17.18 20.67 17.48 20.53 17.73C20.42 17.91 20.26 18.12 20.06 18.33C19.89 18.5 19.67 18.71 19.39 18.95C19.23 19.1 18.93 19.34 18.52 19.69L17.48 20.57C17.37 20.66 17.25 20.71 17.12 20.74C17 20.91 16.87 21.07 16.72 21.22C16.55 21.39 16.37 21.54 16.17 21.67C16 21.78 15.81 21.89 15.61 21.97C15.41 22.05 15.21 22.12 15 22.16C14.75 22.22 14.5 22.25 14.25 22.25H9.75C9.49 22.25 9.24 22.22 8.99 22.16C8.78 22.12 8.58 22.05 8.38 21.97C8.18 21.89 8 21.78 7.82 21.67C7.62 21.54 7.44 21.39 7.27 21.22C7.12 21.07 6.98 20.91 6.86 20.74C6.74 20.71 6.62 20.66 6.51 20.57L5.47 19.69C5.05 19.34 4.76 19.1 4.59 18.95C4.32 18.71 4.1 18.5 3.93 18.33C3.72 18.12 3.57 17.91 3.46 17.73C3.32 17.48 3.25 17.18 3.25 16.94C3.25 16.75 3.28 16.57 3.34 16.4C3.4 16.24 3.55 16.01 3.64 15.87C3.79 15.7 3.99 15.56 4.24 15.47C4.43 15.39 4.68 15.33 4.98 15.3C5.21 15.27 5.51 15.26 5.87 15.25C5.97 15.25 6.09 15.25 6.25 15.25V14.34L5.47 13.69C5.05 13.34 4.76 13.1 4.59 12.95C4.32 12.71 4.1 12.5 3.93 12.33C3.72 12.12 3.57 11.91 3.46 11.73C3.32 11.48 3.25 11.18 3.25 10.94C3.25 10.75 3.28 10.57 3.34 10.4C3.4 10.24 3.55 10.01 3.64 9.87C3.79 9.7 3.99 9.56 4.24 9.47C4.43 9.39 4.68 9.33 4.98 9.3C5.21 9.27 5.51 9.26 5.87 9.25C5.97 9.25 6.09 9.25 6.25 9.25V8.34L5.47 7.69C5.05 7.34 4.76 7.1 4.59 6.95C4.32 6.71 4.1 6.5 3.93 6.33C3.72 6.12 3.57 5.91 3.46 5.73C3.32 5.48 3.25 5.18 3.25 4.94C3.25 4.75 3.28 4.57 3.34 4.4C3.4 4.24 3.55 4.01 3.64 3.87C3.79 3.7 3.99 3.56 4.24 3.47C4.43 3.39 4.68 3.33 4.98 3.3C5.21 3.27 5.51 3.26 5.87 3.25C6.07 3.25 6.41 3.25 6.87 3.25C6.99 3.08 7.12 2.92 7.27 2.77C7.44 2.6 7.62 2.45 7.82 2.32C7.99 2.21 8.18 2.1 8.38 2.02C8.58 1.94 8.78 1.87 8.99 1.83C9.24 1.77 9.49 1.75 9.75 1.75H14.25C14.5 1.75 14.75 1.77 15 1.83ZM17.71 4.75C17.73 4.91 17.75 5.08 17.75 5.25V6.39C18.05 6.13 18.27 5.94 18.41 5.82C18.65 5.61 18.84 5.43 18.98 5.29C19.1 5.16 19.18 5.06 19.23 4.98C19.23 4.96 19.23 4.89 19.22 4.88C19.14 4.85 19.01 4.81 18.84 4.79C18.66 4.77 18.41 4.76 18.09 4.75C18 4.75 17.87 4.75 17.71 4.75ZM17.75 10.75V12.39C18.05 12.13 18.27 11.94 18.41 11.82C18.65 11.61 18.84 11.43 18.98 11.29C19.1 11.16 19.18 11.06 19.23 10.98C19.23 10.96 19.23 10.89 19.22 10.88C19.14 10.85 19.01 10.81 18.84 10.79C18.66 10.77 18.41 10.76 18.09 10.75C18 10.75 17.89 10.75 17.75 10.75ZM17.75 16.75V18.39C18.05 18.13 18.27 17.94 18.41 17.82C18.65 17.61 18.84 17.43 18.98 17.29C19.1 17.16 19.18 17.06 19.23 16.98C19.23 16.96 19.23 16.89 19.22 16.88C19.14 16.85 19.01 16.81 18.84 16.79C18.66 16.77 18.41 16.76 18.09 16.75C18 16.75 17.89 16.75 17.75 16.75ZM6.25 18.39V16.75C6.1 16.75 5.99 16.75 5.9 16.75C5.58 16.76 5.33 16.77 5.15 16.79C4.98 16.81 4.85 16.85 4.77 16.88C4.77 16.89 4.76 16.97 4.76 16.98C4.8 17.06 4.89 17.16 5.01 17.29C5.15 17.43 5.33 17.61 5.58 17.82C5.72 17.94 5.94 18.13 6.25 18.39ZM6.25 12.39V10.75C6.1 10.75 5.99 10.75 5.9 10.75C5.58 10.76 5.33 10.77 5.15 10.79C4.98 10.81 4.85 10.85 4.77 10.88C4.77 10.89 4.76 10.97 4.76 10.98C4.8 11.06 4.89 11.16 5.01 11.29C5.15 11.43 5.33 11.61 5.58 11.82C5.72 11.94 5.94 12.13 6.25 12.39ZM6.25 6.39V5.25C6.25 5.08 6.26 4.91 6.28 4.75C6.12 4.75 6 4.75 5.9 4.75C5.58 4.76 5.33 4.77 5.15 4.79C4.98 4.81 4.85 4.85 4.77 4.88C4.77 4.89 4.76 4.97 4.76 4.98C4.8 5.06 4.89 5.16 5.01 5.29C5.15 5.43 5.33 5.61 5.58 5.82C5.72 5.94 5.94 6.13 6.25 6.39ZM12 8C12.82 8 13.5 7.32 13.5 6.5C13.5 5.67 12.82 5 12 5C11.16 5 10.5 5.67 10.5 6.5C10.5 7.32 11.16 8 12 8ZM12 13.5C12.82 13.5 13.5 12.82 13.5 12C13.5 11.17 12.82 10.5 12 10.5C11.16 10.5 10.5 11.17 10.5 12C10.5 12.82 11.16 13.5 12 13.5ZM12 19C12.82 19 13.5 18.32 13.5 17.5C13.5 16.67 12.82 16 12 16C11.16 16 10.5 16.67 10.5 17.5C10.5 18.32 11.16 19 12 19Z" fill="white"/>
</svg>
