<svg width="24" height="24" viewBox="0 0 24 24" fill="none" xmlns="http://www.w3.org/2000/svg">
<path fill-rule="evenodd" clip-rule="evenodd" d="M12.0002 15.25C13.2427 15.2502 14.2502 16.2575 14.2502 17.5C14.2502 18.7425 13.2427 19.7498 12.0002 19.75C10.7576 19.75 9.75019 18.7426 9.75019 17.5C9.75019 16.2574 10.7576 15.25 12.0002 15.25ZM12.0002 16.75C11.586 16.75 11.2502 17.0858 11.2502 17.5C11.2502 17.9142 11.586 18.25 12.0002 18.25C12.4143 18.2498 12.7502 17.9141 12.7502 17.5C12.7502 17.0859 12.4143 16.7502 12.0002 16.75Z" fill="white"/>
<path fill-rule="evenodd" clip-rule="evenodd" d="M12.0002 9.75C13.2427 9.75016 14.2502 10.7575 14.2502 12C14.2502 13.2425 13.2427 14.2498 12.0002 14.25C10.7576 14.25 9.75019 13.2426 9.75019 12C9.75019 10.7574 10.7576 9.75 12.0002 9.75ZM12.0002 11.25C11.586 11.25 11.2502 11.5858 11.2502 12C11.2502 12.4142 11.586 12.75 12.0002 12.75C12.4143 12.7498 12.7502 12.4141 12.7502 12C12.7502 11.5859 12.4143 11.2502 12.0002 11.25Z" fill="white"/>
<path fill-rule="evenodd" clip-rule="evenodd" d="M12.0002 4.25C13.2427 4.25016 14.2502 5.25746 14.2502 6.5C14.2502 7.74254 13.2427 8.74984 12.0002 8.75C10.7576 8.75 9.75019 7.74264 9.75019 6.5C9.75019 5.25736 10.7576 4.25 12.0002 4.25ZM12.0002 5.75C11.586 5.75 11.2502 6.08579 11.2502 6.5C11.2502 6.91421 11.586 7.25 12.0002 7.25C12.4143 7.24984 12.7502 6.91411 12.7502 6.5C12.7502 6.08589 12.4143 5.75016 12.0002 5.75Z" fill="white"/>
<path fill-rule="evenodd" clip-rule="evenodd" d="M14.2502 1.75C15.4394 1.7501 16.4898 2.34341 17.1223 3.25C17.8903 3.25003 18.5296 3.25162 19.0119 3.30469C19.4471 3.35261 19.9991 3.46046 20.3547 3.87988L20.423 3.96777C20.6006 4.21769 20.7086 4.50928 20.7404 4.81152L20.7492 4.94238C20.768 5.53037 20.3927 5.99568 20.0607 6.33984C19.7 6.71379 19.1698 7.15811 18.5266 7.69824L17.7502 8.34961V9.25391C18.2437 9.25749 18.6679 9.26683 19.0119 9.30469C19.4471 9.35261 19.9991 9.46046 20.3547 9.87988L20.423 9.96777C20.6006 10.2177 20.7086 10.5093 20.7404 10.8115L20.7492 10.9424C20.768 11.5304 20.3927 11.9957 20.0607 12.3398C19.7 12.7138 19.1698 13.1581 18.5266 13.6982L17.7502 14.3496V15.2539C18.2437 15.2575 18.6679 15.2668 19.0119 15.3047C19.4471 15.3526 19.9991 15.4605 20.3547 15.8799L20.423 15.9678C20.6006 16.2177 20.7086 16.5093 20.7404 16.8115L20.7492 16.9424C20.768 17.5304 20.3927 17.9957 20.0607 18.3398C19.7 18.7138 19.1698 19.1581 18.5266 19.6982L17.4826 20.5742C17.3786 20.6616 17.2568 20.7121 17.132 20.7344C16.5008 21.6495 15.446 22.2499 14.2502 22.25H9.75019C8.5542 22.25 7.49868 21.6497 6.86738 20.7344C6.74279 20.712 6.62166 20.6614 6.51777 20.5742L5.47382 19.6982C4.83064 19.1581 4.3004 18.7138 3.93964 18.3398C3.60766 17.9957 3.23237 17.5304 3.25117 16.9424L3.25996 16.8115C3.29181 16.5092 3.39979 16.2177 3.57734 15.9678L3.6457 15.8799C4.00139 15.4605 4.55327 15.3526 4.98847 15.3047C5.33259 15.2668 5.75656 15.2575 6.25019 15.2539V14.3496L5.47382 13.6982C4.83064 13.1581 4.3004 12.7138 3.93964 12.3398C3.60766 11.9957 3.23237 11.5304 3.25117 10.9424L3.25996 10.8115C3.29181 10.5092 3.39979 10.2177 3.57734 9.96777L3.6457 9.87988C4.00139 9.46052 4.55327 9.35259 4.98847 9.30469C5.33259 9.26684 5.75656 9.25748 6.25019 9.25391V8.34961L5.47382 7.69824C4.83064 7.15814 4.3004 6.71378 3.93964 6.33984C3.60766 5.99566 3.23237 5.53045 3.25117 4.94238L3.25996 4.81152C3.29181 4.50924 3.39979 4.2177 3.57734 3.96777L3.6457 3.87988C4.00139 3.46052 4.55327 3.35259 4.98847 3.30469C5.47062 3.25167 6.1095 3.25003 6.87714 3.25C7.50961 2.34323 8.5608 1.75 9.75019 1.75H14.2502ZM9.75019 3.25C8.64562 3.25 7.75019 4.14543 7.75019 5.25V18.75C7.75019 19.8546 8.64562 20.75 9.75019 20.75H14.2502C15.3546 20.7498 16.2502 19.8545 16.2502 18.75V5.25C16.2502 4.14553 15.3546 3.25016 14.2502 3.25H9.75019ZM6.25019 16.7539C5.78229 16.7574 5.42716 16.7657 5.15253 16.7959C4.92873 16.8205 4.82362 16.8518 4.78339 16.8672C4.7681 16.8965 4.75829 16.9297 4.7541 16.9658C4.77031 16.9978 4.82801 17.1001 5.01874 17.2979C5.28292 17.5717 5.68137 17.9104 6.25019 18.3887V16.7539ZM17.7502 18.3887C18.3189 17.9104 18.7175 17.5717 18.9816 17.2979C19.1726 17.0998 19.2302 16.9976 19.2463 16.9658C19.2421 16.9297 19.2323 16.8965 19.217 16.8672C19.177 16.8518 19.0721 16.8206 18.8478 16.7959C18.5733 16.7657 18.218 16.7574 17.7502 16.7539V18.3887ZM6.25019 10.7539C5.78229 10.7574 5.42716 10.7657 5.15253 10.7959C4.92873 10.8205 4.82362 10.8518 4.78339 10.8672C4.7681 10.8965 4.75829 10.9297 4.7541 10.9658C4.77031 10.9978 4.82801 11.1001 5.01874 11.2979C5.28292 11.5717 5.68137 11.9104 6.25019 12.3887V10.7539ZM17.7502 12.3887C18.3189 11.9104 18.7175 11.5717 18.9816 11.2979C19.1726 11.0998 19.2302 10.9976 19.2463 10.9658C19.2421 10.9297 19.2323 10.8965 19.217 10.8672C19.177 10.8518 19.0721 10.8206 18.8478 10.7959C18.5733 10.7657 18.218 10.7574 17.7502 10.7539V12.3887ZM6.28535 4.75293C5.80002 4.7562 5.434 4.76495 5.15253 4.7959C4.92873 4.82053 4.82362 4.8518 4.78339 4.86719C4.7681 4.89646 4.75829 4.92965 4.7541 4.96582C4.77031 4.99775 4.82801 5.10005 5.01874 5.29785C5.28292 5.5717 5.68137 5.91038 6.25019 6.38867V5.25C6.25019 5.08123 6.26226 4.91532 6.28535 4.75293ZM17.7131 4.75293C17.7362 4.91538 17.7502 5.08117 17.7502 5.25V6.38867C18.3189 5.91043 18.7175 5.57168 18.9816 5.29785C19.1726 5.09984 19.2302 4.99759 19.2463 4.96582C19.2421 4.92968 19.2323 4.89645 19.217 4.86719C19.177 4.85184 19.0721 4.82059 18.8478 4.7959C18.5661 4.76489 18.1993 4.75619 17.7131 4.75293Z" fill="white"/>
</svg>
