<svg width="24" height="24" viewBox="0 0 24 24" fill="none" xmlns="http://www.w3.org/2000/svg">
<path fill-rule="evenodd" clip-rule="evenodd" d="M3.17236 7.75C3.17236 8.85457 4.06779 9.75 5.17236 9.75H6.02614L6.02646 17.4249C6.02652 18.7088 7.06729 19.7498 8.35137 19.7498H11.0152C11.1381 20.7365 11.9798 21.5 12.9998 21.5H18.9998C20.1043 21.5 20.9998 20.6046 20.9998 19.5V17.75C20.9998 16.6454 20.1043 15.75 18.9998 15.75H12.9998C11.8952 15.75 10.9998 16.6454 10.9998 17.75V18.2498H8.35137C7.89581 18.2498 7.52648 17.8805 7.52646 17.4248L7.52628 13.0753H11.0011C11.0407 14.145 11.9204 15 12.9998 15H18.9998C20.1043 15 20.9998 14.1046 20.9998 13V11.25C20.9998 10.1454 20.1043 9.24998 18.9998 9.24998H12.9998C11.8952 9.24998 10.9998 10.1454 10.9998 11.25V11.5753H7.52622L7.52614 9.75H8.42236C9.52693 9.75 10.4224 8.85457 10.4224 7.75V5.25C10.4224 4.14543 9.52693 3.25 8.42236 3.25H5.17236C4.06779 3.25 3.17236 4.14543 3.17236 5.25V7.75ZM4.67236 5.25V7.75C4.67236 8.02614 4.89622 8.25 5.17236 8.25H8.42236C8.69851 8.25 8.92236 8.02614 8.92236 7.75V5.25C8.92236 4.97386 8.69851 4.75 8.42236 4.75H5.17236C4.89622 4.75 4.67236 4.97386 4.67236 5.25ZM12.4998 11.25V13C12.4998 13.2761 12.7236 13.5 12.9998 13.5H18.9998C19.2759 13.5 19.4998 13.2761 19.4998 13V11.25C19.4998 10.9738 19.2759 10.75 18.9998 10.75H12.9998C12.7236 10.75 12.4998 10.9738 12.4998 11.25ZM12.4998 19.5V17.75C12.4998 17.4738 12.7236 17.25 12.9998 17.25H18.9998C19.2759 17.25 19.4998 17.4738 19.4998 17.75V19.5C19.4998 19.7761 19.2759 20 18.9998 20H12.9998C12.7236 20 12.4998 19.7761 12.4998 19.5Z" fill="white"/>
</svg>
