<svg width="24" height="24" viewBox="0 0 24 24" fill="none" xmlns="http://www.w3.org/2000/svg">
<path d="M7.10252 2.86414C7.45374 2.64463 7.91617 2.75124 8.13572 3.10242L10.3232 6.60242C10.6606 7.14239 10.6783 7.82316 10.3691 8.37976L8.42576 11.8788C8.38392 11.9542 8.38389 12.0455 8.42576 12.121L10.3691 15.62C10.6783 16.1766 10.6607 16.8574 10.3232 17.3973L8.13572 20.8973C7.91618 21.2484 7.4537 21.355 7.10252 21.1356C6.75136 20.9161 6.64477 20.4536 6.86424 20.1024L9.05174 16.6024C9.0998 16.5254 9.10164 16.4279 9.0576 16.3485L7.11424 12.8495C6.82074 12.3211 6.82077 11.6787 7.11424 11.1503L9.0576 7.65124C9.10171 7.57184 9.09974 7.47442 9.05174 7.39734L6.86424 3.89734C6.64472 3.54612 6.75133 3.08369 7.10252 2.86414Z" fill="white"/>
<path d="M15.8642 3.10242C16.0838 2.75124 16.5462 2.64464 16.8974 2.86414C17.2486 3.08369 17.3552 3.54612 17.1357 3.89734L14.9482 7.39734C14.9002 7.47442 14.8983 7.57185 14.9424 7.65124L16.8857 11.1503C17.1792 11.6787 17.1792 12.3211 16.8857 12.8495L14.9424 16.3485C14.8983 16.4279 14.9002 16.5254 14.9482 16.6024L17.1357 20.1024C17.3552 20.4536 17.2486 20.9161 16.8974 21.1356C16.5463 21.355 16.0838 21.2484 15.8642 20.8973L13.6767 17.3973C13.3393 16.8574 13.3217 16.1766 13.6308 15.62L15.5742 12.121C15.6161 12.0455 15.616 11.9542 15.5742 11.8788L13.6308 8.37976C13.3216 7.82316 13.3393 7.14239 13.6767 6.60242L15.8642 3.10242Z" fill="white"/>
<path d="M4.32908 7.66492C4.51426 7.29456 4.96453 7.14404 5.33494 7.32898C5.70526 7.51417 5.85581 7.96444 5.67088 8.33484L3.89451 11.8885C3.85961 11.9587 3.85957 12.0411 3.89451 12.1112L5.67088 15.6649C5.85572 16.0353 5.70525 16.4856 5.33494 16.6708C4.96459 16.8556 4.51428 16.7051 4.32908 16.3348L2.55271 12.7821C2.30662 12.2897 2.30667 11.7101 2.55271 11.2177L4.32908 7.66492Z" fill="white"/>
<path d="M18.665 7.32898C19.0354 7.14404 19.4857 7.29456 19.6709 7.66492L21.4472 11.2177C21.6933 11.7101 21.6933 12.2897 21.4472 12.7821L19.6709 16.3348C19.4857 16.7051 19.0354 16.8556 18.665 16.6708C18.2947 16.4856 18.1442 16.0353 18.3291 15.6649L20.1054 12.1112C20.1404 12.0411 20.1403 11.9587 20.1054 11.8885L18.3291 8.33484C18.1441 7.96445 18.2947 7.51417 18.665 7.32898Z" fill="white"/>
</svg>
