<svg width="24" height="24" viewBox="0 0 24 24" fill="none" xmlns="http://www.w3.org/2000/svg">
<path fill-rule="evenodd" clip-rule="evenodd" d="M12.3435 10.9397C12.3321 11.8394 13.1453 12.3415 13.7579 12.6399C14.3872 12.9462 14.5986 13.1426 14.5962 13.4165C14.5914 13.8357 14.0942 14.0206 13.6287 14.0278C12.8168 14.0405 12.3447 13.8086 11.9694 13.6333L11.6769 15.002C12.0534 15.1755 12.7507 15.3269 13.4738 15.3335C15.171 15.3335 16.2814 14.4957 16.2874 13.1967C16.294 11.5481 14.0071 11.4568 14.0227 10.7199C14.0281 10.4965 14.2413 10.2581 14.7085 10.1974C14.9398 10.1668 15.5782 10.1434 16.3018 10.4767L16.5859 9.15246C16.1967 9.01073 15.6965 8.875 15.0737 8.875C13.4762 8.875 12.3525 9.7242 12.3435 10.9397ZM19.3155 8.98911C19.0056 8.98911 18.7443 9.16988 18.6278 9.44734L16.2034 15.2362H17.8993L18.2369 14.3035H20.3094L20.5052 15.2362H22L20.6956 8.98911H19.3155ZM19.5527 10.6767L20.0422 13.0225H18.7017L19.5527 10.6767ZM10.2872 8.98911L8.95033 15.2362H10.5665L11.9027 8.98911H10.2872ZM7.89634 8.98911L6.21416 13.2411L5.53372 9.62571C5.45385 9.22213 5.13855 8.98911 4.78842 8.98911H2.03844L2 9.17048C2.56453 9.29299 3.20593 9.49058 3.5945 9.70198C3.83232 9.8311 3.90019 9.94401 3.97826 10.2509L5.26707 15.2362H6.97508L9.59354 8.98911H7.89634Z" fill="white"/>
</svg>
