<svg width="24" height="24" viewBox="0 0 24 24" fill="none" xmlns="http://www.w3.org/2000/svg">
<path fill-rule="evenodd" clip-rule="evenodd" d="M12.3643 2.75C16.5089 2.75 18.5816 2.75034 19.8691 4.05078C21.1565 5.35124 21.1562 7.44411 21.1562 11.6299V12.3701C21.1562 16.5559 21.1565 18.6488 19.8691 19.9492C18.5816 21.2497 16.5089 21.25 12.3643 21.25H11.6318C7.48728 21.25 5.41452 21.2497 4.12695 19.9492C2.8398 18.6487 2.83984 16.5557 2.83984 12.3701V11.6299C2.83984 7.44432 2.8398 5.35126 4.12695 4.05078C5.41452 2.75035 7.48728 2.75 11.6318 2.75H12.3643ZM5.93066 8.37695C6.02986 13.187 8.41123 16.0771 12.5859 16.0771H12.8223V13.3252C14.3562 13.4793 15.5168 14.6127 15.9824 16.0771H18.1494C17.554 13.8883 15.9895 12.6783 15.0127 12.2158C15.9896 11.6454 17.3632 10.2578 17.6914 8.37695H15.7227C15.2953 9.90321 14.0281 11.2908 12.8223 11.4219V8.37695H10.8535V13.7109C9.63241 13.4026 8.09018 11.9074 8.02148 8.37695H5.93066Z" fill="white"/>
</svg>
