<svg width="24" height="24" viewBox="0 0 24 24" fill="none" xmlns="http://www.w3.org/2000/svg">
<path d="M8.02246 8.37695C8.09114 11.9071 9.63245 13.4025 10.8535 13.7109V8.37695H12.8232V11.4219C14.029 11.2906 15.2953 9.90303 15.7227 8.37695H17.6924C17.3642 10.2578 15.9896 11.6454 15.0127 12.2158C15.9895 12.6783 17.555 13.8882 18.1504 16.0771H15.9824C15.5169 14.6129 14.3569 13.4805 12.8232 13.3262V16.0771H12.5859C8.4114 16.077 6.03083 13.1868 5.93164 8.37695H8.02246Z" fill="white"/>
<path fill-rule="evenodd" clip-rule="evenodd" d="M12.3652 2.75C16.5096 2.75 18.5816 2.75038 19.8691 4.05078C21.1566 5.35123 21.1572 7.44398 21.1572 11.6299V12.3701C21.1572 16.556 21.1566 18.6488 19.8691 19.9492C18.5816 21.2496 16.5096 21.25 12.3652 21.25H11.6318C7.48744 21.25 5.41549 21.2496 4.12793 19.9492C2.84041 18.6488 2.83984 16.5561 2.83984 12.3701V11.6299C2.83984 7.44393 2.84041 5.35123 4.12793 4.05078C5.41549 2.75038 7.48744 2.75 11.6318 2.75H12.3652ZM11.6865 4.25C8.214 4.25 6.47721 4.25029 5.39844 5.33984C4.32001 6.42944 4.32031 8.18355 4.32031 11.6904V12.3096C4.32031 15.8164 4.32001 17.5706 5.39844 18.6602C6.47721 19.7497 8.214 19.75 11.6865 19.75H12.2998C15.7723 19.75 17.5091 19.7497 18.5879 18.6602C19.6665 17.5706 19.667 15.8166 19.667 12.3096V11.6904C19.667 8.18339 19.6665 6.42943 18.5879 5.33984C17.5091 4.25029 15.7723 4.25 12.2998 4.25H11.6865Z" fill="white"/>
</svg>
