<svg width="24" height="24" viewBox="0 0 24 24" fill="none" xmlns="http://www.w3.org/2000/svg">
<path fill-rule="evenodd" clip-rule="evenodd" d="M10.8139 3.31999C11.3808 3.25938 11.9416 3.47866 12.317 3.90766C12.613 4.24593 12.6843 4.69651 12.7162 5.06124C12.75 5.44786 12.75 5.9525 12.75 6.5584V17.4464C12.75 18.0523 12.75 18.557 12.7162 18.9436C12.6843 19.3083 12.613 19.7589 12.317 20.0972C11.9416 20.5262 11.3808 20.7455 10.8139 20.6849C10.367 20.6371 10.0089 20.3544 9.73813 20.108C9.45105 19.8468 9.10878 19.476 8.69784 19.0308L6.25552 16.385C5.88331 15.9818 5.35953 15.7524 4.81078 15.7524C3.3965 15.7524 2.25 14.6059 2.25 13.1916V10.8132C2.25 9.39892 3.3965 8.25242 4.81078 8.25242C5.35953 8.25242 5.88331 8.0231 6.25552 7.61987L8.69783 4.97404C9.10878 4.52882 9.45105 4.15801 9.73813 3.89685C10.0089 3.65048 10.367 3.36778 10.8139 3.31999ZM10.9988 4.81007C10.9772 4.82238 10.9001 4.86764 10.7475 5.00641C10.515 5.21795 10.2173 5.53939 9.77542 6.01813L7.35773 8.63729C6.70156 9.34814 5.77818 9.75242 4.81078 9.75242C4.22493 9.75242 3.75 10.2274 3.75 10.8132V13.1916C3.75 13.7775 4.22493 14.2524 4.81078 14.2524C5.77818 14.2524 6.70156 14.6567 7.35773 15.3676L9.77542 17.9867C10.2173 18.4655 10.515 18.7869 10.7475 18.9984C10.9001 19.1372 10.9772 19.1825 10.9988 19.1948C11.0625 19.1951 11.1239 19.1711 11.1704 19.1277C11.1779 19.104 11.204 19.0184 11.2219 18.813C11.2493 18.4998 11.25 18.0617 11.25 17.4102V6.59467C11.25 5.94315 11.2493 5.50505 11.2219 5.19189C11.204 4.98646 11.1779 4.90085 11.1704 4.87718C11.1239 4.83378 11.0625 4.80976 10.9988 4.81007Z" fill="white" fill-opacity="0.96"/>
</svg>
