<svg width="24" height="24" viewBox="0 0 24 24" fill="none" xmlns="http://www.w3.org/2000/svg">
<path fill-rule="evenodd" clip-rule="evenodd" d="M12.317 3.90766C11.9416 3.47866 11.3808 3.25938 10.8139 3.31999C10.367 3.36778 10.0089 3.65048 9.73813 3.89685C9.45105 4.15801 9.10878 4.52882 8.69783 4.97403L8.67321 5.00071L6.25552 7.61987C5.88331 8.0231 5.35953 8.25242 4.81078 8.25242C3.3965 8.25242 2.25 9.39892 2.25 10.8132V13.1916C2.25 14.6059 3.3965 15.7524 4.81078 15.7524C5.35953 15.7524 5.88331 15.9818 6.25552 16.385L8.67321 19.0041L8.69783 19.0308C9.10877 19.476 9.45105 19.8468 9.73813 20.108C10.0089 20.3544 10.367 20.6371 10.8139 20.6849C11.3808 20.7455 11.9416 20.5262 12.317 20.0972C12.613 19.7589 12.6843 19.3083 12.7162 18.9436C12.75 18.557 12.75 18.0524 12.75 17.4465V17.4102V6.59467V6.5584C12.75 5.95251 12.75 5.44786 12.7162 5.06124C12.6843 4.69651 12.613 4.24593 12.317 3.90766ZM16.066 7.93645C15.7731 7.64356 15.2982 7.64356 15.0053 7.93645C14.7124 8.22934 14.7124 8.70422 15.0053 8.99711C15.4 9.39176 15.713 9.86028 15.9266 10.3759C16.1402 10.8915 16.2501 11.4442 16.2501 12.0023C16.2501 12.5604 16.1402 13.1131 15.9266 13.6287C15.713 14.1444 15.4 14.6129 15.0053 15.0075C14.7124 15.3004 14.7124 15.7753 15.0053 16.0682C15.2982 16.3611 15.7731 16.3611 16.066 16.0682C16.5999 15.5342 17.0235 14.9004 17.3124 14.2027C17.6014 13.5051 17.7501 12.7574 17.7501 12.0023C17.7501 11.2472 17.6014 10.4995 17.3124 9.80188C17.0235 9.10426 16.5999 8.47039 16.066 7.93645Z" fill="white" fill-opacity="0.96"/>
</svg>
