<svg width="24" height="24" viewBox="0 0 24 24" fill="none" xmlns="http://www.w3.org/2000/svg">
<path fill-rule="evenodd" clip-rule="evenodd" d="M21.0154 4.04034C21.3083 3.74745 21.3083 3.27257 21.0154 2.97968C20.7225 2.68679 20.2477 2.68679 19.9548 2.97968L12.75 10.1845V6.55112V6.5511V6.55108V6.55107V6.55105V6.55103C12.75 5.94519 12.75 5.44059 12.7162 5.05399C12.6843 4.68927 12.613 4.23868 12.317 3.90042C11.9416 3.47141 11.3808 3.25214 10.8139 3.31275C10.367 3.36054 10.0089 3.64324 9.73813 3.8896C9.45106 4.15076 9.10879 4.52157 8.69786 4.96676L8.69782 4.96679L6.25552 7.61262C5.88331 8.01585 5.35953 8.24518 4.81078 8.24518C3.3965 8.24518 2.25 9.39168 2.25 10.806V13.1844C2.25 14.5987 3.3965 15.7452 4.81078 15.7452C5.35953 15.7452 5.88331 15.9745 6.25552 16.3777L6.4001 16.5344L2.98422 19.9502C2.69132 20.2431 2.69132 20.718 2.98421 21.0109C3.27711 21.3038 3.75198 21.3038 4.04488 21.0109L7.41832 17.6374L8.47983 16.5759L11.25 13.8058L12.75 12.3058L15.4884 9.56731L16.5615 8.49422L18.3398 6.71593L19.4042 5.65154L21.0154 4.04034ZM11.25 11.6845V6.58742C11.25 5.9359 11.2493 5.4978 11.2219 5.18465C11.204 4.97921 11.1779 4.89361 11.1704 4.86994C11.1239 4.82654 11.0625 4.80252 10.9988 4.80283C10.9772 4.81513 10.9001 4.86039 10.7475 4.99916C10.515 5.2107 10.2173 5.53215 9.77542 6.01088L7.35773 8.63004C6.70156 9.34089 5.77818 9.74518 4.81078 9.74518C4.22493 9.74518 3.75 10.2201 3.75 10.806V13.1844C3.75 13.7703 4.22493 14.2452 4.81078 14.2452C5.77818 14.2452 6.70156 14.6495 7.35773 15.3603L7.46161 15.4728L11.25 11.6845ZM8.69787 19.0236L8.43655 18.7405L9.49806 17.679L9.77542 17.9795C10.2173 18.4582 10.515 18.7797 10.7475 18.9912C10.9001 19.13 10.9772 19.1752 10.9988 19.1875C11.0625 19.1878 11.1239 19.1638 11.1704 19.1204C11.1779 19.0967 11.204 19.0111 11.2219 18.8057C11.2493 18.4926 11.25 18.0545 11.25 17.4029V15.9271L12.75 14.4271V17.4392V17.4392V17.4392V17.4393V17.4393V17.4393C12.75 18.0451 12.75 18.5498 12.7162 18.9364C12.6843 19.3011 12.613 19.7517 12.317 20.0899C11.9416 20.5189 11.3808 20.7382 10.8139 20.6776C10.367 20.6298 10.0089 20.3471 9.73813 20.1008C9.45106 19.8396 9.10881 19.4688 8.69789 19.0236L8.69787 19.0236ZM16.2501 11.9951C16.2501 11.6717 16.2132 11.3501 16.1406 11.0365L17.3327 9.84434C17.6084 10.5277 17.7501 11.2579 17.7501 11.9951C17.7501 12.7502 17.6014 13.4979 17.3124 14.1955C17.0235 14.8931 16.5999 15.527 16.066 16.0609C15.7731 16.3538 15.2982 16.3538 15.0053 16.0609C14.7124 15.768 14.7124 15.2932 15.0053 15.0003C15.4 14.6056 15.713 14.1371 15.9266 13.6215C16.1402 13.1058 16.2501 12.5532 16.2501 11.9951ZM19.6221 8.83799C19.4992 8.54137 19.3594 8.25278 19.2035 7.97357L20.2992 6.87786C20.5714 7.31924 20.8085 7.78265 21.0079 8.26396C21.4979 9.44689 21.7501 10.7147 21.7501 11.9951C21.7501 13.2755 21.4979 14.5434 21.0079 15.7263C20.5179 16.9092 19.7997 17.984 18.8943 18.8894C18.6014 19.1823 18.1266 19.1823 17.8337 18.8894C17.5408 18.5965 17.5408 18.1216 17.8337 17.8288C18.5998 17.0627 19.2075 16.1532 19.6221 15.1523C20.0367 14.1513 20.2501 13.0785 20.2501 11.9951C20.2501 10.9117 20.0367 9.83892 19.6221 8.83799Z" fill="white" fill-opacity="0.96"/>
</svg>
