<svg width="24" height="24" viewBox="0 0 24 24" fill="none" xmlns="http://www.w3.org/2000/svg">
<path d="M3 13.1892V10.8108C3 9.81069 3.81071 8.99998 4.81078 8.99998C5.56885 8.99998 6.29244 8.68317 6.80662 8.12613L9.22431 5.50697C10.0881 4.57115 10.5201 4.10325 10.8937 4.06329C11.2176 4.02866 11.538 4.15396 11.7526 4.3991C12 4.68188 12 5.31866 12 6.59222V17.4077C12 18.6813 12 19.3181 11.7526 19.6008C11.538 19.846 11.2176 19.9713 10.8937 19.9367C10.5201 19.8967 10.0881 19.4288 9.22431 18.493L6.80663 15.8738C6.29244 15.3168 5.56885 15 4.81078 15C3.81071 15 3 14.1893 3 13.1892Z" fill="white"/>
<path fill-rule="evenodd" clip-rule="evenodd" d="M17.7705 5.06926C18.0633 4.77636 18.5382 4.77636 18.8311 5.06925C19.7365 5.97463 20.4547 7.04946 20.9446 8.23238C21.4346 9.41531 21.6868 10.6832 21.6868 11.9635C21.6868 13.2439 21.4346 14.5118 20.9446 15.6947C20.4547 16.8776 19.7365 17.9525 18.8311 18.8578C18.5382 19.1507 18.0633 19.1507 17.7705 18.8578C17.4776 18.5649 17.4776 18.0901 17.7705 17.7972C18.5365 17.0311 19.1442 16.1216 19.5588 15.1207C19.9734 14.1198 20.1868 13.047 20.1868 11.9635C20.1868 10.8801 19.9734 9.80734 19.5588 8.80641C19.1442 7.80547 18.5365 6.896 17.7705 6.12992C17.4776 5.83702 17.4776 5.36215 17.7705 5.06926Z" fill="white"/>
<path fill-rule="evenodd" clip-rule="evenodd" d="M14.9697 7.96965C15.2626 7.67675 15.7374 7.67675 16.0303 7.96965C16.5643 8.50358 16.9878 9.13746 17.2768 9.83508C17.5657 10.5327 17.7145 11.2804 17.7145 12.0355C17.7145 12.7906 17.5657 13.5383 17.2768 14.2359C16.9878 14.9336 16.5643 15.5674 16.0303 16.1014C15.7374 16.3943 15.2626 16.3943 14.9697 16.1014C14.6768 15.8085 14.6768 15.3336 14.9697 15.0407C15.3643 14.6461 15.6774 14.1775 15.891 13.6619C16.1045 13.1463 16.2145 12.5936 16.2145 12.0355C16.2145 11.4774 16.1045 10.9247 15.891 10.4091C15.6774 9.89347 15.3643 9.42495 14.9697 9.03031C14.6768 8.73741 14.6768 8.26254 14.9697 7.96965Z" fill="white"/>
</svg>
