<svg width="24" height="24" viewBox="0 0 24 24" fill="none" xmlns="http://www.w3.org/2000/svg">
<path d="M3 13.1892V10.8108C3 9.81069 3.81071 8.99998 4.81078 8.99998C5.56885 8.99998 6.29244 8.68317 6.80662 8.12613L9.22431 5.50697C10.0881 4.57115 10.5201 4.10325 10.8937 4.06329C11.2176 4.02866 11.538 4.15396 11.7526 4.3991C12 4.68188 12 5.31866 12 6.59222V17.4077C12 18.6813 12 19.3181 11.7526 19.6008C11.538 19.846 11.2176 19.9713 10.8937 19.9367C10.5201 19.8967 10.0881 19.4288 9.22431 18.493L6.80663 15.8738C6.29244 15.3168 5.56885 15 4.81078 15C3.81071 15 3 14.1893 3 13.1892Z" fill="white"/>
<path fill-rule="evenodd" clip-rule="evenodd" d="M14.4697 8.46965C14.7626 8.17675 15.2374 8.17675 15.5303 8.46965L18 10.9393L20.4697 8.46965C20.7626 8.17675 21.2374 8.17675 21.5303 8.46965C21.8232 8.76254 21.8232 9.23741 21.5303 9.53031L19.0607 12L21.5303 14.4696C21.8232 14.7625 21.8232 15.2374 21.5303 15.5303C21.2374 15.8232 20.7626 15.8232 20.4697 15.5303L18 13.0606L15.5303 15.5303C15.2374 15.8232 14.7626 15.8232 14.4697 15.5303C14.1768 15.2374 14.1768 14.7625 14.4697 14.4696L16.9393 12L14.4697 9.53031C14.1768 9.23741 14.1768 8.76254 14.4697 8.46965Z" fill="white"/>
</svg>
