<svg width="24" height="24" viewBox="0 0 24 24" fill="none" xmlns="http://www.w3.org/2000/svg">
<path fill-rule="evenodd" clip-rule="evenodd" d="M10.8139 3.31755C11.3808 3.25694 11.9416 3.47622 12.317 3.90522C12.613 4.24349 12.6843 4.69407 12.7162 5.05879C12.75 5.44542 12.75 5.95006 12.75 6.55596V17.444C12.75 18.0499 12.75 18.5545 12.7162 18.9412C12.6843 19.3059 12.613 19.7565 12.317 20.0947C11.9416 20.5238 11.3808 20.743 10.8139 20.6824C10.367 20.6346 10.0089 20.3519 9.73813 20.1056C9.45105 19.8444 9.10878 19.4736 8.69783 19.0284L6.25552 16.3825C5.88331 15.9793 5.35953 15.75 4.81078 15.75C3.3965 15.75 2.25 14.6035 2.25 13.1892V10.8108C2.25 9.39648 3.3965 8.24998 4.81078 8.24998C5.35953 8.24998 5.88331 8.02065 6.25552 7.61743L8.69782 4.9716C9.10877 4.52638 9.45105 4.15557 9.73813 3.89441C10.0089 3.64804 10.367 3.36534 10.8139 3.31755ZM10.9988 4.80763C10.9772 4.81994 10.9001 4.8652 10.7475 5.00397C10.515 5.21551 10.2173 5.53695 9.77542 6.01569L7.35773 8.63485C6.70156 9.3457 5.77818 9.74998 4.81078 9.74998C4.22493 9.74998 3.75 10.2249 3.75 10.8108V13.1892C3.75 13.7751 4.22493 14.25 4.81078 14.25C5.77818 14.25 6.70156 14.6543 7.35773 15.3651L9.77542 17.9843C10.2173 18.463 10.515 18.7845 10.7475 18.996C10.9001 19.1348 10.9772 19.18 10.9988 19.1923C11.0625 19.1926 11.1239 19.1686 11.1704 19.1252C11.1779 19.1016 11.204 19.0159 11.2219 18.8105C11.2493 18.4974 11.25 18.0593 11.25 17.4077V6.59222C11.25 5.94071 11.2493 5.50261 11.2219 5.18945C11.204 4.98402 11.1779 4.89841 11.1704 4.87474C11.1239 4.83134 11.0625 4.80732 10.9988 4.80763Z" fill="white"/>
<path fill-rule="evenodd" clip-rule="evenodd" d="M14.4697 8.46965C14.7626 8.17676 15.2374 8.17676 15.5303 8.46965L18 10.9393L20.4697 8.46965C20.7626 8.17676 21.2374 8.17676 21.5303 8.46965C21.8232 8.76255 21.8232 9.23742 21.5303 9.53031L19.0607 12L21.5303 14.4697C21.8232 14.7625 21.8232 15.2374 21.5303 15.5303C21.2374 15.8232 20.7626 15.8232 20.4697 15.5303L18 13.0606L15.5303 15.5303C15.2374 15.8232 14.7626 15.8232 14.4697 15.5303C14.1768 15.2374 14.1768 14.7625 14.4697 14.4697L16.9393 12L14.4697 9.53031C14.1768 9.23742 14.1768 8.76255 14.4697 8.46965Z" fill="white"/>
</svg>
