<svg width="24" height="24" viewBox="0 0 24 24" fill="none" xmlns="http://www.w3.org/2000/svg">
<path fill-rule="evenodd" clip-rule="evenodd" d="M11.1339 6.5C11.5188 5.83333 12.4811 5.83333 12.866 6.5L18.9282 17C19.3131 17.6667 18.8319 18.5 18.0621 18.5H5.93777C5.16797 18.5 4.68685 17.6667 5.07175 17L11.1339 6.5ZM6.8038 17L11.9999 8L17.1961 17H6.8038Z" fill="white"/>
<path fill-rule="evenodd" clip-rule="evenodd" d="M9.83493 5.75C10.7972 4.08333 13.2028 4.08333 14.1651 5.75L20.2272 16.25C21.1895 17.9167 19.9867 20 18.0622 20H5.93781C4.01331 20 2.8105 17.9167 3.77275 16.25L9.83493 5.75ZM13.299 6.25L19.3612 16.75C19.9386 17.75 19.2169 19 18.0622 19H5.93781C4.78311 19 4.06142 17.75 4.63877 16.75L10.701 6.25C11.2783 5.25 12.7217 5.25 13.299 6.25Z" fill="white"/>
</svg>
