<svg width="24" height="24" viewBox="0 0 24 24" fill="none" xmlns="http://www.w3.org/2000/svg">
<path d="M4.51562 19.25C4.57295 19.8149 4.82067 20.3448 5.21777 20.75H4C3.58579 20.75 3.25 20.4142 3.25 20C3.25 19.5858 3.58579 19.25 4 19.25H4.51562ZM14.6455 19.8408C14.7716 20.1938 14.9711 20.4991 15.2178 20.75H8.78125C9.02798 20.4991 9.22731 20.1939 9.35352 19.8408L9.56445 19.25H14.4346L14.6455 19.8408ZM12 4C12.4225 4.00011 12.7993 4.26617 12.9414 4.66406L13.8652 7.25L13.9434 7.46973L15.2939 11.25L15.3721 11.4697L17.9414 18.6641C18.0754 19.0397 17.9703 19.4415 17.7061 19.7061C17.7002 19.7119 17.6945 19.7179 17.6885 19.7236C17.6745 19.737 17.6594 19.7491 17.6445 19.7617C17.6317 19.7726 17.6189 19.7836 17.6055 19.7939C17.5949 19.802 17.5842 19.8097 17.5732 19.8174C17.5562 19.8294 17.5385 19.8406 17.5205 19.8516C17.463 19.8866 17.4019 19.9178 17.3359 19.9414C17.2424 19.9748 17.1471 19.993 17.0527 19.998C17.0351 19.999 17.0166 19.9981 16.999 19.998C16.9827 19.998 16.9664 19.9989 16.9502 19.998C16.9358 19.9973 16.9215 19.9955 16.9072 19.9941C16.8922 19.9927 16.8772 19.9913 16.8623 19.9893C16.8436 19.9866 16.8251 19.9832 16.8066 19.9795C16.7945 19.9771 16.7825 19.9745 16.7705 19.9717C16.7472 19.9661 16.724 19.9603 16.7012 19.9531C16.6975 19.952 16.6941 19.9504 16.6904 19.9492C16.6666 19.9414 16.6433 19.9324 16.6201 19.9229C16.6139 19.9203 16.6077 19.9177 16.6016 19.915C16.5557 19.895 16.5112 19.8723 16.4688 19.8457C16.4505 19.8342 16.4326 19.8222 16.415 19.8096C16.4109 19.8066 16.4065 19.8039 16.4023 19.8008C16.3814 19.7852 16.3615 19.7682 16.3418 19.751C16.3362 19.7461 16.3306 19.7413 16.3252 19.7363C16.3106 19.723 16.297 19.7086 16.2832 19.6943C16.2728 19.6836 16.2619 19.6733 16.252 19.6621C16.1697 19.5693 16.1029 19.4599 16.0586 19.3359L14.6885 15.5H9.31152L7.94141 19.3359L7.90234 19.4307C7.86034 19.5189 7.80606 19.5981 7.74316 19.668C7.73483 19.6772 7.72544 19.6854 7.7168 19.6943C7.70393 19.7076 7.69127 19.7209 7.67773 19.7334C7.66821 19.7422 7.65827 19.7504 7.64844 19.7588C7.63182 19.7729 7.61511 19.7868 7.59766 19.7998C7.58902 19.8062 7.58011 19.8122 7.57129 19.8184C7.55837 19.8274 7.54554 19.8364 7.53223 19.8447C7.51812 19.8536 7.50378 19.862 7.48926 19.8701C7.4726 19.8795 7.45564 19.8881 7.43848 19.8965C7.43009 19.9006 7.42159 19.9043 7.41309 19.9082C7.3966 19.9157 7.38015 19.9231 7.36328 19.9297C7.34456 19.937 7.32579 19.944 7.30664 19.9502C7.30115 19.952 7.29557 19.9534 7.29004 19.9551C7.26744 19.962 7.24476 19.9684 7.22168 19.9736C7.2129 19.9756 7.20415 19.9777 7.19531 19.9795C7.17496 19.9836 7.15443 19.9865 7.13379 19.9893C7.11918 19.9912 7.10457 19.9928 7.08984 19.9941C7.07424 19.9956 7.05868 19.9974 7.04297 19.998C7.02737 19.9987 7.01177 19.9981 6.99609 19.998C6.98017 19.998 6.96423 19.9989 6.94824 19.998C6.93227 19.9972 6.9164 19.9948 6.90039 19.9932C6.88448 19.9916 6.86846 19.9907 6.85254 19.9883C6.78949 19.9788 6.72637 19.9636 6.66406 19.9414C6.62761 19.9284 6.59253 19.9131 6.55859 19.8965C6.54454 19.8896 6.53118 19.8815 6.51758 19.874C6.49709 19.8627 6.47745 19.8504 6.45801 19.8379C6.44651 19.8305 6.43494 19.8233 6.42383 19.8154C6.40226 19.8002 6.38144 19.7843 6.36133 19.7676C6.35209 19.7599 6.34291 19.7522 6.33398 19.7441C6.04041 19.4812 5.91795 19.0582 6.05859 18.6641L9.59961 8.75L9.60547 8.73438L11.0586 4.66406L11.1221 4.52051C11.2953 4.20326 11.6304 4.00004 12 4ZM5.14844 16.75H4C3.58579 16.75 3.25 16.4142 3.25 16C3.25 15.5858 3.58579 15.25 4 15.25H5.68457L5.14844 16.75ZM20 15.25C20.4142 15.25 20.75 15.5858 20.75 16C20.75 16.4142 20.4142 16.75 20 16.75H18.8506L18.3145 15.25H20ZM10.0254 13.5H13.9746L13.707 12.75L13.7051 12.7461L12 7.97168L10.0254 13.5ZM6.57715 12.75H4C3.58579 12.75 3.25 12.4142 3.25 12C3.25 11.5858 3.58579 11.25 4 11.25H7.11328L6.57715 12.75ZM20 11.25C20.4142 11.25 20.75 11.5858 20.75 12C20.75 12.4142 20.4142 12.75 20 12.75H17.4219L16.8857 11.25H20ZM8.00586 8.75H4C3.58579 8.75 3.25 8.41421 3.25 8C3.25 7.58579 3.58579 7.25 4 7.25H8.54199L8.00586 8.75ZM20 7.25C20.4142 7.25 20.75 7.58579 20.75 8C20.75 8.41421 20.4142 8.75 20 8.75H15.9932L15.457 7.25H20ZM10.2158 3.25C10.0562 3.41263 9.91721 3.59747 9.80566 3.80176L9.77539 3.85645L9.75 3.91406L9.68652 4.05762L9.66406 4.10742L9.64551 4.15918L9.43457 4.75H4C3.58579 4.75 3.25 4.41421 3.25 4C3.25 3.58579 3.58579 3.25 4 3.25H10.2158Z" fill="white"/>
</svg>
