<svg width="24" height="24" viewBox="0 0 24 24" fill="none" xmlns="http://www.w3.org/2000/svg">
<path d="M14.6454 19.8407C14.7715 20.1936 14.971 20.4991 15.2177 20.7499H8.78114C9.02783 20.4991 9.2272 20.1938 9.3534 19.8407L9.56434 19.2499H14.4345L14.6454 19.8407Z" fill="white"/>
<path fill-rule="evenodd" clip-rule="evenodd" d="M19.4403 2.46965C19.7332 2.17679 20.208 2.17677 20.5009 2.46965C20.7935 2.76255 20.7936 3.23738 20.5009 3.5302L3.53016 20.5019C3.51588 20.5162 3.50203 20.5307 3.48914 20.5458C3.48771 20.5445 3.48663 20.5423 3.48524 20.5409C3.19064 20.7921 2.74816 20.7792 2.46961 20.5009C2.17676 20.208 2.17683 19.7333 2.46961 19.4404L7.62 14.289L9.5995 8.74993L9.60535 8.7343L11.0585 4.66399L11.122 4.52043C11.2952 4.20319 11.6303 3.99997 11.9999 3.99993C12.4223 4.00014 12.7992 4.26618 12.9413 4.66399L13.8651 7.24993L14.0731 7.83586L19.4403 2.46965ZM10.9227 10.9863L12.5097 9.39934L11.9999 7.97161L10.9227 10.9863Z" fill="white"/>
<path d="M7.94129 19.3359L7.90223 19.4306C7.86023 19.5188 7.80592 19.598 7.74305 19.6679L7.67762 19.7333C7.66811 19.7421 7.65814 19.7503 7.64832 19.7587C7.63173 19.7729 7.61497 19.7867 7.59754 19.7997C7.58894 19.8061 7.57998 19.8122 7.57118 19.8183C7.55828 19.8273 7.54539 19.8363 7.53211 19.8447C7.51804 19.8535 7.50363 19.8619 7.48914 19.87C7.47252 19.8794 7.45548 19.888 7.43836 19.8964C7.43002 19.9005 7.42143 19.9043 7.41297 19.9081C7.39654 19.9156 7.37999 19.923 7.36317 19.9296C7.34451 19.9369 7.32561 19.9439 7.30653 19.9501C7.30109 19.9519 7.2954 19.9533 7.28993 19.955C7.26739 19.9619 7.24458 19.9683 7.22157 19.9736C7.21285 19.9755 7.20397 19.9777 7.1952 19.9794C7.17492 19.9835 7.15424 19.9864 7.13368 19.9892C7.11915 19.9912 7.10438 19.9927 7.08973 19.9941C7.0742 19.9955 7.05849 19.9973 7.04285 19.998H6.94813L6.85243 19.9882C6.78947 19.9788 6.72617 19.9635 6.66395 19.9413C6.62759 19.9283 6.59233 19.913 6.55848 19.8964C6.54452 19.8895 6.53098 19.8814 6.51746 19.8739C6.49706 19.8627 6.47725 19.8503 6.45789 19.8378C6.44649 19.8304 6.43475 19.8232 6.42371 19.8154C6.40684 19.8034 6.39086 19.7901 6.37489 19.7773L8.56532 17.5868L7.94129 19.3359Z" fill="white"/>
<path d="M15.2938 11.2499L15.372 11.4697L17.9413 18.664C18.0752 19.0396 17.9701 19.4414 17.7059 19.706C17.7001 19.7118 17.6943 19.7178 17.6884 19.7236C17.6744 19.7369 17.6593 19.7491 17.6444 19.7616C17.6316 19.7725 17.6188 19.7836 17.6054 19.7939C17.5948 19.8019 17.584 19.8097 17.5731 19.8173C17.5561 19.8293 17.5383 19.8405 17.5204 19.8515C17.4629 19.8865 17.4017 19.9178 17.3358 19.9413C17.2423 19.9747 17.1469 19.9929 17.0526 19.998H16.9501C16.9358 19.9973 16.9213 19.9954 16.9071 19.9941C16.8922 19.9927 16.877 19.9912 16.8622 19.9892C16.8436 19.9866 16.8249 19.9831 16.8065 19.9794C16.7945 19.977 16.7823 19.9744 16.7704 19.9716C16.7472 19.9661 16.7238 19.9602 16.7011 19.9531C16.6975 19.9519 16.6938 19.9503 16.6903 19.9491C16.6666 19.9414 16.6431 19.9323 16.62 19.9228C16.6139 19.9203 16.6075 19.9176 16.6014 19.915C16.5557 19.895 16.511 19.8722 16.4686 19.8456C16.4504 19.8342 16.4324 19.8221 16.4149 19.8095C16.4108 19.8065 16.4063 19.8037 16.4022 19.8007C16.3814 19.7852 16.3613 19.7681 16.3417 19.7509C16.3362 19.7461 16.3305 19.7412 16.3251 19.7363C16.3106 19.723 16.2968 19.7084 16.2831 19.6943C16.2728 19.6836 16.2617 19.6732 16.2518 19.662C16.1696 19.5693 16.1028 19.4598 16.0585 19.3359L14.6884 15.4999H10.6532L12.6532 13.4999H13.9745L13.7069 12.7499L13.705 12.746L13.6259 12.5263L15.1903 10.9618L15.2938 11.2499Z" fill="white"/>
<path d="M5.14832 16.7499H3.99989C3.58574 16.7499 3.24999 16.4141 3.24989 15.9999C3.24989 15.5857 3.58567 15.2499 3.99989 15.2499H5.68446L5.14832 16.7499Z" fill="white"/>
<path d="M19.9999 15.2499C20.414 15.2501 20.7499 15.5858 20.7499 15.9999C20.7498 16.414 20.4139 16.7498 19.9999 16.7499H18.8505L18.3143 15.2499H19.9999Z" fill="white"/>
<path d="M6.57703 12.7499H3.99989C3.58574 12.7499 3.24999 12.414 3.24989 11.9999C3.24989 11.5857 3.58567 11.2499 3.99989 11.2499H7.11317L6.57703 12.7499Z" fill="white"/>
<path d="M19.9999 11.2499C20.414 11.2501 20.7499 11.5858 20.7499 11.9999C20.7498 12.414 20.4139 12.7498 19.9999 12.7499H17.4218L16.8856 11.2499H19.9999Z" fill="white"/>
<path d="M8.00575 8.74993H3.99989C3.58574 8.74993 3.24999 8.41405 3.24989 7.99993C3.24989 7.58571 3.58567 7.24993 3.99989 7.24993H8.54188L8.00575 8.74993Z" fill="white"/>
<path d="M19.9999 7.24993C20.414 7.25007 20.7499 7.5858 20.7499 7.99993C20.7498 8.41396 20.4139 8.74979 19.9999 8.74993H17.4032L18.9032 7.24993H19.9999Z" fill="white"/>
<path d="M10.2157 3.24993C10.0561 3.41255 9.91709 3.5974 9.80555 3.80168L9.77528 3.85637L9.74989 3.91399L9.68641 4.05754L9.66395 4.10735L9.64539 4.15911L9.43446 4.74993H3.99989C3.58574 4.74993 3.25 4.41405 3.24989 3.99993C3.24989 3.58571 3.58567 3.24993 3.99989 3.24993H10.2157Z" fill="white"/>
</svg>
