<svg width="24" height="24" viewBox="0 0 24 24" fill="none" xmlns="http://www.w3.org/2000/svg">
<path d="M2.08364 11.9103C2.08304 13.6568 2.54145 15.362 3.41283 16.8648L2 22L7.27902 20.622C8.73356 21.4117 10.3711 21.8278 12.0376 21.8285H12.0419C17.5299 21.8285 21.9977 17.382 22 11.918C22.0009 9.26966 20.9659 6.77967 19.0859 4.9065C17.2057 3.03332 14.7056 2.00114 12.0419 2C6.55275 2 2.08594 6.44593 2.08364 11.9103ZM5.22718 16.6059L5.03012 16.2943C4.20148 14.9828 3.76414 13.467 3.76475 11.9107C3.76655 7.36909 7.47938 3.67389 12.0448 3.67389C14.2557 3.67474 16.3335 4.5328 17.8965 6.08961C19.4593 7.64653 20.3192 9.71623 20.3186 11.9172C20.3166 16.4591 16.6037 20.1546 12.0417 20.1546H12.0384C10.553 20.1537 9.09624 19.7568 7.82579 19.0062L7.52341 18.8278L4.39062 19.6455L5.22718 16.6059ZM12.0419 21.8285C12.0417 21.8285 12.0418 21.8285 12.0419 21.8285V21.8285Z" fill="white"/>
<path fill-rule="evenodd" clip-rule="evenodd" d="M9.55287 7.76663C9.36644 7.3541 9.1703 7.34584 8.99299 7.33858C8.84788 7.33244 8.68192 7.33284 8.51615 7.33284C8.35018 7.33284 8.08062 7.39484 7.85268 7.64272C7.62453 7.89061 6.98173 8.48984 6.98173 9.70853C6.98173 10.9273 7.87346 12.105 7.99769 12.2704C8.12214 12.4355 9.71907 15.0165 12.2479 16.0093C14.3499 16.8345 14.7776 16.6704 15.2338 16.629C15.69 16.5878 16.7059 16.03 16.9132 15.4516C17.1206 14.8732 17.1206 14.3774 17.0584 14.2739C16.9962 14.1707 16.8303 14.1087 16.5815 13.9849C16.3326 13.861 15.1093 13.2617 14.8813 13.179C14.6531 13.0964 14.4873 13.0552 14.3213 13.3032C14.1554 13.5509 13.6789 14.1087 13.5337 14.2739C13.3886 14.4394 13.2434 14.4601 12.9945 14.3362C12.7456 14.2119 11.9443 13.9506 10.9936 13.1068C10.2539 12.4503 9.75454 11.6394 9.60932 11.3914C9.46421 11.1437 9.59383 11.0096 9.71859 10.8861C9.83038 10.7751 9.96749 10.5968 10.0919 10.4523C10.2161 10.3076 10.2575 10.2044 10.3404 10.0391C10.4235 9.87381 10.382 9.72914 10.3198 9.60523C10.2575 9.48134 9.77412 8.25645 9.55287 7.76663Z" fill="white"/>
</svg>
