<svg width="24" height="24" viewBox="0 0 24 24" fill="none" xmlns="http://www.w3.org/2000/svg">
<path fill-rule="evenodd" clip-rule="evenodd" d="M7.99984 5.85C7.3823 5.85 7.01359 6.33734 6.83329 6.64622C6.62206 7.00807 6.45745 7.48179 6.32905 8.0017C6.06937 9.05314 5.9165 10.4664 5.9165 12C5.9165 13.5336 6.06937 14.9469 6.32905 15.9983C6.45745 16.5182 6.62206 16.9919 6.83329 17.3538C7.01359 17.6627 7.3823 18.15 7.99984 18.15C8.61737 18.15 8.98608 17.6627 9.16639 17.3538C9.37762 16.9919 9.54222 16.5182 9.67063 15.9983C9.9303 14.9469 10.0832 13.5336 10.0832 12C10.0832 10.4664 9.9303 9.05314 9.67063 8.0017C9.54222 7.48179 9.37762 7.00807 9.16639 6.64622C8.98608 6.33734 8.61737 5.85 7.99984 5.85ZM7.4165 12C7.4165 10.551 7.5623 9.26426 7.78529 8.36135C7.85502 8.07904 7.92847 7.85018 7.99984 7.67293C8.0712 7.85018 8.14466 8.07904 8.21438 8.36135C8.43737 9.26426 8.58317 10.551 8.58317 12C8.58317 13.449 8.43737 14.7357 8.21438 15.6386C8.14466 15.921 8.0712 16.1498 7.99984 16.3271C7.92847 16.1498 7.85502 15.921 7.78529 15.6386C7.5623 14.7357 7.4165 13.449 7.4165 12Z" fill="white"/>
<path fill-rule="evenodd" clip-rule="evenodd" d="M7.99984 21.75C7.20363 21.75 6.50156 21.3837 5.92609 20.8361C5.35443 20.292 4.87372 19.5402 4.48631 18.6686C3.71066 16.9235 3.25 14.5652 3.25 12C3.25 9.43482 3.71066 7.07649 4.48631 5.33137C4.87372 4.45976 5.35443 3.70798 5.92609 3.16395C6.50156 2.61629 7.20363 2.25005 7.99984 2.25H15.9998V3.75H14.5969C14.945 4.20363 15.2508 4.73991 15.5137 5.33137C15.8119 6.00229 16.0635 6.76384 16.2603 7.59293L19.0951 9.55949C18.9122 8.15632 18.577 6.9172 18.143 5.9406C17.8065 5.18356 17.4253 4.61734 17.0398 4.25054C16.6583 3.88741 16.308 3.75 15.9998 3.75V2.25C16.7961 2.25 17.4984 2.61625 18.0739 3.16395C18.6456 3.70798 19.1263 4.45976 19.5137 5.33137C20.1764 6.82246 20.6092 8.76123 20.7212 10.8942C20.7532 11.0066 20.7589 11.126 20.7365 11.2422C20.7455 11.4925 20.75 11.7452 20.75 12C20.75 14.5652 20.2893 16.9235 19.5137 18.6686C19.1263 19.5402 18.6456 20.292 18.0739 20.8361C17.4984 21.3838 16.7963 21.75 16 21.75V20.25C16.3082 20.25 16.6583 20.1126 17.0398 19.7495C17.4253 19.3827 17.8065 18.8164 18.143 18.0594C18.2659 17.7828 18.3809 17.4852 18.4868 17.1687L16.4212 15.6496C16.2092 16.7749 15.9006 17.7981 15.5137 18.6686C15.2508 19.2601 14.9449 19.7964 14.5969 20.25H16V21.75H7.99984ZM4.75 12C4.75 9.59448 5.18489 7.45281 5.85702 5.9406C6.1935 5.18356 6.57474 4.61734 6.96016 4.25054C7.34166 3.88748 7.6917 3.75005 7.99984 3.75C8.30801 3.75 8.65827 3.88741 9.03984 4.25054C9.42526 4.61734 9.8065 5.18356 10.143 5.9406C10.8151 7.45281 11.25 9.59448 11.25 12C11.25 14.4055 10.8151 16.5472 10.143 18.0594C9.8065 18.8164 9.42526 19.3827 9.03984 19.7495C8.65827 20.1126 8.30817 20.25 8 20.25C7.69187 20.25 7.34166 20.1125 6.96016 19.7495C6.57474 19.3827 6.1935 18.8164 5.85702 18.0594C5.18489 16.5472 4.75 14.4055 4.75 12ZM16.6582 13.9619L18.9002 15.6108C19.123 14.5227 19.25 13.2999 19.25 12C19.25 11.8279 19.2478 11.6572 19.2434 11.488L16.6194 9.66765C16.705 10.4166 16.75 11.1982 16.75 12C16.75 12.6705 16.7185 13.3269 16.6582 13.9619ZM15.1901 13.5307L15.1868 13.5332L12.4391 15.5535C12.6408 14.4494 12.75 13.2492 12.75 12C12.75 11.6575 12.7418 11.3186 12.7257 10.9844L15.0678 9.35943C15.1855 10.1866 15.25 11.0737 15.25 12C15.25 12.524 15.2294 13.0355 15.1901 13.5307ZM11.8411 17.843C11.8766 17.8248 11.9111 17.8036 11.9442 17.7792L14.9014 15.6048C14.7118 16.5328 14.4526 17.3628 14.143 18.0594C13.8065 18.8164 13.4253 19.3827 13.0398 19.7495C12.6583 20.1126 12.3082 20.25 12 20.25H10.5969C10.9449 19.7964 11.2508 19.2601 11.5137 18.6686C11.6106 18.4505 11.7027 18.2228 11.7895 17.9863C11.8069 17.9389 11.8241 17.8911 11.8411 17.843ZM14.143 5.9406C14.379 6.47169 14.5858 7.08042 14.7548 7.75095L12.5694 9.2672C12.3675 7.77904 12.0033 6.43302 11.5137 5.33137C11.2508 4.73991 10.9449 4.20363 10.5969 3.75H12C12.3082 3.75 12.6583 3.88741 13.0398 4.25054C13.4253 4.61734 13.8065 5.18356 14.143 5.9406Z" fill="white"/>
</svg>
