<svg width="24" height="24" viewBox="0 0 24 24" fill="none" xmlns="http://www.w3.org/2000/svg">
<path fill-rule="evenodd" clip-rule="evenodd" d="M8.04 21.75C8.51 21.73 8.98 21.52 9.44 21.11C9.97 20.65 10.44 19.97 10.85 19.1C11.29 18.18 11.63 17.13 11.87 15.93C12.12 14.68 12.25 13.37 12.25 12C12.25 10.62 12.12 9.31 11.87 8.06C11.63 6.86 11.29 5.81 10.85 4.89C10.44 4.02 9.97 3.34 9.44 2.88C8.98 2.47 8.47 2.26 8 2.25C7.9 2.25 7.81 2.25 7.72 2.26C7.43 2.29 7.15 2.37 6.88 2.5C6.54 2.65 6.22 2.87 5.92 3.16C5.37 3.68 4.89 4.41 4.48 5.33C4.09 6.21 3.79 7.22 3.57 8.35C3.35 9.51 3.25 10.73 3.25 12C3.25 13.26 3.35 14.48 3.57 15.64C3.79 16.77 4.09 17.78 4.48 18.66C4.89 19.58 5.37 20.31 5.92 20.83C6.22 21.12 6.54 21.34 6.88 21.49C7.15 21.62 7.43 21.7 7.72 21.73C7.81 21.74 7.95 21.75 8.04 21.75ZM13.43 15.76L16.72 13.04C16.74 12.7 16.75 12.35 16.75 12C16.75 10.83 16.65 9.7 16.47 8.63L13.7 10.55C13.73 11.02 13.75 11.51 13.75 12C13.75 13.3 13.64 14.55 13.43 15.76ZM13.52 8.84C13.47 8.48 13.41 8.12 13.34 7.76C13.07 6.44 12.7 5.27 12.21 4.25C11.83 3.45 11.4 2.78 10.92 2.25H12.5C12.97 2.26 13.48 2.47 13.94 2.88C14.47 3.34 14.94 4.02 15.35 4.89C15.66 5.54 15.92 6.25 16.13 7.04L13.52 8.84ZM18.07 9.19C18.19 10.1 18.25 11.03 18.25 12C18.25 12.41 18.23 12.83 18.21 13.23L20.53 14.94C20.67 13.99 20.75 13.01 20.75 12C20.75 11.67 20.74 11.35 20.72 11.03L18.07 9.19ZM20.54 9.07L17.69 7.1C17.44 6.05 17.11 5.1 16.71 4.25C16.33 3.45 15.9 2.78 15.42 2.25H16C16.09 2.25 16.18 2.25 16.27 2.26C16.56 2.29 16.84 2.37 17.11 2.5C17.45 2.65 17.77 2.87 18.07 3.16C18.62 3.68 19.1 4.41 19.51 5.33C19.9 6.21 20.2 7.22 20.42 8.35C20.46 8.59 20.5 8.83 20.54 9.07ZM8 17.39C8.73 17.39 9.33 14.98 9.33 12C9.33 9.01 8.73 6.6 8 6.6C7.26 6.6 6.66 9.01 6.66 12C6.66 14.98 7.26 17.39 8 17.39ZM18.05 14.98C17.99 15.4 17.92 15.82 17.84 16.23C17.57 17.55 17.2 18.72 16.71 19.74C16.33 20.54 15.9 21.21 15.42 21.75H16C16.09 21.75 16.18 21.74 16.27 21.73C16.56 21.7 16.84 21.62 17.11 21.49C17.45 21.34 17.77 21.12 18.07 20.83C18.62 20.31 19.1 19.58 19.51 18.66C19.79 18.03 20.03 17.33 20.22 16.57L18.05 14.98ZM12.54 21.75C13.01 21.73 13.48 21.52 13.94 21.11C14.47 20.65 14.94 19.97 15.35 19.1C15.79 18.18 16.13 17.13 16.37 15.93C16.42 15.68 16.46 15.42 16.5 15.16L12.97 18.07C12.93 18.11 12.88 18.14 12.83 18.17C12.65 18.72 12.44 19.25 12.21 19.74C11.83 20.54 11.4 21.21 10.92 21.75H12.54Z" fill="white"/>
</svg>
