<svg width="24" height="24" viewBox="0 0 24 24" fill="none" xmlns="http://www.w3.org/2000/svg">
<path d="M11.9999 15.3604C13.3808 15.3604 14.4999 16.4795 14.4999 17.8604C14.4997 19.241 13.3807 20.3603 11.9999 20.3604C10.6192 20.3604 9.50014 19.2411 9.49994 17.8604C9.49994 16.4794 10.619 15.3604 11.9999 15.3604Z" fill="white"/>
<path d="M11.9999 10.25C14.0553 10.25 16.027 11.0662 17.4804 12.5195C17.7732 12.8124 17.7732 13.2882 17.4804 13.5811C17.1875 13.8739 16.7118 13.8739 16.4189 13.5811C15.2468 12.409 13.6575 11.75 11.9999 11.75C10.3424 11.75 8.75309 12.409 7.581 13.5811C7.28814 13.8739 6.81238 13.8738 6.51947 13.5811C6.22658 13.2882 6.22658 12.8124 6.51947 12.5195C7.97288 11.0662 9.94455 10.25 11.9999 10.25Z" fill="white"/>
<path d="M11.9999 6.75C14.8509 6.75006 17.5855 7.88247 19.6015 9.89844C19.8942 10.1912 19.894 10.6661 19.6015 10.959C19.3087 11.2518 18.8339 11.2518 18.541 10.959C16.8063 9.22433 14.4531 8.25006 11.9999 8.25C9.54674 8.25 7.19363 9.22434 5.45893 10.959C5.16607 11.2518 4.69128 11.2518 4.39838 10.959C4.10571 10.6661 4.10556 10.1913 4.39838 9.89844C6.41439 7.88249 9.14892 6.75 11.9999 6.75Z" fill="white"/>
<path d="M11.9999 3.25C15.6466 3.25004 19.144 4.69876 21.7226 7.27734C22.0154 7.57022 22.0154 8.04502 21.7226 8.33789C21.4297 8.63075 20.955 8.63071 20.6621 8.33789C18.3648 6.04061 15.2488 4.75004 11.9999 4.75C8.75108 4.75 5.63515 6.04062 3.33783 8.33789C3.04497 8.63075 2.57019 8.63069 2.27729 8.33789C1.98439 8.045 1.98439 7.57024 2.27729 7.27734C4.85591 4.69877 8.35325 3.25 11.9999 3.25Z" fill="white"/>
</svg>
