<svg width="24" height="24" viewBox="0 0 24 24" fill="none" xmlns="http://www.w3.org/2000/svg">
<path d="M12.0003 15.3604C13.3811 15.3605 14.5003 16.4795 14.5003 17.8604C14.5001 19.241 13.381 20.3602 12.0003 20.3604C10.6195 20.3604 9.50052 19.2411 9.50032 17.8604C9.50032 16.4794 10.6194 15.3604 12.0003 15.3604Z" fill="white"/>
<path d="M12.0003 10.25C14.0556 10.2501 16.0275 11.0662 17.4808 12.5195C17.7735 12.8124 17.7735 13.2882 17.4808 13.5811C17.1879 13.8739 16.7122 13.8738 16.4193 13.5811C15.2472 12.409 13.6578 11.7501 12.0003 11.75C10.3428 11.75 8.75346 12.4091 7.58138 13.5811C7.28855 13.8739 6.81276 13.8737 6.51985 13.5811C6.22696 13.2882 6.22696 12.8124 6.51985 12.5195C7.97325 11.0662 9.94497 10.25 12.0003 10.25Z" fill="white"/>
<path d="M12.0003 6.75C14.8513 6.75009 17.5859 7.8825 19.6019 9.89844C19.8945 10.1912 19.8943 10.6661 19.6019 10.959C19.309 11.2518 18.8342 11.2517 18.5413 10.959C16.8067 9.22435 14.4535 8.25009 12.0003 8.25C9.54715 8.25 7.194 9.22438 5.45931 10.959C5.16647 11.2518 4.69167 11.2517 4.39876 10.959C4.10609 10.6661 4.10594 10.1913 4.39876 9.89844C6.41476 7.88253 9.14932 6.75 12.0003 6.75Z" fill="white"/>
</svg>
