<svg width="24" height="24" viewBox="0 0 24 24" fill="none" xmlns="http://www.w3.org/2000/svg">
<path d="M17.4999 12C20.5375 12 22.9999 14.4625 22.9999 17.5C22.9999 20.5375 20.5375 23 17.4999 23C14.4624 23 11.9999 20.5376 11.9999 17.5C11.9999 14.4624 14.4624 12 17.4999 12ZM17.4999 13.5C16.3956 13.5 15.4999 14.3954 15.4999 15.5V16.5C14.9476 16.5 14.4999 16.9477 14.4999 17.5V20C14.4999 20.5523 14.9476 21 15.4999 21H19.4999C20.0522 21 20.4999 20.5523 20.4999 20V17.5C20.4999 16.9477 20.0522 16.5 19.4999 16.5V15.5C19.4999 14.3957 18.6045 13.5 17.4999 13.5ZM11.33 15.4531C11.1166 16.0968 10.9999 16.7847 10.9999 17.5C10.9999 18.5151 11.2324 19.476 11.6474 20.332C10.4338 20.1606 9.50012 19.1213 9.49994 17.8604C9.49994 16.7117 10.2747 15.746 11.33 15.4531ZM17.4999 14.5C18.0523 14.5 18.4999 14.9478 18.4999 15.5V16.5H16.4999V15.5C16.4999 14.9477 16.9477 14.5 17.4999 14.5ZM11.9999 10.25C13.3329 10.2501 14.6294 10.5957 15.7734 11.2334C15.1149 11.4144 14.4985 11.6962 13.9413 12.0615C13.3201 11.8583 12.6658 11.75 11.9999 11.75C10.3424 11.75 8.75308 12.4091 7.581 13.5811C7.28818 13.8739 6.81239 13.8737 6.51947 13.5811C6.22658 13.2882 6.22658 12.8124 6.51947 12.5195C7.97287 11.0662 9.9446 10.25 11.9999 10.25ZM11.9999 6.75C14.8509 6.75012 17.5856 7.88253 19.6015 9.89844C19.894 10.1912 19.8939 10.6661 19.6015 10.959C19.3087 11.2518 18.8339 11.2517 18.541 10.959C16.8064 9.22438 14.453 8.25012 11.9999 8.25C9.5468 8.25 7.19362 9.22441 5.45893 10.959C5.16611 11.2518 4.69129 11.2517 4.39838 10.959C4.10571 10.6661 4.10556 10.1913 4.39838 9.89844C6.41438 7.88256 9.14897 6.75 11.9999 6.75ZM11.9999 3.25C15.6465 3.2501 19.1441 4.69881 21.7226 7.27734C22.0152 7.57019 22.0152 8.04504 21.7226 8.33789C21.4298 8.63072 20.955 8.6306 20.6621 8.33789C18.3648 6.04066 15.2487 4.7501 11.9999 4.75C8.75113 4.75 5.63514 6.04069 3.33783 8.33789C3.04501 8.63072 2.5702 8.63058 2.27729 8.33789C1.98439 8.045 1.98439 7.57024 2.27729 7.27734C4.8559 4.69884 8.35331 3.25 11.9999 3.25Z" fill="white"/>
</svg>
