<svg width="24" height="24" viewBox="0 0 24 24" fill="none" xmlns="http://www.w3.org/2000/svg">
<path fill-rule="evenodd" clip-rule="evenodd" d="M12 5.75C8.7511 5.75 5.63527 7.04062 3.33795 9.33794C3.04505 9.63084 2.57018 9.63084 2.27729 9.33794C1.98439 9.04505 1.98439 8.57018 2.27729 8.27728C4.85591 5.69866 8.35328 4.25 12 4.25C15.6467 4.25 19.1441 5.69866 21.7227 8.27728C22.0156 8.57017 22.0156 9.04505 21.7227 9.33794C21.4298 9.63083 20.955 9.63083 20.6621 9.33794C18.3647 7.04062 15.2489 5.75 12 5.75ZM7.58059 13.5806C8.75269 12.4085 10.3424 11.75 12 11.75C12.6659 11.75 13.3208 11.8563 13.942 12.0594C14.4993 11.6942 15.1162 11.4123 15.7748 11.2314C14.6308 10.5935 13.3331 10.25 12 10.25C9.94458 10.25 7.97333 11.0665 6.51993 12.5199C6.22703 12.8128 6.22703 13.2877 6.51993 13.5806C6.81282 13.8735 7.28769 13.8735 7.58059 13.5806ZM11.3296 15.4509C11.1158 16.0951 11 16.784 11 17.5C11 18.5166 11.2334 19.4787 11.6495 20.3356C10.4346 20.1652 9.50001 19.1219 9.50001 17.86C9.50001 16.7113 10.2743 15.7438 11.3296 15.4509Z" fill="white"/>
<path d="M17.5 14.5C16.9478 14.5 16.5 14.9477 16.5 15.5V16.5H18.5V15.5C18.5 14.9478 18.0523 14.5 17.5 14.5Z" fill="white"/>
<path fill-rule="evenodd" clip-rule="evenodd" d="M17.5 23C20.5376 23 23 20.5376 23 17.5C23 14.4624 20.5376 12 17.5 12C14.4624 12 12 14.4624 12 17.5C12 20.5376 14.4624 23 17.5 23ZM19.5 15.5V16.5C20.0523 16.5 20.5 16.9477 20.5 17.5V20C20.5 20.5523 20.0523 21 19.5 21H15.5C14.9477 21 14.5 20.5523 14.5 20V17.5C14.5 16.9477 14.9477 16.5 15.5 16.5V15.5C15.5 14.3954 16.3957 13.5 17.5 13.5C18.6046 13.5 19.5 14.3957 19.5 15.5Z" fill="white"/>
</svg>
