<svg width="24" height="24" viewBox="0 0 24 24" fill="none" xmlns="http://www.w3.org/2000/svg">
<path fill-rule="evenodd" clip-rule="evenodd" d="M12.184 3.68401C13.9297 1.93828 16.5171 1.55076 18.6365 2.51712C18.8602 2.61911 19.0197 2.82423 19.0634 3.06614C19.1071 3.30805 19.0295 3.55603 18.8557 3.72986L16.2498 6.33572C16.1522 6.43335 16.1522 6.59164 16.2498 6.68927L17.3105 7.74993C17.4081 7.84756 17.5664 7.84756 17.6641 7.74993L20.2699 5.1441C20.4437 4.97027 20.6917 4.89267 20.9336 4.93639C21.1755 4.98012 21.3807 5.13962 21.4826 5.3633C22.4489 7.48267 22.0614 10.07 20.3157 11.8157C18.8468 13.2846 16.7817 13.7917 14.9021 13.3404L7.22703 21.0155C6.05546 22.1871 4.15597 22.1871 2.98439 21.0155C1.81282 19.8439 1.81282 17.9444 2.98439 16.7729L10.6594 9.0979C10.2079 7.2182 10.715 5.15295 12.184 3.68401ZM16.9128 3.55143C15.6157 3.34776 14.2431 3.74618 13.2446 4.74467C12.0721 5.91724 11.7268 7.60537 12.2131 9.08273C12.3016 9.3516 12.2312 9.6474 12.031 9.84755L4.04505 17.8335C3.45927 18.4193 3.45927 19.3691 4.04505 19.9548C4.63084 20.5406 5.58059 20.5406 6.16637 19.9548L14.1524 11.9688C14.3526 11.7686 14.6484 11.6982 14.9172 11.7867C16.3945 12.2728 18.0825 11.9276 19.255 10.7551C20.2535 9.75663 20.6519 8.38406 20.4483 7.08703L18.7247 8.81059C18.0413 9.49401 16.9333 9.49401 16.2498 8.81059L15.1892 7.74993C14.5058 7.06652 14.5058 5.95848 15.1892 5.27506L16.9128 3.55143Z" fill="white" fill-opacity="0.96"/>
</svg>
