<svg width="24" height="24" viewBox="0 0 24 24" fill="none" xmlns="http://www.w3.org/2000/svg">
<path fill-rule="evenodd" clip-rule="evenodd" d="M22 12C22 17.5228 17.5228 22 12 22C6.47715 22 2 17.5228 2 12C2 6.47715 6.47715 2 12 2C17.5228 2 22 6.47715 22 12ZM12.75 13.3269H14.8C15.2142 13.3269 15.55 12.9911 15.55 12.5769C15.55 12.1627 15.2142 11.8269 14.8 11.8269H13.3884L15.6273 8.41115C15.8543 8.06472 15.7576 7.59981 15.4111 7.37274C15.0647 7.14567 14.5998 7.24243 14.3727 7.58885L12 11.2088L9.62726 7.58885C9.40019 7.24243 8.93528 7.14567 8.58885 7.37274C8.24243 7.59981 8.14567 8.06472 8.37274 8.41115L10.6116 11.8269H9.20002C8.78581 11.8269 8.45002 12.1627 8.45002 12.5769C8.45002 12.9911 8.78581 13.3269 9.20002 13.3269H11.25V14.4424H9.20002C8.78581 14.4424 8.45002 14.7782 8.45002 15.1924C8.45002 15.6066 8.78581 15.9424 9.20002 15.9424H11.25V16.5C11.25 16.9142 11.5858 17.25 12 17.25C12.4142 17.25 12.75 16.9142 12.75 16.5V15.9424H14.8C15.2142 15.9424 15.55 15.6066 15.55 15.1924C15.55 14.7782 15.2142 14.4424 14.8 14.4424H12.75V13.3269Z" fill="white"/>
</svg>
