<svg width="24" height="24" viewBox="0 0 24 24" fill="none" xmlns="http://www.w3.org/2000/svg">
<path fill-rule="evenodd" clip-rule="evenodd" d="M7 7.25C6.58579 7.25 6.25 7.58579 6.25 8V16C6.25 16.4142 6.58579 16.75 7 16.75H8.28571C10.3568 16.75 12.0357 15.0711 12.0357 13V11C12.0357 8.92893 10.3568 7.25 8.28571 7.25H7ZM7.75 15.25V8.75H8.28571C9.52835 8.75 10.5357 9.75736 10.5357 11V13C10.5357 14.2426 9.52836 15.25 8.28571 15.25H7.75ZM13.9404 8C13.9404 7.58579 13.6046 7.25 13.1904 7.25C12.7762 7.25 12.4404 7.58579 12.4404 8V16C12.4404 16.4142 12.7762 16.75 13.1904 16.75C13.6046 16.75 13.9404 16.4142 13.9404 16V12.5901H16.25V16C16.25 16.4142 16.5858 16.75 17 16.75C17.4142 16.75 17.75 16.4142 17.75 16V8C17.75 7.58579 17.4142 7.25 17 7.25C16.5858 7.25 16.25 7.58579 16.25 8V11.0901H13.9404V8Z" fill="white"/>
</svg>
