<svg width="24" height="24" viewBox="0 0 24 24" fill="none" xmlns="http://www.w3.org/2000/svg">
<path fill-rule="evenodd" clip-rule="evenodd" d="M10.5 7.75C10.5 7.33579 10.8358 7 11.25 7H13.5C15.1569 7 16.5 8.34315 16.5 10C16.5 11.2482 15.7377 12.3184 14.6532 12.7703L16.4037 15.8823C16.6068 16.2433 16.4787 16.7006 16.1177 16.9037C15.7567 17.1068 15.2994 16.9787 15.0963 16.6177L13.0614 13H12V16.25C12 16.6642 11.6642 17 11.25 17C10.8358 17 10.5 16.6642 10.5 16.25V7.75ZM13.4852 11.5H12H13.4852ZM13.5111 11.5C14.3344 11.494 15 10.8247 15 10C15 9.17157 14.3284 8.5 13.5 8.5H12V11.5" fill="white"/>
<path fill-rule="evenodd" clip-rule="evenodd" d="M8.25 7C8.66421 7 9 7.33579 9 7.75V16.25C9 16.6642 8.66421 17 8.25 17C7.83579 17 7.5 16.6642 7.5 16.25V7.75C7.5 7.33579 7.83579 7 8.25 7Z" fill="white"/>
</svg>
