<svg width="16" height="16" viewBox="0 0 16 16" fill="none" xmlns="http://www.w3.org/2000/svg">
<path d="M9.5685 2.58629C9.5685 3.46238 8.86629 4.17259 8.00007 4.17259C7.13385 4.17259 6.43164 3.46238 6.43164 2.58629C6.43164 1.71021 7.13385 1 8.00007 1C8.86629 1 9.5685 1.71021 9.5685 2.58629Z" fill="white"/>
<path d="M6.6063 11.9638V6.71691C6.6063 6.30486 6.6063 5.38745 5.36639 5.19039C5.31512 5.18389 5.2637 5.1772 5.21214 5.17033C5.26558 5.17582 5.31697 5.18253 5.36639 5.19039C7.18256 5.42067 8.81834 5.42067 10.6345 5.19039C10.6839 5.18253 10.7353 5.17582 10.7888 5.17033C10.7372 5.1772 10.6858 5.18389 10.6345 5.19039C9.39457 5.38746 9.39457 6.30486 9.39457 6.71691V11.9638C9.39457 10.3775 8.83695 9.81353 8.00043 9.81353C7.16391 9.81353 6.6063 10.3775 6.6063 11.9638Z" fill="white"/>
<path fill-rule="evenodd" clip-rule="evenodd" d="M2.01348 4.57462C2.08286 4.24834 2.40063 4.04071 2.72324 4.11088C3.63978 4.31023 4.48129 4.46279 5.28132 4.56962C5.3385 4.57565 5.39437 4.58291 5.44896 4.59142C7.20938 4.81397 8.7906 4.81397 10.551 4.59142C10.6056 4.58291 10.6615 4.57565 10.7187 4.56962C11.5187 4.46279 12.3602 4.31023 13.2768 4.11088C13.5994 4.04071 13.9171 4.24834 13.9865 4.57462C14.0559 4.90091 13.8506 5.2223 13.528 5.29247C12.5841 5.49778 11.7074 5.65698 10.8663 5.769C10.8168 5.77559 10.7675 5.78202 10.7182 5.78828C10.2682 5.86175 10.137 6.03749 10.0807 6.14846C9.99961 6.30828 9.99161 6.50112 9.99161 6.71645V14.3957C9.99161 14.7294 9.7241 15 9.39411 15C9.06412 15 8.79661 14.7294 8.79661 14.3957V11.9634C8.79661 11.2226 8.66294 10.8371 8.52751 10.6488C8.41933 10.4983 8.27057 10.4174 7.99997 10.4174C7.72937 10.4174 7.58062 10.4983 7.47244 10.6488C7.33701 10.8371 7.20334 11.2226 7.20334 11.9634V14.3957C7.20334 14.7294 6.93583 15 6.60584 15C6.27585 15 6.00834 14.7294 6.00834 14.3957V6.71645C6.00834 6.50112 6.00034 6.30827 5.91925 6.14844C5.86295 6.03748 5.73175 5.86174 5.28174 5.78828C5.2325 5.78202 5.18315 5.77559 5.13367 5.769C4.29256 5.65698 3.41594 5.49778 2.472 5.29247C2.14939 5.2223 1.9441 4.90091 2.01348 4.57462ZM7.11723 5.94752C7.20389 6.26072 7.20354 6.5457 7.20335 6.69714C7.20334 6.70384 7.20334 6.71028 7.20334 6.71645V9.36627C7.45309 9.25642 7.72445 9.20877 7.99997 9.20877C8.2755 9.20877 8.54685 9.25642 8.79661 9.36627V6.71645C8.79661 6.71028 8.7966 6.70384 8.79659 6.69714C8.79641 6.5457 8.79606 6.26072 8.88272 5.94752C8.29205 5.97341 7.7079 5.97341 7.11723 5.94752Z" fill="white"/>
</svg>
