<svg width="16" height="16" viewBox="0 0 16 16" fill="none" xmlns="http://www.w3.org/2000/svg">
<path d="M9.59932 4.18351C9.59932 3.90737 9.37546 3.68351 9.09932 3.68351C8.82318 3.68351 8.59932 3.90737 8.59932 4.18351V6.36792H6.39844C6.12229 6.36792 5.89844 6.59178 5.89844 6.86792C5.89844 7.14407 6.12229 7.36792 6.39844 7.36792H8.60598L8.63537 9.55904C8.63908 9.83516 8.86592 10.056 9.14204 10.0523C9.41815 10.0486 9.63899 9.82175 9.63528 9.54563L9.60607 7.36792H11.8002C12.0763 7.36792 12.3002 7.14407 12.3002 6.86792C12.3002 6.59178 12.0763 6.36792 11.8002 6.36792H9.59932V4.18351Z" fill="white"/>
<path fill-rule="evenodd" clip-rule="evenodd" d="M5.44797 1.5C4.48147 1.5 3.69797 2.2835 3.69797 3.25V10.4876C3.69797 11.4541 4.48147 12.2376 5.44797 12.2376H12.7515C13.718 12.2376 14.5015 11.4541 14.5015 10.4876V3.25C14.5015 2.2835 13.718 1.5 12.7515 1.5H5.44797ZM12.7515 2.5H5.44797C5.03376 2.5 4.69797 2.83579 4.69797 3.25V10.4876C4.69797 10.9019 5.03376 11.2376 5.44797 11.2376H12.7515C13.1657 11.2376 13.5015 10.9019 13.5015 10.4876V3.25C13.5015 2.83579 13.1657 2.5 12.7515 2.5Z" fill="white"/>
<path d="M2 4.91135C2.27614 4.91135 2.5 5.13521 2.5 5.41135V12.2515C2.5 12.9418 3.05964 13.5015 3.75 13.5015H10.6428C10.919 13.5015 11.1428 13.7253 11.1428 14.0015C11.1428 14.2776 10.919 14.5015 10.6428 14.5015H3.75C2.50736 14.5015 1.5 13.4941 1.5 12.2515V5.41135C1.5 5.13521 1.72386 4.91135 2 4.91135Z" fill="white"/>
</svg>
