<svg width="16" height="16" viewBox="0 0 16 16" fill="none" xmlns="http://www.w3.org/2000/svg">
<path fill-rule="evenodd" clip-rule="evenodd" d="M11.5491 2.02073H11.0827C10.453 2.02073 9.94248 2.52741 9.94248 3.15244C9.94248 3.77746 10.453 4.28415 11.0827 4.28415H12.1517V5.61037C12.1517 6.20609 12.6382 6.68902 13.2384 6.68902C13.8386 6.68902 14.3252 6.20609 14.3252 5.61037V5.50801C14.6019 6.26265 14.7528 7.07725 14.7528 7.92683C14.7528 11.8332 11.5622 15 7.6264 15C3.6906 15 0.5 11.8332 0.5 7.92683C0.5 4.02043 3.6906 0.853659 7.6264 0.853659C9.07573 0.853659 10.424 1.28308 11.5491 2.02073ZM6.20112 6.33537C6.20112 6.82367 5.80229 7.21951 5.31032 7.21951C4.81834 7.21951 4.41952 6.82367 4.41952 6.33537C4.41952 5.84707 4.81834 5.45122 5.31032 5.45122C5.80229 5.45122 6.20112 5.84707 6.20112 6.33537ZM10.8333 6.33537C10.8333 6.82367 10.4345 7.21951 9.94248 7.21951C9.4505 7.21951 9.05168 6.82367 9.05168 6.33537C9.05168 5.84707 9.4505 5.45122 9.94248 5.45122C10.4345 5.45122 10.8333 5.84707 10.8333 6.33537ZM5.00348 9.42988C4.85589 9.17615 4.52901 9.08922 4.27337 9.23571C4.01773 9.3822 3.93015 9.70664 4.07774 9.96037C4.43738 10.5786 4.95467 11.0921 5.57759 11.449C6.20052 11.806 6.90714 11.9939 7.62643 11.9939C8.34572 11.9939 9.05235 11.806 9.67527 11.449C10.2982 11.0921 10.8155 10.5786 11.1751 9.96037C11.3227 9.70664 11.2351 9.3822 10.9795 9.23571C10.7239 9.08922 10.397 9.17615 10.2494 9.42988C9.98355 9.88686 9.60121 10.2663 9.14079 10.5302C8.68037 10.794 8.15808 10.9329 7.62643 10.9329C7.09478 10.9329 6.5725 10.794 6.11207 10.5302C5.65165 10.2663 5.26931 9.88686 5.00348 9.42988Z" fill="white"/>
<path fill-rule="evenodd" clip-rule="evenodd" d="M13.3276 0.5C13.6227 0.5 13.862 0.737508 13.862 1.03049V2.62196H15.4655C15.7607 2.62196 16 2.85947 16 3.15245C16 3.44543 15.7607 3.68294 15.4655 3.68294H13.862V5.27441C13.862 5.56739 13.6227 5.80489 13.3276 5.80489C13.0324 5.80489 12.7931 5.56739 12.7931 5.27441V3.68294H11.1896C10.8944 3.68294 10.6551 3.44543 10.6551 3.15245C10.6551 2.85947 10.8944 2.62196 11.1896 2.62196H12.7931V1.03049C12.7931 0.737508 13.0324 0.5 13.3276 0.5Z" fill="white"/>
</svg>
