<svg width="16" height="16" viewBox="0 0 16 16" fill="none" xmlns="http://www.w3.org/2000/svg">
<path d="M5.63673 5.65137C5.85794 4.97942 6.80802 4.97947 7.0293 5.65137L7.56446 7.2793C7.71334 7.73142 8.06936 8.08552 8.52149 8.23438L10.1484 8.77051C10.8206 8.99168 10.8207 9.94297 10.1484 10.1641L8.52149 10.6992C8.06915 10.8481 7.71331 11.2029 7.56446 11.6553L7.0293 13.2822C6.80809 13.9542 5.85797 13.9542 5.63673 13.2822L5.10157 11.6553C4.95268 11.2029 4.59696 10.848 4.14454 10.6992L2.51758 10.1641C1.8457 9.9428 1.8457 8.99178 2.51758 8.77051L4.14454 8.23438C4.59688 8.08561 4.95263 7.73155 5.10157 7.2793L5.63673 5.65137Z" fill="white"/>
<path d="M11.5391 2.88086C11.5779 2.75583 11.7551 2.75589 11.794 2.88086L12.0879 3.83203C12.2179 4.25303 12.5477 4.58294 12.9688 4.71289L13.9199 5.00586C14.0452 5.04458 14.0452 5.22301 13.9199 5.26172L12.9688 5.55469C12.5476 5.68462 12.2179 6.01447 12.0879 6.43555L11.794 7.38672C11.7553 7.51211 11.5777 7.51211 11.5391 7.38672L11.2461 6.43555C11.1161 6.01442 10.7854 5.68464 10.3643 5.55469L9.41309 5.26172C9.28795 5.22291 9.28783 5.04454 9.41309 5.00586L10.3643 4.71289C10.7855 4.58295 11.1161 4.25321 11.2461 3.83203L11.5391 2.88086Z" fill="white"/>
</svg>
