<svg width="16" height="16" viewBox="0 0 16 16" fill="none" xmlns="http://www.w3.org/2000/svg">
<path fill-rule="evenodd" clip-rule="evenodd" d="M5.63673 5.65112C5.85806 4.97944 6.80794 4.97946 7.0293 5.65112L7.56446 7.27905C7.7133 7.73142 8.06913 8.08625 8.52149 8.2351L10.1484 8.77026C10.8206 8.99142 10.8207 9.94271 10.1484 10.1638L8.52149 10.699C8.06914 10.8478 7.71332 11.2027 7.56446 11.655L7.0293 13.282C6.8082 13.9543 5.85784 13.9543 5.63673 13.282L5.10157 11.655C4.95268 11.2026 4.59697 10.8478 4.14454 10.699L2.51759 10.1638C1.84576 9.94249 1.84565 8.99147 2.51759 8.77026L4.14454 8.2351C4.59698 8.0863 4.95269 7.73145 5.10157 7.27905L5.63673 5.65112ZM6.05079 7.59057C5.80274 8.34478 5.21125 8.93725 4.45704 9.1853L3.59962 9.46752L4.45704 9.74877C5.21109 9.99677 5.80265 10.5885 6.05079 11.3425L6.33302 12.1999L6.61524 11.3425C6.86335 10.5886 7.45507 9.99683 8.20899 9.74877L9.06641 9.46752L8.20899 9.1853C7.45484 8.93722 6.86328 8.34474 6.61524 7.59057L6.33302 6.73412L6.05079 7.59057Z" fill="white"/>
<path d="M11.5391 2.88061C11.5777 2.75526 11.7552 2.75533 11.794 2.88061L12.0879 3.83178C12.2178 4.25312 12.5474 4.58365 12.9688 4.71362L13.9199 5.00659C14.0452 5.0453 14.0452 5.22276 13.9199 5.26147L12.9688 5.55444C12.5474 5.68441 12.2178 6.01493 12.0879 6.43627L11.794 7.38744C11.7551 7.51257 11.5778 7.51265 11.5391 7.38744L11.2461 6.43627C11.1162 6.0149 10.7856 5.68438 10.3643 5.55444L9.41309 5.26147C9.28784 5.22275 9.28787 5.04533 9.41309 5.00659L10.3643 4.71362C10.7856 4.58367 11.1162 4.25315 11.2461 3.83178L11.5391 2.88061Z" fill="white"/>
</svg>
