<svg width="16" height="16" viewBox="0 0 16 16" fill="none" xmlns="http://www.w3.org/2000/svg">
<path fill-rule="evenodd" clip-rule="evenodd" d="M5.9502 8.35018C6.61245 8.35044 7.14996 8.88718 7.15039 9.5494V13.7496C7.15039 14.4122 6.61271 14.9495 5.9502 14.9498H4.55078C3.88804 14.9498 3.35059 14.4123 3.35059 13.7496V9.5494C3.35101 8.88702 3.8883 8.35018 4.55078 8.35018H5.9502ZM4.55078 9.35018C4.44059 9.35018 4.35101 9.43931 4.35059 9.5494V13.7496C4.35059 13.86 4.44033 13.9498 4.55078 13.9498H5.9502C6.06043 13.9495 6.15039 13.8599 6.15039 13.7496V9.5494C6.14996 9.43947 6.06016 9.35044 5.9502 9.35018H4.55078Z" fill="white"/>
<path d="M11.2002 8.35018C12.2493 8.35044 13.1006 9.20139 13.1006 10.2506C13.1003 10.5263 12.8763 10.7503 12.6006 10.7506C12.3246 10.7506 12.1008 10.5265 12.1006 10.2506C12.1006 9.75367 11.697 9.35044 11.2002 9.35018H10.8506C10.1602 9.35018 9.60059 9.90982 9.60059 10.6002V12.6998C9.60063 13.3901 10.1603 13.9498 10.8506 13.9498H11.2002C11.6969 13.9495 12.1004 13.5471 12.1006 13.0504C12.1006 12.7742 12.3244 12.5504 12.6006 12.5504C12.8765 12.5506 13.1006 12.7744 13.1006 13.0504C13.1004 14.0994 12.2492 14.9495 11.2002 14.9498H10.8506C9.60797 14.9498 8.60063 13.9424 8.60059 12.6998V10.6002C8.60059 9.35754 9.60795 8.35018 10.8506 8.35018H11.2002Z" fill="white"/>
<path d="M7 0.999591C7.27601 0.999591 7.49978 1.22363 7.5 1.49959C7.5 1.77573 7.27614 1.99959 7 1.99959H5.75V7.0992C5.75 7.37534 5.52614 7.5992 5.25 7.5992C4.97386 7.5992 4.75 7.37534 4.75 7.0992V1.99959H3.5C3.22386 1.99959 3 1.77573 3 1.49959C3.00022 1.22363 3.22399 0.999591 3.5 0.999591H7Z" fill="white"/>
<path d="M12.1221 1.35018C12.2046 1.08703 12.4857 0.940067 12.749 1.02205C13.0124 1.10446 13.1593 1.38556 13.0771 1.64901L11.3271 7.24861C11.2619 7.45735 11.0683 7.5992 10.8496 7.5992C10.6311 7.59902 10.4373 7.45722 10.3721 7.24861L8.62207 1.64901C8.54008 1.38572 8.68706 1.10454 8.9502 1.02205C9.21355 0.939754 9.49452 1.08702 9.57715 1.35018L10.8496 5.42244L12.1221 1.35018Z" fill="white"/>
</svg>
