<svg width="16" height="16" viewBox="0 0 16 16" fill="none" xmlns="http://www.w3.org/2000/svg">
<path fill-rule="evenodd" clip-rule="evenodd" d="M4.10465 0.897665C4.29924 1.0936 4.29815 1.41018 4.10221 1.60477L1.60234 4.08751C1.4064 4.2821 1.08982 4.28101 0.895233 4.08508C0.700643 3.88914 0.701732 3.57256 0.897665 3.37797L3.39754 0.895233C3.59348 0.700643 3.91006 0.701732 4.10465 0.897665ZM11.8947 0.897665C12.0893 0.701732 12.4059 0.700643 12.6018 0.895233L15.1017 3.37797C15.2976 3.57256 15.2987 3.88914 15.1041 4.08508C14.9095 4.28101 14.5929 4.2821 14.397 4.08751L11.8971 1.60477C11.7012 1.41018 11.7001 1.0936 11.8947 0.897665ZM7.99936 2.66011C5.05059 2.66011 2.66602 5.03326 2.66602 7.95347C2.66602 9.41419 3.26154 10.7365 4.2269 11.6952C5.19232 12.654 6.52534 13.2468 7.99936 13.2468C9.30894 13.2468 10.5067 12.779 11.4347 12.0026C12.5967 11.0304 13.3327 9.57708 13.3327 7.95347C13.3327 5.03326 10.9481 2.66011 7.99936 2.66011ZM1.66602 7.95347C1.66602 4.4745 4.5048 1.66011 7.99936 1.66011C11.4939 1.66011 14.3327 4.4745 14.3327 7.95347C14.3327 9.69076 13.6239 11.2633 12.4802 12.4011L13.478 13.3921C13.6739 13.5866 13.675 13.9032 13.4804 14.0992C13.2858 14.2951 12.9692 14.2962 12.7733 14.1016L11.715 13.0505C10.6711 13.803 9.38672 14.2468 7.99936 14.2468C6.43099 14.2468 4.99469 13.6798 3.88837 12.741L2.51835 14.1016C2.32242 14.2962 2.00584 14.2951 1.81125 14.0992C1.61666 13.9032 1.61775 13.5866 1.81368 13.3921L3.1792 12.0359C2.23629 10.9375 1.66602 9.51151 1.66602 7.95347ZM7.9707 4.96881C7.9707 4.69267 7.74685 4.46881 7.4707 4.46881C7.19456 4.46881 6.9707 4.69267 6.9707 4.96881V8.30494C6.9707 8.67773 7.27291 8.97994 7.6457 8.97994H9.94546C10.2216 8.97994 10.4455 8.75608 10.4455 8.47994C10.4455 8.2038 10.2216 7.97994 9.94546 7.97994H7.9707V4.96881Z" fill="white"/>
</svg>
