<svg width="16" height="16" viewBox="0 0 16 16" fill="none" xmlns="http://www.w3.org/2000/svg">
<path d="M12.0156 11.4394C12.0154 11.8224 11.6997 12.1327 11.3115 12.1327H10.5078V14.0966C10.5078 14.5954 10.1038 14.9999 9.60547 15C9.10589 15 8.70312 14.5954 8.70312 14.0966V12.1327H7.29785V14.0966C7.29785 14.5953 6.89364 14.9998 6.39551 15C5.89732 15 5.49219 14.5954 5.49219 14.0966V12.1327H4.68848C4.30043 12.1325 3.98458 11.8222 3.98438 11.4394V5.92468H12.0156V11.4394ZM13.5898 5.87097C14.0931 5.87114 14.4998 6.27953 14.5 6.78309V10.3486C14.5 10.8523 14.0932 11.2615 13.5898 11.2616C13.087 11.2616 12.6777 10.8524 12.6777 10.3486V6.78309C12.6779 6.27943 13.0871 5.87097 13.5898 5.87097ZM2.41113 5.87195C2.91459 5.87196 3.32226 6.28027 3.32227 6.78407V10.3476C3.32227 10.8508 2.91459 11.2597 2.41113 11.2597C1.90776 11.2597 1.5 10.8508 1.5 10.3476V6.78407C1.5 6.28027 1.90776 5.87195 2.41113 5.87195ZM10.3213 1.14339C10.4235 0.994093 10.6309 0.955024 10.7822 1.05647C10.9335 1.15798 10.972 1.36166 10.8691 1.51058L10.1064 2.61508C11.1747 3.17655 11.9166 4.14742 12.0156 5.27526H3.98438C4.08348 4.14771 4.82618 3.1769 5.89453 2.61508L5.13086 1.51058C5.02796 1.36167 5.06654 1.15799 5.21777 1.05647C5.36902 0.955063 5.5752 0.993667 5.67871 1.14241L6.51074 2.3475C6.97212 2.19026 7.47326 2.10043 8 2.10043C8.52721 2.10043 9.02802 2.19014 9.48926 2.3475L10.3213 1.14339ZM6.30664 3.30454C6.06076 3.30454 5.8623 3.50122 5.8623 3.74302C5.86243 3.9846 6.06149 4.18053 6.30664 4.18053C6.55175 4.18048 6.74988 3.98457 6.75 3.74302C6.75 3.50125 6.55185 3.30459 6.30664 3.30454ZM9.75 3.30454C9.50412 3.30454 9.30566 3.50122 9.30566 3.74302C9.30579 3.9846 9.5042 4.18053 9.75 4.18053C9.99504 4.1804 10.1942 3.98453 10.1943 3.74302C10.1943 3.5013 9.99509 3.30467 9.75 3.30454Z" fill="white"/>
</svg>
