<svg width="16" height="16" viewBox="0 0 16 16" fill="none" xmlns="http://www.w3.org/2000/svg">
<path fill-rule="evenodd" clip-rule="evenodd" d="M2.73134 4.75C2.33616 4.75 2.00195 5.07789 2.00195 5.49958C2.00195 5.92127 2.33616 6.24916 2.73134 6.24916C3.12653 6.24916 3.46073 5.92127 3.46073 5.49958C3.46073 5.07789 3.12653 4.75 2.73134 4.75ZM1.00195 5.49958C1.00195 4.54102 1.76858 3.75 2.73134 3.75C3.69411 3.75 4.46073 4.54102 4.46073 5.49958C4.46073 6.45814 3.69411 7.24916 2.73134 7.24916C1.76858 7.24916 1.00195 6.45814 1.00195 5.49958ZM8.00087 4.75C7.60569 4.75 7.27148 5.07789 7.27148 5.49958C7.27148 5.92127 7.60569 6.24916 8.00087 6.24916C8.39606 6.24916 8.73027 5.92127 8.73027 5.49958C8.73027 5.07789 8.39606 4.75 8.00087 4.75ZM6.27148 5.49958C6.27148 4.54102 7.03811 3.75 8.00087 3.75C8.96364 3.75 9.73027 4.54102 9.73027 5.49958C9.73027 6.45814 8.96364 7.24916 8.00087 7.24916C7.03811 7.24916 6.27148 6.45814 6.27148 5.49958ZM12.5391 5.49958C12.5391 5.07789 12.8733 4.75 13.2685 4.75C13.6636 4.75 13.9978 5.07789 13.9978 5.49958C13.9978 5.92127 13.6636 6.24916 13.2685 6.24916C12.8733 6.24916 12.5391 5.92127 12.5391 5.49958ZM13.2685 3.75C12.3057 3.75 11.5391 4.54102 11.5391 5.49958C11.5391 6.45814 12.3057 7.24916 13.2685 7.24916C14.2312 7.24916 14.9978 6.45814 14.9978 5.49958C14.9978 4.54102 14.2312 3.75 13.2685 3.75ZM5.36611 9.74882C4.97093 9.74882 4.63672 10.0767 4.63672 10.4984C4.63672 10.9201 4.97093 11.248 5.36611 11.248C5.76129 11.248 6.0955 10.9201 6.0955 10.4984C6.0955 10.0767 5.76129 9.74882 5.36611 9.74882ZM3.63672 10.4984C3.63672 9.53984 4.40335 8.74882 5.36611 8.74882C6.32887 8.74882 7.0955 9.53984 7.0955 10.4984C7.0955 11.457 6.32887 12.248 5.36611 12.248C4.40335 12.248 3.63672 11.457 3.63672 10.4984ZM9.9043 10.4984C9.9043 10.0767 10.2385 9.74882 10.6337 9.74882C11.0289 9.74882 11.3631 10.0767 11.3631 10.4984C11.3631 10.9201 11.0289 11.248 10.6337 11.248C10.2385 11.248 9.9043 10.9201 9.9043 10.4984ZM10.6337 8.74882C9.67092 8.74882 8.9043 9.53984 8.9043 10.4984C8.9043 11.457 9.67092 12.248 10.6337 12.248C11.5965 12.248 12.3631 11.457 12.3631 10.4984C12.3631 9.53984 11.5965 8.74882 10.6337 8.74882Z" fill="white"/>
</svg>
