<svg width="16" height="16" viewBox="0 0 16 16" fill="none" xmlns="http://www.w3.org/2000/svg">
<path fill-rule="evenodd" clip-rule="evenodd" d="M3.60811 1.76923C3.60811 1.48247 3.84407 1.25 4.13514 1.25C5.72965 1.25 6.81494 1.98107 7.50024 2.88679C7.58315 2.99636 7.66022 3.10842 7.73176 3.22203C7.74437 3.16942 7.75752 3.11724 7.77124 3.0656C7.88346 2.64333 8.04372 2.21779 8.28072 1.88654C8.52155 1.54995 8.89068 1.25 9.40541 1.25C9.69647 1.25 9.93243 1.48247 9.93243 1.76923C9.93243 2.056 9.69647 2.28846 9.40541 2.28846C9.35797 2.28846 9.27034 2.30582 9.14225 2.48485C9.01033 2.66923 8.88951 2.95763 8.79092 3.32863C8.65787 3.8293 8.58366 4.40814 8.54985 4.91881C8.66462 4.8786 8.78262 4.83434 8.912 4.78582C9.02139 4.74479 9.13893 4.70071 9.26954 4.65343C9.88302 4.43139 10.6594 4.18717 11.5167 4.19231C12.2693 4.19682 13.0247 4.49105 13.5897 5.08733C14.1568 5.68593 14.5 6.55379 14.5 7.65385C14.5 10.1797 13.7657 11.9412 12.849 13.0819C12.3929 13.6495 11.8936 14.0607 11.4234 14.3325C10.9638 14.5981 10.4974 14.75 10.1081 14.75C9.44482 14.75 8.99732 14.5249 8.66081 14.3354C8.63942 14.3234 8.61887 14.3118 8.59909 14.3006C8.28835 14.1253 8.16842 14.0577 8 14.0577C7.83157 14.0577 7.71164 14.1253 7.40089 14.3006C7.38111 14.3118 7.36057 14.3234 7.33918 14.3354C7.00267 14.5248 6.55517 14.75 5.89189 14.75C5.50257 14.75 5.03621 14.5981 4.57665 14.3324C4.10636 14.0606 3.6071 13.6495 3.15098 13.0819C2.23434 11.9412 1.5 10.1797 1.5 7.65381C1.5 6.55376 1.84317 5.68591 2.41032 5.08731C2.96646 4.50034 3.70724 4.20606 4.44809 4.19273C4.23266 3.97503 4.05113 3.72343 3.91281 3.42158C3.70245 2.96251 3.60811 2.42221 3.60811 1.76923ZM7.24866 4.62967C7.15609 4.58617 7.06593 4.54407 6.97841 4.5032C6.84139 4.43922 6.71084 4.37825 6.58765 4.31966C6.11133 4.09312 5.74696 3.90288 5.46298 3.69149C5.18918 3.48768 5.00044 3.2713 4.8735 2.99429C4.79244 2.81738 4.7303 2.60196 4.695 2.32942C5.60057 2.46718 6.22375 2.93728 6.65516 3.50744C6.92304 3.86148 7.11631 4.25482 7.24866 4.62967ZM6.36698 5.6282C5.77871 5.41528 5.14967 5.2268 4.48969 5.23075C4.01243 5.23361 3.53819 5.41876 3.18085 5.79592C2.82572 6.17074 2.55405 6.77034 2.55405 7.65381C2.55405 9.97411 3.22512 11.5011 3.9774 12.4373C4.35574 12.9081 4.75681 13.2326 5.11001 13.4367C5.47393 13.6471 5.75419 13.7115 5.89189 13.7115C6.28267 13.7115 6.53787 13.5905 6.81622 13.4338C6.84362 13.4183 6.87267 13.4015 6.90333 13.3837C7.16079 13.2345 7.53216 13.0192 8 13.0192C8.46785 13.0192 8.83923 13.2345 9.09668 13.3837C9.12734 13.4015 9.15639 13.4184 9.18378 13.4338C9.46214 13.5905 9.71734 13.7115 10.1081 13.7115C10.2458 13.7115 10.5261 13.6471 10.89 13.4368C11.2432 13.2326 11.6443 12.9082 12.0226 12.4373C12.7749 11.5011 13.4459 9.97413 13.4459 7.65385C13.4459 6.77038 13.1743 6.17076 12.8191 5.79593C12.4618 5.41877 11.9876 5.23361 11.5103 5.23075C10.8503 5.2268 10.2213 5.41528 9.63302 5.6282C9.52997 5.6655 9.42275 5.70562 9.3159 5.74561C9.1364 5.81279 8.95795 5.87957 8.80205 5.93191C8.55273 6.0156 8.26919 6.09615 8 6.09615C7.73081 6.09615 7.44727 6.0156 7.19795 5.93191C7.04205 5.87957 6.8636 5.81279 6.6841 5.74561C6.57725 5.70563 6.47003 5.6655 6.36698 5.6282Z" fill="white"/>
</svg>
