<svg width="16" height="16" viewBox="0 0 16 16" fill="none" xmlns="http://www.w3.org/2000/svg">
<path d="M10.9159 4.3877C11.3967 4.40872 12.7421 4.57001 13.6073 5.77344C13.5377 5.81707 12.0027 6.67144 12.0174 8.44043C12.0396 10.5543 13.9777 11.2616 13.9998 11.2686C13.9772 11.3192 13.6885 12.2771 12.9793 13.249C12.3655 14.1169 11.7145 14.9645 10.7235 14.9785C9.73246 14.9995 9.41404 14.4248 8.2899 14.4248C7.15866 14.4249 6.81102 14.964 5.87193 14.999C4.9032 15.034 4.17087 14.0754 3.54967 13.2285C2.28501 11.4996 1.31639 8.31471 2.61803 6.17285C3.26146 5.10893 4.41503 4.43701 5.6649 4.41602C6.61129 4.4021 7.51328 5.02412 8.09751 5.02441C8.67438 5.02441 9.76953 4.2757 10.9159 4.3877ZM10.9305 1C11.0267 1.81891 10.6786 2.64447 10.161 3.23242C9.65068 3.82738 8.80767 4.28956 7.97935 4.22656C7.86855 3.42176 8.28249 2.58172 8.75572 2.0498C9.2956 1.46884 10.1909 1.028 10.9305 1Z" fill="white"/>
</svg>
