<svg width="16" height="16" viewBox="0 0 16 16" fill="none" xmlns="http://www.w3.org/2000/svg">
<path fill-rule="evenodd" clip-rule="evenodd" d="M4.25 7.5C6.04493 7.5 7.5 6.04493 7.5 4.25C7.5 2.45507 6.04493 1 4.25 1C2.45507 1 1 2.45507 1 4.25C1 6.04493 2.45507 7.5 4.25 7.5ZM2 11.75C2 10.5074 3.00736 9.5 4.25 9.5C5.49264 9.5 6.5 10.5074 6.5 11.75C6.5 12.9926 5.49264 14 4.25 14C3.00736 14 2 12.9926 2 11.75ZM4.25 8.5C2.45507 8.5 1 9.95507 1 11.75C1 13.5449 2.45507 15 4.25 15C6.04493 15 7.5 13.5449 7.5 11.75C7.5 9.95507 6.04493 8.5 4.25 8.5ZM11.75 2C10.5074 2 9.5 3.00736 9.5 4.25C9.5 5.49264 10.5074 6.5 11.75 6.5C12.9926 6.5 14 5.49264 14 4.25C14 3.00736 12.9926 2 11.75 2ZM8.5 4.25C8.5 2.45507 9.95507 1 11.75 1C13.5449 1 15 2.45507 15 4.25C15 6.04493 13.5449 7.5 11.75 7.5C9.95507 7.5 8.5 6.04493 8.5 4.25ZM9.5 11.75C9.5 10.5074 10.5074 9.5 11.75 9.5C12.9926 9.5 14 10.5074 14 11.75C14 12.9926 12.9926 14 11.75 14C10.5074 14 9.5 12.9926 9.5 11.75ZM11.75 8.5C9.95507 8.5 8.5 9.95507 8.5 11.75C8.5 13.5449 9.95507 15 11.75 15C13.5449 15 15 13.5449 15 11.75C15 9.95507 13.5449 8.5 11.75 8.5Z" fill="white"/>
</svg>
