<svg width="16" height="16" viewBox="0 0 16 16" fill="none" xmlns="http://www.w3.org/2000/svg">
<path fill-rule="evenodd" clip-rule="evenodd" d="M1.95068 4.2002C1.95068 2.95755 2.95804 1.9502 4.20068 1.9502C5.44332 1.9502 6.45068 2.95755 6.45068 4.2002C6.45068 5.44284 5.44332 6.4502 4.20068 6.4502C2.95804 6.4502 1.95068 5.44284 1.95068 4.2002ZM4.20068 0.950195C2.40576 0.950195 0.950684 2.40527 0.950684 4.2002C0.950684 5.99512 2.40576 7.4502 4.20068 7.4502C5.99561 7.4502 7.45068 5.99512 7.45068 4.2002C7.45068 2.40527 5.99561 0.950195 4.20068 0.950195ZM11.7502 7.5002C13.5451 7.5002 15.0002 6.04512 15.0002 4.2502C15.0002 2.45527 13.5451 1.0002 11.7502 1.0002C9.95527 1.0002 8.5002 2.45527 8.5002 4.2502C8.5002 6.04512 9.95527 7.5002 11.7502 7.5002ZM15.0002 11.7502C15.0002 13.5451 13.5451 15.0002 11.7502 15.0002C9.95527 15.0002 8.5002 13.5451 8.5002 11.7502C8.5002 9.95527 9.95527 8.5002 11.7502 8.5002C13.5451 8.5002 15.0002 9.95527 15.0002 11.7502ZM4.2502 15.0002C6.04512 15.0002 7.5002 13.5451 7.5002 11.7502C7.5002 9.95527 6.04512 8.5002 4.2502 8.5002C2.45527 8.5002 1.0002 9.95527 1.0002 11.7502C1.0002 13.5451 2.45527 15.0002 4.2502 15.0002Z" fill="white"/>
</svg>
