<svg width="16" height="16" viewBox="0 0 16 16" fill="none" xmlns="http://www.w3.org/2000/svg">
<path d="M9.2973 12.5L14 8.00001L9.2973 3.50001V6.23216H2.75C2.33579 6.23216 2 6.56794 2 6.98216V9.01787C2 9.43208 2.33578 9.76787 2.75 9.76787H9.2973V12.5Z" fill="white"/>
<path fill-rule="evenodd" clip-rule="evenodd" d="M9.10088 12.9598C8.91675 12.8812 8.7973 12.7002 8.7973 12.5V10.2679H2.75C2.05964 10.2679 1.5 9.70823 1.5 9.01787V6.98216C1.5 6.2918 2.05964 5.73216 2.75 5.73216H8.7973V3.50001C8.7973 3.29978 8.91675 3.11886 9.10088 3.04021C9.28501 2.96155 9.49831 3.00033 9.64298 3.13876L14.3457 7.63876C14.4443 7.73308 14.5 7.86358 14.5 8.00001C14.5 8.13644 14.4443 8.26694 14.3457 8.36127L9.64298 12.8613C9.49831 12.9997 9.28501 13.0385 9.10088 12.9598ZM13.2768 8.00001L9.7973 4.6705V6.23216C9.7973 6.5083 9.57344 6.73216 9.2973 6.73216H2.75C2.61193 6.73216 2.5 6.84408 2.5 6.98216V9.01787C2.5 9.15594 2.61193 9.26787 2.75 9.26787H9.2973C9.57344 9.26787 9.7973 9.49173 9.7973 9.76787V11.3295L13.2768 8.00001Z" fill="white"/>
</svg>
