<svg width="16" height="16" viewBox="0 0 16 16" fill="none" xmlns="http://www.w3.org/2000/svg">
<path d="M6.35742 3.13874C6.50208 3.00054 6.71541 2.96151 6.89941 3.04011C7.08343 3.11879 7.20309 3.29994 7.20312 3.50007V5.73249H13.25C13.9404 5.73249 14.5 6.29214 14.5 6.98249V9.01765C14.5 9.708 13.9404 10.2676 13.25 10.2676H7.20312V12.5001C7.20312 12.7002 7.08342 12.8813 6.89941 12.96C6.71537 13.0387 6.50209 12.9997 6.35742 12.8614L1.6543 8.3614C1.55574 8.26708 1.5 8.13649 1.5 8.00007C1.50003 7.86367 1.55575 7.73304 1.6543 7.63874L6.35742 3.13874Z" fill="white"/>
</svg>
