<svg width="16" height="16" viewBox="0 0 16 16" fill="none" xmlns="http://www.w3.org/2000/svg">
<path fill-rule="evenodd" clip-rule="evenodd" d="M7.64686 1.14823C7.84212 0.952971 8.1587 0.952971 8.35396 1.14823L10.1102 2.90448C10.3055 3.09974 10.3055 3.41632 10.1102 3.61158C9.91498 3.80685 9.59839 3.80685 9.40313 3.61159L8.00041 2.20889L6.59769 3.61159C6.40243 3.80685 6.08585 3.80685 5.89058 3.61158C5.69532 3.41632 5.69533 3.09974 5.89059 2.90448L7.64686 1.14823ZM9.40378 8.0001C9.40378 8.77606 8.77474 9.4051 7.99877 9.4051C7.2228 9.4051 6.59375 8.77606 6.59375 8.0001C6.59375 7.22414 7.2228 6.5951 7.99877 6.5951C8.77474 6.5951 9.40378 7.22414 9.40378 8.0001ZM13.0957 5.88971C12.9005 5.69445 12.5839 5.69445 12.3886 5.88971C12.1934 6.08497 12.1934 6.40156 12.3886 6.59682L13.7913 7.99951L12.3886 9.4022C12.1934 9.59746 12.1934 9.91405 12.3886 10.1093C12.5839 10.3046 12.9005 10.3046 13.0957 10.1093L14.852 8.35307C14.9458 8.2593 14.9985 8.13212 14.9985 7.99951C14.9985 7.8669 14.9458 7.73972 14.852 7.64595L13.0957 5.88971ZM5.89058 12.3884C6.08585 12.1932 6.40243 12.1932 6.59769 12.3884L8.00041 13.7911L9.40313 12.3884C9.59839 12.1932 9.91498 12.1932 10.1102 12.3884C10.3055 12.5837 10.3055 12.9003 10.1102 13.0955L8.35396 14.8518C8.1587 15.047 7.84212 15.047 7.64686 14.8518L5.89059 13.0955C5.69533 12.9003 5.69532 12.5837 5.89058 12.3884ZM3.61177 6.59682C3.80704 6.40156 3.80704 6.08497 3.61178 5.88971C3.41652 5.69445 3.09994 5.69445 2.90467 5.88971L1.1484 7.64595C1.05463 7.73972 1.00195 7.8669 1.00195 7.99951C1.00195 8.13212 1.05463 8.2593 1.1484 8.35307L2.90467 10.1093C3.09994 10.3046 3.41652 10.3046 3.61178 10.1093C3.80704 9.91405 3.80704 9.59746 3.61177 9.4022L2.20906 7.99951L3.61177 6.59682Z" fill="white"/>
</svg>
