<svg width="16" height="16" viewBox="0 0 16 16" fill="none" xmlns="http://www.w3.org/2000/svg">
<path d="M10.0918 2.84664C10.2871 2.65138 10.6036 2.65138 10.7988 2.84664L13.4238 5.47164C13.5175 5.56539 13.5703 5.69263 13.5703 5.82516C13.5702 5.95768 13.5175 6.08496 13.4238 6.17867L10.7988 8.80367L10.7207 8.86812C10.5267 8.99621 10.2627 8.97437 10.0918 8.80367C9.92097 8.63284 9.89927 8.36883 10.0273 8.17476L10.0918 8.09664L11.8633 6.32516H5.98242C4.56737 6.32537 3.41992 7.47256 3.41992 8.88766C3.42005 10.3026 4.56745 11.4499 5.98242 11.4502H7.49023C7.76633 11.4502 7.99023 11.674 7.99023 11.9502C7.9901 12.2262 7.76625 12.4501 7.49023 12.4502H5.98242C4.01517 12.4499 2.42005 10.8549 2.41992 8.88766C2.41992 6.92027 4.01509 5.32537 5.98242 5.32516H11.8633L10.0918 3.55367C9.89656 3.35843 9.89661 3.04191 10.0918 2.84664Z" fill="white"/>
</svg>
