<svg width="16" height="16" viewBox="0 0 16 16" fill="none" xmlns="http://www.w3.org/2000/svg">
<path d="M9.01765 1.5C9.708 1.5 10.2676 2.05964 10.2676 2.75V8.79688H12.5001C12.7002 8.79688 12.8813 8.91658 12.96 9.10059C13.0387 9.28463 12.9997 9.49791 12.8614 9.64258L8.3614 14.3457C8.26708 14.4443 8.13649 14.5 8.00007 14.5C7.86367 14.5 7.73304 14.4443 7.63874 14.3457L3.13874 9.64258C3.00054 9.49792 2.96151 9.28459 3.04011 9.10059C3.11879 8.91657 3.29994 8.79691 3.50007 8.79688H5.73249V2.75C5.73249 2.05964 6.29214 1.5 6.98249 1.5H9.01765Z" fill="white"/>
</svg>
