<svg width="16" height="16" viewBox="0 0 16 16" fill="none" xmlns="http://www.w3.org/2000/svg">
<path fill-rule="evenodd" clip-rule="evenodd" d="M6.21739 4.90327C6.40888 5.10222 6.40283 5.41875 6.20388 5.61024L3.72101 8L6.20388 10.3898C6.40283 10.5813 6.40888 10.8978 6.21739 11.0967C6.02589 11.2957 5.70937 11.3017 5.51041 11.1102L2.65327 8.36024C2.55534 8.26599 2.5 8.13592 2.5 8C2.5 7.86408 2.55534 7.73401 2.65327 7.63976L5.51041 4.88976C5.70937 4.69826 6.02589 4.70431 6.21739 4.90327ZM9.78261 4.90327C9.97411 4.70431 10.2906 4.69826 10.4896 4.88976L13.3467 7.63976C13.4447 7.73401 13.5 7.86408 13.5 8C13.5 8.13592 13.4447 8.26599 13.3467 8.36024L10.4896 11.1102C10.2906 11.3017 9.97411 11.2957 9.78261 11.0967C9.59112 10.8978 9.59717 10.5813 9.79612 10.3898L12.279 8L9.79612 5.61024C9.59717 5.41875 9.59112 5.10222 9.78261 4.90327Z" fill="white"/>
</svg>
