<svg width="16" height="16" viewBox="0 0 16 16" fill="none" xmlns="http://www.w3.org/2000/svg">
<path d="M5.19141 2.84664C5.38667 2.65138 5.70318 2.65138 5.89844 2.84664C6.09363 3.04191 6.09368 3.35843 5.89844 3.55367L4.12695 5.32516H10.0078C11.9751 5.32537 13.5703 6.92027 13.5703 8.88766C13.5702 10.8549 11.9751 12.4499 10.0078 12.4502H8.5C8.22398 12.4501 8.00013 12.2262 8 11.9502C8 11.674 8.2239 11.4502 8.5 11.4502H10.0078C11.4228 11.4499 12.5702 10.3026 12.5703 8.88766C12.5703 7.47256 11.4229 6.32537 10.0078 6.32516H4.12695L5.89844 8.09664L5.96289 8.17477C6.09096 8.36883 6.06926 8.63285 5.89844 8.80367C5.72758 8.97437 5.46354 8.99621 5.26953 8.86813L5.19141 8.80367L2.56641 6.17867C2.47269 6.08496 2.41999 5.95768 2.41992 5.82516C2.41992 5.69263 2.47274 5.56539 2.56641 5.47164L5.19141 2.84664Z" fill="white"/>
</svg>
