<svg width="16" height="16" viewBox="0 0 16 16" fill="none" xmlns="http://www.w3.org/2000/svg">
<path fill-rule="evenodd" clip-rule="evenodd" d="M8.3613 2.65316C8.26705 2.55529 8.13703 2.5 8.00116 2.5C7.86529 2.5 7.73527 2.55529 7.64102 2.65316L4.88986 5.50982C4.69831 5.70872 4.70426 6.02525 4.90316 6.2168C5.10206 6.40836 5.41859 6.4024 5.61014 6.2035L8.00116 3.72079L10.3922 6.2035C10.5837 6.4024 10.9003 6.40836 11.0992 6.2168C11.2981 6.02525 11.304 5.70872 11.1125 5.50982L8.3613 2.65316ZM5.61014 9.79476C5.41859 9.59586 5.10206 9.58991 4.90316 9.78146C4.70426 9.97302 4.6983 10.2895 4.88986 10.4884L7.64102 13.3451C7.73527 13.443 7.86529 13.4983 8.00116 13.4983C8.13703 13.4983 8.26705 13.443 8.3613 13.3451L11.1125 10.4884C11.304 10.2895 11.2981 9.97302 11.0992 9.78146C10.9003 9.58991 10.5837 9.59586 10.3922 9.79476L8.00116 12.2775L5.61014 9.79476Z" fill="white"/>
</svg>
