<svg width="16" height="16" viewBox="0 0 16 16" fill="none" xmlns="http://www.w3.org/2000/svg">
<path d="M3.50001 9.2973L8.00001 14L12.5 9.2973H9.76787V2.75C9.76787 2.33579 9.43208 2 9.01787 2H6.98215C6.56794 2 6.23216 2.33578 6.23216 2.75V9.2973H3.50001Z" fill="white"/>
<path fill-rule="evenodd" clip-rule="evenodd" d="M3.04021 9.10088C3.11886 8.91675 3.29978 8.7973 3.50001 8.7973H5.73216V2.75C5.73216 2.05964 6.2918 1.5 6.98215 1.5H9.01787C9.70823 1.5 10.2679 2.05964 10.2679 2.75V8.7973H12.5C12.7002 8.7973 12.8812 8.91675 12.9598 9.10088C13.0385 9.28501 12.9997 9.49831 12.8613 9.64298L8.36127 14.3457C8.26694 14.4443 8.13644 14.5 8.00001 14.5C7.86358 14.5 7.73308 14.4443 7.63876 14.3457L3.13876 9.64298C3.00033 9.49831 2.96155 9.28501 3.04021 9.10088ZM8.00001 13.2768L11.3295 9.7973H9.76787C9.49173 9.7973 9.26787 9.57344 9.26787 9.2973V2.75C9.26787 2.61193 9.15594 2.5 9.01787 2.5H6.98215C6.84408 2.5 6.73216 2.61193 6.73216 2.75V9.2973C6.73216 9.57344 6.5083 9.7973 6.23216 9.7973H4.6705L8.00001 13.2768Z" fill="white"/>
</svg>
