<svg width="16" height="16" viewBox="0 0 16 16" fill="none" xmlns="http://www.w3.org/2000/svg">
<path fill-rule="evenodd" clip-rule="evenodd" d="M9.35556 2.54991C8.76576 1.48336 7.23251 1.48336 6.64272 2.54991L1.4458 11.9478C0.874522 12.9808 1.62172 14.2478 2.80222 14.2478H13.1961C14.3766 14.2478 15.1238 12.9808 14.5525 11.9478L9.35556 2.54991ZM7.51783 3.03384C7.72711 2.65539 8.27116 2.65539 8.48045 3.03384L13.6774 12.4317C13.8801 12.7983 13.6149 13.2478 13.1961 13.2478H2.80222C2.38333 13.2478 2.1182 12.7983 2.32091 12.4317L7.51783 3.03384ZM7.99414 5.33809C8.38074 5.33809 8.69414 5.65149 8.69414 6.03809V8.842C8.69414 9.2286 8.38074 9.542 7.99414 9.542C7.60754 9.542 7.29414 9.2286 7.29414 8.842V6.03809C7.29414 5.65149 7.60754 5.33809 7.99414 5.33809ZM8.69431 11.6458C8.69431 12.0329 8.38192 12.3468 7.99657 12.3468C7.61122 12.3468 7.29883 12.0329 7.29883 11.6458C7.29883 11.2587 7.61122 10.9448 7.99657 10.9448C8.38192 10.9448 8.69431 11.2587 8.69431 11.6458Z" fill="white"/>
</svg>
