<svg width="16" height="16" viewBox="0 0 16 16" fill="none" xmlns="http://www.w3.org/2000/svg">
<path fill-rule="evenodd" clip-rule="evenodd" d="M12.0003 8.25C14.0713 8.25011 15.7503 9.929 15.7503 12C15.7503 14.071 14.0713 15.7499 12.0003 15.75C9.92922 15.75 8.25029 14.0711 8.25029 12C8.25029 9.92893 9.92922 8.25 12.0003 8.25ZM11.2679 9.76758C11.0813 9.71781 10.8892 9.82813 10.8392 10.0146C10.7892 10.2013 10.9007 10.3932 11.0872 10.4434C11.7375 10.6177 12.3121 11.002 12.722 11.5361C13.1319 12.0704 13.3538 12.725 13.3538 13.3984C13.3539 13.5916 13.5113 13.7479 13.7044 13.748C13.8976 13.748 14.0539 13.5916 14.054 13.3984C14.054 12.5711 13.7812 11.7668 13.2776 11.1104C12.7739 10.4539 12.0671 9.98174 11.2679 9.76758ZM10.7395 11.708C10.5528 11.658 10.3609 11.7694 10.3108 11.9561C10.2608 12.1427 10.3712 12.3347 10.5579 12.3848C10.7733 12.4425 10.9641 12.5692 11.0999 12.7461C11.2356 12.923 11.3088 13.1403 11.3089 13.3633C11.3089 13.5566 11.4662 13.7139 11.6595 13.7139C11.8526 13.7136 12.0091 13.5564 12.0091 13.3633C12.009 12.9863 11.885 12.6195 11.6556 12.3203C11.426 12.0212 11.1037 11.8057 10.7395 11.708Z" fill="white"/>
<path fill-rule="evenodd" clip-rule="evenodd" d="M10.5921 0.948242L10.7356 0.951172H10.7376C11.4915 0.982163 12.0349 1.25357 12.4202 1.6875C12.8032 2.1193 13.0266 2.70697 13.1546 3.36328C13.4099 4.67343 13.2942 6.29511 13.2942 7.57617L13.2933 7.68945C13.0186 7.60717 12.7327 7.54995 12.4388 7.52148C12.4416 6.14512 12.549 4.6566 12.3011 3.4502C12.1783 2.8534 11.9829 2.42624 11.7249 2.15625C11.6217 2.04847 11.4982 1.95473 11.344 1.88477C11.6807 2.52992 11.8139 3.44376 11.8626 4.41309C11.9145 5.44572 11.8716 6.56021 11.8694 7.50293C11.6266 7.50986 11.3883 7.53614 11.1565 7.58008C11.1565 7.57878 11.1575 7.57747 11.1575 7.57617C11.1575 6.21752 11.2411 4.65426 11.053 3.39648C10.9593 2.76995 10.8061 2.29797 10.597 1.99707C10.5201 1.88664 10.4386 1.80253 10.3499 1.74219L10.0589 1.73926C10.3042 2.37003 10.4037 3.32034 10.4388 4.34277C10.4757 5.42151 10.4446 6.59506 10.4446 7.57617L10.4436 7.77637C10.1944 7.86826 9.9551 7.98172 9.7288 8.11426C9.7292 7.94102 9.73173 7.76174 9.73173 7.57617C9.73173 6.23578 9.78572 4.64399 9.6663 3.36621C9.60631 2.72459 9.50592 2.22278 9.36455 1.89746C9.33306 1.82508 9.30058 1.76941 9.27275 1.72656H8.86259C8.96233 2.3476 9.00249 3.30014 9.01689 4.33301C9.03195 5.41402 9.01982 6.58995 9.01982 7.57617L9.01787 8.62988C8.74737 8.86942 8.50653 9.14174 8.30009 9.43945C8.30219 8.90059 8.30693 8.28365 8.30693 7.57617C8.30693 6.25416 8.32909 4.63411 8.28056 3.33594C8.2562 2.68444 8.21431 2.14098 8.1497 1.76953C8.14713 1.75478 8.14368 1.74045 8.14091 1.72656H7.85869C7.85601 1.7404 7.85343 1.75484 7.85087 1.76953C7.78628 2.14082 7.74437 2.68365 7.72001 3.33496C7.67149 4.63323 7.69365 6.25399 7.69365 7.57617C7.69365 8.88747 7.69688 9.88775 7.70341 10.6562C7.57086 11.0805 7.50029 11.532 7.50029 12C7.50029 13.1873 7.96095 14.2662 8.7122 15.0703H4.39189C4.24646 15.0703 4.12039 14.9769 4.08622 14.8457L4.08427 14.8379L4.07841 14.7939L4.07744 14.791V14.7852L4.07646 14.7803C4.0741 14.5659 4.05402 14.4372 4.00224 14.3271C3.94951 14.2154 3.8605 14.1139 3.70634 13.958L3.31669 13.5645L3.31083 13.5586L3.30595 13.5518C3.25085 13.4614 3.18358 13.3665 3.11845 13.2129C3.05314 13.0587 2.99 12.8455 2.9329 12.5107C2.81888 11.842 2.72968 10.6771 2.71025 8.50195L2.70634 7.57617C2.70635 6.29503 2.59058 4.67347 2.84599 3.36328C2.974 2.70676 3.19707 2.1193 3.58037 1.6875C3.96581 1.25369 4.50883 0.981909 5.26298 0.951172H5.26494L5.40751 0.948242L7.99931 0.929688H8.00126L10.5921 0.948242ZM4.65556 1.88477C4.50158 1.95464 4.37877 2.04867 4.27568 2.15625C4.0174 2.42617 3.82237 2.85308 3.69951 3.4502C3.4482 4.67264 3.56182 6.18454 3.56181 7.57617C3.5618 10.1901 3.64916 11.5325 3.7581 12.2598C3.81185 12.6184 3.86734 12.802 3.90751 12.9023C3.93721 12.9764 3.95861 13.0116 4.00322 13.083C4.1353 13.2179 4.23189 13.3134 4.33622 13.4189C4.3968 13.4802 4.45998 13.5473 4.5208 13.6172H4.6165L4.57255 13.5566L4.56865 13.5508L4.56572 13.5439C4.5254 13.453 4.477 13.3588 4.42997 13.2061C4.38293 13.0532 4.33654 12.8415 4.29521 12.5078C4.21261 11.8406 4.14819 10.6769 4.13408 8.50195L4.13115 7.57617L4.11455 6.0332C4.10954 5.49451 4.1114 4.94298 4.13798 4.41309C4.18662 3.44364 4.31883 2.52991 4.65556 1.88477ZM5.6497 1.74219C5.56108 1.80241 5.48047 1.88678 5.40361 1.99707C5.19422 2.2979 5.04134 2.76931 4.94755 3.39648C4.75949 4.65437 4.84307 6.21728 4.84306 7.57617C4.84305 10.1917 4.90615 11.5514 4.98759 12.2998C5.02806 12.6715 5.07257 12.876 5.10869 13C5.13791 13.1002 5.16191 13.1515 5.20048 13.2363C5.29923 13.3751 5.37281 13.4739 5.44853 13.5791C5.45691 13.5908 5.46624 13.6046 5.4749 13.6172H5.86259L5.82939 13.5439L5.82548 13.5342C5.71167 13.124 5.55594 12.8071 5.55595 7.57617C5.55595 6.59513 5.52505 5.42151 5.56181 4.34277C5.59667 3.32036 5.69455 2.37005 5.93974 1.73926L5.6497 1.74219ZM6.72783 1.72656C6.70001 1.76924 6.66746 1.82439 6.63603 1.89648C6.49453 2.22175 6.39428 2.72412 6.33427 3.36621C6.21487 4.64407 6.26885 6.2356 6.26884 7.57617C6.26883 12.5818 6.41373 13.0195 6.50224 13.3213C6.54982 13.4284 6.59475 13.5257 6.63603 13.6172H7.10576L7.08915 13.5273L7.08818 13.5234C7.04333 13.1189 6.98075 12.8118 6.98076 7.57617C6.98076 6.58995 6.96862 5.41402 6.98369 4.33301C6.99809 3.30004 7.03823 2.34759 7.13798 1.72656H6.72783Z" fill="white"/>
</svg>
