<svg width="16" height="16" viewBox="0 0 16 16" fill="none" xmlns="http://www.w3.org/2000/svg">
<path fill-rule="evenodd" clip-rule="evenodd" d="M10.5921 0.948242L10.7356 0.951172H10.7376C11.492 0.981964 12.0348 1.25338 12.4202 1.6875C12.8035 2.11934 13.0266 2.70672 13.1546 3.36328C13.41 4.67346 13.2942 6.29505 13.2942 7.57617L13.2903 8.50195L13.2796 9.27148C13.2479 10.9607 13.1674 11.9256 13.0677 12.5107C13.0106 12.8455 12.9474 13.0587 12.8821 13.2129C12.817 13.3667 12.7498 13.4614 12.6946 13.5518L12.6897 13.5586L12.6839 13.5645L12.2942 13.958C12.1397 14.1142 12.0511 14.2153 11.9983 14.3271C11.9463 14.4374 11.9255 14.5652 11.9231 14.7803V14.791L11.9222 14.7939L11.9163 14.8379L11.9153 14.8457C11.8813 14.977 11.7541 15.0702 11.6087 15.0703H4.39189C4.24637 15.0703 4.1203 14.9771 4.08622 14.8457L4.08427 14.8379L4.07841 14.7939L4.07744 14.791V14.7852L4.07646 14.7803C4.0741 14.5656 4.05415 14.4373 4.00224 14.3271C3.94945 14.2153 3.86081 14.1142 3.70634 13.958L3.31669 13.5645L3.31083 13.5586L3.30595 13.5518C3.25081 13.4613 3.18363 13.3667 3.11845 13.2129C3.05313 13.0587 2.99001 12.8456 2.9329 12.5107C2.81888 11.842 2.72968 10.6771 2.71025 8.50195L2.70634 7.57617C2.70635 6.29503 2.59058 4.67347 2.84599 3.36328C2.97399 2.70669 3.19703 2.11934 3.58037 1.6875C3.96583 1.2534 4.50855 0.981921 5.26298 0.951172H5.26494L5.40751 0.948242L7.99931 0.929688H8.00126L10.5921 0.948242ZM4.65556 1.88477C4.50134 1.95474 4.37887 2.04846 4.27568 2.15625C4.01737 2.4262 3.82237 2.85297 3.69951 3.4502C3.4482 4.67264 3.56182 6.18454 3.56181 7.57617C3.5618 10.1901 3.64916 11.5325 3.7581 12.2598C3.81186 12.6185 3.86734 12.802 3.90751 12.9023C3.93729 12.9766 3.95854 13.0115 4.00322 13.083C4.13555 13.2182 4.23176 13.3133 4.33622 13.4189C4.39695 13.4804 4.45981 13.5471 4.5208 13.6172H4.6165L4.57255 13.5566L4.56865 13.5508L4.56572 13.5439C4.52537 13.453 4.47703 13.3589 4.42997 13.2061C4.38293 13.0531 4.33654 12.8416 4.29521 12.5078C4.21261 11.8406 4.14818 10.6769 4.13408 8.50195L4.13115 7.57617L4.11455 6.0332C4.10954 5.49451 4.1114 4.94298 4.13798 4.41309C4.18662 3.44362 4.31883 2.52992 4.65556 1.88477ZM5.6497 1.74219C5.56096 1.8025 5.48056 1.88655 5.40361 1.99707C5.1942 2.29792 5.04134 2.76924 4.94755 3.39648C4.75949 4.65437 4.84307 6.21728 4.84306 7.57617C4.84305 10.1917 4.90615 11.5514 4.98759 12.2998C5.02806 12.6716 5.07257 12.876 5.10869 13C5.13794 13.1004 5.16188 13.1514 5.20048 13.2363C5.2994 13.3754 5.37272 13.4737 5.44853 13.5791C5.45701 13.5909 5.46613 13.6044 5.4749 13.6172H5.86259L5.82939 13.5439L5.82548 13.5342C5.71167 13.124 5.55594 12.8071 5.55595 7.57617C5.55595 6.59513 5.52505 5.42151 5.56181 4.34277C5.59667 3.32035 5.69455 2.37006 5.93974 1.73926L5.6497 1.74219ZM6.72783 1.72656C6.69996 1.76931 6.66751 1.82421 6.63603 1.89648C6.49452 2.22177 6.39428 2.72407 6.33427 3.36621C6.21487 4.64407 6.26885 6.2356 6.26884 7.57617C6.26883 12.5818 6.41373 13.0195 6.50224 13.3213C6.54989 13.4285 6.5947 13.5256 6.63603 13.6172H7.10576L7.08915 13.5273L7.08818 13.5234C7.04333 13.1189 6.98075 12.8118 6.98076 7.57617C6.98076 6.58995 6.96862 5.41402 6.98369 4.33301C6.99809 3.30004 7.03823 2.34759 7.13798 1.72656H6.72783ZM7.85087 1.76953C7.78627 2.14083 7.74437 2.68363 7.72001 3.33496C7.67149 4.63323 7.69365 6.25399 7.69365 7.57617C7.69364 12.7056 7.75383 13.0759 7.79423 13.4307L7.82744 13.6172H8.17314C8.18298 13.5618 8.19354 13.5015 8.20537 13.4346C8.24577 13.0786 8.30693 12.7239 8.30693 7.57617C8.30693 6.25415 8.32909 4.63412 8.28056 3.33594C8.2562 2.68435 8.21432 2.14098 8.1497 1.76953C8.14712 1.75471 8.14369 1.74051 8.14091 1.72656H7.85869C7.856 1.74046 7.85344 1.75478 7.85087 1.76953ZM8.86259 1.72656C8.96235 2.3476 9.00249 3.30006 9.01689 4.33301C9.03195 5.41402 9.01982 6.58995 9.01982 7.57617L9.01787 9.31836C9.00525 12.8894 8.95166 13.1694 8.9124 13.5234V13.5273C8.90689 13.5586 8.90101 13.5887 8.8958 13.6172H9.36357C9.4049 13.5255 9.4486 13.4288 9.49638 13.3213C9.58488 13.0195 9.73175 12.5838 9.73173 7.57617C9.73173 6.23574 9.78573 4.644 9.6663 3.36621C9.60629 2.72435 9.506 2.22277 9.36455 1.89746C9.33295 1.82482 9.30065 1.76948 9.27275 1.72656H8.86259ZM10.0589 1.73926C10.3043 2.37003 10.4037 3.32016 10.4388 4.34277C10.4757 5.42152 10.4446 6.59505 10.4446 7.57617L10.4436 8.50098C10.426 12.8491 10.2809 13.1491 10.1741 13.5342L10.1722 13.5439C10.161 13.5693 10.1486 13.5937 10.138 13.6172H10.5257C10.5344 13.6044 10.5435 13.591 10.552 13.5791C10.6275 13.4743 10.7005 13.375 10.7991 13.2363C10.8379 13.151 10.8626 13.1004 10.8919 13C10.928 12.8759 10.9725 12.6715 11.013 12.2998C11.0944 11.5513 11.1575 10.1916 11.1575 7.57617C11.1575 6.21747 11.2411 4.65428 11.053 3.39648C10.9592 2.76963 10.8063 2.29795 10.597 1.99707C10.5199 1.88636 10.4389 1.80257 10.3499 1.74219L10.0589 1.73926ZM11.344 1.88477C11.6809 2.52995 11.8139 3.44356 11.8626 4.41309C11.9158 5.4726 11.8694 6.61825 11.8694 7.57617C11.8694 10.1943 11.8063 11.5828 11.721 12.3672C11.6783 12.7593 11.6304 13.0031 11.5804 13.1748C11.5303 13.3469 11.478 13.4466 11.4349 13.5439L11.429 13.5566L11.428 13.5557C11.413 13.577 11.3975 13.5972 11.3831 13.6172H11.4798C11.5408 13.5471 11.6036 13.4804 11.6643 13.4189C11.7687 13.3134 11.8643 13.2179 11.9964 13.083C12.0412 13.0112 12.0632 12.9768 12.0931 12.9023C12.1332 12.802 12.1887 12.6185 12.2425 12.2598C12.3514 11.5325 12.4388 10.1901 12.4388 7.57617C12.4388 6.18456 12.5524 4.67263 12.3011 3.4502C12.1782 2.85303 11.9832 2.42621 11.7249 2.15625C11.6215 2.04828 11.4986 1.95477 11.344 1.88477Z" fill="white"/>
</svg>
