<svg width="16" height="16" viewBox="0 0 16 16" fill="none" xmlns="http://www.w3.org/2000/svg">
<path fill-rule="evenodd" clip-rule="evenodd" d="M6.44537 3.00001C6.06987 2.99986 5.79565 2.99975 5.53166 3.06417C5.29861 3.12104 5.07582 3.21483 4.87147 3.34211C4.63999 3.48629 4.44616 3.68345 4.18075 3.95344L2.14722 6.02033C1.88178 6.29011 1.66023 6.51529 1.49402 6.71429C1.32067 6.92184 1.17679 7.13587 1.09459 7.39301C0.968471 7.78752 0.968471 8.21248 1.09459 8.60699C1.17679 8.86413 1.32067 9.07816 1.49402 9.28571C1.66023 9.4847 1.88178 9.70988 2.14721 9.97966L4.18074 12.0466C4.44615 12.3165 4.63999 12.5137 4.87147 12.6579C5.07582 12.7852 5.29861 12.879 5.53166 12.9358C5.79565 13.0002 6.06987 13.0001 6.44537 13L11.684 13C12.1572 13 12.5442 13 12.8588 12.9739C13.1843 12.9468 13.4783 12.8892 13.7529 12.747C14.1827 12.5244 14.5321 12.1693 14.7511 11.7325C14.891 11.4534 14.9477 11.1545 14.9743 10.8236C15 10.5039 15 10.1106 15 9.62959V6.37041C15 5.88944 15 5.49608 14.9743 5.1764C14.9477 4.8455 14.891 4.54664 14.7511 4.26754C14.5321 3.83074 14.1827 3.47561 13.7529 3.25305C13.4783 3.11084 13.1843 3.05317 12.8588 3.02614C12.5442 3.00002 12.1572 3.00002 11.684 3.00003L6.44537 3.00001ZM7.62619 5.50626C7.43253 5.30942 7.11595 5.30684 6.91911 5.50051C6.72227 5.69418 6.71969 6.01075 6.91336 6.20759L8.67662 7.99977L6.91336 9.79195C6.71969 9.98879 6.72227 10.3054 6.91911 10.499C7.11595 10.6927 7.43253 10.6901 7.62619 10.4933L9.37804 8.7127L11.1299 10.4933C11.3236 10.6901 11.6401 10.6927 11.837 10.499C12.0338 10.3054 12.0364 9.98879 11.8427 9.79195L10.0795 7.99977L11.8427 6.20759C12.0364 6.01075 12.0338 5.69418 11.837 5.50051C11.6401 5.30684 11.3236 5.30942 11.1299 5.50626L9.37804 7.28684L7.62619 5.50626Z" fill="white"/>
</svg>
