<svg width="16" height="16" viewBox="0 0 16 16" fill="none" xmlns="http://www.w3.org/2000/svg">
<path fill-rule="evenodd" clip-rule="evenodd" d="M6.85703 1.74386C6.75347 1.62278 6.63558 1.48031 6.35635 1.50226C6.11522 1.52121 5.93535 1.66058 5.83544 1.74414C5.72629 1.83542 5.59977 1.96182 5.46303 2.09843L1.15377 6.40295C0.948744 6.60775 0.948744 6.9398 1.15377 7.1446L5.46303 11.4491C5.59977 11.5857 5.72629 11.7121 5.83544 11.8034C5.93535 11.887 6.11522 12.0263 6.35635 12.0453C6.6 12.0533 6.80533 11.8019 6.88021 11.7037C6.9551 11.6055 7.04264 11.2927 7.05414 11.163C7.0667 11.0214 7.06669 10.8426 7.06667 10.6495L7.06667 8.95798C7.06667 8.94834 7.06667 8.93914 7.06668 8.93034C7.0735 8.93054 7.08056 8.93075 7.08789 8.93097C9.15776 8.99287 10.6449 9.18458 11.5564 9.78982C12.474 10.3991 13.0929 11.2246 13.8619 12.2503C13.8619 12.2503 13.9172 12.3306 13.95 12.4029C14.2672 13.1022 15 13.2069 15 12.6127V12.4549C15 8.08468 11.3827 4.84445 7.06668 4.52935L7.06668 2.79639C7.06669 2.6032 7.06671 2.42447 7.05414 2.28282C7.04264 2.15317 7.01411 1.92757 6.85703 1.74386Z" fill="white"/>
</svg>
