<svg width="16" height="16" viewBox="0 0 16 16" fill="none" xmlns="http://www.w3.org/2000/svg">
<path fill-rule="evenodd" clip-rule="evenodd" d="M6.27009 2.71342C6.27024 2.7571 6.27027 2.80527 6.27027 2.85856V4.59452C6.27027 4.91619 6.52713 5.17899 6.84871 5.18635C10.4518 5.26882 13.3977 7.94513 13.9183 11.4062C13.4086 10.7741 12.8525 10.1868 12.1385 9.70917C11.0184 8.95986 9.55546 8.50532 7.34719 8.43902L7.33327 8.4386C7.24988 8.43608 7.15878 8.43332 7.07923 8.43778C6.98757 8.44292 6.87137 8.45881 6.75037 8.5173C6.58691 8.5963 6.4503 8.72888 6.36642 8.8899C6.30372 9.01025 6.28473 9.1274 6.277 9.21863C6.27023 9.29867 6.27025 9.39103 6.27027 9.47657L6.27027 10.7564C6.27027 10.8097 6.27024 10.8579 6.27009 10.9016C6.2392 10.8707 6.20525 10.8365 6.16769 10.7987L2.20462 6.8075L6.16769 2.81628C6.20525 2.77847 6.2392 2.74431 6.27009 2.71342ZM7.06603 1.79631C6.88883 1.58928 6.6231 1.47976 6.35148 1.50182C6.11824 1.52075 5.94357 1.6567 5.84426 1.74046C5.73597 1.83179 5.61015 1.95852 5.47281 2.09686L1.1452 6.4552C0.951601 6.65017 0.951601 6.96483 1.1452 7.1598L5.47282 11.5182C5.61016 11.6565 5.73598 11.7832 5.84426 11.8745C5.94357 11.9583 6.11824 12.0942 6.35148 12.1132C6.6231 12.1352 6.88883 12.0257 7.06603 11.8187C7.2182 11.6409 7.24636 11.4214 7.25781 11.292C7.2703 11.1508 7.27029 10.9723 7.27027 10.7773L7.27027 9.49058C7.27027 9.47114 7.27027 9.45347 7.27031 9.43719C7.28471 9.4376 7.30025 9.43806 7.31718 9.43857C9.39818 9.50105 10.662 9.92457 11.5824 10.5403C12.5084 11.1598 13.1326 11.9993 13.9038 13.0365L13.9288 13.0701C14.2701 13.5291 15 13.2885 15 12.7155V12.5032C15 8.11679 11.601 4.50931 7.27027 4.20515L7.27027 2.8377C7.27029 2.64275 7.2703 2.46416 7.25781 2.32304C7.24636 2.19363 7.2182 1.9741 7.06603 1.79631Z" fill="white"/>
</svg>
