<svg width="16" height="16" viewBox="0 0 16 16" fill="none" xmlns="http://www.w3.org/2000/svg">
<path d="M5.06757 8C5.06757 5.98003 5.44482 4.17679 6.03228 2.89821C6.6406 1.57421 7.37473 1 8 1C11.866 1 15 4.13401 15 8C15 8.62527 14.4258 9.3594 13.1018 9.96772C11.8232 10.5552 10.02 10.9324 8 10.9324C7.04174 10.9324 6.13226 10.8475 5.30443 10.6956C5.15247 9.86774 5.06757 8.95826 5.06757 8Z" fill="white"/>
<path d="M14.6078 10.3159C14.2849 10.5434 13.9234 10.7458 13.5402 10.9218C12.0952 11.5857 10.136 11.9824 8 11.9824C7.15198 11.9824 6.33182 11.9199 5.56063 11.8029C5.69543 12.2784 5.8542 12.7142 6.03228 13.1018C6.6406 14.4258 7.37473 15 8 15C11.0544 15 13.6518 13.0438 14.6078 10.3159Z" fill="white"/>
<path d="M5.68415 14.6078C5.45665 14.2849 5.25423 13.9234 5.07817 13.5402C4.81271 12.9624 4.58997 12.3024 4.41823 11.5818C3.69759 11.41 3.03759 11.1873 2.45983 10.9218C2.07664 10.7458 1.71514 10.5434 1.39216 10.3159C2.09413 12.3189 3.68111 13.9059 5.68415 14.6078Z" fill="white"/>
<path d="M1 8C1 8.62527 1.57421 9.3594 2.89821 9.96772C3.2858 10.1458 3.72161 10.3046 4.19706 10.4394C4.0801 9.66818 4.01757 8.84802 4.01757 8C4.01757 5.86403 4.41428 3.90477 5.07817 2.45983C5.25423 2.07664 5.45665 1.71514 5.68415 1.39216C2.95624 2.34816 1 4.94563 1 8Z" fill="white"/>
</svg>
