<svg width="16" height="16" viewBox="0 0 16 16" fill="none" xmlns="http://www.w3.org/2000/svg">
<path fill-rule="evenodd" clip-rule="evenodd" d="M5.82016 2.46197C3.61242 3.33166 2.05 5.48337 2.05 8C2.05 8.49205 2.50669 9.10557 3.64067 9.62659C3.94079 9.76448 4.27528 9.88893 4.63863 9.99686C4.54812 9.36246 4.5 8.69171 4.5 8C4.5 6.15398 4.84272 4.45722 5.4193 3.2023C5.53843 2.94301 5.67219 2.69369 5.82016 2.46197ZM8 1C4.13401 1 1 4.13401 1 8C1 11.866 4.13401 15 8 15C11.866 15 15 11.866 15 8C15 4.13401 11.866 1 8 1ZM13.95 8C13.95 4.71391 11.2861 2.05 8 2.05C7.50795 2.05 6.89443 2.50669 6.37341 3.64067C5.87326 4.72924 5.55 6.26998 5.55 8C5.55 8.80148 5.61938 9.56233 5.74358 10.2564C6.43767 10.3806 7.19852 10.45 8 10.45C9.73002 10.45 11.2708 10.1267 12.3593 9.62659C13.4933 9.10557 13.95 8.49205 13.95 8ZM6.00314 11.3614C6.63754 11.4519 7.30829 11.5 8 11.5C9.84602 11.5 11.5428 11.1573 12.7977 10.5807C13.057 10.4616 13.3063 10.3278 13.538 10.1798C12.6683 12.3876 10.5166 13.95 8 13.95C7.50795 13.95 6.89443 13.4933 6.37341 12.3593C6.23552 12.0592 6.11107 11.7247 6.00314 11.3614ZM4.85727 11.1427C4.24984 10.9954 3.69238 10.8059 3.2023 10.5807C2.94301 10.4616 2.69369 10.3278 2.46197 10.1798C3.06575 11.7126 4.28744 12.9342 5.82016 13.538C5.67219 13.3063 5.53843 13.057 5.4193 12.7977C5.19413 12.3076 5.00462 11.7502 4.85727 11.1427Z" fill="white"/>
</svg>
