<svg width="16" height="16" viewBox="0 0 16 16" fill="none" xmlns="http://www.w3.org/2000/svg">
<path fill-rule="evenodd" clip-rule="evenodd" d="M12 15.75C14.0711 15.75 15.75 14.0711 15.75 12C15.75 9.92893 14.0711 8.25 12 8.25C9.92893 8.25 8.25 9.92893 8.25 12C8.25 14.0711 9.92893 15.75 12 15.75ZM14.2928 11.2252C14.4295 11.0886 14.4295 10.8669 14.2928 10.7303C14.1562 10.5936 13.9346 10.5936 13.7979 10.7303L11.3181 13.21L10.2019 12.0939C10.0653 11.9572 9.84365 11.9572 9.70696 12.0939C9.57028 12.2306 9.57028 12.4522 9.70696 12.5889L11.0706 13.9525C11.1362 14.0181 11.2253 14.055 11.3181 14.055C11.4109 14.055 11.4999 14.0181 11.5656 13.9525L14.2928 11.2252Z" fill="white"/>
<path fill-rule="evenodd" clip-rule="evenodd" d="M4.6786 2.5C4.1367 2.5 3.69963 2.49999 3.34569 2.52891C2.98126 2.55868 2.66117 2.62159 2.36502 2.77248C1.89462 3.01217 1.51217 3.39462 1.27248 3.86502C1.12159 4.16117 1.05868 4.48126 1.02891 4.84569C0.999991 5.19963 0.999995 5.6367 1 6.1786V9.8214C0.999995 10.3633 0.999991 10.8004 1.02891 11.1543C1.05868 11.5187 1.12159 11.8388 1.27248 12.135C1.51217 12.6054 1.89462 12.9878 2.36502 13.2275C2.66117 13.3784 2.98126 13.4413 3.34569 13.4711C3.69961 13.5 4.13667 13.5 4.67853 13.5H7.75606C7.64352 13.1816 7.56579 12.8467 7.52746 12.5H4.7C4.1317 12.5 3.73554 12.4996 3.42712 12.4744C3.12454 12.4497 2.95069 12.4036 2.81901 12.3365C2.53677 12.1927 2.3073 11.9632 2.16349 11.681C2.0964 11.5493 2.05031 11.3755 2.02559 11.0729C2.00039 10.7645 2 10.3683 2 9.8V7.12069H14V7.96776C14.3641 8.14868 14.7001 8.37745 15 8.64584V6.17858C15 5.63672 15 5.19961 14.9711 4.84569C14.9413 4.48126 14.8784 4.16117 14.7275 3.86502C14.4878 3.39462 14.1054 3.01217 13.635 2.77248C13.3388 2.62159 13.0187 2.55868 12.6543 2.52891C12.3004 2.49999 11.8633 2.5 11.3214 2.5H4.6786ZM2.81901 3.66349C2.95069 3.5964 3.12454 3.55031 3.42712 3.52559C3.73554 3.50039 4.1317 3.5 4.7 3.5H11.3C11.8683 3.5 12.2645 3.50039 12.5729 3.52559C12.8755 3.55031 13.0493 3.5964 13.181 3.66349C13.4632 3.8073 13.6927 4.03677 13.8365 4.31901C13.9036 4.45069 13.9497 4.62454 13.9744 4.92712C13.9984 5.22099 13.9999 5.5945 14 6.12069H2.00001C2.00009 5.59451 2.00158 5.22099 2.02559 4.92712C2.05031 4.62454 2.0964 4.45069 2.16349 4.31901C2.3073 4.03677 2.53677 3.8073 2.81901 3.66349Z" fill="white"/>
</svg>
