<svg width="16" height="16" viewBox="0 0 16 16" fill="none" xmlns="http://www.w3.org/2000/svg">
<path fill-rule="evenodd" clip-rule="evenodd" d="M14.9749 6.7437C14.9749 6.46628 14.9749 6.22842 14.9589 6.03281C14.9421 5.8268 14.9051 5.62401 14.806 5.42948C14.6574 5.13783 14.4202 4.90071 14.1286 4.7521C13.934 4.65298 13.7313 4.61596 13.5253 4.59913C13.344 4.58432 13.1265 4.58324 12.8749 4.58317C12.8747 4.34936 12.8729 4.14606 12.8589 3.97504C12.8421 3.76903 12.8051 3.56624 12.706 3.37171C12.5574 3.08006 12.3202 2.84294 12.0286 2.69433C11.8341 2.59521 11.6313 2.55819 11.4253 2.54136C11.2296 2.52538 10.9918 2.52538 10.7144 2.52539H3.18544C2.90803 2.52538 2.67016 2.52538 2.47455 2.54136C2.26854 2.55819 2.06576 2.59521 1.87122 2.69433C1.57957 2.84294 1.34245 3.08006 1.19384 3.37171C1.09472 3.56624 1.0577 3.76903 1.04087 3.97504C1.02489 4.17064 1.0249 4.40846 1.0249 4.68586V9.25821C1.0249 9.5356 1.02489 9.7735 1.04087 9.9691C1.0577 10.1751 1.09472 10.3779 1.19384 10.5724C1.34245 10.8641 1.57957 11.1012 1.87122 11.2498C2.06576 11.3489 2.26854 11.3859 2.47455 11.4028C2.65579 11.4176 2.87329 11.4187 3.12493 11.4187C3.12514 11.6525 3.1269 11.8558 3.14087 12.0269C3.1577 12.2329 3.19472 12.4357 3.29384 12.6302C3.44245 12.9218 3.67956 13.159 3.97122 13.3076C4.16575 13.4067 4.36854 13.4437 4.57455 13.4605C4.77017 13.4765 5.00803 13.4765 5.28546 13.4765H12.8143C13.0918 13.4765 13.3296 13.4765 13.5253 13.4605C13.7313 13.4437 13.934 13.4067 14.1286 13.3076C14.4202 13.159 14.6574 12.9218 14.806 12.6302C14.9051 12.4357 14.9421 12.2329 14.9589 12.0269C14.9749 11.8313 14.9749 11.5934 14.9749 11.316V6.7437ZM4.12496 11.4187C4.12525 11.6535 4.12703 11.8167 4.13755 11.9454C4.14933 12.0896 4.16953 12.1461 4.18485 12.1762C4.23758 12.2797 4.32172 12.3638 4.42521 12.4166C4.45528 12.4319 4.51181 12.4521 4.65598 12.4639C4.80599 12.4761 5.00262 12.4765 5.3049 12.4765H12.7949C13.0972 12.4765 13.2938 12.4761 13.4438 12.4639C13.588 12.4521 13.6445 12.4319 13.6746 12.4166C13.7781 12.3638 13.8622 12.2797 13.915 12.1762C13.9303 12.1461 13.9505 12.0896 13.9623 11.9454C13.9745 11.7954 13.9749 11.5988 13.9749 11.2965V6.76316C13.9749 6.46088 13.9745 6.26425 13.9623 6.11424C13.9505 5.97007 13.9303 5.91354 13.915 5.88347C13.8622 5.77998 13.7781 5.69584 13.6746 5.64311C13.6445 5.62779 13.588 5.60759 13.4438 5.59581C13.3075 5.58467 13.1326 5.58333 12.8749 5.58318V9.2582C12.8749 9.53563 12.8749 9.77348 12.8589 9.9691C12.8421 10.1751 12.8051 10.3779 12.706 10.5724C12.5574 10.8641 12.3202 11.1012 12.0286 11.2498C11.8341 11.3489 11.6313 11.3859 11.4253 11.4028C11.2297 11.4188 10.9918 11.4187 10.7144 11.4187H4.12496ZM11.8623 4.05647C11.8505 3.9123 11.8303 3.85577 11.815 3.8257C11.7622 3.72221 11.6781 3.63807 11.5746 3.58534C11.5445 3.57002 11.488 3.54982 11.3438 3.53804C11.1938 3.52578 10.9972 3.52539 10.6949 3.52539H3.2049C2.90262 3.52539 2.70599 3.52578 2.55598 3.53804C2.41181 3.54982 2.35528 3.57002 2.32521 3.58534C2.22172 3.63807 2.13758 3.72221 2.08485 3.8257C2.06953 3.85577 2.04933 3.9123 2.03755 4.05647C2.02529 4.20648 2.0249 4.40312 2.0249 4.70539V9.23874C2.0249 9.54102 2.02529 9.73766 2.03755 9.88766C2.04933 10.0318 2.06953 10.0884 2.08485 10.1184C2.13758 10.2219 2.22172 10.3061 2.32521 10.3588C2.35528 10.3741 2.41181 10.3943 2.55598 10.4061C2.70599 10.4184 2.90262 10.4187 3.2049 10.4187H10.6949C10.9972 10.4187 11.1938 10.4184 11.3438 10.4061C11.488 10.3943 11.5445 10.3741 11.5746 10.3588C11.6781 10.3061 11.7622 10.2219 11.815 10.1184C11.8303 10.0884 11.8505 10.0318 11.8623 9.88766C11.8745 9.73766 11.8749 9.54102 11.8749 9.23874V4.70539C11.8749 4.40311 11.8745 4.20648 11.8623 4.05647ZM10.95 5.08316C10.95 5.3593 10.7261 5.58316 10.45 5.58316H3.45C3.17386 5.58316 2.95 5.3593 2.95 5.08316C2.95 4.80702 3.17386 4.58316 3.45 4.58316H10.45C10.7261 4.58316 10.95 4.80702 10.95 5.08316Z" fill="white"/>
</svg>
