<svg width="16" height="16" viewBox="0 0 16 16" fill="none" xmlns="http://www.w3.org/2000/svg">
<path fill-rule="evenodd" clip-rule="evenodd" d="M4.6786 2.5H11.3214C11.8633 2.5 12.3004 2.49999 12.6543 2.52891C13.0187 2.55868 13.3388 2.62159 13.635 2.77248C14.1054 3.01217 14.4878 3.39462 14.7275 3.86502C14.8784 4.16117 14.9413 4.48126 14.9711 4.84569C15 5.19963 15 5.6367 15 6.17858V9.82141C15 10.3633 15 10.8004 14.9711 11.1543C14.9413 11.5187 14.8784 11.8388 14.7275 12.135C14.4878 12.6054 14.1054 12.9878 13.635 13.2275C13.3388 13.3784 13.0187 13.4413 12.6543 13.4711C12.3004 13.5 11.8633 13.5 11.3214 13.5H4.67858C4.1367 13.5 3.69963 13.5 3.34569 13.4711C2.98126 13.4413 2.66117 13.3784 2.36502 13.2275C1.89462 12.9878 1.51217 12.6054 1.27248 12.135C1.1216 11.8388 1.05869 11.5188 1.02891 11.1544C0.999991 10.8005 0.999995 10.3635 1 9.82177V6.17864C0.999995 5.63673 0.999991 5.19965 1.02891 4.8457C1.05868 4.48127 1.12159 4.16117 1.27248 3.86502C1.51217 3.39462 1.89462 3.01217 2.36502 2.77248C2.66117 2.62159 2.98126 2.55868 3.34569 2.52891C3.69963 2.49999 4.1367 2.5 4.6786 2.5ZM3.42712 3.52559C3.12454 3.55031 2.95069 3.5964 2.81901 3.66349C2.53677 3.8073 2.3073 4.03677 2.16349 4.31901C2.0964 4.45069 2.05031 4.62454 2.02559 4.92713C2.00158 5.221 2.00009 5.59451 2.00001 6.12069H13.999C13.9989 5.5945 13.9984 5.22099 13.9744 4.92712C13.9497 4.62454 13.9036 4.45069 13.8365 4.31901C13.6927 4.03677 13.4632 3.8073 13.181 3.66349C13.0493 3.5964 12.8755 3.55031 12.5729 3.52559C12.2645 3.50039 11.8683 3.5 11.3 3.5H4.7C4.1317 3.5 3.73554 3.50039 3.42712 3.52559ZM13.999 7.12069H2V9.80036C2 10.3685 2.00039 10.7646 2.02559 11.073C2.05031 11.3755 2.09639 11.5493 2.16349 11.681C2.3073 11.9632 2.53677 12.1927 2.81901 12.3365C2.95069 12.4036 3.12454 12.4497 3.42712 12.4744C3.73554 12.4996 4.1317 12.5 4.7 12.5H11.3C11.8683 12.5 12.2645 12.4996 12.5729 12.4744C12.8755 12.4497 13.0493 12.4036 13.181 12.3365C13.4632 12.1927 13.6927 11.9632 13.8365 11.681C13.9036 11.5493 13.9497 11.3755 13.9744 11.0729C13.9996 10.7645 14 10.3683 14 9.8L13.999 7.12069Z" fill="white"/>
</svg>
