<svg width="16" height="16" viewBox="0 0 16 16" fill="none" xmlns="http://www.w3.org/2000/svg">
<path d="M14.5 13.4452C14.7761 13.4452 15 13.6691 15 13.9452C15 14.2213 14.7761 14.4452 14.5 14.4452H1.5C1.22387 14.4452 1.00002 14.2213 1 13.9452C1 13.6691 1.22386 13.4452 1.5 13.4452H14.5Z" fill="white"/>
<path d="M13.7998 11.6952C14.0758 11.6953 14.2998 11.9192 14.2998 12.1952C14.2998 12.4713 14.0758 12.6951 13.7998 12.6952H2.2002C1.92406 12.6952 1.70021 12.4713 1.7002 12.1952C1.7002 11.9191 1.92405 11.6952 2.2002 11.6952H13.7998Z" fill="white"/>
<path d="M4.3252 6.74502C4.51838 6.74515 4.6748 6.90239 4.6748 7.09561V10.7284C4.6747 10.9216 4.51832 11.0779 4.3252 11.078H2.9248C2.73163 11.0779 2.5753 10.9216 2.5752 10.7284V7.09561C2.5752 6.90236 2.73157 6.7451 2.9248 6.74502H4.3252Z" fill="white"/>
<path d="M8.7002 6.74502C8.89344 6.74509 9.0498 6.90235 9.0498 7.09561V10.7284C9.0497 10.9216 8.89338 11.078 8.7002 11.078H7.2998C7.10669 11.0779 6.9503 10.9215 6.9502 10.7284V7.09561C6.9502 6.9024 7.10663 6.74516 7.2998 6.74502H8.7002Z" fill="white"/>
<path d="M13.0752 6.74502C13.2684 6.74509 13.4248 6.90235 13.4248 7.09561V10.7284C13.4247 10.9216 13.2684 11.078 13.0752 11.078H11.6748C11.4817 11.0779 11.3253 10.9215 11.3252 10.7284V7.09561C11.3252 6.9024 11.4816 6.74516 11.6748 6.74502H13.0752Z" fill="white"/>
<path d="M7.50098 1.2792C7.818 1.13413 8.18295 1.13417 8.5 1.2792L13.9893 3.78994C14.1669 3.87143 14.2812 4.04956 14.2812 4.24502V5.56729C14.2811 5.8431 14.057 6.06702 13.7812 6.06729H2.22754C1.95152 6.06729 1.72774 5.84326 1.72754 5.56729V4.24502L1.73242 4.17275C1.75661 4.00656 1.86391 3.86123 2.01953 3.78994L7.50098 1.2792Z" fill="white"/>
</svg>
