<svg width="16" height="16" viewBox="0 0 16 16" fill="none" xmlns="http://www.w3.org/2000/svg">
<path fill-rule="evenodd" clip-rule="evenodd" d="M1.00367 5.59961C1.0153 4.7765 1.06385 4.27996 1.26637 3.87711C1.50766 3.39714 1.89714 3.00766 2.37711 2.76637C2.90696 2.5 3.59889 2.5 4.98276 2.5H11.0172C12.4011 2.5 13.093 2.5 13.6229 2.76637C14.1029 3.00766 14.4923 3.39714 14.7336 3.87711C14.9362 4.27996 14.9847 4.7765 14.9963 5.59961H1.00367ZM1 7.09961H15V8.64584C14.2039 7.93328 13.1525 7.5 12 7.5C9.51472 7.5 7.5 9.51472 7.5 12C7.5 12.526 7.59023 13.0308 7.75606 13.5H5C3.59987 13.5 2.8998 13.5 2.36502 13.2275C1.89462 12.9878 1.51217 12.6054 1.27248 12.135C1 11.6002 1 10.9001 1 9.5V7.09961Z" fill="white"/>
<path d="M12 9.95487C11.6235 9.95487 11.3182 10.2601 11.3182 10.6367V11.3185H12.6819V10.6367C12.6819 10.2602 12.3766 9.95487 12 9.95487Z" fill="white"/>
<path fill-rule="evenodd" clip-rule="evenodd" d="M12 15.75C14.0711 15.75 15.75 14.0711 15.75 12C15.75 9.92893 14.0711 8.25 12 8.25C9.92893 8.25 8.25 9.92893 8.25 12C8.25 14.0711 9.92893 15.75 12 15.75ZM13.3635 10.6359V11.3177C13.7401 11.3177 14.0454 11.6229 14.0454 11.9995V13.7041C14.0454 14.0807 13.7401 14.3859 13.3635 14.3859H10.6363C10.2597 14.3859 9.95445 14.0807 9.95445 13.7041V11.9995C9.95445 11.6229 10.2597 11.3177 10.6363 11.3177V10.6359C10.6363 9.88278 11.247 9.27225 11.9999 9.27225C12.753 9.27225 13.3635 9.88293 13.3635 10.6359Z" fill="white"/>
</svg>
