<svg width="16" height="16" viewBox="0 0 16 16" fill="none" xmlns="http://www.w3.org/2000/svg">
<path fill-rule="evenodd" clip-rule="evenodd" d="M14.9999 10.98V5.96275C14.9999 5.31008 14.5533 4.76173 13.949 4.60662C13.9498 4.72757 13.9498 4.85332 13.9498 4.9832V8.95626C13.9498 9.36481 13.9499 9.73246 13.9249 10.0383C13.8981 10.3659 13.8375 10.714 13.6637 11.0551C13.412 11.549 13.0105 11.9506 12.5165 12.2023C12.1754 12.3761 11.8273 12.4367 11.4998 12.4635C11.1939 12.4885 10.8262 12.4884 10.4177 12.4884H3.48192C3.36734 12.4884 3.25597 12.4884 3.14828 12.4879C3.30745 13.0712 3.84108 13.5 4.47485 13.5H12.4799C13.362 13.5 13.803 13.5 14.1399 13.3283C14.4363 13.1773 14.6772 12.9364 14.8282 12.64C14.9999 12.3031 14.9999 11.8621 14.9999 10.98ZM3.2841 11.4371C3.28388 11.4375 3.28366 11.4379 3.28344 11.4383L10.3798 11.4384C11.2619 11.4384 11.7029 11.4384 12.0398 11.2667C12.3362 11.1157 12.5771 10.8748 12.7281 10.5784C12.7852 10.4664 12.8233 10.3429 12.8487 10.1955C12.9 9.89937 12.9 9.50682 12.9 8.91724V5.02002C12.9 4.13793 12.9 3.69689 12.7283 3.35997C12.5773 3.06361 12.3364 2.82267 12.04 2.67167C11.7031 2.5 11.2621 2.5 10.38 2.5H3.52C2.63792 2.5 2.19688 2.5 1.85997 2.67167C1.56361 2.82267 1.32267 3.06361 1.17167 3.35997C1 3.69689 1 4.13793 1 5.02002V8.91724C1 9.79933 1 10.2404 1.17167 10.5773C1.32267 10.8736 1.56361 11.1146 1.85997 11.2656C2.16541 11.4212 2.55643 11.4358 3.2841 11.4371ZM10.9748 5.07806C10.9748 5.36801 10.7398 5.60306 10.4498 5.60306H3.4498C3.15986 5.60306 2.9248 5.36801 2.9248 5.07806C2.9248 4.7881 3.15986 4.55305 3.4498 4.55305H10.4498C10.7398 4.55305 10.9748 4.7881 10.9748 5.07806Z" fill="white"/>
</svg>
