<svg width="16" height="16" viewBox="0 0 16 16" fill="none" xmlns="http://www.w3.org/2000/svg">
<path fill-rule="evenodd" clip-rule="evenodd" d="M14.3 5.8751C14.6866 5.8751 15 6.1885 15 6.5751V9.4251C15 9.8117 14.6866 10.1251 14.3 10.1251H13.5705C13.5403 10.5048 13.4792 10.7848 13.3559 11.0269C13.1411 11.4484 12.7984 11.7911 12.3769 12.0059C11.8978 12.25 11.2705 12.25 10.016 12.25H4.584C3.32948 12.25 2.70222 12.25 2.22306 12.0059C1.80158 11.7911 1.4589 11.4484 1.24415 11.0269C1 10.5478 1 9.92052 1 8.666V7.334C1 6.07948 1 5.45222 1.24415 4.97306C1.4589 4.55158 1.80158 4.2089 2.22306 3.99415C2.70222 3.75 3.32948 3.75 4.584 3.75H10.016C11.2705 3.75 11.8978 3.75 12.3769 3.99415C12.7984 4.2089 13.1411 4.55158 13.3559 4.97306C13.4793 5.21527 13.5403 5.49532 13.5705 5.8751H14.3ZM12.5498 6.2123C12.5498 5.4391 11.923 4.8123 11.1498 4.8123H3.4498C2.67661 4.8123 2.0498 5.4391 2.0498 6.2123V9.7873C2.0498 10.5605 2.67661 11.1873 3.4498 11.1873H11.1498C11.923 11.1873 12.5498 10.5605 12.5498 9.7873V6.2123ZM2.75 5.87083C2.75 5.67753 2.9067 5.52083 3.1 5.52083H3.45C3.6433 5.52083 3.8 5.67753 3.8 5.87083V10.1292C3.8 10.3225 3.6433 10.4792 3.45 10.4792H3.1C2.9067 10.4792 2.75 10.3225 2.75 10.1292V5.87083ZM6.31973 5.52083C6.12643 5.52083 5.96973 5.67753 5.96973 5.87083V10.1292C5.96973 10.3225 6.12643 10.4792 6.31973 10.4792H6.66973C6.86303 10.4792 7.01973 10.3225 7.01973 10.1292V5.87083C7.01973 5.67753 6.86303 5.52083 6.66973 5.52083H6.31973ZM4.35987 5.87083C4.35987 5.67753 4.51657 5.52083 4.70987 5.52083H5.05986C5.25316 5.52083 5.40987 5.67753 5.40987 5.87083V10.1292C5.40987 10.3225 5.25316 10.4792 5.05986 10.4792H4.70987C4.51657 10.4792 4.35987 10.3225 4.35987 10.1292V5.87083ZM7.92959 5.52083C7.73629 5.52083 7.57959 5.67753 7.57959 5.87083V10.1292C7.57959 10.3225 7.73629 10.4792 7.92959 10.4792H8.27959C8.47289 10.4792 8.62959 10.3225 8.62959 10.1292V5.87083C8.62959 5.67753 8.47289 5.52083 8.27959 5.52083H7.92959Z" fill="white"/>
</svg>
