<svg width="16" height="16" viewBox="0 0 16 16" fill="none" xmlns="http://www.w3.org/2000/svg">
<path fill-rule="evenodd" clip-rule="evenodd" d="M6.5751 1C6.1885 1 5.8751 1.3134 5.8751 1.7V2.42952C5.49532 2.4597 5.21527 2.52073 4.97306 2.64414C4.55158 2.8589 4.2089 3.20158 3.99415 3.62306C3.75 4.10222 3.75 4.72948 3.75 5.984V11.416C3.75 12.6705 3.75 13.2978 3.99415 13.7769C4.2089 14.1984 4.55158 14.5411 4.97306 14.7559C5.45222 15 6.07948 15 7.334 15H8.666C9.92052 15 10.5478 15 11.0269 14.7559C11.4484 14.5411 11.7911 14.1984 12.0059 13.7769C12.25 13.2978 12.25 12.6705 12.25 11.416V5.984C12.25 4.72948 12.25 4.10222 12.0059 3.62306C11.7911 3.20158 11.4484 2.8589 11.0269 2.64414C10.7848 2.52075 10.5048 2.45972 10.1251 2.42954V1.7C10.1251 1.3134 9.8117 1 9.4251 1H6.5751ZM4.8123 4.8502C4.8123 4.077 5.4391 3.4502 6.2123 3.4502H9.7873C10.5605 3.4502 11.1873 4.077 11.1873 4.8502V12.5502C11.1873 13.3234 10.5605 13.9502 9.7873 13.9502H6.2123C5.4391 13.9502 4.8123 13.3234 4.8123 12.5502V4.8502ZM5.71313 8.70348C5.59978 8.86185 5.71321 9.19978 5.90822 9.19978H7.80387L7.08864 11.1724C7.0569 11.4192 7.37665 11.5444 7.52153 11.342L10.2382 8.27965C10.3515 8.12128 10.2449 7.78312 10.0499 7.78312H8.13174L8.82492 5.81074C8.85669 5.56398 8.53691 5.43872 8.39203 5.64116L5.71313 8.70348Z" fill="white"/>
</svg>
