<svg width="16" height="16" viewBox="0 0 16 16" fill="none" xmlns="http://www.w3.org/2000/svg">
<path fill-rule="evenodd" clip-rule="evenodd" d="M6.65455 1C6.26795 1 5.95455 1.3134 5.95455 1.7V2.48427C5.77235 2.52013 5.61611 2.57126 5.47306 2.64415C5.05158 2.8589 4.7089 3.20158 4.49414 3.62306C4.25 4.10222 4.25 4.72948 4.25 5.984V11.416C4.25 12.6705 4.25 13.2978 4.49414 13.7769C4.7089 14.1984 5.05158 14.5411 5.47306 14.7559C5.95222 15 6.57948 15 7.834 15H8.166C9.42052 15 10.0478 15 10.5269 14.7559C10.9484 14.5411 11.2911 14.1984 11.5059 13.7769C11.75 13.2978 11.75 12.6705 11.75 11.416V5.984C11.75 4.72948 11.75 4.10222 11.5059 3.62306C11.2911 3.20158 10.9484 2.8589 10.5269 2.64415C10.3839 2.57126 10.2276 2.52013 10.0455 2.48427V1.7C10.0455 1.3134 9.73205 1 9.34545 1H6.65455ZM5.97254 13.9502C5.58594 13.9502 5.27254 13.6368 5.27254 13.2502V12.9002C5.27254 12.7069 5.42924 12.5502 5.62254 12.5502H10.3771C10.5704 12.5502 10.7271 12.7069 10.7271 12.9002V13.2502C10.7271 13.6368 10.4137 13.9502 10.0271 13.9502H5.97254ZM5.27254 11.7799C5.27254 11.9732 5.42924 12.1299 5.62254 12.1299H10.3771C10.5704 12.1299 10.7271 11.9732 10.7271 11.7799V11.0799C10.7271 10.8866 10.5704 10.7299 10.3771 10.7299H5.62254C5.42924 10.7299 5.27254 10.8866 5.27254 11.0799V11.7799Z" fill="white"/>
</svg>
