<svg width="16" height="16" viewBox="0 0 16 16" fill="none" xmlns="http://www.w3.org/2000/svg">
<path fill-rule="evenodd" clip-rule="evenodd" d="M6.5751 1C6.1885 1 5.8751 1.3134 5.8751 1.7V2.42952C5.49532 2.4597 5.21527 2.52073 4.97306 2.64415C4.55158 2.8589 4.2089 3.20158 3.99415 3.62306C3.75 4.10222 3.75 4.72948 3.75 5.984V11.416C3.75 12.6705 3.75 13.2978 3.99415 13.7769C4.2089 14.1984 4.55158 14.5411 4.97306 14.7559C5.45222 15 6.07948 15 7.334 15H8.666C9.92052 15 10.5478 15 11.0269 14.7559C11.4484 14.5411 11.7911 14.1984 12.0059 13.7769C12.25 13.2978 12.25 12.6705 12.25 11.416V5.984C12.25 4.72948 12.25 4.10222 12.0059 3.62306C11.7911 3.20158 11.4484 2.8589 11.0269 2.64415C10.7848 2.52075 10.5048 2.45973 10.1251 2.42954V1.7C10.1251 1.3134 9.8117 1 9.4251 1H6.5751ZM4.8123 4.85019C4.8123 4.077 5.4391 3.4502 6.2123 3.4502H9.7873C10.5605 3.4502 11.1873 4.077 11.1873 4.85019V12.5502C11.1873 13.3234 10.5605 13.9502 9.7873 13.9502H6.2123C5.4391 13.9502 4.8123 13.3234 4.8123 12.5502V4.85019ZM5.52083 12.9C5.52083 13.0933 5.67753 13.25 5.87083 13.25H10.1292C10.3225 13.25 10.4792 13.0933 10.4792 12.9V12.55C10.4792 12.3567 10.3225 12.2 10.1292 12.2H5.87083C5.67753 12.2 5.52083 12.3567 5.52083 12.55V12.9ZM5.87083 10.0303C5.67753 10.0303 5.52083 9.87357 5.52083 9.68027V9.33027C5.52083 9.13697 5.67753 8.98027 5.87083 8.98027H10.1292C10.3225 8.98027 10.4792 9.13697 10.4792 9.33027V9.68027C10.4792 9.87357 10.3225 10.0303 10.1292 10.0303H5.87083ZM5.52083 11.2901C5.52083 11.4834 5.67753 11.6401 5.87083 11.6401H10.1292C10.3225 11.6401 10.4792 11.4834 10.4792 11.2901V10.9401C10.4792 10.7468 10.3225 10.5901 10.1292 10.5901H5.87083C5.67753 10.5901 5.52083 10.7468 5.52083 10.9401V11.2901ZM5.87083 8.42041C5.67753 8.42041 5.52083 8.26371 5.52083 8.07041V7.72041C5.52083 7.52711 5.67753 7.37041 5.87083 7.37041H10.1292C10.3225 7.37041 10.4792 7.52711 10.4792 7.72041V8.07041C10.4792 8.26371 10.3225 8.42041 10.1292 8.42041H5.87083ZM5.52083 6.46054C5.52083 6.65384 5.67753 6.81054 5.87083 6.81054H10.1292C10.3225 6.81054 10.4792 6.65384 10.4792 6.46054V6.11055C10.4792 5.91724 10.3225 5.76054 10.1292 5.76054H5.87083C5.67753 5.76054 5.52083 5.91725 5.52083 6.11055V6.46054Z" fill="white"/>
</svg>
