<svg width="16" height="16" viewBox="0 0 16 16" fill="none" xmlns="http://www.w3.org/2000/svg">
<path fill-rule="evenodd" clip-rule="evenodd" d="M15 6.5751C15 6.1885 14.6866 5.8751 14.3 5.8751H13.5705C13.5403 5.49532 13.4793 5.21527 13.3559 4.97306C13.1411 4.55158 12.7984 4.2089 12.3769 3.99415C11.8978 3.75 11.2705 3.75 10.016 3.75H4.584C3.32948 3.75 2.70222 3.75 2.22306 3.99415C1.80158 4.2089 1.4589 4.55158 1.24415 4.97306C1 5.45222 1 6.07948 1 7.334V8.666C1 9.92052 1 10.5478 1.24415 11.0269C1.4589 11.4484 1.80158 11.7911 2.22306 12.0059C2.70222 12.25 3.32948 12.25 4.584 12.25H10.016C11.2705 12.25 11.8978 12.25 12.3769 12.0059C12.7984 11.7911 13.1411 11.4484 13.3559 11.0269C13.4792 10.7848 13.5403 10.5048 13.5705 10.1251H14.3C14.6866 10.1251 15 9.8117 15 9.4251V6.5751ZM11.1498 4.8123C11.923 4.8123 12.5498 5.4391 12.5498 6.2123V9.7873C12.5498 10.5605 11.923 11.1873 11.1498 11.1873H3.4498C2.67661 11.1873 2.0498 10.5605 2.0498 9.7873V6.2123C2.0498 5.4391 2.67661 4.8123 3.4498 4.8123H11.1498ZM3.1 5.52083C2.9067 5.52083 2.75 5.67753 2.75 5.87083V10.1292C2.75 10.3225 2.9067 10.4792 3.1 10.4792H3.45C3.6433 10.4792 3.8 10.3225 3.8 10.1292V5.87083C3.8 5.67753 3.6433 5.52083 3.45 5.52083H3.1ZM5.96973 5.87083C5.96973 5.67753 6.12643 5.52083 6.31973 5.52083H6.66973C6.86303 5.52083 7.01973 5.67753 7.01973 5.87083V10.1292C7.01973 10.3225 6.86303 10.4792 6.66973 10.4792H6.31973C6.12643 10.4792 5.96973 10.3225 5.96973 10.1292V5.87083ZM4.70987 5.52083C4.51657 5.52083 4.35987 5.67753 4.35987 5.87083V10.1292C4.35987 10.3225 4.51657 10.4792 4.70987 10.4792H5.05986C5.25316 10.4792 5.40987 10.3225 5.40987 10.1292V5.87083C5.40987 5.67753 5.25316 5.52083 5.05986 5.52083H4.70987ZM7.57959 5.87083C7.57959 5.67753 7.73629 5.52083 7.92959 5.52083H8.27959C8.47289 5.52083 8.62959 5.67753 8.62959 5.87083V10.1292C8.62959 10.3225 8.47289 10.4792 8.27959 10.4792H7.92959C7.73629 10.4792 7.57959 10.3225 7.57959 10.1292V5.87083ZM9.53946 5.52083C9.34616 5.52083 9.18946 5.67753 9.18946 5.87083V10.1292C9.18946 10.3225 9.34616 10.4792 9.53946 10.4792H9.88945C10.0828 10.4792 10.2395 10.3225 10.2395 10.1292V5.87083C10.2395 5.67753 10.0828 5.52083 9.88945 5.52083H9.53946Z" fill="white"/>
</svg>
