<svg width="16" height="16" viewBox="0 0 16 16" fill="none" xmlns="http://www.w3.org/2000/svg">
<path fill-rule="evenodd" clip-rule="evenodd" d="M14.3 5.95455C14.6866 5.95455 15 6.26795 15 6.65455V9.34545C15 9.73205 14.6866 10.0455 14.3 10.0455H13.5157C13.4799 10.2276 13.4287 10.3839 13.3559 10.5269C13.1411 10.9484 12.7984 11.2911 12.3769 11.5059C11.8978 11.75 11.2705 11.75 10.016 11.75H4.584C3.32948 11.75 2.70222 11.75 2.22306 11.5059C1.80158 11.2911 1.4589 10.9484 1.24415 10.5269C1 10.0478 1 9.42052 1 8.166V7.834C1 6.57948 1 5.95222 1.24415 5.47306C1.4589 5.05158 1.80158 4.7089 2.22306 4.49414C2.70222 4.25 3.32948 4.25 4.584 4.25H10.016C11.2705 4.25 11.8978 4.25 12.3769 4.49414C12.7984 4.7089 13.1411 5.05158 13.3559 5.47306C13.4287 5.61611 13.4799 5.77235 13.5157 5.95455H14.3ZM2.74981 5.27254C2.36321 5.27254 2.04981 5.58594 2.04981 5.97254V10.0271C2.04981 10.4137 2.36321 10.7271 2.74981 10.7271H3.09981C3.29311 10.7271 3.44981 10.5704 3.44981 10.3771V5.62254C3.44981 5.42924 3.29311 5.27254 3.09981 5.27254H2.74981ZM3.87012 5.62254C3.87012 5.42924 4.02682 5.27254 4.22012 5.27254H4.92012C5.11342 5.27254 5.27012 5.42924 5.27012 5.62254V10.3771C5.27012 10.5704 5.11342 10.7271 4.92012 10.7271H4.22012C4.02682 10.7271 3.87012 10.5704 3.87012 10.3771V5.62254ZM6.03994 5.27254C5.84664 5.27254 5.68994 5.42924 5.68994 5.62254V10.3771C5.68994 10.5704 5.84664 10.7271 6.03994 10.7271H6.73994C6.93324 10.7271 7.08994 10.5704 7.08994 10.3771V5.62254C7.08994 5.42924 6.93324 5.27254 6.73994 5.27254H6.03994ZM7.50977 5.62254C7.50977 5.42924 7.66647 5.27254 7.85977 5.27254H8.55977C8.75307 5.27254 8.90977 5.42924 8.90977 5.62254V10.3771C8.90977 10.5704 8.75307 10.7271 8.55977 10.7271H7.85977C7.66647 10.7271 7.50977 10.5704 7.50977 10.3771V5.62254ZM9.68008 5.27254C9.48678 5.27254 9.33008 5.42924 9.33008 5.62254V10.3771C9.33008 10.5704 9.48678 10.7271 9.68008 10.7271H10.3801C10.5734 10.7271 10.7301 10.5704 10.7301 10.3771V5.62254C10.7301 5.42924 10.5734 5.27254 10.3801 5.27254H9.68008Z" fill="white"/>
</svg>
