<svg width="16" height="16" viewBox="0 0 16 16" fill="none" xmlns="http://www.w3.org/2000/svg">
<path fill-rule="evenodd" clip-rule="evenodd" d="M15 6.5751C15 6.1885 14.6866 5.8751 14.3 5.8751H13.5705C13.5403 5.49532 13.4793 5.21527 13.3559 4.97306C13.1411 4.55158 12.7984 4.2089 12.3769 3.99415C11.8978 3.75 11.2705 3.75 10.016 3.75H4.584C3.32948 3.75 2.70222 3.75 2.22306 3.99415C1.80158 4.2089 1.4589 4.55158 1.24415 4.97306C1 5.45222 1 6.07948 1 7.334V8.666C1 9.92052 1 10.5478 1.24415 11.0269C1.4589 11.4484 1.80158 11.7911 2.22306 12.0059C2.70222 12.25 3.32948 12.25 4.584 12.25H10.016C11.2705 12.25 11.8978 12.25 12.3769 12.0059C12.7984 11.7911 13.1411 11.4484 13.3559 11.0269C13.4792 10.7848 13.5403 10.5048 13.5705 10.1251H14.3C14.6866 10.1251 15 9.8117 15 9.4251V6.5751ZM11.1498 4.8123C11.923 4.8123 12.5498 5.4391 12.5498 6.2123V9.7873C12.5498 10.5605 11.923 11.1873 11.1498 11.1873H3.4498C2.6766 11.1873 2.0498 10.5605 2.0498 9.7873V6.2123C2.0498 5.4391 2.6766 4.8123 3.4498 4.8123H11.1498ZM5.24527 8.18807C5.13193 8.34644 5.24536 8.68437 5.44036 8.68437H7.33601L6.62078 10.657C6.58904 10.9037 6.9088 11.029 7.05367 10.8266L9.77032 7.76424C9.88366 7.60586 9.77703 7.2677 9.58203 7.2677H7.66388L8.35706 5.29532C8.38883 5.04857 8.06906 4.9233 7.92417 5.12574L5.24527 8.18807Z" fill="white"/>
</svg>
