<svg width="16" height="16" viewBox="0 0 16 16" fill="none" xmlns="http://www.w3.org/2000/svg">
<g clip-path="url(#clip0_40914_206)">
<path fill-rule="evenodd" clip-rule="evenodd" d="M3.11787 5.25943C4.12138 3.52803 5.99052 2.36573 8.12993 2.36573C8.78866 2.36573 9.42068 2.47574 10.0093 2.67802C10.2763 2.76977 10.567 2.62722 10.6585 2.35963C10.7501 2.09204 10.6078 1.80074 10.3408 1.709C9.64689 1.47054 8.90293 1.34133 8.12993 1.34133C5.61158 1.34133 3.41298 2.71084 2.23407 4.74487C2.12998 4.92445 2.03382 5.10925 1.94605 5.29879C1.82724 5.55538 1.93846 5.85993 2.19448 5.97901C2.45049 6.09809 2.75436 5.98662 2.87317 5.73003C2.94771 5.56905 3.02941 5.41205 3.11787 5.25943ZM14.8563 7.07337C14.8113 6.79411 14.5489 6.60431 14.2703 6.64944C13.9917 6.69457 13.8023 6.95754 13.8473 7.2368C13.8963 7.54051 13.9218 7.85242 13.9218 8.17066C13.9218 11.3766 11.3287 13.9756 8.12993 13.9756C5.99052 13.9756 4.12138 12.8133 3.11787 11.0819C3.02437 10.9206 2.93843 10.7544 2.86051 10.5838C2.74304 10.3266 2.43977 10.2135 2.18313 10.3312C1.92649 10.449 1.81368 10.7529 1.93115 11.0101C2.02289 11.211 2.12406 11.4067 2.23407 11.5965C3.41298 13.6305 5.61158 15 8.12993 15C11.8932 15 14.9439 11.9424 14.9439 8.17066C14.9439 7.79747 14.914 7.43092 14.8563 7.07337ZM5.91538 7.48773C6.38579 7.48773 6.76713 7.10553 6.76713 6.63406C6.76713 6.16259 6.38579 5.7804 5.91538 5.7804C5.44498 5.7804 5.06364 6.16259 5.06364 6.63406C5.06364 7.10553 5.44498 7.48773 5.91538 7.48773ZM11.1962 6.63406C11.1962 7.10553 10.8149 7.48773 10.3445 7.48773C9.87406 7.48773 9.49272 7.10553 9.49272 6.63406C9.49272 6.16259 9.87406 5.7804 10.3445 5.7804C10.8149 5.7804 11.1962 6.16259 11.1962 6.63406ZM5.62194 9.6219C5.48081 9.37691 5.16826 9.29298 4.92383 9.43442C4.6794 9.57586 4.59565 9.88912 4.73677 10.1341C5.08065 10.7311 5.57526 11.2268 6.17088 11.5714C6.76649 11.9161 7.44214 12.0975 8.1299 12.0975C8.81765 12.0975 9.4933 11.9161 10.0889 11.5714C10.6845 11.2268 11.1791 10.7311 11.523 10.1341C11.6641 9.88912 11.5804 9.57586 11.336 9.43442C11.0915 9.29298 10.779 9.37691 10.6379 9.6219C10.3837 10.0631 10.0181 10.4295 9.57787 10.6843C9.13763 10.939 8.63824 11.0731 8.1299 11.0731C7.62155 11.0731 7.12216 10.939 6.68192 10.6843C6.24169 10.4295 5.87611 10.0631 5.62194 9.6219Z" fill="white"/>
<path d="M13.4875 1.11739C13.5389 0.960869 13.7598 0.960869 13.8111 1.11739L14.0013 1.69701C14.2042 2.3151 14.6879 2.79989 15.3046 3.00317L15.8829 3.19379C16.039 3.24527 16.039 3.46669 15.8829 3.51817L15.3046 3.70879C14.6879 3.91207 14.2042 4.39686 14.0013 5.01495L13.8111 5.59457C13.7598 5.75109 13.5389 5.75109 13.4875 5.59457L13.2973 5.01495C13.0945 4.39686 12.6108 3.91207 11.9941 3.70879L11.4158 3.51817C11.2596 3.46669 11.2596 3.24527 11.4158 3.19379L11.9941 3.00317C12.6108 2.79989 13.0945 2.3151 13.2973 1.69701L13.4875 1.11739Z" fill="white"/>
<path d="M1.5878 6.4768C1.62733 6.34835 1.80874 6.34835 1.84826 6.4768L1.98756 6.92953C2.12038 7.36119 2.45755 7.69911 2.88823 7.83223L3.33994 7.97185C3.4681 8.01146 3.4681 8.19328 3.33994 8.23289L2.88823 8.37251C2.45755 8.50563 2.12038 8.84355 1.98756 9.2752L1.84826 9.72794C1.80874 9.85638 1.62733 9.85638 1.5878 9.72794L1.4485 9.2752C1.31568 8.84355 0.978518 8.50563 0.547833 8.37251L0.0961185 8.23289C-0.0320396 8.19328 -0.0320394 8.01146 0.0961187 7.97185L0.547833 7.83223C0.978518 7.69911 1.31568 7.36119 1.4485 6.92953L1.5878 6.4768Z" fill="white"/>
</g>
<defs>
<clipPath id="clip0_40914_206">
<rect width="16" height="16" fill="white"/>
</clipPath>
</defs>
</svg>
