<svg width="16" height="16" viewBox="0 0 16 16" fill="none" xmlns="http://www.w3.org/2000/svg">
<path d="M9.98238 13.6006C9.69392 14.416 8.91542 15 8.00094 15C7.08647 15 6.30794 14.416 6.01949 13.6006H9.98238Z" fill="white"/>
<path d="M8.00191 1C8.18556 1.00004 8.36738 1.03624 8.53707 1.10645C8.70697 1.1768 8.86211 1.28015 8.99215 1.41016C9.12209 1.54011 9.22552 1.69449 9.29586 1.86426C9.36619 2.03406 9.40231 2.2166 9.40231 2.40039H9.28902C9.9961 2.58061 10.5653 2.91845 11.0136 3.38965C11.1398 3.52231 11.2549 3.66387 11.3593 3.8125L13.5254 1.64648C13.7206 1.45122 14.0381 1.45122 14.2334 1.64648C14.4283 1.84168 14.4283 2.15832 14.2334 2.35352L2.35348 14.2334C2.15829 14.4283 1.84165 14.4283 1.64645 14.2334C1.45118 14.0381 1.45118 13.7207 1.64645 13.5254L2.52535 12.6465C2.36213 12.5642 2.25004 12.3954 2.24996 12.2002C2.24996 11.9241 2.47382 11.7002 2.74996 11.7002H3.36031C3.43004 11.0476 3.45321 10.319 3.47848 9.54688L3.48922 9.22949C3.52468 8.18255 3.5741 7.0735 3.76852 6.06738C3.96253 5.06346 4.3118 4.10185 4.98922 3.38965C5.4375 2.91846 6.00676 2.58061 6.71383 2.40039H6.60152C6.60152 2.21654 6.63759 2.03411 6.70797 1.86426C6.77835 1.69442 6.88165 1.54015 7.01168 1.41016C7.1417 1.2802 7.29592 1.17678 7.46578 1.10645C7.63565 1.03612 7.81805 1 8.00191 1Z" fill="white"/>
<path d="M12.2343 6.06738C12.4288 7.0735 12.4782 8.18255 12.5136 9.22949L12.5244 9.54688C12.5496 10.319 12.5728 11.0477 12.6425 11.7002H13.2529C13.529 11.7002 13.7529 11.9241 13.7529 12.2002C13.7528 12.4762 13.529 12.7002 13.2529 12.7002H5.29488L12.1816 5.81348C12.2003 5.89765 12.2179 5.98248 12.2343 6.06738Z" fill="white"/>
</svg>
