<svg width="16" height="16" viewBox="0 0 16 16" fill="none" xmlns="http://www.w3.org/2000/svg">
<path fill-rule="evenodd" clip-rule="evenodd" d="M8 3.25C8.89998 3.25011 9.65267 3.86855 9.86328 4.70312C9.87546 4.70224 9.88799 4.7002 9.90039 4.7002H14.5C14.776 4.70039 15 4.92418 15 5.2002C14.9999 5.4761 14.7759 5.7 14.5 5.7002H11.2061C12.2385 6.45808 12.9905 7.57263 13.2852 8.8623C14.2491 8.96711 14.9997 9.78263 15 10.7744C15 11.8374 14.1382 12.699 13.0752 12.6992C12.0121 12.6991 11.1504 11.8375 11.1504 10.7744C11.1506 9.98966 11.6203 9.31516 12.2939 9.01562C11.9598 7.65659 11.0001 6.54398 9.73535 6.00391C9.7378 5.99878 9.73978 5.99343 9.74219 5.98828C9.43549 6.64417 8.77193 7.09951 8 7.09961C7.22533 7.09953 6.5592 6.64109 6.25391 5.98145C6.25734 5.98885 6.26015 5.99655 6.26367 6.00391C4.99923 6.54409 4.03906 7.65664 3.70508 9.01562C4.37904 9.31501 4.84939 9.98941 4.84961 10.7744C4.84961 11.8376 3.98795 12.6992 2.9248 12.6992C1.86175 12.6991 1 11.8375 1 10.7744C1.00028 9.7829 1.75028 8.96747 2.71387 8.8623C3.00851 7.57248 3.7614 6.45809 4.79395 5.7002H1.5C1.22394 5.7002 1.00013 5.47623 1 5.2002C1 4.92405 1.22386 4.7002 1.5 4.7002H6.09961C6.11147 4.7002 6.12311 4.70231 6.13477 4.70312C6.3453 3.86835 7.09987 3.25009 8 3.25ZM2.9248 9.84961C2.41422 9.84971 2.0003 10.2639 2 10.7744C2 11.2852 2.41403 11.6991 2.9248 11.6992C3.43567 11.6992 3.84961 11.2853 3.84961 10.7744C3.84931 10.2638 3.43548 9.84961 2.9248 9.84961ZM13.0752 9.84961C12.5646 9.84971 12.1507 10.2639 12.1504 10.7744C12.1504 11.2852 12.5644 11.6991 13.0752 11.6992C13.5859 11.699 14 11.2852 14 10.7744C13.9997 10.2639 13.5857 9.84981 13.0752 9.84961ZM8 4.25C7.48929 4.25011 7.0753 4.6641 7.0752 5.1748C7.0752 5.6856 7.48923 6.0995 8 6.09961C8.51075 6.09948 8.9248 5.68559 8.9248 5.1748C8.9247 4.66411 8.51069 4.25013 8 4.25Z" fill="white"/>
</svg>
