<svg width="16" height="16" viewBox="0 0 16 16" fill="none" xmlns="http://www.w3.org/2000/svg">
<path d="M5.75 10.5V8.5H6.98179C7.52937 8.5 7.97511 8.9404 7.98172 9.48793C7.98844 10.0449 7.53879 10.5 6.98179 10.5H5.75Z" fill="white"/>
<path d="M6.27778 7.5H5.75V5.5H6.27778C6.83006 5.5 7.27778 5.94772 7.27778 6.5C7.27778 7.05229 6.83006 7.5 6.27778 7.5Z" fill="white"/>
<path fill-rule="evenodd" clip-rule="evenodd" d="M8 15C11.866 15 15 11.866 15 8C15 4.13401 11.866 1 8 1C4.13401 1 1 4.13401 1 8C1 11.866 4.13401 15 8 15ZM5.25 4.5C4.97386 4.5 4.75 4.72386 4.75 5V11C4.75 11.2761 4.97386 11.5 5.25 11.5H6.98179C8.0958 11.5 8.99509 10.5898 8.98164 9.47587C8.97229 8.70029 8.52239 8.0322 7.8716 7.70838C8.1265 7.37269 8.27778 6.95401 8.27778 6.5C8.27778 5.39543 7.38235 4.5 6.27778 4.5H5.25ZM11.75 8.32358C11.0289 8.32358 10.4444 8.9081 10.4444 9.62914V11C10.4444 11.2762 10.2206 11.5 9.94443 11.5C9.66829 11.5 9.44443 11.2762 9.44443 11V9.62914C9.44443 9.61549 9.44455 9.60186 9.44479 9.58827L9.44443 7.64709C9.44443 7.37095 9.66829 7.14709 9.94443 7.14709C10.2206 7.14709 10.4444 7.37095 10.4444 7.64709V7.72858C10.8156 7.47312 11.2653 7.32358 11.75 7.32358C12.0261 7.32358 12.25 7.54744 12.25 7.82358C12.25 8.09972 12.0261 8.32358 11.75 8.32358Z" fill="white"/>
</svg>
