<svg width="16" height="16" viewBox="0 0 16 16" fill="none" xmlns="http://www.w3.org/2000/svg">
<path fill-rule="evenodd" clip-rule="evenodd" d="M5.25 4.50024C4.97386 4.50024 4.75 4.7241 4.75 5.00024V11.0002C4.75 11.2764 4.97386 11.5002 5.25 11.5002H6.98179C8.0958 11.5002 8.99509 10.59 8.98164 9.47611C8.97229 8.70054 8.52239 8.03245 7.8716 7.70862C8.1265 7.37293 8.27778 6.95426 8.27778 6.50024C8.27778 5.39567 7.38235 4.50024 6.27778 4.50024H5.25ZM5.75 10.5002V8.50024H6.98179C7.52937 8.50024 7.97511 8.94064 7.98172 9.48818C7.98844 10.0451 7.53879 10.5002 6.98179 10.5002H5.75ZM6.27778 7.50024H5.75V5.50024H6.27778C6.83006 5.50024 7.27778 5.94796 7.27778 6.50024C7.27778 7.05253 6.83006 7.50024 6.27778 7.50024Z" fill="white"/>
<path d="M11.7499 8.32373C11.0289 8.32373 10.4443 8.90825 10.4443 9.62929V11.0002C10.4443 11.2763 10.2205 11.5002 9.94434 11.5002C9.66819 11.5002 9.44434 11.2763 9.44434 11.0002V9.62929C9.44434 9.61563 9.44446 9.602 9.44469 9.58839L9.44434 7.64722C9.44434 7.37107 9.66819 7.14722 9.94434 7.14722C10.2205 7.14722 10.4443 7.37107 10.4443 7.64722V7.72873C10.8155 7.47327 11.2652 7.32373 11.7499 7.32373C12.026 7.32373 12.2499 7.54759 12.2499 7.82373C12.2499 8.09987 12.026 8.32373 11.7499 8.32373Z" fill="white"/>
<path fill-rule="evenodd" clip-rule="evenodd" d="M7.99821 1.00024C4.1332 1.00024 1 4.13345 1 7.99845C1 11.8635 4.1332 14.9967 7.99821 14.9967C11.8632 14.9967 14.9964 11.8635 14.9964 7.99845C14.9964 4.13345 11.8632 1.00024 7.99821 1.00024ZM2 7.99845C2 4.68573 4.68549 2.00024 7.99821 2.00024C11.3109 2.00024 13.9964 4.68573 13.9964 7.99845C13.9964 11.3112 11.3109 13.9967 7.99821 13.9967C4.68549 13.9967 2 11.3112 2 7.99845Z" fill="white"/>
</svg>
