<svg width="16" height="16" viewBox="0 0 16 16" fill="none" xmlns="http://www.w3.org/2000/svg">
<path fill-rule="evenodd" clip-rule="evenodd" d="M14.665 1.70874C14.8409 1.74876 14.9625 1.92056 14.9316 2.10718L12.9492 14.0076L12.9326 14.0681C12.8905 14.1856 12.7887 14.2725 12.666 14.2947L12.6035 14.2996H3.39642C3.24663 14.2996 3.11638 14.205 3.06732 14.0681L3.05072 14.0076L1.0683 2.10718C1.03291 1.89396 1.19686 1.7 1.41302 1.69995H14.5869L14.665 1.70874ZM3.9472 13.2996H12.0527L13.2363 6.19995H10.6747L10.1386 10.4929L10.1249 10.5564C10.0795 10.6991 9.94548 10.7994 9.79095 10.7996H6.20892C6.05445 10.7995 5.92139 10.699 5.87592 10.5564L5.86224 10.4929L5.24896 5.59351C5.22611 5.41066 5.3485 5.24684 5.52045 5.20874L5.59662 5.19995H13.4023L13.8193 2.69995H2.1806L3.9472 13.2996ZM6.78314 9.79956H9.21771L9.66791 6.19995H6.33295L6.78314 9.79956Z" fill="white"/>
</svg>
