<svg width="16" height="16" viewBox="0 0 16 16" fill="none" xmlns="http://www.w3.org/2000/svg">
<path d="M8.95508 9.55029L9.74608 12.25H10.4811L11.2686 9.55029H10.6806L10.1346 11.5635L9.58158 9.55029H8.95508Z" fill="white"/>
<path d="M8.21279 11.5017C8.21279 11.3163 8.01972 11.2504 7.78821 11.1713C7.44159 11.0528 7.00879 10.9049 7.00879 10.2829C7.00879 9.79697 7.26429 9.5 7.96429 9.5C8.27579 9.5 8.54529 9.55399 8.71329 9.63113V10.2521C8.53829 10.1209 8.27229 10.0168 8.00979 10.0168C7.67729 10.0168 7.58979 10.1286 7.58979 10.2713C7.58979 10.4489 7.78655 10.5128 8.02391 10.59C8.3847 10.7073 8.83929 10.8551 8.83929 11.4785C8.83929 11.9992 8.54179 12.3 7.83129 12.3C7.51279 12.3 7.19779 12.2267 7.01929 12.1149V11.4708C7.14529 11.5904 7.40779 11.7832 7.79979 11.7832C8.09029 11.7832 8.21279 11.6713 8.21279 11.5017Z" fill="white"/>
<path d="M6.63699 10.2636V9.61956C6.52149 9.57714 6.30099 9.5 5.97199 9.5C5.09699 9.5 4.72949 9.95124 4.72949 10.9231C4.72949 11.868 5.08999 12.3 5.96849 12.3C6.29749 12.3 6.53899 12.219 6.66499 12.1534V11.5248C6.54249 11.6212 6.31849 11.7292 6.01399 11.7292C5.55899 11.7292 5.33849 11.5287 5.33849 10.8884C5.33849 10.2791 5.54499 10.0708 5.98599 10.0708C6.30449 10.0708 6.49349 10.1711 6.63699 10.2636Z" fill="white"/>
<path fill-rule="evenodd" clip-rule="evenodd" d="M8.90517 1H5.52893C5.05678 0.999995 4.67215 0.999991 4.35989 1.0255C4.03715 1.05187 3.74793 1.10797 3.47852 1.24524C3.05516 1.46095 2.71095 1.80516 2.49524 2.22852C2.35797 2.49793 2.30187 2.78715 2.2755 3.10989C2.24999 3.42215 2.24999 3.80677 2.25 4.27892V11.7211C2.24999 12.1932 2.24999 12.5778 2.2755 12.8901C2.30187 13.2128 2.35797 13.5021 2.49524 13.7715C2.71095 14.1948 3.05516 14.539 3.47852 14.7548C3.74793 14.892 4.03715 14.9481 4.35989 14.9745C4.67215 15 5.05677 15 5.52891 15H10.4711C10.9432 15 11.3278 15 11.6401 14.9745C11.9628 14.9481 12.2521 14.892 12.5215 14.7548C12.9448 14.539 13.289 14.1948 13.5048 13.7715C13.642 13.5021 13.6981 13.2128 13.7245 12.8901C13.75 12.5778 13.75 12.1932 13.75 11.721V5.71622C13.75 5.581 13.6952 5.45156 13.5982 5.35739L9.25338 1.14118C9.16008 1.05064 9.03518 1 8.90517 1ZM3.93251 2.13624C4.03745 2.08277 4.18042 2.0435 4.44132 2.02218C4.70805 2.00039 5.0517 2 5.55 2H8.40517V3.49667C8.40517 3.87132 8.40516 4.18252 8.42591 4.43645C8.44751 4.70082 8.49406 4.94683 8.61226 5.1788C8.79442 5.53631 9.08508 5.82697 9.44259 6.00913C9.67456 6.12732 9.92057 6.17388 10.1849 6.19548C10.4389 6.21623 10.7501 6.21622 11.1247 6.21622H12.75V11.7C12.75 12.1983 12.7496 12.5419 12.7278 12.8087C12.7065 13.0696 12.6672 13.2125 12.6138 13.3175C12.4939 13.5527 12.3027 13.7439 12.0675 13.8638C11.9625 13.9172 11.8196 13.9565 11.5587 13.9778C11.2919 13.9996 10.9483 14 10.45 14H5.55C5.0517 14 4.70805 13.9996 4.44132 13.9778C4.18042 13.9565 4.03745 13.9172 3.93251 13.8638C3.69731 13.7439 3.50608 13.5527 3.38624 13.3175C3.33277 13.2125 3.2935 13.0696 3.27218 12.8087C3.25039 12.5419 3.25 12.1983 3.25 11.7V4.3C3.25 3.8017 3.25039 3.45805 3.27218 3.19132C3.2935 2.93042 3.33277 2.78745 3.38624 2.68251C3.50608 2.44731 3.69731 2.25608 3.93251 2.13624ZM12.0168 5.21622L9.40517 2.68192V3.47622C9.40517 3.8765 9.40556 4.14665 9.42259 4.35502C9.43913 4.55755 9.46887 4.6573 9.50327 4.72481C9.58955 4.89415 9.72724 5.03184 9.89658 5.11812C9.96409 5.15252 10.0638 5.18226 10.2664 5.1988C10.4747 5.21583 10.7449 5.21622 11.1452 5.21622H12.0168Z" fill="white"/>
</svg>
