<svg width="16" height="16" viewBox="0 0 16 16" fill="none" xmlns="http://www.w3.org/2000/svg">
<path d="M8.35938 1.00493C8.24828 0.999871 8.1295 0.999941 7.99791 1.00002L5.74401 1.00004C5.28107 1.00003 4.90246 1.00003 4.59476 1.02562C4.27627 1.05212 3.98862 1.10863 3.71999 1.248C3.29956 1.46611 2.95775 1.81414 2.74353 2.24221C2.60666 2.51573 2.55115 2.80861 2.52513 3.13289C2.49999 3.44618 2.49999 3.83167 2.5 4.30303V11.697C2.49999 12.1684 2.49999 12.5539 2.52513 12.8672C2.55115 13.1915 2.60666 13.4843 2.74353 13.7579C2.95775 14.1859 3.29956 14.534 3.71999 14.7521C3.98862 14.8914 4.27627 14.948 4.59476 14.9745C4.90246 15.0001 5.28106 15 5.744 15H8.64588C7.9333 14.2039 7.5 13.1526 7.5 12C7.5 9.51472 9.51472 7.5 12 7.5C12.5259 7.5 13.0308 7.59023 13.5 7.75605L13.5 6.60215C13.5001 6.46466 13.5001 6.34087 13.4948 6.2252H11.0789C10.7043 6.2252 10.3931 6.22521 10.1391 6.20446C9.87477 6.18286 9.62877 6.1363 9.39679 6.01811C9.03929 5.83595 8.74862 5.54529 8.56646 5.18778C8.44827 4.9558 8.40171 4.7098 8.38011 4.44543C8.35936 4.1915 8.35937 3.88029 8.35938 3.50564V1.00493Z" fill="white"/>
<path d="M9.35938 3.48519V1.33855C9.51695 1.45173 9.6592 1.59673 9.83309 1.77399L12.7398 4.73359C12.9173 4.91405 13.0618 5.06104 13.1739 5.2252H11.0994C10.6991 5.2252 10.4289 5.22481 10.2206 5.20778C10.018 5.19123 9.91829 5.1615 9.85078 5.1271C9.68144 5.04081 9.54376 4.90313 9.45747 4.73379C9.42307 4.66628 9.39334 4.56653 9.37679 4.364C9.35976 4.15563 9.35938 3.88548 9.35938 3.48519Z" fill="white"/>
<path fill-rule="evenodd" clip-rule="evenodd" d="M11.997 10.5346C11.0135 10.5346 10.1715 11.0971 9.78988 11.8989C9.77323 11.9339 9.76732 11.9467 9.76341 11.9568C9.76166 11.9613 9.76056 11.9646 9.75917 11.9718L9.75887 11.9755C9.75851 11.9807 9.75826 11.9876 9.75825 11.9953C9.75824 12.003 9.75849 12.0099 9.75884 12.0151L9.75914 12.0189C9.76051 12.0261 9.7616 12.0293 9.76335 12.0339C9.76725 12.044 9.77313 12.0568 9.78973 12.0918C10.1707 12.8953 11.0136 13.4592 11.9983 13.4592C12.9818 13.4592 13.8238 12.8968 14.2054 12.095C14.2221 12.06 14.228 12.0472 14.2319 12.037C14.2337 12.0325 14.2347 12.0293 14.2361 12.0221L14.2364 12.0183C14.2368 12.0131 14.2371 12.0062 14.2371 11.9985C14.2371 11.9908 14.2368 11.9839 14.2365 11.9787L14.2362 11.975C14.2348 11.9678 14.2337 11.9645 14.232 11.96C14.2281 11.9499 14.2222 11.9371 14.2056 11.902C13.8246 11.0985 12.9817 10.5346 11.997 10.5346ZM12.899 11.9254C12.899 12.4061 12.4961 12.7957 11.999 12.7957C11.502 12.7957 11.099 12.4061 11.099 11.9254C11.099 11.4448 11.502 11.0552 11.999 11.0552C12.4961 11.0552 12.899 11.4448 12.899 11.9254Z" fill="white"/>
<path fill-rule="evenodd" clip-rule="evenodd" d="M12.0008 15.75C14.0718 15.75 15.7508 14.0711 15.7508 12C15.7508 9.92893 14.0718 8.25 12.0008 8.25C9.92971 8.25 8.25078 9.92893 8.25078 12C8.25078 14.0711 9.92971 15.75 12.0008 15.75ZM9.24812 11.641C9.72913 10.6304 10.7818 9.93461 11.997 9.93461C13.2137 9.93461 14.2676 10.6322 14.7477 11.645L14.7515 11.653C14.78 11.713 14.8103 11.7767 14.8273 11.8719C14.8404 11.9454 14.8403 12.0526 14.8271 12.126C14.8099 12.2213 14.7796 12.2849 14.751 12.3448L14.7472 12.3528C14.2662 13.3634 13.2135 14.0592 11.9983 14.0592C10.7816 14.0592 9.72772 13.3616 9.24757 12.3488L9.24377 12.3408C9.21526 12.2808 9.18504 12.2172 9.16803 12.1219C9.15492 12.0484 9.155 11.9413 9.16823 11.8678C9.18538 11.7726 9.2157 11.709 9.2443 11.649L9.24812 11.641Z" fill="white"/>
</svg>
