<svg width="16" height="16" viewBox="0 0 16 16" fill="none" xmlns="http://www.w3.org/2000/svg">
<path d="M10.5787 10.7264V11.2355H11.0232V11.7061C10.9392 11.7292 10.8342 11.7562 10.6767 11.7562C10.1972 11.7562 9.98017 11.5171 9.98017 10.8884C9.98017 10.2868 10.1832 10.0438 10.7257 10.0438C10.9812 10.0438 11.1912 10.1132 11.3592 10.2251V9.61956C11.2472 9.56557 11.0302 9.5 10.6872 9.5C9.75617 9.5 9.38867 9.95124 9.38867 10.9231C9.38867 11.8835 9.77717 12.3 10.6312 12.3C11.0442 12.3 11.3697 12.1843 11.5237 12.0956V10.7264H10.5787Z" fill="white"/>
<path d="M6.80273 12.25V9.55029H7.42223L8.23073 10.9619C8.28293 11.055 8.32807 11.152 8.37116 11.2446C8.38874 11.2824 8.406 11.3195 8.42323 11.3553C8.41273 11.2203 8.40573 11.0699 8.40573 10.9194V9.55029H8.96573V12.25H8.36723L7.55173 10.823C7.49878 10.7341 7.44764 10.6232 7.39832 10.5162C7.37918 10.4746 7.36032 10.4337 7.34173 10.3949L7.34634 10.4794C7.35258 10.5912 7.35923 10.7102 7.35923 10.8269V12.25H6.80273Z" fill="white"/>
<path fill-rule="evenodd" clip-rule="evenodd" d="M4.50391 9.55776V12.2498H5.07791V11.4823C5.16891 11.49 5.23891 11.4938 5.32991 11.4938C6.07191 11.4938 6.39741 11.1737 6.39741 10.4757C6.39741 9.78916 6.11041 9.53076 5.33691 9.53076C5.02357 9.53076 4.85566 9.5395 4.61715 9.55192C4.58125 9.55379 4.54375 9.55574 4.50391 9.55776ZM5.32991 10.9732C5.23191 10.9732 5.17241 10.9693 5.07791 10.9616V10.063C5.16891 10.0514 5.23191 10.0514 5.32641 10.0514C5.70441 10.0514 5.80591 10.198 5.80591 10.5065C5.80591 10.8189 5.68691 10.9732 5.32991 10.9732Z" fill="white"/>
<path fill-rule="evenodd" clip-rule="evenodd" d="M8.90517 1H5.52893C5.05678 0.999995 4.67215 0.999991 4.35989 1.0255C4.03715 1.05187 3.74793 1.10797 3.47852 1.24524C3.05516 1.46095 2.71095 1.80516 2.49524 2.22852C2.35797 2.49793 2.30187 2.78715 2.2755 3.10989C2.24999 3.42215 2.24999 3.80677 2.25 4.27892V11.7211C2.24999 12.1932 2.24999 12.5778 2.2755 12.8901C2.30187 13.2128 2.35797 13.5021 2.49524 13.7715C2.71095 14.1948 3.05516 14.539 3.47852 14.7548C3.74793 14.892 4.03715 14.9481 4.35989 14.9745C4.67215 15 5.05677 15 5.52891 15H10.4711C10.9432 15 11.3278 15 11.6401 14.9745C11.9628 14.9481 12.2521 14.892 12.5215 14.7548C12.9448 14.539 13.289 14.1948 13.5048 13.7715C13.642 13.5021 13.6981 13.2128 13.7245 12.8901C13.75 12.5778 13.75 12.1932 13.75 11.721V5.71622C13.75 5.581 13.6952 5.45156 13.5982 5.35739L9.25338 1.14118C9.16008 1.05064 9.03518 1 8.90517 1ZM3.93251 2.13624C4.03745 2.08277 4.18042 2.0435 4.44132 2.02218C4.70805 2.00039 5.0517 2 5.55 2H8.40517V3.49667C8.40517 3.87132 8.40516 4.18252 8.42591 4.43645C8.44751 4.70082 8.49406 4.94683 8.61226 5.1788C8.79442 5.53631 9.08508 5.82697 9.44259 6.00913C9.67456 6.12732 9.92057 6.17388 10.1849 6.19548C10.4389 6.21623 10.7501 6.21622 11.1247 6.21622H12.75V11.7C12.75 12.1983 12.7496 12.5419 12.7278 12.8087C12.7065 13.0696 12.6672 13.2125 12.6138 13.3175C12.4939 13.5527 12.3027 13.7439 12.0675 13.8638C11.9625 13.9172 11.8196 13.9565 11.5587 13.9778C11.2919 13.9996 10.9483 14 10.45 14H5.55C5.0517 14 4.70805 13.9996 4.44132 13.9778C4.18042 13.9565 4.03745 13.9172 3.93251 13.8638C3.69731 13.7439 3.50608 13.5527 3.38624 13.3175C3.33277 13.2125 3.2935 13.0696 3.27218 12.8087C3.25039 12.5419 3.25 12.1983 3.25 11.7V4.3C3.25 3.8017 3.25039 3.45805 3.27218 3.19132C3.2935 2.93042 3.33277 2.78745 3.38624 2.68251C3.50608 2.44731 3.69731 2.25608 3.93251 2.13624ZM12.0168 5.21622L9.40517 2.68192V3.47622C9.40517 3.8765 9.40556 4.14665 9.42259 4.35502C9.43913 4.55755 9.46887 4.6573 9.50327 4.72481C9.58955 4.89415 9.72724 5.03184 9.89658 5.11812C9.96409 5.15252 10.0638 5.18226 10.2664 5.1988C10.4747 5.21583 10.7449 5.21622 11.1452 5.21622H12.0168Z" fill="white"/>
</svg>
