<svg width="16" height="16" viewBox="0 0 16 16" fill="none" xmlns="http://www.w3.org/2000/svg">
<path d="M4.75977 10.1191C5.1091 10.1191 5.20312 10.2514 5.20312 10.5293C5.203 10.8103 5.09322 10.9491 4.76367 10.9492C4.6731 10.9492 4.61761 10.9454 4.53027 10.9385V10.1289C4.61425 10.1185 4.67265 10.1191 4.75977 10.1191Z" fill="white"/>
<path d="M6.83887 10.1191C7.18821 10.1191 7.28222 10.2514 7.28223 10.5293C7.28211 10.8103 7.17225 10.9491 6.84277 10.9492C6.7522 10.9492 6.69671 10.9454 6.60938 10.9385V10.1289C6.69338 10.1185 6.7517 10.1191 6.83887 10.1191Z" fill="white"/>
<path fill-rule="evenodd" clip-rule="evenodd" d="M8.35938 1.00586V3.48536C8.35938 3.869 8.35877 4.18684 8.37988 4.44532C8.40147 4.70959 8.44831 4.95561 8.56641 5.1875C8.74855 5.54499 9.03901 5.8364 9.39648 6.01856C9.62831 6.13668 9.87449 6.18249 10.1387 6.20411C10.3972 6.22523 10.7158 6.22559 11.0996 6.22559H13.4932C13.4985 6.34117 13.5001 6.46518 13.5 6.60254V11.6973C13.5 12.1685 13.4997 12.554 13.4746 12.8672C13.4486 13.1914 13.3936 13.4844 13.2568 13.7578C13.0427 14.1858 12.7006 14.5338 12.2803 14.752C12.0117 14.8913 11.7237 14.9481 11.4053 14.9746C11.0976 15.0002 10.7188 15 10.2559 15H5.74414C5.2812 15 4.90242 15.0002 4.59473 14.9746C4.27624 14.9481 3.98835 14.8913 3.71973 14.752C3.29943 14.5338 2.95733 14.1858 2.74316 13.7578C2.60637 13.4844 2.55141 13.1914 2.52539 12.8672C2.50026 12.554 2.49999 12.1685 2.5 11.6973V4.30274C2.49999 3.83152 2.50026 3.44604 2.52539 3.13282C2.55141 2.80863 2.60635 2.51564 2.74316 2.24219C2.95734 1.8142 3.29941 1.46617 3.71973 1.24805C3.98836 1.10869 4.27624 1.05189 4.59473 1.0254C4.90243 0.999798 5.2812 0.999998 5.74414 1H7.99805C8.12959 0.999927 8.2483 1.0008 8.35938 1.00586ZM8.00098 10.1768H8.63672V12.0996H9.15039V10.1768H9.78613V9.6504H8.00098V10.1768ZM10.542 10.9229L9.89941 12.0996H10.4922L10.9238 11.334L11.377 12.0996H11.9854L11.3174 10.9121L11.9502 9.6504H11.3613L10.9453 10.5234L10.5459 9.6504H9.94727L10.542 10.9229ZM4.76953 9.6504C4.43658 9.6504 4.28133 9.66092 4 9.67481V12.0986H4.53027V11.4072C4.61438 11.4142 4.67957 11.418 4.76367 11.418C5.44924 11.4179 5.75 11.1296 5.75 10.501C5.74997 9.88275 5.48437 9.6504 4.76953 9.6504ZM6.84863 9.6504C6.51567 9.6504 6.36038 9.65994 6.0791 9.67383V12.0986H6.60938V11.4072C6.69348 11.4142 6.75867 11.418 6.84277 11.418C7.52828 11.4179 7.8291 11.1296 7.8291 10.501C7.82907 9.88275 7.56347 9.6504 6.84863 9.6504Z" fill="white"/>
<path d="M9.35938 1.34082C9.51652 1.4539 9.65951 1.59756 9.83301 1.77442C9.84447 1.7861 9.85641 1.79761 9.86816 1.80957L12.7041 4.69727C12.716 4.70937 12.7286 4.7216 12.7402 4.7334C12.9174 4.91357 13.0599 5.06174 13.1719 5.22559H11.0996C10.6994 5.22559 10.4291 5.22503 10.2207 5.20801C10.0182 5.19146 9.91809 5.16135 9.85059 5.12696C9.68134 5.04066 9.54328 4.90267 9.45703 4.7334C9.42276 4.66594 9.39346 4.56611 9.37695 4.36426C9.35993 4.15592 9.35938 3.88555 9.35938 3.48536V1.34082Z" fill="white"/>
</svg>
