<svg width="16" height="16" viewBox="0 0 16 16" fill="none" xmlns="http://www.w3.org/2000/svg">
<path fill-rule="evenodd" clip-rule="evenodd" d="M8.35938 1.00586V3.48536C8.35938 3.869 8.35877 4.18684 8.37988 4.44532C8.40147 4.70959 8.44831 4.95561 8.56641 5.1875C8.74855 5.54499 9.03901 5.8364 9.39648 6.01856C9.62831 6.13668 9.87449 6.18249 10.1387 6.20411C10.3972 6.22523 10.7158 6.22559 11.0996 6.22559H13.4932C13.4985 6.34118 13.5001 6.46517 13.5 6.60254V11.6973C13.5 12.1685 13.4997 12.554 13.4746 12.8672C13.4486 13.1914 13.3936 13.4844 13.2568 13.7578C13.0427 14.1858 12.7006 14.5338 12.2803 14.752C12.0117 14.8913 11.7237 14.9481 11.4053 14.9746C11.0976 15.0002 10.7188 15 10.2559 15H5.74414C5.2812 15 4.90242 15.0002 4.59473 14.9746C4.27624 14.9481 3.98835 14.8913 3.71973 14.752C3.29942 14.5338 2.95734 14.1858 2.74316 13.7578C2.60637 13.4844 2.55141 13.1914 2.52539 12.8672C2.50026 12.554 2.49999 12.1685 2.5 11.6973V4.30274C2.49999 3.83152 2.50026 3.44604 2.52539 3.13282C2.55141 2.80863 2.60635 2.51564 2.74316 2.24219C2.95734 1.8142 3.29941 1.46617 3.71973 1.24805C3.98835 1.10869 4.27624 1.05189 4.59473 1.0254C4.90243 0.999798 5.2812 0.999998 5.74414 1H7.99805C8.12959 0.999927 8.2483 1.0008 8.35938 1.00586ZM5.18262 10.8506L4.5 12.0996H5.12988L5.54297 11.2773L5.94922 12.0996H6.59961L5.91797 10.8398L6.56543 9.6504H5.94238L5.55664 10.4131L5.17188 9.6504H4.53516L5.18262 10.8506ZM6.93164 12.0996H7.45703V10.7354C7.45703 10.6654 7.45486 10.6062 7.4502 10.5596C7.44786 10.513 7.44411 10.4546 7.43945 10.3848H7.45312C7.46479 10.4198 7.47602 10.4515 7.48535 10.4795C7.49463 10.505 7.5028 10.5317 7.50977 10.5596C7.5191 10.5852 7.52778 10.6126 7.53711 10.6406C7.54878 10.6686 7.56217 10.7004 7.57617 10.7354L7.91211 11.6104H8.36719L8.70312 10.7354C8.71712 10.7004 8.72895 10.6686 8.73828 10.6406C8.74995 10.6126 8.75863 10.5852 8.76562 10.5596C8.77493 10.5317 8.78464 10.5051 8.79395 10.4795C8.80328 10.4515 8.81353 10.4198 8.8252 10.3848H8.83984C8.83287 10.4546 8.82754 10.513 8.8252 10.5596C8.82286 10.6062 8.82227 10.6654 8.82227 10.7354V12.0996H9.34668V9.6504H8.66797L8.15039 10.9971L7.63184 9.6504H6.93164V12.0996ZM9.90527 12.0996H11.4102V11.6104H10.4512V9.6504H9.90527V12.0996Z" fill="white"/>
<path d="M9.35938 1.34082C9.51652 1.45389 9.65951 1.59756 9.83301 1.77442C9.84447 1.7861 9.85641 1.79761 9.86816 1.80957L12.7041 4.69727C12.716 4.70937 12.7286 4.7216 12.7402 4.7334C12.9174 4.91357 13.0599 5.06174 13.1719 5.22559H11.0996C10.6994 5.22559 10.4291 5.22503 10.2207 5.20801C10.0182 5.19147 9.91809 5.16135 9.85059 5.12696C9.68134 5.04066 9.54328 4.90267 9.45703 4.7334C9.42276 4.66594 9.39346 4.56612 9.37695 4.36426C9.35993 4.15592 9.35938 3.88555 9.35938 3.48536V1.34082Z" fill="white"/>
</svg>
