<svg width="16" height="16" viewBox="0 0 16 16" fill="none" xmlns="http://www.w3.org/2000/svg">
<path fill-rule="evenodd" clip-rule="evenodd" d="M5.52893 1C5.05678 0.999995 4.67215 0.99999 4.35989 1.0255C4.03715 1.05187 3.74793 1.10797 3.47852 1.24524C3.05516 1.46095 2.71095 1.80516 2.49524 2.22852C2.35797 2.49793 2.30187 2.78715 2.2755 3.10989C2.24999 3.42215 2.24999 3.80677 2.25 4.27892V11.7211C2.24999 12.1932 2.24999 12.5778 2.2755 12.8901C2.30187 13.2128 2.35797 13.5021 2.49524 13.7715C2.71095 14.1948 3.05516 14.539 3.47852 14.7548C3.74793 14.892 4.03715 14.9481 4.35989 14.9745C4.67215 15 5.05677 15 5.52891 15H8.64584C8.37745 14.7001 8.14868 14.3641 7.96776 14H5.55C5.0517 14 4.70805 13.9996 4.44132 13.9778C4.18042 13.9565 4.03745 13.9172 3.93251 13.8638C3.69731 13.7439 3.50608 13.5527 3.38624 13.3175C3.33277 13.2125 3.2935 13.0696 3.27218 12.8087C3.25039 12.5419 3.25 12.1983 3.25 11.7V4.3C3.25 3.8017 3.25039 3.45805 3.27218 3.19132C3.2935 2.93042 3.33277 2.78745 3.38624 2.68251C3.50608 2.44731 3.69731 2.25608 3.93251 2.13624C4.03745 2.08277 4.18042 2.0435 4.44132 2.02218C4.70805 2.00039 5.0517 2 5.55 2H8.40517V3.49667C8.40517 3.87131 8.40516 4.18252 8.42591 4.43645C8.44751 4.70082 8.49406 4.94683 8.61226 5.1788C8.79442 5.53631 9.08508 5.82697 9.44259 6.00913C9.67456 6.12732 9.92057 6.17388 10.1849 6.19548C10.4389 6.21623 10.7501 6.21622 11.1247 6.21622H12.75V7.56222C13.0986 7.6207 13.4335 7.71924 13.75 7.85296V5.71622C13.75 5.581 13.6952 5.45156 13.5982 5.35739L9.25338 1.14118C9.16008 1.05064 9.03518 1 8.90517 1H5.52893ZM12.0168 5.21622L9.40517 2.68192V3.47622C9.40517 3.8765 9.40556 4.14665 9.42259 4.35502C9.43913 4.55755 9.46887 4.6573 9.50327 4.72481C9.58955 4.89415 9.72723 5.03184 9.89658 5.11812C9.96409 5.15252 10.0638 5.18226 10.2664 5.1988C10.4747 5.21583 10.7449 5.21622 11.1452 5.21622H12.0168Z" fill="white"/>
<path fill-rule="evenodd" clip-rule="evenodd" d="M12 15.75C14.0711 15.75 15.75 14.0711 15.75 12C15.75 9.92893 14.0711 8.25 12 8.25C9.92893 8.25 8.25 9.92893 8.25 12C8.25 14.0711 9.92893 15.75 12 15.75ZM14.3698 11.3223C14.4664 11.1549 14.4091 10.9408 14.2417 10.8441C14.0743 10.7475 13.8602 10.8048 13.7636 10.9723C13.6227 11.2162 13.4333 11.4275 13.2078 11.5936C13.1472 11.6383 13.0839 11.6797 13.0182 11.7176C12.7086 11.8963 12.3575 11.9904 12 11.9904C11.6426 11.9904 11.2914 11.8963 10.9818 11.7176C10.9162 11.6797 10.8529 11.6383 10.7922 11.5936C10.5668 11.4275 10.3773 11.2162 10.2365 10.9723C10.1398 10.8048 9.92578 10.7475 9.75838 10.8441C9.59098 10.9408 9.53362 11.1549 9.63027 11.3223C9.75165 11.5325 9.89992 11.7247 10.0706 11.8944L9.53118 12.4339C9.3945 12.5705 9.3945 12.7921 9.53118 12.9288C9.66787 13.0655 9.88947 13.0655 10.0262 12.9288L10.6314 12.3236C10.9457 12.505 11.2924 12.6218 11.65 12.668V13.3632C11.65 13.5565 11.8067 13.7132 12 13.7132C12.1933 13.7132 12.35 13.5565 12.35 13.3632V12.668C12.7077 12.6218 13.0539 12.5053 13.3682 12.3238L13.9739 12.9288C14.1106 13.0655 14.3322 13.0655 14.4689 12.9288C14.6056 12.7921 14.6056 12.5705 14.4689 12.4339L13.9295 11.8944C14.1001 11.7247 14.2484 11.5325 14.3698 11.3223Z" fill="white"/>
</svg>
