<svg width="16" height="16" viewBox="0 0 16 16" fill="none" xmlns="http://www.w3.org/2000/svg">
<path d="M7.53097 10.9038C7.53097 11.5731 7.76897 11.7538 8.15047 11.7538C8.53197 11.7538 8.73847 11.5615 8.73847 10.9038C8.73847 10.2423 8.53197 10.0462 8.12597 10.0462C7.72347 10.0462 7.53097 10.2769 7.53097 10.9038Z" fill="white"/>
<path d="M5.312 11.727C5.2245 11.727 5.158 11.7231 5.074 11.7116V10.0885C5.1685 10.077 5.249 10.0731 5.354 10.0731C5.865 10.0731 6.0505 10.3039 6.0505 10.8693C6.0505 11.477 5.837 11.727 5.312 11.727Z" fill="white"/>
<path fill-rule="evenodd" clip-rule="evenodd" d="M8.35938 1.00493C8.24828 0.999871 8.1295 0.999941 7.99791 1.00002L5.74401 1.00004C5.28107 1.00003 4.90246 1.00003 4.59476 1.02562C4.27627 1.05212 3.98862 1.10863 3.71999 1.248C3.29956 1.46611 2.95775 1.81414 2.74353 2.24221C2.60666 2.51573 2.55115 2.80861 2.52513 3.13289C2.49999 3.44618 2.49999 3.83167 2.5 4.30303V11.697C2.49999 12.1684 2.49999 12.5539 2.52513 12.8672C2.55115 13.1915 2.60666 13.4843 2.74353 13.7579C2.95775 14.1859 3.29956 14.534 3.71999 14.7521C3.98862 14.8914 4.27627 14.948 4.59476 14.9745C4.90246 15.0001 5.28106 15 5.744 15H10.256C10.7189 15 11.0975 15.0001 11.4052 14.9745C11.7237 14.948 12.0113 14.8914 12.28 14.7521C12.7004 14.534 13.0422 14.1859 13.2564 13.7579C13.3933 13.4843 13.4488 13.1915 13.4748 12.8672C13.5 12.5539 13.5 12.1684 13.5 11.6971L13.5 6.60215C13.5001 6.46466 13.5001 6.34087 13.4948 6.2252H11.0789C10.7043 6.2252 10.3931 6.22521 10.1391 6.20446C9.87477 6.18286 9.62877 6.1363 9.39679 6.01811C9.03929 5.83595 8.74862 5.54529 8.56646 5.18778C8.44827 4.9558 8.40171 4.7098 8.38011 4.44543C8.35936 4.1915 8.35937 3.88029 8.35938 3.50564V1.00493ZM11.5345 10.2653V9.62299C11.419 9.58068 11.1985 9.50376 10.8695 9.50376C9.99445 9.50376 9.62695 9.95376 9.62695 10.923C9.62695 11.8653 9.98745 12.2961 10.866 12.2961C11.195 12.2961 11.4365 12.2153 11.5625 12.1499V11.523C11.44 11.6191 11.216 11.7268 10.9115 11.7268C10.4565 11.7268 10.236 11.5268 10.236 10.8884C10.236 10.2807 10.4425 10.073 10.8835 10.073C11.202 10.073 11.391 10.173 11.5345 10.2653ZM6.92197 10.9C6.92197 9.92308 7.31397 9.5 8.13997 9.5C9.01497 9.5 9.34397 9.92692 9.34397 10.9C9.34397 11.9115 8.92747 12.3 8.13997 12.3C7.34897 12.3 6.92197 11.8808 6.92197 10.9ZM4.5 9.55772V12.2385C4.7765 12.2577 4.9795 12.2693 5.284 12.2693C6.229 12.2693 6.642 11.8116 6.642 10.8346C6.642 9.99618 6.3445 9.5308 5.3435 9.5308C4.997 9.5308 4.794 9.53849 4.5 9.55772Z" fill="white"/>
<path d="M9.35938 3.48519V1.33855C9.51695 1.45173 9.6592 1.59673 9.83309 1.77399L12.7398 4.73359C12.9173 4.91405 13.0618 5.06104 13.1739 5.2252H11.0994C10.6991 5.2252 10.4289 5.22481 10.2206 5.20778C10.018 5.19123 9.91829 5.1615 9.85078 5.1271C9.68144 5.04081 9.54376 4.90313 9.45747 4.73379C9.42307 4.66628 9.39334 4.56653 9.37679 4.364C9.35976 4.15563 9.35938 3.88548 9.35938 3.48519Z" fill="white"/>
</svg>
