<svg width="16" height="16" viewBox="0 0 16 16" fill="none" xmlns="http://www.w3.org/2000/svg">
<path fill-rule="evenodd" clip-rule="evenodd" d="M8.35938 1.00493V3.50564C8.35937 3.88029 8.35936 4.1915 8.38011 4.44543C8.40171 4.7098 8.44827 4.9558 8.56646 5.18778C8.74862 5.54528 9.03929 5.83595 9.39679 6.01811C9.62877 6.1363 9.87477 6.18286 10.1391 6.20446C10.3931 6.22521 10.7043 6.2252 11.0789 6.22519H13.4948C13.5001 6.34086 13.5001 6.46462 13.5 6.60211L13.5 11.697C13.5 12.1684 13.5 12.5539 13.4748 12.8672C13.4488 13.1915 13.3933 13.4843 13.2564 13.7579C13.0422 14.1859 12.7004 14.534 12.28 14.7521C12.0113 14.8914 11.7237 14.948 11.4052 14.9745C11.0975 15 10.7189 15 10.256 15H5.744C5.28106 15 4.90245 15 4.59476 14.9745C4.27627 14.948 3.98862 14.8914 3.71999 14.7521C3.29956 14.534 2.95775 14.1859 2.74353 13.7579C2.60666 13.4843 2.55115 13.1915 2.52513 12.8672C2.49999 12.5539 2.49999 12.1684 2.5 11.697V4.30305C2.49999 3.83168 2.49999 3.44618 2.52513 3.13289C2.55115 2.80861 2.60666 2.51573 2.74353 2.24221C2.95775 1.81414 3.29956 1.46611 3.71999 1.248C3.98862 1.10863 4.27627 1.05212 4.59476 1.02562C4.90246 1.00003 5.28107 1.00003 5.74401 1.00004L7.99791 1.00002C8.1295 0.999941 8.24828 0.999871 8.35938 1.00493ZM9.35938 1.33855V3.48519C9.35938 3.88548 9.35976 4.15563 9.37679 4.364C9.39334 4.56653 9.42307 4.66628 9.45747 4.73379C9.54376 4.90313 9.68144 5.04081 9.85078 5.1271C9.91829 5.1615 10.018 5.19123 10.2206 5.20778C10.4289 5.22481 10.6991 5.22519 11.0994 5.22519H13.1739C13.0618 5.06104 12.9173 4.91405 12.7398 4.73358L9.8331 1.774C9.65921 1.59674 9.51695 1.45173 9.35938 1.33855Z" fill="white"/>
</svg>
