<svg width="16" height="16" viewBox="0 0 16 16" fill="none" xmlns="http://www.w3.org/2000/svg">
<path d="M5.55664 10.4131L5.94238 9.65039H6.56543L5.91797 10.8398L6.59961 12.0996H5.94922L5.54297 11.2773L5.12988 12.0996H4.5L5.18262 10.8506L4.53516 9.65039H5.17188L5.55664 10.4131Z" fill="white"/>
<path d="M8.15039 10.9971L8.66797 9.65039H9.34668V12.0996H8.82227V10.7354C8.82227 10.6654 8.82286 10.6062 8.8252 10.5596C8.82754 10.513 8.83287 10.4546 8.83984 10.3848H8.8252C8.81353 10.4198 8.80328 10.4515 8.79395 10.4795C8.78464 10.5051 8.77493 10.5317 8.76563 10.5596C8.75863 10.5852 8.74995 10.6126 8.73828 10.6406C8.72895 10.6686 8.71712 10.7004 8.70313 10.7354L8.36719 11.6104H7.91211L7.57617 10.7354C7.56217 10.7004 7.54878 10.6686 7.53711 10.6406C7.52778 10.6126 7.5191 10.5852 7.50977 10.5596C7.5028 10.5317 7.49463 10.505 7.48535 10.4795C7.47602 10.4515 7.46479 10.4198 7.45313 10.3848H7.43945C7.44411 10.4546 7.44786 10.513 7.4502 10.5596C7.45486 10.6062 7.45703 10.6654 7.45703 10.7354V12.0996H6.93164V9.65039H7.63184L8.15039 10.9971Z" fill="white"/>
<path d="M10.4512 11.6104H11.4102V12.0996H9.90527V9.65039H10.4512V11.6104Z" fill="white"/>
<path fill-rule="evenodd" clip-rule="evenodd" d="M9.00098 1.00977C9.09541 1.02822 9.1829 1.07365 9.25293 1.1416L13.5986 5.35742C13.6954 5.45147 13.7499 5.58086 13.75 5.71582V11.7002C13.75 12.1817 13.7505 12.5729 13.7246 12.8896C13.6982 13.2124 13.6421 13.5021 13.5049 13.7715C13.2892 14.1948 12.9448 14.5392 12.5215 14.7549C12.2521 14.8921 11.9624 14.9482 11.6396 14.9746C11.3229 15.0005 10.9317 15 10.4502 15H5.54981C5.06834 15 4.67713 15.0005 4.36035 14.9746C4.03763 14.9482 3.74791 14.8921 3.47852 14.7549C3.05515 14.5392 2.71083 14.1948 2.49512 13.7715C2.35786 13.5021 2.30176 13.2124 2.27539 12.8896C2.24954 12.5729 2.25 12.1817 2.25 11.7002V4.29981C2.25 3.81834 2.24954 3.42713 2.27539 3.11035C2.30176 2.78763 2.35786 2.49791 2.49512 2.22852C2.71083 1.80515 3.05515 1.46083 3.47852 1.24512C3.74791 1.10786 4.03763 1.05176 4.36035 1.02539C4.67713 0.999542 5.06834 1 5.54981 1H8.90527L9.00098 1.00977ZM5.54981 2C5.05165 2 4.7081 2.00068 4.44141 2.02246C4.18051 2.04378 4.03756 2.08325 3.93262 2.13672C3.6975 2.25655 3.50655 2.4475 3.38672 2.68262C3.33325 2.78756 3.29378 2.93051 3.27246 3.19141C3.25068 3.4581 3.25 3.80165 3.25 4.29981V11.7002C3.25 12.1983 3.25068 12.5419 3.27246 12.8086C3.29378 13.0695 3.33325 13.2124 3.38672 13.3174C3.50655 13.5525 3.6975 13.7435 3.93262 13.8633C4.03756 13.9168 4.18051 13.9562 4.44141 13.9775C4.7081 13.9993 5.05165 14 5.54981 14H10.4502C10.9483 14 11.2919 13.9993 11.5586 13.9775C11.8195 13.9562 11.9624 13.9168 12.0674 13.8633C12.3025 13.7435 12.4935 13.5525 12.6133 13.3174C12.6668 13.2124 12.7062 13.0695 12.7275 12.8086C12.7493 12.5419 12.75 12.1983 12.75 11.7002V6.21582H11.1455C10.7617 6.21582 10.4431 6.21644 10.1846 6.19531C9.92034 6.1737 9.67424 6.12693 9.44238 6.00879C9.08501 5.82662 8.79441 5.53612 8.61231 5.17871C8.49414 4.94677 8.44738 4.70085 8.42578 4.43652C8.40466 4.17807 8.40527 3.86019 8.40527 3.47656V2H5.54981ZM9.40527 3.47656C9.40527 3.87666 9.40583 4.14716 9.42285 4.35547C9.43938 4.55739 9.46863 4.65716 9.50293 4.72461C9.58921 4.89394 9.72717 5.03188 9.89648 5.11816C9.96399 5.15256 10.0641 5.18267 10.2666 5.19922C10.4749 5.21622 10.7454 5.21582 11.1455 5.21582H12.0156L9.40527 2.68164V3.47656Z" fill="white"/>
</svg>
