<svg width="16" height="16" viewBox="0 0 16 16" fill="none" xmlns="http://www.w3.org/2000/svg">
<path d="M10.0748 10.7264V11.2355H10.5193V11.7061C10.4353 11.7292 10.3303 11.7562 10.1728 11.7562C9.69327 11.7562 9.47627 11.5171 9.47627 10.8884C9.47627 10.2868 9.67927 10.0438 10.2218 10.0438C10.4773 10.0438 10.6873 10.1132 10.8553 10.2251V9.61956C10.7433 9.56557 10.5263 9.5 10.1833 9.5C9.25227 9.5 8.88477 9.95124 8.88477 10.9231C8.88477 11.8835 9.27327 12.3 10.1273 12.3C10.5403 12.3 10.8658 12.1843 11.0198 12.0956V10.7264H10.0748Z" fill="white"/>
<path fill-rule="evenodd" clip-rule="evenodd" d="M6.72852 12.2498V9.55776L6.84176 9.55192C7.08027 9.5395 7.24818 9.53076 7.56152 9.53076C8.33502 9.53076 8.62202 9.78916 8.62202 10.4757C8.62202 11.1737 8.29652 11.4938 7.55452 11.4938C7.46352 11.4938 7.39352 11.49 7.30252 11.4823V12.2498H6.72852ZM7.30252 10.9616C7.39702 10.9693 7.45652 10.9732 7.55452 10.9732C7.91152 10.9732 8.03052 10.8189 8.03052 10.5065C8.03052 10.198 7.92902 10.0514 7.55102 10.0514C7.45652 10.0514 7.39352 10.0514 7.30252 10.063V10.9616Z" fill="white"/>
<path d="M5.58817 9.55029V11.3437C5.58817 11.6522 5.50417 11.7294 5.29417 11.7294C5.15767 11.7294 5.01417 11.6715 4.95117 11.6137V12.2192C5.05967 12.2539 5.18217 12.2809 5.38167 12.2809C5.95917 12.2809 6.16217 12.0379 6.16217 11.4247V9.55029H5.58817Z" fill="white"/>
<path fill-rule="evenodd" clip-rule="evenodd" d="M8.90713 1H5.53088C5.05874 0.999995 4.6741 0.999991 4.36184 1.0255C4.0391 1.05187 3.74988 1.10797 3.48047 1.24524C3.05711 1.46095 2.7129 1.80516 2.49719 2.22852C2.35992 2.49793 2.30383 2.78715 2.27746 3.10989C2.25194 3.42215 2.25195 3.80677 2.25195 4.27892V11.7211C2.25195 12.1932 2.25194 12.5778 2.27746 12.8901C2.30383 13.2128 2.35992 13.5021 2.49719 13.7715C2.7129 14.1948 3.05711 14.539 3.48047 14.7548C3.74988 14.892 4.0391 14.9481 4.36184 14.9745C4.6741 15 5.05872 15 5.53087 15H10.473C10.9452 15 11.3298 15 11.6421 14.9745C11.9648 14.9481 12.254 14.892 12.5234 14.7548C12.9468 14.539 13.291 14.1948 13.5067 13.7715C13.644 13.5021 13.7001 13.2128 13.7264 12.8901C13.752 12.5778 13.752 12.1932 13.752 11.721V5.71622C13.752 5.581 13.6972 5.45156 13.6002 5.35739L9.25533 1.14118C9.16203 1.05064 9.03713 1 8.90713 1ZM3.93447 2.13624C4.0394 2.08277 4.18238 2.0435 4.44327 2.02218C4.71001 2.00039 5.05366 2 5.55195 2H8.40713V3.49667C8.40712 3.87132 8.40711 4.18252 8.42786 4.43645C8.44946 4.70082 8.49602 4.94683 8.61421 5.1788C8.79637 5.53631 9.08704 5.82697 9.44454 6.00913C9.67652 6.12732 9.92252 6.17388 10.1869 6.19548C10.4408 6.21623 10.752 6.21622 11.1267 6.21622H12.752V11.7C12.752 12.1983 12.7516 12.5419 12.7298 12.8087C12.7085 13.0696 12.6692 13.2125 12.6157 13.3175C12.4959 13.5527 12.3046 13.7439 12.0694 13.8638C11.9645 13.9172 11.8215 13.9565 11.5606 13.9778C11.2939 13.9996 10.9502 14 10.452 14H5.55195C5.05366 14 4.71001 13.9996 4.44327 13.9778C4.18238 13.9565 4.0394 13.9172 3.93447 13.8638C3.69926 13.7439 3.50804 13.5527 3.3882 13.3175C3.33473 13.2125 3.29545 13.0696 3.27414 12.8087C3.25234 12.5419 3.25195 12.1983 3.25195 11.7V4.3C3.25195 3.8017 3.25234 3.45805 3.27414 3.19132C3.29545 2.93042 3.33473 2.78745 3.3882 2.68251C3.50804 2.44731 3.69926 2.25608 3.93447 2.13624ZM12.0187 5.21622L9.40713 2.68192V3.47622C9.40713 3.8765 9.40751 4.14665 9.42454 4.35502C9.44109 4.55755 9.47082 4.6573 9.50522 4.72481C9.59151 4.89415 9.72919 5.03184 9.89853 5.11812C9.96604 5.15252 10.0658 5.18226 10.2683 5.1988C10.4767 5.21583 10.7468 5.21622 11.1471 5.21622H12.0187Z" fill="white"/>
</svg>
