<svg width="16" height="16" viewBox="0 0 16 16" fill="none" xmlns="http://www.w3.org/2000/svg">
<path d="M8.35938 1.00493C8.24828 0.999871 8.1295 0.999941 7.99791 1.00002L5.74401 1.00004C5.28107 1.00003 4.90246 1.00003 4.59476 1.02562C4.27627 1.05212 3.98862 1.10863 3.71999 1.248C3.29956 1.46611 2.95775 1.81414 2.74353 2.24221C2.60666 2.51573 2.55115 2.80861 2.52513 3.13289C2.49999 3.44618 2.49999 3.83167 2.5 4.30303V11.697C2.49999 12.1684 2.49999 12.5539 2.52513 12.8672C2.55115 13.1915 2.60666 13.4843 2.74353 13.7579C2.95775 14.1859 3.29956 14.534 3.71999 14.7521C3.98862 14.8914 4.27627 14.948 4.59476 14.9745C4.90246 15.0001 5.28106 15 5.744 15H8.64588C7.9333 14.2039 7.5 13.1526 7.5 12C7.5 9.51472 9.51472 7.5 12 7.5C12.5259 7.5 13.0308 7.59023 13.5 7.75605L13.5 6.60215C13.5001 6.46466 13.5001 6.34087 13.4948 6.2252H11.0789C10.7043 6.2252 10.3931 6.22521 10.1391 6.20446C9.87477 6.18286 9.62877 6.1363 9.39679 6.01811C9.03929 5.83595 8.74862 5.54529 8.56646 5.18778C8.44827 4.9558 8.40171 4.7098 8.38011 4.44543C8.35936 4.1915 8.35937 3.88029 8.35938 3.50564V1.00493Z" fill="white"/>
<path d="M9.35938 3.48519V1.33855C9.51695 1.45173 9.6592 1.59673 9.83309 1.77399L12.7398 4.73359C12.9173 4.91405 13.0618 5.06104 13.1739 5.2252H11.0994C10.6991 5.2252 10.4289 5.22481 10.2206 5.20778C10.018 5.19123 9.91829 5.1615 9.85078 5.1271C9.68144 5.04081 9.54376 4.90313 9.45747 4.73379C9.42307 4.66628 9.39334 4.56653 9.37679 4.364C9.35976 4.15563 9.35938 3.88548 9.35938 3.48519Z" fill="white"/>
<path fill-rule="evenodd" clip-rule="evenodd" d="M12 15.75C14.0711 15.75 15.75 14.0711 15.75 12C15.75 9.92893 14.0711 8.25 12 8.25C9.92893 8.25 8.25 9.92893 8.25 12C8.25 14.0711 9.92893 15.75 12 15.75ZM14.3698 11.3223C14.4664 11.1548 14.4091 10.9408 14.2417 10.8441C14.0743 10.7475 13.8602 10.8048 13.7636 10.9723C13.6227 11.2162 13.4333 11.4275 13.2078 11.5936C13.1472 11.6383 13.0839 11.6797 13.0182 11.7176C12.7086 11.8963 12.3575 11.9904 12 11.9904C11.6426 11.9904 11.2914 11.8963 10.9818 11.7176C10.9162 11.6797 10.8529 11.6383 10.7922 11.5936C10.5668 11.4275 10.3773 11.2162 10.2365 10.9723C10.1398 10.8048 9.92578 10.7475 9.75838 10.8441C9.59098 10.9408 9.53362 11.1549 9.63027 11.3223C9.75165 11.5325 9.89992 11.7247 10.0706 11.8944L9.53118 12.4339C9.3945 12.5705 9.3945 12.7921 9.53118 12.9288C9.66787 13.0655 9.88947 13.0655 10.0262 12.9288L10.6314 12.3236C10.9457 12.505 11.2924 12.6218 11.65 12.668V13.3632C11.65 13.5565 11.8067 13.7132 12 13.7132C12.1933 13.7132 12.35 13.5565 12.35 13.3632V12.668C12.7077 12.6218 13.0539 12.5053 13.3682 12.3238L13.9739 12.9288C14.1106 13.0655 14.3322 13.0655 14.4689 12.9288C14.6056 12.7921 14.6056 12.5705 14.4689 12.4339L13.9295 11.8944C14.1001 11.7247 14.2484 11.5325 14.3698 11.3223Z" fill="white"/>
</svg>
