<svg width="16" height="16" viewBox="0 0 16 16" fill="none" xmlns="http://www.w3.org/2000/svg">
<path d="M5.32991 10.9733C5.23191 10.9733 5.17241 10.9694 5.07791 10.9617V10.0631C5.16891 10.0515 5.23191 10.0515 5.32641 10.0515C5.70441 10.0515 5.80591 10.1981 5.80591 10.5066C5.80591 10.819 5.68691 10.9733 5.32991 10.9733Z" fill="white"/>
<path fill-rule="evenodd" clip-rule="evenodd" d="M8.35938 1.00493C8.24828 0.999871 8.1295 0.999941 7.99791 1.00002L5.74401 1.00004C5.28107 1.00003 4.90246 1.00003 4.59476 1.02562C4.27627 1.05212 3.98862 1.10863 3.71999 1.248C3.29956 1.46611 2.95775 1.81414 2.74353 2.24221C2.60666 2.51573 2.55115 2.80861 2.52513 3.13289C2.49999 3.44618 2.49999 3.83167 2.5 4.30303V11.697C2.49999 12.1684 2.49999 12.5539 2.52513 12.8672C2.55115 13.1915 2.60666 13.4843 2.74353 13.7579C2.95775 14.1859 3.29956 14.534 3.71999 14.7521C3.98862 14.8914 4.27627 14.948 4.59476 14.9745C4.90246 15.0001 5.28106 15 5.744 15H10.256C10.7189 15 11.0975 15.0001 11.4052 14.9745C11.7237 14.948 12.0113 14.8914 12.28 14.7521C12.7004 14.534 13.0422 14.1859 13.2564 13.7579C13.3933 13.4843 13.4488 13.1915 13.4748 12.8672C13.5 12.5539 13.5 12.1684 13.5 11.6971L13.5 6.60215C13.5001 6.46466 13.5001 6.34087 13.4948 6.2252H11.0789C10.7043 6.2252 10.3931 6.22521 10.1391 6.20446C9.87477 6.18286 9.62877 6.1363 9.39679 6.01811C9.03929 5.83595 8.74862 5.54529 8.56646 5.18778C8.44827 4.9558 8.40171 4.7098 8.38011 4.44543C8.35936 4.1915 8.35937 3.88029 8.35938 3.50564V1.00493ZM10.5787 10.7264V11.2355H11.0232V11.7061C10.9392 11.7292 10.8342 11.7562 10.6767 11.7562C10.1972 11.7562 9.98017 11.5171 9.98017 10.8884C9.98017 10.2868 10.1832 10.0438 10.7257 10.0438C10.9812 10.0438 11.1912 10.1132 11.3592 10.2251V9.61956C11.2472 9.56557 11.0302 9.5 10.6872 9.5C9.75617 9.5 9.38867 9.95124 9.38867 10.9231C9.38867 11.8835 9.77717 12.3 10.6312 12.3C11.0442 12.3 11.3697 12.1843 11.5237 12.0956V10.7264H10.5787ZM6.80273 12.2498V9.55009H7.42223L8.23073 10.9617C8.28293 11.0548 8.32807 11.1518 8.37116 11.2444C8.38874 11.2822 8.40599 11.3193 8.42323 11.3551C8.41273 11.2201 8.40573 11.0697 8.40573 10.9192V9.55009H8.96573V12.2498H8.36723L7.55173 10.8228C7.49878 10.7339 7.44764 10.623 7.39832 10.516C7.37919 10.4745 7.36032 10.4335 7.34173 10.3947L7.34634 10.4792C7.35258 10.591 7.35923 10.71 7.35923 10.8267V12.2498H6.80273ZM4.50391 9.55786V12.2499H5.07791V11.4824C5.16891 11.4901 5.23891 11.494 5.32991 11.494C6.07191 11.494 6.39741 11.1738 6.39741 10.4758C6.39741 9.78927 6.11041 9.53087 5.33691 9.53087C5.02357 9.53087 4.85566 9.53961 4.61715 9.55202C4.58125 9.55389 4.54375 9.55585 4.50391 9.55786Z" fill="white"/>
<path d="M9.35938 3.48519V1.33855C9.51695 1.45173 9.6592 1.59673 9.83309 1.77399L12.7398 4.73359C12.9173 4.91405 13.0618 5.06104 13.1739 5.2252H11.0994C10.6991 5.2252 10.4289 5.22481 10.2206 5.20778C10.018 5.19123 9.91829 5.1615 9.85078 5.1271C9.68144 5.04081 9.54376 4.90313 9.45747 4.73379C9.42307 4.66628 9.39334 4.56653 9.37679 4.364C9.35976 4.15563 9.35938 3.88548 9.35938 3.48519Z" fill="white"/>
</svg>
