<svg width="16" height="16" viewBox="0 0 16 16" fill="none" xmlns="http://www.w3.org/2000/svg">
<path fill-rule="evenodd" clip-rule="evenodd" d="M12.3153 10.8614C12.4321 10.9564 12.4998 11.0995 12.4998 11.2501C12.4997 11.4006 12.432 11.5429 12.3153 11.6378L8.31525 14.8878C8.16555 15.0094 7.95915 15.0342 7.78498 14.9513C7.61096 14.8684 7.49994 14.6928 7.49982 14.5001V9.37902L9.03205 8.19347L12.3153 10.8614ZM8.49982 13.4493L11.2069 11.2501L8.49982 9.04992V13.4493Z" fill="white"/>
<path fill-rule="evenodd" clip-rule="evenodd" d="M7.78498 1.04796C7.95907 0.965128 8.16558 0.989933 8.31525 1.11144L11.5428 3.73449L13.6502 2.1046C13.8686 1.93563 14.1834 1.9751 14.3524 2.19347C14.5213 2.41187 14.4809 2.72664 14.2625 2.89562L1.80549 12.5333C1.58709 12.7022 1.27326 12.6618 1.10432 12.4435C0.935555 12.2251 0.975841 11.9112 1.19416 11.7423L6.63264 7.53332L3.68439 5.13781C3.47025 4.96364 3.43805 4.64894 3.61213 4.43468C3.78622 4.22042 4.10094 4.18745 4.31525 4.36144L7.44514 6.90441L7.49982 6.86242V1.50011C7.49982 1.30723 7.61082 1.13086 7.78498 1.04796ZM8.49982 6.08898L10.7303 4.36242L8.49982 2.54992V6.08898Z" fill="white"/>
</svg>
