<svg width="16" height="16" viewBox="0 0 16 16" fill="none" xmlns="http://www.w3.org/2000/svg">
<path fill-rule="evenodd" clip-rule="evenodd" d="M7.78513 1.04854C7.9593 0.965639 8.16561 0.990315 8.31531 1.11195L12.3153 4.36195C12.4322 4.45689 12.5 4.59944 12.5 4.75001C12.5 4.90057 12.4322 5.04312 12.3153 5.13806L8.79292 8.00001L12.3153 10.8619C12.4322 10.9569 12.5 11.0994 12.5 11.25C12.5 11.4006 12.4322 11.5431 12.3153 11.6381L8.31531 14.8881C8.16561 15.0097 7.9593 15.0344 7.78513 14.9515C7.61097 14.8686 7.50002 14.6929 7.50002 14.5V9.05049L4.31531 11.6381C4.10099 11.8122 3.78609 11.7796 3.61196 11.5653C3.43783 11.351 3.4704 11.0361 3.68472 10.8619L7.20711 8.00001L3.68472 5.13806C3.4704 4.96393 3.43783 4.64903 3.61196 4.43471C3.78609 4.22039 4.10099 4.18781 4.31531 4.36195L7.50002 6.94952V1.50001C7.50002 1.30712 7.61097 1.13143 7.78513 1.04854ZM8.50002 9.05049L11.2071 11.25L8.50002 13.4495V9.05049ZM8.50002 6.94952V2.55049L11.2071 4.75001L8.50002 6.94952Z" fill="white"/>
</svg>
