<svg width="16" height="16" viewBox="0 0 16 16" fill="none" xmlns="http://www.w3.org/2000/svg">
<path fill-rule="evenodd" clip-rule="evenodd" d="M8 15C11.866 15 15 11.866 15 8C15 4.13401 11.866 1 8 1C4.13401 1 1 4.13401 1 8C1 11.866 4.13401 15 8 15ZM8.59749 2.29749C8.73417 2.1608 8.73417 1.9392 8.59749 1.80251C8.4608 1.66583 8.2392 1.66583 8.10251 1.80251L1.80251 8.10251C1.66583 8.2392 1.66583 8.4608 1.80251 8.59749C1.9392 8.73417 2.1608 8.73417 2.29749 8.59749L8.59749 2.29749ZM10.8212 3.12123C11.0263 2.91621 11.0263 2.58379 10.8212 2.37877C10.6162 2.17374 10.2838 2.17374 10.0788 2.37877L2.37877 10.0788C2.17374 10.2838 2.17374 10.6162 2.37877 10.8212C2.58379 11.0263 2.91621 11.0263 3.12123 10.8212L10.8212 3.12123ZM13.6212 5.92123C13.8263 5.71621 13.8263 5.38379 13.6212 5.17877C13.4162 4.97374 13.0838 4.97374 12.8788 5.17877L5.17877 12.8788C4.97374 13.0838 4.97374 13.4162 5.17877 13.6212C5.38379 13.8263 5.71621 13.8263 5.92123 13.6212L13.6212 5.92123ZM14.1975 7.40251C14.3342 7.5392 14.3342 7.7608 14.1975 7.89749L7.89749 14.1975C7.7608 14.3342 7.5392 14.3342 7.40251 14.1975C7.26583 14.0608 7.26583 13.8392 7.40251 13.7025L13.7025 7.40251C13.8392 7.26583 14.0608 7.26583 14.1975 7.40251ZM12.5712 3.42877C12.7763 3.63379 12.7763 3.96621 12.5712 4.17123L4.17123 12.5712C3.96621 12.7763 3.63379 12.7763 3.42877 12.5712C3.22374 12.3662 3.22374 12.0338 3.42877 11.8288L11.8288 3.42877C12.0338 3.22374 12.3662 3.22374 12.5712 3.42877ZM13.4975 11.0475C13.6342 10.9108 13.6342 10.6892 13.4975 10.5525C13.3608 10.4158 13.1392 10.4158 13.0025 10.5525L10.5525 13.0025C10.4158 13.1392 10.4158 13.3608 10.5525 13.4975C10.6892 13.6342 10.9108 13.6342 11.0475 13.4975L13.4975 11.0475ZM5.44749 2.50251C5.58417 2.6392 5.58417 2.8608 5.44749 2.99749L2.99749 5.44749C2.8608 5.58417 2.6392 5.58417 2.50251 5.44749C2.36583 5.3108 2.36583 5.0892 2.50251 4.95251L4.95251 2.50251C5.0892 2.36583 5.3108 2.36583 5.44749 2.50251Z" fill="white"/>
</svg>
