<svg width="16" height="16" viewBox="0 0 16 16" fill="none" xmlns="http://www.w3.org/2000/svg">
<path fill-rule="evenodd" clip-rule="evenodd" d="M11.5 3.5H3.52C2.63792 3.5 2.19688 3.5 1.85996 3.67166C1.56361 3.82267 1.32267 4.06361 1.17166 4.35996C1 4.69688 1 5.13792 1 6.02V9.98C1 10.8621 1 11.3031 1.17166 11.64C1.32267 11.9364 1.56361 12.1773 1.85996 12.3283C2.19688 12.5 2.63792 12.5 3.52 12.5H11.5C11.5001 12.0221 11.8918 11.6347 12.375 11.6347C12.8558 11.6347 13.2461 12.0183 13.25 12.4929C13.6543 12.4795 13.9195 12.4407 14.14 12.3283C14.4364 12.1773 14.6773 11.9364 14.8283 11.64C15 11.3031 15 10.8621 15 9.98V6.02C15 5.13792 15 4.69688 14.8283 4.35996C14.6773 4.06361 14.4364 3.82267 14.14 3.67166C13.9195 3.55929 13.6543 3.52047 13.25 3.50707C13.2461 3.98175 12.8559 4.36538 12.375 4.36538C11.8918 4.36538 11.5 3.97794 11.5 3.5ZM3.625 6.46156C3.34886 6.46156 3.125 6.68542 3.125 6.96156C3.125 7.2377 3.34886 7.46156 3.625 7.46156H8.525C8.80114 7.46156 9.025 7.2377 9.025 6.96156C9.025 6.68542 8.80114 6.46156 8.525 6.46156H3.625ZM3.625 8.53858C3.34886 8.53858 3.125 8.76244 3.125 9.03858C3.125 9.31472 3.34886 9.53858 3.625 9.53858H7.125C7.40114 9.53858 7.625 9.31472 7.625 9.03858C7.625 8.76244 7.40114 8.53858 7.125 8.53858H3.625ZM13.25 5.7499C13.25 6.22784 12.8582 6.61529 12.375 6.61529C11.8918 6.61529 11.5 6.22784 11.5 5.7499C11.5 5.27196 11.8918 4.88452 12.375 4.88452C12.8582 4.88452 13.25 5.27196 13.25 5.7499ZM12.375 8.86519C12.8582 8.86519 13.25 8.47775 13.25 7.99981C13.25 7.52187 12.8582 7.13442 12.375 7.13442C11.8918 7.13442 11.5 7.52187 11.5 7.99981C11.5 8.47775 11.8918 8.86519 12.375 8.86519ZM13.25 10.2502C13.25 10.7281 12.8582 11.1156 12.375 11.1156C11.8918 11.1156 11.5 10.7281 11.5 10.2502C11.5 9.77225 11.8918 9.38481 12.375 9.38481C12.8582 9.38481 13.25 9.77225 13.25 10.2502Z" fill="white"/>
</svg>
