<svg width="16" height="16" viewBox="0 0 16 16" fill="none" xmlns="http://www.w3.org/2000/svg">
<path fill-rule="evenodd" clip-rule="evenodd" d="M3.16054 3.00049C2.88313 3.00048 2.64525 3.00047 2.44965 3.01646C2.24364 3.03329 2.04085 3.07031 1.84632 3.16943C1.55466 3.31803 1.31754 3.55515 1.16894 3.8468C1.06982 4.04134 1.0328 4.24413 1.01597 4.45014C0.999985 4.64575 0.999992 4.88359 1 5.16101V10.8394C0.999992 11.1168 0.999985 11.3547 1.01597 11.5503C1.0328 11.7563 1.06982 11.9591 1.16894 12.1537C1.31754 12.4453 1.55466 12.6824 1.84632 12.831C2.04085 12.9302 2.24364 12.9672 2.44965 12.984C2.64525 13 2.88308 13 3.16049 13H12.8359C13.1133 13 13.3512 13 13.5468 12.984C13.7528 12.9672 13.9556 12.9302 14.1501 12.831C14.4418 12.6824 14.6789 12.4453 14.8275 12.1537C14.9266 11.9591 14.9636 11.7563 14.9805 11.5503C14.9964 11.3547 14.9964 11.1169 14.9964 10.8395V5.16102C14.9964 4.88362 14.9964 4.64574 14.9805 4.45014C14.9636 4.24413 14.9266 4.04134 14.8275 3.8468C14.6789 3.55515 14.4418 3.31803 14.1501 3.16943C13.9556 3.07031 13.7528 3.03329 13.5468 3.01646C13.3512 3.00047 13.1133 3.00048 12.8359 3.00049H3.16054ZM2.30031 4.06044C2.33038 4.04511 2.38691 4.02491 2.53108 4.01313C2.68109 4.00088 2.87772 4.00049 3.18 4.00049H12.8164C13.1187 4.00049 13.3153 4.00088 13.4653 4.01313C13.6095 4.02491 13.666 4.04511 13.6961 4.06044C13.7996 4.11317 13.8837 4.19731 13.9365 4.30079C13.9518 4.33086 13.972 4.3874 13.9838 4.53157C13.996 4.68157 13.9964 4.87821 13.9964 5.18049V10.82C13.9964 11.1222 13.996 11.3189 13.9838 11.4689C13.972 11.6131 13.9518 11.6696 13.9365 11.6997C13.8837 11.8032 13.7996 11.8873 13.6961 11.94C13.666 11.9553 13.6095 11.9755 13.4653 11.9873C13.3153 11.9996 13.1187 12 12.8164 12H3.18C2.87772 12 2.68109 11.9996 2.53108 11.9873C2.38691 11.9755 2.33038 11.9553 2.30031 11.94C2.19682 11.8873 2.11268 11.8032 2.05995 11.6997C2.04463 11.6696 2.02443 11.6131 2.01265 11.4689C2.00039 11.3189 2 11.1222 2 10.82V5.18049C2 4.87821 2.00039 4.68157 2.01265 4.53157C2.02443 4.3874 2.04463 4.33086 2.05995 4.30079C2.11268 4.19731 2.19682 4.11317 2.30031 4.06044ZM3.60742 6.42022C3.33128 6.42022 3.10742 6.64408 3.10742 6.92022C3.10742 7.19636 3.33128 7.42022 3.60742 7.42022H8.52499C8.80113 7.42022 9.02499 7.19636 9.02499 6.92022C9.02499 6.64408 8.80113 6.42022 8.52499 6.42022H3.60742ZM3.10742 9.08052C3.10742 8.80437 3.33128 8.58052 3.60742 8.58052H7.11997C7.39611 8.58052 7.61997 8.80437 7.61997 9.08052C7.61997 9.35666 7.39611 9.58052 7.11997 9.58052H3.60742C3.33128 9.58052 3.10742 9.35666 3.10742 9.08052ZM11.6862 6.55987C12.1712 6.55987 12.5644 6.15716 12.5644 5.66039C12.5644 5.16362 12.1712 4.7609 11.6862 4.7609C11.2013 4.7609 10.8081 5.16362 10.8081 5.66039C10.8081 6.15716 11.2013 6.55987 11.6862 6.55987ZM11.6862 8.90092C12.1712 8.90092 12.5644 8.49821 12.5644 8.00144C12.5644 7.50467 12.1712 7.10196 11.6862 7.10196C11.2013 7.10196 10.8081 7.50467 10.8081 8.00144C10.8081 8.49821 11.2013 8.90092 11.6862 8.90092ZM12.5644 10.3405C12.5644 10.8373 12.1712 11.24 11.6862 11.24C11.2013 11.24 10.8081 10.8373 10.8081 10.3405C10.8081 9.84377 11.2013 9.44105 11.6862 9.44105C12.1712 9.44105 12.5644 9.84377 12.5644 10.3405Z" fill="white"/>
</svg>
