<svg width="16" height="16" viewBox="0 0 16 16" fill="none" xmlns="http://www.w3.org/2000/svg">
<path fill-rule="evenodd" clip-rule="evenodd" d="M4.60021 1C3.44043 1 2.50023 1.94017 2.50021 3.09996L2.5 13.4336L2.52229 13.4185C2.52229 13.4211 2.52229 13.4237 2.52229 13.4263V13.4328C2.52229 13.4477 2.52229 13.4602 2.52246 13.4716C2.53466 14.31 3.21135 14.9867 4.04973 14.9989C4.06111 14.999 4.07364 14.999 4.08851 14.999H12.8003C13.0764 14.999 13.3003 14.7752 13.3003 14.499C13.3003 14.2229 13.0764 13.999 12.8003 13.999H4.09175L4.06429 13.999C3.7668 13.9946 3.52668 13.7545 3.52235 13.457L3.52229 13.4296L3.52235 13.4023C3.52585 13.161 3.68447 12.9573 3.90326 12.8867H11.998C12.8264 12.8867 13.498 12.2152 13.498 11.3867V2.5C13.498 1.67157 12.8264 1 11.998 1H4.60021Z" fill="white"/>
</svg>
