<svg width="16" height="16" viewBox="0 0 16 16" fill="none" xmlns="http://www.w3.org/2000/svg">
<path fill-rule="evenodd" clip-rule="evenodd" d="M7.4568 1.5H8.28968C9.05503 1.5 9.66003 1.49999 10.1473 1.53981C10.6452 1.58048 11.064 1.66519 11.4458 1.85968C12.0667 2.17606 12.5715 2.6809 12.8879 3.30183C13.0824 3.68354 13.1671 4.10242 13.2078 4.60025C13.2476 5.08756 13.2476 5.69254 13.2476 6.4579V10.7174C13.2476 11.1106 13.2476 11.4394 13.225 11.6931C13.2032 11.9371 13.1544 12.2278 12.9648 12.4526C12.7761 12.6762 12.5145 12.8208 12.2311 12.8647C12.3247 12.6825 12.3566 12.4841 12.3734 12.3122C12.3979 12.0622 12.3979 11.7388 12.3979 11.3544V5.60774C12.3979 5.14346 12.3979 4.7637 12.3702 4.45511C12.3416 4.13568 12.2806 3.84718 12.1302 3.57775C11.8947 3.15609 11.519 2.81326 11.0569 2.59841C10.7616 2.46114 10.4454 2.40547 10.0953 2.37937C9.75711 2.35415 9.34094 2.35416 8.83208 2.35416H6.13967C5.6308 2.35416 5.21464 2.35415 4.87642 2.37937C4.79041 2.38578 4.70645 2.39398 4.62434 2.40473C4.82992 2.12912 5.09703 1.90287 5.4064 1.74524C5.67581 1.60797 5.96503 1.55187 6.28777 1.5255C6.60003 1.49999 6.98466 1.49999 7.4568 1.5ZM6.05301 2.89029C5.58165 2.89028 5.19615 2.89028 4.88285 2.91587C4.55857 2.94237 4.26569 2.99888 3.99217 3.13825C3.5641 3.35636 3.21607 3.70439 2.99796 4.13246C2.8586 4.40598 2.80208 4.69886 2.77559 5.02314C2.74999 5.33643 2.75 5.72191 2.75 6.19325V12.4192C2.74999 12.7727 2.74998 13.0736 2.77133 13.3088C2.79229 13.5397 2.83999 13.8151 3.01855 14.0382C3.25208 14.33 3.60606 14.4993 3.97982 14.4978C4.26559 14.4967 4.50991 14.3609 4.70272 14.2323C4.89921 14.1012 5.13341 13.9122 5.40849 13.6903L6.07124 13.1557C6.41732 12.8765 6.65403 12.686 6.85007 12.5513C7.04072 12.4204 7.16021 12.3659 7.26218 12.3403C7.49256 12.2826 7.73476 12.293 7.9593 12.3704C8.05843 12.4046 8.17308 12.4694 8.35273 12.6173C8.5373 12.7691 8.75794 12.9805 9.08022 13.29L9.0984 13.3075C9.38306 13.5809 9.6221 13.8105 9.82237 13.9713C10.0142 14.1254 10.2637 14.2971 10.5659 14.3166C10.9537 14.3416 11.3304 14.1811 11.581 13.884C11.776 13.6529 11.8252 13.3552 11.847 13.1106C11.8697 12.8558 11.8697 12.526 11.8697 12.1337V6.19325C11.8697 5.72191 11.8697 5.33643 11.8441 5.02314C11.8176 4.69886 11.7611 4.40598 11.6218 4.13246C11.4036 3.70439 11.0556 3.35636 10.6275 3.13825C10.354 2.99888 10.0611 2.94237 9.73686 2.91587C9.42357 2.89028 9.03807 2.89028 8.56671 2.89029H6.05301ZM4.46886 4.0738C4.56969 4.02243 4.70901 3.98358 4.96836 3.96239C5.23384 3.9407 5.57629 3.94029 6.075 3.94029H8.54471C9.04342 3.94029 9.38588 3.9407 9.65136 3.96239C9.91071 3.98358 10.05 4.02243 10.1509 4.0738C10.3813 4.19125 10.5688 4.37865 10.6862 4.60915C10.7376 4.70998 10.7764 4.84929 10.7976 5.10864C10.8193 5.37412 10.8197 5.71658 10.8197 6.21529V12.1084C10.8197 12.5327 10.8192 12.815 10.8012 13.0174C10.7895 13.1482 10.7729 13.2031 10.7679 13.2184C10.7363 13.2498 10.6938 13.2679 10.6493 13.269C10.6347 13.262 10.5832 13.2357 10.4799 13.1527C10.3205 13.0246 10.1152 12.8282 9.80752 12.5327L9.79284 12.5186C9.48886 12.2267 9.23928 11.987 9.0199 11.8065C8.79207 11.619 8.56646 11.4691 8.30152 11.3778C7.88452 11.234 7.43472 11.2146 7.00687 11.3218C6.73531 11.3899 6.49814 11.5193 6.2556 11.6858C6.02224 11.8461 5.75417 12.0624 5.42786 12.3256L4.76859 12.8575C4.46882 13.0993 4.27196 13.2574 4.12003 13.3588C4.02347 13.4232 3.97628 13.4424 3.96282 13.4474C3.91851 13.4443 3.877 13.4245 3.84677 13.3919C3.84224 13.3783 3.82753 13.3295 3.81703 13.2139C3.80052 13.032 3.8 12.7795 3.8 12.3944V6.21529C3.8 5.71658 3.80041 5.37412 3.8221 5.10864C3.84329 4.84929 3.88214 4.70998 3.93352 4.60915C4.05096 4.37865 4.23836 4.19125 4.46886 4.0738Z" fill="white"/>
</svg>
