<svg width="16" height="16" viewBox="0 0 16 16" fill="none" xmlns="http://www.w3.org/2000/svg">
<path fill-rule="evenodd" clip-rule="evenodd" d="M9.72066 1.5C10.1926 1.49999 10.5774 1.49991 10.8896 1.52539C11.2123 1.55176 11.502 1.60785 11.7714 1.74512C12.1731 1.94978 12.5017 2.2712 12.7187 2.66504L13.7382 1.64648C13.9335 1.45124 14.25 1.45123 14.4453 1.64648C14.6405 1.84174 14.6405 2.15826 14.4453 2.35352L2.56539 14.2334C2.3701 14.4282 2.05347 14.4285 1.85836 14.2334C1.6631 14.0381 1.6631 13.7207 1.85836 13.5254L3.00094 12.3818C3.00083 12.3246 2.99996 12.2656 2.99996 12.2051V4.7793C2.99996 4.3074 2.99988 3.92253 3.02535 3.61035C3.05172 3.28763 3.10782 2.99791 3.24508 2.72852C3.46079 2.30515 3.80511 1.96083 4.22848 1.74512C4.49774 1.60794 4.78682 1.55177 5.10934 1.52539C5.4216 1.49988 5.80711 1.49999 6.27926 1.5H9.72066ZM6.29977 2.5C5.80162 2.5 5.45806 2.50068 5.19137 2.52246C4.93047 2.54378 4.78752 2.58325 4.68258 2.63672C4.44741 2.75656 4.25553 2.94744 4.1357 3.18262C4.08231 3.28753 4.04372 3.43073 4.02242 3.69141C4.00064 3.9581 3.99996 4.30165 3.99996 4.7998V11.3838L11.9433 3.44043C11.922 3.32742 11.8963 3.24756 11.8632 3.18262C11.7434 2.9475 11.5525 2.75655 11.3173 2.63672C11.2124 2.58325 11.0695 2.54378 10.8086 2.52246C10.5419 2.50067 10.1983 2.5 9.70016 2.5H6.29977Z" fill="white"/>
<path d="M13 12.2051C13 12.556 12.9996 12.8535 12.9785 13.0859C12.9577 13.3146 12.9105 13.5815 12.7382 13.7979C12.511 14.0832 12.1665 14.2504 11.8017 14.251C11.5252 14.2514 11.2867 14.1219 11.0947 13.9961C10.8995 13.8682 10.6665 13.683 10.3916 13.4648L9.42965 12.7021C9.1132 12.451 8.89663 12.2788 8.71676 12.1562C8.54215 12.0373 8.42953 11.9841 8.33102 11.957C8.11438 11.8975 7.88554 11.8976 7.66891 11.957C7.5704 11.9841 7.45775 12.0373 7.28317 12.1562C7.1033 12.2788 6.88673 12.451 6.57027 12.7021L5.60836 13.4648C5.33346 13.683 5.1004 13.8682 4.90524 13.9961C4.71326 14.1219 4.47468 14.2514 4.1982 14.251C4.12357 14.2509 4.04962 14.2431 3.9775 14.2295L7.09957 11.1074C7.19706 11.061 7.29749 11.0223 7.40328 10.9932C7.79374 10.8858 8.20619 10.8858 8.59664 10.9932C8.84222 11.0607 9.05718 11.1788 9.27926 11.3301C9.49285 11.4756 9.73842 11.6702 10.0371 11.9072L10.9941 12.667C11.2928 12.904 11.4901 13.0602 11.6425 13.1602C11.75 13.2306 11.7989 13.2475 11.8095 13.251C11.8637 13.2484 11.9144 13.2234 11.9502 13.1826C11.954 13.1721 11.9717 13.123 11.9834 12.9951C11.9998 12.8136 12 12.5625 12 12.1816V6.20703L13 5.20703V12.2051Z" fill="white"/>
</svg>
