<svg width="16" height="16" viewBox="0 0 16 16" fill="none" xmlns="http://www.w3.org/2000/svg">
<path fill-rule="evenodd" clip-rule="evenodd" d="M9.46663 1.75H6.53337C6.1005 1.74999 5.74646 1.74999 5.45874 1.7755C5.16093 1.8019 4.89196 1.85822 4.64077 1.9971C4.24765 2.21445 3.92803 2.56128 3.72772 2.98786C3.59973 3.26043 3.54783 3.55229 3.5235 3.87545C3.49999 4.18764 3.5 4.57179 3.5 5.04149V12.1832C3.49999 12.5337 3.49998 12.8324 3.51953 13.0659C3.53874 13.2953 3.58247 13.5688 3.74577 13.7908C3.9595 14.0814 4.28361 14.2504 4.62622 14.25C4.88797 14.2497 5.1121 14.1159 5.28918 13.9889C5.46947 13.8595 5.68436 13.673 5.93661 13.454L6.69483 12.7958C6.98694 12.5422 7.18606 12.3698 7.35119 12.2468C7.5113 12.1275 7.61251 12.0758 7.70004 12.0495C7.89633 11.9906 8.10367 11.9906 8.29996 12.0495C8.38749 12.0758 8.4887 12.1275 8.64881 12.2468C8.81394 12.3698 9.01306 12.5422 9.30517 12.7958L10.0634 13.454C10.3156 13.673 10.5305 13.8595 10.7108 13.9889C10.8879 14.1159 11.112 14.2497 11.3738 14.25C11.7164 14.2504 12.0405 14.0814 12.2542 13.7908C12.4175 13.5688 12.4613 13.2953 12.4805 13.0659C12.5 12.8324 12.5 12.5338 12.5 12.1832V5.04152C12.5 4.5718 12.5 4.18765 12.4765 3.87545C12.4522 3.55229 12.4003 3.26043 12.2723 2.98786C12.072 2.56128 11.7524 2.21445 11.3592 1.9971C11.108 1.85822 10.8391 1.8019 10.5413 1.7755C10.2535 1.74999 9.8995 1.74999 9.46663 1.75ZM8.2328 4.5659C8.15979 4.33949 7.83946 4.33949 7.76645 4.5659L7.27722 6.08304C7.24458 6.18425 7.15038 6.25285 7.04404 6.25285H5.45694C5.22005 6.25285 5.12108 6.55561 5.31222 6.69553L6.5994 7.63783C6.68462 7.70022 6.72026 7.81019 6.68785 7.91071L6.19695 9.43304C6.12405 9.65908 6.3832 9.84621 6.57484 9.70592L7.8549 8.76883C7.94107 8.70575 8.05818 8.70575 8.14435 8.76883L9.4244 9.70592C9.61605 9.84621 9.8752 9.65908 9.8023 9.43304L9.3114 7.91071C9.27898 7.81019 9.31463 7.70022 9.39985 7.63783L10.687 6.69553C10.8782 6.55561 10.7792 6.25285 10.5423 6.25285H8.95521C8.84887 6.25285 8.75467 6.18425 8.72203 6.08304L8.2328 4.5659Z" fill="white"/>
</svg>
