<svg width="16" height="16" viewBox="0 0 16 16" fill="none" xmlns="http://www.w3.org/2000/svg">
<path fill-rule="evenodd" clip-rule="evenodd" d="M6.27893 1.5H9.72108C10.1932 1.49999 10.5778 1.49999 10.8901 1.5255C11.2129 1.55187 11.5021 1.60797 11.7715 1.74524C12.1948 1.96095 12.5391 2.30516 12.7548 2.72852C12.892 2.99793 12.9481 3.28715 12.9745 3.60989C13 3.92215 13 4.30677 13 4.77891V12.2051C13 12.5562 13 12.8536 12.9789 13.0861C12.9581 13.3147 12.911 13.5819 12.7387 13.7983C12.5115 14.0837 12.1668 14.2502 11.802 14.2508C11.5254 14.2512 11.2868 14.122 11.0948 13.9961C10.8996 13.8682 10.6666 13.6832 10.3916 13.465L9.42981 12.7017C9.11336 12.4505 8.89669 12.279 8.71682 12.1564C8.54217 12.0375 8.42995 11.9846 8.33142 11.9575C8.1145 11.8978 7.8855 11.8978 7.66858 11.9575C7.57005 11.9846 7.45784 12.0375 7.28318 12.1564C7.10331 12.279 6.88664 12.4505 6.57019 12.7017L5.60837 13.465C5.33342 13.6833 5.10041 13.8682 4.90522 13.9961C4.71319 14.122 4.47462 14.2512 4.19803 14.2508C3.83324 14.2502 3.48852 14.0837 3.26128 13.7983C3.08898 13.5819 3.04189 13.3147 3.0211 13.0861C2.99998 12.8536 2.99999 12.5561 3 12.2051L3 4.77893C3 4.30678 2.99999 3.92215 3.0255 3.60989C3.05187 3.28715 3.10797 2.99793 3.24524 2.72852C3.46095 2.30516 3.80516 1.96095 4.22852 1.74524C4.49793 1.60797 4.78715 1.55187 5.10989 1.5255C5.42215 1.49999 5.80678 1.49999 6.27893 1.5ZM5.19132 2.52218C4.93042 2.5435 4.78745 2.58277 4.68251 2.63624C4.44731 2.75608 4.25608 2.94731 4.13624 3.18251C4.08277 3.28745 4.0435 3.43042 4.02218 3.69132C4.00039 3.95805 4 4.3017 4 4.8V12.1812C4 12.5626 4.0005 12.814 4.017 12.9956C4.02863 13.1235 4.04556 13.1719 4.04943 13.1824C4.08522 13.2234 4.13617 13.248 4.19049 13.2506C4.2011 13.2471 4.24959 13.2302 4.35701 13.1598C4.5095 13.0598 4.7067 12.904 5.00543 12.6669L5.96281 11.9071C6.26148 11.67 6.50661 11.4755 6.72021 11.33C6.94241 11.1786 7.15773 11.0608 7.40345 10.9933C7.7939 10.8859 8.2061 10.8859 8.59655 10.9933C8.84228 11.0608 9.05759 11.1786 9.2798 11.33C9.49339 11.4755 9.7385 11.67 10.0372 11.907L10.9946 12.6669C11.2933 12.904 11.4905 13.0598 11.643 13.1598C11.7504 13.2302 11.7989 13.2471 11.8095 13.2506C11.8638 13.248 11.9148 13.2234 11.9506 13.1824C11.9544 13.1719 11.9714 13.1235 11.983 12.9956C11.9995 12.814 12 12.5626 12 12.1812V4.8C12 4.3017 11.9996 3.95805 11.9778 3.69132C11.9565 3.43042 11.9172 3.28745 11.8638 3.18251C11.7439 2.94731 11.5527 2.75608 11.3175 2.63624C11.2126 2.58277 11.0696 2.5435 10.8087 2.52218C10.5419 2.50039 10.1983 2.5 9.7 2.5H6.3C5.8017 2.5 5.45805 2.50039 5.19132 2.52218Z" fill="white"/>
</svg>
