<svg width="16" height="16" viewBox="0 0 16 16" fill="none" xmlns="http://www.w3.org/2000/svg">
<path fill-rule="evenodd" clip-rule="evenodd" d="M9.46663 2H6.53337C6.10049 1.99999 5.74646 1.99999 5.45874 2.0255C5.16093 2.0519 4.89196 2.10822 4.64077 2.2471C4.24765 2.46445 3.92803 2.81128 3.72772 3.23786C3.59973 3.51043 3.54783 3.80229 3.5235 4.12544C3.49999 4.43764 3.5 4.82178 3.5 5.29149V12.4332C3.49999 12.7643 3.49998 13.0491 3.51645 13.2764L12.4873 4.30563C12.4844 4.24307 12.4808 4.18303 12.4765 4.12544C12.4522 3.80229 12.4003 3.51043 12.2723 3.23786C12.072 2.81128 11.7524 2.46445 11.3592 2.2471C11.108 2.10822 10.8391 2.0519 10.5413 2.0255C10.2535 1.99999 9.89951 1.99999 9.46663 2ZM12.5 5.70711L3.95069 14.2564C4.14363 14.4132 4.38015 14.5003 4.62622 14.5C4.88797 14.4997 5.1121 14.3659 5.28918 14.2389C5.46947 14.1095 5.68436 13.923 5.93661 13.704L6.69483 13.0458C6.98695 12.7922 7.18606 12.6198 7.35119 12.4968C7.5113 12.3775 7.61251 12.3258 7.70004 12.2995C7.89633 12.2406 8.10367 12.2406 8.29996 12.2995C8.38749 12.3258 8.4887 12.3775 8.64881 12.4968C8.81394 12.6198 9.01306 12.7922 9.30517 13.0458L10.0634 13.704C10.3156 13.923 10.5305 14.1095 10.7108 14.2389C10.8879 14.3659 11.112 14.4997 11.3738 14.5C11.7164 14.5004 12.0405 14.3314 12.2542 14.0408C12.4175 13.8188 12.4613 13.5453 12.4805 13.3159C12.5 13.0824 12.5 12.7838 12.5 12.4332V5.70711Z" fill="white"/>
<path fill-rule="evenodd" clip-rule="evenodd" d="M14.4453 1.64645C14.6406 1.84171 14.6406 2.15829 14.4453 2.35355L2.56596 14.2329C2.37069 14.4282 2.05411 14.4282 1.85885 14.2329C1.66359 14.0377 1.66359 13.7211 1.85885 13.5258L13.7382 1.64645C13.9335 1.45118 14.2501 1.45118 14.4453 1.64645Z" fill="white"/>
</svg>
