<svg width="16" height="16" viewBox="0 0 16 16" fill="none" xmlns="http://www.w3.org/2000/svg">
<path fill-rule="evenodd" clip-rule="evenodd" d="M6.27892 1.5C5.80678 1.49999 5.42215 1.49999 5.10989 1.5255C4.78715 1.55187 4.49793 1.60797 4.22852 1.74524C3.80516 1.96095 3.46095 2.30516 3.24524 2.72852C3.10797 2.99793 3.05187 3.28715 3.0255 3.60989C2.99999 3.92215 2.99999 4.30675 3 4.77889V12.2051C2.99999 12.5561 2.99998 12.8537 3.0211 13.0861C3.03691 13.26 3.06792 13.4561 3.15763 13.6353L4.00523 12.7877C4.00022 12.6313 4 12.435 4 12.1812V4.8C4 4.3017 4.00039 3.95805 4.02218 3.69132C4.0435 3.43042 4.08277 3.28745 4.13624 3.18251C4.25608 2.94731 4.44731 2.75608 4.68251 2.63624C4.78745 2.58277 4.93042 2.5435 5.19132 2.52218C5.45805 2.50039 5.8017 2.5 6.3 2.5H9.7C10.1983 2.5 10.5419 2.50039 10.8087 2.52218C11.0696 2.5435 11.2126 2.58277 11.3175 2.63624C11.5527 2.75608 11.7439 2.94731 11.8638 3.18251C11.9172 3.28745 11.9565 3.43042 11.9778 3.69132C11.9995 3.95678 12 4.29843 12 4.79289L12.9869 3.80595C12.9837 3.73762 12.9796 3.67231 12.9745 3.60989C12.9481 3.28715 12.892 2.99793 12.7548 2.72852C12.5391 2.30516 12.1948 1.96095 11.7715 1.74524C11.5021 1.60797 11.2128 1.55187 10.8901 1.5255C10.5778 1.49999 10.1932 1.49999 9.72108 1.5H6.27892ZM13 5.20711L12 6.20711V12.1812C12 12.5626 11.9995 12.814 11.983 12.9956C11.9714 13.1235 11.9544 13.1719 11.9506 13.1824C11.9148 13.2234 11.8638 13.248 11.8095 13.2506C11.7989 13.2471 11.7504 13.2302 11.643 13.1598C11.4905 13.0598 11.2933 12.904 10.9946 12.6669L10.0372 11.907C9.7385 11.67 9.49338 11.4755 9.27979 11.33C9.05759 11.1786 8.84228 11.0608 8.59655 10.9933C8.2061 10.8859 7.7939 10.8859 7.40345 10.9933C7.29764 11.0224 7.19747 11.0608 7.09996 11.1071L3.97719 14.2299C4.0494 14.2436 4.1233 14.2507 4.19803 14.2508C4.47462 14.2512 4.71319 14.122 4.90522 13.9961C5.10041 13.8682 5.33342 13.6833 5.60837 13.465L6.57019 12.7017C6.88664 12.4505 7.10331 12.279 7.28318 12.1564C7.45783 12.0375 7.57005 11.9846 7.66858 11.9575C7.8855 11.8978 8.1145 11.8978 8.33142 11.9575C8.42995 11.9846 8.54217 12.0375 8.71682 12.1564C8.89669 12.279 9.11336 12.4505 9.42981 12.7017L10.3916 13.465C10.6666 13.6832 10.8996 13.8682 11.0948 13.9961C11.2868 14.122 11.5254 14.2512 11.802 14.2508C12.1668 14.2502 12.5115 14.0837 12.7387 13.7983C12.911 13.5819 12.9581 13.3147 12.9789 13.0861C13 12.8536 13 12.5562 13 12.2051V5.20711Z" fill="white"/>
<path fill-rule="evenodd" clip-rule="evenodd" d="M14.4453 1.64645C14.6406 1.84171 14.6406 2.15829 14.4453 2.35355L2.56596 14.2329C2.37069 14.4282 2.05411 14.4282 1.85885 14.2329C1.66359 14.0377 1.66359 13.7211 1.85885 13.5258L13.7382 1.64645C13.9335 1.45118 14.2501 1.45118 14.4453 1.64645Z" fill="white"/>
</svg>
