<svg width="16" height="16" viewBox="0 0 16 16" fill="none" xmlns="http://www.w3.org/2000/svg">
<path fill-rule="evenodd" clip-rule="evenodd" d="M6.53337 2H9.46663C9.89951 1.99999 10.2535 1.99999 10.5413 2.0255C10.8391 2.0519 11.108 2.10822 11.3592 2.2471C11.7524 2.46445 12.072 2.81128 12.2723 3.23786C12.4003 3.51043 12.4522 3.80229 12.4765 4.12544C12.5 4.43765 12.5 4.8218 12.5 5.29152V12.4332C12.5 12.7838 12.5 13.0824 12.4805 13.3159C12.4613 13.5453 12.4175 13.8188 12.2542 14.0408C12.0405 14.3314 11.7164 14.5004 11.3738 14.5C11.112 14.4997 10.8879 14.3659 10.7108 14.2389C10.5305 14.1095 10.3156 13.923 10.0634 13.704L9.30517 13.0458C9.01306 12.7922 8.81394 12.6198 8.64881 12.4968C8.4887 12.3775 8.38749 12.3258 8.29996 12.2995C8.10367 12.2406 7.89633 12.2406 7.70004 12.2995C7.61251 12.3258 7.5113 12.3775 7.35119 12.4968C7.18606 12.6198 6.98694 12.7922 6.69483 13.0458L5.93661 13.704C5.68436 13.923 5.46947 14.1095 5.28918 14.2389C5.1121 14.3659 4.88797 14.4997 4.62622 14.5C4.28361 14.5004 3.9595 14.3314 3.74577 14.0408C3.58247 13.8188 3.53874 13.5453 3.51953 13.3159C3.49998 13.0824 3.49999 12.7837 3.5 12.4332L3.5 5.29154C3.5 4.82181 3.49999 4.43765 3.5235 4.12544C3.54783 3.80229 3.59973 3.51043 3.72772 3.23786C3.92803 2.81128 4.24765 2.46445 4.64077 2.2471C4.89196 2.10822 5.16093 2.0519 5.45874 2.0255C5.74646 1.99999 6.10049 1.99999 6.53337 2Z" fill="white"/>
</svg>
