<svg width="16" height="16" viewBox="0 0 16 16" fill="none" xmlns="http://www.w3.org/2000/svg">
<path fill-rule="evenodd" clip-rule="evenodd" d="M3.3 2.75C2.99624 2.75 2.75 2.99624 2.75 3.3V5.23606H13.254V3.3C13.254 2.99624 13.0077 2.75 12.704 2.75H3.3ZM1.75 3.3C1.75 2.44396 2.44396 1.75 3.3 1.75H12.704C13.56 1.75 14.254 2.44396 14.254 3.3V5.38606C14.254 5.80334 13.9533 6.15039 13.5568 6.22236V12.004C13.5568 13.2466 12.5494 14.254 11.3068 14.254H4.69721C3.45457 14.254 2.44721 13.2466 2.44721 12.004V6.22236C2.05069 6.15039 1.75 5.80334 1.75 5.38606V3.3ZM3.44721 6.23606V12.004C3.44721 12.6943 4.00686 13.254 4.69721 13.254H11.3068C11.9971 13.254 12.5568 12.6943 12.5568 12.004V6.23606H3.44721ZM7.67627 8.52471C7.67627 8.24856 7.90013 8.02471 8.17627 8.02471H10.9651C11.2413 8.02471 11.4651 8.24856 11.4651 8.52471C11.4651 8.80085 11.2413 9.02471 10.9651 9.02471H8.17627C7.90013 9.02471 7.67627 8.80085 7.67627 8.52471ZM9.5708 10.1164C9.29466 10.1164 9.0708 10.3403 9.0708 10.6164C9.0708 10.8926 9.29466 11.1164 9.5708 11.1164H10.9652C11.2414 11.1164 11.4652 10.8926 11.4652 10.6164C11.4652 10.3403 11.2414 10.1164 10.9652 10.1164H9.5708Z" fill="white"/>
</svg>
