<svg width="16" height="16" viewBox="0 0 16 16" fill="none" xmlns="http://www.w3.org/2000/svg">
<path d="M6.25 1.2002C6.52603 1.20033 6.75 1.42413 6.75 1.7002C6.7499 1.97617 6.52597 2.20006 6.25 2.2002H3.9502V13.7998H6.25C6.5259 13.7999 6.74979 14.0239 6.75 14.2998C6.7499 14.5758 6.52597 14.7997 6.25 14.7998H3.7998C3.3306 14.7996 2.95029 14.4194 2.9502 13.9502V2.0498C2.95041 1.58067 3.33067 1.20041 3.7998 1.2002H6.25Z" fill="#FEFEFE"/>
<path d="M12.2002 1.2002C12.6693 1.20041 13.0496 1.58067 13.0498 2.0498V13.9502C13.0497 14.4194 12.6694 14.7996 12.2002 14.7998H9.75C9.47403 14.7997 9.2501 14.5758 9.25 14.2998C9.25021 14.0239 9.4741 13.7999 9.75 13.7998H12.0498V2.2002H9.75C9.47403 2.20006 9.2501 1.97617 9.25 1.7002C9.25 1.42413 9.47397 1.20033 9.75 1.2002H12.2002Z" fill="#FEFEFE"/>
</svg>
