<svg width="16" height="16" viewBox="0 0 16 16" fill="none" xmlns="http://www.w3.org/2000/svg">
<path fill-rule="evenodd" clip-rule="evenodd" d="M8.00206 1.69971C8.29201 1.69971 8.52706 1.93476 8.52706 2.22471V3.00963C8.52706 3.29958 8.29201 3.53463 8.00206 3.53463C7.71211 3.53463 7.47706 3.29958 7.47706 3.00963V2.22471C7.47706 1.93476 7.71211 1.69971 8.00206 1.69971ZM3.99829 3.25582C3.79327 3.05079 3.46086 3.05079 3.25583 3.25582C3.05081 3.46084 3.05081 3.79326 3.25583 3.99828L3.60583 4.34828C3.81086 4.55331 4.14327 4.55331 4.34829 4.34828C4.55332 4.14326 4.55332 3.81084 4.34829 3.60582L3.99829 3.25582ZM12.3982 11.6557C12.1932 11.4507 11.8608 11.4507 11.6557 11.6557C11.4507 11.8607 11.4507 12.1932 11.6557 12.3982L12.0057 12.7482C12.2108 12.9532 12.5432 12.9532 12.7482 12.7482C12.9532 12.5432 12.9532 12.2107 12.7482 12.0057L12.3982 11.6557ZM12.7483 3.25582C12.9533 3.46084 12.9533 3.79326 12.7483 3.99828L12.3983 4.34828C12.1933 4.55331 11.8609 4.55331 11.6558 4.34828C11.4508 4.14326 11.4508 3.81085 11.6558 3.60582L12.0058 3.25582C12.2109 3.05079 12.5433 3.05079 12.7483 3.25582ZM4.34815 12.3982C4.55317 12.1932 4.55317 11.8607 4.34815 11.6557C4.14312 11.4507 3.81071 11.4507 3.60568 11.6557L3.25569 12.0057C3.05066 12.2108 3.05066 12.5432 3.25569 12.7482C3.46071 12.9532 3.79313 12.9532 3.99815 12.7482L4.34815 12.3982ZM8.52706 12.9942C8.52706 12.7043 8.29201 12.4692 8.00207 12.4692C7.71212 12.4692 7.47706 12.7043 7.47706 12.9942L7.47706 13.7792C7.47706 14.0691 7.71211 14.3042 8.00206 14.3042C8.29201 14.3042 8.52706 14.0691 8.52706 13.7792L8.52706 12.9942ZM14.3042 8.00205C14.3042 8.292 14.0691 8.52705 13.7792 8.52705H12.9942C12.7043 8.52705 12.4692 8.292 12.4692 8.00205C12.4692 7.7121 12.7043 7.47705 12.9942 7.47705H13.7792C14.0691 7.47705 14.3042 7.7121 14.3042 8.00205ZM3.00963 8.52705C3.29958 8.52705 3.53463 8.292 3.53463 8.00205C3.53463 7.7121 3.29958 7.47705 3.00963 7.47705L2.22471 7.47705C1.93476 7.47705 1.69971 7.7121 1.69971 8.00205C1.69971 8.292 1.93476 8.52705 2.22471 8.52705L3.00963 8.52705Z" fill="white"/>
<path fill-rule="evenodd" clip-rule="evenodd" d="M7.99987 5.5C6.61915 5.5 5.49987 6.61929 5.49987 8C5.49987 9.38071 6.61915 10.5 7.99987 10.5C9.38058 10.5 10.4999 9.38071 10.4999 8C10.4999 6.61929 9.38058 5.5 7.99987 5.5ZM4.49987 8C4.49987 6.067 6.06687 4.5 7.99987 4.5C9.93286 4.5 11.4999 6.067 11.4999 8C11.4999 9.933 9.93286 11.5 7.99987 11.5C6.06687 11.5 4.49987 9.933 4.49987 8Z" fill="white"/>
</svg>
