<svg width="16" height="16" viewBox="0 0 16 16" fill="none" xmlns="http://www.w3.org/2000/svg">
<path fill-rule="evenodd" clip-rule="evenodd" d="M12 8.25C14.0711 8.25 15.75 9.92893 15.75 12C15.75 14.0711 14.0711 15.75 12 15.75C9.92893 15.75 8.25 14.0711 8.25 12C8.25 9.92893 9.92893 8.25 12 8.25ZM12.001 9.60547C11.8077 9.60547 11.6504 9.76178 11.6504 9.95508V11.6504H9.95508C9.76178 11.6504 9.60547 11.8077 9.60547 12.001C9.60571 12.1941 9.76193 12.3506 9.95508 12.3506H11.6504V14.0459C11.6504 14.2392 11.8077 14.3955 12.001 14.3955C12.1938 14.395 12.3506 14.2389 12.3506 14.0459V12.3506H14.0459L14.1162 12.3438C14.2755 12.3111 14.3953 12.1699 14.3955 12.001C14.3955 11.8078 14.239 11.6507 14.0459 11.6504H12.3506V9.95508C12.3506 9.76209 12.1938 9.60597 12.001 9.60547Z" fill="white"/>
<path d="M5.31934 11.4941C5.60498 11.4944 5.83691 11.726 5.83691 12.0117V12.0283C5.83671 12.3138 5.60485 12.5456 5.31934 12.5459C5.03361 12.5459 4.80197 12.314 4.80176 12.0283V12.0117C4.80176 11.7259 5.03349 11.4942 5.31934 11.4941Z" fill="white"/>
<path d="M5.31934 9.38965C5.60498 9.38991 5.83691 9.6225 5.83691 9.9082V9.92481C5.83657 10.2102 5.60477 10.4421 5.31934 10.4424C5.0337 10.4424 4.8021 10.2104 4.80176 9.92481V9.9082C4.80176 9.62235 5.03349 9.38966 5.31934 9.38965Z" fill="white"/>
<path d="M5.31934 7.28711C5.60498 7.28737 5.83691 7.51899 5.83691 7.80469V7.82129C5.8367 8.10681 5.60485 8.3386 5.31934 8.33887C5.03362 8.33885 4.80197 8.10696 4.80176 7.82129V7.80469C4.80176 7.51883 5.03348 7.28713 5.31934 7.28711Z" fill="white"/>
<path d="M5.31934 5.18262C5.60482 5.18288 5.83665 5.41472 5.83691 5.7002V5.71777C5.83657 6.00318 5.60476 6.23509 5.31934 6.23535C5.0337 6.23534 4.80211 6.00333 4.80176 5.71777V5.7002C4.80202 5.41456 5.03365 5.18263 5.31934 5.18262Z" fill="white"/>
<path d="M5.31934 3.0791C5.60497 3.07937 5.8369 3.31099 5.83691 3.59668V3.61328C5.83682 3.8989 5.60492 4.1306 5.31934 4.13086C5.03354 4.13084 4.80185 3.89906 4.80176 3.61328V3.59668C4.80177 3.31084 5.03349 3.07912 5.31934 3.0791Z" fill="white"/>
<path fill-rule="evenodd" clip-rule="evenodd" d="M9.09082 1.00098C9.3275 1.00098 9.53512 1.00068 9.70606 1.01465C9.88287 1.0291 10.0644 1.06082 10.2402 1.15039C10.4989 1.28222 10.709 1.49328 10.8408 1.75195C10.9303 1.92756 10.9621 2.10854 10.9766 2.28516C10.9905 2.45615 10.9902 2.6646 10.9902 2.90137V3.78027H11.876C12.0277 3.78026 12.1676 3.7807 12.2842 3.79199C12.41 3.80423 12.5486 3.83188 12.6846 3.91406C12.8789 4.03172 13.0376 4.21953 13.1367 4.4502C13.206 4.61159 13.229 4.77543 13.2393 4.92481C13.2488 5.06341 13.249 5.22963 13.249 5.41016V7.67676C12.8524 7.56236 12.4335 7.5 12 7.5C11.8976 7.5 11.796 7.50401 11.6953 7.51074C11.6964 7.49713 11.7002 7.48362 11.7002 7.46973V7.45313C11.7001 7.16783 11.4678 6.93632 11.1826 6.93555C10.8968 6.93555 10.6651 7.16735 10.665 7.45313V7.46973C10.665 7.54749 10.6841 7.62035 10.7148 7.68652C10.0306 7.89007 9.41551 8.25272 8.91016 8.73047C8.78399 8.78448 8.6838 8.88689 8.63281 9.01465C7.92801 9.80901 7.5 10.8545 7.5 12C7.5 13.1527 7.93376 14.2038 8.64648 15H8.41602C8.26426 15 8.12443 14.9995 8.00781 14.9883C7.9736 14.985 7.93809 14.98 7.90234 14.9736H4.65039C4.41362 14.9736 4.20517 14.9739 4.03418 14.96C3.8576 14.9455 3.67655 14.9136 3.50098 14.8242C3.24226 14.6924 3.03124 14.4814 2.89941 14.2227C2.81003 14.0471 2.77813 13.866 2.76367 13.6895C2.75669 13.604 2.7536 13.509 2.75195 13.4063L2.75 13.0732V2.90137C2.75 2.6646 2.7497 2.45615 2.76367 2.28516C2.77813 2.10858 2.81004 1.92753 2.89941 1.75195C3.03124 1.49323 3.24226 1.28222 3.50098 1.15039C3.67655 1.06101 3.8576 1.0291 4.03418 1.01465C4.20517 1.00068 4.41362 1.00098 4.65039 1.00098H9.09082ZM4.65039 2.00098C4.39723 2.00098 4.23702 2.00186 4.11621 2.01172C4.00189 2.02106 3.96664 2.03613 3.95508 2.04199C3.88452 2.07794 3.82697 2.1355 3.79102 2.20606C3.78515 2.21762 3.77008 2.25287 3.76074 2.36719C3.75088 2.48799 3.75 2.6482 3.75 2.90137V13.0732L3.75098 13.3906C3.75231 13.4771 3.75582 13.5471 3.76074 13.6074C3.77009 13.7218 3.78516 13.757 3.79102 13.7686C3.82697 13.8391 3.88452 13.8967 3.95508 13.9326C3.96665 13.9385 4.00194 13.9536 4.11621 13.9629C4.23702 13.9728 4.39723 13.9736 4.65039 13.9736H7.06738C7.06245 13.9333 7.0554 13.8941 7.05273 13.8555C7.04319 13.7169 7.04296 13.5506 7.04297 13.3701V5.41016C7.04296 5.22963 7.04319 5.06341 7.05273 4.92481C7.06304 4.77542 7.08595 4.6116 7.15527 4.4502C7.25444 4.21949 7.41292 4.03165 7.60742 3.91406C7.74342 3.83196 7.88196 3.80419 8.00781 3.79199C8.12442 3.78075 8.26428 3.78026 8.41602 3.78027H9.99023V2.90137C9.99023 2.64824 9.99032 2.48799 9.98047 2.36719C9.9712 2.25368 9.95615 2.21787 9.9502 2.20606C9.91429 2.13559 9.85656 2.07795 9.78613 2.04199C9.77479 2.03621 9.73961 2.02112 9.625 2.01172C9.50421 2.00185 9.34396 2.00098 9.09082 2.00098H4.65039ZM9.11328 6.93555C8.8275 6.93556 8.59581 7.16736 8.5957 7.45313V7.46973C8.59572 7.75557 8.82744 7.98729 9.11328 7.98731C9.39869 7.98678 9.63084 7.75525 9.63086 7.46973V7.45313C9.63075 7.16768 9.39863 6.93607 9.11328 6.93555ZM9.11328 5.18262C8.82746 5.18263 8.59576 5.41439 8.5957 5.7002V5.7168C8.59572 6.00264 8.82744 6.23436 9.11328 6.23438C9.39869 6.23385 9.63084 6.00232 9.63086 5.7168V5.7002C9.63081 5.4147 9.39867 5.18314 9.11328 5.18262ZM11.1826 5.18262C10.8968 5.18262 10.6651 5.41438 10.665 5.7002V5.7168C10.6651 6.00265 10.8968 6.23437 11.1826 6.23438C11.4679 6.23366 11.7002 6.00221 11.7002 5.7168V5.7002C11.7001 5.41482 11.4678 5.18333 11.1826 5.18262Z" fill="white"/>
</svg>
