<svg width="16" height="16" viewBox="0 0 16 16" fill="none" xmlns="http://www.w3.org/2000/svg">
<path fill-rule="evenodd" clip-rule="evenodd" d="M4.63127 1.00098H9.10932C9.33832 1.00097 9.53954 1.00096 9.70601 1.01456C9.88283 1.02901 10.064 1.06126 10.2398 1.15084C10.4986 1.28267 10.7089 1.49302 10.8407 1.75174C10.9303 1.92756 10.9626 2.10874 10.977 2.28556C10.9906 2.45203 10.9906 2.65324 10.9906 2.88224L10.9906 3.78034H11.8752C12.0274 3.78033 12.1672 3.78032 12.284 3.79165C12.41 3.80386 12.5478 3.83181 12.6839 3.9141C12.8786 4.03174 13.0368 4.21947 13.136 4.45037C13.2053 4.61187 13.2289 4.77538 13.2392 4.92483C13.2487 5.06344 13.2487 5.22925 13.2487 5.40978V13.3704C13.2487 13.551 13.2487 13.7168 13.2392 13.8554C13.2289 14.0049 13.2053 14.1684 13.136 14.3299C13.0368 14.5608 12.8786 14.7485 12.6839 14.8662C12.5478 14.9484 12.41 14.9764 12.284 14.9886C12.1672 14.9999 12.0274 14.9999 11.8752 14.9999H8.416C8.2638 14.9999 8.12403 14.9999 8.00718 14.9886C7.97155 14.9852 7.93498 14.9804 7.89776 14.9736H4.63126C4.40226 14.9736 4.20105 14.9736 4.03459 14.96C3.85776 14.9456 3.67658 14.9133 3.50076 14.8237C3.24204 14.6919 3.03169 14.4816 2.89987 14.2228C2.81028 14.047 2.77803 13.8658 2.76358 13.689C2.74998 13.5225 2.74999 13.3213 2.75 13.0923V2.88225C2.74999 2.65324 2.74998 2.45203 2.76358 2.28556C2.77803 2.10873 2.81028 1.92756 2.89987 1.75174C3.03169 1.49302 3.24204 1.28267 3.50076 1.15084C3.67658 1.06126 3.85776 1.02901 4.03459 1.01456C4.20105 1.00096 4.40228 1.00097 4.63127 1.00098ZM7.06318 13.9736C7.0582 13.9335 7.05466 13.894 7.05201 13.8554C7.04246 13.7168 7.04247 13.551 7.04248 13.3705V5.40982C7.04247 5.22928 7.04246 5.06344 7.05201 4.92483C7.0623 4.77538 7.08586 4.61187 7.15522 4.45037C7.25439 4.21947 7.41263 4.03174 7.60726 3.9141C7.74338 3.83181 7.88121 3.80386 8.00718 3.79165C8.12402 3.78032 8.26379 3.78033 8.41597 3.78034H9.99059V2.90098C9.99059 2.6477 9.9902 2.48782 9.98033 2.367C9.97094 2.25201 9.9555 2.21708 9.94972 2.20573C9.91377 2.13517 9.8564 2.0778 9.78584 2.04185C9.77449 2.03607 9.73956 2.02063 9.62457 2.01124C9.50375 2.00137 9.34387 2.00098 9.09059 2.00098H4.65C4.39673 2.00098 4.23684 2.00137 4.11602 2.01124C4.00103 2.02063 3.96611 2.03607 3.95475 2.04185C3.88419 2.0778 3.82683 2.13517 3.79087 2.20573C3.78509 2.21708 3.76966 2.25201 3.76026 2.367C3.75039 2.48782 3.75 2.6477 3.75 2.90098V13.0736C3.75 13.3269 3.75039 13.4868 3.76026 13.6076C3.76966 13.7226 3.78509 13.7575 3.79087 13.7688C3.82683 13.8394 3.88419 13.8968 3.95475 13.9327C3.96611 13.9385 4.00103 13.9539 4.11602 13.9633C4.23684 13.9732 4.39673 13.9736 4.65 13.9736H7.06318ZM4.80127 3.59653C4.80127 3.31066 5.03301 3.07892 5.31887 3.07892C5.60474 3.07892 5.83648 3.31066 5.83648 3.59653V3.61315C5.83648 3.89902 5.60474 4.13076 5.31887 4.13076C5.03301 4.13076 4.80127 3.89902 4.80127 3.61315V3.59653ZM4.80127 5.7005C4.80127 5.41464 5.03301 5.1829 5.31887 5.1829C5.60474 5.1829 5.83648 5.41464 5.83648 5.7005V5.71713C5.83648 6.00299 5.60474 6.23473 5.31887 6.23473C5.03301 6.23473 4.80127 6.00299 4.80127 5.71713V5.7005ZM5.31887 7.28666C5.03301 7.28666 4.80127 7.5184 4.80127 7.80427V7.82089C4.80127 8.10676 5.03301 8.3385 5.31887 8.3385C5.60474 8.3385 5.83648 8.10676 5.83648 7.82089V7.80427C5.83648 7.5184 5.60474 7.28666 5.31887 7.28666ZM4.80127 9.90755C4.80127 9.62168 5.03301 9.38994 5.31887 9.38994C5.60474 9.38994 5.83648 9.62168 5.83648 9.90755V9.92417C5.83648 10.21 5.60474 10.4418 5.31887 10.4418C5.03301 10.4418 4.80127 10.21 4.80127 9.92417V9.90755ZM5.31887 11.4937C5.03301 11.4937 4.80127 11.7254 4.80127 12.0113V12.0279C4.80127 12.3138 5.03301 12.5455 5.31887 12.5455C5.60474 12.5455 5.83648 12.3138 5.83648 12.0279V12.0113C5.83648 11.7254 5.60474 11.4937 5.31887 11.4937ZM8.59489 5.7001C8.59489 5.41424 8.82663 5.1825 9.1125 5.1825C9.39836 5.1825 9.6301 5.41424 9.6301 5.7001V5.71673C9.6301 6.00259 9.39836 6.23433 9.1125 6.23433C8.82663 6.23433 8.59489 6.00259 8.59489 5.71673V5.7001ZM8.59489 7.45313C8.59489 7.16726 8.82663 6.93552 9.1125 6.93552C9.39836 6.93552 9.6301 7.16726 9.6301 7.45313V7.46975C9.6301 7.75562 9.39836 7.98736 9.1125 7.98736C8.82663 7.98736 8.59489 7.75562 8.59489 7.46975V7.45313ZM9.1125 8.68858C8.82663 8.68858 8.59489 8.92032 8.59489 9.20619V9.22281C8.59489 9.50868 8.82663 9.74042 9.1125 9.74042C9.39836 9.74042 9.6301 9.50868 9.6301 9.22281V9.20619C9.6301 8.92032 9.39836 8.68858 9.1125 8.68858ZM10.6639 5.71673V5.7001C10.6639 5.41424 10.8956 5.1825 11.1815 5.1825C11.4673 5.1825 11.6991 5.41424 11.6991 5.7001V5.71673C11.6991 6.00259 11.4673 6.23433 11.1815 6.23433C10.8956 6.23433 10.6639 6.00259 10.6639 5.71673ZM11.699 7.45313C11.699 7.16726 11.4672 6.93552 11.1813 6.93552C10.8955 6.93552 10.6637 7.16726 10.6637 7.45313V7.46975C10.6637 7.75562 10.8955 7.98736 11.1813 7.98736C11.4672 7.98736 11.699 7.75562 11.699 7.46975V7.45313ZM10.6637 9.22281V9.20619C10.6637 8.92032 10.8955 8.68858 11.1813 8.68858C11.4672 8.68858 11.699 8.92032 11.699 9.20619V9.22281C11.699 9.50868 11.4672 9.74042 11.1813 9.74042C10.8955 9.74042 10.6637 9.50868 10.6637 9.22281ZM9.3077 11.1431C9.08554 11.1431 8.90544 11.3785 8.90544 11.669V13.9479H11.319V11.669C11.319 11.3785 11.1389 11.1431 10.9167 11.1431H9.3077Z" fill="white"/>
</svg>
