<svg width="16" height="16" viewBox="0 0 16 16" fill="none" xmlns="http://www.w3.org/2000/svg">
<path fill-rule="evenodd" clip-rule="evenodd" d="M12 8.25C14.0711 8.25 15.75 9.92893 15.75 12C15.75 14.0711 14.0711 15.75 12 15.75C9.92893 15.75 8.25 14.0711 8.25 12C8.25 9.92893 9.92893 8.25 12 8.25ZM12.001 9.60547C11.8077 9.60547 11.6504 9.76178 11.6504 9.95508V11.6504H9.95508C9.76178 11.6504 9.60547 11.8077 9.60547 12.001C9.60571 12.1941 9.76193 12.3506 9.95508 12.3506H11.6504V14.0459C11.6504 14.2392 11.8077 14.3955 12.001 14.3955C12.1938 14.395 12.3506 14.2389 12.3506 14.0459V12.3506H14.0459L14.1162 12.3438C14.2755 12.3111 14.3953 12.1699 14.3955 12.001C14.3955 11.8078 14.239 11.6507 14.0459 11.6504H12.3506V9.95508C12.3506 9.76209 12.1938 9.60597 12.001 9.60547Z" fill="white"/>
<path d="M5.08984 11.5127C5.37849 11.5127 5.6123 11.7514 5.6123 12.04C5.61208 12.3285 5.37835 12.5664 5.08984 12.5664C4.80142 12.5663 4.56761 12.3284 4.56738 12.04C4.56738 11.7515 4.80128 11.5128 5.08984 11.5127Z" fill="white"/>
<path d="M5.08984 9.40527C5.37849 9.40527 5.6123 9.64398 5.6123 9.93262C5.61199 10.221 5.37829 10.459 5.08984 10.459C4.80148 10.4589 4.5677 10.2209 4.56738 9.93262C4.56738 9.64404 4.80128 9.40537 5.08984 9.40527Z" fill="white"/>
<path d="M5.08984 7.29785C5.37849 7.29785 5.6123 7.53656 5.6123 7.8252C5.61216 8.11372 5.3784 8.35156 5.08984 8.35156C4.80137 8.35147 4.56753 8.11366 4.56738 7.8252C4.56738 7.53661 4.80128 7.29795 5.08984 7.29785Z" fill="white"/>
<path d="M5.08984 5.19043C5.37849 5.19043 5.6123 5.42913 5.6123 5.71777C5.61206 6.00622 5.37834 6.24414 5.08984 6.24414C4.80143 6.24405 4.56762 6.00616 4.56738 5.71777C4.56738 5.42919 4.80128 5.19053 5.08984 5.19043Z" fill="white"/>
<path d="M5.08984 3.08301C5.37849 3.08301 5.6123 3.32171 5.6123 3.61035C5.61192 3.89868 5.37825 4.13672 5.08984 4.13672C4.80152 4.13662 4.56776 3.89862 4.56738 3.61035C4.56738 3.32177 4.80128 3.0831 5.08984 3.08301Z" fill="white"/>
<path fill-rule="evenodd" clip-rule="evenodd" d="M8.92285 1.00195C9.15836 1.00195 9.36564 1.0016 9.53613 1.01563C9.71258 1.03016 9.89363 1.0631 10.0693 1.15332C10.3276 1.28598 10.5371 1.49692 10.668 1.75586C10.7568 1.93165 10.7894 2.11301 10.8037 2.29004C10.8176 2.4613 10.8164 2.66963 10.8164 2.90723V3.96094H12.5029L12.6045 3.96582C13.1087 4.01707 13.5029 4.4432 13.5029 4.96094V7.75781C13.1845 7.64499 12.8497 7.56689 12.5029 7.52832V4.96094H7.53418V11.4541C7.51253 11.6331 7.5 11.8152 7.5 12C7.5 12.1845 7.5126 12.3662 7.53418 12.5449V13.998H7.96777C8.14888 14.3628 8.37759 14.6996 8.64648 15H7.53418C7.52059 15 7.50662 14.9986 7.49316 14.998H4.39355C4.15801 14.998 3.95078 14.9984 3.78027 14.9844C3.60391 14.9698 3.4227 14.9378 3.24707 14.8477C2.98877 14.715 2.77933 14.5031 2.64844 14.2441C2.55967 14.0684 2.52801 13.8869 2.51367 13.71C2.49982 13.5387 2.5 13.3303 2.5 13.0928V2.90723C2.5 2.66962 2.49981 2.46131 2.51367 2.29004C2.52802 2.11304 2.55962 1.93163 2.64844 1.75586C2.77929 1.49696 2.98888 1.28601 3.24707 1.15332C3.42274 1.06309 3.60387 1.03017 3.78027 1.01563C3.95078 1.00158 4.15801 1.00195 4.39355 1.00195H8.92285ZM4.39355 2.00195C4.1414 2.00195 3.98225 2.00282 3.8623 2.0127C3.74932 2.02203 3.7149 2.03647 3.7041 2.04199C3.6346 2.07769 3.57714 2.13556 3.54102 2.20703C3.53489 2.21918 3.51912 2.25504 3.50977 2.37012C3.49992 2.49166 3.5 2.65315 3.5 2.90723V13.0928C3.5 13.3469 3.49992 13.5083 3.50977 13.6299C3.51909 13.7447 3.53485 13.7807 3.54102 13.793C3.57714 13.8644 3.63461 13.9223 3.7041 13.958C3.71484 13.9635 3.74907 13.9789 3.8623 13.9883C3.98225 13.9982 4.1414 13.998 4.39355 13.998H6.53418V4.96094C6.53418 4.44326 6.92751 4.01715 7.43164 3.96582L7.53418 3.96094H9.81641V2.90723C9.81641 2.65315 9.81649 2.49166 9.80664 2.37012C9.79725 2.25467 9.78147 2.21906 9.77539 2.20703C9.7393 2.13565 9.68267 2.07769 9.61328 2.04199C9.6027 2.03656 9.5681 2.02209 9.4541 2.0127C9.33415 2.00282 9.17501 2.00195 8.92285 2.00195H4.39355Z" fill="white"/>
<path d="M8.92285 7.64844C9.21149 7.64844 9.44531 7.88714 9.44531 8.17578C9.44529 8.22222 9.43618 8.26654 9.4248 8.30957C9.25458 8.42858 9.09328 8.55936 8.94141 8.7002C8.93523 8.70042 8.92908 8.70215 8.92285 8.70215C8.63438 8.70205 8.40053 8.46425 8.40039 8.17578C8.40039 7.8872 8.63429 7.64853 8.92285 7.64844Z" fill="white"/>
<path d="M8.92285 5.89258C9.21149 5.89258 9.44531 6.13128 9.44531 6.41992C9.44506 6.70835 9.21134 6.94629 8.92285 6.94629C8.63445 6.94619 8.40065 6.70829 8.40039 6.41992C8.40039 6.13134 8.63429 5.89267 8.92285 5.89258Z" fill="white"/>
<path d="M11.0137 5.89258C11.3023 5.89258 11.5361 6.13128 11.5361 6.41992C11.5359 6.70835 11.3022 6.94629 11.0137 6.94629C10.7253 6.94622 10.4915 6.70831 10.4912 6.41992C10.4912 6.13133 10.7251 5.89265 11.0137 5.89258Z" fill="white"/>
</svg>
