<svg width="16" height="16" viewBox="0 0 16 16" fill="none" xmlns="http://www.w3.org/2000/svg">
<path fill-rule="evenodd" clip-rule="evenodd" d="M2.3999 6.6C2.3999 3.50721 4.90711 1 7.9999 1C11.0927 1 13.5999 3.50721 13.5999 6.6C13.5999 8.51257 12.6406 10.201 11.1794 11.2104C10.8977 11.405 10.7184 11.658 10.6722 11.9196L10.471 13.0595C10.3371 13.8187 9.76927 14.4081 9.0499 14.5908V14.825C9.0499 15.3082 8.65815 15.7 8.1749 15.7H7.8249C7.34165 15.7 6.9499 15.3082 6.9499 14.825V14.5908C6.23054 14.4081 5.66274 13.8187 5.52877 13.0595L5.32759 11.9196C5.28143 11.658 5.10209 11.405 4.82042 11.2104C3.35916 10.201 2.3999 8.51257 2.3999 6.6ZM6.36162 11.7371C6.336 11.5919 6.29425 11.4544 6.23948 11.325H9.76033C9.70556 11.4544 9.66381 11.5919 9.63819 11.7371L9.43701 12.8771C9.36323 13.2952 8.99991 13.6 8.57533 13.6H7.42448C6.99989 13.6 6.63658 13.2952 6.56279 12.8771L6.36162 11.7371Z" fill="white"/>
</svg>
