<svg width="16" height="16" viewBox="0 0 16 16" fill="none" xmlns="http://www.w3.org/2000/svg">
<path fill-rule="evenodd" clip-rule="evenodd" d="M5.56355 1L10.4366 1.00006C11.0064 1.00007 11.4644 1.00007 11.835 1.03035C12.2161 1.06149 12.5486 1.12713 12.8554 1.28347C13.3446 1.53275 13.7424 1.93049 13.9916 2.41971C14.148 2.72655 14.2136 3.05899 14.2447 3.44009C14.275 3.8107 14.275 4.26877 14.275 4.83859V5.91043C14.3367 5.88496 14.4043 5.87091 14.4752 5.87091C14.7651 5.87091 15.0002 6.10596 15.0002 6.39591V7.44695C15.0002 7.73689 14.7651 7.97195 14.4752 7.97195C14.4138 7.97195 14.3548 7.96139 14.3 7.942L14.3002 13.7733C14.3002 14.4499 13.7517 14.9983 13.0752 14.9983C12.3986 14.9983 11.8502 14.4499 11.8502 13.7733V12.889H4.15005V13.7733C4.15005 14.4499 3.6016 14.9983 2.92505 14.9983C2.2485 14.9983 1.70005 14.4499 1.70005 13.7733L1.7 7.93864C1.64526 7.95799 1.58636 7.96851 1.525 7.96851C1.23505 7.96851 1 7.73346 1 7.44351V6.39248C1 6.10253 1.23505 5.86748 1.525 5.86748C1.59582 5.86748 1.66337 5.88151 1.72502 5.90693L1.72502 4.8385C1.72501 4.26869 1.725 3.81062 1.75528 3.44001C1.78642 3.0589 1.85205 2.72645 2.00839 2.41961C2.25767 1.93038 2.65542 1.53263 3.14465 1.28336C3.4515 1.12702 3.78395 1.06139 4.16505 1.03026C4.53565 0.999981 4.99376 0.99999 5.56355 1ZM13.275 4.86006V6.21885H2.72502L2.72502 4.86001C2.72501 4.2637 2.7254 3.84654 2.75196 3.52143C2.77804 3.20217 2.82686 3.01598 2.8994 2.8736C3.0528 2.57254 3.29757 2.32777 3.59864 2.17437C3.74101 2.10183 3.92721 2.05302 4.24647 2.02694C4.57157 2.00038 4.98874 1.99999 5.58505 2L10.415 2.00006C11.0113 2.00007 11.4285 2.00047 11.7536 2.02703C12.0728 2.05312 12.259 2.10193 12.4014 2.17448C12.7025 2.32787 12.9472 2.57264 13.1006 2.8737C13.1732 3.01607 13.222 3.20226 13.248 3.52152C13.2746 3.84661 13.275 4.26376 13.275 4.86006ZM4.85015 10.7833C5.43005 10.7833 5.90015 10.3115 5.90015 9.72953C5.90015 9.14754 5.43005 8.67575 4.85015 8.67575C4.27025 8.67575 3.80015 9.14754 3.80015 9.72953C3.80015 10.3115 4.27025 10.7833 4.85015 10.7833ZM11.1501 10.7833C11.73 10.7833 12.2001 10.3115 12.2001 9.72953C12.2001 9.14754 11.73 8.67575 11.1501 8.67575C10.5702 8.67575 10.1001 9.14754 10.1001 9.72953C10.1001 10.3115 10.5702 10.7833 11.1501 10.7833Z" fill="white"/>
</svg>
