<svg width="16" height="16" viewBox="0 0 16 16" fill="none" xmlns="http://www.w3.org/2000/svg">
<path fill-rule="evenodd" clip-rule="evenodd" d="M14.829 3.35996C15.0007 3.69688 15.0007 4.13792 15.0007 5.02V10.98C15.0007 11.8621 15.0007 12.3031 14.829 12.64C14.678 12.9364 14.4371 13.1773 14.1407 13.3283C13.8038 13.5 13.3628 13.5 12.4807 13.5H10.5207C9.6386 13.5 9.19756 13.5 8.86065 13.3283C8.56429 13.1773 8.32335 12.9364 8.17235 12.64C8.00068 12.3031 8.00068 11.8621 8.00068 10.98V5.02C8.00068 4.13792 8.00068 3.69688 8.17235 3.35996C8.32335 3.06361 8.56429 2.82267 8.86065 2.67166C9.19756 2.5 9.6386 2.5 10.5207 2.5H12.4807C13.3628 2.5 13.8038 2.5 14.1407 2.67166C14.4371 2.82267 14.678 3.06361 14.829 3.35996ZM4.41436 3.89043C4.69179 3.89042 4.92964 3.89042 5.12526 3.9064C5.33127 3.92323 5.53405 3.96025 5.72859 4.05937C6.02024 4.20798 6.25736 4.4451 6.40596 4.73675C6.50508 4.93129 6.54211 5.13407 6.55894 5.34008C6.57492 5.53569 6.57491 5.77355 6.5749 6.05097V9.94864C6.57491 10.2261 6.57492 10.4639 6.55894 10.6595C6.54211 10.8655 6.50508 11.0683 6.40596 11.2629C6.25736 11.5545 6.02024 11.7916 5.72859 11.9402C5.53405 12.0394 5.33127 12.0764 5.12526 12.0932C4.92964 12.1092 4.69179 12.1092 4.41437 12.1092H3.18545C2.90803 12.1092 2.67016 12.1092 2.47455 12.0932C2.26854 12.0764 2.06576 12.0394 1.87122 11.9402C1.57957 11.7916 1.34245 11.5545 1.19384 11.2629C1.09472 11.0683 1.0577 10.8655 1.04087 10.6595C1.02489 10.4639 1.02489 10.2261 1.0249 9.94865V6.05099C1.02489 5.77356 1.02489 5.53569 1.04087 5.34008C1.0577 5.13407 1.09472 4.93129 1.19384 4.73675C1.34245 4.4451 1.57957 4.20798 1.87122 4.05937C2.06576 3.96025 2.26854 3.92323 2.47455 3.9064C2.67016 3.89042 2.90802 3.89042 3.18544 3.89043H4.41436ZM5.2746 4.95038C5.24453 4.93506 5.18799 4.91486 5.04382 4.90308C4.89382 4.89082 4.69718 4.89043 4.3949 4.89043H3.2049C2.90262 4.89043 2.70599 4.89082 2.55598 4.90308C2.41181 4.91486 2.35528 4.93506 2.32521 4.95038C2.22172 5.00311 2.13758 5.08725 2.08485 5.19074C2.06953 5.22081 2.04933 5.27734 2.03755 5.42151C2.02529 5.57152 2.0249 5.76816 2.0249 6.07043V9.92918C2.0249 10.2315 2.02529 10.4281 2.03755 10.5781C2.04933 10.7223 2.06953 10.7788 2.08485 10.8089C2.13758 10.9124 2.22172 10.9965 2.32521 11.0492C2.35528 11.0646 2.41181 11.0848 2.55598 11.0965C2.70599 11.1088 2.90263 11.1092 3.2049 11.1092H4.3949C4.69718 11.1092 4.89382 11.1088 5.04383 11.0965C5.18799 11.0848 5.24453 11.0646 5.2746 11.0492C5.37809 10.9965 5.46223 10.9124 5.51496 10.8089C5.53028 10.7788 5.55048 10.7223 5.56226 10.5781C5.57451 10.4281 5.5749 10.2315 5.5749 9.92918V6.07043C5.5749 5.76816 5.57451 5.57152 5.56226 5.42151C5.55048 5.27734 5.53028 5.22081 5.51496 5.19074C5.46223 5.08725 5.37809 5.00311 5.2746 4.95038Z" fill="white"/>
</svg>
