<svg width="16" height="16" viewBox="0 0 16 16" fill="none" xmlns="http://www.w3.org/2000/svg">
<path fill-rule="evenodd" clip-rule="evenodd" d="M14.8287 3.35996C15.0004 3.69688 15.0004 4.13792 15.0004 5.02V10.98C15.0004 11.8621 15.0004 12.3031 14.8287 12.64C14.6777 12.9364 14.4368 13.1773 14.1404 13.3283C13.8035 13.5 13.3625 13.5 12.4804 13.5H10.5204C9.63831 13.5 9.19727 13.5 8.86036 13.3283C8.564 13.1773 8.32306 12.9364 8.17206 12.64C8.00039 12.3031 8.00039 11.8621 8.00039 10.98V5.02C8.00039 4.13792 8.00039 3.69688 8.17206 3.35996C8.32306 3.06361 8.564 2.82267 8.86036 2.67166C9.19727 2.5 9.63831 2.5 10.5204 2.5H12.4804C13.3625 2.5 13.8035 2.5 14.1404 2.67166C14.4368 2.82267 14.6777 3.06361 14.8287 3.35996ZM6.42834 4.73496C6.6 5.07188 6.6 5.51292 6.6 6.395V9.605C6.6 10.4871 6.6 10.9281 6.42834 11.265C6.27734 11.5614 6.03639 11.8023 5.74004 11.9533C5.40312 12.125 4.96208 12.125 4.08 12.125H3.52C2.63792 12.125 2.19688 12.125 1.85997 11.9533C1.56361 11.8023 1.32267 11.5614 1.17167 11.265C1 10.9281 1 10.4871 1 9.605V6.395C1 5.51292 1 5.07188 1.17167 4.73496C1.32267 4.43861 1.56361 4.19767 1.85997 4.04666C2.19688 3.875 2.63792 3.875 3.52 3.875H4.08C4.96208 3.875 5.40312 3.875 5.74004 4.04666C6.03639 4.19767 6.27734 4.43861 6.42834 4.73496Z" fill="white"/>
</svg>
