<svg width="16" height="16" viewBox="0 0 16 16" fill="none" xmlns="http://www.w3.org/2000/svg">
<path fill-rule="evenodd" clip-rule="evenodd" d="M1.02539 13.45C1.02539 14.306 1.71935 15 2.57539 15H5.81749C6.67353 15 7.36749 14.306 7.36749 13.45V10.2071C7.36749 9.35109 6.67353 8.65713 5.81749 8.65713H2.57539C1.71935 8.65713 1.02539 9.35109 1.02539 10.2071V13.45ZM2.57539 14C2.27163 14 2.02539 13.7538 2.02539 13.45V10.2071C2.02539 9.90337 2.27163 9.65713 2.57539 9.65713H5.81749C6.12125 9.65713 6.36749 9.90337 6.36749 10.2071V13.45C6.36749 13.7538 6.12125 14 5.81749 14H2.57539ZM1.70312 5.26231C1.70312 5.93886 2.25158 6.48731 2.92812 6.48731H5.46409C6.14063 6.48731 6.68909 5.93886 6.68909 5.26231V2.72563C6.68909 2.04908 6.14063 1.50063 5.46409 1.50063H2.92813C2.25158 1.50063 1.70312 2.04908 1.70312 2.72563V5.26231ZM10.7641 6.48731C10.0875 6.48731 9.53906 5.93886 9.53906 5.26231V2.72563C9.53906 2.04908 10.0875 1.50063 10.7641 1.50063H13.3C13.9766 1.50063 14.525 2.04908 14.525 2.72563V5.26231C14.525 5.93886 13.9766 6.48731 13.3 6.48731H10.7641ZM9.53906 13.0992C9.53906 13.7757 10.0875 14.3242 10.7641 14.3242H13.3C13.9766 14.3242 14.525 13.7757 14.525 13.0992V10.5625C14.525 9.88596 13.9766 9.33751 13.3 9.33751H10.7641C10.0875 9.33751 9.53906 9.88596 9.53906 10.5625V13.0992Z" fill="white"/>
</svg>
