<svg width="16" height="16" viewBox="0 0 16 16" fill="none" xmlns="http://www.w3.org/2000/svg">
<path fill-rule="evenodd" clip-rule="evenodd" d="M15.0001 13.45C15.0001 14.306 14.3062 15 13.4501 15H10.208C9.35198 15 8.65802 14.306 8.65802 13.45V10.2071C8.65802 9.35109 9.35198 8.65713 10.208 8.65713H13.4501C14.3062 8.65713 15.0001 9.35109 15.0001 10.2071V13.45ZM13.4501 14C13.7539 14 14.0001 13.7538 14.0001 13.45V10.2071C14.0001 9.90337 13.7539 9.65713 13.4501 9.65713H10.208C9.90426 9.65713 9.65802 9.90337 9.65802 10.2071V13.45C9.65802 13.7538 9.90426 14 10.208 14H13.4501ZM14.3224 5.26231C14.3224 5.93886 13.7739 6.48731 13.0974 6.48731H10.5614C9.88488 6.48731 9.33643 5.93886 9.33643 5.26231V2.72563C9.33643 2.04908 9.88488 1.50063 10.5614 1.50063H13.0974C13.7739 1.50063 14.3224 2.04908 14.3224 2.72563V5.26231ZM5.26145 6.48731C5.938 6.48731 6.48645 5.93886 6.48645 5.26231V2.72563C6.48645 2.04908 5.938 1.50063 5.26145 1.50063H2.72549C2.04894 1.50063 1.50049 2.04908 1.50049 2.72563V5.26231C1.50049 5.93886 2.04894 6.48731 2.72549 6.48731H5.26145ZM6.48645 13.0992C6.48645 13.7757 5.938 14.3242 5.26145 14.3242H2.72549C2.04894 14.3242 1.50049 13.7757 1.50049 13.0992V10.5625C1.50049 9.88596 2.04894 9.33751 2.72549 9.33751H5.26145C5.938 9.33751 6.48645 9.88596 6.48645 10.5625V13.0992Z" fill="white"/>
</svg>
