<svg width="16" height="16" viewBox="0 0 16 16" fill="none" xmlns="http://www.w3.org/2000/svg">
<path fill-rule="evenodd" clip-rule="evenodd" d="M2.57539 1.02539C1.71935 1.02539 1.02539 1.71935 1.02539 2.57539V5.80746C1.02539 6.6635 1.71935 7.35746 2.57539 7.35746H5.80746C6.6635 7.35746 7.35746 6.6635 7.35746 5.80746V2.57539C7.35746 1.71935 6.6635 1.02539 5.80746 1.02539H2.57539ZM2.02539 2.57539C2.02539 2.27163 2.27163 2.02539 2.57539 2.02539H5.80746C6.11121 2.02539 6.35746 2.27163 6.35746 2.57539V5.80746C6.35746 6.11121 6.11121 6.35746 5.80746 6.35746H2.57539C2.27163 6.35746 2.02539 6.11121 2.02539 5.80746V2.57539ZM10.7465 1.70215C10.0699 1.70215 9.52148 2.2506 9.52148 2.92715V5.45374C9.52148 6.13029 10.0699 6.67874 10.7465 6.67874H13.2731C13.9496 6.67874 14.4981 6.13029 14.4981 5.45374V2.92715C14.4981 2.2506 13.9496 1.70215 13.2731 1.70215H10.7465ZM9.52148 10.7475C9.52148 10.0709 10.0699 9.52246 10.7465 9.52246H13.2731C13.9496 9.52246 14.4981 10.0709 14.4981 10.7475V13.2741C14.4981 13.9506 13.9496 14.4991 13.2731 14.4991H10.7465C10.0699 14.4991 9.52148 13.9506 9.52148 13.2741V10.7475ZM2.92617 9.52246C2.24962 9.52246 1.70117 10.0709 1.70117 10.7475V13.2741C1.70117 13.9506 2.24962 14.4991 2.92617 14.4991H5.45277C6.12931 14.4991 6.67777 13.9506 6.67777 13.2741V10.7475C6.67777 10.0709 6.12931 9.52246 5.45277 9.52246H2.92617Z" fill="white"/>
</svg>
