<svg width="16" height="16" viewBox="0 0 16 16" fill="none" xmlns="http://www.w3.org/2000/svg">
<path fill-rule="evenodd" clip-rule="evenodd" d="M1.17166 3.35996C1 3.69688 1 4.13792 1 5.02V10.98C1 11.8621 1 12.3031 1.17166 12.64C1.32267 12.9364 1.56361 13.1773 1.85996 13.3283C2.19688 13.5 2.63792 13.5 3.52 13.5H5.48C6.36208 13.5 6.80312 13.5 7.14004 13.3283C7.43639 13.1773 7.67733 12.9364 7.82834 12.64C8 12.3031 8 11.8621 8 10.98V5.02C8 4.13792 8 3.69688 7.82834 3.35996C7.67733 3.06361 7.43639 2.82267 7.14004 2.67166C6.80312 2.5 6.36208 2.5 5.48 2.5H3.52C2.63792 2.5 2.19688 2.5 1.85996 2.67166C1.56361 2.82267 1.32267 3.06361 1.17166 3.35996ZM11.5863 3.89043C11.3089 3.89042 11.071 3.89042 10.8754 3.9064C10.6694 3.92323 10.4666 3.96025 10.2721 4.05937C9.98044 4.20798 9.74333 4.4451 9.59472 4.73675C9.4956 4.93129 9.45858 5.13407 9.44175 5.34008C9.42577 5.53569 9.42577 5.77355 9.42578 6.05097V9.94864C9.42577 10.2261 9.42577 10.4639 9.44175 10.6595C9.45858 10.8655 9.4956 11.0683 9.59472 11.2629C9.74333 11.5545 9.98044 11.7916 10.2721 11.9402C10.4666 12.0394 10.6694 12.0764 10.8754 12.0932C11.071 12.1092 11.3089 12.1092 11.5863 12.1092H12.8152C13.0927 12.1092 13.3305 12.1092 13.5261 12.0932C13.7321 12.0764 13.9349 12.0394 14.1295 11.9402C14.4211 11.7916 14.6582 11.5545 14.8068 11.2629C14.906 11.0683 14.943 10.8655 14.9598 10.6595C14.9758 10.4639 14.9758 10.2261 14.9758 9.94865V6.05099C14.9758 5.77356 14.9758 5.53569 14.9598 5.34008C14.943 5.13407 14.906 4.93129 14.8068 4.73675C14.6582 4.4451 14.4211 4.20798 14.1295 4.05937C13.9349 3.96025 13.7321 3.92323 13.5261 3.9064C13.3305 3.89042 13.0927 3.89042 12.8152 3.89043H11.5863ZM10.7261 4.95038C10.7562 4.93506 10.8127 4.91486 10.9569 4.90308C11.1069 4.89082 11.3035 4.89043 11.6058 4.89043H12.7958C13.0981 4.89043 13.2947 4.89082 13.4447 4.90308C13.5889 4.91486 13.6454 4.93506 13.6755 4.95038C13.779 5.00311 13.8631 5.08725 13.9158 5.19074C13.9312 5.22081 13.9514 5.27734 13.9631 5.42151C13.9754 5.57152 13.9758 5.76816 13.9758 6.07043V9.92918C13.9758 10.2315 13.9754 10.4281 13.9631 10.5781C13.9514 10.7223 13.9312 10.7788 13.9158 10.8089C13.8631 10.9124 13.779 10.9965 13.6755 11.0492C13.6454 11.0646 13.5889 11.0848 13.4447 11.0965C13.2947 11.1088 13.0981 11.1092 12.7958 11.1092H11.6058C11.3035 11.1092 11.1069 11.1088 10.9569 11.0965C10.8127 11.0848 10.7562 11.0646 10.7261 11.0492C10.6226 10.9965 10.5385 10.9124 10.4857 10.8089C10.4704 10.7788 10.4502 10.7223 10.4384 10.5781C10.4262 10.4281 10.4258 10.2315 10.4258 9.92918V6.07043C10.4258 5.76816 10.4262 5.57152 10.4384 5.42151C10.4502 5.27734 10.4704 5.22081 10.4857 5.19074C10.5385 5.08725 10.6226 5.00311 10.7261 4.95038Z" fill="white"/>
</svg>
