<svg width="16" height="16" viewBox="0 0 16 16" fill="none" xmlns="http://www.w3.org/2000/svg">
<path fill-rule="evenodd" clip-rule="evenodd" d="M0.998047 13.425C0.998047 14.2948 1.7032 15 2.57305 15H5.83364C6.70349 15 7.40864 14.2948 7.40864 13.425V10.1646C7.40864 9.29471 6.70349 8.58956 5.83364 8.58956H2.57305C1.7032 8.58956 0.998047 9.29471 0.998047 10.1646V13.425ZM1.74414 5.21796C1.74414 5.8807 2.2814 6.41796 2.94414 6.41796H5.46173C6.12447 6.41796 6.66173 5.8807 6.66173 5.21796V2.70047C6.66173 2.03773 6.12447 1.50047 5.46173 1.50047H2.94414C2.2814 1.50047 1.74414 2.03773 1.74414 2.70047V5.21796ZM2.94414 5.41796C2.83368 5.41796 2.74414 5.32842 2.74414 5.21796V2.70047C2.74414 2.59002 2.83368 2.50047 2.94414 2.50047H5.46173C5.57218 2.50047 5.66173 2.59002 5.66173 2.70047V5.21796C5.66173 5.32842 5.57218 5.41796 5.46173 5.41796H2.94414ZM10.7801 6.41796C10.1173 6.41796 9.58008 5.8807 9.58008 5.21796V2.70047C9.58008 2.03773 10.1173 1.50047 10.7801 1.50047H13.2977C13.9604 1.50047 14.4977 2.03773 14.4977 2.70047V5.21796C14.4977 5.8807 13.9604 6.41796 13.2977 6.41796H10.7801ZM10.5801 5.21796C10.5801 5.32842 10.6696 5.41796 10.7801 5.41796H13.2977C13.4081 5.41796 13.4977 5.32842 13.4977 5.21796V2.70047C13.4977 2.59002 13.4081 2.50047 13.2977 2.50047H10.7801C10.6696 2.50047 10.5801 2.59002 10.5801 2.70047V5.21796ZM9.58008 13.0547C9.58008 13.7175 10.1173 14.2547 10.7801 14.2547H13.2977C13.9604 14.2547 14.4977 13.7175 14.4977 13.0547V10.5373C14.4977 9.87451 13.9604 9.33726 13.2977 9.33726H10.7801C10.1173 9.33726 9.58008 9.87452 9.58008 10.5373V13.0547ZM10.7801 13.2547C10.6696 13.2547 10.5801 13.1652 10.5801 13.0547V10.5373C10.5801 10.4268 10.6696 10.3373 10.7801 10.3373H13.2977C13.4081 10.3373 13.4977 10.4268 13.4977 10.5373V13.0547C13.4977 13.1652 13.4081 13.2547 13.2977 13.2547H10.7801Z" fill="white"/>
</svg>
