<svg width="16" height="16" viewBox="0 0 16 16" fill="none" xmlns="http://www.w3.org/2000/svg">
<path fill-rule="evenodd" clip-rule="evenodd" d="M5.90039 5.46C5.90039 4.77394 5.90039 4.4309 6.03391 4.16886C6.15135 3.93836 6.33875 3.75096 6.56925 3.63352C6.83129 3.5 7.17433 3.5 7.86039 3.5H8.14039C8.82645 3.5 9.16949 3.5 9.43153 3.63352C9.66203 3.75096 9.84943 3.93836 9.96687 4.16886C10.1004 4.4309 10.1004 4.77394 10.1004 5.46V10.54C10.1004 11.2261 10.1004 11.5691 9.96687 11.8311C9.84943 12.0616 9.66203 12.249 9.43153 12.3665C9.16949 12.5 8.82645 12.5 8.14039 12.5H7.86039C7.17433 12.5 6.83129 12.5 6.56925 12.3665C6.33875 12.249 6.15135 12.0616 6.03391 11.8311C5.90039 11.5691 5.90039 11.2261 5.90039 10.54V5.46ZM1 6.21827C1 5.63021 1 5.33619 1.11444 5.11158C1.21511 4.91401 1.37574 4.75338 1.57331 4.65271C1.79792 4.53827 2.09194 4.53827 2.68 4.53827H2.82C3.40806 4.53827 3.70208 4.53827 3.92669 4.65271C4.12426 4.75338 4.28489 4.91401 4.38556 5.11158C4.5 5.33619 4.5 5.63021 4.5 6.21827V9.78135C4.5 10.3694 4.5 10.6634 4.38556 10.888C4.28489 11.0856 4.12426 11.2462 3.92669 11.3469C3.70208 11.4613 3.40806 11.4613 2.82 11.4613H2.68C2.09194 11.4613 1.79792 11.4613 1.57331 11.3469C1.37574 11.2462 1.21511 11.0856 1.11444 10.888C1 10.6634 1 10.3694 1 9.78134V6.21827ZM11.6144 5.11158C11.5 5.33619 11.5 5.63021 11.5 6.21827V9.78134C11.5 10.3694 11.5 10.6634 11.6144 10.888C11.7151 11.0856 11.8757 11.2462 12.0733 11.3469C12.2979 11.4613 12.5919 11.4613 13.18 11.4613H13.32C13.9081 11.4613 14.2021 11.4613 14.4267 11.3469C14.6243 11.2462 14.7849 11.0856 14.8856 10.888C15 10.6634 15 10.3694 15 9.78135V6.21827C15 5.63021 15 5.33619 14.8856 5.11158C14.7849 4.91401 14.6243 4.75338 14.4267 4.65271C14.2021 4.53827 13.9081 4.53827 13.32 4.53827H13.18C12.5919 4.53827 12.2979 4.53827 12.0733 4.65271C11.8757 4.75338 11.7151 4.91401 11.6144 5.11158Z" fill="white"/>
</svg>
