<svg width="16" height="16" viewBox="0 0 16 16" fill="none" xmlns="http://www.w3.org/2000/svg">
<path fill-rule="evenodd" clip-rule="evenodd" d="M2.24796 3.24217C2 3.72882 2 4.36588 2 5.64V12.36C2 13.6341 2 14.2712 2.24796 14.7578C2.46607 15.1859 2.8141 15.5339 3.24217 15.752C3.72882 16 4.36588 16 5.64 16H9.56C10.8341 16 11.4712 16 11.9578 15.752C12.3859 15.5339 12.7339 15.1859 12.952 14.7578C13.2 14.2712 13.2 13.6341 13.2 12.36V5.64C13.2 4.36588 13.2 3.72882 12.952 3.24217C12.7339 2.8141 12.3859 2.46607 11.9578 2.24796C11.4712 2 10.8341 2 9.56 2H5.64C4.36588 2 3.72882 2 3.24217 2.24796C2.8141 2.46607 2.46607 2.8141 2.24796 3.24217ZM4.1 5.50029C4.1 5.11369 4.4134 4.80029 4.8 4.80029H10.4C10.7866 4.80029 11.1 5.11369 11.1 5.50029C11.1 5.88689 10.7866 6.20029 10.4 6.20029H4.8C4.4134 6.20029 4.1 5.88689 4.1 5.50029ZM5.5 8.30029C5.5 8.68689 5.1866 9.00029 4.8 9.00029C4.4134 9.00029 4.1 8.68689 4.1 8.30029C4.1 7.91369 4.4134 7.60029 4.8 7.60029C5.1866 7.60029 5.5 7.91369 5.5 8.30029ZM5.5 10.7503C5.5 11.1369 5.1866 11.4503 4.8 11.4503C4.4134 11.4503 4.1 11.1369 4.1 10.7503C4.1 10.3637 4.4134 10.0503 4.8 10.0503C5.1866 10.0503 5.5 10.3637 5.5 10.7503ZM4.8 13.9003C5.1866 13.9003 5.5 13.5869 5.5 13.2003C5.5 12.8137 5.1866 12.5003 4.8 12.5003C4.4134 12.5003 4.1 12.8137 4.1 13.2003C4.1 13.5869 4.4134 13.9003 4.8 13.9003ZM8.3 8.30029C8.3 8.68689 7.9866 9.00029 7.6 9.00029C7.2134 9.00029 6.9 8.68689 6.9 8.30029C6.9 7.91369 7.2134 7.60029 7.6 7.60029C7.9866 7.60029 8.3 7.91369 8.3 8.30029ZM7.6 11.4503C7.9866 11.4503 8.3 11.1369 8.3 10.7503C8.3 10.3637 7.9866 10.0503 7.6 10.0503C7.2134 10.0503 6.9 10.3637 6.9 10.7503C6.9 11.1369 7.2134 11.4503 7.6 11.4503ZM8.3 13.2003C8.3 13.5869 7.9866 13.9003 7.6 13.9003C7.2134 13.9003 6.9 13.5869 6.9 13.2003C6.9 12.8137 7.2134 12.5003 7.6 12.5003C7.9866 12.5003 8.3 12.8137 8.3 13.2003ZM10.4 9.00029C10.7866 9.00029 11.1 8.68689 11.1 8.30029C11.1 7.91369 10.7866 7.60029 10.4 7.60029C10.0134 7.60029 9.7 7.91369 9.7 8.30029C9.7 8.68689 10.0134 9.00029 10.4 9.00029ZM11.1 10.7503C11.1 11.1369 10.7866 11.4503 10.4 11.4503C10.0134 11.4503 9.7 11.1369 9.7 10.7503C9.7 10.3637 10.0134 10.0503 10.4 10.0503C10.7866 10.0503 11.1 10.3637 11.1 10.7503ZM10.4 13.9003C10.7866 13.9003 11.1 13.5869 11.1 13.2003C11.1 12.8137 10.7866 12.5003 10.4 12.5003C10.0134 12.5003 9.7 12.8137 9.7 13.2003C9.7 13.5869 10.0134 13.9003 10.4 13.9003Z" fill="white"/>
</svg>
