<svg width="16" height="16" viewBox="0 0 16 16" fill="none" xmlns="http://www.w3.org/2000/svg">
<path fill-rule="evenodd" clip-rule="evenodd" d="M4.51518 1C4.79132 1 5.01518 1.22386 5.01518 1.5V2.42857H10.9849V1.5C10.9849 1.22386 11.2087 1 11.4849 1C11.761 1 11.9849 1.22386 11.9849 1.5V2.43194C12.1889 2.43744 12.3595 2.45169 12.5156 2.48844C13.3462 2.68396 13.9946 3.33245 14.1902 4.16299C14.2503 4.41849 14.2502 4.71292 14.25 5.12893C14.25 5.1502 14.25 5.1718 14.25 5.19372V11.2211C14.25 11.6932 14.25 12.0778 14.2245 12.3901C14.1982 12.7128 14.1421 13.0021 14.0048 13.2715C13.7891 13.6948 13.4449 14.039 13.0215 14.2548C12.7521 14.392 12.4629 14.4481 12.1401 14.4745C11.8279 14.5 11.4433 14.5 10.9711 14.5H5.02894C4.5568 14.5 4.17218 14.5 3.85992 14.4745C3.53718 14.4481 3.24796 14.392 2.97855 14.2548C2.55519 14.039 2.21098 13.6948 1.99527 13.2715C1.858 13.0021 1.8019 12.7128 1.77553 12.3901C1.75002 12.0778 1.75003 11.6932 1.75003 11.2211L1.75003 5.19372C1.75003 5.1718 1.75002 5.1502 1.75002 5.12892C1.74986 4.71292 1.74975 4.41848 1.8099 4.16299C2.00542 3.33245 2.65391 2.68396 3.48445 2.48844C3.64055 2.45169 3.81117 2.43744 4.01518 2.43194V1.5C4.01518 1.22386 4.23904 1 4.51518 1ZM4.51518 3.42857C4.00795 3.42857 3.84064 3.43192 3.7136 3.46183C3.25218 3.57045 2.89191 3.93073 2.78329 4.39214C2.75338 4.51918 2.75003 4.6865 2.75003 5.19372V6H13.25V5.19372C13.25 4.6865 13.2467 4.51918 13.2168 4.39214C13.1081 3.93073 12.7479 3.57045 12.2865 3.46183C12.1594 3.43192 11.9921 3.42857 11.4849 3.42857H4.51518ZM13.25 7H2.75003V11.2C2.75003 11.6983 2.75042 12.0419 2.77221 12.3087C2.79353 12.5696 2.8328 12.7125 2.88627 12.8175C3.00611 13.0527 3.19734 13.2439 3.43254 13.3638C3.53748 13.4172 3.68045 13.4565 3.94135 13.4778C4.20808 13.4996 4.55173 13.5 5.05003 13.5H10.95C11.4483 13.5 11.792 13.4996 12.0587 13.4778C12.3196 13.4565 12.4626 13.4172 12.5675 13.3638C12.8027 13.2439 12.9939 13.0527 13.1138 12.8175C13.1673 12.7125 13.2065 12.5696 13.2278 12.3087C13.2496 12.0419 13.25 11.6983 13.25 11.2V7Z" fill="white"/>
</svg>
