<svg width="16" height="16" viewBox="0 0 16 16" fill="none" xmlns="http://www.w3.org/2000/svg">
<path fill-rule="evenodd" clip-rule="evenodd" d="M4.47091 1C4.74705 1 4.97091 1.22386 4.97091 1.5V2.42857H11.0297V1.5C11.0297 1.22386 11.2536 1 11.5297 1C11.8059 1 12.0297 1.22386 12.0297 1.5V2.43159C12.2577 2.43713 12.4463 2.45258 12.6179 2.49533C13.4254 2.69654 14.0559 3.32705 14.2571 4.13457C14.3242 4.40371 14.324 4.71481 14.3239 5.15424C14.3239 5.17671 14.3239 5.19953 14.3239 5.22269V11.221C14.3239 11.6932 14.3239 12.0778 14.2983 12.3901C14.272 12.7128 14.2159 13.0021 14.0786 13.2715C13.8629 13.6948 13.5187 14.0391 13.0953 14.2548C12.8259 14.392 12.5367 14.4481 12.214 14.4745C11.9017 14.5 11.5171 14.5 11.0449 14.5H4.9557C4.48356 14.5 4.09894 14.5 3.78668 14.4745C3.46394 14.4481 3.17472 14.392 2.90531 14.2548C2.48195 14.0391 2.13774 13.6948 1.92203 13.2715C1.78476 13.0021 1.72866 12.7128 1.7023 12.3901C1.67678 12.0778 1.67679 11.6932 1.67679 11.2211L1.67679 5.22269C1.67679 5.19953 1.67678 5.17672 1.67677 5.15424C1.6766 4.71481 1.67648 4.40371 1.74355 4.13457C1.94476 3.32705 2.57527 2.69654 3.38279 2.49533C3.55433 2.45258 3.74292 2.43713 3.97091 2.43159V1.5C3.97091 1.22386 4.19477 1 4.47091 1ZM4.47091 3.42857C3.93504 3.42857 3.7584 3.43231 3.62457 3.46566C3.17595 3.57744 2.82566 3.92772 2.71388 4.37635C2.68053 4.51018 2.67679 4.68682 2.67679 5.22269V5.28571H13.3239V5.22269C13.3239 4.68682 13.3201 4.51018 13.2868 4.37635C13.175 3.92772 12.8247 3.57744 12.3761 3.46566C12.2422 3.43231 12.0656 3.42857 11.5297 3.42857H4.47091ZM13.3239 6.28571H2.67679V11.2C2.67679 11.6983 2.67718 12.0419 2.69897 12.3087C2.72029 12.5696 2.75957 12.7125 2.81303 12.8175C2.93288 13.0527 3.1241 13.2439 3.3593 13.3638C3.46424 13.4172 3.60722 13.4565 3.86811 13.4778C4.13484 13.4996 4.4785 13.5 4.97679 13.5H11.0239C11.5221 13.5 11.8658 13.4996 12.1325 13.4778C12.3934 13.4565 12.5364 13.4172 12.6413 13.3638C12.8765 13.2439 13.0678 13.0527 13.1876 12.8175C13.2411 12.7125 13.2804 12.5696 13.3017 12.3087C13.3235 12.0419 13.3239 11.6983 13.3239 11.2V6.28571Z" fill="white"/>
<path d="M2.00027 4.32847C2.00027 3.55527 2.62707 2.92847 3.40027 2.92847H12.6003C13.3735 2.92847 14.0003 3.55527 14.0003 4.32847V4.38561C14.0003 5.15881 13.3735 5.78561 12.6003 5.78561H3.40027C2.62707 5.78561 2.00027 5.15881 2.00027 4.38561V4.32847Z" fill="white"/>
</svg>
