<svg width="16" height="16" viewBox="0 0 16 16" fill="none" xmlns="http://www.w3.org/2000/svg">
<path fill-rule="evenodd" clip-rule="evenodd" d="M4.47042 1C4.74656 1 4.97042 1.22386 4.97042 1.5V2.42857H11.0292V1.5C11.0292 1.22386 11.2531 1 11.5292 1C11.8054 1 12.0292 1.22386 12.0292 1.5V2.43159C12.2572 2.43713 12.4458 2.45258 12.6174 2.49533C13.4249 2.69654 14.0554 3.32705 14.2566 4.13457C14.3237 4.40371 14.3236 4.71481 14.3234 5.15424C14.3234 5.17671 14.3234 5.19953 14.3234 5.22269V11.221C14.3234 11.6932 14.3234 12.0778 14.2979 12.3901C14.2715 12.7128 14.2154 13.0021 14.0781 13.2715C13.8624 13.6948 13.5182 14.0391 13.0948 14.2548C12.8254 14.392 12.5362 14.4481 12.2135 14.4745C11.9012 14.5 11.5166 14.5 11.0445 14.5H4.95521C4.48307 14.5 4.09845 14.5 3.78619 14.4745C3.46345 14.4481 3.17423 14.392 2.90483 14.2548C2.48146 14.0391 2.13725 13.6948 1.92154 13.2715C1.78427 13.0021 1.72818 12.7128 1.70181 12.3901C1.67629 12.0778 1.6763 11.6932 1.6763 11.2211L1.6763 5.22269C1.6763 5.19953 1.6763 5.17672 1.67629 5.15424C1.67612 4.71481 1.676 4.40371 1.74306 4.13457C1.94427 3.32705 2.57478 2.69654 3.3823 2.49533C3.55384 2.45258 3.74243 2.43713 3.97042 2.43159V1.5C3.97042 1.22386 4.19428 1 4.47042 1ZM4.47042 3.42857C3.93455 3.42857 3.75791 3.43231 3.62408 3.46566C3.17546 3.57744 2.82517 3.92772 2.71339 4.37635C2.68004 4.51018 2.6763 4.68682 2.6763 5.22269V5.28571H13.3234V5.22269C13.3234 4.68682 13.3196 4.51018 13.2863 4.37635C13.1745 3.92772 12.8242 3.57744 12.3756 3.46566C12.2418 3.43231 12.0651 3.42857 11.5292 3.42857H4.47042ZM13.3234 6.28571H2.6763V11.2C2.6763 11.6983 2.67669 12.0419 2.69849 12.3087C2.7198 12.5696 2.75908 12.7125 2.81255 12.8175C2.93239 13.0527 3.12361 13.2439 3.35882 13.3638C3.46375 13.4172 3.60673 13.4565 3.86762 13.4778C4.13436 13.4996 4.47801 13.5 4.9763 13.5H11.0234C11.5217 13.5 11.8653 13.4996 12.132 13.4778C12.3929 13.4565 12.5359 13.4172 12.6409 13.3638C12.8761 13.2439 13.0673 13.0527 13.1871 12.8175C13.2406 12.7125 13.2799 12.5696 13.3012 12.3087C13.323 12.0419 13.3234 11.6983 13.3234 11.2V6.28571Z" fill="white"/>
<path d="M1.99978 4.32847C1.99978 3.55527 2.62659 2.92847 3.39978 2.92847H12.5998C13.373 2.92847 13.9998 3.55527 13.9998 4.32847V4.38561C13.9998 5.15881 13.373 5.78561 12.5998 5.78561H3.39978C2.62658 5.78561 1.99978 5.15881 1.99978 4.38561V4.32847Z" fill="white"/>
<path d="M6.49978 11C6.49978 11.8284 5.82821 12.5 4.99978 12.5C4.17136 12.5 3.49978 11.8284 3.49978 11C3.49978 10.1716 4.17136 9.5 4.99978 9.5C5.82821 9.5 6.49978 10.1716 6.49978 11Z" fill="white"/>
</svg>
