<svg width="16" height="16" viewBox="0 0 16 16" fill="none" xmlns="http://www.w3.org/2000/svg">
<path fill-rule="evenodd" clip-rule="evenodd" d="M11.5293 1C11.8055 1 12.0293 1.22386 12.0293 1.5V2.43164C12.2573 2.43718 12.4466 2.45237 12.6182 2.49512C13.4256 2.69639 14.0557 3.32732 14.2569 4.13477C14.3239 4.40388 14.3244 4.71493 14.3242 5.1543V11.2207C14.3242 11.6926 14.3243 12.0775 14.2988 12.3896C14.2725 12.7123 14.2163 13.0021 14.0791 13.2715C13.8634 13.6948 13.519 14.0392 13.0957 14.2549C12.8263 14.3922 12.5366 14.4482 12.2139 14.4746C11.9016 14.5001 11.517 14.5 11.0449 14.5H4.95607C4.48414 14.5 4.09932 14.5001 3.78713 14.4746C3.46439 14.4482 3.1747 14.3922 2.90529 14.2549C2.48193 14.0392 2.13761 13.6948 1.92189 13.2715C1.78465 13.0021 1.72853 12.7124 1.70217 12.3896C1.67669 12.0775 1.67677 11.6926 1.67678 11.2207V5.1543C1.67661 4.71502 1.67619 4.40385 1.74318 4.13477C1.94439 3.32725 2.57531 2.69633 3.38283 2.49512C3.5543 2.4524 3.74286 2.43719 3.97072 2.43164V1.5C3.97072 1.22393 4.19468 1.00012 4.47072 1C4.74686 1 4.97072 1.22386 4.97072 1.5V2.42871H11.0293V1.5C11.0293 1.22401 11.2534 1.00025 11.5293 1ZM2.67678 6.28613V11.2002C2.67678 11.6983 2.67745 12.0419 2.69924 12.3086C2.72055 12.5695 2.76003 12.7124 2.8135 12.8174C2.93331 13.0525 3.12429 13.2434 3.35939 13.3633C3.46433 13.4168 3.60729 13.4562 3.86818 13.4775C4.13487 13.4993 4.47843 13.5 4.97658 13.5H11.0235C11.5218 13.5 11.8661 13.4993 12.1328 13.4775C12.3935 13.4562 12.5367 13.4167 12.6416 13.3633C12.8766 13.2434 13.0677 13.0525 13.1875 12.8174C13.241 12.7124 13.2805 12.5695 13.3018 12.3086C13.3236 12.0419 13.3242 11.6983 13.3242 11.2002V6.28613H2.67678Z" fill="white"/>
</svg>
