<svg width="16" height="16" viewBox="0 0 16 16" fill="none" xmlns="http://www.w3.org/2000/svg">
<path fill-rule="evenodd" clip-rule="evenodd" d="M7.30878 1.5496C7.77047 2.05955 8.09407 2.80412 8.30556 3.40964C8.31258 3.42973 8.31956 3.44964 8.32648 3.46936C8.42957 3.76336 8.5185 4.01699 8.51936 4.2796C8.51973 4.39085 8.51459 4.5025 8.48805 4.62198C8.46152 4.74146 8.41891 4.84478 8.37149 4.94542C8.29819 5.10097 8.1689 5.2539 8.03913 5.397C7.90045 5.5499 7.71061 5.74446 7.47084 5.99019L7.46322 5.998C7.1878 6.28026 6.96025 6.62905 6.88144 7.04496C6.80444 7.45129 6.85818 7.97963 7.24629 8.65184C7.63439 9.32405 8.06507 9.63476 8.45546 9.77124C8.85504 9.91094 9.27087 9.88827 9.65303 9.79089L9.66367 9.78817C9.99633 9.7034 10.2597 9.63627 10.4615 9.59263C10.6503 9.55179 10.8474 9.51629 11.0187 9.53059C11.1296 9.53983 11.2404 9.5546 11.3571 9.59136C11.4739 9.62812 11.5731 9.67949 11.6693 9.73543C11.8963 9.86749 12.0715 10.0713 12.2745 10.3076C12.2882 10.3235 12.3019 10.3394 12.3158 10.3556C12.7344 10.8415 13.2175 11.494 13.4282 12.1488C13.5354 12.4817 13.586 12.8568 13.4821 13.2256C13.3739 13.6095 13.1162 13.9231 12.7275 14.1475L12.7177 14.1532C12.2399 14.4291 11.0662 15.1069 9.5249 14.8559C7.95543 14.6004 6.16152 13.4141 4.3706 10.3121C2.57967 7.21015 2.44926 5.06342 3.01269 3.57645C3.56599 2.1162 4.73987 1.4386 5.21768 1.16279C5.221 1.16087 5.22429 1.15897 5.22755 1.15709C5.61623 0.932688 6.01663 0.866286 6.40322 0.964602C6.7745 1.05903 7.0741 1.29039 7.30878 1.5496ZM6.15675 1.93375C6.05681 1.90834 5.92259 1.91051 5.72755 2.02312C5.27132 2.28652 4.37074 2.8146 3.94781 3.93078C3.53115 5.03039 3.52754 6.8519 5.23662 9.81212C6.9457 12.7723 8.52498 13.68 9.6856 13.8689C10.8637 14.0607 11.7713 13.5449 12.2275 13.2815C12.4226 13.1688 12.4916 13.0537 12.5195 12.9544C12.5518 12.84 12.5479 12.6774 12.4763 12.4552C12.3298 12 11.9588 11.4733 11.5582 11.0083C11.2903 10.6974 11.2291 10.6362 11.1665 10.5998C11.0981 10.56 11.0718 10.5499 11.0568 10.5452C11.0417 10.5405 11.0145 10.5337 10.9356 10.5271L10.9369 10.5272C10.9369 10.5272 10.9198 10.5268 10.8764 10.5325C10.8284 10.5388 10.7629 10.5506 10.6729 10.57C10.4912 10.6093 10.2456 10.6718 9.89997 10.7599C9.39323 10.8891 8.76597 10.9392 8.12543 10.7152C7.4757 10.4881 6.86921 9.99873 6.38026 9.15184C5.89131 8.30495 5.77078 7.53505 5.89892 6.85878C6.02526 6.19208 6.38227 5.67391 6.74748 5.29963C6.99656 5.04436 7.1735 4.86291 7.29838 4.72521C7.36026 4.65698 7.40322 4.60616 7.43266 4.56773C7.45925 4.53302 7.46743 4.518 7.46743 4.518L7.4669 4.51914C7.50062 4.44757 7.50842 4.42056 7.51184 4.40516C7.51526 4.38977 7.51963 4.362 7.51937 4.28288C7.51913 4.21046 7.49683 4.12685 7.36149 3.73938C7.1591 3.15991 6.88843 2.57527 6.56747 2.22076C6.41082 2.04774 6.27199 1.96306 6.15675 1.93375Z" fill="white"/>
</svg>
