<svg width="16" height="16" viewBox="0 0 16 16" fill="none" xmlns="http://www.w3.org/2000/svg">
<path d="M5.98333 1.42977C5.7448 1.36728 5.48255 1.39865 5.19643 1.56384C4.74207 1.82616 3.71878 2.41696 3.24696 3.69973C2.77522 4.98228 2.85432 6.95712 4.60449 9.98851C6.35466 13.0199 8.02538 14.0758 9.37196 14.3085C10.7188 14.5413 11.7421 13.9505 12.1964 13.6882C12.4825 13.523 12.6408 13.3116 12.706 13.0738C12.7713 12.8352 12.7434 12.5687 12.654 12.2925C12.4756 11.7407 12.0528 11.1522 11.6466 10.6759C11.5141 10.5206 11.4239 10.4173 11.3575 10.3476C11.288 10.2745 11.2209 10.2127 11.1328 10.1605C11.0513 10.1122 10.99 10.0809 10.9252 10.0598C10.9195 10.0579 10.9137 10.0561 10.9079 10.0544C10.8248 10.0054 10.7199 9.98642 10.5872 10.0063C10.5705 10.0122 10.5534 10.018 10.536 10.0239C10.4783 10.0307 10.3974 10.0433 10.2826 10.0663C10.0853 10.1059 9.82144 10.1684 9.47032 10.2517C9.03515 10.3549 8.52724 10.3793 8.02042 10.1907C7.51361 10.002 7.00728 9.60032 6.57467 8.85103C6.14207 8.10173 6.04735 7.46238 6.13738 6.92914C6.2274 6.39589 6.50224 5.96852 6.8092 5.64325C7.05712 5.38055 7.24314 5.18343 7.37617 5.03221C7.51803 4.87092 7.57263 4.79051 7.59726 4.74964L7.59395 4.74765C7.60456 4.73069 7.61454 4.71333 7.62389 4.69555L7.62538 4.69623C7.63159 4.68261 7.63742 4.66953 7.6429 4.65691C7.6516 4.63792 7.6596 4.61849 7.66686 4.59861C7.68312 4.55629 7.69491 4.51804 7.70314 4.47898C7.71719 4.41232 7.7208 4.3436 7.71969 4.24884C7.71849 4.14645 7.6985 4.05744 7.67001 3.96064C7.64283 3.8683 7.59848 3.73861 7.5302 3.54618C7.32086 2.9562 7.02255 2.29582 6.63393 1.86537C6.43939 1.6499 6.22258 1.49244 5.98333 1.42977Z" fill="white"/>
<path fill-rule="evenodd" clip-rule="evenodd" d="M8.47306 7.7387C8.33499 7.49955 8.41692 7.19376 8.65607 7.05568L12.6204 4.76686L10.7672 4.42955C10.4955 4.3801 10.3153 4.11978 10.3648 3.8481C10.4142 3.57642 10.6746 3.39626 10.9462 3.44571L14.1395 4.02693C14.284 4.05322 14.4096 4.14169 14.483 4.26885C14.5564 4.39601 14.5702 4.54902 14.5208 4.68727L13.4275 7.74336C13.3345 8.00336 13.0483 8.13874 12.7883 8.04572C12.5283 7.9527 12.3929 7.66652 12.4859 7.40652L13.1204 5.63289L9.15607 7.92171C8.91692 8.05978 8.61113 7.97784 8.47306 7.7387Z" fill="white"/>
</svg>
