<svg width="16" height="16" viewBox="0 0 16 16" fill="none" xmlns="http://www.w3.org/2000/svg">
<path d="M11.0185 9.53101C11.1293 9.54026 11.2406 9.5548 11.3573 9.59156C11.474 9.62831 11.5737 9.67919 11.6698 9.73511C11.8967 9.86711 12.0714 10.0713 12.2743 10.3074L12.3163 10.3552C12.735 10.8411 13.2178 11.4944 13.4286 12.1492C13.5357 12.4818 13.5861 12.8568 13.4823 13.2253C13.3742 13.6093 13.1161 13.9228 12.7275 14.1472L12.7177 14.1531C12.2399 14.429 11.0664 15.107 9.5253 14.8562C8.34677 14.6643 7.04131 13.9474 5.70597 12.2888L6.41691 11.5769C7.66503 13.1589 8.79782 13.7243 9.68546 13.8689C10.8636 14.0607 11.7712 13.5444 12.2275 13.281C12.4222 13.1686 12.4914 13.054 12.5194 12.9548C12.5517 12.8404 12.548 12.677 12.4765 12.4548C12.3299 11.9998 11.959 11.4734 11.5585 11.0086C11.2907 10.6977 11.2295 10.6358 11.1669 10.5994C11.0985 10.5596 11.0716 10.5504 11.0566 10.5457C11.0415 10.5409 11.014 10.5337 10.9355 10.5271C10.9304 10.5272 10.9121 10.5284 10.8769 10.533C10.8289 10.5392 10.7628 10.5506 10.6728 10.5701C10.4911 10.6094 10.2456 10.6715 9.9003 10.7595C9.39367 10.8886 8.76629 10.9394 8.12589 10.7156C7.93162 10.6477 7.74111 10.5556 7.55655 10.4382L8.29093 9.70386C8.34644 9.73002 8.40179 9.7523 8.45597 9.77125C8.85545 9.91081 9.27119 9.88814 9.65323 9.79078L9.66398 9.78785C9.99652 9.7031 10.2601 9.63616 10.4618 9.59254C10.6504 9.55174 10.8473 9.5168 11.0185 9.53101Z" fill="white"/>
<path fill-rule="evenodd" clip-rule="evenodd" d="M5.22745 1.15699C5.6161 0.932602 6.01668 0.866327 6.40323 0.964605C6.77441 1.059 7.07386 1.29045 7.30851 1.54957C7.7702 2.05952 8.09409 2.8044 8.30558 3.40992L8.32706 3.46949C8.43012 3.76339 8.51858 4.0175 8.51944 4.28003C8.51979 4.3911 8.51467 4.50256 8.48819 4.62183C8.4617 4.74113 8.41933 4.84457 8.37198 4.94507C8.29868 5.10062 8.16875 5.25413 8.03898 5.39722C7.90033 5.55008 7.71023 5.74443 7.47062 5.99L7.46378 5.99781C7.18843 6.28 6.96062 6.62892 6.88175 7.04468C6.82458 7.3464 6.83931 7.71568 7.00968 8.16089L13.5253 1.64625C13.7206 1.45098 14.038 1.45098 14.2333 1.64625C14.4283 1.84139 14.4281 2.15803 14.2333 2.35328L2.35343 14.2332C2.1582 14.4283 1.84164 14.4283 1.6464 14.2332C1.45117 14.0379 1.45123 13.7214 1.6464 13.5261L4.5546 10.6169C4.49438 10.5169 4.43123 10.4166 4.37101 10.3123C2.58027 7.21061 2.44938 5.06386 3.01261 3.57691C3.56587 2.11677 4.73981 1.43869 5.21769 1.16285L5.22745 1.15699ZM6.15714 1.93336C6.0572 1.90794 5.92249 1.91059 5.72745 2.0232C5.27122 2.28661 4.37109 2.81468 3.94816 3.93043C3.5315 5.03004 3.52814 6.85204 5.23722 9.81226C5.25203 9.83791 5.26735 9.86309 5.28214 9.88843L6.2548 8.91578C5.87297 8.16123 5.78322 7.4722 5.89933 6.85914C6.02566 6.19244 6.38275 5.67385 6.74796 5.29957C6.99692 5.04441 7.1739 4.86301 7.29874 4.72535C7.3604 4.65735 7.4031 4.6065 7.43253 4.56812C7.4575 4.53553 7.46769 4.51832 7.46769 4.51832L7.46671 4.51929C7.50044 4.44772 7.50821 4.42043 7.51163 4.40503C7.51505 4.38963 7.5197 4.36191 7.51944 4.28296C7.51921 4.21054 7.49657 4.12649 7.36124 3.73902C7.15886 3.1597 6.88818 2.57488 6.5673 2.22046C6.41083 2.04773 6.27228 1.96268 6.15714 1.93336Z" fill="white"/>
</svg>
