<svg width="16" height="16" viewBox="0 0 16 16" fill="none" xmlns="http://www.w3.org/2000/svg">
<path d="M5.19623 1.56362C5.48235 1.39843 5.7448 1.36735 5.98334 1.42983C6.22251 1.49254 6.43923 1.64995 6.63373 1.86538C7.02232 2.29583 7.32088 2.9561 7.53021 3.54605C7.59839 3.7382 7.64268 3.8678 7.66986 3.96011C7.69831 4.05676 7.71841 4.146 7.71966 4.24819C7.72078 4.3429 7.71709 4.41203 7.70306 4.47866C7.69483 4.51772 7.68318 4.55646 7.66693 4.59878C7.65971 4.61851 7.65115 4.63755 7.64252 4.6564C7.63704 4.66902 7.63114 4.68281 7.62494 4.69644L7.62396 4.69546C7.61463 4.7132 7.60426 4.73029 7.59369 4.74722L7.59759 4.74917C7.57297 4.79004 7.51778 4.87109 7.37591 5.03237C7.24297 5.18349 7.0571 5.38037 6.80951 5.64272C6.50257 5.96797 6.22768 6.39567 6.13763 6.92886C6.05428 7.42256 6.13134 8.00605 6.48627 8.68472L13.5253 1.64663C13.7206 1.45137 14.0381 1.45137 14.2333 1.64663C14.4281 1.8419 14.4284 2.15854 14.2333 2.35366L2.35345 14.2326C2.15819 14.4278 1.84168 14.4278 1.64642 14.2326C1.45121 14.0373 1.45118 13.7208 1.64642 13.5255L4.81927 10.3517C4.74776 10.2339 4.67623 10.1128 4.60443 9.98843C2.85426 6.95704 2.77527 4.98191 3.24701 3.69937C3.71883 2.41679 4.74186 1.82595 5.19623 1.56362Z" fill="white"/>
<path d="M10.5869 10.006C10.7195 9.98611 10.8251 10.0048 10.9081 10.0539L10.9247 10.0597C10.9895 10.0809 11.0512 10.112 11.1327 10.1603C11.2208 10.2125 11.2878 10.2747 11.3574 10.3478C11.4237 10.4175 11.514 10.5207 11.6464 10.6759C12.0526 11.1522 12.4758 11.7404 12.6542 12.2921C12.7436 12.5683 12.7713 12.8349 12.706 13.0734C12.6408 13.3112 12.4823 13.5225 12.1962 13.6876C11.7419 13.95 10.7187 14.5414 9.37201 14.3087C8.38423 14.138 7.22141 13.5243 5.98138 12.0128L7.86712 10.1271C7.91802 10.1505 7.96947 10.1716 8.02044 10.1906C8.52722 10.3792 9.03551 10.3543 9.47064 10.2511C9.82127 10.168 10.0849 10.1061 10.2822 10.0666C10.397 10.0435 10.4784 10.0304 10.5361 10.0236C10.5534 10.0177 10.5703 10.0118 10.5869 10.006Z" fill="white"/>
</svg>
