<svg width="16" height="16" viewBox="0 0 16 16" fill="none" xmlns="http://www.w3.org/2000/svg">
<path fill-rule="evenodd" clip-rule="evenodd" d="M2.0249 7.9999C2.0249 4.7 4.7 2.0249 7.9999 2.0249C11.2998 2.0249 13.9749 4.7 13.9749 7.9999C13.9749 11.2998 11.2998 13.9749 7.9999 13.9749C4.7 13.9749 2.0249 11.2998 2.0249 7.9999ZM7.9999 1.0249C4.14772 1.0249 1.0249 4.14772 1.0249 7.9999C1.0249 11.8521 4.14772 14.9749 7.9999 14.9749C11.8521 14.9749 14.9749 11.8521 14.9749 7.9999C14.9749 4.14772 11.8521 1.0249 7.9999 1.0249ZM10.4697 9.67349C11.2088 9.80999 12.1999 9.84571 12.1999 9.05553C12.1999 8.42553 12.1999 5.90281 7.99991 5.90281C3.79991 5.90281 3.79992 8.42553 3.79992 9.05552C3.79993 9.8457 4.791 9.80999 5.5301 9.67349C5.75058 9.63277 5.86082 9.61241 5.95206 9.56115C6.05225 9.50486 6.08947 9.47147 6.15624 9.37793C6.21704 9.29275 6.27919 9.08507 6.40347 8.66971C6.55727 8.1557 6.96183 7.58553 7.99991 7.58553C9.03798 7.58553 9.44255 8.15571 9.59635 8.66971C9.72064 9.08508 9.78278 9.29275 9.84358 9.37793C9.91036 9.47147 9.94757 9.50486 10.0478 9.56115C10.139 9.61241 10.2493 9.63277 10.4697 9.67349Z" fill="white"/>
</svg>
