<svg width="16" height="16" viewBox="0 0 16 16" fill="none" xmlns="http://www.w3.org/2000/svg">
<path fill-rule="evenodd" clip-rule="evenodd" d="M2.0249 7.9999C2.0249 4.7 4.7 2.0249 7.9999 2.0249C11.2998 2.0249 13.9749 4.7 13.9749 7.9999C13.9749 11.2998 11.2998 13.9749 7.9999 13.9749C4.7 13.9749 2.0249 11.2998 2.0249 7.9999ZM7.9999 1.0249C4.14772 1.0249 1.0249 4.14772 1.0249 7.9999C1.0249 11.8521 4.14772 14.9749 7.9999 14.9749C11.8521 14.9749 14.9749 11.8521 14.9749 7.9999C14.9749 4.14772 11.8521 1.0249 7.9999 1.0249ZM7.18949 5.31724C6.76339 4.6981 6.08785 3.97204 5.52911 4.53078C5.08363 4.97626 3.2998 6.76009 6.26964 9.72994C9.23949 12.6998 11.0233 10.9159 11.4688 10.4705C12.0275 9.91172 11.3015 9.23618 10.6823 8.81008C10.4976 8.68297 10.4053 8.61942 10.3045 8.59115C10.1939 8.5601 10.144 8.5574 10.0306 8.57632C9.92737 8.59356 9.73658 8.69647 9.35499 8.90229C8.88278 9.157 8.19354 9.2741 7.45951 8.54007C6.72548 7.80604 6.84258 7.1168 7.09729 6.64458C7.3031 6.263 7.40602 6.0722 7.42325 5.96898C7.44217 5.85562 7.43947 5.80569 7.40843 5.69504C7.38016 5.59428 7.3166 5.50193 7.18949 5.31724Z" fill="white"/>
</svg>
