<svg width="16" height="16" viewBox="0 0 16 16" fill="none" xmlns="http://www.w3.org/2000/svg">
<path fill-rule="evenodd" clip-rule="evenodd" d="M8.30581 3.40964C8.09432 2.80412 7.77072 2.05955 7.30902 1.5496C7.07435 1.29039 6.77475 1.05903 6.40346 0.964602C6.01688 0.866286 5.61648 0.932688 5.22779 1.15709L5.21793 1.16279C4.74012 1.4386 3.56623 2.1162 3.01293 3.57645C2.4495 5.06342 2.57992 7.21015 4.37084 10.3121C4.61515 10.7353 4.85951 11.1228 5.10335 11.4771L5.82315 10.7573C5.62975 10.4683 5.43417 10.1539 5.23687 9.81212C3.52778 6.8519 3.5314 5.03039 3.94805 3.93078C4.37098 2.8146 5.27156 2.28652 5.72779 2.02312C5.92283 1.91051 6.05705 1.90834 6.15699 1.93375C6.27223 1.96306 6.41106 2.04774 6.56771 2.22076C6.88867 2.57527 7.15934 3.15991 7.36174 3.73938C7.49707 4.12685 7.51937 4.21046 7.51961 4.28288C7.51987 4.362 7.5155 4.38977 7.51208 4.40516C7.50866 4.42056 7.50087 4.44757 7.46714 4.51914L7.46767 4.518C7.46767 4.518 7.4595 4.53302 7.4329 4.56773C7.40346 4.60616 7.3605 4.65698 7.29862 4.72521C7.17374 4.86291 6.9968 5.04436 6.74773 5.29963C6.38252 5.67391 6.0255 6.19208 5.89917 6.85878C5.77102 7.53505 5.89155 8.30495 6.3805 9.15184C6.51498 9.38476 6.65834 9.59063 6.80905 9.77144L7.52 9.06049C7.42726 8.94187 7.33577 8.80641 7.24653 8.65184C6.85843 7.97963 6.80469 7.45129 6.88168 7.04496C6.96049 6.62905 7.18804 6.28026 7.46346 5.998L7.47111 5.99016C7.71085 5.74446 7.90071 5.54989 8.03937 5.397C8.16914 5.2539 8.29843 5.10097 8.37173 4.94542C8.41916 4.84478 8.46176 4.74146 8.4883 4.62198C8.51483 4.5025 8.51997 4.39085 8.51961 4.2796C8.51874 4.01699 8.42981 3.76336 8.32672 3.46936L8.30581 3.40964ZM8.29092 9.70379L7.55624 10.4385C7.74086 10.5559 7.93133 10.6473 8.12568 10.7152C8.76622 10.9392 9.39347 10.8891 9.90022 10.7599C10.2458 10.6718 10.4914 10.6093 10.6731 10.57C10.7632 10.5506 10.8286 10.5388 10.8766 10.5325C10.919 10.5269 10.9371 10.5272 10.9371 10.5272L10.9359 10.5271C11.0147 10.5337 11.042 10.5405 11.057 10.5452C11.0721 10.5499 11.0983 10.56 11.1667 10.5998C11.2293 10.6362 11.2906 10.6974 11.5584 11.0083C11.9591 11.4733 12.3301 12 12.4766 12.4552C12.5481 12.6774 12.552 12.84 12.5198 12.9544C12.4918 13.0537 12.4228 13.1688 12.2278 13.2815C11.7716 13.5449 10.8639 14.0607 9.68583 13.8689C8.79816 13.7244 7.66558 13.1595 6.41734 11.5774L5.70607 12.2886C7.04145 13.9473 8.34657 14.664 9.52513 14.8559C11.0664 15.1069 12.2402 14.4291 12.7179 14.1532L12.7278 14.1475C13.1165 13.9231 13.3742 13.6095 13.4823 13.2256C13.5862 12.8568 13.5356 12.4817 13.4285 12.1488C13.2177 11.494 12.7347 10.8415 12.316 10.3556L12.2748 10.3076C12.0717 10.0713 11.8965 9.86749 11.6695 9.73543C11.5734 9.67949 11.4741 9.62812 11.3574 9.59136C11.2406 9.5546 11.1298 9.53983 11.019 9.53059C10.8476 9.51629 10.6505 9.55179 10.4617 9.59263C10.26 9.63627 9.99661 9.70339 9.66397 9.78816L9.65327 9.79089C9.27112 9.88828 8.85529 9.91094 8.4557 9.77125C8.40148 9.75229 8.34647 9.72997 8.29092 9.70379Z" fill="white"/>
<path fill-rule="evenodd" clip-rule="evenodd" d="M14.2329 1.64645C14.4282 1.84171 14.4282 2.15829 14.2329 2.35355L2.35355 14.2329C2.15829 14.4282 1.84171 14.4282 1.64645 14.2329C1.45118 14.0377 1.45118 13.7211 1.64645 13.5258L13.5258 1.64645C13.7211 1.45118 14.0377 1.45118 14.2329 1.64645Z" fill="white"/>
</svg>
