<svg width="16" height="16" viewBox="0 0 16 16" fill="none" xmlns="http://www.w3.org/2000/svg">
<path fill-rule="evenodd" clip-rule="evenodd" d="M1.92526 4.50099C2.86661 3.37136 4.65865 2.5 7.97499 2.5C11.2913 2.5 13.0834 3.37137 14.0247 4.50099C14.9502 5.61151 14.9501 6.85714 14.95 7.35979V7.3706C14.95 7.77639 14.8225 8.12547 14.5708 8.39199C14.329 8.64804 14.0124 8.78572 13.7044 8.85892C13.1005 9.00251 12.3751 8.93368 11.7974 8.83385C11.7777 8.83045 11.7582 8.82711 11.7389 8.82379C11.4472 8.77373 11.1948 8.73042 10.971 8.61014C10.8776 8.5599 10.7836 8.50512 10.6927 8.4273C10.6018 8.34948 10.5332 8.26508 10.4692 8.18049C10.3672 8.04578 10.2893 7.85526 10.2196 7.66902C10.1439 7.46701 10.0519 7.19476 9.93473 6.84806L9.93152 6.83856C9.82444 6.52167 9.64798 6.22146 9.36199 5.99923C9.08034 5.78038 8.6505 5.60435 7.97499 5.60435C7.29948 5.60435 6.86965 5.78038 6.588 5.99923C6.30201 6.22145 6.12556 6.52166 6.01847 6.83855L6.01525 6.8481C5.8981 7.19478 5.80611 7.46701 5.73044 7.66901C5.66067 7.85526 5.58283 8.04578 5.48084 8.18049C5.41681 8.26508 5.34819 8.34948 5.25729 8.4273C5.16638 8.50512 5.07241 8.5599 4.97897 8.61014C4.75521 8.73042 4.50281 8.77373 4.21107 8.82379C4.19175 8.82711 4.17226 8.83045 4.15259 8.83385C3.57487 8.93368 2.84951 9.0025 2.24556 8.85892C1.93765 8.78572 1.62104 8.64803 1.37922 8.39198C1.1275 8.12546 1 7.77638 1 7.37059L1 7.35977C0.999951 6.85712 0.999828 5.6115 1.92526 4.50099ZM2.69348 5.14117C2.00688 5.96509 2 6.89474 2 7.37059C2 7.55626 2.0526 7.64857 2.10622 7.70535C2.16974 7.7726 2.28374 7.84013 2.47685 7.88604C2.87493 7.98068 3.4333 7.94332 3.98232 7.84845C4.36499 7.78233 4.44351 7.76265 4.50548 7.72934C4.58074 7.68888 4.59895 7.6745 4.60696 7.66764C4.61488 7.66086 4.63165 7.64533 4.68204 7.57889C4.68204 7.57889 4.69166 7.56401 4.7107 7.523C4.7325 7.47604 4.75957 7.41011 4.79398 7.31823C4.86324 7.13335 4.95005 6.87663 5.0711 6.51842C5.22265 6.06996 5.49374 5.5831 5.97442 5.20959C6.45944 4.83271 7.11539 4.60435 7.97499 4.60435C8.83459 4.60435 9.49055 4.83271 9.97557 5.2096C10.4563 5.5831 10.7273 6.06997 10.8789 6.51842C10.9999 6.87664 11.0868 7.13336 11.156 7.31823C11.1904 7.41011 11.2175 7.47604 11.2393 7.523C11.2583 7.56401 11.268 7.57889 11.268 7.57889C11.3183 7.64532 11.3351 7.66086 11.343 7.66764C11.351 7.6745 11.3693 7.68888 11.4445 7.72934C11.5065 7.76265 11.585 7.78233 11.9677 7.84845C12.5167 7.94332 13.0751 7.98068 13.4732 7.88604C13.6663 7.84013 13.7803 7.77261 13.8438 7.70536C13.8974 7.64858 13.95 7.55627 13.95 7.3706C13.95 6.89475 13.9431 5.9651 13.2565 5.14117C12.5791 4.32831 11.1337 3.5 7.97499 3.5C4.81633 3.5 3.37087 4.32831 2.69348 5.14117Z" fill="white"/>
<path fill-rule="evenodd" clip-rule="evenodd" d="M6.76778 9.31068L9.68933 12.2322C10.1896 11.414 10.0857 10.3305 9.3776 9.6224C8.66952 8.91431 7.58604 8.8104 6.76778 9.31068ZM8.98222 12.9393L6.06068 10.0178C5.56041 10.836 5.66431 11.9195 6.3724 12.6276C7.08049 13.3357 8.16396 13.4396 8.98222 12.9393ZM5.66529 8.91529C6.88568 7.6949 8.86432 7.6949 10.0847 8.91529C11.3051 10.1357 11.3051 12.1143 10.0847 13.3347C8.86432 14.5551 6.88568 14.5551 5.66529 13.3347C4.4449 12.1143 4.4449 10.1357 5.66529 8.91529Z" fill="white"/>
</svg>
