<svg width="16" height="16" viewBox="0 0 16 16" fill="none" xmlns="http://www.w3.org/2000/svg">
<path fill-rule="evenodd" clip-rule="evenodd" d="M8.00002 7.19988C8.27616 7.19988 8.50002 7.42374 8.50002 7.69988V12.2775L9.71877 10.8412C9.89744 10.6306 10.213 10.6048 10.4235 10.7835C10.6341 10.9621 10.6599 11.2776 10.4813 11.4882L8.38127 13.9631C8.28627 14.075 8.14685 14.1396 8.00002 14.1396C7.85319 14.1396 7.71377 14.075 7.61877 13.9631L5.51877 11.4882C5.34011 11.2776 5.36597 10.9621 5.57652 10.7835C5.78708 10.6048 6.1026 10.6306 6.28127 10.8412L7.50002 12.2775V7.69988C7.50002 7.42374 7.72388 7.19988 8.00002 7.19988Z" fill="white"/>
<path d="M14.6826 8.04966C14.856 7.87432 14.96 7.63153 14.96 7.30114C14.96 6.77649 14.96 5.5949 14.085 4.54491C13.2101 3.49509 11.4603 2.57617 7.95995 2.57617C4.45961 2.57617 2.7098 3.49509 1.83495 4.54491C0.959961 5.59489 0.959962 6.77649 0.959961 7.30114C0.959963 7.63152 1.06392 7.87432 1.23731 8.04965C1.4112 8.2255 1.65596 8.33454 1.93984 8.39528C2.50692 8.51662 3.22799 8.44477 3.84359 8.33108C4.04438 8.294 4.17887 8.26756 4.27243 8.24493C4.37051 8.2212 4.45759 8.194 4.54686 8.14385C4.62947 8.09744 4.68718 8.05996 4.73789 8.01445C4.74238 8.01042 4.74682 8.00633 4.75121 8.00216C4.83519 7.95473 4.90408 7.87327 4.95317 7.74846C4.95645 7.73108 4.95992 7.71335 4.96356 7.69528C4.98647 7.64196 5.01605 7.56558 5.05352 7.45466C5.11793 7.26397 5.19565 7.00422 5.2991 6.65851C5.42731 6.23003 5.66012 5.77796 6.07691 5.43337C6.49369 5.08879 7.09474 4.85114 7.95995 4.85114C8.82516 4.85114 9.42621 5.08879 9.843 5.43337C10.2598 5.77797 10.4925 6.22967 10.6207 6.65814C10.7243 7.00419 10.8019 7.26385 10.8664 7.45467C10.9351 7.65817 10.9775 7.74566 11.0006 7.78742L11.0039 7.78556C11.0133 7.80322 11.0234 7.82055 11.0341 7.83753L11.0328 7.83848C11.0414 7.85067 11.0499 7.86225 11.0581 7.87331C11.0701 7.89034 11.083 7.90699 11.0966 7.92322C11.1251 7.95845 11.1523 7.98779 11.182 8.01445C11.2327 8.05995 11.2904 8.09743 11.3731 8.14385C11.4623 8.194 11.5494 8.2212 11.6475 8.24493C11.741 8.26756 11.8755 8.294 12.0763 8.33108C12.6919 8.44477 13.413 8.51662 13.9801 8.39528C14.264 8.33455 14.5087 8.22551 14.6826 8.04966Z" fill="white"/>
</svg>
