<svg width="16" height="16" viewBox="0 0 16 16" fill="none" xmlns="http://www.w3.org/2000/svg">
<path fill-rule="evenodd" clip-rule="evenodd" d="M7.55263 3.60967C7.66502 3.53805 7.79553 3.5 7.9288 3.5H9.8962C10.4761 3.5 10.9462 3.9701 10.9462 4.55V6.49697H10.9424V6.76532L13.7676 5.51898C14.2303 5.31486 14.7501 5.65371 14.7501 6.15943V10.3644C14.7501 10.8701 14.2303 11.209 13.7676 11.0048L10.9424 9.7585V11.0971C10.9424 11.8703 10.3156 12.4971 9.54238 12.4971H2.65C1.8768 12.4971 1.25 11.8703 1.25 11.0971V5.42676C1.25 4.65356 1.8768 4.02676 2.65 4.02676H6.89809L7.55263 3.60967ZM2.65 5.02676C2.42909 5.02676 2.25 5.20585 2.25 5.42676V11.0971C2.25 11.318 2.42909 11.4971 2.65 11.4971H9.54238C9.76329 11.4971 9.94238 11.318 9.94238 11.0971V5.42676C9.94238 5.20585 9.76329 5.02676 9.54238 5.02676H2.65ZM11 7.88755L13.7001 6.69638V9.82745L11 8.63627V7.88755Z" fill="white"/>
<path d="M7.5 8.25C7.5 9.07843 6.82843 9.75 6 9.75C5.17157 9.75 4.5 9.07843 4.5 8.25C4.5 7.42157 5.17157 6.75 6 6.75C6.82843 6.75 7.5 7.42157 7.5 8.25Z" fill="white"/>
</svg>
