<svg width="16" height="16" viewBox="0 0 16 16" fill="none" xmlns="http://www.w3.org/2000/svg">
<path fill-rule="evenodd" clip-rule="evenodd" d="M10.9462 5.63433V4.55C10.9462 3.9701 10.4761 3.5 9.89616 3.5H7.93882C7.79301 3.5 7.65085 3.54553 7.53217 3.63023L6.97657 4.02676H2.65C1.8768 4.02676 1.25 4.65356 1.25 5.42676V11.0971C1.25 11.8703 1.8768 12.4971 2.65 12.4971H4.08342L10.9462 5.63433ZM5.49763 12.4971H9.54238C10.3156 12.4971 10.9424 11.8703 10.9424 11.0971V7.05233L5.49763 12.4971ZM2.63452 5.43838H4.63452V6.68838H2.63452V5.43838ZM14.2297 5.37448L11.9806 6.62529V9.89791L14.2297 11.1487C14.463 11.2785 14.7499 11.1098 14.7499 10.8428V5.68036C14.7499 5.41342 14.463 5.24474 14.2297 5.37448Z" fill="white"/>
<path fill-rule="evenodd" clip-rule="evenodd" d="M14.2329 1.64645C14.4282 1.84171 14.4282 2.15829 14.2329 2.35355L2.35355 14.2329C2.15829 14.4282 1.84171 14.4282 1.64645 14.2329C1.45118 14.0377 1.45118 13.7211 1.64645 13.5258L13.5258 1.64645C13.7211 1.45118 14.0377 1.45118 14.2329 1.64645Z" fill="white"/>
</svg>
