<svg width="16" height="16" viewBox="0 0 16 16" fill="none" xmlns="http://www.w3.org/2000/svg">
<path fill-rule="evenodd" clip-rule="evenodd" d="M12.7642 3.81657C12.4757 3.7997 12.1308 3.79971 11.7194 3.79971L11.609 3.79971C11.5423 3.79971 11.4721 3.77547 11.3832 3.69218C11.2872 3.60233 11.193 3.46366 11.1032 3.28742C10.921 2.92991 10.6303 2.63925 10.2728 2.45709C10.0409 2.33889 9.79486 2.29234 9.53049 2.27074C9.27656 2.24999 8.96536 2.24999 8.59072 2.25H7.40974C7.0351 2.24999 6.72388 2.24999 6.46995 2.27074C6.20558 2.29234 5.95958 2.33889 5.7276 2.45709C5.3701 2.63925 5.07943 2.92991 4.89727 3.28742C4.80748 3.46366 4.71319 3.60233 4.61727 3.69218C4.52834 3.77547 4.4581 3.79971 4.39148 3.79971L4.28088 3.79971C3.80873 3.79971 3.42411 3.7997 3.11184 3.82522C2.7891 3.85158 2.49988 3.90768 2.23048 4.04495C1.80711 4.26066 1.4629 4.60487 1.24719 5.02823C1.10992 5.29764 1.05383 5.58686 1.02746 5.9096C1.00194 6.22186 1.00195 6.60648 1.00195 7.07862V10.4726C1.00195 10.9447 1.00194 11.3293 1.02746 11.6416C1.05383 11.9643 1.10992 12.2536 1.24719 12.523C1.4629 12.9463 1.80711 13.2905 2.23047 13.5063C2.43382 13.6099 2.64845 13.6672 2.88026 13.7005L3.8303 12.7504C3.5715 12.7486 3.36622 12.7434 3.19327 12.7293C2.93238 12.708 2.7894 12.6687 2.68447 12.6152C2.44926 12.4954 2.25804 12.3042 2.1382 12.069C2.08473 11.964 2.04545 11.8211 2.02414 11.5602C2.00234 11.2934 2.00195 10.9498 2.00195 10.4515V7.09971C2.00195 6.60142 2.00234 6.25776 2.02414 5.99103C2.04545 5.73014 2.08473 5.58716 2.1382 5.48222C2.25804 5.24702 2.44926 5.0558 2.68447 4.93595C2.7894 4.88249 2.93238 4.84321 3.19327 4.82189C3.46001 4.8001 3.80366 4.79971 4.30195 4.79971H4.39148C5.15993 4.79971 5.58247 4.14533 5.78828 3.74141C5.87457 3.57206 6.01225 3.43438 6.18159 3.34809C6.2491 3.3137 6.34885 3.28396 6.55138 3.26741C6.75975 3.25039 7.0299 3.25 7.43019 3.25H8.57026C8.97054 3.25 9.24069 3.25039 9.44906 3.26741C9.65159 3.28396 9.75134 3.3137 9.81885 3.3481C9.98819 3.43438 10.1259 3.57206 10.2122 3.74141C10.418 4.14533 10.8405 4.79971 11.609 4.79971H11.6984C11.7264 4.79971 11.7539 4.79971 11.781 4.79972L12.7642 3.81657ZM13.8863 4.10867L13.1265 4.86843C13.2048 4.88729 13.2648 4.90994 13.3159 4.93595C13.5511 5.0558 13.7423 5.24702 13.8621 5.48222C13.9156 5.58716 13.9549 5.73014 13.9762 5.99103C13.998 6.25776 13.9984 6.60142 13.9984 7.09971V10.4515C13.9984 10.9498 13.998 11.2934 13.9762 11.5602C13.9549 11.8211 13.9156 11.964 13.8621 12.069C13.7423 12.3042 13.5511 12.4954 13.3159 12.6152C13.2109 12.6687 13.0679 12.708 12.807 12.7293C12.5403 12.7511 12.1967 12.7515 11.6984 12.7515H5.24346L4.24346 13.7515C4.25585 13.7515 4.26829 13.7515 4.28081 13.7515H11.7195C12.1916 13.7515 12.5762 13.7515 12.8885 13.726C13.2112 13.6996 13.5004 13.6435 13.7698 13.5063C14.1932 13.2905 14.5374 12.9463 14.7531 12.523C14.8904 12.2536 14.9465 11.9643 14.9729 11.6416C14.9984 11.3293 14.9984 10.9447 14.9984 10.4726V7.07863C14.9984 6.60648 14.9984 6.22186 14.9729 5.9096C14.9465 5.58686 14.8904 5.29764 14.7531 5.02823C14.5576 4.64438 14.2563 4.32561 13.8863 4.10867ZM6.6044 11.3905C7.01181 11.5744 7.46393 11.6768 7.93994 11.6768C9.73487 11.6768 11.1899 10.2217 11.1899 8.42676C11.1899 7.95074 11.0876 7.49863 10.9037 7.09122L10.1214 7.87353C10.1662 8.05052 10.1899 8.23586 10.1899 8.42676C10.1899 9.6694 9.18258 10.6768 7.93994 10.6768C7.74905 10.6768 7.5637 10.653 7.38671 10.6082L6.6044 11.3905ZM9.63437 6.94637C9.22193 6.47469 8.61573 6.17676 7.93994 6.17676C6.6973 6.17676 5.68994 7.18412 5.68994 8.42676C5.68994 9.10255 5.98787 9.70875 6.45955 10.1212L5.75134 10.8294C5.09919 10.235 4.68994 9.37867 4.68994 8.42676C4.68994 6.63183 6.14502 5.17676 7.93994 5.17676C8.89185 5.17676 9.74818 5.58601 10.3426 6.23816L9.63437 6.94637ZM11.5396 6.45538C11.6273 6.77222 11.9177 7.00484 12.2625 7.00484C12.6767 7.00484 13.0125 6.66905 13.0125 6.25484C13.0125 5.91008 12.7798 5.61966 12.463 5.53195L11.5396 6.45538Z" fill="white"/>
<path fill-rule="evenodd" clip-rule="evenodd" d="M14.2332 1.64645C14.4285 1.84171 14.4285 2.15829 14.2332 2.35355L2.3538 14.2329C2.15854 14.4282 1.84195 14.4282 1.64669 14.2329C1.45143 14.0377 1.45143 13.7211 1.64669 13.5258L13.5261 1.64645C13.7213 1.45118 14.0379 1.45118 14.2332 1.64645Z" fill="white"/>
</svg>
