<svg width="16" height="16" viewBox="0 0 16 16" fill="none" xmlns="http://www.w3.org/2000/svg">
<path fill-rule="evenodd" clip-rule="evenodd" d="M7.53217 3.63023C7.65085 3.54553 7.79301 3.5 7.93882 3.5H9.89616C10.4761 3.5 10.9462 3.9701 10.9462 4.55V6.49697H10.9424V11.0971C10.9424 11.8703 10.3156 12.4971 9.54238 12.4971H2.65C1.8768 12.4971 1.25 11.8703 1.25 11.0971V5.42676C1.25 4.65356 1.8768 4.02676 2.65 4.02676H6.97657L7.53217 3.63023ZM4.63452 5.43838H2.63452V6.68838H4.63452V5.43838ZM11.9806 6.62529L14.2297 5.37448C14.463 5.24474 14.7499 5.41342 14.7499 5.68036V10.8428C14.7499 11.1098 14.463 11.2785 14.2297 11.1487L11.9806 9.89791V6.62529Z" fill="white"/>
</svg>
