<svg width="16" height="16" viewBox="0 0 16 16" fill="none" xmlns="http://www.w3.org/2000/svg">
<path fill-rule="evenodd" clip-rule="evenodd" d="M12.7676 3.81286C12.4732 3.79477 12.1196 3.79477 11.697 3.79478L11.6248 3.79478C11.5602 3.79478 11.4912 3.77213 11.4015 3.68919C11.3043 3.59922 11.2081 3.45976 11.1152 3.2809C10.9306 2.92564 10.6361 2.6368 10.2739 2.45579C10.0378 2.3378 9.78819 2.29173 9.52227 2.27042C9.26731 2.24999 8.95522 2.24999 8.58132 2.25H7.4187C7.0448 2.24999 6.73269 2.24999 6.47773 2.27042C6.21181 2.29173 5.96215 2.3378 5.72607 2.45579C5.36386 2.6368 5.06937 2.92564 4.88481 3.2809C4.7919 3.45976 4.69573 3.59922 4.59845 3.68919C4.50877 3.77213 4.43979 3.79478 4.37518 3.79478L4.30301 3.79478C3.83164 3.79477 3.44615 3.79477 3.13285 3.81987C2.80857 3.84586 2.51569 3.90129 2.24217 4.03798C1.8141 4.25191 1.46607 4.59326 1.24796 5.01311C1.1086 5.28138 1.05208 5.56864 1.02559 5.8867C0.99999 6.19398 0.999994 6.57207 1 7.03439V10.5104C0.999994 10.9727 0.99999 11.3508 1.02559 11.6581C1.05208 11.9761 1.1086 12.2634 1.24796 12.5317C1.46607 12.9515 1.8141 13.2929 2.24217 13.5068C2.44372 13.6075 2.65577 13.6641 2.88316 13.6973L5.75282 10.8277C5.10563 10.2336 4.69995 9.38059 4.69995 8.43284C4.69995 6.63791 6.15503 5.18284 7.94995 5.18284C8.89771 5.18284 9.75071 5.58852 10.3448 6.2357L12.7676 3.81286ZM13.8869 4.10776L12.8226 5.17211C12.848 5.16938 12.8738 5.16797 12.9 5.16797C13.2866 5.16797 13.6 5.47536 13.6 5.85454C13.6 6.23372 13.2866 6.5411 12.9 6.5411C12.5134 6.5411 12.2 6.23372 12.2 5.85454C12.2 5.83341 12.2009 5.81251 12.2028 5.79188L10.9086 7.08606C11.0957 7.49639 11.2 7.95244 11.2 8.43284C11.2 10.2278 9.74488 11.6828 7.94995 11.6828C7.46956 11.6828 7.0135 11.5786 6.60318 11.3915L4.24471 13.75C4.26399 13.75 4.28342 13.75 4.30299 13.75H11.697C12.1684 13.75 12.5539 13.75 12.8671 13.7249C13.1914 13.6989 13.4843 13.6435 13.7578 13.5068C14.1859 13.2929 14.5339 12.9515 14.752 12.5317C14.8914 12.2634 14.9479 11.9761 14.9744 11.6581C15 11.3508 15 10.9727 15 10.5104V7.03439C15 6.57207 15 6.19398 14.9744 5.8867C14.9479 5.56864 14.8914 5.28138 14.752 5.01311C14.5563 4.63631 14.2559 4.32274 13.8869 4.10776ZM7.38372 10.611C7.56463 10.6579 7.75438 10.6828 7.94995 10.6828C9.19259 10.6828 10.2 9.67548 10.2 8.43284C10.2 8.23726 10.175 8.04751 10.1281 7.8666L7.38372 10.611ZM9.63674 6.94375C9.22447 6.47711 8.62158 6.18284 7.94995 6.18284C6.70731 6.18284 5.69995 7.1902 5.69995 8.43284C5.69995 9.10446 5.99422 9.70736 6.46087 10.1196L9.63674 6.94375Z" fill="white"/>
<path fill-rule="evenodd" clip-rule="evenodd" d="M14.2329 1.64645C14.4282 1.84171 14.4282 2.15829 14.2329 2.35355L2.35355 14.2329C2.15829 14.4282 1.84171 14.4282 1.64645 14.2329C1.45118 14.0377 1.45118 13.7211 1.64645 13.5258L13.5258 1.64645C13.7211 1.45118 14.0377 1.45118 14.2329 1.64645Z" fill="white"/>
</svg>
