<svg width="16" height="16" viewBox="0 0 16 16" fill="none" xmlns="http://www.w3.org/2000/svg">
<path d="M2.93103 4.71875H8.72414C9.23833 4.71875 9.65517 5.13559 9.65517 5.64978V10.2877C9.65517 10.7059 9.37947 11.0597 8.99991 11.1772C8.99763 11.5349 8.94944 11.8822 8.86067 12.214C9.86344 12.144 10.6552 11.3083 10.6552 10.2877V5.64978C10.6552 4.5833 9.79062 3.71875 8.72414 3.71875H2.93103C1.86455 3.71875 1 4.5833 1 5.64978V8.45366C1.28512 8.11773 1.62236 7.82368 2 7.58267V5.64978C2 5.13559 2.41684 4.71875 2.93103 4.71875Z" fill="white"/>
<path d="M15.0001 5.623C15.0001 5.02716 14.2781 4.73058 13.8592 5.15438L11.596 7.44445C11.3462 7.69726 11.3386 8.10162 11.5788 8.36361L13.842 10.8321C14.2529 11.2803 15.0001 10.9896 15.0001 10.3816V5.623Z" fill="white"/>
<path fill-rule="evenodd" clip-rule="evenodd" d="M8.25 11.5C8.25 13.5711 6.57107 15.25 4.5 15.25C2.42893 15.25 0.75 13.5711 0.75 11.5C0.75 9.42893 2.42893 7.75 4.5 7.75C6.57107 7.75 8.25 9.42893 8.25 11.5ZM4.50004 9.10508C4.69334 9.10508 4.85004 9.26178 4.85004 9.45508V11.1505H6.5455C6.7388 11.1505 6.8955 11.3072 6.8955 11.5005C6.8955 11.6938 6.7388 11.8505 6.5455 11.8505H4.85004V13.546C4.85004 13.7393 4.69334 13.896 4.50004 13.896C4.30674 13.896 4.15004 13.7393 4.15004 13.546V11.8505H2.45459C2.26129 11.8505 2.10459 11.6938 2.10459 11.5005C2.10459 11.3072 2.26129 11.1505 2.45459 11.1505H4.15004V9.45508C4.15004 9.26178 4.30674 9.10508 4.50004 9.10508Z" fill="white"/>
</svg>
