<svg width="16" height="16" viewBox="0 0 16 16" fill="none" xmlns="http://www.w3.org/2000/svg">
<path fill-rule="evenodd" clip-rule="evenodd" d="M13.5264 1.64641C13.7216 1.45122 14.0382 1.45117 14.2334 1.64641C14.4285 1.84166 14.4285 2.15823 14.2334 2.35344L2.35352 14.2323C2.15825 14.4276 1.84175 14.4276 1.64648 14.2323C1.45154 14.0371 1.45133 13.7205 1.64648 13.5253L1.88477 13.2861C1.61956 13.0829 1.4003 12.8231 1.24707 12.5224C1.10995 12.2531 1.0537 11.9641 1.02734 11.6415C1.00183 11.3293 1.00195 10.9446 1.00195 10.4726V7.07805C1.00195 6.60609 1.00184 6.22128 1.02734 5.90911C1.05372 5.58657 1.10992 5.29751 1.24707 5.02825C1.46278 4.60489 1.80712 4.26056 2.23047 4.04485C2.49988 3.90758 2.78957 3.85149 3.1123 3.82512C3.42449 3.79964 3.80933 3.79973 4.28125 3.79973H4.3916C4.45814 3.7997 4.52841 3.7754 4.61719 3.69231C4.71311 3.60246 4.80766 3.46327 4.89746 3.28704C5.07962 2.92966 5.37014 2.63908 5.72754 2.45696C5.95945 2.33879 6.20543 2.29204 6.46973 2.27043C6.72366 2.24969 7.03552 2.24992 7.41016 2.24993H8.59082C8.9653 2.24992 9.27641 2.24971 9.53027 2.27043C9.79454 2.29202 10.0406 2.33887 10.2725 2.45696C10.63 2.63911 10.9214 2.92954 11.1035 3.28704C11.1933 3.46325 11.2869 3.60246 11.3828 3.69231C11.4009 3.70923 11.4189 3.72294 11.4355 3.73528L13.5264 1.64641ZM7.43066 3.24993C7.0306 3.24993 6.76008 3.25051 6.55176 3.2675C6.3494 3.28404 6.24914 3.31322 6.18164 3.34758C6.01229 3.43387 5.87437 3.57179 5.78809 3.74114C5.58229 4.14503 5.15998 4.79966 4.3916 4.79973H4.30176C3.8036 4.79973 3.46005 4.80041 3.19336 4.82219C2.93264 4.84349 2.78949 4.88206 2.68457 4.93547C2.44937 5.05531 2.25851 5.24715 2.13867 5.48235C2.08521 5.58728 2.04573 5.73028 2.02441 5.99114C2.00264 6.25783 2.00195 6.6014 2.00195 7.09954V10.4511C2.00195 10.9494 2.00262 11.2937 2.02441 11.5605C2.04574 11.8211 2.08524 11.9644 2.13867 12.0693C2.24414 12.276 2.40438 12.4492 2.60156 12.5693L5.12305 10.0478C4.84782 9.57058 4.69045 9.01713 4.69043 8.42668C4.69043 6.63176 6.1455 5.17668 7.94043 5.17668C8.53109 5.17677 9.08522 5.33383 9.5625 5.6093L10.7266 4.44524C10.4849 4.22717 10.3187 3.95078 10.2119 3.74114C10.1257 3.57196 9.98851 3.43385 9.81934 3.34758C9.75185 3.3132 9.65163 3.28405 9.44922 3.2675C9.24086 3.25048 8.97057 3.24993 8.57031 3.24993H7.43066ZM7.94043 6.17668C6.69779 6.17668 5.69043 7.18404 5.69043 8.42668C5.69044 8.73741 5.75523 9.03246 5.86914 9.30168L8.81543 6.35637C8.54617 6.24236 8.25122 6.17675 7.94043 6.17668Z" fill="white"/>
<path d="M13.8867 4.10832C14.2567 4.32526 14.5574 4.64448 14.7529 5.02825C14.8901 5.29754 14.9463 5.58653 14.9727 5.90911C14.9982 6.22128 14.9981 6.60609 14.998 7.07805V10.4726C14.9981 10.9446 14.9982 11.3293 14.9727 11.6415C14.9463 11.9641 14.8901 12.2531 14.7529 12.5224C14.5372 12.9458 14.1929 13.2901 13.7695 13.5058C13.5002 13.643 13.2113 13.6991 12.8887 13.7255C12.5765 13.751 12.1917 13.7509 11.7197 13.7509H4.24316L5.24316 12.7509H11.6982C12.1963 12.7509 12.54 12.7512 12.8066 12.7294C13.0672 12.7081 13.2105 12.6685 13.3154 12.6152C13.5505 12.4954 13.7425 12.3043 13.8623 12.0693C13.9157 11.9644 13.9552 11.8211 13.9766 11.5605C13.9984 11.2937 13.998 10.9494 13.998 10.4511V7.09954C13.998 6.60143 13.9983 6.25783 13.9766 5.99114C13.9553 5.7305 13.9157 5.58726 13.8623 5.48235C13.7425 5.24715 13.5506 5.05531 13.3154 4.93547C13.2646 4.9096 13.2048 4.88687 13.127 4.86809L13.8867 4.10832Z" fill="white"/>
<path d="M10.9033 7.09075C11.0872 7.49816 11.1904 7.95067 11.1904 8.42668C11.1904 10.2214 9.7351 11.6764 7.94043 11.6767C7.46447 11.6767 7.01187 11.5744 6.60449 11.3906L7.38672 10.6083C7.56369 10.6531 7.74956 10.6767 7.94043 10.6767C9.18281 10.6764 10.1904 9.66912 10.1904 8.42668C10.1904 8.23579 10.1658 8.04996 10.1211 7.87297L10.9033 7.09075Z" fill="white"/>
<path d="M12.4629 5.53215C12.7797 5.61986 13.0127 5.91005 13.0127 6.25481C13.0126 6.66887 12.6767 7.00468 12.2627 7.00481C11.9179 7.00481 11.6277 6.77184 11.54 6.455L12.4629 5.53215Z" fill="white"/>
</svg>
