<svg width="16" height="16" viewBox="0 0 16 16" fill="none" xmlns="http://www.w3.org/2000/svg">
<path fill-rule="evenodd" clip-rule="evenodd" d="M6.55138 3.26741C6.34885 3.28396 6.2491 3.3137 6.18159 3.34809C6.01225 3.43438 5.87457 3.57206 5.78828 3.74141C5.58247 4.14533 5.15993 4.79971 4.39148 4.79971H4.30195C3.80366 4.79971 3.46001 4.8001 3.19327 4.82189C2.93238 4.84321 2.7894 4.88249 2.68447 4.93595C2.44926 5.0558 2.25804 5.24702 2.1382 5.48222C2.08473 5.58716 2.04545 5.73014 2.02414 5.99103C2.00234 6.25776 2.00195 6.60142 2.00195 7.09971V10.4515C2.00195 10.9498 2.00234 11.2934 2.02414 11.5602C2.04545 11.8211 2.08473 11.964 2.1382 12.069C2.25804 12.3042 2.44926 12.4954 2.68447 12.6152C2.7894 12.6687 2.93238 12.708 3.19327 12.7293C3.46 12.7511 3.80366 12.7515 4.30195 12.7515H11.6984C12.1967 12.7515 12.5403 12.7511 12.807 12.7293C13.0679 12.708 13.2109 12.6687 13.3159 12.6152C13.5511 12.4954 13.7423 12.3042 13.8621 12.069C13.9156 11.964 13.9549 11.8211 13.9762 11.5602C13.998 11.2934 13.9984 10.9498 13.9984 10.4515V7.09971C13.9984 6.60142 13.998 6.25776 13.9762 5.99103C13.9549 5.73014 13.9156 5.58716 13.8621 5.48222C13.7423 5.24702 13.5511 5.0558 13.3159 4.93595C13.2109 4.88249 13.0679 4.84321 12.807 4.82189C12.5403 4.8001 12.1967 4.79971 11.6984 4.79971H11.609C10.8405 4.79971 10.418 4.14533 10.2122 3.74141C10.1259 3.57206 9.98819 3.43438 9.81885 3.34809C9.75134 3.3137 9.65159 3.28396 9.44906 3.26741C9.24069 3.25039 8.97054 3.25 8.57026 3.25H7.43019C7.0299 3.25 6.75975 3.25039 6.55138 3.26741ZM7.40974 2.25H8.5907C8.96534 2.24999 9.27656 2.24999 9.53049 2.27074C9.79486 2.29234 10.0409 2.33889 10.2728 2.45709C10.6303 2.63925 10.921 2.92991 11.1032 3.28742C11.193 3.46366 11.2872 3.60233 11.3832 3.69218C11.4721 3.77547 11.5423 3.79971 11.609 3.79971L11.7194 3.79971C12.1916 3.79971 12.5762 3.7997 12.8885 3.82522C13.2112 3.85158 13.5004 3.90768 13.7698 4.04495C14.1932 4.26066 14.5374 4.60487 14.7531 5.02823C14.8904 5.29764 14.9465 5.58686 14.9729 5.9096C14.9984 6.22186 14.9984 6.60648 14.9984 7.07862V10.4726C14.9984 10.9447 14.9984 11.3293 14.9729 11.6416C14.9465 11.9643 14.8904 12.2536 14.7531 12.523C14.5374 12.9463 14.1932 13.2905 13.7698 13.5063C13.5004 13.6435 13.2112 13.6996 12.8885 13.726C12.5762 13.7515 12.1916 13.7515 11.7195 13.7515H4.28086C3.80875 13.7515 3.42409 13.7515 3.11184 13.726C2.7891 13.6996 2.49988 13.6435 2.23047 13.5063C1.80711 13.2905 1.4629 12.9463 1.24719 12.523C1.10992 12.2536 1.05382 11.9643 1.02746 11.6416C1.00194 11.3293 1.00195 10.9447 1.00195 10.4726V7.07864C1.00195 6.60649 1.00194 6.22186 1.02746 5.9096C1.05382 5.58686 1.10992 5.29764 1.24719 5.02823C1.4629 4.60487 1.80711 4.26066 2.23047 4.04495C2.49988 3.90768 2.7891 3.85158 3.11184 3.82522C3.42411 3.7997 3.80873 3.79971 4.28088 3.79971L4.39148 3.79971C4.4581 3.79971 4.52834 3.77547 4.61727 3.69218C4.71319 3.60233 4.80748 3.46366 4.89727 3.28742C5.07943 2.92991 5.3701 2.63925 5.7276 2.45709C5.95958 2.33889 6.20558 2.29234 6.46995 2.27074C6.72388 2.24999 7.0351 2.24999 7.40974 2.25ZM7.93994 6.17676C6.6973 6.17676 5.68994 7.18412 5.68994 8.42676C5.68994 9.6694 6.6973 10.6768 7.93994 10.6768C9.18258 10.6768 10.1899 9.6694 10.1899 8.42676C10.1899 7.18412 9.18258 6.17676 7.93994 6.17676ZM4.68994 8.42676C4.68994 6.63183 6.14502 5.17676 7.93994 5.17676C9.73487 5.17676 11.1899 6.63183 11.1899 8.42676C11.1899 10.2217 9.73487 11.6768 7.93994 11.6768C6.14502 11.6768 4.68994 10.2217 4.68994 8.42676ZM12.2625 7.00483C12.6767 7.00483 13.0125 6.66905 13.0125 6.25483C13.0125 5.84062 12.6767 5.50483 12.2625 5.50483C11.8482 5.50483 11.5125 5.84062 11.5125 6.25483C11.5125 6.66905 11.8482 7.00483 12.2625 7.00483Z" fill="white"/>
</svg>
