<svg width="16" height="16" viewBox="0 0 16 16" fill="none" xmlns="http://www.w3.org/2000/svg">
<path fill-rule="evenodd" clip-rule="evenodd" d="M10.9462 5.6343V4.55C10.9462 3.9701 10.4761 3.5 9.89619 3.5H7.9288C7.79553 3.5 7.66502 3.53805 7.55262 3.60967L6.89809 4.02676H2.65C1.8768 4.02676 1.25 4.65356 1.25 5.42676V11.0971C1.25 11.8703 1.8768 12.4971 2.65 12.4971H4.08342L5.08342 11.4971H2.65C2.42909 11.4971 2.25 11.318 2.25 11.0971V5.42676C2.25 5.20585 2.42909 5.02676 2.65 5.02676H9.54238C9.76329 5.02676 9.94238 5.20585 9.94238 5.42676V6.63811L10.9462 5.6343ZM6.49763 11.4971H9.54238C9.76329 11.4971 9.94238 11.318 9.94238 11.0971V8.05233L11.4559 6.53876L13.7676 5.51898C14.2303 5.31486 14.7501 5.65371 14.7501 6.15943V10.3644C14.7501 10.8701 14.2303 11.209 13.7676 11.0048L10.9424 9.7585V11.0971C10.9424 11.8703 10.3156 12.4971 9.54238 12.4971H5.49763L6.49763 11.4971ZM3.3269 6.14394H5.40384V7.55566H3.3269V6.14394ZM13.7001 6.69638L11 7.88755V8.63627L13.7001 9.82745V6.69638Z" fill="white"/>
<path fill-rule="evenodd" clip-rule="evenodd" d="M14.2329 1.64645C14.4282 1.84171 14.4282 2.15829 14.2329 2.35355L2.35355 14.2329C2.15829 14.4282 1.84171 14.4282 1.64645 14.2329C1.45118 14.0377 1.45118 13.7211 1.64645 13.5258L13.5258 1.64645C13.7211 1.45118 14.0377 1.45118 14.2329 1.64645Z" fill="white"/>
</svg>
