<svg width="16" height="16" viewBox="0 0 16 16" fill="none" xmlns="http://www.w3.org/2000/svg">
<path d="M13.8536 2.85355C14.0488 2.65829 14.0488 2.34171 13.8536 2.14645C13.6583 1.95118 13.3417 1.95118 13.1464 2.14645L10.5425 4.75035C10.1993 4.14294 9.54759 3.73291 8.80012 3.73291H3.00001C1.89544 3.73291 1 4.62835 1 5.73292V10.2329C1 11.3375 1.89544 12.2329 3.00001 12.2329H3.05998L1.64645 13.6464C1.45119 13.8417 1.45118 14.1583 1.64645 14.3536C1.84171 14.5488 2.15829 14.5488 2.35355 14.3536L13.8536 2.85355Z" fill="white"/>
<path d="M8.80012 12.2329H5.76186L10.8001 7.19463V10.2329C10.8001 11.3375 9.9047 12.2329 8.80012 12.2329Z" fill="white"/>
<path d="M15.0002 5.62279C15.0002 5.02696 14.2781 4.73037 13.8593 5.15417L11.5961 7.44425C11.3462 7.69705 11.3386 8.10141 11.5788 8.3634L13.8421 10.8319C14.253 11.2801 15.0002 10.9894 15.0002 10.3814V5.62279Z" fill="white"/>
</svg>
