<svg width="16" height="16" viewBox="0 0 16 16" fill="none" xmlns="http://www.w3.org/2000/svg">
<path fill-rule="evenodd" clip-rule="evenodd" d="M13.5254 1.64645C13.7207 1.45118 14.0381 1.45118 14.2334 1.64645C14.4283 1.84166 14.4284 2.15829 14.2334 2.35348L2.35352 14.2324C2.15825 14.4276 1.84175 14.4276 1.64648 14.2324C1.45142 14.0371 1.45129 13.7205 1.64648 13.5254L2.95312 12.2187H2.93066C1.93108 12.2185 1.10874 11.4588 1.00977 10.4853L1 10.288V5.64938C1.0002 4.58319 1.86448 3.71891 2.93066 3.71871H8.72461L8.92188 3.72848C9.57609 3.79501 10.1322 4.18899 10.4277 4.74313L13.5254 1.64645ZM2.93066 4.71871C2.41676 4.71891 2.0002 5.13547 2 5.64938V10.288C2.00022 10.8019 2.41677 11.2185 2.93066 11.2187H3.95215L5.78809 9.38277C5.0603 9.2797 4.5002 8.65655 4.5 7.90035C4.5 7.07193 5.17157 6.40035 6 6.40035C6.7565 6.40035 7.37947 6.96035 7.48242 7.68844L9.64551 5.52438C9.58422 5.06969 9.19603 4.71895 8.72461 4.71871H2.93066Z" fill="white"/>
<path d="M10.6553 10.288L10.6455 10.4853C10.5531 11.3939 9.8305 12.1165 8.92188 12.2089L8.72461 12.2187H5.77539L6.77539 11.2187H8.72461C9.23845 11.2185 9.65505 10.8019 9.65527 10.288V8.33883L10.6553 7.33883V10.288Z" fill="white"/>
<path d="M13.8594 5.15426C14.2782 4.73062 15 5.02722 15 5.62301V10.3818C14.9998 10.9896 14.2526 11.28 13.8418 10.832L11.5791 8.36324C11.3389 8.10129 11.346 7.69711 11.5957 7.4443L13.8594 5.15426Z" fill="white"/>
</svg>
