<svg width="16" height="16" viewBox="0 0 16 16" fill="none" xmlns="http://www.w3.org/2000/svg">
<path fill-rule="evenodd" clip-rule="evenodd" d="M11.5335 1.23279C11.166 0.865301 10.5385 1.03354 10.4042 1.53557L9.94644 3.24586C9.10971 2.86013 8.0918 3.00743 7.40864 3.69059L3.73683 7.3624C3.05406 8.04517 2.90654 9.0623 3.29143 9.89876L1.58269 10.3561C1.08066 10.4904 0.912418 11.1179 1.27991 11.4854L4.56346 14.769C4.93094 15.1365 5.55844 14.9682 5.69281 14.4662L6.15011 12.7575C6.9866 13.1425 8.00382 12.995 8.68664 12.3122L12.3584 8.6404C13.0414 7.95749 13.1888 6.94009 12.8036 6.10353L14.5143 5.64569C15.0163 5.51133 15.1846 4.88382 14.8171 4.51634L11.5335 1.23279ZM2.38519 11.1765L3.94992 10.7577L5.29117 12.099L4.87239 13.6637L2.38519 11.1765ZM12.1449 5.24463L13.7118 4.82527L11.2246 2.33807L10.8052 3.90496L12.1449 5.24463ZM9.12873 6.39049C9.324 6.19523 9.324 5.87864 9.12873 5.68338C8.93347 5.48812 8.61689 5.48812 8.42163 5.68338L5.72897 8.37604C5.53371 8.5713 5.53371 8.88789 5.72897 9.08315C5.92423 9.27841 6.24081 9.27841 6.43608 9.08315L9.12873 6.39049Z" fill="white"/>
</svg>
