<svg width="16" height="16" viewBox="0 0 16 16" fill="none" xmlns="http://www.w3.org/2000/svg">
<path fill-rule="evenodd" clip-rule="evenodd" d="M13.4574 1.44392C13.6816 1.72424 13.6362 2.13328 13.3559 2.35754L12.707 2.87666C12.6556 2.91771 12.6375 2.93229 12.6211 2.94601C12.1446 3.34419 11.8636 3.9289 11.8503 4.54968C11.85 4.5656 11.8499 4.58258 11.8498 4.61732C12.2952 5.00815 12.6653 5.48203 12.9375 6.01626C13.2083 6.5477 13.3312 7.13946 13.3909 7.87074C13.4498 8.59148 13.4498 9.49041 13.4498 10.6473V11.3211C13.4498 11.7932 13.4498 12.1779 13.4243 12.4901C13.3979 12.8129 13.3418 13.1021 13.2046 13.3715C12.9889 13.7949 12.6446 14.1391 12.2213 14.3548C11.9519 14.492 11.6627 14.5481 11.3399 14.5745C11.0277 14.6 10.643 14.6 10.1709 14.6H5.57873C5.10658 14.6 4.72196 14.6 4.40969 14.5745C4.08696 14.5481 3.79773 14.492 3.52833 14.3548C3.10496 14.1391 2.76075 13.7949 2.54504 13.3715C2.40777 13.1021 2.35168 12.8129 2.32531 12.4901C2.29979 12.1779 2.2998 11.7932 2.2998 11.3211V4.45753C2.2998 4.06468 2.2998 3.7446 2.31762 3.48345C2.336 3.21395 2.37503 2.97085 2.47108 2.73897C2.69944 2.18766 3.13745 1.74964 3.68877 1.52128C3.92065 1.42523 4.16374 1.38621 4.43325 1.36782C4.6944 1.35 5.01446 1.35001 5.40732 1.35001L5.84085 1.34999C6.26482 1.34984 6.56491 1.34972 6.82506 1.41218C7.64777 1.60969 8.29012 2.25205 8.48764 3.07476C8.51711 3.19753 8.53265 3.3292 8.54083 3.47859C8.71227 3.48638 8.87475 3.49629 9.02907 3.50889C9.64712 3.55939 10.1655 3.65496 10.632 3.84682C10.7959 3.11006 11.1987 2.44053 11.7874 1.94851C11.8158 1.92474 11.8455 1.90101 11.8894 1.86592L12.5438 1.34241C12.8241 1.11815 13.2331 1.1636 13.4574 1.44392ZM5.7748 2.35001C6.29177 2.35001 6.46226 2.35349 6.59161 2.38455C7.04867 2.49428 7.40554 2.85114 7.51527 3.3082C7.52514 3.34934 7.53223 3.39464 7.53731 3.45393C7.14787 3.45001 6.72138 3.45001 6.2525 3.45001H5.57872C5.10658 3.45001 4.72195 3.45 4.40969 3.47551C4.08696 3.50188 3.79773 3.55798 3.52833 3.69525C3.45074 3.73478 3.37581 3.77863 3.30384 3.82649C3.30612 3.72415 3.3097 3.63359 3.3153 3.55152C3.33021 3.33293 3.35779 3.21138 3.39496 3.12166C3.52182 2.81537 3.76517 2.57203 4.07145 2.44516C4.16117 2.408 4.28273 2.38042 4.50132 2.3655C4.7244 2.35028 5.01027 2.35001 5.42481 2.35001H5.7748ZM3.2998 11.3C3.2998 11.7983 3.30019 12.142 3.32199 12.4087C3.3433 12.6696 3.38258 12.8126 3.43605 12.9175C3.55589 13.1527 3.74711 13.3439 3.98232 13.4638C4.08726 13.5172 4.23023 13.5565 4.49112 13.5778C4.75786 13.5996 5.10151 13.6 5.59981 13.6H10.1498C10.6481 13.6 10.9918 13.5996 11.2585 13.5778C11.5194 13.5565 11.6624 13.5172 11.7673 13.4638C12.0025 13.3439 12.1937 13.1527 12.3136 12.9175C12.367 12.8126 12.4063 12.6696 12.4276 12.4087C12.4494 12.142 12.4498 11.7983 12.4498 11.3V10.67C12.4498 9.48565 12.4494 8.62745 12.3942 7.95218C12.3395 7.28274 12.2335 6.83723 12.0465 6.47025C11.6918 5.77405 11.1258 5.20802 10.4296 4.85329C10.0626 4.6663 9.61708 4.56027 8.94764 4.50557C8.27236 4.4504 7.41416 4.45001 6.2298 4.45001H5.5998C5.10151 4.45001 4.75786 4.4504 4.49112 4.47219C4.23023 4.49351 4.08726 4.53278 3.98232 4.58625C3.74711 4.7061 3.55589 4.89732 3.43605 5.13252C3.38258 5.23746 3.3433 5.38044 3.32199 5.64133C3.30058 5.90337 3.29983 6.23964 3.29981 6.72383L3.2998 11.3ZM5.95336 6.39646C5.7581 6.20119 5.44151 6.20119 5.24625 6.39646C5.05099 6.59172 5.05099 6.9083 5.24625 7.10356L7.1677 9.02501L5.24625 10.9465C5.05099 11.1417 5.05099 11.4583 5.24625 11.6536C5.44151 11.8488 5.7581 11.8488 5.95336 11.6536L7.87481 9.73212L9.79625 11.6536C9.99152 11.8488 10.3081 11.8488 10.5034 11.6536C10.6986 11.4583 10.6986 11.1417 10.5034 10.9465L8.58191 9.02501L10.5034 7.10356C10.6986 6.9083 10.6986 6.59172 10.5034 6.39646C10.3081 6.20119 9.99152 6.20119 9.79625 6.39646L7.87481 8.3179L5.95336 6.39646Z" fill="white"/>
</svg>
