<svg width="16" height="16" viewBox="0 0 16 16" fill="none" xmlns="http://www.w3.org/2000/svg">
<path fill-rule="evenodd" clip-rule="evenodd" d="M10.3571 9.61634L6.38366 5.64294L9.15607 2.87052C10.2533 1.7733 12.0322 1.77328 13.1295 2.87049C14.2267 3.96771 14.2267 5.74669 13.1295 6.84392L10.3571 9.61634ZM13.8702 2.12972C12.3639 0.623411 9.92163 0.623429 8.4153 2.12976L2.12974 8.41535C0.62341 9.92169 0.62342 12.3639 2.12977 13.8703C3.63611 15.3766 6.07834 15.3766 7.58467 13.8702L13.8702 7.58468C15.3766 6.07833 15.3766 3.63605 13.8702 2.12972ZM5.55596 8.8728C5.84524 8.8728 6.07975 8.63828 6.07975 8.349C6.07975 8.05971 5.84524 7.8252 5.55596 7.8252C5.26667 7.8252 5.03216 8.05971 5.03216 8.349C5.03216 8.63828 5.26667 8.8728 5.55596 8.8728ZM3.98405 10.4448C3.98405 10.7341 3.74954 10.9686 3.46025 10.9686C3.17097 10.9686 2.93645 10.7341 2.93645 10.4448C2.93645 10.1555 3.17097 9.92097 3.46025 9.92097C3.74954 9.92097 3.98405 10.1555 3.98405 10.4448ZM7.65068 10.9686C7.93997 10.9686 8.17448 10.7341 8.17448 10.4448C8.17448 10.1555 7.93997 9.92097 7.65068 9.92097C7.3614 9.92097 7.12688 10.1555 7.12688 10.4448C7.12688 10.7341 7.3614 10.9686 7.65068 10.9686ZM6.07975 12.5396C6.07975 12.8289 5.84524 13.0634 5.55596 13.0634C5.26667 13.0634 5.03216 12.8289 5.03216 12.5396C5.03216 12.2503 5.26667 12.0158 5.55596 12.0158C5.84524 12.0158 6.07975 12.2503 6.07975 12.5396ZM5.55596 10.9686C5.84524 10.9686 6.07975 10.7341 6.07975 10.4448C6.07975 10.1555 5.84524 9.92097 5.55596 9.92097C5.26667 9.92097 5.03216 10.1555 5.03216 10.4448C5.03216 10.7341 5.26667 10.9686 5.55596 10.9686Z" fill="white"/>
</svg>
