<svg width="16" height="16" viewBox="0 0 16 16" fill="none" xmlns="http://www.w3.org/2000/svg">
<path fill-rule="evenodd" clip-rule="evenodd" d="M14.2612 3.22132C12.9429 1.92622 10.8054 1.92623 9.48707 3.22134L7.99091 4.69114L6.49714 3.22369C5.17826 1.92805 3.03847 1.93273 1.72548 3.23413C0.422391 4.52571 0.4252 6.6085 1.73177 7.89667L3.44468 9.58547C3.73722 9.87389 4.21251 9.87431 4.50558 9.58641L7.99091 6.16249L11.4836 9.59365C11.7757 9.88057 12.2491 9.88099 12.5417 9.59459L14.2569 7.9156C15.5793 6.62116 15.5813 4.51809 14.2612 3.22132ZM12.0135 8.64287L8.73978 5.42682L10.2359 3.95701C11.1407 3.0682 12.6076 3.0682 13.5124 3.957C14.4183 4.84695 14.417 6.29025 13.5094 7.1786L12.0135 8.64287ZM8.5187 13.2298C8.5187 13.5171 8.28162 13.75 7.98917 13.75C7.69672 13.75 7.45964 13.5171 7.45964 13.2298C7.45964 12.9425 7.69672 12.7096 7.98917 12.7096C8.28162 12.7096 8.5187 12.9425 8.5187 13.2298ZM7.98917 11.6692C8.28162 11.6692 8.5187 11.4363 8.5187 11.149C8.5187 10.8617 8.28162 10.6288 7.98917 10.6288C7.69672 10.6288 7.45964 10.8617 7.45964 11.149C7.45964 11.4363 7.69672 11.6692 7.98917 11.6692ZM5.87104 11.6692C5.57859 11.6692 5.34151 11.4363 5.34151 11.149C5.34151 10.8617 5.57859 10.6288 5.87104 10.6288C6.16349 10.6288 6.40057 10.8617 6.40057 11.149C6.40057 11.4363 6.16349 11.6692 5.87104 11.6692ZM7.98917 9.58839C8.28162 9.58839 8.5187 9.35549 8.5187 9.06819C8.5187 8.78089 8.28162 8.54799 7.98917 8.54799C7.69672 8.54799 7.45964 8.78089 7.45964 9.06819C7.45964 9.35549 7.69672 9.58839 7.98917 9.58839ZM10.1073 11.6692C9.81484 11.6692 9.57776 11.4363 9.57776 11.149C9.57776 10.8617 9.81484 10.6288 10.1073 10.6288C10.3997 10.6288 10.6368 10.8617 10.6368 11.149C10.6368 11.4363 10.3997 11.6692 10.1073 11.6692ZM5.90598 5.7709C6.11277 5.56774 6.11277 5.23837 5.90598 5.03522C5.69918 4.83207 5.3639 4.83207 5.15711 5.03522C4.95031 5.23837 4.95031 5.56774 5.15711 5.7709C5.3639 5.97405 5.69918 5.97405 5.90598 5.7709ZM4.40824 6.50657C4.61503 6.70972 4.61503 7.0391 4.40824 7.24225C4.20144 7.4454 3.86616 7.4454 3.65937 7.24225C3.45257 7.0391 3.45257 6.70972 3.65937 6.50657C3.86616 6.30342 4.20144 6.30342 4.40824 6.50657ZM3.85999 5.23231C4.06679 5.02916 4.06679 4.69979 3.85999 4.49664C3.6532 4.29348 3.31791 4.29348 3.11112 4.49664C2.90433 4.69979 2.90433 5.02916 3.11112 5.23231C3.31791 5.43546 3.6532 5.43546 3.85999 5.23231Z" fill="white"/>
</svg>
