<svg width="16" height="16" viewBox="0 0 16 16" fill="none" xmlns="http://www.w3.org/2000/svg">
<path d="M3.05762 11.5059C3.09065 11.5092 3.12322 11.5142 3.15527 11.5205C3.21351 11.5321 3.26988 11.5486 3.32422 11.5693C3.33095 11.5719 3.33807 11.5735 3.34473 11.5762C3.36448 11.5842 3.38321 11.5944 3.40234 11.6035C3.41379 11.609 3.42531 11.6142 3.43652 11.6201C3.44882 11.6266 3.46066 11.6337 3.47266 11.6406C3.49056 11.6509 3.50818 11.6615 3.52539 11.6729C3.53908 11.6819 3.5522 11.6916 3.56543 11.7012C3.5762 11.709 3.5872 11.7164 3.59766 11.7246C3.61131 11.7353 3.6246 11.7464 3.6377 11.7578C3.65163 11.7699 3.66543 11.7821 3.67871 11.7949C3.68882 11.8047 3.69829 11.815 3.70801 11.8252C3.72045 11.8382 3.73237 11.8516 3.74414 11.8652C3.75229 11.8747 3.76074 11.8838 3.76855 11.8936C3.78356 11.9122 3.7978 11.9315 3.81152 11.9512C3.81607 11.9577 3.8208 11.9641 3.8252 11.9707C3.83803 11.99 3.84977 12.0101 3.86133 12.0303C3.8679 12.0418 3.87373 12.0537 3.87988 12.0654C3.88548 12.0761 3.89125 12.0867 3.89648 12.0977C3.92035 12.1475 3.94118 12.1991 3.95703 12.2529C3.98161 12.3363 3.99504 12.424 3.99805 12.5146C3.99843 12.5263 4 12.538 4 12.5498V13.4502C3.99998 13.5393 3.98769 13.6254 3.9668 13.708C3.96381 13.7198 3.96042 13.7315 3.95703 13.7432C3.95117 13.7633 3.94452 13.7831 3.9375 13.8027C3.93365 13.8135 3.92997 13.8243 3.92578 13.835C3.91965 13.8505 3.91309 13.8657 3.90625 13.8809C3.90055 13.8935 3.89388 13.9056 3.8877 13.918C3.86416 13.965 3.83769 14.01 3.80762 14.0527C3.8048 14.0567 3.8017 14.0605 3.79883 14.0645C3.73346 14.1546 3.6546 14.2335 3.56445 14.2988C3.5605 14.3017 3.55673 14.3048 3.55273 14.3076C3.51003 14.3377 3.46504 14.3642 3.41797 14.3877C3.4056 14.3939 3.3935 14.4005 3.38086 14.4062C3.36571 14.4131 3.35048 14.4197 3.33496 14.4258C3.32433 14.43 3.31353 14.4336 3.30273 14.4375C3.28309 14.4445 3.26333 14.4512 3.24316 14.457C3.2315 14.4604 3.21984 14.4638 3.20801 14.4668C3.1893 14.4715 3.17046 14.4758 3.15137 14.4795C3.12053 14.4855 3.08936 14.4909 3.05762 14.4941L2.9502 14.5H2.0498C1.97786 14.5 1.9077 14.4923 1.83984 14.4785C1.82368 14.4752 1.80787 14.4708 1.79199 14.4668C1.77894 14.4635 1.76578 14.4608 1.75293 14.457C1.6991 14.4412 1.64751 14.4204 1.59766 14.3965C1.58673 14.3913 1.57614 14.3855 1.56543 14.3799C1.55366 14.3737 1.54178 14.3679 1.53027 14.3613C1.51006 14.3498 1.49004 14.338 1.4707 14.3252C1.46407 14.3208 1.45769 14.3161 1.45117 14.3115C1.43148 14.2978 1.41223 14.2836 1.39355 14.2686C1.38382 14.2607 1.37468 14.2523 1.36523 14.2441C1.35161 14.2324 1.33819 14.2205 1.3252 14.208C1.31504 14.1983 1.30468 14.1888 1.29492 14.1787C1.28212 14.1654 1.26991 14.1516 1.25781 14.1377C1.24643 14.1246 1.23534 14.1113 1.22461 14.0977C1.21311 14.083 1.20213 14.068 1.19141 14.0527C1.18507 14.0437 1.17891 14.0346 1.17285 14.0254C1.16155 14.0082 1.15092 13.9906 1.14062 13.9727C1.13371 13.9607 1.12656 13.9488 1.12012 13.9365C1.11424 13.9253 1.10899 13.9138 1.10352 13.9023C1.03789 13.7653 1.00003 13.6123 1 13.4502V12.5498C1.00011 11.9701 1.47006 11.5001 2.0498 11.5H2.9502L3.05762 11.5059Z" fill="white"/>
<path d="M14.0576 11.5059C14.0906 11.5092 14.1232 11.5142 14.1553 11.5205C14.2135 11.5321 14.2699 11.5486 14.3242 11.5693C14.3309 11.5719 14.3381 11.5735 14.3447 11.5762C14.3645 11.5842 14.3832 11.5944 14.4023 11.6035C14.4138 11.609 14.4253 11.6142 14.4365 11.6201C14.4488 11.6266 14.4607 11.6337 14.4727 11.6406C14.4906 11.6509 14.5082 11.6615 14.5254 11.6729C14.5391 11.6819 14.5522 11.6916 14.5654 11.7012C14.5762 11.709 14.5872 11.7164 14.5977 11.7246C14.6113 11.7353 14.6246 11.7464 14.6377 11.7578C14.6516 11.7699 14.6654 11.7821 14.6787 11.7949C14.6888 11.8047 14.6983 11.815 14.708 11.8252C14.7205 11.8382 14.7324 11.8516 14.7441 11.8652C14.7523 11.8747 14.7607 11.8838 14.7686 11.8936C14.7836 11.9122 14.7978 11.9315 14.8115 11.9512C14.8161 11.9577 14.8208 11.9641 14.8252 11.9707C14.838 11.99 14.8498 12.0101 14.8613 12.0303C14.8679 12.0418 14.8737 12.0537 14.8799 12.0654C14.8855 12.0761 14.8913 12.0867 14.8965 12.0977C14.9204 12.1475 14.9412 12.1991 14.957 12.2529C14.9816 12.3363 14.995 12.424 14.998 12.5146C14.9984 12.5263 15 12.538 15 12.5498V13.4502C15 13.5393 14.9877 13.6254 14.9668 13.708C14.9638 13.7198 14.9604 13.7315 14.957 13.7432C14.9512 13.7633 14.9445 13.7831 14.9375 13.8027C14.9336 13.8135 14.93 13.8243 14.9258 13.835C14.9197 13.8505 14.9131 13.8657 14.9062 13.8809C14.9005 13.8935 14.8939 13.9056 14.8877 13.918C14.8642 13.965 14.8377 14.01 14.8076 14.0527C14.8048 14.0567 14.8017 14.0605 14.7988 14.0645C14.7335 14.1546 14.6546 14.2335 14.5645 14.2988C14.5605 14.3017 14.5567 14.3048 14.5527 14.3076C14.51 14.3377 14.465 14.3642 14.418 14.3877C14.4056 14.3939 14.3935 14.4005 14.3809 14.4062C14.3657 14.4131 14.3505 14.4197 14.335 14.4258C14.3243 14.43 14.3135 14.4336 14.3027 14.4375C14.2831 14.4445 14.2633 14.4512 14.2432 14.457C14.2315 14.4604 14.2198 14.4638 14.208 14.4668C14.1893 14.4715 14.1705 14.4758 14.1514 14.4795C14.1205 14.4855 14.0894 14.4909 14.0576 14.4941L13.9502 14.5H7.0498C6.97786 14.5 6.9077 14.4923 6.83984 14.4785C6.82766 14.476 6.81574 14.4726 6.80371 14.4697C6.78668 14.4656 6.76963 14.462 6.75293 14.457C6.6991 14.4412 6.64751 14.4204 6.59766 14.3965C6.58673 14.3913 6.57614 14.3855 6.56543 14.3799C6.55366 14.3737 6.54178 14.3679 6.53027 14.3613C6.51006 14.3498 6.49004 14.338 6.4707 14.3252C6.46407 14.3208 6.45769 14.3161 6.45117 14.3115C6.43148 14.2978 6.41223 14.2836 6.39355 14.2686C6.38382 14.2607 6.37468 14.2523 6.36523 14.2441C6.35161 14.2324 6.33819 14.2205 6.3252 14.208C6.31504 14.1983 6.30468 14.1888 6.29492 14.1787C6.28212 14.1654 6.26991 14.1516 6.25781 14.1377C6.24643 14.1246 6.23534 14.1113 6.22461 14.0977C6.21439 14.0846 6.20492 14.0711 6.19531 14.0576C6.18771 14.0469 6.18006 14.0364 6.17285 14.0254C6.16155 14.0082 6.15092 13.9906 6.14062 13.9727C6.13371 13.9607 6.12656 13.9488 6.12012 13.9365C6.11424 13.9253 6.10899 13.9138 6.10352 13.9023C6.03789 13.7653 6.00003 13.6123 6 13.4502V12.5498C6.00011 11.9701 6.47006 11.5001 7.0498 11.5H13.9502L14.0576 11.5059Z" fill="white"/>
<path d="M3.05762 6.50586C3.09065 6.50922 3.12322 6.51416 3.15527 6.52051C3.21351 6.53206 3.26988 6.54859 3.32422 6.56934C3.33095 6.5719 3.33807 6.57347 3.34473 6.57617C3.36448 6.58419 3.38321 6.59436 3.40234 6.60352C3.41379 6.60899 3.42531 6.61424 3.43652 6.62012C3.44882 6.62656 3.46066 6.63371 3.47266 6.64062C3.49056 6.65092 3.50818 6.66155 3.52539 6.67285C3.53908 6.68185 3.5522 6.69156 3.56543 6.70117C3.5762 6.70898 3.5872 6.7164 3.59766 6.72461C3.61131 6.73534 3.6246 6.74643 3.6377 6.75781C3.65163 6.76991 3.66543 6.78212 3.67871 6.79492C3.68882 6.80468 3.69829 6.81504 3.70801 6.8252C3.72045 6.83819 3.73237 6.85161 3.74414 6.86523C3.75229 6.87468 3.76074 6.88382 3.76855 6.89355C3.78356 6.91223 3.7978 6.93148 3.81152 6.95117C3.81607 6.95769 3.8208 6.96407 3.8252 6.9707C3.83803 6.99004 3.84977 7.01006 3.86133 7.03027C3.8679 7.04178 3.87373 7.05366 3.87988 7.06543C3.88548 7.07614 3.89125 7.08673 3.89648 7.09766C3.92035 7.14751 3.94118 7.1991 3.95703 7.25293C3.98161 7.33633 3.99504 7.424 3.99805 7.51465C3.99843 7.52633 4 7.53802 4 7.5498V8.4502C3.99998 8.53926 3.98769 8.62543 3.9668 8.70801C3.96381 8.71984 3.96042 8.7315 3.95703 8.74316C3.95117 8.76333 3.94452 8.78309 3.9375 8.80273C3.93365 8.81353 3.92997 8.82433 3.92578 8.83496C3.91965 8.85048 3.91309 8.86571 3.90625 8.88086C3.90055 8.8935 3.89388 8.9056 3.8877 8.91797C3.86416 8.96504 3.83769 9.01003 3.80762 9.05273C3.8048 9.05673 3.8017 9.0605 3.79883 9.06445C3.73346 9.1546 3.6546 9.23346 3.56445 9.29883C3.5605 9.3017 3.55673 9.3048 3.55273 9.30762C3.51003 9.33769 3.46504 9.36416 3.41797 9.3877C3.4056 9.39388 3.3935 9.40055 3.38086 9.40625C3.36571 9.41309 3.35048 9.41965 3.33496 9.42578C3.32433 9.42998 3.31353 9.43365 3.30273 9.4375C3.28309 9.44452 3.26333 9.45117 3.24316 9.45703C3.2315 9.46042 3.21984 9.46381 3.20801 9.4668C3.1893 9.47153 3.17046 9.47578 3.15137 9.47949C3.12053 9.48549 3.08936 9.49091 3.05762 9.49414L2.9502 9.5H2.0498C1.97786 9.49999 1.9077 9.49231 1.83984 9.47852C1.82368 9.47523 1.80787 9.47081 1.79199 9.4668C1.77894 9.46349 1.76578 9.46082 1.75293 9.45703C1.6991 9.44118 1.64751 9.42035 1.59766 9.39648C1.58673 9.39125 1.57614 9.38548 1.56543 9.37988C1.55366 9.37373 1.54178 9.3679 1.53027 9.36133C1.51006 9.34977 1.49004 9.33803 1.4707 9.3252C1.46407 9.3208 1.45769 9.31607 1.45117 9.31152C1.43148 9.2978 1.41223 9.28356 1.39355 9.26855C1.38382 9.26074 1.37468 9.25229 1.36523 9.24414C1.35161 9.23237 1.33819 9.22045 1.3252 9.20801C1.31504 9.19829 1.30468 9.18882 1.29492 9.17871C1.28212 9.16543 1.26991 9.15163 1.25781 9.1377C1.24643 9.1246 1.23534 9.11131 1.22461 9.09766C1.21311 9.08301 1.20213 9.06799 1.19141 9.05273C1.18507 9.04372 1.17891 9.03461 1.17285 9.02539C1.16155 9.00818 1.15092 8.99056 1.14062 8.97266C1.13371 8.96066 1.12656 8.94881 1.12012 8.93652C1.11424 8.92531 1.10899 8.91379 1.10352 8.90234C1.03789 8.76528 1.00003 8.61229 1 8.4502V7.5498C1.00011 6.97006 1.47006 6.50011 2.0498 6.5H2.9502L3.05762 6.50586Z" fill="white"/>
<path d="M14.0576 6.50586C14.0906 6.50922 14.1232 6.51416 14.1553 6.52051C14.2135 6.53206 14.2699 6.54859 14.3242 6.56934C14.3309 6.5719 14.3381 6.57347 14.3447 6.57617C14.3645 6.58419 14.3832 6.59436 14.4023 6.60352C14.4138 6.60899 14.4253 6.61424 14.4365 6.62012C14.4488 6.62656 14.4607 6.63371 14.4727 6.64062C14.4906 6.65092 14.5082 6.66155 14.5254 6.67285C14.5391 6.68185 14.5522 6.69156 14.5654 6.70117C14.5762 6.70898 14.5872 6.7164 14.5977 6.72461C14.6113 6.73534 14.6246 6.74643 14.6377 6.75781C14.6516 6.76991 14.6654 6.78212 14.6787 6.79492C14.6888 6.80468 14.6983 6.81504 14.708 6.8252C14.7205 6.83819 14.7324 6.85161 14.7441 6.86523C14.7523 6.87468 14.7607 6.88382 14.7686 6.89355C14.7836 6.91223 14.7978 6.93148 14.8115 6.95117C14.8161 6.95769 14.8208 6.96407 14.8252 6.9707C14.838 6.99004 14.8498 7.01006 14.8613 7.03027C14.8679 7.04178 14.8737 7.05366 14.8799 7.06543C14.8855 7.07614 14.8913 7.08673 14.8965 7.09766C14.9204 7.14751 14.9412 7.1991 14.957 7.25293C14.9816 7.33633 14.995 7.424 14.998 7.51465C14.9984 7.52633 15 7.53802 15 7.5498V8.4502C15 8.53926 14.9877 8.62543 14.9668 8.70801C14.9638 8.71984 14.9604 8.7315 14.957 8.74316C14.9512 8.76333 14.9445 8.78309 14.9375 8.80273C14.9336 8.81353 14.93 8.82433 14.9258 8.83496C14.9197 8.85048 14.9131 8.86571 14.9062 8.88086C14.9005 8.8935 14.8939 8.9056 14.8877 8.91797C14.8642 8.96504 14.8377 9.01003 14.8076 9.05273C14.8048 9.05673 14.8017 9.0605 14.7988 9.06445C14.7335 9.1546 14.6546 9.23346 14.5645 9.29883C14.5605 9.3017 14.5567 9.3048 14.5527 9.30762C14.51 9.33769 14.465 9.36416 14.418 9.3877C14.4056 9.39388 14.3935 9.40055 14.3809 9.40625C14.3657 9.41309 14.3505 9.41965 14.335 9.42578C14.3243 9.42998 14.3135 9.43365 14.3027 9.4375C14.2831 9.44452 14.2633 9.45117 14.2432 9.45703C14.2315 9.46042 14.2198 9.46381 14.208 9.4668C14.1893 9.47153 14.1705 9.47578 14.1514 9.47949C14.1205 9.48549 14.0894 9.49091 14.0576 9.49414L13.9502 9.5H7.0498C6.97786 9.49999 6.9077 9.49231 6.83984 9.47852C6.82766 9.47604 6.81574 9.47262 6.80371 9.46973C6.78668 9.46563 6.76963 9.46195 6.75293 9.45703C6.6991 9.44118 6.64751 9.42035 6.59766 9.39648C6.58673 9.39125 6.57614 9.38548 6.56543 9.37988C6.55366 9.37373 6.54178 9.3679 6.53027 9.36133C6.51006 9.34977 6.49004 9.33803 6.4707 9.3252C6.46407 9.3208 6.45769 9.31607 6.45117 9.31152C6.43148 9.2978 6.41223 9.28356 6.39355 9.26855C6.38382 9.26074 6.37468 9.25229 6.36523 9.24414C6.35161 9.23237 6.33819 9.22045 6.3252 9.20801C6.31504 9.19829 6.30468 9.18882 6.29492 9.17871C6.28212 9.16543 6.26991 9.15163 6.25781 9.1377C6.24643 9.1246 6.23534 9.11131 6.22461 9.09766C6.21439 9.08464 6.20492 9.07111 6.19531 9.05762C6.18771 9.04695 6.18006 9.03635 6.17285 9.02539C6.16155 9.00818 6.15092 8.99056 6.14062 8.97266C6.13371 8.96066 6.12656 8.94881 6.12012 8.93652C6.11424 8.92531 6.10899 8.91379 6.10352 8.90234C6.03789 8.76528 6.00003 8.61229 6 8.4502V7.5498C6.00009 7.07884 6.31011 6.6799 6.7373 6.54688C6.77012 6.53666 6.80378 6.52848 6.83789 6.52148C6.90634 6.50744 6.97721 6.50001 7.0498 6.5H13.9502L14.0576 6.50586Z" fill="white"/>
<path d="M3.05762 1.50586C3.09065 1.50922 3.12322 1.51416 3.15527 1.52051C3.21351 1.53206 3.26988 1.54859 3.32422 1.56934C3.33095 1.5719 3.33807 1.57347 3.34473 1.57617C3.36448 1.58419 3.38321 1.59436 3.40234 1.60352C3.41379 1.60899 3.42531 1.61424 3.43652 1.62012C3.44882 1.62656 3.46066 1.63371 3.47266 1.64062C3.49056 1.65092 3.50818 1.66155 3.52539 1.67285C3.53908 1.68185 3.5522 1.69156 3.56543 1.70117C3.5762 1.70898 3.5872 1.7164 3.59766 1.72461C3.61131 1.73534 3.6246 1.74643 3.6377 1.75781C3.65163 1.76991 3.66543 1.78212 3.67871 1.79492C3.68882 1.80468 3.69829 1.81504 3.70801 1.8252C3.72045 1.83819 3.73237 1.85161 3.74414 1.86523C3.75229 1.87468 3.76074 1.88382 3.76855 1.89355C3.78356 1.91223 3.7978 1.93148 3.81152 1.95117C3.81607 1.95769 3.8208 1.96407 3.8252 1.9707C3.83803 1.99004 3.84977 2.01006 3.86133 2.03027C3.8679 2.04178 3.87373 2.05366 3.87988 2.06543C3.88548 2.07614 3.89125 2.08673 3.89648 2.09766C3.92035 2.14751 3.94118 2.1991 3.95703 2.25293C3.98161 2.33633 3.99504 2.424 3.99805 2.51465C3.99843 2.52634 4 2.53802 4 2.5498V3.4502C3.99998 3.53926 3.98769 3.62543 3.9668 3.70801C3.96381 3.71984 3.96042 3.7315 3.95703 3.74316C3.95117 3.76333 3.94452 3.78309 3.9375 3.80273C3.93365 3.81353 3.92997 3.82433 3.92578 3.83496C3.91965 3.85048 3.91309 3.86571 3.90625 3.88086C3.90055 3.8935 3.89388 3.9056 3.8877 3.91797C3.86416 3.96504 3.83769 4.01003 3.80762 4.05273C3.8048 4.05673 3.8017 4.0605 3.79883 4.06445C3.73346 4.1546 3.6546 4.23346 3.56445 4.29883C3.5605 4.3017 3.55673 4.3048 3.55273 4.30762C3.51003 4.33769 3.46504 4.36416 3.41797 4.3877C3.4056 4.39388 3.3935 4.40055 3.38086 4.40625C3.36571 4.41309 3.35048 4.41965 3.33496 4.42578C3.32433 4.42997 3.31353 4.43365 3.30273 4.4375C3.28309 4.44452 3.26333 4.45117 3.24316 4.45703C3.2315 4.46042 3.21984 4.46381 3.20801 4.4668C3.1893 4.47153 3.17046 4.47578 3.15137 4.47949C3.12053 4.48549 3.08936 4.49091 3.05762 4.49414L2.9502 4.5H2.0498C1.97786 4.49999 1.9077 4.49231 1.83984 4.47852C1.82766 4.47604 1.81574 4.47262 1.80371 4.46973C1.78668 4.46563 1.76963 4.46195 1.75293 4.45703C1.6991 4.44118 1.64751 4.42035 1.59766 4.39648C1.58673 4.39125 1.57614 4.38548 1.56543 4.37988C1.55366 4.37373 1.54178 4.3679 1.53027 4.36133C1.51006 4.34977 1.49004 4.33803 1.4707 4.3252C1.46407 4.3208 1.45769 4.31607 1.45117 4.31152C1.43148 4.2978 1.41223 4.28356 1.39355 4.26855C1.38382 4.26074 1.37468 4.25229 1.36523 4.24414C1.35161 4.23237 1.33819 4.22045 1.3252 4.20801C1.31504 4.19829 1.30468 4.18882 1.29492 4.17871C1.28212 4.16543 1.26991 4.15163 1.25781 4.1377C1.24643 4.1246 1.23534 4.11131 1.22461 4.09766C1.21439 4.08464 1.20492 4.07111 1.19531 4.05762C1.18771 4.04695 1.18006 4.03635 1.17285 4.02539C1.16155 4.00818 1.15092 3.99056 1.14062 3.97266C1.13371 3.96066 1.12656 3.94882 1.12012 3.93652C1.11424 3.92531 1.10899 3.91379 1.10352 3.90234C1.03789 3.76528 1.00003 3.61229 1 3.4502V2.5498C1.00009 2.07884 1.31011 1.6799 1.7373 1.54688C1.77012 1.53666 1.80378 1.52848 1.83789 1.52148C1.90634 1.50744 1.97721 1.50001 2.0498 1.5H2.9502L3.05762 1.50586Z" fill="white"/>
<path d="M14.0576 1.50586C14.0906 1.50922 14.1232 1.51416 14.1553 1.52051C14.2135 1.53206 14.2699 1.54859 14.3242 1.56934C14.3309 1.5719 14.3381 1.57347 14.3447 1.57617C14.3645 1.58419 14.3832 1.59436 14.4023 1.60352C14.4138 1.60899 14.4253 1.61424 14.4365 1.62012C14.4488 1.62656 14.4607 1.63371 14.4727 1.64062C14.4906 1.65092 14.5082 1.66155 14.5254 1.67285C14.5391 1.68185 14.5522 1.69156 14.5654 1.70117C14.5762 1.70898 14.5872 1.7164 14.5977 1.72461C14.6113 1.73534 14.6246 1.74643 14.6377 1.75781C14.6516 1.76991 14.6654 1.78212 14.6787 1.79492C14.6888 1.80468 14.6983 1.81504 14.708 1.8252C14.7205 1.83819 14.7324 1.85161 14.7441 1.86523C14.7523 1.87468 14.7607 1.88382 14.7686 1.89355C14.7836 1.91223 14.7978 1.93148 14.8115 1.95117C14.8161 1.95769 14.8208 1.96407 14.8252 1.9707C14.838 1.99004 14.8498 2.01006 14.8613 2.03027C14.8679 2.04178 14.8737 2.05366 14.8799 2.06543C14.8855 2.07614 14.8913 2.08673 14.8965 2.09766C14.9204 2.14751 14.9412 2.1991 14.957 2.25293C14.9816 2.33633 14.995 2.424 14.998 2.51465C14.9984 2.52634 15 2.53802 15 2.5498V3.4502C15 3.53926 14.9877 3.62543 14.9668 3.70801C14.9638 3.71984 14.9604 3.7315 14.957 3.74316C14.9512 3.76333 14.9445 3.78309 14.9375 3.80273C14.9336 3.81353 14.93 3.82433 14.9258 3.83496C14.9197 3.85048 14.9131 3.86571 14.9062 3.88086C14.9005 3.8935 14.8939 3.9056 14.8877 3.91797C14.8642 3.96504 14.8377 4.01003 14.8076 4.05273C14.8048 4.05673 14.8017 4.0605 14.7988 4.06445C14.7335 4.1546 14.6546 4.23346 14.5645 4.29883C14.5605 4.3017 14.5567 4.3048 14.5527 4.30762C14.51 4.33769 14.465 4.36416 14.418 4.3877C14.4056 4.39388 14.3935 4.40055 14.3809 4.40625C14.3657 4.41309 14.3505 4.41965 14.335 4.42578C14.3243 4.42997 14.3135 4.43365 14.3027 4.4375C14.2831 4.44452 14.2633 4.45117 14.2432 4.45703C14.2315 4.46042 14.2198 4.46381 14.208 4.4668C14.1893 4.47153 14.1705 4.47578 14.1514 4.47949C14.1205 4.48549 14.0894 4.49091 14.0576 4.49414L13.9502 4.5H7.0498C6.97786 4.49999 6.9077 4.49231 6.83984 4.47852C6.82368 4.47523 6.80787 4.47081 6.79199 4.4668C6.77894 4.46349 6.76578 4.46082 6.75293 4.45703C6.6991 4.44118 6.64751 4.42035 6.59766 4.39648C6.58673 4.39125 6.57614 4.38548 6.56543 4.37988C6.55366 4.37373 6.54178 4.3679 6.53027 4.36133C6.51006 4.34977 6.49004 4.33803 6.4707 4.3252C6.46407 4.3208 6.45769 4.31607 6.45117 4.31152C6.43148 4.2978 6.41223 4.28356 6.39355 4.26855C6.38382 4.26074 6.37468 4.25229 6.36523 4.24414C6.35161 4.23237 6.33819 4.22045 6.3252 4.20801C6.31504 4.19829 6.30468 4.18882 6.29492 4.17871C6.28212 4.16543 6.26991 4.15163 6.25781 4.1377C6.24643 4.1246 6.23534 4.11131 6.22461 4.09766C6.21311 4.08301 6.20213 4.06799 6.19141 4.05273C6.18507 4.04372 6.17891 4.03461 6.17285 4.02539C6.16155 4.00818 6.15092 3.99056 6.14062 3.97266C6.13371 3.96066 6.12656 3.94882 6.12012 3.93652C6.11424 3.92531 6.10899 3.91379 6.10352 3.90234C6.03789 3.76528 6.00003 3.61229 6 3.4502V2.5498C6.00011 1.97006 6.47006 1.50011 7.0498 1.5H13.9502L14.0576 1.50586Z" fill="white"/>
</svg>
