<svg width="16" height="16" viewBox="0 0 16 16" fill="none" xmlns="http://www.w3.org/2000/svg">
<path fill-rule="evenodd" clip-rule="evenodd" d="M12.2305 2C12.6051 1.99999 12.917 1.99976 13.1709 2.02051C13.4351 2.04212 13.6812 2.0889 13.9131 2.20703C14.2704 2.38916 14.561 2.67978 14.7432 3.03711C14.8613 3.26895 14.9081 3.51509 14.9297 3.7793C14.9504 4.03323 14.9502 4.34508 14.9502 4.71973V11.2803C14.9502 11.6549 14.9504 11.9668 14.9297 12.2207C14.9081 12.4849 14.8613 12.7311 14.7432 12.9629C14.561 13.3202 14.2704 13.6108 13.9131 13.793C13.6812 13.9111 13.4351 13.9579 13.1709 13.9795C12.917 14.0002 12.6051 14 12.2305 14H7.91992C7.54528 14 7.23342 14.0002 6.97949 13.9795C6.71529 13.9579 6.46915 13.9111 6.23731 13.793C5.87998 13.6108 5.58936 13.3202 5.40723 12.9629C5.33166 12.8146 5.28702 12.6599 5.25781 12.499C4.98164 12.499 4.74474 12.5003 4.54981 12.4844C4.3438 12.4675 4.14083 12.4302 3.94629 12.3311C3.65469 12.1824 3.41714 11.9449 3.26856 11.6533C3.24287 11.6028 3.22217 11.5515 3.2041 11.5H3.16016C2.8829 11.5 2.64474 11.5003 2.44922 11.4844C2.24345 11.4675 2.04101 11.43 1.84668 11.3311C1.55503 11.1825 1.31755 10.945 1.16895 10.6533C1.07 10.459 1.03247 10.2566 1.01563 10.0508C0.999652 9.85526 0.999993 9.61711 1 9.33984V6.66016C0.999993 6.3829 0.999652 6.14474 1.01563 5.94922C1.03247 5.74345 1.07 5.54101 1.16895 5.34668C1.31755 5.05503 1.55503 4.81755 1.84668 4.66895C2.04101 4.57 2.24345 4.53246 2.44922 4.51563C2.64474 4.49965 2.8829 4.49999 3.16016 4.5H3.2041C3.22217 4.44851 3.24287 4.39715 3.26856 4.34668C3.41714 4.05506 3.65469 3.81755 3.94629 3.66895C4.14083 3.56982 4.3438 3.53246 4.54981 3.51563C4.74474 3.4997 4.98164 3.49999 5.25781 3.5C5.28703 3.33943 5.33181 3.18513 5.40723 3.03711C5.58936 2.67978 5.87997 2.38916 6.23731 2.20703C6.46915 2.0889 6.71529 2.04212 6.97949 2.02051C7.23343 1.99976 7.54528 1.99999 7.91992 2H12.2305ZM5.10059 4.5C4.89635 4.50054 4.74879 4.50306 4.63086 4.5127C4.48715 4.52446 4.43047 4.54427 4.40039 4.55957C4.2969 4.6123 4.21289 4.69729 4.16016 4.80078C4.14486 4.83094 4.12404 4.88761 4.11231 5.03125C4.10007 5.18118 4.10059 5.37773 4.10059 5.67969V10.3203C4.10059 10.6223 4.10007 10.8188 4.11231 10.9688C4.12404 11.1124 4.14486 11.1691 4.16016 11.1992C4.21289 11.3027 4.2969 11.3877 4.40039 11.4404C4.43047 11.4557 4.48715 11.4755 4.63086 11.4873C4.74879 11.4969 4.89635 11.4995 5.10059 11.5V4.5ZM3 5.5C2.79586 5.50054 2.64915 5.50307 2.53125 5.5127C2.38792 5.52441 2.33099 5.54428 2.30078 5.55957C2.19729 5.6123 2.1123 5.69729 2.05957 5.80078C2.04428 5.83099 2.02441 5.88792 2.0127 6.03125C2.00046 6.18118 2 6.3777 2 6.67969V9.32031C2 9.6223 2.00046 9.81882 2.0127 9.96875C2.02441 10.1121 2.04428 10.169 2.05957 10.1992C2.1123 10.3027 2.19729 10.3877 2.30078 10.4404C2.33099 10.4557 2.38792 10.4756 2.53125 10.4873C2.64915 10.4969 2.79586 10.4995 3 10.5V5.5Z" fill="white"/>
</svg>
