<svg width="16" height="16" viewBox="0 0 16 16" fill="none" xmlns="http://www.w3.org/2000/svg">
<path fill-rule="evenodd" clip-rule="evenodd" d="M11.4751 3.18544L11.4751 4.0249H4.4751V3.18546C4.47509 2.90802 4.47508 2.67017 4.49106 2.47455C4.5079 2.26854 4.54492 2.06576 4.64404 1.87122C4.79264 1.57957 5.02976 1.34245 5.32141 1.19384C5.51595 1.09472 5.71873 1.0577 5.92474 1.04087C6.12036 1.02489 6.35821 1.02489 6.63564 1.0249H9.31456C9.59198 1.02489 9.82984 1.02489 10.0255 1.04087C10.2315 1.0577 10.4342 1.09472 10.6288 1.19384C10.9204 1.34245 11.1576 1.57957 11.3062 1.87122C11.4053 2.06576 11.4423 2.26854 11.4591 2.47455C11.4751 2.67016 11.4751 2.90802 11.4751 3.18544ZM10.4625 2.55598C10.4507 2.41181 10.4305 2.35528 10.4152 2.32521C10.3624 2.22172 10.2783 2.13758 10.1748 2.08485C10.1447 2.06953 10.0882 2.04933 9.94402 2.03755C9.79401 2.02529 9.59738 2.0249 9.2951 2.0249H6.6551C6.35282 2.0249 6.15618 2.02529 6.00618 2.03755C5.86201 2.04933 5.80547 2.06953 5.7754 2.08485C5.67191 2.13758 5.58777 2.22172 5.53504 2.32521C5.51972 2.35528 5.49952 2.41181 5.48774 2.55598C5.47811 2.67391 5.47581 2.82066 5.47526 3.0249H10.4749C10.4744 2.82066 10.4721 2.67391 10.4625 2.55598Z" fill="white"/>
<path fill-rule="evenodd" clip-rule="evenodd" d="M12.4751 5.28554L12.4751 6.125H3.4751V5.28553C3.47509 5.00811 3.47508 4.77026 3.49106 4.57465C3.5079 4.36864 3.54492 4.16585 3.64404 3.97132C3.79264 3.67966 4.02976 3.44254 4.32141 3.29394C4.51595 3.19482 4.71873 3.1578 4.92474 3.14097C5.12036 3.12498 5.35821 3.12499 5.63564 3.125H10.3146C10.592 3.12499 10.8298 3.12498 11.0255 3.14097C11.2315 3.1578 11.4342 3.19482 11.6288 3.29394C11.9204 3.44254 12.1576 3.67966 12.3062 3.97132C12.4053 4.16585 12.4423 4.36864 12.4591 4.57465C12.4751 4.77026 12.4751 5.00812 12.4751 5.28554ZM11.4625 4.65608C11.4507 4.51191 11.4305 4.45538 11.4152 4.42531C11.3624 4.32182 11.2783 4.23768 11.1748 4.18495C11.1447 4.16963 11.0882 4.14942 10.944 4.13765C10.794 4.12539 10.5974 4.125 10.2951 4.125H5.6551C5.35282 4.125 5.15618 4.12539 5.00618 4.13765C4.86201 4.14942 4.80547 4.16963 4.7754 4.18495C4.67191 4.23768 4.58777 4.32182 4.53504 4.42531C4.51972 4.45538 4.49952 4.51191 4.48774 4.65608C4.47811 4.77401 4.47581 4.92076 4.47526 5.125H11.4749C11.4744 4.92076 11.4721 4.77401 11.4625 4.65608Z" fill="white"/>
<path d="M4.7151 14.4751H11.2351C12.0192 14.4751 12.4112 14.4751 12.7107 14.3225C12.9741 14.1883 13.1883 13.9741 13.3225 13.7107C13.4751 13.4112 13.4751 13.0192 13.4751 12.2351V7.9651C13.4751 7.18103 13.4751 6.78899 13.3225 6.48951C13.1883 6.22608 12.9741 6.01191 12.7107 5.87769C12.4112 5.7251 12.0192 5.7251 11.2351 5.7251H4.7151C3.93102 5.7251 3.53899 5.7251 3.23951 5.87769C2.97608 6.01191 2.76191 6.22608 2.62769 6.48951C2.4751 6.78899 2.4751 7.18102 2.4751 7.9651V12.2351C2.4751 13.0192 2.4751 13.4112 2.62769 13.7107C2.76191 13.9741 2.97608 14.1883 3.23951 14.3225C3.53899 14.4751 3.93102 14.4751 4.7151 14.4751Z" fill="white"/>
<path fill-rule="evenodd" clip-rule="evenodd" d="M13.9751 7.94466V12.2555C13.9751 12.6302 13.9751 12.9414 13.9544 13.1953C13.9328 13.4597 13.8862 13.7057 13.768 13.9377C13.5859 14.2952 13.2952 14.5859 12.9377 14.768C12.7057 14.8862 12.4597 14.9328 12.1953 14.9544C11.9414 14.9751 11.6302 14.9751 11.2556 14.9751H4.69464C4.32 14.9751 4.00879 14.9751 3.75486 14.9544C3.49049 14.9328 3.24449 14.8862 3.01252 14.768C2.65501 14.5859 2.36434 14.2952 2.18219 13.9377C2.06399 13.7057 2.01743 13.4597 1.99583 13.1953C1.97509 12.9414 1.97509 12.6302 1.9751 12.2556V7.94464C1.97509 7.57 1.97509 7.25879 1.99583 7.00487C2.01743 6.74049 2.06399 6.49449 2.18219 6.26252C2.36434 5.90501 2.65501 5.61435 3.01252 5.43219C3.24449 5.31399 3.49049 5.26743 3.75486 5.24583C4.0088 5.22509 4.32001 5.22509 4.69466 5.2251H11.2555C11.6302 5.22509 11.9414 5.22509 12.1953 5.24583C12.4597 5.26743 12.7057 5.31399 12.9377 5.43219C13.2952 5.61435 13.5859 5.90501 13.768 6.26252C13.8862 6.49449 13.9328 6.74049 13.9544 7.00487C13.9751 7.2588 13.9751 7.57001 13.9751 7.94466ZM12.9577 7.0863C12.9411 6.88376 12.9114 6.78401 12.877 6.71651C12.7907 6.54716 12.653 6.40948 12.4837 6.32319C12.4162 6.2888 12.3164 6.25906 12.1139 6.24251C11.9055 6.22549 11.6354 6.2251 11.2351 6.2251H4.7151C4.31481 6.2251 4.04467 6.22549 3.8363 6.24251C3.63376 6.25906 3.53401 6.2888 3.46651 6.32319C3.29716 6.40948 3.15948 6.54716 3.07319 6.71651C3.0388 6.78401 3.00906 6.88376 2.99251 7.0863C2.97549 7.29467 2.9751 7.56481 2.9751 7.9651V12.2351C2.9751 12.6354 2.97549 12.9055 2.99251 13.1139C3.00906 13.3164 3.0388 13.4162 3.07319 13.4837C3.15948 13.653 3.29716 13.7907 3.46651 13.877C3.53401 13.9114 3.63376 13.9411 3.8363 13.9577C4.04467 13.9747 4.31481 13.9751 4.7151 13.9751H11.2351C11.6354 13.9751 11.9055 13.9747 12.1139 13.9577C12.3164 13.9411 12.4162 13.9114 12.4837 13.877C12.653 13.7907 12.7907 13.653 12.877 13.4837C12.9114 13.4162 12.9411 13.3164 12.9577 13.1139C12.9747 12.9055 12.9751 12.6354 12.9751 12.2351V7.9651C12.9751 7.56481 12.9747 7.29467 12.9577 7.0863Z" fill="white"/>
</svg>
