<svg width="16" height="16" viewBox="0 0 16 16" fill="none" xmlns="http://www.w3.org/2000/svg">
<path fill-rule="evenodd" clip-rule="evenodd" d="M10.2803 2C10.6549 1.99999 10.9668 1.99976 11.2207 2.02051C11.4849 2.04212 11.7311 2.0889 11.9629 2.20703C12.3202 2.38916 12.6108 2.67978 12.793 3.03711C12.8684 3.18508 12.9122 3.33949 12.9414 3.5C13.1756 3.50021 13.3796 3.50164 13.5508 3.51563C13.7566 3.53246 13.959 3.57 14.1533 3.66895C14.445 3.81755 14.6825 4.05503 14.8311 4.34668C14.93 4.54101 14.9675 4.74345 14.9844 4.94922C15.0004 5.14474 15 5.3829 15 5.66016V10.3398C15 10.6171 15.0004 10.8553 14.9844 11.0508C14.9675 11.2566 14.93 11.459 14.8311 11.6533C14.6825 11.945 14.445 12.1825 14.1533 12.3311C13.959 12.43 13.7566 12.4675 13.5508 12.4844C13.3796 12.4984 13.1756 12.4988 12.9414 12.499C12.9122 12.6599 12.8685 12.8146 12.793 12.9629C12.6108 13.3202 12.3202 13.6108 11.9629 13.793C11.7311 13.9111 11.4849 13.9579 11.2207 13.9795C10.9668 14.0002 10.6549 14 10.2803 14H5.71973C5.34509 14 5.03323 14.0002 4.7793 13.9795C4.5151 13.9579 4.26895 13.9111 4.03711 13.793C3.67978 13.6108 3.38916 13.3202 3.20703 12.9629C3.13146 12.8146 3.08682 12.6599 3.05762 12.499C2.82388 12.4988 2.6202 12.4983 2.44922 12.4844C2.24345 12.4675 2.04101 12.43 1.84668 12.3311C1.55503 12.1825 1.31755 11.945 1.16895 11.6533C1.07 11.459 1.03247 11.2566 1.01563 11.0508C0.999652 10.8553 0.999993 10.6171 1 10.3398V5.66016C0.999993 5.3829 0.999652 5.14474 1.01563 4.94922C1.03247 4.74345 1.07 4.54101 1.16895 4.34668C1.31755 4.05503 1.55503 3.81755 1.84668 3.66895C2.04101 3.57 2.24345 3.53246 2.44922 3.51563C2.6202 3.50166 2.82388 3.50021 3.05762 3.5C3.08683 3.33943 3.13161 3.18513 3.20703 3.03711C3.38916 2.67978 3.67978 2.38916 4.03711 2.20703C4.26895 2.0889 4.5151 2.04212 4.7793 2.02051C5.03323 1.99976 5.34508 1.99999 5.71973 2H10.2803ZM5.74024 3C5.34002 3 5.06968 3.00056 4.86133 3.01758C4.65882 3.03412 4.55872 3.06327 4.49121 3.09766C4.32187 3.18394 4.18394 3.32187 4.09766 3.49121C4.06327 3.55872 4.03413 3.65882 4.01758 3.86133C4.00056 4.06968 4 4.34002 4 4.74024V11.2598C4 11.66 4.00056 11.9303 4.01758 12.1387C4.03413 12.3412 4.06327 12.4413 4.09766 12.5088C4.18394 12.6781 4.32187 12.8161 4.49121 12.9023C4.55872 12.9367 4.65881 12.9659 4.86133 12.9824C5.06968 12.9994 5.34002 13 5.74024 13H10.2598C10.66 13 10.9303 12.9994 11.1387 12.9824C11.3412 12.9659 11.4413 12.9367 11.5088 12.9023C11.6781 12.8161 11.8161 12.6781 11.9023 12.5088C11.9367 12.4413 11.9659 12.3412 11.9824 12.1387C11.9994 11.9303 12 11.66 12 11.2598V4.74024C12 4.34002 11.9994 4.06968 11.9824 3.86133C11.9659 3.65881 11.9367 3.55872 11.9023 3.49121C11.8161 3.32187 11.6781 3.18394 11.5088 3.09766C11.4413 3.06327 11.3412 3.03412 11.1387 3.01758C10.9303 3.00056 10.66 3 10.2598 3H5.74024ZM3 4.5C2.79586 4.50054 2.64915 4.50307 2.53125 4.5127C2.38792 4.52441 2.33099 4.54428 2.30078 4.55957C2.19729 4.6123 2.1123 4.69729 2.05957 4.80078C2.04428 4.83099 2.02441 4.88792 2.0127 5.03125C2.00046 5.18118 2 5.3777 2 5.67969V10.3203C2 10.6223 2.00046 10.8188 2.0127 10.9688C2.02441 11.1121 2.04428 11.169 2.05957 11.1992C2.1123 11.3027 2.19729 11.3877 2.30078 11.4404C2.33099 11.4557 2.38792 11.4756 2.53125 11.4873C2.64915 11.4969 2.79586 11.4995 3 11.5V4.5ZM13 11.5C13.2041 11.4995 13.3509 11.4969 13.4688 11.4873C13.6121 11.4756 13.669 11.4557 13.6992 11.4404C13.8027 11.3877 13.8877 11.3027 13.9404 11.1992C13.9557 11.169 13.9756 11.1121 13.9873 10.9688C13.9995 10.8188 14 10.6223 14 10.3203V5.67969C14 5.3777 13.9995 5.18118 13.9873 5.03125C13.9756 4.88792 13.9557 4.83099 13.9404 4.80078C13.8877 4.69729 13.8027 4.6123 13.6992 4.55957C13.669 4.54428 13.6121 4.52441 13.4688 4.5127C13.3509 4.50307 13.2041 4.50054 13 4.5V11.5Z" fill="white"/>
</svg>
