<svg width="16" height="16" viewBox="0 0 16 16" fill="none" xmlns="http://www.w3.org/2000/svg">
<path fill-rule="evenodd" clip-rule="evenodd" d="M3.7998 11.1504C4.37964 11.1504 4.8495 11.6204 4.84961 12.2002V13.9502C4.8494 14.5299 4.37957 15 3.7998 15H2.0498C1.47013 14.9999 1.00021 14.5298 1 13.9502V12.2002C1.00011 11.6205 1.47006 11.1505 2.0498 11.1504H3.7998ZM2.0498 12.1504C2.02235 12.1505 2.00011 12.1727 2 12.2002V13.9502C2.00021 13.9776 2.02241 13.9999 2.0498 14H3.7998C3.82729 14 3.8494 13.9776 3.84961 13.9502V12.2002C3.8495 12.1727 3.82735 12.1504 3.7998 12.1504H2.0498Z" fill="white"/>
<path fill-rule="evenodd" clip-rule="evenodd" d="M8.875 11.1504C9.45474 11.1505 9.9247 11.6205 9.9248 12.2002V13.9502C9.92459 14.5298 9.45468 14.9999 8.875 15H7.125C6.54532 14.9999 6.07541 14.5298 6.0752 13.9502V12.2002C6.0753 11.6205 6.54526 11.1505 7.125 11.1504H8.875ZM7.125 12.1504C7.09754 12.1505 7.0753 12.1727 7.0752 12.2002V13.9502C7.07541 13.9776 7.09761 13.9999 7.125 14H8.875C8.90239 13.9999 8.92459 13.9776 8.9248 13.9502V12.2002C8.9247 12.1727 8.90246 12.1505 8.875 12.1504H7.125Z" fill="white"/>
<path fill-rule="evenodd" clip-rule="evenodd" d="M13.9502 11.1504C14.5298 11.1506 14.9999 11.6205 15 12.2002V13.9502C14.9998 14.5298 14.5298 14.9998 13.9502 15H12.2002C11.6205 14.9999 11.1506 14.5298 11.1504 13.9502V12.2002C11.1505 11.6205 11.6205 11.1505 12.2002 11.1504H13.9502ZM12.2002 12.1504C12.1727 12.1505 12.1505 12.1727 12.1504 12.2002V13.9502C12.1506 13.9776 12.1728 13.9999 12.2002 14H13.9502C13.9775 13.9998 13.9998 13.9775 14 13.9502V12.2002C13.9999 12.1728 13.9776 12.1506 13.9502 12.1504H12.2002Z" fill="white"/>
<path fill-rule="evenodd" clip-rule="evenodd" d="M3.7998 6.0752C4.37964 6.0752 4.8495 6.54519 4.84961 7.125V8.875C4.84951 9.45481 4.37964 9.9248 3.7998 9.9248H2.0498C1.47006 9.9247 1.0001 9.45475 1 8.875V7.125C1.00011 6.54526 1.47006 6.0753 2.0498 6.0752H3.7998ZM2.0498 7.0752C2.02235 7.0753 2.00011 7.09754 2 7.125V8.875C2.0001 8.90246 2.02234 8.9247 2.0498 8.9248H3.7998C3.82736 8.9248 3.84951 8.90253 3.84961 8.875V7.125C3.8495 7.09748 3.82735 7.0752 3.7998 7.0752H2.0498Z" fill="white"/>
<path fill-rule="evenodd" clip-rule="evenodd" d="M8.875 6.0752C9.45474 6.0753 9.9247 6.54526 9.9248 7.125V8.875C9.92471 9.45475 9.45475 9.9247 8.875 9.9248H7.125C6.54525 9.9247 6.07529 9.45475 6.0752 8.875V7.125C6.0753 6.54526 6.54526 6.0753 7.125 6.0752H8.875ZM7.125 7.0752C7.09754 7.0753 7.0753 7.09754 7.0752 7.125V8.875C7.07529 8.90246 7.09754 8.9247 7.125 8.9248H8.875C8.90246 8.9247 8.92471 8.90246 8.9248 8.875V7.125C8.9247 7.09754 8.90246 7.0753 8.875 7.0752H7.125Z" fill="white"/>
<path fill-rule="evenodd" clip-rule="evenodd" d="M13.9502 6.0752C14.5298 6.07541 14.9999 6.54532 15 7.125V8.875C14.9999 9.45468 14.5299 9.92459 13.9502 9.9248H12.2002C11.6204 9.9247 11.1505 9.45475 11.1504 8.875V7.125C11.1505 6.54526 11.6205 6.0753 12.2002 6.0752H13.9502ZM12.2002 7.0752C12.1727 7.0753 12.1505 7.09754 12.1504 7.125V8.875C12.1505 8.90246 12.1727 8.9247 12.2002 8.9248H13.9502C13.9776 8.92459 13.9999 8.9024 14 8.875V7.125C13.9999 7.09761 13.9776 7.07541 13.9502 7.0752H12.2002Z" fill="white"/>
<path fill-rule="evenodd" clip-rule="evenodd" d="M3.7998 1C4.37964 1 4.8495 1.47 4.84961 2.0498V3.7998C4.84961 4.3797 4.3797 4.84961 3.7998 4.84961H2.0498C1.47 4.8495 1 4.37964 1 3.7998V2.0498C1.00011 1.47006 1.47006 1.00011 2.0498 1H3.7998ZM2.0498 2C2.02235 2.0001 2.00011 2.02234 2 2.0498V3.7998C2 3.82735 2.02228 3.8495 2.0498 3.84961H3.7998C3.82742 3.84961 3.84961 3.82742 3.84961 3.7998V2.0498C3.8495 2.02228 3.82735 2 3.7998 2H2.0498Z" fill="white"/>
<path fill-rule="evenodd" clip-rule="evenodd" d="M8.875 1C9.45474 1.00011 9.9247 1.47006 9.9248 2.0498V3.7998C9.9248 4.37964 9.45481 4.8495 8.875 4.84961H7.125C6.54519 4.8495 6.0752 4.37964 6.0752 3.7998V2.0498C6.0753 1.47006 6.54526 1.00011 7.125 1H8.875ZM7.125 2C7.09754 2.0001 7.0753 2.02235 7.0752 2.0498V3.7998C7.0752 3.82735 7.09748 3.8495 7.125 3.84961H8.875C8.90252 3.8495 8.9248 3.82735 8.9248 3.7998V2.0498C8.9247 2.02235 8.90246 2.00011 8.875 2H7.125Z" fill="white"/>
<path fill-rule="evenodd" clip-rule="evenodd" d="M13.9502 1C14.5298 1.00021 14.9999 1.47013 15 2.0498V3.7998C15 4.37957 14.5299 4.8494 13.9502 4.84961H12.2002C11.6204 4.8495 11.1504 4.37964 11.1504 3.7998V2.0498C11.1505 1.47006 11.6205 1.00011 12.2002 1H13.9502ZM12.2002 2C12.1727 2.0001 12.1505 2.02235 12.1504 2.0498V3.7998C12.1504 3.82735 12.1727 3.8495 12.2002 3.84961H13.9502C13.9776 3.8494 14 3.82729 14 3.7998V2.0498C13.9999 2.02241 13.9776 2.00021 13.9502 2H12.2002Z" fill="white"/>
</svg>
