<svg width="16" height="16" viewBox="0 0 16 16" fill="none" xmlns="http://www.w3.org/2000/svg">
<path fill-rule="evenodd" clip-rule="evenodd" d="M10.3398 1C10.6171 0.999993 10.8553 0.999652 11.0508 1.01563C11.2566 1.03247 11.459 1.07 11.6533 1.16895C11.945 1.31755 12.1825 1.55503 12.3311 1.84668C12.43 2.04101 12.4675 2.24345 12.4844 2.44922C12.4983 2.6202 12.4988 2.82388 12.499 3.05762C12.6599 3.08682 12.8146 3.13146 12.9629 3.20703C13.3202 3.38916 13.6108 3.67978 13.793 4.03711C13.9111 4.26895 13.9579 4.5151 13.9795 4.7793C14.0002 5.03323 14 5.34508 14 5.71973V10.2803C14 10.6549 14.0002 10.9668 13.9795 11.2207C13.9579 11.4849 13.9111 11.7311 13.793 11.9629C13.6108 12.3202 13.3202 12.6108 12.9629 12.793C12.8146 12.8685 12.6599 12.9122 12.499 12.9414C12.4988 13.1756 12.4984 13.3796 12.4844 13.5508C12.4675 13.7566 12.43 13.959 12.3311 14.1533C12.1825 14.445 11.945 14.6825 11.6533 14.8311C11.459 14.93 11.2566 14.9675 11.0508 14.9844C10.8553 15.0004 10.6171 15 10.3398 15H5.66016C5.3829 15 5.14474 15.0004 4.94922 14.9844C4.74345 14.9675 4.54101 14.93 4.34668 14.8311C4.05503 14.6825 3.81755 14.445 3.66895 14.1533C3.57 13.959 3.53246 13.7566 3.51563 13.5508C3.50164 13.3796 3.50021 13.1756 3.5 12.9414C3.33949 12.9122 3.18508 12.8684 3.03711 12.793C2.67978 12.6108 2.38916 12.3202 2.20703 11.9629C2.0889 11.7311 2.04212 11.4849 2.02051 11.2207C1.99976 10.9668 1.99999 10.6549 2 10.2803V5.71973C1.99999 5.34509 1.99976 5.03323 2.02051 4.7793C2.04212 4.5151 2.0889 4.26895 2.20703 4.03711C2.38916 3.67978 2.67978 3.38916 3.03711 3.20703C3.18513 3.13161 3.33943 3.08683 3.5 3.05762C3.50021 2.82388 3.50166 2.6202 3.51563 2.44922C3.53246 2.24345 3.57 2.04101 3.66895 1.84668C3.81755 1.55503 4.05503 1.31755 4.34668 1.16895C4.54101 1.07 4.74345 1.03247 4.94922 1.01563C5.14474 0.999652 5.3829 0.999993 5.66016 1H10.3398ZM4.5 13C4.50054 13.2041 4.50307 13.3509 4.5127 13.4688C4.52441 13.6121 4.54428 13.669 4.55957 13.6992C4.6123 13.8027 4.69729 13.8877 4.80078 13.9404C4.83099 13.9557 4.88792 13.9756 5.03125 13.9873C5.18118 13.9995 5.3777 14 5.67969 14H10.3203C10.6223 14 10.8188 13.9995 10.9688 13.9873C11.1121 13.9756 11.169 13.9557 11.1992 13.9404C11.3027 13.8877 11.3877 13.8027 11.4404 13.6992C11.4557 13.669 11.4756 13.6121 11.4873 13.4688C11.4969 13.3509 11.4995 13.2041 11.5 13H4.5ZM4.74024 4C4.34002 4 4.06968 4.00056 3.86133 4.01758C3.65882 4.03413 3.55872 4.06327 3.49121 4.09766C3.32187 4.18394 3.18394 4.32187 3.09766 4.49121C3.06327 4.55872 3.03413 4.65882 3.01758 4.86133C3.00056 5.06968 3 5.34002 3 5.74024V10.2598C3 10.66 3.00056 10.9303 3.01758 11.1387C3.03412 11.3412 3.06327 11.4413 3.09766 11.5088C3.18394 11.6781 3.32187 11.8161 3.49121 11.9023C3.55872 11.9367 3.65881 11.9659 3.86133 11.9824C4.06968 11.9994 4.34002 12 4.74024 12H11.2598C11.66 12 11.9303 11.9994 12.1387 11.9824C12.3412 11.9659 12.4413 11.9367 12.5088 11.9023C12.6781 11.8161 12.8161 11.6781 12.9023 11.5088C12.9367 11.4413 12.9659 11.3412 12.9824 11.1387C12.9994 10.9303 13 10.66 13 10.2598V5.74024C13 5.34002 12.9994 5.06968 12.9824 4.86133C12.9659 4.65881 12.9367 4.55872 12.9023 4.49121C12.8161 4.32187 12.6781 4.18394 12.5088 4.09766C12.4413 4.06327 12.3412 4.03413 12.1387 4.01758C11.9303 4.00056 11.66 4 11.2598 4H4.74024ZM5.67969 2C5.3777 2 5.18118 2.00046 5.03125 2.0127C4.88792 2.02441 4.83099 2.04428 4.80078 2.05957C4.69729 2.1123 4.6123 2.19729 4.55957 2.30078C4.54428 2.33099 4.52441 2.38792 4.5127 2.53125C4.50307 2.64915 4.50054 2.79586 4.5 3H11.5C11.4995 2.79586 11.4969 2.64915 11.4873 2.53125C11.4756 2.38792 11.4557 2.33099 11.4404 2.30078C11.3877 2.19729 11.3027 2.1123 11.1992 2.05957C11.169 2.04428 11.1121 2.02441 10.9688 2.0127C10.8188 2.00046 10.6223 2 10.3203 2H5.67969Z" fill="white"/>
</svg>
