<svg width="16" height="16" viewBox="0 0 16 16" fill="none" xmlns="http://www.w3.org/2000/svg">
<path fill-rule="evenodd" clip-rule="evenodd" d="M3.16054 4.5L4 4.5V11.5H3.16055C2.88312 11.5 2.64526 11.5 2.44965 11.484C2.24364 11.4672 2.04085 11.4302 1.84632 11.3311C1.55466 11.1825 1.31754 10.9453 1.16894 10.6537C1.06982 10.4591 1.0328 10.2564 1.01597 10.0504C0.999984 9.85474 0.999992 9.61689 1 9.33946V6.66054C0.999992 6.38311 0.999984 6.14526 1.01597 5.94965C1.0328 5.74364 1.06982 5.54085 1.16894 5.34631C1.31754 5.05466 1.55466 4.81754 1.84632 4.66894C2.04085 4.56982 2.24364 4.5328 2.44965 4.51597C2.64526 4.49998 2.88312 4.49999 3.16054 4.5ZM2.53108 5.51265C2.38691 5.52442 2.33038 5.54463 2.30031 5.55995C2.19682 5.61268 2.11268 5.69682 2.05995 5.80031C2.04463 5.83038 2.02442 5.88691 2.01265 6.03108C2.00039 6.18108 2 6.37772 2 6.68V9.32C2 9.62228 2.00039 9.81892 2.01265 9.96892C2.02442 10.1131 2.04463 10.1696 2.05995 10.1997C2.11268 10.3032 2.19682 10.3873 2.30031 10.4401C2.33038 10.4554 2.38691 10.4756 2.53108 10.4874C2.64901 10.497 2.79576 10.4993 3 10.4998V5.50017C2.79576 5.50071 2.64901 5.50301 2.53108 5.51265Z" fill="white"/>
<path fill-rule="evenodd" clip-rule="evenodd" d="M5.26064 3.5L6.1001 3.5V12.5H5.26063C4.98321 12.5 4.74536 12.5 4.54974 12.484C4.34373 12.4672 4.14095 12.4302 3.94641 12.3311C3.65476 12.1825 3.41764 11.9453 3.26904 11.6537C3.16992 11.4591 3.1329 11.2564 3.11606 11.0504C3.10008 10.8547 3.10009 10.6169 3.1001 10.3395V5.66054C3.10009 5.38311 3.10008 5.14526 3.11606 4.94965C3.1329 4.74364 3.16992 4.54085 3.26904 4.34632C3.41764 4.05466 3.65476 3.81754 3.94641 3.66894C4.14095 3.56982 4.34373 3.5328 4.54974 3.51597C4.74536 3.49998 4.98321 3.49999 5.26064 3.5ZM4.63118 4.51265C4.48701 4.52442 4.43047 4.54463 4.4004 4.55995C4.29691 4.61268 4.21278 4.69682 4.16004 4.80031C4.14472 4.83038 4.12452 4.88691 4.11274 5.03108C4.10049 5.18108 4.1001 5.37772 4.1001 5.68V10.32C4.1001 10.6223 4.10049 10.8189 4.11274 10.9689C4.12452 11.1131 4.14472 11.1696 4.16004 11.1997C4.21278 11.3032 4.29691 11.3873 4.4004 11.4401C4.43047 11.4554 4.48701 11.4756 4.63118 11.4874C4.74911 11.497 4.89586 11.4993 5.1001 11.4998V4.50017C4.89586 4.50071 4.74911 4.50301 4.63118 4.51265Z" fill="white"/>
<path fill-rule="evenodd" clip-rule="evenodd" d="M7.91975 2H12.2306C12.6053 1.99999 12.9165 1.99999 13.1704 2.02073C13.4348 2.04234 13.6808 2.08889 13.9128 2.20709C14.2703 2.38925 14.5609 2.67991 14.7431 3.03742C14.8613 3.26939 14.9079 3.51539 14.9295 3.77977C14.9502 4.0337 14.9502 4.3449 14.9502 4.71955V11.2805C14.9502 11.6551 14.9502 11.9663 14.9295 12.2202C14.9079 12.4846 14.8613 12.7306 14.7431 12.9626C14.5609 13.3201 14.2703 13.6108 13.9128 13.7929C13.6808 13.9111 13.4348 13.9577 13.1704 13.9793C12.9165 14 12.6053 14 12.2306 14H7.91974C7.5451 14 7.23389 14 6.97996 13.9793C6.71559 13.9577 6.46959 13.9111 6.23761 13.7929C5.88011 13.6108 5.58944 13.3201 5.40728 12.9626C5.28909 12.7306 5.24253 12.4846 5.22093 12.2202C5.20018 11.9663 5.20019 11.6551 5.2002 11.2804V4.71956C5.20019 4.34491 5.20018 4.0337 5.22093 3.77977C5.24253 3.51539 5.28909 3.26939 5.40728 3.03742C5.58944 2.67991 5.88011 2.38925 6.23761 2.20709C6.46959 2.08889 6.71559 2.04234 6.97996 2.02073C7.23389 1.99999 7.5451 1.99999 7.91975 2ZM7.06139 3.01741C6.85886 3.03396 6.75911 3.0637 6.6916 3.09809C6.52226 3.18438 6.38458 3.32206 6.29829 3.49141C6.2639 3.55891 6.23416 3.65867 6.21761 3.8612C6.20058 4.06957 6.2002 4.33971 6.2002 4.74V11.26C6.2002 11.6603 6.20058 11.9304 6.21761 12.1388C6.23416 12.3413 6.2639 12.4411 6.29829 12.5086C6.38458 12.6779 6.52226 12.8156 6.6916 12.9019C6.75911 12.9363 6.85886 12.966 7.06139 12.9826C7.26976 12.9996 7.53991 13 7.9402 13H12.2102C12.6105 13 12.8806 12.9996 13.089 12.9826C13.2915 12.966 13.3913 12.9363 13.4588 12.9019C13.6281 12.8156 13.7658 12.6779 13.8521 12.5086C13.8865 12.4411 13.9162 12.3413 13.9328 12.1388C13.9498 11.9304 13.9502 11.6603 13.9502 11.26V4.74C13.9502 4.33971 13.9498 4.06957 13.9328 3.8612C13.9162 3.65867 13.8865 3.55891 13.8521 3.49141C13.7658 3.32206 13.6281 3.18438 13.4588 3.09809C13.3913 3.0637 13.2915 3.03396 13.089 3.01741C12.8806 3.00039 12.6105 3 12.2102 3H7.9402C7.53991 3 7.26976 3.00039 7.06139 3.01741Z" fill="white"/>
</svg>
