<svg width="16" height="16" viewBox="0 0 16 16" fill="none" xmlns="http://www.w3.org/2000/svg">
<path fill-rule="evenodd" clip-rule="evenodd" d="M4.51683 2.25C4.51683 1.97386 4.74068 1.75 5.01683 1.75H10.983C11.2591 1.75 11.483 1.97386 11.483 2.25C11.483 2.52614 11.2591 2.75 10.983 2.75H5.01683C4.74068 2.75 4.51683 2.52614 4.51683 2.25ZM3.30458 7.32774H12.6952C13.1126 7.32774 13.4574 7.32773 13.7363 7.35153C14.0252 7.37619 14.2937 7.42935 14.5406 7.56639C14.9183 7.77596 15.2133 8.10795 15.377 8.50764C15.484 8.76901 15.5053 9.04187 15.4958 9.33164C15.4866 9.61146 15.446 9.9539 15.3969 10.3684L15.2208 11.8552C15.1813 12.1888 15.1483 12.4673 15.1035 12.6942C15.0566 12.9315 14.9902 13.15 14.8645 13.3532C14.6696 13.6685 14.3867 13.9198 14.0507 14.0763C13.8341 14.1772 13.6093 14.2175 13.3682 14.2361C13.1375 14.254 12.8571 14.254 12.5212 14.254H3.47863C3.1427 14.254 2.86221 14.254 2.63159 14.2361C2.39041 14.2175 2.16564 14.1772 1.94909 14.0763C1.61307 13.9198 1.33016 13.6685 1.13522 13.3532C1.00959 13.15 0.94319 12.9315 0.896268 12.6942C0.851399 12.4673 0.818419 12.1888 0.778912 11.8552L0.602817 10.3684C0.553717 9.95388 0.513154 9.61145 0.503985 9.33164C0.494489 9.04187 0.515705 8.76901 0.622748 8.50764C0.786444 8.10795 1.08143 7.77596 1.4591 7.56639C1.70606 7.42935 1.97453 7.37619 2.26341 7.35153C2.54236 7.32773 2.88718 7.32774 3.30458 7.32774ZM2.34844 8.34791C2.12217 8.36722 2.01424 8.40198 1.94431 8.44079C1.76542 8.54006 1.62568 8.69732 1.54814 8.88664C1.51784 8.96065 1.49601 9.07192 1.50345 9.29889C1.51105 9.53097 1.54614 9.83084 1.59844 10.2724L1.76973 11.7186C1.81206 12.076 1.84081 12.3158 1.87728 12.5002C1.91253 12.6786 1.94836 12.7668 1.98577 12.8273C2.07811 12.9766 2.21212 13.0957 2.37129 13.1698C2.43578 13.1999 2.52761 13.2251 2.70883 13.2391C2.89626 13.2536 3.13778 13.254 3.49765 13.254H12.5021C12.862 13.254 13.1035 13.2536 13.2909 13.2391C13.4721 13.2251 13.564 13.1999 13.6285 13.1698C13.7876 13.0957 13.9216 12.9766 14.014 12.8273C14.0514 12.7668 14.0872 12.6786 14.1225 12.5002C14.1589 12.3158 14.1877 12.076 14.23 11.7186L14.4013 10.2724C14.4536 9.83084 14.4887 9.53097 14.4963 9.29889C14.5037 9.07192 14.4819 8.96065 14.4516 8.88664C14.3741 8.69732 14.2343 8.54006 14.0554 8.44079C13.9855 8.40198 13.8776 8.36722 13.6513 8.34791C13.4199 8.32817 13.118 8.32774 12.6734 8.32774H3.32636C2.88171 8.32774 2.5798 8.32817 2.34844 8.34791ZM4.46352 3.84171C4.12545 3.84171 3.84554 3.84171 3.61722 3.85794C3.38071 3.87477 3.15946 3.91093 2.94859 4.00425C2.47178 4.21526 2.10264 4.61296 1.92767 5.10414C1.85029 5.32137 1.83068 5.5447 1.83149 5.7818C1.83227 6.0107 1.85309 6.28983 1.87824 6.62696L1.87957 6.64482L2.8768 6.57045C2.84999 6.21097 2.83213 5.96746 2.83148 5.77838C2.83085 5.59348 2.84776 5.50126 2.86968 5.43971C2.95256 5.20704 3.12742 5.01866 3.35328 4.91871C3.41303 4.89226 3.50374 4.86854 3.68817 4.85542C3.87678 4.84201 4.12095 4.84171 4.48142 4.84171H11.5183C11.8788 4.84171 12.123 4.84201 12.3116 4.85542C12.496 4.86854 12.5867 4.89226 12.6465 4.91871C12.8723 5.01866 13.0472 5.20704 13.1301 5.43971C13.152 5.50126 13.1689 5.59348 13.1683 5.77838C13.1676 5.96746 13.1498 6.21097 13.123 6.57045L14.1202 6.64482L14.1215 6.62699C14.1467 6.28985 14.1675 6.0107 14.1683 5.7818C14.1691 5.5447 14.1495 5.32137 14.0721 5.10414C13.8971 4.61296 13.528 4.21526 13.0512 4.00425C12.8403 3.91093 12.6191 3.87477 12.3825 3.85794C12.1542 3.84171 11.8743 3.84171 11.5362 3.84171H4.46352Z" fill="white"/>
</svg>
