<svg width="16" height="16" viewBox="0 0 16 16" fill="none" xmlns="http://www.w3.org/2000/svg">
<path fill-rule="evenodd" clip-rule="evenodd" d="M6.12538 2.25003H9.87482C10.6463 2.24967 11.1785 2.24942 11.6443 2.43319C12.0542 2.5949 12.4169 2.8572 12.6988 3.19591C12.9498 3.49762 13.1063 3.87343 13.2783 4.3747H13.775C14.0649 4.3747 14.3 4.60976 14.3 4.89971C14.3 5.18966 14.0649 5.42472 13.775 5.42472H13.6261L13.9133 6.2964C14.5652 6.69649 15 7.41585 15 8.23677L15 12.525C15 13.2015 14.4516 13.75 13.775 13.75C13.0985 13.75 12.55 13.2015 12.55 12.525V11.98H3.45V12.525C3.45 13.2015 2.90155 13.75 2.225 13.75C1.54845 13.75 1 13.2015 1 12.525V8.23677C1 7.41575 1.4349 6.69631 2.0869 6.29625L2.37412 5.42472H2.2249C1.93495 5.42472 1.6999 5.18966 1.6999 4.89971C1.6999 4.60976 1.93495 4.3747 2.2249 4.3747H2.72185C2.89388 3.87343 3.05036 3.49762 3.30144 3.19591C3.58333 2.8572 3.94595 2.5949 4.35587 2.43319C4.82171 2.24942 5.35391 2.24967 6.12538 2.25003ZM12.4622 5.24774L12.6975 5.96174H3.30269L3.53799 5.24775C3.82555 4.37517 3.93245 4.07915 4.10852 3.86758C4.27765 3.66435 4.49522 3.50697 4.74117 3.40995C4.99721 3.30895 5.31181 3.30008 6.23054 3.30008H9.76965C10.6884 3.30008 11.003 3.30895 11.259 3.40995C11.505 3.50697 11.7225 3.66435 11.8917 3.86758C12.0677 4.07915 12.1746 4.37517 12.4622 5.24774ZM11.8 9.73215C12.3523 9.73215 12.8 9.28443 12.8 8.73214C12.8 8.17984 12.3523 7.73212 11.8 7.73212C11.2478 7.73212 10.8 8.17984 10.8 8.73214C10.8 9.28443 11.2478 9.73215 11.8 9.73215ZM5.1001 8.73214C5.1001 9.28443 4.65238 9.73215 4.1001 9.73215C3.54781 9.73215 3.1001 9.28443 3.1001 8.73214C3.1001 8.17984 3.54781 7.73212 4.1001 7.73212C4.65238 7.73212 5.1001 8.17984 5.1001 8.73214ZM6.95769 8.08532C6.56684 8.08532 6.25 8.40217 6.25 8.79302C6.25 9.18386 6.56684 9.50071 6.95769 9.50071H9.04231C9.43316 9.50071 9.75 9.18386 9.75 8.79302C9.75 8.40217 9.43316 8.08532 9.04231 8.08532H6.95769Z" fill="white"/>
</svg>
