<svg width="16" height="16" viewBox="0 0 16 16" fill="none" xmlns="http://www.w3.org/2000/svg">
<path fill-rule="evenodd" clip-rule="evenodd" d="M6.14751 2.25003H9.85258C10.6308 2.24967 11.1676 2.24941 11.6364 2.43581C12.0489 2.59981 12.413 2.86573 12.6948 3.2087C12.9643 3.5367 13.1225 3.95081 13.3068 4.51559H13.775C14.0649 4.51559 14.3 4.75064 14.3 5.04059C14.3 5.33054 14.0649 5.56559 13.775 5.56559H13.643L13.9161 6.42017C14.2717 6.63871 14.5615 6.95162 14.752 7.32564C14.8914 7.59916 14.9479 7.89204 14.9744 8.21632C15 8.52961 15 8.91511 15 9.38648L15.0001 12.5275C15.0001 13.204 14.4517 13.7525 13.7751 13.7525C13.0986 13.7525 12.5501 13.204 12.5501 12.5275V12.0122H3.4501V12.5275C3.4501 13.204 2.90165 13.7525 2.2251 13.7525C1.54855 13.7525 1.0001 13.204 1.0001 12.5275L1 9.38647C0.999994 8.91512 0.99999 8.52961 1.02559 8.21632C1.05208 7.89204 1.1086 7.59916 1.24796 7.32564C1.43855 6.95158 1.72835 6.63864 2.08406 6.42009L2.35713 5.56559H2.2252C1.93525 5.56559 1.7002 5.33054 1.7002 5.04059C1.7002 4.75064 1.93525 4.51559 2.2252 4.51559H2.69325C2.87759 3.95081 3.03584 3.5367 3.30532 3.2087C3.58709 2.86573 3.95124 2.59981 4.36371 2.43581C4.83249 2.24941 5.3693 2.24967 6.14751 2.25003ZM6.2537 3.30006C5.32675 3.30006 5.00929 3.30907 4.75166 3.41151C4.50417 3.50991 4.28569 3.66946 4.11662 3.87525C3.94062 4.08947 3.8354 4.38912 3.55324 5.27208L3.29398 6.08337H12.7061L12.4469 5.27208C12.1647 4.38912 12.0595 4.08947 11.8835 3.87525C11.7144 3.66946 11.4959 3.50991 11.2484 3.41151C10.9908 3.30907 10.6734 3.30006 9.7464 3.30006H6.2537ZM3.21836 7.15557C2.95901 7.17676 2.81969 7.21561 2.71886 7.26698C2.48836 7.38443 2.30096 7.57183 2.18352 7.80233C2.13214 7.90316 2.09329 8.04247 2.0721 8.30182C2.05041 8.5673 2.05 8.90976 2.05 9.40847V10.9622H13.95V9.40847C13.95 8.90976 13.9496 8.5673 13.9279 8.30182C13.9067 8.04247 13.8679 7.90316 13.8165 7.80233C13.699 7.57183 13.5116 7.38443 13.2811 7.26698C13.1803 7.21561 13.041 7.17676 12.7816 7.15557C12.5162 7.13388 12.1737 7.13347 11.675 7.13347H4.325C3.82629 7.13347 3.48383 7.13388 3.21836 7.15557ZM11.8 9.97754C12.3523 9.97754 12.8 9.52982 12.8 8.97754C12.8 8.42525 12.3523 7.97754 11.8 7.97754C11.2477 7.97754 10.8 8.42525 10.8 8.97754C10.8 9.52982 11.2477 9.97754 11.8 9.97754ZM5.19995 8.97734C5.19995 9.52963 4.75224 9.97734 4.19995 9.97734C3.64767 9.97734 3.19995 9.52963 3.19995 8.97734C3.19995 8.42506 3.64767 7.97734 4.19995 7.97734C4.75224 7.97734 5.19995 8.42506 5.19995 8.97734ZM7.0001 8.17683C6.58588 8.17683 6.2501 8.51262 6.2501 8.92683C6.2501 9.34105 6.58588 9.67683 7.0001 9.67683H9.0001C9.41431 9.67683 9.7501 9.34105 9.7501 8.92683C9.7501 8.51262 9.41431 8.17683 9.0001 8.17683H7.0001Z" fill="white"/>
</svg>
