<svg width="16" height="16" viewBox="0 0 16 16" fill="none" xmlns="http://www.w3.org/2000/svg">
<path fill-rule="evenodd" clip-rule="evenodd" d="M10.1161 2.56856C9.79743 2.76789 9.2331 3.1024 8.56719 3.41517C7.88252 3.73676 7.04542 4.05735 6.23935 4.15956C6.2435 4.31611 6.24973 4.46918 6.25794 4.61886H5.25659C5.24124 4.32167 5.23325 4.0132 5.23325 3.69306C5.23325 3.41692 5.45711 3.19306 5.73325 3.19306C6.45466 3.19306 7.34201 2.88582 8.14205 2.51004C8.92749 2.14113 9.56508 1.73715 9.76882 1.6038C9.98029 1.4654 10.2519 1.4654 10.4633 1.6038C10.6671 1.73715 11.3047 2.14113 12.0901 2.51004C12.8901 2.88582 13.7775 3.19306 14.4989 3.19306C14.775 3.19306 14.9989 3.41692 14.9989 3.69306C14.9989 7.42725 13.9123 9.57207 12.73 10.7893C12.6769 10.8439 12.6237 10.8966 12.5706 10.9473C12.5702 10.6681 12.5673 10.3903 12.5475 10.1467C12.5334 9.97358 12.5086 9.778 12.4563 9.57101C13.2239 8.54284 13.9209 6.8718 13.9928 4.15956C13.1867 4.05735 12.3496 3.73676 11.665 3.41517C10.999 3.1024 10.4347 2.76789 10.1161 2.56856ZM5.07232 5.70613C4.50998 5.70573 4.09344 5.70544 3.72627 5.84947C3.40367 5.97601 3.1179 6.18133 2.89503 6.4467C2.71092 6.66593 2.59056 6.93407 2.46993 7.26849H2.05196C1.76201 7.26849 1.52696 7.50354 1.52696 7.79349C1.52696 8.08344 1.76201 8.31849 2.05196 8.31849H2.11366L1.96811 8.75079C1.64876 8.92558 1.38905 9.19274 1.22339 9.51785C1.10996 9.74047 1.06579 9.97567 1.04538 10.2254C1.02583 10.4648 1.02583 10.7577 1.02584 11.108V13.0847H1V13.4457C1 14.0256 1.47198 14.4957 2.05188 14.4957C2.63178 14.4957 3.10376 14.0256 3.10376 13.4457V13.4085H9.41504V13.4457C9.41504 14.0256 9.88702 14.4957 10.4669 14.4957C11.0468 14.4957 11.5188 14.0256 11.5188 13.4457V13.0847H11.4927V11.108C11.4928 10.7577 11.4928 10.4648 11.4732 10.2254C11.4528 9.97567 11.4086 9.74047 11.2952 9.51785C11.1295 9.19266 10.8697 8.92544 10.5502 8.75065L10.4047 8.31849H10.4668C10.7567 8.31849 10.9918 8.08344 10.9918 7.79349C10.9918 7.50354 10.7567 7.26849 10.4668 7.26849H10.0485C9.92782 6.93407 9.80747 6.66593 9.62335 6.4467C9.40049 6.18133 9.11471 5.97601 8.79211 5.84947C8.42494 5.70544 8.0084 5.70573 7.44607 5.70613H5.07232ZM4.09144 6.78041C4.25939 6.71453 4.46923 6.70617 5.16296 6.70617H7.35542C8.04915 6.70617 8.259 6.71453 8.42694 6.78041C8.59408 6.84597 8.74213 6.95234 8.85759 7.08982C8.97361 7.22796 9.04849 7.42417 9.26984 8.08164L9.42017 8.52816H3.09822L3.24855 8.08164C3.4699 7.42417 3.54478 7.22796 3.6608 7.08982C3.77626 6.95234 3.92431 6.84597 4.09144 6.78041ZM2.46947 9.61677C2.52762 9.58714 2.61657 9.55979 2.80451 9.54443C2.99829 9.5286 3.25006 9.52821 3.62584 9.52821H8.89275C9.26853 9.52821 9.5203 9.5286 9.71408 9.54443C9.90202 9.55979 9.99097 9.58714 10.0491 9.61677C10.202 9.69467 10.3263 9.81896 10.4042 9.97184C10.4338 10.03 10.4612 10.1189 10.4765 10.3069C10.4924 10.5007 10.4927 10.7524 10.4927 11.1282V12.4085H2.02584V11.1282C2.02584 10.7524 2.02623 10.5007 2.04206 10.3069C2.05742 10.1189 2.08477 10.03 2.1144 9.97184C2.1923 9.81896 2.31659 9.69467 2.46947 9.61677ZM5.7336 10.4681C5.45746 10.4681 5.2336 10.692 5.2336 10.9681C5.2336 11.2443 5.45746 11.4681 5.7336 11.4681H6.78548C7.06163 11.4681 7.28548 11.2443 7.28548 10.9681C7.28548 10.692 7.06163 10.4681 6.78548 10.4681H5.7336ZM4.15568 10.9949C4.15568 11.3846 3.84172 11.7004 3.45443 11.7004C3.06714 11.7004 2.75317 11.3846 2.75317 10.9949C2.75317 10.6053 3.06714 10.2894 3.45443 10.2894C3.84172 10.2894 4.15568 10.6053 4.15568 10.9949ZM9.06453 11.7004C9.45182 11.7004 9.76579 11.3846 9.76579 10.9949C9.76579 10.6053 9.45182 10.2894 9.06453 10.2894C8.67724 10.2894 8.36328 10.6053 8.36328 10.9949C8.36328 11.3846 8.67724 11.7004 9.06453 11.7004Z" fill="white"/>
</svg>
