<svg width="16" height="16" viewBox="0 0 16 16" fill="none" xmlns="http://www.w3.org/2000/svg">
<path fill-rule="evenodd" clip-rule="evenodd" d="M9.74056 1.60753C9.95963 1.46416 10.2404 1.46416 10.4594 1.60753C10.6621 1.74014 11.2974 2.14268 12.0801 2.51026C12.878 2.88499 13.76 3.18987 14.475 3.18987C14.7649 3.18987 15 3.4263 15 3.71797C15 7.45208 13.9129 9.60102 12.7264 10.8222C12.6676 10.8826 12.6088 10.9407 12.55 10.9964C12.5498 10.7049 12.5475 10.4134 12.5269 10.1592C12.501 9.84078 12.4387 9.44617 12.2353 9.04456C12.1348 8.84626 12.0127 8.66141 11.8718 8.49306C11.97 8.28641 12.025 8.05502 12.025 7.81071C12.025 7.04184 11.4805 6.40089 10.7582 6.25673C10.6691 6.09115 10.5627 5.92626 10.4318 5.76982C10.0934 5.36564 9.65998 5.05298 9.17086 4.8603C8.60989 4.63931 8.00698 4.64075 7.52108 4.64191L7.43675 4.64207L5.22326 4.64207C5.20796 4.34536 5.2 4.03747 5.2 3.71797C5.2 3.4263 5.43505 3.18987 5.725 3.18987C6.43999 3.18987 7.32203 2.88499 8.1199 2.51026C8.90256 2.14268 9.53791 1.74014 9.74056 1.60753ZM5.06559 5.70142H7.43422C7.99385 5.701 8.41506 5.70068 8.78679 5.84648C9.11327 5.97454 9.40248 6.18232 9.62803 6.45087C9.81569 6.67431 9.93783 6.94769 10.0595 7.28572H10.45C10.7399 7.28572 10.975 7.52077 10.975 7.81072C10.975 8.10067 10.7399 8.33572 10.45 8.33572H10.4157L10.5542 8.74704C10.8736 8.92536 11.1334 9.19572 11.2997 9.52403C11.4152 9.75209 11.4598 9.99236 11.4804 10.2452C11.5 10.487 11.5 10.7825 11.5 11.1341V13.4437L11.4999 13.45C11.4999 14.0299 11.0298 14.5 10.4499 14.5C9.87 14.5 9.3999 14.0299 9.3999 13.45V13.4437H3.1V13.45C3.1 14.0299 2.6299 14.5 2.05 14.5C1.4701 14.5 1 14.0299 1 13.45V11.1341C0.999995 10.7825 0.99999 10.4869 1.01963 10.2452C1.04016 9.99236 1.08476 9.75209 1.20028 9.52403C1.36653 9.19581 1.62625 8.9255 1.94555 8.74718L2.0841 8.33572H2.05005C1.7601 8.33572 1.52505 8.10067 1.52505 7.81072C1.52505 7.52077 1.7601 7.28572 2.05005 7.28572H2.44027C2.56197 6.94769 2.68412 6.67431 2.87178 6.45087C3.09733 6.18232 3.38654 5.97454 3.71302 5.84648C4.08475 5.70068 4.50596 5.701 5.06559 5.70142ZM9.23172 8.10984L9.36886 8.5171C9.22444 8.5148 9.06699 8.5148 8.89621 8.51481H3.60392C3.43305 8.5148 3.27543 8.5148 3.13095 8.51711L3.26809 8.10984C3.49014 7.45039 3.56357 7.25981 3.67581 7.12617C3.78859 6.9919 3.93319 6.88801 4.09643 6.82398C4.2589 6.76025 4.46295 6.75147 5.15878 6.75147H7.34103C8.03685 6.75147 8.2409 6.76025 8.40337 6.82398C8.56661 6.88801 8.71122 6.9919 8.82399 7.12617C8.93624 7.25981 9.00967 7.45039 9.23172 8.10984ZM5.55005 10.4792C5.27391 10.4792 5.05005 10.703 5.05005 10.9792C5.05005 11.2553 5.27391 11.4792 5.55005 11.4792H6.95005C7.22619 11.4792 7.45005 11.2553 7.45005 10.9792C7.45005 10.703 7.22619 10.4792 6.95005 10.4792H5.55005ZM4 10.9699C4 11.3841 3.66422 11.7199 3.25 11.7199C2.83579 11.7199 2.5 11.3841 2.5 10.9699C2.5 10.5557 2.83579 10.2199 3.25 10.2199C3.66422 10.2199 4 10.5557 4 10.9699ZM9.25 11.7199C9.66421 11.7199 10 11.3841 10 10.9699C10 10.5557 9.66421 10.2199 9.25 10.2199C8.83579 10.2199 8.5 10.5557 8.5 10.9699C8.5 11.3841 8.83579 11.7199 9.25 11.7199Z" fill="white"/>
</svg>
