<svg width="16" height="16" viewBox="0 0 16 16" fill="none" xmlns="http://www.w3.org/2000/svg">
<path fill-rule="evenodd" clip-rule="evenodd" d="M1.00195 2.75006C1.48877 2.75006 1.62663 2.75515 1.73549 2.78763C1.94806 2.85106 2.12972 2.99076 2.2456 3.17992C2.30316 3.27387 2.34282 3.40081 2.4592 3.83762L2.62633 4.46671L3.89428 9.21171C3.90791 9.26301 3.9213 9.31342 3.93472 9.36266L4.02977 9.71836L4.04256 9.71494C4.10023 9.87494 4.16947 10.0191 4.26605 10.1451C4.43166 10.3612 4.65126 10.5298 4.90274 10.634C5.19038 10.7532 5.51849 10.7527 5.90048 10.7522H11.3822C11.7642 10.7527 12.0923 10.7532 12.3799 10.634C12.6314 10.5298 12.851 10.3612 13.0166 10.1451C13.2061 9.89801 13.2903 9.5809 13.3884 9.21171L14.3601 5.57542C14.407 5.39973 14.4504 5.2374 14.4743 5.10043C14.4996 4.95517 14.5148 4.78006 14.4602 4.59609C14.3857 4.34506 14.221 4.13048 13.9977 3.99371C13.834 3.89348 13.6609 3.86293 13.5141 3.84989C13.3756 3.83759 13.2076 3.83761 13.0257 3.83762L3.4939 3.83762L3.41933 3.55681C3.32018 3.18259 3.24412 2.89554 3.09832 2.65753C2.85368 2.2582 2.47017 1.96328 2.02141 1.82938C1.75394 1.74957 1.45699 1.74977 1.06986 1.75003L1.00195 1.75006C0.725811 1.75006 0.501953 1.97392 0.501953 2.25006C0.501953 2.5262 0.725811 2.75006 1.00195 2.75006ZM4.84991 8.91398L3.76056 4.83762H13.0064C13.2141 4.83762 13.3368 4.83809 13.4256 4.84597C13.4561 4.84868 13.4748 4.85178 13.485 4.85384C13.4898 4.85831 13.4938 4.86353 13.4969 4.86929C13.4962 4.87966 13.4944 4.89858 13.4892 4.92872C13.4738 5.01652 13.4426 5.13519 13.389 5.33586L12.4427 8.87676C12.3117 9.36698 12.2748 9.46911 12.223 9.53672C12.1642 9.61338 12.0863 9.67322 11.9971 9.7102C11.9184 9.74282 11.8102 9.75211 11.3027 9.75211H5.97993C5.47251 9.75211 5.36431 9.74282 5.28561 9.7102C5.19637 9.67322 5.11845 9.61338 5.05968 9.53672C5.00919 9.47086 4.97286 9.37223 4.84991 8.91398ZM6.79752 13.0353C6.79752 13.7078 6.24713 14.253 5.56819 14.253C4.88925 14.253 4.33887 13.7078 4.33887 13.0353C4.33887 12.3628 4.88925 11.8176 5.56819 11.8176C6.24713 11.8176 6.79752 12.3628 6.79752 13.0353ZM11.5391 14.253C12.2181 14.253 12.7685 13.7078 12.7685 13.0353C12.7685 12.3628 12.2181 11.8176 11.5391 11.8176C10.8602 11.8176 10.3098 12.3628 10.3098 13.0353C10.3098 13.7078 10.8602 14.253 11.5391 14.253Z" fill="white"/>
</svg>
