<svg width="16" height="16" viewBox="0 0 16 16" fill="none" xmlns="http://www.w3.org/2000/svg">
<path fill-rule="evenodd" clip-rule="evenodd" d="M7.29604 2C7.01862 1.99999 6.78076 1.99998 6.58514 2.01597C6.37913 2.0328 6.17635 2.06982 5.98181 2.16894C5.69016 2.31754 5.45304 2.55466 5.30444 2.84632C5.20532 3.04085 5.1683 3.24364 5.15146 3.44965C5.13548 3.64526 5.13549 3.88312 5.1355 4.16054L5.1355 4.83841L4.77893 4.83841C4.30678 4.83841 3.92215 4.8384 3.60989 4.86391C3.28715 4.89028 2.99793 4.94638 2.72852 5.08365C2.30516 5.29936 1.96095 5.64357 1.74524 6.06693C1.60797 6.33634 1.55187 6.62556 1.5255 6.9483C1.49999 7.26056 1.49999 7.64518 1.5 8.11733V10.72C1.49999 11.1922 1.49999 11.5768 1.5255 11.8891C1.55187 12.2118 1.60797 12.501 1.74524 12.7704C1.96095 13.1938 2.30516 13.538 2.72852 13.7537C2.99793 13.891 3.28715 13.9471 3.60989 13.9735C3.92215 13.999 4.30677 13.999 4.77892 13.999H11.2183C11.6905 13.999 12.0751 13.999 12.3873 13.9735C12.7101 13.9471 12.9993 13.891 13.2687 13.7537C13.6921 13.538 14.0363 13.1938 14.252 12.7704C14.3893 12.501 14.4454 12.2118 14.4717 11.8891C14.4972 11.5768 14.4972 11.1922 14.4972 10.72V8.11732C14.4972 7.64518 14.4972 7.26056 14.4717 6.9483C14.4454 6.62556 14.3893 6.33634 14.252 6.06693C14.0363 5.64357 13.6921 5.29936 13.2687 5.08365C12.9993 4.94638 12.7101 4.89028 12.3873 4.86391C12.0751 4.8384 11.6905 4.83841 11.2183 4.83841L10.8617 4.83841V4.16055C10.8617 3.88312 10.8617 3.64526 10.8457 3.44965C10.8289 3.24364 10.7919 3.04085 10.6927 2.84632C10.5441 2.55466 10.307 2.31754 10.0154 2.16894C9.82083 2.06982 9.61805 2.0328 9.41203 2.01597C9.21642 1.99998 8.97858 1.99999 8.70115 2H7.29604ZM9.86168 4.83841V4.18C9.86168 3.87772 9.86129 3.68109 9.84904 3.53108C9.83726 3.38691 9.81706 3.33038 9.80173 3.30031C9.749 3.19682 9.66487 3.11268 9.56138 3.05995C9.53131 3.04463 9.47477 3.02443 9.3306 3.01265C9.1806 3.00039 8.98396 3 8.68168 3H7.3155C7.01322 3 6.81658 3.00039 6.66658 3.01265C6.52241 3.02443 6.46587 3.04463 6.4358 3.05995C6.33231 3.11268 6.24817 3.19682 6.19544 3.30031C6.18012 3.33038 6.15992 3.38691 6.14814 3.53108C6.13589 3.68109 6.1355 3.87772 6.1355 4.18V4.83841H9.86168ZM3.18251 5.97465C3.28745 5.92118 3.43042 5.88191 3.69132 5.86059C3.95805 5.8388 4.3017 5.83841 4.8 5.83841H11.1972C11.6955 5.83841 12.0392 5.8388 12.3059 5.86059C12.5668 5.88191 12.7098 5.92118 12.8147 5.97465C13.0499 6.0945 13.2412 6.28572 13.361 6.52092C13.4145 6.62586 13.4537 6.76884 13.4751 7.02973C13.4968 7.29646 13.4972 7.64012 13.4972 8.13841V10.699C13.4972 11.1973 13.4968 11.5409 13.4751 11.8076C13.4537 12.0685 13.4145 12.2115 13.361 12.3164C13.2412 12.5516 13.0499 12.7429 12.8147 12.8627C12.7098 12.9162 12.5668 12.9555 12.3059 12.9768C12.0392 12.9986 11.6955 12.999 11.1972 12.999H4.8C4.30171 12.999 3.95805 12.9986 3.69132 12.9768C3.43042 12.9555 3.28745 12.9162 3.18251 12.8627C2.94731 12.7429 2.75608 12.5516 2.63624 12.3164C2.58277 12.2115 2.5435 12.0685 2.52218 11.8076C2.50039 11.5409 2.5 11.1973 2.5 10.699V8.13841C2.5 7.64011 2.50039 7.29646 2.52218 7.02973C2.5435 6.76884 2.58277 6.62586 2.63624 6.52092C2.75608 6.28572 2.94731 6.0945 3.18251 5.97465Z" fill="white"/>
<path d="M2 6L8 5.50007L14 6V13H2V6Z" fill="white"/>
</svg>
