<svg width="16" height="16" viewBox="0 0 16 16" fill="none" xmlns="http://www.w3.org/2000/svg">
<path fill-rule="evenodd" clip-rule="evenodd" d="M7.29604 2H8.70114C8.97855 1.99999 9.21643 1.99999 9.41203 2.01597C9.61805 2.0328 9.82083 2.06982 10.0154 2.16894C10.307 2.31755 10.5441 2.55467 10.6927 2.84632C10.7919 3.04085 10.8289 3.24364 10.8457 3.44965C10.8617 3.64526 10.8617 3.88312 10.8617 4.16055V4.83841L11.2183 4.83841C11.6905 4.83841 12.0751 4.8384 12.3873 4.86391C12.7101 4.89028 12.9993 4.94638 13.2687 5.08365C13.6921 5.29936 14.0363 5.64357 14.252 6.06693C14.3893 6.33634 14.4454 6.62556 14.4717 6.9483C14.4972 7.26056 14.4972 7.64518 14.4972 8.11732V10.72C14.4972 11.1922 14.4972 11.5768 14.4717 11.8891C14.4454 12.2118 14.3893 12.501 14.252 12.7704C14.0363 13.1938 13.6921 13.538 13.2687 13.7537C12.9993 13.891 12.7101 13.9471 12.3873 13.9735C12.0751 13.999 11.6905 13.999 11.2183 13.999H4.77892C4.30677 13.999 3.92215 13.999 3.60989 13.9735C3.28715 13.9471 2.99793 13.891 2.72852 13.7537C2.30516 13.538 1.96095 13.1938 1.74524 12.7704C1.60797 12.501 1.55187 12.2118 1.5255 11.8891C1.49999 11.5768 1.5 11.1922 1.5 10.7201V8.11733C1.5 7.6452 1.49999 7.26056 1.5255 6.9483C1.55187 6.62556 1.60797 6.33634 1.74524 6.06693C1.96095 5.64357 2.30516 5.29936 2.72852 5.08365C2.99793 4.94638 3.28715 4.89028 3.60989 4.86391C3.92215 4.8384 4.30677 4.83841 4.77891 4.83841L5.1355 4.83841L5.1355 4.16054C5.13549 3.88312 5.13548 3.64526 5.15146 3.44965C5.1683 3.24364 5.20532 3.04085 5.30444 2.84632C5.45304 2.55467 5.69016 2.31755 5.98181 2.16894C6.17635 2.06982 6.37913 2.0328 6.58514 2.01597C6.78075 1.99999 7.01863 1.99999 7.29604 2ZM9.86168 4.18V4.83841H6.1355V4.18C6.1355 3.87772 6.13589 3.68109 6.14814 3.53108C6.15992 3.38691 6.18012 3.33038 6.19544 3.30031C6.24817 3.19682 6.33231 3.11268 6.4358 3.05995C6.46587 3.04463 6.52241 3.02443 6.66658 3.01265C6.81658 3.00039 7.01322 3 7.3155 3H8.68168C8.98396 3 9.1806 3.00039 9.3306 3.01265C9.47477 3.02443 9.53131 3.04463 9.56138 3.05995C9.66487 3.11268 9.749 3.19682 9.80173 3.30031C9.81706 3.33038 9.83726 3.38691 9.84904 3.53108C9.86129 3.68109 9.86168 3.87772 9.86168 4.18ZM2.5 11.25C2.5 10.9739 2.72386 10.75 3 10.75H13C13.2761 10.75 13.5 10.9739 13.5 11.25C13.5 11.5261 13.2761 11.75 13 11.75H3C2.72386 11.75 2.5 11.5261 2.5 11.25ZM7 8.75C6.72386 8.75 6.5 8.97386 6.5 9.25C6.5 9.52614 6.72386 9.75 7 9.75H9C9.27614 9.75 9.5 9.52614 9.5 9.25C9.5 8.97386 9.27614 8.75 9 8.75H7Z" fill="white"/>
</svg>
