<svg width="16" height="16" viewBox="0 0 16 16" fill="none" xmlns="http://www.w3.org/2000/svg">
<path fill-rule="evenodd" clip-rule="evenodd" d="M8.70117 2C8.97859 1.99999 9.2165 1.99964 9.41211 2.01563C9.6181 2.03246 9.8211 2.06983 10.0156 2.16895C10.3072 2.31756 10.5438 2.5551 10.6924 2.84668C10.7914 3.04104 10.8289 3.24341 10.8457 3.44922C10.8617 3.64474 10.8613 3.8829 10.8613 4.16016V4.83887H11.2188C11.6907 4.83886 12.0755 4.83875 12.3877 4.86426C12.7103 4.89064 12.9993 4.94677 13.2686 5.08399C13.6919 5.2997 14.0362 5.64402 14.252 6.06738C14.3891 6.33668 14.4453 6.62567 14.4717 6.94824C14.4972 7.26048 14.4971 7.64511 14.4971 8.11719V10.7197C14.4971 11.1917 14.4972 11.5765 14.4717 11.8887C14.4453 12.2114 14.3892 12.5011 14.252 12.7705C14.0362 13.1938 13.6919 13.5382 13.2686 13.7539C12.9993 13.8911 12.7102 13.9473 12.3877 13.9736C12.0755 13.9991 11.6907 13.999 11.2188 13.999H4.7793C4.30739 13.999 3.92253 13.9991 3.61035 13.9736C3.28764 13.9473 2.9979 13.8912 2.72852 13.7539C2.30515 13.5382 1.96083 13.1939 1.74512 12.7705C1.60785 12.5011 1.55176 12.2114 1.52539 11.8887C1.49991 11.5765 1.49999 11.1917 1.5 10.7197V8.11719C1.49999 7.64511 1.49988 7.26048 1.52539 6.94824C1.55175 6.62569 1.608 6.33666 1.74512 6.06738C1.96081 5.64407 2.30522 5.29971 2.72852 5.08399C2.99792 4.94672 3.28762 4.89063 3.61035 4.86426C3.92254 4.83878 4.30737 4.83886 4.7793 4.83887H5.13574V4.16016C5.13573 3.8829 5.13539 3.64474 5.15137 3.44922C5.16821 3.24342 5.2057 3.04103 5.30469 2.84668C5.45324 2.55513 5.68993 2.31756 5.98145 2.16895C6.17593 2.06985 6.379 2.03246 6.58496 2.01563C6.78054 1.99965 7.01854 1.99999 7.2959 2H8.70117ZM7.31543 3C7.01347 3 6.81694 3.00047 6.66699 3.0127C6.52282 3.02448 6.46562 3.04425 6.43555 3.05957C6.33208 3.1123 6.24803 3.19731 6.19531 3.30078C6.18002 3.33096 6.16016 3.38777 6.14844 3.53125C6.1362 3.68119 6.13574 3.87769 6.13574 4.17969V4.83887H9.86133V4.17969C9.86133 3.87768 9.86087 3.68119 9.84863 3.53125C9.8369 3.3877 9.81706 3.33095 9.80176 3.30078C9.74903 3.19729 9.66501 3.1123 9.56152 3.05957C9.53148 3.04427 9.47483 3.02448 9.33106 3.0127C9.18105 3.00044 8.98392 3 8.68164 3H7.31543Z" fill="white"/>
</svg>
