<svg width="16" height="16" viewBox="0 0 16 16" fill="none" xmlns="http://www.w3.org/2000/svg">
<path fill-rule="evenodd" clip-rule="evenodd" d="M15.2514 5.65656C15.2514 5.5707 15.2514 5.47895 15.2449 5.39976C15.2376 5.31048 15.2197 5.19413 15.1587 5.07446C15.0772 4.91453 14.9472 4.78449 14.7873 4.703C14.6676 4.64203 14.5513 4.62408 14.462 4.61678C14.3828 4.61031 14.291 4.61033 14.2052 4.61035L13.1739 4.61035L13.1739 3.54581C13.174 3.45994 13.174 3.3682 13.1675 3.28901C13.1602 3.19973 13.1423 3.08338 13.0813 2.96372C12.9998 2.80378 12.8698 2.67374 12.7098 2.59225C12.5902 2.53128 12.4738 2.51333 12.3845 2.50604C12.3053 2.49957 12.2136 2.49959 12.1277 2.49961H1.79427C1.7084 2.49959 1.61665 2.49957 1.53746 2.50604C1.44817 2.51333 1.33183 2.53128 1.21216 2.59225C1.05222 2.67374 0.922188 2.80378 0.840696 2.96372C0.779721 3.08338 0.761774 3.19973 0.75448 3.28901C0.74801 3.3682 0.74803 3.45995 0.748049 3.54582V9.83856C0.74803 9.92443 0.74801 10.0162 0.75448 10.0954C0.761774 10.1846 0.779721 10.301 0.840696 10.4207C0.922188 10.5806 1.05222 10.7106 1.21216 10.7921C1.33183 10.8531 1.44817 10.871 1.53746 10.8783C1.61665 10.8848 1.70839 10.8848 1.79426 10.8848L2.82549 10.8848L2.82549 11.9493C2.82547 12.0352 2.82545 12.1269 2.83192 12.2061C2.83922 12.2954 2.85716 12.4117 2.91814 12.5314C2.99963 12.6913 3.12966 12.8214 3.2896 12.9029C3.40927 12.9638 3.52561 12.9818 3.6149 12.9891C3.69409 12.9956 3.78584 12.9955 3.87171 12.9955H14.2052C14.291 12.9955 14.3828 12.9956 14.462 12.9891C14.5513 12.9818 14.6676 12.9638 14.7873 12.9029C14.9472 12.8214 15.0772 12.6913 15.1587 12.5314C15.2197 12.4117 15.2376 12.2954 15.2449 12.2061C15.2514 12.1269 15.2514 12.0352 15.2514 11.9493V5.65656ZM3.82549 10.8848L3.82554 11.9955H14.2513V5.6104L13.1739 5.61035L13.1739 9.83857C13.174 9.92443 13.174 10.0162 13.1675 10.0954C13.1602 10.1846 13.1423 10.301 13.0813 10.4207C12.9998 10.5806 12.8698 10.7106 12.7098 10.7921C12.5902 10.8531 12.4738 10.871 12.3845 10.8783C12.3053 10.8848 12.2136 10.8848 12.1277 10.8848L3.82549 10.8848ZM1.7481 9.88472H12.1739V3.49966H1.7481V9.88472ZM6.96039 5.25879C6.19213 5.25879 5.55608 5.89354 5.55608 6.693C5.55608 7.49246 6.19213 8.12721 6.96039 8.12721C7.72866 8.12721 8.36471 7.49246 8.36471 6.693C8.36471 5.89354 7.72866 5.25879 6.96039 5.25879ZM4.55608 6.693C4.55608 5.356 5.62521 4.25879 6.96039 4.25879C8.29557 4.25879 9.36471 5.356 9.36471 6.693C9.36471 8.03001 8.29557 9.12721 6.96039 9.12721C5.62521 9.12721 4.55608 8.03001 4.55608 6.693Z" fill="white"/>
</svg>
