<svg width="16" height="16" viewBox="0 0 16 16" fill="none" xmlns="http://www.w3.org/2000/svg">
<path fill-rule="evenodd" clip-rule="evenodd" d="M3.78548 2H12.2156V2.02882H14.4984C14.7745 2.02882 14.9984 2.25268 14.9984 2.52882C14.9984 2.80496 14.7745 3.02882 14.4984 3.02882H1.50195C1.22581 3.02882 1.00195 2.80496 1.00195 2.52882C1.00195 2.25268 1.22581 2.02882 1.50195 2.02882H3.78548V2ZM3.78548 3.91216H12.2156V12.6C12.2156 13.09 12.2156 13.3351 12.1202 13.5222C12.0363 13.6869 11.9025 13.8207 11.7378 13.9046C11.5507 14 11.3056 14 10.8156 14L5.18548 14C4.69543 14 4.45041 14 4.26324 13.9046C4.0986 13.8207 3.96474 13.6869 3.88085 13.5222C3.78548 13.3351 3.78548 13.09 3.78548 12.6V3.91216ZM9.43196 7.29431C9.43196 6.49611 8.78862 5.85314 8.00006 5.85314C7.2115 5.85314 6.56816 6.49611 6.56816 7.29431C6.56816 8.09251 7.2115 8.73549 8.00006 8.73549C8.78862 8.73549 9.43196 8.09251 9.43196 7.29431ZM8.00006 4.85314C9.34542 4.85314 10.432 5.94835 10.432 7.29431C10.432 8.64028 9.34542 9.73549 8.00006 9.73549C6.65471 9.73549 5.56816 8.64028 5.56816 7.29431C5.56816 5.94835 6.65471 4.85314 8.00006 4.85314ZM7.29915 10.8533C7.02301 10.8533 6.79915 11.0772 6.79915 11.3533C6.79915 11.6295 7.02301 11.8533 7.29915 11.8533H8.70417C8.98031 11.8533 9.20417 11.6295 9.20417 11.3533C9.20417 11.0772 8.98031 10.8533 8.70417 10.8533H7.29915Z" fill="white"/>
</svg>
