<svg width="16" height="16" viewBox="0 0 16 16" fill="none" xmlns="http://www.w3.org/2000/svg">
<path fill-rule="evenodd" clip-rule="evenodd" d="M15.2498 11.5996V5.99962C15.2498 5.50957 15.2498 5.26455 15.1544 5.07738C15.0705 4.91273 14.9367 4.77888 14.772 4.69499C14.641 4.62821 14.4815 4.60819 14.2295 4.60219L14.2295 9.53029C14.2295 9.74805 14.2295 9.96974 14.2141 10.1593C14.1968 10.3701 14.1553 10.6317 14.0196 10.898C13.8351 11.2602 13.5406 11.5547 13.1784 11.7392C12.9121 11.8749 12.6505 11.9164 12.4397 11.9336C12.2502 11.9491 12.0285 11.9491 11.8107 11.9491L2.8206 11.9491C2.82312 12.1844 2.83395 12.3264 2.88051 12.4448C2.96944 12.671 3.14848 12.85 3.3747 12.939C3.52902 12.9996 3.7234 12.9996 4.11215 12.9996H13.8498C14.3398 12.9996 14.5848 12.9996 14.772 12.9043C14.9367 12.8204 15.0705 12.6865 15.1544 12.5219C15.2498 12.3347 15.2498 12.0897 15.2498 11.5996ZM11.7814 2.5C12.2714 2.5 12.5165 2.5 12.7036 2.59537C12.8683 2.67926 13.0021 2.81312 13.086 2.97776C13.1814 3.16493 13.1814 3.40996 13.1814 3.9V9.50002C13.1814 9.99007 13.1814 10.2351 13.086 10.4223C13.0021 10.5869 12.8683 10.7208 12.7036 10.8047C12.5165 10.9 12.2714 10.9 11.7814 10.9H2.15146C1.66142 10.9 1.4164 10.9 1.22922 10.8047C1.06458 10.7208 0.930723 10.5869 0.846834 10.4223C0.751465 10.2351 0.751465 9.99007 0.751465 9.50002V3.90001C0.751465 3.40996 0.751465 3.16493 0.846834 2.97776C0.930723 2.81312 1.06458 2.67926 1.22922 2.59537C1.4164 2.5 1.66142 2.5 2.15146 2.5H11.7814ZM6.96713 5.2754C6.20086 5.2754 5.56812 5.90697 5.56812 6.70041C5.56812 7.49384 6.20086 8.12541 6.96713 8.12541C7.73341 8.12541 8.36615 7.49384 8.36615 6.70041C8.36615 5.90697 7.73341 5.2754 6.96713 5.2754ZM4.56812 6.70041C4.56812 5.36754 5.63581 4.2754 6.96713 4.2754C8.29846 4.2754 9.36615 5.36754 9.36615 6.70041C9.36615 8.03327 8.29846 9.12541 6.96713 9.12541C5.63581 9.12541 4.56812 8.03327 4.56812 6.70041Z" fill="white"/>
</svg>
