<svg width="16" height="16" viewBox="0 0 16 16" fill="none" xmlns="http://www.w3.org/2000/svg">
<path fill-rule="evenodd" clip-rule="evenodd" d="M14.4998 3.00001C14.776 3.00001 14.9998 2.77615 14.9998 2.50001C14.9998 2.22386 14.776 2 14.4998 2L11.1717 2C11.1619 2 11.1522 2 11.1425 2L4.85854 2C4.84873 2 4.83883 2 4.82889 2L1.50342 2C1.22728 2 1.00342 2.22386 1.00342 2.50001C1.00342 2.77615 1.22728 3.00001 1.50342 3.00001H3.81236C3.81232 3.01552 3.81233 3.03096 3.81233 3.04621L3.81233 12.9527C3.81231 13.0386 3.81229 13.1303 3.81876 13.2095C3.82606 13.2988 3.844 13.4152 3.90498 13.5348C3.98647 13.6948 4.1165 13.8248 4.27644 13.9063C4.39611 13.9673 4.51245 13.9852 4.60174 13.9925C4.68093 13.999 4.77268 13.999 4.85854 13.9989H11.1424C11.2283 13.999 11.3201 13.999 11.3993 13.9925C11.4886 13.9852 11.6049 13.9673 11.7246 13.9063C11.8845 13.8248 12.0145 13.6948 12.096 13.5348C12.157 13.4152 12.175 13.2988 12.1822 13.2095C12.1887 13.1303 12.1887 13.0386 12.1887 12.9527V3.0462C12.1887 3.03096 12.1887 3.01552 12.1887 3.00001H14.4998ZM11.1886 3.00005L11.1886 12.9989L4.81238 12.9989L4.81238 3.00005L11.1886 3.00005ZM8.00153 5.83789C8.78762 5.83789 9.43343 6.48297 9.43343 7.28932C9.43343 8.09567 8.78762 8.74074 8.00153 8.74074C7.21544 8.74074 6.56963 8.09567 6.56963 7.28932C6.56963 6.48297 7.21544 5.83789 8.00153 5.83789ZM10.4334 7.28932C10.4334 5.94019 9.34936 4.83789 8.00153 4.83789C6.6537 4.83789 5.56963 5.94019 5.56963 7.28932C5.56963 8.63845 6.6537 9.74074 8.00153 9.74074C9.34936 9.74074 10.4334 8.63845 10.4334 7.28932ZM7.29866 11.8701C7.02252 11.8701 6.79866 11.6463 6.79866 11.3701C6.79866 11.094 7.02252 10.8701 7.29866 10.8701H8.70368C8.97982 10.8701 9.20368 11.094 9.20368 11.3701C9.20368 11.6463 8.97982 11.8701 8.70368 11.8701H7.29866Z" fill="white"/>
</svg>
