<svg width="16" height="16" viewBox="0 0 16 16" fill="none" xmlns="http://www.w3.org/2000/svg">
<path fill-rule="evenodd" clip-rule="evenodd" d="M2 4.31527C2 3.6363 2.49478 3.05684 3.16984 2.94521L8.76984 2.01924C9.62319 1.87814 10.4 2.53101 10.4 3.3893V12.6107C10.4 13.469 9.62319 14.1219 8.76984 13.9808L3.16984 13.0548C2.49478 12.9432 2 12.3637 2 11.6847V4.31527ZM12.4223 12.7412L12.4925 12.7465C13.3056 12.8086 13.9999 12.1707 13.9999 11.3616V4.63875C13.9999 3.82966 13.3056 3.19183 12.4925 3.25388L12.4222 3.25925C12.5348 3.45907 12.5993 3.68973 12.5993 3.93622V12.0645C12.5993 12.3108 12.5349 12.5414 12.4223 12.7412ZM10.7012 13.4497L10.5261 13.4373C10.6981 13.2077 10.8009 12.9226 10.8009 12.6103V3.3889C10.8009 3.07704 10.6984 2.7923 10.5269 2.56292L10.7012 2.55056C11.5116 2.49313 12.2009 3.12992 12.2009 3.93599V12.0642C12.2009 12.8703 11.5116 13.5071 10.7012 13.4497Z" fill="white"/>
</svg>
