<svg width="16" height="16" viewBox="0 0 16 16" fill="none" xmlns="http://www.w3.org/2000/svg">
<path d="M4.27893 2.5H11.7175C12.1896 2.49999 12.5743 2.49999 12.8865 2.5255C13.2093 2.55187 13.4985 2.60797 13.7679 2.74524C14.1913 2.96095 14.5355 3.30516 14.7512 3.72852C14.8885 3.99793 14.9445 4.28715 14.9709 4.60989C14.9964 4.92215 14.9964 5.30677 14.9964 5.77891V8.64264C14.6965 8.37475 14.3604 8.14646 13.9964 7.96598V5.8C13.9964 5.3017 13.996 4.95805 13.9742 4.69132C13.9529 4.43042 13.9136 4.28745 13.8602 4.18251C13.7403 3.94731 13.5491 3.75608 13.3139 3.63624C13.209 3.58277 13.066 3.5435 12.8051 3.52218C12.5384 3.50039 12.1947 3.5 11.6964 3.5H4.3C3.8017 3.5 3.45805 3.50039 3.19132 3.52218C2.93042 3.5435 2.78745 3.58277 2.68251 3.63624C2.44731 3.75608 2.25608 3.94731 2.13624 4.18251C2.08277 4.28745 2.0435 4.43042 2.02218 4.69132C2.00039 4.95805 2 5.3017 2 5.8V10.2012C2 10.6995 2.00039 11.0432 2.02218 11.3099C2.0435 11.5708 2.08277 11.7138 2.13624 11.8187C2.25608 12.0539 2.44731 12.2451 2.68251 12.365C2.78745 12.4184 2.93042 12.4577 3.19132 12.479C3.45805 12.5008 3.8017 12.5012 4.3 12.5012H7.5276C7.56602 12.848 7.64385 13.1828 7.75649 13.5012H4.27891C3.80677 13.5012 3.42215 13.5012 3.10989 13.4757C2.78715 13.4493 2.49793 13.3933 2.22852 13.256C1.80516 13.0403 1.46095 12.6961 1.24524 12.2727C1.10797 12.0033 1.05187 11.7141 1.0255 11.3913C0.99999 11.0791 0.999995 10.6945 1 10.2223V5.77893C0.999995 5.30678 0.99999 4.92215 1.0255 4.60989C1.05187 4.28715 1.10797 3.99793 1.24524 3.72852C1.46095 3.30516 1.80516 2.96095 2.22852 2.74524C2.49793 2.60797 2.78715 2.55187 3.10989 2.5255C3.42215 2.49999 3.80678 2.49999 4.27893 2.5Z" fill="white"/>
<path d="M3.28314 5.2414C3.28314 4.96526 3.507 4.7414 3.78314 4.7414H9.05196C9.3281 4.7414 9.55196 4.96526 9.55196 5.2414C9.55196 5.51754 9.3281 5.7414 9.05196 5.7414H3.78314C3.507 5.7414 3.28314 5.51754 3.28314 5.2414Z" fill="white"/>
<path d="M3.78314 6.81065C3.507 6.81065 3.28314 7.0345 3.28314 7.31065C3.28314 7.58679 3.507 7.81065 3.78314 7.81065H9.05196C9.3281 7.81065 9.55196 7.58679 9.55196 7.31065C9.55196 7.0345 9.3281 6.81065 9.05196 6.81065H3.78314Z" fill="white"/>
<path d="M3.28314 9.38038C3.28314 9.10424 3.507 8.88038 3.78314 8.88038H6.24192C6.51807 8.88038 6.74192 9.10424 6.74192 9.38038C6.74192 9.65652 6.51807 9.88038 6.24192 9.88038H3.78314C3.507 9.88038 3.28314 9.65652 3.28314 9.38038Z" fill="white"/>
<path d="M11.8391 8.46811C11.919 8.35977 12.081 8.35977 12.1609 8.46811L12.761 9.28136C12.8118 9.35021 12.9008 9.37911 12.9823 9.35327L13.9458 9.04805C14.0741 9.00739 14.2052 9.1026 14.2062 9.23724L14.2136 10.2479C14.2143 10.3334 14.2692 10.4091 14.3504 10.4361L15.3093 10.7555C15.437 10.7981 15.4871 10.9521 15.4088 11.0616L14.8207 11.8836C14.771 11.9532 14.771 12.0468 14.8207 12.1164L15.4088 12.9384C15.4871 13.0479 15.437 13.2019 15.3093 13.2445L14.3504 13.5639C14.2692 13.5909 14.2143 13.6666 14.2136 13.7521L14.2062 14.7628C14.2052 14.8974 14.0741 14.9926 13.9458 14.952L12.9823 14.6467C12.9008 14.6209 12.8118 14.6498 12.761 14.7186L12.1609 15.5319C12.081 15.6402 11.919 15.6402 11.8391 15.5319L11.239 14.7186C11.1882 14.6498 11.0992 14.6209 11.0177 14.6467L10.0542 14.952C9.92585 14.9926 9.7948 14.8974 9.79381 14.7628L9.78637 13.7521C9.78574 13.6666 9.73075 13.5909 9.64958 13.5639L8.69071 13.2445C8.56297 13.2019 8.51291 13.0479 8.59124 12.9384L9.17926 12.1164C9.22904 12.0468 9.22904 11.9532 9.17926 11.8836L8.59124 11.0616C8.51291 10.9521 8.56297 10.7981 8.69071 10.7555L9.64958 10.4361C9.73075 10.4091 9.78574 10.3334 9.78637 10.2479L9.79381 9.23724C9.7948 9.1026 9.92585 9.00739 10.0542 9.04805L11.0177 9.35327C11.0992 9.37911 11.1882 9.35021 11.239 9.28136L11.8391 8.46811Z" fill="white"/>
</svg>
