<svg width="16" height="16" viewBox="0 0 16 16" fill="none" xmlns="http://www.w3.org/2000/svg">
<path fill-rule="evenodd" clip-rule="evenodd" d="M4.27893 2.5C3.80678 2.49999 3.42215 2.49999 3.10989 2.5255C2.78715 2.55187 2.49793 2.60797 2.22852 2.74524C1.80516 2.96095 1.46095 3.30516 1.24524 3.72852C1.10797 3.99793 1.05187 4.28715 1.0255 4.60989C0.99999 4.92215 0.999995 5.30677 1 5.77891V10.2223C0.999995 10.6944 0.99999 11.0791 1.0255 11.3913C1.05187 11.7141 1.10797 12.0033 1.24524 12.2727C1.46095 12.6961 1.80516 13.0403 2.22852 13.256C2.49793 13.3933 2.78715 13.4493 3.10989 13.4757C3.42215 13.5012 3.80677 13.5012 4.27891 13.5012H7.75649C7.59039 13.0317 7.5 12.5264 7.5 12C7.5 9.51472 9.51472 7.5 12 7.5C13.1508 7.5 14.2007 7.93198 14.9964 8.64264V5.77891C14.9964 5.30677 14.9964 4.92215 14.9709 4.60989C14.9445 4.28715 14.8885 3.99793 14.7512 3.72852C14.5355 3.30516 14.1913 2.96095 13.7679 2.74524C13.4985 2.60797 13.2093 2.55187 12.8865 2.5255C12.5743 2.49999 12.1896 2.49999 11.7175 2.5H4.27893ZM3.28314 5.24121C3.28314 4.96507 3.507 4.74121 3.78314 4.74121H9.05196C9.3281 4.74121 9.55196 4.96507 9.55196 5.24121C9.55196 5.51735 9.3281 5.74121 9.05196 5.74121H3.78314C3.507 5.74121 3.28314 5.51735 3.28314 5.24121ZM3.78314 6.81055C3.507 6.81055 3.28314 7.0344 3.28314 7.31055C3.28314 7.58669 3.507 7.81055 3.78314 7.81055H9.05196C9.3281 7.81055 9.55196 7.58669 9.55196 7.31055C9.55196 7.0344 9.3281 6.81055 9.05196 6.81055H3.78314ZM3.28314 9.38037C3.28314 9.10423 3.507 8.88037 3.78314 8.88037H6.24192C6.51807 8.88037 6.74192 9.10423 6.74192 9.38037C6.74192 9.65651 6.51807 9.88037 6.24192 9.88037H3.78314C3.507 9.88037 3.28314 9.65651 3.28314 9.38037Z" fill="white"/>
<path d="M11.8391 8.46811C11.919 8.35977 12.081 8.35977 12.1609 8.46811L12.761 9.28136C12.8118 9.35021 12.9008 9.37911 12.9823 9.35327L13.9458 9.04805C14.0741 9.00739 14.2052 9.1026 14.2062 9.23724L14.2136 10.2479C14.2143 10.3334 14.2692 10.4091 14.3504 10.4361L15.3093 10.7555C15.437 10.7981 15.4871 10.9521 15.4088 11.0616L14.8207 11.8836C14.771 11.9532 14.771 12.0468 14.8207 12.1164L15.4088 12.9384C15.4871 13.0479 15.437 13.2019 15.3093 13.2445L14.3504 13.5639C14.2692 13.5909 14.2143 13.6666 14.2136 13.7521L14.2062 14.7628C14.2052 14.8974 14.0741 14.9926 13.9458 14.952L12.9823 14.6467C12.9008 14.6209 12.8118 14.6498 12.761 14.7186L12.1609 15.5319C12.081 15.6402 11.919 15.6402 11.8391 15.5319L11.239 14.7186C11.1882 14.6498 11.0992 14.6209 11.0177 14.6467L10.0542 14.952C9.92585 14.9926 9.7948 14.8974 9.79381 14.7628L9.78637 13.7521C9.78574 13.6666 9.73075 13.5909 9.64958 13.5639L8.69071 13.2445C8.56297 13.2019 8.51291 13.0479 8.59124 12.9384L9.17926 12.1164C9.22904 12.0468 9.22904 11.9532 9.17926 11.8836L8.59124 11.0616C8.51291 10.9521 8.56297 10.7981 8.69071 10.7555L9.64958 10.4361C9.73075 10.4091 9.78574 10.3334 9.78637 10.2479L9.79381 9.23724C9.7948 9.1026 9.92585 9.00739 10.0542 9.04805L11.0177 9.35327C11.0992 9.37911 11.1882 9.35021 11.239 9.28136L11.8391 8.46811Z" fill="white"/>
</svg>
