<svg width="16" height="16" viewBox="0 0 16 16" fill="none" xmlns="http://www.w3.org/2000/svg">
<path fill-rule="evenodd" clip-rule="evenodd" d="M4.9875 2.8005C5.89582 2.27608 6.92617 2 7.975 2C8.25114 2 8.475 1.77614 8.475 1.5C8.475 1.22386 8.25114 1 7.975 1C6.75063 1 5.54783 1.32229 4.4875 1.93447C4.24835 2.07254 4.16642 2.37834 4.30449 2.61749C4.44256 2.85663 4.74835 2.93857 4.9875 2.8005ZM2.61749 4.30449C2.85663 4.44256 2.93857 4.74835 2.8005 4.9875C2.27608 5.89581 2 6.92617 2 7.975C2 9.02383 2.27608 10.0542 2.8005 10.9625C2.93857 11.2016 2.85663 11.5074 2.61749 11.6455C2.37834 11.7836 2.07254 11.7016 1.93447 11.4625C1.32229 10.4022 1 9.19937 1 7.975C1 6.75063 1.32229 5.54783 1.93447 4.4875C2.07254 4.24835 2.37834 4.16642 2.61749 4.30449ZM14.45 7.475C14.7261 7.475 14.95 7.69886 14.95 7.975C14.95 9.19937 14.6277 10.4022 14.0155 11.4625C13.4033 12.5228 12.5228 13.4033 11.4625 14.0155C10.4022 14.6277 9.19937 14.95 7.975 14.95C6.75063 14.95 5.54783 14.6277 4.4875 14.0155C4.24835 13.8775 4.16642 13.5717 4.30449 13.3325C4.44256 13.0934 4.74835 13.0114 4.9875 13.1495C5.89581 13.6739 6.92617 13.95 7.975 13.95C9.02383 13.95 10.0542 13.6739 10.9625 13.1495C11.8708 12.6251 12.6251 11.8708 13.1495 10.9625C13.6739 10.0542 13.95 9.02383 13.95 7.975C13.95 7.69886 14.1739 7.475 14.45 7.475ZM10.7795 2.11749C10.9176 1.87834 11.2234 1.7964 11.4625 1.93447C12.5228 2.54666 13.4033 3.42717 14.0155 4.4875C14.1536 4.72664 14.0717 5.03244 13.8325 5.17051C13.5934 5.30858 13.2876 5.22665 13.1495 4.9875C12.6251 4.07918 11.8708 3.32491 10.9625 2.8005C10.7234 2.66243 10.6414 2.35663 10.7795 2.11749ZM4.975 7.975C4.975 6.31815 6.31815 4.975 7.975 4.975C9.63186 4.975 10.975 6.31815 10.975 7.975C10.975 9.63185 9.63186 10.975 7.975 10.975C6.31815 10.975 4.975 9.63185 4.975 7.975ZM7.975 3.975C5.76586 3.975 3.975 5.76586 3.975 7.975C3.975 10.1841 5.76586 11.975 7.975 11.975C10.1841 11.975 11.975 10.1841 11.975 7.975C11.975 5.76586 10.1841 3.975 7.975 3.975Z" fill="white"/>
</svg>
