<svg width="16" height="16" viewBox="0 0 16 16" fill="none" xmlns="http://www.w3.org/2000/svg">
<path fill-rule="evenodd" clip-rule="evenodd" d="M7.08632 1.05989C6.17493 1.17988 5.2961 1.4782 4.5 1.93784L6.24971 4.96847C6.76458 4.67056 7.36238 4.50005 8 4.50005C8.31335 4.50005 8.61709 4.54123 8.90609 4.61848L9.81174 1.23852C8.92381 1.0006 7.99771 0.939899 7.08632 1.05989ZM5.52513 5.5252L3.05025 3.05028C2.40024 3.7003 1.88463 4.47199 1.53284 5.32128C1.18106 6.17057 1 7.08084 1 8.00011C1 8.91938 1.18106 9.82964 1.53284 10.6789C1.88463 11.5282 2.40024 12.2999 3.05025 12.9499L5.52513 10.475C4.89175 9.84164 4.5 8.96662 4.5 8.00011C4.5 7.0336 4.89175 6.15858 5.52513 5.5252ZM6.24971 11.0317L4.5 14.0624C5.56413 14.6768 6.77124 15.0002 8 15.0002C9.22876 15.0002 10.4359 14.6768 11.5 14.0624C12.5641 13.448 13.4478 12.5643 14.0622 11.5002C14.6766 10.436 15 9.22888 15 8.00011L11.5 8.00011C11.5 9.93314 9.933 11.5002 8 11.5002C7.36238 11.5002 6.76458 11.3297 6.24971 11.0317ZM11.3816 7.094L14.7615 6.18835C14.281 4.39506 13.1078 2.86611 11.5 1.93784L9.75029 4.96847C10.5433 5.42728 11.1395 6.18829 11.3816 7.094ZM8.00039 10.9755C9.64344 10.9755 10.9754 9.64357 10.9754 8.0005C10.9754 6.35743 9.64344 5.02545 8.00039 5.02545C6.35734 5.02545 5.02539 6.35743 5.02539 8.0005C5.02539 9.64357 6.35734 10.9755 8.00039 10.9755Z" fill="white"/>
</svg>
