<svg width="16" height="16" viewBox="0 0 16 16" fill="none" xmlns="http://www.w3.org/2000/svg">
<path fill-rule="evenodd" clip-rule="evenodd" d="M1.43912 6.8748C1.43912 4.07196 3.71127 1.7998 6.51412 1.7998C9.31696 1.7998 11.5891 4.07196 11.5891 6.8748C11.5891 9.67765 9.31696 11.9498 6.51412 11.9498C6.04367 11.9498 5.58735 11.8856 5.15384 11.7653C4.71982 11.6448 4.3236 11.6047 3.97557 11.6962L2.61809 12.0535C1.84045 12.2581 1.1308 11.5485 1.33545 10.7708L1.69268 9.41335C1.78426 9.06533 1.74411 8.66911 1.62362 8.23508C1.50327 7.80157 1.43912 7.34526 1.43912 6.8748ZM6.44499 7.29512C7.41149 7.29512 8.19499 6.51161 8.19499 5.54512C8.19499 4.57862 7.41149 3.79512 6.44499 3.79512C5.47849 3.79512 4.69499 4.57862 4.69499 5.54512C4.69499 6.51161 5.47849 7.29512 6.44499 7.29512ZM6.44581 10.7958C7.76656 10.7958 8.92793 10.013 9.59663 8.82964C8.65883 8.2975 7.58576 7.99551 6.44569 7.99551C5.30569 7.99551 4.23268 8.29746 3.29492 8.82954C3.96361 10.0129 5.12502 10.7958 6.44581 10.7958ZM6.61344 12.9996C7.17009 12.9908 7.7087 12.9077 8.21981 12.7598C8.6685 12.9312 9.15549 13.0251 9.66439 13.0251C10.0413 13.0251 10.4054 12.9737 10.7505 12.8779C11.2644 12.7353 11.8646 12.6476 12.4638 12.8052L13.8213 13.1625C13.8262 13.1638 13.8303 13.1638 13.8303 13.1638L13.8319 13.1637L13.8338 13.1633C13.8364 13.1626 13.8408 13.1605 13.8453 13.156C13.8498 13.1515 13.8519 13.1471 13.8526 13.1445L13.8532 13.1409C13.8532 13.1409 13.8531 13.1368 13.8518 13.1319L13.4946 11.7745C13.3369 11.1753 13.4246 10.575 13.5672 10.0612C13.663 9.71608 13.7144 9.35197 13.7144 8.97506C13.7144 7.89423 13.291 6.91229 12.601 6.18603C12.5394 5.63569 12.4048 5.10739 12.2072 4.61103C13.7068 5.4867 14.7144 7.11322 14.7144 8.97506C14.7144 9.44323 14.6506 9.8973 14.5308 10.3286C14.4098 10.7646 14.3685 11.1658 14.4617 11.52L14.8189 12.8774C15.0187 13.6366 14.3259 14.3293 13.5668 14.1296L12.2093 13.7723C11.8552 13.6791 11.454 13.7204 11.018 13.8415C10.5866 13.9612 10.1326 14.0251 9.66439 14.0251C8.51811 14.0251 7.46102 13.6431 6.61344 12.9996Z" fill="white"/>
</svg>
