<svg width="16" height="16" viewBox="0 0 16 16" fill="none" xmlns="http://www.w3.org/2000/svg">
<path fill-rule="evenodd" clip-rule="evenodd" d="M8.39702 12.6862C7.88593 12.834 7.34735 12.9171 6.79073 12.9258C7.63838 13.5696 8.69563 13.9516 9.84211 13.9516C10.3103 13.9516 10.7643 13.8878 11.1957 13.768C11.6317 13.647 12.0329 13.6057 12.387 13.6989L13.7445 14.0561C14.5036 14.2559 15.1964 13.5631 14.9966 12.804L14.6394 11.4465C14.5462 11.0924 14.5875 10.6912 14.7085 10.2552C14.8283 9.82386 14.8921 9.36979 14.8921 8.90162C14.8921 7.03985 13.8846 5.41338 12.3851 4.53768C12.5827 5.03403 12.7172 5.56231 12.7788 6.11263C13.4687 6.83888 13.8921 7.82081 13.8921 8.90162C13.8921 9.27853 13.8408 9.64264 13.745 9.98772C13.6023 10.5016 13.5146 11.1019 13.6723 11.701L14.0295 13.0585C14.0308 13.0634 14.0309 13.0662 14.0309 13.0675C14.0309 13.0688 14.0307 13.0699 14.0304 13.0711C14.0296 13.0736 14.0275 13.078 14.023 13.0825C14.0185 13.087 14.0141 13.0891 14.0116 13.0899C14.0104 13.0902 14.0093 13.0904 14.008 13.0904C14.0067 13.0904 14.0039 13.0903 13.999 13.089L12.6415 12.7318C12.0424 12.5741 11.4421 12.6618 10.9282 12.8045C10.5831 12.9003 10.219 12.9516 9.84211 12.9516C9.33301 12.9516 8.84585 12.8577 8.39702 12.6862Z" fill="white"/>
<path d="M6.65022 11.35C9.16312 11.35 11.2002 9.3129 11.2002 6.8C11.2002 4.2871 9.16312 2.25 6.65022 2.25C4.13733 2.25 2.10022 4.2871 2.10022 6.8C2.10022 7.22254 2.15782 7.63163 2.26559 8.01985C2.39744 8.49477 2.46193 8.9955 2.3365 9.47216L1.97927 10.8296C1.87695 11.2185 2.23177 11.5733 2.62059 11.471L3.97807 11.1137C4.45472 10.9883 4.95546 11.0528 5.43038 11.1846C5.81859 11.2924 6.22768 11.35 6.65022 11.35Z" fill="white"/>
<path fill-rule="evenodd" clip-rule="evenodd" d="M6.65023 2.75C4.41347 2.75 2.60022 4.56325 2.60022 6.8C2.60022 7.17691 2.65158 7.54102 2.74737 7.8861C2.89003 8.39997 2.97771 9.00025 2.82004 9.59941L2.46281 10.9569C2.46152 10.9618 2.46143 10.9646 2.46145 10.9659C2.46147 10.9672 2.46165 10.9683 2.46198 10.9695C2.46272 10.972 2.4648 10.9764 2.46931 10.9809C2.47381 10.9854 2.4782 10.9875 2.48077 10.9882C2.48192 10.9886 2.48302 10.9888 2.48437 10.9888C2.48561 10.9888 2.48847 10.9887 2.49335 10.9874L3.85082 10.6302C4.44998 10.4725 5.05025 10.5602 5.56413 10.7029C5.9092 10.7986 6.27331 10.85 6.65023 10.85C8.88698 10.85 10.7002 9.03675 10.7002 6.8C10.7002 4.56325 8.88698 2.75 6.65023 2.75ZM1.60022 6.8C1.60022 4.01096 3.86119 1.75 6.65023 1.75C9.43926 1.75 11.7002 4.01096 11.7002 6.8C11.7002 9.58904 9.43926 11.85 6.65023 11.85C6.18205 11.85 5.72799 11.7862 5.29663 11.6664C4.86066 11.5454 4.45947 11.5041 4.10531 11.5973L2.74784 11.9545C1.98871 12.1543 1.29596 11.4615 1.49573 10.7024L1.85296 9.34491C1.94616 8.99076 1.90484 8.58956 1.78381 8.15359C1.66407 7.72224 1.60022 7.26817 1.60022 6.8Z" fill="white"/>
</svg>
