<svg width="16" height="16" viewBox="0 0 16 16" fill="none" xmlns="http://www.w3.org/2000/svg">
<path fill-rule="evenodd" clip-rule="evenodd" d="M5.22 3C4.94 3 4.72 3.21 4.72 3.5C4.72 3.78 4.94 4 5.22 4H7V4.75H4.94C4.86 4.75 4.79 4.76 4.72 4.79C4.65 4.81 4.59 4.86 4.54 4.91C4.48 4.97 4.44 5.03 4.41 5.1C4.38 5.16 4.37 5.24 4.37 5.32V5.8H3.55C3.47 5.8 3.4 5.81 3.33 5.84C3.26 5.86 3.2 5.91 3.15 5.96C3.09 6.02 3.05 6.08 3.02 6.15C3 6.21 2.98 6.29 2.98 6.36V8H2.25V6.3C2.25 6.02 2.02 5.8 1.75 5.8C1.47 5.8 1.25 6.02 1.25 6.3V8.49V10.85C1.25 11.12 1.47 11.35 1.75 11.35C2.02 11.35 2.25 11.12 2.25 10.85V9H2.98V10.78C2.98 10.93 3.04 11.07 3.15 11.18C3.26 11.29 3.39 11.35 3.55 11.35H5.74L7.32 12.62C7.37 12.66 7.42 12.69 7.48 12.71C7.54 12.73 7.61 12.75 7.67 12.75H11.75C11.82 12.75 11.9 12.73 11.96 12.7C12.03 12.68 12.09 12.63 12.15 12.58C12.26 12.47 12.32 12.33 12.32 12.17V11H12.59L13.08 11.73C13.1 11.77 13.14 11.81 13.17 11.84C13.21 11.88 13.25 11.9 13.29 11.92C13.37 11.97 13.46 11.99 13.55 11.99C13.64 11.99 13.73 11.97 13.81 11.92C13.9 11.88 13.97 11.81 14.03 11.73L14.73 10.66C14.74 10.63 14.75 10.51 14.75 10.47V8.07C14.75 8.03 14.74 7.99 14.73 7.96L14.03 6.81C13.97 6.72 13.9 6.66 13.81 6.62C13.77 6.59 13.73 6.58 13.69 6.57C13.64 6.56 13.6 6.55 13.55 6.55C13.5 6.55 13.46 6.56 13.41 6.57C13.37 6.58 13.33 6.59 13.29 6.62C13.2 6.66 13.13 6.72 13.08 6.81L12.59 7.55H12.32V6.71C12.32 6.64 12.3 6.56 12.27 6.5C12.25 6.43 12.2 6.37 12.15 6.31C12.09 6.26 12.03 6.21 11.96 6.19C11.9 6.16 11.82 6.14 11.75 6.14H10.58V5.32C10.58 5.24 10.57 5.16 10.54 5.1C10.51 5.03 10.47 4.97 10.41 4.91C10.3 4.8 10.16 4.75 10.01 4.75H8V4H9.73C10.01 4 10.23 3.78 10.23 3.5C10.23 3.21 10.01 3 9.73 3H5.22Z" fill="white"/>
</svg>
