<svg width="16" height="16" viewBox="0 0 16 16" fill="none" xmlns="http://www.w3.org/2000/svg">
<path fill-rule="evenodd" clip-rule="evenodd" d="M4.72217 3.5C4.72217 3.22386 4.94603 3 5.22217 3H9.73606C10.0122 3 10.2361 3.22386 10.2361 3.5C10.2361 3.77614 10.0122 4 9.73606 4H8V4.75H10.0136C10.3284 4.75 10.5836 5.0052 10.5836 5.32V6.15H11.7497C12.0645 6.15 12.3197 6.4052 12.3197 6.72V7.55H12.5926L13.0803 6.81246C13.3057 6.47171 13.8058 6.47171 14.0312 6.81246L14.6556 7.75662C14.7173 7.84988 14.7502 7.95923 14.7502 8.07105V10.4789C14.7502 10.5908 14.7173 10.7001 14.6556 10.7934L14.0312 11.7375C13.8058 12.0783 13.3057 12.0783 13.0803 11.7375L12.5926 11H12.3197V12.18C12.3197 12.4948 12.0645 12.75 11.7497 12.75H7.6777C7.54751 12.75 7.42124 12.7054 7.3199 12.6237L5.7404 11.35H3.55633C3.24153 11.35 2.98633 11.0948 2.98633 10.78V9H2.25V10.85C2.25 11.1262 2.02614 11.35 1.75 11.35C1.47386 11.35 1.25 11.1262 1.25 10.85V6.30005C1.25 6.02391 1.47386 5.80005 1.75 5.80005C2.02614 5.80005 2.25 6.02391 2.25 6.30005V8H2.98633V6.37C2.98633 6.0552 3.24153 5.8 3.55633 5.8H4.37522V5.32C4.37522 5.00519 4.63042 4.75 4.94522 4.75H7V4H5.22217C4.94603 4 4.72217 3.77614 4.72217 3.5ZM5.37522 5.75H9.58355V6.58C9.58355 6.8948 9.83875 7.15 10.1536 7.15H11.3197V8.043C11.3197 8.323 11.5466 8.55 11.8267 8.55H12.8576C13.0277 8.55 13.1866 8.46462 13.2804 8.32268L13.5558 7.90639L13.7502 8.20039V10.3496L13.5558 10.6436L13.2804 10.2273C13.1866 10.0854 13.0277 10 12.8576 10H11.8267C11.5467 10 11.3197 10.227 11.3197 10.507V11.75H7.82948L6.24998 10.4763C6.14863 10.3946 6.02237 10.35 5.89218 10.35H3.98633V6.8H4.80522C5.12002 6.8 5.37522 6.5448 5.37522 6.23V5.75Z" fill="white"/>
</svg>
