<svg width="16" height="16" viewBox="0 0 16 16" fill="none" xmlns="http://www.w3.org/2000/svg">
<path d="M8.69444 2.96528C8.69444 2.2941 9.23854 1.75 9.90972 1.75H13.0347C13.7059 1.75 14.25 2.2941 14.25 2.96528V6.09028C14.25 6.76146 13.7059 7.30556 13.0347 7.30556H9.90972C9.23854 7.30556 8.69444 6.76146 8.69444 6.09028V2.96528Z" fill="white"/>
<path d="M2.96528 8.69444C2.2941 8.69444 1.75 9.23854 1.75 9.90972V13.0347C1.75 13.7059 2.2941 14.25 2.96528 14.25H6.09028C6.76146 14.25 7.30556 13.7059 7.30556 13.0347V9.90972C7.30556 9.23854 6.76146 8.69444 6.09028 8.69444H2.96528Z" fill="white"/>
<path d="M9.90972 8.69444C9.23854 8.69444 8.69444 9.23854 8.69444 9.90972V13.0347C8.69444 13.7059 9.23854 14.25 9.90972 14.25H13.0347C13.7059 14.25 14.25 13.7059 14.25 13.0347V9.90972C14.25 9.23854 13.7059 8.69444 13.0347 8.69444H9.90972Z" fill="white"/>
<path fill-rule="evenodd" clip-rule="evenodd" d="M2.96528 1.75C2.2941 1.75 1.75 2.2941 1.75 2.96528V6.09028C1.75 6.76146 2.2941 7.30556 2.96528 7.30556H6.09028C6.76146 7.30556 7.30556 6.76146 7.30556 6.09028V2.96528C7.30556 2.2941 6.76146 1.75 6.09028 1.75H2.96528ZM2.79167 2.96528C2.79167 2.8694 2.86939 2.79167 2.96528 2.79167H6.09028C6.18616 2.79167 6.26389 2.86939 6.26389 2.96528V6.09028C6.26389 6.18616 6.18616 6.26389 6.09028 6.26389H2.96528C2.8694 6.26389 2.79167 6.18616 2.79167 6.09028V2.96528Z" fill="white"/>
</svg>
