<svg width="16" height="16" viewBox="0 0 16 16" fill="none" xmlns="http://www.w3.org/2000/svg">
<path fill-rule="evenodd" clip-rule="evenodd" d="M13.1626 3.04802C11.5029 1.38829 8.81193 1.38829 7.1522 3.04802L1.72945 8.47076C1.53419 8.66603 1.53419 8.98261 1.72945 9.17787C1.92472 9.37313 2.2413 9.37313 2.43656 9.17787L7.85931 3.75513C9.12851 2.48592 11.1863 2.48592 12.4555 3.75513C13.5005 4.80011 13.6851 6.37966 13.0093 7.61352C13.3426 7.68989 13.6619 7.80328 13.9624 7.94912C14.7553 6.35839 14.4887 4.37407 13.1626 3.04802ZM8.04492 14.1479C7.87612 13.8377 7.74274 13.5055 7.65022 13.1566L7.57421 13.2326C7.0727 13.7341 6.28386 13.8041 5.70188 13.3987C4.95363 12.8776 4.8586 11.8066 5.50339 11.1618L10.4277 6.23751C10.6229 6.04225 10.6229 5.72566 10.4277 5.5304C10.2324 5.33514 9.91584 5.33514 9.72058 5.5304L4.79629 10.4547C3.71115 11.5398 3.87108 13.3422 5.13033 14.2193C6.02254 14.8408 7.20363 14.7984 8.04492 14.1479Z" fill="white"/>
<path fill-rule="evenodd" clip-rule="evenodd" d="M12.0002 15.7499C14.0712 15.7499 15.7502 14.071 15.7502 11.9999C15.7502 9.92885 14.0712 8.24992 12.0002 8.24992C9.92911 8.24992 8.25018 9.92885 8.25018 11.9999C8.25018 14.071 9.92911 15.7499 12.0002 15.7499ZM12.3502 9.955C12.3502 9.7617 12.1935 9.605 12.0002 9.605C11.8069 9.605 11.6502 9.7617 11.6502 9.955V11.6505H9.95477C9.76147 11.6505 9.60477 11.8072 9.60477 12.0005C9.60477 12.1938 9.76147 12.3505 9.95477 12.3505H11.6502V14.0459C11.6502 14.2392 11.8069 14.3959 12.0002 14.3959C12.1935 14.3959 12.3502 14.2392 12.3502 14.0459V12.3505H14.0457C14.239 12.3505 14.3957 12.1938 14.3957 12.0005C14.3957 11.8072 14.239 11.6505 14.0457 11.6505H12.3502V9.955Z" fill="white"/>
</svg>
