<svg width="16" height="16" viewBox="0 0 16 16" fill="none" xmlns="http://www.w3.org/2000/svg">
<path fill-rule="evenodd" clip-rule="evenodd" d="M7.1522 3.04802C8.81193 1.38829 11.5029 1.38829 13.1626 3.04802C14.8223 4.70775 14.8223 7.3987 13.1626 9.05843L8.28132 13.9397C7.43731 14.7837 6.10976 14.9015 5.13033 14.2193C3.87108 13.3422 3.71115 11.5398 4.79629 10.4547L9.72058 5.5304C9.91584 5.33514 10.2324 5.33514 10.4277 5.5304C10.6229 5.72566 10.6229 6.04225 10.4277 6.23751L5.5034 11.1618C4.8586 11.8066 4.95363 12.8776 5.70188 13.3987C6.28386 13.8041 7.0727 13.7341 7.57421 13.2326L12.4555 8.35132C13.7247 7.08211 13.7247 5.02433 12.4555 3.75513C11.1863 2.48592 9.12851 2.48592 7.85931 3.75513L2.43656 9.17787C2.2413 9.37313 1.92472 9.37313 1.72945 9.17787C1.53419 8.98261 1.53419 8.66603 1.72945 8.47076L7.1522 3.04802Z" fill="white"/>
</svg>
