<svg width="16" height="16" viewBox="0 0 16 16" fill="none" xmlns="http://www.w3.org/2000/svg">
<path fill-rule="evenodd" clip-rule="evenodd" d="M5.89941 3.09961C6.67247 3.09961 7.29958 3.72698 7.2998 4.5V11.501C7.29937 12.2738 6.67234 12.9004 5.89941 12.9004H2.39941C1.62676 12.9001 1.00044 12.2736 1 11.501V4.5C1.00023 3.72717 1.62662 3.09993 2.39941 3.09961H5.89941ZM3.26074 5.2168C2.919 4.93281 2.40006 5.17579 2.39941 5.62012V10.3799C2.39991 10.8244 2.91895 11.0673 3.26074 10.7832L6.11621 8.4043C6.36791 8.19451 6.36765 7.80665 6.11621 7.59668L3.26074 5.2168Z" fill="white" fill-opacity="0.96"/>
<path fill-rule="evenodd" clip-rule="evenodd" d="M13.5996 3.09961C14.3727 3.09961 14.9998 3.72698 15 4.5V11.501C14.9996 12.2738 14.3725 12.9004 13.5996 12.9004H10.0996C9.32686 12.9002 8.70063 12.2737 8.7002 11.501V4.5C8.70042 3.72711 9.32673 3.09982 10.0996 3.09961H13.5996ZM13.5996 5.62012C13.599 5.17579 13.081 4.93282 12.7393 5.2168L9.88379 7.59668C9.63222 7.80663 9.63202 8.19448 9.88379 8.4043L12.7393 10.7832C13.081 11.0673 13.5991 10.8244 13.5996 10.3799V5.62012Z" fill="white" fill-opacity="0.96"/>
</svg>
