<svg width="16" height="16" viewBox="0 0 16 16" fill="none" xmlns="http://www.w3.org/2000/svg">
<path fill-rule="evenodd" clip-rule="evenodd" d="M8 15C11.866 15 15 11.866 15 8C15 4.13401 11.866 1 8 1C4.13401 1 1 4.13401 1 8C1 11.866 4.13401 15 8 15ZM5.69497 4.70503C5.42161 4.43166 4.97839 4.43166 4.70503 4.70503C4.43166 4.97839 4.43166 5.42161 4.70503 5.69497L7.01005 8L4.70503 10.305C4.43166 10.5784 4.43166 11.0216 4.70503 11.295C4.97839 11.5683 5.42161 11.5683 5.69497 11.295L8 8.98995L10.305 11.295C10.5784 11.5683 11.0216 11.5683 11.295 11.295C11.5683 11.0216 11.5683 10.5784 11.295 10.305L8.98995 8L11.295 5.69497C11.5683 5.42161 11.5683 4.97839 11.295 4.70503C11.0216 4.43166 10.5784 4.43166 10.305 4.70503L8 7.01005L5.69497 4.70503Z" fill="white"/>
</svg>
