<svg width="16" height="16" viewBox="0 0 16 16" fill="none" xmlns="http://www.w3.org/2000/svg">
<path fill-rule="evenodd" clip-rule="evenodd" d="M3.95531 5.73501C2.25151 6.1953 1 7.72711 1 9.54688C1 11.7301 2.80205 13.5 5.025 13.5H11.85C13.5897 13.5 15 12.1149 15 10.4062C15 9.18116 14.2753 8.12337 13.2248 7.6221C13.2415 7.46371 13.25 7.30307 13.25 7.14062C13.25 4.57768 11.1345 2.5 8.525 2.5C6.88681 2.5 5.44399 3.31853 4.59642 4.56162C4.98728 4.52897 5.38163 4.54101 5.77154 4.59817C6.45737 4.69872 7.11573 4.93685 7.70563 5.2986C8.29557 5.66037 8.80482 6.1383 9.20087 6.70362C9.59695 7.26899 9.87112 7.90942 10.0054 8.58526C10.0619 8.86965 9.87713 9.146 9.59274 9.20249C9.30835 9.25899 9.03201 9.07424 8.97551 8.78985C8.8698 8.25776 8.65379 7.7527 8.3409 7.30608C8.02802 6.85946 7.62494 6.48082 7.15672 6.1937C6.68851 5.90658 6.16517 5.71711 5.61923 5.63707C5.0733 5.55703 4.51643 5.58814 3.98325 5.72845C3.97395 5.7309 3.96463 5.73308 3.95531 5.73501Z" fill="white"/>
</svg>
