<svg width="16" height="16" viewBox="0 0 16 16" fill="none" xmlns="http://www.w3.org/2000/svg">
<path d="M13.5254 1.64645C13.7207 1.45118 14.0381 1.45118 14.2334 1.64645C14.4283 1.84165 14.4283 2.15829 14.2334 2.35348L2.35352 14.2324C2.15825 14.4276 1.84175 14.4276 1.64648 14.2324C1.45145 14.0371 1.4513 13.7205 1.64648 13.5254L2.52734 12.6435C1.59784 11.9194 1.00001 10.8026 1 9.54684C1 7.7019 2.28646 6.15321 4.02637 5.71676C4.63851 3.85079 6.42123 2.49996 8.52539 2.49996C9.68764 2.50005 10.7513 2.91296 11.5742 3.59664L13.5254 1.64645Z" fill="white"/>
<path d="M12.8105 5.18356C13.0924 5.77812 13.25 6.4415 13.25 7.14059C13.25 7.30302 13.2413 7.46365 13.2246 7.62203C14.275 8.1233 15 9.18112 15 10.4062C15 12.1148 13.5893 13.5 11.8496 13.5H5.02539C4.85621 13.5 4.68909 13.4896 4.52539 13.4697L12.8105 5.18356Z" fill="white"/>
</svg>
