<svg width="16" height="16" viewBox="0 0 16 16" fill="none" xmlns="http://www.w3.org/2000/svg">
<path fill-rule="evenodd" clip-rule="evenodd" d="M13.5254 1.64645C13.7207 1.45118 14.0381 1.45118 14.2334 1.64645C14.4283 1.84165 14.4283 2.15829 14.2334 2.35348L2.35352 14.2324C2.15825 14.4276 1.84175 14.4276 1.64648 14.2324C1.45145 14.0371 1.4513 13.7205 1.64648 13.5254L2.40918 12.7617C1.54588 12.0035 1 10.8784 1 9.62887C1.00016 7.71128 2.2799 6.08632 4.0293 5.63375C4.63047 3.68042 6.40931 2.24996 8.52734 2.24996C9.74303 2.25004 10.8454 2.72162 11.6787 3.49215L13.5254 1.64645ZM8.52734 3.24996C6.79193 3.24996 5.31908 4.48545 4.91797 6.17379C4.87162 6.36842 4.71375 6.51673 4.5166 6.55074C3.09977 6.7941 2.00017 8.07037 2 9.62887C2 10.6134 2.43968 11.4819 3.11914 12.0517L10.9707 4.20016C10.3154 3.60813 9.45951 3.25004 8.52734 3.24996Z" fill="white"/>
<path d="M12.8467 5.1484C13.1018 5.74505 13.2432 6.40375 13.2432 7.09469C13.2432 7.27591 13.2338 7.45546 13.2148 7.6318C14.2755 8.15129 14.9999 9.2601 15 10.5341C15 12.2956 13.6106 13.7498 11.8652 13.75H5.01367C4.7727 13.75 4.53645 13.728 4.30762 13.6865L5.24512 12.75H11.8652C13.0302 12.7498 14 11.7719 14 10.5341C13.9999 9.53538 13.3648 8.7013 12.5068 8.42086C12.2675 8.34252 12.1242 8.09785 12.1719 7.85055C12.2188 7.6066 12.2432 7.35382 12.2432 7.09469C12.2432 6.6864 12.1816 6.29372 12.0684 5.92574L12.8467 5.1484Z" fill="white"/>
</svg>
