<svg width="16" height="16" viewBox="0 0 16 16" fill="none" xmlns="http://www.w3.org/2000/svg">
<path fill-rule="evenodd" clip-rule="evenodd" d="M12.3388 4.24172C11.4834 3.03689 10.0992 2.25 8.52703 2.25C6.40899 2.25 4.63046 3.68018 4.02928 5.6335C2.27974 6.08608 1 7.71154 1 9.62931C1 11.2472 1.91249 12.6592 3.24863 13.3319L4.00869 12.5718C2.84447 12.1449 2 10.997 2 9.62931C2 8.07065 3.09929 6.79421 4.51624 6.55083C4.71364 6.51693 4.87176 6.36849 4.91806 6.17362C5.31916 4.48528 6.79161 3.25 8.52703 3.25C9.81022 3.25 10.9506 3.92653 11.6194 4.96113L12.3388 4.24172ZM12.8466 5.14813L12.0688 5.92592C12.182 6.29392 12.2432 6.68652 12.2432 7.09483C12.2432 7.35411 12.2185 7.60691 12.1715 7.85099C12.1238 8.09837 12.2677 8.34256 12.5071 8.42083C13.3652 8.7013 14 9.5356 14 10.5345C14 11.7723 13.03 12.75 11.8649 12.75H5.2447L4.30796 13.6867C4.53679 13.7283 4.77254 13.75 5.01351 13.75H11.8649C13.6104 13.75 15 12.2961 15 10.5345C15 9.26019 14.2755 8.15089 13.2146 7.63144C13.2335 7.4551 13.2432 7.27605 13.2432 7.09483C13.2432 6.40374 13.1018 5.74489 12.8466 5.14813Z" fill="white"/>
<path fill-rule="evenodd" clip-rule="evenodd" d="M14.2329 1.64645C14.4282 1.84171 14.4282 2.15829 14.2329 2.35355L2.35355 14.2329C2.15829 14.4282 1.84171 14.4282 1.64645 14.2329C1.45118 14.0377 1.45118 13.7211 1.64645 13.5258L13.5258 1.64645C13.7211 1.45118 14.0377 1.45118 14.2329 1.64645Z" fill="white"/>
</svg>
