<svg width="16" height="16" viewBox="0 0 16 16" fill="none" xmlns="http://www.w3.org/2000/svg">
<path fill-rule="evenodd" clip-rule="evenodd" d="M1.00195 8.26619C1.00195 6.3704 2.28694 4.77216 4.03226 4.3277C4.63629 2.40196 6.41638 1 8.52704 1C11.1376 1 13.2421 3.14362 13.2421 5.77338C13.2421 5.94926 13.2327 6.12305 13.2143 6.29426C14.2716 6.8055 14.9984 7.89681 14.9984 9.15648C14.9984 10.7592 13.8209 12.0914 12.2821 12.2993C12.0085 12.3363 11.7567 12.1444 11.7197 11.8707C11.6827 11.5971 11.8746 11.3453 12.1483 11.3083C13.1873 11.168 13.9984 10.2624 13.9984 9.15648C13.9984 8.18285 13.3691 7.36295 12.5083 7.08613C12.267 7.00855 12.122 6.76276 12.1706 6.51406C12.2175 6.27496 12.2421 6.02735 12.2421 5.77338C12.2421 3.6829 10.5724 2 8.52704 2C7.02904 2 5.73265 2.90221 5.14591 4.20718C6.21819 4.24213 7.18378 4.70331 7.8824 5.42582C8.07436 5.62434 8.06904 5.94088 7.87052 6.13283C7.672 6.32478 7.35547 6.31946 7.16351 6.12094C6.61556 5.55426 5.85502 5.20504 5.0145 5.20504C4.84436 5.20504 4.67788 5.21932 4.51605 5.24666C3.09448 5.48689 2.00195 6.74341 2.00195 8.26619C2.00195 9.58331 2.81983 10.7028 3.96225 11.1356C4.22048 11.2334 4.35051 11.522 4.25268 11.7803C4.15485 12.0385 3.8662 12.1685 3.60797 12.0707C2.0832 11.493 1.00195 10.0056 1.00195 8.26619ZM8.3545 14.8517C8.26067 14.946 8.13313 14.999 8.0001 14.999C7.86708 14.999 7.73954 14.946 7.64571 14.8517L5.53818 12.7341C5.34339 12.5384 5.34414 12.2218 5.53987 12.027C5.7356 11.8322 6.05218 11.8329 6.24698 12.0287L7.5001 13.2878V8.49902C7.5001 8.22288 7.72396 7.99902 8.0001 7.99902C8.27625 7.99902 8.5001 8.22288 8.5001 8.49902V13.2878L9.75323 12.0287C9.94803 11.8329 10.2646 11.8322 10.4603 12.027C10.6561 12.2218 10.6568 12.5384 10.462 12.7341L8.3545 14.8517Z" fill="white"/>
</svg>
