<svg width="16" height="16" viewBox="0 0 16 16" fill="none" xmlns="http://www.w3.org/2000/svg">
<path fill-rule="evenodd" clip-rule="evenodd" d="M12.2699 4.31055C11.406 3.20942 10.0499 2.5 8.525 2.5C6.42084 2.5 4.63899 3.85041 4.02685 5.71638C2.28666 6.15264 1 7.70174 1 9.54688C1 11.1664 1.99163 12.5585 3.4111 13.1694L12.2699 4.31055ZM12.8107 5.18399L4.52492 13.4698C4.68876 13.4897 4.85566 13.5 5.025 13.5H11.85C13.5897 13.5 15 12.1149 15 10.4062C15 9.18116 14.2753 8.12337 13.2248 7.6221C13.2415 7.46371 13.25 7.30307 13.25 7.14062C13.25 6.44153 13.0926 5.77855 12.8107 5.18399Z" fill="white"/>
<path fill-rule="evenodd" clip-rule="evenodd" d="M14.2329 1.64645C14.4282 1.84171 14.4282 2.15829 14.2329 2.35355L2.35355 14.2329C2.15829 14.4282 1.84171 14.4282 1.64645 14.2329C1.45118 14.0377 1.45118 13.7211 1.64645 13.5258L13.5258 1.64645C13.7211 1.45118 14.0377 1.45118 14.2329 1.64645Z" fill="white"/>
</svg>
