<svg width="16" height="16" viewBox="0 0 16 16" fill="none" xmlns="http://www.w3.org/2000/svg">
<path fill-rule="evenodd" clip-rule="evenodd" d="M13.9175 8.0722C14.5806 8.63918 15 9.4743 15 10.4062C15 12.1149 13.5897 13.5 11.85 13.5H5.025C2.80205 13.5 1 11.7301 1 9.54688C1 7.72711 2.25151 6.1953 3.95531 5.73501C3.96463 5.73308 3.97395 5.7309 3.98325 5.72845C4.51643 5.58814 5.0733 5.55703 5.61923 5.63707C6.16517 5.71711 6.68851 5.90658 7.15672 6.1937C7.62494 6.48082 8.02802 6.85946 8.3409 7.30608C8.65379 7.7527 8.8698 8.25776 8.97551 8.78985C9.03201 9.07424 9.30835 9.25899 9.59274 9.20249C9.87713 9.146 10.0619 8.86965 10.0054 8.58526C9.96215 8.36762 9.9044 8.15366 9.83275 7.94469C10.4756 8.29863 11.2143 8.5 12 8.5C12.6858 8.5 13.3358 8.34658 13.9175 8.0722ZM7.73372 2.56477C6.42796 2.78096 5.30448 3.52314 4.59642 4.56162C4.98728 4.52897 5.38163 4.54101 5.77154 4.59817C6.45007 4.69765 7.1017 4.9318 7.68676 5.28708C7.56525 4.8793 7.5 4.44727 7.5 4C7.5 3.49817 7.58215 3.01552 7.73372 2.56477Z" fill="white"/>
<path fill-rule="evenodd" clip-rule="evenodd" d="M12 7.75C14.0711 7.75 15.75 6.07107 15.75 4C15.75 1.92893 14.0711 0.25 12 0.25C9.92893 0.25 8.25 1.92893 8.25 4C8.25 6.07107 9.92893 7.75 12 7.75ZM10.8008 2.30616C10.6641 2.16947 10.4425 2.16947 10.3058 2.30616C10.1691 2.44284 10.1691 2.66445 10.3058 2.80113L11.5047 4L10.3058 5.19887C10.1691 5.33555 10.1691 5.55716 10.3058 5.69384C10.4425 5.83053 10.6641 5.83053 10.8008 5.69384L11.9996 4.49497L13.1985 5.69384C13.3352 5.83053 13.5568 5.83053 13.6935 5.69384C13.8302 5.55716 13.8302 5.33555 13.6935 5.19887L12.4946 4L13.6935 2.80113C13.8302 2.66445 13.8302 2.44284 13.6935 2.30616C13.5568 2.16947 13.3352 2.16947 13.1985 2.30616L11.9996 3.50503L10.8008 2.30616Z" fill="white"/>
</svg>
