<svg width="16" height="16" viewBox="0 0 16 16" fill="none" xmlns="http://www.w3.org/2000/svg">
<g clip-path="url(#clip0_44530_837)">
<path fill-rule="evenodd" clip-rule="evenodd" d="M4.21736 6.56809C4.04277 6.79726 3.71568 6.84303 3.48479 6.66987C3.25283 6.4959 3.20582 6.16683 3.37979 5.93487L3.79979 6.24987C3.37979 5.93487 3.37967 5.93504 3.37979 5.93487L3.38031 5.93418L3.38088 5.93343L3.38218 5.93172L3.38539 5.92752L3.39428 5.91614C3.4013 5.90727 3.41053 5.89586 3.42192 5.88229C3.44468 5.85517 3.47629 5.81916 3.51645 5.77725C3.59635 5.69388 3.71256 5.5846 3.86288 5.47529C4.16148 5.25812 4.61764 5.02487 5.19979 5.02487C5.78195 5.02487 6.2381 5.25812 6.53671 5.47529C6.68702 5.5846 6.80324 5.69388 6.88313 5.77725C6.9233 5.81916 6.95491 5.85517 6.97766 5.88229C6.98906 5.89586 6.99828 5.90727 7.00531 5.91614L7.0142 5.92752L7.01741 5.93172L7.0187 5.93343L7.01927 5.93418C7.0194 5.93435 7.01979 5.93487 6.59979 6.24987L7.01979 5.93487C7.19376 6.16683 7.14675 6.4959 6.91479 6.66987C6.68294 6.84376 6.35407 6.79687 6.18003 6.56519L6.18069 6.56606L6.18141 6.56701L6.18206 6.56788C6.18096 6.56649 6.17806 6.56286 6.17339 6.5573C6.16402 6.54613 6.14777 6.52746 6.12505 6.50375C6.07916 6.45586 6.00944 6.39014 5.91913 6.32446C5.73648 6.19163 5.49264 6.07487 5.19979 6.07487C4.90695 6.07487 4.6631 6.19163 4.48046 6.32446C4.39015 6.39014 4.32043 6.45586 4.27454 6.50375C4.25181 6.52746 4.23557 6.54613 4.2262 6.5573C4.22153 6.56286 4.21846 6.56671 4.21736 6.56809ZM4.21736 6.56809C4.21736 6.56809 4.21736 6.56809 4.21736 6.56809V6.56809Z" fill="white"/>
<path fill-rule="evenodd" clip-rule="evenodd" d="M9.81736 6.56809C9.64277 6.79726 9.31568 6.84303 9.08479 6.66987C8.85283 6.4959 8.80582 6.16683 8.97979 5.93487L9.39979 6.24987C8.97979 5.93487 8.97967 5.93504 8.97979 5.93487L8.98031 5.93418L8.98088 5.93343L8.98218 5.93172L8.98538 5.92752L8.99428 5.91614C9.0013 5.90727 9.01053 5.89586 9.02192 5.88229C9.04468 5.85517 9.07629 5.81916 9.11645 5.77725C9.19635 5.69388 9.31256 5.5846 9.46288 5.47529C9.76148 5.25812 10.2176 5.02487 10.7998 5.02487C11.3819 5.02487 11.8381 5.25812 12.1367 5.47529C12.287 5.5846 12.4032 5.69388 12.4831 5.77725C12.5233 5.81916 12.5549 5.85517 12.5777 5.88229C12.5891 5.89586 12.5983 5.90727 12.6053 5.91614L12.6142 5.92752L12.6174 5.93172L12.6187 5.93343L12.6193 5.93418C12.6194 5.93435 12.6198 5.93487 12.1998 6.24987L12.6198 5.93487C12.7938 6.16683 12.7468 6.4959 12.5148 6.66987C12.2829 6.84376 11.9541 6.79687 11.78 6.56519L11.7807 6.56606L11.7814 6.56701L11.7821 6.56788C11.781 6.56649 11.7781 6.56286 11.7734 6.5573C11.764 6.54613 11.7478 6.52746 11.725 6.50375C11.6792 6.45586 11.6094 6.39014 11.5191 6.32446C11.3365 6.19163 11.0926 6.07487 10.7998 6.07487C10.5069 6.07487 10.2631 6.19163 10.0805 6.32446C9.99015 6.39014 9.92043 6.45586 9.87454 6.50375C9.85181 6.52746 9.83557 6.54613 9.8262 6.5573C9.82153 6.56286 9.81845 6.56671 9.81736 6.56809ZM9.81736 6.56809C9.81736 6.56809 9.81736 6.56809 9.81736 6.56809V6.56809Z" fill="white"/>
<path fill-rule="evenodd" clip-rule="evenodd" d="M0.659407 3.66898C0.678926 3.64289 0.678926 3.60692 0.659407 3.58082C0.432883 3.27795 0.299805 2.90829 0.299805 2.50928C0.299805 1.48237 1.18124 0.649902 2.26855 0.649902C2.6936 0.649902 3.08718 0.777115 3.40895 0.993425C3.43363 1.01002 3.46597 1.01002 3.49066 0.993425C3.81243 0.777115 4.20601 0.649902 4.63105 0.649902C5.34801 0.649902 5.97546 1.01185 6.31971 1.55283C6.85793 1.42024 7.42065 1.3499 7.9998 1.3499C8.57896 1.3499 9.14168 1.42024 9.6799 1.55283C10.0242 1.01185 10.6516 0.649902 11.3686 0.649902C11.7936 0.649902 12.1872 0.777115 12.509 0.993425C12.5336 1.01002 12.566 1.01002 12.5907 0.993425C12.9124 0.777115 13.306 0.649902 13.7311 0.649902C14.8184 0.649902 15.6998 1.48237 15.6998 2.50928C15.6998 2.90829 15.5667 3.27795 15.3402 3.58082C15.3207 3.60692 15.3207 3.64289 15.3402 3.66898C15.5667 3.97186 15.6998 4.34151 15.6998 4.74053C15.6998 5.43048 15.3019 6.03266 14.711 6.35356C14.8989 6.98619 14.9998 7.65627 14.9998 8.3499C14.9998 12.2159 11.8658 15.3499 7.9998 15.3499C4.13381 15.3499 0.999805 12.2159 0.999805 8.3499C0.999805 7.65627 1.10069 6.98619 1.2886 6.35356C0.697701 6.03266 0.299805 5.43048 0.299805 4.74053C0.299805 4.34151 0.432883 3.97186 0.659407 3.66898ZM13.9498 8.3499C13.9498 11.636 11.2859 14.2999 7.9998 14.2999C4.71371 14.2999 2.0498 11.636 2.0498 8.3499C2.0498 5.06381 4.71371 2.3999 7.9998 2.3999C11.2859 2.3999 13.9498 5.06381 13.9498 8.3499ZM9.5748 8.5249C9.5748 9.39475 8.86965 10.0999 7.9998 10.0999C7.12996 10.0999 6.4248 9.39475 6.4248 8.5249C6.4248 7.65505 7.12996 6.9499 7.9998 6.9499C8.86965 6.9499 9.5748 7.65505 9.5748 8.5249ZM6.38771 9.83771C6.03703 9.4974 5.71149 9.18149 5.06852 9.23781C4.08665 9.32381 3.44984 10.1002 3.66849 11.1493C3.96041 12.55 6.36252 13.7494 7.9998 13.7494C9.63709 13.7494 11.9481 12.6427 12.3299 11.15C12.5958 10.1107 11.8498 9.23773 10.7998 9.22772C10.1981 9.22198 9.90351 9.52316 9.59014 9.84352C9.23792 10.2036 8.86201 10.5879 7.9998 10.5879C7.16073 10.5879 6.76005 10.199 6.38771 9.83771ZM5.39414 10.6507C5.31179 10.5434 5.15809 10.5232 5.05075 10.6055C4.94336 10.6878 4.92304 10.8416 5.00537 10.949L5.1998 10.7999C5.00537 10.949 5.0053 10.9489 5.00537 10.949L5.00603 10.9498L5.00708 10.9512L5.01036 10.9554L5.02157 10.9694C5.0311 10.9812 5.04473 10.9977 5.06239 11.0183C5.09769 11.0594 5.14918 11.1169 5.21619 11.1854C5.35001 11.322 5.54687 11.5032 5.80152 11.6844C6.30998 12.0461 7.05881 12.4146 7.9998 12.4146C8.9408 12.4146 9.68963 12.0461 10.1981 11.6844C10.4527 11.5032 10.6496 11.322 10.7834 11.1854C10.8504 11.1169 10.9019 11.0594 10.9372 11.0183C10.9549 10.9977 10.9685 10.9812 10.978 10.9694L10.9892 10.9554L10.9925 10.9512L10.9936 10.9498L10.9941 10.9491C10.9942 10.949 10.9942 10.949 10.8002 10.8002L10.9941 10.9491C11.0764 10.8417 11.0562 10.6878 10.9489 10.6055C10.8415 10.5232 10.6878 10.5434 10.6055 10.6507L10.6042 10.6523L10.5971 10.6612C10.5904 10.6695 10.5798 10.6824 10.5653 10.6992C10.5364 10.733 10.4922 10.7825 10.4334 10.8425C10.3156 10.9627 10.1406 11.1239 9.91402 11.2851C9.45998 11.6082 8.80881 11.9246 7.9998 11.9246C7.1908 11.9246 6.53963 11.6082 6.08559 11.2851C5.85899 11.1239 5.68397 10.9627 5.56623 10.8425C5.50746 10.7825 5.46324 10.733 5.43429 10.6992C5.41982 10.6824 5.40919 10.6695 5.40248 10.6612L5.39538 10.6523L5.39414 10.6507L5.1998 10.7999C5.39424 10.6508 5.39419 10.6508 5.39414 10.6507Z" fill="white"/>
</g>
<defs>
<clipPath id="clip0_44530_837">
<rect width="16" height="16" fill="white"/>
</clipPath>
</defs>
</svg>
