<svg width="16" height="16" viewBox="0 0 16 16" fill="none" xmlns="http://www.w3.org/2000/svg">
<path d="M12.6504 7.89941C13.5061 7.89968 14.2 8.59352 14.2002 9.44922V10.1494C14.2002 11.0053 13.5062 11.699 12.6504 11.6992H11.9502C11.6467 11.6993 11.4007 11.9456 11.4004 12.249V12.9492C11.4004 13.2529 11.6465 13.4989 11.9502 13.499H13.7002C13.9759 13.4993 14.1999 13.7233 14.2002 13.999C14.2002 14.275 13.9761 14.4988 13.7002 14.499H11.9502C11.0942 14.4989 10.4004 13.8052 10.4004 12.9492V12.249C10.4007 11.3933 11.0944 10.6993 11.9502 10.6992H12.6504C12.9539 10.699 13.2002 10.453 13.2002 10.1494V9.44922C13.2 9.14581 12.9538 8.89968 12.6504 8.89941H10.9004C10.6242 8.89941 10.4004 8.67556 10.4004 8.39941C10.4005 8.12336 10.6243 7.89941 10.9004 7.89941H12.6504Z" fill="white"/>
<path d="M5.125 2.2998C6.46423 2.2998 7.5497 3.38541 7.5498 4.72461C7.54971 5.00067 7.32589 5.22461 7.0498 5.22461C6.77381 5.2245 6.5499 5.00061 6.5498 4.72461C6.5497 3.93769 5.91194 3.2998 5.125 3.2998H4.59961C3.71626 3.30002 3.00021 4.01607 3 4.89941V8.39941C3.00009 9.28286 3.71619 9.99979 4.59961 10H5.125C5.91182 10 6.5495 9.36194 6.5498 8.5752C6.5498 8.29912 6.77375 8.0753 7.0498 8.0752C7.32595 8.0752 7.5498 8.29905 7.5498 8.5752C7.5495 9.91423 6.4641 11 5.125 11H4.59961C3.1639 10.9998 2.00009 9.83515 2 8.39941V4.89941C2.00021 3.46378 3.16398 2.30002 4.59961 2.2998H5.125Z" fill="white"/>
<path d="M11.251 2.2998C12.6862 2.3004 13.8503 3.46411 13.8506 4.89941V7.31445C13.5507 7.14545 13.2118 7.0381 12.8506 7.00879V4.89941C12.8503 4.0164 12.1339 3.3004 11.251 3.2998H10.9004C10.0171 3.30002 9.3011 4.01616 9.30078 4.89941V8.39941C9.30097 9.28278 10.017 9.99979 10.9004 10H10.9805C10.5706 10.1769 10.2197 10.4634 9.96191 10.8213C8.99052 10.4444 8.30092 9.50383 8.30078 8.39941V4.89941C8.3011 3.46388 9.46483 2.30002 10.9004 2.2998H11.251Z" fill="white"/>
</svg>
