<svg width="16" height="16" viewBox="0 0 16 16" fill="none" xmlns="http://www.w3.org/2000/svg">
<path fill-rule="evenodd" clip-rule="evenodd" d="M9.34432 1.75454C8.85262 1.78791 8.35139 2.01268 8.01833 2.40386L7.93178 2.38649C7.60267 2.00673 7.11485 1.78759 6.63387 1.75456C6.20702 1.72524 5.75866 1.83618 5.39362 2.12318C5.02426 2.41358 4.76694 2.86323 4.69079 3.4592C4.63042 3.93173 5.12052 4.17466 5.46794 4.00752C5.64996 3.91996 5.74129 3.88622 5.83046 3.86826C5.87929 3.85843 6.10702 3.85231 6.24541 3.84859C6.27821 3.84771 6.306 3.84697 6.32519 3.84634L6.32513 4.88966L5.3624 4.88966C4.63936 4.88966 4.44769 4.87373 4.21744 4.64317C4.16424 4.58954 4.09187 4.43657 4.06718 4.16473C4.04394 3.9088 4.06902 3.60656 4.14452 3.32468C4.20212 3.1096 4.13146 2.89804 4.00135 2.75965C3.86684 2.61659 3.63801 2.52509 3.398 2.62195C1.5738 3.3582 1.0616 5.0808 1.30774 6.56216C1.43064 7.30181 1.74339 8.00567 2.19573 8.53135C2.64854 9.05757 3.26111 9.42484 3.97159 9.42487L5.27275 9.42487C4.99172 9.77822 4.78252 10.139 4.63407 10.5743C4.44091 11.1407 4.35828 11.8115 4.32553 12.7183C4.3139 13.0402 4.61618 13.2928 4.93631 13.2038C5.55733 13.031 5.99658 12.7843 6.35431 12.4578C6.48878 12.335 6.60967 12.2026 6.72273 12.063C6.76103 12.3782 6.84705 12.6749 6.97874 12.9514C7.1591 13.3301 7.41998 13.6602 7.74412 13.9436L8.04638 14.25L8.35099 13.9402C8.6722 13.6563 8.92695 13.3256 9.10061 12.9467C9.21 12.708 9.28512 12.4547 9.32557 12.1879C9.39418 12.2811 9.46825 12.3708 9.55022 12.4547C9.88947 12.8022 10.349 13.0491 11.0866 13.2178C11.2999 13.2666 11.5029 13.1668 11.606 12.9974L11.61 12.9998L11.6081 12.9939C11.6524 12.9196 11.6777 12.8321 11.6764 12.7381C11.6572 11.3419 11.4006 10.3428 10.7069 9.42487L12.0255 9.42487C12.7359 9.42484 13.3485 9.05757 13.8013 8.53135C14.2537 8.00567 14.5664 7.30181 14.6893 6.56216C14.7355 6.28394 14.755 5.99722 14.7441 5.71012C14.7564 5.61564 14.7494 5.51954 14.7234 5.42793C14.5984 4.28298 13.9683 3.1746 12.5991 2.62195C12.359 2.52509 12.1302 2.61659 11.9957 2.75965C11.8656 2.89804 11.7949 3.1096 11.8525 3.32468C11.928 3.60656 11.9531 3.9088 11.9299 4.16473C11.9052 4.43657 11.8328 4.58954 11.7796 4.64317C11.5494 4.87373 11.3577 4.88966 10.6346 4.88966L9.66042 4.88642V3.84311C9.6706 3.84344 9.68331 3.84384 9.698 3.8443C9.82787 3.84839 10.1123 3.85734 10.1666 3.86826C10.2558 3.88622 10.3471 3.91996 10.5291 4.00752C10.8762 4.17451 11.3671 3.93192 11.3059 3.4587C11.2287 2.86152 10.9678 2.41181 10.5947 2.12195C10.2263 1.8357 9.7743 1.72536 9.34432 1.75454ZM7.02285 5.9364H9.10382C9.29712 5.9364 9.45382 6.0931 9.45382 6.2864V8.70415C9.45382 8.89317 9.30373 9.04805 9.1148 9.05398L8.63896 9.06891C8.50038 9.07326 8.37742 9.15901 8.32545 9.28755L8.22558 9.5346C8.1666 9.68047 7.96007 9.68048 7.90109 9.5346L7.80122 9.28755C7.74925 9.15901 7.62629 9.07326 7.48771 9.06891L7.01187 9.05398C6.82294 9.04805 6.67285 8.89317 6.67285 8.70415V6.2864C6.67285 6.0931 6.82955 5.9364 7.02285 5.9364Z" fill="white"/>
</svg>
