<svg width="16" height="16" viewBox="0 0 16 16" fill="none" xmlns="http://www.w3.org/2000/svg">
<path d="M9.8948 1.75091C10.1587 1.83099 10.3083 2.11001 10.2288 2.37396L6.72878 13.9247C6.64864 14.1886 6.36974 14.3374 6.10574 14.2577C5.84155 14.1777 5.69184 13.8989 5.77175 13.6347L9.27175 2.0849C9.35196 1.82103 9.63079 1.67117 9.8948 1.75091Z" fill="white"/>
<path d="M4.14675 5.20111C4.34201 5.00619 4.65862 5.00604 4.85378 5.20111C5.04884 5.39627 5.04869 5.71288 4.85378 5.90814L2.75613 8.00384L4.85378 10.1015C5.04868 10.2967 5.04872 10.6133 4.85378 10.8085C4.65861 11.0036 4.342 11.0035 4.14675 10.8085L1.79519 8.45697C1.5456 8.207 1.54537 7.80151 1.79519 7.55169L4.14675 5.20111Z" fill="white"/>
<path d="M11.1458 5.20111C11.3409 5.00601 11.6575 5.00633 11.8528 5.20111L14.2044 7.55169C14.4542 7.80154 14.454 8.20701 14.2044 8.45697L11.8528 10.8085C11.6575 11.0034 11.3409 11.0036 11.1458 10.8085C10.951 10.6134 10.951 10.2967 11.1458 10.1015L13.2434 8.00384L11.1458 5.90814C10.9511 5.7129 10.9508 5.39622 11.1458 5.20111Z" fill="white"/>
</svg>
