<svg width="16" height="16" viewBox="0 0 16 16" fill="none" xmlns="http://www.w3.org/2000/svg">
<path fill-rule="evenodd" clip-rule="evenodd" d="M14.3008 8.3C14.3008 9.5951 13.91 10.7989 13.2399 11.8H10.91C11.1085 11.6515 11.1704 11.3751 11.045 11.1537L9.81273 8.97713C10.5729 8.67343 11.1099 7.93032 11.1099 7.06177C11.1099 5.92308 10.1869 5 9.04818 5H7.46595C7.1898 5 6.96595 5.22386 6.96595 5.5V11.4C6.96595 11.5636 7.04448 11.7088 7.1659 11.8H5.67002C5.79144 11.7088 5.86997 11.5636 5.86997 11.4V5.5C5.86997 5.22386 5.64611 5 5.36997 5C5.09383 5 4.86997 5.22386 4.86997 5.5V11.4C4.86997 11.5636 4.94851 11.7088 5.06992 11.8H2.76167C2.09157 10.7989 1.70078 9.5951 1.70078 8.3C1.70078 4.82061 4.52139 2 8.00078 2C11.4802 2 14.3008 4.82061 14.3008 8.3ZM7.766 11.8C7.88741 11.7088 7.96595 11.5636 7.96595 11.4V9.12353H8.74646L10.1748 11.6463C10.2099 11.7083 10.2562 11.7599 10.3097 11.8H7.766ZM9.02815 8.12353H7.96595V6H9.04818C9.63458 6 10.1099 6.47537 10.1099 7.06177C10.1099 7.64816 9.63458 8.12353 9.04818 8.12353H9.04682C9.0437 8.12347 9.04057 8.12344 9.03745 8.12344C9.03435 8.12344 9.03125 8.12347 9.02815 8.12353ZM1.525 12.85C1.23505 12.85 1 13.0851 1 13.375C1 13.665 1.23505 13.9 1.525 13.9H14.475C14.7649 13.9 15 13.665 15 13.375C15 13.0851 14.7649 12.85 14.475 12.85H1.525Z" fill="white"/>
</svg>
