<svg width="16" height="16" viewBox="0 0 16 16" fill="none" xmlns="http://www.w3.org/2000/svg">
<path d="M11.3257 2.22507C11.3257 1.93512 11.0906 1.70007 10.8007 1.70007C10.5107 1.70007 10.2757 1.93512 10.2757 2.22507V3.97507C10.2757 4.26502 10.5107 4.50007 10.8007 4.50007C11.0906 4.50007 11.3257 4.26502 11.3257 3.97507V2.22507Z" fill="white"/>
<path d="M8.52685 1.52488C8.52685 1.23493 8.2918 0.999878 8.00185 0.999878C7.71191 0.999878 7.47685 1.23493 7.47685 1.52488V3.27488C7.47685 3.56483 7.71191 3.79988 8.00185 3.79988C8.2918 3.79988 8.52685 3.56483 8.52685 3.27488V1.52488Z" fill="white"/>
<path d="M5.20107 1.69998C5.49102 1.69998 5.72607 1.93503 5.72607 2.22498V3.97498C5.72607 4.26493 5.49102 4.49998 5.20107 4.49998C4.91112 4.49998 4.67607 4.26493 4.67607 3.97498V2.22498C4.67607 1.93503 4.91112 1.69998 5.20107 1.69998Z" fill="white"/>
<path fill-rule="evenodd" clip-rule="evenodd" d="M5.24988 7.64443C5.24988 7.45113 5.40658 7.29443 5.59988 7.29443H6.62471C7.45477 7.29443 8.12766 7.96732 8.12766 8.79737C8.12766 9.42037 7.7486 9.95483 7.20855 10.1827L8.08675 11.8358C8.17743 12.0065 8.11257 12.2184 7.94186 12.3091C7.77115 12.3998 7.55925 12.3349 7.46856 12.1642L6.47838 10.3003H5.94988V12C5.94988 12.1933 5.79318 12.35 5.59988 12.35C5.40658 12.35 5.24988 12.1933 5.24988 12V7.64443ZM5.94988 9.60032H6.62471C7.06817 9.60032 7.42766 9.24083 7.42766 8.79737C7.42766 8.35392 7.06817 7.99443 6.62471 7.99443H5.94988V9.60032Z" fill="white"/>
<path d="M10.0333 7.1C10.0333 6.9067 9.87657 6.75 9.68327 6.75C9.48997 6.75 9.33327 6.9067 9.33327 7.1V7.53841C8.85994 7.68707 8.5166 8.12928 8.5166 8.65167V8.73333C8.5166 9.37767 9.03894 9.9 9.68327 9.9C9.941 9.9 10.1499 10.1089 10.1499 10.3667V10.4483C10.1499 10.7061 9.941 10.915 9.68327 10.915H9.04808C8.85478 10.915 8.69808 11.0717 8.69808 11.265C8.69808 11.4583 8.85478 11.615 9.04808 11.615H9.33327V12C9.33327 12.1933 9.48997 12.35 9.68327 12.35C9.87657 12.35 10.0333 12.1933 10.0333 12V11.5616C10.5066 11.4129 10.8499 10.9707 10.8499 10.4483V10.3667C10.8499 9.72233 10.3276 9.2 9.68327 9.2C9.42554 9.2 9.2166 8.99107 9.2166 8.73333V8.65167C9.2166 8.39393 9.42554 8.185 9.68327 8.185H10.3185C10.5118 8.185 10.6685 8.0283 10.6685 7.835C10.6685 7.6417 10.5118 7.485 10.3185 7.485H10.0333V7.1Z" fill="white"/>
<path fill-rule="evenodd" clip-rule="evenodd" d="M13.2495 9.74988C13.2495 6.85038 10.899 4.49988 7.99951 4.49988C5.10002 4.49988 2.74951 6.85038 2.74951 9.74988C2.74951 12.6494 5.10002 14.9999 7.99951 14.9999C10.899 14.9999 13.2495 12.6494 13.2495 9.74988ZM7.99951 5.54988C10.3191 5.54988 12.1995 7.43028 12.1995 9.74988C12.1995 12.0695 10.3191 13.9499 7.99951 13.9499C5.67992 13.9499 3.79951 12.0695 3.79951 9.74988C3.79951 7.43028 5.67992 5.54988 7.99951 5.54988Z" fill="white"/>
</svg>
