<svg width="16" height="16" viewBox="0 0 16 16" fill="none" xmlns="http://www.w3.org/2000/svg">
<path fill-rule="evenodd" clip-rule="evenodd" d="M4.84713 2.85244C5.80444 2.29413 6.89076 2 7.99687 2C9.10298 2 10.1893 2.29413 11.1466 2.85244C12.1039 3.41073 12.8982 4.21335 13.4502 5.17913C14.0022 6.14488 14.2926 7.24001 14.2926 8.35449C14.2926 9.46896 14.0022 10.5641 13.4502 11.5298C13.3132 11.7696 13.0077 11.8529 12.768 11.7158C12.5282 11.5788 12.445 11.2734 12.582 11.0336C13.0474 10.2194 13.2926 9.29536 13.2926 8.35449C13.2926 7.41361 13.0474 6.48959 12.582 5.67535C12.1166 4.86115 11.4477 4.18565 10.6428 3.71627C9.83802 3.2469 8.92548 3 7.99687 3C7.06826 3 6.15572 3.2469 5.35092 3.71627C4.54607 4.18566 3.87711 4.86115 3.41175 5.67535C2.94637 6.48959 2.70117 7.41361 2.70117 8.35449C2.70117 9.29536 2.94637 10.2194 3.41175 11.0336C3.54877 11.2734 3.46551 11.5788 3.22576 11.7158C2.98601 11.8529 2.68058 11.7696 2.54355 11.5298C1.99157 10.5641 1.70117 9.46896 1.70117 8.35449C1.70117 7.24001 1.99157 6.14489 2.54355 5.17913C3.09555 4.21335 3.88985 3.41073 4.84713 2.85244ZM1 13.4989C1 13.2228 1.22386 12.9989 1.5 12.9989H14.4964C14.7726 12.9989 14.9964 13.2228 14.9964 13.4989C14.9964 13.7751 14.7726 13.9989 14.4964 13.9989H1.5C1.22386 13.9989 1 13.7751 1 13.4989ZM7.12017 4.83796C6.84403 4.83796 6.62017 5.06182 6.62017 5.33796V8.03132H6.06641C5.79026 8.03132 5.56641 8.25518 5.56641 8.53132C5.56641 8.80746 5.79026 9.03132 6.06641 9.03132H6.62017V9.80541H6.06641C5.79026 9.80541 5.56641 10.0293 5.56641 10.3054C5.56641 10.5815 5.79026 10.8054 6.06641 10.8054H6.62017V11.3699C6.62017 11.646 6.84403 11.8699 7.12017 11.8699C7.39631 11.8699 7.62017 11.646 7.62017 11.3699V10.8054H8.87644C9.15258 10.8054 9.37644 10.5815 9.37644 10.3054C9.37644 10.0293 9.15258 9.80541 8.87644 9.80541H7.62017V9.03132H8.68478C9.84274 9.03132 10.7815 8.0926 10.7815 6.93464C10.7815 5.77668 9.84275 4.83796 8.68478 4.83796H7.12017ZM8.68478 8.03132H7.62017V5.83796H8.68478C9.29046 5.83796 9.78146 6.32896 9.78146 6.93464C9.78146 7.54032 9.29046 8.03132 8.68478 8.03132Z" fill="white"/>
</svg>
