<svg width="16" height="16" viewBox="0 0 16 16" fill="none" xmlns="http://www.w3.org/2000/svg">
<path fill-rule="evenodd" clip-rule="evenodd" d="M7.99687 2C6.89076 2 5.80444 2.29413 4.84713 2.85244C3.88985 3.41073 3.09555 4.21335 2.54355 5.17913C1.99157 6.14489 1.70117 7.24001 1.70117 8.35449C1.70117 9.46896 1.99157 10.5641 2.54355 11.5298C2.68058 11.7696 2.98601 11.8529 3.22576 11.7158C3.46551 11.5788 3.54877 11.2734 3.41175 11.0336C2.94637 10.2194 2.70117 9.29536 2.70117 8.35449C2.70117 7.41361 2.94637 6.48959 3.41175 5.67535C3.87711 4.86115 4.54607 4.18566 5.35092 3.71627C6.15572 3.2469 7.06826 3 7.99687 3C8.92548 3 9.83802 3.2469 10.6428 3.71627C11.4477 4.18565 12.1166 4.86115 12.582 5.67535C13.0474 6.48959 13.2926 7.41361 13.2926 8.35449C13.2926 9.29536 13.0474 10.2194 12.582 11.0336C12.445 11.2734 12.5282 11.5788 12.768 11.7158C13.0077 11.8529 13.3132 11.7696 13.4502 11.5298C14.0022 10.5641 14.2926 9.46896 14.2926 8.35449C14.2926 7.24001 14.0022 6.14488 13.4502 5.17913C12.8982 4.21335 12.1039 3.41073 11.1466 2.85244C10.1893 2.29413 9.10298 2 7.99687 2ZM1.5 12.9989C1.22386 12.9989 1 13.2228 1 13.4989C1 13.7751 1.22386 13.9989 1.5 13.9989H14.4964C14.7726 13.9989 14.9964 13.7751 14.9964 13.4989C14.9964 13.2228 14.7726 12.9989 14.4964 12.9989H1.5Z" fill="white"/>
<path fill-rule="evenodd" clip-rule="evenodd" d="M6.97 5.5C6.97 5.22386 7.19385 5 7.47 5H9.045C10.191 5 11.12 5.92901 11.12 7.075C11.12 7.94832 10.5805 8.69563 9.81656 9.00181L11.0558 11.2049C11.1912 11.4455 11.1058 11.7504 10.8651 11.8858C10.6244 12.0212 10.3196 11.9358 10.1842 11.6951L8.75257 9.15H7.97V11.45C7.97 11.7261 7.74614 11.95 7.47 11.95C7.19385 11.95 6.97 11.7261 6.97 11.45V5.5ZM9.03513 8.15H7.97H9.03513ZM9.05248 8.14997C9.64274 8.14595 10.12 7.66621 10.12 7.075C10.12 6.48129 9.6387 6 9.045 6H7.97V8.15" fill="white"/>
<path fill-rule="evenodd" clip-rule="evenodd" d="M5.37 5C5.64614 5 5.87 5.22386 5.87 5.5V11.45C5.87 11.7261 5.64614 11.95 5.37 11.95C5.09385 11.95 4.87 11.7261 4.87 11.45V5.5C4.87 5.22386 5.09385 5 5.37 5Z" fill="white"/>
</svg>
