<svg width="16" height="16" viewBox="0 0 16 16" fill="none" xmlns="http://www.w3.org/2000/svg">
<path d="M11.3258 2.22458C11.3258 1.93464 11.0907 1.69958 10.8008 1.69958C10.5108 1.69958 10.2758 1.93464 10.2758 2.22458V3.97459C10.2758 4.26453 10.5108 4.49959 10.8008 4.49959C11.0907 4.49959 11.3258 4.26453 11.3258 3.97459V2.22458Z" fill="white"/>
<path d="M8.52695 1.52537C8.52695 1.23542 8.2919 1.00037 8.00195 1.00037C7.712 1.00037 7.47695 1.23542 7.47695 1.52537V3.27537C7.47695 3.56532 7.712 3.80037 8.00195 3.80037C8.2919 3.80037 8.52695 3.56532 8.52695 3.27537V1.52537Z" fill="white"/>
<path d="M5.20117 1.69958C5.49112 1.69958 5.72617 1.93464 5.72617 2.22458V3.97459C5.72617 4.26453 5.49112 4.49959 5.20117 4.49959C4.91122 4.49959 4.67617 4.26453 4.67617 3.97459V2.22458C4.67617 1.93464 4.91122 1.69958 5.20117 1.69958Z" fill="white"/>
<path fill-rule="evenodd" clip-rule="evenodd" d="M8 15C10.8995 15 13.25 12.6495 13.25 9.74998C13.25 6.85048 10.8995 4.49998 8 4.49998C5.10051 4.49998 2.75 6.85048 2.75 9.74998C2.75 12.6495 5.10051 15 8 15ZM5.94998 7.74998C5.94998 7.55668 5.79328 7.39998 5.59998 7.39998C5.40668 7.39998 5.24998 7.55668 5.24998 7.74998V11.88C5.24998 12.1119 5.43801 12.3 5.66998 12.3H7.55998C7.75327 12.3 7.90998 12.1433 7.90998 11.95C7.90998 11.7567 7.75327 11.6 7.55998 11.6H5.94998V7.74998ZM8.88999 8.09998H10.3367C10.53 8.09998 10.6867 7.94328 10.6867 7.74998C10.6867 7.55668 10.53 7.39998 10.3367 7.39998H8.53999C8.34669 7.39998 8.18999 7.55668 8.18999 7.74998V11.88C8.18999 12.1119 8.37803 12.3 8.60999 12.3H10.5C10.6933 12.3 10.85 12.1433 10.85 11.95C10.85 11.7567 10.6933 11.6 10.5 11.6H8.88999V10.116H10.3367C10.53 10.116 10.6867 9.95934 10.6867 9.76604C10.6867 9.57274 10.53 9.41604 10.3367 9.41604H8.88999V8.09998Z" fill="white"/>
</svg>
