<svg width="16" height="16" viewBox="0 0 16 16" fill="none" xmlns="http://www.w3.org/2000/svg">
<path fill-rule="evenodd" clip-rule="evenodd" d="M13.2584 11.4719C13.9308 10.4788 14.3229 9.28468 14.3229 8C14.3229 4.54822 11.4922 1.75 8.00032 1.75C4.50845 1.75 1.67773 4.54822 1.67773 8C1.67773 9.28468 2.06984 10.4788 2.74219 11.4719H13.2584ZM7.93372 14.2497C7.95589 14.2499 7.97809 14.25 8.00032 14.25C8.02254 14.25 8.04474 14.2499 8.06691 14.2497H7.93372ZM7.50067 4.35449C7.50067 4.07835 7.72453 3.85449 8.00067 3.85449C8.54987 3.85449 9.09383 3.96142 9.60154 4.1693C10.1093 4.37719 10.5709 4.68205 10.9601 5.06674C11.3493 5.45145 11.6583 5.90848 11.8693 6.41189C12.0802 6.91531 12.1888 7.45508 12.1888 8.00033C12.1888 8.27647 11.965 8.50033 11.6888 8.50033C11.4127 8.50033 11.1888 8.27647 11.1888 8.00033C11.1888 7.58802 11.1067 7.1796 10.9469 6.79836C10.7872 6.4171 10.5529 6.0703 10.2571 5.77792C9.96131 5.48552 9.60984 5.25328 9.22261 5.09473C8.83538 4.93617 8.42014 4.85449 8.00067 4.85449C7.72453 4.85449 7.50067 4.63063 7.50067 4.35449ZM1.5 12.5344C1.22386 12.5344 1 12.7582 1 13.0344C1 13.3105 1.22386 13.5344 1.5 13.5344H14.4964C14.7726 13.5344 14.9964 13.3105 14.9964 13.0344C14.9964 12.7582 14.7726 12.5344 14.4964 12.5344H1.5Z" fill="white"/>
</svg>
