<svg width="16" height="16" viewBox="0 0 16 16" fill="none" xmlns="http://www.w3.org/2000/svg">
<path d="M4.84713 2.85268C5.80444 2.29437 6.89076 2.00024 7.99687 2.00024C9.10298 2.00024 10.1893 2.29437 11.1466 2.85268C12.1039 3.41097 12.8982 4.21359 13.4502 5.17938C14.0022 6.14513 14.2926 7.24025 14.2926 8.35473C14.2926 9.46921 14.0022 10.5643 13.4502 11.5301C13.3132 11.7698 13.0077 11.8531 12.768 11.7161C12.5282 11.579 12.445 11.2736 12.582 11.0339C13.0474 10.2196 13.2926 9.29561 13.2926 8.35473C13.2926 7.41385 13.0474 6.48983 12.582 5.6756C12.1166 4.86139 11.4477 4.1859 10.6428 3.71651C9.83802 3.24714 8.92548 3.00024 7.99687 3.00024C7.06826 3.00024 6.15572 3.24714 5.35092 3.71651C4.54607 4.1859 3.87711 4.86139 3.41175 5.6756C2.94637 6.48983 2.70117 7.41385 2.70117 8.35473C2.70117 9.29561 2.94637 10.2196 3.41175 11.0339C3.54877 11.2736 3.46551 11.579 3.22576 11.7161C2.98601 11.8531 2.68058 11.7698 2.54355 11.5301C1.99157 10.5643 1.70117 9.46921 1.70117 8.35473C1.70117 7.24025 1.99157 6.14513 2.54355 5.17938C3.09555 4.21359 3.88985 3.41097 4.84713 2.85268Z" fill="white"/>
<path d="M1 13.4992C1 13.223 1.22386 12.9992 1.5 12.9992H14.4964C14.7726 12.9992 14.9964 13.223 14.9964 13.4992C14.9964 13.7753 14.7726 13.9992 14.4964 13.9992H1.5C1.22386 13.9992 1 13.7753 1 13.4992Z" fill="white"/>
<path fill-rule="evenodd" clip-rule="evenodd" d="M5 5.25024C4.72386 5.25024 4.5 5.4741 4.5 5.75024V11.7502C4.5 12.0264 4.72386 12.2502 5 12.2502H6.73179C7.8458 12.2502 8.74509 11.34 8.73164 10.2261C8.72229 9.45054 8.27239 8.78245 7.6216 8.45862C7.8765 8.12293 8.02778 7.70426 8.02778 7.25024C8.02778 6.14567 7.13235 5.25024 6.02778 5.25024H5ZM5.5 11.2502V9.25024H6.73179C7.27937 9.25024 7.72511 9.69064 7.73172 10.2382C7.73844 10.7951 7.28879 11.2502 6.73179 11.2502H5.5ZM6.02778 8.25024H5.5V6.25024H6.02778C6.58006 6.25024 7.02778 6.69796 7.02778 7.25024C7.02778 7.80253 6.58006 8.25024 6.02778 8.25024Z" fill="white"/>
<path d="M11.5 9.07373C10.779 9.07373 10.1945 9.65825 10.1945 10.3793V11.7502C10.1945 12.0263 9.9706 12.2502 9.69446 12.2502C9.41832 12.2502 9.19446 12.0263 9.19446 11.7502V10.3793C9.19446 10.3656 9.19458 10.352 9.19481 10.3384L9.19446 8.39722C9.19446 8.12107 9.41832 7.89722 9.69446 7.89722C9.9706 7.89722 10.1945 8.12107 10.1945 8.39722V8.47873C10.5656 8.22327 11.0154 8.07373 11.5 8.07373C11.7762 8.07373 12 8.29759 12 8.57373C12 8.84987 11.7762 9.07373 11.5 9.07373Z" fill="white"/>
</svg>
