<svg width="16" height="16" viewBox="0 0 16 16" fill="none" xmlns="http://www.w3.org/2000/svg">
<path fill-rule="evenodd" clip-rule="evenodd" d="M11.3238 2.22519C11.3238 1.93524 11.0888 1.70019 10.7988 1.70019C10.5089 1.70019 10.2738 1.93524 10.2738 2.22519V3.97517C10.2738 4.26512 10.5089 4.50017 10.7988 4.50017C11.0888 4.50017 11.3238 4.26512 11.3238 3.97517V2.22519ZM8.525 1.525C8.525 1.23505 8.28995 1 8 1C7.71005 1 7.475 1.23505 7.475 1.525V3.27498C7.475 3.56493 7.71005 3.79998 8 3.79998C8.28995 3.79998 8.525 3.56493 8.525 3.27498V1.525ZM5.19922 1.70009C5.48917 1.70009 5.72422 1.93514 5.72422 2.22509V3.97508C5.72422 4.26502 5.48917 4.50007 5.19922 4.50007C4.90927 4.50007 4.67422 4.26502 4.67422 3.97508V2.22509C4.67422 1.93514 4.90927 1.70009 5.19922 1.70009ZM13.25 9.75004C13.25 12.6495 10.8995 15 8 15C5.10051 15 2.75 12.6495 2.75 9.75004C2.75 6.85056 5.10051 4.50007 8 4.50007C10.8995 4.50007 13.25 6.85056 13.25 9.75004ZM6.25039 6.95025C6.05709 6.95025 5.90039 7.09762 5.90039 7.27942C5.90039 7.46121 6.05709 7.60859 6.25039 7.60859H7.55059C7.97713 7.60859 8.29032 7.77989 8.50275 8.0098C8.62135 8.13817 8.7058 8.28203 8.7585 8.42011H6.57578C6.38248 8.42011 6.22578 8.56748 6.22578 8.74928C6.22578 8.93107 6.38248 9.07844 6.57578 9.07844H8.75857C8.70587 9.21657 8.6214 9.3605 8.50275 9.48892C8.29203 9.71699 7.98215 9.88739 7.56083 9.89011L7.55039 9.88996H6.42415C6.04601 9.88996 5.86047 10.3231 6.13299 10.5697L8.60776 12.8083C8.74708 12.9343 8.96865 12.9303 9.10264 12.7992C9.23664 12.6682 9.23233 12.4598 9.09302 12.3338L7.11917 10.5483H7.55039C8.2008 10.5483 8.70031 10.2788 9.03114 9.92073C9.26383 9.66888 9.41795 9.36848 9.48588 9.07844H10.1508C10.3441 9.07844 10.5008 8.93107 10.5008 8.74928C10.5008 8.56748 10.3441 8.42011 10.1508 8.42011H9.48584C9.42062 8.14178 9.27603 7.85392 9.05881 7.60859H10.1504C10.3437 7.60859 10.5004 7.46121 10.5004 7.27942C10.5004 7.09762 10.3437 6.95025 10.1504 6.95025H6.25039Z" fill="white"/>
</svg>
