<svg width="16" height="16" viewBox="0 0 16 16" fill="none" xmlns="http://www.w3.org/2000/svg">
<path d="M13.2399 11.8C13.91 10.7989 14.3008 9.5951 14.3008 8.3C14.3008 4.82061 11.4802 2 8.00078 2C4.52139 2 1.70078 4.82061 1.70078 8.3C1.70078 9.5951 2.09157 10.7989 2.76167 11.8H6.19993C6.07851 11.7088 5.99998 11.5636 5.99998 11.4V5.5C5.99998 5.22386 6.22383 5 6.49998 5H8.08821C9.22689 5 10.15 5.92308 10.15 7.06177C10.15 7.93105 9.61201 8.67468 8.85084 8.97789L10.0849 11.1533C10.2105 11.3747 10.1487 11.6514 9.95007 11.8H13.2399Z" fill="white"/>
<path d="M6.99998 11.4C6.99998 11.5636 6.92144 11.7088 6.80002 11.8H9.34977C9.29635 11.76 9.25012 11.7085 9.21508 11.6467L7.78376 9.12353H6.99998V11.4Z" fill="white"/>
<path d="M6.99998 8.12353H8.0652C8.07141 8.12341 8.07763 8.12341 8.08384 8.12353H8.08821C8.67461 8.12353 9.14998 7.64816 9.14998 7.06177C9.14998 6.47537 8.67461 6 8.08821 6H6.99998V8.12353Z" fill="white"/>
<path d="M1.525 12.85C1.23505 12.85 1 13.0851 1 13.375C1 13.665 1.23505 13.9 1.525 13.9H14.475C14.7649 13.9 15 13.665 15 13.375C15 13.0851 14.7649 12.85 14.475 12.85H1.525Z" fill="white"/>
</svg>
