<svg width="16" height="16" viewBox="0 0 16 16" fill="none" xmlns="http://www.w3.org/2000/svg">
<path fill-rule="evenodd" clip-rule="evenodd" d="M11.3258 2.22458C11.3258 1.93464 11.0907 1.69958 10.8008 1.69958C10.5108 1.69958 10.2758 1.93464 10.2758 2.22458V3.97459C10.2758 4.26453 10.5108 4.49959 10.8008 4.49959C11.0907 4.49959 11.3258 4.26453 11.3258 3.97459V2.22458ZM8.52695 1.52537C8.52695 1.23542 8.2919 1.00037 8.00195 1.00037C7.712 1.00037 7.47695 1.23542 7.47695 1.52537V3.27537C7.47695 3.56532 7.712 3.80037 8.00195 3.80037C8.2919 3.80037 8.52695 3.56532 8.52695 3.27537V1.52537ZM5.20117 1.69958C5.49112 1.69958 5.72617 1.93464 5.72617 2.22458V3.97459C5.72617 4.26453 5.49112 4.49959 5.20117 4.49959C4.91122 4.49959 4.67617 4.26453 4.67617 3.97459V2.22458C4.67617 1.93464 4.91122 1.69958 5.20117 1.69958ZM8 15C10.8995 15 13.25 12.6495 13.25 9.74998C13.25 6.85048 10.8995 4.49998 8 4.49998C5.10051 4.49998 2.75 6.85048 2.75 9.74998C2.75 12.6495 5.10051 15 8 15ZM8.93334 7.74998C8.93334 7.55668 8.77664 7.39998 8.58334 7.39998C8.39004 7.39998 8.23334 7.55668 8.23334 7.74998V11.6C8.23334 11.7933 8.39004 11.95 8.58334 11.95C8.77664 11.95 8.93334 11.7933 8.93334 11.6V9.94806H10.1V11.6C10.1 11.7933 10.2567 11.95 10.45 11.95C10.6433 11.95 10.8 11.7933 10.8 11.6V7.74998C10.8 7.55668 10.6433 7.39998 10.45 7.39998C10.2567 7.39998 10.1 7.55668 10.1 7.74998V9.24806H8.93334V7.74998ZM5.19999 7.74998C5.19999 7.55668 5.35669 7.39998 5.54999 7.39998H5.61175C6.93074 7.39998 7.99998 8.46923 7.99998 9.78821C7.99998 10.9821 7.03213 11.95 5.83822 11.95H5.54999C5.35669 11.95 5.19999 11.7933 5.19999 11.6V7.74998ZM5.89999 8.12448V11.2487C6.67865 11.2163 7.29998 10.5748 7.29998 9.78821C7.29998 8.95409 6.69506 8.26126 5.89999 8.12448Z" fill="white"/>
</svg>
