<svg width="16" height="16" viewBox="0 0 16 16" fill="none" xmlns="http://www.w3.org/2000/svg">
<path d="M14.3008 8.3C14.3008 9.5951 13.91 10.7989 13.2399 11.8H10.25C10.5261 11.8 10.75 11.5761 10.75 11.3V10.7726C11.3607 10.5646 11.8 9.98609 11.8 9.305V9.2C11.8 8.34396 11.106 7.65 10.25 7.65C9.94624 7.65 9.7 7.40376 9.7 7.1V6.995C9.7 6.69124 9.94624 6.445 10.25 6.445H11.0667C11.3428 6.445 11.5667 6.22114 11.5667 5.945C11.5667 5.66886 11.3428 5.445 11.0667 5.445H10.75V5C10.75 4.72386 10.5261 4.5 10.25 4.5C9.97386 4.5 9.75 4.72386 9.75 5V5.52741C9.13929 5.73542 8.7 6.31391 8.7 6.995V7.1C8.7 7.95604 9.39396 8.65 10.25 8.65C10.5538 8.65 10.8 8.89624 10.8 9.2V9.305C10.8 9.60876 10.5538 9.855 10.25 9.855H9.43333C9.15719 9.855 8.93333 10.0789 8.93333 10.355C8.93333 10.6311 9.15719 10.855 9.43333 10.855H9.75V11.3C9.75 11.5761 9.97386 11.8 10.25 11.8H7.81035C7.88625 11.7985 7.96295 11.7796 8.03458 11.7416C8.27844 11.612 8.37111 11.3093 8.24156 11.0654L7.13774 8.98765C7.82334 8.6757 8.3 7.98469 8.3 7.18235C8.3 6.08753 7.41247 5.2 6.31765 5.2H5C4.72386 5.2 4.5 5.42386 4.5 5.7V11.3C4.5 11.5761 4.72386 11.8 5 11.8L2.76167 11.8C2.09157 10.7989 1.70078 9.5951 1.70078 8.3C1.70078 4.82061 4.52139 2 8.00078 2C11.4802 2 14.3008 4.82061 14.3008 8.3Z" fill="white"/>
<path d="M7.79051 11.8L5 11.8C5.27614 11.8 5.5 11.5761 5.5 11.3V9.16471H6.09945L7.35844 11.5346C7.44663 11.7006 7.61504 11.7965 7.79051 11.8Z" fill="white"/>
<path d="M6.31765 8.16471H5.5V6.2H6.31765C6.86019 6.2 7.3 6.63981 7.3 7.18235C7.3 7.72489 6.86019 8.16471 6.31765 8.16471Z" fill="white"/>
<path d="M1.525 12.85C1.23505 12.85 1 13.0851 1 13.375C1 13.6649 1.23505 13.9 1.525 13.9H14.475C14.765 13.9 15 13.6649 15 13.375C15 13.0851 14.765 12.85 14.475 12.85H1.525Z" fill="white"/>
</svg>
