<svg width="16" height="16" viewBox="0 0 16 16" fill="none" xmlns="http://www.w3.org/2000/svg">
<path d="M7.99687 2C6.89076 2 5.80444 2.29413 4.84713 2.85244C3.88985 3.41073 3.09555 4.21335 2.54355 5.17913C1.99157 6.14489 1.70117 7.24001 1.70117 8.35449C1.70117 9.46896 1.99157 10.5641 2.54355 11.5298C2.68058 11.7696 2.98601 11.8529 3.22576 11.7158C3.46551 11.5788 3.54877 11.2734 3.41175 11.0336C2.94637 10.2194 2.70117 9.29536 2.70117 8.35449C2.70117 7.41361 2.94637 6.48959 3.41175 5.67535C3.87711 4.86115 4.54607 4.18566 5.35092 3.71627C6.15572 3.2469 7.06826 3 7.99687 3C8.92548 3 9.83802 3.2469 10.6428 3.71627C11.4477 4.18565 12.1166 4.86115 12.582 5.67535C13.0474 6.48959 13.2926 7.41361 13.2926 8.35449C13.2926 9.29536 13.0474 10.2194 12.582 11.0336C12.445 11.2734 12.5282 11.5788 12.768 11.7158C13.0077 11.8529 13.3132 11.7696 13.4502 11.5298C14.0022 10.5641 14.2926 9.46896 14.2926 8.35449C14.2926 7.24001 14.0022 6.14488 13.4502 5.17913C12.8982 4.21335 12.1039 3.41073 11.1466 2.85244C10.1893 2.29413 9.10298 2 7.99687 2Z" fill="white"/>
<path d="M1.5 12.9989C1.22386 12.9989 1 13.2228 1 13.4989C1 13.7751 1.22386 13.9989 1.5 13.9989H14.4964C14.7726 13.9989 14.9964 13.7751 14.9964 13.4989C14.9964 13.2228 14.7726 12.9989 14.4964 12.9989H1.5Z" fill="white"/>
<path d="M5 5.5C5.27614 5.5 5.5 5.72386 5.5 6V11.1H7.52C7.79614 11.1 8.02 11.3239 8.02 11.6C8.02 11.8761 7.79614 12.1 7.52 12.1H5.07C4.7552 12.1 4.5 11.8448 4.5 11.53V6C4.5 5.72386 4.72386 5.5 5 5.5Z" fill="white"/>
<path d="M11.09 6.5H9.28003V8.18799H11.09C11.3662 8.18799 11.59 8.41185 11.59 8.68799C11.59 8.96413 11.3662 9.18799 11.09 9.18799H9.28003V11.1H11.3C11.5762 11.1 11.8 11.3239 11.8 11.6C11.8 11.8761 11.5762 12.1 11.3 12.1H8.85003C8.53522 12.1 8.28003 11.8448 8.28003 11.53V6C8.28003 5.72386 8.50389 5.5 8.78003 5.5H11.09C11.3662 5.5 11.59 5.72386 11.59 6C11.59 6.27614 11.3662 6.5 11.09 6.5Z" fill="white"/>
</svg>
