<svg width="16" height="16" viewBox="0 0 16 16" fill="none" xmlns="http://www.w3.org/2000/svg">
<path d="M11.3258 2.22458C11.3258 1.93464 11.0907 1.69958 10.8008 1.69958C10.5108 1.69958 10.2758 1.93464 10.2758 2.22458V3.97459C10.2758 4.26453 10.5108 4.49959 10.8008 4.49959C11.0907 4.49959 11.3258 4.26453 11.3258 3.97459V2.22458Z" fill="white"/>
<path d="M8.52695 1.52537C8.52695 1.23542 8.2919 1.00037 8.00195 1.00037C7.712 1.00037 7.47695 1.23542 7.47695 1.52537V3.27537C7.47695 3.56532 7.712 3.80037 8.00195 3.80037C8.2919 3.80037 8.52695 3.56532 8.52695 3.27537V1.52537Z" fill="white"/>
<path d="M5.20117 1.69958C5.49112 1.69958 5.72617 1.93464 5.72617 2.22458V3.97459C5.72617 4.26453 5.49112 4.49959 5.20117 4.49959C4.91122 4.49959 4.67617 4.26453 4.67617 3.97459V2.22458C4.67617 1.93464 4.91122 1.69958 5.20117 1.69958Z" fill="white"/>
<path d="M7.1 9.49409H8.25294C8.77599 9.49409 9.2 9.07008 9.2 8.54703C9.2 8.02399 8.77599 7.59998 8.25294 7.59998H7.1V9.49409Z" fill="white"/>
<path fill-rule="evenodd" clip-rule="evenodd" d="M13.25 9.74998C13.25 12.6495 10.8995 15 8 15C5.10051 15 2.75 12.6495 2.75 9.74998C2.75 6.85048 5.10051 4.49998 8 4.49998C10.8995 4.49998 13.25 6.85048 13.25 9.74998ZM6.4 7.24998C6.4 7.05668 6.5567 6.89998 6.75 6.89998H8.25294C9.16259 6.89998 9.9 7.63739 9.9 8.54703C9.9 9.29099 9.40676 9.91973 8.72947 10.1241L9.84918 11.9683C9.94949 12.1336 9.89687 12.3488 9.73164 12.4492C9.56641 12.5495 9.35114 12.4968 9.25082 12.3316L7.95304 10.1941H7.1V12.15C7.1 12.3433 6.9433 12.5 6.75 12.5C6.5567 12.5 6.4 12.3433 6.4 12.15V7.24998Z" fill="white"/>
</svg>
