<svg width="16" height="16" viewBox="0 0 16 16" fill="none" xmlns="http://www.w3.org/2000/svg">
<path fill-rule="evenodd" clip-rule="evenodd" d="M13.2586 11.4717C13.9308 10.4787 14.3229 9.28459 14.3229 8C14.3229 4.54822 11.4922 1.75 8.00032 1.75C4.50845 1.75 1.67773 4.54822 1.67773 8C1.67773 9.28459 2.06978 10.4787 2.74205 11.4717H13.2586ZM7.91606 14.2495C7.9441 14.2498 7.97219 14.25 8.00032 14.25C8.02844 14.25 8.05653 14.2498 8.08457 14.2495H7.91606ZM4.66445 7.01671C4.66445 6.11214 5.4367 5.04434 6.69728 5.04434C7.09779 5.04434 7.442 5.19997 7.71481 5.38636C7.8157 5.4553 7.9107 5.53107 7.99949 5.60967C8.08827 5.53107 8.18327 5.4553 8.28417 5.38636C8.55698 5.19997 8.90119 5.04434 9.3017 5.04434C10.5623 5.04434 11.3345 6.11214 11.3345 7.01671C11.3345 7.71769 10.9758 8.34316 10.5652 8.85321C10.1492 9.37006 9.61991 9.84051 9.1697 10.2303L9.15752 10.2409C9.00682 10.3714 8.87524 10.4853 8.76295 10.5707C8.64941 10.657 8.51105 10.7497 8.34445 10.7986C8.10714 10.8683 7.89184 10.8683 7.65453 10.7986C7.48793 10.7497 7.34957 10.657 7.23603 10.5707C7.12374 10.4853 6.99216 10.3714 6.84146 10.2409L6.82928 10.2303C6.37907 9.84051 5.84983 9.37006 5.43375 8.85321C5.02315 8.34316 4.66445 7.71769 4.66445 7.01671ZM6.69728 6.09434C6.08903 6.09434 5.71445 6.61685 5.71445 7.01671C5.71445 7.3611 5.89617 7.7532 6.25165 8.19477C6.60165 8.62954 7.06415 9.04478 7.5166 9.43656C7.68306 9.58069 7.78911 9.67219 7.87145 9.73477C7.92525 9.77567 7.95086 9.78977 7.95695 9.79304C7.98479 9.80075 7.9962 9.80086 7.99949 9.80086C8.00278 9.80086 8.01419 9.80075 8.04203 9.79304C8.04812 9.78977 8.07373 9.77567 8.12753 9.73477C8.20987 9.67219 8.31592 9.58069 8.48237 9.43656C8.93483 9.04478 9.39733 8.62954 9.74733 8.19477C10.1028 7.75319 10.2845 7.3611 10.2845 7.01671C10.2845 6.61685 9.90995 6.09434 9.3017 6.09434C9.18035 6.09434 9.04072 6.14114 8.87652 6.25332C8.71133 6.36619 8.55019 6.52564 8.39562 6.70335C8.29591 6.81799 8.15142 6.88381 7.99949 6.88381C7.84755 6.88381 7.70307 6.81799 7.60336 6.70335C7.44879 6.52564 7.28764 6.36619 7.12246 6.25332C6.95826 6.14114 6.81862 6.09434 6.69728 6.09434ZM1.5 12.5352C1.22386 12.5352 1 12.759 1 13.0352C1 13.3113 1.22386 13.5352 1.5 13.5352H14.4964C14.7726 13.5352 14.9964 13.3113 14.9964 13.0352C14.9964 12.759 14.7726 12.5352 14.4964 12.5352H1.5Z" fill="white"/>
</svg>
