<svg width="16" height="16" viewBox="0 0 16 16" fill="none" xmlns="http://www.w3.org/2000/svg">
<path fill-rule="evenodd" clip-rule="evenodd" d="M7.99687 2C6.89076 2 5.80444 2.29413 4.84713 2.85244C3.88985 3.41073 3.09555 4.21335 2.54355 5.17913C1.99157 6.14489 1.70117 7.24001 1.70117 8.35449C1.70117 9.46896 1.99157 10.5641 2.54355 11.5298C2.68058 11.7696 2.98601 11.8529 3.22576 11.7158C3.46551 11.5788 3.54877 11.2734 3.41175 11.0336C2.94637 10.2194 2.70117 9.29536 2.70117 8.35449C2.70117 7.41361 2.94637 6.48959 3.41175 5.67535C3.87711 4.86115 4.54607 4.18566 5.35092 3.71627C6.15572 3.2469 7.06826 3 7.99687 3C8.92548 3 9.83802 3.2469 10.6428 3.71627C11.4477 4.18565 12.1166 4.86115 12.582 5.67535C13.0474 6.48959 13.2926 7.41361 13.2926 8.35449C13.2926 9.29536 13.0474 10.2194 12.582 11.0336C12.445 11.2734 12.5282 11.5788 12.768 11.7158C13.0077 11.8529 13.3132 11.7696 13.4502 11.5298C14.0022 10.5641 14.2926 9.46896 14.2926 8.35449C14.2926 7.24001 14.0022 6.14488 13.4502 5.17913C12.8982 4.21335 12.1039 3.41073 11.1466 2.85244C10.1893 2.29413 9.10298 2 7.99687 2ZM1.5 12.9989C1.22386 12.9989 1 13.2228 1 13.4989C1 13.7751 1.22386 13.9989 1.5 13.9989H14.4964C14.7726 13.9989 14.9964 13.7751 14.9964 13.4989C14.9964 13.2228 14.7726 12.9989 14.4964 12.9989H1.5Z" fill="white"/>
<path fill-rule="evenodd" clip-rule="evenodd" d="M6 5.5C6 5.22386 6.22386 5 6.5 5H8.075C9.22099 5 10.15 5.92901 10.15 7.075C10.15 7.94832 9.61048 8.69563 8.84657 9.00181L10.0858 11.2049C10.2212 11.4455 10.1358 11.7504 9.89513 11.8858C9.65445 12.0212 9.34959 11.9358 9.21421 11.6951L7.78258 9.15H7V11.45C7 11.7261 6.77614 11.95 6.5 11.95C6.22386 11.95 6 11.7261 6 11.45V5.5ZM8.06514 8.15H7H8.06514ZM8.08248 8.14997C8.67274 8.14595 9.15 7.66621 9.15 7.075C9.15 6.48129 8.66871 6 8.075 6H7V8.15" fill="white"/>
</svg>
