<svg width="16" height="16" viewBox="0 0 16 16" fill="none" xmlns="http://www.w3.org/2000/svg">
<path fill-rule="evenodd" clip-rule="evenodd" d="M11.3258 2.22458C11.3258 1.93464 11.0907 1.69958 10.8008 1.69958C10.5108 1.69958 10.2758 1.93464 10.2758 2.22458V3.97459C10.2758 4.26453 10.5108 4.49959 10.8008 4.49959C11.0907 4.49959 11.3258 4.26453 11.3258 3.97459V2.22458ZM8.52695 1.52537C8.52695 1.23542 8.2919 1.00037 8.00195 1.00037C7.712 1.00037 7.47695 1.23542 7.47695 1.52537V3.27537C7.47695 3.56532 7.712 3.80037 8.00195 3.80037C8.2919 3.80037 8.52695 3.56532 8.52695 3.27537V1.52537ZM5.20117 1.69958C5.49112 1.69958 5.72617 1.93464 5.72617 2.22458V3.97459C5.72617 4.26453 5.49112 4.49959 5.20117 4.49959C4.91122 4.49959 4.67617 4.26453 4.67617 3.97459V2.22458C4.67617 1.93464 4.91122 1.69958 5.20117 1.69958ZM8 15C10.8995 15 13.25 12.6495 13.25 9.74998C13.25 6.85048 10.8995 4.49998 8 4.49998C5.10051 4.49998 2.75 6.85048 2.75 9.74998C2.75 12.6495 5.10051 15 8 15ZM7.65 7.39998C7.4567 7.39998 7.3 7.55668 7.3 7.74998V11.95C7.3 12.1433 7.4567 12.3 7.65 12.3C7.8433 12.3 8 12.1433 8 11.95V10.3235H8.48961L9.44091 12.1142C9.5316 12.2849 9.7435 12.3498 9.9142 12.2591C10.0849 12.1684 10.1498 11.9565 10.0591 11.7858L9.21864 10.2037C9.7372 9.97917 10.1 9.46282 10.1 8.86174C10.1 8.05443 9.44554 7.39998 8.63823 7.39998H7.65ZM8.63824 9.6235H8V8.09998H8.63823C9.05895 8.09998 9.4 8.44103 9.4 8.86174C9.4 9.28245 9.05895 9.6235 8.63824 9.6235ZM6.25 7.39998C6.4433 7.39998 6.6 7.55668 6.6 7.74998V11.95C6.6 12.1433 6.4433 12.3 6.25 12.3C6.0567 12.3 5.9 12.1433 5.9 11.95V7.74998C5.9 7.55668 6.0567 7.39998 6.25 7.39998Z" fill="white"/>
</svg>
