<svg width="16" height="16" viewBox="0 0 16 16" fill="none" xmlns="http://www.w3.org/2000/svg">
<path d="M7.99971 1.99976C6.8929 1.99976 5.80587 2.29378 4.84791 2.85191C3.89 3.41001 3.09512 4.21239 2.54272 5.17793C1.99033 6.14344 1.69971 7.2383 1.69971 8.35253C1.69971 9.46676 1.99033 10.5616 2.54272 11.5271C2.68671 11.7788 3.00745 11.8661 3.25912 11.7221C3.51079 11.5781 3.59809 11.2574 3.4541 11.0057C2.99276 10.1993 2.74971 9.28428 2.74971 8.35253C2.74971 7.42078 2.99276 6.50571 3.4541 5.69935C3.91542 4.89302 4.57859 4.22403 5.3765 3.75915C6.17437 3.29429 7.07907 3.04976 7.99971 3.04976C8.92035 3.04976 9.82504 3.29429 10.6229 3.75915C11.4208 4.22403 12.084 4.89302 12.5453 5.69935C13.0066 6.50571 13.2497 7.42078 13.2497 8.35253C13.2497 9.28428 13.0066 10.1993 12.5453 11.0057C12.4013 11.2574 12.4886 11.5781 12.7403 11.7221C12.992 11.8661 13.3127 11.7788 13.4567 11.5271C14.0091 10.5616 14.2997 9.46675 14.2997 8.35253C14.2997 7.2383 14.0091 6.14344 13.4567 5.17793C12.9043 4.21239 12.1094 3.41001 11.1515 2.85191C10.1935 2.29378 9.10651 1.99976 7.99971 1.99976Z" fill="white"/>
<path d="M1.52549 12.949C1.23554 12.949 1.00049 13.1841 1.00049 13.474C1.00049 13.764 1.23554 13.999 1.52549 13.999H14.4755C14.7654 13.999 15.0005 13.764 15.0005 13.474C15.0005 13.1841 14.7654 12.949 14.4755 12.949H1.52549Z" fill="white"/>
<path fill-rule="evenodd" clip-rule="evenodd" d="M4.50012 5.69995C4.50012 5.42381 4.72398 5.19995 5.00012 5.19995H6.31777C7.41259 5.19995 8.30012 6.08748 8.30012 7.1823C8.30012 7.98464 7.82346 8.67566 7.13786 8.9876L8.24168 11.0654C8.37123 11.3092 8.27857 11.612 8.0347 11.7415C7.79083 11.8711 7.48812 11.7784 7.35856 11.5345L6.09957 9.16466H5.50012V11.3C5.50012 11.5761 5.27626 11.8 5.00012 11.8C4.72398 11.8 4.50012 11.5761 4.50012 11.3V5.69995ZM5.50012 8.16466H6.31777C6.86031 8.16466 7.30012 7.72484 7.30012 7.1823C7.30012 6.63977 6.86031 6.19995 6.31777 6.19995H5.50012V8.16466Z" fill="white"/>
<path d="M10.7501 5C10.7501 4.72386 10.5262 4.5 10.2501 4.5C9.97393 4.5 9.75007 4.72386 9.75007 5V5.52741C9.13937 5.73542 8.70007 6.31391 8.70007 6.995V7.1C8.70007 7.95604 9.39403 8.65 10.2501 8.65C10.5538 8.65 10.8001 8.89624 10.8001 9.2V9.305C10.8001 9.60876 10.5538 9.855 10.2501 9.855H9.43341C9.15726 9.855 8.93341 10.0789 8.93341 10.355C8.93341 10.6311 9.15726 10.855 9.43341 10.855H9.75007V11.3C9.75007 11.5761 9.97393 11.8 10.2501 11.8C10.5262 11.8 10.7501 11.5761 10.7501 11.3V10.7726C11.3608 10.5646 11.8001 9.98609 11.8001 9.305V9.2C11.8001 8.34396 11.1061 7.65 10.2501 7.65C9.94632 7.65 9.70007 7.40376 9.70007 7.1V6.995C9.70007 6.69124 9.94632 6.445 10.2501 6.445H11.0667C11.3429 6.445 11.5667 6.22114 11.5667 5.945C11.5667 5.66886 11.3429 5.445 11.0667 5.445H10.7501V5Z" fill="white"/>
</svg>
