<svg width="16" height="16" viewBox="0 0 16 16" fill="none" xmlns="http://www.w3.org/2000/svg">
<path fill-rule="evenodd" clip-rule="evenodd" d="M4.84719 2.85215C5.80449 2.29402 6.8908 2 7.99687 2C9.10295 2 10.1893 2.29402 11.1466 2.85215C12.1038 3.41025 12.8981 4.21262 13.4502 5.17812C14.0022 6.14359 14.2926 7.23841 14.2926 8.35258C14.2926 9.46676 14.0022 10.5616 13.4502 11.527C13.3131 11.7668 13.0076 11.85 12.7679 11.7129C12.5282 11.5759 12.445 11.2704 12.582 11.0307C13.0474 10.2168 13.2926 9.2931 13.2926 8.35258C13.2926 7.41207 13.0474 6.4884 12.582 5.67446C12.1167 4.86056 11.4477 4.18529 10.6429 3.71605C9.83807 3.24683 8.92551 3 7.99687 3C7.06823 3 6.15567 3.24683 5.35085 3.71605C4.54601 4.18529 3.87705 4.86056 3.41171 5.67446C2.94635 6.4884 2.70117 7.41207 2.70117 8.35258C2.70117 9.2931 2.94635 10.2168 3.41171 11.0307C3.54877 11.2704 3.46555 11.5759 3.22582 11.7129C2.98609 11.85 2.68065 11.7668 2.54359 11.527C1.99159 10.5616 1.70117 9.46676 1.70117 8.35258C1.70117 7.23841 1.99159 6.14359 2.54358 5.17812C3.0956 4.21262 3.88992 3.41025 4.84719 2.85215ZM1 13.495C1 13.2189 1.22386 12.995 1.5 12.995H14.4964C14.7726 12.995 14.9964 13.2189 14.9964 13.495C14.9964 13.7712 14.7726 13.995 14.4964 13.995H1.5C1.22386 13.995 1 13.7712 1 13.495ZM6.69532 5.36926C5.4407 5.36926 4.6875 6.45164 4.6875 7.34782C4.6875 8.04559 5.03617 8.67302 5.44345 9.19122C5.8553 9.71523 6.3801 10.193 6.82973 10.5909L6.8415 10.6013C6.99419 10.7365 7.12648 10.8535 7.23923 10.9411C7.35306 11.0294 7.49 11.1228 7.65464 11.1719C7.89042 11.2422 8.10466 11.2422 8.34044 11.1719C8.50507 11.1228 8.64202 11.0294 8.75584 10.9411C8.8686 10.8535 9.00088 10.7365 9.15356 10.6013L9.16534 10.5909C9.61497 10.193 10.1398 9.71523 10.5516 9.19122C10.9589 8.67302 11.3076 8.04559 11.3076 7.34782C11.3076 6.45164 10.5544 5.36926 9.29975 5.36926C8.90295 5.36926 8.56218 5.52674 8.29222 5.71516C8.18751 5.78824 8.08917 5.86895 7.99754 5.95267C7.9059 5.86895 7.80756 5.78824 7.70285 5.71516C7.43289 5.52674 7.09212 5.36926 6.69532 5.36926ZM5.6875 7.34782C5.6875 6.91147 6.08112 6.36926 6.69532 6.36926C6.82039 6.36926 6.96346 6.41858 7.13051 6.53518C7.29834 6.65231 7.46136 6.81729 7.61684 6.99989C7.71183 7.11146 7.851 7.17575 7.99754 7.17575C8.14407 7.17575 8.28324 7.11146 8.37824 6.99989C8.53371 6.81729 8.69674 6.65231 8.86456 6.53518C9.03161 6.41858 9.17468 6.36926 9.29975 6.36926C9.91396 6.36926 10.3076 6.91147 10.3076 7.34782C10.3076 7.71404 10.1198 8.12241 9.7654 8.57328C9.41561 9.01833 8.95361 9.44291 8.5026 9.84206C8.33475 9.99061 8.2268 10.0858 8.14266 10.1511C8.08181 10.1984 8.05476 10.2125 8.04999 10.215C8.01852 10.224 8.00392 10.2247 7.99754 10.2247C7.99115 10.2247 7.97657 10.2241 7.9451 10.215C7.94039 10.2125 7.91334 10.1984 7.85242 10.1511C7.76827 10.0858 7.66032 9.99061 7.49247 9.84206C7.04146 9.44291 6.57946 9.01833 6.22967 8.57328C5.87531 8.12241 5.6875 7.71404 5.6875 7.34782Z" fill="white"/>
</svg>
