<svg width="16" height="16" viewBox="0 0 16 16" fill="none" xmlns="http://www.w3.org/2000/svg">
<path d="M10.8007 1.69959C11.0906 1.69959 11.3257 1.93464 11.3257 2.22459V3.97459C11.3257 4.26453 11.0906 4.49959 10.8007 4.49959C10.5107 4.49959 10.2757 4.26453 10.2757 3.97459V2.22459C10.2757 1.93464 10.5107 1.69959 10.8007 1.69959Z" fill="white"/>
<path d="M8.00185 1.00037C8.2918 1.00037 8.52685 1.23542 8.52685 1.52537V3.27537C8.52685 3.56532 8.2918 3.80037 8.00185 3.80037C7.71191 3.80037 7.47685 3.56532 7.47685 3.27537V1.52537C7.47685 1.23542 7.71191 1.00037 8.00185 1.00037Z" fill="white"/>
<path d="M5.72607 2.22459C5.72607 1.93464 5.49102 1.69959 5.20107 1.69959C4.91112 1.69959 4.67607 1.93464 4.67607 2.22459V3.97459C4.67607 4.26453 4.91112 4.49959 5.20107 4.49959C5.49102 4.49959 5.72607 4.26453 5.72607 3.97459V2.22459Z" fill="white"/>
<path fill-rule="evenodd" clip-rule="evenodd" d="M6.7499 6.90002C6.5566 6.90002 6.3999 7.05672 6.3999 7.25002V12.15C6.3999 12.3433 6.5566 12.5 6.7499 12.5C6.9432 12.5 7.0999 12.3433 7.0999 12.15V10.1941H7.95294L9.25073 12.3317C9.35104 12.4969 9.56631 12.5495 9.73154 12.4492C9.89677 12.3489 9.9494 12.1336 9.84908 11.9684L8.72937 10.1242C9.40667 9.91978 9.8999 9.29103 9.8999 8.54708C9.8999 7.63744 9.16249 6.90002 8.25284 6.90002H6.7499ZM7.0999 9.49414V7.60002H8.25284C8.77589 7.60002 9.1999 8.02404 9.1999 8.54708C9.1999 9.07013 8.77589 9.49414 8.25284 9.49414H7.0999Z" fill="white"/>
<path fill-rule="evenodd" clip-rule="evenodd" d="M7.99951 4.50037C10.899 4.50037 13.2495 6.85087 13.2495 9.75037C13.2495 12.6499 10.899 15.0004 7.99951 15.0004C5.10002 15.0004 2.74951 12.6499 2.74951 9.75037C2.74951 6.85087 5.10002 4.50037 7.99951 4.50037ZM12.1995 9.75037C12.1995 7.43077 10.3191 5.55037 7.99951 5.55037C5.67992 5.55037 3.79951 7.43077 3.79951 9.75037C3.79951 12.07 5.67992 13.9504 7.99951 13.9504C10.3191 13.9504 12.1995 12.07 12.1995 9.75037Z" fill="white"/>
</svg>
