<svg width="16" height="16" viewBox="0 0 16 16" fill="none" xmlns="http://www.w3.org/2000/svg">
<path fill-rule="evenodd" clip-rule="evenodd" d="M11.3257 2.22459C11.3257 1.93464 11.0906 1.69959 10.8007 1.69959C10.5107 1.69959 10.2757 1.93464 10.2757 2.22459V3.97459C10.2757 4.26453 10.5107 4.49959 10.8007 4.49959C11.0906 4.49959 11.3257 4.26453 11.3257 3.97459V2.22459ZM8.52685 1.52537C8.52685 1.23542 8.2918 1.00037 8.00185 1.00037C7.71191 1.00037 7.47685 1.23542 7.47685 1.52537V3.27537C7.47685 3.56532 7.71191 3.80037 8.00185 3.80037C8.2918 3.80037 8.52685 3.56532 8.52685 3.27537V1.52537ZM5.20107 1.69959C5.49102 1.69959 5.72607 1.93464 5.72607 2.22459V3.97459C5.72607 4.26453 5.49102 4.49959 5.20107 4.49959C4.91112 4.49959 4.67607 4.26453 4.67607 3.97459V2.22459C4.67607 1.93464 4.91112 1.69959 5.20107 1.69959ZM7.99951 5.55037C10.3191 5.55037 12.1995 7.43077 12.1995 9.75037C12.1995 12.07 10.3191 13.9504 7.99951 13.9504C5.67992 13.9504 3.79951 12.07 3.79951 9.75037C3.79951 7.43077 5.67992 5.55037 7.99951 5.55037ZM13.2495 9.75037C13.2495 6.85087 10.899 4.50037 7.99951 4.50037C5.10002 4.50037 2.74951 6.85087 2.74951 9.75037C2.74951 12.6499 5.10002 15.0004 7.99951 15.0004C10.899 15.0004 13.2495 12.6499 13.2495 9.75037Z" fill="white"/>
<path fill-rule="evenodd" clip-rule="evenodd" d="M7.2999 7.74998C7.2999 7.55668 7.4566 7.39998 7.6499 7.39998H8.63814C9.44545 7.39998 10.0999 8.05443 10.0999 8.86174C10.0999 9.46282 9.7371 9.97917 9.21854 10.2037L10.059 11.7858C10.1497 11.9565 10.0848 12.1684 9.91411 12.2591C9.7434 12.3498 9.5315 12.2849 9.44081 12.1142L8.48952 10.3235H7.9999V11.95C7.9999 12.1433 7.8432 12.3 7.6499 12.3C7.4566 12.3 7.2999 12.1433 7.2999 11.95V7.74998ZM7.9999 9.6235H8.63814C9.05885 9.6235 9.3999 9.28245 9.3999 8.86174C9.3999 8.44103 9.05885 8.09998 8.63814 8.09998H7.9999V9.6235Z" fill="white"/>
<path fill-rule="evenodd" clip-rule="evenodd" d="M6.2499 7.39998C6.4432 7.39998 6.5999 7.55668 6.5999 7.74998V11.95C6.5999 12.1433 6.4432 12.3 6.2499 12.3C6.0566 12.3 5.8999 12.1433 5.8999 11.95V7.74998C5.8999 7.55668 6.0566 7.39998 6.2499 7.39998Z" fill="white"/>
</svg>
