<svg width="16" height="16" viewBox="0 0 16 16" fill="none" xmlns="http://www.w3.org/2000/svg">
<path fill-rule="evenodd" clip-rule="evenodd" d="M4.84927 2.85235C5.80663 2.2941 6.893 2 7.99915 2C9.1053 2 10.1917 2.2941 11.149 2.85235C12.1063 3.41059 12.9007 4.21313 13.4527 5.17884C14.0048 6.14452 14.2952 7.23956 14.2952 8.35396C14.2952 9.46836 14.0048 10.5634 13.4527 11.5291C13.3157 11.7688 13.0103 11.8521 12.7705 11.715C12.5308 11.578 12.4475 11.2725 12.5846 11.0328C13.05 10.2187 13.2952 9.29473 13.2952 8.35396C13.2952 7.41319 13.05 6.48927 12.5846 5.67512C12.1192 4.861 11.4502 4.18556 10.6453 3.71621C9.84044 3.24688 8.92783 3 7.99915 3C7.07047 3 6.15786 3.24688 5.353 3.71621C4.54811 4.18556 3.87911 4.861 3.41373 5.67512C2.94833 6.48927 2.70312 7.41319 2.70312 8.35396C2.70313 9.29473 2.94833 10.2187 3.41373 11.0328C3.55077 11.2725 3.46752 11.578 3.22778 11.715C2.98805 11.8521 2.68261 11.7688 2.54556 11.5291C1.99355 10.5634 1.70313 9.46836 1.70312 8.35396C1.70312 7.23956 1.99355 6.14452 2.54556 5.17884C3.0976 4.21314 3.89195 3.41059 4.84927 2.85235ZM7.49893 4.62919C7.49893 4.35305 7.72278 4.12919 7.99893 4.12919C8.54964 4.12919 9.09485 4.23875 9.60338 4.4515C10.1119 4.66423 10.5736 4.97592 10.9623 5.3685C11.351 5.76107 11.6591 6.22685 11.8692 6.73913C12.0792 7.25139 12.1873 7.80026 12.1873 8.35444C12.1873 8.63058 11.9634 8.85444 11.6873 8.85444C11.4112 8.85444 11.1873 8.63058 11.1873 8.35444C11.1873 7.93021 11.1046 7.51024 10.9439 7.11857C10.7833 6.7269 10.548 6.37135 10.2517 6.07208C9.9554 5.77282 9.60391 5.5357 9.21744 5.37402C8.83097 5.21234 8.41693 5.12919 7.99893 5.12919C7.72278 5.12919 7.49893 4.90533 7.49893 4.62919ZM1.5 12.9989C1.22386 12.9989 1 13.2227 1 13.4989C1 13.775 1.22386 13.9989 1.5 13.9989H14.4971C14.7733 13.9989 14.9971 13.775 14.9971 13.4989C14.9971 13.2227 14.7733 12.9989 14.4971 12.9989H1.5Z" fill="white"/>
</svg>
