<svg width="16" height="16" viewBox="0 0 16 16" fill="none" xmlns="http://www.w3.org/2000/svg">
<path d="M7.99971 1.99985C6.8929 1.99985 5.80587 2.29387 4.84791 2.852C3.89 3.4101 3.09512 4.21249 2.54272 5.17802C1.99033 6.14353 1.69971 7.23839 1.69971 8.35262C1.69971 9.46685 1.99033 10.5617 2.54272 11.5272C2.68671 11.7789 3.00745 11.8662 3.25912 11.7222C3.51079 11.5782 3.59809 11.2575 3.4541 11.0058C2.99276 10.1994 2.74971 9.28437 2.74971 8.35262C2.74971 7.42087 2.99276 6.50581 3.4541 5.69944C3.91542 4.89312 4.57859 4.22412 5.3765 3.75924C6.17437 3.29438 7.07907 3.04985 7.99971 3.04985C8.92035 3.04985 9.82504 3.29438 10.6229 3.75924C11.4208 4.22412 12.084 4.89312 12.5453 5.69944C13.0066 6.50581 13.2497 7.42087 13.2497 8.35262C13.2497 9.28437 13.0066 10.1994 12.5453 11.0058C12.4013 11.2575 12.4886 11.5782 12.7403 11.7222C12.992 11.8662 13.3127 11.7789 13.4567 11.5272C14.0091 10.5617 14.2997 9.46685 14.2997 8.35262C14.2997 7.23839 14.0091 6.14353 13.4567 5.17802C12.9043 4.21248 12.1094 3.4101 11.1515 2.852C10.1935 2.29387 9.10651 1.99985 7.99971 1.99985Z" fill="white"/>
<path d="M1.52549 12.9491C1.23554 12.9491 1.00049 13.1842 1.00049 13.4741C1.00049 13.7641 1.23554 13.9991 1.52549 13.9991H14.4755C14.7654 13.9991 15.0005 13.7641 15.0005 13.4741C15.0005 13.1842 14.7654 12.9491 14.4755 12.9491H1.52549Z" fill="white"/>
<path d="M8.50024 9.10385H9.96016C10.2363 9.10385 10.4602 8.87999 10.4602 8.60385C10.4602 8.32771 10.2363 8.10385 9.96016 8.10385H8.9258L10.5184 5.67415C10.6698 5.4432 10.6053 5.13326 10.3743 4.98188C10.1433 4.8305 9.83341 4.895 9.68203 5.12595L8.0002 7.69181L6.31838 5.12595C6.167 4.895 5.85706 4.8305 5.62611 4.98188C5.39515 5.13326 5.33065 5.4432 5.48203 5.67415L7.07461 8.10385H6.04016C5.76402 8.10385 5.54016 8.32771 5.54016 8.60385C5.54016 8.87999 5.76402 9.10385 6.04016 9.10385H7.50024V9.93466H6.04016C5.76402 9.93466 5.54016 10.1585 5.54016 10.4347C5.54016 10.7108 5.76402 10.9347 6.04016 10.9347H7.50024V11.35C7.50024 11.6261 7.7241 11.85 8.00024 11.85C8.27639 11.85 8.50024 11.6261 8.50024 11.35V10.9347H9.96016C10.2363 10.9347 10.4602 10.7108 10.4602 10.4347C10.4602 10.1585 10.2363 9.93466 9.96016 9.93466H8.50024V9.10385Z" fill="white"/>
</svg>
