<svg width="16" height="16" viewBox="0 0 16 16" fill="none" xmlns="http://www.w3.org/2000/svg">
<path fill-rule="evenodd" clip-rule="evenodd" d="M11.3258 2.22462C11.3258 1.93467 11.0907 1.69962 10.8008 1.69962C10.5108 1.69962 10.2758 1.93467 10.2758 2.22462V3.97462C10.2758 4.26456 10.5108 4.49962 10.8008 4.49962C11.0907 4.49962 11.3258 4.26456 11.3258 3.97462V2.22462ZM8.52695 1.5254C8.52695 1.23545 8.2919 1.0004 8.00195 1.0004C7.712 1.0004 7.47695 1.23545 7.47695 1.5254V3.2754C7.47695 3.56535 7.712 3.8004 8.00195 3.8004C8.2919 3.8004 8.52695 3.56535 8.52695 3.2754V1.5254ZM5.20117 1.69962C5.49112 1.69962 5.72617 1.93467 5.72617 2.22462V3.97462C5.72617 4.26456 5.49112 4.49962 5.20117 4.49962C4.91122 4.49962 4.67617 4.26456 4.67617 3.97462V2.22462C4.67617 1.93467 4.91122 1.69962 5.20117 1.69962ZM13.25 9.75001C13.25 12.6495 10.8995 15 8 15C5.10051 15 2.75 12.6495 2.75 9.75001C2.75 6.85051 5.10051 4.50001 8 4.50001C10.8995 4.50001 13.25 6.85051 13.25 9.75001ZM6.77422 7.12501C6.77422 6.93171 6.93092 6.77501 7.12422 6.77501H8.61172C9.52989 6.77501 10.2742 7.51933 10.2742 8.43751C10.2742 9.35568 9.52989 10.1 8.61172 10.1H7.47422V11.15H8.87422C9.06752 11.15 9.22422 11.3067 9.22422 11.5C9.22422 11.6933 9.06752 11.85 8.87422 11.85H7.47422V12.55C7.47422 12.7433 7.31752 12.9 7.12422 12.9C6.93092 12.9 6.77422 12.7433 6.77422 12.55V11.85H6.07422C5.88092 11.85 5.72422 11.6933 5.72422 11.5C5.72422 11.3067 5.88092 11.15 6.07422 11.15H6.77422V10.1H6.07422C5.88092 10.1 5.72422 9.94331 5.72422 9.75001C5.72422 9.55671 5.88092 9.40001 6.07422 9.40001H6.77422V7.12501ZM7.47422 9.40001H8.61172C9.14329 9.40001 9.57422 8.96908 9.57422 8.43751C9.57422 7.90593 9.14329 7.47501 8.61172 7.47501H7.47422V9.40001Z" fill="white"/>
</svg>
