<svg width="16" height="16" viewBox="0 0 16 16" fill="none" xmlns="http://www.w3.org/2000/svg">
<path fill-rule="evenodd" clip-rule="evenodd" d="M7.99687 2C6.89076 2 5.80444 2.29413 4.84713 2.85244C3.88985 3.41073 3.09555 4.21335 2.54355 5.17913C1.99157 6.14489 1.70117 7.24001 1.70117 8.35449C1.70117 9.46896 1.99157 10.5641 2.54355 11.5298C2.68058 11.7696 2.98601 11.8529 3.22576 11.7158C3.46551 11.5788 3.54877 11.2734 3.41175 11.0336C2.94637 10.2194 2.70117 9.29536 2.70117 8.35449C2.70117 7.41361 2.94637 6.48959 3.41175 5.67535C3.87711 4.86115 4.54607 4.18566 5.35092 3.71627C6.15572 3.2469 7.06826 3 7.99687 3C8.92548 3 9.83802 3.2469 10.6428 3.71627C11.4477 4.18565 12.1166 4.86115 12.582 5.67535C13.0474 6.48959 13.2926 7.41361 13.2926 8.35449C13.2926 9.29536 13.0474 10.2194 12.582 11.0336C12.445 11.2734 12.5282 11.5788 12.768 11.7158C13.0077 11.8529 13.3132 11.7696 13.4502 11.5298C14.0022 10.5641 14.2926 9.46896 14.2926 8.35449C14.2926 7.24001 14.0022 6.14488 13.4502 5.17913C12.8982 4.21335 12.1039 3.41073 11.1466 2.85244C10.1893 2.29413 9.10298 2 7.99687 2ZM1.5 12.9989C1.22386 12.9989 1 13.2228 1 13.4989C1 13.7751 1.22386 13.9989 1.5 13.9989H14.4964C14.7726 13.9989 14.9964 13.7751 14.9964 13.4989C14.9964 13.2228 14.7726 12.9989 14.4964 12.9989H1.5ZM8.83337 5.5C9.10952 5.5 9.33337 5.72386 9.33337 6V8.18799H11V6C11 5.72386 11.2239 5.5 11.5 5.5C11.7761 5.5 12 5.72386 12 6V11.6C12 11.8761 11.7761 12.1 11.5 12.1C11.2239 12.1 11 11.8761 11 11.6V9.18799H9.33337V11.6C9.33337 11.8761 9.10952 12.1 8.83337 12.1C8.55723 12.1 8.33337 11.8761 8.33337 11.6V6C8.33337 5.72386 8.55723 5.5 8.83337 5.5ZM4.5 5.5C4.22386 5.5 4 5.72386 4 6V11.6C4 11.8761 4.22386 12.1 4.5 12.1H5.4C6.83594 12.1 8 10.9359 8 9.5V8.1C8 6.66406 6.83594 5.5 5.4 5.5H4.5ZM5 11.1V6.5H5.4C6.28366 6.5 7 7.21634 7 8.1V9.5C7 10.3837 6.28366 11.1 5.4 11.1H5Z" fill="white"/>
</svg>
