<svg width="16" height="16" viewBox="0 0 16 16" fill="none" xmlns="http://www.w3.org/2000/svg">
<path d="M10.8007 1.6998C11.0906 1.6998 11.3257 1.93485 11.3257 2.2248V3.9748C11.3257 4.26475 11.0906 4.4998 10.8007 4.4998C10.5107 4.4998 10.2757 4.26475 10.2757 3.9748V2.2248C10.2757 1.93485 10.5107 1.6998 10.8007 1.6998Z" fill="white"/>
<path d="M8.00185 1.00058C8.2918 1.00058 8.52685 1.23563 8.52685 1.52558V3.27558C8.52685 3.56553 8.2918 3.80058 8.00185 3.80058C7.71191 3.80058 7.47685 3.56553 7.47685 3.27558V1.52558C7.47685 1.23563 7.71191 1.00058 8.00185 1.00058Z" fill="white"/>
<path d="M5.72607 2.2248C5.72607 1.93485 5.49102 1.6998 5.20107 1.6998C4.91112 1.6998 4.67607 1.93485 4.67607 2.2248V3.9748C4.67607 4.26475 4.91112 4.4998 5.20107 4.4998C5.49102 4.4998 5.72607 4.26475 5.72607 3.9748V2.2248Z" fill="white"/>
<path fill-rule="evenodd" clip-rule="evenodd" d="M6.19985 7.39999C6.00655 7.39999 5.84985 7.55669 5.84985 7.74999V11.6C5.84985 11.7933 6.00655 11.95 6.19985 11.95H7.32559C8.0567 11.95 8.64687 11.3526 8.63799 10.6215C8.63194 10.124 8.34969 9.69396 7.9381 9.4764C8.09237 9.26122 8.18319 8.99746 8.18319 8.71249C8.18319 7.98762 7.59556 7.39999 6.87069 7.39999H6.19985ZM6.54985 11.25V10.025H7.32559C7.66096 10.025 7.93397 10.2947 7.93804 10.6301C7.94219 10.9712 7.66677 11.25 7.32559 11.25H6.54985ZM6.87069 9.32499H6.54985V8.09999H6.87069C7.20896 8.09999 7.48319 8.37422 7.48319 8.71249C7.48319 9.05077 7.20896 9.32499 6.87069 9.32499Z" fill="white"/>
<path d="M10.3998 9.91176C9.94881 9.91176 9.58318 10.2774 9.58318 10.7284V11.6C9.58318 11.7933 9.42648 11.95 9.23318 11.95C9.03988 11.95 8.88318 11.7933 8.88318 11.6V10.7284C8.88318 10.7169 8.88331 10.7055 8.88356 10.6941L8.88313 9.44848C8.88313 9.25518 9.03983 9.09848 9.23313 9.09848C9.42643 9.09848 9.58313 9.25518 9.58313 9.44848V9.45022C9.81888 9.29927 10.0991 9.21176 10.3998 9.21176C10.5931 9.21176 10.7498 9.36846 10.7498 9.56176C10.7498 9.75506 10.5931 9.91176 10.3998 9.91176Z" fill="white"/>
<path fill-rule="evenodd" clip-rule="evenodd" d="M7.99951 4.50058C10.899 4.50058 13.2495 6.85109 13.2495 9.75058C13.2495 12.6501 10.899 15.0006 7.99951 15.0006C5.10002 15.0006 2.74951 12.6501 2.74951 9.75058C2.74951 6.85109 5.10002 4.50058 7.99951 4.50058ZM12.1995 9.75058C12.1995 7.43098 10.3191 5.55058 7.99951 5.55058C5.67992 5.55058 3.79951 7.43098 3.79951 9.75058C3.79951 12.0702 5.67992 13.9506 7.99951 13.9506C10.3191 13.9506 12.1995 12.0702 12.1995 9.75058Z" fill="white"/>
</svg>
