<svg width="16" height="16" viewBox="0 0 16 16" fill="none" xmlns="http://www.w3.org/2000/svg">
<path fill-rule="evenodd" clip-rule="evenodd" d="M8 1.04199C10.4139 1.04199 12.375 3.00314 12.375 5.41699C12.375 5.80146 12.3232 6.17591 12.2295 6.53223C13.8256 7.18255 14.9579 8.75399 14.958 10.583C14.958 12.9969 12.9969 14.958 10.583 14.958C9.61499 14.9579 8.72153 14.6429 7.99805 14.1074C7.27519 14.6421 6.38404 14.9579 5.41699 14.958C3.00314 14.958 1.04199 12.9969 1.04199 10.583C1.04215 8.7542 2.17369 7.18268 3.76953 6.53223C3.67587 6.17598 3.62502 5.80138 3.625 5.41699C3.625 3.00314 5.58615 1.04199 8 1.04199ZM4.13281 7.46289C2.90953 7.96788 2.04215 9.17884 2.04199 10.583C2.04199 12.4446 3.55543 13.958 5.41699 13.958C6.28193 13.9579 7.06656 13.6331 7.66211 13.0947C7.6641 13.0929 7.66594 13.0907 7.66797 13.0889C7.8406 12.9359 7.99703 12.7649 8.13477 12.5791C8.16909 12.5328 8.20243 12.4857 8.23438 12.4375C8.29849 12.3409 8.35811 12.241 8.41211 12.1377C8.46607 12.0344 8.51446 11.9277 8.55762 11.8184C8.60313 11.7032 8.64206 11.5848 8.6748 11.4639C8.75074 11.183 8.79199 10.8875 8.79199 10.583C8.79196 10.2956 8.75201 10.0167 8.68457 9.75098C8.68342 9.74646 8.68281 9.74182 8.68164 9.7373C8.67923 9.73768 8.67624 9.73693 8.67383 9.7373C8.45338 9.77152 8.2286 9.79199 8 9.79199C7.90333 9.79199 7.80728 9.78832 7.71191 9.78223C7.41581 9.7638 7.12662 9.71557 6.84766 9.6377C6.80817 9.62691 6.7695 9.61439 6.73047 9.60254C6.68931 9.59004 6.64806 9.57811 6.60742 9.56445C6.58211 9.55594 6.55733 9.54607 6.53223 9.53711C6.48732 9.52109 6.44265 9.50473 6.39844 9.4873C6.35477 9.47009 6.31152 9.45215 6.26855 9.43359C6.23653 9.41977 6.20447 9.40616 6.17285 9.3916C6.13339 9.37342 6.09448 9.35427 6.05566 9.33496C6.02225 9.31835 5.98897 9.30161 5.95605 9.28418C5.92022 9.2652 5.88484 9.24552 5.84961 9.22559C5.8121 9.20437 5.77509 9.18243 5.73828 9.16016C5.70409 9.13945 5.67028 9.11828 5.63672 9.09668C5.61301 9.08143 5.5898 9.0655 5.56641 9.0498C5.52453 9.0217 5.48223 8.99433 5.44141 8.96484C5.40993 8.94212 5.37947 8.91806 5.34863 8.89453C5.30163 8.85865 5.25543 8.82189 5.20996 8.78418C5.16674 8.74835 5.12382 8.71224 5.08203 8.6748C5.0719 8.66573 5.0618 8.65663 5.05176 8.64746C5.00327 8.60321 4.95563 8.55808 4.90918 8.51172C4.8849 8.48747 4.8616 8.46231 4.83789 8.4375C4.80909 8.40737 4.77989 8.37762 4.75195 8.34668C4.7269 8.31892 4.70306 8.29011 4.67871 8.26172C4.64756 8.2254 4.61688 8.18871 4.58691 8.15137C4.57065 8.1311 4.55497 8.11041 4.53906 8.08984C4.5052 8.04608 4.47167 8.00209 4.43945 7.95703C4.42302 7.93404 4.40662 7.91102 4.39062 7.8877C4.36071 7.84408 4.33207 7.79962 4.30371 7.75488C4.29008 7.73338 4.27596 7.71219 4.2627 7.69043C4.23469 7.64451 4.20798 7.5978 4.18164 7.55078C4.16527 7.52156 4.14853 7.49253 4.13281 7.46289ZM11.8662 7.46289C11.8133 7.56265 11.7565 7.6599 11.6963 7.75488C11.6797 7.78113 11.6627 7.80714 11.6455 7.83301C11.6196 7.87201 11.5925 7.91013 11.5654 7.94824C11.5647 7.94926 11.5652 7.95113 11.5645 7.95215C11.511 8.02712 11.4544 8.09955 11.3965 8.1709C11.3717 8.20143 11.3469 8.23187 11.3213 8.26172C11.2892 8.2992 11.256 8.33571 11.2227 8.37207C11.2082 8.38786 11.1934 8.40337 11.1787 8.41895C11.1439 8.45578 11.1093 8.49271 11.0732 8.52832C11.0323 8.56878 10.9908 8.60863 10.9482 8.64746C10.9257 8.66801 10.9018 8.68695 10.8789 8.70703C10.8412 8.74005 10.8035 8.77296 10.7646 8.80469C10.735 8.82888 10.7051 8.85255 10.6748 8.87598C10.6502 8.89503 10.6256 8.91408 10.6006 8.93262C10.5674 8.95719 10.5339 8.98123 10.5 9.00488C10.4441 9.04393 10.3879 9.08268 10.3301 9.11914C10.3162 9.12786 10.302 9.13596 10.2881 9.14453C10.2381 9.17531 10.1871 9.20459 10.1357 9.2334C10.107 9.2495 10.0779 9.2648 10.0488 9.28027C10.0141 9.29872 9.97958 9.31743 9.94434 9.33496C9.90942 9.35233 9.87431 9.36928 9.83887 9.38574C9.77579 9.41503 9.71214 9.44338 9.64746 9.46973C9.69321 9.64407 9.72879 9.82271 9.75293 10.0049C9.75463 10.0175 9.75525 10.0303 9.75684 10.043C9.7654 10.1122 9.77206 10.1818 9.77734 10.252C9.77939 10.2786 9.78164 10.3053 9.7832 10.332C9.78795 10.4152 9.79198 10.4988 9.79199 10.583C9.79199 10.6569 9.78882 10.7306 9.78516 10.8037C9.78384 10.8301 9.78206 10.8565 9.78027 10.8828C9.77691 10.9322 9.77356 10.9814 9.76855 11.0303C9.76666 11.0489 9.76385 11.0674 9.76172 11.0859C9.74698 11.2137 9.72675 11.3396 9.70117 11.4639C9.69561 11.491 9.68966 11.518 9.68359 11.5449C9.65259 11.6822 9.61591 11.8171 9.57227 11.9492C9.56159 11.9816 9.55047 12.0138 9.53906 12.0459C9.52842 12.0757 9.51713 12.1052 9.50586 12.1348C9.32718 12.6045 9.06973 13.0349 8.74902 13.4102C9.27626 13.7564 9.90431 13.9579 10.583 13.958C12.4446 13.958 13.958 12.4446 13.958 10.583C13.9579 9.17841 13.0901 7.9676 11.8662 7.46289ZM8 2.04199C6.13843 2.04199 4.625 3.55543 4.625 5.41699C4.62503 5.85662 4.70998 6.27899 4.86133 6.66016C4.9791 6.95703 5.13834 7.23285 5.33105 7.48145C5.7338 8.00095 6.28481 8.40012 6.9209 8.61523L7.11133 8.67383L7.11426 8.6748C7.3902 8.75204 7.68746 8.79099 8 8.79102C8.23449 8.79099 8.46016 8.76916 8.6748 8.72559L8.88574 8.6748L8.88867 8.67383C9.91749 8.3927 10.7505 7.63859 11.1387 6.66016C11.29 6.27899 11.375 5.85662 11.375 5.41699C11.375 3.55543 9.86157 2.04199 8 2.04199Z" fill="white"/>
</svg>
