<svg width="16" height="16" viewBox="0 0 16 16" fill="none" xmlns="http://www.w3.org/2000/svg">
<path d="M2.68848 7.26855C2.86217 7.1464 3.09761 7.22942 3.19141 7.41992C3.8521 8.76294 5.06774 9.76903 6.51367 10.1611C6.95467 10.2871 7.41739 10.3496 7.90039 10.3496C8.24118 10.3496 8.56754 10.3173 8.88477 10.2578C9.08657 10.22 9.28792 10.3496 9.29688 10.5547C9.29898 10.6033 9.2998 10.6522 9.2998 10.7002C9.29975 11.9391 8.7613 13.0593 7.90039 13.8223C7.15839 14.4943 6.17761 14.9004 5.09961 14.9004C2.78286 14.9002 0.900496 13.017 0.900391 10.7002C0.900391 9.28307 1.60971 8.02742 2.68848 7.26855Z" fill="white"/>
<path d="M12.6084 7.4209C12.7021 7.23014 12.9375 7.14637 13.1113 7.26855C14.1901 8.02742 14.9004 9.28307 14.9004 10.7002C14.9003 13.017 13.017 14.9003 10.7002 14.9004C10.1791 14.9004 9.6775 14.805 9.2168 14.6299C8.99372 14.5451 8.95212 14.2593 9.10742 14.0781C9.90667 13.1455 10.3496 11.9502 10.3496 10.7002C10.3496 10.4622 10.3289 10.224 10.2939 10C10.2731 9.87099 10.3389 9.74406 10.4531 9.68066C11.3799 9.16762 12.1367 8.38132 12.6084 7.4209Z" fill="white"/>
<path d="M7.90039 0.900391C10.2171 0.900629 12.0994 2.78295 12.0996 5.09961C12.0996 5.64561 11.9947 6.17146 11.8057 6.64746C11.3226 7.86523 10.2867 8.80337 9.00586 9.15332C8.65604 9.25125 8.28517 9.29977 7.90039 9.2998C7.51542 9.2998 7.14392 9.25131 6.79395 9.15332C5.5131 8.80336 4.47722 7.86525 3.99414 6.64746C3.80514 6.17146 3.7002 5.64561 3.7002 5.09961C3.70042 2.7828 5.58353 0.900391 7.90039 0.900391Z" fill="white"/>
</svg>
