<svg width="16" height="16" viewBox="0 0 16 16" fill="none" xmlns="http://www.w3.org/2000/svg">
<path fill-rule="evenodd" clip-rule="evenodd" d="M3.82689 1H4.8547C5.0009 1.43592 5.4127 1.75 5.89785 1.75H10.0979C10.583 1.75 10.9948 1.43592 11.141 1H12.1688C12.0022 1.9932 11.1384 2.75 10.0979 2.75H5.89785C4.8573 2.75 3.99351 1.9932 3.82689 1ZM5.89785 4.79971H10.0979C10.7054 4.79971 11.1979 5.29219 11.1979 5.89971V10.0997C11.1979 10.7072 10.7054 11.1997 10.0979 11.1997H5.89785C5.29034 11.1997 4.79785 10.7072 4.79785 10.0997V5.89971C4.79785 5.29219 5.29034 4.79971 5.89785 4.79971ZM3.79785 5.89971C3.79785 4.73991 4.73805 3.79971 5.89785 3.79971H10.0979C11.2576 3.79971 12.1979 4.73991 12.1979 5.89971V10.0997C12.1979 11.2595 11.2576 12.1997 10.0979 12.1997H5.89785C4.73805 12.1997 3.79785 11.2595 3.79785 10.0997V5.89971ZM5.89785 14.2499H10.0979C10.583 14.2499 10.9948 14.564 11.141 14.9999H12.1688C12.0022 14.0067 11.1384 13.2499 10.0979 13.2499H5.89785C4.8573 13.2499 3.99351 14.0067 3.82689 14.9999H4.8547C5.0009 14.564 5.4127 14.2499 5.89785 14.2499ZM10.1631 6.70206C10.3163 6.47229 10.2542 6.16186 10.0244 6.00868C9.79466 5.85551 9.48422 5.91759 9.33105 6.14736L7.61034 8.72841L6.6375 7.51236C6.465 7.29673 6.15035 7.26177 5.93472 7.43427C5.71909 7.60678 5.68413 7.92142 5.85664 8.13705L7.13703 9.73755C7.40762 10.0758 7.92903 10.0532 8.1693 9.69275L10.1631 6.70206Z" fill="white"/>
</svg>
