<svg width="16" height="16" viewBox="0 0 16 16" fill="none" xmlns="http://www.w3.org/2000/svg">
<path fill-rule="evenodd" clip-rule="evenodd" d="M3.82591 1H4.85373C4.99993 1.43592 5.41172 1.75 5.89687 1.75H10.0969C10.582 1.75 10.9938 1.43592 11.14 1H12.1678C12.0012 1.9932 11.1374 2.75 10.0969 2.75H5.89687C4.85633 2.75 3.99254 1.9932 3.82591 1ZM5.89687 4.79971H10.0969C10.241 4.79971 10.3787 4.82743 10.5048 4.87783L7.18486 8.19778L6.63653 7.51236C6.46402 7.29673 6.14938 7.26177 5.93375 7.43427C5.71811 7.60678 5.68315 7.92142 5.85566 8.13705L6.4734 8.90924L4.875 10.5076C4.8246 10.3815 4.79687 10.2438 4.79687 10.0997V5.89971C4.79687 5.29219 5.28936 4.79971 5.89687 4.79971ZM4.13688 11.2458C3.92185 10.9162 3.79687 10.5226 3.79687 10.0997V5.89971C3.79687 4.73991 4.73708 3.79971 5.89687 3.79971H10.0969C10.5197 3.79971 10.9134 3.92468 11.2429 4.13971L13.7363 1.64635C13.9316 1.45109 14.2481 1.45109 14.4434 1.64635C14.6387 1.84161 14.6387 2.15819 14.4434 2.35346L2.564 14.2328C2.36874 14.4281 2.05216 14.4281 1.8569 14.2328C1.66163 14.0376 1.66163 13.721 1.8569 13.5257L4.13688 11.2458ZM10.0969 11.1997H7.0073L6.0073 12.1997H10.0969C11.2567 12.1997 12.1969 11.2595 12.1969 10.0997V6.01013L11.1969 7.01013V10.0997C11.1969 10.7072 10.7044 11.1997 10.0969 11.1997ZM5.89687 14.2499H10.0969C10.582 14.2499 10.9938 14.564 11.14 14.9999H12.1678C12.0012 14.0067 11.1374 13.2499 10.0969 13.2499H5.89687C4.85633 13.2499 3.99254 14.0067 3.82591 14.9999H4.85373C4.99993 14.564 5.41172 14.2499 5.89687 14.2499Z" fill="white"/>
</svg>
