<svg width="16" height="16" viewBox="0 0 16 16" fill="none" xmlns="http://www.w3.org/2000/svg">
<path fill-rule="evenodd" clip-rule="evenodd" d="M3.82591 1H4.85373C4.99993 1.43592 5.41172 1.75 5.89687 1.75H10.0969C10.582 1.75 10.9938 1.43592 11.14 1H12.1678C12.0012 1.9932 11.1374 2.75 10.0969 2.75H5.89687C4.85633 2.75 3.99254 1.9932 3.82591 1ZM10.0969 14.2499H5.89687C5.41172 14.2499 4.99993 14.564 4.85373 14.9999H3.82591C3.99254 14.0067 4.85633 13.2499 5.89687 13.2499H10.0969C11.1374 13.2499 12.0012 14.0067 12.1678 14.9999H11.14C10.9938 14.564 10.582 14.2499 10.0969 14.2499ZM3.79687 5.89971C3.79687 4.73991 4.73708 3.79971 5.89687 3.79971H10.0969C10.5197 3.79971 10.9134 3.92468 11.2429 4.13971L13.7363 1.64635C13.9316 1.45109 14.2481 1.45109 14.4434 1.64635C14.6387 1.84161 14.6387 2.15819 14.4434 2.35346L2.564 14.2328C2.36874 14.4281 2.05216 14.4281 1.8569 14.2328C1.66163 14.0376 1.66163 13.721 1.8569 13.5257L4.13688 11.2458C3.92185 10.9162 3.79687 10.5226 3.79687 10.0997V5.89971ZM6.4734 8.90924L7.18486 8.19778L6.63653 7.51236C6.46402 7.29673 6.14938 7.26177 5.93375 7.43427C5.71811 7.60678 5.68315 7.92142 5.85566 8.13705L6.4734 8.90924ZM12.1969 10.0997V6.01013L6.0073 12.1997H10.0969C11.2567 12.1997 12.1969 11.2595 12.1969 10.0997Z" fill="white"/>
</svg>
