<svg width="16" height="16" viewBox="0 0 16 16" fill="none" xmlns="http://www.w3.org/2000/svg">
<path fill-rule="evenodd" clip-rule="evenodd" d="M2.05 8C2.05 4.71391 4.71391 2.05 8 2.05C11.2861 2.05 13.95 4.71391 13.95 8C13.95 11.2861 11.2861 13.95 8 13.95C4.71391 13.95 2.05 11.2861 2.05 8ZM8 1C4.13401 1 1 4.13401 1 8C1 11.866 4.13401 15 8 15C11.866 15 15 11.866 15 8C15 4.13401 11.866 1 8 1ZM10.9484 4.08737C11.1199 4.21657 11.1954 4.43713 11.1391 4.64429L10.0506 8.65109C9.921 9.12809 9.61288 9.53697 9.19008 9.79302L5.63853 11.9438C5.45491 12.055 5.22207 12.0432 5.05063 11.914C4.87918 11.7848 4.80366 11.5642 4.85994 11.3571L5.94846 7.35029C6.07805 6.87328 6.38616 6.4644 6.80897 6.20835L10.3605 4.05758C10.5441 3.94638 10.777 3.95818 10.9484 4.08737ZM6.96173 7.62556C6.99119 7.51715 7.04092 7.41648 7.10732 7.32837L8.89172 8.67301C8.82532 8.76112 8.74226 8.83668 8.64617 8.89487L6.21731 10.3658L6.96173 7.62556Z" fill="white"/>
</svg>
