<svg width="16" height="16" viewBox="0 0 16 16" fill="none" xmlns="http://www.w3.org/2000/svg">
<path fill-rule="evenodd" clip-rule="evenodd" d="M8.00077 2C6.44864 2 4.95794 2.62938 3.85719 3.75316C3.66396 3.95043 3.3474 3.95371 3.15013 3.76048C2.95285 3.56725 2.94958 3.25068 3.14281 3.05341C4.42942 1.73988 6.17667 1 8.00077 1C9.82488 1 11.5721 1.73988 12.8587 3.05341C13.052 3.25068 13.0487 3.56724 12.8514 3.76047C12.6541 3.95371 12.3376 3.95043 12.1444 3.75316C11.0436 2.62938 9.5529 2 8.00077 2ZM8.00088 4.10713C6.99625 4.10713 6.03062 4.51448 5.31702 5.24301C5.12379 5.44028 4.80722 5.44356 4.60995 5.25033C4.41267 5.0571 4.4094 4.74053 4.60263 4.54326C5.5021 3.62497 6.72428 3.10714 8.00088 3.10713C9.27749 3.10713 10.4997 3.62497 11.3991 4.54326C11.5924 4.74053 11.5891 5.0571 11.3918 5.25033C11.1945 5.44356 10.878 5.44028 10.6848 5.24301C9.97115 4.51447 9.00552 4.10713 8.00088 4.10713ZM5.31702 10.7526C5.12379 10.5553 4.80722 10.5521 4.60995 10.7453C4.41267 10.9385 4.4094 11.2551 4.60263 11.4524C5.40366 12.2702 6.46063 12.7704 7.58405 12.87C7.5289 12.5885 7.5 12.2976 7.5 12C7.5 11.9514 7.50077 11.9031 7.5023 11.8549C6.68106 11.7436 5.91157 11.3596 5.31702 10.7526ZM7.96593 13.9963C8.14077 14.3489 8.36048 14.6754 8.61759 14.9681C8.41335 14.9869 8.20755 14.9964 8.00077 14.9964C6.17667 14.9964 4.42942 14.2565 3.14281 12.943C2.94958 12.7457 2.95285 12.4292 3.15013 12.2359C3.3474 12.0427 3.66396 12.046 3.85719 12.2433C4.9497 13.3586 6.42635 13.987 7.96593 13.9963Z" fill="white"/>
<path fill-rule="evenodd" clip-rule="evenodd" d="M12 15.75C14.0711 15.75 15.75 14.0711 15.75 12C15.75 9.92893 14.0711 8.25 12 8.25C9.92893 8.25 8.25 9.92893 8.25 12C8.25 14.0711 9.92893 15.75 12 15.75ZM10.8008 10.3062C10.6641 10.1695 10.4425 10.1695 10.3058 10.3062C10.1691 10.4428 10.1691 10.6644 10.3058 10.8011L11.5047 12L10.3058 13.1989C10.1691 13.3356 10.1691 13.5572 10.3058 13.6938C10.4425 13.8305 10.6641 13.8305 10.8008 13.6938L11.9996 12.495L13.1985 13.6938C13.3352 13.8305 13.5568 13.8305 13.6935 13.6938C13.8302 13.5572 13.8302 13.3356 13.6935 13.1989L12.4946 12L13.6935 10.8011C13.8302 10.6644 13.8302 10.4428 13.6935 10.3062C13.5568 10.1695 13.3352 10.1695 13.1985 10.3062L11.9996 11.505L10.8008 10.3062Z" fill="white"/>
</svg>
