<svg width="16" height="16" viewBox="0 0 16 16" fill="none" xmlns="http://www.w3.org/2000/svg">
<path fill-rule="evenodd" clip-rule="evenodd" d="M7.99999 5.55L7.99999 10.45C6.6469 10.45 5.55 9.3531 5.55 8C5.55 6.6469 6.6469 5.55 7.99999 5.55ZM7.99999 11.5C6.067 11.5 4.5 9.93299 4.5 8C4.5 6.06701 6.067 4.5 7.99999 4.5C7.99999 4.5 8 4.5 7.99999 4.5C9.93299 4.5 11.5 6.067 11.5 8C11.5 9.933 9.93299 11.5 7.99999 11.5Z" fill="white"/>
<path fill-rule="evenodd" clip-rule="evenodd" d="M8.0501 3.41176C8.4367 3.41176 8.7501 3.09573 8.7501 2.70588C8.7501 2.31603 8.4367 2 8.0501 2C7.6635 2 7.3501 2.31603 7.3501 2.70588C7.3501 3.09573 7.6635 3.41176 8.0501 3.41176ZM8.0501 14C8.4367 14 8.7501 13.684 8.7501 13.2941C8.7501 12.9043 8.4367 12.5882 8.0501 12.5882C7.6635 12.5882 7.3501 12.9043 7.3501 13.2941C7.3501 13.684 7.6635 14 8.0501 14Z" fill="white"/>
<path fill-rule="evenodd" clip-rule="evenodd" d="M4.8412 4.74102C5.11453 4.46768 5.11264 4.02264 4.83698 3.74697C4.56132 3.47131 4.11627 3.46942 3.84294 3.74276C3.5696 4.01609 3.57149 4.46114 3.84715 4.7368C4.12282 5.01246 4.56786 5.01435 4.8412 4.74102ZM12.3281 12.2282C12.6014 11.9548 12.5995 11.5098 12.3239 11.2341C12.0482 10.9585 11.6032 10.9566 11.3298 11.2299C11.0565 11.5032 11.0584 11.9483 11.3341 12.2239C11.6097 12.4996 12.0548 12.5015 12.3281 12.2282Z" fill="white"/>
<path fill-rule="evenodd" clip-rule="evenodd" d="M11.2591 4.74073C11.5324 5.01407 11.9775 5.01218 12.2531 4.73652C12.5288 4.46085 12.5307 4.01581 12.2574 3.74247C11.984 3.46914 11.539 3.47103 11.2633 3.74669C10.9877 4.02235 10.9858 4.4674 11.2591 4.74073ZM3.77221 12.2279C4.04554 12.5012 4.49059 12.4993 4.76625 12.2237C5.04191 11.948 5.0438 11.5029 4.77047 11.2296C4.49713 10.9563 4.05209 10.9582 3.77642 11.2338C3.50076 11.5095 3.49887 11.9545 3.77221 12.2279Z" fill="white"/>
<path fill-rule="evenodd" clip-rule="evenodd" d="M12.5882 7.95C12.5882 8.3366 12.9043 8.65 13.2941 8.65C13.684 8.65 14 8.3366 14 7.95C14 7.5634 13.684 7.25 13.2941 7.25C12.9043 7.25 12.5882 7.5634 12.5882 7.95ZM2 7.95C2 8.3366 2.31603 8.65 2.70588 8.65C3.09573 8.65 3.41176 8.3366 3.41176 7.95C3.41176 7.5634 3.09573 7.25 2.70588 7.25C2.31603 7.25 2 7.5634 2 7.95Z" fill="white"/>
</svg>
