<svg width="16" height="16" viewBox="0 0 16 16" fill="none" xmlns="http://www.w3.org/2000/svg">
<path fill-rule="evenodd" clip-rule="evenodd" d="M7.99999 5.55L7.99999 10.45C6.6469 10.45 5.55 9.3531 5.55 8C5.55 6.6469 6.6469 5.55 7.99999 5.55ZM7.99999 11.5C6.067 11.5 4.5 9.93299 4.5 8C4.5 6.06701 6.067 4.5 7.99999 4.5C7.99999 4.5 8 4.5 7.99999 4.5C9.93299 4.5 11.5 6.067 11.5 8C11.5 9.933 9.93299 11.5 7.99999 11.5Z" fill="white"/>
<path fill-rule="evenodd" clip-rule="evenodd" d="M8.00211 1C8.29206 1 8.52711 1.23505 8.52711 1.525V3.00992C8.52711 3.29987 8.29206 3.53492 8.00211 3.53492C7.71216 3.53492 7.47711 3.29987 7.47711 3.00992V1.525C7.47711 1.23505 7.71216 1 8.00211 1ZM3.29839 2.55611C3.09337 2.35109 2.76095 2.35109 2.55593 2.55611C2.3509 2.76114 2.3509 3.09355 2.55593 3.29857L3.60593 4.34857C3.81095 4.5536 4.14337 4.5536 4.34839 4.34857C4.55342 4.14355 4.55342 3.81114 4.34839 3.60611L3.29839 2.55611ZM12.3982 11.6557C12.1932 11.4507 11.8608 11.4507 11.6558 11.6557C11.4508 11.8607 11.4508 12.1932 11.6558 12.3982L12.7058 13.4482C12.9108 13.6532 13.2432 13.6532 13.4482 13.4482C13.6533 13.2432 13.6533 12.9107 13.4482 12.7057L12.3982 11.6557ZM13.4485 2.55611C13.6536 2.76114 13.6536 3.09355 13.4485 3.29857L12.3985 4.34857C12.1935 4.5536 11.8611 4.5536 11.6561 4.34857C11.4511 4.14355 11.4511 3.81114 11.6561 3.60611L12.7061 2.55611C12.9111 2.35109 13.2435 2.35109 13.4485 2.55611ZM4.3482 12.3982C4.55322 12.1932 4.55322 11.8607 4.3482 11.6557C4.14317 11.4507 3.81076 11.4507 3.60573 11.6557L2.55574 12.7057C2.35071 12.9107 2.35071 13.2432 2.55574 13.4482C2.76076 13.6532 3.09317 13.6532 3.2982 13.4482L4.3482 12.3982ZM8.52711 12.9942C8.52711 12.7043 8.29206 12.4692 8.00211 12.4692C7.71216 12.4692 7.47711 12.7043 7.47711 12.9942L7.47711 14.4792C7.47711 14.7691 7.71216 15.0042 8.00211 15.0042C8.29206 15.0042 8.52711 14.7691 8.52711 14.4792L8.52711 12.9942ZM15.0042 8.00205C15.0042 8.292 14.7691 8.52705 14.4792 8.52705H12.9942C12.7043 8.52705 12.4692 8.292 12.4692 8.00205C12.4692 7.7121 12.7043 7.47705 12.9942 7.47705H14.4792C14.7691 7.47705 15.0042 7.7121 15.0042 8.00205ZM3.00992 8.52705C3.29987 8.52705 3.53492 8.292 3.53492 8.00205C3.53492 7.7121 3.29987 7.47705 3.00992 7.47705L1.525 7.47705C1.23505 7.47705 1 7.7121 1 8.00205C1 8.292 1.23505 8.52705 1.525 8.52705L3.00992 8.52705Z" fill="white"/>
</svg>
