<svg width="16" height="16" viewBox="0 0 16 16" fill="none" xmlns="http://www.w3.org/2000/svg">
<path fill-rule="evenodd" clip-rule="evenodd" d="M8 15C4.13 15 1 11.86 1 8C1 4.13 4.13 1 8 1C11.86 1 15 4.13 15 8C15 11.86 11.86 15 8 15ZM7.12 3.09C6.83 3.09 6.59 3.33 6.59 3.62C6.59 3.91 6.83 4.14 7.12 4.14C7.41 4.14 7.65 3.91 7.65 3.62C7.65 3.33 7.41 3.09 7.12 3.09ZM9.92 3.79C9.63 3.79 9.4 4.03 9.4 4.32C9.4 4.61 9.63 4.84 9.92 4.84C10.21 4.84 10.44 4.61 10.44 4.32C10.44 4.03 10.21 3.79 9.92 3.79ZM6.07 5.19C5.59 5.19 5.19 5.59 5.19 6.07C5.19 6.55 5.59 6.94 6.07 6.94C6.55 6.94 6.94 6.55 6.94 6.07C6.94 5.59 6.55 5.19 6.07 5.19ZM3.62 5.89C3.33 5.89 3.09 6.13 3.09 6.42C3.09 6.71 3.33 6.94 3.62 6.94C3.91 6.94 4.15 6.71 4.15 6.42C4.15 6.13 3.91 5.89 3.62 5.89ZM10.27 5.89C9.79 5.89 9.4 6.29 9.4 6.77C9.4 7.25 9.79 7.64 10.27 7.64C10.75 7.64 11.15 7.25 11.15 6.77C11.15 6.29 10.75 5.89 10.27 5.89ZM8.17 7.29C7.69 7.29 7.3 7.69 7.3 8.17C7.3 8.65 7.69 9.04 8.17 9.04C8.65 9.04 9.05 8.65 9.05 8.17C9.05 7.69 8.65 7.29 8.17 7.29ZM12.02 8.69C11.73 8.69 11.5 8.93 11.5 9.22C11.5 9.51 11.73 9.75 12.02 9.75C12.31 9.75 12.55 9.51 12.55 9.22C12.55 8.93 12.31 8.69 12.02 8.69ZM5.19 9.39C4.81 9.39 4.5 9.71 4.5 10.1C4.5 10.48 4.81 10.79 5.19 10.79C5.58 10.79 5.9 10.48 5.9 10.1C5.9 9.71 5.58 9.39 5.19 9.39ZM9.57 10.1C9.09 10.1 8.69 10.49 8.69 10.97C8.69 11.45 9.09 11.85 9.57 11.85C10.05 11.85 10.44 11.45 10.44 10.97C10.44 10.49 10.05 10.1 9.57 10.1ZM7.82 11.5C7.53 11.5 7.3 11.73 7.3 12.02C7.3 12.31 7.53 12.54 7.82 12.54C8.11 12.54 8.34 12.31 8.34 12.02C8.34 11.73 8.11 11.5 7.82 11.5Z" fill="white"/>
</svg>
