<svg width="16" height="16" viewBox="0 0 16 16" fill="none" xmlns="http://www.w3.org/2000/svg">
<path d="M7.8252 11.9668C8.11496 11.9669 8.34942 12.2015 8.34961 12.4912C8.34961 12.7811 8.11508 13.0165 7.8252 13.0166C7.53525 13.0166 7.2998 12.7812 7.2998 12.4912C7.29999 12.2014 7.53536 11.9668 7.8252 11.9668Z" fill="white"/>
<path d="M10.0996 10.333C10.4862 10.333 10.7998 10.6466 10.7998 11.0332C10.7998 11.4198 10.4862 11.7334 10.0996 11.7334C9.71314 11.7332 9.40039 11.4197 9.40039 11.0332C9.40042 10.6467 9.71316 10.3332 10.0996 10.333Z" fill="white"/>
<path d="M5.2002 9.40039C5.58655 9.40056 5.89926 9.71325 5.89941 10.0996C5.89941 10.4861 5.58665 10.7996 5.2002 10.7998C4.8136 10.7998 4.5 10.4862 4.5 10.0996C4.50016 9.71314 4.81369 9.40039 5.2002 9.40039Z" fill="white"/>
<path d="M12.0254 8.7002C12.315 8.70041 12.5496 8.93495 12.5498 9.22461C12.5498 9.51443 12.3152 9.74979 12.0254 9.75C11.7354 9.75 11.5 9.51456 11.5 9.22461C11.5002 8.93482 11.7356 8.7002 12.0254 8.7002Z" fill="white"/>
<path d="M8.4668 7.5332C8.9822 7.53328 9.40039 7.95138 9.40039 8.4668C9.40032 8.98215 8.98215 9.40032 8.4668 9.40039C7.95138 9.40039 7.53328 8.9822 7.5332 8.4668C7.5332 7.95133 7.95133 7.5332 8.4668 7.5332Z" fill="white"/>
<path d="M11.0918 5.90039C11.5105 5.90051 11.8495 6.23953 11.8496 6.6582C11.8496 7.07695 11.5105 7.41688 11.0918 7.41699C10.673 7.41699 10.333 7.07702 10.333 6.6582C10.3331 6.23946 10.673 5.90039 11.0918 5.90039Z" fill="white"/>
<path d="M6.4248 5.66699C6.84353 5.66699 7.18344 6.00612 7.18359 6.4248C7.18359 6.84362 6.84362 7.18359 6.4248 7.18359C6.00612 7.18344 5.66699 6.84353 5.66699 6.4248C5.66714 6.00621 6.00621 5.66714 6.4248 5.66699Z" fill="white"/>
<path d="M3.625 5.90039C3.91487 5.9004 4.15027 6.13496 4.15039 6.4248C4.15039 6.71475 3.91494 6.95018 3.625 6.9502C3.33505 6.9502 3.09961 6.71475 3.09961 6.4248C3.09973 6.13496 3.33512 5.90039 3.625 5.90039Z" fill="white"/>
<path d="M9.9248 3.7998C10.2148 3.7998 10.4502 4.03525 10.4502 4.3252C10.4501 4.61502 10.2147 4.84961 9.9248 4.84961C9.63499 4.84956 9.40054 4.61499 9.40039 4.3252C9.40039 4.03528 9.6349 3.79986 9.9248 3.7998Z" fill="white"/>
<path d="M7.125 3.33301C7.41494 3.33302 7.65039 3.56846 7.65039 3.8584C7.65031 4.14827 7.41489 4.3828 7.125 4.38281C6.8351 4.38281 6.59969 4.14828 6.59961 3.8584C6.59961 3.56845 6.83505 3.33301 7.125 3.33301Z" fill="white"/>
<path fill-rule="evenodd" clip-rule="evenodd" d="M8 1C11.866 1 15 4.13401 15 8C15 11.866 11.866 15 8 15C4.13401 15 1 11.866 1 8C1 4.13401 4.13401 1 8 1ZM8 2C4.68629 2 2 4.68629 2 8C2 11.3137 4.68629 14 8 14C11.3137 14 14 11.3137 14 8C14 4.68629 11.3137 2 8 2Z" fill="white"/>
</svg>
