<svg width="16" height="16" viewBox="0 0 16 16" fill="none" xmlns="http://www.w3.org/2000/svg">
<path d="M9.57422 9.1499C9.80881 9.1499 9.99979 9.34017 10 9.57471C10 9.80943 9.80894 10.0005 9.57422 10.0005C9.33986 10.0001 9.14942 9.80917 9.14941 9.57471C9.14962 9.34043 9.33999 9.15032 9.57422 9.1499Z" fill="white"/>
<path d="M6.4248 5.99951C6.65917 5.99962 6.85016 6.19002 6.85059 6.42432C6.85059 6.65897 6.65943 6.84999 6.4248 6.8501C6.19026 6.84989 6 6.65891 6 6.42432C6.00042 6.19009 6.19053 5.99972 6.4248 5.99951Z" fill="white"/>
<path fill-rule="evenodd" clip-rule="evenodd" d="M13.5996 3.1001C14.3728 3.1001 15 3.72729 15 4.50049V5.70947C15 6.04846 14.8363 6.36685 14.5605 6.56396L14.1445 6.86084C13.3632 7.41918 13.3633 8.58078 14.1445 9.13916L14.5605 9.43604C14.8364 9.63314 15 9.9515 15 10.2905V11.5005C14.9998 12.2735 14.3727 12.8999 13.5996 12.8999H2.40039C1.62732 12.8999 1.00021 12.2735 1 11.5005V10.2905C1 9.9515 1.16362 9.63314 1.43945 9.43604L1.85547 9.13916C2.63674 8.58078 2.63681 7.41918 1.85547 6.86084L1.43945 6.56396C1.16367 6.36685 1 6.04846 1 5.70947V4.50049C1 3.72729 1.62719 3.1001 2.40039 3.1001H13.5996ZM9.57422 8.3501C8.89816 8.35052 8.34982 8.8986 8.34961 9.57471C8.34961 10.2088 8.83177 10.7305 9.44922 10.7935L9.57422 10.8003C10.2083 10.8003 10.73 10.3182 10.793 9.70068L10.7998 9.57471C10.7996 8.89834 10.2506 8.3501 9.57422 8.3501ZM10.1953 5.70752C10.0001 5.51236 9.68353 5.51237 9.48828 5.70752L5.70801 9.48877C5.51276 9.68403 5.51275 10.0005 5.70801 10.1958C5.9033 10.3906 6.21991 10.3909 6.41504 10.1958L10.1953 6.41455C10.3905 6.21928 10.3905 5.90275 10.1953 5.70752ZM6.4248 5.19971C5.7487 5.19992 5.20062 5.74826 5.2002 6.42432C5.2002 7.05852 5.68217 7.58026 6.2998 7.64307L6.4248 7.6499C7.05885 7.6498 7.58066 7.16777 7.64355 6.55029L7.65039 6.42432C7.64997 5.7482 7.101 5.19981 6.4248 5.19971Z" fill="white"/>
</svg>
