<svg width="16" height="16" viewBox="0 0 16 16" fill="none" xmlns="http://www.w3.org/2000/svg">
<path fill-rule="evenodd" clip-rule="evenodd" d="M9.57422 8.3501C10.2506 8.3501 10.7996 8.89839 10.7998 9.57471L10.793 9.70068C10.73 10.3181 10.2083 10.8003 9.57422 10.8003L9.44922 10.7935C8.83181 10.7305 8.34966 10.2087 8.34961 9.57471C8.34982 8.89862 8.89817 8.35047 9.57422 8.3501ZM9.57422 9.1499C9.33996 9.15027 9.14962 9.34041 9.14941 9.57471C9.14947 9.80913 9.33987 10.0001 9.57422 10.0005C9.80889 10.0005 9.99995 9.80936 10 9.57471C9.99979 9.34018 9.80879 9.1499 9.57422 9.1499Z" fill="white"/>
<path d="M9.48828 5.70752C9.68353 5.51237 10.0001 5.51235 10.1953 5.70752C10.3905 5.90275 10.3905 6.21928 10.1953 6.41455L6.41504 10.1958C6.21992 10.3909 5.9033 10.3906 5.70801 10.1958C5.51275 10.0005 5.51276 9.68403 5.70801 9.48877L9.48828 5.70752Z" fill="white"/>
<path fill-rule="evenodd" clip-rule="evenodd" d="M6.4248 5.19971C7.10093 5.19987 7.65002 5.74824 7.65039 6.42432L7.64355 6.55029C7.58067 7.16769 7.05876 7.64975 6.4248 7.6499L6.2998 7.64307C5.68222 7.58026 5.2002 7.05847 5.2002 6.42432C5.20057 5.74827 5.74872 5.19992 6.4248 5.19971ZM6.4248 5.99951C6.19051 5.99972 6.00037 6.19006 6 6.42432C6 6.65889 6.19028 6.84989 6.4248 6.8501C6.65937 6.84994 6.85059 6.65892 6.85059 6.42432C6.85021 6.19003 6.65914 5.99967 6.4248 5.99951Z" fill="white"/>
<path fill-rule="evenodd" clip-rule="evenodd" d="M13.5996 3.1001C14.3728 3.1001 15 3.72729 15 4.50049V5.70947L14.9922 5.83545C14.9571 6.12621 14.8019 6.39145 14.5605 6.56396L14.1445 6.86084C13.3632 7.41917 13.3633 8.58075 14.1445 9.13916L14.5605 9.43604C14.8363 9.63312 15 9.95154 15 10.2905V11.5005L14.9932 11.6431C14.9216 12.3491 14.3246 12.8999 13.5996 12.8999H2.40039L2.25684 12.8931C1.59788 12.8261 1.07366 12.3021 1.00684 11.6431L1 11.5005V10.2905C1.00004 9.99375 1.12547 9.71271 1.3418 9.51514L1.43945 9.43604L1.85547 9.13916C2.58802 8.61553 2.63356 7.56178 1.99219 6.97217L1.85547 6.86084L1.43945 6.56396C1.16369 6.36685 1 6.04846 1 5.70947V4.50049C1.00001 3.77561 1.55088 3.17862 2.25684 3.10693L2.40039 3.1001H13.5996ZM2.40039 4.1001C2.17949 4.1001 2.00002 4.27958 2 4.50049V5.70947C2 5.7255 2.00754 5.74109 2.02051 5.75049L2.43652 6.04736C3.77619 7.00452 3.77608 8.9954 2.43652 9.95264L2.02051 10.2495C2.00751 10.2589 2.00004 10.2745 2 10.2905V11.5005C2.00021 11.7212 2.17961 11.8999 2.40039 11.8999H13.5996C13.8204 11.8999 13.9998 11.7212 14 11.5005V10.2905C14 10.2745 13.9925 10.2589 13.9795 10.2495L13.5635 9.95264C12.2239 8.99539 12.2238 7.00452 13.5635 6.04736L13.9795 5.75049C13.9925 5.74109 14 5.7255 14 5.70947V4.50049C14 4.27958 13.8205 4.1001 13.5996 4.1001H2.40039Z" fill="white"/>
</svg>
