<svg width="16" height="16" viewBox="0 0 16 16" fill="none" xmlns="http://www.w3.org/2000/svg">
<path fill-rule="evenodd" clip-rule="evenodd" d="M3.59521 1C3.87124 1.00013 4.09521 1.22394 4.09521 1.5V3.09961H10.7954L11.0103 3.11035C12.0688 3.21804 12.8946 4.11237 12.895 5.19922V11.9102H14.4702L14.5708 11.9199C14.7985 11.9666 14.9702 12.1686 14.9702 12.4102C14.9701 12.6516 14.7985 12.8537 14.5708 12.9004L14.4702 12.9102H12.8696V14.5L12.8599 14.6006C12.8133 14.8285 12.6113 15 12.3696 15C12.1281 14.9998 11.926 14.8283 11.8794 14.6006L11.8696 14.5V12.9004H5.19482C4.10794 12.9002 3.21385 12.0741 3.10596 11.0156L3.09521 10.8008V4.09961H1.52002C1.24388 4.09961 1.02002 3.87575 1.02002 3.59961C1.02022 3.32364 1.244 3.09961 1.52002 3.09961H3.09521V1.5C3.09521 1.22386 3.31907 1 3.59521 1ZM4.09521 10.8008C4.09557 11.4079 4.5877 11.9002 5.19482 11.9004H11.895V5.19922C11.8946 4.59216 11.4025 4.09976 10.7954 4.09961H4.09521V10.8008Z" fill="white"/>
</svg>
