<svg width="16" height="16" viewBox="0 0 16 16" fill="none" xmlns="http://www.w3.org/2000/svg">
<path fill-rule="evenodd" clip-rule="evenodd" d="M9.0563 3.74366C9.12752 3.6495 9.18698 3.54615 9.23279 3.43574C9.35092 3.15102 9.37164 2.83533 9.29175 2.53765C9.21185 2.23996 9.0358 1.97691 8.7909 1.7893C8.54599 1.60169 8.24593 1.5 7.93723 1.5C7.62854 1.5 7.32847 1.60169 7.08357 1.7893C6.83867 1.97691 6.66262 2.23996 6.58272 2.53765C6.50283 2.83533 6.52355 3.15102 6.64168 3.43574C6.68747 3.54611 6.74691 3.64943 6.8181 3.74356L4.67183 6.23377C4.6172 6.29715 4.52529 6.3131 4.45244 6.27182L3.18922 5.55603C3.2083 5.42805 3.20963 5.29721 3.19249 5.16723C3.1522 4.86169 3.01205 4.57795 2.79377 4.36003C2.57549 4.14211 2.29129 4.00218 1.98523 3.96196C1.67918 3.92173 1.36839 3.98345 1.10105 4.13754C0.833714 4.29164 0.624778 4.52949 0.506646 4.81422C0.388514 5.09894 0.367789 5.41463 0.447685 5.71231C0.52758 6.01 0.703632 6.27304 0.948534 6.46066C1.02645 6.52034 1.10995 6.57134 1.19754 6.61312L2.40221 12.7602C2.51489 13.3352 3.01956 13.75 3.60639 13.75H12.2679C12.8547 13.75 13.3594 13.3352 13.4721 12.7602L14.6622 6.68757C14.8198 6.63887 14.9686 6.56246 15.1013 6.46085C15.3462 6.27324 15.5222 6.01019 15.6021 5.71251C15.682 5.41482 15.6613 5.09914 15.5432 4.81441C15.425 4.52969 15.2161 4.29183 14.9488 4.13774C14.6814 3.98365 14.3706 3.92193 14.0646 3.96215C13.7585 4.00238 13.4743 4.1423 13.256 4.36022C13.0378 4.57814 12.8976 4.86188 12.8573 5.16743C12.8443 5.26589 12.8419 5.36484 12.8498 5.46268L11.4219 6.27182C11.349 6.3131 11.2571 6.29715 11.2025 6.23377L9.0563 3.74366ZM7.93723 11.65C8.7117 11.65 9.33953 11.0232 9.33953 10.25C9.33953 9.47684 8.7117 8.85004 7.93723 8.85004C7.16277 8.85004 6.53494 9.47684 6.53494 10.25C6.53494 11.0232 7.16277 11.65 7.93723 11.65Z" fill="white"/>
</svg>
