<svg width="16" height="16" viewBox="0 0 16 16" fill="none" xmlns="http://www.w3.org/2000/svg">
<path fill-rule="evenodd" clip-rule="evenodd" d="M9.04025 3.76915C9.11864 3.66927 9.1836 3.55857 9.23281 3.43972C9.35095 3.1544 9.37167 2.83807 9.29178 2.53978C9.21188 2.24148 9.03583 1.97789 8.79092 1.7899C8.54602 1.6019 8.24595 1.5 7.93726 1.5C7.62856 1.5 7.3285 1.6019 7.08359 1.7899C6.83869 1.97789 6.66264 2.24148 6.58274 2.53978C6.50285 2.83807 6.52357 3.1544 6.6417 3.43972C6.69092 3.55858 6.7559 3.6693 6.8343 3.76919L4.69094 6.26112C4.6286 6.3336 4.52369 6.35182 4.44056 6.30462L3.18492 5.59168C3.20802 5.45482 3.21085 5.3144 3.1925 5.17496C3.15221 4.86878 3.01206 4.58446 2.79378 4.3661C2.5755 4.14773 2.29129 4.00752 1.98524 3.96721C1.67919 3.9269 1.36839 3.98874 1.10105 4.14315C0.833715 4.29756 0.624779 4.53591 0.506646 4.82122C0.388514 5.10653 0.367789 5.42286 0.447685 5.72116C0.527581 6.01945 0.703633 6.28304 0.948536 6.47104C1.03506 6.53745 1.12847 6.59313 1.22672 6.63736L2.42792 12.7793C2.53808 13.3426 3.03167 13.749 3.60561 13.749H12.269C12.8429 13.749 13.3365 13.3426 13.4467 12.7793L14.6343 6.70657C14.8023 6.65838 14.9609 6.57887 15.1014 6.47104C15.3463 6.28304 15.5224 6.01945 15.6023 5.72116C15.6822 5.42286 15.6614 5.10653 15.5433 4.82122C15.4252 4.53591 15.2162 4.29756 14.9489 4.14315C14.6816 3.98874 14.3708 3.9269 14.0647 3.96721C13.7587 4.00752 13.4745 4.14773 13.2562 4.36609C13.0379 4.58446 12.8977 4.86878 12.8575 5.17496C12.8432 5.28315 12.8417 5.39193 12.8526 5.49918L11.434 6.30462C11.3509 6.35182 11.246 6.3336 11.1836 6.26112L9.04025 3.76915ZM7.93729 4.02034L5.44908 6.91321C5.07505 7.34807 4.44559 7.45743 3.9468 7.17422L2.15127 6.15473L3.40933 12.5874C3.42769 12.6812 3.50995 12.749 3.60561 12.749H12.269C12.3646 12.749 12.4469 12.6812 12.4653 12.5874L13.7233 6.15473L11.9278 7.17422C11.429 7.45743 10.7995 7.34807 10.4255 6.91321L7.93729 4.02034ZM9.33951 10.268C9.33951 11.0428 8.71168 11.6709 7.93721 11.6709C7.16274 11.6709 6.53491 11.0428 6.53491 10.268C6.53491 9.49321 7.16274 8.86513 7.93721 8.86513C8.71168 8.86513 9.33951 9.49321 9.33951 10.268Z" fill="white"/>
</svg>
