<svg width="16" height="16" viewBox="0 0 16 16" fill="none" xmlns="http://www.w3.org/2000/svg">
<path fill-rule="evenodd" clip-rule="evenodd" d="M8.2915 2.00269C8.10437 1.92749 7.89563 1.92749 7.7085 2.00269L3.03079 3.88258L8 5.91207L12.9692 3.88258L8.2915 2.00269ZM7.52907 13.9252V6.74122L2.21333 4.57021C2.19924 4.62945 2.19186 4.69092 2.19186 4.75363V11.2464C2.19186 11.5688 2.38726 11.8588 2.68525 11.9785L7.52907 13.9252ZM7.3587 1.12408C7.77038 0.958639 8.22962 0.958639 8.6413 1.12408L13.6646 3.14284C13.9501 3.25759 14.193 3.44358 14.376 3.67544C14.613 3.97557 14.75 4.35326 14.75 4.75363V11.2464C14.75 11.9558 14.3201 12.5937 13.6646 12.8572L8.6413 14.8759C8.43546 14.9586 8.21771 15 8 15C7.78229 15 7.56454 14.9586 7.3587 14.8759L2.33545 12.8572C1.67987 12.5937 1.25 11.9558 1.25 11.2464V4.75363C1.25 4.35326 1.38703 3.97557 1.62395 3.67544C1.80698 3.44358 2.04992 3.25759 2.33545 3.14284L7.3587 1.12408Z" fill="white"/>
</svg>
