<svg width="16" height="16" viewBox="0 0 16 16" fill="none" xmlns="http://www.w3.org/2000/svg">
<path fill-rule="evenodd" clip-rule="evenodd" d="M7.34 1.16375C7.76 0.993755 8.23 0.993755 8.65 1.16375L13.65 3.17375C13.93 3.29375 14.18 3.48375 14.37 3.71375L8 6.41375L1.56 3.79375C1.75 3.56375 2.06 3.29375 2.34 3.17375L7.34 1.16375ZM1.25 4.74375V11.2738C1.25 11.9838 1.68 12.6338 2.34 12.9038L7.34 14.9138C7.4 14.9338 7.45 14.9538 7.5 14.9638V7.29376L1.25 4.74375ZM8.5 14.9638C8.55 14.9438 8.6 14.9338 8.65 14.9138L13.65 12.9038C14.31 12.6338 14.75 11.9838 14.75 11.2738V4.80376L8.5 7.29376V14.9638Z" fill="white"/>
</svg>
