<svg width="16" height="16" viewBox="0 0 16 16" fill="none" xmlns="http://www.w3.org/2000/svg">
<path fill-rule="evenodd" clip-rule="evenodd" d="M4.75 5C4.75 4.72386 4.97386 4.5 5.25 4.5H6.27778C7.38235 4.5 8.27778 5.39543 8.27778 6.5C8.27778 6.95401 8.1265 7.37269 7.8716 7.70838C8.52239 8.0322 8.97229 8.70029 8.98164 9.47587C8.99509 10.5898 8.0958 11.5 6.98179 11.5H5.25C4.97386 11.5 4.75 11.2761 4.75 11V5ZM5.75 8.5V10.5H6.98179C7.53879 10.5 7.98844 10.0449 7.98172 9.48793C7.97511 8.9404 7.52937 8.5 6.98179 8.5H5.75ZM5.75 7.5H6.27778C6.83006 7.5 7.27778 7.05228 7.27778 6.5C7.27778 5.94772 6.83006 5.5 6.27778 5.5H5.75V7.5Z" fill="white"/>
<path d="M11.7499 8.32349C11.0289 8.32349 10.4443 8.908 10.4443 9.62904V11C10.4443 11.2761 10.2205 11.5 9.94434 11.5C9.66819 11.5 9.44434 11.2761 9.44434 11V9.62904C9.44434 9.61538 9.44445 9.60175 9.44469 9.58815L9.44434 7.64697C9.44434 7.37083 9.66819 7.14697 9.94434 7.14697C10.2205 7.14697 10.4443 7.37083 10.4443 7.64697V7.72849C10.8155 7.47303 11.2652 7.32349 11.7499 7.32349C12.026 7.32349 12.2499 7.54734 12.2499 7.82349C12.2499 8.09963 12.026 8.32349 11.7499 8.32349Z" fill="white"/>
</svg>
