<svg width="16" height="16" viewBox="0 0 16 16" fill="none" xmlns="http://www.w3.org/2000/svg">
<path fill-rule="evenodd" clip-rule="evenodd" d="M6.1001 5C6.1001 4.72386 6.32396 4.5 6.6001 4.5H8.1751C9.32109 4.5 10.2501 5.42901 10.2501 6.575C10.2501 7.44832 9.71058 8.19563 8.94666 8.50181L10.1859 10.7049C10.3213 10.9455 10.2359 11.2504 9.99523 11.3858C9.75455 11.5212 9.44969 11.4358 9.31431 11.1951L7.88267 8.65H7.1001V10.95C7.1001 11.2261 6.87624 11.45 6.6001 11.45C6.32396 11.45 6.1001 11.2261 6.1001 10.95V5ZM8.16523 7.65H7.1001H8.16523ZM8.18258 7.64997C8.77284 7.64595 9.2501 7.16621 9.2501 6.575C9.2501 5.98129 8.7688 5.5 8.1751 5.5H7.1001V7.65" fill="white"/>
</svg>
