<svg width="16" height="16" viewBox="0 0 16 16" fill="none" xmlns="http://www.w3.org/2000/svg">
<path d="M5.67902 1.75C5.97494 1.75001 6.21482 1.98321 6.21482 2.27087L6.21475 7.10459C6.29282 7.10282 6.36178 7.1001 6.42429 7.09595C6.59627 7.08455 6.68001 7.06408 6.73512 7.04189C6.95395 6.95378 7.1278 6.78478 7.21843 6.57206C7.24126 6.51848 7.26232 6.43708 7.27405 6.26991C7.2861 6.09806 7.28639 5.87612 7.28638 5.54542L7.28631 2.27086C7.2863 1.9832 7.52619 1.75001 7.8221 1.75C8.11802 1.74999 8.35791 1.98318 8.35792 2.27083L8.35799 5.56291C8.358 5.87157 8.35801 6.12925 8.34317 6.34079C8.32772 6.561 8.2944 6.76901 8.20848 6.97067C8.00909 7.43865 7.62661 7.81045 7.1452 8.00428C6.93775 8.08781 6.72377 8.1202 6.49724 8.13523C6.41068 8.14097 6.31662 8.14443 6.21473 8.14651L6.21465 13.729C6.21464 14.0167 5.97475 14.2499 5.67883 14.2498C5.38292 14.2498 5.14303 14.0166 5.14304 13.729L5.14312 8.1465C5.04129 8.14442 4.94728 8.14097 4.86077 8.13523C4.63424 8.1202 4.42026 8.08782 4.21281 8.00429C3.73141 7.81046 3.34894 7.43866 3.14954 6.9707C3.06361 6.76904 3.03029 6.56104 3.01484 6.34083C2.99999 6.1293 3 5.87164 3 5.56299V2.27084C3 1.98319 3.23989 1.75 3.5358 1.75C3.83172 1.75 4.07161 1.98319 4.07161 2.27084V5.54545C4.07161 5.87614 4.0719 6.09808 4.08396 6.26993C4.09569 6.4371 4.11675 6.5185 4.13958 6.57207C4.23021 6.78479 4.40406 6.95378 4.62288 7.04189C4.678 7.06408 4.76174 7.08455 4.93371 7.09595C4.99619 7.1001 5.06512 7.10281 5.14314 7.10459L5.14321 2.27082C5.14322 1.98317 5.38311 1.74999 5.67902 1.75Z" fill="white"/>
<path fill-rule="evenodd" clip-rule="evenodd" d="M12.4642 1.75015L12.11 1.75015C11.025 1.75015 10.1454 2.60515 10.1454 3.65987V9.20087C10.1454 10.1974 10.93 11.0137 11.9282 11.1026L11.9282 13.7291C11.9282 14.0168 12.1681 14.25 12.464 14.25C12.7599 14.25 12.9998 14.0168 12.9998 13.7292L13 2.27102C13 2.13288 12.9436 2.0004 12.8431 1.90271C12.7426 1.80503 12.6063 1.75015 12.4642 1.75015Z" fill="white"/>
</svg>
