<svg width="16" height="16" viewBox="0 0 16 16" fill="none" xmlns="http://www.w3.org/2000/svg">
<path d="M6.25 7.2998C6.82977 7.2998 7.2996 7.76988 7.2998 8.34961V13.9502C7.29969 14.53 6.82983 15 6.25 15H2.0498C1.47006 14.9999 1.00011 14.5299 1 13.9502V8.34961C1.0002 7.76995 1.47012 7.29991 2.0498 7.2998H6.25Z" fill="white"/>
<path d="M13.9502 10.0996C14.53 10.0997 15 10.5706 15 11.1504V13.9502C14.9999 14.5299 14.5299 14.9999 13.9502 15H9.75C9.17017 15 8.7003 14.53 8.7002 13.9502V11.1504C8.7002 10.5705 9.17011 10.0996 9.75 10.0996H13.9502Z" fill="white"/>
<path d="M13.9502 1C14.5299 1.0001 14.9999 1.47006 15 2.0498V7.65039C14.9998 8.23005 14.5299 8.7001 13.9502 8.7002H9.75C9.17024 8.70019 8.70041 8.23011 8.7002 7.65039V2.0498C8.7003 1.47 9.17017 1.00001 9.75 1H13.9502Z" fill="white"/>
<path d="M6.25 1C6.82983 1 7.2997 1.47 7.2998 2.0498V4.84961C7.2998 5.42951 6.8299 5.90039 6.25 5.90039H2.0498C1.47 5.90029 1 5.42944 1 4.84961V2.0498C1.00011 1.47006 1.47006 1.00011 2.0498 1H6.25Z" fill="white"/>
</svg>
