<svg width="16" height="16" viewBox="0 0 16 16" fill="none" xmlns="http://www.w3.org/2000/svg">
<path fill-rule="evenodd" clip-rule="evenodd" d="M7.99976 1C11.4791 1 14.2996 2.567 14.2996 4.5V11.6348L14.2898 11.7354C14.2873 11.7477 14.2825 11.7594 14.2791 11.7715C14.0294 13.5775 11.3146 15 7.99976 15C4.68496 14.9999 1.96898 13.5775 1.71948 11.7715C1.71607 11.7595 1.71224 11.7476 1.70972 11.7354L1.69995 11.6348V4.5C1.69995 2.56704 4.52045 1.00006 7.99976 1ZM13.2996 9.89062C12.1787 10.858 10.2245 11.5 7.99976 11.5C5.77505 11.5 3.82085 10.858 2.69995 9.89062V11.5C2.69995 11.9384 3.03181 12.5455 4.03101 13.1006C4.99629 13.6368 6.39742 14 7.99976 14C9.60222 14 11.0042 13.6369 11.9695 13.1006C12.9061 12.5802 13.2557 12.0139 13.2957 11.584L13.2996 11.5V9.89062ZM13.2996 6.39062C12.1787 7.35798 10.2245 8 7.99976 8C5.77505 7.99996 3.82085 7.35797 2.69995 6.39062V8C2.69995 8.43843 3.03181 9.04548 4.03101 9.60059C4.99629 10.1368 6.39742 10.5 7.99976 10.5C9.60222 10.5 11.0042 10.1369 11.9695 9.60059C12.9061 9.08017 13.2557 8.51394 13.2957 8.08398L13.2996 8V6.39062ZM7.99976 2C6.39741 2.00003 4.99629 2.36317 4.03101 2.89941C3.03181 3.45452 2.69995 4.06157 2.69995 4.5C2.69995 4.93843 3.03181 5.54547 4.03101 6.10059C4.99629 6.63683 6.39741 6.99997 7.99976 7C9.60223 7 11.0042 6.63688 11.9695 6.10059C12.9684 5.54553 13.2996 4.93837 13.2996 4.5C13.2996 4.06163 12.9684 3.45447 11.9695 2.89941C11.0042 2.36312 9.60223 2 7.99976 2Z" fill="white"/>
</svg>
