<svg width="16" height="16" viewBox="0 0 16 16" fill="none" xmlns="http://www.w3.org/2000/svg">
<path d="M2.68295 2.03475C2.42593 1.93379 2.13572 2.06029 2.03475 2.31732C1.93379 2.57434 2.06029 2.86455 2.31732 2.96551L3.77139 3.53673C3.82908 3.55939 3.87299 3.6075 3.89031 3.66701L5.36097 8.72216C5.75013 10.0598 7.12447 10.8531 8.47742 10.5209L13.6194 9.25841C13.8875 9.19257 14.0516 8.92179 13.9857 8.65361C13.9199 8.38544 13.6491 8.22141 13.3809 8.28726L8.23898 9.54972C7.4064 9.75413 6.56065 9.26599 6.32117 8.44281L4.8505 3.38767C4.74663 3.03064 4.48312 2.74192 4.13703 2.60597L2.68295 2.03475Z" fill="white"/>
<path fill-rule="evenodd" clip-rule="evenodd" d="M7.18936 4.37419C6.44161 4.57096 6.00043 5.33517 6.20395 6.0811L6.7154 7.95566C6.91892 8.7016 7.69006 9.14678 8.43781 8.95001L11.3563 8.182C12.1041 7.98523 12.5453 7.22102 12.3417 6.47509L11.8303 4.60053C11.6268 3.85459 10.8556 3.40941 10.1079 3.60618L7.18936 4.37419ZM10.3711 4.57091L7.45257 5.33893C7.23893 5.39514 7.11288 5.61349 7.17103 5.82661L7.68247 7.70118C7.74062 7.9143 7.96095 8.0415 8.17459 7.98528L11.0931 7.21727C11.3068 7.16105 11.4328 6.9427 11.3747 6.72958L10.8632 4.85501C10.8051 4.64189 10.5847 4.51469 10.3711 4.57091Z" fill="white"/>
<path fill-rule="evenodd" clip-rule="evenodd" d="M5.69363 14.0001C6.67349 14.0001 7.46782 13.22 7.46782 12.2577C7.46782 11.2954 6.67349 10.5153 5.69363 10.5153C4.71377 10.5153 3.91943 11.2954 3.91943 12.2577C3.91943 13.22 4.71377 14.0001 5.69363 14.0001ZM5.69363 13.0001C6.13832 13.0001 6.46782 12.6507 6.46782 12.2577C6.46782 11.8646 6.13832 11.5153 5.69363 11.5153C5.24894 11.5153 4.91943 11.8646 4.91943 12.2577C4.91943 12.6507 5.24894 13.0001 5.69363 13.0001Z" fill="white"/>
</svg>
