<svg width="16" height="16" viewBox="0 0 16 16" fill="none" xmlns="http://www.w3.org/2000/svg">
<path d="M2.07085 2.50049H13.9292C14.0147 2.50047 14.1074 2.50045 14.1876 2.507C14.2785 2.51443 14.3985 2.53279 14.5222 2.59586C14.6869 2.67975 14.8207 2.81361 14.9046 2.97825C14.9677 3.10203 14.9861 3.22203 14.9935 3.31286C15 3.39311 15 3.48581 15 3.57132V10.5297C15 10.6152 15 10.7079 14.9935 10.7881C14.9861 10.879 14.9677 10.999 14.9046 11.1227C14.8207 11.2874 14.6869 11.4212 14.5222 11.5051C14.3985 11.5682 14.2785 11.5866 14.1876 11.594C14.1139 11.6 14.0296 11.6005 13.95 11.6005V7.74971C13.95 6.97651 13.3232 6.34971 12.55 6.34971H9.05C8.27681 6.34971 7.65 6.97651 7.65 7.74971V11.6005L2.07083 11.6005C1.98532 11.6005 1.89262 11.6005 1.81237 11.594C1.72155 11.5866 1.60154 11.5682 1.47776 11.5051C1.31312 11.4212 1.17926 11.2874 1.09538 11.1227C1.03231 10.999 1.01394 10.879 1.00652 10.7881C0.999963 10.7079 0.999983 10.6152 1 10.5297V3.57134C0.999983 3.48585 0.999963 3.39309 1.00652 3.31286C1.01394 3.22203 1.03231 3.10203 1.09538 2.97825C1.17926 2.81361 1.31312 2.67975 1.47776 2.59586C1.60154 2.53279 1.72155 2.51443 1.81237 2.507C1.89263 2.50045 1.98534 2.50047 2.07085 2.50049Z" fill="white"/>
<path d="M7.65 13.3501V12.3001H2.4V13.3501H7.65Z" fill="white"/>
<path fill-rule="evenodd" clip-rule="evenodd" d="M8.69999 8.52049C8.69999 8.12846 8.69999 7.93244 8.77629 7.7827C8.8434 7.65099 8.95048 7.5439 9.0822 7.47679C9.23194 7.40049 9.42795 7.40049 9.81999 7.40049H11.78C12.172 7.40049 12.368 7.40049 12.5178 7.47679C12.6495 7.5439 12.7566 7.65099 12.8237 7.7827C12.9 7.93244 12.9 8.12846 12.9 8.52049V13.2805C12.9 13.6725 12.9 13.8685 12.8237 14.0183C12.7566 14.15 12.6495 14.2571 12.5178 14.3242C12.368 14.4005 12.172 14.4005 11.78 14.4005H9.81999C9.42795 14.4005 9.23194 14.4005 9.0822 14.3242C8.95048 14.2571 8.8434 14.15 8.77629 14.0183C8.69999 13.8685 8.69999 13.6725 8.69999 13.2805V8.52049ZM9.4 13.1751C9.4 13.0785 9.47835 13.0001 9.575 13.0001H12.025C12.1216 13.0001 12.2 13.0785 12.2 13.1751V13.5251C12.2 13.6218 12.1216 13.7001 12.025 13.7001H9.575C9.47835 13.7001 9.4 13.6218 9.4 13.5251V13.1751Z" fill="white"/>
</svg>
