<svg width="16" height="16" viewBox="0 0 16 16" fill="none" xmlns="http://www.w3.org/2000/svg">
<path d="M5.21125 3.78335C5.21125 4.17134 4.8993 4.48586 4.51449 4.48586C4.12967 4.48586 3.81772 4.17134 3.81772 3.78335C3.81772 3.39537 4.12967 3.08084 4.51449 3.08084C4.8993 3.08084 5.21125 3.39537 5.21125 3.78335Z" fill="white"/>
<path d="M8.5209 3.28306C8.24476 3.28306 8.0209 3.50691 8.0209 3.78306C8.0209 4.0592 8.24476 4.28306 8.5209 4.28306H11.6564C11.9325 4.28306 12.1564 4.0592 12.1564 3.78306C12.1564 3.50691 11.9325 3.28306 11.6564 3.28306H8.5209Z" fill="white"/>
<path fill-rule="evenodd" clip-rule="evenodd" d="M5.02893 1C4.55678 0.999995 4.17215 0.99999 3.85989 1.0255C3.53715 1.05187 3.24793 1.10797 2.97852 1.24524C2.55516 1.46095 2.21095 1.80516 1.99524 2.22852C1.85797 2.49793 1.80187 2.78715 1.7755 3.10989C1.74999 3.42215 1.74999 3.80677 1.75 4.27892V11.7175C1.74999 12.1896 1.74999 12.5743 1.7755 12.8865C1.80187 13.2093 1.85797 13.4985 1.99524 13.7679C2.21095 14.1913 2.55516 14.5355 2.97852 14.7512C3.24793 14.8885 3.53715 14.9445 3.85989 14.9709C4.17215 14.9964 4.55677 14.9964 5.02892 14.9964H10.9677C11.4399 14.9964 11.8245 14.9964 12.1368 14.9709C12.4595 14.9445 12.7487 14.8885 13.0181 14.7512C13.4415 14.5355 13.7857 14.1913 14.0014 13.7679C14.1387 13.4985 14.1948 13.2093 14.2212 12.8865C14.2467 12.5743 14.2467 12.1896 14.2467 11.7175V4.27891C14.2467 3.80677 14.2467 3.42215 14.2212 3.10989C14.1948 2.78715 14.1387 2.49793 14.0014 2.22852C13.7857 1.80516 13.4415 1.46095 13.0181 1.24524C12.7487 1.10797 12.4595 1.05187 12.1368 1.0255C11.8245 0.99999 11.4399 0.999995 10.9677 1H5.02893ZM3.43251 2.13624C3.53745 2.08277 3.68042 2.0435 3.94132 2.02218C4.20805 2.00039 4.5517 2 5.05 2H10.9467C11.4449 2 11.7886 2.00039 12.0553 2.02218C12.3162 2.0435 12.4592 2.08277 12.5641 2.13624C12.7993 2.25608 12.9906 2.44731 13.1104 2.68251C13.1639 2.78745 13.2032 2.93042 13.2245 3.19132C13.2463 3.45805 13.2467 3.8017 13.2467 4.3V5.21525H2.75V4.3C2.75 3.8017 2.75039 3.45805 2.77218 3.19132C2.7935 2.93042 2.83277 2.78745 2.88624 2.68251C3.00608 2.44731 3.19731 2.25608 3.43251 2.13624ZM2.75 6.21525V11.6964C2.75 12.1947 2.75039 12.5384 2.77218 12.8051C2.7935 13.066 2.83277 13.209 2.88624 13.3139C3.00608 13.5491 3.19731 13.7403 3.43251 13.8602C3.53745 13.9136 3.68042 13.9529 3.94132 13.9742C4.20805 13.996 4.55171 13.9964 5.05 13.9964H10.9467C11.445 13.9964 11.7886 13.996 12.0553 13.9742C12.3162 13.9529 12.4592 13.9136 12.5641 13.8602C12.7993 13.7403 12.9906 13.5491 13.1104 13.3139C13.1639 13.209 13.2032 13.066 13.2245 12.8051C13.2463 12.5384 13.2467 12.1947 13.2467 11.6964V6.21525H2.75Z" fill="white"/>
</svg>
