<svg width="16" height="16" viewBox="0 0 16 16" fill="none" xmlns="http://www.w3.org/2000/svg">
<path fill-rule="evenodd" clip-rule="evenodd" d="M5.47648 3.73812C5.47648 3.74543 5.47664 3.7527 5.47695 3.75994H1.75C1.47386 3.75994 1.25 3.9838 1.25 4.25994C1.25 4.53608 1.47386 4.75994 1.75 4.75994H2.72002L2.72002 9.47634C2.72001 9.94849 2.72001 10.3331 2.74552 10.6454C2.77189 10.9681 2.82798 11.2573 2.96525 11.5267C3.18097 11.9501 3.52517 12.2943 3.94854 12.51C4.21794 12.6473 4.50717 12.7034 4.8299 12.7298C5.14217 12.7553 5.52678 12.7553 5.99893 12.7553H6.89506C7.1712 12.7553 7.39506 12.5314 7.39506 12.2553C7.39506 11.9791 7.1712 11.7553 6.89506 11.7553H6.02002C5.52172 11.7553 5.17807 11.7549 4.91134 11.7331C4.65044 11.7118 4.50747 11.6725 4.40253 11.619C4.16733 11.4992 3.9761 11.308 3.85626 11.0728C3.80279 10.9678 3.76351 10.8248 3.7422 10.5639C3.72041 10.2972 3.72002 9.95356 3.72002 9.45527V4.75994H11.9076V7.04092C11.9076 7.31706 12.1315 7.54092 12.4076 7.54092C12.6838 7.54092 12.9076 7.31706 12.9076 7.04092V4.75994H13.8776C14.1538 4.75994 14.3776 4.53608 14.3776 4.25994C14.3776 3.9838 14.1538 3.75994 13.8776 3.75994H10.1511C10.1514 3.7527 10.1515 3.74543 10.1515 3.73812C10.1515 2.4762 9.07842 1.5 7.814 1.5C6.54959 1.5 5.47648 2.4762 5.47648 3.73812ZM7.814 2.5C7.04875 2.5 6.47648 3.08016 6.47648 3.73812C6.47648 3.74543 6.47633 3.7527 6.47602 3.75994H9.15199C9.15168 3.7527 9.15152 3.74543 9.15152 3.73812C9.15152 3.08016 8.57926 2.5 7.814 2.5Z" fill="white"/>
<path d="M11.6543 8.38507C11.5999 8.22837 11.3782 8.22837 11.3238 8.38507L10.9275 9.52476C10.7086 10.1542 10.2041 10.6424 9.56776 10.8403L8.35115 11.2188C8.18713 11.2698 8.18713 11.502 8.35115 11.553L9.56777 11.9315C10.2041 12.1294 10.7086 12.6176 10.9275 13.247L11.3238 14.3867C11.3782 14.5434 11.5999 14.5434 11.6543 14.3867L12.0506 13.247C12.2694 12.6176 12.774 12.1294 13.4103 11.9315L14.6269 11.553C14.791 11.502 14.791 11.2698 14.6269 11.2188L13.4103 10.8403C12.774 10.6424 12.2694 10.1542 12.0506 9.52476L11.6543 8.38507Z" fill="white"/>
</svg>
