<svg width="16" height="16" viewBox="0 0 16 16" fill="none" xmlns="http://www.w3.org/2000/svg">
<path fill-rule="evenodd" clip-rule="evenodd" d="M5.4847 3.7597C5.48491 2.48551 6.56637 1.5 7.84036 1.5C9.11434 1.5 10.1958 2.48551 10.196 3.7597H13.8815C14.1848 3.7597 14.4307 3.99265 14.4307 4.28C14.4307 4.56736 14.1848 4.8003 13.8815 4.8003H12.9662V8.80987L12.719 8.09793C12.3327 6.98493 10.6708 6.98494 10.2844 8.09793L9.89879 9.20875C9.78981 9.52268 9.52991 9.76891 9.19854 9.87216L8.02603 10.2375C6.85122 10.6035 6.85122 12.178 8.02603 12.544L8.77775 12.7782H6.16975C5.67666 12.7782 5.27341 12.7782 4.94567 12.7529C4.60645 12.7266 4.30007 12.6706 4.01394 12.5325C3.56615 12.3163 3.20208 11.9714 2.97391 11.5472C2.82812 11.2761 2.76901 10.9859 2.74129 10.6645C2.71451 10.354 2.71452 9.97194 2.71452 9.5048L2.71452 4.8003H1.7992C1.49588 4.8003 1.25 4.56736 1.25 4.28C1.25 3.99265 1.49588 3.7597 1.7992 3.7597H5.4847ZM6.5347 3.7597C6.53492 3.11772 7.09253 2.55 7.84036 2.55C8.58818 2.55 9.14579 3.11772 9.14601 3.7597H6.5347Z" fill="white"/>
<path d="M11.667 8.39811C11.6125 8.24129 11.3908 8.24129 11.3363 8.3981L10.943 9.53106C10.7245 10.1606 10.2201 10.6491 9.58387 10.8473L8.37659 11.2235C8.21266 11.2745 8.21266 11.5065 8.37659 11.5576L9.58387 11.9338C10.2201 12.132 10.7245 12.6205 10.943 13.25L11.3363 14.383C11.3908 14.5398 11.6125 14.5398 11.667 14.383L12.0603 13.25C12.2788 12.6205 12.7832 12.132 13.4195 11.9338L14.6267 11.5576C14.7907 11.5065 14.7907 11.2745 14.6267 11.2235L13.4195 10.8473C12.7832 10.6491 12.2788 10.1606 12.0603 9.53106L11.667 8.39811Z" fill="white"/>
</svg>
