<svg width="16" height="16" viewBox="0 0 16 16" fill="none" xmlns="http://www.w3.org/2000/svg">
<path fill-rule="evenodd" clip-rule="evenodd" d="M5.74194 3.5107C5.74194 2.26361 6.75118 1.25 7.99822 1.25C9.24525 1.25 10.2545 2.26266 10.2545 3.50975L13.7939 3.5107C14.0849 3.5107 14.3208 3.74716 14.3208 4.03884C14.3208 4.33053 14.0849 4.56699 13.7939 4.56699H12.9158V9.34241C12.9158 9.81657 12.9158 10.2044 12.8901 10.5196C12.8635 10.8458 12.8068 11.1404 12.6669 11.4156C12.448 11.8462 12.0988 12.1963 11.6691 12.4157C11.3946 12.5559 11.1007 12.6128 10.7753 12.6394C10.4609 12.6652 10.074 12.6652 9.601 12.6652H6.39548C5.92246 12.6652 5.53555 12.6652 5.22114 12.6394C4.8957 12.6128 4.60177 12.5559 4.32727 12.4157C3.89767 12.1963 3.54839 11.8462 3.3295 11.4156C3.18963 11.1404 3.13291 10.8458 3.10632 10.5196C3.08064 10.2044 3.08064 9.81659 3.08065 9.3424V4.56699H2.20251C1.91152 4.56699 1.67563 4.33053 1.67563 4.03884C1.67563 3.74716 1.91152 3.5107 2.20251 3.5107H5.74194ZM6.74194 3.50975C6.74194 2.81308 7.30533 2.25 7.99822 2.25C8.6911 2.25 9.25449 2.81308 9.25449 3.50975H6.74194Z" fill="white"/>
<path d="M14.4964 9.87681C14.7726 9.87681 14.9964 10.1007 14.9964 10.3768L14.9964 10.4203C14.9851 12.8068 13.0533 14.7386 10.6669 14.7498L10.6234 14.7499H5.37304L5.32955 14.7498C2.94309 14.7386 1.01127 12.8068 1.00005 10.4203L1 10.3768H2L2.00004 10.4156C2.00868 12.2535 3.49641 13.7412 5.33425 13.7498H10.6622C12.5 13.7412 13.9877 12.2535 13.9964 10.4156L13.9964 10.3768C13.9964 10.1007 14.2203 9.87681 14.4964 9.87681Z" fill="white"/>
</svg>
