<svg width="16" height="16" viewBox="0 0 16 16" fill="none" xmlns="http://www.w3.org/2000/svg">
<path fill-rule="evenodd" clip-rule="evenodd" d="M5.35645 4.0191C5.35645 4.02941 5.35677 4.03964 5.35738 4.04979H1.75C1.47386 4.04979 1.25 4.27365 1.25 4.54979C1.25 4.82593 1.47386 5.04979 1.75 5.04979H2.67833L2.67832 10.5945C2.67823 10.9114 2.67817 11.1354 2.71315 11.3319C2.87844 12.2606 3.60541 12.9875 4.53403 13.1528C4.73055 13.1878 4.95461 13.1877 5.27147 13.1877L5.32083 13.1876C5.59697 13.1876 5.82083 12.9638 5.82083 12.6876C5.82083 12.4115 5.59697 12.1876 5.32083 12.1876C4.93468 12.1876 4.80699 12.1857 4.70928 12.1683C4.19337 12.0765 3.78951 11.6726 3.69768 11.1567C3.68028 11.059 3.67833 10.9313 3.67833 10.5451V5.04979H11.6054V10.9185C11.6054 11.1947 11.8293 11.4185 12.1054 11.4185C12.3816 11.4185 12.6054 11.1947 12.6054 10.9185V5.04979H13.5337C13.8099 5.04979 14.0337 4.82593 14.0337 4.54979C14.0337 4.27365 13.8099 4.04979 13.5337 4.04979H9.92636C9.92697 4.03964 9.92729 4.02941 9.92729 4.0191C9.92729 2.76159 8.89973 1.75 7.64187 1.75C6.38401 1.75 5.35645 2.76159 5.35645 4.0191ZM7.64187 2.75C6.92762 2.75 6.35645 3.32251 6.35645 4.0191C6.35645 4.02941 6.35614 4.03964 6.35553 4.04979H8.92821C8.9276 4.03964 8.92729 4.02941 8.92729 4.0191C8.92729 3.32251 8.35612 2.75 7.64187 2.75Z" fill="white"/>
<path fill-rule="evenodd" clip-rule="evenodd" d="M7.46334 12.1873C7.18719 12.1873 6.96334 12.4111 6.96334 12.6873C6.96334 12.9634 7.18719 13.1873 7.46334 13.1873H9.18463C9.38949 13.8036 9.97076 14.248 10.6558 14.248H11.0554C11.7405 14.248 12.3218 13.8036 12.5266 13.1873H14.2479C14.5241 13.1873 14.7479 12.9634 14.7479 12.6873C14.7479 12.4111 14.5241 12.1873 14.2479 12.1873H7.46334ZM10.6558 13.248C10.5652 13.248 10.4797 13.2261 10.4043 13.1873H11.3069C11.2315 13.2261 11.146 13.248 11.0554 13.248H10.6558Z" fill="white"/>
</svg>
