<svg width="16" height="16" viewBox="0 0 16 16" fill="none" xmlns="http://www.w3.org/2000/svg">
<path d="M4.29516 4.48586C4.68519 4.48586 5.00137 4.17134 5.00137 3.78335C5.00137 3.39537 4.68519 3.08084 4.29516 3.08084C3.90514 3.08084 3.58896 3.39537 3.58896 3.78335C3.58896 4.17134 3.90514 4.48586 4.29516 4.48586Z" fill="white"/>
<path d="M7.85583 3.78306C7.85583 3.50691 8.07969 3.28306 8.35583 3.28306H11.5338C11.8099 3.28306 12.0338 3.50691 12.0338 3.78306C12.0338 4.0592 11.8099 4.28306 11.5338 4.28306H8.35583C8.07969 4.28306 7.85583 4.0592 7.85583 3.78306Z" fill="white"/>
<path fill-rule="evenodd" clip-rule="evenodd" d="M4.77893 1H10.8734C11.3456 0.999995 11.7302 0.99999 12.0425 1.0255C12.3652 1.05187 12.6544 1.10797 12.9238 1.24524C13.3472 1.46095 13.6914 1.80516 13.9071 2.22852C14.0444 2.49793 14.1005 2.78715 14.1269 3.10989C14.1524 3.42215 14.1524 3.80677 14.1524 4.27891V9.75448C14.1524 10.0306 13.9285 10.2545 13.6524 10.2545C13.3762 10.2545 13.1524 10.0306 13.1524 9.75448V6.21525H2.5V11.6964C2.5 12.1947 2.50039 12.5384 2.52218 12.8051C2.5435 13.066 2.58277 13.209 2.63624 13.3139C2.75608 13.5491 2.94731 13.7403 3.18251 13.8602C3.28745 13.9136 3.43042 13.9529 3.69132 13.9742C3.95805 13.996 4.30171 13.9964 4.8 13.9964H9.59169C9.86784 13.9964 10.0917 14.2203 10.0917 14.4964C10.0917 14.7726 9.86784 14.9964 9.59169 14.9964H4.77892C4.30677 14.9964 3.92215 14.9964 3.60989 14.9709C3.28715 14.9445 2.99793 14.8885 2.72852 14.7512C2.30516 14.5355 1.96095 14.1913 1.74524 13.7679C1.60797 13.4985 1.55187 13.2093 1.5255 12.8865C1.49999 12.5743 1.49999 12.1896 1.5 11.7175V4.27892C1.49999 3.80678 1.49999 3.42215 1.5255 3.10989C1.55187 2.78715 1.60797 2.49793 1.74524 2.22852C1.96095 1.80516 2.30516 1.46095 2.72852 1.24524C2.99793 1.10797 3.28715 1.05187 3.60989 1.0255C3.92215 0.99999 4.30678 0.999995 4.77893 1ZM13.1524 4.3V5.21525H2.5V4.3C2.5 3.8017 2.50039 3.45805 2.52218 3.19132C2.5435 2.93042 2.58277 2.78745 2.63624 2.68251C2.75608 2.44731 2.94731 2.25608 3.18251 2.13624C3.28745 2.08277 3.43042 2.0435 3.69132 2.02218C3.95805 2.00039 4.3017 2 4.8 2H10.8524C11.3507 2 11.6943 2.00039 11.9611 2.02218C12.2219 2.0435 12.3649 2.08277 12.4699 2.13624C12.7051 2.25608 12.8963 2.44731 13.0161 2.68251C13.0696 2.78745 13.1089 2.93042 13.1302 3.19132C13.152 3.45805 13.1524 3.8017 13.1524 4.3Z" fill="white"/>
<path d="M11.5234 8.50087C11.4704 8.34079 11.244 8.34079 11.191 8.50087L10.8162 9.6346C10.6069 10.2678 10.1092 10.7639 9.47534 10.9713L8.33457 11.3445C8.17379 11.3971 8.17379 11.6246 8.33457 11.6772L9.47535 12.0504C10.1092 12.2578 10.6069 12.7539 10.8162 13.3871L11.191 14.5208C11.244 14.6809 11.4704 14.6809 11.5234 14.5208L11.8982 13.3871C12.1075 12.7539 12.6052 12.2578 13.2391 12.0504L14.3798 11.6772C14.5406 11.6246 14.5406 11.3971 14.3798 11.3445L13.2391 10.9713C12.6052 10.7639 12.1075 10.2678 11.8982 9.6346L11.5234 8.50087Z" fill="white"/>
</svg>
