<svg width="16" height="16" viewBox="0 0 16 16" fill="none" xmlns="http://www.w3.org/2000/svg">
<path fill-rule="evenodd" clip-rule="evenodd" d="M5.35645 4.01901C5.35645 4.02932 5.35676 4.03955 5.35737 4.0497H1.75C1.47386 4.0497 1.25 4.27356 1.25 4.5497C1.25 4.82584 1.47386 5.0497 1.75 5.0497H2.67833L2.67832 10.594C2.67823 10.9109 2.67817 11.1349 2.71315 11.3315C2.87845 12.2601 3.60541 12.9871 4.53403 13.1523C4.73055 13.1873 4.95461 13.1873 5.27147 13.1872L5.32083 13.1872C5.59697 13.1872 5.82083 12.9633 5.82083 12.6872C5.82083 12.411 5.59697 12.1872 5.32083 12.1872C4.93468 12.1872 4.80699 12.1852 4.70928 12.1678C4.19337 12.076 3.78951 11.6721 3.69768 11.1562C3.68028 11.0585 3.67833 10.9308 3.67833 10.5447V5.0497H11.6054V8.44153C11.6054 8.71767 11.8293 8.94153 12.1054 8.94153C12.3816 8.94153 12.6054 8.71767 12.6054 8.44153V5.0497H13.5337C13.8099 5.0497 14.0337 4.82584 14.0337 4.5497C14.0337 4.27356 13.8099 4.0497 13.5337 4.0497H9.92635C9.92697 4.03955 9.92728 4.02932 9.92728 4.01901C9.92728 2.76153 8.8997 1.75 7.64186 1.75C6.38402 1.75 5.35645 2.76153 5.35645 4.01901ZM7.64186 2.75C6.92759 2.75 6.35645 3.3225 6.35645 4.01901C6.35645 4.02932 6.35613 4.03955 6.35552 4.0497H8.9282C8.92759 4.03955 8.92728 4.02932 8.92728 4.01901C8.92728 3.3225 8.35614 2.75 7.64186 2.75Z" fill="white"/>
<path d="M6.96333 10.5643C6.96333 10.2882 7.18719 10.0643 7.46333 10.0643H14.2479C14.5241 10.0643 14.7479 10.2882 14.7479 10.5643C14.7479 10.8405 14.5241 11.0643 14.2479 11.0643H7.46333C7.18719 11.0643 6.96333 10.8405 6.96333 10.5643Z" fill="white"/>
<path fill-rule="evenodd" clip-rule="evenodd" d="M6.96333 12.6874C6.96333 12.4113 7.18719 12.1874 7.46333 12.1874H14.2479C14.5241 12.1874 14.7479 12.4113 14.7479 12.6874C14.7479 12.9636 14.5241 13.1874 14.2479 13.1874H12.5266C12.3217 13.8037 11.7405 14.2481 11.0554 14.2481H10.6558C9.97077 14.2481 9.38951 13.8037 9.18465 13.1874H7.46333C7.18719 13.1874 6.96333 12.9636 6.96333 12.6874ZM10.4044 13.1874C10.4798 13.2262 10.5652 13.2481 10.6558 13.2481H11.0554C11.146 13.2481 11.2315 13.2262 11.3068 13.1874H10.4044Z" fill="white"/>
</svg>
