<svg width="16" height="16" viewBox="0 0 16 16" fill="none" xmlns="http://www.w3.org/2000/svg">
<path fill-rule="evenodd" clip-rule="evenodd" d="M9.29666 14.9675C8.86977 15.0907 8.42254 14.8524 8.28215 14.4269L7.56448 12.2519C7.47833 11.9908 7.36081 11.7414 7.21456 11.5092L5.72191 9.21673C5.61186 9.04202 5.48662 8.87878 5.34814 8.7287C4.97255 9.34712 4.19388 9.67409 3.44546 9.39056L2.77683 9.13726C2.19245 8.91587 1.7921 8.36739 1.75545 7.73797L1.50276 3.39836C1.45394 2.5598 2.05748 1.8268 2.88256 1.72261L3.5832 1.63413C4.19091 1.55739 4.75602 1.83963 5.07853 2.31088L9.20608 1.4044C10.4829 1.12398 11.7917 1.71625 12.4347 2.86544L14.2018 6.02385C15.0608 7.55914 13.9628 9.46018 12.2171 9.46018H10.7745C10.4288 9.46018 10.1771 9.79119 10.2661 10.1286L10.7745 12.3354C11.0748 13.4731 10.4173 14.6441 9.29666 14.9675ZM3.81491 8.39528C4.16886 8.52937 4.54311 8.25382 4.52513 7.87236L4.30446 3.19097C4.28989 2.88173 4.0178 2.65048 3.71371 2.68888L3.01306 2.77736C2.73804 2.81209 2.53686 3.05642 2.55313 3.33594L2.80582 7.67555C2.81803 7.88535 2.95149 8.06818 3.14628 8.14198L3.81491 8.39528Z" fill="white"/>
</svg>
