<svg width="16" height="16" viewBox="0 0 16 16" fill="none" xmlns="http://www.w3.org/2000/svg">
<path fill-rule="evenodd" clip-rule="evenodd" d="M7.97106 14.4635C8.1708 15.0528 8.80047 15.3725 9.39275 15.206C10.6958 14.8399 11.4721 13.5078 11.1185 12.2035L10.4366 9.68834C10.405 9.57179 10.4926 9.43745 10.6427 9.43745H12.1086C14.116 9.43745 15.408 7.298 14.4036 5.5502L12.6081 2.42549C11.8832 1.16406 10.4124 0.519455 8.98232 0.82524L4.82989 1.71314C4.50929 1.24758 3.94305 0.971422 3.33826 1.04578L2.62557 1.13341C1.81351 1.23325 1.20608 1.938 1.25249 2.75969L1.51481 7.40398C1.54977 8.02301 1.95277 8.55717 2.53308 8.77122L3.21373 9.02228C3.84335 9.25451 4.49768 9.06184 4.90943 8.6274C5.03136 8.7577 5.14182 8.89882 5.23922 9.04937L6.9213 11.6493C7.05537 11.8565 7.16299 12.079 7.24183 12.3116L7.97106 14.4635ZM5.32953 7.64631C5.33191 7.59729 5.33199 7.54771 5.32967 7.49768L5.10688 2.67652L9.19142 1.80313C10.2036 1.58671 11.2361 2.04507 11.741 2.92373L13.5366 6.04843C14.1436 7.10476 13.3759 8.43745 12.1086 8.43745H10.6427C9.85609 8.43745 9.26166 9.1764 9.4714 9.95L10.1533 12.4652C10.3599 13.2272 9.90975 14.022 9.12221 14.2433C9.0304 14.2691 8.94341 14.217 8.91816 14.1425L8.18892 11.9907C8.08348 11.6795 7.9397 11.3825 7.7609 11.1061L6.07882 8.50617C5.87043 8.18407 5.61768 7.89501 5.32953 7.64631ZM4.31093 7.71849C4.22668 8.01273 3.88805 8.20514 3.55979 8.08406L2.87914 7.833C2.66535 7.75415 2.5253 7.56147 2.51322 7.34759L2.2509 2.7033C2.23497 2.42128 2.44449 2.1632 2.7476 2.12593L3.46029 2.03831C3.74793 2.00294 4.00246 2.18073 4.0778 2.42846C4.09043 2.46998 4.09831 2.5142 4.10047 2.56087L4.33074 7.54384C4.33366 7.60703 4.32616 7.6653 4.31093 7.71849Z" fill="white"/>
</svg>
