<svg width="16" height="16" viewBox="0 0 16 16" fill="none" xmlns="http://www.w3.org/2000/svg">
<path d="M5.77893 1C5.30679 0.999995 4.92215 0.999991 4.60989 1.0255C4.28715 1.05187 3.99793 1.10797 3.72852 1.24524C3.30516 1.46095 2.96095 1.80516 2.74524 2.22852C2.60797 2.49793 2.55187 2.78715 2.5255 3.10989C2.49999 3.42215 2.49999 3.80677 2.5 4.27891V11.7175C2.49999 12.1896 2.49999 12.5743 2.5255 12.8865C2.55187 13.2093 2.60797 13.4985 2.74524 13.7679C2.96095 14.1913 3.30516 14.5355 3.72852 14.7512C3.99793 14.8885 4.28715 14.9445 4.60989 14.9709C4.92215 14.9964 5.30677 14.9964 5.77891 14.9964H8.18866C7.85739 14.7034 7.56527 14.3671 7.32115 13.9964H5.8C5.3017 13.9964 4.95805 13.996 4.69132 13.9742C4.43042 13.9529 4.28745 13.9136 4.18251 13.8602C3.94731 13.7403 3.75608 13.5491 3.63624 13.3139C3.58277 13.209 3.5435 13.066 3.52218 12.8051C3.50039 12.5384 3.5 12.1947 3.5 11.6964V4.3C3.5 3.8017 3.50039 3.45805 3.52218 3.19132C3.5435 2.93042 3.58277 2.78745 3.63624 2.68251C3.75608 2.44731 3.94731 2.25608 4.18251 2.13624C4.28745 2.08277 4.43042 2.0435 4.69132 2.02218C4.95805 2.00039 5.3017 2 5.8 2H10.1972C10.6954 2 11.0391 2.00039 11.3058 2.02218C11.5667 2.0435 11.7097 2.08277 11.8146 2.13624C12.0498 2.25608 12.2411 2.44731 12.3609 2.68251C12.4144 2.78745 12.4537 2.93042 12.475 3.19132C12.4968 3.45805 12.4972 3.8017 12.4972 4.3V6.34944C12.8449 6.41983 13.1796 6.52631 13.4972 6.6648V4.27891C13.4972 3.80677 13.4972 3.42215 13.4716 3.10989C13.4453 2.78715 13.3892 2.49793 13.2519 2.22852C13.0362 1.80516 12.692 1.46095 12.2686 1.24524C11.9992 1.10797 11.71 1.05187 11.3873 1.0255C11.075 0.999991 10.6904 0.999995 10.2183 1H5.77893Z" fill="white"/>
<path d="M5.24023 3.80957C4.96409 3.80957 4.74023 4.03343 4.74023 4.30957C4.74023 4.58571 4.96409 4.80957 5.24023 4.80957H10.7559C11.032 4.80957 11.2559 4.58571 11.2559 4.30957C11.2559 4.03343 11.032 3.80957 10.7559 3.80957H5.24023Z" fill="white"/>
<path d="M5.24023 6.09C4.96409 6.09 4.74023 6.31386 4.74023 6.59C4.74023 6.86614 4.96409 7.09 5.24023 7.09H7.99807C8.27421 7.09 8.49807 6.86614 8.49807 6.59C8.49807 6.31386 8.27421 6.09 7.99807 6.09H5.24023Z" fill="white"/>
<path d="M10.9868 8.51066C11.3889 8.1045 11.8287 7.97381 12.2391 8.0042C12.6631 8.0356 13.0884 8.24277 13.42 8.56922C13.7514 8.89553 13.9627 9.31482 13.9955 9.73822C14.0272 10.1479 13.8958 10.6011 13.4687 11.0326L10.8273 13.7011C10.5872 13.9436 10.3347 14.0147 10.1036 13.9976C9.85882 13.9795 9.6048 13.8585 9.40316 13.6599C9.20168 13.4616 9.07893 13.2119 9.06011 12.9688C9.04236 12.7394 9.1131 12.4771 9.37159 12.2159L11.9751 9.58591C12.0532 9.50711 12.1183 9.49566 12.1702 9.4995C12.2356 9.50434 12.3183 9.53915 12.39 9.60974C12.4616 9.68017 12.4957 9.76011 12.5006 9.82298C12.5044 9.87205 12.4938 9.94385 12.4045 10.0344L10.2432 12.2026C10.0482 12.3982 10.0487 12.7148 10.2443 12.9097C10.4399 13.1047 10.7565 13.1042 10.9514 12.9086L13.1141 10.739L13.1154 10.7377C13.4001 10.4499 13.5248 10.0971 13.4976 9.74574C13.4714 9.40802 13.3088 9.11096 13.0916 8.89717C12.8747 8.68353 12.5769 8.52688 12.244 8.50223C12.2149 8.50007 12.1857 8.49895 12.1565 8.49888C11.8389 8.49809 11.5227 8.62159 11.2644 8.88239L8.6609 11.5124C8.20743 11.9705 8.02194 12.5142 8.0631 13.046C8.10319 13.564 8.35449 14.0308 8.70156 14.3725C9.04848 14.7141 9.51753 14.9569 10.0297 14.9949C10.5556 15.0338 11.094 14.8531 11.538 14.4046L14.1794 11.736C14.8015 11.1076 15.0476 10.3731 14.9925 9.66105C14.9384 8.96274 14.5986 8.3263 14.1216 7.85665C13.6447 7.38716 13.0044 7.05814 12.313 7.00693C11.6079 6.95472 10.8821 7.19511 10.2761 7.8071L8.14488 9.95745C7.95048 10.1536 7.9519 10.4702 8.14803 10.6645C8.34415 10.8589 8.66073 10.8575 8.85512 10.6614L10.9868 8.51066Z" fill="white"/>
</svg>
