<svg width="16" height="16" viewBox="0 0 16 16" fill="none" xmlns="http://www.w3.org/2000/svg">
<path fill-rule="evenodd" clip-rule="evenodd" d="M4.69132 2.02218C4.90086 2.00506 5.15787 2.00115 5.50004 2.00026C5.50543 2.686 6.06299 3.24023 6.75 3.24023H9.25C9.93701 3.24023 10.4946 2.68601 10.5 2.00027C10.8407 2.00117 11.0969 2.00511 11.3058 2.02218C11.5667 2.0435 11.7097 2.08277 11.8146 2.13624C12.0498 2.25608 12.2411 2.44731 12.3609 2.68251C12.4144 2.78745 12.4537 2.93042 12.475 3.19132C12.4968 3.45805 12.4972 3.8017 12.4972 4.3V7.52715C12.8439 7.56525 13.1787 7.64275 13.4972 7.75505V4.27891C13.4972 3.80677 13.4972 3.42215 13.4716 3.10989C13.4453 2.78715 13.3892 2.49793 13.2519 2.22852C13.0362 1.80516 12.692 1.46095 12.2686 1.24524C11.9992 1.10797 11.71 1.05187 11.3873 1.0255C11.075 0.999991 10.6904 0.999995 10.2183 1H10.0129C9.80186 0.837122 9.53724 0.740234 9.25 0.740234H6.75C6.46276 0.740234 6.19814 0.837122 5.98705 1H5.77893C5.30679 0.999995 4.92215 0.999991 4.60989 1.0255C4.28715 1.05187 3.99793 1.10797 3.72852 1.24524C3.30516 1.46095 2.96095 1.80516 2.74524 2.22852C2.60797 2.49793 2.55187 2.78715 2.5255 3.10989C2.49999 3.42215 2.49999 3.80676 2.5 4.2789V11.7175C2.49999 12.1896 2.49999 12.5743 2.5255 12.8865C2.55187 13.2093 2.60797 13.4985 2.74524 13.7679C2.96095 14.1913 3.30516 14.5355 3.72852 14.7512C3.99793 14.8885 4.28715 14.9445 4.60989 14.9709C4.92215 14.9964 5.30677 14.9964 5.77891 14.9964H8.64264C8.37475 14.6965 8.14646 14.3604 7.96598 13.9964H5.8C5.3017 13.9964 4.95805 13.996 4.69132 13.9742C4.43042 13.9529 4.28745 13.9136 4.18251 13.8602C3.94731 13.7403 3.75608 13.5491 3.63624 13.3139C3.58277 13.209 3.5435 13.066 3.52218 12.8051C3.50039 12.5384 3.5 12.1947 3.5 11.6964V4.3C3.5 3.8017 3.50039 3.45805 3.52218 3.19132C3.5435 2.93042 3.58277 2.78745 3.63624 2.68251C3.75608 2.44731 3.94731 2.25608 4.18251 2.13624C4.28745 2.08277 4.43042 2.0435 4.69132 2.02218ZM6.75 2.24023C6.61356 2.24023 6.50265 2.13093 6.50005 1.99512C6.50265 1.8593 6.61356 1.75 6.75 1.75H9.25C9.38644 1.75 9.49735 1.8593 9.49995 1.99512C9.49735 2.13093 9.38644 2.24023 9.25 2.24023H6.75Z" fill="white"/>
<path d="M5.24023 3.80957C4.96409 3.80957 4.74023 4.03343 4.74023 4.30957C4.74023 4.58571 4.96409 4.80957 5.24023 4.80957H10.7559C11.032 4.80957 11.2559 4.58571 11.2559 4.30957C11.2559 4.03343 11.032 3.80957 10.7559 3.80957H5.24023Z" fill="white"/>
<path d="M5.24023 6.09C4.96409 6.09 4.74023 6.31386 4.74023 6.59C4.74023 6.86614 4.96409 7.09 5.24023 7.09H7.99807C8.27421 7.09 8.49807 6.86614 8.49807 6.59C8.49807 6.31386 8.27421 6.09 7.99807 6.09H5.24023Z" fill="white"/>
<path fill-rule="evenodd" clip-rule="evenodd" d="M15.75 12C15.75 14.0711 14.0711 15.75 12 15.75C9.92893 15.75 8.25 14.0711 8.25 12C8.25 9.92893 9.92893 8.25 12 8.25C14.0711 8.25 15.75 9.92893 15.75 12ZM14.2928 10.7303C14.4295 10.8669 14.4295 11.0886 14.2928 11.2252L11.5656 13.9525C11.4999 14.0181 11.4109 14.055 11.3181 14.055C11.2253 14.055 11.1362 14.0181 11.0706 13.9525L9.70696 12.5889C9.57028 12.4522 9.57028 12.2306 9.70696 12.0939C9.84365 11.9572 10.0653 11.9572 10.2019 12.0939L11.3181 13.21L13.7979 10.7303C13.9346 10.5936 14.1562 10.5936 14.2928 10.7303Z" fill="white"/>
</svg>
