<svg width="16" height="16" viewBox="0 0 16 16" fill="none" xmlns="http://www.w3.org/2000/svg">
<path fill-rule="evenodd" clip-rule="evenodd" d="M2.74796 2.24217C2.5 2.72882 2.5 3.36588 2.5 4.64V11.36C2.5 12.6341 2.5 13.2712 2.74796 13.7578C2.96607 14.1859 3.3141 14.5339 3.74217 14.752C4.22882 15 4.86588 15 6.14 15H9.86C11.1341 15 11.7712 15 12.2578 14.752C12.6859 14.5339 13.0339 14.1859 13.252 13.7578C13.5 13.2712 13.5 12.6341 13.5 11.36V4.64C13.5 3.36588 13.5 2.72882 13.252 2.24217C13.0339 1.8141 12.6859 1.46607 12.2578 1.24796C11.7712 1 11.1341 1 9.86 1H6.14C4.86588 1 4.22882 1 3.74217 1.24796C3.3141 1.46607 2.96607 1.8141 2.74796 2.24217ZM5.24981 3.8252C4.97367 3.8252 4.74981 4.04905 4.74981 4.3252C4.74981 4.60134 4.97367 4.8252 5.24981 4.8252H10.7498C11.026 4.8252 11.2498 4.60134 11.2498 4.3252C11.2498 4.04905 11.026 3.8252 10.7498 3.8252H5.24981ZM5.24981 6.1002C4.97367 6.1002 4.74981 6.32405 4.74981 6.60019C4.74981 6.87634 4.97367 7.10019 5.24981 7.10019H10.7498C11.026 7.10019 11.2498 6.87634 11.2498 6.60019C11.2498 6.32405 11.026 6.1002 10.7498 6.1002H5.24981ZM5.24981 8.2002C4.97367 8.2002 4.74981 8.42405 4.74981 8.7002C4.74981 8.97634 4.97367 9.2002 5.24981 9.2002H7.99981C8.27595 9.2002 8.49981 8.97634 8.49981 8.7002C8.49981 8.42405 8.27595 8.2002 7.99981 8.2002H5.24981Z" fill="white"/>
</svg>
