<svg width="16" height="16" viewBox="0 0 16 16" fill="none" xmlns="http://www.w3.org/2000/svg">
<path fill-rule="evenodd" clip-rule="evenodd" d="M9.25 0.599609C9.61174 0.599609 9.93679 0.754395 10.165 1H10.7002C11.68 1 12.1706 0.999784 12.5449 1.19043C12.8739 1.35813 13.1418 1.62616 13.3096 1.95508C13.5001 2.32931 13.5 2.82037 13.5 3.7998V12.2002C13.5 13.1796 13.5001 13.6707 13.3096 14.0449C13.1418 14.3738 12.8739 14.6419 12.5449 14.8096C12.1706 15.0002 11.68 15 10.7002 15H5.2998C4.31998 15 3.82938 15.0002 3.45508 14.8096C3.12615 14.6419 2.85816 14.3738 2.69043 14.0449C2.49989 13.6707 2.5 13.1796 2.5 12.2002V3.7998C2.5 2.82037 2.49989 2.32931 2.69043 1.95508C2.85816 1.62616 3.12615 1.35813 3.45508 1.19043C3.82938 0.999784 4.31998 1 5.2998 1H5.83496C6.06321 0.754395 6.38826 0.599609 6.75 0.599609H9.25ZM5.25 6.09961C4.97399 6.09961 4.75021 6.32365 4.75 6.59961C4.75 6.87575 4.97386 7.09961 5.25 7.09961H8C8.27614 7.09961 8.5 6.87575 8.5 6.59961C8.49979 6.32365 8.27601 6.09961 8 6.09961H5.25ZM5.25 3.8252C4.97386 3.8252 4.75 4.04905 4.75 4.3252C4.75 4.60134 4.97386 4.8252 5.25 4.8252H10.75C11.0261 4.8252 11.25 4.60134 11.25 4.3252C11.25 4.04905 11.0261 3.8252 10.75 3.8252H5.25ZM6.75 1.5C6.61206 1.5 6.50021 1.61211 6.5 1.75C6.50026 1.88785 6.61209 2 6.75 2H9.25C9.38791 2 9.49974 1.88785 9.5 1.75C9.49979 1.61211 9.38794 1.5 9.25 1.5H6.75Z" fill="white"/>
</svg>
