<svg width="16" height="16" viewBox="0 0 16 16" fill="none" xmlns="http://www.w3.org/2000/svg">
<path fill-rule="evenodd" clip-rule="evenodd" d="M2.74796 2.24217C2.5 2.72882 2.5 3.36588 2.5 4.64V11.36C2.5 12.6341 2.5 13.2712 2.74796 13.7578C2.96607 14.1859 3.3141 14.5339 3.74217 14.752C4.22882 15 4.86588 15 6.14 15H8.64584C7.93328 14.2039 7.5 13.1525 7.5 12C7.5 9.51472 9.51472 7.5 12 7.5C12.526 7.5 13.0308 7.59023 13.5 7.75606V4.64C13.5 3.36588 13.5 2.72882 13.252 2.24217C13.0339 1.8141 12.6859 1.46607 12.2578 1.24796C11.7712 1 11.1341 1 9.86 1H6.14C4.86588 1 4.22882 1 3.74217 1.24796C3.3141 1.46607 2.96607 1.8141 2.74796 2.24217ZM5.24981 3.8252C4.97367 3.8252 4.74981 4.04905 4.74981 4.3252C4.74981 4.60134 4.97367 4.8252 5.24981 4.8252H10.7498C11.026 4.8252 11.2498 4.60134 11.2498 4.3252C11.2498 4.04905 11.026 3.8252 10.7498 3.8252H5.24981ZM5.24981 6.1C4.97367 6.1 4.74981 6.32386 4.74981 6.6C4.74981 6.87614 4.97367 7.1 5.24981 7.1H7.99981C8.27595 7.1 8.49981 6.87614 8.49981 6.6C8.49981 6.32386 8.27595 6.1 7.99981 6.1H5.24981Z" fill="white"/>
<path d="M12.4832 10.9941L10.5306 12.8779C10.3335 13.068 10.2824 13.2559 10.2955 13.4165C10.3094 13.5881 10.4004 13.7677 10.5544 13.9125C10.8674 14.2068 11.3248 14.2741 11.6693 13.9418L13.6504 12.0304C13.9739 11.7183 14.0932 11.375 14.047 11.1038C14.0227 10.8031 13.8651 10.5021 13.6137 10.2656L13.2906 10.4738C13.3009 10.4827 13.311 10.4918 13.3208 10.501C13.4807 10.6514 13.6037 10.8635 13.6236 11.1079C13.6443 11.3633 13.5488 11.6159 13.3384 11.819L13.3375 11.8199L11.7155 13.374C11.5759 13.5077 11.3544 13.5029 11.2206 13.3634C11.0869 13.2238 11.0917 13.0022 11.2312 12.8685L12.8523 11.3154C12.9224 11.2475 12.9284 11.196 12.9259 11.1645C12.9224 11.1221 12.8978 11.0641 12.8412 11.0109C12.785 10.9581 12.7163 10.9284 12.656 10.9242C12.6307 10.9224 12.604 10.9246 12.576 10.9343C12.5464 10.9445 12.5153 10.9631 12.4832 10.9941Z" fill="white"/>
<path fill-rule="evenodd" clip-rule="evenodd" d="M15.75 12C15.75 14.0711 14.0711 15.75 12 15.75C9.92893 15.75 8.25 14.0711 8.25 12C8.25 9.92893 9.92893 8.25 12 8.25C14.0711 8.25 15.75 9.92893 15.75 12ZM13.6137 10.2656C13.1058 9.78807 12.3295 9.65708 11.742 10.2238L10.1432 11.7644C10.0041 11.8985 9.78248 11.8944 9.64836 11.7552C9.51423 11.616 9.51834 11.3944 9.65753 11.2603L11.256 9.72004C12.1807 8.8282 13.3885 9.09305 14.0932 9.75569C14.4481 10.0894 14.704 10.5445 14.7447 11.0473C14.7864 11.561 14.5998 12.087 14.1364 12.5341L12.1554 14.4455C11.4737 15.1031 10.5848 14.9018 10.0749 14.4224C9.81747 14.1803 9.62802 13.8467 9.59774 13.4731C9.56657 13.0885 9.70763 12.6992 10.0446 12.3741L11.9972 10.4903C12.4222 10.0804 12.9705 10.1968 13.2906 10.4738L13.6137 10.2656Z" fill="white"/>
</svg>
