<svg width="16" height="16" viewBox="0 0 16 16" fill="none" xmlns="http://www.w3.org/2000/svg">
<path d="M7.99805 6.08984C8.27414 6.08984 8.49796 6.31377 8.49805 6.58984C8.49805 6.86599 8.27419 7.08984 7.99805 7.08984H5.24024C4.96409 7.08984 4.74024 6.86599 4.74024 6.58984C4.74032 6.31377 4.96414 6.08984 5.24024 6.08984H7.99805Z" fill="white"/>
<path d="M10.7559 3.80957C11.032 3.80957 11.2559 4.03343 11.2559 4.30957C11.2559 4.58571 11.032 4.80957 10.7559 4.80957H5.24024C4.96409 4.80957 4.74024 4.58571 4.74024 4.30957C4.74024 4.03343 4.96409 3.80957 5.24024 3.80957H10.7559Z" fill="white"/>
<path fill-rule="evenodd" clip-rule="evenodd" d="M9.25 0.740234C9.53663 0.740234 9.79988 0.837752 10.0107 1H10.1973C10.679 1 11.0708 0.999501 11.3877 1.02539C11.7102 1.05177 11.9993 1.10795 12.2686 1.24512C12.6919 1.46083 13.0362 1.80515 13.252 2.22852C13.3892 2.49792 13.4453 2.78762 13.4717 3.11035C13.4975 3.42713 13.4971 3.81833 13.4971 4.2998V11.6963C13.4971 12.1781 13.4976 12.5698 13.4717 12.8867C13.4453 13.2093 13.3891 13.4983 13.252 13.7676C13.0362 14.1909 12.6919 14.5353 12.2686 14.751C11.9993 14.8882 11.7103 14.9443 11.3877 14.9707C11.0708 14.9966 10.679 14.9961 10.1973 14.9961H5.79981C5.31833 14.9961 4.92713 14.9966 4.61035 14.9707C4.28762 14.9443 3.99792 14.8882 3.72852 14.751C3.30519 14.5353 2.96082 14.1909 2.74512 13.7676C2.60799 13.4983 2.55176 13.2093 2.52539 12.8867C2.4995 12.5698 2.5 12.1781 2.5 11.6963V4.2998C2.5 3.81834 2.49954 3.42712 2.52539 3.11035C2.55176 2.78763 2.60786 2.49791 2.74512 2.22852C2.96083 1.80515 3.30515 1.46083 3.72852 1.24512C3.99791 1.10786 4.28763 1.05176 4.61035 1.02539C4.92713 0.999541 5.31834 1 5.79981 1H5.98926C6.20012 0.837752 6.46337 0.740235 6.75 0.740234H9.25ZM10.499 2.00098C10.4932 2.68635 9.93675 3.24023 9.25 3.24023H6.75C6.06325 3.24023 5.5058 2.68636 5.5 2.00098C5.1579 2.00194 4.90093 2.00535 4.69141 2.02246C4.43051 2.04378 4.28756 2.08325 4.18262 2.13672C3.9475 2.25655 3.75655 2.4475 3.63672 2.68262C3.58325 2.78756 3.54378 2.93051 3.52246 3.19141C3.50068 3.45809 3.5 3.80165 3.5 4.2998V11.6963C3.5 12.1943 3.5007 12.538 3.52246 12.8047C3.54377 13.0655 3.58329 13.2086 3.63672 13.3135C3.75656 13.5487 3.94742 13.7405 4.18262 13.8604C4.28754 13.9138 4.43064 13.9533 4.69141 13.9746C4.95809 13.9964 5.30169 13.9961 5.79981 13.9961H10.1973C10.6954 13.9961 11.039 13.9964 11.3057 13.9746C11.5664 13.9533 11.7095 13.9138 11.8145 13.8604C12.0497 13.7405 12.2415 13.5487 12.3613 13.3135C12.4147 13.2086 12.4533 13.0652 12.4746 12.8047C12.4964 12.538 12.4971 12.1943 12.4971 11.6963V4.2998C12.4971 3.80165 12.4964 3.4581 12.4746 3.19141C12.4533 2.93072 12.4147 2.78753 12.3613 2.68262C12.2415 2.44743 12.0496 2.25656 11.8145 2.13672C11.7095 2.08325 11.5666 2.04378 11.3057 2.02246C11.0965 2.00538 10.8401 2.00195 10.499 2.00098ZM6.75 1.74023C6.61193 1.74023 6.5 1.85216 6.5 1.99023C6.50003 2.12828 6.61195 2.24023 6.75 2.24023H9.25C9.38805 2.24023 9.49997 2.12828 9.5 1.99023C9.5 1.85216 9.38807 1.74023 9.25 1.74023H6.75Z" fill="white"/>
</svg>
