<svg width="16" height="16" viewBox="0 0 16 16" fill="none" xmlns="http://www.w3.org/2000/svg">
<path fill-rule="evenodd" clip-rule="evenodd" d="M12 8.25C14.0711 8.25 15.75 9.92893 15.75 12C15.75 14.0711 14.0711 15.75 12 15.75C9.92893 15.75 8.25 14.0711 8.25 12C8.25 9.92893 9.92893 8.25 12 8.25ZM14 13.0508C13.8067 13.0508 13.6504 13.2071 13.6504 13.4004C13.6502 13.7592 13.3589 14.0508 13 14.0508H11C10.6411 14.0508 10.3498 13.7592 10.3496 13.4004C10.3496 13.2071 10.1933 13.0508 10 13.0508C9.8067 13.0508 9.65039 13.2071 9.65039 13.4004C9.6506 14.1458 10.2545 14.75 11 14.75H13C13.7455 14.75 14.3494 14.1458 14.3496 13.4004C14.3496 13.2071 14.1933 13.0508 14 13.0508ZM12 9.10547C11.8308 9.10547 11.6888 9.22512 11.6562 9.38477L11.6494 9.45508V12.1367L10.751 11.2109C10.6163 11.0725 10.3945 11.0696 10.2559 11.2041C10.1174 11.3388 10.1145 11.5606 10.249 11.6992L11.748 13.2441C11.8139 13.312 11.9054 13.3496 12 13.3496C12.0945 13.3495 12.1852 13.3119 12.251 13.2441L13.751 11.6992L13.7949 11.6436C13.8827 11.5065 13.8654 11.322 13.7441 11.2041C13.6227 11.0861 13.4373 11.074 13.3027 11.166L13.249 11.2109L12.3496 12.1377V9.45508L12.3428 9.38477C12.3103 9.22526 12.1691 9.10565 12 9.10547Z" fill="white" fill-opacity="0.96"/>
<path fill-rule="evenodd" clip-rule="evenodd" d="M9.86035 1C11.1342 1 11.7712 1.00011 12.2578 1.24805C12.6859 1.46616 13.0338 1.81414 13.252 2.24219C13.4999 2.72879 13.5 3.36576 13.5 4.63965V7.75684C13.0308 7.59095 12.526 7.5 12 7.5C9.51472 7.5 7.5 9.51472 7.5 12C7.5 13.1527 7.93375 14.2038 8.64648 15H6.13965C4.86576 15 4.22879 14.9999 3.74219 14.752C3.31414 14.5338 2.96616 14.1859 2.74805 13.7578C2.50011 13.2712 2.5 12.6342 2.5 11.3604V4.63965C2.5 3.36576 2.50011 2.72879 2.74805 2.24219C2.96616 1.81414 3.31414 1.46616 3.74219 1.24805C4.22879 1.00011 4.86576 1 6.13965 1H9.86035ZM5.25 6.09961C4.97399 6.09961 4.75021 6.32365 4.75 6.59961C4.75 6.87575 4.97386 7.09961 5.25 7.09961H8L8.10059 7.08984C8.32842 7.04322 8.5 6.84123 8.5 6.59961C8.49982 6.35817 8.32828 6.15697 8.10059 6.11035L8 6.09961H5.25ZM5.25 3.8252C4.97386 3.8252 4.75 4.04905 4.75 4.3252C4.75 4.60134 4.97386 4.8252 5.25 4.8252H10.75C11.0261 4.82509 11.25 4.60127 11.25 4.3252C11.25 4.04912 11.0261 3.8253 10.75 3.8252H5.25Z" fill="white" fill-opacity="0.96"/>
</svg>
