<svg width="16" height="16" viewBox="0 0 16 16" fill="none" xmlns="http://www.w3.org/2000/svg">
<path fill-rule="evenodd" clip-rule="evenodd" d="M12 15.7501C14.0711 15.7501 15.75 14.0712 15.75 12.0001C15.75 9.92903 14.0711 8.2501 12 8.2501C9.92893 8.2501 8.25 9.92903 8.25 12.0001C8.25 14.0712 9.92893 15.7501 12 15.7501ZM14.2928 11.2253C14.4295 11.0886 14.4295 10.867 14.2928 10.7304C14.1562 10.5937 13.9346 10.5937 13.7979 10.7304L11.3181 13.2101L10.2019 12.094C10.0653 11.9573 9.84365 11.9573 9.70696 12.094C9.57028 12.2307 9.57028 12.4523 9.70696 12.589L11.0706 13.9526C11.1362 14.0182 11.2253 14.0551 11.3181 14.0551C11.4109 14.0551 11.4999 14.0182 11.5656 13.9526L14.2928 11.2253Z" fill="white"/>
<path fill-rule="evenodd" clip-rule="evenodd" d="M10.7 1.0001H10.1665C9.93824 0.754063 9.6121 0.600098 9.25 0.600098H6.75C6.3879 0.600098 6.06176 0.754063 5.83348 1.0001H5.3C4.31991 1.0001 3.82986 1.0001 3.45552 1.19084C3.12623 1.35861 2.85852 1.62633 2.69074 1.95561C2.5 2.32996 2.5 2.82001 2.5 3.8001V12.2001C2.5 13.1802 2.5 13.6702 2.69074 14.0446C2.85852 14.3739 3.12623 14.6416 3.45552 14.8094C3.82986 15.0001 4.31991 15.0001 5.3 15.0001H8.64584C7.93328 14.204 7.5 13.1526 7.5 12.0001C7.5 9.51482 9.51472 7.5001 12 7.5001C12.526 7.5001 13.0308 7.59033 13.5 7.75616V3.8001C13.5 2.82001 13.5 2.32996 13.3093 1.95561C13.1415 1.62633 12.8738 1.35861 12.5445 1.19084C12.1701 1.0001 11.6801 1.0001 10.7 1.0001ZM4.74981 4.32529C4.74981 4.04915 4.97367 3.82529 5.24981 3.82529H10.7498C11.026 3.82529 11.2498 4.04915 11.2498 4.32529C11.2498 4.60144 11.026 4.82529 10.7498 4.82529H5.24981C4.97367 4.82529 4.74981 4.60144 4.74981 4.32529ZM4.74981 6.6001C4.74981 6.32396 4.97367 6.1001 5.24981 6.1001H7.99981C8.27595 6.1001 8.49981 6.32396 8.49981 6.6001C8.49981 6.87624 8.27595 7.1001 7.99981 7.1001H5.24981C4.97367 7.1001 4.74981 6.87624 4.74981 6.6001ZM6.75 1.5C6.61193 1.5 6.5 1.61193 6.5 1.75C6.5 1.88807 6.61193 2 6.75 2H9.25C9.38807 2 9.5 1.88807 9.5 1.75C9.5 1.61193 9.38807 1.5 9.25 1.5H6.75Z" fill="white"/>
</svg>
