<svg width="16" height="16" viewBox="0 0 16 16" fill="none" xmlns="http://www.w3.org/2000/svg">
<path fill-rule="evenodd" clip-rule="evenodd" d="M2.74796 2.24217C2.5 2.72882 2.5 3.36588 2.5 4.64V11.36C2.5 12.6341 2.5 13.2712 2.74796 13.7578C2.96607 14.1859 3.3141 14.5339 3.74217 14.752C4.22882 15 4.86588 15 6.14 15H8.27416C8.24039 14.9696 8.20744 14.9386 8.17536 14.907C7.7191 14.4578 7.37139 13.8281 7.31533 13.1039C7.26807 12.4933 7.43485 11.8851 7.81457 11.3551C7.7459 11.31 7.68068 11.2574 7.62006 11.1973C7.12974 10.7113 7.12621 9.91987 7.61219 9.42955L9.74317 7.27949C10.5021 6.51324 11.4424 6.19047 12.3684 6.25904C12.7674 6.2886 13.1484 6.38906 13.5 6.54272V4.64C13.5 3.36588 13.5 2.72882 13.252 2.24217C13.0339 1.8141 12.6859 1.46607 12.2578 1.24796C11.7712 1 11.1341 1 9.86 1H6.14C4.86588 1 4.22882 1 3.74217 1.24796C3.3141 1.46607 2.96607 1.8141 2.74796 2.24217ZM5.24981 3.8252C4.97367 3.8252 4.74981 4.04905 4.74981 4.3252C4.74981 4.60134 4.97367 4.8252 5.24981 4.8252H10.7498C11.026 4.8252 11.2498 4.60134 11.2498 4.3252C11.2498 4.04905 11.026 3.8252 10.7498 3.8252H5.24981ZM5.24981 6.1C4.97367 6.1 4.74981 6.32386 4.74981 6.6C4.74981 6.87614 4.97367 7.1 5.24981 7.1H7.99981C8.27595 7.1 8.49981 6.87614 8.49981 6.6C8.49981 6.32386 8.27595 6.1 7.99981 6.1H5.24981Z" fill="white"/>
<path d="M10.9868 8.51066C11.3889 8.1045 11.8287 7.97381 12.2391 8.0042C12.6631 8.0356 13.0884 8.24277 13.42 8.56922C13.7514 8.89553 13.9627 9.31482 13.9955 9.73822C14.0272 10.1479 13.8958 10.6011 13.4687 11.0326L10.8273 13.7011C10.5872 13.9436 10.3347 14.0147 10.1036 13.9976C9.85882 13.9795 9.6048 13.8585 9.40316 13.6599C9.20168 13.4616 9.07893 13.2119 9.06011 12.9688C9.04236 12.7394 9.1131 12.4771 9.37159 12.2159L11.9751 9.58591C12.0532 9.50711 12.1183 9.49566 12.1702 9.4995C12.2356 9.50434 12.3183 9.53915 12.39 9.60974C12.4616 9.68017 12.4957 9.76011 12.5006 9.82298C12.5044 9.87205 12.4938 9.94385 12.4045 10.0344L10.2432 12.2026C10.0482 12.3982 10.0487 12.7148 10.2443 12.9097C10.4399 13.1047 10.7565 13.1042 10.9514 12.9086L13.1141 10.739L13.1154 10.7377C13.4001 10.4499 13.5248 10.0971 13.4976 9.74574C13.4714 9.40802 13.3088 9.11096 13.0916 8.89717C12.8747 8.68353 12.5769 8.52688 12.244 8.50223C12.2149 8.50007 12.1857 8.49895 12.1565 8.49888C11.8389 8.49809 11.5227 8.62159 11.2644 8.88239L8.6609 11.5124C8.20743 11.9705 8.02194 12.5142 8.0631 13.046C8.10319 13.564 8.35449 14.0308 8.70156 14.3725C9.04848 14.7141 9.51753 14.9569 10.0297 14.9949C10.5556 15.0338 11.094 14.8531 11.538 14.4046L14.1794 11.736C14.8015 11.1076 15.0476 10.3731 14.9925 9.66105C14.9384 8.96274 14.5986 8.3263 14.1216 7.85665C13.6447 7.38716 13.0044 7.05814 12.313 7.00693C11.6079 6.95472 10.8821 7.19511 10.2761 7.8071L8.14488 9.95745C7.95048 10.1536 7.9519 10.4702 8.14803 10.6645C8.34415 10.8589 8.66073 10.8575 8.85512 10.6614L10.9868 8.51066Z" fill="white"/>
</svg>
