<svg width="16" height="16" viewBox="0 0 16 16" fill="none" xmlns="http://www.w3.org/2000/svg">
<path fill-rule="evenodd" clip-rule="evenodd" d="M2.5 4.64C2.5 3.36588 2.5 2.72882 2.74796 2.24217C2.96607 1.8141 3.3141 1.46607 3.74217 1.24796C4.22882 1 4.86588 1 6.14 1H9.86C11.1341 1 11.7712 1 12.2578 1.24796C12.6859 1.46607 13.0339 1.8141 13.252 2.24217C13.5 2.72882 13.5 3.36588 13.5 4.64V7.75606C13.0308 7.59023 12.526 7.5 12 7.5C9.51472 7.5 7.5 9.51472 7.5 12C7.5 13.1525 7.93328 14.2039 8.64584 15H6.14C4.86588 15 4.22882 15 3.74217 14.752C3.3141 14.5339 2.96607 14.1859 2.74796 13.7578C2.5 13.2712 2.5 12.6341 2.5 11.36V4.64ZM4.74981 4.3252C4.74981 4.04905 4.97367 3.8252 5.24981 3.8252H10.7498C11.026 3.8252 11.2498 4.04905 11.2498 4.3252C11.2498 4.60134 11.026 4.8252 10.7498 4.8252H5.24981C4.97367 4.8252 4.74981 4.60134 4.74981 4.3252ZM4.74981 6.6C4.74981 6.32386 4.97367 6.1 5.24981 6.1H7.99981C8.27595 6.1 8.49981 6.32386 8.49981 6.6C8.49981 6.87614 8.27595 7.1 7.99981 7.1H5.24981C4.97367 7.1 4.74981 6.87614 4.74981 6.6Z" fill="white"/>
<path d="M12.3408 10.35C11.6868 10.35 11.1567 10.8801 11.1567 11.5341C11.1567 12.188 11.6868 12.7182 12.3408 12.7182C12.9947 12.7182 13.5249 12.188 13.5249 11.5341C13.5249 10.8801 12.9947 10.35 12.3408 10.35Z" fill="white"/>
<path fill-rule="evenodd" clip-rule="evenodd" d="M12 15.75C14.0711 15.75 15.75 14.0711 15.75 12C15.75 9.92893 14.0711 8.25 12 8.25C9.92893 8.25 8.25 9.92893 8.25 12C8.25 14.0711 9.92893 15.75 12 15.75ZM10.4567 11.5341C10.4567 10.4935 11.3002 9.65 12.3408 9.65C13.3813 9.65 14.2249 10.4935 14.2249 11.5341C14.2249 12.5746 13.3813 13.4182 12.3408 13.4182C11.9471 13.4182 11.5817 13.2975 11.2794 13.091L10.3725 13.998C10.2358 14.1346 10.0142 14.1346 9.87751 13.998C9.74083 13.8613 9.74083 13.6397 9.87751 13.503L10.7843 12.5962C10.5776 12.2938 10.4567 11.9281 10.4567 11.5341Z" fill="white"/>
</svg>
