<svg width="16" height="16" viewBox="0 0 16 16" fill="none" xmlns="http://www.w3.org/2000/svg">
<path fill-rule="evenodd" clip-rule="evenodd" d="M5.77893 1H10.2182C10.6904 0.999995 11.075 0.999991 11.3873 1.0255C11.71 1.05187 11.9992 1.10797 12.2686 1.24524C12.692 1.46095 13.0362 1.80516 13.2519 2.22852C13.3892 2.49793 13.4453 2.78715 13.4716 3.10989C13.4972 3.42215 13.4972 3.80677 13.4972 4.27891V7.75505C13.1787 7.64275 12.8439 7.56525 12.4972 7.52715V4.3C12.4972 3.8017 12.4968 3.45805 12.475 3.19132C12.4537 2.93042 12.4144 2.78745 12.3609 2.68251C12.2411 2.44731 12.0498 2.25608 11.8146 2.13624C11.7097 2.08277 11.5667 2.0435 11.3058 2.02218C11.0391 2.00039 10.6954 2 10.1972 2H5.8C5.3017 2 4.95805 2.00039 4.69132 2.02218C4.43042 2.0435 4.28745 2.08277 4.18251 2.13624C3.94731 2.25608 3.75608 2.44731 3.63624 2.68251C3.58277 2.78745 3.5435 2.93042 3.52218 3.19132C3.50039 3.45805 3.5 3.8017 3.5 4.3V11.6964C3.5 12.1947 3.50039 12.5384 3.52218 12.8051C3.5435 13.066 3.58277 13.209 3.63624 13.3139C3.75608 13.5491 3.94731 13.7403 4.18251 13.8602C4.28745 13.9136 4.43042 13.9529 4.69132 13.9742C4.95805 13.996 5.3017 13.9964 5.8 13.9964H7.96598C8.14646 14.3604 8.37475 14.6965 8.64264 14.9964H5.77891C5.30677 14.9964 4.92215 14.9964 4.60989 14.9709C4.28715 14.9445 3.99793 14.8885 3.72852 14.7512C3.30516 14.5355 2.96095 14.1913 2.74524 13.7679C2.60797 13.4985 2.55187 13.2093 2.5255 12.8865C2.49999 12.5743 2.49999 12.1896 2.5 11.7175V4.27892C2.49999 3.80678 2.49999 3.42215 2.5255 3.10989C2.55187 2.78715 2.60797 2.49793 2.74524 2.22852C2.96095 1.80516 3.30516 1.46095 3.72852 1.24524C3.99793 1.10797 4.28715 1.05187 4.60989 1.0255C4.92215 0.999991 5.30678 0.999995 5.77893 1ZM4.74023 4.30957C4.74023 4.03343 4.96409 3.80957 5.24023 3.80957H10.7559C11.032 3.80957 11.2559 4.03343 11.2559 4.30957C11.2559 4.58571 11.032 4.80957 10.7559 4.80957H5.24023C4.96409 4.80957 4.74023 4.58571 4.74023 4.30957ZM4.74023 6.59C4.74023 6.31386 4.96409 6.09 5.24023 6.09H7.99807C8.27421 6.09 8.49807 6.31386 8.49807 6.59C8.49807 6.86614 8.27421 7.09 7.99807 7.09H5.24023C4.96409 7.09 4.74023 6.86614 4.74023 6.59Z" fill="white"/>
<path fill-rule="evenodd" clip-rule="evenodd" d="M12 15.75C14.0711 15.75 15.75 14.0711 15.75 12C15.75 9.92893 14.0711 8.25 12 8.25C9.92893 8.25 8.25 9.92893 8.25 12C8.25 14.0711 9.92893 15.75 12 15.75ZM12.5884 10.0474C12.4518 9.91075 12.2301 9.91075 12.0935 10.0474C11.9568 10.1841 11.9568 10.4057 12.0935 10.5424L13.2005 11.6495H9.95459C9.76129 11.6495 9.60459 11.8062 9.60459 11.9995C9.60459 12.1928 9.76129 12.3495 9.95459 12.3495H13.2005L12.0935 13.4565C11.9568 13.5932 11.9568 13.8148 12.0935 13.9515C12.2301 14.0882 12.4518 14.0882 12.5884 13.9515L14.293 12.247C14.4297 12.1103 14.4297 11.8887 14.293 11.752L12.5884 10.0474Z" fill="white"/>
</svg>
