<svg width="16" height="16" viewBox="0 0 16 16" fill="none" xmlns="http://www.w3.org/2000/svg">
<path fill-rule="evenodd" clip-rule="evenodd" d="M2.5 4.64C2.5 3.36588 2.5 2.72882 2.74796 2.24217C2.96607 1.8141 3.3141 1.46607 3.74217 1.24796C4.22882 1 4.86588 1 6.14 1H9.86C11.1341 1 11.7712 1 12.2578 1.24796C12.6859 1.46607 13.0339 1.8141 13.252 2.24217C13.5 2.72882 13.5 3.36588 13.5 4.64V7.75606C13.0308 7.59023 12.526 7.5 12 7.5C9.51472 7.5 7.5 9.51472 7.5 12C7.5 13.1525 7.93328 14.2039 8.64584 15H6.14C4.86588 15 4.22882 15 3.74217 14.752C3.3141 14.5339 2.96607 14.1859 2.74796 13.7578C2.5 13.2712 2.5 12.6341 2.5 11.36V4.64ZM4.74981 4.3252C4.74981 4.04905 4.97367 3.8252 5.24981 3.8252H10.7498C11.026 3.8252 11.2498 4.04905 11.2498 4.3252C11.2498 4.60134 11.026 4.8252 10.7498 4.8252H5.24981C4.97367 4.8252 4.74981 4.60134 4.74981 4.3252ZM4.74981 6.6C4.74981 6.32386 4.97367 6.1 5.24981 6.1H7.99981C8.27595 6.1 8.49981 6.32386 8.49981 6.6C8.49981 6.87614 8.27595 7.1 7.99981 7.1H5.24981C4.97367 7.1 4.74981 6.87614 4.74981 6.6Z" fill="white"/>
<path fill-rule="evenodd" clip-rule="evenodd" d="M12 15.75C14.0711 15.75 15.75 14.0711 15.75 12C15.75 9.92893 14.0711 8.25 12 8.25C9.92893 8.25 8.25 9.92893 8.25 12C8.25 14.0711 9.92893 15.75 12 15.75ZM12.0006 9.4C11.1916 9.4 10.465 9.75104 9.96426 10.3086V10.2803C9.96426 10.087 9.80756 9.9303 9.61426 9.9303C9.42096 9.9303 9.26426 10.087 9.26426 10.2803V11.2083C9.26426 11.4016 9.42096 11.5583 9.61426 11.5583H9.79334C9.79864 11.5585 9.80393 11.5585 9.80921 11.5583H10.5423C10.7356 11.5583 10.8923 11.4016 10.8923 11.2083C10.8923 11.015 10.7356 10.8583 10.5423 10.8583H10.4151C10.7886 10.3956 11.3603 10.1 12.0006 10.1C13.1253 10.1 14.037 11.0117 14.037 12.1364C14.037 13.261 13.1253 14.1727 12.0006 14.1727C11.1574 14.1727 10.4331 13.6601 10.1238 12.9282C10.0486 12.7501 9.84327 12.6668 9.66521 12.742C9.48715 12.8172 9.4038 13.0226 9.47903 13.2006C9.8939 14.1826 10.8663 14.8727 12.0006 14.8727C13.5119 14.8727 14.737 13.6476 14.737 12.1364C14.737 10.6251 13.5119 9.4 12.0006 9.4Z" fill="white"/>
</svg>
