<svg width="16" height="16" viewBox="0 0 16 16" fill="none" xmlns="http://www.w3.org/2000/svg">
<path d="M9.7982 9.40508C10.3945 9.40508 10.8779 8.9333 10.8779 8.35132C10.8779 7.76934 10.3945 7.29756 9.7982 7.29756C9.2019 7.29756 8.71851 7.76934 8.71851 8.35132C8.71851 8.9333 9.2019 9.40508 9.7982 9.40508Z" fill="white"/>
<path fill-rule="evenodd" clip-rule="evenodd" d="M5.16054 1.00195C4.88312 1.00195 4.64526 1.00194 4.44965 1.01792C4.24364 1.03475 4.04085 1.07177 3.84632 1.17089C3.55466 1.3195 3.31754 1.55662 3.16894 1.84827C3.06982 2.04281 3.0328 2.24559 3.01597 2.4516C2.99998 2.64721 2.99999 2.88507 3 3.16249V12.8378C2.99999 13.1153 2.99998 13.3531 3.01597 13.5487C3.0328 13.7547 3.06982 13.9575 3.16894 14.1521C3.31754 14.4437 3.55466 14.6808 3.84632 14.8294C4.04085 14.9286 4.24364 14.9656 4.44965 14.9824C4.64526 14.9984 4.8831 14.9984 5.16052 14.9984H10.8369C11.1143 14.9984 11.3522 14.9984 11.5478 14.9824C11.7538 14.9656 11.9566 14.9286 12.1511 14.8294C12.4428 14.6808 12.6799 14.4437 12.8285 14.1521C12.9276 13.9575 12.9646 13.7547 12.9815 13.5487C12.9974 13.3531 12.9974 13.1153 12.9974 12.8379V3.16248C12.9974 2.88507 12.9974 2.64721 12.9815 2.4516C12.9646 2.24559 12.9276 2.04281 12.8285 1.84827C12.6799 1.55662 12.4428 1.3195 12.1511 1.17089C11.9566 1.07177 11.7538 1.03475 11.5478 1.01792C11.3522 1.00194 11.1143 1.00195 10.8369 1.00195H5.16054ZM4.30031 2.0619C4.33038 2.04658 4.38691 2.02638 4.53108 2.0146C4.68109 2.00234 4.87772 2.00195 5.18 2.00195H10.8174C11.1197 2.00195 11.3163 2.00234 11.4664 2.0146C11.6105 2.02638 11.6671 2.04658 11.6971 2.0619C11.8006 2.11463 11.8848 2.19877 11.9375 2.30226C11.9528 2.33233 11.973 2.38886 11.9848 2.53303C11.997 2.68304 11.9974 2.87968 11.9974 3.18195V12.8184C11.9974 13.1206 11.997 13.3173 11.9848 13.4673C11.973 13.6115 11.9528 13.668 11.9375 13.6981C11.8848 13.8016 11.8006 13.8857 11.6971 13.9384C11.6671 13.9537 11.6105 13.9739 11.4664 13.9857C11.3163 13.998 11.1197 13.9984 10.8174 13.9984H5.18C4.87772 13.9984 4.68109 13.998 4.53108 13.9857C4.38691 13.9739 4.33038 13.9537 4.30031 13.9384C4.19682 13.8857 4.11268 13.8016 4.05995 13.6981C4.04463 13.668 4.02442 13.6115 4.01265 13.4673C4.00039 13.3173 4 13.1206 4 12.8184V3.18195C4 2.87968 4.00039 2.68304 4.01265 2.53303C4.02442 2.38886 4.04463 2.33233 4.05995 2.30226C4.11268 2.19877 4.19682 2.11463 4.30031 2.0619Z" fill="white"/>
</svg>
