<svg width="16" height="16" viewBox="0 0 16 16" fill="none" xmlns="http://www.w3.org/2000/svg">
<path d="M6.61537 8.69945C6.99591 8.69945 7.30441 8.3867 7.30441 8.0009C7.30441 7.6151 6.99591 7.30235 6.61537 7.30235C6.23482 7.30235 5.92633 7.6151 5.92633 8.0009C5.92633 8.3867 6.23482 8.69945 6.61537 8.69945Z" fill="white"/>
<path fill-rule="evenodd" clip-rule="evenodd" d="M8.50307 0.799386C9.27154 0.573703 10.0412 1.14983 10.0412 1.95076V2.06325H12.2954C12.9609 2.06325 13.5004 2.61056 13.5004 3.28571V12.7161C13.5004 13.3912 12.9609 13.9385 12.2954 13.9385H10.0412V14.0514C10.0412 14.8524 9.27154 15.4285 8.50307 15.2028L3.36187 13.6929C2.85093 13.5429 2.5 13.0741 2.5 12.5416V3.46062C2.5 2.92811 2.85093 2.45929 3.36187 2.30924L8.50307 0.799386ZM9.0412 1.95076V2.06325H9.0248V13.9385H9.0412V14.0514C9.0412 14.1849 8.91293 14.2809 8.78485 14.2433L3.64364 12.7335C3.55849 12.7085 3.5 12.6303 3.5 12.5416V3.46062C3.5 3.37187 3.55849 3.29373 3.64364 3.26872L8.78485 1.75887C8.91293 1.72125 9.0412 1.81727 9.0412 1.95076Z" fill="white"/>
</svg>
