<svg width="16" height="16" viewBox="0 0 16 16" fill="none" xmlns="http://www.w3.org/2000/svg">
<path fill-rule="evenodd" clip-rule="evenodd" d="M7.46634 0.798771C6.69569 0.573357 5.92633 1.15763 5.92633 1.9683V2.10825H3.7C3.03726 2.10825 2.5 2.64551 2.5 3.30825V12.6922C2.5 13.355 3.03726 13.8922 3.7 13.8922H5.92633V14.0317C5.92633 14.8424 6.69569 15.4266 7.46634 15.2012L12.6304 13.6907C13.1457 13.54 13.5004 13.0633 13.5004 12.5212V3.47879C13.5004 2.93675 13.1457 2.45998 12.6304 2.30926L7.46634 0.798771ZM5.92633 12.8922H3.7C3.58954 12.8922 3.5 12.8027 3.5 12.6922V3.30825C3.5 3.19779 3.58954 3.10825 3.7 3.10825H5.92633V12.8922ZM8.67955 8.00033C8.67955 8.38458 8.98804 8.69607 9.36858 8.69607C9.74913 8.69607 10.0576 8.38458 10.0576 8.00033C10.0576 7.61609 9.74913 7.30459 9.36858 7.30459C8.98804 7.30459 8.67955 7.61609 8.67955 8.00033Z" fill="white"/>
</svg>
