<svg width="16" height="16" viewBox="0 0 16 16" fill="none" xmlns="http://www.w3.org/2000/svg">
<path fill-rule="evenodd" clip-rule="evenodd" d="M8.0001 5.20002C8.7701 5.20002 9.4001 4.57002 9.4001 3.80002C9.4001 3.03002 8.7701 2.40002 8.0001 2.40002C7.2301 2.40002 6.6001 3.03002 6.6001 3.80002C6.6001 4.57002 7.2301 5.20002 8.0001 5.20002ZM8.0001 6.60002C7.2301 6.60002 6.6001 7.23002 6.6001 8.00002C6.6001 8.77002 7.2301 9.40002 8.0001 9.40002C8.7701 9.40002 9.4001 8.77002 9.4001 8.00002C9.4001 7.23002 8.7701 6.60002 8.0001 6.60002ZM8.0001 10.8C7.2301 10.8 6.6001 11.43 6.6001 12.2C6.6001 12.97 7.2301 13.6 8.0001 13.6C8.7701 13.6 9.4001 12.97 9.4001 12.2C9.4001 11.43 8.7701 10.8 8.0001 10.8Z" fill="white"/>
</svg>
