<svg width="16" height="16" viewBox="0 0 16 16" fill="none" xmlns="http://www.w3.org/2000/svg">
<path fill-rule="evenodd" clip-rule="evenodd" d="M11.14 11.5933C11.3316 11.7921 11.6481 11.798 11.847 11.6064C12.0458 11.4147 12.0516 11.0982 11.86 10.8994L9.064 7.99817L11.86 5.09697C12.0516 4.89813 12.0458 4.5816 11.847 4.38998C11.6481 4.19836 11.3316 4.2042 11.14 4.40303L7.67519 7.99817L11.14 11.5933ZM6.96576 11.5933C7.15738 11.7921 7.47391 11.798 7.67274 11.6064C7.87158 11.4147 7.87742 11.0982 7.6858 10.8994L4.88979 7.99817L7.6858 5.09697C7.87742 4.89813 7.87158 4.5816 7.67274 4.38998C7.47391 4.19836 7.15738 4.2042 6.96576 4.40303L3.50098 7.99817L6.96576 11.5933Z" fill="white"/>
</svg>
