<svg width="16" height="16" viewBox="0 0 16 16" fill="none" xmlns="http://www.w3.org/2000/svg">
<path fill-rule="evenodd" clip-rule="evenodd" d="M4.86002 4.40303C4.6684 4.2042 4.35187 4.19836 4.15303 4.38998C3.9542 4.5816 3.94836 4.89813 4.13998 5.09697L6.93599 7.99817L4.13998 10.8994C3.94836 11.0982 3.9542 11.4147 4.15303 11.6064C4.35187 11.798 4.6684 11.7921 4.86002 11.5933L8.3248 7.99817L4.86002 4.40303ZM9.03423 4.40303C8.84261 4.2042 8.52608 4.19836 8.32725 4.38998C8.12841 4.5816 8.12257 4.89813 8.31419 5.09697L11.1102 7.99817L8.31419 10.8994C8.12257 11.0982 8.12841 11.4147 8.32725 11.6064C8.52608 11.798 8.84261 11.7921 9.03423 11.5933L12.499 7.99817L9.03423 4.40303Z" fill="white"/>
</svg>
