<svg width="16" height="16" viewBox="0 0 16 16" fill="none" xmlns="http://www.w3.org/2000/svg">
<path d="M8.50199 2.25C8.50199 1.97386 8.27814 1.75 8.00199 1.75C7.72585 1.75 7.50199 1.97386 7.50199 2.25V10.455L5.741 8.69404C5.54573 8.49878 5.22915 8.49878 5.03389 8.69405C4.83863 8.88931 4.83864 9.2059 5.0339 9.40116L7.64845 12.0156C7.84371 12.2109 8.16028 12.2109 8.35554 12.0156L10.9701 9.40116C11.1653 9.2059 11.1654 8.88931 10.9701 8.69405C10.7748 8.49878 10.4583 8.49878 10.263 8.69404L8.50199 10.455V2.25Z" fill="white"/>
<path d="M2.75 7.13072C2.75 6.85457 2.52614 6.63072 2.25 6.63072C1.97386 6.63072 1.75 6.85457 1.75 7.13072V11.3747C1.74999 11.7772 1.74999 12.1093 1.7721 12.3799C1.79506 12.661 1.84434 12.9193 1.96799 13.162C2.15973 13.5383 2.4657 13.8443 2.84202 14.036C3.08469 14.1597 3.34304 14.209 3.62409 14.2319C3.89468 14.254 4.22686 14.254 4.62935 14.254H11.3746C11.7771 14.254 12.1093 14.254 12.3799 14.2319C12.6609 14.209 12.9193 14.1597 13.162 14.036C13.5383 13.8443 13.8443 13.5383 14.036 13.162C14.1596 12.9193 14.2089 12.661 14.2319 12.3799C14.254 12.1093 14.254 11.7772 14.254 11.3747V7.13072C14.254 6.85457 14.0301 6.63072 13.754 6.63072C13.4778 6.63072 13.254 6.85457 13.254 7.13072V11.354C13.254 11.7823 13.2536 12.0735 13.2352 12.2985C13.2173 12.5177 13.1848 12.6298 13.145 12.708C13.0491 12.8962 12.8961 13.0491 12.708 13.145C12.6298 13.1849 12.5177 13.2173 12.2985 13.2352C12.0734 13.2536 11.7823 13.254 11.354 13.254H4.65C4.22171 13.254 3.93056 13.2536 3.70552 13.2352C3.48631 13.2173 3.37421 13.1849 3.29601 13.145C3.10785 13.0491 2.95487 12.8962 2.85899 12.708C2.81915 12.6298 2.78669 12.5177 2.76878 12.2985C2.75039 12.0735 2.75 11.7823 2.75 11.354V7.13072Z" fill="white"/>
</svg>
