<svg width="16" height="16" viewBox="0 0 16 16" fill="none" xmlns="http://www.w3.org/2000/svg">
<path fill-rule="evenodd" clip-rule="evenodd" d="M8.37615 1.12713C8.1551 0.957623 7.8449 0.957623 7.62385 1.12713L7.3957 1.31093L7.2615 1.4236C7.12385 1.54058 6.97611 1.67043 6.82027 1.81251C6.22798 2.35253 5.63603 2.96085 5.08233 3.62617C3.47373 5.55903 2.5 7.57574 2.5 9.59992C2.5 10.8513 2.93363 12.0034 3.6614 12.9191L11.7963 4.78418C11.5301 4.39528 11.2363 4.00908 10.9177 3.62617C10.364 2.96085 9.77202 2.35253 9.17973 1.81251C9.02389 1.67043 8.87615 1.54058 8.7385 1.4236L8.49076 1.2179L8.37615 1.12713ZM12.3417 5.65301L4.35281 13.6419C5.32353 14.4869 6.60077 15 8 15C11.0374 15 13.5 12.5821 13.5 9.59992C13.5 8.27392 13.0821 6.95113 12.3417 5.65301Z" fill="white"/>
<path fill-rule="evenodd" clip-rule="evenodd" d="M11.7963 4.78418C11.5301 4.39528 11.2363 4.00908 10.9177 3.62617C10.364 2.96085 9.77202 2.35253 9.17973 1.81251C9.02389 1.67043 8.87615 1.54058 8.7385 1.4236L8.49076 1.2179L8.37615 1.12713C8.1551 0.957623 7.8449 0.957623 7.62385 1.12713L7.3957 1.31093L7.2615 1.4236C7.12385 1.54058 6.97611 1.67043 6.82027 1.81251C6.22798 2.35253 5.63603 2.96085 5.08233 3.62617C3.47373 5.55903 2.5 7.57574 2.5 9.59992C2.5 10.4869 2.71785 11.324 3.10389 12.0624C3.26249 12.3657 3.44947 12.6524 3.6614 12.9191L11.7963 4.78418ZM3.85349 11.3128L10.484 4.68229C10.3762 4.54349 10.2646 4.40466 10.149 4.26585C9.62733 3.63898 9.06765 3.06357 8.50599 2.55148C8.36011 2.41848 8.22253 2.29754 8.0952 2.18923L7.99946 2.10974L7.90683 2.18751C7.77893 2.29625 7.64067 2.41777 7.49401 2.55148C6.93235 3.06357 6.37267 3.63898 5.85097 4.26585C4.32048 6.10486 3.5 7.90092 3.5 9.59992C3.5 10.2075 3.62558 10.7861 3.85349 11.3128ZM12.3417 5.65301C12.5193 5.96446 12.6784 6.27732 12.8176 6.5913C13.2586 7.58604 13.5 8.59205 13.5 9.59992C13.5 12.5821 11.0374 15 8 15C6.96707 15 6.00062 14.7204 5.17488 14.234C4.88206 14.0616 4.60693 13.8631 4.35281 13.6419L12.3417 5.65301ZM12.0528 7.35612L5.91074 13.4982C6.53421 13.8185 7.24445 14 8 14C10.5025 14 12.5 12.0126 12.5 9.59992C12.5 8.86922 12.3488 8.12059 12.0528 7.35612Z" fill="white"/>
<path fill-rule="evenodd" clip-rule="evenodd" d="M14.2329 1.64645C14.4282 1.84171 14.4282 2.15829 14.2329 2.35355L2.35355 14.2329C2.15829 14.4282 1.84171 14.4282 1.64645 14.2329C1.45118 14.0377 1.45118 13.7211 1.64645 13.5258L13.5258 1.64645C13.7211 1.45118 14.0377 1.45118 14.2329 1.64645Z" fill="white"/>
</svg>
