<svg width="16" height="16" viewBox="0 0 16 16" fill="none" xmlns="http://www.w3.org/2000/svg">
<path d="M7.78223 8.06347C7.88061 7.97879 8.01873 7.97893 8.11719 8.06347L8.16895 8.10937L8.2793 8.21191C8.34054 8.27034 8.40626 8.3353 8.47559 8.40625C8.73941 8.67624 9.00337 8.98084 9.25 9.31347C9.96634 10.2797 10.4004 11.2879 10.4004 12.2998C10.4004 13.7908 9.30312 14.9999 7.9502 15C6.59718 15 5.50001 13.7909 5.5 12.2998C5.50004 11.2878 5.93397 10.2798 6.65039 9.31347C6.89704 8.98082 7.16097 8.67625 7.4248 8.40625C7.49415 8.33528 7.55983 8.27035 7.62109 8.21191L7.68066 8.15527L7.78223 8.06347ZM4.28223 1.06347C4.38061 0.978792 4.51873 0.978933 4.61719 1.06347L4.66895 1.10937L4.7793 1.21191C4.84054 1.27034 4.90626 1.3353 4.97559 1.40625C5.23941 1.67624 5.50337 1.98084 5.75 2.31347C6.46634 3.27973 6.90035 4.2879 6.90039 5.2998C6.90038 6.79083 5.80312 7.99988 4.4502 8C3.09718 8 2.00001 6.7909 2 5.2998C2.00004 4.28784 2.43397 3.27979 3.15039 2.31347C3.39704 1.98082 3.66097 1.67625 3.9248 1.40625C3.99415 1.33528 4.05983 1.27035 4.12109 1.21191L4.18066 1.15527L4.28223 1.06347ZM11.2822 1.06347C11.3806 0.978792 11.5187 0.978933 11.6172 1.06347L11.6689 1.10937L11.7793 1.21191C11.8405 1.27034 11.9063 1.3353 11.9756 1.40625C12.2394 1.67624 12.5034 1.98084 12.75 2.31347C13.4663 3.27973 13.9004 4.2879 13.9004 5.2998C13.9004 6.79083 12.8031 7.99988 11.4502 8C10.0972 8 9.00001 6.7909 9 5.2998C9.00004 4.28784 9.43397 3.27979 10.1504 2.31347C10.397 1.98082 10.661 1.67625 10.9248 1.40625C10.9942 1.33528 11.0598 1.27035 11.1211 1.21191L11.1807 1.15527L11.2822 1.06347Z" fill="white"/>
</svg>
