<svg width="16" height="16" viewBox="0 0 16 16" fill="none" xmlns="http://www.w3.org/2000/svg">
<path d="M7.62402 1.12697C7.84499 0.957677 8.15501 0.957677 8.37598 1.12697L8.49121 1.21779L8.73828 1.42384C8.87592 1.54082 9.02387 1.67045 9.17969 1.81252C9.77198 2.35253 10.3643 2.96068 10.918 3.62599C12.5265 5.55874 13.4999 7.57556 13.5 9.59963C13.5 12.5818 11.0374 15 8 15C4.9626 15 2.5 12.5818 2.5 9.59963C2.50011 7.57556 3.47353 5.55874 5.08203 3.62599C5.63573 2.96068 6.22802 2.35253 6.82031 1.81252C6.97613 1.67045 7.12408 1.54082 7.26172 1.42384L7.39551 1.31056L7.62402 1.12697Z" fill="white"/>
</svg>
