<svg width="16" height="16" viewBox="0 0 16 16" fill="none" xmlns="http://www.w3.org/2000/svg">
<path d="M12.342 5.65334C13.0823 6.95124 13.5001 8.27385 13.5002 9.59963C13.5002 12.5818 11.0375 14.9999 8.00021 15C6.60098 15 5.32346 14.4866 4.35275 13.6416L5.06173 12.9326C5.84766 13.5965 6.87286 14 8.00021 14C10.5026 13.9999 12.5002 12.0123 12.5002 9.59963C12.5001 8.56146 12.1932 7.48698 11.6057 6.38869L12.342 5.65334Z" fill="white"/>
<path fill-rule="evenodd" clip-rule="evenodd" d="M7.62423 1.12697C7.84522 0.957725 8.15524 0.957629 8.37618 1.12697L8.49044 1.21779L8.73849 1.42384C8.87612 1.54082 9.02408 1.67046 9.17989 1.81252C9.77217 2.35252 10.3645 2.96069 10.9182 3.62599C11.0142 3.74137 11.108 3.85769 11.1994 3.97365L13.5256 1.6465C13.7208 1.45129 14.0374 1.4514 14.2326 1.6465C14.4279 1.84176 14.4279 2.15827 14.2326 2.35353L2.35372 14.2334C2.15855 14.4284 1.84192 14.4283 1.64669 14.2334C1.45143 14.0382 1.45143 13.7207 1.64669 13.5254L3.10567 12.0664C2.71838 11.3271 2.50021 10.4882 2.50021 9.59963C2.50032 7.57555 3.47372 5.55875 5.08224 3.62599C5.63593 2.9607 6.22824 2.35252 6.82052 1.81252C6.97631 1.67048 7.12431 1.5408 7.26192 1.42384L7.39571 1.31056L7.62423 1.12697ZM7.90646 2.18752C7.77863 2.29621 7.6409 2.41816 7.49435 2.55177C6.93269 3.06385 6.37249 3.63879 5.85079 4.26564C4.3204 6.10453 3.50032 7.90073 3.50021 9.59963C3.50021 10.207 3.62632 10.7879 3.85567 11.3164L10.4865 4.68556C10.3782 4.54595 10.2653 4.40578 10.1486 4.26564C9.62707 3.63897 9.06757 3.06373 8.50607 2.55177C8.36019 2.41877 8.22226 2.29777 8.09493 2.18947L7.99923 2.10939L7.90646 2.18752Z" fill="white"/>
</svg>
