<svg width="16" height="16" viewBox="0 0 16 16" fill="none" xmlns="http://www.w3.org/2000/svg">
<path fill-rule="evenodd" clip-rule="evenodd" d="M8.37615 1.12713L8.49076 1.2179L8.7385 1.4236C8.87615 1.54058 9.02389 1.67043 9.17973 1.81251C9.77202 2.35253 10.364 2.96085 10.9177 3.62617C11.2363 4.00908 11.5301 4.39528 11.7963 4.78418L11.076 5.50451C10.8041 5.09423 10.4946 4.68114 10.149 4.26585C9.62733 3.63898 9.06765 3.06357 8.50599 2.55148C8.36011 2.41848 8.22253 2.29754 8.0952 2.18923L7.99946 2.10974L7.90684 2.1875C7.77894 2.29624 7.64067 2.41777 7.49401 2.55148C6.93235 3.06357 6.37267 3.63898 5.85097 4.26585C4.32048 6.10486 3.5 7.90092 3.5 9.59992C3.5 10.5716 3.824 11.4743 4.37449 12.206L3.6614 12.9191C2.93363 12.0034 2.5 10.8513 2.5 9.59992C2.5 7.57574 3.47373 5.55903 5.08233 3.62617C5.63603 2.96085 6.22798 2.35253 6.82027 1.81251C6.97611 1.67043 7.12385 1.54058 7.2615 1.4236L7.3957 1.31093L7.62385 1.12713C7.8449 0.957623 8.1551 0.957623 8.37615 1.12713ZM4.35281 13.6419C5.32353 14.4869 6.60077 15 8 15C11.0374 15 13.5 12.5821 13.5 9.59992C13.5 8.27392 13.0821 6.95113 12.3417 5.65301L11.606 6.38872C12.1936 7.48714 12.5 8.56165 12.5 9.59992C12.5 12.0126 10.5025 14 8 14C6.87266 14 5.84779 13.5967 5.06186 12.9328L4.35281 13.6419Z" fill="white"/>
<path fill-rule="evenodd" clip-rule="evenodd" d="M14.2329 1.64645C14.4282 1.84171 14.4282 2.15829 14.2329 2.35355L2.35355 14.2329C2.15829 14.4282 1.84171 14.4282 1.64645 14.2329C1.45118 14.0377 1.45118 13.7211 1.64645 13.5258L13.5258 1.64645C13.7211 1.45118 14.0377 1.45118 14.2329 1.64645Z" fill="white"/>
</svg>
