<svg width="16" height="16" viewBox="0 0 16 16" fill="none" xmlns="http://www.w3.org/2000/svg">
<path fill-rule="evenodd" clip-rule="evenodd" d="M8.02637 1.7002C10.5178 1.70021 11.9808 1.95166 13.0088 2.9502C14.0578 4.0202 14.2998 5.47321 14.2998 7.96484V8.03516C14.2998 10.5273 14.0576 11.9894 13.0088 13.0488C11.98 14.0476 10.5276 14.2998 8.02539 14.2998H7.97559C5.47418 14.2998 4.01119 14.0476 2.99219 13.0488C1.94324 11.9789 1.7002 10.5267 1.7002 8.03516V7.96484C1.7002 5.47321 1.94318 4.0097 2.99219 2.9502C4.02087 1.95182 5.47395 1.70022 7.97559 1.7002H8.02637ZM7.89941 3.2002C7.85145 3.20021 7.81182 3.23915 7.80957 3.28711C7.74434 5.01172 7.52539 6.06121 6.79102 6.7959C6.05705 7.52991 5.00922 7.7492 3.28711 7.81445C3.23917 7.81601 3.20023 7.85563 3.2002 7.9043V8.10547C3.2003 8.15334 3.2392 8.19304 3.28711 8.19531C5.00919 8.26056 6.05779 8.47971 6.79102 9.21289C7.52424 9.94611 7.74262 10.9929 7.80859 12.7119C7.81027 12.7596 7.84994 12.7987 7.89844 12.7988H8.10059C8.14835 12.7987 8.188 12.7597 8.19043 12.7119C8.2564 10.9929 8.47475 9.94611 9.20801 9.21289C9.94199 8.47889 10.9898 8.26056 12.7119 8.19531C12.7598 8.19385 12.7987 8.15409 12.7988 8.10547L12.7998 7.9043C12.7998 7.85643 12.7607 7.81683 12.7129 7.81445C10.9908 7.7492 9.94222 7.52911 9.20898 6.7959C8.47452 6.06121 8.25565 5.01258 8.19043 3.28711C8.18892 3.23921 8.14922 3.20031 8.10059 3.2002H7.89941Z" fill="white"/>
</svg>
