<svg width="16" height="16" viewBox="0 0 16 16" fill="none" xmlns="http://www.w3.org/2000/svg">
<path d="M8.09961 3.2002C8.14824 3.20032 8.18796 3.23921 8.18945 3.28711C8.25469 5.01255 8.47353 6.06123 9.20801 6.7959C9.94124 7.52913 10.9898 7.74922 12.7119 7.81445C12.7598 7.81683 12.7988 7.85642 12.7988 7.9043L12.7979 8.10547C12.7977 8.1541 12.7588 8.19381 12.7109 8.19531C10.9888 8.26054 9.94102 8.47891 9.20703 9.21289C8.47379 9.94612 8.25543 10.9929 8.18945 12.7119C8.187 12.7596 8.14734 12.7987 8.09961 12.7988H7.89746C7.849 12.7987 7.80933 12.7596 7.80762 12.7119C7.74164 10.9929 7.52326 9.94612 6.79004 9.21289C6.05681 8.47967 5.00823 8.26054 3.28613 8.19531C3.23825 8.19305 3.19934 8.15335 3.19922 8.10547V7.9043C3.19923 7.8556 3.23818 7.81597 3.28613 7.81445C5.00824 7.74922 6.05606 7.52988 6.79004 6.7959C7.5244 6.06123 7.74335 5.01173 7.80859 3.28711C7.81082 3.23914 7.85048 3.2002 7.89844 3.2002H8.09961Z" fill="white"/>
<path fill-rule="evenodd" clip-rule="evenodd" d="M8.02539 1.7002C10.5168 1.70021 11.9798 1.95162 13.0078 2.9502C14.0568 4.02021 14.2988 5.54345 14.2988 8.03516C14.2988 10.5274 14.0566 11.9894 13.0078 13.0488C11.9791 14.0476 10.4765 14.2998 7.97461 14.2998C5.47322 14.2998 4.01023 14.0476 2.99121 13.0488C1.94228 11.9789 1.69923 10.4564 1.69922 7.96484C1.69922 5.47314 1.94222 4.00972 2.99121 2.9502C4.01997 1.95175 5.52355 1.7002 8.02539 1.7002ZM8.02539 2.7002C7.39606 2.7002 6.80846 2.71733 6.36328 2.75195C5.89811 2.78814 5.49618 2.84594 5.1582 2.9248C4.83238 3.00086 4.54823 3.10027 4.30762 3.22363C4.16727 3.29562 4.0352 3.37916 3.91211 3.47363C3.83372 3.5338 3.7589 3.59866 3.6875 3.66797C3.52017 3.84277 3.34927 4.07179 3.23242 4.29492C3.10509 4.53817 3.00234 4.82388 2.9248 5.15137C2.84495 5.48881 2.78712 5.89054 2.75098 6.35645C2.71682 6.79687 2.69922 7.3331 2.69922 7.96484C2.69922 8.59617 2.71684 9.20201 2.75098 9.6416C2.78709 10.1065 2.84493 10.5078 2.9248 10.8447C3.00232 11.1716 3.10484 11.4571 3.23242 11.7012C3.26928 11.7717 3.3098 11.8405 3.35254 11.9072C3.45364 12.065 3.57105 12.2129 3.70508 12.3496C3.87606 12.517 4.07619 12.659 4.30469 12.7764C4.54437 12.8994 4.82718 12.9992 5.15332 13.0752C5.4919 13.1541 5.89501 13.2118 6.36133 13.248C6.80715 13.2827 7.34518 13.2998 7.97461 13.2998C8.60397 13.2998 9.19166 13.2827 9.63672 13.248C10.1017 13.2118 10.503 13.154 10.8408 13.0752C11.1664 12.9992 11.4499 12.8997 11.6904 12.7764C11.8298 12.7049 11.9606 12.622 12.083 12.5283C12.1625 12.4674 12.2392 12.4023 12.3115 12.332C12.4783 12.1576 12.6501 11.9276 12.7666 11.7051C12.8938 11.462 12.9957 11.1768 13.0732 10.8496C13.1531 10.5121 13.2119 10.1096 13.248 9.64355C13.2822 9.20312 13.2988 8.66697 13.2988 8.03516C13.2988 7.40387 13.2822 6.79802 13.248 6.3584C13.2119 5.8935 13.1531 5.49217 13.0732 5.15527C12.9957 4.82839 12.8932 4.54296 12.7656 4.29883C12.7289 4.22852 12.6891 4.15933 12.6465 4.09277C12.5475 3.93824 12.4323 3.7935 12.3018 3.65918C12.2439 3.60349 12.1837 3.55072 12.1211 3.50098C11.9882 3.39542 11.8445 3.30248 11.6904 3.22363C11.4492 3.10023 11.1646 3.00098 10.8379 2.9248C10.4994 2.84593 10.0978 2.78816 9.63281 2.75195C9.18818 2.71732 8.65229 2.7002 8.02539 2.7002Z" fill="white"/>
</svg>
