<svg width="16" height="16" viewBox="0 0 16 16" fill="none" xmlns="http://www.w3.org/2000/svg">
<path d="M13.205 4.78906C13.3946 5.35527 13.497 5.96236 13.497 6.59277C13.497 8.74277 12.3033 10.6138 10.5488 11.5498C9.87199 11.9111 9.3028 12.6071 8.83883 13.3594C8.23476 14.3388 7.15937 14.9961 5.92965 14.9961C5.11064 14.996 4.3613 14.7056 3.7734 14.2217L4.48531 13.5088C4.89021 13.8153 5.39045 13.996 5.92965 13.9961C6.79231 13.9961 7.5545 13.5365 7.98727 12.835C8.47925 12.0372 9.16329 11.1551 10.0781 10.667C11.5135 9.90121 12.497 8.36593 12.497 6.59277C12.497 6.25235 12.4612 5.92046 12.3925 5.60156L13.205 4.78906Z" fill="white"/>
<path fill-rule="evenodd" clip-rule="evenodd" d="M7.99899 1C9.68345 1.00015 11.1853 1.77013 12.1923 2.97852L13.5254 1.64648C13.7206 1.45122 14.0381 1.45122 14.2334 1.64648C14.4283 1.84168 14.4283 2.15832 14.2334 2.35352L2.35348 14.2334C2.15829 14.4283 1.84165 14.4283 1.64645 14.2334C1.45118 14.0381 1.45118 13.7207 1.64645 13.5254L2.6484 12.5225C2.55271 12.2018 2.49996 11.8623 2.49996 11.5107C2.49996 11.2145 2.53651 10.9261 2.60543 10.6504C2.67242 10.3825 2.94398 10.2191 3.21188 10.2861C3.47973 10.3531 3.64214 10.6247 3.57516 10.8926C3.52589 11.0896 3.49996 11.2967 3.49996 11.5107C3.49996 11.5629 3.50176 11.6147 3.50484 11.666L5.7734 9.39746C5.70084 9.24455 5.606 9.09658 5.49215 8.97266C5.05529 8.4974 4.758 7.90786 4.63375 7.27148C4.50952 6.63511 4.56261 5.97584 4.78707 5.36816C5.01156 4.76042 5.39944 4.22706 5.90719 3.83008C6.41487 3.4333 7.02234 3.18817 7.6611 3.12402C8.30006 3.0599 8.94359 3.17993 9.51852 3.46875C9.98675 3.70403 10.3929 4.04464 10.7099 4.46094L11.4814 3.68945C10.6551 2.658 9.40053 2.00015 7.99899 2C5.52342 2 3.50018 4.04734 3.49996 6.59277C3.49996 6.8689 3.27609 7.09275 2.99996 7.09277C2.72382 7.09277 2.49996 6.86892 2.49996 6.59277C2.50018 3.51281 4.95355 1 7.99899 1ZM7.76168 4.11914C7.31217 4.16425 6.88237 4.33674 6.52242 4.61816C6.16243 4.89965 5.88634 5.27953 5.72555 5.71484C5.56473 6.15024 5.52604 6.62336 5.6152 7.08008C5.70437 7.53661 5.91677 7.95782 6.2275 8.2959C6.32947 8.40683 6.42393 8.53027 6.50875 8.66211L9.9941 5.17676C9.75843 4.82935 9.44102 4.54866 9.07027 4.3623C8.6644 4.15836 8.21101 4.07414 7.76168 4.11914Z" fill="white"/>
</svg>
