<svg width="16" height="16" viewBox="0 0 16 16" fill="none" xmlns="http://www.w3.org/2000/svg">
<path d="M13.206 4.78809C13.3967 5.3562 13.4999 5.96575 13.5 6.59961C13.5 8.72296 12.3395 10.571 10.6289 11.5205C9.88966 11.9308 9.30193 12.6152 8.86324 13.3379C8.25758 14.3353 7.17381 15 5.93746 15C5.11765 15 4.36514 14.7074 3.77438 14.2197L13.206 4.78809Z" fill="white"/>
<path fill-rule="evenodd" clip-rule="evenodd" d="M7.99996 1C9.68056 1.00001 11.1845 1.76802 12.1933 2.97754L13.5254 1.64648C13.7206 1.45122 14.0381 1.45122 14.2334 1.64648C14.4283 1.84168 14.4283 2.15832 14.2334 2.35352L2.35348 14.2334C2.15829 14.4283 1.84165 14.4283 1.64645 14.2334C1.45118 14.0381 1.45118 13.7207 1.64645 13.5254L2.64938 12.5215C2.55264 12.1983 2.49996 11.8554 2.49996 11.5C2.49996 11.1849 2.54048 10.8793 2.61715 10.5889C2.82998 9.7826 2.91661 8.89949 2.6982 8.09473C2.56908 7.61888 2.49996 7.11728 2.49996 6.59961C2.50017 3.50699 4.96252 1 7.99996 1ZM7.66402 3.1416C7.02661 3.20552 6.41966 3.4499 5.91305 3.8457C5.40661 4.24143 5.01982 4.77305 4.79586 5.37891C4.572 5.98468 4.51958 6.64199 4.64352 7.27637C4.76749 7.91086 5.06316 8.49887 5.49899 8.97266C5.61191 9.09542 5.70629 9.24132 5.77828 9.39258L6.51363 8.65723C6.4296 8.52701 6.33629 8.40469 6.23531 8.29492C5.92573 7.95832 5.71382 7.5394 5.62496 7.08496C5.53614 6.6303 5.57414 6.15904 5.73434 5.72559C5.89456 5.29215 6.17046 4.91411 6.52926 4.63379C6.88794 4.3536 7.31565 4.18164 7.76363 4.13672C8.21158 4.09184 8.66373 4.17575 9.06832 4.37891C9.43612 4.56368 9.75082 4.8418 9.98531 5.18555L10.7011 4.46973C10.3854 4.05683 9.98187 3.71901 9.51656 3.48535C8.94311 3.19742 8.30134 3.07777 7.66402 3.1416Z" fill="white"/>
</svg>
