<svg width="16" height="16" viewBox="0 0 16 16" fill="none" xmlns="http://www.w3.org/2000/svg">
<path fill-rule="evenodd" clip-rule="evenodd" d="M7.99858 2C5.52288 2 3.5 4.04756 3.5 6.59319C3.5 6.86933 3.27614 7.09319 3 7.09319C2.72386 7.09319 2.5 6.86933 2.5 6.59319C2.5 3.51304 4.953 1 7.99858 1C11.0442 1 13.4972 3.51304 13.4972 6.59319C13.4972 6.97818 13.4589 7.3542 13.386 7.71749C13.0729 7.61624 12.7449 7.54837 12.406 7.51807C12.4657 7.2194 12.4972 6.9101 12.4972 6.59319C12.4972 4.04756 10.4743 2 7.99858 2ZM7.67371 13.2424C7.2306 13.7092 6.61194 13.9964 5.9302 13.9964C4.59683 13.9964 3.5 12.8924 3.5 11.5108C3.5 11.2967 3.52634 11.0897 3.57562 10.8926C3.64261 10.6247 3.47975 10.3532 3.21186 10.2863C2.94396 10.2193 2.67249 10.3821 2.6055 10.65C2.53652 10.9259 2.5 11.2143 2.5 11.5108C2.5 13.427 4.02696 14.9964 5.9302 14.9964C6.74845 14.9964 7.49802 14.7054 8.08599 14.2221C7.91193 13.9161 7.7727 13.5878 7.67371 13.2424ZM7.66142 3.1243C8.30049 3.06017 8.94405 3.17963 9.51905 3.46856C10.094 3.75744 10.5767 4.2038 10.9137 4.75598C11.1794 5.19144 11.3464 5.67925 11.4051 6.18408C11.437 6.45838 11.2405 6.70659 10.9662 6.73848C10.6919 6.77038 10.4436 6.57387 10.4118 6.29958C10.3696 5.9372 10.2499 5.58789 10.0601 5.27692C9.81947 4.88265 9.47617 4.56616 9.07006 4.3621C8.66404 4.15808 8.21076 4.07419 7.76128 4.1193C7.31176 4.16441 6.88268 4.33687 6.52274 4.6183C6.1627 4.89979 5.886 5.27929 5.72519 5.71464C5.56436 6.15004 5.52624 6.62303 5.6154 7.07976C5.70455 7.53645 5.91718 7.95752 6.22802 8.29569C6.26817 8.33936 6.30973 8.38142 6.35263 8.42181C6.64914 8.70101 6.89828 9.07119 7.02294 9.47746C7.14878 9.88757 7.15435 10.3644 6.9071 10.8008L6.3652 11.7571C6.22907 11.9974 5.92395 12.0818 5.68369 11.9457C5.44344 11.8095 5.35903 11.5044 5.49516 11.2641L6.03706 10.3078C6.11707 10.1666 6.13319 9.98674 6.06693 9.7708C5.99949 9.551 5.85389 9.32574 5.6671 9.14985C5.6067 9.09299 5.54823 9.03382 5.4918 8.97243C5.05492 8.49715 4.75817 7.90778 4.63393 7.27136C4.50969 6.63498 4.56267 5.97582 4.78714 5.36814C5.01163 4.76039 5.39905 4.22749 5.9068 3.8305C6.41464 3.43345 7.02238 3.18843 7.66142 3.1243Z" fill="white"/>
<path fill-rule="evenodd" clip-rule="evenodd" d="M12 15.75C14.0711 15.75 15.75 14.0711 15.75 12C15.75 9.92893 14.0711 8.25 12 8.25C9.92893 8.25 8.25 9.92893 8.25 12C8.25 14.0711 9.92893 15.75 12 15.75ZM10.8008 10.3062C10.6641 10.1695 10.4425 10.1695 10.3058 10.3062C10.1691 10.4428 10.1691 10.6644 10.3058 10.8011L11.5047 12L10.3058 13.1989C10.1691 13.3356 10.1691 13.5572 10.3058 13.6938C10.4425 13.8305 10.6641 13.8305 10.8008 13.6938L11.9996 12.495L13.1985 13.6938C13.3352 13.8305 13.5568 13.8305 13.6935 13.6938C13.8302 13.5572 13.8302 13.3356 13.6935 13.1989L12.4946 12L13.6935 10.8011C13.8302 10.6644 13.8302 10.4428 13.6935 10.3062C13.5568 10.1695 13.3352 10.1695 13.1985 10.3062L11.9996 11.505L10.8008 10.3062Z" fill="white"/>
</svg>
