<svg width="16" height="16" viewBox="0 0 16 16" fill="none" xmlns="http://www.w3.org/2000/svg">
<path fill-rule="evenodd" clip-rule="evenodd" d="M3.5 6.59319C3.5 4.04756 5.52288 2 7.99858 2C10.4743 2 12.4972 4.04756 12.4972 6.59319C12.4972 8.36634 11.514 9.90131 10.0785 10.6671C9.16362 11.1552 8.47946 12.0369 7.98743 12.8347C7.5547 13.5363 6.79296 13.9964 5.9302 13.9964C4.59683 13.9964 3.5 12.8924 3.5 11.5108C3.5 11.2967 3.52634 11.0897 3.57562 10.8926C3.64261 10.6247 3.47975 10.3532 3.21186 10.2863C2.94396 10.2193 2.67249 10.3821 2.6055 10.65C2.53652 10.9259 2.5 11.2143 2.5 11.5108C2.5 13.427 4.02696 14.9964 5.9302 14.9964C7.15992 14.9964 8.23452 14.3391 8.83858 13.3596C9.3027 12.6071 9.87214 11.9106 10.5492 11.5494C12.3037 10.6134 13.4972 8.74319 13.4972 6.59319C13.4972 3.51304 11.0442 1 7.99858 1C4.953 1 2.5 3.51304 2.5 6.59319C2.5 6.86933 2.72386 7.09319 3 7.09319C3.27614 7.09319 3.5 6.86933 3.5 6.59319ZM9.51905 3.46856C8.94405 3.17963 8.30049 3.06017 7.66142 3.1243C7.02238 3.18843 6.41464 3.43345 5.9068 3.8305C5.39905 4.22749 5.01163 4.76039 4.78714 5.36814C4.56267 5.97582 4.50969 6.63498 4.63393 7.27136C4.75817 7.90778 5.05492 8.49715 5.4918 8.97243C5.54823 9.03382 5.6067 9.09299 5.6671 9.14985C5.85389 9.32574 5.99949 9.551 6.06693 9.7708C6.13319 9.98674 6.11707 10.1666 6.03706 10.3078L5.49516 11.2641C5.35903 11.5044 5.44344 11.8095 5.68369 11.9457C5.92395 12.0818 6.22907 11.9974 6.3652 11.7571L6.9071 10.8008C7.15435 10.3644 7.14878 9.88757 7.02294 9.47746C6.89828 9.07119 6.64914 8.70101 6.35263 8.42181C6.30973 8.38142 6.26817 8.33936 6.22802 8.29569C5.91718 7.95752 5.70455 7.53645 5.6154 7.07976C5.52624 6.62303 5.56436 6.15004 5.72519 5.71464C5.886 5.27929 6.1627 4.89979 6.52274 4.6183C6.88268 4.33687 7.31176 4.16441 7.76128 4.1193C8.21076 4.07419 8.66404 4.15808 9.07006 4.3621C9.47617 4.56616 9.81947 4.88265 10.0601 5.27692C10.2499 5.58789 10.3696 5.9372 10.4118 6.29958C10.4436 6.57387 10.6919 6.77038 10.9662 6.73848C11.2405 6.70659 11.437 6.45838 11.4051 6.18408C11.3464 5.67925 11.1794 5.19144 10.9137 4.75598C10.5767 4.2038 10.094 3.75744 9.51905 3.46856Z" fill="white"/>
</svg>
