<svg width="16" height="16" viewBox="0 0 16 16" fill="none" xmlns="http://www.w3.org/2000/svg">
<path fill-rule="evenodd" clip-rule="evenodd" d="M8.25836 2.77725C8.08801 2.74092 7.91202 2.74092 7.74167 2.77725C7.56746 2.81441 7.39268 2.90886 6.85482 3.22025L1.9821 6.04137L6.81798 8.96288C7.37205 9.29762 7.55242 9.39926 7.73261 9.4391C7.90879 9.47806 8.09124 9.47806 8.26742 9.4391C8.44761 9.39926 8.62799 9.29762 9.18205 8.96288L14.0179 6.04137L9.14521 3.22026C8.60736 2.90886 8.43258 2.81441 8.25836 2.77725ZM1.5 6.91844V10.2259C1.5 10.502 1.27614 10.7259 1 10.7259C0.723858 10.7259 0.5 10.502 0.5 10.2259V6.03221C0.5 5.8538 0.595071 5.6889 0.749477 5.5995L6.35378 2.35483C6.37599 2.34197 6.39788 2.32928 6.41948 2.31676C6.86406 2.05907 7.18382 1.87374 7.53309 1.79924C7.84095 1.73358 8.15909 1.73359 8.46695 1.79925C8.81622 1.87374 9.13597 2.05907 9.58055 2.31676C9.60215 2.32928 9.62405 2.34198 9.64626 2.35484L15.2505 5.5995C15.4035 5.68806 15.4983 5.85081 15.5 6.02755C15.5016 6.2043 15.4098 6.36878 15.2585 6.46018L12.7 8.00589V12.1924C12.7 12.3383 12.6363 12.4768 12.5256 12.5718C11.2683 13.6508 9.66511 14.25 8 14.25C6.33489 14.25 4.73165 13.6508 3.47437 12.5718C3.36369 12.4768 3.3 12.3383 3.3 12.1924V8.00588L1.5 6.91844ZM4.3 8.61001V11.957C5.34901 12.7905 6.65121 13.25 8 13.25C9.34879 13.25 10.651 12.7905 11.7 11.957V8.61002L9.69915 9.81881C9.67622 9.83266 9.65361 9.84634 9.63131 9.85983C9.17368 10.1366 8.84466 10.3356 8.48332 10.4155C8.16492 10.4859 7.83511 10.4859 7.51672 10.4155C7.15537 10.3356 6.82635 10.1366 6.36873 9.85983C6.34642 9.84634 6.32381 9.83267 6.30088 9.81881L4.3 8.61001Z" fill="white"/>
</svg>
