<svg width="16" height="16" viewBox="0 0 16 16" fill="none" xmlns="http://www.w3.org/2000/svg">
<path fill-rule="evenodd" clip-rule="evenodd" d="M9.03459 1.86011C9.48472 1.7133 9.96965 1.7133 10.4198 1.86011C10.7063 1.95358 10.9495 2.11841 11.1949 2.32758C11.4324 2.52996 11.7028 2.80139 12.0346 3.13446L12.9841 4.08756L12.9989 4.10245C13.3307 4.43555 13.6011 4.70698 13.8027 4.94536C14.0112 5.1918 14.1751 5.43552 14.2679 5.72244C14.4138 6.17325 14.4138 6.65879 14.2679 7.1096C14.1751 7.39653 14.0112 7.64024 13.8027 7.88668C13.6012 8.12506 13.3308 8.39647 12.9989 8.72956L8.49568 13.25L14.25 13.25C14.5261 13.25 14.75 13.4738 14.75 13.75C14.75 14.0261 14.5261 14.25 14.25 14.25L5.81683 14.25C4.84638 14.25 3.91589 13.8635 3.23099 13.176L2.62844 12.5712C2.29661 12.2381 2.02622 11.9667 1.82462 11.7283C1.61621 11.4818 1.45231 11.2381 1.35944 10.9512C1.21352 10.5004 1.21352 10.0149 1.35944 9.56405C1.45231 9.27712 1.61621 9.0334 1.82462 8.78697C2.02622 8.54859 2.29661 8.27717 2.62845 7.94407L7.41976 3.13447C7.75157 2.80139 8.02196 2.52996 8.25946 2.32758C8.50491 2.11841 8.74802 1.95358 9.03459 1.86011ZM7.08415 13.25L10.413 9.9084L6.24808 5.72754L3.35175 8.63492C3.00149 8.98652 2.76028 9.2292 2.58817 9.43271C2.41988 9.63171 2.34702 9.76023 2.31084 9.872C2.22972 10.1226 2.22972 10.3926 2.31084 10.6432C2.34702 10.755 2.41988 10.8835 2.58817 11.0825C2.76028 11.286 3.00149 11.5287 3.35175 11.8803L3.93944 12.4703C4.4367 12.9694 5.11226 13.25 5.81683 13.25L7.08415 13.25ZM6.95385 5.01908L11.1188 9.19994L12.2756 8.03872C12.6259 7.68712 12.8671 7.44444 13.0392 7.24093C13.2075 7.04193 13.2803 6.91342 13.3165 6.80164C13.3976 6.55103 13.3976 6.28101 13.3165 6.0304C13.2803 5.91862 13.2075 5.79011 13.0392 5.59111C12.8671 5.3876 12.6259 5.14492 12.2756 4.79332L11.341 3.85517C10.9908 3.50356 10.749 3.26144 10.5463 3.0887C10.348 2.91972 10.2203 2.8469 10.1097 2.81082C9.86106 2.72973 9.5933 2.72973 9.34468 2.81082C9.23406 2.8469 9.10635 2.91972 8.90807 3.0887C8.70536 3.26144 8.46361 3.50356 8.11334 3.85517L6.95385 5.01908Z" fill="white"/>
</svg>
