<svg width="16" height="16" viewBox="0 0 16 16" fill="none" xmlns="http://www.w3.org/2000/svg">
<path fill-rule="evenodd" clip-rule="evenodd" d="M10.4182 1.86068C9.96544 1.71311 9.47777 1.71311 9.02505 1.86068C8.73578 1.95498 8.49099 2.12111 8.24523 2.33042C8.0078 2.53264 7.73772 2.8036 7.40748 3.13492L6.23872 4.30746L11.8294 9.91621L12.9981 8.74369C13.3284 8.41237 13.5985 8.14141 13.8 7.9032C14.0087 7.65665 14.1743 7.41107 14.2682 7.12086C14.4153 6.66667 14.4153 6.17742 14.2682 5.72323C14.1743 5.43302 14.0087 5.18744 13.8 4.94088C13.5985 4.70269 13.3284 4.43175 12.9982 4.10046L12.0357 3.13492C11.7055 2.80361 11.4354 2.53263 11.198 2.33042C10.9522 2.12111 10.7074 1.95498 10.4182 1.86068ZM11.1234 10.6245L5.53276 5.01571L2.63045 7.92742C2.3002 8.25873 2.03011 8.52968 1.82855 8.76788C1.61991 9.01444 1.45431 9.26002 1.36032 9.55023C1.21323 10.0044 1.21323 10.4937 1.36032 10.9479C1.45431 11.2381 1.61991 11.4836 1.82855 11.7302C2.03011 11.9684 2.3002 12.2394 2.63045 12.5707L3.23786 13.18C3.92072 13.8651 4.84689 14.25 5.8126 14.25L14.2298 14.25C14.5171 14.25 14.75 14.0163 14.75 13.7281C14.75 13.4399 14.5171 13.2063 14.2298 13.2063L8.54993 13.2063L11.1234 10.6245Z" fill="white"/>
</svg>
