<svg width="16" height="16" viewBox="0 0 16 16" fill="none" xmlns="http://www.w3.org/2000/svg">
<path d="M14.5498 10.1497C14.8259 10.1497 15.0497 10.3737 15.0498 10.6497V12.3997C15.0498 13.8356 13.886 14.9992 12.4502 14.9993H3.34961C1.91385 14.9991 0.75 13.8355 0.75 12.3997V10.6497C0.750134 10.3737 0.97394 10.1497 1.25 10.1497C1.52606 10.1497 1.74987 10.3737 1.75 10.6497V12.3997C1.75 13.2833 2.46613 13.9991 3.34961 13.9993H12.4502C13.3338 13.9992 14.0498 13.2833 14.0498 12.3997V10.6497C14.0499 10.3738 14.2738 10.1498 14.5498 10.1497Z" fill="white"/>
<path d="M7.58008 1.99544C7.81441 1.76136 8.19447 1.76121 8.42871 1.99544L11.2471 4.8138C11.4422 5.00896 11.442 5.32557 11.2471 5.52083C11.0518 5.71607 10.7353 5.71603 10.54 5.52083L8.53613 3.5179V11.6673C8.53613 11.9434 8.31225 12.1673 8.03613 12.1673C7.75999 12.1673 7.53613 11.9435 7.53613 11.6673V3.45345L5.46875 5.52083C5.27349 5.7161 4.95698 5.7161 4.76172 5.52083C4.56646 5.32557 4.56646 5.00906 4.76172 4.8138L7.58008 1.99544Z" fill="white"/>
</svg>
