<svg width="16" height="16" viewBox="0 0 16 16" fill="none" xmlns="http://www.w3.org/2000/svg">
<path fill-rule="evenodd" clip-rule="evenodd" d="M12.3804 4.19964C11.1066 3.43903 9.60627 3 7.99998 3C4.9893 3 2.35079 4.54229 0.87907 6.85361L0.868239 6.87062C0.725662 7.09441 0.611354 7.27383 0.539409 7.58394C0.509238 7.71398 0.5 7.87094 0.5 7.99994C0.5 8.12895 0.509234 8.2859 0.539402 8.41595C0.611343 8.72606 0.725648 8.90548 0.86822 9.12927L0.879051 9.14628C1.71638 10.4613 2.93141 11.5274 4.3778 12.2022L5.46609 11.1139C4.51714 10.3877 3.90809 9.26277 3.90809 8C3.90809 5.80989 5.74006 4.03448 7.99998 4.03448C9.25688 4.03448 10.3814 4.58366 11.1321 5.44792L12.3804 4.19964ZM10.2589 6.32107C9.73857 5.66456 8.92032 5.24138 8.00007 5.24138C6.42795 5.24138 5.15349 6.47646 5.15349 8C5.15349 8.92288 5.62113 9.73992 6.33929 10.2407L10.2589 6.32107ZM7.31581 10.6784L10.7411 7.25312C10.8099 7.49066 10.8467 7.74117 10.8467 8C10.8467 9.52354 9.5722 10.7586 8.00007 10.7586C7.76419 10.7586 7.535 10.7308 7.31581 10.6784ZM6.36003 11.6342C6.86211 11.8473 7.41682 11.9655 8.00003 11.9655C10.26 11.9655 12.092 10.1901 12.092 8C12.092 7.39062 11.9502 6.81334 11.6967 6.29748L13.2209 4.77335C13.9707 5.35488 14.6148 6.05883 15.1209 6.85372L15.1318 6.87073C15.2744 7.09452 15.3887 7.27395 15.4606 7.58405C15.4908 7.7141 15.5 7.87105 15.5 8.00006C15.5 8.12906 15.4908 8.28602 15.4606 8.41607C15.3886 8.72617 15.2743 8.90559 15.1318 9.12938L15.1209 9.14639C13.6492 11.4577 11.0107 13 8.00003 13C7.09048 13 6.21489 12.8592 5.39519 12.599L6.36003 11.6342Z" fill="white"/>
<path fill-rule="evenodd" clip-rule="evenodd" d="M14.2329 1.64645C14.4282 1.84171 14.4282 2.15829 14.2329 2.35355L2.35355 14.2329C2.15829 14.4282 1.84171 14.4282 1.64645 14.2329C1.45118 14.0377 1.45118 13.7211 1.64645 13.5258L13.5258 1.64645C13.7211 1.45118 14.0377 1.45118 14.2329 1.64645Z" fill="white"/>
</svg>
