<svg width="16" height="16" viewBox="0 0 16 16" fill="none" xmlns="http://www.w3.org/2000/svg">
<path fill-rule="evenodd" clip-rule="evenodd" d="M1.73259 7.36248C3.03247 5.34699 5.35044 4 8.00038 4C10.6495 4 12.9669 5.34618 14.267 7.36066C14.4189 7.59603 14.4509 7.65059 14.4846 7.79499C14.4904 7.81975 14.4993 7.89524 14.4993 7.99945C14.4993 8.10367 14.4905 8.17916 14.4847 8.20392C14.451 8.34833 14.419 8.40291 14.2672 8.63831C12.9673 10.6538 10.6493 12.0008 7.99941 12.0008C5.35026 12.0008 3.03289 10.6546 1.73279 8.64013C1.58089 8.40477 1.54887 8.3502 1.51516 8.2058C1.50938 8.18104 1.5005 8.10555 1.50049 8.00134C1.50047 7.89713 1.50933 7.82163 1.5151 7.79687C1.54876 7.65246 1.58077 7.59789 1.73259 7.36248ZM8.00038 3C5.00656 3 2.37398 4.52298 0.892214 6.82048L0.881845 6.83655C0.733179 7.06695 0.616173 7.24829 0.541213 7.56983C0.510055 7.70349 0.500468 7.86685 0.500488 8.00149C0.500509 8.13613 0.510146 8.29949 0.541345 8.43314C0.616403 8.75466 0.733465 8.93596 0.882203 9.16632L0.892577 9.18239C2.37459 11.4787 5.00648 13.0008 7.99941 13.0008C10.9932 13.0008 13.6258 11.4778 15.1076 9.18031L15.1179 9.16424C15.2666 8.93384 15.3836 8.7525 15.4586 8.43096C15.4897 8.29731 15.4993 8.13394 15.4993 7.9993C15.4993 7.86466 15.4896 7.7013 15.4584 7.56766C15.3834 7.24613 15.2663 7.06483 15.1176 6.83448L15.1072 6.81841C13.6252 4.52207 10.9933 3 8.00038 3ZM7.999 10.7695C9.58079 10.7695 10.8631 9.52952 10.8631 7.99997C10.8631 6.47041 9.58079 5.23047 7.999 5.23047C6.4172 5.23047 5.13491 6.47041 5.13491 7.99997C5.13491 9.52952 6.4172 10.7695 7.999 10.7695Z" fill="white"/>
</svg>
