<svg width="16" height="16" viewBox="0 0 16 16" fill="none" xmlns="http://www.w3.org/2000/svg">
<path fill-rule="evenodd" clip-rule="evenodd" d="M14.6283 13.1136C14.7977 13.624 14.3447 14.1241 13.8155 14.011L11.3553 13.4852C9.8665 14.2112 8.13304 14.4298 6.47726 14.1003C4.82148 13.7708 3.35605 12.9157 2.35344 11.6939C1.35082 10.4721 0.879245 8.96679 1.0264 7.45785C1.17355 5.94891 1.92941 4.53903 3.15345 3.49034C4.37748 2.44165 5.98639 1.82551 7.68103 1.7565C9.37567 1.68748 11.0407 2.17027 12.3666 3.11511C13.6925 4.05996 14.589 5.40255 14.8894 6.89326C15.1898 8.38397 14.8736 9.92136 13.9998 11.2196L14.6283 13.1136ZM4.4323 5.36634C4.52076 5.3078 4.62397 5.29317 4.72719 5.29317C4.93361 5.29317 5.14003 5.39562 5.25798 5.60051C5.49389 6.02493 6.20162 6.02493 6.45228 5.58587C6.61447 5.3078 6.98308 5.20536 7.27797 5.36634C7.55811 5.52733 7.66132 5.89321 7.49913 6.18592C7.16001 6.77133 6.54075 7.12258 5.84776 7.12258C5.16952 7.12258 4.53551 6.7567 4.21113 6.17128C4.04894 5.89321 4.15215 5.52733 4.4323 5.36634ZM11.5676 5.37789C11.2727 5.2169 10.9041 5.31935 10.7419 5.59742C10.4913 6.03648 9.78355 6.03648 9.56238 5.59742C9.44443 5.39252 9.238 5.29008 9.03158 5.29008C8.92837 5.29008 8.82516 5.30471 8.7367 5.36325C8.44181 5.53888 8.3386 5.89012 8.50079 6.18283C8.82516 6.76824 9.45917 7.13412 10.1374 7.13412C10.8304 7.13412 11.4497 6.78287 11.7888 6.19746C11.951 5.90476 11.8478 5.53888 11.5676 5.37789ZM5.46412 10.6387C5.41989 10.8729 5.61157 11.0924 5.86222 11.0924H10.1381C10.3888 11.0924 10.5804 10.8583 10.5362 10.6387C10.315 9.45327 9.26818 8.54589 8.00016 8.54589C6.73214 8.54589 5.68529 9.45327 5.46412 10.6387Z" fill="white"/>
</svg>
