<svg width="16" height="16" viewBox="0 0 16 16" fill="none" xmlns="http://www.w3.org/2000/svg">
<path fill-rule="evenodd" clip-rule="evenodd" d="M2.5 4.64C2.5 3.36588 2.5 2.72882 2.74796 2.24217C2.96607 1.8141 3.3141 1.46607 3.74217 1.24796C4.22882 1 4.86588 1 6.14 1H9.86C11.1341 1 11.7712 1 12.2578 1.24796C12.6859 1.46607 13.0339 1.8141 13.252 2.24217C13.5 2.72882 13.5 3.36588 13.5 4.64V11.36C13.5 12.6341 13.5 13.2712 13.252 13.7578C13.0339 14.1859 12.6859 14.5339 12.2578 14.752C11.7712 15 11.1341 15 9.86 15H6.14C4.86588 15 4.22882 15 3.74217 14.752C3.67697 14.7188 3.61362 14.6826 3.55231 14.6435L4.63848 13.5376C5.01155 13.7831 5.45708 13.9262 5.9375 13.9262C7.26626 13.9262 8.32812 12.8319 8.32812 11.5012C8.32812 10.1704 7.26626 9.07617 5.9375 9.07617C4.60874 9.07617 3.54688 10.1704 3.54688 11.5012C3.54688 11.9887 3.6894 12.4445 3.93535 12.8264L2.84771 13.9338C2.81197 13.8768 2.77868 13.8181 2.74796 13.7578C2.5 13.2712 2.5 12.6341 2.5 11.36V4.64ZM4.74981 3.7998C4.74981 3.52366 4.97367 3.2998 5.24981 3.2998H10.7498C11.026 3.2998 11.2498 3.52366 11.2498 3.7998C11.2498 4.07595 11.026 4.2998 10.7498 4.2998H5.24981C4.97367 4.2998 4.74981 4.07595 4.74981 3.7998ZM4.74981 6.5998C4.74981 6.32366 4.97367 6.0998 5.24981 6.0998H10.7498C11.026 6.0998 11.2498 6.32366 11.2498 6.5998C11.2498 6.87595 11.026 7.0998 10.7498 7.0998H5.24981C4.97367 7.0998 4.74981 6.87595 4.74981 6.5998ZM8.87481 9.39981C8.87481 9.12366 9.09867 8.8998 9.37481 8.8998H10.7498C11.026 8.8998 11.2498 9.12366 11.2498 9.39981C11.2498 9.67595 11.026 9.89981 10.7498 9.89981H9.37481C9.09867 9.89981 8.87481 9.67595 8.87481 9.39981ZM9.56231 12.1998C9.56231 11.9237 9.78617 11.6998 10.0623 11.6998H10.7498C11.026 11.6998 11.2498 11.9237 11.2498 12.1998C11.2498 12.4759 11.026 12.6998 10.7498 12.6998H10.0623C9.78617 12.6998 9.56231 12.4759 9.56231 12.1998ZM5.9375 10.0762C5.17793 10.0762 4.54687 10.7056 4.54687 11.5012C4.54687 12.2967 5.17793 12.9262 5.9375 12.9262C6.69707 12.9262 7.32812 12.2967 7.32812 11.5012C7.32812 10.7056 6.69707 10.0762 5.9375 10.0762Z" fill="white"/>
</svg>
