<svg width="16" height="16" viewBox="0 0 16 16" fill="none" xmlns="http://www.w3.org/2000/svg">
<path fill-rule="evenodd" clip-rule="evenodd" d="M8.35938 1.00493C8.24828 0.999871 8.1295 0.999941 7.99791 1.00002L5.74401 1.00004C5.28107 1.00003 4.90246 1.00003 4.59476 1.02562C4.27627 1.05212 3.98862 1.10863 3.71999 1.248C3.29956 1.46611 2.95775 1.81414 2.74353 2.24221C2.60666 2.51573 2.55115 2.80861 2.52513 3.13289C2.49999 3.44618 2.49999 3.83167 2.5 4.30303V11.697C2.49999 12.1684 2.49999 12.5539 2.52513 12.8672C2.55115 13.1915 2.60666 13.4843 2.74353 13.7579C2.95775 14.1859 3.29956 14.534 3.71999 14.7521C3.98862 14.8914 4.27627 14.948 4.59476 14.9745C4.90246 15.0001 5.28106 15 5.744 15H10.256C10.7189 15 11.0975 15.0001 11.4052 14.9745C11.7237 14.948 12.0113 14.8914 12.28 14.7521C12.7004 14.534 13.0422 14.1859 13.2564 13.7579C13.3933 13.4843 13.4488 13.1915 13.4748 12.8672C13.5 12.5539 13.5 12.1684 13.5 11.6971L13.5 6.60215C13.5001 6.46466 13.5001 6.34087 13.4948 6.2252H11.0789C10.7043 6.2252 10.3931 6.22521 10.1391 6.20446C9.87477 6.18286 9.62877 6.1363 9.39679 6.01811C9.03929 5.83595 8.74862 5.54529 8.56646 5.18778C8.44827 4.9558 8.40171 4.7098 8.38011 4.44543C8.35936 4.1915 8.35937 3.88029 8.35938 3.50564V1.00493ZM9.35938 3.48519V1.33855C9.51695 1.45173 9.6592 1.59673 9.83309 1.77399L12.7398 4.73359C12.9173 4.91405 13.0618 5.06104 13.1739 5.2252H11.0994C10.6991 5.2252 10.4289 5.22481 10.2206 5.20778C10.018 5.19123 9.91829 5.1615 9.85078 5.1271C9.68144 5.04081 9.54376 4.90313 9.45747 4.73379C9.42307 4.66628 9.39334 4.56653 9.37679 4.364C9.35976 4.15563 9.35938 3.88548 9.35938 3.48519ZM6.40901 7.4519C6.21375 7.25664 5.89717 7.25664 5.7019 7.4519C5.50664 7.64717 5.50664 7.96375 5.7019 8.15901L7.29289 9.75L5.7019 11.341C5.50664 11.5363 5.50664 11.8528 5.7019 12.0481C5.89717 12.2434 6.21375 12.2434 6.40901 12.0481L8 10.4571L9.59099 12.0481C9.78625 12.2434 10.1028 12.2434 10.2981 12.0481C10.4934 11.8528 10.4934 11.5363 10.2981 11.341L8.70711 9.75L10.2981 8.15901C10.4934 7.96375 10.4934 7.64717 10.2981 7.4519C10.1028 7.25664 9.78625 7.25664 9.59099 7.4519L8 9.04289L6.40901 7.4519Z" fill="white"/>
</svg>
