<svg width="16" height="16" viewBox="0 0 16 16" fill="none" xmlns="http://www.w3.org/2000/svg">
<path fill-rule="evenodd" clip-rule="evenodd" d="M2.5 4.64C2.5 3.36588 2.5 2.72882 2.74796 2.24217C2.96607 1.8141 3.3141 1.46607 3.74217 1.24796C4.22882 1 4.86588 1 6.14 1H9.86C11.1341 1 11.7712 1 12.2578 1.24796C12.6859 1.46607 13.0339 1.8141 13.252 2.24217C13.5 2.72882 13.5 3.36588 13.5 4.64V11.36C13.5 12.6341 13.5 13.2712 13.252 13.7578C13.0339 14.1859 12.6859 14.5339 12.2578 14.752C11.7712 15 11.1341 15 9.86 15H6.14C4.86588 15 4.22882 15 3.74217 14.752C3.3141 14.5339 2.96607 14.1859 2.74796 13.7578C2.5 13.2712 2.5 12.6341 2.5 11.36V4.64ZM4.74981 3.7998C4.74981 3.52366 4.97367 3.2998 5.24981 3.2998H10.7498C11.026 3.2998 11.2498 3.52366 11.2498 3.7998C11.2498 4.07595 11.026 4.2998 10.7498 4.2998H5.24981C4.97367 4.2998 4.74981 4.07595 4.74981 3.7998ZM4.74981 6.4248C4.74981 6.14866 4.97367 5.9248 5.24981 5.9248H10.7498C11.026 5.9248 11.2498 6.14866 11.2498 6.4248C11.2498 6.70095 11.026 6.9248 10.7498 6.9248H5.24981C4.97367 6.9248 4.74981 6.70095 4.74981 6.4248ZM4.74981 9.0498C4.74981 8.77366 4.97367 8.5498 5.24981 8.5498H6.79668C7.07283 8.5498 7.29668 8.77366 7.29668 9.0498C7.29668 9.32595 7.07283 9.5498 6.79668 9.5498H5.24981C4.97367 9.5498 4.74981 9.32595 4.74981 9.0498ZM11.4505 10.8005C11.644 10.6035 11.6411 10.287 11.4441 10.0935C11.2471 9.89998 10.9305 9.90283 10.737 10.0998L9.03125 11.8366L8.35672 11.1498C8.16323 10.9528 7.84666 10.95 7.64965 11.1435C7.45263 11.337 7.44978 11.6535 7.64328 11.8505L8.67453 12.9005C8.76854 12.9963 8.89708 13.0502 9.03125 13.0502C9.16542 13.0502 9.29396 12.9963 9.38797 12.9005L11.4505 10.8005Z" fill="white"/>
</svg>
