<svg width="16" height="16" viewBox="0 0 16 16" fill="none" xmlns="http://www.w3.org/2000/svg">
<path fill-rule="evenodd" clip-rule="evenodd" d="M6.7289 1C6.45148 0.999992 6.21362 0.999985 6.01801 1.01597C5.812 1.0328 5.60921 1.06982 5.41467 1.16894C5.12302 1.31754 4.8859 1.55466 4.7373 1.84632C4.63818 2.04085 4.60116 2.24364 4.58433 2.44965C4.56938 2.63261 4.56842 2.85253 4.56836 3.10722C4.3301 3.10739 4.12324 3.10898 3.94965 3.12316C3.74364 3.13999 3.54085 3.17701 3.34632 3.27613C3.05466 3.42474 2.81754 3.66186 2.66894 3.95351C2.56982 4.14805 2.5328 4.35083 2.51597 4.55684C2.49998 4.75246 2.49999 4.99031 2.5 5.26774V12.8358C2.49999 13.1133 2.49998 13.3511 2.51597 13.5467C2.5328 13.7528 2.56982 13.9555 2.66894 14.1501C2.81754 14.4417 3.05466 14.6788 3.34632 14.8274C3.54085 14.9266 3.74364 14.9636 3.94965 14.9804C4.14526 14.9964 4.38311 14.9964 4.66053 14.9964H9.26852C9.54594 14.9964 9.78379 14.9964 9.97941 14.9804C10.1854 14.9636 10.3882 14.9266 10.5827 14.8274C10.8744 14.6788 11.1115 14.4417 11.2601 14.1501C11.3592 13.9555 11.3963 13.7528 11.4131 13.5467C11.428 13.3638 11.429 13.1439 11.429 12.8892C11.6673 12.889 11.8742 12.8874 12.0478 12.8732C12.2538 12.8564 12.4566 12.8194 12.6511 12.7203C12.9427 12.5717 13.1799 12.3345 13.3285 12.0429C13.4276 11.8483 13.4646 11.6456 13.4814 11.4395C13.4974 11.244 13.4974 11.0061 13.4974 10.7287V3.16053C13.4974 2.88313 13.4974 2.64525 13.4814 2.44965C13.4646 2.24364 13.4276 2.04085 13.3285 1.84632C13.1799 1.55466 12.9427 1.31754 12.6511 1.16894C12.4566 1.06982 12.2538 1.0328 12.0478 1.01597C11.8522 0.999985 11.6143 0.999992 11.3369 1H6.7289ZM11.4291 11.8892C11.6696 11.8889 11.8356 11.8872 11.9663 11.8766C12.1105 11.8648 12.167 11.8446 12.1971 11.8292C12.3006 11.7765 12.3847 11.6924 12.4375 11.5889C12.4528 11.5588 12.473 11.5023 12.4848 11.3581C12.497 11.2081 12.4974 11.0115 12.4974 10.7092V3.18C12.4974 2.87772 12.497 2.68109 12.4848 2.53108C12.473 2.38691 12.4528 2.33038 12.4375 2.30031C12.3847 2.19682 12.3006 2.11268 12.1971 2.05995C12.167 2.04463 12.1105 2.02443 11.9663 2.01265C11.8163 2.00039 11.6197 2 11.3174 2H6.74836C6.44608 2 6.24944 2.00039 6.09944 2.01265C5.95527 2.02443 5.89874 2.04463 5.86867 2.05995C5.76518 2.11268 5.68104 2.19682 5.62831 2.30031C5.61299 2.33038 5.59278 2.38691 5.58101 2.53108C5.56976 2.66869 5.56851 2.84554 5.56837 3.1072L9.26851 3.10719C9.54594 3.10719 9.78379 3.10718 9.97941 3.12316C10.1854 3.13999 10.3882 3.17701 10.5827 3.27613C10.8744 3.42474 11.1115 3.66186 11.2601 3.95351C11.3592 4.14805 11.3963 4.35083 11.4131 4.55684C11.4291 4.75246 11.4291 4.99031 11.4291 5.26774V11.8892ZM4.03108 4.11984C3.88691 4.13162 3.83038 4.15182 3.80031 4.16714C3.69682 4.21987 3.61268 4.30401 3.55995 4.4075C3.54463 4.43757 3.52442 4.4941 3.51265 4.63827C3.50039 4.78828 3.5 4.98492 3.5 5.2872V12.8164C3.5 13.1187 3.50039 13.3153 3.51265 13.4653C3.52442 13.6095 3.54463 13.666 3.55995 13.6961C3.61268 13.7996 3.69682 13.8837 3.80031 13.9364C3.83038 13.9518 3.88691 13.972 4.03108 13.9837C4.18109 13.996 4.37772 13.9964 4.68 13.9964H9.24905C9.55133 13.9964 9.74797 13.996 9.89797 13.9837C10.0421 13.972 10.0987 13.9518 10.1287 13.9364C10.2322 13.8837 10.3164 13.7996 10.3691 13.6961C10.3844 13.666 10.4046 13.6095 10.4164 13.4653C10.4287 13.3153 10.4291 13.1187 10.4291 12.8164V5.2872C10.4291 4.98492 10.4287 4.78828 10.4164 4.63827C10.4046 4.4941 10.3844 4.43757 10.3691 4.4075C10.3164 4.30401 10.2322 4.21987 10.1287 4.16714C10.0987 4.15182 10.0421 4.13162 9.89797 4.11984C9.74797 4.10758 9.55133 4.1072 9.24905 4.1072H4.68C4.37772 4.1072 4.18108 4.10758 4.03108 4.11984ZM4.56836 6.24121C4.56836 5.96507 4.79222 5.74121 5.06836 5.74121H8.86052C9.13666 5.74121 9.36052 5.96507 9.36052 6.24121C9.36052 6.51735 9.13666 6.74121 8.86052 6.74121H5.06836C4.79222 6.74121 4.56836 6.51735 4.56836 6.24121ZM4.56836 9.05133C4.56836 8.77518 4.79222 8.55133 5.06836 8.55133H8.86052C9.13666 8.55133 9.36052 8.77518 9.36052 9.05133C9.36052 9.32747 9.13666 9.55133 8.86052 9.55133H5.06836C4.79222 9.55133 4.56836 9.32747 4.56836 9.05133ZM4.56836 11.8614C4.56836 11.5853 4.79222 11.3614 5.06836 11.3614H8.86052C9.13666 11.3614 9.36052 11.5853 9.36052 11.8614C9.36052 12.1376 9.13666 12.3614 8.86052 12.3614H5.06836C4.79222 12.3614 4.56836 12.1376 4.56836 11.8614Z" fill="white"/>
</svg>
