<svg width="16" height="16" viewBox="0 0 16 16" fill="none" xmlns="http://www.w3.org/2000/svg">
<path fill-rule="evenodd" clip-rule="evenodd" d="M5.77893 1H10.2182C10.6904 0.999995 11.075 0.99999 11.3873 1.0255C11.71 1.05187 11.9992 1.10797 12.2686 1.24524C12.692 1.46095 13.0362 1.80516 13.2519 2.22852C13.3892 2.49793 13.4453 2.78715 13.4716 3.10989C13.4972 3.42215 13.4972 3.80677 13.4972 4.27891V11.7175C13.4972 12.1896 13.4972 12.5743 13.4716 12.8865C13.4453 13.2093 13.3892 13.4985 13.2519 13.7679C13.0362 14.1913 12.692 14.5355 12.2686 14.7512C11.9992 14.8885 11.71 14.9445 11.3873 14.9709C11.075 14.9964 10.6904 14.9964 10.2182 14.9964H5.77891C5.30677 14.9964 4.92215 14.9964 4.60989 14.9709C4.28715 14.9445 3.99793 14.8885 3.72852 14.7512C3.30516 14.5355 2.96095 14.1913 2.74524 13.7679C2.60797 13.4985 2.55187 13.2093 2.5255 12.8865C2.49999 12.5743 2.49999 12.1896 2.5 11.7175V4.27892C2.49999 3.80678 2.49999 3.42215 2.5255 3.10989C2.55187 2.78715 2.60797 2.49793 2.74524 2.22852C2.96095 1.80516 3.30516 1.46095 3.72852 1.24524C3.99793 1.10797 4.28715 1.05187 4.60989 1.0255C4.92215 0.99999 5.30678 0.999995 5.77893 1ZM4.69132 2.02218C4.43042 2.0435 4.28745 2.08277 4.18251 2.13624C3.94731 2.25608 3.75608 2.44731 3.63624 2.68251C3.58277 2.78745 3.5435 2.93042 3.52218 3.19132C3.50039 3.45805 3.5 3.8017 3.5 4.3V11.6964C3.5 12.1947 3.50039 12.5384 3.52218 12.8051C3.5435 13.066 3.58277 13.209 3.63624 13.3139C3.75608 13.5491 3.94731 13.7403 4.18251 13.8602C4.28745 13.9136 4.43042 13.9529 4.69132 13.9742C4.95805 13.996 5.3017 13.9964 5.8 13.9964H10.1972C10.6954 13.9964 11.0391 13.996 11.3058 13.9742C11.5667 13.9529 11.7097 13.9136 11.8146 13.8602C12.0498 13.7403 12.2411 13.5491 12.3609 13.3139C12.4144 13.209 12.4537 13.066 12.475 12.8051C12.4968 12.5384 12.4972 12.1947 12.4972 11.6964V4.3C12.4972 3.8017 12.4968 3.45805 12.475 3.19132C12.4537 2.93042 12.4144 2.78745 12.3609 2.68251C12.2411 2.44731 12.0498 2.25608 11.8146 2.13624C11.7097 2.08277 11.5667 2.0435 11.3058 2.02218C11.0391 2.00039 10.6954 2 10.1972 2H5.8C5.3017 2 4.95805 2.00039 4.69132 2.02218ZM4.74023 3.78223C4.74023 3.50608 4.96409 3.28223 5.24023 3.28223H10.7559C11.032 3.28223 11.2559 3.50608 11.2559 3.78223C11.2559 4.05837 11.032 4.28223 10.7559 4.28223H5.24023C4.96409 4.28223 4.74023 4.05837 4.74023 3.78223ZM4.74023 6.41664C4.74023 6.14049 4.96409 5.91664 5.24023 5.91664H10.7559C11.032 5.91664 11.2559 6.14049 11.2559 6.41664C11.2559 6.69278 11.032 6.91664 10.7559 6.91664H5.24023C4.96409 6.91664 4.74023 6.69278 4.74023 6.41664ZM4.74023 9.05104C4.74023 8.7749 4.96409 8.55104 5.24023 8.55104H6.79152C7.06766 8.55104 7.29152 8.7749 7.29152 9.05104C7.29152 9.32719 7.06766 9.55104 6.79152 9.55104H5.24023C4.96409 9.55104 4.74023 9.32719 4.74023 9.05104ZM11.4575 10.807C11.6509 10.6099 11.6479 10.2934 11.4508 10.0999C11.2537 9.90652 10.9372 9.90949 10.7438 10.1066L9.03224 11.8505L8.3549 11.1603C8.16148 10.9633 7.84491 10.9603 7.64782 11.1537C7.45074 11.3471 7.44777 11.6637 7.64119 11.8608L8.67538 12.9145C8.76941 13.0103 8.898 13.0643 9.03224 13.0643C9.16647 13.0643 9.29506 13.0103 9.38909 12.9145L11.4575 10.807Z" fill="white"/>
</svg>
