<svg width="16" height="16" viewBox="0 0 16 16" fill="none" xmlns="http://www.w3.org/2000/svg">
<path d="M13.475 4.51855C13.3608 5.53441 12.8621 6.47517 12.0697 7.13867L10.0306 8.8457C9.82641 9.0167 9.70838 9.26976 9.70838 9.53613V13.2939C9.7082 13.5158 9.56099 13.7111 9.34802 13.7734L6.93396 14.4795C6.78308 14.5235 6.62035 14.4936 6.49451 14.3994C6.36853 14.305 6.29431 14.1565 6.29431 13.999V11.7002L7.29431 10.7002V13.332L8.70838 12.918V9.53613C8.70838 9.44425 8.71687 9.3534 8.72986 9.26367L13.475 4.51855Z" fill="white"/>
<path fill-rule="evenodd" clip-rule="evenodd" d="M13.0013 1.5C13.1831 1.50006 13.3406 1.59806 13.4281 1.74316L13.5258 1.64648C13.721 1.45128 14.0375 1.45139 14.2328 1.64648C14.4281 1.84175 14.4281 2.15825 14.2328 2.35352L2.35388 14.2324C2.15862 14.4277 1.84212 14.4277 1.64685 14.2324C1.45175 14.0371 1.45165 13.7206 1.64685 13.5254L6.13904 9.03223C6.09254 8.96338 6.037 8.90013 5.97205 8.8457L3.93201 7.13867C3.02436 6.37867 2.50037 5.25512 2.50037 4.07129V2C2.50037 1.72386 2.72423 1.5 3.00037 1.5H13.0013ZM3.50037 4.07129C3.50037 4.95912 3.8939 5.80109 4.57459 6.37109L6.61365 8.0791C6.70104 8.15229 6.78021 8.23314 6.85193 8.31934L10.3783 4.79395H8.51795C8.24195 4.79381 8.018 4.56996 8.01795 4.29395C8.01795 4.01788 8.24192 3.79408 8.51795 3.79395H10.932C11.0561 3.79398 11.1679 3.84118 11.2553 3.91602L12.5013 2.6709V2.5H3.50037V4.07129Z" fill="white"/>
</svg>
