<svg width="16" height="16" viewBox="0 0 16 16" fill="none" xmlns="http://www.w3.org/2000/svg">
<path fill-rule="evenodd" clip-rule="evenodd" d="M3 1.5C2.72386 1.5 2.5 1.72386 2.5 2V4.07135C2.5 5.25521 3.02441 6.37826 3.93211 7.13826L5.97134 8.84569C6.17557 9.01669 6.29357 9.26938 6.29357 9.53575V13.9994C6.29357 14.1568 6.36772 14.3051 6.4937 14.3995C6.61968 14.4939 6.78277 14.5235 6.93389 14.4793L9.34797 13.7735C9.56115 13.7111 9.70765 13.5157 9.70765 13.2936V9.53575C9.70765 9.26938 9.82565 9.01669 10.0299 8.84569L12.0691 7.13826C12.9768 6.37826 13.5012 5.25521 13.5012 4.07135V2C13.5012 1.72386 13.2774 1.5 13.0012 1.5H3ZM3.5 4.07135V2.5H12.5012V4.07135C12.5012 4.95925 12.1079 5.80153 11.4271 6.37154L9.38791 8.07896C8.95675 8.43997 8.70765 8.97341 8.70765 9.53575V12.9188L7.29357 13.3323V9.53575C7.29357 8.97341 7.04447 8.43997 6.61331 8.07896L4.57408 6.37154C3.89331 5.80153 3.5 4.95925 3.5 4.07135ZM8.51782 3.79385C8.24168 3.79385 8.01782 4.01771 8.01782 4.29385C8.01782 4.56999 8.24168 4.79385 8.51782 4.79385H10.9319C11.2081 4.79385 11.4319 4.56999 11.4319 4.29385C11.4319 4.01771 11.2081 3.79385 10.9319 3.79385H8.51782Z" fill="white"/>
</svg>
