<svg width="16" height="16" viewBox="0 0 16 16" fill="none" xmlns="http://www.w3.org/2000/svg">
<path d="M4.75905 6.95831C3.34702 9.34361 3.05568 12.3977 6.28518 14.1516C6.3443 14.1837 6.40986 14.1218 6.3806 14.0612C5.49598 12.2298 5.45645 11.5189 5.73521 10.5941C5.7533 10.5341 5.83538 10.5279 5.8643 10.5835C6.15231 11.1375 6.45144 11.5445 6.87907 12.0178C6.92361 12.0671 7.00515 12.0312 7.00092 11.9649C6.85707 9.71 7.49997 8.39143 8.46346 7.84886C8.49879 7.82896 8.54333 7.84549 8.56004 7.88244C9.24491 9.39713 10.2429 9.68325 10.2429 11.4722C10.2429 13.2067 9.93019 13.2116 9.50115 14.1164C9.47595 14.1695 9.52659 14.2263 9.58285 14.2092C13.274 13.0889 12.4616 8.05334 11.1284 5.29369C11.1099 5.25536 11.062 5.24363 11.0279 5.26911C10.6116 5.5801 10.3336 6.04435 10.021 6.4569C9.98128 6.50933 9.89828 6.48078 9.89496 6.41508C9.79628 4.46384 8.25447 2.55087 7.12757 1.81951C7.08052 1.78897 7.01996 1.82651 7.02202 1.88258C7.10786 4.21936 5.76822 5.2541 4.75905 6.95831Z" fill="white"/>
</svg>
