<svg width="16" height="16" viewBox="0 0 16 16" fill="none" xmlns="http://www.w3.org/2000/svg">
<path d="M13.5 2.01718C9.03126 5.04875 7.31245 -1.37101 2.5 2.01718V9.6852C7.65625 6.47536 9.03125 12.5384 13.5 9.6852V2.01718Z" fill="white"/>
<path fill-rule="evenodd" clip-rule="evenodd" d="M3 2.28196V8.8347C4.04012 8.32461 4.95816 8.16743 5.80472 8.23382C6.83401 8.31454 7.70631 8.72448 8.4778 9.10247C8.52122 9.12375 8.56428 9.14489 8.60699 9.16586C9.34865 9.53004 9.98879 9.84437 10.6903 9.94234C11.343 10.0335 12.0801 9.93778 13 9.40449V2.887C12.1031 3.32496 11.2819 3.4252 10.5026 3.31471C9.59439 3.18596 8.77517 2.77111 8.03637 2.39698C7.99182 2.37442 7.94756 2.352 7.90359 2.32981C7.10145 1.92494 6.37652 1.58092 5.57777 1.51227C4.85508 1.45015 4.02468 1.61212 3 2.28196ZM3 9.96807C4.1029 9.33012 4.97943 9.17217 5.72653 9.23076C6.5449 9.29494 7.26244 9.62059 8.03782 10.0005C8.09151 10.0268 8.1456 10.0534 8.20012 10.0803C8.90689 10.4284 9.6849 10.8116 10.5519 10.9327C11.5213 11.0681 12.5637 10.8763 13.7691 10.1066C13.9129 10.0148 14 9.85589 14 9.6852V2.01718C14 1.83206 13.8977 1.66209 13.7341 1.57539C13.5706 1.4887 13.3725 1.49948 13.2193 1.60341C12.1942 2.29883 11.3724 2.42803 10.6429 2.32461C9.90347 2.21977 9.22089 1.87493 8.44041 1.48063C8.4118 1.46618 8.38307 1.45166 8.35419 1.43708C7.56648 1.03949 6.68008 0.603325 5.6634 0.515939C4.6199 0.426248 3.49519 0.705032 2.21216 1.60834C2.07914 1.70199 2 1.8545 2 2.01718V14.5C2 14.7762 2.22386 15 2.5 15C2.77614 15 3 14.7762 3 14.5V9.96807Z" fill="white"/>
</svg>
