<svg width="16" height="16" viewBox="0 0 16 16" fill="none" xmlns="http://www.w3.org/2000/svg">
<path fill-rule="evenodd" clip-rule="evenodd" d="M7.68572 10.8682L4.66912 13.7969C4.2574 14.1964 3.60119 14.1917 3.19549 13.7861L2.05779 12.6475C1.64375 12.2331 1.64836 11.5604 2.06854 11.1523L5.0617 8.24414L7.68572 10.8682ZM5.69744 10.1514C5.52676 9.98102 5.25007 9.98119 5.07928 10.1514L4.18865 11.042L4.13201 11.1113C4.02021 11.2811 4.03936 11.5118 4.18865 11.6611C4.33795 11.8102 4.56784 11.8293 4.73748 11.7178L4.80682 11.6611L5.69744 10.7705C5.86794 10.5996 5.86817 10.3221 5.69744 10.1514Z" fill="white"/>
<path d="M11.2082 9.13867L10.5324 9.81445C10.4374 9.90942 10.3228 9.98215 10.1974 10.0273L10.0676 10.0635L8.48748 10.3799C8.40811 10.3958 8.33041 10.4192 8.25604 10.4492L5.48846 7.68164C5.49599 7.66367 5.50621 7.64627 5.51287 7.62793L5.56561 7.43945L5.87811 5.87402C5.91343 5.69818 6.00031 5.53602 6.12713 5.40918L6.80193 4.7334L11.2082 9.13867Z" fill="white"/>
<path d="M7.8615 3.6748C8.09386 3.44282 8.47202 3.44265 8.70428 3.6748L12.2678 7.23828C12.4997 7.47049 12.4995 7.84776 12.2678 8.08008L11.7023 8.64453L7.29705 4.23926L7.8615 3.6748Z" fill="white"/>
<path d="M15.0529 5.27344C15.3554 5.27364 15.6007 5.51883 15.6008 5.82129C15.6008 6.12386 15.3554 6.36992 15.0529 6.37012H13.9562C13.6536 6.37008 13.4084 6.12396 13.4084 5.82129C13.4085 5.51873 13.6537 5.27348 13.9562 5.27344H15.0529Z" fill="white"/>
<path d="M13.5676 1.75684C13.7816 1.54306 14.129 1.54286 14.3429 1.75684C14.5569 1.9708 14.5567 2.31818 14.3429 2.53223L13.2463 3.62891C13.0322 3.84286 12.6848 3.84288 12.4709 3.62891C12.2569 3.41492 12.2569 3.0676 12.4709 2.85352L13.5676 1.75684Z" fill="white"/>
<path d="M10.2785 0.5C10.5811 0.5 10.8262 0.745253 10.8263 1.04785V2.14453C10.8262 2.44714 10.5811 2.69238 10.2785 2.69238C9.9759 2.69234 9.73075 2.44711 9.73065 2.14453V1.04785C9.73078 0.745296 9.97592 0.500041 10.2785 0.5Z" fill="white"/>
</svg>
