<svg width="16" height="16" viewBox="0 0 16 16" fill="none" xmlns="http://www.w3.org/2000/svg">
<path fill-rule="evenodd" clip-rule="evenodd" d="M10.0998 1.0498H10.2991C10.5751 1.0498 10.799 1.27375 10.7991 1.5498C10.7991 1.82595 10.5752 2.0498 10.2991 2.0498H10.0998V5.72363L10.1057 5.80957C10.1163 5.89539 10.1426 5.97908 10.1838 6.05566L13.8889 12.9365C14.3595 13.811 13.7951 14.8598 12.8498 14.9873L12.6565 15H3.34398C2.35103 14.9999 1.69501 14.006 2.0305 13.1133L2.11156 12.9365L5.81664 6.05566C5.85784 5.97911 5.88413 5.89536 5.89476 5.80957L5.90062 5.72363V2.0498H5.69945C5.42353 2.04955 5.19945 1.82579 5.19945 1.5498C5.19955 1.2739 5.42359 1.05006 5.69945 1.0498H5.90062V1H10.0998V1.0498ZM6.90062 2.0498V5.72363C6.9006 6.00475 6.8307 6.28174 6.6975 6.5293L2.99242 13.4102C2.84895 13.6766 3.0414 13.9999 3.34398 14H12.6565C12.9589 13.9997 13.1514 13.6765 13.008 13.4102L9.30297 6.5293C9.16972 6.28171 9.09986 6.00479 9.09984 5.72363V2.0498H6.90062Z" fill="white"/>
</svg>
