<svg width="16" height="16" viewBox="0 0 16 16" fill="none" xmlns="http://www.w3.org/2000/svg">
<path fill-rule="evenodd" clip-rule="evenodd" d="M6.53735 2.87491C6.88725 2.24242 7.84975 2.49084 7.84985 3.21377V12.7499L7.84497 12.8573C7.79118 13.3867 7.34357 13.7996 6.80005 13.7997H1.68676C1.15382 13.7996 0.816768 13.2281 1.07446 12.7616L6.53735 2.87491ZM2.19555 12.7997H6.80005C6.82754 12.7996 6.84985 12.7774 6.84985 12.7499V4.37686L2.19555 12.7997Z" fill="white"/>
<path d="M9.40356 2.52725C9.58432 2.56534 9.75328 2.67743 9.86255 2.87491L15.3264 12.7616C15.5839 13.2281 15.2461 13.7997 14.7131 13.7997H9.59985C9.54597 13.7997 9.49335 13.7939 9.44165 13.786C9.42495 13.7835 9.40828 13.7815 9.39184 13.7782C9.38361 13.7766 9.37559 13.7742 9.36743 13.7724C9.34342 13.7669 9.31949 13.7618 9.29614 13.7548C9.28289 13.7508 9.2701 13.7456 9.25708 13.7411C9.23831 13.7346 9.21968 13.7281 9.20141 13.7206C9.18451 13.7137 9.16805 13.7059 9.15161 13.6981C9.14079 13.693 9.12999 13.688 9.11938 13.6825C9.10081 13.6729 9.0826 13.6629 9.06469 13.6523C9.05388 13.6458 9.04303 13.6395 9.03247 13.6327C9.01611 13.6222 9.00033 13.6109 8.98462 13.5995C8.97406 13.5919 8.96362 13.5841 8.95337 13.5761C8.9397 13.5654 8.92644 13.5542 8.91333 13.5429C8.89833 13.5299 8.88362 13.5166 8.86938 13.5028C8.86145 13.4951 8.85363 13.4873 8.84594 13.4794C8.83328 13.4663 8.82082 13.4531 8.80884 13.4394C8.79881 13.4279 8.78907 13.4161 8.77954 13.4042C8.76486 13.3858 8.75098 13.3669 8.73755 13.3476C8.73327 13.3414 8.729 13.3353 8.72485 13.329C8.69558 13.2849 8.66916 13.2388 8.64673 13.1903C8.62675 13.1472 8.60901 13.1026 8.59497 13.0565C8.57546 12.9926 8.56189 12.9258 8.55493 12.8573L8.55005 12.7499V3.21377C8.55005 3.16862 8.55366 3.12525 8.56079 3.08389C8.62503 2.71159 8.96261 2.49739 9.29321 2.51358C9.33018 2.51537 9.36715 2.51959 9.40356 2.52725Z" fill="white"/>
</svg>
