<svg width="16" height="16" viewBox="0 0 16 16" fill="none" xmlns="http://www.w3.org/2000/svg">
<path fill-rule="evenodd" clip-rule="evenodd" d="M13.1251 6.33734C13.7575 6.68724 13.5091 7.64974 12.7862 7.64984H3.25006L3.14264 7.64496C2.61328 7.59117 2.20038 7.14356 2.20026 6.60003V1.48675C2.20033 0.953806 2.77185 0.616756 3.23834 0.874448L13.1251 6.33734ZM3.20026 1.99554V6.60003C3.20039 6.62753 3.22253 6.64984 3.25006 6.64984H11.6231L3.20026 1.99554Z" fill="white"/>
<path fill-rule="evenodd" clip-rule="evenodd" d="M12.7862 8.35003C13.5091 8.35014 13.7575 9.31261 13.1251 9.66253L3.23834 15.1254C2.77185 15.3831 2.20033 15.0461 2.20026 14.5131V9.39984C2.20044 8.85637 2.61331 8.4087 3.14264 8.35492L3.25006 8.35003H12.7862ZM3.25006 9.35003C3.22257 9.35003 3.20045 9.3724 3.20026 9.39984V14.0043L11.6231 9.35003H3.25006Z" fill="white"/>
</svg>
