<svg width="16" height="16" viewBox="0 0 16 16" fill="none" xmlns="http://www.w3.org/2000/svg">
<path fill-rule="evenodd" clip-rule="evenodd" d="M13.1252 6.33734C13.7576 6.68725 13.5092 7.6497 12.7863 7.64984H3.25018L3.14276 7.64496C2.6134 7.59117 2.20051 7.14356 2.20038 6.60003V1.48675C2.20045 0.953806 2.77197 0.616756 3.23846 0.874448L13.1252 6.33734ZM3.20038 1.99554V6.60003C3.20051 6.62753 3.22265 6.64984 3.25018 6.64984H11.6232L3.20038 1.99554Z" fill="white"/>
<path d="M13.4728 9.20355L13.4406 9.30999C13.3862 9.44935 13.2832 9.5751 13.1252 9.66253L3.23846 15.1264C2.9765 15.271 2.68129 15.2277 2.47284 15.0678C2.44924 15.0497 2.42666 15.0302 2.40546 15.0092C2.36394 14.9681 2.32741 14.9216 2.29706 14.8705C2.26656 14.8192 2.24235 14.7633 2.22577 14.7035C2.20917 14.6437 2.20038 14.5799 2.20038 14.5131V9.39984C2.20038 9.34596 2.20622 9.29333 2.21405 9.24164C2.21658 9.22493 2.21855 9.20826 2.22186 9.19183C2.22352 9.1836 2.22587 9.17557 2.22772 9.16742C2.23316 9.14341 2.23825 9.11948 2.2453 9.09613C2.2493 9.08288 2.25447 9.07008 2.25897 9.05707C2.26556 9.03802 2.27185 9.01896 2.27948 9.00042C2.28343 8.99084 2.28795 8.98154 2.29218 8.9721C2.30255 8.9489 2.3134 8.92603 2.32538 8.90374C2.32842 8.89808 2.332 8.89274 2.33514 8.88714C2.34597 8.86786 2.35734 8.84901 2.36932 8.8305C2.37941 8.81493 2.3897 8.79959 2.40057 8.7846C2.40823 8.77405 2.41598 8.76361 2.42401 8.75335C2.43472 8.73969 2.44585 8.72643 2.45721 8.71332C2.47021 8.69832 2.48344 8.68361 2.49725 8.66937C2.50496 8.66143 2.51274 8.65362 2.52069 8.64593C2.53377 8.63327 2.54701 8.6208 2.56073 8.60882C2.57223 8.59879 2.58395 8.58905 2.59589 8.57953C2.61425 8.56485 2.63319 8.55097 2.65253 8.53753C2.65869 8.53326 2.66483 8.52898 2.67108 8.52484C2.68801 8.51361 2.70524 8.50287 2.72284 8.49261C2.73606 8.48491 2.7493 8.47728 2.76288 8.47015C2.77409 8.46426 2.78562 8.45904 2.79706 8.45355C2.84422 8.43093 2.89279 8.41042 2.94354 8.39496C3.00749 8.37546 3.07427 8.36188 3.14276 8.35492L3.25018 8.35003H12.7863C12.8315 8.35004 12.8749 8.35364 12.9162 8.36078C13.2474 8.4179 13.4535 8.69139 13.4836 8.98382C13.4911 9.05687 13.488 9.13119 13.4728 9.20355Z" fill="white"/>
</svg>
