<svg width="16" height="16" viewBox="0 0 16 16" fill="none" xmlns="http://www.w3.org/2000/svg">
<path d="M14.2588 9.89437C14.4423 9.79851 14.6687 9.8692 14.7646 10.0526C14.8604 10.236 14.7897 10.4625 14.6064 10.5584L8.48926 13.7547C8.20769 13.9018 7.87841 13.9206 7.58496 13.8104L7.46094 13.7547L1.34375 10.5584L1.28027 10.5174C1.14501 10.4074 1.10175 10.2132 1.18555 10.0526C1.2696 9.89202 1.45343 9.8177 1.62109 9.86605L1.69141 9.89437L7.80859 13.0897L7.88965 13.1209C7.97363 13.1414 8.06326 13.1306 8.1416 13.0897L14.2588 9.89437Z" fill="white"/>
<path fill-rule="evenodd" clip-rule="evenodd" d="M7.62305 2.59262C7.84236 2.47301 8.10782 2.47306 8.32715 2.59262L14.5586 5.99105C14.6088 6.01853 14.6463 6.05688 14.6768 6.09847C14.8285 6.18426 14.9325 6.3444 14.9326 6.53109V8.2098C14.9325 8.37444 14.8514 8.51907 14.7285 8.61019C14.6966 8.66847 14.6494 8.71992 14.584 8.7557L14.0391 9.0516L8.32715 12.1678L8.24219 12.2078C8.07031 12.275 7.87888 12.2751 7.70703 12.2078L7.62305 12.1678L1.37988 8.76351C1.31599 8.72853 1.26816 8.67936 1.23633 8.62289C1.10468 8.53284 1.01772 8.38224 1.01758 8.21078V6.52719C1.01758 6.33802 1.12338 6.17463 1.27832 6.08969C1.308 6.05147 1.3446 6.01674 1.3916 5.99105L7.62305 2.59262ZM2.01758 7.94222L3.66992 8.80258L4.60645 9.26644L7.47559 10.8309V9.95297L2.01758 6.9764V7.94222ZM8.47559 9.95297V10.8299L11.3379 9.2684L12.2793 8.80258L13.9326 7.86605V6.9764L8.47559 9.95297ZM5.96387 7.99008L7.97461 9.08676L9.24902 8.39047L7.22949 7.28597L5.96387 7.99008ZM8.00488 6.85531L10.0322 7.96371L13.0596 6.31332L11.002 5.19027L8.00488 6.85531ZM2.88867 6.31332L5.18457 7.56527L8.12793 5.92855L5.86328 4.69027L2.88867 6.31332ZM6.64551 4.26254L8.90332 5.49789L10.2227 4.76547L7.97461 3.5389L6.64551 4.26254Z" fill="white"/>
</svg>
