<svg width="16" height="16" viewBox="0 0 16 16" fill="none" xmlns="http://www.w3.org/2000/svg">
<path fill-rule="evenodd" clip-rule="evenodd" d="M5.87741 2.50005C6.42074 2.50005 6.58987 2.50473 6.7155 2.53994C7.07685 2.64121 7.35923 2.92359 7.4605 3.28494C7.48009 3.35481 7.49022 3.43813 7.49537 3.5918H4.36C3.18389 3.5918 2.59583 3.5918 2.14662 3.82068C2.10666 3.84104 2.06745 3.86263 2.02905 3.8854C2.03181 3.74822 2.03667 3.63058 2.04519 3.52631C2.06412 3.29459 2.09863 3.17323 2.14256 3.08701C2.24562 2.88474 2.41008 2.72028 2.61235 2.61722C2.69857 2.57329 2.81994 2.53878 3.05165 2.51985C3.2892 2.50044 3.5961 2.50005 4.04539 2.50005H5.87741ZM1.02539 5.61393L1.02539 4.49926C1.02538 4.07589 1.02538 3.72797 1.04851 3.44488C1.07249 3.15132 1.12382 2.88371 1.25155 2.63302C1.45049 2.24258 1.76792 1.92515 2.15836 1.72621C2.40905 1.59848 2.67666 1.54715 2.97022 1.52317C3.25331 1.50004 3.60122 1.50004 4.0246 1.50005L5.95076 1.50002C6.38881 1.4998 6.70918 1.49963 6.98538 1.57704C7.68286 1.77252 8.22792 2.31758 8.4234 3.01506C8.471 3.18491 8.48927 3.37145 8.49623 3.5918H11.64C12.8161 3.5918 13.4042 3.5918 13.8534 3.82068C14.2485 4.02202 14.5698 4.34328 14.7711 4.73842C15 5.18763 15 5.77569 15 6.9518V10.1391C15 11.3152 15 11.9032 14.7711 12.3524C14.5698 12.7476 14.2485 13.0688 13.8534 13.2702C13.4042 13.4991 12.8161 13.4991 11.64 13.4991H4.36C3.18389 13.4991 2.59583 13.4991 2.14662 13.2702C1.75148 13.0688 1.43022 12.7476 1.22889 12.3524C1 11.9032 1 11.3152 1 10.1391V6.9518C1 6.38669 1 5.95734 1.02539 5.61393ZM7.99961 5.72087C8.28956 5.72087 8.52461 5.95592 8.52461 6.24587V8.02077H10.2746C10.5646 8.02077 10.7996 8.25582 10.7996 8.54577C10.7996 8.83572 10.5646 9.07077 10.2746 9.07077H8.52461V10.8457C8.52461 11.1356 8.28956 11.3707 7.99961 11.3707C7.70966 11.3707 7.47461 11.1356 7.47461 10.8457V9.07077H5.72461C5.43466 9.07077 5.19961 8.83572 5.19961 8.54577C5.19961 8.25582 5.43466 8.02077 5.72461 8.02077H7.47461V6.24587C7.47461 5.95592 7.70966 5.72087 7.99961 5.72087Z" fill="white"/>
</svg>
