<svg width="16" height="16" viewBox="0 0 16 16" fill="none" xmlns="http://www.w3.org/2000/svg">
<path fill-rule="evenodd" clip-rule="evenodd" d="M6.71599 2.54069C6.58925 2.50481 6.41854 2.50005 5.87006 2.50005H4.02C3.57071 2.50005 3.26381 2.50044 3.02626 2.51985C2.79455 2.53878 2.67318 2.57329 2.58696 2.61722C2.38469 2.72028 2.22023 2.88474 2.11717 3.08701C2.07324 3.17323 2.03873 3.2946 2.0198 3.52631C2.00889 3.65987 2.00399 3.81534 2.00179 4.00572C2.07444 3.95728 2.15012 3.91293 2.22852 3.87298C2.49793 3.73571 2.78715 3.67962 3.10989 3.65325C3.42215 3.62774 3.80677 3.62774 4.27892 3.62775L7.49417 3.62775C7.48933 3.44942 7.479 3.358 7.45757 3.28227C7.3559 2.92308 7.07517 2.64236 6.71599 2.54069ZM1 6.25635H1.00328C0.999995 6.4521 0.999997 6.66822 1 6.90667V10.2161C0.999995 10.6883 0.99999 11.0729 1.0255 11.3851C1.05187 11.7079 1.10797 11.9971 1.24524 12.2665C1.46095 12.6899 1.80516 13.0341 2.22852 13.2498C2.49793 13.3871 2.78715 13.4432 3.10989 13.4695C3.42215 13.495 3.80677 13.495 4.27891 13.495H11.7175C12.1896 13.495 12.5743 13.495 12.8865 13.4695C13.2093 13.4432 13.4985 13.3871 13.7679 13.2498C14.1913 13.0341 14.5355 12.6899 14.7512 12.2665C14.8884 11.9971 14.9445 11.7079 14.9709 11.3851C14.9964 11.0729 14.9964 10.6883 14.9964 10.2161V6.90666C14.9964 6.43451 14.9964 6.0499 14.9709 5.73763C14.9445 5.4149 14.8884 5.12568 14.7512 4.85627C14.5355 4.4329 14.1913 4.0887 13.7679 3.87298C13.4985 3.73571 13.2093 3.67962 12.8865 3.65325C12.5743 3.62774 12.1896 3.62774 11.7175 3.62775L8.495 3.62775C8.48877 3.38962 8.47085 3.19038 8.41977 3.00992C8.22352 2.31661 7.68165 1.77473 6.98834 1.57849C6.70971 1.49962 6.38629 1.49979 5.9441 1.50002L3.99921 1.50005C3.57584 1.50004 3.22792 1.50004 2.94483 1.52317C2.65127 1.54715 2.38366 1.59848 2.13297 1.72621C1.74253 1.92515 1.4251 2.24258 1.22616 2.63302C1.09843 2.88371 1.0471 3.15132 1.02312 3.44488C0.999989 3.72797 0.999994 4.07588 1 4.49926V6.25635ZM3.19132 4.64993C2.93042 4.67124 2.78745 4.71052 2.68251 4.76399C2.44731 4.88383 2.25608 5.07506 2.13624 5.31026C2.08277 5.4152 2.0435 5.55817 2.02218 5.81907C2.00039 6.0858 2 6.42945 2 6.92775V10.195C2 10.6933 2.00039 11.037 2.02218 11.3037C2.0435 11.5646 2.08277 11.7076 2.13624 11.8125C2.25608 12.0477 2.44731 12.239 2.68251 12.3588C2.78745 12.4123 2.93042 12.4515 3.19132 12.4729C3.45805 12.4946 3.8017 12.495 4.3 12.495H11.6964C12.1947 12.495 12.5384 12.4946 12.8051 12.4729C13.066 12.4515 13.209 12.4123 13.3139 12.3588C13.5491 12.239 13.7403 12.0477 13.8602 11.8125C13.9136 11.7076 13.9529 11.5646 13.9742 11.3037C13.996 11.037 13.9964 10.6933 13.9964 10.195V6.92775C13.9964 6.42945 13.996 6.0858 13.9742 5.81907C13.9529 5.55817 13.9136 5.4152 13.8602 5.31026C13.7403 5.07506 13.5491 4.88383 13.3139 4.76399C13.209 4.71052 13.066 4.67124 12.8051 4.64993C12.5384 4.62814 12.1947 4.62775 11.6964 4.62775H4.3C3.8017 4.62775 3.45805 4.62814 3.19132 4.64993ZM8.49702 6.25586C8.49702 5.97972 8.27316 5.75586 7.99702 5.75586C7.72088 5.75586 7.49702 5.97972 7.49702 6.25586V8.06135H5.71387C5.43772 8.06135 5.21387 8.28521 5.21387 8.56135C5.21387 8.8375 5.43772 9.06135 5.71387 9.06135H7.49702V10.8668C7.49702 11.143 7.72088 11.3668 7.99702 11.3668C8.27316 11.3668 8.49702 11.143 8.49702 10.8668V9.06135H10.2802C10.5563 9.06135 10.7802 8.8375 10.7802 8.56135C10.7802 8.28521 10.5563 8.06135 10.2802 8.06135H8.49702V6.25586Z" fill="white"/>
</svg>
