<svg width="16" height="16" viewBox="0 0 16 16" fill="none" xmlns="http://www.w3.org/2000/svg">
<path fill-rule="evenodd" clip-rule="evenodd" d="M1 8C1 4.13401 4.13401 1 8 1C11.866 1 15 4.13401 15 8C15 11.866 11.866 15 8 15C4.13401 15 1 11.866 1 8ZM6.09507 2.36147C4.93861 2.75203 3.9414 3.48839 3.22644 4.44754L3.55013 6.00442L4.833 6.42336L4.82119 6.45954L7.51924 4.49929L7.47083 4.49922L7.47284 3.14877L6.09507 2.36147ZM3.14615 11.4421C2.46805 10.4877 2.06443 9.32454 2.05038 8.06788L3.22332 7.00226L4.50705 7.42149L4.52208 7.37548L5.55263 10.5472L5.52191 10.5248L4.72704 11.6154L3.14615 11.4421ZM6.22692 13.6813C6.78694 13.8559 7.38249 13.95 8 13.95C8.61754 13.95 9.21311 13.8559 9.77315 13.6813L10.4271 12.2301L9.63543 11.1371L9.6663 11.1147H6.33132L6.37045 11.1432L5.57505 12.2346L6.22692 13.6813ZM13.9496 8.0678C13.9356 9.3245 13.532 10.4876 12.8538 11.4421L11.278 11.6149L10.4858 10.5212L10.4466 10.5496L11.4772 7.37774L11.4889 7.41399L12.773 6.99887L13.9496 8.0678ZM12.7736 4.44755C12.0586 3.4884 11.0614 2.75203 9.90493 2.36147L8.52284 3.15123L8.52083 4.50078L8.48273 4.50072L11.1808 6.46101L11.1659 6.4149L12.4509 5.9995L12.7736 4.44755Z" fill="white"/>
</svg>
