<svg width="16" height="16" viewBox="0 0 16 16" fill="none" xmlns="http://www.w3.org/2000/svg">
<path d="M6.561 3.08873C6.76232 1.73005 8.27065 1.03316 9.42232 1.76647L9.97701 2.11901C10.2099 2.26731 10.2809 2.57905 10.1362 2.81432C9.99147 3.04912 9.68626 3.11949 9.45357 2.97155L8.89791 2.61803C8.35242 2.27107 7.63875 2.60154 7.54342 3.24498L6.86861 7.8026H8.63814C8.91418 7.80261 9.13798 8.02661 9.13814 8.3026C9.13814 8.57874 8.91428 8.80259 8.63814 8.8026H6.72018L6.11178 12.9149C5.92645 14.1649 4.61601 14.8836 3.47701 14.3602L2.5942 13.954C2.34389 13.8389 2.23145 13.5402 2.34322 13.287C2.4552 13.0342 2.74933 12.922 2.99947 13.037L3.88229 13.4432C4.42169 13.691 5.04241 13.3505 5.13033 12.7587L5.71529 8.8026H4.25729C3.98114 8.8026 3.75729 8.57874 3.75729 8.3026C3.75745 8.0266 3.98125 7.8026 4.25729 7.8026H5.86373L6.561 3.08873Z" fill="white"/>
<path d="M12.4057 9.05846C12.5623 8.83104 12.8713 8.77621 13.0962 8.93639C13.321 9.09658 13.3766 9.41107 13.2202 9.63854L11.9624 11.4647L13.4819 13.6727C13.6384 13.9002 13.5827 14.2147 13.3579 14.3749C13.133 14.535 12.824 14.4802 12.6674 14.2528L11.3559 12.3465L10.0444 14.2528C9.88791 14.4801 9.57883 14.5348 9.35397 14.3749C9.12907 14.2146 9.07342 13.9002 9.22994 13.6727L10.7485 11.4647L9.49166 9.63854C9.33511 9.41106 9.39078 9.09662 9.61568 8.93639C9.84056 8.77641 10.1496 8.83108 10.3061 9.05846L11.3559 10.5829L12.4057 9.05846Z" fill="white"/>
</svg>
