<svg width="16" height="16" viewBox="0 0 16 16" fill="none" xmlns="http://www.w3.org/2000/svg">
<path d="M5.70788 5.41687C5.70788 5.14073 5.48403 4.91687 5.20788 4.91687C4.93174 4.91687 4.70788 5.14073 4.70788 5.41687V6.48546H3.63732C3.36118 6.48546 3.13732 6.70931 3.13732 6.98546C3.13732 7.2616 3.36118 7.48546 3.63732 7.48546H4.70788V8.5556C4.70788 8.83174 4.93174 9.0556 5.20788 9.0556C5.48403 9.0556 5.70788 8.83174 5.70788 8.5556V7.48546H6.77841C7.05455 7.48546 7.27841 7.2616 7.27841 6.98546C7.27841 6.70931 7.05455 6.48546 6.77841 6.48546H5.70788V5.41687Z" fill="white"/>
<path d="M10.792 6.28841C10.4065 6.28841 10.094 5.97613 10.094 5.59092C10.094 5.2057 10.4065 4.89342 10.792 4.89342C11.1775 4.89342 11.49 5.2057 11.49 5.59092C11.49 5.97613 11.1775 6.28841 10.792 6.28841Z" fill="white"/>
<path d="M10.094 6.98633C10.094 7.37154 9.78146 7.68382 9.39596 7.68382C9.01045 7.68382 8.69794 7.37154 8.69794 6.98633C8.69794 6.60111 9.01045 6.28883 9.39596 6.28883C9.78146 6.28883 10.094 6.60111 10.094 6.98633Z" fill="white"/>
<path d="M12.188 7.68382C12.5735 7.68382 12.8861 7.37154 12.8861 6.98633C12.8861 6.60111 12.5735 6.28883 12.188 6.28883C11.8025 6.28883 11.49 6.60111 11.49 6.98633C11.49 7.37154 11.8025 7.68382 12.188 7.68382Z" fill="white"/>
<path d="M10.792 9.07822C10.4065 9.07822 10.094 8.76594 10.094 8.38073C10.094 7.99551 10.4065 7.68324 10.792 7.68324C11.1775 7.68324 11.49 7.99551 11.49 8.38073C11.49 8.76594 11.1775 9.07822 10.792 9.07822Z" fill="white"/>
<path fill-rule="evenodd" clip-rule="evenodd" d="M6.29365 2.99805H9.70621C10.3799 2.99804 10.914 2.99804 11.3481 3.03132C11.7927 3.06541 12.1696 3.13639 12.5223 3.29797C13.0991 3.56226 13.5875 3.98724 13.929 4.522C14.1378 4.84893 14.2601 5.21243 14.3554 5.6481C14.4483 6.07339 14.5221 6.6024 14.6152 7.26961L14.9762 9.85637C15.1897 11.3862 14.0016 12.7516 12.4569 12.7516C11.6951 12.7516 10.9734 12.4102 10.4902 11.8212L10.1516 11.4083C9.87435 11.0703 9.78317 10.9639 9.68162 10.8853C9.53849 10.7747 9.37304 10.6964 9.1967 10.6559C9.07159 10.6272 8.93145 10.6242 8.49428 10.6242H7.50558C7.06842 10.6242 6.92827 10.6272 6.80316 10.6559C6.62682 10.6964 6.46137 10.7747 6.31824 10.8853C6.21669 10.9639 6.12551 11.0703 5.84826 11.4083L5.50963 11.8212C5.02648 12.4102 4.30476 12.7516 3.54294 12.7516C1.99829 12.7516 0.810167 11.3862 1.02365 9.85637L1.38462 7.2696C1.47773 6.6024 1.55155 6.07338 1.64449 5.6481C1.73971 5.21243 1.8621 4.84893 2.07087 4.522C2.41235 3.98724 2.90075 3.56226 3.47757 3.29797C3.83022 3.13639 4.20714 3.06541 4.65179 3.03132C5.08584 2.99804 5.61999 2.99804 6.29365 2.99805ZM4.72824 4.02839C4.34312 4.05792 4.09688 4.11418 3.89412 4.20708C3.49209 4.39129 3.15169 4.68749 2.91369 5.0602C2.79366 5.24817 2.70391 5.48427 2.62143 5.86162C2.53763 6.24507 2.46876 6.73612 2.37221 7.42798L2.01405 9.99458C1.8845 10.923 2.60554 11.7516 3.54294 11.7516C4.00526 11.7516 4.44325 11.5444 4.73647 11.187L5.10856 10.7333C5.33871 10.4525 5.50407 10.2508 5.70657 10.0942C5.96421 9.89503 6.26202 9.75413 6.57943 9.68127C6.8289 9.62401 7.08974 9.6241 7.45279 9.62423H8.54706C8.91011 9.6241 9.17096 9.62401 9.42043 9.68127C9.73784 9.75413 10.0357 9.89503 10.2933 10.0942C10.4958 10.2508 10.6611 10.4525 10.8913 10.7333L11.2634 11.187C11.5566 11.5444 11.9946 11.7516 12.4569 11.7516C13.3943 11.7516 14.1154 10.923 13.9858 9.99458L13.6276 7.42798C13.5311 6.73612 13.4622 6.24507 13.3784 5.86162C13.296 5.48427 13.2062 5.24817 13.0862 5.0602C12.8482 4.68749 12.5078 4.39129 12.1057 4.20708C11.903 4.11418 11.6567 4.05792 11.2716 4.02839C10.8803 3.99839 10.3844 3.99805 9.68584 3.99805H6.31402C5.61545 3.99805 5.1196 3.99839 4.72824 4.02839Z" fill="white"/>
</svg>
