<svg width="16" height="16" viewBox="0 0 16 16" fill="none" xmlns="http://www.w3.org/2000/svg">
<path fill-rule="evenodd" clip-rule="evenodd" d="M6.28832 3H9.71168C10.3803 3 10.9119 2.99999 11.3442 3.03335C11.7875 3.06756 12.1653 3.13892 12.5195 3.30224C13.097 3.56857 13.586 3.99683 13.9279 4.5357C14.1375 4.86615 14.2599 5.23287 14.3548 5.67005C14.4473 6.09631 14.5207 6.62618 14.6131 7.29266L14.975 9.90514C15.1895 11.4533 13.9948 12.835 12.4416 12.835C11.6751 12.835 10.9491 12.4892 10.4632 11.8926L10.1258 11.4783C9.84727 11.1363 9.75791 11.0316 9.65877 10.9547C9.52038 10.8474 9.36066 10.7713 9.19045 10.7316C9.06852 10.7032 8.9314 10.7 8.49203 10.7H7.50797C7.0686 10.7 6.93148 10.7032 6.80955 10.7316C6.63934 10.7713 6.47962 10.8474 6.34123 10.9547C6.24209 11.0316 6.15273 11.1363 5.8742 11.4783L5.53675 11.8926C5.0509 12.4892 4.32486 12.835 3.55843 12.835C2.00523 12.835 0.810466 11.4533 1.02497 9.90514L1.38694 7.29269C1.47928 6.62619 1.55269 6.09632 1.64522 5.67005C1.74011 5.23287 1.86251 4.86615 2.07214 4.5357C2.41401 3.99683 2.90299 3.56857 3.48051 3.30224C3.83466 3.13892 4.21245 3.06756 4.65579 3.03335C5.08807 2.99999 5.61967 3 6.28832 3ZM5.74294 5.4502C5.74294 5.16025 5.50789 4.9252 5.21794 4.9252C4.92799 4.9252 4.69294 5.16025 4.69294 5.4502V6.49941H3.65295C3.363 6.49941 3.12795 6.73446 3.12795 7.02441C3.12795 7.31436 3.363 7.54941 3.65295 7.54941H4.69294V8.6002C4.69294 8.89014 4.92799 9.1252 5.21794 9.1252C5.50789 9.1252 5.74294 8.89014 5.74294 8.6002V7.54941H6.78289C7.07284 7.54941 7.30789 7.31436 7.30789 7.02441C7.30789 6.73446 7.07284 6.49941 6.78289 6.49941H5.74294V5.4502ZM10.7822 6.3248C10.3981 6.3248 10.0867 6.0114 10.0867 5.6248C10.0867 5.23821 10.3981 4.9248 10.7822 4.9248C11.1664 4.9248 11.4778 5.23821 11.4778 5.6248C11.4778 6.0114 11.1664 6.3248 10.7822 6.3248ZM10.0867 7.0252C10.0867 7.41179 9.77529 7.7252 9.39115 7.7252C9.00701 7.7252 8.69561 7.41179 8.69561 7.0252C8.69561 6.6386 9.00701 6.3252 9.39115 6.3252C9.77529 6.3252 10.0867 6.6386 10.0867 7.0252ZM12.1733 7.7252C12.5574 7.7252 12.8688 7.41179 12.8688 7.0252C12.8688 6.6386 12.5574 6.3252 12.1733 6.3252C11.7892 6.3252 11.4778 6.6386 11.4778 7.0252C11.4778 7.41179 11.7892 7.7252 12.1733 7.7252ZM10.7822 9.12461C10.3981 9.12461 10.0867 8.81121 10.0867 8.42461C10.0867 8.03801 10.3981 7.72461 10.7822 7.72461C11.1664 7.72461 11.4778 8.03801 11.4778 8.42461C11.4778 8.81121 11.1664 9.12461 10.7822 9.12461Z" fill="white"/>
</svg>
