<svg width="16" height="16" viewBox="0 0 16 16" fill="none" xmlns="http://www.w3.org/2000/svg">
<path d="M8 13.6875C8.36244 13.6875 8.65625 13.9813 8.65625 14.3438C8.65625 14.7062 8.36244 15 8 15C7.63756 15 7.34375 14.7062 7.34375 14.3438C7.34375 13.9813 7.63756 13.6875 8 13.6875Z" fill="white"/>
<path d="M3.40625 11.9375C3.76869 11.9375 4.0625 12.2313 4.0625 12.5938C4.0625 12.9562 3.76869 13.25 3.40625 13.25C3.04381 13.25 2.75 12.9562 2.75 12.5938C2.75 12.2313 3.04381 11.9375 3.40625 11.9375Z" fill="white"/>
<path d="M12.5938 11.9375C12.9562 11.9375 13.25 12.2313 13.25 12.5938C13.25 12.9562 12.9562 13.25 12.5938 13.25C12.2313 13.25 11.9375 12.9562 11.9375 12.5938C11.9375 12.2313 12.2313 11.9375 12.5938 11.9375Z" fill="white"/>
<path d="M6.46875 10.625C7.07281 10.625 7.5625 11.1147 7.5625 11.7188C7.5625 12.3228 7.07281 12.8125 6.46875 12.8125C5.86469 12.8125 5.375 12.3228 5.375 11.7188C5.375 11.1147 5.86469 10.625 6.46875 10.625Z" fill="white"/>
<path d="M9.53125 10.625C10.1353 10.625 10.625 11.1147 10.625 11.7188C10.625 12.3228 10.1353 12.8125 9.53125 12.8125C8.92719 12.8125 8.4375 12.3228 8.4375 11.7188C8.4375 11.1147 8.92719 10.625 9.53125 10.625Z" fill="white"/>
<path d="M4.28125 8.4375C4.88531 8.4375 5.375 8.92719 5.375 9.53125C5.375 10.1353 4.88531 10.625 4.28125 10.625C3.67719 10.625 3.1875 10.1353 3.1875 9.53125C3.1875 8.92719 3.67719 8.4375 4.28125 8.4375Z" fill="white"/>
<path d="M11.7188 8.4375C12.3228 8.4375 12.8125 8.92719 12.8125 9.53125C12.8125 10.1353 12.3228 10.625 11.7188 10.625C11.1147 10.625 10.625 10.1353 10.625 9.53125C10.625 8.92719 11.1147 8.4375 11.7188 8.4375Z" fill="white"/>
<path d="M8 5.8125C9.20812 5.8125 10.1875 6.79188 10.1875 8C10.1875 9.20812 9.20812 10.1875 8 10.1875C6.79188 10.1875 5.8125 9.20812 5.8125 8C5.8125 6.79188 6.79188 5.8125 8 5.8125Z" fill="white"/>
<path d="M1.65625 7.34375C2.01869 7.34375 2.3125 7.63756 2.3125 8C2.3125 8.36244 2.01869 8.65625 1.65625 8.65625C1.29381 8.65625 1 8.36244 1 8C1 7.63756 1.29381 7.34375 1.65625 7.34375Z" fill="white"/>
<path d="M14.3438 7.34375C14.7062 7.34375 15 7.63756 15 8C15 8.36244 14.7062 8.65625 14.3438 8.65625C13.9813 8.65625 13.6875 8.36244 13.6875 8C13.6875 7.63756 13.9813 7.34375 14.3438 7.34375Z" fill="white"/>
<path d="M4.28125 5.375C4.88531 5.375 5.375 5.86469 5.375 6.46875C5.375 7.07281 4.88531 7.5625 4.28125 7.5625C3.67719 7.5625 3.1875 7.07281 3.1875 6.46875C3.1875 5.86469 3.67719 5.375 4.28125 5.375Z" fill="white"/>
<path d="M11.7188 5.375C12.3228 5.375 12.8125 5.86469 12.8125 6.46875C12.8125 7.07281 12.3228 7.5625 11.7188 7.5625C11.1147 7.5625 10.625 7.07281 10.625 6.46875C10.625 5.86469 11.1147 5.375 11.7188 5.375Z" fill="white"/>
<path d="M6.46875 3.1875C7.07281 3.1875 7.5625 3.67719 7.5625 4.28125C7.5625 4.88531 7.07281 5.375 6.46875 5.375C5.86469 5.375 5.375 4.88531 5.375 4.28125C5.375 3.67719 5.86469 3.1875 6.46875 3.1875Z" fill="white"/>
<path d="M9.53125 3.1875C10.1353 3.1875 10.625 3.67719 10.625 4.28125C10.625 4.88531 10.1353 5.375 9.53125 5.375C8.92719 5.375 8.4375 4.88531 8.4375 4.28125C8.4375 3.67719 8.92719 3.1875 9.53125 3.1875Z" fill="white"/>
<path d="M3.40625 2.75C3.76869 2.75 4.0625 3.04381 4.0625 3.40625C4.0625 3.76869 3.76869 4.0625 3.40625 4.0625C3.04381 4.0625 2.75 3.76869 2.75 3.40625C2.75 3.04381 3.04381 2.75 3.40625 2.75Z" fill="white"/>
<path d="M12.5938 2.75C12.9562 2.75 13.25 3.04381 13.25 3.40625C13.25 3.76869 12.9562 4.0625 12.5938 4.0625C12.2313 4.0625 11.9375 3.76869 11.9375 3.40625C11.9375 3.04381 12.2313 2.75 12.5938 2.75Z" fill="white"/>
<path d="M8 1C8.36244 1 8.65625 1.29381 8.65625 1.65625C8.65625 2.01869 8.36244 2.3125 8 2.3125C7.63756 2.3125 7.34375 2.01869 7.34375 1.65625C7.34375 1.29381 7.63756 1 8 1Z" fill="white"/>
</svg>
