<svg width="16" height="16" viewBox="0 0 16 16" fill="none" xmlns="http://www.w3.org/2000/svg">
<path fill-rule="evenodd" clip-rule="evenodd" d="M5.74737 1C5.27601 0.999994 4.89051 0.999989 4.57721 1.02559C4.25293 1.05208 3.96005 1.1086 3.68653 1.24796C3.25846 1.46607 2.91043 1.8141 2.69232 2.24217C2.55296 2.51569 2.49644 2.80857 2.46995 3.13285C2.44435 3.44615 2.44435 3.83164 2.44436 4.303L2.44436 13.9502H2.275C1.98505 13.9502 1.75 14.1852 1.75 14.4752C1.75 14.7651 1.98505 15.0002 2.275 15.0002H11.6438C11.9337 15.0002 12.1688 14.7651 12.1688 14.4752C12.1688 14.1852 11.9337 13.9502 11.6438 13.9502H11.4752V12.6948C11.7344 12.826 12.0275 12.8999 12.3378 12.8999C13.3943 12.8999 14.2508 12.0434 14.2508 10.9869V7.92752C14.2508 7.34233 14.1619 6.76055 13.987 6.20209L13.1859 3.64305C13.0992 3.36634 12.8047 3.21225 12.528 3.29888C12.2513 3.38551 12.0972 3.68005 12.1838 3.95676L12.985 6.51581C13.128 6.97272 13.2008 7.44873 13.2008 7.92752V10.9869C13.2008 11.4635 12.8144 11.8499 12.3378 11.8499C11.8686 11.8499 11.4868 11.4753 11.4752 11.0089V4.30301C11.4752 3.83165 11.4752 3.44615 11.4496 3.13285C11.4231 2.80857 11.3666 2.51569 11.2272 2.24217C11.0091 1.8141 10.661 1.46607 10.233 1.24796C9.95946 1.1086 9.66658 1.05208 9.3423 1.02559C9.02901 0.999989 8.64351 0.999994 8.17215 1H5.74737ZM10.4252 4.325C10.4252 3.82629 10.4247 3.48383 10.4031 3.21836C10.3819 2.95901 10.343 2.81969 10.2916 2.71886C10.1742 2.48836 9.98679 2.30096 9.75629 2.18352C9.65546 2.13214 9.51615 2.09329 9.2568 2.0721C8.99132 2.05041 8.64886 2.05 8.15015 2.05H5.76936C5.27065 2.05 4.92819 2.05041 4.66272 2.0721C4.40337 2.09329 4.26405 2.13214 4.16322 2.18352C3.93272 2.30096 3.74532 2.48836 3.62788 2.71886C3.5765 2.81969 3.53765 2.95901 3.51646 3.21836C3.49477 3.48383 3.49436 3.82629 3.49436 4.325V13.95H10.4252V11.0195L10.4249 10.9869L10.4252 4.325ZM5.59683 3.80029H8.32203C8.40754 3.80027 8.50026 3.80025 8.58051 3.80681C8.67134 3.81423 8.79134 3.83259 8.91512 3.89566C9.07976 3.97955 9.21362 4.11341 9.29751 4.27805C9.36058 4.40183 9.37895 4.52183 9.38637 4.61266C9.39292 4.69292 9.3929 4.78563 9.39288 4.87115V6.92944C9.3929 7.01496 9.39292 7.10767 9.38637 7.18792C9.37895 7.27875 9.36058 7.39876 9.29751 7.52254C9.21362 7.68718 9.07976 7.82103 8.91512 7.90492C8.79134 7.96799 8.67134 7.98636 8.58051 7.99378C8.50026 8.00034 8.40755 8.00032 8.32204 8.0003H5.59683C5.51132 8.00032 5.4186 8.00034 5.33835 7.99378C5.24752 7.98636 5.12752 7.96799 5.00374 7.90492C4.8391 7.82103 4.70524 7.68718 4.62135 7.52254C4.55828 7.39876 4.53991 7.27875 4.53249 7.18792C4.52594 7.10767 4.52596 7.01496 4.52598 6.92945V4.87114C4.52596 4.78563 4.52594 4.69291 4.53249 4.61266C4.53991 4.52183 4.55828 4.40183 4.62135 4.27805C4.70524 4.11341 4.8391 3.97955 5.00374 3.89566C5.12752 3.83259 5.24752 3.81423 5.33835 3.80681C5.4186 3.80025 5.51132 3.80027 5.59683 3.80029ZM5.57599 4.8503L5.57599 6.95028H8.34287V4.8503H5.57599Z" fill="white"/>
</svg>
