<svg width="16" height="16" viewBox="0 0 16 16" fill="none" xmlns="http://www.w3.org/2000/svg">
<path fill-rule="evenodd" clip-rule="evenodd" d="M8.58008 3.80664C8.67088 3.81406 8.7913 3.83249 8.91504 3.89551C9.07968 3.9794 9.21396 4.11368 9.29785 4.27832C9.3607 4.40183 9.37929 4.5216 9.38672 4.61231C9.39327 4.69254 9.3926 4.7856 9.39258 4.87109V6.92969C9.3926 7.01497 9.39323 7.10743 9.38672 7.1875C9.3793 7.27828 9.36084 7.39875 9.29785 7.52246C9.21396 7.6871 9.07968 7.82138 8.91504 7.90527C8.79133 7.96826 8.67086 7.98672 8.58008 7.99414C8.50001 8.00066 8.40755 8.00002 8.32227 8H5.59668C5.51121 8.00002 5.41809 8.00069 5.33789 7.99414C5.24718 7.9867 5.1274 7.96813 5.00391 7.90527C4.83926 7.82138 4.70498 7.6871 4.62109 7.52246C4.55809 7.39874 4.53964 7.27829 4.53223 7.1875C4.52571 7.10743 4.52635 7.01498 4.52637 6.92969V4.87109C4.52635 4.7856 4.52567 4.69254 4.53223 4.61231C4.53966 4.52159 4.55823 4.40184 4.62109 4.27832C4.70498 4.11368 4.83926 3.9794 5.00391 3.89551C5.12742 3.83262 5.24716 3.81408 5.33789 3.80664C5.4181 3.80009 5.51121 3.79978 5.59668 3.79981H8.32227C8.40756 3.79978 8.5 3.80013 8.58008 3.80664ZM5.57617 6.9502H8.34277V4.85059H5.57617V6.9502Z" fill="white"/>
<path fill-rule="evenodd" clip-rule="evenodd" d="M8.17188 1C8.64324 0.999995 9.02948 0.999794 9.34277 1.02539C9.66687 1.0519 9.96001 1.10875 10.2334 1.24805C10.6613 1.46617 11.0095 1.81424 11.2275 2.24219C11.3668 2.51564 11.4227 2.80862 11.4492 3.13281C11.4748 3.44605 11.4756 3.83149 11.4756 4.30273V11.0088C11.4872 11.4753 11.8686 11.8496 12.3379 11.8496C12.8143 11.8496 13.201 11.4637 13.2012 10.9873V7.92773C13.2012 7.44895 13.1284 6.97254 12.9854 6.51563L12.1836 3.95703C12.097 3.68033 12.2516 3.38546 12.5283 3.29883C12.8048 3.21248 13.0987 3.36631 13.1855 3.64258L13.9873 6.20215C14.1621 6.76056 14.251 7.3426 14.251 7.92773V10.9873C14.2508 12.0436 13.3942 12.9004 12.3379 12.9004C12.0276 12.9004 11.7347 12.8255 11.4756 12.6943V13.9502H11.6436C11.9335 13.9502 12.1689 14.1856 12.1689 14.4756C12.1687 14.7654 11.9334 15 11.6436 15H2.27539C1.98557 15 1.75021 14.7654 1.75 14.4756C1.75 14.1856 1.98544 13.9502 2.27539 13.9502H2.44434V4.30273C2.44433 3.83149 2.44413 3.44605 2.46973 3.13281C2.49622 2.80854 2.55302 2.5157 2.69238 2.24219C2.91049 1.81414 3.25848 1.46616 3.68652 1.24805C3.96003 1.10869 4.25288 1.05189 4.57715 1.02539C4.89038 0.999799 5.27585 0.999995 5.74707 1H8.17188ZM5.76953 2.04981C5.27104 2.04981 4.92851 2.0506 4.66309 2.07227C4.40374 2.09346 4.26391 2.13222 4.16309 2.18359C3.93269 2.30102 3.74535 2.48835 3.62793 2.71875C3.57656 2.81958 3.53779 2.9594 3.5166 3.21875C3.49494 3.48418 3.49414 3.82673 3.49414 4.3252V13.9502H10.4248V4.3252C10.4248 3.82675 10.425 3.48417 10.4033 3.21875C10.3821 2.95945 10.3434 2.81957 10.292 2.71875C10.1745 2.48825 9.98636 2.30104 9.75586 2.18359C9.65506 2.1323 9.51588 2.09343 9.25684 2.07227C8.9914 2.05058 8.64897 2.04981 8.15039 2.04981H5.76953Z" fill="white"/>
</svg>
