<svg width="16" height="16" viewBox="0 0 16 16" fill="none" xmlns="http://www.w3.org/2000/svg">
<path fill-rule="evenodd" clip-rule="evenodd" d="M4.3331 1.51575C5.01592 0.828084 6.12297 0.828084 6.80578 1.51575L8 2.71845L9.19421 1.51575C9.87703 0.828084 10.9841 0.828084 11.6669 1.51575C12.3497 2.20341 12.3497 3.31833 11.6669 4.006L11.1671 4.50932H13.3819C13.8614 4.50932 14.25 4.90072 14.25 5.38354V7.65632H8.52478V4.50958H7.47478V7.65632H1.75V5.38354C1.75 4.90072 2.13864 4.50932 2.61806 4.50932H4.83287L4.3331 4.006C3.65029 3.31833 3.65029 2.20341 4.3331 1.51575ZM2.44444 8.70632V12.727C2.44444 13.9824 3.45491 15 4.70139 15H7.47478V8.70632H2.44444ZM8.52478 15H11.2986C12.5451 15 13.5556 13.9824 13.5556 12.727V8.70632H8.52478V15ZM9.69399 4.50932H8.52083V3.67752L9.93078 2.25755C10.2068 1.97957 10.6543 1.97957 10.9303 2.25755C11.2063 2.53553 11.2063 2.98622 10.9303 3.26419L9.69399 4.50932ZM7.47917 3.67752V4.50932H6.30601L5.06967 3.26419C4.79366 2.98622 4.79366 2.53553 5.06967 2.25755C5.34569 1.97957 5.7932 1.97957 6.06922 2.25755L7.47917 3.67752Z" fill="white"/>
</svg>
