<svg width="16" height="16" viewBox="0 0 16 16" fill="none" xmlns="http://www.w3.org/2000/svg">
<path fill-rule="evenodd" clip-rule="evenodd" d="M8 1C11.8657 1 15 4.13376 15 8C15 11.8662 11.8657 15 8 15C4.13428 15 1 11.8657 1 8C1 4.13428 4.13428 1 8 1ZM13.7637 6.30371C13.5868 7.53035 12.9636 8.54236 12.4434 9.20117C11.6403 10.1904 10.5637 11.0468 9.3291 11.6797C8.10803 12.3057 6.78736 12.6859 5.50977 12.7793C5.29353 12.7917 5.09254 12.7988 4.9043 12.7988C4.68047 12.7988 4.4742 12.7901 4.27832 12.7725C5.23865 13.5245 6.43284 13.9913 7.7334 14.0469L7.99512 14.0527C11.3278 14.0526 14.03 11.3502 14.0303 8.01758C14.0303 7.43917 13.9489 6.87925 13.7969 6.34961C13.786 6.33405 13.7746 6.31875 13.7637 6.30371ZM8.8584 1.63867C6.79645 1.63871 4.92215 2.48872 3.84473 3.91211L3.83789 3.9209C3.3723 4.48819 3.06271 5.11038 2.94336 5.7207C2.87541 6.09211 2.88808 6.43324 2.98145 6.73047C3.20293 7.39545 3.74152 7.92825 4.35254 8.08496C4.60663 8.14822 4.85099 8.17441 5.07812 8.16406L5.13867 8.15918C6.68329 8.03466 8.06036 7.06122 9.2041 6.125C9.91998 5.52584 10.6053 4.73271 10.6494 4.2207C9.65134 4.7047 8.62055 5.33428 7.43262 6.18555C7.30086 6.27938 7.12146 6.25356 7.02344 6.12598C6.43362 5.36238 5.92033 4.74226 5.40625 4.17578C5.35029 4.1136 5.32187 4.03017 5.33008 3.94727C5.33786 3.86427 5.38132 3.7871 5.44824 3.7373C7.02302 2.55623 8.58958 1.88727 10.1094 1.74609C9.70175 1.67455 9.28365 1.63867 8.8584 1.63867Z" fill="white"/>
</svg>
