<svg width="16" height="16" viewBox="0 0 16 16" fill="none" xmlns="http://www.w3.org/2000/svg">
<path d="M12.9043 6.60449C13.0328 7.05244 13.1025 7.52549 13.1025 8.01465C13.1024 10.8346 10.8161 13.1219 7.99609 13.1221C6.80977 13.1221 5.71744 12.717 4.85059 12.0381C5.01644 12.053 5.19133 12.0605 5.38086 12.0605C5.54012 12.0605 5.71061 12.0545 5.89355 12.0439C6.97442 11.9649 8.09198 11.6429 9.125 11.1133C10.1695 10.5778 11.0804 9.85354 11.7598 9.0166C12.2 8.45916 12.7273 7.60237 12.877 6.56445C12.8861 6.57714 12.8951 6.59137 12.9043 6.60449Z" fill="white"/>
<path d="M8.72656 2.61719C9.08639 2.6172 9.44024 2.64745 9.78516 2.70801C8.49909 2.8274 7.17341 3.39414 5.84082 4.39355C5.78429 4.4357 5.74779 4.50113 5.74121 4.57129C5.73442 4.64127 5.75747 4.71216 5.80469 4.76465C6.23959 5.24389 6.67486 5.76809 7.17383 6.41406C7.25675 6.52175 7.40814 6.54397 7.51953 6.46484C8.52466 5.74458 9.39672 5.21128 10.2412 4.80176C10.2039 5.23499 9.62428 5.90611 9.01855 6.41309C8.05074 7.20531 6.88518 8.02943 5.57812 8.13477L5.52832 8.13867C5.33621 8.14744 5.12897 8.12573 4.91406 8.07227C4.397 7.93971 3.94037 7.48849 3.75293 6.92578C3.67402 6.67447 3.66333 6.38625 3.7207 6.07227C3.82164 5.55571 4.08445 5.02897 4.47852 4.54883L4.4834 4.54102C5.39508 3.33656 6.98177 2.61719 8.72656 2.61719Z" fill="white"/>
<path fill-rule="evenodd" clip-rule="evenodd" d="M8 1C11.8657 1 15 4.13375 15 8C15 11.8663 11.8657 15 8 15C4.13424 15 1 11.8658 1 8C1 4.13424 4.13424 1 8 1ZM8 2.07715C4.72901 2.07715 2.07715 4.72901 2.07715 8C2.07715 11.1687 4.56603 13.7563 7.69531 13.915L8 13.9229C11.271 13.9229 13.9229 11.2714 13.9229 8C13.9229 4.72857 11.271 2.07715 8 2.07715Z" fill="white"/>
</svg>
