<svg width="16" height="16" viewBox="0 0 16 16" fill="none" xmlns="http://www.w3.org/2000/svg">
<path d="M2.0917 1.92569C2.05182 1.99512 2.04525 2.08673 2.03212 2.26996L1.75795 6.09472C1.64368 7.68892 2.77389 9.06803 4.29803 9.31835C4.29696 9.33172 4.29641 9.34524 4.29641 9.35889V12.822C2.92814 12.9401 1.88756 13.5345 1.88756 14.25H7.70529C7.70529 13.5345 6.66469 12.9401 5.29641 12.822V9.35889C5.29641 9.34525 5.29587 9.33173 5.2948 9.31837C6.81898 9.06808 7.94923 7.68894 7.83495 6.09472L7.56079 2.26996C7.54766 2.08673 7.54109 1.99512 7.50121 1.92569C7.46611 1.86456 7.41336 1.81546 7.34987 1.78481C7.27777 1.75 7.18592 1.75 7.00222 1.75H2.59069C2.40699 1.75 2.31514 1.75 2.24303 1.78481C2.17955 1.81546 2.1268 1.86456 2.0917 1.92569Z" fill="white"/>
<path d="M10.4705 3.39032C10.4324 3.46519 10.4324 3.5632 10.4324 3.75922V9.1718C10.4324 9.9032 10.9122 10.5225 11.5743 10.7321C11.5705 10.7569 11.5686 10.7822 11.5686 10.8081V12.839C10.6047 12.9892 9.88696 13.564 9.88696 14.2501H14.2503C14.2503 13.5639 13.5325 12.9892 12.5686 12.839V10.8081C12.5686 10.7823 12.5666 10.7569 12.5628 10.7321C13.2249 10.5225 13.7048 9.90321 13.7048 9.1718V3.75922C13.7048 3.5632 13.7048 3.46519 13.6667 3.39032C13.6331 3.32447 13.5796 3.27092 13.5137 3.23737C13.4389 3.19922 13.3409 3.19922 13.1448 3.19922H10.9924C10.7963 3.19922 10.6983 3.19922 10.6235 3.23737C10.5576 3.27092 10.5041 3.32447 10.4705 3.39032Z" fill="white"/>
</svg>
