<svg width="16" height="16" viewBox="0 0 16 16" fill="none" xmlns="http://www.w3.org/2000/svg">
<path d="M11.4158 1.61978C11.4689 1.46007 11.6948 1.46007 11.7479 1.61978L12.1282 2.76351C12.3387 3.39634 12.8372 3.89159 13.4714 4.09788L14.6301 4.47477C14.7913 4.52719 14.7913 4.75519 14.6301 4.80761L13.4714 5.18451C12.8372 5.39079 12.3387 5.88605 12.1282 6.51888L11.7479 7.66261C11.6948 7.82231 11.4689 7.82231 11.4158 7.66261L11.0354 6.51887C10.825 5.88604 10.3265 5.39079 9.69229 5.18451L8.53355 4.80761C8.37239 4.75519 8.37239 4.52719 8.53355 4.47477L9.69229 4.09788C10.3265 3.89159 10.825 3.39634 11.0354 2.76351L11.4158 1.61978Z" fill="white"/>
<path d="M6.76733 10.2399C4.96993 9.98741 3.6258 8.39425 3.75912 6.54825L4.02802 2.82496C4.0338 2.7447 4.04012 2.65684 4.05177 2.58083C4.06504 2.49415 4.09049 2.38148 4.15711 2.26673C4.24637 2.11296 4.38051 1.98943 4.54195 1.91233C4.66243 1.8548 4.77787 1.83772 4.86624 1.83079C4.94373 1.82472 5.03279 1.82474 5.11415 1.82476H9.42066C9.50202 1.82474 9.59108 1.82472 9.66857 1.83079C9.75693 1.83772 9.87237 1.8548 9.99286 1.91233C10.0526 1.94085 10.1085 1.97571 10.1599 2.0161L10.0233 2.42668C9.91738 2.74533 9.66468 2.99526 9.34248 3.10006L8.20244 3.47088C7.06016 3.84242 7.06017 5.44052 8.20244 5.81206L9.34248 6.18288C9.66468 6.28768 9.91738 6.5376 10.0233 6.85626L10.3983 7.98377C10.4177 8.04205 10.4437 8.1017 10.4756 8.16228H10.5031C10.0305 9.25447 9.00664 10.0659 7.76733 10.2399V13.1126C9.10178 13.2295 10.1153 13.8059 10.1153 14.4993H4.4194C4.4194 13.8059 5.43289 13.2295 6.76733 13.1126V10.2399Z" fill="white"/>
</svg>
