<svg width="16" height="16" viewBox="0 0 16 16" fill="none" xmlns="http://www.w3.org/2000/svg">
<path d="M11.5893 1.61715C11.5346 1.46095 11.3137 1.46095 11.259 1.61715L10.8479 2.7907C10.6277 3.41946 10.1221 3.90641 9.48558 4.10297L8.22228 4.49305C8.05779 4.54384 8.05779 4.77668 8.22228 4.82747L9.48558 5.21755C10.1221 5.41411 10.6277 5.90106 10.8479 6.52982L11.259 7.70337C11.3137 7.85956 11.5346 7.85956 11.5893 7.70337L12.0004 6.52982C12.2207 5.90106 12.7262 5.41411 13.3628 5.21755L14.6261 4.82747C14.7906 4.77668 14.7906 4.54384 14.6261 4.49305L13.3628 4.10297C12.7262 3.90641 12.2207 3.41946 12.0004 2.7907L11.5893 1.61715Z" fill="white"/>
<path d="M4.62439 1.87542C4.53755 1.87541 4.44734 1.87539 4.36963 1.88117C4.28273 1.88764 4.17322 1.90326 4.05908 1.955C3.90346 2.02556 3.76883 2.14103 3.67709 2.29106C3.60843 2.40334 3.58158 2.51491 3.56748 2.60229C3.55521 2.67831 3.54855 2.76618 3.54248 2.84626L3.25971 6.56306C3.11803 8.42544 4.54385 9.98211 6.38729 10.2236V13.1139C4.97135 13.2256 3.89255 13.8038 3.89255 14.5002H9.88202C9.88202 13.8038 8.80322 13.2256 7.38729 13.1139V10.2238C8.88047 10.0292 10.0926 8.97515 10.4311 7.59034C10.4967 7.3221 10.3324 7.05149 10.0642 6.9859C9.79595 6.92032 9.52534 7.08461 9.45976 7.35286C9.19967 8.41669 8.16994 9.25609 6.88731 9.25609C5.32418 9.25609 4.15168 8.02104 4.25683 6.63892L4.5432 2.87562C4.57021 2.87543 4.60088 2.87542 4.63744 2.87542H9.69488C9.97102 2.87542 10.1949 2.65157 10.1949 2.37542C10.1949 2.09928 9.97102 1.87542 9.69488 1.87542L4.62439 1.87542Z" fill="white"/>
</svg>
