<svg width="16" height="16" viewBox="0 0 16 16" fill="none" xmlns="http://www.w3.org/2000/svg">
<path fill-rule="evenodd" clip-rule="evenodd" d="M3.06487 1.75C2.98457 1.74998 2.89796 1.74996 2.82281 1.75592C2.73747 1.76268 2.62744 1.77926 2.51293 1.83454C2.35875 1.90898 2.23065 2.02823 2.14539 2.17669C2.08206 2.28696 2.05766 2.39552 2.04482 2.48017C2.03351 2.55469 2.02734 2.64108 2.02162 2.72118L1.75893 6.38746C1.62905 8.20013 2.93071 9.76536 4.67406 10.0199V12.8836C3.37075 13.0011 2.38219 13.5695 2.38219 14.253H7.96589C7.96589 13.5695 6.97735 13.0011 5.67406 12.8836V10.0198C7.41737 9.76532 8.71899 8.20011 8.58911 6.38746L8.32643 2.72117C8.3207 2.64108 8.31453 2.55467 8.30323 2.48017C8.29039 2.39552 8.26598 2.28696 8.20266 2.17669C8.11739 2.02823 7.98929 1.90898 7.83512 1.83454C7.7206 1.77926 7.61058 1.76268 7.52523 1.75592C7.45009 1.74996 7.36348 1.74998 7.28317 1.75H3.06487ZM3.02216 2.75005H7.32588L7.59167 6.45893C7.69221 7.8622 6.58089 9.05599 5.17402 9.05599C3.76715 9.05599 2.65583 7.8622 2.75638 6.45893L3.02216 2.75005Z" fill="white"/>
<path fill-rule="evenodd" clip-rule="evenodd" d="M11.1294 3.14152C11.0436 3.1415 10.9518 3.14148 10.8726 3.14795C10.7834 3.15525 10.667 3.17319 10.5473 3.23417C10.3874 3.31566 10.2574 3.44569 10.1759 3.60563C10.1149 3.7253 10.097 3.84165 10.0897 3.93093C10.0832 4.01012 10.0832 4.10187 10.0832 4.18773L10.0832 9.3771C10.0832 10.3482 10.7518 11.1631 11.6537 11.3867V12.9013C10.7387 13.0503 10.0598 13.5989 10.0598 14.253H14.2475C14.2475 13.599 13.5687 13.0503 12.6537 12.9013V11.3867C13.5556 11.1631 14.2241 10.3482 14.2241 9.3771L14.2241 4.18773C14.2241 4.10187 14.2241 4.01012 14.2176 3.93093C14.2103 3.84165 14.1924 3.7253 14.1314 3.60563C14.0499 3.44569 13.9199 3.31566 13.76 3.23417C13.6403 3.17319 13.524 3.15525 13.4347 3.14795C13.3555 3.14148 13.2637 3.1415 13.1779 3.14152H11.1294ZM11.0833 4.14157H13.224L13.2241 9.3771C13.2241 9.96827 12.7448 10.4475 12.1537 10.4475C11.5625 10.4475 11.0832 9.96827 11.0832 9.3771L11.0833 4.14157Z" fill="white"/>
</svg>
