<svg width="16" height="16" viewBox="0 0 16 16" fill="none" xmlns="http://www.w3.org/2000/svg">
<path fill-rule="evenodd" clip-rule="evenodd" d="M8 1C4.92 1 2.31 2.97 1.37 5.72C1.13 6.44 1 7.2 1 8C1 8.79 1.13 9.55 1.37 10.27C1.72 11.29 2.31 12.22 3.07 12.97L2.14 13.89C1.94 14.09 1.94 14.4 2.14 14.6C2.34 14.8 2.65 14.8 2.85 14.6L3.83 13.62L4.58 12.87L5.65 11.79L6.46 10.99L6.83 10.62L7.88 9.57L10.07 7.38L11.01 6.44L12.08 5.37L12.87 4.58L13.62 3.83L14.52 2.93C14.71 2.73 14.71 2.42 14.52 2.22C14.32 2.03 14.01 2.03 13.81 2.22L12.97 3.07C11.7 1.79 9.94 1 8 1ZM12.22 3.81C11.41 2.99 10.37 2.41 9.19 2.17C9.37 2.42 9.57 2.71 9.76 3.05C10.12 3.67 10.48 4.42 10.74 5.29L12.22 3.81ZM9.61 6.42H6.05C5.95 6.92 5.9 7.44 5.9 8C5.9 8.55 5.95 9.07 6.05 9.57H6.46L9.61 6.42ZM5.27 10.76C5.26 10.71 5.24 10.67 5.23 10.62H2.65C2.95 11.22 3.34 11.76 3.81 12.22L5.27 10.76ZM5.23 5.37H2.65C3.45 3.75 4.97 2.54 6.8 2.17C6.62 2.42 6.42 2.71 6.23 3.05C5.86 3.69 5.49 4.47 5.23 5.37ZM8 2.32C8.23 2.61 8.54 3.03 8.85 3.58C9.15 4.08 9.44 4.69 9.66 5.37H6.33C6.55 4.69 6.84 4.08 7.14 3.58C7.45 3.03 7.76 2.61 8 2.32ZM8 15C6.8 15 5.68 14.7 4.7 14.17L5.48 13.39C5.89 13.58 6.33 13.73 6.8 13.82C6.62 13.57 6.42 13.28 6.23 12.94C6.19 12.88 6.16 12.81 6.12 12.75L6.9 11.97C6.98 12.13 7.06 12.27 7.14 12.41C7.45 12.96 7.76 13.38 8 13.67C8.23 13.38 8.54 12.96 8.85 12.41C9.15 11.91 9.44 11.3 9.66 10.62H8.25L9.3 9.57H9.94C9.99 9.33 10.03 9.07 10.05 8.81L11.14 7.73C11.14 7.82 11.15 7.9 11.15 8C11.15 8.55 11.09 9.07 11.01 9.57H13.74C13.87 9.07 13.94 8.54 13.94 8C13.94 7.45 13.87 6.92 13.74 6.42H12.45L14.17 4.7C14.35 5.02 14.5 5.37 14.62 5.72C14.86 6.44 15 7.2 15 8C15 8.79 14.86 9.55 14.62 10.27C13.68 13.02 11.07 15 8 15ZM4.98 9.57H2.25C2.12 9.07 2.05 8.54 2.05 8C2.05 7.45 2.12 6.92 2.25 6.42H4.98C4.9 6.92 4.84 7.44 4.84 8C4.84 8.55 4.9 9.07 4.98 9.57ZM9.76 12.94C9.57 13.28 9.37 13.57 9.19 13.82C11.02 13.45 12.54 12.24 13.34 10.62H10.76C10.5 11.52 10.13 12.3 9.76 12.94Z" fill="white"/>
</svg>
