<svg width="16" height="16" viewBox="0 0 16 16" fill="none" xmlns="http://www.w3.org/2000/svg">
<path fill-rule="evenodd" clip-rule="evenodd" d="M5.04 5.14998H1.58C2.56 2.88998 4.71 1.24998 7.26 0.97998C7.22 1.02998 7.18 1.06998 7.14 1.11998C6.86 1.46998 6.49 1.97998 6.12 2.61998C5.72 3.30998 5.32 4.15998 5.04 5.14998ZM8.85 1.11998C8.81 1.06998 8.77 1.02998 8.73 0.97998C10.39 1.15998 11.88 1.90998 12.99 3.03998L13.81 2.21998C14.01 2.02998 14.32 2.02998 14.52 2.21998C14.71 2.41998 14.71 2.72998 14.52 2.92998L13.64 3.80998L12.31 5.14998L11.25 6.19998L10.27 7.16998L7.76 9.68998L6.71 10.74L6.28 11.17L5.48 11.97L3.86 13.59L2.85 14.6C2.65 14.8 2.34 14.8 2.14 14.6C1.94 14.4 1.94 14.09 2.14 13.89L3.09 12.94C2.46 12.31 1.94 11.57 1.58 10.74H5.04C5.06 10.81 5.08 10.87 5.1 10.94L6.34 9.68998H5.86C5.75 9.13998 5.68 8.55998 5.68 7.93998C5.68 7.32998 5.75 6.74998 5.86 6.19998H9.83L10.94 5.08998C10.65 4.12998 10.26 3.29998 9.87 2.61998C9.5 1.97998 9.13 1.46998 8.85 1.11998ZM8.96 3.13998C9.28 3.70998 9.61 4.37998 9.86 5.14998H6.13C6.38 4.37998 6.71 3.70998 7.03 3.13998C7.37 2.55998 7.71 2.08998 7.96 1.77998C8.21 2.08998 8.62 2.55998 8.96 3.13998ZM13.72 5.14998L14.19 4.67998C14.27 4.82998 14.34 4.98998 14.41 5.14998H13.72ZM4.79 9.68998H1.21C1.07 9.12998 1 8.54998 1 7.93998C1 7.33998 1.07 6.75998 1.21 6.19998H4.79C4.69 6.74998 4.63 7.32998 4.63 7.93998C4.63 8.54998 4.69 9.13998 4.79 9.68998ZM11.35 7.51998L12.67 6.19998H14.78C14.92 6.75998 15 7.33998 15 7.93998C15 8.54998 14.92 9.12998 14.78 9.68998H11.2C11.3 9.13998 11.36 8.54998 11.36 7.93998C11.36 7.79998 11.35 7.65998 11.35 7.51998ZM9.18 9.68998L10.28 8.57998C10.26 8.95998 10.2 9.32998 10.13 9.68998H9.18ZM6.71 12.15L8.13 10.74H9.86C9.61 11.5 9.28 12.18 8.96 12.74C8.62 13.33 8.28 13.79 8.03 14.11C7.78 13.79 7.37 13.33 7.03 12.74C6.92 12.56 6.82 12.36 6.71 12.15ZM10.95 10.74H14.41C13.43 13 11.28 14.64 8.73 14.9C8.77 14.86 8.81 14.81 8.85 14.76C9.13 14.42 9.5 13.91 9.87 13.27C10.27 12.58 10.67 11.72 10.95 10.74ZM4.73 14.14L5.94 12.93C6 13.05 6.06 13.16 6.12 13.27C6.49 13.91 6.86 14.42 7.14 14.76C7.18 14.81 7.22 14.86 7.26 14.9C6.35 14.81 5.5 14.54 4.73 14.14Z" fill="white"/>
</svg>
