<svg width="16" height="16" viewBox="0 0 16 16" fill="none" xmlns="http://www.w3.org/2000/svg">
<path fill-rule="evenodd" clip-rule="evenodd" d="M2.6587 5.375H5.2333C5.49792 4.47291 5.86681 3.69069 6.23275 3.0564C6.42681 2.72003 6.62097 2.42361 6.80001 2.17107C4.97784 2.54424 3.45864 3.75042 2.6587 5.375ZM8 2.32303L7.99909 2.32417C7.76668 2.61339 7.45462 3.03966 7.14225 3.5811C6.84971 4.08817 6.55944 4.69174 6.33314 5.375H9.66687C9.44056 4.69174 9.15029 4.08817 8.85775 3.5811C8.54538 3.03966 8.23333 2.61339 8.00092 2.32417L8 2.32303ZM9.94426 6.425H6.05574C5.9577 6.92086 5.9 7.44744 5.9 8C5.9 8.55256 5.9577 9.07914 6.05574 9.575H9.94426C10.0423 9.07914 10.1 8.55256 10.1 8C10.1 7.44744 10.0423 6.92086 9.94426 6.425ZM11.0123 9.575C11.0995 9.0767 11.15 8.5505 11.15 8C11.15 7.4495 11.0995 6.9233 11.0123 6.425H13.7394C13.8766 6.92617 13.95 7.45416 13.95 8C13.95 8.54584 13.8766 9.07383 13.7394 9.575L11.0123 9.575ZM9.66687 10.625L6.33314 10.625C6.55944 11.3083 6.84971 11.9118 7.14225 12.4189C7.45462 12.9603 7.76668 13.3866 7.99909 13.6758L8 13.677L8.00092 13.6758C8.23333 13.3866 8.54538 12.9603 8.85775 12.4189C9.15029 11.9118 9.44056 11.3083 9.66687 10.625ZM6.80001 13.8289C6.62097 13.5764 6.42681 13.28 6.23275 12.9436C5.86681 12.3093 5.49792 11.5271 5.2333 10.625L2.6587 10.625C3.45864 12.2496 4.97784 13.4558 6.80001 13.8289ZM2.26055 9.575L4.98768 9.575C4.90049 9.0767 4.85 8.5505 4.85 8C4.85 7.4495 4.90049 6.9233 4.98768 6.425H2.26055C2.12337 6.92617 2.05 7.45416 2.05 8C2.05 8.54584 2.12337 9.07383 2.26055 9.575ZM9.19999 13.8289C9.37903 13.5764 9.57319 13.28 9.76725 12.9436C10.1332 12.3093 10.5021 11.5271 10.7667 10.625L13.3413 10.625C12.5414 12.2496 11.0222 13.4558 9.19999 13.8289ZM13.3413 5.375H10.7667C10.5021 4.47291 10.1332 3.69069 9.76725 3.0564C9.57319 2.72003 9.37903 2.42361 9.19999 2.17107C11.0222 2.54424 12.5414 3.75042 13.3413 5.375ZM1.37649 5.72981C2.31919 2.97879 4.92783 1 8 1C11.0722 1 13.6808 2.97879 14.6235 5.72981C14.8677 6.44239 15 7.20629 15 8C15 8.79371 14.8677 9.55761 14.6235 10.2702C13.6808 13.0212 11.0722 15 8 15C4.92783 15 2.31919 13.0212 1.37649 10.2702C1.13231 9.55761 1 8.79371 1 8C1 7.2063 1.13231 6.44239 1.37649 5.72981Z" fill="white"/>
</svg>
