<svg width="16" height="16" viewBox="0 0 16 16" fill="none" xmlns="http://www.w3.org/2000/svg">
<path d="M7.99512 1.00028C8.39953 0.993536 8.8013 1.06997 9.17578 1.22391C9.87689 1.54623 10.5607 1.9061 11.2236 2.30204C11.8914 2.68749 12.538 3.10924 13.1602 3.56571C13.7136 4.01189 14.2669 4.94223 14.3223 5.66727C14.3248 5.68891 14.4515 6.75856 14.4697 8.02274C14.4686 8.81128 14.4257 9.59919 14.3408 10.3831C14.2121 11.2041 13.7927 11.9512 13.1602 12.4847C13.1421 12.4978 12.2821 13.1231 11.2236 13.7669C10.5606 14.1626 9.87676 14.5225 9.17578 14.845C8.80181 15.0007 8.39969 15.0772 7.99512 15.0686C7.59108 15.0772 7.18937 15.0029 6.81445 14.8509C6.1133 14.5286 5.42954 14.1688 4.7666 13.7727C3.70319 13.1445 2.8406 12.4974 2.83008 12.4895C2.43704 12.1726 2.04347 11.6121 1.82227 11.054C1.78249 10.9534 1.85961 10.8479 1.96777 10.8479H2.86523C2.98205 10.8479 3.08861 10.9129 3.15039 11.012C3.31896 11.2827 3.52284 11.5246 3.72656 11.6878C3.72656 11.6878 4.4428 12.2212 5.32617 12.7395C5.87351 13.0642 6.43771 13.36 7.0166 13.6243C7.32619 13.749 7.65856 13.809 7.99219 13.802C8.32613 13.809 8.65807 13.747 8.9668 13.6194C9.54561 13.3549 10.1098 13.0592 10.6572 12.7347C11.5406 12.2011 12.2568 11.6829 12.2568 11.6829C12.7789 11.2455 13.1252 10.6334 13.2314 9.96024C13.3015 9.31742 13.337 8.67132 13.3379 8.02469C13.3227 6.97741 13.2158 6.09305 13.2158 6.09305C13.1701 5.49856 12.7137 4.73628 12.2568 4.3704C11.743 3.99599 11.2088 3.65039 10.6572 3.33426C10.1099 3.00954 9.54571 2.71376 8.9668 2.4495C8.65765 2.32328 8.326 2.26141 7.99219 2.26688C7.65814 2.25988 7.32542 2.32182 7.0166 2.4495C6.43784 2.71394 5.87357 3.00976 5.32617 3.33426C4.44285 3.86774 3.72656 4.3704 3.72656 4.3704C3.49282 4.56624 3.29421 4.79742 3.13672 5.05301C3.07445 5.15387 2.96716 5.22081 2.84863 5.22098H1.96387C1.85721 5.22098 1.78024 5.11808 1.81641 5.01786C2.02102 4.45676 2.36931 3.95434 2.83008 3.56571C2.85173 3.55041 3.7103 2.94444 4.7666 2.30204C5.42967 1.90625 6.11343 1.54648 6.81445 1.22391C7.1885 1.06823 7.59053 0.991726 7.99512 1.00028ZM10.3838 8.45731C10.5391 8.45745 10.665 8.58325 10.665 8.73856V9.58231C10.665 9.73762 10.5391 9.86342 10.3838 9.86356H1.80176C1.64636 9.86356 1.51953 9.73771 1.51953 9.58231V8.45731H10.3838ZM6.16309 6.20633C6.31838 6.20645 6.44431 6.33227 6.44434 6.48758V7.33133C6.44434 7.48667 6.31839 7.61345 6.16309 7.61356H1.52051V6.48758C1.52053 6.3322 1.64637 6.20633 1.80176 6.20633H6.16309Z" fill="white"/>
</svg>
