<svg width="16" height="16" viewBox="0 0 16 16" fill="none" xmlns="http://www.w3.org/2000/svg">
<path d="M12.1543 1.00391C13.7394 1.08421 15 2.39489 15 4V12L14.9961 12.1543C14.9184 13.6883 13.6883 14.9184 12.1543 14.9961L12 15H4C2.39489 15 1.08421 13.7394 1.00391 12.1543L1 12V4C1 2.34315 2.34315 1 4 1H12L12.1543 1.00391ZM4 3H6V5H4V7H6V9H4V11H6V13H4V14H6V13H8V14H12C13.1046 14 14 13.1046 14 12V4C14 2.89543 13.1046 2 12 2H8V3H6V2H4V3ZM10 13H8V11H10V13ZM8 11H6V9H8V11ZM12 11H10V9H12V11ZM10 9H8V7H10V9ZM8 7H6V5H8V7ZM12 7H10V5H12V7ZM10 5H8V3H10V5Z" fill="white"/>
</svg>
