<svg width="16" height="16" viewBox="0 0 16 16" fill="none" xmlns="http://www.w3.org/2000/svg">
<path fill-rule="evenodd" clip-rule="evenodd" d="M1.29228 7.25772C0.882228 7.66777 0.882228 8.33258 1.29228 8.74262L3.0247 10.475C3.43475 10.885 4.09958 10.885 4.50963 10.475L6.24205 8.74262C6.6521 8.33258 6.6521 7.66777 6.24205 7.25772L4.50963 5.52535C4.09958 5.11531 3.43475 5.11531 3.0247 5.52535L1.29228 7.25772ZM5.49955 11.4648C5.0895 11.8748 5.0895 12.5397 5.49955 12.9497L7.23197 14.6821C7.64202 15.0921 8.30685 15.0921 8.7169 14.6821L10.4493 12.9497C10.8594 12.5397 10.8594 11.8748 10.4493 11.4648L8.7169 9.73243C8.30685 9.32238 7.64202 9.32238 7.23197 9.73243L5.49955 11.4648ZM5.49955 4.53554C5.0895 4.1255 5.0895 3.46069 5.49955 3.05065L7.23197 1.31827C7.64202 0.908232 8.30685 0.908232 8.7169 1.31827L10.4493 3.05065C10.8594 3.46069 10.8594 4.1255 10.4493 4.53554L8.7169 6.26792C8.30685 6.67796 7.64202 6.67796 7.23197 6.26792L5.49955 4.53554ZM9.70643 7.25772C9.29638 7.66777 9.29638 8.33258 9.70643 8.74262L11.4389 10.475C11.8489 10.885 12.5137 10.885 12.9238 10.475L14.6562 8.74262C15.0663 8.33258 15.0663 7.66777 14.6562 7.25772L12.9238 5.52535C12.5137 5.11531 11.8489 5.11531 11.4389 5.52535L9.70643 7.25772Z" fill="white"/>
</svg>
