<svg width="16" height="16" viewBox="0 0 16 16" fill="none" xmlns="http://www.w3.org/2000/svg">
<path d="M13.5255 1.64637C13.7207 1.45116 14.0372 1.45126 14.2325 1.64637C14.4276 1.84165 14.4277 2.15819 14.2325 2.35341L2.35362 14.2323C2.1584 14.4275 1.84184 14.4274 1.64658 14.2323C1.45149 14.0371 1.45144 13.7205 1.64658 13.5253L4.46299 10.7079L3.09678 9.24305C2.828 8.95478 2.84331 8.50418 3.12998 8.23622C3.41727 7.96838 3.8688 7.9839 4.13779 8.27235L5.46983 9.70106L5.72178 9.44911L2.81455 6.33192C2.54583 6.04349 2.56073 5.59294 2.84776 5.32508C3.13506 5.05739 3.58662 5.07378 3.85557 5.36219L6.53428 8.23426C6.60154 8.30608 6.7145 8.31085 6.78623 8.24403C6.85744 8.17709 6.86082 8.06403 6.79404 7.99208L3.14072 4.07411C2.87221 3.78564 2.88689 3.33504 3.17393 3.06727C3.46118 2.79967 3.91181 2.81713 4.18076 3.10536L7.46885 6.63075C7.53601 6.70246 7.64905 6.70701 7.7208 6.64051C7.79245 6.57362 7.79655 6.45969 7.72959 6.38759L5.17197 3.6454C4.9032 3.35695 4.91809 2.90642 5.20518 2.63856C5.49241 2.37084 5.94302 2.38743 6.21201 2.67567L9.24326 5.92762L9.92783 5.24305L9.82725 5.00575C9.77091 4.80641 9.70997 4.59136 9.62217 4.3163C9.53688 4.04877 9.6711 3.78477 9.90342 3.62489C9.93157 3.60799 9.96021 3.59023 9.99131 3.57704C10.3532 3.42408 10.7722 3.59348 10.9269 3.95594L11.0128 4.15809L13.5255 1.64637Z" fill="white"/>
<path d="M12.5362 7.73329C13.424 9.81855 12.4568 12.2222 10.3761 13.1024C8.77121 13.781 6.97323 13.3541 5.82627 12.1669L11.8556 6.13759L12.5362 7.73329Z" fill="white"/>
</svg>
