<svg width="16" height="16" viewBox="0 0 16 16" fill="none" xmlns="http://www.w3.org/2000/svg">
<path fill-rule="evenodd" clip-rule="evenodd" d="M13.5255 1.64637C13.7207 1.45116 14.0372 1.45126 14.2325 1.64637C14.4276 1.84165 14.4277 2.15819 14.2325 2.35341L2.35362 14.2323C2.1584 14.4275 1.84184 14.4274 1.64658 14.2323C1.45149 14.0371 1.45144 13.7205 1.64658 13.5253L4.19834 10.9725L3.01768 9.40516C2.56326 8.80185 2.68399 7.94378 3.28721 7.48915C3.38912 7.41237 3.49916 7.35289 3.6124 7.30848L3.04697 6.55751C2.59246 5.95428 2.71249 5.0972 3.31553 4.64247C3.41723 4.56589 3.52676 4.50616 3.63975 4.4618L3.59678 4.40419C3.14231 3.80086 3.26304 2.94281 3.86631 2.48817C4.39623 2.0892 5.12194 2.13404 5.59873 2.55946C5.67582 2.45436 5.76958 2.35877 5.87901 2.27626C6.48222 1.82176 7.3393 1.9419 7.79404 2.54481L9.67393 5.03895C9.58957 4.38934 9.98171 3.75469 10.629 3.55653C10.9496 3.45856 11.2778 3.48526 11.5636 3.60731L13.5255 1.64637ZM4.4044 8.36024C4.28206 8.19815 4.05095 8.16588 3.88877 8.28798C3.72681 8.41031 3.69427 8.64139 3.81651 8.8036L4.91319 10.2577L5.43858 9.73231L4.4044 8.36024ZM4.43272 5.51356C4.31042 5.35127 4.07934 5.31912 3.91709 5.4413C3.75524 5.56356 3.72284 5.79375 3.84483 5.95594L6.15244 9.01844L6.67783 8.49305L4.43272 5.51356ZM4.9835 3.35926C4.8612 3.19716 4.63006 3.16497 4.46787 3.287C4.30566 3.40928 4.2733 3.64031 4.39561 3.80262L7.3917 7.77919L7.94346 7.22743C7.89109 7.19554 7.84298 7.15433 7.80381 7.10243L4.9835 3.35926ZM6.99619 3.14637C6.87383 2.98432 6.64272 2.95293 6.48057 3.07508C6.33917 3.18208 6.29603 3.37196 6.36924 3.52626L6.4083 3.58876L8.60264 6.50087C8.61252 6.51405 8.61962 6.52907 8.62803 6.54286L9.15635 6.01454L6.99619 3.14637Z" fill="white"/>
<path d="M13.505 8.28309C14.2581 10.7473 12.8714 13.3558 10.4073 14.1093C8.5318 14.6826 6.57615 14.0139 5.41514 12.578L6.1251 11.869C7.0287 13.055 8.60673 13.6139 10.1144 13.1532C12.0503 12.5613 13.1406 10.5112 12.5489 8.57509L11.8155 6.17762L12.6163 5.37684L13.505 8.28309Z" fill="white"/>
<path d="M11.423 7.41005C11.4935 7.64181 11.3878 7.89172 11.172 8.00184C10.9561 8.11171 10.6921 8.05043 10.546 7.85731L10.3702 7.62391L11.2257 6.76747L11.423 7.41005Z" fill="white"/>
</svg>
