<svg width="16" height="16" viewBox="0 0 16 16" fill="none" xmlns="http://www.w3.org/2000/svg">
<path fill-rule="evenodd" clip-rule="evenodd" d="M6.6735 2.25C6.48352 2.25 6.30558 2.41245 6.30558 2.64277L6.30558 9.42319C6.30558 9.66668 6.13018 9.87477 5.8902 9.91598C5.65022 9.95718 5.41544 9.81952 5.33422 9.58997L4.46244 7.12618C4.38828 6.91659 4.17542 6.82715 3.99669 6.89406C3.81079 6.96366 3.69767 7.18756 3.774 7.4033L5.1395 11.2624C5.83664 13.2326 7.94208 14.2299 9.83246 13.5221C11.3062 12.9704 12.2373 11.5387 12.2499 9.99511C12.2493 9.98466 12.2489 9.97412 12.2489 9.9635V7.46374C12.2489 7.23342 12.071 7.07097 11.881 7.07097C11.691 7.07097 11.5131 7.23342 11.5131 7.46374V8.17796C11.5131 8.4541 11.2892 8.67796 11.0131 8.67796C10.737 8.67796 10.5131 8.4541 10.5131 8.17796V6.57097C10.5131 6.34065 10.3352 6.1782 10.1452 6.1782C9.9552 6.1782 9.77727 6.34065 9.77727 6.57097V7.6423C9.77727 7.91844 9.55341 8.1423 9.27727 8.1423C9.00112 8.1423 8.77727 7.91844 8.77727 7.6423V5.85675C8.77727 5.62643 8.59933 5.46398 8.40935 5.46398C8.21936 5.46398 8.04142 5.62643 8.04142 5.85675V7.10663C8.04142 7.38278 7.81757 7.60663 7.54142 7.60663C7.26528 7.60663 7.04142 7.38278 7.04142 7.10663L7.04142 2.64277C7.04142 2.41245 6.86349 2.25 6.6735 2.25ZM8.04142 4.51457V2.64277C8.04142 1.88697 7.4422 1.25 6.6735 1.25C5.90481 1.25 5.30558 1.88697 5.30558 2.64277L5.30558 6.57293C4.98356 5.99958 4.29047 5.71628 3.64606 5.95755C2.93109 6.22523 2.57973 7.02595 2.83128 7.73687L4.19677 11.596C5.07349 14.0737 7.74932 15.3698 10.1831 14.4587C12.0826 13.7475 13.2499 11.9086 13.2501 9.96354C13.2501 9.95221 13.2497 9.94096 13.2489 9.92982V7.46374C13.2489 6.70794 12.6497 6.07097 11.881 6.07097C11.7284 6.07097 11.5825 6.09607 11.4467 6.14221C11.2705 5.58898 10.7625 5.1782 10.1452 5.1782C9.96977 5.1782 9.80318 5.21137 9.65053 5.27155C9.43527 4.79907 8.96688 4.46398 8.40935 4.46398C8.28134 4.46398 8.15804 4.48164 8.04142 4.51457Z" fill="white"/>
</svg>
