<svg width="16" height="16" viewBox="0 0 16 16" fill="none" xmlns="http://www.w3.org/2000/svg">
<path fill-rule="evenodd" clip-rule="evenodd" d="M3.59667 4.40409C3.14201 3.80073 3.2625 2.94302 3.86587 2.48834C4.3958 2.08902 5.12188 2.13343 5.59882 2.55889C5.67595 2.45378 5.76953 2.35802 5.87901 2.27552C6.48239 1.82084 7.34009 1.94144 7.79475 2.5448L9.67211 5.03614C9.58921 4.38732 9.9828 3.75391 10.6295 3.55622C11.352 3.33534 12.1167 3.74201 12.3376 4.46447L13.505 8.28266C14.2585 10.7471 12.8716 13.3557 10.4072 14.1091C8.47823 14.6988 6.46215 13.977 5.3155 12.4556C5.30868 12.4465 5.30221 12.4373 5.2961 12.428L3.01798 9.40482C2.56332 8.80147 2.6838 7.94375 3.28718 7.48907C3.38898 7.41236 3.49802 7.35203 3.61113 7.30762L3.04615 6.55786C2.59149 5.9545 2.71197 5.09679 3.31535 4.64211C3.41715 4.5654 3.52618 4.50506 3.6393 4.46066L3.59667 4.40409ZM4.39531 3.80227C4.27299 3.63995 4.30543 3.40925 4.46769 3.28698C4.62995 3.16471 4.86065 3.19711 4.98298 3.35943L7.80372 7.10269C7.96991 7.32323 8.28341 7.36729 8.50395 7.2011C8.72449 7.03492 8.76855 6.72141 8.60236 6.50088L6.40845 3.58945C6.28612 3.42713 6.31857 3.19642 6.48083 3.07416C6.64308 2.95189 6.87379 2.98429 6.99611 3.14661L10.5454 7.85673C10.6915 8.05052 10.9556 8.11149 11.1718 8.00133C11.388 7.89116 11.4939 7.64167 11.4229 7.40963L10.6776 4.97195C10.6182 4.7776 10.7275 4.57192 10.9218 4.51253C11.1161 4.45312 11.3219 4.56249 11.3813 4.75686L12.5487 8.57505C13.1408 10.5114 12.0511 12.5609 10.1148 13.1528C8.61127 13.6125 7.03812 13.0581 6.13319 11.8788C6.12743 11.8701 6.12137 11.8615 6.115 11.8531L3.81662 8.80301C3.69429 8.64068 3.72674 8.40998 3.889 8.28771C4.05125 8.16544 4.28196 8.19784 4.40428 8.36017L5.65795 10.0238C5.82414 10.2444 6.13764 10.2884 6.35817 10.1222C6.57871 9.95606 6.62277 9.64256 6.45658 9.42202L3.84478 5.95604C3.72246 5.79371 3.75491 5.56301 3.91716 5.44074C4.07942 5.31848 4.31013 5.35087 4.43245 5.5132L6.73084 8.56326C6.89702 8.7838 7.21052 8.82786 7.43106 8.66167C7.6516 8.49549 7.69566 8.18199 7.52947 7.96145L4.39531 3.80227Z" fill="white"/>
</svg>
