<svg width="16" height="16" viewBox="0 0 16 16" fill="none" xmlns="http://www.w3.org/2000/svg">
<path fill-rule="evenodd" clip-rule="evenodd" d="M5.92795 2.69543C5.92795 2.45919 6.01944 2.29084 6.14905 2.17903C6.28197 2.06436 6.4642 2.00167 6.65166 1.99957C6.83907 1.99746 7.01957 2.05597 7.15073 2.16814C7.27843 2.27735 7.37125 2.44724 7.37125 2.69543V7.22182C7.37125 7.31797 7.45122 7.39592 7.54986 7.39592C7.6485 7.39592 7.72847 7.31753 7.72847 7.22138V5.82924C7.72847 5.51724 7.83025 5.29967 7.96693 5.1612C8.10479 5.02153 8.28831 4.95167 8.47262 4.95167C8.65692 4.95167 8.84044 5.02153 8.9783 5.1612C9.11499 5.29967 9.21676 5.51724 9.21676 5.82924V7.76242C9.21676 7.85858 9.29673 7.93653 9.39537 7.93653C9.49402 7.93653 9.57398 7.8581 9.57398 7.76194V6.17727C9.57398 5.81582 9.89432 5.57645 10.2484 5.58072C10.4195 5.58277 10.5852 5.64416 10.7086 5.77181C10.8314 5.89883 10.9272 6.10725 10.9272 6.42977V8.26637C10.9272 8.36253 11.0072 8.44047 11.1058 8.44047C11.2045 8.44047 11.2845 8.36191 11.2845 8.26575V7.22198C11.2845 6.81924 11.6331 6.56629 12.0098 6.58186C12.1931 6.58944 12.3739 6.66268 12.5101 6.8131C12.6462 6.96344 12.7502 7.20518 12.7502 7.57016V10.3555C12.7502 12.1658 11.2717 13.5873 9.49564 13.9241C8.61192 14.0918 7.66235 13.9879 6.79732 13.5307C5.9339 13.0743 5.14344 12.2598 4.58738 10.9872C3.6539 8.55718 3.65333 8.55554 3.29904 7.51975L3.29741 7.51498C3.15008 7.084 3.36776 6.73633 3.67547 6.59627C3.83001 6.52594 4.00325 6.51024 4.16306 6.56062C4.31933 6.60989 4.4775 6.72702 4.5978 6.94895C4.67937 7.13121 4.92526 7.64981 5.15041 8.12218C5.26455 8.36165 5.37383 8.59022 5.45457 8.75891L5.58753 9.03647C5.62299 9.11038 5.70637 9.1504 5.78809 9.1327C5.86981 9.11499 5.92795 9.04386 5.92795 8.96227V2.69543Z" fill="white"/>
</svg>
