<svg width="16" height="16" viewBox="0 0 16 16" fill="none" xmlns="http://www.w3.org/2000/svg">
<path fill-rule="evenodd" clip-rule="evenodd" d="M3.23088 2.84912C3.43309 2.59732 3.69034 2.3962 3.98269 2.26112C4.27504 2.12603 4.59493 2.06049 4.91774 2.0697C5.24057 2.07891 5.55784 2.16264 5.84493 2.3148C6.13204 2.46697 6.3812 2.68345 6.5729 2.94767C6.7646 3.21189 6.89354 3.51656 6.94973 3.838C6.99727 4.11001 7.25633 4.29198 7.52835 4.24444C7.80037 4.19689 7.98234 3.93783 7.93479 3.66582C7.8524 3.19442 7.66336 2.74781 7.38231 2.36043C7.10125 1.97304 6.73553 1.65505 6.31321 1.43123C5.89088 1.2074 5.42319 1.08371 4.94625 1.07011C4.46929 1.0565 3.99604 1.15336 3.56324 1.35334C3.13043 1.55332 2.74994 1.85093 2.45117 2.22297C2.15242 2.59499 1.94348 3.03131 1.84021 3.49799C1.73695 3.96466 1.74208 4.44926 1.85493 4.91437C1.96777 5.37948 2.18537 5.81289 2.49095 6.18116C2.66729 6.39367 2.98251 6.423 3.19502 6.24667C3.40753 6.07034 3.43686 5.75512 3.26052 5.5426C3.05215 5.29148 2.90371 4.99583 2.82674 4.67859C2.74977 4.36136 2.74639 4.03132 2.8166 3.71405C2.8868 3.39681 3.02866 3.10093 3.23088 2.84912ZM4.53836 4.34564C4.44989 4.15418 4.53406 3.93453 4.71511 3.85088C4.89616 3.76722 5.11798 3.84549 5.20645 4.03695L7.04155 8.00849C7.15738 8.25916 7.45449 8.36848 7.70517 8.25265C7.95584 8.13683 8.06516 7.83972 7.94933 7.58904L7.4355 6.47701C7.34703 6.28555 7.43121 6.0659 7.61225 5.98225C7.7933 5.89859 8.01512 5.97686 8.10359 6.16832L8.83763 7.75693C8.95346 8.00761 9.25057 8.11693 9.50125 8.0011C9.75193 7.88527 9.86124 7.58817 9.74541 7.33749L9.30499 6.38432C9.21652 6.19286 9.30069 5.97321 9.48174 5.88956C9.66279 5.8059 9.88461 5.88416 9.97308 6.07563L10.6337 7.50538C10.7495 7.75606 11.0467 7.86537 11.2973 7.74955C11.548 7.63372 11.6573 7.33661 11.5415 7.08594L11.2479 6.45049C11.1594 6.25903 11.2436 6.03938 11.4246 5.95573C11.6057 5.87207 11.8275 5.95034 11.916 6.1418L12.9436 8.36586C12.9481 8.37548 12.9528 8.3849 12.9578 8.3941C13.5763 9.76356 13.3243 11.4238 12.2112 12.5349C10.7794 13.9641 8.45562 13.952 7.01965 12.4984L4.19351 9.63775C4.04553 9.48796 4.04874 9.24993 4.19157 9.10735C4.33293 8.96624 4.56531 8.9646 4.7119 9.11298L6.51621 10.9394C6.68692 11.1121 6.95711 11.1373 7.15674 10.9989C7.35637 10.8605 7.42768 10.5987 7.3258 10.3782L4.53836 4.34564ZM6.11423 3.61751L6.87982 5.2744C6.97227 5.19565 7.07693 5.12801 7.1928 5.07447C7.69273 4.84347 8.2574 4.94151 8.65084 5.27449C8.76509 5.15549 8.90312 5.05532 9.06229 4.98178C9.61517 4.72632 10.2472 4.87327 10.6393 5.29541C10.7441 5.19617 10.8666 5.11197 11.0052 5.04795C11.6945 4.72946 12.5068 5.03645 12.8238 5.72235L13.8373 7.91584C13.8426 7.92564 13.8477 7.93569 13.8524 7.94598C14.6562 9.68574 14.3476 11.8153 12.9177 13.2426C11.0894 15.0676 8.12967 15.0449 6.30826 13.2012L3.48212 10.3405C2.95148 9.80342 2.94874 8.935 3.48509 8.39961C3.96609 7.91948 4.71146 7.87587 5.24418 8.25725L3.63058 4.76509C3.31365 4.07918 3.60638 3.26158 4.29566 2.9431C4.98494 2.62461 5.7973 2.9316 6.11423 3.61751Z" fill="white"/>
</svg>
