<svg width="16" height="16" viewBox="0 0 16 16" fill="none" xmlns="http://www.w3.org/2000/svg">
<path fill-rule="evenodd" clip-rule="evenodd" d="M11.5604 10.75C11.5463 10.75 11.5321 10.75 11.5177 10.75H4.48243C4.46808 10.75 4.45387 10.75 4.43978 10.75C4.22393 10.7502 4.03888 10.7504 3.85931 10.7079C3.7014 10.6705 3.5502 10.6089 3.4113 10.525C3.25311 10.4295 3.12163 10.2998 2.96925 10.1494C2.95926 10.1395 2.94918 10.1296 2.93899 10.1195L1.47847 8.68062C1.47061 8.67287 1.46271 8.66511 1.45477 8.65731C1.35723 8.56154 1.25501 8.46115 1.17906 8.33905C1.11262 8.23224 1.06352 8.11555 1.03371 7.99323C0.999562 7.85311 0.999807 7.70982 1.00004 7.57424C1.00006 7.56317 1.00008 7.55215 1.00008 7.54118V6.83984C1.00006 6.66132 1.00005 6.49803 1.01136 6.36166C1.02355 6.2147 1.05138 6.05525 1.13255 5.89832C1.24888 5.67339 1.43375 5.49189 1.65944 5.3786C1.81617 5.29992 1.97524 5.27292 2.12275 5.26105C2.26023 5.24998 2.42514 5.24999 2.60685 5.25H13.3933C13.575 5.24999 13.7399 5.24998 13.8774 5.26105C14.0249 5.27292 14.184 5.29992 14.3407 5.3786C14.5664 5.49189 14.7513 5.67339 14.8676 5.89832C14.9488 6.05525 14.9766 6.2147 14.9888 6.36166C15.0001 6.49803 15.0001 6.66132 15.0001 6.83984L15.0001 7.54118C15.0001 7.55215 15.0001 7.56318 15.0001 7.57425C15.0003 7.70983 15.0006 7.85311 14.9664 7.99323C14.9366 8.11555 14.8875 8.23224 14.8211 8.33905C14.7451 8.46115 14.6429 8.56154 14.5454 8.65731C14.5374 8.66511 14.5295 8.67287 14.5217 8.68062L13.0612 10.1195C13.051 10.1296 13.0409 10.1395 13.0309 10.1494C12.8785 10.2998 12.747 10.4295 12.5889 10.525C12.45 10.6089 12.2988 10.6705 12.1408 10.7079C11.9613 10.7504 11.7762 10.7502 11.5604 10.75ZM11.5177 9.75C11.799 9.75 11.8593 9.74688 11.9107 9.73473C11.9679 9.72121 12.0223 9.69895 12.072 9.66893C12.1162 9.64226 12.1602 9.60332 12.3593 9.40717L13.8199 7.96826C13.9585 7.83167 13.9672 7.81857 13.972 7.81088C13.9826 7.79381 13.9903 7.77544 13.9949 7.75648C13.9968 7.7487 14.0001 7.73464 14.0001 7.54118V6.85769C14.0001 6.65546 13.9997 6.5343 13.9922 6.44431C13.9873 6.3854 13.9807 6.36216 13.9788 6.3566C13.9604 6.32157 13.9306 6.29174 13.8924 6.27248C13.8875 6.27064 13.8633 6.26315 13.7972 6.25782C13.7047 6.25038 13.5807 6.25 13.3758 6.25H2.6244C2.4195 6.25 2.29545 6.25038 2.20298 6.25782C2.12743 6.2639 2.10675 6.2729 2.10675 6.2729L2.10808 6.27232C2.06972 6.29157 2.03982 6.32147 2.02136 6.3566C2.01944 6.36215 2.01283 6.38539 2.00794 6.44431C2.00048 6.5343 2.00008 6.65546 2.00008 6.85769V7.54118C2.00008 7.73464 2.00338 7.7487 2.00528 7.75648C2.0099 7.77544 2.01758 7.79381 2.0282 7.81088C2.03298 7.81857 2.04165 7.83167 2.18029 7.96826L3.64081 9.40717C3.8399 9.60332 3.88397 9.64226 3.92814 9.66893C3.97786 9.69895 4.0323 9.72121 4.08949 9.73473C4.14083 9.74688 4.20114 9.75 4.48243 9.75H11.5177ZM2.02191 6.35521L2.02136 6.3566L2.02191 6.35521ZM13.9782 6.35521L13.9788 6.3566L13.9782 6.35521ZM11.4866 7.8277C11.4866 8.10384 11.2627 8.3277 10.9866 8.3277H5.01359C4.73745 8.3277 4.51359 8.10384 4.51359 7.8277C4.51359 7.55156 4.73745 7.3277 5.01359 7.3277H10.9866C11.2627 7.3277 11.4866 7.55156 11.4866 7.8277Z" fill="white"/>
</svg>
