<svg width="16" height="16" viewBox="0 0 16 16" fill="none" xmlns="http://www.w3.org/2000/svg">
<path fill-rule="evenodd" clip-rule="evenodd" d="M12.9469 10.1884L14.4134 8.74801C14.6298 8.53546 14.738 8.42919 14.8154 8.30462C14.8841 8.19419 14.9347 8.07353 14.9654 7.94718C15 7.80465 15 7.65299 15 7.34965V7.21C15 6.52394 15 6.1809 14.8665 5.91886C14.749 5.68836 14.5616 5.50096 14.3311 5.38352C14.0691 5.25 13.7261 5.25 13.04 5.25H2.96C2.27394 5.25 1.9309 5.25 1.66886 5.38352C1.43836 5.50096 1.25096 5.68836 1.13352 5.91886C1 6.1809 1 6.52394 1 7.21V7.34965C1 7.65299 1 7.80465 1.03462 7.94718C1.06532 8.07353 1.11594 8.19419 1.18457 8.30462C1.26199 8.42919 1.3702 8.53546 1.58661 8.74801L3.05315 10.1884C3.26427 10.3957 3.36984 10.4994 3.4925 10.5735C3.60126 10.6392 3.71957 10.6876 3.84321 10.7169C3.98265 10.75 4.13061 10.75 4.42653 10.75H11.5735C11.8694 10.75 12.0174 10.75 12.1568 10.7169C12.2804 10.6876 12.3987 10.6392 12.5075 10.5735C12.6302 10.4994 12.7357 10.3957 12.9469 10.1884ZM10.9746 8.32812C11.2508 8.32812 11.4746 8.10427 11.4746 7.82812C11.4746 7.55198 11.2508 7.32812 10.9746 7.32812H5.02461C4.74847 7.32812 4.52461 7.55198 4.52461 7.82812C4.52461 8.10427 4.74847 8.32812 5.02461 8.32812H10.9746Z" fill="white"/>
</svg>
