<svg width="16" height="16" viewBox="0 0 16 16" fill="none" xmlns="http://www.w3.org/2000/svg">
<path fill-rule="evenodd" clip-rule="evenodd" d="M7.975 2C4.6751 2 2 4.6751 2 7.975V8.72889C2.35752 8.48957 2.78746 8.35 3.25 8.35C4.49264 8.35 5.5 9.35736 5.5 10.6V12.7C5.5 13.9426 4.49264 14.95 3.25 14.95C2.00736 14.95 1 13.9426 1 12.7V7.975C1 4.12281 4.12281 1 7.975 1C11.8272 1 14.95 4.12281 14.95 7.975L14.95 12.7C14.95 13.9426 13.9426 14.95 12.7 14.95C11.4574 14.95 10.45 13.9426 10.45 12.7V10.6C10.45 9.35736 11.4574 8.35 12.7 8.35C13.1625 8.35 13.5925 8.48957 13.95 8.72889V7.975C13.95 4.6751 11.2749 2 7.975 2ZM13.95 10.5984C13.9492 9.9088 13.3898 9.35 12.7 9.35C12.0096 9.35 11.45 9.90964 11.45 10.6V12.7C11.45 13.3904 12.0096 13.95 12.7 13.95C13.3904 13.95 13.95 13.3904 13.95 12.7L13.95 10.5984ZM2 10.6C2 9.90964 2.55964 9.35 3.25 9.35C3.94036 9.35 4.5 9.90964 4.5 10.6V12.7C4.5 13.3904 3.94036 13.95 3.25 13.95C2.55964 13.95 2 13.3904 2 12.7V10.6Z" fill="white"/>
</svg>
