<svg width="16" height="16" viewBox="0 0 16 16" fill="none" xmlns="http://www.w3.org/2000/svg">
<path fill-rule="evenodd" clip-rule="evenodd" d="M13.1267 3.45331C12.5675 3.02678 11.853 2.75 11.0122 2.75C9.80505 2.75 8.77381 3.68118 8 4.56579C7.22619 3.68118 6.19493 2.75 4.98781 2.75C2.82637 2.75 1.5 4.57887 1.5 6.07896C1.5 8.13417 3.02977 10.0959 4.83492 11.7451L13.1267 3.45331ZM5.58932 12.4049C5.89765 12.6638 6.20883 12.9133 6.51712 13.1523C7.01546 13.5386 7.26463 13.7318 7.57792 13.8164C7.83726 13.8865 8.16274 13.8865 8.42208 13.8164C8.73536 13.7318 8.98453 13.5386 9.48287 13.1523C11.9025 11.2764 14.5 8.75703 14.5 6.07896C14.5 5.44583 14.2637 4.75414 13.8281 4.16609L5.58932 12.4049Z" fill="white"/>
<path fill-rule="evenodd" clip-rule="evenodd" d="M14.2329 1.64645C14.4282 1.84171 14.4282 2.15829 14.2329 2.35355L2.35355 14.2329C2.15829 14.4282 1.84171 14.4282 1.64645 14.2329C1.45118 14.0377 1.45118 13.7211 1.64645 13.5258L13.5258 1.64645C13.7211 1.45118 14.0377 1.45118 14.2329 1.64645Z" fill="white"/>
</svg>
