<svg width="16" height="16" viewBox="0 0 16 16" fill="none" xmlns="http://www.w3.org/2000/svg">
<path fill-rule="evenodd" clip-rule="evenodd" d="M13.5254 1.64645C13.7207 1.45118 14.0381 1.45118 14.2334 1.64645C14.4283 1.84165 14.4283 2.15829 14.2334 2.35348L2.35352 14.2324C2.15825 14.4276 1.84175 14.4276 1.64648 14.2324C1.45145 14.0371 1.4513 13.7205 1.64648 13.5254L3.76465 11.4062C3.39007 11.0267 3.03292 10.6343 2.70996 10.2275C1.72573 8.9876 1.00006 7.57948 1 6.07906C1 4.33587 2.51879 2.24996 4.98828 2.24996C5.72376 2.25008 6.38043 2.53364 6.9375 2.91207C7.32904 3.17807 7.68457 3.49994 8 3.82613C8.31543 3.49994 8.67096 3.17807 9.0625 2.91207C9.61956 2.53364 10.2762 2.25009 11.0117 2.24996C11.5971 2.24996 12.1287 2.36918 12.5996 2.57125L13.5254 1.64645ZM11.0117 3.24996C10.5406 3.25009 10.0783 3.43134 9.625 3.73922C9.17039 4.04806 8.7507 4.46612 8.37598 4.89449L8 5.32516L7.62402 4.89449C7.2493 4.46612 6.82961 4.04806 6.375 3.73922C5.92166 3.43134 5.45935 3.25008 4.98828 3.24996C3.1349 3.24996 2 4.82209 2 6.07906C2.00006 7.25659 2.57382 8.44727 3.49316 9.60543C3.79053 9.98003 4.12154 10.3441 4.47168 10.6992L11.8145 3.35641C11.5649 3.28888 11.2968 3.24996 11.0117 3.24996Z" fill="white"/>
<path d="M14.1846 3.80953C14.7125 4.49759 15 5.32076 15 6.07906C14.9999 7.57948 14.2743 8.9876 13.29 10.2275C12.3019 11.4723 11.0115 12.6 9.78906 13.5478L9.72559 13.5966C9.2896 13.9351 8.96435 14.1875 8.55273 14.2988C8.20801 14.3919 7.79199 14.3919 7.44727 14.2988C7.03565 14.1875 6.7104 13.9351 6.27441 13.5966L6.21094 13.5478C5.88795 13.2974 5.56 13.034 5.23438 12.7597L5.94434 12.0498C6.23542 12.2934 6.52994 12.5294 6.82324 12.7568C7.35091 13.1659 7.51316 13.2813 7.70801 13.3339C7.88197 13.3809 8.11803 13.3809 8.29199 13.3339C8.48684 13.2813 8.64909 13.1659 9.17676 12.7568C10.3736 11.8289 11.5915 10.7586 12.5068 9.60543C13.4262 8.44727 13.9999 7.25659 14 6.07906C14 5.57055 13.8145 5.01008 13.4707 4.5234L14.1846 3.80953Z" fill="white"/>
</svg>
