<svg width="16" height="16" viewBox="0 0 16 16" fill="none" xmlns="http://www.w3.org/2000/svg">
<path fill-rule="evenodd" clip-rule="evenodd" d="M13.4836 3.09643C12.8363 2.58401 12.0004 2.25 11.0122 2.25C10.2765 2.25 9.61983 2.53403 9.06262 2.91258C8.67105 3.1786 8.31545 3.50014 8 3.82636C7.68455 3.50014 7.32894 3.1786 6.93737 2.91258C6.38016 2.53403 5.72353 2.25 4.98781 2.25C2.51832 2.25 1 4.33576 1 6.07896C1 7.57944 1.72532 8.98735 2.70959 10.2273C3.23351 10.8873 3.84236 11.5143 4.48101 12.099L5.18884 11.3912C4.56926 10.8264 3.98695 10.2281 3.49282 9.60558C2.57343 8.44736 2 7.25655 2 6.07896C2 4.82198 3.13443 3.25 4.98781 3.25C5.45921 3.25 5.92177 3.43156 6.37542 3.73975C6.83005 4.04861 7.24893 4.4666 7.62366 4.89499L8 5.32522L8.37634 4.89499C8.75107 4.46659 9.16994 4.04861 9.62457 3.73975C10.0782 3.43156 10.5408 3.25 11.0122 3.25C11.7056 3.25 12.2984 3.47003 12.7687 3.81127L13.4836 3.09643ZM14.1847 3.80947L13.4705 4.52369C13.8143 5.01038 14 5.57045 14 6.07896C14 7.25655 13.4266 8.44736 12.5072 9.60558C11.5917 10.7588 10.3735 11.8291 9.17652 12.7571C8.64868 13.1664 8.48665 13.2811 8.29171 13.3337C8.11775 13.3807 7.88225 13.3807 7.70829 13.3337C7.51335 13.2811 7.35132 13.1664 6.82348 12.7571C6.53008 12.5297 6.23541 12.2937 5.94424 12.05L5.23444 12.7598C5.56006 13.0341 5.88778 13.297 6.21076 13.5474L6.27465 13.597C6.71075 13.9356 7.03577 14.1879 7.44754 14.2991C7.79227 14.3922 8.20773 14.3922 8.55246 14.2991C8.96423 14.1879 9.28925 13.9356 9.72535 13.597L9.78924 13.5474C11.0118 12.5996 12.3022 11.4722 13.2904 10.2273C14.2747 8.98735 15 7.57944 15 6.07896C15 5.32065 14.7127 4.49753 14.1847 3.80947Z" fill="white"/>
<path fill-rule="evenodd" clip-rule="evenodd" d="M14.2329 1.64645C14.4282 1.84171 14.4282 2.15829 14.2329 2.35355L2.35355 14.2329C2.15829 14.4282 1.84171 14.4282 1.64645 14.2329C1.45118 14.0377 1.45118 13.7211 1.64645 13.5258L13.5258 1.64645C13.7211 1.45118 14.0377 1.45118 14.2329 1.64645Z" fill="white"/>
</svg>
