<svg width="16" height="16" viewBox="0 0 16 16" fill="none" xmlns="http://www.w3.org/2000/svg">
<path fill-rule="evenodd" clip-rule="evenodd" d="M6.19274 4.325C4.55178 4.325 3.55493 5.7307 3.55493 6.90165C3.55493 7.94871 4.07908 8.90931 4.74233 9.72298C5.41082 10.5431 6.26993 11.274 7.04662 11.8696L7.09015 11.9031C7.2686 12.0407 7.46165 12.1896 7.70055 12.2536C7.90323 12.3079 8.13163 12.3079 8.33431 12.2536C8.57321 12.1896 8.76627 12.0407 8.94471 11.9031L8.98825 11.8696C9.76493 11.274 10.624 10.5431 11.2925 9.72298C11.9558 8.90931 12.4799 7.94871 12.4799 6.90165C12.4799 5.73071 11.4831 4.325 9.84213 4.325C9.33526 4.325 8.89318 4.52416 8.53284 4.77322C8.34663 4.90191 8.17446 5.04928 8.01743 5.20136C7.8604 5.04928 7.68823 4.90191 7.50202 4.77321C7.14169 4.52416 6.6996 4.325 6.19274 4.325ZM4.60493 6.90165C4.60493 6.22358 5.21504 5.375 6.19274 5.375C6.41712 5.375 6.653 5.46279 6.90501 5.63697C7.15792 5.81178 7.39749 6.05333 7.61934 6.31135C7.71908 6.42735 7.86445 6.49408 8.01743 6.49408C8.17041 6.49408 8.31578 6.42735 8.41552 6.31135C8.63737 6.05333 8.87694 5.81178 9.12985 5.63697C9.38186 5.46279 9.61775 5.375 9.84213 5.375C10.8198 5.375 11.4299 6.22357 11.4299 6.90165C11.4299 7.59828 11.076 8.32678 10.4787 9.05956C9.88658 9.78592 9.10263 10.4587 8.34936 11.0363C8.23126 11.1269 8.16554 11.1768 8.11349 11.2107C8.0904 11.2258 8.07702 11.2329 8.07001 11.2363C8.06667 11.2379 8.06401 11.2389 8.06401 11.2389L8.0627 11.2393C8.03796 11.246 7.9969 11.246 7.97216 11.2393L7.97085 11.2389C7.97085 11.2389 7.96819 11.2379 7.96485 11.2363C7.95784 11.2329 7.94446 11.2258 7.92137 11.2107C7.86932 11.1768 7.8036 11.1269 7.68551 11.0363C6.93224 10.4587 6.14828 9.78592 5.5562 9.05956C4.95887 8.32678 4.60493 7.59828 4.60493 6.90165Z" fill="white"/>
<path fill-rule="evenodd" clip-rule="evenodd" d="M8 1C4.13401 1 1 4.13401 1 8C1 11.866 4.13401 15 8 15C11.866 15 15 11.866 15 8C15 4.13401 11.866 1 8 1ZM2.05 8C2.05 4.71391 4.71391 2.05 8 2.05C11.2861 2.05 13.95 4.71391 13.95 8C13.95 11.2861 11.2861 13.95 8 13.95C4.71391 13.95 2.05 11.2861 2.05 8Z" fill="white"/>
</svg>
