<svg width="16" height="16" viewBox="0 0 16 16" fill="none" xmlns="http://www.w3.org/2000/svg">
<path fill-rule="evenodd" clip-rule="evenodd" d="M4.33984 1.5C4.0637 1.5 3.83984 1.72386 3.83984 2C3.83984 2.27614 4.0637 2.5 4.33984 2.5H11.6559C11.932 2.5 12.1559 2.27614 12.1559 2C12.1559 1.72386 11.932 1.5 11.6559 1.5H4.33984ZM4.46956 3.55659H11.5271C11.9017 3.55658 12.213 3.55658 12.4669 3.57732C12.7313 3.59892 12.9773 3.64548 13.2092 3.76368C13.5667 3.94584 13.8574 4.2365 14.0396 4.59401C14.1578 4.82598 14.2043 5.07198 14.2259 5.33636C14.2467 5.59028 14.2467 5.90148 14.2467 6.27612V11.7814C14.2467 12.1561 14.2467 12.4673 14.2259 12.7212C14.2043 12.9856 14.1578 13.2316 14.0396 13.4635C13.8574 13.8211 13.5667 14.1117 13.2092 14.2939C12.9773 14.4121 12.7313 14.4586 12.4669 14.4802C12.213 14.501 11.9018 14.501 11.5271 14.501H4.46955C4.09491 14.501 3.78369 14.501 3.52977 14.4802C3.26539 14.4586 3.01939 14.4121 2.78742 14.2939C2.42991 14.1117 2.13925 13.8211 1.95709 13.4635C1.83889 13.2316 1.79234 12.9856 1.77073 12.7212C1.74999 12.4673 1.74999 12.1561 1.75 11.7814V6.27615C1.74999 5.9015 1.74999 5.59029 1.77073 5.33636C1.79234 5.07198 1.83889 4.82598 1.95709 4.59401C2.13925 4.2365 2.42991 3.94584 2.78742 3.76368C3.01939 3.64548 3.26539 3.59892 3.52977 3.57732C3.7837 3.55658 4.09491 3.55658 4.46956 3.55659ZM3.6112 4.574C3.40867 4.59055 3.30891 4.62029 3.24141 4.65468C3.07206 4.74097 2.93438 4.87865 2.84809 5.048C2.8137 5.1155 2.78396 5.21526 2.76741 5.41779C2.75039 5.62616 2.75 5.8963 2.75 6.29659V11.761C2.75 12.1613 2.75039 12.4314 2.76741 12.6398C2.78396 12.8423 2.8137 12.942 2.84809 13.0096C2.93438 13.1789 3.07206 13.3166 3.24141 13.4029C3.30891 13.4373 3.40867 13.467 3.6112 13.4836C3.81957 13.5006 4.08972 13.501 4.49 13.501H11.5067C11.9069 13.501 12.1771 13.5006 12.3855 13.4836C12.588 13.467 12.6877 13.4373 12.7552 13.4029C12.9246 13.3166 13.0623 13.1789 13.1486 13.0096C13.183 12.9421 13.2127 12.8423 13.2292 12.6398C13.2463 12.4314 13.2467 12.1612 13.2467 11.761V6.29659C13.2467 5.8963 13.2463 5.62616 13.2292 5.41779C13.2127 5.21526 13.183 5.1155 13.1486 5.048C13.0623 4.87865 12.9246 4.74097 12.7552 4.65468C12.6877 4.62029 12.588 4.59055 12.3855 4.574C12.1771 4.55698 11.9069 4.55659 11.5067 4.55659H4.49C4.08971 4.55659 3.81957 4.55698 3.6112 4.574ZM4.36328 7.89518C4.36328 6.92813 5.1944 5.78711 6.54572 5.78711C6.96922 5.78711 7.33628 5.95094 7.63186 6.15203C7.7632 6.24138 7.88569 6.34165 7.99873 6.44549C8.11177 6.34165 8.23426 6.24138 8.36561 6.15203C8.66118 5.95094 9.02825 5.78711 9.45175 5.78711C10.8031 5.78711 11.6342 6.92813 11.6342 7.89518C11.6342 8.71965 11.2293 9.46949 10.7225 10.0985C10.2113 10.7329 9.55208 11.2991 8.94635 11.7643L8.90503 11.7962C8.72944 11.9318 8.54348 12.0753 8.30951 12.1381C8.11236 12.1909 7.88511 12.1909 7.68796 12.1381C7.45398 12.0753 7.26803 11.9318 7.09244 11.7962L7.05112 11.7643C6.44539 11.2991 5.78621 10.7329 5.27498 10.0985C4.76818 9.46949 4.36328 8.71965 4.36328 7.89518ZM6.54572 6.78711C5.81178 6.78711 5.36328 7.41298 5.36328 7.89518C5.36328 8.3911 5.61104 8.92172 6.05365 9.47103C6.49185 10.0148 7.07887 10.5247 7.66021 10.9712C7.7752 11.0595 7.83928 11.1083 7.89043 11.1415C7.93218 11.1687 7.9451 11.1718 7.94679 11.1722C7.97429 11.1795 8.02303 11.1796 8.05053 11.1722C8.05222 11.1718 8.06529 11.1687 8.10704 11.1415C8.15819 11.1083 8.22226 11.0595 8.33726 10.9712C8.9186 10.5247 9.50562 10.0148 9.94381 9.47103C10.3864 8.92172 10.6342 8.3911 10.6342 7.89518C10.6342 7.41298 10.1857 6.78711 9.45175 6.78711C9.29295 6.78711 9.12014 6.84818 8.9281 6.97883C8.73509 7.11014 8.54978 7.29342 8.3753 7.49317C8.28035 7.60187 8.14306 7.66424 7.99873 7.66424C7.85441 7.66424 7.71712 7.60187 7.62217 7.49317C7.44768 7.29342 7.26238 7.11014 7.06937 6.97883C6.87732 6.84818 6.70451 6.78711 6.54572 6.78711Z" fill="white"/>
</svg>
