<svg width="16" height="16" viewBox="0 0 16 16" fill="none" xmlns="http://www.w3.org/2000/svg">
<path fill-rule="evenodd" clip-rule="evenodd" d="M4.35449 1.25C4.07835 1.25 3.85449 1.47386 3.85449 1.75C3.85449 2.02614 4.07835 2.25 4.35449 2.25H11.6464C11.9225 2.25 12.1464 2.02614 12.1464 1.75C12.1464 1.47386 11.9225 1.25 11.6464 1.25H4.35449ZM4.47201 3.35254H11.5284C11.8993 3.35253 12.209 3.35253 12.4619 3.37372C12.7257 3.39583 12.9734 3.44363 13.2076 3.56604C13.567 3.75384 13.8591 4.0535 14.0422 4.42208C14.1616 4.66231 14.2082 4.91636 14.2297 5.18695C14.2504 5.44639 14.2504 5.76396 14.2504 6.14444V11.9575C14.2504 12.3379 14.2504 12.6555 14.2297 12.9149C14.2082 13.1855 14.1616 13.4396 14.0422 13.6798C13.8591 14.0484 13.567 14.3481 13.2076 14.5359C12.9734 14.6583 12.7257 14.7061 12.4619 14.7282C12.209 14.7494 11.8994 14.7494 11.5285 14.7493H4.47199C4.10108 14.7494 3.79141 14.7494 3.53848 14.7282C3.27466 14.7061 3.02698 14.6583 2.79276 14.5359C2.43341 14.3481 2.14125 14.0484 1.95816 13.6798C1.83882 13.4396 1.79221 13.1855 1.77065 12.9149C1.74999 12.6555 1.74999 12.3379 1.75 11.9575V6.14445C1.74999 5.76398 1.74999 5.44639 1.77065 5.18695C1.79221 4.91636 1.83882 4.66231 1.95816 4.42208C2.14125 4.0535 2.43341 3.75384 2.79276 3.56604C3.02698 3.44363 3.27466 3.39583 3.53848 3.37372C3.79143 3.35253 4.10106 3.35253 4.47201 3.35254ZM6.39055 6.02441C5.2359 6.02441 4.52734 7.04392 4.52734 7.88015C4.52734 9.42382 6.01092 10.8729 7.33899 11.9286C7.56366 12.1072 7.67601 12.1965 7.81387 12.2345C7.92957 12.2663 8.06978 12.2663 8.18548 12.2345C8.32334 12.1965 8.43568 12.1072 8.66036 11.9286C9.98843 10.8729 11.472 9.42382 11.472 7.88015C11.472 7.04392 10.7635 6.02441 9.60881 6.02441C8.96394 6.02441 8.41305 6.5435 7.99968 7.03663C7.5863 6.5435 7.0354 6.02441 6.39055 6.02441Z" fill="white"/>
</svg>
