<svg width="16" height="16" viewBox="0 0 16 16" fill="none" xmlns="http://www.w3.org/2000/svg">
<path fill-rule="evenodd" clip-rule="evenodd" d="M14.4699 3.12012C14.746 3.12015 14.9699 3.344 14.9699 3.62012C14.9698 3.89618 14.746 4.12008 14.4699 4.12012H8.67008V5.21973C9.36396 5.21973 10.1312 5.21973 10.8088 5.21973C11.3937 5.21972 12.0721 5.25932 12.6955 5.55176C14.8049 6.54196 14.9548 8.65904 14.9689 9.91504C14.9741 10.392 14.5861 10.7695 14.1203 10.7695C13.8992 10.7695 13.6538 10.7695 13.3927 10.7695L14.0529 11.8701H14.4709C14.7467 11.8705 14.9709 12.0942 14.9709 12.3701C14.9708 12.646 14.7467 12.8698 14.4709 12.8701H6.77066C6.49456 12.8701 6.27073 12.6462 6.27066 12.3701C6.27066 12.094 6.49452 11.8701 6.77066 11.8701H7.88688L8.5607 10.7461C8.29785 10.6862 8.07751 10.5056 7.96988 10.2549L7.27164 8.62988L2.22965 7.97559C2.02061 7.94844 1.83836 7.81948 1.74234 7.63184L1.34293 6.85156C1.3263 6.81905 1.31256 6.78612 1.30191 6.75293L1.0734 6.29395C0.949904 6.04696 1.05004 5.74654 1.29703 5.62305C1.54398 5.49973 1.84447 5.59977 1.96793 5.84668L2.00406 5.91992H6.26188C6.33151 5.53643 6.66187 5.21984 7.09684 5.21973C7.25947 5.21973 7.45363 5.21973 7.67008 5.21973V4.12012H1.87027C1.59417 4.12012 1.37034 3.8962 1.37027 3.62012C1.37027 3.34397 1.59413 3.12012 1.87027 3.12012H14.4699ZM9.69547 10.7695C9.68389 10.8062 9.66921 10.8426 9.64859 10.877L9.05289 11.8701H12.8869L12.2912 10.877C12.2706 10.8425 12.2558 10.8062 12.2443 10.7695C11.3427 10.7695 10.4046 10.7695 9.69547 10.7695ZM8.84977 9.76953H13.964C13.9585 9.52486 13.945 9.27318 13.9162 9.02148C13.5236 9.02608 13.0567 9.03945 12.6164 9.02539C12.0846 9.00838 11.5161 8.95055 10.9943 8.77441C10.4648 8.5956 9.96829 8.28881 9.61051 7.76953C9.32725 7.35831 9.15416 6.84528 9.09488 6.21973C8.42531 6.21973 7.791 6.21973 7.32535 6.21973L8.84977 9.76953ZM10.0988 6.21973C10.1524 6.66166 10.2776 6.97534 10.4338 7.20215C10.6411 7.5031 10.9371 7.6997 11.3146 7.82715C11.6997 7.9571 12.1539 8.00958 12.6476 8.02539C13.0062 8.03685 13.3482 8.02989 13.6925 8.02441C13.4624 7.38791 13.0426 6.81937 12.2707 6.45703C11.8581 6.26348 11.3681 6.21972 10.8088 6.21973C10.5802 6.21973 10.3415 6.21973 10.0988 6.21973ZM2.54508 7.00684L6.80582 7.56055L6.53141 6.91992H2.50113L2.54508 7.00684Z" fill="white"/>
</svg>
