<svg width="16" height="16" viewBox="0 0 16 16" fill="none" xmlns="http://www.w3.org/2000/svg">
<path fill-rule="evenodd" clip-rule="evenodd" d="M7.30039 2.74207H8.70039C8.9213 2.74207 9.10039 2.91974 9.10039 3.1389V4.5278C9.10039 4.74696 8.9213 4.92463 8.70039 4.92463H7.30039C7.07948 4.92463 6.90039 4.74696 6.90039 4.5278V3.1389C6.90039 2.91974 7.07948 2.74207 7.30039 2.74207ZM5.90039 3.1389C5.90039 2.37183 6.52719 1.75 7.30039 1.75H8.70039C9.47359 1.75 10.1004 2.37183 10.1004 3.1389V4.5278C10.1004 5.29487 9.47359 5.9167 8.70039 5.9167H8.5V7.50382H11.8496C12.7056 7.50382 13.3996 8.19228 13.3996 9.04153V10.0833H13.6008C14.374 10.0833 15.0008 10.7051 15.0008 11.4722V12.8611C15.0008 13.6282 14.374 14.25 13.6008 14.25H12.2008C11.4276 14.25 10.8008 13.6282 10.8008 12.8611V11.4722C10.8008 10.7051 11.4276 10.0833 12.2008 10.0833H12.3996V9.04153C12.3996 8.74018 12.1534 8.49589 11.8496 8.49589H8.5V10.0833H8.70039C9.47359 10.0833 10.1004 10.7051 10.1004 11.4722V12.8611C10.1004 13.6282 9.47359 14.25 8.70039 14.25H7.30039C6.52719 14.25 5.90039 13.6282 5.90039 12.8611V11.4722C5.90039 10.7051 6.52719 10.0833 7.30039 10.0833H7.5V8.49589H4.14961C3.84585 8.49589 3.59961 8.74018 3.59961 9.04153V10.0833H3.8C4.5732 10.0833 5.2 10.7051 5.2 11.4722V12.8611C5.2 13.6282 4.5732 14.25 3.8 14.25H2.4C1.6268 14.25 1 13.6282 1 12.8611V11.4722C1 10.7051 1.6268 10.0833 2.4 10.0833H2.59961V9.04153C2.59961 8.19228 3.29357 7.50382 4.14961 7.50382H7.5V5.9167H7.30039C6.52719 5.9167 5.90039 5.29487 5.90039 4.5278V3.1389ZM2.59961 11.0754H2.4C2.17909 11.0754 2 11.253 2 11.4722V12.8611C2 13.0803 2.17909 13.2579 2.4 13.2579H3.8C4.02091 13.2579 4.2 13.0803 4.2 12.8611V11.4722C4.2 11.253 4.02091 11.0754 3.8 11.0754H3.59961H2.59961ZM12.3996 11.0754H12.2008C11.9799 11.0754 11.8008 11.253 11.8008 11.4722V12.8611C11.8008 13.0803 11.9799 13.2579 12.2008 13.2579H13.6008C13.8217 13.2579 14.0008 13.0803 14.0008 12.8611V11.4722C14.0008 11.253 13.8217 11.0754 13.6008 11.0754H13.3996H12.3996ZM7.30039 11.0754H8.70039C8.9213 11.0754 9.10039 11.253 9.10039 11.4722V12.8611C9.10039 13.0803 8.9213 13.2579 8.70039 13.2579H7.30039C7.07948 13.2579 6.90039 13.0803 6.90039 12.8611V11.4722C6.90039 11.253 7.07948 11.0754 7.30039 11.0754Z" fill="white"/>
</svg>
