<svg width="16" height="16" viewBox="0 0 16 16" fill="none" xmlns="http://www.w3.org/2000/svg">
<path fill-rule="evenodd" clip-rule="evenodd" d="M4.8307 1.00004C4.85555 1.00006 4.88074 1.00007 4.90629 1.00007H11.0937C11.1193 1.00007 11.1444 1.00006 11.1693 1.00004C11.5745 0.99973 11.8879 0.999494 12.1581 1.08296C12.7624 1.26959 13.2352 1.75104 13.4185 2.36628C13.5005 2.64144 13.5003 2.96053 13.5 3.37311C13.4999 3.39841 13.4999 3.42406 13.4999 3.45007C13.4999 4.62725 12.7918 5.66755 12.0518 6.4459C11.4197 7.11086 10.702 7.64975 10.185 8.00008C10.702 8.3504 11.4197 8.88929 12.0518 9.55425C12.7918 10.3326 13.4999 11.3729 13.4999 12.5501C13.4999 12.5761 13.4999 12.6017 13.5 12.627C13.5003 13.0396 13.5005 13.3587 13.4185 13.6339C13.2352 14.2491 12.7624 14.7306 12.1581 14.9172C11.8879 15.0007 11.5745 15.0004 11.1693 15.0001C11.1445 15.0001 11.1193 15.0001 11.0937 15.0001H4.90629C4.88074 15.0001 4.85555 15.0001 4.8307 15.0001C4.42549 15.0004 4.11211 15.0007 3.84186 14.9172C3.23762 14.7306 2.76477 14.2491 2.58148 13.6339C2.4995 13.3587 2.49974 13.0396 2.50004 12.627C2.50005 12.6017 2.50007 12.5761 2.50007 12.5501C2.50007 11.3729 3.20824 10.3326 3.94818 9.55425C4.58033 8.88929 5.29804 8.3504 5.81503 8.00008C5.29804 7.64975 4.58033 7.11086 3.94818 6.4459C3.20824 5.66755 2.50007 4.62725 2.50007 3.45007C2.50007 3.42406 2.50005 3.39841 2.50004 3.37311C2.49974 2.96053 2.4995 2.64144 2.58148 2.36628C2.76478 1.75104 3.23762 1.26959 3.84186 1.08296C4.11211 0.999494 4.42549 0.99973 4.8307 1.00004Z" fill="white"/>
</svg>
