<svg width="16" height="16" viewBox="0 0 16 16" fill="none" xmlns="http://www.w3.org/2000/svg">
<path fill-rule="evenodd" clip-rule="evenodd" d="M4.85643 0.999965C4.88143 0.999982 4.90678 1 4.9325 1H11.0676C11.0934 1 11.1187 0.999982 11.1437 0.999965C11.5643 0.999673 11.8842 0.999452 12.1592 1.08413C12.7603 1.26921 13.2309 1.73977 13.4159 2.34088C13.5006 2.61589 13.5004 2.93577 13.5001 3.35636C13.5001 3.38136 13.5001 3.40671 13.5001 3.43243C13.5001 4.60131 12.7957 5.63922 12.0525 6.42077C11.4054 7.10131 10.6688 7.6501 10.1491 8C10.6688 8.3499 11.4054 8.89869 12.0525 9.57923C12.7957 10.3608 13.5001 11.3987 13.5001 12.5676C13.5001 12.5933 13.5001 12.6186 13.5001 12.6436C13.5004 13.0642 13.5006 13.3841 13.4159 13.6591C13.2309 14.2602 12.7603 14.7308 12.1592 14.9159C11.8842 15.0005 11.5643 15.0003 11.1437 15C11.1187 15 11.0934 15 11.0676 15H4.9325C4.90678 15 4.88143 15 4.85643 15C4.43584 15.0003 4.11596 15.0005 3.84095 14.9159C3.23984 14.7308 2.76928 14.2602 2.5842 13.6591C2.49952 13.3841 2.49974 13.0642 2.50003 12.6436C2.50005 12.6186 2.50007 12.5933 2.50007 12.5676C2.50007 11.3987 3.20441 10.3608 3.94761 9.57923C4.59476 8.89869 5.33136 8.3499 5.85105 8C5.33136 7.6501 4.59476 7.10131 3.94761 6.42077C3.20441 5.63922 2.50007 4.60131 2.50007 3.43243C2.50007 3.40671 2.50005 3.38136 2.50003 3.35636C2.49974 2.93577 2.49952 2.61589 2.5842 2.34088C2.76928 1.73977 3.23984 1.26921 3.84095 1.08413C4.11596 0.999452 4.43584 0.999673 4.85643 0.999965ZM4.9325 2C4.4002 2 4.24652 2.00558 4.13522 2.03985C3.85049 2.12752 3.62759 2.35042 3.53992 2.63515C3.50565 2.74645 3.50007 2.90013 3.50007 3.43243C3.50007 4.20829 3.98152 5.00527 4.67227 5.73166C5.34978 6.44412 6.15323 7.00962 6.6343 7.31827C6.63804 7.32067 6.64181 7.32309 6.6456 7.32552C6.70973 7.36663 6.77991 7.41164 6.83543 7.4536C6.88373 7.49011 7.00287 7.58175 7.06855 7.73705C7.14085 7.90798 7.14085 8.09202 7.06855 8.26295C7.00287 8.41825 6.88373 8.50989 6.83543 8.5464C6.77992 8.58836 6.70973 8.63336 6.64561 8.67448L6.6343 8.68173C6.15323 8.99038 5.34978 9.55588 4.67227 10.2683C3.98152 10.9947 3.50007 11.7917 3.50007 12.5676C3.50007 13.0999 3.50565 13.2535 3.53992 13.3648C3.62759 13.6496 3.85049 13.8725 4.13522 13.9601C4.24652 13.9944 4.4002 14 4.9325 14H11.0676C11.5999 14 11.7536 13.9944 11.8649 13.9601C12.1496 13.8725 12.3725 13.6496 12.4602 13.3648C12.4945 13.2535 12.5001 13.0999 12.5001 12.5676C12.5001 11.7917 12.0186 10.9947 11.3279 10.2683C10.6504 9.55588 9.84691 8.99038 9.36584 8.68173L9.35452 8.67448C9.2904 8.63336 9.22022 8.58836 9.16471 8.5464C9.11641 8.50989 8.99727 8.41825 8.93158 8.26295C8.85929 8.09202 8.85929 7.90798 8.93158 7.73705C8.99727 7.58175 9.11641 7.49011 9.16471 7.4536C9.22022 7.41164 9.29041 7.36663 9.35454 7.32551L9.36584 7.31827C9.84691 7.00962 10.6504 6.44412 11.3279 5.73166C12.0186 5.00527 12.5001 4.20829 12.5001 3.43243C12.5001 2.90013 12.4945 2.74645 12.4602 2.63515C12.3725 2.35042 12.1496 2.12752 11.8649 2.03985C11.7536 2.00558 11.5999 2 11.0676 2H4.9325Z" fill="white"/>
</svg>
