<svg width="16" height="16" viewBox="0 0 16 16" fill="none" xmlns="http://www.w3.org/2000/svg">
<path fill-rule="evenodd" clip-rule="evenodd" d="M4.85596 1.00003C4.4358 0.999743 4.11626 0.999521 3.84151 1.08402C3.23995 1.26905 2.76905 1.73995 2.58402 2.34151C2.49952 2.61626 2.49974 2.9358 2.50003 3.35596L2.50007 3.43195C2.50007 4.6005 3.20417 5.63811 3.94712 6.41943C4.59404 7.09976 5.33039 7.64839 5.84994 7.99822C5.33039 8.34804 4.59404 8.89667 3.94712 9.577C3.20417 10.3583 2.50007 11.3959 2.50007 12.5645L2.50003 12.6405C2.49974 13.0606 2.49952 13.3802 2.58402 13.6549C2.76904 14.2565 3.23995 14.7274 3.84151 14.9124C4.11626 14.9969 4.4358 14.9967 4.85595 14.9964H11.1412C11.5613 14.9967 11.8809 14.9969 12.1556 14.9124C12.7572 14.7274 13.2281 14.2565 13.4131 13.6549C13.4976 13.3802 13.4974 13.0606 13.4971 12.6405L13.4971 12.5645C13.4971 11.3959 12.793 10.3583 12.05 9.577C11.4031 8.89667 10.6668 8.34804 10.1472 7.99822C10.6668 7.64839 11.4031 7.09976 12.05 6.41943C12.793 5.63811 13.4971 4.6005 13.4971 3.43195L13.4971 3.35595C13.4974 2.9358 13.4976 2.61626 13.4131 2.34151C13.2281 1.73995 12.7572 1.26905 12.1556 1.08402C11.8809 0.999521 11.5613 0.999743 11.1412 1.00003H4.85596ZM4.13549 2.03984C4.24668 2.00564 4.4002 2.00007 4.93195 2.00007H11.0652C11.597 2.00007 11.7505 2.00564 11.8617 2.03984C12.1466 2.12748 12.3697 2.35054 12.4573 2.63549C12.4915 2.74668 12.4971 2.9002 12.4971 3.43195C12.4971 4.2075 12.0159 5.00419 11.3254 5.73034C10.6481 6.44257 9.84493 7.0079 9.36397 7.31648L9.35265 7.32374C9.28853 7.36486 9.21835 7.40986 9.16285 7.45182C9.11454 7.48833 8.99541 7.57997 8.92972 7.73527C8.85743 7.90619 8.85743 8.09024 8.92972 8.26116C8.99541 8.41646 9.11454 8.5081 9.16285 8.54461C9.21835 8.58657 9.28853 8.63157 9.35265 8.67269L9.36397 8.67995C9.84493 8.98853 10.6481 9.55386 11.3254 10.2661C12.0159 10.9922 12.4971 11.7889 12.4971 12.5645C12.4971 13.0962 12.4915 13.2497 12.4573 13.3609C12.3697 13.6459 12.1466 13.8689 11.8617 13.9566C11.7505 13.9908 11.597 13.9964 11.0652 13.9964H4.93195C4.4002 13.9964 4.24668 13.9908 4.13549 13.9566C3.85054 13.8689 3.62748 13.6459 3.53984 13.3609C3.50564 13.2497 3.50007 13.0962 3.50007 12.5645C3.50007 11.7889 3.9813 10.9922 4.67179 10.2661C5.34905 9.55386 6.15222 8.98853 6.63318 8.67995L6.6445 8.67269C6.70862 8.63157 6.7788 8.58657 6.83431 8.54461C6.88261 8.5081 7.00174 8.41646 7.06743 8.26116C7.13972 8.09024 7.13972 7.90619 7.06743 7.73527C7.00174 7.57997 6.88261 7.48833 6.83431 7.45182C6.7788 7.40986 6.70862 7.36486 6.6445 7.32374L6.63318 7.31648C6.15222 7.0079 5.34905 6.44257 4.67179 5.73034C3.9813 5.00419 3.50007 4.2075 3.50007 3.43195C3.50007 2.9002 3.50564 2.74668 3.53984 2.63549C3.62748 2.35054 3.85054 2.12748 4.13549 2.03984ZM8.81099 9.59905L8.79596 9.58943C8.35277 9.30573 7.71571 9.26048 7.20182 9.58943L7.18681 9.59905C6.73643 9.88825 6.01376 10.4008 5.4217 11.024C4.9559 11.5143 4.62973 12.0053 4.56467 12.6426C4.55609 12.7266 4.55181 12.7686 4.56897 12.8096C4.58298 12.8431 4.6132 12.877 4.64487 12.8948C4.68368 12.9165 4.7309 12.9171 4.82535 12.9183C6.9399 12.9456 9.05793 12.9456 11.1724 12.9183C11.2669 12.9171 11.3141 12.9165 11.3529 12.8948C11.3846 12.877 11.4148 12.8431 11.4288 12.8096C11.446 12.7686 11.4417 12.7266 11.4331 12.6426C11.3681 12.0053 11.0419 11.5143 10.5761 11.024C9.98403 10.4008 9.26137 9.88825 8.81099 9.59905Z" fill="white"/>
</svg>
