<svg width="16" height="16" viewBox="0 0 16 16" fill="none" xmlns="http://www.w3.org/2000/svg">
<path fill-rule="evenodd" clip-rule="evenodd" d="M4.83071 1.00004C4.42549 0.99973 4.11211 0.999494 3.84186 1.08296C3.23762 1.26959 2.76478 1.75104 2.58148 2.36628C2.4995 2.64144 2.49974 2.96053 2.50004 3.37311L2.50007 3.45007C2.50007 4.62725 3.20824 5.66755 3.94818 6.4459C4.58033 7.11086 5.29804 7.64975 5.81503 8.00007C5.29804 8.3504 4.58033 8.88929 3.94818 9.55425C3.20824 10.3326 2.50007 11.3729 2.50007 12.5501L2.50004 12.627C2.49974 13.0396 2.4995 13.3587 2.58148 13.6339C2.76477 14.2491 3.23762 14.7306 3.84186 14.9172C4.11211 15.0007 4.42549 15.0004 4.8307 15.0001H11.1693C11.5745 15.0004 11.8879 15.0007 12.1581 14.9172C12.7624 14.7306 13.2352 14.2491 13.4185 13.6339C13.5005 13.3587 13.5003 13.0396 13.5 12.627L13.4999 12.5501C13.4999 11.3729 12.7918 10.3326 12.0518 9.55425C11.4197 8.88929 10.702 8.3504 10.185 8.00008C10.702 7.64975 11.4197 7.11086 12.0518 6.4459C12.7918 5.66755 13.4999 4.62725 13.4999 3.45007L13.5 3.37311C13.5003 2.96053 13.5005 2.64144 13.4185 2.36628C13.2352 1.75104 12.7624 1.26959 12.1581 1.08296C11.8879 0.999494 11.5745 0.99973 11.1693 1.00004H4.83071ZM8.81061 9.59527L8.79563 9.58568C8.35369 9.30299 7.71844 9.2579 7.20602 9.58568L7.19105 9.59527C6.74194 9.88344 6.02133 10.3941 5.43095 11.0151C4.96671 11.5035 4.64156 11.9924 4.57645 12.627C4.56784 12.711 4.56354 12.7529 4.58069 12.794C4.59469 12.8275 4.62493 12.8614 4.65659 12.8792C4.69541 12.9009 4.74263 12.9015 4.83706 12.9027C6.9451 12.9299 9.0566 12.9299 11.1646 12.9027C11.259 12.9015 11.3062 12.9009 11.3451 12.8792C11.3767 12.8614 11.407 12.8275 11.421 12.794C11.4381 12.7529 11.4338 12.711 11.4252 12.627C11.3601 11.9924 11.035 11.5035 10.5707 11.0151C9.98032 10.3941 9.25971 9.88344 8.81061 9.59527Z" fill="white"/>
</svg>
