<svg width="16" height="16" viewBox="0 0 16 16" fill="none" xmlns="http://www.w3.org/2000/svg">
<path fill-rule="evenodd" clip-rule="evenodd" d="M11.1441 14.9961C11.5643 14.9964 11.8838 14.9966 12.1586 14.9121C12.7601 14.727 13.231 14.2561 13.4161 13.6546C13.5006 13.3798 13.5003 13.0603 13.5 12.6401L13.5 12.5641C13.5 11.3956 12.7959 10.358 12.053 9.57666C11.406 8.89634 10.6697 8.3477 10.1501 7.99788C10.6697 7.64805 11.406 7.09942 12.053 6.41909C12.7959 5.63778 13.5 4.60016 13.5 3.43161L13.5 3.35562C13.5003 2.93547 13.5006 2.61592 13.4161 2.34118C13.231 1.73962 12.7601 1.26871 12.1586 1.08369C11.8838 0.999187 11.5643 0.999408 11.1441 0.9997H4.85888C4.43873 0.999408 4.11919 0.999187 3.84444 1.08369C3.24288 1.26871 2.77197 1.73962 2.58695 2.34118C2.50245 2.61592 2.50267 2.93547 2.50296 3.35561L2.503 3.43161C2.503 4.60016 3.2071 5.63778 3.95005 6.41909C4.59697 7.09942 5.33332 7.64805 5.85287 7.99788C5.33332 8.3477 4.59697 8.89634 3.95005 9.57666C3.2071 10.358 2.503 11.3956 2.503 12.5641L2.50296 12.6401C2.50267 13.0603 2.50245 13.3798 2.58695 13.6546C2.77198 14.2561 3.24288 14.727 3.84444 14.9121C4.11919 14.9966 4.43874 14.9964 4.85889 14.9961H11.1441ZM11.8646 13.9563C11.7534 13.9905 11.5999 13.996 11.0681 13.996H4.93488C4.40313 13.996 4.24961 13.9905 4.13842 13.9563C3.85347 13.8686 3.63041 13.6456 3.54277 13.3606C3.50857 13.2494 3.503 13.0959 3.503 12.5641C3.503 11.7886 3.98423 10.9919 4.67473 10.2658C5.35198 9.55352 6.15515 8.9882 6.63611 8.67961L6.64743 8.67235C6.71155 8.63123 6.78173 8.58623 6.83724 8.54427C6.88554 8.50776 7.00467 8.41612 7.07036 8.26082C7.14265 8.0899 7.14265 7.90586 7.07036 7.73493C7.00467 7.57963 6.88554 7.48799 6.83724 7.45148C6.78173 7.40952 6.71155 7.36452 6.64743 7.3234L6.63611 7.31615C6.15515 7.00756 5.35198 6.44223 4.67473 5.73C3.98423 5.00385 3.503 4.20716 3.503 3.43161C3.503 2.89986 3.50857 2.74635 3.54277 2.63516C3.63041 2.3502 3.85347 2.12714 4.13842 2.0395C4.24961 2.0053 4.40313 1.99973 4.93488 1.99973H11.0681C11.5999 1.99973 11.7534 2.0053 11.8646 2.0395C12.1495 2.12714 12.3726 2.3502 12.4602 2.63516C12.4944 2.74635 12.5 2.89986 12.5 3.43161C12.5 4.20716 12.0188 5.00385 11.3283 5.73C10.651 6.44223 9.84786 7.00756 9.3669 7.31615L9.35558 7.32341C9.29146 7.36452 9.22128 7.40953 9.16578 7.45148C9.11747 7.48799 8.99834 7.57963 8.93265 7.73493C8.86036 7.90586 8.86036 8.0899 8.93265 8.26082C8.99834 8.41612 9.11747 8.50776 9.16578 8.54427C9.22128 8.58623 9.29146 8.63123 9.35558 8.67235L9.3669 8.67961C9.84786 8.9882 10.651 9.55352 11.3283 10.2658C12.0188 10.9919 12.5 11.7886 12.5 12.5641C12.5 13.0959 12.4944 13.2494 12.4602 13.3606C12.3726 13.6456 12.1495 13.8686 11.8646 13.9563ZM7.1891 6.39704L7.20412 6.40667C7.64731 6.69036 8.28437 6.73561 8.79826 6.40666L8.81327 6.39704C9.26366 6.10784 9.98632 5.59534 10.5784 4.97209C11.0442 4.48176 11.3704 3.9908 11.4354 3.35348C11.444 3.2695 11.4483 3.2275 11.4311 3.18646C11.4171 3.15297 11.3869 3.11907 11.3552 3.10133C11.3164 3.07958 11.2692 3.07897 11.1747 3.07775C9.06018 3.0505 6.94215 3.0505 4.82763 3.07775C4.73319 3.07897 4.68597 3.07958 4.64716 3.10133C4.61549 3.11907 4.58527 3.15297 4.57126 3.18646C4.5541 3.2275 4.55838 3.2695 4.56696 3.35348C4.63202 3.9908 4.95818 4.48175 5.42399 4.97209C6.01605 5.59534 6.73871 6.10784 7.1891 6.39704Z" fill="white"/>
</svg>
