<svg width="16" height="16" viewBox="0 0 16 16" fill="none" xmlns="http://www.w3.org/2000/svg">
<path fill-rule="evenodd" clip-rule="evenodd" d="M8.28211 2.03767C8.0974 1.98744 7.90264 1.98744 7.71794 2.03767C7.53239 2.08813 7.34719 2.22085 6.7555 2.68366L1.30807 6.94456C1.09056 7.11469 0.776321 7.07629 0.606189 6.85878C0.436057 6.64127 0.474463 6.32702 0.691971 6.15689L6.21717 1.8351C6.69548 1.46039 7.04936 1.18316 7.45553 1.07271C7.81205 0.975763 8.18799 0.975763 8.54451 1.07271C8.95068 1.18316 9.30457 1.46039 9.78288 1.8351L15.3081 6.15689C15.5256 6.32702 15.564 6.64127 15.3939 6.85878C15.2237 7.07629 14.9095 7.11469 14.692 6.94456L9.24455 2.68366C8.65286 2.22085 8.46766 2.08813 8.28211 2.03767ZM2.22461 7.4639C2.50075 7.4639 2.72461 7.68776 2.72461 7.9639V11.9789C2.72461 12.4282 2.725 12.7351 2.74441 12.9727C2.76334 13.2044 2.79785 13.3258 2.84178 13.412C2.94484 13.6143 3.1093 13.7787 3.31157 13.8818C3.39779 13.9257 3.51915 13.9602 3.75087 13.9791C3.98842 13.9986 4.29532 13.9989 4.74461 13.9989H11.2546C11.7039 13.9989 12.0108 13.9986 12.2484 13.9791C12.4801 13.9602 12.6014 13.9257 12.6876 13.8818C12.8899 13.7787 13.0544 13.6143 13.1574 13.412C13.2014 13.3258 13.2359 13.2044 13.2548 12.9727C13.2742 12.7351 13.2746 12.4282 13.2746 11.9789V7.9639C13.2746 7.68776 13.4985 7.4639 13.7746 7.4639C14.0508 7.4639 14.2746 7.68776 14.2746 7.9639V11.9997C14.2746 12.4231 14.2746 12.771 14.2515 13.0541C14.2275 13.3477 14.1762 13.6153 14.0484 13.866C13.8495 14.2564 13.5321 14.5738 13.1416 14.7728C12.891 14.9005 12.6233 14.9518 12.3298 14.9758C12.0467 14.999 11.6988 14.9989 11.2754 14.9989H4.72383C4.30045 14.9989 3.95254 14.999 3.66944 14.9758C3.37588 14.9518 3.10827 14.9005 2.85758 14.7728C2.46714 14.5738 2.14971 14.2564 1.95077 13.866C1.82304 13.6153 1.77171 13.3477 1.74773 13.0541C1.7246 12.771 1.7246 12.4231 1.72461 11.9997L1.72461 7.9639C1.72461 7.68776 1.94847 7.4639 2.22461 7.4639ZM7.72127 7.33642C7.58967 7.10201 7.40215 6.81828 7.17601 6.64046C7.06114 6.55013 6.92101 6.47491 6.76093 6.46168C6.59353 6.44785 6.43265 6.50416 6.28928 6.62558L6.28564 6.62866C6.11236 6.77538 5.68402 7.13807 5.56919 7.78256C5.45244 8.43785 5.6694 9.31468 6.62898 10.4689C7.58855 11.623 8.40644 11.9909 9.06613 11.9887C9.71493 11.9865 10.1432 11.6237 10.3165 11.4769L10.3201 11.4739C10.4635 11.3524 10.5463 11.2023 10.5619 11.0335C10.5768 10.8721 10.5278 10.7198 10.4596 10.5899C10.3253 10.3343 10.081 10.0986 9.87516 9.92712L9.85437 9.90977C9.75519 9.82693 9.668 9.7541 9.56502 9.71488C9.5221 9.69854 9.47742 9.68367 9.42613 9.6763C9.37484 9.66894 9.32783 9.67064 9.2821 9.67426C9.20927 9.68001 9.12831 9.709 9.05253 9.73888C8.97077 9.7711 8.86426 9.8175 8.72962 9.87613L8.72539 9.87798C8.5812 9.94078 8.41954 9.97509 8.25241 9.94408C8.08862 9.91369 7.89475 9.81604 7.69026 9.57008C7.48576 9.32411 7.42415 9.11446 7.42294 8.94639C7.4217 8.77488 7.48325 8.62015 7.56957 8.48774L7.57211 8.48385C7.6527 8.36021 7.71646 8.2624 7.7621 8.18675C7.80441 8.11661 7.84676 8.04117 7.86502 7.96979C7.87649 7.92496 7.88631 7.87853 7.88803 7.82627C7.88975 7.77401 7.883 7.72703 7.87451 7.68153C7.85412 7.57237 7.7982 7.47305 7.73459 7.3601L7.72127 7.33642Z" fill="white"/>
</svg>
