<svg width="16" height="16" viewBox="0 0 16 16" fill="none" xmlns="http://www.w3.org/2000/svg">
<path fill-rule="evenodd" clip-rule="evenodd" d="M8.28211 2.03767C8.0974 1.98744 7.90264 1.98744 7.71794 2.03767C7.53239 2.08813 7.34719 2.22085 6.7555 2.68366L1.30807 6.94456C1.09056 7.11469 0.776321 7.07629 0.606189 6.85878C0.436057 6.64127 0.474463 6.32702 0.691971 6.15689L6.21717 1.8351C6.69548 1.46039 7.04936 1.18316 7.45553 1.07271C7.81205 0.975763 8.18799 0.975763 8.54451 1.07271C8.95068 1.18316 9.30457 1.46039 9.78288 1.8351L15.3081 6.15689C15.5256 6.32702 15.564 6.64127 15.3939 6.85878C15.2237 7.07629 14.9095 7.11469 14.692 6.94456L9.24455 2.68366C8.65286 2.22085 8.46766 2.08813 8.28211 2.03767ZM2.22461 7.4639C2.50075 7.4639 2.72461 7.68776 2.72461 7.9639V11.9789C2.72461 12.4282 2.725 12.7351 2.74441 12.9727C2.76334 13.2044 2.79785 13.3258 2.84178 13.412C2.94484 13.6143 3.1093 13.7787 3.31157 13.8818C3.39779 13.9257 3.51915 13.9602 3.75087 13.9791C3.98842 13.9986 4.29532 13.9989 4.74461 13.9989H11.2546C11.7039 13.9989 12.0108 13.9986 12.2484 13.9791C12.4801 13.9602 12.6014 13.9257 12.6876 13.8818C12.8899 13.7787 13.0544 13.6143 13.1574 13.412C13.2014 13.3258 13.2359 13.2044 13.2548 12.9727C13.2742 12.7351 13.2746 12.4282 13.2746 11.9789V7.9639C13.2746 7.68776 13.4985 7.4639 13.7746 7.4639C14.0508 7.4639 14.2746 7.68776 14.2746 7.9639V11.9997C14.2746 12.4231 14.2746 12.771 14.2515 13.0541C14.2275 13.3477 14.1762 13.6153 14.0484 13.866C13.8495 14.2564 13.5321 14.5738 13.1416 14.7728C12.891 14.9005 12.6233 14.9518 12.3298 14.9758C12.0467 14.999 11.6988 14.9989 11.2754 14.9989H4.72383C4.30045 14.9989 3.95254 14.999 3.66944 14.9758C3.37588 14.9518 3.10827 14.9005 2.85758 14.7728C2.46714 14.5738 2.14971 14.2564 1.95077 13.866C1.82304 13.6153 1.77171 13.3477 1.74773 13.0541C1.7246 12.771 1.7246 12.4231 1.72461 11.9997L1.72461 7.9639C1.72461 7.68776 1.94847 7.4639 2.22461 7.4639ZM7.3002 7.61052C7.3002 8.19579 6.83009 8.67025 6.2502 8.67025C5.6703 8.67025 5.2002 8.19579 5.2002 7.61052C5.2002 7.02524 5.6703 6.55078 6.2502 6.55078C6.83009 6.55078 7.3002 7.02524 7.3002 7.61052ZM10.6485 7.44959C10.8526 7.24362 10.8511 6.91122 10.6451 6.70714C10.4391 6.50306 10.1067 6.5046 9.90265 6.71056L5.35265 11.3028C5.14857 11.5087 5.1501 11.8411 5.35607 12.0452C5.56204 12.2493 5.89445 12.2478 6.09853 12.0418L10.6485 7.44959ZM9.7502 12.2023C10.3301 12.2023 10.8002 11.7279 10.8002 11.1426C10.8002 10.5573 10.3301 10.0829 9.7502 10.0829C9.1703 10.0829 8.7002 10.5573 8.7002 11.1426C8.7002 11.7279 9.1703 12.2023 9.7502 12.2023Z" fill="white"/>
</svg>
