<svg width="16" height="16" viewBox="0 0 16 16" fill="none" xmlns="http://www.w3.org/2000/svg">
<path fill-rule="evenodd" clip-rule="evenodd" d="M6.85812 2.4206L7.91055 3.47613C7.91821 3.48382 7.92577 3.49139 7.93321 3.49885C8.0787 3.64472 8.18152 3.7478 8.26199 3.84954C8.90918 4.66765 8.90918 5.82332 8.26199 6.64143C8.25909 6.64509 8.25616 6.64876 8.2532 6.65243L9.3255 7.7279C10.1484 7.07242 11.3163 7.07453 12.137 7.73422C12.2338 7.81204 12.3323 7.91089 12.4718 8.05082C12.4789 8.05798 12.4862 8.06525 12.4935 8.07262L12.868 8.44822L14.2939 7.01807L10.0272 2.73878C9.16563 1.87464 7.83488 1.76858 6.85812 2.4206ZM8.60907 8.42566L7.55647 7.36995L2.21831 12.7239C1.92723 13.0158 1.92723 13.4897 2.21831 13.7817C2.50857 14.0728 2.97856 14.0728 3.26883 13.7817L8.60907 8.42566ZM5.76315 2.03261C7.13607 0.655755 9.36252 0.655803 10.7354 2.03271L15.3541 6.66504C15.5486 6.86018 15.5486 7.17596 15.3541 7.37111L13.2221 9.5094C13.1283 9.60349 13.0009 9.65637 12.868 9.65637C12.7351 9.65637 12.6077 9.60349 12.5139 9.5094L11.7854 8.77869C11.6154 8.60826 11.5586 8.55231 11.5105 8.51362C11.0531 8.14595 10.4015 8.14595 9.94413 8.51362C9.896 8.55231 9.83914 8.60826 9.66921 8.77869L3.97697 14.4877C3.29595 15.1708 2.19118 15.1708 1.51016 14.4877C0.829947 13.8055 0.829948 12.7 1.51016 12.0178L7.2024 6.30877C7.37959 6.13105 7.4377 6.07159 7.47772 6.02101C7.83727 5.5665 7.83727 4.92446 7.47772 4.46996C7.4377 4.41937 7.37959 4.35991 7.2024 4.1822L5.76314 2.73869C5.56856 2.54354 5.56857 2.22775 5.76315 2.03261Z" fill="white"/>
</svg>
