<svg width="16" height="16" viewBox="0 0 16 16" fill="none" xmlns="http://www.w3.org/2000/svg">
<path fill-rule="evenodd" clip-rule="evenodd" d="M8.56002 8.42357L7.55961 7.4206L2.26828 12.7255C1.99203 13.0025 1.99203 13.4515 2.26828 13.7285C2.54454 14.0054 2.99243 14.0054 3.26869 13.7285L8.56002 8.42357ZM7.18446 6.29225L1.51798 11.9733C0.827341 12.6657 0.827341 13.7883 1.51798 14.4807C2.20861 15.1731 3.32836 15.1731 4.01899 14.4807L9.68547 8.79968C9.83852 8.64624 9.88848 8.59706 9.9301 8.56276C10.3869 8.18644 11.0453 8.18644 11.5021 8.56276C11.5437 8.59706 11.5936 8.64625 11.7467 8.79968L12.4719 9.5268C12.5714 9.62656 12.7064 9.6826 12.8471 9.6826C12.9878 9.6826 13.1228 9.62656 13.2223 9.5268L15.3446 7.39901C15.5518 7.19129 15.5518 6.8545 15.3446 6.64678L10.7468 2.03719C9.36747 0.654312 7.13113 0.654263 5.75173 2.03709C5.65222 2.13684 5.59632 2.27213 5.59632 2.41321C5.59632 2.55428 5.65221 2.68958 5.75171 2.78933L7.18446 4.22575C7.3375 4.37919 7.38657 4.42928 7.42077 4.47101C7.79614 4.92894 7.79614 5.58906 7.42077 6.047C7.38657 6.08873 7.3375 6.13882 7.18446 6.29225Z" fill="white"/>
</svg>
