<svg width="16" height="16" viewBox="0 0 16 16" fill="none" xmlns="http://www.w3.org/2000/svg">
<path fill-rule="evenodd" clip-rule="evenodd" d="M2 7.99821C2 4.68549 4.68549 2 7.99821 2C11.3109 2 13.9964 4.68549 13.9964 7.99821C13.9964 11.3109 11.3109 13.9964 7.99821 13.9964C4.68549 13.9964 2 11.3109 2 7.99821ZM7.99821 1C4.1332 1 1 4.1332 1 7.99821C1 11.8632 4.1332 14.9964 7.99821 14.9964C11.8632 14.9964 14.9964 11.8632 14.9964 7.99821C14.9964 4.1332 11.8632 1 7.99821 1ZM8.6982 5.18786C8.6982 5.57585 8.38367 5.89037 7.99569 5.89037C7.6077 5.89037 7.29318 5.57585 7.29318 5.18786C7.29318 4.79988 7.6077 4.48535 7.99569 4.48535C8.38367 4.48535 8.6982 4.79988 8.6982 5.18786ZM7.9949 6.79492C8.27105 6.79492 8.4949 7.01878 8.4949 7.29492V11.51C8.4949 11.7861 8.27105 12.01 7.9949 12.01C7.71876 12.01 7.4949 11.7861 7.4949 11.51V7.29492C7.4949 7.01878 7.71876 6.79492 7.9949 6.79492Z" fill="white"/>
</svg>
