<svg width="16" height="16" viewBox="0 0 16 16" fill="none" xmlns="http://www.w3.org/2000/svg">
<path fill-rule="evenodd" clip-rule="evenodd" d="M4.28088 2.5C3.80873 2.49999 3.42411 2.49999 3.11184 2.5255C2.7891 2.55187 2.49988 2.60797 2.23047 2.74524C1.80711 2.96095 1.4629 3.30516 1.24719 3.72852C1.10992 3.99793 1.05382 4.28715 1.02746 4.60989C1.00194 4.92215 1.00195 5.30677 1.00195 5.77892V5.93139C1.00195 6.20754 1.22581 6.43139 1.50195 6.43139C1.7781 6.43139 2.00195 6.20754 2.00195 5.93139V5.8C2.00195 5.30171 2.00234 4.95805 2.02414 4.69132C2.04545 4.43042 2.08473 4.28745 2.1382 4.18251C2.25804 3.94731 2.44926 3.75608 2.68447 3.63624C2.7894 3.58277 2.93238 3.5435 3.19327 3.52218C3.46001 3.50039 3.80366 3.5 4.30195 3.5H11.6984C12.1967 3.5 12.5403 3.50039 12.8071 3.52218C13.0679 3.5435 13.2109 3.58277 13.3159 3.63624C13.5511 3.75608 13.7423 3.94731 13.8621 4.18251C13.9156 4.28745 13.9549 4.43042 13.9762 4.69132C13.998 4.95805 13.9984 5.3017 13.9984 5.8V10.2012C13.9984 10.6995 13.998 11.0432 13.9762 11.3099C13.9549 11.5708 13.9156 11.7138 13.8621 11.8187C13.7423 12.0539 13.5511 12.2451 13.3159 12.365C13.2109 12.4184 13.0679 12.4577 12.807 12.479C12.5403 12.5008 12.1967 12.5012 11.6984 12.5012H4.30195C3.80366 12.5012 3.46 12.5008 3.19327 12.479C2.93238 12.4577 2.7894 12.4184 2.68447 12.365C2.44926 12.2451 2.25804 12.0539 2.1382 11.8187C2.08473 11.7138 2.04545 11.5708 2.02414 11.3099C2.00234 11.0432 2.00195 10.6995 2.00195 10.2012V10.0698C2.00195 9.79369 1.7781 9.56983 1.50195 9.56983C1.22581 9.56983 1.00195 9.79369 1.00195 10.0698V10.2223C1.00195 10.6944 1.00194 11.0791 1.02746 11.3913C1.05382 11.7141 1.10992 12.0033 1.24719 12.2727C1.4629 12.6961 1.80711 13.0403 2.23047 13.256C2.49988 13.3933 2.7891 13.4494 3.11184 13.4757C3.4241 13.5012 3.80872 13.5012 4.28086 13.5012H11.7195C12.1916 13.5012 12.5762 13.5012 12.8885 13.4757C13.2112 13.4494 13.5004 13.3933 13.7698 13.256C14.1932 13.0403 14.5374 12.6961 14.7531 12.2727C14.8904 12.0033 14.9465 11.7141 14.9729 11.3913C14.9984 11.0791 14.9984 10.6945 14.9984 10.2223V5.77891C14.9984 5.30677 14.9984 4.92215 14.9729 4.60989C14.9465 4.28715 14.8904 3.99793 14.7531 3.72852C14.5374 3.30516 14.1932 2.96095 13.7698 2.74524C13.5004 2.60797 13.2112 2.55187 12.8885 2.5255C12.5762 2.49999 12.1916 2.49999 11.7195 2.5H4.28088ZM7.82358 5.2299C7.62653 5.03644 7.30996 5.03934 7.1165 5.23638C6.92303 5.43343 6.92594 5.75 7.12298 5.94346L8.70912 7.50077H1.50195C1.22581 7.50077 1.00195 7.72463 1.00195 8.00077C1.00195 8.27691 1.22581 8.50077 1.50195 8.50077H8.70912L7.12298 10.0581C6.92594 10.2515 6.92303 10.5681 7.1165 10.7652C7.30996 10.9622 7.62653 10.9651 7.82358 10.7716L10.2824 8.35755C10.3781 8.26353 10.4321 8.13497 10.4321 8.00077C10.4321 7.86657 10.3781 7.73801 10.2824 7.64399L7.82358 5.2299Z" fill="white"/>
</svg>
