<svg width="16" height="16" viewBox="0 0 16 16" fill="none" xmlns="http://www.w3.org/2000/svg">
<path fill-rule="evenodd" clip-rule="evenodd" d="M12 8.25C14.0711 8.25 15.75 9.92893 15.75 12C15.75 14.0711 14.0711 15.75 12 15.75C9.92893 15.75 8.25 14.0711 8.25 12C8.25 9.92893 9.92893 8.25 12 8.25ZM10.6309 9.53418C10.4293 9.53438 10.2659 9.69787 10.2656 9.89941C10.2656 10.1012 10.4291 10.2644 10.6309 10.2646H11.6064L11.708 10.2705C11.9381 10.2965 12.1124 10.41 12.2383 10.5605C12.2887 10.6209 12.3276 10.6876 12.3604 10.7529H10.875C10.6733 10.7529 10.5101 10.9165 10.5098 11.1182C10.5098 11.3201 10.6731 11.4834 10.875 11.4834H12.3604C12.3276 11.5489 12.2887 11.6153 12.2383 11.6758C12.1124 11.8264 11.9382 11.9408 11.708 11.9668L11.6064 11.9717H10.6309C10.6279 11.9717 10.625 11.9726 10.6221 11.9727C10.6024 11.9731 10.5829 11.9749 10.5635 11.9785C10.5599 11.9792 10.5563 11.9797 10.5527 11.9805C10.4867 11.9949 10.4234 12.0269 10.3721 12.0781C10.3208 12.1294 10.2889 12.1928 10.2744 12.2588C10.2737 12.2623 10.2731 12.266 10.2725 12.2695C10.2689 12.2885 10.2671 12.3079 10.2666 12.3271C10.2665 12.3303 10.2657 12.3337 10.2656 12.3369C10.2656 12.3397 10.2665 12.343 10.2666 12.3457C10.2682 12.4129 10.287 12.4799 10.3252 12.5381L10.3721 12.5957L12.3223 14.5459L12.3799 14.5928C12.5218 14.6862 12.715 14.6707 12.8398 14.5459C12.9646 14.4211 12.9801 14.2278 12.8867 14.0859L12.8398 14.0283L11.5137 12.7021H11.6064C12.1326 12.7021 12.5352 12.4599 12.7988 12.1445C12.9646 11.946 13.0791 11.7133 13.1396 11.4834H13.5566L13.6299 11.4766C13.7965 11.4425 13.9219 11.2949 13.9219 11.1182C13.9216 10.9417 13.7964 10.7938 13.6299 10.7598L13.5566 10.7529H13.1396C13.0957 10.5866 13.0224 10.4197 12.9229 10.2646H13.5557C13.7576 10.2646 13.9219 10.1013 13.9219 9.89941C13.9216 9.69775 13.7574 9.53418 13.5557 9.53418H10.6309Z" fill="white"/>
<path fill-rule="evenodd" clip-rule="evenodd" d="M8 1C11.866 1 15 4.13401 15 8C15 8.20937 14.9887 8.4164 14.9707 8.62109C14.1781 7.92368 13.1387 7.5 12 7.5C10.9288 7.5 9.94558 7.87505 9.17285 8.5H8.5V9.17188C7.87476 9.94469 7.5 10.9285 7.5 12C7.5 13.1387 7.92368 14.1781 8.62109 14.9707C8.4164 14.9887 8.20937 15 8 15C4.13401 15 1 11.866 1 8C1 4.13401 4.13401 1 8 1ZM7.5 11.8066C6.96623 11.8333 6.45085 11.9304 5.96289 12.0879C6.02418 12.2201 6.0879 12.347 6.1543 12.4678C6.59384 13.2669 7.07091 13.7015 7.5 13.8877V11.8066ZM5.04004 12.4746C4.8338 12.582 4.63472 12.7013 4.44336 12.8311C4.80887 13.1006 5.20568 13.3298 5.62793 13.5117C5.41244 13.2046 5.21508 12.857 5.04004 12.4746ZM2.02246 8.5C2.13904 9.91262 2.74455 11.1852 3.66992 12.1504C3.98628 11.9185 4.32313 11.713 4.67676 11.5361C4.38565 10.6337 4.20391 9.60203 4.16113 8.5H2.02246ZM5.16211 8.5C5.20315 9.47489 5.36151 10.3742 5.60449 11.1523C6.20447 10.9539 6.84045 10.8348 7.5 10.8066V8.5H5.16211ZM3.75293 3.7627C2.78026 4.73759 2.14253 6.04505 2.02246 7.5H4.16113C4.20534 6.36136 4.39692 5.29755 4.70508 4.37402C4.3708 4.19513 4.05203 3.99146 3.75293 3.7627ZM5.62402 4.78418C5.36978 5.57675 5.20427 6.49855 5.16211 7.5H7.5V5.18066C6.84557 5.13436 6.21646 4.99824 5.62402 4.78418ZM10.375 4.78516C9.78301 4.99913 9.15407 5.13439 8.5 5.18066V7.5H10.8389C10.7967 6.49879 10.6291 5.57762 10.375 4.78516ZM12.2451 3.76172C11.9461 3.9905 11.6281 4.19509 11.2939 4.37402C11.6022 5.29762 11.7946 6.36124 11.8389 7.5H13.9775C13.8574 6.04432 13.2186 4.73677 12.2451 3.76172ZM7.5 2.11133C7.07082 2.29746 6.59396 2.7329 6.1543 3.53223C6.09776 3.63502 6.0431 3.74236 5.99023 3.85352C6.46858 4.02372 6.97451 4.13526 7.5 4.17871V2.11133ZM8.5 4.17871C9.02521 4.13521 9.53083 4.02381 10.0088 3.85352C9.95602 3.74258 9.90311 3.63483 9.84668 3.53223C9.40707 2.73294 8.92932 2.29753 8.5 2.11133V4.17871ZM5.62793 2.4873C5.24217 2.65351 4.87794 2.85984 4.53906 3.09961C4.71278 3.22257 4.89339 3.33614 5.08008 3.44043C5.24519 3.09112 5.42836 2.77162 5.62793 2.4873ZM10.3711 2.4873C10.5706 2.77141 10.7539 3.09044 10.9189 3.43945C11.1054 3.33522 11.2855 3.22144 11.459 3.09863C11.1204 2.85922 10.7565 2.65329 10.3711 2.4873Z" fill="white"/>
</svg>
