<svg width="16" height="16" viewBox="0 0 16 16" fill="none" xmlns="http://www.w3.org/2000/svg">
<path fill-rule="evenodd" clip-rule="evenodd" d="M5.04 5.14998H1.58C2.56 2.88998 4.71 1.24998 7.26 0.97998C7.22 1.02998 7.18 1.06998 7.14 1.11998C6.86 1.46998 6.49 1.97998 6.12 2.61998C5.72 3.30998 5.32 4.15998 5.04 5.14998ZM8.85 1.11998C8.81 1.06998 8.77 1.02998 8.73 0.97998C11.28 1.24998 13.43 2.88998 14.41 5.14998H10.95C10.67 4.15998 10.27 3.30998 9.87 2.61998C9.5 1.97998 9.13 1.46998 8.85 1.11998ZM8.96 3.13998C9.28 3.70998 9.61 4.37998 9.86 5.14998H6.13C6.38 4.37998 6.71 3.70998 7.03 3.13998C7.37 2.55998 7.71 2.08998 7.96 1.77998C8.21 2.08998 8.62 2.55998 8.96 3.13998ZM4.79 9.68998H1.21C1.07 9.12998 1 8.54998 1 7.93998C1 7.33998 1.07 6.75998 1.21 6.19998H4.79C4.69 6.74998 4.63 7.32998 4.63 7.93998C4.63 8.54998 4.69 9.13998 4.79 9.68998ZM5.68 7.93998C5.68 7.32998 5.75 6.74998 5.86 6.19998H10.13C10.24 6.70998 10.3 7.24998 10.31 7.81998C9.39 8.18998 8.63 8.84998 8.13 9.68998H5.86C5.75 9.13998 5.68 8.55998 5.68 7.93998ZM14.96 8.60998C14.99 8.38998 15 8.16998 15 7.93998C15 7.33998 14.92 6.75998 14.78 6.19998H11.2C11.28 6.62998 11.33 7.07998 11.35 7.53998C11.56 7.50998 11.78 7.49998 12 7.49998C13.13 7.49998 14.17 7.91998 14.96 8.60998ZM12 8.24998C14.07 8.24998 15.75 9.91998 15.75 12C15.75 14.07 14.07 15.75 12 15.75C9.92 15.75 8.25 14.07 8.25 12C8.25 9.91998 9.92 8.24998 12 8.24998ZM11.36 9.51998C11.16 9.51998 10.99 9.67998 10.99 9.87998V11.71H10.63C10.42 11.71 10.26 11.87 10.26 12.07C10.26 12.28 10.42 12.44 10.63 12.44H10.99V12.93H10.63C10.42 12.93 10.26 13.09 10.26 13.29C10.26 13.49 10.42 13.66 10.63 13.66H10.99V14.39C10.99 14.59 11.16 14.76 11.36 14.76C11.56 14.76 11.72 14.59 11.72 14.39V13.66H12.58C12.74 13.63 12.94 13.47 12.94 13.29C12.94 13.12 12.82 12.97 12.65 12.94L11.72 12.93V12.44H12.45C13.26 12.44 13.92 11.79 13.92 10.98C13.92 10.17 13.26 9.51998 12.45 9.51998H11.36ZM12.45 10.25C12.86 10.25 13.18 10.57 13.19 10.98C13.19 11.38 12.86 11.71 12.45 11.71H11.72V10.25H12.45ZM7.14 14.76C7.18 14.81 7.22 14.86 7.26 14.9C4.71 14.64 2.56 13 1.58 10.74H5.04C5.32 11.72 5.72 12.58 6.12 13.27C6.49 13.91 6.86 14.42 7.14 14.76ZM7.67 10.74H6.13C6.38 11.5 6.71 12.18 7.03 12.74C7.37 13.33 7.71 13.79 7.96 14.11C7.62 13.47 7.5 12.76 7.5 12C7.5 11.56 7.56 11.14 7.67 10.74Z" fill="white"/>
</svg>
