<svg width="16" height="16" viewBox="0 0 16 16" fill="none" xmlns="http://www.w3.org/2000/svg">
<path fill-rule="evenodd" clip-rule="evenodd" d="M12 8.25C14.0711 8.25 15.75 9.92893 15.75 12C15.75 14.0711 14.0711 15.75 12 15.75C9.92893 15.75 8.25 14.0711 8.25 12C8.25 9.92893 9.92893 8.25 12 8.25ZM12 9.15039C11.8067 9.15039 11.6504 9.3067 11.6504 9.5V9.9209C11.0811 10.0264 10.6504 10.5252 10.6504 11.125C10.6504 11.8015 11.1985 12.3496 11.875 12.3496H12.125C12.4149 12.3496 12.6504 12.5851 12.6504 12.875C12.6504 13.1649 12.4149 13.4004 12.125 13.4004H11.2227C11.0294 13.4004 10.8721 13.5567 10.8721 13.75C10.8721 13.9433 11.0294 14.0996 11.2227 14.0996H11.6504V14.5C11.6504 14.6933 11.8067 14.8496 12 14.8496C12.1933 14.8496 12.3496 14.6933 12.3496 14.5V14.0781C12.9188 13.9725 13.3496 13.4747 13.3496 12.875C13.3496 12.1985 12.8015 11.6504 12.125 11.6504H11.875C11.5851 11.6504 11.3496 11.4149 11.3496 11.125C11.3496 10.8351 11.5851 10.5996 11.875 10.5996H12.7773L12.8486 10.5928C13.008 10.56 13.1279 10.419 13.1279 10.25C13.1279 10.081 13.008 9.93999 12.8486 9.90723L12.7773 9.90039H12.3496V9.5C12.3496 9.3067 12.1933 9.15039 12 9.15039Z" fill="white"/>
<path fill-rule="evenodd" clip-rule="evenodd" d="M8 1C11.8659 1.00007 15 4.13407 15 8C15 8.20936 14.9887 8.41641 14.9707 8.62109C14.1781 7.92368 13.1387 7.5 12 7.5C10.9288 7.5 9.94558 7.87505 9.17285 8.5H8.5V9.17188C7.87476 9.94469 7.5 10.9285 7.5 12C7.5 13.1387 7.92368 14.1781 8.62109 14.9707C8.41645 14.9887 8.20931 15 8 15L7.99902 14.999H7.99707C4.13246 14.9974 1.00003 11.865 1 8C1.00003 4.13408 4.1341 1.00009 8 1ZM7.5 11.8066C6.96627 11.8333 6.45081 11.9304 5.96289 12.0879C6.02412 12.22 6.08699 12.3471 6.15332 12.4678C6.59288 13.267 7.07089 13.7015 7.5 13.8877V11.8066ZM5.04004 12.4746C4.83383 12.582 4.6347 12.7013 4.44336 12.8311C4.80825 13.1001 5.20453 13.3289 5.62598 13.5107C5.41095 13.204 5.21475 12.8564 5.04004 12.4746ZM2.02246 8.5C2.13907 9.91284 2.7443 11.1861 3.66992 12.1514C3.9864 11.9194 4.32299 11.7131 4.67676 11.5361C4.38568 10.6337 4.20392 9.60199 4.16113 8.5H2.02246ZM5.16113 8.5C5.20217 9.47489 5.36152 10.3742 5.60449 11.1523C6.20443 10.9539 6.84049 10.8348 7.5 10.8066V8.5H5.16113ZM3.75098 3.76172C2.77859 4.73656 2.14251 6.0453 2.02246 7.5H4.16113C4.20533 6.36137 4.39693 5.29754 4.70508 4.37402C4.37021 4.19481 4.05053 3.99097 3.75098 3.76172ZM5.62402 4.78418C5.36979 5.57676 5.20329 6.49854 5.16113 7.5H7.5V5.17969C6.84565 5.13338 6.21639 4.9982 5.62402 4.78418ZM10.374 4.78516C9.78235 4.99892 9.15368 5.13342 8.5 5.17969V7.5H10.8379C10.7957 6.49873 10.6282 5.57765 10.374 4.78516ZM12.2461 3.76074C11.9464 3.9901 11.6279 4.19572 11.293 4.375C11.6011 5.29846 11.7947 6.36154 11.8389 7.5H13.9775C13.8574 6.04436 13.2195 4.73578 12.2461 3.76074ZM7.5 2.11133C7.0708 2.29747 6.593 2.73278 6.15332 3.53223C6.09684 3.63494 6.04305 3.74245 5.99023 3.85352C6.46853 4.02369 6.97457 4.13526 7.5 4.17871V2.11133ZM8.5 4.17871C9.02515 4.13521 9.53087 4.02379 10.0088 3.85352C9.95599 3.74251 9.90217 3.63489 9.8457 3.53223C9.40632 2.73341 8.92913 2.29862 8.5 2.1123V4.17871ZM5.62793 2.4873C5.24196 2.65361 4.87712 2.85966 4.53809 3.09961C4.71196 3.22271 4.8932 3.33604 5.08008 3.44043C5.24518 3.09113 5.42838 2.77162 5.62793 2.4873ZM10.374 2.48926C10.5728 2.77279 10.7554 3.0914 10.9199 3.43945C11.106 3.33535 11.2857 3.22125 11.459 3.09863C11.1213 2.85991 10.7582 2.65499 10.374 2.48926Z" fill="white"/>
</svg>
