<svg width="16" height="16" viewBox="0 0 16 16" fill="none" xmlns="http://www.w3.org/2000/svg">
<path fill-rule="evenodd" clip-rule="evenodd" d="M1.37 5.72C2.31 2.97 4.92 1 8 1C11.07 1 13.68 2.97 14.62 5.72C14.86 6.44 15 7.2 15 8C15 8.2 14.99 8.41 14.97 8.62C14.66 8.35 14.32 8.12 13.94 7.94C13.94 7.41 13.87 6.9 13.74 6.42H11.01C11.07 6.79 11.12 7.18 11.14 7.58C10.77 7.65 10.42 7.76 10.09 7.91C10.09 7.39 10.03 6.89 9.94 6.42H6.05C5.95 6.92 5.9 7.44 5.9 8C5.9 8.55 5.95 9.07 6.05 9.57H8.2C8 9.89 7.83 10.25 7.71 10.62H6.33C6.55 11.3 6.84 11.91 7.14 12.41C7.32 12.73 7.5 13.01 7.67 13.24C7.86 13.89 8.18 14.48 8.62 14.97C8.41 14.99 8.2 15 8 15C4.92 15 2.31 13.02 1.37 10.27C1.13 9.55 1 8.79 1 8C1 7.2 1.13 6.44 1.37 5.72ZM2.65 5.37H5.23C5.49 4.47 5.86 3.69 6.23 3.05C6.42 2.71 6.62 2.42 6.8 2.17C4.97 2.54 3.45 3.75 2.65 5.37ZM13.34 5.37H10.76C10.5 4.47 10.13 3.69 9.76 3.05C9.57 2.71 9.37 2.42 9.19 2.17C11.02 2.54 12.54 3.75 13.34 5.37ZM8 2.32C7.76 2.61 7.45 3.03 7.14 3.58C6.84 4.08 6.55 4.69 6.33 5.37H9.66C9.44 4.69 9.15 4.08 8.85 3.58C8.54 3.03 8.23 2.61 8 2.32ZM2.25 9.57H4.98C4.9 9.07 4.84 8.55 4.84 8C4.84 7.44 4.9 6.92 4.98 6.42H2.25C2.12 6.92 2.05 7.45 2.05 8C2.05 8.54 2.12 9.07 2.25 9.57ZM15.75 12C15.75 9.92 14.07 8.25 12 8.25C9.92 8.25 8.25 9.92 8.25 12C8.25 14.07 9.92 15.75 12 15.75C14.07 15.75 15.75 14.07 15.75 12ZM11.65 9.5C11.65 9.3 11.8 9.15 12 9.15C12.19 9.15 12.34 9.3 12.34 9.5V9.9H12.77C12.93 9.93 13.12 10.08 13.12 10.25C13.12 10.41 13 10.56 12.84 10.59H11.87C11.58 10.59 11.34 10.83 11.34 11.12C11.34 11.41 11.58 11.65 11.87 11.65H12.12C12.8 11.65 13.34 12.19 13.34 12.87C13.34 13.47 12.91 13.97 12.34 14.07V14.5C12.34 14.69 12.19 14.84 12 14.84C11.8 14.84 11.65 14.69 11.65 14.5V14.09H11.22C11.02 14.09 10.87 13.94 10.87 13.75C10.87 13.55 11.02 13.4 11.22 13.4H12.12C12.41 13.4 12.65 13.16 12.65 12.87C12.65 12.58 12.41 12.34 12.12 12.34H11.87C11.19 12.34 10.65 11.8 10.65 11.12C10.65 10.52 11.08 10.02 11.65 9.92V9.5ZM6.8 13.82C6.62 13.57 6.42 13.28 6.23 12.94C5.86 12.3 5.49 11.52 5.23 10.62H2.65C3.45 12.24 4.97 13.45 6.8 13.82Z" fill="white"/>
</svg>
