<svg width="16" height="16" viewBox="0 0 16 16" fill="none" xmlns="http://www.w3.org/2000/svg">
<path fill-rule="evenodd" clip-rule="evenodd" d="M5.04 5.14998H1.58C2.56 2.88998 4.71 1.24998 7.26 0.97998C7.22 1.02998 7.18 1.06998 7.14 1.11998C6.86 1.46998 6.49 1.97998 6.12 2.61998C5.72 3.30998 5.32 4.15998 5.04 5.14998ZM8.85 1.11998C8.81 1.06998 8.77 1.02998 8.73 0.97998C11.28 1.24998 13.43 2.88998 14.41 5.14998H10.95C10.67 4.15998 10.27 3.30998 9.87 2.61998C9.5 1.97998 9.13 1.46998 8.85 1.11998ZM8.96 3.13998C9.28 3.70998 9.61 4.37998 9.86 5.14998H6.13C6.38 4.37998 6.71 3.70998 7.03 3.13998C7.37 2.55998 7.71 2.08998 7.96 1.77998C8.21 2.08998 8.62 2.55998 8.96 3.13998ZM4.79 9.68998H1.21C1.07 9.12998 1 8.54998 1 7.93998C1 7.33998 1.07 6.75998 1.21 6.19998H4.79C4.69 6.74998 4.63 7.32998 4.63 7.93998C4.63 8.54998 4.69 9.13998 4.79 9.68998ZM5.68 7.93998C5.68 7.32998 5.75 6.74998 5.86 6.19998H10.13C10.24 6.70998 10.3 7.24998 10.31 7.81998C9.39 8.18998 8.63 8.84998 8.13 9.68998H5.86C5.75 9.13998 5.68 8.55998 5.68 7.93998ZM14.96 8.60998C14.99 8.38998 15 8.16998 15 7.93998C15 7.33998 14.92 6.75998 14.78 6.19998H11.2C11.28 6.62998 11.33 7.07998 11.35 7.53998C11.56 7.50998 11.78 7.49998 12 7.49998C13.13 7.49998 14.17 7.91998 14.96 8.60998ZM15.75 12C15.75 9.91998 14.07 8.24998 12 8.24998C9.92 8.24998 8.25 9.91998 8.25 12C8.25 14.07 9.92 15.75 12 15.75C14.07 15.75 15.75 14.07 15.75 12ZM10.26 9.88998C10.26 9.68998 10.42 9.52998 10.63 9.52998H13.55C13.75 9.52998 13.92 9.68998 13.92 9.88998C13.92 10.1 13.75 10.26 13.55 10.26H12.92C13.02 10.41 13.09 10.58 13.14 10.75H13.55C13.72 10.78 13.92 10.94 13.92 11.11C13.92 11.29 13.79 11.44 13.62 11.47L13.14 11.48C13.07 11.71 12.96 11.94 12.79 12.14C12.53 12.45 12.13 12.7 11.6 12.7L12.83 14.02C12.93 14.17 12.96 14.42 12.83 14.54C12.71 14.67 12.52 14.68 12.37 14.59L10.37 12.59C10.33 12.53 10.26 12.41 10.26 12.34C10.28 12.27 10.32 12.12 10.37 12.07C10.42 12.02 10.48 11.99 10.55 11.98L11.6 11.97L11.7 11.96C11.93 11.94 12.11 11.82 12.23 11.67C12.28 11.61 12.32 11.54 12.35 11.48H10.87C10.67 11.48 10.5 11.32 10.5 11.11C10.5 10.91 10.67 10.75 10.87 10.75H12.35C12.32 10.68 12.28 10.62 12.23 10.56C12.11 10.41 11.93 10.29 11.7 10.27L11.6 10.26H10.63C10.42 10.26 10.26 10.1 10.26 9.88998ZM7.14 14.76C7.18 14.81 7.22 14.86 7.26 14.9C4.71 14.64 2.56 13 1.58 10.74H5.04C5.32 11.72 5.72 12.58 6.12 13.27C6.49 13.91 6.86 14.42 7.14 14.76ZM7.67 10.74H6.13C6.38 11.5 6.71 12.18 7.03 12.74C7.37 13.33 7.71 13.79 7.96 14.11C7.62 13.47 7.5 12.76 7.5 12C7.5 11.56 7.56 11.14 7.67 10.74Z" fill="white"/>
</svg>
