<svg width="16" height="16" viewBox="0 0 16 16" fill="none" xmlns="http://www.w3.org/2000/svg">
<path fill-rule="evenodd" clip-rule="evenodd" d="M1.37 5.72C2.31 2.97 4.92 1 8 1C11.07 1 13.68 2.97 14.62 5.72C14.86 6.44 15 7.2 15 8C15 8.2 14.99 8.41 14.97 8.62C14.66 8.35 14.32 8.12 13.94 7.94C13.94 7.41 13.87 6.9 13.74 6.42H11.01C11.07 6.79 11.12 7.18 11.14 7.58C10.77 7.65 10.42 7.76 10.09 7.91C10.09 7.39 10.03 6.89 9.94 6.42H6.05C5.95 6.92 5.9 7.44 5.9 8C5.9 8.55 5.95 9.07 6.05 9.57H8.2C8 9.89 7.83 10.25 7.71 10.62H6.33C6.55 11.3 6.84 11.91 7.14 12.41C7.32 12.73 7.5 13.01 7.67 13.24C7.86 13.89 8.18 14.48 8.62 14.97C8.41 14.99 8.2 15 8 15C4.92 15 2.31 13.02 1.37 10.27C1.13 9.55 1 8.79 1 8C1 7.2 1.13 6.44 1.37 5.72ZM2.65 5.37H5.23C5.49 4.47 5.86 3.69 6.23 3.05C6.42 2.71 6.62 2.42 6.8 2.17C4.97 2.54 3.45 3.75 2.65 5.37ZM13.34 5.37H10.76C10.5 4.47 10.13 3.69 9.76 3.05C9.57 2.71 9.37 2.42 9.19 2.17C11.02 2.54 12.54 3.75 13.34 5.37ZM8 2.32C7.76 2.61 7.45 3.03 7.14 3.58C6.84 4.08 6.55 4.69 6.33 5.37H9.66C9.44 4.69 9.15 4.08 8.85 3.58C8.54 3.03 8.23 2.61 8 2.32ZM2.25 9.57H4.98C4.9 9.07 4.84 8.55 4.84 8C4.84 7.44 4.9 6.92 4.98 6.42H2.25C2.12 6.92 2.05 7.45 2.05 8C2.05 8.54 2.12 9.07 2.25 9.57ZM15.75 12C15.75 9.92 14.07 8.25 12 8.25C9.92 8.25 8.25 9.92 8.25 12C8.25 14.07 9.92 15.75 12 15.75C14.07 15.75 15.75 14.07 15.75 12ZM10.26 9.89C10.26 9.69 10.42 9.53 10.63 9.53H13.55C13.75 9.53 13.92 9.69 13.92 9.89C13.92 10.1 13.75 10.26 13.55 10.26H12.92C13.02 10.41 13.09 10.58 13.14 10.75H13.55C13.72 10.78 13.92 10.94 13.92 11.11C13.92 11.29 13.79 11.44 13.62 11.47L13.14 11.48C13.07 11.71 12.96 11.94 12.79 12.14C12.53 12.46 12.13 12.7 11.6 12.7L12.83 14.02C12.93 14.16 12.96 14.42 12.83 14.54C12.71 14.67 12.52 14.68 12.37 14.59L10.37 12.59C10.33 12.53 10.26 12.41 10.26 12.34C10.28 12.27 10.32 12.12 10.37 12.07C10.42 12.02 10.48 11.99 10.55 11.98L11.6 11.97L11.7 11.96C11.93 11.94 12.11 11.82 12.23 11.67C12.28 11.61 12.32 11.54 12.35 11.48H10.87C10.67 11.48 10.5 11.32 10.5 11.11C10.5 10.91 10.67 10.75 10.87 10.75H12.35C12.32 10.68 12.28 10.62 12.23 10.56C12.11 10.41 11.93 10.29 11.7 10.27L11.6 10.26H10.63C10.42 10.26 10.26 10.1 10.26 9.89ZM6.8 13.82C6.62 13.57 6.42 13.28 6.23 12.94C5.86 12.3 5.49 11.52 5.23 10.62H2.65C3.45 12.24 4.97 13.45 6.8 13.82Z" fill="white"/>
</svg>
