<svg width="16" height="16" viewBox="0 0 16 16" fill="none" xmlns="http://www.w3.org/2000/svg">
<path fill-rule="evenodd" clip-rule="evenodd" d="M5.04 5.14998H1.58C2.56 2.88998 4.71 1.24998 7.26 0.97998C7.22 1.02998 7.18 1.06998 7.14 1.11998C6.86 1.46998 6.49 1.97998 6.12 2.61998C5.72 3.30998 5.32 4.15998 5.04 5.14998ZM8.85 1.11998C8.81 1.06998 8.77 1.02998 8.73 0.97998C11.28 1.24998 13.43 2.88998 14.41 5.14998H10.95C10.67 4.15998 10.27 3.30998 9.87 2.61998C9.5 1.97998 9.13 1.46998 8.85 1.11998ZM8.96 3.13998C9.28 3.70998 9.61 4.37998 9.86 5.14998H6.13C6.38 4.37998 6.71 3.70998 7.03 3.13998C7.37 2.55998 7.71 2.08998 7.96 1.77998C8.21 2.08998 8.62 2.55998 8.96 3.13998ZM4.79 9.68998H1.21C1.07 9.12998 1 8.54998 1 7.93998C1 7.33998 1.07 6.75998 1.21 6.19998H4.79C4.69 6.74998 4.63 7.32998 4.63 7.93998C4.63 8.54998 4.69 9.13998 4.79 9.68998ZM5.68 7.93998C5.68 7.32998 5.75 6.74998 5.86 6.19998H10.13C10.24 6.70998 10.3 7.24998 10.31 7.81998C9.39 8.18998 8.63 8.84998 8.13 9.68998H5.86C5.75 9.13998 5.68 8.55998 5.68 7.93998ZM14.96 8.60998C14.99 8.38998 15 8.16998 15 7.93998C15 7.33998 14.92 6.75998 14.78 6.19998H11.2C11.28 6.62998 11.33 7.07998 11.35 7.53998C11.56 7.50998 11.78 7.49998 12 7.49998C13.13 7.49998 14.17 7.91998 14.96 8.60998ZM15.75 12C15.75 9.91998 14.07 8.24998 12 8.24998C9.92 8.24998 8.25 9.91998 8.25 12C8.25 14.07 9.92 15.75 12 15.75C14.07 15.75 15.75 14.07 15.75 12ZM11.65 9.49998C11.65 9.29998 11.8 9.14998 12 9.14998C12.19 9.14998 12.34 9.29998 12.34 9.49998V9.89998H12.77C12.93 9.92998 13.12 10.08 13.12 10.25C13.12 10.41 13 10.56 12.84 10.59H11.87C11.58 10.59 11.34 10.83 11.34 11.12C11.34 11.41 11.58 11.65 11.87 11.65H12.12C12.8 11.65 13.34 12.19 13.34 12.87C13.34 13.47 12.91 13.97 12.34 14.07V14.5C12.34 14.69 12.19 14.84 12 14.84C11.8 14.84 11.65 14.69 11.65 14.5V14.09H11.22C11.02 14.09 10.87 13.94 10.87 13.75C10.87 13.55 11.02 13.4 11.22 13.4H12.12C12.41 13.4 12.65 13.16 12.65 12.87C12.65 12.58 12.41 12.34 12.12 12.34H11.87C11.19 12.34 10.65 11.8 10.65 11.12C10.65 10.52 11.08 10.02 11.65 9.91998V9.49998ZM7.14 14.76C7.18 14.81 7.22 14.86 7.26 14.9C4.71 14.64 2.56 13 1.58 10.74H5.04C5.32 11.72 5.72 12.58 6.12 13.27C6.49 13.91 6.86 14.42 7.14 14.76ZM7.67 10.74H6.13C6.38 11.5 6.71 12.18 7.03 12.74C7.37 13.33 7.71 13.79 7.96 14.11C7.62 13.47 7.5 12.76 7.5 12C7.5 11.56 7.56 11.14 7.67 10.74Z" fill="white"/>
</svg>
