<svg width="16" height="16" viewBox="0 0 16 16" fill="none" xmlns="http://www.w3.org/2000/svg">
<path fill-rule="evenodd" clip-rule="evenodd" d="M4.86253 2.39941H11.1375C11.7065 2.39941 12.1654 2.39941 12.537 2.42977C12.9197 2.46103 13.2558 2.52708 13.5667 2.68552C14.0606 2.93719 14.4622 3.33876 14.7139 3.83269C14.8723 4.14364 14.9384 4.47974 14.9696 4.86239C15 5.23401 15 5.69292 15 6.26188V9.7369C15 10.3059 15 10.7648 14.9696 11.1364C14.9384 11.5191 14.8723 11.8552 14.7139 12.1661C14.4622 12.6601 14.0606 13.0616 13.5667 13.3133C13.2558 13.4717 12.9197 13.5378 12.537 13.5691C12.1654 13.5994 11.7065 13.5994 11.1375 13.5994H4.86251C4.29353 13.5994 3.83461 13.5994 3.46297 13.5691C3.08033 13.5378 2.74423 13.4717 2.43328 13.3133C1.93935 13.0616 1.53778 12.6601 1.28611 12.1661C1.12767 11.8552 1.06162 11.5191 1.03035 11.1364C0.999991 10.7648 0.999995 10.3059 1 9.7369V6.26194C0.999995 5.69296 0.999991 5.23402 1.03035 4.86239C1.06162 4.47974 1.12767 4.14364 1.28611 3.83269C1.53778 3.33876 1.93935 2.93719 2.43328 2.68552C2.74423 2.52708 3.08033 2.46103 3.46297 2.42977C3.83461 2.39941 4.29354 2.39941 4.86253 2.39941ZM3.8 10.9748C3.8 10.6849 4.03505 10.4498 4.325 10.4498H11.675C11.965 10.4498 12.2 10.6849 12.2 10.9748C12.2 11.2648 11.965 11.4998 11.675 11.4998H4.325C4.03505 11.4998 3.8 11.2648 3.8 10.9748ZM3.10001 5.89883C3.10001 5.51223 3.41341 5.19883 3.80001 5.19883C4.18661 5.19883 4.50001 5.51223 4.50001 5.89883C4.50001 6.28543 4.18661 6.59883 3.80001 6.59883C3.41341 6.59883 3.10001 6.28543 3.10001 5.89883ZM5.2 7.29844C4.8134 7.29844 4.5 7.61184 4.5 7.99844C4.5 8.38504 4.8134 8.69844 5.2 8.69844C5.5866 8.69844 5.9 8.38504 5.9 7.99844C5.9 7.61184 5.5866 7.29844 5.2 7.29844ZM10.8 7.29844C10.4134 7.29844 10.1 7.61184 10.1 7.99844C10.1 8.38504 10.4134 8.69844 10.8 8.69844C11.1866 8.69844 11.5 8.38504 11.5 7.99844C11.5 7.61184 11.1866 7.29844 10.8 7.29844ZM6.60001 5.19883C6.21341 5.19883 5.90001 5.51223 5.90001 5.89883C5.90001 6.28543 6.21341 6.59883 6.60001 6.59883C6.98661 6.59883 7.30001 6.28543 7.30001 5.89883C7.30001 5.51223 6.98661 5.19883 6.60001 5.19883ZM8.70001 5.89883C8.70001 5.51223 9.01341 5.19883 9.40001 5.19883C9.78661 5.19883 10.1 5.51223 10.1 5.89883C10.1 6.28543 9.78661 6.59883 9.40001 6.59883C9.01341 6.59883 8.70001 6.28543 8.70001 5.89883ZM12.2 5.19883C11.8134 5.19883 11.5 5.51223 11.5 5.89883C11.5 6.28543 11.8134 6.59883 12.2 6.59883C12.5866 6.59883 12.9 6.28543 12.9 5.89883C12.9 5.51223 12.5866 5.19883 12.2 5.19883ZM7.30002 7.99844C7.30002 7.61184 7.61342 7.29844 8.00002 7.29844C8.38662 7.29844 8.70002 7.61184 8.70002 7.99844C8.70002 8.38504 8.38662 8.69844 8.00002 8.69844C7.61342 8.69844 7.30002 8.38504 7.30002 7.99844Z" fill="white"/>
</svg>
