<svg width="16" height="16" viewBox="0 0 16 16" fill="none" xmlns="http://www.w3.org/2000/svg">
<path d="M7.9998 1.2998C4.88801 1.2998 2.26864 3.40526 1.52316 6.26269C0.791533 6.46398 0.25 7.12883 0.25 7.9252C0.25 8.72164 0.791642 9.38654 1.52338 9.58776C2.26915 12.4448 4.88831 14.5498 7.9998 14.5498C8.09617 14.5498 8.19207 14.5478 8.28746 14.5438C8.07641 14.2364 7.90255 13.9014 7.77238 13.5454C5.1185 13.4423 2.93543 11.5424 2.42425 9.04867L2.34579 8.66591L1.95541 8.64952C1.55854 8.63285 1.25 8.31034 1.25 7.9252C1.25 7.54008 1.55849 7.21759 1.95531 7.20088L2.34569 7.18444L2.4241 6.80166C2.94953 4.23665 5.2437 2.2998 7.9998 2.2998C10.7559 2.2998 13.0501 4.23665 13.5755 6.80165L13.6539 7.18452L14.0444 7.20088C14.4413 7.2175 14.7499 7.54003 14.7499 7.9252C14.7499 8.07818 14.7012 8.22129 14.6177 8.33926C14.8905 8.53474 15.1406 8.75996 15.3633 9.0102C15.6048 8.71449 15.7499 8.33747 15.7499 7.9252C15.7499 7.12872 15.2082 6.46379 14.4764 6.26261C13.7309 3.40522 11.1116 1.2998 7.9998 1.2998Z" fill="white"/>
<path d="M8.86997 8.76691C9.27436 8.37533 9.75199 8.05893 10.2803 7.84027L9.6455 7.21201C9.42468 7.43055 9.16167 7.60285 8.87213 7.71866C8.58259 7.83447 8.27246 7.89141 7.96022 7.88609C7.64798 7.88076 7.34001 7.81329 7.05468 7.68768C6.76934 7.56207 6.51248 7.3809 6.2994 7.15496L5.56456 7.83374C5.86971 8.15728 6.23754 8.41672 6.64615 8.5966C7.05475 8.77647 7.49577 8.8731 7.94291 8.88073C8.25646 8.88607 8.56852 8.84757 8.86997 8.76691Z" fill="white"/>
<path d="M4.46351 7.22422C4.85415 7.22422 5.17083 6.91082 5.17083 6.52422C5.17083 6.13762 4.85415 5.82422 4.46351 5.82422C4.07287 5.82422 3.7562 6.13762 3.7562 6.52422C3.7562 6.91082 4.07287 7.22422 4.46351 7.22422Z" fill="white"/>
<path d="M12.244 6.52422C12.244 6.91082 11.9273 7.22422 11.5367 7.22422C11.146 7.22422 10.8294 6.91082 10.8294 6.52422C10.8294 6.13762 11.146 5.82422 11.5367 5.82422C11.9273 5.82422 12.244 6.13762 12.244 6.52422Z" fill="white"/>
<path d="M11.3182 10.6367C11.3182 10.2601 11.6235 9.95487 12 9.95487C12.3766 9.95487 12.6819 10.2602 12.6819 10.6367V11.3185H11.3182V10.6367Z" fill="white"/>
<path fill-rule="evenodd" clip-rule="evenodd" d="M15.75 12C15.75 14.0711 14.0711 15.75 12 15.75C9.92893 15.75 8.25 14.0711 8.25 12C8.25 9.92893 9.92893 8.25 12 8.25C14.0711 8.25 15.75 9.92893 15.75 12ZM13.3635 11.3177V10.6359C13.3635 9.88293 12.753 9.27225 11.9999 9.27225C11.247 9.27225 10.6363 9.88278 10.6363 10.6359V11.3177C10.2597 11.3177 9.95445 11.6229 9.95445 11.9995V13.7041C9.95445 14.0807 10.2597 14.3859 10.6363 14.3859H13.3635C13.7401 14.3859 14.0454 14.0807 14.0454 13.7041V11.9995C14.0454 11.6229 13.7401 11.3177 13.3635 11.3177Z" fill="white"/>
</svg>
