<svg width="16" height="16" viewBox="0 0 16 16" fill="none" xmlns="http://www.w3.org/2000/svg">
<path fill-rule="evenodd" clip-rule="evenodd" d="M14.186 9.38094C13.5482 12.1683 11.021 14.25 8.00039 14.25C4.97981 14.25 2.45253 12.1682 1.81477 9.3809C1.76365 9.38643 1.71171 9.38928 1.65909 9.38928C0.880871 9.38928 0.25 8.76745 0.25 8.00039C0.25 7.23333 0.880871 6.6115 1.65909 6.6115C1.71165 6.6115 1.76354 6.61434 1.8146 6.61986C2.45207 3.83215 4.97954 1.75 8.00039 1.75C11.0212 1.75 13.5487 3.83213 14.1862 6.61982C14.2371 6.61432 14.2888 6.6115 14.3412 6.6115C15.1194 6.6115 15.7503 7.23333 15.7503 8.00039C15.7503 8.76745 15.1194 9.38928 14.3412 9.38928C14.2888 9.38928 14.237 9.38645 14.186 9.38094ZM4.18006 7.22266C4.73235 7.22266 5.18006 6.77494 5.18006 6.22266C5.18006 5.67037 4.73235 5.22266 4.18006 5.22266C3.62778 5.22266 3.18006 5.67037 3.18006 6.22266C3.18006 6.77494 3.62778 7.22266 4.18006 7.22266ZM12.8187 6.22266C12.8187 6.77494 12.3709 7.22266 11.8187 7.22266C11.2664 7.22266 10.8187 6.77494 10.8187 6.22266C10.8187 5.67037 11.2664 5.22266 11.8187 5.22266C12.3709 5.22266 12.8187 5.67037 12.8187 6.22266ZM9.63647 7.29156C9.4168 7.50809 9.15515 7.67881 8.86712 7.79355C8.57909 7.90829 8.27057 7.96471 7.95995 7.95943C7.64933 7.95416 7.34296 7.8873 7.05911 7.76285C6.77526 7.6384 6.51973 7.4589 6.30776 7.23504L5.57145 7.91243C5.87567 8.2337 6.2424 8.49131 6.64977 8.66992C7.05713 8.84852 7.49681 8.94447 7.9426 8.95204C8.38839 8.95961 8.83116 8.87865 9.24453 8.71397C9.6579 8.5493 10.0334 8.30429 10.3487 7.99355L9.63647 7.29156Z" fill="white"/>
</svg>
