<svg width="16" height="16" viewBox="0 0 16 16" fill="none" xmlns="http://www.w3.org/2000/svg">
<path fill-rule="evenodd" clip-rule="evenodd" d="M12 7.5C13.3241 7.5 14.5146 8.07186 15.338 8.98207C15.5928 8.73076 15.7503 8.38371 15.7503 8.00039C15.7503 7.23333 15.1194 6.6115 14.3412 6.6115C14.2888 6.6115 14.2371 6.61432 14.1862 6.61982C13.5487 3.83213 11.0212 1.75 8.00039 1.75C4.97954 1.75 2.45207 3.83215 1.8146 6.61986C1.76354 6.61434 1.71165 6.6115 1.65909 6.6115C0.880871 6.6115 0.25 7.23333 0.25 8.00039C0.25 8.76745 0.880871 9.38928 1.65909 9.38928C1.71171 9.38928 1.76365 9.38643 1.81477 9.3809C2.45253 12.1682 4.97981 14.25 8.00039 14.25C8.03418 14.25 8.06791 14.2497 8.10157 14.2492C7.71897 13.5875 7.5 12.8193 7.5 12C7.5 10.7797 7.98572 9.67288 8.77438 8.86227C8.5027 8.92648 8.22325 8.95681 7.9426 8.95204C7.49681 8.94447 7.05713 8.84852 6.64977 8.66992C6.2424 8.49131 5.87567 8.2337 5.57145 7.91243L6.30776 7.23504C6.51973 7.4589 6.77526 7.6384 7.05911 7.76285C7.34296 7.8873 7.64933 7.95416 7.95995 7.95943C8.27057 7.96471 8.57909 7.90829 8.86712 7.79355C9.15515 7.67881 9.4168 7.50809 9.63647 7.29156L10.2193 7.86605C10.7654 7.6305 11.3675 7.5 12 7.5ZM4.18006 7.22266C4.73235 7.22266 5.18006 6.77494 5.18006 6.22266C5.18006 5.67037 4.73235 5.22266 4.18006 5.22266C3.62778 5.22266 3.18006 5.67037 3.18006 6.22266C3.18006 6.77494 3.62778 7.22266 4.18006 7.22266ZM12.8187 6.22266C12.8187 6.77494 12.3709 7.22266 11.8187 7.22266C11.2664 7.22266 10.8187 6.77494 10.8187 6.22266C10.8187 5.67037 11.2664 5.22266 11.8187 5.22266C12.3709 5.22266 12.8187 5.67037 12.8187 6.22266Z" fill="white"/>
<path d="M11.3182 10.6367C11.3182 10.2601 11.6235 9.95487 12 9.95487C12.3766 9.95487 12.6819 10.2602 12.6819 10.6367V11.3185H11.3182V10.6367Z" fill="white"/>
<path fill-rule="evenodd" clip-rule="evenodd" d="M15.75 12C15.75 14.0711 14.0711 15.75 12 15.75C9.92893 15.75 8.25 14.0711 8.25 12C8.25 9.92893 9.92893 8.25 12 8.25C14.0711 8.25 15.75 9.92893 15.75 12ZM13.3635 11.3177V10.6359C13.3635 9.88293 12.753 9.27225 11.9999 9.27225C11.247 9.27225 10.6363 9.88278 10.6363 10.6359V11.3177C10.2597 11.3177 9.95445 11.6229 9.95445 11.9995V13.7041C9.95445 14.0807 10.2597 14.3859 10.6363 14.3859H13.3635C13.7401 14.3859 14.0454 14.0807 14.0454 13.7041V11.9995C14.0454 11.6229 13.7401 11.3177 13.3635 11.3177Z" fill="white"/>
</svg>
