<svg width="16" height="16" viewBox="0 0 16 16" fill="none" xmlns="http://www.w3.org/2000/svg">
<path d="M2.92285 12.4785C3.08147 12.4785 3.23354 12.5421 3.3457 12.6543C3.45786 12.7665 3.52148 12.9185 3.52148 13.0771C3.52142 13.2357 3.45781 13.3879 3.3457 13.5C3.23356 13.612 3.08136 13.6748 2.92285 13.6748C2.76431 13.6747 2.61211 13.6121 2.5 13.5C2.38789 13.3879 2.32525 13.2357 2.3252 13.0771C2.3252 12.9186 2.38798 12.7664 2.5 12.6543C2.61211 12.5422 2.76431 12.4786 2.92285 12.4785Z" fill="white"/>
<path fill-rule="evenodd" clip-rule="evenodd" d="M5.46191 12.4785C5.6204 12.4786 5.77269 12.5422 5.88477 12.6543C5.99674 12.7664 6.05957 12.9187 6.05957 13.0771C6.05951 13.2357 5.99683 13.3879 5.88477 13.5C5.77269 13.6121 5.6204 13.6747 5.46191 13.6748C5.30344 13.6748 5.1512 13.612 5.03906 13.5C4.92695 13.3879 4.86334 13.2357 4.86328 13.0771C4.86328 12.9185 4.9269 12.7665 5.03906 12.6543C5.15122 12.5422 5.30333 12.4785 5.46191 12.4785Z" fill="white"/>
<path d="M8 12.4785C8.15862 12.4785 8.31069 12.5421 8.42285 12.6543C8.53494 12.7664 8.59766 12.9186 8.59766 13.0771C8.5976 13.2357 8.53496 13.3879 8.42285 13.5C8.3107 13.6121 8.15857 13.6748 8 13.6748C7.84143 13.6748 7.6893 13.6121 7.57715 13.5C7.46504 13.3879 7.4024 13.2357 7.40234 13.0771C7.40234 12.9186 7.46506 12.7664 7.57715 12.6543C7.68931 12.5421 7.84138 12.4785 8 12.4785Z" fill="white"/>
<path fill-rule="evenodd" clip-rule="evenodd" d="M10.5381 12.4785C10.6967 12.4785 10.8488 12.5422 10.9609 12.6543C11.0731 12.7665 11.1367 12.9185 11.1367 13.0771C11.1367 13.2357 11.073 13.3879 10.9609 13.5C10.8488 13.612 10.6966 13.6748 10.5381 13.6748C10.3796 13.6747 10.2273 13.6121 10.1152 13.5C10.0032 13.3879 9.94049 13.2357 9.94043 13.0771C9.94043 12.9187 10.0033 12.7664 10.1152 12.6543C10.2273 12.5422 10.3796 12.4786 10.5381 12.4785Z" fill="white"/>
<path d="M13.0771 12.4785C13.2357 12.4786 13.3879 12.5422 13.5 12.6543C13.612 12.7664 13.6748 12.9186 13.6748 13.0771C13.6747 13.2357 13.6121 13.3879 13.5 13.5C13.3879 13.6121 13.2357 13.6747 13.0771 13.6748C12.9186 13.6748 12.7664 13.612 12.6543 13.5C12.5422 13.3879 12.4786 13.2357 12.4785 13.0771C12.4785 12.9185 12.5421 12.7665 12.6543 12.6543C12.7665 12.5421 12.9185 12.4785 13.0771 12.4785Z" fill="white"/>
<path d="M5.46191 9.72852C5.6765 9.72861 5.88244 9.81408 6.03418 9.96582C6.18592 10.1176 6.27138 10.3235 6.27148 10.5381C6.27148 10.7528 6.18601 10.9595 6.03418 11.1113C5.88245 11.263 5.67645 11.3476 5.46191 11.3477C5.24719 11.3477 5.0405 11.2632 4.88867 11.1113C4.73684 10.9595 4.65234 10.7528 4.65234 10.5381C4.65244 10.3236 4.737 10.1176 4.88867 9.96582C5.0405 9.81399 5.24719 9.72852 5.46191 9.72852Z" fill="white"/>
<path fill-rule="evenodd" clip-rule="evenodd" d="M8 9.72852C8.21463 9.72852 8.42045 9.81411 8.57227 9.96582C8.72401 10.1176 8.80947 10.3235 8.80957 10.5381C8.80957 10.7528 8.7241 10.9595 8.57227 11.1113C8.42046 11.263 8.21458 11.3477 8 11.3477C7.78542 11.3477 7.57954 11.263 7.42773 11.1113C7.2759 10.9595 7.19043 10.7528 7.19043 10.5381C7.19053 10.3235 7.27599 10.1176 7.42773 9.96582C7.57955 9.81411 7.78536 9.72852 8 9.72852Z" fill="white"/>
<path d="M10.5381 9.72852C10.7528 9.72852 10.9595 9.81399 11.1113 9.96582C11.263 10.1176 11.3476 10.3236 11.3477 10.5381C11.3477 10.7528 11.2632 10.9595 11.1113 11.1113C10.9595 11.2632 10.7528 11.3477 10.5381 11.3477C10.3236 11.3476 10.1176 11.263 9.96582 11.1113C9.81399 10.9595 9.72852 10.7528 9.72852 10.5381C9.72861 10.3235 9.81408 10.1176 9.96582 9.96582C10.1176 9.81408 10.3235 9.72861 10.5381 9.72852Z" fill="white"/>
<path fill-rule="evenodd" clip-rule="evenodd" d="M2.92285 9.94043C3.08133 9.94043 3.23357 10.0033 3.3457 10.1152C3.45778 10.2273 3.52138 10.3796 3.52148 10.5381C3.52148 10.6967 3.45782 10.8488 3.3457 10.9609C3.23354 11.0731 3.08147 11.1367 2.92285 11.1367C2.76431 11.1367 2.61211 11.073 2.5 10.9609C2.38803 10.8488 2.3252 10.6966 2.3252 10.5381C2.32529 10.3796 2.38793 10.2273 2.5 10.1152C2.6121 10.0032 2.76435 9.94049 2.92285 9.94043Z" fill="white"/>
<path fill-rule="evenodd" clip-rule="evenodd" d="M13.0771 9.94043C13.2357 9.94049 13.3879 10.0032 13.5 10.1152C13.6121 10.2273 13.6747 10.3796 13.6748 10.5381C13.6748 10.6966 13.612 10.8488 13.5 10.9609C13.3879 11.073 13.2357 11.1367 13.0771 11.1367C12.9185 11.1367 12.7665 11.0731 12.6543 10.9609C12.5422 10.8488 12.4785 10.6967 12.4785 10.5381C12.4786 10.3796 12.5422 10.2273 12.6543 10.1152C12.7664 10.0033 12.9187 9.94043 13.0771 9.94043Z" fill="white"/>
<path fill-rule="evenodd" clip-rule="evenodd" d="M8 6.97852C8.27083 6.97852 8.53018 7.08682 8.72168 7.27832C8.91318 7.46982 9.02148 7.72917 9.02148 8C9.02148 8.27083 8.91318 8.53018 8.72168 8.72168C8.53018 8.91318 8.27083 9.02148 8 9.02148C7.72917 9.02148 7.46982 8.91318 7.27832 8.72168C7.08682 8.53018 6.97852 8.27083 6.97852 8C6.97852 7.72917 7.08682 7.46982 7.27832 7.27832C7.46982 7.08682 7.72917 6.97852 8 6.97852Z" fill="white"/>
<path fill-rule="evenodd" clip-rule="evenodd" d="M5.46191 7.19043C5.6765 7.19053 5.88244 7.27599 6.03418 7.42773C6.18589 7.57955 6.27148 7.78536 6.27148 8C6.27148 8.21463 6.18589 8.42045 6.03418 8.57227C5.88244 8.72401 5.6765 8.80947 5.46191 8.80957C5.24719 8.80957 5.0405 8.7241 4.88867 8.57227C4.73703 8.42046 4.65234 8.21458 4.65234 8C4.65234 7.78542 4.73703 7.57954 4.88867 7.42773C5.0405 7.2759 5.24719 7.19043 5.46191 7.19043Z" fill="white"/>
<path fill-rule="evenodd" clip-rule="evenodd" d="M10.5381 7.19043C10.7528 7.19043 10.9595 7.2759 11.1113 7.42773C11.263 7.57954 11.3477 7.78542 11.3477 8C11.3477 8.21458 11.263 8.42046 11.1113 8.57227C10.9595 8.7241 10.7528 8.80957 10.5381 8.80957C10.3235 8.80947 10.1176 8.72401 9.96582 8.57227C9.81411 8.42045 9.72852 8.21463 9.72852 8C9.72852 7.78536 9.81411 7.57955 9.96582 7.42773C10.1176 7.27599 10.3235 7.19053 10.5381 7.19043Z" fill="white"/>
<path d="M2.92285 7.40234C3.08142 7.40234 3.23355 7.46506 3.3457 7.57715C3.45786 7.68931 3.52148 7.84138 3.52148 8C3.52148 8.15862 3.45786 8.31069 3.3457 8.42285C3.23355 8.53494 3.08142 8.59766 2.92285 8.59766C2.76431 8.5976 2.61211 8.53496 2.5 8.42285C2.38791 8.3107 2.3252 8.15857 2.3252 8C2.3252 7.84143 2.38791 7.6893 2.5 7.57715C2.61211 7.46504 2.76431 7.4024 2.92285 7.40234Z" fill="white"/>
<path d="M13.0771 7.40234C13.2357 7.4024 13.3879 7.46504 13.5 7.57715C13.6121 7.6893 13.6748 7.84143 13.6748 8C13.6748 8.15857 13.6121 8.3107 13.5 8.42285C13.3879 8.53496 13.2357 8.5976 13.0771 8.59766C12.9186 8.59766 12.7664 8.53494 12.6543 8.42285C12.5421 8.31069 12.4785 8.15862 12.4785 8C12.4785 7.84138 12.5421 7.68931 12.6543 7.57715C12.7664 7.46506 12.9186 7.40234 13.0771 7.40234Z" fill="white"/>
<path d="M5.46191 4.65234C5.67645 4.65244 5.88245 4.737 6.03418 4.88867C6.18601 5.0405 6.27148 5.24719 6.27148 5.46191C6.27138 5.6765 6.18592 5.88244 6.03418 6.03418C5.88244 6.18592 5.6765 6.27138 5.46191 6.27148C5.24719 6.27148 5.0405 6.18601 4.88867 6.03418C4.737 5.88245 4.65244 5.67645 4.65234 5.46191C4.65234 5.24719 4.73684 5.0405 4.88867 4.88867C5.0405 4.73684 5.24719 4.65234 5.46191 4.65234Z" fill="white"/>
<path fill-rule="evenodd" clip-rule="evenodd" d="M8 4.65234C8.21458 4.65234 8.42046 4.73703 8.57227 4.88867C8.7241 5.0405 8.80957 5.24719 8.80957 5.46191C8.80947 5.6765 8.72401 5.88244 8.57227 6.03418C8.42045 6.18589 8.21463 6.27148 8 6.27148C7.78536 6.27148 7.57955 6.18589 7.42773 6.03418C7.27599 5.88244 7.19053 5.6765 7.19043 5.46191C7.19043 5.24719 7.2759 5.0405 7.42773 4.88867C7.57954 4.73703 7.78542 4.65234 8 4.65234Z" fill="white"/>
<path d="M10.5381 4.65234C10.7528 4.65234 10.9595 4.73684 11.1113 4.88867C11.2632 5.0405 11.3477 5.24719 11.3477 5.46191C11.3476 5.67645 11.263 5.88245 11.1113 6.03418C10.9595 6.18601 10.7528 6.27148 10.5381 6.27148C10.3235 6.27138 10.1176 6.18592 9.96582 6.03418C9.81408 5.88244 9.72861 5.6765 9.72852 5.46191C9.72852 5.24719 9.81399 5.0405 9.96582 4.88867C10.1176 4.737 10.3236 4.65244 10.5381 4.65234Z" fill="white"/>
<path fill-rule="evenodd" clip-rule="evenodd" d="M2.92285 4.86328C3.08147 4.86328 3.23354 4.9269 3.3457 5.03906C3.45782 5.15122 3.52148 5.30333 3.52148 5.46191C3.52139 5.6204 3.45778 5.77269 3.3457 5.88477C3.23357 5.99674 3.08133 6.05957 2.92285 6.05957C2.76435 6.05951 2.6121 5.99683 2.5 5.88477C2.38793 5.77269 2.32529 5.6204 2.3252 5.46191C2.3252 5.30344 2.38803 5.15119 2.5 5.03906C2.61211 4.92695 2.76431 4.86334 2.92285 4.86328Z" fill="white"/>
<path fill-rule="evenodd" clip-rule="evenodd" d="M13.0771 4.86328C13.2357 4.86334 13.3879 4.92695 13.5 5.03906C13.612 5.1512 13.6748 5.30344 13.6748 5.46191C13.6747 5.6204 13.6121 5.77269 13.5 5.88477C13.3879 5.99683 13.2357 6.05951 13.0771 6.05957C12.9187 6.05957 12.7664 5.99674 12.6543 5.88477C12.5422 5.77269 12.4786 5.6204 12.4785 5.46191C12.4785 5.30333 12.5422 5.15122 12.6543 5.03906C12.7665 4.9269 12.9185 4.86328 13.0771 4.86328Z" fill="white"/>
<path d="M2.92285 2.3252C3.08137 2.3252 3.23356 2.38798 3.3457 2.5C3.45781 2.61211 3.52142 2.76431 3.52148 2.92285C3.52148 3.08147 3.45786 3.23354 3.3457 3.3457C3.23354 3.45786 3.08147 3.52148 2.92285 3.52148C2.76431 3.52142 2.61211 3.45781 2.5 3.3457C2.38798 3.23356 2.3252 3.08137 2.3252 2.92285C2.32525 2.76431 2.38789 2.61211 2.5 2.5C2.61211 2.38789 2.76431 2.32525 2.92285 2.3252Z" fill="white"/>
<path fill-rule="evenodd" clip-rule="evenodd" d="M5.46191 2.3252C5.6204 2.32529 5.77269 2.38793 5.88477 2.5C5.99683 2.6121 6.05951 2.76435 6.05957 2.92285C6.05957 3.08133 5.99674 3.23357 5.88477 3.3457C5.77269 3.45778 5.6204 3.52139 5.46191 3.52148C5.30333 3.52148 5.15122 3.45782 5.03906 3.3457C4.9269 3.23354 4.86328 3.08147 4.86328 2.92285C4.86334 2.76431 4.92695 2.61211 5.03906 2.5C5.15119 2.38803 5.30344 2.3252 5.46191 2.3252Z" fill="white"/>
<path d="M8 2.3252C8.15857 2.3252 8.3107 2.38791 8.42285 2.5C8.53496 2.61211 8.5976 2.76431 8.59766 2.92285C8.59766 3.08142 8.53494 3.23355 8.42285 3.3457C8.31069 3.45786 8.15862 3.52148 8 3.52148C7.84138 3.52148 7.68931 3.45786 7.57715 3.3457C7.46506 3.23355 7.40234 3.08142 7.40234 2.92285C7.4024 2.76431 7.46504 2.61211 7.57715 2.5C7.6893 2.38791 7.84143 2.3252 8 2.3252Z" fill="white"/>
<path fill-rule="evenodd" clip-rule="evenodd" d="M10.5381 2.3252C10.6966 2.3252 10.8488 2.38803 10.9609 2.5C11.073 2.61211 11.1367 2.76431 11.1367 2.92285C11.1367 3.08147 11.0731 3.23354 10.9609 3.3457C10.8488 3.45782 10.6967 3.52148 10.5381 3.52148C10.3796 3.52138 10.2273 3.45778 10.1152 3.3457C10.0033 3.23357 9.94043 3.08133 9.94043 2.92285C9.94049 2.76435 10.0032 2.6121 10.1152 2.5C10.2273 2.38793 10.3796 2.32529 10.5381 2.3252Z" fill="white"/>
<path d="M13.0771 2.3252C13.2357 2.32525 13.3879 2.38789 13.5 2.5C13.6121 2.61211 13.6747 2.76431 13.6748 2.92285C13.6748 3.08136 13.612 3.23356 13.5 3.3457C13.3879 3.45781 13.2357 3.52142 13.0771 3.52148C12.9185 3.52148 12.7665 3.45786 12.6543 3.3457C12.5421 3.23354 12.4785 3.08147 12.4785 2.92285C12.4786 2.76431 12.5422 2.61211 12.6543 2.5C12.7664 2.38798 12.9186 2.3252 13.0771 2.3252Z" fill="white"/>
</svg>
