<svg width="16" height="16" viewBox="0 0 16 16" fill="none" xmlns="http://www.w3.org/2000/svg">
<path d="M1.7002 2.2998C1.97626 2.2998 2.20006 2.52377 2.2002 2.7998V13.2998C2.2002 13.5759 1.97634 13.7998 1.7002 13.7998C1.42405 13.7998 1.2002 13.5759 1.2002 13.2998V2.7998C1.20033 2.52377 1.42413 2.2998 1.7002 2.2998Z" fill="white"/>
<path d="M14.2998 2.2998C14.5759 2.2998 14.7997 2.52377 14.7998 2.7998V13.2998C14.7998 13.5759 14.5759 13.7998 14.2998 13.7998C14.0238 13.7997 13.7998 13.5759 13.7998 13.2998V2.7998C13.7999 2.52386 14.0239 2.29994 14.2998 2.2998Z" fill="white"/>
<path fill-rule="evenodd" clip-rule="evenodd" d="M12.2002 12.9004H10.8096L9.94727 10.4355H5.96875L5.11816 12.9004H3.7998L7.22754 3.09961H8.72461L12.2002 12.9004ZM6.43652 9.06445H9.46777L7.94629 4.68164L6.43652 9.06445Z" fill="white"/>
</svg>
