<svg width="16" height="16" viewBox="0 0 16 16" fill="none" xmlns="http://www.w3.org/2000/svg">
<path fill-rule="evenodd" clip-rule="evenodd" d="M7.97106 1.53655C8.1708 0.947183 8.80047 0.62751 9.39275 0.793958C10.6958 1.16015 11.4721 2.49218 11.1185 3.79649L10.4366 6.31167C10.405 6.42822 10.4926 6.56255 10.6427 6.56255H12.1086C14.116 6.56255 15.408 8.70201 14.4036 10.4498L12.6081 13.5745C11.8832 14.8359 10.4124 15.4806 8.98232 15.1748L4.82989 14.2869C4.50929 14.7524 3.94305 15.0286 3.33826 14.9542L2.62557 14.8666C1.81351 14.7668 1.20608 14.062 1.25249 13.2403L1.51481 8.59602C1.54977 7.977 1.95277 7.44284 2.53308 7.22879L3.21373 6.97773C3.84335 6.7455 4.49768 6.93817 4.90943 7.37261C5.03136 7.24231 5.14182 7.10119 5.23922 6.95064L6.9213 4.35072C7.05537 4.14348 7.16299 3.92104 7.24183 3.68838L7.97106 1.53655ZM5.32953 8.35369C5.33191 8.40272 5.33199 8.4523 5.32967 8.50233L5.10688 13.3235L9.19142 14.1969C10.2036 14.4133 11.2361 13.9549 11.741 13.0763L13.5366 9.95158C14.1436 8.89524 13.3759 7.56255 12.1086 7.56255H10.6427C9.85609 7.56255 9.26166 6.82361 9.4714 6.05L10.1533 3.53483C10.3599 2.77277 9.90975 1.97799 9.12221 1.75666C9.0304 1.73086 8.94341 1.783 8.91816 1.85752L8.18892 4.00934C8.08348 4.32048 7.9397 4.61755 7.7609 4.89392L6.07882 7.49384C5.87043 7.81594 5.61768 8.105 5.32953 8.35369ZM4.31093 8.28152C4.22668 7.98728 3.88805 7.79487 3.55979 7.91594L2.87914 8.167C2.66535 8.24586 2.5253 8.43854 2.51322 8.65242L2.2509 13.2967C2.23497 13.5787 2.44449 13.8368 2.7476 13.8741L3.46029 13.9617C3.74793 13.9971 4.00246 13.8193 4.0778 13.5715C4.09043 13.53 4.09831 13.4858 4.10047 13.4391L4.33074 8.45616C4.33366 8.39298 4.32616 8.33471 4.31093 8.28152Z" fill="white"/>
</svg>
