<svg width="16" height="16" viewBox="0 0 16 16" fill="none" xmlns="http://www.w3.org/2000/svg">
<path d="M11.8398 1.93976C12.0351 1.74479 12.3517 1.74459 12.5469 1.93976L14.4434 3.83722C14.5371 3.93099 14.5898 4.05813 14.5898 4.19073C14.5898 4.32329 14.5371 4.45051 14.4434 4.54425L12.4814 6.50616C12.2862 6.70138 11.9697 6.70141 11.7744 6.50616C11.5792 6.31091 11.5792 5.99438 11.7744 5.79913L12.8623 4.71124L9.63867 4.76593C8.77617 4.78044 8.08007 5.47573 8.06543 6.3382L8.0127 9.47003C7.98911 10.8717 6.85863 12.002 5.45703 12.0257L3.74023 12.054C3.56683 12.63 3.03289 13.0499 2.40039 13.0501C1.62719 13.0501 1 12.4229 1 11.6497C1.00015 10.8766 1.62728 10.2503 2.40039 10.2503C2.96042 10.2505 3.44228 10.5798 3.66602 11.055L5.44043 11.0257C6.30277 11.011 6.99812 10.3158 7.0127 9.45343L7.06543 6.32159C7.08902 4.92003 8.21958 3.78971 9.62109 3.76593L12.9033 3.71027L11.8398 2.64679C11.6446 2.45153 11.6446 2.13502 11.8398 1.93976Z" fill="white"/>
</svg>
