<svg width="16" height="16" viewBox="0 0 16 16" fill="none" xmlns="http://www.w3.org/2000/svg">
<path fill-rule="evenodd" clip-rule="evenodd" d="M12.5465 1.9399L14.4437 3.83702C14.5374 3.93079 14.5901 4.05797 14.5901 4.19057C14.5901 4.32318 14.5374 4.45036 14.4437 4.54413L12.4816 6.50619C12.2863 6.70145 11.9697 6.70145 11.7745 6.50619C11.5792 6.31093 11.5792 5.99435 11.7745 5.79908L12.8623 4.71131L9.63828 4.76556C8.7757 4.78008 8.07994 5.47584 8.06543 6.33841L8.01272 9.47012C7.98913 10.8718 6.85853 12.0024 5.45684 12.026L1.69828 12.0893C1.42217 12.0939 1.19458 11.8738 1.18993 11.5977C1.18529 11.3216 1.40535 11.094 1.68145 11.0894L5.44001 11.0261C6.30259 11.0116 6.99835 10.3159 7.01286 9.45329L7.06557 6.32159C7.08916 4.9199 8.21977 3.78929 9.62145 3.76571L12.9029 3.71048L11.8394 2.64701C11.6442 2.45175 11.6442 2.13517 11.8394 1.9399C12.0347 1.74464 12.3513 1.74464 12.5465 1.9399Z" fill="white"/>
<path d="M3.8 11.65C3.8 12.4232 3.1732 13.05 2.4 13.05C1.6268 13.05 1 12.4232 1 11.65C1 10.8768 1.6268 10.25 2.4 10.25C3.1732 10.25 3.8 10.8768 3.8 11.65Z" fill="white"/>
</svg>
