<svg width="16" height="16" viewBox="0 0 16 16" fill="none" xmlns="http://www.w3.org/2000/svg">
<path fill-rule="evenodd" clip-rule="evenodd" d="M3.10955 8.80454C2.0351 9.87899 2.0351 11.621 3.10955 12.6955C4.184 13.7699 5.92603 13.7699 7.00048 12.6955L7.50389 12.1921C7.5214 12.6089 7.59561 13.0111 7.71902 13.3911L7.70759 13.4026C6.24262 14.8675 3.86742 14.8675 2.40244 13.4026C0.937467 11.9376 0.937467 9.56241 2.40244 8.09743L3.85438 6.6455C4.04964 6.45024 4.36622 6.45024 4.56148 6.6455C4.75675 6.84076 4.75675 7.15734 4.56148 7.35261L3.10955 8.80454ZM13.3908 7.71908C14.8271 6.25193 14.8175 3.89824 13.3622 2.44287C11.8972 0.977895 9.52199 0.977896 8.05701 2.44287L6.60508 3.8948C6.40981 4.09006 6.40981 4.40665 6.60508 4.60191C6.80034 4.79717 7.11692 4.79717 7.31218 4.60191L8.76412 3.14998C9.83857 2.07553 11.5806 2.07553 12.6551 3.14998C13.7295 4.22443 13.7295 5.96646 12.6551 7.04091L12.1919 7.50403C12.6087 7.52153 13.0108 7.59572 13.3908 7.71908ZM4.77905 11.0263C4.58379 10.831 4.58379 10.5144 4.77905 10.3191L10.2805 4.81776C10.4757 4.62249 10.7923 4.62249 10.9876 4.81776C11.1828 5.01302 11.1828 5.3296 10.9876 5.52486L5.48616 11.0263C5.2909 11.2215 4.97432 11.2215 4.77905 11.0263Z" fill="white"/>
<path fill-rule="evenodd" clip-rule="evenodd" d="M11.9999 15.75C14.0709 15.75 15.7499 14.0711 15.7499 12C15.7499 9.92894 14.0709 8.25 11.9999 8.25C9.9288 8.25 8.24987 9.92894 8.24987 12C8.24987 14.0711 9.9288 15.75 11.9999 15.75ZM10.8006 10.3062C10.664 10.1695 10.4424 10.1695 10.3057 10.3062C10.169 10.4428 10.169 10.6645 10.3057 10.8011L11.5045 12L10.3057 13.1989C10.169 13.3356 10.169 13.5572 10.3057 13.6938C10.4424 13.8305 10.664 13.8305 10.8006 13.6938L11.9995 12.495L13.1984 13.6938C13.3351 13.8305 13.5567 13.8305 13.6934 13.6938C13.83 13.5572 13.83 13.3356 13.6934 13.1989L12.4945 12L13.6934 10.8011C13.83 10.6645 13.83 10.4428 13.6934 10.3062C13.5567 10.1695 13.3351 10.1695 13.1984 10.3062L11.9995 11.505L10.8006 10.3062Z" fill="white"/>
</svg>
