<svg width="16" height="16" viewBox="0 0 16 16" fill="none" xmlns="http://www.w3.org/2000/svg">
<path fill-rule="evenodd" clip-rule="evenodd" d="M8.5 1.6C8.5 1.26863 8.23137 1 7.9 1C7.56863 1 7.3 1.26863 7.3 1.6V2.60843C4.83849 2.88445 2.88445 4.83849 2.60843 7.3H1.6C1.26863 7.3 1 7.56863 1 7.9C1 8.23137 1.26863 8.5 1.6 8.5H2.60843C2.88445 10.9615 4.83849 12.9156 7.3 13.1916V14.2C7.3 14.5314 7.56863 14.8 7.9 14.8C8.23137 14.8 8.5 14.5314 8.5 14.2V13.1916C10.9615 12.9156 12.9156 10.9615 13.1916 8.5H14.2C14.5314 8.5 14.8 8.23137 14.8 7.9C14.8 7.56863 14.5314 7.3 14.2 7.3H13.1916C12.9156 4.83849 10.9615 2.88445 8.5 2.60843V1.6ZM3.775 7.9C3.775 5.62183 5.62183 3.775 7.9 3.775C10.1782 3.775 12.025 5.62183 12.025 7.9C12.025 10.1782 10.1782 12.025 7.9 12.025C5.62183 12.025 3.775 10.1782 3.775 7.9ZM7.9 10.7C9.4464 10.7 10.7 9.4464 10.7 7.9C10.7 6.3536 9.4464 5.1 7.9 5.1C6.3536 5.1 5.1 6.3536 5.1 7.9C5.1 9.4464 6.3536 10.7 7.9 10.7Z" fill="white"/>
</svg>
