<svg width="16" height="16" viewBox="0 0 16 16" fill="none" xmlns="http://www.w3.org/2000/svg">
<path fill-rule="evenodd" clip-rule="evenodd" d="M8.525 1.525C8.525 1.23505 8.28995 1 8 1C7.71005 1 7.475 1.23505 7.475 1.525V2.77592C4.99468 3.02218 3.02218 4.99468 2.77592 7.475H1.525C1.23505 7.475 1 7.71005 1 8C1 8.28995 1.23505 8.525 1.525 8.525H2.77592C3.02218 11.0053 4.99468 12.9778 7.475 13.2241V14.475C7.475 14.765 7.71005 15 8 15C8.28995 15 8.525 14.765 8.525 14.475V13.2241C11.0053 12.9778 12.9778 11.0053 13.2241 8.525H14.475C14.765 8.525 15 8.28995 15 8C15 7.71005 14.765 7.475 14.475 7.475H13.2241C12.9778 4.99468 11.0053 3.02218 8.525 2.77592V1.525ZM3.8 8C3.8 5.6804 5.6804 3.8 8 3.8C10.3196 3.8 12.2 5.6804 12.2 8C12.2 10.3196 10.3196 12.2 8 12.2C5.6804 12.2 3.8 10.3196 3.8 8ZM8 10.1C9.1598 10.1 10.1 9.1598 10.1 8C10.1 6.8402 9.1598 5.9 8 5.9C6.8402 5.9 5.9 6.8402 5.9 8C5.9 9.1598 6.8402 10.1 8 10.1Z" fill="white"/>
</svg>
