<svg width="16" height="16" viewBox="0 0 16 16" fill="none" xmlns="http://www.w3.org/2000/svg">
<path fill-rule="evenodd" clip-rule="evenodd" d="M5.74076 4.25782C5.74076 3.01086 6.75162 2 7.99858 2C9.24554 2 10.2564 3.01086 10.2564 4.25782V6.52005H5.74076V4.25782ZM11.2564 4.25782V6.52377C11.4403 6.5292 11.5958 6.54241 11.7387 6.5744C12.5887 6.76469 13.2525 7.4285 13.4428 8.27851C13.4974 8.52239 13.4973 8.80278 13.4971 9.19901L13.4971 11.7199C13.4971 12.1921 13.4971 12.5767 13.4716 12.8889C13.4453 13.2117 13.3892 13.5009 13.2519 13.7703C13.0362 14.1937 12.692 14.5379 12.2686 14.7536C11.9992 14.8909 11.71 14.947 11.3872 14.9733C11.075 14.9988 10.6904 14.9988 10.2182 14.9988H5.77894C5.3068 14.9988 4.92218 14.9988 4.60992 14.9733C4.28718 14.947 3.99796 14.8909 3.72855 14.7536C3.30518 14.5379 2.96098 14.1937 2.74526 13.7703C2.60799 13.5009 2.5519 13.2117 2.52553 12.8889C2.50002 12.5767 2.50002 12.1921 2.50003 11.7199L2.50001 9.19905C2.49987 8.8028 2.49978 8.5224 2.55438 8.27851C2.74467 7.4285 3.40848 6.76469 4.25849 6.5744C4.40139 6.54241 4.55683 6.5292 4.74076 6.52377V4.25782C4.74076 2.45858 6.19933 1 7.99858 1C9.79782 1 11.2564 2.45858 11.2564 4.25782ZM4.47695 7.55025C4.59822 7.5231 4.75766 7.52005 5.24076 7.52005H10.7564C11.2395 7.52005 11.3989 7.5231 11.5202 7.55025C11.9924 7.65596 12.3612 8.02475 12.4669 8.49697C12.4941 8.61825 12.4971 8.77769 12.4971 9.26078V11.6988C12.4971 12.1971 12.4967 12.5408 12.4749 12.8075C12.4536 13.0684 12.4144 13.2114 12.3609 13.3163C12.241 13.5515 12.0498 13.7427 11.8146 13.8626C11.7097 13.9161 11.5667 13.9553 11.3058 13.9767C11.0391 13.9984 10.6954 13.9988 10.1971 13.9988H5.80003C5.30173 13.9988 4.95808 13.9984 4.69135 13.9767C4.43045 13.9553 4.28748 13.9161 4.18254 13.8626C3.94734 13.7427 3.75611 13.5515 3.63627 13.3163C3.5828 13.2114 3.54353 13.0684 3.52221 12.8075C3.50042 12.5408 3.50003 12.1971 3.50003 11.6988V9.26078C3.50003 8.77769 3.50307 8.61825 3.53022 8.49697C3.63594 8.02475 4.00472 7.65596 4.47695 7.55025ZM7.99903 12.183C8.76058 12.183 9.37794 11.5453 9.37794 10.7585C9.37794 9.97177 8.76058 9.33398 7.99903 9.33398C7.23748 9.33398 6.62012 9.97177 6.62012 10.7585C6.62012 11.5453 7.23748 12.183 7.99903 12.183Z" fill="white"/>
</svg>
