<svg width="16" height="16" viewBox="0 0 16 16" fill="none" xmlns="http://www.w3.org/2000/svg">
<path fill-rule="evenodd" clip-rule="evenodd" d="M9.90323 4.0466C9.90323 2.91629 10.8195 2 11.9498 2C13.0801 2 13.9964 2.91629 13.9964 4.0466V7.55268C13.9964 7.82882 14.2203 8.05268 14.4964 8.05268C14.7726 8.05268 14.9964 7.82882 14.9964 7.55268V4.0466C14.9964 2.36401 13.6324 1 11.9498 1C10.2672 1 8.90323 2.36401 8.90323 4.0466V6.51862H4.27894C3.80678 6.51861 3.42216 6.51861 3.10989 6.54412C2.78715 6.57049 2.49793 6.62659 2.22852 6.76385C1.80516 6.97957 1.46095 7.32378 1.24524 7.74714C1.10797 8.01655 1.05187 8.30577 1.0255 8.62851C0.99999 8.94077 0.999995 9.32539 1 9.79754V11.7165C0.999995 12.1887 0.99999 12.5733 1.0255 12.8856C1.05187 13.2083 1.10797 13.4975 1.24524 13.7669C1.46095 14.1903 1.80516 14.5345 2.22852 14.7502C2.49793 14.8875 2.78715 14.9436 3.10989 14.97C3.42215 14.9955 3.80677 14.9955 4.27891 14.9955H8.90747C9.37961 14.9955 9.76423 14.9955 10.0765 14.97C10.3992 14.9436 10.6885 14.8875 10.9579 14.7502C11.3812 14.5345 11.7254 14.1903 11.9411 13.7669C12.0784 13.4975 12.1345 13.2083 12.1609 12.8856C12.1864 12.5733 12.1864 12.1887 12.1864 11.7165L12.1864 9.23471C12.1866 8.80415 12.1867 8.49935 12.1223 8.23536C11.9232 7.41914 11.2859 6.78184 10.4696 6.58272C10.3039 6.5423 10.1221 6.52729 9.90323 6.52176V4.0466ZM9.40323 7.51862C9.92825 7.51862 10.1014 7.52221 10.2326 7.55423C10.6861 7.66486 11.0401 8.01891 11.1508 8.47237C11.1828 8.60363 11.1864 8.77675 11.1864 9.30177V11.6955C11.1864 12.1938 11.186 12.5374 11.1642 12.8041C11.1429 13.065 11.1036 13.208 11.0501 13.3129C10.9303 13.5481 10.7391 13.7394 10.5039 13.8592C10.3989 13.9127 10.256 13.952 9.99506 13.9733C9.72833 13.9951 9.38468 13.9955 8.88638 13.9955H4.3C3.8017 13.9955 3.45805 13.9951 3.19132 13.9733C2.93042 13.952 2.78745 13.9127 2.68251 13.8592C2.44731 13.7394 2.25608 13.5481 2.13624 13.3129C2.08277 13.208 2.0435 13.065 2.02218 12.8041C2.00039 12.5374 2 12.1938 2 11.6955V9.81862C2 9.32032 2.00039 8.97667 2.02218 8.70994C2.0435 8.44904 2.08277 8.30607 2.13624 8.20113C2.25608 7.96593 2.44731 7.7747 2.68251 7.65486C2.78745 7.60139 2.93042 7.56212 3.19132 7.5408C3.45805 7.51901 3.8017 7.51862 4.3 7.51862H9.40323ZM6.59299 12.1804C7.36896 12.1804 7.99801 11.5427 7.99801 10.7562C7.99801 9.96965 7.36896 9.33203 6.59299 9.33203C5.81702 9.33203 5.18798 9.96965 5.18798 10.7562C5.18798 11.5427 5.81702 12.1804 6.59299 12.1804Z" fill="white"/>
</svg>
