<svg width="16" height="16" viewBox="0 0 16 16" fill="none" xmlns="http://www.w3.org/2000/svg">
<path fill-rule="evenodd" clip-rule="evenodd" d="M5.7091 1.75L7.61017 1.75C8.57667 1.75 9.36018 2.5335 9.36018 3.5C9.36018 3.77614 9.13632 4 8.86018 4C8.58403 4 8.36018 3.77614 8.36018 3.5C8.36018 3.08579 8.02439 2.75 7.61017 2.75H5.73018C5.23188 2.75 4.88823 2.75039 4.6215 2.77218C4.3606 2.7935 4.21763 2.83277 4.11269 2.88624C3.87749 3.00608 3.68626 3.19731 3.56642 3.43251C3.51295 3.53745 3.47367 3.68042 3.45236 3.94132C3.43056 4.20805 3.43018 4.5517 3.43018 5.05V10.953C3.43018 11.4513 3.43056 11.795 3.45236 12.0617C3.47367 12.3226 3.51295 12.4656 3.56642 12.5705C3.68626 12.8057 3.87749 12.997 4.11269 13.1168C4.21763 13.1703 4.3606 13.2096 4.6215 13.2309C4.88823 13.2527 5.23188 13.2531 5.73018 13.2531H7.60712C8.02302 13.2531 8.36018 12.9159 8.36018 12.5C8.36018 12.2239 8.58403 12 8.86018 12C9.13632 12 9.36018 12.2239 9.36018 12.5C9.36018 13.4682 8.57531 14.2531 7.60712 14.2531H5.70909C5.23695 14.2531 4.85233 14.2531 4.54006 14.2275C4.21733 14.2012 3.9281 14.1451 3.6587 14.0078C3.23533 13.7921 2.89113 13.4479 2.67541 13.0245C2.53814 12.7551 2.48205 12.4659 2.45568 12.1432C2.43017 11.8309 2.43017 11.4463 2.43018 10.9741V5.02893C2.43017 4.55678 2.43017 4.17215 2.45568 3.85989C2.48205 3.53715 2.53814 3.24793 2.67541 2.97852C2.89113 2.55516 3.23533 2.21095 3.6587 1.99524C3.9281 1.85797 4.21733 1.80187 4.54006 1.7755C4.85233 1.74999 5.23695 1.74999 5.7091 1.75Z" fill="white"/>
<path fill-rule="evenodd" clip-rule="evenodd" d="M13.5002 8.00247C13.5002 7.86944 13.4472 7.7419 13.3529 7.64807L11.2352 5.54054C11.0395 5.34575 10.7229 5.34651 10.5281 5.54224C10.3333 5.73796 10.3341 6.05455 10.5298 6.24934L11.789 7.50247H7.00018C6.72403 7.50247 6.50018 7.72633 6.50018 8.00247C6.50018 8.27861 6.72403 8.50247 7.00018 8.50247H11.789L10.5298 9.7556C10.3341 9.95039 10.3333 10.267 10.5281 10.4627C10.7229 10.6584 11.0395 10.6592 11.2352 10.4644L13.3529 8.35687C13.4472 8.26303 13.5002 8.13549 13.5002 8.00247Z" fill="white"/>
</svg>
