<svg width="16" height="16" viewBox="0 0 16 16" fill="none" xmlns="http://www.w3.org/2000/svg">
<path d="M5.5375 5.97176C5.73297 5.7767 6.04955 5.77704 6.24461 5.9725L8.00088 7.7325C8.19564 7.92767 8.19564 8.24368 8.00088 8.43886L6.24461 10.1988C6.04955 10.3943 5.73297 10.3947 5.5375 10.1996C5.34203 10.0045 5.3417 9.68796 5.53675 9.49249L6.94059 8.08568L5.53675 6.67886C5.3417 6.48339 5.34203 6.16681 5.5375 5.97176Z" fill="white"/>
<path d="M8.34756 5.97176C8.54303 5.7767 8.85961 5.77704 9.05467 5.9725L10.8109 7.7325C11.0057 7.92767 11.0057 8.24368 10.8109 8.43886L9.05467 10.1988C8.85961 10.3943 8.54303 10.3947 8.34756 10.1996C8.15209 10.0045 8.15176 9.68796 8.34681 9.49249L9.75065 8.08568L8.34681 6.67886C8.15176 6.48339 8.15209 6.16681 8.34756 5.97176Z" fill="white"/>
<path fill-rule="evenodd" clip-rule="evenodd" d="M5.74194 3.50999C5.74194 3.51942 5.7422 3.52879 5.74272 3.53809H2.20251C1.92636 3.53809 1.70251 3.76194 1.70251 4.03809C1.70251 4.31423 1.92636 4.53809 2.20251 4.53809H3.10752L3.10752 9.35513C3.10752 9.82727 3.10751 10.2119 3.13303 10.5242C3.1594 10.8469 3.21549 11.1361 3.35276 11.4055C3.56847 11.8289 3.91268 12.1731 4.33605 12.3888C4.60545 12.5261 4.89467 12.5822 5.21741 12.6086C5.52968 12.6341 5.91429 12.6341 6.38644 12.6341H9.60997C10.0821 12.6341 10.4667 12.6341 10.779 12.6086C11.1017 12.5822 11.391 12.5261 11.6604 12.3888C12.0837 12.1731 12.4279 11.8289 12.6437 11.4055C12.7809 11.1361 12.837 10.8469 12.8634 10.5242C12.8889 10.2119 12.8889 9.82729 12.8889 9.35515V4.53809H13.7939C14.07 4.53809 14.2939 4.31423 14.2939 4.03809C14.2939 3.76194 14.07 3.53809 13.7939 3.53809H10.2537C10.2542 3.52879 10.2545 3.51942 10.2545 3.50999C10.2545 2.26283 9.24532 1.25 7.99821 1.25C6.75111 1.25 5.74194 2.26283 5.74194 3.50999ZM7.99821 2.25C7.30539 2.25 6.74194 2.81312 6.74194 3.50999C6.74194 3.51942 6.74168 3.52879 6.74117 3.53809H9.25526C9.25475 3.52879 9.25449 3.51942 9.25449 3.50999C9.25449 2.81312 8.69104 2.25 7.99821 2.25ZM4.10752 9.33406V4.53809H11.8889V9.33406C11.8889 9.83235 11.8885 10.176 11.8667 10.4427C11.8454 10.7036 11.8061 10.8466 11.7526 10.9515C11.6328 11.1867 11.4416 11.378 11.2064 11.4978C11.1014 11.5513 10.9585 11.5906 10.6976 11.6119C10.4308 11.6337 10.0872 11.6341 9.58889 11.6341H6.40753C5.90923 11.6341 5.56558 11.6337 5.29884 11.6119C5.03795 11.5906 4.89497 11.5513 4.79004 11.4978C4.55483 11.378 4.36361 11.1867 4.24377 10.9515C4.1903 10.8466 4.15102 10.7036 4.12971 10.4427C4.10791 10.176 4.10752 9.83235 4.10752 9.33406Z" fill="white"/>
<path d="M14.9964 10.3745C14.9964 10.0984 14.7726 9.87451 14.4964 9.87451C14.2203 9.87451 13.9964 10.0984 13.9964 10.3745L13.9964 10.4115C13.9881 12.2499 12.4999 13.7382 10.6614 13.7465H5.33497C3.49656 13.7382 2.00828 12.2499 2.00003 10.4115L2 10.3745H1L1.00004 10.416C1.01075 12.8032 2.9433 14.7357 5.33049 14.7465L5.37198 14.7465H10.6244L10.6659 14.7465C13.0531 14.7357 14.9857 12.8032 14.9964 10.416L14.9964 10.3745Z" fill="white"/>
</svg>
