<svg width="16" height="16" viewBox="0 0 16 16" fill="none" xmlns="http://www.w3.org/2000/svg">
<path fill-rule="evenodd" clip-rule="evenodd" d="M7.68753 2.28045C7.89266 2.23985 8.10376 2.23985 8.3089 2.28045C8.52351 2.32294 8.7365 2.43045 9.34054 2.75151L12.4787 4.41953C13.158 4.78059 13.3921 4.91208 13.5588 5.08829C13.7181 5.25668 13.8388 5.45767 13.9128 5.67734C13.9902 5.90721 13.9964 6.17567 13.9964 6.94495V10.8914C13.9964 11.4877 13.996 11.9049 13.9694 12.2299C13.9433 12.5492 13.8945 12.7354 13.822 12.8778C13.6686 13.1788 13.4238 13.4236 13.1228 13.577C12.9804 13.6495 12.7942 13.6984 12.4749 13.7244C12.1498 13.751 11.7327 13.7514 11.1364 13.7514H4.86004C4.26373 13.7514 3.84658 13.751 3.52148 13.7244C3.20222 13.6984 3.01603 13.6495 2.87366 13.577C2.5726 13.4236 2.32783 13.1788 2.17443 12.8778C2.10189 12.7354 2.05308 12.5492 2.02699 12.2299C2.00043 11.9049 2.00004 11.4877 2.00004 10.8914V6.94495C2.00004 6.17567 2.00626 5.90721 2.08363 5.67734C2.15757 5.45767 2.27836 5.25668 2.43763 5.08829C2.6043 4.91208 2.83842 4.78059 3.51771 4.41953L6.65588 2.75151C7.25992 2.43045 7.47291 2.32294 7.68753 2.28045ZM8.50307 1.29949C8.16973 1.2335 7.82669 1.2335 7.49335 1.29949C7.11568 1.37425 6.76548 1.56053 6.25235 1.8335L2.97383 3.57611C2.39761 3.88211 2.00465 4.09079 1.71113 4.40113C1.45231 4.67476 1.25603 5.00137 1.13588 5.35834C0.999616 5.76318 0.99978 6.20811 1.00002 6.86054L1.00004 10.9129C1.00004 11.4827 1.00003 11.9408 1.03031 12.3114C1.06145 12.6925 1.12708 13.0249 1.28342 13.3318C1.53269 13.821 1.93044 14.2187 2.41966 14.468C2.72651 14.6243 3.05895 14.69 3.44005 14.7211C3.81066 14.7514 4.26871 14.7514 4.83851 14.7514H11.1579C11.7277 14.7514 12.1858 14.7514 12.5564 14.7211C12.9375 14.69 13.2699 14.6243 13.5768 14.468C14.066 14.2187 14.4637 13.821 14.713 13.3318C14.8693 13.0249 14.935 12.6925 14.9661 12.3114C14.9964 11.9408 14.9964 11.4827 14.9964 10.9129L14.9964 6.86055C14.9966 6.20813 14.9968 5.76318 14.8605 5.35834C14.7404 5.00137 14.5441 4.67476 14.2853 4.40113C13.9918 4.09079 13.5988 3.88211 13.0226 3.57611L9.74408 1.8335C9.23094 1.56053 8.88075 1.37425 8.50307 1.29949ZM3.69245 6.39764C3.4562 6.25468 3.14878 6.33031 3.00582 6.56656C2.86285 6.80282 2.93848 7.11024 3.17474 7.2532L6.65382 9.35847C7.48133 9.85921 8.51842 9.85921 9.34593 9.35847L12.825 7.2532C13.0613 7.11024 13.1369 6.80282 12.9939 6.56656C12.851 6.33031 12.5436 6.25468 12.3073 6.39764L8.82822 8.50291C8.31898 8.81107 7.68077 8.81107 7.17153 8.50291L3.69245 6.39764Z" fill="white"/>
</svg>
