<svg width="16" height="16" viewBox="0 0 16 16" fill="none" xmlns="http://www.w3.org/2000/svg">
<path fill-rule="evenodd" clip-rule="evenodd" d="M4.86253 2.5H11.1375C11.7065 2.5 12.1654 2.49999 12.537 2.52981C12.9197 2.56052 13.2558 2.62539 13.5667 2.781C14.0606 3.02817 14.4622 3.42258 14.7139 3.90768C14.8723 4.21308 14.9384 4.54318 14.9696 4.91899C15 5.28398 15 5.73469 15 6.29349V8.64584C14.2039 7.93328 13.1525 7.5 12 7.5C9.51472 7.5 7.5 9.51472 7.5 12C7.5 12.526 7.59023 13.0308 7.75606 13.5H4.86251C4.29356 13.5 3.8346 13.5 3.46297 13.4702C3.08033 13.4395 2.74423 13.3746 2.43328 13.219C1.93935 12.9718 1.53778 12.5774 1.28611 12.0923C1.12767 11.7869 1.06162 11.4568 1.03035 11.081C0.999991 10.716 0.999995 10.2653 1 9.70646V6.29355C0.999995 5.73473 0.999991 5.28399 1.03035 4.91899C1.06162 4.54318 1.12767 4.21308 1.28611 3.90768C1.53778 3.42258 1.93935 3.02817 2.43328 2.781C2.74423 2.62539 3.08033 2.56052 3.46297 2.52981C3.83461 2.49999 4.29354 2.5 4.86253 2.5ZM3.0213 5.33512C3.16414 5.09879 3.47152 5.023 3.70785 5.16584L7.1716 7.25931C7.68048 7.56688 8.31795 7.56688 8.82683 7.25931L12.2906 5.16584C12.5269 5.023 12.8343 5.09879 12.9771 5.33512C13.12 5.57145 13.0442 5.87883 12.8078 6.02166L9.34409 8.11514C8.51716 8.61494 7.48128 8.61494 6.65435 8.11514L3.19059 6.02166C2.95426 5.87883 2.87847 5.57145 3.0213 5.33512Z" fill="white"/>
<path fill-rule="evenodd" clip-rule="evenodd" d="M12 15.75C14.0711 15.75 15.75 14.0711 15.75 12C15.75 9.92893 14.0711 8.25 12 8.25C9.92893 8.25 8.25 9.92893 8.25 12C8.25 14.0711 9.92893 15.75 12 15.75ZM14.3698 11.3223C14.4664 11.1548 14.4091 10.9408 14.2417 10.8441C14.0743 10.7475 13.8602 10.8048 13.7636 10.9723C13.6227 11.2162 13.4333 11.4275 13.2078 11.5936C13.1472 11.6383 13.0839 11.6797 13.0182 11.7176C12.7086 11.8963 12.3575 11.9904 12 11.9904C11.6426 11.9904 11.2914 11.8963 10.9818 11.7176C10.9162 11.6797 10.8529 11.6383 10.7922 11.5936C10.5668 11.4275 10.3773 11.2162 10.2365 10.9723C10.1398 10.8048 9.92578 10.7475 9.75838 10.8441C9.59098 10.9408 9.53362 11.1549 9.63027 11.3223C9.75165 11.5325 9.89992 11.7247 10.0706 11.8944L9.53118 12.4339C9.3945 12.5705 9.3945 12.7921 9.53118 12.9288C9.66787 13.0655 9.88947 13.0655 10.0262 12.9288L10.6314 12.3236C10.9457 12.505 11.2924 12.6218 11.65 12.668V13.3632C11.65 13.5565 11.8067 13.7132 12 13.7132C12.1933 13.7132 12.35 13.5565 12.35 13.3632V12.668C12.7077 12.6218 13.0539 12.5053 13.3682 12.3238L13.9739 12.9288C14.1106 13.0655 14.3322 13.0655 14.4689 12.9288C14.6056 12.7921 14.6056 12.5705 14.4689 12.4339L13.9295 11.8944C14.1001 11.7247 14.2484 11.5325 14.3698 11.3223Z" fill="white"/>
</svg>
