<svg width="16" height="16" viewBox="0 0 16 16" fill="none" xmlns="http://www.w3.org/2000/svg">
<path fill-rule="evenodd" clip-rule="evenodd" d="M4.86253 2.5H11.1375C11.7065 2.5 12.1654 2.49999 12.537 2.52981C12.9197 2.56052 13.2558 2.62539 13.5667 2.781C14.0606 3.02817 14.4622 3.42258 14.7139 3.90768C14.8723 4.21308 14.9384 4.54318 14.9696 4.91899C15 5.28398 15 5.73469 15 6.29349V8.64584C14.2039 7.93328 13.1525 7.5 12 7.5C9.51472 7.5 7.5 9.51472 7.5 12C7.5 12.526 7.59023 13.0308 7.75606 13.5H4.86251C4.29356 13.5 3.8346 13.5 3.46297 13.4702C3.08033 13.4395 2.74423 13.3746 2.43328 13.219C1.93935 12.9718 1.53778 12.5774 1.28611 12.0923C1.12767 11.7869 1.06162 11.4568 1.03035 11.081C0.999991 10.716 0.999995 10.2653 1 9.70646V6.29355C0.999995 5.73473 0.999991 5.28399 1.03035 4.91899C1.06162 4.54318 1.12767 4.21308 1.28611 3.90768C1.53778 3.42258 1.93935 3.02817 2.43328 2.781C2.74423 2.62539 3.08033 2.56052 3.46297 2.52981C3.83461 2.49999 4.29354 2.5 4.86253 2.5ZM3.0213 5.33512C3.16414 5.09879 3.47152 5.023 3.70785 5.16584L7.1716 7.25931C7.68048 7.56688 8.31795 7.56688 8.82683 7.25931L12.2906 5.16584C12.5269 5.023 12.8343 5.09879 12.9771 5.33512C13.12 5.57145 13.0442 5.87883 12.8078 6.02166L9.34409 8.11514C8.51716 8.61494 7.48128 8.61494 6.65435 8.11514L3.19059 6.02166C2.95426 5.87883 2.87847 5.57145 3.0213 5.33512Z" fill="white"/>
<path fill-rule="evenodd" clip-rule="evenodd" d="M12 15.75C14.0711 15.75 15.75 14.0711 15.75 12C15.75 9.92893 14.0711 8.25 12 8.25C9.92893 8.25 8.25 9.92893 8.25 12C8.25 14.0711 9.92893 15.75 12 15.75ZM12.35 9.95508C12.35 9.76178 12.1933 9.60508 12 9.60508C11.8067 9.60508 11.65 9.76178 11.65 9.95508V11.6505H9.95459C9.76129 11.6505 9.60459 11.8072 9.60459 12.0005C9.60459 12.1938 9.76129 12.3505 9.95459 12.3505H11.65V14.046C11.65 14.2393 11.8067 14.396 12 14.396C12.1933 14.396 12.35 14.2393 12.35 14.046V12.3505H14.0455C14.2388 12.3505 14.3955 12.1938 14.3955 12.0005C14.3955 11.8072 14.2388 11.6505 14.0455 11.6505H12.35V9.95508Z" fill="white"/>
</svg>
