<svg width="16" height="16" viewBox="0 0 16 16" fill="none" xmlns="http://www.w3.org/2000/svg">
<path fill-rule="evenodd" clip-rule="evenodd" d="M4.83849 2.5C4.26868 2.5 3.81062 2.49999 3.44001 2.53027C3.05891 2.56141 2.72647 2.62704 2.41962 2.78338C1.9304 3.03265 1.53265 3.4304 1.28338 3.91963C1.12704 4.22647 1.06141 4.55891 1.03027 4.94001C0.999992 5.31062 0.999995 5.76868 1 6.33849V9.66274C0.999995 10.2325 0.999992 10.6906 1.03027 11.0612C1.06141 11.4423 1.12704 11.7748 1.28338 12.0816C1.53265 12.5708 1.9304 12.9686 2.41962 13.2178C2.72647 13.3742 3.05891 13.4398 3.44001 13.471C3.81061 13.5012 4.26867 13.5012 4.83847 13.5012H11.1579C11.7277 13.5012 12.1858 13.5012 12.5564 13.471C12.9375 13.4398 13.2699 13.3742 13.5768 13.2178C14.066 12.9686 14.4638 12.5708 14.713 12.0816C14.8694 11.7748 14.935 11.4423 14.9661 11.0612C14.9964 10.6906 14.9964 10.2325 14.9964 9.66275V6.33847C14.9964 5.76867 14.9964 5.31062 14.9661 4.94001C14.935 4.55891 14.8694 4.22647 14.713 3.91963C14.4638 3.4304 14.066 3.03265 13.5768 2.78338C13.2699 2.62704 12.9375 2.56141 12.5564 2.53027C12.1858 2.49999 11.7277 2.5 11.1579 2.5H4.83849ZM2.87362 3.67439C3.01599 3.60185 3.20218 3.55304 3.52144 3.52695C3.84654 3.50039 4.26369 3.5 4.86 3.5H11.1364C11.7327 3.5 12.1499 3.50039 12.475 3.52695C12.7942 3.55304 12.9804 3.60185 13.1228 3.67439C13.4239 3.82779 13.6686 4.07256 13.822 4.37362C13.8946 4.51599 13.9434 4.70218 13.9695 5.02144C13.996 5.34654 13.9964 5.7637 13.9964 6.36V9.64122C13.9964 10.2375 13.996 10.6547 13.9695 10.9798C13.9434 11.299 13.8946 11.4852 13.822 11.6276C13.6686 11.9287 13.4239 12.1734 13.1228 12.3268C12.9804 12.3994 12.7942 12.4482 12.475 12.4743C12.1499 12.5008 11.7327 12.5012 11.1364 12.5012H4.86C4.26369 12.5012 3.84653 12.5008 3.52144 12.4743C3.20218 12.4482 3.01599 12.3994 2.87362 12.3268C2.57256 12.1734 2.32779 11.9287 2.17439 11.6276C2.10185 11.4852 2.05303 11.299 2.02695 10.9798C2.00039 10.6547 2 10.2375 2 9.64122V6.36C2 5.7637 2.00039 5.34654 2.02695 5.02144C2.05303 4.70218 2.10185 4.51599 2.17439 4.37362C2.32779 4.07256 2.57256 3.82779 2.87362 3.67439ZM3.69216 5.15873C3.45581 5.01593 3.14845 5.09176 3.00564 5.32811C2.86284 5.56446 2.93868 5.87183 3.17503 6.01463L6.65535 8.11744C7.48212 8.61697 8.51768 8.61697 9.34445 8.11744L12.8248 6.01463C13.0611 5.87183 13.137 5.56446 12.9942 5.32811C12.8514 5.09176 12.544 5.01593 12.3076 5.15873L8.82732 7.26154C8.31854 7.56894 7.68127 7.56894 7.17248 7.26154L3.69216 5.15873Z" fill="white"/>
</svg>
