<svg width="16" height="16" viewBox="0 0 16 16" fill="none" xmlns="http://www.w3.org/2000/svg">
<path fill-rule="evenodd" clip-rule="evenodd" d="M4.86253 2.5H11.1375C11.7065 2.5 12.1654 2.49999 12.537 2.52981C12.9197 2.56052 13.2558 2.62539 13.5667 2.781C14.0606 3.02817 14.4622 3.42258 14.7139 3.90768C14.8723 4.21308 14.9384 4.54318 14.9696 4.91899C15 5.28398 15 5.73469 15 6.29349V8.64584C14.2039 7.93328 13.1525 7.5 12 7.5C9.51472 7.5 7.5 9.51472 7.5 12C7.5 12.526 7.59023 13.0308 7.75606 13.5H4.86251C4.29356 13.5 3.8346 13.5 3.46297 13.4702C3.08033 13.4395 2.74423 13.3746 2.43328 13.219C1.93935 12.9718 1.53778 12.5774 1.28611 12.0923C1.12767 11.7869 1.06162 11.4568 1.03035 11.081C0.999991 10.716 0.999995 10.2653 1 9.70646V6.29355C0.999995 5.73473 0.999991 5.28399 1.03035 4.91899C1.06162 4.54318 1.12767 4.21308 1.28611 3.90768C1.53778 3.42258 1.93935 3.02817 2.43328 2.781C2.74423 2.62539 3.08033 2.56052 3.46297 2.52981C3.83461 2.49999 4.29354 2.5 4.86253 2.5ZM3.0213 5.33512C3.16414 5.09879 3.47152 5.023 3.70785 5.16584L7.1716 7.25931C7.68048 7.56688 8.31795 7.56688 8.82683 7.25931L12.2906 5.16584C12.5269 5.023 12.8343 5.09879 12.9771 5.33512C13.12 5.57145 13.0442 5.87883 12.8078 6.02166L9.34409 8.11514C8.51716 8.61494 7.48128 8.61494 6.65435 8.11514L3.19059 6.02166C2.95426 5.87883 2.87847 5.57145 3.0213 5.33512Z" fill="white"/>
<path fill-rule="evenodd" clip-rule="evenodd" d="M12 15.75C14.0711 15.75 15.75 14.0711 15.75 12C15.75 9.92893 14.0711 8.25 12 8.25C9.92893 8.25 8.25 9.92893 8.25 12C8.25 14.0711 9.92893 15.75 12 15.75ZM13.0821 10.8867C13.2888 10.8937 13.5172 10.8326 13.7975 10.5522C13.9342 10.4156 14.1558 10.4156 14.2925 10.5522C14.4292 10.6889 14.4292 10.9105 14.2925 11.0472C13.891 11.4487 13.4803 11.6006 13.0584 11.5863C12.6916 11.5739 12.3404 11.4328 12.0478 11.3153L11.9974 11.2951C11.6718 11.1649 11.3964 11.0622 11.1102 11.0537C10.8435 11.0457 10.5399 11.1203 10.1728 11.4139C10.0218 11.5347 9.80157 11.5102 9.68082 11.3593C9.56006 11.2083 9.58453 10.9881 9.73548 10.8673C10.2207 10.4792 10.684 10.3407 11.1311 10.354C11.5587 10.3668 11.9438 10.5198 12.2574 10.6452C12.5944 10.78 12.8417 10.8786 13.0821 10.8867ZM13.0821 12.9316C13.2887 12.9386 13.5172 12.8775 13.7975 12.5972C13.9342 12.4605 14.1558 12.4605 14.2925 12.5972C14.4292 12.7338 14.4292 12.9554 14.2925 13.0921C13.891 13.4936 13.4803 13.6455 13.0584 13.6312C12.6915 13.6188 12.3404 13.4778 12.0478 13.3603L11.9974 13.3401C11.6718 13.2098 11.3964 13.1071 11.1102 13.0986C10.8435 13.0906 10.5398 13.1652 10.1727 13.4589C10.0218 13.5796 9.80155 13.5551 9.6808 13.4042C9.56004 13.2533 9.58452 13.033 9.73546 12.9122C10.2206 12.5241 10.684 12.3856 11.1311 12.3989C11.5587 12.4117 11.9438 12.5647 12.2574 12.6901C12.5944 12.8249 12.8416 12.9235 13.0821 12.9316Z" fill="white"/>
</svg>
