<svg width="16" height="16" viewBox="0 0 16 16" fill="none" xmlns="http://www.w3.org/2000/svg">
<path fill-rule="evenodd" clip-rule="evenodd" d="M11.1375 2.5H4.86253C4.29355 2.5 3.83461 2.49999 3.46297 2.52981C3.08033 2.56052 2.74423 2.62539 2.43328 2.781C1.93935 3.02817 1.53778 3.42258 1.28611 3.90768C1.12767 4.21308 1.06162 4.54318 1.03035 4.91899C0.999991 5.28399 0.999995 5.73472 1 6.29355V8.875H5.19379C5.62569 8.875 5.97951 9.10691 6.20423 9.38162C6.31827 9.52102 6.44967 9.64762 6.59635 9.75817C6.99802 10.0609 7.49138 10.2257 7.99995 10.2257C8.50853 10.2257 9.00189 10.0609 9.40356 9.75816C9.55024 9.64762 9.68163 9.52102 9.79567 9.38162C10.0204 9.10691 10.3742 8.875 10.8061 8.875H15V6.29354C15 5.73474 15 5.28398 14.9696 4.91899C14.9384 4.54318 14.8723 4.21308 14.7139 3.90768C14.4622 3.42258 14.0606 3.02817 13.5667 2.781C13.2558 2.62539 12.9197 2.56052 12.537 2.52981C12.1654 2.49999 11.7065 2.5 11.1375 2.5ZM15 9.875H10.8061C10.7469 9.875 10.6559 9.9094 10.5697 10.0148C10.4051 10.2159 10.216 10.3981 10.0054 10.5568C9.42907 10.9911 8.72413 11.2257 7.99995 11.2257C7.27577 11.2257 6.57083 10.9911 5.9945 10.5568C5.78392 10.3981 5.59476 10.2159 5.43024 10.0148C5.344 9.9094 5.25299 9.875 5.19379 9.875H1.00003C1.00031 10.3568 1.0031 10.7534 1.03035 11.081C1.06162 11.4568 1.12767 11.7869 1.28611 12.0923C1.53778 12.5774 1.93935 12.9718 2.43328 13.219C2.74423 13.3746 3.08033 13.4395 3.46297 13.4702C3.83461 13.5 4.29353 13.5 4.86251 13.5H11.1375C11.7065 13.5 12.1654 13.5 12.537 13.4702C12.9197 13.4395 13.2558 13.3746 13.5667 13.219C14.0606 12.9718 14.4622 12.5774 14.7139 12.0923C14.8723 11.7869 14.9384 11.4568 14.9696 11.081C14.9969 10.7534 14.9997 10.3568 15 9.875ZM3.125 7.14062C3.125 6.86448 3.34886 6.64062 3.625 6.64062H12.375C12.6511 6.64062 12.875 6.86448 12.875 7.14062C12.875 7.41677 12.6511 7.64062 12.375 7.64062H3.625C3.34886 7.64062 3.125 7.41677 3.125 7.14062ZM3.625 4.57813C3.34886 4.57813 3.125 4.80198 3.125 5.07813C3.125 5.35427 3.34886 5.57813 3.625 5.57813H12.375C12.6511 5.57813 12.875 5.35427 12.875 5.07813C12.875 4.80198 12.6511 4.57813 12.375 4.57813H3.625Z" fill="white"/>
</svg>
