<svg width="16" height="16" viewBox="0 0 16 16" fill="none" xmlns="http://www.w3.org/2000/svg">
<path fill-rule="evenodd" clip-rule="evenodd" d="M15 3.01563C15 2.8577 14.9263 2.70849 14.8 2.61071C14.6738 2.51294 14.5088 2.47739 14.3525 2.51424L10.3777 3.45115C10.2144 3.48966 10.1821 3.496 10.153 3.49862C10.1195 3.50163 10.0857 3.50148 10.0523 3.49815C10.0232 3.49526 9.99101 3.48862 9.82803 3.44861L6.40155 2.60727C6.27727 2.57669 6.16758 2.54969 6.05343 2.53835C5.95295 2.52836 5.85173 2.52789 5.75116 2.53695C5.63691 2.54723 5.52696 2.57321 5.40239 2.60265L1.40248 3.54549C1.16643 3.60113 1 3.80846 1 4.04688V12.9844C1 13.1423 1.07369 13.2915 1.19996 13.3893C1.32623 13.4871 1.49116 13.5226 1.64752 13.4858L5.6223 12.5488C5.78565 12.5103 5.81788 12.504 5.84699 12.5014C5.88051 12.4984 5.91425 12.4985 5.94774 12.5019C5.97683 12.5047 6.00899 12.5114 6.17197 12.5514L9.59846 13.3927C9.72273 13.4233 9.83242 13.4503 9.94657 13.4617C10.047 13.4716 10.1483 13.4721 10.2488 13.4631C10.3631 13.4528 10.473 13.4268 10.5976 13.3974L14.5975 12.4545C14.8336 12.3989 15 12.1915 15 11.9531V3.01563ZM6.40039 4.04707C6.40039 3.77092 6.17653 3.54707 5.90039 3.54707C5.62425 3.54707 5.40039 3.77092 5.40039 4.04707V10.9221C5.40039 11.1982 5.62425 11.4221 5.90039 11.4221C6.17653 11.4221 6.40039 11.1982 6.40039 10.9221V4.04707ZM10.6004 5.07832C10.6004 4.80217 10.3765 4.57832 10.1004 4.57832C9.82425 4.57832 9.60039 4.80217 9.60039 5.07832V11.9533C9.60039 12.2295 9.82425 12.4533 10.1004 12.4533C10.3765 12.4533 10.6004 12.2295 10.6004 11.9533V5.07832Z" fill="white"/>
</svg>
