<svg width="17" height="16" viewBox="0 0 17 16" fill="none" xmlns="http://www.w3.org/2000/svg">
<path fill-rule="evenodd" clip-rule="evenodd" d="M4.05053 13.0709L3.07169 12.092L1.59766 13.5661L3.06784 14.0536L4.05053 13.0709ZM5.15556 13.1621L5.50911 12.8086C6.69898 11.6187 7.55083 11.1824 8.06215 11.0281C8.31669 10.9513 8.48966 10.9433 8.58349 10.9479C8.63088 10.9501 8.65993 10.9557 8.67095 10.9581L8.67347 10.9587C8.85378 11.0213 9.05494 10.9757 9.19083 10.8398L15.0453 4.98535C15.2213 4.80936 15.3907 4.5233 15.344 4.17005C15.2841 3.71618 15.0254 2.94673 14.1105 2.03181C13.1956 1.11688 12.4261 0.858272 11.9723 0.798282C11.619 0.751589 11.333 0.92101 11.157 1.097L5.30248 6.95149C5.16659 7.08738 5.12106 7.28854 5.18362 7.46885L5.1842 7.47138C5.18666 7.48239 5.19219 7.51145 5.19447 7.55884C5.19898 7.65266 5.19107 7.82564 5.11426 8.08018C4.95995 8.5915 4.52361 9.44334 3.33374 10.6332L2.98018 10.9868L5.15556 13.1621ZM14.3382 4.27825L8.83728 9.77919L6.36314 7.30505L11.8641 1.80411C11.8678 1.80034 11.8713 1.79718 11.8744 1.79458C12.1109 1.83336 12.6651 2.00064 13.4034 2.73891C14.1417 3.47719 14.309 4.03145 14.3477 4.26791C14.3451 4.27101 14.342 4.27448 14.3382 4.27825ZM4.38839 10.9808C5.3871 9.90996 5.85493 9.0553 6.05777 8.41389L7.72843 10.0846C7.08703 10.2874 6.23237 10.7552 5.16157 11.7539L4.38839 10.9808Z" fill="white"/>
</svg>
