<svg width="17" height="16" viewBox="0 0 17 16" fill="none" xmlns="http://www.w3.org/2000/svg">
<path fill-rule="evenodd" clip-rule="evenodd" d="M5.26009 13.1265L3.01401 10.8808L3.38836 10.5065C4.59523 9.29986 5.03509 8.43703 5.18975 7.92159C5.26674 7.66503 5.27413 7.49143 5.26947 7.39834L5.26916 7.39248L8.74902 10.8718L8.74316 10.8714C8.65005 10.8668 8.47643 10.8742 8.21982 10.9511C7.70429 11.1058 6.84132 11.5456 5.63444 12.7522L5.26009 13.1265ZM9.74813 10.3859L5.7551 6.39354L11.3328 0.816733C11.5144 0.635224 11.8109 0.459444 12.1778 0.508265C12.6442 0.570322 13.4323 0.836525 14.3692 1.77324C15.3061 2.70995 15.5723 3.498 15.6344 3.9643C15.6832 4.33115 15.5074 4.62759 15.3259 4.8091L9.74813 10.3859ZM4.13871 13.0019L3.14045 12.0038L1.64307 13.5009L3.14045 14L4.13871 13.0019Z" fill="white"/>
</svg>
