<svg width="16" height="16" viewBox="0 0 16 16" fill="none" xmlns="http://www.w3.org/2000/svg">
<path d="M7.5911 4.46911C6.55333 5.3078 5.99673 6.96027 5.99673 8.03036C5.99673 9.10045 6.35933 10.5272 7.5911 11.5309C6.90156 11.985 6.22596 12.25 5.33297 12.25C2.93994 12.25 1 10.3472 1 8C1 5.65279 2.93994 3.75 5.33297 3.75C6.22596 3.75 6.90156 4.01496 7.5911 4.46911Z" fill="white"/>
<path d="M8.62491 11.5309C9.31445 11.985 9.77404 12.25 10.667 12.25C13.0601 12.25 15 10.3472 15 8C15 5.65279 13.0601 3.75 10.667 3.75C9.77404 3.75 9.31445 4.00925 8.62491 4.46339C9.66268 5.30209 10.227 6.94883 10.2013 8.02464C10.1756 9.10045 9.66268 10.6922 8.62491 11.5309Z" fill="white"/>
<path d="M9.72105 8C9.72105 6.64642 9.09064 5.44039 8.10802 4.66071C7.12539 5.44039 6.49499 6.64642 6.49499 8C6.49499 9.35358 7.12539 10.5596 8.10802 11.3393C9.09064 10.5596 9.72105 9.35358 9.72105 8Z" fill="white"/>
</svg>
