<svg width="16" height="16" viewBox="0 0 16 16" fill="none" xmlns="http://www.w3.org/2000/svg">
<path fill-rule="evenodd" clip-rule="evenodd" d="M12.6148 2.07058C12.9408 1.99763 13.2573 1.96539 13.5706 2.05214C14.0404 2.18226 14.4455 2.49242 14.7044 2.92033C14.8771 3.20563 14.9414 3.52954 14.9712 3.87484C15.0002 4.21142 15.0002 4.63331 15.0002 5.14681V10.5181C15.0002 11.0316 15.0002 11.4534 14.9712 11.79C14.9414 12.1353 14.8771 12.4592 14.7044 12.7445C14.4455 13.1724 14.0404 13.4826 13.5706 13.6127C13.2573 13.6995 12.9408 13.6672 12.6148 13.5943C12.2971 13.5232 11.9097 13.3979 11.4381 13.2455L9.2732 12.5459C8.9611 13.0598 8.5043 13.4711 7.95572 13.7187C7.26807 14.0292 6.49135 14.0574 5.78389 13.797C5.07702 13.5368 4.49669 13.0098 4.1549 12.3283C3.91454 11.849 3.80367 11.3166 3.82735 10.7858L2.5507 10.3733L2.47637 10.3493C2.12682 10.2369 1.82012 10.1384 1.58214 9.93735C1.3741 9.76164 1.21262 9.53362 1.113 9.27489C0.999034 8.97892 0.999521 8.64513 1.00008 8.26468V7.40018C0.999521 7.01974 0.999034 6.68594 1.113 6.38997C1.21262 6.13124 1.3741 5.90323 1.58214 5.72751C1.82012 5.52651 2.12682 5.42792 2.47637 5.31555L2.5507 5.29162L11.4381 2.41933C11.9097 2.26692 12.2971 2.14169 12.6148 2.07058ZM4.83214 11.1106L8.28136 12.2253C8.0842 12.4775 7.83164 12.6776 7.54424 12.8073C7.09508 13.0101 6.59017 13.0282 6.12933 12.8585C5.6679 12.6887 5.28005 12.3412 5.04879 11.88C4.92795 11.6391 4.85512 11.3774 4.83214 11.1106ZM4.82422 6.37636C4.82422 6.10022 4.60036 5.87636 4.32422 5.87636C4.04808 5.87636 3.82422 6.10022 3.82422 6.37636V9.28785C3.82422 9.56399 4.04808 9.78785 4.32422 9.78785C4.60036 9.78785 4.82422 9.56399 4.82422 9.28785V6.37636Z" fill="white"/>
</svg>
