<svg width="16" height="16" viewBox="0 0 16 16" fill="none" xmlns="http://www.w3.org/2000/svg">
<path fill-rule="evenodd" clip-rule="evenodd" d="M12.8324 3.31889C12.5651 3.37599 12.2218 3.48159 11.7217 3.63616L4.82436 5.76795V9.89282L11.7217 12.0246C12.2218 12.1792 12.5651 12.2848 12.8324 12.3419C13.0968 12.3984 13.2256 12.3925 13.3081 12.3705C13.5275 12.3118 13.7166 12.1723 13.8375 11.98C13.883 11.9077 13.9266 11.7863 13.9507 11.517C13.9751 11.2448 13.9755 10.8856 13.9755 10.3622V5.29857C13.9755 4.77513 13.9751 4.41596 13.9507 4.14375C13.9266 3.87443 13.883 3.75311 13.8375 3.68079C13.7166 3.4885 13.5275 3.34902 13.3081 3.29032C13.2256 3.26824 13.0968 3.2624 12.8324 3.31889ZM2.85709 6.37598L3.82436 6.07702V9.58375L2.85709 9.28479C2.39027 9.14051 2.2935 9.10148 2.22924 9.04939C2.15643 8.99039 2.09991 8.91376 2.06503 8.82678C2.03425 8.75 2.02553 8.64602 2.02553 8.15741V7.50336C2.02553 7.01475 2.03425 6.91078 2.06503 6.834C2.09991 6.74701 2.15643 6.67038 2.22924 6.61138C2.2935 6.5593 2.39027 6.52026 2.85709 6.37598ZM12.6235 2.34096C12.9477 2.2717 13.2593 2.2421 13.5666 2.32429C14.0298 2.44821 14.429 2.74267 14.6841 3.14861C14.8534 3.41787 14.9171 3.72439 14.9467 4.05456C14.9755 4.37671 14.9755 4.78092 14.9755 5.27489V10.3859C14.9755 10.8799 14.9755 11.2841 14.9467 11.6062C14.9171 11.9364 14.8534 12.2429 14.6841 12.5122C14.429 12.9181 14.0298 13.2126 13.5666 13.3365C13.2593 13.4187 12.9477 13.3891 12.6235 13.3198C12.3072 13.2522 11.921 13.1329 11.449 12.987L9.29144 12.3201C8.97618 12.8335 8.5082 13.2409 7.94832 13.4826C7.26438 13.7779 6.49351 13.8045 5.79072 13.5571C5.08787 13.3097 4.50464 12.8063 4.15918 12.1475C3.91272 11.6775 3.80049 11.1536 3.82858 10.6317L2.48886 10.2177C2.13679 10.1095 1.83418 10.0164 1.59961 9.82629C1.39443 9.66001 1.23514 9.44405 1.13686 9.19891C1.0245 8.91867 1.02494 8.60207 1.02546 8.23373V7.42705C1.02494 7.0587 1.0245 6.7421 1.13686 6.46186C1.23514 6.21672 1.39443 6.00077 1.59961 5.83448C1.83418 5.64438 2.13679 5.55131 2.48886 5.44304L11.4491 2.67376C11.921 2.52789 12.3072 2.40852 12.6235 2.34096ZM4.83042 10.9414C4.85086 11.1981 4.92286 11.4506 5.04479 11.6831C5.27238 12.1171 5.65733 12.45 6.12278 12.6138C6.5883 12.7777 7.09905 12.7601 7.55192 12.5645C7.84094 12.4397 8.09243 12.2485 8.28771 12.0099L4.83042 10.9414Z" fill="white"/>
</svg>
