<svg width="16" height="16" viewBox="0 0 16 16" fill="none" xmlns="http://www.w3.org/2000/svg">
<path fill-rule="evenodd" clip-rule="evenodd" d="M8.10472 2.00091C7.3169 1.98716 6.5341 2.12872 5.80099 2.41749C5.06789 2.70627 4.39884 3.13662 3.83205 3.68396C3.26526 4.2313 2.81183 4.88492 2.49764 5.6075C2.18345 6.33009 2.01467 7.10747 2.00091 7.89528C1.98716 8.6831 2.12872 9.4659 2.41749 10.199C2.70627 10.9321 3.13662 11.6012 3.68396 12.1679C4.2313 12.7347 4.88493 13.1882 5.60751 13.5024C6.33009 13.8165 7.10747 13.9853 7.89528 13.9991C7.89528 13.9991 7.89947 13.9991 7.90412 13.9991L7.93245 13.9992L8.70271 14C8.97886 14 9.20271 14.2239 9.20271 14.5C9.20271 14.7761 8.97886 15 8.70271 15C8.66962 15 7.92145 14.9997 7.87783 14.9989C6.95872 14.9829 6.05177 14.786 5.20876 14.4194C4.36575 14.0529 3.60319 13.5239 2.96462 12.8626C2.32605 12.2014 1.82398 11.4208 1.48708 10.5655C1.15017 9.71022 0.985023 8.79695 1.00107 7.87783C1.01711 6.95872 1.21403 6.05177 1.58058 5.20876C1.94713 4.36575 2.47614 3.60319 3.13739 2.96462C3.79865 2.32605 4.5792 1.82398 5.43449 1.48708C6.28978 1.15017 7.20305 0.985023 8.12217 1.00107C9.04128 1.01711 9.94823 1.21403 10.7912 1.58058C11.6343 1.94713 12.3968 2.47614 13.0354 3.13739C13.6739 3.79865 14.176 4.5792 14.5129 5.43449C14.8498 6.28978 15.015 7.20306 14.9989 8.12217C14.9829 9.04128 14.786 9.94823 14.4194 10.7912C14.4043 10.826 14.3889 10.8607 14.3732 10.8951C14.3377 10.9841 14.296 11.0704 14.2487 11.1534C14.1755 11.2817 14.0887 11.4023 13.9894 11.5128C13.7915 11.7333 13.5488 11.9089 13.2776 12.028C13.0064 12.1471 12.7128 12.2069 12.4166 12.2035C12.1204 12.2 11.8283 12.1333 11.56 12.008C11.2916 11.8826 11.0531 11.7013 10.8604 11.4763C10.7134 11.3047 10.5956 11.1107 10.5113 10.9021C9.83849 11.4849 8.96067 11.8378 8.00001 11.8378C5.88043 11.8378 4.16217 10.1196 4.16217 7.99999C4.16217 5.88041 5.88043 4.16216 8.00001 4.16216C10.1196 4.16216 11.8378 5.88041 11.8378 7.99999C11.8378 8.54883 11.7223 9.07201 11.5138 9.54549L11.4703 9.64629L11.466 9.65519C11.4186 9.75409 11.3864 9.85986 11.3708 9.96891C11.3489 10.1212 11.3598 10.2765 11.4028 10.4242C11.4457 10.572 11.5197 10.7089 11.6198 10.8258C11.7199 10.9427 11.8438 11.0368 11.9833 11.102C12.1227 11.1671 12.2744 11.2017 12.4283 11.2035C12.5822 11.2053 12.7346 11.1742 12.8755 11.1124C13.0164 11.0505 13.1425 10.9593 13.2453 10.8448C13.294 10.7905 13.337 10.7316 13.3737 10.669C13.4006 10.6148 13.4267 10.5602 13.452 10.5051C13.4591 10.4864 13.4656 10.4675 13.4717 10.4484L13.477 10.4501C13.4855 10.4309 13.494 10.4117 13.5024 10.3925C13.8165 9.66992 13.9853 8.89253 13.9991 8.10472C14.0128 7.3169 13.8713 6.5341 13.5825 5.80099C13.2937 5.06789 12.8634 4.39884 12.316 3.83205C11.7687 3.26526 11.1151 2.81183 10.3925 2.49764C9.66992 2.18345 8.89253 2.01467 8.10472 2.00091ZM8.00001 5.16216C6.43271 5.16216 5.16217 6.4327 5.16217 7.99999C5.16217 9.56729 6.43271 10.8378 8.00001 10.8378C9.1595 10.8378 10.1577 10.1424 10.5981 9.14378C10.7521 8.79453 10.8378 8.40794 10.8378 7.99999C10.8378 6.4327 9.5673 5.16216 8.00001 5.16216Z" fill="white"/>
</svg>
