<svg width="16" height="16" viewBox="0 0 16 16" fill="none" xmlns="http://www.w3.org/2000/svg">
<path fill-rule="evenodd" clip-rule="evenodd" d="M8.06051 1C4.22793 1 1.12102 4.10692 1.12102 7.93949C1.12102 8.76404 1.26505 9.55613 1.5298 10.2912C1.68871 10.7324 1.73447 11.1658 1.62766 11.5473L1.04079 13.6433C0.816318 14.445 1.55504 15.1837 2.35673 14.9592L4.4527 14.3723C4.83416 14.2655 5.26756 14.3113 5.70879 14.4702C6.44387 14.7349 7.23596 14.879 8.06051 14.879C11.8931 14.879 15 11.7721 15 7.93949C15 4.10692 11.8931 1 8.06051 1ZM7.88086 4.57031C8.26746 4.57031 8.58086 4.88371 8.58086 5.27031V8.11728C8.58086 8.50388 8.26746 8.81728 7.88086 8.81728C7.49426 8.81728 7.18086 8.50388 7.18086 8.11728V5.27031C7.18086 4.88371 7.49426 4.57031 7.88086 4.57031ZM8.59341 10.9637C8.59341 11.3567 8.27475 11.6754 7.88166 11.6754C7.48858 11.6754 7.16992 11.3567 7.16992 10.9637C7.16992 10.5706 7.48858 10.2519 7.88166 10.2519C8.27475 10.2519 8.59341 10.5706 8.59341 10.9637Z" fill="white"/>
</svg>
