<svg width="16" height="16" viewBox="0 0 16 16" fill="none" xmlns="http://www.w3.org/2000/svg">
<path fill-rule="evenodd" clip-rule="evenodd" d="M8.05124 2.04999C4.79355 2.04999 2.15267 4.69087 2.15267 7.94856C2.15267 8.64942 2.2751 9.3227 2.50013 9.94751C2.63521 10.3226 2.67411 10.691 2.58332 11.0152L2.08448 12.7968C1.89367 13.4782 2.52159 14.1061 3.20302 13.9153L4.9846 13.4165C5.30884 13.3257 5.67723 13.3646 6.05228 13.4997C6.67709 13.7247 7.35037 13.8471 8.05124 13.8471C11.3089 13.8471 13.9498 11.2062 13.9498 7.94856C13.9498 4.69087 11.3089 2.04999 8.05124 2.04999ZM6.23509 5.83275C6.06912 5.66678 5.80002 5.66678 5.63405 5.83275C5.46808 5.99873 5.46808 6.26782 5.63405 6.43379L7.29972 8.09946L5.63405 9.76513C5.46808 9.93111 5.46808 10.2002 5.63405 10.3662C5.80002 10.5321 6.06912 10.5321 6.23509 10.3662L7.90076 8.7005L9.56643 10.3662C9.7324 10.5321 10.0015 10.5321 10.1675 10.3662C10.3334 10.2002 10.3334 9.93111 10.1675 9.76513L8.5018 8.09946L10.1675 6.43379C10.3334 6.26782 10.3334 5.99873 10.1675 5.83275C10.0015 5.66678 9.7324 5.66678 9.56643 5.83275L7.90076 7.49842L6.23509 5.83275Z" fill="white"/>
</svg>
