<svg width="16" height="16" viewBox="0 0 16 16" fill="none" xmlns="http://www.w3.org/2000/svg">
<path fill-rule="evenodd" clip-rule="evenodd" d="M2.12874 7.93477C2.12874 4.66361 4.81957 2 8.15355 2C10.8427 2 13.1163 3.73457 13.8926 6.12314C13.978 6.38576 14.2601 6.52946 14.5227 6.4441C14.7853 6.35874 14.929 6.07665 14.8437 5.81403C13.9349 3.01826 11.2809 1 8.15355 1C4.28043 1 1.12874 4.09827 1.12874 7.93477C1.12874 8.76282 1.27598 9.55797 1.54637 10.2954C1.70809 10.7364 1.7553 11.1738 1.64566 11.56L1.04019 13.6926C0.821879 14.4615 1.52857 15.1733 2.29905 14.9605L4.50356 14.3518C4.88106 14.2476 5.30675 14.2925 5.73564 14.4477C6.49023 14.7207 7.30488 14.8695 8.15355 14.8695C11.1354 14.8695 13.6866 13.0348 14.7054 10.4412C14.8063 10.1842 14.6798 9.89401 14.4228 9.79305C14.1658 9.69209 13.8755 9.8186 13.7746 10.0756C12.9036 12.293 10.7172 13.8695 8.15355 13.8695C7.42242 13.8695 6.72284 13.7415 6.07593 13.5073C5.51724 13.3052 4.87226 13.2126 4.23739 13.3879L2.03287 13.9966C2.02777 13.998 2.02362 13.9981 2.02362 13.9981L2.02015 13.9976C2.01763 13.9969 2.01313 13.9948 2.00848 13.9901C2.00382 13.9854 2.00176 13.9809 2.00106 13.9784L2.0007 13.9767L2.00059 13.9749C2.00059 13.9749 2.00072 13.9708 2.00217 13.9657L2.60764 11.8331C2.7922 11.1831 2.69435 10.5214 2.48524 9.95111C2.25463 9.3222 2.12874 8.64349 2.12874 7.93477ZM10.1372 5.96702C10.3338 5.77312 10.336 5.45654 10.1421 5.25993C9.9482 5.06332 9.63163 5.06112 9.43501 5.25502L6.89758 7.75743C6.80231 7.85139 6.74867 7.97962 6.74867 8.11343C6.74867 8.24724 6.80231 8.37547 6.89758 8.46943L9.43501 10.9718C9.63163 11.1657 9.9482 11.1635 10.1421 10.9669C10.336 10.7703 10.3338 10.4537 10.1372 10.2598L8.46774 8.61343H14.4985C14.7746 8.61343 14.9985 8.38957 14.9985 8.11343C14.9985 7.83729 14.7746 7.61343 14.4985 7.61343H8.46774L10.1372 5.96702Z" fill="white"/>
</svg>
