<svg width="16" height="16" viewBox="0 0 16 16" fill="none" xmlns="http://www.w3.org/2000/svg">
<path fill-rule="evenodd" clip-rule="evenodd" d="M6.88034 8.70782L7.11047 7.55766C7.12403 7.48989 7.15735 7.42765 7.20623 7.37879L12.7942 1.793C13.185 1.40233 13.8185 1.40233 14.2093 1.793C14.6004 2.18388 14.6004 2.81778 14.2093 3.20866L8.62186 8.79393C8.573 8.84277 8.51078 8.87606 8.44304 8.8896L7.29216 9.11969C7.04725 9.16865 6.83135 8.95271 6.88034 8.70782ZM4.77893 1.82498C4.30678 1.82497 3.92215 1.82497 3.60989 1.85048C3.28715 1.87685 2.99793 1.93294 2.72852 2.07021C2.30516 2.28593 1.96095 2.63013 1.74524 3.05349C1.60797 3.3229 1.55187 3.61212 1.5255 3.93486C1.49999 4.24713 1.49999 4.63175 1.5 5.1039V11.2207C1.49999 11.6929 1.49999 12.0775 1.5255 12.3898C1.55187 12.7125 1.60797 13.0017 1.74524 13.2711C1.96095 13.6945 2.30516 14.0387 2.72852 14.2544C2.99793 14.3917 3.28715 14.4478 3.60989 14.4741C3.92215 14.4997 4.30677 14.4997 4.77892 14.4996H10.9004C11.3725 14.4997 11.7571 14.4997 12.0694 14.4741C12.3921 14.4478 12.6813 14.3917 12.9508 14.2544C13.3741 14.0387 13.7183 13.6945 13.934 13.2711C14.0713 13.0017 14.1274 12.7125 14.1538 12.3898C14.1793 12.0775 14.1793 11.6929 14.1793 11.2207V6.03964C14.1793 5.7635 13.9554 5.53964 13.6793 5.53964C13.4031 5.53964 13.1793 5.7635 13.1793 6.03964V11.1997C13.1793 11.6979 13.1789 12.0416 13.1571 12.3083C13.1358 12.5692 13.0965 12.7122 13.043 12.8171C12.9232 13.0523 12.732 13.2436 12.4968 13.3634C12.3918 13.4169 12.2488 13.4562 11.988 13.4775C11.7212 13.4993 11.3776 13.4996 10.8793 13.4996H4.8C4.30171 13.4996 3.95805 13.4993 3.69132 13.4775C3.43042 13.4562 3.28745 13.4169 3.18251 13.3634C2.94731 13.2436 2.75608 13.0523 2.63624 12.8171C2.58277 12.7122 2.5435 12.5692 2.52218 12.3083C2.50039 12.0416 2.5 11.6979 2.5 11.1997V5.12497C2.5 4.62668 2.50039 4.28302 2.52218 4.01629C2.5435 3.7554 2.58277 3.61242 2.63624 3.50748C2.75608 3.27228 2.94731 3.08106 3.18251 2.96122C3.28745 2.90775 3.43042 2.86847 3.69132 2.84716C3.95805 2.82536 4.3017 2.82497 4.8 2.82497H9.96314C10.2393 2.82497 10.4631 2.60112 10.4631 2.32497C10.4631 2.04883 10.2393 1.82498 9.96314 1.82498L4.77893 1.82498Z" fill="white"/>
</svg>
