<svg width="16" height="16" viewBox="0 0 16 16" fill="none" xmlns="http://www.w3.org/2000/svg">
<path fill-rule="evenodd" clip-rule="evenodd" d="M8.06051 1C4.22793 1 1.12102 4.10692 1.12102 7.93949C1.12102 8.76404 1.26505 9.55613 1.5298 10.2912C1.68871 10.7324 1.73447 11.1658 1.62766 11.5473L1.04079 13.6433C0.816318 14.445 1.55504 15.1837 2.35673 14.9592L4.4527 14.3723C4.83416 14.2655 5.26756 14.3113 5.70879 14.4702C6.44387 14.7349 7.23596 14.879 8.06051 14.879C11.8931 14.879 15 11.7721 15 7.93949C15 4.10692 11.8931 1 8.06051 1ZM11.0852 9.18524C11.6748 9.18524 12.1528 8.70725 12.1528 8.11763C12.1528 7.528 11.6748 7.05001 11.0852 7.05001C10.4956 7.05001 10.0176 7.528 10.0176 8.11763C10.0176 8.70725 10.4956 9.18524 11.0852 9.18524ZM8.94968 8.11763C8.94968 8.70725 8.47169 9.18524 7.88207 9.18524C7.29244 9.18524 6.81445 8.70725 6.81445 8.11763C6.81445 7.528 7.29244 7.05001 7.88207 7.05001C8.47169 7.05001 8.94968 7.528 8.94968 8.11763ZM4.67894 9.18524C5.26857 9.18524 5.74656 8.70725 5.74656 8.11763C5.74656 7.528 5.26857 7.05001 4.67894 7.05001C4.08932 7.05001 3.61133 7.528 3.61133 8.11763C3.61133 8.70725 4.08932 9.18524 4.67894 9.18524Z" fill="white"/>
</svg>
