<svg width="16" height="16" viewBox="0 0 16 16" fill="none" xmlns="http://www.w3.org/2000/svg">
<path d="M2.15169 7.94837C2.15169 4.69068 4.79257 2.0498 8.05026 2.0498C9.07122 2.0498 10.0316 2.30919 10.8691 2.76566C9.94116 3.20746 9.2998 4.15383 9.2998 5.25C9.2998 6.76878 10.531 8 12.0498 8C12.7675 8 13.4211 7.72503 13.9108 7.27469C13.9359 7.49577 13.9488 7.72056 13.9488 7.94837C13.9488 11.2061 11.3079 13.8469 8.05026 13.8469C7.34939 13.8469 6.67612 13.7245 6.0513 13.4995C5.67625 13.3644 5.30786 13.3255 4.98362 13.4163L3.20204 13.9151C2.52061 14.1059 1.8927 13.478 2.0835 12.7966L2.58234 11.015C2.67313 10.6908 2.63423 10.3224 2.49915 9.94733C2.27412 9.32251 2.15169 8.64924 2.15169 7.94837Z" fill="white"/>
<path d="M12.1373 7.03486C13.1521 7.03486 13.9748 6.21219 13.9748 5.19736C13.9748 4.18254 13.1521 3.35986 12.1373 3.35986C11.1225 3.35986 10.2998 4.18254 10.2998 5.19736C10.2998 6.21219 11.1225 7.03486 12.1373 7.03486Z" fill="white"/>
</svg>
