<svg width="16" height="16" viewBox="0 0 16 16" fill="none" xmlns="http://www.w3.org/2000/svg">
<path d="M8.05124 2.04999C4.79355 2.04999 2.15267 4.69087 2.15267 7.94856C2.15267 8.64943 2.2751 9.3227 2.50013 9.94751C2.63521 10.3226 2.67411 10.691 2.58332 11.0152L2.08448 12.7968C1.89367 13.4782 2.52159 14.1061 3.20302 13.9153L4.9846 13.4165C5.30884 13.3257 5.67723 13.3646 6.05228 13.4997C6.64299 13.7124 7.27702 13.8335 7.93672 13.846C7.70378 13.3025 7.57481 12.7038 7.57481 12.075C7.57481 9.5897 9.58952 7.57498 12.0748 7.57498C12.7439 7.57498 13.3789 7.72103 13.9497 7.98297C13.9498 7.97151 13.9498 7.96004 13.9498 7.94856C13.9498 4.69087 11.3089 2.04999 8.05124 2.04999Z" fill="white"/>
<path fill-rule="evenodd" clip-rule="evenodd" d="M11.9998 15.75C14.0709 15.75 15.7498 14.0711 15.7498 12C15.7498 9.92892 14.0709 8.24999 11.9998 8.24999C9.92874 8.24999 8.2498 9.92892 8.2498 12C8.2498 14.0711 9.92874 15.75 11.9998 15.75ZM13.5339 10.4667C13.5339 11.314 12.8471 12.0008 11.9998 12.0008C11.1526 12.0008 10.4657 11.314 10.4657 10.4667C10.4657 9.61944 11.1526 8.9326 11.9998 8.9326C12.8471 8.9326 13.5339 9.61944 13.5339 10.4667ZM14.5755 13.6688C14.0286 14.5116 13.0793 15.0692 11.9998 15.0692C10.9203 15.0692 9.971 14.5117 9.42412 13.669C10.1913 13.2572 11.0684 13.0236 12 13.0236C12.9315 13.0236 13.8084 13.2571 14.5755 13.6688Z" fill="white"/>
</svg>
