<svg width="16" height="16" viewBox="0 0 16 16" fill="none" xmlns="http://www.w3.org/2000/svg">
<path fill-rule="evenodd" clip-rule="evenodd" d="M8.06051 1C4.22793 1 1.12102 4.10692 1.12102 7.93949C1.12102 8.76404 1.26505 9.55613 1.5298 10.2912C1.68871 10.7324 1.73447 11.1658 1.62766 11.5473L1.04079 13.6433C0.816318 14.445 1.55504 15.1837 2.35673 14.9592L4.4527 14.3723C4.83416 14.2655 5.26756 14.3113 5.70879 14.4702C6.44387 14.7349 7.23596 14.879 8.06051 14.879C11.8931 14.879 15 11.7721 15 7.93949C15 4.10692 11.8931 1 8.06051 1ZM5.92387 5.45031C5.7286 5.25505 5.41202 5.25505 5.21676 5.45031C5.0215 5.64557 5.0215 5.96216 5.21676 6.15742L7.17637 8.11703L5.21676 10.0766C5.0215 10.2719 5.0215 10.5885 5.21676 10.7837C5.41202 10.979 5.7286 10.979 5.92387 10.7837L7.88348 8.82414L9.84309 10.7837C10.0383 10.979 10.3549 10.979 10.5502 10.7837C10.7455 10.5885 10.7455 10.2719 10.5502 10.0766L8.59058 8.11703L10.5502 6.15742C10.7455 5.96216 10.7455 5.64557 10.5502 5.45031C10.3549 5.25505 10.0383 5.25505 9.84309 5.45031L7.88348 7.40992L5.92387 5.45031Z" fill="white"/>
</svg>
