<svg width="16" height="16" viewBox="0 0 16 16" fill="none" xmlns="http://www.w3.org/2000/svg">
<path fill-rule="evenodd" clip-rule="evenodd" d="M6.89792 8.6878L7.12711 7.54222C7.14067 7.47445 7.17399 7.41221 7.22286 7.36335L12.7958 1.79225C13.1856 1.40258 13.8175 1.40258 14.2073 1.79225C14.5973 2.1821 14.5973 2.81432 14.2073 3.20418L8.63476 8.77483C8.5859 8.82367 8.52368 8.85696 8.45593 8.87051L7.30973 9.09967C7.06483 9.14864 6.84892 8.9327 6.89792 8.6878ZM9.38404 9.52448C9.18694 9.72151 8.9359 9.85582 8.66256 9.91047L7.52164 10.1386C6.53369 10.3361 5.66264 9.46535 5.86023 8.47773L6.08842 7.33719C6.14309 7.06395 6.27744 6.81299 6.47454 6.61595L11.298 1.79413L4.83114 1.79413C4.35577 1.79412 3.96698 1.79412 3.65102 1.81992C3.32398 1.84664 3.0286 1.90361 2.75275 2.04412C2.32104 2.26401 1.97004 2.61489 1.75007 3.04646C1.60952 3.32222 1.55253 3.61749 1.5258 3.94442C1.49999 4.26028 1.49999 4.64892 1.5 5.12413V11.1672C1.49999 11.6424 1.49999 12.031 1.5258 12.3469C1.55253 12.6738 1.60952 12.9691 1.75007 13.2448C1.97004 13.6764 2.32104 14.0273 2.75275 14.2472C3.0286 14.3877 3.32398 14.4447 3.65102 14.4714C3.96698 14.4972 4.35576 14.4972 4.83113 14.4972H10.8762C11.3516 14.4972 11.7404 14.4972 12.0563 14.4714C12.3834 14.4447 12.6787 14.3877 12.9546 14.2472C13.3863 14.0273 13.7373 13.6764 13.9573 13.2448C14.0978 12.9691 14.1548 12.6738 14.1815 12.3469C14.2073 12.031 14.2073 11.6424 14.2073 11.1672V4.70281L9.38404 9.52448Z" fill="white"/>
</svg>
