<svg width="16" height="16" viewBox="0 0 16 16" fill="none" xmlns="http://www.w3.org/2000/svg">
<path fill-rule="evenodd" clip-rule="evenodd" d="M2.12656 7.93606C2.12656 4.65768 4.78432 2 8.06288 2C11.3414 2 13.9992 4.65768 13.9992 7.93606C13.9992 11.2144 11.3414 13.8721 8.06288 13.8721C7.34996 13.8721 6.66746 13.7467 6.03552 13.5171C5.47127 13.3121 4.81811 13.2167 4.17566 13.3966L2.03294 13.9965C2.02785 13.998 2.0237 13.9981 2.0237 13.9981L2.02022 13.9976C2.0177 13.9969 2.01319 13.9948 2.00852 13.9902C2.00385 13.9855 2.00177 13.981 2.00106 13.9785L2.00059 13.975C2.00059 13.975 2.0007 13.9708 2.00213 13.9657L2.60205 11.8232C2.78196 11.1807 2.6866 10.5275 2.48158 9.96323C2.25199 9.33135 2.12656 8.64891 2.12656 7.93606ZM8.06288 1C4.23207 1 1.12656 4.10536 1.12656 7.93606C1.12656 8.76705 1.27292 9.56496 1.54169 10.3047C1.69991 10.7402 1.746 11.1718 1.63909 11.5536L1.03917 13.6961C0.823644 14.4658 1.53287 15.175 2.30256 14.9595L4.44528 14.3596C4.82706 14.2527 5.25862 14.2988 5.69405 14.457C6.43385 14.7258 7.23183 14.8721 8.06288 14.8721C11.8937 14.8721 14.9992 11.7668 14.9992 7.93606C14.9992 4.10536 11.8937 1 8.06288 1ZM5.02484 6.65418C5.02484 6.16414 5.02484 5.91912 5.12021 5.73194C5.2041 5.5673 5.33796 5.43344 5.5026 5.34955C5.68977 5.25418 5.9348 5.25418 6.42484 5.25418H8.2733C8.76334 5.25418 9.00837 5.25418 9.19554 5.34955C9.36018 5.43344 9.49404 5.5673 9.57793 5.73194C9.6733 5.91912 9.6733 6.16414 9.6733 6.65418V7.03572L10.8925 6.0503C11.1214 5.8653 11.4625 6.02821 11.4625 6.3225V9.19183C11.4625 9.48613 11.1214 9.64903 10.8925 9.46404L9.6733 8.47862V8.86001C9.6733 9.35005 9.6733 9.59508 9.57793 9.78225C9.49404 9.94689 9.36018 10.0807 9.19554 10.1646C9.00837 10.26 8.76334 10.26 8.2733 10.26H6.42484C5.9348 10.26 5.68977 10.26 5.5026 10.1646C5.33796 10.0807 5.2041 9.94689 5.12021 9.78225C5.02484 9.59508 5.02484 9.35005 5.02484 8.86001V6.65418Z" fill="white"/>
</svg>
