<svg width="16" height="16" viewBox="0 0 16 16" fill="none" xmlns="http://www.w3.org/2000/svg">
<path d="M5.47081 6.85597C5.47081 6.43943 5.47081 6.23116 5.55188 6.07207C5.62318 5.93212 5.73696 5.81834 5.87691 5.74704C6.036 5.66597 6.24427 5.66597 6.66081 5.66597H8.232C8.64854 5.66597 8.85681 5.66597 9.0159 5.74704C9.15585 5.81834 9.26963 5.93212 9.34094 6.07207C9.422 6.23116 9.422 6.43943 9.422 6.85597V7.18028L10.4583 6.34267C10.6529 6.18542 10.9428 6.32389 10.9428 6.57404V9.01297C10.9428 9.26312 10.6529 9.40159 10.4583 9.24435L9.422 8.40674V8.73092C9.422 9.14746 9.422 9.35573 9.34094 9.51483C9.26963 9.65477 9.15585 9.76855 9.0159 9.83986C8.85681 9.92092 8.64854 9.92092 8.232 9.92092H6.66081C6.24427 9.92092 6.036 9.92092 5.87691 9.83986C5.73696 9.76855 5.62318 9.65477 5.55188 9.51483C5.47081 9.35573 5.47081 9.14746 5.47081 8.73092V6.85597Z" fill="white"/>
<path fill-rule="evenodd" clip-rule="evenodd" d="M8.05314 1.97491C4.75554 1.97491 2.08227 4.64805 2.08227 7.94556C2.08227 8.66077 2.20824 9.34766 2.43964 9.98454C2.57062 10.345 2.6061 10.6953 2.5207 11.0002L2.01077 12.8214C1.8118 13.5319 2.46654 14.1867 3.1771 13.9877L4.99841 13.4778C5.30337 13.3924 5.65357 13.4279 6.01403 13.5588C6.65095 13.7902 7.33789 13.9162 8.05314 13.9162C11.3507 13.9162 14.024 11.2431 14.024 7.94556C14.024 4.64805 11.3507 1.97491 8.05314 1.97491ZM3.08227 7.94556C3.08227 5.20037 5.30779 2.97491 8.05314 2.97491C10.7985 2.97491 13.024 5.20037 13.024 7.94556C13.024 10.6908 10.7985 12.9162 8.05314 12.9162C7.45603 12.9162 6.88456 12.8112 6.3555 12.6189C5.86622 12.4412 5.29442 12.3564 4.72879 12.5148L2.99949 12.999L3.48366 11.2699C3.64206 10.7042 3.55731 10.1324 3.37953 9.64305C3.18732 9.11404 3.08227 8.54263 3.08227 7.94556Z" fill="white"/>
</svg>
