<svg width="16" height="16" viewBox="0 0 16 16" fill="none" xmlns="http://www.w3.org/2000/svg">
<path d="M8.05178 8.66113C8.32789 8.66113 8.55172 8.88505 8.55178 9.16113C8.55178 9.43728 8.32793 9.66113 8.05178 9.66113H5.31643C5.04031 9.66111 4.81643 9.43726 4.81643 9.16113C4.8165 8.88506 5.04035 8.66115 5.31643 8.66113H8.05178Z" fill="white"/>
<path d="M10.7871 6.53418C11.0633 6.53418 11.2871 6.75804 11.2871 7.03418C11.2871 7.31031 11.0633 7.53418 10.7871 7.53418H5.31643C5.04032 7.53416 4.81644 7.3103 4.81643 7.03418C4.81643 6.75805 5.04031 6.5342 5.31643 6.53418H10.7871Z" fill="white"/>
<path fill-rule="evenodd" clip-rule="evenodd" d="M8.05276 1.97461C11.3503 1.97461 14.0243 4.64791 14.0244 7.94531C14.0244 11.2428 11.3504 13.916 8.05276 13.916C7.33766 13.916 6.6505 13.79 6.0137 13.5586C5.65339 13.4278 5.30292 13.3922 4.99807 13.4775L3.17678 13.9873C2.46632 14.186 1.81183 13.5318 2.01077 12.8213L2.52053 11C2.60588 10.6951 2.57043 10.3448 2.43948 9.98438C2.20813 9.34755 2.08206 8.66043 2.08206 7.94531C2.08219 4.64805 4.75544 1.97484 8.05276 1.97461ZM8.05276 2.97461C5.30769 2.97484 3.08219 5.20038 3.08206 7.94531C3.08206 8.54226 3.18778 9.11365 3.37991 9.64258C3.55766 10.1318 3.64173 10.7039 3.48343 11.2695L3.00003 12.999L4.72854 12.5146C5.29417 12.3563 5.86622 12.4414 6.3555 12.6191C6.88442 12.8113 7.4558 12.916 8.05276 12.916C10.7981 12.916 13.0244 10.6905 13.0244 7.94531C13.0243 5.20023 10.798 2.97461 8.05276 2.97461Z" fill="white"/>
</svg>
