<svg width="16" height="16" viewBox="0 0 16 16" fill="none" xmlns="http://www.w3.org/2000/svg">
<path d="M10.6355 9.00972C11.139 9.00972 11.5473 8.6015 11.5473 8.09794C11.5473 7.59438 11.139 7.18617 10.6355 7.18617C10.1319 7.18617 9.72364 7.59438 9.72364 8.09794C9.72364 8.6015 10.1319 9.00972 10.6355 9.00972Z" fill="white"/>
<path d="M8.81133 8.09794C8.81133 8.6015 8.4031 9.00972 7.89952 9.00972C7.39594 9.00972 6.98771 8.6015 6.98771 8.09794C6.98771 7.59438 7.39594 7.18617 7.89952 7.18617C8.4031 7.18617 8.81133 7.59438 8.81133 8.09794Z" fill="white"/>
<path d="M5.16358 9.00972C5.66716 9.00972 6.07539 8.6015 6.07539 8.09794C6.07539 7.59438 5.66716 7.18617 5.16358 7.18617C4.66 7.18617 4.25177 7.59438 4.25177 8.09794C4.25177 8.6015 4.66 9.00972 5.16358 9.00972Z" fill="white"/>
<path fill-rule="evenodd" clip-rule="evenodd" d="M8.05265 1.97485C4.75505 1.97485 2.08178 4.64799 2.08178 7.9455C2.08178 8.6607 2.20776 9.3476 2.43915 9.98448C2.57013 10.345 2.60561 10.6952 2.52021 11.0002L2.01028 12.8213C1.81131 13.5319 2.46605 14.1866 3.17661 13.9877L4.99791 13.4777C5.30288 13.3923 5.65308 13.4278 6.01353 13.5588C6.65046 13.7902 7.3374 13.9162 8.05265 13.9162C11.3502 13.9162 14.0235 11.243 14.0235 7.9455C14.0235 4.64799 11.3502 1.97485 8.05265 1.97485ZM3.08178 7.9455C3.08178 5.20031 5.30729 2.97485 8.05265 2.97485C10.798 2.97485 13.0235 5.20031 13.0235 7.9455C13.0235 10.6907 10.798 12.9162 8.05265 12.9162C7.45553 12.9162 6.88406 12.8111 6.35501 12.6189C5.86573 12.4411 5.29393 12.3564 4.72829 12.5148L2.999 12.9989L3.48318 11.2698C3.64157 10.7041 3.55682 10.1323 3.37904 9.64299C3.18683 9.11398 3.08178 8.54256 3.08178 7.9455Z" fill="white"/>
</svg>
