<svg width="16" height="16" viewBox="0 0 16 16" fill="none" xmlns="http://www.w3.org/2000/svg">
<path fill-rule="evenodd" clip-rule="evenodd" d="M8.06051 1C4.22793 1 1.12102 4.10692 1.12102 7.93949C1.12102 8.76404 1.26505 9.55613 1.5298 10.2912C1.68871 10.7324 1.73447 11.1658 1.62766 11.5473L1.04079 13.6433C0.816318 14.445 1.55504 15.1837 2.35673 14.9592L4.4527 14.3723C4.83416 14.2655 5.26756 14.3113 5.70879 14.4702C6.44387 14.7349 7.23596 14.879 8.06051 14.879C8.21776 14.879 8.3738 14.8738 8.52844 14.8635C7.88598 14.0854 7.5 13.0878 7.5 12C7.5 9.51472 9.51472 7.5 12 7.5C13.1368 7.5 14.1752 7.92157 14.9674 8.61691C14.989 8.39402 15 8.16805 15 7.93949C15 4.10692 11.8931 1 8.06051 1Z" fill="white"/>
<path fill-rule="evenodd" clip-rule="evenodd" d="M12 15.75C14.0711 15.75 15.75 14.0711 15.75 12C15.75 9.92893 14.0711 8.25 12 8.25C9.92893 8.25 8.25 9.92893 8.25 12C8.25 14.0711 9.92893 15.75 12 15.75ZM13.5341 10.4667C13.5341 11.314 12.8473 12.0008 12 12.0008C11.1528 12.0008 10.4659 11.314 10.4659 10.4667C10.4659 9.61945 11.1528 8.93262 12 8.93262C12.8473 8.93262 13.5341 9.61945 13.5341 10.4667ZM14.5757 13.6688C14.0288 14.5116 13.0795 15.0692 11.9999 15.0692C10.9205 15.0692 9.9712 14.5117 9.42432 13.669C10.1915 13.2572 11.0686 13.0236 12.0002 13.0236C12.9317 13.0236 13.8086 13.2571 14.5757 13.6688Z" fill="white"/>
</svg>
