<svg width="16" height="16" viewBox="0 0 16 16" fill="none" xmlns="http://www.w3.org/2000/svg">
<path fill-rule="evenodd" clip-rule="evenodd" d="M8.06051 1C4.22793 1 1.12102 4.10692 1.12102 7.93949C1.12102 8.76404 1.26505 9.55613 1.5298 10.2912C1.68871 10.7324 1.73447 11.1658 1.62766 11.5473L1.04079 13.6433C0.816318 14.445 1.55504 15.1837 2.35673 14.9592L4.4527 14.3723C4.83416 14.2655 5.26756 14.3113 5.70879 14.4702C6.44387 14.7349 7.23596 14.879 8.06051 14.879C11.8931 14.879 15 11.7721 15 7.93949C15 4.10692 11.8931 1 8.06051 1ZM6.72228 4.99816C6.47886 5.18748 6.24805 5.55217 6.24805 6.33835C6.24805 6.6145 6.02419 6.83835 5.74805 6.83835C5.4719 6.83835 5.24805 6.6145 5.24805 6.33835C5.24805 5.34518 5.55104 4.64226 6.10834 4.2088C6.64022 3.79512 7.31063 3.70312 7.88328 3.70312C8.45592 3.70312 9.12633 3.79512 9.65821 4.2088C10.2155 4.64226 10.5185 5.34518 10.5185 6.33835C10.5185 7.49002 9.79254 8.06699 9.25089 8.47323C8.65234 8.92214 8.38328 9.12729 8.38328 9.54119C8.38328 9.81734 8.15942 10.0412 7.88328 10.0412C7.60713 10.0412 7.38328 9.81734 7.38328 9.54119C7.38328 8.60677 8.06736 8.10324 8.54112 7.75451C8.57922 7.72646 8.61597 7.69942 8.65089 7.67323C9.17685 7.27875 9.5185 6.96605 9.5185 6.33835C9.5185 5.55217 9.28769 5.18748 9.04427 4.99816C8.77544 4.78907 8.37825 4.70312 7.88328 4.70312C7.3883 4.70312 6.99111 4.78907 6.72228 4.99816ZM8.59536 11.3204C8.59536 11.7134 8.2767 12.0321 7.88362 12.0321C7.49053 12.0321 7.17188 11.7134 7.17188 11.3204C7.17188 10.9273 7.49053 10.6086 7.88362 10.6086C8.2767 10.6086 8.59536 10.9273 8.59536 11.3204Z" fill="white"/>
</svg>
