<svg width="16" height="16" viewBox="0 0 16 16" fill="none" xmlns="http://www.w3.org/2000/svg">
<path d="M3.29085 7.83338C3.29085 5.14062 5.47377 2.9577 8.16653 2.9577C10.8004 2.9577 12.9465 5.0462 13.0391 7.6575C13.3896 7.73256 13.7249 7.84843 14.0399 7.99989C14.0414 7.94457 14.0422 7.88907 14.0422 7.83338C14.0422 4.58833 11.4116 1.9577 8.16653 1.9577C4.92148 1.9577 2.29085 4.58833 2.29085 7.83338C2.29085 8.53249 2.41317 9.20413 2.63799 9.82737C2.76849 10.1891 2.80406 10.5395 2.71869 10.8444L2.22463 12.6089C2.02568 13.3195 2.68042 13.9742 3.39097 13.7753L5.15549 13.2812C5.46037 13.1958 5.81076 13.2314 6.17254 13.3619C6.71693 13.5583 7.29826 13.6765 7.90257 13.7032C7.77512 13.379 7.68422 13.0364 7.63495 12.6805C7.24457 12.6382 6.86844 12.5499 6.51186 12.4213C6.02317 12.245 5.4516 12.1598 4.88586 12.3182L3.21336 12.7866L3.68166 11.114C3.84007 10.5483 3.75494 9.97674 3.57866 9.48805C3.39253 8.97207 3.29085 8.41515 3.29085 7.83338Z" fill="white"/>
<path fill-rule="evenodd" clip-rule="evenodd" d="M11.9999 15.75C14.0709 15.75 15.7499 14.0711 15.7499 12C15.7499 9.92896 14.0709 8.25003 11.9999 8.25003C9.92881 8.25003 8.24988 9.92896 8.24988 12C8.24988 14.0711 9.92881 15.75 11.9999 15.75ZM13.534 10.4667C13.534 11.314 12.8471 12.0008 11.9999 12.0008C11.1526 12.0008 10.4658 11.314 10.4658 10.4667C10.4658 9.61948 11.1526 8.93265 11.9999 8.93265C12.8471 8.93265 13.534 9.61948 13.534 10.4667ZM14.5756 13.6688C14.0287 14.5117 13.0794 15.0692 11.9998 15.0692C10.9204 15.0692 9.97108 14.5118 9.4242 13.669C10.1914 13.2572 11.0684 13.0237 12.0001 13.0237C12.9315 13.0237 13.8085 13.2572 14.5756 13.6688Z" fill="white"/>
</svg>
