<svg width="17" height="16" viewBox="0 0 17 16" fill="none" xmlns="http://www.w3.org/2000/svg">
<path fill-rule="evenodd" clip-rule="evenodd" d="M7.18356 8.6878L7.41275 7.54222C7.42631 7.47445 7.45963 7.41221 7.50851 7.36335L13.0815 1.79225C13.4713 1.40258 14.1031 1.40258 14.4929 1.79225C14.8829 2.1821 14.8829 2.81432 14.4929 3.20418L8.92041 8.77483C8.87155 8.82367 8.80932 8.85696 8.74158 8.87051L7.59538 9.09967C7.35047 9.14864 7.13456 8.9327 7.18356 8.6878ZM9.66968 9.52448C9.47258 9.72151 9.22155 9.85582 8.94821 9.91047L7.80729 10.1386C6.81933 10.3361 5.94829 9.46535 6.14588 8.47773L6.37406 7.33719C6.42873 7.06395 6.56308 6.81299 6.76019 6.61595L11.5836 1.79413L5.11679 1.79413C4.64141 1.79412 4.25263 1.79412 3.93667 1.81992C3.60962 1.84664 3.31425 1.90361 3.0384 2.04412C2.60668 2.26401 2.25569 2.61489 2.03572 3.04646C1.89517 3.32222 1.83817 3.61749 1.81145 3.94442C1.78563 4.26028 1.78564 4.64892 1.78564 5.12413V11.1672C1.78564 11.6424 1.78563 12.031 1.81145 12.3469C1.83817 12.6738 1.89517 12.9691 2.03572 13.2448C2.25569 13.6764 2.60668 14.0273 3.0384 14.2472C3.31425 14.3877 3.60962 14.4447 3.93667 14.4714C4.25263 14.4972 4.6414 14.4972 5.11678 14.4972H11.1618C11.6372 14.4972 12.026 14.4972 12.342 14.4714C12.669 14.4447 12.9644 14.3877 13.2402 14.2472C13.6719 14.0273 14.0229 13.6764 14.2429 13.2448C14.3835 12.9691 14.4405 12.6738 14.4672 12.3469C14.493 12.031 14.493 11.6424 14.493 11.1672V4.70281L9.66968 9.52448Z" fill="white"/>
</svg>
