<svg width="16" height="16" viewBox="0 0 16 16" fill="none" xmlns="http://www.w3.org/2000/svg">
<path fill-rule="evenodd" clip-rule="evenodd" d="M2.12656 7.93606C2.12656 4.65768 4.78431 2 8.06287 2C11.3414 2 13.9992 4.65768 13.9992 7.93606C13.9992 11.2144 11.3414 13.8721 8.06287 13.8721C7.34995 13.8721 6.66745 13.7467 6.03552 13.5171C5.47126 13.3121 4.8181 13.2167 4.17565 13.3966L2.03294 13.9965C2.02785 13.998 2.0237 13.9981 2.0237 13.9981L2.02022 13.9976C2.0177 13.9969 2.01319 13.9948 2.00852 13.9901C2.00385 13.9855 2.00177 13.981 2.00106 13.9785L2.00059 13.975C2.00059 13.975 2.0007 13.9708 2.00213 13.9657L2.60205 11.8232C2.78196 11.1807 2.6866 10.5275 2.48158 9.96323C2.25199 9.33135 2.12656 8.64891 2.12656 7.93606ZM8.06287 1C4.23207 1 1.12656 4.10536 1.12656 7.93606C1.12656 8.76705 1.27291 9.56497 1.54169 10.3047C1.69991 10.7402 1.746 11.1718 1.63909 11.5536L1.03917 13.6961C0.823644 14.4658 1.53287 15.175 2.30256 14.9595L4.44527 14.3596C4.82705 14.2527 5.25861 14.2988 5.69404 14.457C6.43385 14.7258 7.23182 14.8721 8.06287 14.8721C11.8937 14.8721 14.9992 11.7668 14.9992 7.93606C14.9992 4.10536 11.8937 1 8.06287 1ZM7.88226 4.55516C8.26886 4.55516 8.58226 4.86856 8.58226 5.25516V8.11563C8.58226 8.50223 8.26886 8.81563 7.88226 8.81563C7.49566 8.81563 7.18226 8.50223 7.18226 8.11563V5.25516C7.18226 4.86856 7.49566 4.55516 7.88226 4.55516ZM8.59966 10.9752C8.59966 11.3702 8.27948 11.6903 7.88452 11.6903C7.48955 11.6903 7.16937 11.3702 7.16937 10.9752C7.16937 10.5803 7.48955 10.2601 7.88452 10.2601C8.27948 10.2601 8.59966 10.5803 8.59966 10.9752Z" fill="white"/>
</svg>
