<svg width="16" height="16" viewBox="0 0 16 16" fill="none" xmlns="http://www.w3.org/2000/svg">
<path fill-rule="evenodd" clip-rule="evenodd" d="M8.06287 2C4.78431 2 2.12656 4.65768 2.12656 7.93606C2.12656 8.64891 2.25199 9.33135 2.48158 9.96323C2.6866 10.5275 2.78196 11.1807 2.60205 11.8232L2.00213 13.9657C2.0007 13.9708 2.00059 13.975 2.00059 13.975L2.00106 13.9785C2.00177 13.981 2.00385 13.9855 2.00852 13.9901C2.01319 13.9948 2.0177 13.9969 2.02022 13.9976L2.0237 13.9981C2.0237 13.9981 2.02785 13.998 2.03294 13.9965L4.17565 13.3966C4.8181 13.2167 5.47126 13.3121 6.03552 13.5171C6.66745 13.7467 7.34995 13.8721 8.06287 13.8721C11.3414 13.8721 13.9992 11.2144 13.9992 7.93606C13.9992 4.65768 11.3414 2 8.06287 2ZM1.12656 7.93606C1.12656 4.10536 4.23207 1 8.06287 1C11.8937 1 14.9992 4.10536 14.9992 7.93606C14.9992 11.7668 11.8937 14.8721 8.06287 14.8721C7.23182 14.8721 6.43385 14.7258 5.69404 14.457C5.25861 14.2988 4.82705 14.2527 4.44527 14.3596L2.30256 14.9595C1.53287 15.175 0.823644 14.4658 1.03917 13.6961L1.63909 11.5536C1.746 11.1718 1.69991 10.7402 1.54169 10.3047C1.27291 9.56497 1.12656 8.76705 1.12656 7.93606ZM4.3432 9.36628C4.3432 9.09014 4.56706 8.86628 4.8432 8.86628H8.06136C8.3375 8.86628 8.56136 9.09014 8.56136 9.36628C8.56136 9.64242 8.3375 9.86628 8.06136 9.86628H4.8432C4.56706 9.86628 4.3432 9.64242 4.3432 9.36628ZM4.8432 6.36382C4.56706 6.36382 4.3432 6.58767 4.3432 6.86382C4.3432 7.13996 4.56706 7.36382 4.8432 7.36382H11.2795C11.5557 7.36382 11.7795 7.13996 11.7795 6.86382C11.7795 6.58767 11.5557 6.36382 11.2795 6.36382H4.8432Z" fill="white"/>
</svg>
