<svg width="16" height="16" viewBox="0 0 16 16" fill="none" xmlns="http://www.w3.org/2000/svg">
<path fill-rule="evenodd" clip-rule="evenodd" d="M2.15267 7.94856C2.15267 4.69087 4.79355 2.04999 8.05124 2.04999C11.3089 2.04999 13.9498 4.69087 13.9498 7.94856C13.9498 11.2062 11.3089 13.8471 8.05124 13.8471C7.35037 13.8471 6.67709 13.7247 6.05228 13.4997C5.67723 13.3646 5.30884 13.3257 4.9846 13.4165L3.20302 13.9153C2.52159 14.1061 1.89367 13.4782 2.08448 12.7968L2.58332 11.0152C2.67411 10.691 2.63521 10.3226 2.50013 9.94751C2.2751 9.3227 2.15267 8.64942 2.15267 7.94856ZM11.324 10.3914C10.5793 11.3876 9.3905 12.0324 8.05108 12.0324C6.71121 12.0324 5.52206 11.3871 4.77744 10.3904C5.76071 9.89302 6.87248 9.61283 8.0497 9.61283C9.22771 9.61283 10.3402 9.89341 11.324 10.3914ZM8.052 8.85569C9.22143 8.85569 10.1694 7.90768 10.1694 6.73826C10.1694 5.56883 9.22143 4.62082 8.052 4.62082C6.88258 4.62082 5.93457 5.56883 5.93457 6.73826C5.93457 7.90768 6.88258 8.85569 8.052 8.85569Z" fill="white"/>
</svg>
