<svg width="16" height="16" viewBox="0 0 16 16" fill="none" xmlns="http://www.w3.org/2000/svg">
<path fill-rule="evenodd" clip-rule="evenodd" d="M2.12656 7.93606C2.12656 4.65768 4.78431 2 8.06287 2C11.3414 2 13.9992 4.65768 13.9992 7.93606C13.9992 11.2144 11.3414 13.8721 8.06287 13.8721C7.34995 13.8721 6.66745 13.7467 6.03552 13.5171C5.47126 13.3121 4.8181 13.2167 4.17565 13.3966L2.03294 13.9965C2.02785 13.998 2.0237 13.9981 2.0237 13.9981L2.02022 13.9976C2.0177 13.9969 2.01319 13.9948 2.00852 13.9901C2.00385 13.9855 2.00177 13.981 2.00106 13.9785L2.00059 13.975C2.00059 13.975 2.0007 13.9708 2.00213 13.9657L2.60205 11.8232C2.78196 11.1807 2.6866 10.5275 2.48158 9.96323C2.25199 9.33135 2.12656 8.64891 2.12656 7.93606ZM8.06287 1C4.23207 1 1.12656 4.10536 1.12656 7.93606C1.12656 8.76705 1.27291 9.56497 1.54169 10.3047C1.69991 10.7402 1.746 11.1718 1.63909 11.5536L1.03917 13.6961C0.823644 14.4658 1.53287 15.175 2.30256 14.9595L4.44527 14.3596C4.82705 14.2527 5.25861 14.2988 5.69404 14.457C6.43385 14.7258 7.23182 14.8721 8.06287 14.8721C11.8937 14.8721 14.9992 11.7668 14.9992 7.93606C14.9992 4.10536 11.8937 1 8.06287 1ZM5.91159 5.43749C5.71633 5.24224 5.39974 5.24224 5.20448 5.43751C5.00923 5.63277 5.00923 5.94936 5.2045 6.14461L7.17515 8.11519L5.2045 10.0858C5.00923 10.281 5.00923 10.5976 5.20448 10.7929C5.39974 10.9881 5.71633 10.9881 5.91159 10.7929L7.88227 8.82228L9.85295 10.7929C10.0482 10.9881 10.3648 10.9881 10.5601 10.7929C10.7553 10.5976 10.7553 10.281 10.56 10.0858L8.58939 8.11519L10.56 6.14461C10.7553 5.94936 10.7553 5.63277 10.5601 5.43751C10.3648 5.24224 10.0482 5.24224 9.85295 5.43749L7.88227 7.40809L5.91159 5.43749Z" fill="white"/>
</svg>
