<svg width="16" height="16" viewBox="0 0 16 16" fill="none" xmlns="http://www.w3.org/2000/svg">
<path fill-rule="evenodd" clip-rule="evenodd" d="M8.08856 2C4.79427 2 2.12717 4.65926 2.12717 7.93537C2.12717 8.64698 2.25273 9.3283 2.48259 9.95928C2.68878 10.5253 2.78485 11.1809 2.60361 11.8256L2.00214 13.9651C2.00071 13.9702 2.00059 13.9743 2.00059 13.9743L2.00064 13.9755L2.00106 13.9778C2.00177 13.9803 2.00384 13.9848 2.00851 13.9895C2.01317 13.9942 2.01768 13.9963 2.0202 13.997L2.02368 13.9974C2.02368 13.9974 2.02782 13.9973 2.03292 13.9959L4.19321 13.3935C4.83347 13.2149 5.48426 13.3095 6.04691 13.5137C6.6831 13.7445 7.37047 13.8707 8.08856 13.8707C11.3829 13.8707 14.05 11.2115 14.05 7.93537C14.05 4.65926 11.3829 2 8.08856 2ZM1.12717 7.93537C1.12717 4.10317 4.24579 1 8.08856 1C11.9313 1 15.05 4.10317 15.05 7.93537C15.05 11.7676 11.9313 14.8707 8.08856 14.8707C7.2525 14.8707 6.44978 14.7237 5.70577 14.4537C5.27224 14.2963 4.84238 14.2506 4.46184 14.3567L2.30154 14.9592C1.53163 15.1739 0.823137 14.4639 1.03946 13.6944L1.64093 11.555C1.74862 11.1719 1.70221 10.7386 1.54299 10.3016C1.27377 9.56253 1.12717 8.76546 1.12717 7.93537ZM11.9713 10.8212C11.0876 11.999 9.67665 12.7614 8.0869 12.7614C6.49703 12.7614 5.08598 11.9989 4.20233 10.821C5.36943 10.2328 6.68912 9.90147 8.08652 9.90147C9.48414 9.90147 10.804 10.2329 11.9713 10.8212ZM8.08761 9.00843C9.47537 9.00843 10.6004 7.88796 10.6004 6.50579C10.6004 5.12362 9.47537 4.00315 8.08761 4.00315C6.69984 4.00315 5.57484 5.12362 5.57484 6.50579C5.57484 7.88796 6.69984 9.00843 8.08761 9.00843Z" fill="white"/>
</svg>
