<svg width="16" height="16" viewBox="0 0 16 16" fill="none" xmlns="http://www.w3.org/2000/svg">
<path d="M1.25748 14.3292L1.75466 11.8441C2.03963 11.8606 2.32017 11.9247 2.58452 12.0341C2.89424 12.1624 3.17565 12.3504 3.41267 12.5873C3.64969 12.8243 3.83769 13.1055 3.96595 13.4151C4.07535 13.6791 4.13946 13.9593 4.15595 14.2439L1.6693 14.7411C1.4244 14.79 1.20849 14.5741 1.25748 14.3292Z" fill="white"/>
<path d="M5.31349 13.6529C5.25089 13.7155 5.18463 13.7738 5.11517 13.8276C5.07137 13.5553 4.99587 13.2883 4.88979 13.0323C4.71125 12.6014 4.44956 12.2099 4.11966 11.8801C3.78977 11.5503 3.39813 11.2887 2.9671 11.1102C2.71082 11.0041 2.44361 10.9286 2.171 10.8848C2.22494 10.8152 2.28339 10.7489 2.34612 10.6861L9.50695 3.52757C9.61144 3.53048 9.71609 3.53876 9.82048 3.5525C10.4868 3.64019 11.1055 3.94522 11.5806 4.42023C12.0558 4.89524 12.3609 5.51369 12.4486 6.17966C12.4624 6.28468 12.4707 6.38996 12.4735 6.49509L5.31349 13.6529Z" fill="white"/>
<path d="M13.3576 5.61128L14.1369 4.83222C14.9566 4.01283 14.9566 2.68408 14.1369 1.86469C13.3177 1.04567 11.9896 1.04567 11.1704 1.86469L10.3909 2.64389C11.1061 2.81993 11.7628 3.18835 12.2876 3.71301C12.813 4.23818 13.1817 4.89545 13.3576 5.61128Z" fill="white"/>
<path d="M5.54309 13.25H5.25019V13.5429L5.54309 13.25Z" fill="white"/>
<path d="M5.4573 14.75H14.0002C14.4144 14.75 14.7502 14.4142 14.7502 14C14.7502 13.5858 14.4144 13.25 14.0002 13.25H6.9573L5.4573 14.75Z" fill="white"/>
</svg>
