<svg width="16" height="16" viewBox="0 0 16 16" fill="none" xmlns="http://www.w3.org/2000/svg">
<path d="M7.89962 5.0668C8.23099 5.0668 8.49962 5.33543 8.49962 5.6668V8.0982C8.49962 8.42957 8.23099 8.6982 7.89962 8.6982C7.56825 8.6982 7.29962 8.42957 7.29962 8.0982V5.6668C7.29962 5.33543 7.56825 5.0668 7.89962 5.0668Z" fill="white"/>
<path d="M8.50941 10.5288C8.50941 10.8645 8.23726 11.1367 7.90154 11.1367C7.56582 11.1367 7.29366 10.8645 7.29366 10.5288C7.29366 10.1931 7.56582 9.92099 7.90154 9.92099C8.23726 9.92099 8.50941 10.1931 8.50941 10.5288Z" fill="white"/>
<path fill-rule="evenodd" clip-rule="evenodd" d="M8.05313 1.97491C4.75553 1.97491 2.08227 4.64805 2.08227 7.94556C2.08227 8.66077 2.20824 9.34766 2.43964 9.98454C2.57062 10.345 2.6061 10.6953 2.5207 11.0002L2.01077 12.8214C1.8118 13.5319 2.46654 14.1867 3.1771 13.9877L4.9984 13.4778C5.30337 13.3924 5.65357 13.4279 6.01402 13.5588C6.65095 13.7902 7.33788 13.9162 8.05313 13.9162C11.3507 13.9162 14.024 11.2431 14.024 7.94556C14.024 4.64805 11.3507 1.97491 8.05313 1.97491ZM3.08227 7.94556C3.08227 5.20037 5.30778 2.97491 8.05313 2.97491C10.7985 2.97491 13.024 5.20037 13.024 7.94556C13.024 10.6908 10.7985 12.9162 8.05313 12.9162C7.45602 12.9162 6.88455 12.8112 6.3555 12.6189C5.86622 12.4412 5.29441 12.3564 4.72878 12.5148L2.99949 12.999L3.48366 11.2699C3.64206 10.7042 3.55731 10.1324 3.37953 9.64305C3.18732 9.11404 3.08227 8.54263 3.08227 7.94556Z" fill="white"/>
</svg>
