<svg width="16" height="16" viewBox="0 0 16 16" fill="none" xmlns="http://www.w3.org/2000/svg">
<path fill-rule="evenodd" clip-rule="evenodd" d="M1.12837 7.61723H7.38664L5.7491 5.97968C5.55383 5.78442 5.55383 5.46784 5.7491 5.27258C5.94436 5.07731 6.26094 5.07731 6.4562 5.27258L8.9473 7.76368C9.14257 7.95894 9.14257 8.27552 8.9473 8.47078L6.4562 10.9619C6.26094 11.1571 5.94436 11.1571 5.7491 10.9619C5.55383 10.7666 5.55383 10.45 5.7491 10.2548L7.38664 8.61723H1.15373C1.21015 9.19882 1.33845 9.75991 1.5298 10.2912C1.68871 10.7324 1.73447 11.1658 1.62766 11.5473L1.04079 13.6433C0.816318 14.445 1.55504 15.1837 2.35673 14.9592L4.4527 14.3723C4.83416 14.2655 5.26756 14.3113 5.70879 14.4702C6.44387 14.7349 7.23596 14.879 8.06051 14.879C11.8931 14.879 15 11.7721 15 7.93949C15 4.10692 11.8931 1 8.06051 1C4.33595 1 1.29672 3.93426 1.12837 7.61723Z" fill="white"/>
</svg>
