<svg width="16" height="16" viewBox="0 0 16 16" fill="none" xmlns="http://www.w3.org/2000/svg">
<path fill-rule="evenodd" clip-rule="evenodd" d="M8.05124 2.04999C4.79355 2.04999 2.15267 4.69087 2.15267 7.94856C2.15267 8.64942 2.2751 9.3227 2.50013 9.94751C2.63521 10.3226 2.67411 10.691 2.58332 11.0152L2.08448 12.7968C1.89367 13.4782 2.52159 14.1061 3.20302 13.9153L4.9846 13.4165C5.30884 13.3257 5.67723 13.3646 6.05228 13.4997C6.67709 13.7247 7.35037 13.8471 8.05124 13.8471C11.1146 13.8471 13.6326 11.5119 13.922 8.5245H8.32028L9.71219 9.91642C9.87817 10.0824 9.87817 10.3515 9.71219 10.5175C9.54622 10.6834 9.27713 10.6834 9.11115 10.5175L6.99372 8.40002C6.91401 8.32032 6.86924 8.21222 6.86924 8.0995C6.86924 7.98679 6.91401 7.87868 6.99372 7.79898L9.11115 5.68155C9.27713 5.51557 9.54622 5.51557 9.71219 5.68155C9.87817 5.84752 9.87817 6.11662 9.71219 6.28259L8.32028 7.6745H13.9436C13.8004 4.54404 11.2171 2.04999 8.05124 2.04999ZM13.949 7.85221V8.0449C13.9495 8.01285 13.9498 7.98073 13.9498 7.94856C13.9498 7.91638 13.9495 7.88426 13.949 7.85221Z" fill="white"/>
</svg>
