<svg width="16" height="16" viewBox="0 0 16 16" fill="none" xmlns="http://www.w3.org/2000/svg">
<path fill-rule="evenodd" clip-rule="evenodd" d="M8.23424 1.53537C8.15675 1.52851 8.0783 1.525 7.99903 1.525C6.54634 1.525 5.36871 2.70263 5.36871 4.15532V8.19566C5.36871 9.64835 6.54634 10.826 7.99903 10.826C9.42115 10.826 10.5797 9.69738 10.6278 8.28698C10.2739 8.17381 9.93909 8.01804 9.62935 7.82571V8.19566C9.62935 9.09606 8.89943 9.82598 7.99903 9.82598C7.09863 9.82598 6.36871 9.09606 6.36871 8.19566V4.15532C6.36871 3.34301 6.96279 2.66946 7.74017 2.54544C7.86284 2.18612 8.02968 1.84727 8.23424 1.53537ZM11.8196 8.49645C11.772 8.56153 11.7394 8.63908 11.7278 8.72464C11.6096 9.59917 11.1688 10.4048 10.4836 10.9902C9.7981 11.5758 8.91521 11.9003 7.99915 11.9003C7.08308 11.9003 6.20019 11.5758 5.51469 10.9902C4.82951 10.4048 4.38865 9.59918 4.27046 8.72464C4.23347 8.45098 3.98165 8.25912 3.708 8.29611C3.43434 8.33309 3.24248 8.58491 3.27947 8.85857C3.43112 9.98068 3.99602 11.008 4.86514 11.7505C5.60741 12.3846 6.52861 12.7745 7.49915 12.8746V14.4756C7.49915 14.7517 7.723 14.9756 7.99915 14.9756C8.27529 14.9756 8.49915 14.7517 8.49915 14.4756V12.8746C9.46968 12.7745 10.3909 12.3846 11.1332 11.7505C12.0023 11.008 12.5672 9.98068 12.7188 8.85857C12.7391 8.70883 12.6908 8.56563 12.5981 8.46059C12.4024 8.48658 12.2027 8.5 11.9999 8.5C11.9395 8.5 11.8794 8.49881 11.8196 8.49645Z" fill="white"/>
<path fill-rule="evenodd" clip-rule="evenodd" d="M11.9999 7.75C14.071 7.75 15.7499 6.07107 15.7499 4C15.7499 1.92893 14.071 0.25 11.9999 0.25C9.92883 0.25 8.2499 1.92893 8.2499 4C8.2499 6.07107 9.92883 7.75 11.9999 7.75ZM10.8007 2.30616C10.664 2.16947 10.4424 2.16947 10.3057 2.30616C10.169 2.44284 10.169 2.66445 10.3057 2.80113L11.5046 4L10.3057 5.19887C10.169 5.33555 10.169 5.55716 10.3057 5.69384C10.4424 5.83053 10.664 5.83053 10.8007 5.69384L11.9995 4.49497L13.1984 5.69384C13.3351 5.83053 13.5567 5.83053 13.6934 5.69384C13.8301 5.55716 13.8301 5.33555 13.6934 5.19887L12.4945 4L13.6934 2.80113C13.8301 2.66445 13.8301 2.44284 13.6934 2.30616C13.5567 2.16947 13.3351 2.16947 13.1984 2.30616L11.9995 3.50503L10.8007 2.30616Z" fill="white"/>
</svg>
