<svg width="16" height="16" viewBox="0 0 16 16" fill="none" xmlns="http://www.w3.org/2000/svg">
<path fill-rule="evenodd" clip-rule="evenodd" d="M7.34961 1.25C8.20559 1.25 8.89931 1.94385 8.89941 2.7998V4.40527C10.7901 4.46285 12.7286 5.60372 13.7393 7.46191C14.7739 9.36467 14.5664 11.7814 12.999 13.8506H14.3496C14.6258 13.8506 14.8496 14.0744 14.8496 14.3506C14.8493 14.6265 14.6256 14.8506 14.3496 14.8506H1.75C1.47402 14.8506 1.25026 14.6265 1.25 14.3506C1.25 14.0744 1.47386 13.8506 1.75 13.8506H11.6875C13.5287 11.9104 13.7727 9.61593 12.8604 7.93848C12.0216 6.39684 10.4185 5.46338 8.89941 5.40527V8.40039C8.8992 9.25625 8.20552 9.9502 7.34961 9.9502H5.59961C4.7439 9.94996 4.05002 9.25611 4.0498 8.40039V2.7998C4.04991 1.944 4.74383 1.25024 5.59961 1.25H7.34961ZM5.59961 2.25C5.29612 2.25024 5.04991 2.49628 5.0498 2.7998V8.40039C5.05002 8.70382 5.29619 8.94996 5.59961 8.9502H7.34961C7.65323 8.9502 7.8992 8.70397 7.89941 8.40039V2.7998C7.89931 2.49614 7.6533 2.25 7.34961 2.25H5.59961Z" fill="white"/>
<path d="M8.25781 11.2256C8.53395 11.2256 8.75781 11.4494 8.75781 11.7256C8.75755 12.0015 8.53379 12.2256 8.25781 12.2256H4.67969C4.40385 12.2254 4.17995 12.0014 4.17969 11.7256C4.17969 11.4495 4.40369 11.2258 4.67969 11.2256H8.25781Z" fill="white"/>
</svg>
