<svg width="16" height="16" viewBox="0 0 16 16" fill="none" xmlns="http://www.w3.org/2000/svg">
<path fill-rule="evenodd" clip-rule="evenodd" d="M5.05374 1.74976C4.58238 1.74975 4.19688 1.74975 3.88358 1.77534C3.5593 1.80184 3.26642 1.85835 2.9929 1.99772C2.56484 2.21583 2.21681 2.56386 1.99869 2.99193C1.85933 3.26545 1.80281 3.55832 1.77632 3.88261C1.75072 4.1959 1.75073 4.58139 1.75073 5.05275V10.9474C1.75073 11.4188 1.75072 11.8043 1.77632 12.1176C1.80281 12.4419 1.85933 12.7348 1.99869 13.0083C2.21681 13.4364 2.56484 13.7844 2.9929 14.0025C3.26642 14.1419 3.5593 14.1984 3.88358 14.2249C4.19687 14.2505 4.58235 14.2505 5.05369 14.2505H10.9485C11.4198 14.2505 11.8053 14.2505 12.1186 14.2249C12.4429 14.1984 12.7357 14.1419 13.0093 14.0025C13.4373 13.7844 13.7854 13.4364 14.0035 13.0083C14.1428 12.7348 14.1994 12.4419 14.2258 12.1176C14.2514 11.8043 14.2514 11.4188 14.2514 10.9475V5.05272C14.2514 4.58138 14.2514 4.19589 14.2258 3.88261C14.1994 3.55833 14.1428 3.26545 14.0035 2.99193C13.7854 2.56386 13.4373 2.21583 13.0093 1.99772C12.7357 1.85835 12.4429 1.80184 12.1186 1.77534C11.8053 1.74975 11.4198 1.74975 10.9484 1.74976H5.05374ZM3.46959 2.93327C3.57042 2.8819 3.70974 2.84304 3.96909 2.82186C4.23457 2.80016 4.57702 2.79976 5.07573 2.79976H10.9264C11.4251 2.79976 11.7676 2.80016 12.0331 2.82186C12.2924 2.84304 12.4317 2.8819 12.5326 2.93327C12.7631 3.05072 12.9505 3.23812 13.0679 3.46862C13.1193 3.56945 13.1581 3.70876 13.1793 3.96811C13.201 4.23359 13.2014 4.57605 13.2014 5.07476V10.9255C13.2014 11.4242 13.201 11.7666 13.1793 12.0321C13.1581 12.2915 13.1193 12.4308 13.0679 12.5316C12.9505 12.7621 12.7631 12.9495 12.5326 13.0669C12.4317 13.1183 12.2924 13.1572 12.0331 13.1784C11.7676 13.2 11.4251 13.2005 10.9264 13.2005H5.07573C4.57702 13.2005 4.23457 13.2 3.96909 13.1784C3.70974 13.1572 3.57042 13.1183 3.46959 13.0669C3.2391 12.9495 3.05169 12.7621 2.93425 12.5316C2.88288 12.4308 2.84402 12.2915 2.82283 12.0321C2.80114 11.7666 2.80073 11.4242 2.80073 10.9255V5.07475C2.80073 4.57605 2.80114 4.23359 2.82283 3.96811C2.84402 3.70876 2.88288 3.56945 2.93425 3.46862C3.05169 3.23812 3.2391 3.05072 3.46959 2.93327ZM4.35581 7.47485C4.06586 7.47485 3.83081 7.7099 3.83081 7.99985C3.83081 8.2898 4.06586 8.52485 4.35581 8.52485H11.6426C11.9326 8.52485 12.1676 8.2898 12.1676 7.99985C12.1676 7.7099 11.9326 7.47485 11.6426 7.47485H4.35581Z" fill="white"/>
</svg>
