<svg width="16" height="16" viewBox="0 0 16 16" fill="none" xmlns="http://www.w3.org/2000/svg">
<path fill-rule="evenodd" clip-rule="evenodd" d="M10.0873 14.998C10.3648 14.9981 10.6026 14.9981 10.7982 14.9821C11.0042 14.9653 11.207 14.9282 11.4016 14.8291C11.6932 14.6805 11.9303 14.4434 12.0789 14.1517C12.1781 13.9572 12.2151 13.7544 12.2319 13.5484C12.2479 13.3528 12.2479 13.1149 12.2479 12.8375V3.16217C12.2479 2.88475 12.2479 2.64689 12.2319 2.45128C12.2151 2.24527 12.1781 2.04249 12.0789 1.84795C11.9303 1.5563 11.6932 1.31918 11.4016 1.17057C11.207 1.07145 11.0042 1.03443 10.7982 1.0176C10.6026 1.00162 10.3648 1.00162 10.0874 1.00163H5.91053C5.63312 1.00162 5.39526 1.00162 5.19965 1.0176C4.99364 1.03443 4.79085 1.07145 4.59632 1.17057C4.30466 1.31918 4.06754 1.5563 3.91894 1.84795C3.81982 2.04249 3.7828 2.24527 3.76597 2.45128C3.74998 2.6469 3.74999 2.88475 3.75 3.16218V12.8375C3.74999 13.1149 3.74998 13.3528 3.76597 13.5484C3.7828 13.7544 3.81982 13.9572 3.91894 14.1517C4.06754 14.4434 4.30466 14.6805 4.59632 14.8291C4.79085 14.9282 4.99364 14.9653 5.19965 14.9821C5.39526 14.9981 5.63311 14.9981 5.91053 14.998H10.0873ZM10.9476 13.9381C10.9175 13.9534 10.861 13.9736 10.7168 13.9854C10.5668 13.9977 10.3702 13.998 10.0679 13.998H5.93C5.62772 13.998 5.43108 13.9977 5.28108 13.9854C5.13691 13.9736 5.08038 13.9534 5.05031 13.9381C4.94682 13.8854 4.86268 13.8012 4.80995 13.6977C4.79463 13.6677 4.77442 13.6111 4.76265 13.467C4.75039 13.317 4.75 13.1203 4.75 12.818V3.18163C4.75 2.87935 4.75039 2.68272 4.76265 2.53271C4.77442 2.38854 4.79463 2.33201 4.80995 2.30194C4.86268 2.19845 4.94682 2.11431 5.05031 2.06158C5.08038 2.04626 5.13691 2.02606 5.28108 2.01428C5.43108 2.00202 5.62772 2.00163 5.93 2.00163H10.0679C10.3702 2.00163 10.5668 2.00202 10.7168 2.01428C10.861 2.02606 10.9175 2.04626 10.9476 2.06158C11.0511 2.11431 11.1352 2.19845 11.1879 2.30194C11.2033 2.33201 11.2235 2.38854 11.2352 2.53271C11.2475 2.68272 11.2479 2.87936 11.2479 3.18163V12.8181C11.2479 13.1203 11.2475 13.317 11.2352 13.467C11.2235 13.6111 11.2033 13.6677 11.1879 13.6977C11.1352 13.8012 11.0511 13.8854 10.9476 13.9381ZM7.10726 2.75879C6.83112 2.75879 6.60726 2.98265 6.60726 3.25879C6.60726 3.53493 6.83112 3.75879 7.10726 3.75879H8.89247C9.16861 3.75879 9.39247 3.53493 9.39247 3.25879C9.39247 2.98265 9.16861 2.75879 8.89247 2.75879H7.10726Z" fill="white"/>
</svg>
