<svg width="16" height="16" viewBox="0 0 16 16" fill="none" xmlns="http://www.w3.org/2000/svg">
<path fill-rule="evenodd" clip-rule="evenodd" d="M4.47648 3.325C4.47648 2.45515 5.18164 1.75 6.0515 1.75H9.94564C10.8155 1.75 11.5207 2.45515 11.5207 3.325V12.675C11.5207 13.5448 10.8155 14.25 9.94564 14.25H6.0515C5.18164 14.25 4.47648 13.5448 4.47648 12.675V3.325ZM6.61909 4.00781C6.61909 3.73167 6.84295 3.50781 7.1191 3.50781H8.87877C9.15491 3.50781 9.37877 3.73167 9.37877 4.00781C9.37877 4.28395 9.15491 4.50781 8.87877 4.50781H7.1191C6.84295 4.50781 6.61909 4.28395 6.61909 4.00781ZM1.65652 3.8295C1.46257 4.02607 1.4647 4.34265 1.66128 4.53659L2.35632 5.22233L1.46086 6.10581C1.17906 6.38383 1.17906 6.83861 1.46086 7.11663L2.35632 8.00011L1.46086 8.88358C1.17906 9.16161 1.17906 9.61639 1.46086 9.89441L2.35632 10.7779L1.66128 11.4636C1.4647 11.6576 1.46257 11.9741 1.65652 12.1707C1.85046 12.3673 2.16704 12.3694 2.36362 12.1755L3.2679 11.2833C3.5497 11.0053 3.5497 10.5505 3.2679 10.2725L2.37244 9.389L3.2679 8.50552C3.5497 8.2275 3.5497 7.77272 3.2679 7.49469L2.37244 6.61122L3.2679 5.72774C3.5497 5.44972 3.5497 4.99494 3.2679 4.71692L2.36362 3.82474C2.16704 3.6308 1.85046 3.63293 1.65652 3.8295ZM14.3415 3.8295C14.5354 4.02607 14.5333 4.34265 14.3367 4.53659L13.6417 5.22233L14.5371 6.10581C14.8189 6.38383 14.8189 6.83861 14.5371 7.11663L13.6417 8.00011L14.5371 8.88358C14.8189 9.16161 14.8189 9.61639 14.5371 9.89441L13.6417 10.7779L14.3367 11.4636C14.5333 11.6576 14.5354 11.9741 14.3415 12.1707C14.1475 12.3673 13.8309 12.3694 13.6344 12.1755L12.7301 11.2833C12.4483 11.0053 12.4483 10.5505 12.7301 10.2725L13.6255 9.389L12.7301 8.50552C12.4483 8.2275 12.4483 7.77272 12.7301 7.49469L13.6255 6.61122L12.7301 5.72774C12.4483 5.44972 12.4483 4.99494 12.7301 4.71692L13.6344 3.82474C13.8309 3.6308 14.1475 3.63293 14.3415 3.8295Z" fill="white"/>
</svg>
