<svg width="16" height="16" viewBox="0 0 16 16" fill="none" xmlns="http://www.w3.org/2000/svg">
<path fill-rule="evenodd" clip-rule="evenodd" d="M12.0783 14.14C12.25 13.8031 12.25 13.3621 12.25 12.48V3.52C12.25 2.63792 12.25 2.19688 12.0783 1.85996C11.9273 1.56361 11.6864 1.32267 11.39 1.17166C11.0531 1 10.6121 1 9.73 1H6.27C5.38792 1 4.94688 1 4.60996 1.17166C4.31361 1.32267 4.07267 1.56361 3.92166 1.85996C3.75 2.19688 3.75 2.63792 3.75 3.52V12.48C3.75 13.3621 3.75 13.8031 3.92166 14.14C4.07267 14.4364 4.31361 14.6773 4.60996 14.8283C4.94688 15 5.38792 15 6.27 15H9.73C10.6121 15 11.0531 15 11.39 14.8283C11.6864 14.6773 11.9273 14.4364 12.0783 14.14ZM7.1134 2.77539C6.83725 2.77539 6.6134 2.99925 6.6134 3.27539C6.6134 3.55153 6.83725 3.77539 7.1134 3.77539H8.88423C9.16037 3.77539 9.38423 3.55153 9.38423 3.27539C9.38423 2.99925 9.16037 2.77539 8.88423 2.77539H7.1134Z" fill="white"/>
</svg>
