<svg width="16" height="16" viewBox="0 0 16 16" fill="none" xmlns="http://www.w3.org/2000/svg">
<path fill-rule="evenodd" clip-rule="evenodd" d="M8.64409 1.00195H5.91053C5.63312 1.00195 5.39525 1.00194 5.19965 1.01792C4.99364 1.03475 4.79085 1.07177 4.59632 1.17089C4.30466 1.3195 4.06754 1.55662 3.91894 1.84827C3.81982 2.04281 3.7828 2.24559 3.76597 2.4516C3.74999 2.64722 3.74999 2.88507 3.75 3.1625V12.8378C3.74999 13.1152 3.74998 13.3531 3.76597 13.5487C3.7828 13.7547 3.81982 13.9575 3.91894 14.1521C4.06754 14.4437 4.30466 14.6808 4.59632 14.8294C4.79085 14.9286 4.99364 14.9656 5.19965 14.9824C5.39526 14.9984 5.6331 14.9984 5.91051 14.9984H10.0873C10.3648 14.9984 10.6026 14.9984 10.7982 14.9824C11.0042 14.9656 11.207 14.9286 11.4016 14.8294C11.6932 14.6808 11.9303 14.4437 12.0789 14.1521C12.1781 13.9575 12.2151 13.7547 12.2319 13.5487C12.2479 13.3531 12.2479 13.1153 12.2479 12.8379V8.49329C12.1658 8.49774 12.0832 8.5 12 8.5C11.7437 8.5 11.4925 8.47858 11.2479 8.43743V12.8184C11.2479 13.1206 11.2475 13.3173 11.2352 13.4673C11.2235 13.6115 11.2033 13.668 11.1879 13.6981C11.1352 13.8016 11.0511 13.8857 10.9476 13.9384C10.9175 13.9537 10.861 13.9739 10.7168 13.9857C10.5668 13.998 10.3702 13.9984 10.0679 13.9984H5.93C5.62772 13.9984 5.43109 13.998 5.28108 13.9857C5.13691 13.9739 5.08038 13.9537 5.05031 13.9384C4.94682 13.8857 4.86268 13.8016 4.80995 13.6981C4.79463 13.668 4.77443 13.6115 4.76265 13.4673C4.75039 13.3173 4.75 13.1206 4.75 12.8184V3.18195C4.75 2.87967 4.75039 2.68304 4.76265 2.53303C4.77443 2.38886 4.79463 2.33233 4.80995 2.30226C4.86268 2.19877 4.94682 2.11463 5.05031 2.0619C5.08038 2.04658 5.13691 2.02638 5.28108 2.0146C5.43109 2.00234 5.62772 2.00195 5.93 2.00195H7.96679C8.14747 1.63794 8.37598 1.30187 8.64409 1.00195ZM7.67326 2.75911H7.10726C6.83112 2.75911 6.60726 2.98297 6.60726 3.25911C6.60726 3.53525 6.83112 3.75911 7.10726 3.75911H7.50634C7.52454 3.41404 7.58161 3.07927 7.67326 2.75911Z" fill="white"/>
<path fill-rule="evenodd" clip-rule="evenodd" d="M15.75 4C15.75 6.07107 14.0711 7.75 12 7.75C9.92893 7.75 8.25 6.07107 8.25 4C8.25 1.92893 9.92893 0.25 12 0.25C14.0711 0.25 15.75 1.92893 15.75 4ZM10.3102 3.95588C10.3602 3.76917 10.5521 3.65836 10.7388 3.70839C11.1032 3.80603 11.4252 4.02116 11.6548 4.32044C11.8845 4.61972 12.0089 4.98641 12.0089 5.36364C12.0089 5.55694 11.8522 5.71364 11.6589 5.71364C11.4656 5.71364 11.3089 5.55694 11.3089 5.36364C11.3089 5.1405 11.2353 4.9236 11.0995 4.74657C10.9636 4.56955 10.7732 4.44229 10.5577 4.38454C10.3709 4.33451 10.2601 4.14259 10.3102 3.95588ZM11.2682 1.76735C11.0815 1.71732 10.8896 1.82812 10.8396 2.01483C10.7896 2.20155 10.9004 2.39346 11.0871 2.44349C11.7375 2.61779 12.3123 3.00184 12.7223 3.53609C13.1322 4.07034 13.3544 4.72494 13.3544 5.39835C13.3544 5.59165 13.5111 5.74835 13.7044 5.74835C13.8977 5.74835 14.0544 5.59165 14.0544 5.39835C14.0544 4.57084 13.7814 3.76646 13.2776 3.10996C12.7739 2.45346 12.0676 1.98152 11.2682 1.76735Z" fill="white"/>
</svg>
