<svg width="16" height="16" viewBox="0 0 16 16" fill="none" xmlns="http://www.w3.org/2000/svg">
<path fill-rule="evenodd" clip-rule="evenodd" d="M14.498 8.49961C14.2219 8.49961 13.998 8.27575 13.998 7.99961C13.998 7.21191 13.8429 6.43193 13.5414 5.7042C13.24 4.97646 12.7981 4.31523 12.2411 3.75824C11.6841 3.20125 11.0228 2.75943 10.295 2.45799C9.9926 2.33272 9.68114 2.23272 9.36385 2.15861L10.2564 3.05111C10.4517 3.24637 10.4517 3.56295 10.2564 3.75822C10.0612 3.95349 9.74459 3.9535 9.54932 3.75824L7.64593 1.85496C7.50293 1.71196 7.46014 1.4969 7.53753 1.31006C7.61492 1.12322 7.79724 1.0014 7.99947 1.0014C8.91854 1.0014 9.8286 1.18241 10.6777 1.5341C11.5268 1.88579 12.2983 2.40127 12.9482 3.05111C13.5981 3.70096 14.1136 4.47243 14.4653 5.3215C14.817 6.17056 14.998 7.08058 14.998 7.99961C14.998 8.27575 14.7742 8.49961 14.498 8.49961ZM3.35581 4.73426L4.73321 3.35694C4.92937 3.16077 5.09756 2.99258 5.24719 2.86557C5.40477 2.7318 5.57434 2.61459 5.78199 2.54713C6.09331 2.44598 6.42866 2.44598 6.73997 2.54713C6.94763 2.61459 7.1172 2.7318 7.27477 2.86557C7.4244 2.99259 7.59259 3.16078 7.78877 3.35695L12.6436 8.2115C12.8398 8.40766 13.008 8.57584 13.135 8.72546C13.2688 8.88303 13.386 9.05259 13.4535 9.26023C13.5546 9.57153 13.5546 9.90686 13.4535 10.2182C13.386 10.4258 13.2688 10.5954 13.135 10.7529C13.008 10.9025 12.8398 11.0707 12.6436 11.2669L11.2662 12.6442C11.07 12.8404 10.9018 13.0086 10.7522 13.1356C10.5946 13.2693 10.4251 13.3866 10.2174 13.454C9.90609 13.5552 9.57074 13.5552 9.25943 13.454C9.05177 13.3866 8.8822 13.2693 8.72462 13.1356C8.575 13.0086 8.40681 12.8404 8.21064 12.6442L3.35581 7.78965C3.15963 7.59349 2.99143 7.42531 2.8644 7.27569C2.73063 7.11812 2.61341 6.94856 2.54594 6.74092C2.44479 6.42962 2.44479 6.09429 2.54594 5.78299C2.61341 5.57535 2.73063 5.40579 2.8644 5.24822C2.99143 5.0986 3.15962 4.93042 3.35581 4.73426ZM3.62676 5.89538C3.53315 6.00565 3.50746 6.05991 3.49703 6.092C3.46113 6.20246 3.46113 6.32145 3.49703 6.43191C3.50746 6.464 3.53315 6.51826 3.62676 6.62853C3.72417 6.74327 3.86295 6.88258 4.07669 7.09632L8.90401 11.9234C9.11776 12.1371 9.25708 12.2759 9.37182 12.3733C9.48209 12.4669 9.53636 12.4926 9.56845 12.503C9.67892 12.5389 9.79791 12.5389 9.90838 12.503C9.94048 12.4926 9.99474 12.4669 10.105 12.3733C10.2198 12.2759 10.3591 12.1371 10.5728 11.9234L11.9227 10.5736C12.1365 10.3598 12.2752 10.2205 12.3726 10.1058C12.4663 9.9955 12.4919 9.94124 12.5024 9.90915C12.5383 9.79869 12.5383 9.6797 12.5024 9.56924C12.4919 9.53714 12.4663 9.48289 12.3726 9.37262C12.2752 9.25788 12.1365 9.11857 11.9227 8.90483L7.09539 4.07779C6.88164 3.86405 6.74232 3.72529 6.62758 3.62789C6.5173 3.53428 6.46304 3.50859 6.43094 3.49816C6.32048 3.46227 6.20148 3.46227 6.09102 3.49816C6.05892 3.50859 6.00466 3.53428 5.89438 3.62789C5.77964 3.72529 5.64032 3.86405 5.42657 4.07779L4.07669 5.42759C3.86294 5.64133 3.72417 5.78064 3.62676 5.89538ZM2.00195 7.99961C2.00195 7.72346 1.7781 7.49961 1.50195 7.49961C1.22581 7.49961 1.00195 7.72346 1.00195 7.99961C1.00195 8.91863 1.18298 9.82865 1.53469 10.6777C1.8864 11.5268 2.40192 12.2983 3.0518 12.9481C3.70167 13.5979 4.47319 14.1134 5.3223 14.4651C6.1714 14.8168 7.08146 14.9978 8.00052 14.9978C8.20276 14.9978 8.38508 14.876 8.46247 14.6891C8.53986 14.5023 8.49707 14.2872 8.35407 14.1443L6.45068 12.241C6.25541 12.0457 5.93883 12.0457 5.74357 12.241C5.54832 12.4363 5.54832 12.7528 5.74359 12.9481L6.63615 13.8406C6.31886 13.7665 6.0074 13.6665 5.70496 13.5412C4.97718 13.2398 4.3159 12.798 3.75888 12.241C3.20186 11.684 2.76002 11.0227 2.45856 10.295C2.15711 9.56728 2.00195 8.7873 2.00195 7.99961Z" fill="white"/>
</svg>
