<svg width="16" height="16" viewBox="0 0 16 16" fill="none" xmlns="http://www.w3.org/2000/svg">
<path fill-rule="evenodd" clip-rule="evenodd" d="M14.498 8.49961C14.2219 8.49961 13.998 8.27575 13.998 7.99961C13.998 7.2119 13.8429 6.43192 13.5415 5.70418C13.2401 4.97644 12.7983 4.3152 12.2414 3.75822C11.6844 3.20123 11.0232 2.75941 10.2956 2.45798C9.99322 2.33273 9.68184 2.23273 9.36464 2.15863L10.2571 3.05114C10.4523 3.24641 10.4523 3.56299 10.257 3.75825C10.0618 3.9535 9.74519 3.95349 9.54994 3.75822L7.64682 1.85493C7.50383 1.71193 7.46106 1.49688 7.53845 1.31004C7.61584 1.12321 7.79816 1.0014 8.00038 1.0014C8.91934 1.0014 9.82929 1.18241 10.6783 1.53411C11.5273 1.88581 12.2987 2.40129 12.9485 3.05114C13.5983 3.70098 14.1137 4.47246 14.4654 5.32152C14.817 6.17058 14.998 7.08059 14.998 7.99961C14.998 8.27575 14.7742 8.49961 14.498 8.49961ZM3.5748 8.04394C2.9511 7.42019 2.63925 7.10831 2.52241 6.74868C2.41963 6.43234 2.41963 6.09157 2.52241 5.77523C2.63925 5.4156 2.9511 5.10372 3.5748 4.47997L4.4815 3.5732C5.1052 2.94945 5.41705 2.63757 5.77665 2.52072C6.09297 2.41793 6.4337 2.41793 6.75001 2.52072C7.10962 2.63757 7.42147 2.94945 8.04517 3.5732L12.4288 7.95721C13.0525 8.58096 13.3644 8.89284 13.4812 9.25247C13.584 9.56881 13.584 9.90958 13.4812 10.2259C13.3644 10.5855 13.0525 10.8974 12.4288 11.5212L11.5221 12.4279C10.8984 13.0517 10.5866 13.3636 10.227 13.4804C9.91065 13.5832 9.56992 13.5832 9.2536 13.4804C8.894 13.3636 8.58215 13.0517 7.95845 12.4279L3.5748 8.04394ZM2.00195 7.99961C2.00195 7.72346 1.7781 7.49961 1.50195 7.49961C1.22581 7.49961 1.00195 7.72346 1.00195 7.99961C1.00195 8.91862 1.18295 9.82863 1.53461 10.6777C1.88627 11.5267 2.40171 12.2982 3.0515 12.9481C3.7013 13.5979 4.47271 14.1134 5.32171 14.4651C6.17071 14.8168 7.08066 14.9978 7.99962 14.9978C8.20184 14.9978 8.38416 14.876 8.46155 14.6892C8.53894 14.5023 8.49617 14.2873 8.35318 14.1443L6.45006 12.241C6.25481 12.0457 5.93822 12.0457 5.74295 12.241C5.54768 12.4362 5.54767 12.7528 5.74292 12.9481L6.63536 13.8406C6.31816 13.7665 6.00678 13.6665 5.70442 13.5412C4.97675 13.2398 4.31558 12.798 3.75864 12.241C3.2017 11.684 2.75992 11.0228 2.4585 10.295C2.15709 9.5673 2.00195 8.78731 2.00195 7.99961Z" fill="white"/>
</svg>
