<svg width="16" height="16" viewBox="0 0 16 16" fill="none" xmlns="http://www.w3.org/2000/svg">
<path fill-rule="evenodd" clip-rule="evenodd" d="M3.57446 1.49805C3.39168 1.49805 3.22346 1.59779 3.13577 1.75816C3.04807 1.91853 3.05488 2.11398 3.15351 2.26786L4.94416 5.06152C3.4716 5.79407 2.34033 7.14507 1.92304 8.82403L1.87005 9.03724C1.24293 11.5605 3.15194 14.002 5.75195 14.002H10.2436C12.8436 14.002 14.7526 11.5605 14.1255 9.03724L14.0725 8.82403C13.6551 7.1446 12.5233 5.79332 11.0501 5.0609L12.8404 2.26786C12.939 2.11398 12.9458 1.91853 12.8581 1.75816C12.7704 1.59779 12.6022 1.49805 12.4194 1.49805H3.57446ZM5.97108 4.81055L4.48884 2.49805H11.5051L10.0228 4.81055H5.97108ZM5.71355 5.81055C4.3395 6.36996 3.26814 7.55794 2.89352 9.06523L2.84053 9.27844C2.37018 11.1709 3.80194 13.002 5.75195 13.002H10.2436C12.1936 13.002 13.6254 11.1709 13.155 9.27844L13.102 9.06523C12.7274 7.55794 11.656 6.36995 10.282 5.81055H5.71355Z" fill="white"/>
</svg>
