<svg width="16" height="16" viewBox="0 0 16 16" fill="none" xmlns="http://www.w3.org/2000/svg">
<path fill-rule="evenodd" clip-rule="evenodd" d="M3.18646 2.5C2.9095 2.49999 2.67055 2.49998 2.47375 2.51606C2.26603 2.53303 2.05943 2.5705 1.86063 2.6718C1.56405 2.82292 1.32292 3.06405 1.1718 3.36063C1.0705 3.55943 1.03303 3.76603 1.01606 3.97375C0.999984 4.17055 0.999991 4.40948 1 4.68643V11.3153C0.999991 11.5923 0.999984 11.8313 1.01606 12.028C1.03303 12.2358 1.0705 12.4424 1.1718 12.6412C1.32292 12.9378 1.56405 13.1789 1.86063 13.33C2.05943 13.4313 2.26603 13.4688 2.47375 13.4857C2.67052 13.5018 2.9094 13.5018 3.18631 13.5018H12.8151C13.092 13.5018 13.331 13.5018 13.5278 13.4857C13.7355 13.4688 13.9421 13.4313 14.1409 13.33C14.4375 13.1789 14.6786 12.9378 14.8298 12.6412C14.9311 12.4424 14.9685 12.2358 14.9855 12.028C15.0016 11.8313 15.0016 11.5924 15.0016 11.3155V4.68647C15.0016 4.40957 15.0016 4.17052 14.9855 3.97375C14.9685 3.76603 14.9311 3.55943 14.8298 3.36063C14.6786 3.06405 14.4375 2.82292 14.1409 2.6718C13.9421 2.5705 13.7355 2.53303 13.5278 2.51606C13.331 2.49998 13.0921 2.49999 12.8151 2.5H3.18646ZM2.33769 3.60808C2.36367 3.59484 2.41659 3.57505 2.55932 3.56338C2.70819 3.55122 2.90378 3.55081 3.2067 3.55081H3.80077V5.0742H2.05081V4.7067C2.05081 4.40378 2.05122 4.20819 2.06338 4.05932C2.07505 3.91659 2.09484 3.86367 2.10808 3.83769C2.15845 3.73883 2.23883 3.65845 2.33769 3.60808ZM2.05081 10.9288V11.2951C2.05081 11.598 2.05122 11.7936 2.06338 11.9425C2.07505 12.0852 2.09484 12.1381 2.10808 12.1641C2.15845 12.263 2.23883 12.3433 2.33769 12.3937C2.36367 12.407 2.41659 12.4268 2.55932 12.4384C2.70819 12.4506 2.90378 12.451 3.20671 12.451H3.80077V10.9288H2.05081ZM2.05081 9.87799H3.80077V8.52638H2.05081V9.87799ZM2.05081 7.47557H3.80077V6.12502H2.05081V7.47557ZM12.7949 12.451H12.2012V10.9288H13.9507V11.2951C13.9507 11.598 13.9503 11.7936 13.9382 11.9425C13.9265 12.0852 13.9067 12.1381 13.8935 12.1641C13.8431 12.263 13.7627 12.3433 13.6639 12.3937C13.6379 12.407 13.585 12.4268 13.4422 12.4384C13.2934 12.4506 13.0978 12.451 12.7949 12.451ZM13.9507 9.87799H12.2012V8.52638H13.9507V9.87799ZM12.2012 6.12502V7.47557H13.9507V6.12502H12.2012ZM12.2012 3.55081V5.0742H13.9507V4.7067C13.9507 4.40378 13.9503 4.20819 13.9382 4.05932C13.9265 3.91659 13.9067 3.86367 13.8935 3.83769C13.8431 3.73883 13.7627 3.65845 13.6639 3.60808C13.6379 3.59484 13.585 3.57505 13.4422 3.56338C13.2934 3.55122 13.0978 3.55081 12.7949 3.55081H12.2012Z" fill="white"/>
</svg>
