<svg width="16" height="16" viewBox="0 0 16 16" fill="none" xmlns="http://www.w3.org/2000/svg">
<path fill-rule="evenodd" clip-rule="evenodd" d="M3.16184 2.5H12.836C13.1137 2.49999 13.3517 2.49999 13.5474 2.51598C13.7536 2.53282 13.9565 2.56986 14.1511 2.66903C14.4429 2.81771 14.6801 3.05496 14.8288 3.34676C14.928 3.54138 14.965 3.74427 14.9819 3.95041C14.9979 4.14613 14.9979 4.38411 14.9979 4.66171V5.57027L14.9981 5.58668L14.9979 5.60309V7.98457C14.998 7.99002 14.9981 7.99549 14.9981 8.00098C14.9981 8.00647 14.998 8.01194 14.9979 8.01739V10.3986L14.9981 10.415L14.9979 10.4314V11.3394C14.9979 11.617 14.9979 11.8551 14.9819 12.0508C14.965 12.257 14.928 12.4598 14.8288 12.6545C14.6801 12.9463 14.4429 13.1835 14.1511 13.3322C13.9565 13.4314 13.7536 13.4684 13.5474 13.4852C13.3517 13.5012 13.1137 13.5012 12.8361 13.5012H3.16182C2.88423 13.5012 2.64613 13.5012 2.45041 13.4852C2.24427 13.4684 2.04138 13.4314 1.84676 13.3322C1.55495 13.1835 1.31771 12.9463 1.16903 12.6545C1.06986 12.4598 1.03282 12.257 1.01598 12.0508C0.999984 11.8551 0.999992 11.617 1 11.3394V4.66184C0.999992 4.38419 0.999984 4.14616 1.01598 3.95041C1.03282 3.74427 1.06986 3.54138 1.16903 3.34676C1.31771 3.05496 1.55495 2.81771 1.84676 2.66903C2.04138 2.56986 2.24427 2.53282 2.45041 2.51598C2.64616 2.49999 2.88419 2.49999 3.16184 2.5ZM13.9979 7.50098V6.08668H12.1875V7.50098H13.9979ZM12.1875 8.50098H13.9979V9.91504H12.1875V8.50098ZM12.1875 12.5012V10.915H13.9979V11.3199C13.9979 11.6224 13.9975 11.8192 13.9852 11.9694C13.9734 12.1137 13.9532 12.1703 13.9378 12.2005C13.885 12.3041 13.8007 12.3884 13.6971 12.4412C13.6669 12.4566 13.6103 12.4768 13.466 12.4886C13.3159 12.5008 13.1191 12.5012 12.8166 12.5012H12.1875ZM13.9979 5.08668V4.6813C13.9979 4.37879 13.9975 4.18199 13.9852 4.03184C13.9734 3.88754 13.9532 3.83091 13.9378 3.80075C13.885 3.69711 13.8007 3.61284 13.6971 3.56004C13.6669 3.54467 13.6103 3.52445 13.466 3.51266C13.3159 3.50039 13.1191 3.5 12.8166 3.5H12.1875V5.08668H13.9979ZM2.53184 3.51266C2.38754 3.52445 2.33091 3.54467 2.30075 3.56004C2.19711 3.61284 2.11284 3.69711 2.06004 3.80075C2.04467 3.83091 2.02445 3.88754 2.01266 4.03184C2.00039 4.18199 2 4.37879 2 4.6813V5.08668H3.81055V3.5H3.1813C2.87879 3.5 2.68199 3.50039 2.53184 3.51266ZM2 11.3199V10.915H3.81055V12.5012H3.1813C2.87879 12.5012 2.68199 12.5008 2.53184 12.4886C2.38754 12.4768 2.33091 12.4566 2.30075 12.4412C2.19711 12.3884 2.11284 12.3041 2.06004 12.2005C2.04467 12.1703 2.02445 12.1137 2.01266 11.9694C2.00039 11.8192 2 11.6224 2 11.3199ZM3.81055 9.91504H2V8.50098H3.81055V9.91504ZM3.81055 7.50098H2V6.08668H3.81055V7.50098ZM11.1875 12.5012H4.81055V3.5H11.1875V12.5012Z" fill="white"/>
</svg>
