<svg width="16" height="16" viewBox="0 0 16 16" fill="none" xmlns="http://www.w3.org/2000/svg">
<path fill-rule="evenodd" clip-rule="evenodd" d="M12.3002 2.02165C12.6512 1.92247 12.9997 2.18618 12.9997 2.55093V3.59206L6.54883 5.41492V4.06295C6.54883 3.8168 6.71239 3.60061 6.94927 3.53368L12.3002 2.02165ZM12.9997 9.47153V4.63122L6.54883 6.45407V12.743C6.54872 13.9932 5.52464 14.9973 4.27402 14.9973C3.02334 14.9973 2 13.9931 2 12.7428C2 11.4925 3.02334 10.4883 4.27402 10.4883C4.74547 10.4883 5.18462 10.631 5.54883 10.8757V4.06295C5.54883 3.36924 6.00977 2.76 6.67734 2.57136L12.0282 1.05933C13.0174 0.779817 13.9997 1.52301 13.9997 2.55093V11.3394C13.9994 12.5894 12.9757 13.5933 11.7252 13.5933C10.4745 13.5933 9.45117 12.5891 9.45117 11.3388C9.45117 10.0884 10.4745 9.08425 11.7252 9.08425C12.1965 9.08425 12.6356 9.22687 12.9997 9.47153ZM11.7252 10.0842C11.0163 10.0842 10.4512 10.6511 10.4512 11.3388C10.4512 12.0264 11.0163 12.5933 11.7252 12.5933C12.434 12.5933 12.9992 12.0264 12.9992 11.3388C12.9992 10.6511 12.434 10.0842 11.7252 10.0842ZM4.27402 11.4883C3.56518 11.4883 3 12.0551 3 12.7428C3 13.4304 3.56518 13.9973 4.27402 13.9973C4.98287 13.9973 5.54805 13.4304 5.54805 12.7428C5.54805 12.0551 4.98287 11.4883 4.27402 11.4883Z" fill="white"/>
</svg>
