<svg width="16" height="16" viewBox="0 0 16 16" fill="none" xmlns="http://www.w3.org/2000/svg">
<path fill-rule="evenodd" clip-rule="evenodd" d="M10.7232 2.49999C9.18789 2.49999 7.94342 3.74436 7.94342 5.27916C7.94342 6.81396 9.18789 8.05833 10.7232 8.05833C12.2586 8.05833 13.503 6.81396 13.503 5.27916C13.503 3.74436 12.2586 2.49999 10.7232 2.49999ZM6.94342 5.27916C6.94342 3.1919 8.63579 1.5 10.7232 1.5C12.8107 1.5 14.503 3.1919 14.503 5.27916C14.503 7.36642 12.8107 9.05832 10.7232 9.05832C10.5032 9.05832 10.2875 9.03952 10.0778 9.00344L4.73334 13.5597C4.39598 13.8473 3.89418 13.8274 3.58068 13.514L3.38809 13.3214L2.35461 14.3547C2.15933 14.5499 1.84272 14.5499 1.64744 14.3547C1.45216 14.1594 1.45216 13.8429 1.64744 13.6477L2.68091 12.6144L2.4858 12.4193C2.17229 12.1059 2.15237 11.6042 2.44004 11.2669L6.99797 5.92251C6.96211 5.71343 6.94342 5.49848 6.94342 5.27916ZM7.37079 7.02644C7.72844 7.711 8.28969 8.27237 8.97418 8.63024L4.18987 12.709L3.29094 11.8102L7.37079 7.02644Z" fill="white"/>
</svg>
