<svg width="16" height="16" viewBox="0 0 16 16" fill="none" xmlns="http://www.w3.org/2000/svg">
<path fill-rule="evenodd" clip-rule="evenodd" d="M2.00195 7.99998C2.00195 4.68726 4.68744 2.00177 8.00016 2.00177C11.3129 2.00177 13.9984 4.68726 13.9984 7.99998C13.9984 11.3127 11.3129 13.9982 8.00016 13.9982C4.68744 13.9982 2.00195 11.3127 2.00195 7.99998ZM8.00016 1.00177C4.13516 1.00177 1.00195 4.13497 1.00195 7.99998C1.00195 11.865 4.13516 14.9982 8.00016 14.9982C11.8652 14.9982 14.9984 11.865 14.9984 7.99998C14.9984 4.13497 11.8652 1.00177 8.00016 1.00177ZM9.22056 3.44549C8.95382 3.37402 8.67966 3.53231 8.60818 3.79904C8.53671 4.06577 8.695 4.33994 8.96174 4.41141C9.59165 4.5802 10.166 4.91182 10.6271 5.37294C11.0883 5.83407 11.4199 6.40845 11.5887 7.03835C11.6601 7.30509 11.9343 7.46338 12.201 7.39191C12.4678 7.32044 12.6261 7.04627 12.5546 6.77954C12.3404 5.98007 11.9195 5.25108 11.3343 4.66583C10.749 4.08059 10.02 3.6597 9.22056 3.44549ZM3.79937 8.60785C4.0661 8.53638 4.34027 8.69467 4.41174 8.96141C4.58053 9.59131 4.91215 10.1657 5.37327 10.6268C5.83439 11.0879 6.40878 11.4196 7.03868 11.5883C7.30542 11.6598 7.46371 11.934 7.39224 12.2007C7.32077 12.4675 7.0466 12.6257 6.77986 12.5543C5.9804 12.3401 5.25141 11.9192 4.66616 11.3339C4.08092 10.7487 3.66003 10.0197 3.44582 9.22023C3.37435 8.95349 3.53264 8.67932 3.79937 8.60785ZM6.56836 7.99978C6.56836 7.20897 7.20944 6.56788 8.00026 6.56788C8.79108 6.56788 9.43216 7.20897 9.43216 7.99978C9.43216 8.7906 8.79108 9.43168 8.00026 9.43168C7.20944 9.43168 6.56836 8.7906 6.56836 7.99978ZM8.00026 5.56788C6.65716 5.56788 5.56836 6.65668 5.56836 7.99978C5.56836 9.34288 6.65716 10.4317 8.00026 10.4317C9.34336 10.4317 10.4322 9.34288 10.4322 7.99978C10.4322 6.65668 9.34336 5.56788 8.00026 5.56788Z" fill="white"/>
</svg>
