<svg width="16" height="16" viewBox="0 0 16 16" fill="none" xmlns="http://www.w3.org/2000/svg">
<path fill-rule="evenodd" clip-rule="evenodd" d="M8 15C11.866 15 15 11.866 15 8C15 4.13401 11.866 1 8 1C4.13401 1 1 4.13401 1 8C1 11.866 4.13401 15 8 15ZM9.21723 3.45995C8.9505 3.38848 8.67633 3.54677 8.60486 3.81351C8.53339 4.08024 8.69168 4.35441 8.95841 4.42588C9.58577 4.59398 10.1578 4.92425 10.6171 5.38351C11.0763 5.84277 11.4066 6.41482 11.5747 7.04217C11.6462 7.30891 11.9203 7.4672 12.1871 7.39573C12.4538 7.32426 12.6121 7.05009 12.5406 6.78336C12.3271 5.98645 11.9076 5.25978 11.3242 4.6764C10.7408 4.09302 10.0141 3.67349 9.21723 3.45995ZM3.81448 8.60388C4.08122 8.53241 4.35538 8.6907 4.42686 8.95744C4.59495 9.58479 4.92523 10.1568 5.38449 10.6161C5.84374 11.0754 6.4158 11.4056 7.04315 11.5737C7.30988 11.6452 7.46817 11.9194 7.3967 12.1861C7.32523 12.4528 7.05106 12.6111 6.78433 12.5397C5.98742 12.3261 5.26076 11.9066 4.67738 11.3232C4.094 10.7398 3.67446 10.0132 3.46093 9.21625C3.38946 8.94952 3.54775 8.67535 3.81448 8.60388ZM7.99922 9.9252C9.06237 9.9252 9.92422 9.06334 9.92422 8.0002C9.92422 6.93705 9.06237 6.0752 7.99922 6.0752C6.93607 6.0752 6.07422 6.93705 6.07422 8.0002C6.07422 9.06334 6.93607 9.9252 7.99922 9.9252Z" fill="white"/>
</svg>
