<svg width="16" height="16" viewBox="0 0 16 16" fill="none" xmlns="http://www.w3.org/2000/svg">
<path fill-rule="evenodd" clip-rule="evenodd" d="M8.82542 1.34795C8.78438 1.21719 8.59931 1.21719 8.55827 1.34795L8.40968 1.82137C8.27104 2.2631 7.923 2.60772 7.47992 2.74198L6.99678 2.88838C6.86425 2.92854 6.86425 3.11618 6.99678 3.15635L7.47992 3.30275C7.923 3.43701 8.27104 3.78163 8.40968 4.22335L8.55827 4.69677C8.59931 4.82754 8.78438 4.82754 8.82542 4.69677L8.97401 4.22335C9.11264 3.78163 9.46069 3.43701 9.90376 3.30275L10.3869 3.15635C10.5194 3.11618 10.5194 2.92854 10.3869 2.88838L9.90376 2.74198C9.46069 2.60772 9.11264 2.2631 8.97401 1.82137L8.82542 1.34795ZM3.53908 4.91816C3.59239 4.75889 3.81767 4.75889 3.87098 4.91816L4.07369 5.52378C4.28536 6.15616 4.7848 6.65042 5.41936 6.85548L6.03937 7.05584C6.20095 7.10806 6.20095 7.33667 6.03937 7.38888L5.41936 7.58924C4.7848 7.7943 4.28536 8.28856 4.07369 8.92095L3.87098 9.52656C3.81767 9.68583 3.59239 9.68583 3.53908 9.52656L3.33638 8.92095C3.12471 8.28856 2.62527 7.7943 1.99071 7.58924L1.3707 7.38888C1.20912 7.33667 1.20912 7.10806 1.3707 7.05584L1.99071 6.85548C2.62527 6.65042 3.12471 6.15616 3.33638 5.52378L3.53908 4.91816ZM13.4142 5.30875C14.0906 5.13724 14.7499 5.63906 14.7499 6.32544V12.7012C14.752 12.7338 14.7531 12.7667 14.7531 12.7998C14.7531 13.6282 14.0696 14.2998 13.2265 14.2998C12.3834 14.2998 11.6999 13.6282 11.6999 12.7998C11.6999 11.9714 12.3834 11.2998 13.2265 11.2998C13.3849 11.2998 13.5376 11.3235 13.6813 11.3675V8.42545L9.2287 9.55448V13.2357C9.24423 13.3215 9.25233 13.4098 9.25233 13.5C9.25233 14.3284 8.56885 15 7.72574 15C6.88263 15 6.19915 14.3284 6.19915 13.5C6.19915 12.6716 6.88263 12 7.72574 12C7.87664 12 8.02242 12.0215 8.16009 12.0616V7.45448C8.16009 6.97563 8.4898 6.55744 8.96168 6.43779L13.4142 5.30875Z" fill="white"/>
</svg>
