<svg width="16" height="16" viewBox="0 0 16 16" fill="none" xmlns="http://www.w3.org/2000/svg">
<path fill-rule="evenodd" clip-rule="evenodd" d="M7.99949 1C6.06677 1 4.5 2.56678 4.5 4.49949V8.82843C4.5 10.5932 5.80628 12.0528 7.50467 12.2932C7.50159 12.3156 7.5 12.3385 7.5 12.3618V13.9991H6.58789C6.31175 13.9991 6.08789 14.2229 6.08789 14.4991C6.08789 14.7752 6.31175 14.9991 6.58789 14.9991H9.41094C9.68708 14.9991 9.91094 14.7752 9.91094 14.4991C9.91094 14.2229 9.68708 13.9991 9.41094 13.9991H8.5V12.3618C8.5 12.3385 8.4984 12.3155 8.49531 12.2931C10.1932 12.0522 11.499 10.5928 11.499 8.82843V4.49949C11.499 2.56677 9.9322 1 7.99949 1ZM5.5172 4.20475C5.66304 2.96322 6.71878 2 7.99949 2C9.2802 2 10.3359 2.96322 10.4818 4.20475H9.23438C8.95823 4.20475 8.73438 4.4286 8.73438 4.70475C8.73438 4.98089 8.95823 5.20475 9.23438 5.20475H10.499V6.34152H9.23438C8.95823 6.34152 8.73438 6.56538 8.73438 6.84152C8.73438 7.11766 8.95823 7.34152 9.23438 7.34152H10.499V8.47878H9.23438C8.95823 8.47878 8.73438 8.70264 8.73438 8.97878C8.73438 9.25492 8.95823 9.47878 9.23438 9.47878H10.4135C10.1273 10.5439 9.15495 11.3279 7.99949 11.3279C6.84402 11.3279 5.87168 10.5439 5.58545 9.47878H6.76374C7.03989 9.47878 7.26374 9.25492 7.26374 8.97878C7.26374 8.70264 7.03989 8.47878 6.76374 8.47878H5.5V7.34152H6.76374C7.03989 7.34152 7.26374 7.11766 7.26374 6.84152C7.26374 6.56538 7.03989 6.34152 6.76374 6.34152H5.5V5.20475H6.76374C7.03989 5.20475 7.26374 4.98089 7.26374 4.70475C7.26374 4.4286 7.03989 4.20475 6.76374 4.20475H5.5172Z" fill="white"/>
</svg>
