<svg width="16" height="16" viewBox="0 0 16 16" fill="none" xmlns="http://www.w3.org/2000/svg">
<path fill-rule="evenodd" clip-rule="evenodd" d="M8.831 1.09787C8.7899 0.967215 8.605 0.967215 8.5639 1.09787L8.4154 1.56995C8.27647 2.01158 7.92821 2.35596 7.48506 2.48994L7.00201 2.63598C6.86936 2.67609 6.86936 2.8639 7.00201 2.904L7.48506 3.05004C7.92821 3.18402 8.27647 3.52841 8.4154 3.97003L8.5639 4.44212C8.605 4.57277 8.7899 4.57277 8.831 4.44212L8.97951 3.97003C9.11843 3.52841 9.46669 3.18402 9.90984 3.05004L10.3929 2.904C10.5255 2.8639 10.5255 2.67609 10.3929 2.63598L9.90984 2.48994C9.46669 2.35596 9.11843 2.01158 8.97951 1.56995L8.831 1.09787ZM3.54138 4.66236C3.59476 4.50324 3.81982 4.50324 3.8732 4.66236L4.07575 5.26612C4.28785 5.89835 4.78761 6.39226 5.42229 6.59689L6.0423 6.79679C6.20403 6.84894 6.20403 7.07776 6.0423 7.12991L5.42229 7.32981C4.78761 7.53444 4.28785 8.02835 4.07575 8.66057L3.8732 9.26434C3.81982 9.42346 3.59476 9.42346 3.54138 9.26434L3.33883 8.66057C3.12673 8.02835 2.62697 7.53444 1.99229 7.32981L1.37228 7.12991C1.21054 7.07776 1.21054 6.84894 1.37228 6.79679L1.99229 6.59689C2.62697 6.39226 3.12673 5.89835 3.33883 5.26612L3.54138 4.66236ZM13.6933 6.04059C13.6991 6.03912 13.7023 6.03952 13.7044 6.03999C13.7073 6.04063 13.711 6.04217 13.7148 6.0451C13.7185 6.04802 13.7209 6.05125 13.7223 6.05387C13.7232 6.05582 13.7244 6.05883 13.7244 6.06482V7.09787L9.19944 8.24265V7.19696C9.19944 7.18551 9.20721 7.17553 9.21831 7.17272L13.6933 6.04059ZM13.7244 10.9961V8.12937L9.19944 9.27416V13.1935C9.20011 13.2132 9.20045 13.233 9.20045 13.2528C9.20045 14.2138 8.40863 14.9759 7.45287 14.9759C6.49712 14.9759 5.7053 14.2138 5.7053 13.2528C5.7053 12.2919 6.49712 11.5298 7.45287 11.5298C7.71895 11.5298 7.97232 11.5889 8.19944 11.6948V7.19696C8.19944 6.72769 8.51811 6.31836 8.97304 6.20326L13.448 5.07113C14.0956 4.90729 14.7244 5.3968 14.7244 6.06482V12.4838C14.7254 12.5072 14.7258 12.5307 14.7258 12.5543C14.7258 13.5152 13.934 14.2773 12.9783 14.2773C12.0225 14.2773 11.2307 13.5152 11.2307 12.5543C11.2307 11.5933 12.0225 10.8312 12.9783 10.8312C13.2442 10.8312 13.4974 10.8902 13.7244 10.9961ZM13.7244 12.5096C13.7007 12.1392 13.3843 11.8312 12.9783 11.8312C12.556 11.8312 12.2307 12.1642 12.2307 12.5543C12.2307 12.9443 12.556 13.2773 12.9783 13.2773C13.4005 13.2773 13.7258 12.9443 13.7258 12.5543L13.7244 12.5541V12.5096ZM8.19944 13.2152C8.17933 12.8417 7.86151 12.5298 7.45287 12.5298C7.03059 12.5298 6.7053 12.8628 6.7053 13.2528C6.7053 13.6429 7.03059 13.9759 7.45287 13.9759C7.87512 13.9759 8.20039 13.6429 8.20045 13.2529H8.19944V13.2152Z" fill="white"/>
</svg>
