<svg width="16" height="16" viewBox="0 0 16 16" fill="none" xmlns="http://www.w3.org/2000/svg">
<path fill-rule="evenodd" clip-rule="evenodd" d="M12.9411 9.40909V4.67759L6.58812 6.47644V12.7055C6.5882 12.7131 6.58824 12.7208 6.58824 12.7285C6.58824 13.9842 5.56112 15.0021 4.29412 15.0021C3.02711 15.0021 2 13.9842 2 12.7285C2 11.4729 3.02711 10.455 4.29412 10.455C4.74888 10.455 5.17274 10.5861 5.5293 10.8123V4.07399C5.5293 3.37123 5.99938 2.75362 6.68121 2.56056L11.9753 1.06152C12.9899 0.774236 13.9999 1.52922 13.9999 2.57495V11.2795C14.0002 11.2948 14.0003 11.3101 14.0003 11.3255C14.0003 12.5812 12.9732 13.5991 11.7062 13.5991C10.4392 13.5991 9.41211 12.5812 9.41211 11.3255C9.41211 10.0699 10.4392 9.05198 11.7062 9.05198C12.1608 9.05198 12.5846 9.18303 12.9411 9.40909Z" fill="white"/>
</svg>
