<svg width="16" height="16" viewBox="0 0 16 16" fill="none" xmlns="http://www.w3.org/2000/svg">
<path fill-rule="evenodd" clip-rule="evenodd" d="M13.2345 3.55843C13.0441 3.45729 12.8025 3.48803 12.6436 3.64955C12.4867 3.80902 12.4586 4.04705 12.5582 4.23466L13.2345 3.55843ZM11.0209 5.77195C10.9568 5.73791 10.9169 5.71216 10.8597 5.65287C10.6678 5.45423 10.3513 5.4487 10.1527 5.64052C9.95403 5.83235 9.94851 6.14888 10.1403 6.34752C10.1939 6.40301 10.2481 6.4509 10.3006 6.49227L11.0209 5.77195ZM10.9187 7.28838L11.716 6.49107C11.9037 6.97089 12 7.48325 12 8.0002C12 8.52777 11.8997 9.05057 11.7043 9.53888C11.509 10.0272 11.2223 10.472 10.8597 10.8475C10.6678 11.0462 10.3513 11.0517 10.1527 10.8599C9.95403 10.668 9.94851 10.3515 10.1403 10.1529C10.4118 9.87174 10.628 9.53706 10.7759 9.16749C10.9237 8.7979 11 8.4012 11 8.0002C11 7.75974 10.9726 7.52083 10.9187 7.28838ZM8 8.79289V4.25669C8 3.39424 8 2.96301 7.83038 2.76597C7.68324 2.59505 7.46281 2.50542 7.23815 2.52515C6.97915 2.54791 6.67821 2.85677 6.07634 3.47448L4.25264 5.34617C3.87798 5.73069 3.36387 5.94756 2.82699 5.94756C2.09412 5.94756 1.5 6.54168 1.5 7.27456V8.72583C1.5 9.45871 2.09412 10.0528 2.82699 10.0528C3.36387 10.0528 3.87798 10.2697 4.25264 10.6542L5.18341 11.6095L8 8.79289ZM5.88133 12.3258L8 10.2071V11.7437C8 12.6062 8 13.0374 7.83038 13.2344C7.68324 13.4053 7.46281 13.495 7.23815 13.4752C6.97915 13.4525 6.67821 13.1436 6.07634 12.5259L5.88133 12.3258ZM13.2241 4.983L13.9418 4.2653C13.9656 4.29597 13.9884 4.32691 14.0103 4.3585C14.1672 4.58517 14.2736 4.83781 14.4352 5.22165L14.441 5.23549C14.81 6.11176 15 7.05123 15 8.0002C15 8.94916 14.81 9.88864 14.441 10.7649C14.0721 11.6412 13.5315 12.4368 12.8506 13.1066C12.6538 13.3003 12.3372 13.2977 12.1436 13.1008C11.9499 12.904 11.9525 12.5874 12.1494 12.3938C12.7366 11.816 13.202 11.1306 13.5194 10.3768C13.8368 9.62311 14 8.81554 14 8.0002C14 7.18485 13.8368 6.37729 13.5194 5.62354C13.3663 5.25996 13.296 5.10036 13.2241 4.983Z" fill="white"/>
<path fill-rule="evenodd" clip-rule="evenodd" d="M14.4454 1.64645C14.6406 1.84171 14.6406 2.15829 14.4454 2.35355L2.56596 14.2329C2.37069 14.4282 2.05411 14.4282 1.85885 14.2329C1.66359 14.0377 1.66359 13.7211 1.85885 13.5258L13.7382 1.64645C13.9335 1.45118 14.2501 1.45118 14.4454 1.64645Z" fill="white"/>
</svg>
