<svg width="16" height="16" viewBox="0 0 16 16" fill="none" xmlns="http://www.w3.org/2000/svg">
<path d="M13.7383 1.64651C13.9335 1.45125 14.2501 1.45125 14.4453 1.64651C14.6406 1.84177 14.6406 2.15828 14.4453 2.35354L2.56641 14.2324C2.37114 14.4277 2.05366 14.4277 1.8584 14.2324C1.66361 14.0372 1.66331 13.7205 1.8584 13.5254L4.52441 10.8594L4.25293 10.6543C3.8783 10.2698 3.36397 10.0528 2.82715 10.0528C2.09427 10.0528 1.5 9.45849 1.5 8.72561V7.27444C1.50006 6.54161 2.09431 5.94729 2.82715 5.94729C3.36397 5.94725 3.8783 5.73022 4.25293 5.34573L6.07617 3.47463C6.67805 2.85692 6.97928 2.54817 7.23828 2.52541C7.46277 2.50573 7.68296 2.59496 7.83008 2.76565C7.9997 2.96269 8 3.39441 8 4.25686V7.38381L13.7383 1.64651Z" fill="white"/>
<path d="M8 11.7442C8 12.6063 7.99967 13.0374 7.83008 13.2344C7.68298 13.4052 7.46283 13.4953 7.23828 13.4756C6.97928 13.4529 6.67805 13.1431 6.07617 12.5254L5.88086 12.3262L8 10.2071V11.7442Z" fill="white"/>
<path d="M14.0107 4.35842C14.1676 4.58505 14.274 4.83797 14.4355 5.2217L14.4414 5.23537C14.8103 6.11158 15 7.05113 15 8.00002C15 8.94887 14.8103 9.88849 14.4414 10.7647C14.0725 11.6409 13.5315 12.4366 12.8506 13.1065C12.6537 13.3001 12.3372 13.2975 12.1436 13.1006C11.95 12.9037 11.9526 12.5872 12.1494 12.3936C12.7366 11.8159 13.2022 11.1307 13.5195 10.377C13.8369 9.62323 14 8.81537 14 8.00002C14 7.18473 13.8369 6.37676 13.5195 5.62307C13.3666 5.25984 13.2955 5.10073 13.2236 4.98342L13.9414 4.26565C13.9652 4.29631 13.9889 4.32685 14.0107 4.35842Z" fill="white"/>
<path d="M11.7158 6.49123C11.9034 6.97098 12 7.48316 12 8.00002C12 8.5276 11.8994 9.05077 11.7041 9.53909C11.5088 10.0273 11.2219 10.4723 10.8594 10.8477C10.6675 11.0461 10.3509 11.0511 10.1523 10.8594C9.95409 10.6675 9.94893 10.3509 10.1406 10.1524C10.4119 9.87132 10.6276 9.53641 10.7754 9.16702C10.9232 8.79749 11 8.40095 11 8.00002C11 7.75962 10.9728 7.5205 10.9189 7.28811L11.7158 6.49123Z" fill="white"/>
</svg>
