<svg width="16" height="16" viewBox="0 0 16 16" fill="none" xmlns="http://www.w3.org/2000/svg">
<path fill-rule="evenodd" clip-rule="evenodd" d="M2.925 2.25C1.86185 2.25 1 3.13494 1 4.22656V11.7734C1 12.8651 1.86185 13.75 2.925 13.75H13.075C14.1381 13.75 15 12.8651 15 11.7734V4.22656C15 3.13494 14.1381 2.25 13.075 2.25H2.925ZM3.625 10.5156C3.33505 10.5156 3.1 10.757 3.1 11.0547C3.1 11.3524 3.33505 11.5938 3.625 11.5938H12.375C12.6649 11.5938 12.9 11.3524 12.9 11.0547C12.9 10.757 12.6649 10.5156 12.375 10.5156H3.625ZM3.1 8.89844C3.1 8.60072 3.33505 8.35938 3.625 8.35938H12.375C12.6649 8.35938 12.9 8.60072 12.9 8.89844C12.9 9.19615 12.6649 9.4375 12.375 9.4375H3.625C3.33505 9.4375 3.1 9.19615 3.1 8.89844ZM3.15722 4.70058C3.1 4.81589 3.1 4.96685 3.1 5.26875V6.41875C3.1 6.72065 3.1 6.8716 3.15722 6.98692C3.20756 7.08835 3.28787 7.17081 3.38665 7.2225C3.49896 7.28125 3.64597 7.28125 3.94 7.28125H7.16C7.45403 7.28125 7.60104 7.28125 7.71335 7.2225C7.81213 7.17081 7.89244 7.08835 7.94278 6.98692C8 6.8716 8 6.72065 8 6.41875V5.26875C8 4.96685 8 4.81589 7.94278 4.70058C7.89244 4.59915 7.81213 4.51669 7.71335 4.465C7.60104 4.40625 7.45403 4.40625 7.16 4.40625H3.94C3.64597 4.40625 3.49896 4.40625 3.38665 4.465C3.28787 4.51669 3.20756 4.59915 3.15722 4.70058Z" fill="white"/>
</svg>
