<svg width="16" height="16" viewBox="0 0 16 16" fill="none" xmlns="http://www.w3.org/2000/svg">
<path d="M11.9014 11.0578C11.9014 11.4499 11.9014 11.6459 11.8251 11.7956C11.758 11.9273 11.6509 12.0344 11.5192 12.1015C11.3694 12.1778 11.1734 12.1778 10.7814 12.1778H5.21793C4.8259 12.1778 4.62988 12.1778 4.48014 12.1015C4.34843 12.0344 4.24134 11.9273 4.17423 11.7956C4.09793 11.6459 4.09793 11.4499 4.09793 11.0578V7.02726C4.09793 6.63522 4.09793 6.43921 4.17423 6.28947C4.24134 6.15775 4.34843 6.05067 4.48014 5.98356C4.62988 5.90726 4.8259 5.90726 5.21793 5.90726H10.7814C11.1734 5.90726 11.3694 5.90726 11.5192 5.98356C11.6509 6.05067 11.758 6.15775 11.8251 6.28947C11.9014 6.43921 11.9014 6.63522 11.9014 7.02726V11.0578Z" fill="white"/>
<path d="M4.62988 3.83984C4.35374 3.83984 4.12988 4.0637 4.12988 4.33984C4.12988 4.61599 4.35374 4.83984 4.62988 4.83984H7.8222C8.09834 4.83984 8.3222 4.61599 8.3222 4.33984C8.3222 4.0637 8.09834 3.83984 7.8222 3.83984H4.62988Z" fill="white"/>
<path fill-rule="evenodd" clip-rule="evenodd" d="M5.28088 1.75H10.7188C11.1909 1.74999 11.5756 1.74999 11.8878 1.7755C12.2106 1.80187 12.4998 1.85797 12.7692 1.99524C13.1925 2.21095 13.5368 2.55516 13.7525 2.97852C13.8897 3.24793 13.9458 3.53715 13.9722 3.85989C13.9977 4.17215 13.9977 4.55677 13.9977 5.02891V10.9671C13.9977 11.4393 13.9977 11.8239 13.9722 12.1362C13.9458 12.4589 13.8897 12.7481 13.7525 13.0175C13.5368 13.4409 13.1925 13.7851 12.7692 14.0008C12.4998 14.1381 12.2106 14.1942 11.8878 14.2205C11.5756 14.2461 11.1909 14.246 10.7188 14.246H5.28087C4.80872 14.246 4.4241 14.2461 4.11184 14.2205C3.7891 14.1942 3.49988 14.1381 3.23047 14.0008C2.80711 13.7851 2.4629 13.4409 2.24719 13.0175C2.10992 12.7481 2.05382 12.4589 2.02746 12.1362C2.00194 11.8239 2.00195 11.4393 2.00195 10.9671V5.02893C2.00195 4.55678 2.00194 4.17215 2.02746 3.85989C2.05382 3.53715 2.10992 3.24793 2.24719 2.97852C2.4629 2.55516 2.80711 2.21095 3.23047 1.99524C3.49988 1.85797 3.7891 1.80187 4.11184 1.7755C4.42411 1.74999 4.80873 1.74999 5.28088 1.75ZM4.19327 2.77218C3.93238 2.7935 3.7894 2.83277 3.68447 2.88624C3.44926 3.00608 3.25804 3.19731 3.1382 3.43251C3.08473 3.53745 3.04545 3.68042 3.02414 3.94132C3.00234 4.20805 3.00195 4.55171 3.00195 5.05V10.946C3.00195 11.4443 3.00234 11.788 3.02414 12.0547C3.04545 12.3156 3.08473 12.4586 3.1382 12.5635C3.25804 12.7987 3.44926 12.99 3.68447 13.1098C3.7894 13.1633 3.93238 13.2025 4.19327 13.2239C4.46001 13.2457 4.80366 13.246 5.30195 13.246H10.6977C11.196 13.246 11.5397 13.2457 11.8064 13.2239C12.0673 13.2025 12.2103 13.1633 12.3152 13.1098C12.5504 12.99 12.7416 12.7987 12.8615 12.5635C12.9149 12.4586 12.9542 12.3156 12.9755 12.0547C12.9973 11.788 12.9977 11.4443 12.9977 10.946V5.05C12.9977 4.5517 12.9973 4.20805 12.9755 3.94132C12.9542 3.68042 12.9149 3.53745 12.8615 3.43251C12.7416 3.19731 12.5504 3.00608 12.3152 2.88624C12.2103 2.83277 12.0673 2.7935 11.8064 2.77218C11.5397 2.75039 11.196 2.75 10.6977 2.75H5.30195C4.80366 2.75 4.46001 2.75039 4.19327 2.77218Z" fill="white"/>
</svg>
