<svg width="16" height="16" viewBox="0 0 16 16" fill="none" xmlns="http://www.w3.org/2000/svg">
<path d="M3.625 10.5156C3.33505 10.5156 3.1 10.757 3.1 11.0547C3.1 11.3524 3.33505 11.5938 3.625 11.5938H12.375C12.6649 11.5938 12.9 11.3524 12.9 11.0547C12.9 10.757 12.6649 10.5156 12.375 10.5156H3.625Z" fill="white"/>
<path d="M3.1 8.89844C3.1 8.60072 3.33505 8.35938 3.625 8.35938H12.375C12.6649 8.35938 12.9 8.60072 12.9 8.89844C12.9 9.19615 12.6649 9.4375 12.375 9.4375H3.625C3.33505 9.4375 3.1 9.19615 3.1 8.89844Z" fill="white"/>
<path d="M3.15722 4.70058C3.1 4.8159 3.1 4.96685 3.1 5.26875V6.41875C3.1 6.72065 3.1 6.87161 3.15722 6.98692C3.20756 7.08835 3.28787 7.17081 3.38666 7.2225C3.49896 7.28125 3.64597 7.28125 3.94 7.28125H7.16C7.45403 7.28125 7.60104 7.28125 7.71335 7.2225C7.81213 7.17081 7.89245 7.08835 7.94278 6.98692C8 6.87161 8 6.72065 8 6.41875V5.26875C8 4.96685 8 4.8159 7.94278 4.70058C7.89245 4.59915 7.81213 4.51669 7.71335 4.46501C7.60104 4.40625 7.45403 4.40625 7.16 4.40625H3.94C3.64597 4.40625 3.49896 4.40625 3.38666 4.46501C3.28787 4.51669 3.20756 4.59915 3.15722 4.70058Z" fill="white"/>
<path fill-rule="evenodd" clip-rule="evenodd" d="M3.7437 2.25C3.36979 2.24999 3.05769 2.24999 2.80273 2.27138C2.53681 2.29368 2.28715 2.34192 2.05107 2.46543C1.68886 2.65493 1.39437 2.95731 1.20981 3.32922C1.08952 3.57163 1.04254 3.82798 1.02082 4.10102C0.999987 4.36281 0.999993 4.68326 1 5.06718V10.9328C0.999993 11.3167 0.999987 11.6372 1.02082 11.899C1.04254 12.172 1.08952 12.4284 1.20981 12.6708C1.39437 13.0427 1.68886 13.3451 2.05107 13.5346C2.28715 13.6581 2.53681 13.7063 2.80273 13.7286C3.05769 13.75 3.36978 13.75 3.74368 13.75H12.2563C12.6302 13.75 12.9423 13.75 13.1973 13.7286C13.4632 13.7063 13.7128 13.6581 13.9489 13.5346C14.3111 13.3451 14.6056 13.0427 14.7902 12.6708C14.9105 12.4284 14.9575 12.172 14.9792 11.899C15 11.6372 15 11.3167 15 10.9328V5.06718C15 4.68326 15 4.36281 14.9792 4.10102C14.9575 3.82798 14.9105 3.57163 14.7902 3.32922C14.6056 2.95731 14.3111 2.65493 13.9489 2.46543C13.7128 2.34192 13.4632 2.29368 13.1973 2.27138C12.9423 2.24999 12.6302 2.24999 12.2563 2.25H3.7437ZM2.52776 3.42605C2.59115 3.39288 2.68725 3.36278 2.88824 3.34592C3.09535 3.32855 3.3643 3.32813 3.765 3.32813H12.235C12.6357 3.32813 12.9047 3.32855 13.1118 3.34592C13.3128 3.36278 13.4088 3.39288 13.4722 3.42605C13.6369 3.51219 13.7707 3.64963 13.8546 3.81868C13.8869 3.88377 13.9162 3.98244 13.9327 4.18881C13.9496 4.40148 13.95 4.67763 13.95 5.08906V10.9109C13.95 11.3224 13.9496 11.5985 13.9327 11.8112C13.9162 12.0176 13.8869 12.1162 13.8546 12.1813C13.7707 12.3504 13.6369 12.4878 13.4722 12.574C13.4088 12.6071 13.3128 12.6372 13.1118 12.6541C12.9047 12.6715 12.6357 12.6719 12.235 12.6719H3.765C3.3643 12.6719 3.09535 12.6715 2.88824 12.6541C2.68725 12.6372 2.59115 12.6071 2.52776 12.574C2.36312 12.4878 2.22926 12.3504 2.14537 12.1813C2.11307 12.1162 2.08375 12.0176 2.06733 11.8112C2.05041 11.5985 2.05 11.3224 2.05 10.9109V5.08906C2.05 4.67763 2.05041 4.40148 2.06733 4.18881C2.08375 3.98244 2.11307 3.88377 2.14537 3.81868C2.22926 3.64963 2.36312 3.51219 2.52776 3.42605Z" fill="white"/>
</svg>
