<svg width="16" height="16" viewBox="0 0 16 16" fill="none" xmlns="http://www.w3.org/2000/svg">
<path fill-rule="evenodd" clip-rule="evenodd" d="M12.2512 10.9529C12.3842 10.9529 12.5123 10.9529 12.6205 10.9441C12.739 10.9344 12.877 10.9117 13.0154 10.8412C13.2082 10.7429 13.365 10.5861 13.4633 10.3933C13.5338 10.2549 13.5565 10.1169 13.5662 9.99845C13.575 9.89022 13.575 9.76212 13.575 9.62914V4.57378C13.575 4.4408 13.575 4.3127 13.5662 4.20447C13.5565 4.086 13.5338 3.94805 13.4633 3.80966C13.365 3.6168 13.2082 3.45999 13.0154 3.36172C12.877 3.29121 12.739 3.2685 12.6205 3.25882C12.5123 3.24997 12.3842 3.24999 12.2513 3.25H3.7488C3.61583 3.24999 3.4877 3.24997 3.37948 3.25882C3.26101 3.2685 3.12306 3.29121 2.98467 3.36172C2.79181 3.45999 2.635 3.6168 2.53673 3.80966C2.46622 3.94805 2.44351 4.086 2.43383 4.20447C2.42498 4.31271 2.425 4.44082 2.42501 4.57381V9.62911C2.425 9.7621 2.42498 9.89021 2.43383 9.99845C2.44351 10.1169 2.46622 10.2549 2.53673 10.3933C2.635 10.5861 2.79181 10.7429 2.98467 10.8412C3.12306 10.9117 3.26101 10.9344 3.37948 10.9441C3.48771 10.9529 3.61581 10.9529 3.74879 10.9529L12.2512 10.9529ZM12.5695 9.91702C12.5685 9.92891 12.5675 9.93793 12.5666 9.94454C12.56 9.94543 12.551 9.94646 12.5391 9.94743C12.4767 9.95253 12.3903 9.95292 12.235 9.95292H3.76501C3.60975 9.95292 3.52337 9.95253 3.46091 9.94743C3.44902 9.94646 3.44 9.94543 3.4334 9.94454C3.4325 9.93793 3.43148 9.92891 3.4305 9.91702C3.4254 9.85456 3.42501 9.76818 3.42501 9.61292V4.59C3.42501 4.43474 3.4254 4.34836 3.4305 4.2859C3.43148 4.27401 3.4325 4.26499 3.4334 4.25839C3.44 4.25749 3.44902 4.25647 3.46091 4.2555C3.52337 4.25039 3.60975 4.25 3.76501 4.25H12.235C12.3903 4.25 12.4767 4.25039 12.5391 4.2555C12.551 4.25647 12.56 4.25749 12.5666 4.25839C12.5675 4.26499 12.5685 4.27401 12.5695 4.2859C12.5746 4.34836 12.575 4.43474 12.575 4.59V9.61292C12.575 9.76818 12.5746 9.85456 12.5695 9.91702Z" fill="white"/>
<path d="M1.52918 11.6873C1.23692 11.6873 1 11.9242 1 12.2165C1 12.5087 1.23692 12.7456 1.52918 12.7456H14.4708C14.7631 12.7456 15 12.5087 15 12.2165C15 11.9242 14.7631 11.6873 14.4708 11.6873H1.52918Z" fill="white"/>
</svg>
