<svg width="16" height="16" viewBox="0 0 16 16" fill="none" xmlns="http://www.w3.org/2000/svg">
<path fill-rule="evenodd" clip-rule="evenodd" d="M8.01678 1.03891C7.8626 0.976098 7.68728 0.994139 7.54913 1.08703C7.41098 1.17992 7.32812 1.33548 7.32812 1.50196V9.80856C6.81735 9.356 6.14888 9.08093 5.414 9.08093C3.79603 9.08093 2.5 10.4143 2.5 12.0397C2.5 13.665 3.79603 14.9984 5.414 14.9984C7.03198 14.9984 8.32801 13.665 8.32801 12.0397C8.32801 12.0396 8.32801 12.0398 8.32801 12.0397L8.32812 5.93366L12.8123 7.76058C12.9665 7.82339 13.1418 7.80535 13.28 7.71246C13.4181 7.61957 13.501 7.46401 13.501 7.29753V4.31545C13.501 3.68525 13.1194 3.11779 12.5358 2.88001L8.01678 1.03891ZM12.501 6.55392L8.32812 4.85385V2.24556L12.1585 3.8061C12.3656 3.89048 12.501 4.09183 12.501 4.31545V6.55392ZM3.5 12.0397C3.5 10.9492 4.36554 10.0809 5.414 10.0809C6.46246 10.0809 7.32801 10.9492 7.32801 12.0397C7.32801 13.1301 6.46246 13.9984 5.414 13.9984C4.36554 13.9984 3.5 13.1301 3.5 12.0397Z" fill="white"/>
</svg>
