<svg width="16" height="16" viewBox="0 0 16 16" fill="none" xmlns="http://www.w3.org/2000/svg">
<path d="M7.52746 3.5H4.08001C3.49195 3.5 3.19792 3.5 2.97332 3.61444C2.77575 3.71511 2.61512 3.87574 2.51445 4.07331C2.40001 4.29792 2.40001 4.59195 2.40001 5.18V9.56074C2.40001 10.1488 2.40001 10.4428 2.51445 10.6674C2.61512 10.865 2.77575 11.0256 2.97332 11.1263C3.19792 11.2407 3.49195 11.2407 4.08 11.2407H11.92C12.5081 11.2407 12.8021 11.2407 13.0267 11.1263C13.2243 11.0256 13.3849 10.865 13.4856 10.6674C13.6 10.4428 13.6 10.1488 13.6 9.56074V8.20725C13.1029 8.39641 12.5635 8.5 12 8.5C9.51472 8.5 7.5 6.48528 7.5 4C7.5 3.831 7.50932 3.66417 7.52746 3.5Z" fill="white"/>
<path d="M1 12.4726C1 12.1811 1.23629 11.9448 1.52778 11.9448H14.4722C14.7637 11.9448 15 12.1811 15 12.4726C15 12.7641 14.7637 13.0004 14.4722 13.0004H1.52778C1.23629 13.0004 1 12.7641 1 12.4726Z" fill="white"/>
<path fill-rule="evenodd" clip-rule="evenodd" d="M15.75 4C15.75 6.07107 14.0711 7.75 12 7.75C9.92893 7.75 8.25 6.07107 8.25 4C8.25 1.92893 9.92893 0.25 12 0.25C14.0711 0.25 15.75 1.92893 15.75 4ZM10.3102 3.95588C10.3602 3.76917 10.5521 3.65836 10.7388 3.70839C11.1032 3.80603 11.4252 4.02116 11.6548 4.32044C11.8845 4.61972 12.0089 4.98641 12.0089 5.36364C12.0089 5.55694 11.8522 5.71364 11.6589 5.71364C11.4656 5.71364 11.3089 5.55694 11.3089 5.36364C11.3089 5.1405 11.2353 4.9236 11.0995 4.74657C10.9636 4.56955 10.7732 4.44229 10.5577 4.38454C10.3709 4.33451 10.2601 4.14259 10.3102 3.95588ZM11.2682 1.76735C11.0815 1.71732 10.8896 1.82812 10.8396 2.01483C10.7896 2.20155 10.9004 2.39346 11.0871 2.44349C11.7375 2.61779 12.3123 3.00184 12.7223 3.53609C13.1322 4.07034 13.3544 4.72494 13.3544 5.39835C13.3544 5.59165 13.5111 5.74835 13.7044 5.74835C13.8977 5.74835 14.0544 5.59165 14.0544 5.39835C14.0544 4.57084 13.7814 3.76646 13.2776 3.10996C12.7739 2.45346 12.0676 1.98152 11.2682 1.76735Z" fill="white"/>
</svg>
