<svg width="16" height="16" viewBox="0 0 16 16" fill="none" xmlns="http://www.w3.org/2000/svg">
<path d="M7.56222 3.25L3.7488 3.25C3.61585 3.24999 3.48769 3.24998 3.37948 3.25882C3.26101 3.2685 3.12306 3.29121 2.98467 3.36172C2.79181 3.45999 2.635 3.6168 2.53673 3.80966C2.46622 3.94805 2.44351 4.086 2.43383 4.20447C2.42498 4.31271 2.425 4.44082 2.42501 4.57381V9.62912C2.425 9.7621 2.42498 9.89021 2.43383 9.99846C2.44351 10.1169 2.46622 10.2549 2.53673 10.3933C2.635 10.5861 2.79181 10.7429 2.98467 10.8412C3.12306 10.9117 3.26101 10.9344 3.37948 10.9441C3.48771 10.9529 3.61581 10.9529 3.74879 10.9529L12.2512 10.9529C12.3842 10.9529 12.5123 10.9529 12.6205 10.9441C12.739 10.9344 12.877 10.9117 13.0154 10.8412C13.2082 10.7429 13.365 10.5861 13.4633 10.3933C13.5338 10.2549 13.5565 10.1169 13.5662 9.99846C13.575 9.89022 13.575 9.76212 13.575 9.62914L13.575 8.21667C13.2572 8.33545 12.9223 8.41932 12.575 8.46361V9.61292C12.575 9.76818 12.5746 9.85456 12.5695 9.91702C12.5685 9.92891 12.5675 9.93793 12.5666 9.94454C12.56 9.94543 12.551 9.94646 12.5391 9.94743C12.4767 9.95253 12.3903 9.95292 12.235 9.95292H3.76501C3.60975 9.95292 3.52337 9.95253 3.46091 9.94743C3.44902 9.94646 3.44 9.94543 3.4334 9.94454C3.4325 9.93793 3.43148 9.92891 3.4305 9.91702C3.4254 9.85456 3.42501 9.76818 3.42501 9.61292V4.59001C3.42501 4.43474 3.4254 4.34836 3.4305 4.2859C3.43148 4.27402 3.4325 4.26499 3.4334 4.25839C3.44 4.25749 3.44902 4.25647 3.46091 4.2555C3.52337 4.25039 3.60975 4.25 3.76501 4.25H7.50683C7.5023 4.16725 7.5 4.08389 7.5 4C7.5 3.74447 7.5213 3.49391 7.56222 3.25Z" fill="white"/>
<path d="M1 12.2165C1 11.9242 1.23692 11.6873 1.52918 11.6873H14.4708C14.7631 11.6873 15 11.9242 15 12.2165C15 12.5087 14.7631 12.7456 14.4708 12.7456H1.52918C1.23692 12.7456 1 12.5087 1 12.2165Z" fill="white"/>
<path fill-rule="evenodd" clip-rule="evenodd" d="M15.75 4C15.75 6.07107 14.0711 7.75 12 7.75C9.92893 7.75 8.25 6.07107 8.25 4C8.25 1.92893 9.92893 0.25 12 0.25C14.0711 0.25 15.75 1.92893 15.75 4ZM10.3102 3.95588C10.3602 3.76917 10.5521 3.65836 10.7388 3.70839C11.1032 3.80603 11.4252 4.02116 11.6548 4.32044C11.8845 4.61972 12.0089 4.98641 12.0089 5.36364C12.0089 5.55694 11.8522 5.71364 11.6589 5.71364C11.4656 5.71364 11.3089 5.55694 11.3089 5.36364C11.3089 5.1405 11.2353 4.9236 11.0995 4.74657C10.9636 4.56955 10.7732 4.44229 10.5577 4.38454C10.3709 4.33451 10.2601 4.14259 10.3102 3.95588ZM11.2682 1.76735C11.0815 1.71732 10.8896 1.82812 10.8396 2.01483C10.7896 2.20155 10.9004 2.39346 11.0871 2.44349C11.7375 2.61779 12.3123 3.00184 12.7223 3.53609C13.1322 4.07034 13.3544 4.72494 13.3544 5.39835C13.3544 5.59165 13.5111 5.74835 13.7044 5.74835C13.8977 5.74835 14.0544 5.59165 14.0544 5.39835C14.0544 4.57084 13.7814 3.76646 13.2776 3.10996C12.7739 2.45346 12.0676 1.98152 11.2682 1.76735Z" fill="white"/>
</svg>
