<svg width="16" height="16" viewBox="0 0 16 16" fill="none" xmlns="http://www.w3.org/2000/svg">
<path fill-rule="evenodd" clip-rule="evenodd" d="M12 8.25C14.0711 8.25 15.75 9.92894 15.75 12C15.75 14.0711 14.0711 15.75 12 15.75C9.92893 15.75 8.25 14.0711 8.25 12C8.25 9.92894 9.92893 8.25 12 8.25ZM14 13.0508C13.8067 13.0508 13.6504 13.2071 13.6504 13.4004C13.6502 13.7592 13.3589 14.0508 13 14.0508H11C10.6411 14.0508 10.3498 13.7592 10.3496 13.4004C10.3496 13.2071 10.1933 13.0508 10 13.0508C9.8067 13.0508 9.65039 13.2071 9.65039 13.4004C9.65061 14.1458 10.2545 14.75 11 14.75H13C13.7455 14.75 14.3494 14.1458 14.3496 13.4004C14.3496 13.2071 14.1933 13.0508 14 13.0508ZM12 9.10547C11.8067 9.10547 11.6494 9.26178 11.6494 9.45508V12.1367L10.751 11.2109C10.6163 11.0725 10.3945 11.0696 10.2559 11.2041C10.1174 11.3388 10.1145 11.5606 10.249 11.6992L11.748 13.2441C11.8139 13.312 11.9054 13.3496 12 13.3496C12.0945 13.3495 12.1852 13.3119 12.251 13.2441L13.751 11.6992C13.8856 11.5606 13.8826 11.3388 13.7441 11.2041C13.6055 11.0695 13.3837 11.0725 13.249 11.2109L12.3496 12.1377V9.45508C12.3496 9.26191 12.1931 9.10567 12 9.10547Z" fill="white"/>
<path d="M7.5 12C7.5 12.2542 7.52199 12.5034 7.5625 12.7461H1.5293C1.23716 12.7461 1.00019 12.5089 1 12.2168C1.00001 11.9245 1.23704 11.6875 1.5293 11.6875H7.51172C7.50463 11.7908 7.5 11.8949 7.5 12Z" fill="white"/>
<path d="M12.6211 3.25879C12.7394 3.2685 12.8775 3.29191 13.0156 3.36231C13.2083 3.46058 13.3657 3.6169 13.4639 3.80957C13.5343 3.94787 13.5567 4.08669 13.5664 4.20508C13.5755 4.31748 13.5752 4.45147 13.5752 4.58985V7.78418C13.2573 7.66535 12.9225 7.58143 12.5752 7.53711V4.58985C12.5752 4.435 12.5744 4.34853 12.5693 4.28614C12.5684 4.27503 12.5673 4.26623 12.5664 4.25977C12.5599 4.25889 12.5507 4.25683 12.5391 4.25586C12.4767 4.25078 12.3902 4.25 12.2354 4.25H3.76562C3.6105 4.25 3.52339 4.25077 3.46094 4.25586C3.44971 4.25678 3.44104 4.25889 3.43457 4.25977C3.43369 4.26624 3.43158 4.27496 3.43066 4.28614C3.42558 4.34853 3.42481 4.435 3.4248 4.58985V9.61328C3.42481 9.76811 3.42558 9.8546 3.43066 9.917C3.43163 9.92861 3.43369 9.9378 3.43457 9.94434C3.44102 9.9452 3.4498 9.94636 3.46094 9.94727C3.52339 9.95236 3.61052 9.95313 3.76562 9.95313H7.99219C7.83161 10.2669 7.7077 10.6021 7.62402 10.9531H3.76562C3.62703 10.9531 3.49242 10.9535 3.37988 10.9443C3.29099 10.9371 3.19068 10.9224 3.08789 10.8857L2.98438 10.8418L2.84766 10.7568C2.71765 10.6623 2.61082 10.5381 2.53711 10.3936C2.46671 10.2554 2.4433 10.1174 2.43359 9.99903C2.4244 9.8865 2.4248 9.75191 2.4248 9.61328V4.58985C2.4248 4.45147 2.42445 4.31748 2.43359 4.20508C2.44327 4.08664 2.46664 3.94792 2.53711 3.80957C2.6353 3.61703 2.79186 3.46054 2.98438 3.36231C3.12274 3.29182 3.26144 3.26847 3.37988 3.25879C3.49243 3.24962 3.62703 3.25 3.76562 3.25H12.2354C12.374 3.25 12.5086 3.2496 12.6211 3.25879Z" fill="white"/>
</svg>
