<svg width="16" height="16" viewBox="0 0 16 16" fill="none" xmlns="http://www.w3.org/2000/svg">
<path d="M7.54883 1.08497C7.68699 0.992082 7.86243 0.97429 8.0166 1.03711L12.5352 2.87891C13.1187 3.11674 13.5 3.68433 13.5 4.31446V7.29688C13.5 7.46332 13.4174 7.61902 13.2793 7.71192C13.1411 7.8048 12.9657 7.82357 12.8115 7.76075L8.32812 5.93262V12.041C8.32777 13.6662 7.03175 14.9999 5.41406 15C3.79603 15 2.5 13.6656 2.5 12.04C2.50016 10.4146 3.79613 9.08106 5.41406 9.08106C6.1489 9.08113 6.81745 9.35592 7.32812 9.8086V1.5C7.32813 1.33355 7.41071 1.17786 7.54883 1.08497Z" fill="white"/>
</svg>
