<svg width="16" height="16" viewBox="0 0 16 16" fill="none" xmlns="http://www.w3.org/2000/svg">
<path fill-rule="evenodd" clip-rule="evenodd" d="M3.50037 8.57575C3.81163 8.47465 4.14712 8.47462 4.45837 8.57575C4.6658 8.64316 4.83512 8.76052 4.99255 8.89411C5.14218 9.02114 5.31104 9.19012 5.5072 9.3863L6.62341 10.5025C6.81948 10.6986 6.98764 10.8666 7.11462 11.0162C7.24839 11.1738 7.36551 11.3437 7.43298 11.5513C7.53409 11.8626 7.53412 12.1981 7.43298 12.5093C7.36551 12.7168 7.24829 12.8861 7.11462 13.0435C6.9876 13.1932 6.81959 13.362 6.62341 13.5582L5.5072 14.6744C5.31104 14.8706 5.14218 15.0386 4.99255 15.1656C4.83509 15.2992 4.66584 15.4165 4.45837 15.484C4.14707 15.5851 3.81167 15.5851 3.50037 15.484C3.29272 15.4165 3.12278 15.2994 2.96521 15.1656C2.81565 15.0386 2.64759 14.8705 2.45154 14.6744L1.33533 13.5582C1.13916 13.362 0.971133 13.1931 0.844116 13.0435C0.710376 12.886 0.592256 12.7169 0.52478 12.5093C0.423668 12.1982 0.423744 11.8625 0.52478 11.5513C0.592249 11.3437 0.710347 11.1738 0.844116 11.0162C0.971107 10.8666 1.13928 10.6986 1.33533 10.5025L2.45154 9.3863C2.6477 9.19013 2.81559 9.02113 2.96521 8.89411C3.12278 8.76035 3.29272 8.64322 3.50037 8.57575Z" fill="white"/>
<path d="M12.639 9.08064C12.9163 9.08063 13.1544 9.08128 13.35 9.09724C13.5559 9.11406 13.759 9.15056 13.9535 9.24958C14.2451 9.39819 14.4826 9.63567 14.6312 9.92732C14.7303 10.1218 14.7667 10.3249 14.7836 10.5308C14.7995 10.7264 14.8002 10.9644 14.8002 11.2418V12.8209C14.8002 13.0979 14.7995 13.3354 14.7836 13.5308C14.7667 13.7367 14.7302 13.9399 14.6312 14.1343C14.4826 14.426 14.2451 14.6635 13.9535 14.8121C13.759 14.9111 13.5559 14.9486 13.35 14.9654C13.1544 14.9814 12.9163 14.981 12.639 14.981H11.0609C10.7837 14.981 10.5455 14.9814 10.35 14.9654C10.144 14.9486 9.94095 14.9111 9.74646 14.8121C9.45481 14.6635 9.21733 14.426 9.06873 14.1343C8.96972 13.9399 8.93321 13.7367 8.91638 13.5308C8.90044 13.3354 8.89977 13.0979 8.89978 12.8209V11.2418C8.89977 10.9644 8.90042 10.7264 8.91638 10.5308C8.93321 10.3249 8.96965 10.1218 9.06873 9.92732C9.21733 9.63567 9.45481 9.39819 9.74646 9.24958C9.94092 9.15056 10.1441 9.11406 10.35 9.09724C10.5455 9.08128 10.7836 9.08063 11.0609 9.08064H12.639Z" fill="white"/>
<path fill-rule="evenodd" clip-rule="evenodd" d="M4.14978 1.20564C5.87556 1.20564 7.27461 2.60489 7.27478 4.33064C7.27478 6.05653 5.87567 7.45564 4.14978 7.45564C2.42398 7.45553 1.02478 6.05646 1.02478 4.33064C1.02495 2.60496 2.42408 1.20574 4.14978 1.20564ZM4.14978 2.20564C2.97637 2.20574 2.02495 3.15724 2.02478 4.33064C2.02478 5.50418 2.97626 6.45553 4.14978 6.45564C5.32339 6.45564 6.27478 5.50424 6.27478 4.33064C6.27461 3.15718 5.32328 2.20564 4.14978 2.20564Z" fill="white"/>
<path d="M10.8119 1.62263C11.2744 0.826046 12.4255 0.826047 12.8881 1.62263L14.8217 4.95368C15.2859 5.75352 14.7093 6.75608 13.7845 6.75642H9.91541C8.99065 6.75608 8.41401 5.75352 8.8783 4.95368L10.8119 1.62263Z" fill="white"/>
</svg>
