<svg width="16" height="16" viewBox="0 0 16 16" fill="none" xmlns="http://www.w3.org/2000/svg">
<path fill-rule="evenodd" clip-rule="evenodd" d="M10.8122 1.62243C11.2747 0.825848 12.4252 0.825849 12.8877 1.62243L14.8218 4.95339C15.2863 5.75338 14.7091 6.75595 13.784 6.75595H9.91584C8.99076 6.75595 8.41358 5.75338 8.87809 4.95339L10.8122 1.62243ZM12.0229 2.12457C11.9458 1.9918 11.7541 1.9918 11.677 2.12457L9.74288 5.45552C9.66546 5.58885 9.76166 5.75595 9.91584 5.75595H13.784C13.9382 5.75595 14.0344 5.58885 13.957 5.45552L12.0229 2.12457ZM11.0605 9.08095H12.6394C12.9168 9.08094 13.1547 9.08093 13.3503 9.09691C13.5563 9.11375 13.7591 9.15077 13.9536 9.24989C14.2453 9.39849 14.4824 9.63561 14.631 9.92726C14.7301 10.1218 14.7671 10.3246 14.784 10.5306C14.8 10.7262 14.8 10.9641 14.7999 11.2415V12.8204C14.8 13.0978 14.8 13.3357 14.784 13.5313C14.7671 13.7373 14.7301 13.9401 14.631 14.1346C14.4824 14.4263 14.2453 14.6634 13.9536 14.812C13.7591 14.9111 13.5563 14.9482 13.3503 14.965C13.1547 14.981 12.9168 14.981 12.6394 14.9809H11.0605C10.7831 14.981 10.5452 14.981 10.3496 14.965C10.1436 14.9482 9.9408 14.9111 9.74626 14.812C9.45461 14.6634 9.21749 14.4263 9.06888 14.1346C8.96976 13.9401 8.93274 13.7373 8.91591 13.5313C8.89993 13.3357 8.89993 13.0978 8.89994 12.8204V11.2415C8.89993 10.9641 8.89993 10.7262 8.91591 10.5306C8.93274 10.3246 8.96976 10.1218 9.06888 9.92726C9.21749 9.63561 9.45461 9.39849 9.74626 9.24989C9.9408 9.15077 10.1436 9.11375 10.3496 9.09691C10.5452 9.08093 10.7831 9.08094 11.0605 9.08095ZM10.431 10.0936C10.2869 10.1054 10.2303 10.1256 10.2002 10.1409C10.0968 10.1936 10.0126 10.2778 9.95989 10.3813C9.94457 10.4113 9.92437 10.4679 9.91259 10.612C9.90033 10.762 9.89994 10.9587 9.89994 11.2609V12.8009C9.89994 13.1032 9.90033 13.2999 9.91259 13.4499C9.92437 13.594 9.94457 13.6506 9.95989 13.6806C10.0126 13.7841 10.0968 13.8683 10.2002 13.921C10.2303 13.9363 10.2869 13.9565 10.431 13.9683C10.581 13.9806 10.7777 13.9809 11.0799 13.9809H12.6199C12.9222 13.9809 13.1189 13.9806 13.2689 13.9683C13.413 13.9565 13.4696 13.9363 13.4996 13.921C13.6031 13.8683 13.6873 13.7841 13.74 13.6806C13.7553 13.6506 13.7755 13.594 13.7873 13.4499C13.7996 13.2999 13.7999 13.1032 13.7999 12.8009V11.2609C13.7999 10.9587 13.7996 10.762 13.7873 10.612C13.7755 10.4679 13.7553 10.4113 13.74 10.3813C13.6873 10.2778 13.6031 10.1936 13.4996 10.1409C13.4696 10.1256 13.413 10.1054 13.2689 10.0936C13.1189 10.0813 12.9222 10.0809 12.6199 10.0809H11.0799C10.7777 10.0809 10.581 10.0813 10.431 10.0936ZM2.02494 4.33095C2.02494 3.15734 2.97634 2.20595 4.14994 2.20595C5.32355 2.20595 6.27494 3.15734 6.27494 4.33095C6.27494 5.50455 5.32355 6.45595 4.14994 6.45595C2.97634 6.45595 2.02494 5.50455 2.02494 4.33095ZM4.14994 1.20595C2.42405 1.20595 1.02494 2.60506 1.02494 4.33095C1.02494 6.05684 2.42405 7.45595 4.14994 7.45595C5.87583 7.45595 7.27494 6.05684 7.27494 4.33095C7.27494 2.60506 5.87583 1.20595 4.14994 1.20595Z" fill="white"/>
<path fill-rule="evenodd" clip-rule="evenodd" d="M1.33504 10.5023L2.45151 9.38587C2.64767 9.1897 2.81585 9.02151 2.96547 8.89449C3.12305 8.76072 3.29261 8.6435 3.50026 8.57604C3.81157 8.47488 4.14691 8.47488 4.45822 8.57604C4.66586 8.6435 4.83543 8.76072 4.993 8.89449C5.14263 9.02151 5.31081 9.1897 5.50698 9.38588L6.62343 10.5023C6.81961 10.6985 6.9878 10.8667 7.11483 11.0163C7.24859 11.1739 7.36581 11.3434 7.43328 11.5511C7.53443 11.8624 7.53443 12.1977 7.43328 12.509C7.36581 12.7167 7.2486 12.8863 7.11483 13.0438C6.9878 13.1935 6.81961 13.3616 6.62343 13.5578L5.50698 14.6743C5.31081 14.8704 5.14263 15.0386 4.99301 15.1657C4.83543 15.2994 4.66586 15.4166 4.45822 15.4841C4.14691 15.5853 3.81157 15.5853 3.50026 15.4841C3.29262 15.4166 3.12305 15.2994 2.96548 15.1657C2.81585 15.0386 2.64767 14.8704 2.45151 14.6743L1.33504 13.5578C1.13887 13.3616 0.970674 13.1935 0.843654 13.0438C0.709885 12.8863 0.592672 12.7167 0.525203 12.509C0.424053 12.1977 0.424053 11.8624 0.525203 11.5511C0.592672 11.3434 0.709885 11.1739 0.843654 11.0163C0.970673 10.8667 1.13887 10.6985 1.33504 10.5023ZM1.60599 11.6635C1.51238 11.7738 1.48669 11.828 1.47626 11.8601C1.44037 11.9706 1.44037 12.0896 1.47626 12.2C1.48669 12.2321 1.51238 12.2864 1.60599 12.3967C1.7034 12.5114 1.84217 12.6507 2.05591 12.8645L3.14485 13.9534C3.3586 14.1671 3.49792 14.3059 3.61265 14.4033C3.72292 14.4969 3.77718 14.5226 3.80928 14.5331C3.91974 14.5689 4.03874 14.5689 4.1492 14.5331C4.1813 14.5226 4.23556 14.4969 4.34583 14.4033C4.46056 14.3059 4.59988 14.1671 4.81363 13.9534L5.90257 12.8645C6.11631 12.6507 6.25508 12.5114 6.35249 12.3967C6.4461 12.2864 6.47179 12.2321 6.48222 12.2C6.51811 12.0896 6.51811 11.9706 6.48222 11.8601C6.47179 11.828 6.4461 11.7738 6.35249 11.6635C6.25508 11.5487 6.11631 11.4094 5.90257 11.1957L4.81363 10.1067C4.59988 9.893 4.46056 9.75423 4.34583 9.65683C4.23556 9.56321 4.1813 9.53752 4.1492 9.52709C4.03874 9.4912 3.91974 9.4912 3.80928 9.52709C3.77718 9.53752 3.72292 9.56321 3.61265 9.65683C3.49792 9.75423 3.3586 9.893 3.14485 10.1067L2.05591 11.1957C1.84217 11.4094 1.7034 11.5487 1.60599 11.6635Z" fill="white"/>
<path d="M6.99994 4.49999C6.99994 5.88071 5.88065 6.99999 4.49994 6.99999C3.11923 6.99999 1.99994 5.88071 1.99994 4.49999C1.99994 3.11928 3.11923 1.99999 4.49994 1.99999C5.88065 1.99999 6.99994 3.11928 6.99994 4.49999Z" fill="white"/>
</svg>
