<svg width="16" height="16" viewBox="0 0 16 16" fill="none" xmlns="http://www.w3.org/2000/svg">
<path fill-rule="evenodd" clip-rule="evenodd" d="M3.50037 8.57575C3.81163 8.47465 4.14712 8.47462 4.45837 8.57575C4.6658 8.64316 4.83512 8.76052 4.99255 8.89411C5.14218 9.02114 5.31104 9.19012 5.5072 9.3863L6.62341 10.5025C6.81948 10.6986 6.98764 10.8666 7.11462 11.0162C7.24839 11.1738 7.36551 11.3437 7.43298 11.5513C7.53409 11.8626 7.53412 12.1981 7.43298 12.5093C7.36551 12.7168 7.24829 12.8861 7.11462 13.0435C6.9876 13.1932 6.81959 13.362 6.62341 13.5582L5.5072 14.6744C5.31104 14.8706 5.14218 15.0386 4.99255 15.1656C4.83509 15.2992 4.66584 15.4165 4.45837 15.484C4.14707 15.5851 3.81167 15.5851 3.50037 15.484C3.29272 15.4165 3.12278 15.2994 2.96521 15.1656C2.81565 15.0386 2.64759 14.8705 2.45154 14.6744L1.33533 13.5582C1.13916 13.362 0.971133 13.1931 0.844116 13.0435C0.710376 12.886 0.592256 12.7169 0.52478 12.5093C0.423668 12.1982 0.423744 11.8625 0.52478 11.5513C0.592249 11.3437 0.710347 11.1738 0.844116 11.0162C0.971107 10.8666 1.13928 10.6986 1.33533 10.5025L2.45154 9.3863C2.6477 9.19013 2.81559 9.02113 2.96521 8.89411C3.12278 8.76035 3.29272 8.64322 3.50037 8.57575ZM4.1488 9.52693C4.03846 9.49117 3.91928 9.49108 3.80896 9.52693C3.77683 9.53741 3.72264 9.56346 3.61267 9.65681C3.49793 9.75421 3.35864 9.89326 3.1449 10.107L2.05603 11.1959C1.84231 11.4096 1.70323 11.5489 1.60584 11.6636C1.51241 11.7737 1.48639 11.8278 1.47595 11.8599C1.4401 11.9703 1.44017 12.0894 1.47595 12.1998C1.48638 12.2319 1.51222 12.2868 1.60584 12.397C1.70323 12.5118 1.84237 12.6512 2.05603 12.8648L3.1449 13.9537C3.35843 14.1672 3.498 14.3055 3.61267 14.4029C3.72249 14.4961 3.77681 14.5223 3.80896 14.5328C3.91932 14.5686 4.03843 14.5686 4.1488 14.5328C4.1809 14.5224 4.2358 14.4965 4.34607 14.4029C4.46074 14.3055 4.60033 14.1672 4.81384 13.9537L5.90271 12.8648C6.11644 12.6511 6.2555 12.5118 6.35291 12.397C6.44652 12.2868 6.47138 12.2319 6.48181 12.1998C6.51767 12.0893 6.51769 11.9704 6.48181 11.8599C6.47133 11.8278 6.44604 11.7734 6.35291 11.6636C6.25552 11.5489 6.11637 11.4095 5.90271 11.1959L4.81384 10.107C4.60017 9.89333 4.46078 9.75421 4.34607 9.65681C4.2358 9.5632 4.1809 9.53736 4.1488 9.52693Z" fill="white"/>
<path fill-rule="evenodd" clip-rule="evenodd" d="M12.639 9.08064C12.9163 9.08063 13.1544 9.08128 13.35 9.09724C13.5559 9.11406 13.759 9.15056 13.9535 9.24958C14.2451 9.39819 14.4826 9.63567 14.6312 9.92732C14.7303 10.1218 14.7667 10.3249 14.7836 10.5308C14.7995 10.7264 14.8002 10.9644 14.8002 11.2418V12.8209C14.8002 13.0979 14.7995 13.3354 14.7836 13.5308C14.7667 13.7367 14.7302 13.9399 14.6312 14.1343C14.4826 14.426 14.2451 14.6635 13.9535 14.8121C13.759 14.9111 13.5559 14.9486 13.35 14.9654C13.1544 14.9814 12.9163 14.981 12.639 14.981H11.0609C10.7837 14.981 10.5455 14.9814 10.35 14.9654C10.144 14.9486 9.94095 14.9111 9.74646 14.8121C9.45481 14.6635 9.21733 14.426 9.06873 14.1343C8.96972 13.9399 8.93321 13.7367 8.91638 13.5308C8.90044 13.3354 8.89977 13.0979 8.89978 12.8209V11.2418C8.89977 10.9644 8.90042 10.7264 8.91638 10.5308C8.93321 10.3249 8.96965 10.1218 9.06873 9.92732C9.21733 9.63567 9.45481 9.39819 9.74646 9.24958C9.94092 9.15056 10.1441 9.11406 10.35 9.09724C10.5455 9.08128 10.7836 9.08063 11.0609 9.08064H12.639ZM11.0804 10.0806C10.7782 10.0806 10.581 10.0811 10.431 10.0933C10.287 10.1051 10.2307 10.1259 10.2006 10.1412C10.0971 10.1939 10.0131 10.2779 9.96033 10.3814C9.94501 10.4115 9.92426 10.4678 9.91248 10.6119C9.90022 10.7619 9.89978 10.959 9.89978 11.2613V12.8013C9.89978 13.1033 9.90023 13.2998 9.91248 13.4498C9.92423 13.5937 9.94502 13.6501 9.96033 13.6802C10.0131 13.7837 10.0971 13.8687 10.2006 13.9215C10.2307 13.9368 10.2875 13.9566 10.431 13.9683C10.581 13.9806 10.7782 13.981 11.0804 13.981H12.6195C12.9218 13.981 13.1189 13.9806 13.2689 13.9683C13.4124 13.9566 13.4692 13.9368 13.4994 13.9215C13.6029 13.8687 13.6869 13.7837 13.7396 13.6802C13.7549 13.6501 13.7757 13.5937 13.7875 13.4498C13.7997 13.2999 13.8002 13.1033 13.8002 12.8013V11.2613C13.8002 10.959 13.7997 10.7619 13.7875 10.6119C13.7757 10.4678 13.7549 10.4115 13.7396 10.3814C13.6869 10.2779 13.6029 10.1939 13.4994 10.1412C13.4693 10.1259 13.4129 10.1051 13.2689 10.0933C13.1189 10.0811 12.9218 10.0806 12.6195 10.0806H11.0804Z" fill="white"/>
<path fill-rule="evenodd" clip-rule="evenodd" d="M4.14978 1.20564C5.87556 1.20564 7.27461 2.60489 7.27478 4.33064C7.27478 6.05653 5.87567 7.45564 4.14978 7.45564C2.42398 7.45553 1.02478 6.05646 1.02478 4.33064C1.02495 2.60496 2.42408 1.20574 4.14978 1.20564Z" fill="white"/>
<path fill-rule="evenodd" clip-rule="evenodd" d="M10.8119 1.62263C11.2744 0.826046 12.4255 0.826047 12.8881 1.62263L14.8217 4.95368C15.2859 5.75352 14.7093 6.75608 13.7845 6.75642H9.91541C8.99065 6.75608 8.41401 5.75352 8.8783 4.95368L10.8119 1.62263ZM12.0228 2.12458C11.9457 1.99187 11.7542 1.99187 11.6771 2.12458L9.74255 5.45564C9.66546 5.5888 9.76159 5.75609 9.91541 5.75642H13.7845C13.9384 5.75608 14.0345 5.58879 13.9574 5.45564L12.0228 2.12458Z" fill="white"/>
</svg>
