<svg width="16" height="16" viewBox="0 0 16 16" fill="none" xmlns="http://www.w3.org/2000/svg">
<path fill-rule="evenodd" clip-rule="evenodd" d="M5.05383 1.77539H10.9499C11.422 1.77539 11.8066 1.77538 12.1189 1.80089C12.4416 1.82726 12.7309 1.88336 13.0003 2.02063C13.4236 2.23634 13.7678 2.58055 13.9836 3.00391C14.1208 3.27332 14.1769 3.56254 14.2033 3.88528C14.2288 4.19754 14.2288 4.58216 14.2288 5.0543V10.9472C14.2288 11.4193 14.2288 11.8039 14.2033 12.1162C14.1769 12.4389 14.1208 12.7282 13.9836 12.9976C13.7678 13.4209 13.4236 13.7651 13.0003 13.9809C12.7309 14.1181 12.4416 14.1742 12.1189 14.2006C11.8066 14.2261 11.422 14.2261 10.9499 14.2261H5.05382C4.58167 14.2261 4.19705 14.2261 3.88479 14.2006C3.56205 14.1742 3.27283 14.1181 3.00342 13.9809C2.58006 13.7651 2.23585 13.4209 2.02014 12.9976C1.88287 12.7282 1.82677 12.4389 1.80041 12.1162C1.77489 11.8039 1.7749 11.4193 1.7749 10.9472V5.05431C1.7749 4.58217 1.77489 4.19754 1.80041 3.88528C1.82677 3.56254 1.88287 3.27332 2.02014 3.00391C2.23585 2.58055 2.58006 2.23634 3.00342 2.02063C3.27283 1.88336 3.56205 1.82726 3.88479 1.80089C4.19706 1.77538 4.58168 1.77539 5.05383 1.77539ZM5.91984 5.24414C5.6437 5.24414 5.41984 5.468 5.41984 5.74414C5.41984 6.02028 5.6437 6.24414 5.91984 6.24414H9.05109L5.21925 10.0749C5.02396 10.2702 5.02392 10.5867 5.21915 10.782C5.41439 10.9773 5.73097 10.9774 5.92626 10.7821L9.75844 6.95101V10.0815C9.75844 10.3577 9.9823 10.5815 10.2584 10.5815C10.5346 10.5815 10.7584 10.3577 10.7584 10.0815V5.74414C10.7584 5.468 10.5346 5.24414 10.2584 5.24414H5.91984Z" fill="white"/>
</svg>
