<svg width="16" height="16" viewBox="0 0 16 16" fill="none" xmlns="http://www.w3.org/2000/svg">
<path fill-rule="evenodd" clip-rule="evenodd" d="M2.4 3.09998H5.9C6.67 3.09998 7.3 3.71998 7.3 4.49998V11.5C7.3 12.27 6.67 12.9 5.9 12.9H2.4C1.62 12.9 1 12.27 1 11.5V4.49998C1 3.71998 1.62 3.09998 2.4 3.09998ZM10.09 3.09998H13.59C14.37 3.09998 15 3.71998 15 4.49998V11.5C15 12.27 14.37 12.9 13.59 12.9H10.09C9.32 12.9 8.69 12.27 8.69 11.5V4.49998C8.69 3.71998 9.32 3.09998 10.09 3.09998ZM2.62 7.63998L4.58 5.48998C4.91 5.13998 5.5 5.36998 5.5 5.84998V10.14C5.5 10.62 4.91 10.85 4.58 10.5L2.62 8.34998C2.44 8.14998 2.44 7.83998 2.62 7.63998ZM13.37 7.63998L11.41 5.48998C11.08 5.13998 10.5 5.36998 10.5 5.84998V10.14C10.5 10.62 11.08 10.85 11.41 10.5L13.37 8.34998C13.55 8.14998 13.55 7.83998 13.37 7.63998Z" fill="white"/>
</svg>
