<svg width="16" height="16" viewBox="0 0 16 16" fill="none" xmlns="http://www.w3.org/2000/svg">
<path fill-rule="evenodd" clip-rule="evenodd" d="M1 4.50001C1 3.72001 1.62 3.10001 2.4 3.10001H5.9C6.67 3.10001 7.3 3.72001 7.3 4.50001V11.5C7.3 12.27 6.67 12.9 5.9 12.9H2.4C1.62 12.9 1 12.27 1 11.5V4.50001ZM10.09 3.10001C9.32 3.10001 8.69 3.72001 8.69 4.50001V11.5C8.69 12.27 9.32 12.9 10.09 12.9H13.59C14.37 12.9 15 12.27 15 11.5V4.50001C15 3.72001 14.37 3.10001 13.59 3.10001H10.09ZM2 4.50001C2 4.27001 2.17 4.10001 2.4 4.10001H5.9C6.12 4.10001 6.3 4.27001 6.3 4.50001V11.5C6.3 11.72 6.12 11.9 5.9 11.9H2.4C2.17 11.9 2 11.72 2 11.5V4.50001ZM10.09 4.10001C9.87 4.10001 9.69 4.27001 9.69 4.50001V11.5C9.69 11.72 9.87 11.9 10.09 11.9H13.59C13.82 11.9 14 11.72 14 11.5V4.50001C14 4.27001 13.82 4.10001 13.59 4.10001H10.09ZM4.58 5.49001L2.62 7.64001C2.44 7.84001 2.44 8.15001 2.62 8.35001L4.58 10.5C4.91 10.85 5.5 10.62 5.5 10.14V5.85001C5.5 5.37001 4.91 5.14001 4.58 5.49001ZM11.41 5.49001L13.37 7.64001C13.55 7.84001 13.55 8.15001 13.37 8.35001L11.41 10.5C11.08 10.85 10.5 10.62 10.5 10.14V5.85001C10.5 5.37001 11.08 5.14001 11.41 5.49001Z" fill="white"/>
</svg>
