<svg width="16" height="16" viewBox="0 0 16 16" fill="none" xmlns="http://www.w3.org/2000/svg">
<path fill-rule="evenodd" clip-rule="evenodd" d="M5.05383 1.77539C4.58168 1.77539 4.19705 1.77538 3.88479 1.80089C3.56205 1.82726 3.27283 1.88336 3.00342 2.02063C2.58006 2.23634 2.23585 2.58055 2.02014 3.00391C1.88287 3.27332 1.82677 3.56254 1.80041 3.88528C1.77489 4.19754 1.7749 4.58216 1.7749 5.0543V10.9472C1.7749 11.4193 1.77489 11.8039 1.80041 12.1162C1.82677 12.4389 1.88287 12.7282 2.02014 12.9976C2.23585 13.4209 2.58006 13.7651 3.00342 13.9809C3.27283 14.1181 3.56205 14.1742 3.88479 14.2006C4.19705 14.2261 4.58167 14.2261 5.05382 14.2261H10.9499C11.422 14.2261 11.8066 14.2261 12.1189 14.2006C12.4416 14.1742 12.7309 14.1181 13.0003 13.9809C13.4236 13.7651 13.7678 13.4209 13.9836 12.9976C14.1208 12.7282 14.1769 12.4389 14.2033 12.1162C14.2288 11.8039 14.2288 11.4193 14.2288 10.9472V5.0543C14.2288 4.58216 14.2288 4.19754 14.2033 3.88528C14.1769 3.56254 14.1208 3.27332 13.9836 3.00391C13.7678 2.58055 13.4236 2.23634 13.0003 2.02063C12.7309 1.88336 12.4416 1.82726 12.1189 1.80089C11.8066 1.77538 11.422 1.77539 10.9499 1.77539H5.05383ZM3.45741 2.91163C3.56235 2.85816 3.70533 2.81889 3.96622 2.79757C4.23296 2.77578 4.57661 2.77539 5.0749 2.77539H10.9288C11.4271 2.77539 11.7707 2.77578 12.0375 2.79757C12.2984 2.81889 12.4413 2.85816 12.5463 2.91163C12.7815 3.03147 12.9727 3.2227 13.0926 3.4579C13.146 3.56284 13.1853 3.70581 13.2066 3.96671C13.2284 4.23344 13.2288 4.5771 13.2288 5.07539V10.9261C13.2288 11.4244 13.2284 11.768 13.2066 12.0348C13.1853 12.2957 13.146 12.4386 13.0926 12.5436C12.9727 12.7788 12.7815 12.97 12.5463 13.0898C12.4413 13.1433 12.2984 13.1826 12.0375 13.2039C11.7707 13.2257 11.4271 13.2261 10.9288 13.2261H5.0749C4.57661 13.2261 4.23296 13.2257 3.96622 13.2039C3.70533 13.1826 3.56235 13.1433 3.45741 13.0898C3.22221 12.97 3.03099 12.7788 2.91114 12.5436C2.85768 12.4386 2.8184 12.2957 2.79708 12.0348C2.77529 11.768 2.7749 11.4244 2.7749 10.9261V5.07539C2.7749 4.57709 2.77529 4.23344 2.79708 3.96671C2.8184 3.70581 2.85768 3.56284 2.91114 3.4579C3.03099 3.2227 3.22221 3.03147 3.45741 2.91163ZM5.91984 5.24414C5.6437 5.24414 5.41984 5.468 5.41984 5.74414C5.41984 6.02028 5.6437 6.24414 5.91984 6.24414H9.05109L5.21925 10.0749C5.02396 10.2702 5.02392 10.5867 5.21915 10.782C5.41439 10.9773 5.73097 10.9774 5.92626 10.7821L9.75844 6.95101V10.0815C9.75844 10.3577 9.9823 10.5815 10.2584 10.5815C10.5346 10.5815 10.7584 10.3577 10.7584 10.0815V5.74414C10.7584 5.468 10.5346 5.24414 10.2584 5.24414H5.91984Z" fill="white"/>
</svg>
