<svg width="16" height="16" viewBox="0 0 16 16" fill="none" xmlns="http://www.w3.org/2000/svg">
<path d="M6.60017 10.8157C7.17999 10.8157 7.64984 11.2857 7.64997 11.8655C7.64997 12.4454 7.18007 12.9153 6.60017 12.9153C6.02034 12.9152 5.55036 12.4453 5.55036 11.8655C5.55049 11.2857 6.02041 10.8158 6.60017 10.8157Z" fill="white"/>
<path d="M4.32575 8.19067C4.90542 8.19086 5.37543 8.6608 5.37556 9.24048C5.37556 9.82026 4.9055 10.2901 4.32575 10.2903C4.28969 10.2903 4.25346 10.289 4.21833 10.2854C3.68873 10.2318 3.27497 9.78423 3.27497 9.24048C3.27509 8.73317 3.63544 8.31005 4.11384 8.21216C4.18199 8.19822 4.25349 8.19072 4.32575 8.19067Z" fill="white"/>
<path d="M11.7828 5.39575C12.3123 5.44953 12.7252 5.89702 12.7252 6.44067C12.7252 7.02057 12.2553 7.49048 11.6754 7.49048C11.5306 7.49048 11.3926 7.46144 11.2672 7.40845C11.2043 7.38191 11.1444 7.3495 11.0884 7.31177C10.809 7.1231 10.6256 6.80323 10.6256 6.44067C10.6256 6.11444 10.774 5.82271 11.0074 5.63013C11.0591 5.5875 11.1151 5.55006 11.1744 5.51782C11.2637 5.46923 11.3608 5.43339 11.4634 5.41235C11.5319 5.39833 11.6028 5.39088 11.6754 5.39087L11.7828 5.39575Z" fill="white"/>
<path d="M5.02497 4.69067C5.60479 4.69067 6.07563 5.16069 6.07575 5.74048C6.07575 6.32038 5.60487 6.79028 5.02497 6.79028C4.44525 6.79007 3.97517 6.32025 3.97517 5.74048C3.97519 5.63195 3.99242 5.52743 4.02302 5.42896C4.05372 5.33015 4.09815 5.23748 4.15486 5.15357C4.34349 4.87444 4.66276 4.69081 5.02497 4.69067Z" fill="white"/>
<path d="M8.52497 3.29028C9.10487 3.29028 9.57575 3.76117 9.57575 4.34107C9.57555 4.92079 9.10475 5.39087 8.52497 5.39087C7.94538 5.39066 7.47537 4.92066 7.47517 4.34107C7.47517 3.7613 7.94525 3.29049 8.52497 3.29028Z" fill="white"/>
<path fill-rule="evenodd" clip-rule="evenodd" d="M7.42048 1.04419C9.68395 0.792849 11.6708 1.65201 13.0396 2.9436C14.3839 4.21232 15.1856 5.95453 15.0035 7.54517C14.9975 7.81596 14.8875 8.35154 14.6568 8.88208C14.4188 9.42956 14.0059 10.081 13.3277 10.4202C12.5185 10.8248 11.7206 10.8248 11.1607 10.8655C10.5754 10.908 10.2562 10.9873 10.0045 11.3225C9.89759 11.465 9.86353 11.6169 9.87751 11.8147C9.89328 12.0366 9.96327 12.2658 10.0474 12.5706C10.1222 12.8414 10.2171 13.1997 10.1812 13.5549C10.1405 13.9568 9.93993 14.3169 9.53181 14.5891C8.88111 15.0229 8.03201 15.157 7.16755 15.0764C6.29649 14.9951 5.36307 14.6924 4.49665 14.1975C2.76446 13.2079 1.23426 11.4059 1.0279 8.93286C0.68404 4.80619 3.67894 1.45996 7.42048 1.04419ZM12.3531 3.67017C11.1704 2.55433 9.4669 1.82239 7.53083 2.03735C4.31381 2.39485 1.72652 5.27592 2.024 8.84888C2.19711 10.9253 3.48078 12.4656 4.99275 13.3293C5.74812 13.7608 6.54512 14.0135 7.26032 14.0803C7.98211 14.1477 8.57808 14.0231 8.97712 13.7571C9.1435 13.646 9.17633 13.5506 9.18611 13.4543C9.20055 13.3114 9.16341 13.1263 9.08357 12.8372C9.01307 12.5819 8.90514 12.2329 8.88044 11.886C8.85413 11.5147 8.91694 11.1053 9.20368 10.7229C9.73941 10.0087 10.471 9.91332 11.0884 9.86841C11.7314 9.82168 12.2901 9.8208 12.8804 9.52564C13.2519 9.33978 13.5395 8.94121 13.7388 8.48267C13.9389 8.02244 14.0044 7.61035 14.0045 7.52271V7.49146L14.0084 7.46118C14.1582 6.26286 13.5487 4.7985 12.3531 3.67017Z" fill="white"/>
</svg>
