<svg width="16" height="16" viewBox="0 0 16 16" fill="none" xmlns="http://www.w3.org/2000/svg">
<path fill-rule="evenodd" clip-rule="evenodd" d="M3.72151 2.5C3.34686 2.49999 3.03565 2.49999 2.78172 2.52073C2.51735 2.54234 2.27134 2.58889 2.03937 2.70709C1.68186 2.88925 1.3912 3.17991 1.20904 3.53742C1.09085 3.76939 1.04429 4.01539 1.02269 4.27977C1.00194 4.5337 1.00195 4.8449 1.00195 5.21955V10.7817C1.00195 11.1563 1.00194 11.4675 1.02269 11.7215C1.04429 11.9858 1.09085 12.2318 1.20904 12.4638C1.3912 12.8213 1.68186 13.112 2.03937 13.2941C2.27134 13.4123 2.51735 13.4589 2.78172 13.4805C3.03565 13.5012 3.34685 13.5012 3.72149 13.5012H12.2788C12.6535 13.5012 12.9647 13.5012 13.2186 13.4805C13.483 13.4589 13.729 13.4123 13.961 13.2941C14.3185 13.112 14.6091 12.8213 14.7913 12.4638C14.9095 12.2318 14.956 11.9858 14.9776 11.7215C14.9984 11.4675 14.9984 11.1563 14.9984 10.7817V5.21955C14.9984 4.84493 14.9984 4.53368 14.9776 4.27977C14.956 4.01539 14.9095 3.76939 14.7913 3.53742C14.6091 3.17991 14.3185 2.88925 13.961 2.70709C13.729 2.58889 13.483 2.54234 13.2186 2.52073C12.9647 2.49999 12.6535 2.49999 12.2788 2.5H3.72151ZM5.86575 12.5012V3.5H12.2584C12.6587 3.5 12.9288 3.50039 13.1372 3.51741C13.3397 3.53396 13.4395 3.5637 13.507 3.59809C13.6763 3.68438 13.814 3.82206 13.9003 3.99141C13.9347 4.05891 13.9644 4.15867 13.981 4.3612C13.998 4.56957 13.9984 4.83971 13.9984 5.24V10.7612C13.9984 11.1615 13.998 11.4317 13.981 11.64C13.9644 11.8426 13.9347 11.9423 13.9003 12.0098C13.814 12.1792 13.6763 12.3168 13.507 12.4031C13.4395 12.4375 13.3397 12.4673 13.1372 12.4838C12.9288 12.5008 12.6587 12.5012 12.2584 12.5012H5.86575Z" fill="white"/>
</svg>
