<svg width="16" height="16" viewBox="0 0 16 16" fill="none" xmlns="http://www.w3.org/2000/svg">
<path fill-rule="evenodd" clip-rule="evenodd" d="M14.4434 2.35355C14.6387 2.15829 14.6387 1.84171 14.4434 1.64645C14.2481 1.45118 13.9316 1.45118 13.7363 1.64645L12.8784 2.50429C12.6999 2.49999 12.5005 2.5 12.2788 2.5H3.72151C3.34687 2.49999 3.03565 2.49999 2.78172 2.52074C2.51735 2.54234 2.27134 2.58889 2.03937 2.70709C1.68186 2.88925 1.3912 3.17991 1.20904 3.53742C1.09085 3.76939 1.04429 4.01539 1.02269 4.27977C1.00194 4.53368 1.00195 4.84487 1.00195 5.21949V10.7817C1.00195 11.1563 1.00194 11.4675 1.02269 11.7215C1.04429 11.9858 1.09085 12.2318 1.20904 12.4638C1.3912 12.8213 1.68186 13.112 2.03937 13.2941C2.05033 13.2997 2.06131 13.3051 2.07233 13.3104L1.8569 13.5258C1.66163 13.7211 1.66163 14.0377 1.8569 14.2329C2.05216 14.4282 2.36874 14.4282 2.564 14.2329L14.4434 2.35355ZM2.89639 12.4863L10.1083 5.27448V5.11181C10.1083 4.9158 10.1083 4.81779 10.1464 4.74292C10.18 4.67706 10.2335 4.62352 10.2994 4.58996C10.3742 4.55181 10.4722 4.55181 10.6683 4.55181H10.8309L11.8827 3.5H3.74195C3.34167 3.5 3.07152 3.50039 2.86315 3.51741C2.66062 3.53396 2.56087 3.5637 2.49336 3.59809C2.32402 3.68438 2.18633 3.82206 2.10005 3.99141C2.06565 4.05891 2.03592 4.15867 2.01937 4.3612C2.00234 4.56957 2.00195 4.83971 2.00195 5.24V10.7612C2.00195 11.1615 2.00234 11.4317 2.01937 11.64C2.03592 11.8426 2.06565 11.9423 2.10005 12.0098C2.18633 12.1792 2.32402 12.3168 2.49336 12.4031C2.56087 12.4375 2.66062 12.4673 2.86315 12.4838C2.87406 12.4847 2.88513 12.4855 2.89639 12.4863ZM13.9679 4.23952L14.7488 3.45865C14.7635 3.48452 14.7777 3.51079 14.7913 3.53742C14.9095 3.76939 14.956 4.01539 14.9776 4.27977C14.9984 4.5337 14.9984 4.8449 14.9984 5.21954V10.7817C14.9984 11.1563 14.9984 11.4675 14.9776 11.7215C14.956 11.9858 14.9095 12.2318 14.7913 12.4638C14.6091 12.8213 14.3185 13.112 13.961 13.2941C13.729 13.4123 13.483 13.4589 13.2186 13.4805C12.9647 13.5012 12.6535 13.5012 12.2788 13.5012H4.70621L5.70621 12.5012H12.2584C12.6587 12.5012 12.9288 12.5008 13.1372 12.4838C13.3397 12.4673 13.4395 12.4375 13.507 12.4031C13.6763 12.3168 13.814 12.1792 13.9003 12.0098C13.9347 11.9423 13.9644 11.8426 13.981 11.64C13.998 11.4317 13.9984 11.1615 13.9984 10.7612V5.24C13.9984 4.83971 13.998 4.56957 13.981 4.3612C13.9772 4.31572 13.9729 4.27543 13.9679 4.23952ZM10.1083 10.8892V8.09917L12.9183 5.28914V10.8892C12.9183 11.0852 12.9183 11.1832 12.8801 11.2581C12.8466 11.324 12.793 11.3775 12.7272 11.4111C12.6523 11.4492 12.5543 11.4492 12.3583 11.4492H10.6683C10.4722 11.4492 10.3742 11.4492 10.2994 11.4111C10.2335 11.3775 10.18 11.324 10.1464 11.2581C10.1083 11.1832 10.1083 11.0852 10.1083 10.8892Z" fill="white"/>
</svg>
