<svg width="16" height="16" viewBox="0 0 16 16" fill="none" xmlns="http://www.w3.org/2000/svg">
<path fill-rule="evenodd" clip-rule="evenodd" d="M14.4434 2.35355C14.6387 2.15829 14.6387 1.84171 14.4434 1.64645C14.2481 1.45118 13.9316 1.45118 13.7363 1.64645L12.8827 2.5H2.89C1.84618 2.5 1 3.34618 1 4.39V11.61C1 12.3598 1.43668 13.0077 2.0696 13.3131L1.8569 13.5258C1.66163 13.7211 1.66163 14.0377 1.8569 14.2329C2.05216 14.4282 2.36874 14.4282 2.564 14.2329L14.4434 2.35355ZM2.88277 12.5L3.98264 11.4001H3.44961C3.25631 11.4001 3.09961 11.2434 3.09961 11.0501V8.9501C3.09961 8.7568 3.25631 8.6001 3.44961 8.6001H6.78264L11.8827 3.5H2.89C2.39847 3.5 2 3.89847 2 4.39V11.61C2 12.0991 2.39456 12.4961 2.88277 12.5ZM13.9843 4.22279L14.7526 3.4545C14.91 3.73033 15 4.04966 15 4.39V11.61C15 12.6538 14.1538 13.5 13.11 13.5H4.70711L5.70711 12.5H13.11C13.6015 12.5 14 12.1015 14 11.61V4.39C14 4.33284 13.9946 4.27695 13.9843 4.22279ZM12.5496 11.4001H6.80701L9.60701 8.6001H12.5496C12.7429 8.6001 12.8996 8.7568 12.8996 8.9501V11.0501C12.8996 11.2434 12.7429 11.4001 12.5496 11.4001Z" fill="white"/>
</svg>
