<svg width="16" height="16" viewBox="0 0 16 16" fill="none" xmlns="http://www.w3.org/2000/svg">
<path fill-rule="evenodd" clip-rule="evenodd" d="M12.2788 2.5C12.6535 2.49999 12.9647 2.49999 13.2186 2.52074C13.483 2.54234 13.729 2.58889 13.961 2.70709C14.3185 2.88925 14.6091 3.17991 14.7913 3.53742C14.9095 3.76939 14.956 4.01539 14.9776 4.27977C14.9984 4.5337 14.9984 4.84491 14.9984 5.21956V10.7817C14.9984 11.1563 14.9984 11.4675 14.9776 11.7215C14.956 11.9858 14.9095 12.2318 14.7913 12.4638C14.6091 12.8213 14.3185 13.112 13.961 13.2941C13.729 13.4123 13.483 13.4589 13.2186 13.4805C12.9647 13.5012 12.6535 13.5012 12.2788 13.5012H3.7215C3.34686 13.5012 3.03565 13.5012 2.78172 13.4805C2.51735 13.4589 2.27134 13.4123 2.03937 13.2941C1.68186 13.112 1.3912 12.8213 1.20904 12.4638C1.09085 12.2318 1.04429 11.9858 1.02269 11.7215C1.00194 11.4675 1.00195 11.1563 1.00195 10.7817V5.21955C1.00195 4.84491 1.00194 4.53369 1.02269 4.27977C1.04429 4.01539 1.09085 3.76939 1.20904 3.53742C1.3912 3.17991 1.68186 2.88925 2.03937 2.70709C2.27134 2.58889 2.51735 2.54234 2.78172 2.52074C3.03565 2.49999 3.34686 2.49999 3.7215 2.5H12.2788ZM13.507 3.59809C13.4395 3.5637 13.3397 3.53396 13.1372 3.51741C12.9288 3.50039 12.6587 3.5 12.2584 3.5H3.74195C3.34167 3.5 3.07152 3.50039 2.86315 3.51741C2.66062 3.53396 2.56087 3.5637 2.49336 3.59809C2.32402 3.68438 2.18633 3.82206 2.10005 3.99141C2.06565 4.05891 2.03591 4.15867 2.01937 4.3612C2.00234 4.56957 2.00195 4.83971 2.00195 5.24V10.7612C2.00195 11.1615 2.00234 11.4317 2.01937 11.64C2.03591 11.8426 2.06565 11.9423 2.10005 12.0098C2.18633 12.1792 2.32402 12.3168 2.49336 12.4031C2.56087 12.4375 2.66062 12.4673 2.86315 12.4838C3.07152 12.5008 3.34167 12.5012 3.74195 12.5012H12.2584C12.6587 12.5012 12.9288 12.5008 13.1372 12.4838C13.3397 12.4673 13.4395 12.4375 13.507 12.4031C13.6763 12.3168 13.814 12.1792 13.9003 12.0098C13.9347 11.9423 13.9644 11.8426 13.981 11.64C13.998 11.4317 13.9984 11.1615 13.9984 10.7612V5.24C13.9984 4.83971 13.998 4.56957 13.981 4.3612C13.9644 4.15867 13.9347 4.05891 13.9003 3.99141C13.814 3.82206 13.6763 3.68438 13.507 3.59809ZM12.9183 10.8892V5.11181C12.9183 4.9158 12.9183 4.81779 12.8801 4.74292C12.8466 4.67706 12.793 4.62352 12.7272 4.58996C12.6523 4.55181 12.5543 4.55181 12.3583 4.55181H10.6683C10.4722 4.55181 10.3742 4.55181 10.2994 4.58996C10.2335 4.62352 10.18 4.67706 10.1464 4.74292C10.1083 4.81779 10.1083 4.9158 10.1083 5.11181V10.8892C10.1083 11.0852 10.1083 11.1832 10.1464 11.2581C10.18 11.324 10.2335 11.3775 10.2994 11.4111C10.3742 11.4492 10.4722 11.4492 10.6683 11.4492H12.3583C12.5543 11.4492 12.6523 11.4492 12.7272 11.4111C12.793 11.3775 12.8466 11.324 12.8801 11.2581C12.9183 11.1832 12.9183 11.0852 12.9183 10.8892Z" fill="white"/>
</svg>
