<svg width="16" height="16" viewBox="0 0 16 16" fill="none" xmlns="http://www.w3.org/2000/svg">
<path fill-rule="evenodd" clip-rule="evenodd" d="M12.2786 2.5C12.6532 2.49999 12.9644 2.49999 13.2184 2.52073C13.4827 2.54234 13.7287 2.58889 13.9607 2.70709C14.3182 2.88925 14.6089 3.17991 14.791 3.53742C14.9092 3.76939 14.9558 4.01539 14.9774 4.27977C14.9981 4.5337 14.9981 4.8449 14.9981 5.21955V10.7817C14.9981 11.1563 14.9981 11.4675 14.9774 11.7215C14.9558 11.9858 14.9092 12.2318 14.791 12.4638C14.6089 12.8213 14.3182 13.112 13.9607 13.2941C13.7287 13.4123 13.4827 13.4589 13.2184 13.4805C12.9644 13.5012 12.6532 13.5012 12.2786 13.5012H3.72126C3.34662 13.5012 3.0354 13.5012 2.78148 13.4805C2.5171 13.4589 2.2711 13.4123 2.03913 13.2941C1.68162 13.112 1.39096 12.8213 1.2088 12.4638C1.0906 12.2318 1.04404 11.9858 1.02244 11.7215C1.0017 11.4675 1.0017 11.1563 1.00171 10.7817V5.21955C1.0017 4.84491 1.0017 4.53369 1.02244 4.27977C1.04404 4.01539 1.0906 3.76939 1.2088 3.53742C1.39096 3.17991 1.68162 2.88925 2.03913 2.70709C2.2711 2.58889 2.5171 2.54234 2.78148 2.52073C3.03541 2.49999 3.34662 2.49999 3.72127 2.5H12.2786ZM10.1343 12.5012V3.5H3.74171C3.34142 3.5 3.07128 3.50039 2.86291 3.51741C2.66038 3.53396 2.56062 3.5637 2.49312 3.59809C2.32377 3.68438 2.18609 3.82206 2.0998 3.99141C2.06541 4.05891 2.03567 4.15867 2.01912 4.3612C2.0021 4.56957 2.00171 4.83971 2.00171 5.24V10.7612C2.00171 11.1615 2.0021 11.4317 2.01912 11.64C2.03567 11.8426 2.06541 11.9423 2.0998 12.0098C2.18609 12.1792 2.32377 12.3168 2.49312 12.4031C2.56062 12.4375 2.66038 12.4673 2.86291 12.4838C3.07128 12.5008 3.34142 12.5012 3.74171 12.5012H10.1343Z" fill="white"/>
</svg>
