<svg width="16" height="16" viewBox="0 0 16 16" fill="none" xmlns="http://www.w3.org/2000/svg">
<path fill-rule="evenodd" clip-rule="evenodd" d="M5.02893 1.75C4.55678 1.74999 4.17215 1.74999 3.85989 1.7755C3.53715 1.80187 3.24793 1.85797 2.97852 1.99524C2.55516 2.21095 2.21095 2.55516 1.99524 2.97852C1.85797 3.24793 1.80187 3.53715 1.7755 3.85989C1.74999 4.17215 1.74999 4.55677 1.75 5.02892V10.9751C1.74999 11.4472 1.74999 11.8318 1.7755 12.1441C1.80187 12.4668 1.85797 12.7561 1.99524 13.0255C2.21095 13.4488 2.55516 13.793 2.97852 14.0087C3.24793 14.146 3.53715 14.2021 3.85989 14.2285C4.17215 14.254 4.55677 14.254 5.02891 14.254H10.9751C11.4472 14.254 11.8318 14.254 12.1441 14.2285C12.4668 14.2021 12.7561 14.146 13.0255 14.0087C13.4488 13.793 13.793 13.4488 14.0087 13.0255C14.146 12.7561 14.2021 12.4668 14.2285 12.1441C14.254 11.8318 14.254 11.4472 14.254 10.9751V5.02891C14.254 4.55677 14.254 4.17215 14.2285 3.85989C14.2021 3.53715 14.146 3.24793 14.0087 2.97852C13.793 2.55516 13.4488 2.21095 13.0255 1.99524C12.7561 1.85797 12.4668 1.80187 12.1441 1.7755C11.8318 1.74999 11.4472 1.74999 10.9751 1.75H5.02893ZM3.43251 2.88624C3.53745 2.83277 3.68042 2.7935 3.94132 2.77218C4.20805 2.75039 4.5517 2.75 5.05 2.75H10.954C11.4523 2.75 11.7959 2.75039 12.0627 2.77218C12.3236 2.7935 12.4665 2.83277 12.5715 2.88624C12.8067 3.00608 12.9979 3.19731 13.1177 3.43251C13.1712 3.53745 13.2105 3.68042 13.2318 3.94132C13.2536 4.20805 13.254 4.5517 13.254 5.05V10.954C13.254 11.4523 13.2536 11.7959 13.2318 12.0627C13.2105 12.3236 13.1712 12.4665 13.1177 12.5715C12.9979 12.8067 12.8067 12.9979 12.5715 13.1177C12.4665 13.1712 12.3236 13.2105 12.0627 13.2318C11.7959 13.2536 11.4523 13.254 10.954 13.254H5.05C4.5517 13.254 4.20805 13.2536 3.94132 13.2318C3.68042 13.2105 3.53745 13.1712 3.43251 13.1177C3.19731 12.9979 3.00608 12.8067 2.88624 12.5715C2.83277 12.4665 2.7935 12.3236 2.77218 12.0627C2.75039 11.7959 2.75 11.4523 2.75 10.954V5.05C2.75 4.5517 2.75039 4.20805 2.77218 3.94132C2.7935 3.68042 2.83277 3.53745 2.88624 3.43251C3.00608 3.19731 3.19731 3.00608 3.43251 2.88624ZM6.08472 4.88735C5.80857 4.88735 5.58472 5.11121 5.58472 5.38735V10.6164C5.58472 10.8926 5.80857 11.1164 6.08472 11.1164C6.36086 11.1164 6.58472 10.8926 6.58472 10.6164V9.0248H8.69926C9.84178 9.0248 10.768 8.0986 10.768 6.95608C10.768 5.81355 9.84178 4.88735 8.69926 4.88735H6.08472ZM8.69926 8.0248H6.58472V5.88735H8.69926C9.2895 5.88735 9.76798 6.36584 9.76798 6.95608C9.76798 7.54632 9.2895 8.0248 8.69926 8.0248Z" fill="white"/>
</svg>
