<svg width="16" height="16" viewBox="0 0 16 16" fill="none" xmlns="http://www.w3.org/2000/svg">
<path fill-rule="evenodd" clip-rule="evenodd" d="M10.8961 14.2538C11.1466 14.2538 11.3615 14.2538 11.5387 14.2407C11.7251 14.2269 11.9092 14.1967 12.0886 14.1153C12.4304 13.9601 12.7044 13.6862 12.8595 13.3443C12.9409 13.1649 12.9712 12.9809 12.985 12.7945C12.9981 12.6173 12.9981 12.4024 12.998 12.1518V3.85199C12.9981 3.60141 12.9981 3.38655 12.985 3.20933C12.9712 3.02296 12.9409 2.83887 12.8595 2.65947C12.7044 2.31761 12.4304 2.04368 12.0886 1.88854C11.9092 1.80713 11.7251 1.77688 11.5387 1.76309C11.3615 1.74999 11.1466 1.74999 10.8961 1.75H10.861C10.6104 1.74999 10.3955 1.74999 10.2183 1.76309C10.0319 1.77688 9.84784 1.80713 9.66845 1.88854C9.32659 2.04368 9.05265 2.31761 8.89751 2.65947C8.8161 2.83887 8.78585 3.02296 8.77207 3.20933C8.75896 3.38655 8.75897 3.60141 8.75897 3.85199L8.75897 12.1518C8.75897 12.4024 8.75896 12.6173 8.77207 12.7945C8.78585 12.9808 8.8161 13.1649 8.89751 13.3443C9.05265 13.6862 9.32659 13.9601 9.66845 14.1153C9.84784 14.1967 10.0319 14.2269 10.2183 14.2407C10.3955 14.2538 10.6104 14.2538 10.861 14.2538H10.8961ZM11.6753 13.2046C11.6479 13.2171 11.5958 13.2338 11.465 13.2434C11.3291 13.2535 11.1515 13.2538 10.8785 13.2538C10.6055 13.2538 10.428 13.2535 10.2921 13.2434C10.1612 13.2338 10.1091 13.2171 10.0817 13.2046C9.96039 13.1496 9.86318 13.0524 9.80813 12.9311C9.79569 12.9037 9.77902 12.8516 9.76934 12.7207C9.75929 12.5848 9.75897 12.4073 9.75897 12.1343V3.86954C9.75897 3.59655 9.75929 3.41899 9.76934 3.28308C9.77902 3.15221 9.79569 3.10013 9.80813 3.07272C9.86318 2.95141 9.96039 2.85421 10.0817 2.79916C10.1091 2.78672 10.1612 2.77005 10.2921 2.76037C10.428 2.75032 10.6055 2.75 10.8785 2.75C11.1515 2.75 11.3291 2.75032 11.465 2.76037C11.5958 2.77005 11.6479 2.78672 11.6753 2.79916C11.7966 2.85421 11.8938 2.95141 11.9489 3.07272C11.9613 3.10012 11.978 3.15221 11.9877 3.28308C11.9977 3.41899 11.998 3.59656 11.998 3.86954V12.1343C11.998 12.4073 11.9977 12.5848 11.9877 12.7207C11.978 12.8516 11.9613 12.9037 11.9489 12.9311C11.8938 13.0524 11.7966 13.1496 11.6753 13.2046ZM5.10199 1.75019C4.85141 1.75019 4.63655 1.75018 4.45933 1.76329C4.27296 1.77707 4.08887 1.80732 3.90947 1.88873C3.56761 2.04387 3.29368 2.31781 3.13854 2.65967C3.05713 2.83906 3.02688 3.02315 3.01309 3.20953C2.99999 3.38674 2.99999 3.6016 3 3.85218V12.152C2.99999 12.4026 2.99999 12.6175 3.01309 12.7947C3.02688 12.981 3.05713 13.1651 3.13854 13.3445C3.29368 13.6864 3.56761 13.9603 3.90947 14.1155C4.08887 14.1969 4.27296 14.2271 4.45933 14.2409C4.63655 14.254 4.8514 14.254 5.10198 14.254H5.13709C5.38767 14.254 5.60253 14.254 5.77974 14.2409C5.96612 14.2271 6.15021 14.1969 6.3296 14.1155C6.67146 13.9603 6.9454 13.6864 7.10054 13.3445C7.18195 13.1651 7.2122 12.981 7.22598 12.7947C7.23909 12.6175 7.23908 12.4026 7.23908 12.152V3.85219C7.23908 3.60161 7.23909 3.38674 7.22598 3.20953C7.2122 3.02315 7.18195 2.83906 7.10054 2.65967C6.9454 2.31781 6.67146 2.04387 6.3296 1.88873C6.15021 1.80732 5.96612 1.77707 5.77974 1.76329C5.60253 1.75018 5.38767 1.75019 5.13709 1.75019L5.10199 1.75019ZM4.32272 2.79935C4.35013 2.78692 4.40221 2.77024 4.53309 2.76056C4.66899 2.75051 4.84656 2.7502 5.11954 2.7502C5.39252 2.7502 5.57008 2.75051 5.70599 2.76056C5.83686 2.77024 5.88895 2.78692 5.91636 2.79935C6.03766 2.8544 6.13487 2.95161 6.18992 3.07291C6.20235 3.10032 6.21903 3.15241 6.22871 3.28328C6.23876 3.41919 6.23907 3.59675 6.23907 3.86973V12.1345C6.23907 12.4074 6.23876 12.585 6.22871 12.7209C6.21903 12.8518 6.20235 12.9039 6.18992 12.9313C6.13487 13.0526 6.03766 13.1498 5.91636 13.2048C5.88895 13.2173 5.83686 13.234 5.70599 13.2436C5.57008 13.2537 5.39252 13.254 5.11954 13.254C4.84656 13.254 4.66899 13.2537 4.53309 13.2436C4.40221 13.234 4.35013 13.2173 4.32272 13.2048C4.20141 13.1498 4.10421 13.0526 4.04916 12.9313C4.03672 12.9039 4.02005 12.8518 4.01037 12.7209C4.00032 12.585 4 12.4074 4 12.1345V3.86973C4 3.59675 4.00032 3.41919 4.01037 3.28328C4.02005 3.15241 4.03672 3.10032 4.04916 3.07291C4.10421 2.95161 4.20141 2.8544 4.32272 2.79935Z" fill="white"/>
</svg>
