<svg width="16" height="16" viewBox="0 0 16 16" fill="none" xmlns="http://www.w3.org/2000/svg">
<path fill-rule="evenodd" clip-rule="evenodd" d="M5 3.50239C5 3.08596 5.33669 2.75 5.75 2.75C6.16331 2.75 6.5 3.08596 6.5 3.50239C6.5 3.91882 6.16331 4.25477 5.75 4.25477C5.33669 4.25477 5 3.91882 5 3.50239ZM5.75 1.75C4.7826 1.75 4 2.53547 4 3.50239C4 4.4693 4.7826 5.25477 5.75 5.25477C6.7174 5.25477 7.5 4.4693 7.5 3.50239C7.5 2.53547 6.7174 1.75 5.75 1.75ZM2.75 6.25C2.33669 6.25 2 6.58596 2 7.00239C2 7.41882 2.33669 7.75477 2.75 7.75477C3.16331 7.75477 3.5 7.41882 3.5 7.00239C3.5 6.58596 3.16331 6.25 2.75 6.25ZM1 7.00239C1 6.03547 1.7826 5.25 2.75 5.25C3.7174 5.25 4.5 6.03547 4.5 7.00239C4.5 7.9693 3.7174 8.75477 2.75 8.75477C1.7826 8.75477 1 7.9693 1 7.00239ZM6.09688 6.84862C6.99765 5.38379 9.00235 5.38379 9.90312 6.84862L12.1198 10.4534C12.6148 11.2585 12.5964 12.1997 12.2376 12.9366C11.8784 13.6747 11.1527 14.25 10.2166 14.25H5.78335C4.84728 14.25 4.12163 13.6747 3.76235 12.9366C3.40362 12.1996 3.38516 11.2585 3.88024 10.4534L6.09688 6.84862ZM9.05128 7.37244C8.54095 6.54252 7.45905 6.54252 6.94872 7.37244L4.73207 10.9772C4.43158 11.4658 4.43906 12.042 4.66149 12.499C4.88338 12.9548 5.2941 13.25 5.78335 13.25H10.2166C10.7059 13.25 11.1166 12.9548 11.3385 12.499C11.5609 12.042 11.5684 11.4658 11.2679 10.9772L9.05128 7.37244ZM13.25 6.25C12.8367 6.25 12.5 6.58596 12.5 7.00239C12.5 7.41882 12.8367 7.75477 13.25 7.75477C13.6633 7.75477 14 7.41882 14 7.00239C14 6.58596 13.6633 6.25 13.25 6.25ZM11.5 7.00239C11.5 6.03547 12.2826 5.25 13.25 5.25C14.2174 5.25 15 6.03547 15 7.00239C15 7.9693 14.2174 8.75477 13.25 8.75477C12.2826 8.75477 11.5 7.9693 11.5 7.00239ZM9.25 3.50239C9.25 3.08596 9.58669 2.75 10 2.75C10.4133 2.75 10.75 3.08596 10.75 3.50239C10.75 3.91882 10.4133 4.25477 10 4.25477C9.58669 4.25477 9.25 3.91882 9.25 3.50239ZM10 1.75C9.0326 1.75 8.25 2.53547 8.25 3.50239C8.25 4.4693 9.0326 5.25477 10 5.25477C10.9674 5.25477 11.75 4.4693 11.75 3.50239C11.75 2.53547 10.9674 1.75 10 1.75Z" fill="white"/>
</svg>
