<svg width="16" height="16" viewBox="0 0 16 16" fill="none" xmlns="http://www.w3.org/2000/svg">
<path fill-rule="evenodd" clip-rule="evenodd" d="M8.34922 5.2C8.34922 6.5531 7.25232 7.65 5.89922 7.65C4.54612 7.65 3.44922 6.5531 3.44922 5.2C3.44922 3.8469 4.54612 2.75 5.89922 2.75C7.25232 2.75 8.34922 3.8469 8.34922 5.2ZM1.74965 9.94731C2.93959 9.15917 4.36699 8.7002 5.9 8.7002C7.43301 8.7002 8.86041 9.15917 10.0504 9.94732C10.5543 10.2811 10.8 10.8459 10.8 11.3977C10.8 12.4208 9.97061 13.2502 8.94752 13.2502H2.85249C1.82939 13.2502 1 12.4208 1 11.3977C1 10.8459 1.24575 10.2811 1.74965 9.94731ZM11.5002 11.5002C11.5002 11.7629 11.464 12.0172 11.3964 12.2583H13.5903C14.369 12.2583 15.0003 11.6271 15.0003 10.8483C15.0003 10.4308 14.8141 9.99513 14.4221 9.73552C13.6011 9.19169 12.616 8.875 11.5586 8.875C11.0559 8.875 10.5695 8.94658 10.1094 9.08011C10.9412 9.56554 11.5002 10.4676 11.5002 11.5002ZM11.5 8C12.4665 8 13.25 7.2165 13.25 6.25C13.25 5.2835 12.4665 4.5 11.5 4.5C10.5335 4.5 9.75 5.2835 9.75 6.25C9.75 7.2165 10.5335 8 11.5 8Z" fill="white"/>
</svg>
