<svg width="16" height="16" viewBox="0 0 16 16" fill="none" xmlns="http://www.w3.org/2000/svg">
<path d="M12.4863 1.01465C12.5752 1.02367 12.6628 1.03658 12.749 1.05371C12.7972 1.0633 12.8443 1.07684 12.8916 1.08887C12.9321 1.09917 12.9729 1.10806 13.0127 1.12012C13.0644 1.13578 13.1146 1.1553 13.165 1.17383C13.1947 1.18472 13.2247 1.1942 13.2539 1.20605C13.3041 1.22648 13.3527 1.25023 13.4014 1.27344C13.4334 1.28868 13.4657 1.30293 13.4971 1.31934C13.5386 1.3411 13.5789 1.36491 13.6191 1.38867C13.6561 1.41047 13.6927 1.43264 13.7285 1.45605C13.7634 1.47887 13.7972 1.50304 13.8311 1.52734C13.867 1.55319 13.9029 1.57897 13.9375 1.60645C13.973 1.63461 14.0069 1.66451 14.041 1.69434C14.0728 1.72214 14.1043 1.7501 14.1348 1.7793C14.1637 1.80703 14.192 1.83532 14.2197 1.86426C14.2539 1.89988 14.2871 1.93625 14.3193 1.97363C14.3446 2.00287 14.3695 2.03223 14.3936 2.0625C14.4242 2.10117 14.4528 2.14135 14.4814 2.18164C14.5026 2.21139 14.524 2.24089 14.5439 2.27148C14.571 2.31293 14.5962 2.35551 14.6211 2.39844C14.6413 2.43335 14.6619 2.46806 14.6807 2.50391C14.7008 2.54232 14.719 2.58166 14.7373 2.62109C14.7565 2.6624 14.7757 2.70372 14.793 2.74609C14.8091 2.78582 14.8225 2.82658 14.8369 2.86719C14.8518 2.90933 14.8679 2.9511 14.8809 2.99414C14.8948 3.04069 14.9054 3.08821 14.917 3.13574C14.9263 3.17408 14.9376 3.21204 14.9453 3.25098C14.9575 3.31238 14.9655 3.37473 14.9736 3.4375C14.9772 3.46483 14.9826 3.49196 14.9854 3.51953C14.9945 3.61174 15 3.70518 15 3.7998V12.2002C15 12.2968 14.9949 12.3922 14.9854 12.4863C14.9768 12.5705 14.9641 12.6535 14.9482 12.7354C14.94 12.7779 14.9281 12.8195 14.918 12.8613C14.9067 12.9076 14.8953 12.9536 14.8818 12.999C14.8714 13.034 14.8594 13.0682 14.8477 13.1025C14.8317 13.1493 14.8152 13.1956 14.7969 13.2412C14.7829 13.276 14.7692 13.3107 14.7539 13.3447C14.7345 13.388 14.7139 13.4306 14.6924 13.4727C14.675 13.5067 14.6565 13.54 14.6377 13.5732C14.6099 13.6225 14.5804 13.6705 14.5498 13.7178C14.5353 13.7402 14.5219 13.7632 14.5068 13.7852C14.4753 13.831 14.4414 13.8751 14.4072 13.9189C14.3875 13.9442 14.3682 13.9696 14.3477 13.9941C14.2405 14.1223 14.1223 14.2405 13.9941 14.3477C13.9726 14.3657 13.9498 14.382 13.9277 14.3994C13.881 14.4362 13.8343 14.473 13.7852 14.5068C13.7632 14.5219 13.7402 14.5353 13.7178 14.5498C13.6705 14.5804 13.6225 14.6099 13.5732 14.6377C13.541 14.6559 13.5086 14.6735 13.4756 14.6904C13.4348 14.7114 13.3935 14.731 13.3516 14.75C13.3152 14.7665 13.2784 14.7819 13.2412 14.7969C13.1956 14.8152 13.1493 14.8317 13.1025 14.8477C13.0682 14.8594 13.034 14.8714 12.999 14.8818C12.9536 14.8953 12.9076 14.9067 12.8613 14.918C12.8205 14.9279 12.7798 14.9382 12.7383 14.9463C12.6554 14.9624 12.5716 14.9767 12.4863 14.9854C12.3922 14.9949 12.2968 15 12.2002 15H3.7998C3.70518 15 3.61174 14.9945 3.51953 14.9854C3.49754 14.9832 3.47594 14.9783 3.4541 14.9756C3.38567 14.9671 3.31778 14.9586 3.25098 14.9453C3.21204 14.9376 3.17408 14.9263 3.13574 14.917C3.08821 14.9054 3.04069 14.8948 2.99414 14.8809C2.9511 14.8679 2.90933 14.8518 2.86719 14.8369C2.82658 14.8225 2.78582 14.8091 2.74609 14.793C2.70372 14.7757 2.6624 14.7565 2.62109 14.7373C2.58166 14.719 2.54232 14.7008 2.50391 14.6807C2.46806 14.6619 2.43335 14.6413 2.39844 14.6211C2.35551 14.5962 2.31293 14.571 2.27148 14.5439C2.24089 14.524 2.21139 14.5026 2.18164 14.4814C2.14135 14.4528 2.10117 14.4242 2.0625 14.3936C2.03223 14.3695 2.00287 14.3446 1.97363 14.3193C1.93625 14.2871 1.89988 14.2539 1.86426 14.2197C1.83532 14.192 1.80703 14.1637 1.7793 14.1348C1.7501 14.1043 1.72214 14.0728 1.69434 14.041C1.66451 14.0069 1.63461 13.973 1.60645 13.9375C1.5765 13.8997 1.54851 13.8606 1.52051 13.8213C1.49865 13.7906 1.47669 13.7601 1.45605 13.7285C1.43264 13.6927 1.41047 13.6561 1.38867 13.6191C1.36491 13.5789 1.3411 13.5386 1.31934 13.4971C1.30293 13.4657 1.28868 13.4334 1.27344 13.4014C1.25023 13.3527 1.22648 13.3041 1.20605 13.2539C1.1942 13.2247 1.18472 13.1947 1.17383 13.165C1.1553 13.1146 1.13578 13.0644 1.12012 13.0127C1.10806 12.9729 1.09917 12.9321 1.08887 12.8916C1.07531 12.8383 1.06123 12.7849 1.05078 12.7305C1.03539 12.6502 1.02303 12.5688 1.01465 12.4863L1 12.2002V3.7998C1.00011 2.25356 2.25356 1.00011 3.7998 1H12.2002L12.4863 1.01465ZM11.252 8.78223C10.9029 8.4061 10.353 8.40617 10.0039 8.78223L7.31836 11.6768L7.31543 11.6797L5.12207 14H12.2002C13.1942 13.9999 13.9999 13.1942 14 12.2002V11.7305C13.9767 11.7129 13.9541 11.694 13.9336 11.6719L11.252 8.78223ZM5.65039 10.6689C5.30136 10.2928 4.75141 10.2929 4.40234 10.6689L2.20508 13.0342C2.49921 13.5954 3.08043 13.9801 3.75391 13.9971C3.76447 13.9833 3.7749 13.969 3.78711 13.9561L6.2666 11.333L5.65039 10.6689ZM5.02539 3.7998C4.34884 3.7998 3.7998 4.34884 3.7998 5.02539C3.80002 5.70176 4.34897 6.25 5.02539 6.25C5.70163 6.24979 6.24979 5.70163 6.25 5.02539C6.25 4.34897 5.70176 3.80002 5.02539 3.7998Z" fill="white"/>
</svg>
