<svg width="16" height="16" viewBox="0 0 16 16" fill="none" xmlns="http://www.w3.org/2000/svg">
<path fill-rule="evenodd" clip-rule="evenodd" d="M13.6698 5.1286C13.7011 5.51081 13.7015 6.00028 13.7015 6.69501V11.89C13.7015 12.1799 13.9365 12.415 14.2265 12.415C14.5164 12.415 14.7515 12.1799 14.7515 11.89V4.43478C14.7515 4.15803 14.7515 3.91926 14.7354 3.72261C14.7185 3.51506 14.681 3.30862 14.5798 3.10997C14.4288 2.81361 14.1879 2.57267 13.8915 2.42167C13.6929 2.32045 13.4864 2.28301 13.2789 2.26605C13.0822 2.24998 12.8435 2.24999 12.5667 2.25H5.33984C5.04989 2.25 4.81484 2.48505 4.81484 2.775C4.81484 3.06495 5.04989 3.3 5.33984 3.3H10.3065C11.0012 3.3 11.4907 3.30041 11.8729 3.33164C12.249 3.36237 12.4747 3.42029 12.6504 3.50982C13.0126 3.69437 13.3071 3.98886 13.4917 4.35107C13.5812 4.52677 13.6391 4.75253 13.6698 5.1286ZM3.93367 4.41554H9.94123C10.3242 4.41553 10.6374 4.41553 10.892 4.43686C11.1555 4.45894 11.3934 4.50604 11.6156 4.62218C11.9634 4.80395 12.2462 5.09399 12.4234 5.45073C12.5367 5.67867 12.5826 5.92275 12.6041 6.19299C12.6249 6.45408 12.6249 6.77534 12.6249 7.16815V10.9817C12.6249 11.2004 12.6249 11.3951 12.6217 11.5668C12.6135 12.0156 12.5856 12.3876 12.4234 12.7141C12.2462 13.0708 11.9634 13.3609 11.6156 13.5426C11.3934 13.6588 11.1555 13.7059 10.892 13.728C10.6374 13.7493 10.3242 13.7493 9.94124 13.7493H3.93356C3.55063 13.7493 3.23745 13.7493 2.98293 13.728C2.71945 13.7059 2.48149 13.6588 2.25926 13.5426C2.00655 13.4106 1.78818 13.2213 1.61969 12.9909C1.55627 12.9042 1.49992 12.8116 1.45147 12.7141C1.33823 12.4861 1.29232 12.2421 1.27079 11.9718C1.24999 11.7107 1.25 11.3895 1.25 10.9967V7.16816C1.25 6.77535 1.24999 6.45408 1.27079 6.19299C1.29232 5.92275 1.33823 5.67867 1.45147 5.45073C1.62868 5.09399 1.91145 4.80395 2.25926 4.62218C2.48149 4.50604 2.71945 4.45894 2.98293 4.43686C3.23748 4.41553 3.55069 4.41553 3.93367 4.41554ZM11.7634 11.7343L9.71514 9.63342C9.4375 9.34865 8.98736 9.34865 8.70973 9.63342L5.55009 12.8742H9.92336C10.3286 12.8742 10.6068 12.8739 10.8225 12.8558C11.0332 12.8382 11.1464 12.8058 11.2283 12.763C11.4156 12.6651 11.5679 12.5089 11.6633 12.3168C11.7176 12.2075 11.7499 12.0567 11.7634 11.7343ZM4.3436 12.8742L5.62327 11.5617L5.16518 11.0918C4.88754 10.807 4.4374 10.807 4.15977 11.0918L2.57237 12.72C2.59642 12.7354 2.62117 12.7497 2.64656 12.763C2.72848 12.8058 2.84168 12.8382 3.0524 12.8558C3.2681 12.8739 3.54634 12.8742 3.95154 12.8742H4.3436ZM5.23122 7.62401C5.23122 8.10728 4.84926 8.49905 4.3781 8.49905C3.90693 8.49905 3.52498 8.10728 3.52498 7.62401C3.52498 7.14074 3.90693 6.74897 4.3781 6.74897C4.84926 6.74897 5.23122 7.14074 5.23122 7.62401Z" fill="white"/>
</svg>
