<svg width="16" height="16" viewBox="0 0 16 16" fill="none" xmlns="http://www.w3.org/2000/svg">
<path fill-rule="evenodd" clip-rule="evenodd" d="M4.29124 2.5C3.81706 2.5 3.43143 2.49999 3.11849 2.52509C2.79542 2.55101 2.50645 2.60608 2.23719 2.74078C1.81341 2.95278 1.46715 3.29195 1.24958 3.7112C1.11077 3.97866 1.05417 4.26575 1.0276 4.58494C1.00194 4.89331 1.00195 5.27288 1.00195 5.73759V10.2636C1.00195 10.7283 1.00194 11.1079 1.0276 11.4163C1.05417 11.7355 1.11077 12.0226 1.24958 12.29C1.30906 12.4046 1.37818 12.5133 1.45587 12.615C1.66231 12.8853 1.92925 13.1064 2.23719 13.2604C2.50645 13.3951 2.79542 13.4502 3.11849 13.4761C3.43144 13.5012 3.81706 13.5012 4.29125 13.5012H11.7091C12.1833 13.5012 12.5689 13.5012 12.8818 13.4761C13.2049 13.4502 13.4939 13.3951 13.7631 13.2604C14.1869 13.0484 14.5332 12.7093 14.7507 12.29C14.9497 11.9066 14.9843 11.4688 14.9945 10.9379C14.9984 10.7349 14.9984 10.5047 14.9984 10.246V5.73758C14.9984 5.2729 14.9984 4.8933 14.9727 4.58494C14.9462 4.26575 14.8895 3.97866 14.7507 3.7112C14.5332 3.29195 14.1869 2.95278 13.7631 2.74078C13.4939 2.60608 13.2049 2.55101 12.8818 2.52509C12.5689 2.49999 12.1833 2.5 11.7091 2.5H4.29124ZM2.6846 3.63511C2.79102 3.58187 2.9358 3.54296 3.19845 3.52189C3.46668 3.50038 3.81208 3.5 4.31199 3.5H11.6883C12.1882 3.5 12.5336 3.50038 12.8019 3.52189C13.0645 3.54296 13.2093 3.58187 13.3157 3.63511C13.5529 3.75374 13.744 3.94216 13.8631 4.17182C13.9158 4.27322 13.9549 4.41199 13.9762 4.66787C13.998 4.92987 13.9984 5.26769 13.9984 5.75896V9.74038L12.154 7.92953C11.4108 7.19985 10.2096 7.19985 9.4664 7.92953L7.12202 10.2313L6.53392 9.65388C5.79073 8.9242 4.58952 8.9242 3.84633 9.65388L2.03403 11.4332C2.03041 11.402 2.02711 11.3688 2.02416 11.3333C2.00236 11.0714 2.00195 10.7335 2.00195 10.2423V5.75896C2.00195 5.26769 2.00236 4.92987 2.02416 4.66787C2.04545 4.41199 2.08455 4.27322 2.13717 4.17182C2.25636 3.94216 2.44745 3.75374 2.6846 3.63511ZM11.4534 8.64309L13.9882 11.1319C13.9717 11.5163 13.9317 11.6973 13.8631 11.8294C13.744 12.0591 13.5529 12.2475 13.3157 12.3661C13.2093 12.4194 13.0645 12.4583 12.8019 12.4793C12.5336 12.5008 12.1882 12.5012 11.6883 12.5012H6.23744L10.167 8.64309C10.5212 8.29533 11.0992 8.29533 11.4534 8.64309ZM6.40834 10.932L4.81007 12.5012H4.31199C3.81209 12.5012 3.46668 12.5008 3.19845 12.4793C2.9358 12.4583 2.79102 12.4194 2.6846 12.3661C2.64669 12.3472 2.60997 12.3264 2.57452 12.304L4.54692 10.3674C4.90112 10.0197 5.47913 10.0197 5.83333 10.3674L6.40834 10.932ZM4.83892 7.31159C5.4209 7.31159 5.89268 6.84838 5.89268 6.27698C5.89268 5.70559 5.4209 5.24238 4.83892 5.24238C4.25694 5.24238 3.78516 5.70559 3.78516 6.27698C3.78516 6.84838 4.25694 7.31159 4.83892 7.31159Z" fill="white"/>
</svg>
