<svg width="16" height="16" viewBox="0 0 16 16" fill="none" xmlns="http://www.w3.org/2000/svg">
<path d="M12.4863 1.01465C13.8982 1.15806 14.9999 2.35017 15 3.7998V12.2002L14.9854 12.4863C14.8515 13.8041 13.8041 14.8515 12.4863 14.9854L12.2002 15H3.7998C2.35017 14.9999 1.15806 13.8982 1.01465 12.4863L1 12.2002V3.7998C1.00011 2.25356 2.25356 1.00011 3.7998 1H12.2002L12.4863 1.01465ZM11.252 8.78223C10.9029 8.4061 10.353 8.40617 10.0039 8.78223L7.31836 11.6768L7.31543 11.6797L5.12207 14H12.2002C13.1942 13.9999 13.9999 13.1942 14 12.2002V11.7305C13.9767 11.7129 13.9541 11.694 13.9336 11.6719L11.252 8.78223ZM5.65039 10.6689C5.30136 10.2928 4.75141 10.2929 4.40234 10.6689L2.20508 13.0342C2.49921 13.5954 3.08043 13.9801 3.75391 13.9971C3.76447 13.9833 3.7749 13.969 3.78711 13.9561L6.2666 11.333L5.65039 10.6689ZM3.7998 2C2.80585 2.00011 2.00011 2.80585 2 3.7998V11.7871L3.66992 9.98828C4.41466 9.18612 5.63818 9.18594 6.38281 9.98828L6.95117 10.6006L9.27148 8.10156C10.0162 7.29959 11.2398 7.29949 11.9844 8.10156L14 10.2734V3.7998C13.9999 2.80585 13.1942 2.00011 12.2002 2H3.7998ZM5.02539 3.7998C5.70176 3.80001 6.25 4.34897 6.25 5.02539C6.24978 5.70163 5.70163 6.24979 5.02539 6.25C4.34898 6.25 3.80002 5.70175 3.7998 5.02539C3.7998 4.34884 4.34884 3.7998 5.02539 3.7998Z" fill="white"/>
</svg>
