<svg width="16" height="16" viewBox="0 0 16 16" fill="none" xmlns="http://www.w3.org/2000/svg">
<path fill-rule="evenodd" clip-rule="evenodd" d="M10.6392 2.99023C11.2355 2.99023 11.6527 2.99062 11.9778 3.01719C12.297 3.04327 12.4832 3.09208 12.6256 3.16462C12.9266 3.31802 13.1714 3.56279 13.3248 3.86385C13.3974 4.00622 13.4462 4.19242 13.4723 4.51167C13.4988 4.83677 13.4992 5.25393 13.4992 5.85023V10.7255C13.4992 11.0017 13.7231 11.2255 13.9992 11.2255C14.2753 11.2255 14.4992 11.0017 14.4992 10.7255V5.82876C14.4992 5.25895 14.4992 4.80085 14.4689 4.43024C14.4378 4.04914 14.3722 3.7167 14.2158 3.40986C13.9666 2.92064 13.5688 2.52289 13.0796 2.27362C12.7727 2.11727 12.4403 2.05164 12.0592 2.02051C11.6886 1.99023 11.2305 1.99023 10.6607 1.99023H5.57422C5.29808 1.99023 5.07422 2.21409 5.07422 2.49023C5.07422 2.76638 5.29808 2.99023 5.57422 2.99023H10.6392ZM3.72855 4.049H9.66617C10.0423 4.049 10.354 4.04899 10.6082 4.06929C10.8723 4.09039 11.1176 4.13579 11.349 4.25104C11.7063 4.42902 11.999 4.71409 12.1831 5.06732C12.303 5.29735 12.3501 5.54124 12.3719 5.80195C12.3928 6.05178 12.3928 6.35763 12.3928 6.7243V10.3176C12.3928 10.5229 12.3928 10.7069 12.3896 10.8694C12.3815 11.2917 12.3545 11.6626 12.1831 11.9915C11.999 12.3447 11.7063 12.6298 11.349 12.8078C11.1176 12.923 10.8723 12.9684 10.6082 12.9895C10.354 13.0098 10.0423 13.0098 9.66619 13.0098H3.72854C3.3524 13.0098 3.04072 13.0098 2.78656 12.9895C2.52238 12.9684 2.27713 12.923 2.04573 12.8078C1.78606 12.6784 1.56063 12.4926 1.3861 12.2652C1.32041 12.1795 1.26195 12.0881 1.21162 11.9915C1.09171 11.7615 1.04461 11.5176 1.02282 11.2569C1.00194 11.007 1.00195 10.7012 1.00195 10.3345V6.72432C1.00195 6.35765 1.00194 6.05178 1.02282 5.80195C1.04461 5.54124 1.09171 5.29735 1.21162 5.06732C1.39574 4.71409 1.68839 4.42902 2.04573 4.25104C2.27713 4.13579 2.52238 4.09039 2.78656 4.06929C3.04072 4.04899 3.35241 4.049 3.72855 4.049ZM2.86617 5.06612C2.66206 5.08242 2.56052 5.11182 2.49155 5.14617C2.32047 5.23137 2.1835 5.36625 2.09838 5.52955C2.06524 5.59312 2.03582 5.68821 2.01935 5.88525C2.00236 6.08847 2.00195 6.3523 2.00195 6.74509V10.3137C2.00195 10.6251 2.00221 10.8554 2.01078 11.0387L3.30688 9.77182C3.93987 9.15308 4.96153 9.15308 5.59452 9.77182L5.99528 10.1636L7.80021 8.39926C8.43319 7.78053 9.45486 7.78053 10.0878 8.39926L11.3928 9.67481V6.74509C11.3928 6.3523 11.3924 6.08847 11.3754 5.88525C11.3589 5.68821 11.3295 5.59312 11.2963 5.52955C11.2112 5.36625 11.0743 5.23137 10.9032 5.14617C10.8342 5.11182 10.7327 5.08242 10.5286 5.06612C10.3189 5.04938 10.0474 5.04901 9.64611 5.04901H3.74862C3.34735 5.04901 3.07579 5.04938 2.86617 5.06612ZM11.3825 11.0632L9.38883 9.11437C9.14445 8.87549 8.74361 8.87549 8.49922 9.11437L5.5371 12.0098H9.64611C10.0474 12.0098 10.3189 12.0094 10.5286 11.9927C10.7327 11.9764 10.8342 11.947 10.9032 11.9126C11.0743 11.8274 11.2112 11.6926 11.2963 11.5293C11.3383 11.4487 11.3683 11.3323 11.3825 11.0632ZM4.1065 12.0098L5.27998 10.8627L4.89551 10.4869C4.65112 10.248 4.25028 10.248 4.00589 10.4869L2.52989 11.9297C2.598 11.9566 2.69676 11.9792 2.86617 11.9927C3.07579 12.0094 3.34735 12.0098 3.74862 12.0098H4.1065ZM5.01117 7.15692C5.01117 7.61175 4.63397 7.98045 4.16867 7.98045C3.70337 7.98045 3.32617 7.61175 3.32617 7.15692C3.32617 6.7021 3.70337 6.33339 4.16867 6.33339C4.63397 6.33339 5.01117 6.7021 5.01117 7.15692Z" fill="white"/>
</svg>
