<svg width="16" height="16" viewBox="0 0 16 16" fill="none" xmlns="http://www.w3.org/2000/svg">
<path d="M10.8887 6.28906C11.2753 6.28906 11.5889 6.60266 11.5889 6.98926C11.5887 7.37569 11.2751 7.68945 10.8887 7.68945H10.8828C10.4964 7.68942 10.1828 7.37567 10.1826 6.98926C10.1826 6.60268 10.4962 6.2891 10.8828 6.28906H10.8887Z" fill="white"/>
<path d="M7.65137 4.1748C8.19033 4.17483 8.70454 4.31355 9.17871 4.5625C9.42308 4.6908 9.51675 4.99288 9.38867 5.2373C9.26032 5.48177 8.95834 5.57654 8.71387 5.44824C8.36974 5.26756 8.01401 5.17483 7.65137 5.1748C7.28872 5.1748 6.933 5.26758 6.58887 5.44824C6.34438 5.57661 6.04243 5.4818 5.91406 5.2373C5.7859 4.99286 5.87962 4.69082 6.12402 4.5625C6.59818 4.3136 7.11243 4.1748 7.65137 4.1748Z" fill="white"/>
<path fill-rule="evenodd" clip-rule="evenodd" d="M3.25 1.90039C3.48641 1.90043 3.71613 1.93778 3.92969 2.00684C4.19175 2.09215 4.33569 2.37338 4.25098 2.63574C4.16603 2.89829 3.88369 3.04266 3.62109 2.95801C3.50659 2.92102 3.38131 2.90043 3.25 2.90039C2.61389 2.90058 2.17601 3.36227 2.17578 3.84082C2.17582 4.1525 2.25924 4.40697 2.36328 4.59277C3.53571 3.32044 5.34699 2.52246 7.32812 2.52246C10.2041 2.5227 12.697 4.18881 13.4365 6.55273C13.4692 6.65707 13.5127 6.69741 13.5469 6.71875C13.5901 6.74564 13.6689 6.77246 13.8027 6.77246C14.4776 6.77259 14.95 7.35652 14.9502 7.98047V9.01074C14.9501 9.45147 14.7094 9.8206 14.4531 10.0977C14.1896 10.3825 13.8459 10.6397 13.5068 10.8623C13.1648 11.0869 12.803 11.2917 12.4941 11.4658C12.172 11.6474 11.9283 11.7845 11.7803 11.8887C11.7405 11.9168 11.713 11.9663 11.7129 12.0234V13.6006C11.7126 13.8763 11.4887 14.1004 11.2129 14.1006H9.91797C9.7533 14.1006 9.59913 14.0185 9.50586 13.8828L9.05859 13.2314C7.92737 13.5085 6.72892 13.5083 5.59766 13.2314L5.15039 13.8828C5.05717 14.0186 4.90198 14.1005 4.7373 14.1006H3.44238C3.16658 14.1004 2.9427 13.8764 2.94238 13.6006V12.0078C2.94225 11.9583 2.91829 11.8978 2.8623 11.8496C1.72454 10.8725 1.00008 9.50703 1 7.98047C1.00006 7.0492 1.26555 6.18323 1.72949 5.42773C1.42511 5.0695 1.17584 4.51761 1.17578 3.84082C1.176 2.72824 2.14707 1.90059 3.25 1.90039ZM7.32812 3.52246C4.30719 3.52246 2.00021 5.59102 2 7.98047C2.00008 9.17545 2.56503 10.2761 3.51367 11.0908C3.77002 11.3111 3.94225 11.6403 3.94238 12.0078V13.1006H4.47461L4.83984 12.5684C5.01732 12.31 5.31598 12.1833 5.61035 12.2139L5.73633 12.2363C6.64301 12.4743 7.60654 12.5047 8.52734 12.3262L8.91895 12.2363L9.04492 12.2139C9.29723 12.1877 9.55278 12.277 9.73242 12.4658L9.81543 12.5684L10.1807 13.1006H10.7129V12.0234C10.713 11.6462 10.8946 11.2889 11.2051 11.0703C11.405 10.9296 11.7055 10.7624 12.0029 10.5947C12.3136 10.4196 12.6479 10.23 12.958 10.0264C13.2712 9.82073 13.5365 9.61592 13.7188 9.41895C13.908 9.21436 13.9501 9.08003 13.9502 9.01074V7.98047C13.9501 7.90914 13.9237 7.85267 13.8916 7.81738C13.8601 7.78291 13.8281 7.77252 13.8027 7.77246C13.5441 7.77246 13.2653 7.72182 13.0176 7.56738C12.7609 7.40727 12.5793 7.16118 12.4824 6.85156C11.8966 4.97844 9.84926 3.5227 7.32812 3.52246Z" fill="white"/>
</svg>
