<svg width="16" height="16" viewBox="0 0 16 16" fill="none" xmlns="http://www.w3.org/2000/svg">
<path fill-rule="evenodd" clip-rule="evenodd" d="M3.25 1.90039C3.48641 1.90043 3.71613 1.93778 3.92969 2.00684C4.19175 2.09215 4.33569 2.37338 4.25098 2.63574C4.16603 2.89829 3.88369 3.04266 3.62109 2.95801C3.50659 2.92102 3.38131 2.90043 3.25 2.90039C2.61389 2.90058 2.17601 3.36227 2.17578 3.84082C2.17582 4.1525 2.25924 4.40697 2.36328 4.59277C3.53571 3.32034 5.34697 2.52246 7.32812 2.52246C10.204 2.5227 12.6969 4.18893 13.4365 6.55273C13.4692 6.65679 13.5127 6.69741 13.5469 6.71875C13.5901 6.74562 13.669 6.77246 13.8027 6.77246C14.4775 6.77259 14.9499 7.35662 14.9502 7.98047V9.01074C14.95 9.45129 14.7093 9.82066 14.4531 10.0977C14.1897 10.3824 13.8458 10.6397 13.5068 10.8623C13.1649 11.0868 12.803 11.2917 12.4941 11.4658C12.1721 11.6474 11.9283 11.7845 11.7803 11.8887C11.7406 11.9168 11.7131 11.9664 11.7129 12.0234V13.6006C11.7124 13.8762 11.4886 14.1004 11.2129 14.1006H9.91797C9.75336 14.1006 9.59914 14.0184 9.50586 13.8828L9.05859 13.2314C7.92739 13.5085 6.7289 13.5083 5.59766 13.2314L5.15039 13.8828C5.05715 14.0185 4.90191 14.1005 4.7373 14.1006H3.44238C3.16666 14.1004 2.94283 13.8762 2.94238 13.6006V12.0078C2.94217 11.9584 2.91811 11.8977 2.8623 11.8496C1.72467 10.8726 1.00015 9.50688 1 7.98047C1.00011 7.04931 1.2656 6.18319 1.72949 5.42773C1.42511 5.0695 1.17584 4.51761 1.17578 3.84082C1.176 2.72824 2.14707 1.90059 3.25 1.90039ZM10.8828 6.28906C10.4964 6.28921 10.1827 6.60281 10.1826 6.98926C10.1829 7.37554 10.4965 7.6893 10.8828 7.68945H10.8887C11.275 7.68935 11.5886 7.37557 11.5889 6.98926C11.5888 6.60278 11.2751 6.28916 10.8887 6.28906H10.8828ZM7.65137 4.17578C7.11244 4.1758 6.59817 4.31457 6.12402 4.56348C5.87982 4.6919 5.7859 4.99392 5.91406 5.23828C6.04258 5.48216 6.34466 5.57723 6.58887 5.44922C6.93299 5.26855 7.28873 5.1758 7.65137 5.17578C8.01397 5.17583 8.36978 5.26856 8.71387 5.44922C8.95806 5.57709 9.2602 5.48213 9.38867 5.23828C9.51677 4.99397 9.42282 4.69192 9.17871 4.56348C8.70457 4.31455 8.19029 4.17583 7.65137 4.17578Z" fill="white"/>
</svg>
