<svg width="16" height="16" viewBox="0 0 16 16" fill="none" xmlns="http://www.w3.org/2000/svg">
<path d="M12.5136 8.15137C13.0996 8.94338 12.534 10.0654 11.5488 10.0654H8.6816V13.9482L8.00094 15L7.32027 13.9482V10.8877L9.14156 9.06543H11.5488C11.7129 9.06536 11.8076 8.87807 11.7099 8.74609L10.7529 7.4541L11.4677 6.73926L12.5136 8.15137Z" fill="white"/>
<path fill-rule="evenodd" clip-rule="evenodd" d="M10.4863 1.00098C11.0075 1.00121 11.4061 1.46632 11.3261 1.98145L10.8955 4.48926L13.7382 1.64648C13.9335 1.45124 14.25 1.45123 14.4453 1.64648C14.6405 1.84174 14.6405 2.15826 14.4453 2.35352L2.56539 14.2334C2.3701 14.4282 2.05347 14.4285 1.85836 14.2334C1.6631 14.0381 1.6631 13.7207 1.85836 13.5254L5.31832 10.0654H4.45211C3.46686 10.0654 2.90127 8.94341 3.48727 8.15137L4.95113 6.17383C5.14966 5.90537 5.23189 5.56823 5.18063 5.23828L4.67477 1.98145C4.59476 1.46628 4.9933 1.00114 5.51461 1.00098H10.4863ZM6.16891 5.08496C6.2612 5.67896 6.11233 6.28528 5.75485 6.76855L4.29098 8.74609C4.19331 8.8781 4.2879 9.06543 4.45211 9.06543H6.31832L9.78219 5.60254C9.78219 5.60254 9.74789 5.62625 9.83199 5.08496L10.3105 2.00098H5.69039L6.16891 5.08496Z" fill="white"/>
</svg>
