<svg width="16" height="16" viewBox="0 0 16 16" fill="none" xmlns="http://www.w3.org/2000/svg">
<path fill-rule="evenodd" clip-rule="evenodd" d="M5.69007 2.00098L6.16923 5.08496C6.26153 5.67903 6.11224 6.28533 5.75467 6.76863L4.29138 8.74642C4.19372 8.87843 4.28795 9.06538 4.45216 9.06538H7.72752L6.72752 10.0654H4.45216C3.46691 10.0654 2.90149 8.9437 3.48749 8.15165L4.95077 6.17386C5.14943 5.90536 5.23236 5.56853 5.18108 5.23849L4.67504 1.98148C4.59498 1.46619 4.9935 1.00098 5.51496 1.00098H10.486C11.0074 1.00098 11.406 1.46619 11.3259 1.98148L10.8199 5.23849C10.785 5.46284 10.8122 5.69033 10.8955 5.89736L10.1559 6.63698C9.86407 6.17768 9.74761 5.62624 9.83171 5.08496L10.3109 2.00098H5.69007ZM9.14173 9.06538H11.5488C11.713 9.06538 11.8072 8.87843 11.7096 8.74642L10.7532 7.45386L11.4682 6.7389L12.5135 8.15165C13.0995 8.9437 12.534 10.0654 11.5488 10.0654H8.6818V13.9478L8.00084 14.9997L7.31988 13.9478V10.8872L9.14173 9.06538Z" fill="white"/>
<path fill-rule="evenodd" clip-rule="evenodd" d="M14.4453 1.64645C14.6406 1.84171 14.6406 2.15829 14.4453 2.35355L2.56596 14.2329C2.37069 14.4282 2.05411 14.4282 1.85885 14.2329C1.66359 14.0377 1.66359 13.7211 1.85885 13.5258L13.7382 1.64645C13.9335 1.45118 14.2501 1.45118 14.4453 1.64645Z" fill="white"/>
</svg>
