<svg width="16" height="16" viewBox="0 0 16 16" fill="none" xmlns="http://www.w3.org/2000/svg">
<path fill-rule="evenodd" clip-rule="evenodd" d="M8.19276 2.61653C8.50841 2.18453 9.12543 2.12492 9.49089 2.49112L12.0942 5.09966C12.4596 5.46586 12.4001 6.08413 11.969 6.40041L9.35032 8.32156C9.08188 8.5185 8.90201 8.81437 8.85263 9.14022L8.49078 11.5283C8.34148 12.5136 7.1357 12.9396 6.44758 12.2501L4.93274 10.7322L2.22909 13.4413L1 13.6876L1.24582 12.456L3.94947 9.74692L2.3549 8.14913C1.66679 7.45962 2.0919 6.2514 3.07527 6.10179L5.45849 5.73921C5.78368 5.68974 6.07896 5.5095 6.2755 5.24051L8.19276 2.61653ZM13.2867 4.39276C13.0106 4.39276 12.7867 4.61661 12.7867 4.89276C12.7867 5.1689 13.0106 5.39276 13.2867 5.39276H14.5035C14.7796 5.39276 15.0035 5.1689 15.0035 4.89276C15.0035 4.61661 14.7796 4.39276 14.5035 4.39276H13.2867ZM10.3317 12.7521C10.0555 12.7521 9.83165 12.976 9.83165 13.2521C9.83165 13.5283 10.0555 13.7521 10.3317 13.7521H14.3295C14.6057 13.7521 14.8295 13.5283 14.8295 13.2521C14.8295 12.976 14.6057 12.7521 14.3295 12.7521H10.3317ZM11.3961 9.07244C11.3961 8.7963 11.62 8.57244 11.8961 8.57244H14.5034C14.7795 8.57244 15.0034 8.7963 15.0034 9.07244C15.0034 9.34859 14.7795 9.57244 14.5034 9.57244H11.8961C11.62 9.57244 11.3961 9.34859 11.3961 9.07244Z" fill="white"/>
</svg>
