<svg width="16" height="16" viewBox="0 0 16 16" fill="none" xmlns="http://www.w3.org/2000/svg">
<path fill-rule="evenodd" clip-rule="evenodd" d="M6.16923 5.08496L5.69007 2.00098H10.3109L9.83171 5.08496C9.73941 5.67903 9.88869 6.28533 10.2463 6.76863L11.7096 8.74642C11.8072 8.87843 11.713 9.06538 11.5488 9.06538H4.45216C4.28795 9.06538 4.19372 8.87843 4.29138 8.74642L5.75467 6.76863C6.11224 6.28533 6.26153 5.67903 6.16923 5.08496ZM5.51496 1.00098C4.9935 1.00098 4.59498 1.46619 4.67504 1.98148L5.18108 5.23849C5.23236 5.56853 5.14943 5.90536 4.95077 6.17386L3.48749 8.15165C2.90149 8.9437 3.46691 10.0654 4.45216 10.0654H7.31988V13.9478L8.00084 14.9997L8.6818 13.9478V10.0654H11.5488C12.534 10.0654 13.0995 8.9437 12.5135 8.15165L11.0502 6.17386C10.8515 5.90536 10.7686 5.56853 10.8199 5.23849L11.3259 1.98148C11.406 1.46619 11.0074 1.00098 10.486 1.00098H5.51496Z" fill="white"/>
</svg>
