<svg width="16" height="16" viewBox="0 0 16 16" fill="none" xmlns="http://www.w3.org/2000/svg">
<path fill-rule="evenodd" clip-rule="evenodd" d="M3.71956 1.75H12.0711C12.4457 1.74999 12.757 1.74999 13.0109 1.77074C13.2753 1.79234 13.5213 1.83889 13.7532 1.95709C14.1107 2.13925 14.4014 2.42991 14.5836 2.78742C14.7018 3.01939 14.7483 3.26539 14.7699 3.52977C14.7907 3.78369 14.7907 4.09489 14.7907 4.46953V7.46761C14.7907 7.74375 14.5668 7.96761 14.2907 7.96761C14.0145 7.96761 13.7907 7.74375 13.7907 7.46761V4.49C13.7907 4.08971 13.7903 3.81957 13.7732 3.6112C13.7567 3.40867 13.727 3.30891 13.6926 3.24141C13.6063 3.07206 13.4686 2.93438 13.2992 2.84809C13.2317 2.8137 13.132 2.78396 12.9295 2.76741C12.7211 2.75039 12.4509 2.75 12.0507 2.75H3.74C3.33971 2.75 3.06957 2.75039 2.8612 2.76741C2.65867 2.78396 2.55891 2.8137 2.49141 2.84809C2.32206 2.93438 2.18438 3.07206 2.09809 3.24141C2.0637 3.30891 2.03396 3.40867 2.01741 3.6112C2.00039 3.81957 2 4.08971 2 4.49V10.0974C2 10.4977 2.00039 10.7678 2.01741 10.9762C2.03396 11.1787 2.0637 11.2785 2.09809 11.346C2.18438 11.5153 2.32206 11.653 2.49141 11.7393C2.55891 11.7737 2.65867 11.8034 2.8612 11.82C3.06957 11.837 3.33971 11.8374 3.74 11.8374H6.6854C6.96154 11.8374 7.1854 12.0612 7.1854 12.3374C7.1854 12.6135 6.96154 12.8374 6.6854 12.8374H3.71959C3.34493 12.8374 3.03371 12.8374 2.77977 12.8166C2.51539 12.795 2.26939 12.7485 2.03742 12.6303C1.67991 12.4481 1.38925 12.1575 1.20709 11.8C1.08889 11.568 1.04234 11.322 1.02073 11.0576C0.999988 10.8037 0.999993 10.4925 1 10.1178V4.46956C0.999993 4.09491 0.999988 3.7837 1.02073 3.52977C1.04234 3.26539 1.08889 3.01939 1.20709 2.78742C1.38925 2.42991 1.67991 2.13925 2.03742 1.95709C2.26939 1.83889 2.51539 1.79234 2.77977 1.77074C3.0337 1.74999 3.34491 1.74999 3.71956 1.75ZM3.07227 4.33594C3.07227 4.0598 3.29612 3.83594 3.57227 3.83594H6.50557C6.78171 3.83594 7.00557 4.0598 7.00557 4.33594C7.00557 4.61208 6.78171 4.83594 6.50557 4.83594H4.77391L7.55673 7.63672C7.75137 7.83261 7.75035 8.14919 7.55446 8.34382C7.35857 8.53845 7.04199 8.53744 6.84736 8.34155L4.07227 5.54855V7.28817C4.07227 7.56431 3.84841 7.78817 3.57227 7.78817C3.29612 7.78817 3.07227 7.56431 3.07227 7.28817V4.33594ZM8.04712 9.44898C7.89453 9.74846 7.89453 10.1405 7.89453 10.9246V12.01C7.89453 12.7941 7.89453 13.1861 8.04712 13.4856C8.18135 13.749 8.39552 13.9632 8.65895 14.0974C8.95842 14.25 9.35046 14.25 10.1345 14.25H13.2598C14.0439 14.25 14.4359 14.25 14.7354 14.0974C14.9988 13.9632 15.213 13.749 15.3472 13.4856C15.4998 13.1861 15.4998 12.7941 15.4998 12.01V10.9246C15.4998 10.1405 15.4998 9.74846 15.3472 9.44898C15.213 9.18556 14.9988 8.97138 14.7354 8.83716C14.4359 8.68457 14.0439 8.68457 13.2598 8.68457H10.1345C9.35046 8.68457 8.95842 8.68457 8.65895 8.83716C8.39552 8.97138 8.18135 9.18556 8.04712 9.44898Z" fill="white"/>
</svg>
