<svg width="16" height="16" viewBox="0 0 16 16" fill="none" xmlns="http://www.w3.org/2000/svg">
<path fill-rule="evenodd" clip-rule="evenodd" d="M3.71956 1.75C3.34491 1.74999 3.0337 1.74999 2.77977 1.77074C2.51539 1.79234 2.26939 1.83889 2.03742 1.95709C1.67991 2.13925 1.38925 2.42991 1.20709 2.78742C1.08889 3.01939 1.04234 3.26539 1.02073 3.52977C0.999988 3.7837 0.999993 4.09491 1 4.46956V10.1202C0.999993 10.4949 0.999988 10.8061 1.02073 11.06C1.04234 11.3244 1.08889 11.5704 1.20709 11.8024C1.38925 12.1599 1.67991 12.4505 2.03742 12.6327C2.26939 12.7509 2.51539 12.7974 2.77977 12.819C3.03368 12.8398 3.34487 12.8398 3.71949 12.8398H6.6854C6.96154 12.8398 7.1854 12.6159 7.1854 12.3398C7.1854 12.0636 6.96154 11.8398 6.6854 11.8398H3.74C3.33971 11.8398 3.06957 11.8394 2.8612 11.8224C2.65867 11.8058 2.55891 11.7761 2.49141 11.7417C2.32206 11.6554 2.18438 11.5177 2.09809 11.3484C2.0637 11.2809 2.03396 11.1811 2.01741 10.9786C2.00039 10.7702 2 10.5001 2 10.0998V4.49C2 4.08971 2.00039 3.81957 2.01741 3.6112C2.03396 3.40867 2.0637 3.30891 2.09809 3.24141C2.18438 3.07206 2.32206 2.93438 2.49141 2.84809C2.55891 2.8137 2.65867 2.78396 2.8612 2.76741C3.06957 2.75039 3.33971 2.75 3.74 2.75H12.0507C12.4509 2.75 12.7211 2.75039 12.9295 2.76741C13.132 2.78396 13.2317 2.8137 13.2992 2.84809C13.4686 2.93438 13.6063 3.07206 13.6926 3.24141C13.727 3.30891 13.7567 3.40867 13.7732 3.6112C13.7903 3.81957 13.7907 4.08971 13.7907 4.49V7.46885C13.7907 7.74499 14.0145 7.96885 14.2907 7.96885C14.5668 7.96885 14.7907 7.74499 14.7907 7.46885V4.46955C14.7907 4.09491 14.7907 3.78369 14.7699 3.52977C14.7483 3.26539 14.7018 3.01939 14.5836 2.78742C14.4014 2.42991 14.1107 2.13925 13.7532 1.95709C13.5213 1.83889 13.2753 1.79234 13.0109 1.77074C12.757 1.74999 12.4457 1.74999 12.0711 1.75H3.71956ZM8.04712 9.45094C7.89453 9.75041 7.89453 10.1425 7.89453 10.9265V12.0133C7.89453 12.7974 7.89453 13.1894 8.04712 13.4889C8.18135 13.7523 8.39552 13.9665 8.65895 14.1007C8.95842 14.2533 9.35046 14.2533 10.1345 14.2533H13.2598C14.0439 14.2533 14.4359 14.2533 14.7354 14.1007C14.9988 13.9665 15.213 13.7523 15.3472 13.4889C15.4998 13.1894 15.4998 12.7974 15.4998 12.0133V10.9265C15.4998 10.1425 15.4998 9.75041 15.3472 9.45094C15.213 9.18751 14.9988 8.97334 14.7354 8.83911C14.4359 8.68652 14.0439 8.68652 13.2598 8.68652H10.1345C9.35046 8.68652 8.95842 8.68652 8.65895 8.83911C8.39552 8.97334 8.18135 9.18751 8.04712 9.45094Z" fill="white"/>
</svg>
