<svg width="16" height="16" viewBox="0 0 16 16" fill="none" xmlns="http://www.w3.org/2000/svg">
<path fill-rule="evenodd" clip-rule="evenodd" d="M12.1026 1.75H3.70622C3.33743 1.74999 3.02959 1.74999 2.77811 1.77065C2.51582 1.79221 2.26957 1.83881 2.03671 1.95815C1.67945 2.14124 1.38898 2.43339 1.20695 2.79273C1.0883 3.02694 1.04196 3.27462 1.02053 3.53842C0.999988 3.79136 0.999993 4.10097 1 4.4719V10.1392C0.999993 10.5101 0.999988 10.8198 1.02053 11.0727C1.04196 11.3365 1.0883 11.5842 1.20695 11.8184C1.38898 12.1777 1.67945 12.4699 2.03671 12.653C2.26957 12.7723 2.51582 12.8189 2.77811 12.8405C3.02958 12.8611 3.33739 12.8611 3.70616 12.8611H7.21485L7.21485 10.8897C7.21484 10.5237 7.21483 10.2079 7.23596 9.94774C7.25826 9.6732 7.3075 9.40013 7.44061 9.13737C7.6392 8.74536 7.95607 8.42665 8.34581 8.22692C8.60706 8.09303 8.87855 8.04351 9.15151 8.02107C9.41013 7.99982 9.72411 7.99983 10.0881 7.99985L14.8088 7.99981V4.47191C14.8088 4.10097 14.8088 3.79136 14.7883 3.53842C14.7668 3.27462 14.7205 3.02694 14.6018 2.79273C14.4198 2.43339 14.1293 2.14124 13.7721 1.95815C13.5392 1.83881 13.293 1.79221 13.0307 1.77065C12.7792 1.74999 12.4714 1.74999 12.1026 1.75ZM2.89962 3.15994C2.62347 3.15994 2.39962 3.3838 2.39962 3.65994V6.60622C2.39962 6.88236 2.62347 7.10622 2.89962 7.10622C3.17576 7.10622 3.39962 6.88236 3.39962 6.60622V4.872L5.47941 6.96386C5.67411 7.15968 5.99069 7.1606 6.18651 6.9659C6.38234 6.77121 6.38326 6.45463 6.18856 6.2588L4.1018 4.15994H5.8289C6.10505 4.15994 6.3289 3.93608 6.3289 3.65994C6.3289 3.3838 6.10505 3.15994 5.8289 3.15994H2.89962ZM8.05689 9.45886C7.9043 9.75834 7.9043 10.1504 7.9043 10.9344V12.01C7.9043 12.7941 7.9043 13.1861 8.05689 13.4856C8.19111 13.749 8.40528 13.9632 8.66871 14.0974C8.96819 14.25 9.36022 14.25 10.1443 14.25H13.2591C14.0432 14.25 14.4352 14.25 14.7347 14.0974C14.9981 13.9632 15.2123 13.749 15.3465 13.4856C15.4991 13.1861 15.4991 12.7941 15.4991 12.01V10.9344C15.4991 10.1504 15.4991 9.75834 15.3465 9.45886C15.2123 9.19543 14.9981 8.98126 14.7347 8.84704C14.4352 8.69444 14.0432 8.69444 13.2591 8.69444H10.1443C9.36022 8.69444 8.96819 8.69444 8.66871 8.84704C8.40528 8.98126 8.19111 9.19543 8.05689 9.45886Z" fill="white"/>
</svg>
