<svg width="16" height="16" viewBox="0 0 16 16" fill="none" xmlns="http://www.w3.org/2000/svg">
<path d="M12.8437 6.6377C13.6124 6.614 14.2489 7.23098 14.249 8C14.249 8.76908 13.6124 9.386 12.8437 9.3623L10.0683 9.27637L7.69723 13.8184C7.47849 14.2372 7.04475 14.4999 6.57223 14.5C6.16819 14.5 5.86728 14.1274 5.95211 13.7324L6.35641 11.8506L11.5283 6.67871L12.8437 6.6377Z" fill="white"/>
<path d="M13.7382 1.64648C13.9335 1.45124 14.25 1.45123 14.4453 1.64648C14.6405 1.84174 14.6405 2.15826 14.4453 2.35352L2.56539 14.2334C2.3701 14.4282 2.05347 14.4285 1.85836 14.2334C1.6631 14.0381 1.6631 13.7207 1.85836 13.5254L6.22555 9.15723L4.36129 9.10059L3.78219 9.68945C3.51899 9.9572 3.15959 10.1084 2.78414 10.1084H1.92477C1.79542 10.1081 1.71144 9.97261 1.76852 9.85645L2.68063 8L1.76852 6.14355C1.71144 6.02739 1.79542 5.89187 1.92477 5.8916H2.78414C3.15959 5.89161 3.51899 6.0428 3.78219 6.31055L4.36227 6.89941L6.93063 6.82031L5.95211 2.26758C5.86728 1.87257 6.16819 1.5 6.57223 1.5C7.04475 1.50005 7.47849 1.76279 7.69723 2.18164L9.5859 5.79785L13.7382 1.64648Z" fill="white"/>
</svg>
