<svg width="16" height="16" viewBox="0 0 16 16" fill="none" xmlns="http://www.w3.org/2000/svg">
<path fill-rule="evenodd" clip-rule="evenodd" d="M5.95214 2.26784C5.86719 1.87276 6.16831 1.5 6.57241 1.5C7.04499 1.5 7.47841 1.76262 7.69717 2.18152L10.0692 6.72366L12.8444 6.63811C13.6131 6.61441 14.2492 7.23114 14.2492 8.00023C14.2492 8.76932 13.6131 9.38605 12.8444 9.36235L10.069 9.2768L7.69717 13.8187C7.47841 14.2376 7.04499 14.5002 6.57241 14.5002C6.16831 14.5002 5.86719 14.1274 5.95214 13.7324L6.93103 9.18006L4.36191 9.10086L3.78283 9.68996C3.51962 9.95772 3.1599 10.1085 2.78444 10.1085H1.92547C1.79589 10.1085 1.71126 9.97262 1.76841 9.85633L2.68061 8.00039H2.85149C2.85149 8.00034 2.85149 8.00044 2.85149 8.00039H2.68061L1.76841 6.14387C1.71126 6.02758 1.79589 5.89167 1.92547 5.89167H2.78444C3.1599 5.89167 3.51962 6.04248 3.78283 6.31024L4.36216 6.89959L6.93109 6.8204L5.95214 2.26784Z" fill="white"/>
</svg>
