<svg width="16" height="16" viewBox="0 0 16 16" fill="none" xmlns="http://www.w3.org/2000/svg">
<path d="M8 1C11.866 1 15 4.13401 15 8C15 11.866 11.866 15 8 15C4.13401 15 1 11.866 1 8C1 4.13401 4.13401 1 8 1ZM7.5 11.8066C6.96623 11.8333 6.45087 11.9304 5.96289 12.0879C6.02418 12.2201 6.0879 12.347 6.1543 12.4678C6.59383 13.2669 7.07092 13.7015 7.5 13.8877V11.8066ZM8.5 13.8877C8.92923 13.7014 9.40718 13.2669 9.84668 12.4678C9.89263 12.3842 9.93595 12.2971 9.97949 12.208C9.51203 12.0255 9.01601 11.9007 8.5 11.8408V13.8877ZM5.04004 12.4746C4.83379 12.582 4.63473 12.7013 4.44336 12.8311C4.80887 13.1006 5.20568 13.3298 5.62793 13.5117C5.41244 13.2046 5.21508 12.857 5.04004 12.4746ZM10.877 12.6484C10.7234 12.9624 10.5551 13.2512 10.373 13.5107C10.72 13.3611 11.05 13.1802 11.3594 12.9707C11.2039 12.856 11.0433 12.748 10.877 12.6484ZM11.8398 8.5C11.7942 9.67612 11.5878 10.7715 11.2617 11.7158C11.5762 11.8952 11.8746 12.099 12.1562 12.3232C13.179 11.3398 13.8538 9.99899 13.9775 8.5H11.8398ZM2.02246 8.5C2.13904 9.91262 2.74455 11.1852 3.66992 12.1504C3.98641 11.9184 4.32297 11.7121 4.67676 11.5352C4.38582 10.6329 4.2039 9.60167 4.16113 8.5H2.02246ZM8.5 10.835C9.14825 10.8992 9.76966 11.0531 10.3535 11.2822C10.6199 10.4748 10.7955 9.52967 10.8389 8.5H8.5V10.835ZM5.16211 8.5C5.20315 9.47489 5.36151 10.3742 5.60449 11.1523C6.20449 10.9539 6.84045 10.8348 7.5 10.8066V8.5H5.16211ZM3.75293 3.7627C2.78026 4.73759 2.14253 6.04505 2.02246 7.5H4.16113C4.20534 6.36137 4.39692 5.29755 4.70508 4.37402C4.37082 4.19512 4.052 3.99144 3.75293 3.7627ZM5.62402 4.78418C5.36979 5.57675 5.20427 6.49856 5.16211 7.5H7.5V5.17969C6.84564 5.13332 6.21642 4.99828 5.62402 4.78418ZM10.375 4.78418C9.7829 4.99817 9.15413 5.1334 8.5 5.17969V7.5H10.8389C10.7967 6.49841 10.6293 5.57684 10.375 4.78418ZM12.2461 3.76172C11.9469 3.99066 11.6284 4.195 11.2939 4.37402C11.6022 5.29762 11.7946 6.36124 11.8389 7.5H13.9775C13.8574 6.04456 13.2193 4.73672 12.2461 3.76172ZM7.5 2.11133C7.07082 2.29747 6.59395 2.73291 6.1543 3.53223C6.09796 3.63466 6.0439 3.7418 5.99121 3.85254C6.46938 4.02268 6.97477 4.13523 7.5 4.17871V2.11133ZM8.5 4.17871C9.02517 4.13522 9.5308 4.02377 10.0088 3.85352C9.95602 3.74258 9.90311 3.63483 9.84668 3.53223C9.40706 2.73292 8.92933 2.29752 8.5 2.11133V4.17871ZM5.62793 2.4873C5.24217 2.65351 4.87794 2.85984 4.53906 3.09961C4.71264 3.22247 4.89355 3.33522 5.08008 3.43945C5.24509 3.09045 5.42852 2.77141 5.62793 2.4873ZM10.3711 2.4873C10.5706 2.77141 10.7539 3.09044 10.9189 3.43945C11.1052 3.33533 11.2856 3.22227 11.459 3.09961C11.1202 2.86006 10.7567 2.65336 10.3711 2.4873Z" fill="white"/>
</svg>
