<svg width="16" height="16" viewBox="0 0 16 16" fill="none" xmlns="http://www.w3.org/2000/svg">
<path fill-rule="evenodd" clip-rule="evenodd" d="M2.49381 5.49067C1.88692 5.09858 1.79636 4.2466 2.30727 3.7357C2.77309 3.26987 3.45921 3.10152 4.08774 3.29882L8.67591 4.73909L10.3628 2.94491C11.0829 2.17899 12.2937 2.16032 13.0371 2.90369C13.7805 3.64706 13.7618 4.85793 12.9959 5.57804L11.2018 7.26479L12.6427 11.8547C12.84 12.4832 12.6716 13.1694 12.2058 13.6352C11.6949 14.1461 10.8429 14.0555 10.4508 13.4486L8.24914 10.0409L6.97251 11.2411L6.97774 11.8488C6.98213 12.3584 6.78165 12.8484 6.42131 13.2087L5.81403 13.816C5.46064 14.1694 4.85913 14.0296 4.69785 13.5565L4.10987 11.8321L2.38396 11.2436C1.91094 11.0823 1.77111 10.4808 2.1245 10.1274L2.73179 9.52016C3.09212 9.15983 3.58209 8.95935 4.09165 8.96374L4.69904 8.96897L5.90016 7.69142L2.49381 5.49067ZM5.06907 11.5467L5.47593 12.7399L5.71421 12.5016C5.88489 12.3309 5.97986 12.0988 5.97778 11.8575L5.97066 11.031C5.96946 10.8916 6.02655 10.7579 6.12815 10.6624L8.00113 8.90147C8.10922 8.79984 8.25686 8.75147 8.40413 8.76942C8.5514 8.78737 8.68309 8.8698 8.7636 8.99441L11.2908 12.906C11.3372 12.9779 11.4381 12.9886 11.4987 12.9281C11.7011 12.7256 11.7743 12.4274 11.6886 12.1542L10.1538 7.26507C10.0964 7.0821 10.1487 6.8824 10.2884 6.75104L12.3109 4.84948C12.6657 4.51594 12.6743 3.95511 12.33 3.6108C11.9857 3.26649 11.4249 3.27514 11.0913 3.62989L9.18965 5.65255C9.05829 5.79227 8.85859 5.84455 8.67562 5.78711L3.78825 4.25292C3.51506 4.16716 3.21684 4.24034 3.01437 4.4428C2.95384 4.50333 2.96457 4.60427 3.03647 4.65072L6.94662 7.17696C7.07123 7.25747 7.15366 7.38916 7.17161 7.53643C7.18956 7.6837 7.14119 7.83134 7.03957 7.93942L5.27775 9.81333C5.18223 9.91493 5.04862 9.97202 4.90917 9.97082L4.08304 9.9637C3.84167 9.96162 3.60958 10.0566 3.43889 10.2273L3.20061 10.4656L4.39375 10.8724C4.46438 10.8356 4.54345 10.8159 4.62456 10.8159C4.75716 10.8159 4.88434 10.8686 4.97811 10.9624C5.13612 11.1204 5.16679 11.3583 5.06907 11.5467Z" fill="white"/>
</svg>
