<svg width="16" height="16" viewBox="0 0 16 16" fill="none" xmlns="http://www.w3.org/2000/svg">
<path d="M12.8284 6.13867C13.8791 6.10628 14.7492 6.9488 14.7493 8C14.7493 9.05126 13.8792 9.8947 12.8284 9.8623L10.3665 9.78613L8.13993 14.0498C7.83504 14.6336 7.23116 14.9998 6.57255 15C5.84998 15 5.31127 14.3334 5.46317 13.627L5.70536 12.502L7.00809 11.1992L6.44071 13.8369C6.42271 13.9206 6.48691 14 6.57255 14C6.85869 13.9998 7.12071 13.8406 7.25321 13.5869L9.62528 9.04492C9.71408 8.87503 9.89265 8.77144 10.0843 8.77734L12.8597 8.8623C13.3463 8.87721 13.7493 8.48684 13.7493 8C13.7492 7.51322 13.3462 7.12279 12.8597 7.1377L11.012 7.19434L12.0442 6.16211L12.8284 6.13867Z" fill="white"/>
<path fill-rule="evenodd" clip-rule="evenodd" d="M6.57255 1C7.23116 1.00017 7.83504 1.36638 8.13993 1.9502L9.95536 5.42773L13.7386 1.64648C13.9338 1.45141 14.2504 1.45128 14.4456 1.64648C14.6406 1.8417 14.6406 2.1583 14.4456 2.35352L2.56571 14.2334C2.37049 14.4283 2.05386 14.4284 1.85868 14.2334C1.66342 14.0381 1.66342 13.7207 1.85868 13.5254L5.74052 9.64258L4.56473 9.60742L4.13895 10.04C3.78183 10.4033 3.29388 10.6083 2.78446 10.6084H1.92509C1.42534 10.6084 1.09917 10.0843 1.31962 9.63574L2.12333 8L1.31962 6.36426C1.09917 5.91575 1.42534 5.39163 1.92509 5.3916H2.78446C3.29388 5.3917 3.78183 5.59667 4.13895 5.95996L4.56473 6.39258L6.31571 6.33887L5.46317 2.37305C5.31127 1.66662 5.84998 1 6.57255 1ZM6.57255 2C6.48691 2 6.42271 2.07937 6.44071 2.16309L7.41923 6.71484C7.45042 6.85989 7.41594 7.01207 7.3245 7.12891C7.23314 7.24548 7.0946 7.31563 6.94657 7.32031L4.37723 7.39941C4.23786 7.40371 4.10292 7.34944 4.00516 7.25L3.42606 6.66113C3.25694 6.48909 3.0257 6.3917 2.78446 6.3916H2.44657L3.00321 7.52344C3.07848 7.54749 3.14747 7.58957 3.20438 7.64648C3.29809 7.74021 3.35083 7.86747 3.35087 8C3.35087 8.2231 3.20497 8.4122 3.00321 8.47656L2.44657 9.6084H2.78446C3.0257 9.6083 3.25694 9.51091 3.42606 9.33887L4.00516 8.75C4.1029 8.65068 4.23795 8.59629 4.37723 8.60059L6.71024 8.67285L9.21415 6.16895L7.25321 2.41309C7.12071 2.15944 6.85869 2.00017 6.57255 2Z" fill="white"/>
</svg>
