<svg width="16" height="16" viewBox="0 0 16 16" fill="none" xmlns="http://www.w3.org/2000/svg">
<path fill-rule="evenodd" clip-rule="evenodd" d="M8 2C4.68629 2 2 4.68629 2 8C2 9.53542 2.57674 10.9361 3.52539 11.9973C3.29415 11.4327 3.16667 10.8146 3.16667 10.1667C3.16667 7.49729 5.33062 5.33333 8 5.33333C10.6694 5.33333 12.8333 7.49729 12.8333 10.1667C12.8333 10.8146 12.7059 11.4327 12.4746 11.9973C13.4233 10.9361 14 9.53542 14 8C14 4.68629 11.3137 2 8 2ZM10.5828 12.9993C11.3512 12.2982 11.8333 11.2887 11.8333 10.1667C11.8333 8.04957 10.1171 6.33333 8 6.33333C5.88291 6.33333 4.16667 8.04957 4.16667 10.1667C4.16667 11.2887 4.64878 12.2982 5.41715 12.9993C5.36243 12.7864 5.33333 12.5633 5.33333 12.3333C5.33333 10.8606 6.52724 9.66667 8 9.66667C9.47276 9.66667 10.6667 10.8606 10.6667 12.3333C10.6667 12.5633 10.6376 12.7864 10.5828 12.9993ZM8 14C8.92047 14 9.66667 13.2538 9.66667 12.3333C9.66667 11.4129 8.92047 10.6667 8 10.6667C7.07953 10.6667 6.33333 11.4129 6.33333 12.3333C6.33333 13.2538 7.07953 14 8 14ZM8 15C11.866 15 15 11.866 15 8C15 4.13401 11.866 1 8 1C4.13401 1 1 4.13401 1 8C1 11.866 4.13401 15 8 15Z" fill="white"/>
</svg>
