<svg width="16" height="16" viewBox="0 0 16 16" fill="none" xmlns="http://www.w3.org/2000/svg">
<path fill-rule="evenodd" clip-rule="evenodd" d="M5.02893 1.75C4.55678 1.74999 4.17215 1.74999 3.85989 1.7755C3.53715 1.80187 3.24793 1.85797 2.97852 1.99524C2.55516 2.21095 2.21095 2.55516 1.99524 2.97852C1.85797 3.24793 1.80187 3.53715 1.7755 3.85989C1.74999 4.17215 1.74999 4.55678 1.75 5.02892V10.9714C1.74999 11.4435 1.74999 11.8282 1.7755 12.1404C1.80187 12.4632 1.85797 12.7524 1.99524 13.0218C2.21095 13.4452 2.55516 13.7894 2.97852 14.0051C3.24793 14.1424 3.53715 14.1984 3.85989 14.2248C4.17215 14.2503 4.55677 14.2503 5.02892 14.2503H10.9714C11.4436 14.2503 11.8282 14.2503 12.1404 14.2248C12.4632 14.1984 12.7524 14.1424 13.0218 14.0051C13.4452 13.7894 13.7894 13.4452 14.0051 13.0218C14.1424 12.7524 14.1984 12.4632 14.2248 12.1404C14.2503 11.8282 14.2503 11.4435 14.2503 10.9714V5.02891C14.2503 4.55677 14.2503 4.17215 14.2248 3.85989C14.1984 3.53715 14.1424 3.24793 14.0051 2.97852C13.7894 2.55516 13.4452 2.21095 13.0218 1.99524C12.7524 1.85797 12.4632 1.80187 12.1404 1.7755C11.8282 1.74999 11.4435 1.74999 10.9714 1.75H5.02893ZM3.43251 2.88624C3.53745 2.83277 3.68042 2.7935 3.94132 2.77218C4.20805 2.75039 4.5517 2.75 5.05 2.75H10.9503C11.4486 2.75 11.7923 2.75039 12.059 2.77218C12.3199 2.7935 12.4629 2.83277 12.5678 2.88624C12.803 3.00608 12.9942 3.19731 13.1141 3.43251C13.1675 3.53745 13.2068 3.68042 13.2281 3.94132C13.2499 4.20805 13.2503 4.5517 13.2503 5.05V10.9503C13.2503 11.4486 13.2499 11.7923 13.2281 12.059C13.2068 12.3199 13.1675 12.4629 13.1141 12.5678C12.9942 12.803 12.803 12.9942 12.5678 13.1141C12.4629 13.1675 12.3199 13.2068 12.059 13.2281C11.7923 13.2499 11.4486 13.2503 10.9503 13.2503H5.05C4.55171 13.2503 4.20805 13.2499 3.94132 13.2281C3.68042 13.2068 3.53745 13.1675 3.43251 13.1141C3.19731 12.9942 3.00608 12.803 2.88624 12.5678C2.83277 12.4629 2.7935 12.3199 2.77218 12.059C2.75039 11.7923 2.75 11.4486 2.75 10.9503V5.05C2.75 4.55171 2.75039 4.20805 2.77218 3.94132C2.7935 3.68042 2.83277 3.53745 2.88624 3.43251C3.00608 3.19731 3.19731 3.00608 3.43251 2.88624ZM7.99609 3.84082C8.27224 3.84082 8.49609 4.06468 8.49609 4.34082V7.49902H11.6582C11.9344 7.49902 12.1582 7.72288 12.1582 7.99902C12.1582 8.27517 11.9344 8.49902 11.6582 8.49902H8.49609V11.6592C8.49609 11.9353 8.27224 12.1592 7.99609 12.1592C7.71995 12.1592 7.49609 11.9353 7.49609 11.6592V8.49902H4.33984C4.0637 8.49902 3.83984 8.27517 3.83984 7.99902C3.83984 7.72288 4.0637 7.49902 4.33984 7.49902H7.49609V4.34082C7.49609 4.06468 7.71995 3.84082 7.99609 3.84082Z" fill="white"/>
</svg>
