<svg width="16" height="16" viewBox="0 0 16 16" fill="none" xmlns="http://www.w3.org/2000/svg">
<path fill-rule="evenodd" clip-rule="evenodd" d="M2 7.99821C2 4.68549 4.68549 2 7.99821 2C11.3109 2 13.9964 4.68549 13.9964 7.99821C13.9964 11.3109 11.3109 13.9964 7.99821 13.9964C4.68549 13.9964 2 11.3109 2 7.99821ZM7.99821 1C4.1332 1 1 4.1332 1 7.99821C1 11.8632 4.1332 14.9964 7.99821 14.9964C11.8632 14.9964 14.9964 11.8632 14.9964 7.99821C14.9964 4.1332 11.8632 1 7.99821 1ZM8.49826 3.78355C8.49826 3.5074 8.2744 3.28355 7.99826 3.28355C7.72211 3.28355 7.49826 3.5074 7.49826 3.78355V7.4986H3.7832C3.50706 7.4986 3.2832 7.72246 3.2832 7.9986C3.2832 8.27474 3.50706 8.4986 3.7832 8.4986H7.49826V12.2137C7.49826 12.4898 7.72211 12.7137 7.99826 12.7137C8.2744 12.7137 8.49826 12.4898 8.49826 12.2137V8.4986H12.2133C12.4895 8.4986 12.7133 8.27474 12.7133 7.9986C12.7133 7.72246 12.4895 7.4986 12.2133 7.4986H8.49826V3.78355Z" fill="white"/>
</svg>
