<svg width="16" height="16" viewBox="0 0 16 16" fill="none" xmlns="http://www.w3.org/2000/svg">
<path fill-rule="evenodd" clip-rule="evenodd" d="M11.8171 2.00631C11.745 2.01015 11.6462 2.02352 11.4725 2.04781L5.69654 2.8552C5.09037 2.93993 4.66358 2.99994 4.33102 3.0727C4.14222 3.11401 3.99619 3.15702 3.87647 3.2052C3.92767 3.20295 3.9796 3.20174 4.03233 3.20135C4.36564 3.19891 4.77577 3.2304 5.28068 3.26917L11.2267 3.72569C11.4597 3.74357 11.67 3.75972 11.8596 3.77775V2.38453C11.8596 2.20914 11.8591 2.10941 11.853 2.03751C11.8518 2.0237 11.8505 2.01316 11.8494 2.00539C11.8415 2.00537 11.8309 2.00557 11.8171 2.00631ZM2.75 6.56118C2.75 6.02756 2.75041 5.65841 2.77442 5.37314C2.79796 5.09327 2.84138 4.94255 2.89958 4.83453C3.03101 4.59061 3.23977 4.39727 3.49304 4.28489C3.60519 4.23513 3.7588 4.20338 4.03964 4.20132C4.32591 4.19923 4.69401 4.22708 5.22607 4.26792L11.1301 4.72121C11.5937 4.75681 11.9126 4.78165 12.1596 4.82037C12.4005 4.85814 12.5328 4.90378 12.6304 4.96025C12.8475 5.08598 13.0218 5.27414 13.1305 5.50025C13.1793 5.60181 13.2147 5.73722 13.2339 5.98036C13.2536 6.22961 13.254 6.54941 13.254 7.01446V11.6434C13.254 12.1771 13.2536 12.5462 13.2296 12.8315C13.206 13.1114 13.1626 13.2621 13.1044 13.3701C12.973 13.614 12.7642 13.8074 12.5109 13.9197C12.3988 13.9695 12.2452 14.0012 11.9643 14.0033C11.6781 14.0054 11.31 13.9775 10.7779 13.9367L4.87393 13.4834C4.41025 13.4478 4.09142 13.423 3.8444 13.3843C3.60344 13.3465 3.47114 13.3008 3.37362 13.2444C3.15649 13.1186 2.98223 12.9305 2.87349 12.7044C2.82465 12.6028 2.78927 12.4674 2.77006 12.2243C2.75036 11.975 2.75 11.6552 2.75 11.1902V6.56118ZM1.75 11.2103C1.75 11.6503 1.74999 12.0097 1.77317 12.303C1.79718 12.6069 1.84824 12.8798 1.97229 13.1378C2.16801 13.5448 2.48169 13.8834 2.87251 14.1098C3.12021 14.2532 3.38841 14.325 3.68955 14.3722C3.9802 14.4177 4.33854 14.4453 4.77726 14.4789L10.7233 14.9354C11.2282 14.9742 11.6383 15.0057 11.9717 15.0033C12.3152 15.0008 12.6251 14.9631 12.9165 14.8338C13.3724 14.6315 13.7482 14.2835 13.9847 13.8444C14.136 13.5638 14.1972 13.2577 14.226 12.9153C14.254 12.5832 14.254 12.1718 14.254 11.6654V6.99427C14.254 6.55427 14.254 6.19487 14.2308 5.90159C14.2068 5.59772 14.1557 5.32481 14.0317 5.06686C13.836 4.65986 13.5223 4.32118 13.1315 4.09487C13.0436 4.04398 12.9531 4.00212 12.8596 3.96716L12.8596 2.36686C12.8596 2.21555 12.8596 2.07193 12.8493 1.95192C12.8381 1.82232 12.8119 1.66908 12.7277 1.51946C12.6119 1.31386 12.4287 1.15451 12.2091 1.0683C12.0492 1.00556 11.8938 1.00081 11.7639 1.00772C11.6436 1.01413 11.5014 1.03402 11.3516 1.05499L5.53817 1.86761C4.95646 1.94893 4.49167 2.01389 4.11728 2.09581C3.73252 2.17999 3.40658 2.28917 3.11192 2.4774C2.634 2.78269 2.25421 3.21926 2.01803 3.73484C1.8724 4.05272 1.80939 4.39064 1.77929 4.78335C1.74999 5.16547 1.75 5.63477 1.75 6.22213V11.2103ZM6.54875 6.0408C5.18365 6.0408 4.36524 7.22284 4.36524 8.19756C4.36524 9.03466 4.76352 9.79975 5.26805 10.4461C5.77632 11.0973 6.43248 11.6791 7.03727 12.1581L7.07927 12.1915C7.25732 12.3333 7.44587 12.4835 7.68497 12.5492C7.8863 12.6044 8.11907 12.6044 8.3204 12.5492C8.55949 12.4835 8.74805 12.3333 8.9261 12.1915L8.9681 12.1581C9.57289 11.6791 10.2291 11.0973 10.7373 10.4461C11.2419 9.79975 11.6401 9.03466 11.6401 8.19756C11.6401 7.22284 10.8217 6.0408 9.45663 6.0408C9.02893 6.0408 8.65973 6.21112 8.36436 6.41802C8.23498 6.50865 8.11424 6.61013 8.00268 6.71527C7.89113 6.61013 7.77039 6.50865 7.64101 6.41802C7.34564 6.21112 6.97644 6.0408 6.54875 6.0408ZM5.36524 8.19756C5.36524 7.67914 5.82726 7.0408 6.54875 7.0408C6.70371 7.0408 6.87473 7.10219 7.06729 7.23707C7.26059 7.37247 7.4464 7.56166 7.62141 7.76795C7.71641 7.87993 7.85584 7.94448 8.00268 7.94448C8.14953 7.94448 8.28896 7.87993 8.38396 7.76795C8.55897 7.56166 8.74478 7.37247 8.93808 7.23707C9.13063 7.10219 9.30166 7.0408 9.45663 7.0408C10.1781 7.0408 10.6401 7.67914 10.6401 8.19756C10.6401 8.71643 10.3896 9.26645 9.94903 9.83081C9.51224 10.3904 8.92716 10.9149 8.3472 11.3742C8.23051 11.4667 8.16534 11.5178 8.11322 11.5527C8.07055 11.5813 8.05736 11.5844 8.05577 11.5848C8.02774 11.5925 7.97776 11.5925 7.94973 11.5849C7.94814 11.5845 7.93482 11.5813 7.89215 11.5527C7.84003 11.5178 7.77486 11.4667 7.65817 11.3742C7.07821 10.9149 6.49313 10.3904 6.05634 9.8308C5.61582 9.26645 5.36524 8.71643 5.36524 8.19756Z" fill="white"/>
</svg>
