<svg width="16" height="16" viewBox="0 0 16 16" fill="none" xmlns="http://www.w3.org/2000/svg">
<path fill-rule="evenodd" clip-rule="evenodd" d="M11.4538 2.04706C11.6275 2.02274 11.7264 2.00933 11.7984 2.00548C11.8123 2.00474 11.8229 2.00453 11.8308 2.00455C11.8319 2.01233 11.8331 2.02287 11.8343 2.03668C11.8405 2.1086 11.8409 2.20835 11.8409 2.38378V3.74144C11.6547 3.72377 11.4487 3.70793 11.2214 3.69045L5.27512 3.23317C4.77545 3.19474 4.368 3.1634 4.03654 3.16619C4.02037 3.16633 4.00426 3.16654 3.98823 3.16684C4.08958 3.1319 4.20845 3.09946 4.35208 3.06801C4.68455 2.99519 5.11124 2.9351 5.71726 2.85025L11.4538 2.04706ZM1.77747 5.29555C1.78165 5.1071 1.78874 4.9355 1.80076 4.77859C1.83086 4.38595 1.89385 4.0481 2.03943 3.73025C2.27554 3.21474 2.65522 2.7782 3.13301 2.47288C3.4276 2.28464 3.75345 2.17541 4.13813 2.09116C4.51243 2.00918 4.9771 1.94412 5.55868 1.8627L11.3326 1.05427C11.4825 1.03327 11.6248 1.01333 11.7451 1.0069C11.875 0.999961 12.0304 1.00468 12.1903 1.0674C12.41 1.15359 12.5932 1.31294 12.709 1.51856C12.7933 1.6682 12.8195 1.82147 12.8306 1.95108C12.841 2.07112 12.8409 2.21477 12.8409 2.36611L12.8409 3.93069C12.9378 3.96687 13.0316 4.0105 13.1226 4.06395C13.5151 4.29426 13.8301 4.6392 14.0267 5.05384C14.1518 5.3177 14.2029 5.59622 14.2269 5.904C14.25 6.2006 14.25 6.56371 14.25 7.00648V11.6166C14.25 12.1253 14.25 12.5401 14.2222 12.8754C14.1936 13.2215 14.1324 13.5334 13.9802 13.8202C13.7432 14.2671 13.3667 14.6214 12.9099 14.8276C12.6166 14.9599 12.3056 14.9983 11.9635 15.0011C11.632 15.0039 11.2246 14.9726 10.7249 14.9342L4.7786 14.4769C4.34366 14.4434 3.98697 14.416 3.69736 14.3702C3.39683 14.3227 3.1271 14.25 2.87736 14.1034C2.4849 13.8731 2.16986 13.5281 1.97327 13.1135C1.84817 12.8496 1.79706 12.5711 1.77309 12.2633C1.74999 11.9667 1.75 11.6036 1.75 11.1609V6.55069C1.74999 6.04385 1.74999 5.6302 1.77747 5.29555ZM6.55183 6.5284C5.51268 6.5284 4.875 7.43646 4.875 8.18128C4.875 9.53286 6.16524 10.803 7.34443 11.739C7.56592 11.9148 7.67668 12.0027 7.81439 12.0406C7.9292 12.0722 8.0708 12.0722 8.18561 12.0406C8.32332 12.0027 8.43407 11.9148 8.65557 11.739C9.83475 10.803 11.125 9.53286 11.125 8.18128C11.125 7.43646 10.4873 6.5284 9.44817 6.5284C8.86781 6.5284 8.37202 6.99074 8 7.42997C7.62798 6.99074 7.13218 6.5284 6.55183 6.5284Z" fill="white"/>
</svg>
