<svg width="16" height="16" viewBox="0 0 16 16" fill="none" xmlns="http://www.w3.org/2000/svg">
<path fill-rule="evenodd" clip-rule="evenodd" d="M5.33076 14.25H10.6692C11.1446 14.25 11.5333 14.25 11.8492 14.2246C12.1762 14.1983 12.4716 14.1423 12.7474 14.004C13.1791 13.7876 13.53 13.4424 13.75 13.0177C13.8905 12.7463 13.9475 12.4558 13.9742 12.1341C14 11.8233 14 11.4408 14 10.9732V5.02678C14 4.55916 14 4.17673 13.9742 3.86592C13.9475 3.54422 13.8905 3.25366 13.75 2.98231C13.53 2.55764 13.1791 2.21237 12.7474 1.99599C12.4716 1.85773 12.1762 1.80167 11.8492 1.77538C11.5333 1.74999 11.1446 1.74999 10.6693 1.75H5.33075C4.85543 1.74999 4.4667 1.74999 4.15078 1.77538C3.82377 1.80167 3.52843 1.85773 3.25261 1.99599C2.82094 2.21237 2.46999 2.55764 2.25004 2.98231C2.10951 3.25366 2.05252 3.54422 2.0258 3.86592C1.99999 4.17673 1.99999 4.55916 2 5.02678V10.9732C1.99999 11.4408 1.99999 11.8233 2.0258 12.1341C2.05252 12.4558 2.10951 12.7463 2.25004 13.0177C2.46999 13.4424 2.82094 13.7876 3.25261 14.004C3.52843 14.1423 3.82377 14.1983 4.15078 14.2246C4.4667 14.25 4.85544 14.25 5.33076 14.25ZM12.5884 4.8187C12.5884 4.23064 12.5884 3.93661 12.4739 3.71201C12.3733 3.51444 12.2126 3.35381 12.0151 3.25314C11.7905 3.1387 11.4964 3.1387 10.9084 3.1387H5.09191C4.50385 3.1387 4.20982 3.1387 3.98522 3.25314C3.78765 3.35381 3.62702 3.51444 3.52635 3.71201C3.41191 3.93661 3.41191 4.23064 3.41191 4.8187V9.09758C3.41191 9.68564 3.41191 9.97967 3.52635 10.2043C3.62702 10.4018 3.78765 10.5625 3.98522 10.6631C4.20982 10.7776 4.50385 10.7776 5.09191 10.7776H10.9084C11.4964 10.7776 11.7905 10.7776 12.0151 10.6631C12.2126 10.5625 12.3733 10.4018 12.4739 10.2043C12.5884 9.97967 12.5884 9.68564 12.5884 9.09758V4.8187ZM3.94092 13.1139C3.60955 13.1139 3.34092 12.8453 3.34092 12.5139C3.34092 12.1825 3.60955 11.9139 3.94092 11.9139H7.82327C8.15464 11.9139 8.42327 12.1825 8.42327 12.5139C8.42327 12.8453 8.15464 13.1139 7.82327 13.1139H3.94092Z" fill="white"/>
</svg>
