<svg width="16" height="16" viewBox="0 0 16 16" fill="none" xmlns="http://www.w3.org/2000/svg">
<path fill-rule="evenodd" clip-rule="evenodd" d="M15 8C15 11.866 11.866 15 8 15C4.13401 15 1 11.866 1 8C1 4.13401 4.13401 1 8 1C11.866 1 15 4.13401 15 8ZM4.90002 4.69995C5.17617 4.69995 5.40002 4.92381 5.40002 5.19995V10.3H7.42002C7.69617 10.3 7.92002 10.5238 7.92002 10.8C7.92002 11.0761 7.69617 11.3 7.42002 11.3H4.97002C4.65522 11.3 4.40002 11.0448 4.40002 10.73V5.19995C4.40002 4.92381 4.62388 4.69995 4.90002 4.69995ZM10.99 5.69995H9.18003V7.38799H10.99C11.2662 7.38799 11.49 7.61185 11.49 7.88799C11.49 8.16414 11.2662 8.38799 10.99 8.38799H9.18003V10.3H11.2C11.4762 10.3 11.7 10.5238 11.7 10.8C11.7 11.0761 11.4762 11.3 11.2 11.3H8.75002C8.43522 11.3 8.18002 11.0448 8.18002 10.73V5.19995C8.18002 4.92381 8.40388 4.69995 8.68002 4.69995H10.99C11.2662 4.69995 11.49 4.92381 11.49 5.19995C11.49 5.47609 11.2662 5.69995 10.99 5.69995Z" fill="white"/>
</svg>
