<svg width="16" height="16" viewBox="0 0 16 16" fill="none" xmlns="http://www.w3.org/2000/svg">
<path d="M4.25 5.59535C4.25 5.20191 4.5698 4.88297 4.96429 4.88297H11.0357C11.4302 4.88297 11.75 5.20191 11.75 5.59535V8.02472C11.75 8.85656 11.3855 9.64686 10.7523 10.1882L9.49943 11.2592C9.34112 11.3945 9.25 11.5921 9.25 11.8001V14.5H6.75V11.8001C6.75 11.5921 6.65888 11.3945 6.50057 11.2592L5.24774 10.1882C4.61447 9.64686 4.25 8.85656 4.25 8.02472V5.59535Z" fill="white"/>
<path fill-rule="evenodd" clip-rule="evenodd" d="M5.85834 1C6.13448 1 6.35834 1.22386 6.35834 1.5V4.38297H9.64405V1.5C9.64405 1.22386 9.86791 1 10.1441 1C10.4202 1 10.6441 1.22386 10.6441 1.5V4.38297H11.0357C11.7051 4.38297 12.25 4.92451 12.25 5.59535V8.02472C12.25 9.00301 11.8214 9.9321 11.0772 10.5683L9.82433 11.6392C9.77693 11.6798 9.75 11.7386 9.75 11.8001V15H6.25V11.8001C6.25 11.7386 6.22307 11.6798 6.17567 11.6392L4.92285 10.5683C4.17865 9.9321 3.75 9.00301 3.75 8.02472V5.59535C3.75 4.92451 4.29492 4.38297 4.96429 4.38297H5.35834V1.5C5.35834 1.22386 5.5822 1 5.85834 1ZM4.96429 5.38297C4.84467 5.38297 4.75 5.47932 4.75 5.59535V8.02472C4.75 8.7101 5.05028 9.36163 5.57263 9.80816L6.82546 10.8791C7.0947 11.1093 7.25 11.4456 7.25 11.8001V14H8.75V11.8001C8.75 11.4456 8.9053 11.1093 9.17454 10.8791L10.4274 9.80816C10.9497 9.36163 11.25 8.7101 11.25 8.02472V5.59535C11.25 5.47932 11.1553 5.38297 11.0357 5.38297H4.96429Z" fill="white"/>
</svg>
