<svg width="16" height="16" viewBox="0 0 16 16" fill="none" xmlns="http://www.w3.org/2000/svg">
<path fill-rule="evenodd" clip-rule="evenodd" d="M6.35938 1.5C6.35938 1.22386 6.13552 1 5.85938 1C5.58323 1 5.35938 1.22386 5.35938 1.5V4.38287H4.95C4.28726 4.38287 3.75 4.92013 3.75 5.58287V8.04488C3.75 9.00966 4.1722 9.92611 4.90548 10.5531L6.17928 11.6422C6.22372 11.6802 6.24931 11.7357 6.24931 11.7942V14.999H9.74862V11.7942C9.74862 11.7357 9.7742 11.6802 9.81865 11.6422L11.0924 10.5531C11.8257 9.92611 12.2479 9.00966 12.2479 8.04488V5.58287C12.2479 4.92013 11.7107 4.38287 11.0479 4.38287H10.6439V1.5C10.6439 1.22386 10.42 1 10.1439 1C9.86776 1 9.6439 1.22386 9.6439 1.5V4.38287H6.35938V1.5ZM4.75 5.58287C4.75 5.47241 4.83954 5.38287 4.95 5.38287H11.0479C11.1584 5.38287 11.2479 5.47241 11.2479 5.58287V8.04488C11.2479 8.7173 10.9537 9.35604 10.4426 9.79302L9.16879 10.8821C8.90214 11.1101 8.74862 11.4434 8.74862 11.7942V13.999H7.24931V11.7942C7.24931 11.4434 7.09578 11.1101 6.82913 10.8821L5.55533 9.79302C5.04426 9.35604 4.75 8.7173 4.75 8.04488V5.58287Z" fill="white"/>
</svg>
