<svg width="16" height="16" viewBox="0 0 16 16" fill="none" xmlns="http://www.w3.org/2000/svg">
<path fill-rule="evenodd" clip-rule="evenodd" d="M5.85469 1C5.4819 1 5.17969 1.30221 5.17969 1.675V4.51254H4.95C4.28726 4.51254 3.75 5.0498 3.75 5.71254V8.1017C3.75 9.07435 4.17909 9.99747 4.92267 10.6245L6.17824 11.6832C6.2233 11.7212 6.24931 11.7772 6.24931 11.8361V14.9964H9.74862V11.8361C9.74862 11.7772 9.77462 11.7212 9.81969 11.6832L11.0753 10.6245C11.8188 9.99747 12.2479 9.07435 12.2479 8.1017V5.71254C12.2479 5.0498 11.7107 4.51254 11.0479 4.51254H10.8213V1.675C10.8213 1.30221 10.5191 1 10.1463 1H5.85469ZM9.82126 4.51254V2H6.17969V4.51254H9.82126ZM4.75 5.71254C4.75 5.60209 4.83954 5.51254 4.95 5.51254H11.0479C11.1584 5.51254 11.2479 5.60209 11.2479 5.71254V8.1017C11.2479 8.77961 10.9489 9.42299 10.4306 9.86001L9.17504 10.9188C8.90465 11.1468 8.74862 11.4824 8.74862 11.8361V13.9964H7.24931V11.8361C7.24931 11.4824 7.09327 11.1468 6.82288 10.9188L5.56732 9.86001C5.04907 9.423 4.75 8.77961 4.75 8.1017V5.71254Z" fill="white"/>
</svg>
