<svg width="16" height="16" viewBox="0 0 16 16" fill="none" xmlns="http://www.w3.org/2000/svg">
<path fill-rule="evenodd" clip-rule="evenodd" d="M5.85937 1C6.13552 1 6.35937 1.22386 6.35937 1.5V4.38287H9.6439V1.5C9.6439 1.22386 9.86776 1 10.1439 1C10.42 1 10.6439 1.22386 10.6439 1.5V4.38287H11.0479C11.4206 4.38287 11.7535 4.55273 11.9736 4.81925L11.2449 5.548C11.2284 5.45416 11.1465 5.38287 11.0479 5.38287H4.95C4.83954 5.38287 4.75 5.47241 4.75 5.58287V8.04488C4.75 8.7173 5.04426 9.35604 5.55533 9.79302L6.33406 10.4588L5.6248 11.1681L4.90548 10.5531C4.1722 9.92611 3.75 9.00966 3.75 8.04488V5.58287C3.75 4.92013 4.28726 4.38287 4.95 4.38287H5.35937V1.5C5.35937 1.22386 5.58323 1 5.85937 1ZM6.24931 11.9578V14.999H9.74862V11.7942C9.74862 11.7357 9.7742 11.6802 9.81864 11.6422L11.0924 10.5531C11.8257 9.92611 12.2479 9.00966 12.2479 8.04488V5.95918L11.2479 6.95918V8.04488C11.2479 8.7173 10.9537 9.35604 10.4426 9.79302L9.16879 10.8821C8.90214 11.1101 8.74862 11.4434 8.74862 11.7942V13.999H7.24931V11.7942C7.24931 11.5624 7.1823 11.3383 7.05994 11.1472L6.24931 11.9578Z" fill="white"/>
<path fill-rule="evenodd" clip-rule="evenodd" d="M14.4453 1.64645C14.6406 1.84171 14.6406 2.15829 14.4453 2.35355L2.56596 14.2329C2.37069 14.4282 2.05411 14.4282 1.85885 14.2329C1.66359 14.0377 1.66359 13.7211 1.85885 13.5258L13.7382 1.64645C13.9335 1.45118 14.2501 1.45118 14.4453 1.64645Z" fill="white"/>
</svg>
