<svg width="16" height="16" viewBox="0 0 16 16" fill="none" xmlns="http://www.w3.org/2000/svg">
<path fill-rule="evenodd" clip-rule="evenodd" d="M10.1416 1C10.5085 1.00018 10.8203 1.29506 10.8203 1.67578V4.51367H11.0361C11.6987 4.5139 12.2498 5.04424 12.25 5.71582V8.1123C12.25 9.08184 11.8189 10.0009 11.0742 10.6289L9.82129 11.6855C9.77461 11.7251 9.75 11.7809 9.75 11.8369V15H6.25V11.8369C6.25 11.7809 6.22539 11.7251 6.17871 11.6855L4.92578 10.6289C4.18109 10.0009 3.75 9.08184 3.75 8.1123V5.71582C3.75022 5.04424 4.30129 4.5139 4.96387 4.51367H5.17676V1.67578C5.17676 1.29497 5.48848 1.00004 5.85547 1H10.1416ZM6.17676 4.51367H9.82031V2H6.17676V4.51367Z" fill="white"/>
</svg>
