<svg width="16" height="16" viewBox="0 0 16 16" fill="none" xmlns="http://www.w3.org/2000/svg">
<path fill-rule="evenodd" clip-rule="evenodd" d="M8.50196 1.50195C8.50196 1.22581 8.2781 1.00195 8.00196 1.00195C7.72581 1.00195 7.50196 1.22581 7.50196 1.50195V6.77062C7.50196 7.04676 7.72581 7.27062 8.00196 7.27062C8.2781 7.27062 8.50196 7.04676 8.50196 6.77062V1.50195ZM11.1294 3.25159C10.8907 3.11273 10.5846 3.19367 10.4458 3.43236C10.3069 3.67106 10.3879 3.97712 10.6266 4.11597C11.6276 4.6983 12.4107 5.59764 12.8537 6.67512C13.2967 7.75265 13.3744 8.94758 13.0748 10.0744C12.7751 11.2011 12.1151 12.196 11.1978 12.9052C10.2805 13.6144 9.15717 13.9984 8.00199 13.9984C6.84681 13.9984 5.72348 13.6144 4.80623 12.9052C3.88891 12.196 3.22884 11.2011 2.9292 10.0744C2.62955 8.94758 2.70732 7.75265 3.15029 6.67512C3.59325 5.59764 4.37636 4.6983 5.37741 4.11597C5.6161 3.97712 5.69704 3.67106 5.55819 3.43236C5.41934 3.19367 5.11327 3.11273 4.87458 3.25159C3.68249 3.94505 2.75156 5.01501 2.2254 6.29489C1.69926 7.57472 1.607 8.99348 1.96279 10.3314C2.31859 11.6693 3.10279 12.8522 4.19458 13.6963C5.28643 14.5405 6.62475 14.9984 8.00199 14.9984C9.37923 14.9984 10.7176 14.5405 11.8094 13.6963C12.9012 12.8522 13.6854 11.6693 14.0412 10.3314C14.397 8.99348 14.3047 7.57472 13.7786 6.29489C13.2524 5.01501 12.3215 3.94505 11.1294 3.25159Z" fill="white"/>
</svg>
