<svg width="16" height="16" viewBox="0 0 16 16" fill="none" xmlns="http://www.w3.org/2000/svg">
<path d="M4.25 5.71622C4.25 5.32812 4.5698 5.01351 4.96429 5.01351H11.0357C11.4302 5.01351 11.75 5.32812 11.75 5.71622V8.11262C11.75 8.93316 11.3855 9.71274 10.7523 10.2467L9.49943 11.3032C9.34112 11.4367 9.25 11.6316 9.25 11.8367V14.5H6.75V11.8367C6.75 11.6316 6.65888 11.4367 6.50057 11.3032L5.24774 10.2467C4.61447 9.71274 4.25 8.93316 4.25 8.11262V5.71622Z" fill="white"/>
<path fill-rule="evenodd" clip-rule="evenodd" d="M5.17698 1.67568C5.17698 1.29484 5.48852 1 5.85555 1H10.1413C10.5083 1 10.8198 1.29484 10.8198 1.67568V4.51351H11.0357C11.6986 4.51351 12.25 5.04431 12.25 5.71622V8.11262C12.25 9.08215 11.8193 10.001 11.0746 10.629L9.82176 11.6854C9.77486 11.725 9.75 11.7806 9.75 11.8367V15H6.25V11.8367C6.25 11.7806 6.22514 11.725 6.17824 11.6854L4.92542 10.629C4.18072 10.001 3.75 9.08215 3.75 8.11262V5.71622C3.75 5.04431 4.30139 4.51351 4.96429 4.51351H5.17698V1.67568ZM6.17698 4.51351H9.81983V2H6.17698V4.51351ZM4.96429 5.51351C4.8382 5.51351 4.75 5.61194 4.75 5.71622V8.11262C4.75 8.78417 5.04821 9.42445 5.57006 9.8645L6.82289 10.9209C7.09263 11.1484 7.25 11.4826 7.25 11.8367V14H8.75V11.8367C8.75 11.4826 8.90737 11.1484 9.17711 10.9209L10.4299 9.8645C10.9518 9.42445 11.25 8.78417 11.25 8.11262V5.71622C11.25 5.61194 11.1618 5.51351 11.0357 5.51351H4.96429Z" fill="white"/>
</svg>
