<svg width="16" height="16" viewBox="0 0 16 16" fill="none" xmlns="http://www.w3.org/2000/svg">
<path d="M12.248 8.04492C12.248 9.00964 11.8259 9.92578 11.0927 10.5527L9.8193 11.6426C9.77495 11.6805 9.74906 11.7356 9.74899 11.7939V14.999H6.24996V11.958L7.06051 11.1475C7.18272 11.3385 7.24991 11.5624 7.24996 11.7939V13.999H8.74899V11.7939C8.74906 11.4432 8.90234 11.1098 9.16891 10.8818L10.4433 9.79297C10.9543 9.35601 11.248 8.71723 11.248 8.04492V6.95898L12.248 5.95898V8.04492Z" fill="white"/>
<path fill-rule="evenodd" clip-rule="evenodd" d="M10.1445 1C10.4206 1.0001 10.6445 1.22392 10.6445 1.5V4.38281H11.0019L13.7382 1.64648C13.9335 1.45122 14.251 1.45122 14.4463 1.64648C14.6412 1.84168 14.6412 2.15832 14.4463 2.35352L2.56637 14.2334C2.37118 14.4283 2.05455 14.4283 1.85934 14.2334C1.66408 14.0381 1.66408 13.7207 1.85934 13.5254L4.86617 10.5186C4.1574 9.89274 3.74997 8.99212 3.74996 8.04492V5.58301C3.74996 4.92035 4.28753 4.38295 4.95016 4.38281H5.35934V1.5C5.35934 1.22401 5.5834 1.00024 5.85934 1C6.13548 1 6.35934 1.22386 6.35934 1.5V4.38281H9.64449V1.5C9.64449 1.22386 9.86835 1 10.1445 1ZM4.95016 5.38281C4.83982 5.38295 4.74996 5.47264 4.74996 5.58301V8.04492C4.74997 8.71728 5.04462 9.356 5.55563 9.79297L5.57516 9.80957L10.0019 5.38281H4.95016Z" fill="white"/>
</svg>
