<svg width="16" height="16" viewBox="0 0 16 16" fill="none" xmlns="http://www.w3.org/2000/svg">
<path d="M12.25 8.02441C12.25 9.00271 11.8213 9.93218 11.0771 10.5684L9.82516 11.6396C9.77783 11.6801 9.75004 11.7384 9.74996 11.7998V15H6.24996V11.957L12.25 5.95703V8.02441Z" fill="white"/>
<path d="M10.1445 1C10.4206 1.00002 10.6445 1.22387 10.6445 1.5V4.38281H11.0019L13.7382 1.64648C13.9335 1.45122 14.251 1.45122 14.4463 1.64648C14.6412 1.84168 14.6412 2.15832 14.4463 2.35352L2.56637 14.2334C2.37118 14.4283 2.05455 14.4283 1.85934 14.2334C1.66408 14.0381 1.66408 13.7207 1.85934 13.5254L4.86617 10.5186C4.15712 9.88423 3.74996 8.97746 3.74996 8.02441V5.5957C3.74996 4.92487 4.29544 4.38281 4.96481 4.38281H5.35836V1.5C5.35836 1.22399 5.5824 1.00021 5.85836 1C6.1345 1 6.35836 1.22386 6.35836 1.5V4.38281H9.64449V1.5C9.64449 1.22386 9.86835 1 10.1445 1Z" fill="white"/>
</svg>
