<svg width="16" height="16" viewBox="0 0 16 16" fill="none" xmlns="http://www.w3.org/2000/svg">
<path fill-rule="evenodd" clip-rule="evenodd" d="M4.34082 11.6064C5.20582 11.6064 5.88672 12.3213 5.88672 13.1777C5.88661 14.034 5.20575 14.749 4.34082 14.749C3.47609 14.7488 2.79601 14.0339 2.7959 13.1777C2.7959 12.3215 3.47601 11.6067 4.34082 11.6064ZM4.34082 12.6064C4.05081 12.6067 3.7959 12.851 3.7959 13.1777C3.79601 13.5044 4.05087 13.7488 4.34082 13.749C4.63094 13.749 4.88661 13.5045 4.88672 13.1777C4.88672 12.8508 4.631 12.6064 4.34082 12.6064Z" fill="white"/>
<path fill-rule="evenodd" clip-rule="evenodd" d="M12.3594 11.6064C13.2244 11.6064 13.9053 12.3213 13.9053 13.1777C13.9052 14.034 13.2243 14.749 12.3594 14.749C11.4946 14.7488 10.8146 14.0339 10.8145 13.1777C10.8145 12.3215 11.4946 11.6067 12.3594 11.6064ZM12.3594 12.6064C12.0694 12.6067 11.8145 12.851 11.8145 13.1777C11.8146 13.5044 12.0694 13.7488 12.3594 13.749C12.6495 13.749 12.9052 13.5045 12.9053 13.1777C12.9053 12.8508 12.6496 12.6064 12.3594 12.6064Z" fill="white"/>
<path d="M9.39648 1.25C12.0905 1.25004 14.2539 3.48395 14.2539 6.21387C14.2539 6.48293 14.2329 6.74782 14.1924 7.00586C13.8223 9.36186 11.8244 11.1777 9.39648 11.1777H7.30469C5.02386 11.1777 3.12258 9.57507 2.59375 7.42773H2.25C1.97386 7.42773 1.75 7.20388 1.75 6.92773C1.75005 6.65163 1.97389 6.42773 2.25 6.42773H8.89648V1.75C8.89648 1.47386 9.12034 1.25 9.39648 1.25Z" fill="white"/>
</svg>
