<svg width="16" height="16" viewBox="0 0 16 16" fill="none" xmlns="http://www.w3.org/2000/svg">
<path d="M5.59961 8.40004C6.26235 8.40004 6.7998 8.93749 6.7998 9.60023V10.9996C6.79978 11.6624 6.26233 12.1998 5.59961 12.1998H4.2002C4.08974 12.1998 4 12.2896 4 12.4V13.8004C4.00024 13.9107 4.08988 13.9996 4.2002 13.9996H6.2998C6.57582 13.9996 6.79959 14.2237 6.7998 14.4996C6.79978 14.7758 6.57593 14.9996 6.2998 14.9996H4.2002C3.5376 14.9996 3.00024 14.463 3 13.8004V12.4C3 11.7373 3.53745 11.1998 4.2002 11.1998H5.59961C5.71005 11.1998 5.79978 11.1101 5.7998 10.9996V9.60023C5.7998 9.48977 5.71007 9.40004 5.59961 9.40004H3.5C3.22387 9.40004 3.00003 9.17616 3 8.90004C3 8.62389 3.22386 8.40004 3.5 8.40004H5.59961Z" fill="white"/>
<path d="M12.5996 8.40004C12.8756 8.40004 13.0994 8.62405 13.0996 8.90004C13.0994 9.176 12.8756 9.40004 12.5996 9.40004H10.5C10.3899 9.40017 10.3002 9.48922 10.2998 9.59925V10.9996C10.2998 11.11 10.3897 11.1997 10.5 11.1998H11.8994C12.562 11.1998 13.0994 11.7375 13.0996 12.4V13.7994C13.0996 14.4622 12.5622 14.9996 11.8994 14.9996H9.7998C9.52377 14.9995 9.2998 14.7757 9.2998 14.4996C9.29999 14.2237 9.52389 13.9998 9.7998 13.9996H11.8994C12.0099 13.9996 12.0996 13.9099 12.0996 13.7994V12.4C12.0994 12.2897 12.0098 12.1998 11.8994 12.1998H10.5C9.83737 12.1997 9.2998 11.6623 9.2998 10.9996V9.59925C9.3002 8.93693 9.83762 8.40017 10.5 8.40004H12.5996Z" fill="white"/>
<path d="M8.0498 13.5748C8.4364 13.5748 8.75 13.8884 8.75 14.275C8.74995 14.6616 8.43637 14.9752 8.0498 14.9752C7.66337 14.9751 7.35063 14.6615 7.35059 14.275C7.35059 13.8885 7.66334 13.575 8.0498 13.5748Z" fill="white"/>
<path fill-rule="evenodd" clip-rule="evenodd" d="M5.26074 0.999645C6.30406 0.999887 7.15017 1.84597 7.15039 2.88929C7.15039 3.9328 6.30419 4.7787 5.26074 4.77894H4V6.74965C4 7.02579 3.77614 7.24965 3.5 7.24965C3.22386 7.24965 3 7.02579 3 6.74965V1.49965C3.00019 1.22366 3.22397 0.999645 3.5 0.999645H5.26074ZM4 3.77894H5.26074C5.75191 3.7787 6.15039 3.38052 6.15039 2.88929C6.15017 2.39826 5.75177 1.99989 5.26074 1.99965H4V3.77894Z" fill="white"/>
<path d="M12.1973 1.20375C12.3252 1.02985 12.5506 0.956927 12.7559 1.02406C12.9611 1.09133 13.0995 1.28363 13.0996 1.49965V6.74965C13.0996 7.02579 12.8758 7.24965 12.5996 7.24965C12.3236 7.24943 12.0996 7.02566 12.0996 6.74965V3.02699L11.0781 4.42054C10.9839 4.54887 10.834 4.62465 10.6748 4.62465C10.5156 4.62458 10.3656 4.54893 10.2715 4.42054L9.25 3.02699V6.74965C9.25 7.02579 9.02614 7.24965 8.75 7.24965C8.47386 7.24965 8.25 7.02579 8.25 6.74965V1.49965C8.25015 1.28358 8.38936 1.09129 8.59473 1.02406C8.79995 0.957103 9.02552 1.02976 9.15332 1.20375L10.6748 3.27797L12.1973 1.20375Z" fill="white"/>
</svg>
