<svg width="16" height="16" viewBox="0 0 16 16" fill="none" xmlns="http://www.w3.org/2000/svg">
<path d="M6.10938 8.50843C6.24958 8.35888 6.46752 8.3102 6.6582 8.38539C6.849 8.46084 6.97461 8.64506 6.97461 8.85023V14.4498C6.97453 14.7259 6.7507 14.9498 6.47461 14.9498C6.19869 14.9496 5.97469 14.7258 5.97461 14.4498V10.1149L5.08984 11.0592C4.90098 11.2604 4.58419 11.2704 4.38281 11.0817C4.18159 10.8929 4.17088 10.5761 4.35938 10.3746L6.10938 8.50843Z" fill="white"/>
<path fill-rule="evenodd" clip-rule="evenodd" d="M10.6748 8.35023C11.3373 8.35023 11.8746 8.88701 11.875 9.54945V13.7496C11.875 14.4124 11.3375 14.9498 10.6748 14.9498H9.27539C8.61265 14.9498 8.0752 14.4124 8.0752 13.7496V9.54945C8.07555 8.88701 8.61287 8.35023 9.27539 8.35023H10.6748ZM9.27539 9.35023C9.16515 9.35023 9.07555 9.43929 9.0752 9.54945V13.7496C9.0752 13.8601 9.16493 13.9498 9.27539 13.9498H10.6748C10.7853 13.9498 10.875 13.8601 10.875 13.7496V9.54945C10.8746 9.43929 10.785 9.35023 10.6748 9.35023H9.27539Z" fill="white"/>
<path fill-rule="evenodd" clip-rule="evenodd" d="M5.26074 0.999645C6.30406 0.999887 7.15017 1.84597 7.15039 2.88929C7.15039 3.9328 6.30419 4.7787 5.26074 4.77894H4V6.74965C4 7.02579 3.77614 7.24965 3.5 7.24965C3.22386 7.24965 3 7.02579 3 6.74965V1.49965C3.00019 1.22366 3.22397 0.999645 3.5 0.999645H5.26074ZM4 3.77894H5.26074C5.75191 3.7787 6.15039 3.38052 6.15039 2.88929C6.15017 2.39826 5.75177 1.99989 5.26074 1.99965H4V3.77894Z" fill="white"/>
<path d="M12.1973 1.20375C12.3252 1.02985 12.5506 0.956927 12.7559 1.02406C12.9611 1.09133 13.0995 1.28363 13.0996 1.49965V6.74965C13.0996 7.02579 12.8758 7.24965 12.5996 7.24965C12.3236 7.24943 12.0996 7.02566 12.0996 6.74965V3.02699L11.0781 4.42054C10.9839 4.54887 10.834 4.62465 10.6748 4.62465C10.5156 4.62458 10.3656 4.54893 10.2715 4.42054L9.25 3.02699V6.74965C9.25 7.02579 9.02614 7.24965 8.75 7.24965C8.47386 7.24965 8.25 7.02579 8.25 6.74965V1.49965C8.25015 1.28358 8.38936 1.09129 8.59473 1.02406C8.79995 0.957103 9.02552 1.02976 9.15332 1.20375L10.6748 3.27797L12.1973 1.20375Z" fill="white"/>
</svg>
