<svg width="16" height="16" viewBox="0 0 16 16" fill="none" xmlns="http://www.w3.org/2000/svg">
<path d="M8.41797 8.47621C8.5651 8.34554 8.77555 8.3136 8.95508 8.39418C9.13448 8.47492 9.25 8.65347 9.25 8.85023V14.4498C9.24992 14.7258 9.02592 14.9496 8.75 14.9498C8.47409 14.9496 8.25008 14.7258 8.25 14.4498V9.96351L6.98242 11.0905C6.77614 11.2738 6.45986 11.2555 6.27637 11.0494C6.09291 10.8431 6.11198 10.5269 6.31836 10.3434L8.41797 8.47621Z" fill="white"/>
<path fill-rule="evenodd" clip-rule="evenodd" d="M5.26074 0.999645C6.30406 0.999887 7.15017 1.84597 7.15039 2.88929C7.15039 3.9328 6.30419 4.7787 5.26074 4.77894H4V6.74965C4 7.02579 3.77614 7.24965 3.5 7.24965C3.22386 7.24965 3 7.02579 3 6.74965V1.49965C3.00019 1.22366 3.22397 0.999645 3.5 0.999645H5.26074ZM4 3.77894H5.26074C5.75191 3.7787 6.15039 3.38052 6.15039 2.88929C6.15017 2.39826 5.75177 1.99989 5.26074 1.99965H4V3.77894Z" fill="white"/>
<path d="M12.1973 1.20375C12.3252 1.02985 12.5506 0.956927 12.7559 1.02406C12.9611 1.09133 13.0995 1.28363 13.0996 1.49965V6.74965C13.0996 7.02579 12.8758 7.24965 12.5996 7.24965C12.3236 7.24943 12.0996 7.02566 12.0996 6.74965V3.02699L11.0781 4.42054C10.9839 4.54887 10.834 4.62465 10.6748 4.62465C10.5156 4.62458 10.3656 4.54893 10.2715 4.42054L9.25 3.02699V6.74965C9.25 7.02579 9.02614 7.24965 8.75 7.24965C8.47386 7.24965 8.25 7.02579 8.25 6.74965V1.49965C8.25015 1.28358 8.38936 1.09129 8.59473 1.02406C8.79995 0.957103 9.02552 1.02976 9.15332 1.20375L10.6748 3.27797L12.1973 1.20375Z" fill="white"/>
</svg>
