<svg width="16" height="16" viewBox="0 0 16 16" fill="none" xmlns="http://www.w3.org/2000/svg">
<path fill-rule="evenodd" clip-rule="evenodd" d="M12 8.25019C14.0711 8.25019 15.75 9.92912 15.75 12.0002C15.7499 14.0712 14.071 15.7502 12 15.7502C9.92899 15.7502 8.2501 14.0712 8.25 12.0002C8.25 9.92912 9.92893 8.25019 12 8.25019ZM11.9072 10.048C11.7706 9.91144 11.5488 9.9116 11.4121 10.048L9.70801 11.7521C9.57141 11.8888 9.57135 12.1106 9.70801 12.2473L11.4121 13.9514C11.5488 14.0877 11.7706 14.0878 11.9072 13.9514C12.0262 13.8319 12.0413 13.6475 11.9521 13.5119L11.9072 13.4562L10.7998 12.3498H14.0459L14.1162 12.343C14.2756 12.3103 14.3954 12.1682 14.3955 11.9992C14.3953 11.8063 14.2388 11.6499 14.0459 11.6496H10.7998L11.9072 10.5422C12.0432 10.4057 12.0431 10.1846 11.9072 10.048Z" fill="white"/>
<path fill-rule="evenodd" clip-rule="evenodd" d="M7.51855 1.13007C7.82557 0.957142 8.20275 0.957118 8.50977 1.13007L14.248 4.36445C14.4547 4.48101 14.5343 4.70762 14.4863 4.90839C14.4893 4.93001 14.4932 4.95239 14.4932 4.9748V8.2541C14.1848 8.04842 13.8498 7.87927 13.4941 7.7541V5.64668L8.51367 8.45332V9.15449C7.94583 9.84942 7.58312 10.7175 7.51367 11.6672V8.45332L5.51562 7.32636V9.22871C5.51539 9.50061 5.29224 9.72174 5.0166 9.72187C4.74097 9.72173 4.51684 9.50061 4.5166 9.22871V6.76386L2.49902 5.62714V11.05L7.51367 13.7863V12.3332C7.58422 13.2963 7.95632 14.1755 8.53809 14.8752C8.17456 15.0482 7.74727 15.0408 7.3916 14.8469L2.01465 11.9123C1.69704 11.7387 1.50017 11.4082 1.5 11.05V4.95332C1.50001 4.89853 1.51157 4.84629 1.52832 4.79707C1.52702 4.62904 1.61045 4.45981 1.7793 4.36445L7.51855 1.13007ZM10.9062 3.61543C10.8693 3.66257 10.8234 3.70497 10.7686 3.7375L6.08203 6.51093L7.87793 7.52363C7.92102 7.51167 7.9667 7.50413 8.01367 7.5041C8.06079 7.50413 8.1062 7.51159 8.14941 7.52363L12.9941 4.79316L10.9062 3.61543ZM3.03516 4.79316L5.11914 5.96699L5.20703 5.88007L9.94629 3.07441L8.01367 1.98554L3.03516 4.79316Z" fill="white"/>
</svg>
