<svg width="16" height="16" viewBox="0 0 16 16" fill="none" xmlns="http://www.w3.org/2000/svg">
<path fill-rule="evenodd" clip-rule="evenodd" d="M10.55 2.43002L8.7 1.37002C8.44 1.22002 8.14 1.21002 7.87 1.32002L7.76 1.37002L2.65 4.29002L5 5.56002L10.55 2.43002ZM5.97 6.09002L8.2 7.30002L13.86 4.32002L11.5 2.97002L5.97 6.09002ZM5 9.39002C4.73 9.39002 4.53 9.18002 4.53 8.92002V6.37002L2 5.00002V10.96C2 11.31 2.19 11.64 2.5 11.81L7.62 14.64C7.66 14.66 7.69 14.68 7.73 14.7V13.43C7.58 12.98 7.5 12.5 7.5 12C7.5 11.49 7.58 11.01 7.73 10.56V8.10002L5.46 6.87002V8.92002C5.46 9.18002 5.26 9.39002 5 9.39002ZM14.43 8.21002C13.73 7.76002 12.89 7.50002 12 7.50002C10.67 7.50002 9.49 8.06002 8.66 8.97002V8.11002L14.43 5.08002V8.21002ZM8.25 12C8.25 9.92002 9.92 8.25002 12 8.25002C14.07 8.25002 15.75 9.92002 15.75 12C15.75 14.07 14.07 15.75 12 15.75C9.92 15.75 8.25 14.07 8.25 12ZM10.79 11.64L11.9 10.54C12.04 10.4 12.04 10.18 11.9 10.04C11.76 9.90002 11.55 9.90002 11.41 10.04L9.7 11.75C9.63 11.82 9.6 11.9 9.6 11.99C9.6 12.04 9.61 12.09 9.63 12.13C9.64 12.17 9.67 12.21 9.7 12.24L11.41 13.95C11.55 14.09 11.76 14.09 11.9 13.95C12.04 13.81 12.04 13.59 11.9 13.45L10.79 12.34H14.04C14.24 12.34 14.39 12.19 14.39 11.99C14.39 11.8 14.24 11.64 14.04 11.64H10.79Z" fill="white"/>
</svg>
