<svg width="16" height="16" viewBox="0 0 16 16" fill="none" xmlns="http://www.w3.org/2000/svg">
<path fill-rule="evenodd" clip-rule="evenodd" d="M7.95162 7.84991C9.59466 7.84991 10.9266 6.51797 10.9266 4.87494C10.9266 3.2319 9.59466 1.89996 7.95162 1.89996C6.30857 1.89996 4.97662 3.2319 4.97662 4.87494C4.97662 6.51797 6.30857 7.84991 7.95162 7.84991ZM13.9001 12.1842C13.9126 11.7801 13.736 11.3906 13.4152 11.1445C11.8566 9.94861 9.97556 9.24994 7.95029 9.24994C5.92547 9.24994 4.04486 9.94829 2.48645 11.1437C2.16559 11.3898 1.9889 11.7793 2.00135 12.1835C2.01557 12.6452 2.05804 12.9454 2.18493 13.1945C2.35271 13.5237 2.62043 13.7914 2.94971 13.9592C3.32406 14.15 3.8141 14.15 4.79419 14.15H11.1073C12.0874 14.15 12.5775 14.15 12.9518 13.9592C13.2811 13.7914 13.5488 13.5237 13.7166 13.1945C13.8434 12.9455 13.8859 12.6455 13.9001 12.1842Z" fill="white"/>
</svg>
