<svg width="16" height="16" viewBox="0 0 16 16" fill="none" xmlns="http://www.w3.org/2000/svg">
<path fill-rule="evenodd" clip-rule="evenodd" d="M2.00171 8.00001C2.00171 4.68729 4.6872 2.0018 7.99992 2.0018C11.3126 2.0018 13.9981 4.68729 13.9981 8.00001C13.9981 9.50531 13.4441 10.8806 12.528 11.934C11.5403 10.822 9.85095 10.1344 7.99992 10.1344C6.14889 10.1344 4.45957 10.822 3.47188 11.934C2.55571 10.8806 2.00171 9.50531 2.00171 8.00001ZM7.99992 11.1344C9.66585 11.1344 11.0604 11.7655 11.8101 12.6328C10.7738 13.4863 9.44707 13.9982 7.99992 13.9982C6.55277 13.9982 5.22605 13.4863 4.18972 12.6328C4.93948 11.7655 6.33399 11.1344 7.99992 11.1344ZM7.99992 1.0018C4.13491 1.0018 1.00171 4.135 1.00171 8.00001C1.00171 9.9924 1.83497 11.791 3.17063 13.0649C4.42607 14.2623 6.12758 14.9982 7.99992 14.9982C9.87225 14.9982 11.5738 14.2623 12.8292 13.0649C14.1649 11.791 14.9981 9.9924 14.9981 8.00001C14.9981 4.135 11.8649 1.0018 7.99992 1.0018ZM6.39233 6.5946C6.39233 5.70679 7.11205 4.98707 7.99986 4.98707C8.88767 4.98707 9.60739 5.70679 9.60739 6.5946C9.60739 7.48241 8.88767 8.20213 7.99986 8.20213C7.11205 8.20213 6.39233 7.48241 6.39233 6.5946ZM7.99986 3.98707C6.55976 3.98707 5.39233 5.1545 5.39233 6.5946C5.39233 8.0347 6.55976 9.20213 7.99986 9.20213C9.43996 9.20213 10.6074 8.0347 10.6074 6.5946C10.6074 5.1545 9.43996 3.98707 7.99986 3.98707Z" fill="white"/>
</svg>
