<svg width="16" height="16" viewBox="0 0 16 16" fill="none" xmlns="http://www.w3.org/2000/svg">
<path fill-rule="evenodd" clip-rule="evenodd" d="M7.99795 2.25C6.64089 2.25 5.52353 3.37553 5.52353 4.78542C5.52353 6.19532 6.64089 7.32085 7.99795 7.32085C9.35502 7.32085 10.4724 6.19532 10.4724 4.78542C10.4724 3.37553 9.35502 2.25 7.99795 2.25ZM4.52353 4.78542C4.52353 2.84248 6.06956 1.25 7.99795 1.25C9.92635 1.25 11.4724 2.84248 11.4724 4.78542C11.4724 6.72837 9.92635 8.32085 7.99795 8.32085C6.06956 8.32085 4.52353 6.72837 4.52353 4.78542ZM7.99974 10.4647C6.17475 10.4647 4.47814 11.0224 3.06276 11.9809C2.84634 12.1274 2.73045 12.3722 2.75346 12.6104C2.77556 12.8392 2.81322 12.9702 2.86294 13.0678C2.98278 13.303 3.17401 13.4942 3.40921 13.614C3.51415 13.6675 3.65712 13.7068 3.91802 13.7281C4.18475 13.7499 4.5284 13.7503 5.0267 13.7503H10.9744C11.4727 13.7503 11.8164 13.7499 12.0831 13.7281C12.344 13.7068 12.487 13.6675 12.5919 13.614C12.8271 13.4942 13.0183 13.303 13.1382 13.0678C13.1878 12.9703 13.2255 12.8395 13.2476 12.6114C13.2706 12.3734 13.1549 12.1287 12.9385 11.9821C11.5227 11.0228 9.82548 10.4647 7.99974 10.4647ZM2.50204 11.1529C4.07667 10.0865 5.96742 9.46473 7.99974 9.46473C10.0329 9.46473 11.9244 10.0871 13.4994 11.1542C14.0002 11.4935 14.3034 12.0836 14.2429 12.7079C14.2143 13.0035 14.157 13.271 14.0292 13.5218C13.8135 13.9451 13.4693 14.2893 13.0459 14.5051C12.7765 14.6423 12.4873 14.6984 12.1645 14.7248C11.8523 14.7503 11.4677 14.7503 10.9955 14.7503H5.00561C4.53347 14.7503 4.14885 14.7503 3.83659 14.7248C3.51385 14.6984 3.22463 14.6423 2.95522 14.5051C2.53186 14.2893 2.18765 13.9451 1.97193 13.5218C1.84396 13.2706 1.7867 13.0027 1.75809 12.7066C1.69778 12.0823 2.00101 11.4922 2.50204 11.1529Z" fill="white"/>
</svg>
