<svg width="16" height="16" viewBox="0 0 16 16" fill="none" xmlns="http://www.w3.org/2000/svg">
<path fill-rule="evenodd" clip-rule="evenodd" d="M5.52502 4.78542C5.52502 3.37587 6.64299 2.25 8.00157 2.25C9.36015 2.25 10.4781 3.37587 10.4781 4.78542C10.4781 6.19498 9.36015 7.32085 8.00157 7.32085C6.64299 7.32085 5.52502 6.19498 5.52502 4.78542ZM8.00157 1.25C6.07234 1.25 4.52502 2.84214 4.52502 4.78542C4.52502 6.72871 6.07234 8.32085 8.00157 8.32085C9.9308 8.32085 11.4781 6.72871 11.4781 4.78542C11.4781 2.84214 9.9308 1.25 8.00157 1.25ZM7.76761 10.4678C6.03087 10.5136 4.41782 11.0638 3.06249 11.981C2.84591 12.1275 2.72994 12.3724 2.75297 12.6107C2.77508 12.8393 2.81273 12.9702 2.86243 13.0678C2.98227 13.303 3.1735 13.4942 3.4087 13.614C3.51364 13.6675 3.65661 13.7068 3.91751 13.7281C4.18424 13.7499 4.52789 13.7503 5.02619 13.7503H7.85312C8.00508 14.1099 8.20245 14.4456 8.43804 14.7503H5.0051C4.53296 14.7503 4.14834 14.7503 3.83608 14.7248C3.51334 14.6984 3.22412 14.6423 2.95471 14.5051C2.53135 14.2893 2.18714 13.9451 1.97143 13.5218C1.8435 13.2707 1.78623 13.0029 1.75761 12.7069C1.69722 12.0823 2.00073 11.492 2.50205 11.1528C4.07774 10.0865 5.96973 9.46473 8.00336 9.46473C8.09556 9.46473 8.18747 9.46601 8.27907 9.46854C8.06922 9.77641 7.89658 10.1117 7.76761 10.4678Z" fill="white"/>
<path fill-rule="evenodd" clip-rule="evenodd" d="M12 15.75C14.0711 15.75 15.75 14.0711 15.75 12C15.75 9.92893 14.0711 8.25 12 8.25C9.92898 8.25 8.25004 9.92893 8.25004 12C8.25004 14.0711 9.92898 15.75 12 15.75ZM10.8008 10.3062C10.6641 10.1695 10.4425 10.1695 10.3058 10.3062C10.1692 10.4428 10.1692 10.6644 10.3058 10.8011L11.5047 12L10.3058 13.1989C10.1692 13.3356 10.1692 13.5572 10.3058 13.6938C10.4425 13.8305 10.6641 13.8305 10.8008 13.6938L11.9997 12.495L13.1986 13.6938C13.3352 13.8305 13.5568 13.8305 13.6935 13.6938C13.8302 13.5572 13.8302 13.3356 13.6935 13.1989L12.4947 12L13.6935 10.8011C13.8302 10.6644 13.8302 10.4428 13.6935 10.3062C13.5568 10.1695 13.3352 10.1695 13.1986 10.3062L11.9997 11.505L10.8008 10.3062Z" fill="white"/>
</svg>
