<svg width="16" height="16" viewBox="0 0 16 16" fill="none" xmlns="http://www.w3.org/2000/svg">
<path d="M6.33301 11.4639C6.66635 11.6188 6.98174 11.812 7.27441 12.0391C7.6546 12.3341 7.82597 12.785 7.82617 13.2109C7.82596 14.0875 7.11476 14.7984 6.23828 14.7988H2.9209L3.99707 13.748H6.23828C6.53486 13.7476 6.77518 13.5076 6.77539 13.2109C6.77519 13.0522 6.7127 12.9317 6.63086 12.8682C6.28808 12.6022 5.91212 12.3983 5.51367 12.2646L6.33301 11.4639Z" fill="white"/>
<path fill-rule="evenodd" clip-rule="evenodd" d="M11.5 1C12.2229 1.00015 12.8509 1.40449 13.1719 1.99902L13.5254 1.64648C13.7207 1.45122 14.0381 1.45122 14.2334 1.64648C14.4283 1.84169 14.4284 2.15832 14.2334 2.35352L13.3701 3.21582C13.2366 4.01155 12.6112 4.63712 11.8154 4.77051L2.35352 14.2324C2.23686 14.3491 2.07731 14.3948 1.92578 14.3721L1.74219 14.5527C1.29675 14.2712 1 13.7757 1 13.21C1.0002 12.7837 1.17206 12.3332 1.55273 12.0381C2.2916 11.4655 3.17284 11.1036 4.12793 11.043L4.84766 10.3232C4.6816 10.3715 4.50682 10.3994 4.3252 10.3994C3.2762 10.3993 2.42523 9.54892 2.4248 8.5C2.425 7.45089 3.27607 6.59971 4.3252 6.59961C5.37423 6.59982 6.22441 7.45096 6.22461 8.5C6.22454 8.68204 6.19553 8.85701 6.14746 9.02344L7.58789 7.58301C7.14473 7.52741 6.74933 7.32028 6.45508 7.01367C6.38719 6.91655 6.31457 6.82313 6.23438 6.73633C6.03958 6.4382 5.92495 6.08278 5.9248 5.7002C5.92487 4.65098 6.77598 3.79991 7.8252 3.7998C8.79388 3.8 9.59111 4.52577 9.70801 5.46289L10.5986 4.57227C10.0042 4.25122 9.59991 3.62306 9.59961 2.90039C9.59961 1.85118 10.4508 1.00021 11.5 1ZM2.54297 12.6279C2.42406 12.7013 2.30751 12.7802 2.19531 12.8672C2.1313 12.9168 2.0794 13.0011 2.05957 13.1113L2.54297 12.6279ZM4.3252 7.59961C3.82835 7.59971 3.425 8.00318 3.4248 8.5C3.42523 8.99663 3.82849 9.39931 4.3252 9.39941C4.82181 9.3992 5.22419 8.99657 5.22461 8.5C5.22441 8.00324 4.82195 7.59982 4.3252 7.59961ZM7.8252 4.7998C7.32827 4.79991 6.92487 5.20326 6.9248 5.7002C6.9252 6.19685 7.32847 6.5995 7.8252 6.59961C8.32183 6.5994 8.72421 6.19678 8.72461 5.7002C8.72454 5.20333 8.32203 4.80002 7.8252 4.7998ZM11.5 2C11.0031 2.00021 10.5996 2.40346 10.5996 2.90039C10.6 3.35648 10.9406 3.73148 11.3809 3.79004L12.3896 2.78125C12.3313 2.3407 11.9564 2.00019 11.5 2Z" fill="white"/>
<path d="M9.38379 8.4834C9.88498 8.65633 10.3532 8.91245 10.7744 9.23926C11.1547 9.53437 11.326 9.98511 11.3262 10.4111C11.326 11.2877 10.6148 11.9986 9.73828 11.999H8.17285C8.051 11.811 7.89601 11.636 7.70312 11.4863C7.44102 11.283 7.1616 11.1029 6.86816 10.9482H9.73828C10.0349 10.9478 10.2752 10.7078 10.2754 10.4111C10.2752 10.2523 10.2127 10.1319 10.1309 10.0684C9.64666 9.69268 9.09673 9.44018 8.50977 9.33691L9.38379 8.4834Z" fill="white"/>
<path d="M12.4238 5.5127C13.1675 5.65367 13.8546 5.97808 14.4492 6.43945C14.8295 6.73461 15.0009 7.18526 15.001 7.61133C15.0008 8.48786 14.2896 9.1988 13.4131 9.19922H11.6729C11.551 9.01113 11.3961 8.83626 11.2031 8.68652C10.941 8.48315 10.6616 8.30312 10.3682 8.14844H13.4131C13.7097 8.14802 13.95 7.90796 13.9502 7.61133C13.9501 7.45238 13.8876 7.33214 13.8057 7.26855C13.2411 6.83056 12.5875 6.55837 11.8896 6.49707L11.5879 6.48438C11.5336 6.48438 11.4796 6.48574 11.4258 6.48828L12.4238 5.5127Z" fill="white"/>
</svg>
