<svg width="16" height="16" viewBox="0 0 16 16" fill="none" xmlns="http://www.w3.org/2000/svg">
<path d="M4.41309 11.0586C4.48574 11.0586 4.55801 11.061 4.62988 11.0645C4.63216 11.0646 4.63445 11.0643 4.63672 11.0645C4.99132 11.0821 5.33575 11.1421 5.66699 11.2383C5.67124 11.2395 5.67544 11.2409 5.67969 11.2422C5.78463 11.273 5.88811 11.3076 5.99023 11.3457C6.00037 11.3495 6.0104 11.3536 6.02051 11.3574C6.47015 11.5287 6.89174 11.7675 7.27441 12.0645C7.6546 12.3595 7.82597 12.8104 7.82617 13.2363C7.82596 14.1129 7.11476 14.8238 6.23828 14.8242H2.58887C1.71158 14.8242 1 14.1126 1 13.2354C1.0002 12.8091 1.17206 12.3586 1.55273 12.0635C2.36461 11.4343 3.34832 11.0586 4.41309 11.0586ZM7.91309 8.25879C8.04692 8.25881 8.17947 8.26474 8.31055 8.27637C8.31477 8.27674 8.31902 8.27696 8.32324 8.27734C8.42377 8.28655 8.52336 8.29964 8.62207 8.31543C8.63116 8.31689 8.64034 8.31782 8.64941 8.31934C8.75007 8.33607 8.84966 8.35653 8.94824 8.37988C8.96031 8.38275 8.97234 8.38571 8.98438 8.38867C9.07951 8.41204 9.17359 8.43846 9.2666 8.46777C9.27907 8.47172 9.29129 8.47642 9.30371 8.48047C9.83537 8.65308 10.3308 8.9204 10.7744 9.26465C11.1547 9.55976 11.326 10.0105 11.3262 10.4365C11.326 11.3131 10.6148 12.024 9.73828 12.0244H8.17285C8.051 11.8364 7.89601 11.6614 7.70312 11.5117C7.17759 11.104 6.58417 10.7864 5.94238 10.5889C6.55443 10.1083 6.94986 9.36356 6.9502 8.52539C6.95019 8.47122 6.94563 8.41761 6.94238 8.36426C7.25621 8.29483 7.58081 8.25879 7.91309 8.25879ZM4.3252 6.59961C5.38804 6.59982 6.2498 7.46254 6.25 8.52539C6.2498 9.02454 6.05791 9.47824 5.74609 9.82031C5.73678 9.83054 5.7273 9.84057 5.71777 9.85059C5.68917 9.88065 5.65939 9.90933 5.62891 9.9375C5.61349 9.95175 5.5979 9.96574 5.58203 9.97949C5.5549 10.003 5.52745 10.0259 5.49902 10.0479C5.48207 10.061 5.46466 10.0734 5.44727 10.0859C5.41378 10.1101 5.37978 10.1333 5.34473 10.1553C5.33087 10.164 5.31683 10.1723 5.30273 10.1807C5.26689 10.2019 5.23065 10.2223 5.19336 10.2412C5.17804 10.249 5.16204 10.2553 5.14648 10.2627C5.10885 10.2805 5.07115 10.2981 5.03223 10.3135C5.01605 10.3199 4.99979 10.3261 4.9834 10.332C4.94258 10.3469 4.90143 10.3609 4.85938 10.373C4.84452 10.3773 4.82945 10.3808 4.81445 10.3848C4.7713 10.3961 4.72788 10.4067 4.68359 10.415C4.6713 10.4174 4.65886 10.4188 4.64648 10.4209C4.54185 10.4385 4.43483 10.4502 4.3252 10.4502C3.2624 10.4501 2.39984 9.58811 2.39941 8.52539C2.39961 7.46248 3.26226 6.59972 4.3252 6.59961ZM11.5879 5.45898C12.6533 5.45913 13.6374 5.83491 14.4492 6.46484C14.8295 6.76 15.0009 7.21065 15.001 7.63672C15.0008 8.51325 14.2896 9.22419 13.4131 9.22461H11.6729C11.551 9.03652 11.3961 8.86166 11.2031 8.71191C10.6776 8.30412 10.0842 7.98657 9.44238 7.78906C10.0545 7.30851 10.4499 6.56384 10.4502 5.72559C10.4502 5.68561 10.4461 5.64599 10.4443 5.60645C10.8113 5.50987 11.1941 5.459 11.5879 5.45898ZM7.8252 3.7998C8.88812 3.80002 9.74993 4.66262 9.75 5.72559C9.74986 6.09797 9.64223 6.44462 9.45898 6.73926C9.45522 6.74533 9.45208 6.75179 9.44824 6.75781C9.36592 6.88696 9.26802 7.00459 9.1582 7.11035C9.14724 7.12091 9.13524 7.13033 9.12402 7.14062C8.94103 7.30871 8.72688 7.44171 8.48926 7.5293C8.48665 7.53026 8.48406 7.53128 8.48145 7.53223C8.43368 7.5496 8.38538 7.56549 8.33594 7.5791C8.33365 7.57973 8.33139 7.58043 8.3291 7.58105C8.16829 7.62467 7.99978 7.65036 7.8252 7.65039C7.35424 7.65034 6.92261 7.48118 6.58789 7.2002C6.45827 6.97934 6.2995 6.778 6.11328 6.60449C5.97746 6.34088 5.89953 6.0424 5.89941 5.72559C5.89948 4.66256 6.76218 3.79991 7.8252 3.7998ZM11.5 1C12.563 1.00021 13.4248 1.86276 13.4248 2.92578C13.4244 3.98843 12.5627 4.85037 11.5 4.85059C10.4373 4.85037 9.57465 3.98843 9.57422 2.92578C9.57422 1.86276 10.437 1.00021 11.5 1Z" fill="white"/>
</svg>
