<svg width="16" height="16" viewBox="0 0 16 16" fill="none" xmlns="http://www.w3.org/2000/svg">
<path d="M6.31543 11.4814C6.65522 11.6377 6.97663 11.8334 7.27441 12.0645C7.6546 12.3595 7.82597 12.8104 7.82617 13.2363C7.82596 14.1129 7.11476 14.8238 6.23828 14.8242H2.89551L6.31543 11.4814Z" fill="white"/>
<path d="M11.5 1C12.2233 1.00014 12.8528 1.40002 13.1816 1.99023L13.5254 1.64648C13.7207 1.45122 14.0381 1.45122 14.2334 1.64648C14.4283 1.84169 14.4284 2.15832 14.2334 2.35352L13.4053 3.18066C13.2911 4.03955 12.6129 4.71745 11.7539 4.83105L2.35352 14.2324C2.23686 14.3491 2.07731 14.3948 1.92578 14.3721L1.72559 14.5684C1.28919 14.2851 1 13.7942 1 13.2354C1.0002 12.8091 1.17206 12.3586 1.55273 12.0635C2.28454 11.4963 3.15603 11.136 4.10059 11.0703L4.77832 10.3926C4.74693 10.4004 4.71566 10.409 4.68359 10.415C4.6713 10.4174 4.65886 10.4188 4.64648 10.4209C4.54185 10.4385 4.43483 10.4502 4.3252 10.4502C3.2624 10.4501 2.39984 9.58811 2.39941 8.52539C2.39961 7.46248 3.26226 6.59972 4.3252 6.59961C5.38804 6.59982 6.2498 7.46254 6.25 8.52539C6.24994 8.68142 6.22869 8.83241 6.19336 8.97754L7.54395 7.62695C7.1833 7.57405 6.85461 7.4241 6.58789 7.2002C6.45827 6.97934 6.2995 6.778 6.11328 6.60449C5.97746 6.34088 5.89953 6.0424 5.89941 5.72559C5.89948 4.66256 6.76218 3.79991 7.8252 3.7998C8.79245 3.8 9.5902 4.51476 9.72656 5.44434L10.5645 4.60645C9.97457 4.27742 9.57452 3.64869 9.57422 2.92578C9.57422 1.86276 10.437 1.00021 11.5 1Z" fill="white"/>
<path d="M9.36523 8.50195C9.87349 8.67491 10.348 8.93378 10.7744 9.26465C11.1547 9.55976 11.326 10.0105 11.3262 10.4365C11.326 11.3131 10.6148 12.024 9.73828 12.0244H8.17285C8.051 11.8364 7.89601 11.6614 7.70312 11.5117C7.4346 11.3034 7.14804 11.1192 6.84668 10.9619L9.36523 8.50195Z" fill="white"/>
<path d="M12.4023 5.5332C13.1543 5.67193 13.8488 5.999 14.4492 6.46484C14.8295 6.76 15.0009 7.21065 15.001 7.63672C15.0008 8.51325 14.2896 9.22419 13.4131 9.22461H11.6729C11.551 9.03652 11.3961 8.86166 11.2031 8.71191C10.8102 8.40707 10.3795 8.15247 9.91895 7.96094L12.4023 5.5332Z" fill="white"/>
</svg>
