<svg width="16" height="16" viewBox="0 0 16 16" fill="none" xmlns="http://www.w3.org/2000/svg">
<path d="M4.41309 11.0332C4.48574 11.0332 4.55801 11.0356 4.62988 11.0391C4.63216 11.0392 4.63445 11.0389 4.63672 11.0391C4.99132 11.0567 5.33575 11.1167 5.66699 11.2129C5.67124 11.2141 5.67544 11.2155 5.67969 11.2168C5.78463 11.2476 5.88811 11.2822 5.99023 11.3203C6.00037 11.3241 6.0104 11.3282 6.02051 11.332C6.47015 11.5033 6.89174 11.7422 7.27441 12.0391C7.6546 12.3341 7.82597 12.785 7.82617 13.2109C7.82596 14.0875 7.11476 14.7984 6.23828 14.7988H2.58887C1.71158 14.7988 1 14.0873 1 13.21C1.0002 12.7837 1.17206 12.3332 1.55273 12.0381C2.36461 11.4089 3.34832 11.0332 4.41309 11.0332ZM4.41309 12.084C3.60217 12.084 2.84039 12.3673 2.19531 12.8672C2.11336 12.9307 2.05098 13.051 2.05078 13.21C2.05078 13.5074 2.29148 13.748 2.58887 13.748H6.23828C6.53486 13.7476 6.77518 13.5076 6.77539 13.2109C6.77519 13.0522 6.7127 12.9317 6.63086 12.8682C6.06634 12.4302 5.41263 12.158 4.71484 12.0967L4.41309 12.084ZM7.91309 8.2334C8.04692 8.23342 8.17947 8.23935 8.31055 8.25098C8.31477 8.25135 8.31902 8.25157 8.32324 8.25195C8.42377 8.26116 8.52336 8.27425 8.62207 8.29004C8.63116 8.2915 8.64034 8.29243 8.64941 8.29395C8.75007 8.31068 8.84966 8.33114 8.94824 8.35449C8.96031 8.35736 8.97234 8.36032 8.98438 8.36328C9.07951 8.38664 9.17359 8.41306 9.2666 8.44238C9.27907 8.44633 9.29129 8.45103 9.30371 8.45508C9.83537 8.62769 10.3308 8.89501 10.7744 9.23926C11.1547 9.53437 11.326 9.98511 11.3262 10.4111C11.326 11.2877 10.6148 11.9986 9.73828 11.999H8.17285C8.051 11.811 7.89601 11.636 7.70312 11.4863C7.44102 11.283 7.1616 11.1029 6.86816 10.9482H9.73828C10.0349 10.9478 10.2752 10.7078 10.2754 10.4111C10.2752 10.2523 10.2127 10.1319 10.1309 10.0684C9.56631 9.63034 8.9127 9.35817 8.21484 9.29688L7.91309 9.28418C7.50122 9.28418 7.10222 9.35773 6.72461 9.49512C6.85254 9.18877 6.92466 8.85288 6.9248 8.5C6.9248 8.44781 6.92003 8.39616 6.91699 8.34473C7.23871 8.2716 7.57183 8.2334 7.91309 8.2334ZM4.3252 6.59961C5.37423 6.59982 6.22441 7.45096 6.22461 8.5C6.22436 9.11958 5.92587 9.66793 5.4668 10.0146C5.4577 10.0215 5.44867 10.0284 5.43945 10.0352C5.39957 10.0642 5.35854 10.0913 5.31641 10.1172C5.31279 10.1194 5.3093 10.1218 5.30566 10.124C5.26243 10.1502 5.21825 10.1745 5.17285 10.1973C5.16387 10.2018 5.15458 10.2056 5.14551 10.21C5.10287 10.2305 5.05995 10.2502 5.01562 10.2676C5.0069 10.271 4.99805 10.2741 4.98926 10.2773C4.78229 10.3548 4.55918 10.3994 4.3252 10.3994C3.2762 10.3993 2.42523 9.54892 2.4248 8.5C2.425 7.45089 3.27607 6.59971 4.3252 6.59961ZM4.3252 7.59961C3.82835 7.59971 3.425 8.00318 3.4248 8.5C3.42523 8.99663 3.82849 9.39931 4.3252 9.39941C4.82181 9.3992 5.22419 8.99657 5.22461 8.5C5.22441 8.00324 4.82195 7.59982 4.3252 7.59961ZM11.5879 5.43359C12.6533 5.43374 13.6374 5.80952 14.4492 6.43945C14.8295 6.73461 15.0009 7.18526 15.001 7.61133C15.0008 8.48786 14.2896 9.1988 13.4131 9.19922H11.6729C11.551 9.01113 11.3961 8.83626 11.2031 8.68652C10.941 8.48315 10.6616 8.30312 10.3682 8.14844H13.4131C13.7097 8.14802 13.95 7.90796 13.9502 7.61133C13.9501 7.45238 13.8876 7.33214 13.8057 7.26855C13.2411 6.83056 12.5875 6.55837 11.8896 6.49707L11.5879 6.48438C11.0976 6.4844 10.6259 6.58892 10.1865 6.78125C10.3383 6.45217 10.4247 6.08654 10.4248 5.7002C10.4248 5.66252 10.4205 5.62518 10.4189 5.58789C10.7937 5.48695 11.185 5.43361 11.5879 5.43359ZM7.8252 3.7998C8.87432 3.80002 9.72454 4.65104 9.72461 5.7002C9.72443 6.18505 9.54024 6.6253 9.24121 6.96094C9.23828 6.96423 9.23635 6.96841 9.2334 6.97168C9.10833 7.11012 8.96339 7.22935 8.80273 7.32617C8.78749 7.33536 8.77236 7.34475 8.75684 7.35352C8.72111 7.3737 8.68457 7.39227 8.64746 7.41016C8.63749 7.41496 8.62726 7.41919 8.61719 7.42383C8.57692 7.44237 8.53586 7.45886 8.49414 7.47461C8.48373 7.47854 8.47339 7.48258 8.46289 7.48633C8.42206 7.50091 8.38093 7.51455 8.33887 7.52637C8.32914 7.5291 8.31936 7.5316 8.30957 7.53418C8.15472 7.575 7.99287 7.59958 7.8252 7.59961C7.28635 7.59956 6.80098 7.3741 6.45508 7.01367C6.38719 6.91655 6.31457 6.82313 6.23438 6.73633C6.03958 6.4382 5.92495 6.08278 5.9248 5.7002C5.92487 4.65098 6.77598 3.79991 7.8252 3.7998ZM7.8252 4.7998C7.32827 4.79991 6.92487 5.20326 6.9248 5.7002C6.9252 6.19685 7.32847 6.5995 7.8252 6.59961C8.32183 6.5994 8.72421 6.19678 8.72461 5.7002C8.72454 5.20333 8.32203 4.80002 7.8252 4.7998ZM11.5 1C12.5492 1.00021 13.3994 1.85118 13.3994 2.90039C13.399 3.94923 12.5489 4.79959 11.5 4.7998C10.4511 4.79959 9.60004 3.94923 9.59961 2.90039C9.59961 1.85118 10.4508 1.00021 11.5 1ZM11.5 2C11.0031 2.00021 10.5996 2.40346 10.5996 2.90039C10.6 3.39695 11.0034 3.79959 11.5 3.7998C11.9966 3.79959 12.399 3.39695 12.3994 2.90039C12.3994 2.40346 11.9969 2.00021 11.5 2Z" fill="white"/>
</svg>
