<svg width="16" height="16" viewBox="0 0 16 16" fill="none" xmlns="http://www.w3.org/2000/svg">
<path fill-rule="evenodd" clip-rule="evenodd" d="M4.49981 1.69999C4.49981 1.3134 4.1864 1 3.79981 1C3.41321 1 3.09981 1.3134 3.09981 1.69999V3.81008C2.78863 3.83747 2.50637 3.89431 2.24217 4.0278C1.8141 4.24409 1.46607 4.58921 1.24796 5.0137C1.1086 5.28493 1.05208 5.57537 1.02559 5.89694C0.99999 6.20761 0.999994 6.58988 1 7.0573V10.2246C0.999994 10.692 0.99999 11.0743 1.02559 11.385C1.05208 11.7065 1.1086 11.997 1.24796 12.2682C1.46607 12.6927 1.8141 13.0378 2.24217 13.2541C2.51569 13.3923 2.80857 13.4484 3.13285 13.4746C3.44615 13.5 3.83164 13.5 4.30301 13.5H11.697C12.1684 13.5 12.5539 13.5 12.8671 13.4746C13.1914 13.4484 13.4843 13.3923 13.7578 13.2541C14.1859 13.0378 14.5339 12.6927 14.752 12.2682C14.8914 11.997 14.9479 11.7065 14.9744 11.385C15 11.0743 15 10.692 15 10.2246V7.05731C15 6.58989 15 6.20761 14.9744 5.89694C14.9479 5.57537 14.8914 5.28493 14.752 5.0137C14.5339 4.58921 14.1859 4.24409 13.7578 4.0278C13.4843 3.8896 13.1914 3.83356 12.8671 3.80729C12.5539 3.7819 12.1684 3.78191 11.697 3.78191H4.49981V1.69999ZM4.49961 10.7234C4.49961 11.107 4.18621 11.4179 3.79961 11.4179C3.41301 11.4179 3.09961 11.107 3.09961 10.7234C3.09961 10.3399 3.41301 10.029 3.79961 10.029C4.18621 10.029 4.49961 10.3399 4.49961 10.7234ZM10.0998 11.4171C11.6462 11.4171 12.8998 10.174 12.8998 8.64049C12.8998 7.10702 11.6462 5.86389 10.0998 5.86389C8.55341 5.86389 7.2998 7.10702 7.2998 8.64049C7.2998 10.174 8.55341 11.4171 10.0998 11.4171ZM11.5002 8.64126C11.5002 9.40799 10.8734 10.0296 10.1002 10.0296C9.327 10.0296 8.7002 9.40799 8.7002 8.64126C8.7002 7.87452 9.327 7.25296 10.1002 7.25296C10.8734 7.25296 11.5002 7.87452 11.5002 8.64126Z" fill="white"/>
</svg>
