<svg width="16" height="16" viewBox="0 0 16 16" fill="none" xmlns="http://www.w3.org/2000/svg">
<path fill-rule="evenodd" clip-rule="evenodd" d="M7.99821 2C4.68549 2 2 4.68549 2 7.99821C2 11.3109 4.68549 13.9964 7.99821 13.9964C11.3109 13.9964 13.9964 11.3109 13.9964 7.99821C13.9964 4.68549 11.3109 2 7.99821 2ZM1 7.99821C1 4.1332 4.1332 1 7.99821 1C11.8632 1 14.9964 4.1332 14.9964 7.99821C14.9964 11.8632 11.8632 14.9964 7.99821 14.9964C4.1332 14.9964 1 11.8632 1 7.99821Z" fill="white"/>
<path fill-rule="evenodd" clip-rule="evenodd" d="M6.1 5C6.1 4.72386 6.32386 4.5 6.6 4.5H8.175C9.32099 4.5 10.25 5.42901 10.25 6.575C10.25 7.44832 9.71048 8.19563 8.94657 8.50181L10.1858 10.7049C10.3212 10.9455 10.2358 11.2504 9.99513 11.3858C9.75445 11.5212 9.44959 11.4358 9.31421 11.1951L7.88258 8.65H7.1V10.95C7.1 11.2261 6.87614 11.45 6.6 11.45C6.32386 11.45 6.1 11.2261 6.1 10.95V5ZM8.16514 7.65H7.1H8.16514ZM8.18248 7.64997C8.77274 7.64595 9.25 7.16621 9.25 6.575C9.25 5.98129 8.76871 5.5 8.175 5.5H7.1V7.65" fill="white"/>
</svg>
