<svg width="16" height="16" viewBox="0 0 16 16" fill="none" xmlns="http://www.w3.org/2000/svg">
<path fill-rule="evenodd" clip-rule="evenodd" d="M8 2C4.68629 2 2 4.68629 2 8C2 8.27614 1.77614 8.5 1.5 8.5C1.22386 8.5 1 8.27614 1 8C1 4.13401 4.13401 1 8 1C10.547 1 12.7755 2.36027 14 4.39263V2.94444C14 2.6683 14.2239 2.44444 14.5 2.44444C14.7761 2.44444 15 2.6683 15 2.94444V5.47222C15 5.74836 14.7761 5.97222 14.5 5.97222H14.0017C13.9942 5.9724 13.9866 5.97239 13.9791 5.97222H11.9722C11.6961 5.97222 11.4722 5.74836 11.4722 5.47222C11.4722 5.19608 11.6961 4.97222 11.9722 4.97222H13.1813C12.1396 3.19354 10.2087 2 8 2ZM14.5 7.5C14.7761 7.5 15 7.72386 15 8C15 11.866 11.866 15 8 15C5.45295 15 3.22451 13.6397 2 11.6074L2 13.0556C2 13.3317 1.77614 13.5556 1.5 13.5556C1.22386 13.5556 1 13.3317 1 13.0556L1 10.5278C1 10.2516 1.22386 10.0278 1.5 10.0278H1.99828C2.00584 10.0276 2.0134 10.0276 2.02093 10.0278H4.02778C4.30392 10.0278 4.52778 10.2516 4.52778 10.5278C4.52778 10.8039 4.30392 11.0278 4.02778 11.0278H2.81873C3.86043 12.8065 5.79129 14 8 14C11.3137 14 14 11.3137 14 8C14 7.72386 14.2239 7.5 14.5 7.5Z" fill="white"/>
</svg>
