<svg width="16" height="16" viewBox="0 0 16 16" fill="none" xmlns="http://www.w3.org/2000/svg">
<path fill-rule="evenodd" clip-rule="evenodd" d="M5.34681 1.85461C5.54283 1.6601 5.54405 1.34352 5.34954 1.14751C5.15504 0.951495 4.83846 0.950272 4.64244 1.14478C4.20124 1.58259 3.85105 2.10256 3.61205 2.6751C3.37306 3.24764 3.25 3.86143 3.25 4.48138C3.25 5.10133 3.37306 5.71512 3.61205 6.28766C3.85104 6.8602 4.20123 7.38017 4.64244 7.81798C4.83846 8.01249 5.15504 8.01126 5.34954 7.81525C5.54405 7.61924 5.54283 7.30266 5.34681 7.10815C4.99883 6.76284 4.723 6.35311 4.53488 5.90245C4.34677 5.4518 4.25 4.96893 4.25 4.48138C4.25 3.99383 4.34677 3.51096 4.53488 3.06031C4.723 2.60965 4.99883 2.19992 5.34681 1.85461ZM10.6493 1.14751C10.8438 0.951496 11.1604 0.950274 11.3564 1.14478C11.7976 1.58259 12.1478 2.10256 12.3868 2.6751C12.6258 3.24764 12.7488 3.86143 12.7488 4.48138C12.7488 5.10133 12.6258 5.71512 12.3868 6.28766C12.1478 6.8602 11.7976 7.38017 11.3564 7.81798C11.1604 8.01249 10.8438 8.01126 10.6493 7.81525C10.4548 7.61924 10.456 7.30266 10.652 7.10815C11 6.76284 11.2758 6.35311 11.464 5.90245C11.6521 5.4518 11.7488 4.96893 11.7488 4.48138C11.7488 3.99383 11.6521 3.51096 11.464 3.06031C11.2758 2.60965 11 2.19992 10.652 1.85461C10.456 1.66011 10.4548 1.34352 10.6493 1.14751ZM6.37305 4.48141C6.37305 3.59677 7.09681 2.87304 7.99776 2.87304C8.89871 2.87304 9.62247 3.59677 9.62247 4.48141C9.62247 5.36606 8.89871 6.08978 7.99776 6.08978C7.85458 6.08978 7.71588 6.0715 7.58385 6.03721C7.57704 6.03496 7.57014 6.03285 7.56317 6.03088C7.55412 6.02832 7.54506 6.02602 7.53599 6.02399C6.8618 5.82668 6.37305 5.20838 6.37305 4.48141ZM6.82199 6.81392C5.96385 6.38591 5.37305 5.50384 5.37305 4.48141C5.37305 3.03722 6.55182 1.87304 7.99776 1.87304C9.4437 1.87304 10.6225 3.03722 10.6225 4.48141C10.6225 5.50128 10.0346 6.3815 9.17996 6.8107L11.3151 14.3601C11.3902 14.6258 11.2357 14.9022 10.97 14.9773C10.7043 15.0525 10.428 14.898 10.3528 14.6322L9.13564 10.3285L6.08925 13.0766L5.64908 14.6323C5.5739 14.898 5.29755 15.0525 5.03184 14.9773C4.76613 14.9021 4.61167 14.6258 4.68686 14.36L6.82199 6.81392ZM7.78557 7.08137L6.6009 11.2683L8.83217 9.2555L8.21712 7.08078C8.14478 7.08674 8.07162 7.08978 7.99776 7.08978C7.92634 7.08978 7.85558 7.08694 7.78557 7.08137Z" fill="white"/>
</svg>
