<svg width="16" height="16" viewBox="0 0 16 16" fill="none" xmlns="http://www.w3.org/2000/svg">
<path fill-rule="evenodd" clip-rule="evenodd" d="M6.77893 0.5H8.92107C9.39322 0.499995 9.77785 0.49999 10.0901 0.525503C10.4128 0.551872 10.7021 0.607966 10.9715 0.745236C11.3948 0.960951 11.739 1.30516 11.9548 1.72852C12.092 1.99793 12.1481 2.28715 12.1745 2.60989C12.2 2.92215 12.2 3.30677 12.2 3.77891V12.5711C12.2 13.0432 12.2 13.4278 12.1745 13.7401C12.1481 14.0628 12.092 14.3521 11.9548 14.6215C11.739 15.0448 11.3948 15.389 10.9715 15.6048C10.7021 15.742 10.4128 15.7981 10.0901 15.8245C9.77785 15.85 9.39323 15.85 8.92109 15.85H6.77891C6.30677 15.85 5.92215 15.85 5.60989 15.8245C5.28715 15.7981 4.99793 15.742 4.72852 15.6048C4.30516 15.389 3.96095 15.0448 3.74524 14.6215C3.60797 14.3521 3.55187 14.0628 3.5255 13.7401C3.49999 13.4278 3.49999 13.0432 3.5 12.5711V3.77892C3.49999 3.30677 3.49999 2.92215 3.5255 2.60989C3.55187 2.28715 3.60797 1.99793 3.74524 1.72852C3.96095 1.30516 4.30516 0.960951 4.72852 0.745236C4.99793 0.607966 5.28715 0.551872 5.60989 0.525503C5.92215 0.49999 6.30678 0.499995 6.77893 0.5ZM5.69132 1.52218C5.43042 1.5435 5.28745 1.58277 5.18251 1.63624C4.94731 1.75608 4.75608 1.94731 4.63624 2.18251C4.58277 2.28745 4.5435 2.43042 4.52218 2.69132C4.50039 2.95805 4.5 3.3017 4.5 3.8V12.55C4.5 13.0483 4.50039 13.3919 4.52218 13.6587C4.5435 13.9196 4.58277 14.0625 4.63624 14.1675C4.75608 14.4027 4.94731 14.5939 5.18251 14.7138C5.28745 14.7672 5.43042 14.8065 5.69132 14.8278C5.95805 14.8496 6.3017 14.85 6.8 14.85H8.9C9.3983 14.85 9.74195 14.8496 10.0087 14.8278C10.2696 14.8065 10.4125 14.7672 10.5175 14.7138C10.7527 14.5939 10.9439 14.4027 11.0638 14.1675C11.1172 14.0625 11.1565 13.9196 11.1778 13.6587C11.1996 13.3919 11.2 13.0483 11.2 12.55V3.8C11.2 3.3017 11.1996 2.95805 11.1778 2.69132C11.1565 2.43042 11.1172 2.28745 11.0638 2.18251C10.9439 1.94731 10.7527 1.75608 10.5175 1.63624C10.4125 1.58277 10.2696 1.5435 10.0087 1.52218C9.74195 1.50039 9.3983 1.5 8.9 1.5H6.8C6.3017 1.5 5.95805 1.50039 5.69132 1.52218Z" fill="white"/>
<path fill-rule="evenodd" clip-rule="evenodd" d="M7.84999 5.17481C7.06298 5.17481 6.42499 5.8128 6.42499 6.5998C6.42499 7.38681 7.06298 8.02481 7.84999 8.02481C8.63699 8.02481 9.27499 7.38681 9.27499 6.5998C9.27499 5.8128 8.63699 5.17481 7.84999 5.17481ZM5.42499 6.5998C5.42499 5.26051 6.5107 4.1748 7.84999 4.1748C9.18928 4.1748 10.275 5.26051 10.275 6.5998C10.275 7.9391 9.18928 9.02481 7.84999 9.02481C6.5107 9.02481 5.42499 7.9391 5.42499 6.5998Z" fill="white"/>
<path d="M6.79999 2.92461C6.79999 3.31121 6.48659 3.62461 6.09999 3.62461C5.71339 3.62461 5.39999 3.31121 5.39999 2.92461C5.39999 2.53801 5.71339 2.22461 6.09999 2.22461C6.48659 2.22461 6.79999 2.53801 6.79999 2.92461Z" fill="white"/>
<path d="M6.79999 10.2752C6.79999 10.6618 6.48659 10.9752 6.09999 10.9752C5.71339 10.9752 5.39999 10.6618 5.39999 10.2752C5.39999 9.8886 5.71339 9.5752 6.09999 9.5752C6.48659 9.5752 6.79999 9.8886 6.79999 10.2752Z" fill="white"/>
<path d="M10.3 2.92461C10.3 3.31121 9.98659 3.62461 9.59999 3.62461C9.21339 3.62461 8.89999 3.31121 8.89999 2.92461C8.89999 2.53801 9.21339 2.22461 9.59999 2.22461C9.98659 2.22461 10.3 2.53801 10.3 2.92461Z" fill="white"/>
<path d="M10.3 10.2752C10.3 10.6618 9.98659 10.9752 9.59999 10.9752C9.21339 10.9752 8.89999 10.6618 8.89999 10.2752C8.89999 9.8886 9.21339 9.5752 9.59999 9.5752C9.98659 9.5752 10.3 9.8886 10.3 10.2752Z" fill="white"/>
</svg>
