<svg width="16" height="16" viewBox="0 0 16 16" fill="none" xmlns="http://www.w3.org/2000/svg">
<path d="M6.53135 6.375C6.53135 5.57764 7.17774 4.93125 7.9751 4.93125C8.77246 4.93125 9.41885 5.57764 9.41885 6.375C9.41885 7.17236 8.77246 7.81875 7.9751 7.81875C7.17774 7.81875 6.53135 7.17236 6.53135 6.375Z" fill="white"/>
<path fill-rule="evenodd" clip-rule="evenodd" d="M6.90311 0.25H9.04709C9.51844 0.249995 9.90396 0.24999 10.2172 0.275587C10.5415 0.302082 10.8344 0.358597 11.1079 0.497961C11.536 0.716073 11.884 1.0641 12.1021 1.49217C12.2415 1.76569 12.298 2.05857 12.3245 2.38285C12.3501 2.69613 12.3501 3.08161 12.3501 3.55294V12.347C12.3501 12.8183 12.3501 13.2039 12.3245 13.5171C12.298 13.8414 12.2415 14.1343 12.1021 14.4078C11.884 14.8359 11.536 15.1839 11.1079 15.402C10.8344 15.5414 10.5415 15.5979 10.2172 15.6244C9.90396 15.65 9.51846 15.65 9.0471 15.65H6.90309C6.43173 15.65 6.04624 15.65 5.73295 15.6244C5.40867 15.5979 5.11579 15.5414 4.84227 15.402C4.4142 15.1839 4.06617 14.8359 3.84806 14.4078C3.70869 14.1343 3.65218 13.8414 3.62568 13.5171C3.60009 13.2039 3.60009 12.8184 3.6001 12.347V3.55301C3.60009 3.08165 3.60009 2.69614 3.62568 2.38285C3.65218 2.05857 3.70869 1.76569 3.84806 1.49217C4.06617 1.0641 4.4142 0.716073 4.84227 0.497961C5.11579 0.358597 5.40867 0.302082 5.73295 0.275587C6.04624 0.24999 6.43175 0.249995 6.90311 0.25ZM6.2251 3.4C6.6117 3.4 6.9251 3.0866 6.9251 2.7C6.9251 2.3134 6.6117 2 6.2251 2C5.8385 2 5.5251 2.3134 5.5251 2.7C5.5251 3.0866 5.8385 3.4 6.2251 3.4ZM6.2251 10.7496C6.6117 10.7496 6.9251 10.4362 6.9251 10.0496C6.9251 9.66301 6.6117 9.34961 6.2251 9.34961C5.8385 9.34961 5.5251 9.66301 5.5251 10.0496C5.5251 10.4362 5.8385 10.7496 6.2251 10.7496ZM10.4251 2.7C10.4251 3.0866 10.1117 3.4 9.7251 3.4C9.3385 3.4 9.0251 3.0866 9.0251 2.7C9.0251 2.3134 9.3385 2 9.7251 2C10.1117 2 10.4251 2.3134 10.4251 2.7ZM9.7251 10.7496C10.1117 10.7496 10.4251 10.4362 10.4251 10.0496C10.4251 9.66301 10.1117 9.34961 9.7251 9.34961C9.3385 9.34961 9.0251 9.66301 9.0251 10.0496C9.0251 10.4362 9.3385 10.7496 9.7251 10.7496ZM7.9751 3.96875C6.64616 3.96875 5.56885 5.04606 5.56885 6.375C5.56885 7.70393 6.64616 8.78125 7.9751 8.78125C9.30403 8.78125 10.3813 7.70393 10.3813 6.375C10.3813 5.04606 9.30403 3.96875 7.9751 3.96875Z" fill="white"/>
</svg>
