<svg width="16" height="16" viewBox="0 0 16 16" fill="none" xmlns="http://www.w3.org/2000/svg">
<path fill-rule="evenodd" clip-rule="evenodd" d="M7.99712 1.39713C8.192 1.20149 8.50858 1.20088 8.70422 1.39577L10.461 3.14577C10.5552 3.23959 10.6081 3.36706 10.6081 3.5C10.6081 3.63294 10.5552 3.76041 10.461 3.85423L8.70422 5.60423C8.50858 5.79912 8.192 5.79851 7.99712 5.60287C7.80223 5.40723 7.80284 5.09065 7.99848 4.89577L8.8977 4H5.89189C3.74064 4 2 5.73671 2 7.875C2 10.0133 3.74064 11.75 5.89189 11.75H10.1081C12.2594 11.75 14 10.0133 14 7.875C14 7.0024 13.7109 6.19831 13.2224 5.55065C13.0562 5.33018 13.1001 5.01666 13.3205 4.85038C13.541 4.6841 13.8545 4.72803 14.0208 4.9485C14.6354 5.76339 15 6.7774 15 7.875C15 10.5692 12.808 12.75 10.1081 12.75H5.89189C3.19199 12.75 1 10.5692 1 7.875C1 5.1808 3.19199 3 5.89189 3H8.8977L7.99848 2.10423C7.80284 1.90935 7.80223 1.59277 7.99712 1.39713Z" fill="white"/>
</svg>
