<svg width="16" height="16" viewBox="0 0 16 16" fill="none" xmlns="http://www.w3.org/2000/svg">
<path fill-rule="evenodd" clip-rule="evenodd" d="M7.99857 13.9964C4.68563 13.9964 2 11.3109 2 7.99821C2 5.79023 3.19317 3.86 4.97135 2.81859L4.97135 4.02708C4.97135 4.30322 5.19521 4.52708 5.47135 4.52708C5.74749 4.52708 5.97135 4.30322 5.97135 4.02708V1.5C5.97135 1.22386 5.74749 1 5.47135 1H2.94413C2.66798 1 2.44413 1.22386 2.44413 1.5C2.44413 1.77614 2.66798 2 2.94413 2L4.39151 2C2.35981 3.22424 1 5.45198 1 7.99821C1 11.8632 4.13339 14.9964 7.99857 14.9964C11.8638 14.9964 14.9971 11.8632 14.9971 7.99821C14.9971 5.0977 13.2326 2.61047 10.7204 1.5491C10.466 1.44163 10.1727 1.56072 10.0652 1.8151C9.95775 2.06947 10.0768 2.3628 10.3312 2.47027C12.4863 3.38076 13.9971 5.51365 13.9971 7.99821C13.9971 11.3109 11.3115 13.9964 7.99857 13.9964ZM6.68074 5.81734C6.82814 5.90844 6.91787 6.06938 6.91787 6.24266V10.4577C6.91787 10.7339 6.69401 10.9577 6.41787 10.9577C6.14172 10.9577 5.91787 10.7339 5.91787 10.4577V7.05166L5.23637 7.39239C4.98937 7.51588 4.68904 7.41576 4.56555 7.16877C4.44206 6.92178 4.54218 6.62144 4.78917 6.49795L6.19427 5.79544C6.34926 5.71795 6.53333 5.72624 6.68074 5.81734ZM7.67488 6.94266C7.67488 6.27992 8.21214 5.74266 8.87488 5.74266H9.9338C10.5965 5.74266 11.1338 6.27992 11.1338 6.94266V9.75772C11.1338 10.4205 10.5965 10.9577 9.9338 10.9577H8.87488C8.21214 10.9577 7.67488 10.4205 7.67488 9.75772V6.94266ZM8.87488 6.74266C8.76442 6.74266 8.67488 6.83221 8.67488 6.94266V9.75772C8.67488 9.86817 8.76442 9.95772 8.87488 9.95772H9.9338C10.0443 9.95772 10.1338 9.86817 10.1338 9.75772V6.94266C10.1338 6.83221 10.0443 6.74266 9.9338 6.74266H8.87488Z" fill="white"/>
</svg>
