<svg width="16" height="16" viewBox="0 0 16 16" fill="none" xmlns="http://www.w3.org/2000/svg">
<path fill-rule="evenodd" clip-rule="evenodd" d="M6.46803 3.73242C7.49765 3.09095 8.80607 3.84685 8.80607 5.04605V6.1347L12.662 3.73242C13.6916 3.09095 15 3.84685 15 5.04605V10.954C15 12.1532 13.6916 12.9091 12.662 12.2677L8.80607 9.86538V10.954C8.80607 12.1532 7.49765 12.9091 6.46803 12.2677L1.7266 9.31367C0.757802 8.71009 0.757798 7.29 1.7266 6.68642L6.46803 3.73242ZM8.80607 8.68718L13.1907 11.4189C13.5367 11.6345 14 11.3892 14 10.954V5.04605C14 4.61089 13.5367 4.36563 13.1907 4.58117L8.80607 7.3129V8.68718ZM7.80607 5.04605C7.80607 4.61089 7.34279 4.36562 6.99682 4.58117L2.25539 7.53517C1.91487 7.74732 1.91487 8.25277 2.25539 8.46492L6.99682 11.4189C7.34279 11.6345 7.80607 11.3892 7.80607 10.954V5.04605Z" fill="white"/>
</svg>
