<svg width="16" height="16" viewBox="0 0 16 16" fill="none" xmlns="http://www.w3.org/2000/svg">
<path fill-rule="evenodd" clip-rule="evenodd" d="M2 7.99821C2 11.3109 4.68563 13.9964 7.99857 13.9964C11.3115 13.9964 13.9971 11.3109 13.9971 7.99821C13.9971 5.51365 12.4863 3.38076 10.3312 2.47027C10.0768 2.3628 9.95775 2.06947 10.0652 1.8151C10.1727 1.56072 10.466 1.44163 10.7204 1.5491C13.2326 2.61047 14.9971 5.0977 14.9971 7.99821C14.9971 11.8632 11.8638 14.9964 7.99857 14.9964C4.13339 14.9964 1 11.8632 1 7.99821C1 5.45198 2.35981 3.22424 4.39151 2L2.94413 2C2.66798 2 2.44413 1.77614 2.44413 1.5C2.44413 1.22386 2.66798 1 2.94413 1H5.47135C5.74749 1 5.97135 1.22386 5.97135 1.5V4.02708C5.97135 4.30322 5.74749 4.52708 5.47135 4.52708C5.19521 4.52708 4.97135 4.30322 4.97135 4.02708L4.97135 2.81859C3.19317 3.86 2 5.79023 2 7.99821ZM4.33699 6.24135C4.33699 5.9652 4.56084 5.74135 4.83699 5.74135H6.24463C6.90737 5.74135 7.44463 6.2786 7.44463 6.94135V7.1506C7.44463 7.55425 7.35065 7.95237 7.17012 8.31341L7.15238 8.34887L7.17012 8.38434C7.35065 8.74538 7.44463 9.14349 7.44463 9.54715V9.7564C7.44463 10.4191 6.90737 10.9564 6.24463 10.9564H4.83699C4.56084 10.9564 4.33699 10.7325 4.33699 10.4564C4.33699 10.1803 4.56084 9.9564 4.83699 9.9564H6.24463C6.35509 9.9564 6.44463 9.86686 6.44463 9.7564V9.54715C6.44463 9.30518 6.38975 9.06644 6.28422 8.84887H5.18826C4.91212 8.84887 4.68826 8.62502 4.68826 8.34887C4.68826 8.07273 4.91212 7.84887 5.18826 7.84887H6.28422C6.38975 7.63131 6.44463 7.39257 6.44463 7.1506V6.94135C6.44463 6.83089 6.35509 6.74135 6.24463 6.74135H4.83699C4.56084 6.74135 4.33699 6.51749 4.33699 6.24135ZM9.40222 5.74135C8.73948 5.74135 8.20222 6.2786 8.20222 6.94135V9.7564C8.20222 10.4191 8.73948 10.9564 9.40222 10.9564H10.4611C11.1239 10.9564 11.6611 10.4191 11.6611 9.7564V6.94135C11.6611 6.27861 11.1239 5.74135 10.4611 5.74135H9.40222ZM9.20222 6.94135C9.20222 6.83089 9.29176 6.74135 9.40222 6.74135H10.4611C10.5716 6.74135 10.6611 6.83089 10.6611 6.94135V9.7564C10.6611 9.86686 10.5716 9.9564 10.4611 9.9564H9.40222C9.29176 9.9564 9.20222 9.86686 9.20222 9.7564V6.94135Z" fill="white"/>
</svg>
