<svg width="16" height="16" viewBox="0 0 16 16" fill="none" xmlns="http://www.w3.org/2000/svg">
<path fill-rule="evenodd" clip-rule="evenodd" d="M10.4502 4.5C11.9964 4.50011 13.2499 5.75356 13.25 7.2998H13.5996L13.7432 7.30664C14.4491 7.37832 14.9999 7.9754 15 8.7002V10.7998C15 11.5247 14.4491 12.1207 13.7432 12.1924L13.5996 12.2002H13.25C13.2499 13.7464 11.9964 14.9999 10.4502 15H5.5498C4.00356 14.9999 2.75011 13.7464 2.75 12.2002H2.40039L2.25684 12.1924C1.55091 12.1207 1 11.5247 1 10.7998V8.7002C1.00009 7.9754 1.55093 7.37832 2.25684 7.30664L2.40039 7.2998H2.75C2.75011 5.75356 4.00356 4.50011 5.5498 4.5H7.47461V3.69727C7.00379 3.50648 6.65969 3.06807 6.60645 2.54297L6.59961 2.40039C6.59966 1.62722 7.22682 1.00005 8 1L8.14258 1.00684C8.84866 1.07843 9.39936 1.67544 9.39941 2.40039L9.39258 2.54297C9.33745 3.08652 8.97098 3.53673 8.47461 3.71582V4.5H10.4502ZM9.76465 11.1582C9.57735 10.9582 9.26428 10.9465 9.0625 11.1309L9.06152 11.1318C9.05603 11.1363 9.04375 11.1454 9.02539 11.1582C8.98864 11.1839 8.92671 11.2227 8.83984 11.2627C8.66743 11.342 8.39174 11.4284 8.00977 11.4209C7.61689 11.4131 7.33151 11.325 7.15234 11.2461C7.06225 11.2064 6.99807 11.1683 6.95996 11.1436C6.9413 11.1314 6.92883 11.1227 6.92285 11.1182L6.9248 11.1201C6.71514 10.9406 6.39937 10.9652 6.21973 11.1748C6.04024 11.3845 6.06483 11.7002 6.27441 11.8799L6.27734 11.8828C6.27848 11.8838 6.27989 11.8846 6.28125 11.8857C6.28413 11.8881 6.28812 11.8904 6.29199 11.8936C6.2997 11.8998 6.30868 11.9082 6.32031 11.917C6.34375 11.9346 6.37562 11.9568 6.41504 11.9824C6.49403 12.0337 6.6055 12.0979 6.74902 12.1611C7.03725 12.2881 7.45277 12.4103 7.99023 12.4209C8.53835 12.4316 8.96298 12.3075 9.25781 12.1719C9.40421 12.1045 9.51739 12.0345 9.59766 11.9785C9.63784 11.9505 9.67052 11.9257 9.69434 11.9062C9.70619 11.8966 9.7158 11.8877 9.72363 11.8809C9.72753 11.8774 9.73147 11.8747 9.73438 11.8721C9.73578 11.8708 9.73711 11.8692 9.73828 11.8682L9.73926 11.8662L9.74121 11.8652L9.80762 11.7891C9.94231 11.5994 9.92976 11.3347 9.76465 11.1582ZM2.40039 8.2998C2.17954 8.2998 2.0001 8.47936 2 8.7002V10.7998C2 11.0207 2.17948 11.2002 2.40039 11.2002H2.74219V8.2998H2.40039ZM13.2646 11.2002H13.5996C13.8205 11.2002 14 11.0207 14 10.7998V8.7002C13.9999 8.47936 13.8205 8.2998 13.5996 8.2998H13.2646V11.2002ZM6.92285 11.1182L6.9209 11.1162C6.92011 11.1156 6.91925 11.1155 6.91895 11.1152C6.91946 11.1156 6.92102 11.1168 6.92285 11.1182ZM5.90039 7.8252C5.61057 7.8252 5.37521 8.05984 5.375 8.34961V9.0498C5.375 9.33975 5.61044 9.5752 5.90039 9.5752C6.19016 9.57498 6.4248 9.33962 6.4248 9.0498V8.34961C6.4246 8.05997 6.19003 7.82541 5.90039 7.8252ZM10.0996 7.8252C9.80979 7.8252 9.57443 8.05984 9.57422 8.34961V9.0498C9.57422 9.33975 9.80966 9.5752 10.0996 9.5752C10.3894 9.57498 10.624 9.33962 10.624 9.0498V8.34961C10.6238 8.05997 10.3892 7.82541 10.0996 7.8252ZM8 2C7.77915 2.00005 7.59966 2.17954 7.59961 2.40039C7.59982 2.62111 7.77925 2.79975 8 2.7998C8.22062 2.79959 8.3992 2.62101 8.39941 2.40039C8.39936 2.17964 8.22072 2.00021 8 2Z" fill="white"/>
</svg>
