<svg width="16" height="16" viewBox="0 0 16 16" fill="none" xmlns="http://www.w3.org/2000/svg">
<g clip-path="url(#clip0_40914_229)">
<path fill-rule="evenodd" clip-rule="evenodd" d="M9.03536 1.12828C9.03937 1.13229 9.04339 1.13631 9.04742 1.14034L14.8274 6.92037C14.9385 7.03141 15.0421 7.135 15.1219 7.22902C15.2084 7.3309 15.2959 7.45392 15.3472 7.61172C15.4198 7.83532 15.4198 8.07618 15.3472 8.29979C15.2959 8.45758 15.2084 8.5806 15.1219 8.68248C15.0421 8.77649 14.9385 8.88009 14.8275 8.99113L9.03535 14.7832C8.92431 14.8943 8.82072 14.9979 8.7267 15.0777C8.62482 15.1642 8.5018 15.2517 8.34401 15.303C8.1204 15.3756 7.87954 15.3756 7.65594 15.303C7.49814 15.2517 7.37512 15.1642 7.27324 15.0777C7.17923 14.9979 7.07564 14.8943 6.96459 14.7832L1.17249 8.99113C1.06143 8.88009 0.957823 8.7765 0.87801 8.68248C0.791524 8.58061 0.704027 8.45758 0.652756 8.29979C0.580103 8.07618 0.580104 7.83532 0.652756 7.61172C0.704027 7.45392 0.791523 7.3309 0.87801 7.22902C0.957824 7.13501 1.06144 7.03141 1.1725 6.92037L6.95253 1.14034C6.95656 1.13631 6.96058 1.13229 6.96459 1.12828C7.07563 1.01722 7.17922 0.913604 7.27324 0.83379C7.37512 0.747304 7.49814 0.659807 7.65594 0.608536C7.87954 0.535883 8.1204 0.535883 8.34401 0.608536C8.5018 0.659807 8.62483 0.747304 8.7267 0.83379C8.82072 0.913604 8.92431 1.01722 9.03536 1.12828ZM8.02958 1.55798C8.01019 1.55273 7.98975 1.55273 7.97036 1.55798C7.96418 1.56178 7.9485 1.57229 7.92042 1.59613C7.86138 1.64625 7.78691 1.72017 7.65963 1.84745L1.89167 7.61541C1.76439 7.74269 1.69047 7.81716 1.64035 7.8762C1.61651 7.90428 1.606 7.91996 1.6022 7.92614C1.59695 7.94553 1.59695 7.96597 1.6022 7.98536C1.606 7.99154 1.61651 8.00722 1.64035 8.0353C1.69047 8.09434 1.76439 8.16881 1.89167 8.29609L7.65963 14.0641C7.78691 14.1913 7.86138 14.2653 7.92042 14.3154C7.94851 14.3392 7.96418 14.3497 7.97036 14.3535C7.98975 14.3588 8.01019 14.3588 8.02958 14.3535C8.03576 14.3497 8.05144 14.3392 8.07952 14.3154C8.13856 14.2653 8.21303 14.1913 8.34031 14.0641L14.1083 8.29609C14.2356 8.16881 14.3095 8.09434 14.3596 8.0353C14.3834 8.00722 14.3939 7.99154 14.3977 7.98536C14.403 7.96597 14.403 7.94553 14.3977 7.92614C14.3939 7.91996 14.3834 7.90428 14.3596 7.8762C14.3095 7.81716 14.2356 7.74269 14.1083 7.61541L8.34031 1.84745C8.21303 1.72017 8.13856 1.64625 8.07952 1.59613C8.05144 1.57229 8.03576 1.56178 8.02958 1.55798Z" fill="white"/>
</g>
<defs>
<clipPath id="clip0_40914_229">
<rect width="16" height="16" fill="white"/>
</clipPath>
</defs>
</svg>
