<svg width="16" height="16" viewBox="0 0 16 16" fill="none" xmlns="http://www.w3.org/2000/svg">
<path fill-rule="evenodd" clip-rule="evenodd" d="M8 2C4.68629 2 2 4.68629 2 8C2 11.3137 4.68629 14 8 14C10.4853 14 12.6188 12.4888 13.5296 10.3332C13.6371 10.0788 13.9304 9.95973 14.1848 10.0672C14.4391 10.1747 14.5582 10.468 14.4508 10.7224C13.3891 13.2351 10.9012 15 8 15C4.13401 15 1 11.866 1 8C1 4.13401 4.13401 1 8 1C10.547 1 12.7755 2.36027 14 4.39263V2.94444C14 2.6683 14.2239 2.44444 14.5 2.44444C14.7761 2.44444 15 2.6683 15 2.94444V5.47222C15 5.74836 14.7761 5.97222 14.5 5.97222H11.9722C11.6961 5.97222 11.4722 5.74836 11.4722 5.47222C11.4722 5.19608 11.6961 4.97222 11.9722 4.97222H13.1813C12.1396 3.19354 10.2087 2 8 2Z" fill="white"/>
</svg>
