<svg width="16" height="16" viewBox="0 0 16 16" fill="none" xmlns="http://www.w3.org/2000/svg">
<path d="M2.50012 2.25354C2.50012 1.9774 2.72397 1.75354 3.00012 1.75354H13.0001C13.2763 1.75354 13.5001 1.9774 13.5001 2.25354C13.5001 2.52968 13.2763 2.75354 13.0001 2.75354H3.00012C2.72398 2.75354 2.50012 2.52968 2.50012 2.25354Z" fill="#F5F5F5"/>
<path fill-rule="evenodd" clip-rule="evenodd" d="M3.41191 3.70001H12.5119C13.4508 3.70001 14.2119 4.46113 14.2119 5.40001V10.5C14.2119 11.4389 13.4508 12.2 12.5119 12.2H3.41191C2.47303 12.2 1.71191 11.4389 1.71191 10.5V5.40001C1.71191 4.46113 2.47303 3.70001 3.41191 3.70001ZM3.41191 4.70001C3.02531 4.70001 2.71191 5.01341 2.71191 5.40001V10.5C2.71191 10.8866 3.02531 11.2 3.41191 11.2H12.5119C12.8985 11.2 13.2119 10.8866 13.2119 10.5V5.40001C13.2119 5.01341 12.8985 4.70001 12.5119 4.70001H3.41191Z" fill="#F5F5F5"/>
<path d="M3.00098 13.3C2.72483 13.3 2.50098 13.5239 2.50098 13.8C2.50098 14.0761 2.72483 14.3 3.00098 14.3H13.001C13.2771 14.3 13.501 14.0761 13.501 13.8C13.501 13.5239 13.2771 13.3 13.001 13.3H3.00098Z" fill="#F5F5F5"/>
</svg>
