<svg width="16" height="16" viewBox="0 0 16 16" fill="none" xmlns="http://www.w3.org/2000/svg">
<path d="M2.5 2.19995C2.5 1.92381 2.72386 1.69995 3 1.69995H13C13.2761 1.69995 13.5 1.92381 13.5 2.19995C13.5 2.47609 13.2761 2.69995 13 2.69995H3C2.72386 2.69995 2.5 2.47609 2.5 2.19995Z" fill="#F5F5F5"/>
<path d="M2.73945 3.64058C2.15955 3.64058 1.68945 4.11068 1.68945 4.69058V6.59058C1.68945 7.17048 2.15955 7.64058 2.73945 7.64058H13.2395C13.8194 7.64058 14.2895 7.17048 14.2895 6.59058V4.69058C14.2895 4.11068 13.8194 3.64058 13.2395 3.64058H2.73945Z" fill="#F5F5F5"/>
<path d="M2.79219 8.34057C2.21229 8.34057 1.74219 8.81067 1.74219 9.39057V11.2906C1.74219 11.8705 2.21229 12.3406 2.79219 12.3406H13.2922C13.8721 12.3406 14.3422 11.8705 14.3422 11.2906V9.39057C14.3422 8.81067 13.8721 8.34057 13.2922 8.34057H2.79219Z" fill="#F5F5F5"/>
<path d="M2.5 13.8C2.5 13.5238 2.72386 13.3 3 13.3H13C13.2761 13.3 13.5 13.5238 13.5 13.8C13.5 14.0761 13.2761 14.3 13 14.3H3C2.72386 14.3 2.5 14.0761 2.5 13.8Z" fill="#F5F5F5"/>
</svg>
