<svg width="16" height="16" viewBox="0 0 16 16" fill="none" xmlns="http://www.w3.org/2000/svg">
<path fill-rule="evenodd" clip-rule="evenodd" d="M14.3562 1.39966C14.5497 1.59668 14.5469 1.91325 14.3498 2.10674L2.35034 13.8911C2.15332 14.0846 1.83675 14.0818 1.64326 13.8847C1.44978 13.6877 1.45264 13.3711 1.64966 13.1777L13.6492 1.39326C13.8462 1.19978 14.1627 1.20264 14.3562 1.39966ZM2.59086 1.75C2.59086 1.47386 2.81472 1.25 3.09086 1.25H5.12011C6.28376 1.25 7.22708 2.19332 7.22708 3.35696C7.22708 4.52061 6.28376 5.46393 5.12011 5.46393H3.59086V6.24944H4.90897C5.18511 6.24944 5.40897 6.4733 5.40897 6.74944C5.40897 7.02558 5.18511 7.24944 4.90897 7.24944H3.59086V7.82075C3.59086 8.09689 3.36701 8.32075 3.09086 8.32075C2.81472 8.32075 2.59086 8.09689 2.59086 7.82075V7.24944H2C1.72386 7.24944 1.5 7.02558 1.5 6.74944C1.5 6.4733 1.72386 6.24944 2 6.24944H2.59086V5.46393H2C1.72386 5.46393 1.5 5.24007 1.5 4.96393C1.5 4.68778 1.72386 4.46393 2 4.46393H2.59086V1.75ZM3.59086 4.46393H5.12011C5.73147 4.46393 6.22708 3.96832 6.22708 3.35696C6.22708 2.7456 5.73147 2.25 5.12011 2.25H3.59086V4.46393ZM12.7174 7.10645C12.7174 6.8303 12.4935 6.60645 12.2174 6.60645C11.9412 6.60645 11.7174 6.8303 11.7174 7.10645V7.68138C10.8039 7.7399 10.0811 8.49935 10.0811 9.42761C10.0811 10.394 10.8645 11.1775 11.8309 11.1775H12.6038C13.0179 11.1775 13.3536 11.5132 13.3536 11.9273C13.3536 12.3415 13.0179 12.6772 12.6038 12.6772H10.9447C10.6685 12.6772 10.4447 12.9011 10.4447 13.1772C10.4447 13.4533 10.6685 13.6772 10.9447 13.6772H11.7174V14.2485C11.7174 14.5246 11.9412 14.7485 12.2174 14.7485C12.4935 14.7485 12.7174 14.5246 12.7174 14.2485V13.6736C13.6308 13.6151 14.3536 12.8556 14.3536 11.9273C14.3536 10.9609 13.5702 10.1775 12.6038 10.1775H11.8309C11.4168 10.1775 11.0811 9.84175 11.0811 9.42761C11.0811 9.01348 11.4168 8.67775 11.8309 8.67775H13.49C13.7662 8.67775 13.99 8.4539 13.99 8.17775C13.99 7.90161 13.7662 7.67775 13.49 7.67775H12.7174V7.10645Z" fill="white"/>
</svg>
