<svg width="16" height="16" viewBox="0 0 16 16" fill="none" xmlns="http://www.w3.org/2000/svg">
<path fill-rule="evenodd" clip-rule="evenodd" d="M13.0598 1.35337C12.5793 0.879833 11.8065 0.882567 11.3293 1.35949L1.35951 11.3251C0.882853 11.8016 0.879786 12.573 1.35265 13.0532L2.90878 14.6336C3.38732 15.1196 4.17058 15.1225 4.65272 14.6401L14.6409 4.64581C15.1223 4.16419 15.1193 3.38308 14.6343 2.90512L13.0598 1.35337ZM8.61508 5.37684L9.50809 6.26925C9.70342 6.46444 10.0201 6.46444 10.2154 6.26925C10.4108 6.07405 10.4108 5.75758 10.2154 5.56238L9.32242 4.66997L8.61508 5.37684ZM2.66195 11.326L3.55496 12.2184C3.75029 12.4136 4.06698 12.4136 4.26231 12.2184C4.45764 12.0232 4.45764 11.7067 4.26231 11.5115L3.3693 10.6191L2.66195 11.326ZM4.64633 9.34327L5.53934 10.2357C5.73467 10.4309 6.05135 10.4309 6.24668 10.2357C6.44201 10.0405 6.44201 9.724 6.24668 9.52881L5.35367 8.6364L4.64633 9.34327ZM7.52469 8.25197L6.63168 7.35956L7.33902 6.65269L8.23203 7.5451C8.42736 7.7403 8.42736 8.05678 8.23203 8.25197C8.03671 8.44717 7.72002 8.44717 7.52469 8.25197ZM11.4934 4.28652L10.6004 3.39411L11.3078 2.68724L12.2008 3.57965C12.3961 3.77485 12.3961 4.09133 12.2008 4.28652C12.0055 4.48172 11.6888 4.48172 11.4934 4.28652Z" fill="white"/>
</svg>
