<svg width="16" height="16" viewBox="0 0 16 16" fill="none" xmlns="http://www.w3.org/2000/svg">
<path fill-rule="evenodd" clip-rule="evenodd" d="M12.9885 1.42418C12.5252 0.96746 11.7699 0.980348 11.2973 1.45304L1.37401 11.3788C0.901895 11.851 0.888695 12.6054 1.34444 13.0688L2.84002 14.5894C3.30125 15.0583 4.06665 15.0508 4.5442 14.5726L14.4858 4.61871C14.9625 4.14137 14.97 3.37755 14.5023 2.91656L12.9885 1.42418ZM11.9949 2.15043C12.0736 2.07165 12.1995 2.0695 12.2767 2.14562L13.7906 3.638C13.8685 3.71483 13.8673 3.84213 13.7878 3.92169L3.84626 13.8756C3.76667 13.9553 3.6391 13.9566 3.56223 13.8784L2.06665 12.3578C1.99069 12.2806 1.99289 12.1549 2.07158 12.0762L2.7115 11.4361L3.50119 12.2258C3.69645 12.421 4.01303 12.421 4.20829 12.2258C4.40356 12.0305 4.40356 11.7139 4.20829 11.5187L3.41852 10.7289L4.68887 9.45823L5.4788 10.2482C5.67406 10.4434 5.99064 10.4434 6.1859 10.2482C6.38117 10.0529 6.38117 9.73631 6.1859 9.54105L5.39589 8.75104L6.66703 7.47958L7.45717 8.26971C7.65243 8.46498 7.96901 8.46498 8.16427 8.26971C8.35954 8.07445 8.35954 7.75787 8.16427 7.56261L7.37405 6.77239L8.64482 5.50131L9.43568 6.29218C9.63094 6.48744 9.94753 6.48744 10.1428 6.29218C10.338 6.09691 10.338 5.78033 10.1428 5.58507L9.35184 4.79412L10.6221 3.52353L11.4132 4.31464C11.6085 4.5099 11.9251 4.5099 12.1203 4.31464C12.3156 4.11937 12.3156 3.80279 12.1203 3.60753L11.3291 2.81634L11.9949 2.15043Z" fill="white"/>
</svg>
