<svg width="16" height="16" viewBox="0 0 16 16" fill="none" xmlns="http://www.w3.org/2000/svg">
<path fill-rule="evenodd" clip-rule="evenodd" d="M8 15C11.866 15 15 11.866 15 8C15 4.13401 11.866 1 8 1C4.13401 1 1 4.13401 1 8C1 11.866 4.13401 15 8 15ZM6.075 4.5C5.78505 4.5 5.55 4.73505 5.55 5.025C5.55 5.31495 5.78505 5.55 6.075 5.55H7.475C7.87915 5.55 8.17559 5.7271 8.38209 5.97418C8.45507 6.06149 8.51481 6.15541 8.56201 6.25H6.425C6.13505 6.25 5.9 6.48505 5.9 6.775C5.9 7.06495 6.13505 7.3 6.425 7.3H8.56201C8.51481 7.39459 8.45507 7.48851 8.38209 7.57582C8.17559 7.8229 7.87915 8 7.475 8H6.075C6.00381 8 5.93594 8.01417 5.87404 8.03984C5.81212 8.06546 5.7541 8.10343 5.70377 8.15377C5.65343 8.2041 5.61546 8.26212 5.58984 8.32404C5.56417 8.38594 5.55 8.45382 5.55 8.525C5.55 8.59618 5.56417 8.66406 5.58984 8.72596C5.61546 8.78788 5.65343 8.8459 5.70377 8.89623L8.50377 11.6962C8.70879 11.9013 9.0412 11.9013 9.24623 11.6962C9.45126 11.4912 9.45126 11.1588 9.24623 10.9538L7.34246 9.05H7.475C8.23065 9.05 8.80921 8.7021 9.18775 8.24918C9.42594 7.96419 9.59174 7.63035 9.67881 7.3H10.275C10.5649 7.3 10.8 7.06495 10.8 6.775C10.8 6.48505 10.5649 6.25 10.275 6.25H9.67881C9.61607 6.01195 9.51245 5.77209 9.37031 5.55H10.275C10.5649 5.55 10.8 5.31495 10.8 5.025C10.8 4.73505 10.5649 4.5 10.275 4.5H6.075Z" fill="white"/>
</svg>
