<svg width="16" height="16" viewBox="0 0 16 16" fill="none" xmlns="http://www.w3.org/2000/svg">
<path d="M9.4834 6.23926C9.70074 6.23928 9.85188 6.27759 9.92773 6.34375C10.0035 6.40997 10.0508 6.53271 10.0508 6.71191V7.24023C10.0508 7.42902 10.0035 7.55194 9.92773 7.61816C9.85188 7.68432 9.70074 7.71288 9.4834 7.71289H5.76074V6.23926H9.4834Z" fill="white"/>
<path fill-rule="evenodd" clip-rule="evenodd" d="M11.1641 1.7002C12.8958 1.7002 14.2998 3.10423 14.2998 4.83594V11.1641C14.2998 11.6241 14.2004 12.0615 14.0225 12.4551C13.7817 12.9874 13.3965 13.4407 12.917 13.7646C12.4166 14.1026 11.8133 14.2998 11.1641 14.2998H4.83496C3.10338 14.2996 1.69922 12.8957 1.69922 11.1641V4.83594C1.69922 3.96162 2.05754 3.17024 2.63477 2.60156C3.20074 2.04401 3.97772 1.70028 4.83496 1.7002H11.1641ZM4.18262 11.1504H5.76074V9.10059H8.66992L10.0508 11.1504H11.8184L10.2969 9.09082C10.8576 9.00765 11.1097 8.83595 11.3174 8.55273C11.5252 8.26934 11.6289 7.81565 11.6289 7.21094V6.73926C11.6289 6.38081 11.5916 6.09705 11.5254 5.87988C11.4591 5.66265 11.3454 5.47342 11.1846 5.30371C11.0147 5.14314 10.8256 5.02988 10.5986 4.9541C10.3716 4.88795 10.0876 4.85059 9.73828 4.85059H4.18262V11.1504ZM8.0791 2.7002C8.1617 3.21799 8.30715 3.71504 8.50781 4.18262L9.07031 4.18164H9.73828C10.1332 4.18166 10.507 4.23216 10.8096 4.32031C11.1273 4.4264 11.4273 4.61529 11.6689 4.84375C11.8958 5.08314 12.0654 5.36147 12.1641 5.68457C12.2554 5.98418 12.2969 6.33822 12.2969 6.73926V7.21094C12.2969 7.36525 12.2909 7.5184 12.2773 7.66797C12.6067 7.77954 12.9485 7.86487 13.2998 7.9209V4.83594C13.2998 3.65651 12.3435 2.7002 11.1641 2.7002H8.0791Z" fill="white"/>
</svg>
