<svg width="16" height="16" viewBox="0 0 16 16" fill="none" xmlns="http://www.w3.org/2000/svg">
<path fill-rule="evenodd" clip-rule="evenodd" d="M4.46956 1.00195C4.09491 1.00195 3.7837 1.00194 3.52977 1.02269C3.26539 1.04429 3.01939 1.09085 2.78742 1.20904C2.42991 1.3912 2.13925 1.68186 1.95709 2.03937C1.83889 2.27134 1.79234 2.51735 1.77073 2.78172C1.74999 3.03565 1.74999 3.34686 1.75 3.72151V10.8741C1.74999 11.2488 1.74999 11.56 1.77073 11.8139C1.79234 12.0783 1.83889 12.3243 1.95709 12.5563C2.13925 12.9138 2.42991 13.2044 2.78742 13.3866C2.90281 13.4454 3.02167 13.4864 3.14453 13.5155V14.498C3.14453 14.7741 3.36839 14.998 3.64453 14.998C3.92067 14.998 4.14453 14.7741 4.14453 14.498V13.5931C4.24689 13.5937 4.35495 13.5937 4.46887 13.5937H11.5344C11.6486 13.5937 11.7569 13.5937 11.8594 13.5931V14.498C11.8594 14.7741 12.0832 14.998 12.3594 14.998C12.6355 14.998 12.8594 14.7741 12.8594 14.498V13.5156C12.9823 13.4865 13.1012 13.4454 13.2166 13.3866C13.5741 13.2044 13.8647 12.9138 14.0469 12.5563C14.1651 12.3243 14.2117 12.0783 14.2333 11.8139C14.254 11.56 14.254 11.2488 14.254 10.8742V3.7215C14.254 3.34687 14.254 3.03564 14.2333 2.78172C14.2117 2.51735 14.1651 2.27134 14.0469 2.03937C13.8647 1.68186 13.5741 1.3912 13.2166 1.20904C12.9846 1.09085 12.7386 1.04429 12.4742 1.02269C12.2203 1.00194 11.9091 1.00195 11.5344 1.00195H4.46956ZM3.24141 2.10005C3.30891 2.06565 3.40867 2.03591 3.6112 2.01937C3.81957 2.00234 4.08971 2.00195 4.49 2.00195H11.514C11.9143 2.00195 12.1844 2.00234 12.3928 2.01937C12.5953 2.03591 12.6951 2.06565 12.7626 2.10005C12.9319 2.18633 13.0696 2.32402 13.1559 2.49336C13.1903 2.56087 13.22 2.66062 13.2366 2.86315C13.2536 3.07152 13.254 3.34167 13.254 3.74195V10.8537C13.254 11.254 13.2536 11.5241 13.2366 11.7325C13.22 11.935 13.1903 12.0348 13.1559 12.1023C13.0696 12.2716 12.9319 12.4093 12.7626 12.4956C12.6951 12.53 12.5953 12.5597 12.3928 12.5763C12.1844 12.5933 11.9143 12.5937 11.514 12.5937H4.49C4.08971 12.5937 3.81957 12.5933 3.6112 12.5763C3.40867 12.5597 3.30891 12.53 3.24141 12.4956C3.07206 12.4093 2.93438 12.2716 2.84809 12.1023C2.8137 12.0348 2.78396 11.935 2.76741 11.7325C2.75039 11.5241 2.75 11.254 2.75 10.8537V3.74195C2.75 3.34167 2.75039 3.07152 2.76741 2.86315C2.78396 2.66062 2.8137 2.56087 2.84809 2.49336C2.93438 2.32402 3.07206 2.18633 3.24141 2.10005ZM11.8426 6.24497C12.0372 6.04896 12.0359 5.73238 11.8399 5.53786C11.6439 5.34334 11.3274 5.34455 11.1328 5.54055L8.69889 7.99306L6.96215 6.24308C6.86828 6.14849 6.74053 6.09529 6.60726 6.09529C6.47399 6.09529 6.34624 6.14849 6.25237 6.24308L4.16073 8.35066C3.96621 8.54667 3.96742 8.86325 4.16342 9.05777C4.35942 9.25229 4.676 9.25108 4.87052 9.05508L6.60726 7.30509L8.344 9.05508C8.43787 9.14967 8.56563 9.20287 8.69889 9.20287C8.83216 9.20287 8.95991 9.14967 9.05379 9.05508L11.8426 6.24497Z" fill="white"/>
</svg>
