<svg width="16" height="16" viewBox="0 0 16 16" fill="none" xmlns="http://www.w3.org/2000/svg">
<path fill-rule="evenodd" clip-rule="evenodd" d="M1.95981 2.05107C1.75 2.46285 1.75 3.0019 1.75 4.08V10.5425C1.75 11.6206 1.75 12.1597 1.95981 12.5715C2.14437 12.9337 2.43886 13.2282 2.80107 13.4127C2.90945 13.4679 3.02664 13.5086 3.16016 13.5386V14.4987C3.16016 14.7748 3.38401 14.9987 3.66016 14.9987C3.9363 14.9987 4.16016 14.7748 4.16016 14.4987V13.6199C4.35774 13.6225 4.57929 13.6225 4.83 13.6225H11.17C11.4215 13.6225 11.6437 13.6225 11.8418 13.6199V14.4987C11.8418 14.7748 12.0657 14.9987 12.3418 14.9987C12.6179 14.9987 12.8418 14.7748 12.8418 14.4987V13.5382C12.9745 13.5082 13.0911 13.4677 13.1989 13.4127C13.5611 13.2282 13.8556 12.9337 14.0402 12.5715C14.25 12.1597 14.25 11.6206 14.25 10.5425V4.08C14.25 3.0019 14.25 2.46285 14.0402 2.05107C13.8556 1.68886 13.5611 1.39437 13.1989 1.20981C12.7872 1 12.2481 1 11.17 1H4.83C3.7519 1 3.21285 1 2.80107 1.20981C2.43886 1.39437 2.14437 1.68886 1.95981 2.05107ZM11.8271 6.261C12.0214 6.06479 12.0198 5.74821 11.8236 5.55391C11.6274 5.3596 11.3108 5.36114 11.1165 5.55735L8.69401 8.00361L6.96595 6.25861C6.87205 6.16378 6.74413 6.11043 6.61068 6.11043C6.47722 6.11043 6.34931 6.16378 6.2554 6.25861L4.17207 8.36236C3.97776 8.55858 3.97931 8.87515 4.17552 9.06946C4.37173 9.26377 4.68831 9.26223 4.88262 9.06601L6.61068 7.32101L8.33874 9.06601C8.43264 9.16084 8.56056 9.21419 8.69401 9.21419C8.82746 9.21419 8.95538 9.16084 9.04928 9.06601L11.8271 6.261Z" fill="white"/>
</svg>
