<svg width="16" height="16" viewBox="0 0 16 16" fill="none" xmlns="http://www.w3.org/2000/svg">
<path d="M5.91675 4.02783C5.64061 4.02783 5.41675 4.25169 5.41675 4.52783C5.41675 4.80397 5.64061 5.02783 5.91675 5.02783H10.0834C10.3596 5.02783 10.5834 4.80397 10.5834 4.52783C10.5834 4.25169 10.3596 4.02783 10.0834 4.02783H5.91675Z" fill="white"/>
<path fill-rule="evenodd" clip-rule="evenodd" d="M3.85 1.75C2.6902 1.75 1.75 2.6902 1.75 3.85V12.15C1.75 13.3098 2.6902 14.25 3.85 14.25H12.15C13.3098 14.25 14.25 13.3098 14.25 12.15V5.10768C14.25 4.73637 14.1025 4.38028 13.8399 4.11773L11.8823 2.16005C11.6197 1.8975 11.2636 1.75 10.8923 1.75H3.85ZM13.25 12.15V5.10768C13.25 5.00159 13.2079 4.89985 13.1328 4.82483L11.1752 2.86716C11.1002 2.79214 10.9984 2.75 10.8923 2.75H3.85C3.24249 2.75 2.75 3.24249 2.75 3.85V12.15C2.75 12.7575 3.24249 13.25 3.85 13.25H4.52783V9.74434C4.52783 9.16444 4.99793 8.69434 5.57783 8.69434H10.4223C11.0022 8.69434 11.4723 9.16444 11.4723 9.74434V13.25H12.15C12.7575 13.25 13.25 12.7575 13.25 12.15ZM10.4223 9.69434H5.57783C5.55022 9.69434 5.52783 9.71672 5.52783 9.74434V13.2499H10.4723V9.74434C10.4723 9.71672 10.4499 9.69434 10.4223 9.69434Z" fill="white"/>
</svg>
