<svg width="16" height="16" viewBox="0 0 16 16" fill="none" xmlns="http://www.w3.org/2000/svg">
<path fill-rule="evenodd" clip-rule="evenodd" d="M12 8.25C14.0711 8.25 15.75 9.92893 15.75 12C15.75 14.0711 14.0711 15.75 12 15.75C9.92893 15.75 8.25 14.0711 8.25 12C8.25 9.92893 9.92893 8.25 12 8.25ZM12.2715 9.9375C12.1605 9.55285 11.7643 9.38306 11.4561 9.58789C11.3793 9.63888 11.2739 9.77222 11.0645 10.04L10.6816 10.5293C10.5231 10.732 10.2958 10.8485 10.0566 10.8486C9.74894 10.8486 9.49904 11.131 9.49902 11.4795V12.4209C9.49921 12.7692 9.74905 13.0518 10.0566 13.0518C10.2957 13.0518 10.5231 13.1676 10.6816 13.3701L11.0645 13.8594C11.274 14.1273 11.3793 14.2615 11.4561 14.3125C11.7644 14.5172 12.1607 14.3468 12.2715 13.9619C12.299 13.8661 12.2988 13.6868 12.2988 13.3291V10.5703C12.2988 10.2126 12.299 10.0333 12.2715 9.9375ZM13.9453 10.2529C13.7816 10.1174 13.538 10.1402 13.4023 10.3037C13.2667 10.4674 13.2896 10.711 13.4531 10.8467C13.6369 10.9989 13.7786 11.1754 13.873 11.3643C13.9673 11.5528 14.0146 11.752 14.0146 11.9502C14.0146 12.1482 13.9672 12.3468 13.873 12.5352C13.7786 12.7241 13.6369 12.9015 13.4531 13.0537C13.2899 13.1894 13.267 13.4321 13.4023 13.5957C13.538 13.7594 13.7816 13.7821 13.9453 13.6465C14.2052 13.4311 14.4158 13.1712 14.5615 12.8799C14.7073 12.5882 14.7841 12.2718 14.7842 11.9502C14.7841 11.6285 14.7074 11.3113 14.5615 11.0195C14.4158 10.7283 14.2052 10.4682 13.9453 10.2529Z" fill="white"/>
<path fill-rule="evenodd" clip-rule="evenodd" d="M11.3867 0.648438C11.6101 0.648524 11.8008 0.783551 11.8809 0.974609C12.1062 1.08084 12.3484 1.24288 12.5811 1.49121C13.2347 2.18929 13.749 3.49249 13.749 5.89844V7.85156C13.4937 7.74379 13.226 7.66002 12.9492 7.60059V5.89844C12.9492 3.58145 12.4498 2.52158 11.9971 2.03809C11.8305 1.86027 11.6602 1.75122 11.5059 1.68359C11.4674 1.6922 11.4278 1.69823 11.3867 1.69824H11.0186C11.0439 1.73302 11.0723 1.76737 11.0977 1.80469C11.6129 2.56345 12.0888 3.82757 12.0889 5.89844V7.50195C12.0593 7.50138 12.0297 7.5 12 7.5C11.7581 7.5 11.5206 7.51891 11.2891 7.55566V5.89844C11.289 3.95149 10.8424 2.85291 10.4355 2.25391C10.2495 1.98004 10.0666 1.80566 9.93066 1.69824H9.87207C10.0686 2.36124 10.2441 3.58835 10.2441 5.89844V7.85449C9.96143 7.97439 9.69396 8.12334 9.44434 8.2959V5.89844C9.44432 3.54747 9.25966 2.41524 9.09375 1.88379C9.07004 1.80786 9.04585 1.74707 9.02539 1.69824H8.39941V9.2998C8.01458 9.81214 7.73776 10.4097 7.59961 11.0586V1.69824H6.97266C6.95232 1.74705 6.92989 1.80809 6.90625 1.88379C6.74032 2.41512 6.55568 3.54705 6.55566 5.89844V8.69922C6.55568 10.7867 6.64681 11.7288 6.73535 12.3379C6.80212 12.7971 6.87542 13.1121 6.90723 13.5977H7.59961V12.9404C7.801 13.8874 8.29974 14.7237 8.99414 15.3477H4.77344C4.29019 15.3477 3.89844 14.9559 3.89844 14.4727V14.124H3.85547C3.85547 13.8659 3.78568 13.685 3.66309 13.4844C3.59703 13.3764 3.51876 13.2678 3.42188 13.1318C3.32744 12.9993 3.21951 12.8468 3.11133 12.6699C2.66432 11.9387 2.25007 10.8566 2.25 8.69922V5.89844C2.25006 3.49202 2.76513 2.18919 3.41895 1.49121C3.65059 1.24401 3.89078 1.08183 4.11523 0.975586C4.19502 0.783829 4.38746 0.648585 4.61133 0.648438H11.3867ZM4.49316 1.68457C4.33899 1.75194 4.16941 1.86043 4.00293 2.03809C3.55014 2.5214 3.05084 3.58081 3.05078 5.89844V8.69922C3.05086 10.7409 3.43863 11.6718 3.79395 12.2529C3.88617 12.4037 3.9798 12.5359 4.07324 12.667C4.16406 12.7944 4.26153 12.9297 4.3457 13.0674C4.44459 13.2292 4.52745 13.4014 4.58301 13.5977H4.78223C4.71189 13.2628 4.57251 13.0191 4.39551 12.5322C4.14446 11.8415 3.9102 10.8295 3.91016 8.69922V5.89844C3.87051 3.70323 4.32923 2.43287 4.85938 1.69824H4.61133C4.57075 1.69822 4.53117 1.69299 4.49316 1.68457ZM5.97656 1.69824C5.85031 1.78347 5.68887 1.92106 5.52441 2.14355C5.12197 2.68817 4.67157 3.77315 4.71094 5.8916V8.69922C4.71098 10.7675 4.93745 11.6809 5.14746 12.2588C5.30746 12.6989 5.50963 13.0499 5.59277 13.5977H6.10547C6.07609 13.2016 6.01417 12.9334 5.94434 12.4531C5.84844 11.7935 5.7549 10.8105 5.75488 8.69922V5.89844C5.7549 3.58803 5.93136 2.36117 6.12793 1.69824H5.97656Z" fill="white"/>
</svg>
