<svg width="16" height="16" viewBox="0 0 16 16" fill="none" xmlns="http://www.w3.org/2000/svg">
<path fill-rule="evenodd" clip-rule="evenodd" d="M12 8.25C14.0711 8.25 15.75 9.92893 15.75 12C15.75 14.0711 14.0711 15.75 12 15.75C9.92893 15.75 8.25 14.0711 8.25 12C8.25 9.92893 9.92893 8.25 12 8.25ZM12.2715 9.9375C12.1605 9.55285 11.7643 9.38306 11.4561 9.58789C11.3793 9.63888 11.2739 9.77222 11.0645 10.04L10.6816 10.5293C10.5231 10.732 10.2958 10.8485 10.0566 10.8486C9.74894 10.8486 9.49904 11.131 9.49902 11.4795V12.4209C9.49921 12.7692 9.74905 13.0518 10.0566 13.0518C10.2957 13.0518 10.5231 13.1676 10.6816 13.3701L11.0645 13.8594C11.274 14.1273 11.3793 14.2615 11.4561 14.3125C11.7644 14.5172 12.1607 14.3468 12.2715 13.9619C12.299 13.8661 12.2988 13.6868 12.2988 13.3291V10.5703C12.2988 10.2126 12.299 10.0333 12.2715 9.9375ZM13.9453 10.2529C13.7816 10.1174 13.538 10.1402 13.4023 10.3037C13.2667 10.4674 13.2896 10.711 13.4531 10.8467C13.6369 10.9989 13.7786 11.1754 13.873 11.3643C13.9673 11.5528 14.0146 11.752 14.0146 11.9502C14.0146 12.1482 13.9672 12.3468 13.873 12.5352C13.7786 12.7241 13.6369 12.9015 13.4531 13.0537C13.2899 13.1894 13.267 13.4321 13.4023 13.5957C13.538 13.7594 13.7816 13.7821 13.9453 13.6465C14.2052 13.4311 14.4158 13.1712 14.5615 12.8799C14.7073 12.5882 14.7841 12.2718 14.7842 11.9502C14.7841 11.6285 14.7074 11.3113 14.5615 11.0195C14.4158 10.7283 14.2052 10.4682 13.9453 10.2529Z" fill="white"/>
<path d="M14.4229 2.75C14.7127 2.75016 14.9473 2.98554 14.9473 3.27539C14.9471 3.44127 14.8683 3.58649 14.748 3.68262C14.9072 3.91539 15.0009 4.1968 15.001 4.5V6.76367C15.001 7.46693 14.9532 8.04927 14.873 8.53711C14.6448 8.34756 14.3978 8.18009 14.1348 8.03809C14.1758 7.67619 14.2012 7.25547 14.2012 6.76367V4.5C14.2011 4.14126 13.9095 3.85083 13.5508 3.85059H2.4502C2.09137 3.85069 1.80089 4.14117 1.80078 4.5V6.76367C1.8008 8.94352 2.26361 9.73087 2.65137 10.1572C2.75542 10.2716 2.86162 10.3679 2.97266 10.4668C3.07853 10.5611 3.20173 10.6687 3.30859 10.7861C3.54652 11.0477 3.71072 11.3663 3.71094 11.8496H4.30078C4.3007 11.5421 4.26006 11.3612 4.21094 11.2354C4.1601 11.1052 4.0921 11.0086 3.98145 10.8535C3.87172 10.6997 3.73532 10.5079 3.61328 10.2266C3.49187 9.94663 3.38966 9.59237 3.32031 9.10645C3.28929 8.88787 3.44157 8.6855 3.66016 8.6543C3.87871 8.62332 4.08111 8.77557 4.1123 8.99414C4.17369 9.4241 4.26013 9.70642 4.34766 9.9082C4.43445 10.1083 4.52849 10.2438 4.63184 10.3887C4.73427 10.5323 4.86337 10.707 4.95605 10.9443C5.05035 11.1858 5.1005 11.4705 5.10059 11.8496H5.86328C5.86324 11.5045 5.83939 11.3457 5.81543 11.2598C5.79185 11.1755 5.77334 11.1602 5.69824 11.0176C5.5435 10.7236 5.41342 10.31 5.35547 9.06934C5.34517 8.84866 5.51663 8.66069 5.7373 8.65039C5.9575 8.64059 6.14484 8.81101 6.15527 9.03125C6.21176 10.241 6.33553 10.5102 6.40625 10.6445C6.44378 10.7158 6.53217 10.8518 6.58594 11.0439C6.6392 11.2345 6.66402 11.4789 6.66406 11.8496H7.50391C7.50227 11.8996 7.5 11.9497 7.5 12C7.5 12.4338 7.56219 12.8531 7.67676 13.25H3.83789C3.35484 13.2499 2.9631 12.858 2.96289 12.375V11.8506H2.91113C2.91113 11.5881 2.8367 11.4561 2.7168 11.3242C2.64468 11.245 2.55823 11.1694 2.44043 11.0645C2.3277 10.964 2.1942 10.8442 2.05957 10.6963C1.49213 10.0726 1.00002 9.06304 1 6.76367V4.5C1.00004 4.19704 1.09199 3.91528 1.25098 3.68262C1.13111 3.58648 1.05286 3.44098 1.05273 3.27539C1.05273 2.98555 1.28735 2.75018 1.57715 2.75H14.4229Z" fill="white"/>
<path d="M8.00098 8.65039C8.22139 8.65083 8.40018 8.82934 8.40039 9.0498V9.29883C8.0161 9.81013 7.73919 10.4062 7.60059 11.0537V9.0498C7.6008 8.82907 7.78019 8.65039 8.00098 8.65039Z" fill="white"/>
</svg>
