<svg width="16" height="16" viewBox="0 0 16 16" fill="none" xmlns="http://www.w3.org/2000/svg">
<path fill-rule="evenodd" clip-rule="evenodd" d="M12 8.25C14.0711 8.25 15.75 9.92893 15.75 12C15.75 14.0711 14.0711 15.75 12 15.75C9.92893 15.75 8.25 14.0711 8.25 12C8.25 9.92893 9.92893 8.25 12 8.25ZM11.9688 13.0225C11.6099 13.0225 11.3186 13.3131 11.3184 13.6719C11.3184 14.0309 11.6098 14.3223 11.9688 14.3223C12.3275 14.322 12.6182 14.0307 12.6182 13.6719C12.618 13.3132 12.3274 13.0227 11.9688 13.0225ZM12 9.43457C11.8067 9.43457 11.6504 9.59088 11.6504 9.78418V11.8301C11.6506 12.0232 11.8068 12.1797 12 12.1797C12.1932 12.1797 12.3494 12.0232 12.3496 11.8301V9.78418C12.3496 9.59088 12.1933 9.43457 12 9.43457Z" fill="white"/>
<path fill-rule="evenodd" clip-rule="evenodd" d="M14.4746 2.75C14.7646 2.75 15 2.98544 15 3.27539C14.9998 3.48811 14.8724 3.66961 14.6904 3.75195C14.8843 3.91183 15 4.14923 15 4.5V6.76367C15 7.46216 14.9529 8.04475 14.873 8.53613C14.0937 7.88897 13.0922 7.5 12 7.5C10.4976 7.5 9.16793 8.23678 8.35059 9.36816V9.0498C8.35059 8.85657 8.19322 8.70029 8 8.7002C7.80683 8.70034 7.65039 8.8566 7.65039 9.0498V10.8438C7.55256 11.2127 7.5 11.6002 7.5 12C7.5 12.4338 7.56219 12.8531 7.67676 13.25H3.7998C3.31678 13.2499 2.92502 12.858 2.9248 12.375V11.8496C2.92474 11.6233 2.86498 11.5218 2.7627 11.4102C2.69837 11.34 2.62079 11.2718 2.50879 11.1729L2.49316 11.1592C2.37929 11.0585 2.24105 10.9345 2.10059 10.7812C1.50065 10.1267 1.00005 9.08234 1 6.76367V4.5C1 4.14958 1.11505 3.91183 1.30859 3.75195C1.12702 3.66944 1.00015 3.4878 1 3.27539C1 2.98544 1.23544 2.75 1.52539 2.75H14.4746ZM3.40137 8.70312C3.21009 8.73006 3.07673 8.9073 3.10352 9.09863C3.17139 9.58319 3.27706 9.9354 3.4043 10.2129C3.53201 10.4913 3.6755 10.6813 3.79395 10.835C3.914 10.9907 3.99196 11.0911 4.0498 11.2266C4.10533 11.3569 4.15037 11.5407 4.15039 11.8496C4.1505 12.0428 4.30685 12.2001 4.5 12.2002C4.69315 12.2001 4.85048 12.0428 4.85059 11.8496C4.85057 11.4711 4.79547 11.1894 4.69434 10.9521C4.59549 10.7204 4.45875 10.5501 4.34863 10.4072C4.23676 10.2621 4.13414 10.1239 4.04102 9.9209C3.94739 9.71672 3.85727 9.43223 3.79688 9.00098C3.76995 8.80975 3.59265 8.67643 3.40137 8.70312ZM5.78223 8.7002C5.58926 8.70903 5.43961 8.8725 5.44824 9.06543C5.50498 10.3039 5.63204 10.708 5.77832 10.9912C5.84949 11.129 5.87134 11.1525 5.89648 11.2441C5.92202 11.3374 5.94628 11.502 5.94629 11.8496C5.94639 12.0427 6.10286 12.2 6.2959 12.2002C6.48905 12.2001 6.64638 12.0428 6.64648 11.8496C6.64648 11.4803 6.62159 11.242 6.57129 11.0586C6.52061 10.874 6.43973 10.746 6.40039 10.6699C6.32548 10.5249 6.203 10.2459 6.14746 9.03418C6.13863 8.8413 5.97504 8.69171 5.78223 8.7002Z" fill="white"/>
</svg>
