<svg width="16" height="16" viewBox="0 0 16 16" fill="none" xmlns="http://www.w3.org/2000/svg">
<path fill-rule="evenodd" clip-rule="evenodd" d="M12 8.25C14.0711 8.25 15.75 9.92893 15.75 12C15.75 14.0711 14.0711 15.75 12 15.75C9.92893 15.75 8.25 14.0711 8.25 12C8.25 9.92893 9.92893 8.25 12 8.25ZM12.2715 9.9375C12.1605 9.55285 11.7643 9.38306 11.4561 9.58789C11.3793 9.63888 11.2739 9.77222 11.0645 10.04L10.6816 10.5293C10.5231 10.732 10.2958 10.8485 10.0566 10.8486C9.74894 10.8486 9.49904 11.131 9.49902 11.4795V12.4209C9.49921 12.7692 9.74905 13.0518 10.0566 13.0518C10.2957 13.0518 10.5231 13.1676 10.6816 13.3701L11.0645 13.8594C11.274 14.1273 11.3793 14.2615 11.4561 14.3125C11.7644 14.5172 12.1607 14.3468 12.2715 13.9619C12.299 13.8661 12.2988 13.6868 12.2988 13.3291V10.5703C12.2988 10.2126 12.299 10.0333 12.2715 9.9375ZM13.9453 10.2529C13.7816 10.1174 13.538 10.1402 13.4023 10.3037C13.2667 10.4674 13.2896 10.711 13.4531 10.8467C13.6369 10.9989 13.7786 11.1754 13.873 11.3643C13.9673 11.5528 14.0146 11.752 14.0146 11.9502C14.0146 12.1482 13.9672 12.3468 13.873 12.5352C13.7786 12.7241 13.6369 12.9015 13.4531 13.0537C13.2899 13.1894 13.267 13.4321 13.4023 13.5957C13.538 13.7594 13.7816 13.7821 13.9453 13.6465C14.2052 13.4311 14.4158 13.1712 14.5615 12.8799C14.7073 12.5882 14.7841 12.2718 14.7842 11.9502C14.7841 11.6285 14.7074 11.3113 14.5615 11.0195C14.4158 10.7283 14.2052 10.4682 13.9453 10.2529Z" fill="white"/>
<path fill-rule="evenodd" clip-rule="evenodd" d="M14.4746 2.75C14.7646 2.75 15 2.98544 15 3.27539C14.9998 3.48811 14.8724 3.66961 14.6904 3.75195C14.8843 3.91183 15 4.14923 15 4.5V6.76367C15 7.46216 14.9529 8.04475 14.873 8.53613C14.0937 7.88897 13.0922 7.5 12 7.5C10.4976 7.5 9.16793 8.23678 8.35059 9.36816V9.0498C8.35059 8.85657 8.19322 8.70029 8 8.7002C7.80683 8.70034 7.65039 8.8566 7.65039 9.0498V10.8438C7.55256 11.2127 7.5 11.6002 7.5 12C7.5 12.4338 7.56219 12.8531 7.67676 13.25H3.7998C3.31678 13.2499 2.92502 12.858 2.9248 12.375V11.8496C2.92474 11.6233 2.86498 11.5218 2.7627 11.4102C2.69837 11.34 2.62079 11.2718 2.50879 11.1729L2.49316 11.1592C2.37929 11.0585 2.24105 10.9345 2.10059 10.7812C1.50065 10.1267 1.00005 9.08234 1 6.76367V4.5C1 4.14958 1.11505 3.91183 1.30859 3.75195C1.12702 3.66944 1.00015 3.4878 1 3.27539C1 2.98544 1.23544 2.75 1.52539 2.75H14.4746ZM3.40137 8.70312C3.21009 8.73006 3.07673 8.9073 3.10352 9.09863C3.17139 9.58319 3.27706 9.9354 3.4043 10.2129C3.53201 10.4913 3.6755 10.6813 3.79395 10.835C3.914 10.9907 3.99196 11.0911 4.0498 11.2266C4.10533 11.3569 4.15037 11.5407 4.15039 11.8496C4.1505 12.0428 4.30685 12.2001 4.5 12.2002C4.69315 12.2001 4.85048 12.0428 4.85059 11.8496C4.85057 11.4711 4.79547 11.1894 4.69434 10.9521C4.59549 10.7204 4.45875 10.5501 4.34863 10.4072C4.23676 10.2621 4.13414 10.1239 4.04102 9.9209C3.94739 9.71672 3.85727 9.43223 3.79688 9.00098C3.76995 8.80975 3.59265 8.67643 3.40137 8.70312ZM5.78223 8.7002C5.58926 8.70903 5.43961 8.8725 5.44824 9.06543C5.50498 10.3039 5.63204 10.708 5.77832 10.9912C5.84949 11.129 5.87134 11.1525 5.89648 11.2441C5.92202 11.3374 5.94628 11.502 5.94629 11.8496C5.94639 12.0427 6.10286 12.2 6.2959 12.2002C6.48905 12.2001 6.64638 12.0428 6.64648 11.8496C6.64648 11.4803 6.62159 11.242 6.57129 11.0586C6.52061 10.874 6.43973 10.746 6.40039 10.6699C6.32548 10.5249 6.203 10.2459 6.14746 9.03418C6.13863 8.8413 5.97504 8.69171 5.78223 8.7002Z" fill="white"/>
</svg>
