<svg width="16" height="16" viewBox="0 0 16 16" fill="none" xmlns="http://www.w3.org/2000/svg">
<path fill-rule="evenodd" clip-rule="evenodd" d="M4.11914 4.82617C5.48006 3.23711 7.2634 2.85812 8.77832 3.06445C9.5321 3.16717 10.2281 3.41536 10.7861 3.73633C11.3334 4.05126 11.793 4.46283 12.0137 4.9209C12.4244 5.77408 12.2443 6.65207 11.7168 7.19727C11.1816 7.75026 10.3205 7.92186 9.51855 7.42285C8.75088 6.9448 8.0487 6.86727 7.47363 7.01465C6.92361 7.15571 6.45198 7.5133 6.125 8C6.45198 8.4867 6.92361 8.84429 7.47363 8.98535C8.0487 9.13273 8.75088 9.0552 9.51855 8.57715C10.3205 8.07813 11.1816 8.24974 11.7168 8.80273C12.2443 9.34793 12.4244 10.2259 12.0137 11.0791C11.793 11.5372 11.3334 11.9487 10.7861 12.2637C10.2281 12.5846 9.53209 12.8328 8.77832 12.9355C7.26341 13.1419 5.48006 12.7629 4.11914 11.1738L4.10547 11.1582L4.09277 11.1406C3.86913 10.8215 3.68601 10.503 3.53613 10.1885C3.5135 10.1438 3.49011 10.0993 3.46875 10.0537C3.19242 9.46385 3.02423 8.79973 3.01465 8.08887C3.01421 8.0706 3.01293 8.05239 3.0127 8.03418V7.96582C3.01293 7.94729 3.01419 7.92875 3.01465 7.91016C3.02437 7.19966 3.19255 6.53588 3.46875 5.94629C3.49048 5.89991 3.51503 5.85506 3.53809 5.80957C3.68776 5.49585 3.86969 5.17772 4.09277 4.85938L4.10547 4.8418L4.11914 4.82617ZM5.73047 8.90723C5.50826 9.86064 5.77681 10.9872 6.83203 11.8633L6.98047 11.9873C7.54757 12.1273 8.12051 12.1419 8.66016 12.0684C9.30287 11.9808 9.89057 11.7699 10.3496 11.5059C10.819 11.2358 11.1118 10.9355 11.2256 10.6992C11.4832 10.1637 11.3508 9.68287 11.0879 9.41113C10.8327 9.14759 10.4245 9.04397 9.98047 9.32031C9.03432 9.90942 8.08946 10.0454 7.25684 9.83203C6.65562 9.67789 6.13618 9.34585 5.73047 8.90723ZM5.00098 5.22559C4.7316 5.51435 4.48804 5.85951 4.2959 6.25098C4.02846 6.83247 3.90579 7.39096 3.89062 7.91504C3.88199 8.47998 3.99527 9.08815 4.2832 9.72363C4.47714 10.1257 4.72576 10.4794 5.00098 10.7744C4.65821 9.8257 4.73787 8.83 5.12305 8C4.73787 7.17 4.65821 6.1743 5.00098 5.22559ZM8.66016 3.93164C8.12058 3.85816 7.5475 3.87181 6.98047 4.01172L6.83203 4.13672C5.77715 5.01253 5.50865 6.13858 5.73047 7.0918C6.13611 6.65343 6.65586 6.32205 7.25684 6.16797C8.08946 5.95459 9.03432 6.09058 9.98047 6.67969C10.4245 6.95603 10.8327 6.85241 11.0879 6.58887C11.3508 6.31713 11.4832 5.83627 11.2256 5.30078C11.1118 5.06453 10.819 4.76421 10.3496 4.49414C9.89057 4.23009 9.30287 4.01923 8.66016 3.93164Z" fill="white"/>
<path fill-rule="evenodd" clip-rule="evenodd" d="M8 1C11.866 1 15 4.13401 15 8C15 11.866 11.866 15 8 15C4.13401 15 1 11.866 1 8C1 4.13401 4.13401 1 8 1ZM8 1.87988C4.62002 1.87988 1.87988 4.62002 1.87988 8C1.87988 11.38 4.62002 14.1201 8 14.1201C11.38 14.1201 14.1201 11.38 14.1201 8C14.1201 4.62002 11.38 1.87988 8 1.87988Z" fill="white"/>
</svg>
