<svg width="16" height="16" viewBox="0 0 16 16" fill="none" xmlns="http://www.w3.org/2000/svg">
<path fill-rule="evenodd" clip-rule="evenodd" d="M7.00433 2.34661C10.4327 1.33931 13.4137 3.45187 13.9565 6.5302C14.5281 9.77383 11.7218 13.2011 8.53949 13.7626C5.35685 14.3238 2.47669 12.9972 1.9848 9.12395C1.66133 6.57614 3.75194 3.3024 7.00433 2.34661ZM8.45648 11.1708C8.33406 11.1926 8.25255 11.3086 8.27386 11.4306C8.29553 11.5526 8.41205 11.6347 8.5346 11.6132C8.65723 11.5916 8.73957 11.4746 8.7182 11.3525C8.69659 11.2303 8.57917 11.1492 8.45648 11.1708ZM4.42425 10.5781C4.30166 10.5998 4.22017 10.7157 4.24163 10.8378C4.26325 10.9599 4.37971 11.042 4.50238 11.0204C4.62485 10.9987 4.70734 10.8817 4.68597 10.7597C4.66444 10.6376 4.54687 10.5566 4.42425 10.5781ZM9.32855 9.06048C9.24114 9.07611 9.18238 9.15988 9.19769 9.247C9.21315 9.33405 9.29675 9.39208 9.38421 9.37688C9.47167 9.36137 9.53022 9.27844 9.51507 9.19134C9.4997 9.10413 9.41612 9.04519 9.32855 9.06048ZM6.74163 8.86516C6.61892 8.8868 6.53555 9.00372 6.55706 9.12591C6.57872 9.24799 6.6971 9.32917 6.81976 9.30755C6.94203 9.28552 7.02388 9.16873 7.00238 9.0468C6.98069 8.92506 6.86397 8.844 6.74163 8.86516ZM3.91449 8.0595C3.82706 8.07514 3.76927 8.15888 3.7846 8.24602C3.80019 8.33308 3.8836 8.39134 3.97113 8.37591C4.05815 8.36014 4.11692 8.27716 4.10199 8.19036C4.08661 8.10318 4.00203 8.04425 3.91449 8.0595ZM11.7084 7.33782C11.5862 7.35977 11.5046 7.47578 11.5258 7.59759C11.5475 7.71942 11.6641 7.80145 11.7866 7.7802C11.9092 7.75858 11.9915 7.64156 11.9701 7.51946C11.9485 7.39738 11.8311 7.31619 11.7084 7.33782ZM10.601 6.06536C10.4623 5.28026 9.71085 4.75589 8.9223 4.89446C8.13342 5.03356 7.60533 5.78377 7.74359 6.56927C7.88212 7.35491 8.63522 7.87929 9.42425 7.74016C10.2127 7.60057 10.7395 6.85067 10.601 6.06536ZM5.59613 6.45891C5.50872 6.47449 5.45007 6.55834 5.46527 6.64544C5.48073 6.73247 5.56434 6.79051 5.65179 6.77532C5.73939 6.75987 5.79791 6.67699 5.78265 6.58977C5.76726 6.50248 5.6838 6.44346 5.59613 6.45891ZM11.3588 6.09563C11.3067 6.10503 11.272 6.15402 11.2807 6.20598C11.2899 6.25817 11.3396 6.29401 11.392 6.28509C11.4446 6.27581 11.4804 6.22516 11.4711 6.17278C11.4617 6.12064 11.4113 6.08638 11.3588 6.09563ZM5.94476 5.09466C5.89248 5.10414 5.85655 5.15383 5.86566 5.20598C5.87499 5.25803 5.92564 5.29305 5.97796 5.28411C6.03056 5.27483 6.0663 5.22418 6.05706 5.1718C6.0477 5.11965 5.99721 5.08549 5.94476 5.09466ZM9.07171 3.89055C8.98432 3.90619 8.92655 3.98997 8.94183 4.07708C8.95739 4.16416 9.04081 4.2224 9.12835 4.20696C9.21542 4.19118 9.27424 4.10826 9.25921 4.02141C9.24384 3.93424 9.15925 3.87532 9.07171 3.89055ZM6.99163 3.60637C6.9395 3.61584 6.90466 3.66473 6.91351 3.71673C6.92274 3.7691 6.97321 3.8051 7.02581 3.79583C7.07818 3.78641 7.11305 3.73573 7.10394 3.68352C7.09453 3.63138 7.04408 3.59716 6.99163 3.60637Z" fill="white"/>
</svg>
