<svg width="16" height="16" viewBox="0 0 16 16" fill="none" xmlns="http://www.w3.org/2000/svg">
<path fill-rule="evenodd" clip-rule="evenodd" d="M12.0003 8.25007C14.0712 8.25018 15.7502 9.92911 15.7503 12.0001C15.7503 14.0711 14.0713 15.75 12.0003 15.7501C9.92923 15.7501 8.2503 14.0711 8.2503 12.0001C8.25035 9.92905 9.92926 8.25007 12.0003 8.25007ZM11.9681 13.0225C11.6094 13.0227 11.3189 13.3133 11.3187 13.6719C11.3187 14.0308 11.6093 14.3221 11.9681 14.3223C12.3271 14.3223 12.6185 14.0309 12.6185 13.6719C12.6182 13.3132 12.3269 13.0225 11.9681 13.0225ZM12.0003 9.43464C11.807 9.43464 11.6507 9.59099 11.6507 9.78425V11.8301C11.6509 12.0232 11.8071 12.1798 12.0003 12.1798C12.1934 12.1797 12.3497 12.0232 12.3499 11.8301V9.78425C12.3499 9.59106 12.1935 9.43475 12.0003 9.43464Z" fill="white"/>
<path fill-rule="evenodd" clip-rule="evenodd" d="M7.99932 2.26081C11.5503 1.86438 14.1194 4.46227 14.1194 7.58796C14.1194 7.73244 14.1096 7.87591 14.097 8.01863C13.4709 7.6882 12.7575 7.50016 12.0003 7.50007C9.51505 7.50007 7.50036 9.51484 7.5003 12.0001C7.5003 12.6241 7.62714 13.2186 7.85675 13.7589C7.74741 13.7654 7.6378 13.7706 7.52862 13.7706C4.29698 13.7706 1.69115 11.9632 1.87921 8.06355C2.00308 5.49829 4.63042 2.63731 7.99932 2.26081ZM4.0296 9.91902C3.90497 9.91902 3.80401 10.0195 3.80401 10.1436C3.80434 10.2674 3.90517 10.3682 4.0296 10.3682C4.15355 10.3677 4.25486 10.2671 4.25518 10.1436C4.25518 10.0199 4.15375 9.91957 4.0296 9.91902ZM6.6087 8.63484C6.48409 8.63484 6.38217 8.73538 6.38214 8.85945C6.38238 8.98333 6.48422 9.08406 6.6087 9.08406C6.73265 9.08344 6.83404 8.98295 6.83428 8.85945C6.83425 8.73576 6.73278 8.63546 6.6087 8.63484ZM9.44561 5.10359C8.64457 5.10359 7.99468 5.75036 7.99444 6.54792C7.99469 7.34548 8.64457 7.99324 9.44561 7.99324C10.2461 7.9926 10.8956 7.34509 10.8958 6.54792C10.8956 5.75075 10.2461 5.10422 9.44561 5.10359ZM3.96514 7.35066C3.87612 7.35066 3.80401 7.42315 3.80401 7.51179C3.8045 7.60002 3.87642 7.67195 3.96514 7.67195C4.05339 7.67138 4.1258 7.59967 4.12628 7.51179C4.12628 7.4235 4.05368 7.35123 3.96514 7.35066ZM11.637 6.70906C11.5839 6.70919 11.5406 6.75185 11.5403 6.80476C11.5406 6.85765 11.5839 6.90131 11.637 6.90144C11.69 6.90106 11.7335 6.85751 11.7337 6.80476C11.7335 6.752 11.69 6.70943 11.637 6.70906ZM5.89874 6.06648C5.80985 6.06664 5.73761 6.13907 5.73761 6.22761C5.73797 6.31584 5.81008 6.38761 5.89874 6.38777C5.98721 6.38739 6.05951 6.31571 6.05987 6.22761C6.05987 6.1392 5.98743 6.06686 5.89874 6.06648ZM6.47882 4.78327C6.42568 4.78353 6.38223 4.82603 6.38214 4.87898C6.38239 4.93179 6.42578 4.9754 6.47882 4.97566C6.53176 4.97528 6.57622 4.93172 6.57647 4.87898C6.57638 4.82611 6.53186 4.78365 6.47882 4.78327ZM9.76788 4.1407C9.67886 4.1407 9.60675 4.21319 9.60675 4.30183C9.6072 4.39009 9.67914 4.46199 9.76788 4.46199C9.85614 4.46142 9.92857 4.38974 9.92901 4.30183C9.92901 4.21354 9.85641 4.14127 9.76788 4.1407ZM7.76886 3.49909C7.71557 3.49909 7.67239 3.54179 7.67218 3.5948C7.67242 3.64777 7.7156 3.69148 7.76886 3.69148C7.82177 3.69106 7.86529 3.64752 7.86553 3.5948C7.86533 3.54205 7.82178 3.4995 7.76886 3.49909Z" fill="white"/>
</svg>
