<svg width="16" height="16" viewBox="0 0 16 16" fill="none" xmlns="http://www.w3.org/2000/svg">
<path d="M8.45651 11.1699C8.57924 11.1483 8.69668 11.2303 8.71822 11.3525C8.73966 11.4747 8.6573 11.5916 8.53463 11.6133C8.41199 11.6348 8.29542 11.5528 8.27389 11.4307C8.25237 11.3085 8.3339 11.1917 8.45651 11.1699Z" fill="white"/>
<path d="M4.42428 10.5771C4.54697 10.5556 4.66348 10.6376 4.68502 10.7598C4.70635 10.8818 4.62489 10.9978 4.5024 11.0195C4.37971 11.0412 4.26228 10.96 4.24068 10.8379C4.21914 10.7157 4.30154 10.5988 4.42428 10.5771Z" fill="white"/>
<path d="M9.32858 9.06054C9.41624 9.04508 9.49971 9.1041 9.5151 9.1914C9.53024 9.27854 9.47177 9.36151 9.38424 9.37695C9.2967 9.39225 9.21315 9.33421 9.19772 9.24706C9.18233 9.15981 9.24097 9.07605 9.32858 9.06054Z" fill="white"/>
<path d="M6.74069 8.86523C6.86332 8.8436 6.98072 8.92481 7.0024 9.04687C7.02395 9.16908 6.94154 9.28597 6.81881 9.30761C6.69629 9.32911 6.57981 9.24787 6.55807 9.12597C6.53654 9.00386 6.61812 8.88701 6.74069 8.86523Z" fill="white"/>
<path d="M3.91451 8.05956C4.00208 8.04412 4.0855 8.10233 4.10104 8.18945C4.11643 8.27674 4.05784 8.36051 3.97018 8.37597C3.88275 8.3912 3.79918 8.33308 3.78365 8.24609C3.76827 8.15886 3.82697 8.07512 3.91451 8.05956Z" fill="white"/>
<path d="M11.7094 7.33691C11.832 7.31553 11.9487 7.39746 11.9702 7.51952C11.9916 7.64156 11.91 7.75846 11.7876 7.78027C11.6648 7.80191 11.5474 7.71986 11.5258 7.59765C11.5043 7.47547 11.5867 7.35854 11.7094 7.33691Z" fill="white"/>
<path d="M8.92135 4.8955C9.71035 4.75638 10.4625 5.28076 10.601 6.0664C10.7393 6.85186 10.2121 7.6011 9.4233 7.74023C8.6343 7.87935 7.88214 7.35497 7.74362 6.56933C7.60537 5.78393 8.13264 5.03473 8.92135 4.8955Z" fill="white"/>
<path d="M5.59615 6.45898C5.68382 6.44352 5.76826 6.50254 5.78365 6.58984C5.7987 6.6768 5.74006 6.75977 5.65279 6.77538C5.56515 6.79084 5.48072 6.73276 5.46529 6.6455C5.44993 6.55834 5.50872 6.47462 5.59615 6.45898Z" fill="white"/>
<path d="M11.3588 6.0957C11.4113 6.08645 11.4617 6.1207 11.4712 6.17284C11.4804 6.22508 11.4454 6.27568 11.393 6.28515C11.3405 6.29441 11.29 6.25931 11.2807 6.20702C11.2715 6.15475 11.3064 6.10512 11.3588 6.0957Z" fill="white"/>
<path d="M5.94479 5.09374C5.99732 5.08448 6.04777 5.1196 6.05709 5.17187C6.06631 5.22413 6.03139 5.27475 5.97897 5.28417C5.9265 5.29342 5.87608 5.25821 5.86666 5.20605C5.85744 5.15375 5.89233 5.10313 5.94479 5.09374Z" fill="white"/>
<path d="M9.07174 3.89062C9.15941 3.87516 9.24287 3.93418 9.25826 4.02148C9.27339 4.10862 9.21493 4.19159 9.1274 4.20702C9.03984 4.22238 8.95633 4.16431 8.94088 4.07714C8.92549 3.98986 8.98409 3.90609 9.07174 3.89062Z" fill="white"/>
<path d="M6.99166 3.60546C7.04419 3.5962 7.09464 3.63132 7.10397 3.68359C7.11319 3.73587 7.07829 3.78649 7.02584 3.79589C6.97337 3.80514 6.92295 3.76993 6.91354 3.71777C6.90432 3.66549 6.93924 3.61488 6.99166 3.60546Z" fill="white"/>
<path fill-rule="evenodd" clip-rule="evenodd" d="M7.00436 2.34667C10.4325 1.33937 13.4135 3.45115 13.9565 6.52929C14.5687 10 11.722 13.2023 8.53951 13.7637C5.357 14.3248 2.47676 12.9972 1.98483 9.12402C1.59648 6.0664 3.75207 3.30245 7.00436 2.34667ZM13.1167 6.41113C12.6039 3.50324 10.1666 2.04456 7.07467 2.93847C4.2311 3.76074 2.35785 6.28515 2.65475 8.66113C3.06092 11.9115 5.56657 13.0088 8.34713 12.5185C11.1275 12.0279 13.7649 9.06054 13.1167 6.41113Z" fill="white"/>
</svg>
