<svg width="16" height="16" viewBox="0 0 16 16" fill="none" xmlns="http://www.w3.org/2000/svg">
<path fill-rule="evenodd" clip-rule="evenodd" d="M12.0003 8.25008C14.0712 8.25018 15.7502 9.92912 15.7503 12.0001C15.7503 14.0711 14.0713 15.75 12.0003 15.7501C9.92923 15.7501 8.2503 14.0711 8.2503 12.0001C8.25036 9.92906 9.92927 8.25008 12.0003 8.25008ZM11.2679 9.76766C11.0813 9.71792 10.8892 9.82824 10.8392 10.0147C10.7892 10.2013 10.9007 10.3933 11.0872 10.4434C11.7375 10.6177 12.3121 11.0022 12.722 11.5362C13.1319 12.0704 13.3538 12.7251 13.3538 13.3985C13.3539 13.5917 13.5113 13.748 13.7044 13.7481C13.8976 13.748 14.054 13.5917 14.054 13.3985C14.054 12.5712 13.7812 11.7668 13.2776 11.1104C12.7739 10.454 12.0671 9.98181 11.2679 9.76766ZM10.7396 11.7081C10.5529 11.6581 10.3609 11.7695 10.3108 11.9561C10.2609 12.1428 10.3712 12.3348 10.5579 12.3848C10.7733 12.4426 10.9641 12.5693 11.0999 12.7462C11.2357 12.9231 11.3088 13.1404 11.3089 13.3634C11.3089 13.5567 11.4662 13.7139 11.6595 13.7139C11.8526 13.7137 12.0091 13.5565 12.0091 13.3634C12.009 12.9864 11.885 12.6195 11.6556 12.3204C11.426 12.0212 11.1038 11.8058 10.7396 11.7081Z" fill="white"/>
<path fill-rule="evenodd" clip-rule="evenodd" d="M7.99933 2.26082C11.5504 1.86434 14.1194 4.46224 14.1194 7.58797C14.1194 7.73246 14.1096 7.87592 14.097 8.01864C13.4709 7.68822 12.7575 7.50017 12.0003 7.50008C9.51506 7.50008 7.50037 9.51486 7.5003 12.0001C7.50031 12.6241 7.62715 13.2186 7.85675 13.7589C7.74741 13.7654 7.6378 13.7706 7.52862 13.7706C4.29693 13.7706 1.69113 11.9633 1.87921 8.06356C2.00308 5.49828 4.63037 2.63732 7.99933 2.26082ZM4.0296 9.91903C3.90497 9.91903 3.80401 10.0195 3.80401 10.1436C3.80433 10.2675 3.90516 10.3682 4.0296 10.3682C4.15358 10.3677 4.25488 10.2671 4.25519 10.1436C4.25519 10.0199 4.15377 9.91956 4.0296 9.91903ZM6.6087 8.63485C6.48409 8.63485 6.38217 8.73539 6.38214 8.85946C6.38237 8.98336 6.48421 9.08407 6.6087 9.08407C6.73269 9.08348 6.83406 8.983 6.83429 8.85946C6.83425 8.73575 6.73281 8.63543 6.6087 8.63485ZM9.44562 5.1036C8.64456 5.1036 7.99468 5.75037 7.99444 6.54793C7.99468 7.3455 8.64456 7.99325 9.44562 7.99325C10.2462 7.99267 10.8956 7.34515 10.8958 6.54793C10.8956 5.75072 10.2462 5.10417 9.44562 5.1036ZM3.96515 7.35067C3.87612 7.35067 3.80401 7.42316 3.80401 7.5118C3.80449 7.60004 3.87642 7.67196 3.96515 7.67196C4.05341 7.67141 4.12581 7.5997 4.12628 7.5118C4.12628 7.4235 4.0537 7.35122 3.96515 7.35067ZM11.637 6.70907C11.5839 6.7092 11.5406 6.75186 11.5403 6.80477C11.5406 6.85767 11.5839 6.90131 11.637 6.90145C11.69 6.90114 11.7335 6.85757 11.7337 6.80477C11.7335 6.75196 11.69 6.70937 11.637 6.70907ZM5.89874 6.06649C5.80986 6.06665 5.73761 6.13908 5.73761 6.22762C5.73796 6.31586 5.81008 6.38762 5.89874 6.38778C5.98725 6.38743 6.05952 6.31574 6.05987 6.22762C6.05987 6.13919 5.98746 6.06684 5.89874 6.06649ZM6.47882 4.78328C6.42568 4.78354 6.38223 4.82604 6.38214 4.87899C6.38238 4.93181 6.42578 4.97541 6.47882 4.97567C6.5318 4.97532 6.57623 4.93176 6.57647 4.87899C6.57638 4.82609 6.53189 4.78362 6.47882 4.78328ZM9.76788 4.14071C9.67886 4.14071 9.60675 4.2132 9.60675 4.30184C9.6072 4.3901 9.67914 4.462 9.76788 4.462C9.85619 4.46148 9.92857 4.38979 9.92901 4.30184C9.92901 4.21352 9.85647 4.14122 9.76788 4.14071ZM7.76886 3.4991C7.71557 3.4991 7.67239 3.5418 7.67218 3.59481C7.67242 3.64779 7.7156 3.69149 7.76886 3.69149C7.82181 3.69112 7.8653 3.64756 7.86554 3.59481C7.86533 3.54203 7.82183 3.49947 7.76886 3.4991Z" fill="white"/>
</svg>
