<svg width="16" height="16" viewBox="0 0 16 16" fill="none" xmlns="http://www.w3.org/2000/svg">
<path fill-rule="evenodd" clip-rule="evenodd" d="M0.5 6.96C0.5 6.27394 0.5 5.9309 0.633517 5.66886C0.750962 5.43836 0.938363 5.25096 1.16886 5.13352C1.4309 5 1.77394 5 2.46 5H13.94C14.6261 5 14.9691 5 15.2311 5.13352C15.4616 5.25096 15.649 5.43836 15.7665 5.66886C15.9 5.9309 15.9 6.27394 15.9 6.96V7.94C15.9 8.62606 15.9 8.9691 15.7665 9.23114C15.649 9.46164 15.4616 9.64904 15.2311 9.76648C14.9691 9.9 14.6261 9.9 13.94 9.9H2.46C1.77394 9.9 1.4309 9.9 1.16886 9.76648C0.938363 9.64904 0.750962 9.46164 0.633517 9.23114C0.5 8.9691 0.5 8.62606 0.5 7.94V6.96ZM9.425 7.44961C9.425 8.12616 8.87655 8.67461 8.2 8.67461C7.52345 8.67461 6.975 8.12616 6.975 7.44961C6.975 6.77306 7.52345 6.22461 8.2 6.22461C8.87655 6.22461 9.425 6.77306 9.425 7.44961ZM2.95 6.05H1.9V8.85H2.95V6.05ZM14.5 6.05V8.85H13.45V6.05H14.5Z" fill="white"/>
<path d="M4 10.625C3.72386 10.625 3.5 10.8489 3.5 11.125C3.5 11.4011 3.72386 11.625 4 11.625H12.4C12.6761 11.625 12.9 11.4011 12.9 11.125C12.9 10.8489 12.6761 10.625 12.4 10.625H4Z" fill="white"/>
</svg>
