<svg width="16" height="16" viewBox="0 0 16 16" fill="none" xmlns="http://www.w3.org/2000/svg">
<path d="M9.40001 3.25059C9.40001 4.02378 8.7732 4.65059 8.00001 4.65059C7.22681 4.65059 6.60001 4.02378 6.60001 3.25059C6.60001 2.47739 7.22681 1.85059 8.00001 1.85059C8.7732 1.85059 9.40001 2.47739 9.40001 3.25059Z" fill="white"/>
<path d="M7.99999 5.35059C9.15979 5.35059 10.1 4.41038 10.1 3.25059C10.1 3.13134 10.0901 3.01441 10.071 2.90059H13.775C14.4515 2.90059 15 3.44904 15 4.12559V10.7756C15 11.4521 14.4515 12.0006 13.775 12.0006H2.225C1.54845 12.0006 1 11.4521 1 10.7756V4.12559C1 3.44904 1.54845 2.90059 2.225 2.90059H5.92903C5.90993 3.01441 5.89999 3.13134 5.89999 3.25059C5.89999 4.41038 6.8402 5.35059 7.99999 5.35059Z" fill="white"/>
<path d="M7.99995 14.1008C6.68672 14.1008 5.49862 13.565 4.64229 12.7002H11.3576C10.5013 13.565 9.31318 14.1008 7.99995 14.1008Z" fill="white"/>
</svg>
