<svg width="16" height="16" viewBox="0 0 16 16" fill="none" xmlns="http://www.w3.org/2000/svg">
<path d="M13.5588 11.6004C13.5104 11.7184 13.4719 11.8404 13.4466 11.9672L13.3059 12.6704C13.1862 13.2691 12.6605 13.7 12.05 13.7C11.4395 13.7 10.9138 13.2691 10.7941 12.6704L10.6534 11.9672C10.6281 11.8404 10.5896 11.7184 10.5412 11.6004H13.5588Z" fill="white"/>
<path d="M13.9672 10.9004C14.057 10.777 14.1514 10.6566 14.2456 10.5378C14.624 10.0604 14.85 9.45658 14.85 8.8C14.85 7.2536 13.5964 6 12.05 6C10.5036 6 9.25 7.2536 9.25 8.8C9.25 9.45658 9.47599 10.0604 9.85443 10.5378C9.94857 10.6566 10.043 10.777 10.1328 10.9004H13.9672Z" fill="white"/>
<path d="M9.36541 3.07812H13.7964C14.4592 3.07812 14.9964 3.61538 14.9964 4.27812V6.64429C14.7221 6.2804 14.3831 5.96808 13.9964 5.72443V4.27812C13.9964 4.16767 13.9069 4.07812 13.7964 4.07812H9.23004C8.99105 4.51181 8.52901 4.80568 7.99822 4.80568C7.46743 4.80568 7.00539 4.51181 6.7664 4.07812H2.2C2.08954 4.07812 2 4.16767 2 4.27813V10.9363C2 11.0468 2.08954 11.1363 2.2 11.1363H8.98992C9.29022 11.5397 9.66971 11.8807 10.1054 12.1363H5.30451C5.36052 12.2006 5.42254 12.2664 5.49095 12.3322C5.95523 12.779 6.73393 13.2487 7.99821 13.2487C9.05447 13.2487 9.7718 12.9208 10.25 12.5524V13.7338C9.66968 14.0361 8.92899 14.2487 7.99821 14.2487C6.45245 14.2487 5.43097 13.6623 4.79758 13.0528C4.4851 12.7521 4.27193 12.4509 4.13571 12.2223C4.1179 12.1924 4.10136 12.1637 4.08606 12.1363H2.2C1.53726 12.1363 1 11.599 1 10.9363V4.27813C1 3.61538 1.53726 3.07812 2.2 3.07812H6.63103C6.77776 2.45992 7.3342 2 7.99822 2C8.66224 2 9.21868 2.45992 9.36541 3.07812Z" fill="white"/>
</svg>
