<svg width="16" height="16" viewBox="0 0 16 16" fill="none" xmlns="http://www.w3.org/2000/svg">
<path d="M7.99979 2.61663C6.61228 2.61663 5.34586 3.14415 4.39004 4.00964C3.30166 4.99523 2.61771 6.41883 2.61716 7.99973C2.61716 9.38755 3.14537 10.6542 4.01033 11.6101C4.99591 12.6985 6.42024 13.3828 8.00057 13.3828C9.38824 13.3827 10.6548 12.8544 11.6106 11.9894C12.699 11.0038 13.3834 9.57955 13.3834 7.99917C13.3834 7.95135 13.3823 7.90353 13.3812 7.85571L14.8879 6.74533C14.9615 7.15265 15 7.57151 15 7.99973C15 9.93277 14.2163 11.6831 12.9496 12.9494C11.6826 14.2164 9.93272 15 8.00007 15L7.9829 15C6.05697 14.9952 4.31353 14.2125 3.05068 12.9493C1.78366 11.6823 1 9.93243 1 7.99973C1 6.06708 1.78331 4.31701 3.04992 3.05033C4.31694 1.7833 6.06714 1 7.99979 1C9.66535 1 11.1953 1.58157 12.3969 2.55287L11.0353 3.55605C10.2398 3.01133 9.29156 2.6737 8.26862 2.62366C8.22086 2.6213 8.17291 2.61993 8.12484 2.61854C8.08351 2.61762 8.04134 2.61661 7.99979 2.61663Z" fill="white"/>
<path d="M14.3784 5.11111C14.1525 4.61364 13.8699 4.14695 13.5395 3.71985L8.00041 7.80238L5.33556 6.13187V8.14153L8.00041 9.81204L14.3784 5.11111Z" fill="white"/>
</svg>
