<svg width="16" height="16" viewBox="0 0 16 16" fill="none" xmlns="http://www.w3.org/2000/svg">
<path fill-rule="evenodd" clip-rule="evenodd" d="M13.3562 1.35594C13.2878 1.2876 13.177 1.2876 13.1087 1.35594L11.995 2.46964C11.758 2.7066 11.7265 3.07118 11.9003 3.34213L9.14819 6.09426C8.78666 5.73865 8.50481 5.48778 8.19514 5.33506C7.47019 4.97756 6.62019 4.97756 5.89524 5.33506C5.50891 5.52558 5.16588 5.86887 4.65743 6.3777L2.78611 8.24902C2.27728 8.75747 1.93399 9.1005 1.74347 9.48683C1.38596 10.2118 1.38596 11.0618 1.74347 11.7867C1.93399 12.1731 2.27728 12.5161 2.78611 13.0245L2.92502 13.1635C3.43347 13.6723 3.7765 14.0156 4.16283 14.2061C4.88778 14.5636 5.73778 14.5636 6.46273 14.2061C6.84906 14.0156 7.19209 13.6723 7.70054 13.1634L9.57186 11.2921C10.0807 10.7837 10.424 10.4406 10.6145 10.0543C10.972 9.32937 10.972 8.47937 10.6145 7.75442C10.4618 7.44475 10.2109 7.16289 9.8553 6.80137L12.6074 4.04924C12.8784 4.22308 13.243 4.19152 13.4799 3.95456L14.5936 2.84087C14.662 2.77253 14.662 2.66172 14.5936 2.59338L13.3562 1.35594ZM8.79528 7.15428C8.19063 6.54964 7.97111 6.33957 7.75285 6.23194C7.30673 6.01193 6.78365 6.01193 6.33753 6.23194C6.11927 6.33957 5.89974 6.54964 5.2951 7.15428L3.56269 8.88669C2.95805 9.49134 2.74798 9.71086 2.64035 9.92912C2.42034 10.3752 2.42034 10.8983 2.64035 11.3444C2.74798 11.5627 2.95805 11.7822 3.56269 12.3869C4.16733 12.9915 4.38686 13.2016 4.60512 13.3092C5.05124 13.5292 5.57432 13.5292 6.02044 13.3092C6.2387 13.2016 6.45822 12.9915 7.06287 12.3869L8.79528 10.6545C9.39992 10.0498 9.60999 9.83029 9.71762 9.61203C9.93763 9.16591 9.93763 8.64283 9.71762 8.19671C9.60999 7.97845 9.39992 7.75892 8.79528 7.15428Z" fill="white"/>
</svg>
