<svg width="16" height="16" viewBox="0 0 16 16" fill="none" xmlns="http://www.w3.org/2000/svg">
<path fill-rule="evenodd" clip-rule="evenodd" d="M1.525 2.75C1.23505 2.75 1 2.98505 1 3.275C1 3.48696 1.12561 3.66958 1.30645 3.75249C1.11383 3.91235 1 4.15051 1 4.5V6.76333C1 9.0823 1.50051 10.1269 2.10049 10.7814C2.24096 10.9347 2.37932 11.0582 2.49319 11.1589L2.50913 11.173C2.62113 11.272 2.69788 11.3398 2.76221 11.41C2.86474 11.5218 2.925 11.6232 2.925 11.85L2.925 11.8518V12.3746C2.925 12.8579 3.31675 13.2496 3.8 13.2496H12.2C12.6833 13.2496 13.075 12.8579 13.075 12.3746V11.8496C13.0751 11.6231 13.1353 11.5218 13.2378 11.41C13.3021 11.3398 13.3788 11.272 13.4908 11.173L13.5068 11.1589C13.6207 11.0582 13.759 10.9347 13.8995 10.7814C14.4995 10.1269 15 9.0823 15 6.76333V4.5C15 4.15051 14.8862 3.91235 14.6936 3.75249C14.8744 3.66958 15 3.48696 15 3.275C15 2.98505 14.7649 2.75 14.475 2.75H1.525ZM3.79663 9.00108C3.76983 8.80965 3.59292 8.67619 3.40149 8.70299C3.21005 8.72979 3.07659 8.9067 3.10339 9.09813C3.17126 9.58295 3.27686 9.93496 3.40415 10.2125C3.5319 10.4912 3.67551 10.6807 3.794 10.8345L3.79821 10.8399C3.91612 10.9929 3.99285 11.0924 4.05007 11.2266C4.10565 11.3569 4.15001 11.5404 4.15001 11.8496C4.15001 12.0429 4.30671 12.1996 4.50001 12.1996C4.69331 12.1996 4.85001 12.0429 4.85001 11.8496C4.85001 11.4708 4.79519 11.1894 4.69397 10.952C4.6009 10.7338 4.47449 10.5702 4.36812 10.4326L4.34842 10.4071C4.23648 10.2619 4.13361 10.124 4.04044 9.92078C3.9468 9.71656 3.85702 9.43246 3.79663 9.00108ZM13.2466 9.09813C13.2734 8.9067 13.14 8.72979 12.9485 8.70299C12.7571 8.67619 12.5802 8.80965 12.5534 9.00108C12.4947 9.42047 12.3882 9.69276 12.2722 9.88775C12.1554 10.0842 12.0189 10.2202 11.8641 10.3658L11.8258 10.4017C11.6844 10.5337 11.5126 10.6943 11.3832 10.9082C11.2338 11.1552 11.15 11.4525 11.15 11.8496C11.15 12.0429 11.3067 12.1996 11.5 12.1996C11.6933 12.1996 11.85 12.0429 11.85 11.8496C11.85 11.5587 11.9092 11.3911 11.9822 11.2705C12.0595 11.1427 12.1629 11.0455 12.3198 10.8981L12.3436 10.8758C12.5067 10.7224 12.7042 10.5309 12.8739 10.2456C13.0444 9.95875 13.1771 9.59494 13.2466 9.09813ZM6.14722 9.03359C6.13838 8.8405 5.97467 8.69113 5.78157 8.69998C5.58848 8.70882 5.43911 8.87253 5.44795 9.06563C5.50469 10.3042 5.6317 10.7076 5.77799 10.9908C5.79789 11.0294 5.81395 11.0589 5.82731 11.0835C5.86184 11.1471 5.87837 11.1775 5.89652 11.2436C5.9221 11.3369 5.94615 11.5013 5.94615 11.8496C5.94615 12.0429 6.10285 12.1996 6.29614 12.1996C6.48944 12.1996 6.64614 12.0429 6.64614 11.8496C6.64614 11.48 6.6219 11.2418 6.57155 11.0584C6.53003 10.9071 6.46792 10.7941 6.42518 10.7164C6.41566 10.6991 6.4071 10.6835 6.39994 10.6696C6.32502 10.5246 6.20275 10.2458 6.14722 9.03359ZM10.5522 9.06563C10.5611 8.87253 10.4117 8.70882 10.2186 8.69998C10.0255 8.69113 9.86181 8.8405 9.85296 9.03359C9.79743 10.2458 9.67516 10.5246 9.60024 10.6696C9.59309 10.6835 9.58453 10.6991 9.575 10.7164C9.53227 10.7941 9.47015 10.9071 9.42863 11.0584C9.37828 11.2418 9.35404 11.48 9.35404 11.8496C9.35404 12.0429 9.51074 12.1996 9.70404 12.1996C9.89734 12.1996 10.054 12.0429 10.054 11.8496C10.054 11.5013 10.0781 11.3369 10.1037 11.2436C10.1218 11.1775 10.1383 11.1472 10.1729 11.0836C10.1862 11.059 10.2023 11.0294 10.2222 10.9908C10.3685 10.7076 10.4955 10.3042 10.5522 9.06563ZM8.35009 9.04961C8.35009 8.85631 8.19339 8.69961 8.00009 8.69961C7.80679 8.69961 7.65009 8.85631 7.65009 9.04961V11.8496C7.65009 12.0429 7.80679 12.1996 8.00009 12.1996C8.19339 12.1996 8.35009 12.0429 8.35009 11.8496V9.04961Z" fill="white"/>
</svg>
