<svg width="16" height="16" viewBox="0 0 16 16" fill="none" xmlns="http://www.w3.org/2000/svg">
<path fill-rule="evenodd" clip-rule="evenodd" d="M4.11584 0.975052C4.19558 0.783451 4.38737 0.648438 4.61128 0.648438H11.3873C11.6111 0.648438 11.8029 0.783339 11.8827 0.974813C12.1074 1.08096 12.3482 1.24309 12.5802 1.49077C13.2342 2.18872 13.749 3.49168 13.749 5.89864V8.69864C13.749 10.8565 13.3349 11.9385 12.8879 12.6698C12.7796 12.8468 12.6722 12.9989 12.5777 13.1315L12.5599 13.1564C12.4709 13.2812 12.3983 13.383 12.3362 13.4846C12.2135 13.6853 12.1442 13.8653 12.1442 14.1236H12.1008V14.4727C12.1008 14.9559 11.7091 15.3477 11.2258 15.3477H4.77323C4.28998 15.3477 3.89823 14.9559 3.89823 14.4727V14.1236H3.85485C3.85485 13.8653 3.78554 13.6853 3.66282 13.4846C3.60071 13.383 3.52807 13.2812 3.43907 13.1563L3.42134 13.1315C3.32684 12.9989 3.2194 12.8468 3.11115 12.6698C2.66407 11.9385 2.25 10.8565 2.25 8.69864V5.89864C2.25 3.49168 2.76483 2.18872 3.41879 1.49077C3.65067 1.24328 3.89127 1.0812 4.11584 0.975052ZM5.9728 1.69844H6.12572C5.92926 2.36159 5.75485 3.58889 5.75485 5.89864V8.69864C5.75485 10.8104 5.84757 11.7934 5.94348 12.4531C5.96742 12.6178 5.9906 12.7575 6.01191 12.886C6.05276 13.1323 6.08676 13.3373 6.10619 13.5977H5.5949C5.53564 13.2068 5.41462 12.9164 5.292 12.6222C5.24272 12.504 5.19318 12.3851 5.14729 12.2589C4.93723 11.6809 4.71019 10.7677 4.71019 8.69864V5.89864L4.71012 5.89121C4.67076 3.77253 5.12141 2.68755 5.52389 2.143C5.68727 1.92195 5.84699 1.78379 5.9728 1.69844ZM4.48846 1.68453C4.52789 1.69363 4.56902 1.69844 4.61128 1.69844H4.85795C4.32772 2.43364 3.86992 3.70542 3.91019 5.90233V8.69864C3.91019 10.8295 4.14432 11.8413 4.39542 12.5322C4.46184 12.7149 4.52329 12.8633 4.57785 12.995C4.66882 13.2147 4.74066 13.3882 4.78453 13.5977H4.58455C4.52898 13.4011 4.44442 13.2293 4.34537 13.0673C4.26776 12.9404 4.17903 12.816 4.09447 12.6975L4.0728 12.6672C3.97922 12.5359 3.88605 12.4036 3.7937 12.2525C3.43835 11.6713 3.05 10.7408 3.05 8.69864V5.89864C3.05 3.58059 3.54974 2.52105 4.00257 2.03775C4.16758 1.86165 4.3354 1.75236 4.48846 1.68453ZM6.90777 13.5977C6.8857 13.2611 6.84339 13.0066 6.79726 12.7292C6.77683 12.6063 6.75565 12.4789 6.73515 12.338C6.64659 11.7288 6.55485 10.7869 6.55485 8.69864V5.89864C6.55485 3.54687 6.73964 2.41483 6.90559 1.8835C6.92917 1.80801 6.95162 1.74716 6.97194 1.69844H7.59951V13.5977H6.90777ZM8.39951 13.5977H9.09124C9.11331 13.2611 9.15562 13.0066 9.20175 12.7292C9.22218 12.6063 9.24336 12.4789 9.26386 12.338C9.35242 11.7288 9.44416 10.7869 9.44416 8.69864V5.89864C9.44416 3.54688 9.25937 2.41485 9.09342 1.88351C9.06984 1.80801 9.0474 1.74716 9.02707 1.69844H8.39951V13.5977ZM9.87329 1.69844H9.93364C10.0695 1.80604 10.2504 1.98104 10.4356 2.25375C10.8425 2.85273 11.2888 3.95109 11.2888 5.89864V8.69857C11.2888 10.7676 11.0618 11.6809 10.8517 12.2589C10.8058 12.3851 10.7563 12.504 10.707 12.6222C10.5844 12.9164 10.4634 13.2068 10.4041 13.5977H9.89283C9.91225 13.3373 9.94625 13.1323 9.9871 12.886C10.0084 12.7575 10.0316 12.6178 10.0555 12.4531C10.1514 11.7934 10.2442 10.8104 10.2442 8.69864V5.89864C10.2442 3.58889 10.0697 2.36159 9.87329 1.69844ZM11.2145 13.5977C11.2584 13.3882 11.3302 13.2147 11.4212 12.995C11.4757 12.8633 11.5372 12.7149 11.6036 12.5322C11.8478 11.8604 12.0759 10.8851 12.0883 8.87243L12.0888 8.8715V5.89864C12.0888 3.82712 11.6128 2.56298 11.0974 1.80422C11.0726 1.76774 11.0478 1.73249 11.0229 1.69844H11.3873C11.4297 1.69844 11.4709 1.69361 11.5104 1.68447C11.6635 1.75229 11.8314 1.86159 11.9964 2.03775C12.4493 2.52105 12.949 3.58059 12.949 5.89864V8.69864C12.949 10.7408 12.5607 11.6713 12.2053 12.2525C12.113 12.4036 12.0198 12.5359 11.9262 12.6672L11.9046 12.6975C11.82 12.816 11.7313 12.9404 11.6536 13.0673C11.5546 13.2293 11.47 13.4011 11.4145 13.5977H11.2145Z" fill="white"/>
</svg>
