<svg width="16" height="16" viewBox="0 0 16 16" fill="none" xmlns="http://www.w3.org/2000/svg">
<path fill-rule="evenodd" clip-rule="evenodd" d="M10.9249 1.175C10.9249 1.07835 11.0033 1 11.0999 1H12.4999C12.5966 1 12.6749 1.07835 12.6749 1.175V2.4C12.6749 2.66929 12.5228 2.90306 12.2999 3.02014V7.32692C12.4861 7.32936 12.6525 7.3349 12.8002 7.34746C13.0755 7.37087 13.3311 7.42138 13.5706 7.54935C13.902 7.72649 14.1734 7.99793 14.3506 8.32934C14.4785 8.56876 14.529 8.82445 14.5524 9.0997C14.5749 9.36395 14.5749 9.68825 14.5749 10.0787V12.2213C14.5749 12.6117 14.5749 12.936 14.5524 13.2003C14.529 13.4756 14.4785 13.7312 14.3506 13.9707C14.1734 14.3021 13.902 14.5735 13.5706 14.7506C13.3311 14.8786 13.0755 14.9291 12.8002 14.9525C12.5359 14.975 12.2116 14.975 11.8212 14.975H11.7786C11.3882 14.975 11.0639 14.975 10.7996 14.9525C10.5244 14.9291 10.2687 14.8786 10.0292 14.7506C9.69784 14.5735 9.4264 14.3021 9.24925 13.9707C9.12128 13.7312 9.07078 13.4756 9.04737 13.2003C9.02489 12.9361 9.0249 12.6118 9.0249 12.2213V10.0787C9.0249 9.68827 9.02489 9.36395 9.04737 9.0997C9.07078 8.82445 9.12128 8.56876 9.24925 8.32934C9.4264 7.99793 9.69784 7.72649 10.0292 7.54935C10.2687 7.42138 10.5244 7.37087 10.7996 7.34746C10.9473 7.3349 11.1137 7.32936 11.2999 7.32692V3.02014C11.077 2.90306 10.9249 2.66929 10.9249 2.4V1.175ZM13.0992 13.8687C13.0293 13.9061 12.9261 13.9382 12.7154 13.9561C12.4986 13.9746 12.2171 13.975 11.7999 13.975C11.3827 13.975 11.1012 13.9746 10.8844 13.9561C10.6737 13.9382 10.5705 13.9061 10.5006 13.8687C10.3437 13.7848 10.2151 13.6562 10.1312 13.4993C10.0938 13.4294 10.0617 13.3262 10.0438 13.1155C10.0253 12.8987 10.0249 12.6172 10.0249 12.2V10.1C10.0249 9.68283 10.0253 9.40129 10.0438 9.18445C10.0617 8.97383 10.0938 8.8706 10.1312 8.80074C10.2151 8.64376 10.3437 8.51518 10.5006 8.43127C10.5705 8.39393 10.6737 8.36178 10.8844 8.34386C11.1012 8.32542 11.3827 8.325 11.7999 8.325C12.2171 8.325 12.4986 8.32542 12.7154 8.34386C12.9261 8.36178 13.0293 8.39393 13.0992 8.43127C13.2561 8.51518 13.3847 8.64376 13.4686 8.80074C13.506 8.8706 13.5381 8.97383 13.556 9.18445C13.5745 9.40129 13.5749 9.68283 13.5749 10.1V12.2C13.5749 12.6172 13.5745 12.8987 13.556 13.1155C13.5381 13.3262 13.506 13.4294 13.4686 13.4993C13.3847 13.6562 13.2561 13.7848 13.0992 13.8687Z" fill="white"/>
<path d="M4.79991 6.5997C5.37981 6.5997 5.84991 6.1296 5.84991 5.5497C5.84991 4.9698 5.37981 4.4997 4.79991 4.4997C4.22001 4.4997 3.74991 4.9698 3.74991 5.5497C3.74991 6.1296 4.22001 6.5997 4.79991 6.5997Z" fill="white"/>
<path d="M5.32491 7.8247C5.32491 8.11465 5.08986 8.3497 4.79991 8.3497C4.50996 8.3497 4.27491 8.11465 4.27491 7.8247C4.27491 7.53475 4.50996 7.2997 4.79991 7.2997C5.08986 7.2997 5.32491 7.53475 5.32491 7.8247Z" fill="white"/>
<path fill-rule="evenodd" clip-rule="evenodd" d="M5.69363 14.9747C5.92263 14.9747 6.12386 14.9747 6.29032 14.9611C6.46715 14.9467 6.64832 14.9144 6.82414 14.8248C7.08287 14.693 7.29321 14.4827 7.42504 14.2239C7.51462 14.0481 7.54688 13.8669 7.56132 13.6901C7.57492 13.5236 7.57492 13.3224 7.57491 13.0934V3.60597C7.57492 3.37697 7.57492 3.17575 7.56132 3.00929C7.54688 2.83246 7.51462 2.65128 7.42504 2.47546C7.29321 2.21674 7.08287 2.00639 6.82414 1.87457C6.64832 1.78498 6.46715 1.75273 6.29032 1.73828C6.12386 1.72468 5.92265 1.72469 5.69366 1.7247H3.90617C3.67717 1.72469 3.47595 1.72468 3.30949 1.73828C3.13266 1.75273 2.95149 1.78498 2.77567 1.87457C2.51694 2.00639 2.3066 2.21674 2.17477 2.47546C2.08519 2.65128 2.05293 2.83246 2.03849 3.00929C2.02489 3.17574 2.02489 3.37694 2.0249 3.60593V13.0934C2.02489 13.3224 2.02489 13.5237 2.03849 13.6901C2.05293 13.8669 2.08519 14.0481 2.17477 14.2239C2.3066 14.4827 2.51694 14.693 2.77567 14.8248C2.95149 14.9144 3.13266 14.9467 3.30949 14.9611C3.47595 14.9747 3.67715 14.9747 3.90614 14.9747H5.69363ZM6.37015 13.9338C6.3588 13.9396 6.32388 13.955 6.20889 13.9644C6.08806 13.9743 5.92818 13.9747 5.67491 13.9747H3.9249C3.67163 13.9747 3.51175 13.9743 3.39092 13.9644C3.27593 13.955 3.24101 13.9396 3.22966 13.9338C3.1591 13.8979 3.10173 13.8405 3.06578 13.7699C3.05999 13.7586 3.04456 13.7237 3.03517 13.6087C3.02529 13.4879 3.0249 13.328 3.0249 13.0747V3.6247C3.0249 3.37143 3.02529 3.21154 3.03517 3.09072C3.04456 2.97573 3.05999 2.94081 3.06578 2.92945C3.10173 2.85889 3.1591 2.80152 3.22966 2.76557C3.24101 2.75979 3.27593 2.74435 3.39092 2.73496C3.51175 2.72509 3.67163 2.7247 3.92491 2.7247H5.67491C5.92818 2.7247 6.08806 2.72509 6.20889 2.73496C6.32388 2.74435 6.3588 2.75979 6.37015 2.76557C6.44071 2.80152 6.49808 2.85889 6.53403 2.92945C6.53982 2.94081 6.55525 2.97573 6.56464 3.09072C6.57452 3.21154 6.57491 3.37143 6.57491 3.6247V13.0747C6.57491 13.328 6.57452 13.4879 6.56464 13.6087C6.55525 13.7237 6.53982 13.7586 6.53403 13.7699C6.49808 13.8405 6.44071 13.8979 6.37015 13.9338Z" fill="white"/>
</svg>
