<svg width="16" height="16" viewBox="0 0 16 16" fill="none" xmlns="http://www.w3.org/2000/svg">
<path d="M11.8841 6.32805C12.0895 6.53267 12.0901 6.86508 11.8855 7.07051L10.2734 8.68888C10.1111 8.86594 9.84245 8.91363 9.62539 8.78911L7.99841 7.85578C7.7469 7.7115 7.65998 7.39066 7.80425 7.13915C7.94853 6.88765 8.26938 6.80072 8.52088 6.945L9.79845 7.67789L11.1416 6.32949C11.3462 6.12407 11.6786 6.12342 11.8841 6.32805Z" fill="white"/>
<path fill-rule="evenodd" clip-rule="evenodd" d="M6.06004 3.77454C6.25875 3.51771 6.49332 3.29092 6.7636 3.10083C7.34384 2.69273 8.02349 2.49957 8.74089 2.5C10.444 2.50098 12.3599 3.59295 13.6638 5.49028C15.5169 8.18681 15.4322 11.489 13.4746 12.8658C12.9707 13.2202 12.3919 13.4125 11.7785 13.4567C11.6909 13.463 11.6026 13.4663 11.5137 13.4666L2.91382 13.4677C1.28682 13.4677 0.357111 11.3659 1.51927 9.73296L6.06004 3.77454ZM5.23852 6.50236L2.32551 10.3248C1.95061 10.8597 1.93532 11.43 2.09965 11.8427C2.26695 12.2628 2.58113 12.4676 2.91373 12.4677L8.54865 12.467C7.82035 11.9704 7.13986 11.2991 6.57445 10.4764C5.69585 9.19794 5.25285 7.78335 5.23852 6.50236ZM12.7984 6.08498C13.6121 7.26902 13.9766 8.55402 13.9486 9.646C13.9205 10.7401 13.5104 11.5569 12.8705 12.007C12.4887 12.2756 12.0297 12.4148 11.51 12.4167C10.2312 12.4212 8.60226 11.5732 7.4398 9.88169C5.99742 7.78288 6.027 5.53324 6.89057 4.41707C7.02706 4.24066 7.18596 4.08752 7.36773 3.95968C8.00493 3.51152 8.89549 3.40913 9.90933 3.76022C10.9235 4.11141 11.9846 4.90076 12.7984 6.08498Z" fill="white"/>
</svg>
