<svg width="16" height="16" viewBox="0 0 16 16" fill="none" xmlns="http://www.w3.org/2000/svg">
<path fill-rule="evenodd" clip-rule="evenodd" d="M12 8.25C14.0711 8.25 15.75 9.92893 15.75 12C15.75 14.0711 14.0711 15.75 12 15.75C9.92893 15.75 8.25 14.0711 8.25 12C8.25 9.92893 9.92893 8.25 12 8.25ZM11.2686 9.76758C11.082 9.71764 10.89 9.82811 10.8398 10.0146C10.7898 10.2014 10.9012 10.3933 11.0879 10.4434C11.738 10.6177 12.3129 11.0021 12.7227 11.5361C13.1325 12.0703 13.3545 12.7251 13.3545 13.3984C13.3545 13.5917 13.5118 13.748 13.7051 13.748C13.898 13.7477 14.0546 13.5915 14.0547 13.3984C14.0547 12.5712 13.7818 11.7667 13.2783 11.1104C12.7747 10.454 12.0677 9.98181 11.2686 9.76758ZM10.7393 11.708C10.5526 11.658 10.3606 11.7694 10.3105 11.9561C10.2606 12.1427 10.3709 12.3347 10.5576 12.3848C10.773 12.4425 10.9638 12.5692 11.0996 12.7461C11.2354 12.923 11.3085 13.1403 11.3086 13.3633C11.3086 13.5566 11.4659 13.7138 11.6592 13.7139C11.8524 13.7137 12.0088 13.5565 12.0088 13.3633C12.0087 12.9862 11.8848 12.6195 11.6553 12.3203C11.4257 12.0211 11.1035 11.8057 10.7393 11.708Z" fill="white"/>
<path d="M14.4668 2.5C14.7612 2.50015 14.9999 2.73879 15 3.0332C15 3.25143 14.8683 3.43787 14.6807 3.52051C14.7248 3.6566 14.7387 3.79079 14.7402 3.91602C14.7421 4.06616 14.7282 4.24739 14.7139 4.44727L14.4434 8.22266C14.1431 8.02801 13.8185 7.86831 13.4746 7.74902L13.7168 4.37598C13.7323 4.15911 13.7414 4.02713 13.7402 3.92871C13.7394 3.86398 13.7334 3.83732 13.7314 3.83008C13.7134 3.78985 13.6824 3.75622 13.6436 3.73535C13.6358 3.73273 13.609 3.726 13.5459 3.7207C13.4479 3.71248 13.3158 3.71191 13.0986 3.71191H2.9043C2.68672 3.71191 2.55417 3.71246 2.45605 3.7207C2.36368 3.72848 2.34998 3.73986 2.3584 3.73535C2.31949 3.75625 2.28858 3.78978 2.27051 3.83008C2.27439 3.82138 2.26385 3.83595 2.2627 3.92871C2.26148 4.02713 2.27062 4.15908 2.28613 4.37598L2.78809 11.4043C2.80626 11.6585 2.82016 11.8321 2.83789 11.9658H7.50098C7.50089 11.9772 7.5 11.9886 7.5 12C7.5 12.5262 7.59186 13.0307 7.75781 13.5H3.96484C3.6974 13.5 3.46735 13.5003 3.27832 13.4854C3.08326 13.4699 2.89154 13.4357 2.70508 13.3457C2.42394 13.21 2.18964 12.9924 2.03418 12.7217C1.93115 12.5421 1.88382 12.3527 1.85449 12.1592C1.82609 11.9717 1.8101 11.7424 1.79102 11.4756L1.28809 4.44727C1.27379 4.2474 1.26084 4.06616 1.2627 3.91602C1.26426 3.79151 1.27679 3.65775 1.32031 3.52246C1.13182 3.44017 1 3.25202 1 3.0332C1.00015 2.73879 1.23879 2.50015 1.5332 2.5H14.4668Z" fill="white"/>
<path d="M4.84766 6.77539C4.99251 6.77539 5.11015 6.89328 5.11035 7.03809V9.17383C5.11014 9.31862 4.9925 9.43652 4.84766 9.43652C4.70282 9.43652 4.58518 9.31862 4.58496 9.17383V7.03809C4.58516 6.89328 4.7028 6.77539 4.84766 6.77539Z" fill="white"/>
<path fill-rule="evenodd" clip-rule="evenodd" d="M6.77246 6.77539C7.0139 6.77539 7.20966 6.97152 7.20996 7.21289V8.99902C7.20964 9.24037 7.01389 9.43652 6.77246 9.43652H5.89746C5.65613 9.43642 5.46028 9.24031 5.45996 8.99902V7.21289C5.46026 6.97159 5.65611 6.7755 5.89746 6.77539H6.77246ZM5.98535 8.91113H6.68555V8.36816H5.98535V8.91113ZM5.98535 7.84375H6.68555V7.30078H5.98535V7.84375Z" fill="white"/>
<path d="M7.99805 8.28418C8.19135 8.28418 8.34863 8.4442 8.34863 8.64062C8.34809 8.83658 8.19101 8.99609 7.99805 8.99609C7.80526 8.99588 7.64898 8.83644 7.64844 8.64062C7.64844 8.44434 7.80493 8.28439 7.99805 8.28418Z" fill="white"/>
<path d="M10.2754 6.77539C10.4202 6.77539 10.5379 6.89328 10.5381 7.03809V7.74414C10.1066 7.89233 9.70474 8.1037 9.34375 8.36816H9.22559C8.98414 8.36806 8.78823 8.1721 8.78809 7.93066V7.03809C8.78828 6.89328 8.90593 6.77539 9.05078 6.77539C9.19563 6.77539 9.31328 6.89328 9.31348 7.03809V7.84375H10.0137V7.03809C10.0139 6.89341 10.1307 6.7756 10.2754 6.77539Z" fill="white"/>
<path d="M7.99805 7.2168C8.19129 7.2168 8.34854 7.37593 8.34863 7.57227C8.34827 7.76838 8.19113 7.92773 7.99805 7.92773C7.80515 7.92752 7.64879 7.76825 7.64844 7.57227C7.64853 7.37606 7.80499 7.21701 7.99805 7.2168Z" fill="white"/>
<path d="M11.1484 6.77539C11.2933 6.77539 11.4109 6.89328 11.4111 7.03809V7.53906C11.2326 7.56241 11.0571 7.59503 10.8857 7.63867V7.03809C10.8859 6.89328 11.0036 6.77539 11.1484 6.77539Z" fill="white"/>
</svg>
