<svg width="16" height="16" viewBox="0 0 16 16" fill="none" xmlns="http://www.w3.org/2000/svg">
<path d="M6.68555 8.89551H5.98535V8.35547H6.68555V8.89551Z" fill="white"/>
<path d="M6.68555 7.83008H5.98535V7.29004H6.68555V7.83008Z" fill="white"/>
<path fill-rule="evenodd" clip-rule="evenodd" d="M14.4678 2.5C14.7617 2.5 15 2.73829 15 3.03223C15 3.242 14.8775 3.42111 14.7012 3.50781C14.7473 3.64843 14.7611 3.78648 14.7627 3.91406C14.7645 4.06545 14.7516 4.24788 14.7373 4.44727L14.2344 11.4521C14.2153 11.7185 14.1995 11.949 14.1709 12.1377C14.1413 12.3328 14.0926 12.5256 13.9873 12.709C13.8293 12.9839 13.5922 13.2049 13.3066 13.3428C13.1161 13.4348 12.9204 13.4688 12.7236 13.4844C12.5333 13.4994 12.3023 13.499 12.0352 13.499H3.96289C3.69577 13.499 3.4647 13.4994 3.27441 13.4844C3.07789 13.4688 2.88272 13.4346 2.69238 13.3428C2.40676 13.2049 2.16872 12.984 2.01074 12.709C1.90542 12.5256 1.85675 12.3328 1.82715 12.1377C1.79853 11.949 1.78277 11.7185 1.76367 11.4521L1.26172 4.44727C1.24742 4.24787 1.2335 4.06546 1.23535 3.91406C1.23694 3.78623 1.2505 3.64775 1.29688 3.50684C1.12161 3.41975 1 3.24121 1 3.03223C1 2.73829 1.23829 2.5 1.53223 2.5H14.4678ZM4.84766 6.76465C4.70271 6.76465 4.58501 6.88241 4.58496 7.02734V9.1582C4.58534 9.30285 4.70292 9.41992 4.84766 9.41992C4.9924 9.41992 5.10997 9.30285 5.11035 9.1582V7.02734C5.1103 6.88241 4.9926 6.76465 4.84766 6.76465ZM5.89746 6.76465C5.65602 6.76475 5.46012 6.96072 5.45996 7.20215V8.98242C5.46011 9.22386 5.65602 9.41982 5.89746 9.41992H6.77246C7.01399 9.41992 7.20981 9.22392 7.20996 8.98242V7.20215C7.20981 6.96066 7.01399 6.76465 6.77246 6.76465H5.89746ZM10.2754 6.76465C10.1306 6.76486 10.0137 6.88254 10.0137 7.02734V7.83008H9.31348V7.02734C9.31343 6.88241 9.19573 6.76465 9.05078 6.76465C8.90584 6.76465 8.78814 6.88241 8.78809 7.02734V7.91797C8.78846 8.15921 8.98428 8.35536 9.22559 8.35547H10.0137V9.1582C10.0141 9.30272 10.1308 9.41971 10.2754 9.41992C10.4201 9.41992 10.5377 9.30285 10.5381 9.1582V7.02734C10.538 6.88241 10.4203 6.76465 10.2754 6.76465ZM11.1484 6.76465C11.0035 6.76465 10.8858 6.88241 10.8857 7.02734V9.1582C10.8861 9.30285 11.0037 9.41992 11.1484 9.41992C11.2932 9.41992 11.4108 9.30285 11.4111 9.1582V7.02734C11.4111 6.88241 11.2934 6.76465 11.1484 6.76465ZM7.99805 8.27051C7.805 8.27072 7.64855 8.42927 7.64844 8.625C7.6487 8.8206 7.80509 8.97928 7.99805 8.97949C8.19119 8.97949 8.34837 8.82074 8.34863 8.625C8.34852 8.42914 8.19128 8.27051 7.99805 8.27051ZM7.99902 7.20508C7.80586 7.20508 7.64866 7.3638 7.64844 7.55957C7.6487 7.75531 7.80588 7.91504 7.99902 7.91504C8.19198 7.91483 8.34837 7.75518 8.34863 7.55957C8.34841 7.36394 8.192 7.20529 7.99902 7.20508Z" fill="white"/>
</svg>
