<svg width="16" height="16" viewBox="0 0 16 16" fill="none" xmlns="http://www.w3.org/2000/svg">
<path fill-rule="evenodd" clip-rule="evenodd" d="M14.0312 4.46862C14.8592 5.86775 15.1701 7.50766 14.9102 9.10858C14.6503 10.7094 13.8359 12.1705 12.6076 13.2434C11.3795 14.3162 9.81341 14.9348 8.17643 14.9954C6.53946 15.0561 4.93102 14.555 3.62513 13.5763C3.00968 13.1151 2.47929 12.5611 2.05061 11.9392V13.2504C2.05061 13.5404 1.81556 13.7754 1.52561 13.7754C1.23566 13.7754 1.00061 13.5404 1.00061 13.2504L1.00061 9.50093C1.00061 9.23499 1.19947 9.01105 1.46355 8.97962C1.72763 8.94818 1.97351 9.11918 2.03594 9.37769C2.35896 10.7152 3.14248 11.9024 4.25483 12.7361C5.36733 13.5698 6.73952 13.9979 8.13757 13.9462C9.53561 13.8944 10.8712 13.366 11.9168 12.4526C12.9624 11.5393 13.6533 10.2978 13.8738 8.9403C14.0942 7.58288 13.8308 6.19166 13.1276 5.00336C12.4243 3.8149 11.324 2.90223 10.013 2.42253C8.7018 1.9428 7.26226 1.92637 5.94013 2.37609C4.61811 2.82577 3.49666 3.71318 2.76563 4.88537C2.61219 5.1314 2.28837 5.20646 2.04234 5.05303C1.79631 4.8996 1.72125 4.57577 1.87469 4.32974C2.73508 2.95012 4.05277 1.90899 5.602 1.38202C7.15113 0.855087 8.83731 0.874306 10.3737 1.43646C11.9103 1.99866 13.2033 3.06964 14.0312 4.46862Z" fill="white"/>
<path fill-rule="evenodd" clip-rule="evenodd" d="M3.29687 8.00017C3.29687 5.48756 5.36221 3.45017 7.9093 3.45017C10.4564 3.45017 12.5217 5.48756 12.5217 8.00017C12.5217 10.5128 10.4564 12.5502 7.9093 12.5502C5.36221 12.5502 3.29687 10.5128 3.29687 8.00017ZM10.2308 7.32392C10.4372 7.1203 10.4395 6.78789 10.2359 6.58148C10.0323 6.37506 9.69986 6.37279 9.49344 6.57642L7.37852 8.66271L6.50541 7.80142C6.29899 7.59779 5.96659 7.60006 5.76296 7.80648C5.55934 8.01289 5.5616 8.3453 5.76802 8.54892L7.00983 9.77392C7.21426 9.97559 7.54278 9.97559 7.74721 9.77392L10.2308 7.32392Z" fill="white"/>
</svg>
