<svg width="16" height="16" viewBox="0 0 16 16" fill="none" xmlns="http://www.w3.org/2000/svg">
<path fill-rule="evenodd" clip-rule="evenodd" d="M4.62397 3.09703C5.79335 2.29447 7.21124 1.93486 8.62258 2.08298C10.0339 2.23111 11.3459 2.87723 12.3225 3.90494C13.2991 4.93263 13.8764 6.27445 13.9506 7.68902C13.9658 7.97857 14.2129 8.20098 14.5024 8.18578C14.792 8.17059 15.0144 7.92354 14.9992 7.63399C14.9118 5.96935 14.2325 4.39058 13.0836 3.18163C11.9348 1.97269 10.3918 1.2129 8.73218 1.03872C7.07261 0.864538 5.40519 1.28737 4.02981 2.2313C3.33511 2.70808 2.73793 3.302 2.26132 3.98058V2.66416C2.26132 2.37421 2.02627 2.13916 1.73632 2.13916C1.44637 2.13916 1.21132 2.37421 1.21132 2.66416V6.32453C1.21132 6.58795 1.40653 6.81059 1.6677 6.84502C1.92887 6.87945 2.17511 6.71501 2.24338 6.46059C2.61053 5.0923 3.4546 3.89957 4.62397 3.09703ZM2.04966 8.31133C2.03446 8.02178 1.78742 7.79937 1.49787 7.81457C1.20831 7.82976 0.985904 8.07681 1.0011 8.36636C1.08847 10.031 1.76777 11.6098 2.91666 12.8187C4.06553 14.0277 5.60855 14.7874 7.26813 14.9616C8.9277 15.1358 10.5951 14.713 11.9705 13.769C12.6652 13.2923 13.2624 12.6983 13.739 12.0198V13.3362C13.739 13.6261 13.974 13.8612 14.264 13.8612C14.5539 13.8612 14.789 13.6261 14.789 13.3362V9.67582C14.789 9.41239 14.5938 9.18975 14.3326 9.15532C14.0714 9.12089 13.8252 9.28533 13.7569 9.53976C13.3898 10.908 12.5457 12.1008 11.3763 12.9033C10.207 13.7059 8.78907 14.0655 7.37773 13.9174C5.96639 13.7692 4.65444 13.1231 3.67779 12.0954C2.70116 11.0677 2.1239 9.72589 2.04966 8.31133ZM8.35001 5.90037C8.35001 5.61042 8.58506 5.37537 8.87501 5.37537H11.3281C11.6181 5.37537 11.8531 5.61042 11.8531 5.90037C11.8531 6.19032 11.6181 6.42537 11.3281 6.42537H9.40001V7.47537H10.6281C11.3047 7.47537 11.8531 8.02382 11.8531 8.70037V9.40037C11.8531 10.0769 11.3047 10.6254 10.6281 10.6254H8.87501C8.58506 10.6254 8.35001 10.3903 8.35001 10.1004C8.35001 9.81042 8.58506 9.57537 8.87501 9.57537H10.6281C10.7248 9.57537 10.8031 9.49702 10.8031 9.40037V8.70037C10.8031 8.60372 10.7248 8.52537 10.6281 8.52537H8.87501C8.58506 8.52537 8.35001 8.29032 8.35001 8.00037V5.90037ZM5.01914 5.90037C5.01914 5.61042 4.78409 5.37537 4.49414 5.37537C4.20419 5.37537 3.96914 5.61042 3.96914 5.90037V8.00037C3.96914 8.29032 4.20419 8.52537 4.49414 8.52537H6.42225V10.1004C6.42225 10.3903 6.6573 10.6254 6.94725 10.6254C7.2372 10.6254 7.47225 10.3903 7.47225 10.1004V5.90037C7.47225 5.61042 7.2372 5.37537 6.94725 5.37537C6.6573 5.37537 6.42225 5.61042 6.42225 5.90037V7.47537H5.01914V5.90037Z" fill="white"/>
</svg>
