<svg width="16" height="16" viewBox="0 0 16 16" fill="none" xmlns="http://www.w3.org/2000/svg">
<path fill-rule="evenodd" clip-rule="evenodd" d="M1.39536 1.86242L1.38281 1.85787C1.31136 1.83196 1.23339 1.80368 1.16694 1.78484C1.11189 1.76922 0.964056 1.72748 0.796695 1.76563C0.615064 1.80704 0.465388 1.91082 0.363823 2.06577C0.2721 2.20571 0.259568 2.35265 0.255057 2.41205C0.249962 2.47912 0.249985 2.55901 0.250005 2.63001L0.250004 10.5049C0.249977 10.5648 0.249945 10.638 0.255212 10.7013C0.260605 10.766 0.275735 10.8983 0.359152 11.0291C0.455638 11.1803 0.602435 11.2866 0.777086 11.3317C0.929933 11.3711 1.06372 11.3437 1.12609 11.3293C1.18883 11.3148 1.26008 11.2922 1.31947 11.2734L1.33144 11.2696C1.63794 11.1724 2.13734 11.0297 2.81432 10.887C2.76816 10.609 2.74414 10.3235 2.74414 10.0323C2.74414 7.14773 5.10116 4.81648 7.99982 4.81648C10.8985 4.81648 13.2555 7.14773 13.2555 10.0323C13.2555 10.3234 13.2315 10.6089 13.1853 10.887C13.8625 11.0297 14.362 11.1724 14.6686 11.2696L14.6805 11.2733C14.7399 11.2922 14.8112 11.3148 14.8739 11.3293C14.9363 11.3437 15.0701 11.3711 15.2229 11.3317C15.3976 11.2866 15.5444 11.1803 15.6409 11.0291C15.7243 10.8983 15.7394 10.766 15.7448 10.7013C15.7501 10.638 15.75 10.5648 15.75 10.5049V2.63001C15.75 2.55901 15.75 2.47912 15.7449 2.41205C15.7404 2.35265 15.7279 2.20571 15.6362 2.06577C15.5346 1.91082 15.3849 1.80704 15.2033 1.76563C15.0359 1.72748 14.8881 1.76922 14.8331 1.78484C14.7666 1.80368 14.6886 1.83196 14.6172 1.85787L14.6046 1.86242C13.8433 2.13831 11.8303 2.69635 8 2.69635C4.16969 2.69635 2.15665 2.13831 1.39536 1.86242ZM3.74414 10.0323C3.74414 7.70793 5.6455 5.81648 7.99982 5.81648C10.3541 5.81648 12.2555 7.70793 12.2555 10.0323C12.2555 12.3567 10.3541 14.2481 7.99982 14.2481C5.6455 14.2481 3.74414 12.3567 3.74414 10.0323Z" fill="white"/>
</svg>
