<svg width="16" height="16" viewBox="0 0 16 16" fill="none" xmlns="http://www.w3.org/2000/svg">
<path fill-rule="evenodd" clip-rule="evenodd" d="M4.62397 3.09703C5.79335 2.29447 7.21124 1.93486 8.62258 2.08298C10.0339 2.23111 11.3459 2.87723 12.3225 3.90494C13.2991 4.93263 13.8764 6.27445 13.9506 7.68902C13.9658 7.97857 14.2129 8.20098 14.5024 8.18578C14.792 8.17059 15.0144 7.92354 14.9992 7.63399C14.9118 5.96935 14.2325 4.39058 13.0836 3.18163C11.9348 1.97269 10.3918 1.2129 8.73218 1.03872C7.07261 0.864538 5.40519 1.28737 4.02981 2.2313C3.33511 2.70808 2.73793 3.302 2.26132 3.98058V2.66416C2.26132 2.37421 2.02627 2.13916 1.73632 2.13916C1.44637 2.13916 1.21132 2.37421 1.21132 2.66416V6.32453C1.21132 6.58795 1.40653 6.81059 1.6677 6.84502C1.92887 6.87945 2.17511 6.71501 2.24338 6.46059C2.61053 5.0923 3.4546 3.89957 4.62397 3.09703ZM2.04966 8.31133C2.03446 8.02178 1.78742 7.79937 1.49787 7.81457C1.20831 7.82976 0.985904 8.07681 1.0011 8.36636C1.08847 10.031 1.76777 11.6098 2.91666 12.8187C4.06553 14.0277 5.60855 14.7874 7.26813 14.9616C8.9277 15.1358 10.5951 14.713 11.9705 13.769C12.6652 13.2923 13.2624 12.6983 13.739 12.0198V13.3362C13.739 13.6261 13.974 13.8612 14.264 13.8612C14.5539 13.8612 14.789 13.6261 14.789 13.3362V9.67582C14.789 9.41239 14.5938 9.18975 14.3326 9.15532C14.0714 9.12089 13.8252 9.28533 13.7569 9.53976C13.3898 10.908 12.5457 12.1008 11.3763 12.9033C10.207 13.7059 8.78907 14.0655 7.37773 13.9174C5.96639 13.7692 4.65444 13.1231 3.67779 12.0954C2.70116 11.0677 2.1239 9.72589 2.04966 8.31133Z" fill="white"/>
<path fill-rule="evenodd" clip-rule="evenodd" d="M4.34569 5.90037C4.34569 5.62422 4.56955 5.40037 4.84569 5.40037H6.24836C6.9111 5.40037 7.44836 5.93763 7.44836 6.60037V6.80406C7.44836 7.20815 7.35417 7.60667 7.17328 7.968L7.15707 8.00037L7.17328 8.03274C7.35417 8.39407 7.44836 8.79259 7.44836 9.19667V9.40037C7.44836 10.0631 6.9111 10.6004 6.24836 10.6004H4.84569C4.56955 10.6004 4.34569 10.3765 4.34569 10.1004C4.34569 9.82422 4.56955 9.60037 4.84569 9.60037H6.24836C6.35881 9.60037 6.44836 9.51082 6.44836 9.40037V9.19667C6.44836 8.95543 6.3938 8.7174 6.2889 8.50037H5.19614C4.91999 8.50037 4.69614 8.27651 4.69614 8.00037C4.69614 7.72423 4.91999 7.50037 5.19614 7.50037H6.2889C6.3938 7.28334 6.44836 7.04531 6.44836 6.80406V6.60037C6.44836 6.48991 6.35881 6.40037 6.24836 6.40037H4.84569C4.56955 6.40037 4.34569 6.17651 4.34569 5.90037Z" fill="white"/>
<path fill-rule="evenodd" clip-rule="evenodd" d="M8.37694 5.90037C8.37694 5.62422 8.6008 5.40037 8.87694 5.40037H11.33C11.6062 5.40037 11.83 5.62422 11.83 5.90037C11.83 6.17651 11.6062 6.40037 11.33 6.40037H9.37694V7.50037H10.63C11.2928 7.50037 11.83 8.03763 11.83 8.70037V9.40037C11.83 10.0631 11.2928 10.6004 10.63 10.6004H8.87694C8.6008 10.6004 8.37694 10.3765 8.37694 10.1004C8.37694 9.82422 8.6008 9.60037 8.87694 9.60037H10.63C10.7405 9.60037 10.83 9.51082 10.83 9.40037V8.70037C10.83 8.58991 10.7405 8.50037 10.63 8.50037H8.87694C8.6008 8.50037 8.37694 8.27651 8.37694 8.00037V5.90037Z" fill="white"/>
</svg>
