<svg width="16" height="16" viewBox="0 0 16 16" fill="none" xmlns="http://www.w3.org/2000/svg">
<path fill-rule="evenodd" clip-rule="evenodd" d="M4.07227 1.70007C5.49294 1.70007 6.6444 2.85169 6.64453 4.27234C6.64453 4.61311 6.57637 4.93761 6.45605 5.23523L8.01172 6.79187L11.4971 3.30847C11.5058 3.29737 11.8395 2.88056 12.9668 2.57312C14.1006 2.26406 14.6733 2.56862 14.6816 2.57312L6.49316 10.7596C6.58933 11.0295 6.64446 11.3191 6.64453 11.6219C6.64453 13.0427 5.49302 14.1942 4.07227 14.1942C2.65162 14.1941 1.5 13.0426 1.5 11.6219C1.50032 10.2015 2.65182 9.04981 4.07227 9.04968C4.5539 9.04968 5.00329 9.18459 5.38867 9.41492L6.78711 8.01648L5.30176 6.53113C4.93637 6.73041 4.51782 6.8446 4.07227 6.8446C2.65162 6.84448 1.5 5.69301 1.5 4.27234C1.50013 2.85177 2.6517 1.7002 4.07227 1.70007ZM4.07227 10.0497C3.20411 10.0498 2.50032 10.7538 2.5 11.6219C2.5 12.4903 3.20391 13.1941 4.07227 13.1942C4.94073 13.1942 5.64453 12.4904 5.64453 11.6219C5.64421 10.7538 4.94053 10.0497 4.07227 10.0497ZM7.94336 7.58093C7.84208 7.58096 7.74807 7.61135 7.66992 7.66394C7.53954 7.75207 7.45312 7.90107 7.45312 8.07019C7.45316 8.13773 7.46741 8.20205 7.49219 8.26062C7.56669 8.43637 7.74056 8.56037 7.94336 8.56042C8.0108 8.5604 8.07528 8.54606 8.13379 8.52136C8.19267 8.49651 8.24554 8.46044 8.29004 8.41589C8.31214 8.39377 8.33203 8.36962 8.34961 8.34363C8.40243 8.26549 8.43349 8.17152 8.43359 8.07019C8.43355 8.00283 8.42016 7.93813 8.39551 7.87976C8.38299 7.85012 8.36746 7.82211 8.34961 7.79578C8.29668 7.71775 8.22174 7.65606 8.13379 7.61902C8.10448 7.60664 8.07387 7.59721 8.04199 7.5907C8.01014 7.58421 7.97712 7.58093 7.94336 7.58093ZM4.07227 2.70007C3.20398 2.7002 2.50013 3.40406 2.5 4.27234C2.5 5.14073 3.20391 5.84448 4.07227 5.8446C4.94073 5.8446 5.64453 5.14081 5.64453 4.27234C5.6444 3.40398 4.94066 2.70007 4.07227 2.70007Z" fill="white"/>
<path d="M14.6807 13.4608C14.66 13.4717 14.0874 13.7667 12.9658 13.4608C11.8418 13.1543 11.5066 12.7388 11.4961 12.7255L8.67773 9.9071L9.90234 8.6825L14.6807 13.4608Z" fill="white"/>
</svg>
