<svg width="16" height="16" viewBox="0 0 16 16" fill="none" xmlns="http://www.w3.org/2000/svg">
<path fill-rule="evenodd" clip-rule="evenodd" d="M1 1.5C1 1.22386 1.22386 1 1.5 1C2.0505 1 5.32834 1.13165 8.47751 1.65681C10.0487 1.91882 11.622 2.28409 12.8141 2.7955C13.4091 3.05075 13.9401 3.35522 14.3293 3.72561C14.7239 4.10114 15 4.5731 15 5.14C15 5.74583 14.6669 6.18212 14.2028 6.46674C13.7618 6.73721 13.1751 6.8931 12.5435 6.98855C11.2732 7.18051 9.60271 7.15625 7.98667 7.11316C7.78127 7.10768 7.57672 7.1019 7.37371 7.09616C5.95303 7.05601 4.60761 7.01799 3.57112 7.10091C2.97442 7.14864 2.53391 7.23339 2.25629 7.3529C1.99541 7.4652 1.9991 7.54628 1.99993 7.56455L2 7.56667C2 7.62115 2.02342 7.73652 2.28959 7.90106C2.55602 8.06576 2.97266 8.21617 3.52988 8.3475C4.63744 8.60854 6.13315 8.75799 7.67084 8.88846C7.92424 8.90996 8.17885 8.93094 8.43266 8.95187C9.69823 9.05618 10.944 9.15887 11.9211 9.31547C12.5044 9.40895 13.0325 9.52738 13.4257 9.69419C13.622 9.77744 13.8173 9.88608 13.9699 10.036C14.1307 10.1939 14.2571 10.4132 14.2571 10.6867C14.2571 11.2352 13.7956 11.5219 13.4549 11.6641C13.0768 11.8218 12.5731 11.9232 12.0227 11.995C10.9185 12.139 9.45972 12.1829 8.03638 12.2258L8.01505 12.2264C6.56657 12.2701 5.15582 12.3131 4.10665 12.45C3.57759 12.519 3.18169 12.6072 2.93013 12.7122C2.82607 12.7556 2.77266 12.7898 2.74692 12.8103C2.76894 12.9298 2.89 13.111 3.33776 13.313C3.81301 13.5273 4.48923 13.6819 5.24158 13.7883C6.73608 13.9994 8.37525 14 8.92857 14C9.20471 14 9.42857 14.2239 9.42857 14.5C9.42857 14.7761 9.20471 15 8.92857 15H8.92429C8.36888 15 6.66992 15 5.10167 14.7784C4.32061 14.6681 3.53245 14.4977 2.92667 14.2245C2.35199 13.9654 1.74286 13.5173 1.74286 12.7667C1.74286 12.2181 2.20444 11.9314 2.54509 11.7893C2.92322 11.6315 3.42687 11.5302 3.97728 11.4584C5.08152 11.3143 6.54028 11.2704 7.96362 11.2275L7.98495 11.2269C9.43344 11.1833 10.8442 11.1403 11.8934 11.0034C12.4224 10.9343 12.8183 10.8461 13.0699 10.7412C13.1176 10.7213 13.1546 10.7033 13.1832 10.6877C13.1466 10.6662 13.0982 10.6415 13.0352 10.6148C12.7581 10.4972 12.3287 10.3936 11.7628 10.3029C10.8274 10.153 9.63019 10.0541 8.36385 9.94965C8.10698 9.92845 7.84725 9.90702 7.5863 9.88488C6.05971 9.75535 4.49113 9.60146 3.30048 9.32083C2.70859 9.18133 2.16764 9.00132 1.76376 8.75165C1.35961 8.50181 1 8.11885 1 7.56667C1 6.97298 1.42286 6.62295 1.8609 6.43439C2.29422 6.24786 2.86933 6.15386 3.49138 6.10409C4.58656 6.01648 5.99423 6.05648 7.4047 6.09657C7.60783 6.10234 7.81101 6.10812 8.01333 6.11351C9.64729 6.15708 11.2268 6.17616 12.394 5.99978C12.9811 5.91106 13.41 5.77987 13.68 5.6143C13.9269 5.46288 14 5.31417 14 5.14C14 4.9269 13.9028 4.70012 13.64 4.45001C13.3717 4.19478 12.9612 3.94675 12.4199 3.7145C11.3392 3.25091 9.86012 2.90118 8.31303 2.64319C5.22571 2.12835 2.00355 2 1.5 2C1.22386 2 1 1.77614 1 1.5ZM13.2744 10.6213C13.2744 10.6213 13.2735 10.624 13.269 10.6288C13.2717 10.6236 13.2744 10.6213 13.2744 10.6213ZM2.72556 12.832C2.72556 12.832 2.72649 12.8294 2.73102 12.8246C2.72827 12.8297 2.72556 12.832 2.72556 12.832Z" fill="white"/>
</svg>
