<svg width="16" height="16" viewBox="0 0 16 16" fill="none" xmlns="http://www.w3.org/2000/svg">
<path d="M4.0562 2.21828L7.284 7.80901L5.90292 8.60637C4.92164 7.16473 3.4779 6.19367 1.88969 5.7786C1.72816 5.73638 1.56511 5.69991 1.40086 5.66927C1.88227 4.30464 2.78666 3.08238 4.0562 2.21828Z" fill="white"/>
<path d="M4.96553 1.69328L8.19333 7.28401L9.57382 6.48698C8.81596 4.91634 8.69687 3.1805 9.13151 1.59753C9.17576 1.43639 9.22575 1.2768 9.28139 1.1191C7.85901 0.85382 6.34848 1.02594 4.96553 1.69328Z" fill="white"/>
<path d="M10.3001 1.38933C10.2412 1.54914 10.1891 1.71138 10.144 1.87554C9.78079 3.1985 9.87219 4.64427 10.4861 5.96027L13.7841 4.0562C12.913 2.77645 11.678 1.86775 10.3001 1.38933Z" fill="white"/>
<path d="M14.3091 4.96553C14.9818 6.35967 15.1513 7.88346 14.8767 9.3159C14.7088 9.28701 14.5422 9.25097 14.3774 9.20791C13.0501 8.86104 11.8439 8.0591 11.0111 6.86958L14.3091 4.96553Z" fill="white"/>
<path d="M14.6014 10.3332C14.12 11.6978 13.2156 12.92 11.9461 13.7841L8.71833 8.19333L10.0988 7.39629C11.0801 8.83778 12.5238 9.80874 14.1119 10.2238C14.2736 10.2661 14.4369 10.3026 14.6014 10.3332Z" fill="white"/>
<path d="M11.0368 14.3091L7.809 8.71833L6.4279 9.51571C7.18563 11.0863 7.30468 12.822 6.87006 14.4049C6.82583 14.5659 6.77586 14.7255 6.72024 14.8831C8.14283 15.1486 9.65363 14.9765 11.0368 14.3091Z" fill="white"/>
<path d="M1.12559 6.68661C0.851082 8.119 1.02057 9.64273 1.69328 11.0368L4.99064 9.13308C4.15791 7.94341 2.95153 7.14137 1.62419 6.79448C1.45965 6.75147 1.29329 6.71548 1.12559 6.68661Z" fill="white"/>
<path d="M2.21828 11.9461C3.08919 13.2257 4.32393 14.1343 5.70157 14.6128C5.76046 14.4531 5.81249 14.2909 5.85754 14.1268C6.22076 12.804 6.1294 11.3583 5.51561 10.0424L2.21828 11.9461Z" fill="white"/>
</svg>
