<svg width="16" height="16" viewBox="0 0 16 16" fill="none" xmlns="http://www.w3.org/2000/svg">
<path d="M7.93164 8.34082C7.77178 7.84167 8.24228 7.37006 8.73828 7.53223L15.1592 9.63574C15.7502 9.82951 15.7461 10.6722 15.1533 10.8604L12.3389 11.752C12.2412 11.7829 12.1643 11.8594 12.1318 11.957L11.2021 14.7607C11.0068 15.3496 10.1759 15.3455 9.98633 14.7549L7.93164 8.34082Z" fill="white"/>
<path d="M12.2354 2C12.6184 2 12.9376 2.0003 13.1973 2.02148C13.463 2.04322 13.7133 2.0898 13.9492 2.20996C14.3112 2.39453 14.6065 2.68971 14.791 3.05176C14.9109 3.28746 14.9578 3.5373 14.9795 3.80273C15.0007 4.06244 15 4.38248 15 4.76562V8.4541L13.9502 8.11035V4.76562C13.9502 4.36523 13.9495 4.09572 13.9326 3.88867C13.9163 3.68854 13.8876 3.59172 13.8555 3.52832C13.7717 3.36384 13.6371 3.22941 13.4727 3.14551C13.4093 3.11325 13.3128 3.08381 13.1123 3.06738C12.9053 3.05047 12.6358 3.05078 12.2354 3.05078H3.76562C3.3652 3.05078 3.09573 3.0505 2.88867 3.06738C2.6881 3.08377 2.59172 3.11329 2.52832 3.14551C2.36368 3.2294 2.2294 3.36368 2.14551 3.52832C2.11329 3.59172 2.08377 3.68812 2.06738 3.88867C2.0505 4.09572 2.05078 4.36523 2.05078 4.76562V10.4355C2.05078 10.8359 2.05047 11.1055 2.06738 11.3125C2.08382 11.5129 2.11326 11.6096 2.14551 11.6729C2.22942 11.8372 2.3639 11.9709 2.52832 12.0547C2.59172 12.0869 2.68826 12.1164 2.88867 12.1328C3.09573 12.1497 3.36522 12.1504 3.76562 12.1504H8.14648L8.4834 13.2002H3.76562C3.38247 13.2002 3.06245 13.2009 2.80273 13.1797C2.5372 13.158 2.28754 13.1102 2.05176 12.9902C1.68975 12.8058 1.39454 12.5113 1.20996 12.1494C1.08977 11.9135 1.04323 11.6631 1.02148 11.3975C1.00029 11.1379 1 10.8185 1 10.4355V4.76562C1 4.38245 1.00029 4.06245 1.02148 3.80273C1.04321 3.53716 1.08992 3.28757 1.20996 3.05176C1.39452 2.68955 1.68955 2.39451 2.05176 2.20996C2.28758 2.08992 2.53715 2.04321 2.80273 2.02148C3.06246 2.00029 3.38243 2 3.76562 2H12.2354Z" fill="white"/>
<path d="M6.7002 6.5C6.97625 6.50011 7.2002 6.72392 7.2002 7C7.2002 7.27608 6.97625 7.49989 6.7002 7.5H3.5C3.22386 7.5 3 7.27614 3 7C3 6.72386 3.22386 6.5 3.5 6.5H6.7002Z" fill="white"/>
<path d="M10.9004 4.40039C11.1764 4.4006 11.4004 4.62438 11.4004 4.90039C11.4002 5.17623 11.1762 5.40018 10.9004 5.40039H3.5C3.22398 5.40039 3.0002 5.17636 3 4.90039C3 4.62425 3.22386 4.40039 3.5 4.40039H10.9004Z" fill="white"/>
</svg>
