<svg width="16" height="16" viewBox="0 0 16 16" fill="none" xmlns="http://www.w3.org/2000/svg">
<path d="M13.2305 9.78076C13.3683 9.78101 13.4804 9.89293 13.4805 10.0308C13.48 10.1682 13.368 10.2805 13.2305 10.2808C13.0927 10.2808 12.981 10.1684 12.9805 10.0308C12.9806 9.89278 13.0925 9.78076 13.2305 9.78076Z" fill="white"/>
<path fill-rule="evenodd" clip-rule="evenodd" d="M12 8.25048C14.0711 8.25048 15.75 9.92942 15.75 12.0005C15.7497 14.0713 14.0709 15.7505 12 15.7505C9.92909 15.7505 8.25026 14.0713 8.25 12.0005C8.25 9.92942 9.92893 8.25048 12 8.25048ZM11.625 9.65088C11.4317 9.65088 11.2754 9.80718 11.2754 10.0005V11.0415H10.5L10.4297 11.0493C10.2702 11.0819 10.1504 11.2229 10.1504 11.3921C10.1508 11.585 10.307 11.7417 10.5 11.7417H11.2754V13.188C11.2757 13.8298 11.7956 14.3501 12.4375 14.3501C13.0794 14.3501 13.5993 13.8298 13.5996 13.188V13.1313C13.5996 12.938 13.4433 12.7808 13.25 12.7808C13.0567 12.7808 12.9004 12.938 12.9004 13.1313V13.188C12.9001 13.4432 12.6928 13.6509 12.4375 13.6509C12.1822 13.6509 11.9749 13.4432 11.9746 13.188V11.7417H12.75L12.8203 11.7349C12.9797 11.7024 13.0992 11.561 13.0996 11.3921C13.0996 11.2229 12.9798 11.0819 12.8203 11.0493L12.75 11.0415H11.9746V10.0005C11.9746 9.80718 11.8183 9.65088 11.625 9.65088ZM13.2354 9.30029C12.8295 9.30029 12.5001 9.6298 12.5 10.0356C12.5005 10.4412 12.8297 10.77 13.2354 10.77C13.6408 10.7698 13.9693 10.4411 13.9697 10.0356C13.9696 9.62992 13.6411 9.30048 13.2354 9.30029Z" fill="white"/>
<path d="M2.55957 4.05517C2.76578 3.94898 3.02606 3.99773 3.17773 4.18505C3.32881 4.37271 3.32202 4.63766 3.1748 4.81689L3.10352 4.88818L2.91406 5.04834C2.48709 5.42935 2.14848 5.86386 1.91016 6.32861L1.81445 6.52978C1.60598 7.00103 1.50011 7.49584 1.5 7.99072C1.50014 8.4854 1.60613 8.97961 1.81445 9.45068L1.91016 9.65185C2.14843 10.1167 2.4871 10.5511 2.91406 10.9321L3.10352 11.0923C3.31739 11.2658 3.35051 11.5819 3.17773 11.7964C3.02611 11.9836 2.76572 12.0323 2.55957 11.9263L2.47461 11.8706C1.85813 11.3721 1.3608 10.7738 1.01953 10.1079L0.899414 9.85498C0.63681 9.26104 0.500136 8.62946 0.5 7.99072C0.500114 7.35177 0.636667 6.7196 0.899414 6.12548L1.01953 5.87353C1.31815 5.29096 1.73643 4.75959 2.24902 4.30224L2.47461 4.11084L2.55957 4.05517Z" fill="white"/>
<path d="M9.03516 4.17529C10.1946 4.17539 11.1343 5.11556 11.1348 6.2749V7.58349C10.5292 7.70143 9.96695 7.94049 9.47461 8.2749C9.49103 8.18607 9.50095 8.09406 9.50098 8.00048C9.50072 7.17227 8.82924 6.50048 8.00098 6.50048C7.17271 6.50048 6.50124 7.17227 6.50098 8.00048C6.50124 8.8287 7.17271 9.50048 8.00098 9.50048C8.09447 9.50048 8.18565 9.49049 8.27441 9.47412C7.80706 10.1621 7.52712 10.9869 7.50293 11.8755H6.93457C5.77511 11.8753 4.83521 10.9344 4.83496 9.7749V6.2749C4.83543 5.11562 5.77524 4.1755 6.93457 4.17529H9.03516Z" fill="white"/>
<path d="M2.99902 6.12353C3.18957 5.99077 3.45379 6.00539 3.62891 6.17138C3.80316 6.33763 3.83143 6.60042 3.70898 6.79736L3.64746 6.87744L3.53613 7.00634C3.29363 7.31058 3.17302 7.65302 3.17285 7.99072L3.18066 8.13623C3.21527 8.47414 3.37001 8.81157 3.64746 9.104C3.83666 9.30424 3.82864 9.62116 3.62891 9.81103C3.42887 10.0007 3.112 9.99192 2.92188 9.79248C2.5059 9.35406 2.24459 8.81429 2.18555 8.23974L2.17285 7.99072C2.17303 7.40694 2.38205 6.84917 2.75293 6.3833L2.92188 6.18994L2.99902 6.12353Z" fill="white"/>
<path d="M12.8711 4.18603C13.0229 3.99861 13.283 3.94968 13.4893 4.05615L13.5742 4.11181L13.7998 4.30322C14.3125 4.76065 14.7307 5.29182 15.0293 5.87451L15.1494 6.12646C15.4122 6.72067 15.5488 7.35264 15.5488 7.9917C15.5488 8.35606 15.5019 8.71794 15.415 9.07177C15.1578 8.77201 14.8622 8.50619 14.5352 8.28271C14.5433 8.18604 14.5488 8.08862 14.5488 7.9917C14.5488 7.49671 14.4429 7.0021 14.2344 6.53076L14.1387 6.32959C13.9004 5.86472 13.5618 5.43042 13.1348 5.04931L12.9453 4.88916L12.874 4.81787C12.7265 4.63859 12.7198 4.37383 12.8711 4.18603Z" fill="white"/>
<path d="M8.00098 7.20068C8.44264 7.20068 8.80052 7.55888 8.80078 8.00048C8.80052 8.44209 8.44264 8.80029 8.00098 8.80029C7.55931 8.80029 7.20143 8.44209 7.20117 8.00048C7.20143 7.55888 7.55931 7.20068 8.00098 7.20068Z" fill="white"/>
<path d="M12.3398 6.17138C12.5149 6.00553 12.7792 5.99102 12.9697 6.12353L13.0469 6.18994L13.2158 6.3833C13.5611 6.81699 13.7632 7.33081 13.79 7.8706C13.4551 7.7252 13.0989 7.61946 12.7275 7.55908C12.6684 7.36811 12.5714 7.18043 12.4326 7.00634L12.3213 6.87744L12.2598 6.79736C12.1375 6.60034 12.1654 6.33751 12.3398 6.17138Z" fill="white"/>
</svg>
