<svg width="16" height="16" viewBox="0 0 16 16" fill="none" xmlns="http://www.w3.org/2000/svg">
<path fill-rule="evenodd" clip-rule="evenodd" d="M14.2325 2.35355C14.4277 2.15829 14.4277 1.84171 14.2325 1.64645C14.0372 1.45118 13.7206 1.45118 13.5254 1.64645L11.8014 3.3704C11.4968 3.19831 11.1448 3.1001 10.77 3.1001C9.6102 3.1001 8.67 4.0403 8.67 5.2001C8.67 5.57494 8.76821 5.92685 8.94031 6.23149L6.21859 8.9532C5.92123 8.79184 5.58054 8.7002 5.21844 8.7002C4.05864 8.7002 3.11844 9.6404 3.11844 10.8002C3.11844 11.1623 3.21008 11.503 3.37145 11.8004L1.64596 13.5258C1.4507 13.7211 1.4507 14.0377 1.64596 14.2329C1.84122 14.4282 2.1578 14.4282 2.35307 14.2329L14.2325 2.35355ZM4.14236 11.0294L5.44768 9.72412C5.37374 9.70844 5.29705 9.7002 5.21844 9.7002C4.61092 9.7002 4.11844 10.1927 4.11844 10.8002C4.11844 10.8788 4.12668 10.9555 4.14236 11.0294ZM9.70304 5.46876L11.0387 4.13314C10.9527 4.11156 10.8627 4.1001 10.77 4.1001C10.1625 4.1001 9.67 4.59258 9.67 5.2001C9.67 5.29277 9.68146 5.38277 9.70304 5.46876ZM7.69394 10.3003L5.09747 12.8968C5.1375 12.899 5.17783 12.9002 5.21844 12.9002C6.2059 12.9002 7.03418 12.2186 7.25852 11.3003H14.3184C14.5945 11.3003 14.8184 11.0764 14.8184 10.8003C14.8184 10.5242 14.5945 10.3003 14.3184 10.3003H7.69394ZM13.2939 4.70029L10.6954 7.2988C10.7202 7.29966 10.745 7.3001 10.77 7.3001C11.7574 7.3001 12.5857 6.6186 12.8101 5.70029H14.2699C14.5461 5.70029 14.7699 5.47644 14.7699 5.20029C14.7699 4.92415 14.5461 4.70029 14.2699 4.70029H13.2939ZM8.72981 5.70029H1.66992C1.39378 5.70029 1.16992 5.47644 1.16992 5.20029C1.16992 4.92415 1.39378 4.70029 1.66992 4.70029H8.72981C8.69067 4.86054 8.67 5.0278 8.67 5.2001C8.67 5.3724 8.69067 5.54005 8.72981 5.70029ZM3.17825 11.3003C3.13911 11.14 3.11844 10.9725 3.11844 10.8002C3.11844 10.6279 3.13911 10.4605 3.17825 10.3003H1.71836C1.44222 10.3003 1.21836 10.5242 1.21836 10.8003C1.21836 11.0764 1.44222 11.3003 1.71836 11.3003H3.17825Z" fill="white"/>
</svg>
