<svg width="16" height="16" viewBox="0 0 16 16" fill="none" xmlns="http://www.w3.org/2000/svg">
<path fill-rule="evenodd" clip-rule="evenodd" d="M10.6351 3.5C10.1333 3.5 9.72973 3.90476 9.72973 4.4C9.72973 4.89524 10.1333 5.3 10.6351 5.3C11.137 5.3 11.5405 4.89524 11.5405 4.4C11.5405 3.90476 11.137 3.5 10.6351 3.5ZM8.79635 3.9C9.01662 3.09227 9.75764 2.5 10.6351 2.5C11.5126 2.5 12.2536 3.09227 12.4739 3.9H14.5C14.7761 3.9 15 4.12386 15 4.4C15 4.67614 14.7761 4.9 14.5 4.9H12.4739C12.2536 5.70773 11.5126 6.3 10.6351 6.3C9.75764 6.3 9.01662 5.70773 8.79635 4.9H1.5C1.22386 4.9 1 4.67614 1 4.4C1 4.12386 1.22386 3.9 1.5 3.9H8.79635Z" fill="white"/>
<path fill-rule="evenodd" clip-rule="evenodd" d="M5.36487 10.5C5.86672 10.5 6.27027 10.9048 6.27027 11.4C6.27027 11.8952 5.86672 12.3 5.36487 12.3C4.863 12.3 4.45946 11.8952 4.45946 11.4C4.45946 10.9048 4.863 10.5 5.36487 10.5ZM7.20365 10.9C6.98338 10.0923 6.24236 9.5 5.36487 9.5C4.48737 9.5 3.74635 10.0923 3.52608 10.9H1.5C1.22386 10.9 1 11.1239 1 11.4C1 11.6761 1.22386 11.9 1.5 11.9H3.52608C3.74635 12.7077 4.48737 13.3 5.36487 13.3C6.24236 13.3 6.98338 12.7077 7.20365 11.9H14.5C14.7761 11.9 15 11.6761 15 11.4C15 11.1239 14.7761 10.9 14.5 10.9H7.20365Z" fill="white"/>
</svg>
