<svg width="16" height="16" viewBox="0 0 16 16" fill="none" xmlns="http://www.w3.org/2000/svg">
<path fill-rule="evenodd" clip-rule="evenodd" d="M7.5657 1.00194L7.51934 1.00181C7.35039 1.00113 7.14459 1.0003 6.9584 1.07416C6.79764 1.13792 6.65563 1.24133 6.54559 1.37475C6.41811 1.5293 6.35544 1.72632 6.30389 1.88834L6.28963 1.93297C6.15062 2.36391 6.05467 2.66024 5.96237 2.8857C5.87227 3.10579 5.79979 3.22132 5.72553 3.3014C5.55467 3.48565 5.33226 3.61413 5.0873 3.67008C4.98042 3.6945 4.84472 3.69958 4.61118 3.66809C4.37161 3.63578 4.06966 3.57144 3.63028 3.47729L3.58543 3.46755C3.42207 3.43187 3.22316 3.38841 3.02763 3.42048C2.85359 3.44902 2.68986 3.52199 2.55228 3.63232C2.3977 3.75628 2.29701 3.93324 2.21433 4.07857L2.19158 4.11844L1.74981 4.88773L1.72677 4.9276C1.64258 5.07287 1.54001 5.24984 1.5111 5.44696C1.48614 5.61717 1.50441 5.79092 1.56425 5.95221C1.63356 6.13905 1.77171 6.29189 1.88541 6.41769L1.91674 6.45245C2.22176 6.79267 2.4314 7.02702 2.58095 7.22211C2.72699 7.41262 2.79057 7.53444 2.82224 7.63964C2.89296 7.87461 2.89296 8.1252 2.82224 8.36017C2.79057 8.46536 2.72699 8.58719 2.58095 8.7777C2.4314 8.97279 2.22176 9.20714 1.91674 9.54736L1.88541 9.58212C1.77171 9.70792 1.63356 9.86076 1.56424 10.0476C1.50441 10.2089 1.48613 10.3826 1.51109 10.5529C1.54 10.75 1.64257 10.9269 1.72677 11.0722L1.74981 11.1121L2.19157 11.8814L2.21432 11.9212C2.29701 12.0666 2.39769 12.2435 2.55227 12.3675C2.68986 12.4778 2.85359 12.5508 3.02762 12.5793C3.22315 12.6114 3.42206 12.5679 3.58542 12.5323L3.63028 12.5225C4.06966 12.4284 4.3716 12.364 4.61118 12.3317C4.84472 12.3002 4.98042 12.3053 5.0873 12.3297C5.33226 12.3857 5.55467 12.5142 5.72552 12.6984C5.79979 12.7785 5.87227 12.894 5.96237 13.1141C6.05467 13.3396 6.15062 13.6359 6.28963 14.0668L6.30389 14.1115C6.35543 14.2735 6.41811 14.4705 6.54559 14.6251C6.65563 14.7585 6.79764 14.8619 6.9584 14.9257C7.14459 14.9995 7.35039 14.9987 7.51934 14.998L7.5657 14.9979H8.43851L8.48487 14.998C8.65382 14.9987 8.85962 14.9995 9.04581 14.9257C9.20657 14.8619 9.34858 14.7585 9.45862 14.6251C9.5861 14.4705 9.64878 14.2735 9.70032 14.1115L9.71458 14.0668C9.85359 13.6359 9.94954 13.3396 10.0418 13.1141C10.1319 12.894 10.2044 12.7785 10.2787 12.6984C10.4495 12.5142 10.6719 12.3857 10.9169 12.3297C11.0238 12.3053 11.1595 12.3002 11.393 12.3317C11.6326 12.364 11.9346 12.4284 12.3739 12.5225L12.4188 12.5323C12.5821 12.5679 12.7811 12.6114 12.9766 12.5793C13.1506 12.5508 13.3143 12.4778 13.4519 12.3675C13.6065 12.2435 13.7072 12.0666 13.7899 11.9212L13.8126 11.8814L14.2544 11.1121L14.2774 11.0722C14.3616 10.9269 14.4642 10.75 14.4931 10.5529C14.5181 10.3826 14.4998 10.2089 14.44 10.0476C14.3706 9.86076 14.2325 9.70792 14.1188 9.58212L14.0875 9.54736C13.7824 9.20714 13.5728 8.97279 13.4233 8.7777C13.2772 8.58719 13.2136 8.46536 13.182 8.36017C13.1112 8.1252 13.1112 7.87461 13.182 7.63964C13.2136 7.53444 13.2772 7.41262 13.4233 7.22211C13.5728 7.02702 13.7824 6.79267 14.0875 6.45245L14.1188 6.4177C14.2325 6.2919 14.3706 6.13905 14.44 5.95221C14.4998 5.79092 14.5181 5.61717 14.4931 5.44696C14.4642 5.24984 14.3616 5.07287 14.2774 4.9276L14.2544 4.88773L13.8126 4.11844L13.7899 4.07858C13.7072 3.93324 13.6065 3.75627 13.4519 3.63232C13.3143 3.52199 13.1506 3.44902 12.9766 3.42048C12.781 3.38841 12.5821 3.43187 12.4188 3.46755L12.3739 3.47729C11.9346 3.57144 11.6326 3.63578 11.393 3.66809C11.1595 3.69958 11.0238 3.6945 10.9169 3.67008C10.6719 3.61413 10.4495 3.48565 10.2787 3.3014C10.2044 3.22131 10.1319 3.10579 10.0418 2.8857C9.94954 2.66024 9.85359 2.36391 9.71458 1.93297L9.70032 1.88835C9.64878 1.72633 9.5861 1.52931 9.45862 1.37475C9.34858 1.24133 9.20657 1.13792 9.04581 1.07416C8.85962 1.0003 8.65382 1.00113 8.48488 1.00181L8.43851 1.00194H7.5657ZM7.31412 2.02554C7.31737 2.01744 7.31998 2.0114 7.32193 2.00709C7.32653 2.00657 7.33291 2.00595 7.3414 2.00536C7.38671 2.00222 7.44899 2.00194 7.5657 2.00194H8.43851C8.55522 2.00194 8.6175 2.00222 8.66281 2.00536C8.6713 2.00595 8.67768 2.00657 8.68228 2.00709C8.68423 2.0114 8.68684 2.01744 8.69009 2.02554C8.70718 2.06822 8.72679 2.12812 8.76287 2.23997L8.76888 2.25862C8.90043 2.66643 9.00785 2.99943 9.11639 3.26457C9.22879 3.53911 9.35632 3.77741 9.54542 3.98134C9.85295 4.31299 10.2533 4.54426 10.6942 4.64498C10.965 4.70681 11.234 4.69859 11.5267 4.65912C11.809 4.62104 12.1487 4.54825 12.5642 4.45921L12.5834 4.45509C12.6964 4.4309 12.7567 4.41825 12.8012 4.41186C12.8097 4.41064 12.8161 4.4099 12.8207 4.40945C12.8235 4.41316 12.8272 4.41841 12.832 4.42556C12.857 4.46293 12.8879 4.51625 12.9454 4.61642L13.3872 5.38571C13.445 5.48628 13.4755 5.54004 13.4952 5.5806C13.4989 5.58818 13.5015 5.59397 13.5033 5.59819C13.5006 5.60206 13.4967 5.60738 13.4913 5.6143C13.463 5.65053 13.4212 5.69762 13.3429 5.78491L13.3298 5.79955C13.0411 6.12156 12.8054 6.38446 12.6296 6.61373C12.4477 6.85105 12.3051 7.08318 12.2244 7.35143C12.0971 7.77437 12.0971 8.22543 12.2244 8.64838C12.3051 8.91663 12.4477 9.14876 12.6296 9.38608C12.8054 9.61535 13.041 9.87821 13.3297 10.2002L13.3429 10.2149C13.4212 10.3022 13.463 10.3493 13.4913 10.3855C13.4967 10.3924 13.5006 10.3978 13.5034 10.4016C13.5015 10.4058 13.4989 10.4116 13.4952 10.4192C13.4755 10.4598 13.445 10.5135 13.3872 10.6141L12.9454 11.3834C12.8879 11.4836 12.857 11.5369 12.832 11.5742C12.8272 11.5814 12.8235 11.5867 12.8207 11.5904C12.8162 11.5899 12.8097 11.5892 12.8012 11.588C12.7567 11.5816 12.6964 11.5689 12.5834 11.5447L12.5643 11.5406C12.1487 11.4516 11.809 11.3788 11.5267 11.3407C11.234 11.3012 10.965 11.293 10.6942 11.3548C10.2533 11.4556 9.85295 11.6868 9.54542 12.0185C9.35632 12.2224 9.22879 12.4607 9.11639 12.7352C9.00784 13.0004 8.90042 13.3334 8.76886 13.7413L8.76287 13.7598C8.72679 13.8717 8.70718 13.9316 8.69009 13.9743C8.68684 13.9824 8.68423 13.9884 8.68228 13.9927C8.67768 13.9932 8.6713 13.9939 8.66281 13.9944C8.6175 13.9976 8.55522 13.9979 8.43851 13.9979H7.5657C7.44899 13.9979 7.38671 13.9976 7.3414 13.9944C7.33291 13.9939 7.32653 13.9932 7.32193 13.9927C7.31998 13.9884 7.31737 13.9824 7.31412 13.9743C7.29703 13.9316 7.27742 13.8717 7.24134 13.7598L7.23533 13.7412C7.10378 13.3334 6.99636 13.0004 6.88782 12.7352C6.77542 12.4607 6.64789 12.2224 6.45879 12.0185C6.15126 11.6868 5.75091 11.4556 5.30998 11.3548C5.03925 11.293 4.77023 11.3012 4.47753 11.3407C4.1952 11.3788 3.8555 11.4516 3.43996 11.5406L3.42076 11.5447C3.30782 11.5689 3.24749 11.5816 3.20298 11.588C3.19446 11.5892 3.18806 11.5899 3.18347 11.5904C3.18074 11.5867 3.17701 11.5814 3.17222 11.5742C3.14721 11.5369 3.11628 11.4836 3.05876 11.3834L2.617 10.6141C2.55925 10.5135 2.52869 10.4598 2.50898 10.4192C2.5053 10.4116 2.50268 10.4058 2.50085 10.4016C2.50361 10.3978 2.50753 10.3924 2.51293 10.3855C2.5412 10.3493 2.58305 10.3022 2.66131 10.2149L2.67446 10.2002C2.96317 9.87821 3.19884 9.61535 3.37459 9.38608C3.55652 9.14876 3.69906 8.91663 3.7798 8.64838C3.9071 8.22543 3.9071 7.77437 3.7798 7.35143C3.69906 7.08318 3.55652 6.85105 3.37459 6.61373C3.19884 6.38446 2.96318 6.1216 2.67447 5.79958L2.66132 5.78491C2.58305 5.69762 2.5412 5.65053 2.51293 5.6143C2.50753 5.60738 2.50361 5.60206 2.50086 5.59819C2.50268 5.59398 2.50531 5.58818 2.50899 5.5806C2.5287 5.54004 2.55925 5.48628 2.617 5.38571L3.05877 4.61642C3.11628 4.51625 3.14722 4.46293 3.17223 4.42556C3.17702 4.41841 3.18074 4.41316 3.18348 4.40945C3.18806 4.4099 3.19446 4.41064 3.20298 4.41186C3.24749 4.41825 3.30782 4.4309 3.42076 4.45509L3.43993 4.4592C3.85548 4.54825 4.19519 4.62104 4.47753 4.65912C4.77023 4.69859 5.03925 4.70681 5.30998 4.64498C5.75091 4.54426 6.15126 4.31299 6.45879 3.98134C6.64789 3.77741 6.77542 3.53911 6.88782 3.26457C6.99636 2.99943 7.10378 2.66642 7.23533 2.25861L7.24134 2.23997C7.27742 2.12812 7.29703 2.06822 7.31412 2.02554ZM6.23052 8.00083C6.23052 7.01352 7.02588 6.21776 8.00132 6.21776C8.97677 6.21776 9.77212 7.01352 9.77212 8.00083C9.77212 8.98814 8.97677 9.7839 8.00132 9.7839C7.02588 9.7839 6.23052 8.98814 6.23052 8.00083ZM8.00132 5.21776C6.46852 5.21776 5.23052 6.46633 5.23052 8.00083C5.23052 9.53533 6.46852 10.7839 8.00132 10.7839C9.53413 10.7839 10.7721 9.53533 10.7721 8.00083C10.7721 6.46633 9.53413 5.21776 8.00132 5.21776Z" fill="white"/>
</svg>
