<svg width="16" height="16" viewBox="0 0 16 16" fill="none" xmlns="http://www.w3.org/2000/svg">
<path fill-rule="evenodd" clip-rule="evenodd" d="M11.499 1L11.7139 1.01074C12.7024 1.111 13.4886 1.89722 13.5889 2.88574L13.5996 3.10059V5.2002H13.5684C13.5758 5.24476 13.5842 5.28949 13.5889 5.33496L13.5996 5.5498V12.9004C13.5994 14.06 12.6587 15 11.499 15H4.5C3.34054 14.9998 2.40062 14.0599 2.40039 12.9004V5.5498L2.41113 5.33496C2.41576 5.2895 2.42416 5.24475 2.43164 5.2002H2.40039V3.10059C2.40039 2.01316 3.22698 1.11806 4.28613 1.01074L4.5 1H11.499ZM4.5 4.4502C3.89274 4.4504 3.4005 4.9425 3.40039 5.5498V12.9004C3.40062 13.5076 3.89282 13.9998 4.5 14H11.499C12.1064 14 12.5994 13.5077 12.5996 12.9004V5.5498C12.5995 4.94237 12.1065 4.4502 11.499 4.4502H4.5ZM5.25684 1.7002L3.10059 3.85645V3.98438C3.46668 3.65698 3.94815 3.45695 4.47656 3.45117L6.22852 1.7002H5.25684ZM11.5195 3.45117C11.9065 3.45479 12.268 3.56301 12.5781 3.74902L12.8994 3.42871V3.10059C12.8994 2.80909 12.8097 2.53866 12.6572 2.31445L11.5195 3.45117ZM6.97266 1.7002L5.22168 3.4502H6.57812L8.3291 1.7002H6.97266ZM4.5 1.7002C3.72699 1.7004 3.10059 2.32755 3.10059 3.10059V3.11328L4.51367 1.7002H4.5ZM8.67871 3.4502L10.4277 1.7002H9.07227L7.32227 3.4502H8.67871ZM12.2852 1.94238C12.061 1.78998 11.7904 1.7002 11.499 1.7002H11.1719L9.4209 3.4502H10.7773L12.2852 1.94238Z" fill="white"/>
</svg>
