<svg width="16" height="16" viewBox="0 0 16 16" fill="none" xmlns="http://www.w3.org/2000/svg">
<path fill-rule="evenodd" clip-rule="evenodd" d="M12.6875 10.083H13.1992C13.7789 10.083 14.2497 10.5532 14.25 11.1328V13.1992L14.2441 13.3066C14.1941 13.8011 13.8011 14.1941 13.3066 14.2441L13.1992 14.25H11.1328L11.0254 14.2441C10.4962 14.1901 10.083 13.7426 10.083 13.1992V12.6875H5.91699V13.1992L5.91113 13.3066C5.86109 13.8011 5.46808 14.1941 4.97363 14.2441L4.86621 14.25H2.7998L2.69238 14.2441C2.16306 14.1902 1.75 13.7428 1.75 13.1992V11.1328C1.7503 10.5532 2.22018 10.0831 2.7998 10.083H3.3125V5.91699H2.7998L2.69238 5.91113C2.16304 5.85724 1.75 5.40977 1.75 4.86621V2.7998C1.75011 2.22006 2.22006 1.75011 2.7998 1.75H4.86621C5.44604 1.75 5.91689 2.22 5.91699 2.7998V3.3125H10.083V2.7998C10.0831 2.22018 10.5532 1.7503 11.1328 1.75H13.1992C13.7791 1.75 14.2499 2.22 14.25 2.7998V4.86621L14.2441 4.97363C14.1941 5.46808 13.8011 5.8611 13.3066 5.91113L13.1992 5.91699H12.6875V10.083ZM4.86621 10.083C5.44592 10.083 5.91669 10.5532 5.91699 11.1328V11.6875H10.083V11.1328C10.0833 10.5534 10.5534 10.0833 11.1328 10.083H11.6875V5.91699H11.1328L11.0254 5.91113C10.4962 5.85707 10.083 5.40965 10.083 4.86621V4.3125H5.91699V4.86621L5.91113 4.97363C5.86109 5.4681 5.4681 5.86109 4.97363 5.91113L4.86621 5.91699H4.3125V10.083H4.86621ZM2.7998 11.083C2.77247 11.0831 2.7503 11.1055 2.75 11.1328V13.1992C2.75 13.2268 2.77228 13.2499 2.7998 13.25H4.86621C4.89382 13.25 4.91699 13.2268 4.91699 13.1992V11.1328C4.91669 11.1055 4.89364 11.083 4.86621 11.083H2.7998ZM11.1328 11.083C11.1056 11.0833 11.0833 11.1056 11.083 11.1328V13.1992C11.083 13.2266 11.1055 13.2497 11.1328 13.25H13.1992C13.2268 13.25 13.25 13.2268 13.25 13.1992V11.1328C13.2497 11.1055 13.2266 11.083 13.1992 11.083H11.1328ZM2.7998 2.75C2.77235 2.75011 2.75011 2.77234 2.75 2.7998V4.86621C2.75 4.89376 2.77228 4.91689 2.7998 4.91699H4.86621C4.89382 4.91699 4.91699 4.89383 4.91699 4.86621V2.7998C4.91689 2.77228 4.89376 2.75 4.86621 2.75H2.7998ZM11.1328 2.75C11.1055 2.7503 11.0831 2.77247 11.083 2.7998V4.86621C11.083 4.89364 11.1055 4.91668 11.1328 4.91699H13.1992C13.2268 4.91699 13.25 4.89383 13.25 4.86621V2.7998C13.2499 2.77228 13.2268 2.75 13.1992 2.75H11.1328Z" fill="white"/>
</svg>
