<svg width="16" height="16" viewBox="0 0 16 16" fill="none" xmlns="http://www.w3.org/2000/svg">
<path fill-rule="evenodd" clip-rule="evenodd" d="M9.72991 2.71342C9.72976 2.7571 9.72973 2.80527 9.72973 2.85856V4.59452C9.72973 4.91619 9.47287 5.17899 9.15129 5.18635C5.54816 5.26882 2.60227 7.94513 2.08173 11.4062C2.59141 10.7741 3.1475 10.1868 3.86153 9.70917C4.98161 8.95986 6.44454 8.50532 8.65281 8.43902L8.66673 8.4386C8.75012 8.43608 8.84122 8.43332 8.92077 8.43778C9.01243 8.44292 9.12863 8.45881 9.24963 8.5173C9.41309 8.5963 9.5497 8.72888 9.63358 8.8899C9.69628 9.01025 9.71527 9.1274 9.723 9.21863C9.72977 9.29867 9.72975 9.39103 9.72973 9.47657L9.72973 10.7564C9.72973 10.8097 9.72976 10.8579 9.72991 10.9016C9.7608 10.8707 9.79475 10.8365 9.83231 10.7987L13.7954 6.8075L9.83231 2.81628C9.79475 2.77847 9.7608 2.74431 9.72991 2.71342ZM8.93397 1.79631C9.11117 1.58928 9.3769 1.47976 9.64852 1.50182C9.88176 1.52075 10.0564 1.6567 10.1557 1.74046C10.264 1.83179 10.3898 1.95852 10.5272 2.09686L14.8548 6.4552C15.0484 6.65017 15.0484 6.96483 14.8548 7.1598L10.5272 11.5182C10.3898 11.6565 10.264 11.7832 10.1557 11.8745C10.0564 11.9583 9.88176 12.0942 9.64852 12.1132C9.3769 12.1352 9.11117 12.0257 8.93397 11.8187C8.7818 11.6409 8.75364 11.4214 8.74219 11.292C8.7297 11.1508 8.72971 10.9723 8.72973 10.7773L8.72973 9.49058C8.72973 9.47114 8.72973 9.45347 8.72969 9.43719C8.71529 9.4376 8.69975 9.43806 8.68282 9.43857C6.60182 9.50105 5.338 9.92457 4.41756 10.5403C3.49163 11.1598 2.8674 11.9993 2.0962 13.0365L2.07119 13.0701C1.72989 13.5291 1 13.2885 1 12.7155V12.5032C1 8.11679 4.399 4.50931 8.72973 4.20515L8.72973 2.8377C8.72971 2.64275 8.7297 2.46416 8.74219 2.32304C8.75364 2.19363 8.7818 1.9741 8.93397 1.79631Z" fill="white"/>
</svg>
