<svg width="16" height="16" viewBox="0 0 16 16" fill="none" xmlns="http://www.w3.org/2000/svg">
<path fill-rule="evenodd" clip-rule="evenodd" d="M3.7437 2C3.36979 1.99999 3.05769 1.99999 2.80273 2.02082C2.53681 2.04254 2.28715 2.08952 2.05107 2.20981C1.68886 2.39437 1.39437 2.68886 1.20981 3.05107C1.08952 3.28715 1.04254 3.53681 1.02082 3.80273C0.999986 4.0577 0.999993 4.36979 1 4.7437V10.4563C0.999993 10.8302 0.999986 11.1423 1.02082 11.3973C1.04254 11.6632 1.08952 11.9128 1.20981 12.1489C1.39437 12.5111 1.68886 12.8056 2.05107 12.9902C2.28715 13.1105 2.53681 13.1575 2.80273 13.1792C3.05769 13.2 3.36978 13.2 3.74369 13.2L6.95 13.2V12.15H3.765C3.3643 12.15 3.09535 12.1496 2.88823 12.1327C2.68725 12.1163 2.59115 12.0869 2.52776 12.0546C2.36312 11.9707 2.22926 11.8369 2.14537 11.6722C2.11307 11.6089 2.08375 11.5128 2.06733 11.3118C2.05041 11.1047 2.05 10.8357 2.05 10.435V4.765C2.05 4.3643 2.05041 4.09535 2.06733 3.88824C2.08375 3.68725 2.11307 3.59115 2.14537 3.52776C2.22926 3.36312 2.36312 3.22926 2.52776 3.14537C2.59115 3.11307 2.68725 3.08375 2.88823 3.06733C3.09535 3.05041 3.3643 3.05 3.765 3.05H12.235C12.6357 3.05 12.9047 3.05041 13.1118 3.06733C13.3128 3.08375 13.4089 3.11307 13.4722 3.14537C13.6369 3.22926 13.7707 3.36312 13.8546 3.52776C13.8869 3.59115 13.9163 3.68725 13.9327 3.88824C13.9496 4.09535 13.95 4.3643 13.95 4.765V10.435C13.95 10.8357 13.9496 11.1047 13.9327 11.3118C13.9163 11.5128 13.8869 11.6089 13.8546 11.6722C13.7707 11.8369 13.6369 11.9707 13.4722 12.0546C13.4255 12.0784 13.3611 12.1006 13.25 12.1172V13.1745C13.4963 13.1509 13.7285 13.1025 13.9489 12.9902C14.3111 12.8056 14.6056 12.5111 14.7902 12.1489C14.9105 11.9128 14.9575 11.6632 14.9792 11.3973C15 11.1423 15 10.8302 15 10.4563V4.7437C15 4.3698 15 4.05769 14.9792 3.80273C14.9575 3.53681 14.9105 3.28715 14.7902 3.05107C14.6056 2.68886 14.3111 2.39437 13.9489 2.20981C13.7128 2.08952 13.4632 2.04254 13.1973 2.02082C12.9423 1.99999 12.6302 1.99999 12.2563 2H3.7437Z" fill="white"/>
<path d="M8 8.7201C8 8.32806 8 8.13204 8.0763 7.9823C8.14341 7.85059 8.25049 7.7435 8.38221 7.67639C8.53194 7.6001 8.72796 7.6001 9.12 7.6001H11.08C11.472 7.6001 11.6681 7.6001 11.8178 7.67639C11.9495 7.7435 12.0566 7.85059 12.1237 7.9823C12.2 8.13204 12.2 8.32806 12.2 8.7201V13.4801C12.2 13.8721 12.2 14.0682 12.1237 14.2179C12.0566 14.3496 11.9495 14.4567 11.8178 14.5238C11.6681 14.6001 11.472 14.6001 11.08 14.6001H9.12C8.72796 14.6001 8.53194 14.6001 8.38221 14.5238C8.25049 14.4567 8.14341 14.3496 8.0763 14.2179C8 14.0682 8 13.8721 8 13.4801V8.7201Z" fill="white"/>
</svg>
