<svg width="16" height="16" viewBox="0 0 16 16" fill="none" xmlns="http://www.w3.org/2000/svg">
<path fill-rule="evenodd" clip-rule="evenodd" d="M4.46956 5.53613H6.43182V6.53613H4.49C4.08971 6.53613 3.81957 6.53652 3.6112 6.55355C3.40867 6.57009 3.30891 6.59983 3.24141 6.63423C3.07206 6.72051 2.93438 6.8582 2.84809 7.02754C2.8137 7.09505 2.78396 7.1948 2.76741 7.39733C2.75039 7.6057 2.75 7.87584 2.75 8.27613V12.0103C2.75 12.4106 2.75039 12.6807 2.76741 12.8891C2.78396 13.0916 2.8137 13.1914 2.84809 13.2589C2.93438 13.4282 3.07206 13.5659 3.24141 13.6522C3.30891 13.6866 3.40867 13.7163 3.6112 13.7329C3.81957 13.7499 4.08971 13.7503 4.49 13.7503H11.51C11.9103 13.7503 12.1804 13.7499 12.3888 13.7329C12.5913 13.7163 12.6911 13.6866 12.7586 13.6522C12.9279 13.5659 13.0656 13.4282 13.1519 13.2589C13.1863 13.1914 13.216 13.0916 13.2326 12.8891C13.2496 12.6807 13.25 12.4106 13.25 12.0103V8.27613C13.25 7.87585 13.2496 7.6057 13.2326 7.39733C13.216 7.1948 13.1863 7.09505 13.1519 7.02754C13.0656 6.8582 12.9279 6.72051 12.7586 6.63423C12.6911 6.59983 12.5913 6.57009 12.3888 6.55355C12.1804 6.53652 11.9103 6.53613 11.51 6.53613H9.56818V5.53613H11.5304C11.9051 5.53613 12.2163 5.53612 12.4702 5.55687C12.7346 5.57847 12.9806 5.62502 13.2126 5.74322C13.5701 5.92538 13.8608 6.21604 14.0429 6.57355C14.1611 6.80552 14.2077 7.05153 14.2293 7.3159C14.25 7.56983 14.25 7.88104 14.25 8.25568V12.0307C14.25 12.4054 14.25 12.7166 14.2293 12.9705C14.2077 13.2349 14.1611 13.4809 14.0429 13.7129C13.8608 14.0704 13.5701 14.361 13.2126 14.5432C12.9806 14.6614 12.7346 14.708 12.4702 14.7296C12.2163 14.7503 11.9051 14.7503 11.5305 14.7503H4.46955C4.0949 14.7503 3.7837 14.7503 3.52977 14.7296C3.26539 14.708 3.01939 14.6614 2.78742 14.5432C2.42991 14.361 2.13925 14.0704 1.95709 13.7129C1.83889 13.4809 1.79234 13.2349 1.77073 12.9705C1.74999 12.7166 1.74999 12.4054 1.75 12.0307V8.25569C1.74999 7.88104 1.74999 7.56983 1.77073 7.3159C1.79234 7.05153 1.83889 6.80552 1.95709 6.57355C2.13925 6.21604 2.42991 5.92538 2.78742 5.74322C3.01939 5.62502 3.26539 5.57847 3.52977 5.55687C3.7837 5.53612 4.09491 5.53613 4.46956 5.53613Z" fill="white"/>
<path fill-rule="evenodd" clip-rule="evenodd" d="M8.00089 1.25C7.86615 1.25 7.73712 1.30438 7.64303 1.40081L5.55212 3.54363C5.35926 3.74127 5.36315 4.05783 5.56079 4.25068C5.75843 4.44354 6.07499 4.43966 6.26784 4.24201L7.50089 2.97835V9.24988C7.50089 9.52602 7.72475 9.74988 8.00089 9.74988C8.27703 9.74988 8.50089 9.52602 8.50089 9.24988V2.97835L9.73394 4.24201C9.92679 4.43966 10.2433 4.44354 10.441 4.25068C10.6386 4.05783 10.6425 3.74127 10.4497 3.54363L8.35875 1.40081C8.26465 1.30438 8.13562 1.25 8.00089 1.25Z" fill="white"/>
</svg>
