<svg width="16" height="16" viewBox="0 0 16 16" fill="none" xmlns="http://www.w3.org/2000/svg">
<path fill-rule="evenodd" clip-rule="evenodd" d="M9.14297 1.74386C9.24653 1.62278 9.36442 1.48031 9.64365 1.50226C9.88478 1.52121 10.0646 1.66058 10.1646 1.74414C10.2737 1.83542 10.4002 1.96182 10.537 2.09843L14.8462 6.40295C15.0513 6.60775 15.0513 6.9398 14.8462 7.1446L10.537 11.4491C10.4002 11.5857 10.2737 11.7121 10.1646 11.8034C10.0646 11.887 9.88478 12.0263 9.64365 12.0453C9.4 12.0533 9.19467 11.8019 9.11979 11.7037C9.0449 11.6055 8.95736 11.2927 8.94586 11.163C8.9333 11.0214 8.93331 10.8426 8.93333 10.6495L8.93333 8.95798C8.93333 8.94834 8.93333 8.93914 8.93332 8.93034C8.9265 8.93054 8.91944 8.93075 8.91211 8.93097C6.84224 8.99287 5.35513 9.18458 4.44358 9.78982C3.52597 10.3991 2.90707 11.2246 2.13814 12.2503C2.13814 12.2503 2.08281 12.3306 2.05 12.4029C1.73281 13.1022 1 13.2069 1 12.6127V12.4549C1 8.08468 4.61734 4.84445 8.93332 4.52935L8.93332 2.79639C8.93331 2.6032 8.93329 2.42447 8.94586 2.28282C8.95736 2.15317 8.98589 1.92757 9.14297 1.74386Z" fill="white"/>
</svg>
