<svg width="16" height="16" viewBox="0 0 16 16" fill="none" xmlns="http://www.w3.org/2000/svg">
<path fill-rule="evenodd" clip-rule="evenodd" d="M2.925 2C1.86185 2 1 2.86185 1 3.925V11.275C1 12.3381 1.86185 13.2 2.925 13.2H6.25V9.35C6.25 8.5768 6.8768 7.95 7.65 7.95H15V3.925C15 2.86185 14.1381 2 13.075 2H2.925Z" fill="white"/>
<path d="M7.30078 10.12C7.30078 9.72796 7.30078 9.53194 7.37708 9.38221C7.44419 9.25049 7.55127 9.14341 7.68299 9.0763C7.83273 9 8.02874 9 8.42078 9H13.8808C14.2728 9 14.4688 9 14.6186 9.0763C14.7503 9.14341 14.8574 9.25049 14.9245 9.38221C15.0008 9.53194 15.0008 9.72796 15.0008 10.12V13.48C15.0008 13.872 15.0008 14.0681 14.9245 14.2178C14.8574 14.3495 14.7503 14.4566 14.6186 14.5237C14.4688 14.6 14.2728 14.6 13.8808 14.6H8.42078C8.02874 14.6 7.83273 14.6 7.68299 14.5237C7.55127 14.4566 7.44419 14.3495 7.37708 14.2178C7.30078 14.0681 7.30078 13.872 7.30078 13.48V10.12Z" fill="white"/>
</svg>
