<svg width="16" height="16" viewBox="0 0 16 16" fill="none" xmlns="http://www.w3.org/2000/svg">
<path fill-rule="evenodd" clip-rule="evenodd" d="M7.64265 1.40095C7.73675 1.30443 7.86585 1.25 8.00065 1.25C8.13546 1.25 8.26455 1.30443 8.35866 1.40095L10.442 3.53776C10.6348 3.73548 10.6308 4.05204 10.433 4.24481C10.2353 4.43758 9.91875 4.43357 9.72598 4.23585L8.50065 2.97907V5.49007H12.325C13.3881 5.49007 14.25 6.35192 14.25 7.41507V12.8246C14.25 13.8877 13.3881 14.7496 12.325 14.7496H3.675C2.61185 14.7496 1.75 13.8877 1.75 12.8246V7.41507C1.75 6.35192 2.61185 5.49007 3.675 5.49007H7.50065V2.97907L6.27532 4.23585C6.08255 4.43357 5.76599 4.43758 5.56827 4.24481C5.37055 4.05204 5.36654 3.73548 5.55931 3.53776L7.64265 1.40095ZM7.50065 5.4945V9.22951C7.50065 9.50566 7.72451 9.72952 8.00065 9.72952C8.27679 9.72952 8.50065 9.50566 8.50065 9.22951V5.4945H7.50065Z" fill="white"/>
</svg>
