<svg width="16" height="16" viewBox="0 0 16 16" fill="none" xmlns="http://www.w3.org/2000/svg">
<path d="M14.2491 3.95622C14.2165 8.77059 12.82 11.5269 11.3224 13.089C9.81603 14.6603 8.26664 14.9614 8.09093 14.9914L8.08897 14.9924H8.08605L8.07237 14.9943C8.05845 14.9963 8.03264 15.0002 8.00011 15.0002C7.96762 15.0002 7.9418 14.9963 7.92784 14.9943L7.91319 14.9924H7.91026L7.90929 14.9914C7.7425 14.963 6.33102 14.6894 4.89659 13.3088L5.6046 12.6008C6.67716 13.6269 7.71268 13.9243 8.00011 13.9904C8.30578 13.9201 9.45816 13.5884 10.6007 12.3967C11.7866 11.1595 13.0123 8.94273 13.2198 4.98552L14.2491 3.95622Z" fill="white"/>
<path fill-rule="evenodd" clip-rule="evenodd" d="M7.62511 1.14958C7.85306 0.998642 8.14716 0.998641 8.37511 1.14958C8.64864 1.3307 9.49137 1.87123 10.5294 2.36443C11.1065 2.63862 11.7249 2.88601 12.3263 3.05583L13.7364 1.64665C13.9317 1.45139 14.2482 1.45139 14.4435 1.64665C14.6387 1.84192 14.6387 2.15845 14.4435 2.35369L2.56358 14.2326C2.36832 14.4278 2.05181 14.4278 1.85655 14.2326C1.66171 14.0373 1.66146 13.7207 1.85655 13.5256L3.63683 11.7443C2.57429 10.0577 1.75011 7.53726 1.75011 3.78337C1.75036 3.50745 1.97412 3.28337 2.25011 3.28337C3.22946 3.28336 4.41659 2.86479 5.46983 2.36443C6.50808 1.87116 7.35161 1.33068 7.62511 1.14958ZM8.00011 2.0988C7.60453 2.35241 6.82738 2.82692 5.89952 3.26775C4.96499 3.71175 3.82768 4.14625 2.75499 4.25701C2.81759 7.43919 3.51007 9.58009 4.36241 11.0187L11.5284 3.85369C11.0264 3.68162 10.5407 3.4768 10.1007 3.26775C9.17288 2.82694 8.3957 2.35242 8.00011 2.0988Z" fill="white"/>
</svg>
