<svg width="16" height="16" viewBox="0 0 16 16" fill="none" xmlns="http://www.w3.org/2000/svg">
<path d="M14.249 3.95623C14.2164 8.77059 12.8199 11.5269 11.3222 13.089C9.81588 14.6603 8.26647 14.9614 8.0908 14.9914L8.08885 14.9924H8.08592L8.07225 14.9943C8.05831 14.9963 8.03251 15.0002 7.99998 15.0002C7.96749 15.0002 7.94167 14.9963 7.92772 14.9943L7.91307 14.9924H7.91014L7.90916 14.9914C7.74234 14.963 6.33087 14.6894 4.89647 13.3088L14.249 3.95623Z" fill="white"/>
<path d="M7.62498 1.14958C7.85293 0.998641 8.14703 0.998641 8.37498 1.14958C8.64851 1.3307 9.49124 1.87123 10.5293 2.36443C11.1064 2.63862 11.7248 2.88601 12.3262 3.05583L13.7363 1.64665C13.9316 1.45139 14.2481 1.45139 14.4433 1.64665C14.6385 1.84192 14.6386 2.15844 14.4433 2.35369L2.56346 14.2326C2.36819 14.4278 2.05168 14.4278 1.85643 14.2326C1.6616 14.0373 1.66133 13.7207 1.85643 13.5256L3.6367 11.7443C2.57417 10.0577 1.74998 7.53726 1.74998 3.78337C1.75024 3.50745 1.974 3.28337 2.24998 3.28337C3.22933 3.28336 4.41646 2.86479 5.46971 2.36443C6.50794 1.87116 7.35148 1.33068 7.62498 1.14958Z" fill="white"/>
</svg>
