<svg width="16" height="16" viewBox="0 0 16 16" fill="none" xmlns="http://www.w3.org/2000/svg">
<path fill-rule="evenodd" clip-rule="evenodd" d="M8 2.09862C7.60443 2.35222 6.82719 2.82652 5.89932 3.26735C4.9647 3.71139 3.82739 4.14607 2.75461 4.25678C2.84149 8.6747 4.14292 11.0857 5.39982 12.3967C6.54235 13.5885 7.69433 13.9197 8 13.99C8.30567 13.9197 9.45765 13.5885 10.6002 12.3967C11.8571 11.0857 13.1585 8.6747 13.2454 4.25678C12.1726 4.14607 11.0353 3.71139 10.1007 3.26735C9.17281 2.82652 8.39557 2.35222 8 2.09862ZM7.62532 1.14934C7.85327 0.998397 8.14674 0.998397 8.37468 1.14934C8.64791 1.33026 9.49124 1.87068 10.5298 2.36411C11.5832 2.86456 12.7705 3.28375 13.75 3.28375C14.0261 3.28375 14.25 3.50761 14.25 3.78375C14.25 8.70492 12.8375 11.5081 11.322 13.0888C9.81494 14.6608 8.2651 14.9621 8.09068 14.9918L8.08935 14.992L8.08639 14.9925L8.07251 14.9946C8.05861 14.9966 8.03266 14.9997 8 14.9997C7.96733 14.9997 7.94139 14.9966 7.92749 14.9946L7.91361 14.9925L7.91065 14.992L7.90932 14.9918C7.7349 14.9621 6.18506 14.6608 4.67796 13.0888C3.16255 11.508 1.75 8.70491 1.75 3.78375C1.75 3.50761 1.97386 3.28375 2.25 3.28375C3.2295 3.28375 4.41682 2.86456 5.47019 2.36411C6.50876 1.87068 7.35209 1.33026 7.62532 1.14934Z" fill="white"/>
</svg>
