<svg width="16" height="16" viewBox="0 0 16 16" fill="none" xmlns="http://www.w3.org/2000/svg">
<path fill-rule="evenodd" clip-rule="evenodd" d="M8.00016 2.0628C7.60436 2.31722 6.82722 2.79271 5.89955 3.23463C4.96495 3.67985 3.82755 4.11575 2.75458 4.22675C2.78333 5.69746 2.94592 6.94645 3.19629 8.00698L7.83286 5.29313C7.82844 5.25045 7.82617 5.20712 7.82617 5.16326C7.82617 4.48221 8.37244 3.93011 9.04629 3.93011C9.72014 3.93011 10.2664 4.48221 10.2664 5.16326C10.2664 5.8443 9.72014 6.3964 9.04629 6.3964C8.77839 6.3964 8.53066 6.30914 8.3294 6.1612L3.47343 9.00347C3.98378 10.5815 4.69889 11.6583 5.40016 12.3919C6.54248 13.5868 7.69417 13.9191 8.00016 13.9897C8.30615 13.9191 9.45784 13.5868 10.6002 12.3919C11.448 11.505 12.3161 10.1163 12.8181 7.94685L8.16777 10.6687C8.1723 10.7119 8.17461 10.7557 8.17461 10.8001C8.17461 11.4811 7.62835 12.0332 6.95449 12.0332C6.28064 12.0332 5.73438 11.4811 5.73438 10.8001C5.73438 10.1191 6.28064 9.56695 6.95449 9.56695C7.22187 9.56695 7.46915 9.65387 7.6702 9.80128L13.0586 6.64737C13.1627 5.9159 13.2284 5.11144 13.2457 4.22675C12.1728 4.11575 11.0354 3.67985 10.1008 3.23463C9.17309 2.79271 8.39595 2.31722 8.00016 2.0628ZM7.62478 1.11368C7.85305 0.962107 8.14727 0.962109 8.37554 1.11368C8.64899 1.29524 9.49234 1.83712 10.5308 2.33183C11.5842 2.83362 12.7712 3.25378 13.7503 3.25378C14.0265 3.25378 14.2503 3.47764 14.2503 3.75378C14.2503 8.68769 12.8381 11.498 11.323 13.0829C9.81602 14.6593 8.26608 14.9616 8.09112 14.9915L8.08973 14.9917L8.0867 14.9923L8.07267 14.9944C8.05866 14.9964 8.03275 14.9995 8.00015 14.9995C7.96756 14.9995 7.94165 14.9964 7.92764 14.9944L7.91362 14.9923L7.91059 14.9917L7.9092 14.9915C7.73423 14.9616 6.1843 14.6593 4.67732 13.0829C3.1622 11.498 1.75 8.68769 1.75 3.75378C1.75 3.47764 1.97386 3.25378 2.25 3.25378C3.22911 3.25378 4.41614 2.83362 5.46948 2.33183C6.50798 1.83711 7.35133 1.29524 7.62478 1.11368Z" fill="white"/>
</svg>
