<svg width="16" height="16" viewBox="0 0 16 16" fill="none" xmlns="http://www.w3.org/2000/svg">
<path fill-rule="evenodd" clip-rule="evenodd" d="M8.3833 1.11623C8.14986 0.961255 7.85014 0.961256 7.6167 1.11623C7.34605 1.29591 6.50677 1.83519 5.47283 2.32772C4.42363 2.82752 3.24304 3.24509 2.27083 3.24509C1.98318 3.24509 1.75 3.48074 1.75 3.77144C1.75 8.69412 3.16032 11.5016 4.67625 13.0859C6.18301 14.6606 7.73221 14.9621 7.90682 14.9918L7.91057 14.9924L7.9243 14.9946C7.93824 14.9966 7.96551 15 7.99999 15C8.03447 15 8.06174 14.9966 8.0757 14.9946L8.08943 14.9924L8.09214 14.992L8.09318 14.9918C8.26778 14.9621 9.81699 14.6606 11.3237 13.0859C12.8397 11.5016 14.25 8.69412 14.25 3.77144C14.25 3.48074 14.0168 3.24509 13.7292 3.24509C12.7569 3.24509 11.5764 2.82752 10.5272 2.32772C9.49322 1.83519 8.65395 1.29591 8.3833 1.11623ZM11.1417 6.56988C11.3307 6.36851 11.3206 6.05209 11.1193 5.86313C10.9179 5.67418 10.6015 5.68424 10.4125 5.88562L7.45403 9.0385L6.24944 7.96055C6.04366 7.7764 5.72756 7.79394 5.54342 7.99972C5.35927 8.2055 5.37681 8.5216 5.58259 8.70574L7.15108 10.1093C7.35343 10.2904 7.66331 10.2769 7.84912 10.0789L11.1417 6.56988Z" fill="white"/>
</svg>
