<svg width="16" height="16" viewBox="0 0 16 16" fill="none" xmlns="http://www.w3.org/2000/svg">
<path d="M7.625 1.14958C7.85295 0.998641 8.14705 0.998641 8.375 1.14958C8.64853 1.3307 9.49207 1.87118 10.5303 2.36443C11.5835 2.86478 12.7706 3.28337 13.75 3.28337C14.026 3.28337 14.2497 3.50745 14.25 3.78337C14.25 8.70452 12.8377 11.5083 11.3223 13.089C9.81579 14.6604 8.26631 14.9615 8.09082 14.9914L8.08887 14.9924H8.08594L8.07227 14.9943C8.05832 14.9963 8.03252 15.0002 8 15.0002C7.96748 15.0002 7.94168 14.9963 7.92773 14.9943L7.91406 14.9924H7.91113L7.90918 14.9914C7.73369 14.9615 6.18421 14.6604 4.67773 13.089C3.16233 11.5083 1.75 8.70452 1.75 3.78337C1.75026 3.50745 1.97402 3.28337 2.25 3.28337C3.22935 3.28337 4.41648 2.86479 5.46973 2.36443C6.50793 1.87118 7.35147 1.3307 7.625 1.14958Z" fill="white"/>
</svg>
