<svg width="16" height="16" viewBox="0 0 16 16" fill="none" xmlns="http://www.w3.org/2000/svg">
<path fill-rule="evenodd" clip-rule="evenodd" d="M8.3833 1.11623C8.14986 0.961255 7.85014 0.961256 7.6167 1.11623C7.34605 1.29591 6.50677 1.83519 5.47283 2.32772C4.42363 2.82752 3.24304 3.24509 2.27083 3.24509C1.98318 3.24509 1.75 3.48074 1.75 3.77144C1.75 8.69412 3.16032 11.5016 4.67625 13.0859C6.18301 14.6606 7.73221 14.962 7.90682 14.9918L7.91057 14.9924L7.9243 14.9946C7.93824 14.9966 7.96551 15 7.99999 15C8.03447 15 8.06174 14.9966 8.0757 14.9946L8.08943 14.9924L8.09214 14.992L8.09318 14.9918C8.26778 14.962 9.81699 14.6606 11.3237 13.0859C12.8397 11.5016 14.25 8.69412 14.25 3.77144C14.25 3.48074 14.0168 3.24509 13.7292 3.24509C12.7569 3.24509 11.5764 2.82752 10.5272 2.32772C9.49322 1.83519 8.65395 1.29591 8.3833 1.11623ZM6.92335 4.5406C6.92335 3.93801 7.40661 3.44964 8.00289 3.44964C8.59916 3.44964 9.08242 3.93801 9.08242 4.5406C9.08242 5.14319 8.59916 5.63157 8.00289 5.63157C7.40661 5.63157 6.92335 5.14319 6.92335 4.5406ZM6.94613 6.39354C7.11902 6.1958 7.36866 6.06795 7.6512 6.06795H8.35458C8.63712 6.06795 8.88676 6.1958 9.05965 6.39354L10.8763 8.0888C11.0644 8.26523 11.0762 8.56269 10.9016 8.7536C10.7279 8.94367 10.4335 8.9556 10.2446 8.77917L9.79282 8.35759C9.6041 8.1815 9.29833 8.31677 9.29833 8.57634V9.2292L9.4746 11.8134C9.49653 12.1288 9.24941 12.3956 8.93736 12.3956C8.65398 12.3956 8.41952 12.174 8.40012 11.8884L8.28952 10.2658C8.27914 10.1136 8.1539 9.99543 8.00289 9.99543C7.85188 9.99543 7.72664 10.1136 7.71626 10.2658L7.60565 11.8884C7.58626 12.174 7.35179 12.3956 7.06842 12.3956C6.75636 12.3956 6.50925 12.1288 6.53118 11.8134L6.70745 9.23175V8.57634C6.70745 8.31677 6.40167 8.1815 6.21296 8.35759L5.76117 8.77917C5.57225 8.9556 5.27791 8.94367 5.10417 8.7536C4.92959 8.56269 4.9414 8.26523 5.12947 8.0888L6.94613 6.39354Z" fill="white"/>
</svg>
