<svg width="16" height="16" viewBox="0 0 16 16" fill="none" xmlns="http://www.w3.org/2000/svg">
<path fill-rule="evenodd" clip-rule="evenodd" d="M5.89955 3.23463C6.82722 2.79271 7.60436 2.31722 8.00016 2.0628C8.39595 2.31722 9.17309 2.79271 10.1008 3.23463C11.0354 3.67985 12.1728 4.11575 13.2457 4.22675C13.1591 8.65824 11.8574 11.0768 10.6002 12.3919C9.45784 13.5868 8.30615 13.9191 8.00016 13.9897C7.69417 13.9191 6.54248 13.5868 5.40016 12.3919C4.14292 11.0768 2.84122 8.65824 2.75458 4.22675C3.82755 4.11575 4.96495 3.67985 5.89955 3.23463ZM8.37554 1.11368C8.14727 0.962109 7.85305 0.962107 7.62478 1.11368C7.35133 1.29524 6.50798 1.83711 5.46948 2.33183C4.41614 2.83362 3.22911 3.25378 2.25 3.25378C1.97386 3.25378 1.75 3.47764 1.75 3.75378C1.75 8.68769 3.1622 11.498 4.67732 13.0829C6.1843 14.6593 7.73423 14.9616 7.9092 14.9915L7.91059 14.9917L7.91362 14.9923L7.92764 14.9944C7.94165 14.9964 7.96756 14.9995 8.00015 14.9995C8.03275 14.9995 8.05866 14.9964 8.07267 14.9944L8.0867 14.9923L8.08973 14.9917L8.09112 14.9915C8.26608 14.9616 9.81602 14.6593 11.323 13.0829C12.8381 11.498 14.2503 8.68769 14.2503 3.75378C14.2503 3.47764 14.0265 3.25378 13.7503 3.25378C12.7712 3.25378 11.5842 2.83362 10.5308 2.33183C9.49234 1.83712 8.64899 1.29524 8.37554 1.11368ZM11.1518 6.56228C11.3407 6.36087 11.3306 6.04445 11.1292 5.85553C10.9278 5.66662 10.6114 5.67675 10.4224 5.87815L7.45196 9.0451L6.2417 7.96165C6.03596 7.77746 5.71986 7.79494 5.53567 8.00068C5.35149 8.20642 5.36896 8.52252 5.5747 8.70671L7.14894 10.116C7.35131 10.2972 7.6613 10.2836 7.84712 10.0855L11.1518 6.56228Z" fill="white"/>
</svg>
