<svg width="16" height="16" viewBox="0 0 16 16" fill="none" xmlns="http://www.w3.org/2000/svg">
<path fill-rule="evenodd" clip-rule="evenodd" d="M5.89955 3.23463C6.82722 2.79271 7.60436 2.31722 8.00016 2.0628C8.39595 2.31722 9.17309 2.79271 10.1008 3.23463C11.0354 3.67985 12.1728 4.11575 13.2457 4.22675C13.1591 8.65824 11.8574 11.0768 10.6002 12.3919C9.45784 13.5868 8.30615 13.9191 8.00016 13.9897C7.69417 13.9191 6.54248 13.5868 5.40016 12.3919C4.14292 11.0768 2.84122 8.65824 2.75458 4.22675C3.82755 4.11575 4.96495 3.67985 5.89955 3.23463ZM8.37554 1.11368C8.14727 0.962109 7.85305 0.962107 7.62478 1.11368C7.35133 1.29524 6.50798 1.83711 5.46948 2.33183C4.41614 2.83362 3.22911 3.25378 2.25 3.25378C1.97386 3.25378 1.75 3.47764 1.75 3.75378C1.75 8.68769 3.1622 11.498 4.67732 13.0829C6.1843 14.6593 7.73423 14.9616 7.9092 14.9915L7.91059 14.9917L7.91362 14.9923L7.92764 14.9944C7.94165 14.9964 7.96756 14.9995 8.00015 14.9995C8.03275 14.9995 8.05866 14.9964 8.07267 14.9944L8.0867 14.9923L8.08973 14.9917L8.09112 14.9915C8.26608 14.9616 9.81602 14.6593 11.323 13.0829C12.8381 11.498 14.2503 8.68769 14.2503 3.75378C14.2503 3.47764 14.0265 3.25378 13.7503 3.25378C12.7712 3.25378 11.5842 2.83362 10.5308 2.33183C9.49234 1.83712 8.64899 1.29524 8.37554 1.11368ZM6.9168 4.52627C6.9168 3.92123 7.40183 3.43086 8.00029 3.43086C8.59875 3.43086 9.08378 3.92123 9.08378 4.52627C9.08378 5.13131 8.59875 5.62167 8.00029 5.62167C7.40183 5.62167 6.9168 5.13131 6.9168 4.52627ZM6.93966 6.38674C7.11318 6.1882 7.36374 6.05983 7.64731 6.05983H8.35327C8.63684 6.05983 8.8874 6.1882 9.06093 6.38674L10.8842 8.0889C11.073 8.26605 11.0849 8.56472 10.9096 8.75642C10.7353 8.94726 10.4398 8.95924 10.2502 8.78209L9.79678 8.35879C9.60737 8.18198 9.30048 8.3178 9.30048 8.57843V9.23394L9.47739 11.8287C9.4994 12.1453 9.25138 12.4132 8.93819 12.4132C8.65377 12.4132 8.41845 12.1907 8.39898 11.904L8.28797 10.2748C8.27755 10.1219 8.15186 10.0033 8.00029 10.0033C7.84873 10.0033 7.72303 10.1219 7.71261 10.2748L7.6016 11.904C7.58213 12.1907 7.34681 12.4132 7.06239 12.4132C6.7492 12.4132 6.50118 12.1453 6.52319 11.8287L6.7001 9.23651V8.57843C6.7001 8.3178 6.39321 8.18198 6.20381 8.35879L5.75036 8.78209C5.56075 8.95924 5.26533 8.94726 5.09095 8.75642C4.91573 8.56472 4.92758 8.26605 5.11635 8.0889L6.93966 6.38674Z" fill="white"/>
</svg>
