<svg width="16" height="16" viewBox="0 0 16 16" fill="none" xmlns="http://www.w3.org/2000/svg">
<path fill-rule="evenodd" clip-rule="evenodd" d="M8.3833 1.11623C8.14986 0.961255 7.85014 0.961256 7.6167 1.11623C7.34605 1.29591 6.50677 1.83519 5.47283 2.32772C4.42363 2.82752 3.24304 3.24509 2.27083 3.24509C1.98318 3.24509 1.75 3.48074 1.75 3.77144C1.75 8.69412 3.16032 11.5016 4.67625 13.0859C6.18301 14.6606 7.73221 14.9621 7.90682 14.9918L7.91057 14.9924L7.9243 14.9946C7.93824 14.9966 7.96551 15 7.99999 15C8.03447 15 8.06174 14.9966 8.0757 14.9946L8.08943 14.9924L8.09214 14.992L8.09318 14.9918C8.26778 14.9621 9.81699 14.6606 11.3237 13.0859C12.8397 11.5016 14.25 8.69412 14.25 3.77144C14.25 3.48074 14.0168 3.24509 13.7292 3.24509C12.7569 3.24509 11.5764 2.82752 10.5272 2.32772C9.49322 1.83519 8.65395 1.29591 8.3833 1.11623ZM5.04688 5.2015C4.77073 5.2015 4.54688 5.42536 4.54688 5.7015C4.54688 5.97764 4.77073 6.2015 5.04688 6.2015H10.9497C11.2258 6.2015 11.4497 5.97764 11.4497 5.7015C11.4497 5.42536 11.2258 5.2015 10.9497 5.2015H5.04688ZM5.04688 7.65779C4.77073 7.65779 4.54688 7.88165 4.54688 8.15779C4.54688 8.43394 4.77073 8.65779 5.04688 8.65779H10.9497C11.2258 8.65779 11.4497 8.43394 11.4497 8.15779C11.4497 7.88165 11.2258 7.65779 10.9497 7.65779H5.04688ZM7.13021 10.1141C6.85407 10.1141 6.63021 10.3379 6.63021 10.6141C6.63021 10.8902 6.85407 11.1141 7.13021 11.1141H8.86632C9.14246 11.1141 9.36632 10.8902 9.36632 10.6141C9.36632 10.3379 9.14246 10.1141 8.86632 10.1141H7.13021Z" fill="white"/>
</svg>
