<svg width="16" height="16" viewBox="0 0 16 16" fill="none" xmlns="http://www.w3.org/2000/svg">
<path fill-rule="evenodd" clip-rule="evenodd" d="M5.89932 3.26735C6.82719 2.82652 7.60443 2.35222 8 2.09862C8.39557 2.35222 9.17281 2.82652 10.1007 3.26735C10.8581 3.62718 11.7485 3.98087 12.6299 4.16099L13.5148 3.27611C12.5842 3.2172 11.5002 2.82513 10.5298 2.36411C9.49124 1.87068 8.64791 1.33026 8.37468 1.14934C8.14674 0.998397 7.85327 0.998397 7.62532 1.14934C7.35209 1.33026 6.50876 1.87068 5.47019 2.36411C4.41682 2.86456 3.22949 3.28375 2.25 3.28375C1.97386 3.28375 1.75 3.50761 1.75 3.78375C1.75 8.20597 2.89064 10.9179 4.22157 12.5693L4.93337 11.8575C3.83932 10.458 2.83073 8.12779 2.75461 4.25678C3.82739 4.14607 4.9647 3.71139 5.89932 3.26735ZM5.60419 12.6009L4.89692 13.3082C6.33186 14.6893 7.74334 14.9635 7.90932 14.9918L7.91065 14.992L7.91361 14.9925L7.92749 14.9946C7.94139 14.9966 7.96733 14.9997 8 14.9997C8.03266 14.9997 8.05861 14.9966 8.07251 14.9946L8.08639 14.9925L8.08935 14.992L8.09068 14.9918C8.2651 14.9621 9.81494 14.6608 11.322 13.0888C12.8197 11.5266 14.2169 8.77037 14.2494 3.9557L13.2193 4.98582C13.0117 8.94335 11.7861 11.1597 10.6002 12.3967C9.45765 13.5885 8.30567 13.9197 8 13.99C7.71256 13.9239 6.67677 13.6271 5.60419 12.6009Z" fill="white"/>
<path fill-rule="evenodd" clip-rule="evenodd" d="M14.4434 1.64641C14.6387 1.84167 14.6387 2.15826 14.4434 2.35352L2.564 14.2329C2.36874 14.4282 2.05216 14.4282 1.8569 14.2329C1.66163 14.0377 1.66163 13.7211 1.8569 13.5258L13.7363 1.64641C13.9316 1.45115 14.2481 1.45115 14.4434 1.64641Z" fill="white"/>
</svg>
