<svg width="16" height="16" viewBox="0 0 16 16" fill="none" xmlns="http://www.w3.org/2000/svg">
<path fill-rule="evenodd" clip-rule="evenodd" d="M7.07 3.96993C6.94 3.86993 6.8 3.78992 6.65 3.73993C6.55 3.69993 6.43 3.66993 6.32 3.64993C6.2 3.63993 6.08 3.62993 5.96 3.63993C5.79 3.65993 5.62 3.69992 5.45 3.77992C5.28 3.84993 5.13 3.94993 5 4.06993C4.91 4.14993 4.84 4.23993 4.77 4.33993C4.7 4.43993 4.65 4.53992 4.61 4.63992C4.53 4.82992 4.5 5.02992 4.5 5.23992V13.7999C4.5 14.0799 4.27 14.2899 4 14.2999C3.72 14.2999 3.5 14.0799 3.5 13.7999V5.23992C3.5 4.91992 3.55 4.61993 3.65 4.33993C3.72 4.13993 3.82 3.94992 3.94 3.77992C4.06 3.59992 4.2 3.43992 4.36 3.29992C4.56 3.11992 4.79 2.97992 5.04 2.85992C5.3 2.74992 5.56 2.67993 5.82 2.64993C6.03 2.62993 6.24 2.62993 6.46 2.65993C6.67 2.68993 6.88 2.74992 7.08 2.82992C7.35 2.93992 7.61 3.09992 7.84 3.31992L8.22 3.22993C8.85 2.81993 9.66 2.77993 10.33 3.12993L11.69 3.82992C11.94 3.95992 12.07 4.20992 12.07 4.44992C12.07 4.67992 11.96 4.89992 11.75 5.03992L7.23 7.97993C6.78 8.26993 6.18 7.96992 6.15 7.42992L6.05 5.90992C6.05 5.85992 6.05 5.81993 6.05 5.77993C6.05 5.06993 6.47 4.35993 7.07 3.96993ZM11.06 6.03992C11.28 5.87992 11.59 5.92992 11.75 6.15992L12.16 6.72993C12.22 6.81993 12.25 6.91993 12.25 7.01993C12.25 7.16993 12.18 7.31993 12.04 7.41993C11.81 7.58993 11.5 7.52992 11.34 7.30993L10.94 6.72993C10.87 6.63993 10.84 6.53992 10.84 6.43992C10.84 6.28992 10.92 6.13992 11.06 6.03992ZM8.25 7.78993C8.48 7.62993 8.79 7.67992 8.95 7.90992L9.36 8.47992C9.42 8.56992 9.45 8.66993 9.45 8.76993C9.45 8.91993 9.38 9.06993 9.24 9.16993C9.01 9.33993 8.71 9.27993 8.54 9.05993L8.14 8.47992C8.07 8.38992 8.04 8.28992 8.04 8.18992C8.04 8.03992 8.12 7.88993 8.25 7.78993ZM10.36 7.95993C10.58 7.79993 10.89 7.84993 11.05 8.07993L11.46 8.64992C11.52 8.73992 11.55 8.83992 11.55 8.93992C11.55 9.09992 11.48 9.24993 11.34 9.34993C11.11 9.50993 10.81 9.45992 10.64 9.22992L10.24 8.65992C10.17 8.56992 10.14 8.46992 10.14 8.36993C10.14 8.20993 10.22 8.05993 10.36 7.95993ZM12.46 8.13993C12.68 7.97993 12.99 8.02993 13.15 8.25993L13.56 8.82993C13.62 8.91993 13.65 9.01993 13.65 9.11993C13.65 9.26993 13.58 9.41993 13.44 9.51993C13.21 9.68993 12.91 9.62992 12.74 9.40992L12.34 8.82993C12.27 8.74993 12.24 8.63993 12.24 8.53993C12.24 8.38993 12.32 8.23993 12.46 8.13993ZM9.66 9.88993C9.88 9.72993 10.19 9.77993 10.35 10.0099L10.76 10.5799C10.82 10.6699 10.85 10.7699 10.85 10.8699C10.85 11.0199 10.78 11.1699 10.64 11.2699C10.41 11.4399 10.1 11.3799 9.94 11.1599L9.54 10.5799C9.47 10.4999 9.44 10.3899 9.44 10.2899C9.44 10.1399 9.52 9.98993 9.66 9.88993ZM11.75 10.0599C11.98 9.89993 12.29 9.94993 12.45 10.1799L12.86 10.7499C12.92 10.8399 12.95 10.9399 12.95 11.0399C12.95 11.1999 12.88 11.3499 12.74 11.4499C12.51 11.6099 12.21 11.5599 12.04 11.3299L11.64 10.7599C11.57 10.6699 11.54 10.5699 11.54 10.4699C11.54 10.3099 11.62 10.1599 11.75 10.0599Z" fill="white"/>
</svg>
