<svg width="16" height="16" viewBox="0 0 16 16" fill="none" xmlns="http://www.w3.org/2000/svg">
<g clip-path="url(#clip0_40886_2698)">
<path fill-rule="evenodd" clip-rule="evenodd" d="M6.3712 2.3696C7.63585 2.00354 8.9869 2.07389 10.2067 2.56932C10.5137 2.69402 10.8637 2.54622 10.9884 2.23921C11.1131 1.93219 10.9653 1.58222 10.6583 1.45753C9.18875 0.86067 7.5611 0.775916 6.03755 1.21692C4.514 1.65793 3.18328 2.59901 2.25981 3.88854C1.33633 5.17807 0.873878 6.74095 0.946956 8.32536C1.02003 9.90977 1.62439 11.4234 2.66264 12.6225C3.7009 13.8215 5.11259 14.6361 6.67027 14.935C8.22794 15.2339 9.84088 14.9997 11.2492 14.2701C12.6575 13.5405 13.7792 12.358 14.4336 10.9132C15.0879 9.46837 15.2368 7.84532 14.8562 6.30556C14.7767 5.98387 14.4514 5.78755 14.1297 5.86706C13.808 5.94658 13.6117 6.27182 13.6912 6.59351C14.0071 7.87161 13.8836 9.21885 13.3404 10.4182C12.7973 11.6175 11.8662 12.599 10.6972 13.2046C9.52821 13.8102 8.18937 14.0046 6.8964 13.7565C5.60343 13.5084 4.43163 12.8323 3.56981 11.837C2.70799 10.8417 2.20634 9.58524 2.14568 8.27007C2.08502 6.95491 2.46889 5.65761 3.23544 4.58722C4.00198 3.51683 5.10656 2.73567 6.3712 2.3696ZM8.59844 5.12821C8.59844 4.79684 8.32981 4.52821 7.99844 4.52821C7.66707 4.52821 7.39844 4.79684 7.39844 5.12821V8.69814C7.39844 8.92119 7.51547 9.12789 7.70673 9.24265L9.4846 10.3094C9.76875 10.4799 10.1373 10.3877 10.3078 10.1036C10.4783 9.81943 10.3861 9.45088 10.102 9.28039L8.59844 8.37824V5.12821Z" fill="white"/>
<path fill-rule="evenodd" clip-rule="evenodd" d="M11.6 0.999994C11.6 0.668623 11.8686 0.399994 12.2 0.399994H15.2297C15.8796 0.399994 16.1787 1.20854 15.6852 1.63147L13.622 3.39999H15.3C15.6314 3.39999 15.9 3.66862 15.9 3.99999C15.9 4.33136 15.6314 4.59999 15.3 4.59999H12.2703C11.6204 4.59999 11.3213 3.79146 11.8148 3.36851L13.878 1.59999H12.2C11.8686 1.59999 11.6 1.33136 11.6 0.999994Z" fill="white"/>
</g>
<defs>
<clipPath id="clip0_40886_2698">
<rect width="16" height="16" fill="white"/>
</clipPath>
</defs>
</svg>
