<svg width="16" height="16" viewBox="0 0 16 16" fill="none" xmlns="http://www.w3.org/2000/svg">
<path fill-rule="evenodd" clip-rule="evenodd" d="M1 7.99966C1 4.13385 4.1385 0.999994 8.01004 0.999994C9.36848 0.999994 10.6367 1.38582 11.7107 2.05371L11.1637 2.59993C10.2289 3.5334 10.8132 5.04981 11.8647 5.04981H14.369C14.7868 5.94625 15.0201 6.94576 15.0201 7.99966C15.0201 11.8655 11.8816 14.9993 8.01004 14.9993C4.1385 14.9993 1 11.8655 1 7.99966ZM7.31062 5.19996C7.31062 4.81338 7.62447 4.5 8.01163 4.5C8.39878 4.5 8.71263 4.81338 8.71263 5.19996V8.29565L10.1834 9.14356C10.5187 9.33685 10.6336 9.76494 10.44 10.0997C10.2464 10.4345 9.81771 10.5492 9.48243 10.3559L7.67378 9.31326C7.64526 9.29757 7.61796 9.27995 7.59204 9.26059C7.43356 9.14217 7.32694 8.95833 7.31234 8.74918C7.3109 8.72915 7.31033 8.70902 7.31062 8.68885V5.19996Z" fill="white"/>
<path fill-rule="evenodd" clip-rule="evenodd" d="M11.6 0.749994C11.6 0.418623 11.8686 0.149994 12.2 0.149994H15.2297C15.8796 0.149994 16.1787 0.958537 15.6852 1.38147L13.622 3.14999H15.3C15.6314 3.14999 15.9 3.41862 15.9 3.74999C15.9 4.08136 15.6314 4.34999 15.3 4.34999H12.2703C11.6204 4.34999 11.3213 3.54146 11.8148 3.11851L13.878 1.34999H12.2C11.8686 1.34999 11.6 1.08136 11.6 0.749994Z" fill="white"/>
</svg>
