<svg width="16" height="16" viewBox="0 0 16 16" fill="none" xmlns="http://www.w3.org/2000/svg">
<path fill-rule="evenodd" clip-rule="evenodd" d="M5.10168 10.9496C8.3357 10.9496 10.9574 8.32879 10.9574 5.09588C10.9574 4.4006 10.8361 3.73364 10.6136 3.11496C10.426 2.59344 10.3322 2.33268 10.3842 2.2075C10.4298 2.09775 10.5241 2.02083 10.6407 1.99819C10.7738 1.97235 10.9668 2.08994 11.3527 2.32511C13.2435 3.47721 14.5059 5.5579 14.5059 7.93335C14.5059 11.5581 11.5664 14.4966 7.94037 14.4966C5.56431 14.4966 3.48304 13.2348 2.33049 11.345C2.09525 10.9593 1.97763 10.7664 2.00342 10.6334C2.02603 10.5167 2.10295 10.4224 2.21268 10.3768C2.33786 10.3247 2.59854 10.4184 3.1199 10.6058C3.73884 10.8283 4.40609 10.9496 5.10168 10.9496Z" fill="white"/>
<path fill-rule="evenodd" clip-rule="evenodd" d="M11.5943 1.88682L11.6129 1.89813C13.6463 3.13716 15.0059 5.37627 15.0059 7.93335C15.0059 11.8344 11.8424 14.9966 7.94037 14.9966C5.38286 14.9966 3.14318 13.6379 1.90362 11.6054L1.89231 11.5868C1.78443 11.41 1.68612 11.2488 1.62037 11.115C1.56061 10.9935 1.46574 10.7798 1.51256 10.5382C1.56706 10.257 1.75622 10.025 2.02075 9.91506C2.1558 9.85892 2.28613 9.85814 2.37756 9.86615C2.47149 9.87438 2.56541 9.89594 2.65092 9.91957C2.81531 9.96501 3.02558 10.0406 3.26987 10.1284L3.28904 10.1353C3.85449 10.3386 4.46457 10.4496 5.10168 10.4496C8.05972 10.4496 10.4574 8.05248 10.4574 5.09588C10.4574 4.45911 10.3464 3.84936 10.1431 3.28419L10.1362 3.26501C10.0483 3.02064 9.97265 2.81033 9.92717 2.64591C9.90351 2.56039 9.88192 2.46646 9.87367 2.37254C9.86564 2.28113 9.86637 2.15077 9.92248 2.01569C10.0324 1.75113 10.2642 1.56194 10.5455 1.50735C10.7871 1.46045 11.0008 1.55528 11.1223 1.61499C11.2561 1.68071 11.4174 1.77897 11.5943 1.88682ZM10.9933 2.69171C11.0194 2.76561 11.0495 2.84962 11.0841 2.94573C11.3259 3.61791 11.4574 4.34209 11.4574 5.09588C11.4574 8.60509 8.61168 11.4496 5.10168 11.4496C4.34762 11.4496 3.62318 11.3181 2.95076 11.0764C2.85481 11.0419 2.77095 11.0118 2.69716 10.9858C2.71578 11.0164 2.73581 11.0493 2.75737 11.0847C3.82291 12.8318 5.74576 13.9966 7.94037 13.9966C11.2904 13.9966 14.0059 11.2818 14.0059 7.93335C14.0059 5.73953 12.8406 3.81725 11.0926 2.75209C11.0571 2.73047 11.0241 2.71038 10.9933 2.69171Z" fill="white"/>
</svg>
