<svg width="16" height="16" viewBox="0 0 16 16" fill="none" xmlns="http://www.w3.org/2000/svg">
<path fill-rule="evenodd" clip-rule="evenodd" d="M8 15C11.866 15 15 11.866 15 8C15 4.13401 11.866 1 8 1C4.13401 1 1 4.13401 1 8C1 11.866 4.13401 15 8 15ZM5.725 7.3C6.20825 7.3 6.6 6.90825 6.6 6.425C6.6 5.94175 6.20825 5.55 5.725 5.55C5.24175 5.55 4.85 5.94175 4.85 6.425C4.85 6.90825 5.24175 7.3 5.725 7.3ZM11.15 6.425C11.15 6.90825 10.7582 7.3 10.275 7.3C9.79175 7.3 9.4 6.90825 9.4 6.425C9.4 5.94175 9.79175 5.55 10.275 5.55C10.7582 5.55 11.15 5.94175 11.15 6.425ZM5.40192 9.5C5.26385 9.26085 4.95806 9.17892 4.71891 9.31699C4.47976 9.45506 4.39783 9.76085 4.5359 10C4.88697 10.6081 5.39192 11.113 6 11.4641C6.60808 11.8152 7.29785 12 8 12C8.70215 12 9.39192 11.8152 10 11.4641C10.6081 11.113 11.113 10.6081 11.4641 10C11.6022 9.76085 11.5202 9.45506 11.2811 9.31699C11.0419 9.17892 10.7361 9.26085 10.5981 9.5C10.3348 9.95606 9.95606 10.3348 9.5 10.5981C9.04394 10.8614 8.52661 11 8 11C7.47339 11 6.95606 10.8614 6.5 10.5981C6.04394 10.3348 5.66523 9.95606 5.40192 9.5Z" fill="white"/>
</svg>
