<svg width="16" height="16" viewBox="0 0 16 16" fill="none" xmlns="http://www.w3.org/2000/svg">
<path fill-rule="evenodd" clip-rule="evenodd" d="M3.72655 7.71969H2.65142L5.01688 0.929688H6.11516L8.448 7.71969H7.42102L6.85383 6.04769H4.30173L3.72655 7.71969ZM6.49485 4.97669L5.58562 2.29073L4.66918 4.97669H6.49485Z" fill="white"/>
<path d="M13.5979 6.66527C13.7962 6.47313 13.8013 6.15659 13.6091 5.95825L11.8591 4.1518C11.7649 4.05458 11.6353 3.9997 11.5 3.9997C11.3646 3.9997 11.235 4.05458 11.1409 4.1518L9.39088 5.95826C9.19874 6.1566 9.20377 6.47314 9.4021 6.66528C9.60044 6.85741 9.91698 6.85239 10.1091 6.65405L11 5.73444V11.4998C11 11.7759 11.2238 11.9998 11.5 11.9998C11.7761 11.9998 12 11.7759 12 11.4998V5.73442L12.8909 6.65405C13.083 6.85239 13.3996 6.85741 13.5979 6.66527Z" fill="white"/>
<path fill-rule="evenodd" clip-rule="evenodd" d="M3.8644 15.0698L5.17257 12.8813C5.23947 12.8899 5.30691 12.8943 5.37389 12.8943H6.67438V15.0698H7.7199V8.27979H5.62728C4.77719 8.27979 4.11788 8.47182 3.66046 8.8668C3.20071 9.2638 2.9761 9.85271 2.9761 10.6203C2.9761 11.1388 3.07649 11.5733 3.28212 11.9195C3.47507 12.2444 3.75811 12.4872 4.12793 12.6484L2.62402 15.0698H3.8644ZM5.61035 11.8328C5.05137 11.8328 4.65766 11.7413 4.41597 11.5707C4.18681 11.3988 4.06394 11.1047 4.06394 10.6678C4.06394 10.1722 4.19625 9.84025 4.44266 9.64991C4.70202 9.45397 5.08781 9.35079 5.61035 9.35079H6.67438V11.8328H5.61035Z" fill="white"/>
</svg>
