<svg width="16" height="16" viewBox="0 0 16 16" fill="none" xmlns="http://www.w3.org/2000/svg">
<path fill-rule="evenodd" clip-rule="evenodd" d="M2.65142 7.71969H3.72655L4.30173 6.04769H6.85383L7.42102 7.71969H8.448L6.11516 0.929688H5.01688L2.65142 7.71969ZM5.58562 2.29073L6.49485 4.97669H4.66918L5.58562 2.29073Z" fill="white"/>
<path fill-rule="evenodd" clip-rule="evenodd" d="M5.17257 12.8813L3.8644 15.0698H2.62402L4.12793 12.6484C3.75811 12.4872 3.47507 12.2444 3.28212 11.9195C3.07649 11.5733 2.9761 11.1388 2.9761 10.6203C2.9761 9.85271 3.20071 9.2638 3.66046 8.8668C4.11788 8.47182 4.77719 8.27979 5.62728 8.27979H7.7199V15.0698H6.67438V12.8943H5.37389C5.30691 12.8943 5.23947 12.8899 5.17257 12.8813ZM4.41597 11.5707C4.65766 11.7413 5.05137 11.8328 5.61035 11.8328H6.67438V9.35079H5.61035C5.08781 9.35079 4.70202 9.45397 4.44266 9.64991C4.19625 9.84025 4.06394 10.1722 4.06394 10.6678C4.06394 11.1047 4.18681 11.3988 4.41597 11.5707Z" fill="white"/>
<path d="M9.4021 9.33424C9.20377 9.52638 9.19874 9.84292 9.39088 10.0413L11.1409 11.8477C11.2351 11.9449 11.3647 11.9998 11.5 11.9998C11.6354 11.9998 11.765 11.9449 11.8591 11.8477L13.6091 10.0413C13.8013 9.84292 13.7962 9.52637 13.5979 9.33424C13.3996 9.1421 13.083 9.14713 12.8909 9.34546L12 10.2651V4.49976C12 4.22361 11.7762 3.99976 11.5 3.99976C11.2239 3.99976 11 4.22361 11 4.49976V10.2651L10.1091 9.34546C9.91698 9.14712 9.60044 9.1421 9.4021 9.33424Z" fill="white"/>
</svg>
