<svg width="16" height="16" viewBox="0 0 16 16" fill="none" xmlns="http://www.w3.org/2000/svg">
<path d="M1.7002 2.2998C1.9762 2.29987 2.20006 2.52381 2.2002 2.7998V13.2998C2.2002 13.5759 1.97628 13.7997 1.7002 13.7998C1.42405 13.7998 1.2002 13.5759 1.2002 13.2998V2.7998C1.20033 2.52377 1.42413 2.2998 1.7002 2.2998Z" fill="white"/>
<path d="M14.2998 2.2998C14.5759 2.2998 14.7997 2.52377 14.7998 2.7998V13.2998C14.7998 13.5759 14.5759 13.7998 14.2998 13.7998C14.0238 13.7997 13.7998 13.5759 13.7998 13.2998V2.7998C13.7999 2.52386 14.0239 2.29994 14.2998 2.2998Z" fill="white"/>
<path d="M9.1377 5.40137C9.33459 5.20812 9.65125 5.21068 9.84473 5.40723L12.0947 7.69922C12.2866 7.89463 12.2858 8.20823 12.0928 8.40234L9.84277 10.6611C9.64795 10.8566 9.33134 10.8567 9.13574 10.6621C8.94045 10.4673 8.93925 10.1506 9.13379 9.95508L10.5088 8.5752H5.40625L6.85547 9.94434C7.05597 10.134 7.06452 10.4507 6.875 10.6514C6.68529 10.8519 6.3686 10.8606 6.16797 10.6709L3.7793 8.41309C3.68011 8.31913 3.62358 8.18839 3.62305 8.05176C3.6226 7.91503 3.67869 7.78414 3.77734 7.68945L6.16504 5.39648C6.36412 5.20559 6.68086 5.21244 6.87207 5.41113C7.06309 5.61019 7.05711 5.92691 6.8584 6.11816L5.34082 7.5752H10.5703L9.13184 6.1084C8.93872 5.91145 8.94109 5.59478 9.1377 5.40137Z" fill="white"/>
</svg>
