<svg width="16" height="16" viewBox="0 0 16 16" fill="none" xmlns="http://www.w3.org/2000/svg">
<path d="M13.25 13.8496C13.526 13.8496 13.7497 14.0737 13.75 14.3496C13.75 14.6258 13.5261 14.8496 13.25 14.8496H2.75C2.47386 14.8496 2.25 14.6258 2.25 14.3496C2.25027 14.0737 2.47402 13.8496 2.75 13.8496H13.25Z" fill="white"/>
<path d="M7.99805 3.67285C8.13481 3.67234 8.26562 3.72851 8.36035 3.82715L10.6533 6.21484C10.8444 6.41392 10.8374 6.73063 10.6387 6.92188C10.4396 7.11294 10.1229 7.10705 9.93164 6.9082L8.47461 5.39062V10.6201L9.94141 9.18164C10.1383 8.9886 10.455 8.99111 10.6484 9.1875C10.8417 9.38439 10.8391 9.70104 10.6426 9.89453L8.35059 12.1445C8.15516 12.3364 7.84157 12.3357 7.64746 12.1426L5.38867 9.89258C5.19346 9.69774 5.19318 9.38108 5.3877 9.18555C5.58246 8.99033 5.89915 8.98926 6.09473 9.18359L7.47461 10.5576V5.45605L6.10547 6.90527C5.91576 7.10582 5.59907 7.11446 5.39844 6.9248C5.19799 6.73508 5.18928 6.41837 5.37891 6.21777L7.63672 3.8291C7.73067 3.72992 7.86141 3.67339 7.99805 3.67285Z" fill="white"/>
<path d="M13.25 1.25C13.5261 1.25 13.7499 1.47395 13.75 1.75C13.75 2.0261 13.5261 2.25 13.25 2.25H2.75C2.47389 2.25 2.25005 2.0261 2.25 1.75C2.25011 1.47395 2.47393 1.25 2.75 1.25H13.25Z" fill="white"/>
</svg>
