<svg width="16" height="16" viewBox="0 0 16 16" fill="none" xmlns="http://www.w3.org/2000/svg">
<path d="M2.25 3.37C2.25 2.97796 2.25 2.78194 2.3263 2.63221C2.39341 2.50049 2.50049 2.39341 2.63221 2.3263C2.78194 2.25 2.97796 2.25 3.37 2.25H12.63C13.022 2.25 13.2181 2.25 13.3678 2.3263C13.4995 2.39341 13.6066 2.50049 13.6737 2.63221C13.75 2.78194 13.75 2.97796 13.75 3.37V12.63C13.75 13.022 13.75 13.2181 13.6737 13.3678C13.6066 13.4995 13.4995 13.6066 13.3678 13.6737C13.2181 13.75 13.022 13.75 12.63 13.75H3.37C2.97796 13.75 2.78194 13.75 2.63221 13.6737C2.50049 13.6066 2.39341 13.4995 2.3263 13.3678C2.25 13.2181 2.25 13.022 2.25 12.63V3.37Z" stroke="white"/>
</svg>
