<svg width="16" height="16" viewBox="0 0 16 16" fill="none" xmlns="http://www.w3.org/2000/svg">
<path fill-rule="evenodd" clip-rule="evenodd" d="M12.7354 1.84383C12.9057 1.60639 12.8537 1.27405 12.6193 1.10153C12.3848 0.929016 12.0567 0.981655 11.8863 1.2191L10.4156 3.26924C10.2453 3.50669 10.2973 3.83903 10.5317 4.01155C10.7662 4.18406 11.0943 4.13142 11.2647 3.89397L12.7354 1.84383ZM4.11361 1.21914C3.94327 0.981688 3.61513 0.92905 3.38068 1.10156C3.14623 1.27408 3.09425 1.60642 3.26459 1.84387L4.7353 3.89401C4.90564 4.13145 5.23378 4.18409 5.46823 4.01158C5.70268 3.83906 5.75466 3.50672 5.58432 3.26927L4.11361 1.21914ZM3.56668 9.55841C3.84229 9.46771 3.99312 9.1679 3.90357 8.88877C3.81402 8.60963 3.518 8.45687 3.24238 8.54757L0.862718 9.33064C0.587105 9.42134 0.436272 9.72114 0.525823 10.0003C0.615374 10.2794 0.911398 10.4322 1.18701 10.3415L3.56668 9.55841ZM12.7576 8.54759C12.482 8.45689 12.186 8.60965 12.0964 8.88879C12.0069 9.16793 12.1577 9.46773 12.4333 9.55843L14.813 10.3415C15.0886 10.4322 15.3846 10.2794 15.4742 10.0003C15.5637 9.72116 15.4129 9.42136 15.1373 9.33066L12.7576 8.54759ZM8.52469 12.4345C8.52469 12.141 8.28977 11.903 7.99997 11.903C7.71017 11.903 7.47525 12.141 7.47525 12.4345V14.9686C7.47525 15.2621 7.71017 15.5 7.99997 15.5C8.28977 15.5 8.52469 15.2621 8.52469 14.9686V12.4345ZM8.65435 2.00167C8.38171 1.46059 7.61834 1.46059 7.34569 2.00167L5.97615 4.71959L3.00067 5.19886C2.40832 5.29428 2.17242 6.02957 2.59627 6.45938L4.72533 8.61842L4.25592 11.6326C4.16247 12.2326 4.78006 12.687 5.31465 12.4116L8.00002 11.028L10.6854 12.4116C11.22 12.687 11.8376 12.2326 11.7441 11.6326L11.2747 8.61842L13.4038 6.45938C13.8276 6.02957 13.5917 5.29428 12.9994 5.19886L10.0239 4.71959L8.65435 2.00167ZM6.83811 5.34721L8.00002 3.04133L9.16194 5.34721C9.26868 5.55904 9.46898 5.70642 9.70088 5.74378L12.2253 6.15039L10.419 7.98212C10.253 8.1504 10.1765 8.38887 10.2131 8.62379L10.6114 11.181L8.33311 10.0072C8.12381 9.89933 7.87623 9.89933 7.66694 10.0072L5.38867 11.181L5.78692 8.62379C5.8235 8.38887 5.747 8.1504 5.58106 7.98212L3.77477 6.15039L6.29916 5.74378C6.53107 5.70643 6.73137 5.55904 6.83811 5.34721Z" fill="white"/>
</svg>
