<svg width="16" height="16" viewBox="0 0 16 16" fill="none" xmlns="http://www.w3.org/2000/svg">
<path fill-rule="evenodd" clip-rule="evenodd" d="M6.80183 1.84175C7.19646 0.775345 8.70492 0.775469 9.09968 1.84175L10.4112 5.38667C10.429 5.4343 10.4671 5.47151 10.5147 5.48921L14.0587 6.80073C15.125 7.19543 15.1251 8.70391 14.0587 9.09858L10.5147 10.4101C10.4668 10.4278 10.4289 10.4657 10.4112 10.5136L9.09968 14.0576C8.70504 15.124 7.19652 15.124 6.80183 14.0576L5.49031 10.5136C5.47261 10.466 5.43538 10.4279 5.38777 10.4101L1.84285 9.09858C0.776571 8.70382 0.776441 7.19536 1.84285 6.80073L5.38777 5.48921C5.43519 5.47146 5.47257 5.4341 5.49031 5.38667L6.80183 1.84175ZM8.11531 2.206C8.05885 2.05398 7.84373 2.05406 7.78718 2.206L6.47566 5.75093C6.35158 6.08602 6.08711 6.35047 5.75203 6.47456L2.2071 7.78608C2.05516 7.84263 2.05507 8.05775 2.2071 8.11421L5.75203 9.42573C6.08711 9.54988 6.35164 9.81421 6.47566 10.1494L7.78718 13.6933C7.8436 13.8456 8.05893 13.8456 8.11531 13.6933L9.42683 10.1494C9.5509 9.81407 9.81517 9.54981 10.1505 9.42573L13.6944 8.11421C13.8467 8.0578 13.8466 7.84251 13.6944 7.78608L10.1505 6.47456C9.8153 6.35054 9.55097 6.08603 9.42683 5.75093L8.11531 2.206Z" fill="white"/>
</svg>
