<svg width="16" height="16" viewBox="0 0 16 16" fill="none" xmlns="http://www.w3.org/2000/svg">
<path d="M14.2325 2.35355C14.4277 2.15829 14.4277 1.84171 14.2325 1.64645C14.0372 1.45118 13.7206 1.45118 13.5254 1.64645L9.90165 5.27015L8.65556 2.27418C8.41303 1.69106 7.58698 1.69106 7.34444 2.27418L5.93635 5.65964L2.28146 5.95265C1.65194 6.00312 1.39668 6.78874 1.87631 7.19959L4.66095 9.58493L4.37089 10.8009L1.64596 13.5258C1.4507 13.7211 1.4507 14.0377 1.64596 14.2329C1.84122 14.4282 2.1578 14.4282 2.35306 14.2329L14.2325 2.35355Z" fill="white"/>
<path d="M4.87091 13.9221C4.60627 14.0838 4.31045 14.049 4.09523 13.899L12.166 5.82818L13.7185 5.95265C14.3481 6.00312 14.6033 6.78874 14.1237 7.19959L11.3391 9.58493L12.1898 13.1515C12.3363 13.7658 11.6681 14.2513 11.1291 13.9221L8 12.0109L4.87091 13.9221Z" fill="white"/>
</svg>
