<svg width="16" height="16" viewBox="0 0 16 16" fill="none" xmlns="http://www.w3.org/2000/svg">
<path fill-rule="evenodd" clip-rule="evenodd" d="M8.63245 1.63921C8.36894 1.12287 7.63115 1.12287 7.36764 1.63921L5.57192 5.15794L1.6705 5.77842C1.098 5.86948 0.870007 6.57116 1.27966 6.98133L4.07125 9.77651L3.5596 13.0204L4.76154 11.8185L5.08202 9.78659C5.11738 9.5624 5.04344 9.33483 4.88306 9.17424L2.38878 6.67676L5.87468 6.12235C6.09882 6.08671 6.29241 5.94605 6.39557 5.7439L8.00005 2.59993L9.60452 5.7439C9.70768 5.94605 9.90127 6.08671 10.1254 6.12235L10.4121 6.16794L11.2857 5.29432L10.4282 5.15794L8.63245 1.63921ZM12.5059 5.48837L11.6322 6.362L13.6113 6.67676L11.117 9.17424C10.9567 9.33483 10.8827 9.5624 10.9181 9.78659L11.468 13.2732L8.32197 11.6728C8.11969 11.5699 7.8804 11.5699 7.67812 11.6728L4.91668 13.0776L3.67945 14.3148C3.88446 14.5002 4.19395 14.5672 4.47902 14.4222L8.00005 12.6309L11.5211 14.4222C12.0378 14.685 12.6346 14.2513 12.5443 13.6787L11.9288 9.77651L14.7204 6.98133C15.1301 6.57116 14.9021 5.86948 14.3296 5.77842L12.5059 5.48837Z" fill="white"/>
<path fill-rule="evenodd" clip-rule="evenodd" d="M14.233 1.64642C14.4283 1.84168 14.4283 2.15826 14.233 2.35352L2.3536 14.2329C2.15834 14.4282 1.84176 14.4282 1.64649 14.2329C1.45123 14.0377 1.45123 13.7211 1.64649 13.5258L13.5259 1.64642C13.7211 1.45115 14.0377 1.45115 14.233 1.64642Z" fill="white"/>
</svg>
