<svg width="16" height="16" viewBox="0 0 16 16" fill="none" xmlns="http://www.w3.org/2000/svg">
<path fill-rule="evenodd" clip-rule="evenodd" d="M2 7.99821C2 4.68549 4.68549 2 7.99821 2C11.3109 2 13.9964 4.68549 13.9964 7.99821C13.9964 11.3109 11.3109 13.9964 7.99821 13.9964C4.68549 13.9964 2 11.3109 2 7.99821ZM7.99821 1C4.1332 1 1 4.1332 1 7.99821C1 11.8632 4.1332 14.9964 7.99821 14.9964C11.8632 14.9964 14.9964 11.8632 14.9964 7.99821C14.9964 4.1332 11.8632 1 7.99821 1ZM8.70845 3.64549C8.48463 2.95666 7.51011 2.95666 7.2863 3.64549L6.52874 5.97702H4.07723C3.35294 5.97702 3.0518 6.90384 3.63776 7.32956L5.62107 8.77053L4.86351 11.1021C4.6397 11.7909 5.4281 12.3637 6.01406 11.938L7.99737 10.497L9.98069 11.938C10.5666 12.3637 11.3551 11.7909 11.1312 11.1021L10.3737 8.77053L12.357 7.32956C12.9429 6.90384 12.6418 5.97702 11.9175 5.97702H9.46601L8.70845 3.64549ZM7.42575 6.46397L7.99737 4.70469L8.569 6.46397C8.66909 6.77203 8.95617 6.9806 9.28008 6.9806H11.1299L9.63336 8.0679C9.37131 8.25829 9.26166 8.59576 9.36175 8.90382L9.93338 10.6631L8.43684 9.5758C8.17479 9.38542 7.81995 9.38542 7.5579 9.5758L6.06137 10.6631L6.63299 8.90382C6.73309 8.59576 6.62344 8.25829 6.36139 8.0679L4.86485 6.9806H6.71467C7.03858 6.9806 7.32565 6.77203 7.42575 6.46397Z" fill="white"/>
</svg>
