<svg width="16" height="16" viewBox="0 0 16 16" fill="none" xmlns="http://www.w3.org/2000/svg">
<path fill-rule="evenodd" clip-rule="evenodd" d="M7.34444 2.27425C7.58698 1.69114 8.41303 1.69113 8.65556 2.27425L10.0637 5.65971L13.7185 5.95272C14.3481 6.00319 14.6033 6.78881 14.1237 7.19967L11.3391 9.58501L12.1898 13.1516C12.3363 13.7659 11.6681 14.2514 11.1291 13.9222L8 12.011L4.87091 13.9222C4.33195 14.2514 3.66366 13.7659 3.81019 13.1516L4.66095 9.58501L1.87631 7.19967C1.39668 6.78881 1.65194 6.00319 2.28146 5.95272L5.93635 5.65971L7.34444 2.27425ZM8 3.30206L6.79165 6.20729C6.6894 6.45312 6.45822 6.62108 6.19283 6.64236L3.05639 6.89381L5.44603 8.94078C5.64823 9.11399 5.73653 9.38576 5.67475 9.64474L4.94468 12.7054L7.62991 11.0652C7.85712 10.9265 8.14288 10.9265 8.37009 11.0652L11.0553 12.7054L10.3252 9.64474C10.2635 9.38576 10.3518 9.11399 10.554 8.94078L12.9436 6.89381L9.80717 6.64236C9.54178 6.62108 9.3106 6.45312 9.20835 6.20729L8 3.30206Z" fill="white"/>
</svg>
