<svg width="16" height="16" viewBox="0 0 16 16" fill="none" xmlns="http://www.w3.org/2000/svg">
<path fill-rule="evenodd" clip-rule="evenodd" d="M8.65556 2.27425C8.41303 1.69113 7.58698 1.69114 7.34444 2.27425L5.93635 5.65971L2.28146 5.95272C1.65194 6.00319 1.39668 6.78881 1.87631 7.19967L4.66095 9.58501L3.81019 13.1516C3.66366 13.7659 4.33195 14.2514 4.87091 13.9222L8 12.011L11.1291 13.9222C11.6681 14.2514 12.3363 13.7659 12.1898 13.1516L11.3391 9.58501L14.1237 7.19967C14.6033 6.78881 14.3481 6.00319 13.7185 5.95272L10.0637 5.65971L8.65556 2.27425ZM8 10.9612C8.12824 10.9612 8.25649 10.9959 8.37009 11.0652L11.0553 12.7054L10.3252 9.64474C10.2635 9.38576 10.3518 9.11399 10.554 8.94078L12.9436 6.89381L9.80717 6.64236C9.54178 6.62108 9.3106 6.45312 9.20835 6.20729L8 3.30206L8 10.9612Z" fill="white"/>
</svg>
