<svg width="16" height="16" viewBox="0 0 16 16" fill="none" xmlns="http://www.w3.org/2000/svg">
<path d="M6.80183 1.84175C7.19646 0.775345 8.70492 0.775469 9.09968 1.84175L10.4112 5.38667C10.429 5.4343 10.4671 5.47151 10.5147 5.48921L14.0587 6.80073C15.125 7.19543 15.1251 8.70391 14.0587 9.09858L10.5147 10.4101C10.4668 10.4278 10.4289 10.4657 10.4112 10.5136L9.09968 14.0576C8.70504 15.124 7.19652 15.124 6.80183 14.0576L5.49031 10.5136C5.47261 10.466 5.43538 10.4279 5.38777 10.4101L1.84285 9.09858C0.776571 8.70382 0.776441 7.19536 1.84285 6.80073L5.38777 5.48921C5.43519 5.47146 5.47257 5.4341 5.49031 5.38667L6.80183 1.84175Z" fill="white"/>
</svg>
