<svg width="16" height="16" viewBox="0 0 16 16" fill="none" xmlns="http://www.w3.org/2000/svg">
<path fill-rule="evenodd" clip-rule="evenodd" d="M13.933 8.9C13.9771 8.60643 14 8.30589 14 8C14 7.82411 13.9924 7.64998 13.9776 7.47794C12.7342 7.37147 11.8465 6.89729 11.0327 6.46253L11.0144 6.45277C10.0928 5.9605 9.26466 5.52363 8 5.52363C6.78088 5.52363 6.10945 5.92783 5.32076 6.40261L5.25825 6.44023C4.45652 6.92235 3.55673 7.4381 2.02097 7.49481C2.00708 7.66137 2 7.82986 2 8C2 8.30589 2.02289 8.60643 2.06705 8.9H4.5C5.93594 8.9 7.1 10.0641 7.1 11.5V13.933C7.39357 13.9771 7.69411 14 8 14C8.30589 14 8.60643 13.9771 8.9 13.933V11.5C8.9 10.0641 10.0641 8.9 11.5 8.9H13.933ZM13.6929 9.9H11.5C10.6163 9.9 9.9 10.6163 9.9 11.5V13.6929C11.6854 13.0973 13.0973 11.6854 13.6929 9.9ZM6.1 13.6929C4.31462 13.0973 2.90265 11.6854 2.30706 9.9H4.5C5.38366 9.9 6.1 10.6163 6.1 11.5V13.6929ZM2.19308 6.48433C2.86458 3.90444 5.20989 2 8 2C10.7784 2 13.1157 3.88847 13.7984 6.45184C12.9049 6.32535 12.2253 5.96587 11.4855 5.57071L11.4674 5.56101C10.5438 5.06769 9.52534 4.52363 8 4.52363C6.50132 4.52363 5.62759 5.05016 4.8234 5.53477L4.7429 5.58325C4.03721 6.00762 3.34941 6.40214 2.19308 6.48433ZM8 15C11.866 15 15 11.866 15 8C15 4.13401 11.866 1 8 1C4.13401 1 1 4.13401 1 8C1 11.866 4.13401 15 8 15ZM9.4 8C9.4 8.7732 8.7732 9.4 8 9.4C7.2268 9.4 6.6 8.7732 6.6 8C6.6 7.2268 7.2268 6.6 8 6.6C8.7732 6.6 9.4 7.2268 9.4 8Z" fill="white"/>
</svg>
