<svg width="16" height="16" viewBox="0 0 16 16" fill="none" xmlns="http://www.w3.org/2000/svg">
<path fill-rule="evenodd" clip-rule="evenodd" d="M9.925 13.6317C11.6626 13.0379 13.0379 11.6626 13.6317 9.925H11.5C10.6302 9.925 9.925 10.6302 9.925 11.5V13.6317ZM6.075 11.5V13.6317C4.3374 13.0379 2.96207 11.6626 2.36829 9.925H4.5C5.36985 9.925 6.075 10.6302 6.075 11.5ZM13.7382 6.42101C12.6231 6.37675 11.9756 5.98338 11.2489 5.53895L11.2415 5.53442C10.4399 5.0442 9.54787 4.49863 8 4.49863C6.4854 4.49863 5.67782 5.02262 4.93958 5.50162L4.87089 5.54616C4.50136 5.78545 4.16028 5.998 3.73219 6.15687C3.35092 6.29835 2.88447 6.40261 2.26153 6.42192C2.95301 3.90173 5.26026 2.05 8 2.05C10.7394 2.05 13.0464 3.90128 13.7382 6.42101ZM15 8C15 11.866 11.866 15 8 15C4.13401 15 1 11.866 1 8C1 4.13401 4.13401 1 8 1C11.866 1 15 4.13401 15 8ZM8 9.4C8.7732 9.4 9.4 8.7732 9.4 8C9.4 7.2268 8.7732 6.6 8 6.6C7.2268 6.6 6.6 7.2268 6.6 8C6.6 8.7732 7.2268 9.4 8 9.4Z" fill="white"/>
</svg>
