<svg width="16" height="16" viewBox="0 0 16 16" fill="none" xmlns="http://www.w3.org/2000/svg">
<path fill-rule="evenodd" clip-rule="evenodd" d="M5.02893 1.75H10.9711C11.4432 1.74999 11.8278 1.74999 12.1401 1.7755C12.4628 1.80187 12.7521 1.85797 13.0215 1.99524C13.4448 2.21095 13.789 2.55516 14.0048 2.97852C14.142 3.24793 14.1981 3.53715 14.2245 3.85989C14.25 4.17215 14.25 4.55677 14.25 5.02891V10.9711C14.25 11.4432 14.25 11.8278 14.2245 12.1401C14.1981 12.4628 14.142 12.7521 14.0048 13.0215C13.789 13.4448 13.4448 13.789 13.0215 14.0048C12.7521 14.142 12.4628 14.1981 12.1401 14.2245C11.8278 14.25 11.4432 14.25 10.9711 14.25H5.02891C4.55677 14.25 4.17215 14.25 3.85989 14.2245C3.53715 14.1981 3.24793 14.142 2.97852 14.0048C2.55516 13.789 2.21095 13.4448 1.99524 13.0215C1.85797 12.7521 1.80187 12.4628 1.7755 12.1401C1.74999 11.8278 1.74999 11.4432 1.75 10.9711V5.02893C1.74999 4.55678 1.74999 4.17215 1.7755 3.85989C1.80187 3.53715 1.85797 3.24793 1.99524 2.97852C2.21095 2.55516 2.55516 2.21095 2.97852 1.99524C3.24793 1.85797 3.53715 1.80187 3.85989 1.7755C4.17215 1.74999 4.55678 1.74999 5.02893 1.75ZM3.94132 2.77218C3.68042 2.7935 3.53745 2.83277 3.43251 2.88624C3.19731 3.00608 3.00608 3.19731 2.88624 3.43251C2.83277 3.53745 2.7935 3.68042 2.77218 3.94132C2.75039 4.20805 2.75 4.5517 2.75 5.05V10.95C2.75 11.4483 2.75039 11.7919 2.77218 12.0587C2.7935 12.3196 2.83277 12.4625 2.88624 12.5675C3.00608 12.8027 3.19731 12.9939 3.43251 13.1138C3.53745 13.1672 3.68042 13.2065 3.94132 13.2278C4.20805 13.2496 4.5517 13.25 5.05 13.25H10.95C11.4483 13.25 11.7919 13.2496 12.0587 13.2278C12.3196 13.2065 12.4625 13.1672 12.5675 13.1138C12.8027 12.9939 12.9939 12.8027 13.1138 12.5675C13.1672 12.4625 13.2065 12.3196 13.2278 12.0587C13.2496 11.7919 13.25 11.4483 13.25 10.95V5.05C13.25 4.5517 13.2496 4.20805 13.2278 3.94132C13.2065 3.68042 13.1672 3.53745 13.1138 3.43251C12.9939 3.19731 12.8027 3.00608 12.5675 2.88624C12.4625 2.83277 12.3196 2.7935 12.0587 2.77218C11.7919 2.75039 11.4483 2.75 10.95 2.75H5.05C4.5517 2.75 4.20805 2.75039 3.94132 2.77218Z" fill="white"/>
</svg>
