<svg width="16" height="16" viewBox="0 0 16 16" fill="none" xmlns="http://www.w3.org/2000/svg">
<path fill-rule="evenodd" clip-rule="evenodd" d="M8.00063 3.1C8.58053 3.1 9.05063 2.6299 9.05063 2.05C9.05063 1.4701 8.58053 1 8.00063 1C7.42073 1 6.95063 1.4701 6.95063 2.05C6.95063 2.6299 7.42073 3.1 8.00063 3.1ZM8.00063 15C8.58053 15 9.05063 14.5299 9.05063 13.95C9.05063 13.3701 8.58053 12.9 8.00063 12.9C7.42073 12.9 6.95063 13.3701 6.95063 13.95C6.95063 14.5299 7.42073 15 8.00063 15ZM8.00063 5.525C6.63373 5.525 5.52563 6.63309 5.52563 8C5.52563 9.3669 6.63373 10.475 8.00063 10.475C9.36754 10.475 10.4756 9.3669 10.4756 8C10.4756 6.63309 9.36754 5.525 8.00063 5.525ZM4.52563 8C4.52563 6.08081 6.08144 4.525 8.00063 4.525C9.91982 4.525 11.4756 6.08081 11.4756 8C11.4756 9.91919 9.91982 11.475 8.00063 11.475C6.08144 11.475 4.52563 9.91919 4.52563 8ZM12.9509 4.535C12.5408 4.94505 11.876 4.94505 11.4659 4.535C11.0559 4.12495 11.0559 3.46013 11.4659 3.05008C11.876 2.64003 12.5408 2.64003 12.9509 3.05008C13.3609 3.46013 13.3609 4.12495 12.9509 4.535ZM4.53566 12.9492C4.12561 13.3593 3.46079 13.3593 3.05074 12.9492C2.64069 12.5392 2.64068 11.8743 3.05074 11.4643C3.46079 11.0542 4.12561 11.0542 4.53566 11.4643C4.94571 11.8743 4.94571 12.5392 4.53566 12.9492ZM4.53558 4.53543C4.94563 4.12538 4.94563 3.46055 4.53558 3.0505C4.12553 2.64045 3.46071 2.64045 3.05066 3.0505C2.64061 3.46055 2.64061 4.12538 3.05066 4.53543C3.46071 4.94548 4.12553 4.94548 4.53558 4.53543ZM12.9506 12.9498C13.3607 12.5397 13.3607 11.8749 12.9506 11.4649C12.5406 11.0548 11.8757 11.0548 11.4657 11.4649C11.0556 11.8749 11.0556 12.5397 11.4657 12.9498C11.8757 13.3598 12.5406 13.3598 12.9506 12.9498ZM2.05 6.95019C2.6299 6.95019 3.1 7.4203 3.1 8.00019C3.1 8.58009 2.6299 9.05019 2.05 9.05019C1.4701 9.05019 1 8.58009 1 8.00019C1 7.4203 1.4701 6.95019 2.05 6.95019ZM13.95 6.95019C14.5299 6.95019 15 7.4203 15 8.0002C15 8.58009 14.5299 9.05019 13.95 9.05019C13.3701 9.05019 12.9 8.58009 12.9 8.0002C12.9 7.4203 13.3701 6.95019 13.95 6.95019Z" fill="white"/>
</svg>
