<svg width="17" height="16" viewBox="0 0 17 16" fill="none" xmlns="http://www.w3.org/2000/svg">
<path d="M11.9839 5.82916V6.65542H15.0807V5.82916H14.1489V1.25H13.5253L11.9839 2.35425V3.27317L13.259 2.35425V5.82916H11.9839Z" fill="white"/>
<path fill-rule="evenodd" clip-rule="evenodd" d="M7.45487 12.2031L4.96645 4.96601H3.73951L1.28564 12.2031H2.38297L2.95324 10.4869H5.7268L6.3057 12.2031H7.45487ZM4.3357 6.33072L5.32934 9.29795H3.34205L4.3357 6.33072Z" fill="white"/>
<path fill-rule="evenodd" clip-rule="evenodd" d="M7.99058 7.35977V8.86923C8.28435 8.32127 8.74229 7.94908 9.5372 7.94908C10.1161 7.94908 10.4099 8.17653 10.4099 8.91058V9.13803H9.43352C8.37075 9.13803 7.6536 9.46887 7.6536 10.6475C7.6536 11.6607 8.17203 12.25 9.0447 12.25C9.73593 12.25 10.263 11.8364 10.4704 11.2368V12.1673H11.4208V8.7555C11.4208 7.41146 10.7987 6.89452 9.5372 6.89452C8.79413 6.89452 8.27571 7.1013 7.99058 7.35977ZM10.4099 10.3477C10.3667 10.6992 10.047 11.1644 9.3644 11.1644C8.9151 11.1644 8.67317 10.9163 8.67317 10.5234C8.67317 10.0582 8.9583 9.92378 9.55449 9.92378H10.4099V10.3477Z" fill="white"/>
</svg>
