<svg width="16" height="16" viewBox="0 0 16 16" fill="none" xmlns="http://www.w3.org/2000/svg">
<path fill-rule="evenodd" clip-rule="evenodd" d="M1.88907 5.15436C1.69616 5.35195 1.69994 5.66851 1.89752 5.86142C2.0951 6.05434 2.41166 6.05056 2.60458 5.85297L4.187 4.23228V13.0012C4.187 13.2774 4.41086 13.5012 4.687 13.5012C4.96315 13.5012 5.187 13.2774 5.187 13.0012V4.23229L6.76941 5.85297C6.96233 6.05055 7.27889 6.05434 7.47647 5.86142C7.67405 5.66851 7.67783 5.35195 7.48492 5.15437L5.04476 2.65518C4.95067 2.55882 4.82168 2.50449 4.687 2.50449C4.55232 2.50449 4.42334 2.55882 4.32925 2.65518L1.88907 5.15436ZM8.5131 10.85C8.32018 10.6524 8.32396 10.3359 8.52154 10.143C8.71913 9.95006 9.03569 9.95384 9.2286 10.1514L10.811 11.7721V3.00317C10.811 2.72703 11.0349 2.50317 11.311 2.50317C11.5872 2.50317 11.811 2.72703 11.811 3.00317V11.7721L13.3934 10.1514C13.5863 9.95384 13.9029 9.95006 14.1005 10.143C14.2981 10.3359 14.3019 10.6524 14.1089 10.85L11.6688 13.3492C11.5747 13.4456 11.4457 13.4999 11.311 13.4999C11.1763 13.4999 11.0474 13.4456 10.9533 13.3492L8.5131 10.85Z" fill="white"/>
</svg>
