<svg width="16" height="16" viewBox="0 0 16 16" fill="none" xmlns="http://www.w3.org/2000/svg">
<path fill-rule="evenodd" clip-rule="evenodd" d="M15 8C15 4.13401 11.866 1 8 1C4.13401 1 1 4.13401 1 8C1 11.866 4.13401 15 8 15C11.866 15 15 11.866 15 8ZM4.47877 9.90377C4.68379 9.69875 5.01621 9.69875 5.22123 9.90377L5.725 10.4075V4.32501C5.725 4.03506 5.96005 3.80001 6.25 3.80001C6.53995 3.80001 6.775 4.03506 6.775 4.32501V11.675C6.775 11.8873 6.64709 12.0788 6.45091 12.16C6.25473 12.2413 6.02892 12.1964 5.87877 12.0462L4.47877 10.6462C4.27374 10.4412 4.27374 10.1088 4.47877 9.90377ZM11.5212 6.09624C11.3162 6.30126 10.9838 6.30126 10.7788 6.09624L10.275 5.59247V11.675C10.275 11.965 10.0399 12.2 9.75 12.2C9.46005 12.2 9.225 11.965 9.225 11.675V4.32501C9.225 4.11266 9.35291 3.92123 9.54909 3.83997C9.74527 3.75871 9.97108 3.80363 10.1212 3.95378L11.5212 5.35378C11.7263 5.5588 11.7263 5.89121 11.5212 6.09624Z" fill="white"/>
</svg>
