<svg width="16" height="16" viewBox="0 0 16 16" fill="none" xmlns="http://www.w3.org/2000/svg">
<path fill-rule="evenodd" clip-rule="evenodd" d="M4.25 1C2.45507 1 1 2.45507 1 4.25C1 6.04493 2.45507 7.5 4.25 7.5H11.75C13.5449 7.5 15 6.04493 15 4.25C15 2.45507 13.5449 1 11.75 1H4.25ZM2 4.25C2 3.00736 3.00736 2 4.25 2H11.75C12.9926 2 14 3.00736 14 4.25C14 5.49264 12.9926 6.5 11.75 6.5H4.25C3.00736 6.5 2 5.49264 2 4.25ZM11.75 5.5C12.4404 5.5 13 4.94036 13 4.25C13 3.55964 12.4404 3 11.75 3C11.0596 3 10.5 3.55964 10.5 4.25C10.5 4.94036 11.0596 5.5 11.75 5.5Z" fill="white"/>
<path fill-rule="evenodd" clip-rule="evenodd" d="M11.75 15C13.5449 15 15 13.5449 15 11.75C15 9.95507 13.5449 8.5 11.75 8.5H4.25C2.45507 8.5 1 9.95507 1 11.75C1 13.5449 2.45507 15 4.25 15H11.75ZM14 11.75C14 12.9926 12.9926 14 11.75 14H4.25C3.00736 14 2 12.9926 2 11.75C2 10.5074 3.00736 9.5 4.25 9.5H11.75C12.9926 9.5 14 10.5074 14 11.75ZM4.25 10.5C3.55964 10.5 3 11.0596 3 11.75C3 12.4404 3.55964 13 4.25 13C4.94036 13 5.5 12.4404 5.5 11.75C5.5 11.0596 4.94036 10.5 4.25 10.5Z" fill="white"/>
</svg>
