<svg width="16" height="16" viewBox="0 0 16 16" fill="none" xmlns="http://www.w3.org/2000/svg">
<g clip-path="url(#clip0_40914_329)">
<path fill-rule="evenodd" clip-rule="evenodd" d="M2.09022 6.95782C2.66564 3.69445 5.77759 1.51544 9.04096 2.09086C11.2161 2.4744 12.9104 3.98509 13.6274 5.91764L12.4367 5.7077C12.1648 5.65974 11.9054 5.84133 11.8575 6.11328C11.8095 6.38522 11.9911 6.64455 12.2631 6.6925L14.2394 7.04099C14.2468 7.04247 14.2543 7.04378 14.2617 7.04492L14.7524 7.13145C15.0244 7.1794 15.2837 6.99781 15.3317 6.72587L15.7706 4.23649C15.8186 3.96455 15.637 3.70522 15.365 3.65726C15.0931 3.60931 14.8338 3.7909 14.7858 4.06284L14.5343 5.48903C13.6813 3.27491 11.723 1.54834 9.21461 1.10605C5.40735 0.434729 1.77674 2.97691 1.10542 6.78417C1.05746 7.05612 1.23905 7.31544 1.511 7.3634C1.78294 7.41135 2.04227 7.22976 2.09022 6.95782ZM8.6224 14.9736C8.36424 14.6806 8.1436 14.3538 7.96802 14.0006C7.6345 13.9985 7.29666 13.9684 6.95718 13.9086C4.78202 13.525 3.08775 12.0143 2.37075 10.0818L3.56143 10.2917C3.83337 10.3397 4.0927 10.1581 4.14066 9.88613C4.18861 9.61419 4.00702 9.35486 3.73508 9.30691L1.75872 8.95842C1.75133 8.95694 1.74389 8.95563 1.73641 8.95449L1.2457 8.86796C0.973754 8.82001 0.714424 9.00159 0.666473 9.27354L0.227528 11.7629C0.179577 12.0349 0.361161 12.2942 0.633108 12.3421C0.905055 12.3901 1.16438 12.2085 1.21234 11.9366L1.46381 10.5104C2.3168 12.7245 4.27518 14.4511 6.78353 14.8934C7.40524 15.003 8.02223 15.0269 8.6224 14.9736Z" fill="white"/>
<path fill-rule="evenodd" clip-rule="evenodd" d="M15.75 12C15.75 14.0711 14.071 15.75 12 15.75C9.9289 15.75 8.24997 14.0711 8.24997 12C8.24997 9.92895 9.9289 8.25002 12 8.25002C14.071 8.25002 15.75 9.92895 15.75 12ZM12 9.4342C12.1933 9.4342 12.35 9.5909 12.35 9.78419V11.8296C12.35 12.0229 12.1933 12.1796 12 12.1796C11.8067 12.1796 11.65 12.0229 11.65 11.8296V9.78419C11.65 9.5909 11.8067 9.4342 12 9.4342ZM11.9683 14.3223C12.3273 14.3223 12.6183 14.0313 12.6183 13.6723C12.6183 13.3133 12.3273 13.0223 11.9683 13.0223C11.6093 13.0223 11.3183 13.3133 11.3183 13.6723C11.3183 14.0313 11.6093 14.3223 11.9683 14.3223Z" fill="white"/>
</g>
<defs>
<clipPath id="clip0_40914_329">
<rect width="16" height="16" fill="white"/>
</clipPath>
</defs>
</svg>
