<svg width="16" height="16" viewBox="0 0 16 16" fill="none" xmlns="http://www.w3.org/2000/svg">
<path fill-rule="evenodd" clip-rule="evenodd" d="M12.3643 1.76074C12.4337 1.76778 12.5021 1.77836 12.5693 1.79199C12.5772 1.79359 12.5849 1.79616 12.5928 1.79785C12.6514 1.81043 12.709 1.82541 12.7656 1.84277C12.7824 1.84791 12.7988 1.85383 12.8154 1.85938C12.8613 1.87472 12.9067 1.89082 12.9512 1.90918C12.9756 1.91928 12.9995 1.93042 13.0234 1.94141C13.0577 1.9571 13.0918 1.97278 13.125 1.99023C13.1557 2.00634 13.1851 2.02444 13.2148 2.04199C13.2412 2.05755 13.2674 2.07319 13.293 2.08984C13.3175 2.10583 13.3414 2.12268 13.3652 2.13965C13.3969 2.16222 13.4286 2.18472 13.459 2.20898C13.4799 2.22572 13.5002 2.24323 13.5205 2.26074C13.5373 2.27523 13.555 2.2887 13.5713 2.30371C13.5864 2.31758 13.5996 2.33336 13.6143 2.34766C13.6304 2.36342 13.6465 2.37924 13.6621 2.39551C13.6875 2.42193 13.7123 2.44884 13.7363 2.47656C13.7562 2.49943 13.7761 2.52218 13.7949 2.5459C13.8203 2.57782 13.8437 2.61114 13.8672 2.64453C13.8793 2.66174 13.8917 2.6787 13.9033 2.69629C13.9261 2.73091 13.947 2.76672 13.9678 2.80273C13.9814 2.82633 13.9951 2.84986 14.0078 2.87402C14.0268 2.91007 14.0436 2.94712 14.0605 2.98438C14.0701 3.00531 14.081 3.02558 14.0898 3.04688C14.1111 3.0982 14.1293 3.15082 14.1465 3.2041C14.15 3.21496 14.1549 3.22539 14.1582 3.23633C14.1716 3.28021 14.1818 3.32507 14.1924 3.37012C14.1979 3.39352 14.2043 3.41673 14.209 3.44043C14.2143 3.46751 14.2174 3.49502 14.2217 3.52246C14.228 3.5629 14.2353 3.60336 14.2393 3.64453C14.2458 3.71203 14.25 3.78039 14.25 3.84961V12.1504L14.2393 12.3643C14.2264 12.4911 14.2014 12.6143 14.167 12.7334C14.1387 12.8312 14.1021 12.9252 14.0605 13.0166C14.0522 13.0351 14.045 13.0541 14.0361 13.0723C14.021 13.1032 14.0039 13.133 13.9873 13.1631C13.9748 13.1857 13.9625 13.2084 13.9492 13.2305C13.9289 13.2642 13.9069 13.2966 13.8848 13.3291C13.8729 13.3465 13.861 13.3638 13.8486 13.3809C13.8393 13.3937 13.8309 13.4073 13.8213 13.4199C13.8075 13.438 13.7926 13.4551 13.7783 13.4727C13.7627 13.4919 13.7467 13.5107 13.7305 13.5293C13.7107 13.5519 13.6906 13.574 13.6699 13.5957C13.6655 13.6004 13.6607 13.6047 13.6562 13.6094C13.6402 13.6259 13.624 13.6422 13.6074 13.6582C13.5804 13.6843 13.5528 13.7097 13.5244 13.7344C13.5099 13.747 13.4953 13.7593 13.4805 13.7715C13.4596 13.7887 13.4395 13.8069 13.418 13.8232C13.4129 13.8271 13.4074 13.8302 13.4023 13.834C13.3971 13.8379 13.3911 13.8408 13.3857 13.8447C13.3665 13.8588 13.3469 13.8723 13.3271 13.8857C13.3062 13.9 13.2861 13.9152 13.2646 13.9287C13.2566 13.9338 13.2483 13.9384 13.2402 13.9434C13.2147 13.9589 13.1883 13.9728 13.1621 13.9873C13.1421 13.9984 13.123 14.0111 13.1025 14.0215C13.0955 14.0251 13.0881 14.0278 13.0811 14.0312C13.0779 14.0328 13.0744 14.0336 13.0713 14.0352C13.0507 14.0452 13.0297 14.0541 13.0088 14.0635C12.9814 14.0758 12.9547 14.0894 12.9268 14.1006C12.9181 14.1041 12.9092 14.107 12.9004 14.1104C12.8708 14.1217 12.8407 14.1316 12.8105 14.1416C12.7849 14.1501 12.7595 14.1595 12.7334 14.167C12.6143 14.2014 12.4911 14.2264 12.3643 14.2393H12.3516C12.3321 14.2411 12.3125 14.2409 12.293 14.2422L12.1504 14.25H3.84961C3.78175 14.25 3.71465 14.2465 3.64844 14.2402L3.64453 14.2393H3.63574C3.58496 14.2341 3.535 14.2255 3.48535 14.2168C3.47331 14.2147 3.46119 14.2133 3.44922 14.2109C3.41918 14.2051 3.38992 14.1965 3.36035 14.1895C3.20098 14.1513 3.04822 14.0975 2.90527 14.0254C2.8762 14.0107 2.84859 13.9935 2.82031 13.9775C2.79338 13.9623 2.76544 13.949 2.73926 13.9326C2.63178 13.8655 2.5308 13.7889 2.4375 13.7041L2.43457 13.7012C2.41791 13.686 2.40288 13.6691 2.38672 13.6533C2.35883 13.6262 2.33006 13.5999 2.30371 13.5713C2.26087 13.5247 2.22018 13.4761 2.18164 13.4258C2.14341 13.3759 2.10793 13.3238 2.07422 13.2705C1.91992 13.0265 1.81622 12.7484 1.77344 12.4502C1.76934 12.4216 1.76367 12.3932 1.76074 12.3643L1.75 12.1504V3.84961C1.75008 3.41486 1.88206 3.01083 2.1084 2.67578C2.14622 2.61979 2.18659 2.56564 2.22949 2.51367C2.27222 2.46192 2.31782 2.41265 2.36523 2.36523C2.50762 2.22285 2.67029 2.10085 2.84863 2.00391C3.08666 1.87452 3.35238 1.78949 3.63477 1.76074C3.70537 1.75356 3.77711 1.75001 3.84961 1.75H12.1504L12.3643 1.76074ZM2.75 12.1504C2.75006 12.3275 2.79278 12.4944 2.86719 12.6426C2.93624 12.78 3.03291 12.901 3.15039 12.998C3.17744 13.0204 3.20525 13.0418 3.23438 13.0615C3.26373 13.0814 3.29391 13.1002 3.3252 13.1172C3.48104 13.2019 3.65975 13.2499 3.84961 13.25H5.61133V10.3887H2.75V12.1504ZM6.61133 13.25H9.38867V10.3887H6.61133V13.25ZM10.3887 13.25H12.1494C12.2772 13.25 12.3995 13.2266 12.5137 13.1865C12.5529 13.1728 12.5909 13.1566 12.6279 13.1387C12.6629 13.1217 12.6967 13.1034 12.7295 13.083C12.7414 13.0756 12.754 13.0694 12.7656 13.0615C12.7948 13.0418 12.8226 13.0204 12.8496 12.998C12.8878 12.9664 12.9234 12.9319 12.957 12.8955C12.971 12.8804 12.985 12.8654 12.998 12.8496C13.0306 12.8102 13.06 12.7683 13.0869 12.7246C13.1032 12.6981 13.1178 12.6705 13.1318 12.6426C13.1904 12.526 13.2303 12.3984 13.2441 12.2627C13.2479 12.2258 13.25 12.1883 13.25 12.1504V10.3887H10.3887V13.25ZM2.75 6.61133V9.38867H5.61133V6.61133H2.75ZM6.61133 6.61133V9.38867H9.38867V6.61133H6.61133ZM10.3887 6.61133V9.38867H13.25V6.61133H10.3887ZM10.3887 5.61133H13.25V3.84961C13.25 3.81172 13.2479 3.7742 13.2441 3.7373C13.2291 3.58933 13.185 3.44992 13.1172 3.3252C13.1002 3.29391 13.0814 3.26373 13.0615 3.23438C13.0418 3.20525 13.0204 3.17744 12.998 3.15039C12.8976 3.0288 12.7714 2.92979 12.6279 2.86035C12.6114 2.85237 12.5951 2.84408 12.5781 2.83691C12.5479 2.82411 12.5169 2.81283 12.4854 2.80273C12.3794 2.7688 12.2666 2.75 12.1494 2.75H10.3887V5.61133ZM6.61133 5.61133H9.38867V2.75H6.61133V5.61133ZM3.84961 2.75C3.46989 2.75013 3.13507 2.94261 2.9375 3.23535C2.91792 3.26436 2.89961 3.29431 2.88281 3.3252C2.81499 3.44992 2.77092 3.58933 2.75586 3.7373C2.75211 3.7742 2.75001 3.81172 2.75 3.84961V5.61133H5.61133V2.75H3.84961Z" fill="white"/>
</svg>
