<svg width="16" height="16" viewBox="0 0 16 16" fill="none" xmlns="http://www.w3.org/2000/svg">
<path d="M13.5996 8.5C14.3728 8.5 15 9.12719 15 9.90039V11.0996C15 11.8728 14.3728 12.5 13.5996 12.5H2.40039C1.62719 12.5 1 11.8728 1 11.0996V9.90039C1 9.12719 1.62719 8.5 2.40039 8.5H13.5996Z" fill="white"/>
<path d="M13.5996 3.5C14.3728 3.5 15 4.12719 15 4.90039V6.09961C15 6.87281 14.3728 7.5 13.5996 7.5H2.40039C1.62719 7.5 1 6.87281 1 6.09961V4.90039C1 4.12719 1.62719 3.5 2.40039 3.5H13.5996Z" fill="white"/>
</svg>
