<svg width="16" height="16" viewBox="0 0 16 16" fill="none" xmlns="http://www.w3.org/2000/svg">
<path fill-rule="evenodd" clip-rule="evenodd" d="M7.5 13.5996L7.49316 13.7432C7.42148 14.4491 6.82449 15 6.09961 15H4.90039C4.17551 15 3.57852 14.4491 3.50684 13.7432L3.5 13.5996V2.40039C3.5 1.62719 4.12719 1 4.90039 1H6.09961C6.87281 1 7.5 1.62719 7.5 2.40039V13.5996ZM6.5 2.40039C6.5 2.17948 6.32052 2 6.09961 2H4.90039C4.67948 2 4.5 2.17948 4.5 2.40039V13.5996C4.5 13.8205 4.67948 14 4.90039 14H6.09961C6.32052 14 6.5 13.8205 6.5 13.5996V2.40039Z" fill="white"/>
<path fill-rule="evenodd" clip-rule="evenodd" d="M12.5 13.5996L12.4932 13.7432C12.4215 14.4491 11.8245 15 11.0996 15H9.90039C9.17551 15 8.57852 14.4491 8.50684 13.7432L8.5 13.5996V2.40039C8.5 1.62719 9.12719 1 9.90039 1H11.0996C11.8728 1 12.5 1.62719 12.5 2.40039V13.5996ZM11.5 2.40039C11.5 2.17948 11.3205 2 11.0996 2H9.90039C9.67948 2 9.5 2.17948 9.5 2.40039V13.5996C9.5 13.8205 9.67948 14 9.90039 14H11.0996C11.3205 14 11.5 13.8205 11.5 13.5996V2.40039Z" fill="white"/>
</svg>
