<svg width="16" height="16" viewBox="0 0 16 16" fill="none" xmlns="http://www.w3.org/2000/svg">
<path fill-rule="evenodd" clip-rule="evenodd" d="M6.73996 1C6.25098 1 5.81091 1.29669 5.62754 1.74998L2.53649 9.39088C2.47414 9.545 2.49248 9.72004 2.58542 9.85789C2.67836 9.99574 2.83374 10.0784 3 10.0784H7.50003V13.9967H4.72559C4.44944 13.9967 4.22559 14.2206 4.22559 14.4967C4.22559 14.7729 4.44944 14.9967 4.72559 14.9967H11.2745C11.5506 14.9967 11.7745 14.7729 11.7745 14.4967C11.7745 14.2206 11.5506 13.9967 11.2745 13.9967H8.50003V10.0784H13.0012C13.1675 10.0784 13.3229 9.99569 13.4159 9.85776C13.5088 9.71984 13.5271 9.54473 13.4646 9.39059L10.368 1.7493C10.1844 1.29637 9.74452 1 9.25581 1H6.73996ZM6.55455 2.125C6.58512 2.04945 6.65846 2 6.73996 2H9.25581C9.33726 2 9.41058 2.0494 9.44117 2.12488L12.2591 9.07839H3.74164L6.55455 2.125Z" fill="white"/>
</svg>
