<svg width="16" height="16" viewBox="0 0 16 16" fill="none" xmlns="http://www.w3.org/2000/svg">
<path fill-rule="evenodd" clip-rule="evenodd" d="M14.2483 8.1V5.56L14.2383 3.85C14.2383 2.69 13.2983 1.75 12.1383 1.75H3.83828C2.67828 1.75 1.73828 2.69 1.73828 3.85L1.74828 6.61V12.15C1.74828 13.31 2.68828 14.25 3.84828 14.25H6.60828H8.09828C7.91828 13.93 7.76828 13.6 7.66828 13.25H6.60828V10.43H7.77828C7.91828 10.05 8.09828 9.7 8.32828 9.38H6.60828V6.61H9.38828V8.33C9.69828 8.1 10.0483 7.92 10.4283 7.78V6.61H13.2483V7.67C13.5983 7.77 13.9283 7.92 14.2483 8.1ZM3.84828 13.25H5.56828V5.56H13.2383V3.85C13.2383 3.76 13.2283 3.67 13.2083 3.59C13.1983 3.53 13.1783 3.47 13.1583 3.42C13.1283 3.36 13.0983 3.31 13.0683 3.25C13.0283 3.19 12.9783 3.13 12.9183 3.07C12.8583 3.01 12.7983 2.96 12.7383 2.92C12.6783 2.89 12.6283 2.86 12.5683 2.83C12.5183 2.81 12.4583 2.79 12.4083 2.78C12.3183 2.76 12.2283 2.75 12.1383 2.75H3.83828C3.74828 2.75 3.65828 2.76 3.57828 2.78C3.51828 2.79 3.46828 2.81 3.40828 2.83C3.35828 2.86 3.29828 2.89 3.24828 2.92C3.17828 2.96 3.11828 3.01 3.06828 3.07C3.00828 3.13 2.95828 3.19 2.91828 3.25C2.87828 3.31 2.84828 3.36 2.82828 3.42C2.79828 3.48 2.77828 3.54 2.76828 3.6C2.74828 3.68 2.73828 3.76 2.73828 3.85L2.74828 6.61V12.15C2.74828 12.24 2.75828 12.32 2.77828 12.41C2.78828 12.46 2.80828 12.52 2.82828 12.57C2.85828 12.63 2.88828 12.69 2.91828 12.74C2.95828 12.81 3.00828 12.87 3.06828 12.92C3.12828 12.98 3.18828 13.03 3.24828 13.07C3.30828 13.11 3.35828 13.14 3.41828 13.16C3.46828 13.18 3.52828 13.2 3.57828 13.21C3.66828 13.24 3.75828 13.25 3.84828 13.25ZM15.7483 12C15.7483 9.92 14.0683 8.25 11.9983 8.25C9.91828 8.25 8.24828 9.92 8.24828 12C8.24828 14.07 9.91828 15.75 11.9983 15.75C14.0683 15.75 15.7483 14.07 15.7483 12ZM12.4783 9.31C12.7583 9.13 13.1183 9.16 13.3583 9.4L14.4683 10.5C14.7383 10.78 14.7383 11.22 14.4683 11.5L13.4183 12.54C13.5683 13.16 13.5083 13.71 13.0883 14.22L12.9983 14.31C12.8083 14.46 12.5483 14.45 12.3683 14.33L12.2783 14.26L11.1883 13.17L10.1983 14.16C10.0583 14.29 9.83828 14.29 9.69828 14.16C9.56828 14.02 9.56828 13.8 9.69828 13.66L10.6883 12.67L9.60828 11.59C9.39828 11.38 9.36828 11 9.63828 10.78L9.83828 10.64C10.0383 10.51 10.2483 10.43 10.4783 10.39C10.7483 10.35 11.0383 10.37 11.3283 10.44C11.6583 10.11 12.0983 9.67 12.3683 9.4L12.4783 9.31ZM13.9683 11L12.8783 12.1L12.8183 12.15C12.7183 12.3 12.6883 12.48 12.7283 12.64L12.7683 12.82C12.8283 13.15 12.7883 13.4 12.6483 13.64C11.7483 12.73 10.9783 11.96 10.2283 11.22C10.3483 11.14 10.4683 11.1 10.5883 11.08C10.7583 11.05 10.9683 11.07 11.2183 11.14L11.2983 11.15C11.4583 11.17 11.6383 11.12 11.7683 10.99L12.8683 9.89L13.9683 11Z" fill="white"/>
</svg>
