<svg width="16" height="16" viewBox="0 0 16 16" fill="none" xmlns="http://www.w3.org/2000/svg">
<path d="M13.9756 11.0039L12.8799 12.1016L12.8281 12.1592C12.7214 12.3012 12.6918 12.4825 12.7344 12.6455L12.7744 12.8223C12.834 13.1501 12.7953 13.4051 12.6533 13.6406C11.7502 12.7321 10.9851 11.9673 10.2344 11.2217C10.3531 11.1495 10.4717 11.1077 10.5938 11.0879C10.7694 11.0596 10.975 11.0735 11.2285 11.1406L11.2998 11.1543C11.4689 11.1764 11.6485 11.1243 11.7783 10.9932L12.8711 9.89941L13.9756 11.0039Z" fill="white"/>
<path fill-rule="evenodd" clip-rule="evenodd" d="M12 8.25C14.0711 8.25 15.75 9.92893 15.75 12C15.75 14.0711 14.0711 15.75 12 15.75C9.92893 15.75 8.25 14.0711 8.25 12C8.25 9.92893 9.92893 8.25 12 8.25ZM13.3652 9.40527C13.1273 9.16752 12.76 9.13553 12.4883 9.31348L12.3779 9.40332C12.1068 9.67302 11.6647 10.1128 11.333 10.4473C11.0418 10.3774 10.7584 10.3517 10.4814 10.3965C10.2534 10.4335 10.0409 10.5147 9.8418 10.6406L9.64648 10.7822C9.37614 11.0025 9.40261 11.3814 9.61426 11.5918L10.6992 12.6768L9.70898 13.668C9.5723 13.8047 9.5723 14.0264 9.70898 14.1631C9.84564 14.2992 10.0666 14.2994 10.2031 14.1631L11.1934 13.1719L12.2842 14.2627L12.3701 14.332C12.5555 14.4544 12.8137 14.4662 13.0049 14.3174L13.0947 14.2295C13.5105 13.7173 13.5758 13.1602 13.4287 12.541L14.4697 11.5C14.7438 11.2264 14.7426 10.7831 14.4697 10.5098L13.3652 9.40527Z" fill="white"/>
<path d="M12.3643 1.76074C12.4337 1.76778 12.5021 1.77836 12.5693 1.79199L12.749 1.83691L12.7744 1.84473C12.782 1.84708 12.7893 1.8501 12.7969 1.85254C12.8031 1.85457 12.8092 1.85729 12.8154 1.85938C12.8545 1.87244 12.8936 1.88513 12.9316 1.90039C12.9379 1.90289 12.944 1.90564 12.9502 1.9082C12.956 1.9106 12.962 1.91259 12.9678 1.91504C12.9867 1.92305 13.0048 1.93286 13.0234 1.94141C13.0577 1.9571 13.0918 1.97278 13.125 1.99023C13.1557 2.00634 13.1851 2.02444 13.2148 2.04199C13.2398 2.05672 13.2648 2.0712 13.2891 2.08691C13.3211 2.10766 13.352 2.12993 13.3828 2.15234C13.4084 2.17098 13.4343 2.18923 13.459 2.20898C13.4799 2.22572 13.5002 2.24323 13.5205 2.26074C13.5373 2.27523 13.555 2.2887 13.5713 2.30371C13.5848 2.31618 13.5971 2.32996 13.6104 2.34277C13.6183 2.35047 13.6269 2.35742 13.6348 2.36523C13.6444 2.37484 13.6527 2.38571 13.6621 2.39551C13.6875 2.42193 13.7123 2.44884 13.7363 2.47656C13.7562 2.49943 13.7761 2.52218 13.7949 2.5459C13.8048 2.5584 13.8156 2.57028 13.8252 2.58301C13.839 2.60128 13.851 2.62091 13.8643 2.63965C13.8794 2.66103 13.8948 2.68214 13.9092 2.7041C13.9169 2.71589 13.9252 2.72731 13.9326 2.73926C13.9449 2.7589 13.9552 2.77973 13.9668 2.7998C13.974 2.81231 13.9823 2.82425 13.9893 2.83691C13.9959 2.84901 14.0014 2.86178 14.0078 2.87402C14.0256 2.90789 14.0416 2.94262 14.0576 2.97754C14.069 3.00228 14.0814 3.02651 14.0918 3.05176C14.1098 3.09556 14.1255 3.14032 14.1406 3.18555C14.1451 3.19901 14.151 3.212 14.1553 3.22559C14.1564 3.22913 14.1571 3.23278 14.1582 3.23633C14.1716 3.28021 14.1818 3.32507 14.1924 3.37012C14.1979 3.39352 14.2043 3.41673 14.209 3.44043C14.2143 3.46751 14.2174 3.49502 14.2217 3.52246C14.228 3.5629 14.2353 3.60336 14.2393 3.64453C14.2458 3.71203 14.25 3.78039 14.25 3.84961V8.10352C13.9382 7.92311 13.6033 7.77872 13.25 7.67676V6.61133H10.3887V7.79785C10.031 7.93508 9.69565 8.11676 9.38867 8.33594V6.61133H6.61133V9.38867H8.33594C8.11683 9.69556 7.93604 10.0311 7.79883 10.3887H6.61133V13.25H7.67676C7.77872 13.6033 7.92311 13.9382 8.10352 14.25H3.84961C3.78138 14.25 3.71402 14.2456 3.64746 14.2393H3.63574L3.45312 14.2129C3.4498 14.2123 3.44668 14.2106 3.44336 14.21C3.43847 14.209 3.43359 14.208 3.42871 14.207C3.42477 14.2062 3.42093 14.2049 3.41699 14.2041C3.40747 14.2021 3.39814 14.1994 3.38867 14.1973C3.34726 14.188 3.30607 14.1787 3.26562 14.167C3.25582 14.1642 3.24607 14.1612 3.23633 14.1582C3.22381 14.1544 3.21164 14.1496 3.19922 14.1455C3.16464 14.1342 3.13044 14.1224 3.09668 14.1094C3.08888 14.1064 3.08099 14.1037 3.07324 14.1006C3.06442 14.0971 3.05564 14.0935 3.04688 14.0898C3.02935 14.0826 3.0124 14.0741 2.99512 14.0664C2.96952 14.055 2.94399 14.0437 2.91895 14.0312C2.90118 14.0224 2.88369 14.0132 2.86621 14.0039C2.85036 13.9955 2.83495 13.9864 2.81934 13.9775C2.80078 13.9671 2.78187 13.9573 2.76367 13.9463C2.74449 13.9347 2.7258 13.9224 2.70703 13.9102C2.68854 13.8981 2.67043 13.8856 2.65234 13.873C2.6395 13.8641 2.62689 13.8549 2.61426 13.8457C2.58962 13.8277 2.56483 13.81 2.54102 13.791C2.52818 13.7808 2.51552 13.7703 2.50293 13.7598C2.49337 13.7518 2.48402 13.7435 2.47461 13.7354C2.46136 13.7238 2.44753 13.713 2.43457 13.7012C2.42063 13.6884 2.40812 13.6742 2.39453 13.6611C2.37413 13.6415 2.35358 13.622 2.33398 13.6016C2.30878 13.5753 2.28456 13.5481 2.26074 13.5205C2.25412 13.5128 2.24675 13.5058 2.24023 13.498C2.22756 13.4829 2.21635 13.4666 2.2041 13.4512C2.1965 13.4416 2.1881 13.4326 2.18066 13.4229C2.17217 13.4117 2.16453 13.4 2.15625 13.3887C2.1469 13.3759 2.137 13.3636 2.12793 13.3506C2.1149 13.3319 2.10227 13.313 2.08984 13.2939C2.07684 13.274 2.0641 13.2538 2.05176 13.2334C2.04068 13.215 2.03006 13.1964 2.01953 13.1777C2.0106 13.1619 2.00169 13.146 1.99316 13.1299C1.98826 13.1206 1.98231 13.1119 1.97754 13.1025C1.97344 13.0945 1.96982 13.0862 1.96582 13.0781C1.95584 13.0579 1.94684 13.0372 1.9375 13.0166C1.92709 12.9937 1.91683 12.9706 1.90723 12.9473C1.90429 12.9401 1.9013 12.933 1.89844 12.9258C1.88544 12.8931 1.87466 12.8596 1.86328 12.8262C1.85609 12.805 1.84832 12.7841 1.8418 12.7627C1.83988 12.7564 1.83682 12.7505 1.83496 12.7441C1.82026 12.6942 1.80886 12.6432 1.79785 12.5918C1.79617 12.5839 1.79359 12.5763 1.79199 12.5684C1.79132 12.565 1.78972 12.5619 1.78906 12.5586C1.77649 12.4948 1.7674 12.4299 1.76074 12.3643L1.75 12.1504V3.84961C1.75011 3.26987 1.98529 2.74517 2.36523 2.36523C2.41265 2.31782 2.46192 2.27222 2.51367 2.22949C2.61733 2.14391 2.72968 2.06857 2.84863 2.00391C3.08666 1.87452 3.35238 1.78949 3.63477 1.76074C3.70537 1.75356 3.77711 1.75001 3.84961 1.75H12.1504L12.3643 1.76074Z" fill="white"/>
</svg>
