<svg width="16" height="16" viewBox="0 0 16 16" fill="none" xmlns="http://www.w3.org/2000/svg">
<path d="M13.9756 11.0039L12.8799 12.1016L12.8281 12.1592C12.7214 12.3012 12.6918 12.4825 12.7344 12.6455L12.7744 12.8223C12.834 13.1501 12.7953 13.4051 12.6533 13.6406C11.7502 12.7321 10.9851 11.9673 10.2344 11.2217C10.3531 11.1495 10.4717 11.1077 10.5938 11.0879C10.7694 11.0596 10.975 11.0735 11.2285 11.1406L11.2998 11.1543C11.4689 11.1764 11.6485 11.1243 11.7783 10.9932L12.8711 9.89941L13.9756 11.0039Z" fill="white"/>
<path fill-rule="evenodd" clip-rule="evenodd" d="M12 8.25C14.0711 8.25 15.75 9.92893 15.75 12C15.75 14.0711 14.0711 15.75 12 15.75C9.92893 15.75 8.25 14.0711 8.25 12C8.25 9.92893 9.92893 8.25 12 8.25ZM13.3652 9.40527C13.1273 9.16752 12.76 9.13553 12.4883 9.31348L12.3779 9.40332C12.1068 9.67302 11.6647 10.1128 11.333 10.4473C11.0418 10.3774 10.7584 10.3517 10.4814 10.3965C10.2534 10.4335 10.0409 10.5147 9.8418 10.6406L9.64648 10.7822C9.37614 11.0025 9.40261 11.3814 9.61426 11.5918L10.6992 12.6768L9.70898 13.668C9.5723 13.8047 9.5723 14.0264 9.70898 14.1631C9.84564 14.2992 10.0666 14.2994 10.2031 14.1631L11.1934 13.1719L12.2842 14.2627L12.3701 14.332C12.5555 14.4544 12.8137 14.4662 13.0049 14.3174L13.0947 14.2295C13.5105 13.7173 13.5758 13.1602 13.4287 12.541L14.4697 11.5C14.7438 11.2264 14.7426 10.7831 14.4697 10.5098L13.3652 9.40527Z" fill="white"/>
<path fill-rule="evenodd" clip-rule="evenodd" d="M12.3643 1.76074C12.4337 1.76778 12.5021 1.77836 12.5693 1.79199C12.5772 1.79359 12.5849 1.79616 12.5928 1.79785C12.6514 1.81043 12.709 1.82541 12.7656 1.84277C12.7824 1.84791 12.7988 1.85383 12.8154 1.85938C12.8613 1.87472 12.9067 1.89082 12.9512 1.90918C12.9756 1.91928 12.9995 1.93042 13.0234 1.94141C13.0577 1.9571 13.0918 1.97278 13.125 1.99023C13.1557 2.00634 13.1851 2.02444 13.2148 2.04199C13.2412 2.05755 13.2674 2.07319 13.293 2.08984C13.3175 2.10583 13.3414 2.12268 13.3652 2.13965C13.3969 2.16222 13.4286 2.18472 13.459 2.20898C13.4799 2.22572 13.5002 2.24323 13.5205 2.26074C13.5373 2.27523 13.555 2.2887 13.5713 2.30371C13.5864 2.31758 13.5996 2.33336 13.6143 2.34766C13.6304 2.36342 13.6465 2.37924 13.6621 2.39551C13.6875 2.42193 13.7123 2.44884 13.7363 2.47656C13.7562 2.49943 13.7761 2.52218 13.7949 2.5459C13.8203 2.57782 13.8437 2.61114 13.8672 2.64453C13.8793 2.66174 13.8917 2.6787 13.9033 2.69629C13.9261 2.73091 13.947 2.76672 13.9678 2.80273C13.9814 2.82633 13.9951 2.84986 14.0078 2.87402C14.0268 2.91007 14.0436 2.94712 14.0605 2.98438C14.0701 3.00531 14.081 3.02558 14.0898 3.04688C14.1111 3.0982 14.1293 3.15082 14.1465 3.2041C14.15 3.21496 14.1549 3.22539 14.1582 3.23633C14.1716 3.28021 14.1818 3.32507 14.1924 3.37012C14.1979 3.39352 14.2043 3.41673 14.209 3.44043C14.2143 3.46751 14.2174 3.49502 14.2217 3.52246C14.228 3.5629 14.2353 3.60336 14.2393 3.64453C14.2458 3.71203 14.25 3.78039 14.25 3.84961V8.10352C13.9382 7.92311 13.6033 7.77872 13.25 7.67676V6.61133H10.3887V7.79785C10.031 7.93508 9.69565 8.11676 9.38867 8.33594V6.61133H6.61133V9.38867H8.33594C8.11683 9.69556 7.93604 10.0311 7.79883 10.3887H6.61133V13.25H7.67676C7.77872 13.6033 7.92311 13.9382 8.10352 14.25H3.84961C3.78105 14.25 3.71336 14.2457 3.64648 14.2393H3.63574L3.45312 14.2129C3.38948 14.2007 3.32709 14.1848 3.26562 14.167C3.23954 14.1594 3.21413 14.1501 3.18848 14.1416C3.15829 14.1316 3.1282 14.1217 3.09863 14.1104C3.08987 14.107 3.08097 14.1041 3.07227 14.1006C3.04636 14.0902 3.02148 14.0777 2.99609 14.0664C2.96862 14.0541 2.9409 14.0427 2.91406 14.0293C2.9112 14.0279 2.90813 14.0268 2.90527 14.0254C2.8843 14.0148 2.86431 14.0025 2.84375 13.9912C2.81646 13.9763 2.78923 13.9614 2.7627 13.9453C2.73346 13.9276 2.70503 13.9088 2.67676 13.8896C2.65675 13.8761 2.63669 13.8628 2.61719 13.8486C2.58654 13.8264 2.5567 13.8032 2.52734 13.7793C2.50886 13.7643 2.49061 13.749 2.47266 13.7334C2.46011 13.7225 2.44685 13.7124 2.43457 13.7012C2.41961 13.6875 2.40616 13.6723 2.3916 13.6582C2.37421 13.6414 2.35664 13.6248 2.33984 13.6074C2.31615 13.5829 2.29299 13.5579 2.27051 13.5322C2.25053 13.5094 2.23188 13.4856 2.21289 13.4619C2.20232 13.4487 2.19092 13.4363 2.18066 13.4229C2.1709 13.4101 2.16182 13.3968 2.15234 13.3838C2.13788 13.3639 2.12412 13.3436 2.11035 13.3232C2.09075 13.2942 2.0709 13.2654 2.05273 13.2354C2.03765 13.2104 2.02383 13.1848 2.00977 13.1592C1.99498 13.1323 1.97945 13.1057 1.96582 13.0781C1.95165 13.0494 1.93964 13.0197 1.92676 12.9902C1.9176 12.9693 1.90692 12.949 1.89844 12.9277C1.87319 12.8644 1.85113 12.7995 1.83203 12.7334C1.79768 12.6144 1.77358 12.491 1.76074 12.3643L1.75 12.1504V3.84961C1.75011 3.26987 1.98529 2.74517 2.36523 2.36523C2.41265 2.31782 2.46192 2.27222 2.51367 2.22949C2.61733 2.14391 2.72968 2.06857 2.84863 2.00391C3.08666 1.87452 3.35238 1.78949 3.63477 1.76074C3.70537 1.75356 3.77711 1.75001 3.84961 1.75H12.1504L12.3643 1.76074ZM2.75 12.1504C2.75006 12.3275 2.79278 12.4944 2.86719 12.6426C2.93624 12.78 3.03291 12.901 3.15039 12.998C3.17744 13.0204 3.20525 13.0418 3.23438 13.0615C3.26372 13.0814 3.29392 13.1002 3.3252 13.1172C3.48104 13.2019 3.65975 13.2499 3.84961 13.25H5.61133V10.3887H2.75V12.1504ZM2.75 9.38867H5.61133V6.61133H2.75V9.38867ZM3.84961 2.75C3.46989 2.75013 3.13507 2.94261 2.9375 3.23535C2.91792 3.26436 2.89961 3.29431 2.88281 3.3252C2.81499 3.44992 2.77092 3.58933 2.75586 3.7373C2.75211 3.7742 2.75001 3.81172 2.75 3.84961V5.61133H5.61133V2.75H3.84961ZM6.61133 5.61133H9.38867V2.75H6.61133V5.61133ZM10.3887 5.61133H13.25V3.84961C13.25 3.81172 13.2479 3.7742 13.2441 3.7373C13.2291 3.58933 13.185 3.44992 13.1172 3.3252C13.1002 3.29392 13.0814 3.26372 13.0615 3.23438C13.0418 3.20525 13.0204 3.17744 12.998 3.15039C12.8976 3.0288 12.7714 2.92979 12.6279 2.86035C12.6114 2.85237 12.5951 2.84408 12.5781 2.83691C12.5479 2.82411 12.5169 2.81283 12.4854 2.80273C12.4137 2.77977 12.3389 2.76369 12.2617 2.75586L12.1494 2.75H10.3887V5.61133Z" fill="white"/>
</svg>
