<svg width="16" height="16" viewBox="0 0 16 16" fill="none" xmlns="http://www.w3.org/2000/svg">
<path fill-rule="evenodd" clip-rule="evenodd" d="M7.47554 11.0985V13.9482H4.74229C4.45234 13.9482 4.21729 14.1832 4.21729 14.4732C4.21729 14.7631 4.45234 14.9982 4.74229 14.9982H11.2588C11.5487 14.9982 11.7838 14.7631 11.7838 14.4732C11.7838 14.1832 11.5487 13.9482 11.2588 13.9482H8.52554V11.0985H7.47554ZM2.99892 10.0985C2.83451 10.0902 2.68287 10.0051 2.59025 9.86778C2.49265 9.72309 2.47334 9.53936 2.53872 9.37754L5.61372 1.76651C5.80078 1.30351 6.25016 1.0004 6.74952 1.0004H9.24782C9.74691 1.0004 10.1961 1.30318 10.3833 1.76582L13.4639 9.37724C13.5294 9.53907 13.5102 9.72288 13.4126 9.86765C13.32 10.005 13.1683 10.0902 13.0038 10.0985H2.99892Z" fill="white"/>
</svg>
