<svg width="16" height="16" viewBox="0 0 16 16" fill="none" xmlns="http://www.w3.org/2000/svg">
<path fill-rule="evenodd" clip-rule="evenodd" d="M13.5996 8.5C14.3728 8.5 15 9.12719 15 9.90039V11.0996C15 11.8728 14.3728 12.5 13.5996 12.5H2.40039L2.25684 12.4932C1.55087 12.4215 1 11.8245 1 11.0996V9.90039C1 9.17551 1.55087 8.57852 2.25684 8.50684L2.40039 8.5H13.5996ZM2.40039 9.5C2.17948 9.5 2 9.67948 2 9.90039V11.0996C2 11.3205 2.17948 11.5 2.40039 11.5H13.5996C13.8205 11.5 14 11.3205 14 11.0996V9.90039C14 9.67948 13.8205 9.5 13.5996 9.5H2.40039Z" fill="white"/>
<path fill-rule="evenodd" clip-rule="evenodd" d="M13.5996 3.5C14.3728 3.5 15 4.12719 15 4.90039V6.09961C15 6.87281 14.3728 7.5 13.5996 7.5H2.40039L2.25684 7.49316C1.55087 7.42148 1 6.82449 1 6.09961V4.90039C1 4.17551 1.55087 3.57852 2.25684 3.50684L2.40039 3.5H13.5996ZM2.40039 4.5C2.17948 4.5 2 4.67948 2 4.90039V6.09961C2 6.32052 2.17948 6.5 2.40039 6.5H13.5996C13.8205 6.5 14 6.32052 14 6.09961V4.90039C14 4.67948 13.8205 4.5 13.5996 4.5H2.40039Z" fill="white"/>
</svg>
