<svg width="16" height="16" viewBox="0 0 16 16" fill="none" xmlns="http://www.w3.org/2000/svg">
<path d="M6.09961 1C6.87281 1 7.5 1.62719 7.5 2.40039V13.5996C7.5 14.3728 6.87281 15 6.09961 15H4.90039C4.12719 15 3.5 14.3728 3.5 13.5996V2.40039C3.5 1.62719 4.12719 1 4.90039 1H6.09961Z" fill="white"/>
<path d="M11.0996 1C11.8728 1 12.5 1.62719 12.5 2.40039V13.5996C12.5 14.3728 11.8728 15 11.0996 15H9.90039C9.12719 15 8.5 14.3728 8.5 13.5996V2.40039C8.5 1.62719 9.12719 1 9.90039 1H11.0996Z" fill="white"/>
</svg>
