<svg width="16" height="16" viewBox="0 0 16 16" fill="none" xmlns="http://www.w3.org/2000/svg">
<path fill-rule="evenodd" clip-rule="evenodd" d="M1 10.2221V5.77868C0.999995 5.30654 0.99999 4.92191 1.0255 4.60964C1.05187 4.28691 1.10797 3.99768 1.24524 3.72828C1.46095 3.30491 1.80516 2.96071 2.22852 2.74499C2.49793 2.60772 2.78715 2.55163 3.10989 2.52526C3.42215 2.49975 3.80676 2.49975 4.2789 2.49976H11.7182C12.1904 2.49975 12.575 2.49975 12.8873 2.52526C13.21 2.55163 13.4992 2.60772 13.7686 2.74499C14.192 2.96071 14.5362 3.30491 14.7519 3.72828C14.8892 3.99768 14.9453 4.28691 14.9716 4.60964C14.9972 4.92191 14.9971 5.30652 14.9971 5.77867V10.2221C14.9971 10.6942 14.9972 11.0788 14.9716 11.3911C14.9453 11.7138 14.8892 12.003 14.7519 12.2725C14.5362 12.6958 14.192 13.04 13.7686 13.2557C13.4992 13.393 13.21 13.4491 12.8873 13.4755C12.575 13.501 12.1904 13.501 11.7182 13.501H4.27893C3.80678 13.501 3.42216 13.501 3.10989 13.4755C2.78715 13.4491 2.49793 13.393 2.22852 13.2557C1.80516 13.04 1.46095 12.6958 1.24524 12.2725C1.10797 12.003 1.05187 11.7138 1.0255 11.3911C0.99999 11.0788 0.999995 10.6942 1 10.2221ZM2.02218 11.3097C2.0435 11.5706 2.08277 11.7135 2.13624 11.8185C2.25608 12.0537 2.44731 12.2449 2.68251 12.3647C2.78745 12.4182 2.93042 12.4575 3.19132 12.4788C3.45805 12.5006 3.80171 12.501 4.3 12.501H11.6971C12.1954 12.501 12.5391 12.5006 12.8058 12.4788C13.0667 12.4575 13.2097 12.4182 13.3146 12.3647C13.5498 12.2449 13.7411 12.0537 13.8609 11.8185C13.9144 11.7135 13.9536 11.5706 13.975 11.3097C13.9968 11.0429 13.9971 10.6993 13.9971 10.201V5.79976C13.9971 5.30146 13.9968 4.95781 13.975 4.69108C13.9536 4.43018 13.9144 4.28721 13.8609 4.18227C13.7411 3.94707 13.5498 3.75584 13.3146 3.636C13.2097 3.58253 13.0667 3.54325 12.8058 3.52194C12.5391 3.50015 12.1954 3.49976 11.6971 3.49976H4.3C3.8017 3.49976 3.45805 3.50015 3.19132 3.52194C2.93042 3.54325 2.78745 3.58253 2.68251 3.636C2.44731 3.75584 2.25608 3.94707 2.13624 4.18227C2.08277 4.28721 2.0435 4.43018 2.02218 4.69108C2.00039 4.95781 2 5.30146 2 5.79976V10.201C2 10.6993 2.00039 11.0429 2.02218 11.3097ZM5.18789 7.84559C5.05826 7.84549 4.92869 7.8955 4.83071 7.9953C4.63725 8.19235 4.64016 8.50892 4.83721 8.70238L6.59359 10.4267C6.69108 10.5224 6.818 10.5702 6.94485 10.5699C7.07169 10.5702 7.19861 10.5224 7.29611 10.4267L11.1601 6.63316C11.3572 6.4397 11.3601 6.12313 11.1666 5.92608C11.0689 5.82654 10.9397 5.77654 10.8105 5.77638C10.6832 5.77572 10.5556 5.82336 10.4576 5.91958L6.94485 9.36829L5.53974 7.9888C5.44199 7.89283 5.31484 7.84518 5.18789 7.84559Z" fill="white"/>
</svg>
