<svg width="16" height="16" viewBox="0 0 16 16" fill="none" xmlns="http://www.w3.org/2000/svg">
<path fill-rule="evenodd" clip-rule="evenodd" d="M5.56391 2.48439C5.44391 2.76439 5.39391 3.07439 5.39391 3.40439V8.18439C4.95391 8.53439 4.62391 8.93439 4.39391 9.38439C4.13391 9.90439 4.00391 10.4944 4.00391 11.1444C4.00391 12.4344 4.32391 13.3944 4.96391 14.0344C5.60391 14.6744 6.56391 14.9944 7.84391 14.9944C9.13391 14.9944 10.0939 14.6744 10.7339 14.0344C11.3739 13.3944 11.6939 12.4344 11.6939 11.1444C11.6939 10.4644 11.5539 9.85439 11.2739 9.32439C11.0239 8.86439 10.6739 8.45439 10.2039 8.10439V3.40439C10.2039 3.07439 10.1539 2.76439 10.0339 2.48439C9.91391 2.20439 9.73391 1.94439 9.50391 1.70439C9.26391 1.47439 9.00391 1.29439 8.72391 1.17439C8.44391 1.05439 8.13391 1.00439 7.80391 1.00439C7.46391 1.00439 7.15391 1.05439 6.87391 1.17439C6.59391 1.29439 6.33391 1.47439 6.09391 1.70439C5.86391 1.94439 5.68391 2.20439 5.56391 2.48439ZM8.34391 5.35439V9.31439C9.15391 9.5344 9.75391 10.2744 9.75391 11.1544C9.75391 12.1944 8.89391 13.0544 7.84391 13.0544C6.80391 13.0544 5.94391 12.1944 5.94391 11.1544C5.94391 10.2744 6.54391 9.5344 7.34391 9.31439V5.35439C7.34391 5.07439 7.57391 4.85439 7.84391 4.85439C8.13391 4.85439 8.34391 5.07439 8.34391 5.35439ZM6.94391 11.1544C6.94391 10.6544 7.35391 10.2544 7.84391 10.2544C8.34391 10.2544 8.75391 10.6544 8.75391 11.1544C8.75391 11.6444 8.34391 12.0544 7.84391 12.0544C7.35391 12.0544 6.94391 11.6444 6.94391 11.1544Z" fill="white"/>
</svg>
