<svg width="16" height="16" viewBox="0 0 16 16" fill="none" xmlns="http://www.w3.org/2000/svg">
<g clip-path="url(#clip0_40886_2519)">
<path fill-rule="evenodd" clip-rule="evenodd" d="M1.01974 8.53302C0.925845 8.62689 0.834402 8.71831 0.763295 8.80207C0.685208 8.89406 0.601262 9.01079 0.55174 9.1632C0.483079 9.37452 0.483079 9.60215 0.55174 9.81346C0.601262 9.96588 0.685208 10.0826 0.763295 10.1746C0.834402 10.2584 0.925845 10.3498 1.01974 10.4436L1.58481 11.0087C1.66509 11.089 1.73725 11.1612 1.79854 11.2173C1.85897 11.2726 1.9412 11.3431 2.04268 11.3952L2.04753 11.3977C2.06797 11.4082 2.09499 11.4221 2.12023 11.4338C2.15154 11.4484 2.1931 11.4658 2.24406 11.4798C2.29502 11.4937 2.33968 11.4998 2.37404 11.5033C2.40171 11.506 2.43203 11.5078 2.45498 11.5092L2.46044 11.5095C2.54294 11.5145 2.62127 11.503 2.66888 11.4951C2.72517 11.4858 2.78841 11.4723 2.85526 11.4569C2.98724 11.4265 3.16533 11.3808 3.38953 11.3233L3.39736 11.3213C3.74732 11.2315 4.13201 11.324 4.40433 11.5963C4.67665 11.8686 4.76914 12.2533 4.67936 12.6032L4.67735 12.6111C4.61983 12.8352 4.57413 13.0134 4.54369 13.1454C4.52827 13.2122 4.51482 13.2754 4.50548 13.3317C4.49758 13.3793 4.48613 13.4577 4.49107 13.5402L4.49139 13.5456C4.49276 13.5686 4.49457 13.5989 4.49733 13.6266C4.50077 13.6609 4.50688 13.7056 4.52083 13.7566C4.53477 13.8075 4.55225 13.8491 4.56679 13.8804C4.57851 13.9056 4.59239 13.9326 4.6029 13.9531L4.6054 13.9579C4.65751 14.0594 4.72805 14.1416 4.78336 14.2021C4.83945 14.2634 4.91161 14.3355 4.9919 14.4158L5.55697 14.9809C5.65084 15.0748 5.74226 15.1662 5.82602 15.2373C5.918 15.3154 6.03473 15.3993 6.18715 15.4489C6.39846 15.5175 6.62609 15.5175 6.83741 15.4489C6.98982 15.3993 7.10656 15.3154 7.19854 15.2373C7.2823 15.1662 7.37371 15.0748 7.46759 14.9809L14.9808 7.46771C15.0746 7.37384 15.1661 7.28242 15.2372 7.19866C15.3153 7.10668 15.3992 6.98995 15.4487 6.83753C15.5174 6.62622 15.5174 6.39859 15.4487 6.18727C15.3992 6.03486 15.3153 5.91812 15.2372 5.82614C15.1661 5.74238 15.0746 5.65097 14.9808 5.5571L14.4157 4.99202C14.3354 4.91173 14.2632 4.83957 14.202 4.78348C14.1415 4.72818 14.0593 4.65763 13.9578 4.60552L13.9529 4.60299C13.9325 4.59248 13.9055 4.57862 13.8803 4.56691C13.8489 4.55238 13.8074 4.53489 13.7564 4.52095C13.7055 4.507 13.6608 4.50089 13.6265 4.49746C13.5987 4.49469 13.5684 4.49288 13.5454 4.49151L13.54 4.49119C13.4576 4.48625 13.3792 4.4977 13.3316 4.5056C13.2753 4.51494 13.2121 4.52839 13.1452 4.54381C13.0133 4.57425 12.8353 4.61992 12.6112 4.67742L12.6031 4.67948C12.2532 4.76927 11.8685 4.67677 11.5962 4.40445C11.3238 4.13213 11.2313 3.74744 11.3211 3.39748L11.3231 3.38971C11.3806 3.1656 11.4264 2.98733 11.4568 2.85538C11.4722 2.78853 11.4857 2.72529 11.495 2.669C11.5029 2.6214 11.5144 2.54306 11.5094 2.46056L11.5091 2.45517C11.5077 2.43221 11.5059 2.40186 11.5032 2.37416C11.4997 2.3398 11.4936 2.29514 11.4797 2.24418C11.4657 2.19322 11.4482 2.15167 11.4337 2.12035C11.422 2.09514 11.4081 2.06816 11.3976 2.04772L11.3951 2.0428C11.343 1.94133 11.2724 1.85909 11.2171 1.79866C11.161 1.73737 11.0889 1.66521 11.0086 1.58493L10.4435 1.01986C10.3496 0.925965 10.2582 0.834521 10.1745 0.763417C10.0825 0.68533 9.96575 0.601384 9.81334 0.551862C9.60202 0.483201 9.37439 0.483201 9.16308 0.551862C9.01066 0.601384 8.89393 0.68533 8.80195 0.763417C8.71819 0.834524 8.62677 0.925967 8.5329 1.01986L1.01974 8.53302ZM6.26455 6.01262C6.1135 5.93566 5.95221 6.09694 6.02917 6.24799L6.76807 7.69816C6.80249 7.76571 6.78949 7.84774 6.73588 7.90135L5.58503 9.05221C5.46515 9.17208 5.56871 9.37531 5.73615 9.34879L7.34367 9.09419C7.41855 9.08233 7.49255 9.12003 7.52697 9.18759L8.26586 10.6377C8.34283 10.7888 8.56812 10.7531 8.59464 10.5857L8.84924 8.97816C8.8611 8.90328 8.91983 8.84455 8.99471 8.83269L10.6022 8.57808C10.7697 8.55156 10.8054 8.32628 10.6543 8.24931L9.20414 7.51042C9.13659 7.476 9.09888 7.402 9.11074 7.32711L9.36535 5.7196C9.39187 5.55216 9.18863 5.4486 9.06876 5.56848L7.9179 6.71933C7.86429 6.77294 7.78226 6.78593 7.71471 6.75151L6.26455 6.01262Z" fill="white"/>
</g>
<defs>
<clipPath id="clip0_40886_2519">
<rect width="16" height="16" fill="white"/>
</clipPath>
</defs>
</svg>
