<svg width="16" height="16" viewBox="0 0 16 16" fill="none" xmlns="http://www.w3.org/2000/svg">
<path fill-rule="evenodd" clip-rule="evenodd" d="M5.54883 1.75C5.54883 1.47386 5.77269 1.25 6.04883 1.25H9.95168C10.2278 1.25 10.4517 1.47386 10.4517 1.75C10.4517 2.02614 10.2278 2.25 9.95168 2.25H6.04883C5.77269 2.25 5.54883 2.02614 5.54883 1.75ZM6.08279 4.36026C6.69015 4.11399 7.34147 3.98711 7.99947 3.98711C8.65748 3.98711 9.3088 4.11399 9.91615 4.36026C10.5235 4.60652 11.0746 4.96719 11.5384 5.42117C12.0022 5.87513 12.3695 6.41349 12.6199 7.0052C12.8701 7.59674 12.9989 8.23088 12.9989 8.87048C12.9989 9.51027 12.8702 10.1441 12.6199 10.7358C12.3695 11.3275 12.0022 11.8658 11.5384 12.3198C11.0746 12.7738 10.5235 13.1344 9.91615 13.3807C9.30879 13.627 8.65747 13.7538 7.99947 13.7538C7.34147 13.7538 6.69015 13.627 6.08279 13.3807C5.47545 13.1344 4.9243 12.7738 4.46052 12.3198C3.99677 11.8658 3.62948 11.3275 3.37909 10.7358C3.12872 10.1441 3 9.51027 3 8.87048C3 8.23069 3.12872 7.5969 3.37909 7.0052C3.62948 6.41348 3.99677 5.87513 4.46052 5.42117C4.9243 4.96719 5.47545 4.60651 6.08279 4.36026ZM12.3957 4.86691C12.8793 5.37762 13.2673 5.96933 13.5405 6.61491C13.8429 7.3295 13.9989 8.09637 13.9989 8.87048C13.9989 9.64459 13.8432 10.4109 13.5408 11.1255C13.2384 11.84 12.7955 12.4886 12.2379 13.0344C11.6804 13.5802 11.019 14.0126 10.2919 14.3074C9.56481 14.6022 8.78587 14.7538 7.99947 14.7538C7.21307 14.7538 6.43413 14.6022 5.70704 14.3074C4.97992 14.0126 4.31857 13.5802 3.761 13.0344C3.2034 12.4886 2.76051 11.84 2.45815 11.1255C2.15578 10.4109 2 9.64459 2 8.87048C2 8.09637 2.15578 7.33009 2.45815 6.61551C2.76052 5.90095 3.2034 5.25238 3.761 4.70656C4.31857 4.16076 4.97992 3.72836 5.70704 3.43354C6.43414 3.13872 7.21307 2.98711 7.99947 2.98711C8.78587 2.98711 9.56481 3.13872 10.2919 3.43354C10.777 3.63024 11.2329 3.88819 11.6482 4.20019L12.1472 3.70113C12.3425 3.50587 12.6591 3.50587 12.8543 3.70113C13.0496 3.8964 13.0496 4.21298 12.8543 4.40824L12.3957 4.86691ZM9.22675 5.73935C9.26653 5.62254 9.21732 5.49442 9.10878 5.4322C9.00024 5.36998 8.86201 5.39065 8.7774 5.48175L5.22936 9.30221C5.15851 9.3785 5.1403 9.48852 5.18291 9.58281C5.22552 9.6771 5.32094 9.73792 5.42626 9.73792H7.54069L6.77043 11.9999C6.73066 12.1167 6.77987 12.2448 6.88841 12.3071C6.99695 12.3693 7.13517 12.3486 7.21978 12.2575L10.7678 8.43705C10.8387 8.36076 10.8569 8.25074 10.8143 8.15645C10.7717 8.06216 10.6763 8.00135 10.5709 8.00135H8.45649L9.22675 5.73935Z" fill="white"/>
</svg>
