<svg width="16" height="16" viewBox="0 0 16 16" fill="none" xmlns="http://www.w3.org/2000/svg">
<path fill-rule="evenodd" clip-rule="evenodd" d="M5.55664 1.75C5.55664 1.47386 5.7805 1.25 6.05664 1.25H9.93899C10.2151 1.25 10.439 1.47386 10.439 1.75C10.439 2.02614 10.2151 2.25 9.93899 2.25H6.05664C5.7805 2.25 5.55664 2.02614 5.55664 1.75ZM8 14.7543C11.3137 14.7543 14 12.115 14 8.85917C14 7.31455 13.3954 5.90868 12.406 4.85756L12.8543 4.40922C13.0496 4.21396 13.0496 3.89737 12.8543 3.70211C12.6591 3.50685 12.3425 3.50685 12.1472 3.70211L11.6611 4.18828C10.648 3.42062 9.37828 2.96401 8 2.96401C4.68629 2.96401 2 5.60336 2 8.85917C2 12.115 4.68629 14.7543 8 14.7543ZM10.6621 6.63342C10.8689 6.43021 10.8718 6.09781 10.6686 5.89099C10.4654 5.68416 10.133 5.68123 9.92617 5.88444L7.63206 8.13848C7.42523 8.34169 7.4223 8.67408 7.62551 8.88091C7.82872 9.08773 8.16112 9.09066 8.36794 8.88745L10.6621 6.63342Z" fill="white"/>
</svg>
