<svg width="16" height="16" viewBox="0 0 16 16" fill="none" xmlns="http://www.w3.org/2000/svg">
<path fill-rule="evenodd" clip-rule="evenodd" d="M6.04883 1.25C5.77269 1.25 5.54883 1.47386 5.54883 1.75C5.54883 2.02614 5.77269 2.25 6.04883 2.25H9.95168C10.2278 2.25 10.4517 2.02614 10.4517 1.75C10.4517 1.47386 10.2278 1.25 9.95168 1.25H6.04883ZM6.08276 4.35943C6.69012 4.11321 7.34145 3.98636 7.99947 3.98636C8.65749 3.98636 9.30882 4.11321 9.91619 4.35943C10.5235 4.60563 11.0747 4.96623 11.5385 5.42011C12.0022 5.87396 12.3695 6.41219 12.6199 7.00375C12.8701 7.59516 12.9989 8.22908 12.9989 8.86854C12.9989 9.50816 12.8702 10.1418 12.6199 10.7333C12.3695 11.3249 12.0022 11.8631 11.5385 12.317C11.0747 12.7708 10.5235 13.1314 9.91619 13.3776C9.30882 13.6239 8.65749 13.7507 7.99947 13.7507C7.34145 13.7507 6.69012 13.6239 6.08276 13.3776C5.47541 13.1314 4.92425 12.7708 4.46048 12.317C3.99673 11.8631 3.62945 11.3249 3.37908 10.7333C3.12871 10.1418 3 9.50816 3 8.86854C3 8.22891 3.12871 7.59529 3.37908 7.00375C3.62945 6.41218 3.99673 5.87396 4.46048 5.42011C4.92425 4.96623 5.47541 4.60563 6.08276 4.35943ZM13.9989 8.86854C13.9989 8.09456 13.8432 7.32843 13.5408 6.61398C13.2673 5.96792 12.879 5.37582 12.3948 4.86485L12.8524 4.40726C13.0476 4.212 13.0476 3.89542 12.8524 3.70016C12.6571 3.5049 12.3405 3.5049 12.1453 3.70016L11.6471 4.19836C11.2321 3.88678 10.7766 3.62917 10.2919 3.43268C9.56478 3.13793 8.78586 2.98636 7.99947 2.98636C7.21309 2.98636 6.43416 3.13793 5.70707 3.43268C4.97997 3.72743 4.31861 4.15974 3.76104 4.70542C3.20344 5.25112 2.76054 5.89956 2.45817 6.61398C2.15578 7.32843 2 8.09456 2 8.86854C2 9.64251 2.15578 10.4086 2.45817 11.1231C2.76054 11.8375 3.20344 12.4859 3.76104 13.0317C4.31861 13.5773 4.97997 14.0096 5.70707 14.3044C6.43416 14.5991 7.21309 14.7507 7.99947 14.7507C8.78586 14.7507 9.56478 14.5991 10.2919 14.3044C11.019 14.0096 11.6803 13.5773 12.2379 13.0317C12.7955 12.4859 13.2384 11.8375 13.5408 11.1231C13.8432 10.4086 13.9989 9.64251 13.9989 8.86854ZM7.99826 5.41699C8.2744 5.41699 8.49826 5.64085 8.49826 5.91699V8.36851H11.0141C11.2902 8.36851 11.5141 8.59237 11.5141 8.86851C11.5141 9.14465 11.2902 9.36851 11.0141 9.36851H8.49826V11.82C8.49826 12.0962 8.2744 12.32 7.99826 12.32C7.72212 12.32 7.49826 12.0962 7.49826 11.82V9.36851H4.98242C4.70628 9.36851 4.48242 9.14465 4.48242 8.86851C4.48242 8.59237 4.70628 8.36851 4.98242 8.36851H7.49826V5.91699C7.49826 5.64085 7.72212 5.41699 7.99826 5.41699Z" fill="white"/>
</svg>
