<svg width="16" height="16" viewBox="0 0 16 16" fill="none" xmlns="http://www.w3.org/2000/svg">
<path fill-rule="evenodd" clip-rule="evenodd" d="M8.69922 2C8.42308 2 8.19922 2.22386 8.19922 2.5C8.19922 2.77614 8.42308 3 8.69922 3H9.59961V3.89972C7.12808 4.14559 5.19922 6.19538 5.19922 8.68763C5.19922 11.3456 7.39308 13.5003 10.0993 13.5003C12.8056 13.5003 14.9995 11.3456 14.9995 8.68763C14.9995 6.19556 13.0709 4.14589 10.5996 3.89977V3H11.4993C11.7754 3 11.9993 2.77614 11.9993 2.5C11.9993 2.22386 11.7754 2 11.4993 2H8.69922ZM2.40039 4.75094C2.12425 4.75094 1.90039 4.9748 1.90039 5.25094C1.90039 5.52708 2.12425 5.75094 2.40039 5.75094H4.85045C5.12659 5.75094 5.35045 5.52708 5.35045 5.25094C5.35045 4.9748 5.12659 4.75094 4.85045 4.75094H2.40039ZM1 7.50092C0.723858 7.50092 0.5 7.72478 0.5 8.00092C0.5 8.27706 0.723858 8.50092 1 8.50092H3.45006C3.7262 8.50092 3.95006 8.27706 3.95006 8.00092C3.95006 7.72478 3.7262 7.50092 3.45006 7.50092H1ZM1.19922 10.7509C1.19922 10.4748 1.42308 10.2509 1.69922 10.2509H4.14928C4.42542 10.2509 4.64928 10.4748 4.64928 10.7509C4.64928 11.027 4.42542 11.2509 4.14928 11.2509H1.69922C1.42308 11.2509 1.19922 11.027 1.19922 10.7509ZM12.2 7.32645C12.397 7.13295 12.3999 6.81639 12.2064 6.61937C12.0129 6.42236 11.6963 6.41951 11.4993 6.613L9.74925 8.3318C9.55224 8.52529 9.54939 8.84186 9.74289 9.03888C9.93638 9.23589 10.253 9.23874 10.45 9.04525L12.2 7.32645Z" fill="white"/>
</svg>
