<svg width="16" height="16" viewBox="0 0 16 16" fill="none" xmlns="http://www.w3.org/2000/svg">
<path fill-rule="evenodd" clip-rule="evenodd" d="M5.55859 1.75C5.55859 1.47386 5.78245 1.25 6.05859 1.25H9.94095C10.2171 1.25 10.4409 1.47386 10.4409 1.75C10.4409 2.02614 10.2171 2.25 9.94095 2.25H6.05859C5.78245 2.25 5.55859 2.02614 5.55859 1.75ZM8 14.7543C11.3137 14.7543 14 12.115 14 8.85917C14 7.31455 13.3954 5.90868 12.406 4.85756L12.8543 4.40922C13.0496 4.21396 13.0496 3.89737 12.8543 3.70211C12.6591 3.50685 12.3425 3.50685 12.1472 3.70211L11.6611 4.18828C10.648 3.42062 9.37828 2.96401 8 2.96401C4.68629 2.96401 2 5.60336 2 8.85917C2 12.115 4.68629 14.7543 8 14.7543ZM8.525 5.9112C8.525 5.62125 8.28995 5.3862 8 5.3862C7.71005 5.3862 7.475 5.62125 7.475 5.9112V8.33378H5C4.71005 8.33378 4.475 8.56883 4.475 8.85878C4.475 9.14873 4.71005 9.38378 5 9.38378H7.475V11.8064C7.475 12.0963 7.71005 12.3314 8 12.3314C8.28995 12.3314 8.525 12.0963 8.525 11.8064V9.38378H11C11.2899 9.38378 11.525 9.14873 11.525 8.85878C11.525 8.56883 11.2899 8.33378 11 8.33378H8.525V5.9112Z" fill="white"/>
</svg>
