<svg width="16" height="16" viewBox="0 0 16 16" fill="none" xmlns="http://www.w3.org/2000/svg">
<path fill-rule="evenodd" clip-rule="evenodd" d="M5.55859 1.75C5.55859 1.47386 5.78245 1.25 6.05859 1.25H9.94095C10.2171 1.25 10.4409 1.47386 10.4409 1.75C10.4409 2.02614 10.2171 2.25 9.94095 2.25H6.05859C5.78245 2.25 5.55859 2.02614 5.55859 1.75ZM8 14.7543C11.3137 14.7543 14 12.115 14 8.85917C14 7.31455 13.3954 5.90868 12.406 4.85756L12.8543 4.40922C13.0496 4.21396 13.0496 3.89737 12.8543 3.70211C12.6591 3.50685 12.3425 3.50685 12.1472 3.70211L11.6611 4.18828C10.648 3.42062 9.37828 2.96401 8 2.96401C4.68629 2.96401 2 5.60336 2 8.85917C2 12.115 4.68629 14.7543 8 14.7543ZM9.22297 5.73396C9.26254 5.61733 9.21359 5.48941 9.10562 5.42728C8.99765 5.36516 8.86015 5.3858 8.77598 5.47676L5.24658 9.29128C5.1761 9.36745 5.15798 9.4773 5.20037 9.57145C5.24276 9.66559 5.33767 9.72631 5.44245 9.72631H7.54577L6.77956 11.9848C6.73999 12.1014 6.78894 12.2293 6.89691 12.2915C7.00488 12.3536 7.14238 12.333 7.22654 12.242L10.7559 8.42747C10.8264 8.3513 10.8445 8.24145 10.8022 8.1473C10.7598 8.05316 10.6649 7.99244 10.5601 7.99244H8.45676L9.22297 5.73396Z" fill="white"/>
</svg>
