<svg width="16" height="16" viewBox="0 0 16 16" fill="none" xmlns="http://www.w3.org/2000/svg">
<path fill-rule="evenodd" clip-rule="evenodd" d="M8.69922 2C8.42308 2 8.19922 2.22386 8.19922 2.5C8.19922 2.77614 8.42308 3 8.69922 3H9.59961V3.89972C7.12808 4.14561 5.19922 6.19552 5.19922 8.68791C5.19922 11.346 7.39308 13.5008 10.0993 13.5008C12.8056 13.5008 14.9995 11.346 14.9995 8.68791C14.9995 6.1957 13.0709 4.14591 10.5996 3.89978V3H11.4993C11.7754 3 11.9993 2.77614 11.9993 2.5C11.9993 2.22386 11.7754 2 11.4993 2H8.69922ZM2.40039 4.74983C2.12425 4.74983 1.90039 4.97369 1.90039 5.24983C1.90039 5.52597 2.12425 5.74983 2.40039 5.74983H4.85045C5.12659 5.74983 5.35045 5.52597 5.35045 5.24983C5.35045 4.97369 5.12659 4.74983 4.85045 4.74983H2.40039ZM1 7.49975C0.723858 7.49975 0.5 7.7236 0.5 7.99975C0.5 8.27589 0.723858 8.49975 1 8.49975H3.45006C3.7262 8.49975 3.95006 8.27589 3.95006 7.99975C3.95006 7.7236 3.7262 7.49975 3.45006 7.49975H1ZM1.19922 10.7497C1.19922 10.4735 1.42308 10.2497 1.69922 10.2497H4.14928C4.42542 10.2497 4.64928 10.4735 4.64928 10.7497C4.64928 11.0258 4.42542 11.2497 4.14928 11.2497H1.69922C1.42308 11.2497 1.19922 11.0258 1.19922 10.7497ZM11.0087 6.20803C11.0381 6.11553 11.0017 6.01408 10.9214 5.96481C10.8411 5.91554 10.7389 5.9319 10.6763 6.00405L8.0512 9.0293C7.99878 9.08971 7.98531 9.17683 8.01683 9.2515C8.04836 9.32616 8.11895 9.37432 8.19688 9.37432H9.76127L9.19138 11.1655C9.16195 11.258 9.19836 11.3594 9.27867 11.4087C9.35897 11.458 9.46124 11.4416 9.52384 11.3695L12.1489 8.34422C12.2013 8.28381 12.2148 8.19669 12.1833 8.12202C12.1517 8.04736 12.0811 7.9992 12.0032 7.9992H10.4388L11.0087 6.20803Z" fill="white"/>
</svg>
