<svg width="16" height="16" viewBox="0 0 16 16" fill="none" xmlns="http://www.w3.org/2000/svg">
<path fill-rule="evenodd" clip-rule="evenodd" d="M8.21289 2.5C8.21289 2.22386 8.43675 2 8.71289 2H11.5175C11.7937 2 12.0175 2.22386 12.0175 2.5C12.0175 2.77614 11.7937 3 11.5175 3H10.6172V3.9186C13.0718 4.16501 14.9989 6.20384 14.9989 8.69861C14.9989 11.3607 12.8046 13.5036 10.1167 13.5036C7.42867 13.5036 5.23438 11.3607 5.23438 8.69861C5.23438 6.20348 7.16208 4.16442 9.61719 3.91849V3H8.71289C8.43675 3 8.21289 2.77614 8.21289 2.5ZM10.9399 5.97169C11.0203 6.02105 11.0568 6.12269 11.0273 6.21535L10.4565 8.00976H12.0235C12.1015 8.00976 12.1722 8.05801 12.2038 8.13281C12.2354 8.20761 12.2219 8.29488 12.1694 8.3554L9.54001 11.3861C9.47731 11.4584 9.37487 11.4748 9.29444 11.4254C9.214 11.3761 9.17753 11.2744 9.20701 11.1818L9.77783 9.38736H8.21088C8.13282 9.38736 8.06211 9.33912 8.03053 9.26432C7.99896 9.18952 8.01245 9.10224 8.06496 9.04172L10.6943 6.01101C10.757 5.93873 10.8595 5.92233 10.9399 5.97169ZM6.23438 8.69861C6.23438 6.60551 7.96411 4.89361 10.1167 4.89361C12.2692 4.89361 13.9989 6.60551 13.9989 8.69861C13.9989 10.7917 12.2692 12.5036 10.1167 12.5036C7.96411 12.5036 6.23438 10.7917 6.23438 8.69861ZM2.40234 4.75467C2.1262 4.75467 1.90234 4.97853 1.90234 5.25467C1.90234 5.53082 2.1262 5.75467 2.40234 5.75467H4.85642C5.13256 5.75467 5.35642 5.53082 5.35642 5.25467C5.35642 4.97853 5.13256 4.75467 4.85642 4.75467H2.40234ZM1 7.50945C0.723858 7.50945 0.5 7.73331 0.5 8.00945C0.5 8.28559 0.723858 8.50945 1 8.50945H3.45408C3.73022 8.50945 3.95408 8.28559 3.95408 8.00945C3.95408 7.73331 3.73022 7.50945 3.45408 7.50945H1ZM1.19922 10.7642C1.19922 10.4881 1.42308 10.2642 1.69922 10.2642H4.1533C4.42944 10.2642 4.6533 10.4881 4.6533 10.7642C4.6533 11.0404 4.42944 11.2642 4.1533 11.2642H1.69922C1.42308 11.2642 1.19922 11.0404 1.19922 10.7642Z" fill="white"/>
</svg>
