<svg width="16" height="16" viewBox="0 0 16 16" fill="none" xmlns="http://www.w3.org/2000/svg">
<path fill-rule="evenodd" clip-rule="evenodd" d="M8.21289 2.5C8.21289 2.22386 8.43675 2 8.71289 2H11.5175C11.7937 2 12.0175 2.22386 12.0175 2.5C12.0175 2.77614 11.7937 3 11.5175 3H10.6172V3.91756C13.0717 4.16392 14.9989 6.20217 14.9989 8.69647C14.9989 11.3581 12.8045 13.5004 10.1167 13.5004C7.42879 13.5004 5.23438 11.3581 5.23438 8.69647C5.23438 6.20181 7.16218 4.16333 9.61719 3.91746V3H8.71289C8.43675 3 8.21289 2.77614 8.21289 2.5ZM10.1167 4.89258C7.96398 4.89258 6.23438 6.60411 6.23438 8.69647C6.23438 10.7888 7.96398 12.5004 10.1167 12.5004C12.2693 12.5004 13.9989 10.7888 13.9989 8.69647C13.9989 6.60411 12.2693 4.89258 10.1167 4.89258ZM12.2268 6.62527C12.4203 6.82229 12.4175 7.13886 12.2204 7.33235L10.4675 9.0539C10.2705 9.2474 9.95395 9.24454 9.76046 9.04752C9.56697 8.85051 9.56982 8.53394 9.76684 8.34044L11.5198 6.61889C11.7168 6.4254 12.0333 6.42825 12.2268 6.62527ZM2.40234 4.75488C2.1262 4.75488 1.90234 4.97874 1.90234 5.25488C1.90234 5.53103 2.1262 5.75488 2.40234 5.75488H4.85642C5.13256 5.75488 5.35642 5.53103 5.35642 5.25488C5.35642 4.97874 5.13256 4.75488 4.85642 4.75488H2.40234ZM1 7.50879C0.723858 7.50879 0.5 7.73265 0.5 8.00879C0.5 8.28493 0.723858 8.50879 1 8.50879H3.45408C3.73022 8.50879 3.95408 8.28493 3.95408 8.00879C3.95408 7.73265 3.73022 7.50879 3.45408 7.50879H1ZM1.19922 10.7637C1.19922 10.4875 1.42308 10.2637 1.69922 10.2637H4.1533C4.42944 10.2637 4.6533 10.4875 4.6533 10.7637C4.6533 11.0398 4.42944 11.2637 4.1533 11.2637H1.69922C1.42308 11.2637 1.19922 11.0398 1.19922 10.7637Z" fill="white"/>
</svg>
