<svg width="16" height="16" viewBox="0 0 16 16" fill="none" xmlns="http://www.w3.org/2000/svg">
<path fill-rule="evenodd" clip-rule="evenodd" d="M11.9997 8.25C14.0707 8.25 15.7497 9.92893 15.7497 12C15.7497 14.0711 14.0707 15.75 11.9997 15.75C9.92879 15.7498 8.24968 14.0709 8.24968 12C8.24968 9.92907 9.92879 8.25022 11.9997 8.25ZM12.2712 9.9375C12.1601 9.55293 11.7639 9.38308 11.4557 9.58789C11.379 9.63902 11.2734 9.77255 11.0641 10.04L10.6813 10.5293C10.5228 10.7319 10.2954 10.8485 10.0563 10.8486C9.7488 10.8489 9.49871 11.1312 9.4987 11.4795V12.4209C9.49889 12.769 9.74891 13.0515 10.0563 13.0518C10.2953 13.0518 10.5228 13.1677 10.6813 13.3701L11.0641 13.8594C11.2734 14.1269 11.379 14.2614 11.4557 14.3125C11.764 14.5172 12.1603 14.3467 12.2712 13.9619C12.2987 13.8661 12.2985 13.6868 12.2985 13.3291V10.5703C12.2985 10.2126 12.2987 10.0333 12.2712 9.9375ZM13.945 10.2529C13.7813 10.1177 13.5376 10.1403 13.402 10.3037C13.2667 10.4673 13.2895 10.711 13.4528 10.8467C13.6365 10.9988 13.7783 11.1754 13.8727 11.3643C13.967 11.5528 14.0143 11.752 14.0143 11.9502C14.0143 12.1482 13.9668 12.3468 13.8727 12.5352C13.7783 12.724 13.6365 12.9015 13.4528 13.0537C13.2898 13.1894 13.2669 13.4322 13.402 13.5957C13.5376 13.7594 13.7812 13.7819 13.945 13.6465C14.2048 13.4312 14.4155 13.1711 14.5612 12.8799C14.707 12.5882 14.7838 12.2718 14.7839 11.9502C14.7838 11.6285 14.7071 11.3113 14.5612 11.0195C14.4155 10.7284 14.2048 10.4682 13.945 10.2529Z" fill="white"/>
<path fill-rule="evenodd" clip-rule="evenodd" d="M10.0758 0.949219L10.2184 0.952148H10.2204C10.6699 0.971406 11.0443 1.0824 11.3551 1.26562L11.4079 1.27832C11.9482 1.40291 12.7052 1.62495 13.361 1.87598C13.6883 2.0013 13.9982 2.13672 14.2448 2.27344C14.3677 2.3416 14.4802 2.41287 14.5729 2.48633C14.663 2.55781 14.7503 2.64362 14.8044 2.74316C14.9873 3.08061 15.0381 3.46332 14.86 3.78223C14.6785 4.10634 14.304 4.28792 13.8122 4.31152C13.3994 4.33114 13.025 4.21887 12.6969 4.02734C12.8266 5.17132 12.7687 6.46495 12.7585 7.56445C12.5119 7.5226 12.2581 7.50001 11.9997 7.5C11.9697 7.5 11.9397 7.50136 11.9098 7.50195C11.9235 6.15184 12 4.72217 11.7702 3.54883C11.7131 3.25733 11.6396 3.00406 11.5514 2.78809L11.4675 2.62598C11.4412 2.57287 11.4151 2.51959 11.3913 2.46582C11.331 2.36483 11.2672 2.27526 11.1979 2.19922C11.0952 2.08672 10.9722 1.99072 10.819 1.91797C11.1546 2.58873 11.2881 3.54107 11.3366 4.55273C11.3842 5.54795 11.3524 6.61594 11.3454 7.54785C11.1023 7.58328 10.8652 7.6373 10.6364 7.70996C10.6411 6.32843 10.7126 4.76156 10.5319 3.49316C10.4389 2.84043 10.2877 2.34899 10.0798 2.03516C10.0029 1.91934 9.92121 1.83242 9.83268 1.76953L9.54655 1.7666C9.79077 2.42206 9.88965 3.41265 9.92448 4.47949C9.96111 5.60191 9.93034 6.82261 9.93034 7.84375L9.92936 8.00391C9.67793 8.13446 9.44028 8.28809 9.2194 8.46191C9.21988 8.26366 9.22233 8.05772 9.22233 7.84375C9.22233 6.44918 9.27535 4.79203 9.1569 3.46191C9.09738 2.79386 8.99861 2.27093 8.85808 1.93164C8.82664 1.85583 8.79407 1.79775 8.76628 1.75293H8.361C8.46031 2.3986 8.50099 3.39141 8.5153 4.46875C8.53024 5.59365 8.51823 6.81738 8.51823 7.84375L8.5153 9.15234C8.21643 9.51764 7.97444 9.93114 7.80143 10.3789C7.80526 9.68935 7.81022 8.8555 7.81022 7.84375C7.81022 6.46815 7.831 4.78176 7.78288 3.43066C7.75872 2.75264 7.71811 2.18675 7.65397 1.7998C7.6513 1.78367 7.64811 1.76806 7.64518 1.75293H7.36686C7.36406 1.76805 7.36074 1.78371 7.35808 1.7998C7.29397 2.18661 7.25332 2.75193 7.22917 3.42969C7.18105 4.78088 7.20183 6.46796 7.20183 7.84375C7.20182 13.2016 7.2623 13.5705 7.30241 13.9414C7.31428 14.0119 7.32476 14.0756 7.33464 14.1338H7.67643C7.68631 14.0756 7.69679 14.0119 7.70866 13.9414C7.72073 13.8297 7.73404 13.7182 7.74772 13.4707C7.9557 14.0721 8.28726 14.6151 8.71257 15.0703H4.36589C4.2045 15.07 3.9619 14.993 3.73991 14.8926C3.51719 14.7918 3.29611 14.6589 3.18034 14.5361C3.01864 14.3644 2.93844 14.2113 2.85026 14.0596C2.79548 13.9653 2.72915 13.8667 2.66472 13.707C2.60016 13.547 2.53767 13.3255 2.48112 12.9775C2.36815 12.2821 2.27969 11.0704 2.26042 8.80762L2.25651 7.84375C2.25652 6.50991 2.14208 4.82358 2.39518 3.46094C2.52197 2.77851 2.74229 2.16761 3.12175 1.71875C3.50361 1.26738 4.04268 0.984349 4.79167 0.952148H4.79362L4.93522 0.949219L7.50554 0.929688L10.0758 0.949219ZM4.19108 1.91797C4.03868 1.99066 3.91642 2.0871 3.81413 2.19922C3.55763 2.48067 3.36379 2.9266 3.24186 3.54883C2.99257 4.82173 3.10613 6.39636 3.10612 7.84375C3.10611 10.5632 3.19241 11.9604 3.30046 12.7178C3.35381 13.0915 3.40887 13.2837 3.4489 13.3887C3.47871 13.4667 3.50075 13.5028 3.54557 13.5781C3.67633 13.7183 3.77227 13.817 3.87565 13.9268C3.936 13.9908 3.99791 14.0609 4.05827 14.1338H4.15397L4.10612 14.0635L4.10222 14.0576L4.09929 14.0508C4.05924 13.9561 4.01198 13.8587 3.9655 13.7002C3.91895 13.5414 3.87269 13.3217 3.83171 12.9746C3.74979 12.2806 3.68554 11.0697 3.67155 8.80664L3.66862 7.84375L3.653 6.2373C3.64805 5.67713 3.64912 5.10379 3.67546 4.55273C3.72382 3.5414 3.85585 2.58868 4.19108 1.91797ZM5.17741 1.76953C5.08955 1.83228 5.00873 1.91993 4.93229 2.03516C4.72444 2.34898 4.57313 2.84046 4.48015 3.49316C4.29363 4.80274 4.37663 6.43023 4.37663 7.84375C4.37662 10.5654 4.4394 11.9806 4.52018 12.7598C4.56027 13.1463 4.60342 13.3597 4.63932 13.4893C4.66838 13.5939 4.69196 13.6482 4.73015 13.7363C4.82837 13.8813 4.90207 13.9832 4.97722 14.0928C4.98558 14.105 4.99558 14.1199 5.00456 14.1338H5.38835L5.35319 14.0518L5.34929 14.042C5.23665 13.6156 5.0817 13.2902 5.08171 7.84375C5.08171 6.82267 5.05116 5.60193 5.08757 4.47949C5.12217 3.41287 5.21955 2.42213 5.46354 1.7666L5.17741 1.76953ZM6.24577 1.75293C6.21798 1.79768 6.18533 1.85602 6.15397 1.93164C6.01351 2.27095 5.91461 2.79399 5.85515 3.46191C5.73674 4.79208 5.78972 6.44904 5.78972 7.84375C5.78971 13.0712 5.9352 13.512 6.02311 13.8271C6.07 13.9379 6.11431 14.0391 6.15495 14.1338H6.61784L6.60124 14.0361V14.0312C6.55681 13.6108 6.49381 13.2912 6.49382 7.84375C6.49382 6.81738 6.48181 5.59365 6.49675 4.46875C6.51106 3.39144 6.55176 2.3986 6.65104 1.75293H6.24577ZM12.0651 1.95312C12.3217 2.34324 12.4864 2.82326 12.5934 3.34961C12.9401 3.66703 13.345 3.85108 13.7878 3.83008C14.1758 3.81146 14.3547 3.67808 14.4255 3.55176C14.4896 3.43648 14.4994 3.26561 14.4108 3.05859L14.3669 2.96777C14.3573 2.95023 14.3277 2.91274 14.2604 2.85938C14.1958 2.80812 14.1083 2.75166 13.9997 2.69141C13.7818 2.57063 13.4958 2.44438 13.1794 2.32324C12.8218 2.1864 12.4306 2.06038 12.0651 1.95312Z" fill="white"/>
</svg>
