<svg width="16" height="16" viewBox="0 0 16 16" fill="none" xmlns="http://www.w3.org/2000/svg">
<path fill-rule="evenodd" clip-rule="evenodd" d="M11.9997 8.25C14.0707 8.25 15.7497 9.92893 15.7497 12C15.7497 14.0711 14.0707 15.75 11.9997 15.75C9.92879 15.7498 8.24968 14.0709 8.24968 12C8.24968 9.92907 9.92879 8.25022 11.9997 8.25ZM11.9684 13.0225C11.6098 13.0227 11.3182 13.3132 11.318 13.6719C11.318 14.0307 11.6096 14.322 11.9684 14.3223C12.3272 14.322 12.6178 14.0307 12.6178 13.6719C12.6176 13.3132 12.3271 13.0227 11.9684 13.0225ZM11.9997 9.43457C11.8066 9.43479 11.6501 9.59101 11.6501 9.78418V11.8301C11.6503 12.023 11.8067 12.1795 11.9997 12.1797C12.1928 12.1797 12.349 12.0232 12.3493 11.8301V9.78418C12.3493 9.59088 12.193 9.43457 11.9997 9.43457Z" fill="white"/>
<path fill-rule="evenodd" clip-rule="evenodd" d="M10.0758 0.949219L10.2184 0.952148H10.2204C10.6698 0.971424 11.0443 1.08242 11.3551 1.26562L11.4079 1.27832C11.9482 1.40292 12.7053 1.62497 13.361 1.87598C13.6883 2.00129 13.9982 2.13674 14.2448 2.27344C14.3676 2.34158 14.4802 2.4129 14.5729 2.48633C14.663 2.55779 14.7503 2.64365 14.8044 2.74316C14.9872 3.08057 15.0381 3.46335 14.86 3.78223C14.6786 4.10631 14.3039 4.28789 13.8122 4.31152C13.3995 4.33114 13.025 4.21883 12.6969 4.02734C12.8266 5.17132 12.7687 6.46495 12.7585 7.56445C12.5119 7.5226 12.2581 7.50001 11.9997 7.5C11.9697 7.5 11.9397 7.50136 11.9098 7.50195C11.9235 6.15185 12 4.72216 11.7702 3.54883C11.7131 3.25735 11.6396 3.00405 11.5514 2.78809L11.4675 2.62598C11.4412 2.57289 11.4151 2.51957 11.3913 2.46582C11.331 2.36486 11.2672 2.27524 11.1979 2.19922C11.0953 2.08675 10.9721 1.99071 10.819 1.91797C11.1545 2.58873 11.2881 3.5411 11.3366 4.55273C11.3842 5.54795 11.3524 6.61594 11.3454 7.54785C11.1023 7.58328 10.8652 7.6373 10.6364 7.70996C10.6411 6.32844 10.7126 4.76155 10.5319 3.49316C10.4389 2.84048 10.2877 2.34899 10.0798 2.03516C10.003 1.91938 9.92117 1.83242 9.83268 1.76953L9.54655 1.7666C9.79076 2.42206 9.88965 3.41268 9.92448 4.47949C9.96111 5.60191 9.93034 6.82261 9.93034 7.84375L9.92936 8.00391C9.67793 8.13446 9.44028 8.28809 9.2194 8.46191C9.21988 8.26366 9.22233 8.05772 9.22233 7.84375C9.22233 6.44919 9.27535 4.79202 9.1569 3.46191C9.09739 2.79389 8.9986 2.27093 8.85808 1.93164C8.82666 1.85587 8.79406 1.79774 8.76628 1.75293H8.361C8.46031 2.3986 8.50099 3.39143 8.5153 4.46875C8.53024 5.59365 8.51823 6.81738 8.51823 7.84375L8.5153 9.15234C8.21643 9.51764 7.97444 9.93114 7.80143 10.3789C7.80526 9.68934 7.81022 8.85551 7.81022 7.84375C7.81022 6.46815 7.831 4.78176 7.78288 3.43066C7.75872 2.75265 7.7181 2.18675 7.65397 1.7998C7.6513 1.78368 7.64811 1.76805 7.64518 1.75293H7.36686C7.36407 1.76804 7.36074 1.78372 7.35808 1.7998C7.29397 2.18661 7.25332 2.75193 7.22917 3.42969C7.18105 4.78088 7.20183 6.46796 7.20183 7.84375C7.20182 13.2016 7.2623 13.5705 7.30241 13.9414C7.31428 14.0119 7.32476 14.0756 7.33464 14.1338H7.67643C7.68631 14.0756 7.69679 14.0119 7.70866 13.9414C7.72073 13.8298 7.73404 13.7182 7.74772 13.4707C7.9557 14.0721 8.28726 14.6151 8.71257 15.0703H4.36589C4.20453 15.07 3.96187 14.9929 3.73991 14.8926C3.51724 14.7918 3.29613 14.6588 3.18034 14.5361C3.01866 14.3645 2.93843 14.2113 2.85026 14.0596C2.79549 13.9653 2.72915 13.8667 2.66472 13.707C2.60017 13.547 2.53767 13.3255 2.48112 12.9775C2.36815 12.2821 2.27969 11.0704 2.26042 8.80762L2.25651 7.84375C2.25652 6.50991 2.14208 4.82358 2.39518 3.46094C2.52197 2.77852 2.7423 2.1676 3.12175 1.71875C3.5036 1.26742 4.04272 0.984347 4.79167 0.952148H4.79362L4.93522 0.949219L7.50554 0.929688L10.0758 0.949219ZM4.19108 1.91797C4.03871 1.99064 3.91641 2.08714 3.81413 2.19922C3.55764 2.48066 3.36379 2.92661 3.24186 3.54883C2.99257 4.82173 3.10613 6.39636 3.10612 7.84375C3.10611 10.5632 3.19241 11.9604 3.30046 12.7178C3.35381 13.0915 3.40887 13.2837 3.4489 13.3887C3.4787 13.4667 3.50076 13.5029 3.54557 13.5781C3.67629 13.7182 3.77228 13.8171 3.87565 13.9268C3.93598 13.9908 3.99793 14.0609 4.05827 14.1338H4.15397L4.10612 14.0635L4.10222 14.0576L4.09929 14.0508C4.05925 13.9561 4.01197 13.8586 3.9655 13.7002C3.91895 13.5414 3.87269 13.3217 3.83171 12.9746C3.74979 12.2806 3.68554 11.0697 3.67155 8.80664L3.66862 7.84375L3.653 6.2373C3.64805 5.67713 3.64912 5.10379 3.67546 4.55273C3.72382 3.5414 3.85585 2.58868 4.19108 1.91797ZM5.17741 1.76953C5.08957 1.83227 5.00871 1.91996 4.93229 2.03516C4.72444 2.34898 4.57313 2.84047 4.48015 3.49316C4.29363 4.80274 4.37663 6.43023 4.37663 7.84375C4.37662 10.5654 4.4394 11.9806 4.52018 12.7598C4.56027 13.1462 4.60342 13.3597 4.63932 13.4893C4.66837 13.5939 4.69196 13.6482 4.73015 13.7363C4.82835 13.8812 4.90208 13.9832 4.97722 14.0928C4.98557 14.105 4.9956 14.12 5.00456 14.1338H5.38835L5.35319 14.0518L5.34929 14.042C5.23665 13.6156 5.0817 13.2902 5.08171 7.84375C5.08171 6.82267 5.05116 5.60193 5.08757 4.47949C5.12217 3.41287 5.21955 2.42213 5.46354 1.7666L5.17741 1.76953ZM6.24577 1.75293C6.21799 1.79767 6.18533 1.85605 6.15397 1.93164C6.01351 2.27094 5.91461 2.79399 5.85515 3.46191C5.73674 4.79208 5.78972 6.44904 5.78972 7.84375C5.78971 13.0712 5.9352 13.512 6.02311 13.8271C6.06999 13.9378 6.11432 14.0391 6.15495 14.1338H6.61784L6.60124 14.0361V14.0312C6.55681 13.6108 6.49381 13.2912 6.49382 7.84375C6.49382 6.81738 6.48181 5.59365 6.49675 4.46875C6.51106 3.39144 6.55176 2.3986 6.65104 1.75293H6.24577ZM12.0651 1.95312C12.3216 2.34323 12.4864 2.82329 12.5934 3.34961C12.9401 3.66698 13.3451 3.85108 13.7878 3.83008C14.1757 3.81143 14.3547 3.67807 14.4255 3.55176C14.4896 3.4365 14.4994 3.26555 14.4108 3.05859L14.3669 2.96777C14.3573 2.95024 14.3276 2.9127 14.2604 2.85938C14.1958 2.80814 14.1082 2.75164 13.9997 2.69141C13.7818 2.57064 13.4957 2.44437 13.1794 2.32324C12.8219 2.18642 12.4306 2.06037 12.0651 1.95312Z" fill="white"/>
</svg>
