<svg width="16" height="16" viewBox="0 0 16 16" fill="none" xmlns="http://www.w3.org/2000/svg">
<path fill-rule="evenodd" clip-rule="evenodd" d="M10.0759 0.949219L10.2184 0.952148H10.2204C10.6699 0.971436 11.0443 1.08232 11.3552 1.26562L11.4079 1.27832C11.9483 1.40294 12.7052 1.62492 13.361 1.87598C13.6884 2.00134 13.9982 2.13669 14.2448 2.27344C14.3677 2.34164 14.4802 2.41283 14.5729 2.48633C14.663 2.55783 14.7503 2.64359 14.8044 2.74316C14.9872 3.08056 15.0381 3.46336 14.86 3.78223C14.6786 4.10641 14.304 4.28787 13.8122 4.31152C13.3993 4.33124 13.0251 4.21888 12.6969 4.02734C12.8378 5.26976 12.7555 6.68868 12.7555 7.84375L12.7526 8.80664C12.7333 11.0696 12.6439 12.2821 12.5309 12.9775C12.4744 13.3255 12.4119 13.547 12.3473 13.707C12.2829 13.8667 12.2166 13.9653 12.1618 14.0596L12.1579 14.0654C12.0255 14.2481 11.9704 14.3102 11.7575 14.5361C11.6444 14.6561 11.459 14.7882 11.2594 14.8906C11.0609 14.9924 10.8373 15.0701 10.6462 15.0703H4.36589C4.20455 15.0701 3.96205 14.993 3.73992 14.8926C3.51714 14.7918 3.2962 14.6589 3.18035 14.5361C3.01854 14.3644 2.93846 14.2114 2.85027 14.0596C2.79548 13.9653 2.72919 13.8668 2.66472 13.707C2.60015 13.547 2.53769 13.3256 2.48113 12.9775C2.36815 12.2821 2.27969 11.0705 2.26043 8.80762L2.25652 7.84375C2.25653 6.50989 2.14207 4.82359 2.39519 3.46094C2.522 2.77842 2.7422 2.16762 3.12175 1.71875C3.50368 1.26735 4.04253 0.98426 4.79168 0.952148H4.79363L4.93523 0.949219L7.50554 0.929688L10.0759 0.949219ZM4.19109 1.91797C4.03857 1.99065 3.91649 2.08706 3.81414 2.19922C3.55755 2.48065 3.36383 2.92646 3.24187 3.54883C2.99255 4.82174 3.10614 6.39633 3.10613 7.84375C3.10612 10.5633 3.19241 11.9604 3.30046 12.7178C3.35384 13.0917 3.40887 13.2838 3.4489 13.3887C3.47873 13.4667 3.5007 13.5027 3.54558 13.5781C3.67637 13.7183 3.77222 13.817 3.87566 13.9268C3.93603 13.9909 3.99789 14.0609 4.05828 14.1338H4.15398L4.10613 14.0635L4.10222 14.0576L4.09929 14.0508C4.05924 13.9561 4.012 13.8587 3.9655 13.7002C3.91895 13.5414 3.8727 13.3217 3.83171 12.9746C3.7498 12.2806 3.68555 11.0697 3.67156 8.80664L3.66863 7.84375L3.653 6.2373C3.64806 5.67712 3.64913 5.10379 3.67546 4.55273C3.72383 3.54132 3.8558 2.58869 4.19109 1.91797ZM5.17742 1.76953C5.08948 1.83228 5.0088 1.91985 4.9323 2.03516C4.72438 2.34897 4.57315 2.84034 4.48015 3.49316C4.29362 4.80275 4.37664 6.43021 4.37664 7.84375C4.37663 10.5655 4.43941 11.9806 4.52019 12.7598C4.56029 13.1463 4.60342 13.3597 4.63933 13.4893C4.66839 13.5939 4.69193 13.6481 4.73015 13.7363C4.8284 13.8813 4.90204 13.9831 4.97722 14.0928C4.98561 14.105 4.99558 14.1199 5.00457 14.1338H5.38835L5.3532 14.0518L5.34929 14.042C5.23666 13.6156 5.08171 13.2907 5.08171 7.84375C5.08172 6.82267 5.05117 5.60194 5.08757 4.47949C5.12218 3.4128 5.21952 2.42213 5.46355 1.7666L5.17742 1.76953ZM6.24578 1.75293C6.21797 1.79769 6.18537 1.85595 6.15398 1.93164C6.01348 2.27094 5.91463 2.7939 5.85515 3.46191C5.73674 4.79209 5.78973 6.44903 5.78972 7.84375C5.78971 13.0718 5.9352 13.512 6.02312 13.8271C6.07002 13.9379 6.11431 14.0391 6.15496 14.1338H6.61785L6.60125 14.0361V14.0312C6.55682 13.6108 6.49382 13.2914 6.49382 7.84375C6.49382 6.81738 6.48181 5.59365 6.49675 4.46875C6.51107 3.39141 6.55176 2.3986 6.65105 1.75293H6.24578ZM7.35808 1.7998C7.29397 2.18661 7.25332 2.7519 7.22918 3.42969C7.18106 4.78088 7.20183 6.46795 7.20183 7.84375C7.20183 13.2019 7.26231 13.5705 7.30242 13.9414C7.31429 14.0119 7.32477 14.0756 7.33464 14.1338H7.67644C7.68632 14.0756 7.6968 14.0119 7.70867 13.9414C7.74877 13.5705 7.81023 13.2013 7.81023 7.84375C7.81023 6.46815 7.83101 4.78176 7.78289 3.43066C7.75873 2.75265 7.71811 2.18675 7.65398 1.7998C7.6513 1.78366 7.64812 1.76806 7.64519 1.75293H7.36687C7.36407 1.76806 7.36075 1.7837 7.35808 1.7998ZM8.36101 1.75293C8.46031 2.3986 8.501 3.39143 8.51531 4.46875C8.53024 5.59365 8.51824 6.81738 8.51824 7.84375L8.51531 9.65625C8.5028 13.372 8.4497 13.6633 8.41082 14.0312V14.0352C8.40505 14.0695 8.39863 14.1026 8.39324 14.1338H8.8571C8.89789 14.0388 8.94087 13.9383 8.98796 13.8271C9.07587 13.512 9.22235 13.0724 9.22234 7.84375C9.22234 6.44919 9.27536 4.79202 9.15691 3.46191C9.0974 2.79389 8.9986 2.27094 8.85808 1.93164C8.82665 1.85581 8.79408 1.79776 8.76628 1.75293H8.36101ZM9.54656 1.7666C9.79076 2.42206 9.88966 3.41268 9.92449 4.47949C9.96112 5.60191 9.93034 6.82261 9.93035 7.84375L9.92839 8.80566C9.91091 13.3297 9.76841 13.6421 9.66277 14.042L9.65984 14.0518C9.64787 14.0802 9.6351 14.1074 9.62371 14.1338H10.0075C10.0164 14.1202 10.026 14.1057 10.0348 14.0928C10.1103 13.9828 10.1828 13.8787 10.2819 13.7324C10.3194 13.646 10.3441 13.5926 10.3727 13.4893C10.4086 13.3597 10.4518 13.1464 10.4919 12.7598C10.5727 11.9805 10.6354 10.5653 10.6354 7.84375C10.6354 6.43037 10.7185 4.80268 10.5319 3.49316C10.4389 2.84047 10.2877 2.349 10.0798 2.03516C10.0029 1.9193 9.92121 1.83245 9.83269 1.76953L9.54656 1.7666ZM10.819 1.91797C11.1545 2.58873 11.2882 3.5411 11.3366 4.55273C11.3894 5.65506 11.3425 6.84665 11.3425 7.84375C11.3425 10.5679 11.2805 12.0122 11.196 12.8281C11.1537 13.2362 11.1058 13.4896 11.0563 13.668C11.0068 13.8463 10.9556 13.9494 10.9128 14.0508L10.9079 14.0635L10.8483 14.0244L10.9059 14.0635C10.8897 14.0877 10.8736 14.1112 10.8581 14.1338H10.9538C11.0144 14.0607 11.077 13.9908 11.1374 13.9268C11.2401 13.8177 11.335 13.7198 11.4645 13.5811C11.5106 13.5036 11.5329 13.4678 11.5632 13.3887C11.6032 13.2838 11.6582 13.0917 11.7116 12.7178C11.8196 11.9604 11.9059 10.5632 11.9059 7.84375C11.9059 6.39634 12.0195 4.82174 11.7702 3.54883C11.7131 3.25733 11.6396 3.00406 11.5514 2.78809L11.4675 2.62598C11.4412 2.57284 11.4151 2.51962 11.3913 2.46582C11.331 2.3648 11.2673 2.27528 11.1979 2.19922C11.0952 2.08667 10.9722 1.99075 10.819 1.91797ZM12.0651 1.95312C12.3217 2.34324 12.4864 2.82327 12.5934 3.34961C12.9402 3.66707 13.3449 3.85121 13.7878 3.83008C14.1759 3.81141 14.3548 3.67811 14.4255 3.55176C14.4896 3.4365 14.4994 3.26553 14.4108 3.05859L14.3669 2.96777C14.3574 2.95032 14.3278 2.91286 14.2604 2.85938C14.1958 2.80809 14.1084 2.75171 13.9997 2.69141C13.7818 2.5706 13.4959 2.44442 13.1794 2.32324C12.8218 2.18637 12.4307 2.0604 12.0651 1.95312Z" fill="white"/>
</svg>
