<svg width="16" height="16" viewBox="0 0 16 16" fill="none" xmlns="http://www.w3.org/2000/svg">
<path fill-rule="evenodd" clip-rule="evenodd" d="M9.63 0.55C9.78 0.59 9.93 0.63 10.07 0.69C10.21 0.75 10.34 0.82 10.47 0.91C10.61 1 10.74 1.11 10.86 1.23C10.96 1.33 11.05 1.43 11.13 1.55C11.48 1.55 11.73 1.55 11.88 1.55C12.14 1.55 12.34 1.57 12.5 1.58C12.71 1.61 12.88 1.64 13.02 1.7C13.19 1.76 13.32 1.86 13.42 1.98C13.49 2.07 13.59 2.23 13.63 2.33C13.67 2.45 13.69 2.57 13.69 2.71C13.69 2.87 13.65 3.08 13.55 3.25C13.48 3.37 13.36 3.51 13.22 3.67C13.11 3.78 12.95 3.93 12.76 4.1C12.64 4.2 12.44 4.37 12.15 4.61L11.59 5.08V5.75C11.71 5.75 11.81 5.75 11.88 5.75C12.14 5.75 12.34 5.77 12.5 5.78C12.71 5.81 12.88 5.84 13.02 5.9C13.19 5.96 13.32 6.06 13.42 6.18C13.49 6.27 13.59 6.43 13.63 6.53C13.67 6.65 13.69 6.77 13.69 6.91C13.69 7.07 13.65 7.28 13.55 7.45C13.48 7.57 13.36 7.71 13.22 7.87C13.11 7.98 12.95 8.13 12.76 8.3C12.64 8.4 12.44 8.57 12.15 8.81L11.59 9.28V9.95C11.71 9.95 11.81 9.95 11.88 9.95C12.14 9.95 12.34 9.97 12.5 9.98C12.71 10.01 12.88 10.04 13.02 10.1C13.19 10.16 13.32 10.26 13.42 10.38C13.49 10.47 13.59 10.63 13.63 10.73C13.67 10.85 13.69 10.97 13.69 11.11C13.69 11.27 13.65 11.48 13.55 11.65C13.48 11.77 13.36 11.91 13.22 12.07C13.11 12.18 12.95 12.33 12.76 12.5C12.64 12.6 12.44 12.77 12.15 13.01L11.42 13.63C11.33 13.7 11.23 13.74 11.13 13.75C11.05 13.86 10.96 13.96 10.86 14.06C10.74 14.18 10.61 14.29 10.47 14.38C10.34 14.47 10.21 14.54 10.07 14.6C9.93 14.66 9.78 14.7 9.63 14.74C9.46 14.78 9.28 14.8 9.09 14.8H6.09C5.91 14.8 5.73 14.78 5.56 14.74C5.41 14.7 5.26 14.66 5.12 14.6C4.98 14.54 4.84 14.47 4.72 14.38C4.58 14.29 4.45 14.18 4.33 14.06C4.23 13.96 4.14 13.86 4.06 13.75C3.96 13.74 3.86 13.7 3.77 13.63L3.04 13.01C2.75 12.77 2.55 12.6 2.43 12.5C2.24 12.33 2.08 12.18 1.97 12.07C1.83 11.91 1.71 11.77 1.64 11.65C1.54 11.48 1.5 11.27 1.5 11.11C1.5 10.97 1.52 10.85 1.56 10.73C1.6 10.63 1.7 10.47 1.76 10.38C1.87 10.26 2 10.16 2.17 10.1C2.31 10.04 2.48 10.01 2.69 9.98C2.85 9.97 3.05 9.95 3.31 9.95C3.38 9.95 3.48 9.95 3.59 9.95V9.28L3.04 8.81C2.75 8.57 2.55 8.4 2.43 8.3C2.24 8.13 2.08 7.98 1.97 7.87C1.83 7.71 1.71 7.57 1.64 7.45C1.54 7.28 1.5 7.07 1.5 6.91C1.5 6.77 1.52 6.65 1.56 6.53C1.6 6.43 1.7 6.27 1.76 6.18C1.87 6.06 2 5.96 2.17 5.9C2.31 5.84 2.48 5.81 2.69 5.78C2.85 5.77 3.05 5.75 3.31 5.75C3.38 5.75 3.48 5.75 3.59 5.75V5.08L3.04 4.61C2.75 4.37 2.55 4.2 2.43 4.1C2.24 3.93 2.08 3.78 1.97 3.67C1.83 3.51 1.71 3.37 1.64 3.25C1.54 3.08 1.5 2.87 1.5 2.71C1.5 2.57 1.52 2.45 1.56 2.33C1.6 2.23 1.7 2.07 1.76 1.98C1.87 1.86 2 1.76 2.17 1.7C2.31 1.64 2.48 1.61 2.69 1.58C2.85 1.57 3.05 1.55 3.31 1.55C3.46 1.55 3.71 1.55 4.06 1.55C4.14 1.43 4.23 1.33 4.33 1.23C4.45 1.11 4.58 1 4.72 0.91C4.84 0.82 4.98 0.75 5.12 0.69C5.26 0.63 5.41 0.59 5.56 0.55C5.73 0.51 5.91 0.5 6.09 0.5H9.09C9.28 0.5 9.46 0.51 9.63 0.55ZM11.56 2.55C11.58 2.69 11.59 2.84 11.59 3V3.77C12.33 3.15 12.69 2.81 12.69 2.74C12.69 2.73 12.67 2.64 12.67 2.63C12.61 2.61 12.51 2.59 12.39 2.58C12.26 2.56 12.08 2.55 11.86 2.55C11.79 2.55 11.68 2.55 11.56 2.55ZM11.59 6.75V7.97C12.33 7.35 12.69 7.01 12.69 6.94C12.69 6.93 12.67 6.84 12.67 6.83C12.61 6.81 12.51 6.79 12.39 6.78C12.26 6.76 12.08 6.75 11.86 6.75C11.8 6.75 11.71 6.75 11.59 6.75ZM11.59 10.95V12.17C12.33 11.55 12.69 11.21 12.69 11.14C12.69 11.13 12.67 11.04 12.67 11.03C12.61 11.01 12.51 10.99 12.39 10.98C12.26 10.96 12.08 10.95 11.86 10.95C11.8 10.95 11.71 10.95 11.59 10.95ZM3.59 12.17V10.95C3.48 10.95 3.39 10.95 3.33 10.95C3.1 10.95 2.93 10.96 2.8 10.98C2.68 10.99 2.58 11.01 2.52 11.03C2.52 11.04 2.5 11.13 2.5 11.14C2.5 11.21 2.86 11.55 3.59 12.17ZM3.59 7.97V6.75C3.48 6.75 3.39 6.75 3.33 6.75C3.1 6.75 2.93 6.76 2.8 6.78C2.68 6.79 2.58 6.81 2.52 6.83C2.52 6.84 2.5 6.93 2.5 6.94C2.5 7.01 2.86 7.35 3.59 7.97ZM3.59 3.77V3C3.59 2.84 3.61 2.69 3.63 2.55C3.5 2.55 3.4 2.55 3.33 2.55C3.1 2.55 2.93 2.56 2.8 2.58C2.68 2.59 2.58 2.61 2.52 2.63C2.52 2.64 2.5 2.73 2.5 2.74C2.5 2.81 2.86 3.15 3.59 3.77ZM7.59 4.84C8.17 4.84 8.65 4.37 8.65 3.8C8.65 3.22 8.17 2.75 7.59 2.75C7.01 2.75 6.54 3.22 6.54 3.8C6.54 4.37 7.01 4.84 7.59 4.84ZM7.59 8.7C8.17 8.7 8.65 8.22 8.65 7.65C8.65 7.07 8.17 6.6 7.59 6.6C7.01 6.6 6.54 7.07 6.54 7.65C6.54 8.22 7.01 8.7 7.59 8.7ZM7.59 12.55C8.17 12.55 8.65 12.08 8.65 11.5C8.65 10.92 8.17 10.45 7.59 10.45C7.01 10.45 6.54 10.92 6.54 11.5C6.54 12.08 7.01 12.55 7.59 12.55Z" fill="white"/>
</svg>
