<svg width="16" height="16" viewBox="0 0 16 16" fill="none" xmlns="http://www.w3.org/2000/svg">
<path fill-rule="evenodd" clip-rule="evenodd" d="M7.99998 10.3002C8.85596 10.3002 9.54968 10.9941 9.54978 11.85C9.54978 12.706 8.85602 13.3998 7.99998 13.3998C7.14424 13.3995 6.45018 12.7058 6.45018 11.85C6.45028 10.9943 7.14431 10.3006 7.99998 10.3002ZM7.99998 11.3002C7.69659 11.3006 7.45028 11.5466 7.45018 11.85C7.45018 12.1535 7.69653 12.3995 7.99998 12.3998C8.30374 12.3998 8.54978 12.1538 8.54978 11.85C8.54968 11.5463 8.30367 11.3002 7.99998 11.3002Z" fill="white"/>
<path fill-rule="evenodd" clip-rule="evenodd" d="M7.99998 6.45059C8.85596 6.45059 9.54968 7.14444 9.54978 8.0004C9.54952 8.85621 8.85586 9.5502 7.99998 9.5502C7.14441 9.54984 6.45044 8.85599 6.45018 8.0004C6.45028 7.14467 7.14431 6.45095 7.99998 6.45059ZM7.99998 7.45059C7.69659 7.45095 7.45028 7.69695 7.45018 8.0004C7.45044 8.30371 7.69669 8.54984 7.99998 8.5502C8.30357 8.5502 8.54952 8.30393 8.54978 8.0004C8.54968 7.69673 8.30367 7.45059 7.99998 7.45059Z" fill="white"/>
<path fill-rule="evenodd" clip-rule="evenodd" d="M7.99998 2.60001C8.85596 2.60001 9.54968 3.29386 9.54978 4.14981C9.54978 5.00585 8.85602 5.69962 7.99998 5.69962C7.14424 5.69926 6.45018 5.00563 6.45018 4.14981C6.45028 3.29408 7.14431 2.60036 7.99998 2.60001ZM7.99998 3.60001C7.69659 3.60036 7.45028 3.84637 7.45018 4.14981C7.45018 4.45335 7.69653 4.69926 7.99998 4.69962C8.30374 4.69962 8.54978 4.45357 8.54978 4.14981C8.54968 3.84614 8.30367 3.60001 7.99998 3.60001Z" fill="white"/>
<path fill-rule="evenodd" clip-rule="evenodd" d="M9.75682 0.862701C10.4901 0.937247 11.1274 1.33047 11.5342 1.89981C12.0955 1.89979 12.5594 1.89975 12.9062 1.9379C13.2308 1.97362 13.6378 2.05715 13.876 2.392C13.9802 2.53882 14.0495 2.70678 14.081 2.88223L14.1006 3.05997C14.1135 3.46044 13.8572 3.77915 13.625 4.01993C13.3736 4.28056 13.0036 4.59055 12.5527 4.96915L12.001 5.43204V6.10294C12.3567 6.10522 12.6608 6.1111 12.9062 6.13809C13.2308 6.17383 13.6378 6.25721 13.876 6.59219C13.9803 6.73908 14.0496 6.90688 14.081 7.08243L14.1006 7.26016C14.1135 7.66064 13.8572 7.97934 13.625 8.22012C13.3736 8.48073 13.0035 8.79081 12.5527 9.16934L12.001 9.63223V10.3022C12.3567 10.3044 12.6608 10.3113 12.9062 10.3383C13.2309 10.374 13.6378 10.4573 13.876 10.7924C13.9803 10.9393 14.0496 11.1071 14.081 11.2826L14.1006 11.4604C14.1134 11.8607 13.8572 12.1796 13.625 12.4203C13.3736 12.6809 13.0034 12.9911 12.5527 13.3695L11.8222 13.9828C11.7382 14.0533 11.6377 14.09 11.5361 14.0971C11.0829 14.7332 10.3416 15.1498 9.50096 15.1498H6.50096C5.66015 15.1498 4.91801 14.7335 4.46482 14.0971C4.36336 14.0899 4.2626 14.0533 4.17869 13.9828L3.44822 13.3695C2.99743 12.991 2.62732 12.6809 2.37596 12.4203C2.1438 12.1796 1.88758 11.8607 1.90037 11.4604L1.9199 11.2826C1.95134 11.1072 2.02078 10.9392 2.12498 10.7924C2.363 10.4575 2.77015 10.3741 3.09471 10.3383C3.34024 10.3113 3.64495 10.3044 4.00096 10.3022V9.63321L3.44822 9.16934C2.99748 8.79085 2.6273 8.48071 2.37596 8.22012C2.14378 7.97937 1.88747 7.66051 1.90037 7.26016L1.9199 7.08243C1.95136 6.90695 2.02072 6.73905 2.12498 6.59219C2.36301 6.25726 2.77015 6.17386 3.09471 6.13809C3.34024 6.11107 3.64495 6.10521 4.00096 6.10294V5.43301L3.44822 4.96915C2.99754 4.5907 2.62728 4.28049 2.37596 4.01993C2.14381 3.77919 1.88746 3.46025 1.90037 3.05997L1.9199 2.88223C1.95138 2.70675 2.02069 2.53885 2.12498 2.392C2.36301 2.05706 2.77014 1.97366 3.09471 1.9379C3.44139 1.89974 3.90556 1.89979 4.46678 1.89981C4.92015 1.26501 5.66141 0.850006 6.50096 0.850006H9.50096L9.75682 0.862701ZM6.50096 1.85001C5.67253 1.85001 5.00096 2.52158 5.00096 3.35001V12.6498C5.00096 13.4782 5.67253 14.1498 6.50096 14.1498H9.50096C10.3294 14.1498 11.001 13.4782 11.001 12.6498V3.35001C11.001 2.57335 10.4107 1.93462 9.65428 1.85782L9.50096 1.85001H6.50096ZM4.00096 11.3022C3.66047 11.3044 3.40239 11.3106 3.20408 11.3324C3.0314 11.3515 2.95689 11.3774 2.93162 11.3881C2.91605 11.4151 2.90518 11.4465 2.90232 11.4809C2.91154 11.5008 2.94995 11.5749 3.09568 11.726C3.28802 11.9254 3.58078 12.1736 4.00096 12.5268V11.3022ZM12.001 12.5268C12.4209 12.1738 12.7129 11.9253 12.9053 11.726C13.0504 11.5754 13.0892 11.5012 13.0986 11.4809C13.0957 11.4464 13.085 11.4151 13.0693 11.3881C13.0439 11.3774 12.9696 11.3514 12.7969 11.3324C12.5986 11.3106 12.3412 11.3044 12.001 11.3022V12.5268ZM4.00096 7.10196C3.66047 7.10423 3.40239 7.11041 3.20408 7.13223C3.03138 7.15128 2.95689 7.17721 2.93162 7.1879C2.916 7.21492 2.90519 7.24621 2.90232 7.28067C2.91151 7.30055 2.94998 7.37467 3.09568 7.52579C3.288 7.72517 3.58084 7.97342 4.00096 8.32657V7.10196ZM12.001 8.32657C12.4209 7.97357 12.713 7.72513 12.9053 7.52579C13.0509 7.37475 13.0893 7.30069 13.0986 7.28067C13.0957 7.24614 13.085 7.21496 13.0693 7.1879C13.0438 7.17715 12.9694 7.15123 12.7969 7.13223C12.5986 7.11043 12.3412 7.10423 12.001 7.10196V8.32657ZM4.04295 2.90176C3.68154 2.90374 3.41046 2.90932 3.20408 2.93204C3.03137 2.95109 2.95689 2.97701 2.93162 2.9877C2.91597 3.01472 2.90522 3.04602 2.90232 3.08047C2.91151 3.10035 2.95008 3.17456 3.09568 3.32559C3.28798 3.52496 3.58091 3.77328 4.00096 4.12637V3.35001C4.00096 3.19687 4.01658 3.0473 4.04295 2.90176ZM11.959 2.90176C11.9853 3.0473 12.001 3.19688 12.001 3.35001V4.12637C12.4209 3.77336 12.713 3.52493 12.9053 3.32559C13.0511 3.17433 13.0894 3.10036 13.0986 3.08047C13.0957 3.04604 13.085 3.01471 13.0693 2.9877C13.0437 2.97693 12.9692 2.95102 12.7969 2.93204C12.5906 2.90935 12.3201 2.90374 11.959 2.90176Z" fill="white"/>
</svg>
