<svg width="16" height="16" viewBox="0 0 16 16" fill="none" xmlns="http://www.w3.org/2000/svg">
<path fill-rule="evenodd" clip-rule="evenodd" d="M7.12617 1C6.06302 1 5.20117 1.86185 5.20117 2.925V8.875C5.20117 9.93815 6.06302 10.8 7.12617 10.8H7.66177C7.7643 10.4285 7.91326 10.0763 8.10202 9.75H7.12617C6.64292 9.75 6.25117 9.35825 6.25117 8.875V2.925C6.25117 2.44175 6.64292 2.05 7.12617 2.05H13.0762C13.5594 2.05 13.9512 2.44175 13.9512 2.925V7.94386C14.3345 8.1286 14.6876 8.36608 15.0012 8.64689V2.925C15.0012 1.86185 14.1393 1 13.0762 1H7.12617ZM7.94325 13.9499C8.12713 14.3318 8.36335 14.6837 8.6426 14.9964C8.6037 14.9987 8.56449 14.9999 8.525 14.9999H2.925C1.86185 14.9999 1 14.1381 1 13.0749V7.4749C1 6.41176 1.86185 5.5499 2.925 5.5499H5.20039V6.5999H2.925C2.44175 6.5999 2.05 6.99165 2.05 7.4749V13.0749C2.05 13.5582 2.44175 13.9499 2.925 13.9499H7.94325ZM7.60171 11.0442C7.53509 11.3522 7.5 11.672 7.5 12C7.5 12.3579 7.54179 12.7061 7.62076 13.0399H7.3987L6.8828 11.7617H4.4111L3.9029 13.0399H2.925L5.1118 7.6499H5.20039L5.20117 8.875C5.20117 9.09618 5.23769 9.30892 5.30635 9.50673L4.7576 10.8762H6.5286L6.44926 10.6782C6.65962 10.7571 6.88824 10.8 7.12617 10.8L7.50136 10.8003L7.60171 11.0442ZM12.5337 7.53131C12.6512 7.43503 12.7262 7.28877 12.7262 7.125V4.675C12.7262 4.38505 12.4911 4.15 12.2012 4.15C11.9112 4.15 11.6762 4.38505 11.6762 4.675V7.125C11.6762 7.2734 11.7377 7.40742 11.8367 7.50291C11.8909 7.50097 11.9453 7.5 12 7.5C12.1806 7.5 12.3587 7.51064 12.5337 7.53131ZM10.6262 7.71357V3.8C10.6262 3.51005 10.3911 3.275 10.1012 3.275C9.81122 3.275 9.57617 3.51005 9.57617 3.8V8C9.57617 8.06561 9.58821 8.12842 9.61019 8.18632C9.9248 7.98876 10.2656 7.82904 10.6262 7.71357ZM8.00117 4.15C8.29112 4.15 8.52617 4.38505 8.52617 4.675V7.125C8.52617 7.41495 8.29112 7.65 8.00117 7.65C7.71122 7.65 7.47617 7.41495 7.47617 7.125V4.675C7.47617 4.38505 7.71122 4.15 8.00117 4.15Z" fill="white"/>
<path fill-rule="evenodd" clip-rule="evenodd" d="M12 15.75C14.0711 15.75 15.75 14.0711 15.75 12C15.75 9.92893 14.0711 8.25 12 8.25C9.92893 8.25 8.25 9.92893 8.25 12C8.25 14.0711 9.92893 15.75 12 15.75ZM10.8008 10.3062C10.6641 10.1695 10.4425 10.1695 10.3058 10.3062C10.1691 10.4428 10.1691 10.6644 10.3058 10.8011L11.5047 12L10.3058 13.1989C10.1691 13.3356 10.1691 13.5572 10.3058 13.6938C10.4425 13.8305 10.6641 13.8305 10.8008 13.6938L11.9996 12.495L13.1985 13.6938C13.3352 13.8305 13.5568 13.8305 13.6935 13.6938C13.8302 13.5572 13.8302 13.3356 13.6935 13.1989L12.4946 12L13.6935 10.8011C13.8302 10.6644 13.8302 10.4428 13.6935 10.3062C13.5568 10.1695 13.3352 10.1695 13.1985 10.3062L11.9996 11.505L10.8008 10.3062Z" fill="white"/>
</svg>
