<svg width="16" height="16" viewBox="0 0 16 16" fill="none" xmlns="http://www.w3.org/2000/svg">
<path fill-rule="evenodd" clip-rule="evenodd" d="M5.19805 2.925C5.19805 1.86185 6.0599 1 7.12304 1H13.073C14.1362 1 14.998 1.86185 14.998 2.925V8.875C14.998 9.93815 14.1362 10.8 13.073 10.8H7.12305C6.88611 10.8 6.65917 10.7572 6.44954 10.6789L6.5286 10.8762H4.7576L5.30514 9.50972C5.23576 9.31099 5.19805 9.0974 5.19805 8.875V7.6499H5.1118L2.925 13.0399H3.9029L4.4111 11.7617H6.8828L7.3987 13.0399H8.4228L7.50132 10.8002H10.45V13.0749C10.45 14.138 9.58815 14.9999 8.525 14.9999H2.925C1.86185 14.9999 1 14.138 1 13.0749V7.4749C1 6.41175 1.86185 5.5499 2.925 5.5499H5.19805V2.925ZM7.12304 2.05C6.6398 2.05 6.24804 2.44175 6.24804 2.925V8.875C6.24804 9.35825 6.6398 9.75 7.12305 9.75H13.073C13.5563 9.75 13.948 9.35825 13.948 8.875V2.925C13.948 2.44175 13.5563 2.05 13.073 2.05H7.12304ZM10.0973 3.2751C10.3872 3.2751 10.6223 3.51015 10.6223 3.8001V8.0001C10.6223 8.29005 10.3872 8.5251 10.0973 8.5251C9.80731 8.5251 9.57226 8.29005 9.57226 8.0001V3.8001C9.57226 3.51015 9.80731 3.2751 10.0973 3.2751ZM12.1973 4.1501C12.4872 4.1501 12.7223 4.38515 12.7223 4.6751V7.1251C12.7223 7.41505 12.4872 7.6501 12.1973 7.6501C11.9073 7.6501 11.6723 7.41505 11.6723 7.1251V4.6751C11.6723 4.38515 11.9073 4.1501 12.1973 4.1501ZM8.52226 4.6751C8.52226 4.38515 8.28721 4.1501 7.99726 4.1501C7.70732 4.1501 7.47226 4.38515 7.47226 4.6751V7.1251C7.47226 7.41505 7.70732 7.6501 7.99726 7.6501C8.28721 7.6501 8.52226 7.41505 8.52226 7.1251V4.6751Z" fill="white"/>
</svg>
