<svg width="16" height="16" viewBox="0 0 16 16" fill="none" xmlns="http://www.w3.org/2000/svg">
<path fill-rule="evenodd" clip-rule="evenodd" d="M5.20117 2.925C5.20117 1.86185 6.06302 1 7.12617 1H13.0762C14.1393 1 15.0012 1.86185 15.0012 2.925V8.875C15.0012 9.93815 14.1393 10.8 13.0762 10.8H7.12617C6.06302 10.8 5.20117 9.93815 5.20117 8.875V2.925ZM7.12617 2.05C6.64292 2.05 6.25117 2.44175 6.25117 2.925V8.875C6.25117 9.35825 6.64292 9.75 7.12617 9.75H13.0762C13.5594 9.75 13.9512 9.35825 13.9512 8.875V2.925C13.9512 2.44175 13.5594 2.05 13.0762 2.05H7.12617ZM10.1012 3.275C10.3911 3.275 10.6262 3.51005 10.6262 3.8V8C10.6262 8.28995 10.3911 8.525 10.1012 8.525C9.81122 8.525 9.57617 8.28995 9.57617 8V3.8C9.57617 3.51005 9.81122 3.275 10.1012 3.275ZM12.2012 4.15C12.4911 4.15 12.7262 4.38505 12.7262 4.675V7.125C12.7262 7.41495 12.4911 7.65 12.2012 7.65C11.9112 7.65 11.6762 7.41495 11.6762 7.125V4.675C11.6762 4.38505 11.9112 4.15 12.2012 4.15ZM8.52617 4.675C8.52617 4.38505 8.29112 4.15 8.00117 4.15C7.71122 4.15 7.47617 4.38505 7.47617 4.675V7.125C7.47617 7.41495 7.71122 7.65 8.00117 7.65C8.29112 7.65 8.52617 7.41495 8.52617 7.125V4.675ZM2.925 5.5499H5.20039V6.5999H2.925C2.44175 6.5999 2.05 6.99165 2.05 7.4749V13.0749C2.05 13.5582 2.44175 13.9499 2.925 13.9499H8.525C9.00825 13.9499 9.4 13.5582 9.4 13.0749V10.8003H10.45V13.0749C10.45 14.138 9.58815 14.9999 8.525 14.9999H2.925C1.86185 14.9999 1 14.138 1 13.0749V7.4749C1 6.41176 1.86185 5.5499 2.925 5.5499ZM5.1118 7.6499H5.20039L5.20117 8.875C5.20117 9.09618 5.23769 9.30892 5.30635 9.50673L4.7576 10.8762H6.5286L6.44926 10.6782C6.65962 10.7571 6.88824 10.8 7.12617 10.8L7.50136 10.8003L8.4228 13.0399H7.3987L6.8828 11.7617H4.4111L3.9029 13.0399H2.925L5.1118 7.6499Z" fill="white"/>
</svg>
