<svg width="16" height="16" viewBox="0 0 16 16" fill="none" xmlns="http://www.w3.org/2000/svg">
<path fill-rule="evenodd" clip-rule="evenodd" d="M7.12304 1C6.0599 1 5.19805 1.86185 5.19805 2.925V5.5499H2.925C1.86185 5.5499 1 6.41175 1 7.4749V13.0749C1 14.138 1.86185 14.9999 2.925 14.9999H8.525C8.56449 14.9999 8.6037 14.9987 8.64259 14.9964C8.153 14.4482 7.79567 13.7793 7.62076 13.0399H7.3987L6.8828 11.7617H4.4111L3.9029 13.0399H2.925L5.1118 7.6499H5.19805V8.875C5.19805 9.0974 5.23576 9.31099 5.30514 9.50972L4.7576 10.8762H6.5286L6.44954 10.6789C6.65917 10.7572 6.88611 10.8 7.12305 10.8H7.66177C7.7643 10.4285 7.91326 10.0763 8.10202 9.75H7.12305C6.6398 9.75 6.24804 9.35825 6.24804 8.875V2.925C6.24804 2.44175 6.6398 2.05 7.12304 2.05H13.073C13.5563 2.05 13.948 2.44175 13.948 2.925V7.94236C14.3313 8.1267 14.6844 8.36374 14.998 8.64409V2.925C14.998 1.86185 14.1362 1 13.073 1H7.12304ZM12.5304 7.53092C12.6475 7.43464 12.7223 7.2886 12.7223 7.1251V4.6751C12.7223 4.38515 12.4872 4.1501 12.1973 4.1501C11.9073 4.1501 11.6723 4.38515 11.6723 4.6751V7.1251C11.6723 7.27352 11.7339 7.40756 11.8329 7.50305C11.8883 7.50102 11.944 7.5 12 7.5C12.1794 7.5 12.3564 7.5105 12.5304 7.53092ZM10.6223 7.71482V3.8001C10.6223 3.51015 10.3872 3.2751 10.0973 3.2751C9.80731 3.2751 9.57226 3.51015 9.57226 3.8001V8.0001C9.57226 8.06643 9.58457 8.12989 9.60701 8.18832C9.92137 7.99055 10.2619 7.83059 10.6223 7.71482ZM7.66177 10.8L7.50132 10.8002L7.60171 11.0442C7.61949 10.962 7.63957 10.8805 7.66177 10.8ZM7.99726 4.1501C8.28721 4.1501 8.52226 4.38515 8.52226 4.6751V7.1251C8.52226 7.41505 8.28721 7.6501 7.99726 7.6501C7.70732 7.6501 7.47226 7.41505 7.47226 7.1251V4.6751C7.47226 4.38515 7.70732 4.1501 7.99726 4.1501Z" fill="white"/>
<path fill-rule="evenodd" clip-rule="evenodd" d="M12 15.75C14.0711 15.75 15.75 14.0711 15.75 12C15.75 9.92893 14.0711 8.25 12 8.25C9.92893 8.25 8.25 9.92893 8.25 12C8.25 14.0711 9.92893 15.75 12 15.75ZM10.8008 10.3062C10.6641 10.1695 10.4425 10.1695 10.3058 10.3062C10.1691 10.4428 10.1691 10.6644 10.3058 10.8011L11.5047 12L10.3058 13.1989C10.1691 13.3356 10.1691 13.5572 10.3058 13.6938C10.4425 13.8305 10.6641 13.8305 10.8008 13.6938L11.9996 12.495L13.1985 13.6938C13.3352 13.8305 13.5568 13.8305 13.6935 13.6938C13.8302 13.5572 13.8302 13.3356 13.6935 13.1989L12.4946 12L13.6935 10.8011C13.8302 10.6644 13.8302 10.4428 13.6935 10.3062C13.5568 10.1695 13.3352 10.1695 13.1985 10.3062L11.9996 11.505L10.8008 10.3062Z" fill="white"/>
</svg>
