<svg width="16" height="16" viewBox="0 0 16 16" fill="none" xmlns="http://www.w3.org/2000/svg">
<path fill-rule="evenodd" clip-rule="evenodd" d="M6.55797 1.5C6.08585 1.5 5.70415 1.49999 5.39138 1.52317C5.06813 1.54713 4.78393 1.59759 4.51189 1.71598C4.07423 1.90645 3.69745 2.21373 3.42283 2.60413C3.25214 2.84679 3.14554 3.11503 3.05705 3.42685C2.97755 3.70702 2.90567 4.04942 2.81977 4.46719H2.275C1.98505 4.46719 1.75 4.70224 1.75 4.99219C1.75 5.28214 1.98505 5.51719 2.275 5.51719H2.60415L2.51458 5.95335C2.27177 6.10228 2.07397 6.31572 1.94394 6.57092C1.84482 6.76546 1.8078 6.96825 1.79097 7.17426C1.77498 7.36987 1.77499 7.60772 1.775 7.88515L1.775 12.0331H1.75481V13.2828C1.75481 13.9536 2.29854 14.4973 2.96927 14.4973C3.64 14.4973 4.18374 13.9536 4.18374 13.2828V12.3571H11.8172V13.283C11.8172 13.9537 12.361 14.4974 13.0317 14.4974C13.7024 14.4974 14.2461 13.9537 14.2461 13.283V12.0332H14.2257V7.88514C14.2257 7.60776 14.2257 7.36984 14.2097 7.17426C14.1929 6.96825 14.1558 6.76546 14.0567 6.57092C13.9268 6.31603 13.7294 6.10279 13.4869 5.95389L13.3973 5.51719H13.7259C14.0158 5.51719 14.2509 5.28214 14.2509 4.99219C14.2509 4.70224 14.0158 4.46719 13.7259 4.46719H13.1816C13.0957 4.04942 13.0239 3.70702 12.9444 3.42685C12.8559 3.11503 12.7493 2.84679 12.5786 2.60413C12.304 2.21373 11.9272 1.90645 11.4895 1.71598C11.2175 1.59759 10.9333 1.54713 10.61 1.52317C10.2973 1.49999 9.91557 1.5 9.44345 1.5H6.55797ZM4.91094 2.63291C5.03975 2.57685 5.20009 2.54009 5.46529 2.52044C5.73677 2.50032 6.08139 2.5 6.57697 2.5H9.42444C9.92002 2.5 10.2646 2.50032 10.5361 2.52044C10.8013 2.54009 10.9617 2.57685 11.0905 2.63291C11.3598 2.75013 11.5917 2.93922 11.7607 3.17947C11.8415 3.29437 11.9098 3.44404 11.9823 3.69986C12.0567 3.96174 12.1263 4.29925 12.226 4.7847L12.4189 5.72437H3.58247L3.77543 4.78471C3.87512 4.29926 3.94475 3.96174 4.01907 3.69986C4.09166 3.44404 4.15993 3.29437 4.24075 3.17947C4.40974 2.93922 4.64161 2.75013 4.91094 2.63291ZM3.07531 6.78456C3.10537 6.76923 3.16191 6.74903 3.30608 6.73725C3.45608 6.725 3.65272 6.72461 3.955 6.72461H12.0457C12.3479 6.72461 12.5446 6.725 12.6946 6.73725C12.8387 6.74903 12.8953 6.76923 12.9253 6.78456C13.0288 6.83729 13.113 6.92143 13.1657 7.02491C13.181 7.05498 13.2012 7.11152 13.213 7.25569C13.2253 7.40569 13.2257 7.60233 13.2257 7.90461V11.3571H2.775V7.90461C2.775 7.60233 2.77539 7.40569 2.78764 7.25569C2.79942 7.11152 2.81963 7.05498 2.83495 7.02491C2.88768 6.92143 2.97182 6.83729 3.07531 6.78456ZM12.1642 9.21674C12.1642 9.8 11.6982 10.2728 11.1233 10.2728C10.5483 10.2728 10.0823 9.8 10.0823 9.21674C10.0823 8.63347 10.5483 8.16064 11.1233 8.16064C11.6982 8.16064 12.1642 8.63347 12.1642 9.21674ZM4.87767 10.2728C5.45258 10.2728 5.91864 9.8 5.91864 9.21674C5.91864 8.63347 5.45258 8.16064 4.87767 8.16064C4.30276 8.16064 3.8367 8.63347 3.8367 9.21674C3.8367 9.8 4.30276 10.2728 4.87767 10.2728Z" fill="white"/>
</svg>
