<svg width="16" height="16" viewBox="0 0 16 16" fill="none" xmlns="http://www.w3.org/2000/svg">
<path fill-rule="evenodd" clip-rule="evenodd" d="M6.55794 1.5C6.08583 1.5 5.70413 1.49999 5.39135 1.52317C5.0681 1.54713 4.7839 1.59759 4.51187 1.71598C4.07421 1.90645 3.69742 2.21373 3.42281 2.60413C3.25212 2.84679 3.14552 3.11503 3.05703 3.42685C2.97751 3.70706 2.90562 4.0495 2.81971 4.46734H2.275C1.98505 4.46734 1.75 4.70239 1.75 4.99234C1.75 5.28229 1.98505 5.51734 2.275 5.51734H2.60409L2.52155 5.91926C2.26783 6.07094 2.06125 6.29141 1.9264 6.55607C1.75474 6.89298 1.75474 7.33402 1.75474 8.2161V13.2826C1.75474 13.9534 2.29847 14.4971 2.9692 14.4971C3.63993 14.4971 4.18366 13.9534 4.18366 13.2826V12.3846H11.8175V13.2826C11.8175 13.9534 12.3612 14.4971 13.0319 14.4971C13.7027 14.4971 14.2464 13.9534 14.2464 13.2826L14.2464 8.2161C14.2464 7.33402 14.2464 6.89298 14.0747 6.55607C13.9399 6.29152 13.7334 6.07112 13.4799 5.91945L13.3973 5.51734H13.7259C14.0159 5.51734 14.2509 5.28229 14.2509 4.99234C14.2509 4.70239 14.0159 4.46734 13.7259 4.46734H13.1817C13.0957 4.0495 13.0239 3.70706 12.9443 3.42685C12.8559 3.11503 12.7493 2.84679 12.5786 2.60413C12.3039 2.21373 11.9272 1.90645 11.4895 1.71598C11.2175 1.59759 10.9333 1.54713 10.61 1.52317C10.2972 1.49999 9.91555 1.5 9.44343 1.5H6.55794ZM12.4141 5.70083L12.226 4.7847C12.1263 4.29925 12.0566 3.96174 11.9823 3.69985C11.9097 3.44403 11.8415 3.29437 11.7606 3.17946C11.5917 2.93922 11.3598 2.75012 11.0905 2.63291C10.9616 2.57685 10.8013 2.54009 10.5361 2.52044C10.2646 2.50032 9.92 2.5 9.42443 2.5H6.57694C6.08136 2.5 5.73675 2.50032 5.46526 2.52044C5.20007 2.54009 5.03973 2.57685 4.91092 2.63291C4.64159 2.75012 4.40972 2.93922 4.24072 3.17946C4.1599 3.29437 4.09164 3.44403 4.01904 3.69985C3.94472 3.96174 3.87509 4.29925 3.7754 4.7847L3.58727 5.70082C3.78242 5.6961 4.00849 5.6961 4.27474 5.6961H11.7264C11.9927 5.6961 12.2189 5.6961 12.4141 5.70083ZM11.1233 10.2724C11.6983 10.2724 12.1643 9.79962 12.1643 9.21636C12.1643 8.6331 11.6983 8.16027 11.1233 8.16027C10.5484 8.16027 10.0824 8.6331 10.0824 9.21636C10.0824 9.79962 10.5484 10.2724 11.1233 10.2724ZM5.9187 9.21636C5.9187 9.79962 5.45265 10.2724 4.87774 10.2724C4.30282 10.2724 3.83677 9.79962 3.83677 9.21636C3.83677 8.6331 4.30282 8.16027 4.87774 8.16027C5.45265 8.16027 5.9187 8.6331 5.9187 9.21636Z" fill="white"/>
</svg>
