<svg width="16" height="16" viewBox="0 0 16 16" fill="none" xmlns="http://www.w3.org/2000/svg">
<path d="M13.7383 1.64651C13.9335 1.45125 14.2501 1.45125 14.4453 1.64651C14.6406 1.84177 14.6406 2.15828 14.4453 2.35354L2.56641 14.2324C2.37114 14.4277 2.05366 14.4277 1.8584 14.2324C1.66361 14.0372 1.66331 13.7205 1.8584 13.5254L3.60352 11.7803H2.40039C1.91035 11.7803 1.66471 11.78 1.47754 11.6846C1.31315 11.6008 1.17956 11.4671 1.0957 11.3028C1.00033 11.1156 1 10.87 1 10.3799V3.90041C1 3.41037 1.00033 3.16474 1.0957 2.97756C1.17955 2.81316 1.31314 2.67958 1.47754 2.59573C1.66471 2.50036 1.91034 2.50002 2.40039 2.50002H12.8848L13.7383 1.64651Z" fill="white"/>
<path d="M13.6006 13.5H4.70703L5.71289 12.4942H13.6006V13.5Z" fill="white"/>
<path d="M14.9775 3.22952C14.9998 3.38919 15 3.59851 15 3.90041V10.3799C15 10.87 14.9997 11.1156 14.9043 11.3028C14.8204 11.4671 14.6868 11.6008 14.5225 11.6846C14.3353 11.78 14.0897 11.7803 13.5996 11.7803H6.42676L14.9775 3.22952Z" fill="white"/>
</svg>
