<svg width="16" height="16" viewBox="0 0 16 16" fill="none" xmlns="http://www.w3.org/2000/svg">
<path fill-rule="evenodd" clip-rule="evenodd" d="M14.2706 2.52231C14.1109 2.5 13.902 2.5 13.6 2.5H2.4C1.90995 2.5 1.66493 2.5 1.47776 2.59537C1.31312 2.67926 1.17926 2.81312 1.09537 2.97776C1 3.16493 1 3.40995 1 3.9V10.3802C1 10.8702 1 11.1153 1.09537 11.3024C1.17926 11.4671 1.31312 11.6009 1.47776 11.6848C1.66493 11.7802 1.90995 11.7802 2.4 11.7802H5.01271L14.2706 2.52231ZM4.29879 12.4941H3.0001V13.5H3.29289L4.29879 12.4941ZM4.70711 13.5L5.713 12.4941H13.6004V13.5H4.70711ZM6.42692 11.7802L14.9777 3.22942C15 3.38911 15 3.59804 15 3.9V10.3802C15 10.8702 15 11.1153 14.9046 11.3024C14.8207 11.4671 14.6869 11.6009 14.5222 11.6848C14.3351 11.7802 14.09 11.7802 13.6 11.7802H6.42692Z" fill="white"/>
<path fill-rule="evenodd" clip-rule="evenodd" d="M14.4454 1.64645C14.6406 1.84171 14.6406 2.15829 14.4454 2.35355L2.56596 14.2329C2.37069 14.4282 2.05411 14.4282 1.85885 14.2329C1.66359 14.0377 1.66359 13.7211 1.85885 13.5258L13.7382 1.64645C13.9335 1.45118 14.2501 1.45118 14.4454 1.64645Z" fill="white"/>
</svg>
