<svg width="16" height="16" viewBox="0 0 16 16" fill="none" xmlns="http://www.w3.org/2000/svg">
<path fill-rule="evenodd" clip-rule="evenodd" d="M14.2925 2.50043C14.2681 2.49998 14.245 2.49999 14.2256 2.5H1.77086C1.73051 2.49998 1.67469 2.49994 1.62435 2.50405C1.56425 2.50896 1.46952 2.52214 1.36857 2.57358C1.24156 2.63829 1.13829 2.74156 1.07358 2.86856C1.02214 2.96952 1.00896 3.06425 1.00405 3.12435C0.99994 3.17469 0.999977 3.23051 1 3.27086V10.9659C0.999977 11.0062 0.99994 11.0621 1.00405 11.1124C1.00896 11.1725 1.02214 11.2672 1.07358 11.3682C1.13829 11.4952 1.24156 11.5985 1.36857 11.6632C1.46952 11.7146 1.56425 11.7278 1.62435 11.7327C1.67469 11.7368 1.73052 11.7368 1.77087 11.7367L5.05615 11.7367L6.05615 10.7367H2.00001V3.50001H13.2929L14.2925 2.50043ZM7.47036 10.7367H13.9964V4.2107L14.9961 3.211C14.9964 3.23274 14.9964 3.25327 14.9964 3.27086V10.9659C14.9964 11.0062 14.9965 11.0621 14.9924 11.1124C14.9875 11.1725 14.9743 11.2672 14.9228 11.3682C14.8581 11.4952 14.7549 11.5985 14.6279 11.6632C14.5269 11.7146 14.4322 11.7278 14.3721 11.7327C14.3217 11.7368 14.2659 11.7368 14.2256 11.7367L6.47036 11.7367L7.47036 10.7367ZM4.30224 12.4907H2.9261V13.4969H3.29599L4.30224 12.4907ZM4.7102 13.4969L5.71645 12.4907H13.6194V13.4969H4.7102Z" fill="white"/>
<path fill-rule="evenodd" clip-rule="evenodd" d="M14.4454 1.64645C14.6406 1.84171 14.6406 2.15829 14.4454 2.35355L2.56596 14.2329C2.37069 14.4282 2.05411 14.4282 1.85885 14.2329C1.66359 14.0377 1.66359 13.7211 1.85885 13.5258L13.7382 1.64645C13.9335 1.45118 14.2501 1.45118 14.4454 1.64645Z" fill="white"/>
</svg>
