<svg width="16" height="16" viewBox="0 0 16 16" fill="none" xmlns="http://www.w3.org/2000/svg">
<path fill-rule="evenodd" clip-rule="evenodd" d="M13.7383 1.64651C13.9336 1.45125 14.2501 1.45125 14.4453 1.64651C14.6406 1.84177 14.6406 2.15828 14.4453 2.35354L2.56641 14.2324C2.37115 14.4277 2.05367 14.4277 1.85841 14.2324C1.66363 14.0372 1.66333 13.7205 1.85841 13.5254L3.64747 11.7364H1.77052C1.7302 11.7364 1.67422 11.7365 1.62403 11.7324C1.56391 11.7275 1.46892 11.7144 1.36817 11.6631C1.24132 11.5984 1.13791 11.4951 1.07325 11.3682C1.02187 11.2673 1.00882 11.1724 1.00391 11.1123C0.999807 11.062 0.999981 11.0062 1.00001 10.9658V3.27053C0.999981 3.23021 0.999812 3.17425 1.00391 3.12405C1.00884 3.06393 1.02189 2.96898 1.07325 2.86819C1.13794 2.74131 1.24131 2.63796 1.36817 2.57327C1.46894 2.52192 1.56391 2.50886 1.62403 2.50393C1.67422 2.49983 1.7302 2.5 1.77052 2.50002H12.8848L13.7383 1.64651ZM2.00001 3.50002V10.7364H4.64747L11.8848 3.50002H2.00001Z" fill="white"/>
<path d="M13.6191 13.4971H4.70997L5.71681 12.4903H13.6191V13.4971Z" fill="white"/>
<path d="M14.9961 10.9658C14.9961 11.0062 14.9963 11.062 14.9922 11.1123C14.9873 11.1724 14.9743 11.2672 14.9229 11.3682C14.8582 11.4952 14.7549 11.5984 14.6279 11.6631C14.527 11.7145 14.4322 11.7275 14.3721 11.7324C14.3217 11.7366 14.2659 11.7364 14.2256 11.7364H6.47071L7.47071 10.7364H13.9961V4.21096L14.9961 3.21096V10.9658Z" fill="white"/>
</svg>
