<svg width="16" height="16" viewBox="0 0 16 16" fill="none" xmlns="http://www.w3.org/2000/svg">
<path fill-rule="evenodd" clip-rule="evenodd" d="M1 3.9C1 3.40995 1 3.16493 1.09537 2.97776C1.17926 2.81312 1.31312 2.67926 1.47776 2.59537C1.66493 2.5 1.90995 2.5 2.4 2.5H13.6C14.09 2.5 14.3351 2.5 14.5222 2.59537C14.6869 2.67926 14.8207 2.81312 14.9046 2.97776C15 3.16493 15 3.40995 15 3.9V10.3802C15 10.8702 15 11.1153 14.9046 11.3024C14.8207 11.4671 14.6869 11.6009 14.5222 11.6848C14.3351 11.7802 14.09 11.7802 13.6 11.7802H2.4C1.90995 11.7802 1.66493 11.7802 1.47776 11.6848C1.31312 11.6009 1.17926 11.4671 1.09537 11.3024C1 11.1153 1 10.8702 1 10.3802V3.9ZM2.40039 12.4941H13.6004V13.5H2.40039V12.4941ZM9.975 7.55311C10.2083 7.41839 10.2083 7.08161 9.975 6.94689L6.9 5.17154C6.66667 5.03682 6.375 5.20522 6.375 5.47465V9.02535C6.375 9.29478 6.66667 9.46318 6.9 9.32846L9.975 7.55311Z" fill="white"/>
</svg>
