<svg width="16" height="16" viewBox="0 0 16 16" fill="none" xmlns="http://www.w3.org/2000/svg">
<path fill-rule="evenodd" clip-rule="evenodd" d="M1 3.9C1 3.40995 1 3.16493 1.09537 2.97776C1.17926 2.81312 1.31312 2.67926 1.47776 2.59537C1.66493 2.5 1.90995 2.5 2.4 2.5H13.6C14.09 2.5 14.3351 2.5 14.5222 2.59537C14.6869 2.67926 14.8207 2.81312 14.9046 2.97776C15 3.16493 15 3.40995 15 3.9V10.3802C15 10.8702 15 11.1153 14.9046 11.3024C14.8207 11.4671 14.6869 11.6009 14.5222 11.6848C14.3351 11.7802 14.09 11.7802 13.6 11.7802H2.4C1.90995 11.7802 1.66493 11.7802 1.47776 11.6848C1.31312 11.6009 1.17926 11.4671 1.09537 11.3024C1 11.1153 1 10.8702 1 10.3802V3.9ZM2.40039 12.4941H13.6004V13.5H2.40039V12.4941ZM9.72644 7.53276C10.2861 7.52452 10.8626 7.51628 10.9983 7.73063L10.9814 7.73887C10.86 8.19784 10.6274 8.62188 10.303 8.97554C10.2776 9.01264 10.2479 9.0044 10.2479 8.97554C10.2677 8.91661 10.2677 8.8531 10.2479 8.79416C10.1674 8.6334 9.9257 8.5963 9.58229 8.5963H9.15834L9.15087 8.59654C8.39237 8.62127 7.31543 8.65637 6.42381 8.12224C6.12494 7.96377 5.86676 7.74169 5.66855 7.47258C5.47033 7.20348 5.33721 6.89431 5.27913 6.56817C5.23588 6.25918 5.2653 5.94469 5.36517 5.64836C5.46505 5.35204 5.63277 5.08161 5.85571 4.85745C6.05264 4.67002 6.27349 4.50793 6.51284 4.37515C6.97635 4.12703 7.49727 3.99792 8.02637 4.00003C7.72168 4.06796 7.43593 4.19982 7.18914 4.38638C6.94235 4.57293 6.74047 4.80968 6.59764 5.08005C6.49353 5.30047 6.44499 5.54186 6.45605 5.78418C6.46711 6.0265 6.53745 6.26276 6.66123 6.47335C6.91136 6.88558 7.5049 7.42146 8.9082 7.53276H9.72644ZM9.16889 9.74572L9.16932 9.74795L9.17349 9.74368L9.16889 9.74572ZM8.26458 9.513C8.75014 9.55127 9.13656 9.58531 9.16889 9.74572C8.81556 9.90186 8.43659 9.98815 8.05194 10C8.00712 10 7.96268 9.99754 7.91852 9.99314C7.71006 9.99314 7.30377 9.98343 6.81782 9.78213C6.36106 9.59292 5.95652 9.29188 5.63961 8.90536C5.32271 8.51884 5.1031 8.05862 5 7.56499C5 7.48809 5 7.47528 5.04586 7.5479C5.23869 8.00014 5.53285 8.39943 5.90446 8.7134C6.27608 9.02736 6.71469 9.24715 7.18472 9.35494C7.54019 9.43587 7.90121 9.48871 8.26458 9.513ZM7.38591 5.20332C7.33818 5.37715 7.33507 5.55932 7.37683 5.73453C7.4186 5.90975 7.50403 6.07289 7.62595 6.21026C7.96639 6.55669 8.40399 6.80353 8.88723 6.92173C9.37047 7.03993 9.87922 7.02455 10.3536 6.87742C10.6227 6.78723 10.8509 6.61159 10.9995 6.38016C10.9348 6.1094 10.8305 5.84857 10.6896 5.60527C10.5969 5.69813 10.4814 5.76787 10.3536 5.80831C10.1072 5.88033 9.84612 5.8942 9.59287 5.8487C9.33962 5.80321 9.10188 5.69974 8.90029 5.54725C8.84859 5.49151 8.81203 5.42462 8.79378 5.3524C8.77552 5.28018 8.77613 5.20482 8.79555 5.13287C8.82908 5.0362 8.88604 4.94835 8.96183 4.87638C9.03763 4.80441 9.13015 4.75033 9.23196 4.71849C9.42153 4.67292 9.617 4.65339 9.8124 4.66047C9.61132 4.52291 9.39981 4.39964 9.17959 4.29167C9.12535 4.26576 9.06573 4.25161 9.00503 4.25024H8.93084C8.69255 4.24781 8.45583 4.28715 8.23257 4.36626C8.03312 4.43209 7.85267 4.54133 7.70565 4.68524C7.55863 4.82915 7.44913 5.00373 7.38591 5.19503V5.20332Z" fill="white"/>
</svg>
