<svg width="16" height="16" viewBox="0 0 16 16" fill="none" xmlns="http://www.w3.org/2000/svg">
<path fill-rule="evenodd" clip-rule="evenodd" d="M14.2253 11.7363C14.2657 11.7363 14.3215 11.7364 14.3718 11.7323C14.4319 11.7274 14.5267 11.7142 14.6276 11.6627C14.7546 11.598 14.8579 11.4948 14.9226 11.3678C14.974 11.2668 14.9872 11.1721 14.9921 11.112C14.9962 11.0616 14.9962 11.0058 14.9962 10.9655V3.27045C14.9962 3.2301 14.9962 3.17428 14.9921 3.12394C14.9872 3.06384 14.974 2.9691 14.9226 2.86815C14.8579 2.74114 14.7546 2.63788 14.6276 2.57317C14.5267 2.52173 14.4319 2.50855 14.3718 2.50364C14.3215 2.49953 14.2657 2.49957 14.2253 2.49959H1.77062C1.73027 2.49957 1.67445 2.49953 1.62411 2.50364C1.56401 2.50855 1.46927 2.52173 1.36832 2.57317C1.24131 2.63788 1.13805 2.74114 1.07334 2.86815C1.0219 2.9691 1.00872 3.06384 1.00381 3.12394C0.999696 3.17428 0.999733 3.2301 0.999761 3.27045V10.9655C0.999733 11.0058 0.999696 11.0616 1.00381 11.112C1.00872 11.1721 1.0219 11.2668 1.07334 11.3678C1.13805 11.4948 1.24131 11.598 1.36832 11.6627C1.46927 11.7142 1.56401 11.7274 1.62411 11.7323C1.67445 11.7364 1.73027 11.7363 1.77062 11.7363H14.2253ZM13.9962 3.49959V10.7363H1.99976V3.49959H13.9962ZM13.6191 12.4902H2.37898V13.4965H13.6191V12.4902Z" fill="white"/>
<path fill-rule="evenodd" clip-rule="evenodd" d="M10.9984 7.73064C10.8627 7.51628 10.2861 7.52453 9.72651 7.53277H8.90827C7.50497 7.42147 6.91143 6.88558 6.6613 6.47336C6.53752 6.26277 6.46718 6.02651 6.45612 5.78419C6.44506 5.54187 6.4936 5.30048 6.59771 5.08005C6.74054 4.80969 6.94242 4.57294 7.18921 4.38638C7.436 4.19982 7.72175 4.06796 8.02644 4.00003C7.49734 3.99793 6.97642 4.12703 6.51291 4.37515C6.27356 4.50793 6.05271 4.67002 5.85578 4.85745C5.63284 5.08162 5.46512 5.35204 5.36524 5.64837C5.26537 5.94469 5.23595 6.25919 5.2792 6.56817C5.33728 6.89432 5.4704 7.20349 5.66862 7.47259C5.86683 7.74169 6.12501 7.96377 6.42388 8.12225C7.3155 8.65638 8.39244 8.62127 9.15094 8.59654L9.15841 8.5963H9.58237C9.92577 8.5963 10.1674 8.6334 10.248 8.79417C10.2677 8.8531 10.2677 8.91661 10.248 8.97555C10.248 9.0044 10.2777 9.01265 10.3031 8.97555C10.6275 8.62189 10.8601 8.19784 10.9814 7.73888L10.9984 7.73064ZM9.16939 9.74796L9.16896 9.74572L9.17356 9.74369L9.16939 9.74796ZM9.16896 9.74572C9.13663 9.58531 8.75021 9.55127 8.26465 9.513C7.90128 9.48872 7.54027 9.43587 7.18479 9.35494C6.71476 9.24716 6.27615 9.02737 5.90454 8.7134C5.53292 8.39944 5.23876 8.00014 5.04593 7.5479C5.00007 7.47528 5.00007 7.4881 5.00007 7.56499C5.10317 8.05863 5.32278 8.51884 5.63969 8.90536C5.95659 9.29188 6.36113 9.59292 6.81789 9.78214C7.30384 9.98343 7.71013 9.99315 7.91859 9.99315C7.96275 9.99755 8.00719 10 8.05201 10C8.43666 9.98815 8.81563 9.90187 9.16896 9.74572ZM7.3769 5.73454C7.33514 5.55933 7.33825 5.37716 7.38599 5.20332V5.19503C7.44921 5.00374 7.5587 4.82915 7.70572 4.68524C7.85274 4.54133 8.03319 4.43209 8.23264 4.36627C8.4559 4.28715 8.69262 4.24782 8.93091 4.25024H9.0051C9.0658 4.25162 9.12542 4.26577 9.17966 4.29168C9.39988 4.39965 9.61139 4.52292 9.81247 4.66048C9.61707 4.65339 9.4216 4.67293 9.23203 4.71849C9.13022 4.75034 9.0377 4.80442 8.9619 4.87639C8.88611 4.94835 8.82915 5.03621 8.79562 5.13288C8.7762 5.20482 8.77559 5.28018 8.79385 5.35241C8.8121 5.42463 8.84866 5.49152 8.90036 5.54726C9.10195 5.69974 9.33969 5.80322 9.59294 5.84871C9.84619 5.8942 10.1073 5.88034 10.3536 5.80832C10.4815 5.76787 10.5969 5.69814 10.6897 5.60527C10.8305 5.84858 10.9348 6.10941 10.9995 6.38017C10.851 6.6116 10.6228 6.78724 10.3536 6.87743C9.87928 7.02456 9.37054 7.03993 8.8873 6.92174C8.40406 6.80354 7.96646 6.5567 7.62602 6.21027C7.5041 6.0729 7.41867 5.90975 7.3769 5.73454Z" fill="white"/>
</svg>
