<svg width="16" height="16" viewBox="0 0 16 16" fill="none" xmlns="http://www.w3.org/2000/svg">
<path fill-rule="evenodd" clip-rule="evenodd" d="M9.40039 12.7998H8.00977L7.14746 10.3359H3.16895L2.31836 12.7998H1L4.42676 3H5.9248L9.40039 12.7998ZM3.63672 8.96387H6.66797L5.14648 4.58203L3.63672 8.96387Z" fill="white"/>
<path fill-rule="evenodd" clip-rule="evenodd" d="M12.2129 5.7998C12.6619 5.7998 13.0589 5.84546 13.4023 5.93555C13.7543 6.01664 14.0495 6.15172 14.2871 6.34082C14.5247 6.52998 14.701 6.78247 14.8154 7.09766C14.9386 7.40388 15 7.78218 15 8.23242V12.6924H13.7588V11.5166C13.5915 11.8948 13.3139 12.2051 12.9268 12.4482C12.5393 12.6825 12.081 12.7998 11.5527 12.7998C10.8926 12.7998 10.3688 12.6199 9.98145 12.2598C9.59402 11.8994 9.40039 11.3808 9.40039 10.7051C9.40043 10.327 9.46184 10.0166 9.58496 9.77344C9.71701 9.52123 9.90197 9.32285 10.1396 9.17871C10.3773 9.02558 10.6635 8.91756 10.998 8.85449C11.3414 8.79143 11.7248 8.75977 12.1475 8.75977H13.6797V8.34082C13.6797 7.8185 13.5472 7.46268 13.2832 7.27344C13.0279 7.07524 12.6708 6.97559 12.2129 6.97559C11.6495 6.97563 11.1783 7.0883 10.7998 7.31348C10.4302 7.53862 10.1312 7.84058 9.90234 8.21875V6.43555C10.1225 6.26441 10.4261 6.11537 10.8135 5.98926C11.2008 5.8632 11.6672 5.79983 12.2129 5.7998ZM12.2656 9.71875C11.7375 9.71878 11.35 9.78211 11.1035 9.9082C10.8571 10.0254 10.7344 10.2554 10.7344 10.5977C10.7344 10.8858 10.8356 11.1197 11.0381 11.2998C11.2405 11.4799 11.5395 11.5703 11.9355 11.5703C12.2349 11.5703 12.4908 11.5293 12.7021 11.4482C12.9133 11.3672 13.0897 11.2684 13.2305 11.1514C13.3712 11.0254 13.4765 10.8947 13.5469 10.7598C13.6173 10.6156 13.6621 10.4843 13.6797 10.3672V9.71875H12.2656Z" fill="white"/>
</svg>
