<svg width="16" height="16" viewBox="0 0 16 16" fill="none" xmlns="http://www.w3.org/2000/svg">
<path fill-rule="evenodd" clip-rule="evenodd" d="M8 1C6.13449 1 4.34538 1.73881 3.02626 3.05389C2.01321 4.06384 1.3411 5.35012 1.08373 6.73499L1.08057 6.75199C1.05091 6.91157 1.02399 7.05638 1.01066 7.16808C1.00374 7.22609 0.997441 7.29808 1.00105 7.37151C1.00413 7.43413 1.01654 7.57031 1.10494 7.70323C1.24232 7.9098 1.47061 8.02622 1.71903 8.01641C1.89097 8.00962 2.01623 7.92792 2.06205 7.89686C2.1229 7.8556 2.17888 7.80653 2.22491 7.76371C2.31481 7.68008 2.42816 7.56177 2.55792 7.42634L2.56939 7.41436C2.92029 7.04814 3.3335 6.78525 3.77964 6.78525C4.28616 6.78525 4.61735 6.96716 4.84634 7.18535L4.85071 7.18952C5.04276 7.37251 5.19189 7.51461 5.29775 7.61226C5.35053 7.66095 5.3986 7.70421 5.43882 7.73782C5.45851 7.75428 5.4828 7.77389 5.50876 7.79233L5.51037 7.79348C5.5245 7.80364 5.58997 7.85066 5.67852 7.87846L5.69061 7.88239L5.69176 7.88277C5.69557 7.88404 5.70511 7.88722 5.7138 7.88992L5.71519 7.89036C5.73404 7.89625 5.80225 7.9176 5.88982 7.9176C5.97739 7.9176 6.0456 7.89625 6.06445 7.89036L6.06584 7.88992C6.06824 7.88917 6.07071 7.88839 6.0731 7.88762C6.07936 7.88561 6.08512 7.88369 6.08788 7.88277L6.08903 7.88239L6.10112 7.87846C6.18967 7.85066 6.25514 7.80364 6.26927 7.79348L6.27088 7.79233C6.29684 7.77389 6.32114 7.75428 6.34082 7.73782C6.38104 7.70421 6.42911 7.66095 6.48189 7.61226C6.58775 7.51461 6.73687 7.37252 6.92892 7.18953L6.9333 7.18535C7.16229 6.96716 7.49348 6.78525 8 6.78525C8.50652 6.78525 8.83771 6.96716 9.0667 7.18535L9.07112 7.18956C9.26315 7.37254 9.41226 7.51462 9.51811 7.61226C9.57089 7.66095 9.61896 7.70421 9.65918 7.73782C9.67887 7.75428 9.70317 7.77389 9.72913 7.79233L9.73073 7.79348C9.74487 7.80364 9.81034 7.85067 9.89888 7.87846L9.91097 7.88239L9.91203 7.88274C9.91577 7.88399 9.9254 7.88719 9.93416 7.88992L9.93555 7.89036C9.9544 7.89625 10.0226 7.9176 10.1102 7.9176C10.1977 7.9176 10.266 7.89625 10.2848 7.89036L10.2862 7.88992C10.2902 7.88869 10.2943 7.88735 10.298 7.88615C10.3034 7.88438 10.3079 7.88289 10.3094 7.88239L10.3215 7.87846C10.41 7.85066 10.4755 7.80365 10.4896 7.79349L10.4912 7.79233C10.5172 7.77389 10.5415 7.75428 10.5612 7.73782C10.6014 7.70421 10.6495 7.66095 10.7023 7.61226C10.8081 7.51462 10.9572 7.37254 11.1492 7.18956L11.1537 7.18535C11.3826 6.96716 11.7138 6.78525 12.2204 6.78525C12.6665 6.78525 13.0797 7.04814 13.4306 7.41436L13.4421 7.42634C13.5718 7.56175 13.6852 7.68008 13.7751 7.76371C13.8211 7.80653 13.8771 7.8556 13.938 7.89686C13.9838 7.92792 14.109 8.00962 14.281 8.01641C14.5294 8.02622 14.7577 7.9098 14.8951 7.70323C14.9835 7.57031 14.9959 7.43413 14.9989 7.37151C15.0026 7.29808 14.9963 7.2261 14.9893 7.16808C14.976 7.05638 14.9491 6.91156 14.9194 6.75198L14.9163 6.73499C14.6589 5.35012 13.9868 4.06384 12.9737 3.05389C11.6546 1.73881 9.86552 1 8 1ZM7.99805 7.51242C8.27419 7.51242 8.49805 7.73628 8.49805 8.01242V12.8863C8.49885 12.8979 8.49925 12.9095 8.49925 12.9213C8.49925 13.1944 8.4453 13.4648 8.34052 13.717C8.23573 13.9692 8.08219 14.1982 7.88872 14.3911C7.69526 14.584 7.46568 14.7369 7.21311 14.8412C6.96055 14.9455 6.6899 14.9991 6.41662 14.9991C6.14334 14.9991 5.87269 14.9455 5.62013 14.8412C5.36756 14.7369 5.13798 14.584 4.94452 14.3911C4.75105 14.1982 4.59751 13.9692 4.49272 13.717C4.38794 13.4648 4.33398 13.1944 4.33398 12.9213C4.33398 12.6452 4.55784 12.4213 4.83398 12.4213C5.11013 12.4213 5.33398 12.6452 5.33398 12.9213C5.33398 13.0626 5.3619 13.2026 5.41619 13.3333C5.47047 13.4639 5.55008 13.5827 5.65054 13.6829C5.751 13.783 5.87035 13.8626 6.00181 13.9169C6.13328 13.9712 6.27423 13.9991 6.41662 13.9991C6.55901 13.9991 6.69996 13.9712 6.83143 13.9169C6.96289 13.8626 7.08224 13.783 7.1827 13.6829C7.28316 13.5827 7.36277 13.4639 7.41705 13.3333C7.46765 13.2115 7.49535 13.0816 7.49887 12.95C7.49832 12.9405 7.49805 12.9308 7.49805 12.9211V8.01242C7.49805 7.73628 7.7219 7.51242 7.99805 7.51242Z" fill="white"/>
</svg>
