<svg width="16" height="16" viewBox="0 0 16 16" fill="none" xmlns="http://www.w3.org/2000/svg">
<path d="M2.0498 11.7002C2.32588 11.7002 2.5497 11.9241 2.5498 12.2002V13.0254C2.72906 13.1225 2.87646 13.271 2.97363 13.4502H3.84375C4.11972 13.4504 4.34375 13.6742 4.34375 13.9502C4.34362 14.2261 4.11964 14.45 3.84375 14.4502H2.97363C2.8282 14.7181 2.56937 14.9155 2.26172 14.9785C2.1933 14.9925 2.12237 15 2.0498 15L1.94238 14.9941C1.89984 14.9898 1.85827 14.9819 1.81738 14.9727C1.34967 14.8667 1.00014 14.4499 1 13.9502C1 13.5514 1.22231 13.2041 1.5498 13.0264V12.2002C1.54991 11.9242 1.77381 11.7003 2.0498 11.7002Z" fill="white"/>
<path d="M13.9502 11.7002C14.2262 11.7003 14.4501 11.9242 14.4502 12.2002V13.0264C14.5862 13.1002 14.7026 13.2043 14.7939 13.3281C14.8225 13.3669 14.8499 13.4067 14.873 13.4492C14.954 13.5981 15 13.7689 15 13.9502C14.9998 14.5299 14.5299 14.9999 13.9502 15L13.8428 14.9941C13.4896 14.9583 13.188 14.7479 13.0264 14.4502H12.5068C12.2308 14.4502 12.007 14.2262 12.0068 13.9502C12.0068 13.6741 12.2307 13.4502 12.5068 13.4502H13.0264C13.1235 13.271 13.2709 13.1225 13.4502 13.0254V12.2002C13.4503 11.9241 13.6741 11.7002 13.9502 11.7002Z" fill="white"/>
<path d="M9.61914 13.4502C9.89511 13.4504 10.1191 13.6742 10.1191 13.9502C10.119 14.2261 9.89503 14.45 9.61914 14.4502H6.73145C6.45547 14.4501 6.23158 14.2262 6.23145 13.9502C6.23145 13.6741 6.45539 13.4503 6.73145 13.4502H9.61914Z" fill="white"/>
<path fill-rule="evenodd" clip-rule="evenodd" d="M11.6748 8.2002C12.2408 8.20029 12.7002 8.65955 12.7002 9.22559V11.6748C12.7001 12.2407 12.2407 12.7001 11.6748 12.7002H9.22559C8.65958 12.7002 8.20033 12.2408 8.2002 11.6748V9.22559C8.2002 8.65949 8.65949 8.2002 9.22559 8.2002H11.6748ZM9.22559 9.2002C9.21178 9.2002 9.2002 9.21178 9.2002 9.22559V11.6748C9.20033 11.6885 9.21186 11.7002 9.22559 11.7002H11.6748C11.6885 11.7001 11.7001 11.6884 11.7002 11.6748V9.22559C11.7002 9.21184 11.6885 9.2003 11.6748 9.2002H9.22559Z" fill="white"/>
<path d="M2.0498 6.10059C2.32595 6.10059 2.5498 6.32444 2.5498 6.60059V9.40039C2.54954 9.67631 2.32578 9.90039 2.0498 9.90039C1.77391 9.90029 1.55007 9.67625 1.5498 9.40039V6.60059C1.5498 6.3245 1.77375 6.10069 2.0498 6.10059Z" fill="white"/>
<path d="M13.9502 6.10059C14.2263 6.10069 14.4502 6.3245 14.4502 6.60059V9.40039C14.4499 9.67625 14.2261 9.90029 13.9502 9.90039C13.6742 9.90039 13.4505 9.67631 13.4502 9.40039V6.60059C13.4502 6.32444 13.6741 6.10059 13.9502 6.10059Z" fill="white"/>
<path fill-rule="evenodd" clip-rule="evenodd" d="M6.77441 3.2998C7.34042 3.2998 7.79967 3.75922 7.7998 4.3252V6.77441C7.7998 7.34051 7.34051 7.7998 6.77441 7.7998H4.3252C3.75919 7.79971 3.2998 7.34045 3.2998 6.77441V4.3252C3.29994 3.75928 3.75927 3.2999 4.3252 3.2998H6.77441ZM4.3252 4.2998C4.31155 4.29991 4.29994 4.31156 4.2998 4.3252V6.77441C4.2998 6.78816 4.31147 6.7997 4.3252 6.7998H6.77441C6.78822 6.7998 6.7998 6.78822 6.7998 6.77441V4.3252C6.79967 4.3115 6.78814 4.2998 6.77441 4.2998H4.3252Z" fill="white"/>
<path d="M2.0498 1C2.26724 1 2.46915 1.0665 2.63672 1.17969L2.71777 1.23926C2.74374 1.26068 2.76821 1.28383 2.79199 1.30762C2.86343 1.37902 2.92506 1.46031 2.97363 1.5498H3.84375C4.11964 1.55 4.34362 1.7739 4.34375 2.0498C4.34375 2.32582 4.11972 2.54961 3.84375 2.5498H2.97363C2.87653 2.72887 2.72887 2.87653 2.5498 2.97363V3.80078C2.54933 4.07652 2.32565 4.30078 2.0498 4.30078C1.77404 4.30068 1.55028 4.07646 1.5498 3.80078V2.97363C1.46031 2.92506 1.37902 2.86343 1.30762 2.79199C1.28383 2.76821 1.26068 2.74374 1.23926 2.71777L1.17969 2.63672C1.0665 2.46915 1 2.26724 1 2.0498C1.00011 1.47006 1.47006 1.00011 2.0498 1Z" fill="white"/>
<path d="M13.9502 1C14.53 1.00009 14.9999 1.47005 15 2.0498C15 2.44865 14.7777 2.79589 14.4502 2.97363V3.80078C14.4497 4.07646 14.226 4.30068 13.9502 4.30078C13.6743 4.30078 13.4507 4.07652 13.4502 3.80078V2.97363C13.3605 2.92497 13.2786 2.86364 13.207 2.79199C13.1596 2.74455 13.1168 2.6925 13.0791 2.63672C13.0602 2.60868 13.0426 2.57968 13.0264 2.5498H12.5068C12.2307 2.5498 12.0068 2.32595 12.0068 2.0498C12.007 1.77377 12.2308 1.5498 12.5068 1.5498H13.0264C13.2041 1.22228 13.5514 1 13.9502 1Z" fill="white"/>
<path d="M9.61914 1.5498C9.89503 1.55 10.119 1.7739 10.1191 2.0498C10.1191 2.32582 9.89511 2.54961 9.61914 2.5498H6.73145C6.45539 2.5497 6.23145 2.32588 6.23145 2.0498C6.23158 1.77384 6.45547 1.54991 6.73145 1.5498H9.61914Z" fill="white"/>
</svg>
