<svg width="16" height="16" viewBox="0 0 16 16" fill="none" xmlns="http://www.w3.org/2000/svg">
<path fill-rule="evenodd" clip-rule="evenodd" d="M3.7437 1.25H12.2563C12.6302 1.24999 12.9423 1.24999 13.1973 1.2711C13.4632 1.29311 13.7128 1.34072 13.9489 1.46262C14.3111 1.64964 14.6056 1.94807 14.7902 2.31512C14.9105 2.55436 14.9575 2.80736 14.9792 3.07684C15 3.33521 15 3.65147 15 4.03037V9.81939C15 10.1983 15 10.5146 14.9792 10.7729C14.9575 11.0424 14.9105 11.2954 14.7902 11.5346C14.6056 11.9017 14.3111 12.2001 13.9489 12.3871C13.7128 12.509 13.4632 12.5566 13.1973 12.5787C12.9423 12.5998 12.6303 12.5998 12.2564 12.5998H8.52539V7.72946L9.7267 8.94684C9.93036 9.15322 10.2628 9.15543 10.4691 8.95177C10.6755 8.74811 10.6777 8.41571 10.4741 8.20932L8.37408 6.08124C8.27543 5.98127 8.14084 5.925 8.00039 5.925C7.85995 5.925 7.72535 5.98127 7.6267 6.08124L5.5267 8.20932C5.32304 8.41571 5.32525 8.74811 5.53163 8.95177C5.73802 9.15543 6.07042 9.15322 6.27408 8.94684L7.47539 7.72946V12.5897H8.525V14.2235C8.525 14.5135 8.28995 14.7485 8 14.7485C7.71005 14.7485 7.475 14.5135 7.475 14.2235V12.5998H3.74368C3.36982 12.5998 3.05767 12.5998 2.80273 12.5787C2.53681 12.5566 2.28715 12.509 2.05107 12.3871C1.68886 12.2001 1.39437 11.9017 1.20981 11.5346C1.08952 11.2954 1.04254 11.0424 1.02082 10.7729C0.999988 10.5146 0.999993 10.1983 1 9.8194V4.03038C0.999993 3.65149 0.999988 3.3352 1.02082 3.07684C1.04254 2.80736 1.08952 2.55436 1.20981 2.31512C1.39437 1.94807 1.68886 1.64964 2.05107 1.46262C2.28715 1.34072 2.53681 1.29311 2.80273 1.2711C3.05769 1.24999 3.3698 1.24999 3.7437 1.25Z" fill="white"/>
</svg>
