<svg width="16" height="16" viewBox="0 0 16 16" fill="none" xmlns="http://www.w3.org/2000/svg">
<path fill-rule="evenodd" clip-rule="evenodd" d="M1.20043 5.84131C1 6.28664 1 6.85776 1 8C1 9.14224 1 9.71336 1.20043 10.1587C1.42857 10.6656 1.8344 11.0714 2.34131 11.2996C2.78664 11.5 3.35776 11.5 4.5 11.5H11.5C12.6422 11.5 13.2134 11.5 13.6587 11.2996C14.1656 11.0714 14.5714 10.6656 14.7996 10.1587C15 9.71336 15 9.14224 15 8C15 6.85776 15 6.28664 14.7996 5.84131C14.5714 5.3344 14.1656 4.92857 13.6587 4.70043C13.2134 4.5 12.6422 4.5 11.5 4.5H4.5C3.35776 4.5 2.78664 4.5 2.34131 4.70043C1.8344 4.92857 1.42857 5.3344 1.20043 5.84131ZM3.625 8.375C3.34886 8.375 3.125 8.59886 3.125 8.875C3.125 9.15114 3.34886 9.375 3.625 9.375H12.375C12.6511 9.375 12.875 9.15114 12.875 8.875C12.875 8.59886 12.6511 8.375 12.375 8.375H3.625Z" fill="white"/>
</svg>
