<svg width="16" height="16" viewBox="0 0 16 16" fill="none" xmlns="http://www.w3.org/2000/svg">
<path fill-rule="evenodd" clip-rule="evenodd" d="M4.28088 4.5C3.80873 4.49999 3.42411 4.49999 3.11184 4.5255C2.7891 4.55187 2.49988 4.60797 2.23047 4.74524C1.80711 4.96095 1.4629 5.30516 1.24719 5.72852C1.10992 5.99793 1.05382 6.28715 1.02746 6.60989C1.00194 6.92215 1.00195 7.30677 1.00195 7.77892V8.22005C1.00195 8.69219 1.00194 9.07682 1.02746 9.38908C1.05382 9.71182 1.10992 10.001 1.24719 10.2704C1.4629 10.6938 1.80711 11.038 2.23047 11.2537C2.49988 11.391 2.7891 11.4471 3.11184 11.4735C3.42411 11.499 3.80873 11.499 4.28088 11.499H11.7194C12.1916 11.499 12.5762 11.499 12.8885 11.4735C13.2112 11.4471 13.5004 11.391 13.7698 11.2537C14.1932 11.038 14.5374 10.6938 14.7531 10.2704C14.8904 10.001 14.9465 9.71182 14.9729 9.38908C14.9984 9.07682 14.9984 8.6922 14.9984 8.22006V7.77891C14.9984 7.30677 14.9984 6.92215 14.9729 6.60989C14.9465 6.28715 14.8904 5.99793 14.7531 5.72852C14.5374 5.30516 14.1932 4.96095 13.7698 4.74524C13.5004 4.60797 13.2112 4.55187 12.8885 4.5255C12.5762 4.49999 12.1916 4.49999 11.7195 4.5H4.28088ZM2.68447 5.63624C2.7894 5.58277 2.93238 5.5435 3.19327 5.52218C3.46001 5.50039 3.80366 5.5 4.30195 5.5H11.6984C12.1967 5.5 12.5403 5.50039 12.8071 5.52218C13.0679 5.5435 13.2109 5.58277 13.3159 5.63624C13.5511 5.75608 13.7423 5.94731 13.8621 6.18251C13.9156 6.28745 13.9549 6.43042 13.9762 6.69132C13.998 6.95805 13.9984 7.3017 13.9984 7.8V8.19897C13.9984 8.69727 13.998 9.04092 13.9762 9.30765C13.9549 9.56855 13.9156 9.71152 13.8621 9.81646C13.7423 10.0517 13.5511 10.2429 13.3159 10.3627C13.2109 10.4162 13.0679 10.4555 12.807 10.4768C12.5403 10.4986 12.1967 10.499 11.6984 10.499H4.30195C3.80366 10.499 3.46 10.4986 3.19327 10.4768C2.93238 10.4555 2.7894 10.4162 2.68447 10.3627C2.44926 10.2429 2.25804 10.0517 2.1382 9.81646C2.08473 9.71152 2.04545 9.56855 2.02414 9.30765C2.00234 9.04092 2.00195 8.69727 2.00195 8.19897V7.8C2.00195 7.3017 2.00234 6.95805 2.02414 6.69132C2.04545 6.43042 2.08473 6.28745 2.1382 6.18251C2.25804 5.94731 2.44926 5.75608 2.68447 5.63624ZM3.60938 8.38094C3.33323 8.38094 3.10938 8.6048 3.10938 8.88094C3.10938 9.15708 3.33323 9.38094 3.60938 9.38094H12.3907C12.6669 9.38094 12.8907 9.15708 12.8907 8.88094C12.8907 8.6048 12.6669 8.38094 12.3907 8.38094H3.60938Z" fill="white"/>
</svg>
