<svg width="16" height="16" viewBox="0 0 16 16" fill="none" xmlns="http://www.w3.org/2000/svg">
<path fill-rule="evenodd" clip-rule="evenodd" d="M3.75277 5.25C2.23354 5.25 1.00195 6.48158 1.00195 8.00082C1.00195 9.52005 2.23353 10.7516 3.75277 10.7516H12.2476C13.7668 10.7516 14.9984 9.52005 14.9984 8.00082C14.9984 6.48158 13.7668 5.25 12.2476 5.25H3.75277ZM2.00195 8.00082C2.00195 7.03387 2.78582 6.25 3.75277 6.25H12.2476C13.2145 6.25 13.9984 7.03387 13.9984 8.00082C13.9984 8.96777 13.2145 9.75164 12.2476 9.75164H3.75277C2.78582 9.75164 2.00195 8.96777 2.00195 8.00082ZM4.3125 7.5012C4.03636 7.5012 3.8125 7.72505 3.8125 8.0012C3.8125 8.27734 4.03636 8.5012 4.3125 8.5012H11.6888C11.965 8.5012 12.1888 8.27734 12.1888 8.0012C12.1888 7.72505 11.965 7.5012 11.6888 7.5012H4.3125Z" fill="white"/>
</svg>
