<svg width="16" height="16" viewBox="0 0 16 16" fill="none" xmlns="http://www.w3.org/2000/svg">
<path fill-rule="evenodd" clip-rule="evenodd" d="M4.33458 11.5001C3.80464 11.5006 3.3896 11.501 3.02835 11.3528C2.71167 11.2229 2.43529 11.0128 2.22712 10.7436C1.98966 10.4366 1.88384 10.0402 1.74874 9.53407L1.32403 7.94907C1.2011 7.49038 1.09984 7.11257 1.04595 6.80295C0.99051 6.48439 0.97279 6.17664 1.06415 5.87436C1.20168 5.4193 1.50466 5.03052 1.91483 4.78276C2.1873 4.61817 2.49304 4.55634 2.819 4.52776C3.13582 4.49999 3.53148 4.49999 4.01187 4.5H11.9881C12.4685 4.49999 12.8642 4.49999 13.181 4.52776C13.507 4.55634 13.8127 4.61817 14.0852 4.78276C14.4953 5.03052 14.7983 5.4193 14.9359 5.87436C15.0272 6.17664 15.0095 6.48439 14.954 6.80295C14.9002 7.11255 14.7989 7.49032 14.676 7.94898L14.2513 9.53405C14.1162 10.0402 14.0103 10.4366 13.7729 10.7436C13.5647 11.0128 13.2883 11.2229 12.9716 11.3528C12.6104 11.501 12.1954 11.5006 11.6654 11.5001H4.33458ZM4.4573 7.64961C4.75085 7.64961 4.98882 7.41456 4.98882 7.12461C4.98882 6.83466 4.75085 6.59961 4.4573 6.59961C4.16375 6.59961 3.92578 6.83466 3.92578 7.12461C3.92578 7.41456 4.16375 7.64961 4.4573 7.64961ZM6.22879 7.64961C6.52234 7.64961 6.76031 7.41456 6.76031 7.12461C6.76031 6.83466 6.52234 6.59961 6.22879 6.59961C5.93524 6.59961 5.69727 6.83466 5.69727 7.12461C5.69727 7.41456 5.93524 7.64961 6.22879 7.64961ZM8.53179 7.12461C8.53179 7.41456 8.29382 7.64961 8.00027 7.64961C7.70672 7.64961 7.46875 7.41456 7.46875 7.12461C7.46875 6.83466 7.70672 6.59961 8.00027 6.59961C8.29382 6.59961 8.53179 6.83466 8.53179 7.12461ZM9.77176 7.64961C10.0653 7.64961 10.3033 7.41456 10.3033 7.12461C10.3033 6.83466 10.0653 6.59961 9.77176 6.59961C9.4782 6.59961 9.24023 6.83466 9.24023 7.12461C9.24023 7.41456 9.4782 7.64961 9.77176 7.64961ZM12.0767 7.12461C12.0767 7.41456 11.8387 7.64961 11.5452 7.64961C11.2516 7.64961 11.0137 7.41456 11.0137 7.12461C11.0137 6.83466 11.2516 6.59961 11.5452 6.59961C11.8387 6.59961 12.0767 6.83466 12.0767 7.12461ZM5.34402 9.39961C5.63757 9.39961 5.87554 9.16456 5.87554 8.87461C5.87554 8.58466 5.63757 8.34961 5.34402 8.34961C5.05047 8.34961 4.8125 8.58466 4.8125 8.87461C4.8125 9.16456 5.05047 9.39961 5.34402 9.39961ZM7.64703 8.87461C7.64703 9.16456 7.40906 9.39961 7.11551 9.39961C6.82195 9.39961 6.58398 9.16456 6.58398 8.87461C6.58398 8.58466 6.82195 8.34961 7.11551 8.34961C7.40906 8.34961 7.64703 8.58466 7.64703 8.87461ZM8.88699 9.39961C9.18054 9.39961 9.41851 9.16456 9.41851 8.87461C9.41851 8.58466 9.18054 8.34961 8.88699 8.34961C8.59344 8.34961 8.35547 8.58466 8.35547 8.87461C8.35547 9.16456 8.59344 9.39961 8.88699 9.39961ZM11.1899 8.87461C11.1899 9.16456 10.9519 9.39961 10.6584 9.39961C10.3648 9.39961 10.1269 9.16456 10.1269 8.87461C10.1269 8.58466 10.3648 8.34961 10.6584 8.34961C10.9519 8.34961 11.1899 8.58466 11.1899 8.87461Z" fill="white"/>
</svg>
