<svg width="16" height="16" viewBox="0 0 16 16" fill="none" xmlns="http://www.w3.org/2000/svg">
<path fill-rule="evenodd" clip-rule="evenodd" d="M4.29437 11.4991C3.76937 11.4995 3.36521 11.4999 3.01369 11.3542C2.70538 11.2264 2.43617 11.0196 2.23316 10.7547C2.0017 10.4527 1.8978 10.0621 1.76283 9.55475L1.32761 7.92444C1.20473 7.46426 1.10397 7.08688 1.0502 6.77795C0.994949 6.46054 0.977468 6.15681 1.06577 5.85938C1.19934 5.4095 1.49468 5.02497 1.89488 4.77987C2.15946 4.61783 2.45742 4.55638 2.77834 4.52788C3.09069 4.50014 3.48128 4.50015 3.95759 4.50015H12.052C12.5284 4.50015 12.9189 4.50014 13.2313 4.52788C13.5522 4.55637 13.8502 4.61783 14.1148 4.77987C14.515 5.02497 14.8103 5.4095 14.9439 5.85938C15.0322 6.15681 15.0147 6.46054 14.9594 6.77795C14.9057 7.08687 14.8049 7.46424 14.682 7.92441L14.2468 9.55475C14.1118 10.0621 14.0079 10.4527 13.7765 10.7547C13.5735 11.0196 13.3043 11.2264 12.9959 11.3542C12.6444 11.4999 12.2403 11.4995 11.7153 11.4991H4.29437ZM3.39662 10.4304C3.53969 10.4897 3.7249 10.499 4.38641 10.499H11.6232C12.2847 10.499 12.4699 10.4897 12.613 10.4304C12.7591 10.3699 12.8866 10.2719 12.9827 10.1465C13.0769 10.0235 13.1337 9.84698 13.3043 9.20786L13.7099 7.68899C13.8402 7.20076 13.929 6.86642 13.9742 6.60647C14.0189 6.34998 14.0092 6.22489 13.9852 6.144C13.922 5.9309 13.7821 5.74875 13.5925 5.63265C13.5205 5.58858 13.4022 5.54698 13.1428 5.52396C12.88 5.50062 12.5341 5.50015 12.0287 5.50015H3.98088C3.47555 5.50015 3.12962 5.50062 2.86679 5.52396C2.60747 5.54698 2.48911 5.58858 2.41715 5.63265C2.22758 5.74875 2.08768 5.9309 2.02441 6.144C2.0004 6.22489 1.99074 6.34998 2.03539 6.60647C2.08063 6.86642 2.16942 7.20076 2.29977 7.68899L2.7053 9.20786C2.87594 9.84698 2.93269 10.0235 3.0269 10.1465C3.12306 10.2719 3.25058 10.3699 3.39662 10.4304ZM4.4422 7.64651C4.73716 7.64651 4.97628 7.40953 4.97628 7.1172C4.97628 6.82487 4.73716 6.58789 4.4422 6.58789C4.14723 6.58789 3.90811 6.82487 3.90811 7.1172C3.90811 7.40953 4.14723 7.64651 4.4422 7.64651ZM6.22149 7.6467C6.51646 7.6467 6.75558 7.40972 6.75558 7.11739C6.75558 6.82506 6.51646 6.58808 6.22149 6.58808C5.92653 6.58808 5.68741 6.82506 5.68741 7.11739C5.68741 7.40972 5.92653 7.6467 6.22149 7.6467ZM8.53488 7.11739C8.53488 7.40972 8.29576 7.6467 8.00079 7.6467C7.70582 7.6467 7.46671 7.40972 7.46671 7.11739C7.46671 6.82506 7.70582 6.58808 8.00079 6.58808C8.29576 6.58808 8.53488 6.82506 8.53488 7.11739ZM9.78 7.64651C10.075 7.64651 10.3141 7.40953 10.3141 7.1172C10.3141 6.82487 10.075 6.58789 9.78 6.58789C9.48504 6.58789 9.24592 6.82487 9.24592 7.1172C9.24592 7.40953 9.48504 7.64651 9.78 7.64651ZM12.0954 7.11739C12.0954 7.40972 11.8563 7.6467 11.5613 7.6467C11.2664 7.6467 11.0273 7.40972 11.0273 7.11739C11.0273 6.82506 11.2664 6.58808 11.5613 6.58808C11.8563 6.58808 12.0954 6.82506 12.0954 7.11739ZM5.33087 9.4112C5.62584 9.4112 5.86495 9.17422 5.86495 8.88189C5.86495 8.58956 5.62584 8.35258 5.33087 8.35258C5.0359 8.35258 4.79678 8.58956 4.79678 8.88189C4.79678 9.17422 5.0359 9.4112 5.33087 9.4112ZM7.64816 8.88189C7.64816 9.17422 7.40904 9.4112 7.11407 9.4112C6.81911 9.4112 6.57999 9.17422 6.57999 8.88189C6.57999 8.58956 6.81911 8.35258 7.11407 8.35258C7.40904 8.35258 7.64816 8.58956 7.64816 8.88189ZM8.89142 9.4112C9.18638 9.4112 9.4255 9.17422 9.4255 8.88189C9.4255 8.58956 9.18638 8.35258 8.89142 8.35258C8.59645 8.35258 8.35733 8.58956 8.35733 8.88189C8.35733 9.17422 8.59645 9.4112 8.89142 9.4112ZM11.2048 8.88189C11.2048 9.17422 10.9657 9.4112 10.6707 9.4112C10.3757 9.4112 10.1366 9.17422 10.1366 8.88189C10.1366 8.58956 10.3757 8.35258 10.6707 8.35258C10.9657 8.35258 11.2048 8.58956 11.2048 8.88189Z" fill="white"/>
</svg>
