<svg width="16" height="16" viewBox="0 0 16 16" fill="none" xmlns="http://www.w3.org/2000/svg">
<path d="M4.48481 1.57646C4.71895 1.43025 5.02696 1.50153 5.17328 1.73564L6.70453 4.18486C6.93591 4.55508 6.94774 5.02194 6.73578 5.40361L5.37543 7.85282C5.34212 7.9131 5.34204 7.98692 5.37543 8.04716L6.73578 10.4964C6.94779 10.878 6.93588 11.3449 6.70453 11.7151L5.17328 14.1653C5.02688 14.399 4.71877 14.4705 4.48481 14.3245C4.25089 14.1782 4.17962 13.8691 4.32563 13.6351L5.85688 11.1858C5.89537 11.1242 5.89689 11.0463 5.86176 10.9827L4.50141 8.53349C4.30013 8.17119 4.30027 7.72983 4.50141 7.36747L5.86176 4.91825C5.89708 4.85466 5.8954 4.77683 5.85688 4.71513L4.32563 2.26493C4.1795 2.03092 4.25103 1.72288 4.48481 1.57646Z" fill="white"/>
<path d="M10.8266 1.73564C10.9729 1.50153 11.2809 1.43025 11.5151 1.57646C11.7489 1.72286 11.8204 2.03089 11.6743 2.26493L10.143 4.71513C10.1045 4.77682 10.1028 4.85468 10.1381 4.91825L11.4985 7.36747C11.6996 7.72984 11.6998 8.17117 11.4985 8.53349L10.1381 10.9827C10.103 11.0462 10.1045 11.1243 10.143 11.1858L11.6743 13.6351C11.8203 13.8692 11.7491 14.1782 11.5151 14.3245C11.2811 14.4705 10.973 14.399 10.8266 14.1653L9.29535 11.7151C9.06401 11.3449 9.05212 10.878 9.2641 10.4964L10.6245 8.04716C10.6579 7.9869 10.6578 7.91311 10.6245 7.85282L9.2641 5.40361C9.05216 5.02196 9.06401 4.55507 9.29535 4.18486L10.8266 1.73564Z" fill="white"/>
<path d="M2.65277 4.92607C2.77631 4.67934 3.07681 4.57916 3.32367 4.70243C3.57035 4.82598 3.67056 5.12649 3.54731 5.37333L2.30316 7.86064C2.27525 7.91678 2.2752 7.98322 2.30316 8.03935L3.54731 10.5257C3.67072 10.7725 3.57032 11.0729 3.32367 11.1966C3.0767 11.32 2.77626 11.2199 2.65277 10.9729L1.40863 8.48661C1.2399 8.14896 1.23995 7.75104 1.40863 7.41337L2.65277 4.92607Z" fill="white"/>
<path d="M12.6762 4.70243C12.9231 4.57909 13.2235 4.67934 13.3471 4.92607L14.5913 7.41337C14.7599 7.75106 14.76 8.14895 14.5913 8.48661L13.3471 10.9729C13.2236 11.2199 12.9232 11.3201 12.6762 11.1966C12.4296 11.0729 12.3292 10.7725 12.4526 10.5257L13.6967 8.03935C13.7247 7.98321 13.7246 7.91679 13.6967 7.86064L12.4526 5.37333C12.3294 5.1265 12.4295 4.82598 12.6762 4.70243Z" fill="white"/>
</svg>
