<svg width="16" height="16" viewBox="0 0 16 16" fill="none" xmlns="http://www.w3.org/2000/svg">
<path fill-rule="evenodd" clip-rule="evenodd" d="M10.0181 2.5H5.9819C5.2174 2.5 4.61155 2.49999 4.12321 2.53918C3.62384 2.57925 3.2013 2.66286 2.81548 2.85593C2.18984 3.16902 1.68118 3.6686 1.3624 4.28306C1.16582 4.66199 1.08069 5.07699 1.03989 5.56744C0.999993 6.04706 0.999996 6.64208 1 7.39293V8.60706C0.999996 9.35791 0.999993 9.95294 1.03989 10.4326C1.08069 10.923 1.16582 11.338 1.3624 11.7169C1.68118 12.3314 2.18984 12.831 2.81548 13.1441C3.2013 13.3371 3.62384 13.4207 4.12321 13.4608C4.61154 13.5 5.21737 13.5 5.98184 13.5H10.0181C10.7826 13.5 11.3885 13.5 11.8768 13.4608C12.3762 13.4207 12.7987 13.3371 13.1845 13.1441C13.8102 12.831 14.3188 12.3314 14.6376 11.7169C14.8342 11.338 14.9193 10.923 14.9601 10.4326C15 9.95295 15 9.35792 15 8.60708V7.39292C15 6.64208 15 6.04705 14.9601 5.56744C14.9193 5.07699 14.8342 4.66199 14.6376 4.28306C14.3188 3.6686 13.8102 3.16902 13.1845 2.85593C12.7987 2.66286 12.3762 2.57925 11.8768 2.53918C11.3885 2.49999 10.7826 2.5 10.0181 2.5ZM10.275 8.59536C10.7417 8.33075 10.7417 7.6692 10.275 7.40458L7.125 5.6184C6.65833 5.35378 6.075 5.68456 6.075 6.21379V9.78615C6.075 10.3154 6.65833 10.6462 7.125 10.3815L10.275 8.59536Z" fill="white"/>
</svg>
