<svg width="16" height="16" viewBox="0 0 16 16" fill="none" xmlns="http://www.w3.org/2000/svg">
<path fill-rule="evenodd" clip-rule="evenodd" d="M5.96137 2.5C5.19541 2.5 4.58996 2.49999 4.10229 2.53984C3.6041 2.58054 3.18495 2.66531 2.80301 2.85991C2.18167 3.1765 1.6765 3.68167 1.35991 4.30301C1.16531 4.68495 1.08054 5.1041 1.03984 5.60229C0.999994 6.08996 0.999996 6.69541 1 7.46137V8.53985C0.999996 9.30582 0.999994 9.91126 1.03984 10.3989C1.08054 10.8971 1.16531 11.3163 1.35991 11.6982C1.6765 12.3196 2.18167 12.8247 2.80301 13.1413C3.18495 13.3359 3.6041 13.4207 4.10229 13.4614C4.58996 13.5012 5.1954 13.5012 5.96136 13.5012H10.0359C10.8018 13.5012 11.4073 13.5012 11.8949 13.4614C12.3931 13.4207 12.8123 13.3359 13.1942 13.1413C13.8155 12.8247 14.3207 12.3196 14.6373 11.6982C14.8319 11.3163 14.9167 10.8971 14.9574 10.3989C14.9972 9.91126 14.9972 9.30582 14.9972 8.53986V7.46136C14.9972 6.6954 14.9972 6.08996 14.9574 5.60229C14.9167 5.1041 14.8319 4.68495 14.6373 4.30301C14.3207 3.68167 13.8155 3.1765 13.1942 2.85991C12.8123 2.66531 12.3931 2.58054 11.8949 2.53984C11.4073 2.49999 10.8018 2.5 10.0359 2.5H5.96137ZM3.257 3.75092C3.47448 3.64011 3.74738 3.57217 4.18372 3.53652C4.6259 3.50039 5.19053 3.5 5.98346 3.5H10.0138C10.8067 3.5 11.3713 3.50039 11.8135 3.53652C12.2498 3.57217 12.5227 3.64011 12.7402 3.75092C13.1734 3.97164 13.5256 4.32382 13.7463 4.757C13.8571 4.97448 13.925 5.24738 13.9607 5.68372C13.9968 6.12591 13.9972 6.69053 13.9972 7.48346V8.51776C13.9972 9.31069 13.9968 9.87532 13.9607 10.3175C13.925 10.7538 13.8571 11.0267 13.7463 11.2442C13.5256 11.6774 13.1734 12.0296 12.7402 12.2503C12.5227 12.3611 12.2498 12.4291 11.8135 12.4647C11.3713 12.5008 10.8067 12.5012 10.0138 12.5012H5.98346C5.19053 12.5012 4.6259 12.5008 4.18372 12.4647C3.74738 12.4291 3.47448 12.3611 3.257 12.2503C2.82382 12.0296 2.47164 11.6774 2.25092 11.2442C2.14011 11.0267 2.07217 10.7538 2.03652 10.3175C2.00039 9.87532 2 9.31069 2 8.51776V7.48346C2 6.69053 2.00039 6.12591 2.03652 5.68372C2.07217 5.24738 2.14011 4.97448 2.25092 4.757C2.47164 4.32382 2.82382 3.97164 3.257 3.75092ZM10.5073 9.04494C11.3187 8.58503 11.3187 7.41599 10.5073 6.95608L7.35934 5.17176C6.55902 4.71812 5.5668 5.29624 5.5668 6.21619V9.78484C5.5668 10.7048 6.55902 11.2829 7.35934 10.8293L10.5073 9.04494ZM10.0142 7.82605C10.1497 7.90287 10.1497 8.09815 10.0142 8.17497L6.86623 9.9593C6.73254 10.0351 6.5668 9.93851 6.5668 9.78484V6.21619C6.5668 6.06251 6.73254 5.96595 6.86623 6.04172L10.0142 7.82605Z" fill="white"/>
</svg>
