<svg width="16" height="16" viewBox="0 0 16 16" fill="none" xmlns="http://www.w3.org/2000/svg">
<path d="M1.5 4.10422C1.5 3.7177 1.5 3.52445 1.57653 3.37682C1.64384 3.24696 1.75125 3.14139 1.88336 3.07522C2.03355 3 2.23015 3 2.62337 3H5.6465C6.03971 3 6.23632 3 6.38651 3.07522C6.51862 3.14139 6.62603 3.24696 6.69334 3.37682C6.76987 3.52445 6.76987 3.7177 6.76987 4.10422V5.6886C6.76987 6.07511 6.76987 6.26836 6.69334 6.41599C6.62603 6.54585 6.51862 6.65143 6.38651 6.71759C6.23632 6.79281 6.03971 6.79281 5.6465 6.79281H2.62337C2.23015 6.79281 2.03355 6.79281 1.88336 6.71759C1.75125 6.65143 1.64384 6.54585 1.57653 6.41599C1.5 6.26836 1.5 6.07511 1.5 5.6886V4.10422Z" stroke="white"/>
<path d="M1.5 10.3114C1.5 9.92489 1.5 9.73164 1.57653 9.58401C1.64384 9.45415 1.75125 9.34857 1.88336 9.28241C2.03355 9.20719 2.23015 9.20719 2.62337 9.20719H5.6465C6.03971 9.20719 6.23632 9.20719 6.38651 9.28241C6.51862 9.34857 6.62603 9.45415 6.69334 9.58401C6.76987 9.73164 6.76987 9.92489 6.76987 10.3114V11.8958C6.76987 12.2823 6.76987 12.4756 6.69334 12.6232C6.62603 12.753 6.51862 12.8586 6.38651 12.9248C6.23632 13 6.03971 13 5.6465 13H2.62337C2.23015 13 2.03355 13 1.88336 12.9248C1.75125 12.8586 1.64384 12.753 1.57653 12.6232C1.5 12.4756 1.5 12.2823 1.5 11.8958V10.3114Z" stroke="white"/>
<path d="M9.23013 4.10422C9.23013 3.7177 9.23013 3.52445 9.30666 3.37682C9.37397 3.24696 9.48138 3.14139 9.61349 3.07522C9.76368 3 9.96028 3 10.3535 3H13.3766C13.7698 3 13.9665 3 14.1166 3.07522C14.2488 3.14139 14.3562 3.24696 14.4235 3.37682C14.5 3.52445 14.5 3.7177 14.5 4.10422V5.6886C14.5 6.07511 14.5 6.26836 14.4235 6.41599C14.3562 6.54585 14.2488 6.65143 14.1166 6.71759C13.9665 6.79281 13.7698 6.79281 13.3766 6.79281H10.3535C9.96029 6.79281 9.76368 6.79281 9.61349 6.71759C9.48138 6.65143 9.37397 6.54585 9.30666 6.41599C9.23013 6.26836 9.23013 6.07511 9.23013 5.6886V4.10422Z" stroke="white"/>
<path d="M9.23013 10.3114C9.23013 9.92489 9.23013 9.73164 9.30666 9.58401C9.37397 9.45415 9.48138 9.34857 9.61349 9.28241C9.76368 9.20719 9.96028 9.20719 10.3535 9.20719H13.3766C13.7698 9.20719 13.9665 9.20719 14.1166 9.28241C14.2488 9.34857 14.3562 9.45415 14.4235 9.58401C14.5 9.73164 14.5 9.92489 14.5 10.3114V11.8958C14.5 12.2823 14.5 12.4756 14.4235 12.6232C14.3562 12.753 14.2488 12.8586 14.1166 12.9248C13.9665 13 13.7698 13 13.3766 13H10.3535C9.96029 13 9.76368 13 9.61349 12.9248C9.48138 12.8586 9.37397 12.753 9.30666 12.6232C9.23013 12.4756 9.23013 12.2823 9.23013 11.8958V10.3114Z" stroke="white"/>
</svg>
