<svg width="16" height="16" viewBox="0 0 16 16" fill="none" xmlns="http://www.w3.org/2000/svg">
<path fill-rule="evenodd" clip-rule="evenodd" d="M3.7437 2.5H12.2563C12.6302 2.49999 12.9423 2.49999 13.1973 2.52045C13.4632 2.54178 13.7128 2.58792 13.9489 2.70607C14.3111 2.88733 14.6056 3.17656 14.7902 3.5323C14.9105 3.76417 14.9575 4.00937 14.9792 4.27054C15 4.52095 15 4.82746 15 5.19469V10.8053C15 11.1725 15 11.4791 14.9792 11.7295C14.9575 11.9906 14.9105 12.2358 14.7902 12.4677C14.6056 12.8234 14.3111 13.1127 13.9489 13.2939C13.7128 13.4121 13.4632 13.4582 13.1973 13.4796C12.9423 13.5 12.6302 13.5 12.2564 13.5H3.74368C3.3698 13.5 3.05768 13.5 2.80273 13.4796C2.53681 13.4582 2.28715 13.4121 2.05107 13.2939C1.68886 13.1127 1.39437 12.8234 1.20981 12.4677C1.08952 12.2358 1.04254 11.9906 1.02082 11.7295C0.999987 11.4791 0.999993 11.1725 1 10.8053V5.1947C0.999993 4.82748 0.999987 4.52095 1.02082 4.27054C1.04254 4.00937 1.08952 3.76417 1.20981 3.5323C1.39437 3.17656 1.68886 2.88733 2.05107 2.70607C2.28715 2.58792 2.53681 2.54178 2.80273 2.52045C3.05769 2.49999 3.36979 2.49999 3.7437 2.5ZM3.09961 5.1125V10.8875C3.09961 11.08 3.09961 11.1763 3.12822 11.2498C3.15339 11.3145 3.19354 11.3671 3.24294 11.4C3.29909 11.4375 3.3726 11.4375 3.51961 11.4375H4.77961C4.92662 11.4375 5.00013 11.4375 5.05628 11.4C5.10567 11.3671 5.14583 11.3145 5.171 11.2498C5.19961 11.1763 5.19961 11.08 5.19961 10.8875V5.1125C5.19961 4.91998 5.19961 4.82372 5.171 4.75019C5.14583 4.68551 5.10567 4.63292 5.05628 4.59997C5.00013 4.5625 4.92662 4.5625 4.77961 4.5625H3.51961C3.3726 4.5625 3.29909 4.5625 3.24294 4.59997C3.19354 4.63292 3.15339 4.68551 3.12822 4.75019C3.09961 4.82372 3.09961 4.91998 3.09961 5.1125ZM8.43711 6.7117C8.43711 7.51856 9.10309 8.17264 9.92461 8.17264C10.7461 8.17264 11.4121 7.51856 11.4121 6.7117C11.4121 5.90485 10.7461 5.25077 9.92461 5.25077C9.10309 5.25077 8.43711 5.90485 8.43711 6.7117ZM7.23034 9.62625C7.04075 9.76105 6.92847 9.99668 6.95399 10.2395C6.96774 10.3704 6.99197 10.4725 7.03465 10.5625C7.1215 10.7458 7.26009 10.8948 7.43054 10.9882C7.62433 11.0943 7.878 11.0943 8.38536 11.0943H11.4654C11.9728 11.0943 12.2265 11.0943 12.4202 10.9882C12.5907 10.8948 12.7293 10.7458 12.8161 10.5625C12.8588 10.4725 12.883 10.3705 12.8968 10.2396C12.9223 9.99675 12.81 9.76112 12.6205 9.62632C11.8476 9.07679 10.9213 8.75684 9.92535 8.75684C8.92949 8.75684 8.00313 9.07677 7.23034 9.62625Z" fill="white"/>
</svg>
