<svg width="16" height="16" viewBox="0 0 16 16" fill="none" xmlns="http://www.w3.org/2000/svg">
<path fill-rule="evenodd" clip-rule="evenodd" d="M4.28109 2.5H11.7168C12.1893 2.49999 12.5742 2.49999 12.8867 2.52552C13.2097 2.55191 13.499 2.60804 13.7686 2.74538C14.1922 2.96123 14.5366 3.30564 14.7525 3.72926C14.8898 3.99881 14.9459 4.2882 14.9723 4.61116C14.9979 4.92365 14.9979 5.30855 14.9979 5.78108V10.2201C14.9979 10.6927 14.9979 11.0776 14.9723 11.3901C14.9459 11.713 14.8898 12.0024 14.7525 12.272C14.5366 12.6956 14.1922 13.04 13.7686 13.2558C13.499 13.3932 13.2097 13.4493 12.8867 13.4757C12.5742 13.5012 12.1893 13.5012 11.7168 13.5012H4.28107C3.80855 13.5012 3.42365 13.5012 3.11116 13.4757C2.7882 13.4493 2.49881 13.3932 2.22926 13.2558C1.80564 13.04 1.46123 12.6956 1.24538 12.272C1.10804 12.0024 1.05191 11.713 1.02552 11.3901C0.99999 11.0776 0.999995 10.6927 1 10.2201V5.78109C0.999995 5.30856 0.99999 4.92365 1.02552 4.61116C1.05191 4.2882 1.10804 3.99881 1.24538 3.72926C1.46123 3.30564 1.80564 2.96123 2.22926 2.74538C2.49881 2.60804 2.7882 2.55191 3.11116 2.52552C3.42365 2.49999 3.80856 2.49999 4.28109 2.5ZM3.1926 3.5222C2.93147 3.54354 2.78833 3.58285 2.68325 3.63639C2.44779 3.75636 2.25636 3.94779 2.13639 4.18325C2.08285 4.28833 2.04353 4.43147 2.0222 4.6926C2.00039 4.95955 2 5.30349 2 5.80216V10.1991C2 10.6977 2.00039 11.0417 2.0222 11.3086C2.04353 11.5697 2.08285 11.7129 2.13639 11.818C2.25636 12.0534 2.44779 12.2449 2.68325 12.3648C2.78833 12.4184 2.93147 12.4577 3.19259 12.479C3.45955 12.5008 3.80349 12.5012 4.30216 12.5012H11.6957C12.1944 12.5012 12.5383 12.5008 12.8053 12.479C13.0664 12.4577 13.2095 12.4184 13.3146 12.3648C13.5501 12.2449 13.7415 12.0534 13.8615 11.818C13.915 11.7129 13.9543 11.5697 13.9757 11.3086C13.9975 11.0417 13.9979 10.6977 13.9979 10.1991V5.80216C13.9979 5.30349 13.9975 4.95955 13.9757 4.6926C13.9543 4.43147 13.915 4.28833 13.8615 4.18325C13.7415 3.94779 13.5501 3.75636 13.3146 3.63639C13.2095 3.58285 13.0664 3.54354 12.8053 3.5222C12.5383 3.50039 12.1944 3.5 11.6957 3.5H4.30216C3.80349 3.5 3.45955 3.50039 3.1926 3.5222ZM9.75512 6.27616C9.75512 7.22849 8.96872 8.00051 7.99865 8.00051C7.02858 8.00051 6.24219 7.22849 6.24219 6.27616C6.24219 5.32383 7.02858 4.55181 7.99865 4.55181C8.96872 4.55181 9.75512 5.32383 9.75512 6.27616ZM11.508 10.4403C11.5381 10.1537 11.4055 9.87559 11.1816 9.71647C10.2691 9.06792 9.17524 8.69031 7.99931 8.69031C6.82333 8.69031 5.72942 9.06796 4.81688 9.71656C4.59301 9.87567 4.46043 10.1538 4.49058 10.4404C4.50682 10.5949 4.53543 10.7153 4.58581 10.8216C4.68837 11.0379 4.85201 11.2138 5.05329 11.324C5.28212 11.4493 5.58166 11.4493 6.18076 11.4493H9.81776C10.4169 11.4493 10.7164 11.4493 10.9452 11.324C11.1465 11.2138 11.3101 11.0379 11.4127 10.8216C11.4631 10.7153 11.4917 10.5948 11.508 10.4403Z" fill="white"/>
</svg>
