<svg width="16" height="16" viewBox="0 0 16 16" fill="none" xmlns="http://www.w3.org/2000/svg">
<path fill-rule="evenodd" clip-rule="evenodd" d="M3.72129 2.5H12.2787C12.6537 2.49999 12.9651 2.49999 13.2192 2.52075C13.4838 2.54236 13.7299 2.58895 13.962 2.70721C14.3197 2.88947 14.6105 3.1803 14.7928 3.53801C14.911 3.7701 14.9576 4.01623 14.9793 4.28079C15 4.5349 15 4.84633 15 5.22127V10.7787C15 11.1537 15 11.4651 14.9793 11.7192C14.9576 11.9838 14.911 12.2299 14.7928 12.462C14.6105 12.8197 14.3197 13.1105 13.962 13.2928C13.7299 13.411 13.4838 13.4576 13.2192 13.4793C12.9651 13.5 12.6537 13.5 12.2787 13.5H3.72127C3.34633 13.5 3.0349 13.5 2.78079 13.4793C2.51623 13.4576 2.2701 13.411 2.03801 13.2928C1.6803 13.1105 1.38947 12.8197 1.20721 12.462C1.08895 12.2299 1.04236 11.9838 1.02075 11.7192C0.999988 11.4651 0.999993 11.1537 1 10.7787V5.22129C0.999993 4.84634 0.999988 4.5349 1.02075 4.28079C1.04236 4.01623 1.08895 3.7701 1.20721 3.53801C1.38947 3.1803 1.6803 2.88947 2.03801 2.70721C2.2701 2.58895 2.51623 2.54236 2.78079 2.52075C3.0349 2.49999 3.34634 2.49999 3.72129 2.5ZM2.86222 3.51743C2.65951 3.53399 2.55962 3.56376 2.492 3.59821C2.32245 3.6846 2.1846 3.82245 2.09821 3.992C2.06376 4.05962 2.03399 4.15951 2.01743 4.36222C2.00039 4.57077 2 4.84114 2 5.24173V7.5H7.5V3.5H3.74173C3.34114 3.5 3.07077 3.50039 2.86222 3.51743ZM8.5 3.5V7.5H14V5.24173C14 4.84114 13.9996 4.57077 13.9826 4.36222C13.966 4.15951 13.9362 4.05962 13.9018 3.992C13.8154 3.82245 13.6776 3.6846 13.508 3.59821C13.4404 3.56376 13.3405 3.53399 13.1378 3.51743C12.9292 3.50039 12.6589 3.5 12.2583 3.5H8.5ZM14 8.5H8.5V12.5H12.2583C12.6589 12.5 12.9292 12.4996 13.1378 12.4826C13.3405 12.466 13.4404 12.4362 13.508 12.4018C13.6776 12.3154 13.8154 12.1776 13.9018 12.008C13.9362 11.9404 13.966 11.8405 13.9826 11.6378C13.9996 11.4292 14 11.1589 14 10.7583V8.5ZM7.5 12.5V8.5H2V10.7583C2 11.1589 2.00039 11.4292 2.01743 11.6378C2.03399 11.8405 2.06376 11.9404 2.09821 12.008C2.1846 12.1776 2.32245 12.3154 2.492 12.4018C2.55962 12.4362 2.65951 12.466 2.86222 12.4826C3.07077 12.4996 3.34114 12.5 3.74173 12.5H7.5Z" fill="white"/>
</svg>
