<svg width="16" height="16" viewBox="0 0 16 16" fill="none" xmlns="http://www.w3.org/2000/svg">
<path d="M5.667 8.70704C5.84795 8.70703 6.01297 8.70655 6.1504 8.71778C6.2981 8.72985 6.45812 8.75784 6.61524 8.8379C6.84093 8.95299 7.02461 9.13658 7.13965 9.36231C7.21973 9.51947 7.24672 9.67942 7.25879 9.82715C7.27002 9.96457 7.27052 10.1296 7.27051 10.3106V11.8975C7.27052 12.0781 7.27 12.2426 7.25879 12.3799C7.24672 12.5276 7.21972 12.6876 7.13965 12.8447C7.02463 13.0705 6.84094 13.254 6.61524 13.3691C6.45812 13.4492 6.2981 13.4772 6.1504 13.4893C6.01297 13.5005 5.84795 13.5 5.667 13.5H2.60352C2.42262 13.5 2.25753 13.5005 2.12012 13.4893C1.97239 13.4772 1.81244 13.4492 1.65528 13.3691C1.42952 13.2541 1.24592 13.0705 1.13086 12.8447C1.05079 12.6876 1.02282 12.5276 1.01075 12.3799C0.99955 12.2426 0.999994 12.0781 1.00001 11.8975V10.3106C0.999993 10.1297 0.999529 9.96456 1.01075 9.82715C1.02282 9.67942 1.05079 9.51947 1.13086 9.36231C1.24594 9.13657 1.42953 8.95297 1.65528 8.8379C1.81244 8.75782 1.97239 8.72985 2.12012 8.71778C2.25753 8.70656 2.42262 8.70703 2.60352 8.70704H5.667Z" fill="white"/>
<path d="M13.3955 8.70704C13.5765 8.70703 13.7415 8.70655 13.8789 8.71778C14.0266 8.72985 14.1866 8.75784 14.3438 8.8379C14.5695 8.95299 14.7531 9.13658 14.8682 9.36231C14.9482 9.51947 14.9752 9.67942 14.9873 9.82715C14.9985 9.96457 14.999 10.1296 14.999 10.3106V11.8975C14.999 12.0781 14.9985 12.2426 14.9873 12.3799C14.9752 12.5276 14.9482 12.6876 14.8682 12.8447C14.7531 13.0705 14.5695 13.254 14.3438 13.3691C14.1866 13.4492 14.0266 13.4772 13.8789 13.4893C13.7415 13.5005 13.5765 13.5 13.3955 13.5H10.332C10.1511 13.5 9.98604 13.5005 9.84864 13.4893C9.7009 13.4772 9.54096 13.4492 9.38379 13.3691C9.15804 13.2541 8.97444 13.0705 8.85938 12.8447C8.7793 12.6876 8.75133 12.5276 8.73926 12.3799C8.72807 12.2426 8.72851 12.0781 8.72852 11.8975V10.3106C8.72851 10.1296 8.72804 9.96456 8.73926 9.82715C8.75133 9.67942 8.7793 9.51947 8.85938 9.36231C8.97445 9.13657 9.15805 8.95297 9.38379 8.8379C9.54096 8.75782 9.7009 8.72985 9.84864 8.71778C9.98604 8.70656 10.1511 8.70703 10.332 8.70704H13.3955Z" fill="white"/>
<path d="M5.667 2.50001C5.84795 2.49999 6.01297 2.49952 6.1504 2.51075C6.2981 2.52282 6.45812 2.55081 6.61524 2.63086C6.84093 2.74596 7.02461 2.92955 7.13965 3.15528C7.21973 3.31244 7.24672 3.47239 7.25879 3.62012C7.27002 3.75754 7.27052 3.92259 7.27051 4.10352V5.69044C7.27052 5.87112 7.27 6.03559 7.25879 6.17286C7.24672 6.32059 7.21972 6.48055 7.13965 6.6377C7.02463 6.86345 6.84094 7.047 6.61524 7.16212C6.45812 7.24217 6.2981 7.27016 6.1504 7.28223C6.01297 7.29346 5.84795 7.29299 5.667 7.29297H2.60352C2.42262 7.29299 2.25753 7.29345 2.12012 7.28223C1.97239 7.27016 1.81244 7.24219 1.65528 7.16212C1.42952 7.04702 1.24592 6.86348 1.13086 6.6377C1.05079 6.48054 1.02282 6.32059 1.01075 6.17286C0.99955 6.0356 0.999994 5.87109 1.00001 5.69044V4.10352C0.999993 3.92262 0.999529 3.75753 1.01075 3.62012C1.02282 3.47239 1.05079 3.31244 1.13086 3.15528C1.24594 2.92953 1.42953 2.74594 1.65528 2.63086C1.81244 2.55079 1.97239 2.52282 2.12012 2.51075C2.25753 2.49953 2.42262 2.49999 2.60352 2.50001H5.667Z" fill="white"/>
<path d="M13.3955 2.50001C13.5765 2.49999 13.7415 2.49952 13.8789 2.51075C14.0266 2.52282 14.1866 2.55081 14.3438 2.63086C14.5695 2.74596 14.7531 2.92955 14.8682 3.15528C14.9482 3.31244 14.9752 3.47239 14.9873 3.62012C14.9985 3.75754 14.999 3.9226 14.999 4.10352V5.69044C14.999 5.87112 14.9985 6.03559 14.9873 6.17286C14.9752 6.32059 14.9482 6.48055 14.8682 6.6377C14.7531 6.86346 14.5695 7.047 14.3438 7.16212C14.1866 7.24217 14.0266 7.27016 13.8789 7.28223C13.7415 7.29346 13.5765 7.29299 13.3955 7.29297H10.332C10.1511 7.29299 9.98604 7.29345 9.84864 7.28223C9.7009 7.27016 9.54096 7.24219 9.38379 7.16212C9.15804 7.04702 8.97444 6.86348 8.85938 6.6377C8.7793 6.48054 8.75133 6.32059 8.73926 6.17286C8.72807 6.0356 8.72851 5.87109 8.72852 5.69044V4.10352C8.72851 3.92262 8.72804 3.75753 8.73926 3.62012C8.75133 3.47239 8.7793 3.31244 8.85938 3.15528C8.97445 2.92953 9.15805 2.74594 9.38379 2.63086C9.54096 2.55079 9.7009 2.52282 9.84864 2.51075C9.98604 2.49953 10.1511 2.49999 10.332 2.50001H13.3955Z" fill="white"/>
</svg>
