<svg width="16" height="16" viewBox="0 0 16 16" fill="none" xmlns="http://www.w3.org/2000/svg">
<path fill-rule="evenodd" clip-rule="evenodd" d="M11.697 2.5H4.30301C3.83165 2.49999 3.44615 2.49999 3.13285 2.52513C2.80857 2.55115 2.51569 2.60666 2.24217 2.74353C1.8141 2.95775 1.46607 3.29957 1.24796 3.71999C1.1086 3.98862 1.05208 4.27627 1.02559 4.59477C0.999989 4.90246 0.999994 5.28107 1 5.74402V10.256C0.999994 10.7189 0.999989 11.0975 1.02559 11.4052C1.05208 11.7237 1.1086 12.0114 1.24796 12.28C1.46607 12.7004 1.8141 13.0423 2.24217 13.2565C2.51569 13.3933 2.80857 13.4488 3.13285 13.4749C3.44613 13.5 3.8316 13.5 4.30294 13.5H11.697C12.1683 13.5 12.5539 13.5 12.8671 13.4749C13.1914 13.4488 13.4843 13.3933 13.7578 13.2565C14.1859 13.0423 14.5339 12.7004 14.752 12.28C14.8914 12.0114 14.9479 11.7237 14.9744 11.4052C15 11.0975 15 10.7189 15 10.256V5.74401C15 5.28107 15 4.90246 14.9744 4.59477C14.9479 4.27627 14.8914 3.98862 14.752 3.71999C14.5339 3.29957 14.1859 2.95775 13.7578 2.74353C13.4843 2.60666 13.1914 2.55115 12.8671 2.52513C12.5539 2.49999 12.1684 2.49999 11.697 2.5ZM9.74805 6.28048C9.74805 7.22972 8.96455 7.99923 7.99805 7.99923C7.03155 7.99923 6.24805 7.22972 6.24805 6.28048C6.24805 5.33124 7.03155 4.56173 7.99805 4.56173C8.96455 4.56173 9.74805 5.33124 9.74805 6.28048ZM11.1687 9.70976C11.3917 9.86835 11.5238 10.1456 11.4938 10.4313C11.4776 10.5853 11.4491 10.7054 11.3989 10.8113C11.2967 11.0269 11.1337 11.2022 10.9332 11.312C10.7052 11.4369 10.4067 11.4369 9.80985 11.4369H6.18624C5.58935 11.4369 5.2909 11.4369 5.06292 11.312C4.86239 11.2022 4.69935 11.0269 4.59717 10.8113C4.54697 10.7054 4.51847 10.5853 4.50228 10.4313C4.47225 10.1457 4.60434 9.86844 4.82738 9.70984C5.73657 9.06335 6.82644 8.68692 7.9981 8.68692C9.1697 8.68692 10.2595 9.06332 11.1687 9.70976Z" fill="white"/>
</svg>
