<svg width="16" height="16" viewBox="0 0 16 16" fill="none" xmlns="http://www.w3.org/2000/svg">
<path fill-rule="evenodd" clip-rule="evenodd" d="M12.884 2.36966C12.9372 2.21011 13.1629 2.21011 13.2162 2.36966L13.4175 2.97259C13.6289 3.60562 14.1284 4.10062 14.7633 4.30628L15.3787 4.5056C15.5403 4.55793 15.5403 4.78649 15.3787 4.83882L14.7633 5.03814C14.1284 5.2438 13.6289 5.73879 13.4175 6.37183L13.2162 6.97476C13.1629 7.13431 12.9372 7.13431 12.884 6.97476L12.6826 6.37183C12.4712 5.73879 11.9717 5.2438 11.3368 5.03814L10.7214 4.83882C10.5599 4.78649 10.5599 4.55793 10.7214 4.5056L11.3368 4.30628C11.9717 4.10062 12.4712 3.60562 12.6826 2.97259L12.884 2.36966ZM4.28109 2.59778H10.3845C10.6606 2.59778 10.8845 2.82164 10.8845 3.09778C10.8845 3.37392 10.6606 3.59778 10.3845 3.59778H4.30216C3.80349 3.59778 3.45955 3.59817 3.1926 3.61998C2.93147 3.64131 2.78833 3.68063 2.68325 3.73417C2.44779 3.85414 2.25636 4.04557 2.13639 4.28103C2.08285 4.38611 2.04354 4.52925 2.0222 4.79037C2.00039 5.05733 2 5.40127 2 5.89994V10.4456C2 10.9443 2.00039 11.2882 2.0222 11.5552C2.04354 11.8163 2.08285 11.9594 2.13639 12.0645C2.25636 12.3 2.44779 12.4914 2.68325 12.6114C2.78833 12.6649 2.93147 12.7042 3.1926 12.7256C3.45955 12.7474 3.80349 12.7478 4.30217 12.7478H11.8469C12.3456 12.7478 12.6895 12.7474 12.9565 12.7256C13.2176 12.7042 13.3607 12.6649 13.4658 12.6114C13.7013 12.4914 13.8927 12.3 14.0127 12.0645C14.0662 11.9594 14.1055 11.8163 14.1269 11.5552C14.1487 11.2882 14.1491 10.9443 14.1491 10.4456V7.29778C14.1491 7.02164 14.3729 6.79778 14.6491 6.79778C14.9252 6.79778 15.1491 7.02164 15.1491 7.29778V10.4667C15.1491 10.9392 15.1491 11.3241 15.1235 11.6366C15.0972 11.9596 15.041 12.249 14.9037 12.5185C14.6878 12.9421 14.3434 13.2866 13.9198 13.5024C13.6502 13.6397 13.3609 13.6959 13.0379 13.7223C12.7254 13.7478 12.3405 13.7478 11.868 13.7478H4.28108C3.80855 13.7478 3.42365 13.7478 3.11116 13.7223C2.7882 13.6959 2.49881 13.6397 2.22926 13.5024C1.80564 13.2866 1.46123 12.9421 1.24538 12.5185C1.10804 12.249 1.05191 11.9596 1.02552 11.6366C0.99999 11.3241 0.999995 10.9392 1 10.4667V5.87887C0.999995 5.40635 0.999991 5.02143 1.02552 4.70894C1.05191 4.38598 1.10804 4.09659 1.24538 3.82704C1.46123 3.40342 1.80564 3.05901 2.22926 2.84316C2.49881 2.70582 2.7882 2.64969 3.11116 2.6233C3.42365 2.59777 3.80856 2.59777 4.28109 2.59778ZM9.85067 6.42297C9.85067 7.38947 9.05513 8.17297 8.07377 8.17297C7.09242 8.17297 6.29688 7.38947 6.29688 6.42297C6.29688 5.45648 7.09242 4.67297 8.07377 4.67297C9.05513 4.67297 9.85067 5.45648 9.85067 6.42297ZM11.6246 10.6492C11.6551 10.3583 11.521 10.0761 11.2945 9.9146C10.3714 9.2564 9.26479 8.87317 8.07517 8.87317C6.88551 8.87317 5.77888 9.25644 4.85572 9.91469C4.62925 10.0762 4.49513 10.3584 4.52562 10.6493C4.54206 10.8061 4.571 10.9283 4.62197 11.0362C4.72572 11.2557 4.89126 11.4342 5.09488 11.546C5.32637 11.6732 5.6294 11.6732 6.23546 11.6732H9.91478C10.5208 11.6732 10.8239 11.6732 11.0554 11.546C11.259 11.4342 11.4245 11.2557 11.5283 11.0362C11.5793 10.9283 11.6082 10.806 11.6246 10.6492ZM4.65466 6.14979C4.61364 6.01881 4.42826 6.01881 4.38725 6.14979L4.23966 6.6211C4.10121 7.06326 3.75311 7.40839 3.30977 7.54304L2.83007 7.68873C2.69755 7.72898 2.69755 7.91661 2.83007 7.95686L3.30977 8.10255C3.75311 8.23721 4.10121 8.58233 4.23966 9.02449L4.38725 9.4958C4.42826 9.62678 4.61364 9.62678 4.65466 9.4958L4.80224 9.02449C4.94069 8.58233 5.28879 8.23721 5.73213 8.10255L6.21184 7.95686C6.34436 7.91661 6.34436 7.72898 6.21184 7.68873L5.73213 7.54304C5.28879 7.40839 4.94069 7.06326 4.80224 6.6211L4.65466 6.14979Z" fill="white"/>
</svg>
