<svg width="16" height="16" viewBox="0 0 16 16" fill="none" xmlns="http://www.w3.org/2000/svg">
<path fill-rule="evenodd" clip-rule="evenodd" d="M12.2766 2.5H3.72129C3.34634 2.49999 3.0349 2.49999 2.78079 2.52075C2.51623 2.54236 2.2701 2.58895 2.03801 2.70721C1.6803 2.88947 1.38947 3.1803 1.20721 3.53801C1.08895 3.7701 1.04236 4.01623 1.02075 4.28079C0.999988 4.5349 0.999994 4.84635 1 5.2213V10.7799C0.999994 11.1549 0.999988 11.4663 1.02075 11.7204C1.04236 11.985 1.08895 12.2311 1.20721 12.4632C1.38947 12.8209 1.6803 13.1118 2.03801 13.294C2.2701 13.4123 2.51623 13.4589 2.78079 13.4805C3.0349 13.5012 3.34633 13.5012 3.72127 13.5012H12.2766C12.6515 13.5012 12.963 13.5012 13.2171 13.4805C13.4816 13.4589 13.7278 13.4123 13.9598 13.294C14.3176 13.1118 14.6084 12.8209 14.7906 12.4632C14.9089 12.2311 14.9555 11.985 14.9771 11.7204C14.9979 11.4663 14.9979 11.1549 14.9979 10.7799V5.22129C14.9979 4.84634 14.9979 4.5349 14.9771 4.28079C14.9555 4.01623 14.9089 3.7701 14.7906 3.53801C14.6084 3.1803 14.3176 2.88947 13.9598 2.70721C13.7278 2.58895 13.4816 2.54236 13.2171 2.52075C12.963 2.49999 12.6515 2.49999 12.2766 2.5ZM13.1356 3.51743C13.3383 3.53399 13.4382 3.56376 13.5059 3.59821C13.6754 3.6846 13.8133 3.82245 13.8996 3.992C13.9341 4.05962 13.9639 4.15951 13.9804 4.36222C13.9975 4.57077 13.9979 4.84114 13.9979 5.24173V10.7595C13.9979 11.1601 13.9975 11.4305 13.9804 11.639C13.9639 11.8417 13.9341 11.9416 13.8996 12.0092C13.8133 12.1788 13.6754 12.3166 13.5059 12.403C13.4382 12.4375 13.3383 12.4672 13.1356 12.4838C12.9271 12.5008 12.6567 12.5012 12.2561 12.5012H3.74173C3.34114 12.5012 3.07077 12.5008 2.86222 12.4838C2.65951 12.4672 2.55962 12.4375 2.492 12.403C2.32245 12.3166 2.1846 12.1788 2.09821 12.0092C2.06376 11.9416 2.03399 11.8417 2.01743 11.639C2.00039 11.4305 2 11.1601 2 10.7595V5.24173C2 4.84114 2.00039 4.57077 2.01743 4.36222C2.03399 4.15951 2.06376 4.05962 2.09821 3.992C2.1846 3.82245 2.32245 3.6846 2.492 3.59821C2.55962 3.56376 2.65951 3.53399 2.86222 3.51743C3.07077 3.50039 3.34114 3.5 3.74173 3.5H12.2561C12.6567 3.5 12.9271 3.50039 13.1356 3.51743ZM12.9158 5.11225V10.8888C12.9158 11.0849 12.9158 11.183 12.8776 11.258C12.8441 11.3239 12.7905 11.3774 12.7246 11.411C12.6496 11.4492 12.5516 11.4492 12.3554 11.4492H11.3685C11.1723 11.4492 11.0742 11.4492 10.9993 11.411C10.9334 11.3774 10.8798 11.3239 10.8462 11.258C10.8081 11.183 10.8081 11.0849 10.8081 10.8888V5.11225C10.8081 4.91608 10.8081 4.81799 10.8462 4.74307C10.8798 4.67716 10.9334 4.62357 10.9993 4.58999C11.0742 4.55181 11.1723 4.55181 11.3685 4.55181H12.3554C12.5516 4.55181 12.6496 4.55181 12.7246 4.58999C12.7905 4.62357 12.8441 4.67716 12.8776 4.74307C12.9158 4.81799 12.9158 4.91608 12.9158 5.11225ZM7.56002 6.70807C7.56002 7.51755 6.89158 8.17377 6.06702 8.17377C5.24246 8.17377 4.57403 7.51755 4.57403 6.70807C4.57403 5.89859 5.24246 5.24238 6.06702 5.24238C6.89158 5.24238 7.56002 5.89859 7.56002 6.70807ZM8.77089 9.63161C8.96118 9.76685 9.07388 10.0033 9.04826 10.2469C9.03445 10.3782 9.01013 10.4806 8.9673 10.571C8.88013 10.7548 8.74103 10.9043 8.56995 10.998C8.37545 11.1045 8.12083 11.1045 7.6116 11.1045H4.52015C4.01092 11.1045 3.7563 11.1045 3.56181 10.998C3.39072 10.9043 3.25162 10.7548 3.16445 10.571C3.12162 10.4806 3.0973 10.3783 3.08349 10.2469C3.05787 10.0033 3.17057 9.76692 3.36085 9.63168C4.13652 9.08036 5.06634 8.75936 6.06592 8.75936C7.06546 8.75936 7.99524 9.08034 8.77089 9.63161Z" fill="white"/>
</svg>
