<svg width="16" height="16" viewBox="0 0 16 16" fill="none" xmlns="http://www.w3.org/2000/svg">
<path fill-rule="evenodd" clip-rule="evenodd" d="M12.2563 2.5H3.7437C3.36979 2.49999 3.05769 2.49999 2.80273 2.52045C2.53681 2.54178 2.28715 2.58792 2.05107 2.70607C1.68886 2.88733 1.39437 3.17656 1.20981 3.5323C1.08952 3.76417 1.04254 4.00937 1.02082 4.27054C0.999987 4.52095 0.999993 4.82747 1 5.19469V10.8053C0.999993 11.1725 0.999987 11.4791 1.02082 11.7295C1.04254 11.9906 1.08952 12.2358 1.20981 12.4677C1.39437 12.8234 1.68886 13.1127 2.05107 13.2939C2.28715 13.4121 2.53681 13.4582 2.80273 13.4796C3.05769 13.5 3.36977 13.5 3.74367 13.5H12.2563C12.6302 13.5 12.9423 13.5 13.1973 13.4796C13.4632 13.4582 13.7128 13.4121 13.9489 13.2939C14.3111 13.1127 14.6056 12.8234 14.7902 12.4677C14.9105 12.2358 14.9575 11.9906 14.9792 11.7295C15 11.4791 15 11.1725 15 10.8053V5.19469C15 4.82746 15 4.52095 14.9792 4.27054C14.9575 4.00937 14.9105 3.76417 14.7902 3.5323C14.6056 3.17656 14.3111 2.88733 13.9489 2.70607C13.7128 2.58792 13.4632 2.54178 13.1973 2.52045C12.9423 2.49999 12.6302 2.49999 12.2563 2.5ZM7.49883 3.53106V7.49981H2.04883V8.49981H7.49883V12.4686H8.49883V8.49981H13.9488V7.49981H8.49883V3.53106H7.49883Z" fill="white"/>
</svg>
