<svg width="16" height="16" viewBox="0 0 16 16" fill="none" xmlns="http://www.w3.org/2000/svg">
<path fill-rule="evenodd" clip-rule="evenodd" d="M3.72129 2.5H12.2766C12.6515 2.49999 12.963 2.49999 13.2171 2.52075C13.4816 2.54236 13.7278 2.58895 13.9598 2.70721C14.3176 2.88947 14.6084 3.1803 14.7906 3.53801C14.9089 3.7701 14.9555 4.01623 14.9771 4.28079C14.9979 4.5349 14.9979 4.84635 14.9979 5.2213V10.7799C14.9979 11.1549 14.9979 11.4663 14.9771 11.7204C14.9555 11.985 14.9089 12.2311 14.7906 12.4632C14.6084 12.8209 14.3176 13.1118 13.9598 13.294C13.7278 13.4123 13.4816 13.4589 13.2171 13.4805C12.963 13.5012 12.6515 13.5012 12.2766 13.5012H3.72127C3.34633 13.5012 3.0349 13.5012 2.78079 13.4805C2.51623 13.4589 2.2701 13.4123 2.03801 13.294C1.6803 13.1118 1.38947 12.8209 1.20721 12.4632C1.08895 12.2311 1.04236 11.985 1.02075 11.7204C0.999988 11.4663 0.999993 11.1549 1 10.7799V5.22129C0.999993 4.84634 0.999988 4.5349 1.02075 4.28079C1.04236 4.01623 1.08895 3.7701 1.20721 3.53801C1.38947 3.1803 1.6803 2.88947 2.03801 2.70721C2.2701 2.58895 2.51623 2.54236 2.78079 2.52075C3.0349 2.49999 3.34634 2.49999 3.72129 2.5ZM2.86222 3.51743C2.65951 3.53399 2.55962 3.56376 2.492 3.59821C2.32245 3.6846 2.1846 3.82245 2.09821 3.992C2.06376 4.05962 2.03399 4.15951 2.01743 4.36222C2.00039 4.57077 2 4.84114 2 5.24173V10.7595C2 11.1601 2.00039 11.4305 2.01743 11.639C2.03399 11.8417 2.06376 11.9416 2.09821 12.0092C2.1846 12.1788 2.32245 12.3166 2.492 12.403C2.55962 12.4375 2.65951 12.4672 2.86222 12.4838C3.07077 12.5008 3.34114 12.5012 3.74173 12.5012H12.2561C12.6567 12.5012 12.9271 12.5008 13.1356 12.4838C13.3383 12.4672 13.4382 12.4375 13.5059 12.403C13.6754 12.3166 13.8133 12.1788 13.8996 12.0092C13.9341 11.9416 13.9639 11.8417 13.9804 11.639C13.9975 11.4305 13.9979 11.1601 13.9979 10.7595V5.24173C13.9979 4.84114 13.9975 4.57077 13.9804 4.36222C13.9639 4.15951 13.9341 4.05962 13.8996 3.992C13.8133 3.82245 13.6754 3.6846 13.5059 3.59821C13.4382 3.56376 13.3383 3.53399 13.1356 3.51743C12.9271 3.50039 12.6567 3.5 12.2561 3.5H3.74173C3.34114 3.5 3.07077 3.50039 2.86222 3.51743ZM3.08203 5.11225V10.8888C3.08203 11.0849 3.08203 11.183 3.12021 11.258C3.15379 11.3239 3.20738 11.3774 3.27328 11.411C3.34821 11.4492 3.44629 11.4492 3.64246 11.4492H4.62936C4.82553 11.4492 4.92361 11.4492 4.99854 11.411C5.06445 11.3774 5.11803 11.3239 5.15162 11.258C5.18979 11.183 5.18979 11.0849 5.18979 10.8888V5.11225C5.18979 4.91608 5.18979 4.81799 5.15162 4.74307C5.11803 4.67716 5.06445 4.62357 4.99854 4.58999C4.92361 4.55181 4.82553 4.55181 4.62936 4.55181H3.64246C3.44629 4.55181 3.34821 4.55181 3.27328 4.58999C3.20738 4.62357 3.15379 4.67716 3.12021 4.74307C3.08203 4.81799 3.08203 4.91608 3.08203 5.11225ZM8.43784 6.70807C8.43784 7.51755 9.10627 8.17377 9.93083 8.17377C10.7554 8.17377 11.4238 7.51755 11.4238 6.70807C11.4238 5.89859 10.7554 5.24238 9.93083 5.24238C9.10627 5.24238 8.43784 5.89859 8.43784 6.70807ZM7.22697 9.63161C7.03667 9.76685 6.92398 10.0033 6.94959 10.2469C6.9634 10.3782 6.98772 10.4806 7.03055 10.571C7.11772 10.7548 7.25682 10.9043 7.42791 10.998C7.62241 11.1045 7.87702 11.1045 8.38625 11.1045H11.4777C11.9869 11.1045 12.2416 11.1045 12.436 10.998C12.6071 10.9043 12.7462 10.7548 12.8334 10.571C12.8762 10.4806 12.9005 10.3783 12.9144 10.2469C12.94 10.0033 12.8273 9.76692 12.637 9.63168C11.8613 9.08036 10.9315 8.75936 9.93193 8.75936C8.93239 8.75936 8.00261 9.08034 7.22697 9.63161Z" fill="white"/>
</svg>
