<svg width="16" height="16" viewBox="0 0 16 16" fill="none" xmlns="http://www.w3.org/2000/svg">
<path fill-rule="evenodd" clip-rule="evenodd" d="M3.72928 1.00183C3.35324 1.00182 3.04098 1.00182 2.78621 1.02263C2.521 1.0443 2.27438 1.091 2.04187 1.20947C1.68342 1.39211 1.39198 1.68354 1.20934 2.04199C1.09087 2.2745 1.04418 2.52112 1.02251 2.78633C1.0017 3.0411 1.0017 3.35336 1.00171 3.72941V4.83875C1.00171 5.11489 1.22557 5.33875 1.50171 5.33875C1.77785 5.33875 2.00171 5.11489 2.00171 4.83875V3.74986C2.00171 3.34817 2.0021 3.07697 2.01919 2.86776C2.03581 2.66439 2.06568 2.56402 2.10035 2.49598C2.18712 2.32569 2.32557 2.18724 2.49586 2.10047C2.5639 2.0658 2.66427 2.03593 2.86764 2.01931C3.07685 2.00222 3.34805 2.00183 3.74974 2.00183H4.83863C5.11477 2.00183 5.33863 1.77797 5.33863 1.50183C5.33863 1.22569 5.11477 1.00183 4.83863 1.00183H3.72928ZM12.2501 2.00183C12.6518 2.00183 12.923 2.00222 13.1322 2.01931C13.3356 2.03593 13.4359 2.0658 13.504 2.10047C13.6743 2.18724 13.8127 2.32569 13.8995 2.49598C13.9342 2.56402 13.964 2.66439 13.9806 2.86776C13.9977 3.07697 13.9981 3.34817 13.9981 3.74986V4.83875C13.9981 5.11489 14.222 5.33875 14.4981 5.33875C14.7743 5.33875 14.9981 5.11489 14.9981 4.83875V3.72939C14.9981 3.35336 14.9981 3.04109 14.9773 2.78633C14.9557 2.52112 14.909 2.2745 14.7905 2.04199C14.6079 1.68354 14.3164 1.39211 13.958 1.20947C13.7255 1.091 13.4788 1.0443 13.2136 1.02263C12.9589 1.00182 12.6466 1.00182 12.2706 1.00183H11.1612C10.8851 1.00183 10.6612 1.22569 10.6612 1.50183C10.6612 1.77797 10.8851 2.00183 11.1612 2.00183H12.2501ZM2.00171 11.1613C2.00171 10.8852 1.77785 10.6613 1.50171 10.6613C1.22557 10.6613 1.00171 10.8852 1.00171 11.1613V12.2707C1.0017 12.6467 1.0017 12.959 1.02251 13.2137C1.04418 13.479 1.09087 13.7256 1.20934 13.9581C1.39198 14.3165 1.68342 14.608 2.04187 14.7906C2.27438 14.9091 2.521 14.9558 2.78621 14.9774C3.04096 14.9983 3.3532 14.9983 3.72922 14.9982H4.83863C5.11477 14.9982 5.33863 14.7744 5.33863 14.4982C5.33863 14.2221 5.11477 13.9982 4.83863 13.9982H3.74974C3.34805 13.9982 3.07685 13.9979 2.86764 13.9808C2.66427 13.9641 2.5639 13.9343 2.49586 13.8996C2.32557 13.8128 2.18712 13.6744 2.10035 13.5041C2.06568 13.4361 2.03581 13.3357 2.01919 13.1323C2.0021 12.9231 2.00171 12.6519 2.00171 12.2502V11.1613ZM14.9981 11.1613C14.9981 10.8852 14.7743 10.6613 14.4981 10.6613C14.222 10.6613 13.9981 10.8852 13.9981 11.1613V12.2502C13.9981 12.6519 13.9977 12.9231 13.9806 13.1323C13.964 13.3357 13.9342 13.4361 13.8995 13.5041C13.8127 13.6744 13.6743 13.8128 13.504 13.8996C13.4359 13.9343 13.3356 13.9641 13.1322 13.9808C12.923 13.9979 12.6518 13.9982 12.2501 13.9982H11.1612C10.8851 13.9982 10.6612 14.2221 10.6612 14.4982C10.6612 14.7744 10.8851 14.9982 11.1612 14.9982H12.2706C12.6466 14.9983 12.9589 14.9983 13.2136 14.9774C13.4788 14.9558 13.7255 14.9091 13.958 14.7906C14.3164 14.608 14.6079 14.3165 14.7905 13.9581C14.909 13.7256 14.9557 13.479 14.9773 13.2137C14.9981 12.959 14.9981 12.6467 14.9981 12.2707V11.1613ZM4.6603 4.31167C4.467 4.31167 4.3103 4.46837 4.3103 4.66167V6.0692C4.3103 6.2625 4.467 6.4192 4.6603 6.4192H6.06783C6.26113 6.4192 6.41783 6.2625 6.41783 6.0692V4.66167C6.41783 4.46837 6.26113 4.31167 6.06783 4.31167H4.6603ZM7.64741 4.31178C7.55076 4.31178 7.47241 4.39013 7.47241 4.48678V5.19054C7.47241 5.28719 7.55076 5.36554 7.64741 5.36554H8.35118C8.44783 5.36554 8.52618 5.28719 8.52618 5.19054V4.48678C8.52618 4.39013 8.44783 4.31178 8.35118 4.31178H7.64741ZM5.36499 7.64846C5.36499 7.55181 5.44334 7.47346 5.53999 7.47346H6.24375C6.3404 7.47346 6.41875 7.55181 6.41875 7.64846V8.35223C6.41875 8.44888 6.3404 8.52723 6.24375 8.52723H5.53999C5.44334 8.52723 5.36499 8.44887 5.36499 8.35223V7.64846ZM9.22902 6.41989C9.42232 6.41989 9.57902 6.57659 9.57902 6.76989V9.23118C9.57902 9.42448 9.42232 9.58118 9.22902 9.58118H6.76772C6.57443 9.58118 6.41773 9.42448 6.41773 9.23118V8.87705C6.41773 8.68375 6.57443 8.52705 6.76773 8.52705H8.35159C8.44824 8.52705 8.52659 8.4487 8.52659 8.35205V7.64829C8.52659 7.55164 8.44824 7.47329 8.35159 7.47329H6.76773C6.57443 7.47329 6.41773 7.31659 6.41773 7.12329V6.76989C6.41773 6.57659 6.57443 6.41989 6.76773 6.41989H9.22902ZM10.6345 7.64846C10.6345 7.55181 10.7129 7.47346 10.8095 7.47346H11.5133C11.6099 7.47346 11.6883 7.55181 11.6883 7.64846V8.35223C11.6883 8.44888 11.6099 8.52723 11.5133 8.52723H10.8095C10.7129 8.52723 10.6345 8.44887 10.6345 8.35223V7.64846ZM7.64741 10.6342C7.55076 10.6342 7.47241 10.7125 7.47241 10.8092V11.5129C7.47241 11.6096 7.55076 11.6879 7.64741 11.6879H8.35118C8.44783 11.6879 8.52618 11.6096 8.52618 11.5129V10.8092C8.52618 10.7125 8.44783 10.6342 8.35118 10.6342H7.64741ZM4.3103 9.9306C4.3103 9.7373 4.467 9.5806 4.6603 9.5806H6.06783C6.26113 9.5806 6.41783 9.7373 6.41783 9.9306V11.3381C6.41783 11.5314 6.26113 11.6881 6.06783 11.6881H4.6603C4.467 11.6881 4.3103 11.5314 4.3103 11.3381V9.9306ZM9.92984 4.31178C9.73654 4.31178 9.57983 4.46848 9.57983 4.66178V6.06931C9.57983 6.26261 9.73654 6.41931 9.92984 6.41931H11.3374C11.5307 6.41931 11.6874 6.26261 11.6874 6.06931V4.66178C11.6874 4.46848 11.5307 4.31178 11.3374 4.31178H9.92984ZM9.57983 9.9306C9.57983 9.7373 9.73654 9.5806 9.92984 9.5806H11.3374C11.5307 9.5806 11.6874 9.7373 11.6874 9.9306V11.3381C11.6874 11.5314 11.5307 11.6881 11.3374 11.6881H9.92984C9.73654 11.6881 9.57983 11.5314 9.57983 11.3381V9.9306Z" fill="white"/>
</svg>
