<svg width="16" height="16" viewBox="0 0 16 16" fill="none" xmlns="http://www.w3.org/2000/svg">
<path fill-rule="evenodd" clip-rule="evenodd" d="M3.72928 1.00183C3.35324 1.00182 3.04098 1.00182 2.78621 1.02263C2.521 1.0443 2.27438 1.091 2.04187 1.20947C1.68342 1.39211 1.39198 1.68354 1.20934 2.04199C1.09087 2.2745 1.04418 2.52112 1.02251 2.78633C1.0017 3.0411 1.0017 3.35336 1.00171 3.72941V4.83875C1.00171 5.11489 1.22557 5.33875 1.50171 5.33875C1.77785 5.33875 2.00171 5.11489 2.00171 4.83875V3.74986C2.00171 3.34817 2.0021 3.07697 2.01919 2.86776C2.03581 2.66439 2.06568 2.56402 2.10035 2.49598C2.18712 2.32569 2.32557 2.18724 2.49586 2.10047C2.5639 2.0658 2.66427 2.03593 2.86764 2.01931C3.07685 2.00222 3.34805 2.00183 3.74974 2.00183H4.83863C5.11477 2.00183 5.33863 1.77797 5.33863 1.50183C5.33863 1.22569 5.11477 1.00183 4.83863 1.00183H3.72928ZM12.2501 2.00183C12.6518 2.00183 12.923 2.00222 13.1322 2.01931C13.3356 2.03593 13.4359 2.0658 13.504 2.10047C13.6743 2.18724 13.8127 2.32569 13.8995 2.49598C13.9342 2.56402 13.964 2.66439 13.9806 2.86776C13.9977 3.07697 13.9981 3.34817 13.9981 3.74986V4.83875C13.9981 5.11489 14.222 5.33875 14.4981 5.33875C14.7743 5.33875 14.9981 5.11489 14.9981 4.83875V3.72939C14.9981 3.35336 14.9981 3.04109 14.9773 2.78633C14.9557 2.52112 14.909 2.2745 14.7905 2.04199C14.6079 1.68354 14.3164 1.39211 13.958 1.20947C13.7255 1.091 13.4788 1.0443 13.2136 1.02263C12.9589 1.00182 12.6466 1.00182 12.2706 1.00183H11.1612C10.8851 1.00183 10.6612 1.22569 10.6612 1.50183C10.6612 1.77797 10.8851 2.00183 11.1612 2.00183H12.2501ZM2.00171 11.1613C2.00171 10.8852 1.77785 10.6613 1.50171 10.6613C1.22557 10.6613 1.00171 10.8852 1.00171 11.1613V12.2707C1.0017 12.6467 1.0017 12.959 1.02251 13.2137C1.04418 13.479 1.09087 13.7256 1.20934 13.9581C1.39198 14.3165 1.68342 14.608 2.04187 14.7906C2.27438 14.9091 2.521 14.9558 2.78621 14.9774C3.04096 14.9983 3.3532 14.9983 3.72922 14.9982H4.83863C5.11477 14.9982 5.33863 14.7744 5.33863 14.4982C5.33863 14.2221 5.11477 13.9982 4.83863 13.9982H3.74974C3.34805 13.9982 3.07685 13.9979 2.86764 13.9808C2.66427 13.9641 2.5639 13.9343 2.49586 13.8996C2.32557 13.8128 2.18712 13.6744 2.10035 13.5041C2.06568 13.4361 2.03581 13.3357 2.01919 13.1323C2.0021 12.9231 2.00171 12.6519 2.00171 12.2502V11.1613ZM14.9981 11.1613C14.9981 10.8852 14.7743 10.6613 14.4981 10.6613C14.222 10.6613 13.9981 10.8852 13.9981 11.1613V12.2502C13.9981 12.6519 13.9977 12.9231 13.9806 13.1323C13.964 13.3357 13.9342 13.4361 13.8995 13.5041C13.8127 13.6744 13.6743 13.8128 13.504 13.8996C13.4359 13.9343 13.3356 13.9641 13.1322 13.9808C12.923 13.9979 12.6518 13.9982 12.2501 13.9982H11.1612C10.8851 13.9982 10.6612 14.2221 10.6612 14.4982C10.6612 14.7744 10.8851 14.9982 11.1612 14.9982H12.2706C12.6466 14.9983 12.9589 14.9983 13.2136 14.9774C13.4788 14.9558 13.7255 14.9091 13.958 14.7906C14.3164 14.608 14.6079 14.3165 14.7905 13.9581C14.909 13.7256 14.9557 13.479 14.9773 13.2137C14.9981 12.959 14.9981 12.6467 14.9981 12.2707V11.1613ZM6.07017 5.71767C6.07017 6.29964 5.59839 6.77143 5.01641 6.77143C4.43443 6.77143 3.96265 6.29964 3.96265 5.71767C3.96265 5.13569 4.43443 4.6639 5.01641 4.6639C5.59839 4.6639 6.07017 5.13569 6.07017 5.71767ZM12.0409 5.71767C12.0409 6.29964 11.5691 6.77143 10.9871 6.77143C10.4051 6.77143 9.93335 6.29964 9.93335 5.71767C9.93335 5.13569 10.4051 4.6639 10.9871 4.6639C11.5691 4.6639 12.0409 5.13569 12.0409 5.71767ZM5.3936 10.21C5.25552 9.97085 4.94973 9.88891 4.71058 10.027C4.47144 10.1651 4.3895 10.4708 4.52757 10.71C4.87974 11.32 5.38628 11.8265 5.99626 12.1787C6.60625 12.5309 7.29819 12.7163 8.00254 12.7163C8.70688 12.7163 9.39882 12.5309 10.0088 12.1787C10.6188 11.8265 11.1253 11.32 11.4775 10.71C11.6156 10.4708 11.5336 10.1651 11.2945 10.027C11.0553 9.88891 10.7495 9.97085 10.6115 10.21C10.3471 10.668 9.96677 11.0483 9.50881 11.3127C9.05084 11.5771 8.53135 11.7163 8.00254 11.7163C7.47372 11.7163 6.95423 11.5771 6.49626 11.3127C6.0383 11.0483 5.658 10.668 5.3936 10.21ZM7.61272 5.79233C7.86258 5.67475 8.16045 5.78199 8.27803 6.03185L9.44821 8.51848C9.71351 9.08224 9.30218 9.73041 8.67912 9.73041H7.47437C7.19822 9.73041 6.97437 9.50655 6.97437 9.23041C6.97437 8.95426 7.19822 8.73041 7.47437 8.73041H8.44275L7.37321 6.45764C7.25563 6.20778 7.36286 5.90991 7.61272 5.79233Z" fill="white"/>
</svg>
