<svg width="16" height="16" viewBox="0 0 16 16" fill="none" xmlns="http://www.w3.org/2000/svg">
<path fill-rule="evenodd" clip-rule="evenodd" d="M8.24047 7.18863C8.23248 7.81546 8.80169 8.16529 9.2305 8.37326C9.67107 8.58667 9.81905 8.7235 9.81737 8.91431C9.814 9.20639 9.46592 9.33527 9.14011 9.34029C8.57174 9.34908 8.24131 9.18756 7.97856 9.06537L7.77383 10.019C8.03742 10.1399 8.52549 10.2454 9.03165 10.25C10.2197 10.25 10.997 9.66626 11.0012 8.76116C11.0058 7.61252 9.40496 7.54891 9.41589 7.03548C9.41967 6.87981 9.56892 6.71369 9.89598 6.67142C10.0578 6.65008 10.5047 6.63376 11.0113 6.866L11.2101 5.94332C10.9377 5.84457 10.5875 5.75 10.1516 5.75C9.03333 5.75 8.24677 6.34169 8.24047 7.18863ZM13.1208 5.82951C12.9039 5.82951 12.721 5.95546 12.6395 6.14878L10.9423 10.1822H12.1295L12.3658 9.53236H13.8166L13.9536 10.1822H15L14.0869 5.82951H13.1208ZM13.2869 7.00535L13.6295 8.63981H12.6912L13.2869 7.00535ZM6.80103 5.82951L5.86523 10.1822H6.99652L7.9319 5.82951H6.80103ZM5.12744 5.82951L3.94991 8.79212L3.47361 6.27306C3.41769 5.99186 3.19699 5.82951 2.95189 5.82951H1.02691L1 5.95588C1.39517 6.04124 1.84415 6.17891 2.11615 6.3262C2.28263 6.41617 2.33013 6.49484 2.38478 6.70867L3.28695 10.1822H4.48255L6.31548 5.82951H5.12744Z" fill="white"/>
</svg>
