<svg width="16" height="16" viewBox="0 0 16 16" fill="none" xmlns="http://www.w3.org/2000/svg">
<path fill-rule="evenodd" clip-rule="evenodd" d="M8.25098 1.67188C11.086 1.67188 12.504 1.67205 13.3848 2.56152C14.2655 3.45113 14.2656 4.88351 14.2656 7.74707V8.25293C14.2656 11.1165 14.2655 12.5489 13.3848 13.4385C12.504 14.328 11.0861 14.3281 8.25098 14.3281H7.75C4.91502 14.3281 3.49702 14.3278 2.61621 13.4385C1.73542 12.5489 1.73535 11.1165 1.73535 8.25293V7.74707C1.73535 4.88351 1.73542 3.45113 2.61621 2.56152C3.49702 1.67218 4.91504 1.67188 7.75 1.67188H8.25098ZM3.84961 5.52148C3.91747 8.81175 5.54575 10.7899 8.40137 10.79H8.56348V8.90723C9.61287 9.01268 10.4062 9.78817 10.7246 10.79H12.208C11.8008 9.2925 10.7298 8.46385 10.0615 8.14746C10.7298 7.75726 11.67 6.8081 11.8945 5.52148H10.5469C10.2545 6.56555 9.38837 7.51486 8.56348 7.60449V5.52148H7.2168V9.1709C6.38147 8.95999 5.32628 7.93654 5.2793 5.52148H3.84961Z" fill="white"/>
</svg>
