<svg width="16" height="16" viewBox="0 0 16 16" fill="none" xmlns="http://www.w3.org/2000/svg">
<path d="M5.2793 5.52148C5.32628 7.9364 6.38051 8.95991 7.21582 9.1709V5.52148H8.56348V7.60449C9.38823 7.51458 10.2545 6.56537 10.5469 5.52148H11.8936C11.6691 6.80796 10.7298 7.75718 10.0615 8.14746C10.7297 8.46383 11.7997 9.29182 12.207 10.7891H10.7246C10.4061 9.78749 9.61253 9.01284 8.56348 8.90723V10.7891H8.40137C5.54556 10.7891 3.9165 8.81186 3.84863 5.52148H5.2793Z" fill="white"/>
<path fill-rule="evenodd" clip-rule="evenodd" d="M8.25098 1.67188C11.086 1.67188 12.504 1.67205 13.3848 2.56152C14.2655 3.45113 14.2656 4.88351 14.2656 7.74707V8.25293C14.2656 11.1165 14.2655 12.5489 13.3848 13.4385C12.504 14.328 11.0861 14.3281 8.25098 14.3281H7.75C4.91503 14.3281 3.49703 14.3278 2.61621 13.4385C1.73543 12.5489 1.73535 11.1165 1.73535 8.25293V7.74707C1.73535 4.88351 1.73543 3.45113 2.61621 2.56152C3.49704 1.67219 4.91505 1.67188 7.75 1.67188H8.25098ZM7.78613 2.66992C5.39793 2.66992 4.20383 2.67059 3.46191 3.41992C2.72011 4.16927 2.71973 5.37514 2.71973 7.78711V8.21289C2.71973 10.625 2.72 11.8317 3.46191 12.5811C4.20386 13.3301 5.39823 13.3301 7.78613 13.3301H8.20801C10.596 13.3301 11.7903 13.3302 12.5322 12.5811C13.2741 11.8317 13.2744 10.625 13.2744 8.21289V7.78711C13.2744 5.37527 13.2739 4.16927 12.5322 3.41992C11.7903 2.67059 10.5962 2.66992 8.20801 2.66992H7.78613Z" fill="white"/>
</svg>
