<svg width="16" height="16" viewBox="0 0 16 16" fill="none" xmlns="http://www.w3.org/2000/svg">
<path fill-rule="evenodd" clip-rule="evenodd" d="M10.1527 5.14035C10.3513 4.94852 10.6678 4.95405 10.8597 5.15269C11.2223 5.52817 11.509 5.97299 11.7043 6.46133C11.8997 6.94964 12 7.47244 12 8.00002C12 8.52759 11.8997 9.05039 11.7043 9.5387C11.509 10.027 11.2223 10.4719 10.8597 10.8473C10.6678 11.046 10.3513 11.0515 10.1527 10.8597C9.95403 10.6679 9.94851 10.3513 10.1403 10.1527C10.4118 9.87156 10.628 9.53687 10.7759 9.16731C10.9237 8.79772 11 8.40102 11 8.00002C11 7.59901 10.9237 7.20231 10.7759 6.83272C10.628 6.46316 10.4118 6.12847 10.1403 5.84734C9.94851 5.6487 9.95403 5.33217 10.1527 5.14035Z" fill="white"/>
<path fill-rule="evenodd" clip-rule="evenodd" d="M7.19439 2.02689C7.57941 1.99307 7.95716 2.14667 8.20931 2.43959C8.40545 2.66743 8.45479 2.9676 8.47686 3.21767C8.50002 3.48004 8.50001 3.82168 8.5 4.23219V11.7678C8.50001 12.1784 8.50002 12.52 8.47686 12.7824C8.45479 13.0324 8.40545 13.3326 8.20931 13.5604C7.95716 13.8534 7.57941 14.007 7.19439 13.9731C6.89491 13.9468 6.65009 13.7663 6.45977 13.6026C6.26009 13.4308 6.02168 13.1861 5.73521 12.8921L3.89453 11.003C3.61398 10.715 3.22901 10.5526 2.82699 10.5526C1.81797 10.5526 1 9.73467 1 8.72565V7.27438C1 6.26536 1.81797 5.44738 2.82699 5.44738C3.22901 5.44738 3.61398 5.28499 3.89453 4.99705L5.73522 3.10793C6.02168 2.81391 6.26009 2.56922 6.45977 2.39746C6.65009 2.23376 6.89491 2.0532 7.19439 2.02689ZM7.29474 3.02234C7.28321 3.02815 7.22861 3.05519 7.11188 3.15559C6.9498 3.295 6.74228 3.5073 6.43445 3.82323L4.61076 5.69492C4.14198 6.17603 3.49873 6.44738 2.82699 6.44738C2.37026 6.44738 2 6.81764 2 7.27438V8.72565C2 9.18239 2.37026 9.55265 2.82699 9.55265C3.49873 9.55265 4.14198 9.824 4.61076 10.3051L6.43445 12.1768C6.74228 12.4927 6.9498 12.705 7.11188 12.8444C7.22861 12.9448 7.28321 12.9719 7.29474 12.9777C7.35027 12.979 7.4039 12.9572 7.44275 12.9175C7.44695 12.9053 7.4672 12.8478 7.48073 12.6945C7.49953 12.4815 7.5 12.1846 7.5 11.7435V4.25651C7.5 3.81541 7.49953 3.51853 7.48073 3.30558C7.4672 3.15219 7.44695 3.09472 7.44275 3.08253C7.4039 3.04283 7.35027 3.02103 7.29474 3.02234Z" fill="white"/>
</svg>
