<svg width="16" height="16" viewBox="0 0 16 16" fill="none" xmlns="http://www.w3.org/2000/svg">
<path d="M1.5 8.72565V7.27438C1.5 6.5415 2.09412 5.94738 2.82699 5.94738C3.36387 5.94738 3.87798 5.73051 4.25264 5.34598L6.07634 3.4743C6.67821 2.85658 6.97915 2.54772 7.23815 2.52497C7.46281 2.50523 7.68324 2.59486 7.83038 2.76579C8 2.96283 8 3.39406 8 4.25651V11.7435C8 12.606 8 13.0372 7.83038 13.2342C7.68324 13.4052 7.46281 13.4948 7.23815 13.4751C6.97915 13.4523 6.67821 13.1434 6.07634 12.5257L4.25264 10.654C3.87798 10.2695 3.36387 10.0526 2.82699 10.0526C2.09412 10.0526 1.5 9.45853 1.5 8.72565Z" fill="white"/>
<path fill-rule="evenodd" clip-rule="evenodd" d="M10.1464 5.64646C10.3417 5.4512 10.6583 5.4512 10.8536 5.64646L12.5 7.29291L14.1464 5.64646C14.3417 5.4512 14.6583 5.4512 14.8536 5.64646C15.0488 5.84172 15.0488 6.1583 14.8536 6.35357L13.2071 8.00001L14.8536 9.64646C15.0488 9.84172 15.0488 10.1583 14.8536 10.3536C14.6583 10.5488 14.3417 10.5488 14.1464 10.3536L12.5 8.70712L10.8536 10.3536C10.6583 10.5488 10.3417 10.5488 10.1464 10.3536C9.95118 10.1583 9.95118 9.84172 10.1464 9.64646L11.7929 8.00001L10.1464 6.35357C9.95118 6.1583 9.95118 5.84172 10.1464 5.64646Z" fill="white"/>
</svg>
