<svg width="16" height="16" viewBox="0 0 16 16" fill="none" xmlns="http://www.w3.org/2000/svg">
<path fill-rule="evenodd" clip-rule="evenodd" d="M4.27893 2.5H11.7175C12.1896 2.49999 12.5743 2.49999 12.8865 2.5255C13.2093 2.55187 13.4985 2.60797 13.7679 2.74524C14.1913 2.96095 14.5355 3.30516 14.7512 3.72852C14.8885 3.99793 14.9445 4.28715 14.9709 4.60989C14.9964 4.92215 14.9964 5.30677 14.9964 5.77891V10.2182C14.9964 10.6904 14.9964 11.075 14.9709 11.3873C14.9445 11.71 14.8885 11.9992 14.7512 12.2686C14.5355 12.692 14.1913 13.0362 13.7679 13.2519C13.4985 13.3892 13.2093 13.4453 12.8865 13.4716C12.5743 13.4972 12.1896 13.4972 11.7175 13.4972H4.27891C3.80677 13.4972 3.42215 13.4972 3.10989 13.4716C2.78715 13.4453 2.49793 13.3892 2.22852 13.2519C1.80516 13.0362 1.46095 12.692 1.24524 12.2686C1.10797 11.9992 1.05187 11.71 1.0255 11.3873C0.99999 11.075 0.999995 10.6904 1 10.2182V5.77892C0.999995 5.30678 0.99999 4.92215 1.0255 4.60989C1.05187 4.28715 1.10797 3.99793 1.24524 3.72852C1.46095 3.30516 1.80516 2.96095 2.22852 2.74524C2.49793 2.60797 2.78715 2.55187 3.10989 2.5255C3.42215 2.49999 3.80678 2.49999 4.27893 2.5ZM3.19132 3.52218C2.93042 3.5435 2.78745 3.58277 2.68251 3.63624C2.44731 3.75608 2.25608 3.94731 2.13624 4.18251C2.08277 4.28745 2.0435 4.43042 2.02218 4.69132C2.00039 4.95805 2 5.3017 2 5.8V10.1972C2 10.6954 2.00039 11.0391 2.02218 11.3058C2.0435 11.5667 2.08277 11.7097 2.13624 11.8146C2.25608 12.0498 2.44731 12.2411 2.68251 12.3609C2.78745 12.4144 2.93042 12.4537 3.19132 12.475C3.45805 12.4968 3.8017 12.4972 4.3 12.4972H11.6964C12.1947 12.4972 12.5384 12.4968 12.8051 12.475C13.066 12.4537 13.209 12.4144 13.3139 12.3609C13.5491 12.2411 13.7403 12.0498 13.8602 11.8146C13.9136 11.7097 13.9529 11.5667 13.9742 11.3058C13.996 11.0391 13.9964 10.6954 13.9964 10.1972V5.8C13.9964 5.3017 13.996 4.95805 13.9742 4.69132C13.9529 4.43042 13.9136 4.28745 13.8602 4.18251C13.7403 3.94731 13.5491 3.75608 13.3139 3.63624C13.209 3.58277 13.066 3.5435 12.8051 3.52218C12.5384 3.50039 12.1947 3.5 11.6964 3.5H4.3C3.8017 3.5 3.45805 3.50039 3.19132 3.52218ZM3.10742 7.13577C3.10742 6.85963 3.33128 6.63577 3.60742 6.63577H5.38736C5.80677 6.63577 6.15119 6.85524 6.37562 7.11181C6.53144 7.28993 6.71772 7.4421 6.92742 7.56092C7.25236 7.74504 7.62167 7.84233 7.99813 7.84233C8.37459 7.84233 8.74389 7.74504 9.06884 7.56092C9.27853 7.4421 9.46482 7.28993 9.62063 7.11181C9.84507 6.85524 10.1895 6.63577 10.6089 6.63577H12.3888C12.6649 6.63577 12.8888 6.85963 12.8888 7.13577C12.8888 7.41192 12.6649 7.63577 12.3888 7.63577H10.6089C10.5518 7.63577 10.4626 7.66812 10.3733 7.77021C10.1433 8.03317 9.86914 8.25682 9.56183 8.43096C9.08581 8.70068 8.54654 8.84233 7.99813 8.84233C7.44972 8.84233 6.91045 8.70068 6.43443 8.43096C6.12711 8.25682 5.85299 8.03317 5.62296 7.77021C5.53365 7.66812 5.44447 7.63577 5.38736 7.63577H3.60742C3.33128 7.63577 3.10742 7.41192 3.10742 7.13577ZM3.60742 4.56838C3.33128 4.56838 3.10742 4.79223 3.10742 5.06838C3.10742 5.34452 3.33128 5.56838 3.60742 5.56838H12.3888C12.6649 5.56838 12.8888 5.34452 12.8888 5.06838C12.8888 4.79223 12.6649 4.56838 12.3888 4.56838H3.60742Z" fill="white"/>
</svg>
