<svg width="16" height="16" viewBox="0 0 16 16" fill="none" xmlns="http://www.w3.org/2000/svg">
<path fill-rule="evenodd" clip-rule="evenodd" d="M10.4731 2.54207C10.6959 2.51755 10.832 2.50299 10.9339 2.50039C11.0047 2.49859 11.0319 2.50394 11.0378 2.50543C11.0784 2.52243 11.1112 2.55184 11.1319 2.5881C11.1341 2.59427 11.1417 2.62012 11.1473 2.68558C11.1559 2.78541 11.1564 2.92035 11.1564 3.14265V4.83661L3.17117 4.23736C2.92957 4.21923 2.75 4.02136 2.75 3.7917C2.75 3.56789 2.92067 3.37333 3.1551 3.34753L10.4731 2.54207ZM3.0457 2.35353C2.31186 2.4343 1.75 3.05047 1.75 3.7917V10.7579C1.74999 11.1919 1.74999 11.5469 1.77312 11.8368C1.79712 12.1375 1.84821 12.4083 1.97259 12.6643C2.16848 13.0675 2.48202 13.4021 2.87163 13.6252C3.11852 13.7666 3.38566 13.8372 3.68548 13.8834C3.97497 13.9281 4.3319 13.9549 4.76906 13.9877L10.7333 14.4352C11.2356 14.4729 11.6434 14.5036 11.9748 14.5008C12.3163 14.498 12.6242 14.4607 12.9138 14.3331C13.3671 14.1335 13.7416 13.79 13.9778 13.3556C14.129 13.0775 14.1901 12.7742 14.2188 12.4361C14.2467 12.1083 14.2467 11.7027 14.2467 11.2042V8.07169C14.2467 7.63778 14.2467 7.28268 14.2235 6.99279C14.1995 6.69215 14.1484 6.42137 14.0241 6.16536C13.8282 5.76216 13.5146 5.42753 13.125 5.20441C12.8781 5.06303 12.611 4.99247 12.3112 4.94621C12.2616 4.93856 12.21 4.93143 12.1564 4.92471V3.12367C12.1564 2.92646 12.1564 2.74784 12.1437 2.59995C12.1301 2.44203 12.099 2.26935 12.0063 2.10297C11.8747 1.86683 11.6667 1.6829 11.4172 1.58021C11.242 1.50808 11.0673 1.49666 10.9084 1.50072C10.7592 1.50452 10.5806 1.52419 10.3824 1.54602L3.0457 2.35353ZM2.75 10.7376V5.20859L11.1327 5.83766C11.5947 5.87233 11.9125 5.89653 12.1587 5.93452C12.399 5.9716 12.531 6.01658 12.6281 6.07219C12.8443 6.196 13.017 6.38097 13.1246 6.60236C13.1725 6.70102 13.2076 6.83316 13.2267 7.07234C13.2463 7.31776 13.2467 7.63284 13.2467 8.09199V11.1821C13.2467 11.708 13.2462 12.071 13.2224 12.3515C13.1991 12.6263 13.1562 12.7732 13.0992 12.8781C12.9694 13.1168 12.7628 13.307 12.5108 13.4179C12.3991 13.4671 12.2461 13.4986 11.9666 13.5009C11.6818 13.5032 11.3156 13.4761 10.7865 13.4364L4.86395 12.992C4.40198 12.9573 4.08419 12.9331 3.83795 12.8951C3.59763 12.858 3.46569 12.8131 3.36857 12.7574C3.15238 12.6336 2.97961 12.4487 2.87205 12.2273C2.82411 12.1286 2.78904 11.9965 2.76996 11.7573C2.75037 11.5119 2.75 11.1968 2.75 10.7376ZM10.1253 9.00922C9.84998 8.98853 9.60998 9.19499 9.5893 9.47036C9.56861 9.74572 9.77507 9.98572 10.0504 10.0064L11.7924 10.1373C12.0677 10.1579 12.3077 9.95148 12.3284 9.67612C12.3491 9.40075 12.1426 9.16075 11.8673 9.14007L10.1253 9.00922Z" fill="white"/>
</svg>
