<svg width="16" height="16" viewBox="0 0 16 16" fill="none" xmlns="http://www.w3.org/2000/svg">
<path fill-rule="evenodd" clip-rule="evenodd" d="M11.1375 2.5H4.86253C4.29354 2.5 3.83461 2.49999 3.46297 2.52981C3.08033 2.56052 2.74423 2.62539 2.43328 2.781C1.93935 3.02817 1.53778 3.42258 1.28611 3.90768C1.12767 4.21308 1.06162 4.54318 1.03035 4.91899C0.999991 5.28399 0.999995 5.73472 1 6.29355V9.70645C0.999995 10.2653 0.999991 10.716 1.03035 11.081C1.06162 11.4568 1.12767 11.7869 1.28611 12.0923C1.53778 12.5774 1.93935 12.9718 2.43328 13.219C2.74423 13.3746 3.08033 13.4395 3.46297 13.4702C3.8346 13.5 4.2935 13.5 4.86246 13.5H11.1375C11.7064 13.5 12.1654 13.5 12.537 13.4702C12.9197 13.4395 13.2558 13.3746 13.5667 13.219C14.0606 12.9718 14.4622 12.5774 14.7139 12.0923C14.8723 11.7869 14.9384 11.4568 14.9696 11.081C15 10.716 15 10.2653 15 9.70651V6.29354C15 5.73474 15 5.28398 14.9696 4.91899C14.9384 4.54318 14.8723 4.21308 14.7139 3.90768C14.4622 3.42258 14.0606 3.02817 13.5667 2.781C13.2558 2.62539 12.9197 2.56052 12.537 2.52981C12.1654 2.49999 11.7065 2.5 11.1375 2.5ZM3.125 5.07813C3.125 4.80198 3.34886 4.57813 3.625 4.57813H12.375C12.6511 4.57813 12.875 4.80198 12.875 5.07813C12.875 5.35427 12.6511 5.57813 12.375 5.57813H3.625C3.34886 5.57813 3.125 5.35427 3.125 5.07813ZM3.125 7.14062C3.125 6.86448 3.34886 6.64062 3.625 6.64062H5.39706C5.81665 6.64062 6.16108 6.86028 6.38549 7.11674C6.54049 7.29387 6.72571 7.44521 6.93415 7.56341C7.25765 7.74684 7.62529 7.84375 8.00003 7.84375C8.37476 7.84375 8.7424 7.74684 9.0659 7.56341C9.27434 7.44521 9.45956 7.29387 9.61456 7.11674C9.83898 6.86028 10.1834 6.64062 10.603 6.64062H12.375C12.6511 6.64062 12.875 6.86448 12.875 7.14062C12.875 7.41677 12.6511 7.64062 12.375 7.64062H10.603C10.5459 7.64062 10.4566 7.67299 10.3671 7.77526C10.138 8.03708 9.86509 8.25981 9.55915 8.43329C9.08455 8.70241 8.54686 8.84375 8.00003 8.84375C7.45319 8.84375 6.9155 8.70241 6.4409 8.43329C6.13496 8.25981 5.86203 8.03708 5.63293 7.77526C5.54343 7.67299 5.45417 7.64062 5.39706 7.64062H3.625C3.34886 7.64062 3.125 7.41677 3.125 7.14062Z" fill="white"/>
</svg>
