<svg width="16" height="16" viewBox="0 0 16 16" fill="none" xmlns="http://www.w3.org/2000/svg">
<path fill-rule="evenodd" clip-rule="evenodd" d="M7.29367 4.14993C7.5631 3.68326 8.23668 3.68326 8.50611 4.14993L12.7496 11.4999C13.0191 11.9666 12.6823 12.5499 12.1434 12.5499H3.65637C3.11751 12.5499 2.78072 11.9666 3.05015 11.4999L7.29367 4.14993ZM4.26258 11.4999L7.89989 5.19993L11.5372 11.4999H4.26258Z" fill="white"/>
<path fill-rule="evenodd" clip-rule="evenodd" d="M6.3844 3.625C7.05797 2.45833 8.74191 2.45833 9.41549 3.625L13.659 10.975C14.3326 12.1417 13.4906 13.6 12.1435 13.6H3.65642C2.30927 13.6 1.4673 12.1417 2.14087 10.975L6.3844 3.625ZM8.80927 3.975L13.0528 11.325C13.4569 12.025 12.9518 12.9 12.1435 12.9H3.65642C2.84813 12.9 2.34295 12.025 2.74709 11.325L6.99062 3.975C7.39476 3.275 8.40512 3.275 8.80927 3.975Z" fill="white"/>
</svg>
