<svg width="16" height="16" viewBox="0 0 16 16" fill="none" xmlns="http://www.w3.org/2000/svg">
<path fill-rule="evenodd" clip-rule="evenodd" d="M5.16197 1.94443C5.29217 1.39108 5.78595 1 6.35441 1H9.44559C10.0141 1 10.5078 1.39108 10.638 1.94443L11.211 4.37975L11.204 4.38142C11.9381 5.0521 12.4674 5.9432 12.6872 6.95H13.325C13.4216 6.95 13.5 7.02835 13.5 7.125V8.875C13.5 8.97165 13.4216 9.05 13.325 9.05H12.6872C12.4674 10.0568 11.9381 10.9479 11.204 11.6186L11.211 11.6202L10.638 14.0556C10.5078 14.6089 10.0141 15 9.44559 15H6.35441C5.78595 15 5.29217 14.6089 5.16197 14.0556L4.58896 11.6202L4.59603 11.6186C3.61525 10.7226 3 9.43313 3 8C3 6.56687 3.61525 5.27743 4.59603 4.38142L4.58896 4.37975L5.16197 1.94443ZM4.05 8C4.05 5.8737 5.7737 4.15 7.9 4.15C10.0263 4.15 11.75 5.8737 11.75 8C11.75 10.1263 10.0263 11.85 7.9 11.85C5.7737 11.85 4.05 10.1263 4.05 8ZM8.40039 5.5498C8.40039 5.27366 8.17653 5.0498 7.90039 5.0498C7.62425 5.0498 7.40039 5.27366 7.40039 5.5498V8.3498C7.40039 8.51698 7.48394 8.6731 7.62304 8.76583L9.19804 9.81583C9.4278 9.96901 9.73824 9.90692 9.89142 9.67715C10.0446 9.44739 9.9825 9.13696 9.75274 8.98378L8.40039 8.08221V5.5498Z" fill="white"/>
</svg>
