<svg width="16" height="16" viewBox="0 0 16 16" fill="none" xmlns="http://www.w3.org/2000/svg">
<path fill-rule="evenodd" clip-rule="evenodd" d="M6.9475 1C6.87204 0.999984 6.78871 0.999964 6.71585 1.00549C6.63222 1.01184 6.52404 1.02746 6.40993 1.07917C6.25599 1.14894 6.12553 1.26115 6.03411 1.40241C5.96634 1.50712 5.93546 1.6111 5.91729 1.6923C5.90147 1.76305 5.8897 1.84486 5.87905 1.91895L5.69575 3.1914C5.54176 3.22643 5.3946 3.27622 5.25261 3.34796C4.82094 3.56608 4.46999 3.91411 4.25004 4.34218C4.10951 4.61569 4.05252 4.90857 4.0258 5.23286C3.99999 5.54615 3.99999 5.93165 4 6.40301V9.597C3.99999 10.0684 3.99999 10.4539 4.0258 10.7672C4.05252 11.0914 4.10951 11.3843 4.25004 11.6578C4.46999 12.0859 4.82094 12.4339 5.25261 12.652C5.3946 12.7238 5.54176 12.7736 5.69575 12.8086L5.87905 14.0811C5.8897 14.1551 5.90147 14.237 5.91729 14.3077C5.93546 14.3889 5.96634 14.4929 6.03411 14.5976C6.12553 14.7389 6.25599 14.8511 6.40993 14.9208C6.52404 14.9726 6.63222 14.9882 6.71585 14.9945C6.7887 15 6.87202 15 6.94748 15H9.52308C9.59853 15 9.68189 15 9.75474 14.9945C9.83837 14.9882 9.94654 14.9726 10.0607 14.9208C10.2146 14.8511 10.3451 14.7389 10.4365 14.5976C10.5042 14.4929 10.5351 14.3889 10.5533 14.3077C10.5691 14.237 10.5809 14.1552 10.5915 14.0811L10.7748 12.8086C10.9288 12.7736 11.076 12.7238 11.218 12.652C11.6496 12.4339 12.0006 12.0859 12.2205 11.6578C12.3611 11.3843 12.4181 11.0914 12.4448 10.7672C12.4706 10.4539 12.4706 10.0684 12.4706 9.59703V7.3H12.8235C12.921 7.3 13 7.22165 13 7.125V5.375C13 5.27835 12.921 5.2 12.8235 5.2H12.4706C12.4609 5.2 12.4514 5.20078 12.4422 5.20226C12.4144 4.89012 12.3566 4.60707 12.2205 4.34218C12.0006 3.91411 11.6496 3.56608 11.218 3.34796C11.076 3.27622 10.9288 3.22643 10.7748 3.1914L10.5915 1.91894C10.5809 1.84487 10.5691 1.76304 10.5533 1.69231C10.5351 1.6111 10.5042 1.50712 10.4365 1.40241C10.3451 1.26115 10.2146 1.14894 10.0607 1.07917C9.94654 1.02746 9.83837 1.01184 9.75474 1.00549C9.68188 0.999964 9.59854 0.999984 9.52308 1H6.9475ZM6.237 4.1721C5.97547 4.19329 5.83498 4.23215 5.73331 4.28352C5.50087 4.40097 5.31189 4.58837 5.19346 4.81887C5.14166 4.91969 5.10248 5.05901 5.08111 5.31836C5.05924 5.58384 5.05882 5.9263 5.05882 6.425V9.575C5.05882 10.0737 5.05924 10.4162 5.08111 10.6816C5.10248 10.941 5.14166 11.0803 5.19346 11.1811C5.31189 11.4116 5.50087 11.599 5.73331 11.7165C5.83498 11.7679 5.97547 11.8067 6.237 11.8279C6.50471 11.8496 6.85004 11.85 7.35294 11.85H9.11765C9.62055 11.85 9.96588 11.8496 10.2336 11.8279C10.4951 11.8067 10.6356 11.7679 10.7373 11.7165C10.9697 11.599 11.1587 11.4116 11.2771 11.1811C11.3289 11.0803 11.3681 10.941 11.3895 10.6816C11.4114 10.4162 11.4118 10.0737 11.4118 9.575V6.425C11.4118 5.9263 11.4114 5.58384 11.3895 5.31836C11.3681 5.05901 11.3289 4.91969 11.2771 4.81887C11.1587 4.58837 10.9697 4.40097 10.7373 4.28352C10.6356 4.23215 10.4951 4.19329 10.2336 4.1721C9.96588 4.15041 9.62055 4.15 9.11765 4.15H7.35294C6.85004 4.15 6.50471 4.15041 6.237 4.1721Z" fill="white"/>
</svg>
