<svg width="16" height="16" viewBox="0 0 16 16" fill="none" xmlns="http://www.w3.org/2000/svg">
<path fill-rule="evenodd" clip-rule="evenodd" d="M5.16618 1.92741C5.29361 1.38521 5.77738 1.00195 6.33436 1.00195H9.43526C9.99224 1.00195 10.476 1.38521 10.6034 1.92741L11.1782 4.37318L11.1664 4.37597C11.9039 5.04554 12.436 5.93758 12.6572 6.94613H13.3248C13.4214 6.94613 13.4998 7.02448 13.4998 7.12113V8.87862C13.4998 8.97527 13.4214 9.05362 13.3248 9.05362H12.6571C12.4358 10.0624 11.9033 10.9546 11.1655 11.6242L11.1782 11.6272L10.6034 14.0729C10.476 14.6151 9.99224 14.9984 9.43526 14.9984H6.33436C5.77738 14.9984 5.29361 14.6151 5.16618 14.0729L4.59139 11.6272L4.60511 11.6239C3.61914 10.7291 3 9.43661 3 7.99968C3 6.56317 3.61878 5.27105 4.60426 4.37621L4.59139 4.37318L5.16618 1.92741ZM5.8068 3.57252C6.43749 3.27525 7.14204 3.10906 7.88544 3.10906C8.62828 3.10906 9.33233 3.275 9.96266 3.57185L9.62995 2.1562C9.60872 2.06583 9.52809 2.00195 9.43526 2.00195H6.33436C6.24153 2.00195 6.1609 2.06583 6.13966 2.1562L5.8068 3.57252ZM5.80654 12.4267L6.13966 13.8441C6.1609 13.9345 6.24153 13.9984 6.33436 13.9984H9.43526C9.52809 13.9984 9.60872 13.9345 9.62995 13.8441L9.96291 12.4274C9.33252 12.7243 8.62838 12.8903 7.88544 12.8903C7.14194 12.8903 6.4373 12.7241 5.80654 12.4267ZM4 7.99968C4 5.85039 5.74013 4.10906 7.88544 4.10906C10.0308 4.10906 11.7709 5.85039 11.7709 7.99968C11.7709 10.149 10.0308 11.8903 7.88544 11.8903C5.74013 11.8903 4 10.149 4 7.99968ZM8.38477 5.54172C8.38477 5.26557 8.16091 5.04172 7.88477 5.04172C7.60862 5.04172 7.38477 5.26557 7.38477 5.54172V8.35171C7.38477 8.51879 7.46822 8.67483 7.60719 8.76759L9.18595 9.82133C9.41563 9.97464 9.7261 9.91272 9.8794 9.68304C10.0327 9.45336 9.97078 9.14289 9.7411 8.98959L8.38477 8.08429V5.54172Z" fill="white"/>
</svg>
