<svg width="16" height="16" viewBox="0 0 16 16" fill="none" xmlns="http://www.w3.org/2000/svg">
<path fill-rule="evenodd" clip-rule="evenodd" d="M6.92063 1C6.84557 0.999985 6.76392 0.999967 6.69272 1.00541C6.61134 1.01164 6.50743 1.02687 6.39809 1.07679C6.24989 1.14446 6.12426 1.25329 6.03615 1.39033C5.97115 1.49143 5.94126 1.59211 5.9235 1.67177C5.90795 1.74146 5.89633 1.82228 5.88565 1.89658L5.69933 3.18998C5.53468 3.22496 5.37853 3.27623 5.22852 3.35266C4.80516 3.56837 4.46095 3.91258 4.24524 4.33594C4.10797 4.60535 4.05187 4.89457 4.0255 5.21731C3.99999 5.52958 3.99999 5.9142 4 6.38635V9.60985C3.99999 10.082 3.99999 10.4666 4.0255 10.7789C4.05187 11.1016 4.10797 11.3909 4.24524 11.6603C4.46095 12.0836 4.80516 12.4278 5.22852 12.6435C5.3785 12.72 5.53461 12.7712 5.69924 12.8062L5.88565 14.1003C5.89633 14.1746 5.90795 14.2554 5.9235 14.3251C5.94126 14.4048 5.97115 14.5054 6.03615 14.6065C6.12426 14.7436 6.24989 14.8524 6.39809 14.9201C6.50743 14.97 6.61134 14.9852 6.69272 14.9915C6.76392 14.9969 6.84557 14.9969 6.92063 14.9969H9.51708C9.59214 14.9969 9.6738 14.9969 9.74499 14.9915C9.82637 14.9852 9.93029 14.97 10.0396 14.9201C10.1878 14.8524 10.3135 14.7436 10.4016 14.6065C10.4666 14.5054 10.4965 14.4048 10.5142 14.3251C10.5298 14.2554 10.5414 14.1746 10.5521 14.1003L10.7385 12.8062C10.9032 12.7713 11.0593 12.72 11.2094 12.6435C11.6327 12.4278 11.9769 12.0836 12.1926 11.6603C12.3299 11.3909 12.386 11.1016 12.4124 10.7789C12.4379 10.4666 12.4379 10.082 12.4379 9.6099V7.29278C12.447 7.29426 12.4564 7.29503 12.466 7.29503H12.8239C12.9205 7.29503 12.9989 7.21668 12.9989 7.12003V5.3625C12.9989 5.26585 12.9205 5.1875 12.8239 5.1875H12.466C12.4467 5.1875 12.428 5.19064 12.4106 5.19645C12.3835 4.88209 12.327 4.59953 12.1926 4.33594C11.9769 3.91258 11.6327 3.56837 11.2094 3.35266C11.0593 3.2762 10.9031 3.22493 10.7384 3.18994L10.5521 1.89659C10.5414 1.82232 10.5298 1.74144 10.5142 1.67177C10.4965 1.59211 10.4666 1.49143 10.4016 1.39033C10.3135 1.25329 10.1878 1.14446 10.0396 1.07679C9.93029 1.02687 9.82638 1.01164 9.74499 1.00541C9.6738 0.999967 9.59215 0.999985 9.51709 1H6.92063ZM7.27892 3.10742C7.0775 3.10742 6.89201 3.10742 6.72126 3.1094L6.88111 2.00004H9.55661L9.71645 3.10939C9.54576 3.10742 9.36032 3.10742 9.15896 3.10742H7.27892ZM6.72117 12.8868C6.89193 12.8888 7.07746 12.8888 7.27891 12.8888H9.15897C9.36036 12.8888 9.54583 12.8888 9.71655 12.8868L9.55661 13.9968H6.88111L6.72117 12.8868ZM6.19132 4.1296C5.93042 4.15092 5.78745 4.19019 5.68251 4.24366C5.44731 4.36351 5.25608 4.55473 5.13624 4.78993C5.08277 4.89487 5.0435 5.03785 5.02218 5.29874C5.00039 5.56547 5 5.90912 5 6.40742V9.58878C5 10.0871 5.00039 10.4307 5.02218 10.6975C5.0435 10.9584 5.08277 11.1013 5.13624 11.2063C5.25608 11.4415 5.44731 11.6327 5.68251 11.7525C5.78745 11.806 5.93042 11.8453 6.19132 11.8666C6.45805 11.8884 6.8017 11.8888 7.3 11.8888H9.13788C9.63618 11.8888 9.97983 11.8884 10.2466 11.8666C10.5075 11.8453 10.6504 11.806 10.7554 11.7525C10.9906 11.6327 11.1818 11.4415 11.3016 11.2063C11.3551 11.1013 11.3944 10.9584 11.4157 10.6975C11.4375 10.4307 11.4379 10.0871 11.4379 9.58878V6.40742C11.4379 5.90913 11.4375 5.56547 11.4157 5.29874C11.3944 5.03785 11.3551 4.89487 11.3016 4.78993C11.1818 4.55473 10.9906 4.36351 10.7554 4.24366C10.6504 4.19019 10.5075 4.15092 10.2466 4.1296C9.97983 4.10781 9.63618 4.10742 9.13788 4.10742H7.3C6.8017 4.10742 6.45805 4.10781 6.19132 4.1296Z" fill="white"/>
</svg>
