<svg width="16" height="16" viewBox="0 0 16 16" fill="none" xmlns="http://www.w3.org/2000/svg">
<path d="M2.76367 13.0996C2.80724 13.4741 2.97032 13.8253 3.22852 14.0996H2.40039C2.12425 14.0996 1.90039 13.8758 1.90039 13.5996C1.9006 13.3236 2.12438 13.0996 2.40039 13.0996H2.76367Z" fill="white"/>
<path d="M9.85254 13.4893C9.93654 13.724 10.0666 13.9291 10.2275 14.0996H5.77441C5.9352 13.9292 6.06447 13.7239 6.14844 13.4893L6.28711 13.0996H9.71289L9.85254 13.4893Z" fill="white"/>
<path fill-rule="evenodd" clip-rule="evenodd" d="M8 2.40039L8.10938 2.4082C8.35941 2.44772 8.57214 2.62153 8.65918 2.86523L12.1592 12.665C12.2659 12.9646 12.1544 13.286 11.9092 13.4639C11.8566 13.5023 11.7997 13.5365 11.7354 13.5596L11.5977 13.5938C11.5518 13.6002 11.5061 13.6003 11.4609 13.5977H11.457C11.4169 13.5951 11.3776 13.5884 11.3389 13.5791C11.3263 13.5761 11.3141 13.572 11.3018 13.5684C11.2727 13.5597 11.2445 13.5494 11.2168 13.5371C11.2042 13.5315 11.1919 13.5258 11.1797 13.5195C11.1562 13.5074 11.1334 13.4943 11.1113 13.4795C11.096 13.4692 11.0809 13.4588 11.0664 13.4473C11.046 13.4311 11.0274 13.413 11.0088 13.3945C10.9977 13.3835 10.986 13.3731 10.9756 13.3613C10.9517 13.3342 10.9298 13.3054 10.9102 13.2744C10.9078 13.2707 10.9046 13.2675 10.9023 13.2637L10.8926 13.249C10.8722 13.2135 10.8551 13.1756 10.8408 13.1357L10.8369 13.124L9.88184 10.4502H6.11816L5.16309 13.124L5.15918 13.1357L5.09863 13.2637C5.07492 13.3028 5.04677 13.3381 5.0166 13.3711C5.01442 13.3735 5.01197 13.3756 5.00977 13.3779C4.9838 13.4056 4.95558 13.4303 4.92578 13.4531C4.91383 13.4623 4.90116 13.4702 4.88867 13.4785C4.86452 13.4947 4.84037 13.5104 4.81445 13.5234C4.80205 13.5297 4.78912 13.5345 4.77637 13.54C4.75141 13.5508 4.72628 13.5605 4.7002 13.5684C4.68375 13.5733 4.6672 13.5773 4.65039 13.5811C4.6227 13.5872 4.59483 13.591 4.56641 13.5938C4.55401 13.5949 4.54179 13.5971 4.5293 13.5977C4.49169 13.5993 4.45407 13.5974 4.41602 13.5928C4.41021 13.5921 4.40425 13.5927 4.39844 13.5918C4.35372 13.5852 4.30882 13.5753 4.26465 13.5596C4.22115 13.544 4.18069 13.5238 4.14258 13.501C4.13892 13.4988 4.13544 13.4964 4.13184 13.4941C4.09645 13.472 4.06342 13.4474 4.0332 13.4199C4.02788 13.4151 4.02274 13.4102 4.01758 13.4053C3.9953 13.3837 3.97415 13.3611 3.95508 13.3369C3.9404 13.3186 3.92776 13.299 3.91504 13.2793C3.90427 13.2624 3.89407 13.2452 3.88477 13.2275C3.79562 13.0599 3.77208 12.858 3.84082 12.665L7.34082 2.86523L7.38574 2.76562C7.50687 2.54334 7.74117 2.4005 8 2.40039ZM7.17188 7.5L7.11914 7.64648L6.61816 9.0498H9.38184L8 5.18066L7.17188 7.5Z" fill="white"/>
<path d="M3.21289 11.2998H2.40039C2.12425 11.2998 1.90039 11.0759 1.90039 10.7998C1.9005 10.5238 2.12431 10.2998 2.40039 10.2998H3.57031L3.21289 11.2998Z" fill="white"/>
<path d="M13.6006 10.2998C13.8764 10.3001 14.1005 10.5239 14.1006 10.7998C14.1006 11.0758 13.8765 11.2995 13.6006 11.2998H12.7861L12.4287 10.2998H13.6006Z" fill="white"/>
<path d="M4.21289 8.5H2.40039C2.12425 8.5 1.90039 8.27614 1.90039 8C1.90039 7.72386 2.12425 7.5 2.40039 7.5H4.57031L4.21289 8.5Z" fill="white"/>
<path d="M13.6006 7.5C13.8765 7.5003 14.1006 7.72404 14.1006 8C14.1006 8.27596 13.8765 8.4997 13.6006 8.5H11.7861L11.4287 7.5H13.6006Z" fill="white"/>
<path d="M5.21289 5.7002H2.40039C2.12431 5.7002 1.9005 5.47625 1.90039 5.2002C1.90039 4.92405 2.12425 4.7002 2.40039 4.7002H5.57031L5.21289 5.7002Z" fill="white"/>
<path d="M13.6006 4.7002C13.8765 4.7005 14.1006 4.92424 14.1006 5.2002C14.1005 5.47606 13.8764 5.69989 13.6006 5.7002H10.7861L10.4287 4.7002H13.6006Z" fill="white"/>
<path d="M6.72754 1.90039C6.62556 2.00861 6.53636 2.13063 6.46387 2.26367L6.44434 2.29785L6.42871 2.33398L6.36621 2.47266L6.35156 2.51172L6.21289 2.90039H2.40039C2.12437 2.90039 1.90059 2.67636 1.90039 2.40039C1.90039 2.12425 2.12425 1.90039 2.40039 1.90039H6.72754Z" fill="white"/>
</svg>
