<svg width="16" height="16" viewBox="0 0 16 16" fill="none" xmlns="http://www.w3.org/2000/svg">
<path fill-rule="evenodd" clip-rule="evenodd" d="M13.5257 1.6466C13.7209 1.45138 14.0375 1.45148 14.2328 1.6466C14.4279 1.84187 14.428 2.15842 14.2328 2.35363L2.35386 14.2325C2.15864 14.4277 1.84208 14.4276 1.64683 14.2325C1.45173 14.0373 1.45168 13.7207 1.64683 13.5255L4.5814 10.59L7.34116 2.86535L7.38609 2.76574C7.50722 2.54347 7.74153 2.40061 8.00034 2.4005L8.10972 2.40831C8.35963 2.44792 8.57252 2.62173 8.65952 2.86535L9.61851 5.55285L10.4398 4.73156L10.4291 4.70031H10.472L13.5257 1.6466ZM7.17222 7.50011L7.11948 7.6466L6.8939 8.27745L8.52378 6.64757L8.00034 5.18077L7.17222 7.50011Z" fill="white"/>
<path d="M9.85288 13.4894C9.93688 13.724 10.067 13.9293 10.2279 14.0997H5.77476C5.93548 13.9294 6.06482 13.7239 6.14878 13.4894L6.28745 13.0997H9.71323L9.85288 13.4894Z" fill="white"/>
<path d="M5.16343 13.1241L5.15952 13.1359L5.09898 13.2638C5.07529 13.3028 5.04706 13.3383 5.01695 13.3712C5.0148 13.3735 5.01228 13.3757 5.01011 13.378C4.98418 13.4056 4.95587 13.4304 4.92612 13.4532C4.91422 13.4624 4.90145 13.4703 4.88902 13.4786C4.86491 13.4948 4.84065 13.5105 4.8148 13.5235C4.80244 13.5298 4.78942 13.5347 4.77671 13.5401C4.75181 13.5509 4.72657 13.5606 4.70054 13.5685C4.68415 13.5734 4.66748 13.5775 4.65073 13.5812C4.62312 13.5873 4.5951 13.5911 4.56675 13.5939C4.55443 13.595 4.54205 13.5972 4.52964 13.5978C4.49212 13.5994 4.45433 13.5975 4.41636 13.5929C4.4116 13.5923 4.40651 13.5923 4.40171 13.5919L5.32554 12.6681L5.16343 13.1241Z" fill="white"/>
<path d="M12.1595 12.6651C12.2661 12.9646 12.1546 13.2862 11.9095 13.464C11.857 13.5023 11.8 13.5367 11.7357 13.5597L11.598 13.5939C11.5523 13.6003 11.5064 13.6003 11.4613 13.5978H11.4574C11.4173 13.5952 11.3779 13.5885 11.3392 13.5792C11.3267 13.5762 11.3144 13.5721 11.3021 13.5685C11.2731 13.5598 11.2447 13.5495 11.2171 13.5372C11.2047 13.5317 11.1921 13.5259 11.18 13.5196C11.1566 13.5075 11.1336 13.4943 11.1117 13.4796C11.0964 13.4694 11.0812 13.4588 11.0667 13.4474C11.0464 13.4313 11.0277 13.413 11.0091 13.3946C10.9981 13.3837 10.9863 13.3731 10.9759 13.3614C10.9522 13.3344 10.9301 13.3054 10.9105 13.2745C10.9082 13.2709 10.905 13.2674 10.9027 13.2638L10.8929 13.2491C10.8726 13.2137 10.8554 13.1756 10.8412 13.1359L10.8373 13.1241L9.88218 10.4503H7.54429L8.94468 9.04992H9.38218L9.26694 8.72765L10.3617 7.63292L12.1595 12.6651Z" fill="white"/>
<path d="M3.21323 11.2999H2.40073C2.12468 11.2999 1.90087 11.0759 1.90073 10.7999C1.90084 10.5239 2.12466 10.2999 2.40073 10.2999H3.57066L3.21323 11.2999Z" fill="white"/>
<path d="M13.6009 10.2999C13.8766 10.3004 14.1008 10.5241 14.1009 10.7999C14.1008 11.0757 13.8766 11.2995 13.6009 11.2999H12.7865L12.4291 10.2999H13.6009Z" fill="white"/>
<path d="M4.21323 8.50011H2.40073C2.12468 8.50011 1.90087 8.27613 1.90073 8.00011C1.90073 7.72397 2.12459 7.50011 2.40073 7.50011H4.57066L4.21323 8.50011Z" fill="white"/>
<path d="M13.6009 7.50011C13.8767 7.50055 14.1009 7.72424 14.1009 8.00011C14.1008 8.27587 13.8766 8.49968 13.6009 8.50011H11.7865L11.4291 7.50011H13.6009Z" fill="white"/>
<path d="M5.21323 5.70031H2.40073C2.12474 5.70031 1.90098 5.47624 1.90073 5.20031C1.90073 4.92416 2.12459 4.70031 2.40073 4.70031H5.57066L5.21323 5.70031Z" fill="white"/>
<path d="M13.6009 4.70031C13.8767 4.70074 14.1009 4.92443 14.1009 5.20031C14.1007 5.47597 13.8766 5.69987 13.6009 5.70031H12.2953L13.2953 4.70031H13.6009Z" fill="white"/>
<path d="M6.72788 1.9005C6.62594 2.00869 6.53668 2.13079 6.46421 2.26378L6.44468 2.29796L6.42905 2.3341L6.36655 2.47277L6.35191 2.51183L6.21323 2.9005H2.40073C2.1248 2.9005 1.90107 2.67636 1.90073 2.4005C1.90073 2.12436 2.12459 1.9005 2.40073 1.9005H6.72788Z" fill="white"/>
</svg>
