<svg width="16" height="16" viewBox="0 0 16 16" fill="none" xmlns="http://www.w3.org/2000/svg">
<path fill-rule="evenodd" clip-rule="evenodd" d="M6.00431 2.10934C6.22292 1.94061 6.53691 1.98105 6.70563 2.19965C7.99076 3.86468 8.68761 5.90517 8.68761 8.00466C8.68761 10.1041 7.99076 12.1446 6.70563 13.8097C6.5369 14.0283 6.22291 14.0687 6.00431 13.9C5.78571 13.7313 5.74528 13.4173 5.914 13.1987C7.06435 11.7082 7.68761 9.88252 7.68761 8.00466C7.68761 6.12679 7.06436 4.30107 5.914 2.81065C5.74528 2.59205 5.78571 2.27806 6.00431 2.10934ZM10.3251 5.52435C10.1293 5.32966 9.81272 5.33058 9.61803 5.52642C9.42334 5.72225 9.42426 6.03883 9.6201 6.23352L11.4015 8.00456L9.6201 9.7756C9.42426 9.97029 9.42334 10.2869 9.61803 10.4827C9.81272 10.6785 10.1293 10.6795 10.3251 10.4848L12.1107 8.70961L13.8963 10.4848C14.0922 10.6795 14.4087 10.6785 14.6034 10.4827C14.7981 10.2869 14.7972 9.97029 14.6014 9.7756L12.8199 8.00456L14.6014 6.23352C14.7972 6.03883 14.7981 5.72225 14.6034 5.52642C14.4087 5.33058 14.0922 5.32966 13.8963 5.52435L12.1107 7.29952L10.3251 5.52435ZM2.18173 6.33691C2.04305 6.09812 1.73705 6.01696 1.49825 6.15564C1.25946 6.29431 1.1783 6.60032 1.31697 6.83911C1.52296 7.19381 1.63129 7.59593 1.63129 8.0051C1.63129 8.41426 1.52296 8.81639 1.31697 9.17109C1.1783 9.40988 1.25946 9.71588 1.49825 9.85456C1.73705 9.99324 2.04305 9.91208 2.18173 9.67328C2.47616 9.16628 2.63129 8.59093 2.63129 8.0051C2.63129 7.41926 2.47616 6.84391 2.18173 6.33691ZM4.34075 4.14068C4.17203 3.92208 3.85804 3.88165 3.63944 4.05037C3.42084 4.2191 3.3804 4.53309 3.54913 4.75169C4.26969 5.68526 4.65999 6.82871 4.65999 8.00469C4.65999 9.18067 4.26969 10.3241 3.54913 11.2577C3.3804 11.4763 3.42084 11.7903 3.63944 11.959C3.85804 12.1277 4.17203 12.0873 4.34075 11.8687C5.19609 10.7605 5.65999 9.40229 5.65999 8.00469C5.65999 6.60708 5.19609 5.24887 4.34075 4.14068Z" fill="white"/>
</svg>
