<svg width="16" height="16" viewBox="0 0 16 16" fill="none" xmlns="http://www.w3.org/2000/svg">
<path fill-rule="evenodd" clip-rule="evenodd" d="M6.57111 12.9627C6.81367 13.1255 6.87921 13.4556 6.71751 13.6999L6.01373 14.7632C5.85203 15.0075 5.52431 15.0735 5.28176 14.9107C5.0392 14.7478 4.97366 14.4177 5.13536 14.1734L5.83914 13.1101C6.00084 12.8658 6.32856 12.7998 6.57111 12.9627Z" fill="white"/>
<path fill-rule="evenodd" clip-rule="evenodd" d="M9.03433 11.5449C9.27688 11.7078 9.34243 12.0379 9.18072 12.2822L8.47695 13.3455C8.31525 13.5898 7.98753 13.6558 7.74498 13.4929C7.50242 13.3301 7.43688 13 7.59858 12.7557L8.30236 11.6924C8.46406 11.4481 8.79178 11.3821 9.03433 11.5449Z" fill="white"/>
<path fill-rule="evenodd" clip-rule="evenodd" d="M5.51545 11.5449C5.758 11.7078 5.82354 12.0379 5.66184 12.2822L4.95807 13.3455C4.79636 13.5898 4.46865 13.6558 4.22609 13.4929C3.98354 13.3301 3.918 13 4.0797 12.7557L4.78348 11.6924C4.94518 11.4481 5.27289 11.3821 5.51545 11.5449Z" fill="white"/>
<path fill-rule="evenodd" clip-rule="evenodd" d="M10.09 12.9627C10.3325 13.1255 10.3981 13.4556 10.2364 13.6999L9.53261 14.7632C9.37091 15.0075 9.0432 15.0735 8.80064 14.9107C8.55809 14.7478 8.49254 14.4177 8.65425 14.1734L9.35802 13.1101C9.51973 12.8658 9.84744 12.7998 10.09 12.9627Z" fill="white"/>
<path fill-rule="evenodd" clip-rule="evenodd" d="M12.5532 11.5449C12.7958 11.7078 12.8613 12.0379 12.6996 12.2822L11.9958 13.3455C11.8341 13.5898 11.5064 13.6558 11.2639 13.4929C11.0213 13.3301 10.9558 13 11.1175 12.7557L11.8212 11.6924C11.9829 11.4481 12.3107 11.3821 12.5532 11.5449Z" fill="white"/>
<path fill-rule="evenodd" clip-rule="evenodd" d="M7.40307 2.51326C6.25911 2.77828 5.24762 3.58981 4.8849 4.88851C4.83148 5.07975 4.64524 5.20724 4.44816 5.19937C3.43124 5.15872 2.35177 5.77494 1.7319 6.7084C1.273 6.10974 1 5.35912 1 4.54429C1 2.58683 2.57546 1 4.51888 1C5.71219 1 6.76676 1.59827 7.40307 2.51326Z" fill="white"/>
<path d="M4.87077 12.3417C3.11133 12.2471 1.96908 10.9933 1.73768 9.5949C1.38579 7.46833 3.5336 5.64302 5.29304 5.99745C5.92644 2.41772 11.2048 2.06329 12.19 5.96201C16.4831 6.67087 15.4274 12.3417 11.9085 12.3417H4.87077Z" fill="white"/>
</svg>
