<svg width="16" height="16" viewBox="0 0 16 16" fill="none" xmlns="http://www.w3.org/2000/svg">
<path d="M8.00012 1C9.85586 1.00223 11.6352 1.74052 12.9474 3.05273C14.2596 4.36501 14.998 6.14422 15.0001 8C15.0001 9.38431 14.5894 10.7376 13.8204 11.8887C13.0513 13.0397 11.9578 13.937 10.6788 14.4668C9.39975 14.9966 7.99177 15.1353 6.63391 14.8652C5.27623 14.5951 4.0288 13.929 3.04992 12.9502C2.07096 11.9712 1.404 10.7231 1.13391 9.36523C0.863945 8.00757 1.00265 6.60018 1.53235 5.32129C2.06213 4.04229 2.95943 2.94885 4.11047 2.17969C5.26161 1.41052 6.61565 1 8.00012 1ZM10.8771 10.6924C10.5749 11.8008 10.0654 12.8417 9.3761 13.7607C10.2086 13.5608 10.9881 13.1835 11.6613 12.6543C12.3351 12.1245 12.8866 11.4552 13.2775 10.6924H10.8771ZM6.25012 10.6924C6.59528 11.822 7.1939 12.8575 8.00012 13.7207C8.80653 12.8578 9.40536 11.822 9.75012 10.6924H6.25012ZM5.98742 6.38477C5.80259 7.45367 5.80259 8.54633 5.98742 9.61523H10.0177C10.2025 8.54634 10.2025 7.45366 10.0177 6.38477H5.98742ZM11.1066 6.38477C11.2717 7.45528 11.2717 8.54472 11.1066 9.61523H13.6984C13.8475 9.08977 13.9234 8.54623 13.923 8C13.9234 7.45377 13.8475 6.91023 13.6984 6.38477H11.1066ZM8.00012 2.2793C7.19359 3.14225 6.59493 4.17789 6.25012 5.30762H9.75012C9.40501 4.17813 8.80622 3.14245 8.00012 2.2793ZM9.37317 2.23828C10.0626 3.15744 10.572 4.19906 10.8741 5.30762H13.2736C12.8831 4.54531 12.3334 3.87633 11.6603 3.34668C10.9869 2.81691 10.2062 2.43841 9.37317 2.23828Z" fill="white"/>
</svg>
