<svg width="16" height="16" viewBox="0 0 16 16" fill="none" xmlns="http://www.w3.org/2000/svg">
<path d="M1.05855 7.9372C1.05813 9.15979 1.37902 10.3534 1.98898 11.4054L1 15L4.69531 14.0354C5.71349 14.5882 6.85974 14.8795 8.02634 14.88H8.02932C11.8709 14.88 14.9984 11.7674 15 7.94258C15.0006 6.08877 14.2761 4.34577 12.9602 3.03455C11.644 1.72332 9.89395 1.0008 8.02932 1C4.18692 1 1.06016 4.11215 1.05855 7.9372ZM3.25903 11.2241L3.12108 11.006C2.54104 10.0879 2.2349 9.02689 2.23532 7.9375C2.23659 4.75836 4.83556 2.17172 8.03137 2.17172C9.57897 2.17232 11.0335 2.77296 12.1275 3.86273C13.2215 4.95257 13.8234 6.40136 13.823 7.94202C13.8216 11.1214 11.2226 13.7082 8.02918 13.7082H8.02691C6.98711 13.7076 5.96737 13.4297 5.07805 12.9044L4.86639 12.7795L2.67343 13.3518L3.25903 11.2241ZM8.02932 14.88C8.02918 14.88 8.02925 14.88 8.02932 14.88V14.88Z" fill="white"/>
<path fill-rule="evenodd" clip-rule="evenodd" d="M6.28701 5.03664C6.15651 4.74787 6.01921 4.74209 5.89509 4.73701C5.79352 4.73271 5.67734 4.73299 5.56131 4.73299C5.44513 4.73299 5.25643 4.77639 5.09688 4.94991C4.93717 5.12343 4.48721 5.54289 4.48721 6.39597C4.48721 7.24914 5.11142 8.0735 5.19839 8.1893C5.2855 8.30489 6.40335 10.1116 8.17356 10.8065C9.6449 11.3841 9.94431 11.2693 10.2636 11.2403C10.583 11.2115 11.2942 10.821 11.4392 10.4161C11.5844 10.0112 11.5844 9.66421 11.5409 9.59173C11.4974 9.51947 11.3812 9.47607 11.207 9.38942C11.0328 9.30269 10.1765 8.88317 10.0169 8.8253C9.8572 8.76751 9.74108 8.73865 9.6249 8.91224C9.50879 9.08563 9.17522 9.47608 9.07357 9.59174C8.97199 9.70761 8.87035 9.72208 8.69618 9.63535C8.52195 9.54834 7.96098 9.36542 7.29551 8.77478C6.77772 8.31518 6.42818 7.74761 6.32653 7.574C6.22495 7.40061 6.31568 7.30669 6.40301 7.22024C6.48127 7.14254 6.57724 7.01778 6.66436 6.91658C6.75126 6.81532 6.78026 6.74306 6.83831 6.6274C6.89644 6.51166 6.86737 6.4104 6.82385 6.32366C6.78026 6.23694 6.44188 5.37952 6.28701 5.03664Z" fill="white"/>
</svg>
