<svg width="16" height="16" viewBox="0 0 16 16" fill="none" xmlns="http://www.w3.org/2000/svg">
<path fill-rule="evenodd" clip-rule="evenodd" d="M5.25016 3.75C4.83216 3.75 4.58296 4.08268 4.46056 4.29449C4.31688 4.54309 4.20439 4.86959 4.11639 5.22953C3.93847 5.9572 3.8335 6.93645 3.8335 8C3.8335 9.06355 3.93847 10.0428 4.11639 10.7705C4.20439 11.1304 4.31688 11.4569 4.46056 11.7055C4.58296 11.9173 4.83216 12.25 5.25016 12.25C5.66817 12.25 5.91736 11.9173 6.03977 11.7055C6.18344 11.4569 6.29593 11.1304 6.38394 10.7705C6.56186 10.0428 6.66683 9.06355 6.66683 8C6.66683 6.93645 6.56186 5.9572 6.38394 5.22953C6.29593 4.86959 6.18344 4.54309 6.03977 4.29449C5.91736 4.08268 5.66817 3.75 5.25016 3.75ZM4.8335 8C4.8335 6.9923 4.93386 6.09655 5.08777 5.46703C5.14035 5.252 5.19617 5.08069 5.25016 4.9518C5.30415 5.08069 5.35998 5.252 5.41255 5.46703C5.56647 6.09655 5.66683 6.9923 5.66683 8C5.66683 9.0077 5.56647 9.90345 5.41255 10.533C5.35998 10.748 5.30415 10.9193 5.25016 11.0482C5.19617 10.9193 5.14035 10.748 5.08777 10.533C4.93386 9.90345 4.8335 9.0077 4.8335 8Z" fill="white"/>
<path fill-rule="evenodd" clip-rule="evenodd" d="M5.25 14.75C4.7059 14.75 4.22632 14.4973 3.83314 14.1193C3.44243 13.7437 3.11337 13.2242 2.84787 12.6208C2.31624 11.4127 2 9.77856 2 8C2 6.22144 2.31624 4.58734 2.84787 3.37917C3.11337 2.77578 3.44243 2.25626 3.83314 1.88068C4.22632 1.50273 4.7059 1.25 5.25 1.25H10.75C11.294 1.25005 11.7737 1.50276 12.1669 1.88068C12.5576 2.25626 12.8866 2.77578 13.1521 3.37917C13.6067 4.41217 13.9038 5.75653 13.9804 7.23633C14.0022 7.31234 14.0061 7.39315 13.9906 7.47174C13.9968 7.6462 14 7.82238 14 8C14 9.77856 13.6838 11.4127 13.1521 12.6208C12.8866 13.2242 12.5576 13.7437 12.1669 14.1193C11.7737 14.4972 11.2942 14.7499 10.7502 14.75H5.25ZM3 8C3 6.32669 3.29945 4.83578 3.76317 3.78193C3.99534 3.25429 4.25887 2.85854 4.52615 2.60161C4.79097 2.34704 5.03479 2.25 5.25 2.25C5.46517 2.25005 5.70909 2.3471 5.97384 2.60161C6.00726 2.63372 6.04061 2.66801 6.07385 2.70445C6.30652 2.95954 6.53368 3.32025 6.73683 3.78193C7.20055 4.83578 7.5 6.32669 7.5 8C7.5 9.67331 7.20055 11.1642 6.73683 12.2181C6.50466 12.7457 6.24113 13.1415 5.97384 13.3984C5.70909 13.6529 5.46533 13.75 5.25016 13.75C5.03495 13.75 4.79097 13.653 4.52615 13.3984C4.25887 13.1415 3.99534 12.7457 3.76317 12.2181C3.29945 11.1642 3 9.67331 3 8ZM12.2368 3.78193C12.5405 4.47204 12.7737 5.34958 12.8985 6.34302L10.916 4.95378C10.7807 4.37617 10.6075 3.84589 10.4021 3.37917C10.2151 2.95418 9.99659 2.57079 9.74719 2.25H10.75C10.9652 2.25005 11.2091 2.3471 11.4738 2.60161C11.7411 2.85854 12.0047 3.25429 12.2368 3.78193ZM9.48683 3.78193C9.65159 4.15637 9.79562 4.58599 9.91284 5.05936L8.37981 6.13374C8.24203 5.09122 7.99078 4.14878 7.65213 3.37917C7.46513 2.95418 7.24659 2.57079 6.99719 2.25H8C8.21521 2.25 8.45903 2.34704 8.72385 2.60161C8.99113 2.85854 9.25466 3.25429 9.48683 3.78193ZM10.1206 6.13491L8.48269 7.28277C8.49415 7.5187 8.5 7.75801 8.5 8C8.5 8.8835 8.42196 9.73136 8.27825 10.5091L10.1982 9.0831C10.2014 9.08072 10.2046 9.07839 10.2079 9.0761C10.2355 8.72805 10.25 8.36845 10.25 8C10.25 7.34529 10.2042 6.71851 10.1206 6.13491ZM10.0192 10.4617L7.95434 11.9953C7.93028 12.0131 7.90515 12.0285 7.87924 12.0415C7.86672 12.0774 7.85404 12.113 7.8412 12.1484C7.78167 12.3121 7.71859 12.4698 7.65213 12.6208C7.46513 13.0458 7.24659 13.4292 6.99719 13.75H8C8.21521 13.75 8.45903 13.653 8.72385 13.3984C8.99113 13.1415 9.25466 12.7457 9.48683 12.2181C9.70557 11.721 9.88776 11.1266 10.0192 10.4617ZM11.0293 10.5033L12.4795 11.5807C12.405 11.8074 12.3238 12.0204 12.2368 12.2181C12.0047 12.7457 11.7411 13.1415 11.4738 13.3984C11.2091 13.6529 10.9653 13.75 10.7502 13.75H9.74719C9.99659 13.4292 10.2151 13.0458 10.4021 12.6208C10.6703 12.0113 10.8837 11.2935 11.0293 10.5033ZM12.7537 10.5386L11.1857 9.37373C11.2279 8.92935 11.25 8.46971 11.25 8C11.25 7.42968 11.2175 6.87421 11.1558 6.34288L12.9951 7.63179C12.9984 7.75346 13 7.87623 13 8C13 8.91455 12.9105 9.77461 12.7537 10.5386Z" fill="white"/>
</svg>
