<svg width="16" height="16" viewBox="0 0 16 16" fill="none" xmlns="http://www.w3.org/2000/svg">
<path fill-rule="evenodd" clip-rule="evenodd" d="M5.46 1H5.16C5.09 1 5.02 1 4.96 1.01C4.75 1.03 4.55 1.08 4.35 1.18C4.11 1.29 3.88 1.44 3.67 1.65C3.27 2.03 2.93 2.55 2.63 3.21C2.35 3.84 2.13 4.57 1.98 5.38C1.82 6.21 1.75 7.09 1.75 8C1.75 8.9 1.82 9.78 1.98 10.61C2.13 11.42 2.35 12.15 2.63 12.78C2.93 13.44 3.27 13.96 3.67 14.34C3.88 14.55 4.11 14.7 4.35 14.81C4.55 14.91 4.75 14.96 4.96 14.98C5.02 14.99 5.09 15 5.16 15H5.46C5.72 14.93 5.97 14.79 6.22 14.57C6.6 14.23 6.94 13.75 7.24 13.11C7.56 12.45 7.8 11.69 7.97 10.83C8.16 9.93 8.25 8.98 8.25 8C8.25 7.01 8.16 6.06 7.97 5.16C7.8 4.3 7.56 3.54 7.24 2.88C6.94 2.25 6.6 1.76 6.22 1.42C5.97 1.2 5.72 1.06 5.46 1ZM7.21 1H8.69C8.95 1.06 9.2 1.2 9.45 1.42C9.83 1.76 10.17 2.25 10.47 2.88C10.7 3.35 10.89 3.88 11.04 4.45L9.1 5.8C9.06 5.52 9.01 5.24 8.95 4.96C8.76 4.02 8.49 3.18 8.15 2.45C7.87 1.87 7.55 1.38 7.21 1ZM12.08 4.5L14.17 5.95C14.14 5.76 14.11 5.57 14.08 5.38C13.92 4.57 13.7 3.84 13.42 3.21C13.13 2.55 12.78 2.03 12.39 1.65C12.17 1.44 11.94 1.29 11.7 1.18C11.5 1.08 11.3 1.03 11.1 1.01C11.03 1 10.97 1 10.9 1H10.44C10.79 1.38 11.1 1.87 11.38 2.45C11.67 3.06 11.9 3.75 12.08 4.5ZM5.16 11.87C5.68 11.87 6.11 10.14 6.11 8C6.11 5.85 5.68 4.12 5.16 4.12C4.63 4.12 4.2 5.85 4.2 8C4.2 10.14 4.63 11.87 5.16 11.87ZM9.21 6.94L11.27 5.51C11.41 6.3 11.48 7.13 11.48 8C11.48 8.25 11.47 8.51 11.46 8.77L9 10.79C9.16 9.9 9.25 8.96 9.25 8C9.25 7.64 9.23 7.28 9.21 6.94ZM8.6 12.4C8.64 12.38 8.67 12.36 8.7 12.33L11.32 10.18C11.29 10.4 11.25 10.61 11.2 10.83C11.03 11.69 10.79 12.45 10.47 13.11C10.17 13.75 9.83 14.23 9.45 14.57C9.2 14.79 8.95 14.93 8.69 15H7.21C7.55 14.61 7.87 14.12 8.15 13.54C8.32 13.18 8.47 12.8 8.6 12.4ZM12.34 10.07C12.3 10.39 12.25 10.71 12.18 11.03C11.99 11.97 11.73 12.81 11.38 13.54C11.1 14.12 10.79 14.61 10.44 15H10.9C10.97 15 11.03 14.99 11.1 14.98C11.3 14.96 11.5 14.91 11.7 14.81C11.94 14.7 12.17 14.55 12.39 14.34C12.78 13.96 13.13 13.44 13.42 12.78C13.63 12.32 13.8 11.8 13.94 11.24L12.34 10.07ZM14.15 10.15L12.45 8.9C12.47 8.6 12.48 8.3 12.48 8C12.48 7.28 12.43 6.58 12.34 5.9L14.29 7.25C14.3 7.5 14.31 7.74 14.31 8C14.31 8.74 14.26 9.46 14.15 10.15Z" fill="white"/>
</svg>
