<svg width="16" height="16" viewBox="0 0 16 16" fill="none" xmlns="http://www.w3.org/2000/svg">
<path fill-rule="evenodd" clip-rule="evenodd" d="M3.02216 4.25839C3.7704 3.76392 4.6501 3.5 5.55 3.5C5.68924 3.5 5.82278 3.5547 5.92123 3.65208C6.01969 3.74945 6.075 3.88152 6.075 4.01923L6.075 5.40385H7.125V4.01923C7.125 3.73247 7.36005 3.5 7.65 3.5H14.475C14.765 3.5 15 3.73247 15 4.01923V6.61538C15 6.84721 14.8446 7.05095 14.6192 7.11464L10.2269 8.35579C10.1637 8.37365 10.0797 8.44759 10.0609 8.58864C9.97002 9.26993 9.72215 9.92434 9.33319 10.5001C8.83323 11.2401 8.12262 11.8169 7.29121 12.1575C6.45981 12.4981 5.54495 12.5872 4.66234 12.4135C3.77973 12.2399 2.969 11.8113 2.33267 11.182C1.69634 10.5526 1.26299 9.75082 1.08743 8.87791C0.911866 8.00499 1.00197 7.10019 1.34635 6.27792C1.69073 5.45566 2.27391 4.75285 3.02216 4.25839ZM5.025 4.57762C4.5193 4.6535 4.03434 4.83845 3.60551 5.12184C3.02993 5.50219 2.58133 6.04281 2.31642 6.67533C2.05152 7.30784 1.98221 8.00384 2.11725 8.67531C2.2523 9.34678 2.58564 9.96357 3.07513 10.4477C3.56461 10.9318 4.18825 11.2615 4.86719 11.395C5.54612 11.5286 6.24985 11.46 6.88939 11.198C7.52893 10.936 8.07556 10.4924 8.46015 9.92313C8.75934 9.48027 8.95001 8.97688 9.01993 8.4528C9.08288 7.98096 9.40064 7.50926 9.93847 7.35728L13.95 6.22373V4.53846H8.175V5.92308C8.175 6.20984 7.93995 6.44231 7.65 6.44231H5.55C5.41076 6.44231 5.27723 6.3876 5.17877 6.29023C5.08031 6.19285 5.025 6.06078 5.025 5.92308L5.025 4.57762Z" fill="white"/>
</svg>
