<svg width="17" height="16" viewBox="0 0 17 16" fill="none" xmlns="http://www.w3.org/2000/svg">
<path fill-rule="evenodd" clip-rule="evenodd" d="M4.14827 2.5C3.77362 2.49999 3.46241 2.49999 3.20848 2.52073C2.94411 2.54234 2.6981 2.58889 2.46613 2.70709C2.10862 2.88925 1.81796 3.17991 1.6358 3.53742C1.5176 3.76939 1.47105 4.01539 1.44945 4.27977C1.4287 4.5337 1.4287 4.8449 1.42871 5.21955V10.7776C1.4287 11.1522 1.4287 11.4635 1.44945 11.7174C1.47105 11.9818 1.5176 12.2278 1.6358 12.4597C1.81796 12.8172 2.10862 13.1079 2.46613 13.2901C2.6981 13.4083 2.94411 13.4548 3.20848 13.4764C3.46241 13.4972 3.77361 13.4972 4.14825 13.4972H12.7056C13.0802 13.4972 13.3914 13.4972 13.6454 13.4764C13.9097 13.4548 14.1557 13.4083 14.3877 13.2901C14.7452 13.1079 15.0359 12.8172 15.218 12.4597C15.3362 12.2278 15.3828 11.9818 15.4044 11.7174C15.4251 11.4635 15.4251 11.1523 15.4251 10.7777V5.21955C15.4251 4.84493 15.4251 4.53368 15.4044 4.27977C15.3828 4.01539 15.3362 3.76939 15.218 3.53742C15.0359 3.17991 14.7452 2.88925 14.3877 2.70709C14.1557 2.58889 13.9097 2.54234 13.6454 2.52073C13.3914 2.49999 13.0802 2.49999 12.7056 2.5H4.14827ZM2.92012 3.59809C2.98762 3.5637 3.08738 3.53396 3.28991 3.51741C3.49828 3.50039 3.76842 3.5 4.16871 3.5H12.6851C13.0854 3.5 13.3556 3.50039 13.5639 3.51741C13.7665 3.53396 13.8662 3.5637 13.9337 3.59809C14.1031 3.68438 14.2407 3.82206 14.327 3.99141C14.3614 4.05891 14.3912 4.15867 14.4077 4.3612C14.4247 4.56957 14.4251 4.83971 14.4251 5.24V10.7572C14.4251 11.1574 14.4247 11.4276 14.4077 11.636C14.3912 11.8385 14.3614 11.9382 14.327 12.0057C14.2407 12.1751 14.1031 12.3128 13.9337 12.3991C13.8662 12.4335 13.7665 12.4632 13.5639 12.4797C13.3556 12.4968 13.0854 12.4972 12.6851 12.4972H4.16871C3.76842 12.4972 3.49828 12.4968 3.28991 12.4797C3.08738 12.4632 2.98762 12.4335 2.92012 12.3991C2.75077 12.3128 2.61309 12.1751 2.52681 12.0057C2.49241 11.9382 2.46267 11.8385 2.44613 11.636C2.4291 11.4276 2.42871 11.1574 2.42871 10.7572V5.24C2.42871 4.83971 2.4291 4.56957 2.44613 4.3612C2.46267 4.15867 2.49241 4.05891 2.52681 3.99141C2.61309 3.82206 2.75077 3.68438 2.92012 3.59809ZM10.4144 4.56836C10.0221 4.56836 9.64553 4.72229 9.36556 4.99705L8.42712 5.91806L8.42628 5.91889L5.84808 8.46119C5.52883 8.77601 5.29641 9.16803 5.17339 9.59919L4.78403 10.9639C4.73463 11.1371 4.78214 11.3234 4.90841 11.4518C5.03467 11.5801 5.2202 11.6307 5.39412 11.5841L6.79235 11.2099C7.22547 11.0939 7.62126 10.868 7.94126 10.5539L11.471 7.08968C11.7529 6.81301 11.9118 6.43461 11.9118 6.03963C11.9118 5.22707 11.253 4.56837 10.4405 4.56836L10.4144 4.56836ZM10.066 5.71076C10.159 5.61949 10.2841 5.56836 10.4144 5.56836L10.4405 5.56836C10.7008 5.56836 10.9118 5.77936 10.9118 6.03963C10.9118 6.16615 10.8609 6.28735 10.7706 6.37597L10.3195 6.8187C10.2347 6.68266 10.1321 6.54091 10.015 6.42598C9.90244 6.31556 9.76477 6.21833 9.6314 6.1373L10.066 5.71076ZM9.31453 7.13971C9.3946 7.21829 9.49234 7.37151 9.58113 7.54333L7.24081 9.84021C7.04389 10.0335 6.80033 10.1725 6.53379 10.2439L5.98766 10.3901L6.13502 9.87355C6.21072 9.60821 6.35375 9.36697 6.55022 9.17324L8.88652 6.86946L8.893 6.87266C9.07208 6.96123 9.23279 7.05949 9.31453 7.13971Z" fill="white"/>
</svg>
