<svg width="16" height="16" viewBox="0 0 16 16" fill="none" xmlns="http://www.w3.org/2000/svg">
<path fill-rule="evenodd" clip-rule="evenodd" d="M2.925 2.5C1.86185 2.5 1 3.36185 1 4.425V11.575C1 12.6381 1.86185 13.5 2.925 13.5H13.075C14.1381 13.5 15 12.6381 15 11.575V4.425C15 3.36185 14.1381 2.5 13.075 2.5H2.925ZM9.98092 4.57813C9.58944 4.57813 9.2136 4.73182 8.9343 5.00614L7.99921 5.92453L7.99837 5.92536L5.43051 8.45933C5.11147 8.77415 4.87924 9.1661 4.75636 9.59714L4.36877 10.9567C4.31941 11.1298 4.36695 11.3161 4.49324 11.4445C4.61953 11.5728 4.80506 11.6233 4.97898 11.5767L6.37013 11.2041C6.80339 11.088 7.19926 10.8619 7.51927 10.5476L11.035 7.09459C11.3162 6.81844 11.4746 6.44088 11.4746 6.04678C11.4746 5.23567 10.817 4.57813 10.0059 4.57813L9.98092 4.57813ZM9.63501 5.71958C9.72732 5.62892 9.85153 5.57813 9.98092 5.57813L10.0059 5.57813C10.2647 5.57813 10.4746 5.78795 10.4746 6.04678C10.4746 6.17254 10.424 6.29302 10.3343 6.38114L9.88655 6.82089C9.80232 6.68578 9.70036 6.54515 9.58414 6.43101C9.47232 6.32119 9.33562 6.22446 9.20309 6.14379L9.63501 5.71958ZM8.88345 7.14447C8.96293 7.22254 9.06008 7.37482 9.14844 7.54583L6.81855 9.83414C6.62163 10.0276 6.37801 10.1667 6.11139 10.2381L5.57229 10.3826L5.71804 9.87131C5.79366 9.60605 5.93657 9.36485 6.1329 9.17111L8.45874 6.87597L8.46389 6.87851C8.64229 6.9668 8.8022 7.06468 8.88345 7.14447Z" fill="white"/>
</svg>
