<svg width="16" height="16" viewBox="0 0 16 16" fill="none" xmlns="http://www.w3.org/2000/svg">
<path d="M13.7368 1.64635C13.9321 1.45128 14.2487 1.45115 14.4438 1.64635C14.6388 1.84156 14.6388 2.15818 14.4438 2.35338L2.56396 14.2323C2.3687 14.4275 2.0522 14.4275 1.85693 14.2323C1.66193 14.037 1.66176 13.7204 1.85693 13.5253L7.41748 7.96373C6.46584 8.0911 5.57557 8.5274 4.88916 9.21373C4.69408 9.40869 4.37739 9.4084 4.18213 9.21373C3.98715 9.01849 3.98707 8.70189 4.18213 8.5067C5.19472 7.4942 6.56854 6.92474 8.00049 6.92467C8.14734 6.92469 8.29365 6.93036 8.43896 6.94225L9.68408 5.6981C9.13951 5.55179 8.57407 5.4745 8.00049 5.47447C6.27683 5.47451 4.62271 6.15907 3.40381 7.37779C3.20854 7.57293 2.892 7.57301 2.69678 7.37779C2.50209 7.18253 2.50183 6.86586 2.69678 6.67076C4.10321 5.2645 6.01162 4.47451 8.00049 4.47447C8.85396 4.47451 9.69157 4.6228 10.4819 4.90025L11.5747 3.8065C10.463 3.29763 9.24555 3.02531 7.99951 3.02525C5.71908 3.02549 3.53102 3.93132 1.91846 5.54381C1.72323 5.73849 1.40653 5.73869 1.21143 5.54381C1.01672 5.34869 1.01681 5.03195 1.21143 4.83678C3.01153 3.03675 5.45387 2.02549 7.99951 2.02525C9.51643 2.02531 10.9963 2.38518 12.3257 3.0565L13.7368 1.64635Z" fill="white"/>
<path d="M8.00049 10.4764C8.96669 10.4768 9.75026 11.2602 9.75049 12.2264C9.75046 13.1928 8.96682 13.9761 8.00049 13.9764C7.03395 13.9763 6.25051 13.193 6.25049 12.2264C6.25071 11.26 7.03407 10.4765 8.00049 10.4764Z" fill="white"/>
<path d="M10.6069 7.59752C11.0476 7.84049 11.4567 8.14462 11.8188 8.5067C12.0134 8.70193 12.0137 9.01865 11.8188 9.21373C11.6238 9.40872 11.3071 9.40836 11.1118 9.21373C10.7467 8.84868 10.3238 8.55447 9.86475 8.33971L10.6069 7.59752Z" fill="white"/>
<path d="M12.3433 5.86119C12.6832 6.10259 13.0055 6.37208 13.3042 6.67076C13.4991 6.86575 13.4986 7.18248 13.3042 7.37779C13.1089 7.57298 12.7924 7.57299 12.5972 7.37779C12.2978 7.07843 11.9719 6.81162 11.6255 6.57896L12.3433 5.86119Z" fill="white"/>
<path d="M14.0396 4.16392C14.2994 4.37426 14.55 4.59821 14.7886 4.83678C14.9833 5.03187 14.9831 5.34862 14.7886 5.54381C14.5934 5.73855 14.2757 5.73866 14.0806 5.54381C13.8421 5.30533 13.5897 5.08374 13.3276 4.87682L14.0396 4.16392Z" fill="white"/>
</svg>
