<svg width="16" height="16" viewBox="0 0 16 16" fill="none" xmlns="http://www.w3.org/2000/svg">
<path d="M7.99931 10.4766C8.96581 10.4766 9.7491 11.2601 9.74932 12.2266C9.74932 13.1932 8.96595 13.9766 7.99931 13.9766C7.03289 13.9763 6.24929 13.193 6.24929 12.2266C6.24951 11.2603 7.03303 10.4768 7.99931 10.4766ZM7.99931 6.9248C9.43109 6.92491 10.8051 7.49457 11.8177 8.50684C12.0126 8.70212 12.0128 9.01873 11.8177 9.21387C11.6225 9.40864 11.3058 9.40862 11.1107 9.21387C10.2856 8.38914 9.16587 7.92491 7.99931 7.9248C6.83267 7.92504 5.7129 8.38892 4.88795 9.21387C4.69278 9.40865 4.37608 9.40864 4.18091 9.21387C3.98631 9.01868 3.98619 8.70195 4.18091 8.50684C5.1934 7.49435 6.56745 6.92504 7.99931 6.9248Z" fill="white"/>
</svg>
