<svg width="16" height="16" viewBox="0 0 16 16" fill="none" xmlns="http://www.w3.org/2000/svg">
<path d="M8.00061 10.4766C8.96685 10.4769 9.75038 11.2603 9.75061 12.2266C9.75061 13.193 8.96699 13.9763 8.00061 13.9766C7.03397 13.9766 6.25061 13.1932 6.25061 12.2266C6.25083 11.2601 7.03411 10.4766 8.00061 10.4766Z" fill="white"/>
<path d="M8.00061 6.9248C9.43245 6.92499 10.8065 7.49441 11.819 8.50684C12.0136 8.70208 12.0139 9.01877 11.819 9.21387C11.6239 9.40895 11.3072 9.40858 11.1119 9.21387C10.287 8.38898 9.16723 7.92499 8.00061 7.9248C6.83379 7.92484 5.71439 8.38885 4.88928 9.21387C4.69419 9.40895 4.37755 9.40861 4.18225 9.21387C3.98715 9.01859 3.98704 8.70204 4.18225 8.50684C5.19489 7.49428 6.56857 6.92484 8.00061 6.9248Z" fill="white"/>
<path d="M8.00061 4.47461C9.98962 4.47466 11.8979 5.26448 13.3043 6.6709C13.4993 6.86592 13.4988 7.18261 13.3043 7.37793C13.1091 7.57319 12.7925 7.57319 12.5973 7.37793C11.3784 6.15904 9.7244 5.47466 8.00061 5.47461C6.27683 5.47461 4.62289 6.15912 3.40393 7.37793C3.20867 7.57319 2.89216 7.57319 2.6969 7.37793C2.50217 7.18263 2.50181 6.86598 2.6969 6.6709C4.10339 5.26455 6.01162 4.47461 8.00061 4.47461Z" fill="white"/>
<path d="M7.99963 2.02539C10.5456 2.02547 12.9884 3.03664 14.7887 4.83691C14.9835 5.03202 14.9833 5.34873 14.7887 5.54395C14.5935 5.73877 14.2758 5.7389 14.0807 5.54395C12.468 3.93145 10.2802 3.02547 7.99963 3.02539C5.71911 3.02558 3.5312 3.9314 1.91858 5.54395C1.72335 5.73877 1.4067 5.7389 1.21155 5.54395C1.0167 5.34878 1.01675 5.03211 1.21155 4.83691C3.01171 3.03683 5.45389 2.02558 7.99963 2.02539Z" fill="white"/>
</svg>
