<svg width="16" height="16" viewBox="0 0 16 16" fill="none" xmlns="http://www.w3.org/2000/svg">
<path fill-rule="evenodd" clip-rule="evenodd" d="M7.99966 3.2998C5.69281 3.2998 3.48144 4.20706 1.85177 5.8204C1.65553 6.01468 1.33895 6.01308 1.14467 5.81684C0.950394 5.6206 0.951989 5.30402 1.14823 5.10974C2.9662 3.31 5.43082 2.2998 7.99966 2.2998C10.5685 2.2998 13.0331 3.31 14.8511 5.10974C15.0473 5.30402 15.0489 5.6206 14.8547 5.81684C14.6604 6.01308 14.3438 6.01468 14.1476 5.8204C12.5179 4.20706 10.3065 3.2998 7.99966 3.2998ZM4.85155 8.7895C5.68561 7.96379 6.8179 7.49902 7.9996 7.49902C8.70069 7.49902 9.3844 7.66262 9.99875 7.96814C10.3864 7.77534 10.8058 7.63681 11.247 7.56248C10.313 6.87572 9.1756 6.49902 7.9996 6.49902C6.55592 6.49902 5.17037 7.06673 4.14801 8.07884C3.95177 8.27311 3.95017 8.58969 4.14445 8.78594C4.33873 8.98218 4.65531 8.98377 4.85155 8.7895ZM7.94189 10.0527C7.65868 10.6419 7.5 11.3023 7.5 11.9998C7.5 12.5396 7.59507 13.0573 7.76939 13.5369C6.90192 13.4252 6.23218 12.691 6.23218 11.8017C6.23218 10.8543 6.99233 10.083 7.94189 10.0527Z" fill="white"/>
<path d="M12 9.95467C11.6235 9.95467 11.3182 10.2599 11.3182 10.6365V11.3183H12.6819V10.6365C12.6819 10.26 12.3766 9.95467 12 9.95467Z" fill="white"/>
<path fill-rule="evenodd" clip-rule="evenodd" d="M12 15.7498C14.0711 15.7498 15.75 14.0709 15.75 11.9998C15.75 9.92874 14.0711 8.2498 12 8.2498C9.92893 8.2498 8.25 9.92874 8.25 11.9998C8.25 14.0709 9.92893 15.7498 12 15.7498ZM13.3635 10.6357V11.3175C13.7401 11.3175 14.0454 11.6227 14.0454 11.9993V13.7039C14.0454 14.0805 13.7401 14.3857 13.3635 14.3857H10.6363C10.2597 14.3857 9.95445 14.0805 9.95445 13.7039V11.9993C9.95445 11.6227 10.2597 11.3175 10.6363 11.3175V10.6357C10.6363 9.88259 11.247 9.27206 11.9999 9.27206C12.753 9.27206 13.3635 9.88274 13.3635 10.6357Z" fill="white"/>
</svg>
