<svg width="16" height="16" viewBox="0 0 16 16" fill="none" xmlns="http://www.w3.org/2000/svg">
<path fill-rule="evenodd" clip-rule="evenodd" d="M14.9961 6.61917C14.9961 6.89531 14.7722 7.11917 14.4961 7.11917H10.8079C10.5318 7.11917 10.3079 6.89531 10.3079 6.61917V2.99957C10.3079 2.72343 10.5318 2.49957 10.8079 2.49957C11.0841 2.49957 11.3079 2.72343 11.3079 2.99957V5.4279L14.1459 2.64272C14.343 2.4493 14.6595 2.45227 14.8529 2.64935C15.0464 2.84644 15.0434 3.16301 14.8463 3.35643L12.0312 6.11917H14.4961C14.7722 6.11917 14.9961 6.34302 14.9961 6.61917ZM4.27893 2.50003L9.40323 2.50003V3.50003H4.3C3.8017 3.50003 3.45805 3.50042 3.19132 3.52221C2.93042 3.54352 2.78745 3.5828 2.68251 3.63627C2.44731 3.75611 2.25608 3.94734 2.13624 4.18254C2.08277 4.28748 2.0435 4.43045 2.02218 4.69135C2.00039 4.95808 2 5.30173 2 5.80003V7.30862H7.58394C8.46602 7.30862 8.90706 7.30862 9.24397 7.48029C9.54033 7.63129 9.78127 7.87223 9.93227 8.16859C10.1039 8.5055 10.1039 8.94654 10.1039 9.82862V12.497H11.6964C12.1947 12.497 12.5384 12.4966 12.8051 12.4748C13.066 12.4535 13.209 12.4142 13.3139 12.3608C13.5491 12.2409 13.7403 12.0497 13.8602 11.8145C13.9136 11.7096 13.9529 11.5666 13.9742 11.3057C13.996 11.039 13.9964 10.6953 13.9964 10.197V7.99852H14.9964V10.2181C14.9964 10.6902 14.9964 11.0749 14.9709 11.3871C14.9445 11.7099 14.8885 11.9991 14.7512 12.2685C14.5355 12.6918 14.1913 13.0361 13.7679 13.2518C13.4985 13.389 13.2093 13.4451 12.8865 13.4715C12.5743 13.497 12.1896 13.497 11.7175 13.497H4.27891C3.80677 13.497 3.42215 13.497 3.10989 13.4715C2.78715 13.4451 2.49793 13.389 2.22852 13.2518C1.80516 13.0361 1.46095 12.6918 1.24524 12.2685C1.10797 11.9991 1.05187 11.7099 1.0255 11.3871C0.99999 11.0748 0.999995 10.6902 1 10.2181V5.77895C0.999995 5.3068 0.99999 4.92218 1.0255 4.60991C1.05187 4.28718 1.10797 3.99796 1.24524 3.72855C1.46095 3.30518 1.80516 2.96098 2.22852 2.74526C2.49793 2.60799 2.78715 2.5519 3.10989 2.52553C3.42215 2.50002 3.80678 2.50002 4.27893 2.50003Z" fill="white"/>
</svg>
