<svg width="16" height="16" viewBox="0 0 16 16" fill="none" xmlns="http://www.w3.org/2000/svg">
<path fill-rule="evenodd" clip-rule="evenodd" d="M11.717 2.5C12.1892 2.49999 12.5738 2.49999 12.886 2.5255C13.2088 2.55187 13.498 2.60797 13.7674 2.74524C14.1908 2.96095 14.535 3.30516 14.7507 3.72852C14.888 3.99793 14.9441 4.28715 14.9704 4.60989C14.9959 4.92215 14.9959 5.30677 14.9959 5.77891V10.2182C14.9959 10.6904 14.9959 11.075 14.9704 11.3873C14.9441 11.71 14.888 11.9992 14.7507 12.2686C14.535 12.692 14.1908 13.0362 13.7674 13.2519C13.498 13.3892 13.2088 13.4453 12.886 13.4716C12.5738 13.4972 12.1892 13.4972 11.717 13.4972H4.27843C3.80628 13.4972 3.42166 13.4972 3.1094 13.4716C2.78666 13.4453 2.49744 13.3892 2.22803 13.2519C1.80467 13.0362 1.46046 12.692 1.24475 12.2686C1.10748 11.9992 1.05138 11.71 1.02502 11.3873C0.999501 11.075 0.999506 10.6904 0.999512 10.2182V5.77891C0.999506 5.30677 0.999501 4.92215 1.02502 4.60989C1.05138 4.28715 1.10748 3.99793 1.24475 3.72852C1.46046 3.30516 1.80467 2.96095 2.22803 2.74524C2.49744 2.60797 2.78666 2.55187 3.1094 2.5255C3.42167 2.49999 3.80629 2.49999 4.27844 2.5H11.717ZM13.3134 3.63624C13.2085 3.58277 13.0655 3.5435 12.8046 3.52218C12.5379 3.50039 12.1942 3.5 11.6959 3.5H4.29951C3.80122 3.5 3.45756 3.50039 3.19083 3.52218C2.92994 3.5435 2.78696 3.58277 2.68202 3.63624C2.44682 3.75608 2.2556 3.94731 2.13575 4.18251C2.08228 4.28745 2.04301 4.43042 2.02169 4.69132C1.9999 4.95805 1.99951 5.3017 1.99951 5.8V10.1972C1.99951 10.6954 1.9999 11.0391 2.02169 11.3058C2.04301 11.5667 2.08228 11.7097 2.13575 11.8146C2.2556 12.0498 2.44682 12.2411 2.68202 12.3609C2.78696 12.4144 2.92994 12.4537 3.19083 12.475C3.45756 12.4968 3.80122 12.4972 4.29951 12.4972H5.89199V9.82957C5.89199 8.94749 5.89199 8.50645 6.06366 8.16954C6.21466 7.87318 6.4556 7.63224 6.75196 7.48124C7.08887 7.30957 7.52991 7.30957 8.41199 7.30957H13.9959V5.8C13.9959 5.3017 13.9955 4.95805 13.9737 4.69132C13.9524 4.43042 13.9132 4.28745 13.8597 4.18251C13.7398 3.94731 13.5486 3.75608 13.3134 3.63624Z" fill="white"/>
</svg>
