<svg width="16" height="16" viewBox="0 0 16 16" fill="none" xmlns="http://www.w3.org/2000/svg">
<path fill-rule="evenodd" clip-rule="evenodd" d="M4.27893 2.5C3.80678 2.49999 3.42215 2.49999 3.10989 2.5255C2.78715 2.55187 2.49793 2.60797 2.22852 2.74524C1.80516 2.96095 1.46095 3.30516 1.24524 3.72852C1.10797 3.99793 1.05187 4.28715 1.0255 4.60989C0.99999 4.92215 0.999995 5.30677 1 5.77892V10.2182C0.999995 10.6904 0.99999 11.075 1.0255 11.3873C1.05187 11.71 1.10797 11.9992 1.24524 12.2686C1.46095 12.692 1.80516 13.0362 2.22852 13.2519C2.49793 13.3892 2.78715 13.4453 3.10989 13.4716C3.42215 13.4972 3.80677 13.4972 4.27891 13.4972H11.7175C12.1896 13.4972 12.5743 13.4972 12.8865 13.4716C13.2093 13.4453 13.4985 13.3892 13.7679 13.2519C14.1913 13.0362 14.5355 12.692 14.7512 12.2686C14.8885 11.9992 14.9445 11.71 14.9709 11.3873C14.9964 11.075 14.9964 10.6904 14.9964 10.2182V5.77891C14.9964 5.30677 14.9964 4.92215 14.9709 4.60989C14.9445 4.28715 14.8885 3.99793 14.7512 3.72852C14.5355 3.30516 14.1913 2.96095 13.7679 2.74524C13.4985 2.60797 13.2093 2.55187 12.8865 2.5255C12.5743 2.49999 12.1896 2.49999 11.7175 2.5H4.27893ZM2.68251 3.63624C2.78745 3.58277 2.93042 3.5435 3.19132 3.52218C3.45805 3.50039 3.8017 3.5 4.3 3.5H11.6964C12.1947 3.5 12.5384 3.50039 12.8051 3.52218C13.066 3.5435 13.209 3.58277 13.3139 3.63624C13.5491 3.75608 13.7403 3.94731 13.8602 4.18251C13.9136 4.28745 13.9529 4.43042 13.9742 4.69132C13.996 4.95805 13.9964 5.3017 13.9964 5.8V10.1972C13.9964 10.6954 13.996 11.0391 13.9742 11.3058C13.9529 11.5667 13.9136 11.7097 13.8602 11.8146C13.7403 12.0498 13.5491 12.2411 13.3139 12.3609C13.209 12.4144 13.066 12.4537 12.8051 12.475C12.5384 12.4968 12.1947 12.4972 11.6964 12.4972H4.3C3.8017 12.4972 3.45805 12.4968 3.19132 12.475C2.93042 12.4537 2.78745 12.4144 2.68251 12.3609C2.44731 12.2411 2.25608 12.0498 2.13624 11.8146C2.08277 11.7097 2.0435 11.5667 2.02218 11.3058C2.00039 11.0391 2 10.6954 2 10.1972V5.8C2 5.3017 2.00039 4.95805 2.02218 4.69132C2.0435 4.43042 2.08277 4.28745 2.13624 4.18251C2.25608 3.94731 2.44731 3.75608 2.68251 3.63624ZM3.95821 8.3428C3.47323 8.3428 3.08008 8.72866 3.08008 9.20463V10.5835C3.08008 11.0595 3.47323 11.4454 3.95821 11.4454H6.76825C7.25323 11.4454 7.64639 11.0595 7.64639 10.5835V9.20463C7.64639 8.72866 7.25323 8.3428 6.76825 8.3428H3.95821ZM4.13384 10.4112V9.37699H6.59262V10.4112H4.13384ZM8.3489 9.20463C8.3489 8.72866 8.74205 8.3428 9.22703 8.3428H12.0371C12.522 8.3428 12.9152 8.72866 12.9152 9.20463V10.5835C12.9152 11.0595 12.522 11.4454 12.0371 11.4454H9.22703C8.74205 11.4454 8.3489 11.0595 8.3489 10.5835V9.20463ZM9.40266 9.37699V10.4112H11.8614V9.37699H9.40266ZM3.95821 4.55078C3.47323 4.55078 3.08008 4.93663 3.08008 5.41261V6.79152C3.08008 7.26749 3.47323 7.65335 3.95821 7.65335H6.76825C7.25323 7.65335 7.64639 7.26749 7.64639 6.79152V5.41261C7.64639 4.93663 7.25323 4.55078 6.76825 4.55078H3.95821ZM4.13384 6.61916V5.58497H6.59262V6.61916H4.13384ZM8.3489 5.41261C8.3489 4.93663 8.74205 4.55078 9.22703 4.55078H12.0371C12.522 4.55078 12.9152 4.93663 12.9152 5.41261V6.79152C12.9152 7.26749 12.522 7.65335 12.0371 7.65335H9.22703C8.74205 7.65335 8.3489 7.26749 8.3489 6.79152V5.41261ZM9.40266 5.58497V6.61916H11.8614V5.58497H9.40266Z" fill="white"/>
</svg>
