<svg width="16" height="16" viewBox="0 0 16 16" fill="none" xmlns="http://www.w3.org/2000/svg">
<path fill-rule="evenodd" clip-rule="evenodd" d="M11.7209 2.5H6.59686V3.5H11.6999C12.1982 3.5 12.5418 3.50039 12.8085 3.52218C13.0694 3.5435 13.2124 3.58277 13.3174 3.63624C13.5526 3.75608 13.7438 3.94731 13.8636 4.18251C13.9171 4.28745 13.9564 4.43042 13.9777 4.69132C13.9995 4.95805 13.9999 5.3017 13.9999 5.8V7.30957H8.41616C7.53408 7.30957 7.09304 7.30957 6.75613 7.48124C6.45977 7.63224 6.21883 7.87318 6.06783 8.16954C5.89616 8.50645 5.89616 8.94749 5.89616 9.82957V12.4972H4.30381C3.80551 12.4972 3.46186 12.4968 3.19513 12.475C2.93423 12.4537 2.79126 12.4144 2.68632 12.3609C2.45112 12.2411 2.25989 12.0498 2.14005 11.8146C2.08658 11.7097 2.04731 11.5667 2.02599 11.3058C2.0042 11.0391 2.00381 10.6954 2.00381 10.1972V7.99858H1.00381V10.2182C1.0038 10.6904 1.0038 11.075 1.02931 11.3873C1.05568 11.71 1.11178 11.9992 1.24905 12.2686C1.46476 12.692 1.80897 13.0362 2.23233 13.2519C2.50174 13.3892 2.79096 13.4453 3.1137 13.4716C3.42596 13.4972 3.81058 13.4972 4.28272 13.4972H11.721C12.1931 13.4972 12.5777 13.4972 12.89 13.4716C13.2127 13.4453 13.5019 13.3892 13.7713 13.2519C14.1947 13.0362 14.5389 12.692 14.7546 12.2686C14.8919 11.9992 14.948 11.71 14.9744 11.3873C14.9999 11.075 14.9999 10.6904 14.9999 10.2182V5.77892C14.9999 5.30678 14.9999 4.92215 14.9744 4.60989C14.948 4.28715 14.8919 3.99793 14.7546 3.72852C14.5389 3.30516 14.1947 2.96095 13.7713 2.74524C13.5019 2.60797 13.2127 2.55187 12.89 2.5255C12.5777 2.49999 12.1931 2.49999 11.7209 2.5ZM5.34024 3C5.34024 2.72386 5.11638 2.5 4.84024 2.5H1.50342C1.22727 2.5 1.00342 2.72386 1.00342 3V6.27493C1.00342 6.55107 1.22727 6.77493 1.50342 6.77493C1.77956 6.77493 2.00342 6.55107 2.00342 6.27493V4.19131L4.84126 6.97651C5.03834 7.16993 5.35491 7.16697 5.54833 6.96989C5.74176 6.77281 5.7388 6.45624 5.54171 6.26281L2.72669 3.5H4.84024C5.11638 3.5 5.34024 3.27614 5.34024 3Z" fill="white"/>
</svg>
