<svg width="16" height="16" viewBox="0 0 16 16" fill="none" xmlns="http://www.w3.org/2000/svg">
<path d="M8.5 8.95374H9.96004C10.2362 8.95374 10.46 8.72988 10.46 8.45374C10.46 8.17759 10.2362 7.95374 9.96004 7.95374H8.92555L10.5181 5.52403C10.6695 5.29308 10.605 4.98314 10.3741 4.83176C10.1431 4.68038 9.83316 4.74488 9.68178 4.97584L7.99996 7.54169L6.31813 4.97584C6.16675 4.74488 5.85681 4.68038 5.62586 4.83176C5.39491 4.98314 5.3304 5.29308 5.48178 5.52403L7.07436 7.95374H6.04004C5.7639 7.95374 5.54004 8.17759 5.54004 8.45374C5.54004 8.72988 5.7639 8.95374 6.04004 8.95374H7.5V9.78455H6.04004C5.7639 9.78455 5.54004 10.0084 5.54004 10.2845C5.54004 10.5607 5.7639 10.7845 6.04004 10.7845H7.5V11.1999C7.5 11.476 7.72386 11.6999 8 11.6999C8.27614 11.6999 8.5 11.476 8.5 11.1999V10.7845H9.96004C10.2362 10.7845 10.46 10.5607 10.46 10.2845C10.46 10.0084 10.2362 9.78455 9.96004 9.78455H8.5V8.95374Z" fill="white"/>
<path fill-rule="evenodd" clip-rule="evenodd" d="M1 7.99988C1 4.13388 4.13401 0.999878 8 0.999878C11.866 0.999878 15 4.13388 15 7.99988C15 11.8659 11.866 14.9999 8 14.9999C4.13401 14.9999 1 11.8659 1 7.99988ZM8 2.04988C4.71391 2.04988 2.05 4.71378 2.05 7.99988C2.05 11.286 4.71391 13.9499 8 13.9499C11.2861 13.9499 13.95 11.286 13.95 7.99988C13.95 4.71378 11.2861 2.04988 8 2.04988Z" fill="white"/>
</svg>
