<svg width="16" height="16" viewBox="0 0 16 16" fill="none" xmlns="http://www.w3.org/2000/svg">
<path fill-rule="evenodd" clip-rule="evenodd" d="M2.5 6.9C2.5 4.46995 4.46995 2.5 6.9 2.5C9.33005 2.5 11.3 4.46995 11.3 6.9C11.3 9.33005 9.33005 11.3 6.9 11.3C4.46995 11.3 2.5 9.33005 2.5 6.9ZM6.9 1.5C3.91766 1.5 1.5 3.91766 1.5 6.9C1.5 9.88234 3.91766 12.3 6.9 12.3C8.21113 12.3 9.41312 11.8327 10.3485 11.0556L13.8964 14.6036C14.0917 14.7988 14.4083 14.7988 14.6036 14.6036C14.7988 14.4083 14.7988 14.0917 14.6036 13.8964L11.0556 10.3485C11.8327 9.41312 12.3 8.21113 12.3 6.9C12.3 3.91766 9.88234 1.5 6.9 1.5ZM7.39961 4.09961C7.39961 3.82347 7.17575 3.59961 6.89961 3.59961C6.62347 3.59961 6.39961 3.82347 6.39961 4.09961V6.39961H4.09961C3.82347 6.39961 3.59961 6.62347 3.59961 6.89961C3.59961 7.17575 3.82347 7.39961 4.09961 7.39961H6.39961V9.69961C6.39961 9.97575 6.62347 10.1996 6.89961 10.1996C7.17575 10.1996 7.39961 9.97575 7.39961 9.69961V7.39961H9.69961C9.97575 7.39961 10.1996 7.17575 10.1996 6.89961C10.1996 6.62347 9.97575 6.39961 9.69961 6.39961H7.39961V4.09961Z" fill="white"/>
</svg>
