<svg width="16" height="16" viewBox="0 0 16 16" fill="none" xmlns="http://www.w3.org/2000/svg">
<path fill-rule="evenodd" clip-rule="evenodd" d="M4.57304 11.815C5.28464 12.158 6.08257 12.3502 6.92539 12.3502C8.2344 12.3502 9.43512 11.8866 10.3723 11.1146L13.9042 14.6464C14.1092 14.8515 14.4416 14.8515 14.6466 14.6464C14.8516 14.4414 14.8516 14.109 14.6466 13.904L11.1148 10.3721C11.8868 9.43493 12.3504 8.2342 12.3504 6.9252C12.3504 4.81518 11.1458 2.98651 9.38674 2.0894C9.3699 2.08081 9.353 2.0723 9.33605 2.06388C8.60975 1.70295 7.79107 1.5 6.925 1.5C3.92886 1.5 1.5 3.92886 1.5 6.925C1.5 9.02294 2.69086 10.8427 4.43348 11.7453C4.47962 11.7692 4.52614 11.7924 4.57304 11.815ZM3.6 6.925C3.6 6.63505 3.83505 6.4 4.125 6.4H9.725C10.0149 6.4 10.25 6.63505 10.25 6.925C10.25 7.21495 10.0149 7.45 9.725 7.45H4.125C3.83505 7.45 3.6 7.21495 3.6 6.925Z" fill="white"/>
</svg>
