<svg width="16" height="16" viewBox="0 0 16 16" fill="none" xmlns="http://www.w3.org/2000/svg">
<path fill-rule="evenodd" clip-rule="evenodd" d="M10.8717 10.1641C11.5769 9.30225 12 8.20053 12 7C12 4.23858 9.76142 2 7 2C4.23858 2 2 4.23858 2 7C2 9.76142 4.23858 12 7 12C8.20074 12 9.30262 11.5767 10.1646 10.8713L13.6964 14.4035C13.8917 14.5988 14.2083 14.5988 14.4035 14.4036C14.5988 14.2083 14.5988 13.8917 14.4036 13.6965L10.8717 10.1641ZM6.99922 4.20001C7.27536 4.20001 7.49922 4.42387 7.49922 4.70001V6.50001H9.29922C9.57536 6.50001 9.79922 6.72387 9.79922 7.00001C9.79922 7.27615 9.57536 7.50001 9.29922 7.50001H7.49922V9.30001C7.49922 9.57615 7.27536 9.80001 6.99922 9.80001C6.72308 9.80001 6.49922 9.57615 6.49922 9.30001V7.50001H4.69922C4.42308 7.50001 4.19922 7.27615 4.19922 7.00001C4.19922 6.72387 4.42308 6.50001 4.69922 6.50001H6.49922V4.70001C6.49922 4.42387 6.72308 4.20001 6.99922 4.20001Z" fill="white"/>
</svg>
