<svg width="16" height="16" viewBox="0 0 16 16" fill="none" xmlns="http://www.w3.org/2000/svg">
<path fill-rule="evenodd" clip-rule="evenodd" d="M6.97012 5C6.97012 4.72386 7.19397 4.5 7.47012 4.5H9.04512C10.1911 4.5 11.1201 5.42901 11.1201 6.575C11.1201 7.44832 10.5806 8.19563 9.81668 8.50181L11.0559 10.7049C11.1913 10.9455 11.1059 11.2504 10.8652 11.3858C10.6246 11.5212 10.3197 11.4358 10.1843 11.1951L8.75269 8.65H7.97012V10.95C7.97012 11.2261 7.74626 11.45 7.47012 11.45C7.19397 11.45 6.97012 11.2261 6.97012 10.95V5ZM9.03525 7.65H7.97012H9.03525ZM9.0526 7.64997C9.64286 7.64595 10.1201 7.16621 10.1201 6.575C10.1201 5.98129 9.63882 5.5 9.04512 5.5H7.97012V7.65" fill="white"/>
<path fill-rule="evenodd" clip-rule="evenodd" d="M5.37012 4.5C5.64626 4.5 5.87012 4.72386 5.87012 5V10.95C5.87012 11.2261 5.64626 11.45 5.37012 11.45C5.09397 11.45 4.87012 11.2261 4.87012 10.95V5C4.87012 4.72386 5.09397 4.5 5.37012 4.5Z" fill="white"/>
</svg>
