<svg width="16" height="16" viewBox="0 0 16 16" fill="none" xmlns="http://www.w3.org/2000/svg">
<path d="M5.3999 5.20004C5.3999 4.9239 5.17604 4.70004 4.8999 4.70004C4.62376 4.70004 4.3999 4.9239 4.3999 5.20004V10.73C4.3999 11.0448 4.6551 11.3 4.9699 11.3H7.4199C7.69604 11.3 7.9199 11.0762 7.9199 10.8C7.9199 10.5239 7.69604 10.3 7.4199 10.3H5.3999V5.20004Z" fill="white"/>
<path d="M8.67993 4.70004C8.40379 4.70004 8.17993 4.9239 8.17993 5.20004V10.73C8.17993 11.0448 8.43513 11.3 8.74993 11.3H11.1999C11.4761 11.3 11.6999 11.0762 11.6999 10.8C11.6999 10.5239 11.4761 10.3 11.1999 10.3H9.17993V8.38803H10.9899C11.2661 8.38803 11.4899 8.16417 11.4899 7.88803C11.4899 7.61189 11.2661 7.38803 10.9899 7.38803H9.17993V5.70004H10.9899C11.2661 5.70004 11.4899 5.47619 11.4899 5.20004C11.4899 4.9239 11.2661 4.70004 10.9899 4.70004H8.67993Z" fill="white"/>
</svg>
