<svg width="16" height="16" viewBox="0 0 16 16" fill="none" xmlns="http://www.w3.org/2000/svg">
<path d="M5.55029 5.02512C5.55029 4.73517 5.78534 4.50012 6.07529 4.50012H10.2753C10.5652 4.50012 10.8003 4.73517 10.8003 5.02512C10.8003 5.31507 10.5652 5.55012 10.2753 5.55012H9.37061C9.51274 5.77221 9.61636 6.01207 9.67911 6.25012H10.2753C10.5652 6.25012 10.8003 6.48517 10.8003 6.77512C10.8003 7.06507 10.5652 7.30012 10.2753 7.30012H9.67911C9.59204 7.63047 9.42624 7.96431 9.18805 8.2493C8.8095 8.70222 8.23094 9.05012 7.47529 9.05012H7.34276L9.24652 10.9539C9.45155 11.1589 9.45155 11.4913 9.24652 11.6964C9.0415 11.9014 8.70909 11.9014 8.50406 11.6964L5.70413 8.89642C5.6538 8.84609 5.61575 8.788 5.59013 8.72608C5.56446 8.66418 5.55029 8.59631 5.55029 8.52512C5.55029 8.45394 5.56446 8.38606 5.59013 8.32416C5.61575 8.26224 5.65373 8.20423 5.70406 8.15389C5.7544 8.10356 5.81241 8.06558 5.87433 8.03996C5.93623 8.01429 6.00411 8.00012 6.07529 8.00012L7.47529 8.00012C7.87944 8.00012 8.17588 7.82302 8.38239 7.57594C8.45536 7.48863 8.51511 7.39471 8.5623 7.30012H6.42529C6.13534 7.30012 5.90029 7.06507 5.90029 6.77512C5.90029 6.48517 6.13534 6.25012 6.42529 6.25012H8.5623C8.51511 6.15553 8.45536 6.06161 8.38239 5.9743C8.17588 5.72722 7.87944 5.55012 7.47529 5.55012H6.07529C5.78534 5.55012 5.55029 5.31507 5.55029 5.02512Z" fill="white"/>
</svg>
