<svg width="16" height="16" viewBox="0 0 16 16" fill="none" xmlns="http://www.w3.org/2000/svg">
<path d="M6.31813 4.97585C6.16675 4.7449 5.85681 4.68039 5.62586 4.83178C5.39491 4.98316 5.3304 5.2931 5.48178 5.52405L7.07436 7.95375H6.04004C5.7639 7.95375 5.54004 8.17761 5.54004 8.45375C5.54004 8.72989 5.7639 8.95375 6.04004 8.95375H7.5V9.78456H6.04004C5.7639 9.78456 5.54004 10.0084 5.54004 10.2846C5.54004 10.5607 5.7639 10.7846 6.04004 10.7846H7.5V11.1999C7.5 11.476 7.72386 11.6999 8 11.6999C8.27614 11.6999 8.5 11.476 8.5 11.1999V10.7846H9.96004C10.2362 10.7846 10.46 10.5607 10.46 10.2846C10.46 10.0084 10.2362 9.78456 9.96004 9.78456H8.5V8.95375H9.96004C10.2362 8.95375 10.46 8.72989 10.46 8.45375C10.46 8.17761 10.2362 7.95375 9.96004 7.95375H8.92555L10.5181 5.52405C10.6695 5.2931 10.605 4.98316 10.3741 4.83178C10.1431 4.68039 9.83316 4.7449 9.68178 4.97585L7.99996 7.54171L6.31813 4.97585Z" fill="white"/>
</svg>
