<svg width="16" height="16" viewBox="0 0 16 16" fill="none" xmlns="http://www.w3.org/2000/svg">
<path fill-rule="evenodd" clip-rule="evenodd" d="M6.55 5C6.55 4.72386 6.77386 4.5 7.05 4.5H8.625C9.77099 4.5 10.7 5.42901 10.7 6.575C10.7 7.72099 9.77099 8.65 8.625 8.65H7.55V9.4H8.8C9.07614 9.4 9.3 9.62386 9.3 9.9C9.3 10.1761 9.07614 10.4 8.8 10.4H7.55V10.95C7.55 11.2261 7.32614 11.45 7.05 11.45C6.77386 11.45 6.55 11.2261 6.55 10.95V10.4H6C5.72386 10.4 5.5 10.1761 5.5 9.9C5.5 9.62386 5.72386 9.4 6 9.4H6.55V8.65H6C5.72386 8.65 5.5 8.42614 5.5 8.15C5.5 7.87386 5.72386 7.65 6 7.65H6.55V5ZM7.55 7.65H8.625C9.21871 7.65 9.7 7.16871 9.7 6.575C9.7 5.98129 9.21871 5.5 8.625 5.5H7.55V7.65Z" fill="white"/>
</svg>
