<svg width="24" height="24" viewBox="0 0 24 24" fill="none" xmlns="http://www.w3.org/2000/svg">
<metadata>{"aliases":["repeat","loop","one","replay","single","media"],"category":"Repeat","source":"24/Repeat/RepeatOneOutlineBold","size":"24"}</metadata>
<path fill-rule="evenodd" clip-rule="evenodd" d="M19.3682 7.41026C19.8318 7.06193 20.4905 7.15562 20.8389 7.61924C21.7554 8.83943 22.2988 10.3578 22.2988 12.0001C22.2988 16.0317 19.0307 19.2999 14.999 19.2999H11.5332L12.2412 20.0079C12.6512 20.418 12.6512 21.0823 12.2412 21.4923C11.8312 21.9023 11.1669 21.9023 10.7568 21.4923L8.25684 18.9923C7.95662 18.6921 7.86696 18.241 8.0293 17.8487C8.19182 17.4564 8.57434 17.2003 8.99902 17.2003H14.999C17.8709 17.2003 20.1992 14.872 20.1992 12.0001C20.1992 10.828 19.8121 9.74904 19.1592 8.87999C18.8112 8.41646 18.9049 7.75856 19.3682 7.41026ZM8.99902 17.5001L8.88672 17.5089C8.85116 17.5143 8.81624 17.5221 8.78223 17.5323C8.8517 17.5112 8.92396 17.5001 8.99902 17.5001ZM19.5498 7.64952L19.4893 7.69932C19.4855 7.70277 19.4822 7.70656 19.4785 7.71006C19.5006 7.68877 19.5246 7.66842 19.5498 7.64952Z" fill="black"/>
<path fill-rule="evenodd" clip-rule="evenodd" d="M11.7568 2.50792C12.1669 2.09787 12.8312 2.09787 13.2412 2.50792L15.7412 5.00792C16.0414 5.30815 16.1311 5.75919 15.9688 6.15147C15.8062 6.5438 15.4237 6.79991 14.999 6.79991H8.99902C6.12714 6.79991 3.79883 9.12822 3.79883 12.0001C3.79884 13.1718 4.18531 14.2503 4.83789 15.1192C5.18612 15.5829 5.09256 16.2417 4.62891 16.5899C4.16535 16.9378 3.50742 16.8443 3.15918 16.381C2.2427 15.1608 1.69923 13.6423 1.69922 12.0001C1.69922 7.96843 4.96735 4.7003 8.99902 4.7003H12.4648L11.7568 3.99229C11.3468 3.58225 11.3468 2.91797 11.7568 2.50792ZM8.99902 5.0001L8.63867 5.00889C8.28166 5.027 7.93176 5.07206 7.59082 5.14171C8.04601 5.04867 8.51634 5.0001 8.99902 5.0001ZM11.9688 2.71983L11.917 2.77647C11.9124 2.78209 11.9087 2.78834 11.9043 2.79405C11.9241 2.7682 11.9451 2.7435 11.9688 2.71983Z" fill="black"/>
<path fill-rule="evenodd" clip-rule="evenodd" d="M11.5068 8.25792C11.8071 7.95768 12.2581 7.86801 12.6504 8.03038C13.0427 8.1929 13.2988 8.57543 13.2988 9.0001V15.0001C13.2988 15.58 12.8289 16.0499 12.249 16.0499C11.6691 16.0499 11.1993 15.58 11.1992 15.0001V11.4474C10.8093 11.6327 10.3296 11.565 10.0068 11.2423C9.5968 10.8323 9.59682 10.168 10.0068 9.75792L11.5068 8.25792ZM11.499 10.8116V15.0001L11.5 10.8107L11.499 10.8116ZM11.7188 8.46983L10.2188 9.96983L10.167 10.0265C10.1624 10.0321 10.1587 10.0383 10.1543 10.044C10.1741 10.0182 10.1951 9.9935 10.2188 9.96983L11.7188 8.46983Z" fill="black"/>
</svg>
