<svg width="36" height="36" viewBox="0 0 36 36" fill="none" xmlns="http://www.w3.org/2000/svg">
<path fill-rule="evenodd" clip-rule="evenodd" d="M16.0293 21.1045C17.3015 20.3041 18.8706 20.4154 19.9658 21.1045L19.999 21.126L20.4023 21.3857C21.4034 22.045 22.7912 23.0604 23.96 24.2695C25.0224 25.3687 25.8165 26.5235 25.9619 28.0547C25.9744 28.1859 26.0059 28.3966 25.915 28.5967C25.8464 28.7478 25.7184 28.879 25.5752 28.9541C25.4718 29.0083 25.3698 29.0283 25.2812 29.0371C25.1997 29.0452 25.1043 29.0457 25.0107 29.0469C20.3381 29.1062 15.6571 29.1062 10.9844 29.0469C10.8906 29.0457 10.7947 29.0452 10.7129 29.0371C10.6245 29.0283 10.5232 29.0082 10.4199 28.9541C10.2767 28.879 10.1487 28.7477 10.0801 28.5967C9.98927 28.3966 10.0207 28.1859 10.0332 28.0547C10.1786 26.5234 10.9727 25.3687 12.0352 24.2695C13.3707 22.8879 14.9924 21.7594 15.9961 21.126L16.0293 21.1045ZM10.4727 28.4814C10.4824 28.4954 10.494 28.5086 10.5059 28.5215C10.493 28.5075 10.4811 28.4927 10.4707 28.4775L10.4727 28.4814Z" fill="black"/>
<path fill-rule="evenodd" clip-rule="evenodd" d="M24.6084 2.59961C25.2513 2.5996 25.7999 2.59955 26.2529 2.62793C26.7253 2.65752 27.1906 2.72255 27.6494 2.89648C28.7515 3.31439 29.6325 4.14199 30.0811 5.19531C30.2686 5.6356 30.3385 6.08179 30.3701 6.53125C30.4004 6.96131 30.4004 7.48139 30.4004 8.08691V8.11816C30.4004 10.7664 28.7598 13.0935 27.083 14.8105C25.7776 16.1473 24.3202 17.2458 23.21 18C24.3202 18.7542 25.7776 19.8527 27.083 21.1895C28.7598 22.9065 30.4004 25.2336 30.4004 27.8818V27.9131C30.4004 28.5186 30.4004 29.0387 30.3701 29.4688C30.3385 29.9182 30.2686 30.3644 30.0811 30.8047C29.6325 31.858 28.7515 32.6856 27.6494 33.1035C27.1906 33.2775 26.7253 33.3425 26.2529 33.3721C25.7999 33.4004 25.2512 33.4004 24.6084 33.4004H11.3916C10.7487 33.4004 10.2001 33.4004 9.74707 33.3721C9.2747 33.3425 8.80936 33.2775 8.35059 33.1035C7.24849 32.6856 6.36755 31.858 5.91895 30.8047C5.73145 30.3644 5.66152 29.9182 5.62988 29.4688C5.59964 29.0387 5.5996 28.5186 5.59961 27.9131V27.8818C5.59961 25.2336 7.2402 22.9065 8.91699 21.1895C10.2221 19.853 11.6789 18.7542 12.7891 18C11.6789 17.2458 10.2221 16.147 8.91699 14.8105C7.2402 13.0935 5.59961 10.7664 5.59961 8.11816V8.08691C5.5996 7.48135 5.59964 6.96132 5.62988 6.53125C5.66152 6.08179 5.73145 5.6356 5.91895 5.19531C6.36755 4.14199 7.24849 3.31439 8.35059 2.89648C8.80936 2.72255 9.27469 2.65752 9.74707 2.62793C10.2001 2.59955 10.7487 2.5996 11.3916 2.59961H24.6084ZM26.2275 32.9727L26.5205 32.9492C26.53 32.9482 26.5394 32.9463 26.5488 32.9453C26.4436 32.9567 26.3363 32.9658 26.2275 32.9727ZM7.30762 32.0312C7.32752 32.0482 7.34885 32.0635 7.36914 32.0801C7.29848 32.0224 7.22916 31.9636 7.16309 31.9014C7.21009 31.9458 7.25826 31.9891 7.30762 32.0312ZM26.0967 31.1016L26.333 31.082C26.3573 31.0793 26.3802 31.0742 26.4023 31.0713C26.3168 31.0827 26.2166 31.094 26.0967 31.1016ZM11.4248 5.27539C10.7309 5.27539 10.2774 5.27601 9.92871 5.29785C9.59148 5.31898 9.45098 5.35498 9.375 5.38379C8.9694 5.53762 8.65629 5.83875 8.49902 6.20801C8.4717 6.27223 8.43325 6.39698 8.41113 6.71094C8.38818 7.03711 8.3877 7.46255 8.3877 8.11816C8.3877 9.72754 9.42015 11.4146 10.9502 12.9814C12.4447 14.5119 14.2115 15.7213 15.2373 16.3633L15.2598 16.3779C15.3864 16.4571 15.5424 16.5543 15.6689 16.6475C15.7777 16.7276 16.0819 16.9537 16.2539 17.3438C16.4412 17.7688 16.4412 18.2312 16.2539 18.6562C16.082 19.0463 15.7777 19.2724 15.6689 19.3525C15.5425 19.4457 15.3864 19.5429 15.2598 19.6221L15.2373 19.6367C14.2115 20.2787 12.4447 21.4881 10.9502 23.0186C9.42015 24.5854 8.3877 26.2725 8.3877 27.8818C8.3877 28.5374 8.38818 28.9629 8.41113 29.2891C8.43325 29.603 8.4717 29.7278 8.49902 29.792C8.65629 30.1613 8.9694 30.4624 9.375 30.6162C9.45098 30.645 9.59148 30.681 9.92871 30.7021C10.2774 30.724 10.7309 30.7246 11.4248 30.7246H24.5752C25.2691 30.7246 25.7226 30.724 26.0713 30.7021C26.4085 30.681 26.549 30.645 26.625 30.6162C27.0306 30.4624 27.3437 30.1612 27.501 29.792C27.5283 29.7278 27.5668 29.603 27.5889 29.2891C27.6118 28.9629 27.6123 28.5374 27.6123 27.8818C27.6123 26.2725 26.5798 24.5854 25.0498 23.0186C23.5553 21.4881 21.7885 20.2787 20.7627 19.6367L20.7393 19.6221C20.6128 19.543 20.4574 19.4456 20.3311 19.3525C20.2223 19.2724 19.918 19.0463 19.7461 18.6562C19.5588 18.2312 19.5588 17.7688 19.7461 17.3438C19.9181 16.9537 20.2223 16.7276 20.3311 16.6475C20.4575 16.5543 20.6136 16.4571 20.7402 16.3779L20.7627 16.3633C21.7885 15.7213 23.5553 14.5119 25.0498 12.9814C26.5798 11.4146 27.6123 9.72754 27.6123 8.11816C27.6123 7.46255 27.6118 7.03711 27.5889 6.71094C27.5668 6.39698 27.5283 6.27224 27.501 6.20801C27.3437 5.83875 27.0306 5.53762 26.625 5.38379C26.549 5.35498 26.4085 5.31898 26.0713 5.29785C25.7226 5.27601 25.2691 5.27539 24.5752 5.27539H11.4248ZM20.9746 16.7021L21.3975 16.4326C21.468 16.3866 21.5396 16.3369 21.6143 16.2871C21.3795 16.4435 21.1647 16.5832 20.9746 16.7021ZM24.71 13.8701C24.7241 13.8569 24.7388 13.8443 24.7529 13.8311L24.7715 13.8135C24.7511 13.8326 24.7304 13.8512 24.71 13.8701ZM7.99023 7.28613C7.98956 7.33671 7.98968 7.38908 7.98926 7.44336C7.9907 7.26308 7.99311 7.10396 7.99805 6.96094L7.99023 7.28613ZM8.06055 6.28711C8.05719 6.30387 8.05491 6.32155 8.05176 6.33984C8.06452 6.26655 8.07817 6.20592 8.09375 6.1543L8.06055 6.28711ZM20.1982 18.6543C20.2061 18.6665 20.2135 18.6788 20.2217 18.6904C20.2395 18.7157 20.2585 18.7392 20.2773 18.7617C20.2501 18.7288 20.2235 18.6929 20.1982 18.6543Z" fill="black"/>
</svg>
