<svg width="36" height="36" viewBox="0 0 36 36" fill="none" xmlns="http://www.w3.org/2000/svg">
<metadata>{"aliases":["arrows","navigation","movement","back","next","menu","drag","стрелки","навигация","Arrows"],"sourceCategory":"Arrows","source":"36 / Arrows / ShareOutline","size":36}</metadata>
<path fill-rule="evenodd" clip-rule="evenodd" d="M21.5645 4.16254C22.1721 4.20956 22.6148 4.55805 22.835 4.74165C23.0811 4.9469 23.3627 5.22849 23.6533 5.51801L32.9883 14.8159C33.2519 15.0786 33.4004 15.4359 33.4004 15.8081C33.4003 16.1802 33.2519 16.5376 32.9883 16.8002L23.6533 26.0981C23.3627 26.3876 23.0811 26.6692 22.835 26.8745C22.6147 27.0581 22.172 27.4066 21.5645 27.4536C20.879 27.5066 20.209 27.2285 19.7627 26.7055C19.3673 26.2419 19.3017 25.6816 19.2764 25.3959C19.2481 25.0769 19.249 24.679 19.249 24.269V21.7573C14.9429 21.9129 12.3416 22.7953 10.4561 24.0434C8.51927 25.3255 7.20838 27.0636 5.54395 29.2778L5.48047 29.3618C4.55682 30.59 2.59991 29.938 2.59961 28.3998V28.1215C2.59961 18.6057 9.897 10.7631 19.249 9.95454V7.34712C19.249 6.93716 19.2481 6.53929 19.2764 6.22016C19.3017 5.93468 19.3673 5.37432 19.7627 4.91059C20.209 4.38745 20.8789 4.10952 21.5645 4.16254ZM8.83984 24.7915C8.80176 24.8256 8.76423 24.8603 8.72656 24.895C8.78055 24.8454 8.83485 24.7962 8.88965 24.7475L8.83984 24.7915ZM22.0488 11.0913C22.0486 11.9596 21.3545 12.6693 20.4863 12.6889C13.3813 12.85 7.4868 17.7938 5.85156 24.4018C6.73923 23.4151 7.7241 22.4942 8.91113 21.7084C11.3885 20.0687 14.604 19.0904 19.4033 18.9487H19.4316C19.6071 18.9435 19.8181 18.9361 20.0059 18.9467C20.2247 18.9591 20.5217 18.9983 20.835 19.1498C21.2487 19.35 21.5934 19.6846 21.8057 20.0922C21.9679 20.4039 22.0148 20.7033 22.0332 20.9204C22.0491 21.1088 22.0489 21.3225 22.0488 21.5024V23.7436L30.0156 15.8081L22.0488 7.87153V11.0913ZM5.81543 23.0922C5.70491 23.4225 5.60538 23.7576 5.5166 24.0971L5.6582 23.5922C5.70807 23.4248 5.76018 23.2573 5.81543 23.0922ZM8.01367 18.8256C7.98482 18.8654 7.95817 18.9067 7.92969 18.9467C7.97734 18.8798 8.02458 18.8127 8.07324 18.7465L8.01367 18.8256Z" fill="black"/>
</svg>
